# Blender 4.3.2
# www.blender.org
mtllib spike.mtl
o spike
v 0.000000 1.109652 -0.117166
v -0.025761 1.115459 -0.086337
v -0.012607 1.115943 -0.082885
v 0.000000 1.116096 -0.081763
v 0.012607 1.115943 -0.082885
v 0.025761 1.115459 -0.086337
v 0.038549 1.114883 -0.089088
v 0.044203 1.113828 -0.099113
v 0.047041 1.112659 -0.110299
v 0.047066 1.111458 -0.121795
v 0.044308 1.110297 -0.132914
v 0.038959 1.109242 -0.143010
v 0.031354 1.108355 -0.151509
v 0.021950 1.107683 -0.157934
v 0.011296 1.107266 -0.161934
v -0.000000 1.107124 -0.163292
v -0.011296 1.107266 -0.161934
v -0.021950 1.107683 -0.157934
v -0.031354 1.108355 -0.151509
v -0.038959 1.109242 -0.143010
v -0.044308 1.110297 -0.132914
v -0.047066 1.111458 -0.121795
v -0.047041 1.112659 -0.110299
v -0.044203 1.113828 -0.099113
v -0.038549 1.114883 -0.089088
v -0.091987 1.124598 -0.007836
v -0.045039 1.127290 0.004440
v 0.000000 1.128118 0.008437
v 0.045039 1.127290 0.004440
v 0.091987 1.124598 -0.007836
v 0.137486 1.120274 -0.017545
v 0.157663 1.116493 -0.053291
v 0.167793 1.112381 -0.093195
v 0.167886 1.108156 -0.134205
v 0.158053 1.104069 -0.173877
v 0.138975 1.100359 -0.209899
v 0.111850 1.097236 -0.240221
v 0.078305 1.094874 -0.263148
v 0.040296 1.093404 -0.277422
v -0.000000 1.092906 -0.282267
v -0.040296 1.093404 -0.277422
v -0.078305 1.094874 -0.263148
v -0.111850 1.097236 -0.240221
v -0.138975 1.100359 -0.209899
v -0.158053 1.104069 -0.173877
v -0.167886 1.108156 -0.134205
v -0.167793 1.112381 -0.093195
v -0.157663 1.116493 -0.053291
v -0.137486 1.120274 -0.017545
v -0.188617 1.118701 0.108739
v -0.092495 1.127560 0.133947
v 0.000000 1.130228 0.142168
v 0.092495 1.127560 0.133947
v 0.188617 1.118701 0.108739
v 0.280894 1.102042 0.088896
v 0.322125 1.094249 0.015866
v 0.342852 1.086040 -0.065679
v 0.343076 1.077607 -0.149500
v 0.323011 1.069448 -0.230599
v 0.284044 1.062041 -0.304252
v 0.228621 1.055806 -0.366259
v 0.160064 1.051092 -0.413151
v 0.082373 1.048156 -0.442346
v -0.000000 1.047160 -0.452257
v -0.082373 1.048156 -0.442346
v -0.160064 1.051092 -0.413151
v -0.228621 1.055806 -0.366259
v -0.284044 1.062041 -0.304252
v -0.323011 1.069448 -0.230599
v -0.343076 1.077607 -0.149500
v -0.342852 1.086040 -0.065679
v -0.322125 1.094249 0.015866
v -0.280894 1.102042 0.088896
v -0.301665 1.078098 0.248724
v -0.148424 1.099362 0.289620
v 0.000000 1.105710 0.302991
v 0.148424 1.099362 0.289620
v 0.301665 1.078098 0.248724
v 0.445813 1.035084 0.216164
v 0.511261 1.022568 0.100242
v 0.544262 1.009940 -0.029209
v 0.544728 0.996968 -0.162327
v 0.512969 0.984417 -0.291173
v 0.451167 0.973018 -0.408233
v 0.363189 0.963420 -0.506816
v 0.254308 0.956162 -0.581388
v 0.130882 0.951643 -0.627826
v -0.000000 0.950109 -0.643591
v -0.130882 0.951643 -0.627826
v -0.254308 0.956162 -0.581388
v -0.363189 0.963420 -0.506816
v -0.451167 0.973018 -0.408233
v -0.512969 0.984417 -0.291173
v -0.544728 0.996968 -0.162327
v -0.544262 1.009940 -0.029209
v -0.511261 1.022568 0.100242
v -0.445813 1.035084 0.216164
v -0.415482 0.994550 0.394265
v -0.205544 1.034708 0.452471
v 0.000000 1.046666 0.471559
v 0.205544 1.034708 0.452471
v 0.415482 0.994550 0.394265
v 0.606252 0.910772 0.346250
v 0.695270 0.893517 0.188563
v 0.740387 0.876944 0.012491
v 0.741268 0.859917 -0.168687
v 0.698277 0.843433 -0.344167
v 0.614332 0.828454 -0.503695
v 0.494660 0.815838 -0.638116
v 0.346431 0.806294 -0.739842
v 0.178316 0.800350 -0.803210
v -0.000000 0.798332 -0.824726
v -0.178316 0.800350 -0.803210
v -0.346431 0.806294 -0.739842
v -0.494660 0.815838 -0.638116
v -0.614332 0.828454 -0.503695
v -0.698277 0.843433 -0.344167
v -0.741268 0.859917 -0.168687
v -0.740387 0.876944 0.012491
v -0.695270 0.893517 0.188563
v -0.606252 0.910772 0.346250
v -0.515866 0.878384 0.527270
v -0.257137 0.941320 0.603378
v 0.000000 0.960093 0.628413
v 0.257137 0.941320 0.603378
v 0.515866 0.878384 0.527270
v 0.739513 0.745858 0.460866
v 0.848119 0.724513 0.268422
v 0.903563 0.704991 0.053624
v 0.905063 0.684926 -0.167604
v 0.852962 0.665485 -0.382073
v 0.750732 0.647805 -0.577216
v 0.604701 0.632903 -0.741773
v 0.423610 0.621623 -0.866383
v 0.218077 0.614596 -0.944039
v -0.000000 0.612209 -0.970412
v -0.218077 0.614596 -0.944039
v -0.423610 0.621623 -0.866383
v -0.604701 0.632903 -0.741773
v -0.750732 0.647805 -0.577216
v -0.852962 0.665485 -0.382073
v -0.905063 0.684926 -0.167604
v -0.903563 0.704991 0.053624
v -0.848119 0.724513 0.268422
v -0.739513 0.745858 0.460866
v -0.593821 0.747467 0.635043
v -0.298645 0.833981 0.728336
v 0.000000 0.859890 0.759116
v 0.298645 0.833981 0.728336
v 0.593821 0.747467 0.635043
v 0.833372 0.565532 0.548443
v 0.955787 0.541139 0.331432
v 1.018826 0.519855 0.089367
v 1.021096 0.497966 -0.160220
v 0.962844 0.476733 -0.402452
v 0.847869 0.457403 -0.623089
v 0.683233 0.441097 -0.809316
v 0.478777 0.428745 -0.950440
v 0.246527 0.421046 -1.038433
v -0.000000 0.418431 -1.068325
v -0.246527 0.421046 -1.038433
v -0.478777 0.428745 -0.950440
v -0.683233 0.441097 -0.809316
v -0.847869 0.457403 -0.623089
v -0.962844 0.476733 -0.402452
v -1.021096 0.497966 -0.160220
v -1.018826 0.519855 0.089367
v -0.955787 0.541139 0.331432
v -0.833372 0.565532 0.548443
v -0.646255 0.624768 0.711367
v -0.327927 0.731838 0.819413
v 0.000000 0.764053 0.855154
v 0.327927 0.731838 0.819413
v 0.646255 0.624768 0.711367
v 0.887581 0.401038 0.605476
v 1.017978 0.374725 0.374183
v 1.085729 0.352688 0.116384
v 1.088781 0.330005 -0.149727
v 1.027247 0.307976 -0.408292
v 0.905047 0.287900 -0.644059
v 0.729624 0.270948 -0.843246
v 0.511454 0.258096 -0.994305
v 0.263406 0.250081 -1.088544
v -0.000000 0.247358 -1.120566
v -0.263406 0.250081 -1.088544
v -0.511454 0.258096 -0.994305
v -0.729624 0.270948 -0.843246
v -0.905047 0.287900 -0.644059
v -1.027247 0.307976 -0.408292
v -1.088781 0.330005 -0.149727
v -1.085729 0.352688 0.116384
v -1.017978 0.374725 0.374183
v -0.887581 0.401038 0.605476
v -0.675224 0.535125 0.755954
v -0.344881 0.656104 0.873965
v -0.000000 0.692476 0.912850
v 0.344881 0.656104 0.873965
v 0.675224 0.535125 0.755954
v 0.911692 0.283539 0.635585
v 1.045643 0.256258 0.397868
v 1.115733 0.234063 0.133085
v 1.119388 0.211201 -0.140482
v 1.056599 0.188977 -0.406534
v 0.931288 0.168706 -0.649336
v 0.751038 0.151574 -0.854620
v 0.526602 0.138578 -1.010397
v 0.271252 0.130470 -1.107620
v -0.000000 0.127714 -1.140663
v -0.271252 0.130470 -1.107620
v -0.526602 0.138578 -1.010397
v -0.751038 0.151574 -0.854620
v -0.931288 0.168706 -0.649336
v -1.056599 0.188977 -0.406534
v -1.119388 0.211201 -0.140482
v -1.115733 0.234063 0.133085
v -1.045643 0.256258 0.397868
v -0.911692 0.283539 0.635585
v -0.682127 0.498388 0.767525
v -0.345350 0.617551 0.877511
v -0.000000 0.648378 0.906690
v 0.345350 0.617551 0.877511
v 0.682127 0.498388 0.767525
v 0.914638 0.237002 0.642665
v 1.048987 0.209736 0.404113
v 1.119508 0.187642 0.138494
v 1.123390 0.164873 -0.136039
v 1.060574 0.142732 -0.403131
v 0.934950 0.122527 -0.646969
v 0.754098 0.105445 -0.853192
v 0.528805 0.092485 -1.009721
v 0.272405 0.084396 -1.107430
v -0.000000 0.081648 -1.140642
v -0.272405 0.084396 -1.107430
v -0.528805 0.092485 -1.009721
v -0.754098 0.105445 -0.853192
v -0.934950 0.122527 -0.646969
v -1.060574 0.142732 -0.403131
v -1.123390 0.164873 -0.136039
v -1.119508 0.187642 0.138494
v -1.048987 0.209736 0.404113
v -0.914638 0.237002 0.642665
v 0.000000 0.960480 -0.098454
v -0.023668 0.967425 -0.061679
v -0.012575 0.967829 -0.058792
v -0.000000 0.968007 -0.057537
v 0.012575 0.967829 -0.058793
v 0.023668 0.967425 -0.061679
v 0.038400 0.966278 -0.067331
v 0.047271 0.964740 -0.082145
v 0.050434 0.963477 -0.094253
v 0.050487 0.962190 -0.106583
v 0.047560 0.960945 -0.118523
v 0.041840 0.959812 -0.129377
v 0.033687 0.958859 -0.138520
v 0.023591 0.958137 -0.145438
v 0.012142 0.957687 -0.149749
v -0.000000 0.957535 -0.151211
v -0.012143 0.957687 -0.149751
v -0.023591 0.958137 -0.145438
v -0.033687 0.958859 -0.138520
v -0.041838 0.959813 -0.129375
v -0.047560 0.960945 -0.118523
v -0.050487 0.962190 -0.106583
v -0.050431 0.963477 -0.094253
v -0.047274 0.964740 -0.082144
v -0.038400 0.966278 -0.067331
v -0.081120 0.975219 0.005025
v -0.040270 0.977503 0.015060
v 0.000000 0.978243 0.018683
v 0.040270 0.977503 0.015060
v 0.081120 0.975219 0.005025
v 0.125537 0.970956 -0.004772
v 0.144514 0.967097 -0.042952
v 0.153826 0.963313 -0.079698
v 0.153937 0.959437 -0.117299
v 0.144936 0.955688 -0.153681
v 0.127457 0.952282 -0.186725
v 0.102591 0.949414 -0.214547
v 0.071829 0.947246 -0.235588
v 0.036965 0.945896 -0.248689
v 0.000000 0.945438 -0.253136
v -0.036965 0.945897 -0.248686
v -0.071829 0.947246 -0.235588
v -0.102591 0.949414 -0.214547
v -0.127459 0.952281 -0.186727
v -0.144936 0.955687 -0.153681
v -0.153937 0.959437 -0.117299
v -0.153829 0.963313 -0.079698
v -0.144511 0.967097 -0.042953
v -0.125537 0.970956 -0.004772
v -0.163982 0.970173 0.101292
v -0.080649 0.977843 0.123279
v 0.000000 0.980154 0.130563
v 0.080649 0.977843 0.123279
v 0.163982 0.970173 0.101292
v 0.247313 0.955223 0.083867
v 0.284163 0.948363 0.015750
v 0.302475 0.941115 -0.056300
v 0.302688 0.933668 -0.130252
v 0.284998 0.926463 -0.201809
v 0.250628 0.919921 -0.266802
v 0.201732 0.914413 -0.321522
v 0.141242 0.910249 -0.362906
v 0.072688 0.907656 -0.388673
v -0.000000 0.906775 -0.397420
v -0.072688 0.907656 -0.388673
v -0.141242 0.910249 -0.362906
v -0.201732 0.914413 -0.321522
v -0.250628 0.919921 -0.266802
v -0.284998 0.926463 -0.201809
v -0.302688 0.933668 -0.130252
v -0.302475 0.941115 -0.056300
v -0.284163 0.948363 0.015750
v -0.247313 0.955223 0.083867
v -0.260758 0.936183 0.216847
v -0.128158 0.954377 0.253229
v -0.000000 0.959810 0.264939
v 0.128158 0.954377 0.253229
v 0.260758 0.936183 0.216847
v 0.388282 0.897794 0.190834
v 0.444698 0.887626 0.087366
v 0.473387 0.876659 -0.025310
v 0.473795 0.865370 -0.141093
v 0.446174 0.854447 -0.253162
v 0.392422 0.844526 -0.354981
v 0.315901 0.836173 -0.440729
v 0.221197 0.829856 -0.505593
v 0.113842 0.825923 -0.545986
v 0.000000 0.824588 -0.559698
v -0.113842 0.825923 -0.545986
v -0.221197 0.829856 -0.505593
v -0.315901 0.836173 -0.440729
v -0.392422 0.844526 -0.354981
v -0.446174 0.854447 -0.253162
v -0.473795 0.865370 -0.141093
v -0.473387 0.876659 -0.025310
v -0.444698 0.887626 0.087366
v -0.388282 0.897794 0.190834
v -0.359197 0.865082 0.339949
v -0.177253 0.899360 0.391821
v -0.000000 0.909615 0.408418
v 0.177253 0.899360 0.391821
v 0.359197 0.865082 0.339949
v 0.527687 0.789219 0.302988
v 0.603378 0.776292 0.163542
v 0.642468 0.761979 0.010667
v 0.643222 0.747209 -0.146549
v 0.605908 0.732910 -0.298816
v 0.533059 0.719916 -0.437236
v 0.429214 0.708973 -0.553869
v 0.300593 0.700694 -0.642131
v 0.154721 0.695538 -0.697111
v 0.000000 0.693788 -0.715778
v -0.154721 0.695538 -0.697111
v -0.300593 0.700694 -0.642131
v -0.429214 0.708973 -0.553869
v -0.533059 0.719917 -0.437236
v -0.605908 0.732910 -0.298816
v -0.643222 0.747209 -0.146549
v -0.642468 0.761979 0.010667
v -0.603378 0.776292 0.163542
v -0.527687 0.789219 0.302988
v -0.446770 0.764773 0.454649
v -0.222038 0.818518 0.522457
v 0.000000 0.834655 0.544219
v 0.222038 0.818518 0.522457
v 0.446770 0.764773 0.454649
v 0.643953 0.644081 0.402792
v 0.736502 0.628924 0.233109
v 0.784577 0.612094 0.046508
v 0.785865 0.594685 -0.145588
v 0.740613 0.577818 -0.331809
v 0.651839 0.562479 -0.501243
v 0.525038 0.549551 -0.644117
v 0.367800 0.539765 -0.752305
v 0.189345 0.533669 -0.819726
v 0.000000 0.531598 -0.842623
v -0.189345 0.533669 -0.819726
v -0.367800 0.539765 -0.752305
v -0.525038 0.549551 -0.644117
v -0.651839 0.562479 -0.501243
v -0.740613 0.577818 -0.331809
v -0.785865 0.594685 -0.145588
v -0.784577 0.612094 0.046508
v -0.736502 0.628924 0.233109
v -0.643953 0.644081 0.402792
v -0.515215 0.651338 0.547914
v -0.258268 0.725182 0.631130
v -0.000000 0.747458 0.657958
v 0.258268 0.725182 0.631130
v 0.515215 0.651338 0.547914
v 0.725694 0.485255 0.478827
v 0.830350 0.468832 0.288056
v 0.885052 0.450512 0.077696
v 0.887015 0.431515 -0.139121
v 0.836405 0.413087 -0.349545
v 0.736524 0.396312 -0.541206
v 0.593504 0.382160 -0.702974
v 0.415897 0.371440 -0.825561
v 0.214149 0.364759 -0.901996
v -0.000000 0.362489 -0.927961
v -0.214149 0.364759 -0.901996
v -0.415897 0.371440 -0.825562
v -0.593504 0.382160 -0.702974
v -0.736524 0.396312 -0.541206
v -0.836405 0.413087 -0.349545
v -0.887015 0.431515 -0.139121
v -0.885052 0.450512 0.077696
v -0.830350 0.468832 0.288056
v -0.725694 0.485255 0.478827
v -0.561740 0.545107 0.613744
v -0.284128 0.637138 0.709701
v -0.000000 0.664995 0.740818
v 0.284128 0.637138 0.709701
v 0.561740 0.545107 0.613744
v 0.772699 0.340406 0.528013
v 0.884548 0.323498 0.325341
v 0.943368 0.304561 0.101286
v 0.946019 0.284873 -0.129936
v 0.892553 0.265752 -0.354600
v 0.786376 0.248326 -0.559455
v 0.633954 0.233612 -0.732525
v 0.444391 0.222457 -0.863778
v 0.228868 0.215500 -0.945660
v -0.000000 0.213136 -0.973483
v -0.228868 0.215500 -0.945660
v -0.444391 0.222457 -0.863778
v -0.633954 0.233612 -0.732525
v -0.786376 0.248326 -0.559455
v -0.892553 0.265752 -0.354600
v -0.946019 0.284873 -0.129936
v -0.943368 0.304561 0.101286
v -0.884548 0.323498 0.325341
v -0.772699 0.340406 0.528013
v -0.592657 0.473322 0.643910
v -0.305269 0.598382 0.734669
v -0.000000 0.635480 0.765560
v 0.305269 0.598382 0.734669
v 0.592657 0.473322 0.643910
v 0.793720 0.236997 0.553561
v 0.908738 0.219878 0.346051
v 0.969616 0.200827 0.115906
v 0.972798 0.180983 -0.121838
v 0.918238 0.161691 -0.353054
v 0.809341 0.144093 -0.564066
v 0.652696 0.129220 -0.742474
v 0.457650 0.117939 -0.877858
v 0.235736 0.110899 -0.962354
v -0.000000 0.108507 -0.991072
v -0.235735 0.110899 -0.962354
v -0.457650 0.117939 -0.877858
v -0.652697 0.129220 -0.742474
v -0.809341 0.144093 -0.564066
v -0.918238 0.161691 -0.353054
v -0.972798 0.180983 -0.121838
v -0.969616 0.200827 0.115906
v -0.908738 0.219878 0.346051
v -0.793720 0.236997 0.553561
v -0.601687 0.451888 0.658708
v -0.307540 0.591133 0.740932
v -0.000000 0.641529 0.765184
v 0.307540 0.591133 0.740932
v 0.601687 0.451888 0.658708
v 0.802732 0.198245 0.564016
v 0.919200 0.180679 0.354422
v 0.980966 0.161559 0.121647
v 0.984379 0.141632 -0.118916
v 0.929345 0.122251 -0.352964
v 0.819273 0.104565 -0.566638
v 0.660802 0.089613 -0.747354
v 0.463385 0.078267 -0.884524
v 0.238706 0.071187 -0.970150
v -0.000000 0.068781 -0.999254
v -0.238706 0.071187 -0.970150
v -0.463385 0.078267 -0.884524
v -0.660802 0.089613 -0.747354
v -0.819273 0.104565 -0.566638
v -0.929345 0.122251 -0.352964
v -0.984379 0.141632 -0.118916
v -0.980966 0.161559 0.121647
v -0.919200 0.180679 0.354422
v -0.802732 0.198245 0.564016
v -0.104532 1.036677 0.160245
v -0.310649 1.036677 0.083329
v -0.260111 1.105271 -0.052099
v -0.053995 1.105271 0.024817
v -0.224583 1.444931 0.242833
v -0.274050 1.444931 0.224374
v -0.265964 1.455907 0.202705
v -0.216497 1.455907 0.221165
v 0.052222 1.065169 0.121195
v -0.185396 1.065169 0.087465
v -0.163457 1.132486 -0.067090
v 0.074161 1.132486 -0.033360
v -0.056684 1.552571 0.239491
v -0.113712 1.552571 0.231396
v -0.110202 1.563341 0.206667
v -0.053174 1.563341 0.214762
v 0.130000 1.075449 0.084137
v -0.130000 1.075449 0.084137
v -0.130000 1.144189 -0.082220
v 0.130000 1.144189 -0.082220
v 0.031200 1.612634 0.224307
v -0.031200 1.612634 0.224307
v -0.031200 1.623632 0.197690
v 0.031200 1.623632 0.197690
v 0.185396 1.065169 0.087465
v -0.052222 1.065169 0.121195
v -0.074161 1.132486 -0.033360
v 0.163457 1.132486 -0.067090
v 0.113712 1.552571 0.231396
v 0.056684 1.552571 0.239491
v 0.053174 1.563341 0.214762
v 0.110202 1.563341 0.206667
v 0.310649 1.036677 0.083329
v 0.104532 1.036677 0.160245
v 0.053995 1.105271 0.024817
v 0.260111 1.105271 -0.052099
v 0.274050 1.444931 0.224374
v 0.224583 1.444931 0.242833
v 0.216497 1.455907 0.221165
v 0.265964 1.455907 0.202705
vn -0.0000 0.9935 -0.1137
vn -0.0138 0.9867 -0.1621
vn -0.0021 0.9881 -0.1538
vn -0.0000 0.9881 -0.1539
vn 0.0021 0.9881 -0.1538
vn 0.0138 0.9867 -0.1621
vn 0.0137 0.9906 -0.1363
vn -0.0115 0.9940 -0.1086
vn -0.0129 0.9944 -0.1050
vn -0.0132 0.9947 -0.1017
vn -0.0127 0.9951 -0.0985
vn -0.0113 0.9954 -0.0955
vn -0.0092 0.9956 -0.0929
vn -0.0065 0.9958 -0.0909
vn -0.0034 0.9960 -0.0896
vn -0.0000 0.9960 -0.0892
vn 0.0034 0.9960 -0.0896
vn 0.0065 0.9958 -0.0909
vn 0.0092 0.9956 -0.0929
vn 0.0113 0.9954 -0.0955
vn 0.0127 0.9951 -0.0985
vn 0.0132 0.9947 -0.1017
vn 0.0129 0.9944 -0.1050
vn 0.0115 0.9940 -0.1086
vn -0.0137 0.9906 -0.1363
vn -0.0683 0.9938 -0.0881
vn -0.0305 0.9970 -0.0716
vn -0.0000 0.9976 -0.0692
vn 0.0305 0.9970 -0.0716
vn 0.0683 0.9938 -0.0881
vn 0.1008 0.9927 -0.0657
vn 0.0893 0.9937 -0.0676
vn 0.0944 0.9915 -0.0896
vn 0.0943 0.9892 -0.1126
vn 0.0886 0.9869 -0.1349
vn 0.0778 0.9849 -0.1550
vn 0.0625 0.9831 -0.1718
vn 0.0437 0.9818 -0.1846
vn 0.0225 0.9810 -0.1925
vn -0.0000 0.9808 -0.1952
vn -0.0225 0.9810 -0.1925
vn -0.0437 0.9818 -0.1846
vn -0.0625 0.9831 -0.1718
vn -0.0778 0.9849 -0.1550
vn -0.0886 0.9869 -0.1349
vn -0.0943 0.9892 -0.1126
vn -0.0944 0.9915 -0.0896
vn -0.0893 0.9937 -0.0676
vn -0.1008 0.9927 -0.0657
vn -0.1559 0.9868 0.0450
vn -0.0764 0.9946 0.0698
vn -0.0000 0.9971 0.0759
vn 0.0764 0.9946 0.0698
vn 0.1559 0.9868 0.0450
vn 0.2368 0.9703 0.0498
vn 0.2536 0.9673 0.0018
vn 0.2694 0.9610 -0.0621
vn 0.2694 0.9545 -0.1279
vn 0.2535 0.9482 -0.1916
vn 0.2228 0.9424 -0.2493
vn 0.1793 0.9376 -0.2979
vn 0.1255 0.9340 -0.3346
vn 0.0646 0.9317 -0.3574
vn -0.0000 0.9309 -0.3652
vn -0.0646 0.9317 -0.3574
vn -0.1255 0.9340 -0.3346
vn -0.1793 0.9376 -0.2979
vn -0.2228 0.9424 -0.2493
vn -0.2535 0.9482 -0.1916
vn -0.2694 0.9545 -0.1279
vn -0.2694 0.9610 -0.0621
vn -0.2536 0.9673 0.0018
vn -0.2368 0.9703 0.0498
vn -0.2616 0.9428 0.2066
vn -0.1318 0.9615 0.2410
vn -0.0000 0.9677 0.2520
vn 0.1318 0.9615 0.2410
vn 0.2616 0.9428 0.2066
vn 0.3920 0.9016 0.1831
vn 0.4429 0.8924 0.0865
vn 0.4713 0.8816 -0.0256
vn 0.4717 0.8705 -0.1408
vn 0.4441 0.8597 -0.2524
vn 0.3906 0.8499 -0.3537
vn 0.3144 0.8417 -0.4390
vn 0.2201 0.8355 -0.5035
vn 0.1133 0.8316 -0.5437
vn -0.0000 0.8303 -0.5574
vn -0.1133 0.8316 -0.5437
vn -0.2201 0.8355 -0.5035
vn -0.3144 0.8417 -0.4390
vn -0.3906 0.8499 -0.3537
vn -0.4441 0.8597 -0.2524
vn -0.4717 0.8705 -0.1408
vn -0.4713 0.8816 -0.0256
vn -0.4429 0.8924 0.0865
vn -0.3920 0.9016 0.1831
vn -0.3628 0.8612 0.3561
vn -0.1850 0.8966 0.4023
vn -0.0000 0.9080 0.4190
vn 0.1850 0.8966 0.4023
vn 0.3628 0.8612 0.3561
vn 0.5307 0.7923 0.3010
vn 0.6104 0.7743 0.1671
vn 0.6502 0.7597 0.0124
vn 0.6510 0.7448 -0.1467
vn 0.6133 0.7303 -0.3009
vn 0.5396 0.7172 -0.4410
vn 0.4345 0.7061 -0.5591
vn 0.3043 0.6977 -0.6485
vn 0.1566 0.6925 -0.7042
vn -0.0000 0.6908 -0.7231
vn -0.1566 0.6925 -0.7042
vn -0.3043 0.6977 -0.6485
vn -0.4345 0.7061 -0.5591
vn -0.5396 0.7172 -0.4410
vn -0.6133 0.7303 -0.3009
vn -0.6510 0.7448 -0.1467
vn -0.6502 0.7597 0.0124
vn -0.6104 0.7743 0.1671
vn -0.5307 0.7923 0.3010
vn -0.4469 0.7568 0.4769
vn -0.2297 0.8124 0.5359
vn -0.0000 0.8299 0.5580
vn 0.2297 0.8124 0.5359
vn 0.4469 0.7568 0.4769
vn 0.6394 0.6585 0.3969
vn 0.7396 0.6307 0.2349
vn 0.7883 0.6134 0.0473
vn 0.7897 0.5959 -0.1458
vn 0.7444 0.5789 -0.3329
vn 0.6552 0.5634 -0.5033
vn 0.5278 0.5504 -0.6469
vn 0.3698 0.5405 -0.7557
vn 0.1904 0.5343 -0.8236
vn -0.0000 0.5322 -0.8466
vn -0.1904 0.5343 -0.8236
vn -0.3698 0.5405 -0.7557
vn -0.5278 0.5504 -0.6469
vn -0.6552 0.5634 -0.5033
vn -0.7444 0.5789 -0.3329
vn -0.7897 0.5959 -0.1458
vn -0.7883 0.6134 0.0473
vn -0.7396 0.6307 0.2349
vn -0.6394 0.6585 0.3969
vn -0.5105 0.6417 0.5724
vn -0.2646 0.7192 0.6424
vn -0.0000 0.7431 0.6692
vn 0.2646 0.7192 0.6424
vn 0.5105 0.6417 0.5724
vn 0.7158 0.5162 0.4703
vn 0.8301 0.4775 0.2880
vn 0.8853 0.4585 0.0772
vn 0.8874 0.4394 -0.1397
vn 0.8368 0.4208 -0.3502
vn 0.7369 0.4040 -0.5420
vn 0.5939 0.3897 -0.7039
vn 0.4162 0.3789 -0.8266
vn 0.2143 0.3722 -0.9031
vn -0.0000 0.3699 -0.9291
vn -0.2143 0.3722 -0.9031
vn -0.4162 0.3789 -0.8266
vn -0.5939 0.3897 -0.7039
vn -0.7369 0.4040 -0.5420
vn -0.8368 0.4208 -0.3502
vn -0.8874 0.4394 -0.1397
vn -0.8853 0.4585 0.0772
vn -0.8301 0.4775 0.2880
vn -0.7158 0.5162 0.4703
vn -0.5522 0.5330 0.6411
vn -0.2886 0.6295 0.7214
vn -0.0000 0.6584 0.7527
vn 0.2886 0.6295 0.7214
vn 0.5522 0.5330 0.6411
vn 0.7606 0.3895 0.5193
vn 0.8829 0.3396 0.3242
vn 0.9423 0.3196 0.0998
vn 0.9450 0.2998 -0.1312
vn 0.8916 0.2805 -0.3556
vn 0.7855 0.2630 -0.5602
vn 0.6333 0.2482 -0.7331
vn 0.4439 0.2369 -0.8642
vn 0.2286 0.2299 -0.9460
vn -0.0000 0.2276 -0.9738
vn -0.2286 0.2299 -0.9460
vn -0.4439 0.2369 -0.8642
vn -0.6333 0.2482 -0.7331
vn -0.7855 0.2630 -0.5602
vn -0.8916 0.2805 -0.3556
vn -0.9450 0.2998 -0.1312
vn -0.9423 0.3196 0.0998
vn -0.8829 0.3396 0.3242
vn -0.7606 0.3895 0.5193
vn -0.5521 0.3560 0.7540
vn -0.2844 0.3548 0.8906
vn -0.0000 0.6170 0.7870
vn 0.2844 0.3548 0.8906
vn 0.5521 0.3560 0.7540
vn 0.7694 0.2471 0.5890
vn 0.9150 0.1968 0.3522
vn 0.9772 0.1762 0.1187
vn 0.9804 0.1559 -0.1209
vn 0.9254 0.1361 -0.3538
vn 0.8156 0.1180 -0.5665
vn 0.6577 0.1028 -0.7462
vn 0.4612 0.0912 -0.8826
vn 0.2376 0.0840 -0.9677
vn -0.0000 0.0815 -0.9967
vn -0.2376 0.0840 -0.9677
vn -0.4612 0.0912 -0.8826
vn -0.6577 0.1028 -0.7462
vn -0.8156 0.1180 -0.5665
vn -0.9254 0.1361 -0.3538
vn -0.9804 0.1559 -0.1209
vn -0.9772 0.1762 0.1187
vn -0.9150 0.1968 0.3522
vn -0.7694 0.2471 0.5890
vn -0.5607 0.2343 0.7942
vn -0.2623 0.1103 0.9587
vn -0.0000 -0.0311 0.9995
vn 0.2623 0.1103 0.9587
vn 0.5607 0.2343 0.7942
vn 0.8038 0.1678 0.5707
vn 0.9238 0.1168 0.3645
vn 0.9870 0.0953 0.1293
vn 0.9908 0.0747 -0.1127
vn 0.9358 0.0547 -0.3484
vn 0.8252 0.0363 -0.5637
vn 0.6658 0.0208 -0.7459
vn 0.4670 0.0091 -0.8842
vn 0.2406 0.0017 -0.9706
vn -0.0000 -0.0008 -1.0000
vn -0.2406 0.0017 -0.9706
vn -0.4670 0.0091 -0.8842
vn -0.6658 0.0208 -0.7459
vn -0.8252 0.0363 -0.5637
vn -0.9358 0.0547 -0.3484
vn -0.9908 0.0747 -0.1127
vn -0.9870 0.0953 0.1293
vn -0.9238 0.1168 0.3645
vn -0.8038 0.1678 0.5707
vn -0.0000 -0.9934 0.1151
vn 0.0020 -0.9879 0.1554
vn 0.0148 -0.9867 0.1618
vn -0.0000 -0.9879 0.1552
vn -0.0020 -0.9879 0.1554
vn -0.0148 -0.9867 0.1618
vn -0.0116 -0.9904 0.1379
vn 0.0134 -0.9940 0.1084
vn 0.0144 -0.9944 0.1051
vn 0.0144 -0.9947 0.1015
vn 0.0134 -0.9951 0.0982
vn 0.0117 -0.9954 0.0952
vn 0.0094 -0.9957 0.0927
vn 0.0065 -0.9958 0.0908
vn 0.0034 -0.9960 0.0896
vn -0.0000 -0.9960 0.0892
vn -0.0034 -0.9960 0.0896
vn -0.0065 -0.9958 0.0908
vn -0.0094 -0.9957 0.0927
vn -0.0117 -0.9954 0.0952
vn -0.0134 -0.9951 0.0982
vn -0.0144 -0.9947 0.1015
vn -0.0144 -0.9944 0.1051
vn -0.0134 -0.9940 0.1084
vn 0.0116 -0.9904 0.1379
vn 0.0301 -0.9969 0.0729
vn 0.0680 -0.9938 0.0880
vn -0.0000 -0.9975 0.0702
vn -0.0301 -0.9969 0.0729
vn -0.0680 -0.9938 0.0880
vn -0.1009 -0.9928 0.0642
vn -0.0875 -0.9939 0.0678
vn -0.0934 -0.9916 0.0897
vn -0.0933 -0.9893 0.1126
vn -0.0877 -0.9870 0.1346
vn -0.0770 -0.9850 0.1545
vn -0.0619 -0.9833 0.1712
vn -0.0433 -0.9820 0.1838
vn -0.0222 -0.9812 0.1916
vn -0.0000 -0.9810 0.1942
vn 0.0222 -0.9812 0.1916
vn 0.0433 -0.9820 0.1838
vn 0.0619 -0.9833 0.1712
vn 0.0770 -0.9850 0.1545
vn 0.0877 -0.9870 0.1346
vn 0.0933 -0.9893 0.1126
vn 0.0934 -0.9916 0.0897
vn 0.0875 -0.9939 0.0678
vn 0.1009 -0.9928 0.0642
vn 0.0760 -0.9947 -0.0689
vn 0.1547 -0.9869 -0.0451
vn -0.0000 -0.9972 -0.0750
vn -0.0760 -0.9947 -0.0689
vn -0.1547 -0.9869 -0.0451
vn -0.2369 -0.9702 -0.0514
vn -0.2528 -0.9675 -0.0017
vn -0.2686 -0.9612 0.0622
vn -0.2686 -0.9547 0.1279
vn -0.2528 -0.9484 0.1913
vn -0.2222 -0.9427 0.2489
vn -0.1787 -0.9379 0.2973
vn -0.1251 -0.9343 0.3339
vn -0.0644 -0.9320 0.3567
vn -0.0000 -0.9312 0.3644
vn 0.0644 -0.9320 0.3567
vn 0.1251 -0.9343 0.3339
vn 0.1787 -0.9379 0.2973
vn 0.2222 -0.9427 0.2489
vn 0.2528 -0.9484 0.1913
vn 0.2686 -0.9547 0.1279
vn 0.2686 -0.9612 0.0622
vn 0.2528 -0.9675 -0.0017
vn 0.2369 -0.9702 -0.0514
vn 0.1318 -0.9617 -0.2404
vn 0.2606 -0.9431 -0.2062
vn -0.0000 -0.9678 -0.2515
vn -0.1318 -0.9617 -0.2404
vn -0.2606 -0.9431 -0.2062
vn -0.3927 -0.9007 -0.1857
vn -0.4426 -0.8925 -0.0870
vn -0.4711 -0.8817 0.0256
vn -0.4714 -0.8706 0.1409
vn -0.4439 -0.8598 0.2524
vn -0.3904 -0.8500 0.3536
vn -0.3142 -0.8418 0.4389
vn -0.2200 -0.8356 0.5034
vn -0.1132 -0.8317 0.5435
vn -0.0000 -0.8304 0.5572
vn 0.1132 -0.8317 0.5435
vn 0.2200 -0.8356 0.5034
vn 0.3142 -0.8418 0.4389
vn 0.3904 -0.8500 0.3536
vn 0.4439 -0.8598 0.2524
vn 0.4714 -0.8706 0.1409
vn 0.4711 -0.8817 0.0256
vn 0.4426 -0.8925 -0.0870
vn 0.3927 -0.9007 -0.1857
vn 0.1853 -0.8967 -0.4019
vn 0.3619 -0.8615 -0.3561
vn -0.0000 -0.9080 -0.4189
vn -0.1853 -0.8967 -0.4019
vn -0.3619 -0.8615 -0.3561
vn -0.5319 -0.7903 -0.3042
vn -0.6105 -0.7740 -0.1677
vn -0.6504 -0.7595 -0.0124
vn -0.6512 -0.7446 0.1468
vn -0.6135 -0.7301 0.3009
vn -0.5398 -0.7170 0.4411
vn -0.4346 -0.7059 0.5592
vn -0.3044 -0.6976 0.6486
vn -0.1567 -0.6924 0.7043
vn -0.0000 -0.6906 0.7233
vn 0.1567 -0.6924 0.7043
vn 0.3044 -0.6976 0.6486
vn 0.4346 -0.7059 0.5592
vn 0.5398 -0.7170 0.4411
vn 0.6135 -0.7301 0.3009
vn 0.6512 -0.7446 0.1468
vn 0.6504 -0.7595 -0.0124
vn 0.6105 -0.7740 -0.1677
vn 0.5319 -0.7903 -0.3042
vn 0.2300 -0.8126 -0.5355
vn 0.4460 -0.7572 -0.4772
vn -0.0000 -0.8299 -0.5579
vn -0.2300 -0.8126 -0.5355
vn -0.4460 -0.7572 -0.4772
vn -0.6404 -0.6556 -0.4002
vn -0.7400 -0.6300 -0.2355
vn -0.7886 -0.6130 -0.0474
vn -0.7900 -0.5955 0.1458
vn -0.7446 -0.5785 0.3330
vn -0.6554 -0.5630 0.5034
vn -0.5280 -0.5500 0.6471
vn -0.3699 -0.5401 0.7560
vn -0.1904 -0.5339 0.8238
vn -0.0000 -0.5318 0.8468
vn 0.1904 -0.5339 0.8238
vn 0.3699 -0.5401 0.7560
vn 0.5280 -0.5500 0.6471
vn 0.6554 -0.5630 0.5034
vn 0.7446 -0.5785 0.3330
vn 0.7900 -0.5955 0.1458
vn 0.7886 -0.6130 -0.0474
vn 0.7400 -0.6300 -0.2355
vn 0.6404 -0.6556 -0.4002
vn 0.2649 -0.7200 -0.6414
vn 0.5097 -0.6422 -0.5725
vn -0.0000 -0.7436 -0.6687
vn -0.2649 -0.7200 -0.6414
vn -0.5097 -0.6422 -0.5725
vn -0.7164 -0.5126 -0.4732
vn -0.8305 -0.4764 -0.2886
vn -0.8856 -0.4580 -0.0773
vn -0.8876 -0.4389 0.1397
vn -0.8370 -0.4204 0.3502
vn -0.7371 -0.4035 0.5421
vn -0.5940 -0.3892 0.7040
vn -0.4163 -0.3784 0.8267
vn -0.2144 -0.3717 0.9033
vn -0.0000 -0.3694 0.9293
vn 0.2144 -0.3717 0.9033
vn 0.4163 -0.3784 0.8267
vn 0.5940 -0.3892 0.7040
vn 0.7371 -0.4035 0.5421
vn 0.8370 -0.4204 0.3502
vn 0.8876 -0.4389 0.1397
vn 0.8856 -0.4580 -0.0773
vn 0.8305 -0.4764 -0.2886
vn 0.7164 -0.5126 -0.4732
vn 0.2785 -0.6348 -0.7208
vn 0.5493 -0.5392 -0.6384
vn -0.0000 -0.6596 -0.7516
vn -0.2785 -0.6348 -0.7208
vn -0.5493 -0.5392 -0.6384
vn -0.7617 -0.3871 -0.5196
vn -0.8832 -0.3385 -0.3246
vn -0.9424 -0.3194 -0.0999
vn -0.9450 -0.2996 0.1311
vn -0.8916 -0.2803 0.3555
vn -0.7856 -0.2628 0.5602
vn -0.6333 -0.2480 0.7331
vn -0.4440 -0.2367 0.8642
vn -0.2286 -0.2297 0.9460
vn -0.0000 -0.2274 0.9738
vn 0.2286 -0.2297 0.9460
vn 0.4440 -0.2367 0.8642
vn 0.6333 -0.2480 0.7331
vn 0.7856 -0.2628 0.5602
vn 0.8916 -0.2803 0.3555
vn 0.9450 -0.2996 0.1311
vn 0.9424 -0.3194 -0.0999
vn 0.8832 -0.3385 -0.3246
vn 0.7617 -0.3871 -0.5196
vn 0.3843 -0.5999 -0.7017
vn 0.5984 -0.5110 -0.6171
vn -0.0000 -0.6187 -0.7856
vn -0.3843 -0.5999 -0.7017
vn -0.5984 -0.5110 -0.6171
vn -0.7956 -0.3648 -0.4837
vn -0.8951 -0.2938 -0.3354
vn -0.9555 -0.2747 -0.1076
vn -0.9586 -0.2552 0.1267
vn -0.9047 -0.2362 0.3545
vn -0.7974 -0.2189 0.5624
vn -0.6430 -0.2042 0.7381
vn -0.4509 -0.1931 0.8714
vn -0.2322 -0.1862 0.9547
vn -0.0000 -0.1838 0.9830
vn 0.2322 -0.1862 0.9547
vn 0.4509 -0.1931 0.8714
vn 0.6430 -0.2042 0.7381
vn 0.7974 -0.2189 0.5624
vn 0.9047 -0.2362 0.3545
vn 0.9586 -0.2552 0.1267
vn 0.9555 -0.2747 -0.1076
vn 0.8951 -0.2938 -0.3354
vn 0.7956 -0.3648 -0.4837
vn 0.4708 -0.6351 -0.6123
vn 0.6731 -0.5058 -0.5396
vn 0.1523 -0.9783 -0.1407
vn -0.0000 -0.9898 -0.1424
vn -0.0000 -1.0000 0.0071
vn 0.1753 -0.9729 0.1508
vn -0.1523 -0.9783 -0.1407
vn -0.1753 -0.9729 0.1508
vn -0.6731 -0.5058 -0.5396
vn -0.4708 -0.6351 -0.6123
vn -0.8156 -0.3537 -0.4579
vn -0.8902 -0.3094 -0.3345
vn -0.9507 -0.2906 -0.1082
vn -0.9543 -0.2715 0.1251
vn -0.9012 -0.2528 0.3521
vn -0.7946 -0.2358 0.5594
vn -0.6411 -0.2215 0.7348
vn -0.4496 -0.2105 0.8681
vn -0.2316 -0.2037 0.9512
vn -0.0000 -0.2014 0.9795
vn 0.2316 -0.2037 0.9512
vn 0.4496 -0.2105 0.8681
vn 0.6411 -0.2215 0.7348
vn 0.7946 -0.2358 0.5594
vn 0.9012 -0.2528 0.3521
vn 0.9543 -0.2715 0.1251
vn 0.9507 -0.2906 -0.1082
vn 0.8902 -0.3094 -0.3345
vn 0.8156 -0.3538 -0.4579
vn 0.1832 -0.9469 0.2641
vn 0.3275 -0.7698 0.5478
vn 0.3253 -0.7741 0.5431
vn -0.0000 -0.9910 0.1338
vn -0.1832 -0.9469 0.2641
vn -0.3275 -0.7698 0.5478
vn -0.3253 -0.7741 0.5431
vn -0.3901 -0.6190 0.6817
vn 0.1697 -0.9726 0.1588
vn 0.1695 -0.9667 0.1916
vn 0.1721 -0.9795 0.1048
vn 0.1721 -0.9795 0.1049
vn 0.1721 -0.9831 0.0627
vn 0.1721 -0.9831 0.0628
vn 0.1623 -0.9865 0.0219
vn 0.1430 -0.9896 -0.0154
vn 0.1152 -0.9922 -0.0469
vn 0.0807 -0.9942 -0.0707
vn 0.0808 -0.9942 -0.0707
vn 0.0416 -0.9955 -0.0856
vn -0.0000 -0.9959 -0.0906
vn -0.0416 -0.9955 -0.0856
vn -0.0807 -0.9942 -0.0707
vn -0.0808 -0.9942 -0.0707
vn -0.1152 -0.9922 -0.0469
vn -0.1430 -0.9896 -0.0154
vn -0.1623 -0.9865 0.0219
vn -0.1721 -0.9831 0.0627
vn -0.1721 -0.9831 0.0628
vn -0.1721 -0.9795 0.1048
vn -0.1721 -0.9795 0.1049
vn -0.1697 -0.9726 0.1588
vn -0.1695 -0.9667 0.1916
vn 0.3901 -0.6190 0.6817
vn 0.1499 -0.9034 -0.4017
vn -0.1499 0.9034 0.4017
vn -0.3356 -0.2806 0.8993
vn -0.9481 0.1764 -0.2645
vn 0.2882 0.5661 -0.7723
vn 0.8896 0.1764 0.4213
vn 0.0557 -0.9183 -0.3921
vn -0.0557 0.9183 0.3921
vn -0.1356 -0.2622 0.9554
vn -0.9840 0.1648 -0.0679
vn 0.1199 0.5218 -0.8446
vn 0.9640 0.1648 0.2086
vn -0.0000 -0.9242 -0.3819
vn -0.0000 0.9242 0.3819
vn -0.0000 -0.2525 0.9676
vn -0.9842 0.1634 0.0675
vn -0.0000 0.5042 -0.8636
vn 0.9842 0.1634 0.0675
vn -0.0557 -0.9183 -0.3921
vn 0.0557 0.9183 0.3921
vn 0.1356 -0.2622 0.9554
vn -0.9640 0.1648 0.2086
vn -0.1199 0.5218 -0.8446
vn 0.9840 0.1648 -0.0679
vn -0.1499 -0.9034 -0.4017
vn 0.1499 0.9034 0.4017
vn 0.3356 -0.2806 0.8993
vn -0.8896 0.1764 0.4213
vn -0.2882 0.5661 -0.7723
vn 0.9481 0.1764 -0.2645
s 1
usemtl SpikeGlossy
f 1//1 2//2 3//3
f 1//1 3//3 4//4
f 1//1 4//4 5//5
f 1//1 5//5 6//6
f 1//1 6//6 7//7
f 1//1 7//7 8//8
f 1//1 8//8 9//9
f 1//1 9//9 10//10
f 1//1 10//10 11//11
f 1//1 11//11 12//12
f 1//1 12//12 13//13
f 1//1 13//13 14//14
f 1//1 14//14 15//15
f 1//1 15//15 16//16
f 1//1 16//16 17//17
f 1//1 17//17 18//18
f 1//1 18//18 19//19
f 1//1 19//19 20//20
f 1//1 20//20 21//21
f 1//1 21//21 22//22
f 1//1 22//22 23//23
f 1//1 23//23 24//24
f 1//1 24//24 25//25
f 1//1 25//25 2//2
f 2//2 26//26 27//27 3//3
f 3//3 27//27 28//28 4//4
f 4//4 28//28 29//29 5//5
f 5//5 29//29 30//30 6//6
f 6//6 30//30 31//31 7//7
f 7//7 31//31 32//32 8//8
f 8//8 32//32 33//33 9//9
f 9//9 33//33 34//34 10//10
f 10//10 34//34 35//35 11//11
f 11//11 35//35 36//36 12//12
f 12//12 36//36 37//37 13//13
f 13//13 37//37 38//38 14//14
f 14//14 38//38 39//39 15//15
f 15//15 39//39 40//40 16//16
f 16//16 40//40 41//41 17//17
f 17//17 41//41 42//42 18//18
f 18//18 42//42 43//43 19//19
f 19//19 43//43 44//44 20//20
f 20//20 44//44 45//45 21//21
f 21//21 45//45 46//46 22//22
f 22//22 46//46 47//47 23//23
f 23//23 47//47 48//48 24//24
f 24//24 48//48 49//49 25//25
f 25//25 49//49 26//26 2//2
f 26//26 50//50 51//51 27//27
f 27//27 51//51 52//52 28//28
f 28//28 52//52 53//53 29//29
f 29//29 53//53 54//54 30//30
f 30//30 54//54 55//55 31//31
f 31//31 55//55 56//56 32//32
f 32//32 56//56 57//57 33//33
f 33//33 57//57 58//58 34//34
f 34//34 58//58 59//59 35//35
f 35//35 59//59 60//60 36//36
f 36//36 60//60 61//61 37//37
f 37//37 61//61 62//62 38//38
f 38//38 62//62 63//63 39//39
f 39//39 63//63 64//64 40//40
f 40//40 64//64 65//65 41//41
f 41//41 65//65 66//66 42//42
f 42//42 66//66 67//67 43//43
f 43//43 67//67 68//68 44//44
f 44//44 68//68 69//69 45//45
f 45//45 69//69 70//70 46//46
f 46//46 70//70 71//71 47//47
f 47//47 71//71 72//72 48//48
f 48//48 72//72 73//73 49//49
f 49//49 73//73 50//50 26//26
f 50//50 74//74 75//75 51//51
f 51//51 75//75 76//76 52//52
f 52//52 76//76 77//77 53//53
f 53//53 77//77 78//78 54//54
f 54//54 78//78 79//79 55//55
f 55//55 79//79 80//80 56//56
f 56//56 80//80 81//81 57//57
f 57//57 81//81 82//82 58//58
f 58//58 82//82 83//83 59//59
f 59//59 83//83 84//84 60//60
f 60//60 84//84 85//85 61//61
f 61//61 85//85 86//86 62//62
f 62//62 86//86 87//87 63//63
f 63//63 87//87 88//88 64//64
f 64//64 88//88 89//89 65//65
f 65//65 89//89 90//90 66//66
f 66//66 90//90 91//91 67//67
f 67//67 91//91 92//92 68//68
f 68//68 92//92 93//93 69//69
f 69//69 93//93 94//94 70//70
f 70//70 94//94 95//95 71//71
f 71//71 95//95 96//96 72//72
f 72//72 96//96 97//97 73//73
f 73//73 97//97 74//74 50//50
f 74//74 98//98 99//99 75//75
f 75//75 99//99 100//100 76//76
f 76//76 100//100 101//101 77//77
f 77//77 101//101 102//102 78//78
f 78//78 102//102 103//103 79//79
f 79//79 103//103 104//104 80//80
f 80//80 104//104 105//105 81//81
f 81//81 105//105 106//106 82//82
f 82//82 106//106 107//107 83//83
f 83//83 107//107 108//108 84//84
f 84//84 108//108 109//109 85//85
f 85//85 109//109 110//110 86//86
f 86//86 110//110 111//111 87//87
f 87//87 111//111 112//112 88//88
f 88//88 112//112 113//113 89//89
f 89//89 113//113 114//114 90//90
f 90//90 114//114 115//115 91//91
f 91//91 115//115 116//116 92//92
f 92//92 116//116 117//117 93//93
f 93//93 117//117 118//118 94//94
f 94//94 118//118 119//119 95//95
f 95//95 119//119 120//120 96//96
f 96//96 120//120 121//121 97//97
f 97//97 121//121 98//98 74//74
f 98//98 122//122 123//123 99//99
f 99//99 123//123 124//124 100//100
f 100//100 124//124 125//125 101//101
f 101//101 125//125 126//126 102//102
f 102//102 126//126 127//127 103//103
f 103//103 127//127 128//128 104//104
f 104//104 128//128 129//129 105//105
f 105//105 129//129 130//130 106//106
f 106//106 130//130 131//131 107//107
f 107//107 131//131 132//132 108//108
f 108//108 132//132 133//133 109//109
f 109//109 133//133 134//134 110//110
f 110//110 134//134 135//135 111//111
f 111//111 135//135 136//136 112//112
f 112//112 136//136 137//137 113//113
f 113//113 137//137 138//138 114//114
f 114//114 138//138 139//139 115//115
f 115//115 139//139 140//140 116//116
f 116//116 140//140 141//141 117//117
f 117//117 141//141 142//142 118//118
f 118//118 142//142 143//143 119//119
f 119//119 143//143 144//144 120//120
f 120//120 144//144 145//145 121//121
f 121//121 145//145 122//122 98//98
f 122//122 146//146 147//147 123//123
f 123//123 147//147 148//148 124//124
f 124//124 148//148 149//149 125//125
f 125//125 149//149 150//150 126//126
f 126//126 150//150 151//151 127//127
f 127//127 151//151 152//152 128//128
f 128//128 152//152 153//153 129//129
f 129//129 153//153 154//154 130//130
f 130//130 154//154 155//155 131//131
f 131//131 155//155 156//156 132//132
f 132//132 156//156 157//157 133//133
f 133//133 157//157 158//158 134//134
f 134//134 158//158 159//159 135//135
f 135//135 159//159 160//160 136//136
f 136//136 160//160 161//161 137//137
f 137//137 161//161 162//162 138//138
f 138//138 162//162 163//163 139//139
f 139//139 163//163 164//164 140//140
f 140//140 164//164 165//165 141//141
f 141//141 165//165 166//166 142//142
f 142//142 166//166 167//167 143//143
f 143//143 167//167 168//168 144//144
f 144//144 168//168 169//169 145//145
f 145//145 169//169 146//146 122//122
f 146//146 170//170 171//171 147//147
f 147//147 171//171 172//172 148//148
f 148//148 172//172 173//173 149//149
f 149//149 173//173 174//174 150//150
f 150//150 174//174 175//175 151//151
f 151//151 175//175 176//176 152//152
f 152//152 176//176 177//177 153//153
f 153//153 177//177 178//178 154//154
f 154//154 178//178 179//179 155//155
f 155//155 179//179 180//180 156//156
f 156//156 180//180 181//181 157//157
f 157//157 181//181 182//182 158//158
f 158//158 182//182 183//183 159//159
f 159//159 183//183 184//184 160//160
f 160//160 184//184 185//185 161//161
f 161//161 185//185 186//186 162//162
f 162//162 186//186 187//187 163//163
f 163//163 187//187 188//188 164//164
f 164//164 188//188 189//189 165//165
f 165//165 189//189 190//190 166//166
f 166//166 190//190 191//191 167//167
f 167//167 191//191 192//192 168//168
f 168//168 192//192 193//193 169//169
f 169//169 193//193 170//170 146//146
f 170//170 194//194 195//195 171//171
f 171//171 195//195 196//196 172//172
f 172//172 196//196 197//197 173//173
f 173//173 197//197 198//198 174//174
f 174//174 198//198 199//199 175//175
f 175//175 199//199 200//200 176//176
f 176//176 200//200 201//201 177//177
f 177//177 201//201 202//202 178//178
f 178//178 202//202 203//203 179//179
f 179//179 203//203 204//204 180//180
f 180//180 204//204 205//205 181//181
f 181//181 205//205 206//206 182//182
f 182//182 206//206 207//207 183//183
f 183//183 207//207 208//208 184//184
f 184//184 208//208 209//209 185//185
f 185//185 209//209 210//210 186//186
f 186//186 210//210 211//211 187//187
f 187//187 211//211 212//212 188//188
f 188//188 212//212 213//213 189//189
f 189//189 213//213 214//214 190//190
f 190//190 214//214 215//215 191//191
f 191//191 215//215 216//216 192//192
f 192//192 216//216 217//217 193//193
f 193//193 217//217 194//194 170//170
f 194//194 218//218 219//219 195//195
f 195//195 219//219 220//220 196//220
f 196//220 220//220 221//221 197//197
f 197//197 221//221 222//222 198//198
f 198//198 222//222 223//223 199//199
f 199//199 223//223 224//224 200//200
f 200//200 224//224 225//225 201//201
f 201//201 225//225 226//226 202//202
f 202//202 226//226 227//227 203//203
f 203//203 227//227 228//228 204//204
f 204//204 228//228 229//229 205//205
f 205//205 229//229 230//230 206//206
f 206//206 230//230 231//231 207//207
f 207//207 231//231 232//232 208//208
f 208//208 232//232 233//233 209//209
f 209//209 233//233 234//234 210//210
f 210//210 234//234 235//235 211//211
f 211//211 235//235 236//236 212//212
f 212//212 236//236 237//237 213//213
f 213//213 237//237 238//238 214//214
f 214//214 238//238 239//239 215//215
f 215//215 239//239 240//240 216//216
f 216//216 240//240 241//241 217//217
f 217//217 241//241 218//218 194//194
f 242//242 244//243 243//244
f 242//242 245//245 244//243
f 242//242 246//246 245//245
f 242//242 247//247 246//246
f 242//242 248//248 247//247
f 242//242 249//249 248//248
f 242//242 250//250 249//249
f 242//242 251//251 250//250
f 242//242 252//252 251//251
f 242//242 253//253 252//252
f 242//242 254//254 253//253
f 242//242 255//255 254//254
f 242//242 256//256 255//255
f 242//242 257//257 256//256
f 242//242 258//258 257//257
f 242//242 259//259 258//258
f 242//242 260//260 259//259
f 242//242 261//261 260//260
f 242//242 262//262 261//261
f 242//242 263//263 262//262
f 242//242 264//264 263//263
f 242//242 265//265 264//264
f 242//242 266//266 265//265
f 242//242 243//244 266//266
f 243//244 244//243 268//267 267//268
f 244//243 245//245 269//269 268//267
f 245//245 246//246 270//270 269//269
f 246//246 247//247 271//271 270//270
f 247//247 248//248 272//272 271//271
f 248//248 249//249 273//273 272//272
f 249//249 250//250 274//274 273//273
f 250//250 251//251 275//275 274//274
f 251//251 252//252 276//276 275//275
f 252//252 253//253 277//277 276//276
f 253//253 254//254 278//278 277//277
f 254//254 255//255 279//279 278//278
f 255//255 256//256 280//280 279//279
f 256//256 257//257 281//281 280//280
f 257//257 258//258 282//282 281//281
f 258//258 259//259 283//283 282//282
f 259//259 260//260 284//284 283//283
f 260//260 261//261 285//285 284//284
f 261//261 262//262 286//286 285//285
f 262//262 263//263 287//287 286//286
f 263//263 264//264 288//288 287//287
f 264//264 265//265 289//289 288//288
f 265//265 266//266 290//290 289//289
f 266//266 243//244 267//268 290//290
f 267//268 268//267 292//291 291//292
f 268//267 269//269 293//293 292//291
f 269//269 270//270 294//294 293//293
f 270//270 271//271 295//295 294//294
f 271//271 272//272 296//296 295//295
f 272//272 273//273 297//297 296//296
f 273//273 274//274 298//298 297//297
f 274//274 275//275 299//299 298//298
f 275//275 276//276 300//300 299//299
f 276//276 277//277 301//301 300//300
f 277//277 278//278 302//302 301//301
f 278//278 279//279 303//303 302//302
f 279//279 280//280 304//304 303//303
f 280//280 281//281 305//305 304//304
f 281//281 282//282 306//306 305//305
f 282//282 283//283 307//307 306//306
f 283//283 284//284 308//308 307//307
f 284//284 285//285 309//309 308//308
f 285//285 286//286 310//310 309//309
f 286//286 287//287 311//311 310//310
f 287//287 288//288 312//312 311//311
f 288//288 289//289 313//313 312//312
f 289//289 290//290 314//314 313//313
f 290//290 267//268 291//292 314//314
f 291//292 292//291 316//315 315//316
f 292//291 293//293 317//317 316//315
f 293//293 294//294 318//318 317//317
f 294//294 295//295 319//319 318//318
f 295//295 296//296 320//320 319//319
f 296//296 297//297 321//321 320//320
f 297//297 298//298 322//322 321//321
f 298//298 299//299 323//323 322//322
f 299//299 300//300 324//324 323//323
f 300//300 301//301 325//325 324//324
f 301//301 302//302 326//326 325//325
f 302//302 303//303 327//327 326//326
f 303//303 304//304 328//328 327//327
f 304//304 305//305 329//329 328//328
f 305//305 306//306 330//330 329//329
f 306//306 307//307 331//331 330//330
f 307//307 308//308 332//332 331//331
f 308//308 309//309 333//333 332//332
f 309//309 310//310 334//334 333//333
f 310//310 311//311 335//335 334//334
f 311//311 312//312 336//336 335//335
f 312//312 313//313 337//337 336//336
f 313//313 314//314 338//338 337//337
f 314//314 291//292 315//316 338//338
f 315//316 316//315 340//339 339//340
f 316//315 317//317 341//341 340//339
f 317//317 318//318 342//342 341//341
f 318//318 319//319 343//343 342//342
f 319//319 320//320 344//344 343//343
f 320//320 321//321 345//345 344//344
f 321//321 322//322 346//346 345//345
f 322//322 323//323 347//347 346//346
f 323//323 324//324 348//348 347//347
f 324//324 325//325 349//349 348//348
f 325//325 326//326 350//350 349//349
f 326//326 327//327 351//351 350//350
f 327//327 328//328 352//352 351//351
f 328//328 329//329 353//353 352//352
f 329//329 330//330 354//354 353//353
f 330//330 331//331 355//355 354//354
f 331//331 332//332 356//356 355//355
f 332//332 333//333 357//357 356//356
f 333//333 334//334 358//358 357//357
f 334//334 335//335 359//359 358//358
f 335//335 336//336 360//360 359//359
f 336//336 337//337 361//361 360//360
f 337//337 338//338 362//362 361//361
f 338//338 315//316 339//340 362//362
f 339//340 340//339 364//363 363//364
f 340//339 341//341 365//365 364//363
f 341//341 342//342 366//366 365//365
f 342//342 343//343 367//367 366//366
f 343//343 344//344 368//368 367//367
f 344//344 345//345 369//369 368//368
f 345//345 346//346 370//370 369//369
f 346//346 347//347 371//371 370//370
f 347//347 348//348 372//372 371//371
f 348//348 349//349 373//373 372//372
f 349//349 350//350 374//374 373//373
f 350//350 351//351 375//375 374//374
f 351//351 352//352 376//376 375//375
f 352//352 353//353 377//377 376//376
f 353//353 354//354 378//378 377//377
f 354//354 355//355 379//379 378//378
f 355//355 356//356 380//380 379//379
f 356//356 357//357 381//381 380//380
f 357//357 358//358 382//382 381//381
f 358//358 359//359 383//383 382//382
f 359//359 360//360 384//384 383//383
f 360//360 361//361 385//385 384//384
f 361//361 362//362 386//386 385//385
f 362//362 339//340 363//364 386//386
f 363//364 364//363 388//387 387//388
f 364//363 365//365 389//389 388//387
f 365//365 366//366 390//390 389//389
f 366//366 367//367 391//391 390//390
f 367//367 368//368 392//392 391//391
f 368//368 369//369 393//393 392//392
f 369//369 370//370 394//394 393//393
f 370//370 371//371 395//395 394//394
f 371//371 372//372 396//396 395//395
f 372//372 373//373 397//397 396//396
f 373//373 374//374 398//398 397//397
f 374//374 375//375 399//399 398//398
f 375//375 376//376 400//400 399//399
f 376//376 377//377 401//401 400//400
f 377//377 378//378 402//402 401//401
f 378//378 379//379 403//403 402//402
f 379//379 380//380 404//404 403//403
f 380//380 381//381 405//405 404//404
f 381//381 382//382 406//406 405//405
f 382//382 383//383 407//407 406//406
f 383//383 384//384 408//408 407//407
f 384//384 385//385 409//409 408//408
f 385//385 386//386 410//410 409//409
f 386//386 363//364 387//388 410//410
f 387//388 388//387 412//411 411//412
f 388//387 389//389 413//413 412//411
f 389//389 390//390 414//414 413//413
f 390//390 391//391 415//415 414//414
f 391//391 392//392 416//416 415//415
f 392//392 393//393 417//417 416//416
f 393//393 394//394 418//418 417//417
f 394//394 395//395 419//419 418//418
f 395//395 396//396 420//420 419//419
f 396//396 397//397 421//421 420//420
f 397//397 398//398 422//422 421//421
f 398//398 399//399 423//423 422//422
f 399//399 400//400 424//424 423//423
f 400//400 401//401 425//425 424//424
f 401//401 402//402 426//426 425//425
f 402//402 403//403 427//427 426//426
f 403//403 404//404 428//428 427//427
f 404//404 405//405 429//429 428//428
f 405//405 406//406 430//430 429//429
f 406//406 407//407 431//431 430//430
f 407//407 408//408 432//432 431//431
f 408//408 409//409 433//433 432//432
f 409//409 410//410 434//434 433//433
f 410//410 387//388 411//412 434//434
f 411//412 412//411 436//435 435//436
f 412//411 413//413 437//437 436//435
f 413//413 414//414 438//438 437//437
f 414//414 415//415 439//439 438//438
f 415//415 416//416 440//440 439//439
f 416//416 417//417 441//441 440//440
f 417//417 418//418 442//442 441//441
f 418//418 419//419 443//443 442//442
f 419//419 420//420 444//444 443//443
f 420//420 421//421 445//445 444//444
f 421//421 422//422 446//446 445//445
f 422//422 423//423 447//447 446//446
f 423//423 424//424 448//448 447//447
f 424//424 425//425 449//449 448//448
f 425//425 426//426 450//450 449//449
f 426//426 427//427 451//451 450//450
f 427//427 428//428 452//452 451//451
f 428//428 429//429 453//453 452//452
f 429//429 430//430 454//454 453//453
f 430//430 431//431 455//455 454//454
f 431//431 432//432 456//456 455//455
f 432//432 433//433 457//457 456//456
f 433//433 434//434 458//458 457//457
f 434//434 411//412 435//436 458//458
f 435//436 436//435 460//459 459//460
f 436//461 437//462 461//463 460//464
f 437//462 438//465 462//466 461//463
f 438//438 439//439 463//467 462//468
f 439//439 440//440 464//469 463//467
f 440//440 441//441 465//470 464//469
f 441//441 442//442 466//471 465//470
f 442//442 443//443 467//472 466//471
f 443//443 444//444 468//473 467//472
f 444//444 445//445 469//474 468//473
f 445//445 446//446 470//475 469//474
f 446//446 447//447 471//476 470//475
f 447//447 448//448 472//477 471//476
f 448//448 449//449 473//478 472//477
f 449//449 450//450 474//479 473//478
f 450//450 451//451 475//480 474//479
f 451//451 452//452 476//481 475//480
f 452//452 453//453 477//482 476//481
f 453//453 454//454 478//483 477//482
f 454//454 455//455 479//484 478//483
f 455//455 456//456 480//485 479//484
f 456//456 457//457 481//486 480//485
f 457//457 458//458 482//487 481//486
f 458//458 435//436 459//460 482//487
f 219//488 218//489 459//490 460//464
f 220//491 219//488 460//464 461//463
f 221//492 220//491 461//463 462//466
f 222//493 221//492 462//466 463//494
f 223//495 222//493 463//494 464//495
f 224//496 223//497 464//497 465//496
f 225//498 224//496 465//496 466//499
f 226//500 225//498 466//499 467//501
f 227//502 226//500 467//501 468//502
f 228//503 227//502 468//502 469//503
f 229//504 228//503 469//503 470//504
f 230//505 229//504 470//504 471//506
f 231//507 230//505 471//506 472//507
f 232//508 231//507 472//507 473//508
f 233//509 232//508 473//508 474//509
f 234//510 233//509 474//509 475//511
f 235//512 234//510 475//511 476//512
f 236//513 235//512 476//512 477//513
f 237//514 236//513 477//513 478//514
f 238//515 237//514 478//514 479//516
f 239//517 238//515 479//516 480//518
f 240//519 239//517 480//518 481//519
f 241//520 240//519 481//519 482//520
f 218//489 241//521 482//521 459//490
f 483//522 484//522 485//522 486//522
f 487//523 490//523 489//523 488//523
f 483//524 487//524 488//524 484//524
f 484//525 488//525 489//525 485//525
f 485//526 489//526 490//526 486//526
f 486//527 490//527 487//527 483//527
f 491//528 492//528 493//528 494//528
f 495//529 498//529 497//529 496//529
f 491//530 495//530 496//530 492//530
f 492//531 496//531 497//531 493//531
f 493//532 497//532 498//532 494//532
f 494//533 498//533 495//533 491//533
f 499//534 500//534 501//534 502//534
f 503//535 506//535 505//535 504//535
f 499//536 503//536 504//536 500//536
f 500//537 504//537 505//537 501//537
f 501//538 505//538 506//538 502//538
f 502//539 506//539 503//539 499//539
f 507//540 508//540 509//540 510//540
f 511//541 514//541 513//541 512//541
f 507//542 511//542 512//542 508//542
f 508//543 512//543 513//543 509//543
f 509//544 513//544 514//544 510//544
f 510//545 514//545 511//545 507//545
f 515//546 516//546 517//546 518//546
f 519//547 522//547 521//547 520//547
f 515//548 519//548 520//548 516//548
f 516//549 520//549 521//549 517//549
f 517//550 521//550 522//550 518//550
f 518//551 522//551 519//551 515//551
