# Blender 4.3.2
# www.blender.org
mtllib slick.mtl
o slick
v 0.098744 1.133197 -0.241341
v 0.076133 1.138539 -0.219484
v 0.083903 1.138549 -0.217123
v 0.091455 1.138272 -0.216043
v 0.098434 1.137859 -0.215620
v 0.105629 1.137185 -0.216243
v 0.113708 1.136208 -0.217793
v 0.121789 1.134876 -0.220848
v 0.133573 1.133567 -0.221414
v 0.136507 1.132015 -0.227672
v 0.137878 1.130558 -0.234085
v 0.138078 1.129208 -0.240414
v 0.137182 1.127955 -0.246678
v 0.135143 1.126800 -0.252892
v 0.131831 1.125769 -0.258973
v 0.127130 1.124927 -0.264668
v 0.121090 1.124359 -0.269548
v 0.114048 1.124140 -0.273141
v 0.106595 1.124287 -0.275152
v 0.099332 1.124749 -0.275613
v 0.092378 1.125305 -0.275398
v 0.085541 1.126119 -0.273918
v 0.079049 1.127177 -0.271158
v 0.073152 1.128452 -0.267166
v 0.068101 1.129904 -0.262039
v 0.064135 1.131484 -0.255930
v 0.061466 1.133131 -0.249053
v 0.060260 1.134776 -0.241674
v 0.060621 1.136346 -0.234106
v 0.062574 1.137767 -0.226692
v 0.066207 1.138929 -0.219945
v 0.014312 1.153557 -0.163798
v 0.042445 1.154240 -0.155380
v 0.069781 1.153647 -0.151540
v 0.095032 1.152274 -0.150030
v 0.121051 1.149792 -0.152274
v 0.150230 1.145913 -0.157816
v 0.179383 1.140487 -0.168744
v 0.221611 1.133450 -0.170387
v 0.232223 1.127818 -0.192968
v 0.237184 1.122616 -0.216135
v 0.237922 1.117813 -0.239005
v 0.234698 1.113374 -0.261646
v 0.227345 1.109302 -0.284109
v 0.215397 1.105698 -0.306099
v 0.198436 1.102788 -0.326698
v 0.176633 1.100884 -0.344360
v 0.151212 1.100248 -0.357375
v 0.124303 1.100934 -0.364677
v 0.098074 1.102738 -0.366379
v 0.072943 1.104699 -0.365586
v 0.048237 1.107571 -0.360217
v 0.024781 1.111313 -0.350224
v 0.003476 1.115826 -0.335780
v -0.014771 1.120974 -0.317237
v -0.029099 1.126578 -0.295152
v -0.038742 1.132425 -0.270294
v -0.043100 1.138270 -0.243629
v -0.041800 1.143851 -0.216286
v -0.034749 1.148904 -0.189504
v -0.021619 1.153097 -0.165153
v -0.079381 1.165045 -0.077992
v -0.020670 1.168728 -0.060722
v 0.036461 1.168931 -0.052873
v 0.089235 1.166514 -0.049762
v 0.143580 1.161212 -0.054421
v 0.204385 1.151970 -0.065833
v 0.264929 1.138611 -0.088343
v 0.351428 1.116206 -0.090653
v 0.373496 1.104411 -0.137567
v 0.383860 1.093802 -0.185756
v 0.385452 1.084065 -0.233350
v 0.378810 1.075121 -0.280486
v 0.363583 1.066980 -0.327276
v 0.338801 1.059859 -0.373104
v 0.303586 1.054229 -0.416066
v 0.258290 1.050732 -0.452941
v 0.205453 1.049890 -0.480163
v 0.149497 1.051790 -0.495498
v 0.094936 1.055969 -0.499169
v 0.042606 1.059860 -0.497431
v -0.008826 1.065578 -0.486152
v -0.057638 1.073064 -0.465248
v -0.101954 1.082122 -0.435084
v -0.139895 1.092476 -0.396409
v -0.169671 1.103770 -0.350388
v -0.189700 1.115572 -0.298624
v -0.198740 1.127389 -0.243130
v -0.196025 1.138691 -0.186253
v -0.181366 1.148945 -0.130562
v -0.154077 1.157669 -0.079970
v -0.195558 1.158590 0.031224
v -0.099585 1.169696 0.059153
v -0.005783 1.173302 0.071851
v 0.080990 1.170410 0.076930
v 0.170308 1.161528 0.069322
v 0.269881 1.143935 0.050786
v 0.368384 1.117664 0.014267
v 0.505490 1.064402 0.012116
v 0.541392 1.045059 -0.064130
v 0.558403 1.028261 -0.142555
v 0.561164 1.012956 -0.220070
v 0.550540 0.999004 -0.296897
v 0.525948 0.986428 -0.373224
v 0.485798 0.975591 -0.448054
v 0.428640 0.967269 -0.518293
v 0.355024 0.962487 -0.578683
v 0.269061 0.962058 -0.623388
v 0.177947 0.966077 -0.648729
v 0.089038 0.973716 -0.655022
v 0.003660 0.979579 -0.651923
v -0.080194 0.988275 -0.633218
v -0.159706 0.999763 -0.598818
v -0.231821 1.013741 -0.549358
v -0.293491 1.029786 -0.486088
v -0.341825 1.047346 -0.410935
v -0.374279 1.065750 -0.326527
v -0.388863 1.084229 -0.236143
v -0.384361 1.101956 -0.143595
v -0.360484 1.118102 -0.053040
v -0.316147 1.132349 0.029148
v -0.322962 1.122204 0.155091
v -0.187356 1.146742 0.194727
v -0.053673 1.157604 0.212898
v 0.070443 1.155452 0.220225
v 0.198190 1.142608 0.209404
v 0.339874 1.113555 0.182999
v 0.478578 1.068956 0.131167
v 0.663483 0.966161 0.129221
v 0.713926 0.938777 0.022230
v 0.738156 0.915963 -0.087965
v 0.742418 0.895336 -0.197000
v 0.727894 0.876686 -0.305193
v 0.693740 0.860056 -0.412822
v 0.637685 0.845974 -0.518499
v 0.557644 0.835536 -0.617874
v 0.454329 0.830165 -0.703527
v 0.333475 0.830952 -0.767178
v 0.205194 0.837968 -0.803564
v 0.079861 0.849945 -0.813022
v -0.040656 0.857311 -0.808053
v -0.158865 0.868438 -0.780976
v -0.270768 0.883351 -0.731776
v -0.372069 0.901660 -0.661432
v -0.458513 0.922809 -0.571787
v -0.526095 0.946071 -0.465617
v -0.571308 0.970560 -0.346657
v -0.591442 0.995257 -0.219524
v -0.584859 1.019063 -0.089551
v -0.551208 1.040879 0.037480
v -0.489076 1.061058 0.152679
v -0.449351 1.051517 0.282787
v -0.276339 1.095555 0.334737
v -0.103451 1.117840 0.359001
v 0.058070 1.118006 0.368842
v 0.224397 1.101288 0.354809
v 0.407629 1.058289 0.320146
v 0.584370 0.990882 0.252555
v 0.805221 0.822304 0.248869
v 0.869180 0.787361 0.113419
v 0.900493 0.759523 -0.026232
v 0.906583 0.734538 -0.164619
v 0.888890 0.712121 -0.302162
v 0.846292 0.692343 -0.439231
v 0.775843 0.675894 -0.574092
v 0.674806 0.664173 -0.701227
v 0.543972 0.658966 -0.811163
v 0.390531 0.661609 -0.893264
v 0.227311 0.672132 -0.940684
v 0.067555 0.688804 -0.953666
v -0.086272 0.696849 -0.946270
v -0.236842 0.709376 -0.910521
v -0.379018 0.726530 -0.846602
v -0.507349 0.747858 -0.755920
v -0.616498 0.772709 -0.640966
v -0.701489 0.800228 -0.505390
v -0.758021 0.829369 -0.354001
v -0.782813 0.858931 -0.192668
v -0.773931 0.887612 -0.028097
v -0.731031 0.914119 0.132493
v -0.652573 0.940013 0.278042
v -0.563452 0.952088 0.402886
v -0.359223 1.019901 0.467500
v -0.151298 1.056872 0.498551
v 0.044691 1.060825 0.511180
v 0.246724 1.040720 0.494183
v 0.467486 0.982556 0.451150
v 0.676408 0.890075 0.368016
v 0.915016 0.647274 0.358420
v 0.990026 0.606071 0.199844
v 1.027643 0.574694 0.036249
v 1.035824 0.546709 -0.126171
v 1.016165 0.521764 -0.287934
v 0.967269 0.499960 -0.449509
v 0.885576 0.482129 -0.608895
v 0.767728 0.469925 -0.759617
v 0.614478 0.465431 -0.890470
v 0.434135 0.470182 -0.988769
v 0.241752 0.484171 -1.046221
v 0.053002 0.505251 -1.062838
v -0.128973 0.513108 -1.052529
v -0.306594 0.525911 -1.008487
v -0.473736 0.543951 -0.931240
v -0.624005 0.566740 -0.822689
v -0.751232 0.593573 -0.685998
v -0.849750 0.623523 -0.525638
v -0.914743 0.655457 -0.347365
v -0.942610 0.688072 -0.158072
v -0.931309 0.719960 0.034468
v -0.880597 0.749724 0.221971
v -0.789098 0.780538 0.391891
v -0.657182 0.834847 0.506356
v -0.430276 0.928172 0.583541
v -0.193905 0.981557 0.621925
v 0.031364 0.990261 0.637565
v 0.263946 0.967366 0.618068
v 0.515791 0.893967 0.566949
v 0.748861 0.776311 0.469233
v 0.985620 0.459043 0.448909
v 1.068422 0.413276 0.274188
v 1.111115 0.379958 0.093899
v 1.121503 0.350411 -0.085496
v 1.101223 0.324231 -0.264608
v 1.048625 0.301548 -0.443998
v 0.959638 0.283305 -0.621500
v 0.830353 0.271348 -0.789965
v 0.661368 0.267978 -0.936898
v 0.461690 0.274868 -1.048014
v 0.247954 0.291984 -1.113808
v 0.037657 0.316840 -1.133935
v -0.165319 0.323914 -1.120455
v -0.362759 0.336138 -1.069111
v -0.547766 0.353948 -0.980894
v -0.713289 0.376843 -0.858242
v -0.852640 0.404095 -0.704965
v -0.959796 0.434754 -0.526250
v -1.029746 0.467663 -0.328592
v -1.058850 0.501500 -0.119613
v -1.045154 0.534838 0.092238
v -0.988605 0.566274 0.298065
v -0.888294 0.600785 0.484659
v -0.726708 0.714954 0.587581
v -0.485988 0.832413 0.676520
v -0.228825 0.901885 0.722297
v 0.019227 0.915595 0.740972
v 0.275812 0.890586 0.719551
v 0.551101 0.803306 0.661092
v 0.799896 0.662904 0.550517
v 1.019235 0.279732 0.515743
v 1.106555 0.231129 0.331824
v 1.152904 0.197213 0.142076
v 1.165398 0.167283 -0.047190
v 1.145620 0.140899 -0.236664
v 1.091704 0.118216 -0.426985
v 0.999193 0.100256 -0.615925
v 0.863732 0.088989 -0.795940
v 0.685679 0.086853 -0.953707
v 0.474344 0.095610 -1.073840
v 0.247291 0.115211 -1.145912
v 0.023204 0.142930 -1.169148
v -0.193275 0.148952 -1.152571
v -0.403059 0.160131 -1.095353
v -0.598725 0.177024 -0.999006
v -0.772843 0.199124 -0.866490
v -0.918506 0.225703 -0.702186
v -1.029635 0.255820 -0.511847
v -1.101304 0.288342 -0.302482
v -1.130055 0.321983 -0.082134
v -1.114176 0.355363 0.140443
v -1.053860 0.387142 0.356154
v -0.948873 0.424029 0.551865
v -0.772478 0.609762 0.644627
v -0.525197 0.747015 0.743468
v -0.254602 0.830113 0.795856
v 0.009383 0.848269 0.817239
v 0.282956 0.821825 0.794499
v 0.574063 0.723374 0.730007
v 0.831446 0.564903 0.609147
v 1.026212 0.131088 0.559124
v 1.115476 0.081064 0.371418
v 1.164143 0.047382 0.177842
v 1.178400 0.017772 -0.015688
v 1.159728 -0.008229 -0.209922
v 1.106097 -0.030445 -0.405562
v 1.012792 -0.047809 -0.600377
v 0.875136 -0.058282 -0.786654
v 0.693232 -0.059354 -0.950637
v 0.476413 -0.049214 -1.076284
v 0.242654 -0.027914 -1.152548
v 0.011282 0.001681 -1.178230
v -0.212381 0.006703 -1.159018
v -0.428352 0.016782 -1.097574
v -0.628897 0.032559 -0.995902
v -0.806434 0.053527 -0.857405
v -0.954050 0.078967 -0.686912
v -1.065798 0.107960 -0.490579
v -1.136990 0.139417 -0.275719
v -1.164469 0.172116 -0.050553
v -1.146820 0.204751 0.176124
v -1.084484 0.236076 0.395301
v -0.977947 0.274213 0.594362
v -0.797709 0.536179 0.678182
v -0.547919 0.686034 0.783203
v -0.270437 0.778711 0.840716
v 0.002833 0.799399 0.863376
v 0.286501 0.772900 0.840756
v 0.586660 0.667171 0.772330
v 0.849627 0.497986 0.646103
v 1.024911 0.031313 0.584827
v 1.116183 -0.019458 0.396082
v 1.167191 -0.052883 0.201044
v 1.183047 -0.082194 0.005411
v 1.165020 -0.107807 -0.191313
v 1.111079 -0.129504 -0.389571
v 1.016672 -0.146196 -0.586944
v 0.877347 -0.155859 -0.775642
v 0.693380 -0.156013 -0.941917
v 0.474162 -0.144883 -1.069715
v 0.237671 -0.122537 -1.147865
v 0.003297 -0.091889 -1.174864
v -0.223303 -0.087572 -1.153844
v -0.441518 -0.078311 -1.089864
v -0.643471 -0.063418 -0.985281
v -0.821551 -0.043398 -0.843804
v -0.968924 -0.018964 -0.670552
v -1.079818 0.008991 -0.471917
v -1.149788 0.039415 -0.255360
v -1.175946 0.071141 -0.029138
v -1.157126 0.102932 0.198026
v -1.093952 0.133619 0.417295
v -0.987475 0.172249 0.616621
v -0.802580 0.506803 0.685042
v -0.540145 0.645676 0.771934
v -0.272533 0.751204 0.842503
v 0.000490 0.754898 0.845491
v 0.286071 0.750517 0.850235
v 0.591493 0.643016 0.788852
v 0.916086 0.502419 0.709905
v 1.143539 -0.011566 0.667293
v 1.286531 -0.070592 0.467473
v 1.374395 -0.111193 0.247232
v 1.403881 -0.146553 0.016444
v 1.372522 -0.175415 -0.215979
v 1.281622 -0.196551 -0.440744
v 1.136482 -0.208923 -0.648482
v 0.946201 -0.211729 -0.830176
v 0.723056 -0.204420 -0.977718
v 0.481501 -0.186807 -1.084871
v 0.236411 -0.159732 -1.148319
v 0.000366 -0.126411 -1.167045
v -0.226049 -0.122025 -1.145195
v -0.443805 -0.113116 -1.080599
v -0.645063 -0.098637 -0.975505
v -0.822249 -0.079088 -0.833720
v -0.968604 -0.055174 -0.660446
v -1.078463 -0.027775 -0.462131
v -1.147506 0.002078 -0.246247
v -1.172971 0.033244 -0.021016
v -1.153797 0.064521 0.204927
v -1.090679 0.094774 0.422865
v -0.984923 0.133044 0.621041
v 0.086385 0.967228 -0.206236
v 0.069881 0.972421 -0.183300
v 0.074519 0.972003 -0.184091
v 0.080659 0.971759 -0.183253
v 0.086211 0.971370 -0.183219
v 0.091989 0.970861 -0.183564
v 0.098554 0.970071 -0.184857
v 0.103255 0.969706 -0.184511
v 0.114062 0.968448 -0.185526
v 0.118272 0.966290 -0.194462
v 0.119480 0.965024 -0.200034
v 0.119639 0.963877 -0.205412
v 0.118867 0.962814 -0.210724
v 0.117127 0.961834 -0.215994
v 0.114310 0.960959 -0.221149
v 0.110311 0.960243 -0.225983
v 0.105164 0.959759 -0.230131
v 0.099157 0.959572 -0.233186
v 0.092798 0.959697 -0.234895
v 0.086757 0.960046 -0.235408
v 0.081067 0.960527 -0.235130
v 0.075253 0.961215 -0.233892
v 0.069717 0.962113 -0.231566
v 0.064675 0.963196 -0.228186
v 0.060348 0.964434 -0.223827
v 0.056945 0.965782 -0.218627
v 0.054647 0.967190 -0.212757
v 0.053601 0.968598 -0.206452
v 0.053900 0.969942 -0.199981
v 0.055626 0.971175 -0.193529
v 0.060685 0.972747 -0.184098
v 0.015016 0.986598 -0.130556
v 0.037545 0.986841 -0.125390
v 0.061263 0.986293 -0.122190
v 0.083052 0.985072 -0.121069
v 0.105537 0.982897 -0.123163
v 0.130867 0.979504 -0.128150
v 0.153807 0.975427 -0.135697
v 0.193748 0.968627 -0.137960
v 0.203602 0.962609 -0.163523
v 0.208006 0.957980 -0.184154
v 0.208671 0.953735 -0.204349
v 0.205835 0.949812 -0.224343
v 0.199349 0.946210 -0.244195
v 0.188801 0.943015 -0.263652
v 0.173811 0.940426 -0.281918
v 0.154518 0.938716 -0.297633
v 0.131985 0.938120 -0.309278
v 0.108098 0.938691 -0.315886
v 0.085244 0.940220 -0.317512
v 0.063385 0.941906 -0.316900
v 0.041417 0.944445 -0.312182
v 0.020527 0.947765 -0.303338
v 0.001538 0.951777 -0.290514
v -0.014733 0.956358 -0.274023
v -0.027508 0.961350 -0.254364
v -0.036100 0.966559 -0.232225
v -0.039973 0.971766 -0.208477
v -0.038792 0.976737 -0.184132
v -0.032448 0.981264 -0.160124
v -0.019463 0.985966 -0.132726
v -0.065461 0.996139 -0.059397
v -0.016801 0.999141 -0.045655
v 0.032369 0.999274 -0.039148
v 0.077493 0.997186 -0.036662
v 0.123967 0.992619 -0.041019
v 0.176258 0.984659 -0.051107
v 0.225703 0.973634 -0.070278
v 0.304212 0.953508 -0.071603
v 0.322836 0.942975 -0.116650
v 0.331767 0.933798 -0.158418
v 0.333148 0.925383 -0.199522
v 0.327429 0.917648 -0.240234
v 0.314300 0.910597 -0.280673
v 0.292914 0.904411 -0.320329
v 0.262489 0.899494 -0.357578
v 0.223297 0.896402 -0.389638
v 0.177510 0.895595 -0.413400
v 0.128969 0.897158 -0.426889
v 0.082015 0.900705 -0.430153
v 0.037016 0.903953 -0.428900
v -0.007685 0.908873 -0.419226
v -0.050166 0.915345 -0.401157
v -0.088768 0.923196 -0.375002
v -0.121838 0.932188 -0.341404
v -0.147801 0.942010 -0.301379
v -0.165263 0.952284 -0.256331
v -0.173135 0.962575 -0.208024
v -0.170746 0.972420 -0.158518
v -0.157936 0.981370 -0.109896
v -0.133983 0.989556 -0.060406
v -0.164320 0.990635 0.029727
v -0.084104 0.999952 0.054144
v -0.003851 1.003021 0.064698
v 0.069885 1.000561 0.068952
v 0.145787 0.993030 0.061936
v 0.230960 0.978010 0.045795
v 0.312343 0.956244 0.012522
v 0.434532 0.909041 0.013344
v 0.463890 0.893210 -0.054858
v 0.478370 0.878872 -0.122021
v 0.480728 0.865782 -0.188289
v 0.471662 0.853836 -0.253972
v 0.450665 0.843049 -0.319262
v 0.416356 0.833723 -0.383339
v 0.367456 0.826517 -0.443579
v 0.304390 0.822316 -0.495478
v 0.230660 0.821831 -0.533993
v 0.152467 0.825157 -0.555916
v 0.076491 0.831694 -0.561269
v 0.003588 0.836474 -0.558987
v -0.068440 0.843859 -0.543071
v -0.136801 0.853662 -0.513641
v -0.198842 0.865623 -0.471231
v -0.251925 0.879379 -0.416910
v -0.293543 0.894456 -0.352332
v -0.321489 0.910275 -0.279764
v -0.334041 0.926172 -0.202042
v -0.330146 0.941431 -0.122462
v -0.309570 0.955332 -0.044495
v -0.271547 0.967520 0.030160
v -0.272566 0.960384 0.131201
v -0.158739 0.980701 0.167201
v -0.044680 0.990007 0.182342
v 0.060486 0.988154 0.188688
v 0.168769 0.977373 0.178895
v 0.289754 0.952602 0.156233
v 0.405171 0.916026 0.108048
v 0.569772 0.824091 0.112043
v 0.609854 0.803324 0.018241
v 0.630384 0.783973 -0.075795
v 0.634001 0.766395 -0.168725
v 0.621625 0.750487 -0.260938
v 0.592524 0.736279 -0.352705
v 0.544735 0.724216 -0.442878
v 0.476430 0.715232 -0.527771
v 0.388170 0.710552 -0.601036
v 0.284849 0.711127 -0.655544
v 0.175171 0.717034 -0.686736
v 0.068347 0.727440 -0.694583
v -0.034273 0.733336 -0.690762
v -0.135301 0.742754 -0.667737
v -0.230991 0.755429 -0.625777
v -0.317647 0.771022 -0.565716
v -0.391621 0.789061 -0.489119
v -0.449467 0.808924 -0.398361
v -0.488176 0.829854 -0.296639
v -0.505416 0.850978 -0.187911
v -0.499783 0.871351 -0.076750
v -0.471030 0.889989 0.031996
v -0.419528 0.905929 0.134114
v -0.380414 0.901156 0.237843
v -0.234703 0.937329 0.285494
v -0.087176 0.956480 0.305740
v 0.049698 0.956511 0.314414
v 0.190734 0.942525 0.301909
v 0.347324 0.905731 0.272458
v 0.495171 0.850854 0.209583
v 0.691745 0.698751 0.214506
v 0.742762 0.673648 0.096273
v 0.769328 0.650079 -0.022971
v 0.774500 0.628786 -0.141011
v 0.759397 0.609670 -0.258326
v 0.723049 0.592788 -0.375270
v 0.662912 0.578725 -0.490402
v 0.576593 0.568680 -0.599033
v 0.464724 0.564197 -0.693047
v 0.333466 0.566434 -0.763286
v 0.193877 0.575433 -0.803832
v 0.057656 0.590131 -0.814556
v -0.073368 0.596457 -0.808649
v -0.201986 0.607084 -0.778180
v -0.323469 0.621683 -0.723630
v -0.433146 0.639854 -0.646202
v -0.526449 0.661045 -0.548018
v -0.599118 0.684525 -0.432192
v -0.647468 0.709403 -0.302834
v -0.668686 0.734652 -0.164962
v -0.661115 0.759158 -0.024312
v -0.624542 0.781715 0.113055
v -0.560100 0.800785 0.241139
v -0.478295 0.817163 0.339493
v -0.305750 0.872678 0.398835
v -0.128149 0.904504 0.424866
v 0.038118 0.907643 0.436054
v 0.209642 0.890868 0.420996
v 0.398539 0.840953 0.384481
v 0.574170 0.766040 0.307219
v 0.785885 0.546163 0.308378
v 0.846584 0.517782 0.170482
v 0.878572 0.491246 0.030688
v 0.885537 0.467382 -0.107978
v 0.868741 0.446101 -0.246080
v 0.826978 0.427485 -0.384059
v 0.757172 0.412244 -0.520246
v 0.656391 0.401800 -0.649133
v 0.525232 0.397956 -0.761113
v 0.370827 0.402042 -0.845256
v 0.206170 0.414069 -0.894398
v 0.045091 0.432777 -0.908243
v -0.110050 0.438791 -0.899786
v -0.261863 0.449667 -0.862183
v -0.404746 0.465039 -0.796184
v -0.533221 0.484473 -0.703420
v -0.642010 0.507366 -0.586591
v -0.726266 0.532928 -0.449515
v -0.781864 0.560194 -0.297110
v -0.805719 0.588049 -0.135271
v -0.796081 0.615290 0.029356
v -0.752827 0.640568 0.189798
v -0.677351 0.662043 0.338715
v -0.559186 0.717916 0.427172
v -0.366805 0.794134 0.498105
v -0.164712 0.840114 0.530488
v 0.026610 0.847173 0.544346
v 0.224306 0.828150 0.527075
v 0.440022 0.765078 0.483562
v 0.637038 0.670196 0.392650
v 0.845922 0.382282 0.385230
v 0.913819 0.352233 0.234237
v 0.950181 0.324109 0.080163
v 0.959043 0.298909 -0.073046
v 0.941719 0.276569 -0.226012
v 0.896786 0.257198 -0.379257
v 0.820725 0.241603 -0.530976
v 0.710131 0.231372 -0.675085
v 0.565463 0.228493 -0.800871
v 0.394452 0.234417 -0.896027
v 0.211459 0.249134 -0.952343
v 0.031895 0.271265 -0.969288
v -0.141266 0.276439 -0.958028
v -0.310077 0.286816 -0.914148
v -0.468278 0.301993 -0.838730
v -0.609827 0.321517 -0.733863
v -0.729004 0.344769 -0.602804
v -0.820655 0.370937 -0.449984
v -0.880494 0.399035 -0.280957
v -0.905401 0.427934 -0.102241
v -0.893703 0.456413 0.078937
v -0.845437 0.483058 0.255069
v -0.762221 0.505786 0.417768
v -0.619659 0.616331 0.495999
v -0.414787 0.712132 0.577630
v -0.194740 0.771990 0.616444
v 0.016128 0.783185 0.632964
v 0.234442 0.762495 0.613991
v 0.470433 0.687411 0.564106
v 0.681957 0.574523 0.461293
v 0.873892 0.226331 0.441463
v 0.946478 0.195820 0.283663
v 0.986009 0.167246 0.121525
v 0.996682 0.141719 -0.040135
v 0.979795 0.119205 -0.201975
v 0.933736 0.099838 -0.364585
v 0.854658 0.084490 -0.526107
v 0.738771 0.074857 -0.680123
v 0.586324 0.073044 -0.815212
v 0.405309 0.080573 -0.918117
v 0.210884 0.097429 -0.979838
v 0.019479 0.122169 -0.999577
v -0.165291 0.126300 -0.985545
v -0.344690 0.135778 -0.936611
v -0.512026 0.150169 -0.854208
v -0.660936 0.169011 -0.740873
v -0.785514 0.191684 -0.600350
v -0.880558 0.217385 -0.437560
v -0.941856 0.245148 -0.258498
v -0.966448 0.273875 -0.070042
v -0.952871 0.302385 0.120320
v -0.901357 0.329265 0.304886
v -0.813692 0.352291 0.474539
v -0.660316 0.527682 0.543511
v -0.448909 0.640122 0.633697
v -0.217113 0.712070 0.678044
v 0.007662 0.726894 0.696946
v 0.240906 0.704769 0.677017
v 0.490027 0.617086 0.624771
v 0.708845 0.489422 0.514398
v 0.877873 0.093937 0.480407
v 0.953912 0.063141 0.318245
v 0.995467 0.034711 0.152824
v 1.007654 0.009422 -0.012499
v 0.991723 -0.012740 -0.178434
v 0.945924 -0.031621 -0.345636
v 0.866191 -0.046284 -0.512257
v 0.748452 -0.054932 -0.671749
v 0.592716 -0.055327 -0.812320
v 0.406953 -0.045819 -0.920085
v 0.206733 -0.026487 -0.985462
v 0.009208 0.000791 -1.007453
v -0.181737 0.004154 -0.991051
v -0.366445 0.012690 -0.938475
v -0.537963 0.026126 -0.851491
v -0.689798 0.043999 -0.733013
v -0.816038 0.065694 -0.587174
v -0.911598 0.090431 -0.419240
v -0.972472 0.117278 -0.235468
v -0.995961 0.145194 -0.042887
v -0.980858 0.173062 0.150979
v -0.927591 0.199505 0.338472
v -0.838090 0.222252 0.510010
v -0.695036 0.486410 0.543303
v -0.476584 0.627066 0.628029
v -0.235574 0.718049 0.669591
v 0.003569 0.733390 0.690326
v 0.254165 0.698037 0.678359
v 0.491933 0.511158 0.715192
v 0.679585 0.360350 0.660217
v 0.842909 -0.096644 0.596345
v 0.951755 -0.145829 0.361578
v 0.996206 -0.177647 0.191795
v 1.009716 -0.203885 0.023661
v 0.994289 -0.225105 -0.145646
v 0.948209 -0.240930 -0.316771
v 0.867593 -0.249682 -0.487985
v 0.748495 -0.248053 -0.652993
v 0.590457 -0.231332 -0.799763
v 0.400698 -0.195015 -0.912412
v 0.196814 -0.141421 -0.980391
v 0.001442 -0.086351 -1.004254
v -0.191209 -0.077126 -0.986641
v -0.377836 -0.069105 -0.931882
v -0.550573 -0.056424 -0.842379
v -0.702877 -0.039363 -0.721323
v -0.828906 -0.018527 -0.573097
v -0.923727 0.005319 -0.403171
v -0.983542 0.031281 -0.217930
v -1.005887 0.058362 -0.024437
v -0.989769 0.085504 0.169849
v -0.935768 0.111375 0.357389
v -0.846333 0.134289 0.527488
v -0.705268 0.480581 0.553342
v -0.491904 0.645330 0.618934
v -0.251682 0.763164 0.683697
v 0.000901 0.763642 0.685602
v 0.248887 0.694172 0.692881
v 0.515091 0.485892 0.742937
v 0.824296 0.385335 0.799958
v 1.048280 -0.147127 0.748177
v 1.238091 -0.222811 0.478037
v 1.329228 -0.263890 0.262571
v 1.359422 -0.298720 0.037831
v 1.327737 -0.326531 -0.188620
v 1.235353 -0.345808 -0.406393
v 1.087169 -0.354656 -0.604266
v 0.891980 -0.349921 -0.769529
v 0.663808 -0.324952 -0.888417
v 0.425915 -0.269944 -0.956395
v 0.203497 -0.191188 -0.992378
v -0.000124 -0.122103 -1.006277
v -0.195358 -0.107877 -0.988196
v -0.383332 -0.099931 -0.932407
v -0.557054 -0.087486 -0.841631
v -0.709980 -0.070671 -0.719187
v -0.836279 -0.050091 -0.569575
v -0.931066 -0.026504 -0.398362
v -0.990619 -0.000796 -0.212003
v -1.012561 0.026051 -0.017594
v -0.995983 0.052998 0.177413
v -0.941530 0.078735 0.365505
v -0.851760 0.102325 0.535752
vn 0.0728 0.9755 -0.2075
vn 0.0431 0.9779 -0.2044
vn 0.0540 0.9786 -0.1986
vn 0.0631 0.9787 -0.1954
vn 0.0717 0.9783 -0.1945
vn 0.0805 0.9775 -0.1950
vn 0.0898 0.9761 -0.1979
vn 0.1020 0.9736 -0.2043
vn 0.1189 0.9695 -0.2144
vn 0.1076 0.9749 -0.1947
vn 0.1087 0.9738 -0.2000
vn 0.1090 0.9726 -0.2056
vn 0.1083 0.9714 -0.2112
vn 0.1065 0.9704 -0.2167
vn 0.1037 0.9695 -0.2221
vn 0.0996 0.9688 -0.2271
vn 0.0944 0.9683 -0.2314
vn 0.0884 0.9681 -0.2345
vn 0.0820 0.9682 -0.2363
vn 0.0741 0.9687 -0.2368
vn 0.0663 0.9694 -0.2364
vn 0.0603 0.9702 -0.2349
vn 0.0547 0.9711 -0.2323
vn 0.0497 0.9722 -0.2287
vn 0.0455 0.9735 -0.2241
vn 0.0423 0.9748 -0.2188
vn 0.0402 0.9762 -0.2129
vn 0.0393 0.9776 -0.2067
vn 0.0397 0.9789 -0.2002
vn 0.0413 0.9801 -0.1944
vn 0.0291 0.9766 -0.2132
vn 0.0006 0.9800 -0.1992
vn 0.0298 0.9837 -0.1771
vn 0.0508 0.9834 -0.1740
vn 0.0706 0.9827 -0.1712
vn 0.0908 0.9808 -0.1726
vn 0.1130 0.9780 -0.1752
vn 0.1447 0.9693 -0.1990
vn 0.1835 0.9671 -0.1761
vn 0.1700 0.9704 -0.1718
vn 0.1727 0.9670 -0.1876
vn 0.1731 0.9636 -0.2036
vn 0.1707 0.9606 -0.2193
vn 0.1655 0.9578 -0.2349
vn 0.1571 0.9554 -0.2499
vn 0.1454 0.9536 -0.2637
vn 0.1305 0.9525 -0.2753
vn 0.1134 0.9523 -0.2833
vn 0.0955 0.9530 -0.2874
vn 0.0755 0.9550 -0.2867
vn 0.0561 0.9564 -0.2867
vn 0.0399 0.9583 -0.2829
vn 0.0246 0.9608 -0.2762
vn 0.0108 0.9637 -0.2666
vn -0.0009 0.9671 -0.2544
vn -0.0102 0.9707 -0.2400
vn -0.0165 0.9745 -0.2239
vn -0.0194 0.9782 -0.2066
vn -0.0187 0.9819 -0.1887
vn -0.0149 0.9851 -0.1716
vn -0.0305 0.9837 -0.1774
vn -0.0736 0.9906 -0.1153
vn -0.0209 0.9958 -0.0887
vn 0.0254 0.9963 -0.0820
vn 0.0694 0.9946 -0.0774
vn 0.1146 0.9902 -0.0799
vn 0.1639 0.9827 -0.0867
vn 0.2206 0.9687 -0.1137
vn 0.2956 0.9507 -0.0938
vn 0.2993 0.9465 -0.1211
vn 0.3070 0.9382 -0.1601
vn 0.3082 0.9304 -0.1985
vn 0.3027 0.9233 -0.2365
vn 0.2903 0.9169 -0.2740
vn 0.2702 0.9114 -0.3105
vn 0.2419 0.9072 -0.3442
vn 0.2059 0.9049 -0.3726
vn 0.1643 0.9048 -0.3929
vn 0.1206 0.9069 -0.4038
vn 0.0759 0.9115 -0.4043
vn 0.0328 0.9145 -0.4032
vn -0.0069 0.9192 -0.3938
vn -0.0443 0.9251 -0.3771
vn -0.0781 0.9322 -0.3535
vn -0.1069 0.9401 -0.3236
vn -0.1295 0.9488 -0.2882
vn -0.1447 0.9577 -0.2486
vn -0.1517 0.9667 -0.2061
vn -0.1498 0.9753 -0.1625
vn -0.1394 0.9829 -0.1199
vn -0.1389 0.9856 -0.0960
vn -0.1717 0.9851 -0.0000
vn -0.0883 0.9957 0.0292
vn -0.0095 0.9991 0.0404
vn 0.0658 0.9967 0.0465
vn 0.1433 0.9888 0.0421
vn 0.2269 0.9735 0.0294
vn 0.3157 0.9489 0.0002
vn 0.4291 0.9032 0.0105
vn 0.4558 0.8886 -0.0523
vn 0.4701 0.8744 -0.1200
vn 0.4724 0.8615 -0.1862
vn 0.4632 0.8497 -0.2519
vn 0.4421 0.8392 -0.3169
vn 0.4077 0.8302 -0.3801
vn 0.3592 0.8236 -0.4389
vn 0.2972 0.8202 -0.4888
vn 0.2254 0.8207 -0.5251
vn 0.1495 0.8249 -0.5451
vn 0.0738 0.8329 -0.5484
vn 0.0005 0.8380 -0.5456
vn -0.0690 0.8456 -0.5293
vn -0.1346 0.8554 -0.5002
vn -0.1939 0.8671 -0.4588
vn -0.2445 0.8805 -0.4062
vn -0.2841 0.8950 -0.3440
vn -0.3107 0.9101 -0.2744
vn -0.3227 0.9252 -0.1999
vn -0.3192 0.9396 -0.1235
vn -0.3002 0.9526 -0.0486
vn -0.2763 0.9610 0.0111
vn -0.2820 0.9505 0.1304
vn -0.1650 0.9730 0.1614
vn -0.0506 0.9828 0.1778
vn 0.0593 0.9810 0.1850
vn 0.1720 0.9689 0.1780
vn 0.2925 0.9432 0.1574
vn 0.4158 0.9008 0.1252
vn 0.5612 0.8189 0.1197
vn 0.6106 0.7915 0.0260
vn 0.6319 0.7718 -0.0709
vn 0.6357 0.7540 -0.1656
vn 0.6231 0.7379 -0.2595
vn 0.5934 0.7235 -0.3527
vn 0.5448 0.7115 -0.4437
vn 0.4760 0.7028 -0.5286
vn 0.3877 0.6987 -0.6012
vn 0.2850 0.7000 -0.6548
vn 0.1760 0.7068 -0.6852
vn 0.0678 0.7183 -0.6924
vn -0.0372 0.7250 -0.6877
vn -0.1381 0.7349 -0.6640
vn -0.2332 0.7478 -0.6216
vn -0.3192 0.7636 -0.5612
vn -0.3925 0.7817 -0.4847
vn -0.4496 0.8015 -0.3942
vn -0.4879 0.8222 -0.2931
vn -0.5049 0.8431 -0.1850
vn -0.4994 0.8632 -0.0746
vn -0.4711 0.8814 0.0338
vn -0.4221 0.8976 0.1267
vn -0.3896 0.8852 0.2541
vn -0.2412 0.9266 0.2886
vn -0.0931 0.9458 0.3110
vn 0.0501 0.9463 0.3194
vn 0.1970 0.9303 0.3094
vn 0.3523 0.8931 0.2799
vn 0.5075 0.8269 0.2422
vn 0.6739 0.7055 0.2191
vn 0.7406 0.6639 0.1034
vn 0.7684 0.6397 -0.0187
vn 0.7738 0.6182 -0.1382
vn 0.7586 0.5988 -0.2570
vn 0.7218 0.5816 -0.3751
vn 0.6613 0.5674 -0.4907
vn 0.5750 0.5573 -0.5990
vn 0.4639 0.5529 -0.6921
vn 0.3342 0.5554 -0.7615
vn 0.1959 0.5646 -0.8018
vn 0.0584 0.5789 -0.8133
vn -0.0753 0.5867 -0.8063
vn -0.2040 0.5976 -0.7754
vn -0.3253 0.6125 -0.7204
vn -0.4347 0.6308 -0.6428
vn -0.5276 0.6521 -0.5445
vn -0.5998 0.6756 -0.4287
vn -0.6478 0.7005 -0.2995
vn -0.6688 0.7256 -0.1620
vn -0.6611 0.7500 -0.0218
vn -0.6243 0.7726 0.1156
vn -0.5549 0.7988 0.2326
vn -0.4847 0.7965 0.3614
vn -0.3104 0.8616 0.4016
vn -0.1334 0.8927 0.4305
vn 0.0396 0.8969 0.4405
vn 0.2169 0.8774 0.4280
vn 0.4026 0.8280 0.3903
vn 0.5841 0.7345 0.3453
vn 0.7597 0.5718 0.3097
vn 0.8390 0.5152 0.1752
vn 0.8724 0.4878 0.0328
vn 0.8796 0.4637 -0.1065
vn 0.8627 0.4422 -0.2453
vn 0.8208 0.4233 -0.3836
vn 0.7510 0.4079 -0.5193
vn 0.6509 0.3973 -0.6469
vn 0.5217 0.3933 -0.7570
vn 0.3702 0.3973 -0.8397
vn 0.2083 0.4090 -0.8884
vn 0.0468 0.4260 -0.9035
vn -0.1104 0.4342 -0.8940
vn -0.2616 0.4453 -0.8563
vn -0.4036 0.4608 -0.7904
vn -0.5311 0.4803 -0.6980
vn -0.6390 0.5033 -0.5817
vn -0.7225 0.5288 -0.4454
vn -0.7775 0.5560 -0.2940
vn -0.8009 0.5838 -0.1333
vn -0.7912 0.6109 0.0301
vn -0.7476 0.6364 0.1900
vn -0.6631 0.6739 0.3259
vn -0.5612 0.6925 0.4534
vn -0.3690 0.7842 0.4988
vn -0.1688 0.8285 0.5340
vn 0.0289 0.8373 0.5460
vn 0.2319 0.8146 0.5317
vn 0.4425 0.7529 0.4871
vn 0.6416 0.6304 0.4370
vn 0.8161 0.4291 0.3870
vn 0.9036 0.3566 0.2376
vn 0.9416 0.3270 0.0805
vn 0.9506 0.3016 -0.0730
vn 0.9332 0.2791 -0.2263
vn 0.8881 0.2595 -0.3794
vn 0.8121 0.2438 -0.5302
vn 0.7025 0.2334 -0.6723
vn 0.5603 0.2304 -0.7956
vn 0.3931 0.2360 -0.8887
vn 0.2136 0.2503 -0.9443
vn 0.0343 0.2694 -0.9624
vn -0.1403 0.2778 -0.9503
vn -0.3079 0.2885 -0.9066
vn -0.4647 0.3038 -0.8317
vn -0.6050 0.3235 -0.7276
vn -0.7229 0.3468 -0.5976
vn -0.8136 0.3730 -0.4461
vn -0.8727 0.4010 -0.2786
vn -0.8972 0.4298 -0.1016
vn -0.8855 0.4582 0.0777
vn -0.8368 0.4854 0.2532
vn -0.7420 0.5355 0.4033
vn -0.6164 0.5858 0.5262
vn -0.4147 0.7039 0.5767
vn -0.1978 0.7609 0.6180
vn 0.0192 0.7747 0.6320
vn 0.2421 0.7493 0.6164
vn 0.4715 0.6766 0.5656
vn 0.6796 0.5263 0.5111
vn 0.8450 0.2951 0.4459
vn 0.9355 0.2072 0.2862
vn 0.9769 0.1766 0.1203
vn 0.9877 0.1508 -0.0416
vn 0.9706 0.1281 -0.2037
vn 0.9243 0.1085 -0.3660
vn 0.8452 0.0930 -0.5263
vn 0.7303 0.0833 -0.6780
vn 0.5806 0.0813 -0.8101
vn 0.4037 0.0884 -0.9106
vn 0.2133 0.1046 -0.9714
vn 0.0225 0.1249 -0.9919
vn -0.1634 0.1335 -0.9775
vn -0.3413 0.1434 -0.9290
vn -0.5070 0.1580 -0.8473
vn -0.6544 0.1771 -0.7351
vn -0.7778 0.1999 -0.5959
vn -0.8718 0.2257 -0.4348
vn -0.9324 0.2535 -0.2575
vn -0.9567 0.2822 -0.0709
vn -0.9432 0.3107 0.1175
vn -0.8912 0.3386 0.3018
vn -0.7912 0.4016 0.4612
vn -0.6508 0.4899 0.5800
vn -0.4464 0.6295 0.6359
vn -0.2186 0.6965 0.6835
vn 0.0111 0.7147 0.6993
vn 0.2477 0.6893 0.6808
vn 0.4898 0.6125 0.6204
vn 0.7040 0.4427 0.5554
vn 0.8647 0.2076 0.4574
vn 0.9424 0.1126 0.3149
vn 0.9857 0.0854 0.1452
vn 0.9979 0.0614 -0.0206
vn 0.9817 0.0376 -0.1865
vn 0.9356 0.0143 -0.3527
vn 0.8560 -0.0067 -0.5170
vn 0.7394 -0.0224 -0.6729
vn 0.5866 -0.0296 -0.8093
vn 0.4053 -0.0258 -0.9138
vn 0.2094 -0.0112 -0.9778
vn 0.0126 0.0080 -0.9999
vn -0.1791 0.0165 -0.9837
vn -0.3622 0.0256 -0.9317
vn -0.5322 0.0393 -0.8457
vn -0.6826 0.0575 -0.7285
vn -0.8077 0.0794 -0.5842
vn -0.9025 0.1044 -0.4179
vn -0.9628 0.1314 -0.2360
vn -0.9862 0.1594 -0.0452
vn -0.9713 0.1873 0.1468
vn -0.9174 0.2153 0.3348
vn -0.8160 0.2907 0.4997
vn -0.5913 0.2267 0.7740
vn -0.4907 0.5794 0.6508
vn -0.2473 0.6601 0.7093
vn 0.0009 0.6850 0.7285
vn 0.2844 0.6092 0.7402
vn 0.4575 0.5459 0.7020
vn 0.7637 0.3570 0.5379
vn 0.8889 0.1440 0.4350
vn 0.9418 0.0877 0.3247
vn 0.9856 0.0646 0.1562
vn 0.9990 0.0425 -0.0106
vn 0.9840 0.0177 -0.1774
vn 0.9388 -0.0092 -0.3442
vn 0.8599 -0.0357 -0.5092
vn 0.7438 -0.0578 -0.6659
vn 0.5910 -0.0708 -0.8036
vn 0.3922 0.1668 -0.9046
vn 0.1994 -0.0077 -0.9799
vn 0.0007 -0.1020 -0.9948
vn -0.1890 -0.1286 -0.9735
vn -0.3743 -0.1207 -0.9194
vn -0.5461 -0.1067 -0.8309
vn -0.6976 -0.0884 -0.7110
vn -0.8231 -0.0662 -0.5641
vn -0.9176 -0.0411 -0.3954
vn -0.9773 -0.0141 -0.2114
vn -0.9997 0.0140 -0.0191
vn -0.9838 0.0419 0.1741
vn -0.9285 0.0696 0.3648
vn -0.7664 0.1388 0.6272
vn -0.5070 0.0899 0.8572
vn -0.2572 -0.1050 0.9606
vn -0.2304 -0.1200 0.9657
vn -0.1155 -0.1789 0.9771
vn -0.0930 -0.1896 0.9774
vn -0.0069 -0.1726 0.9850
vn -0.0051 -0.1698 0.9855
vn 0.0243 -0.1257 0.9918
vn 0.3427 0.4827 0.8059
vn 0.4189 0.8952 -0.1520
vn 0.6264 0.3320 -0.7053
vn 0.3382 0.9391 -0.0614
vn 0.3160 0.9465 -0.0662
vn 0.3182 0.9457 -0.0658
vn 0.2926 0.9517 -0.0930
vn 0.2928 0.9517 -0.0920
vn 0.2872 0.9486 -0.1332
vn 0.2872 0.9485 -0.1335
vn 0.2901 0.9413 -0.1728
vn 0.2904 0.9409 -0.1745
vn 0.3023 0.9275 -0.2199
vn 0.3035 0.9263 -0.2235
vn 0.3266 0.9003 -0.2878
vn 0.3291 0.8972 -0.2945
vn 0.3643 0.8401 -0.4018
vn 0.3677 0.8329 -0.4136
vn 0.3983 0.6978 -0.5953
vn 0.3995 0.6820 -0.6126
vn 0.3613 0.4125 -0.8363
vn 0.1984 0.0601 -0.9783
vn -0.0075 -0.1663 -0.9860
vn -0.1967 -0.2231 -0.9548
vn -0.3814 -0.2152 -0.8990
vn -0.5521 -0.2005 -0.8093
vn -0.7021 -0.1815 -0.6885
vn -0.8257 -0.1588 -0.5413
vn -0.9182 -0.1333 -0.3731
vn -0.9760 -0.1060 -0.1902
vn -0.9970 -0.0778 0.0003
vn -0.9803 -0.0499 0.1913
vn -0.9249 -0.0209 0.3796
vn -0.8185 0.0372 0.5734
vn -0.0728 -0.9756 0.2070
vn -0.0557 -0.9791 0.1958
vn -0.0424 -0.9775 0.2066
vn -0.0637 -0.9786 0.1955
vn -0.0717 -0.9784 0.1940
vn -0.0798 -0.9775 0.1950
vn -0.0887 -0.9767 0.1955
vn -0.1022 -0.9732 0.2058
vn -0.1165 -0.9707 0.2100
vn -0.1062 -0.9755 0.1925
vn -0.1082 -0.9738 0.2000
vn -0.1084 -0.9726 0.2057
vn -0.1077 -0.9715 0.2112
vn -0.1060 -0.9705 0.2167
vn -0.1032 -0.9696 0.2220
vn -0.0992 -0.9688 0.2270
vn -0.0940 -0.9684 0.2312
vn -0.0880 -0.9682 0.2343
vn -0.0816 -0.9683 0.2360
vn -0.0739 -0.9688 0.2365
vn -0.0664 -0.9695 0.2360
vn -0.0605 -0.9702 0.2346
vn -0.0550 -0.9712 0.2320
vn -0.0501 -0.9723 0.2285
vn -0.0459 -0.9735 0.2240
vn -0.0427 -0.9748 0.2188
vn -0.0406 -0.9762 0.2129
vn -0.0397 -0.9776 0.2068
vn -0.0402 -0.9789 0.2003
vn -0.0426 -0.9804 0.1926
vn -0.0315 -0.9773 0.2095
vn -0.0294 -0.9833 0.1796
vn -0.0002 -0.9802 0.1979
vn -0.0510 -0.9833 0.1747
vn -0.0705 -0.9826 0.1721
vn -0.0904 -0.9807 0.1733
vn -0.1131 -0.9776 0.1773
vn -0.1445 -0.9695 0.1979
vn -0.1834 -0.9676 0.1737
vn -0.1679 -0.9708 0.1711
vn -0.1719 -0.9671 0.1877
vn -0.1723 -0.9638 0.2036
vn -0.1700 -0.9607 0.2193
vn -0.1648 -0.9580 0.2347
vn -0.1564 -0.9556 0.2497
vn -0.1447 -0.9538 0.2634
vn -0.1299 -0.9527 0.2747
vn -0.1129 -0.9525 0.2827
vn -0.0952 -0.9533 0.2867
vn -0.0754 -0.9553 0.2860
vn -0.0562 -0.9566 0.2861
vn -0.0402 -0.9585 0.2823
vn -0.0251 -0.9609 0.2756
vn -0.0114 -0.9639 0.2661
vn 0.0003 -0.9672 0.2541
vn 0.0095 -0.9708 0.2398
vn 0.0158 -0.9745 0.2238
vn 0.0187 -0.9782 0.2066
vn 0.0180 -0.9818 0.1888
vn 0.0132 -0.9852 0.1711
vn 0.0300 -0.9840 0.1758
vn 0.0203 -0.9958 0.0895
vn 0.0726 -0.9907 0.1150
vn -0.0257 -0.9962 0.0827
vn -0.0695 -0.9945 0.0782
vn -0.1143 -0.9902 0.0807
vn -0.1635 -0.9827 0.0875
vn -0.2193 -0.9690 0.1137
vn -0.2962 -0.9508 0.0907
vn -0.2980 -0.9469 0.1209
vn -0.3063 -0.9384 0.1602
vn -0.3075 -0.9306 0.1986
vn -0.3020 -0.9235 0.2365
vn -0.2896 -0.9171 0.2740
vn -0.2696 -0.9116 0.3103
vn -0.2413 -0.9075 0.3439
vn -0.2054 -0.9052 0.3722
vn -0.1640 -0.9051 0.3924
vn -0.1205 -0.9072 0.4031
vn -0.0760 -0.9118 0.4035
vn -0.0330 -0.9148 0.4026
vn 0.0066 -0.9194 0.3932
vn 0.0438 -0.9253 0.3766
vn 0.0775 -0.9324 0.3531
vn 0.1062 -0.9403 0.3233
vn 0.1288 -0.9489 0.2881
vn 0.1440 -0.9579 0.2485
vn 0.1510 -0.9668 0.2062
vn 0.1491 -0.9754 0.1626
vn 0.1382 -0.9831 0.1199
vn 0.1393 -0.9859 0.0933
vn 0.0881 -0.9957 -0.0286
vn 0.1701 -0.9854 -0.0001
vn 0.0091 -0.9992 -0.0398
vn -0.0659 -0.9968 -0.0460
vn -0.1431 -0.9888 -0.0415
vn -0.2269 -0.9735 -0.0286
vn -0.3140 -0.9494 0.0003
vn -0.4299 -0.9028 -0.0149
vn -0.4550 -0.8890 0.0515
vn -0.4697 -0.8746 0.1201
vn -0.4720 -0.8617 0.1863
vn -0.4628 -0.8499 0.2519
vn -0.4417 -0.8393 0.3169
vn -0.4074 -0.8304 0.3801
vn -0.3589 -0.8238 0.4388
vn -0.2969 -0.8204 0.4886
vn -0.2252 -0.8209 0.5249
vn -0.1494 -0.8251 0.5448
vn -0.0738 -0.8334 0.5478
vn -0.0007 -0.8382 0.5453
vn 0.0687 -0.8458 0.5290
vn 0.1343 -0.8556 0.4999
vn 0.1935 -0.8673 0.4586
vn 0.2440 -0.8806 0.4061
vn 0.2836 -0.8951 0.3440
vn 0.3102 -0.9102 0.2744
vn 0.3223 -0.9253 0.2000
vn 0.3188 -0.9397 0.1236
vn 0.2995 -0.9529 0.0481
vn 0.2768 -0.9608 -0.0145
vn 0.1653 -0.9731 -0.1606
vn 0.2804 -0.9511 -0.1299
vn 0.0504 -0.9829 -0.1772
vn -0.0593 -0.9810 -0.1847
vn -0.1720 -0.9690 -0.1775
vn -0.2930 -0.9432 -0.1564
vn -0.4141 -0.9016 -0.1246
vn -0.5624 -0.8173 -0.1254
vn -0.6101 -0.7919 -0.0270
vn -0.6318 -0.7719 0.0709
vn -0.6356 -0.7541 0.1656
vn -0.6230 -0.7379 0.2595
vn -0.5933 -0.7236 0.3527
vn -0.5448 -0.7116 0.4437
vn -0.4759 -0.7028 0.5287
vn -0.3877 -0.6987 0.6013
vn -0.2850 -0.7000 0.6548
vn -0.1760 -0.7068 0.6851
vn -0.0678 -0.7187 0.6920
vn 0.0371 -0.7251 0.6876
vn 0.1379 -0.7349 0.6640
vn 0.2331 -0.7479 0.6216
vn 0.3190 -0.7637 0.5613
vn 0.3923 -0.7817 0.4847
vn 0.4495 -0.8015 0.3943
vn 0.4878 -0.8223 0.2931
vn 0.5049 -0.8431 0.1851
vn 0.4993 -0.8632 0.0746
vn 0.4707 -0.8816 -0.0347
vn 0.4231 -0.8965 -0.1316
vn 0.2419 -0.9267 -0.2875
vn 0.3879 -0.8860 -0.2541
vn 0.0931 -0.9460 -0.3106
vn -0.0501 -0.9463 -0.3193
vn -0.1971 -0.9304 -0.3091
vn -0.3530 -0.8932 -0.2786
vn -0.5058 -0.8280 -0.2420
vn -0.6749 -0.7027 -0.2253
vn -0.7404 -0.6640 -0.1046
vn -0.7684 -0.6397 0.0187
vn -0.7738 -0.6182 0.1383
vn -0.7586 -0.5987 0.2570
vn -0.7219 -0.5815 0.3751
vn -0.6613 -0.5673 0.4908
vn -0.5750 -0.5571 0.5991
vn -0.4640 -0.5527 0.6923
vn -0.3342 -0.5551 0.7617
vn -0.1959 -0.5644 0.8019
vn -0.0585 -0.5793 0.8130
vn 0.0752 -0.5866 0.8064
vn 0.2040 -0.5975 0.7755
vn 0.3253 -0.6123 0.7206
vn 0.4347 -0.6307 0.6429
vn 0.5276 -0.6520 0.5446
vn 0.5999 -0.6755 0.4288
vn 0.6479 -0.7003 0.2996
vn 0.6689 -0.7255 0.1621
vn 0.6612 -0.7499 0.0217
vn 0.6243 -0.7724 -0.1166
vn 0.5559 -0.7964 -0.2382
vn 0.3112 -0.8620 -0.4002
vn 0.4829 -0.7976 -0.3615
vn 0.1334 -0.8929 -0.4300
vn -0.0395 -0.8969 -0.4404
vn -0.2169 -0.8775 -0.4278
vn -0.4034 -0.8284 -0.3887
vn -0.5823 -0.7361 -0.3451
vn -0.7600 -0.5678 -0.3163
vn -0.8390 -0.5148 -0.1765
vn -0.8724 -0.4877 -0.0328
vn -0.8796 -0.4636 0.1066
vn -0.8628 -0.4421 0.2453
vn -0.8208 -0.4232 0.3836
vn -0.7510 -0.4076 0.5194
vn -0.6510 -0.3970 0.6470
vn -0.5218 -0.3930 0.7572
vn -0.3703 -0.3969 0.8399
vn -0.2083 -0.4088 0.8886
vn -0.0469 -0.4264 0.9033
vn 0.1104 -0.4341 0.8941
vn 0.2616 -0.4451 0.8564
vn 0.4036 -0.4606 0.7905
vn 0.5312 -0.4801 0.6981
vn 0.6391 -0.5030 0.5818
vn 0.7226 -0.5286 0.4455
vn 0.7776 -0.5557 0.2940
vn 0.8011 -0.5835 0.1333
vn 0.7914 -0.6106 -0.0302
vn 0.7478 -0.6359 -0.1911
vn 0.6637 -0.6704 -0.3317
vn 0.3700 -0.7850 -0.4969
vn 0.5595 -0.6938 -0.4534
vn 0.1690 -0.8288 -0.5334
vn -0.0288 -0.8374 -0.5458
vn -0.2319 -0.8147 -0.5314
vn -0.4435 -0.7537 -0.4850
vn -0.6400 -0.6322 -0.4368
vn -0.8156 -0.4243 -0.3935
vn -0.9036 -0.3557 -0.2389
vn -0.9416 -0.3268 -0.0806
vn -0.9507 -0.3015 0.0730
vn -0.9333 -0.2789 0.2263
vn -0.8882 -0.2592 0.3794
vn -0.8122 -0.2434 0.5302
vn -0.7026 -0.2330 0.6724
vn -0.5604 -0.2300 0.7957
vn -0.3931 -0.2356 0.8888
vn -0.2137 -0.2500 0.9444
vn -0.0344 -0.2698 0.9623
vn 0.1404 -0.2777 0.9504
vn 0.3080 -0.2882 0.9067
vn 0.4648 -0.3036 0.8317
vn 0.6050 -0.3232 0.7276
vn 0.7230 -0.3465 0.5976
vn 0.8137 -0.3727 0.4461
vn 0.8728 -0.4007 0.2786
vn 0.8973 -0.4295 0.1016
vn 0.8856 -0.4579 -0.0778
vn 0.8370 -0.4845 -0.2544
vn 0.7421 -0.5311 -0.4089
vn 0.4158 -0.7057 -0.5736
vn 0.6150 -0.5878 -0.5256
vn 0.1978 -0.7619 -0.6167
vn -0.0192 -0.7753 -0.6312
vn -0.2423 -0.7496 -0.6160
vn -0.4732 -0.6771 -0.5635
vn -0.6789 -0.5265 -0.5117
vn -0.8440 -0.2881 -0.4525
vn -0.9357 -0.2042 -0.2878
vn -0.9772 -0.1746 -0.1208
vn -0.9880 -0.1488 0.0412
vn -0.9710 -0.1260 0.2034
vn -0.9246 -0.1065 0.3658
vn -0.8455 -0.0911 0.5261
vn -0.7306 -0.0816 0.6779
vn -0.5808 -0.0799 0.8101
vn -0.4038 -0.0873 0.9107
vn -0.2134 -0.1040 0.9714
vn -0.0226 -0.1252 0.9919
vn 0.1634 -0.1334 0.9775
vn 0.3414 -0.1432 0.9290
vn 0.5071 -0.1578 0.8473
vn 0.6545 -0.1768 0.7351
vn 0.7779 -0.1996 0.5959
vn 0.8719 -0.2254 0.4347
vn 0.9325 -0.2532 0.2574
vn 0.9568 -0.2819 0.0709
vn 0.9433 -0.3103 -0.1176
vn 0.8914 -0.3372 -0.3029
vn 0.7910 -0.3968 -0.4657
vn 0.4739 -0.6512 -0.5928
vn 0.6424 -0.5297 -0.5539
vn 0.2307 -0.7240 -0.6500
vn -0.0080 -0.7446 -0.6675
vn -0.2655 -0.7062 -0.6563
vn -0.4949 -0.6054 -0.6233
vn -0.7168 -0.4202 -0.5564
vn -0.8697 -0.1839 -0.4581
vn -0.9432 -0.0969 -0.3178
vn -0.9865 -0.0674 -0.1492
vn -0.9990 -0.0424 0.0168
vn -0.9829 -0.0194 0.1830
vn -0.9369 0.0010 0.3495
vn -0.8576 0.0171 0.5140
vn -0.7416 0.0266 0.6704
vn -0.5883 0.0287 0.8081
vn -0.4053 0.0241 0.9139
vn -0.2096 0.0110 0.9777
vn -0.0127 -0.0083 0.9999
vn 0.1791 -0.0168 0.9837
vn 0.3623 -0.0259 0.9317
vn 0.5323 -0.0396 0.8457
vn 0.6827 -0.0577 0.7284
vn 0.8078 -0.0797 0.5841
vn 0.9025 -0.1046 0.4178
vn 0.9628 -0.1316 0.2359
vn 0.9862 -0.1596 0.0451
vn 0.9712 -0.1874 -0.1469
vn 0.9174 -0.2141 -0.3355
vn 0.8118 -0.2846 -0.5099
vn 0.5788 -0.6057 -0.5460
vn 0.7205 -0.3633 -0.5907
vn -0.3221 0.5162 0.7936
vn -0.1485 0.6544 0.7415
vn -0.2878 0.5467 0.7863
vn -0.1062 0.6822 0.7235
vn 0.1276 0.9757 0.1779
vn -0.5530 -0.6768 -0.4860
vn -0.4456 -0.6888 -0.5719
vn -0.7399 -0.3761 -0.5577
vn -0.8769 -0.1535 -0.4555
vn -0.9432 -0.0613 -0.3264
vn -0.9868 -0.0319 -0.1585
vn -0.9999 -0.0080 0.0079
vn -0.9846 0.0152 0.1742
vn -0.9395 0.0365 0.3405
vn -0.8618 0.0536 0.5044
vn -0.7482 0.0638 0.6603
vn -0.5975 0.0671 0.7991
vn -0.4162 -0.2789 0.8654
vn -0.2255 -0.1184 0.9670
vn -0.0156 -0.0285 0.9995
vn 0.1849 -0.0180 0.9826
vn 0.3698 -0.0291 0.9286
vn 0.5395 -0.0412 0.8410
vn 0.6892 -0.0574 0.7223
vn 0.8132 -0.0772 0.5769
vn 0.9066 -0.1001 0.4100
vn 0.9656 -0.1252 0.2281
vn 0.9877 -0.1514 0.0379
vn 0.9721 -0.1777 -0.1532
vn 0.9178 -0.2039 -0.3406
vn 0.9182 -0.3032 -0.2550
vn -0.1135 -0.3050 0.9456
vn -0.1355 -0.2151 0.9671
vn -0.1295 -0.2401 0.9621
vn -0.0930 -0.1424 0.9854
vn -0.0989 -0.1433 0.9847
vn -0.0561 -0.2602 0.9639
vn -0.0530 -0.2330 0.9710
vn -0.0681 -0.3652 0.9284
vn -0.5563 -0.7753 -0.2990
vn -0.4126 -0.8123 0.4122
vn -0.6190 -0.3258 0.7147
vn -0.2849 -0.9561 0.0679
vn -0.2812 -0.9567 0.0757
vn -0.2808 -0.9567 0.0766
vn -0.2729 -0.9567 0.1011
vn -0.2726 -0.9567 0.1023
vn -0.2678 -0.9541 0.1343
vn -0.2678 -0.9541 0.1342
vn -0.2710 -0.9481 0.1666
vn -0.2707 -0.9484 0.1652
vn -0.2840 -0.9367 0.2048
vn -0.2827 -0.9377 0.2017
vn -0.3096 -0.9147 0.2599
vn -0.3066 -0.9174 0.2537
vn -0.3489 -0.8686 0.3518
vn -0.3437 -0.8759 0.3385
vn -0.3882 -0.7684 0.5088
vn -0.3835 -0.7888 0.4804
vn -0.3836 -0.6187 0.6856
vn -0.2747 -0.3573 0.8927
vn -0.0395 -0.1207 0.9919
vn 0.1884 -0.0692 0.9797
vn 0.3748 -0.0811 0.9236
vn 0.5426 -0.0921 0.8349
vn 0.6900 -0.1069 0.7159
vn 0.8115 -0.1253 0.5707
vn 0.9025 -0.1467 0.4050
vn 0.9594 -0.1703 0.2249
vn 0.9801 -0.1951 0.0372
vn 0.9637 -0.2201 -0.1510
vn 0.9095 -0.2459 -0.3351
vn 0.8937 -0.2845 -0.3469
vn 0.9257 -0.3780 0.0116
vn 0.4198 -0.8894 0.1812
vn 0.4412 -0.8442 0.3043
vn 0.4192 -0.8902 0.1783
vn 0.2056 -0.9786 -0.0056
vn 0.2016 -0.9794 -0.0068
vn -0.0663 -0.9965 0.0505
vn -0.0647 -0.9967 0.0480
vn -0.1389 -0.9769 0.1627
vn -0.2995 -0.5695 0.7655
vn 0.3148 0.1394 0.9389
vn 0.0770 0.1123 0.9907
vn 0.3300 0.1409 0.9334
vn 0.6779 -0.0203 0.7349
vn 0.6742 -0.0148 0.7384
vn 0.8336 -0.2169 0.5081
vn 0.8330 -0.2167 0.5091
vn 0.9245 -0.2502 0.2875
vn 0.9242 -0.2501 0.2887
vn 0.9594 -0.2798 0.0355
vn 0.9594 -0.2798 0.0356
vn 0.9234 -0.3178 -0.2154
vn 0.9231 -0.3179 -0.2164
vn 0.8251 -0.3630 -0.4329
vn 0.8241 -0.3634 -0.4345
vn 0.6801 -0.4252 -0.5972
vn 0.6782 -0.4261 -0.5987
vn 0.4925 -0.5249 -0.6942
vn 0.4897 -0.5265 -0.6949
vn 0.2562 -0.6771 -0.6898
vn 0.2531 -0.6792 -0.6889
vn 0.0019 -0.8455 -0.5339
vn -0.0007 -0.8472 -0.5313
vn -0.1705 -0.9506 -0.2595
vn -0.1718 -0.9514 -0.2556
vn -0.1300 -0.9912 -0.0233
vn -0.1279 -0.9916 -0.0213
vn -0.0260 -0.9967 0.0774
vn -0.0259 -0.9967 0.0774
vn -0.0173 -0.9953 0.0950
vn -0.0247 -0.9948 0.0991
vn -0.0318 -0.9940 0.1042
vn -0.0318 -0.9940 0.1043
vn -0.0379 -0.9931 0.1108
vn -0.0380 -0.9931 0.1108
vn -0.0427 -0.9920 0.1185
vn -0.0459 -0.9908 0.1271
vn -0.0473 -0.9896 0.1362
vn -0.0474 -0.9882 0.1453
vn -0.0548 -0.9833 0.1736
vn -0.0548 -0.9833 0.1737
vn -0.0623 -0.9784 0.1973
vn 0.5986 -0.3404 0.7251
s 1
usemtl SlickGlossy
f 1//1 2//2 3//3
f 1//1 3//3 4//4
f 1//1 4//4 5//5
f 1//1 5//5 6//6
f 1//1 6//6 7//7
f 1//1 7//7 8//8
f 1//1 8//8 9//9
f 1//1 9//9 10//10
f 1//1 10//10 11//11
f 1//1 11//11 12//12
f 1//1 12//12 13//13
f 1//1 13//13 14//14
f 1//1 14//14 15//15
f 1//1 15//15 16//16
f 1//1 16//16 17//17
f 1//1 17//17 18//18
f 1//1 18//18 19//19
f 1//1 19//19 20//20
f 1//1 20//20 21//21
f 1//1 21//21 22//22
f 1//1 22//22 23//23
f 1//1 23//23 24//24
f 1//1 24//24 25//25
f 1//1 25//25 26//26
f 1//1 26//26 27//27
f 1//1 27//27 28//28
f 1//1 28//28 29//29
f 1//1 29//29 30//30
f 1//1 30//30 31//31
f 1//1 31//31 2//2
f 2//2 32//32 33//33 3//3
f 3//3 33//33 34//34 4//4
f 4//4 34//34 35//35 5//5
f 5//5 35//35 36//36 6//6
f 6//6 36//36 37//37 7//7
f 7//7 37//37 38//38 8//8
f 8//8 38//38 39//39 9//9
f 9//9 39//39 40//40 10//10
f 10//10 40//40 41//41 11//11
f 11//11 41//41 42//42 12//12
f 12//12 42//42 43//43 13//13
f 13//13 43//43 44//44 14//14
f 14//14 44//44 45//45 15//15
f 15//15 45//45 46//46 16//16
f 16//16 46//46 47//47 17//17
f 17//17 47//47 48//48 18//18
f 18//18 48//48 49//49 19//19
f 19//19 49//49 50//50 20//20
f 20//20 50//50 51//51 21//21
f 21//21 51//51 52//52 22//22
f 22//22 52//52 53//53 23//23
f 23//23 53//53 54//54 24//24
f 24//24 54//54 55//55 25//25
f 25//25 55//55 56//56 26//26
f 26//26 56//56 57//57 27//27
f 27//27 57//57 58//58 28//28
f 28//28 58//58 59//59 29//29
f 29//29 59//59 60//60 30//30
f 30//30 60//60 61//61 31//31
f 31//31 61//61 32//32 2//2
f 32//32 62//62 63//63 33//33
f 33//33 63//63 64//64 34//34
f 34//34 64//64 65//65 35//35
f 35//35 65//65 66//66 36//36
f 36//36 66//66 67//67 37//37
f 37//37 67//67 68//68 38//38
f 38//38 68//68 69//69 39//39
f 39//39 69//69 70//70 40//40
f 40//40 70//70 71//71 41//41
f 41//41 71//71 72//72 42//42
f 42//42 72//72 73//73 43//43
f 43//43 73//73 74//74 44//44
f 44//44 74//74 75//75 45//45
f 45//45 75//75 76//76 46//46
f 46//46 76//76 77//77 47//47
f 47//47 77//77 78//78 48//48
f 48//48 78//78 79//79 49//49
f 49//49 79//79 80//80 50//50
f 50//50 80//80 81//81 51//51
f 51//51 81//81 82//82 52//52
f 52//52 82//82 83//83 53//53
f 53//53 83//83 84//84 54//54
f 54//54 84//84 85//85 55//55
f 55//55 85//85 86//86 56//56
f 56//56 86//86 87//87 57//57
f 57//57 87//87 88//88 58//58
f 58//58 88//88 89//89 59//59
f 59//59 89//89 90//90 60//60
f 60//60 90//90 91//91 61//61
f 61//61 91//91 62//62 32//32
f 62//62 92//92 93//93 63//63
f 63//63 93//93 94//94 64//64
f 64//64 94//94 95//95 65//65
f 65//65 95//95 96//96 66//66
f 66//66 96//96 97//97 67//67
f 67//67 97//97 98//98 68//68
f 68//68 98//98 99//99 69//69
f 69//69 99//99 100//100 70//70
f 70//70 100//100 101//101 71//71
f 71//71 101//101 102//102 72//72
f 72//72 102//102 103//103 73//73
f 73//73 103//103 104//104 74//74
f 74//74 104//104 105//105 75//75
f 75//75 105//105 106//106 76//76
f 76//76 106//106 107//107 77//77
f 77//77 107//107 108//108 78//78
f 78//78 108//108 109//109 79//79
f 79//79 109//109 110//110 80//80
f 80//80 110//110 111//111 81//81
f 81//81 111//111 112//112 82//82
f 82//82 112//112 113//113 83//83
f 83//83 113//113 114//114 84//84
f 84//84 114//114 115//115 85//85
f 85//85 115//115 116//116 86//86
f 86//86 116//116 117//117 87//87
f 87//87 117//117 118//118 88//88
f 88//88 118//118 119//119 89//89
f 89//89 119//119 120//120 90//90
f 90//90 120//120 121//121 91//91
f 91//91 121//121 92//92 62//62
f 92//92 122//122 123//123 93//93
f 93//93 123//123 124//124 94//94
f 94//94 124//124 125//125 95//95
f 95//95 125//125 126//126 96//96
f 96//96 126//126 127//127 97//97
f 97//97 127//127 128//128 98//98
f 98//98 128//128 129//129 99//99
f 99//99 129//129 130//130 100//100
f 100//100 130//130 131//131 101//101
f 101//101 131//131 132//132 102//102
f 102//102 132//132 133//133 103//103
f 103//103 133//133 134//134 104//104
f 104//104 134//134 135//135 105//105
f 105//105 135//135 136//136 106//106
f 106//106 136//136 137//137 107//107
f 107//107 137//137 138//138 108//108
f 108//108 138//138 139//139 109//109
f 109//109 139//139 140//140 110//110
f 110//110 140//140 141//141 111//111
f 111//111 141//141 142//142 112//112
f 112//112 142//142 143//143 113//113
f 113//113 143//143 144//144 114//114
f 114//114 144//144 145//145 115//115
f 115//115 145//145 146//146 116//116
f 116//116 146//146 147//147 117//117
f 117//117 147//147 148//148 118//118
f 118//118 148//148 149//149 119//119
f 119//119 149//149 150//150 120//120
f 120//120 150//150 151//151 121//121
f 121//121 151//151 122//122 92//92
f 122//122 152//152 153//153 123//123
f 123//123 153//153 154//154 124//124
f 124//124 154//154 155//155 125//125
f 125//125 155//155 156//156 126//126
f 126//126 156//156 157//157 127//127
f 127//127 157//157 158//158 128//128
f 128//128 158//158 159//159 129//129
f 129//129 159//159 160//160 130//130
f 130//130 160//160 161//161 131//131
f 131//131 161//161 162//162 132//132
f 132//132 162//162 163//163 133//133
f 133//133 163//163 164//164 134//134
f 134//134 164//164 165//165 135//135
f 135//135 165//165 166//166 136//136
f 136//136 166//166 167//167 137//137
f 137//137 167//167 168//168 138//138
f 138//138 168//168 169//169 139//139
f 139//139 169//169 170//170 140//140
f 140//140 170//170 171//171 141//141
f 141//141 171//171 172//172 142//142
f 142//142 172//172 173//173 143//143
f 143//143 173//173 174//174 144//144
f 144//144 174//174 175//175 145//145
f 145//145 175//175 176//176 146//146
f 146//146 176//176 177//177 147//147
f 147//147 177//177 178//178 148//148
f 148//148 178//178 179//179 149//149
f 149//149 179//179 180//180 150//150
f 150//150 180//180 181//181 151//151
f 151//151 181//181 152//152 122//122
f 152//152 182//182 183//183 153//153
f 153//153 183//183 184//184 154//154
f 154//154 184//184 185//185 155//155
f 155//155 185//185 186//186 156//156
f 156//156 186//186 187//187 157//157
f 157//157 187//187 188//188 158//158
f 158//158 188//188 189//189 159//159
f 159//159 189//189 190//190 160//160
f 160//160 190//190 191//191 161//161
f 161//161 191//191 192//192 162//162
f 162//162 192//192 193//193 163//163
f 163//163 193//193 194//194 164//164
f 164//164 194//194 195//195 165//165
f 165//165 195//195 196//196 166//166
f 166//166 196//196 197//197 167//167
f 167//167 197//197 198//198 168//168
f 168//168 198//198 199//199 169//169
f 169//169 199//199 200//200 170//170
f 170//170 200//200 201//201 171//171
f 171//171 201//201 202//202 172//172
f 172//172 202//202 203//203 173//173
f 173//173 203//203 204//204 174//174
f 174//174 204//204 205//205 175//175
f 175//175 205//205 206//206 176//176
f 176//176 206//206 207//207 177//177
f 177//177 207//207 208//208 178//178
f 178//178 208//208 209//209 179//179
f 179//179 209//209 210//210 180//180
f 180//180 210//210 211//211 181//181
f 181//181 211//211 182//182 152//152
f 182//182 212//212 213//213 183//183
f 183//183 213//213 214//214 184//184
f 184//184 214//214 215//215 185//185
f 185//185 215//215 216//216 186//186
f 186//186 216//216 217//217 187//187
f 187//187 217//217 218//218 188//188
f 188//188 218//218 219//219 189//189
f 189//189 219//219 220//220 190//190
f 190//190 220//220 221//221 191//191
f 191//191 221//221 222//222 192//192
f 192//192 222//222 223//223 193//193
f 193//193 223//223 224//224 194//194
f 194//194 224//224 225//225 195//195
f 195//195 225//225 226//226 196//196
f 196//196 226//226 227//227 197//197
f 197//197 227//227 228//228 198//198
f 198//198 228//228 229//229 199//199
f 199//199 229//229 230//230 200//200
f 200//200 230//230 231//231 201//201
f 201//201 231//231 232//232 202//202
f 202//202 232//232 233//233 203//203
f 203//203 233//233 234//234 204//204
f 204//204 234//234 235//235 205//205
f 205//205 235//235 236//236 206//206
f 206//206 236//236 237//237 207//207
f 207//207 237//237 238//238 208//208
f 208//208 238//238 239//239 209//209
f 209//209 239//239 240//240 210//210
f 210//210 240//240 241//241 211//211
f 211//211 241//241 212//212 182//182
f 212//212 242//242 243//243 213//213
f 213//213 243//243 244//244 214//214
f 214//214 244//244 245//245 215//215
f 215//215 245//245 246//246 216//216
f 216//216 246//246 247//247 217//217
f 217//217 247//247 248//248 218//218
f 218//218 248//248 249//249 219//219
f 219//219 249//249 250//250 220//220
f 220//220 250//250 251//251 221//221
f 221//221 251//251 252//252 222//222
f 222//222 252//252 253//253 223//223
f 223//223 253//253 254//254 224//224
f 224//224 254//254 255//255 225//225
f 225//225 255//255 256//256 226//226
f 226//226 256//256 257//257 227//227
f 227//227 257//257 258//258 228//228
f 228//228 258//258 259//259 229//229
f 229//229 259//259 260//260 230//230
f 230//230 260//260 261//261 231//231
f 231//231 261//261 262//262 232//232
f 232//232 262//262 263//263 233//233
f 233//233 263//263 264//264 234//234
f 234//234 264//264 265//265 235//235
f 235//235 265//265 266//266 236//236
f 236//236 266//266 267//267 237//237
f 237//237 267//267 268//268 238//238
f 238//238 268//268 269//269 239//239
f 239//239 269//269 270//270 240//240
f 240//240 270//270 271//271 241//241
f 241//241 271//271 242//242 212//212
f 242//242 272//272 273//273 243//243
f 243//243 273//273 274//274 244//244
f 244//244 274//274 275//275 245//245
f 245//245 275//275 276//276 246//246
f 246//246 276//276 277//277 247//247
f 247//247 277//277 278//278 248//248
f 248//248 278//278 279//279 249//249
f 249//249 279//279 280//280 250//250
f 250//250 280//280 281//281 251//251
f 251//251 281//281 282//282 252//252
f 252//252 282//282 283//283 253//253
f 253//253 283//283 284//284 254//254
f 254//254 284//284 285//285 255//255
f 255//255 285//285 286//286 256//256
f 256//256 286//286 287//287 257//257
f 257//257 287//287 288//288 258//258
f 258//258 288//288 289//289 259//259
f 259//259 289//289 290//290 260//260
f 260//260 290//290 291//291 261//261
f 261//261 291//291 292//292 262//262
f 262//262 292//292 293//293 263//263
f 263//263 293//293 294//294 264//264
f 264//264 294//294 295//295 265//265
f 265//265 295//295 296//296 266//266
f 266//266 296//296 297//297 267//267
f 267//267 297//297 298//298 268//268
f 268//268 298//298 299//299 269//269
f 269//269 299//299 300//300 270//270
f 270//270 300//300 301//301 271//271
f 271//271 301//301 272//272 242//242
f 272//272 302//302 303//303 273//273
f 273//273 303//303 304//304 274//274
f 274//274 304//304 305//305 275//275
f 275//275 305//305 306//306 276//276
f 276//276 306//306 307//307 277//277
f 277//277 307//307 308//308 278//278
f 278//278 308//308 309//309 279//279
f 279//279 309//309 310//310 280//280
f 280//280 310//310 311//311 281//281
f 281//281 311//311 312//312 282//282
f 282//282 312//312 313//313 283//283
f 283//283 313//313 314//314 284//284
f 284//284 314//314 315//315 285//285
f 285//285 315//315 316//316 286//286
f 286//286 316//316 317//317 287//287
f 287//287 317//317 318//318 288//288
f 288//288 318//318 319//319 289//289
f 289//289 319//319 320//320 290//290
f 290//290 320//320 321//321 291//291
f 291//291 321//321 322//322 292//292
f 292//292 322//322 323//323 293//293
f 293//293 323//323 324//324 294//294
f 294//294 324//324 325//325 295//295
f 295//295 325//325 326//326 296//296
f 296//296 326//326 327//327 297//297
f 297//297 327//327 328//328 298//298
f 298//298 328//328 329//329 299//299
f 299//299 329//329 330//330 300//300
f 300//300 330//330 331//331 301//301
f 301//301 331//331 302//302 272//272
f 302//302 332//332 333//333 303//334
f 303//334 333//333 334//335 304//336
f 304//336 334//335 335//337 305//338
f 305//338 335//337 336//339 306//339
f 306//306 336//340 337//340 307//307
f 307//341 337//341 338//341 308//341
f 308//342 338//342 339//342 309//342
f 309//343 339//343 340//344 310//345
f 310//345 340//344 341//346 311//347
f 311//347 341//346 342//348 312//349
f 312//349 342//348 343//350 313//351
f 313//351 343//350 344//352 314//353
f 314//353 344//352 345//354 315//355
f 315//355 345//354 346//356 316//357
f 316//357 346//356 347//358 317//359
f 317//359 347//358 348//360 318//318
f 318//318 348//360 349//361 319//319
f 319//319 349//361 350//362 320//320
f 320//320 350//362 351//363 321//321
f 321//321 351//363 352//364 322//322
f 322//322 352//364 353//365 323//323
f 323//323 353//365 354//366 324//324
f 324//324 354//366 355//367 325//325
f 325//325 355//367 356//368 326//326
f 326//326 356//368 357//369 327//327
f 327//327 357//369 358//370 328//328
f 328//328 358//370 359//371 329//329
f 329//329 359//371 360//372 330//330
f 330//330 360//372 361//373 331//331
f 331//331 361//373 332//332 302//302
f 362//374 364//375 363//376
f 362//374 365//377 364//375
f 362//374 366//378 365//377
f 362//374 367//379 366//378
f 362//374 368//380 367//379
f 362//374 369//381 368//380
f 362//374 370//382 369//381
f 362//374 371//383 370//382
f 362//374 372//384 371//383
f 362//374 373//385 372//384
f 362//374 374//386 373//385
f 362//374 375//387 374//386
f 362//374 376//388 375//387
f 362//374 377//389 376//388
f 362//374 378//390 377//389
f 362//374 379//391 378//390
f 362//374 380//392 379//391
f 362//374 381//393 380//392
f 362//374 382//394 381//393
f 362//374 383//395 382//394
f 362//374 384//396 383//395
f 362//374 385//397 384//396
f 362//374 386//398 385//397
f 362//374 387//399 386//398
f 362//374 388//400 387//399
f 362//374 389//401 388//400
f 362//374 390//402 389//401
f 362//374 391//403 390//402
f 362//374 392//404 391//403
f 362//374 363//376 392//404
f 363//376 364//375 394//405 393//406
f 364//375 365//377 395//407 394//405
f 365//377 366//378 396//408 395//407
f 366//378 367//379 397//409 396//408
f 367//379 368//380 398//410 397//409
f 368//380 369//381 399//411 398//410
f 369//381 370//382 400//412 399//411
f 370//382 371//383 401//413 400//412
f 371//383 372//384 402//414 401//413
f 372//384 373//385 403//415 402//414
f 373//385 374//386 404//416 403//415
f 374//386 375//387 405//417 404//416
f 375//387 376//388 406//418 405//417
f 376//388 377//389 407//419 406//418
f 377//389 378//390 408//420 407//419
f 378//390 379//391 409//421 408//420
f 379//391 380//392 410//422 409//421
f 380//392 381//393 411//423 410//422
f 381//393 382//394 412//424 411//423
f 382//394 383//395 413//425 412//424
f 383//395 384//396 414//426 413//425
f 384//396 385//397 415//427 414//426
f 385//397 386//398 416//428 415//427
f 386//398 387//399 417//429 416//428
f 387//399 388//400 418//430 417//429
f 388//400 389//401 419//431 418//430
f 389//401 390//402 420//432 419//431
f 390//402 391//403 421//433 420//432
f 391//403 392//404 422//434 421//433
f 392//404 363//376 393//406 422//434
f 393//406 394//405 424//435 423//436
f 394//405 395//407 425//437 424//435
f 395//407 396//408 426//438 425//437
f 396//408 397//409 427//439 426//438
f 397//409 398//410 428//440 427//439
f 398//410 399//411 429//441 428//440
f 399//411 400//412 430//442 429//441
f 400//412 401//413 431//443 430//442
f 401//413 402//414 432//444 431//443
f 402//414 403//415 433//445 432//444
f 403//415 404//416 434//446 433//445
f 404//416 405//417 435//447 434//446
f 405//417 406//418 436//448 435//447
f 406//418 407//419 437//449 436//448
f 407//419 408//420 438//450 437//449
f 408//420 409//421 439//451 438//450
f 409//421 410//422 440//452 439//451
f 410//422 411//423 441//453 440//452
f 411//423 412//424 442//454 441//453
f 412//424 413//425 443//455 442//454
f 413//425 414//426 444//456 443//455
f 414//426 415//427 445//457 444//456
f 415//427 416//428 446//458 445//457
f 416//428 417//429 447//459 446//458
f 417//429 418//430 448//460 447//459
f 418//430 419//431 449//461 448//460
f 419//431 420//432 450//462 449//461
f 420//432 421//433 451//463 450//462
f 421//433 422//434 452//464 451//463
f 422//434 393//406 423//436 452//464
f 423//436 424//435 454//465 453//466
f 424//435 425//437 455//467 454//465
f 425//437 426//438 456//468 455//467
f 426//438 427//439 457//469 456//468
f 427//439 428//440 458//470 457//469
f 428//440 429//441 459//471 458//470
f 429//441 430//442 460//472 459//471
f 430//442 431//443 461//473 460//472
f 431//443 432//444 462//474 461//473
f 432//444 433//445 463//475 462//474
f 433//445 434//446 464//476 463//475
f 434//446 435//447 465//477 464//476
f 435//447 436//448 466//478 465//477
f 436//448 437//449 467//479 466//478
f 437//449 438//450 468//480 467//479
f 438//450 439//451 469//481 468//480
f 439//451 440//452 470//482 469//481
f 440//452 441//453 471//483 470//482
f 441//453 442//454 472//484 471//483
f 442//454 443//455 473//485 472//484
f 443//455 444//456 474//486 473//485
f 444//456 445//457 475//487 474//486
f 445//457 446//458 476//488 475//487
f 446//458 447//459 477//489 476//488
f 447//459 448//460 478//490 477//489
f 448//460 449//461 479//491 478//490
f 449//461 450//462 480//492 479//491
f 450//462 451//463 481//493 480//492
f 451//463 452//464 482//494 481//493
f 452//464 423//436 453//466 482//494
f 453//466 454//465 484//495 483//496
f 454//465 455//467 485//497 484//495
f 455//467 456//468 486//498 485//497
f 456//468 457//469 487//499 486//498
f 457//469 458//470 488//500 487//499
f 458//470 459//471 489//501 488//500
f 459//471 460//472 490//502 489//501
f 460//472 461//473 491//503 490//502
f 461//473 462//474 492//504 491//503
f 462//474 463//475 493//505 492//504
f 463//475 464//476 494//506 493//505
f 464//476 465//477 495//507 494//506
f 465//477 466//478 496//508 495//507
f 466//478 467//479 497//509 496//508
f 467//479 468//480 498//510 497//509
f 468//480 469//481 499//511 498//510
f 469//481 470//482 500//512 499//511
f 470//482 471//483 501//513 500//512
f 471//483 472//484 502//514 501//513
f 472//484 473//485 503//515 502//514
f 473//485 474//486 504//516 503//515
f 474//486 475//487 505//517 504//516
f 475//487 476//488 506//518 505//517
f 476//488 477//489 507//519 506//518
f 477//489 478//490 508//520 507//519
f 478//490 479//491 509//521 508//520
f 479//491 480//492 510//522 509//521
f 480//492 481//493 511//523 510//522
f 481//493 482//494 512//524 511//523
f 482//494 453//466 483//496 512//524
f 483//496 484//495 514//525 513//526
f 484//495 485//497 515//527 514//525
f 485//497 486//498 516//528 515//527
f 486//498 487//499 517//529 516//528
f 487//499 488//500 518//530 517//529
f 488//500 489//501 519//531 518//530
f 489//501 490//502 520//532 519//531
f 490//502 491//503 521//533 520//532
f 491//503 492//504 522//534 521//533
f 492//504 493//505 523//535 522//534
f 493//505 494//506 524//536 523//535
f 494//506 495//507 525//537 524//536
f 495//507 496//508 526//538 525//537
f 496//508 497//509 527//539 526//538
f 497//509 498//510 528//540 527//539
f 498//510 499//511 529//541 528//540
f 499//511 500//512 530//542 529//541
f 500//512 501//513 531//543 530//542
f 501//513 502//514 532//544 531//543
f 502//514 503//515 533//545 532//544
f 503//515 504//516 534//546 533//545
f 504//516 505//517 535//547 534//546
f 505//517 506//518 536//548 535//547
f 506//518 507//519 537//549 536//548
f 507//519 508//520 538//550 537//549
f 508//520 509//521 539//551 538//550
f 509//521 510//522 540//552 539//551
f 510//522 511//523 541//553 540//552
f 511//523 512//524 542//554 541//553
f 512//524 483//496 513//526 542//554
f 513//526 514//525 544//555 543//556
f 514//525 515//527 545//557 544//555
f 515//527 516//528 546//558 545//557
f 516//528 517//529 547//559 546//558
f 517//529 518//530 548//560 547//559
f 518//530 519//531 549//561 548//560
f 519//531 520//532 550//562 549//561
f 520//532 521//533 551//563 550//562
f 521//533 522//534 552//564 551//563
f 522//534 523//535 553//565 552//564
f 523//535 524//536 554//566 553//565
f 524//536 525//537 555//567 554//566
f 525//537 526//538 556//568 555//567
f 526//538 527//539 557//569 556//568
f 527//539 528//540 558//570 557//569
f 528//540 529//541 559//571 558//570
f 529//541 530//542 560//572 559//571
f 530//542 531//543 561//573 560//572
f 531//543 532//544 562//574 561//573
f 532//544 533//545 563//575 562//574
f 533//545 534//546 564//576 563//575
f 534//546 535//547 565//577 564//576
f 535//547 536//548 566//578 565//577
f 536//548 537//549 567//579 566//578
f 537//549 538//550 568//580 567//579
f 538//550 539//551 569//581 568//580
f 539//551 540//552 570//582 569//581
f 540//552 541//553 571//583 570//582
f 541//553 542//554 572//584 571//583
f 542//554 513//526 543//556 572//584
f 543//556 544//555 574//585 573//586
f 544//555 545//557 575//587 574//585
f 545//557 546//558 576//588 575//587
f 546//558 547//559 577//589 576//588
f 547//559 548//560 578//590 577//589
f 548//560 549//561 579//591 578//590
f 549//561 550//562 580//592 579//591
f 550//562 551//563 581//593 580//592
f 551//563 552//564 582//594 581//593
f 552//564 553//565 583//595 582//594
f 553//565 554//566 584//596 583//595
f 554//566 555//567 585//597 584//596
f 555//567 556//568 586//598 585//597
f 556//568 557//569 587//599 586//598
f 557//569 558//570 588//600 587//599
f 558//570 559//571 589//601 588//600
f 559//571 560//572 590//602 589//601
f 560//572 561//573 591//603 590//602
f 561//573 562//574 592//604 591//603
f 562//574 563//575 593//605 592//604
f 563//575 564//576 594//606 593//605
f 564//576 565//577 595//607 594//606
f 565//577 566//578 596//608 595//607
f 566//578 567//579 597//609 596//608
f 567//579 568//580 598//610 597//609
f 568//580 569//581 599//611 598//610
f 569//581 570//582 600//612 599//611
f 570//582 571//583 601//613 600//612
f 571//583 572//584 602//614 601//613
f 572//584 543//556 573//586 602//614
f 573//586 574//585 604//615 603//616
f 574//585 575//587 605//617 604//615
f 575//587 576//588 606//618 605//617
f 576//588 577//589 607//619 606//618
f 577//589 578//590 608//620 607//619
f 578//590 579//591 609//621 608//620
f 579//591 580//592 610//622 609//621
f 580//592 581//593 611//623 610//622
f 581//593 582//594 612//624 611//623
f 582//594 583//595 613//625 612//624
f 583//595 584//596 614//626 613//625
f 584//596 585//597 615//627 614//626
f 585//597 586//598 616//628 615//627
f 586//598 587//599 617//629 616//628
f 587//599 588//600 618//630 617//629
f 588//600 589//601 619//631 618//630
f 589//601 590//602 620//632 619//631
f 590//602 591//603 621//633 620//632
f 591//603 592//604 622//634 621//633
f 592//604 593//605 623//635 622//634
f 593//605 594//606 624//636 623//635
f 594//606 595//607 625//637 624//636
f 595//607 596//608 626//638 625//637
f 596//608 597//609 627//639 626//638
f 597//609 598//610 628//640 627//639
f 598//610 599//611 629//641 628//640
f 599//611 600//612 630//642 629//641
f 600//612 601//613 631//643 630//642
f 601//613 602//614 632//644 631//643
f 602//614 573//586 603//616 632//644
f 603//616 604//615 634//645 633//646
f 604//615 605//617 635//647 634//645
f 605//617 606//618 636//648 635//647
f 606//618 607//619 637//649 636//648
f 607//619 608//620 638//650 637//649
f 608//620 609//621 639//651 638//650
f 609//621 610//622 640//652 639//651
f 610//622 611//623 641//653 640//652
f 611//623 612//624 642//654 641//653
f 612//624 613//625 643//655 642//654
f 613//625 614//626 644//656 643//655
f 614//626 615//627 645//657 644//656
f 615//627 616//628 646//658 645//657
f 616//628 617//629 647//659 646//658
f 617//629 618//630 648//660 647//659
f 618//630 619//631 649//661 648//660
f 619//631 620//632 650//662 649//661
f 620//632 621//633 651//663 650//662
f 621//633 622//634 652//664 651//663
f 622//634 623//635 653//665 652//664
f 623//635 624//636 654//666 653//665
f 624//636 625//637 655//667 654//666
f 625//637 626//638 656//668 655//667
f 626//638 627//639 657//669 656//668
f 627//639 628//640 658//670 657//669
f 628//640 629//641 659//671 658//670
f 629//641 630//642 660//672 659//671
f 630//642 631//643 661//673 660//672
f 631//643 632//644 662//674 661//673
f 632//644 603//616 633//646 662//674
f 633//646 634//645 664//675 663//676
f 634//677 635//678 665//679 664//677
f 635//678 636//680 666//680 665//679
f 636//681 637//681 667//681 666//681
f 637//649 638//650 668//682 667//683
f 638//650 639//651 669//684 668//682
f 639//651 640//652 670//685 669//684
f 640//652 641//653 671//686 670//685
f 641//653 642//654 672//687 671//686
f 642//654 643//655 673//688 672//687
f 643//655 644//656 674//689 673//688
f 644//656 645//657 675//690 674//689
f 645//657 646//658 676//691 675//690
f 646//658 647//659 677//692 676//691
f 647//659 648//660 678//693 677//692
f 648//660 649//661 679//694 678//693
f 649//661 650//662 680//695 679//694
f 650//662 651//663 681//696 680//695
f 651//663 652//664 682//697 681//696
f 652//664 653//665 683//698 682//697
f 653//665 654//666 684//699 683//698
f 654//666 655//667 685//700 684//699
f 655//667 656//668 686//701 685//700
f 656//668 657//669 687//702 686//701
f 657//669 658//670 688//703 687//702
f 658//670 659//671 689//704 688//703
f 659//671 660//672 690//705 689//704
f 660//672 661//673 691//706 690//705
f 661//673 662//674 692//707 691//706
f 662//674 633//646 663//676 692//707
f 663//708 664//709 694//710 693//708
f 664//709 665//711 695//712 694//710
f 665//711 666//713 696//714 695//712
f 666//713 667//715 697//715 696//714
f 667//683 668//682 698//716 697//716
f 668//717 669//717 699//717 698//717
f 669//718 670//718 700//718 699//718
f 670//719 671//720 701//721 700//719
f 671//720 672//722 702//723 701//721
f 672//722 673//724 703//725 702//723
f 673//724 674//726 704//727 703//725
f 674//726 675//728 705//729 704//727
f 675//728 676//730 706//731 705//729
f 676//730 677//732 707//733 706//731
f 677//732 678//734 708//735 707//733
f 678//734 679//694 709//736 708//735
f 679//694 680//695 710//737 709//736
f 680//695 681//696 711//738 710//737
f 681//696 682//697 712//739 711//738
f 682//697 683//698 713//740 712//739
f 683//698 684//699 714//741 713//740
f 684//699 685//700 715//742 714//741
f 685//700 686//701 716//743 715//742
f 686//701 687//702 717//744 716//743
f 687//702 688//703 718//745 717//744
f 688//703 689//704 719//746 718//745
f 689//704 690//705 720//747 719//746
f 690//705 691//706 721//748 720//747
f 691//706 692//707 722//749 721//748
f 692//707 663//750 693//750 722//749
f 333//751 332//752 693//752 694//753
f 334//754 333//751 694//753 695//755
f 335//756 334//754 695//755 696//757
f 336//758 335//756 696//757 697//758
f 337//759 336//759 697//759 698//759
f 338//760 337//761 698//761 699//762
f 339//763 338//760 699//762 700//764
f 340//765 339//763 700//764 701//766
f 341//767 340//765 701//766 702//768
f 342//769 341//767 702//768 703//770
f 343//771 342//769 703//770 704//772
f 344//773 343//771 704//772 705//774
f 345//775 344//773 705//774 706//776
f 346//777 345//775 706//776 707//778
f 347//779 346//777 707//778 708//780
f 348//781 347//779 708//780 709//782
f 349//783 348//781 709//782 710//784
f 350//785 349//783 710//784 711//786
f 351//787 350//785 711//786 712//788
f 352//789 351//787 712//788 713//789
f 353//790 352//789 713//789 714//790
f 354//791 353//790 714//790 715//792
f 355//793 354//791 715//792 716//794
f 356//795 355//793 716//794 717//795
f 357//796 356//795 717//795 718//796
f 358//797 357//796 718//796 719//797
f 359//798 358//797 719//797 720//798
f 360//799 359//798 720//798 721//800
f 361//801 360//799 721//800 722//801
f 332//802 361//802 722//802 693//802
