# Blender 4.3.2
# www.blender.org
mtllib mii_head_natural.mtl
o mii_head_natural
v 0.000000 0.094535 -0.088294
v -0.072937 0.094383 -0.006384
v -0.050626 0.131982 0.048905
v 0.020958 0.004809 0.030639
v 0.030643 0.151432 0.034180
v 0.023712 0.013409 -0.017087
v 0.030394 0.152600 -0.038825
v -0.050475 0.133823 -0.058518
v 0.000000 0.162767 0.044272
v 0.056392 0.094705 -0.066662
v 0.055278 0.094310 0.052655
v 0.047196 0.033977 -0.045403
v 0.049889 0.032164 0.051561
v -0.034774 0.011067 0.043455
v -0.038927 0.159725 -0.001805
v -0.025484 0.003657 0.007005
v -0.035850 0.019804 -0.029846
v 0.000000 0.011910 -0.021700
v 0.000000 0.164470 -0.047313
v 0.035851 0.019804 -0.029846
v 0.025485 0.003657 0.007005
v 0.038928 0.159725 -0.001805
v 0.034775 0.011067 0.043455
v 0.000000 0.000000 0.036299
v -0.049888 0.032164 0.051561
v 0.050476 0.133823 -0.058518
v 0.050627 0.131982 0.048905
v 0.000000 0.093886 0.072800
v 0.072938 0.094383 -0.006384
v -0.047195 0.033977 -0.045403
v -0.055277 0.094310 0.052655
v 0.053231 0.059531 -0.059407
v 0.053160 0.060302 0.052532
v -0.056391 0.094705 -0.066662
v -0.030393 0.152600 -0.038825
v 0.000000 0.035750 -0.060860
v 0.065461 0.033817 0.001570
v 0.000000 0.032739 0.067472
v -0.023711 0.013409 -0.017087
v 0.066650 0.132171 -0.004830
v 0.000000 0.131714 0.068803
v 0.000000 0.171290 -0.000678
v 0.070330 0.060613 -0.003398
v -0.030642 0.151432 0.034180
v -0.020957 0.004809 0.030639
v 0.046671 0.015209 0.005152
v -0.053230 0.059531 -0.059407
v -0.053159 0.060302 0.052532
v -0.065460 0.033817 0.001570
v 0.000000 0.134172 -0.078001
v -0.066649 0.132171 -0.004830
v 0.000000 0.001077 0.007656
v 0.000000 0.060425 0.071806
v -0.070329 0.060613 -0.003398
v 0.000000 0.059945 -0.078471
v 0.000000 0.021592 -0.042633
v -0.046670 0.015209 0.005152
v 0.000000 0.010235 0.057860
vn -0.0000 0.0003 -1.0000
vn -0.9992 0.0386 -0.0044
vn -0.6683 0.4216 0.6129
vn 0.2773 -0.9486 0.1524
vn 0.4565 0.7903 0.4087
vn 0.2017 -0.9152 -0.3488
vn 0.4401 0.8268 -0.3502
vn -0.6521 0.4926 -0.5763
vn -0.0000 0.8605 0.5095
vn 0.7237 0.0158 -0.6900
vn 0.7327 0.0495 0.6787
vn 0.5729 -0.6102 -0.5472
vn 0.6775 -0.3618 0.6404
vn -0.4740 -0.7520 0.4581
vn -0.5156 0.8566 0.0202
vn -0.2778 -0.9507 -0.1378
vn -0.3626 -0.8391 -0.4056
vn -0.0000 -0.9242 -0.3818
vn -0.0000 0.9003 -0.4353
vn 0.3626 -0.8391 -0.4056
vn 0.2778 -0.9507 -0.1378
vn 0.5156 0.8566 0.0202
vn 0.4740 -0.7520 0.4581
vn -0.0000 -0.9773 0.2119
vn -0.6775 -0.3618 0.6404
vn 0.6521 0.4926 -0.5763
vn 0.6683 0.4216 0.6129
vn -0.0000 0.0475 0.9989
vn 0.9992 0.0386 -0.0044
vn -0.5729 -0.6102 -0.5472
vn -0.7327 0.0495 0.6787
vn 0.6804 -0.3304 -0.6541
vn 0.7208 -0.0855 0.6879
vn -0.7237 0.0158 -0.6900
vn -0.4401 0.8268 -0.3502
vn -0.0000 -0.6682 -0.7440
vn 0.8891 -0.4575 -0.0140
vn -0.0000 -0.2863 0.9581
vn -0.2017 -0.9152 -0.3488
vn 0.8850 0.4656 0.0086
vn -0.0000 0.4065 0.9137
vn -0.0000 0.9997 0.0230
vn 0.9874 -0.1582 -0.0097
vn -0.4565 0.7903 0.4087
vn -0.2773 -0.9486 0.1524
vn 0.5857 -0.8080 -0.0641
vn -0.6804 -0.3304 -0.6541
vn -0.7208 -0.0855 0.6879
vn -0.8891 -0.4575 -0.0140
vn -0.0000 0.5142 -0.8577
vn -0.8850 0.4656 0.0086
vn -0.0000 -0.9851 -0.1721
vn -0.0000 -0.0704 0.9975
vn -0.9874 -0.1582 -0.0097
vn -0.0000 -0.3985 -0.9172
vn -0.0000 -0.8497 -0.5273
vn -0.5857 -0.8080 -0.0641
vn -0.0000 -0.7105 0.7037
vt 0.431359 0.500000
vt 0.431359 0.625000
vt 0.465639 0.625000
vt 0.465639 0.500000
vt 0.401345 0.500000
vt 0.399296 0.625000
vt 0.431360 0.750000
vt 0.465639 0.750000
vt 0.625000 0.500000
vt 0.642361 0.625000
vt 0.751736 0.625000
vt 0.750000 0.500000
vt 0.625000 0.750000
vt 0.750000 0.750000
vt 0.508882 0.750000
vt 0.508882 0.625000
vt 0.563610 0.375000
vt 0.625000 0.375000
vt 0.564044 0.500000
vt 0.508882 0.375000
vt 0.508882 0.500000
vt 0.565346 0.625000
vt 0.564044 0.750000
vt 0.563425 0.875000
vt 0.508142 0.875000
vt 0.625000 0.875000
vt 0.401345 0.750000
vt 0.402028 0.375000
vt 0.431359 0.375000
vt 0.250000 0.500000
vt 0.375000 0.500000
vt 0.347679 0.625000
vt 0.247268 0.625000
vt 0.375000 0.750000
vt 0.250000 0.750000
vt 0.375000 0.875000
vt 0.401964 0.875000
vt 0.465639 0.375000
vt 0.465390 0.875000
vt 0.431104 0.875000
vt 0.375000 0.375000
s 1
usemtl mii_skin
f 30/1/30 49/2/49 54/3/54 47/4/47
f 17/5/17 57/6/57 49/2/49 30/1/30
f 49/2/49 25/7/25 48/8/48 54/3/54
f 35/9/35 15/10/15 42/11/42 19/12/19
f 15/10/15 44/13/44 9/14/9 42/11/42
f 54/3/54 48/8/48 31/15/31 2/16/2
f 50/17/50 19/18/19 7/9/7 26/19/26
f 1/20/1 50/17/50 26/19/26 10/21/10
f 10/21/10 26/19/26 40/22/40 29/16/29
f 26/19/26 7/9/7 22/10/22 40/22/40
f 40/22/40 22/10/22 5/13/5 27/23/27
f 29/16/29 40/22/40 27/23/27 11/15/11
f 11/15/11 27/23/27 41/24/41 28/25/28
f 27/23/27 5/13/5 9/26/9 41/24/41
f 57/6/57 14/27/14 25/7/25 49/2/49
f 47/4/47 54/3/54 2/16/2 34/21/34
f 56/28/56 17/5/17 30/1/30 36/29/36
f 18/30/18 6/31/6 21/32/21 52/33/52
f 52/33/52 21/32/21 4/34/4 24/35/24
f 45/34/45 24/36/24 58/37/58 14/27/14
f 7/9/7 19/12/19 42/11/42 22/10/22
f 55/38/55 47/4/47 34/21/34 1/20/1
f 39/31/39 16/32/16 57/6/57 17/5/17
f 22/10/22 42/11/42 9/14/9 5/13/5
f 13/7/13 33/8/33 53/39/53 38/40/38
f 33/8/33 11/15/11 28/25/28 53/39/53
f 25/7/25 38/40/38 53/39/53 48/8/48
f 34/21/34 2/16/2 51/22/51 8/19/8
f 12/1/12 32/4/32 43/3/43 37/2/37
f 32/4/32 10/21/10 29/16/29 43/3/43
f 43/3/43 29/16/29 11/15/11 33/8/33
f 37/2/37 43/3/43 33/8/33 13/7/13
f 51/22/51 3/23/3 44/13/44 15/10/15
f 52/33/52 24/35/24 45/34/45 16/32/16
f 55/38/55 1/20/1 10/21/10 32/4/32
f 36/29/36 55/38/55 32/4/32 12/1/12
f 8/19/8 51/22/51 15/10/15 35/9/35
f 48/8/48 53/39/53 28/25/28 31/15/31
f 18/30/18 52/33/52 16/32/16 39/31/39
f 2/16/2 31/15/31 3/23/3 51/22/51
f 14/27/14 58/37/58 38/40/38 25/7/25
f 50/17/50 8/19/8 35/9/35 19/18/19
f 31/15/31 28/25/28 41/24/41 3/23/3
f 18/41/18 39/31/39 17/5/17 56/28/56
f 36/29/36 30/1/30 47/4/47 55/38/55
f 3/23/3 41/24/41 9/26/9 44/13/44
f 56/28/56 36/29/36 12/1/12 20/5/20
f 18/41/18 56/28/56 20/5/20 6/31/6
f 6/31/6 20/5/20 46/6/46 21/32/21
f 20/5/20 12/1/12 37/2/37 46/6/46
f 46/6/46 37/2/37 13/7/13 23/27/23
f 21/32/21 46/6/46 23/27/23 4/34/4
f 4/34/4 23/27/23 58/37/58 24/36/24
f 23/27/23 13/7/13 38/40/38 58/37/58
f 1/20/1 34/21/34 8/19/8 50/17/50
f 16/32/16 45/34/45 14/27/14 57/6/57
