# Blender 4.3.2
# www.blender.org
o hair.117
v 6.747344 0.207309 0.031026
v 6.745621 0.209284 0.033138
v 6.739700 0.220438 0.020891
v 6.750510 0.204920 0.024872
v 6.743863 0.211710 0.034355
v 6.751953 0.204439 0.021706
v 6.742117 0.214550 0.034573
v 6.753314 0.204334 0.018601
v 6.740503 0.217700 0.034181
v 6.739441 0.204343 0.007374
v 6.739321 0.200721 0.006280
v 6.753068 0.197100 0.016401
v 6.739144 0.221085 0.033372
v 6.736762 0.226621 0.017637
v 6.734355 0.220404 0.020926
v 6.739201 0.197100 0.005186
v 6.752829 0.189856 0.014213
v 6.737782 0.224557 0.032401
v 6.732518 0.221473 0.027682
v 6.729078 0.220404 0.020926
v 6.739534 0.198153 0.004001
v 6.753629 0.192384 0.011369
v 6.734200 0.221236 0.034513
v 6.730062 0.219310 0.028569
v 6.739868 0.199206 0.002816
v 6.754364 0.194702 0.008762
v 6.730691 0.217787 0.036415
v 6.727810 0.217492 0.029131
v 6.740202 0.200260 0.001631
v 6.754964 0.196598 0.006629
v 6.726542 0.214579 0.037337
v 6.725688 0.216056 0.029188
v 6.740535 0.201313 0.000446
v 6.755498 0.198283 0.004733
v 6.722298 0.211707 0.037451
v 6.723478 0.214853 0.028890
v 6.753291 0.193316 0.000107
v 6.738311 0.199324 -0.001722
v 6.718213 0.209409 0.036506
v 6.720631 0.213303 0.028504
v 6.715198 0.212366 0.022062
v 6.713442 0.212359 0.019776
v 6.717125 0.212650 0.024226
v 6.719319 0.213199 0.026166
v 6.750641 0.189185 -0.004380
v 6.736086 0.197336 -0.003891
v 6.714054 0.207525 0.034511
v 6.709560 0.205994 0.031407
v 6.705172 0.204895 0.027527
v 6.701318 0.204328 0.023199
v 6.697807 0.204314 0.018627
v 6.711705 0.204343 0.007374
v 6.698078 0.197100 0.016401
v 6.711825 0.200721 0.006280
v 6.698318 0.189856 0.014213
v 6.711945 0.197100 0.005186
v 6.697517 0.192384 0.011369
v 6.711612 0.198153 0.004001
v 6.696783 0.194702 0.008762
v 6.711278 0.199206 0.002816
v 6.696182 0.196598 0.006629
v 6.710944 0.200260 0.001631
v 6.695648 0.198283 0.004733
v 6.710610 0.201313 0.000446
v 6.697855 0.193315 0.000107
v 6.712835 0.199324 -0.001722
v 6.700504 0.189185 -0.004380
v 6.715060 0.197336 -0.003891
v 6.713746 0.201671 -0.026271
v 6.711329 0.204515 -0.028288
v 6.716187 0.199195 -0.028395
v 6.711238 0.204043 -0.024247
v 6.709777 0.205828 -0.025814
v 6.708499 0.209150 -0.026146
v 6.709803 0.207973 -0.029796
v 6.712294 0.206831 -0.032728
v 6.713706 0.203124 -0.030851
v 6.716510 0.202479 -0.032848
v 6.717341 0.199576 -0.030277
v 6.717381 0.197741 -0.027565
v 6.715182 0.198718 -0.025515
v 6.709418 0.206190 -0.023965
v 6.710733 0.205042 -0.022626
v 6.708930 0.211521 -0.030700
v 6.719740 0.199358 -0.031766
v 6.715490 0.205867 -0.034986
v 6.718997 0.205186 -0.036490
v 6.719391 0.202093 -0.034327
v 6.714105 0.198213 -0.022688
v 6.710166 0.205969 -0.021038
v 6.709042 0.207501 -0.023292
v 6.714947 0.209215 -0.036242
v 6.722468 0.201943 -0.035069
v 6.717258 0.196831 -0.024623
v 6.709212 0.208758 -0.021799
v 6.710409 0.206530 -0.020024
v 6.707774 0.212958 -0.027260
v 6.707871 0.214381 -0.024529
v 6.708516 0.211268 -0.023423
v 6.711534 0.210294 -0.033853
v 6.719955 0.197256 -0.029114
v 6.720433 0.195386 -0.026618
v 6.710645 0.207089 -0.019008
v 6.707397 0.216462 -0.027892
v 6.708670 0.215031 -0.031176
v 6.711195 0.213657 -0.034396
v 6.709157 0.212562 -0.021227
v 6.722583 0.199273 -0.032564
v 6.722747 0.197004 -0.029940
v 6.723018 0.195191 -0.026982
v 6.708503 0.218373 -0.031620
v 6.709693 0.209767 -0.020030
v 6.718699 0.208423 -0.037817
v 6.714654 0.212570 -0.036830
v 6.718458 0.211792 -0.038495
v 6.725573 0.199051 -0.032983
v 6.725573 0.196780 -0.030292
v 6.725573 0.194818 -0.027447
v 6.710454 0.210471 -0.018519
v 6.722207 0.208012 -0.038630
v 6.722343 0.204863 -0.037234
v 6.714353 0.216081 -0.037108
v 6.728399 0.197004 -0.029940
v 6.728128 0.195191 -0.026982
v 6.711370 0.207551 -0.017868
v 6.725573 0.204824 -0.037367
v 6.725573 0.201847 -0.035340
v 6.710929 0.217115 -0.034656
v 6.730713 0.195386 -0.026618
v 6.712094 0.208013 -0.016727
v 6.728678 0.201943 -0.035069
v 6.728563 0.199273 -0.032564
v 6.708684 0.221297 -0.031931
v 6.710755 0.220490 -0.034594
v 6.707187 0.219624 -0.028618
v 6.733765 0.197741 -0.027565
v 6.733888 0.196831 -0.024623
v 6.731190 0.197256 -0.029114
v 6.711842 0.210977 -0.017466
v 6.731406 0.199358 -0.031766
v 6.707124 0.220647 -0.026291
v 6.707348 0.217661 -0.025399
v 6.707221 0.222835 -0.028977
v 6.737041 0.198214 -0.022687
v 6.711589 0.213942 -0.018204
v 6.708179 0.218689 -0.023329
v 6.708607 0.215627 -0.022305
v 6.708766 0.225421 -0.031548
v 6.710694 0.223535 -0.034135
v 6.735963 0.198718 -0.025515
v 6.709670 0.216575 -0.020341
v 6.710055 0.213429 -0.019437
v 6.711407 0.217336 -0.018797
v 6.708469 0.239777 -0.034140
v 6.711222 0.227937 -0.033551
v 6.713976 0.222998 -0.036285
v 6.713879 0.225760 -0.035616
v 6.714115 0.219626 -0.036957
v 6.734960 0.199195 -0.028395
v 6.711225 0.220729 -0.019391
v 6.709436 0.219601 -0.021301
v 6.714054 0.229931 -0.034700
v 6.707317 0.225899 -0.028185
v 6.707466 0.228936 -0.027390
v 6.707069 0.223182 -0.027204
v 6.718002 0.225836 -0.037242
v 6.717990 0.218886 -0.038808
v 6.709516 0.222059 -0.022334
v 6.707770 0.221465 -0.024227
v 6.716985 0.242739 -0.035924
v 6.718066 0.230639 -0.035687
v 6.707503 0.226437 -0.026121
v 6.709916 0.229496 -0.025625
v 6.707519 0.223975 -0.025184
v 6.717913 0.222292 -0.038205
v 6.721909 0.231513 -0.036619
v 6.709666 0.226947 -0.024297
v 6.712368 0.229854 -0.024274
v 6.714361 0.235810 -0.028869
v 6.709501 0.224412 -0.023191
v 6.721765 0.221875 -0.039309
v 6.725573 0.243771 -0.036646
v 6.725573 0.231400 -0.036653
v 6.725573 0.225470 -0.038712
v 6.721786 0.224878 -0.038553
v 6.719338 0.230360 -0.023350
v 6.715742 0.230297 -0.023517
v 6.712048 0.224904 -0.021437
v 6.729051 0.231534 -0.036638
v 6.721786 0.237556 -0.030431
v 6.715552 0.227537 -0.021438
v 6.712262 0.227360 -0.022748
v 6.711870 0.222610 -0.020572
v 6.734161 0.242739 -0.035924
v 6.733079 0.230639 -0.035687
v 6.733144 0.225836 -0.037242
v 6.729361 0.224878 -0.038553
v 6.715144 0.223072 -0.019473
v 6.714989 0.221139 -0.018547
v 6.736902 0.230009 -0.034750
v 6.729382 0.221875 -0.039309
v 6.733233 0.222292 -0.038205
v 6.737170 0.222998 -0.036285
v 6.737267 0.225760 -0.035616
v 6.725573 0.221741 -0.039655
v 6.715382 0.225030 -0.020342
v 6.718871 0.220984 -0.018063
v 6.739861 0.227964 -0.033568
v 6.742676 0.239777 -0.034140
v 6.733156 0.218886 -0.038808
v 6.740452 0.223535 -0.034135
v 6.725573 0.218333 -0.040171
v 6.721799 0.218464 -0.039852
v 6.719117 0.224611 -0.019961
v 6.719083 0.227605 -0.021293
v 6.718897 0.223028 -0.019050
v 6.742119 0.225801 -0.031905
v 6.740390 0.220490 -0.034594
v 6.742461 0.221297 -0.031931
v 6.721911 0.214882 -0.039878
v 6.718191 0.215318 -0.038876
v 6.722345 0.227693 -0.021168
v 6.722311 0.224559 -0.019641
v 6.722452 0.230427 -0.023313
v 6.743925 0.222835 -0.028977
v 6.737031 0.219626 -0.036957
v 6.725560 0.224682 -0.019495
v 6.725542 0.227883 -0.021119
v 6.725573 0.230495 -0.023265
v 6.725574 0.237192 -0.029896
v 6.743829 0.225903 -0.028184
v 6.743613 0.228929 -0.027413
v 6.736794 0.216081 -0.037108
v 6.722063 0.211346 -0.039441
v 6.728745 0.227895 -0.021064
v 6.728763 0.224661 -0.019512
v 6.729353 0.237556 -0.030431
v 6.741230 0.229501 -0.025618
v 6.743674 0.226444 -0.026132
v 6.744077 0.223181 -0.027211
v 6.725573 0.211207 -0.039739
v 6.725573 0.207900 -0.038854
v 6.725573 0.214746 -0.040188
v 6.732025 0.224973 -0.019618
v 6.741518 0.227321 -0.024276
v 6.743642 0.224134 -0.025211
v 6.736780 0.235814 -0.028870
v 6.738785 0.229844 -0.024116
v 6.728939 0.208012 -0.038630
v 6.728803 0.204863 -0.037234
v 6.729235 0.214882 -0.039878
v 6.731810 0.230354 -0.023341
v 6.735404 0.230303 -0.023508
v 6.735631 0.228109 -0.021362
v 6.738896 0.227827 -0.022587
v 6.732149 0.205186 -0.036490
v 6.731755 0.202093 -0.034327
v 6.729084 0.211346 -0.039441
v 6.739066 0.225852 -0.021542
v 6.741676 0.225125 -0.023217
v 6.734636 0.202479 -0.032848
v 6.733805 0.199576 -0.030277
v 6.732688 0.211792 -0.038495
v 6.732448 0.208423 -0.037817
v 6.728695 0.230434 -0.023312
v 6.741646 0.222515 -0.022340
v 6.743382 0.221578 -0.024236
v 6.736198 0.209215 -0.036242
v 6.735656 0.205867 -0.034986
v 6.731919 0.228003 -0.021025
v 6.744022 0.220646 -0.026292
v 6.742994 0.218717 -0.023318
v 6.739817 0.204515 -0.028288
v 6.737400 0.201671 -0.026271
v 6.737440 0.203124 -0.030851
v 6.738852 0.206831 -0.032728
v 6.735858 0.225843 -0.020057
v 6.743959 0.219624 -0.028618
v 6.739908 0.204043 -0.024247
v 6.739613 0.210294 -0.033853
v 6.742216 0.211521 -0.030700
v 6.741343 0.207973 -0.029796
v 6.736084 0.223491 -0.019201
v 6.732300 0.223236 -0.018878
v 6.739298 0.223389 -0.020534
v 6.742643 0.218373 -0.031620
v 6.736492 0.212570 -0.036830
v 6.739951 0.213657 -0.034396
v 6.742860 0.209084 -0.026172
v 6.732331 0.221265 -0.018251
v 6.739921 0.220729 -0.019390
v 6.741712 0.219706 -0.021298
v 6.740216 0.217115 -0.034656
v 6.732955 0.215318 -0.038876
v 6.741369 0.205828 -0.025814
v 6.736224 0.221289 -0.018316
v 6.741490 0.216576 -0.020330
v 6.739739 0.217336 -0.018797
v 6.729347 0.218464 -0.039852
v 6.741834 0.206125 -0.023969
v 6.740461 0.205006 -0.022624
v 6.739557 0.213942 -0.018204
v 6.742476 0.215031 -0.031176
v 6.743955 0.216432 -0.027922
v 6.742373 0.207410 -0.023272
v 6.741072 0.205933 -0.021016
v 6.741119 0.213432 -0.019414
v 6.740692 0.210471 -0.018519
v 6.739305 0.210977 -0.017466
v 6.743698 0.212887 -0.027299
v 6.742196 0.208714 -0.021732
v 6.740780 0.206520 -0.020009
v 6.742203 0.212555 -0.021140
v 6.742733 0.215624 -0.022219
v 6.739052 0.208013 -0.016727
v 6.743938 0.217654 -0.025370
v 6.743729 0.214326 -0.024439
v 6.743025 0.211217 -0.023350
v 6.740508 0.207088 -0.019005
v 6.739777 0.207551 -0.017868
v 6.741525 0.209760 -0.019998
v 6.708469 0.239777 -0.034140
v 6.714361 0.235810 -0.028869
v 6.714054 0.229931 -0.034700
v 6.716985 0.242739 -0.035924
v 6.721786 0.237556 -0.030431
v 6.721909 0.231513 -0.036619
v 6.725573 0.243771 -0.036646
v 6.729353 0.237556 -0.030431
v 6.729051 0.231534 -0.036638
v 6.734161 0.242739 -0.035924
v 6.736902 0.230009 -0.034750
v 6.736780 0.235814 -0.028870
v 6.742676 0.239777 -0.034140
v 6.709455 0.187406 -0.021019
v 6.706367 0.185348 -0.014663
v 6.705358 0.190002 -0.017875
v 6.710278 0.182762 -0.017321
v 6.714463 0.185695 -0.023137
v 6.714934 0.181134 -0.019107
v 6.708898 0.192323 -0.024396
v 6.704687 0.194889 -0.020820
v 6.701796 0.193223 -0.014177
v 6.701254 0.197848 -0.016834
v 6.711854 0.178196 -0.013207
v 6.720034 0.180125 -0.020232
v 6.719860 0.184626 -0.024472
v 6.714171 0.190560 -0.026807
v 6.715860 0.176881 -0.014444
v 6.720377 0.176100 -0.015236
v 6.705071 0.199491 -0.023068
v 6.708242 0.180533 -0.011271
v 6.725573 0.184233 -0.024913
v 6.725573 0.179741 -0.020566
v 6.719779 0.189449 -0.028332
v 6.714357 0.195596 -0.029205
v 6.725573 0.175774 -0.015394
v 6.704383 0.184224 -0.008254
v 6.702724 0.188787 -0.011306
v 6.731285 0.184626 -0.024472
v 6.731112 0.180125 -0.020232
v 6.730769 0.176100 -0.015236
v 6.709200 0.197203 -0.026759
v 6.699478 0.193032 -0.007288
v 6.700504 0.189185 -0.004380
v 6.698882 0.196998 -0.009951
v 6.736688 0.185700 -0.023142
v 6.736217 0.181137 -0.019111
v 6.735286 0.176881 -0.014444
v 6.709818 0.201989 -0.028178
v 6.697855 0.193315 0.000107
v 6.697214 0.196948 -0.002757
v 6.696902 0.200648 -0.005392
v 6.697040 0.204435 -0.007916
v 6.698709 0.201102 -0.012452
v 6.740889 0.182778 -0.017339
v 6.741712 0.187424 -0.021042
v 6.739293 0.178196 -0.013207
v 6.695648 0.198283 0.004733
v 6.695547 0.201270 0.001841
v 6.695612 0.204499 -0.000824
v 6.699152 0.205202 -0.014473
v 6.742904 0.180533 -0.011271
v 6.745012 0.185258 -0.014829
v 6.746126 0.189889 -0.018138
v 6.742276 0.192347 -0.024421
v 6.746903 0.194758 -0.021180
v 6.695271 0.204517 0.005263
v 6.695359 0.207754 0.003033
v 6.701667 0.202210 -0.018934
v 6.748487 0.188788 -0.011341
v 6.749437 0.193227 -0.014221
v 6.746763 0.184224 -0.008254
v 6.749996 0.197854 -0.016895
v 6.736981 0.190566 -0.026813
v 6.746470 0.199412 -0.023434
v 6.702556 0.206529 -0.020435
v 6.705855 0.204033 -0.024521
v 6.752271 0.197004 -0.009954
v 6.752445 0.201109 -0.012457
v 6.750641 0.189185 -0.004380
v 6.731367 0.189449 -0.028332
v 6.736790 0.195598 -0.029207
v 6.706759 0.208358 -0.025463
v 6.754243 0.200647 -0.005392
v 6.751673 0.193037 -0.007292
v 6.754107 0.204434 -0.007916
v 6.753931 0.196948 -0.002757
v 6.753291 0.193316 0.000107
v 6.725573 0.189055 -0.028874
v 6.741951 0.197211 -0.026767
v 6.755548 0.204499 -0.000824
v 6.755029 0.207758 -0.003427
v 6.753546 0.208234 -0.010026
v 6.754345 0.211268 -0.005650
v 6.755605 0.201270 0.001843
v 6.755498 0.198283 0.004733
v 6.725573 0.194238 -0.031246
v 6.741327 0.201990 -0.028179
v 6.755331 0.210987 0.000823
v 6.755898 0.207760 0.003055
v 6.751996 0.205204 -0.014474
v 6.755898 0.201348 0.007497
v 6.755997 0.204514 0.005302
v 6.755514 0.198798 0.009102
v 6.754964 0.196598 0.006629
v 6.731277 0.194591 -0.030720
v 6.755781 0.207557 0.008771
v 6.755651 0.210857 0.006830
v 6.755056 0.214097 0.004855
v 6.749560 0.202209 -0.018986
v 6.755704 0.204193 0.010574
v 6.754364 0.194702 0.008762
v 6.731102 0.199477 -0.032093
v 6.755144 0.210650 0.012234
v 6.754924 0.213903 0.010490
v 6.754248 0.217062 0.008674
v 6.754296 0.217176 0.002736
v 6.748675 0.206532 -0.020496
v 6.754853 0.196153 0.010069
v 6.753629 0.192384 0.011369
v 6.736397 0.200485 -0.030602
v 6.754601 0.214266 -0.001386
v 6.752518 0.211979 -0.011812
v 6.751050 0.209263 -0.016085
v 6.754034 0.194259 0.013455
v 6.754803 0.198330 0.012560
v 6.752829 0.189856 0.014213
v 6.735962 0.205077 -0.031377
v 6.753508 0.217451 -0.003423
v 6.753251 0.214698 -0.007604
v 6.749873 0.213161 -0.017374
v 6.754352 0.201297 0.015485
v 6.753068 0.197100 0.016401
v 6.755342 0.201272 0.011719
v 6.753409 0.219933 0.006659
v 6.752246 0.222662 0.004528
v 6.753201 0.220144 0.000657
v 6.751910 0.218032 -0.009366
v 6.753314 0.204334 0.018601
v 6.754867 0.204170 0.014788
v 6.752265 0.222320 0.010038
v 6.753190 0.219667 0.011991
v 6.751900 0.223002 -0.001417
v 6.751240 0.215599 -0.013342
v 6.752177 0.220539 -0.005358
v 6.755158 0.207243 0.013829
v 6.750965 0.223427 0.016675
v 6.753968 0.216674 0.013759
v 6.754301 0.213548 0.015420
v 6.749583 0.218965 -0.014562
v 6.750391 0.223420 -0.007193
v 6.754438 0.210220 0.016955
v 6.751853 0.220899 0.018646
v 6.752357 0.218221 0.020454
v 6.750137 0.221166 -0.010922
v 6.750171 0.225616 -0.003494
v 6.748014 0.223932 -0.012178
v 6.748225 0.225922 -0.008796
v 6.748049 0.227839 -0.005426
v 6.752686 0.215303 0.022145
v 6.754234 0.207130 0.017937
v 6.749300 0.227615 0.000001
v 6.750931 0.225271 0.002303
v 6.745990 0.228045 -0.010137
v 6.752625 0.212293 0.023467
v 6.749484 0.219798 0.026741
v 6.752115 0.209532 0.024387
v 6.751290 0.206607 0.024902
v 6.751953 0.204439 0.021706
v 6.749631 0.227138 0.005480
v 6.750962 0.224771 0.007842
v 6.749501 0.216975 0.028312
v 6.749216 0.213936 0.029578
v 6.748666 0.224513 0.022962
v 6.749152 0.222275 0.024907
v 6.750510 0.204920 0.024872
v 6.748783 0.227697 0.012311
v 6.749973 0.225609 0.014610
v 6.747161 0.218698 0.030308
v 6.747824 0.226487 0.020793
v 6.746709 0.223791 0.026757
v 6.743658 0.227212 0.026448
v 6.743024 0.229008 0.024184
v 6.747344 0.207309 0.031026
v 6.746930 0.228245 0.018592
v 6.747040 0.221456 0.028659
v 6.744032 0.225096 0.028422
v 6.741051 0.226018 0.029700
v 6.736972 0.228864 0.028850
v 6.736455 0.230587 0.026675
v 6.742397 0.230678 0.021963
v 6.748450 0.210607 0.030437
v 6.745621 0.209284 0.033138
v 6.745874 0.229926 0.016195
v 6.741555 0.232092 0.019396
v 6.744443 0.222806 0.030281
v 6.736091 0.232173 0.024468
v 6.731377 0.231265 0.027608
v 6.735671 0.233426 0.021928
v 6.746519 0.212371 0.032619
v 6.747070 0.215722 0.031659
v 6.743863 0.211710 0.034355
v 6.747499 0.229727 0.009786
v 6.744719 0.231637 0.013550
v 6.740590 0.233473 0.016545
v 6.731185 0.232774 0.025360
v 6.730978 0.233977 0.022836
v 6.735174 0.234648 0.019078
v 6.744421 0.213725 0.033917
v 6.744824 0.217070 0.033186
v 6.742117 0.214550 0.034573
v 6.748083 0.229238 0.002986
v 6.745944 0.231499 0.007008
v 6.725612 0.233280 0.025896
v 6.742082 0.217700 0.034054
v 6.744821 0.220049 0.032010
v 6.740503 0.217700 0.034181
v 6.747339 0.229577 -0.002239
v 6.746277 0.230976 0.000495
v 6.743293 0.233196 0.010532
v 6.744152 0.232944 0.004139
v 6.741763 0.220775 0.033117
v 6.739144 0.221085 0.033372
v 6.741387 0.223760 0.031585
v 6.745802 0.229709 -0.007138
v 6.745250 0.231241 -0.004308
v 6.741643 0.234474 0.007324
v 6.742332 0.234243 0.001334
v 6.737782 0.224557 0.032401
v 6.743339 0.231247 -0.008694
v 6.742913 0.232588 -0.006247
v 6.742173 0.233616 -0.004112
v 6.744376 0.232480 -0.001872
v 6.739417 0.234744 0.013335
v 6.737335 0.226800 0.030687
v 6.740258 0.233594 -0.008073
v 6.734471 0.235822 0.015774
v 6.738082 0.235760 0.009898
v 6.731516 0.229504 0.029922
v 6.731569 0.227398 0.031881
v 6.730347 0.236213 0.016546
v 6.733630 0.236736 0.012160
v 6.736736 0.236651 0.006414
v 6.739944 0.235607 0.004127
v 6.730724 0.235117 0.019967
v 6.731533 0.225021 0.033781
v 6.731224 0.221654 0.035529
v 6.734200 0.221236 0.034513
v 6.725605 0.231812 0.028218
v 6.740338 0.235240 -0.001376
v 6.738146 0.236427 0.001007
v 6.725624 0.235508 0.020422
v 6.725621 0.234454 0.023345
v 6.730691 0.217787 0.036415
v 6.719813 0.231517 0.027934
v 6.725570 0.230009 0.030605
v 6.736240 0.236769 -0.001934
v 6.738083 0.235777 -0.003925
v 6.739666 0.234488 -0.006242
v 6.720280 0.234256 0.023072
v 6.724308 0.218222 0.037412
v 6.726542 0.214579 0.037337
v 6.725529 0.227855 0.032627
v 6.725461 0.225374 0.034574
v 6.736975 0.235038 -0.008215
v 6.737453 0.234313 -0.009724
v 6.720030 0.233042 0.025626
v 6.725082 0.221914 0.036262
v 6.722995 0.214357 0.037727
v 6.722298 0.211707 0.037451
v 6.719464 0.227406 0.032209
v 6.719594 0.229632 0.030253
v 6.714507 0.232137 0.024371
v 6.719262 0.221429 0.035610
v 6.718213 0.209409 0.036506
v 6.719366 0.224856 0.034064
v 6.713463 0.226206 0.030752
v 6.713681 0.228515 0.028872
v 6.719011 0.217598 0.036686
v 6.718509 0.213159 0.036878
v 6.714054 0.207525 0.034511
v 6.713314 0.223593 0.032514
v 6.707536 0.221500 0.029854
v 6.707671 0.224187 0.028119
v 6.714082 0.230504 0.026648
v 6.713185 0.216474 0.034949
v 6.713519 0.211655 0.034977
v 6.709560 0.205994 0.031407
v 6.713191 0.220300 0.033986
v 6.707532 0.218335 0.031244
v 6.702729 0.221340 0.024528
v 6.702627 0.218522 0.026231
v 6.707933 0.226568 0.026259
v 6.708469 0.228660 0.024095
v 6.707775 0.214685 0.032102
v 6.708579 0.209996 0.031991
v 6.704445 0.207473 0.028371
v 6.705172 0.204895 0.027527
v 6.702762 0.215451 0.027528
v 6.703225 0.212196 0.028397
v 6.699372 0.211600 0.023013
v 6.699223 0.214647 0.021837
v 6.703009 0.223863 0.022704
v 6.709110 0.230394 0.021831
v 6.703642 0.226145 0.020633
v 6.701318 0.204328 0.023199
v 6.699742 0.208435 0.023527
v 6.697390 0.210608 0.017349
v 6.697536 0.207586 0.018384
v 6.697807 0.204314 0.018627
v 6.699319 0.217692 0.020232
v 6.715026 0.233469 0.021805
v 6.709944 0.231933 0.019246
v 6.704454 0.228081 0.018429
v 6.696529 0.204181 0.014641
v 6.696929 0.201313 0.015403
v 6.698078 0.197100 0.016401
v 6.697447 0.213857 0.015832
v 6.699601 0.220509 0.018519
v 6.720558 0.235335 0.020146
v 6.715618 0.234652 0.018893
v 6.697164 0.194450 0.013378
v 6.696545 0.198345 0.012474
v 6.696096 0.201282 0.011600
v 6.698318 0.189856 0.014213
v 6.696228 0.210570 0.012104
v 6.697691 0.216950 0.014208
v 6.700296 0.223143 0.016628
v 6.720890 0.236251 0.016617
v 6.697517 0.192384 0.011369
v 6.696406 0.196157 0.010028
v 6.695817 0.198818 0.009052
v 6.695756 0.204184 0.010448
v 6.696297 0.207204 0.013666
v 6.696409 0.213814 0.010405
v 6.698376 0.219913 0.012463
v 6.696783 0.194702 0.008762
v 6.695439 0.201358 0.007443
v 6.696182 0.196598 0.006629
v 6.695573 0.207534 0.008677
v 6.695681 0.210818 0.006769
v 6.697045 0.216964 0.008627
v 6.699193 0.222608 0.010543
v 6.696253 0.214043 0.004826
v 6.697875 0.219866 0.006656
v 6.697073 0.217105 0.002735
v 6.701155 0.225471 0.014581
v 6.702315 0.227653 0.012186
v 6.700281 0.225113 0.008330
v 6.698906 0.222621 0.004538
v 6.695916 0.210968 0.000814
v 6.698068 0.220087 0.000666
v 6.696696 0.214228 -0.001377
v 6.697737 0.217419 -0.003410
v 6.705544 0.229910 0.015879
v 6.701600 0.227439 0.005916
v 6.700104 0.225258 0.002305
v 6.699244 0.222978 -0.001417
v 6.696838 0.211261 -0.005644
v 6.696142 0.207756 -0.003427
v 6.710922 0.233342 0.016356
v 6.706847 0.231612 0.013067
v 6.701761 0.227622 -0.000000
v 6.697599 0.208235 -0.010025
v 6.698627 0.211979 -0.011811
v 6.697919 0.214691 -0.007597
v 6.716329 0.235658 0.015479
v 6.712075 0.234546 0.013121
v 6.703731 0.229654 0.009550
v 6.699241 0.218029 -0.009362
v 6.698990 0.220526 -0.005351
v 6.700096 0.209263 -0.016085
v 6.717104 0.236576 0.011832
v 6.705433 0.231361 0.006773
v 6.703239 0.229513 0.003390
v 6.700754 0.223417 -0.007193
v 6.700952 0.225612 -0.003500
v 6.701274 0.213161 -0.017375
v 6.703627 0.210657 -0.021518
v 6.708372 0.233066 0.010051
v 6.705139 0.231236 0.000872
v 6.703799 0.229585 -0.002234
v 6.703093 0.227838 -0.005429
v 6.699906 0.215599 -0.013341
v 6.704901 0.214452 -0.022158
v 6.713286 0.235634 0.009728
v 6.709946 0.234370 0.006968
v 6.705934 0.231248 -0.004300
v 6.701563 0.218965 -0.014562
v 6.701009 0.221166 -0.010922
v 6.714525 0.236554 0.006322
v 6.707209 0.232867 0.003978
v 6.711502 0.235508 0.003917
v 6.708981 0.234187 0.001257
v 6.703132 0.223932 -0.012178
v 6.702921 0.225921 -0.008797
v 6.702752 0.216744 -0.018268
v 6.713164 0.236332 0.000917
v 6.710913 0.235194 -0.001391
v 6.709239 0.233904 -0.003823
v 6.707084 0.232723 -0.001528
v 6.705155 0.228044 -0.010138
v 6.705352 0.229708 -0.007140
v 6.704599 0.219943 -0.018766
v 6.713116 0.235764 -0.003930
v 6.708286 0.232593 -0.006238
v 6.711714 0.234702 -0.005998
v 6.710925 0.233598 -0.008069
v 6.707819 0.231245 -0.008695
v 6.703580 0.221954 -0.015435
v 6.706514 0.217864 -0.022348
v 6.708384 0.220924 -0.022269
v 6.713712 0.234316 -0.009721
v 6.714351 0.235203 -0.008020
v 6.710537 0.232467 -0.010153
v 6.713391 0.233412 -0.011415
v 6.707596 0.229831 -0.011280
v 6.710333 0.231313 -0.012282
v 6.709215 0.215934 -0.025793
v 6.707789 0.212355 -0.025939
v 6.716827 0.234884 -0.011416
v 6.716582 0.234253 -0.012687
v 6.713217 0.232501 -0.013095
v 6.716443 0.233630 -0.013888
v 6.707661 0.228371 -0.013893
v 6.705288 0.226317 -0.013156
v 6.711339 0.210667 -0.029317
v 6.710528 0.206503 -0.029008
v 6.720168 0.234667 -0.013732
v 6.720088 0.234294 -0.014445
v 6.713244 0.231562 -0.014795
v 6.716453 0.232987 -0.015106
v 6.705703 0.224583 -0.016054
v 6.715184 0.205077 -0.031377
v 6.714748 0.200484 -0.030601
v 6.720334 0.235054 -0.012979
v 6.725609 0.234799 -0.015081
v 6.720077 0.233897 -0.015171
v 6.710377 0.230126 -0.014430
v 6.706653 0.222800 -0.019029
v 6.720045 0.199477 -0.032093
v 6.719868 0.194591 -0.030720
v 6.717296 0.235503 -0.010121
v 6.720602 0.235442 -0.012205
v 6.720216 0.233479 -0.015969
v 6.708957 0.225351 -0.019037
v 6.715468 0.236048 -0.006339
v 6.718098 0.236085 -0.008865
v 6.721096 0.235820 -0.011479
v 6.716659 0.232292 -0.016425
v 6.720481 0.233015 -0.016849
v 6.708062 0.226894 -0.016424
v 6.725573 0.199095 -0.032612
v 6.715012 0.236710 -0.001979
v 6.717130 0.231547 -0.017842
v 6.720996 0.232529 -0.017725
v 6.713529 0.230579 -0.016534
v 6.710733 0.228905 -0.016554
v 6.725573 0.203520 -0.033164
v 6.730990 0.204093 -0.032845
v 6.716983 0.236816 -0.004761
v 6.717934 0.230754 -0.019347
v 6.721652 0.232062 -0.018573
v 6.711513 0.227616 -0.018779
v 6.714163 0.229534 -0.018373
v 6.731009 0.208449 -0.033002
v 6.719190 0.236630 -0.007693
v 6.718827 0.237475 -0.003356
v 6.717292 0.237471 -0.000249
v 6.719048 0.230029 -0.020760
v 6.722506 0.231721 -0.019215
v 6.712827 0.226221 -0.021234
v 6.715237 0.228412 -0.020372
v 6.720546 0.237149 -0.006641
v 6.721725 0.236181 -0.010778
v 6.720436 0.229493 -0.021891
v 6.723453 0.231484 -0.019710
v 6.710503 0.223693 -0.021900
v 6.720924 0.237997 -0.002249
v 6.722106 0.237578 -0.005806
v 6.722553 0.236499 -0.010174
v 6.715852 0.237193 0.002968
v 6.712658 0.222122 -0.024715
v 6.710835 0.219152 -0.025412
v 6.719870 0.238054 0.001108
v 6.723480 0.236763 -0.009654
v 6.717952 0.237321 0.008166
v 6.718877 0.237825 0.004562
v 6.714651 0.224918 -0.023638
v 6.716726 0.227371 -0.022299
v 6.713925 0.217682 -0.028092
v 6.712535 0.214397 -0.028850
v 6.722663 0.238466 0.001941
v 6.721687 0.237808 0.009142
v 6.722157 0.238276 0.005502
v 6.721262 0.237106 0.012847
v 6.716323 0.213117 -0.030991
v 6.715651 0.209334 -0.031588
v 6.723201 0.238349 -0.001571
v 6.725573 0.238456 0.005810
v 6.725580 0.237266 0.013078
v 6.720138 0.208449 -0.033002
v 6.720156 0.204093 -0.032845
v 6.723805 0.237850 -0.005295
v 6.725573 0.238630 0.002225
v 6.725573 0.237982 0.009413
v 6.718584 0.226582 -0.023903
v 6.724513 0.236920 -0.009378
v 6.725573 0.238482 -0.001339
v 6.729451 0.237809 0.009143
v 6.728982 0.238276 0.005503
v 6.728478 0.238467 0.001941
v 6.716927 0.223917 -0.025683
v 6.726350 0.207808 -0.033014
v 6.724796 0.207808 -0.033014
v 6.731899 0.237931 0.004805
v 6.727941 0.238349 -0.001570
v 6.722047 0.229166 -0.022681
v 6.715355 0.220845 -0.027164
v 6.727082 0.212070 -0.032673
v 6.719995 0.212189 -0.032331
v 6.724064 0.212070 -0.032673
v 6.719666 0.222734 -0.027140
v 6.720733 0.226174 -0.025118
v 6.723787 0.229054 -0.023063
v 6.724499 0.231418 -0.019922
v 6.718546 0.219422 -0.029335
v 6.717053 0.216329 -0.030157
v 6.719572 0.214946 -0.031438
v 6.721311 0.215737 -0.030929
v 6.723153 0.226174 -0.025288
v 6.725573 0.229053 -0.023149
v 6.725573 0.226174 -0.025459
v 6.725573 0.231402 -0.020007
v 6.727359 0.229054 -0.023063
v 6.726651 0.231418 -0.019921
v 6.727993 0.226174 -0.025288
v 6.729099 0.229166 -0.022681
v 6.730413 0.226174 -0.025118
v 6.727693 0.231484 -0.019710
v 6.731480 0.222734 -0.027140
v 6.730710 0.229493 -0.021891
v 6.728643 0.231723 -0.019214
v 6.734220 0.223917 -0.025683
v 6.732600 0.219422 -0.029335
v 6.732562 0.226582 -0.023903
v 6.734420 0.227371 -0.022299
v 6.732098 0.230029 -0.020760
v 6.729495 0.232062 -0.018573
v 6.735790 0.220845 -0.027164
v 6.736495 0.224918 -0.023638
v 6.738488 0.222122 -0.024715
v 6.737221 0.217682 -0.028092
v 6.734093 0.216329 -0.030157
v 6.731574 0.214946 -0.031438
v 6.729835 0.215737 -0.030929
v 6.735909 0.228412 -0.020372
v 6.738319 0.226221 -0.021234
v 6.733212 0.230754 -0.019347
v 6.730152 0.232530 -0.017723
v 6.738611 0.214397 -0.028850
v 6.734822 0.213117 -0.030991
v 6.731150 0.212189 -0.032331
v 6.736983 0.229534 -0.018373
v 6.734016 0.231547 -0.017842
v 6.730665 0.233015 -0.016849
v 6.739803 0.210667 -0.029320
v 6.742102 0.216013 -0.026008
v 6.735495 0.209334 -0.031588
v 6.734487 0.232292 -0.016425
v 6.737617 0.230579 -0.016534
v 6.739634 0.227616 -0.018779
v 6.730933 0.233489 -0.015974
v 6.740314 0.219155 -0.025417
v 6.737902 0.231562 -0.014794
v 6.734693 0.232987 -0.015106
v 6.740769 0.230126 -0.014430
v 6.740413 0.228905 -0.016554
v 6.742189 0.225351 -0.019037
v 6.740644 0.223693 -0.021900
v 6.731075 0.233919 -0.015183
v 6.742762 0.220924 -0.022269
v 6.740613 0.206502 -0.029011
v 6.743485 0.228371 -0.013893
v 6.740812 0.231314 -0.012280
v 6.743084 0.226894 -0.016424
v 6.731063 0.234316 -0.014456
v 6.734704 0.233631 -0.013887
v 6.744709 0.208385 -0.025819
v 6.745647 0.204013 -0.024886
v 6.743645 0.212423 -0.026275
v 6.745443 0.224583 -0.016054
v 6.734565 0.234253 -0.012685
v 6.730987 0.234703 -0.013749
v 6.737760 0.233413 -0.011413
v 6.737929 0.232501 -0.013094
v 6.746374 0.214491 -0.022261
v 6.744493 0.222800 -0.019029
v 6.734322 0.234881 -0.011417
v 6.730828 0.235089 -0.012997
v 6.740617 0.232468 -0.010151
v 6.747626 0.210674 -0.021595
v 6.744658 0.217876 -0.022373
v 6.746547 0.219943 -0.018766
v 6.743549 0.229833 -0.011278
v 6.748394 0.216745 -0.018267
v 6.733970 0.235412 -0.010272
v 6.735712 0.236037 -0.006324
v 6.745857 0.226317 -0.013155
v 6.747566 0.221954 -0.015435
v 6.730625 0.235416 -0.012309
v 6.733079 0.236129 -0.008865
v 6.734250 0.236848 -0.004725
v 6.730099 0.235845 -0.011459
v 6.732023 0.236635 -0.007665
v 6.733866 0.237519 -0.000255
v 6.732327 0.237498 -0.003361
v 6.729462 0.236178 -0.010760
v 6.730604 0.237147 -0.006644
v 6.730960 0.238147 0.001312
v 6.735336 0.237279 0.002987
v 6.729964 0.238078 -0.002083
v 6.728613 0.236503 -0.010154
v 6.728847 0.237642 -0.005681
v 6.732782 0.237453 0.008463
v 6.727543 0.236787 -0.009572
v 6.727337 0.237850 -0.005295
v 6.729900 0.237102 0.012831
v 6.726634 0.236905 -0.009364
v 6.725573 0.236976 -0.009241
v 6.725573 0.237946 -0.005121
v 6.725603 0.236411 0.016863
v 6.725573 0.175774 -0.015394
v 6.720377 0.176100 -0.015236
v 6.730769 0.176100 -0.015236
v 6.704383 0.184224 -0.008254
v 6.708242 0.180533 -0.011271
v 6.711854 0.178196 -0.013207
v 6.715860 0.176881 -0.014444
v 6.735286 0.176881 -0.014444
v 6.746763 0.184224 -0.008254
v 6.742904 0.180533 -0.011271
v 6.739293 0.178196 -0.013207
vn -0.7980 -0.5829 -0.1532
vn -0.8184 -0.5626 -0.1167
vn -0.8651 -0.3857 0.3206
vn -0.7723 -0.5950 -0.2225
vn -0.8375 -0.5389 -0.0905
vn -0.7534 -0.5916 -0.2870
vn -0.8648 -0.4982 -0.0617
vn -0.7373 -0.5057 0.4479
vn -0.9027 -0.4289 -0.0338
vn -0.5906 -0.3446 0.7297
vn 0.7645 0.6016 -0.2317
vn 0.7347 0.6653 -0.1327
vn 0.8009 0.5943 -0.0735
vn 0.8366 0.5189 -0.1755
vn -0.9202 -0.3913 -0.0146
vn 0.0363 -0.7520 -0.6582
vn -0.5715 -0.7875 0.2309
vn -0.4695 -0.8829 0.0004
vn -0.1426 -0.6608 0.7369
vn 0.0011 0.4673 0.8841
vn -0.6547 0.1251 0.7455
vn -0.7006 0.1142 0.7043
vn -0.7991 0.0770 0.5962
vn -0.7898 0.0710 0.6093
vn -0.2363 -0.9616 -0.1394
vn 0.6019 -0.7800 -0.1713
vn 0.6109 -0.7913 -0.0251
vn 0.2620 0.5387 0.8007
vn 0.1838 0.3634 0.9133
vn 0.2856 0.3816 0.8791
vn 0.3590 0.5345 0.7651
vn -0.1457 0.3501 -0.9253
vn -0.0595 0.3869 -0.9202
vn -0.0254 0.2090 -0.9776
vn -0.1462 0.2372 -0.9604
vn 0.6056 -0.7729 -0.1893
vn 0.9472 -0.3035 -0.1037
vn 0.8254 -0.5500 -0.1273
vn 0.7704 -0.5848 -0.2539
vn 0.8339 -0.3984 -0.3820
vn -0.9615 -0.2667 -0.0655
vn -0.9697 -0.1071 0.2197
vn -0.9719 -0.0942 0.2158
vn -0.9818 -0.1685 -0.0881
vn 0.5738 -0.7946 -0.1982
vn 0.8635 -0.0601 -0.5007
vn 0.9749 -0.0318 -0.2204
vn 0.9814 -0.0741 -0.1770
vn 0.8696 -0.1209 -0.4787
vn 0.4518 0.3090 -0.8369
vn 0.3431 0.2556 -0.9039
vn 0.2948 0.3684 -0.8817
vn 0.4269 0.3993 -0.8114
vn 0.5270 -0.8215 -0.2178
vn -0.1820 -0.7925 -0.5820
vn -0.3355 -0.7864 -0.5187
vn -0.3206 -0.7120 -0.6247
vn -0.1736 -0.7138 -0.6784
vn 0.5462 0.5265 0.6515
vn 0.5370 0.3917 0.7472
vn 0.5029 -0.8319 -0.2346
vn -0.2622 -0.9193 0.2936
vn -0.3256 -0.5645 0.7585
vn -0.1723 -0.9808 -0.0917
vn 0.2012 0.3762 0.9044
vn 0.1938 0.3807 0.9042
vn 0.6175 0.2997 0.7272
vn 0.5102 0.3579 0.7820
vn -0.7064 -0.1416 -0.6935
vn -0.5144 -0.1552 -0.8434
vn -0.5188 -0.2849 -0.8061
vn -0.7063 -0.2629 -0.6573
vn 0.4935 -0.8337 -0.2479
vn 0.4565 -0.8321 -0.3151
vn 0.4630 -0.8781 -0.1212
vn 0.4623 -0.8371 -0.2925
vn 0.4755 -0.8375 -0.2694
vn 0.4695 -0.8367 -0.2819
vn 0.4587 -0.8343 -0.3057
vn 0.5013 -0.8289 -0.2483
vn 0.4878 -0.8333 -0.2601
vn -0.9846 -0.1107 -0.1356
vn -0.8832 -0.1290 -0.4509
vn -0.8824 -0.2244 -0.4134
vn -0.6879 -0.4411 -0.5763
vn -0.8470 -0.3860 -0.3654
vn 0.9816 -0.1689 0.0897
vn 0.9699 -0.2320 0.0744
vn 0.9587 -0.2838 0.0181
vn 0.9728 -0.2316 0.0084
vn 0.4521 -0.8278 -0.3323
vn 0.6067 -0.6709 0.4264
vn 0.5568 -0.4672 0.6868
vn 0.2812 0.7577 -0.5889
vn 0.3021 0.7775 -0.5517
vn 0.4034 0.7119 -0.5748
vn 0.3797 0.6858 -0.6209
vn -0.6150 -0.2096 0.7602
vn 0.5715 -0.7875 0.2309
vn -0.0363 -0.7520 -0.6582
vn 0.4695 -0.8829 0.0004
vn -0.6658 0.7451 -0.0382
vn -0.7257 0.6746 -0.1350
vn -0.7966 0.5990 -0.0814
vn -0.7272 0.6864 -0.0010
vn 0.9870 0.1266 -0.0986
vn 0.9966 0.0578 -0.0583
vn 0.9885 -0.0461 -0.1438
vn 0.9839 0.0386 -0.1746
vn 0.1723 -0.9808 -0.0917
vn 0.2622 -0.9193 0.2936
vn 0.3256 -0.5645 0.7585
vn -0.2862 -0.5345 0.7952
vn -0.2833 -0.5316 0.7982
vn -0.1472 -0.4840 0.8626
vn -0.2351 -0.4803 0.8450
vn -0.9163 -0.1098 0.3853
vn -0.8213 -0.1474 0.5512
vn -0.8870 0.0545 0.4585
vn -0.9457 -0.0023 0.3249
vn 0.7294 -0.6829 -0.0396
vn 0.7262 -0.6667 -0.1676
vn 0.8443 -0.4454 -0.2979
vn 0.9039 -0.3555 -0.2379
vn 0.8857 -0.4097 -0.2182
vn 0.8169 -0.5068 -0.2753
vn 0.6879 -0.4411 -0.5763
vn 0.6649 -0.6034 -0.4402
vn 0.5769 0.3612 -0.7326
vn 0.6770 0.3863 -0.6265
vn 0.7623 0.2532 -0.5956
vn 0.6575 0.2033 -0.7255
vn 0.4959 -0.6066 -0.6214
vn 0.6035 -0.6893 -0.4008
vn 0.4824 -0.6884 -0.5417
vn -0.6035 -0.6893 -0.4008
vn -0.4824 -0.6884 -0.5417
vn -0.5234 -0.7537 -0.3975
vn -0.6374 -0.6820 -0.3584
vn -0.9815 0.1001 0.1630
vn -0.9792 0.0348 0.1999
vn -0.9606 0.0868 0.2639
vn -0.9620 0.1574 0.2231
vn 0.2279 0.2405 0.9435
vn 0.4996 0.2305 0.8351
vn 0.8662 -0.2290 -0.4440
vn 0.7063 -0.2629 -0.6573
vn -0.7132 0.4419 -0.5442
vn -0.6762 0.3563 -0.6448
vn -0.7458 0.2304 -0.6251
vn -0.8043 0.2872 -0.5202
vn 0.3206 -0.7120 -0.6247
vn 0.5234 -0.7537 -0.3974
vn 0.3355 -0.7864 -0.5187
vn 0.3317 -0.4842 -0.8097
vn 0.5136 -0.4652 -0.7210
vn 0.3218 -0.6238 -0.7123
vn -0.5719 -0.7593 -0.3105
vn -0.9703 -0.0340 0.2395
vn 0.8891 0.0834 0.4500
vn 0.9809 0.0050 0.1943
vn 0.9901 0.0090 0.1398
vn 0.8861 0.1005 0.4525
vn -0.1593 0.0643 -0.9851
vn -0.1781 -0.0787 -0.9809
vn -0.3815 -0.0632 -0.9222
vn -0.3638 0.0959 -0.9265
vn -0.1394 0.9161 0.3760
vn -0.1541 0.8652 0.4772
vn 0.0326 0.8749 0.4832
vn 0.0307 0.9228 0.3842
vn 0.1545 -0.6264 -0.7640
vn 0.1736 -0.7138 -0.6784
vn -0.5114 -0.8020 -0.3087
vn -0.6018 0.3669 0.7094
vn -0.4795 0.4146 0.7734
vn -0.7163 0.2697 0.6435
vn -0.7871 0.1855 0.5883
vn -0.5625 0.0323 0.8261
vn -0.7086 -0.0547 0.7035
vn -0.6337 -0.2723 0.7241
vn -0.5294 -0.1737 0.8304
vn -0.0319 0.0468 -0.9984
vn -0.0000 -0.0818 -0.9966
vn 0.3436 -0.8194 -0.4588
vn 0.5115 -0.8019 -0.3086
vn 0.6217 0.7759 -0.1073
vn 0.5493 0.8349 -0.0350
vn 0.6079 0.7940 0.0034
vn 0.6875 0.7240 -0.0560
vn -0.6766 0.0455 -0.7350
vn -0.4907 0.0698 -0.8685
vn -0.5101 -0.0595 -0.8581
vn -0.6991 -0.0647 -0.7121
vn -0.4606 0.1772 -0.8697
vn -0.3237 0.1987 -0.9251
vn -0.3379 0.0776 -0.9380
vn 0.5188 -0.2849 -0.8061
vn 0.5144 -0.1552 -0.8434
vn 0.7064 -0.1416 -0.6935
vn 0.8081 0.2944 -0.5103
vn 0.8649 0.1684 -0.4728
vn 0.8190 0.1156 -0.5620
vn 0.9639 -0.1629 -0.2105
vn 0.9675 -0.0566 -0.2465
vn 0.1820 -0.7925 -0.5820
vn 0.5023 0.1427 -0.8528
vn 0.7096 0.0524 -0.7026
vn 0.5389 -0.0164 -0.8422
vn -0.8993 -0.3476 0.2654
vn -0.9176 -0.2130 0.3357
vn -0.9486 -0.1526 0.2771
vn -0.9448 -0.2974 0.1377
vn -0.0000 -0.7145 -0.6996
vn -0.0000 -0.8027 -0.5964
vn -0.0000 -0.6233 -0.7820
vn 0.1796 -0.8277 -0.5317
vn -0.0000 -0.8420 -0.5395
vn -0.1253 0.9487 0.2903
vn -0.2921 0.9189 0.2653
vn -0.3216 0.8820 0.3444
vn 0.8205 0.5709 0.0302
vn 0.7423 0.6645 0.0864
vn 0.7869 0.6070 0.1109
vn 0.8606 0.5072 0.0454
vn 0.3448 -0.1681 -0.9235
vn 0.3392 -0.3024 -0.8908
vn 0.1613 -0.3252 -0.9318
vn 0.1750 -0.1825 -0.9675
vn -0.4180 0.8060 -0.4190
vn -0.4964 0.7685 -0.4037
vn -0.4872 0.7943 -0.3630
vn -0.4066 0.8296 -0.3827
vn 0.6991 -0.0647 -0.7121
vn 0.5101 -0.0595 -0.8581
vn 0.3467 -0.0616 -0.9359
vn -0.9105 0.3981 -0.1120
vn -0.9202 0.3339 -0.2042
vn -0.9554 0.2542 -0.1503
vn -0.9473 0.3137 -0.0655
vn -0.1640 0.8382 -0.5201
vn -0.3020 0.7780 -0.5509
vn -0.3134 0.8023 -0.5080
vn -0.1764 0.8533 -0.4907
vn 0.2478 0.9185 0.3081
vn 0.1287 0.9390 0.3188
vn 0.1470 0.9115 0.3842
vn 0.2629 0.8932 0.3648
vn 0.1478 -0.4980 -0.8545
vn -0.0000 -0.5023 -0.8647
vn -0.0000 -0.3371 -0.9415
vn -0.1796 -0.8277 -0.5317
vn -0.3436 -0.8194 -0.4588
vn 0.7244 0.0190 0.6891
vn 0.7798 -0.0522 0.6239
vn 0.7726 0.0133 0.6347
vn 0.6788 0.0811 0.7299
vn -0.1545 -0.6264 -0.7640
vn -0.1478 -0.4980 -0.8545
vn 0.5210 0.6929 0.4984
vn 0.5058 0.7454 0.4341
vn 0.2916 0.7928 0.5352
vn 0.2901 0.7328 0.6155
vn 0.9727 -0.0620 0.2236
vn 0.9626 -0.1217 0.2422
vn 0.9749 -0.1718 -0.1419
vn 0.6768 0.0460 -0.7347
vn 0.4907 0.0698 -0.8685
vn 0.9769 -0.0932 0.1925
vn 0.9573 -0.1422 0.2518
vn -0.1769 -0.0632 -0.9822
vn -0.3467 -0.0616 -0.9359
vn -0.1708 0.0770 -0.9823
vn -0.4501 0.3826 0.8068
vn -0.1898 0.4228 0.8861
vn -0.1784 0.5013 0.8467
vn -0.4161 0.4650 0.7814
vn -0.7596 0.1496 0.6330
vn 0.9914 0.1284 0.0251
vn 0.9790 0.2029 -0.0176
vn 0.9610 0.2729 0.0437
vn 0.9789 0.1864 0.0842
vn 0.9460 -0.2052 0.2508
vn 0.9598 -0.2778 0.0411
vn 0.5719 -0.7594 -0.3104
vn 0.1769 -0.0632 -0.9822
vn -0.0000 -0.1889 -0.9820
vn -0.0000 -0.0621 -0.9981
vn -0.1662 0.2001 -0.9656
vn -0.8422 0.0236 -0.5386
vn -0.9640 0.0080 -0.2657
vn -0.7496 -0.0141 -0.6617
vn -0.8628 -0.5024 0.0561
vn -0.8475 -0.5208 -0.1023
vn 0.6373 -0.6823 -0.3582
vn 0.7039 0.6211 -0.3445
vn 0.6027 0.7039 -0.3758
vn 0.5902 0.7377 -0.3278
vn 0.6889 0.6690 -0.2789
vn -0.7199 0.0518 -0.6922
vn -0.5744 -0.0074 -0.8185
vn -0.5881 -0.1095 -0.8014
vn -0.7395 -0.0409 -0.6719
vn 0.6141 0.4119 0.6732
vn 0.6659 0.2994 0.6833
vn 0.8959 0.1541 0.4167
vn 0.8906 0.2296 0.3926
vn -0.9059 0.4221 0.0355
vn 0.9253 -0.1333 0.3550
vn 0.9043 -0.1544 0.3980
vn -0.5141 0.0160 -0.8576
vn 0.4606 0.1772 -0.8697
vn 0.6655 0.1304 -0.7349
vn -0.6525 0.1326 -0.7461
vn -0.4523 0.2178 -0.8649
vn 0.5570 -0.6207 -0.5518
vn 0.5252 -0.6705 -0.5240
vn 0.3423 -0.7276 -0.5945
vn 0.3670 -0.6805 -0.6343
vn -0.3335 0.0777 -0.9395
vn -0.9983 0.0580 -0.0005
vn -0.8892 0.2694 0.3697
vn -0.9975 0.0395 0.0593
vn 0.3036 0.2589 -0.9169
vn 0.4484 0.2189 -0.8666
vn 0.3237 0.1987 -0.9251
vn 0.3379 0.0776 -0.9380
vn 0.5431 -0.8134 -0.2083
vn 0.5897 -0.7831 -0.1977
vn -0.2295 -0.0396 -0.9725
vn -0.2642 0.1209 -0.9569
vn -0.7698 0.6241 0.1338
vn -0.7021 0.7056 0.0952
vn -0.8053 0.5916 0.0375
vn -0.8660 0.4963 0.0617
vn -0.8759 0.2197 0.4296
vn -0.5395 0.4601 0.7052
vn -0.4331 0.6389 -0.6358
vn -0.3797 0.6858 -0.6209
vn -0.3395 0.6664 -0.6638
vn -0.3908 0.6158 -0.6842
vn -0.9158 0.2878 -0.2803
vn -0.9003 0.2334 -0.3674
vn -0.9327 0.1437 -0.3308
vn -0.9505 0.2039 -0.2345
vn -0.2571 0.9120 -0.3196
vn -0.1625 0.9133 -0.3734
vn -0.1719 0.8990 -0.4028
vn -0.2861 0.8852 -0.3668
vn 0.6129 -0.7680 -0.1859
vn -0.1389 0.1480 -0.9792
vn -0.5893 0.7400 -0.3242
vn -0.6866 0.6718 -0.2778
vn -0.6602 0.7269 -0.1892
vn -0.5677 0.7819 -0.2576
vn 0.8904 -0.0115 0.4550
vn 0.8788 -0.0917 0.4684
vn 0.9302 -0.1729 0.3237
vn -0.3651 0.5532 0.7488
vn -0.1144 0.6812 0.7231
vn 0.1662 0.2001 -0.9656
vn 0.1612 0.2689 -0.9496
vn 0.1708 0.0770 -0.9823
vn -0.0027 0.0005 -1.0000
vn -0.0019 0.1567 -0.9876
vn -0.8833 0.1630 0.4396
vn -0.6441 0.2988 0.7042
vn -0.5887 0.3830 0.7118
vn -0.0000 0.1976 -0.9803
vn -0.0006 0.2764 -0.9610
vn -0.0348 0.6547 0.7551
vn -0.0207 0.7105 0.7034
vn -0.1512 0.6283 0.7631
vn -0.3601 0.9175 -0.1686
vn -0.4220 0.8744 -0.2394
vn -0.5215 0.8366 -0.1676
vn -0.4505 0.8886 -0.0864
vn 0.1584 0.9616 -0.2243
vn 0.1146 0.9730 -0.2003
vn 0.1386 0.9840 -0.1116
vn 0.1886 0.9711 -0.1464
vn 0.1331 0.1484 -0.9799
vn -0.0349 0.7088 0.7045
vn -0.9863 0.1394 -0.0885
vn -0.9847 0.0469 -0.1676
vn -0.9900 -0.0392 -0.1357
vn -0.9969 0.0663 -0.0428
vn -0.1266 0.8203 -0.5578
vn -0.2501 0.7426 -0.6213
vn -0.2812 0.7577 -0.5889
vn -0.1446 0.8263 -0.5443
vn -0.0840 0.8151 -0.5732
vn -0.0501 0.8131 -0.5800
vn -0.0604 0.7169 -0.6945
vn -0.1278 0.7169 -0.6853
vn 0.2263 -0.0393 -0.9733
vn 0.2619 0.1218 -0.9574
vn -0.7421 -0.5210 -0.4218
vn -0.8344 -0.4457 -0.3243
vn -0.8520 -0.3635 -0.3768
vn -0.7600 -0.4421 -0.4764
vn 0.1637 0.8364 -0.5231
vn 0.1756 0.8490 -0.4984
vn 0.3142 0.8007 -0.5100
vn 0.6876 0.1702 0.7059
vn 0.4563 0.1025 0.8839
vn 0.6526 0.0148 0.7576
vn 0.3889 0.6577 0.6452
vn 0.2662 0.6433 0.7178
vn 0.3302 0.0796 -0.9406
vn 0.1240 0.9396 -0.3191
vn 0.1086 0.9444 -0.3104
vn 0.1881 0.9513 -0.2442
vn -0.9864 -0.1593 -0.0405
vn -0.9795 -0.1956 0.0472
vn -0.9835 -0.1376 0.1172
vn -0.9954 -0.0645 0.0714
vn 0.1605 0.8629 0.4793
vn 0.4932 0.0213 -0.8696
vn 0.9069 0.4211 0.0157
vn -0.9891 -0.0151 0.1463
vn -0.9798 -0.0727 0.1863
vn -0.0468 0.5275 0.8483
vn -0.0218 0.5458 0.8376
vn -0.0085 0.6720 0.7405
vn -0.0316 0.6624 0.7485
vn -0.0000 0.0771 -0.9970
vn 0.8895 0.0411 0.4550
vn 0.7796 0.0967 0.6187
vn 0.7621 0.0793 0.6426
vn -0.4842 0.6992 -0.5260
vn -0.4622 0.6660 -0.5855
vn -0.5584 0.5882 -0.5850
vn -0.5907 0.6245 -0.5109
vn 0.7318 -0.0132 -0.6813
vn -0.7417 -0.6703 -0.0246
vn -0.8000 -0.5873 0.1230
vn -0.7255 -0.3100 0.6144
vn 0.8418 0.0232 -0.5393
vn 0.9620 0.2690 -0.0461
vn 0.9375 0.3398 -0.0746
vn 0.9032 0.4291 0.0041
vn 0.9354 0.3532 0.0187
vn -0.4877 0.8678 0.0954
vn -0.5852 0.8100 0.0379
vn -0.6330 0.7718 0.0605
vn -0.5240 0.8434 0.1185
vn -0.0000 0.9961 0.0882
vn -0.0000 1.0000 0.0054
vn -0.0986 0.9951 -0.0032
vn -0.1065 0.9913 0.0773
vn -0.1140 0.9671 0.2274
vn -0.1100 0.9748 0.1939
vn -0.2442 0.9548 0.1698
vn -0.2643 0.9424 0.2052
vn 0.9588 0.0087 -0.2840
vn 0.2806 0.8436 0.4578
vn 0.1706 0.8074 0.5649
vn -0.9182 0.3960 0.0087
vn -0.8726 0.4879 -0.0222
vn 0.0136 0.5268 0.8499
vn -0.2117 0.5015 0.8388
vn -0.2205 0.3490 0.9108
vn 0.0076 0.3524 0.9358
vn -0.0003 0.7097 0.7045
vn -0.0000 0.7161 0.6980
vn 0.9980 0.0630 -0.0035
vn 0.8887 0.2810 0.3624
vn 0.0974 0.2410 0.9656
vn -0.1614 0.2688 -0.9496
vn -0.3048 0.2584 -0.9167
vn 0.2033 -0.6442 -0.7374
vn 0.1839 -0.7243 -0.6645
vn -0.0000 -0.7415 -0.6709
vn -0.0000 -0.6615 -0.7499
vn 0.9503 0.2621 -0.1680
vn 0.9731 0.1902 -0.1297
vn -0.8220 0.0144 -0.5694
vn -0.7956 0.1038 -0.5968
vn 0.0346 0.7090 0.7044
vn 0.5648 0.4764 0.6739
vn -0.8411 0.3512 -0.4115
vn -0.8590 0.1658 -0.4844
vn 0.9977 0.0370 0.0563
vn -0.8822 -0.1625 0.4420
vn -0.9090 -0.0900 0.4069
vn 0.0100 0.9706 0.2406
vn 0.0231 0.9525 0.3037
vn -0.7908 0.0150 0.6119
vn -0.9229 -0.0248 0.3843
vn 0.8964 0.4389 0.0611
vn 0.8233 0.5524 0.1304
vn 0.8635 0.4789 0.1586
vn 0.9313 0.3534 0.0884
vn 0.1068 0.6856 0.7201
vn 0.3659 0.5955 0.7152
vn -0.6730 0.1907 -0.7146
vn 0.1991 -0.2004 -0.9593
vn 0.3875 -0.1714 -0.9058
vn 0.3956 -0.3029 -0.8670
vn 0.2089 -0.3349 -0.9188
vn -0.1750 -0.1825 -0.9675
vn 0.0205 0.7106 0.7033
vn 0.0240 0.6972 0.7164
vn 0.1374 0.6779 0.7222
vn -0.4039 0.3059 0.8621
vn -0.4047 0.1080 0.9081
vn -0.2385 0.1747 0.9553
vn -0.3964 -0.3036 -0.8664
vn -0.2091 -0.3350 -0.9187
vn -0.2123 -0.5145 -0.8308
vn -0.4026 -0.4767 -0.7814
vn -0.1613 -0.3252 -0.9318
vn -0.3317 -0.4842 -0.8097
vn -0.3392 -0.3024 -0.8908
vn -0.3218 -0.6238 -0.7123
vn -0.2227 0.9347 -0.2769
vn -0.1472 0.9259 -0.3480
vn -0.0485 0.5122 0.8575
vn -0.4959 -0.6066 -0.6214
vn -0.1906 0.7242 -0.6627
vn -0.1063 0.8174 -0.5662
vn -0.5352 -0.6616 -0.5252
vn -0.7113 -0.5744 -0.4052
vn -0.5749 -0.6089 -0.5465
vn -0.3448 -0.1681 -0.9235
vn -0.1696 0.8014 0.5736
vn -0.3693 0.7590 0.5362
vn -0.3887 0.6666 0.6360
vn -0.1866 0.7151 0.6737
vn 0.0134 0.6856 0.7278
vn -0.3152 0.8245 -0.4699
vn -0.1813 0.8620 -0.4734
vn 0.4871 0.7929 -0.3661
vn 0.4640 0.8297 -0.3105
vn 0.5655 0.7833 -0.2580
vn -0.1971 0.9697 -0.1442
vn -0.1635 0.9611 -0.2225
vn -0.1936 0.9494 -0.2472
vn -0.2418 0.9531 -0.1819
vn -0.5136 -0.4652 -0.7210
vn 0.4282 0.8702 -0.2437
vn 0.3820 0.8598 -0.3389
vn 0.3492 0.8931 -0.2836
vn 0.7541 -0.4556 -0.4730
vn 0.7360 -0.5378 -0.4111
vn 0.5682 -0.5437 -0.6177
vn 0.2244 0.3018 0.9266
vn -0.0035 0.1802 0.9836
vn 0.1909 0.1833 0.9643
vn -0.7755 -0.5794 -0.2509
vn -0.6649 -0.6034 -0.4402
vn -0.7262 -0.6667 -0.1676
vn -0.9766 -0.0527 -0.2083
vn -0.8689 -0.0677 -0.4904
vn 0.7025 -0.5947 -0.3910
vn 0.6706 0.7409 0.0367
vn 0.5389 0.8345 0.1151
vn 0.6058 0.7764 0.1739
vn 0.4900 0.7901 0.3683
vn 0.4618 0.8361 0.2963
vn 0.3451 0.9295 0.1302
vn 0.2069 0.9631 0.1723
vn 0.2255 0.9452 0.2361
vn 0.3851 0.9048 0.1818
vn -0.4122 -0.0866 0.9070
vn 0.9261 0.2849 0.2473
vn 0.7994 0.4468 0.4016
vn 0.8153 0.3479 0.4629
vn 0.9359 0.1878 0.2981
vn 0.7828 0.1737 0.5975
vn 0.7292 0.2437 0.6394
vn 0.8309 -0.5561 0.0220
vn 0.7667 -0.6337 0.1031
vn -0.9130 -0.0062 0.4080
vn -0.9088 0.2503 0.3337
vn -0.9074 0.1676 0.3854
vn -0.8625 -0.2405 -0.4452
vn -0.7720 -0.3187 -0.5500
vn -0.0001 0.8121 -0.5835
vn -0.0000 0.7158 -0.6983
vn 0.1457 0.3501 -0.9253
vn 0.0595 0.3869 -0.9202
vn 0.2659 0.4577 -0.8484
vn 0.9284 -0.3496 0.1261
vn 0.8409 0.3513 -0.4117
vn 0.8998 0.2336 -0.3686
vn -0.9022 -0.3561 -0.2433
vn -0.9212 -0.2675 -0.2825
vn -0.9290 -0.1517 -0.3375
vn 0.9910 -0.0183 0.1328
vn 0.9602 -0.0767 0.2685
vn 0.2121 -0.5145 -0.8308
vn 0.4014 -0.4766 -0.7821
vn 0.3903 -0.6012 -0.6972
vn -0.9671 -0.2525 0.0310
vn -0.9751 -0.2016 0.0925
vn 0.9757 0.0773 0.2049
vn 0.9844 0.0262 0.1742
vn 0.9864 0.1030 0.1283
vn 0.9726 0.1658 0.1633
vn -0.6822 0.6745 0.2823
vn -0.6313 0.7433 0.2214
vn -0.8253 0.5374 0.1737
vn -0.9720 0.1291 -0.1962
vn -0.9556 0.0540 -0.2898
vn -0.9678 -0.0552 -0.2456
vn 0.8695 -0.3552 -0.3434
vn -0.1938 0.4754 0.8582
vn -0.1964 0.4477 0.8724
vn -0.9544 0.2449 0.1710
vn -0.9764 0.1857 0.1100
vn 0.4612 0.8799 -0.1146
vn 0.3593 0.9325 -0.0367
vn 0.4336 0.9003 0.0396
vn -0.7587 0.4868 0.4330
vn -0.8969 0.3455 0.2761
vn -0.7740 0.3852 0.5025
vn -0.7589 -0.1582 -0.6317
vn -0.8467 -0.0917 -0.5241
vn -0.9347 0.3349 0.1192
vn -0.9611 0.2701 0.0579
vn 0.1770 0.5794 0.7956
vn 0.2030 0.4244 0.8824
vn 0.4783 0.3943 0.7847
vn 0.4269 0.5197 0.7400
vn 0.7444 0.4502 -0.4932
vn -0.3103 0.6775 -0.6668
vn -0.2349 0.6906 -0.6840
vn -0.9659 0.2061 -0.1569
vn 0.8434 0.3926 -0.3667
vn -0.0864 0.7119 -0.6970
vn -0.1124 0.7098 -0.6954
vn -0.9183 0.2739 -0.2857
vn 0.9183 0.2608 -0.2978
vn 0.0755 0.7138 -0.6963
vn 0.1249 0.7090 -0.6940
vn -0.8424 0.4067 -0.3535
vn 0.2497 0.6917 -0.6776
vn 0.9665 0.1925 -0.1698
vn 0.2988 0.6823 -0.6672
vn -0.7425 0.4689 -0.4783
vn 0.6995 0.3283 0.6348
vn 0.6814 0.4617 0.5679
vn 0.8444 0.0293 -0.5349
vn 0.7313 -0.0399 -0.6809
vn -0.1939 0.9796 0.0534
vn -0.2757 0.9610 0.0220
vn -0.3313 0.9388 0.0943
vn -0.2204 0.9678 0.1212
vn -0.7244 0.0190 0.6891
vn -0.6827 0.0827 0.7260
vn -0.7885 -0.0521 0.6128
vn -0.9942 0.0488 0.0963
vn -0.9999 -0.0048 0.0149
vn 0.8109 0.0587 0.5822
vn 0.7813 -0.1009 0.6159
vn 0.8508 -0.2321 0.4714
vn 0.8972 -0.0820 0.4340
vn 0.7525 0.6584 -0.0149
vn 0.6465 0.1262 0.7524
vn -0.1113 0.9436 -0.3117
vn -0.1331 0.9359 -0.3263
vn -0.9733 0.1979 -0.1163
vn 0.4063 0.8290 -0.3844
vn 0.4179 0.8059 -0.4194
vn 0.3153 0.8434 -0.4351
vn 0.3064 0.8625 -0.4028
vn -0.9639 0.2627 -0.0428
vn -0.8377 0.5147 -0.1826
vn -0.8518 0.4476 -0.2722
vn -0.0000 -0.5288 -0.8487
vn -0.9429 0.3319 0.0273
vn -0.2538 -0.0191 0.9671
vn -0.4317 -0.1636 0.8871
vn -0.2981 -0.0988 0.9494
vn -0.1840 -0.7243 -0.6645
vn -0.2035 -0.6441 -0.7373
vn -0.0000 -0.7875 -0.6163
vn -0.1685 -0.7712 -0.6139
vn 0.5144 -0.8257 -0.2314
vn 0.2169 0.9740 -0.0650
vn 0.2570 0.9662 0.0190
vn 0.2904 0.9490 -0.1225
vn 0.9051 -0.1777 0.3862
vn 0.9506 -0.0741 0.3013
vn -0.8522 0.4012 -0.3359
vn 0.9488 -0.2568 -0.1838
vn 0.9370 -0.3029 -0.1739
vn -0.3838 0.8579 -0.3415
vn -0.3018 0.8644 -0.4022
vn -0.5372 0.1471 -0.8305
vn 0.9824 -0.1752 -0.0640
vn 0.9960 -0.0802 0.0383
vn 0.9848 -0.1311 -0.1139
vn 0.3067 0.9475 0.0902
vn 0.1931 0.9736 0.1217
vn 0.4832 0.8724 0.0738
vn 0.5418 0.6033 0.5853
vn 0.6588 0.5607 0.5015
vn -0.2398 0.5848 -0.7750
vn -0.2884 0.5973 -0.7484
vn 0.1791 0.6435 0.7442
vn 0.1805 0.5259 0.8312
vn -0.6112 -0.4065 -0.6791
vn -0.5974 -0.5300 -0.6019
vn -0.4665 0.8271 -0.3135
vn -0.1991 -0.2004 -0.9593
vn -0.3877 -0.1716 -0.9057
vn 0.6944 0.1174 0.7099
vn -0.1090 0.9833 0.1455
vn -0.0663 0.9804 -0.1858
vn -0.0415 0.9562 -0.2899
vn -0.0839 0.9513 -0.2967
vn -0.1223 0.9721 -0.2002
vn -0.0812 0.4450 0.8918
vn -0.0601 0.4280 0.9018
vn 0.4820 0.0357 0.8754
vn 0.6573 -0.0662 0.7507
vn 0.0268 0.7381 0.6742
vn 0.0202 0.6457 0.7633
vn 0.1768 0.7333 0.6565
vn 0.0316 0.8173 0.5754
vn 0.8686 -0.0713 -0.4904
vn 0.7517 -0.1560 -0.6407
vn 0.3711 0.9088 -0.1905
vn -0.5884 0.2416 0.7716
vn -0.4049 0.4571 0.7919
vn -0.5954 0.3901 0.7024
vn -0.8898 0.0759 -0.4501
vn -0.9641 -0.1620 -0.2104
vn -0.3648 0.9308 -0.0242
vn -0.2941 0.9493 -0.1112
vn -0.1809 0.8730 -0.4530
vn -0.3116 0.8452 -0.4342
vn -0.8814 0.1017 0.4613
vn -0.0000 -0.3457 -0.9383
vn -0.0000 0.9962 -0.0875
vn -0.0845 0.9920 -0.0941
vn -0.5796 0.5962 0.5555
vn -0.5925 0.4952 0.6354
vn -0.4012 0.5674 0.7191
vn 0.0923 0.9758 0.1983
vn 0.1044 0.9621 0.2519
vn 0.0169 0.4147 0.9098
vn 0.0135 0.5717 0.8203
vn -0.0060 0.5547 0.8321
vn -0.0114 0.4349 0.9004
vn -0.9148 -0.0212 -0.4034
vn -0.4660 0.5215 -0.7148
vn -0.3708 0.4969 -0.7846
vn -0.4395 0.3926 -0.8079
vn -0.5333 0.4247 -0.7316
vn 0.2833 -0.5316 0.7982
vn 0.2351 -0.4803 0.8450
vn 0.1475 -0.4840 0.8626
vn 0.2862 -0.5345 0.7952
vn 0.6537 0.7285 0.2050
vn 0.6914 0.6816 0.2395
vn 0.8212 0.2147 0.5288
vn -0.9794 -0.0542 0.1947
vn -0.0267 0.4438 0.8957
vn -0.3915 -0.6009 -0.6969
vn -0.3676 -0.6801 -0.6342
vn 0.5271 0.8303 -0.1808
vn 0.6631 0.7233 -0.1927
vn 0.7232 0.6300 0.2829
vn 0.0426 0.9559 -0.2905
vn 0.0057 0.9586 -0.2847
vn 0.0014 0.9834 -0.1817
vn 0.0612 0.9805 -0.1868
vn 0.4296 0.8679 0.2494
vn 0.1818 0.8830 -0.4328
vn 0.1720 0.9011 -0.3981
vn 0.2892 0.8857 -0.3631
vn -0.1785 0.8860 -0.4279
vn -0.9649 -0.1271 0.2297
vn 0.9489 -0.2211 0.2252
vn -0.4215 0.7770 -0.4677
vn 0.5651 -0.2483 -0.7868
vn 0.5761 -0.4196 -0.7014
vn -0.4478 0.8667 0.2199
vn -0.4895 0.8229 0.2885
vn -0.9718 -0.2212 0.0824
vn -0.9536 -0.1721 0.2470
vn 0.9134 0.2897 -0.2861
vn 0.8515 0.4018 -0.3371
vn 0.8505 0.4500 -0.2723
vn 0.9151 0.3426 -0.2127
vn -0.8120 -0.4984 -0.3036
vn -0.9471 -0.1043 0.3036
vn -0.9254 -0.1377 0.3530
vn -0.9901 -0.0113 0.1400
vn 0.0018 0.9789 0.2043
vn 0.9240 -0.2650 -0.2756
vn 0.9323 -0.1474 -0.3304
vn 0.3637 0.0959 -0.9266
vn 0.1593 0.0643 -0.9851
vn 0.1462 0.2372 -0.9604
vn 0.9022 0.3813 0.2015
vn 0.9581 0.2575 0.1258
vn -0.6134 -0.3590 0.7035
vn -0.5205 -0.2607 0.8131
vn -0.5254 0.7667 0.3689
vn 0.0770 0.9927 -0.0933
vn 0.8938 0.0788 -0.4414
vn 0.9179 -0.0167 -0.3964
vn -0.9071 0.4120 0.0868
vn 0.7796 0.5411 -0.3153
vn -0.0007 -0.4712 0.8820
vn -0.0287 -0.4652 0.8848
vn 0.9273 0.0617 0.3692
vn 0.8591 -0.3228 0.3972
vn -0.3755 0.9166 0.1371
vn -0.4079 0.8976 0.1669
vn 0.8130 -0.3175 0.4880
vn 0.0938 0.9848 0.1464
vn 0.1743 0.9832 0.0547
vn 0.0951 0.9924 0.0780
vn -0.7617 0.6035 -0.2357
vn 0.4657 0.5218 -0.7147
vn 0.5181 0.5560 -0.6499
vn 0.5999 0.4705 -0.6471
vn 0.5203 0.4435 -0.7298
vn 0.7611 0.5526 0.3397
vn -0.6069 0.4596 -0.6484
vn -0.5992 0.3302 -0.7293
vn 0.9708 0.1225 -0.2062
vn -0.2659 0.4577 -0.8484
vn 0.0502 0.8129 -0.5802
vn 0.0841 0.8148 -0.5736
vn 0.1278 0.7169 -0.6854
vn 0.0604 0.7169 -0.6945
vn -0.6015 -0.2382 -0.7625
vn -0.9781 0.2077 -0.0146
vn -0.2015 0.6186 0.7594
vn -0.7753 0.2863 0.5631
vn 0.9477 0.2037 -0.2457
vn 0.8648 0.5019 -0.0167
vn 0.9017 0.4176 -0.1122
vn -0.7791 0.5413 -0.3161
vn 0.8697 -0.3976 0.2923
vn 0.2688 0.9079 -0.3216
vn 0.2402 0.9524 -0.1876
vn -0.6026 0.7044 -0.3750
vn 0.2870 0.1521 0.9458
vn -0.3476 0.8281 0.4397
vn -0.5551 0.6938 0.4587
vn -0.4389 0.8968 0.0555
vn -0.9910 0.1287 0.0368
vn 0.8839 -0.2236 -0.4107
vn 0.7684 -0.3237 -0.5521
vn 0.7669 -0.1814 0.6156
vn 0.0351 0.3418 0.9391
vn 0.0369 0.3545 0.9343
vn -0.4806 0.3034 -0.8228
vn 0.8562 -0.1638 0.4900
vn 0.8875 -0.2314 0.3985
vn 0.7339 0.4081 -0.5430
vn -0.8674 0.4477 0.2174
vn -0.3427 -0.7273 -0.5947
vn -0.6102 0.7873 -0.0884
vn -0.5347 0.8451 -0.0044
vn -0.7839 0.4950 -0.3748
vn -0.7683 0.4510 -0.4543
vn -0.0566 0.4335 0.8994
vn 0.3414 0.2003 0.9183
vn 0.1839 0.8696 -0.4581
vn -0.0000 -0.2076 -0.9782
vn 0.1336 0.0294 0.9906
vn -0.6062 0.6647 -0.4366
vn -0.6952 0.5345 -0.4806
vn -0.7100 0.5764 -0.4045
vn 0.3705 0.4970 -0.7847
vn -0.0359 -0.0094 0.9993
vn -0.1253 -0.0700 0.9897
vn 0.1684 -0.7712 -0.6139
vn 0.5524 -0.1193 -0.8250
vn 0.7100 0.5764 -0.4045
vn 0.6062 0.6647 -0.4366
vn 0.9999 -0.0123 -0.0113
vn -0.9871 -0.1236 -0.1017
vn 0.9957 0.0543 0.0755
vn 0.1565 0.9874 -0.0244
vn 0.0897 0.9960 -0.0022
vn -0.2895 0.9304 -0.2247
vn -0.3416 0.8968 -0.2812
vn -0.8850 -0.4084 -0.2236
vn -0.9547 -0.1997 0.2205
vn 0.9487 0.2647 0.1730
vn 0.0678 0.6297 -0.7739
vn 0.2288 0.9323 -0.2802
vn 0.3012 0.9237 -0.2368
vn -0.4965 0.7357 -0.4606
vn 0.3814 -0.0632 -0.9222
vn 0.0002 0.9876 0.1572
vn -0.2301 0.9712 -0.0623
vn -0.0952 0.4350 0.8954
vn 0.3721 0.3470 -0.8609
vn 0.6949 0.5354 -0.4800
vn 0.6555 0.4969 -0.5686
vn 0.5584 0.5882 -0.5850
vn 0.5907 0.6246 -0.5109
vn -0.4167 0.7439 -0.5225
vn -0.9371 -0.3026 -0.1742
vn -0.9489 -0.2563 -0.1840
vn -0.7255 0.5913 0.3522
vn -0.1708 0.9850 -0.0262
vn -0.1485 0.9824 -0.1132
vn 0.9319 0.1434 -0.3332
vn 0.7716 0.4520 -0.4475
vn 0.9550 0.0528 -0.2920
vn 0.7839 0.4951 -0.3748
vn -0.5182 0.5558 -0.6501
vn 0.1643 0.9137 -0.3718
vn 0.1410 0.9285 -0.3435
vn -0.5750 0.8015 0.1642
vn -0.8984 0.0467 0.4368
vn 0.4842 0.6992 -0.5260
vn 0.4965 0.7357 -0.4606
vn 0.4963 0.7681 -0.4045
vn 0.4167 0.7439 -0.5225
vn 0.4622 0.6660 -0.5855
vn 0.4215 0.7770 -0.4676
vn 0.3176 0.8230 -0.4709
vn 0.1824 0.8592 -0.4781
vn -0.0006 0.8850 -0.4656
vn -0.6869 0.4410 -0.5776
vn 0.1781 -0.0787 -0.9809
vn 0.1066 0.8171 -0.5665
vn 0.1270 0.8200 -0.5581
vn 0.2501 0.7426 -0.6213
vn 0.1907 0.7242 -0.6627
vn 0.0765 0.9525 -0.2947
vn 0.3395 0.6664 -0.6638
vn 0.4331 0.6389 -0.6358
vn 0.3908 0.6158 -0.6842
vn -0.3721 0.3470 -0.8609
vn 0.2884 0.5973 -0.7484
vn 0.0319 0.0468 -0.9984
vn -0.7036 0.6217 -0.3442
vn 0.2398 0.5848 -0.7750
vn 0.0254 0.2090 -0.9776
vn -0.9487 0.2647 0.1730
vn -0.3431 0.2556 -0.9039
vn -0.2948 0.3684 -0.8817
vn -0.0000 0.6218 -0.7832
vn -0.0678 0.6297 -0.7739
vn 0.1452 0.8261 -0.5445
vn -0.4034 0.7119 -0.5748
vn 0.6150 -0.2100 0.7600
vn 0.0272 -0.4658 0.8845
vn 0.1919 -0.4589 0.8675
vn 0.1428 -0.4524 0.8803
vn 0.0952 -0.4535 0.8862
vn -0.0952 -0.4535 0.8862
vn -0.1919 -0.4589 0.8675
vn -0.1428 -0.4524 0.8803
vt 0.000000 0.000000
s 1
f 1/1/1 2/1/2 3/1/3
f 1/1/1 3/1/3 4/1/4
f 2/1/2 5/1/5 3/1/3
f 4/1/4 3/1/3 6/1/6
f 5/1/5 7/1/7 3/1/3
f 6/1/6 3/1/3 8/1/8
f 7/1/7 9/1/9 3/1/3
f 8/1/8 3/1/3 10/1/10
f 480/1/11 539/1/12 483/1/13 477/1/14
f 9/1/9 13/1/15 3/1/3
f 21/1/16 22/1/16 17/1/17 16/1/18
f 3/1/3 14/1/19 15/1/20
f 145/1/21 153/1/22 151/1/23 152/1/24
f 14/1/19 18/1/25 19/1/26
f 14/1/19 19/1/26 20/1/27
f 14/1/19 20/1/27 15/1/20
f 550/1/28 544/1/29 543/1/30 545/1/31
f 850/1/32 851/1/33 843/1/34 842/1/35
f 19/1/26 24/1/36 20/1/27
f 289/1/37 295/1/38 273/1/39 282/1/40
f 74/1/41 99/1/42 98/1/43 97/1/44
f 24/1/36 28/1/45 20/1/27
f 286/1/46 278/1/47 304/1/48 303/1/49
f 882/1/50 883/1/51 875/1/52 874/1/53
f 28/1/45 32/1/54 20/1/27
f 109/1/55 101/1/56 85/1/57 108/1/58
f 517/1/59 545/1/31 543/1/30 537/1/60
f 32/1/54 36/1/61 20/1/27
f 33/1/62 37/1/63 34/1/64
f 283/1/65 296/1/66 291/1/67 285/1/68
f 106/1/69 114/1/70 92/1/71 100/1/72
f 36/1/61 40/1/73 20/1/27
f 20/1/27 41/1/74 42/1/75
f 20/1/27 43/1/76 41/1/74
f 20/1/27 40/1/73 44/1/77
f 20/1/27 44/1/77 43/1/76
f 41/1/74 43/1/76 48/1/78 49/1/79
f 39/1/80 47/1/81 40/1/73
f 104/1/82 105/1/83 84/1/84 97/1/44
f 43/1/76 44/1/77 48/1/78
f 84/1/84 100/1/72 76/1/85 75/1/86
f 425/1/87 440/1/88 433/1/89 426/1/90
f 42/1/75 50/1/91 51/1/92
f 42/1/75 51/1/92 52/1/93
f 880/1/94 886/1/95 885/1/96 878/1/97
f 17/1/17 12/1/98 11/1/98 16/1/18
f 55/1/99 57/1/100 56/1/101
f 29/1/16 30/1/16 26/1/16 25/1/16
f 702/1/102 703/1/103 684/1/104 696/1/105
f 420/1/106 421/1/107 412/1/108 413/1/109
f 62/1/100 63/1/110 64/1/111
f 63/1/110 65/1/112 64/1/111
f 38/1/113 45/1/114 37/1/63 33/1/62
f 46/1/115 962/1/116 45/1/114 38/1/113
f 631/1/117 628/1/118 622/1/119 630/1/120
f 273/1/39 295/1/38 279/1/121 274/1/122
f 391/1/123 406/1/124 401/1/125 393/1/126
f 276/1/127 282/1/40 273/1/39 275/1/128
f 889/1/129 924/1/130 918/1/131 912/1/132
f 261/1/133 275/1/128 159/1/134 262/1/135
f 71/1/136 79/1/137 80/1/138
f 71/1/136 80/1/138 81/1/139
f 159/1/134 275/1/128 273/1/39 274/1/122
f 647/1/140 655/1/141 629/1/142 639/1/143
f 537/1/60 543/1/30 536/1/144 531/1/145
f 281/1/146 282/1/40 276/1/127 280/1/147
f 725/1/148 732/1/149 706/1/150 718/1/151
f 140/1/152 262/1/135 136/1/153 138/1/154
f 256/1/155 269/1/156 261/1/133 257/1/157
f 81/1/139 80/1/138 89/1/158
f 629/1/142 655/1/141 636/1/159 630/1/120
f 272/1/160 316/1/161 271/1/162 267/1/163
f 823/1/164 824/1/165 755/1/166 819/1/167
f 581/1/168 588/1/169 535/1/170 574/1/171
f 131/1/172 257/1/157 140/1/152 132/1/173
f 89/1/158 80/1/138 94/1/174
f 160/1/175 193/1/176 168/1/177 161/1/178
f 616/1/179 621/1/180 618/1/181 617/1/182
f 823/1/164 836/1/183 780/1/184 824/1/165
f 129/1/185 138/1/154 136/1/153 137/1/186
f 554/1/187 549/1/188 542/1/189 540/1/190
f 134/1/191 158/1/192 122/1/193 128/1/194
f 156/1/195 175/1/196 167/1/197 158/1/192
f 106/1/69 128/1/194 122/1/193 114/1/70
f 268/1/198 287/1/199 288/1/200 280/1/147
f 918/1/131 927/1/201 452/1/202 923/1/203
f 405/1/204 407/1/205 413/1/109 412/1/108
f 138/1/154 123/1/206 132/1/173 140/1/152
f 888/1/207 912/1/132 910/1/208 904/1/209
f 90/1/210 96/1/211 95/1/212 91/1/213
f 823/1/164 842/1/35 843/1/34 836/1/183
f 271/1/162 316/1/161 304/1/48 278/1/47
f 116/1/214 132/1/173 123/1/206 117/1/215
f 131/1/172 132/1/173 116/1/214 127/1/216
f 123/1/206 124/1/217 118/1/218 117/1/215
f 581/1/168 641/1/219 642/1/220 633/1/221
f 491/1/222 524/1/223 498/1/224 492/1/225
f 263/1/226 264/1/227 249/1/228 258/1/229
f 744/1/230 739/1/231 736/1/232 737/1/233
f 293/1/234 288/1/200 287/1/199 233/1/235
f 263/1/226 294/1/236 233/1/235 287/1/199
f 679/1/237 692/1/238 675/1/239 673/1/240
f 772/1/241 776/1/242 771/1/243 766/1/244
f 529/1/245 566/1/246 528/1/247 520/1/248
f 249/1/228 250/1/249 126/1/250 242/1/251
f 109/1/55 110/1/252 102/1/253 101/1/56
f 315/1/254 320/1/255 308/1/256 309/1/257
f 126/1/250 127/1/216 93/1/258 121/1/259
f 503/1/260 504/1/261 511/1/262 510/1/263
f 317/1/264 318/1/265 289/1/37 310/1/266
f 218/1/267 293/1/234 233/1/235 226/1/268
f 25/1/16 26/1/16 22/1/16 21/1/16
f 425/1/87 455/1/269 447/1/270 440/1/88
f 220/1/271 221/1/272 167/1/197 213/1/273
f 188/1/274 206/1/275 191/1/276 192/1/277
f 620/1/278 622/1/119 628/1/118 621/1/180
f 429/1/279 430/1/280 437/1/281 436/1/282
f 440/1/88 446/1/283 441/1/284 433/1/89
f 137/1/186 136/1/153 144/1/285
f 251/1/286 258/1/229 241/1/287 243/1/288
f 181/1/289 213/1/273 167/1/197 175/1/196
f 889/1/129 912/1/132 888/1/207 882/1/50
f 133/1/290 143/1/291 148/1/292
f 82/1/293 91/1/213 74/1/41 73/1/294
f 144/1/285 136/1/153 150/1/295
f 485/1/296 926/1/297 551/1/298 546/1/299
f 404/1/300 749/1/301 370/1/302 398/1/303
f 245/1/304 260/1/305 246/1/306 239/1/307
f 148/1/292 143/1/291 154/1/308
f 453/1/309 454/1/310 446/1/283 447/1/270
f 148/1/292 154/1/308 155/1/311
f 218/1/267 226/1/268 203/1/312 211/1/313
f 149/1/314 157/1/315 156/1/195
f 150/1/295 136/1/153 159/1/134
f 376/1/316 378/1/317 369/1/318 368/1/319
f 155/1/311 162/1/320 157/1/315
f 155/1/311 154/1/308 162/1/320
f 154/1/308 143/1/291 163/1/321
f 154/1/308 163/1/321 164/1/322
f 143/1/291 165/1/323 163/1/321
f 281/1/146 310/1/266 289/1/37 282/1/40
f 196/1/324 204/1/325 203/1/312 202/1/326
f 233/1/235 294/1/236 210/1/327 226/1/268
f 203/1/312 226/1/268 210/1/327 202/1/326
f 40/1/73 47/1/81 48/1/78 44/1/77
f 31/1/328 32/1/54 28/1/45 27/1/329
f 162/1/320 170/1/330 171/1/331
f 669/1/332 690/1/333 677/1/334 670/1/335
f 163/1/321 172/1/336 164/1/322
f 164/1/322 173/1/337 154/1/308
f 793/1/338 794/1/339 811/1/340 810/1/341
f 691/1/342 705/1/343 686/1/344 687/1/345
f 764/1/346 765/1/347 757/1/348 742/1/349
f 27/1/329 28/1/45 24/1/36 23/1/350
f 170/1/330 176/1/351 171/1/331
f 730/1/352 724/1/353 709/1/354 727/1/355
f 313/1/356 321/1/357 311/1/358 318/1/265
f 173/1/337 178/1/359 154/1/308
f 154/1/308 178/1/359 179/1/360
f 196/1/324 202/1/326 201/1/361 197/1/362
f 210/1/327 299/1/363 201/1/361 202/1/326
f 176/1/351 182/1/364 183/1/365
f 174/1/366 180/1/367 177/1/368 172/1/336
f 201/1/361 205/1/369 184/1/370 197/1/362
f 179/1/360 186/1/371 170/1/372
f 179/1/360 178/1/359 187/1/373
f 179/1/360 187/1/373 186/1/371
f 93/1/258 127/1/216 116/1/214 108/1/58
f 726/1/374 728/1/375 721/1/376 720/1/377
f 940/1/378 945/1/379 943/1/380 938/1/381
f 182/1/364 189/1/382 183/1/365
f 170/1/372 186/1/371 190/1/383
f 672/1/384 681/1/385 381/1/386 389/1/387
f 784/1/388 791/1/389 783/1/390 777/1/391
f 798/1/392 847/1/393 846/1/394 839/1/395
f 189/1/382 194/1/396 195/1/397
f 336/1/398 359/1/399 343/1/400 337/1/401
f 887/1/402 894/1/403 891/1/404 886/1/95
f 522/1/405 531/1/145 530/1/406 521/1/407
f 509/1/408 556/1/409 550/1/28 545/1/31
f 194/1/396 200/1/410 195/1/397
f 316/1/161 317/1/264 310/1/266 304/1/48
f 939/1/411 944/1/412 940/1/378 936/1/413
f 379/1/414 660/1/415 653/1/416 659/1/417
f 528/1/247 574/1/171 535/1/170 527/1/418
f 200/1/410 208/1/419 204/1/325
f 200/1/410 209/1/420 208/1/419
f 74/1/41 97/1/44 84/1/84 75/1/86
f 654/1/421 659/1/417 653/1/416 645/1/422
f 13/1/15 18/1/25 14/1/19 3/1/3
f 204/1/325 211/1/313 203/1/312
f 222/1/423 228/1/424 229/1/425 224/1/426
f 201/1/361 299/1/363 212/1/427 205/1/369
f 313/1/356 314/1/428 297/1/429 307/1/430
f 779/1/431 785/1/432 767/1/433 773/1/434
f 208/1/419 209/1/420 217/1/435
f 72/1/436 83/1/437 82/1/293 73/1/294
f 621/1/180 628/1/118 627/1/438 618/1/181
f 211/1/313 219/1/439 218/1/267
f 251/1/286 299/1/363 210/1/327 294/1/236
f 438/1/440 458/1/441 457/1/442 456/1/443
f 708/1/444 713/1/445 695/1/446 701/1/447
f 821/1/448 826/1/449 814/1/450 816/1/451
f 650/1/452 817/1/453 694/1/454 688/1/455
f 186/1/371 224/1/426 190/1/383
f 217/1/435 209/1/420 225/1/456
f 518/1/457 527/1/418 519/1/458 511/1/262
f 671/1/459 678/1/460 679/1/237 673/1/240
f 585/1/461 597/1/462 595/1/463 589/1/464
f 190/1/383 230/1/465 182/1/466
f 209/1/420 231/1/467 225/1/456
f 209/1/420 232/1/468 231/1/467
f 544/1/29 538/1/469 536/1/144 543/1/30
f 176/1/351 185/1/470 166/1/471 171/1/331
f 360/1/472 361/1/473 354/1/474 353/1/475
f 450/1/476 458/1/441 438/1/440 443/1/477
f 397/1/478 700/1/479 404/1/300 398/1/303
f 230/1/465 237/1/480 182/1/466
f 232/1/468 209/1/420 238/1/481
f 710/1/482 718/1/151 699/1/483 705/1/343
f 232/1/468 239/1/307 231/1/467
f 231/1/467 240/1/484 225/1/456
f 103/1/485 112/1/486 95/1/212 96/1/211
f 953/1/487 650/1/452 641/1/219 573/1/488
f 241/1/287 258/1/229 249/1/228 242/1/251
f 119/1/489 152/1/24 107/1/490 112/1/486
f 462/1/491 499/1/492 468/1/493 463/1/494
f 209/1/420 247/1/495 248/1/496
f 209/1/420 248/1/496 238/1/481
f 706/1/150 741/1/497 404/1/300 700/1/479
f 675/1/239 692/1/238 691/1/342 687/1/345
f 434/1/498 442/1/499 403/1/500 427/1/501
f 212/1/427 243/1/288 220/1/271 213/1/273
f 220/1/271 243/1/288 241/1/287 234/1/502
f 194/1/503 237/1/480 252/1/504
f 247/1/495 194/1/503 252/1/504
f 247/1/495 252/1/504 253/1/505
f 247/1/495 253/1/505 248/1/496
f 595/1/463 610/1/506 607/1/507 600/1/508
f 356/1/509 763/1/510 355/1/511 348/1/512
f 120/1/513 121/1/259 87/1/514 113/1/515
f 87/1/514 121/1/259 93/1/258 88/1/516
f 769/1/517 770/1/518 765/1/347 764/1/346
f 191/1/276 215/1/519 186/1/371 187/1/373
f 78/1/520 88/1/516 85/1/57 79/1/137
f 798/1/392 839/1/395 797/1/521 792/1/522
f 345/1/523 352/1/524 336/1/398 338/1/525
f 262/1/135 159/1/134 136/1/153
f 220/1/271 234/1/502 115/1/526 221/1/272
f 172/1/336 177/1/368 173/1/337 164/1/322
f 576/1/527 606/1/528 599/1/529 593/1/530
f 237/1/480 265/1/531 252/1/504
f 766/1/244 771/1/243 753/1/532 759/1/533
f 922/1/534 557/1/535 552/1/536 551/1/298
f 789/1/537 795/1/538 788/1/539 782/1/540
f 115/1/526 113/1/515 92/1/71 114/1/70
f 92/1/71 113/1/515 87/1/514 86/1/541
f 580/1/542 557/1/535 587/1/543 586/1/544
f 268/1/198 280/1/147 276/1/127 269/1/156
f 385/1/545 384/1/546 376/1/316 377/1/547
f 568/1/548 589/1/464 582/1/549 575/1/550
f 70/1/551 77/1/552 71/1/136 69/1/553
f 76/1/85 86/1/541 78/1/520 77/1/552
f 57/1/100 59/1/100 58/1/100 56/1/101
f 76/1/85 100/1/72 92/1/71 86/1/541
f 135/1/554 143/1/291 133/1/290 111/1/555
f 376/1/316 384/1/546 383/1/556 378/1/317
f 534/1/557 541/1/558 525/1/559 524/1/223
f 512/1/560 516/1/561 520/1/248 518/1/457
f 559/1/562 563/1/563 558/1/564 555/1/565
f 134/1/191 128/1/194 111/1/555 133/1/290
f 616/1/179 617/1/182 608/1/566 607/1/507
f 475/1/567 496/1/568 487/1/569 481/1/570
f 84/1/84 105/1/83 106/1/69 100/1/72
f 291/1/67 292/1/571 266/1/572 285/1/68
f 300/1/573 301/1/574 279/1/121 295/1/38
f 269/1/156 276/1/127 275/1/128 261/1/133
f 107/1/490 152/1/24 151/1/23 147/1/575
f 33/1/62 34/1/64 30/1/16 29/1/16
f 632/1/576 639/1/143 629/1/142 623/1/577
f 111/1/555 128/1/194 106/1/69 105/1/83
f 313/1/356 318/1/265 317/1/264 314/1/428
f 337/1/401 343/1/400 344/1/578 342/1/579
f 847/1/393 855/1/580 853/1/581 846/1/394
f 876/1/582 877/1/583 866/1/584 875/1/52
f 289/1/37 318/1/265 311/1/358 305/1/585
f 452/1/202 927/1/201 471/1/586 465/1/587
f 221/1/272 115/1/526 114/1/70 122/1/193
f 364/1/588 366/1/589 343/1/400 359/1/399
f 366/1/589 375/1/590 344/1/578 343/1/400
f 453/1/309 455/1/269 432/1/591 461/1/592
f 360/1/472 402/1/593 395/1/594 367/1/595
f 653/1/416 660/1/415 658/1/596 652/1/597
f 473/1/598 467/1/599 435/1/600 470/1/601
f 635/1/602 676/1/603 669/1/332 668/1/604
f 680/1/605 685/1/606 374/1/607 681/1/385
f 384/1/546 385/1/545 392/1/608 391/1/123
f 160/1/175 199/1/609 198/1/610 193/1/176
f 648/1/611 656/1/612 647/1/140 639/1/143
f 571/1/613 572/1/614 565/1/615 549/1/188
f 624/1/616 640/1/617 632/1/576 612/1/618
f 397/1/478 398/1/303 351/1/619 390/1/620
f 657/1/621 663/1/622 656/1/612 648/1/611
f 254/1/623 277/1/624 259/1/625 255/1/626
f 322/1/627 323/1/628 324/1/629
f 323/1/628 325/1/630 324/1/629
f 325/1/631 326/1/632 327/1/633
f 326/1/632 328/1/634 327/1/633
f 328/1/635 329/1/636 330/1/637
f 329/1/636 331/1/638 330/1/637
f 332/1/639 331/1/640 333/1/641
f 334/1/642 332/1/639 333/1/641
f 517/1/59 537/1/60 500/1/643 507/1/644
f 910/1/208 923/1/203 439/1/645 911/1/646
f 198/1/610 206/1/275 188/1/274 193/1/176
f 809/1/647 803/1/648 712/1/649 808/1/650
f 130/1/651 139/1/652 119/1/489 125/1/653
f 661/1/654 388/1/655 659/1/417 654/1/421
f 494/1/656 513/1/657 489/1/658 488/1/659
f 540/1/190 542/1/189 534/1/557 533/1/660
f 212/1/427 299/1/363 251/1/286 243/1/288
f 302/1/661 309/1/257 308/1/256 307/1/430
f 795/1/538 802/1/662 796/1/663 788/1/539
f 680/1/605 681/1/385 672/1/384 674/1/664
f 916/1/665 917/1/666 909/1/667 914/1/668
f 667/1/669 673/1/240 675/1/239 674/1/664
f 679/1/237 698/1/670 697/1/671 692/1/238
f 353/1/475 410/1/672 402/1/593 360/1/472
f 402/1/593 427/1/501 403/1/500 395/1/594
f 671/1/459 673/1/240 667/1/669 666/1/673
f 601/1/674 608/1/566 602/1/675 596/1/676
f 354/1/474 346/1/677 347/1/678 353/1/475
f 354/1/474 357/1/679 350/1/680 346/1/677
f 74/1/41 75/1/86 70/1/551 73/1/294
f 104/1/82 135/1/554 111/1/555 105/1/83
f 35/1/681 36/1/61 32/1/54 31/1/328
f 512/1/560 518/1/457 511/1/262 504/1/261
f 937/1/682 942/1/683 572/1/614 578/1/684
f 488/1/659 489/1/658 460/1/685 482/1/686
f 691/1/342 711/1/687 710/1/482 705/1/343
f 408/1/688 409/1/689 401/1/125 406/1/124
f 734/1/690 742/1/349 743/1/691 737/1/233
f 748/1/692 819/1/167 755/1/166 749/1/301
f 425/1/87 426/1/90 417/1/693 423/1/694
f 412/1/108 416/1/695 408/1/688 405/1/204
f 564/1/696 946/1/697 563/1/563 559/1/562
f 548/1/698 559/1/562 555/1/565 541/1/558
f 177/1/368 192/1/277 178/1/359 173/1/337
f 792/1/522 797/1/521 791/1/389 784/1/388
f 508/1/699 517/1/59 507/1/644 502/1/700
f 278/1/47 286/1/46 219/1/439 225/1/456
f 839/1/395 844/1/701 834/1/702 797/1/521
f 561/1/703 567/1/704 550/1/28 556/1/409
f 342/1/579 341/1/705 335/1/706 337/1/401
f 729/1/707 727/1/355 721/1/376 728/1/375
f 755/1/166 824/1/165 762/1/708 756/1/709
f 90/1/210 91/1/213 82/1/293 83/1/437
f 167/1/197 221/1/272 122/1/193 158/1/192
f 291/1/67 298/1/710 297/1/429 292/1/571
f 675/1/239 687/1/345 680/1/605 674/1/664
f 694/1/454 817/1/453 815/1/711 808/1/650
f 825/1/712 829/1/713 807/1/714 801/1/715
f 198/1/610 216/1/716 214/1/717 206/1/275
f 462/1/491 463/1/494 437/1/281 456/1/443
f 304/1/48 310/1/266 281/1/146 303/1/49
f 534/1/557 524/1/223 491/1/222 533/1/660
f 521/1/407 530/1/406 523/1/718 514/1/719
f 577/1/720 584/1/721 561/1/703 560/1/722
f 570/1/723 577/1/720 560/1/722 519/1/458
f 573/1/488 641/1/219 581/1/168 574/1/171
f 911/1/646 439/1/645 431/1/724 396/1/725
f 571/1/613 579/1/726 578/1/684 572/1/614
f 611/1/727 610/1/506 603/1/728 604/1/729
f 699/1/483 700/1/479 397/1/478 693/1/730
f 239/1/307 246/1/306 240/1/484 231/1/467
f 374/1/607 375/1/590 366/1/589 373/1/731
f 184/1/370 205/1/369 181/1/289 185/1/470
f 719/1/732 775/1/733 726/1/374 720/1/377
f 751/1/734 759/1/533 753/1/532 745/1/735
f 168/1/177 180/1/367 174/1/366 169/1/736
f 418/1/737 427/1/501 402/1/593 410/1/672
f 355/1/511 410/1/672 353/1/475 347/1/678
f 826/1/449 830/1/738 820/1/739 814/1/450
f 599/1/529 614/1/740 605/1/741 598/1/742
f 563/1/563 949/1/743 562/1/744 558/1/564
f 244/1/745 270/1/746 235/1/747 236/1/748
f 598/1/742 605/1/741 604/1/729 603/1/728
f 374/1/607 685/1/606 382/1/749 375/1/590
f 804/1/750 840/1/751 812/1/752 805/1/753
f 67/1/754 957/1/755 68/1/756 66/1/757
f 729/1/707 736/1/232 730/1/352 727/1/355
f 498/1/224 515/1/758 506/1/759 499/1/492
f 487/1/569 507/1/644 500/1/643 493/1/760
f 98/1/43 142/1/761 104/1/82 97/1/44
f 607/1/507 608/1/566 601/1/674 600/1/508
f 227/1/762 236/1/748 235/1/747 228/1/424
f 339/1/763 347/1/678 346/1/677 340/1/764
f 654/1/421 655/1/141 647/1/140 661/1/654
f 595/1/463 600/1/508 582/1/549 589/1/464
f 553/1/765 554/1/187 547/1/766 552/1/536
f 506/1/759 512/1/560 504/1/261 501/1/767
f 950/1/768 951/1/769 952/1/770 948/1/771
f 558/1/564 529/1/245 526/1/772 555/1/565
f 915/1/773 921/1/774 920/1/775 914/1/668
f 271/1/162 278/1/47 225/1/456 240/1/484
f 555/1/565 526/1/772 525/1/559 541/1/558
f 751/1/734 745/1/735 743/1/691 750/1/776
f 653/1/416 652/1/597 644/1/777 645/1/422
f 440/1/88 447/1/270 446/1/283
f 441/1/284 446/1/283 448/1/778
f 745/1/735 753/1/532 752/1/779 744/1/230
f 438/1/440 456/1/443 437/1/281 430/1/280
f 348/1/512 355/1/511 347/1/678 339/1/763
f 403/1/500 411/1/780 386/1/781 395/1/594
f 642/1/220 682/1/782 634/1/783 633/1/221
f 229/1/425 230/1/465 190/1/383 224/1/426
f 644/1/777 652/1/597 651/1/784 643/1/785
f 446/1/283 454/1/310 448/1/778
f 447/1/270 455/1/269 453/1/309
f 459/1/786 476/1/787 472/1/788 466/1/789
f 235/1/747 265/1/531 229/1/425 228/1/424
f 222/1/423 224/1/426 186/1/371 215/1/519
f 454/1/310 453/1/309 460/1/685
f 358/1/790 359/1/399 336/1/398 352/1/524
f 637/1/791 644/1/777 643/1/785 638/1/792
f 141/1/793 169/1/736 174/1/366 165/1/323
f 430/1/280 429/1/279 421/1/107 420/1/106
f 542/1/189 548/1/698 541/1/558 534/1/557
f 528/1/247 527/1/418 518/1/457 520/1/248
f 650/1/452 953/1/487 822/1/794 817/1/453
f 432/1/591 467/1/599 461/1/592
f 407/1/205 405/1/204 399/1/795 400/1/796
f 883/1/51 890/1/797 787/1/798 884/1/799
f 474/1/800 475/1/567 470/1/601 469/1/801
f 214/1/717 215/1/519 191/1/276 206/1/275
f 123/1/206 138/1/154 129/1/185 124/1/217
f 593/1/530 577/1/720 570/1/723 576/1/527
f 762/1/708 763/1/510 356/1/509 756/1/709
f 475/1/567 481/1/570 473/1/598 470/1/601
f 289/1/37 305/1/585 300/1/573 295/1/38
f 494/1/656 522/1/405 521/1/407 513/1/657
f 618/1/181 619/1/802 609/1/803 617/1/182
f 634/1/783 676/1/603 635/1/602 625/1/804
f 93/1/258 108/1/58 85/1/57 88/1/516
f 945/1/379 948/1/771 838/1/805 943/1/380
f 23/1/350 24/1/36 19/1/26 18/1/25
f 439/1/645 445/1/806 422/1/807 431/1/724
f 680/1/605 687/1/345 686/1/344 685/1/606
f 669/1/332 670/1/335 664/1/808 668/1/604
f 485/1/296 546/1/299 480/1/11 479/1/809
f 954/1/810 956/1/811 46/1/115 68/1/756
f 500/1/643 522/1/405 494/1/656 493/1/760
f 235/1/747 270/1/746 252/1/504 265/1/531
f 482/1/686 486/1/812 488/1/659
f 460/1/685 489/1/658 490/1/813
f 502/1/700 507/1/644 487/1/569 496/1/568
f 516/1/561 512/1/560 506/1/759 515/1/758
f 629/1/142 630/1/120 622/1/119 623/1/577
f 486/1/812 493/1/760 494/1/656 488/1/659
f 694/1/454 707/1/814 689/1/815 688/1/455
f 490/1/813 489/1/658 497/1/816
f 831/1/817 946/1/697 837/1/818 832/1/819
f 709/1/354 724/1/353 704/1/820 703/1/103
f 266/1/572 292/1/571 272/1/160 267/1/163
f 608/1/566 617/1/182 609/1/803 602/1/675
f 873/1/821 901/1/822 903/1/823 895/1/824
f 496/1/568 495/1/825 502/1/700
f 733/1/826 805/1/753 740/1/827 732/1/149
f 495/1/825 503/1/260 502/1/700
f 415/1/828 443/1/477 420/1/106 413/1/109
f 844/1/701 848/1/829 840/1/751 834/1/702
f 684/1/104 703/1/103 704/1/820 698/1/670
f 857/1/830 861/1/831 859/1/832 856/1/833
f 351/1/619 363/1/834 341/1/705 342/1/579
f 502/1/700 503/1/260 508/1/699
f 677/1/334 678/1/460 671/1/459 670/1/335
f 503/1/260 509/1/408 508/1/699
f 503/1/260 510/1/263 509/1/408
f 667/1/669 674/1/664 672/1/384 665/1/835
f 593/1/530 592/1/836 584/1/721 577/1/720
f 455/1/269 425/1/87 423/1/694 432/1/591
f 663/1/622 666/1/673 667/1/669 665/1/835
f 613/1/837 620/1/278 611/1/727 604/1/729
f 415/1/828 451/1/838 450/1/476 443/1/477
f 483/1/13 484/1/839 464/1/840 477/1/14
f 704/1/820 717/1/841 697/1/671 698/1/670
f 288/1/200 303/1/49 281/1/146 280/1/147
f 306/1/842 301/1/574 300/1/573 305/1/585
f 920/1/775 928/1/843 586/1/544 587/1/543
f 936/1/413 940/1/378 938/1/381 934/1/844
f 730/1/352 736/1/232 739/1/231 738/1/845
f 459/1/786 466/1/789 450/1/476 451/1/838
f 561/1/703 584/1/721 585/1/461 567/1/704
f 196/1/324 197/1/362 189/1/382 195/1/397
f 621/1/180 616/1/179 611/1/727 620/1/278
f 523/1/718 530/1/406 532/1/846
f 263/1/226 287/1/199 268/1/198 264/1/227
f 594/1/847 625/1/804 615/1/848 606/1/528
f 126/1/250 250/1/249 131/1/172 127/1/216
f 712/1/649 803/1/648 719/1/732 714/1/849
f 689/1/815 707/1/814 708/1/444 701/1/447
f 532/1/846 536/1/144 538/1/469
f 65/1/112 67/1/754 66/1/757 64/1/111
f 160/1/175 161/1/178 151/1/23 153/1/22
f 656/1/612 662/1/850 661/1/654 647/1/140
f 640/1/617 648/1/611 639/1/143 632/1/576
f 394/1/851 392/1/608 385/1/545 387/1/852
f 489/1/658 513/1/657 505/1/853 497/1/816
f 290/1/854 296/1/66 283/1/65 284/1/855
f 740/1/827 813/1/856 748/1/692 741/1/497
f 663/1/622 665/1/835 662/1/850 656/1/612
f 530/1/406 531/1/145 536/1/144 532/1/846
f 311/1/358 321/1/357 319/1/857 312/1/858
f 80/1/138 101/1/56 102/1/253 94/1/174
f 254/1/623 255/1/626 248/1/496 253/1/505
f 526/1/772 529/1/245 520/1/248 516/1/561
f 925/1/859 927/1/201 918/1/131 924/1/130
f 649/1/860 657/1/621 648/1/611 640/1/617
f 238/1/481 245/1/304 239/1/307 232/1/468
f 686/1/344 693/1/730 382/1/749 685/1/606
f 553/1/765 571/1/613 549/1/188 554/1/187
f 509/1/408 510/1/263 556/1/409
f 547/1/766 554/1/187 540/1/190 539/1/12
f 377/1/547 386/1/781 387/1/852 385/1/545
f 350/1/680 349/1/861 340/1/764 346/1/677
f 721/1/376 722/1/862 715/1/863 720/1/377
f 562/1/744 566/1/246 529/1/245 558/1/564
f 716/1/864 731/1/865 710/1/482 711/1/687
f 214/1/717 223/1/866 222/1/423 215/1/519
f 581/1/168 633/1/221 594/1/847 588/1/169
f 812/1/752 813/1/856 740/1/827 805/1/753
f 178/1/359 192/1/277 191/1/276 187/1/373
f 550/1/28 567/1/704 568/1/548
f 550/1/28 568/1/548 569/1/867
f 116/1/214 117/1/215 109/1/55 108/1/58
f 244/1/745 277/1/624 254/1/623 270/1/746
f 748/1/692 749/1/301 404/1/300 741/1/497
f 61/1/100 63/1/110 62/1/100 60/1/100
f 908/1/868 915/1/773 914/1/668 909/1/667
f 569/1/867 568/1/548 575/1/550
f 535/1/170 570/1/723 519/1/458 527/1/418
f 367/1/595 368/1/319 361/1/473 360/1/472
f 762/1/708 774/1/869 418/1/737 763/1/510
f 103/1/485 125/1/653 119/1/489 112/1/486
f 394/1/851 431/1/724 422/1/807 400/1/796
f 256/1/155 257/1/157 131/1/172 250/1/249
f 535/1/170 588/1/169 576/1/527 570/1/723
f 141/1/793 165/1/323 143/1/291 135/1/554
f 575/1/550 582/1/549 583/1/870
f 697/1/671 711/1/687 691/1/342 692/1/238
f 746/1/871 773/1/434 754/1/872 747/1/873
f 695/1/446 696/1/105 677/1/334 690/1/333
f 874/1/53 875/1/52 866/1/584 871/1/874
f 583/1/870 582/1/549 590/1/875
f 583/1/870 590/1/875 591/1/876
f 168/1/177 193/1/176 188/1/274 180/1/367
f 464/1/840 484/1/839 457/1/442 458/1/441
f 354/1/474 361/1/473 362/1/877 357/1/679
f 664/1/808 670/1/335 671/1/459 666/1/673
f 229/1/425 265/1/531 237/1/480 230/1/465
f 468/1/493 474/1/800 469/1/801 463/1/494
f 591/1/876 590/1/875 596/1/676
f 351/1/619 398/1/303 370/1/302 363/1/834
f 650/1/452 688/1/455 642/1/220 641/1/219
f 403/1/500 442/1/499 419/1/878 411/1/780
f 217/1/435 225/1/456 219/1/439 211/1/313
f 596/1/676 590/1/875 601/1/674
f 391/1/123 393/1/126 383/1/556 384/1/546
f 319/1/857 321/1/357 308/1/256 320/1/255
f 485/1/296 930/1/879 905/1/880 926/1/297
f 498/1/224 499/1/492 462/1/491 492/1/225
f 311/1/358 312/1/858 306/1/842 305/1/585
f 314/1/428 317/1/264 316/1/161 272/1/160
f 166/1/471 185/1/470 181/1/289 175/1/196
f 721/1/376 727/1/355 709/1/354 722/1/862
f 104/1/82 142/1/761 141/1/793 135/1/554
f 416/1/695 424/1/881 423/1/694 417/1/693
f 392/1/608 394/1/851 400/1/796 399/1/795
f 380/1/882 388/1/655 389/1/387 381/1/386
f 472/1/788 477/1/14 464/1/840 466/1/789
f 341/1/705 363/1/834 356/1/509 348/1/512
f 39/1/80 40/1/73 36/1/61 35/1/681
f 78/1/520 79/1/137 71/1/136 77/1/552
f 435/1/600 467/1/599 432/1/591 428/1/883
f 612/1/618 632/1/576 623/1/577 613/1/837
f 513/1/657 521/1/407 514/1/719 505/1/853
f 166/1/471 175/1/196 156/1/195 157/1/315
f 472/1/788 479/1/809 480/1/11 477/1/14
f 606/1/528 615/1/848 614/1/740 599/1/529
f 618/1/181 627/1/438 619/1/802
f 473/1/598 482/1/686 461/1/592 467/1/599
f 636/1/159 654/1/421 645/1/422 637/1/791
f 85/1/57 101/1/56 80/1/138 79/1/137
f 636/1/159 637/1/791 631/1/117 630/1/120
f 627/1/438 628/1/118 631/1/117
f 200/1/410 204/1/325 196/1/324 195/1/397
f 613/1/837 623/1/577 622/1/119 620/1/278
f 822/1/794 953/1/487 562/1/744 949/1/743
f 941/1/884 833/1/885 832/1/819 837/1/818
f 461/1/592 482/1/686 460/1/685 453/1/309
f 481/1/570 486/1/812 482/1/686 473/1/598
f 631/1/117 637/1/791 638/1/792
f 76/1/85 77/1/552 70/1/551 75/1/86
f 483/1/13 533/1/660 491/1/222 484/1/839
f 768/1/886 769/1/517 764/1/346 735/1/887
f 212/1/427 213/1/273 181/1/289 205/1/369
f 155/1/311 157/1/315 149/1/314 148/1/292
f 637/1/791 645/1/422 644/1/777
f 358/1/790 365/1/888 364/1/588 359/1/399
f 638/1/792 643/1/785 646/1/889
f 487/1/569 493/1/760 486/1/812 481/1/570
f 286/1/46 293/1/234 218/1/267 219/1/439
f 856/1/833 859/1/832 860/1/890 858/1/891
f 344/1/578 390/1/620 351/1/619 342/1/579
f 594/1/847 606/1/528 576/1/527 588/1/169
f 697/1/671 717/1/841 716/1/864 711/1/687
f 643/1/785 651/1/784 646/1/889
f 600/1/508 601/1/674 590/1/875 582/1/549
f 286/1/46 303/1/49 288/1/200 293/1/234
f 636/1/159 655/1/141 654/1/421
f 340/1/764 349/1/861 345/1/523 338/1/525
f 156/1/195 158/1/192 134/1/191 149/1/314
f 651/1/784 652/1/597 658/1/596
f 549/1/188 565/1/615 548/1/698 542/1/189
f 95/1/212 99/1/42 74/1/41 91/1/213
f 500/1/643 537/1/60 531/1/145 522/1/405
f 436/1/282 435/1/600 428/1/883 429/1/279
f 933/1/892 936/1/413 934/1/844 929/1/893
f 611/1/727 616/1/179 607/1/507 610/1/506
f 649/1/860 668/1/604 664/1/808 657/1/621
f 95/1/212 112/1/486 107/1/490 99/1/42
f 788/1/539 796/1/663 770/1/518 769/1/517
f 752/1/779 760/1/894 739/1/231 744/1/230
f 779/1/431 773/1/434 746/1/871 760/1/894
f 449/1/895 904/1/209 419/1/878 442/1/499
f 259/1/625 260/1/305 245/1/304 255/1/626
f 120/1/513 242/1/251 126/1/250 121/1/259
f 822/1/794 827/1/896 815/1/711 817/1/453
f 573/1/488 574/1/171 528/1/247 566/1/246
f 252/1/504 270/1/746 254/1/623 253/1/505
f 719/1/732 803/1/648 790/1/897 775/1/733
f 929/1/893 934/1/844 578/1/684 579/1/726
f 560/1/722 561/1/703 556/1/409 510/1/263
f 450/1/476 466/1/789 464/1/840 458/1/441
f 207/1/898 216/1/716 198/1/610 199/1/609
f 386/1/781 411/1/780 396/1/725 387/1/852
f 266/1/572 267/1/163 246/1/306 260/1/305
f 567/1/704 585/1/461 589/1/464 568/1/548
f 797/1/521 828/1/899 811/1/340 791/1/389
f 913/1/900 919/1/901 900/1/902 907/1/903
f 824/1/165 780/1/184 774/1/869 762/1/708
f 686/1/344 705/1/343 699/1/483 693/1/730
f 778/1/904 779/1/431 760/1/894 752/1/779
f 946/1/697 564/1/696 942/1/683 837/1/818
f 259/1/625 285/1/68 266/1/572 260/1/305
f 227/1/762 228/1/424 222/1/423 223/1/866
f 941/1/884 943/1/380 838/1/805 833/1/885
f 831/1/817 949/1/743 563/1/563 946/1/697
f 371/1/905 372/1/906 364/1/588 365/1/888
f 702/1/102 722/1/862 709/1/354 703/1/103
f 495/1/825 496/1/568 475/1/567 474/1/800
f 145/1/21 152/1/24 119/1/489 139/1/652
f 625/1/804 635/1/602 626/1/907 615/1/848
f 789/1/537 790/1/897 806/1/908 800/1/909
f 452/1/202 465/1/587 444/1/910 445/1/806
f 791/1/389 811/1/340 794/1/339 783/1/390
f 922/1/534 916/1/665 587/1/543 557/1/535
f 665/1/835 672/1/384 389/1/387 662/1/850
f 519/1/458 560/1/722 510/1/263 511/1/262
f 938/1/381 943/1/380 941/1/884 937/1/682
f 735/1/887 764/1/346 742/1/349 734/1/690
f 557/1/535 580/1/542 553/1/765 552/1/536
f 551/1/298 552/1/536 547/1/766 546/1/299
f 913/1/900 931/1/911 925/1/859 919/1/901
f 900/1/902 919/1/901 903/1/823 901/1/822
f 407/1/205 414/1/912 415/1/828 413/1/109
f 800/1/909 801/1/715 795/1/538 789/1/537
f 903/1/823 924/1/130 889/1/129 895/1/824
f 335/1/706 338/1/525 336/1/398 337/1/401
f 740/1/827 741/1/497 706/1/150 732/1/149
f 659/1/417 388/1/655 380/1/882 379/1/414
f 478/1/913 479/1/809 472/1/788 476/1/787
f 471/1/586 931/1/911 478/1/913 476/1/787
f 804/1/750 805/1/753 733/1/826 799/1/914
f 921/1/774 932/1/915 928/1/843 920/1/775
f 935/1/916 939/1/411 936/1/413 933/1/892
f 661/1/654 662/1/850 389/1/387 388/1/655
f 820/1/739 825/1/712 801/1/715 800/1/909
f 478/1/913 930/1/879 485/1/296 479/1/809
f 925/1/859 924/1/130 903/1/823 919/1/901
f 251/1/286 294/1/236 263/1/226 258/1/229
f 634/1/783 682/1/782 683/1/917 676/1/603
f 151/1/23 161/1/178 146/1/918 147/1/575
f 737/1/233 736/1/232 729/1/707 734/1/690
f 683/1/917 701/1/447 695/1/446 690/1/333
f 396/1/725 431/1/724 394/1/851 387/1/852
f 416/1/695 417/1/693 409/1/689 408/1/688
f 725/1/148 731/1/865 733/1/826
f 725/1/148 733/1/826 732/1/149
f 873/1/821 895/1/824 874/1/53 871/1/874
f 905/1/880 907/1/903 899/1/919 898/1/920
f 474/1/800 468/1/493 501/1/767 495/1/825
f 551/1/298 926/1/297 906/1/921 922/1/534
f 728/1/375 735/1/887 734/1/690 729/1/707
f 162/1/320 171/1/331 166/1/471 157/1/315
f 642/1/220 688/1/455 689/1/815 682/1/782
f 888/1/207 890/1/797 883/1/51 882/1/50
f 892/1/922 899/1/919 893/1/923 885/1/96
f 635/1/602 668/1/604 649/1/860 626/1/907
f 341/1/705 348/1/512 339/1/763 335/1/706
f 906/1/921 926/1/297 905/1/880 898/1/920
f 267/1/163 271/1/162 240/1/484 246/1/306
f 710/1/482 731/1/865 725/1/148 718/1/151
f 422/1/807 445/1/806 444/1/910 414/1/912
f 598/1/742 603/1/728 597/1/462 592/1/836
f 249/1/228 264/1/227 256/1/155 250/1/249
f 909/1/667 917/1/666 896/1/924 897/1/925
f 909/1/667 897/1/925 902/1/926 908/1/868
f 478/1/913 931/1/911 913/1/900 930/1/879
f 905/1/880 930/1/879 913/1/900 907/1/903
f 888/1/207 904/1/209 449/1/895 890/1/797
f 109/1/55 117/1/215 118/1/218 110/1/252
f 750/1/776 758/1/927 751/1/734
f 750/1/776 757/1/348 758/1/927
f 751/1/734 758/1/927 759/1/533
f 731/1/865 754/1/872 761/1/928
f 731/1/865 761/1/928 733/1/826
f 241/1/287 242/1/251 120/1/513 234/1/502
f 434/1/498 781/1/929 449/1/895 442/1/499
f 418/1/737 774/1/869 434/1/498 427/1/501
f 834/1/702 840/1/751 804/1/750 810/1/341
f 757/1/348 765/1/347 758/1/927
f 759/1/533 758/1/927 766/1/244
f 491/1/222 492/1/225 457/1/442 484/1/839
f 677/1/334 696/1/105 684/1/104 678/1/460
f 146/1/918 169/1/736 141/1/793 142/1/761
f 754/1/872 731/1/865 716/1/864 747/1/873
f 381/1/386 681/1/385 374/1/607 373/1/731
f 765/1/347 770/1/518 758/1/927
f 829/1/713 825/1/712 952/1/770 951/1/769
f 894/1/403 902/1/926 897/1/925 891/1/404
f 766/1/244 758/1/927 772/1/241
f 684/1/104 698/1/670 679/1/237 678/1/460
f 772/1/241 758/1/927 777/1/391
f 864/1/930 870/1/931 869/1/932 863/1/933
f 898/1/920 899/1/919 892/1/922 896/1/924
f 891/1/404 892/1/922 885/1/96 886/1/95
f 726/1/374 768/1/886 735/1/887 728/1/375
f 899/1/919 907/1/903 900/1/902 893/1/923
f 739/1/231 760/1/894 746/1/871 738/1/845
f 780/1/184 781/1/929 434/1/498 774/1/869
f 361/1/473 368/1/319 369/1/318 362/1/877
f 405/1/204 408/1/688 406/1/124 399/1/795
f 777/1/391 758/1/927 784/1/388
f 896/1/924 917/1/666 906/1/921 898/1/920
f 382/1/749 693/1/730 397/1/478 390/1/620
f 399/1/795 406/1/124 391/1/123 392/1/608
f 699/1/483 718/1/151 706/1/150 700/1/479
f 244/1/745 284/1/855 283/1/65 277/1/624
f 380/1/882 381/1/386 373/1/731 372/1/906
f 368/1/319 367/1/595 377/1/547 376/1/316
f 925/1/859 931/1/911 471/1/586 927/1/201
f 784/1/388 758/1/927 792/1/522
f 777/1/391 783/1/390 776/1/242 772/1/241
f 944/1/412 947/1/934 945/1/379 940/1/378
f 553/1/765 580/1/542 579/1/726 571/1/613
f 869/1/932 880/1/94 878/1/97 868/1/935
f 782/1/540 788/1/539 769/1/517 768/1/886
f 770/1/518 796/1/663 758/1/927
f 792/1/522 758/1/927 798/1/392
f 603/1/728 610/1/506 595/1/463 597/1/462
f 302/1/661 307/1/430 297/1/429 298/1/710
f 796/1/663 802/1/662 758/1/927
f 340/1/764 338/1/525 335/1/706 339/1/763
f 879/1/936 901/1/822 873/1/821 872/1/937
f 165/1/323 174/1/366 172/1/336 163/1/321
f 790/1/897 789/1/537 782/1/540 775/1/733
f 802/1/662 807/1/714 758/1/927
f 548/1/698 565/1/615 564/1/696 559/1/562
f 715/1/863 713/1/445 708/1/444 714/1/849
f 863/1/933 869/1/932 868/1/935 867/1/938
f 879/1/936 872/1/937 868/1/935 878/1/97
f 626/1/907 649/1/860 640/1/617 624/1/616
f 867/1/938 868/1/935 872/1/937 865/1/939
f 444/1/910 451/1/838 415/1/828 414/1/912
f 948/1/771 952/1/770 830/1/738 838/1/805
f 833/1/885 826/1/449 821/1/448 832/1/819
f 370/1/302 756/1/709 356/1/509 363/1/834
f 712/1/649 714/1/849 708/1/444 707/1/814
f 373/1/731 366/1/589 364/1/588 372/1/906
f 508/1/699 509/1/408 545/1/31 517/1/59
f 283/1/65 285/1/68 259/1/625 277/1/624
f 615/1/848 626/1/907 624/1/616 614/1/740
f 495/1/825 501/1/767 504/1/261 503/1/260
f 822/1/794 949/1/743 831/1/817 827/1/896
f 890/1/797 449/1/895 781/1/929 787/1/798
f 463/1/494 469/1/801 436/1/282 437/1/281
f 780/1/184 835/1/940 787/1/798 781/1/929
f 562/1/744 953/1/487 573/1/488 566/1/246
f 826/1/449 833/1/885 838/1/805 830/1/738
f 715/1/863 722/1/862 702/1/102 713/1/445
f 807/1/714 829/1/713 758/1/927
f 723/1/941 747/1/873 716/1/864 717/1/841
f 815/1/711 827/1/896 821/1/448 816/1/451
f 593/1/530 599/1/529 598/1/742 592/1/836
f 444/1/910 465/1/587 459/1/786 451/1/838
f 828/1/899 797/1/521 834/1/702
f 865/1/939 872/1/937 873/1/821 871/1/874
f 457/1/442 492/1/225 462/1/491 456/1/443
f 592/1/836 597/1/462 585/1/461 584/1/721
f 809/1/647 816/1/451 814/1/450 806/1/908
f 863/1/933 865/1/939 862/1/942 859/1/832
f 436/1/282 469/1/801 470/1/601 435/1/600
f 884/1/799 787/1/798 835/1/940 841/1/943
f 839/1/395 845/1/944 844/1/701
f 424/1/881 428/1/883 432/1/591 423/1/694
f 506/1/759 501/1/767 468/1/493 499/1/492
f 798/1/392 758/1/927 847/1/393
f 865/1/939 871/1/874 866/1/584 862/1/942
f 874/1/53 895/1/824 889/1/129 882/1/50
f 876/1/582 884/1/799 841/1/943 877/1/583
f 818/1/945 850/1/32 842/1/35
f 133/1/290 148/1/292 149/1/314 134/1/191
f 818/1/945 849/1/946 850/1/32
f 367/1/595 395/1/594 386/1/781 377/1/547
f 910/1/208 911/1/646 419/1/878 904/1/209
f 847/1/393 758/1/927 855/1/580
f 854/1/947 852/1/948 846/1/394 853/1/581
f 525/1/559 526/1/772 516/1/561 515/1/758
f 855/1/580 758/1/927 857/1/830
f 928/1/843 933/1/892 929/1/893 586/1/544
f 846/1/394 852/1/948 845/1/944 839/1/395
f 857/1/830 758/1/927 861/1/831
f 859/1/832 862/1/942 860/1/890
f 168/1/177 169/1/736 146/1/918 161/1/178
f 87/1/514 88/1/516 78/1/520 86/1/541
f 861/1/831 758/1/927 864/1/930
f 41/1/74 49/1/79 50/1/91 42/1/75
f 863/1/933 867/1/938 865/1/939
f 885/1/96 893/1/923 879/1/936 878/1/97
f 881/1/949 887/1/402 886/1/95 880/1/94
f 864/1/930 758/1/927 870/1/931
f 828/1/899 834/1/702 810/1/341 811/1/340
f 379/1/414 380/1/882 372/1/906 371/1/905
f 848/1/829 849/1/946 812/1/752 840/1/751
f 59/1/100 61/1/100 60/1/100 58/1/100
f 848/1/829 851/1/33 850/1/32 849/1/946
f 208/1/419 217/1/435 211/1/313 204/1/325
f 803/1/648 809/1/647 806/1/908 790/1/897
f 689/1/815 701/1/447 683/1/917 682/1/782
f 268/1/198 269/1/156 256/1/155 264/1/227
f 818/1/945 819/1/167 748/1/692 813/1/856
f 870/1/931 758/1/927 881/1/949
f 812/1/752 849/1/946 818/1/945 813/1/856
f 875/1/52 883/1/51 876/1/582
f 876/1/582 883/1/51 884/1/799
f 818/1/945 842/1/35 823/1/164 819/1/167
f 785/1/432 786/1/950 794/1/339 793/1/338
f 794/1/339 786/1/950 776/1/242 783/1/390
f 801/1/715 807/1/714 802/1/662 795/1/538
f 881/1/949 758/1/927 887/1/402
f 107/1/490 147/1/575 98/1/43 99/1/42
f 900/1/902 901/1/822 879/1/936 893/1/923
f 572/1/614 942/1/683 564/1/696 565/1/615
f 683/1/917 690/1/333 669/1/332 676/1/603
f 614/1/740 624/1/616 612/1/618 605/1/741
f 932/1/915 935/1/916 933/1/892 928/1/843
f 786/1/950 785/1/432 779/1/431 778/1/904
f 887/1/402 758/1/927 894/1/403
f 421/1/107 424/1/881 416/1/695 412/1/108
f 771/1/243 778/1/904 752/1/779 753/1/532
f 947/1/934 950/1/768 948/1/771 945/1/379
f 793/1/338 799/1/914 767/1/433 785/1/432
f 742/1/349 757/1/348 750/1/776 743/1/691
f 894/1/403 758/1/927 902/1/926
f 719/1/732 720/1/377 715/1/863 714/1/849
f 524/1/223 525/1/559 515/1/758 498/1/224
f 767/1/433 799/1/914 733/1/826 761/1/928
f 704/1/820 724/1/353 723/1/941 717/1/841
f 814/1/450 820/1/739 800/1/909 806/1/908
f 308/1/256 321/1/357 313/1/356 307/1/430
f 902/1/926 758/1/927 908/1/868
f 471/1/586 476/1/787 459/1/786 465/1/587
f 664/1/808 666/1/673 663/1/622 657/1/621
f 439/1/645 923/1/203 452/1/202 445/1/806
f 56/1/101 54/1/951 53/1/951 55/1/99
f 859/1/832 861/1/831 864/1/930 863/1/933
f 754/1/872 773/1/434 767/1/433 761/1/928
f 775/1/733 782/1/540 768/1/886 726/1/374
f 908/1/868 758/1/927 915/1/773
f 786/1/950 778/1/904 771/1/243 776/1/242
f 421/1/107 429/1/279 428/1/883 424/1/881
f 793/1/338 810/1/341 804/1/750 799/1/914
f 934/1/844 938/1/381 937/1/682 578/1/684
f 483/1/13 539/1/12 540/1/190 533/1/660
f 695/1/446 713/1/445 702/1/102 696/1/105
f 98/1/43 147/1/575 146/1/918 142/1/761
f 53/1/951 54/1/951 52/1/93 51/1/92
f 915/1/773 758/1/927 921/1/774
f 830/1/738 952/1/770 825/1/712 820/1/739
f 730/1/352 738/1/845 723/1/941 724/1/353
f 189/1/382 197/1/362 184/1/370 183/1/365
f 914/1/668 920/1/775 587/1/543 916/1/665
f 115/1/526 234/1/502 120/1/513 113/1/515
f 184/1/370 185/1/470 176/1/351 183/1/365
f 746/1/871 747/1/873 723/1/941 738/1/845
f 547/1/766 539/1/12 480/1/11 546/1/299
f 694/1/454 808/1/650 712/1/649 707/1/814
f 188/1/274 192/1/277 177/1/368 180/1/367
f 11/1/98 12/1/98 8/1/8 10/1/10
f 400/1/796 422/1/807 414/1/912 407/1/205
f 921/1/774 758/1/927 932/1/915
f 853/1/581 855/1/580 857/1/830 856/1/833
f 870/1/931 881/1/949 880/1/94 869/1/932
f 932/1/915 758/1/927 935/1/916
f 382/1/749 390/1/620 344/1/578 375/1/590
f 745/1/735 744/1/230 737/1/233 743/1/691
f 856/1/833 858/1/891 854/1/947 853/1/581
f 297/1/429 314/1/428 272/1/160 292/1/571
f 935/1/916 758/1/927 939/1/411
f 586/1/544 929/1/893 579/1/726 580/1/542
f 923/1/203 910/1/208 912/1/132 918/1/131
f 248/1/496 255/1/626 245/1/304 238/1/481
f 831/1/817 832/1/819 821/1/448 827/1/896
f 261/1/133 262/1/135 140/1/152 257/1/157
f 939/1/411 758/1/927 944/1/412
f 612/1/618 613/1/837 604/1/729 605/1/741
f 815/1/711 816/1/451 809/1/647 808/1/650
f 937/1/682 941/1/884 837/1/818 942/1/683
f 634/1/783 625/1/804 594/1/847 633/1/221
f 944/1/412 758/1/927 947/1/934
f 922/1/534 906/1/921 917/1/666 916/1/665
f 419/1/878 911/1/646 396/1/725 411/1/780
f 420/1/106 443/1/477 438/1/440 430/1/280
f 947/1/934 758/1/927 950/1/768
f 758/1/927 951/1/769 950/1/768
f 758/1/927 829/1/713 951/1/769
f 755/1/166 756/1/709 370/1/302 749/1/301
f 891/1/404 897/1/925 896/1/924 892/1/922
f 72/1/436 73/1/294 70/1/551 69/1/553
f 954/1/810 68/1/756 955/1/952
f 68/1/756 957/1/755 958/1/953
f 68/1/756 958/1/953 959/1/954
f 68/1/756 959/1/954 960/1/955
f 68/1/756 960/1/955 955/1/952
f 956/1/811 961/1/956 46/1/115
f 46/1/115 963/1/957 962/1/116
f 46/1/115 961/1/956 964/1/958
f 46/1/115 964/1/958 963/1/957
f 763/1/510 418/1/737 410/1/672 355/1/511
