# Blender 4.3.2
# www.blender.org
o hair.030
v 8.098257 1.182785 0.021029
v 8.118013 1.201830 0.022889
v 8.100573 1.177464 0.021965
v 8.096844 1.187247 0.020030
v 8.103090 1.172891 0.022554
v 8.124750 1.182353 0.003724
v 8.095811 1.179411 0.019378
v 8.106709 1.179564 0.027776
v 8.095608 1.171421 0.018437
v 8.108563 1.183120 0.030182
v 8.095721 1.163041 0.016869
v 8.110417 1.186676 0.031881
v 8.096369 1.154661 0.014780
v 8.112364 1.190671 0.033169
v 8.096244 1.159247 0.009950
v 8.114309 1.194667 0.033941
v 8.096119 1.164328 0.005617
v 8.118292 1.203096 0.034504
v 8.097308 1.156796 0.003613
v 8.124750 1.197227 0.020107
v 8.124750 1.180566 0.035051
v 8.118792 1.197518 0.035657
v 8.119809 1.192452 0.036234
v 8.122639 1.184666 0.035869
v 8.120955 1.188662 0.036369
v 8.098498 1.149264 0.000519
v 8.099503 1.154004 -0.005890
v 8.100508 1.158744 -0.011209
v 8.102954 1.151474 -0.014589
v 8.113514 1.156523 -0.013420
v 8.131487 1.201830 0.022889
v 8.126862 1.184666 0.035869
v 8.106232 1.145050 -0.018441
v 8.119244 1.151153 -0.028195
v 8.124750 1.145050 -0.028975
v 8.110700 1.151174 -0.022861
v 8.124750 1.155195 -0.015394
v 8.114838 1.157954 -0.026636
v 8.128546 1.188662 0.036369
v 8.135986 1.156523 -0.013420
v 8.130257 1.151153 -0.028195
v 8.129691 1.192452 0.036234
v 8.134663 1.157954 -0.026636
v 8.138801 1.151174 -0.022861
v 8.143269 1.145050 -0.018441
v 8.146546 1.151474 -0.014589
v 8.130709 1.197518 0.035657
v 8.148993 1.158744 -0.011209
v 8.131208 1.203096 0.034504
v 8.149998 1.154004 -0.005890
v 8.135191 1.194667 0.033941
v 8.151002 1.149264 0.000519
v 8.137136 1.190671 0.033169
v 8.152192 1.156796 0.003613
v 8.139083 1.186676 0.031881
v 8.153381 1.164328 0.005617
v 8.140937 1.183120 0.030182
v 8.153256 1.159247 0.009950
v 8.142792 1.179564 0.027776
v 8.153131 1.154661 0.014780
v 8.146410 1.172891 0.022554
v 8.153779 1.163041 0.016869
v 8.152657 1.187247 0.020030
v 8.153893 1.171421 0.018437
v 8.153689 1.179411 0.019378
v 8.151243 1.182785 0.021029
v 8.148928 1.177464 0.021965
v 8.105584 1.157768 -0.022217
v 8.105937 1.151046 -0.020268
v 8.101900 1.158340 -0.017310
v 8.109754 1.157807 -0.024769
v 8.105273 1.162361 -0.023442
v 8.102954 1.151474 -0.014589
v 8.110700 1.151174 -0.022861
v 8.106232 1.145050 -0.018441
v 8.100508 1.158744 -0.011209
v 8.099890 1.162942 -0.013844
v 8.101820 1.162707 -0.018767
v 8.113909 1.162631 -0.027901
v 8.114838 1.157954 -0.026636
v 8.109179 1.162554 -0.025833
v 8.104978 1.168366 -0.025115
v 8.099503 1.154004 -0.005890
v 8.098353 1.158144 -0.007869
v 8.097771 1.162615 -0.009462
v 8.102184 1.168745 -0.021123
v 8.099667 1.169146 -0.017027
v 8.096824 1.170172 -0.011396
v 8.119500 1.157989 -0.029687
v 8.119244 1.151153 -0.028195
v 8.108790 1.168450 -0.027134
v 8.104914 1.180153 -0.028507
v 8.098498 1.149264 0.000519
v 8.096642 1.157323 -0.002820
v 8.095742 1.162852 -0.004252
v 8.093706 1.179359 -0.006087
v 8.091909 1.173491 -0.021886
v 8.094714 1.171275 -0.005464
v 8.121498 1.152628 -0.029419
v 8.124750 1.145050 -0.028975
v 8.112665 1.168588 -0.028866
v 8.097308 1.156796 0.003613
v 8.095518 1.163858 0.001156
v 8.094508 1.171886 -0.000915
v 8.097314 1.194690 -0.018462
v 8.124750 1.152422 -0.030015
v 8.128002 1.152628 -0.029419
v 8.130257 1.151153 -0.028195
v 8.118557 1.168629 -0.030762
v 8.119015 1.162573 -0.030114
v 8.096119 1.164328 0.005617
v 8.095095 1.172565 0.003591
v 8.124750 1.158130 -0.030652
v 8.130000 1.157989 -0.029687
v 8.134663 1.157954 -0.026636
v 8.124750 1.177227 -0.033093
v 8.124750 1.168768 -0.032033
v 8.124750 1.162788 -0.031244
v 8.094392 1.172151 0.010629
v 8.095132 1.163685 0.011585
v 8.096244 1.159247 0.009950
v 8.130486 1.162573 -0.030114
v 8.135592 1.162631 -0.027901
v 8.139747 1.157807 -0.024769
v 8.138801 1.151174 -0.022861
v 8.113299 1.171384 -0.038001
v 8.130943 1.168629 -0.030762
v 8.096369 1.154661 0.014780
v 8.140321 1.162554 -0.025833
v 8.140710 1.168450 -0.027134
v 8.136835 1.168588 -0.028866
v 8.143563 1.151046 -0.020268
v 8.143269 1.145050 -0.018441
v 8.115216 1.192628 -0.032922
v 8.095721 1.163041 0.016869
v 8.144523 1.168366 -0.025115
v 8.144587 1.180153 -0.028507
v 8.144227 1.162361 -0.023442
v 8.136201 1.171384 -0.038001
v 8.146546 1.151474 -0.014589
v 8.134284 1.192628 -0.032922
v 8.124750 1.192158 -0.031780
v 8.095608 1.171421 0.018437
v 8.143916 1.157768 -0.022217
v 8.147600 1.158340 -0.017310
v 8.148993 1.158744 -0.011209
v 8.138591 1.192138 -0.029262
v 8.133561 1.198624 -0.030981
v 8.124750 1.197908 -0.029795
v 8.115939 1.198624 -0.030981
v 8.095070 1.175733 0.015153
v 8.095811 1.179411 0.019378
v 8.143480 1.192320 -0.027429
v 8.137991 1.198249 -0.028279
v 8.124750 1.203776 -0.027364
v 8.116876 1.204206 -0.028581
v 8.110909 1.192138 -0.029262
v 8.111509 1.198249 -0.028279
v 8.093886 1.180184 0.011240
v 8.096844 1.187247 0.020030
v 8.147680 1.162707 -0.018767
v 8.106020 1.192320 -0.027429
v 8.101770 1.193465 -0.022751
v 8.106819 1.198309 -0.026500
v 8.108212 1.204565 -0.025099
v 8.147316 1.168745 -0.021123
v 8.149611 1.162942 -0.013844
v 8.103004 1.198888 -0.021933
v 8.099036 1.199513 -0.017543
v 8.096417 1.193284 -0.012417
v 8.119931 1.212145 -0.023768
v 8.121841 1.208331 -0.025945
v 8.087513 1.177391 0.002969
v 8.100920 1.204236 -0.016536
v 8.097500 1.198760 -0.011865
v 8.093733 1.192132 -0.006867
v 8.124750 1.211349 -0.023177
v 8.127659 1.208331 -0.025945
v 8.132625 1.204206 -0.028581
v 8.090498 1.189999 0.004344
v 8.094252 1.189270 0.011503
v 8.129569 1.212145 -0.023768
v 8.141289 1.204565 -0.025099
v 8.093597 1.195423 0.011696
v 8.092378 1.196364 0.005112
v 8.095822 1.191670 0.019342
v 8.097715 1.187860 0.022598
v 8.098257 1.182785 0.021029
v 8.093113 1.190920 -0.001128
v 8.142681 1.198309 -0.026500
v 8.096014 1.198704 0.018244
v 8.095298 1.201558 0.012196
v 8.094493 1.202644 0.005974
v 8.097624 1.192840 0.024324
v 8.099561 1.184591 0.026472
v 8.101369 1.178100 0.024298
v 8.100573 1.177464 0.021965
v 8.093674 1.197372 -0.000834
v 8.094973 1.198279 -0.006673
v 8.146497 1.198888 -0.021933
v 8.100945 1.185687 0.030019
v 8.098941 1.189034 0.026884
v 8.102765 1.179581 0.027922
v 8.103090 1.172891 0.022554
v 8.096862 1.206085 0.002197
v 8.097439 1.204124 -0.006106
v 8.100560 1.189834 0.030900
v 8.100468 1.194884 0.031303
v 8.106709 1.179564 0.027776
v 8.105120 1.182643 0.030685
v 8.103455 1.186418 0.032332
v 8.097699 1.206818 0.012754
v 8.096077 1.206730 0.006225
v 8.103906 1.212118 -0.014011
v 8.103636 1.190776 0.033760
v 8.098159 1.197017 0.025424
v 8.108563 1.183120 0.030182
v 8.106312 1.186866 0.033109
v 8.100048 1.212483 0.006745
v 8.098353 1.205806 0.018285
v 8.104847 1.215099 -0.030615
v 8.100858 1.199207 0.030751
v 8.098717 1.201361 0.024418
v 8.099091 1.204654 0.021990
v 8.110417 1.186676 0.031881
v 8.101312 1.210035 0.019223
v 8.109933 1.217815 -0.023066
v 8.103651 1.195392 0.034015
v 8.101145 1.203456 0.028500
v 8.101511 1.207447 0.024365
v 8.089111 1.215099 -0.005138
v 8.100728 1.211525 0.013636
v 8.115067 1.220007 -0.015381
v 8.107800 1.191259 0.034639
v 8.104937 1.209453 0.027057
v 8.102561 1.219517 -0.003178
v 8.104411 1.214548 0.016427
v 8.121228 1.214668 -0.020673
v 8.119477 1.218475 -0.015760
v 8.105278 1.212714 0.021859
v 8.112364 1.190671 0.033169
v 8.112908 1.216679 -0.007904
v 8.111031 1.221009 -0.002078
v 8.110347 1.219608 0.004487
v 8.124750 1.217316 -0.016045
v 8.128272 1.214668 -0.020673
v 8.121260 1.219412 -0.011317
v 8.110806 1.214521 0.024253
v 8.118163 1.220621 -0.010747
v 8.115791 1.218860 -0.006193
v 8.104206 1.215675 0.011622
v 8.130023 1.218475 -0.015760
v 8.108562 1.216103 0.018792
v 8.107356 1.217132 0.014425
v 8.104463 1.204903 0.031380
v 8.108756 1.205443 0.033163
v 8.109783 1.210391 0.029577
v 8.120258 1.220737 -0.007326
v 8.118647 1.219427 -0.004246
v 8.115045 1.216913 0.020111
v 8.103780 1.200114 0.033333
v 8.114504 1.209635 0.030920
v 8.122330 1.219782 -0.007863
v 8.122203 1.220605 -0.004170
v 8.124750 1.219461 -0.007587
v 8.124750 1.218905 -0.011145
v 8.115962 1.213451 0.026254
v 8.118637 1.216258 0.020712
v 8.117764 1.218941 0.015454
v 8.124750 1.219973 -0.004391
v 8.121243 1.219960 -0.002485
v 8.124750 1.220565 -0.000038
v 8.128241 1.219412 -0.011317
v 8.120479 1.211900 0.027845
v 8.105329 1.221656 0.016166
v 8.107293 1.222698 0.010809
v 8.117915 1.221121 -0.001147
v 8.134433 1.220007 -0.015381
v 8.113082 1.204443 0.034355
v 8.118406 1.208162 0.031844
v 8.111210 1.222345 0.016780
v 8.103722 1.226430 0.017662
v 8.114723 1.221141 -0.001623
v 8.144653 1.215099 -0.030615
v 8.139567 1.217815 -0.023066
v 8.107096 1.200283 0.034836
v 8.109485 1.225298 0.013191
v 8.145595 1.212118 -0.014011
v 8.148581 1.204236 -0.016536
v 8.115169 1.223745 0.008787
v 8.114881 1.220405 0.002896
v 8.150464 1.199513 -0.017543
v 8.147730 1.193465 -0.022751
v 8.109450 1.195202 0.035428
v 8.118043 1.220474 0.001911
v 8.152186 1.194690 -0.018462
v 8.111343 1.199766 0.035560
v 8.114309 1.194667 0.033941
v 8.120860 1.220857 -0.000708
v 8.155794 1.179359 -0.006087
v 8.157591 1.173491 -0.021886
v 8.153083 1.193284 -0.012417
v 8.149834 1.169146 -0.017027
v 8.118292 1.203096 0.034504
v 8.120930 1.220558 0.001032
v 8.152000 1.198760 -0.011865
v 8.155767 1.192132 -0.006867
v 8.152677 1.170172 -0.011396
v 8.120837 1.207893 0.032787
v 8.119951 1.222071 0.004550
v 8.122072 1.221403 0.002580
v 8.152061 1.204124 -0.006106
v 8.151730 1.162615 -0.009462
v 8.154786 1.171275 -0.005464
v 8.153758 1.162852 -0.004252
v 8.117695 1.222844 0.006675
v 8.122078 1.219893 0.007467
v 8.123314 1.220208 0.004273
v 8.151147 1.158144 -0.007869
v 8.149998 1.154004 -0.005890
v 8.154992 1.171886 -0.000915
v 8.153982 1.163858 0.001156
v 8.152858 1.157323 -0.002820
v 8.120661 1.219586 0.010958
v 8.123289 1.219406 0.007613
v 8.124750 1.219882 0.004181
v 8.151002 1.149264 0.000519
v 8.154406 1.172565 0.003591
v 8.153381 1.164328 0.005617
v 8.152192 1.156796 0.003613
v 8.122577 1.218885 0.010945
v 8.121193 1.217869 0.015192
v 8.124750 1.219339 0.007185
v 8.126211 1.219406 0.007613
v 8.126186 1.220208 0.004273
v 8.155108 1.172151 0.010629
v 8.154368 1.163685 0.011585
v 8.153256 1.159247 0.009950
v 8.124750 1.217342 0.015301
v 8.124750 1.218741 0.010532
v 8.122020 1.215068 0.021172
v 8.126924 1.218885 0.010945
v 8.127422 1.219893 0.007467
v 8.127428 1.221403 0.002580
v 8.153131 1.154661 0.014780
v 8.153893 1.171421 0.018437
v 8.153779 1.163041 0.016869
v 8.124750 1.214505 0.021627
v 8.124750 1.212139 0.027768
v 8.122952 1.208437 0.032643
v 8.128571 1.220558 0.001032
v 8.129549 1.222071 0.004550
v 8.154430 1.175733 0.015153
v 8.153689 1.179411 0.019378
v 8.129022 1.211900 0.027845
v 8.127481 1.215068 0.021172
v 8.121034 1.203570 0.035425
v 8.131805 1.222844 0.006675
v 8.131457 1.220474 0.001911
v 8.155614 1.180184 0.011240
v 8.152657 1.187247 0.020030
v 8.130863 1.216258 0.020712
v 8.128307 1.217869 0.015192
v 8.121344 1.199381 0.036723
v 8.118792 1.197518 0.035657
v 8.124750 1.204185 0.035751
v 8.161987 1.177391 0.002969
v 8.131736 1.218941 0.015454
v 8.128839 1.219586 0.010958
v 8.121675 1.195499 0.037369
v 8.122068 1.192220 0.037817
v 8.119809 1.192452 0.036234
v 8.124750 1.208677 0.032526
v 8.159002 1.189999 0.004344
v 8.134332 1.223745 0.008787
v 8.124750 1.192203 0.038438
v 8.124750 1.195332 0.038222
v 8.120955 1.188662 0.036369
v 8.126548 1.208437 0.032643
v 8.155249 1.189270 0.011503
v 8.156387 1.190920 -0.001128
v 8.157123 1.196364 0.005112
v 8.124750 1.199226 0.037444
v 8.123096 1.188809 0.037742
v 8.124750 1.184808 0.037002
v 8.122639 1.184666 0.035869
v 8.155903 1.195423 0.011696
v 8.153678 1.191670 0.019342
v 8.151785 1.187860 0.022598
v 8.151243 1.182785 0.021029
v 8.155827 1.197372 -0.000834
v 8.155007 1.202644 0.005974
v 8.124750 1.188793 0.038207
v 8.124750 1.180566 0.035051
v 8.154528 1.198279 -0.006673
v 8.126405 1.188809 0.037742
v 8.127432 1.192220 0.037817
v 8.127825 1.195499 0.037369
v 8.126862 1.184666 0.035869
v 8.128546 1.188662 0.036369
v 8.154202 1.201558 0.012196
v 8.129691 1.192452 0.036234
v 8.130709 1.197518 0.035657
v 8.128157 1.199381 0.036723
v 8.153486 1.198704 0.018244
v 8.151801 1.206818 0.012754
v 8.151147 1.205806 0.018285
v 8.152638 1.206085 0.002197
v 8.131208 1.203096 0.034504
v 8.128467 1.203570 0.035425
v 8.148189 1.210035 0.019223
v 8.150410 1.204654 0.021990
v 8.151876 1.192840 0.024324
v 8.149452 1.212483 0.006745
v 8.153423 1.206730 0.006225
v 8.128663 1.207893 0.032787
v 8.151341 1.197017 0.025424
v 8.149033 1.194884 0.031303
v 8.150559 1.189034 0.026884
v 8.149940 1.184591 0.026472
v 8.160389 1.215099 -0.005138
v 8.150784 1.201361 0.024418
v 8.148131 1.178100 0.024298
v 8.148928 1.177464 0.021965
v 8.136592 1.216679 -0.007904
v 8.146939 1.219517 -0.003178
v 8.148772 1.211525 0.013636
v 8.147989 1.207447 0.024365
v 8.148355 1.203456 0.028500
v 8.148643 1.199207 0.030751
v 8.146410 1.172891 0.022554
v 8.138470 1.221009 -0.002078
v 8.139153 1.219608 0.004487
v 8.145089 1.214548 0.016427
v 8.144222 1.212714 0.021859
v 8.144564 1.209453 0.027057
v 8.145038 1.204903 0.031380
v 8.145720 1.200114 0.033333
v 8.145849 1.195392 0.034015
v 8.146735 1.179581 0.027922
v 8.142792 1.179564 0.027776
v 8.145294 1.215675 0.011622
v 8.138694 1.214521 0.024253
v 8.139717 1.210391 0.029577
v 8.140744 1.205443 0.033163
v 8.142405 1.200283 0.034836
v 8.145864 1.190776 0.033760
v 8.148940 1.189834 0.030900
v 8.144381 1.182643 0.030685
v 8.140937 1.183120 0.030182
v 8.142144 1.217132 0.014425
v 8.134996 1.209635 0.030920
v 8.136418 1.204443 0.034355
v 8.148555 1.185687 0.030019
v 8.139083 1.186676 0.031881
v 8.146046 1.186418 0.032332
v 8.143188 1.186866 0.033109
v 8.140939 1.216103 0.018792
v 8.131094 1.208162 0.031844
v 8.138157 1.199766 0.035560
v 8.141700 1.191259 0.034639
v 8.137136 1.190671 0.033169
v 8.134456 1.216913 0.020111
v 8.133538 1.213451 0.026254
v 8.135191 1.194667 0.033941
v 8.140050 1.195202 0.035428
v 8.144172 1.221656 0.016166
v 8.142207 1.222698 0.010809
v 8.138290 1.222345 0.016780
v 8.140016 1.225298 0.013191
v 8.145779 1.226430 0.017662
v 8.134620 1.220405 0.002896
v 8.134777 1.221141 -0.001623
v 8.131585 1.221121 -0.001147
v 8.133709 1.218860 -0.006193
v 8.130854 1.219427 -0.004246
v 8.128640 1.220857 -0.000708
v 8.128258 1.219960 -0.002485
v 8.131337 1.220621 -0.010747
v 8.129242 1.220737 -0.007326
v 8.127297 1.220605 -0.004170
v 8.127171 1.219782 -0.007863
vn 0.1994 -0.1118 -0.9735
vn 0.1014 -0.9912 -0.0853
vn 0.1480 -0.0685 -0.9866
vn 0.8012 -0.5839 0.1312
vn 0.5309 -0.2645 -0.8051
vn 0.4839 -0.5371 0.6909
vn 0.4818 -0.1243 0.8674
vn 0.8890 -0.4572 -0.0265
vn 0.4870 -0.1375 0.8625
vn 0.8902 -0.4553 -0.0145
vn 0.4963 -0.1660 0.8521
vn 0.8918 -0.4524 -0.0090
vn 0.7243 -0.6400 0.2563
vn 0.8973 -0.4411 0.0144
vn 0.3775 -0.6448 -0.6646
vn 0.8996 -0.4364 0.0187
vn 0.5313 -0.8226 0.2027
vn -0.4687 -0.8769 0.1068
vn 0.2671 -0.2908 0.9187
vn -0.0000 -0.6677 -0.7444
vn -0.0000 -0.7917 -0.6109
vn -0.9873 -0.1586 0.0066
vn -0.9623 -0.2657 -0.0573
vn -0.8924 -0.3994 -0.2102
vn -0.9273 -0.3480 -0.1376
vn 0.7318 -0.6100 0.3039
vn 0.7586 -0.5661 -0.3226
vn 0.4349 -0.7560 0.4893
vn 0.0753 -0.4910 0.8679
vn 0.2244 -0.7634 0.6057
vn -0.1014 -0.9912 -0.0853
vn 0.8924 -0.3994 -0.2102
vn 0.5509 -0.6025 0.5775
vn -0.7779 -0.6239 -0.0749
vn -0.0000 -0.9510 0.3092
vn 0.8443 -0.5334 0.0505
vn -0.0000 -0.8012 0.5984
vn -0.3983 -0.9068 -0.1381
vn 0.9273 -0.3480 -0.1376
vn -0.2244 -0.7634 0.6057
vn 0.7779 -0.6239 -0.0749
vn 0.9623 -0.2657 -0.0573
vn 0.3983 -0.9068 -0.1381
vn -0.8443 -0.5334 0.0505
vn -0.5509 -0.6025 0.5775
vn -0.0753 -0.4910 0.8679
vn -0.4839 -0.5371 0.6909
vn 0.9873 -0.1586 0.0066
vn -0.4349 -0.7560 0.4893
vn 0.4687 -0.8769 0.1068
vn -0.7586 -0.5661 -0.3226
vn -0.8996 -0.4364 0.0187
vn -0.7318 -0.6100 0.3039
vn -0.8973 -0.4411 0.0144
vn -0.2671 -0.2908 0.9187
vn -0.8918 -0.4524 -0.0090
vn -0.5313 -0.8226 0.2027
vn -0.8902 -0.4553 -0.0145
vn -0.3775 -0.6448 -0.6646
vn -0.8890 -0.4572 -0.0265
vn -0.7243 -0.6400 0.2563
vn -0.5309 -0.2645 -0.8051
vn -0.4963 -0.1660 0.8521
vn -0.8012 -0.5839 0.1312
vn -0.4870 -0.1375 0.8625
vn -0.4818 -0.1243 0.8674
vn -0.1994 -0.1118 -0.9735
vn -0.1480 -0.0685 -0.9866
vn -0.0000 0.9389 0.3441
vn -0.0000 0.9753 0.2211
vn 0.2206 0.9422 0.2523
vn 0.2153 0.9100 0.3542
vn 0.4133 -0.2803 -0.8664
vn 0.6637 -0.2563 -0.7027
vn 0.6811 -0.2625 -0.6835
vn 0.4364 -0.2893 -0.8520
vn 0.6597 -0.2244 -0.7173
vn 0.4307 -0.2483 -0.8677
vn 0.0066 0.3523 0.9358
vn -0.0407 0.0674 0.9969
vn 0.2397 0.2025 0.9495
vn 0.2647 0.4992 0.8251
vn -0.6811 -0.2625 -0.6835
vn -0.7274 -0.2324 -0.6457
vn -0.8834 -0.2290 -0.4088
vn -0.4364 -0.2893 -0.8520
vn -0.8914 -0.2272 -0.3921
vn -0.8669 -0.3095 -0.3907
vn 0.8625 -0.1959 -0.4666
vn 0.8916 -0.2351 -0.3870
vn 0.8669 -0.3095 -0.3907
vn 0.8914 -0.2272 -0.3921
vn 0.3857 -0.2251 -0.8947
vn 0.4105 -0.2454 -0.8782
vn -0.4133 -0.2803 -0.8664
vn -0.4105 -0.2454 -0.8782
vn 0.6564 -0.2139 -0.7234
vn 0.8406 -0.1617 -0.5170
vn -0.5283 0.2498 0.8115
vn -0.2397 0.2025 0.9495
vn -0.2647 0.4992 0.8251
vn -0.5460 0.4962 0.6750
vn -0.8854 -0.3608 -0.2930
vn -0.8239 -0.3596 -0.4381
vn 0.8807 -0.2548 -0.3994
vn 0.8239 -0.3596 -0.4381
vn 0.1314 0.9767 -0.1699
vn 0.0858 0.9941 -0.0658
vn 0.2652 0.9468 -0.1826
vn 0.3369 0.9113 -0.2366
vn 0.9095 -0.1389 -0.3918
vn 0.8054 -0.4385 -0.3988
vn 0.7996 0.2128 0.5616
vn 0.9252 0.1289 0.3568
vn 0.8985 0.2841 0.3347
vn 0.7861 0.3968 0.4739
vn 0.3462 -0.1604 -0.9243
vn 0.4318 -0.1866 -0.8825
vn 0.3133 -0.1555 -0.9369
vn 0.3889 -0.4259 -0.8170
vn 0.4234 -0.2362 -0.8746
vn -0.6564 -0.2139 -0.7234
vn -0.6214 -0.0203 -0.7833
vn -0.4234 -0.2362 -0.8746
vn -0.8406 -0.1617 -0.5170
vn -0.8054 -0.4385 -0.3988
vn 0.9509 -0.2667 -0.1571
vn 0.9728 -0.2313 -0.0126
vn 0.9510 -0.2763 -0.1384
vn 0.8854 -0.3608 -0.2930
vn -0.9509 -0.2667 -0.1571
vn 0.9739 -0.1445 -0.1752
vn 0.9670 -0.1898 -0.1701
vn 0.2010 0.9743 -0.1015
vn 0.1736 0.9797 -0.1005
vn -0.0434 0.9915 -0.1226
vn -0.0621 0.9891 -0.1339
vn -0.9095 -0.1389 -0.3918
vn -0.9703 -0.0992 -0.2208
vn -0.7747 -0.4493 -0.4449
vn -0.9739 -0.1445 -0.1752
vn -0.4318 -0.1866 -0.8825
vn -0.3133 -0.1555 -0.9369
vn -0.0000 -0.1772 -0.9842
vn -0.3889 -0.4259 -0.8170
vn -0.0000 0.9809 0.1945
vn 0.2263 0.9527 0.2030
vn 0.9945 -0.0820 0.0648
vn 0.9857 -0.1494 0.0780
vn -0.9945 -0.0820 0.0648
vn 0.8509 0.2870 -0.4399
vn 0.9562 0.1991 -0.2147
vn 0.9703 -0.0992 -0.2208
vn 0.7747 -0.4493 -0.4449
vn 0.6214 -0.0203 -0.7833
vn 0.6515 0.2380 -0.7203
vn -0.0000 -0.1273 -0.9919
vn -0.0000 -0.1168 -0.9932
vn 0.2545 0.7102 0.6563
vn 0.5527 0.6614 0.5071
vn 0.5489 0.7463 0.3765
vn 0.2258 0.8463 0.4824
vn -0.9728 -0.2313 -0.0126
vn -0.9900 -0.1413 -0.0023
vn -0.9857 -0.1493 0.0780
vn 0.5460 0.4962 0.6750
vn -0.9420 -0.3335 0.0383
vn -0.7566 0.5874 0.2872
vn -0.7666 0.6092 0.2029
vn -0.8715 0.4469 0.2017
vn -0.8742 0.4169 0.2489
vn -0.0000 0.9853 -0.1711
vn -0.2493 0.9506 -0.1848
vn -0.2400 0.9381 -0.2499
vn -0.0000 0.9749 -0.2227
vn 0.5519 0.1208 -0.8251
vn 0.5446 0.2508 -0.8003
vn 0.4331 0.2671 -0.8609
vn 0.1217 0.4456 -0.8869
vn -0.2733 -0.1058 -0.9561
vn -0.0000 -0.1033 -0.9947
vn -0.0000 -0.1251 -0.9921
vn 0.9273 0.3099 0.2101
vn 0.9561 0.1194 0.2677
vn 0.9726 0.2320 0.0178
vn 0.9367 0.3502 0.0074
vn -0.7031 0.5777 -0.4147
vn -0.3369 0.9113 -0.2366
vn -0.1314 0.9767 -0.1699
vn -0.1240 0.9624 -0.2419
vn -0.9865 -0.1507 -0.0634
vn -0.9923 -0.1202 -0.0299
vn -0.3004 -0.1625 -0.9399
vn -0.0000 -0.1227 -0.9924
vn -0.3462 -0.1604 -0.9243
vn -0.3857 -0.2251 -0.8947
vn -0.0000 0.4012 -0.9160
vn 0.2142 0.3583 -0.9087
vn -0.0000 0.3430 -0.9393
vn -0.1789 -0.5397 -0.8227
vn 0.2733 -0.1058 -0.9561
vn 0.9923 -0.1202 -0.0299
vn 0.9932 -0.0934 0.0691
vn 0.9907 -0.1358 -0.0003
vn 0.9865 -0.1507 -0.0634
vn -0.4307 -0.2483 -0.8677
vn 0.7566 0.5357 0.3749
vn 0.7274 -0.2324 -0.6457
vn -0.0000 0.2357 -0.9718
vn 0.2290 0.2642 -0.9369
vn 0.1789 -0.5397 -0.8227
vn -0.2290 0.2642 -0.9369
vn -0.6597 -0.2244 -0.7173
vn 0.8834 -0.2290 -0.4088
vn -0.0141 0.6679 0.7442
vn 0.0486 0.8239 0.5647
vn -0.2258 0.8463 0.4824
vn -0.2545 0.7102 0.6563
vn -0.6637 -0.2563 -0.7027
vn -0.8625 -0.1959 -0.4666
vn 0.5066 0.2205 -0.8335
vn -0.5066 0.2205 -0.8335
vn -0.4331 0.2671 -0.8609
vn -0.2142 0.3583 -0.9087
vn -0.9889 -0.0268 0.1462
vn -0.9815 -0.0344 0.1882
vn -0.9973 -0.0731 0.0106
vn -0.9718 0.0183 0.2352
vn 0.5443 0.1643 -0.8227
vn 0.3004 -0.1625 -0.9399
vn -0.1217 0.4456 -0.8869
vn 0.5283 0.2498 0.8115
vn 0.3103 0.2031 0.9287
vn 0.2598 0.3745 0.8901
vn -0.0000 0.4377 0.8991
vn -0.0000 0.2351 0.9720
vn -0.9308 -0.0715 0.3586
vn 0.9308 -0.0715 0.3586
vn 0.9324 0.0345 0.3597
vn 0.9471 -0.1069 0.3027
vn 0.9718 0.0183 0.2352
vn -0.2263 0.9527 0.2030
vn -0.3651 0.9033 0.2255
vn -0.0000 0.9767 0.2145
vn -0.5443 0.1643 -0.8227
vn -0.6515 0.2380 -0.7203
vn -0.9534 0.1211 -0.2763
vn -0.8009 0.4006 -0.4452
vn -0.9053 0.3175 -0.2821
vn -0.8916 -0.2351 -0.3870
vn 0.0293 0.9846 -0.1726
vn 0.1156 0.9722 -0.2038
vn 0.6941 0.3030 -0.6530
vn -0.5446 0.2508 -0.8003
vn -0.6941 0.3030 -0.6530
vn -0.5519 0.1208 -0.8251
vn -0.8823 0.4700 -0.0260
vn -0.9367 0.3502 0.0074
vn -0.9273 0.3099 0.2101
vn 0.8227 0.3616 -0.4386
vn 0.9053 0.3175 -0.2821
vn 0.1902 0.5963 -0.7799
vn 0.0783 0.4850 -0.8710
vn -0.9219 -0.3873 0.0066
vn -0.8227 0.3616 -0.4386
vn 0.9187 0.2881 -0.2702
vn 0.9567 0.0782 -0.2805
vn -0.9562 0.1991 -0.2147
vn -0.9567 0.0782 -0.2805
vn -0.0000 0.6453 -0.7639
vn 0.0028 -0.1153 0.9933
vn 0.1769 -0.1468 0.9732
vn 0.0407 0.0674 0.9969
vn -0.0783 0.4850 -0.8710
vn 0.9504 0.1490 -0.2730
vn 0.9869 0.1582 0.0315
vn 0.9219 -0.3873 0.0066
vn -0.1902 0.5963 -0.7799
vn -0.9324 0.0345 0.3597
vn -0.9471 -0.1069 0.3027
vn -0.9516 -0.0701 0.2993
vn 0.9454 0.1814 0.2709
vn 0.9516 -0.0701 0.2993
vn 0.9377 -0.0210 0.3467
vn 0.9308 -0.1632 0.3270
vn 0.8830 -0.2717 0.3827
vn 0.9047 -0.2710 0.3288
vn -0.9504 0.1490 -0.2730
vn 0.9426 0.2781 -0.1847
vn -0.9670 -0.1898 -0.1701
vn -0.9561 0.1194 0.2677
vn -0.9454 0.1814 0.2709
vn 0.8251 -0.3855 0.4130
vn 0.8522 -0.3726 0.3674
vn -0.9047 -0.2710 0.3288
vn -0.8830 -0.2717 0.3827
vn -0.9308 -0.1632 0.3270
vn 0.7566 0.5874 0.2872
vn 0.8702 0.3903 0.3007
vn 0.8742 0.4169 0.2489
vn -0.9187 0.2881 -0.2702
vn 0.7272 -0.3105 0.6122
vn 0.9251 -0.1198 0.3604
vn 0.7962 -0.1288 0.5911
vn -0.9251 -0.1198 0.3604
vn -0.9377 -0.0210 0.3467
vn -0.4366 -0.5607 0.7035
vn -0.1017 -0.5592 0.8228
vn -0.3978 -0.3505 0.8479
vn -0.7272 -0.3105 0.6122
vn -0.8251 -0.3855 0.4130
vn -0.5883 -0.5345 0.6068
vn -0.8522 -0.3726 0.3674
vn 0.9534 0.1211 -0.2763
vn 0.8625 0.4672 -0.1942
vn 0.8009 0.4006 -0.4452
vn 0.7031 0.5777 -0.4147
vn 0.8086 0.0285 0.5876
vn 0.0760 -0.6430 0.7620
vn 0.1017 -0.5592 0.8228
vn -0.1736 -0.5701 0.8030
vn -0.0760 -0.6430 0.7621
vn 0.4366 -0.5607 0.7035
vn 0.3978 -0.3505 0.8479
vn 0.8823 0.4700 -0.0260
vn 0.8715 0.4469 0.2017
vn -0.8625 0.4672 -0.1942
vn 0.4284 -0.1612 0.8891
vn 0.2483 -0.3393 0.9073
vn 0.0132 -0.2548 0.9669
vn -0.0132 -0.2548 0.9669
vn -0.0185 -0.4113 0.9113
vn 0.0185 -0.4113 0.9113
vn -0.0486 0.8239 0.5647
vn -0.0311 0.8276 0.5604
vn 0.0743 0.6310 0.7722
vn 0.0141 0.6679 0.7442
vn -0.7444 0.6107 0.2701
vn -0.9426 0.2781 -0.1847
vn -0.4957 0.3199 -0.8074
vn -0.9252 0.1289 0.3568
vn -0.8985 0.2841 0.3347
vn -0.8702 0.3903 0.3007
vn 0.4205 0.8747 0.2409
vn 0.3651 0.9033 0.2255
vn 0.7666 0.6092 0.2029
vn 0.4729 0.0191 0.8809
vn -0.9539 0.2794 -0.1092
vn 0.1240 0.9624 -0.2419
vn 0.4147 0.9061 -0.0835
vn 0.5917 0.7839 0.1882
vn 0.7444 0.6107 0.2701
vn 0.2746 0.9530 -0.1283
vn 0.2010 0.6165 0.7613
vn 0.0886 0.6832 0.7249
vn -0.0028 -0.1153 0.9933
vn -0.2746 0.9530 -0.1283
vn -0.8086 0.0285 0.5876
vn -0.7996 0.2128 0.5616
vn -0.6099 0.7408 0.2816
vn 0.0373 0.7745 -0.6314
vn 0.2503 0.8651 -0.4347
vn 0.1519 0.8815 0.4471
vn 0.1290 0.8975 0.4217
vn -0.4147 0.9061 -0.0835
vn -0.1156 0.9722 -0.2038
vn -0.0000 0.8840 -0.4676
vn -0.0373 0.7745 -0.6314
vn -0.1290 0.8975 0.4217
vn -0.0000 0.9152 0.4031
vn -0.0000 0.8678 0.4970
vn -0.2503 0.8651 -0.4347
vn -0.0000 0.1271 0.9919
vn 0.3553 0.1038 0.9290
vn -0.5489 0.7463 0.3765
vn -0.9907 -0.1358 -0.0003
vn -0.9932 -0.0934 0.0691
vn -0.5917 0.7839 0.1882
vn -0.3599 0.8606 0.3604
vn -0.7061 0.5861 0.3973
vn -0.0114 0.9999 -0.0036
vn -0.5165 -0.2311 0.8245
vn -0.3840 -0.2085 0.8995
vn -0.4082 -0.0406 0.9120
vn -0.5676 -0.0770 0.8197
vn 0.3599 0.8606 0.3604
vn 0.7061 0.5861 0.3973
vn -0.2500 0.8416 0.4788
vn 0.0362 0.9177 0.3956
vn -0.0362 0.9177 0.3956
vn -0.8807 -0.2548 -0.3994
vn 0.0114 0.9999 -0.0036
vn -0.0238 0.9996 0.0129
vn 0.2493 0.9506 -0.1848
vn -0.9726 0.2320 0.0178
vn -0.9869 0.1582 0.0315
vn -0.4729 0.0191 0.8809
vn -0.4284 -0.1612 0.8891
vn -0.2153 0.9100 0.3542
vn -0.1519 0.8815 0.4471
vn -0.0000 0.9954 -0.0959
vn 0.0238 0.9996 0.0129
vn -0.0000 0.9986 -0.0529
vn 0.0096 0.9850 -0.1720
vn 0.2400 0.9381 -0.2499
vn -0.0858 0.9941 -0.0658
vn 0.2500 0.8416 0.4788
vn -0.7661 -0.4553 0.4536
vn -0.7411 0.3518 -0.5719
vn -0.0954 0.9863 -0.1347
vn -0.0717 0.9884 -0.1341
vn 0.1165 0.9848 -0.1289
vn 0.1544 0.3013 0.9410
vn 0.3054 0.2508 0.9186
vn -0.6592 0.5755 0.4840
vn 0.6099 0.7408 0.2816
vn 0.4957 0.3199 -0.8074
vn 0.9420 -0.3335 0.0383
vn 0.9900 -0.1413 -0.0023
vn -0.3054 0.2508 0.9186
vn -0.1353 0.9855 -0.1023
vn -0.1509 0.9852 -0.0811
vn 0.1353 0.9855 -0.1023
vn -0.2282 -0.4487 0.8641
vn 0.1509 0.9852 -0.0811
vn -0.8509 0.2870 -0.4399
vn -0.1769 -0.1468 0.9732
vn -0.2483 -0.3393 0.9073
vn 0.0434 0.9915 -0.1226
vn 0.0621 0.9891 -0.1339
vn -0.0096 0.9850 -0.1720
vn 0.0954 0.9863 -0.1347
vn -0.0000 -0.1841 0.9829
vn 0.3840 -0.2085 0.8995
vn 0.4082 -0.0406 0.9120
vn -0.0000 0.0023 1.0000
vn 0.1303 0.9804 -0.1476
vn -0.0743 0.6310 0.7722
vn -0.2010 0.6165 0.7613
vn 0.0311 0.8276 0.5604
vn -0.2010 0.9743 -0.1015
vn -0.1736 0.9797 -0.1005
vn -0.1781 0.9807 -0.0812
vn 0.1736 -0.5701 0.8030
vn -0.4205 0.8747 0.2409
vn -0.4015 0.8639 0.3040
vn -0.0886 0.6832 0.7249
vn -0.0000 0.7120 0.7022
vn -0.2206 0.9422 0.2523
vn 0.5165 -0.2311 0.8245
vn -0.0000 -0.3768 0.9263
vn 0.4449 -0.3463 0.8259
vn 0.4015 0.8639 0.3040
vn 0.1781 0.9807 -0.0812
vn 0.9889 -0.0268 0.1462
vn 0.9973 -0.0731 0.0106
vn 0.9815 -0.0344 0.1882
vn -0.1544 0.3013 0.9410
vn -0.2598 0.3745 0.8901
vn -0.0066 0.3523 0.9358
vn 0.4596 0.1156 0.8806
vn -0.4596 0.1156 0.8806
vn -0.3553 0.1038 0.9290
vn -0.3103 0.2031 0.9287
vn -0.7962 -0.1288 0.5911
vn 0.5676 -0.0770 0.8197
vn -0.7861 0.3968 0.4739
vn -0.7566 0.5357 0.3749
vn 0.0717 0.9884 -0.1341
vn -0.1165 0.9848 -0.1289
vn -0.4449 -0.3463 0.8259
vn -0.0000 -0.4178 0.9085
vn 0.9539 0.2794 -0.1092
vn 0.5883 -0.5345 0.6068
vn -0.5527 0.6614 0.5071
vn -0.9510 -0.2763 -0.1384
vn 0.7411 0.3518 -0.5719
vn 0.2282 -0.4487 0.8641
vn -0.1303 0.9804 -0.1476
vn 0.7661 -0.4553 0.4536
vn 0.6592 0.5755 0.4840
vn -0.0293 0.9846 -0.1726
vn -0.2652 0.9468 -0.1826
vt 0.000000 0.000000
s 1
f 1/1/1 2/1/2 3/1/3
f 1/1/1 4/1/4 2/1/2
f 3/1/3 2/1/2 5/1/5
f 4/1/4 6/1/6 2/1/2
f 4/1/4 7/1/7 6/1/6
f 5/1/5 2/1/2 8/1/8
f 7/1/7 9/1/9 6/1/6
f 8/1/8 2/1/2 10/1/10
f 9/1/9 11/1/11 6/1/6
f 10/1/10 2/1/2 12/1/12
f 11/1/11 13/1/13 6/1/6
f 12/1/12 2/1/2 14/1/14
f 13/1/13 15/1/15 6/1/6
f 14/1/14 2/1/2 16/1/16
f 15/1/15 17/1/17 6/1/6
f 16/1/16 2/1/2 18/1/18
f 17/1/17 19/1/19 6/1/6
f 2/1/2 20/1/20 21/1/21
f 2/1/2 22/1/22 18/1/18
f 2/1/2 23/1/23 22/1/22
f 2/1/2 21/1/21 24/1/24
f 2/1/2 25/1/25 23/1/23
f 2/1/2 24/1/24 25/1/25
f 19/1/19 26/1/26 6/1/6
f 6/1/6 26/1/26 27/1/27
f 6/1/6 27/1/27 28/1/28
f 6/1/6 28/1/28 29/1/29
f 6/1/6 29/1/29 30/1/30
f 20/1/20 31/1/31 21/1/21
f 21/1/21 31/1/31 32/1/32
f 29/1/29 33/1/33 30/1/30
f 30/1/30 34/1/34 35/1/35
f 30/1/30 33/1/33 36/1/36
f 30/1/30 35/1/35 37/1/37
f 30/1/30 36/1/36 38/1/38
f 30/1/30 38/1/38 34/1/34
f 32/1/32 31/1/31 39/1/39
f 35/1/35 40/1/40 37/1/37
f 35/1/35 41/1/41 40/1/40
f 39/1/39 31/1/31 42/1/42
f 41/1/41 43/1/43 40/1/40
f 40/1/40 43/1/43 44/1/44
f 40/1/40 44/1/44 45/1/45
f 40/1/40 45/1/45 46/1/46
f 40/1/40 46/1/46 6/1/47
f 42/1/42 31/1/31 47/1/48
f 46/1/46 48/1/49 6/1/47
f 47/1/48 31/1/31 49/1/50
f 48/1/49 50/1/51 6/1/47
f 49/1/50 31/1/31 51/1/52
f 50/1/51 52/1/53 6/1/47
f 51/1/52 31/1/31 53/1/54
f 52/1/53 54/1/55 6/1/47
f 53/1/54 31/1/31 55/1/56
f 54/1/55 56/1/57 6/1/47
f 55/1/56 31/1/31 57/1/58
f 56/1/57 58/1/59 6/1/47
f 57/1/58 31/1/31 59/1/60
f 58/1/59 60/1/61 6/1/47
f 59/1/60 31/1/31 61/1/62
f 60/1/61 62/1/63 6/1/47
f 6/1/47 63/1/64 31/1/31
f 6/1/47 62/1/63 64/1/65
f 6/1/47 65/1/66 63/1/64
f 6/1/47 64/1/65 65/1/66
f 31/1/31 63/1/64 66/1/67
f 31/1/31 66/1/67 67/1/68
f 31/1/31 67/1/68 61/1/62
f 339/1/69 340/1/70 331/1/71 332/1/72
f 124/1/73 144/1/74 132/1/75 125/1/76
f 138/1/77 144/1/74 124/1/73 129/1/78
f 453/1/79 460/1/80 446/1/81 445/1/82
f 69/1/83 75/1/84 73/1/85
f 69/1/83 74/1/86 75/1/84
f 70/1/87 73/1/85 76/1/88
f 161/1/89 167/1/90 146/1/91 145/1/92
f 123/1/93 129/1/78 124/1/73 115/1/94
f 71/1/95 80/1/96 74/1/86
f 136/1/97 166/1/98 161/1/89 138/1/77
f 261/1/99 286/1/100 256/1/101 255/1/102
f 76/1/88 83/1/103 84/1/104
f 313/1/105 319/1/106 146/1/91 167/1/90
f 278/1/107 479/1/108 475/1/109 425/1/110
f 308/1/111 313/1/105 167/1/90 303/1/112
f 430/1/113 417/1/114 422/1/115 429/1/116
f 114/1/117 115/1/94 108/1/118 107/1/119
f 123/1/93 131/1/120 130/1/121 129/1/78
f 82/1/122 92/1/123 91/1/124
f 82/1/122 86/1/125 92/1/123
f 86/1/125 87/1/126 92/1/123
f 323/1/127 330/1/128 327/1/129 320/1/130
f 83/1/103 94/1/131 84/1/104
f 308/1/111 314/1/132 315/1/133 313/1/105
f 310/1/134 311/1/135 305/1/136 295/1/137
f 87/1/126 88/1/138 96/1/139
f 87/1/126 97/1/140 92/1/123
f 87/1/126 96/1/139 97/1/140
f 88/1/138 98/1/141 96/1/139
f 90/1/142 99/1/143 100/1/144
f 91/1/124 92/1/123 101/1/145
f 331/1/71 340/1/70 333/1/146 325/1/147
f 321/1/148 322/1/149 315/1/133 314/1/132
f 98/1/141 104/1/150 96/1/139
f 296/1/151 302/1/152 300/1/153 301/1/154
f 296/1/151 301/1/154 137/1/155 293/1/156
f 99/1/143 106/1/157 100/1/144
f 106/1/157 113/1/158 114/1/117 107/1/119
f 100/1/144 106/1/157 107/1/119
f 100/1/144 107/1/119 108/1/118
f 444/1/159 436/1/160 435/1/161 443/1/162
f 102/1/163 111/1/164 103/1/165
f 444/1/159 445/1/82 437/1/166 436/1/160
f 104/1/150 112/1/167 96/1/139
f 226/1/168 232/1/169 212/1/170 220/1/171
f 265/1/172 482/1/173 273/1/174 266/1/175
f 183/1/176 190/1/177 154/1/178 179/1/179
f 109/1/180 101/1/145 116/1/181
f 109/1/180 116/1/181 117/1/182
f 401/1/183 387/1/184 382/1/185 392/1/186
f 214/1/187 242/1/188 233/1/189 227/1/190
f 111/1/164 121/1/191 120/1/192
f 110/1/193 118/1/194 113/1/158 89/1/195
f 79/1/196 110/1/193 89/1/195 80/1/96
f 155/1/197 179/1/179 148/1/198 149/1/199
f 115/1/94 124/1/73 125/1/76
f 101/1/145 126/1/200 116/1/181
f 101/1/145 92/1/123 126/1/200
f 117/1/182 116/1/181 127/1/201
f 109/1/180 117/1/182 118/1/194 110/1/193
f 109/1/180 110/1/193 79/1/196 101/1/145
f 337/1/202 347/1/203 345/1/204 338/1/205
f 71/1/95 81/1/206 79/1/196 80/1/96
f 127/1/201 116/1/181 131/1/120
f 436/1/160 437/1/166 429/1/116 428/1/207
f 125/1/76 132/1/75 133/1/208
f 116/1/181 142/1/209 141/1/210 139/1/211
f 126/1/200 92/1/123 134/1/212
f 82/1/122 91/1/124 81/1/206 72/1/213
f 130/1/121 131/1/120 137/1/155
f 130/1/121 137/1/155 136/1/97
f 141/1/210 142/1/209 149/1/199 148/1/198
f 131/1/120 116/1/181 139/1/211
f 131/1/120 139/1/211 137/1/155
f 133/1/208 132/1/75 140/1/214
f 166/1/98 303/1/112 167/1/90 161/1/89
f 139/1/211 141/1/210 137/1/155
f 262/1/215 267/1/216 248/1/217 257/1/218
f 69/1/83 73/1/85 70/1/87 68/1/219
f 70/1/87 78/1/220 72/1/213 68/1/219
f 140/1/214 145/1/92 146/1/91
f 141/1/210 147/1/221 137/1/155
f 157/1/222 158/1/223 150/1/224 134/1/212
f 142/1/209 134/1/212 150/1/224 149/1/199
f 91/1/124 101/1/145 79/1/196 81/1/206
f 143/1/225 151/1/226 119/1/227
f 143/1/225 152/1/228 151/1/226
f 147/1/221 153/1/229 137/1/155
f 127/1/201 122/1/230 118/1/194 117/1/182
f 156/1/231 155/1/197 149/1/199 150/1/224
f 429/1/116 437/1/166 438/1/232 430/1/113
f 134/1/212 92/1/123 157/1/222
f 404/1/233 410/1/234 366/1/235 383/1/236
f 150/1/224 158/1/223 156/1/231
f 151/1/226 152/1/228 159/1/237
f 151/1/226 159/1/237 119/1/227
f 119/1/227 159/1/237 112/1/167
f 360/1/238 380/1/239 361/1/240 354/1/241
f 334/1/242 335/1/243 326/1/244 333/1/146
f 157/1/222 92/1/123 162/1/245
f 154/1/178 190/1/177 153/1/229 147/1/221
f 92/1/123 163/1/246 162/1/245
f 206/1/247 214/1/187 174/1/248 175/1/249
f 136/1/97 137/1/155 166/1/98
f 77/1/250 87/1/126 86/1/125 78/1/220
f 425/1/110 475/1/109 473/1/251 432/1/252
f 200/1/253 293/1/156 153/1/229 190/1/177
f 164/1/254 168/1/255 165/1/256
f 212/1/170 213/1/257 193/1/258 192/1/259
f 292/1/260 306/1/261 302/1/152 296/1/151
f 156/1/231 165/1/256 171/1/262
f 156/1/231 172/1/263 155/1/197
f 156/1/231 171/1/262 172/1/263
f 112/1/167 173/1/264 96/1/139
f 112/1/167 159/1/237 173/1/264
f 168/1/255 169/1/265 174/1/248
f 168/1/255 174/1/248 165/1/256
f 169/1/265 175/1/249 174/1/248
f 306/1/261 395/1/266 307/1/267 302/1/152
f 170/1/268 96/1/139 176/1/269
f 172/1/263 171/1/262 177/1/270
f 294/1/271 298/1/272 297/1/273 286/1/100
f 155/1/197 178/1/274 179/1/179
f 179/1/179 154/1/178 148/1/198
f 300/1/153 381/1/275 374/1/276 367/1/277
f 374/1/276 380/1/239 360/1/238 367/1/277
f 178/1/274 177/1/270 182/1/278
f 178/1/274 182/1/278 179/1/179
f 165/1/256 156/1/231 158/1/223 164/1/254
f 179/1/179 182/1/278 183/1/176
f 380/1/239 374/1/276 382/1/185 387/1/184
f 181/1/279 160/1/280 186/1/281
f 387/1/184 405/1/282 388/1/283 380/1/239
f 388/1/283 413/1/284 389/1/285 361/1/240
f 389/1/285 420/1/286 390/1/287 361/1/240
f 96/1/139 189/1/288 176/1/269
f 381/1/275 391/1/289 382/1/185 374/1/276
f 95/1/290 103/1/165 104/1/150 98/1/141
f 184/1/291 191/1/292 192/1/259
f 405/1/282 417/1/114 413/1/284 388/1/283
f 423/1/293 424/1/294 390/1/287 420/1/286
f 188/1/295 195/1/296 187/1/297 160/1/280
f 411/1/298 428/1/207 412/1/299 407/1/300
f 190/1/177 183/1/176 200/1/253
f 176/1/269 199/1/301 175/1/249 170/1/268
f 454/1/302 420/1/286 419/1/303 448/1/304
f 195/1/296 202/1/305 187/1/297
f 202/1/305 194/1/306 187/1/297
f 203/1/307 210/1/308 211/1/309 201/1/310
f 196/1/311 204/1/312 203/1/307
f 196/1/311 197/1/313 204/1/312
f 312/1/314 408/1/315 391/1/289 395/1/266
f 312/1/314 306/1/261 289/1/316 288/1/317
f 199/1/301 206/1/247 175/1/249
f 418/1/318 448/1/304 419/1/303 413/1/284
f 204/1/312 209/1/319 203/1/307
f 449/1/320 450/1/321 441/1/322 440/1/323
f 454/1/302 456/1/324 449/1/320 440/1/323
f 392/1/186 415/1/325 406/1/326 401/1/183
f 193/1/258 213/1/257 205/1/327
f 174/1/248 214/1/187 165/1/256
f 447/1/328 456/1/324 454/1/302 448/1/304
f 241/1/329 298/1/272 294/1/271 234/1/330
f 417/1/114 430/1/113 418/1/318 413/1/284
f 447/1/328 461/1/331 457/1/332 456/1/324
f 211/1/309 210/1/308 218/1/333
f 464/1/334 355/1/335 459/1/336 452/1/337
f 213/1/257 219/1/338 205/1/327
f 205/1/327 219/1/338 206/1/247
f 198/1/339 205/1/327 206/1/247 199/1/301
f 165/1/256 221/1/340 171/1/262
f 165/1/256 214/1/187 221/1/340
f 216/1/341 223/1/342 191/1/292
f 168/1/255 164/1/254 162/1/245 163/1/246
f 191/1/292 224/1/343 220/1/171
f 191/1/292 223/1/342 224/1/343
f 317/1/344 318/1/345 311/1/135 310/1/134
f 406/1/326 427/1/346 411/1/298 407/1/300
f 144/1/74 145/1/92 140/1/214 132/1/75
f 221/1/340 227/1/190 171/1/262
f 221/1/340 214/1/187 227/1/190
f 430/1/113 438/1/232 439/1/347 418/1/318
f 429/1/116 422/1/115 412/1/299 428/1/207
f 206/1/247 219/1/338 231/1/348
f 206/1/247 231/1/348 214/1/187
f 278/1/107 425/1/110 288/1/317 285/1/349
f 433/1/350 442/1/351 414/1/352 426/1/353
f 410/1/234 416/1/354 379/1/355 366/1/235
f 439/1/347 466/1/356 461/1/331 447/1/328
f 138/1/77 161/1/89 145/1/92 144/1/74
f 447/1/328 448/1/304 418/1/318 439/1/347
f 231/1/348 219/1/338 236/1/357
f 231/1/348 236/1/357 214/1/187
f 208/1/358 222/1/359 216/1/341 194/1/306
f 232/1/169 237/1/360 219/1/338
f 171/1/262 238/1/361 177/1/270
f 171/1/262 239/1/362 238/1/361
f 268/1/363 341/1/364 339/1/69 332/1/72
f 236/1/357 244/1/365 243/1/366
f 77/1/250 78/1/220 70/1/87 76/1/88
f 420/1/286 454/1/302 440/1/323 423/1/293
f 238/1/361 239/1/362 245/1/367
f 177/1/270 246/1/368 182/1/278
f 355/1/335 356/1/369 348/1/370 349/1/371
f 273/1/174 479/1/108 278/1/107 252/1/372
f 404/1/233 383/1/236 377/1/373 398/1/374
f 240/1/375 248/1/217 237/1/360
f 128/1/376 135/1/377 120/1/192 121/1/191
f 219/1/338 237/1/360 251/1/378
f 246/1/368 252/1/372 182/1/278
f 246/1/368 245/1/367 252/1/372
f 237/1/360 248/1/217 253/1/379
f 237/1/360 254/1/380 251/1/378
f 237/1/360 253/1/379 254/1/380
f 251/1/378 254/1/380 244/1/365
f 136/1/97 138/1/77 129/1/78 130/1/121
f 273/1/174 482/1/173 480/1/381 479/1/108
f 378/1/382 384/1/383 371/1/384 372/1/385
f 458/1/386 451/1/387 368/1/388 463/1/389
f 253/1/379 248/1/217 260/1/390
f 95/1/290 98/1/141 88/1/138 85/1/391
f 445/1/82 446/1/81 438/1/232 437/1/166
f 443/1/162 464/1/334 452/1/337 444/1/159
f 452/1/337 453/1/79 445/1/82 444/1/159
f 258/1/392 264/1/393 263/1/394
f 185/1/395 198/1/339 189/1/288 180/1/396
f 78/1/220 86/1/125 82/1/122 72/1/213
f 234/1/330 294/1/271 228/1/397 215/1/398
f 463/1/389 368/1/388 363/1/399 362/1/400
f 482/1/173 265/1/172 270/1/401 481/1/402
f 481/1/402 270/1/401 272/1/403 478/1/404
f 265/1/172 266/1/175 247/1/405 263/1/394
f 247/1/405 266/1/175 245/1/367 239/1/362
f 114/1/117 122/1/230 123/1/93 115/1/94
f 258/1/392 263/1/394 247/1/405 249/1/406
f 254/1/380 269/1/407 275/1/408
f 254/1/380 275/1/408 276/1/409
f 254/1/380 276/1/409 244/1/365
f 478/1/404 477/1/410 474/1/411 476/1/412
f 194/1/306 216/1/341 191/1/292 186/1/281
f 187/1/297 194/1/306 186/1/281 160/1/280
f 233/1/189 239/1/362 171/1/262 227/1/190
f 453/1/79 452/1/337 459/1/336 409/1/413
f 275/1/408 269/1/407 281/1/414
f 275/1/408 282/1/415 276/1/409
f 275/1/408 281/1/414 282/1/415
f 434/1/416 435/1/161 411/1/298 427/1/346
f 182/1/278 284/1/417 183/1/176
f 182/1/278 285/1/349 284/1/417
f 446/1/81 466/1/356 439/1/347 438/1/232
f 321/1/148 328/1/418 329/1/419 322/1/149
f 368/1/388 469/1/420 470/1/421 375/1/422
f 281/1/414 287/1/423 282/1/415
f 282/1/415 287/1/423 276/1/409
f 425/1/110 432/1/252 426/1/353 288/1/317
f 183/1/176 284/1/417 288/1/317
f 284/1/417 285/1/349 288/1/317
f 449/1/320 457/1/332 455/1/424 450/1/321
f 183/1/176 288/1/317 289/1/316
f 183/1/176 289/1/316 200/1/253
f 89/1/195 99/1/143 90/1/142 80/1/96
f 269/1/407 290/1/425 287/1/423 281/1/414
f 200/1/253 289/1/316 292/1/260
f 293/1/156 137/1/155 153/1/229
f 163/1/246 105/1/426 169/1/265 168/1/255
f 466/1/356 465/1/427 462/1/428 461/1/331
f 407/1/300 405/1/282 401/1/183 406/1/326
f 186/1/281 191/1/292 184/1/291 181/1/279
f 466/1/356 446/1/81 460/1/80 465/1/427
f 477/1/410 351/1/429 359/1/430 474/1/411
f 271/1/431 299/1/432 272/1/403
f 105/1/426 163/1/246 92/1/123 97/1/140
f 461/1/331 462/1/428 455/1/424 457/1/332
f 301/1/154 300/1/153 303/1/112
f 137/1/155 303/1/112 166/1/98
f 137/1/155 301/1/154 303/1/112
f 264/1/393 271/1/431 272/1/403 270/1/401
f 299/1/432 305/1/136 272/1/403
f 292/1/260 289/1/316 306/1/261
f 302/1/152 307/1/267 300/1/153
f 393/1/433 396/1/434 397/1/435 376/1/436
f 303/1/112 300/1/153 308/1/111
f 432/1/252 473/1/251 472/1/437 433/1/350
f 280/1/438 309/1/439 274/1/440
f 409/1/413 459/1/336 416/1/354 410/1/234
f 352/1/441 359/1/430 351/1/429 344/1/442
f 472/1/437 359/1/430 352/1/441 358/1/443
f 305/1/136 311/1/135 272/1/403
f 391/1/289 408/1/315 392/1/186 382/1/185
f 209/1/319 217/1/444 210/1/308 203/1/307
f 308/1/111 300/1/153 314/1/132
f 71/1/95 74/1/86 69/1/83 68/1/219
f 343/1/445 352/1/441 344/1/442 335/1/243
f 369/1/446 358/1/443 352/1/441 343/1/445
f 335/1/243 344/1/442 272/1/403 326/1/244
f 84/1/104 94/1/131 95/1/290 85/1/391
f 146/1/91 319/1/106 320/1/130
f 314/1/132 300/1/153 321/1/148
f 122/1/230 114/1/117 113/1/158 118/1/194
f 94/1/131 102/1/163 103/1/165 95/1/290
f 319/1/106 323/1/127 320/1/130
f 375/1/422 358/1/443 369/1/446 368/1/388
f 318/1/345 317/1/344 325/1/147
f 350/1/447 373/1/448 349/1/371 274/1/440
f 409/1/413 465/1/427 460/1/80 453/1/79
f 321/1/148 300/1/153 328/1/418
f 111/1/164 112/1/167 104/1/150 103/1/165
f 322/1/149 329/1/419 330/1/128
f 414/1/352 427/1/346 406/1/326 415/1/325
f 96/1/139 170/1/268 105/1/426 97/1/140
f 342/1/449 334/1/242 333/1/146 340/1/70
f 325/1/147 333/1/146 326/1/244 318/1/345
f 245/1/367 246/1/368 177/1/270 238/1/361
f 111/1/164 120/1/192 119/1/227 112/1/167
f 329/1/419 337/1/202 338/1/205
f 362/1/400 363/1/399 339/1/69 356/1/369
f 339/1/69 363/1/399 342/1/449 340/1/70
f 184/1/291 185/1/395 180/1/396 181/1/279
f 400/1/450 396/1/434 385/1/451 399/1/452
f 324/1/453 331/1/71 325/1/147 317/1/344
f 334/1/242 343/1/445 335/1/243
f 476/1/412 480/1/381 481/1/402 478/1/404
f 268/1/363 332/1/72 269/1/407 260/1/390
f 135/1/377 143/1/225 119/1/227 120/1/192
f 341/1/364 348/1/370 339/1/69
f 436/1/160 428/1/207 411/1/298 435/1/161
f 274/1/440 309/1/439 350/1/447
f 379/1/355 355/1/335 349/1/371 373/1/448
f 344/1/442 351/1/429 272/1/403
f 316/1/454 324/1/453 317/1/344 310/1/134
f 346/1/455 336/1/456 353/1/457
f 346/1/455 353/1/457 354/1/241
f 274/1/440 349/1/371 348/1/370 341/1/364
f 348/1/370 356/1/369 339/1/69
f 304/1/458 357/1/459 309/1/439 280/1/438
f 336/1/456 337/1/202 329/1/419 328/1/418
f 180/1/396 189/1/288 96/1/139 173/1/264
f 336/1/456 360/1/238 353/1/457
f 353/1/457 360/1/238 354/1/241
f 336/1/456 328/1/418 360/1/238
f 256/1/101 279/1/460 262/1/215 257/1/218
f 159/1/237 181/1/279 180/1/396 173/1/264
f 274/1/440 341/1/364 268/1/363 267/1/216
f 409/1/413 410/1/234 404/1/233 403/1/461
f 228/1/397 261/1/99 222/1/359 208/1/358
f 328/1/418 300/1/153 367/1/277
f 328/1/418 367/1/277 360/1/238
f 269/1/407 332/1/72 331/1/71 324/1/453
f 278/1/107 285/1/349 182/1/278 252/1/372
f 365/1/462 370/1/463 364/1/464
f 365/1/462 371/1/384 370/1/463
f 365/1/462 372/1/385 371/1/384
f 350/1/447 366/1/235 373/1/448
f 315/1/133 323/1/127 319/1/106 313/1/105
f 208/1/358 194/1/306 202/1/305 207/1/465
f 472/1/437 358/1/443 375/1/422 433/1/350
f 398/1/374 377/1/373 376/1/436 397/1/435
f 464/1/334 362/1/400 356/1/369 355/1/335
f 400/1/450 402/1/466 397/1/435 396/1/434
f 229/1/467 230/1/468 224/1/343 223/1/342
f 373/1/448 366/1/235 379/1/355
f 300/1/153 307/1/267 381/1/275
f 479/1/108 480/1/381 476/1/412 475/1/109
f 295/1/137 305/1/136 299/1/432 277/1/469
f 201/1/310 207/1/465 202/1/305 195/1/296
f 134/1/212 142/1/209 116/1/181 126/1/200
f 380/1/239 388/1/283 361/1/240
f 277/1/469 299/1/432 271/1/431 259/1/470
f 218/1/333 234/1/330 215/1/398 211/1/309
f 198/1/339 199/1/301 176/1/269 189/1/288
f 193/1/258 205/1/327 198/1/339 185/1/395
f 393/1/433 384/1/383 385/1/451
f 346/1/455 347/1/203 337/1/202 336/1/456
f 386/1/471 394/1/472 385/1/451
f 88/1/138 87/1/126 77/1/250 85/1/391
f 306/1/261 312/1/314 395/1/266
f 393/1/433 385/1/451 396/1/434
f 393/1/433 376/1/436 371/1/384 384/1/383
f 160/1/280 181/1/279 159/1/237 152/1/228
f 394/1/472 399/1/452 385/1/451
f 362/1/400 464/1/334 443/1/162 463/1/389
f 378/1/382 386/1/471 385/1/451 384/1/383
f 192/1/259 193/1/258 185/1/395 184/1/291
f 397/1/435 403/1/461 398/1/374
f 397/1/435 402/1/466 403/1/461
f 398/1/374 403/1/461 404/1/233
f 377/1/373 383/1/236 364/1/464 370/1/463
f 364/1/464 383/1/236 366/1/235 357/1/459
f 401/1/183 405/1/282 387/1/184
f 376/1/436 377/1/373 370/1/463 371/1/384
f 192/1/259 191/1/292 220/1/171 212/1/170
f 188/1/295 197/1/313 196/1/311 195/1/296
f 357/1/459 366/1/235 350/1/447 309/1/439
f 72/1/213 81/1/206 71/1/95 68/1/219
f 407/1/300 412/1/299 405/1/282
f 224/1/343 230/1/468 226/1/168 220/1/171
f 233/1/189 249/1/406 247/1/405 239/1/362
f 408/1/315 312/1/314 414/1/352
f 212/1/170 232/1/169 219/1/338 213/1/257
f 408/1/315 414/1/352 415/1/325
f 408/1/315 415/1/325 392/1/186
f 89/1/195 113/1/158 106/1/157 99/1/143
f 379/1/355 416/1/354 355/1/335
f 318/1/345 326/1/244 272/1/403 311/1/135
f 413/1/284 419/1/303 389/1/285
f 228/1/397 294/1/271 286/1/100 261/1/99
f 389/1/285 419/1/303 420/1/286
f 312/1/314 288/1/317 421/1/473
f 312/1/314 421/1/473 414/1/352
f 405/1/282 412/1/299 422/1/115
f 405/1/282 422/1/115 417/1/114
f 322/1/149 330/1/128 323/1/127 315/1/133
f 288/1/317 426/1/353 421/1/473
f 236/1/357 243/1/366 242/1/188 214/1/187
f 421/1/473 426/1/353 414/1/352
f 273/1/174 252/1/372 245/1/367 266/1/175
f 222/1/359 229/1/467 223/1/342 216/1/341
f 424/1/294 423/1/293 431/1/474
f 426/1/353 432/1/252 433/1/350
f 219/1/338 251/1/378 244/1/365 236/1/357
f 427/1/346 414/1/352 434/1/416
f 226/1/168 240/1/375 237/1/360 232/1/169
f 235/1/475 240/1/375 226/1/168 230/1/468
f 229/1/467 255/1/102 235/1/475 230/1/468
f 229/1/467 222/1/359 261/1/99 255/1/102
f 270/1/401 265/1/172 263/1/394 264/1/393
f 431/1/474 423/1/293 440/1/323
f 203/1/307 201/1/310 195/1/296 196/1/311
f 431/1/474 440/1/323 441/1/322
f 414/1/352 442/1/351 434/1/416
f 435/1/161 434/1/416 443/1/162
f 256/1/101 257/1/218 235/1/475 255/1/102
f 235/1/475 257/1/218 248/1/217 240/1/375
f 292/1/260 296/1/151 293/1/156 200/1/253
f 201/1/310 211/1/309 215/1/398 207/1/465
f 215/1/398 228/1/397 208/1/358 207/1/465
f 93/1/476 102/1/163 94/1/131 83/1/103
f 442/1/351 433/1/350 451/1/387
f 442/1/351 451/1/387 434/1/416
f 148/1/198 154/1/178 147/1/221 141/1/210
f 342/1/449 369/1/446 343/1/445 334/1/242
f 286/1/100 297/1/273 279/1/460 256/1/101
f 290/1/425 269/1/407 324/1/453 316/1/454
f 468/1/477 433/1/350 375/1/422 470/1/421
f 225/1/478 218/1/333 210/1/308 217/1/444
f 76/1/88 84/1/104 85/1/391 77/1/250
f 449/1/320 456/1/324 457/1/332
f 260/1/390 269/1/407 254/1/380 253/1/379
f 434/1/416 451/1/387 458/1/386
f 434/1/416 458/1/386 443/1/162
f 416/1/354 459/1/336 355/1/335
f 291/1/479 316/1/454 310/1/134 295/1/137
f 262/1/215 280/1/438 274/1/440 267/1/216
f 297/1/273 298/1/272 304/1/458 279/1/460
f 304/1/458 365/1/462 364/1/464 357/1/459
f 225/1/478 241/1/329 234/1/330 218/1/333
f 458/1/386 463/1/389 443/1/162
f 368/1/388 369/1/446 342/1/449 363/1/399
f 268/1/363 260/1/390 248/1/217 267/1/216
f 307/1/267 395/1/266 391/1/289 381/1/275
f 451/1/387 467/1/480 368/1/388
f 451/1/387 433/1/350 468/1/477
f 451/1/387 468/1/477 467/1/480
f 368/1/388 467/1/480 469/1/420
f 476/1/412 474/1/411 473/1/251 475/1/109
f 287/1/423 290/1/425 244/1/365 276/1/409
f 468/1/477 471/1/481 467/1/480
f 469/1/420 471/1/481 470/1/421
f 467/1/480 471/1/481 469/1/420
f 468/1/477 470/1/421 471/1/481
f 290/1/425 316/1/454 291/1/479 244/1/365
f 243/1/366 244/1/365 291/1/479 283/1/482
f 242/1/188 243/1/366 283/1/482 250/1/483
f 283/1/482 291/1/479 295/1/137 277/1/469
f 233/1/189 242/1/188 250/1/483 249/1/406
f 250/1/483 283/1/482 277/1/469 259/1/470
f 473/1/251 474/1/411 359/1/430 472/1/437
f 477/1/410 272/1/403 351/1/429
f 477/1/410 478/1/404 272/1/403
f 279/1/460 304/1/458 280/1/438 262/1/215
f 249/1/406 250/1/483 259/1/470 258/1/392
f 170/1/268 175/1/249 169/1/265 105/1/426
f 178/1/274 155/1/197 172/1/263 177/1/270
f 259/1/470 271/1/431 264/1/393 258/1/392
f 480/1/381 482/1/173 481/1/402
f 127/1/201 131/1/120 123/1/93 122/1/230
f 162/1/245 164/1/254 158/1/223 157/1/222
