# Blender 4.3.2
# www.blender.org
o hair.078
v 6.722000 0.927913 -0.018773
v 6.722036 0.928307 -0.018335
v 6.725573 0.928300 -0.018773
v 6.719365 0.928218 -0.017851
v 6.719395 0.927543 -0.018601
v 6.722211 0.927465 -0.019270
v 6.719641 0.926742 -0.019492
v 6.716636 0.926934 -0.018152
v 6.722424 0.927018 -0.019767
v 6.720078 0.925978 -0.020340
v 6.716910 0.925808 -0.019404
v 6.717491 0.924640 -0.020702
v 6.713877 0.926165 -0.017500
v 6.716632 0.927900 -0.017061
v 6.719535 0.928883 -0.017112
v 6.716855 0.928847 -0.016027
v 6.720716 0.925253 -0.021146
v 6.722835 0.926635 -0.020192
v 6.714870 0.923133 -0.020872
v 6.714171 0.924685 -0.019146
v 6.718410 0.923539 -0.021925
v 6.714169 0.928670 -0.014722
v 6.713887 0.927451 -0.016077
v 6.719825 0.929629 -0.016283
v 6.722074 0.928700 -0.017898
v 6.717260 0.929865 -0.014896
v 6.711536 0.923222 -0.018526
v 6.711216 0.926555 -0.014631
v 6.722301 0.929119 -0.017433
v 6.717903 0.930880 -0.013769
v 6.720299 0.930320 -0.015516
v 6.722531 0.929537 -0.016968
v 6.715508 0.931286 -0.011824
v 6.714683 0.929972 -0.013276
v 6.711205 0.925004 -0.016454
v 6.718838 0.931807 -0.012740
v 6.720938 0.930947 -0.014820
v 6.722939 0.929865 -0.016603
v 6.712212 0.929646 -0.011185
v 6.711556 0.928044 -0.012920
v 6.708603 0.923645 -0.015223
v 6.718259 0.933588 -0.009232
v 6.720001 0.932603 -0.011856
v 6.716737 0.932500 -0.010439
v 6.721725 0.931476 -0.014232
v 6.723350 0.930193 -0.016239
v 6.708996 0.927283 -0.010924
v 6.708607 0.925501 -0.013011
v 6.721324 0.933225 -0.011167
v 6.722620 0.931861 -0.013803
v 6.714699 0.932835 -0.007710
v 6.713241 0.931272 -0.009442
v 6.723892 0.930365 -0.016048
v 6.706300 0.924143 -0.011159
v 6.722733 0.933671 -0.010671
v 6.721837 0.935159 -0.007596
v 6.719996 0.934452 -0.008274
v 6.710999 0.931091 -0.006779
v 6.709786 0.929157 -0.008841
v 6.724436 0.930536 -0.015858
v 6.724151 0.933943 -0.010370
v 6.724576 0.932270 -0.013349
v 6.723610 0.932120 -0.013516
v 6.718668 0.935443 -0.005095
v 6.716528 0.934252 -0.006194
v 6.707581 0.928421 -0.006252
v 6.706715 0.926226 -0.008685
v 6.725005 0.930570 -0.015820
v 6.725573 0.934035 -0.010268
v 6.725573 0.932280 -0.013338
v 6.714751 0.934874 -0.002998
v 6.712656 0.933054 -0.004753
v 6.704476 0.924652 -0.005945
v 6.703997 0.922026 -0.008901
v 6.704215 0.920029 -0.012062
v 6.706297 0.921995 -0.013748
v 6.725573 0.930603 -0.015784
v 6.710693 0.933060 -0.001617
v 6.708905 0.930707 -0.003888
v 6.701399 0.918696 -0.006063
v 6.702834 0.918180 -0.010569
v 6.706664 0.919605 -0.016526
v 6.704635 0.917519 -0.015174
v 6.708969 0.921548 -0.017681
v 6.726141 0.930570 -0.015820
v 6.706846 0.930002 -0.000557
v 6.705417 0.927308 -0.003165
v 6.701255 0.916068 -0.008861
v 6.702895 0.915416 -0.013740
v 6.705619 0.914674 -0.018407
v 6.709891 0.919344 -0.020313
v 6.712353 0.921364 -0.020738
v 6.726571 0.932270 -0.013349
v 6.703119 0.925684 0.000673
v 6.702045 0.922341 -0.002449
v 6.713801 0.919589 -0.022984
v 6.716045 0.921682 -0.022593
v 6.725573 0.935729 -0.006967
v 6.726995 0.933943 -0.010370
v 6.699974 0.919477 0.001034
v 6.699318 0.915624 -0.002233
v 6.700075 0.913901 -0.006913
v 6.717564 0.920384 -0.024138
v 6.719572 0.922567 -0.023007
v 6.723704 0.935601 -0.007108
v 6.698895 0.911734 -0.004964
v 6.698060 0.912036 0.000171
v 6.701404 0.913203 -0.012124
v 6.700123 0.910791 -0.010224
v 6.699063 0.908156 -0.008048
v 6.721509 0.924613 -0.021857
v 6.723269 0.937001 -0.003919
v 6.720966 0.936371 -0.004357
v 6.702347 0.909878 -0.015703
v 6.703859 0.912313 -0.017179
v 6.700036 0.904467 -0.011714
v 6.698235 0.905275 -0.005604
v 6.723249 0.926253 -0.020617
v 6.720037 0.937530 -0.000928
v 6.717282 0.936379 -0.001747
v 6.705814 0.908943 -0.021009
v 6.697946 0.908716 -0.002570
v 6.722420 0.924130 -0.022393
v 6.723807 0.926025 -0.020871
v 6.715882 0.937119 0.001763
v 6.713000 0.935269 0.000339
v 6.697757 0.904842 -0.001200
v 6.697872 0.907735 0.001729
v 6.698686 0.915681 0.003025
v 6.724367 0.925798 -0.021123
v 6.723433 0.923769 -0.022794
v 6.711315 0.935318 0.003969
v 6.708787 0.932744 0.001881
v 6.697986 0.910627 0.004658
v 6.699932 0.920101 0.006401
v 6.701139 0.923349 0.004212
v 6.720879 0.921781 -0.023881
v 6.722328 0.921197 -0.024530
v 6.724485 0.923557 -0.023031
v 6.706913 0.932001 0.005923
v 6.704711 0.928859 0.003424
v 6.702901 0.927149 0.007180
v 6.721186 0.918501 -0.026239
v 6.719275 0.919303 -0.025344
v 6.715738 0.917957 -0.024893
v 6.717838 0.916758 -0.026461
v 6.723916 0.920833 -0.024936
v 6.701816 0.924741 0.009838
v 6.704357 0.929047 0.012875
v 6.705344 0.930784 0.009818
v 6.713759 0.915246 -0.025522
v 6.711557 0.917166 -0.023043
v 6.723323 0.918003 -0.026794
v 6.725573 0.917830 -0.026987
v 6.725573 0.920706 -0.025077
v 6.701073 0.921910 0.012025
v 6.708414 0.934047 0.012032
v 6.699410 0.916653 0.008493
v 6.709455 0.914467 -0.022653
v 6.707638 0.917065 -0.019493
v 6.722813 0.915403 -0.028227
v 6.709735 0.934905 0.008043
v 6.699487 0.913717 0.011739
v 6.720190 0.915908 -0.027573
v 6.713197 0.937356 0.009657
v 6.714509 0.937496 0.005532
v 6.707529 0.911668 -0.021935
v 6.719139 0.912857 -0.028684
v 6.716293 0.913819 -0.027397
v 6.718106 0.939142 0.006612
v 6.719080 0.938523 0.002717
v 6.710195 0.908909 -0.025246
v 6.711918 0.912133 -0.025568
v 6.725573 0.915236 -0.028439
v 6.722282 0.912336 -0.029403
v 6.725573 0.912185 -0.029619
v 6.714833 0.910386 -0.027801
v 6.722320 0.939429 0.003256
v 6.722804 0.938291 -0.000471
v 6.728333 0.915403 -0.028227
v 6.727823 0.918003 -0.026794
v 6.727231 0.920833 -0.024936
v 6.721774 0.908650 -0.030154
v 6.725573 0.938576 -0.000333
v 6.725573 0.937241 -0.003775
v 6.729960 0.918501 -0.026239
v 6.728818 0.921197 -0.024530
v 6.726661 0.923557 -0.023031
v 6.725573 0.923484 -0.023111
v 6.718139 0.909224 -0.029335
v 6.727878 0.937001 -0.003919
v 6.727442 0.935601 -0.007108
v 6.724969 0.925723 -0.021205
v 6.725573 0.925650 -0.021287
v 6.717182 0.905394 -0.029610
v 6.713449 0.906802 -0.027829
v 6.729309 0.935159 -0.007596
v 6.728413 0.933671 -0.010671
v 6.726176 0.925723 -0.021205
v 6.712173 0.903339 -0.027508
v 6.708629 0.905790 -0.024647
v 6.729821 0.933225 -0.011167
v 6.728526 0.931861 -0.013803
v 6.727536 0.932120 -0.013516
v 6.726710 0.930536 -0.015858
v 6.726779 0.925798 -0.021123
v 6.727714 0.923769 -0.022794
v 6.707242 0.902667 -0.023702
v 6.704319 0.906180 -0.019787
v 6.727254 0.930365 -0.016048
v 6.727339 0.926025 -0.020871
v 6.728726 0.924130 -0.022393
v 6.730268 0.921781 -0.023881
v 6.703051 0.903271 -0.018177
v 6.701073 0.907263 -0.013872
v 6.727797 0.930193 -0.016239
v 6.727897 0.926253 -0.020617
v 6.729637 0.924613 -0.021857
v 6.731574 0.922567 -0.023007
v 6.731871 0.919303 -0.025344
v 6.733582 0.920384 -0.024138
v 6.729421 0.931476 -0.014232
v 6.728207 0.929865 -0.016603
v 6.731145 0.932603 -0.011856
v 6.730431 0.925253 -0.021146
v 6.728311 0.926635 -0.020192
v 6.732736 0.923539 -0.021925
v 6.733307 0.916758 -0.026461
v 6.730208 0.930947 -0.014820
v 6.728615 0.929537 -0.016968
v 6.732887 0.933588 -0.009232
v 6.732308 0.931807 -0.012740
v 6.731150 0.934452 -0.008274
v 6.728723 0.927018 -0.019767
v 6.730956 0.915908 -0.027573
v 6.733243 0.930880 -0.013769
v 6.730847 0.930320 -0.015516
v 6.728844 0.929119 -0.017433
v 6.734409 0.932500 -0.010439
v 6.735639 0.931286 -0.011824
v 6.732478 0.935443 -0.005095
v 6.730180 0.936371 -0.004357
v 6.732007 0.912857 -0.028684
v 6.728864 0.912336 -0.029403
v 6.731321 0.929629 -0.016283
v 6.729072 0.928700 -0.017898
v 6.736447 0.932835 -0.007710
v 6.731109 0.937530 -0.000928
v 6.728342 0.938291 -0.000471
v 6.729373 0.908650 -0.030154
v 6.725573 0.908509 -0.030384
v 6.731611 0.928883 -0.017112
v 6.729110 0.928307 -0.018335
v 6.734618 0.934252 -0.006194
v 6.728826 0.939429 0.003256
v 6.725573 0.939761 0.003421
v 6.725573 0.904592 -0.030741
v 6.721285 0.904735 -0.030511
v 6.731781 0.928218 -0.017851
v 6.734291 0.928848 -0.016026
v 6.729146 0.927913 -0.018773
v 6.736395 0.934874 -0.002998
v 6.725573 0.940548 0.007444
v 6.721818 0.940178 0.007242
v 6.720827 0.900913 -0.030364
v 6.716290 0.901682 -0.029458
v 6.733886 0.929865 -0.014896
v 6.728935 0.927465 -0.019270
v 6.721293 0.940319 0.011482
v 6.717121 0.939193 0.010796
v 6.715509 0.898009 -0.028834
v 6.711043 0.899896 -0.026775
v 6.731504 0.926742 -0.019492
v 6.731750 0.927543 -0.018601
v 6.731068 0.925978 -0.020340
v 6.716213 0.938706 0.014950
v 6.712055 0.936727 0.013733
v 6.710101 0.896374 -0.025570
v 6.706060 0.899435 -0.022342
v 6.734510 0.926934 -0.018153
v 6.733655 0.924640 -0.020702
v 6.711200 0.935622 0.017351
v 6.707502 0.932761 0.015413
v 6.705115 0.896168 -0.020565
v 6.702028 0.900245 -0.016193
v 6.734514 0.927909 -0.017069
v 6.736276 0.923133 -0.020872
v 6.734236 0.925808 -0.019404
v 6.735101 0.921682 -0.022593
v 6.706776 0.931181 0.018137
v 6.701262 0.897131 -0.013849
v 6.699237 0.901488 -0.009256
v 6.736977 0.928670 -0.014722
v 6.737345 0.919589 -0.022984
v 6.735408 0.917957 -0.024893
v 6.698982 0.898159 -0.006933
v 6.698283 0.901973 -0.003661
v 6.736464 0.929972 -0.013276
v 6.737269 0.926165 -0.017500
v 6.737387 0.915246 -0.025522
v 6.734853 0.913819 -0.027397
v 6.699394 0.894270 -0.005209
v 6.698125 0.900764 -0.000488
v 6.738934 0.929646 -0.011185
v 6.736975 0.924685 -0.019146
v 6.737259 0.927451 -0.016077
v 6.736313 0.910386 -0.027801
v 6.733007 0.909224 -0.029335
v 6.697958 0.904168 0.004406
v 6.739589 0.928044 -0.012920
v 6.739930 0.926555 -0.014631
v 6.739610 0.923222 -0.018526
v 6.738792 0.921364 -0.020738
v 6.733964 0.905394 -0.029610
v 6.729861 0.904735 -0.030511
v 6.698664 0.909135 0.010094
v 6.698413 0.904924 0.009727
v 6.742150 0.927282 -0.010924
v 6.739941 0.925004 -0.016454
v 6.741255 0.919344 -0.020313
v 6.739589 0.917166 -0.023043
v 6.730319 0.900913 -0.030364
v 6.725573 0.900750 -0.030556
v 6.699429 0.907524 0.015334
v 6.742543 0.923645 -0.015223
v 6.741692 0.914467 -0.022653
v 6.739228 0.912133 -0.025568
v 6.725573 0.896972 -0.029848
v 6.720428 0.897147 -0.029708
v 6.699863 0.911038 0.015562
v 6.699180 0.904354 0.015261
v 6.742177 0.921548 -0.017681
v 6.740951 0.908909 -0.025246
v 6.737698 0.906802 -0.027829
v 6.720115 0.893397 -0.028534
v 6.714882 0.894292 -0.027691
v 6.700328 0.914724 0.015928
v 6.699067 0.900881 0.015397
v 6.744482 0.919605 -0.016526
v 6.743508 0.917065 -0.019493
v 6.738974 0.903339 -0.027508
v 6.734856 0.901682 -0.029458
v 6.714433 0.890721 -0.026077
v 6.709378 0.892914 -0.023909
v 6.698421 0.900670 0.010195
v 6.698375 0.895960 0.011053
v 6.699039 0.896454 0.015793
v 6.745527 0.914674 -0.018407
v 6.743617 0.911668 -0.021935
v 6.735637 0.898009 -0.028834
v 6.730718 0.897147 -0.029708
v 6.708909 0.889660 -0.021809
v 6.704442 0.892941 -0.018371
v 6.699052 0.891550 0.016320
v 6.697869 0.900436 0.004733
v 6.745332 0.908943 -0.021009
v 6.742517 0.905790 -0.024647
v 6.731031 0.893397 -0.028534
v 6.725573 0.893246 -0.028637
v 6.704273 0.889519 -0.015838
v 6.701025 0.893616 -0.011481
v 6.698301 0.891023 0.012106
v 6.743904 0.902667 -0.023702
v 6.740102 0.899896 -0.026775
v 6.725573 0.889703 -0.027011
v 6.719900 0.889826 -0.026920
v 6.701693 0.889398 -0.009393
v 6.697550 0.890497 0.007893
v 6.697711 0.895467 0.006313
v 6.699005 0.894604 0.000176
v 6.741045 0.896374 -0.025570
v 6.736264 0.894292 -0.027691
v 6.719796 0.886596 -0.024942
v 6.714185 0.887480 -0.024041
v 6.700504 0.888772 -0.004380
v 6.736712 0.890721 -0.026077
v 6.731246 0.889826 -0.026920
v 6.714128 0.884220 -0.021451
v 6.708800 0.886337 -0.019212
v 6.704383 0.883811 -0.008254
v 6.731350 0.886596 -0.024942
v 6.725573 0.886478 -0.025059
v 6.709227 0.882717 -0.015981
v 6.704934 0.885689 -0.012989
v 6.708242 0.880120 -0.011271
v 6.736961 0.887480 -0.024041
v 6.737018 0.884220 -0.021451
v 6.731371 0.883315 -0.022407
v 6.725573 0.883165 -0.022564
v 6.719774 0.883315 -0.022407
v 6.714290 0.880647 -0.018090
v 6.711854 0.877783 -0.013207
v 6.742237 0.889660 -0.021809
v 6.731322 0.879650 -0.019033
v 6.725573 0.879420 -0.019212
v 6.719824 0.879650 -0.019033
v 6.715860 0.876468 -0.014444
v 6.741768 0.892914 -0.023909
v 6.735286 0.876468 -0.014444
v 6.730769 0.875687 -0.015236
v 6.736856 0.880647 -0.018090
v 6.725573 0.875361 -0.015394
v 6.720377 0.875687 -0.015236
v 6.746030 0.896168 -0.020565
v 6.745086 0.899435 -0.022342
v 6.739293 0.877783 -0.013207
v 6.741919 0.882717 -0.015981
v 6.742346 0.886337 -0.019212
v 6.746704 0.892941 -0.018371
v 6.746873 0.889519 -0.015838
v 6.748095 0.903271 -0.018177
v 6.746828 0.906180 -0.019787
v 6.742904 0.880120 -0.011271
v 6.746212 0.885689 -0.012989
v 6.749884 0.897131 -0.013849
v 6.749454 0.889398 -0.009393
v 6.750122 0.893616 -0.011481
v 6.748799 0.909878 -0.015703
v 6.747287 0.912313 -0.017179
v 6.746763 0.883811 -0.008254
v 6.749118 0.900245 -0.016193
v 6.752164 0.898159 -0.006933
v 6.751752 0.894270 -0.005209
v 6.750641 0.888772 -0.004380
v 6.748251 0.915416 -0.013740
v 6.746511 0.917519 -0.015174
v 6.751110 0.904467 -0.011714
v 6.751909 0.901488 -0.009256
v 6.752863 0.901973 -0.003661
v 6.753021 0.900764 -0.000488
v 6.752141 0.894604 0.000176
v 6.746931 0.920029 -0.012062
v 6.748312 0.918180 -0.010569
v 6.744849 0.921995 -0.013748
v 6.750073 0.907263 -0.013872
v 6.752912 0.905275 -0.005604
v 6.753389 0.904842 -0.001200
v 6.753276 0.900436 0.004733
v 6.744846 0.924143 -0.011159
v 6.747149 0.922026 -0.008901
v 6.749747 0.918696 -0.006063
v 6.749890 0.916068 -0.008861
v 6.742539 0.925501 -0.013011
v 6.751023 0.910791 -0.010224
v 6.746670 0.924652 -0.005945
v 6.744431 0.926226 -0.008685
v 6.749743 0.913203 -0.012124
v 6.752083 0.908156 -0.008048
v 6.741359 0.929157 -0.008841
v 6.743566 0.928421 -0.006252
v 6.752251 0.911734 -0.004964
v 6.751070 0.913901 -0.006913
v 6.753200 0.908716 -0.002570
v 6.737906 0.931272 -0.009442
v 6.740147 0.931091 -0.006779
v 6.753086 0.912036 0.000171
v 6.751827 0.915624 -0.002233
v 6.753274 0.907735 0.001729
v 6.738491 0.933054 -0.004753
v 6.740453 0.933060 -0.001617
v 6.742241 0.930707 -0.003888
v 6.749101 0.922341 -0.002449
v 6.751173 0.919477 0.001034
v 6.752460 0.915681 0.003025
v 6.753189 0.904168 0.004406
v 6.744300 0.930002 -0.000557
v 6.745729 0.927308 -0.003165
v 6.748027 0.925684 0.000673
v 6.751214 0.920101 0.006401
v 6.750007 0.923349 0.004212
v 6.753160 0.910627 0.004658
v 6.752733 0.904924 0.009727
v 6.752771 0.895960 0.011053
v 6.753435 0.895467 0.006313
v 6.752725 0.900670 0.010195
v 6.746435 0.928859 0.003424
v 6.748245 0.927149 0.007180
v 6.752482 0.909135 0.010094
v 6.751659 0.913717 0.011739
v 6.751736 0.916653 0.008493
v 6.753595 0.890497 0.007893
v 6.752079 0.900881 0.015397
v 6.744234 0.932001 0.005923
v 6.749330 0.924740 0.009838
v 6.746789 0.929047 0.012875
v 6.745802 0.930784 0.009818
v 6.751718 0.907524 0.015334
v 6.750073 0.921910 0.012025
v 6.752845 0.891023 0.012106
v 6.752108 0.896454 0.015793
v 6.751966 0.904354 0.015261
v 6.742359 0.932744 0.001881
v 6.742733 0.934047 0.012032
v 6.751283 0.911038 0.015562
v 6.752094 0.891550 0.016320
v 6.738146 0.935269 0.000339
v 6.739831 0.935318 0.003969
v 6.741411 0.934905 0.008043
v 6.750107 0.918714 0.014204
v 6.750818 0.914724 0.015928
v 6.733864 0.936379 -0.001747
v 6.735264 0.937119 0.001763
v 6.736638 0.937496 0.005532
v 6.737949 0.937356 0.009657
v 6.747671 0.924171 0.017029
v 6.747358 0.926830 0.015233
v 6.747287 0.922304 0.018442
v 6.746544 0.920829 0.019043
v 6.732066 0.938523 0.002717
v 6.733040 0.939142 0.006612
v 6.744370 0.931181 0.018137
v 6.744512 0.929009 0.019907
v 6.744434 0.927036 0.021049
v 6.743644 0.932761 0.015413
v 6.744026 0.924646 0.021248
v 6.729328 0.940178 0.007242
v 6.729853 0.940319 0.011482
v 6.734025 0.939193 0.010796
v 6.740795 0.932151 0.022533
v 6.740838 0.929988 0.023939
v 6.740693 0.927756 0.024572
v 6.739946 0.935622 0.017351
v 6.725573 0.940711 0.011712
v 6.734933 0.938706 0.014950
v 6.739091 0.936727 0.013733
v 6.736451 0.931754 0.026482
v 6.740514 0.934083 0.020341
v 6.735661 0.937676 0.018755
v 6.736245 0.936288 0.022132
v 6.725573 0.940328 0.015990
v 6.730763 0.938968 0.019686
v 6.730350 0.939912 0.015718
v 6.736394 0.934119 0.024656
v 6.731197 0.935471 0.026057
v 6.731053 0.937473 0.023190
v 6.720795 0.939912 0.015718
v 6.725573 0.939428 0.020034
v 6.725573 0.938155 0.023723
v 6.720383 0.938968 0.019686
v 6.725573 0.936044 0.026629
v 6.725573 0.933507 0.028831
v 6.731224 0.932934 0.028056
v 6.715485 0.937676 0.018755
v 6.720093 0.937473 0.023190
v 6.719949 0.935471 0.026057
v 6.714901 0.936288 0.022132
v 6.731177 0.929966 0.028949
v 6.736411 0.929128 0.027413
v 6.710632 0.934083 0.020341
v 6.719923 0.932934 0.028056
v 6.714695 0.931754 0.026482
v 6.714752 0.934119 0.024656
v 6.710351 0.932151 0.022533
v 6.736266 0.926567 0.027379
v 6.740419 0.925701 0.024497
v 6.703788 0.926830 0.015233
v 6.703475 0.924171 0.017029
v 6.706634 0.929009 0.019907
v 6.719969 0.929966 0.028949
v 6.710308 0.929988 0.023939
v 6.706712 0.927036 0.021049
v 6.740074 0.924070 0.023780
v 6.743281 0.922858 0.020422
v 6.746042 0.919854 0.018740
v 6.725573 0.930306 0.029711
v 6.710453 0.927756 0.024572
v 6.725573 0.891550 0.016320
v 6.739694 0.922651 0.022741
v 6.750818 0.914724 0.015928
v 6.701039 0.918714 0.014204
v 6.725573 0.927119 0.029955
v 6.731157 0.927042 0.029099
v 6.714735 0.929128 0.027413
v 6.736107 0.922444 0.025060
v 6.751283 0.911038 0.015562
v 6.703859 0.922304 0.018442
v 6.719989 0.927042 0.029099
v 6.714880 0.926567 0.027379
v 6.731028 0.924462 0.027921
v 6.736005 0.924395 0.026313
v 6.730840 0.922132 0.026056
v 6.751718 0.907524 0.015334
v 6.704602 0.920829 0.019043
v 6.707120 0.924646 0.021248
v 6.720118 0.924462 0.027921
v 6.725573 0.924347 0.028651
v 6.725573 0.921782 0.027113
v 6.710727 0.925701 0.024497
v 6.751966 0.904354 0.015261
v 6.707865 0.922858 0.020422
v 6.705104 0.919854 0.018740
v 6.720306 0.922132 0.026056
v 6.715039 0.922444 0.025060
v 6.715141 0.924395 0.026313
v 6.711072 0.924070 0.023780
v 6.752079 0.900881 0.015397
v 6.711452 0.922651 0.022741
v 6.700328 0.914724 0.015928
v 6.752108 0.896454 0.015793
v 6.699863 0.911038 0.015562
v 6.752094 0.891550 0.016320
v 6.699429 0.907524 0.015334
v 6.725573 0.891023 0.012106
v 6.752845 0.891023 0.012106
v 6.699180 0.904354 0.015261
v 6.725573 0.890497 0.007893
v 6.698301 0.891023 0.012106
v 6.699052 0.891550 0.016320
v 6.753595 0.890497 0.007893
v 6.699067 0.900881 0.015397
v 6.725573 0.895467 0.006313
v 6.697550 0.890497 0.007893
v 6.699039 0.896454 0.015793
v 6.753435 0.895467 0.006313
v 6.753276 0.900436 0.004733
v 6.725573 0.900436 0.004733
v 6.697711 0.895467 0.006313
v 6.697869 0.900436 0.004733
vn -0.1161 0.7287 -0.6750
vn -0.1131 0.7434 -0.6593
vn -0.0000 0.7415 -0.6709
vn 0.2069 0.7125 -0.6705
vn 0.1161 0.7287 -0.6750
vn 0.1131 0.7434 -0.6593
vn 0.2076 0.7367 -0.6435
vn -0.1100 0.7157 -0.6897
vn -0.1400 0.8685 -0.4754
vn -0.2091 0.8859 -0.4140
vn -0.1514 0.8936 -0.4226
vn -0.0964 0.8749 -0.4745
vn -0.2805 0.4640 -0.8403
vn -0.3573 0.3478 -0.8668
vn -0.4589 0.3828 -0.8018
vn -0.3598 0.4794 -0.8005
vn -0.2700 0.8886 -0.3708
vn -0.3149 0.8862 -0.3398
vn -0.2366 0.9113 -0.3370
vn -0.2033 0.9036 -0.3772
vn 0.0591 0.6758 -0.7347
vn 0.1088 0.6234 -0.7743
vn 0.0739 0.6158 -0.7844
vn 0.0413 0.6689 -0.7422
vn -0.1050 0.7035 -0.7029
vn 0.2807 0.7739 -0.5677
vn 0.4050 0.7621 -0.5051
vn 0.4230 0.7299 -0.5370
vn 0.2945 0.7502 -0.5920
vn 0.4277 0.6572 -0.6206
vn 0.4091 0.6219 -0.6677
vn 0.2935 0.6610 -0.6906
vn 0.3038 0.6911 -0.6558
vn 0.2338 0.3128 -0.9206
vn 0.1090 0.2897 -0.9509
vn 0.0883 0.4288 -0.8991
vn 0.1842 0.4439 -0.8769
vn 0.2004 0.7560 -0.6232
vn 0.1124 0.7542 -0.6469
vn 0.2366 0.9113 -0.3370
vn 0.2696 0.9265 -0.2625
vn 0.3702 0.8882 -0.2723
vn 0.3149 0.8862 -0.3398
vn 0.2719 0.6344 -0.7236
vn 0.2385 0.6146 -0.7519
vn 0.1667 0.6509 -0.7406
vn 0.1855 0.6695 -0.7193
vn 0.4295 0.5029 -0.7501
vn 0.3598 0.4794 -0.8005
vn 0.2704 0.5486 -0.7912
vn 0.3263 0.5702 -0.7539
vn -0.0931 0.6941 -0.7138
vn 0.1923 0.7727 -0.6050
vn 0.1049 0.7638 -0.6369
vn 0.3756 0.5939 -0.7115
vn 0.4881 0.5364 -0.6885
vn 0.1158 0.9160 -0.3840
vn 0.1384 0.9330 -0.3322
vn 0.2033 0.9036 -0.3772
vn 0.6240 0.0547 0.7795
vn 0.5590 -0.2674 0.7849
vn 0.5565 -0.2328 0.7976
vn 0.7494 0.1438 0.6463
vn -0.1124 0.7542 -0.6469
vn -0.3969 0.8521 -0.3413
vn -0.4728 0.8347 -0.2824
vn -0.3702 0.8882 -0.2723
vn 0.1818 0.8548 -0.4860
vn 0.2211 0.8330 -0.5071
vn 0.1508 0.8115 -0.5646
vn 0.1211 0.8279 -0.5477
vn -0.1374 0.5284 -0.8378
vn -0.1842 0.4439 -0.8769
vn -0.2090 0.5366 -0.8175
vn 0.5442 0.6605 -0.5173
vn 0.5415 0.6155 -0.5727
vn 0.4316 0.6957 -0.5742
vn -0.5497 0.8124 -0.1947
vn -0.4317 0.8859 -0.1701
vn -0.1049 0.7638 -0.6369
vn -0.0255 0.8486 -0.5284
vn -0.0103 0.8082 -0.5888
vn -0.0293 0.8072 -0.5896
vn -0.0568 0.8453 -0.5313
vn 0.9835 0.0805 0.1622
vn 0.9892 0.0396 0.1410
vn 0.9924 0.0300 0.1195
vn 0.9863 0.0792 0.1449
vn -0.0972 0.7755 -0.6238
vn 0.1100 0.7157 -0.6897
vn 0.1998 0.6899 -0.6958
vn -0.5442 0.6605 -0.5173
vn -0.6339 0.6177 -0.4654
vn -0.6185 0.6662 -0.4168
vn -0.5354 0.6999 -0.4727
vn 0.2550 0.8044 -0.5366
vn 0.1737 0.7929 -0.5841
vn -0.0827 0.7847 -0.6143
vn -0.6162 -0.5856 -0.5267
vn -0.7833 -0.4849 -0.3891
vn -0.8037 -0.3786 -0.4591
vn -0.6161 -0.5152 -0.5958
vn -0.7111 0.6902 -0.1338
vn -0.6133 0.7841 -0.0949
vn -0.6438 0.7325 -0.2211
vn -0.2935 0.6610 -0.6906
vn -0.4091 0.6219 -0.6677
vn -0.4272 0.6579 -0.6202
vn -0.3037 0.6925 -0.6544
vn 0.6368 0.5651 -0.5245
vn 0.6250 0.5124 -0.5889
vn 0.5231 0.5735 -0.6304
vn 0.2609 0.8717 -0.4149
vn 0.3152 0.8453 -0.4314
vn 0.7412 0.5457 -0.3909
vn 0.8269 0.4606 -0.3227
vn 0.8185 0.4262 -0.3853
vn 0.7390 0.4941 -0.4579
vn -0.0672 0.7956 -0.6021
vn 0.6185 0.6662 -0.4168
vn 0.6339 0.6177 -0.4654
vn 0.5354 0.6999 -0.4727
vn 0.5148 0.7388 -0.4349
vn 0.5911 0.7117 -0.3796
vn 0.1400 0.8685 -0.4754
vn 0.2091 0.8859 -0.4140
vn 0.0878 0.8397 -0.5360
vn 0.0672 0.7956 -0.6021
vn 0.0456 0.8018 -0.5958
vn 0.3353 0.8676 -0.3672
vn 0.4050 0.8352 -0.3720
vn -0.7219 0.6000 -0.3446
vn -0.6827 0.6595 -0.3146
vn -0.5911 0.7117 -0.3796
vn -0.0456 0.8018 -0.5958
vn 0.1514 0.8936 -0.4226
vn 0.0783 0.8991 -0.4306
vn 0.0568 0.8453 -0.5313
vn 0.0964 0.8749 -0.4745
vn -0.7094 0.6623 -0.2408
vn -0.7788 0.6043 -0.1683
vn -0.7620 0.5932 -0.2596
vn -0.6307 0.7160 -0.2994
vn 0.0293 0.8072 -0.5896
vn 0.0455 0.8792 -0.4743
vn -0.4309 0.6959 -0.5745
vn -0.3033 0.7233 -0.6204
vn 0.0103 0.8082 -0.5888
vn 0.0255 0.8486 -0.5284
vn 0.2700 0.8886 -0.3708
vn 0.6827 0.6595 -0.3146
vn 0.7219 0.6000 -0.3446
vn 0.3969 0.8521 -0.3413
vn 0.4728 0.8347 -0.2824
vn 0.5633 0.7729 -0.2922
vn 0.4773 0.8089 -0.3433
vn -0.6368 0.5651 -0.5245
vn -0.6250 0.5124 -0.5889
vn -0.7217 0.4365 -0.5372
vn -0.7390 0.4941 -0.4579
vn -0.4228 0.7295 -0.5377
vn -0.2948 0.7489 -0.5935
vn 0.4005 -0.2294 0.8871
vn 0.3397 -0.4970 0.7985
vn 0.4746 -0.5070 0.7195
vn -0.5148 0.7388 -0.4349
vn -0.4050 0.7621 -0.5051
vn 0.8039 0.5211 -0.2865
vn -0.1929 -0.4983 0.8453
vn -0.3397 -0.4970 0.7985
vn -0.3478 -0.5540 0.7564
vn -0.1869 -0.5730 0.7980
vn 0.0972 0.7755 -0.6238
vn -0.0000 0.8093 -0.5874
vn 0.6307 0.7160 -0.2994
vn 0.5442 0.7610 -0.3532
vn 0.4569 0.4072 0.7908
vn 0.4410 0.1230 0.8890
vn 0.6473 0.3181 0.6927
vn 0.8467 0.5184 0.1201
vn 0.8843 0.3862 0.2624
vn 0.9387 0.2761 0.2063
vn 0.9153 0.3922 0.0921
vn -0.8269 0.4606 -0.3227
vn -0.8185 0.4262 -0.3853
vn -0.8596 0.3819 -0.3394
vn -0.0000 0.9934 -0.1148
vn 0.1667 0.9780 -0.1251
vn 0.1524 0.9559 -0.2510
vn -0.0000 0.9694 -0.2454
vn 0.7217 0.4365 -0.5372
vn 0.7915 0.3765 -0.4814
vn 0.8596 0.3819 -0.3394
vn 0.8442 0.3259 -0.4256
vn -0.0000 0.8478 -0.5303
vn 0.7094 0.6623 -0.2408
vn 0.7620 0.5932 -0.2596
vn 0.7801 0.5393 0.3172
vn 0.6177 0.6873 0.3823
vn 0.6438 0.5158 0.5652
vn 0.7948 0.3716 0.4798
vn 0.8970 0.3290 -0.2952
vn 0.8928 0.2599 -0.3678
vn 0.7500 0.3113 -0.5836
vn 0.6879 0.3744 -0.6218
vn 0.8057 0.2481 -0.5378
vn 0.4589 0.3828 -0.8018
vn 0.5484 0.2707 -0.7912
vn 0.4253 0.2232 -0.8771
vn 0.3573 0.3478 -0.8668
vn 0.5950 0.4593 -0.6596
vn -0.0000 0.8805 -0.4740
vn -0.0455 0.8792 -0.4743
vn 0.3664 0.8060 -0.4648
vn 0.4693 0.7894 -0.3957
vn 0.7788 0.6043 -0.1683
vn 0.8294 0.5216 -0.2001
vn 0.5383 0.4157 -0.7331
vn -0.3342 -0.1632 -0.9283
vn -0.3468 -0.2895 -0.8921
vn -0.5828 -0.1894 -0.7903
vn -0.5507 -0.0721 -0.8316
vn -0.0783 0.8991 -0.4306
vn -0.0000 0.8999 -0.4360
vn 0.9284 0.3452 -0.1374
vn 0.9405 0.2824 -0.1890
vn 0.8882 0.3730 -0.2683
vn 0.8666 0.4411 -0.2334
vn 0.9037 0.4195 -0.0859
vn 0.1959 0.5984 -0.7769
vn 0.0827 0.7847 -0.6143
vn -0.9405 0.2824 -0.1890
vn -0.9285 0.2671 -0.2579
vn -0.9540 0.2037 -0.2202
vn -0.4746 -0.5070 0.7195
vn -0.4542 -0.5676 0.6866
vn 0.9762 0.2167 0.0017
vn 0.9858 0.1526 -0.0699
vn 0.4843 0.8730 -0.0577
vn 0.5293 0.8460 0.0637
vn 0.6735 0.7389 0.0229
vn 0.6133 0.7841 -0.0949
vn 0.0795 0.6824 -0.7266
vn 0.0931 0.6941 -0.7138
vn 0.1408 0.6351 -0.7595
vn -0.2073 0.7133 -0.6695
vn -0.2088 0.7367 -0.6432
vn 0.9115 -0.1409 -0.3864
vn 0.9601 -0.0571 -0.2739
vn 0.9733 -0.1373 -0.1837
vn 0.9180 -0.2381 -0.3172
vn -0.0000 -0.4988 0.8667
vn -0.0000 -0.1794 0.9838
vn -0.2156 -0.1922 0.9574
vn 0.3067 0.9403 -0.1475
vn 0.3374 0.9411 -0.0213
vn 0.4317 0.8859 -0.1701
vn 0.9300 0.1862 -0.3169
vn 0.9553 0.1126 -0.2732
vn 0.9350 0.0212 -0.3541
vn 0.9060 0.0914 -0.4133
vn 0.9540 0.2037 -0.2202
vn 0.9894 0.0863 -0.1167
vn 0.9816 0.0099 -0.1907
vn 0.1250 -0.0911 -0.9880
vn 0.1212 -0.2231 -0.9672
vn -0.0000 -0.2409 -0.9706
vn -0.0000 -0.1097 -0.9940
vn -0.0795 0.6824 -0.7266
vn -0.5950 0.4593 -0.6596
vn -0.6879 0.3744 -0.6218
vn 0.9912 0.0248 0.1300
vn 0.9897 0.0281 0.1407
vn 0.9898 0.0425 0.1363
vn 0.9927 0.0302 0.1166
vn 0.7478 0.1856 -0.6375
vn 0.8620 0.1700 -0.4776
vn 0.8063 0.1017 -0.5827
vn 0.1050 0.7035 -0.7029
vn -0.0591 0.6758 -0.7347
vn 0.3030 0.7234 -0.6204
vn 0.9996 0.0223 0.0171
vn 0.9986 -0.0334 -0.0403
vn 0.8737 0.2680 0.4061
vn 0.9417 0.2378 0.2379
vn -0.5565 -0.2328 0.7976
vn -0.3971 -0.2133 0.8927
vn -0.2023 -0.3284 0.9226
vn -0.2930 -0.4247 0.8566
vn -0.0413 0.6689 -0.7422
vn 0.5497 0.8124 -0.1947
vn 0.9725 -0.2017 -0.1164
vn 0.8902 -0.3549 -0.2857
vn -0.9762 0.2167 0.0017
vn -0.9931 0.0886 0.0767
vn -0.9566 0.2884 0.0410
vn -0.2211 0.8330 -0.5071
vn -0.3152 0.8453 -0.4314
vn -0.2609 0.8717 -0.4149
vn -0.1818 0.8548 -0.4860
vn 0.1500 0.5842 -0.7976
vn 0.1026 0.5736 -0.8127
vn -0.0000 0.6647 -0.7471
vn 0.0203 0.6674 -0.7445
vn 0.0374 0.6109 -0.7908
vn -0.0000 0.6097 -0.7926
vn 0.0520 0.5667 -0.8223
vn 0.6438 0.7325 -0.2211
vn 0.7111 0.6902 -0.1338
vn 0.8567 0.5140 -0.0436
vn 0.9566 0.2884 0.0410
vn -0.2338 0.3128 -0.9206
vn -0.2732 0.1838 -0.9442
vn -0.4253 0.2232 -0.8771
vn -0.4295 0.5029 -0.7501
vn -0.5383 0.4157 -0.7331
vn -0.4881 0.5364 -0.6885
vn 0.2805 0.4640 -0.8403
vn 0.1374 0.5284 -0.8378
vn 0.2090 0.5366 -0.8175
vn -0.3353 0.8676 -0.3672
vn 0.0671 0.5216 -0.8505
vn -0.6240 0.0547 0.7795
vn -0.5590 -0.2674 0.7849
vn -0.4005 -0.2294 0.8871
vn -0.4410 0.1230 0.8890
vn -0.0374 0.6109 -0.7908
vn -0.0000 0.5643 -0.8255
vn -0.0520 0.5667 -0.8223
vn 0.3717 -0.6551 -0.6578
vn 0.6162 -0.5856 -0.5267
vn 0.5259 -0.6345 -0.5665
vn 0.3341 -0.6745 -0.6583
vn -0.9153 0.3922 0.0921
vn -0.8567 0.5140 -0.0436
vn -0.9037 0.4195 -0.0859
vn 0.7309 0.6659 0.1495
vn 0.7822 0.6229 -0.0105
vn -0.9734 0.1872 0.1324
vn 0.6333 0.3202 -0.7046
vn 0.6928 0.2530 -0.6753
vn -0.0000 0.5189 -0.8548
vn -0.0000 0.4232 -0.9060
vn 0.7074 0.0225 -0.7065
vn 0.6540 0.1183 -0.7472
vn 0.9931 0.0886 0.0767
vn 0.9734 0.1872 0.1324
vn 0.9745 0.1468 0.1696
vn -0.8550 0.0171 -0.5184
vn -0.8888 -0.0605 -0.4543
vn -0.9350 0.0212 -0.3541
vn -0.9060 0.0914 -0.4133
vn -0.7478 0.1856 -0.6375
vn -0.8063 0.1017 -0.5827
vn -0.8620 0.1700 -0.4776
vn -0.8057 0.2481 -0.5378
vn -0.9553 0.1126 -0.2732
vn -0.9300 0.1862 -0.3169
vn 0.6030 0.1959 -0.7733
vn 0.4230 0.7941 0.4364
vn 0.5717 0.7967 0.1960
vn 0.3884 0.8880 0.2461
vn -0.6438 0.5158 0.5652
vn -0.6473 0.3181 0.6927
vn -0.4569 0.4072 0.7908
vn -0.4498 0.6301 0.6330
vn -0.5415 0.6155 -0.5727
vn 0.2732 0.1838 -0.9442
vn 0.8550 0.0171 -0.5184
vn -0.0671 0.5216 -0.8505
vn -0.1026 0.5736 -0.8127
vn -0.0883 0.4288 -0.8991
vn -0.0000 0.2819 -0.9594
vn -0.1090 0.2897 -0.9509
vn -0.0000 0.0254 -0.9997
vn -0.1250 -0.0911 -0.9880
vn -0.1264 0.0395 -0.9912
vn 0.1221 0.1572 -0.9800
vn 0.5110 0.0411 -0.8586
vn 0.5507 -0.0721 -0.8316
vn 0.3342 -0.1632 -0.9283
vn 0.3179 -0.0354 -0.9475
vn 0.2982 0.0805 -0.9511
vn 0.1264 0.0395 -0.9912
vn -0.6333 0.3202 -0.7046
vn -0.6928 0.2530 -0.6753
vn -0.7500 0.3113 -0.5836
vn -0.6030 0.1959 -0.7733
vn -0.6540 0.1183 -0.7472
vn -0.1158 0.9160 -0.3840
vn -0.0000 0.9218 -0.3877
vn -0.0000 0.9441 -0.3296
vn -0.1384 0.9330 -0.3322
vn 0.4700 0.1362 -0.8721
vn -0.0203 0.6674 -0.7445
vn -0.7915 0.3765 -0.4814
vn -0.4230 0.7941 0.4364
vn -0.2453 0.7026 0.6680
vn -0.2233 0.8567 0.4649
vn 0.8037 -0.3786 -0.4591
vn 0.8048 -0.2726 -0.5273
vn -0.0878 0.8397 -0.5360
vn -0.1769 0.9842 0.0111
vn -0.0000 0.9997 0.0249
vn -0.1667 0.9780 -0.1251
vn -0.8442 0.3259 -0.4256
vn -0.8467 0.5184 0.1201
vn -0.7309 0.6659 0.1495
vn -0.6735 0.7389 0.0229
vn -0.7822 0.6229 -0.0105
vn -0.0739 0.6158 -0.7844
vn -0.0000 -0.9923 0.1240
vn -0.0000 -0.6599 0.7514
vn -0.0000 -0.8423 -0.5391
vn -0.1088 0.6234 -0.7743
vn -0.5231 0.5735 -0.6304
vn -0.1500 0.5842 -0.7976
vn 0.7528 -0.0770 -0.6537
vn 0.8888 -0.0605 -0.4543
vn -0.1959 0.5984 -0.7769
vn -0.1408 0.6351 -0.7595
vn -0.2704 0.5486 -0.7912
vn -0.1211 0.8279 -0.5477
vn -0.1508 0.8115 -0.5646
vn -0.5484 0.2707 -0.7912
vn -0.9924 0.0300 0.1195
vn -0.9927 0.0302 0.1166
vn -0.9912 0.0248 0.1300
vn -0.9892 0.0396 0.1410
vn -0.1667 0.6509 -0.7406
vn -0.2385 0.6146 -0.7519
vn -0.2319 0.1640 0.9588
vn -0.1737 0.7929 -0.5841
vn -0.3263 0.5702 -0.7539
vn -0.1855 0.6695 -0.7193
vn -0.1923 0.7727 -0.6050
vn -0.3664 0.8060 -0.4648
vn -0.2550 0.8044 -0.5366
vn -0.2807 0.7739 -0.5677
vn -0.2012 0.7551 -0.6240
vn -0.4693 0.7894 -0.3957
vn -0.4050 0.8352 -0.3720
vn -0.8294 0.5216 -0.2001
vn -0.9284 0.3452 -0.1374
vn -0.8666 0.4411 -0.2334
vn -0.0000 0.1483 -0.9889
vn -0.1221 0.1572 -0.9800
vn -0.1524 0.9559 -0.2510
vn -0.2696 0.9265 -0.2625
vn -0.5110 0.0411 -0.8586
vn -0.7074 0.0225 -0.7065
vn -0.4773 0.8089 -0.3433
vn 0.1769 0.9842 0.0111
vn -0.9987 0.0017 0.0505
vn -0.9995 -0.0037 0.0329
vn -0.1998 0.6899 -0.6958
vn 0.1862 0.9721 0.1426
vn 0.3629 0.9255 0.1081
vn -0.0000 0.4694 0.8830
vn 0.2488 0.4542 0.8554
vn 0.2453 0.7026 0.6680
vn -0.0000 0.7332 0.6800
vn 0.5828 -0.1894 -0.7903
vn 0.3468 -0.2895 -0.8921
vn -0.2719 0.6344 -0.7236
vn -0.1182 -0.3459 -0.9308
vn -0.1212 -0.2231 -0.9672
vn 0.7854 -0.1745 -0.5938
vn 0.6053 -0.3064 -0.7347
vn -0.3756 0.5939 -0.7115
vn 0.9285 0.2671 -0.2579
vn 0.9987 0.0017 0.0505
vn 0.9933 -0.1031 -0.0521
vn -0.9898 -0.0875 -0.1127
vn -0.9933 -0.1031 -0.0521
vn -0.9986 -0.0334 -0.0403
vn -0.9996 0.0223 0.0171
vn -0.2982 0.0805 -0.9511
vn -0.4700 0.1362 -0.8721
vn 0.1929 -0.4983 0.8453
vn -0.0000 -0.5749 0.8182
vn 0.1869 -0.5730 0.7980
vn 0.6161 -0.5152 -0.5958
vn 0.6168 -0.4173 -0.6674
vn 0.9898 -0.0875 -0.1127
vn -0.7528 -0.0770 -0.6537
vn -0.2488 0.4542 0.8554
vn -0.2004 0.9390 0.2796
vn -0.3884 0.8880 0.2461
vn 0.1182 -0.3459 -0.9308
vn -0.9786 0.1097 0.1742
vn -0.9551 0.1872 0.2298
vn -0.9745 0.1468 0.1696
vn -0.3179 -0.0354 -0.9475
vn 0.9878 0.0305 0.1526
vn 0.9875 0.0458 0.1508
vn -0.8928 0.2599 -0.3678
vn -0.8970 0.3290 -0.2952
vn -0.0000 0.8817 0.4718
vn -0.0000 0.9572 0.2893
vn -0.7854 -0.1745 -0.5938
vn -0.0000 0.1728 0.9850
vn 0.2319 0.1640 0.9588
vn 0.3572 -0.4125 -0.8380
vn 0.3649 -0.5224 -0.7707
vn -0.0000 -0.6906 -0.7233
vn -0.0000 -0.6815 -0.7318
vn 0.1468 -0.6820 -0.7164
vn 0.1427 -0.6919 -0.7077
vn 0.9995 -0.0037 0.0329
vn 0.9900 0.0556 0.1296
vn -0.0000 0.9879 0.1553
vn -0.1862 0.9721 0.1426
vn -0.0000 -0.3596 -0.9331
vn -0.0000 -0.4681 -0.8837
vn -0.1191 -0.4607 -0.8795
vn 0.7833 -0.4849 -0.3891
vn 0.9869 0.0629 0.1488
vn -0.9823 -0.1521 -0.1094
vn 0.1246 -0.5618 -0.8178
vn -0.0000 -0.5640 -0.8258
vn 0.1191 -0.4607 -0.8795
vn -0.9725 -0.2017 -0.1164
vn -0.9330 -0.2932 -0.2088
vn -0.8902 -0.3549 -0.2857
vn -0.3572 -0.4125 -0.8380
vn -0.6053 -0.3064 -0.7347
vn -0.1246 -0.5618 -0.8178
vn -0.3649 -0.5224 -0.7707
vn 0.3702 -0.6072 -0.7030
vn 0.1339 -0.6395 -0.7570
vn -0.9115 -0.1409 -0.3864
vn -0.9601 -0.0571 -0.2739
vn -0.1468 -0.6820 -0.7164
vn -0.1339 -0.6395 -0.7570
vn -0.0000 -0.6399 -0.7684
vn 0.8048 -0.5020 -0.3167
vn 0.6995 -0.5782 -0.4200
vn -0.3702 -0.6072 -0.7030
vn -0.0000 -0.3030 -0.9530
vn -0.5259 -0.6345 -0.5665
vn -0.6995 -0.5782 -0.4200
vn -0.6168 -0.4173 -0.6674
vn -0.3717 -0.6551 -0.6578
vn -0.1427 -0.6919 -0.7077
vn -0.8048 -0.2726 -0.5273
vn -0.3067 0.9403 -0.1475
vn -0.3341 -0.6745 -0.6583
vn -0.9180 -0.2381 -0.3172
vn -0.8048 -0.5020 -0.3167
vn -0.9733 -0.1373 -0.1837
vn 0.9330 -0.2932 -0.2088
vn -0.3629 0.9255 0.1081
vn -0.9816 0.0099 -0.1907
vn 0.9823 -0.1521 -0.1094
vn -0.9894 0.0863 -0.1167
vn -0.7412 0.5457 -0.3909
vn -0.8882 0.3730 -0.2683
vn -0.3374 0.9411 -0.0213
vn -0.8039 0.5211 -0.2865
vn -0.5442 0.7610 -0.3532
vn -0.9858 0.1526 -0.0699
vn -0.5633 0.7729 -0.2922
vn -0.9863 0.0792 0.1449
vn -0.8843 0.3862 0.2624
vn -0.7801 0.5393 0.3172
vn 0.9786 0.1097 0.1742
vn -0.9898 0.0425 0.1363
vn -0.9897 0.0281 0.1407
vn -0.9900 0.0555 0.1296
vn -0.9869 0.0629 0.1488
vn -0.9875 0.0458 0.1508
vn -0.9835 0.0805 0.1622
vn 0.2930 -0.4247 0.8566
vn -0.9387 0.2761 0.2063
vn -0.9878 0.0305 0.1526
vn 0.2156 -0.1922 0.9574
vn 0.9551 0.1872 0.2298
vn -0.5293 0.8460 0.0637
vn -0.4843 0.8730 -0.0577
vn -0.9417 0.2378 0.2379
vn -0.8737 0.2680 0.4061
vn 0.7548 0.1172 0.6453
vn 0.3971 -0.2133 0.8927
vn -0.7948 0.3716 0.4798
vn -0.7494 0.1438 0.6463
vn -0.6177 0.6873 0.3823
vn -0.5717 0.7967 0.1960
vn 0.4498 0.6301 0.6330
vn 0.2004 0.9390 0.2796
vn 0.2233 0.8567 0.4649
vn -0.7548 0.1172 0.6453
vn -0.0000 -0.7932 0.6090
vn 0.2023 -0.3284 0.9226
vn 0.4542 -0.5676 0.6866
vn 0.1962 -0.2080 0.9582
vn 0.0870 -0.0762 0.9933
vn 0.0638 -0.0428 0.9970
vn 0.0387 0.0028 0.9992
vn 0.3478 -0.5540 0.7564
vn 0.0139 0.0594 0.9981
vn -0.1962 -0.2080 0.9582
vn 0.0018 0.0970 0.9953
vn -0.0870 -0.0762 0.9933
vn -0.0638 -0.0428 0.9970
vn -0.0000 -0.8196 -0.5730
vn -0.0387 0.0028 0.9992
vn -0.0139 0.0594 0.9981
vn -0.0018 0.0970 0.9953
vt 0.000000 0.000000
s 1
f 1/1/1 2/1/2 3/1/3
f 274/1/4 261/1/5 253/1/6 259/1/7
f 1/1/1 3/1/3 6/1/8
f 49/1/9 57/1/10 56/1/11 55/1/12
f 146/1/13 169/1/14 151/1/15 145/1/16
f 64/1/17 120/1/18 119/1/19 113/1/20
f 211/1/21 212/1/22 207/1/23 206/1/24
f 6/1/8 3/1/3 9/1/25
f 267/1/26 298/1/27 293/1/28 260/1/29
f 299/1/30 305/1/31 288/1/32 280/1/33
f 243/1/34 244/1/35 180/1/36 235/1/37
f 252/1/38 259/1/7 253/1/6 246/1/39
f 248/1/40 509/1/41 502/1/42 501/1/43
f 281/1/44 227/1/45 225/1/46 275/1/47
f 294/1/48 295/1/49 221/1/50 289/1/51
f 9/1/25 3/1/3 18/1/52
f 245/1/53 252/1/38 246/1/39 238/1/54
f 287/1/55 313/1/56 294/1/48 289/1/51
f 191/1/57 249/1/58 248/1/40 242/1/59
f 245/1/53 267/1/26 260/1/29 252/1/38
f 521/1/60 555/1/61 515/1/62 513/1/63
f 25/1/64 3/1/3 2/1/2
f 71/1/65 126/1/66 125/1/67 120/1/18
f 224/1/68 232/1/69 229/1/70 222/1/71
f 143/1/72 164/1/73 146/1/13 144/1/74
f 311/1/75 319/1/76 299/1/30 306/1/77
f 132/1/78 166/1/79 125/1/67 126/1/66
f 25/1/64 29/1/80 3/1/3
f 62/1/81 68/1/82 60/1/83 63/1/84
f 487/1/85 491/1/86 472/1/87 478/1/88
f 29/1/80 32/1/89 3/1/3
f 268/1/90 261/1/5 274/1/4 273/1/91
f 28/1/92 48/1/93 47/1/94 40/1/95
f 236/1/96 237/1/97 229/1/70 232/1/69
f 236/1/96 267/1/26 245/1/53 237/1/97
f 32/1/89 38/1/98 3/1/3
f 383/1/99 384/1/100 360/1/101 379/1/102
f 140/1/103 162/1/104 132/1/78 133/1/105
f 11/1/106 20/1/107 13/1/108 8/1/109
f 325/1/110 332/1/111 312/1/112 319/1/76
f 231/1/113 239/1/114 232/1/69 224/1/68
f 299/1/30 319/1/76 312/1/112 305/1/31
f 439/1/115 440/1/116 432/1/117 434/1/118
f 38/1/98 46/1/119 3/1/3
f 318/1/120 443/1/121 311/1/75 310/1/122
f 304/1/123 449/1/124 318/1/120 310/1/122
f 202/1/125 233/1/126 231/1/113 224/1/68
f 224/1/68 222/1/71 203/1/127 202/1/125
f 203/1/127 222/1/71 216/1/128 210/1/129
f 231/1/113 254/1/130 247/1/131 239/1/114
f 47/1/94 67/1/132 66/1/133 59/1/134
f 46/1/119 53/1/135 3/1/3
f 191/1/57 242/1/59 197/1/136 192/1/137
f 325/1/110 443/1/121 439/1/115 434/1/118
f 203/1/127 204/1/138 198/1/139 202/1/125
f 197/1/136 233/1/126 202/1/125 198/1/139
f 86/1/140 141/1/141 140/1/103 133/1/105
f 66/1/133 87/1/142 86/1/140 79/1/143
f 210/1/129 205/1/144 204/1/138 203/1/127
f 53/1/135 60/1/83 3/1/3
f 197/1/136 198/1/139 99/1/145 192/1/137
f 13/1/108 23/1/146 14/1/147 8/1/109
f 205/1/144 85/1/148 93/1/149 204/1/138
f 241/1/150 254/1/130 231/1/113 233/1/126
f 287/1/55 289/1/51 227/1/45 281/1/44
f 318/1/120 449/1/124 450/1/151 446/1/152
f 262/1/153 496/1/154 460/1/155 459/1/156
f 60/1/83 68/1/82 3/1/3
f 41/1/157 84/1/158 82/1/159 76/1/160
f 14/1/147 23/1/146 22/1/161 16/1/162
f 554/1/163 580/1/164 562/1/165 555/1/61
f 22/1/161 40/1/95 39/1/166 34/1/167
f 439/1/115 446/1/152 445/1/168 440/1/116
f 585/1/169 594/1/170 593/1/171 592/1/172
f 237/1/97 245/1/53 238/1/54 230/1/173
f 68/1/82 77/1/174 3/1/3
f 460/1/155 461/1/175 455/1/176 459/1/156
f 262/1/153 459/1/156 247/1/131 254/1/130
f 526/1/177 548/1/178 521/1/60 520/1/179
f 485/1/180 506/1/181 488/1/182 484/1/183
f 74/1/184 75/1/185 81/1/186
f 263/1/187 516/1/188 255/1/189 256/1/190
f 325/1/110 434/1/118 339/1/191 332/1/111
f 426/1/192 432/1/117 433/1/193 425/1/194
f 70/1/195 77/1/174 68/1/82 62/1/81
f 77/1/174 85/1/148 3/1/3
f 466/1/196 467/1/197 450/1/151 461/1/175
f 511/1/198 527/1/199 519/1/200 512/1/201
f 442/1/202 447/1/203 425/1/194 433/1/193
f 339/1/191 426/1/192 348/1/204 340/1/205
f 348/1/204 426/1/192 425/1/194 419/1/206
f 300/1/207 327/1/208 307/1/209 301/1/210
f 339/1/191 340/1/205 320/1/211 332/1/111
f 69/1/212 70/1/195 62/1/81 61/1/213
f 240/1/214 454/1/215 304/1/123 298/1/27
f 466/1/196 476/1/216 468/1/217 467/1/197
f 320/1/211 321/1/218 294/1/48 313/1/56
f 304/1/123 310/1/122 293/1/28 298/1/27
f 271/1/219 336/1/220 278/1/221 272/1/222
f 61/1/213 105/1/223 98/1/224 69/1/212
f 463/1/225 457/1/226 441/1/227 462/1/228
f 468/1/217 470/1/229 463/1/225 462/1/228
f 441/1/227 442/1/202 433/1/193 440/1/116
f 227/1/45 289/1/51 221/1/50 219/1/230
f 273/1/91 288/1/32 281/1/44 275/1/47
f 229/1/70 237/1/97 230/1/173 223/1/231
f 101/1/232 102/1/233 106/1/234
f 595/1/235 597/1/236 593/1/171 594/1/170
f 463/1/225 464/1/237 456/1/238 457/1/226
f 504/1/239 525/1/240 493/1/241 498/1/242
f 240/1/214 298/1/27 267/1/26 236/1/96
f 217/1/243 226/1/244 225/1/46 218/1/245
f 1/1/1 5/1/246 4/1/247 2/1/2
f 415/1/248 428/1/249 422/1/250 417/1/251
f 585/1/169 586/1/252 571/1/253 577/1/254
f 510/1/255 518/1/256 504/1/239 503/1/257
f 444/1/258 448/1/259 427/1/260 435/1/261
f 451/1/262 453/1/263 436/1/264 448/1/259
f 322/1/265 351/1/266 328/1/267 323/1/268
f 18/1/52 3/1/3 118/1/269
f 248/1/40 501/1/43 241/1/150 242/1/59
f 91/1/270 160/1/271 82/1/159 84/1/158
f 482/1/272 490/1/273 473/1/274 475/1/275
f 356/1/276 419/1/206 418/1/277 412/1/278
f 217/1/243 218/1/245 212/1/22 211/1/21
f 234/1/279 275/1/47 225/1/46 226/1/244
f 118/1/269 3/1/3 124/1/280
f 286/1/281 306/1/77 299/1/30 280/1/33
f 502/1/42 496/1/154 262/1/153 501/1/43
f 456/1/238 458/1/282 437/1/283 453/1/263
f 488/1/182 506/1/181 505/1/284 499/1/285
f 584/1/286 583/1/287 591/1/288 590/1/289
f 124/1/280 3/1/3 130/1/290
f 288/1/32 305/1/31 287/1/55 281/1/44
f 450/1/151 467/1/197 445/1/168 446/1/152
f 502/1/42 503/1/257 497/1/291 496/1/154
f 422/1/250 423/1/292 416/1/293 417/1/251
f 129/1/294 134/1/295 135/1/296
f 36/1/297 44/1/298 42/1/299 43/1/300
f 212/1/22 213/1/301 187/1/302 207/1/23
f 194/1/303 199/1/304 188/1/305 189/1/306
f 188/1/305 207/1/23 187/1/302 182/1/307
f 466/1/196 492/1/308 483/1/309 476/1/216
f 497/1/291 498/1/242 483/1/309 492/1/308
f 477/1/310 484/1/183 469/1/311 470/1/229
f 468/1/217 476/1/216 477/1/310 470/1/229
f 168/1/312 190/1/313 177/1/314 169/1/14
f 96/1/315 152/1/316 91/1/270 92/1/317
f 228/1/318 235/1/37 186/1/319 220/1/320
f 42/1/299 65/1/321 64/1/17 57/1/10
f 182/1/307 187/1/302 186/1/319 181/1/322
f 566/1/323 588/1/324 578/1/325 573/1/326
f 445/1/168 462/1/228 441/1/227 440/1/116
f 300/1/207 301/1/210 228/1/318 295/1/49
f 139/1/327 189/1/306 155/1/328 147/1/329
f 155/1/328 189/1/306 188/1/305 182/1/307
f 401/1/330 407/1/331 406/1/332 399/1/333
f 135/1/296 148/1/334 142/1/335 136/1/336
f 493/1/241 514/1/337 485/1/180 486/1/338
f 483/1/309 498/1/242 493/1/241 486/1/338
f 135/1/296 134/1/295 158/1/339
f 320/1/211 340/1/205 326/1/340 321/1/218
f 326/1/340 327/1/208 300/1/207 321/1/218
f 348/1/204 349/1/341 326/1/340 340/1/205
f 154/1/342 181/1/322 180/1/36 174/1/343
f 356/1/276 412/1/278 363/1/344 357/1/345
f 471/1/346 480/1/347 479/1/348 478/1/88
f 488/1/182 499/1/285 479/1/348 480/1/347
f 214/1/349 285/1/350 116/1/351 215/1/352
f 121/1/353 209/1/354 114/1/355 115/1/356
f 168/1/312 169/1/14 146/1/13 164/1/73
f 228/1/318 301/1/210 243/1/34 235/1/37
f 502/1/42 509/1/41 510/1/255 503/1/257
f 215/1/352 116/1/351 110/1/357 109/1/358
f 326/1/340 349/1/341 333/1/359 327/1/208
f 356/1/276 357/1/345 333/1/359 349/1/341
f 529/1/360 527/1/199 522/1/361 528/1/362
f 553/1/363 560/1/364 551/1/365 552/1/366
f 13/1/108 35/1/367 28/1/92 23/1/146
f 307/1/209 308/1/368 243/1/34 301/1/210
f 255/1/189 509/1/41 248/1/40 249/1/58
f 418/1/277 435/1/261 411/1/369 412/1/278
f 147/1/329 153/1/370 143/1/72 138/1/371
f 161/1/372 174/1/343 176/1/373 175/1/374
f 147/1/329 155/1/328 154/1/342 153/1/370
f 257/1/375 323/1/268 265/1/376 258/1/377
f 243/1/34 308/1/368 250/1/378 244/1/35
f 341/1/379 364/1/380 350/1/381 342/1/382
f 314/1/383 315/1/384 250/1/378 308/1/368
f 161/1/372 164/1/73 143/1/72 153/1/370
f 182/1/307 181/1/322 154/1/342 155/1/328
f 159/1/385 167/1/386 90/1/387 160/1/271
f 172/1/388 201/1/389 121/1/353 167/1/386
f 112/1/390 185/1/391 98/1/224 105/1/223
f 184/1/392 185/1/391 112/1/390 179/1/393
f 333/1/359 334/1/394 307/1/209 327/1/208
f 193/1/395 130/1/290 3/1/3
f 193/1/395 3/1/3 194/1/303
f 193/1/395 194/1/303 189/1/306 139/1/327
f 160/1/271 90/1/387 83/1/396 82/1/159
f 546/1/397 552/1/366 545/1/398 544/1/399
f 56/1/11 113/1/20 112/1/390 105/1/223
f 415/1/248 417/1/251 410/1/400 409/1/401
f 62/1/81 63/1/84 55/1/12 61/1/213
f 194/1/303 3/1/3 199/1/304
f 63/1/84 60/1/83 53/1/135 50/1/402
f 269/1/403 523/1/404 263/1/187 264/1/405
f 294/1/48 321/1/218 300/1/207 295/1/49
f 83/1/396 89/1/406 81/1/186 75/1/185
f 149/1/407 283/1/408 157/1/409 150/1/410
f 205/1/144 3/1/3 85/1/148
f 199/1/304 3/1/3 206/1/24
f 130/1/290 193/1/395 139/1/327 131/1/411
f 603/1/412 608/1/413 607/1/412 606/1/414
f 363/1/344 364/1/380 341/1/379 357/1/345
f 205/1/144 210/1/129 3/1/3
f 180/1/36 244/1/35 176/1/373 174/1/343
f 206/1/24 3/1/3 211/1/21
f 124/1/280 130/1/290 131/1/411 123/1/415
f 27/1/416 35/1/367 13/1/108 20/1/107
f 143/1/72 144/1/74 137/1/417 138/1/371
f 427/1/260 448/1/259 436/1/264 428/1/249
f 363/1/344 412/1/278 411/1/369 405/1/418
f 411/1/369 435/1/261 427/1/260 421/1/419
f 280/1/33 288/1/32 273/1/91 274/1/4
f 210/1/129 216/1/128 3/1/3
f 293/1/28 310/1/122 311/1/75 306/1/77
f 211/1/21 3/1/3 217/1/243
f 123/1/415 137/1/417 104/1/420 111/1/421
f 137/1/417 144/1/74 103/1/422 104/1/420
f 216/1/128 223/1/231 3/1/3
f 45/1/423 46/1/119 38/1/98 37/1/424
f 159/1/385 173/1/425 172/1/388 167/1/386
f 317/1/426 345/1/427 338/1/428 331/1/429
f 17/1/430 111/1/421 104/1/420 21/1/431
f 217/1/243 3/1/3 226/1/244
f 578/1/325 577/1/254 559/1/432 573/1/326
f 103/1/422 144/1/74 146/1/13 145/1/16
f 42/1/299 57/1/10 49/1/9 43/1/300
f 43/1/300 45/1/423 37/1/424 36/1/297
f 37/1/424 38/1/98 32/1/89 31/1/433
f 223/1/231 230/1/173 3/1/3
f 18/1/52 118/1/269 111/1/421 17/1/430
f 21/1/431 104/1/420 103/1/422 97/1/434
f 226/1/244 3/1/3 234/1/279
f 9/1/25 18/1/52 17/1/430 10/1/435
f 118/1/269 124/1/280 123/1/415 111/1/421
f 32/1/89 29/1/80 24/1/436 31/1/433
f 230/1/173 238/1/54 3/1/3
f 33/1/437 44/1/298 36/1/297 30/1/438
f 64/1/17 113/1/20 56/1/11 57/1/10
f 304/1/123 454/1/215 455/1/176 449/1/124
f 161/1/372 175/1/374 168/1/312 164/1/73
f 333/1/359 357/1/345 341/1/379 334/1/394
f 30/1/438 31/1/433 24/1/436 26/1/439
f 238/1/54 246/1/39 3/1/3
f 24/1/436 29/1/80 25/1/64 15/1/440
f 33/1/437 52/1/441 51/1/442 44/1/298
f 94/1/443 141/1/141 86/1/140 87/1/142
f 50/1/402 53/1/135 46/1/119 45/1/423
f 119/1/19 179/1/393 112/1/390 113/1/20
f 100/1/444 136/1/336 94/1/443 95/1/445
f 176/1/373 251/1/446 183/1/447 175/1/374
f 246/1/39 253/1/6 3/1/3
f 212/1/22 218/1/245 219/1/230 213/1/301
f 183/1/447 190/1/313 168/1/312 175/1/374
f 178/1/448 256/1/190 184/1/392 179/1/393
f 250/1/378 315/1/384 257/1/375 251/1/446
f 178/1/448 179/1/393 119/1/19 171/1/449
f 200/1/450 272/1/222 208/1/451 201/1/389
f 123/1/415 131/1/411 138/1/371 137/1/417
f 154/1/342 174/1/343 161/1/372 153/1/370
f 253/1/6 261/1/5 3/1/3
f 51/1/442 72/1/452 71/1/65 65/1/321
f 71/1/65 120/1/18 64/1/17 65/1/321
f 184/1/392 249/1/58 191/1/57 185/1/391
f 178/1/448 264/1/405 263/1/187 256/1/190
f 322/1/265 323/1/268 257/1/375 315/1/384
f 314/1/383 342/1/382 322/1/265 315/1/384
f 26/1/439 34/1/167 33/1/437 30/1/438
f 3/1/3 261/1/5 268/1/90
f 3/1/3 268/1/90 234/1/279
f 517/1/453 518/1/256 510/1/255 516/1/188
f 516/1/188 263/1/187 523/1/404 517/1/453
f 317/1/426 309/1/454 355/1/455 345/1/427
f 350/1/381 351/1/266 322/1/265 342/1/382
f 9/1/25 10/1/435 7/1/456 6/1/8
f 1/1/1 6/1/8 7/1/456 5/1/246
f 517/1/453 532/1/457 524/1/458 518/1/256
f 541/1/459 542/1/460 534/1/461 540/1/462
f 371/1/463 372/1/464 350/1/381 364/1/380
f 363/1/344 405/1/418 371/1/463 364/1/380
f 27/1/416 84/1/158 41/1/157 35/1/367
f 7/1/456 11/1/106 8/1/109 5/1/246
f 15/1/440 25/1/64 2/1/2 4/1/247
f 7/1/456 10/1/435 12/1/465 11/1/106
f 524/1/458 528/1/362 522/1/361 525/1/240
f 335/1/466 336/1/220 271/1/219 329/1/467
f 411/1/369 421/1/419 404/1/468 405/1/418
f 371/1/463 405/1/418 404/1/468 398/1/469
f 21/1/431 97/1/434 19/1/470 12/1/465
f 19/1/470 20/1/107 11/1/106 12/1/465
f 339/1/191 434/1/118 432/1/117 426/1/192
f 485/1/180 514/1/337 511/1/198 506/1/181
f 404/1/468 421/1/419 415/1/248 409/1/401
f 427/1/260 428/1/249 415/1/248 421/1/419
f 260/1/29 286/1/281 259/1/7 252/1/38
f 22/1/161 34/1/167 26/1/439 16/1/162
f 19/1/470 97/1/434 96/1/315 92/1/317
f 103/1/422 145/1/16 96/1/315 97/1/434
f 47/1/94 59/1/134 39/1/166 40/1/95
f 441/1/227 457/1/226 452/1/471 442/1/202
f 348/1/204 419/1/206 356/1/276 349/1/341
f 159/1/385 160/1/271 91/1/270 152/1/316
f 139/1/327 147/1/329 138/1/371 131/1/411
f 151/1/15 152/1/316 96/1/315 145/1/16
f 463/1/225 470/1/229 469/1/311 464/1/237
f 458/1/282 465/1/472 430/1/473 437/1/283
f 297/1/474 303/1/475 127/1/476
f 241/1/150 501/1/43 262/1/153 254/1/130
f 39/1/166 52/1/441 33/1/437 34/1/167
f 177/1/314 173/1/425 151/1/15 169/1/14
f 4/1/247 14/1/147 16/1/162 15/1/440
f 128/1/477 309/1/454 134/1/295
f 28/1/92 40/1/95 22/1/161 23/1/146
f 311/1/75 443/1/121 325/1/110 319/1/76
f 19/1/470 92/1/317 27/1/416 20/1/107
f 37/1/424 31/1/433 30/1/438 36/1/297
f 183/1/447 258/1/377 195/1/478 190/1/313
f 195/1/478 196/1/479 177/1/314 190/1/313
f 471/1/346 478/1/88 472/1/87 465/1/472
f 213/1/301 219/1/230 221/1/50 220/1/320
f 222/1/71 229/1/70 223/1/231 216/1/128
f 579/1/480 586/1/252 587/1/481 581/1/482
f 27/1/416 92/1/317 91/1/270 84/1/158
f 410/1/400 408/1/483 393/1/484 409/1/401
f 497/1/291 503/1/257 504/1/239 498/1/242
f 445/1/168 467/1/197 468/1/217 462/1/228
f 428/1/249 436/1/264 429/1/485 422/1/250
f 208/1/451 279/1/486 214/1/349 209/1/354
f 41/1/157 48/1/93 28/1/92 35/1/367
f 43/1/300 49/1/9 50/1/402 45/1/423
f 551/1/365 573/1/326 559/1/432 550/1/487
f 546/1/397 544/1/399 539/1/488 543/1/489
f 328/1/267 329/1/467 265/1/376 323/1/268
f 177/1/314 196/1/479 172/1/388 173/1/425
f 151/1/15 173/1/425 159/1/385 152/1/316
f 425/1/194 447/1/203 418/1/277 419/1/206
f 350/1/381 372/1/464 358/1/490 351/1/266
f 330/1/491 337/1/492 163/1/493
f 472/1/87 491/1/86 482/1/272 475/1/275
f 265/1/376 266/1/494 195/1/478 258/1/377
f 473/1/274 490/1/273 495/1/495 489/1/496
f 200/1/450 201/1/389 172/1/388 196/1/479
f 195/1/478 266/1/494 200/1/450 196/1/479
f 524/1/458 525/1/240 504/1/239 518/1/256
f 89/1/406 108/1/497 88/1/498 81/1/186
f 539/1/488 544/1/399 538/1/499 537/1/500
f 284/1/501 285/1/350 214/1/349 279/1/486
f 186/1/319 235/1/37 180/1/36 181/1/322
f 271/1/219 272/1/222 200/1/450 266/1/494
f 341/1/379 342/1/382 314/1/383 334/1/394
f 541/1/459 565/1/502 547/1/503 542/1/460
f 376/1/504 398/1/469 393/1/484 386/1/505
f 402/1/506 395/1/507 394/1/508 400/1/509
f 472/1/87 475/1/275 438/1/510 465/1/472
f 438/1/510 475/1/275 473/1/274 474/1/511
f 309/1/454 303/1/475 355/1/455
f 90/1/387 167/1/386 121/1/353 115/1/356
f 55/1/12 63/1/84 50/1/402 49/1/9
f 539/1/488 537/1/500 530/1/512 536/1/513
f 328/1/267 359/1/514 335/1/466 329/1/467
f 312/1/112 313/1/56 287/1/55 305/1/31
f 293/1/28 306/1/77 286/1/281 260/1/29
f 208/1/451 209/1/354 121/1/353 201/1/389
f 307/1/209 334/1/394 314/1/383 308/1/368
f 538/1/499 544/1/399 545/1/398 540/1/462
f 365/1/515 366/1/516 335/1/466 359/1/514
f 469/1/311 484/1/183 488/1/182 480/1/347
f 410/1/400 417/1/251 416/1/293 414/1/517
f 473/1/274 489/1/496 481/1/518 474/1/511
f 355/1/455 303/1/475 370/1/519
f 483/1/309 486/1/338 477/1/310 476/1/216
f 255/1/189 516/1/188 510/1/255 509/1/41
f 381/1/520 382/1/521 365/1/515 377/1/522
f 376/1/504 386/1/505 381/1/520 377/1/522
f 302/1/523 375/1/524 303/1/475
f 370/1/519 303/1/475 375/1/524
f 302/1/523 367/1/525 375/1/524
f 343/1/526 344/1/527 278/1/221 336/1/220
f 335/1/466 366/1/516 343/1/526 336/1/220
f 373/1/528 374/1/529 343/1/526 366/1/516
f 387/1/530 401/1/330 394/1/508 388/1/531
f 464/1/237 471/1/346 458/1/282 456/1/238
f 291/1/532 292/1/533 116/1/351 285/1/350
f 396/1/534 390/1/535 389/1/536 395/1/507
f 410/1/400 414/1/517 407/1/331 408/1/483
f 387/1/530 408/1/483 407/1/331 401/1/330
f 414/1/517 420/1/537 413/1/538 407/1/331
f 373/1/528 390/1/535 378/1/539 374/1/529
f 381/1/520 388/1/531 389/1/536 382/1/521
f 617/1/540 618/1/540 616/1/540 611/1/540
f 383/1/99 392/1/541 385/1/542
f 436/1/264 453/1/263 437/1/283 429/1/485
f 404/1/468 409/1/401 393/1/484 398/1/469
f 378/1/539 379/1/102 352/1/543 374/1/529
f 396/1/534 391/1/544 378/1/539 390/1/535
f 387/1/530 388/1/531 381/1/520 386/1/505
f 394/1/508 395/1/507 389/1/536 388/1/531
f 447/1/203 444/1/258 435/1/261 418/1/277
f 394/1/508 401/1/330 399/1/333 400/1/509
f 455/1/176 461/1/175 450/1/151 449/1/124
f 402/1/506 403/1/545 396/1/534 395/1/507
f 278/1/221 279/1/486 208/1/451 272/1/222
f 352/1/543 353/1/546 284/1/501 344/1/527
f 170/1/547 171/1/449 125/1/67 166/1/79
f 391/1/544 397/1/548 392/1/541 383/1/99
f 278/1/221 344/1/527 284/1/501 279/1/486
f 352/1/543 379/1/102 360/1/101 353/1/546
f 221/1/50 295/1/49 228/1/318 220/1/320
f 265/1/376 329/1/467 271/1/219 266/1/494
f 191/1/57 192/1/137 98/1/224 185/1/391
f 406/1/332 407/1/331 413/1/538
f 429/1/485 430/1/473 423/1/292 422/1/250
f 360/1/101 361/1/549 291/1/532 353/1/546
f 545/1/398 552/1/366 551/1/365 550/1/487
f 451/1/262 457/1/226 456/1/238 453/1/263
f 69/1/212 99/1/145 93/1/149 70/1/195
f 214/1/349 215/1/352 114/1/355 209/1/354
f 367/1/525 384/1/100 380/1/550 375/1/524
f 367/1/525 302/1/523 296/1/551 361/1/549
f 291/1/532 361/1/549 296/1/551 292/1/533
f 416/1/293 423/1/292 424/1/552
f 371/1/463 398/1/469 376/1/504 372/1/464
f 89/1/406 115/1/356 114/1/355 108/1/497
f 276/1/553 543/1/489 539/1/488 536/1/513
f 284/1/501 353/1/546 291/1/532 285/1/350
f 302/1/523 303/1/475 297/1/474 296/1/551
f 292/1/533 296/1/551 297/1/474 117/1/554
f 423/1/292 430/1/473 424/1/552
f 424/1/552 430/1/473 431/1/555
f 82/1/159 83/1/396 75/1/185 76/1/160
f 312/1/112 332/1/111 320/1/211 313/1/56
f 116/1/351 292/1/533 117/1/554 110/1/357
f 429/1/485 437/1/283 430/1/473
f 117/1/554 297/1/474 127/1/476 122/1/556
f 431/1/555 430/1/473 438/1/510
f 16/1/162 26/1/439 24/1/436 15/1/440
f 54/1/557 76/1/160 75/1/185 74/1/184
f 432/1/117 440/1/116 433/1/193
f 81/1/186 88/1/498 80/1/558 74/1/184
f 170/1/547 270/1/559 269/1/403 264/1/405
f 54/1/557 67/1/132 47/1/94 48/1/93
f 114/1/355 215/1/352 109/1/358 108/1/497
f 493/1/241 525/1/240 522/1/361 514/1/337
f 80/1/558 95/1/445 73/1/560 74/1/184
f 56/1/11 105/1/223 61/1/213 55/1/12
f 88/1/498 108/1/497 109/1/358 102/1/233
f 73/1/560 87/1/142 66/1/133 67/1/132
f 51/1/442 65/1/321 42/1/299 44/1/298
f 247/1/131 454/1/215 240/1/214 239/1/114
f 110/1/357 106/1/234 102/1/233 109/1/358
f 102/1/233 101/1/232 80/1/558 88/1/498
f 66/1/133 79/1/143 58/1/561 59/1/134
f 39/1/166 59/1/134 58/1/561 52/1/441
f 58/1/561 72/1/452 51/1/442 52/1/441
f 416/1/293 424/1/552 420/1/537 414/1/517
f 106/1/234 122/1/556 107/1/562 101/1/232
f 451/1/262 452/1/471 457/1/226
f 511/1/198 512/1/201 505/1/284 506/1/181
f 78/1/563 126/1/66 71/1/65 72/1/452
f 134/1/295 309/1/454 317/1/426 316/1/564
f 384/1/100 383/1/99 385/1/542 380/1/550
f 90/1/387 115/1/356 89/1/406 83/1/396
f 128/1/477 134/1/295 129/1/294 107/1/562
f 430/1/473 465/1/472 438/1/510
f 460/1/155 492/1/308 466/1/196 461/1/175
f 86/1/140 133/1/105 78/1/563 79/1/143
f 73/1/560 95/1/445 94/1/443 87/1/142
f 378/1/539 391/1/544 383/1/99 379/1/102
f 477/1/310 486/1/338 485/1/180 484/1/183
f 135/1/296 136/1/336 100/1/444 129/1/294
f 465/1/472 458/1/282 471/1/346
f 464/1/237 469/1/311 471/1/346
f 522/1/361 527/1/199 511/1/198 514/1/337
f 149/1/407 556/1/565 290/1/566 283/1/408
f 396/1/534 403/1/545 397/1/548 391/1/544
f 206/1/24 207/1/23 188/1/305 199/1/304
f 360/1/101 384/1/100 367/1/525 361/1/549
f 479/1/348 494/1/567 487/1/85 478/1/88
f 471/1/346 469/1/311 480/1/347
f 117/1/554 122/1/556 106/1/234 110/1/357
f 232/1/69 239/1/114 240/1/214 236/1/96
f 346/1/568 347/1/569 338/1/428 345/1/427
f 346/1/568 369/1/570 368/1/571 362/1/572
f 142/1/335 150/1/410 140/1/103 141/1/141
f 149/1/407 150/1/410 142/1/335 148/1/334
f 317/1/426 331/1/429 324/1/573 316/1/564
f 324/1/573 330/1/491 163/1/493 316/1/564
f 563/1/574 515/1/62 555/1/61 562/1/165
f 135/1/296 158/1/339 156/1/575 148/1/334
f 556/1/565 149/1/407 148/1/334 156/1/575
f 213/1/301 220/1/320 186/1/319 187/1/302
f 250/1/378 251/1/446 176/1/373 244/1/35
f 346/1/568 362/1/572 354/1/576 347/1/569
f 579/1/480 580/1/164 554/1/163 572/1/577
f 78/1/563 133/1/105 132/1/78 126/1/66
f 479/1/348 499/1/285 500/1/578
f 479/1/348 500/1/578 494/1/567
f 273/1/91 275/1/47 234/1/279 268/1/90
f 125/1/67 171/1/449 119/1/19 120/1/18
f 54/1/557 74/1/184 73/1/560 67/1/132
f 157/1/409 277/1/579 165/1/580 162/1/104
f 165/1/580 166/1/79 132/1/78 162/1/104
f 499/1/285 505/1/284 500/1/578
f 156/1/575 570/1/581 557/1/582 556/1/565
f 500/1/578 505/1/284 507/1/583
f 500/1/578 507/1/583 508/1/584
f 157/1/409 162/1/104 140/1/103 150/1/410
f 165/1/580 270/1/559 170/1/547 166/1/79
f 170/1/547 264/1/405 178/1/448 171/1/449
f 557/1/582 558/1/585 290/1/566 556/1/565
f 561/1/586 560/1/364 553/1/363 558/1/585
f 107/1/562 129/1/294 100/1/444 101/1/232
f 507/1/583 513/1/63 508/1/584
f 508/1/584 513/1/63 515/1/62
f 530/1/512 532/1/457 517/1/453 523/1/404
f 134/1/295 316/1/564 163/1/493 158/1/339
f 290/1/566 558/1/585 553/1/363 549/1/587
f 584/1/286 588/1/324 566/1/323 561/1/586
f 513/1/63 520/1/179 521/1/60
f 157/1/409 283/1/408 282/1/588 277/1/579
f 290/1/566 549/1/587 282/1/588 283/1/408
f 257/1/375 258/1/377 183/1/447 251/1/446
f 80/1/558 101/1/232 100/1/444 95/1/445
f 165/1/580 277/1/579 276/1/553 270/1/559
f 343/1/526 374/1/529 352/1/543 344/1/527
f 566/1/323 573/1/326 551/1/365 560/1/364
f 142/1/335 141/1/141 94/1/443 136/1/336
f 282/1/588 549/1/587 546/1/397 543/1/489
f 553/1/363 552/1/366 546/1/397 549/1/587
f 529/1/360 533/1/589 519/1/200 527/1/199
f 269/1/403 536/1/513 530/1/512 523/1/404
f 358/1/490 359/1/514 328/1/267 351/1/266
f 184/1/392 256/1/190 255/1/189 249/1/58
f 276/1/553 536/1/513 269/1/403 270/1/559
f 358/1/490 377/1/522 365/1/515 359/1/514
f 70/1/195 93/1/149 85/1/148 77/1/174
f 198/1/139 204/1/138 93/1/149 99/1/145
f 376/1/504 377/1/522 358/1/490 372/1/464
f 530/1/512 537/1/500 531/1/590 532/1/457
f 538/1/499 535/1/591 531/1/590 537/1/500
f 524/1/458 532/1/457 531/1/590 528/1/362
f 545/1/398 550/1/487 541/1/459 540/1/462
f 538/1/499 540/1/462 534/1/461 535/1/591
f 559/1/432 577/1/254 571/1/253 565/1/502
f 529/1/360 535/1/591 534/1/461 533/1/589
f 531/1/590 535/1/591 529/1/360 528/1/362
f 259/1/7 286/1/281 280/1/33 274/1/4
f 41/1/157 76/1/160 54/1/557 48/1/93
f 559/1/432 565/1/502 541/1/459 550/1/487
f 534/1/461 542/1/460 526/1/177 533/1/589
f 98/1/224 192/1/137 99/1/145 69/1/212
f 519/1/200 533/1/589 526/1/177 520/1/179
f 58/1/561 79/1/143 78/1/563 72/1/452
f 497/1/291 492/1/308 460/1/155 496/1/154
f 197/1/136 242/1/59 241/1/150 233/1/126
f 127/1/476 128/1/477 107/1/562 122/1/556
f 557/1/582 576/1/592 561/1/586 558/1/585
f 547/1/503 548/1/178 526/1/177 542/1/460
f 442/1/202 452/1/471 444/1/258 447/1/203
f 513/1/63 507/1/583 505/1/284 512/1/201
f 519/1/200 520/1/179 513/1/63 512/1/201
f 588/1/324 595/1/235 594/1/170 578/1/325
f 590/1/289 595/1/235 588/1/324 584/1/286
f 560/1/364 561/1/586 566/1/323
f 318/1/120 446/1/152 439/1/115 443/1/121
f 563/1/574 567/1/593 564/1/594
f 563/1/574 562/1/165 568/1/595
f 564/1/594 569/1/596 508/1/584
f 564/1/594 567/1/593 569/1/596
f 570/1/581 337/1/492 557/1/582
f 163/1/493 337/1/492 570/1/581
f 393/1/484 408/1/483 387/1/530 386/1/505
f 571/1/253 572/1/577 547/1/503 565/1/502
f 163/1/493 570/1/581 156/1/575 158/1/339
f 569/1/596 567/1/593 575/1/597
f 557/1/582 337/1/492 576/1/592
f 547/1/503 572/1/577 554/1/163 548/1/178
f 554/1/163 555/1/61 521/1/60 548/1/178
f 282/1/588 543/1/489 276/1/553 277/1/579
f 578/1/325 594/1/170 585/1/169 577/1/254
f 355/1/455 369/1/570 346/1/568 345/1/427
f 575/1/597 567/1/593 582/1/598
f 337/1/492 583/1/287 576/1/592
f 576/1/592 583/1/287 561/1/586
f 225/1/46 227/1/45 219/1/230 218/1/245
f 561/1/586 583/1/287 584/1/286
f 571/1/253 586/1/252 579/1/480 572/1/577
f 448/1/259 444/1/258 452/1/471 451/1/262
f 17/1/430 21/1/431 12/1/465 10/1/435
f 585/1/169 592/1/172 587/1/481 586/1/252
f 582/1/598 567/1/593 589/1/599
f 303/1/475 309/1/454 128/1/477 127/1/476
f 515/1/62 563/1/574 564/1/594 508/1/584
f 590/1/289 591/1/288 567/1/593
f 579/1/480 581/1/482 574/1/600 580/1/164
f 247/1/131 459/1/156 455/1/176 454/1/215
f 562/1/165 580/1/164 574/1/600 568/1/595
f 589/1/599 567/1/593 596/1/601
f 590/1/289 597/1/236 595/1/235
f 591/1/288 583/1/287 598/1/602
f 591/1/288 598/1/602 567/1/593
f 596/1/601 567/1/593 599/1/603
f 598/1/602 600/1/604 567/1/593
f 599/1/603 567/1/593 601/1/413
f 600/1/604 602/1/605 567/1/593
f 606/1/414 609/1/606 604/1/412 603/1/412
f 602/1/605 605/1/607 567/1/593
f 8/1/109 14/1/147 4/1/247 5/1/246
f 603/1/412 604/1/412 601/1/413 567/1/593
f 603/1/412 567/1/593 608/1/413
f 605/1/607 610/1/608 567/1/593
f 365/1/515 382/1/521 373/1/528 366/1/516
f 606/1/414 607/1/412 612/1/606
f 611/1/540 614/1/540 609/1/606 606/1/414
f 610/1/608 613/1/609 567/1/593
f 608/1/413 567/1/593 613/1/609
f 612/1/606 617/1/540 611/1/540 606/1/414
f 611/1/540 616/1/540 615/1/540 614/1/540
f 389/1/536 390/1/535 373/1/528 382/1/521
