# Blender 4.3.2
# www.blender.org
o hair.113
v 7.148781 1.354730 -0.005940
v 7.148926 1.354489 -0.006726
v 7.145325 1.354465 -0.007569
v 7.151674 1.354338 -0.005997
v 7.151323 1.354768 -0.004668
v 7.148375 1.354948 -0.005280
v 7.150713 1.355166 -0.003505
v 7.153981 1.354555 -0.003233
v 7.147965 1.355149 -0.004615
v 7.153121 1.355152 -0.001624
v 7.149914 1.355505 -0.002468
v 7.151965 1.355656 -0.000319
v 7.156761 1.353999 -0.001603
v 7.154499 1.353890 -0.005096
v 7.154622 1.353222 -0.007070
v 7.151804 1.353877 -0.007364
v 7.147360 1.355298 -0.004174
v 7.155499 1.354902 0.000394
v 7.153823 1.355674 0.001932
v 7.148927 1.355786 -0.001685
v 7.150555 1.356045 0.000635
v 7.157421 1.353090 -0.003991
v 7.157491 1.352228 -0.006553
v 7.151614 1.353444 -0.008708
v 7.149069 1.354230 -0.007506
v 7.146754 1.355447 -0.003734
v 7.157723 1.354426 0.002621
v 7.147815 1.356005 -0.001094
v 7.148941 1.356328 0.001269
v 7.151922 1.356191 0.002947
v 7.149838 1.356534 0.003558
v 7.160463 1.351887 -0.002632
v 7.148913 1.353976 -0.008272
v 7.146039 1.355501 -0.003580
v 7.159678 1.353063 0.000239
v 7.146592 1.356133 -0.000755
v 7.147172 1.356513 0.001616
v 7.152693 1.356329 0.005415
v 7.148757 1.353723 -0.009038
v 7.145325 1.355554 -0.003426
v 7.163033 1.351719 0.002724
v 7.145325 1.356187 -0.000640
v 7.145325 1.356580 0.001717
v 7.147611 1.356780 0.003888
v 7.145315 1.356879 0.003990
v 7.155196 1.355630 0.004388
v 7.144610 1.355501 -0.003580
v 7.144058 1.356133 -0.000755
v 7.143478 1.356513 0.001616
v 7.147740 1.357074 0.006353
v 7.150210 1.356739 0.005978
v 7.156149 1.355670 0.007428
v 7.143896 1.355447 -0.003734
v 7.142835 1.356005 -0.001094
v 7.141709 1.356328 0.001269
v 7.143021 1.356783 0.003916
v 7.140800 1.356541 0.003617
v 7.150239 1.356896 0.008489
v 7.153004 1.356383 0.007945
v 7.159442 1.354075 0.005180
v 7.143291 1.355298 -0.004174
v 7.141724 1.355786 -0.001685
v 7.140095 1.356045 0.000634
v 7.142838 1.357089 0.006466
v 7.145283 1.357228 0.006521
v 7.152990 1.356278 0.010444
v 7.160304 1.354200 0.008195
v 7.142684 1.355149 -0.004615
v 7.140736 1.355505 -0.002468
v 7.138686 1.355656 -0.000319
v 7.138721 1.356203 0.003039
v 7.136825 1.355686 0.002036
v 7.145236 1.357527 0.009141
v 7.147683 1.357322 0.008913
v 7.142276 1.354948 -0.005280
v 7.139937 1.355166 -0.003505
v 7.137528 1.355152 -0.001624
v 7.137931 1.356375 0.005786
v 7.140392 1.356768 0.006212
v 7.147565 1.357445 0.011475
v 7.150108 1.356959 0.011054
v 7.141869 1.354730 -0.005940
v 7.139328 1.354768 -0.004668
v 7.136669 1.354555 -0.003233
v 7.135151 1.354910 0.000458
v 7.133889 1.354001 -0.001586
v 7.140272 1.357025 0.008870
v 7.142798 1.357382 0.009097
v 7.149887 1.356960 0.013818
v 7.141724 1.354489 -0.006726
v 7.138976 1.354338 -0.005997
v 7.136152 1.353890 -0.005096
v 7.132925 1.354457 0.002879
v 7.135446 1.355680 0.004803
v 7.142771 1.357612 0.011643
v 7.145180 1.357682 0.011679
v 7.141581 1.354230 -0.007506
v 7.138846 1.353877 -0.007364
v 7.136028 1.353222 -0.007070
v 7.133230 1.353090 -0.003991
v 7.133159 1.352228 -0.006553
v 7.134465 1.355873 0.008206
v 7.137560 1.356597 0.008551
v 7.145117 1.357763 0.014306
v 7.147409 1.357505 0.014168
v 7.139036 1.353444 -0.008708
v 7.136352 1.352617 -0.009012
v 7.130187 1.351887 -0.002632
v 7.130971 1.353071 0.000303
v 7.137445 1.356908 0.011013
v 7.140229 1.357325 0.011408
v 7.147239 1.357562 0.017127
v 7.133664 1.351468 -0.009072
v 7.137040 1.352088 -0.010817
v 7.134601 1.350814 -0.011428
v 7.127617 1.351719 0.002724
v 7.131195 1.354124 0.005605
v 7.140227 1.357664 0.014049
v 7.142751 1.357818 0.014278
v 7.130924 1.349934 -0.008846
v 7.130271 1.350857 -0.005743
v 7.130304 1.354241 0.008606
v 7.132953 1.355648 0.010214
v 7.135136 1.356510 0.010826
v 7.134019 1.356280 0.011215
v 7.142733 1.358035 0.017172
v 7.145052 1.357844 0.017192
v 7.127436 1.349118 -0.004744
v 7.127164 1.350228 -0.001262
v 7.132290 1.355724 0.012753
v 7.135074 1.356842 0.013189
v 7.137462 1.357299 0.013587
v 7.133680 1.356413 0.013154
v 7.143873 1.357868 0.020813
v 7.124304 1.348066 -0.000124
v 7.124083 1.348961 0.003313
v 7.123803 1.349715 0.007022
v 7.126959 1.352212 0.007254
v 7.137486 1.357762 0.016690
v 7.140228 1.358039 0.017020
v 7.133153 1.356618 0.016218
v 7.121465 1.346122 0.004110
v 7.126687 1.352756 0.011202
v 7.129792 1.354534 0.011946
v 7.139554 1.358285 0.020675
v 7.141973 1.358180 0.020479
v 7.131428 1.355784 0.016060
v 7.129197 1.354731 0.015691
v 7.123479 1.350306 0.010990
v 7.123133 1.350712 0.015207
v 7.126439 1.353146 0.015333
v 7.139730 1.358169 0.024354
v 7.137194 1.358115 0.020267
v 7.137524 1.358233 0.025368
v 7.130013 1.355635 0.020031
v 7.121073 1.346694 0.007376
v 7.120622 1.347197 0.011138
v 7.122652 1.351109 0.019285
v 7.126738 1.353963 0.019518
v 7.133759 1.357988 0.032671
v 7.134679 1.357921 0.019932
v 7.134972 1.357267 0.016363
v 7.118948 1.343073 0.008018
v 7.128323 1.354773 0.019624
v 7.123792 1.354040 0.031299
v 7.122146 1.351257 0.024014
v 7.125547 1.348000 0.023325
v 7.119462 1.342859 0.005116
v 7.117588 1.339244 0.008568
v 7.117340 1.339581 0.011855
v 7.118547 1.343441 0.011536
v 7.127692 1.355089 0.024562
v 7.134791 1.350518 0.024161
v 7.116635 1.348010 0.029409
v 7.131959 1.356564 0.019894
v 7.118196 1.344179 0.016263
v 7.119937 1.347769 0.015433
v 7.121832 1.345500 0.000973
v 7.119976 1.342634 0.002219
v 7.118487 1.348026 0.024012
v 7.117774 1.345983 0.024227
v 7.117851 1.341829 0.023881
v 7.119503 1.347938 0.019913
v 7.121532 1.343371 -0.001855
v 7.118627 1.339328 0.003370
v 7.124726 1.347021 -0.003660
v 7.117762 1.341387 0.021317
v 7.118397 1.338689 0.021587
v 7.118213 1.345012 0.020944
v 7.119341 1.339080 -0.000026
v 7.117743 1.333453 0.001320
v 7.117278 1.333519 0.006773
v 7.117120 1.334461 0.011716
v 7.125610 1.345819 -0.007664
v 7.117569 1.337282 0.016320
v 7.118853 1.335002 0.019743
v 7.117414 1.340566 0.016838
v 7.117145 1.328257 0.002242
v 7.117143 1.328365 0.007098
v 7.122554 1.342159 -0.006269
v 7.117892 1.333807 0.015381
v 7.118178 1.329616 0.014652
v 7.119181 1.330262 0.018426
v 7.117786 1.328163 -0.002535
v 7.117384 1.323995 0.002841
v 7.117465 1.323823 0.007170
v 7.117427 1.329045 0.011352
v 7.119366 1.325191 0.017489
v 7.118567 1.333057 -0.003352
v 7.117818 1.323962 -0.002196
v 7.117621 1.320187 0.004733
v 7.117984 1.319308 0.007159
v 7.118464 1.318144 0.010367
v 7.117890 1.323447 0.010893
v 7.118657 1.321116 0.013547
v 7.119394 1.320514 0.016782
v 7.118432 1.325216 0.014064
v 7.120410 1.338129 -0.004704
v 7.117960 1.319757 -0.002214
v 7.118757 1.314355 0.000176
v 7.118867 1.317166 0.013066
v 7.119344 1.316033 0.016191
v 7.122031 1.336987 -0.010074
v 7.124058 1.340821 -0.011112
v 7.118976 1.319444 -0.008339
v 7.118520 1.316107 -0.002882
v 7.120256 1.308523 -0.004380
v 7.126127 1.339746 -0.015854
v 7.126966 1.344625 -0.011777
v 7.128803 1.343602 -0.015639
v 7.129462 1.347054 -0.011900
v 7.128213 1.348042 -0.008366
v 7.120156 1.332552 -0.009018
v 7.118903 1.323946 -0.008566
v 7.119564 1.314774 -0.007600
v 7.131149 1.346206 -0.015118
v 7.133512 1.348441 -0.014408
v 7.132041 1.349126 -0.011786
v 7.122787 1.332178 -0.015146
v 7.121873 1.328015 -0.015013
v 7.119291 1.328057 -0.008495
v 7.121525 1.324040 -0.015147
v 7.133284 1.345472 -0.017931
v 7.124398 1.336164 -0.015549
v 7.127497 1.335463 -0.020506
v 7.126269 1.331829 -0.020797
v 7.121418 1.319607 -0.014965
v 7.121798 1.314857 -0.014138
v 7.135824 1.350268 -0.013499
v 7.138012 1.351649 -0.012381
v 7.128866 1.338840 -0.020084
v 7.124929 1.319822 -0.021031
v 7.122545 1.310039 -0.013009
v 7.137317 1.349774 -0.015305
v 7.135333 1.347831 -0.016695
v 7.140148 1.352698 -0.011078
v 7.139205 1.351258 -0.013735
v 7.139442 1.353030 -0.010004
v 7.125142 1.324141 -0.021114
v 7.123511 1.306662 -0.011949
v 7.124135 1.303563 -0.008254
v 7.137496 1.347254 -0.018631
v 7.140554 1.350872 -0.014912
v 7.141972 1.352146 -0.012828
v 7.141032 1.352409 -0.012022
v 7.142362 1.353536 -0.009621
v 7.141893 1.353723 -0.009038
v 7.141737 1.353976 -0.008272
v 7.125516 1.327967 -0.020977
v 7.127995 1.299871 -0.011271
v 7.142831 1.353348 -0.010204
v 7.129811 1.327898 -0.025423
v 7.130413 1.331404 -0.025033
v 7.129566 1.303984 -0.017999
v 7.131606 1.297534 -0.013207
v 7.125892 1.305403 -0.015337
v 7.143413 1.353219 -0.010609
v 7.129424 1.324149 -0.025615
v 7.132381 1.338011 -0.023394
v 7.131314 1.334688 -0.024325
v 7.134236 1.302618 -0.019912
v 7.135612 1.296219 -0.014444
v 7.125403 1.310286 -0.018787
v 7.143994 1.353090 -0.011013
v 7.131196 1.342733 -0.019039
v 7.134224 1.341997 -0.021768
v 7.135676 1.334067 -0.026994
v 7.139606 1.301843 -0.020943
v 7.140129 1.295438 -0.015236
v 7.135074 1.331063 -0.027898
v 7.145325 1.301603 -0.021237
v 7.145325 1.308255 -0.025991
v 7.139526 1.308404 -0.025639
v 7.134071 1.308878 -0.024477
v 7.145325 1.295112 -0.015394
v 7.125048 1.315300 -0.020497
v 7.135874 1.344826 -0.020251
v 7.139489 1.314323 -0.028408
v 7.150521 1.295438 -0.015236
v 7.129140 1.315047 -0.024677
v 7.129304 1.309702 -0.022401
v 7.129147 1.319667 -0.025475
v 7.138817 1.344327 -0.021988
v 7.136438 1.337387 -0.025772
v 7.137702 1.341449 -0.023778
v 7.151044 1.301843 -0.020943
v 7.155038 1.296219 -0.014444
v 7.134027 1.319412 -0.028342
v 7.134301 1.324127 -0.028629
v 7.141447 1.341143 -0.025024
v 7.133984 1.314566 -0.027155
v 7.156415 1.302618 -0.019912
v 7.159045 1.297534 -0.013207
v 7.134640 1.327849 -0.028405
v 7.145325 1.319330 -0.029964
v 7.145325 1.314261 -0.028728
v 7.139522 1.319329 -0.029679
v 7.156579 1.308878 -0.024477
v 7.161085 1.303984 -0.017999
v 7.162656 1.299871 -0.011271
v 7.139882 1.327860 -0.029979
v 7.140107 1.330967 -0.029442
v 7.151161 1.314323 -0.028408
v 7.139691 1.324139 -0.030137
v 7.151124 1.308404 -0.025639
v 7.167139 1.306662 -0.011949
v 7.166515 1.303563 -0.008254
v 7.164759 1.305403 -0.015337
v 7.140804 1.337092 -0.027203
v 7.140408 1.333830 -0.028500
v 7.145325 1.324154 -0.030514
v 7.151128 1.319329 -0.029679
v 7.150959 1.324139 -0.030137
v 7.170393 1.308523 -0.004380
v 7.165247 1.310286 -0.018787
v 7.145325 1.333807 -0.028963
v 7.156624 1.319412 -0.028342
v 7.156666 1.314566 -0.027155
v 7.161346 1.309702 -0.022401
v 7.161510 1.315047 -0.024677
v 7.168105 1.310039 -0.013009
v 7.145325 1.330981 -0.029882
v 7.156349 1.324127 -0.028629
v 7.161226 1.324149 -0.025615
v 7.161503 1.319667 -0.025475
v 7.165721 1.319822 -0.021031
v 7.165603 1.315300 -0.020497
v 7.168853 1.314857 -0.014138
v 7.171087 1.314774 -0.007600
v 7.145325 1.327882 -0.030414
v 7.150768 1.327860 -0.029979
v 7.165508 1.324141 -0.021114
v 7.169231 1.319607 -0.014965
v 7.169125 1.324040 -0.015147
v 7.171674 1.319444 -0.008339
v 7.172131 1.316107 -0.002882
v 7.171893 1.314355 0.000176
v 7.150544 1.330967 -0.029442
v 7.155576 1.331063 -0.027898
v 7.156011 1.327849 -0.028405
v 7.171747 1.323946 -0.008566
v 7.168777 1.328015 -0.015013
v 7.172832 1.323962 -0.002196
v 7.172689 1.319757 -0.002214
v 7.173028 1.320187 0.004733
v 7.150242 1.333830 -0.028500
v 7.154974 1.334067 -0.026994
v 7.160840 1.327898 -0.025423
v 7.160237 1.331404 -0.025033
v 7.173266 1.323995 0.002841
v 7.172864 1.328163 -0.002535
v 7.173185 1.323823 0.007170
v 7.172666 1.319308 0.007159
v 7.149846 1.337092 -0.027203
v 7.145325 1.337027 -0.027683
v 7.173505 1.328257 0.002242
v 7.173508 1.328365 0.007098
v 7.172186 1.318144 0.010367
v 7.172760 1.323447 0.010893
v 7.173223 1.329045 0.011352
v 7.154212 1.337387 -0.025772
v 7.149204 1.341143 -0.025024
v 7.145325 1.341050 -0.025456
v 7.165133 1.327967 -0.020977
v 7.171993 1.321116 0.013547
v 7.171783 1.317166 0.013066
v 7.158269 1.338011 -0.023394
v 7.159336 1.334688 -0.024325
v 7.145325 1.343934 -0.023419
v 7.142009 1.344031 -0.023054
v 7.164381 1.331829 -0.020797
v 7.171316 1.316033 0.016191
v 7.161784 1.338840 -0.020084
v 7.163153 1.335463 -0.020506
v 7.156426 1.341997 -0.021768
v 7.142577 1.346513 -0.020995
v 7.139932 1.346787 -0.020102
v 7.167864 1.332178 -0.015146
v 7.171261 1.320514 0.016782
v 7.164524 1.339746 -0.015854
v 7.166253 1.336164 -0.015549
v 7.152948 1.341449 -0.023778
v 7.141017 1.348855 -0.018065
v 7.139063 1.349272 -0.016866
v 7.170494 1.332552 -0.009018
v 7.171359 1.328057 -0.008495
v 7.171286 1.325191 0.017489
v 7.168620 1.336987 -0.010074
v 7.151834 1.344327 -0.021988
v 7.148642 1.344031 -0.023054
v 7.172218 1.325216 0.014064
v 7.172472 1.329616 0.014652
v 7.171470 1.330262 0.018426
v 7.145325 1.346424 -0.021296
v 7.148074 1.346513 -0.020995
v 7.142042 1.350555 -0.015819
v 7.171798 1.335002 0.019743
v 7.172083 1.333057 -0.003352
v 7.145325 1.348542 -0.019026
v 7.143131 1.348617 -0.018785
v 7.143028 1.351946 -0.013442
v 7.143653 1.350371 -0.016365
v 7.144156 1.351827 -0.013806
v 7.172907 1.333453 0.001320
v 7.144660 1.353043 -0.011158
v 7.145325 1.350312 -0.016548
v 7.145325 1.351781 -0.013945
v 7.145325 1.352996 -0.011302
v 7.173530 1.334461 0.011716
v 7.172759 1.333807 0.015381
v 7.173373 1.333519 0.006773
v 7.146997 1.350371 -0.016365
v 7.146494 1.351827 -0.013806
v 7.145990 1.353043 -0.011158
v 7.173062 1.339244 0.008568
v 7.173310 1.339581 0.011855
v 7.173081 1.337282 0.016320
v 7.172255 1.338689 0.021587
v 7.172023 1.339328 0.003370
v 7.147519 1.348617 -0.018785
v 7.146656 1.353090 -0.011013
v 7.171188 1.342859 0.005116
v 7.171703 1.343073 0.008018
v 7.173236 1.340566 0.016838
v 7.172892 1.341364 0.021318
v 7.172801 1.341829 0.023882
v 7.171309 1.339080 -0.000026
v 7.149633 1.348855 -0.018065
v 7.150718 1.346787 -0.020102
v 7.172454 1.344179 0.016263
v 7.172461 1.345012 0.020945
v 7.172871 1.344850 0.024134
v 7.173397 1.344930 0.026553
v 7.170240 1.338129 -0.004704
v 7.148608 1.350555 -0.015819
v 7.153155 1.347254 -0.018631
v 7.154776 1.344826 -0.020251
v 7.172103 1.343441 0.011536
v 7.171458 1.348112 0.019857
v 7.174019 1.348011 0.029413
v 7.168096 1.342159 -0.006269
v 7.147622 1.351946 -0.013442
v 7.157367 1.345472 -0.017931
v 7.159453 1.342733 -0.019039
v 7.170043 1.347195 0.011153
v 7.170713 1.347769 0.015433
v 7.170674 1.342634 0.002219
v 7.169118 1.343371 -0.001855
v 7.148678 1.352146 -0.012828
v 7.147238 1.353219 -0.010609
v 7.161848 1.343602 -0.015639
v 7.167536 1.350712 0.015208
v 7.150096 1.350872 -0.014912
v 7.147820 1.353348 -0.010204
v 7.148288 1.353536 -0.009621
v 7.166593 1.340821 -0.011112
v 7.169185 1.346122 0.004110
v 7.151587 1.349272 -0.016866
v 7.149619 1.352409 -0.012022
v 7.150503 1.352698 -0.011078
v 7.151208 1.353030 -0.010004
v 7.168818 1.345500 0.000973
v 7.169597 1.346689 0.007435
v 7.153334 1.349774 -0.015305
v 7.151445 1.351258 -0.013735
v 7.153611 1.352088 -0.010817
v 7.152638 1.351649 -0.012381
v 7.154299 1.352617 -0.009012
v 7.165040 1.345819 -0.007664
v 7.166346 1.348066 -0.000124
v 7.156050 1.350814 -0.011428
v 7.154827 1.350268 -0.013499
v 7.156986 1.351468 -0.009072
v 7.163684 1.344625 -0.011777
v 7.166568 1.348961 0.003313
v 7.166852 1.349715 0.007022
v 7.165924 1.347021 -0.003660
v 7.157138 1.348441 -0.014408
v 7.159726 1.349934 -0.008846
v 7.160379 1.350857 -0.005743
v 7.161189 1.347054 -0.011900
v 7.159501 1.346206 -0.015118
v 7.163214 1.349118 -0.004744
v 7.155317 1.347831 -0.016695
v 7.163486 1.350229 -0.001262
v 7.162437 1.348042 -0.008366
v 7.167180 1.350305 0.010991
v 7.163682 1.352201 0.007152
v 7.158610 1.349126 -0.011786
v 7.163949 1.352751 0.011132
v 7.160787 1.354514 0.011658
v 7.157619 1.355439 0.009514
v 7.158235 1.355451 0.012255
v 7.161369 1.354730 0.015562
v 7.164196 1.353146 0.015303
v 7.156530 1.355650 0.010477
v 7.156041 1.355501 0.009739
v 7.159079 1.355387 0.015836
v 7.157350 1.355040 0.015975
v 7.156834 1.355420 0.012612
v 7.163913 1.353964 0.019521
v 7.168322 1.350697 0.019287
v 7.155960 1.354944 0.012468
v 7.152812 1.356045 0.013208
v 7.160409 1.355090 0.020047
v 7.170911 1.349476 0.023889
v 7.169425 1.350717 0.024917
v 7.172476 1.348174 0.023935
v 7.155900 1.354190 0.016047
v 7.152629 1.355712 0.016534
v 7.149646 1.356935 0.016926
v 7.162232 1.354768 0.019632
v 7.165107 1.348000 0.023325
v 7.155865 1.353199 0.019563
v 7.158227 1.354398 0.019936
v 7.146166 1.357458 0.020727
v 7.148933 1.356638 0.020397
v 7.162482 1.354400 0.024679
v 7.166667 1.353840 0.031405
v 7.159617 1.353382 0.023866
v 7.155856 1.351929 0.022104
v 7.143301 1.357036 0.025344
v 7.140468 1.357777 0.025644
v 7.152260 1.355099 0.019998
v 7.151519 1.354025 0.023176
v 7.161263 1.352179 0.027781
v 7.155859 1.350518 0.024157
v 7.150592 1.352721 0.026211
v 7.147296 1.355826 0.024254
v 7.145196 1.354757 0.028303
v 7.139542 1.356456 0.030469
v 7.117621 1.320187 0.004733
v 7.145392 1.335528 0.004733
v 7.117984 1.319308 0.007159
v 7.119344 1.316033 0.016191
v 7.118867 1.317166 0.013066
v 7.173028 1.320187 0.004733
v 7.172666 1.319308 0.007159
v 7.171783 1.317166 0.013066
v 7.171316 1.316033 0.016191
v 7.172186 1.318144 0.010367
v 7.118464 1.318144 0.010367
v 7.119394 1.320514 0.016782
v 7.119366 1.325191 0.017489
v 7.119181 1.330262 0.018426
v 7.118853 1.335002 0.019743
v 7.118397 1.338689 0.021587
v 7.117851 1.341829 0.023881
v 7.123262 1.344399 0.022436
v 7.116635 1.348010 0.029409
v 7.125547 1.348000 0.023325
v 7.130907 1.348513 0.022788
v 7.123792 1.354040 0.031299
v 7.134791 1.350518 0.024161
v 7.139972 1.353011 0.026627
v 7.133759 1.357988 0.032671
v 7.140942 1.349809 0.023115
v 7.139542 1.356456 0.030469
v 7.145196 1.354757 0.028303
v 7.145332 1.349658 0.022887
v 7.149720 1.349809 0.023113
v 7.150592 1.352721 0.026211
v 7.155859 1.350518 0.024157
v 7.159741 1.348497 0.022795
v 7.161263 1.352179 0.027781
v 7.165107 1.348000 0.023325
v 7.166667 1.353840 0.031405
v 7.167402 1.344399 0.022436
v 7.174019 1.348011 0.029413
v 7.170102 1.343114 0.023159
v 7.173397 1.344930 0.026553
v 7.172801 1.341829 0.023882
v 7.172255 1.338689 0.021587
v 7.171261 1.320514 0.016782
v 7.171798 1.335002 0.019743
v 7.171286 1.325191 0.017489
v 7.171470 1.330262 0.018426
vn 0.0924 0.9572 -0.2742
vn 0.0958 0.9522 -0.2901
vn -0.0000 0.9507 -0.3101
vn 0.4621 0.7800 0.4219
vn -0.0056 0.8693 0.4942
vn -0.0047 0.9356 0.3530
vn 0.4470 0.8460 0.2907
vn 0.0772 0.9620 -0.2619
vn 0.3687 0.9043 -0.2154
vn 0.4556 0.8680 -0.1976
vn 0.5022 0.8266 -0.2539
vn 0.4026 0.8778 -0.2597
vn 0.0529 0.9879 -0.1461
vn 0.0001 0.9894 -0.1451
vn 0.0001 0.9918 -0.1280
vn 0.0690 0.9900 -0.1234
vn -0.1843 0.9414 -0.2825
vn -0.2933 0.9167 -0.2714
vn -0.2671 0.9338 -0.2381
vn -0.1682 0.9514 -0.2581
vn 0.0681 0.9659 -0.2499
vn 0.1712 0.9846 -0.0349
vn 0.2109 0.9775 -0.0102
vn 0.1871 0.9789 -0.0825
vn 0.1363 0.9870 -0.0847
vn -0.1326 0.9772 -0.1657
vn -0.1802 0.9657 -0.1867
vn -0.2456 0.9578 -0.1495
vn -0.1654 0.9780 -0.1269
vn -0.1135 0.9863 -0.1199
vn -0.0688 0.9898 -0.1246
vn -0.0528 0.9878 -0.1463
vn -0.0934 0.9840 -0.1519
vn 0.1322 0.9773 -0.1658
vn 0.1649 0.9783 -0.1258
vn 0.2440 0.9581 -0.1501
vn 0.1795 0.9658 -0.1873
vn 0.9505 0.2982 -0.0869
vn 0.9778 0.1848 -0.0984
vn 0.9984 -0.0357 0.0439
vn 0.9980 0.0541 0.0337
vn -0.1037 0.9438 -0.3138
vn -0.1935 0.9302 -0.3121
vn -0.0958 0.9522 -0.2901
vn 0.0600 0.9665 -0.2494
vn -0.0681 0.9659 -0.2499
vn -0.1182 0.9682 -0.2203
vn -0.0954 0.9730 -0.2101
vn -0.0600 0.9665 -0.2494
vn -0.3689 0.9046 -0.2136
vn -0.3186 0.9309 -0.1786
vn -0.2284 0.9505 -0.2109
vn -0.1512 0.9077 -0.3915
vn -0.1236 0.9032 -0.4110
vn -0.2039 0.8610 -0.4659
vn -0.2497 0.8676 -0.4301
vn -0.0371 0.9805 -0.1929
vn -0.0000 0.9815 -0.1916
vn -0.1893 0.9219 -0.3379
vn -0.3036 0.8855 -0.3516
vn -0.3063 0.8997 -0.3109
vn -0.9645 -0.0754 0.2530
vn -0.9682 -0.0813 0.2366
vn -0.9791 -0.0728 0.1899
vn -0.9772 -0.0509 0.2062
vn 0.1037 0.9438 -0.3138
vn -0.2269 0.9645 -0.1353
vn -0.1364 0.9808 -0.1395
vn -0.1499 0.9785 -0.1414
vn -0.2307 0.9608 -0.1539
vn 0.0427 0.9695 -0.2412
vn -0.1119 0.9853 -0.1294
vn -0.0396 0.9948 -0.0935
vn -0.0782 0.9898 -0.1192
vn -0.0924 0.9572 -0.2742
vn 0.1496 -0.6230 -0.7678
vn 0.3358 -0.6069 -0.7204
vn 0.3228 -0.6497 -0.6883
vn 0.1467 -0.6656 -0.7317
vn 0.2279 0.9504 -0.2117
vn 0.3176 0.9308 -0.1807
vn 0.2669 0.9337 -0.2386
vn -0.4027 0.8779 -0.2592
vn -0.5542 0.8300 -0.0628
vn -0.4410 0.8900 -0.1162
vn -0.4413 0.8897 -0.1167
vn -0.5315 0.8380 -0.1232
vn 0.0985 0.9393 -0.3285
vn 0.0230 0.9709 -0.2382
vn 0.9995 -0.0257 0.0195
vn 0.9945 -0.0834 0.0634
vn 0.9976 -0.0567 -0.0397
vn 0.9970 0.0155 -0.0756
vn -0.9465 0.3134 -0.0773
vn -0.8101 0.5698 -0.1379
vn -0.8048 0.5702 -0.1650
vn -0.9225 0.3638 -0.1289
vn -0.5019 0.8270 -0.2533
vn -0.4545 0.8690 -0.1955
vn 0.7554 0.2388 -0.6102
vn 0.8595 0.2292 -0.4569
vn 0.8857 0.1312 -0.4453
vn 0.7826 0.1399 -0.6067
vn -0.1116 0.9868 -0.1177
vn -0.1294 0.9856 -0.1092
vn -0.1714 0.9772 -0.1251
vn 0.8054 0.5692 -0.1652
vn 0.8082 0.5685 -0.1535
vn 0.9228 0.3631 -0.1287
vn 0.0947 0.9336 -0.3455
vn -0.0000 0.9718 -0.2359
vn -0.0230 0.9709 -0.2382
vn -0.9255 0.2928 -0.2404
vn -0.9062 0.3056 -0.2923
vn -0.9526 0.1901 -0.2376
vn -0.9777 0.1469 -0.1501
vn 0.9960 0.0667 -0.0591
vn 0.9976 -0.0133 0.0673
vn 0.9885 -0.0669 0.1356
vn 0.9793 -0.0725 0.1892
vn 0.9683 -0.0812 0.2364
vn 0.9647 -0.0751 0.2525
vn 0.9775 -0.0503 0.2049
vn -0.6427 0.7542 -0.1347
vn -0.6592 0.7363 -0.1526
vn -0.6751 0.7161 -0.1771
vn -0.5375 0.8267 -0.1661
vn -0.5447 0.8162 -0.1927
vn -0.6855 0.6990 -0.2036
vn 0.0371 0.9805 -0.1929
vn -0.0427 0.9695 -0.2412
vn -0.0672 0.9777 -0.1992
vn -0.0000 0.3440 -0.9390
vn 0.1778 0.3501 -0.9197
vn 0.1816 0.2496 -0.9512
vn -0.0000 0.2435 -0.9699
vn 0.3638 0.9275 -0.0853
vn 0.5310 0.8392 -0.1174
vn 0.5328 0.8353 -0.1356
vn 0.3981 0.9104 -0.1130
vn 0.5262 0.7639 -0.3736
vn 0.5048 0.7455 -0.4352
vn 0.4005 0.8156 -0.4176
vn 0.4205 0.8303 -0.3657
vn 0.5395 -0.5685 -0.6212
vn 0.5506 -0.4291 -0.7161
vn 0.7569 -0.3500 -0.5519
vn 0.7252 -0.5011 -0.4722
vn 0.0672 0.9777 -0.1992
vn 0.0933 0.9840 -0.1517
vn -0.2874 0.9491 -0.1287
vn -0.1805 0.9776 -0.1082
vn 0.4214 0.8517 -0.3116
vn 0.5258 0.7911 -0.3126
vn 0.2704 0.9608 -0.0615
vn 0.4134 0.8984 -0.1482
vn 0.3867 0.9097 -0.1518
vn 0.2874 0.9512 -0.1125
vn 0.0954 0.9730 -0.2101
vn -0.9979 0.0550 0.0345
vn -0.9986 -0.0346 0.0404
vn -0.9685 0.2292 -0.0977
vn 0.1136 0.9865 -0.1182
vn -0.7554 0.2388 -0.6102
vn -0.5898 0.2501 -0.7678
vn -0.6182 0.1437 -0.7728
vn -0.7826 0.1399 -0.6067
vn 0.3752 -0.1226 -0.9188
vn 0.3465 -0.3041 -0.8874
vn 0.1414 -0.3295 -0.9335
vn 0.1492 -0.1610 -0.9756
vn 0.0464 0.9979 -0.0461
vn 0.0976 0.9947 0.0307
vn 0.1763 0.9783 0.1093
vn 0.1130 0.9936 0.0025
vn -0.9003 -0.1801 -0.3962
vn -0.7898 -0.1873 -0.5841
vn -0.7569 -0.3500 -0.5519
vn -0.8825 -0.2887 -0.3712
vn -0.8342 0.4339 -0.3404
vn -0.8459 0.4451 -0.2940
vn 0.3030 0.7948 -0.5258
vn 0.3946 0.7182 -0.5731
vn 0.3108 0.7056 -0.6369
vn 0.2352 0.7847 -0.5736
vn -0.3752 -0.1226 -0.9188
vn -0.3961 0.0232 -0.9179
vn -0.1664 -0.0154 -0.9859
vn -0.1492 -0.1610 -0.9756
vn 0.4213 0.5505 -0.7207
vn 0.5449 0.5637 -0.6207
vn 0.6429 0.4344 -0.6309
vn 0.4896 0.4381 -0.7539
vn -0.1760 0.9137 -0.3663
vn -0.0947 0.9336 -0.3455
vn -0.0804 0.9299 -0.3590
vn 0.1436 -0.5005 -0.8538
vn -0.0000 -0.5025 -0.8646
vn -0.0000 -0.3314 -0.9435
vn -0.0772 0.9620 -0.2619
vn 0.1182 0.9682 -0.2203
vn 0.1433 0.9608 -0.2373
vn 0.0684 0.9970 -0.0365
vn 0.1656 0.9862 -0.0066
vn 0.1418 0.9896 -0.0241
vn 0.0365 0.9981 -0.0506
vn 0.2849 0.8749 -0.3917
vn 0.2497 0.8676 -0.4301
vn 0.1512 0.9077 -0.3915
vn 0.1760 0.9137 -0.3663
vn -0.1548 0.5301 -0.8337
vn -0.0000 0.5282 -0.8491
vn -0.0000 0.4280 -0.9038
vn -0.1709 0.4320 -0.8855
vn -0.2490 0.9578 -0.1438
vn -0.2979 0.9546 0.0041
vn -0.0747 0.9952 -0.0632
vn -0.4159 0.8960 -0.1554
vn -0.3871 0.9091 -0.1541
vn 0.1682 0.9514 -0.2581
vn -0.8000 -0.0458 -0.5983
vn -0.6175 -0.0686 -0.7835
vn -0.5870 -0.2404 -0.7731
vn -0.9067 0.3889 -0.1634
vn -0.8060 0.5646 -0.1774
vn -0.4503 0.8041 0.3881
vn -0.3913 0.8755 0.2836
vn -0.6324 0.7654 -0.1189
vn -0.8189 0.5570 -0.1383
vn -0.8132 0.5345 -0.2305
vn -0.0979 0.8728 0.4782
vn 0.1843 0.9414 -0.2825
vn -0.7040 0.6634 -0.2535
vn -0.5956 0.7629 -0.2515
vn 0.4065 0.8997 0.1590
vn -0.0300 0.9742 0.2238
vn 0.1598 0.9870 -0.0189
vn -0.2642 0.9573 0.1171
vn -0.3369 0.9259 0.1706
vn 0.0358 0.9984 0.0439
vn -0.0399 0.9210 -0.3875
vn -0.0676 0.8930 -0.4449
vn -0.0976 0.8975 -0.4301
vn -0.0566 0.9244 -0.3773
vn 0.7935 0.0598 -0.6056
vn 0.8962 0.0487 -0.4409
vn -0.9816 0.0574 -0.1820
vn -0.9477 0.1037 -0.3019
vn -0.9607 0.0217 -0.2767
vn -0.9906 -0.0257 -0.1341
vn 0.6417 0.5689 -0.5144
vn 0.5451 0.6613 -0.5152
vn 0.5943 0.6730 -0.4404
vn 0.6967 0.5722 -0.4326
vn 0.3063 0.8997 -0.3109
vn 0.1935 0.9302 -0.3121
vn 0.2932 0.9167 -0.2715
vn -0.7116 0.3278 -0.6214
vn -0.8595 0.2292 -0.4569
vn -0.8195 0.3188 -0.4762
vn -0.0090 0.9996 -0.0261
vn -0.3876 0.2562 -0.8855
vn -0.1816 0.2496 -0.9512
vn -0.1802 0.1158 -0.9768
vn -0.4022 0.1359 -0.9054
vn 0.1893 0.9219 -0.3379
vn 0.3036 0.8855 -0.3516
vn -0.9901 -0.0970 -0.1010
vn -0.9954 -0.0953 0.0124
vn -0.9976 -0.0567 -0.0397
vn -0.0985 0.9393 -0.3285
vn 0.4109 0.9003 -0.1434
vn 0.2613 0.9627 -0.0710
vn -0.4245 0.8922 -0.1540
vn -0.4352 0.8909 -0.1297
vn -0.4058 0.9049 -0.1284
vn -0.3722 0.9156 -0.1519
vn 0.9844 -0.0944 0.1486
vn 0.9855 -0.1066 0.1323
vn 0.9879 -0.1149 0.1044
vn 0.8075 0.4263 -0.4077
vn 0.7521 0.4289 -0.5005
vn -0.0647 0.9867 0.1489
vn 0.3352 0.9420 -0.0160
vn -0.4214 0.8517 -0.3116
vn -0.5258 0.7911 -0.3126
vn 0.9842 -0.1072 0.1412
vn 0.9731 -0.1711 0.1543
vn -0.9637 0.1585 -0.2147
vn -0.1907 0.9781 0.0828
vn 0.4618 0.7315 -0.5016
vn -0.3619 0.3550 -0.8620
vn -0.1778 0.3501 -0.9197
vn 0.5959 0.7626 -0.2517
vn 0.6156 0.7232 -0.3130
vn -0.6156 0.7232 -0.3130
vn 0.6353 0.7603 -0.1358
vn 0.6174 0.7754 -0.1327
vn 0.8267 0.5395 -0.1596
vn -0.8397 -0.4250 -0.3381
vn -0.9298 -0.2937 -0.2220
vn -0.9495 -0.1929 -0.2475
vn 0.9777 0.1469 -0.1501
vn 0.9522 0.2440 -0.1839
vn 0.9733 0.1961 -0.1195
vn -0.5344 0.8341 -0.1366
vn 0.7040 0.6634 -0.2536
vn 0.5458 0.8153 -0.1934
vn 0.6856 0.6988 -0.2038
vn 0.5334 0.8457 -0.0193
vn -0.0114 0.9969 -0.0772
vn -0.3108 0.7056 -0.6369
vn -0.3671 0.6327 -0.6818
vn -0.4659 0.6489 -0.6015
vn -0.3946 0.7182 -0.5731
vn 0.2022 0.9782 0.0478
vn -0.8962 0.0487 -0.4409
vn -0.9032 -0.0660 -0.4242
vn -0.9623 -0.0840 -0.2588
vn 0.9170 0.2137 -0.3369
vn 0.9477 0.1037 -0.3019
vn -0.2352 0.7847 -0.5736
vn -0.1633 0.7768 -0.6082
vn -0.2167 0.6956 -0.6850
vn 0.3678 0.8967 0.2462
vn 0.3237 0.9409 0.0996
vn 0.9813 0.0692 -0.1798
vn 0.9981 -0.0251 -0.0571
vn -0.1274 0.9862 -0.1060
vn -0.1121 0.6898 -0.7153
vn -0.0000 0.6880 -0.7258
vn -0.0000 0.6101 -0.7923
vn -0.1350 0.6118 -0.7794
vn 0.5386 0.8261 -0.1657
vn 0.6751 0.7160 -0.1777
vn 0.6587 0.7367 -0.1529
vn 0.8065 0.5638 -0.1780
vn 0.4054 0.8256 0.3924
vn 0.4045 0.8159 0.4131
vn 0.4657 0.7549 0.4617
vn 0.1012 0.9914 0.0832
vn 0.2432 0.9550 0.1697
vn 0.2684 0.9626 0.0377
vn 0.3372 0.9350 0.1100
vn 0.2637 0.9618 0.0737
vn 0.2171 0.9761 0.0135
vn -0.0704 0.9264 -0.3698
vn -0.9885 -0.0669 0.1356
vn -0.9660 -0.0952 0.2405
vn -0.9736 -0.1009 0.2048
vn -0.9976 -0.0133 0.0673
vn -0.0217 0.9996 0.0183
vn -0.4433 0.8895 0.1111
vn -0.0544 0.8351 0.5474
vn -0.0356 0.8903 -0.4540
vn -0.0573 0.8425 -0.5357
vn -0.1092 0.8460 -0.5218
vn -0.5688 0.8027 0.1790
vn -0.2815 0.5556 0.7823
vn 0.9002 0.3915 -0.1909
vn 0.9069 0.3883 -0.1637
vn 0.6256 0.0536 -0.7783
vn 0.6175 -0.0686 -0.7835
vn 0.3961 0.0232 -0.9179
vn -0.4359 0.8928 -0.1138
vn -0.4283 0.8964 -0.1143
vn -0.3444 0.4617 0.8174
vn -0.8031 0.5956 -0.0162
vn -0.4273 0.8949 -0.1287
vn 0.3614 0.8049 -0.4708
vn 0.8069 0.5569 -0.1970
vn -0.2947 0.9440 -0.1482
vn -0.9974 -0.0271 -0.0662
vn -0.0748 0.9815 0.1764
vn 0.8459 0.4451 -0.2940
vn 0.7214 0.6180 -0.3126
vn 0.8124 0.5289 -0.2455
vn 0.8950 0.3864 -0.2231
vn 0.9255 0.2928 -0.2404
vn -0.9896 0.1387 -0.0380
vn -0.9733 0.1961 -0.1195
vn -0.9960 0.0667 -0.0591
vn -0.9733 -0.1701 0.1540
vn -0.9522 0.2440 -0.1839
vn -0.3338 0.9313 -0.1455
vn 0.9896 0.1387 -0.0380
vn 0.7205 0.5876 -0.3682
vn 0.8342 0.4339 -0.3404
vn 0.6161 0.6925 -0.3752
vn 0.9558 -0.1712 0.2390
vn 0.9736 -0.1009 0.2047
vn -0.9842 -0.1070 0.1413
vn 0.9062 0.3056 -0.2923
vn 0.9660 -0.0952 0.2405
vn 0.9588 -0.1106 0.2618
vn 0.2039 0.8610 -0.4659
vn 0.1568 0.8528 -0.4981
vn 0.0976 0.8975 -0.4301
vn 0.1236 0.9032 -0.4110
vn 0.9816 0.0574 -0.1820
vn 0.9906 -0.0257 -0.1341
vn 0.9526 0.1901 -0.2376
vn 0.9954 -0.0953 0.0124
vn 0.9901 -0.0970 -0.1010
vn -0.9945 -0.0834 0.0634
vn -0.9879 -0.1149 0.1044
vn 0.8733 0.3148 -0.3719
vn 0.8195 0.3188 -0.4762
vn 0.6136 0.7770 -0.1406
vn 0.8522 0.4812 -0.2053
vn 0.9840 -0.0658 0.1655
vn -0.9844 -0.0944 0.1486
vn -0.9823 -0.1837 -0.0362
vn 0.8000 -0.0458 -0.5983
vn 0.9032 -0.0660 -0.4242
vn 0.9003 -0.1801 -0.3962
vn 0.7898 -0.1873 -0.5841
vn -0.0607 0.9938 0.0931
vn -0.9835 -0.0411 0.1764
vn -0.9838 -0.0663 0.1665
vn -0.0000 0.1046 -0.9945
vn 0.1802 0.1158 -0.9768
vn 0.1664 -0.0154 -0.9859
vn -0.0000 -0.0331 -0.9995
vn 0.0164 -0.7624 0.6469
vn 0.0022 -0.7613 0.6484
vn 0.0132 -0.7333 0.6798
vn 0.0339 -0.7388 0.6731
vn -0.9818 -0.1654 -0.0935
vn -0.8069 0.5569 -0.1968
vn -0.9001 0.3916 -0.1908
vn 0.9607 0.0217 -0.2767
vn -0.0592 0.9947 -0.0846
vn -0.0847 0.9914 -0.1000
vn 0.9623 -0.0840 -0.2588
vn 0.4659 0.6489 -0.6015
vn 0.7116 0.3278 -0.6214
vn -0.1433 0.9608 -0.2373
vn -0.4205 0.8303 -0.3657
vn 0.0573 0.8425 -0.5357
vn 0.0847 0.7725 -0.6294
vn -0.0000 0.7711 -0.6368
vn -0.0000 0.8415 -0.5403
vn 0.9838 -0.0404 0.1745
vn 0.8825 -0.2887 -0.3712
vn 0.9495 -0.1929 -0.2475
vn 0.9298 -0.2937 -0.2220
vn 0.8397 -0.4250 -0.3381
vn 0.0136 0.9963 -0.0851
vn 0.1160 0.9912 -0.0645
vn 0.0895 0.9905 -0.1048
vn 0.0025 0.9930 -0.1183
vn 0.3307 -0.4838 -0.8103
vn -0.8092 -0.5086 -0.2940
vn 0.3671 0.6327 -0.6818
vn -0.1568 0.8528 -0.4981
vn -0.3030 0.7948 -0.5258
vn 0.0804 0.9299 -0.3590
vn 0.0704 0.9264 -0.3698
vn 0.0566 0.9244 -0.3773
vn 0.6182 0.1437 -0.7728
vn 0.5898 0.2501 -0.7678
vn 0.6854 -0.5769 -0.4442
vn 0.5109 -0.6196 -0.5958
vn 0.5455 0.3442 -0.7641
vn -0.8733 0.3148 -0.3719
vn -0.9170 0.2137 -0.3369
vn -0.0142 -0.7596 0.6502
vn -0.0192 -0.7262 0.6872
vn 0.5870 -0.2404 -0.7731
vn 0.0399 0.9210 -0.3875
vn 0.0676 0.8930 -0.4449
vn -0.3877 0.9119 -0.1347
vn -0.3527 0.9268 -0.1294
vn 0.3619 0.3550 -0.8620
vn 0.3876 0.2562 -0.8855
vn -0.6256 0.0536 -0.7783
vn -0.7935 0.0598 -0.6056
vn -0.0835 0.9898 -0.1156
vn -0.4213 0.5505 -0.7207
vn -0.2936 0.5374 -0.7905
vn -0.3319 0.4380 -0.8354
vn -0.4896 0.4381 -0.7539
vn -0.8857 0.1312 -0.4453
vn -0.0000 -0.6263 -0.7796
vn -0.0000 -0.6687 -0.7436
vn -0.1467 -0.6656 -0.7317
vn -0.1496 -0.6230 -0.7678
vn -0.9970 0.0155 -0.0756
vn -0.9995 -0.0257 0.0195
vn 0.2578 0.6189 -0.7420
vn 0.2936 0.5374 -0.7905
vn 0.3319 0.4380 -0.8354
vn -0.1436 -0.5005 -0.8538
vn -0.3228 -0.6497 -0.6883
vn -0.3358 -0.6069 -0.7204
vn 0.4022 0.1359 -0.9054
vn 0.0356 0.8903 -0.4540
vn -0.0000 0.8894 -0.4570
vn -0.5109 -0.6196 -0.5958
vn -0.5395 -0.5685 -0.6212
vn -0.5506 -0.4291 -0.7161
vn -0.3307 -0.4838 -0.8103
vn -0.1414 -0.3295 -0.9335
vn -0.0000 -0.1722 -0.9851
vn -0.3465 -0.3041 -0.8874
vn -0.7252 -0.5011 -0.4722
vn -0.6854 -0.5769 -0.4442
vn 0.1709 0.4320 -0.8855
vn 0.8092 -0.5086 -0.2940
vn -0.2578 0.6189 -0.7420
vn 0.9818 -0.1654 -0.0935
vn 0.9823 -0.1837 -0.0362
vn 0.1548 0.5301 -0.8337
vn -0.3614 0.8049 -0.4708
vn -0.7521 0.4289 -0.5005
vn -0.6429 0.4344 -0.6309
vn -0.9855 -0.1066 0.1323
vn -0.5455 0.3442 -0.7641
vn 0.2304 0.9543 0.1905
vn 0.1350 0.6118 -0.7794
vn -0.2849 0.8749 -0.3917
vn -0.5449 0.5637 -0.6207
vn 0.1121 0.6898 -0.7153
vn 0.0198 0.9204 -0.3905
vn 0.1633 0.7768 -0.6082
vn 0.2167 0.6956 -0.6850
vn -0.8075 0.4263 -0.4077
vn -0.6161 0.6925 -0.3752
vn -0.7205 0.5876 -0.3682
vn -0.7214 0.6180 -0.3126
vn 0.1092 0.8460 -0.5218
vn -0.4170 0.9011 -0.1192
vn -0.0847 0.7725 -0.6294
vn -0.0198 0.9204 -0.3905
vn -0.0000 0.9188 -0.3948
vn 0.3140 0.8994 0.3042
vn 0.9771 -0.0010 -0.2127
vn 0.8065 0.5905 0.0298
vn -0.8124 0.5289 -0.2455
vn -0.9558 -0.1712 0.2391
vn 0.0440 -0.7445 0.6662
vn 0.0494 -0.7455 0.6647
vn 0.0927 -0.7545 0.6497
vn -0.6417 0.5689 -0.5144
vn -0.4618 0.7315 -0.5016
vn -0.6967 0.5722 -0.4326
vn -0.8950 0.3864 -0.2231
vn -0.5451 0.6613 -0.5152
vn -0.4005 0.8156 -0.4176
vn -0.5048 0.7455 -0.4352
vn -0.5262 0.7639 -0.3736
vn -0.5943 0.6730 -0.4404
vn -0.9587 -0.1106 0.2619
vn 0.0486 0.8769 0.4781
vn 0.2894 0.5552 0.7798
vn -0.1046 0.9797 0.1711
vn 0.4775 0.8764 0.0622
vn -0.5214 0.7291 0.4433
vn 0.3728 0.8511 0.3698
vn 0.4506 -0.8156 -0.3631
vn -0.0014 -0.6888 0.7250
vn 0.6527 -0.6958 0.2998
vn 0.4502 -0.8154 -0.3638
vn -0.4522 -0.8147 -0.3630
vn -0.6545 -0.6940 0.2999
vn 0.4750 -0.1233 0.8713
vn 0.4786 -0.1344 0.8677
vn 0.4831 -0.1723 0.8585
vn 0.4759 -0.2872 0.8313
vn 0.4383 -0.4389 0.7844
vn 0.4364 -0.5117 0.7400
vn 0.4478 -0.4851 0.7511
vn 0.4654 -0.5238 0.7135
vn 0.3092 -0.6354 0.7076
vn 0.1482 -0.7533 0.6408
vn 0.1497 -0.7674 0.6235
vn -0.1100 -0.7569 0.6443
vn -0.1510 -0.7584 0.6341
vn -0.1806 -0.7640 0.6194
vn -0.3084 -0.6427 0.7013
vn -0.1533 -0.7796 0.6072
vn -0.4485 -0.4859 0.7501
vn -0.4543 -0.5335 0.7134
vn -0.4380 -0.5079 0.7418
vn -0.4197 -0.5654 0.7100
vn -0.4361 -0.5056 0.7444
vn -0.4401 -0.4383 0.7837
vn -0.4770 -0.1236 0.8702
vn -0.4778 -0.2866 0.8304
vn -0.4806 -0.1344 0.8666
vn -0.4850 -0.1720 0.8574
vt 0.000000 0.000000
s 1
f 1/1/1 2/1/2 3/1/3
f 545/1/4 541/1/5 534/1/6 544/1/7
f 1/1/1 3/1/3 6/1/8
f 13/1/9 35/1/10 32/1/11 22/1/12
f 37/1/13 43/1/14 45/1/15 44/1/16
f 91/1/17 92/1/18 84/1/19 83/1/20
f 6/1/8 3/1/3 9/1/21
f 58/1/22 59/1/23 38/1/24 51/1/25
f 63/1/26 70/1/27 72/1/28 71/1/29
f 57/1/30 56/1/31 49/1/32 55/1/33
f 21/1/34 30/1/35 19/1/36 12/1/37
f 450/1/38 451/1/39 445/1/40 444/1/41
f 97/1/42 98/1/43 91/1/17 90/1/44
f 9/1/21 3/1/3 17/1/45
f 68/1/46 69/1/47 62/1/48 61/1/49
f 86/1/50 85/1/51 77/1/52 84/1/19
f 70/1/27 63/1/26 62/1/48 69/1/47
f 256/1/53 265/1/54 257/1/55 250/1/56
f 48/1/57 49/1/32 43/1/14 42/1/58
f 106/1/59 107/1/60 99/1/61 98/1/43
f 208/1/62 217/1/63 215/1/64 216/1/65
f 2/1/2 25/1/66 3/1/3
f 131/1/67 132/1/68 110/1/69 124/1/70
f 17/1/45 3/1/3 26/1/71
f 139/1/72 140/1/73 118/1/74 132/1/68
f 90/1/44 91/1/17 83/1/20 82/1/75
f 306/1/76 312/1/77 307/1/78 299/1/79
f 10/1/80 18/1/81 13/1/9 8/1/82
f 92/1/18 100/1/83 86/1/50 84/1/19
f 159/1/84 164/1/85 148/1/86 151/1/87
f 25/1/66 33/1/88 3/1/3
f 26/1/71 3/1/3 34/1/89
f 377/1/90 372/1/91 370/1/92 376/1/93
f 176/1/94 177/1/95 157/1/96 171/1/97
f 108/1/98 109/1/99 86/1/50 100/1/83
f 391/1/100 398/1/101 362/1/102 384/1/103
f 110/1/69 111/1/104 87/1/105 103/1/106
f 465/1/107 466/1/108 450/1/38 458/1/109
f 33/1/88 39/1/110 3/1/3
f 48/1/57 42/1/58 40/1/111 47/1/112
f 34/1/89 3/1/3 40/1/111
f 190/1/113 218/1/114 209/1/115 191/1/116
f 377/1/90 431/1/117 429/1/118 380/1/119
f 385/1/120 411/1/121 407/1/122 399/1/123
f 157/1/96 177/1/95 150/1/124 149/1/125
f 40/1/111 3/1/3 47/1/112
f 137/1/126 138/1/127 116/1/128 136/1/129
f 36/1/130 42/1/58 43/1/14 37/1/13
f 53/1/131 54/1/132 48/1/57 47/1/112
f 336/1/133 366/1/134 358/1/135 342/1/136
f 514/1/137 515/1/138 510/1/139 511/1/140
f 499/1/141 509/1/142 491/1/143 493/1/144
f 319/1/145 339/1/146 335/1/147 328/1/148
f 47/1/112 3/1/3 53/1/131
f 34/1/89 36/1/130 28/1/149 26/1/71
f 36/1/130 37/1/13 29/1/150 28/1/149
f 72/1/28 94/1/151 78/1/152 71/1/29
f 23/1/153 500/1/154 499/1/141 493/1/144
f 52/1/155 60/1/156 27/1/157 46/1/158
f 26/1/71 28/1/149 20/1/159 17/1/45
f 53/1/131 3/1/3 61/1/49
f 176/1/94 197/1/160 187/1/161 189/1/162
f 31/1/163 30/1/35 21/1/34 29/1/150
f 246/1/164 273/1/165 272/1/166 269/1/167
f 337/1/168 338/1/169 323/1/170 332/1/171
f 126/1/172 146/1/173 134/1/174 127/1/175
f 248/1/176 296/1/177 283/1/178 253/1/179
f 110/1/69 132/1/68 118/1/74 111/1/104
f 200/1/180 218/1/114 190/1/113 184/1/181
f 484/1/182 504/1/183 456/1/184 478/1/185
f 61/1/49 3/1/3 68/1/46
f 308/1/186 309/1/187 324/1/188 317/1/189
f 395/1/190 464/1/191 393/1/192 387/1/193
f 258/1/194 267/1/195 266/1/196 256/1/53
f 323/1/170 325/1/197 292/1/198 316/1/199
f 68/1/46 3/1/3 75/1/200
f 9/1/21 11/1/201 7/1/202 6/1/8
f 7/1/202 11/1/201 12/1/37 10/1/80
f 104/1/203 105/1/204 80/1/205 96/1/206
f 486/1/207 487/1/208 480/1/209 481/1/210
f 310/1/211 383/1/212 375/1/213 329/1/214
f 139/1/72 162/1/215 161/1/216 153/1/217
f 116/1/128 117/1/218 93/1/219 109/1/99
f 75/1/200 3/1/3 82/1/75
f 1/1/1 6/1/8 7/1/202 5/1/220
f 7/1/202 10/1/80 8/1/82 5/1/220
f 77/1/52 85/1/51 72/1/28 70/1/27
f 252/1/221 302/1/222 300/1/223 296/1/177
f 163/1/224 171/1/97 157/1/96 156/1/225
f 534/1/6 541/1/5 540/1/226 535/1/227
f 158/1/228 183/1/229 180/1/230 166/1/231
f 82/1/75 3/1/3 90/1/44
f 1/1/1 5/1/220 4/1/232 2/1/2
f 135/1/233 136/1/129 116/1/128 129/1/234
f 530/1/235 544/1/7 534/1/6 529/1/236
f 513/1/237 520/1/238 519/1/239 518/1/240
f 284/1/241 421/1/242 264/1/243 277/1/244
f 352/1/245 384/1/103 362/1/102 354/1/246
f 204/1/247 241/1/248 234/1/249 210/1/250
f 90/1/44 3/1/3 97/1/42
f 471/1/251 502/1/252 501/1/253 494/1/254
f 15/1/255 16/1/256 4/1/232 14/1/257
f 14/1/257 22/1/12 23/1/153 15/1/255
f 245/1/258 246/1/164 239/1/259 244/1/260
f 145/1/261 146/1/173 126/1/172 140/1/73
f 290/1/262 322/1/263 321/1/264 314/1/265
f 48/1/57 54/1/132 55/1/33 49/1/32
f 24/1/266 33/1/88 25/1/66 16/1/256
f 91/1/17 98/1/43 99/1/61 92/1/18
f 23/1/153 493/1/144 488/1/267 15/1/255
f 32/1/11 500/1/154 23/1/153 22/1/12
f 8/1/82 14/1/257 4/1/232 5/1/220
f 210/1/250 219/1/268 211/1/269 205/1/270
f 106/1/59 268/1/271 267/1/195 258/1/194
f 17/1/45 20/1/159 11/1/201 9/1/21
f 108/1/98 129/1/234 116/1/128 109/1/99
f 24/1/266 488/1/267 486/1/207 481/1/210
f 20/1/159 28/1/149 29/1/150 21/1/34
f 67/1/272 512/1/273 513/1/237 511/1/140
f 122/1/274 144/1/275 130/1/276 123/1/277
f 372/1/91 379/1/278 378/1/279 373/1/280
f 471/1/251 494/1/254 476/1/281 400/1/282
f 525/1/283 532/1/284 514/1/137 518/1/240
f 101/1/285 121/1/286 108/1/98 100/1/83
f 437/1/287 444/1/41 445/1/40 438/1/288
f 183/1/229 189/1/162 181/1/289 180/1/230
f 516/1/290 520/1/238 513/1/237 512/1/273
f 498/1/291 509/1/142 501/1/253 502/1/252
f 287/1/292 330/1/293 322/1/263 290/1/262
f 32/1/11 505/1/294 503/1/295 500/1/154
f 128/1/296 129/1/234 108/1/98 121/1/286
f 472/1/297 522/1/298 459/1/299 466/1/108
f 253/1/179 260/1/300 227/1/301 235/1/302
f 450/1/38 466/1/108 459/1/299 451/1/39
f 27/1/157 35/1/10 13/1/9 18/1/81
f 431/1/117 424/1/303 439/1/304 435/1/305
f 143/1/306 144/1/275 122/1/274 138/1/127
f 490/1/307 505/1/294 41/1/308 495/1/309
f 514/1/137 532/1/284 521/1/310 515/1/138
f 118/1/74 140/1/73 126/1/172 119/1/311
f 93/1/219 94/1/151 72/1/28 85/1/51
f 521/1/310 522/1/298 472/1/297 515/1/138
f 262/1/312 297/1/313 243/1/314 255/1/315
f 104/1/203 127/1/175 112/1/316 105/1/204
f 242/1/317 247/1/318 225/1/319 234/1/249
f 405/1/320 406/1/321 362/1/102 398/1/101
f 262/1/312 404/1/322 403/1/323 397/1/324
f 537/1/325 544/1/7 530/1/235 531/1/326
f 445/1/40 451/1/39 452/1/327 446/1/328
f 78/1/152 103/1/106 87/1/105 79/1/329
f 396/1/330 414/1/331 389/1/332 390/1/333
f 41/1/308 508/1/334 496/1/335 495/1/309
f 496/1/335 507/1/336 465/1/107 483/1/337
f 545/1/4 549/1/338 550/1/339 548/1/340
f 146/1/173 145/1/261 152/1/341
f 134/1/174 536/1/342 112/1/316 127/1/175
f 465/1/107 507/1/336 472/1/297 466/1/108
f 89/1/343 524/1/344 66/1/345 81/1/346
f 126/1/172 127/1/175 104/1/203 119/1/311
f 271/1/347 277/1/244 264/1/243 265/1/54
f 464/1/191 471/1/251 400/1/282 393/1/192
f 207/1/348 202/1/349 201/1/350 193/1/351
f 154/1/352 160/1/353 152/1/341
f 154/1/352 153/1/217 160/1/353
f 61/1/49 62/1/48 54/1/132 53/1/131
f 153/1/217 161/1/216 160/1/353
f 545/1/4 548/1/340 547/1/354 541/1/5
f 423/1/355 422/1/356 416/1/357 421/1/242
f 67/1/272 511/1/140 510/1/139 508/1/334
f 159/1/84 165/1/358 164/1/85
f 159/1/84 158/1/228 166/1/231
f 159/1/84 166/1/231 167/1/359
f 159/1/84 167/1/359 165/1/358
f 442/1/360 443/1/361 435/1/305 439/1/304
f 344/1/362 345/1/363 337/1/168 343/1/364
f 164/1/85 172/1/365 155/1/366
f 165/1/358 161/1/216 172/1/365
f 164/1/85 165/1/358 172/1/365
f 165/1/358 173/1/367 161/1/216
f 173/1/367 160/1/353 161/1/216
f 167/1/359 166/1/231 174/1/368
f 155/1/366 172/1/365 175/1/369
f 172/1/365 161/1/216 175/1/369
f 491/1/143 492/1/370 487/1/208 486/1/207
f 158/1/228 159/1/84 151/1/87 150/1/124
f 477/1/371 483/1/337 443/1/361 442/1/360
f 102/1/372 124/1/70 110/1/69 103/1/106
f 27/1/157 60/1/156 41/1/308 35/1/10
f 174/1/368 166/1/231 180/1/230
f 174/1/368 180/1/230 181/1/289
f 174/1/368 181/1/289 182/1/373
f 41/1/308 505/1/294 32/1/11 35/1/10
f 524/1/344 530/1/235 529/1/236 523/1/374
f 468/1/375 497/1/376 490/1/307 482/1/377
f 468/1/375 482/1/377 467/1/378 447/1/379
f 447/1/379 467/1/378 442/1/360 439/1/304
f 193/1/351 170/1/380 169/1/381 192/1/382
f 182/1/373 187/1/161 188/1/383
f 15/1/255 488/1/267 24/1/266 16/1/256
f 185/1/384 190/1/113 191/1/116
f 125/1/385 124/1/70 102/1/372 123/1/277
f 435/1/305 436/1/386 429/1/118 431/1/117
f 489/1/387 497/1/376 468/1/375 461/1/388
f 489/1/387 506/1/389 503/1/295 497/1/376
f 112/1/316 536/1/342 537/1/325 531/1/326
f 181/1/289 189/1/162 187/1/161 182/1/373
f 437/1/287 438/1/288 417/1/390 430/1/391
f 170/1/380 195/1/392 197/1/160
f 376/1/93 424/1/303 431/1/117 377/1/90
f 67/1/272 508/1/334 41/1/308 60/1/156
f 461/1/388 468/1/375 447/1/379 454/1/393
f 412/1/394 430/1/391 417/1/390 413/1/395
f 429/1/118 430/1/391 412/1/394 380/1/119
f 501/1/253 506/1/389 489/1/387 494/1/254
f 485/1/396 473/1/397 469/1/398 479/1/399
f 371/1/400 376/1/93 370/1/92 363/1/401
f 86/1/50 109/1/99 93/1/219 85/1/51
f 412/1/394 413/1/395 407/1/122 411/1/121
f 418/1/402 454/1/393 447/1/379 424/1/303
f 363/1/401 370/1/92 365/1/403 364/1/404
f 205/1/270 211/1/269 206/1/405
f 206/1/405 211/1/269 212/1/406
f 400/1/282 476/1/281 408/1/407 401/1/408
f 526/1/409 528/1/410 459/1/299 522/1/298
f 385/1/120 386/1/411 378/1/279 379/1/278
f 16/1/256 25/1/66 2/1/2 4/1/232
f 214/1/412 215/1/64 217/1/63
f 211/1/269 219/1/268 220/1/413
f 346/1/414 353/1/415 348/1/416 347/1/417
f 66/1/345 517/1/418 52/1/155 59/1/23
f 408/1/407 476/1/281 461/1/388 454/1/393
f 222/1/419 216/1/65 215/1/64 221/1/420
f 350/1/421 351/1/422 333/1/423 331/1/424
f 577/1/425 580/1/426 579/1/427 575/1/428
f 219/1/268 226/1/429 220/1/413
f 220/1/413 226/1/429 227/1/301
f 476/1/281 494/1/254 489/1/387 461/1/388
f 534/1/6 535/1/227 519/1/239 529/1/236
f 142/1/430 168/1/431 163/1/224 156/1/225
f 92/1/18 99/1/61 101/1/285 100/1/83
f 19/1/36 46/1/158 27/1/157 18/1/81
f 405/1/320 418/1/402 371/1/400 406/1/321
f 406/1/321 371/1/400 363/1/401 361/1/432
f 226/1/429 235/1/302 227/1/301
f 436/1/386 458/1/109 450/1/38 444/1/41
f 87/1/105 111/1/104 95/1/433 88/1/434
f 408/1/407 405/1/320 398/1/101 401/1/408
f 380/1/119 379/1/278 372/1/91 377/1/90
f 362/1/102 406/1/321 361/1/432 354/1/246
f 354/1/246 361/1/432 355/1/435 353/1/415
f 13/1/9 22/1/12 14/1/257 8/1/82
f 463/1/436 502/1/252 471/1/251 464/1/191
f 394/1/437 401/1/408 398/1/101 391/1/100
f 400/1/282 401/1/408 394/1/437 393/1/192
f 310/1/211 390/1/333 389/1/332 383/1/212
f 68/1/46 75/1/200 76/1/438 69/1/47
f 37/1/13 44/1/16 31/1/163 29/1/150
f 107/1/60 113/1/439 101/1/285 99/1/61
f 432/1/440 440/1/441 419/1/442 426/1/443
f 385/1/120 399/1/123 392/1/444 386/1/411
f 341/1/445 349/1/446 334/1/447 326/1/448
f 235/1/302 248/1/176 253/1/179
f 498/1/291 504/1/183 484/1/182 492/1/370
f 487/1/208 492/1/370 484/1/182 485/1/396
f 73/1/449 74/1/450 50/1/451 65/1/452
f 480/1/209 487/1/208 485/1/396 479/1/399
f 323/1/170 338/1/169 318/1/453 325/1/197
f 227/1/301 260/1/300 261/1/454
f 49/1/32 56/1/31 45/1/15 43/1/14
f 456/1/184 504/1/183 463/1/436 457/1/455
f 473/1/397 485/1/396 484/1/182 478/1/185
f 263/1/456 404/1/322 254/1/457 257/1/55
f 39/1/110 481/1/210 480/1/209 475/1/458
f 24/1/266 481/1/210 39/1/110 33/1/88
f 266/1/196 267/1/195 3/1/3
f 268/1/271 97/1/42 3/1/3
f 267/1/195 268/1/271 3/1/3
f 408/1/407 454/1/393 418/1/402 405/1/320
f 84/1/19 77/1/52 76/1/438 83/1/20
f 474/1/459 479/1/399 469/1/398 470/1/460
f 266/1/196 3/1/3 271/1/347
f 368/1/461 369/1/462 391/1/100 384/1/103
f 368/1/461 384/1/103 352/1/245 344/1/362
f 513/1/237 518/1/240 514/1/137 511/1/140
f 319/1/145 328/1/148 320/1/463 313/1/464
f 271/1/347 3/1/3 277/1/244
f 344/1/362 352/1/245 346/1/414 345/1/363
f 394/1/437 388/1/465 387/1/193 393/1/192
f 223/1/466 244/1/260 239/1/259 233/1/467
f 581/1/468 582/1/469 579/1/427 580/1/426
f 340/1/470 347/1/417 335/1/147 339/1/146
f 335/1/147 347/1/417 348/1/416 341/1/445
f 277/1/244 3/1/3 284/1/241
f 441/1/471 470/1/460 469/1/398 462/1/472
f 141/1/473 162/1/215 131/1/67 133/1/474
f 463/1/436 464/1/191 395/1/190 457/1/455
f 50/1/451 51/1/25 31/1/163 44/1/16
f 367/1/475 388/1/465 369/1/462 359/1/476
f 62/1/48 63/1/26 55/1/33 54/1/132
f 150/1/124 151/1/87 143/1/306 149/1/125
f 278/1/477 302/1/222 252/1/221 259/1/478
f 64/1/479 88/1/434 73/1/449 65/1/452
f 306/1/76 325/1/197 318/1/453 312/1/77
f 286/1/480 305/1/481 304/1/482 279/1/483
f 363/1/401 364/1/404 355/1/435 361/1/432
f 240/1/484 242/1/317 234/1/249 241/1/248
f 291/1/485 295/1/486 289/1/487 288/1/488
f 198/1/489 199/1/490 192/1/382 191/1/116
f 346/1/414 347/1/417 340/1/470 345/1/363
f 139/1/72 153/1/217 145/1/261 140/1/73
f 496/1/335 483/1/337 477/1/371 495/1/309
f 409/1/491 457/1/455 395/1/190 402/1/492
f 381/1/493 402/1/492 395/1/190 387/1/193
f 288/1/488 293/1/494 292/1/198 291/1/485
f 288/1/488 289/1/487 282/1/495 281/1/496
f 337/1/168 345/1/363 340/1/470 338/1/169
f 78/1/152 79/1/329 57/1/30 71/1/29
f 360/1/497 368/1/461 344/1/362 343/1/364
f 340/1/470 339/1/146 318/1/453 338/1/169
f 433/1/498 432/1/440 426/1/443 427/1/499
f 272/1/166 278/1/477 259/1/478 269/1/167
f 281/1/496 282/1/495 275/1/500 274/1/501
f 95/1/433 96/1/206 73/1/449 88/1/434
f 342/1/136 358/1/135 351/1/422 350/1/421
f 274/1/501 301/1/502 294/1/503 281/1/496
f 125/1/385 133/1/474 131/1/67 124/1/70
f 351/1/422 360/1/497 343/1/364 333/1/423
f 359/1/476 360/1/497 351/1/422 358/1/135
f 367/1/475 359/1/476 358/1/135 366/1/134
f 298/1/504 316/1/199 292/1/198 293/1/494
f 298/1/504 317/1/189 315/1/505 316/1/199
f 333/1/423 343/1/364 337/1/168 332/1/171
f 315/1/505 331/1/424 333/1/423 332/1/171
f 294/1/503 311/1/506 298/1/504 293/1/494
f 260/1/300 276/1/507 270/1/508 261/1/454
f 374/1/509 381/1/493 367/1/475 366/1/134
f 324/1/188 331/1/424 315/1/505 317/1/189
f 288/1/488 281/1/496 294/1/503 293/1/494
f 327/1/510 326/1/448 334/1/447
f 260/1/300 253/1/179 283/1/178 276/1/507
f 283/1/178 301/1/502 274/1/501 276/1/507
f 57/1/30 79/1/329 64/1/479 56/1/31
f 336/1/133 375/1/213 374/1/509 366/1/134
f 308/1/186 317/1/189 298/1/504 311/1/506
f 303/1/511 305/1/481 286/1/480 297/1/313
f 300/1/223 311/1/506 294/1/503 301/1/502
f 300/1/223 301/1/502 283/1/178 296/1/177
f 31/1/163 51/1/25 38/1/24 30/1/35
f 168/1/431 185/1/384 169/1/381 163/1/224
f 510/1/139 515/1/138 472/1/297 507/1/336
f 278/1/477 309/1/187 308/1/186 302/1/222
f 321/1/264 324/1/188 309/1/187 314/1/265
f 157/1/96 149/1/125 137/1/126 156/1/225
f 467/1/378 482/1/377 477/1/371 442/1/360
f 252/1/221 296/1/177 248/1/176 247/1/318
f 341/1/445 348/1/416 349/1/446
f 510/1/139 507/1/336 496/1/335 508/1/334
f 321/1/264 350/1/421 331/1/424 324/1/188
f 342/1/136 350/1/421 321/1/264 322/1/263
f 242/1/317 259/1/478 252/1/221 247/1/318
f 248/1/176 235/1/302 225/1/319 247/1/318
f 354/1/246 353/1/415 346/1/414 352/1/245
f 349/1/446 356/1/512 334/1/447
f 225/1/319 235/1/302 226/1/429 219/1/268
f 334/1/447 356/1/512 357/1/513
f 336/1/133 342/1/136 322/1/263 330/1/293
f 291/1/485 306/1/76 299/1/79 295/1/486
f 315/1/505 332/1/171 323/1/170 316/1/199
f 240/1/484 269/1/167 259/1/478 242/1/317
f 210/1/250 234/1/249 225/1/319 219/1/268
f 356/1/512 364/1/404 357/1/513
f 270/1/508 276/1/507 274/1/501 275/1/500
f 357/1/513 364/1/404 365/1/403
f 272/1/166 314/1/265 309/1/187 278/1/477
f 95/1/433 119/1/311 104/1/203 96/1/206
f 290/1/262 314/1/265 272/1/166 273/1/165
f 359/1/476 369/1/462 368/1/461 360/1/497
f 382/1/514 402/1/492 381/1/493 374/1/509
f 250/1/56 257/1/55 254/1/457 249/1/515
f 228/1/516 251/1/517 245/1/258 244/1/260
f 365/1/403 370/1/92 372/1/91
f 365/1/403 372/1/91 373/1/280
f 45/1/15 65/1/452 50/1/451 44/1/16
f 443/1/361 458/1/109 436/1/386 435/1/305
f 375/1/213 383/1/212 382/1/514 374/1/509
f 205/1/270 206/1/405 199/1/490 198/1/489
f 213/1/518 214/1/412 206/1/405 212/1/406
f 206/1/405 214/1/412 207/1/348 199/1/490
f 310/1/211 329/1/214 304/1/482 305/1/481
f 287/1/292 290/1/262 273/1/165 280/1/519
f 152/1/341 543/1/520 134/1/174 146/1/173
f 279/1/483 304/1/482 287/1/292 280/1/519
f 389/1/332 410/1/521 382/1/514 383/1/212
f 20/1/159 21/1/34 12/1/37 11/1/201
f 329/1/214 375/1/213 336/1/133 330/1/293
f 246/1/164 269/1/167 240/1/484 239/1/259
f 50/1/451 74/1/450 58/1/22 51/1/25
f 106/1/59 258/1/194 114/1/522 107/1/60
f 245/1/258 280/1/519 273/1/165 246/1/164
f 286/1/480 279/1/483 251/1/517 285/1/523
f 443/1/361 483/1/337 465/1/107 458/1/109
f 389/1/332 414/1/331 415/1/524 410/1/521
f 419/1/442 440/1/441 415/1/524 414/1/331
f 73/1/449 96/1/206 80/1/205 74/1/450
f 118/1/74 119/1/311 95/1/433 111/1/104
f 441/1/471 462/1/472 433/1/498 434/1/525
f 448/1/526 478/1/185 456/1/184 449/1/527
f 143/1/306 151/1/87 148/1/86 144/1/275
f 240/1/484 241/1/248 233/1/467 239/1/259
f 38/1/24 59/1/23 52/1/155 46/1/158
f 264/1/243 421/1/242 416/1/357 263/1/456
f 320/1/463 328/1/148 326/1/448 327/1/510
f 228/1/516 244/1/260 223/1/466 224/1/528
f 303/1/511 390/1/333 310/1/211 305/1/481
f 382/1/514 410/1/521 409/1/491 402/1/492
f 385/1/120 379/1/278 411/1/121
f 214/1/412 217/1/63 202/1/349 207/1/348
f 128/1/296 232/1/529 194/1/530 186/1/531
f 303/1/511 397/1/324 396/1/330 390/1/333
f 456/1/184 457/1/455 409/1/491 449/1/527
f 469/1/398 473/1/397 455/1/532 462/1/472
f 411/1/121 379/1/278 380/1/119 412/1/394
f 223/1/466 233/1/467 209/1/115 218/1/114
f 130/1/276 147/1/533 141/1/473 133/1/474
f 396/1/330 420/1/534 419/1/442 414/1/331
f 87/1/105 88/1/434 64/1/479 79/1/329
f 415/1/524 449/1/527 409/1/491 410/1/521
f 137/1/126 149/1/125 143/1/306 138/1/127
f 433/1/498 462/1/472 455/1/532 432/1/440
f 191/1/116 209/1/115 204/1/247 198/1/489
f 284/1/241 3/1/3 425/1/535
f 142/1/430 156/1/225 137/1/126 136/1/129
f 97/1/42 268/1/271 106/1/59 98/1/43
f 425/1/535 3/1/3 428/1/536
f 199/1/490 207/1/348 193/1/351 192/1/382
f 503/1/295 505/1/294 490/1/307 497/1/376
f 131/1/67 162/1/215 139/1/72 132/1/68
f 422/1/356 426/1/443 419/1/442 420/1/534
f 423/1/355 427/1/499 426/1/443 422/1/356
f 428/1/536 3/1/3 434/1/525
f 423/1/355 425/1/535 428/1/536 427/1/499
f 437/1/287 430/1/391 429/1/118 436/1/386
f 193/1/351 201/1/350 195/1/392 170/1/380
f 134/1/174 543/1/520 542/1/537 536/1/342
f 185/1/384 191/1/116 192/1/382 169/1/381
f 284/1/241 425/1/535 423/1/355 421/1/242
f 434/1/525 3/1/3 441/1/471
f 155/1/366 175/1/369 141/1/473 147/1/533
f 170/1/380 171/1/97 163/1/224 169/1/381
f 437/1/287 436/1/386 444/1/41
f 187/1/161 197/1/160 195/1/392 188/1/383
f 438/1/288 445/1/40 446/1/328
f 176/1/94 189/1/162 183/1/229 177/1/95
f 424/1/303 447/1/379 439/1/304
f 403/1/323 416/1/357 422/1/356 420/1/534
f 403/1/323 420/1/534 396/1/330 397/1/324
f 40/1/111 42/1/58 36/1/130 34/1/89
f 170/1/380 197/1/160 176/1/94 171/1/97
f 194/1/530 200/1/180 184/1/181 186/1/531
f 446/1/328 452/1/327 453/1/538
f 243/1/314 297/1/313 286/1/480 285/1/523
f 262/1/312 397/1/324 303/1/511 297/1/313
f 394/1/437 391/1/100 369/1/462 388/1/465
f 335/1/147 341/1/445 326/1/448 328/1/148
f 537/1/325 549/1/338 545/1/4 544/1/7
f 453/1/538 452/1/327 460/1/539
f 503/1/295 506/1/389 499/1/141 500/1/154
f 135/1/233 186/1/531 184/1/181 178/1/540
f 448/1/526 449/1/527 415/1/524 440/1/441
f 130/1/276 144/1/275 148/1/86 147/1/533
f 10/1/80 12/1/37 19/1/36 18/1/81
f 308/1/186 311/1/506 300/1/223 302/1/222
f 195/1/392 201/1/350 196/1/541 188/1/383
f 575/1/428 578/1/542 576/1/543 574/1/544
f 233/1/467 241/1/248 204/1/247 209/1/115
f 63/1/26 71/1/29 57/1/30 55/1/33
f 441/1/471 3/1/3 470/1/460
f 230/1/545 285/1/523 251/1/517 228/1/516
f 279/1/483 280/1/519 245/1/258 251/1/517
f 93/1/219 117/1/218 102/1/372 94/1/151
f 475/1/458 480/1/209 479/1/399 474/1/459
f 263/1/456 416/1/357 403/1/323 404/1/322
f 254/1/457 255/1/315 237/1/546 249/1/515
f 470/1/460 3/1/3 474/1/459
f 3/1/3 39/1/110 475/1/458
f 3/1/3 475/1/458 474/1/459
f 224/1/528 229/1/547 230/1/545 228/1/516
f 424/1/303 376/1/93 371/1/400 418/1/402
f 179/1/548 168/1/431 142/1/430 178/1/540
f 265/1/54 256/1/53 266/1/196 271/1/347
f 38/1/24 46/1/158 19/1/36 30/1/35
f 148/1/86 164/1/85 155/1/366 147/1/533
f 254/1/457 404/1/322 262/1/312 255/1/315
f 82/1/75 83/1/20 76/1/438 75/1/200
f 257/1/55 265/1/54 264/1/243 263/1/456
f 114/1/522 258/1/194 256/1/53 250/1/56
f 523/1/374 529/1/236 519/1/239 520/1/238
f 243/1/314 285/1/523 230/1/545 236/1/549
f 204/1/247 210/1/250 205/1/270 198/1/489
f 80/1/205 105/1/204 89/1/343 81/1/346
f 194/1/530 229/1/547 224/1/528 200/1/180
f 135/1/233 178/1/540 142/1/430 136/1/129
f 355/1/435 364/1/404 356/1/512 349/1/446
f 250/1/56 249/1/515 115/1/550 114/1/522
f 107/1/60 114/1/522 115/1/550 113/1/439
f 434/1/525 433/1/498 427/1/499 428/1/536
f 432/1/440 455/1/532 448/1/526 440/1/441
f 491/1/143 509/1/142 498/1/291 492/1/370
f 329/1/214 330/1/293 287/1/292 304/1/482
f 463/1/436 504/1/183 498/1/291 502/1/252
f 115/1/550 249/1/515 237/1/546 238/1/551
f 115/1/550 238/1/551 120/1/552 113/1/439
f 120/1/552 121/1/286 101/1/285 113/1/439
f 231/1/553 236/1/549 230/1/545 229/1/547
f 194/1/530 232/1/529 231/1/553 229/1/547
f 231/1/553 238/1/551 237/1/546 236/1/549
f 237/1/546 255/1/315 243/1/314 236/1/549
f 141/1/473 175/1/369 161/1/216 162/1/215
f 232/1/529 128/1/296 121/1/286 120/1/552
f 312/1/77 319/1/145 313/1/464 307/1/78
f 128/1/296 186/1/531 135/1/233 129/1/234
f 120/1/552 238/1/551 231/1/553 232/1/529
f 387/1/193 388/1/465 367/1/475 381/1/493
f 64/1/479 65/1/452 45/1/15 56/1/31
f 501/1/253 509/1/142 499/1/141 506/1/389
f 122/1/274 123/1/277 102/1/372 117/1/218
f 318/1/453 339/1/146 319/1/145 312/1/77
f 76/1/438 77/1/52 70/1/27 69/1/47
f 52/1/155 516/1/290 512/1/273
f 202/1/349 203/1/554 196/1/541 201/1/350
f 52/1/155 517/1/418 516/1/290
f 52/1/155 512/1/273 67/1/272 60/1/156
f 177/1/95 183/1/229 158/1/228 150/1/124
f 112/1/316 531/1/326 89/1/343 105/1/204
f 516/1/290 517/1/418 523/1/374
f 516/1/290 523/1/374 520/1/238
f 130/1/276 133/1/474 125/1/385 123/1/277
f 488/1/267 493/1/144 491/1/143 486/1/207
f 66/1/345 524/1/344 523/1/374 517/1/418
f 355/1/435 349/1/446 348/1/416 353/1/415
f 213/1/518 221/1/420 215/1/64 214/1/412
f 522/1/298 521/1/310 527/1/555
f 522/1/298 527/1/555 526/1/409
f 526/1/409 527/1/555 460/1/539
f 528/1/410 460/1/539 452/1/327
f 526/1/409 460/1/539 528/1/410
f 58/1/22 81/1/346 66/1/345 59/1/23
f 200/1/180 224/1/528 223/1/466 218/1/114
f 527/1/555 521/1/310 533/1/556
f 527/1/555 533/1/556 460/1/539
f 473/1/397 478/1/185 448/1/526 455/1/532
f 102/1/372 103/1/106 78/1/152 94/1/151
f 80/1/205 81/1/346 58/1/22 74/1/450
f 459/1/299 528/1/410 452/1/327 451/1/39
f 532/1/284 538/1/557 521/1/310
f 532/1/284 525/1/283 538/1/557
f 521/1/310 538/1/557 539/1/558
f 521/1/310 539/1/558 533/1/556
f 116/1/128 138/1/127 122/1/274 117/1/218
f 538/1/557 540/1/226 539/1/558
f 184/1/181 190/1/113 179/1/548 178/1/540
f 536/1/342 542/1/537 537/1/325
f 543/1/520 152/1/341 160/1/353
f 543/1/520 160/1/353 542/1/537
f 145/1/261 153/1/217 154/1/352 152/1/341
f 490/1/307 495/1/309 477/1/371 482/1/377
f 539/1/558 540/1/226 546/1/559
f 540/1/226 541/1/5 547/1/354
f 202/1/349 217/1/63 208/1/62 203/1/554
f 540/1/226 547/1/354 546/1/559
f 537/1/325 542/1/537 549/1/338
f 549/1/338 542/1/537 550/1/339
f 540/1/226 538/1/557 525/1/283 535/1/227
f 160/1/353 551/1/560 542/1/537
f 550/1/339 542/1/537 551/1/560
f 552/1/561 553/1/562 554/1/561
f 553/1/562 555/1/563 556/1/564
f 553/1/562 557/1/565 558/1/565
f 553/1/562 559/1/565 560/1/566
f 553/1/562 558/1/565 561/1/565
f 553/1/562 561/1/565 559/1/565
f 553/1/562 562/1/561 554/1/561
f 553/1/562 556/1/564 562/1/561
f 555/1/563 553/1/562 563/1/567
f 563/1/567 553/1/562 564/1/568
f 564/1/568 553/1/562 565/1/569
f 565/1/569 553/1/562 566/1/570
f 566/1/570 553/1/562 567/1/571
f 567/1/571 553/1/562 568/1/572
f 568/1/572 553/1/562 569/1/573
f 568/1/572 569/1/573 570/1/574
f 569/1/573 571/1/575 570/1/574
f 569/1/573 553/1/562 571/1/575
f 571/1/575 553/1/562 572/1/576
f 571/1/575 572/1/576 573/1/577
f 572/1/576 574/1/544 573/1/577
f 572/1/576 553/1/562 574/1/544
f 179/1/548 190/1/113 185/1/384 168/1/431
f 574/1/544 577/1/425 575/1/428
f 574/1/544 553/1/562 577/1/425
f 89/1/343 531/1/326 530/1/235 524/1/344
f 575/1/428 579/1/427 578/1/542
f 577/1/425 553/1/562 580/1/426
f 580/1/426 553/1/562 581/1/468
f 519/1/239 535/1/227 525/1/283 518/1/240
f 581/1/468 553/1/562 583/1/578
f 581/1/468 583/1/578 582/1/469
f 583/1/578 553/1/562 584/1/579
f 583/1/578 584/1/579 585/1/580
f 584/1/579 553/1/562 586/1/581
f 584/1/579 587/1/582 585/1/580
f 584/1/579 586/1/581 587/1/582
f 586/1/581 553/1/562 588/1/583
f 586/1/581 588/1/583 589/1/584
f 588/1/583 553/1/562 590/1/585
f 588/1/583 590/1/585 589/1/584
f 589/1/584 590/1/585 591/1/586
f 590/1/585 553/1/562 592/1/587
f 590/1/585 592/1/587 591/1/586
f 592/1/587 553/1/562 593/1/588
f 553/1/562 560/1/566 594/1/589
f 553/1/562 595/1/590 593/1/588
f 553/1/562 594/1/589 596/1/591
f 553/1/562 597/1/592 595/1/590
f 553/1/562 596/1/591 597/1/592
f 292/1/198 325/1/197 306/1/76 291/1/485
