# Blender 4.3.2
# www.blender.org
o hair.051
v 7.426209 0.379107 0.003546
v 7.426886 0.378909 0.006866
v 7.426731 0.379076 0.003303
v 7.425159 0.379033 -0.001638
v 7.425626 0.379127 0.003650
v 7.425927 0.378931 0.007025
v 7.425044 0.379128 0.003708
v 7.424974 0.378942 0.007034
v 7.424896 0.378578 0.010179
v 7.426211 0.378548 0.010177
v 7.424249 0.379112 0.003563
v 7.423652 0.378918 0.006865
v 7.423027 0.378491 0.009867
v 7.424808 0.377981 0.013541
v 7.426515 0.377911 0.013515
v 7.427523 0.378500 0.009960
v 7.423444 0.379071 0.003263
v 7.422243 0.378811 0.006340
v 7.420999 0.378298 0.009240
v 7.422292 0.377813 0.013120
v 7.419593 0.377518 0.012292
v 7.424718 0.377418 0.016505
v 7.426785 0.377338 0.016487
v 7.428205 0.377811 0.013275
v 7.428745 0.378392 0.009584
v 7.427767 0.378858 0.006544
v 7.420879 0.378659 0.005664
v 7.419100 0.378033 0.008282
v 7.417167 0.377130 0.011035
v 7.418263 0.376743 0.015015
v 7.421566 0.377164 0.016023
v 7.428818 0.377221 0.016249
v 7.429785 0.377647 0.012799
v 7.429899 0.378283 0.009038
v 7.428596 0.378780 0.006122
v 7.427227 0.379031 0.003041
v 7.417434 0.377764 0.006974
v 7.415082 0.376768 0.009372
v 7.424616 0.376811 0.019493
v 7.420771 0.376440 0.019043
v 7.430727 0.376991 0.015711
v 7.431289 0.377471 0.012132
v 7.429637 0.378645 0.005479
v 7.427830 0.378956 0.002616
v 7.413188 0.375709 0.011340
v 7.413473 0.376335 0.007297
v 7.427126 0.376715 0.019486
v 7.431809 0.376229 0.018680
v 7.432741 0.376655 0.014815
v 7.428449 0.378853 0.001986
v 7.415472 0.376255 0.013408
v 7.429602 0.376552 0.019221
v 7.427378 0.376088 0.021964
v 7.430172 0.375886 0.021718
v 7.430706 0.378449 0.004458
v 7.428863 0.378761 0.001339
v 7.413687 0.375183 0.015763
v 7.416852 0.375826 0.017905
v 7.432684 0.375545 0.021090
v 7.424555 0.376172 0.022054
v 7.431351 0.378077 0.008179
v 7.411398 0.375098 0.008956
v 7.411338 0.374554 0.013290
v 7.415574 0.374933 0.020301
v 7.420244 0.375693 0.021691
v 7.434174 0.375724 0.017683
v 7.433166 0.377167 0.011020
v 7.432947 0.377776 0.006898
v 7.410077 0.374433 0.006138
v 7.409433 0.373692 0.010599
v 7.409764 0.373571 0.014807
v 7.419905 0.374912 0.024034
v 7.434745 0.376243 0.013485
v 7.437153 0.375698 0.011352
v 7.435236 0.376768 0.009372
v 7.431550 0.378247 0.003377
v 7.407965 0.372763 0.007508
v 7.407802 0.372468 0.011920
v 7.412238 0.374268 0.017641
v 7.427602 0.375490 0.024132
v 7.424520 0.375514 0.024310
v 7.436845 0.376335 0.007297
v 7.434176 0.377465 0.005293
v 7.406319 0.371354 0.008573
v 7.406093 0.371080 0.013269
v 7.410522 0.373129 0.019561
v 7.414179 0.373756 0.022941
v 7.404622 0.369858 0.009586
v 7.405333 0.370467 0.004279
v 7.406997 0.371994 0.003614
v 7.408042 0.372322 0.016420
v 7.419808 0.373391 0.028055
v 7.430602 0.375245 0.023882
v 7.433389 0.374835 0.023373
v 7.409185 0.373747 0.002771
v 7.424530 0.374181 0.028140
v 7.428102 0.374369 0.027873
v 7.431042 0.374141 0.027390
v 7.433934 0.373758 0.026850
v 7.436332 0.374098 0.022432
v 7.435345 0.374968 0.020051
v 7.412283 0.375870 0.004826
v 7.411517 0.375323 0.001959
v 7.408784 0.373074 -0.000945
v 7.424573 0.372121 0.032603
v 7.437865 0.374310 0.018053
v 7.436490 0.375208 0.015984
v 7.416142 0.377465 0.005293
v 7.411204 0.374781 -0.001159
v 7.414618 0.376781 0.001053
v 7.406538 0.371299 -0.000704
v 7.404850 0.369721 -0.000488
v 7.440594 0.373399 0.014946
v 7.439059 0.374494 0.013334
v 7.419709 0.378483 0.004632
v 7.411354 0.374359 -0.004404
v 7.414386 0.376448 -0.001353
v 7.403566 0.368842 0.004918
v 7.403059 0.367966 -0.000255
v 7.438938 0.375091 0.008942
v 7.422623 0.378977 0.002753
v 7.408932 0.372509 -0.004816
v 7.401614 0.366669 0.005659
v 7.402638 0.367897 0.010699
v 7.404192 0.369423 0.014707
v 7.440242 0.374433 0.006138
v 7.440956 0.373663 0.010544
v 7.438035 0.375870 0.004826
v 7.406744 0.370678 -0.005168
v 7.406025 0.370662 0.018292
v 7.401828 0.367127 0.016393
v 7.442590 0.372381 0.011837
v 7.435112 0.377152 0.003298
v 7.432193 0.378057 0.001866
v 7.405126 0.369048 -0.005384
v 7.408540 0.371511 0.022002
v 7.403810 0.368445 0.020449
v 7.442189 0.372222 0.016616
v 7.444297 0.370971 0.013178
v 7.403435 0.367161 -0.005538
v 7.401650 0.364701 -0.005600
v 7.401136 0.365736 0.000038
v 7.409207 0.369926 0.027248
v 7.445669 0.369827 0.009586
v 7.446163 0.369329 0.014647
v 7.439199 0.373337 0.020192
v 7.429276 0.378649 0.000438
v 7.398776 0.362112 0.000352
v 7.414505 0.372056 0.027757
v 7.443992 0.371344 0.008573
v 7.443882 0.370830 0.018418
v 7.440633 0.372113 0.022335
v 7.437062 0.373096 0.025396
v 7.414694 0.369834 0.033122
v 7.419883 0.371263 0.032977
v 7.442354 0.372763 0.007508
v 7.442691 0.370170 0.024816
v 7.434180 0.372213 0.030286
v 7.437307 0.371523 0.029662
v 7.420283 0.366762 0.036924
v 7.441134 0.373747 0.002771
v 7.443322 0.371994 0.003614
v 7.444986 0.370467 0.004279
v 7.438802 0.375323 0.001959
v 7.431406 0.372492 0.031036
v 7.437254 0.369388 0.030562
v 7.439935 0.369372 0.029825
v 7.441535 0.373074 -0.000945
v 7.446753 0.368842 0.004918
v 7.435701 0.376778 0.001054
v 7.428294 0.372433 0.031865
v 7.431685 0.370126 0.033496
v 7.434559 0.370241 0.032132
v 7.437201 0.367253 0.031463
v 7.447504 0.367728 0.010697
v 7.448668 0.366638 0.005661
v 7.447259 0.367966 -0.000255
v 7.432661 0.377828 0.000248
v 7.434973 0.367581 0.033390
v 7.435699 0.364268 0.034118
v 7.437135 0.364622 0.032572
v 7.450026 0.365205 0.012072
v 7.445474 0.369730 -0.000489
v 7.429515 0.378524 -0.000549
v 7.435932 0.376448 -0.001353
v 7.432765 0.377643 -0.001488
v 7.436864 0.360084 0.034393
v 7.445193 0.369048 -0.005384
v 7.443575 0.370678 -0.005168
v 7.443780 0.371299 -0.000704
v 7.429610 0.378412 -0.001573
v 7.439115 0.374781 -0.001159
v 7.436467 0.358752 0.034970
v 7.441387 0.372509 -0.004816
v 7.438965 0.374359 -0.004404
v 7.429515 0.378304 -0.002601
v 7.435758 0.376150 -0.003825
v 7.433426 0.363274 0.035629
v 7.435421 0.358027 0.035145
v 7.440681 0.372000 -0.008620
v 7.438324 0.374009 -0.007573
v 7.435208 0.375954 -0.006210
v 7.432677 0.377422 -0.003245
v 7.429277 0.378224 -0.003599
v 7.432210 0.377285 -0.004913
v 7.432308 0.367261 0.035013
v 7.430173 0.361374 0.037170
v 7.429520 0.356998 0.035067
v 7.437180 0.373712 -0.010453
v 7.434256 0.375800 -0.008326
v 7.431564 0.377164 -0.006457
v 7.428863 0.378152 -0.004506
v 7.428950 0.365994 0.037109
v 7.428350 0.369589 0.035127
v 7.426927 0.360004 0.037941
v 7.428304 0.356370 0.035323
v 7.432957 0.375682 -0.010132
v 7.430587 0.377095 -0.007721
v 7.428323 0.378101 -0.005314
v 7.424914 0.364040 0.038773
v 7.424610 0.368365 0.036260
v 7.427531 0.355168 0.035764
v 7.429481 0.377017 -0.008835
v 7.427645 0.378047 -0.005963
v 7.421445 0.361630 0.039609
v 7.424381 0.357272 0.038809
v 7.425212 0.349087 0.038130
v 7.431364 0.375595 -0.011590
v 7.428137 0.376975 -0.009572
v 7.426880 0.378021 -0.006465
v 7.415701 0.364705 0.037099
v 7.417475 0.359111 0.039807
v 7.424120 0.347996 0.038317
v 7.420022 0.353835 0.039397
v 7.435574 0.373478 -0.012933
v 7.426035 0.377982 -0.006756
v 7.411188 0.362145 0.036783
v 7.409584 0.367444 0.032885
v 7.413206 0.356547 0.039507
v 7.415454 0.351368 0.038808
v 7.422880 0.347438 0.038141
v 7.437613 0.371121 -0.015184
v 7.433544 0.373316 -0.014907
v 7.439417 0.371522 -0.012130
v 7.404847 0.364024 0.031896
v 7.406891 0.359014 0.035748
v 7.404208 0.366734 0.026165
v 7.409092 0.353844 0.038464
v 7.416348 0.347540 0.035574
v 7.429499 0.375521 -0.012678
v 7.442730 0.370082 -0.009499
v 7.441272 0.369462 -0.013413
v 7.399961 0.362319 0.024176
v 7.399569 0.364123 0.018228
v 7.412274 0.350188 0.036747
v 7.414953 0.347319 0.034901
v 7.426693 0.376912 -0.010130
v 7.444210 0.368387 -0.010079
v 7.400182 0.365298 0.012069
v 7.397827 0.362255 0.013509
v 7.413900 0.346403 0.034800
v 7.425159 0.377975 -0.006872
v 7.446884 0.367161 -0.005538
v 7.445733 0.366393 -0.010577
v 7.442576 0.367681 -0.014246
v 7.409894 0.347590 0.037089
v 7.410526 0.341622 0.034809
v 7.448668 0.364701 -0.005600
v 7.447290 0.363749 -0.010966
v 7.443916 0.365625 -0.015022
v 7.445294 0.362938 -0.015749
v 7.449201 0.365750 0.000036
v 7.399013 0.363552 0.006501
v 7.406057 0.344210 0.034074
v 7.409559 0.340770 0.034490
v 7.449168 0.359825 -0.011316
v 7.451305 0.363552 0.006501
v 7.451543 0.362112 0.000352
v 7.396876 0.359630 0.007142
v 7.408378 0.340425 0.033400
v 7.405606 0.350722 0.036183
v 7.453443 0.359630 0.007142
v 7.453541 0.357428 0.000543
v 7.452310 0.356144 -0.005632
v 7.450820 0.360844 -0.005617
v 7.396778 0.357428 0.000543
v 7.395000 0.354877 0.008120
v 7.395405 0.358227 0.015276
v 7.403648 0.341942 0.030142
v 7.405273 0.340326 0.030058
v 7.454443 0.351914 0.001189
v 7.395876 0.351914 0.001189
v 7.398009 0.356144 -0.005632
v 7.393291 0.351691 0.017709
v 7.396323 0.357552 0.021649
v 7.401224 0.344072 0.029614
v 7.401058 0.340307 0.025516
v 7.399498 0.360844 -0.005617
v 7.397305 0.354916 0.027424
v 7.394944 0.351231 0.025029
v 7.400738 0.359667 0.029968
v 7.396621 0.343106 0.024272
v 7.397920 0.347137 0.027914
v 7.402747 0.347246 0.033201
v 7.396350 0.340669 0.021255
v 7.398797 0.338691 0.020684
v 7.401151 0.359825 -0.011316
v 7.403043 0.355241 0.033714
v 7.393144 0.347477 0.022344
v 7.392444 0.345084 0.019716
v 7.399882 0.351095 0.030975
v 7.396533 0.337059 0.015860
v 7.396891 0.350998 -0.005403
v 7.399672 0.355572 -0.011561
v 7.398586 0.350941 -0.011592
v 7.394565 0.339786 0.004280
v 7.390835 0.329098 0.006869
v 7.393228 0.342227 0.012070
v 7.396153 0.345670 -0.004609
v 7.402003 0.355048 -0.017155
v 7.393931 0.348761 0.009468
v 7.399567 0.328994 -0.007372
v 7.391447 0.326256 0.006690
v 7.396692 0.334659 -0.001512
v 7.394989 0.346327 0.002611
v 7.403339 0.359071 -0.016557
v 7.405025 0.362938 -0.015749
v 7.403028 0.363749 -0.010966
v 7.395419 0.320572 0.008295
v 7.398118 0.334794 -0.009561
v 7.395645 0.340202 -0.003416
v 7.406203 0.358519 -0.021160
v 7.404585 0.366393 -0.010577
v 7.391217 0.314501 -0.006854
v 7.396565 0.318440 0.008652
v 7.392085 0.316851 -0.007036
v 7.397548 0.340598 -0.010930
v 7.397922 0.345841 -0.011234
v 7.397189 0.316208 0.007946
v 7.391505 0.312758 -0.007009
v 7.404176 0.328956 -0.022232
v 7.403077 0.319822 -0.021965
v 7.400578 0.334856 -0.016149
v 7.401001 0.350710 -0.017480
v 7.400319 0.345897 -0.017465
v 7.394063 0.307914 -0.007278
v 7.399062 0.309510 0.006430
v 7.402802 0.317539 -0.021898
v 7.405075 0.354596 -0.022123
v 7.404236 0.350388 -0.022713
v 7.394454 0.306428 -0.007370
v 7.399596 0.307573 0.006108
v 7.402073 0.315179 -0.022125
v 7.400141 0.340607 -0.017037
v 7.408960 0.354246 -0.026159
v 7.393695 0.304603 -0.007330
v 7.398848 0.305245 0.006430
v 7.399423 0.308057 -0.023160
v 7.403464 0.340627 -0.022617
v 7.403855 0.334898 -0.022117
v 7.403644 0.345765 -0.022847
v 7.396104 0.299452 0.009210
v 7.390028 0.298740 -0.007096
v 7.399155 0.305736 -0.023035
v 7.408405 0.334820 -0.026590
v 7.408022 0.340523 -0.027007
v 7.408045 0.345552 -0.027161
v 7.414314 0.328658 -0.029207
v 7.408387 0.350068 -0.026923
v 7.395495 0.297115 0.009680
v 7.389439 0.296675 -0.006839
v 7.400026 0.303445 -0.022763
v 7.413399 0.340406 -0.030090
v 7.413758 0.334704 -0.029586
v 7.410633 0.314145 -0.035262
v 7.411216 0.317176 -0.034598
v 7.413370 0.349781 -0.029970
v 7.395576 0.294598 0.006649
v 7.390360 0.294386 -0.007163
v 7.404439 0.296743 -0.020477
v 7.419398 0.334617 -0.031189
v 7.410991 0.312231 -0.034738
v 7.413273 0.345350 -0.030254
v 7.397250 0.289364 -0.004427
v 7.397822 0.288517 -0.007372
v 7.405760 0.294495 -0.019838
v 7.425159 0.328109 -0.030808
v 7.412852 0.306382 -0.030972
v 7.419078 0.345248 -0.031982
v 7.419184 0.340391 -0.031773
v 7.403996 0.293166 -0.017068
v 7.425159 0.317915 -0.028910
v 7.413049 0.304401 -0.030571
v 7.425159 0.340409 -0.032265
v 7.425159 0.334581 -0.031640
v 7.399036 0.289080 -0.009500
v 7.425159 0.315431 -0.028944
v 7.412845 0.302476 -0.030876
v 7.430921 0.334617 -0.031189
v 7.436005 0.328658 -0.029207
v 7.439103 0.317176 -0.034598
v 7.425159 0.312883 -0.030186
v 7.410915 0.296452 -0.034316
v 7.436561 0.334704 -0.029586
v 7.436919 0.340406 -0.030090
v 7.431135 0.340391 -0.031773
v 7.439686 0.314145 -0.035262
v 7.425159 0.305502 -0.036017
v 7.425159 0.302949 -0.036762
v 7.410597 0.294617 -0.034778
v 7.441914 0.334820 -0.026590
v 7.431241 0.345248 -0.031982
v 7.425159 0.345222 -0.032504
v 7.439328 0.312231 -0.034738
v 7.425159 0.300578 -0.035784
v 7.407916 0.292737 -0.020676
v 7.411126 0.292581 -0.033420
v 7.446143 0.328956 -0.022232
v 7.447242 0.319822 -0.021965
v 7.425159 0.349457 -0.032276
v 7.419086 0.349555 -0.031724
v 7.437467 0.306382 -0.030972
v 7.425159 0.293922 -0.029281
v 7.413696 0.287492 -0.023002
v 7.415461 0.286586 -0.023610
v 7.447516 0.317539 -0.021898
v 7.419214 0.353691 -0.030912
v 7.413673 0.353957 -0.029133
v 7.437270 0.304401 -0.030571
v 7.425159 0.291666 -0.027304
v 7.448246 0.315179 -0.022125
v 7.414196 0.357866 -0.027817
v 7.409796 0.358146 -0.024961
v 7.437474 0.302476 -0.030876
v 7.423004 0.290537 -0.026483
v 7.450896 0.308057 -0.023160
v 7.410923 0.361832 -0.023418
v 7.407659 0.362287 -0.019908
v 7.439403 0.296452 -0.034316
v 7.417131 0.287005 -0.024270
v 7.451164 0.305736 -0.023035
v 7.408840 0.364951 -0.018874
v 7.406402 0.365625 -0.015022
v 7.439722 0.294617 -0.034778
v 7.450293 0.303445 -0.022763
v 7.409979 0.367039 -0.017857
v 7.412774 0.366577 -0.020899
v 7.411861 0.364462 -0.022145
v 7.407743 0.367681 -0.014246
v 7.406109 0.368387 -0.010079
v 7.427315 0.290537 -0.026483
v 7.439193 0.292581 -0.033420
v 7.445879 0.296743 -0.020477
v 7.416253 0.366229 -0.023234
v 7.415603 0.364099 -0.024665
v 7.414948 0.361496 -0.026105
v 7.407588 0.370082 -0.009499
v 7.409058 0.369487 -0.013416
v 7.433187 0.287005 -0.024270
v 7.434858 0.286586 -0.023610
v 7.444558 0.294495 -0.019838
v 7.419841 0.361206 -0.027787
v 7.419465 0.357595 -0.029585
v 7.409638 0.372000 -0.008620
v 7.410902 0.371522 -0.012130
v 7.442403 0.292737 -0.020676
v 7.425159 0.357463 -0.030197
v 7.425159 0.353564 -0.031503
v 7.411995 0.374009 -0.007573
v 7.413138 0.373712 -0.010453
v 7.412706 0.371121 -0.015184
v 7.436623 0.287492 -0.023002
v 7.431105 0.353691 -0.030912
v 7.431232 0.349555 -0.031724
v 7.414561 0.376150 -0.003825
v 7.415111 0.375955 -0.006210
v 7.411088 0.368908 -0.016814
v 7.436949 0.349781 -0.029970
v 7.437046 0.345350 -0.030254
v 7.417553 0.377643 -0.001488
v 7.417642 0.377422 -0.003245
v 7.416062 0.375800 -0.008326
v 7.418109 0.377285 -0.004913
v 7.417658 0.377828 0.000248
v 7.442274 0.345552 -0.027161
v 7.442297 0.340523 -0.027007
v 7.420709 0.378412 -0.001573
v 7.420804 0.378310 -0.002602
v 7.414745 0.373478 -0.012933
v 7.418133 0.378057 0.001865
v 7.420804 0.378524 -0.000549
v 7.415205 0.377149 0.003300
v 7.446855 0.340627 -0.022617
v 7.446464 0.334898 -0.022117
v 7.416775 0.373316 -0.014907
v 7.417362 0.375682 -0.010132
v 7.415037 0.370842 -0.017624
v 7.418760 0.378279 0.003377
v 7.449740 0.334856 -0.016149
v 7.450752 0.328994 -0.007372
v 7.418755 0.377164 -0.006457
v 7.413685 0.368509 -0.019614
v 7.458234 0.316851 -0.007036
v 7.459102 0.314501 -0.006854
v 7.421041 0.378224 -0.003599
v 7.421042 0.378649 0.000438
v 7.421977 0.378877 0.002155
v 7.458814 0.312758 -0.007009
v 7.421456 0.378152 -0.004506
v 7.416922 0.368215 -0.021743
v 7.421456 0.378761 0.001339
v 7.456255 0.307914 -0.007278
v 7.421996 0.378101 -0.005314
v 7.419732 0.377095 -0.007721
v 7.420515 0.365947 -0.024719
v 7.420866 0.367990 -0.023130
v 7.417926 0.370636 -0.019449
v 7.455865 0.306428 -0.007370
v 7.422674 0.378047 -0.005963
v 7.420838 0.377017 -0.008835
v 7.418955 0.375595 -0.011590
v 7.420178 0.363807 -0.026252
v 7.456624 0.304603 -0.007330
v 7.424284 0.377982 -0.006756
v 7.423438 0.378015 -0.006465
v 7.422181 0.376975 -0.009572
v 7.420820 0.375521 -0.012678
v 7.419226 0.373190 -0.016375
v 7.425159 0.361073 -0.028375
v 7.425159 0.363680 -0.026811
v 7.460291 0.298740 -0.007096
v 7.423626 0.376912 -0.010130
v 7.425159 0.376902 -0.010237
v 7.422931 0.375444 -0.013370
v 7.422091 0.373066 -0.017337
v 7.421398 0.370457 -0.020657
v 7.460880 0.296675 -0.006839
v 7.425159 0.375404 -0.013616
v 7.427388 0.375444 -0.013370
v 7.425159 0.373005 -0.017691
v 7.425159 0.370374 -0.021107
v 7.459959 0.294386 -0.007163
v 7.446322 0.293166 -0.017068
v 7.428228 0.373066 -0.017337
v 7.431093 0.373190 -0.016375
v 7.428921 0.370457 -0.020657
v 7.425159 0.367874 -0.023629
v 7.429452 0.367978 -0.023125
v 7.451283 0.289080 -0.009500
v 7.452497 0.288517 -0.007372
v 7.432393 0.370636 -0.019449
v 7.435282 0.370842 -0.017624
v 7.433397 0.368215 -0.021743
v 7.425159 0.365829 -0.025251
v 7.429804 0.365947 -0.024719
v 7.436634 0.368509 -0.019614
v 7.439231 0.368908 -0.016814
v 7.434064 0.366221 -0.023230
v 7.430141 0.363807 -0.026252
v 7.437542 0.366569 -0.020896
v 7.440340 0.367039 -0.017857
v 7.434716 0.364099 -0.024665
v 7.430478 0.361206 -0.027787
v 7.438457 0.364462 -0.022145
v 7.441479 0.364951 -0.018874
v 7.435370 0.361496 -0.026105
v 7.430854 0.357595 -0.029585
v 7.436123 0.357866 -0.027817
v 7.439395 0.361832 -0.023418
v 7.442660 0.362287 -0.019908
v 7.440523 0.358146 -0.024961
v 7.436646 0.353957 -0.029133
v 7.441359 0.354246 -0.026159
v 7.444116 0.358519 -0.021160
v 7.446979 0.359071 -0.016557
v 7.441931 0.350068 -0.026923
v 7.446083 0.350388 -0.022713
v 7.445244 0.354596 -0.022123
v 7.448316 0.355048 -0.017155
v 7.450647 0.355571 -0.011561
v 7.449318 0.350710 -0.017480
v 7.446675 0.345765 -0.022847
v 7.450000 0.345897 -0.017465
v 7.451733 0.350941 -0.011592
v 7.453428 0.350998 -0.005403
v 7.452397 0.345841 -0.011234
v 7.450178 0.340607 -0.017037
v 7.452770 0.340598 -0.010930
v 7.454165 0.345670 -0.004609
v 7.455318 0.354877 0.008120
v 7.455863 0.351888 0.008661
v 7.455329 0.346327 0.002611
v 7.452200 0.334794 -0.009561
v 7.454674 0.340202 -0.003416
v 7.452553 0.362294 0.013509
v 7.455172 0.358343 0.015286
v 7.456146 0.355246 0.016269
v 7.456388 0.348761 0.009468
v 7.457091 0.342227 0.012070
v 7.455754 0.339786 0.004280
v 7.453627 0.334659 -0.001512
v 7.451056 0.364321 0.018331
v 7.448746 0.367096 0.016544
v 7.452938 0.361104 0.020051
v 7.457028 0.351691 0.017709
v 7.454385 0.357418 0.021280
v 7.457875 0.345084 0.019716
v 7.453786 0.337059 0.015860
v 7.459484 0.329098 0.006869
v 7.446203 0.368835 0.020656
v 7.448315 0.366068 0.022551
v 7.450044 0.362803 0.024285
v 7.456228 0.350227 0.023594
v 7.455389 0.353807 0.022499
v 7.451386 0.359380 0.026131
v 7.453803 0.342023 0.023444
v 7.455843 0.346115 0.024001
v 7.449726 0.341408 0.026819
v 7.458872 0.326256 0.006690
v 7.446255 0.365133 0.027877
v 7.445482 0.366587 0.027163
v 7.452547 0.355054 0.027907
v 7.447424 0.361848 0.029626
v 7.449258 0.342400 0.028688
v 7.454900 0.320572 0.008295
v 7.442334 0.367095 0.029750
v 7.442640 0.366058 0.030356
v 7.444626 0.367961 0.026389
v 7.448518 0.358012 0.031959
v 7.449532 0.350841 0.036026
v 7.442476 0.363714 0.032519
v 7.453753 0.318440 0.008652
v 7.442313 0.361370 0.034682
v 7.442899 0.360008 0.035216
v 7.448339 0.352594 0.036449
v 7.453130 0.316208 0.007946
v 7.451257 0.309510 0.006430
v 7.450723 0.307573 0.006108
v 7.451471 0.305245 0.006430
v 7.454215 0.299452 0.009210
v 7.454823 0.297115 0.009680
v 7.454743 0.294598 0.006649
v 7.453069 0.289364 -0.004427
v 7.420657 0.358323 0.011409
v 7.428304 0.356370 0.035323
v 7.416398 0.356339 0.005369
v 7.422865 0.359176 0.011679
v 7.427531 0.355168 0.035764
v 7.429520 0.356998 0.035067
v 7.425212 0.349087 0.038130
v 7.436467 0.358752 0.034970
v 7.435421 0.358027 0.035145
v 7.424120 0.347996 0.038317
v 7.436864 0.360084 0.034393
v 7.422880 0.347438 0.038141
v 7.437135 0.364622 0.032572
v 7.416348 0.347540 0.035574
v 7.437201 0.367253 0.031463
v 7.414953 0.347319 0.034901
v 7.437254 0.369388 0.030562
v 7.413900 0.346403 0.034800
v 7.437307 0.371523 0.029662
v 7.410526 0.341622 0.034809
v 7.439935 0.369372 0.029825
v 7.433921 0.356339 0.005369
v 7.442334 0.367095 0.029750
v 7.409559 0.340770 0.034490
v 7.442640 0.366058 0.030356
v 7.408378 0.340425 0.033400
v 7.442476 0.363714 0.032519
v 7.405273 0.340326 0.030058
v 7.442313 0.361370 0.034682
v 7.401058 0.340307 0.025516
v 7.442899 0.360008 0.035216
v 7.398797 0.338691 0.020684
v 7.448339 0.352594 0.036449
v 7.396533 0.337059 0.015860
v 7.409777 0.328786 -0.008894
v 7.449532 0.350841 0.036026
v 7.390835 0.329098 0.006869
v 7.391447 0.326256 0.006690
v 7.396565 0.318440 0.008652
v 7.412327 0.317037 -0.010986
v 7.395419 0.320572 0.008295
v 7.453786 0.337059 0.015860
v 7.449726 0.341408 0.026819
v 7.449258 0.342400 0.028688
v 7.440542 0.328786 -0.008894
v 7.397189 0.316208 0.007946
v 7.459484 0.329098 0.006869
v 7.437992 0.317037 -0.010986
v 7.453753 0.318440 0.008652
v 7.454900 0.320572 0.008295
v 7.458872 0.326256 0.006690
v 7.399062 0.309510 0.006430
v 7.453130 0.316208 0.007946
v 7.399596 0.307573 0.006108
v 7.451257 0.309510 0.006430
v 7.404788 0.295666 0.008231
v 7.398848 0.305245 0.006430
v 7.411307 0.294740 -0.007372
v 7.425159 0.294036 -0.017419
v 7.425159 0.316698 -0.013937
v 7.450723 0.307573 0.006108
v 7.396104 0.299452 0.009210
v 7.397822 0.288517 -0.007372
v 7.395495 0.297115 0.009680
v 7.395576 0.294598 0.006649
v 7.397250 0.289364 -0.004427
v 7.445531 0.295666 0.008231
v 7.451471 0.305245 0.006430
v 7.399036 0.289080 -0.009500
v 7.439012 0.294740 -0.007372
v 7.452497 0.288517 -0.007372
v 7.453069 0.289364 -0.004427
v 7.454215 0.299452 0.009210
v 7.454823 0.297115 0.009680
v 7.454743 0.294598 0.006649
v 7.403996 0.293166 -0.017068
v 7.451283 0.289080 -0.009500
v 7.405760 0.294495 -0.019838
v 7.415461 0.286586 -0.023610
v 7.407916 0.292737 -0.020676
v 7.413696 0.287492 -0.023002
v 7.446322 0.293166 -0.017068
v 7.417131 0.287005 -0.024270
v 7.434858 0.286586 -0.023610
v 7.444558 0.294495 -0.019838
v 7.436623 0.287492 -0.023002
v 7.442403 0.292737 -0.020676
v 7.423004 0.290537 -0.026483
v 7.433187 0.287005 -0.024270
v 7.425159 0.291666 -0.027304
v 7.427315 0.290537 -0.026483
vn -0.6302 0.5167 0.5796
vn -0.5335 0.2817 0.7975
vn -0.3694 0.3936 0.8418
vn -0.4547 0.6526 0.6061
vn 0.0488 0.9987 0.0159
vn 0.0770 0.9970 0.0053
vn 0.0001 0.9943 -0.1065
vn 0.0191 0.9996 0.0189
vn -0.0087 0.9997 0.0221
vn -0.0131 0.9959 0.0890
vn 0.0289 0.9957 0.0880
vn -0.9327 0.1613 -0.3225
vn -0.9635 0.1445 -0.2252
vn -0.9355 0.2520 -0.2477
vn -0.9018 0.2678 -0.3391
vn 0.0694 0.9941 0.0838
vn 0.3143 0.6120 -0.7257
vn 0.3369 0.5553 -0.7604
vn 0.1613 0.5527 -0.8176
vn 0.1518 0.6081 -0.7792
vn 0.1347 0.9693 0.2058
vn 0.1407 0.9611 0.2376
vn 0.2356 0.9493 0.2079
vn 0.2231 0.9578 0.1813
vn -0.0436 0.9989 0.0171
vn 0.2982 0.9481 -0.1102
vn 0.4103 0.9048 -0.1139
vn 0.4096 0.8990 -0.1549
vn 0.3001 0.9431 -0.1429
vn 0.8747 0.4631 -0.1428
vn 0.8812 0.3976 -0.2557
vn 0.8166 0.5255 -0.2386
vn 0.8000 0.5891 -0.1141
vn 0.7631 0.6460 -0.0180
vn 0.7206 0.6932 -0.0113
vn 0.6970 0.7169 0.0133
vn 0.7253 0.6883 -0.0137
vn 0.3789 0.3981 -0.8355
vn 0.3944 0.2734 -0.8773
vn 0.1876 0.2611 -0.9469
vn 0.1815 0.3898 -0.9028
vn -0.0875 0.9961 0.0066
vn -0.1922 0.9733 -0.1253
vn -0.1869 0.9718 -0.1440
vn -0.2862 0.9424 -0.1730
vn -0.3004 0.9430 -0.1430
vn 0.5963 0.8008 0.0559
vn 0.5580 0.8268 0.0710
vn 0.4602 0.8792 0.1235
vn 0.5037 0.8566 0.1119
vn -0.8169 0.5255 -0.2377
vn -0.8810 0.3983 -0.2554
vn -0.8747 0.4629 -0.1436
vn -0.8001 0.5885 -0.1162
vn 0.1238 0.9758 0.1801
vn 0.2007 0.9651 0.1682
vn 0.1751 0.9701 0.1678
vn 0.1157 0.9776 0.1757
vn -0.3947 0.9160 -0.0717
vn -0.3647 0.9308 -0.0229
vn -0.2714 0.9615 -0.0442
vn -0.2915 0.9537 -0.0747
vn -0.9673 -0.2525 -0.0231
vn -0.9540 -0.2230 0.2003
vn -0.9731 0.2259 0.0442
vn -0.9835 0.1079 -0.1455
vn -0.0342 0.9804 0.1939
vn 0.0606 0.9798 0.1907
vn 0.0583 0.9815 0.1826
vn -0.0287 0.9826 0.1836
vn -0.4048 0.9053 0.1286
vn -0.4504 0.8853 0.1161
vn -0.3514 0.9216 0.1651
vn -0.3119 0.9363 0.1612
vn -0.2626 0.9406 -0.2154
vn -0.2245 0.9402 -0.2563
vn -0.3064 0.8944 -0.3258
vn -0.3569 0.8951 -0.2671
vn 0.5417 0.8335 0.1089
vn 0.6375 0.7694 0.0407
vn -0.3249 0.9452 0.0320
vn -0.2469 0.9690 -0.0066
vn -0.2658 0.9525 0.1490
vn -0.3383 0.9337 0.1174
vn -0.1232 0.9923 -0.0094
vn -0.1475 0.9887 -0.0277
vn -0.2117 0.9768 0.0311
vn -0.1740 0.9829 0.0610
vn -0.1516 0.6072 -0.7800
vn -0.1612 0.5524 -0.8178
vn -0.3371 0.5544 -0.7609
vn -0.3144 0.6115 -0.7261
vn -0.0223 0.9883 0.1509
vn 0.0453 0.9874 0.1516
vn 0.0004 0.7508 -0.6606
vn 0.0007 0.6658 -0.7461
vn -0.1404 0.6690 -0.7299
vn -0.1209 0.7528 -0.6470
vn -0.0732 0.9935 0.0877
vn -0.1050 0.9833 0.1487
vn 0.1051 0.9944 -0.0043
vn 0.3520 0.9122 0.2100
vn 0.3233 0.9294 0.1778
vn 0.2447 0.9395 0.2398
vn 0.6224 0.7823 0.0240
vn 0.5672 0.8233 0.0227
vn 0.4993 0.8628 0.0793
vn -0.6056 0.7889 -0.1047
vn -0.6595 0.7457 -0.0945
vn -0.6516 0.7582 -0.0246
vn -0.5993 0.7995 -0.0401
vn -0.7050 0.6826 -0.1924
vn -0.6909 0.6537 -0.3087
vn -0.7469 0.5760 -0.3322
vn -0.7559 0.6192 -0.2127
vn 0.2689 0.9623 -0.0398
vn 0.1794 0.9818 -0.0630
vn 0.1672 0.9849 -0.0440
vn 0.2467 0.9691 -0.0068
vn 0.3075 0.8296 -0.4660
vn 0.2024 0.8293 -0.5209
vn 0.1577 0.8915 -0.4248
vn 0.2390 0.8937 -0.3797
vn 0.4734 0.8809 0.0035
vn 0.4157 0.9071 0.0654
vn 0.1318 0.9911 -0.0173
vn -0.7623 0.6462 -0.0356
vn -0.8331 0.5499 -0.0597
vn -0.7789 0.6271 -0.0087
vn -0.7199 0.6941 -0.0089
vn -0.5673 0.8232 0.0235
vn -0.6200 0.7843 0.0228
vn -0.5519 0.8316 0.0623
vn -0.4995 0.8627 0.0796
vn 0.6516 0.7584 0.0162
vn -0.6698 0.7417 0.0352
vn -0.5951 0.7930 0.1308
vn -0.5411 0.8338 0.1098
vn -0.6300 0.7759 0.0336
vn -0.7604 0.3721 0.5322
vn -0.6652 0.1394 0.7335
vn 0.1106 0.9911 0.0743
vn 0.0971 0.9841 0.1487
vn 0.1468 0.9790 0.1416
vn 0.1553 0.9873 -0.0328
vn 0.2626 0.9405 -0.2154
vn 0.2862 0.9425 -0.1725
vn 0.3926 0.8967 -0.2044
vn 0.3569 0.8951 -0.2671
vn 0.0577 0.9582 0.2803
vn 0.1451 0.9539 0.2627
vn 0.0633 0.9654 0.2530
vn 0.0981 0.8271 -0.5534
vn 0.1211 0.7522 -0.6477
vn -0.0000 0.8261 -0.5636
vn -0.9724 0.1538 -0.1752
vn -0.9832 0.0725 -0.1673
vn -0.9611 0.2432 -0.1311
vn 0.7646 0.6433 -0.0407
vn 0.7099 0.7035 0.0334
vn 0.7805 0.6138 0.1185
vn 0.8392 0.5425 -0.0376
vn 0.7469 0.5760 -0.3322
vn 0.8031 0.4814 -0.3512
vn 0.7516 0.4695 -0.4634
vn 0.6989 0.5529 -0.4536
vn 0.8554 0.3788 -0.3533
vn 0.9018 0.2678 -0.3391
vn 0.8421 0.2836 -0.4588
vn 0.7981 0.3868 -0.4619
vn -0.0000 0.8873 -0.4612
vn 0.0748 0.8888 -0.4522
vn -0.1644 0.9622 0.2173
vn -0.1808 0.9481 0.2616
vn -0.0486 0.9639 0.2617
vn -0.0410 0.9742 0.2220
vn 0.0622 0.9737 0.2194
vn 0.6639 0.7477 0.0139
vn -0.0758 0.9685 -0.2374
vn -0.0351 0.9676 -0.2500
vn -0.0549 0.9343 -0.3523
vn -0.1161 0.9373 -0.3285
vn -0.4936 -0.4065 0.7689
vn -0.6198 -0.2676 0.7378
vn -0.6374 -0.4485 0.6266
vn -0.5942 -0.5426 0.5937
vn -0.2950 0.7440 0.5996
vn -0.1735 0.7906 0.5872
vn -0.1971 0.9094 0.3662
vn -0.3169 0.8791 0.3561
vn -0.7939 0.5371 0.2851
vn -0.6660 0.6744 0.3189
vn -0.1775 0.9382 -0.2972
vn -0.1577 0.8915 -0.4248
vn -0.2390 0.8937 -0.3797
vn -0.4812 0.8059 0.3451
vn -0.3223 0.9012 0.2898
vn -0.4931 0.8310 0.2574
vn 0.1450 0.9875 0.0613
vn 0.1843 0.9820 0.0424
vn 0.7398 0.6656 -0.0987
vn 0.6976 0.7104 -0.0930
vn 0.6794 0.7335 -0.0197
vn -0.2740 0.9581 0.0838
vn -0.2230 0.9675 0.1192
vn 0.2467 0.7550 -0.6075
vn 0.2879 0.6731 -0.6813
vn 0.1407 0.6688 -0.7300
vn 0.9495 -0.0671 -0.3064
vn 0.9280 -0.2522 -0.2744
vn 0.9041 -0.1857 -0.3849
vn 0.8955 -0.0629 -0.4407
vn -0.4918 0.8643 0.1059
vn -0.3852 0.9058 0.1767
vn -0.4104 0.9047 -0.1142
vn -0.5250 0.8436 -0.1129
vn -0.5101 0.8580 -0.0605
vn 0.2485 0.9165 0.3133
vn 0.3809 0.8848 0.2684
vn -0.4144 0.9077 0.0659
vn -0.6977 0.7103 -0.0930
vn -0.6783 0.7345 -0.0226
vn 0.4438 0.8797 0.1705
vn 0.4827 0.8502 0.2102
vn 0.5718 0.8118 0.1188
vn -0.0981 0.8271 -0.5534
vn -0.2024 0.8293 -0.5209
vn -0.0748 0.8888 -0.4522
vn 0.5355 0.4854 -0.6911
vn 0.5653 0.4021 -0.7203
vn 0.3593 0.4874 -0.7958
vn -0.1459 0.9707 0.1911
vn -0.8911 0.0630 -0.4494
vn -0.9471 0.0696 -0.3133
vn -0.8742 0.1728 -0.4537
vn -0.1800 0.9814 -0.0662
vn -0.1889 0.9783 -0.0855
vn 0.1875 0.9738 0.1286
vn -0.1720 0.4843 -0.8579
vn -0.0000 0.4823 -0.8760
vn -0.0000 0.3854 -0.9228
vn -0.1815 0.3898 -0.9028
vn 0.2960 0.9415 0.1610
vn 0.2650 0.9506 0.1617
vn 0.6515 0.7582 -0.0239
vn 0.5993 0.7995 -0.0401
vn 0.4056 0.9046 0.1309
vn 0.3453 0.9310 0.1180
vn 0.5524 0.7733 0.3113
vn 0.6318 0.7544 0.1779
vn -0.1865 0.0071 -0.9824
vn -0.1816 -0.0751 -0.9805
vn -0.3919 -0.0711 -0.9173
vn -0.3998 0.0152 -0.9165
vn -0.7392 0.6660 -0.1001
vn 0.2817 0.9479 0.1488
vn 0.2825 0.9566 0.0716
vn 0.2349 0.9662 0.1064
vn 0.9723 0.1535 -0.1761
vn 0.9635 0.1445 -0.2252
vn 0.9355 0.2520 -0.2477
vn 0.9431 0.2867 -0.1684
vn 0.6056 0.7889 -0.1047
vn 0.5250 0.8436 -0.1128
vn 0.5101 0.8580 -0.0606
vn 0.6586 0.7465 -0.0946
vn 0.4626 0.8268 -0.3200
vn 0.3964 0.8279 -0.3968
vn 0.3064 0.8944 -0.3258
vn -0.8513 0.5245 0.0149
vn -0.7955 0.5872 0.1498
vn -0.7290 0.6812 0.0673
vn -0.4096 0.8990 -0.1549
vn -0.5244 0.8351 -0.1663
vn -0.6807 0.7326 0.0027
vn -0.7131 0.7007 -0.0242
vn 0.7042 0.3979 -0.5880
vn 0.7427 0.2891 -0.6040
vn 0.5918 0.2841 -0.7544
vn -0.1651 0.9852 -0.0470
vn -0.1160 0.9692 -0.2170
vn 0.5026 0.5524 -0.6650
vn 0.2245 0.9402 -0.2563
vn 0.1781 0.9381 -0.2971
vn 0.1182 0.9692 -0.2161
vn 0.1481 0.9700 -0.1929
vn 0.2262 0.9607 0.1606
vn 0.2199 0.9754 0.0157
vn 0.5244 0.8351 -0.1663
vn 0.5993 0.7812 -0.1751
vn 0.3663 0.9182 0.1507
vn 0.4055 0.9015 0.1510
vn 0.7554 0.6195 -0.2135
vn 0.6535 0.7348 -0.1817
vn -0.4733 0.8809 0.0036
vn -0.0570 0.8162 0.5750
vn -0.0761 0.9251 0.3719
vn -0.2865 0.9295 0.2322
vn -0.2584 0.9453 0.1990
vn 0.3714 0.7552 -0.5401
vn 0.3245 0.9454 0.0292
vn -0.3075 0.8296 -0.4660
vn -0.3964 0.8279 -0.3968
vn -0.1955 0.9298 0.3117
vn -0.0659 0.9510 0.3021
vn 0.0003 0.6049 -0.7963
vn -0.0000 0.5507 -0.8347
vn -0.5032 0.5515 -0.6653
vn -0.4692 0.6111 -0.6375
vn -0.4310 0.8796 0.2015
vn -0.1296 0.9886 0.0766
vn -0.1704 0.9757 0.1380
vn -0.6699 0.7151 0.1998
vn -0.9217 0.3673 -0.1249
vn -0.8485 0.4389 0.2956
vn -0.9346 0.0142 0.3554
vn -0.9928 0.1189 0.0167
vn -0.6540 0.7345 -0.1814
vn 0.7148 0.6410 0.2795
vn 0.7917 0.4508 0.4123
vn 0.8452 0.2304 0.4823
vn 0.9020 0.3240 0.2851
vn 0.8829 0.3844 0.2695
vn 0.3239 0.9330 0.1565
vn -0.0000 0.9342 -0.3568
vn -0.5328 0.6791 -0.5049
vn -0.5778 0.6131 -0.5388
vn -0.6475 0.6281 -0.4316
vn -0.5960 0.6969 -0.3989
vn 0.6060 0.1544 -0.7803
vn 0.4012 0.1383 -0.9055
vn -0.5881 -0.5521 0.5911
vn -0.5587 -0.4833 0.6740
vn -0.3593 0.4874 -0.7958
vn 0.9755 0.0738 -0.2074
vn 0.9781 -0.0844 -0.1901
vn 0.9471 0.0696 -0.3133
vn 0.9185 0.3954 0.0077
vn 0.9624 0.2700 0.0301
vn 0.9761 0.1552 -0.1522
vn 0.9578 0.2513 -0.1392
vn 0.8375 0.5029 0.2136
vn 0.0824 0.8275 0.5554
vn 0.0565 0.9315 0.3594
vn -0.6723 -0.6051 0.4264
vn -0.5024 -0.7075 0.4970
vn -0.5817 -0.5834 0.5668
vn -0.6720 -0.4679 0.5740
vn 0.4304 0.7602 0.4867
vn 0.5559 0.7043 0.4416
vn 0.1926 0.9732 -0.1253
vn 0.1919 0.9755 -0.1074
vn 0.3950 0.9159 -0.0721
vn 0.3628 0.9316 -0.0218
vn 0.9833 0.0702 -0.1682
vn -0.9178 0.3959 0.0299
vn -0.8746 0.4234 0.2362
vn 0.5248 0.3584 0.7721
vn 0.3930 0.3692 0.8422
vn 0.4211 0.1695 0.8910
vn 0.5731 0.2522 0.7798
vn 0.7621 0.5350 0.3648
vn -0.3930 -0.1349 -0.9096
vn -0.4619 -0.0576 -0.8850
vn -0.7795 -0.1457 -0.6092
vn -0.7626 0.1434 -0.6307
vn 0.6090 0.6802 0.4080
vn -0.5906 0.8059 0.0418
vn 0.1889 0.9783 -0.0856
vn -0.3548 -0.0421 0.9340
vn -0.2362 0.0433 0.9707
vn -0.3925 0.8967 -0.2044
vn 0.6672 0.2700 0.6942
vn 0.5517 0.2070 0.8079
vn -0.6470 0.7624 0.0112
vn -0.1922 0.9757 -0.1054
vn -0.2984 0.9481 -0.1099
vn 0.4101 0.1064 0.9058
vn 0.2917 0.9536 -0.0751
vn -0.1995 0.9655 0.1674
vn -0.1287 0.9751 0.1805
vn -0.5385 -0.1096 0.8355
vn -0.5056 0.8292 -0.2385
vn -0.5782 0.7724 -0.2628
vn -0.5993 0.7812 -0.1751
vn 0.1721 -0.1259 -0.9770
vn 0.3960 0.1334 -0.9085
vn -0.0000 -0.0231 -0.9997
vn -0.0000 -0.1379 -0.9904
vn -0.3714 0.7552 -0.5401
vn -0.4296 0.6747 -0.6002
vn -0.4695 0.7567 -0.4550
vn -0.7305 -0.0336 0.6820
vn -0.7221 -0.2509 0.6447
vn 0.1874 0.9719 -0.1421
vn 0.2748 -0.0969 0.9566
vn 0.3207 -0.1098 0.9408
vn 0.2644 -0.4475 0.8543
vn -0.7516 0.4695 -0.4634
vn -0.6989 0.5529 -0.4536
vn -0.6199 0.5480 -0.5616
vn -0.6633 0.4772 -0.5765
vn -0.4626 0.8268 -0.3200
vn -0.5358 0.7636 -0.3603
vn 0.1734 0.9708 -0.1658
vn 0.6799 0.4730 0.5604
vn 0.7214 0.4302 0.5427
vn 0.8410 0.1274 0.5258
vn -0.0085 0.5955 0.8033
vn -0.1373 0.5419 0.8291
vn 0.3747 -0.0812 0.9236
vn 0.0623 -0.1115 0.9918
vn 0.0831 -0.1307 0.9879
vn 0.3085 -0.0435 0.9502
vn 0.9897 0.0410 -0.1368
vn -0.9102 0.4026 -0.0967
vn -0.9431 0.2867 -0.1684
vn -0.0000 0.3172 -0.9484
vn -0.0000 -0.0438 -0.9990
vn -0.3960 0.1334 -0.9085
vn -0.2870 0.2289 -0.9302
vn -0.7949 0.2319 -0.5607
vn -0.7982 0.0989 -0.5942
vn -0.0000 -0.4260 -0.9047
vn -0.4411 0.0216 -0.8972
vn -0.1481 0.9700 -0.1929
vn 0.5331 0.6791 -0.5046
vn 0.5962 0.6968 -0.3988
vn 0.6468 0.6289 -0.4314
vn 0.5773 0.6135 -0.5388
vn 0.6567 -0.1360 0.7418
vn 0.0755 0.9685 -0.2372
vn 0.0706 -0.3902 0.9180
vn 0.0497 -0.5290 0.8472
vn -0.2522 -0.6599 0.7078
vn -0.1530 -0.3970 0.9050
vn 0.9327 0.1613 -0.3225
vn 0.9619 -0.1958 0.1909
vn 0.6715 -0.5718 0.4713
vn 0.9043 -0.3534 0.2396
vn 0.9668 -0.2551 -0.0156
vn -0.2278 0.9570 0.1799
vn 0.7858 -0.0605 -0.6155
vn 0.7939 -0.0735 -0.6036
vn 0.0330 0.9675 -0.2507
vn 0.5667 0.5376 0.6244
vn 0.5643 0.5245 0.6376
vn 0.6612 0.5156 0.5449
vn -0.6350 0.7182 -0.2846
vn 0.9815 0.1836 0.0536
vn 0.1564 0.6237 0.7659
vn 0.1411 0.2646 0.9540
vn 0.2783 0.3178 0.9064
vn 0.6381 0.6067 0.4741
vn 0.6550 0.5556 0.5121
vn -0.0882 0.1469 0.9852
vn 0.0397 0.2020 0.9786
vn 0.8742 0.1728 -0.4537
vn 0.7676 0.1707 -0.6178
vn 0.1916 0.8217 0.5368
vn 0.1510 0.9285 0.3392
vn 0.3933 -0.1606 0.9053
vn 0.5107 -0.3482 0.7861
vn -0.0852 -0.3154 0.9451
vn -0.9780 -0.2051 -0.0375
vn -0.8639 -0.3392 0.3724
vn -0.8644 -0.3235 0.3850
vn -0.9627 -0.2413 -0.1226
vn -0.6823 0.0665 0.7281
vn -0.7793 0.0618 0.6236
vn -0.7067 0.2291 0.6694
vn -0.7430 -0.1702 0.6473
vn -0.9002 -0.3664 0.2354
vn 0.7049 0.6825 -0.1929
vn -0.0000 0.9671 -0.2543
vn -0.1734 0.9708 -0.1658
vn -0.0133 -0.3031 0.9529
vn 0.3827 -0.2932 0.8761
vn -0.1108 -0.2582 0.9597
vn -0.2879 0.6739 -0.6804
vn -0.8031 0.4814 -0.3512
vn -0.3599 -0.2578 0.8967
vn -0.8554 0.3788 -0.3533
vn -0.7981 0.3868 -0.4619
vn 0.5678 0.5492 0.6131
vn 0.8911 0.0630 -0.4494
vn 0.3084 -0.9512 0.0119
vn 0.3080 -0.9309 -0.1961
vn 0.5924 -0.7640 -0.2557
vn 0.6150 -0.7455 -0.2570
vn 0.6346 0.7182 -0.2853
vn 0.5366 0.7628 -0.3607
vn 0.5784 0.7721 -0.2633
vn 0.9841 0.0941 -0.1506
vn 0.9057 0.4102 -0.1066
vn 0.8255 0.5617 -0.0544
vn -0.0000 -0.6560 0.7547
vn -0.0000 -0.0081 1.0000
vn 0.6823 0.0665 0.7281
vn 0.5597 -0.6027 0.5687
vn -0.9337 0.2464 -0.2598
vn -0.8641 0.4009 0.3044
vn -0.8767 0.1113 0.4679
vn -0.8288 0.2408 0.5050
vn 0.9330 -0.0787 -0.3513
vn -0.9116 -0.0540 0.4074
vn 0.6196 0.5484 -0.5616
vn -0.2470 0.7553 -0.6071
vn -0.2409 0.4725 0.8478
vn -0.9897 0.0410 -0.1368
vn -0.9318 0.1623 -0.3246
vn 0.4688 0.6111 -0.6378
vn 0.4300 0.6738 -0.6010
vn 0.6633 0.4772 -0.5765
vn -0.9036 0.3718 -0.2127
vn -0.9454 0.0261 -0.3248
vn -0.9330 -0.0787 -0.3513
vn -0.7891 -0.3051 -0.5332
vn -0.9667 -0.2534 0.0346
vn -0.9280 -0.2522 -0.2744
vn -0.9781 -0.0844 -0.1901
vn 0.5597 0.6350 0.5325
vn 0.8639 -0.3392 0.3724
vn 0.9346 0.0142 0.3554
vn 0.9928 0.1189 0.0167
vn 0.9780 -0.2051 -0.0375
vn 0.6904 0.6542 -0.3089
vn -0.9908 0.0252 -0.1330
vn -0.8561 -0.3421 0.3874
vn 0.8561 -0.3421 0.3874
vn 0.8644 -0.3235 0.3850
vn 0.9627 -0.2413 -0.1226
vn 0.9908 0.0252 -0.1330
vn 0.9454 0.0261 -0.3248
vn 0.9036 0.3718 -0.2127
vn 0.7949 0.2319 -0.5607
vn 0.7982 0.0989 -0.5942
vn -0.9041 -0.1857 -0.3849
vn 0.8160 0.0320 -0.5771
vn -0.1721 -0.1259 -0.9770
vn -0.3861 -0.0986 -0.9172
vn 0.5055 0.8292 -0.2385
vn 0.8020 0.0467 -0.5954
vn 0.8485 0.4389 0.2956
vn 0.9217 0.3673 -0.1249
vn -0.8020 0.0467 -0.5954
vn 0.7805 0.0516 -0.6230
vn -0.7939 -0.0735 -0.6036
vn 0.8641 0.4009 0.3044
vn 0.9337 0.2464 -0.2598
vn 0.7795 -0.1457 -0.6092
vn 0.7626 0.1434 -0.6307
vn -0.5895 -0.1166 -0.7993
vn -0.0000 0.1227 -0.9924
vn 0.1888 0.1273 -0.9737
vn 0.1865 0.0071 -0.9824
vn -0.0000 0.0047 -1.0000
vn -0.0000 0.2549 -0.9670
vn 0.3998 0.0152 -0.9165
vn 0.2870 0.2289 -0.9302
vn -0.6030 -0.0633 -0.7952
vn -0.7036 -0.4000 -0.5873
vn 0.3919 -0.0711 -0.9173
vn 0.6030 -0.0633 -0.7952
vn 0.5895 -0.1166 -0.7993
vn 0.3861 -0.0986 -0.9172
vn 0.3295 0.0798 -0.9408
vn -0.8421 0.2836 -0.4588
vn -0.9375 0.0633 0.3422
vn -0.9701 -0.1579 -0.1844
vn -0.8147 -0.4889 0.3117
vn -0.8177 -0.5029 -0.2802
vn 0.9701 -0.1579 -0.1844
vn 0.7431 -0.4706 -0.4757
vn 0.7251 -0.3843 -0.5715
vn -0.7251 -0.3843 -0.5715
vn 0.1816 -0.0751 -0.9805
vn -0.6246 -0.7606 0.1771
vn -0.6009 -0.7547 -0.2632
vn -0.2908 -0.2820 -0.9143
vn 0.9375 0.0633 0.3422
vn -0.5606 -0.5320 -0.6346
vn -0.7431 -0.4706 -0.4757
vn -0.0000 -0.1172 -0.9931
vn -0.3295 0.0798 -0.9408
vn 0.4619 -0.0576 -0.8850
vn 0.3930 -0.1349 -0.9096
vn -0.0000 -0.0760 -0.9971
vn -0.5305 -0.6065 -0.5922
vn 0.2908 -0.2820 -0.9143
vn -0.0000 0.1447 -0.9895
vn 0.8965 0.1351 0.4219
vn 0.8531 -0.1914 0.4854
vn -0.0000 0.3938 -0.9192
vn -0.3619 0.3810 -0.8508
vn -0.1876 0.2611 -0.9469
vn 0.4411 0.0216 -0.8972
vn -0.4289 -0.2526 -0.8673
vn 0.6084 0.0325 -0.7930
vn 0.7538 -0.6238 -0.2063
vn 0.3003 -0.7816 -0.5468
vn 0.4289 -0.2526 -0.8673
vn 0.7036 -0.4000 -0.5873
vn -0.1888 0.1273 -0.9737
vn -0.0000 -0.5450 -0.8384
vn -0.7538 -0.6238 -0.2063
vn -0.3003 -0.7816 -0.5468
vn -0.6009 -0.7666 -0.2263
vn -0.2436 -0.8717 -0.4251
vn -0.0000 -0.6603 -0.7510
vn -0.8160 0.0320 -0.5771
vn 0.1162 0.9372 -0.3287
vn 0.3619 0.3810 -0.8508
vn 0.1183 -0.8116 -0.5722
vn 0.2577 -0.6806 -0.6858
vn 0.2881 0.6122 0.7364
vn 0.4162 0.5340 0.7360
vn -0.2577 -0.6806 -0.6858
vn -0.1183 -0.8116 -0.5722
vn 0.2436 -0.8717 -0.4251
vn 0.1720 0.4843 -0.8579
vn 0.4703 0.7563 -0.4548
vn 0.6009 -0.7666 -0.2263
vn -0.4012 0.1383 -0.9055
vn -0.3944 0.2734 -0.8773
vn -0.6084 0.0325 -0.7930
vn -0.6060 0.1544 -0.7803
vn -0.7858 -0.0605 -0.6155
vn -0.7805 0.0516 -0.6230
vn 0.0544 0.9342 -0.3526
vn -0.8955 -0.0629 -0.4407
vn -0.5597 -0.6027 0.5687
vn -0.5328 -0.3846 0.7538
vn -0.6958 0.1650 0.6990
vn -0.6774 -0.2913 0.6755
vn -0.6860 -0.6487 0.3295
vn -0.5490 -0.7213 0.4223
vn -0.5355 0.4854 -0.6911
vn -0.3789 0.3981 -0.8355
vn 0.8177 -0.5029 -0.2802
vn 0.5606 -0.5320 -0.6346
vn 0.5305 -0.6065 -0.5922
vn 0.6009 -0.7547 -0.2632
vn 0.2999 0.7850 0.5420
vn -0.5653 0.4021 -0.7203
vn -0.5918 0.2841 -0.7544
vn -0.7042 0.3979 -0.5880
vn -0.7427 0.2891 -0.6040
vn -0.7676 0.1707 -0.6178
vn -0.9495 -0.0671 -0.3064
vn -0.9755 0.0738 -0.2074
vn 0.6241 0.3319 0.7073
vn 0.9318 0.1623 -0.3246
vn 0.7573 -0.3575 0.5465
vn 0.5138 -0.7023 0.4927
vn 0.7891 -0.3051 -0.5332
vn 0.9667 -0.2534 0.0346
vn 0.5127 0.4485 0.7321
vn 0.5600 0.5054 0.6564
vn 0.8147 -0.4889 0.3117
vn 0.6246 -0.7606 0.1771
vn 0.6697 -0.7422 0.0235
vn 0.8004 -0.5114 -0.3129
vn 0.7286 -0.6008 -0.3290
vn 0.5396 -0.7023 -0.4644
vn 0.0696 -0.3277 -0.9422
vn 0.5415 -0.7760 -0.3234
vn 0.8023 -0.3546 -0.4803
vn 0.3089 -0.9006 -0.3057
vn 0.8294 -0.2427 -0.5032
vn 0.1643 -0.9471 -0.2756
vn 0.8302 -0.2341 -0.5060
vn 0.4669 -0.8519 -0.2374
vn 0.7498 -0.6436 -0.1536
vn 0.2546 -0.8804 0.4001
vn 0.7359 -0.6529 -0.1796
vn -0.4635 -0.5117 0.7235
vn -0.7262 -0.3931 0.5640
vn 0.6072 -0.7511 -0.2590
vn -0.9508 0.1316 0.2806
vn 0.4782 -0.8154 -0.3261
vn -0.9369 0.2700 0.2219
vn 0.4066 -0.8392 -0.3611
vn -0.9545 -0.0803 0.2871
vn 0.5318 -0.8118 -0.2411
vn -0.8495 -0.4283 0.3082
vn 0.6755 -0.7341 -0.0696
vn -0.7728 -0.5642 0.2905
vn 0.6837 -0.6667 0.2968
vn -0.8183 -0.4688 0.3326
vn 0.7430 -0.1702 0.6473
vn 0.6774 -0.2913 0.6755
vn 0.5929 0.3020 0.7465
vn 0.5454 0.4818 0.6858
vn 0.7067 0.2291 0.6694
vn -0.7456 -0.6603 0.0898
vn -0.8463 -0.4473 0.2893
vn 0.7793 0.0618 0.6236
vn -0.5454 0.4818 0.6858
vn -0.5929 0.3020 0.7465
vn 0.7727 0.0916 0.6281
vn 0.6958 0.1650 0.6990
vn -0.7727 0.0916 0.6281
vn 0.0374 0.2070 0.9776
vn 0.5328 -0.3846 0.7538
vn 0.2114 0.2397 0.9476
vn 0.3801 -0.9112 0.1589
vn 0.0938 -0.3362 0.9371
vn 0.0073 -0.8478 0.5302
vn 0.2019 -0.9194 0.3375
vn -0.0374 0.2070 0.9776
vn 0.4274 -0.9017 -0.0660
vn -0.3801 -0.9112 0.1589
vn -0.2019 -0.9194 0.3375
vn -0.2114 0.2397 0.9476
vn -0.0938 -0.3362 0.9371
vn -0.0073 -0.8478 0.5302
vn 0.4236 -0.8888 -0.1751
vn -0.4274 -0.9017 -0.0660
vn -0.1878 -0.9768 0.1028
vn 0.1438 -0.8827 0.4475
vn -0.5701 -0.7785 0.2625
vn -0.4069 -0.8509 0.3324
vn -0.4236 -0.8888 -0.1751
vn 0.4314 -0.8321 0.3485
vn -0.1438 -0.8827 0.4475
vn 0.1878 -0.9768 0.1028
vn 0.4069 -0.8509 0.3324
vn 0.5701 -0.7785 0.2625
vn 0.5356 -0.8227 0.1903
vn -0.4314 -0.8321 0.3485
vn -0.0000 -0.9724 0.2332
vn -0.5356 -0.8227 0.1903
vt 0.000000 0.000000
s 1
f 245/1/1 246/1/2 237/1/3 238/1/4
f 1/1/5 3/1/6 4/1/7
f 1/1/5 4/1/7 5/1/8
f 5/1/8 7/1/9 8/1/10 6/1/11
f 5/1/8 4/1/7 7/1/9
f 315/1/12 313/1/13 293/1/14 314/1/15
f 6/1/11 2/1/16 1/1/5 5/1/8
f 558/1/17 562/1/18 559/1/19 555/1/20
f 52/1/21 54/1/22 59/1/23 48/1/24
f 7/1/9 4/1/7 11/1/25
f 186/1/26 185/1/27 197/1/28 203/1/29
f 278/1/30 285/1/31 268/1/32 272/1/33
f 176/1/34 169/1/35 144/1/36 175/1/37
f 568/1/38 572/1/39 473/1/40 567/1/41
f 11/1/25 4/1/7 17/1/42
f 488/1/43 505/1/44 483/1/45 481/1/46
f 132/1/47 127/1/48 114/1/49 113/1/50
f 141/1/51 298/1/52 148/1/53 142/1/54
f 32/1/55 41/1/56 33/1/57 24/1/58
f 110/1/59 492/1/60 490/1/61 484/1/62
f 318/1/63 310/1/64 294/1/65 321/1/66
f 22/1/67 23/1/68 15/1/69 14/1/70
f 45/1/71 63/1/72 57/1/73 51/1/74
f 501/1/75 514/1/76 496/1/77 482/1/78
f 113/1/50 138/1/79 139/1/80 132/1/47
f 492/1/60 108/1/81 498/1/82 490/1/61
f 45/1/71 51/1/74 29/1/83 38/1/84
f 121/1/85 507/1/86 115/1/87 27/1/88
f 515/1/89 522/1/90 455/1/91 454/1/92
f 9/1/93 10/1/94 6/1/11 8/1/10
f 541/1/95 547/1/96 516/1/97 536/1/98
f 8/1/10 12/1/99 13/1/100 9/1/93
f 3/1/6 36/1/101 4/1/7
f 100/1/102 101/1/103 59/1/23 94/1/104
f 127/1/48 156/1/105 126/1/106 120/1/107
f 104/1/108 111/1/109 90/1/110 95/1/111
f 135/1/112 450/1/113 333/1/114 140/1/115
f 134/1/116 147/1/117 56/1/118 76/1/119
f 243/1/120 545/1/121 250/1/122 228/1/123
f 126/1/106 128/1/124 82/1/125 120/1/107
f 36/1/101 44/1/126 4/1/7
f 123/1/127 273/1/128 259/1/129 124/1/130
f 69/1/131 77/1/132 70/1/133 62/1/134
f 144/1/36 150/1/135 132/1/47 139/1/80
f 125/1/136 130/1/137 91/1/138 85/1/139
f 301/1/140 308/1/141 246/1/2 245/1/1
f 26/1/142 2/1/16 16/1/143 25/1/144
f 44/1/126 50/1/145 4/1/7
f 211/1/146 205/1/147 202/1/148 210/1/149
f 80/1/150 93/1/151 54/1/22 53/1/152
f 24/1/58 33/1/57 25/1/144 16/1/143
f 544/1/153 546/1/154 541/1/95 540/1/155
f 50/1/145 56/1/118 4/1/7
f 292/1/156 325/1/157 321/1/66 287/1/158
f 182/1/159 603/1/160 602/1/161 595/1/162
f 264/1/163 269/1/164 271/1/165 270/1/166
f 276/1/167 580/1/168 579/1/169 575/1/170
f 538/1/171 539/1/172 544/1/153 540/1/155
f 40/1/173 65/1/174 60/1/175 39/1/176
f 54/1/22 52/1/21 47/1/177 53/1/152
f 145/1/178 603/1/160 182/1/159 175/1/37
f 525/1/179 524/1/180 532/1/181 526/1/182
f 274/1/183 304/1/184 296/1/185 289/1/186
f 154/1/187 155/1/188 92/1/189 149/1/190
f 253/1/191 301/1/140 245/1/1 247/1/192
f 520/1/193 526/1/182 527/1/194 521/1/195
f 143/1/196 149/1/190 87/1/197 136/1/198
f 44/1/126 36/1/101 35/1/199 43/1/200
f 177/1/201 183/1/202 163/1/203 169/1/35
f 27/1/88 115/1/87 37/1/204 28/1/205
f 546/1/154 551/1/206 553/1/207 548/1/208
f 588/1/209 593/1/210 499/1/211 587/1/212
f 71/1/213 79/1/214 57/1/73 63/1/72
f 110/1/59 117/1/215 109/1/216 103/1/217
f 99/1/218 153/1/219 100/1/102 94/1/104
f 46/1/220 62/1/134 45/1/71 38/1/84
f 115/1/87 498/1/82 108/1/81 37/1/204
f 14/1/70 15/1/69 10/1/94 9/1/93
f 112/1/221 89/1/222 90/1/110 111/1/109
f 146/1/223 152/1/224 151/1/225 138/1/79
f 535/1/226 528/1/227 527/1/194 534/1/228
f 569/1/229 571/1/230 568/1/38 566/1/231
f 31/1/232 40/1/173 39/1/176 22/1/67
f 345/1/233 338/1/234 315/1/12 344/1/235
f 490/1/61 506/1/236 491/1/237 484/1/62
f 35/1/199 26/1/142 25/1/144 34/1/238
f 462/1/239 529/1/240 467/1/241 463/1/242
f 28/1/205 37/1/204 38/1/84 29/1/83
f 48/1/24 66/1/243 49/1/244 41/1/56
f 156/1/105 162/1/245 161/1/246 126/1/106
f 74/1/247 120/1/107 82/1/125 75/1/248
f 157/1/249 610/1/250 151/1/225 152/1/224
f 389/1/251 390/1/252 373/1/253 383/1/254
f 135/1/112 140/1/115 119/1/255 112/1/221
f 67/1/256 75/1/248 68/1/257 61/1/258
f 291/1/259 585/1/260 284/1/261 283/1/262
f 168/1/263 192/1/264 164/1/265 161/1/246
f 162/1/245 190/1/266 168/1/263 161/1/246
f 209/1/267 235/1/268 217/1/269 210/1/149
f 260/1/270 254/1/271 131/1/272 259/1/129
f 117/1/215 475/1/273 116/1/274 109/1/216
f 123/1/127 124/1/130 88/1/275 118/1/276
f 574/1/277 578/1/278 573/1/279 571/1/230
f 507/1/86 511/1/280 498/1/82 115/1/87
f 526/1/182 520/1/193 519/1/281 525/1/179
f 564/1/282 569/1/229 566/1/231 562/1/18
f 218/1/283 223/1/284 224/1/285 219/1/286
f 41/1/56 49/1/244 42/1/287 33/1/57
f 61/1/258 68/1/257 55/1/288 43/1/200
f 195/1/289 192/1/264 168/1/263 194/1/290
f 197/1/28 185/1/27 192/1/264 195/1/289
f 107/1/291 66/1/243 101/1/103 106/1/292
f 269/1/164 264/1/163 263/1/293 268/1/32
f 514/1/76 520/1/193 521/1/195 496/1/77
f 17/1/42 4/1/7 121/1/85
f 194/1/290 168/1/263 190/1/266 189/1/294
f 32/1/55 52/1/21 48/1/24 41/1/56
f 46/1/220 102/1/295 69/1/131 62/1/134
f 92/1/189 155/1/188 105/1/296 96/1/297
f 57/1/73 79/1/214 64/1/298 58/1/299
f 243/1/120 552/1/300 551/1/206 545/1/121
f 83/1/301 68/1/257 75/1/248 82/1/125
f 496/1/77 521/1/195 495/1/302 489/1/303
f 72/1/304 81/1/305 60/1/175 65/1/174
f 515/1/89 554/1/306 530/1/307 522/1/90
f 197/1/28 202/1/148 205/1/147 203/1/29
f 454/1/92 455/1/91 448/1/308 447/1/309
f 136/1/198 86/1/310 91/1/138 130/1/137
f 43/1/200 55/1/288 50/1/145 44/1/126
f 125/1/136 85/1/139 88/1/275 124/1/130
f 12/1/99 18/1/311 19/1/312 13/1/100
f 86/1/310 136/1/198 87/1/197
f 130/1/137 137/1/313 136/1/198
f 356/1/314 357/1/315 352/1/316 351/1/317
f 114/1/49 127/1/48 120/1/107 74/1/247
f 129/1/318 135/1/112 112/1/221 111/1/109
f 610/1/250 611/1/319 602/1/161 603/1/160
f 615/1/320 622/1/321 614/1/322 606/1/323
f 66/1/243 107/1/291 73/1/324 49/1/244
f 65/1/174 40/1/173 58/1/299 64/1/298
f 538/1/171 534/1/228 532/1/181 533/1/325
f 56/1/118 147/1/117 4/1/7
f 124/1/130 259/1/129 131/1/272 125/1/136
f 2/1/16 26/1/142 3/1/6 1/1/5
f 551/1/206 546/1/154 544/1/153 545/1/121
f 77/1/132 69/1/131 95/1/111 90/1/110
f 477/1/326 446/1/327 449/1/328 458/1/329
f 34/1/238 61/1/258 43/1/200 35/1/199
f 573/1/279 576/1/330 478/1/331 572/1/39
f 289/1/186 290/1/332 280/1/333 274/1/183
f 455/1/91 522/1/90 462/1/239 456/1/334
f 42/1/287 67/1/256 61/1/258 34/1/238
f 589/1/335 594/1/336 588/1/209 586/1/337
f 596/1/338 597/1/339 591/1/340 590/1/341
f 604/1/342 606/1/323 597/1/339 596/1/338
f 268/1/32 285/1/31 276/1/167 269/1/164
f 141/1/51 142/1/54 119/1/255 140/1/115
f 69/1/131 102/1/295 103/1/217 95/1/111
f 105/1/296 171/1/343 97/1/344 96/1/297
f 305/1/345 306/1/346 297/1/347 302/1/348
f 159/1/349 167/1/350 157/1/249
f 186/1/26 203/1/29 196/1/351 191/1/352
f 170/1/353 133/1/354 128/1/124 164/1/265
f 87/1/197 149/1/190 92/1/189 72/1/304
f 291/1/259 592/1/355 589/1/335 585/1/260
f 288/1/356 295/1/357 254/1/271 260/1/270
f 179/1/358 206/1/359 198/1/360 180/1/361
f 612/1/362 615/1/320 606/1/323 604/1/342
f 548/1/208 555/1/20 554/1/306 547/1/96
f 94/1/104 59/1/23 54/1/22 93/1/151
f 164/1/265 128/1/124 126/1/106 161/1/246
f 86/1/310 87/1/197 64/1/298 79/1/214
f 388/1/363 393/1/364 364/1/365 358/1/366
f 157/1/249 628/1/367 611/1/319 610/1/250
f 102/1/295 492/1/60 110/1/59 103/1/217
f 55/1/288 76/1/119 56/1/118 50/1/145
f 70/1/133 78/1/368 71/1/213 63/1/72
f 134/1/116 76/1/119 83/1/301 133/1/354
f 147/1/117 184/1/369 4/1/7
f 246/1/2 248/1/370 239/1/371 237/1/3
f 481/1/46 483/1/45 476/1/372 475/1/273
f 181/1/373 180/1/361 187/1/374
f 156/1/105 150/1/135 163/1/203 162/1/245
f 90/1/110 89/1/222 84/1/375 77/1/132
f 184/1/369 191/1/352 4/1/7
f 491/1/237 487/1/376 480/1/377 484/1/62
f 187/1/374 180/1/361 193/1/378
f 134/1/116 178/1/379 184/1/369 147/1/117
f 13/1/100 19/1/312 21/1/380 20/1/381
f 191/1/352 196/1/351 4/1/7
f 246/1/2 308/1/141 281/1/382 248/1/370
f 13/1/100 20/1/381 14/1/70 9/1/93
f 180/1/361 198/1/360 193/1/378
f 116/1/274 469/1/383 464/1/384 122/1/385
f 399/1/386 400/1/387 387/1/388 395/1/389
f 497/1/390 502/1/391 477/1/326 471/1/392
f 304/1/184 311/1/393 303/1/394 296/1/185
f 475/1/273 476/1/372 469/1/383 116/1/274
f 480/1/377 481/1/46 475/1/273 117/1/215
f 484/1/62 480/1/377 117/1/215 110/1/59
f 196/1/351 204/1/395 4/1/7
f 186/1/26 178/1/379 170/1/353 185/1/27
f 199/1/396 207/1/397 208/1/398
f 327/1/399 443/1/400 442/1/401 438/1/402
f 470/1/403 489/1/303 471/1/392 465/1/404
f 487/1/376 488/1/43 481/1/46 480/1/377
f 113/1/50 114/1/49 107/1/291 106/1/292
f 204/1/395 212/1/405 4/1/7
f 629/1/406 635/1/407 630/1/408 622/1/321
f 221/1/409 105/1/296 155/1/188 160/1/410
f 226/1/411 234/1/412 233/1/413 227/1/414
f 592/1/355 600/1/415 594/1/336 589/1/335
f 482/1/78 496/1/77 489/1/303 470/1/403
f 89/1/222 118/1/276 88/1/275 84/1/375
f 212/1/405 219/1/286 4/1/7
f 74/1/247 75/1/248 67/1/256 73/1/324
f 279/1/416 273/1/128 148/1/53 286/1/417
f 388/1/363 408/1/418 409/1/419 393/1/364
f 368/1/420 376/1/421 342/1/422 341/1/423
f 409/1/419 415/1/424 398/1/425 393/1/364
f 276/1/167 575/1/170 271/1/165 269/1/164
f 520/1/193 514/1/76 513/1/426 519/1/281
f 219/1/286 224/1/285 4/1/7
f 557/1/427 252/1/428 265/1/429 561/1/430
f 222/1/431 226/1/411 227/1/414
f 23/1/68 47/1/177 52/1/21 32/1/55
f 28/1/205 19/1/312 18/1/311 27/1/88
f 224/1/285 230/1/432 4/1/7
f 255/1/433 256/1/434 249/1/435 240/1/436
f 584/1/437 585/1/260 589/1/335 586/1/337
f 607/1/438 616/1/439 608/1/440 599/1/441
f 29/1/83 51/1/74 30/1/442 21/1/380
f 493/1/443 587/1/212 499/1/211 494/1/444
f 230/1/432 236/1/445 4/1/7
f 631/1/446 633/1/447 629/1/406 623/1/448
f 129/1/318 122/1/385 464/1/384 457/1/449
f 606/1/323 614/1/322 605/1/450 597/1/339
f 214/1/451 221/1/409 220/1/452 213/1/453
f 621/1/454 620/1/455 612/1/362 611/1/319
f 232/1/456 234/1/412 226/1/411 225/1/457
f 579/1/169 581/1/458 577/1/459 578/1/278
f 97/1/344 171/1/343 165/1/460 98/1/461
f 57/1/73 58/1/299 30/1/442 51/1/74
f 215/1/462 226/1/411 222/1/431 216/1/463
f 241/1/464 240/1/436 249/1/435
f 521/1/195 527/1/194 528/1/227 495/1/302
f 346/1/465 347/1/466 339/1/467 340/1/468
f 691/1/469 696/1/470 692/1/471 688/1/472
f 553/1/207 558/1/17 555/1/20 548/1/208
f 137/1/313 247/1/192 143/1/196 136/1/198
f 137/1/313 131/1/272 254/1/271
f 310/1/64 318/1/63 312/1/473 305/1/345
f 177/1/201 263/1/293 188/1/474 183/1/202
f 476/1/372 482/1/78 470/1/403 469/1/383
f 178/1/379 134/1/116 133/1/354 170/1/353
f 189/1/294 190/1/266 183/1/202 188/1/474
f 105/1/296 221/1/409 214/1/451 171/1/343
f 236/1/445 262/1/475 4/1/7
f 532/1/181 524/1/180 262/1/475 533/1/325
f 509/1/476 513/1/426 514/1/76 501/1/75
f 464/1/384 469/1/383 470/1/403 465/1/404
f 333/1/114 450/1/113 449/1/328 443/1/400
f 255/1/433 248/1/370 266/1/477
f 261/1/478 266/1/477 267/1/479
f 510/1/480 454/1/92 447/1/309 502/1/391
f 141/1/51 140/1/115 333/1/114 328/1/481
f 333/1/114 443/1/400 327/1/399 328/1/481
f 267/1/479 266/1/477 274/1/183
f 267/1/479 274/1/183 275/1/482
f 141/1/51 328/1/481 307/1/483 298/1/52
f 307/1/483 328/1/481 327/1/399 326/1/484
f 145/1/178 175/1/37 144/1/36 139/1/80
f 26/1/142 35/1/199 36/1/101 3/1/6
f 627/1/485 631/1/446 623/1/448 620/1/455
f 275/1/482 274/1/183 280/1/333
f 588/1/209 587/1/212 583/1/486 586/1/337
f 248/1/370 281/1/382 266/1/477
f 647/1/487 649/1/488 645/1/489 644/1/490
f 296/1/185 303/1/394 302/1/348 297/1/347
f 251/1/491 252/1/428 244/1/492 200/1/493
f 591/1/340 598/1/494 592/1/355 291/1/259
f 307/1/483 314/1/15 293/1/14 298/1/52
f 282/1/495 283/1/262 278/1/30 277/1/496
f 471/1/392 477/1/326 458/1/329 465/1/404
f 702/1/497 703/1/498 683/1/499 701/1/500
f 620/1/455 623/1/448 615/1/320 612/1/362
f 282/1/495 590/1/341 291/1/259 283/1/262
f 286/1/417 292/1/156 287/1/158 279/1/416
f 293/1/14 313/1/13 292/1/156 286/1/417
f 284/1/261 285/1/31 278/1/30 283/1/262
f 138/1/79 151/1/225 145/1/178 139/1/80
f 356/1/314 363/1/501 362/1/502 357/1/315
f 288/1/356 294/1/65 295/1/357
f 254/1/271 295/1/357 253/1/191
f 477/1/326 502/1/391 447/1/309 446/1/327
f 289/1/186 297/1/347 290/1/332
f 289/1/186 296/1/185 297/1/347
f 450/1/113 135/1/112 129/1/318 457/1/449
f 295/1/357 300/1/503 299/1/504
f 594/1/336 601/1/505 593/1/210 588/1/209
f 302/1/348 309/1/506 310/1/64 305/1/345
f 561/1/430 265/1/429 270/1/166 565/1/507
f 623/1/448 629/1/406 622/1/321 615/1/320
f 77/1/132 84/1/375 78/1/368 70/1/133
f 128/1/124 133/1/354 83/1/301 82/1/125
f 536/1/98 516/1/97 510/1/480 517/1/508
f 568/1/38 571/1/230 573/1/279 572/1/39
f 282/1/495 595/1/162 596/1/338 590/1/341
f 160/1/410 231/1/509 232/1/456 225/1/457
f 309/1/506 294/1/65 310/1/64
f 182/1/159 277/1/496 176/1/34 175/1/37
f 62/1/134 70/1/133 63/1/72 45/1/71
f 305/1/345 312/1/473 306/1/346
f 364/1/365 351/1/317 346/1/465 358/1/366
f 284/1/261 585/1/260 584/1/437 580/1/168
f 312/1/473 316/1/510 317/1/511
f 312/1/473 318/1/63 316/1/510
f 177/1/201 272/1/33 268/1/32 263/1/293
f 557/1/427 561/1/430 560/1/512 556/1/513
f 119/1/255 142/1/54 123/1/127 118/1/276
f 584/1/437 581/1/458 579/1/169 580/1/168
f 598/1/494 605/1/450 607/1/438 599/1/441
f 271/1/165 575/1/170 574/1/277 570/1/514
f 342/1/422 336/1/515 322/1/516 341/1/423
f 317/1/511 316/1/510 324/1/517
f 548/1/208 547/1/96 541/1/95 546/1/154
f 68/1/257 83/1/301 76/1/119 55/1/288
f 323/1/518 322/1/516 329/1/519
f 324/1/517 330/1/520 322/1/516
f 302/1/348 303/1/394 300/1/503 309/1/506
f 324/1/517 316/1/510 331/1/521
f 626/1/522 628/1/367 157/1/249 167/1/350
f 81/1/305 96/1/297 97/1/344 80/1/150
f 106/1/292 146/1/223 138/1/79 113/1/50
f 637/1/523 638/1/524 518/1/525 512/1/526
f 178/1/379 186/1/26 191/1/352 184/1/369
f 188/1/474 263/1/293 264/1/163 258/1/527
f 329/1/519 334/1/528 335/1/529
f 329/1/519 322/1/516 336/1/515
f 329/1/519 336/1/515 334/1/528
f 258/1/527 265/1/429 252/1/428 251/1/491
f 632/1/530 636/1/531 508/1/532 504/1/533
f 500/1/534 503/1/535 419/1/536 418/1/537
f 342/1/422 334/1/528 336/1/515
f 626/1/522 627/1/485 620/1/455 621/1/454
f 322/1/516 330/1/520 343/1/538
f 322/1/516 343/1/538 341/1/423
f 114/1/49 74/1/247 73/1/324 107/1/291
f 584/1/437 586/1/337 583/1/486 581/1/458
f 636/1/531 637/1/523 512/1/526 508/1/532
f 504/1/533 508/1/532 426/1/539 419/1/536
f 373/1/253 390/1/252 381/1/540 374/1/541
f 97/1/344 98/1/461 93/1/151 80/1/150
f 202/1/148 197/1/28 195/1/289 201/1/542
f 508/1/532 512/1/526 431/1/543 426/1/539
f 10/1/94 16/1/143 2/1/16 6/1/11
f 284/1/261 580/1/168 276/1/167 285/1/31
f 638/1/524 639/1/544 523/1/545 518/1/525
f 353/1/546 358/1/366 346/1/465
f 583/1/486 587/1/212 493/1/443 582/1/547
f 183/1/202 190/1/266 162/1/245 163/1/203
f 343/1/538 360/1/548 341/1/423
f 640/1/549 531/1/550 523/1/545 639/1/544
f 512/1/526 518/1/525 441/1/551 436/1/552
f 364/1/365 356/1/314 351/1/317
f 360/1/548 365/1/553 341/1/423
f 420/1/554 474/1/555 412/1/556 413/1/557
f 473/1/40 474/1/555 420/1/554 468/1/558
f 478/1/331 479/1/559 412/1/556 474/1/555
f 341/1/423 365/1/553 368/1/420
f 400/1/387 418/1/537 419/1/536 401/1/560
f 373/1/253 374/1/541 365/1/553 366/1/561
f 364/1/365 372/1/562 356/1/314
f 583/1/486 582/1/547 577/1/459 581/1/458
f 405/1/563 486/1/564 411/1/565 404/1/566
f 365/1/553 374/1/541 368/1/420
f 419/1/536 426/1/539 407/1/567 401/1/560
f 198/1/360 207/1/397 199/1/396 193/1/378
f 454/1/92 510/1/480 516/1/97 515/1/89
f 320/1/568 344/1/235 315/1/12 314/1/15
f 370/1/569 371/1/570 378/1/571
f 371/1/570 379/1/572 378/1/571
f 537/1/573 461/1/574 453/1/575 531/1/550
f 356/1/314 380/1/576 363/1/501
f 356/1/314 372/1/562 380/1/576
f 374/1/541 381/1/540 368/1/420
f 399/1/386 406/1/577 405/1/563 404/1/566
f 378/1/571 379/1/572 384/1/578
f 379/1/572 385/1/579 384/1/578
f 368/1/420 387/1/388 376/1/421
f 334/1/528 340/1/468 339/1/467 335/1/529
f 353/1/546 388/1/363 358/1/366
f 382/1/580 388/1/363 353/1/546
f 412/1/556 479/1/559 405/1/563 406/1/577
f 640/1/549 641/1/581 537/1/573 531/1/550
f 371/1/570 391/1/582 379/1/572
f 371/1/570 386/1/583 391/1/582
f 376/1/421 387/1/388 392/1/584
f 376/1/421 392/1/584 375/1/585
f 436/1/552 441/1/551 429/1/586 422/1/587
f 394/1/588 413/1/557 412/1/556 406/1/577
f 394/1/588 406/1/577 399/1/386 395/1/389
f 379/1/572 396/1/589 385/1/579
f 391/1/582 396/1/589 379/1/572
f 407/1/567 414/1/590 397/1/591 392/1/584
f 613/1/592 617/1/593 607/1/438 605/1/450
f 398/1/425 380/1/576 372/1/562
f 99/1/218 94/1/104 93/1/151 98/1/461
f 381/1/540 395/1/389 387/1/388 368/1/420
f 387/1/388 400/1/387 401/1/560
f 387/1/388 401/1/560 392/1/584
f 382/1/580 402/1/594 388/1/363
f 397/1/591 402/1/594 382/1/580
f 398/1/425 403/1/595 380/1/576
f 380/1/576 403/1/595 386/1/583
f 399/1/386 404/1/566 400/1/387
f 467/1/241 468/1/558 427/1/596 463/1/242
f 154/1/187 231/1/509 160/1/410 155/1/188
f 401/1/560 407/1/567 392/1/584
f 402/1/594 408/1/418 388/1/363
f 422/1/587 429/1/586 409/1/419 408/1/418
f 409/1/419 429/1/586 434/1/597 415/1/424
f 403/1/595 410/1/598 386/1/583
f 404/1/566 411/1/565 400/1/387
f 478/1/331 576/1/330 485/1/599 479/1/559
f 485/1/599 582/1/547 493/1/443 486/1/564
f 493/1/443 494/1/444 411/1/565 486/1/564
f 397/1/591 414/1/590 402/1/594
f 461/1/574 466/1/600 452/1/601 444/1/602
f 400/1/387 411/1/565 418/1/537
f 441/1/551 445/1/603 434/1/597 429/1/586
f 213/1/453 207/1/397 198/1/360 206/1/359
f 389/1/251 421/1/604 420/1/554 413/1/557
f 394/1/588 395/1/389 381/1/540 390/1/252
f 402/1/594 422/1/587 408/1/418
f 414/1/590 422/1/587 402/1/594
f 431/1/543 414/1/590 407/1/567 426/1/539
f 398/1/425 423/1/605 403/1/595
f 423/1/605 410/1/598 403/1/595
f 398/1/425 415/1/424 423/1/605
f 416/1/606 417/1/607 424/1/608
f 417/1/607 425/1/609 424/1/608
f 485/1/599 486/1/564 405/1/563 479/1/559
f 39/1/176 60/1/175 53/1/152 47/1/177
f 423/1/605 430/1/610 410/1/598
f 375/1/585 382/1/580 353/1/546 348/1/611
f 431/1/543 422/1/587 414/1/590
f 131/1/272 137/1/313 130/1/137 125/1/136
f 85/1/139 91/1/138 71/1/213 78/1/368
f 434/1/597 423/1/605 415/1/424
f 309/1/506 300/1/503 295/1/357 294/1/65
f 431/1/543 436/1/552 422/1/587
f 148/1/53 298/1/52 293/1/14 286/1/417
f 230/1/432 224/1/285 223/1/284 229/1/612
f 150/1/135 144/1/36 169/1/35 163/1/203
f 434/1/597 439/1/613 423/1/605
f 417/1/607 440/1/614 425/1/609
f 435/1/615 440/1/614 417/1/607
f 398/1/425 372/1/562 364/1/365 393/1/364
f 565/1/507 270/1/166 271/1/165 570/1/514
f 565/1/507 570/1/514 569/1/229 564/1/282
f 423/1/605 444/1/602 430/1/610
f 423/1/605 439/1/613 444/1/602
f 172/1/616 206/1/359 179/1/358 173/1/617
f 561/1/430 565/1/507 564/1/282 560/1/512
f 137/1/313 254/1/271 253/1/191 247/1/192
f 435/1/615 417/1/607 410/1/598 430/1/610
f 434/1/597 453/1/575 439/1/613
f 434/1/597 445/1/603 453/1/575
f 560/1/512 564/1/282 562/1/18 558/1/17
f 551/1/206 552/1/300 556/1/513 553/1/207
f 258/1/527 251/1/491 189/1/294 188/1/474
f 226/1/411 215/1/462 220/1/452 225/1/457
f 451/1/618 452/1/601 459/1/619
f 452/1/601 460/1/620 459/1/619
f 439/1/613 461/1/574 444/1/602
f 453/1/575 461/1/574 439/1/613
f 568/1/38 567/1/41 563/1/621 566/1/231
f 562/1/18 566/1/231 563/1/621 559/1/19
f 189/1/294 251/1/491 200/1/493 194/1/290
f 200/1/493 201/1/542 195/1/289 194/1/290
f 252/1/428 557/1/427 242/1/622 244/1/492
f 444/1/602 452/1/601 451/1/618 430/1/610
f 563/1/621 567/1/41 467/1/241 529/1/240
f 467/1/241 567/1/41 473/1/40 468/1/558
f 200/1/493 244/1/492 209/1/267 201/1/542
f 209/1/267 244/1/492 242/1/622 235/1/268
f 397/1/591 382/1/580 375/1/585 392/1/584
f 452/1/601 472/1/623 460/1/620
f 466/1/600 472/1/623 452/1/601
f 427/1/596 468/1/558 420/1/554 421/1/604
f 577/1/459 582/1/547 485/1/599 576/1/330
f 300/1/503 303/1/394 311/1/393 299/1/504
f 209/1/267 210/1/149 202/1/148 201/1/542
f 458/1/329 449/1/328 450/1/113 457/1/449
f 377/1/624 421/1/604 389/1/251 383/1/254
f 377/1/624 428/1/625 427/1/596 421/1/604
f 597/1/339 605/1/450 598/1/494 591/1/340
f 203/1/29 205/1/147 204/1/395 196/1/351
f 30/1/442 58/1/299 40/1/173 31/1/232
f 20/1/381 31/1/232 22/1/67 14/1/70
f 377/1/624 383/1/254 367/1/626 369/1/627
f 367/1/626 383/1/254 373/1/253 366/1/561
f 483/1/45 501/1/75 482/1/78 476/1/372
f 569/1/229 570/1/514 574/1/277 571/1/230
f 487/1/376 4/1/7 488/1/43
f 447/1/309 448/1/308 442/1/401 446/1/327
f 30/1/442 31/1/232 20/1/381 21/1/380
f 116/1/274 122/1/385 104/1/108 109/1/216
f 122/1/385 129/1/318 111/1/109 104/1/108
f 487/1/376 491/1/237 4/1/7
f 359/1/628 366/1/561 365/1/553 360/1/548
f 367/1/626 366/1/561 359/1/628 361/1/629
f 411/1/565 494/1/444 418/1/537
f 242/1/622 552/1/300 243/1/120 235/1/268
f 235/1/268 243/1/120 228/1/123 217/1/269
f 242/1/622 557/1/427 556/1/513 552/1/300
f 257/1/630 533/1/325 262/1/475 236/1/445
f 359/1/628 360/1/548 343/1/538 354/1/631
f 494/1/444 499/1/211 418/1/537
f 418/1/537 499/1/211 500/1/534
f 691/1/469 713/1/632 710/1/633 704/1/634
f 217/1/269 218/1/283 211/1/146 210/1/149
f 495/1/302 497/1/390 471/1/392 489/1/303
f 153/1/219 159/1/349 157/1/249 152/1/224
f 419/1/536 503/1/535 504/1/533
f 488/1/43 4/1/7 505/1/44
f 205/1/147 211/1/146 212/1/405 204/1/395
f 491/1/237 506/1/236 4/1/7
f 164/1/265 192/1/264 185/1/27 170/1/353
f 121/1/85 4/1/7 507/1/86
f 688/1/472 690/1/635 685/1/636 665/1/637
f 505/1/44 4/1/7 509/1/476
f 556/1/513 560/1/512 558/1/17 553/1/207
f 506/1/236 511/1/280 4/1/7
f 442/1/401 448/1/308 437/1/638 438/1/402
f 507/1/86 4/1/7 511/1/280
f 431/1/543 512/1/526 436/1/552
f 172/1/616 214/1/451 213/1/453 206/1/359
f 509/1/476 4/1/7 513/1/426
f 211/1/146 218/1/283 219/1/286 212/1/405
f 33/1/57 42/1/287 34/1/238 25/1/144
f 299/1/504 311/1/393 308/1/141 301/1/140
f 89/1/222 112/1/221 119/1/255 118/1/276
f 84/1/375 88/1/275 85/1/139 78/1/368
f 513/1/426 4/1/7 519/1/281
f 511/1/280 506/1/236 490/1/61 498/1/82
f 217/1/269 228/1/123 223/1/284 218/1/283
f 441/1/551 518/1/525 523/1/545
f 441/1/551 523/1/545 445/1/603
f 523/1/545 453/1/575 445/1/603
f 4/1/7 262/1/475 524/1/180
f 4/1/7 524/1/180 525/1/179
f 4/1/7 525/1/179 519/1/281
f 100/1/102 146/1/223 106/1/292 101/1/103
f 228/1/123 250/1/122 229/1/612 223/1/284
f 150/1/135 156/1/105 127/1/48 132/1/47
f 462/1/239 463/1/242 432/1/639 456/1/334
f 523/1/545 531/1/550 453/1/575
f 574/1/277 575/1/170 579/1/169 578/1/278
f 526/1/182 532/1/181 534/1/228 527/1/194
f 250/1/122 539/1/172 257/1/630 229/1/612
f 599/1/441 600/1/415 592/1/355 598/1/494
f 539/1/172 250/1/122 545/1/121 544/1/153
f 145/1/178 151/1/225 610/1/250 603/1/160
f 353/1/546 346/1/465 340/1/468 348/1/611
f 533/1/325 257/1/630 539/1/172 538/1/171
f 19/1/312 28/1/205 29/1/83 21/1/380
f 17/1/42 121/1/85 27/1/88 18/1/311
f 11/1/25 12/1/99 8/1/10 7/1/9
f 176/1/34 272/1/33 177/1/201 169/1/35
f 537/1/573 542/1/640 543/1/641
f 537/1/573 543/1/641 461/1/574
f 540/1/155 535/1/226 534/1/228 538/1/171
f 535/1/226 540/1/155 541/1/95 536/1/98
f 37/1/204 108/1/81 46/1/220 38/1/84
f 60/1/175 81/1/305 80/1/150 53/1/152
f 91/1/138 86/1/310 79/1/214 71/1/213
f 542/1/640 549/1/642 543/1/641
f 542/1/640 550/1/643 549/1/642
f 535/1/226 536/1/98 517/1/508 528/1/227
f 495/1/302 528/1/227 517/1/508 497/1/390
f 345/1/233 361/1/629 359/1/628 354/1/631
f 59/1/23 101/1/103 66/1/243 48/1/24
f 555/1/20 559/1/19 530/1/307 554/1/306
f 547/1/96 554/1/306 515/1/89 516/1/97
f 49/1/244 73/1/324 67/1/256 42/1/287
f 502/1/391 497/1/390 517/1/508 510/1/480
f 264/1/163 270/1/166 265/1/429 258/1/527
f 308/1/141 311/1/393 304/1/184 281/1/382
f 15/1/69 24/1/58 16/1/143 10/1/94
f 462/1/239 522/1/90 530/1/307 529/1/240
f 172/1/616 173/1/617 158/1/644 165/1/460
f 99/1/218 158/1/644 159/1/349 153/1/219
f 103/1/217 109/1/216 104/1/108 95/1/111
f 559/1/19 563/1/621 529/1/240 530/1/307
f 143/1/196 247/1/192 245/1/1 238/1/4
f 299/1/504 301/1/140 253/1/191 295/1/357
f 443/1/400 449/1/328 446/1/327 442/1/401
f 455/1/91 456/1/334 437/1/638 448/1/308
f 23/1/68 32/1/55 24/1/58 15/1/69
f 432/1/639 463/1/242 427/1/596 428/1/625
f 239/1/371 240/1/436 234/1/412 232/1/456
f 437/1/638 456/1/334 432/1/639 433/1/645
f 278/1/30 272/1/33 176/1/34 277/1/496
f 355/1/646 433/1/645 432/1/639 428/1/625
f 355/1/646 428/1/625 377/1/624 369/1/627
f 327/1/399 438/1/402 332/1/647 326/1/484
f 332/1/647 433/1/645 355/1/646 349/1/648
f 332/1/647 438/1/402 437/1/638 433/1/645
f 355/1/646 369/1/627 350/1/649 349/1/648
f 350/1/649 369/1/627 367/1/626 361/1/629
f 307/1/483 326/1/484 320/1/568 314/1/15
f 332/1/647 349/1/648 320/1/568 326/1/484
f 350/1/649 344/1/235 320/1/568 349/1/648
f 143/1/196 238/1/4 154/1/187 149/1/190
f 350/1/649 361/1/629 345/1/233 344/1/235
f 573/1/279 578/1/278 577/1/459 576/1/330
f 108/1/81 492/1/60 102/1/295 46/1/220
f 92/1/189 96/1/297 81/1/305 72/1/304
f 337/1/650 354/1/631 343/1/538 330/1/520
f 345/1/233 354/1/631 337/1/650 338/1/234
f 319/1/651 338/1/234 337/1/650 331/1/521
f 315/1/12 338/1/234 319/1/651 313/1/13
f 325/1/157 292/1/156 313/1/13 319/1/651
f 291/1/259 590/1/341 591/1/340
f 612/1/362 604/1/342 602/1/161 611/1/319
f 499/1/211 593/1/210 500/1/534
f 331/1/521 337/1/650 330/1/520 324/1/517
f 325/1/157 319/1/651 331/1/521 316/1/510
f 180/1/361 181/1/373 174/1/652 179/1/358
f 215/1/462 216/1/463 208/1/398 207/1/397
f 11/1/25 17/1/42 18/1/311 12/1/99
f 318/1/63 321/1/66 325/1/157 316/1/510
f 593/1/210 601/1/505 500/1/534
f 594/1/336 600/1/415 601/1/505
f 287/1/158 321/1/66 294/1/65 288/1/356
f 98/1/461 165/1/460 158/1/644 99/1/218
f 342/1/422 376/1/421 375/1/585 348/1/611
f 148/1/53 273/1/128 123/1/127 142/1/54
f 473/1/40 572/1/39 478/1/331 474/1/555
f 599/1/441 608/1/440 600/1/415
f 240/1/436 241/1/464 233/1/413 234/1/412
f 600/1/415 609/1/653 601/1/505
f 317/1/511 324/1/517 322/1/516 323/1/518
f 600/1/415 608/1/440 609/1/653
f 237/1/3 239/1/371 232/1/456 231/1/509
f 47/1/177 23/1/68 22/1/67 39/1/176
f 602/1/161 604/1/342 596/1/338 595/1/162
f 64/1/298 87/1/197 72/1/304 65/1/174
f 622/1/321 630/1/408 624/1/654 617/1/593
f 605/1/450 614/1/322 613/1/592
f 229/1/612 257/1/630 236/1/445 230/1/432
f 607/1/438 617/1/593 616/1/439
f 608/1/440 616/1/439 618/1/655
f 348/1/611 340/1/468 334/1/528 342/1/422
f 304/1/184 274/1/183 266/1/477 281/1/382
f 613/1/592 614/1/322 622/1/321
f 613/1/592 622/1/321 617/1/593
f 248/1/370 255/1/433 240/1/436 239/1/371
f 616/1/439 624/1/654 618/1/655
f 609/1/653 619/1/656 500/1/534 601/1/505
f 616/1/439 617/1/593 624/1/654
f 619/1/656 625/1/657 500/1/534
f 500/1/534 625/1/657 503/1/535
f 625/1/657 504/1/533 503/1/535
f 173/1/617 179/1/358 174/1/652 166/1/658
f 457/1/449 464/1/384 465/1/404 458/1/329
f 621/1/454 611/1/319 628/1/367
f 255/1/433 266/1/477 261/1/478 256/1/434
f 182/1/159 595/1/162 282/1/495 277/1/496
f 621/1/454 628/1/367 626/1/522
f 171/1/343 214/1/451 172/1/616 165/1/460
f 100/1/102 153/1/219 152/1/224 146/1/223
f 625/1/657 632/1/530 504/1/533
f 629/1/406 633/1/447 634/1/659
f 629/1/406 634/1/659 635/1/407
f 160/1/410 225/1/457 220/1/452 221/1/409
f 287/1/158 288/1/356 260/1/270 279/1/416
f 351/1/317 352/1/316 347/1/466 346/1/465
f 505/1/44 509/1/476 501/1/75 483/1/45
f 154/1/187 238/1/4 237/1/3 231/1/509
f 363/1/501 371/1/570 370/1/569 362/1/502
f 537/1/573 642/1/660 542/1/640
f 641/1/581 642/1/660 537/1/573
f 642/1/660 643/1/661 542/1/640
f 542/1/640 643/1/661 550/1/643
f 644/1/490 645/1/489 646/1/662
f 279/1/416 260/1/270 259/1/129 273/1/128
f 645/1/489 648/1/663 646/1/662
f 648/1/663 650/1/664 646/1/662
f 649/1/488 647/1/487 651/1/665
f 649/1/488 651/1/665 652/1/666
f 650/1/664 653/1/667 646/1/662
f 651/1/665 647/1/487 654/1/668
f 653/1/667 655/1/669 646/1/662
f 654/1/668 647/1/487 656/1/670
f 655/1/669 657/1/671 646/1/662
f 656/1/670 647/1/487 658/1/672
f 657/1/671 659/1/673 646/1/662
f 658/1/672 647/1/487 660/1/672
f 659/1/673 661/1/674 646/1/662
f 660/1/672 647/1/487 662/1/675
f 661/1/674 663/1/676 646/1/662
f 647/1/487 664/1/677 662/1/675
f 647/1/487 665/1/637 666/1/678
f 647/1/487 666/1/678 664/1/677
f 663/1/676 667/1/679 646/1/662
f 666/1/678 665/1/637 668/1/680
f 667/1/679 669/1/681 646/1/662
f 668/1/680 665/1/637 670/1/682
f 669/1/681 671/1/683 646/1/662
f 670/1/682 665/1/637 672/1/684
f 671/1/683 673/1/685 646/1/662
f 672/1/684 665/1/637 674/1/686
f 673/1/685 675/1/687 646/1/662
f 674/1/686 665/1/637 676/1/688
f 675/1/687 677/1/689 646/1/662
f 410/1/598 417/1/607 416/1/606 386/1/583
f 676/1/688 665/1/637 679/1/690
f 678/1/691 680/1/692 681/1/693
f 213/1/453 220/1/452 215/1/462 207/1/397
f 678/1/691 681/1/693 684/1/694
f 678/1/691 684/1/694 682/1/695
f 665/1/637 685/1/636 686/1/696
f 665/1/637 687/1/697 679/1/690
f 665/1/637 686/1/696 687/1/697
f 677/1/689 680/1/692 678/1/691 646/1/662
f 682/1/695 689/1/698 683/1/499 678/1/691
f 688/1/472 692/1/471 693/1/699
f 688/1/472 694/1/700 690/1/635
f 688/1/472 693/1/699 694/1/700
f 689/1/698 695/1/701 683/1/499
f 695/1/701 697/1/702 683/1/499
f 696/1/470 691/1/469 698/1/703
f 380/1/576 386/1/583 371/1/570 363/1/501
f 697/1/702 700/1/704 699/1/705
f 702/1/497 713/1/632 691/1/469 703/1/498
f 158/1/644 173/1/617 166/1/658 159/1/349
f 698/1/703 691/1/469 704/1/634
f 700/1/704 705/1/706 699/1/705
f 699/1/705 706/1/707 701/1/500
f 699/1/705 705/1/706 707/1/708
f 699/1/705 707/1/708 708/1/709
f 699/1/705 709/1/710 706/1/707
f 699/1/705 708/1/709 709/1/710
f 699/1/705 701/1/500 683/1/499 697/1/702
f 704/1/634 710/1/633 711/1/711
f 706/1/707 712/1/712 701/1/500
f 710/1/633 713/1/632 714/1/713
f 710/1/633 714/1/713 715/1/714
f 710/1/633 716/1/715 711/1/711
f 710/1/633 717/1/716 716/1/715
f 710/1/633 718/1/717 717/1/716
f 710/1/633 715/1/714 718/1/717
f 712/1/712 719/1/718 701/1/500
f 714/1/713 713/1/632 720/1/719
f 719/1/718 721/1/720 701/1/500
f 701/1/500 722/1/721 702/1/497
f 701/1/500 721/1/720 723/1/722
f 701/1/500 723/1/722 724/1/723
f 701/1/500 724/1/723 722/1/721
f 720/1/719 713/1/632 725/1/724
f 722/1/721 726/1/725 702/1/497
f 713/1/632 702/1/497 727/1/726
f 713/1/632 728/1/727 725/1/724
f 713/1/632 727/1/726 729/1/728
f 713/1/632 730/1/729 728/1/727
f 713/1/632 729/1/728 730/1/729
f 726/1/725 731/1/730 702/1/497
f 727/1/726 702/1/497 732/1/731
f 731/1/730 733/1/732 702/1/497
f 702/1/497 733/1/732 734/1/733
f 732/1/731 702/1/497 734/1/733
f 389/1/251 413/1/557 394/1/588 390/1/252
