# Blender 4.3.2
# www.blender.org
o hair.007
v 6.885251 0.224043 0.021873
v 6.882218 0.227732 0.023602
v 6.879193 0.225764 0.020879
v 6.888051 0.219995 0.020160
v 6.865502 0.212432 0.016813
v 6.890380 0.215226 0.018481
v 6.891825 0.210099 0.016818
v 6.891988 0.202084 0.015760
v 6.891543 0.194070 0.014213
v 6.892504 0.196177 0.009473
v 6.890562 0.189185 -0.004380
v 6.892638 0.193494 -0.000021
v 6.893464 0.198283 0.004733
v 6.837758 0.204343 0.016020
v 6.842364 0.204838 0.023318
v 6.846877 0.205583 0.029023
v 6.851202 0.206828 0.033088
v 6.855199 0.208371 0.035721
v 6.858727 0.210010 0.037131
v 6.862306 0.211969 0.037607
v 6.866452 0.214470 0.037438
v 6.870627 0.217237 0.036429
v 6.874295 0.219992 0.034382
v 6.880893 0.226198 0.026557
v 6.877291 0.222526 0.031751
v 6.837991 0.207340 0.016460
v 6.838443 0.210338 0.017026
v 6.839796 0.215394 0.018256
v 6.841443 0.218849 0.019547
v 6.838955 0.212591 0.017490
v 6.843604 0.222655 0.021387
v 6.837523 0.198283 0.004733
v 6.865502 0.212432 0.016813
v 6.838491 0.196177 0.009473
v 6.838348 0.193494 -0.000021
v 6.839460 0.194070 0.014213
v 6.840425 0.189185 -0.004380
v 6.839344 0.209650 0.017050
v 6.839007 0.202084 0.015760
v 6.840915 0.216396 0.019081
v 6.840064 0.213023 0.018066
v 6.837991 0.207340 0.016460
v 6.839862 0.210979 0.021699
v 6.839944 0.213830 0.021016
v 6.838443 0.210338 0.017026
v 6.837758 0.204343 0.016020
v 6.840461 0.208354 0.022397
v 6.843592 0.211494 0.027447
v 6.842964 0.214487 0.026162
v 6.842772 0.217288 0.024894
v 6.840522 0.216478 0.020459
v 6.838955 0.212591 0.017490
v 6.841310 0.206462 0.022917
v 6.842364 0.204838 0.023318
v 6.847352 0.217551 0.030047
v 6.847875 0.214108 0.031383
v 6.849104 0.210478 0.032542
v 6.844903 0.208505 0.028482
v 6.843040 0.219946 0.023499
v 6.847251 0.220760 0.028692
v 6.839796 0.215394 0.018256
v 6.846877 0.205583 0.029023
v 6.853586 0.216457 0.034705
v 6.853299 0.220075 0.033499
v 6.853190 0.223359 0.032101
v 6.847670 0.223646 0.027361
v 6.843604 0.222655 0.021387
v 6.841443 0.218849 0.019547
v 6.851202 0.206828 0.033088
v 6.859223 0.217709 0.036652
v 6.858914 0.213928 0.037216
v 6.854166 0.212521 0.035482
v 6.859289 0.221349 0.035544
v 6.855199 0.208371 0.035721
v 6.864257 0.218191 0.037410
v 6.858727 0.210010 0.037131
v 6.863040 0.214918 0.037673
v 6.859231 0.224728 0.034127
v 6.864984 0.221681 0.036385
v 6.865310 0.224988 0.034708
v 6.870473 0.221220 0.036087
v 6.868937 0.218143 0.037303
v 6.862306 0.211969 0.037607
v 6.866452 0.214470 0.037438
v 6.859295 0.227558 0.032257
v 6.853349 0.226166 0.030390
v 6.871305 0.224527 0.034370
v 6.865399 0.227878 0.032747
v 6.871554 0.227530 0.032306
v 6.874295 0.219992 0.034382
v 6.877291 0.222526 0.031751
v 6.870627 0.217237 0.036429
v 6.853601 0.228617 0.028579
v 6.865381 0.230345 0.030671
v 6.859408 0.229964 0.030255
v 6.848158 0.226192 0.025675
v 6.876805 0.226742 0.030108
v 6.880893 0.226198 0.026557
v 6.859756 0.231943 0.028141
v 6.854082 0.230737 0.026644
v 6.848687 0.228487 0.023817
v 6.844436 0.225399 0.019819
v 6.841118 0.222483 0.016018
v 6.840597 0.219833 0.017484
v 6.840701 0.217918 0.018689
v 6.840915 0.216396 0.019081
v 6.876607 0.229251 0.028530
v 6.882218 0.227732 0.023602
v 6.854592 0.232845 0.023861
v 6.849480 0.230876 0.020998
v 6.845277 0.228147 0.017417
v 6.838766 0.219503 0.012198
v 6.838444 0.216615 0.013891
v 6.838594 0.213747 0.015516
v 6.840064 0.213023 0.018066
v 6.871337 0.230069 0.030160
v 6.850279 0.232689 0.018324
v 6.841867 0.225395 0.013579
v 6.846141 0.230372 0.015020
v 6.842828 0.227884 0.011250
v 6.837084 0.213696 0.010447
v 6.837219 0.216765 0.008562
v 6.839344 0.209650 0.017050
v 6.871378 0.232044 0.028029
v 6.865580 0.232273 0.028459
v 6.839435 0.222780 0.009829
v 6.847511 0.232726 0.011289
v 6.836162 0.210753 0.006912
v 6.837262 0.210412 0.012219
v 6.876636 0.231128 0.026571
v 6.865581 0.234101 0.025555
v 6.860018 0.233859 0.025252
v 6.837931 0.220270 0.006105
v 6.837552 0.207242 0.013779
v 6.876457 0.232952 0.023884
v 6.881470 0.231132 0.021300
v 6.860207 0.235228 0.022431
v 6.855107 0.234478 0.021026
v 6.837105 0.217712 0.002275
v 6.836332 0.213971 0.004837
v 6.837730 0.198869 0.012265
v 6.839007 0.202084 0.015760
v 6.871130 0.233863 0.025210
v 6.855817 0.236141 0.016855
v 6.851362 0.234652 0.014445
v 6.835980 0.210945 0.000852
v 6.839460 0.194070 0.014213
v 6.870776 0.235230 0.022428
v 6.865493 0.235436 0.022752
v 6.852596 0.236299 0.010398
v 6.844503 0.230659 0.007821
v 6.849109 0.234660 0.007556
v 6.846356 0.232845 0.004394
v 6.838491 0.196177 0.009473
v 6.865493 0.237056 0.018379
v 6.860594 0.236878 0.018071
v 6.842334 0.228568 0.004250
v 6.840471 0.225504 0.007507
v 6.850893 0.235974 0.003942
v 6.848406 0.234399 0.001156
v 6.837523 0.198283 0.004733
v 6.860995 0.238186 0.013625
v 6.856630 0.237550 0.012547
v 6.839032 0.223214 0.003820
v 6.853990 0.237359 0.006458
v 6.853497 0.237068 -0.000505
v 6.865493 0.238349 0.013894
v 6.861452 0.238975 0.009343
v 6.857559 0.238409 0.008372
v 6.858993 0.239004 0.003113
v 6.856061 0.238158 0.001524
v 6.851408 0.235836 -0.002709
v 6.856096 0.237377 -0.004163
v 6.870392 0.236878 0.018071
v 6.869992 0.238186 0.013625
v 6.838245 0.220880 0.000046
v 6.860401 0.238835 -0.001377
v 6.858104 0.238186 -0.002610
v 6.846597 0.232803 -0.001707
v 6.849886 0.234578 -0.004989
v 6.875166 0.236149 0.016862
v 6.876029 0.234453 0.021035
v 6.840284 0.224537 -0.002722
v 6.837837 0.218352 -0.003982
v 6.836700 0.214940 -0.001813
v 6.860240 0.237731 -0.006572
v 6.844364 0.231001 0.001136
v 6.880838 0.232716 0.018450
v 6.836825 0.211985 -0.006105
v 6.836199 0.207723 -0.003398
v 6.836212 0.204251 -0.000929
v 6.835887 0.207616 0.003154
v 6.845537 0.231353 -0.004453
v 6.843164 0.229279 -0.001991
v 6.841011 0.226573 0.000792
v 6.885871 0.228172 0.018104
v 6.837028 0.204343 -0.007924
v 6.836163 0.204313 0.005444
v 6.836353 0.207398 0.008867
v 6.885251 0.224043 0.021873
v 6.887399 0.224304 0.019502
v 6.836838 0.204095 0.010318
v 6.836598 0.200929 0.001652
v 6.836783 0.201394 0.007332
v 6.849030 0.233408 -0.007240
v 6.853273 0.235551 -0.007627
v 6.888051 0.219995 0.020160
v 6.837568 0.196976 -0.002821
v 6.837089 0.200624 -0.005471
v 6.838348 0.193494 -0.000021
v 6.844978 0.229860 -0.007234
v 6.848599 0.232193 -0.009530
v 6.854458 0.236488 -0.005851
v 6.838634 0.197004 -0.010011
v 6.839194 0.192947 -0.007262
v 6.840425 0.189185 -0.004380
v 6.842513 0.227517 -0.005158
v 6.844664 0.228132 -0.010210
v 6.852306 0.233598 -0.011271
v 6.848350 0.230794 -0.011937
v 6.857670 0.236559 -0.008842
v 6.841974 0.189086 -0.011178
v 6.844303 0.184224 -0.008254
v 6.842154 0.225542 -0.008545
v 6.839898 0.222308 -0.006477
v 6.852627 0.234598 -0.009435
v 6.848378 0.229293 -0.014423
v 6.852090 0.232512 -0.013145
v 6.856842 0.235906 -0.010103
v 6.856386 0.235195 -0.011406
v 6.848163 0.180533 -0.011271
v 6.842183 0.223437 -0.012089
v 6.839942 0.219937 -0.010406
v 6.837914 0.215661 -0.008196
v 6.852084 0.231368 -0.015043
v 6.855984 0.233752 -0.013996
v 6.859601 0.235785 -0.011851
v 6.844693 0.226275 -0.013319
v 6.838590 0.212848 -0.012516
v 6.837590 0.208887 -0.010538
v 6.856153 0.234466 -0.012711
v 6.858819 0.237163 -0.007656
v 6.860930 0.236664 -0.010173
v 6.845169 0.224398 -0.016499
v 6.839109 0.205859 -0.014965
v 6.838563 0.201018 -0.012459
v 6.859106 0.234794 -0.013603
v 6.842702 0.221284 -0.015724
v 6.840910 0.197958 -0.016724
v 6.840971 0.193670 -0.014062
v 6.865493 0.234007 -0.016188
v 6.858971 0.233922 -0.015317
v 6.855963 0.233011 -0.015307
v 6.840519 0.217484 -0.014437
v 6.844394 0.190521 -0.017774
v 6.845595 0.185572 -0.014673
v 6.856173 0.232209 -0.016676
v 6.859462 0.232779 -0.017354
v 6.863015 0.237398 -0.008845
v 6.852395 0.230199 -0.016942
v 6.841860 0.215062 -0.018415
v 6.840043 0.210090 -0.016800
v 6.850287 0.182867 -0.017330
v 6.851774 0.178196 -0.013207
v 6.861872 0.238197 -0.005705
v 6.848786 0.227776 -0.016944
v 6.853129 0.228987 -0.018871
v 6.842446 0.207563 -0.020890
v 6.841499 0.203110 -0.019233
v 6.855780 0.176881 -0.014444
v 6.863647 0.238491 -0.005177
v 6.849723 0.226240 -0.019470
v 6.856691 0.231332 -0.018088
v 6.846289 0.222531 -0.019654
v 6.844884 0.200671 -0.023134
v 6.844293 0.195213 -0.020567
v 6.865493 0.237674 -0.008362
v 6.848244 0.220711 -0.022670
v 6.851330 0.224688 -0.021959
v 6.857591 0.230377 -0.019518
v 6.843940 0.219150 -0.019320
v 6.848918 0.192846 -0.023978
v 6.849247 0.187917 -0.021068
v 6.853478 0.223255 -0.024262
v 6.854388 0.227719 -0.020854
v 6.856073 0.226542 -0.022717
v 6.846110 0.217113 -0.022716
v 6.844186 0.212791 -0.022159
v 6.854220 0.186044 -0.023051
v 6.854763 0.181395 -0.019043
v 6.856049 0.222071 -0.026242
v 6.858091 0.225598 -0.024291
v 6.858793 0.229486 -0.020849
v 6.847375 0.210732 -0.025559
v 6.845798 0.205307 -0.024626
v 6.859913 0.180168 -0.020248
v 6.860297 0.176100 -0.015236
v 6.861725 0.231875 -0.018971
v 6.853989 0.217605 -0.027799
v 6.859546 0.220929 -0.028235
v 6.850097 0.203359 -0.027850
v 6.849378 0.198584 -0.026456
v 6.865493 0.175774 -0.015394
v 6.850864 0.219037 -0.025424
v 6.857074 0.216273 -0.029686
v 6.854603 0.197038 -0.028988
v 6.854264 0.191008 -0.026304
v 6.865493 0.179770 -0.020610
v 6.871073 0.180168 -0.020248
v 6.870689 0.176100 -0.015236
v 6.849042 0.215250 -0.025798
v 6.859821 0.189835 -0.027804
v 6.859792 0.184789 -0.024495
v 6.865493 0.184354 -0.024988
v 6.875206 0.176881 -0.014444
v 6.852577 0.213632 -0.028469
v 6.860180 0.196217 -0.030519
v 6.865493 0.189414 -0.028309
v 6.871166 0.189835 -0.027804
v 6.871195 0.184789 -0.024495
v 6.880700 0.182867 -0.017330
v 6.879213 0.178196 -0.013207
v 6.876224 0.181395 -0.019043
v 6.851310 0.208938 -0.028521
v 6.856264 0.212287 -0.030548
v 6.859674 0.211264 -0.031852
v 6.865493 0.195708 -0.030901
v 6.876767 0.186044 -0.023051
v 6.882824 0.180533 -0.011271
v 6.855591 0.207555 -0.030807
v 6.855119 0.202017 -0.030362
v 6.859791 0.206754 -0.032166
v 6.881740 0.187917 -0.021068
v 6.882068 0.192846 -0.023978
v 6.876723 0.191008 -0.026304
v 6.860620 0.201580 -0.031953
v 6.864537 0.203631 -0.033278
v 6.886593 0.190521 -0.017774
v 6.885391 0.185572 -0.014673
v 6.876384 0.197038 -0.028988
v 6.870806 0.196217 -0.030519
v 6.865493 0.203564 -0.033271
v 6.865493 0.199691 -0.032151
v 6.889013 0.189086 -0.011178
v 6.886683 0.184224 -0.008254
v 6.870367 0.201580 -0.031954
v 6.881608 0.198584 -0.026456
v 6.880890 0.203359 -0.027850
v 6.875867 0.202017 -0.030362
v 6.866450 0.203631 -0.033278
v 6.890562 0.189185 -0.004380
v 6.871195 0.206754 -0.032166
v 6.875395 0.207555 -0.030807
v 6.886102 0.200671 -0.023134
v 6.886694 0.195213 -0.020567
v 6.893419 0.196976 -0.002821
v 6.892638 0.193494 -0.000021
v 6.891792 0.192947 -0.007262
v 6.871313 0.211264 -0.031852
v 6.890077 0.197958 -0.016724
v 6.890016 0.193670 -0.014062
v 6.893464 0.198283 0.004733
v 6.892352 0.197004 -0.010011
v 6.874722 0.212287 -0.030548
v 6.873913 0.216273 -0.029686
v 6.889487 0.203110 -0.019233
v 6.891877 0.205859 -0.014965
v 6.892423 0.201018 -0.012459
v 6.893898 0.200624 -0.005471
v 6.893959 0.204343 -0.007924
v 6.878410 0.213632 -0.028469
v 6.876997 0.217605 -0.027799
v 6.871440 0.220929 -0.028235
v 6.888541 0.207563 -0.020890
v 6.894775 0.204251 -0.000929
v 6.894389 0.200929 0.001652
v 6.879676 0.208938 -0.028521
v 6.874938 0.222071 -0.026242
v 6.872896 0.225598 -0.024291
v 6.885189 0.205307 -0.024625
v 6.894824 0.204313 0.005444
v 6.894205 0.201394 0.007332
v 6.893261 0.198868 0.012261
v 6.892504 0.196177 0.009473
v 6.883612 0.210732 -0.025559
v 6.877508 0.223255 -0.024262
v 6.874914 0.226542 -0.022717
v 6.872194 0.229486 -0.020849
v 6.894149 0.204095 0.010317
v 6.891543 0.194070 0.014213
v 6.881944 0.215250 -0.025798
v 6.886801 0.212791 -0.022159
v 6.884877 0.217113 -0.022716
v 6.880123 0.219037 -0.025424
v 6.876599 0.227719 -0.020854
v 6.873396 0.230377 -0.019518
v 6.869267 0.231876 -0.018969
v 6.889127 0.215062 -0.018415
v 6.890944 0.210090 -0.016800
v 6.891988 0.202084 0.015760
v 6.887047 0.219150 -0.019320
v 6.882743 0.220711 -0.022670
v 6.871525 0.232779 -0.017354
v 6.892396 0.212848 -0.012516
v 6.893397 0.208887 -0.010538
v 6.893443 0.207240 0.013759
v 6.891825 0.210099 0.016818
v 6.879657 0.224688 -0.021959
v 6.894162 0.211985 -0.006105
v 6.894788 0.207723 -0.003398
v 6.893729 0.210416 0.012204
v 6.891243 0.215777 0.017153
v 6.890380 0.215226 0.018481
v 6.892475 0.213582 0.015391
v 6.894634 0.207398 0.008867
v 6.881263 0.226240 -0.019470
v 6.877858 0.228987 -0.018871
v 6.895007 0.210945 0.000852
v 6.895100 0.207616 0.003154
v 6.892489 0.216375 0.013753
v 6.894825 0.210753 0.006912
v 6.884697 0.222531 -0.019654
v 6.874295 0.231332 -0.018088
v 6.890733 0.218716 0.016851
v 6.890112 0.221894 0.015878
v 6.893903 0.213695 0.010445
v 6.888284 0.221284 -0.015724
v 6.885818 0.224398 -0.016499
v 6.874814 0.232209 -0.016676
v 6.872015 0.233922 -0.015317
v 6.889172 0.225440 0.013815
v 6.893768 0.216765 0.008561
v 6.890467 0.217484 -0.014437
v 6.878592 0.230199 -0.016942
v 6.892276 0.219389 0.012186
v 6.884895 0.230429 0.015173
v 6.888160 0.227992 0.011420
v 6.894655 0.213971 0.004837
v 6.891044 0.219937 -0.010406
v 6.893073 0.215661 -0.008196
v 6.882201 0.227776 -0.016944
v 6.891565 0.222790 0.009887
v 6.893882 0.217712 0.002275
v 6.894286 0.214940 -0.001813
v 6.893149 0.218352 -0.003982
v 6.882609 0.229293 -0.014423
v 6.878902 0.231368 -0.015043
v 6.886294 0.226275 -0.013320
v 6.888803 0.223437 -0.012089
v 6.893056 0.220269 0.006104
v 6.886324 0.228130 -0.010212
v 6.882638 0.230792 -0.011940
v 6.888833 0.225541 -0.008546
v 6.891956 0.223215 0.003819
v 6.888479 0.227518 -0.005161
v 6.886019 0.229868 -0.007241
v 6.882399 0.232204 -0.009540
v 6.878896 0.232512 -0.013146
v 6.875024 0.233011 -0.015307
v 6.891089 0.222307 -0.006477
v 6.892741 0.220880 0.000046
v 6.890518 0.225530 0.007548
v 6.878684 0.233602 -0.011275
v 6.875002 0.233752 -0.013996
v 6.871881 0.234794 -0.013603
v 6.890704 0.224537 -0.002723
v 6.888661 0.228582 0.004255
v 6.886488 0.230688 0.007849
v 6.883473 0.232762 0.011334
v 6.874833 0.234466 -0.012712
v 6.871386 0.235785 -0.011851
v 6.874600 0.235195 -0.011406
v 6.889982 0.226578 0.000790
v 6.887840 0.229295 -0.001998
v 6.884645 0.232866 0.004392
v 6.870057 0.236664 -0.010173
v 6.873316 0.236559 -0.008842
v 6.874145 0.235906 -0.010104
v 6.886647 0.231030 0.001130
v 6.885486 0.231396 -0.004468
v 6.879619 0.234677 0.014475
v 6.878373 0.234617 -0.009444
v 6.867972 0.237398 -0.008845
v 6.884441 0.232872 -0.001723
v 6.878390 0.236300 0.010397
v 6.881880 0.234666 0.007556
v 6.874355 0.237550 0.012547
v 6.881999 0.233462 -0.007262
v 6.877732 0.235582 -0.007636
v 6.882612 0.234447 0.001148
v 6.881159 0.234665 -0.005012
v 6.880100 0.235986 0.003941
v 6.876997 0.237359 0.006459
v 6.873427 0.238409 0.008372
v 6.869534 0.238975 0.009343
v 6.876538 0.236510 -0.005855
v 6.879614 0.235897 -0.002720
v 6.877496 0.237084 -0.000506
v 6.874925 0.238158 0.001524
v 6.871994 0.239004 0.003113
v 6.868804 0.239501 0.003995
v 6.865493 0.239661 0.004258
v 6.865493 0.239135 0.009592
v 6.872168 0.237163 -0.007656
v 6.874892 0.237382 -0.004163
v 6.872881 0.238187 -0.002610
v 6.870586 0.238835 -0.001377
v 6.868090 0.239237 -0.000651
v 6.865493 0.239375 -0.000416
v 6.862183 0.239501 0.003995
v 6.870747 0.237731 -0.006572
v 6.867340 0.238491 -0.005177
v 6.869115 0.238197 -0.005705
v 6.865493 0.238595 -0.004997
v 6.862897 0.239237 -0.000651
v 6.863177 0.242063 -0.025505
v 6.862700 0.240991 -0.030888
v 6.860128 0.239983 -0.030168
v 6.861014 0.241105 -0.025080
v 6.862044 0.240943 -0.020675
v 6.863726 0.241758 -0.020860
v 6.865493 0.242405 -0.025680
v 6.865493 0.241360 -0.031184
v 6.862296 0.237819 -0.036599
v 6.859117 0.239588 -0.024509
v 6.860537 0.239554 -0.020447
v 6.862835 0.239595 -0.017346
v 6.865493 0.240397 -0.017510
v 6.865493 0.242023 -0.020950
v 6.867260 0.241758 -0.020860
v 6.867810 0.242063 -0.025505
v 6.859468 0.236717 -0.035441
v 6.865493 0.238194 -0.037031
v 6.862080 0.233144 -0.041120
v 6.859395 0.237745 -0.020199
v 6.860753 0.236841 -0.017263
v 6.865493 0.231724 -0.007894
v 6.868152 0.239595 -0.017346
v 6.868943 0.240943 -0.020675
v 6.859062 0.232214 -0.039664
v 6.857024 0.235212 -0.033922
v 6.857903 0.238413 -0.029176
v 6.858791 0.235653 -0.019936
v 6.857745 0.237553 -0.023771
v 6.859898 0.233382 -0.017324
v 6.870450 0.239554 -0.020447
v 6.870234 0.236841 -0.017263
v 6.869972 0.241105 -0.025080
v 6.856346 0.236265 -0.027837
v 6.858634 0.233523 -0.019674
v 6.857327 0.235084 -0.022917
v 6.858822 0.231552 -0.019413
v 6.860148 0.230140 -0.017222
v 6.871870 0.239588 -0.024509
v 6.871592 0.237745 -0.020199
v 6.870858 0.239983 -0.030168
v 6.868286 0.240991 -0.030888
v 6.857431 0.232632 -0.021986
v 6.857988 0.230428 -0.021106
v 6.859173 0.229685 -0.019160
v 6.871089 0.233382 -0.017324
v 6.870838 0.230140 -0.017222
v 6.872196 0.235653 -0.019936
v 6.873242 0.237553 -0.023771
v 6.868691 0.237819 -0.036599
v 6.856494 0.230959 -0.024524
v 6.858754 0.228379 -0.020268
v 6.872353 0.233523 -0.019674
v 6.872164 0.231552 -0.019413
v 6.871813 0.229685 -0.019160
v 6.873660 0.235084 -0.022917
v 6.874641 0.236265 -0.027837
v 6.868906 0.233144 -0.041120
v 6.865493 0.233472 -0.041656
v 6.856130 0.233585 -0.026224
v 6.858748 0.226443 -0.021487
v 6.872998 0.230428 -0.021106
v 6.872232 0.228379 -0.020268
v 6.873084 0.238413 -0.029176
v 6.865493 0.227782 -0.044486
v 6.862081 0.227544 -0.043903
v 6.858921 0.226944 -0.042476
v 6.855094 0.230738 -0.029481
v 6.857477 0.228611 -0.022963
v 6.857121 0.226028 -0.024764
v 6.858946 0.223967 -0.022703
v 6.872239 0.226443 -0.021487
v 6.873962 0.235212 -0.033922
v 6.862127 0.222323 -0.045334
v 6.856396 0.230996 -0.037777
v 6.855684 0.228258 -0.026987
v 6.856878 0.223249 -0.026367
v 6.859122 0.221444 -0.023896
v 6.873509 0.228611 -0.022963
v 6.873866 0.226028 -0.024764
v 6.872041 0.223967 -0.022703
v 6.854511 0.229372 -0.035277
v 6.855290 0.233234 -0.031924
v 6.854326 0.227291 -0.032183
v 6.855094 0.225184 -0.029076
v 6.859288 0.218642 -0.025246
v 6.874493 0.230959 -0.024524
v 6.871864 0.221444 -0.023896
v 6.873556 0.232632 -0.021986
v 6.854844 0.221677 -0.030862
v 6.854145 0.224878 -0.037742
v 6.853975 0.223316 -0.034300
v 6.856815 0.220123 -0.027911
v 6.856833 0.216319 -0.029290
v 6.859393 0.215108 -0.026650
v 6.874108 0.223249 -0.026367
v 6.871699 0.218642 -0.025246
v 6.853987 0.218963 -0.035691
v 6.860247 0.211921 -0.027542
v 6.875303 0.228258 -0.026987
v 6.874171 0.220123 -0.027911
v 6.876143 0.221677 -0.030862
v 6.875893 0.225184 -0.029076
v 6.874154 0.216319 -0.029290
v 6.871593 0.215108 -0.026650
v 6.874857 0.233585 -0.026224
v 6.875892 0.230738 -0.029481
v 6.857060 0.211679 -0.030768
v 6.857520 0.206497 -0.032372
v 6.860080 0.205500 -0.030496
v 6.876660 0.227291 -0.032183
v 6.870739 0.211921 -0.027542
v 6.875696 0.233234 -0.031924
v 6.876476 0.229372 -0.035277
v 6.854812 0.217598 -0.032236
v 6.855069 0.212849 -0.033542
v 6.860586 0.200523 -0.033008
v 6.862751 0.204857 -0.029352
v 6.877011 0.223316 -0.034300
v 6.876842 0.224878 -0.037742
v 6.874590 0.230996 -0.037777
v 6.855616 0.207783 -0.034848
v 6.854971 0.209294 -0.037746
v 6.854353 0.214170 -0.036787
v 6.863000 0.199862 -0.032038
v 6.865493 0.199630 -0.031703
v 6.876999 0.218963 -0.035691
v 6.876174 0.217598 -0.032236
v 6.854229 0.220231 -0.039163
v 6.854946 0.215405 -0.039944
v 6.856554 0.202987 -0.036667
v 6.858275 0.201585 -0.034589
v 6.863394 0.196667 -0.035716
v 6.875918 0.212849 -0.033542
v 6.873927 0.211679 -0.030768
v 6.856211 0.221200 -0.041894
v 6.859486 0.198175 -0.037814
v 6.861372 0.197235 -0.036541
v 6.876634 0.214170 -0.036787
v 6.876016 0.209294 -0.037746
v 6.875371 0.207783 -0.034848
v 6.873466 0.206497 -0.032372
v 6.870907 0.205500 -0.030496
v 6.861971 0.195865 -0.039092
v 6.876041 0.215405 -0.039944
v 6.874433 0.202987 -0.036667
v 6.876758 0.220231 -0.039163
v 6.870401 0.200523 -0.033008
v 6.872711 0.201585 -0.034589
v 6.868235 0.204857 -0.029352
v 6.863115 0.194450 -0.043300
v 6.863534 0.194915 -0.039634
v 6.861043 0.195873 -0.041005
v 6.874776 0.221200 -0.041894
v 6.874882 0.226082 -0.040475
v 6.871500 0.198175 -0.037814
v 6.867986 0.199862 -0.032038
v 6.865493 0.194679 -0.039649
v 6.859989 0.196792 -0.042588
v 6.865493 0.196478 -0.035414
v 6.858099 0.199423 -0.039410
v 6.872066 0.226944 -0.042476
v 6.871925 0.232214 -0.039664
v 6.867592 0.196667 -0.035716
v 6.855975 0.204652 -0.039083
v 6.857612 0.200901 -0.041190
v 6.871518 0.236717 -0.035441
v 6.869614 0.197235 -0.036541
v 6.855573 0.210721 -0.040572
v 6.856520 0.206232 -0.041451
v 6.868906 0.227544 -0.043903
v 6.869016 0.195865 -0.039092
v 6.857352 0.211762 -0.042830
v 6.856824 0.216316 -0.042427
v 6.868860 0.222323 -0.045334
v 6.865493 0.222492 -0.045931
v 6.871980 0.221877 -0.043891
v 6.867453 0.194915 -0.039634
v 6.859446 0.216931 -0.044273
v 6.868619 0.217294 -0.045610
v 6.865493 0.217414 -0.046160
v 6.871541 0.216931 -0.044273
v 6.874163 0.216316 -0.042427
v 6.867871 0.194450 -0.043300
v 6.865493 0.193956 -0.044203
v 6.868424 0.212817 -0.045682
v 6.873635 0.211762 -0.042830
v 6.871171 0.212446 -0.044510
v 6.875413 0.210721 -0.040572
v 6.865493 0.193162 -0.051486
v 6.862280 0.194954 -0.045796
v 6.869944 0.195873 -0.041005
v 6.870647 0.208162 -0.044853
v 6.874467 0.206232 -0.041451
v 6.872870 0.207395 -0.043395
v 6.875012 0.204652 -0.039083
v 6.859423 0.198022 -0.043710
v 6.861305 0.196096 -0.046240
v 6.870998 0.196792 -0.042588
v 6.872888 0.199423 -0.039410
v 6.871662 0.203388 -0.044436
v 6.873374 0.200901 -0.041190
v 6.872952 0.202317 -0.042938
v 6.858035 0.202317 -0.042938
v 6.859895 0.199095 -0.045050
v 6.862186 0.196733 -0.047580
v 6.868706 0.194954 -0.045796
v 6.871564 0.198022 -0.043710
v 6.871092 0.199095 -0.045050
v 6.859324 0.203388 -0.044436
v 6.860884 0.200230 -0.045968
v 6.862995 0.198439 -0.047733
v 6.858116 0.207395 -0.043395
v 6.869681 0.196096 -0.046240
v 6.870103 0.200230 -0.045968
v 6.868800 0.196733 -0.047580
v 6.867991 0.198439 -0.047733
v 6.861798 0.201705 -0.046267
v 6.859816 0.212446 -0.044510
v 6.860339 0.208162 -0.044853
v 6.869188 0.201705 -0.046267
v 6.869833 0.204121 -0.045594
v 6.862562 0.212817 -0.045682
v 6.861153 0.204121 -0.045594
v 6.862833 0.208576 -0.045823
v 6.863244 0.204550 -0.046359
v 6.865493 0.197928 -0.048672
v 6.867577 0.201072 -0.047165
v 6.867743 0.204550 -0.046359
v 6.868153 0.208576 -0.045823
v 6.865493 0.208696 -0.046191
v 6.865493 0.201040 -0.047586
v 6.863410 0.201072 -0.047165
v 6.865493 0.204692 -0.046647
v 6.865493 0.212925 -0.046148
v 6.862368 0.217294 -0.045610
v 6.859007 0.221877 -0.043891
v 6.856105 0.226082 -0.040475
vn -0.2847 -0.5480 0.7865
vn 0.2473 -0.8948 0.3718
vn 0.2525 -0.8305 0.4966
vn -0.0780 -0.3398 0.9372
vn -0.1462 -0.4654 0.8730
vn -0.0266 -0.3271 0.9446
vn -0.0188 -0.2098 0.9776
vn -0.0257 -0.1660 0.9858
vn -0.5519 -0.8105 0.1961
vn -0.5486 -0.7171 -0.4299
vn -0.0457 -0.6995 0.7132
vn -0.0458 -0.6995 0.7131
vn -0.2996 -0.8886 0.3473
vn 0.3300 -0.4500 -0.8298
vn 0.4668 -0.8500 -0.2439
vn 0.4664 -0.8482 -0.2512
vn 0.4721 -0.8496 -0.2353
vn 0.4779 -0.8496 -0.2231
vn 0.4835 -0.8488 -0.2139
vn 0.4930 -0.8466 -0.2005
vn 0.5039 -0.8432 -0.1874
vn 0.5169 -0.8380 -0.1748
vn 0.5382 -0.8277 -0.1586
vn 0.6157 -0.7781 -0.1248
vn 0.5705 -0.8091 -0.1412
vn 0.0366 0.1549 -0.9873
vn 0.0221 0.1870 -0.9821
vn -0.0140 0.2947 -0.9555
vn -0.0395 0.3926 -0.9188
vn 0.0104 0.2191 -0.9756
vn -0.0527 0.4587 -0.8870
vn 0.2994 -0.8887 0.3473
vn 0.1652 -0.5330 0.8298
vn 0.5484 -0.7168 -0.4307
vn 0.0458 -0.6995 0.7131
vn 0.5520 -0.8106 0.1956
vn 0.0457 -0.6995 0.7132
vn 0.0326 -0.2235 0.9742
vn 0.0315 -0.1806 0.9831
vn 0.0287 -0.3564 0.9339
vn 0.0349 -0.3244 0.9453
vn 0.0401 -0.2965 0.9542
vn -0.9499 0.0432 0.3095
vn -0.9031 0.0467 0.4268
vn -0.9220 0.1927 0.3359
vn -0.9580 0.1086 0.2654
vn -0.9000 -0.1178 0.4196
vn -0.8474 -0.1215 0.5169
vn 0.7568 0.3734 0.5364
vn 0.7967 0.4403 0.4139
vn 0.6752 0.6467 0.3549
vn 0.4463 0.6993 0.5583
vn -0.9182 -0.0428 0.3937
vn -0.8946 0.0067 0.4469
vn -0.9122 0.0867 0.4005
vn -0.9565 0.0502 0.2875
vn 0.8259 -0.4253 -0.3701
vn 0.7383 0.0261 -0.6739
vn 0.7921 -0.0808 -0.6050
vn 0.8714 -0.3849 -0.3040
vn -0.9597 0.1952 0.2023
vn -0.9115 0.3288 0.2470
vn -0.9442 0.2622 -0.1992
vn -0.9901 0.0603 0.1270
vn -0.9792 0.1042 0.1742
vn -0.9348 0.3427 -0.0933
vn -0.7841 -0.2828 0.5524
vn -0.7380 -0.3607 0.5703
vn -0.9914 0.0606 0.1157
vn -0.9861 -0.0145 0.1654
vn -0.9685 0.1272 0.2139
vn -0.9469 0.1460 -0.2864
vn -0.7340 0.2685 -0.6238
vn -0.7141 0.0879 -0.6945
vn -0.9344 0.0128 -0.3560
vn 0.2454 0.7115 -0.6585
vn 0.3359 0.6559 -0.6760
vn 0.2944 0.6364 -0.7129
vn 0.2313 0.6982 -0.6775
vn 0.4564 0.6801 0.5737
vn 0.6584 0.5211 0.5432
vn 0.6088 0.6686 0.4271
vn 0.4057 0.7871 0.4646
vn -0.9460 0.2706 0.1786
vn -0.8127 0.2632 0.5199
vn -0.7948 0.1403 0.5905
vn -0.8684 -0.1107 -0.4833
vn -0.9608 -0.2403 -0.1384
vn -0.9862 -0.1515 -0.0662
vn -0.8910 -0.0746 -0.4478
vn 0.8774 0.4597 -0.1372
vn 0.8496 0.5243 -0.0577
vn 0.9030 0.4297 0.0021
vn 0.9289 0.3612 -0.0814
vn 0.2865 0.7365 -0.6127
vn 0.3802 0.6855 -0.6210
vn -0.3754 0.8839 -0.2789
vn -0.4043 0.8469 -0.3454
vn -0.5477 0.7931 -0.2665
vn -0.5097 0.8389 -0.1908
vn -0.2332 -0.1848 -0.9547
vn -0.0000 -0.2736 -0.9618
vn -0.0000 -0.3302 -0.9439
vn -0.2056 -0.3123 -0.9275
vn -0.0000 0.4256 -0.9049
vn -0.0000 0.2649 -0.9643
vn 0.3194 0.2308 -0.9191
vn 0.4604 0.2522 -0.8511
vn -0.8217 0.3855 0.4197
vn -0.8125 0.4273 0.3965
vn -0.8957 0.4120 0.1671
vn -0.2318 0.5808 0.7803
vn -0.2213 0.6750 0.7038
vn -0.4598 0.6115 0.6439
vn -0.4715 0.5198 0.7124
vn 0.4766 0.8790 0.0171
vn 0.3785 0.9238 0.0580
vn 0.4433 0.8833 0.1526
vn 0.5578 0.8233 0.1050
vn -0.5433 -0.0775 -0.8359
vn -0.5632 -0.2267 -0.7946
vn -0.7170 -0.1613 -0.6782
vn -0.6800 -0.0221 -0.7329
vn 0.3826 0.0257 -0.9236
vn 0.3818 -0.1294 -0.9151
vn 0.2332 -0.1848 -0.9547
vn 0.2999 -0.0238 -0.9537
vn -0.7957 -0.2243 0.5626
vn -0.7630 -0.2527 0.5949
vn -0.6858 -0.2918 0.6667
vn -0.7323 -0.2696 0.6253
vn -0.8937 -0.1106 0.4348
vn -0.8943 -0.1700 0.4138
vn -0.8691 -0.2317 0.4370
vn -0.8838 -0.1740 0.4343
vn -0.3796 0.9234 0.0570
vn -0.3042 0.9512 -0.0518
vn -0.3833 0.9193 -0.0889
vn -0.4802 0.8771 0.0119
vn -0.2439 0.0662 0.9676
vn -0.2730 -0.0148 0.9619
vn -0.0474 0.0473 0.9978
vn 0.9972 -0.0629 0.0407
vn 0.9344 0.0128 -0.3560
vn 0.9469 0.1460 -0.2864
vn 0.9963 0.0002 0.0861
vn 0.8681 -0.0608 0.4926
vn 0.8696 -0.0945 0.4847
vn 0.8772 -0.0577 0.4766
vn 0.8591 0.0706 0.5069
vn 0.8438 -0.4554 -0.2840
vn 0.8081 -0.5352 -0.2461
vn 0.6891 -0.6049 -0.3990
vn 0.7261 -0.5421 -0.4230
vn -0.0874 -0.0007 0.9962
vn 0.0916 -0.0146 0.9957
vn -0.0000 0.7963 -0.6049
vn -0.0000 0.5785 -0.8157
vn -0.3327 0.5516 -0.7649
vn -0.3252 0.7572 -0.5665
vn 0.6560 0.0238 -0.7544
vn 0.4681 0.1046 -0.8775
vn 0.4707 0.0380 -0.8815
vn 0.6696 -0.0125 -0.7426
vn 0.7833 0.6107 -0.1158
vn 0.8105 0.5525 -0.1945
vn 0.8978 0.4016 0.1805
vn 0.8525 0.5129 0.1008
vn 0.7787 0.6003 0.1823
vn 0.8352 0.4809 0.2668
vn 0.2797 0.3018 0.9114
vn 0.2401 0.0700 0.9682
vn 0.4646 0.2521 0.8489
vn 0.9223 -0.3446 -0.1749
vn 0.8963 -0.4188 -0.1459
vn 0.4713 0.8301 0.2978
vn 0.2470 0.9312 0.2681
vn -0.0000 0.8319 0.5549
vn 0.4371 -0.0502 0.8980
vn 0.9637 0.2192 0.1522
vn 0.9226 0.2877 0.2569
vn 0.9310 0.1967 0.3074
vn 0.9673 0.1303 0.2176
vn -0.8480 0.5269 -0.0571
vn -0.8768 0.4611 -0.1366
vn -0.9288 0.3617 -0.0813
vn -0.9024 0.4309 0.0034
vn -0.0000 0.0248 -0.9997
vn -0.2939 0.0218 -0.9556
vn -0.3068 0.1459 -0.9405
vn -0.0000 0.1568 -0.9876
vn -0.0000 -0.4692 -0.8831
vn -0.2143 -0.4574 -0.8631
vn 0.5074 0.3691 0.7787
vn 0.6349 0.4875 0.5994
vn 0.5173 0.4517 0.7269
vn 0.7185 0.6860 0.1149
vn 0.6227 0.7624 0.1759
vn 0.6824 0.6919 0.2358
vn 0.5707 0.6820 -0.4573
vn 0.7116 0.5773 -0.4004
vn 0.6874 0.5358 -0.4903
vn 0.5475 0.6458 -0.5321
vn 0.2502 0.9632 0.0984
vn 0.2880 0.9374 0.1957
vn -0.9673 -0.2498 0.0446
vn -0.9768 -0.1974 0.0834
vn -0.9916 -0.1121 0.0645
vn -0.9828 -0.1847 0.0035
vn 0.7423 -0.4225 -0.5201
vn 0.8667 -0.3283 -0.3756
vn -0.8797 0.2882 0.3782
vn -0.8377 0.1287 0.5308
vn -0.8237 0.0396 0.5656
vn 0.4776 0.5832 0.6571
vn 0.3763 0.9226 -0.0849
vn 0.2723 0.9435 -0.1889
vn 0.2236 0.9610 -0.1626
vn 0.3024 0.9518 -0.0509
vn 0.5485 -0.6124 -0.5694
vn 0.5672 -0.5035 -0.6517
vn 0.3208 0.9066 0.2743
vn 0.1229 0.9671 0.2227
vn 0.1352 0.9422 0.3065
vn 0.2736 -0.8187 0.5048
vn 0.5046 -0.7514 0.4253
vn 0.5363 -0.5584 0.6329
vn 0.2999 -0.6088 0.7345
vn 0.5063 0.8402 -0.1944
vn 0.4430 0.8875 -0.1270
vn 0.5602 0.8277 -0.0313
vn 0.6346 0.7662 -0.1013
vn 0.4715 0.2166 -0.8549
vn 0.5654 0.2520 -0.7854
vn 0.6290 0.1151 -0.7689
vn 0.5143 0.0716 -0.8546
vn 0.9916 -0.1120 0.0644
vn 0.9862 -0.0144 0.1651
vn 0.9785 -0.0762 0.1915
vn 0.9769 -0.1969 0.0831
vn -0.6565 -0.2949 0.6943
vn -0.5457 -0.1731 0.8199
vn -0.5864 -0.0765 0.8064
vn -0.7106 -0.1987 0.6749
vn -0.8594 0.0482 0.5090
vn -0.1525 0.9089 0.3881
vn -0.1360 0.9420 0.3067
vn -0.3268 0.9034 0.2775
vn -0.3626 0.8609 0.3569
vn 0.3668 0.8856 -0.2849
vn 0.5491 0.7878 -0.2790
vn 0.4003 0.8446 -0.3555
vn 0.2787 0.9597 -0.0350
vn 0.2986 0.9019 -0.3120
vn -0.0000 0.9407 -0.3394
vn -0.0000 0.9983 -0.0576
vn -0.8429 -0.2208 0.4907
vn -0.8024 -0.2714 0.5315
vn -0.8336 -0.2543 0.4904
vn -0.8674 -0.1979 0.4566
vn -0.4262 -0.0677 0.9021
vn -0.4374 0.0293 0.8988
vn 0.8192 0.4627 -0.3388
vn 0.7989 0.4112 -0.4389
vn -0.2250 0.9606 -0.1629
vn -0.2785 0.9414 -0.1900
vn -0.1919 0.9428 -0.2726
vn -0.1627 0.9537 -0.2530
vn -0.9177 -0.3237 -0.2302
vn -0.8480 -0.5257 0.0679
vn -0.8987 -0.3824 0.2146
vn 0.2088 0.6684 0.7139
vn 0.2568 0.5538 0.7921
vn 0.9914 0.0606 0.1156
vn 0.9873 0.1511 0.0490
vn 0.1163 0.7894 -0.6027
vn 0.1619 0.8058 -0.5696
vn -0.8919 0.3509 -0.2854
vn -0.9438 0.2337 -0.2337
vn -0.9413 0.3011 -0.1525
vn -0.8897 0.4075 -0.2058
vn -0.9669 0.2544 -0.0189
vn -0.9873 0.1511 0.0491
vn -0.9638 0.2229 0.1466
vn -0.9428 0.3247 0.0750
vn 0.1471 0.9117 0.3835
vn 0.3510 0.8708 0.3442
vn -0.0506 0.1941 0.9797
vn -0.0345 0.3715 0.9278
vn -0.0000 0.9998 0.0201
vn -0.0999 0.9949 0.0106
vn -0.1122 0.9854 0.1281
vn -0.0000 0.9904 0.1379
vn 0.8815 0.0698 0.4671
vn 0.8674 0.2173 0.4478
vn -0.4264 0.7911 -0.4386
vn -0.4297 0.7585 -0.4899
vn -0.5707 0.6820 -0.4573
vn -0.5740 0.7170 -0.3955
vn 0.9413 0.3010 -0.1526
vn 0.8898 0.4072 -0.2060
vn 0.9669 0.2543 -0.0189
vn 0.9434 0.3235 0.0734
vn -0.9514 -0.1902 0.2422
vn -0.9239 -0.0459 0.3798
vn -0.7437 -0.3159 0.5892
vn -0.7276 -0.4909 0.4791
vn -0.5363 -0.5584 0.6329
vn -0.5857 -0.3785 0.7167
vn 0.3039 0.4873 -0.8186
vn 0.3239 0.5163 -0.7928
vn 0.4036 0.3738 -0.8351
vn 0.3546 0.3371 -0.8721
vn 0.4806 0.4014 -0.7796
vn 0.8206 0.5079 -0.2621
vn -0.9407 -0.2430 0.2368
vn 0.7170 -0.1613 -0.6782
vn 0.7383 -0.2937 -0.6071
vn 0.5740 -0.3688 -0.7311
vn 0.5632 -0.2267 -0.7946
vn 0.7141 0.0879 -0.6945
vn 0.5149 0.1244 -0.8482
vn 0.5368 0.3144 -0.7829
vn 0.7340 0.2685 -0.6238
vn 0.6500 0.7584 0.0482
vn 0.7275 0.6856 -0.0261
vn -0.1676 0.8619 -0.4786
vn -0.1619 0.8058 -0.5696
vn -0.3082 0.7770 -0.5489
vn -0.3126 0.8097 -0.4967
vn -0.9515 -0.3035 0.0498
vn -0.0000 0.9733 0.2296
vn -0.0000 0.9493 0.3143
vn -0.0000 -0.6550 0.7556
vn -0.0000 -0.8459 0.5334
vn -0.2226 0.9272 -0.3013
vn -0.2575 0.9013 -0.3483
vn -0.3288 0.9173 -0.2246
vn -0.7786 0.6169 -0.1148
vn -0.7940 0.6068 0.0370
vn -0.7236 0.6895 -0.0295
vn 0.3068 0.1459 -0.9405
vn 0.4962 0.0133 -0.8681
vn 0.2939 0.0218 -0.9556
vn -0.0622 0.9736 -0.2195
vn -0.0000 0.9408 -0.3388
vn -0.0694 0.9342 -0.3499
vn -0.1159 0.9656 -0.2326
vn -0.4005 -0.5616 -0.7240
vn -0.3772 -0.6663 -0.6432
vn -0.5485 -0.6124 -0.5694
vn -0.5672 -0.5035 -0.6517
vn 0.7426 0.5590 0.3688
vn 0.7811 0.3471 0.5191
vn 0.8647 0.3329 0.3761
vn -0.2566 0.3408 0.9044
vn -0.2443 0.4667 0.8500
vn -0.4759 0.4043 0.7811
vn -0.4694 0.2920 0.8333
vn 0.6800 -0.0221 -0.7329
vn 0.5433 -0.0775 -0.8359
vn 0.7054 0.6981 0.1228
vn 0.7321 0.6669 -0.1387
vn 0.5342 0.8087 -0.2460
vn 0.5133 0.8578 0.0272
vn -0.6494 0.6095 0.4548
vn -0.6698 0.5289 0.5211
vn -0.4313 0.7135 0.5521
vn 0.4972 0.8379 0.2254
vn 0.2073 0.9781 -0.0162
vn -0.9212 0.3081 0.2377
vn -0.8944 0.4088 0.1813
vn 0.1990 -0.7164 -0.6687
vn 0.1789 -0.7648 -0.6189
vn -0.0000 -0.7868 -0.6172
vn -0.0000 -0.7378 -0.6750
vn 0.0999 0.9949 0.0106
vn 0.1122 0.9854 0.1281
vn 0.8628 0.4417 0.2461
vn -0.2865 0.7365 -0.6127
vn -0.3802 0.6855 -0.6210
vn -0.4154 0.7225 -0.5527
vn 0.4154 0.7225 -0.5527
vn 0.5001 0.6049 -0.6197
vn -0.1232 0.9670 0.2229
vn 0.3252 0.7572 -0.5665
vn 0.1592 0.9776 -0.1375
vn 0.6869 0.7014 -0.1903
vn -0.1593 0.9776 -0.1375
vn 0.4005 -0.5616 -0.7240
vn 0.3772 -0.6663 -0.6432
vn 0.2172 -0.6022 -0.7682
vn -0.5149 0.1244 -0.8482
vn -0.4962 0.0133 -0.8681
vn -0.6913 -0.0106 -0.7225
vn -0.6696 -0.0125 -0.7426
vn -0.6560 0.0238 -0.7544
vn -0.8384 -0.1241 -0.5307
vn -0.4006 0.7980 0.4502
vn -0.6110 0.6962 0.3769
vn 0.2143 -0.4574 -0.8631
vn 0.2056 -0.3123 -0.9275
vn 0.3895 -0.2788 -0.8778
vn 0.3987 -0.4246 -0.8128
vn 0.1622 0.9538 -0.2530
vn 0.1159 0.9656 -0.2326
vn 0.1900 0.9432 -0.2725
vn -0.8084 0.5563 -0.1924
vn -0.9113 0.4083 0.0539
vn -0.8628 0.4417 0.2461
vn -0.7054 0.6981 0.1228
vn -0.7321 0.6669 -0.1387
vn -0.7161 0.6157 -0.3288
vn -0.8203 0.5087 -0.2615
vn -0.7065 0.6578 -0.2612
vn -0.3895 -0.2788 -0.8778
vn -0.3818 -0.1294 -0.9151
vn -0.2599 0.2197 0.9403
vn -0.4576 0.1869 0.8693
vn 0.5664 0.7480 -0.3459
vn 0.7096 0.6520 -0.2671
vn 0.6074 0.1105 -0.7867
vn 0.8384 -0.1241 -0.5307
vn -0.2827 0.8707 -0.4025
vn -0.5589 0.7712 0.3049
vn -0.6883 0.6775 0.2595
vn -0.7418 0.5886 0.3215
vn 0.4703 0.1640 -0.8672
vn -0.2470 0.9312 0.2681
vn -0.0000 0.9685 0.2491
vn -0.2787 0.9597 -0.0350
vn -0.7674 -0.0061 0.6411
vn -0.6284 0.1124 0.7697
vn -0.6500 0.2325 0.7235
vn 0.9936 -0.0967 -0.0584
vn 0.9997 -0.0209 0.0147
vn 0.9828 -0.1847 0.0035
vn 0.7043 0.2476 0.6653
vn -0.9341 0.1980 0.2972
vn 0.9581 0.0553 0.2810
vn 0.9176 -0.0452 0.3948
vn -0.9784 -0.0765 0.1919
vn 0.9674 -0.2495 0.0443
vn -0.9291 0.1601 -0.3335
vn -0.8825 0.0887 -0.4619
vn -0.9190 -0.0293 -0.3931
vn -0.9615 0.0387 -0.2720
vn -0.2073 0.9781 -0.0162
vn 0.7972 0.2292 0.5585
vn 0.9684 -0.2412 -0.0640
vn 0.9574 -0.2871 -0.0305
vn 0.9779 -0.1604 -0.1342
vn -0.9232 0.1845 0.3371
vn -0.8674 0.2173 0.4478
vn -0.7967 0.4403 0.4139
vn 0.9404 -0.2369 -0.2440
vn 0.9380 -0.1345 -0.3195
vn 0.9767 -0.0682 -0.2037
vn -0.7755 -0.2594 0.5756
vn -0.8222 -0.2201 0.5249
vn 0.9933 -0.0009 -0.1156
vn -0.5606 0.6727 -0.4829
vn -0.5342 0.8087 -0.2460
vn -0.2986 0.9019 -0.3120
vn -0.0000 -0.9621 0.2728
vn 0.2789 -0.9242 0.2609
vn 0.9291 0.1601 -0.3335
vn 0.9438 0.2337 -0.2337
vn 0.9779 0.1120 -0.1764
vn 0.9615 0.0387 -0.2720
vn 0.5740 0.7158 -0.3977
vn 0.7165 0.6144 -0.3303
vn 0.6587 0.2947 -0.6923
vn 0.7356 0.1605 -0.6581
vn -0.1990 -0.7164 -0.6687
vn -0.1789 -0.7648 -0.6189
vn -0.3490 -0.7132 -0.6078
vn 0.9177 -0.3237 -0.2302
vn 0.8684 -0.1107 -0.4833
vn 0.9608 -0.2403 -0.1384
vn 0.8919 0.3509 -0.2854
vn -0.3833 0.5382 -0.7506
vn -0.4806 0.4014 -0.7796
vn -0.5578 0.4382 -0.7048
vn -0.4410 0.5674 -0.6954
vn -0.9972 -0.0629 0.0407
vn -0.9271 -0.1363 0.3492
vn -0.9319 -0.1149 0.3440
vn -0.9963 0.0002 0.0861
vn -0.1402 0.8971 -0.4189
vn -0.6279 0.7563 0.1840
vn -0.5604 0.8216 0.1042
vn -0.6502 0.7585 0.0439
vn -0.7200 0.6834 0.1204
vn 0.0622 0.9736 -0.2195
vn -0.0000 0.9770 -0.2131
vn -0.0000 0.9937 -0.1123
vn 0.0818 0.9895 -0.1190
vn -0.2667 0.1521 -0.9517
vn -0.0000 0.1735 -0.9848
vn -0.3194 0.2308 -0.9191
vn -0.1069 0.9213 -0.3738
vn 0.3616 0.1837 -0.9140
vn -0.7969 0.0302 -0.6033
vn -0.8391 -0.0941 -0.5358
vn -0.3359 0.6559 -0.6760
vn -0.5001 0.6049 -0.6197
vn 0.9190 -0.0293 -0.3931
vn 0.8825 0.0887 -0.4619
vn 0.7437 -0.3159 0.5892
vn 0.9194 -0.2395 0.3120
vn 0.9245 -0.1721 0.3400
vn 0.7630 -0.2527 0.5949
vn 0.3187 0.3408 -0.8844
vn 0.3327 0.5516 -0.7649
vn 0.5612 0.5013 -0.6586
vn 0.8621 -0.2104 -0.4610
vn 0.8391 -0.0941 -0.5358
vn 0.4297 0.7585 -0.4899
vn 0.3126 0.8097 -0.4967
vn 0.3040 0.8390 -0.4513
vn 0.4261 0.7904 -0.4402
vn -0.1588 0.8789 -0.4499
vn -0.0000 0.8796 -0.4757
vn -0.3041 0.8392 -0.4509
vn 0.6331 0.4856 -0.6028
vn 0.5578 0.4382 -0.7048
vn 0.4410 0.5674 -0.6954
vn 0.9519 -0.1893 0.2407
vn 0.9520 -0.3022 0.0491
vn 0.3082 0.7770 -0.5489
vn 0.1676 0.8619 -0.4786
vn -0.6587 0.2947 -0.6923
vn -0.7439 0.3505 -0.5690
vn -0.6331 0.4856 -0.6028
vn 0.6803 -0.0171 -0.7327
vn 0.4821 0.0071 -0.8761
vn 0.6913 -0.0106 -0.7225
vn -0.9936 -0.0967 -0.0584
vn -0.9997 -0.0209 0.0147
vn -0.4703 0.1640 -0.8672
vn -0.4604 0.2522 -0.8511
vn -0.6074 0.1105 -0.7867
vn -0.8547 0.4117 0.3162
vn -0.6665 0.3393 0.6639
vn -0.4163 0.8181 -0.3968
vn -0.2908 0.8557 -0.4280
vn 0.7969 0.0302 -0.6033
vn -0.6705 0.4553 0.5857
vn 0.2667 0.1521 -0.9517
vn 0.0694 0.9342 -0.3499
vn 0.6891 -0.6649 0.2882
vn 0.8480 -0.5257 0.0679
vn 0.8987 -0.3824 0.2146
vn 0.7276 -0.4909 0.4791
vn -0.5626 0.8258 -0.0402
vn -0.4524 0.8820 -0.1320
vn -0.6301 0.7694 -0.1046
vn -0.2944 0.6364 -0.7129
vn -0.2755 0.6108 -0.7423
vn -0.3239 0.5163 -0.7928
vn -0.2454 0.7115 -0.6585
vn 0.7439 0.3505 -0.5690
vn 0.1588 0.8789 -0.4499
vn 0.1402 0.8972 -0.4189
vn 0.2809 0.8700 -0.4052
vn 0.2902 0.8551 -0.4296
vn 0.3833 0.5382 -0.7506
vn 0.9232 0.1845 0.3371
vn 0.9623 0.1388 0.2339
vn 0.9113 0.4083 0.0539
vn 0.8242 0.2187 -0.5224
vn -0.0026 0.6961 0.7180
vn 0.0016 0.7956 0.6058
vn -0.1954 0.7769 0.5986
vn 0.2755 0.6108 -0.7423
vn -0.2313 0.6983 -0.6775
vn -0.5612 0.5013 -0.6586
vn -0.7457 0.4324 -0.5070
vn -0.7470 0.5621 -0.3550
vn 0.3490 -0.7132 -0.6078
vn -0.2891 0.9369 0.1966
vn -0.8963 -0.4188 -0.1459
vn -0.9574 -0.2871 -0.0305
vn -0.9684 -0.2412 -0.0640
vn -0.9223 -0.3446 -0.1749
vn -0.1163 0.7895 -0.6027
vn -0.3039 0.4873 -0.8186
vn -0.8192 0.4627 -0.3388
vn 0.1886 0.7768 0.6009
vn 0.1660 0.8626 0.4779
vn 0.0008 0.8735 0.4868
vn -0.0000 -0.6190 -0.7854
vn 0.1069 0.9213 -0.3738
vn -0.8507 0.5145 0.1079
vn -0.0000 0.3561 -0.9344
vn -0.3187 0.3408 -0.8844
vn -0.5181 -0.6612 -0.5426
vn -0.3546 0.3371 -0.8721
vn -0.3038 0.1286 -0.9440
vn -0.3616 0.1837 -0.9140
vn 0.9778 0.1862 -0.0956
vn -0.2172 -0.6022 -0.7682
vn -0.6891 -0.6049 -0.3990
vn -0.7261 -0.5421 -0.4230
vn 0.2192 0.9279 -0.3017
vn 0.2542 0.9015 -0.3502
vn 0.3038 0.1286 -0.9440
vn -0.5740 -0.3688 -0.7311
vn -0.3987 -0.4246 -0.8128
vn -0.9399 -0.0247 0.3407
vn -0.9379 -0.0539 0.3427
vn -0.2999 -0.0238 -0.9537
vn -0.1046 -0.3909 -0.9145
vn -0.7423 -0.4225 -0.5201
vn -0.7383 -0.2937 -0.6071
vn -0.0000 -0.3509 -0.9364
vn -0.8438 -0.4554 -0.2840
vn -0.8667 -0.3283 -0.3756
vn -0.8081 -0.5352 -0.2461
vn 0.2844 0.4411 0.8512
vn 0.9964 0.0754 -0.0383
vn 0.1046 -0.3909 -0.9145
vn -0.3826 0.0257 -0.9236
vn -0.5143 0.0716 -0.8546
vn -0.9090 -0.0575 -0.4127
vn -0.9941 -0.1071 -0.0172
vn -0.2782 0.0107 -0.9605
vn -0.2629 0.0589 -0.9630
vn -0.4707 0.0380 -0.8815
vn -0.4821 0.0071 -0.8761
vn -0.8621 -0.2104 -0.4610
vn -0.9404 -0.2369 -0.2440
vn -0.9779 -0.1604 -0.1342
vn -0.9245 -0.1721 0.3400
vn -0.9194 -0.2395 0.3120
vn -0.9380 -0.1345 -0.3195
vn -0.6874 0.5358 -0.4903
vn -0.7989 0.4112 -0.4388
vn -0.7116 0.5773 -0.4004
vn 0.7953 0.6052 0.0347
vn -0.9767 -0.0682 -0.2037
vn -0.4715 0.2166 -0.8549
vn -0.4036 0.3738 -0.8351
vn -0.5654 0.7530 -0.3366
vn -0.9933 -0.0009 -0.1156
vn -0.6290 0.1151 -0.7689
vn -0.5654 0.2520 -0.7854
vn -0.7356 0.1605 -0.6581
vn -0.5475 0.6458 -0.5321
vn 0.9414 -0.2413 0.2355
vn -0.9355 -0.0883 0.3422
vn -0.7798 0.5042 0.3711
vn -0.8242 0.2187 -0.5223
vn 0.9216 -0.0534 0.3845
vn -0.0113 0.4990 0.8665
vn -0.8758 0.2872 -0.3879
vn 0.8955 0.0169 0.4447
vn -0.9779 0.1120 -0.1764
vn 0.4740 -0.8336 0.2837
vn 0.8564 0.1508 0.4937
vn 0.8089 0.1204 0.5755
vn 0.9119 0.1053 0.3968
vn -0.9964 0.0754 -0.0383
vn -0.9778 0.1862 -0.0956
vn 0.9862 -0.1515 -0.0662
vn 0.8910 -0.0746 -0.4478
vn 0.9090 -0.0575 -0.4127
vn 0.9941 -0.1071 -0.0172
vn -0.9194 0.0194 0.3929
vn 0.8610 0.2301 0.4536
vn -0.4681 0.1046 -0.8775
vn 0.3749 -0.9231 0.0850
vn 0.6372 -0.7656 -0.0883
vn 0.7567 -0.6524 -0.0422
vn 0.5830 -0.8006 0.1384
vn 0.5465 0.7877 0.2844
vn -0.0000 0.0099 -1.0000
vn -0.0002 0.9201 0.3917
vn 0.5606 0.6727 -0.4829
vn 0.7957 -0.2243 0.5626
vn 0.9271 -0.1363 0.3492
vn 0.9319 -0.1149 0.3440
vn 0.8222 -0.2201 0.5249
vn 0.8758 0.2872 -0.3879
vn -0.1727 0.8565 0.4865
vn -0.0017 0.6031 0.7977
vn 0.2782 0.0107 -0.9605
vn 0.7457 0.4324 -0.5070
vn -0.6801 0.7096 -0.1844
vn -0.4455 0.8819 0.1539
vn -0.5041 0.8315 0.2333
vn 0.9792 0.1042 0.1742
vn 0.9348 0.3427 -0.0933
vn -0.9623 0.1388 0.2339
vn 0.4151 0.8155 -0.4033
vn -0.2502 0.9632 0.0984
vn -0.6803 -0.0171 -0.7327
vn -0.8244 0.4982 0.2686
vn -0.7921 -0.0808 -0.6050
vn -0.8714 -0.3849 -0.3040
vn -0.0818 0.9895 -0.1190
vn 0.3184 0.9210 -0.2246
vn 0.3852 -0.4509 0.8052
vn 0.5857 -0.3785 0.7167
vn 0.7470 0.5621 -0.3550
vn -0.0000 -0.9923 0.1241
vn -0.4713 0.8301 0.2978
vn -0.6752 0.6467 0.3549
vn -0.4463 0.6994 0.5583
vn -0.0000 0.4827 0.8758
vn -0.7568 0.3734 0.5364
vn -0.7788 0.5949 0.1989
vn -0.8591 0.0706 0.5069
vn -0.5133 0.8578 0.0272
vn 0.9194 0.0194 0.3929
vn -0.8815 0.0698 0.4671
vn -0.8772 -0.0577 0.4766
vn -0.8681 -0.0608 0.4926
vn 0.8691 -0.2317 0.4370
vn 0.8336 -0.2543 0.4904
vn 0.8674 -0.1979 0.4566
vn 0.8943 -0.1700 0.4138
vn 0.5181 -0.6612 -0.5426
vn -0.7383 0.0261 -0.6739
vn 0.9399 -0.0247 0.3407
vn 0.8937 -0.1106 0.4348
vn -0.8696 -0.0945 0.4847
vn 0.7755 -0.2594 0.5756
vn 0.8429 -0.2208 0.4907
vn 0.8024 -0.2714 0.5315
vn 0.8838 -0.1740 0.4343
vn 0.9379 -0.0539 0.3427
vn 0.9355 -0.0883 0.3422
vn 0.9442 0.2622 -0.1992
vn 0.9901 0.0603 0.1270
vn 0.7323 -0.2696 0.6253
vn 0.6858 -0.2918 0.6667
vn -0.3852 -0.4509 0.8052
vn -0.2999 -0.6088 0.7345
vn -0.5046 -0.7514 0.4253
vn -0.6891 -0.6649 0.2882
vn -0.4740 -0.8336 0.2837
vn -0.7567 -0.6524 -0.0422
vn -0.8259 -0.4253 -0.3701
vn -0.6372 -0.7656 -0.0883
vn -0.3749 -0.9231 0.0850
vn -0.2789 -0.9242 0.2609
vn -0.5830 -0.8006 0.1384
vn -0.5368 0.3144 -0.7829
vn -0.2736 -0.8187 0.5048
vn -0.0000 0.0653 -0.9979
vn 0.2629 0.0589 -0.9630
vn -0.0000 -0.5401 -0.8416
vt 0.000000 0.000000
s 1
f 1/1/1 2/1/2 3/1/3
f 1/1/1 3/1/3 4/1/4
f 3/1/3 5/1/5 4/1/4
f 4/1/4 5/1/5 6/1/6
f 6/1/6 5/1/5 7/1/7
f 7/1/7 5/1/5 8/1/8
f 8/1/8 5/1/5 9/1/9
f 9/1/9 5/1/5 10/1/10
f 5/1/5 11/1/11 12/1/12
f 5/1/5 13/1/13 10/1/10
f 5/1/5 12/1/12 13/1/13
f 14/1/14 3/1/3 15/1/15
f 15/1/15 3/1/3 16/1/16
f 16/1/16 3/1/3 17/1/17
f 17/1/17 3/1/3 18/1/18
f 18/1/18 3/1/3 19/1/19
f 19/1/19 3/1/3 20/1/20
f 20/1/20 3/1/3 21/1/21
f 21/1/21 3/1/3 22/1/22
f 22/1/22 3/1/3 23/1/23
f 3/1/3 2/1/2 24/1/24
f 3/1/3 24/1/24 25/1/25
f 3/1/3 25/1/25 23/1/23
f 14/1/14 26/1/26 3/1/3
f 26/1/26 27/1/27 3/1/3
f 3/1/3 28/1/28 29/1/29
f 3/1/3 27/1/27 30/1/30
f 3/1/3 30/1/30 28/1/28
f 3/1/3 29/1/29 31/1/31
f 32/1/32 33/1/33 34/1/34
f 32/1/32 35/1/35 33/1/33
f 34/1/34 33/1/33 36/1/36
f 33/1/33 35/1/35 37/1/37
f 33/1/33 38/1/38 39/1/39
f 33/1/33 39/1/39 36/1/36
f 33/1/33 31/1/40 40/1/41
f 33/1/33 41/1/42 38/1/38
f 33/1/33 40/1/41 41/1/42
f 42/1/43 43/1/44 44/1/45
f 42/1/43 44/1/45 45/1/46
f 42/1/43 46/1/47 43/1/44
f 43/1/44 46/1/47 47/1/48
f 547/1/49 555/1/50 546/1/51 538/1/52
f 134/1/53 123/1/54 114/1/55 129/1/56
f 729/1/57 731/1/58 724/1/59 723/1/60
f 44/1/45 52/1/61 45/1/46
f 44/1/45 51/1/62 52/1/61
f 597/1/63 599/1/64 583/1/65 598/1/66
f 46/1/47 53/1/67 47/1/48
f 46/1/47 54/1/68 53/1/67
f 128/1/69 199/1/70 129/1/56 121/1/71
f 606/1/72 753/1/73 651/1/74 644/1/75
f 396/1/76 395/1/77 387/1/78 388/1/79
f 130/1/80 108/1/81 136/1/82 135/1/83
f 52/1/61 51/1/62 61/1/84
f 50/1/85 44/1/45 43/1/44 49/1/86
f 685/1/87 680/1/88 638/1/89 684/1/90
f 466/1/91 473/1/92 454/1/93 461/1/94
f 396/1/76 423/1/95 417/1/96 395/1/77
f 206/1/97 226/1/98 205/1/99 180/1/100
f 336/1/101 343/1/102 327/1/103 317/1/104
f 742/1/105 747/1/106 743/1/107 732/1/108
f 59/1/109 67/1/110 51/1/62
f 61/1/84 51/1/62 68/1/111
f 51/1/62 67/1/110 68/1/111
f 85/1/112 95/1/113 93/1/114 86/1/115
f 492/1/116 493/1/117 485/1/118 486/1/119
f 301/1/120 302/1/121 275/1/122 295/1/123
f 353/1/124 349/1/125 346/1/126 352/1/127
f 609/1/128 623/1/129 614/1/130 610/1/131
f 559/1/132 584/1/133 576/1/134 567/1/135
f 165/1/136 171/1/137 166/1/138 159/1/139
f 71/1/140 76/1/141 77/1/142
f 642/1/143 662/1/144 635/1/145 634/1/146
f 562/1/147 570/1/148 569/1/149 561/1/150
f 344/1/151 345/1/152 329/1/153 339/1/154
f 76/1/141 83/1/155 77/1/142
f 77/1/142 83/1/155 84/1/156
f 533/1/157 574/1/158 534/1/159 524/1/160
f 716/1/161 737/1/162 708/1/163 710/1/164
f 474/1/165 473/1/92 466/1/91 455/1/166
f 442/1/167 462/1/168 437/1/169 431/1/170
f 81/1/171 82/1/172 90/1/173
f 344/1/151 358/1/174 351/1/175 345/1/152
f 538/1/52 539/1/176 530/1/177 528/1/178
f 82/1/172 92/1/179 90/1/173
f 82/1/172 84/1/156 92/1/179
f 432/1/180 435/1/181 420/1/182 426/1/183
f 195/1/184 183/1/185 176/1/186 164/1/187
f 696/1/188 751/1/189 589/1/190 691/1/191
f 317/1/104 327/1/103 318/1/192 312/1/193
f 91/1/194 98/1/195 97/1/196
f 437/1/169 468/1/197 469/1/198 436/1/199
f 446/1/200 448/1/201 428/1/202 441/1/203
f 493/1/117 494/1/204 487/1/205 485/1/118
f 161/1/206 204/1/207 198/1/208 203/1/209
f 338/1/210 361/1/211 344/1/151 339/1/154
f 67/1/110 104/1/212 105/1/213
f 67/1/110 105/1/213 106/1/214
f 97/1/196 98/1/195 107/1/215
f 498/1/216 505/1/217 506/1/218 499/1/219
f 338/1/210 339/1/154 321/1/220 333/1/221
f 181/1/222 487/1/205 175/1/223 174/1/224
f 679/1/225 683/1/226 663/1/227 672/1/228
f 491/1/229 497/1/230 490/1/231 484/1/232
f 371/1/233 391/1/234 385/1/235 377/1/236
f 381/1/237 415/1/238 389/1/239 382/1/240
f 62/1/241 69/1/242 57/1/243 58/1/244
f 105/1/213 114/1/55 106/1/214
f 106/1/214 114/1/55 115/1/245
f 137/1/246 156/1/247 144/1/248 138/1/249
f 489/1/250 491/1/229 488/1/251 482/1/252
f 531/1/253 557/1/254 523/1/255 522/1/256
f 592/1/257 593/1/258 586/1/259 585/1/260
f 69/1/242 74/1/261 72/1/262 57/1/243
f 115/1/245 114/1/55 123/1/54
f 428/1/202 448/1/201 449/1/263 427/1/264
f 171/1/137 178/1/265 173/1/266 166/1/138
f 242/1/267 173/1/266 178/1/265 186/1/268
f 681/1/269 676/1/270 646/1/271 680/1/88
f 107/1/215 116/1/272 89/1/273 97/1/196
f 421/1/274 438/1/275 432/1/180 426/1/183
f 397/1/276 403/1/277 396/1/76 388/1/79
f 233/1/278 234/1/279 184/1/280 225/1/281
f 139/1/282 140/1/283 122/1/284 133/1/285
f 148/1/286 182/1/287 181/1/222 174/1/224
f 75/1/288 82/1/172 81/1/171 79/1/289
f 502/1/290 510/1/291 168/1/292 503/1/293
f 561/1/150 568/1/294 563/1/295 547/1/49
f 228/1/296 235/1/297 227/1/298 220/1/299
f 466/1/91 461/1/94 445/1/300 460/1/301
f 443/1/302 450/1/303 432/1/180 438/1/275
f 123/1/54 134/1/53 141/1/304
f 123/1/54 141/1/304 142/1/305
f 624/1/306 647/1/307 632/1/308 625/1/309
f 373/1/310 378/1/311 372/1/312 365/1/313
f 372/1/312 394/1/314 391/1/234 371/1/233
f 453/1/315 455/1/166 466/1/91 460/1/301
f 142/1/305 141/1/304 147/1/316
f 354/1/317 355/1/318 334/1/319 347/1/320
f 669/1/321 692/1/322 677/1/323 670/1/324
f 498/1/216 499/1/219 493/1/117 492/1/116
f 484/1/232 490/1/231 475/1/325 479/1/326
f 252/1/327 258/1/328 257/1/329 253/1/330
f 147/1/316 141/1/304 154/1/331
f 175/1/223 167/1/332 155/1/333 174/1/224
f 672/1/228 641/1/334 675/1/335 679/1/225
f 221/1/336 229/1/337 206/1/97 213/1/338
f 194/1/339 195/1/184 157/1/340 187/1/341
f 690/1/342 692/1/322 697/1/343 695/1/344
f 271/1/345 277/1/346 259/1/347 265/1/348
f 289/1/349 290/1/350 263/1/351 283/1/352
f 431/1/170 196/1/353 201/1/354 425/1/355
f 73/1/356 78/1/357 65/1/358 64/1/359
f 385/1/235 380/1/360 348/1/361 377/1/236
f 443/1/302 461/1/94 454/1/93 450/1/303
f 554/1/362 579/1/363 556/1/364 548/1/365
f 101/1/366 96/1/367 93/1/114 100/1/368
f 485/1/118 487/1/205 181/1/222 481/1/369
f 493/1/117 499/1/219 500/1/370 494/1/204
f 133/1/285 122/1/284 112/1/371 126/1/372
f 309/1/373 310/1/374 303/1/375 308/1/376
f 500/1/370 501/1/377 495/1/378 494/1/204
f 555/1/50 564/1/379 554/1/362 546/1/51
f 257/1/329 273/1/380 267/1/381 260/1/382
f 434/1/383 441/1/203 416/1/384 417/1/96
f 155/1/333 167/1/332 162/1/385 156/1/247
f 557/1/254 565/1/386 533/1/157 523/1/255
f 506/1/218 507/1/387 500/1/370 499/1/219
f 480/1/388 484/1/232 479/1/326 474/1/165
f 177/1/389 265/1/348 186/1/268 178/1/265
f 328/1/390 323/1/391 309/1/373 320/1/392
f 651/1/74 752/1/393 694/1/394 689/1/395
f 685/1/87 728/1/396 725/1/397 719/1/398
f 109/1/399 110/1/400 101/1/366 100/1/368
f 319/1/401 341/1/402 340/1/403 335/1/404
f 511/1/405 513/1/406 507/1/387 506/1/218
f 511/1/405 506/1/218 505/1/217 504/1/407
f 194/1/339 217/1/408 183/1/185 195/1/184
f 549/1/409 544/1/410 525/1/411 542/1/412
f 218/1/413 224/1/414 217/1/408 211/1/415
f 336/1/101 317/1/104 306/1/416 331/1/417
f 70/1/418 73/1/356 64/1/359 63/1/419
f 457/1/420 488/1/251 480/1/388 456/1/421
f 724/1/59 730/1/422 716/1/161 718/1/423
f 206/1/97 229/1/337 230/1/424 226/1/98
f 117/1/425 119/1/426 111/1/427 110/1/400
f 456/1/421 480/1/388 474/1/165 455/1/166
f 736/1/428 737/1/162 716/1/161 730/1/422
f 521/1/429 529/1/430 522/1/256 516/1/431
f 48/1/432 56/1/433 55/1/434 49/1/86
f 375/1/435 419/1/436 381/1/237 376/1/437
f 381/1/237 419/1/436 421/1/274 415/1/238
f 108/1/81 200/1/438 201/1/354
f 113/1/439 114/1/55 105/1/213 104/1/212
f 389/1/239 415/1/238 411/1/440 406/1/441
f 202/1/442 141/1/304 134/1/53
f 381/1/237 382/1/240 362/1/443 376/1/437
f 202/1/442 204/1/207 141/1/304
f 239/1/444 262/1/445 245/1/446 240/1/447
f 177/1/389 178/1/265 171/1/137 170/1/448
f 200/1/438 207/1/449 201/1/354
f 356/1/450 376/1/437 362/1/443 357/1/451
f 375/1/435 376/1/437 356/1/450 369/1/452
f 544/1/410 551/1/453 543/1/454 535/1/455
f 48/1/432 58/1/244 57/1/243 56/1/433
f 363/1/456 368/1/457 370/1/458 369/1/452
f 609/1/128 610/1/131 601/1/459 608/1/460
f 351/1/175 358/1/174 356/1/450 357/1/451
f 109/1/399 138/1/249 117/1/425 110/1/400
f 370/1/458 410/1/461 375/1/435 369/1/452
f 442/1/167 431/1/170 425/1/355 435/1/181
f 524/1/160 532/1/462 518/1/463 517/1/464
f 673/1/465 693/1/466 679/1/225 675/1/335
f 404/1/467 440/1/468 409/1/469 405/1/470
f 77/1/142 84/1/156 82/1/172 75/1/288
f 344/1/151 361/1/211 363/1/456 358/1/174
f 495/1/378 503/1/293 167/1/332 175/1/223
f 446/1/200 452/1/471 451/1/472 448/1/201
f 393/1/473 392/1/474 385/1/235 391/1/234
f 296/1/475 297/1/476 270/1/477 290/1/350
f 717/1/478 718/1/423 709/1/479 711/1/480
f 50/1/85 59/1/109 51/1/62 44/1/45
f 453/1/315 449/1/263 448/1/201 451/1/472
f 439/1/481 460/1/301 445/1/300 440/1/468
f 453/1/315 460/1/301 439/1/481 449/1/263
f 284/1/482 304/1/483 278/1/484 279/1/485
f 613/1/486 630/1/487 605/1/488 607/1/489
f 229/1/337 237/1/490 230/1/424
f 127/1/491 152/1/492 153/1/493 151/1/494
f 512/1/495 514/1/496 509/1/497 508/1/498
f 741/1/499 749/1/500 747/1/106 748/1/501
f 221/1/336 242/1/267 243/1/502
f 371/1/233 377/1/236 353/1/124 364/1/503
f 268/1/504 269/1/505 245/1/446 262/1/445
f 267/1/381 285/1/506 279/1/485 272/1/507
f 404/1/467 405/1/470 367/1/508 399/1/509
f 606/1/72 607/1/489 599/1/64 597/1/63
f 334/1/319 355/1/318 338/1/210 333/1/221
f 657/1/510 656/1/511 649/1/512 650/1/513
f 677/1/323 686/1/514 573/1/515 678/1/516
f 367/1/508 368/1/457 360/1/517 366/1/518
f 447/1/519 459/1/520 464/1/521 458/1/522
f 247/1/523 237/1/490 251/1/524
f 237/1/490 243/1/502 251/1/524
f 247/1/523 251/1/524 252/1/327
f 236/1/525 252/1/327 253/1/330
f 416/1/384 422/1/526 402/1/527 408/1/528
f 383/1/529 384/1/530 362/1/443 382/1/240
f 429/1/531 459/1/520 447/1/519 434/1/383
f 430/1/532 459/1/520 429/1/531 403/1/277
f 252/1/327 251/1/524 258/1/328
f 243/1/502 259/1/347 251/1/524
f 278/1/484 287/1/533 281/1/534 274/1/535
f 702/1/536 703/1/537 697/1/343 698/1/538
f 191/1/539 203/1/209 198/1/208 192/1/540
f 733/1/541 748/1/501 727/1/542 726/1/543
f 112/1/371 113/1/439 104/1/212 103/1/544
f 186/1/268 265/1/348 259/1/347
f 55/1/434 64/1/359 65/1/358 60/1/545
f 429/1/531 434/1/383 417/1/96 423/1/95
f 219/1/546 241/1/547 236/1/525 228/1/296
f 374/1/548 399/1/509 367/1/508 366/1/518
f 65/1/358 86/1/115 66/1/549 60/1/545
f 747/1/106 749/1/500 744/1/550 743/1/107
f 512/1/495 513/1/406 483/1/551 277/1/346
f 416/1/384 441/1/203 428/1/202 422/1/526
f 257/1/329 258/1/328 273/1/380
f 671/1/552 715/1/553 661/1/554 664/1/555
f 354/1/317 380/1/360 374/1/548 366/1/518
f 354/1/317 366/1/518 360/1/517 355/1/318
f 259/1/347 277/1/346 251/1/524
f 160/1/556 172/1/557 180/1/100 179/1/558
f 395/1/77 417/1/96 416/1/384 408/1/528
f 286/1/559 292/1/560 291/1/561 284/1/482
f 273/1/380 258/1/328 280/1/562
f 402/1/527 422/1/526 401/1/563 393/1/473
f 465/1/564 471/1/565 472/1/566 470/1/567
f 183/1/185 225/1/281 184/1/280 176/1/186
f 386/1/568 408/1/528 402/1/527 394/1/314
f 395/1/77 408/1/528 386/1/568 387/1/78
f 571/1/569 621/1/570 572/1/571 564/1/379
f 393/1/473 401/1/563 398/1/572 392/1/474
f 94/1/573 125/1/574 99/1/575 95/1/113
f 328/1/390 333/1/221 321/1/220 323/1/391
f 379/1/576 387/1/78 386/1/568 378/1/311
f 286/1/559 293/1/577 292/1/560
f 540/1/578 590/1/579 541/1/580 532/1/462
f 447/1/519 458/1/522 452/1/471 446/1/200
f 309/1/373 323/1/391 315/1/581 310/1/374
f 162/1/385 163/1/582 144/1/248 156/1/247
f 216/1/583 210/1/584 208/1/585 215/1/586
f 298/1/587 258/1/328 251/1/524
f 386/1/568 394/1/314 372/1/312 378/1/311
f 291/1/561 292/1/560 300/1/588
f 457/1/420 456/1/421 451/1/472 452/1/471
f 556/1/364 557/1/254 531/1/253 548/1/365
f 348/1/361 380/1/360 354/1/317 347/1/320
f 224/1/414 232/1/589 233/1/278 225/1/281
f 394/1/314 402/1/527 393/1/473 391/1/234
f 340/1/403 349/1/125 348/1/361 347/1/320
f 224/1/414 225/1/281 183/1/185 217/1/408
f 296/1/475 308/1/376 303/1/375 297/1/476
f 173/1/266 213/1/338 172/1/557 166/1/138
f 319/1/401 335/1/404 328/1/390 320/1/392
f 124/1/590 143/1/591 131/1/592 125/1/574
f 314/1/593 320/1/392 309/1/373 308/1/376
f 301/1/120 331/1/417 306/1/416 302/1/121
f 319/1/401 320/1/392 314/1/593 318/1/192
f 476/1/594 483/1/551 511/1/405 504/1/407
f 421/1/274 426/1/183 411/1/440 415/1/238
f 157/1/340 195/1/184 164/1/187 158/1/595
f 327/1/103 341/1/402 319/1/401 318/1/192
f 580/1/596 581/1/597 534/1/159 574/1/158
f 263/1/351 290/1/350 270/1/477 264/1/598
f 305/1/599 326/1/600 325/1/601
f 445/1/300 461/1/94 443/1/302 444/1/602
f 289/1/349 313/1/603 296/1/475 290/1/350
f 469/1/198 486/1/119 485/1/118 481/1/369
f 164/1/187 133/1/285 126/1/372 158/1/595
f 263/1/351 264/1/598 231/1/604 256/1/605
f 236/1/525 253/1/330 235/1/297 228/1/296
f 477/1/606 478/1/607 471/1/565 476/1/594
f 359/1/608 364/1/503 353/1/124 352/1/127
f 282/1/609 307/1/610 289/1/349 283/1/352
f 566/1/611 591/1/612 585/1/260 584/1/133
f 346/1/126 349/1/125 340/1/403 341/1/402
f 327/1/103 343/1/102 346/1/126 341/1/402
f 332/1/613 337/1/614 336/1/101
f 282/1/609 283/1/352 255/1/615 276/1/616
f 255/1/615 283/1/352 263/1/351 256/1/605
f 306/1/416 317/1/104 312/1/193 307/1/610
f 306/1/416 307/1/610 282/1/609 302/1/121
f 336/1/101 337/1/614 342/1/617
f 336/1/101 342/1/617 343/1/102
f 255/1/615 256/1/605 222/1/618 250/1/619
f 222/1/618 256/1/605 231/1/604 223/1/620
f 91/1/194 97/1/196 89/1/273 87/1/621
f 418/1/622 444/1/602 443/1/302 438/1/275
f 342/1/617 346/1/126 343/1/102
f 312/1/193 313/1/603 289/1/349 307/1/610
f 342/1/617 350/1/623 346/1/126
f 222/1/618 223/1/620 216/1/583 215/1/586
f 346/1/126 350/1/623 352/1/127
f 330/1/624 332/1/613 336/1/101 331/1/417
f 330/1/624 331/1/417 301/1/120 324/1/625
f 135/1/83 182/1/287 148/1/286 143/1/591
f 275/1/122 302/1/121 282/1/609 276/1/616
f 365/1/313 372/1/312 371/1/233 364/1/503
f 613/1/486 644/1/75 645/1/626 639/1/627
f 738/1/628 740/1/629 735/1/630 734/1/631
f 249/1/632 276/1/616 255/1/615 250/1/619
f 99/1/575 100/1/368 93/1/114 95/1/113
f 214/1/633 215/1/586 208/1/585 209/1/634
f 631/1/635 639/1/627 638/1/89 637/1/636
f 249/1/632 250/1/619 214/1/633 246/1/637
f 359/1/608 365/1/313 364/1/503
f 244/1/638 248/1/639 232/1/589 238/1/640
f 454/1/93 473/1/92 467/1/641 462/1/168
f 245/1/446 246/1/637 197/1/642 240/1/447
f 305/1/599 325/1/601 316/1/643 299/1/644
f 325/1/601 330/1/624 324/1/625 316/1/643
f 300/1/588 305/1/599 299/1/644 291/1/561
f 172/1/557 213/1/338 206/1/97 180/1/100
f 212/1/645 220/1/299 218/1/413 211/1/415
f 541/1/580 542/1/412 518/1/463 532/1/462
f 197/1/642 209/1/634 191/1/539 190/1/646
f 373/1/310 379/1/576 378/1/311
f 418/1/622 438/1/275 421/1/274 419/1/436
f 624/1/306 625/1/309 614/1/130 623/1/129
f 141/1/304 204/1/207 161/1/206 154/1/331
f 294/1/647 324/1/625 301/1/120 295/1/123
f 316/1/643 324/1/625 294/1/647 311/1/648
f 294/1/647 295/1/123 268/1/504 288/1/649
f 328/1/390 335/1/404 334/1/319 333/1/221
f 227/1/298 266/1/650 244/1/638 238/1/640
f 379/1/576 388/1/79 387/1/78
f 382/1/240 389/1/239 383/1/529
f 198/1/208 204/1/207 202/1/442 199/1/70
f 384/1/530 383/1/529 390/1/651
f 299/1/644 316/1/643 311/1/648 304/1/483
f 311/1/648 294/1/647 288/1/649 287/1/533
f 605/1/488 608/1/460 592/1/257 600/1/652
f 101/1/366 110/1/400 111/1/427 102/1/653
f 280/1/562 293/1/577 286/1/559 285/1/506
f 280/1/562 258/1/328 298/1/587 293/1/577
f 197/1/642 246/1/637 214/1/633 209/1/634
f 261/1/654 288/1/649 268/1/504 262/1/445
f 390/1/651 383/1/529 400/1/655
f 80/1/656 78/1/357 73/1/356 79/1/289
f 57/1/243 72/1/262 63/1/419 56/1/433
f 397/1/276 251/1/524 403/1/277
f 261/1/654 262/1/445 239/1/444 254/1/657
f 367/1/508 405/1/470 370/1/458 368/1/457
f 383/1/529 389/1/239 406/1/441
f 383/1/529 407/1/658 400/1/655
f 383/1/529 406/1/441 407/1/658
f 239/1/444 240/1/447 189/1/659 234/1/279
f 189/1/659 240/1/447 197/1/642 190/1/646
f 62/1/241 58/1/244 53/1/67 54/1/68
f 679/1/225 693/1/466 687/1/660 683/1/226
f 407/1/658 412/1/661 413/1/662
f 413/1/662 412/1/661 207/1/449
f 407/1/658 414/1/663 412/1/661
f 597/1/63 598/1/66 541/1/580 590/1/579
f 272/1/507 279/1/485 278/1/484 274/1/535
f 280/1/562 285/1/506 267/1/381 273/1/380
f 189/1/659 190/1/646 146/1/664 185/1/665
f 191/1/539 192/1/540 146/1/664 190/1/646
f 655/1/666 704/1/667 660/1/668 654/1/669
f 414/1/663 420/1/182 412/1/661
f 566/1/611 584/1/133 559/1/132 558/1/670
f 179/1/558 187/1/341 153/1/493 160/1/556
f 146/1/664 192/1/540 128/1/69 140/1/283
f 396/1/76 403/1/277 423/1/95
f 207/1/449 412/1/661 424/1/671
f 412/1/661 420/1/182 424/1/671
f 741/1/499 748/1/501 733/1/541 739/1/672
f 699/1/673 722/1/674 714/1/675 707/1/676
f 248/1/639 281/1/534 261/1/654 254/1/657
f 274/1/535 281/1/534 248/1/639 244/1/638
f 166/1/138 172/1/557 160/1/556 159/1/139
f 360/1/517 368/1/457 363/1/456 361/1/211
f 423/1/95 403/1/277 429/1/531
f 467/1/641 479/1/326 475/1/325 468/1/197
f 403/1/277 251/1/524 430/1/532
f 420/1/182 435/1/181 425/1/355 424/1/671
f 75/1/288 79/1/289 73/1/356 70/1/418
f 196/1/353 436/1/199 188/1/677 136/1/82
f 267/1/381 272/1/507 266/1/650 260/1/382
f 107/1/215 130/1/80 124/1/590 116/1/272
f 248/1/639 254/1/657 233/1/278 232/1/589
f 233/1/278 254/1/657 239/1/444 234/1/279
f 591/1/612 600/1/652 592/1/257 585/1/260
f 275/1/122 276/1/616 249/1/632 269/1/505
f 738/1/628 751/1/189 696/1/188 750/1/678
f 148/1/286 174/1/224 155/1/333 149/1/679
f 139/1/282 185/1/665 146/1/664 140/1/283
f 565/1/386 682/1/680 678/1/516 573/1/515
f 184/1/280 234/1/279 189/1/659 185/1/665
f 184/1/280 185/1/665 139/1/282 176/1/186
f 299/1/644 304/1/483 284/1/482 291/1/561
f 260/1/382 266/1/650 227/1/298 235/1/297
f 619/1/681 643/1/682 617/1/683 616/1/684
f 245/1/446 269/1/505 249/1/632 246/1/637
f 449/1/263 439/1/481 433/1/685 427/1/264
f 137/1/246 138/1/249 109/1/399 132/1/686
f 99/1/575 132/1/686 109/1/399 100/1/368
f 432/1/180 450/1/303 442/1/167 435/1/181
f 80/1/656 87/1/621 89/1/273 88/1/687
f 176/1/186 139/1/282 133/1/285 164/1/187
f 697/1/343 703/1/537 701/1/688 695/1/344
f 409/1/469 410/1/461 370/1/458 405/1/470
f 677/1/323 678/1/516 636/1/689 670/1/324
f 427/1/264 433/1/685 398/1/572 401/1/563
f 353/1/124 377/1/236 348/1/361 349/1/125
f 459/1/520 430/1/532 464/1/521
f 430/1/532 251/1/524 465/1/564
f 247/1/523 252/1/327 236/1/525 241/1/547
f 148/1/286 149/1/679 131/1/592 143/1/591
f 340/1/403 347/1/320 334/1/319 335/1/404
f 135/1/83 143/1/591 124/1/590 130/1/80
f 247/1/523 241/1/547 230/1/424 237/1/490
f 398/1/572 433/1/685 404/1/467 399/1/509
f 230/1/424 241/1/547 219/1/546 226/1/98
f 153/1/493 187/1/341 157/1/340 151/1/494
f 465/1/564 251/1/524 471/1/565
f 188/1/677 182/1/287 135/1/83 136/1/82
f 490/1/231 497/1/230 498/1/216 492/1/116
f 469/1/198 481/1/369 188/1/677 436/1/199
f 286/1/559 284/1/482 279/1/485 285/1/506
f 212/1/645 211/1/415 193/1/690 205/1/99
f 150/1/691 152/1/492 127/1/491 145/1/692
f 714/1/675 723/1/60 717/1/478 715/1/553
f 471/1/565 251/1/524 476/1/594
f 221/1/336 243/1/502 237/1/490 229/1/337
f 471/1/565 478/1/607 472/1/566
f 613/1/486 639/1/627 631/1/635 630/1/487
f 272/1/507 274/1/535 244/1/638 266/1/650
f 180/1/100 205/1/99 193/1/690 179/1/558
f 251/1/524 277/1/346 483/1/551
f 251/1/524 483/1/551 476/1/594
f 193/1/690 194/1/339 187/1/341 179/1/558
f 144/1/248 163/1/582 150/1/691 145/1/692
f 660/1/668 704/1/667 702/1/536 698/1/538
f 622/1/693 628/1/694 572/1/571 621/1/570
f 714/1/675 715/1/553 671/1/552 707/1/676
f 150/1/691 165/1/136 159/1/139 152/1/492
f 583/1/65 591/1/612 566/1/611 575/1/695
f 482/1/252 488/1/251 457/1/420 463/1/696
f 257/1/329 260/1/382 235/1/297 253/1/330
f 122/1/284 121/1/71 113/1/439 112/1/371
f 144/1/248 145/1/692 117/1/425 138/1/249
f 169/1/697 163/1/582 162/1/385 168/1/292
f 167/1/332 503/1/293 168/1/292 162/1/385
f 688/1/698 734/1/631 735/1/630 728/1/396
f 205/1/99 226/1/98 219/1/546 212/1/645
f 163/1/582 169/1/697 165/1/136 150/1/691
f 103/1/544 118/1/699 126/1/372 112/1/371
f 63/1/419 64/1/359 55/1/434 56/1/433
f 170/1/448 171/1/137 165/1/136 169/1/697
f 418/1/622 419/1/436 375/1/435 410/1/461
f 502/1/290 503/1/293 495/1/378 501/1/377
f 477/1/606 476/1/594 504/1/407
f 111/1/427 118/1/699 103/1/544 102/1/653
f 681/1/269 719/1/398 720/1/700 712/1/701
f 196/1/353 431/1/170 437/1/169 436/1/199
f 510/1/291 515/1/702 177/1/389 170/1/448
f 477/1/606 496/1/703 489/1/250 478/1/607
f 509/1/497 502/1/290 501/1/377 508/1/498
f 509/1/497 515/1/702 510/1/291 502/1/290
f 186/1/268 259/1/347 243/1/502 242/1/267
f 665/1/704 672/1/228 663/1/227 658/1/705
f 87/1/621 80/1/656 79/1/289 81/1/171
f 515/1/702 271/1/345 265/1/348 177/1/389
f 271/1/345 515/1/702 509/1/497 514/1/496
f 63/1/419 72/1/262 71/1/140 70/1/418
f 511/1/405 483/1/551 513/1/406
f 753/1/73 606/1/72 597/1/63 590/1/579
f 514/1/496 277/1/346 271/1/345
f 512/1/495 277/1/346 514/1/496
f 663/1/227 683/1/226 671/1/552 664/1/555
f 539/1/176 548/1/365 531/1/253 530/1/177
f 530/1/177 531/1/253 522/1/256 529/1/430
f 131/1/592 132/1/686 99/1/575 125/1/574
f 454/1/93 462/1/168 442/1/167 450/1/303
f 682/1/680 565/1/386 557/1/254 556/1/364
f 304/1/483 311/1/648 287/1/533 278/1/484
f 572/1/571 628/1/694 588/1/706 579/1/363
f 673/1/465 700/1/707 699/1/673 693/1/466
f 520/1/708 526/1/709 527/1/710
f 521/1/429 528/1/178 529/1/430
f 451/1/472 456/1/421 455/1/166 453/1/315
f 529/1/430 528/1/178 530/1/177
f 516/1/431 522/1/256 523/1/255 517/1/464
f 440/1/468 445/1/300 444/1/602 409/1/469
f 573/1/515 574/1/158 533/1/157 565/1/386
f 211/1/415 217/1/408 194/1/339 193/1/690
f 465/1/564 470/1/567 464/1/521 430/1/532
f 527/1/710 537/1/711 528/1/178
f 527/1/710 536/1/712 537/1/711
f 527/1/710 528/1/178 521/1/429 520/1/708
f 528/1/178 537/1/711 538/1/52
f 157/1/340 158/1/595 120/1/713 151/1/494
f 588/1/706 682/1/680 556/1/364 579/1/363
f 678/1/516 682/1/680 588/1/706 636/1/689
f 535/1/455 543/1/454 536/1/712
f 563/1/295 571/1/569 564/1/379 555/1/50
f 199/1/70 202/1/442 134/1/53 129/1/56
f 536/1/712 545/1/714 537/1/711
f 538/1/52 546/1/51 539/1/176
f 526/1/709 535/1/455 536/1/712 527/1/710
f 538/1/52 537/1/711 547/1/49
f 519/1/715 525/1/411 526/1/709 520/1/708
f 572/1/571 579/1/363 554/1/362 564/1/379
f 122/1/284 140/1/283 128/1/69 121/1/71
f 604/1/716 571/1/569 563/1/295 568/1/294
f 488/1/251 491/1/229 484/1/232 480/1/388
f 545/1/714 550/1/717 552/1/718
f 545/1/714 553/1/719 537/1/711
f 587/1/720 596/1/721 595/1/722 594/1/723
f 525/1/411 544/1/410 535/1/455 526/1/709
f 518/1/463 542/1/412 525/1/411 519/1/715
f 518/1/463 519/1/715 516/1/431 517/1/464
f 315/1/581 323/1/391 321/1/220 322/1/724
f 727/1/542 721/1/725 720/1/700 726/1/543
f 537/1/711 561/1/150 547/1/49
f 537/1/711 562/1/147 561/1/150
f 555/1/50 547/1/49 563/1/295
f 543/1/454 550/1/717 545/1/714 536/1/712
f 472/1/566 482/1/252 463/1/696 470/1/567
f 523/1/255 533/1/157 524/1/160 517/1/464
f 227/1/298 238/1/640 218/1/413 220/1/299
f 602/1/726 604/1/716 577/1/727 594/1/723
f 53/1/67 58/1/244 48/1/432 47/1/48
f 552/1/718 560/1/728 553/1/719 545/1/714
f 561/1/150 569/1/149 568/1/294
f 612/1/729 616/1/684 611/1/730 603/1/731
f 549/1/409 575/1/695 551/1/453 544/1/410
f 127/1/491 151/1/494 120/1/713 119/1/426
f 94/1/573 95/1/113 85/1/112 88/1/687
f 587/1/720 594/1/723 577/1/727 578/1/732
f 559/1/132 567/1/135 560/1/728 552/1/718
f 550/1/717 558/1/670 559/1/132 552/1/718
f 573/1/515 686/1/514 580/1/596 574/1/158
f 80/1/656 88/1/687 85/1/112 78/1/357
f 458/1/522 463/1/696 457/1/420 452/1/471
f 602/1/726 615/1/733 622/1/693 621/1/570
f 619/1/681 650/1/513 649/1/512 643/1/682
f 595/1/722 615/1/733 602/1/726 594/1/723
f 411/1/440 414/1/663 407/1/658 406/1/441
f 207/1/449 424/1/671 425/1/355 201/1/354
f 541/1/580 598/1/66 549/1/409 542/1/412
f 219/1/546 228/1/296 220/1/299 212/1/645
f 312/1/193 318/1/192 314/1/593 313/1/603
f 677/1/323 692/1/322 690/1/342 686/1/514
f 508/1/498 501/1/377 500/1/370 507/1/387
f 611/1/730 618/1/734 615/1/733 595/1/722
f 603/1/731 611/1/730 595/1/722 596/1/721
f 585/1/260 586/1/259 576/1/134 584/1/133
f 636/1/689 588/1/706 628/1/694 629/1/735
f 622/1/693 626/1/736 629/1/735 628/1/694
f 496/1/703 505/1/217 498/1/216 497/1/230
f 117/1/425 145/1/692 127/1/491 119/1/426
f 55/1/434 60/1/545 50/1/85 49/1/86
f 48/1/432 49/1/86 43/1/44 47/1/48
f 214/1/633 250/1/619 222/1/618 215/1/586
f 551/1/453 575/1/695 566/1/611 558/1/670
f 439/1/481 440/1/468 404/1/467 433/1/685
f 617/1/683 618/1/734 611/1/730 616/1/684
f 635/1/145 670/1/324 636/1/689 629/1/735
f 635/1/145 629/1/735 626/1/736 634/1/146
f 422/1/526 428/1/202 427/1/264 401/1/563
f 612/1/729 620/1/737 619/1/681 616/1/684
f 592/1/257 608/1/460 601/1/459 593/1/258
f 464/1/521 470/1/567 463/1/696 458/1/522
f 617/1/683 643/1/682 642/1/143 634/1/146
f 627/1/738 650/1/513 619/1/681 620/1/737
f 208/1/585 210/1/584 161/1/206 203/1/209
f 173/1/266 242/1/267 221/1/336 213/1/338
f 605/1/488 630/1/487 609/1/128 608/1/460
f 546/1/51 554/1/362 548/1/365 539/1/176
f 598/1/66 583/1/65 575/1/695 549/1/409
f 188/1/677 481/1/369 181/1/222 182/1/287
f 627/1/738 658/1/705 657/1/510 650/1/513
f 599/1/64 600/1/652 591/1/612 583/1/65
f 599/1/64 607/1/489 605/1/488 600/1/652
f 103/1/544 104/1/212 67/1/110 102/1/653
f 363/1/456 369/1/452 356/1/450 358/1/174
f 474/1/165 479/1/326 467/1/641 473/1/92
f 649/1/512 654/1/669 642/1/143 643/1/682
f 577/1/727 604/1/716 568/1/294 569/1/149
f 663/1/227 664/1/555 657/1/510 658/1/705
f 441/1/203 434/1/383 447/1/519 446/1/200
f 505/1/217 496/1/703 477/1/606 504/1/407
f 660/1/668 698/1/538 669/1/321 662/1/144
f 617/1/683 634/1/146 626/1/736 618/1/734
f 649/1/512 656/1/511 655/1/666 654/1/669
f 633/1/739 640/1/740 641/1/334
f 626/1/736 622/1/693 615/1/733 618/1/734
f 606/1/72 644/1/75 613/1/486 607/1/489
f 660/1/668 662/1/144 642/1/143 654/1/669
f 108/1/81 130/1/80 107/1/215 98/1/195
f 657/1/510 664/1/555 661/1/554 656/1/511
f 661/1/554 711/1/480 655/1/666 656/1/511
f 120/1/713 118/1/699 111/1/427 119/1/426
f 155/1/333 156/1/247 137/1/246 149/1/679
f 609/1/128 630/1/487 631/1/635 623/1/129
f 475/1/325 486/1/119 469/1/198 468/1/197
f 360/1/517 361/1/211 338/1/210 355/1/318
f 669/1/321 670/1/324 635/1/145 662/1/144
f 467/1/641 468/1/197 437/1/169 462/1/168
f 268/1/504 295/1/123 275/1/122 269/1/505
f 411/1/440 426/1/183 420/1/182 414/1/663
f 631/1/635 637/1/636 624/1/306 623/1/129
f 326/1/600 332/1/613 330/1/624 325/1/601
f 653/1/741 652/1/742 659/1/743
f 674/1/744 712/1/701 713/1/745 706/1/746
f 645/1/626 684/1/90 638/1/89 639/1/627
f 121/1/71 129/1/56 114/1/55 113/1/439
f 66/1/549 96/1/367 67/1/110 59/1/109
f 74/1/261 76/1/141 71/1/140 72/1/262
f 198/1/208 199/1/70 128/1/69 192/1/540
f 632/1/308 640/1/740 633/1/739 625/1/309
f 659/1/743 666/1/747 667/1/748
f 659/1/743 652/1/742 668/1/749
f 659/1/743 668/1/749 666/1/747
f 168/1/292 510/1/291 170/1/448 169/1/697
f 651/1/74 689/1/395 645/1/626 644/1/75
f 652/1/742 653/1/741 632/1/308 647/1/307
f 646/1/271 676/1/270 652/1/742 647/1/307
f 665/1/704 641/1/334 672/1/228
f 287/1/533 288/1/649 261/1/654 281/1/534
f 646/1/271 647/1/307 624/1/306 637/1/636
f 520/1/708 521/1/429 516/1/431 519/1/715
f 60/1/545 66/1/549 59/1/109 50/1/85
f 651/1/74 753/1/73 582/1/750 752/1/393
f 582/1/750 753/1/73 590/1/579 540/1/578
f 534/1/159 581/1/597 582/1/750 540/1/578
f 124/1/590 125/1/574 94/1/573 116/1/272
f 534/1/159 540/1/578 532/1/462 524/1/160
f 648/1/751 675/1/335 641/1/334 640/1/740
f 632/1/308 653/1/741 648/1/751 640/1/740
f 673/1/465 675/1/335 648/1/751 667/1/748
f 717/1/478 711/1/480 661/1/554 715/1/553
f 93/1/114 96/1/367 66/1/549 86/1/115
f 655/1/666 711/1/480 709/1/479 704/1/667
f 551/1/453 558/1/670 550/1/717 543/1/454
f 659/1/743 667/1/748 648/1/751 653/1/741
f 683/1/226 687/1/660 671/1/552
f 709/1/479 710/1/164 702/1/536 704/1/667
f 490/1/231 492/1/116 486/1/119 475/1/325
f 296/1/475 313/1/603 314/1/593 308/1/376
f 580/1/596 691/1/191 589/1/190 581/1/597
f 398/1/572 399/1/509 374/1/548 392/1/474
f 669/1/321 698/1/538 697/1/343 692/1/322
f 589/1/190 752/1/393 582/1/750 581/1/597
f 696/1/188 691/1/191 690/1/342 695/1/344
f 694/1/394 752/1/393 589/1/190 751/1/189
f 744/1/550 749/1/500 746/1/752 745/1/753
f 693/1/466 699/1/673 687/1/660
f 666/1/747 700/1/707 673/1/465 667/1/748
f 158/1/595 126/1/372 118/1/699 120/1/713
f 694/1/394 751/1/189 738/1/628 734/1/631
f 694/1/394 734/1/631 688/1/698 689/1/395
f 645/1/626 689/1/395 688/1/698 684/1/90
f 700/1/707 666/1/747 705/1/754
f 700/1/707 705/1/754 699/1/673
f 666/1/747 706/1/746 705/1/754
f 687/1/660 707/1/676 671/1/552
f 687/1/660 699/1/673 707/1/676
f 385/1/235 392/1/474 374/1/548 380/1/360
f 409/1/469 444/1/602 418/1/622 410/1/461
f 638/1/89 680/1/88 646/1/271 637/1/636
f 160/1/556 153/1/493 152/1/492 159/1/139
f 706/1/746 713/1/745 705/1/754
f 722/1/674 729/1/57 723/1/60 714/1/675
f 652/1/742 676/1/270 674/1/744 668/1/749
f 674/1/744 706/1/746 666/1/747 668/1/749
f 735/1/630 739/1/672 725/1/397 728/1/396
f 191/1/539 209/1/634 208/1/585 203/1/209
f 685/1/87 719/1/398 681/1/269 680/1/88
f 489/1/250 482/1/252 472/1/566 478/1/607
f 681/1/269 712/1/701 674/1/744 676/1/270
f 717/1/478 723/1/60 724/1/59 718/1/423
f 713/1/745 721/1/725 705/1/754
f 699/1/673 705/1/754 722/1/674
f 725/1/397 726/1/543 720/1/700 719/1/398
f 602/1/726 621/1/570 571/1/569 604/1/716
f 709/1/479 718/1/423 716/1/161 710/1/164
f 688/1/698 728/1/396 685/1/87 684/1/90
f 732/1/108 730/1/422 724/1/59 731/1/58
f 721/1/725 727/1/542 705/1/754
f 720/1/700 721/1/725 713/1/745 712/1/701
f 570/1/148 578/1/732 577/1/727 569/1/149
f 722/1/674 705/1/754 729/1/57
f 729/1/57 705/1/754 731/1/58
f 321/1/220 339/1/154 329/1/153 322/1/724
f 731/1/58 705/1/754 732/1/108
f 732/1/108 743/1/107 736/1/428 730/1/422
f 91/1/194 87/1/621 81/1/171 90/1/173
f 218/1/413 238/1/640 232/1/589 224/1/414
f 702/1/536 710/1/164 708/1/163 703/1/537
f 71/1/140 77/1/142 75/1/288 70/1/418
f 725/1/397 739/1/672 733/1/541 726/1/543
f 708/1/163 745/1/753 701/1/688 703/1/537
f 741/1/499 739/1/672 735/1/630 740/1/629
f 744/1/550 745/1/753 708/1/163 737/1/162
f 744/1/550 737/1/162 736/1/428 743/1/107
f 705/1/754 742/1/105 732/1/108
f 705/1/754 727/1/542 742/1/105
f 108/1/81 201/1/354 196/1/353 136/1/82
f 86/1/115 65/1/358 78/1/357 85/1/112
f 746/1/752 749/1/500 741/1/499 740/1/629
f 131/1/592 149/1/679 137/1/246 132/1/686
f 738/1/628 750/1/678 746/1/752 740/1/629
f 494/1/204 495/1/378 175/1/223 487/1/205
f 727/1/542 748/1/501 747/1/106 742/1/105
f 496/1/703 497/1/230 491/1/229 489/1/250
f 101/1/366 102/1/653 67/1/110 96/1/367
f 507/1/387 513/1/406 512/1/495 508/1/498
f 701/1/688 750/1/678 696/1/188 695/1/344
f 89/1/273 116/1/272 94/1/573 88/1/687
f 746/1/752 750/1/678 701/1/688 745/1/753
f 690/1/342 691/1/191 580/1/596 686/1/514
