# Blender 4.3.2
# www.blender.org
o hair.043
v 7.707071 1.074770 -0.013169
v 7.706033 1.074905 -0.012967
v 7.708539 1.076166 -0.009547
v 7.704995 1.072224 -0.018137
v 7.707833 1.074442 -0.013661
v 7.706840 1.076440 -0.009137
v 7.704995 1.076560 -0.008957
v 7.704995 1.075039 -0.012765
v 7.704995 1.077879 -0.004938
v 7.707687 1.077713 -0.005125
v 7.710111 1.077276 -0.005617
v 7.709902 1.075740 -0.010187
v 7.711056 1.075161 -0.011055
v 7.708595 1.074114 -0.014152
v 7.703150 1.076440 -0.009137
v 7.703956 1.074905 -0.012967
v 7.708514 1.078333 -0.001044
v 7.712003 1.076699 -0.006389
v 7.713930 1.077004 -0.002500
v 7.711614 1.077701 -0.001609
v 7.713559 1.075901 -0.007524
v 7.712029 1.074353 -0.012266
v 7.709121 1.073573 -0.014963
v 7.702918 1.074770 -0.013169
v 7.701450 1.076166 -0.009547
v 7.712915 1.077656 0.002121
v 7.714958 1.074796 -0.009131
v 7.717629 1.074726 -0.005841
v 7.715810 1.076047 -0.003859
v 7.712794 1.073372 -0.013737
v 7.716054 1.073389 -0.011221
v 7.709648 1.073032 -0.015775
v 7.702156 1.074442 -0.013661
v 7.700087 1.075740 -0.010187
v 7.699878 1.077276 -0.005617
v 7.717548 1.075526 -0.000620
v 7.713225 1.072204 -0.015489
v 7.709829 1.072365 -0.016776
v 7.701395 1.074114 -0.014152
v 7.698934 1.075161 -0.011055
v 7.697987 1.076699 -0.006389
v 7.696430 1.075901 -0.007524
v 7.702302 1.077713 -0.005125
v 7.715479 1.076678 0.000890
v 7.713375 1.071012 -0.017277
v 7.710011 1.071697 -0.017776
v 7.700868 1.073573 -0.014963
v 7.697961 1.074353 -0.012266
v 7.696059 1.077004 -0.002500
v 7.701476 1.078333 -0.001044
v 7.704995 1.078472 -0.000822
v 7.716883 1.075769 0.004184
v 7.709811 1.071066 -0.018722
v 7.698375 1.077701 -0.001609
v 7.704995 1.078681 0.001186
v 7.700924 1.078447 0.001209
v 7.697074 1.077656 0.002121
v 7.709065 1.078447 0.001209
v 7.713163 1.069941 -0.018881
v 7.712661 1.068959 -0.020355
v 7.709611 1.070436 -0.019668
v 7.700585 1.078378 0.003070
v 7.709404 1.078378 0.003070
v 7.704995 1.078687 0.003608
v 7.716840 1.069945 -0.016488
v 7.716553 1.068462 -0.018764
v 7.715820 1.067137 -0.020788
v 7.711804 1.068056 -0.021708
v 7.709053 1.069904 -0.020465
v 7.700225 1.078224 0.004838
v 7.704995 1.078357 0.006525
v 7.709764 1.078224 0.004838
v 7.716672 1.071679 -0.013825
v 7.719716 1.066686 -0.018349
v 7.699823 1.078010 0.006310
v 7.694510 1.076678 0.000890
v 7.693106 1.075769 0.004184
v 7.695976 1.077003 0.005751
v 7.710166 1.078010 0.006310
v 7.714013 1.077003 0.005751
v 7.719876 1.070782 -0.011936
v 7.720062 1.068544 -0.015434
v 7.696019 1.076344 0.009643
v 7.699553 1.077569 0.008309
v 7.692441 1.075526 -0.000620
v 7.694179 1.076047 -0.003859
v 7.713970 1.076344 0.009643
v 7.710436 1.077569 0.008309
v 7.722606 1.067016 -0.014299
v 7.699820 1.077074 0.010591
v 7.704995 1.078002 0.008553
v 7.695031 1.074796 -0.009131
v 7.692360 1.074726 -0.005841
v 7.710169 1.077074 0.010591
v 7.718816 1.065042 -0.020908
v 7.722231 1.064890 -0.017743
v 7.721241 1.063002 -0.020765
v 7.700547 1.076465 0.012802
v 7.704995 1.077586 0.010579
v 7.693935 1.073389 -0.011221
v 7.697195 1.073372 -0.013737
v 7.709442 1.076465 0.012802
v 7.717343 1.063448 -0.023333
v 7.714619 1.065885 -0.022679
v 7.704995 1.076929 0.012874
v 7.696764 1.072204 -0.015489
v 7.700342 1.073032 -0.015775
v 7.700160 1.072365 -0.016776
v 7.713061 1.064767 -0.024356
v 7.710725 1.067248 -0.022919
v 7.704995 1.075965 0.015254
v 7.699978 1.071697 -0.017776
v 7.696614 1.071012 -0.017277
v 7.709439 1.066602 -0.023888
v 7.707685 1.069019 -0.021793
v 7.708495 1.069372 -0.021263
v 7.708260 1.075622 0.015239
v 7.704995 1.074734 0.017267
v 7.701729 1.075622 0.015239
v 7.696970 1.075686 0.012659
v 7.699038 1.074973 0.015168
v 7.700179 1.071066 -0.018722
v 7.708477 1.073963 0.017119
v 7.710951 1.074973 0.015168
v 7.713019 1.075686 0.012659
v 7.701512 1.073963 0.017119
v 7.704995 1.072877 0.019091
v 7.695207 1.074233 0.012521
v 7.693684 1.074743 0.010294
v 7.710506 1.072830 0.016745
v 7.707049 1.072723 0.018715
v 7.708325 1.072165 0.018268
v 7.712869 1.073589 0.014842
v 7.714783 1.074233 0.012521
v 7.716305 1.074743 0.010294
v 7.717576 1.074801 0.007669
v 7.710242 1.070936 0.017776
v 7.712382 1.071288 0.016081
v 7.714048 1.071697 0.014188
v 7.706535 1.072005 0.019237
v 7.707721 1.070769 0.019192
v 7.715365 1.072140 0.012177
v 7.716482 1.072603 0.010099
v 7.718437 1.072253 0.008721
v 7.719442 1.074408 0.002519
v 7.720362 1.073188 0.005594
v 7.704995 1.071959 0.019561
v 7.704995 1.070684 0.019715
v 7.720511 1.071355 0.007588
v 7.721679 1.072783 0.000075
v 7.723242 1.071159 0.002926
v 7.726112 1.067886 0.004111
v 7.722764 1.069692 0.006856
v 7.719692 1.074022 -0.002903
v 7.703454 1.072005 0.019237
v 7.702268 1.070769 0.019192
v 7.702991 1.072734 0.018727
v 7.726082 1.068867 -0.000494
v 7.725149 1.067008 0.006933
v 7.727759 1.066488 0.002194
v 7.729148 1.064224 0.004057
v 7.721500 1.072112 -0.006060
v 7.719088 1.072984 -0.008514
v 7.701664 1.072165 0.018268
v 7.699747 1.070936 0.017776
v 7.699483 1.072830 0.016745
v 7.730969 1.060497 0.005641
v 7.727974 1.063148 0.008261
v 7.730952 1.061342 0.000606
v 7.723891 1.070670 -0.003384
v 7.697607 1.071288 0.016081
v 7.695941 1.071697 0.014188
v 7.697120 1.073589 0.014842
v 7.730171 1.058778 0.010082
v 7.724919 1.067938 -0.008121
v 7.729095 1.064476 -0.001042
v 7.727455 1.065744 -0.006110
v 7.722414 1.069591 -0.010137
v 7.694624 1.072140 0.012177
v 7.693507 1.072603 0.010099
v 7.729689 1.062566 -0.004449
v 7.727469 1.062781 -0.011258
v 7.724710 1.062744 -0.016906
v 7.725113 1.065108 -0.012927
v 7.691552 1.072253 0.008721
v 7.692414 1.074801 0.007669
v 7.732688 1.057634 0.002447
v 7.731668 1.059085 -0.002973
v 7.729715 1.059996 -0.009569
v 7.689884 1.073182 0.005591
v 7.689478 1.071355 0.007588
v 7.690547 1.074408 0.002519
v 7.733954 1.053662 0.003926
v 7.732503 1.056129 0.007185
v 7.733283 1.055459 -0.001285
v 7.731693 1.056817 -0.007688
v 7.729172 1.057415 -0.014275
v 7.687225 1.069692 0.006856
v 7.688310 1.072783 0.000075
v 7.686747 1.071159 0.002926
v 7.733154 1.051945 0.008706
v 7.731176 1.054564 0.011639
v 7.733305 1.053169 -0.005788
v 7.731049 1.054167 -0.012564
v 7.727026 1.060259 -0.015682
v 7.683877 1.067886 0.004111
v 7.684841 1.067008 0.006933
v 7.690297 1.074022 -0.002903
v 7.683907 1.068867 -0.000494
v 7.731848 1.049091 0.013114
v 7.725860 1.057955 -0.019637
v 7.723623 1.060632 -0.020401
v 7.682230 1.066488 0.002194
v 7.680841 1.064224 0.004057
v 7.679020 1.060497 0.005641
v 7.682015 1.063148 0.008261
v 7.688489 1.072112 -0.006060
v 7.727915 1.054932 -0.018673
v 7.721773 1.058569 -0.023741
v 7.719596 1.061146 -0.023652
v 7.679037 1.061342 0.000606
v 7.680894 1.064476 -0.001042
v 7.679819 1.058778 0.010082
v 7.686099 1.070670 -0.003384
v 7.725680 1.052583 -0.022802
v 7.729737 1.051458 -0.017374
v 7.732622 1.050511 -0.010567
v 7.717336 1.059470 -0.026219
v 7.715377 1.062016 -0.025486
v 7.677486 1.056129 0.007185
v 7.676836 1.051945 0.008706
v 7.678813 1.054564 0.011639
v 7.723817 1.055738 -0.023397
v 7.734292 1.051459 0.000378
v 7.734364 1.049039 -0.003933
v 7.712998 1.060856 -0.027227
v 7.711228 1.063860 -0.025718
v 7.676035 1.053662 0.003926
v 7.678142 1.049091 0.013114
v 7.720872 1.053819 -0.026765
v 7.719200 1.056717 -0.026701
v 7.734960 1.047192 0.001897
v 7.709221 1.063191 -0.026722
v 7.708036 1.066110 -0.024627
v 7.676195 1.045138 0.009147
v 7.676356 1.038167 0.010844
v 7.678347 1.040947 0.014691
v 7.715958 1.055243 -0.029050
v 7.714507 1.058125 -0.028274
v 7.734418 1.049443 0.005463
v 7.706876 1.068665 -0.022323
v 7.678474 1.031467 0.016320
v 7.675571 1.049443 0.005463
v 7.711373 1.057151 -0.029757
v 7.710382 1.060013 -0.028493
v 7.733794 1.045138 0.009147
v 7.734278 1.040353 0.004733
v 7.705935 1.068552 -0.022493
v 7.677723 1.030940 0.012106
v 7.707703 1.059527 -0.029220
v 7.707128 1.062812 -0.027293
v 7.706533 1.065843 -0.025027
v 7.733633 1.038167 0.010844
v 7.734768 1.044992 -0.001813
v 7.731642 1.040947 0.014691
v 7.704995 1.065744 -0.025175
v 7.704995 1.068438 -0.022663
v 7.676972 1.030413 0.007893
v 7.704995 1.062689 -0.027479
v 7.733900 1.039299 -0.004032
v 7.734107 1.042652 -0.006008
v 7.733685 1.046549 -0.008232
v 7.731515 1.031467 0.016320
v 7.704054 1.068552 -0.022493
v 7.676342 1.035383 0.006313
v 7.732415 1.035682 -0.009348
v 7.733402 1.036403 -0.002096
v 7.733648 1.035383 0.006313
v 7.732277 1.034281 -0.000021
v 7.731318 1.047441 -0.015744
v 7.732266 1.030940 0.012106
v 7.733017 1.030413 0.007893
v 7.675711 1.040353 0.004733
v 7.730063 1.028688 -0.004380
v 7.731585 1.032199 -0.007187
v 7.727344 1.048930 -0.021801
v 7.732251 1.043288 -0.013735
v 7.728816 1.044608 -0.020389
v 7.728826 1.028061 -0.011276
v 7.726185 1.023728 -0.008254
v 7.723917 1.046753 -0.025733
v 7.725237 1.042193 -0.024477
v 7.729745 1.040219 -0.018490
v 7.726205 1.037467 -0.022491
v 7.722469 1.050552 -0.026489
v 7.675030 1.047192 0.001897
v 7.722325 1.020037 -0.011271
v 7.720810 1.040063 -0.027732
v 7.730309 1.036350 -0.016393
v 7.732714 1.039441 -0.011566
v 7.718549 1.048801 -0.029381
v 7.717276 1.052229 -0.029387
v 7.725182 1.024482 -0.014772
v 7.721064 1.022310 -0.017145
v 7.718714 1.017700 -0.013207
v 7.730061 1.032447 -0.014173
v 7.719722 1.044817 -0.028848
v 7.713265 1.051066 -0.031269
v 7.712355 1.054175 -0.030736
v 7.726646 1.029331 -0.018206
v 7.714708 1.016385 -0.014444
v 7.714996 1.043345 -0.031121
v 7.708689 1.053538 -0.031714
v 7.708194 1.056586 -0.030611
v 7.716511 1.020815 -0.018925
v 7.710999 1.019663 -0.020080
v 7.710191 1.015604 -0.015236
v 7.726852 1.033350 -0.020490
v 7.714160 1.047491 -0.031471
v 7.704995 1.056406 -0.030880
v 7.704995 1.059375 -0.029448
v 7.717130 1.025218 -0.022832
v 7.722091 1.026981 -0.020873
v 7.704995 1.015277 -0.015394
v 7.722272 1.031108 -0.023547
v 7.721609 1.035282 -0.025852
v 7.709612 1.046703 -0.032693
v 7.709152 1.050361 -0.032366
v 7.702286 1.059527 -0.029220
v 7.704995 1.019291 -0.020419
v 7.698989 1.019663 -0.020080
v 7.699799 1.015604 -0.015236
v 7.716387 1.033560 -0.028268
v 7.715781 1.038452 -0.030124
v 7.704995 1.050123 -0.032718
v 7.704995 1.053328 -0.032025
v 7.704995 1.023705 -0.024597
v 7.711217 1.024082 -0.024163
v 7.695282 1.016385 -0.014444
v 7.710452 1.037497 -0.031535
v 7.701300 1.053538 -0.031714
v 7.701795 1.056586 -0.030611
v 7.711081 1.028193 -0.027332
v 7.716935 1.029281 -0.025912
v 7.691275 1.017700 -0.013207
v 7.688925 1.022310 -0.017145
v 7.693479 1.020815 -0.018925
v 7.710046 1.042473 -0.032452
v 7.698616 1.057151 -0.029757
v 7.687664 1.020037 -0.011271
v 7.692859 1.025218 -0.022832
v 7.698772 1.024082 -0.024163
v 7.704995 1.042186 -0.032881
v 7.704995 1.046440 -0.033086
v 7.710772 1.032543 -0.029704
v 7.684807 1.024482 -0.014772
v 7.681164 1.028061 -0.011276
v 7.683805 1.023728 -0.008254
v 7.698908 1.028193 -0.027332
v 7.704995 1.027838 -0.027804
v 7.700377 1.046703 -0.032693
v 7.700837 1.050361 -0.032366
v 7.704995 1.032119 -0.030141
v 7.683343 1.029331 -0.018206
v 7.687898 1.026981 -0.020873
v 7.679926 1.028688 -0.004380
v 7.696724 1.051066 -0.031269
v 7.699943 1.042473 -0.032452
v 7.695829 1.047491 -0.031471
v 7.697635 1.054175 -0.030736
v 7.704995 1.037183 -0.031991
v 7.687717 1.031108 -0.023547
v 7.693054 1.029281 -0.025912
v 7.699537 1.037497 -0.031535
v 7.694993 1.043345 -0.031121
v 7.691440 1.048801 -0.029381
v 7.694032 1.055243 -0.029050
v 7.693602 1.033560 -0.028268
v 7.699217 1.032543 -0.029704
v 7.694209 1.038452 -0.030124
v 7.689179 1.040063 -0.027732
v 7.690267 1.044817 -0.028848
v 7.688380 1.035282 -0.025852
v 7.686072 1.046753 -0.025733
v 7.684752 1.042193 -0.024477
v 7.683784 1.037467 -0.022491
v 7.681174 1.044608 -0.020389
v 7.682646 1.048930 -0.021801
v 7.687520 1.050552 -0.026489
v 7.684309 1.052583 -0.022802
v 7.683137 1.033350 -0.020490
v 7.679679 1.036350 -0.016393
v 7.680243 1.040219 -0.018490
v 7.677738 1.043288 -0.013735
v 7.678671 1.047441 -0.015744
v 7.680252 1.051458 -0.017374
v 7.689117 1.053819 -0.026765
v 7.692713 1.052229 -0.029387
v 7.679928 1.032447 -0.014173
v 7.677275 1.039441 -0.011566
v 7.675882 1.042652 -0.006008
v 7.676304 1.046549 -0.008232
v 7.677367 1.050511 -0.010567
v 7.678940 1.054167 -0.012564
v 7.682075 1.054932 -0.018673
v 7.677574 1.035682 -0.009348
v 7.678405 1.032199 -0.007187
v 7.675625 1.049039 -0.003933
v 7.676684 1.053169 -0.005788
v 7.678296 1.056817 -0.007688
v 7.680817 1.057415 -0.014275
v 7.684129 1.057955 -0.019637
v 7.686172 1.055738 -0.023397
v 7.676587 1.036403 -0.002096
v 7.676090 1.039299 -0.004032
v 7.677712 1.034281 -0.000021
v 7.675697 1.051459 0.000378
v 7.676706 1.055459 -0.001285
v 7.688217 1.058569 -0.023741
v 7.690789 1.056717 -0.026701
v 7.675221 1.044992 -0.001813
v 7.677301 1.057634 0.002447
v 7.678320 1.059085 -0.002973
v 7.692653 1.059470 -0.026219
v 7.695482 1.058125 -0.028274
v 7.680300 1.062566 -0.004449
v 7.680274 1.059996 -0.009569
v 7.696991 1.060856 -0.027227
v 7.699607 1.060013 -0.028493
v 7.682520 1.062781 -0.011258
v 7.682535 1.065744 -0.006110
v 7.682963 1.060259 -0.015682
v 7.700768 1.063191 -0.026722
v 7.702862 1.062812 -0.027293
v 7.684876 1.065108 -0.012927
v 7.685280 1.062744 -0.016906
v 7.685070 1.067938 -0.008121
v 7.686366 1.060632 -0.020401
v 7.703455 1.065843 -0.025027
v 7.687383 1.067016 -0.014299
v 7.688747 1.063002 -0.020765
v 7.687758 1.064890 -0.017743
v 7.687575 1.069591 -0.010137
v 7.690393 1.061146 -0.023652
v 7.701953 1.066110 -0.024627
v 7.690273 1.066686 -0.018349
v 7.691174 1.065042 -0.020908
v 7.692647 1.063448 -0.023333
v 7.690114 1.070782 -0.011936
v 7.690901 1.072984 -0.008514
v 7.694612 1.062016 -0.025486
v 7.703114 1.068665 -0.022323
v 7.694169 1.067137 -0.020788
v 7.696929 1.064767 -0.024356
v 7.695370 1.065885 -0.022679
v 7.698761 1.063860 -0.025718
v 7.702304 1.069019 -0.021793
v 7.699265 1.067248 -0.022919
v 7.700550 1.066602 -0.023888
v 7.698185 1.068056 -0.021708
v 7.693317 1.071679 -0.013825
v 7.701494 1.069372 -0.021263
v 7.700936 1.069904 -0.020465
v 7.697328 1.068959 -0.020355
v 7.693149 1.069945 -0.016488
v 7.689928 1.068544 -0.015434
v 7.700378 1.070436 -0.019668
v 7.693436 1.068462 -0.018764
v 7.696826 1.069941 -0.018881
v 7.733017 1.030413 0.007893
v 7.732266 1.030940 0.012106
v 7.704995 1.031467 0.011855
v 7.704995 1.031467 0.004733
v 7.733648 1.035383 0.006313
v 7.731515 1.031467 0.016320
v 7.704995 1.031467 0.016320
v 7.678474 1.031467 0.016320
v 7.677723 1.030940 0.012106
v 7.734278 1.040353 0.004733
v 7.704995 1.038691 0.012003
v 7.731642 1.040947 0.014691
v 7.678347 1.040947 0.014691
v 7.676972 1.030413 0.007893
v 7.732277 1.034281 -0.000021
v 7.731848 1.049091 0.013114
v 7.704995 1.045915 0.007686
v 7.678142 1.049091 0.013114
v 7.676342 1.035383 0.006313
v 7.730063 1.028688 -0.004380
v 7.731176 1.054564 0.011639
v 7.678813 1.054564 0.011639
v 7.675711 1.040353 0.004733
v 7.704995 1.041675 -0.001389
v 7.679926 1.028688 -0.004380
v 7.677712 1.034281 -0.000021
v 7.730171 1.058778 0.010082
v 7.679819 1.058778 0.010082
v 7.727974 1.063148 0.008261
v 7.682015 1.063148 0.008261
v 7.725149 1.067008 0.006933
v 7.684841 1.067008 0.006933
v 7.722764 1.069692 0.006856
v 7.687225 1.069692 0.006856
v 7.720511 1.071355 0.007588
v 7.718437 1.072253 0.008721
v 7.716482 1.072603 0.010099
v 7.689478 1.071355 0.007588
v 7.691552 1.072253 0.008721
v 7.693507 1.072603 0.010099
vn -0.0338 0.9064 -0.4210
vn -0.0665 0.9025 -0.4256
vn -0.1030 0.9306 -0.3512
vn -0.0542 0.9379 -0.3428
vn 0.0665 0.9025 -0.4256
vn -0.0000 0.8309 -0.5565
vn 0.0338 0.9064 -0.4210
vn -0.0957 0.8914 -0.4429
vn -0.1535 0.9171 -0.3679
vn 0.0957 0.8914 -0.4429
vn 0.3149 0.9391 -0.1379
vn 0.4047 0.9143 -0.0162
vn 0.4887 0.8708 -0.0537
vn 0.3992 0.9001 -0.1748
vn -0.0000 0.9106 -0.4133
vn 0.2910 0.6145 -0.7333
vn 0.2184 0.6847 -0.6953
vn 0.2525 0.7068 -0.6608
vn 0.3393 0.6436 -0.6860
vn -0.0815 0.9690 -0.2330
vn -0.0000 0.9739 -0.2270
vn -0.0000 0.9403 -0.3403
vn 0.1806 -0.7204 -0.6696
vn 0.1909 -0.6344 -0.7491
vn 0.3833 -0.5926 -0.7084
vn 0.3653 -0.6877 -0.6274
vn 0.4197 0.7548 -0.5041
vn 0.4078 0.7176 -0.5646
vn 0.2959 0.7630 -0.5746
vn 0.3022 0.7912 -0.5317
vn 0.1287 0.8799 -0.4573
vn 0.0815 0.9690 -0.2330
vn 0.0542 0.9379 -0.3428
vn -0.1287 0.8799 -0.4573
vn -0.2029 0.8967 -0.3933
vn 0.5728 0.5542 -0.6039
vn 0.4812 0.6162 -0.6235
vn 0.5220 0.6601 -0.5401
vn 0.6200 0.6004 -0.5051
vn -0.3149 0.9391 -0.1379
vn -0.2206 0.9677 -0.1217
vn -0.1567 0.9572 -0.2433
vn -0.2257 0.9375 -0.2649
vn 0.0218 -0.9985 0.0512
vn -0.0429 -0.8069 -0.5891
vn -0.0000 -0.9256 -0.3785
vn -0.0000 -0.9986 0.0520
vn -0.7216 0.6339 -0.2783
vn -0.6438 0.6874 -0.3361
vn -0.6425 0.6435 -0.4160
vn -0.7266 0.5793 -0.3695
vn 0.9651 0.2427 0.0986
vn 0.9835 0.1765 -0.0408
vn 0.9509 0.2962 -0.0902
vn 0.9291 0.3679 0.0370
vn -0.1506 0.8643 -0.4799
vn -0.2459 0.8716 -0.4241
vn 0.1506 0.8643 -0.4799
vn -0.4887 0.8708 -0.0537
vn -0.5516 0.8263 -0.1144
vn -0.6216 0.7833 0.0019
vn -0.5730 0.8165 0.0703
vn -0.2959 0.7630 -0.5746
vn -0.2778 0.7334 -0.6204
vn -0.3790 0.6782 -0.6296
vn -0.4078 0.7176 -0.5646
vn -0.2906 0.9568 0.0074
vn -0.1314 0.9906 -0.0387
vn -0.1105 0.9868 -0.1181
vn -0.2933 0.9070 -0.3020
vn -0.3470 0.8713 -0.3470
vn -0.4586 0.8578 -0.2319
vn -0.3992 0.9001 -0.1748
vn 0.1214 0.6525 -0.7480
vn 0.0772 0.7285 -0.6807
vn 0.1094 0.7411 -0.6624
vn 0.1768 0.6666 -0.7242
vn -0.2779 0.8442 -0.4584
vn -0.3905 0.8284 -0.4016
vn -0.9835 0.1765 -0.0408
vn -0.9991 0.0286 0.0305
vn -0.9790 0.1027 0.1759
vn -0.9651 0.2427 0.0986
vn 0.1731 0.8484 -0.5002
vn -0.9291 0.3679 0.0370
vn -0.8893 0.4569 -0.0197
vn -0.9067 0.3994 -0.1353
vn -0.9509 0.2962 -0.0902
vn 0.1567 0.9572 -0.2433
vn 0.1030 0.9306 -0.3512
vn 0.2257 0.9375 -0.2649
vn 0.1535 0.9171 -0.3679
vn -0.4047 0.9143 -0.0162
vn -0.0000 0.3477 0.9376
vn -0.0000 0.2655 0.9641
vn 0.1979 0.2914 0.9359
vn 0.1218 0.3459 0.9303
vn -0.1817 0.8322 -0.5239
vn -0.2975 0.8167 -0.4945
vn -0.1731 0.8484 -0.5002
vn 0.1817 0.8322 -0.5239
vn 0.2029 0.8967 -0.3933
vn 0.2933 0.9070 -0.3020
vn -0.0000 0.9993 -0.0361
vn -0.0000 0.9934 -0.1145
vn 0.1896 0.8151 -0.5475
vn -0.4889 0.8669 0.0976
vn -0.6230 0.7022 0.3446
vn -0.3852 0.8837 0.2658
vn -0.3592 0.9254 0.1210
vn 0.3470 0.8713 -0.3470
vn 0.2459 0.8716 -0.4241
vn 0.5623 -0.3954 -0.7263
vn 0.5607 -0.2738 -0.7814
vn 0.7190 -0.1856 -0.6698
vn 0.7354 -0.2996 -0.6078
vn 0.1105 0.9868 -0.1181
vn 0.2206 0.9677 -0.1217
vn -0.0000 -0.7771 -0.6294
vn -0.0000 -0.7324 -0.6809
vn 0.1629 -0.7663 -0.6215
vn 0.7266 0.5793 -0.3695
vn 0.7216 0.6339 -0.2783
vn 0.7955 0.5649 -0.2192
vn 0.7992 0.5069 -0.3230
vn 0.1832 0.7989 -0.5729
vn 0.1314 0.9906 -0.0387
vn 0.0007 0.5908 0.8068
vn -0.3027 0.5259 0.7949
vn -0.2594 0.3248 0.9095
vn 0.0004 0.2975 0.9547
vn 0.2906 0.9568 0.0074
vn -0.4150 0.7885 -0.4540
vn -0.3022 0.7912 -0.5317
vn -0.4197 0.7548 -0.5041
vn 0.1775 0.7795 -0.6007
vn -0.0000 0.9984 0.0568
vn 0.1374 0.9898 0.0386
vn -0.1374 0.9898 0.0386
vn 0.1580 0.7653 -0.6240
vn 0.2778 0.7334 -0.6204
vn 0.7500 0.6611 -0.0216
vn 0.6829 0.7179 -0.1349
vn 0.6221 0.7829 -0.0052
vn 0.6820 0.7124 0.1657
vn 0.2812 0.5142 -0.8103
vn 0.1949 0.4903 -0.8495
vn 0.1618 0.5702 -0.8054
vn 0.2331 0.5896 -0.7734
vn -0.5728 0.5542 -0.6039
vn -0.4812 0.6162 -0.6235
vn -0.4250 0.5784 -0.6963
vn -0.5060 0.5134 -0.6930
vn -0.1775 0.7795 -0.6007
vn -0.1580 0.7653 -0.6240
vn -0.2525 0.7068 -0.6608
vn -0.1552 0.9836 0.0915
vn -0.7500 0.6611 -0.0216
vn -0.6829 0.7179 -0.1349
vn -0.7955 0.5649 -0.2192
vn -0.0000 0.9892 0.1467
vn 0.1552 0.9836 0.0915
vn -0.5220 0.6601 -0.5401
vn -0.5402 0.7023 -0.4637
vn -0.1741 0.9744 0.1424
vn 0.1741 0.9744 0.1424
vn 0.3592 0.9254 0.1210
vn -0.7101 0.5305 -0.4630
vn -0.6200 0.6004 -0.5051
vn -0.6641 0.4775 -0.5754
vn 0.7163 0.6391 0.2802
vn 0.7899 0.5991 0.1309
vn -0.5374 0.7429 -0.3992
vn -0.5098 0.7990 -0.3189
vn -0.6411 0.7066 0.2995
vn 0.3852 0.8837 0.2658
vn 0.6156 0.7060 0.3502
vn 0.4811 0.8716 0.0945
vn 0.9458 -0.2605 -0.1937
vn 0.8755 -0.3495 -0.3336
vn 0.8754 -0.2062 -0.4373
vn 0.9525 -0.1307 -0.2749
vn 0.5674 0.8213 0.0593
vn -0.1791 0.9641 0.1961
vn -0.0000 0.9796 0.2007
vn 0.5402 0.7023 -0.4637
vn -0.1696 0.9505 0.2602
vn 0.3814 0.3364 -0.8610
vn 0.3258 0.4395 -0.8370
vn 0.4215 0.4748 -0.7726
vn 0.4962 0.3791 -0.7811
vn -0.1829 0.8327 0.5227
vn -0.2965 0.6277 0.7198
vn -0.0000 0.7599 0.6501
vn -0.0000 0.8760 0.4823
vn -0.2184 0.6847 -0.6953
vn -0.1401 0.7491 -0.6475
vn -0.0000 0.9687 0.2483
vn 0.1791 0.9641 0.1961
vn 0.1696 0.9505 0.2602
vn 0.8759 -0.4797 -0.0516
vn 0.7933 -0.5875 -0.1598
vn 0.8393 -0.4994 -0.2151
vn 0.9139 -0.3933 -0.1010
vn -0.0000 0.9444 0.3289
vn 0.1637 0.9236 0.3467
vn 0.4586 0.8578 -0.2319
vn 0.5098 0.7990 -0.3189
vn 0.3905 0.8284 -0.4016
vn -0.8393 -0.4994 -0.2151
vn -0.8755 -0.3495 -0.3336
vn -0.7336 -0.4510 -0.5084
vn -0.7134 -0.5950 -0.3702
vn 0.2779 0.8442 -0.4584
vn 0.5516 0.8263 -0.1144
vn -0.4012 0.7961 0.4531
vn -0.1637 0.9236 0.3467
vn -0.3393 0.6436 -0.6860
vn 0.4150 0.7885 -0.4540
vn 0.2975 0.8167 -0.4945
vn 0.5374 0.7429 -0.3992
vn -0.2910 0.6145 -0.7333
vn -0.3575 0.5447 -0.7586
vn -0.9139 -0.3933 -0.1010
vn -0.9458 -0.2605 -0.1937
vn -0.1896 0.8151 -0.5475
vn -0.0602 0.6440 -0.7626
vn -0.0364 0.7275 -0.6852
vn -0.0000 0.7216 -0.6924
vn -0.0000 0.6417 -0.7670
vn 0.1401 0.7491 -0.6475
vn 0.1829 0.8327 0.5227
vn 0.2966 0.6278 0.7197
vn 0.3579 0.6988 0.6194
vn 0.4012 0.7961 0.4531
vn -0.1832 0.7989 -0.5729
vn -0.6993 0.5328 0.4766
vn -0.7080 0.4404 0.5521
vn -0.8022 0.1858 0.5675
vn -0.3579 0.6988 0.6194
vn -0.4644 0.4406 0.7682
vn -0.9709 -0.0332 0.2373
vn -0.9678 -0.0761 0.2399
vn -0.9430 -0.0269 0.3318
vn -0.9255 0.0311 0.3776
vn 0.9205 0.1234 0.3707
vn 0.9255 0.0311 0.3776
vn 0.9709 -0.0332 0.2373
vn 0.9624 0.0349 0.2692
vn 0.6993 0.5328 0.4766
vn 0.7006 0.4389 0.5627
vn 0.3081 0.5214 0.7958
vn 0.4386 0.3965 0.8065
vn -0.4742 0.3801 0.7942
vn -0.4372 0.3976 0.8067
vn 0.4644 0.4406 0.7682
vn 0.6062 0.3988 0.6881
vn -0.7006 0.4389 0.5627
vn -0.6062 0.3988 0.6881
vn 0.4742 0.3801 0.7942
vn 0.6000 0.2873 0.7466
vn -0.7144 0.2158 0.6657
vn -0.6000 0.2873 0.7466
vn -0.6381 0.5991 0.4837
vn 0.3674 0.2953 0.8819
vn -0.8077 0.1309 0.5749
vn -0.7139 0.6415 0.2808
vn -0.7899 0.5991 0.1309
vn -0.8026 0.5437 0.2454
vn -0.7048 0.6012 0.3766
vn 0.3332 -0.7370 -0.5881
vn -0.9256 0.1997 0.3217
vn -0.9016 0.3378 0.2701
vn 0.2584 0.3257 0.9095
vn -0.0000 0.1196 0.9928
vn 0.7144 0.2158 0.6657
vn 0.6372 0.7068 0.3072
vn 0.6259 0.5713 0.5309
vn 0.6711 0.6363 0.3805
vn 0.6963 0.4301 0.5746
vn -0.3671 0.2966 0.8816
vn -0.6751 0.7167 0.1749
vn 0.7048 0.6012 0.3766
vn -0.8524 0.4727 0.2236
vn -0.8401 0.4180 0.3456
vn -0.7721 0.5812 0.2573
vn -0.6122 0.7583 -0.2238
vn 0.8524 0.4727 0.2236
vn 0.8026 0.5437 0.2454
vn 0.7721 0.5812 0.2573
vn 0.8077 0.1309 0.5749
vn -0.6621 0.6508 0.3715
vn -0.5501 -0.5343 -0.6418
vn -0.5411 -0.6513 -0.5320
vn 0.8480 0.5257 -0.0673
vn 0.6122 0.7583 -0.2238
vn -0.7992 0.5069 -0.3230
vn 0.8496 -0.0996 -0.5180
vn 0.5933 0.4276 -0.6821
vn 0.5060 0.5134 -0.6930
vn 0.6641 0.4775 -0.5754
vn -0.1324 0.2843 -0.9495
vn -0.2617 0.3048 -0.9157
vn -0.2243 0.4125 -0.8829
vn -0.1132 0.3954 -0.9115
vn 0.8022 0.1858 0.5675
vn -0.8589 0.4302 -0.2777
vn -0.9087 0.3452 -0.2347
vn -0.8600 0.4799 -0.1737
vn -0.9889 -0.0922 0.1162
vn -0.9824 -0.1294 0.1350
vn -0.0000 -0.6483 -0.7614
vn -0.8466 0.3743 -0.3784
vn -0.8994 0.2800 -0.3356
vn -0.7856 0.4557 -0.4184
vn -0.9929 -0.0954 0.0714
vn -0.9624 0.0349 0.2692
vn 0.9929 -0.0954 0.0714
vn 0.9538 -0.3005 -0.0043
vn 0.9799 -0.1791 -0.0882
vn 0.9967 -0.0366 -0.0728
vn -0.0000 -0.1134 -0.9935
vn -0.0000 -0.2611 -0.9653
vn -0.1913 -0.2479 -0.9497
vn -0.1822 -0.1025 -0.9779
vn 0.5411 -0.6513 -0.5320
vn 0.5039 -0.7058 -0.4980
vn 0.8817 0.2765 0.3822
vn 0.9256 0.1997 0.3217
vn -0.7438 0.3940 -0.5399
vn -0.8082 0.3047 -0.5039
vn -0.8480 0.5257 -0.0673
vn -0.8615 0.2078 -0.4632
vn -0.5933 0.4276 -0.6821
vn -0.6712 0.3321 -0.6628
vn 0.8893 0.4569 -0.0197
vn 0.8401 0.4180 0.3456
vn 0.9016 0.3378 0.2701
vn -0.7325 0.2302 -0.6406
vn -0.7803 0.1237 -0.6130
vn 0.7325 0.2302 -0.6406
vn 0.6712 0.3321 -0.6628
vn 0.7438 0.3940 -0.5399
vn 0.8082 0.3047 -0.5039
vn 0.3575 0.5447 -0.7586
vn -0.4215 0.4748 -0.7726
vn 0.0808 0.5586 -0.8255
vn 0.0602 0.6440 -0.7626
vn 0.8994 0.2800 -0.3356
vn 0.8615 0.2078 -0.4632
vn 0.8466 0.3743 -0.3784
vn 0.4250 0.5784 -0.6963
vn -0.2812 0.5142 -0.8103
vn -0.3258 0.4395 -0.8370
vn 0.6740 -0.6633 -0.3252
vn 0.7134 -0.5950 -0.3702
vn 0.9790 0.1027 0.1759
vn -0.8817 0.2765 0.3822
vn -0.9205 0.1234 0.3707
vn -0.4962 0.3791 -0.7811
vn -0.9427 0.1710 -0.2865
vn -0.9063 0.0956 -0.4116
vn -0.9967 -0.0366 -0.0728
vn -0.9836 0.1130 -0.1406
vn -0.1094 0.7411 -0.6624
vn -0.1768 0.6666 -0.7242
vn -0.2331 0.5896 -0.7734
vn -0.1618 0.5702 -0.8054
vn -0.1949 0.4903 -0.8495
vn -0.1214 0.6525 -0.7480
vn -0.0772 0.7285 -0.6807
vn -0.0000 0.3898 -0.9209
vn -0.0000 0.4712 -0.8821
vn 0.0980 0.4758 -0.8741
vn 0.1132 0.3954 -0.9115
vn -0.3814 0.3364 -0.8610
vn 0.9430 -0.0269 0.3318
vn 0.9678 -0.0761 0.2399
vn 0.0364 0.7275 -0.6852
vn -0.0808 0.5586 -0.8255
vn -0.0980 0.4758 -0.8741
vn 0.9991 0.0286 0.0305
vn 0.9824 -0.1294 0.1350
vn 0.9889 -0.0922 0.1162
vn -0.0000 0.5551 -0.8318
vn -0.9799 -0.1791 -0.0882
vn -0.9538 -0.3005 -0.0043
vn 0.5483 -0.1505 -0.8227
vn 0.6966 -0.0767 -0.7133
vn 0.9842 -0.0714 -0.1622
vn -0.9842 -0.0714 -0.1622
vn -0.9525 -0.1307 -0.2749
vn 0.9162 -0.3959 0.0616
vn 0.7856 0.4557 -0.4184
vn 0.8589 0.4302 -0.2777
vn -0.8759 -0.4797 -0.0516
vn -0.9162 -0.3959 0.0616
vn -0.9535 0.2357 -0.1877
vn -0.9722 0.0523 -0.2284
vn -0.9365 -0.0161 -0.3504
vn 0.7803 0.1237 -0.6130
vn -0.7933 -0.5875 -0.1598
vn 0.0575 -0.6044 0.7946
vn -0.0000 -0.5527 0.8334
vn -0.6640 0.0447 -0.7464
vn -0.6210 0.1588 -0.7676
vn 0.3874 -0.3472 -0.8540
vn 0.1951 -0.3943 -0.8980
vn 0.1913 -0.2479 -0.9497
vn 0.3786 -0.2091 -0.9016
vn -0.7190 -0.1856 -0.6698
vn -0.8496 -0.0996 -0.5180
vn -0.8198 0.0058 -0.5726
vn -0.6966 -0.0767 -0.7133
vn -0.6740 -0.6633 -0.3252
vn -0.5483 -0.1505 -0.8227
vn -0.5607 -0.2738 -0.7814
vn 0.1948 -0.5280 -0.8266
vn -0.0000 -0.5456 -0.8381
vn -0.0000 -0.4118 -0.9113
vn -0.8754 -0.2062 -0.4373
vn -0.7354 -0.2996 -0.6078
vn -0.5648 0.2719 -0.7791
vn -0.4360 0.2202 -0.8726
vn -0.4833 0.0991 -0.8698
vn 0.3598 -0.0710 -0.9303
vn 0.1822 -0.1025 -0.9779
vn 0.1684 0.0321 -0.9852
vn 0.3325 0.0581 -0.9413
vn -0.5039 -0.7058 -0.4980
vn -0.2992 0.1841 -0.9363
vn 0.9087 0.3452 -0.2347
vn -0.5623 -0.3954 -0.7263
vn -0.3653 -0.6877 -0.6274
vn -0.3332 -0.7370 -0.5881
vn -0.1515 0.1610 -0.9753
vn -0.1806 -0.7204 -0.6696
vn -0.1629 -0.7663 -0.6215
vn -0.0000 0.2772 -0.9608
vn -0.3833 -0.5926 -0.7084
vn -0.1909 -0.6344 -0.7491
vn 0.5501 -0.5343 -0.6418
vn -0.3598 -0.0710 -0.9303
vn -0.3325 0.0581 -0.9413
vn -0.1684 0.0321 -0.9852
vn 0.1324 0.2843 -0.9495
vn -0.3874 -0.3472 -0.8540
vn -0.3889 -0.4756 -0.7890
vn 0.1515 0.1610 -0.9753
vn 0.2992 0.1841 -0.9363
vn 0.2617 0.3048 -0.9157
vn 0.4360 0.2202 -0.8726
vn 0.8198 0.0058 -0.5726
vn -0.3786 -0.2091 -0.9016
vn -0.1951 -0.3943 -0.8980
vn -0.0000 0.1529 -0.9882
vn -0.1948 -0.5280 -0.8266
vn 0.3889 -0.4756 -0.7890
vn 0.2243 0.4125 -0.8829
vn -0.0000 0.0229 -0.9997
vn -0.5208 -0.0221 -0.8534
vn 0.7336 -0.4510 -0.5084
vn 0.6640 0.0447 -0.7464
vn 0.6210 0.1588 -0.7676
vn 0.4833 0.0991 -0.8698
vn 0.5208 -0.0221 -0.8534
vn 0.9365 -0.0161 -0.3504
vn 0.9063 0.0956 -0.4116
vn 0.5648 0.2719 -0.7791
vn 0.9722 0.0523 -0.2284
vn 0.9427 0.1710 -0.2865
vn 0.9067 0.3994 -0.1353
vn 0.8600 0.4799 -0.1737
vn 0.9836 0.1130 -0.1406
vn 0.9535 0.2357 -0.1877
vn 0.7101 0.5305 -0.4630
vn 0.6438 0.6874 -0.3361
vn 0.6425 0.6435 -0.4160
vn 0.3790 0.6782 -0.6296
vn -0.0575 -0.6044 0.7946
vn -0.0218 -0.9985 0.0512
vn 0.0429 -0.8069 -0.5891
vn 0.0948 -0.3125 -0.9452
vn 0.2805 -0.9243 -0.2589
vn -0.1218 0.3459 0.9303
vn 0.1952 -0.6462 0.7377
vn -0.1979 0.2914 0.9359
vn -0.0948 -0.3125 -0.9452
vn 0.1064 -0.8309 0.5461
vn -0.2275 0.2598 0.9385
vn 0.2275 0.2598 0.9385
vn -0.2805 -0.9243 -0.2589
vn -0.0000 -0.5143 -0.8576
vn -0.1064 -0.8309 0.5461
vn -0.1952 -0.6462 0.7377
vn -0.2318 0.2802 0.9315
vn 0.2318 0.2802 0.9315
vn -0.2013 0.2366 0.9505
vn 0.2013 0.2366 0.9505
vn -0.0792 0.1110 0.9907
vn 0.0792 0.1110 0.9907
vn 0.1192 -0.0545 0.9914
vn -0.1192 -0.0545 0.9914
vn 0.3031 -0.1813 0.9355
vn 0.4467 -0.2616 0.8556
vn 0.5149 -0.2944 0.8051
vn -0.3031 -0.1813 0.9355
vn -0.4467 -0.2616 0.8556
vn -0.5149 -0.2944 0.8051
vt 0.000000 0.000000
s 1
f 16/1/1 24/1/2 25/1/3 15/1/4
f 1/1/5 4/1/6 2/1/7
f 33/1/8 34/1/9 25/1/3 24/1/2
f 1/1/5 5/1/10 4/1/6
f 19/1/11 44/1/12 36/1/13 29/1/14
f 2/1/7 4/1/6 8/1/15
f 109/1/16 110/1/17 68/1/18 104/1/19
f 15/1/4 43/1/20 9/1/21 7/1/22
f 316/1/23 338/1/24 322/1/25 315/1/26
f 65/1/27 66/1/28 59/1/29 45/1/30
f 5/1/10 14/1/31 4/1/6
f 9/1/21 10/1/32 6/1/33 7/1/22
f 2/1/7 8/1/15 7/1/22 6/1/33
f 8/1/15 4/1/6 16/1/1
f 33/1/8 39/1/34 40/1/35 34/1/9
f 97/1/36 95/1/37 74/1/38 96/1/39
f 49/1/40 54/1/41 35/1/42 41/1/43
f 478/1/44 483/1/45 473/1/46 472/1/47
f 437/1/48 443/1/49 440/1/50 435/1/51
f 193/1/52 234/1/53 195/1/54 187/1/55
f 47/1/56 48/1/57 40/1/35 39/1/34
f 14/1/31 23/1/58 4/1/6
f 16/1/1 4/1/6 24/1/2
f 85/1/59 208/1/60 199/1/61 192/1/62
f 469/1/63 464/1/64 453/1/65 468/1/66
f 57/1/67 56/1/68 50/1/69 54/1/41
f 42/1/70 92/1/71 93/1/72 86/1/73
f 244/1/74 251/1/75 115/1/76 114/1/77
f 48/1/57 101/1/78 100/1/79 92/1/71
f 417/1/80 296/1/81 253/1/82 238/1/83
f 23/1/58 32/1/84 4/1/6
f 422/1/85 221/1/86 423/1/87 418/1/88
f 24/1/2 4/1/6 33/1/8
f 6/1/33 10/1/32 11/1/89 3/1/90
f 11/1/89 18/1/91 12/1/92 3/1/90
f 49/1/40 86/1/73 85/1/59 76/1/93
f 93/1/72 208/1/60 85/1/59 86/1/73
f 480/1/94 486/1/95 487/1/96 482/1/97
f 108/1/98 106/1/99 101/1/78 107/1/100
f 32/1/84 38/1/101 4/1/6
f 33/1/8 4/1/6 39/1/34
f 13/1/102 14/1/31 5/1/10 12/1/92
f 21/1/103 13/1/102 12/1/92 18/1/91
f 50/1/69 56/1/68 55/1/104 51/1/105
f 38/1/101 46/1/106 4/1/6
f 39/1/34 4/1/6 47/1/56
f 77/1/107 186/1/108 83/1/109 78/1/110
f 21/1/103 27/1/111 22/1/112 13/1/102
f 19/1/11 29/1/14 21/1/103 18/1/91
f 325/1/113 326/1/114 294/1/115 318/1/116
f 9/1/21 51/1/105 17/1/117 10/1/32
f 17/1/117 20/1/118 11/1/89 10/1/32
f 324/1/119 330/1/120 316/1/23 317/1/121
f 77/1/107 78/1/110 57/1/67 76/1/93
f 184/1/122 175/1/123 177/1/124 182/1/125
f 46/1/106 53/1/126 4/1/6
f 42/1/70 41/1/43 34/1/9 40/1/35
f 55/1/104 58/1/127 17/1/117 51/1/105
f 127/1/128 157/1/129 155/1/130 147/1/131
f 26/1/132 44/1/12 19/1/11 20/1/118
f 461/1/133 106/1/99 113/1/134 465/1/135
f 53/1/126 61/1/136 4/1/6
f 55/1/104 64/1/137 63/1/138 58/1/127
f 56/1/68 57/1/67 62/1/139
f 58/1/127 63/1/138 26/1/132
f 69/1/140 61/1/136 60/1/141 68/1/18
f 158/1/142 170/1/143 150/1/144 151/1/145
f 469/1/63 468/1/66 465/1/135 113/1/134
f 236/1/146 255/1/147 243/1/148 237/1/149
f 441/1/150 447/1/151 448/1/152 444/1/153
f 464/1/64 467/1/154 463/1/155 460/1/156
f 61/1/136 69/1/140 4/1/6
f 62/1/139 57/1/67 70/1/157
f 209/1/158 224/1/159 437/1/48 431/1/160
f 62/1/139 70/1/157 71/1/161 64/1/137
f 63/1/138 72/1/162 26/1/132
f 465/1/135 468/1/66 446/1/163 466/1/164
f 446/1/163 468/1/66 453/1/65 447/1/151
f 70/1/157 75/1/165 71/1/161
f 79/1/166 80/1/167 26/1/132 72/1/162
f 436/1/168 442/1/169 441/1/150 438/1/170
f 72/1/162 71/1/161 79/1/166
f 152/1/171 160/1/172 158/1/142 151/1/145
f 100/1/79 461/1/133 449/1/173 450/1/174
f 449/1/173 466/1/164 440/1/50 443/1/49
f 192/1/62 190/1/175 186/1/108 77/1/107
f 87/1/176 136/1/177 52/1/178 80/1/167
f 276/1/179 306/1/180 299/1/181 300/1/182
f 465/1/135 466/1/164 449/1/173 461/1/133
f 52/1/178 145/1/183 36/1/13 44/1/12
f 83/1/109 84/1/184 75/1/165 78/1/110
f 57/1/67 78/1/110 75/1/165 70/1/157
f 84/1/184 91/1/185 71/1/161 75/1/165
f 65/1/27 82/1/186 74/1/38 66/1/28
f 42/1/70 86/1/73 49/1/40 41/1/43
f 84/1/184 83/1/109 90/1/187
f 248/1/188 249/1/189 228/1/190 241/1/191
f 119/1/192 126/1/193 118/1/194 111/1/195
f 458/1/196 460/1/156 463/1/155 462/1/197
f 90/1/187 99/1/198 91/1/185 84/1/184
f 88/1/199 94/1/200 87/1/176
f 446/1/163 447/1/151 441/1/150 442/1/169
f 284/1/201 290/1/202 289/1/203 285/1/204
f 99/1/198 105/1/205 102/1/206 94/1/200
f 28/1/207 163/1/208 31/1/209 27/1/111
f 357/1/210 399/1/211 364/1/212 356/1/213
f 30/1/214 32/1/84 23/1/58 22/1/112
f 36/1/13 154/1/215 28/1/207 29/1/14
f 83/1/109 120/1/216 98/1/217 90/1/187
f 453/1/65 464/1/64 460/1/156 455/1/218
f 35/1/42 43/1/20 15/1/4 25/1/3
f 31/1/209 73/1/219 37/1/220 30/1/214
f 47/1/56 4/1/6 107/1/100
f 163/1/208 81/1/221 73/1/219 31/1/209
f 107/1/100 4/1/6 108/1/98
f 448/1/152 455/1/218 454/1/222 451/1/223
f 454/1/222 455/1/218 460/1/156 458/1/196
f 71/1/161 72/1/162 63/1/138 64/1/137
f 357/1/210 407/1/224 406/1/225 399/1/211
f 98/1/217 119/1/192 111/1/195 105/1/205
f 108/1/98 4/1/6 112/1/226
f 45/1/30 46/1/106 38/1/101 37/1/220
f 440/1/50 442/1/169 436/1/168 435/1/51
f 439/1/227 274/1/228 267/1/229 266/1/230
f 69/1/140 116/1/231 4/1/6
f 116/1/231 115/1/76 4/1/6
f 111/1/195 117/1/232 102/1/206 105/1/205
f 118/1/194 123/1/233 117/1/232 111/1/195
f 124/1/234 125/1/235 102/1/206 117/1/232
f 112/1/226 4/1/6 122/1/236
f 45/1/30 59/1/29 53/1/126 46/1/106
f 129/1/237 186/1/108 185/1/238 180/1/239
f 121/1/240 166/1/241 126/1/193 119/1/192
f 246/1/242 259/1/243 252/1/244 247/1/245
f 118/1/194 126/1/193 127/1/128
f 118/1/194 127/1/128 123/1/233
f 210/1/246 265/1/247 263/1/248 256/1/249
f 135/1/250 87/1/176 125/1/235 134/1/251
f 123/1/233 127/1/128 131/1/252
f 123/1/233 131/1/252 132/1/253
f 166/1/241 165/1/254 164/1/255 126/1/193
f 124/1/234 130/1/256 133/1/257
f 128/1/258 173/1/259 121/1/240 120/1/216
f 17/1/117 58/1/127 26/1/132 20/1/118
f 87/1/176 135/1/250 136/1/177
f 130/1/256 137/1/260 138/1/261
f 166/1/241 173/1/259 172/1/262 171/1/263
f 129/1/237 128/1/258 120/1/216 83/1/109
f 190/1/175 191/1/264 185/1/238 186/1/108
f 79/1/166 88/1/199 87/1/176 80/1/167
f 132/1/253 141/1/265 137/1/260
f 128/1/258 129/1/237 180/1/239 179/1/266
f 206/1/267 213/1/268 214/1/269 207/1/270
f 311/1/271 317/1/121 316/1/23 315/1/26
f 238/1/83 253/1/82 231/1/272 230/1/273
f 140/1/274 147/1/131 141/1/265
f 141/1/265 147/1/131 148/1/275
f 26/1/132 80/1/167 52/1/178 44/1/12
f 3/1/90 12/1/92 5/1/10 1/1/5
f 139/1/276 133/1/257 130/1/256 138/1/261
f 146/1/277 149/1/278 153/1/279
f 144/1/280 149/1/278 146/1/277 136/1/177
f 147/1/131 156/1/281 148/1/275
f 147/1/131 155/1/130 156/1/281
f 127/1/128 126/1/193 157/1/129
f 209/1/158 213/1/268 206/1/267 200/1/282
f 199/1/61 224/1/159 209/1/158 200/1/282
f 153/1/279 159/1/283 152/1/171
f 215/1/284 230/1/273 223/1/285 216/1/286
f 217/1/287 224/1/159 199/1/61 208/1/60
f 30/1/214 37/1/220 38/1/101 32/1/84
f 217/1/287 450/1/174 449/1/173 443/1/49
f 140/1/274 141/1/265 132/1/253 131/1/252
f 157/1/129 126/1/193 164/1/255
f 156/1/281 164/1/255 165/1/254
f 128/1/258 179/1/266 172/1/262 173/1/259
f 159/1/283 167/1/288 161/1/289
f 159/1/283 168/1/290 167/1/288
f 136/1/177 146/1/277 145/1/183 52/1/178
f 422/1/85 215/1/284 214/1/269 221/1/86
f 165/1/254 166/1/241 171/1/263
f 166/1/241 121/1/240 173/1/259
f 139/1/276 142/1/291 134/1/251 133/1/257
f 198/1/292 190/1/175 200/1/282 206/1/267
f 47/1/56 107/1/100 101/1/78 48/1/57
f 364/1/212 365/1/293 346/1/294 356/1/213
f 158/1/142 160/1/172 176/1/295
f 102/1/206 125/1/235 87/1/176 94/1/200
f 464/1/64 469/1/63 122/1/236 467/1/154
f 150/1/144 170/1/143 162/1/296 154/1/215
f 98/1/217 105/1/205 99/1/198 90/1/187
f 430/1/297 431/1/160 437/1/48 435/1/51
f 299/1/181 318/1/116 294/1/115 293/1/298
f 453/1/65 455/1/218 448/1/152 447/1/151
f 219/1/299 220/1/300 97/1/36 212/1/301
f 341/1/302 370/1/303 349/1/304 342/1/305
f 135/1/250 143/1/306 144/1/280 136/1/177
f 129/1/237 83/1/109 186/1/108
f 143/1/306 135/1/250 134/1/251 142/1/291
f 427/1/307 410/1/308 423/1/87 426/1/309
f 123/1/233 130/1/256 124/1/234 117/1/232
f 246/1/242 275/1/310 268/1/311 259/1/243
f 215/1/284 422/1/85 238/1/83 230/1/273
f 238/1/83 422/1/85 418/1/88 417/1/80
f 337/1/312 338/1/24 316/1/23 330/1/120
f 410/1/308 427/1/307 411/1/313 404/1/314
f 430/1/297 432/1/315 411/1/313 427/1/307
f 191/1/264 190/1/175 198/1/292
f 150/1/144 154/1/215 36/1/13 145/1/183
f 217/1/287 443/1/49 437/1/48 224/1/159
f 283/1/316 275/1/310 246/1/242 245/1/317
f 257/1/318 277/1/319 270/1/320 264/1/321
f 353/1/322 371/1/323 374/1/324 368/1/325
f 146/1/277 153/1/279 152/1/171 151/1/145
f 198/1/292 206/1/267 207/1/270
f 277/1/319 285/1/204 276/1/179 270/1/320
f 311/1/271 315/1/26 304/1/326 305/1/327
f 202/1/328 210/1/246 201/1/329
f 71/1/161 91/1/185 88/1/199 79/1/166
f 411/1/313 432/1/315 412/1/330 405/1/331
f 161/1/289 160/1/172 152/1/171 159/1/283
f 207/1/270 214/1/269 215/1/284
f 207/1/270 215/1/284 216/1/286
f 221/1/86 222/1/332 426/1/309 423/1/87
f 162/1/296 163/1/208 28/1/207 154/1/215
f 404/1/314 411/1/313 405/1/331 396/1/333
f 412/1/330 438/1/170 419/1/334 413/1/335
f 441/1/150 444/1/153 419/1/334 438/1/170
f 176/1/295 160/1/172 161/1/289 169/1/336
f 426/1/309 222/1/332 209/1/158 431/1/160
f 213/1/268 209/1/158 222/1/332
f 174/1/337 194/1/338 167/1/288 168/1/290
f 412/1/330 413/1/335 390/1/339 405/1/331
f 396/1/333 405/1/331 390/1/339 388/1/340
f 225/1/341 233/1/342 211/1/343 218/1/344
f 228/1/190 249/1/189 236/1/146 229/1/345
f 448/1/152 451/1/223 424/1/346 444/1/153
f 174/1/337 202/1/328 201/1/329 194/1/338
f 243/1/148 261/1/347 262/1/348 244/1/74
f 204/1/349 226/1/350 218/1/344 197/1/351
f 103/1/352 229/1/345 109/1/16 104/1/19
f 424/1/346 451/1/223 428/1/353 425/1/354
f 297/1/355 303/1/356 289/1/203 290/1/202
f 201/1/329 250/1/357 193/1/52 194/1/338
f 232/1/358 231/1/272 239/1/359
f 419/1/334 444/1/153 424/1/346 420/1/360
f 403/1/361 404/1/314 396/1/333 395/1/362
f 421/1/363 296/1/81 417/1/80 408/1/364
f 155/1/130 157/1/129 164/1/255 156/1/281
f 458/1/196 462/1/197 457/1/365 459/1/366
f 428/1/353 456/1/367 433/1/368 429/1/369
f 445/1/370 459/1/366 457/1/365 452/1/371
f 48/1/57 92/1/71 42/1/70 40/1/35
f 231/1/272 232/1/358 223/1/285 230/1/273
f 320/1/372 321/1/373 260/1/374 314/1/375
f 424/1/346 425/1/354 377/1/376 420/1/360
f 115/1/76 251/1/75 4/1/6
f 273/1/377 281/1/378 263/1/248 265/1/247
f 211/1/343 233/1/342 219/1/299 212/1/301
f 2/1/7 6/1/33 3/1/90 1/1/5
f 231/1/272 253/1/82 245/1/317 239/1/359
f 253/1/82 296/1/81 283/1/316 245/1/317
f 445/1/370 452/1/371 274/1/228 439/1/227
f 251/1/75 258/1/379 4/1/6
f 433/1/368 434/1/380 329/1/381 429/1/369
f 349/1/304 429/1/369 329/1/381 342/1/305
f 433/1/368 445/1/370 439/1/227 434/1/380
f 246/1/242 247/1/245 239/1/359 245/1/317
f 98/1/217 120/1/216 121/1/240 119/1/192
f 242/1/382 257/1/318 264/1/321
f 122/1/236 469/1/63 113/1/134 112/1/226
f 258/1/379 267/1/229 4/1/6
f 282/1/383 278/1/384 263/1/248 281/1/378
f 329/1/381 434/1/380 269/1/385 321/1/373
f 434/1/380 439/1/227 266/1/230 269/1/385
f 283/1/316 421/1/363 415/1/386 414/1/387
f 294/1/115 326/1/114 298/1/388 292/1/389
f 264/1/321 270/1/320 271/1/390
f 167/1/288 187/1/55 169/1/336 161/1/289
f 267/1/229 274/1/228 4/1/6
f 266/1/230 267/1/229 258/1/379 262/1/348
f 406/1/225 415/1/386 401/1/391 400/1/392
f 414/1/387 415/1/386 406/1/225 407/1/224
f 257/1/318 279/1/393 277/1/319
f 197/1/351 205/1/394 182/1/125 189/1/395
f 13/1/102 22/1/112 23/1/58 14/1/31
f 263/1/248 278/1/384 257/1/318 256/1/249
f 106/1/99 461/1/133 100/1/79 101/1/78
f 366/1/396 416/1/397 414/1/387 407/1/224
f 409/1/398 410/1/308 404/1/314 403/1/361
f 401/1/391 402/1/399 394/1/400 400/1/392
f 226/1/350 286/1/401 225/1/341 218/1/344
f 366/1/396 407/1/224 357/1/210 358/1/402
f 480/1/94 482/1/97 477/1/403 476/1/404
f 384/1/405 388/1/340 390/1/339 389/1/406
f 333/1/407 355/1/408 340/1/409 334/1/410
f 386/1/411 393/1/412 387/1/413 385/1/414
f 193/1/52 250/1/357 242/1/382 234/1/53
f 350/1/415 358/1/402 357/1/210 356/1/213
f 386/1/411 385/1/414 381/1/416 383/1/417
f 343/1/418 360/1/419 363/1/420 355/1/408
f 363/1/420 371/1/323 340/1/409 355/1/408
f 392/1/421 393/1/412 386/1/411 391/1/422
f 400/1/392 392/1/421 399/1/211 406/1/225
f 397/1/423 398/1/424 376/1/425 389/1/406
f 312/1/426 348/1/427 327/1/428 319/1/429
f 350/1/415 356/1/213 346/1/294 345/1/430
f 398/1/424 377/1/376 370/1/303 367/1/431
f 196/1/432 204/1/349 197/1/351 189/1/395
f 21/1/103 29/1/14 28/1/207 27/1/111
f 450/1/174 93/1/72 92/1/71 100/1/79
f 364/1/212 391/1/422 372/1/433 365/1/293
f 346/1/294 347/1/434 339/1/435 345/1/430
f 11/1/89 20/1/118 19/1/11 18/1/91
f 395/1/362 396/1/333 388/1/340 387/1/413
f 377/1/376 425/1/354 349/1/304 370/1/303
f 367/1/431 370/1/303 341/1/302 362/1/436
f 339/1/435 347/1/434 331/1/437 332/1/438
f 320/1/372 342/1/305 329/1/381 321/1/373
f 341/1/302 342/1/305 320/1/372 336/1/439
f 351/1/440 352/1/441 331/1/437 347/1/434
f 346/1/294 365/1/293 351/1/440 347/1/434
f 324/1/119 332/1/438 331/1/437 330/1/120
f 372/1/433 391/1/422 386/1/411 383/1/417
f 322/1/25 323/1/442 304/1/326 315/1/26
f 197/1/351 218/1/344 211/1/343 205/1/394
f 368/1/325 375/1/443 369/1/444 361/1/445
f 361/1/445 369/1/444 367/1/431 362/1/436
f 436/1/168 432/1/315 430/1/297 435/1/51
f 313/1/446 336/1/439 320/1/372 314/1/375
f 417/1/80 418/1/88 409/1/398 408/1/364
f 418/1/88 423/1/87 410/1/308 409/1/398
f 372/1/433 383/1/417 378/1/447 373/1/448
f 327/1/428 328/1/449 308/1/450 319/1/429
f 308/1/450 309/1/451 248/1/188 302/1/452
f 288/1/453 293/1/298 294/1/115 292/1/389
f 331/1/437 352/1/441 337/1/312 330/1/120
f 192/1/62 199/1/61 200/1/282 190/1/175
f 374/1/324 380/1/454 375/1/443 368/1/325
f 378/1/447 380/1/454 374/1/324 379/1/455
f 260/1/374 321/1/373 269/1/385 261/1/347
f 335/1/456 336/1/439 313/1/446 328/1/449
f 351/1/440 373/1/448 359/1/457 352/1/441
f 359/1/457 360/1/419 337/1/312 352/1/441
f 344/1/458 333/1/407 326/1/114 325/1/113
f 132/1/253 137/1/260 130/1/256 123/1/233
f 260/1/374 261/1/347 243/1/148 255/1/147
f 313/1/446 314/1/375 254/1/459 309/1/451
f 167/1/288 194/1/338 193/1/52 187/1/55
f 335/1/456 362/1/436 341/1/302 336/1/439
f 108/1/98 112/1/226 113/1/134 106/1/99
f 353/1/322 368/1/325 361/1/445 354/1/460
f 340/1/409 348/1/427 312/1/426 334/1/410
f 124/1/234 133/1/257 134/1/251 125/1/235
f 401/1/391 421/1/363 408/1/364 402/1/399
f 392/1/421 400/1/392 394/1/400 393/1/412
f 375/1/443 382/1/461 376/1/425 369/1/444
f 327/1/428 354/1/460 335/1/456 328/1/449
f 363/1/420 379/1/455 374/1/324 371/1/323
f 359/1/457 379/1/455 363/1/420 360/1/419
f 381/1/416 382/1/461 375/1/443 380/1/454
f 304/1/326 323/1/442 310/1/462 303/1/356
f 310/1/462 306/1/180 289/1/203 303/1/356
f 297/1/355 305/1/327 304/1/326 303/1/356
f 408/1/364 409/1/398 403/1/361 402/1/399
f 372/1/433 373/1/448 351/1/440 365/1/293
f 378/1/447 379/1/455 359/1/457 373/1/448
f 322/1/25 344/1/458 325/1/113 323/1/442
f 310/1/462 323/1/442 325/1/113 318/1/116
f 340/1/409 371/1/323 353/1/322 348/1/427
f 387/1/413 388/1/340 384/1/405 385/1/414
f 291/1/463 295/1/464 225/1/341 286/1/401
f 312/1/426 319/1/429 301/1/465 307/1/466
f 301/1/465 319/1/429 308/1/450 302/1/452
f 308/1/450 328/1/449 313/1/446 309/1/451
f 248/1/188 309/1/451 254/1/459 249/1/189
f 343/1/418 355/1/408 333/1/407 344/1/458
f 353/1/322 354/1/460 327/1/428 348/1/427
f 381/1/416 385/1/414 384/1/405 382/1/461
f 333/1/407 334/1/410 298/1/388 326/1/114
f 298/1/388 334/1/410 312/1/426 307/1/466
f 291/1/463 307/1/466 301/1/465 295/1/464
f 298/1/388 307/1/466 291/1/463 292/1/389
f 378/1/447 383/1/417 381/1/416 380/1/454
f 426/1/309 431/1/160 430/1/297 427/1/307
f 343/1/418 344/1/458 322/1/25 338/1/24
f 288/1/453 292/1/389 291/1/463 286/1/401
f 394/1/400 395/1/362 387/1/413 393/1/412
f 390/1/339 413/1/335 397/1/423 389/1/406
f 310/1/462 318/1/116 299/1/181 306/1/180
f 287/1/467 300/1/182 299/1/181 293/1/298
f 287/1/467 293/1/298 288/1/453 280/1/468
f 280/1/468 288/1/453 286/1/401 226/1/350
f 402/1/399 403/1/361 395/1/362 394/1/400
f 225/1/341 295/1/464 240/1/469 233/1/342
f 376/1/425 398/1/424 367/1/431 369/1/444
f 240/1/469 302/1/452 248/1/188 241/1/191
f 337/1/312 360/1/419 343/1/418 338/1/24
f 272/1/470 287/1/467 280/1/468 227/1/471
f 227/1/471 280/1/468 226/1/350 204/1/349
f 188/1/472 196/1/432 189/1/395 181/1/473
f 419/1/334 420/1/360 397/1/423 413/1/335
f 289/1/203 306/1/180 276/1/179 285/1/204
f 384/1/405 389/1/406 376/1/425 382/1/461
f 235/1/474 272/1/470 227/1/471 203/1/475
f 271/1/390 272/1/470 235/1/474 264/1/321
f 203/1/475 227/1/471 204/1/349 196/1/432
f 34/1/9 41/1/43 35/1/42 25/1/3
f 397/1/423 420/1/360 377/1/376 398/1/424
f 361/1/445 362/1/436 335/1/456 354/1/460
f 364/1/212 399/1/211 392/1/421 391/1/422
f 213/1/268 222/1/332 221/1/86 214/1/269
f 127/1/128 147/1/131 140/1/274 131/1/252
f 414/1/387 416/1/397 283/1/316
f 151/1/145 150/1/144 145/1/183 146/1/277
f 234/1/53 235/1/474 203/1/475 195/1/54
f 195/1/54 203/1/475 196/1/432 188/1/472
f 93/1/72 450/1/174 217/1/287 208/1/60
f 269/1/385 266/1/230 262/1/348 261/1/347
f 240/1/469 241/1/191 219/1/299 233/1/342
f 415/1/386 421/1/363 401/1/391
f 283/1/316 296/1/81 421/1/363
f 187/1/55 195/1/54 188/1/472 169/1/336
f 219/1/299 241/1/191 228/1/190 220/1/300
f 85/1/59 192/1/62 77/1/107 76/1/93
f 169/1/336 188/1/472 181/1/473 176/1/295
f 301/1/465 302/1/452 240/1/469 295/1/464
f 254/1/459 255/1/147 236/1/146 249/1/189
f 428/1/353 429/1/369 349/1/304 425/1/354
f 181/1/473 189/1/395 182/1/125 177/1/124
f 276/1/179 300/1/182 271/1/390 270/1/320
f 176/1/295 181/1/473 177/1/124 158/1/142
f 91/1/185 99/1/198 94/1/200 88/1/199
f 244/1/74 262/1/348 258/1/379 251/1/75
f 182/1/125 205/1/394 183/1/476 184/1/122
f 211/1/343 212/1/301 183/1/476 205/1/394
f 7/1/22 8/1/15 16/1/1 15/1/4
f 158/1/142 177/1/124 175/1/123 170/1/143
f 175/1/123 178/1/477 162/1/296 170/1/143
f 254/1/459 314/1/375 260/1/374 255/1/147
f 436/1/168 438/1/170 412/1/330 432/1/315
f 89/1/478 184/1/122 183/1/476 96/1/39
f 175/1/123 184/1/122 89/1/478 178/1/477
f 49/1/40 76/1/93 57/1/67 54/1/41
f 183/1/476 212/1/301 97/1/36 96/1/39
f 74/1/38 95/1/37 67/1/479 66/1/28
f 89/1/478 96/1/39 74/1/38 82/1/186
f 459/1/366 456/1/367 454/1/222 458/1/196
f 97/1/36 220/1/300 103/1/352 95/1/37
f 454/1/222 456/1/367 428/1/353 451/1/223
f 81/1/221 178/1/477 89/1/478 82/1/186
f 250/1/357 201/1/329 210/1/246 256/1/249
f 31/1/209 30/1/214 22/1/112 27/1/111
f 274/1/228 452/1/371 4/1/6
f 228/1/190 229/1/345 103/1/352 220/1/300
f 103/1/352 104/1/19 67/1/479 95/1/37
f 35/1/42 54/1/41 50/1/69 43/1/20
f 236/1/146 237/1/149 109/1/16 229/1/345
f 452/1/371 457/1/365 4/1/6
f 284/1/201 285/1/204 277/1/319 279/1/393
f 109/1/16 237/1/149 114/1/77 110/1/17
f 115/1/76 116/1/231 110/1/17 114/1/77
f 243/1/148 244/1/74 114/1/77 237/1/149
f 67/1/479 104/1/19 68/1/18 60/1/141
f 466/1/164 446/1/163 442/1/169 440/1/50
f 457/1/365 462/1/197 4/1/6
f 110/1/17 116/1/231 69/1/140 68/1/18
f 462/1/197 463/1/155 4/1/6
f 50/1/69 51/1/105 9/1/21 43/1/20
f 81/1/221 82/1/186 65/1/27 73/1/219
f 37/1/220 73/1/219 65/1/27 45/1/30
f 62/1/139 64/1/137 55/1/104 56/1/68
f 4/1/6 467/1/154 122/1/236
f 4/1/6 463/1/155 467/1/154
f 60/1/141 61/1/136 53/1/126 59/1/29
f 59/1/29 66/1/28 67/1/479 60/1/141
f 456/1/367 459/1/366 445/1/370 433/1/368
f 475/1/480 476/1/404 472/1/47 471/1/481
f 470/1/482 473/1/46 474/1/483
f 477/1/403 478/1/44 472/1/47 476/1/404
f 242/1/382 264/1/321 235/1/474 234/1/53
f 472/1/47 473/1/46 470/1/482 471/1/481
f 474/1/483 473/1/46 479/1/484
f 257/1/318 242/1/382 250/1/357 256/1/249
f 475/1/480 481/1/485 480/1/94 476/1/404
f 479/1/484 473/1/46 484/1/486
f 162/1/296 178/1/477 81/1/221 163/1/208
f 485/1/487 486/1/95 480/1/94 481/1/485
f 483/1/45 488/1/488 473/1/46
f 484/1/486 473/1/46 489/1/489
f 485/1/487 490/1/490 486/1/95
f 487/1/96 486/1/95 491/1/491
f 488/1/488 492/1/492 473/1/46
f 473/1/46 493/1/493 489/1/489
f 473/1/46 494/1/494 493/1/493
f 473/1/46 495/1/495 494/1/494
f 473/1/46 492/1/492 495/1/495
f 490/1/490 496/1/496 486/1/95
f 491/1/491 486/1/95 497/1/497
f 496/1/496 498/1/498 486/1/95
f 497/1/497 486/1/95 499/1/499
f 498/1/498 500/1/500 486/1/95
f 499/1/499 486/1/95 501/1/501
f 500/1/500 502/1/502 486/1/95
f 501/1/501 486/1/95 503/1/503
f 486/1/95 502/1/502 504/1/504
f 486/1/95 504/1/504 505/1/505
f 486/1/95 505/1/505 506/1/506
f 486/1/95 507/1/507 503/1/503
f 486/1/95 508/1/508 507/1/507
f 486/1/95 509/1/509 508/1/508
f 271/1/390 300/1/182 287/1/467 272/1/470
