# Blender 4.3.2
# www.blender.org
o hair.122
v 7.143896 0.797848 -0.004951
v 7.143286 0.797957 -0.004473
v 7.145325 0.798943 -0.000866
v 7.143044 0.797126 -0.007304
v 7.144610 0.797810 -0.005139
v 7.142677 0.798060 -0.003994
v 7.141061 0.797401 -0.005832
v 7.141976 0.797239 -0.006699
v 7.142265 0.798183 -0.003344
v 7.140359 0.796123 -0.009373
v 7.140312 0.797575 -0.004892
v 7.137935 0.796562 -0.006710
v 7.139041 0.796371 -0.008067
v 7.141855 0.798297 -0.002692
v 7.139823 0.797787 -0.003735
v 7.141864 0.795908 -0.010483
v 7.140627 0.794303 -0.013742
v 7.138596 0.794619 -0.012226
v 7.136841 0.794958 -0.010445
v 7.141677 0.798444 -0.001785
v 7.137089 0.796796 -0.005092
v 7.136562 0.797128 -0.002989
v 7.139310 0.797982 -0.002379
v 7.143549 0.795739 -0.011220
v 7.136911 0.792775 -0.014876
v 7.144132 0.796970 -0.007901
v 7.141501 0.798581 -0.000879
v 7.139132 0.798214 -0.000837
v 7.134302 0.795526 -0.006435
v 7.145325 0.796933 -0.008106
v 7.145325 0.797761 -0.005324
v 7.141596 0.798756 0.000046
v 7.136361 0.797461 -0.000698
v 7.136457 0.797813 0.001461
v 7.139268 0.798476 0.000617
v 7.135390 0.795227 -0.008619
v 7.146039 0.797810 -0.005139
v 7.141746 0.798883 0.000890
v 7.139648 0.798714 0.001951
v 7.133381 0.796417 -0.000492
v 7.133036 0.793645 -0.010336
v 7.134761 0.793261 -0.012625
v 7.142043 0.799010 0.001629
v 7.133641 0.795955 -0.003589
v 7.132774 0.791227 -0.014654
v 7.130781 0.791718 -0.011933
v 7.129296 0.792203 -0.008707
v 7.131748 0.794040 -0.007617
v 7.130914 0.794556 -0.004089
v 7.142647 0.799163 0.002725
v 7.141043 0.799248 0.005067
v 7.140023 0.798934 0.003318
v 7.128527 0.789346 -0.013488
v 7.128287 0.792793 -0.004538
v 7.127857 0.793438 0.000015
v 7.130571 0.795120 -0.000245
v 7.142094 0.799399 0.005828
v 7.143375 0.799239 0.003331
v 7.138946 0.799193 0.008051
v 7.137454 0.798564 0.005451
v 7.136839 0.798124 0.003492
v 7.125668 0.790528 -0.004985
v 7.130745 0.795670 0.003425
v 7.144307 0.799288 0.003762
v 7.133923 0.797311 0.005181
v 7.134688 0.797926 0.007776
v 7.133489 0.796831 0.002442
v 7.126812 0.789885 -0.009775
v 7.143705 0.799509 0.006587
v 7.145325 0.799559 0.006865
v 7.145325 0.799318 0.003943
v 7.132133 0.796977 0.009936
v 7.131294 0.796278 0.006824
v 7.124485 0.787161 -0.010722
v 7.142899 0.799809 0.010567
v 7.140491 0.799518 0.009335
v 7.146343 0.799288 0.003762
v 7.128772 0.794779 0.008422
v 7.128099 0.794103 0.004397
v 7.123217 0.787838 -0.005388
v 7.122675 0.788576 0.000438
v 7.125182 0.791227 0.000256
v 7.138734 0.799519 0.013196
v 7.136605 0.798957 0.011277
v 7.125426 0.791948 0.005334
v 7.121103 0.784810 -0.005704
v 7.120472 0.785578 0.000519
v 7.120797 0.786257 0.006591
v 7.122924 0.789292 0.006107
v 7.133098 0.797669 0.012430
v 7.134310 0.798272 0.014230
v 7.135558 0.798699 0.015534
v 7.123607 0.790062 0.011288
v 7.126134 0.792654 0.009965
v 7.118714 0.782742 0.000517
v 7.118753 0.783592 0.006834
v 7.130631 0.796240 0.014837
v 7.132051 0.797018 0.017095
v 7.133593 0.797665 0.018727
v 7.135418 0.798239 0.020201
v 7.137031 0.799079 0.016841
v 7.127016 0.793361 0.013952
v 7.129626 0.795518 0.011979
v 7.128112 0.794086 0.017204
v 7.129829 0.795056 0.020062
v 7.131743 0.796035 0.021946
v 7.133948 0.797007 0.023239
v 7.137981 0.798718 0.021629
v 7.139155 0.799403 0.018163
v 7.142031 0.799990 0.014930
v 7.124570 0.790802 0.015734
v 7.125871 0.791637 0.019526
v 7.127797 0.792645 0.022707
v 7.129983 0.793827 0.024772
v 7.132474 0.795086 0.025949
v 7.136905 0.797868 0.024444
v 7.140419 0.799046 0.022547
v 7.141202 0.799649 0.019030
v 7.145325 0.799913 0.010995
v 7.122574 0.788113 0.017215
v 7.121479 0.787143 0.012223
v 7.124159 0.789071 0.021494
v 7.126085 0.790018 0.024630
v 7.143259 0.799826 0.019494
v 7.147752 0.799809 0.010567
v 7.146945 0.799509 0.006587
v 7.119682 0.784548 0.013144
v 7.120862 0.785184 0.018012
v 7.122797 0.786197 0.023487
v 7.125097 0.787108 0.025980
v 7.145325 0.800194 0.015458
v 7.148556 0.799399 0.005828
v 7.147274 0.799239 0.003331
v 7.117953 0.781658 0.013354
v 7.119268 0.782234 0.018081
v 7.117180 0.780742 0.006879
v 7.117251 0.779932 0.000418
v 7.148619 0.799990 0.014930
v 7.148003 0.799163 0.002725
v 7.115946 0.778180 0.006829
v 7.116539 0.779002 0.013346
v 7.121045 0.782389 0.022938
v 7.117979 0.779230 0.017938
v 7.116120 0.777440 0.000292
v 7.119435 0.781970 -0.005951
v 7.150159 0.799518 0.009335
v 7.151916 0.799519 0.013196
v 7.114727 0.774916 0.006733
v 7.119529 0.779137 0.022316
v 7.122544 0.782888 0.024146
v 7.122519 0.784123 -0.011444
v 7.120979 0.781297 -0.011973
v 7.149607 0.799248 0.005067
v 7.118124 0.775860 0.021586
v 7.124741 0.783555 -0.016035
v 7.123433 0.780732 -0.016909
v 7.119639 0.778592 -0.012440
v 7.126450 0.786596 -0.014893
v 7.148607 0.799010 0.001629
v 7.116560 0.775732 0.017707
v 7.115341 0.771902 0.017714
v 7.117307 0.772157 0.022270
v 7.118039 0.779210 -0.006197
v 7.129101 0.786067 -0.018369
v 7.130843 0.788814 -0.016598
v 7.115155 0.775631 0.013252
v 7.116566 0.767876 0.022893
v 7.116941 0.776790 -0.006407
v 7.118577 0.776218 -0.012808
v 7.127697 0.783051 -0.019872
v 7.126643 0.780250 -0.021062
v 7.133796 0.788194 -0.019603
v 7.114388 0.767357 0.017918
v 7.113773 0.762080 0.018123
v 7.115879 0.762405 0.023494
v 7.115862 0.773684 -0.006615
v 7.115012 0.774267 0.000152
v 7.131330 0.782549 -0.023381
v 7.132440 0.785497 -0.021646
v 7.113926 0.771700 0.013021
v 7.112852 0.766926 0.012762
v 7.115561 0.756465 0.023696
v 7.113596 0.771063 0.006548
v 7.136362 0.784979 -0.024276
v 7.112006 0.761312 0.006168
v 7.112257 0.761724 0.012582
v 7.112585 0.766382 0.006337
v 7.113774 0.750628 0.018136
v 7.115978 0.750685 0.023381
v 7.113423 0.756413 0.018393
v 7.113977 0.770515 -0.000019
v 7.113041 0.765939 -0.000225
v 7.112148 0.756235 0.012476
v 7.116733 0.744995 0.022765
v 7.112527 0.750586 0.012439
v 7.113437 0.744885 0.012437
v 7.114622 0.744896 0.017829
v 7.114859 0.769974 -0.006833
v 7.113367 0.760605 -0.007265
v 7.112484 0.760948 -0.000443
v 7.113938 0.765469 -0.007063
v 7.116013 0.739244 0.017326
v 7.117973 0.739388 0.021758
v 7.112299 0.750451 0.006225
v 7.117549 0.773142 -0.013160
v 7.112372 0.755687 -0.000520
v 7.115726 0.764982 -0.013831
v 7.111898 0.755965 0.006108
v 7.119664 0.733884 0.020408
v 7.120608 0.772524 -0.018879
v 7.119850 0.768839 -0.019448
v 7.116601 0.769441 -0.013507
v 7.121442 0.775608 -0.018284
v 7.120249 0.728285 0.015831
v 7.121770 0.728501 0.018759
v 7.117904 0.733699 0.016651
v 7.125103 0.775091 -0.022953
v 7.124483 0.771990 -0.023784
v 7.122318 0.778004 -0.017673
v 7.122792 0.723233 0.014928
v 7.124057 0.723382 0.016881
v 7.116918 0.733702 0.012441
v 7.119397 0.728288 0.012446
v 7.114915 0.739245 0.012438
v 7.125771 0.777510 -0.022109
v 7.122064 0.723332 0.012482
v 7.125314 0.719084 0.014016
v 7.126292 0.718668 0.014841
v 7.119102 0.728285 0.008552
v 7.121821 0.723248 0.009581
v 7.113225 0.744849 0.006529
v 7.114687 0.739249 0.007037
v 7.130497 0.779808 -0.024755
v 7.124633 0.719155 0.012578
v 7.128500 0.714157 0.012721
v 7.112772 0.750297 -0.000301
v 7.113687 0.744805 0.000210
v 7.135573 0.782108 -0.026156
v 7.134972 0.779437 -0.027636
v 7.129837 0.777105 -0.025959
v 7.134521 0.776781 -0.028912
v 7.124662 0.719099 0.010823
v 7.125277 0.718668 0.009480
v 7.113589 0.750191 -0.007013
v 7.140329 0.781787 -0.027763
v 7.140014 0.779172 -0.029330
v 7.129348 0.774711 -0.026925
v 7.134203 0.774420 -0.029923
v 7.139784 0.776538 -0.030647
v 7.139628 0.774185 -0.031671
v 7.122226 0.723382 0.006600
v 7.145325 0.779065 -0.029877
v 7.145325 0.776437 -0.031208
v 7.128911 0.771611 -0.027859
v 7.139494 0.771091 -0.032627
v 7.133926 0.771326 -0.030878
v 7.145325 0.774082 -0.032230
v 7.119520 0.728501 0.004442
v 7.150637 0.779172 -0.029330
v 7.150866 0.776538 -0.030647
v 7.128554 0.767876 -0.028692
v 7.145325 0.770986 -0.033182
v 7.139394 0.767290 -0.033440
v 7.133712 0.767544 -0.031699
v 7.123944 0.768300 -0.024558
v 7.116985 0.733823 0.002644
v 7.116657 0.733704 0.007722
v 7.156129 0.776781 -0.028912
v 7.151022 0.774185 -0.031671
v 7.133564 0.763079 -0.032404
v 7.123479 0.763913 -0.025235
v 7.119165 0.764432 -0.019951
v 7.156447 0.774420 -0.029923
v 7.151156 0.771091 -0.032627
v 7.118744 0.759806 -0.020215
v 7.128161 0.758921 -0.029803
v 7.123188 0.759356 -0.025620
v 7.128273 0.763455 -0.029412
v 7.115179 0.760245 -0.014025
v 7.115115 0.739240 0.001010
v 7.123180 0.754565 -0.025652
v 7.115033 0.755255 -0.014005
v 7.113225 0.755480 -0.007296
v 7.114488 0.744758 -0.006488
v 7.115950 0.739201 -0.005794
v 7.120770 0.728183 -0.005833
v 7.121096 0.728501 0.000220
v 7.118035 0.733633 -0.005416
v 7.115360 0.750040 -0.013683
v 7.116212 0.744646 -0.013187
v 7.117640 0.739116 -0.012644
v 7.119491 0.733589 -0.012088
v 7.125035 0.723403 -0.002342
v 7.123671 0.723362 -0.006567
v 7.121552 0.728153 -0.011576
v 7.124021 0.723136 -0.010922
v 7.118971 0.749796 -0.019857
v 7.119719 0.744475 -0.019293
v 7.120921 0.739052 -0.018614
v 7.124076 0.728233 -0.016421
v 7.122427 0.733610 -0.017700
v 7.127606 0.719106 -0.007202
v 7.128643 0.718794 -0.005253
v 7.118649 0.754935 -0.020202
v 7.124222 0.744259 -0.024633
v 7.125233 0.738946 -0.023703
v 7.126510 0.733587 -0.022402
v 7.127220 0.719099 -0.009927
v 7.132083 0.714447 -0.008356
v 7.130460 0.738923 -0.027695
v 7.123538 0.749497 -0.025297
v 7.128726 0.749273 -0.029489
v 7.129454 0.744159 -0.028776
v 7.128652 0.719109 -0.012005
v 7.130568 0.718784 -0.013298
v 7.128289 0.754213 -0.029837
v 7.133749 0.753911 -0.032816
v 7.134193 0.749105 -0.032474
v 7.134887 0.744117 -0.031732
v 7.125815 0.723389 -0.014816
v 7.129034 0.723179 -0.018181
v 7.133558 0.758552 -0.032784
v 7.139739 0.748997 -0.034161
v 7.139471 0.753695 -0.034521
v 7.139346 0.758288 -0.034502
v 7.127985 0.728225 -0.020625
v 7.133329 0.728181 -0.024309
v 7.135476 0.723229 -0.022596
v 7.139484 0.717871 -0.021455
v 7.137179 0.717800 -0.019395
v 7.139331 0.762810 -0.034133
v 7.145325 0.753608 -0.035046
v 7.145325 0.758182 -0.035041
v 7.145325 0.762702 -0.034680
v 7.131751 0.733587 -0.026215
v 7.140238 0.723131 -0.025223
v 7.145325 0.712421 -0.020609
v 7.142177 0.718246 -0.023351
v 7.145325 0.767183 -0.033992
v 7.151304 0.758288 -0.034502
v 7.151319 0.762810 -0.034133
v 7.151257 0.767290 -0.033440
v 7.137041 0.733591 -0.028999
v 7.135824 0.738930 -0.030559
v 7.144081 0.718229 -0.024009
v 7.143259 0.723062 -0.026382
v 7.157085 0.763079 -0.032404
v 7.156938 0.767544 -0.031699
v 7.156723 0.771326 -0.030878
v 7.138575 0.728150 -0.027094
v 7.140693 0.738950 -0.032152
v 7.140147 0.744110 -0.033384
v 7.162097 0.767876 -0.028692
v 7.161739 0.771611 -0.027859
v 7.142318 0.728210 -0.028519
v 7.145325 0.748958 -0.034671
v 7.145325 0.744116 -0.033876
v 7.161302 0.774711 -0.026925
v 7.160813 0.777105 -0.025959
v 7.165547 0.775091 -0.022953
v 7.166168 0.771990 -0.023784
v 7.141406 0.733616 -0.030514
v 7.151179 0.753695 -0.034521
v 7.150912 0.748997 -0.034161
v 7.164879 0.777510 -0.022109
v 7.155679 0.779437 -0.027636
v 7.160153 0.779808 -0.024755
v 7.145325 0.738965 -0.032622
v 7.145325 0.733631 -0.030806
v 7.156902 0.753911 -0.032816
v 7.157092 0.758552 -0.032784
v 7.150321 0.781787 -0.027763
v 7.159320 0.782549 -0.023381
v 7.164007 0.780250 -0.021062
v 7.149957 0.738950 -0.032152
v 7.145325 0.728276 -0.028764
v 7.162489 0.758921 -0.029803
v 7.162377 0.763455 -0.029412
v 7.145325 0.781657 -0.028273
v 7.167218 0.780732 -0.016909
v 7.168333 0.778004 -0.017673
v 7.145325 0.723104 -0.026599
v 7.167171 0.763913 -0.025235
v 7.166706 0.768300 -0.024558
v 7.145325 0.784455 -0.026263
v 7.140738 0.784606 -0.025789
v 7.170042 0.772524 -0.018879
v 7.169208 0.775608 -0.018284
v 7.145325 0.718376 -0.024303
v 7.170800 0.768839 -0.019448
v 7.155077 0.782108 -0.026156
v 7.154288 0.784979 -0.024276
v 7.149912 0.784606 -0.025789
v 7.141207 0.787241 -0.023504
v 7.137291 0.787623 -0.022059
v 7.146570 0.718229 -0.024009
v 7.149443 0.787241 -0.023504
v 7.138325 0.790059 -0.019549
v 7.135313 0.790620 -0.017326
v 7.148473 0.718246 -0.023351
v 7.147392 0.723062 -0.026382
v 7.145325 0.787096 -0.023972
v 7.150413 0.723131 -0.025223
v 7.151165 0.717871 -0.021455
v 7.153471 0.717800 -0.019395
v 7.152075 0.728150 -0.027094
v 7.148333 0.728210 -0.028519
v 7.145325 0.789588 -0.021379
v 7.141728 0.789710 -0.020913
v 7.139440 0.792324 -0.016777
v 7.161616 0.723179 -0.018181
v 7.155174 0.723229 -0.022596
v 7.149244 0.733616 -0.030514
v 7.153609 0.733591 -0.028999
v 7.142298 0.792044 -0.018007
v 7.142910 0.794100 -0.014770
v 7.157321 0.728181 -0.024309
v 7.150503 0.744110 -0.033384
v 7.154826 0.738930 -0.030559
v 7.155763 0.744117 -0.031732
v 7.145325 0.791947 -0.018453
v 7.145325 0.794027 -0.015162
v 7.145325 0.795665 -0.011495
v 7.160190 0.738923 -0.027695
v 7.148352 0.792044 -0.018007
v 7.148921 0.789710 -0.020913
v 7.147740 0.794100 -0.014770
v 7.147101 0.795739 -0.011220
v 7.146519 0.796970 -0.007901
v 7.156457 0.749105 -0.032474
v 7.158900 0.733587 -0.026215
v 7.152325 0.790059 -0.019549
v 7.153359 0.787623 -0.022059
v 7.150023 0.794303 -0.013742
v 7.147606 0.797126 -0.007304
v 7.146754 0.797848 -0.004951
v 7.161924 0.749273 -0.029489
v 7.161197 0.744159 -0.028776
v 7.164140 0.733587 -0.022402
v 7.156854 0.788194 -0.019603
v 7.158211 0.785497 -0.021646
v 7.151210 0.792324 -0.016777
v 7.166428 0.744259 -0.024633
v 7.165417 0.738946 -0.023703
v 7.162665 0.728225 -0.020625
v 7.161549 0.786067 -0.018369
v 7.162953 0.783051 -0.019872
v 7.153739 0.792775 -0.014876
v 7.155338 0.790620 -0.017326
v 7.169729 0.739052 -0.018614
v 7.166574 0.728233 -0.016421
v 7.164835 0.723389 -0.014816
v 7.161998 0.719109 -0.012005
v 7.160083 0.718784 -0.013298
v 7.165909 0.783555 -0.016035
v 7.157876 0.791227 -0.014654
v 7.159808 0.788814 -0.016598
v 7.168224 0.733610 -0.017700
v 7.166629 0.723136 -0.010922
v 7.163430 0.719099 -0.009927
v 7.158567 0.714447 -0.008356
v 7.169672 0.781297 -0.011973
v 7.171011 0.778592 -0.012440
v 7.162123 0.789346 -0.013488
v 7.164200 0.786596 -0.014893
v 7.171160 0.733589 -0.012088
v 7.163044 0.719106 -0.007202
v 7.162007 0.718794 -0.005253
v 7.166165 0.787161 -0.010722
v 7.169098 0.728153 -0.011576
v 7.173010 0.739116 -0.012644
v 7.174438 0.744646 -0.013187
v 7.170931 0.744475 -0.019293
v 7.165615 0.723403 -0.002342
v 7.166980 0.723362 -0.006567
v 7.172073 0.776218 -0.012808
v 7.168131 0.784123 -0.011444
v 7.174700 0.739201 -0.005794
v 7.171679 0.749796 -0.019857
v 7.169880 0.728183 -0.005833
v 7.169554 0.728501 0.000220
v 7.173101 0.773142 -0.013160
v 7.169547 0.784810 -0.005704
v 7.171215 0.781970 -0.005951
v 7.173665 0.733823 0.002644
v 7.172616 0.733633 -0.005416
v 7.171485 0.764432 -0.019951
v 7.174924 0.764982 -0.013831
v 7.174050 0.769441 -0.013507
v 7.172611 0.779210 -0.006197
v 7.175535 0.739240 0.001010
v 7.176963 0.744805 0.000210
v 7.176162 0.744758 -0.006488
v 7.171906 0.759806 -0.020215
v 7.167462 0.759356 -0.025620
v 7.175791 0.769974 -0.006833
v 7.174788 0.773684 -0.006615
v 7.173709 0.776790 -0.006407
v 7.175963 0.739249 0.007037
v 7.177062 0.750191 -0.007013
v 7.175290 0.750040 -0.013683
v 7.167470 0.754565 -0.025652
v 7.162361 0.754213 -0.029837
v 7.175638 0.774267 0.000152
v 7.174530 0.777440 0.000292
v 7.173399 0.779932 0.000418
v 7.175618 0.755255 -0.014005
v 7.176672 0.770515 -0.000019
v 7.175924 0.774916 0.006733
v 7.177054 0.771063 0.006548
v 7.174705 0.778180 0.006829
v 7.173470 0.780742 0.006879
v 7.171937 0.782742 0.000517
v 7.171897 0.783592 0.006834
v 7.167113 0.749497 -0.025297
v 7.177608 0.765939 -0.000225
v 7.176712 0.765469 -0.007063
v 7.172697 0.781658 0.013354
v 7.174111 0.779002 0.013346
v 7.170178 0.785578 0.000519
v 7.172000 0.754935 -0.020202
v 7.177283 0.760605 -0.007265
v 7.175472 0.760245 -0.014025
v 7.170968 0.784548 0.013144
v 7.171381 0.782234 0.018081
v 7.175495 0.775631 0.013252
v 7.178166 0.760948 -0.000443
v 7.177425 0.755480 -0.007296
v 7.178278 0.755687 -0.000520
v 7.169854 0.786257 0.006591
v 7.178065 0.766382 0.006337
v 7.177799 0.766926 0.012762
v 7.176724 0.771700 0.013021
v 7.178644 0.761312 0.006168
v 7.178752 0.755965 0.006108
v 7.178350 0.750451 0.006225
v 7.177878 0.750297 -0.000301
v 7.167975 0.788576 0.000438
v 7.175309 0.771902 0.017714
v 7.178503 0.756235 0.012476
v 7.178393 0.761724 0.012582
v 7.167433 0.787838 -0.005388
v 7.174090 0.775732 0.017707
v 7.177425 0.744849 0.006529
v 7.176877 0.762080 0.018123
v 7.164982 0.790528 -0.004985
v 7.163838 0.789885 -0.009775
v 7.172671 0.779230 0.017938
v 7.172527 0.775860 0.021586
v 7.177213 0.744885 0.012437
v 7.176262 0.767357 0.017918
v 7.161355 0.792203 -0.008707
v 7.159870 0.791718 -0.011933
v 7.171122 0.779137 0.022316
v 7.169605 0.782389 0.022938
v 7.173343 0.772157 0.022270
v 7.174084 0.767876 0.022893
v 7.178123 0.750586 0.012439
v 7.157615 0.793645 -0.010336
v 7.155889 0.793261 -0.012625
v 7.167853 0.786197 0.023487
v 7.174771 0.762405 0.023494
v 7.176876 0.750628 0.018136
v 7.177227 0.756413 0.018393
v 7.175089 0.756465 0.023696
v 7.153809 0.794958 -0.010445
v 7.152054 0.794619 -0.012226
v 7.169788 0.785184 0.018012
v 7.176028 0.744896 0.017829
v 7.174637 0.739244 0.017326
v 7.175735 0.739245 0.012438
v 7.174672 0.750685 0.023381
v 7.148786 0.795908 -0.010483
v 7.150291 0.796123 -0.009373
v 7.168076 0.788113 0.017215
v 7.166491 0.789071 0.021494
v 7.169171 0.787143 0.012223
v 7.173732 0.733702 0.012441
v 7.173993 0.733704 0.007722
v 7.173918 0.744995 0.022765
v 7.165553 0.787108 0.025980
v 7.168106 0.782888 0.024146
v 7.167044 0.790062 0.011288
v 7.167726 0.789292 0.006107
v 7.171548 0.728285 0.008552
v 7.171131 0.728501 0.004442
v 7.165449 0.783779 0.026503
v 7.167990 0.778695 0.024052
v 7.166080 0.790802 0.015734
v 7.164780 0.791637 0.019526
v 7.165224 0.791948 0.005334
v 7.165469 0.791227 0.000256
v 7.168829 0.723248 0.009581
v 7.168424 0.723382 0.006600
v 7.163634 0.793361 0.013952
v 7.162363 0.792793 -0.004538
v 7.162793 0.793438 0.000015
v 7.165987 0.719099 0.010823
v 7.165373 0.718668 0.009480
v 7.172678 0.739388 0.021758
v 7.172746 0.733699 0.016651
v 7.170986 0.733884 0.020408
v 7.169506 0.775438 0.018426
v 7.159736 0.794556 -0.004089
v 7.162150 0.714157 0.012721
v 7.170402 0.728285 0.015831
v 7.171253 0.728288 0.012446
v 7.168880 0.728501 0.018759
v 7.166485 0.775017 0.015266
v 7.145325 0.771646 -0.010014
v 7.164896 0.780326 0.026107
v 7.166018 0.719155 0.012578
v 7.165337 0.719084 0.014016
v 7.164359 0.718668 0.014841
v 7.167858 0.723233 0.014928
v 7.166593 0.723382 0.016881
v 7.163454 0.776629 0.017181
v 7.162524 0.781056 0.027935
v 7.168586 0.723332 0.012482
v 7.160424 0.777725 0.019095
v 7.163232 0.784453 0.028533
v 7.160701 0.785152 0.030440
v 7.159590 0.781794 0.029960
v 7.157393 0.778821 0.021009
v 7.163376 0.787865 0.028107
v 7.156031 0.782427 0.031828
v 7.157117 0.789816 0.031840
v 7.156935 0.786071 0.032442
v 7.160792 0.788727 0.030010
v 7.154362 0.779687 0.022924
v 7.164565 0.790018 0.024630
v 7.162385 0.791038 0.026775
v 7.152493 0.782884 0.033198
v 7.153317 0.790728 0.033166
v 7.156211 0.793429 0.029753
v 7.153163 0.786804 0.033856
v 7.159821 0.792171 0.028298
v 7.151332 0.780499 0.024838
v 7.160667 0.793827 0.024772
v 7.162853 0.792645 0.022707
v 7.152695 0.794353 0.030775
v 7.151759 0.797087 0.027789
v 7.154873 0.796288 0.027026
v 7.149272 0.787271 0.034698
v 7.158176 0.795086 0.025949
v 7.148200 0.780729 0.024758
v 7.162538 0.794086 0.017204
v 7.149040 0.794927 0.031351
v 7.153745 0.797868 0.024444
v 7.156702 0.797007 0.023239
v 7.148919 0.783157 0.034013
v 7.145325 0.783247 0.034281
v 7.145325 0.780747 0.024738
v 7.149358 0.791313 0.033948
v 7.158907 0.796035 0.021946
v 7.160821 0.795056 0.020062
v 7.152669 0.798718 0.021629
v 7.155232 0.798239 0.020201
v 7.142450 0.780729 0.024758
v 7.145325 0.791524 0.034202
v 7.145325 0.787437 0.034975
v 7.157057 0.797665 0.018727
v 7.155093 0.798699 0.015534
v 7.153620 0.799079 0.016841
v 7.162150 0.714157 0.012721
v 7.141378 0.787271 0.034698
v 7.141732 0.783157 0.034013
v 7.158599 0.797018 0.017095
v 7.156341 0.798272 0.014230
v 7.154045 0.798957 0.011277
v 7.151495 0.799403 0.018163
v 7.145325 0.771646 -0.010014
v 7.165373 0.718668 0.009480
v 7.138157 0.782884 0.033198
v 7.139318 0.780499 0.024838
v 7.157552 0.797669 0.012430
v 7.160019 0.796240 0.014837
v 7.150231 0.799046 0.022547
v 7.168424 0.723382 0.006600
v 7.171131 0.728501 0.004442
v 7.164218 0.746431 -0.001575
v 7.136288 0.779687 0.022924
v 7.161025 0.795518 0.011979
v 7.158518 0.796977 0.009936
v 7.151704 0.799193 0.008051
v 7.150970 0.798426 0.025248
v 7.173665 0.733823 0.002644
v 7.134620 0.782427 0.031828
v 7.133257 0.778821 0.021009
v 7.161878 0.794779 0.008422
v 7.155962 0.797926 0.007776
v 7.150627 0.798934 0.003318
v 7.148155 0.798766 0.025648
v 7.148559 0.797565 0.028182
v 7.131060 0.781794 0.029960
v 7.130227 0.777725 0.019095
v 7.153196 0.798564 0.005451
v 7.151002 0.798714 0.001951
v 7.148904 0.798883 0.000890
v 7.145325 0.797723 0.028285
v 7.145325 0.795126 0.031526
v 7.128126 0.781056 0.027935
v 7.127196 0.776629 0.017181
v 7.149053 0.798744 0.000048
v 7.141610 0.794927 0.031351
v 7.145325 0.798881 0.025747
v 7.142091 0.797565 0.028182
v 7.142496 0.798766 0.025648
v 7.141292 0.791313 0.033948
v 7.125755 0.780326 0.026107
v 7.124166 0.775017 0.015266
v 7.156727 0.797311 0.005181
v 7.145325 0.799346 0.023139
v 7.147781 0.799264 0.023016
v 7.138891 0.797087 0.027789
v 7.137332 0.790728 0.033166
v 7.137487 0.786804 0.033856
v 7.153811 0.798124 0.003492
v 7.159356 0.796278 0.006824
v 7.147391 0.799826 0.019494
v 7.149448 0.799649 0.019030
v 7.137956 0.794353 0.030775
v 7.133715 0.786071 0.032442
v 7.154187 0.797798 0.001466
v 7.151381 0.798475 0.000617
v 7.159905 0.795670 0.003425
v 7.157161 0.796831 0.002442
v 7.134439 0.793429 0.029753
v 7.129949 0.785152 0.030440
v 7.151519 0.798214 -0.000837
v 7.149149 0.798581 -0.000879
v 7.157269 0.796417 -0.000492
v 7.133533 0.789816 0.031840
v 7.148973 0.798444 -0.001785
v 7.154290 0.797461 -0.000698
v 7.145325 0.799897 0.019626
v 7.129858 0.788727 0.030010
v 7.127419 0.784453 0.028533
v 7.125201 0.783779 0.026503
v 7.154088 0.797128 -0.002989
v 7.142869 0.799264 0.023016
v 7.127274 0.787865 0.028107
v 7.122661 0.778695 0.024052
v 7.151340 0.797982 -0.002379
v 7.139681 0.798426 0.025248
v 7.128265 0.791038 0.026775
v 7.121144 0.775438 0.018426
v 7.150827 0.797787 -0.003735
v 7.148795 0.798291 -0.002691
v 7.135777 0.796288 0.027026
v 7.130829 0.792171 0.028298
v 7.148385 0.798183 -0.003344
v 7.147974 0.798060 -0.003994
v 7.147364 0.797957 -0.004473
v 7.150338 0.797575 -0.004892
v 7.149590 0.797401 -0.005832
v 7.148674 0.797239 -0.006699
v 7.152715 0.796562 -0.006710
v 7.151608 0.796371 -0.008067
v 7.153562 0.796796 -0.005092
v 7.155261 0.795227 -0.008619
v 7.156348 0.795526 -0.006435
v 7.157009 0.795955 -0.003589
v 7.158903 0.794040 -0.007617
v 7.160079 0.795120 -0.000245
v 7.162551 0.794103 0.004397
v 7.164516 0.792654 0.009965
v 7.128500 0.714157 0.012721
v 7.125277 0.718668 0.009480
v 7.122226 0.723382 0.006600
v 7.119520 0.728501 0.004442
v 7.126432 0.746431 -0.001575
v 7.116985 0.733823 0.002644
v 7.136413 0.730248 -0.011365
v 7.129034 0.723179 -0.018181
v 7.130568 0.718784 -0.013298
v 7.132083 0.714447 -0.008356
v 7.128643 0.718794 -0.005253
v 7.125035 0.723403 -0.002342
v 7.121096 0.728501 0.000220
v 7.145325 0.744047 -0.010915
v 7.154238 0.730248 -0.011365
v 7.145325 0.729689 -0.011814
v 7.145325 0.712421 -0.020609
v 7.169554 0.728501 0.000220
v 7.153471 0.717800 -0.019395
v 7.137179 0.717800 -0.019395
v 7.165615 0.723403 -0.002342
v 7.161616 0.723179 -0.018181
v 7.162007 0.718794 -0.005253
v 7.158567 0.714447 -0.008356
v 7.160083 0.718784 -0.013298
vn -0.0295 0.9626 -0.2692
vn -0.0451 0.9640 -0.2621
vn 0.0003 0.9861 -0.1663
vn 0.0451 0.9640 -0.2621
vn 0.0913 0.9497 -0.2995
vn 0.0568 0.9497 -0.3080
vn 0.0295 0.9626 -0.2692
vn -0.0132 0.9625 -0.2710
vn 0.0132 0.9625 -0.2710
vn 0.0298 0.9476 -0.3182
vn -0.0689 0.9656 -0.2505
vn -0.0000 -0.4177 -0.9086
vn 0.2067 -0.4286 -0.8795
vn 0.2132 -0.4904 -0.8450
vn -0.0000 -0.4818 -0.8763
vn 0.0603 0.9960 -0.0666
vn 0.0998 0.9950 0.0020
vn 0.1820 0.9831 -0.0213
vn 0.1178 0.9906 -0.0695
vn -0.0878 0.9690 -0.2308
vn -0.1519 0.8817 -0.4466
vn -0.0838 0.8792 -0.4690
vn -0.1068 0.8165 -0.5674
vn -0.1961 0.8241 -0.5314
vn 0.1795 0.9580 -0.2238
vn 0.2673 0.9331 -0.2407
vn 0.2287 0.9307 -0.2856
vn 0.1555 0.9536 -0.2578
vn 0.1845 0.9283 -0.3230
vn 0.1215 0.9515 -0.2828
vn -0.1084 0.9728 -0.2047
vn -0.1798 0.9578 -0.2242
vn -0.2039 0.9611 -0.1862
vn -0.1192 0.9773 -0.1752
vn 0.3772 0.7088 -0.5962
vn 0.4388 0.6210 -0.6494
vn 0.2969 0.6232 -0.7235
vn 0.2586 0.7048 -0.6606
vn 0.1519 0.8817 -0.4466
vn 0.1018 0.9243 -0.3679
vn 0.1449 0.9257 -0.3494
vn 0.2054 0.8863 -0.4151
vn 0.2520 0.8920 -0.3754
vn -0.0000 -0.3730 -0.9278
vn 0.1965 -0.3892 -0.9000
vn -0.1021 0.9482 0.3007
vn -0.2096 0.9324 0.2944
vn -0.2593 0.8236 0.5044
vn -0.1257 0.8427 0.5235
vn -0.3496 0.9012 -0.2562
vn -0.4429 0.8523 -0.2783
vn -0.4725 0.8580 -0.2016
vn -0.3756 0.9060 -0.1953
vn 0.0526 0.9238 -0.3792
vn 0.0838 0.8792 -0.4690
vn -0.9057 0.3994 0.1420
vn -0.9335 0.3249 0.1519
vn -0.8994 0.3088 0.3092
vn -0.8871 0.3633 0.2849
vn 0.2665 0.8323 -0.4860
vn 0.1961 0.8241 -0.5314
vn -0.1256 0.9777 -0.1684
vn -0.3858 0.9226 0.0014
vn -0.5089 0.8574 0.0770
vn -0.4366 0.8927 0.1115
vn -0.3232 0.9458 0.0327
vn 0.2129 0.9642 -0.1583
vn 0.2034 0.9611 -0.1867
vn 0.1183 0.9770 -0.1773
vn 0.1249 0.9785 -0.1643
vn 0.3496 0.9012 -0.2562
vn 0.3038 0.8969 -0.3213
vn -0.1199 0.9813 -0.1504
vn -0.2099 0.9685 -0.1338
vn -0.1979 0.9735 -0.1148
vn -0.1147 0.9850 -0.1293
vn -0.0000 0.9472 -0.3206
vn -0.0000 0.9617 -0.2741
vn -0.8737 0.4397 -0.2083
vn -0.8246 0.4382 -0.3578
vn -0.8529 0.3740 -0.3643
vn -0.9033 0.3765 -0.2055
vn 0.7229 0.4682 -0.5081
vn 0.7398 0.4280 -0.5192
vn 0.6474 0.4235 -0.6337
vn 0.6285 0.4681 -0.6212
vn -0.4808 0.8660 -0.1374
vn -0.3840 0.9121 -0.1436
vn 0.0689 0.9656 -0.2505
vn 0.1446 0.6820 0.7169
vn 0.1545 0.3910 0.9073
vn 0.3071 0.3667 0.8782
vn 0.2924 0.6599 0.6921
vn -0.0298 0.9476 -0.3182
vn 0.5483 0.7132 -0.4368
vn 0.6231 0.7159 -0.3149
vn 0.7106 0.6208 -0.3310
vn 0.6310 0.6169 -0.4704
vn 0.6899 0.2756 -0.6694
vn 0.6990 0.2091 -0.6838
vn 0.5666 0.1986 -0.7997
vn 0.5638 0.2693 -0.7808
vn -0.3800 0.9187 -0.1078
vn -0.3012 0.9464 -0.1167
vn -0.3042 0.9406 -0.1508
vn 0.3874 0.8467 -0.3648
vn 0.3248 0.8400 -0.4346
vn 0.5961 0.7280 0.3387
vn 0.5342 0.8198 0.2063
vn 0.4281 0.8671 0.2548
vn 0.4915 0.7641 0.4179
vn -0.0987 0.9885 -0.1146
vn 0.3141 0.9061 0.2835
vn 0.2096 0.9324 0.2944
vn 0.2593 0.8236 0.5044
vn 0.3793 0.7963 0.4712
vn 0.3947 0.7802 -0.4854
vn 0.4691 0.7857 -0.4033
vn 0.4429 0.8523 -0.2783
vn 0.5356 0.7898 -0.2988
vn 0.4725 0.8580 -0.2016
vn 0.3756 0.9060 -0.1953
vn 0.3833 0.9125 -0.1428
vn 0.4808 0.8660 -0.1374
vn -0.5155 0.4758 -0.7126
vn -0.3526 0.4829 -0.8015
vn -0.3648 0.4298 -0.8259
vn -0.5323 0.4271 -0.7309
vn -0.0690 0.9932 -0.0942
vn 0.1273 0.9877 -0.0907
vn 0.1788 0.9779 -0.1082
vn 0.0987 0.9885 -0.1146
vn 0.0690 0.9932 -0.0942
vn -0.5156 -0.0867 0.8524
vn -0.5604 0.2958 0.7736
vn -0.6749 0.2756 0.6845
vn -0.6125 -0.0869 0.7857
vn 0.4643 0.7101 -0.5293
vn -0.3071 0.3667 0.8782
vn -0.4384 0.3326 0.8350
vn -0.4002 -0.0568 0.9147
vn -0.2803 -0.0219 0.9597
vn -0.4869 0.5370 -0.6889
vn -0.6285 0.4681 -0.6212
vn -0.5965 0.5279 -0.6046
vn -0.0348 0.9960 -0.0826
vn 0.1974 0.9763 -0.0883
vn 0.2646 0.9581 -0.1097
vn 0.2929 0.9498 -0.1102
vn 0.1990 0.9729 -0.1173
vn 0.5879 0.7988 -0.1272
vn 0.6851 0.7196 -0.1131
vn 0.6666 0.7166 -0.2054
vn 0.5735 0.7929 -0.2057
vn 0.9160 0.2423 0.3198
vn 0.9328 0.1657 0.3200
vn 0.9758 0.1613 0.1475
vn 0.9569 0.2490 0.1492
vn -0.2520 0.8920 -0.3754
vn -0.3248 0.8400 -0.4346
vn -0.3874 0.8467 -0.3648
vn -0.3038 0.8969 -0.3213
vn -0.2287 0.9307 -0.2856
vn -0.2673 0.9331 -0.2407
vn -0.0185 0.9967 -0.0795
vn 0.2109 0.9683 -0.1337
vn 0.1207 0.9811 -0.1509
vn 0.1159 0.9842 -0.1336
vn 0.8096 -0.5640 0.1628
vn 0.8527 -0.4990 0.1548
vn 0.7816 -0.5043 0.3671
vn 0.7321 -0.5486 0.4038
vn 0.3730 0.9222 -0.1025
vn 0.3527 0.9306 -0.0983
vn 0.2811 0.9576 -0.0634
vn 0.4454 0.8944 -0.0409
vn 0.4656 0.8828 -0.0624
vn -0.0000 0.9966 -0.0823
vn 0.0331 0.9963 -0.0799
vn 0.0185 0.9967 -0.0795
vn -0.0000 0.9968 -0.0800
vn -0.3732 0.9221 -0.1017
vn -0.3527 0.9306 -0.0983
vn -0.2646 0.9581 -0.1097
vn -0.2924 0.9502 -0.1082
vn 0.3039 0.9410 -0.1487
vn 0.3015 0.9463 -0.1167
vn 0.3790 0.9190 -0.1082
vn -0.0000 0.9977 -0.0682
vn 0.0690 0.9944 -0.0800
vn -0.1820 0.9831 -0.0213
vn -0.2811 0.9576 -0.0634
vn -0.7042 0.1386 -0.6963
vn -0.8107 0.1492 -0.5661
vn -0.8008 0.2195 -0.5573
vn -0.6990 0.2091 -0.6838
vn 0.9549 -0.2968 -0.0136
vn 0.9240 -0.3822 -0.0141
vn 0.9106 -0.4065 -0.0746
vn 0.9479 -0.3052 -0.0916
vn 0.5849 0.8105 -0.0325
vn 0.4760 0.8764 -0.0730
vn 0.5819 0.8132 -0.0121
vn -0.0000 0.8782 -0.4782
vn -0.0000 0.8129 -0.5824
vn -0.0568 0.9497 -0.3080
vn -0.0913 0.9497 -0.2995
vn 0.6767 0.7362 0.0022
vn 0.6847 0.7278 -0.0393
vn 0.5875 0.8066 -0.0645
vn -0.3747 -0.4144 -0.8294
vn -0.1965 -0.3892 -0.9000
vn -0.2067 -0.4286 -0.8795
vn -0.3805 -0.4504 -0.8077
vn -0.9104 0.1599 -0.3816
vn -0.8971 0.2309 -0.3767
vn 0.8143 0.5422 -0.2072
vn 0.7526 0.6257 -0.2050
vn 0.7706 0.6299 -0.0972
vn 0.8217 0.5621 -0.0944
vn -0.9190 0.3790 -0.1088
vn -0.8897 0.4433 -0.1089
vn 0.7727 0.6346 -0.0179
vn 0.8136 0.5813 -0.0105
vn 0.7943 -0.5652 -0.2226
vn 0.6960 -0.6972 -0.1717
vn 0.5568 -0.7019 -0.4443
vn 0.6752 -0.5552 -0.4856
vn -0.4454 0.8944 -0.0409
vn 0.3232 0.9458 0.0327
vn 0.3858 0.9226 0.0014
vn 0.7612 0.6479 0.0278
vn -0.1676 0.4859 -0.8578
vn -0.1747 0.4277 -0.8869
vn 0.8579 0.5032 -0.1037
vn 0.8496 0.4842 -0.2093
vn 0.8461 0.5329 -0.0108
vn 0.5612 0.8272 0.0287
vn 0.5089 0.8574 0.0770
vn 0.4366 0.8927 0.1115
vn -0.2506 0.9661 0.0621
vn 0.6685 0.7428 0.0362
vn 0.7435 0.6641 0.0780
vn -0.7100 -0.6872 0.1539
vn -0.6800 -0.6926 0.2409
vn -0.7497 -0.6343 0.1887
vn -0.7945 -0.6023 0.0770
vn 0.6471 0.7571 0.0905
vn 0.6021 0.7835 0.1535
vn 0.3388 0.9301 0.1419
vn -0.5342 0.8198 0.2063
vn -0.4281 0.8671 0.2548
vn -0.3388 0.9301 0.1419
vn 0.2506 0.9661 0.0621
vn 0.1835 0.9792 0.0863
vn 0.6672 0.7035 0.2448
vn 0.7142 0.6829 0.1535
vn 0.1068 0.8165 -0.5674
vn 0.1157 0.7575 -0.6424
vn -0.0000 0.7522 -0.6589
vn 0.8871 0.3633 0.2849
vn 0.8740 0.4216 0.2418
vn 0.7701 0.2438 0.5894
vn 0.7460 0.1923 0.6376
vn 0.1298 0.9866 0.0986
vn 0.1624 0.9737 0.1595
vn 0.2396 0.9580 0.1578
vn -0.1835 0.9792 0.0863
vn -0.1298 0.9866 0.0986
vn -0.0998 0.9950 0.0020
vn -0.3846 0.2616 -0.8852
vn -0.3852 0.1887 -0.9033
vn -0.5666 0.1986 -0.7997
vn -0.5638 0.2693 -0.7808
vn 0.7733 0.5870 0.2397
vn 0.8045 0.5807 0.1251
vn -0.0000 0.9239 -0.3826
vn 0.7198 0.5779 0.3846
vn -0.4656 0.8828 -0.0624
vn -0.5819 0.8132 -0.0121
vn -0.5612 0.8272 0.0287
vn -0.0000 -0.2009 -0.9796
vn -0.0000 -0.2756 -0.9613
vn -0.1950 -0.2835 -0.9389
vn -0.1946 -0.2093 -0.9583
vn -0.0000 1.0000 0.0084
vn 0.0726 0.9915 0.1079
vn -0.6471 0.7571 0.0905
vn -0.6021 0.7835 0.1535
vn -0.3843 0.1190 -0.9155
vn -0.1858 0.1165 -0.9757
vn -0.1876 0.0387 -0.9815
vn -0.3855 0.0360 -0.9220
vn -0.7420 0.3115 0.5937
vn -0.6553 -0.0297 0.7548
vn -0.0726 0.9915 0.1079
vn 0.7420 0.3115 0.5937
vn 0.8042 0.3878 0.4503
vn -0.0690 0.9944 -0.0800
vn -0.0331 0.9963 -0.0799
vn 0.8402 0.5358 0.0839
vn 0.8770 0.4655 0.1192
vn 0.8864 0.4626 -0.0137
vn 0.0348 0.9960 -0.0826
vn -0.8619 -0.5064 -0.0271
vn -0.8634 -0.4211 -0.2780
vn -0.7943 -0.5652 -0.2226
vn 0.8488 0.4955 0.1845
vn 0.1319 -0.6679 0.7324
vn -0.0410 -0.9591 0.2799
vn -0.0379 -0.9519 0.3039
vn 0.1947 -0.6800 0.7069
vn -0.9463 0.3045 -0.1083
vn -0.9480 0.3176 -0.0215
vn -0.9182 0.3958 -0.0183
vn -0.0603 0.9960 -0.0666
vn -0.1273 0.9877 -0.0907
vn 0.9057 0.3994 0.1420
vn 0.9182 0.3958 -0.0183
vn 0.3805 -0.4504 -0.8077
vn 0.4656 -0.4775 -0.7451
vn 0.4722 -0.5658 -0.6759
vn 0.3696 -0.5058 -0.7795
vn 0.9190 0.3790 -0.1088
vn 0.8897 0.4433 -0.1089
vn 0.8737 0.4397 -0.2083
vn -0.1178 0.9906 -0.0695
vn 0.4782 0.8734 -0.0915
vn 0.9480 0.3176 -0.0215
vn 0.9463 0.3045 -0.1083
vn 0.6553 -0.0297 0.7548
vn 0.6284 0.0606 0.7755
vn -0.8042 0.3878 0.4503
vn -0.7701 0.2438 0.5894
vn -0.6284 0.0606 0.7755
vn 0.5809 -0.0449 0.8128
vn 0.3779 -0.3173 0.8698
vn 0.5273 -0.6428 -0.5556
vn 0.7015 -0.5816 -0.4119
vn -0.9504 0.2357 -0.2029
vn -0.9648 0.2393 -0.1093
vn -0.9321 0.2996 -0.2036
vn -0.1974 0.9763 -0.0883
vn 0.4451 -0.0414 0.8945
vn 0.8994 0.3088 0.3092
vn 0.7739 0.5316 -0.3442
vn 0.6925 0.5252 -0.4946
vn 0.8870 -0.4390 0.1431
vn 0.8295 -0.4490 0.3322
vn 0.8246 0.4382 -0.3578
vn 0.8053 0.4768 -0.3523
vn 0.9335 0.3249 0.1519
vn 0.0568 -0.3233 0.9446
vn -0.0059 -0.3591 0.9333
vn 0.5390 0.6171 -0.5733
vn 0.5965 0.5279 -0.6046
vn 0.4869 0.5370 -0.6889
vn 0.1529 0.1833 0.9711
vn 0.1597 0.1410 0.9770
vn 0.9033 0.3765 -0.2055
vn 0.8529 0.3740 -0.3643
vn 0.3213 0.7748 -0.5445
vn 0.1782 0.0820 0.9806
vn 0.9466 0.0905 0.3094
vn 0.9321 0.2996 -0.2036
vn 0.8808 0.2944 -0.3709
vn 0.5155 0.4758 -0.7126
vn 0.9873 0.0723 0.1417
vn 0.1973 -0.0017 0.9803
vn 0.9534 -0.0087 0.3015
vn 0.9687 0.2468 -0.0251
vn -0.1157 0.7575 -0.6424
vn -0.2273 0.7675 -0.5994
vn -0.8870 -0.4390 0.1431
vn -0.8904 -0.4547 -0.0221
vn -0.8482 -0.5283 -0.0370
vn -0.8527 -0.4990 0.1548
vn -0.5356 0.7898 -0.2988
vn -0.4691 0.7857 -0.4033
vn -0.7058 -0.0481 -0.7067
vn -0.6971 -0.1406 -0.7030
vn -0.8140 -0.1334 -0.5654
vn -0.8197 -0.0379 -0.5715
vn -0.7106 0.6208 -0.3310
vn -0.6310 0.6169 -0.4704
vn -0.6925 0.5252 -0.4946
vn -0.7739 0.5316 -0.3442
vn -0.5644 0.0402 -0.8245
vn -0.3871 -0.0534 -0.9205
vn -0.5611 -0.0558 -0.8258
vn 0.9975 0.0670 -0.0204
vn 0.9912 -0.0186 0.1313
vn 0.9995 -0.0259 -0.0165
vn -0.9549 -0.2968 -0.0136
vn -0.9240 -0.3822 -0.0141
vn -0.9183 -0.3732 0.1323
vn -0.9477 -0.2933 0.1263
vn -0.7733 0.5870 0.2397
vn -0.7198 0.5779 0.3846
vn -0.6672 0.7035 0.2448
vn -0.7142 0.6829 0.1535
vn 0.1676 0.4859 -0.8578
vn 0.1747 0.4277 -0.8869
vn -0.0000 0.4258 -0.9048
vn -0.0000 0.4867 -0.8736
vn 0.9472 -0.1154 0.2992
vn 0.9308 -0.2062 0.3019
vn 0.9710 -0.2039 0.1250
vn 0.9856 -0.1127 0.1260
vn 0.9809 0.1617 -0.1081
vn 0.9660 0.1629 -0.2008
vn 0.9504 0.2357 -0.2029
vn 0.9648 0.2393 -0.1093
vn -0.1624 0.9737 0.1595
vn -0.2396 0.9580 0.1578
vn -0.1421 0.0036 0.9898
vn -0.0665 -0.6600 0.7484
vn -0.0000 -0.6575 0.7535
vn -0.0000 0.0131 0.9999
vn -0.9744 -0.1265 -0.1857
vn -0.9589 -0.2212 -0.1776
vn -0.9720 -0.2160 -0.0923
vn -0.9879 -0.1236 -0.0941
vn -0.0000 0.2523 -0.9676
vn 0.1843 0.2550 -0.9492
vn 0.1853 0.1827 -0.9656
vn -0.0000 0.1808 -0.9835
vn 0.9929 -0.1181 -0.0156
vn 0.9777 -0.2092 -0.0158
vn -0.7076 0.0512 -0.7047
vn 0.9948 -0.0263 -0.0981
vn 0.9921 0.0701 -0.1036
vn 0.9776 0.0737 -0.1974
vn 0.9809 -0.0253 -0.1927
vn 0.9202 0.0712 -0.3848
vn 0.9104 0.1599 -0.3816
vn 0.8140 -0.1334 -0.5654
vn 0.8197 -0.0379 -0.5715
vn 0.9228 -0.0293 -0.3841
vn 0.9175 -0.1300 -0.3760
vn 0.1070 -0.2832 0.9531
vn 0.8696 -0.3822 0.3126
vn 0.9043 -0.2993 0.3044
vn 0.1398 -0.2286 0.9634
vn -0.3141 0.9061 0.2835
vn 0.8008 0.2195 -0.5573
vn 0.8971 0.2309 -0.3767
vn 0.8107 0.1492 -0.5661
vn 0.7640 0.3628 -0.5336
vn -0.8496 0.4842 -0.2093
vn -0.8053 0.4768 -0.3523
vn 0.6696 0.3572 -0.6512
vn 0.7878 0.2831 -0.5470
vn -0.7229 0.4682 -0.5081
vn 0.2922 0.9369 -0.1920
vn 0.1541 0.5499 -0.8209
vn 0.1377 0.6207 -0.7719
vn 0.3301 0.5454 -0.7704
vn 0.6304 -0.3581 -0.6888
vn 0.7735 -0.3417 -0.5337
vn 0.7501 -0.4028 -0.5245
vn 0.5962 -0.4226 -0.6826
vn 0.5644 -0.5285 -0.6342
vn -0.6696 0.3572 -0.6512
vn -0.6899 0.2756 -0.6694
vn -0.7878 0.2831 -0.5470
vn -0.7640 0.3628 -0.5336
vn -0.0522 -0.3912 0.9188
vn -0.2054 0.8863 -0.4151
vn -0.1449 0.9257 -0.3494
vn -0.1018 0.9243 -0.3679
vn 0.5156 -0.0867 0.8524
vn 0.2496 -0.6834 0.6860
vn 0.2956 -0.6767 0.6743
vn 0.6125 -0.0869 0.7857
vn 0.8482 -0.5283 -0.0370
vn 0.8904 -0.4547 -0.0221
vn 0.9183 -0.3732 0.1323
vn 0.9477 -0.2933 0.1263
vn 0.5323 0.4271 -0.7309
vn -0.7321 -0.5486 0.4038
vn -0.7687 -0.6171 0.1683
vn 0.0522 -0.3912 0.9188
vn -0.8096 -0.5640 0.1628
vn 0.9720 -0.2160 -0.0923
vn 0.9879 -0.1236 -0.0941
vn 0.3526 0.4829 -0.8015
vn 0.3648 0.4298 -0.8259
vn -0.8017 -0.5951 -0.0563
vn 0.8017 -0.5951 -0.0563
vn -0.7739 -0.6170 -0.1430
vn 0.9744 -0.1265 -0.1857
vn 0.9589 -0.2212 -0.1776
vn 0.9059 -0.2207 -0.3615
vn 0.8044 -0.2139 -0.5542
vn 0.3759 0.3553 -0.8558
vn 0.1799 0.3504 -0.9192
vn -0.0000 0.6186 -0.7857
vn -0.0000 0.6904 -0.7235
vn 0.1235 0.6957 -0.7076
vn 0.5497 0.3570 -0.7552
vn -0.8143 0.5422 -0.2072
vn -0.8217 0.5621 -0.0944
vn -0.7706 0.6299 -0.0972
vn -0.7526 0.6257 -0.2050
vn -0.5849 0.8105 -0.0325
vn -0.4760 0.8764 -0.0730
vn -0.0000 0.5515 -0.8342
vn 0.1734 -0.0905 0.9807
vn 0.3846 0.2616 -0.8852
vn -0.0000 0.1160 -0.9932
vn -0.0000 0.0404 -0.9992
vn 0.4192 0.6310 0.6528
vn -0.0000 0.3475 -0.9377
vn -0.1799 0.3504 -0.9192
vn 0.3852 0.1887 -0.9033
vn 0.8093 0.5855 0.0480
vn -0.1853 0.1827 -0.9656
vn 0.8814 -0.4611 -0.1026
vn -0.6685 0.7428 0.0362
vn 0.1926 -0.1288 -0.9728
vn 0.3861 -0.1418 -0.9115
vn 0.3813 -0.2238 -0.8969
vn 0.1946 -0.2093 -0.9583
vn -0.3759 0.3553 -0.8558
vn 0.5656 0.1272 -0.8148
vn 0.3843 0.1190 -0.9155
vn 0.1858 0.1165 -0.9757
vn 0.7042 0.1386 -0.6963
vn -0.1843 0.2550 -0.9492
vn -0.1903 -0.0445 -0.9807
vn 0.1950 -0.2835 -0.9389
vn 0.3749 -0.2978 -0.8779
vn 0.3712 -0.3640 -0.8542
vn 0.1933 -0.3455 -0.9183
vn -0.6666 0.7166 -0.2054
vn -0.6851 0.7196 -0.1131
vn -0.5879 0.7988 -0.1272
vn -0.5735 0.7929 -0.2057
vn 0.5644 0.0402 -0.8245
vn 0.3855 0.0360 -0.9220
vn 0.7058 -0.0481 -0.7067
vn 0.5611 -0.0558 -0.8258
vn 0.7076 0.0512 -0.7047
vn 0.8184 0.0618 -0.5714
vn 0.9368 -0.3079 -0.1662
vn 0.9024 -0.4125 -0.1244
vn 0.8619 -0.5064 -0.0271
vn 0.8287 -0.5581 0.0425
vn -0.9059 -0.2207 -0.3615
vn -0.8912 -0.2977 -0.3421
vn -0.9368 -0.3079 -0.1662
vn 0.8912 -0.2977 -0.3421
vn 0.6971 -0.1406 -0.7030
vn 0.6826 -0.2177 -0.6976
vn -0.1788 0.9779 -0.1082
vn 0.8634 -0.4211 -0.2780
vn 0.7945 -0.6023 0.0770
vn 0.7913 -0.2834 -0.5417
vn 0.8794 -0.3564 -0.3158
vn 0.7100 -0.6872 0.1539
vn 0.7497 -0.6343 0.1887
vn 0.6800 -0.6926 0.2409
vn 0.1644 -0.1599 0.9733
vn -0.7913 -0.2834 -0.5417
vn -0.7735 -0.3417 -0.5337
vn -0.8794 -0.3564 -0.3158
vn 0.5530 -0.1468 -0.8201
vn -0.6393 -0.7563 -0.1387
vn -0.6960 -0.6972 -0.1717
vn 0.5163 -0.3005 -0.8020
vn 0.6606 -0.2887 -0.6930
vn 0.4919 -0.3714 -0.7874
vn 0.5381 -0.2265 -0.8119
vn -0.8184 0.0618 -0.5714
vn -0.8136 0.5813 -0.0105
vn -0.7727 0.6346 -0.0179
vn -0.5568 -0.7019 -0.4443
vn -0.4935 -0.7142 -0.4964
vn 0.3871 -0.0534 -0.9205
vn 0.4935 -0.7142 -0.4964
vn -0.3813 -0.2238 -0.8969
vn -0.5381 -0.2265 -0.8119
vn -0.5530 -0.1468 -0.8201
vn -0.3861 -0.1418 -0.9115
vn -0.0000 -0.3344 -0.9424
vn 0.1876 0.0387 -0.9815
vn 0.1903 -0.0445 -0.9807
vn -0.7501 -0.4028 -0.5245
vn -0.6752 -0.5552 -0.4856
vn 0.4741 -0.4313 -0.7676
vn -0.5644 -0.5285 -0.6342
vn -0.4656 -0.4775 -0.7451
vn -0.4722 -0.5658 -0.6759
vn -0.5052 -0.6325 -0.5871
vn -0.0000 -0.0401 -0.9992
vn -0.0000 -0.1221 -0.9925
vn -0.3793 0.7963 0.4712
vn -0.4915 0.7641 0.4179
vn -0.3772 0.7088 -0.5962
vn -0.4388 0.6210 -0.6494
vn -0.5390 0.6171 -0.5733
vn -0.4643 0.7101 -0.5293
vn -0.0000 -0.6156 -0.7881
vn -0.3696 -0.5058 -0.7795
vn -0.9929 -0.1181 -0.0156
vn -0.9777 -0.2092 -0.0158
vn -0.9710 -0.2039 0.1250
vn -0.9856 -0.1127 0.1260
vn -0.9308 -0.2062 0.3019
vn -0.9472 -0.1154 0.2992
vn 0.1021 0.9482 0.3007
vn 0.0834 0.9830 0.1637
vn -0.0000 0.9861 0.1663
vn -0.0000 0.9533 0.3020
vn -0.2132 -0.4904 -0.8450
vn -0.9202 0.0712 -0.3848
vn -0.9776 0.0737 -0.1974
vn -0.9660 0.1629 -0.2008
vn -0.9160 0.2423 0.3198
vn -0.9328 0.1657 0.3200
vn -0.1597 0.1410 0.9770
vn -0.1529 0.1833 0.9711
vn 0.3747 -0.4144 -0.8294
vn -0.1933 -0.3455 -0.9183
vn -0.3749 -0.2978 -0.8779
vn -0.5163 -0.3005 -0.8020
vn 0.9864 0.1622 -0.0246
vn -0.9024 -0.4125 -0.1244
vn -0.9106 -0.4065 -0.0746
vn -0.9479 -0.3052 -0.0916
vn 0.0238 -0.9652 0.2604
vn -0.0000 -0.9673 0.2538
vn -0.5497 0.3570 -0.7552
vn -0.6474 0.4235 -0.6337
vn -0.1235 0.6957 -0.7076
vn -0.2586 0.7048 -0.6606
vn -0.0000 0.8492 0.5280
vn 0.1257 0.8427 0.5235
vn -0.1926 -0.1288 -0.9728
vn -0.0834 0.9830 0.1637
vn -0.0000 0.9935 0.1141
vn -0.1541 0.5499 -0.8209
vn -0.3301 0.5454 -0.7704
vn 0.4002 -0.0568 0.9147
vn 0.2803 -0.0219 0.9597
vn -0.7398 0.4280 -0.5192
vn -0.8579 0.5032 -0.1037
vn -0.2130 0.9637 -0.1608
vn -0.5656 0.1272 -0.8148
vn -0.2969 0.6232 -0.7235
vn -0.1377 0.6207 -0.7719
vn 0.1421 0.0036 0.9898
vn 0.2273 0.7675 -0.5994
vn -0.8461 0.5329 -0.0108
vn 0.5052 -0.6325 -0.5871
vn -0.9043 -0.2993 0.3044
vn -0.8696 -0.3822 0.3126
vn -0.1070 -0.2832 0.9531
vn -0.1398 -0.2286 0.9634
vn -0.7612 0.6479 0.0278
vn -0.6767 0.7362 0.0022
vn -0.6847 0.7278 -0.0393
vn -0.3712 -0.3640 -0.8542
vn -0.4741 -0.4313 -0.7676
vn -0.5962 -0.4226 -0.6826
vn -0.4919 -0.3714 -0.7874
vn -0.9975 0.0670 -0.0204
vn -0.9995 -0.0259 -0.0165
vn -0.9912 -0.0186 0.1313
vn -0.9873 0.0723 0.1417
vn -0.0527 0.9238 -0.3792
vn 0.0891 0.9694 -0.2286
vn 0.1087 0.9728 -0.2043
vn -0.5875 0.8066 -0.0645
vn -0.8740 0.4216 0.2418
vn -0.8488 0.4955 0.1845
vn -0.8402 0.5358 0.0839
vn -0.8770 0.4655 0.1192
vn -0.9809 -0.0253 -0.1927
vn -0.9948 -0.0263 -0.0981
vn -0.9921 0.0701 -0.1036
vn -0.8864 0.4626 -0.0137
vn -0.6826 -0.2177 -0.6976
vn -0.6606 -0.2887 -0.6930
vn -0.2665 0.8323 -0.4860
vn -0.4192 0.6310 0.6528
vn -0.2924 0.6599 0.6921
vn -0.8044 -0.2139 -0.5542
vn -0.6304 -0.3581 -0.6888
vn 0.6465 0.5738 0.5027
vn -0.1215 0.9515 -0.2828
vn -0.1845 0.9283 -0.3230
vn -0.1553 0.9535 -0.2584
vn -0.3213 0.7748 -0.5445
vn -0.3947 0.7802 -0.4854
vn 0.6393 -0.7563 -0.1387
vn -0.5483 0.7132 -0.4368
vn 0.0665 -0.6600 0.7484
vn -0.9466 0.0905 0.3094
vn -0.1782 0.0820 0.9806
vn -0.6231 0.7159 -0.3149
vn -0.2496 -0.6834 0.6860
vn -0.1947 -0.6800 0.7069
vn -0.8808 0.2944 -0.3709
vn -0.9228 -0.0293 -0.3841
vn -0.9175 -0.1300 -0.3760
vn -0.8287 -0.5581 0.0425
vn -0.5961 0.7280 0.3387
vn -0.6465 0.5738 0.5027
vn -0.5348 0.6005 0.5944
vn -0.9687 0.2468 -0.0251
vn -0.9809 0.1617 -0.1081
vn -0.9864 0.1622 -0.0246
vn -0.4451 -0.0414 0.8945
vn -0.7460 0.1923 0.6376
vn -0.8093 0.5855 0.0480
vn -0.9758 0.1613 0.1475
vn -0.9569 0.2490 0.1492
vn -0.1446 0.6820 0.7169
vn -0.0000 0.6906 0.7232
vn -0.9534 -0.0087 0.3015
vn 0.5348 0.6005 0.5944
vn 0.5604 0.2958 0.7736
vn 0.6749 0.2756 0.6845
vn -0.7435 0.6641 0.0780
vn -0.8045 0.5807 0.1251
vn -0.0000 0.4007 0.9162
vn -0.1973 -0.0017 0.9803
vn -0.1734 -0.0905 0.9807
vn -0.1644 -0.1599 0.9733
vn -0.1914 -0.5746 0.7957
vn -0.2961 -0.6312 0.7169
vn 0.1914 -0.5746 0.7957
vn -0.8814 -0.4611 -0.1026
vn -0.8347 -0.5345 -0.1324
vn -0.5884 -0.5423 0.5997
vn 0.7739 -0.6170 -0.1429
vn 0.7687 -0.6171 0.1683
vn -0.8295 -0.4490 0.3322
vn -0.0568 -0.3233 0.9446
vn -0.0901 -0.9678 0.2350
vn -0.7409 0.0088 0.6715
vn 0.0059 -0.3591 0.9333
vn 0.7409 0.0088 0.6715
vn 0.0901 -0.9678 0.2350
vn 0.1550 -0.9049 0.3965
vn -0.7816 -0.5043 0.3671
vn 0.8347 -0.5345 -0.1324
vn -0.2956 -0.6767 0.6743
vn 0.0548 -0.9293 0.3651
vn 0.0509 -0.9415 0.3332
vn 0.0379 -0.9519 0.3039
vn -0.1319 -0.6679 0.7324
vn 0.0410 -0.9591 0.2799
vn 0.2961 -0.6312 0.7169
vn -0.1545 0.3910 0.9073
vn -0.0238 -0.9652 0.2604
vn -0.7411 0.0480 0.6697
vn -0.2767 -0.4223 -0.8632
vn -0.1315 -0.3748 -0.9177
vn -0.2584 -0.4182 -0.8708
vn -0.1711 -0.3929 -0.9035
vn -0.0507 -0.3444 -0.9374
vn -0.5273 -0.6428 -0.5556
vn -0.7015 -0.5816 -0.4119
vn -0.1326 -0.5077 0.8512
vn -0.0000 -0.4944 0.8692
vn -0.0000 -0.2956 0.9553
vn -0.0548 -0.9293 0.3651
vn -0.1550 -0.9049 0.3965
vn 0.4384 0.3326 0.8350
vn -0.4782 0.8734 -0.0915
vn -0.2922 0.9369 -0.1920
vn -0.0509 -0.9415 0.3332
vn 0.5884 -0.5423 0.5997
vn 0.7411 0.0480 0.6697
vn 0.2767 -0.4223 -0.8632
vn 0.2584 -0.4182 -0.8708
vn 0.1315 -0.3748 -0.9177
vn 0.1711 -0.3929 -0.9035
vn 0.0507 -0.3444 -0.9374
vn -0.3779 -0.3173 0.8698
vn -0.5809 -0.0449 0.8128
vn 0.5096 -0.8105 0.2888
vn 0.7912 -0.3151 -0.5241
vn 0.9338 -0.1993 0.2971
vn 0.6357 -0.0194 0.7717
vn 0.6083 0.0341 0.7930
vn -0.0000 -0.2258 0.9742
vn 0.1326 -0.5077 0.8512
vn -0.6083 0.0341 0.7930
vn -0.5096 -0.8105 0.2888
vn -0.6357 -0.0194 0.7717
vn -0.9338 -0.1993 0.2971
vn -0.7912 -0.3151 -0.5241
vt 0.000000 0.000000
s 1
f 1/1/1 2/1/2 3/1/3
f 754/1/4 757/1/5 435/1/6 436/1/7
f 1/1/1 3/1/3 5/1/8
f 37/1/9 436/1/7 435/1/6 429/1/10
f 2/1/2 6/1/11 3/1/3
f 382/1/12 401/1/13 396/1/14 389/1/15
f 125/1/16 138/1/17 147/1/18 146/1/19
f 6/1/11 9/1/20 3/1/3
f 17/1/21 416/1/22 415/1/23 410/1/24
f 748/1/25 760/1/26 758/1/27 755/1/28
f 758/1/27 759/1/29 756/1/30 755/1/28
f 9/1/20 14/1/31 3/1/3
f 15/1/32 23/1/33 20/1/34 14/1/31
f 440/1/35 441/1/36 392/1/37 433/1/38
f 434/1/39 573/1/40 574/1/41 567/1/42
f 759/1/29 566/1/43 567/1/42 574/1/41
f 376/1/44 407/1/45 401/1/13 382/1/12
f 14/1/31 20/1/34 3/1/3
f 708/1/46 745/1/47 715/1/48 707/1/49
f 29/1/50 48/1/51 49/1/52 44/1/53
f 428/1/54 573/1/40 434/1/39 427/1/55
f 435/1/6 573/1/40 428/1/54 429/1/10
f 141/1/56 166/1/57 160/1/58 143/1/59
f 434/1/39 567/1/42 448/1/60 442/1/61
f 20/1/34 27/1/62 3/1/3
f 91/1/63 98/1/64 99/1/65 92/1/66
f 730/1/67 744/1/68 734/1/69 731/1/70
f 758/1/27 760/1/26 762/1/71 761/1/72
f 32/1/73 35/1/74 39/1/75 38/1/76
f 37/1/9 429/1/10 30/1/77 31/1/78
f 163/1/79 157/1/80 169/1/81 168/1/82
f 5/1/8 3/1/3 31/1/78
f 380/1/83 381/1/84 365/1/85 374/1/86
f 27/1/62 32/1/73 3/1/3
f 49/1/52 56/1/87 40/1/88 44/1/53
f 756/1/30 757/1/5 754/1/4 753/1/89
f 31/1/78 3/1/3 37/1/9
f 32/1/73 38/1/76 3/1/3
f 648/1/90 654/1/91 634/1/92 641/1/93
f 5/1/8 31/1/78 30/1/77 26/1/94
f 464/1/95 547/1/96 469/1/97 465/1/98
f 361/1/99 384/1/100 353/1/101 354/1/102
f 40/1/88 67/1/103 34/1/104 33/1/105
f 566/1/43 761/1/72 559/1/106 560/1/107
f 639/1/108 655/1/109 650/1/110 645/1/111
f 38/1/76 43/1/112 3/1/3
f 649/1/113 686/1/114 642/1/115 643/1/116
f 456/1/117 560/1/107 559/1/106 553/1/118
f 559/1/106 764/1/119 552/1/120 553/1/118
f 604/1/121 764/1/119 762/1/71 763/1/122
f 732/1/123 765/1/124 604/1/121 763/1/122
f 233/1/125 239/1/126 241/1/127 240/1/128
f 43/1/112 50/1/129 3/1/3
f 153/1/130 692/1/131 159/1/132 139/1/133
f 729/1/134 737/1/135 742/1/136 738/1/137
f 456/1/117 553/1/118 464/1/95 457/1/138
f 716/1/139 733/1/140 723/1/141 717/1/142
f 178/1/143 233/1/125 171/1/144 170/1/145
f 50/1/129 58/1/146 3/1/3
f 685/1/147 697/1/148 692/1/131 153/1/130
f 697/1/148 718/1/149 698/1/150 692/1/131
f 597/1/151 592/1/152 546/1/153 596/1/154
f 539/1/155 551/1/156 532/1/157 533/1/158
f 19/1/159 42/1/160 41/1/161 36/1/162
f 12/1/163 36/1/162 29/1/50 21/1/164
f 58/1/146 64/1/165 3/1/3
f 698/1/150 725/1/166 704/1/167 699/1/168
f 612/1/169 619/1/170 615/1/171 613/1/172
f 712/1/173 718/1/149 697/1/148 691/1/174
f 691/1/174 697/1/148 685/1/147 670/1/175
f 670/1/175 676/1/176 684/1/177 691/1/174
f 70/1/178 126/1/179 77/1/180 71/1/181
f 64/1/165 71/1/181 3/1/3
f 65/1/182 66/1/183 60/1/184 61/1/185
f 732/1/123 735/1/186 724/1/187 727/1/188
f 762/1/71 764/1/119 559/1/106 761/1/72
f 125/1/16 126/1/179 70/1/178 119/1/189
f 125/1/16 146/1/19 132/1/190 126/1/179
f 92/1/66 83/1/191 84/1/192 91/1/63
f 71/1/181 77/1/180 3/1/3
f 271/1/193 272/1/194 211/1/195 265/1/196
f 499/1/197 579/1/198 485/1/199 491/1/200
f 690/1/201 719/1/202 684/1/177 683/1/203
f 422/1/204 421/1/205 415/1/23 416/1/22
f 4/1/206 8/1/207 2/1/2 1/1/1
f 670/1/175 685/1/147 146/1/19 147/1/18
f 690/1/201 767/1/208 591/1/209 766/1/210
f 350/1/211 355/1/212 346/1/213 336/1/214
f 211/1/195 272/1/194 207/1/215 212/1/216
f 483/1/217 542/1/218 538/1/219 520/1/220
f 163/1/79 168/1/82 144/1/221 137/1/222
f 538/1/219 584/1/223 530/1/224 520/1/220
f 459/1/225 460/1/226 453/1/227 452/1/228
f 84/1/192 90/1/229 91/1/63
f 670/1/175 147/1/18 663/1/230 669/1/231
f 591/1/209 767/1/208 583/1/232 584/1/223
f 246/1/233 249/1/234 241/1/127 239/1/126
f 483/1/217 520/1/220 513/1/235 484/1/236
f 520/1/220 530/1/224 514/1/237 513/1/235
f 677/1/238 683/1/203 684/1/177 676/1/176
f 668/1/239 677/1/238 676/1/176 669/1/231
f 662/1/240 668/1/239 669/1/231 663/1/230
f 757/1/5 574/1/41 573/1/40 435/1/6
f 92/1/66 101/1/241 83/1/191
f 583/1/232 767/1/208 595/1/242 589/1/243
f 302/1/244 303/1/245 293/1/246 294/1/247
f 595/1/242 683/1/203 677/1/238 647/1/248
f 647/1/248 677/1/238 668/1/239 656/1/249
f 656/1/249 668/1/239 662/1/240 655/1/109
f 655/1/109 662/1/240 658/1/250 650/1/110
f 106/1/251 107/1/252 100/1/253 99/1/65
f 730/1/67 731/1/70 704/1/167 725/1/166
f 664/1/254 147/1/18 138/1/17 671/1/255
f 756/1/30 759/1/29 574/1/41 757/1/5
f 647/1/248 656/1/249 640/1/256 590/1/257
f 425/1/258 426/1/259 408/1/260 421/1/205
f 548/1/261 525/1/262 555/1/263 554/1/264
f 645/1/111 650/1/110 649/1/113 643/1/116
f 671/1/255 721/1/265 678/1/266 657/1/267
f 678/1/266 686/1/114 649/1/113 657/1/267
f 109/1/268 118/1/269 110/1/270
f 256/1/271 264/1/272 261/1/273 254/1/274
f 590/1/257 576/1/275 575/1/276 589/1/243
f 30/1/77 429/1/10 428/1/54 423/1/277
f 631/1/278 576/1/275 590/1/257 640/1/256
f 72/1/279 103/1/280 97/1/281 90/1/229
f 357/1/282 368/1/283 351/1/284 352/1/285
f 721/1/265 138/1/17 131/1/286 720/1/287
f 104/1/288 105/1/289 98/1/64 97/1/281
f 270/1/290 331/1/291 325/1/292 322/1/293
f 738/1/137 742/1/136 130/1/294 739/1/295
f 124/1/296 131/1/286 110/1/270 118/1/269
f 576/1/275 631/1/278 581/1/297 561/1/298
f 57/1/299 69/1/300 64/1/165 58/1/146
f 514/1/237 524/1/301 518/1/302 512/1/303
f 77/1/180 133/1/304 3/1/3
f 286/1/305 295/1/306 296/1/307 294/1/247
f 524/1/301 568/1/308 525/1/262 518/1/302
f 633/1/309 638/1/310 630/1/311 626/1/312
f 144/1/221 177/1/313 148/1/314 140/1/315
f 110/1/270 131/1/286 119/1/189 75/1/316
f 57/1/299 58/1/146 50/1/129 51/1/317
f 133/1/304 139/1/133 3/1/3
f 518/1/302 519/1/318 511/1/319 512/1/303
f 525/1/262 548/1/261 519/1/318 518/1/302
f 403/1/320 412/1/321 404/1/322 400/1/323
f 505/1/324 506/1/325 512/1/303 511/1/319
f 484/1/236 513/1/235 506/1/325 490/1/326
f 83/1/191 110/1/270 75/1/316 76/1/327
f 690/1/201 766/1/210 726/1/328 719/1/202
f 505/1/324 511/1/319 509/1/329 504/1/330
f 581/1/297 587/1/331 582/1/332 561/1/298
f 129/1/333 142/1/334 150/1/335
f 780/1/336 774/1/337 772/1/338 773/1/339
f 198/1/340 191/1/341 177/1/313 176/1/342
f 51/1/317 59/1/343 76/1/327 57/1/299
f 548/1/261 554/1/264 549/1/344 543/1/345
f 469/1/97 477/1/346 455/1/347 465/1/98
f 615/1/171 619/1/170 607/1/348 606/1/349
f 463/1/350 381/1/84 380/1/83 462/1/351
f 484/1/236 490/1/326 463/1/350 462/1/351
f 139/1/133 159/1/132 3/1/3
f 525/1/262 568/1/308 561/1/298 555/1/263
f 519/1/318 548/1/261 543/1/345 526/1/352
f 604/1/121 765/1/124 597/1/151 596/1/154
f 724/1/187 735/1/186 730/1/67 725/1/166
f 608/1/353 616/1/354 615/1/171 606/1/349
f 446/1/355 447/1/356 373/1/357 441/1/36
f 539/1/155 556/1/358 557/1/359 551/1/156
f 498/1/360 490/1/326 506/1/325 505/1/324
f 490/1/326 498/1/360 476/1/361 463/1/350
f 455/1/347 380/1/83 374/1/86 447/1/356
f 456/1/117 457/1/138 440/1/35 449/1/362
f 440/1/35 457/1/138 446/1/355 441/1/36
f 557/1/359 562/1/363 545/1/364 551/1/156
f 497/1/365 498/1/360 505/1/324 504/1/330
f 476/1/361 498/1/360 497/1/365 482/1/366
f 373/1/357 447/1/356 374/1/86 367/1/367
f 663/1/230 664/1/254 658/1/250 662/1/240
f 514/1/237 512/1/303 506/1/325 513/1/235
f 532/1/157 551/1/156 545/1/364 541/1/368
f 545/1/364 562/1/363 565/1/369 564/1/370
f 526/1/352 533/1/158 510/1/371 509/1/329
f 415/1/23 409/1/372 398/1/373 410/1/24
f 223/1/374 229/1/375 230/1/376 226/1/377
f 146/1/19 685/1/147 153/1/130 132/1/190
f 47/1/378 48/1/51 41/1/161 46/1/379
f 549/1/344 556/1/358 539/1/155 543/1/345
f 281/1/380 311/1/381 297/1/382 304/1/383
f 74/1/384 158/1/385 155/1/386 151/1/387
f 276/1/388 322/1/293 317/1/389 316/1/390
f 534/1/391 541/1/368 540/1/392 535/1/393
f 232/1/394 267/1/395 222/1/396 224/1/397
f 122/1/398 123/1/399 113/1/400 112/1/401
f 259/1/402 260/1/403 253/1/404 252/1/405
f 563/1/406 569/1/407 550/1/408 558/1/409
f 516/1/410 517/1/411 496/1/412 508/1/413
f 504/1/330 508/1/413 496/1/412 497/1/365
f 117/1/414 118/1/269 109/1/268 108/1/415
f 666/1/416 667/1/417 652/1/418 661/1/419
f 244/1/420 284/1/421 237/1/422 236/1/423
f 262/1/424 274/1/425 342/1/426 339/1/427
f 536/1/428 558/1/409 550/1/408 544/1/429
f 276/1/388 316/1/390 281/1/380 277/1/430
f 534/1/391 535/1/393 529/1/431 527/1/432
f 522/1/433 527/1/432 529/1/431 528/1/434
f 522/1/433 523/1/435 488/1/436 517/1/411
f 545/1/364 564/1/370 540/1/392 541/1/368
f 479/1/437 521/1/438 507/1/439 501/1/440
f 602/1/441 601/1/442 570/1/443 600/1/444
f 116/1/445 745/1/47 117/1/414 108/1/415
f 483/1/217 484/1/236 462/1/351 477/1/346
f 390/1/446 489/1/447 488/1/436 487/1/448
f 463/1/350 476/1/361 388/1/449 381/1/84
f 157/1/80 163/1/79 145/1/450 152/1/451
f 360/1/452 388/1/449 387/1/453 361/1/99
f 171/1/144 156/1/454 155/1/386 170/1/145
f 381/1/84 388/1/449 360/1/452 365/1/85
f 732/1/123 763/1/122 740/1/455 735/1/186
f 372/1/456 393/1/457 392/1/37 391/1/458
f 439/1/459 458/1/460 451/1/461 445/1/462
f 451/1/461 452/1/228 411/1/463 445/1/462
f 217/1/464 218/1/465 210/1/466 213/1/467
f 616/1/354 614/1/468 613/1/172 615/1/171
f 17/1/21 18/1/469 10/1/470 16/1/471
f 622/1/472 623/1/473 618/1/474 621/1/475
f 607/1/348 619/1/170 593/1/476 585/1/477
f 578/1/478 579/1/198 499/1/197 571/1/479
f 550/1/408 571/1/479 499/1/197 544/1/429
f 367/1/367 374/1/86 365/1/85 359/1/480
f 227/1/481 235/1/482 228/1/483
f 227/1/481 234/1/484 235/1/482
f 536/1/428 544/1/429 492/1/485 537/1/486
f 492/1/485 544/1/429 499/1/197 491/1/200
f 391/1/458 373/1/357 367/1/367 366/1/487
f 268/1/488 366/1/487 367/1/367 359/1/480
f 234/1/484 242/1/489 235/1/482
f 598/1/490 593/1/476 619/1/170 612/1/169
f 235/1/482 242/1/489 243/1/491
f 500/1/492 537/1/486 492/1/485 493/1/493
f 479/1/437 501/1/440 472/1/494 473/1/495
f 268/1/488 273/1/496 269/1/497 260/1/403
f 385/1/498 402/1/499 397/1/500 393/1/457
f 259/1/402 366/1/487 268/1/488 260/1/403
f 392/1/37 441/1/36 373/1/357 391/1/458
f 273/1/496 268/1/488 359/1/480 358/1/501
f 86/1/502 87/1/503 81/1/504 80/1/505
f 78/1/506 103/1/280 72/1/279 73/1/507
f 252/1/405 379/1/508 372/1/456 259/1/402
f 565/1/369 572/1/509 563/1/406 564/1/370
f 273/1/496 358/1/501 354/1/102 349/1/510
f 360/1/452 361/1/99 354/1/102 358/1/501
f 273/1/496 349/1/510 274/1/425 269/1/497
f 472/1/494 501/1/440 500/1/492 493/1/493
f 325/1/292 331/1/291 334/1/511 333/1/512
f 635/1/513 643/1/116 642/1/115 641/1/93
f 253/1/404 249/1/234 246/1/233 252/1/405
f 257/1/514 250/1/515 249/1/234 253/1/404
f 349/1/510 354/1/102 353/1/101 348/1/516
f 530/1/224 577/1/517 524/1/301 514/1/237
f 263/1/518 339/1/427 334/1/511 331/1/291
f 349/1/510 348/1/516 342/1/426 274/1/425
f 585/1/477 586/1/519 485/1/199 579/1/198
f 102/1/520 104/1/288 97/1/281 103/1/280
f 364/1/521 430/1/522 420/1/523 418/1/524
f 241/1/127 249/1/234 250/1/515 248/1/525
f 353/1/101 378/1/526 347/1/527 348/1/516
f 342/1/426 348/1/516 347/1/527 341/1/528
f 390/1/446 487/1/448 383/1/529 384/1/100
f 726/1/328 765/1/124 732/1/123 727/1/188
f 257/1/514 262/1/424 255/1/530 250/1/515
f 325/1/292 324/1/531 317/1/389 322/1/293
f 375/1/532 419/1/533 414/1/534 413/1/535
f 420/1/523 419/1/533 375/1/532 418/1/524
f 62/1/536 82/1/537 55/1/538 54/1/539
f 347/1/527 378/1/526 377/1/540 371/1/541
f 502/1/542 503/1/543 377/1/540 495/1/544
f 494/1/545 521/1/438 502/1/542 495/1/544
f 522/1/433 528/1/434 507/1/439 523/1/435
f 494/1/545 523/1/435 507/1/439 521/1/438
f 536/1/428 537/1/486 529/1/431 535/1/393
f 478/1/546 491/1/200 485/1/199 486/1/547
f 478/1/546 493/1/493 492/1/485 491/1/200
f 480/1/548 486/1/547 485/1/199 481/1/549
f 290/1/550 291/1/551 285/1/552 284/1/421
f 472/1/494 493/1/493 478/1/546 471/1/553
f 515/1/554 479/1/437 473/1/495 443/1/555
f 132/1/190 133/1/304 77/1/180 126/1/179
f 52/1/556 60/1/184 59/1/343 51/1/317
f 459/1/225 470/1/557 480/1/548 475/1/558
f 540/1/392 558/1/409 536/1/428 535/1/393
f 529/1/431 537/1/486 500/1/492 528/1/434
f 450/1/559 473/1/495 472/1/494 471/1/553
f 450/1/559 471/1/553 466/1/560 458/1/460
f 466/1/560 470/1/557 451/1/461 458/1/460
f 451/1/461 470/1/557 459/1/225 452/1/228
f 459/1/225 475/1/558 467/1/561 460/1/226
f 467/1/561 475/1/558 474/1/562 468/1/563
f 502/1/542 521/1/438 479/1/437 515/1/554
f 570/1/443 571/1/479 550/1/408 569/1/407
f 580/1/564 569/1/407 563/1/406 572/1/509
f 299/1/565 301/1/566 292/1/567 291/1/551
f 502/1/542 515/1/554 437/1/568 503/1/543
f 302/1/244 309/1/569 303/1/245
f 302/1/244 308/1/570 309/1/569
f 424/1/571 444/1/572 439/1/459 431/1/573
f 437/1/568 515/1/554 443/1/555 438/1/574
f 304/1/383 275/1/575 277/1/430 281/1/380
f 88/1/576 89/1/577 81/1/504 87/1/503
f 308/1/570 314/1/578 309/1/569
f 34/1/104 67/1/103 65/1/182 61/1/185
f 309/1/569 314/1/578 315/1/579
f 546/1/153 592/1/152 538/1/219 542/1/218
f 377/1/540 503/1/543 370/1/580 371/1/541
f 420/1/523 438/1/574 424/1/571 419/1/533
f 437/1/568 438/1/574 420/1/523 430/1/522
f 453/1/227 454/1/581 411/1/463 452/1/228
f 597/1/151 766/1/210 591/1/209 592/1/152
f 319/1/582 313/1/583 312/1/584 318/1/585
f 375/1/532 413/1/535 369/1/586 368/1/283
f 340/1/587 371/1/541 370/1/580 363/1/588
f 347/1/527 371/1/541 340/1/587 341/1/528
f 300/1/589 320/1/590 296/1/307 295/1/306
f 439/1/459 445/1/462 417/1/591 431/1/573
f 321/1/592 328/1/593 329/1/594
f 321/1/592 329/1/594 330/1/595
f 540/1/392 564/1/370 563/1/406 558/1/409
f 332/1/596 363/1/588 364/1/521 356/1/597
f 334/1/511 341/1/528 340/1/587 333/1/512
f 342/1/426 341/1/528 334/1/511 339/1/427
f 750/1/598 116/1/445 107/1/252 115/1/599
f 172/1/600 179/1/601 164/1/602 165/1/603
f 329/1/594 337/1/604 330/1/595
f 329/1/594 338/1/605 337/1/604
f 204/1/606 231/1/607 196/1/608 195/1/609
f 325/1/292 333/1/512 332/1/596 324/1/531
f 196/1/608 197/1/610 188/1/611 195/1/609
f 262/1/424 339/1/427 263/1/518 255/1/530
f 693/1/612 714/1/613 713/1/614 706/1/615
f 422/1/204 423/1/277 428/1/54 427/1/55
f 338/1/605 345/1/616 337/1/604
f 401/1/13 403/1/320 400/1/323 396/1/14
f 207/1/215 279/1/617 199/1/618 201/1/619
f 263/1/518 264/1/272 256/1/271 255/1/530
f 161/1/620 173/1/621 167/1/622 162/1/623
f 401/1/13 407/1/45 406/1/624 403/1/320
f 369/1/586 376/1/44 355/1/212 362/1/625
f 319/1/582 344/1/626 310/1/627 313/1/583
f 510/1/371 531/1/628 516/1/410 508/1/413
f 469/1/97 542/1/218 483/1/217 477/1/346
f 285/1/552 288/1/629 266/1/630 280/1/631
f 407/1/45 413/1/535 414/1/534 406/1/624
f 364/1/521 418/1/524 357/1/282 356/1/597
f 357/1/282 418/1/524 375/1/532 368/1/283
f 764/1/119 604/1/121 596/1/154 552/1/120
f 740/1/455 760/1/26 748/1/25 744/1/68
f 261/1/273 265/1/196 218/1/465 254/1/274
f 260/1/403 269/1/497 257/1/514 253/1/404
f 652/1/418 667/1/417 659/1/632 653/1/633
f 247/1/634 217/1/464 225/1/635 240/1/128
f 398/1/373 409/1/372 394/1/636 395/1/637
f 464/1/95 553/1/118 552/1/120 547/1/96
f 408/1/260 426/1/259 397/1/500 402/1/499
f 369/1/586 413/1/535 407/1/45 376/1/44
f 693/1/612 706/1/615 700/1/638 694/1/639
f 317/1/389 324/1/531 323/1/640 318/1/585
f 124/1/296 741/1/641 713/1/614 736/1/642
f 245/1/643 246/1/233 239/1/126 238/1/644
f 248/1/525 247/1/634 240/1/128 241/1/127
f 90/1/229 97/1/281 98/1/64 91/1/63
f 369/1/586 362/1/625 351/1/284 368/1/283
f 628/1/645 636/1/646 633/1/309 626/1/312
f 157/1/80 219/1/647 213/1/467 169/1/81
f 156/1/454 219/1/647 157/1/80 152/1/451
f 86/1/502 145/1/450 95/1/648 87/1/503
f 219/1/647 156/1/454 171/1/144 225/1/635
f 34/1/104 35/1/74 28/1/649 33/1/105
f 358/1/501 359/1/480 365/1/85 360/1/452
f 271/1/193 278/1/650 276/1/388 277/1/430
f 261/1/273 278/1/650 271/1/193 265/1/196
f 385/1/498 393/1/457 372/1/456 379/1/508
f 580/1/564 600/1/444 570/1/443 569/1/407
f 361/1/99 387/1/453 390/1/446 384/1/100
f 345/1/616 389/1/15 337/1/604
f 218/1/465 265/1/196 211/1/195 210/1/466
f 278/1/650 261/1/273 264/1/272 270/1/290
f 184/1/651 238/1/644 178/1/143 179/1/601
f 184/1/651 386/1/652 245/1/643 238/1/644
f 455/1/347 477/1/346 462/1/351 380/1/83
f 634/1/92 654/1/91 644/1/653 636/1/646
f 389/1/15 396/1/14 337/1/604
f 382/1/12 389/1/15 345/1/616 346/1/213
f 184/1/651 395/1/637 394/1/636 386/1/652
f 394/1/636 402/1/499 385/1/498 386/1/652
f 432/1/654 449/1/362 440/1/35 433/1/38
f 432/1/654 433/1/38 397/1/500 426/1/259
f 448/1/60 449/1/362 432/1/654 442/1/61
f 396/1/14 400/1/323 337/1/604
f 376/1/44 382/1/12 346/1/213 355/1/212
f 87/1/503 95/1/648 96/1/655 88/1/576
f 400/1/323 404/1/322 337/1/604
f 336/1/214 338/1/605 329/1/594 328/1/593
f 337/1/604 404/1/322 405/1/656
f 145/1/450 163/1/79 137/1/222 95/1/648
f 606/1/349 607/1/348 578/1/478 601/1/442
f 202/1/657 216/1/658 209/1/659 203/1/660
f 394/1/636 409/1/372 408/1/260 402/1/499
f 405/1/656 404/1/322 411/1/463
f 404/1/322 412/1/321 411/1/463
f 93/1/661 94/1/662 85/1/663 89/1/577
f 351/1/284 362/1/625 343/1/664 344/1/626
f 503/1/543 437/1/568 430/1/522 370/1/580
f 434/1/39 442/1/61 425/1/258 427/1/55
f 425/1/258 442/1/61 432/1/654 426/1/259
f 327/1/665 328/1/593 321/1/592 326/1/666
f 327/1/665 350/1/211 336/1/214 328/1/593
f 343/1/664 350/1/211 327/1/665 335/1/667
f 319/1/582 352/1/285 351/1/284 344/1/626
f 323/1/640 352/1/285 319/1/582 318/1/585
f 422/1/204 427/1/55 425/1/258 421/1/205
f 117/1/414 745/1/47 708/1/46 741/1/641
f 310/1/627 344/1/626 343/1/664 335/1/667
f 185/1/668 208/1/669 193/1/670 186/1/671
f 415/1/23 421/1/205 408/1/260 409/1/372
f 482/1/366 497/1/365 496/1/412 489/1/447
f 30/1/77 423/1/277 24/1/672 26/1/94
f 24/1/672 423/1/277 422/1/204 416/1/22
f 748/1/25 755/1/28 752/1/673 749/1/674
f 85/1/663 94/1/662 78/1/506 79/1/675
f 403/1/320 406/1/624 417/1/591 412/1/321
f 756/1/30 753/1/89 752/1/673 755/1/28
f 24/1/672 416/1/22 17/1/21 16/1/471
f 135/1/676 128/1/677 127/1/678 134/1/679
f 37/1/9 3/1/3 436/1/7
f 317/1/389 318/1/585 312/1/584 316/1/390
f 255/1/530 256/1/271 248/1/525 250/1/515
f 232/1/394 224/1/397 196/1/608 231/1/607
f 199/1/618 283/1/680 206/1/681 200/1/682
f 172/1/600 395/1/637 184/1/651 179/1/601
f 140/1/315 141/1/56 134/1/679 136/1/683
f 305/1/684 313/1/583 310/1/627 306/1/685
f 312/1/584 313/1/583 305/1/684 311/1/381
f 57/1/299 76/1/327 75/1/316 69/1/300
f 164/1/602 179/1/601 178/1/143 170/1/145
f 17/1/21 410/1/24 25/1/686 18/1/469
f 728/1/687 733/1/140 716/1/139 722/1/688
f 305/1/684 306/1/685 299/1/565 298/1/689
f 299/1/565 306/1/685 307/1/690 301/1/566
f 300/1/589 326/1/666 321/1/592 320/1/590
f 307/1/690 326/1/666 300/1/589 301/1/566
f 631/1/278 640/1/256 639/1/108 632/1/691
f 7/1/692 13/1/693 12/1/163 11/1/694
f 164/1/602 170/1/145 155/1/386 158/1/385
f 25/1/686 399/1/695 45/1/696 42/1/160
f 595/1/242 767/1/208 690/1/201 683/1/203
f 664/1/254 671/1/255 657/1/267 658/1/250
f 296/1/307 320/1/590 314/1/578 308/1/570
f 453/1/227 460/1/226 461/1/697
f 453/1/227 461/1/697 454/1/581
f 155/1/386 156/1/454 152/1/451 151/1/387
f 397/1/500 433/1/38 392/1/37 393/1/457
f 482/1/366 489/1/447 390/1/446 387/1/453
f 53/1/698 165/1/603 164/1/602 158/1/385
f 466/1/560 486/1/547 480/1/548 470/1/557
f 644/1/653 651/1/699 633/1/309 636/1/646
f 174/1/700 175/1/701 167/1/622 173/1/621
f 460/1/226 467/1/561 461/1/697
f 314/1/578 320/1/590 321/1/592 315/1/579
f 461/1/697 467/1/561 468/1/563
f 53/1/698 158/1/385 74/1/384 68/1/702
f 532/1/157 541/1/368 534/1/391 531/1/628
f 729/1/134 695/1/703 688/1/704 723/1/141
f 448/1/60 567/1/42 566/1/43 560/1/107
f 169/1/81 213/1/467 210/1/466 205/1/705
f 292/1/567 288/1/629 285/1/552 291/1/551
f 282/1/706 283/1/680 199/1/618 279/1/617
f 297/1/382 298/1/689 290/1/550 289/1/707
f 297/1/382 311/1/381 305/1/684 298/1/689
f 286/1/305 294/1/247 293/1/246 287/1/708
f 292/1/567 295/1/306 286/1/305 288/1/629
f 568/1/308 575/1/276 576/1/275 561/1/298
f 211/1/195 212/1/216 205/1/705 210/1/466
f 74/1/384 151/1/387 86/1/502 80/1/505
f 152/1/451 145/1/450 86/1/502 151/1/387
f 270/1/290 322/1/293 276/1/388 278/1/650
f 114/1/709 746/1/710 751/1/711 115/1/599
f 28/1/649 35/1/74 32/1/73 27/1/62
f 343/1/664 362/1/625 355/1/212 350/1/211
f 237/1/422 284/1/421 285/1/552 280/1/631
f 476/1/361 482/1/366 387/1/453 388/1/449
f 271/1/193 277/1/430 275/1/575 272/1/194
f 275/1/575 279/1/617 207/1/215 272/1/194
f 212/1/216 207/1/215 201/1/619 198/1/340
f 205/1/705 212/1/216 198/1/340 176/1/342
f 496/1/412 517/1/411 488/1/436 489/1/447
f 232/1/394 280/1/631 266/1/630 267/1/395
f 516/1/410 531/1/628 534/1/391 527/1/432
f 244/1/420 289/1/707 290/1/550 284/1/421
f 570/1/443 601/1/442 578/1/478 571/1/479
f 206/1/681 208/1/669 185/1/668 200/1/682
f 538/1/219 592/1/152 591/1/209 584/1/223
f 281/1/380 316/1/390 312/1/584 311/1/381
f 105/1/289 106/1/251 99/1/65 98/1/64
f 602/1/441 608/1/353 606/1/349 601/1/442
f 383/1/529 495/1/544 377/1/540 378/1/526
f 578/1/478 607/1/348 585/1/477 579/1/198
f 282/1/706 289/1/707 244/1/420 283/1/680
f 282/1/706 304/1/383 297/1/382 289/1/707
f 254/1/274 218/1/465 217/1/464 247/1/634
f 177/1/313 191/1/341 183/1/712 148/1/314
f 233/1/125 240/1/128 225/1/635 171/1/144
f 198/1/340 201/1/619 192/1/713 191/1/341
f 96/1/655 95/1/648 137/1/222 136/1/683
f 275/1/575 304/1/383 282/1/706 279/1/617
f 183/1/712 191/1/341 192/1/713 187/1/714
f 583/1/232 589/1/243 575/1/276 577/1/517
f 96/1/655 136/1/683 134/1/679 127/1/678
f 84/1/192 83/1/191 76/1/327 59/1/343
f 148/1/314 166/1/57 141/1/56 140/1/315
f 740/1/455 744/1/68 730/1/67 735/1/186
f 357/1/282 352/1/285 323/1/640 356/1/597
f 192/1/713 201/1/619 199/1/618 200/1/682
f 372/1/456 391/1/458 366/1/487 259/1/402
f 478/1/546 486/1/547 466/1/560 471/1/553
f 25/1/686 410/1/24 398/1/373 399/1/695
f 143/1/59 160/1/58 154/1/715 149/1/716
f 226/1/377 230/1/376 242/1/489 234/1/484
f 450/1/559 458/1/460 439/1/459 444/1/572
f 283/1/680 244/1/420 236/1/423 206/1/681
f 121/1/717 88/1/576 96/1/655 127/1/678
f 183/1/712 187/1/714 181/1/718 180/1/719
f 245/1/643 386/1/652 385/1/498 379/1/508
f 192/1/713 200/1/682 185/1/668 187/1/714
f 181/1/718 187/1/714 185/1/668 186/1/671
f 206/1/681 236/1/423 204/1/606 208/1/669
f 307/1/690 335/1/667 327/1/665 326/1/666
f 488/1/436 523/1/435 494/1/545 487/1/448
f 370/1/580 430/1/522 364/1/521 363/1/588
f 166/1/57 180/1/719 161/1/620 160/1/58
f 181/1/718 173/1/621 161/1/620 180/1/719
f 208/1/669 204/1/606 195/1/609 193/1/670
f 700/1/638 707/1/49 705/1/720 701/1/721
f 172/1/600 399/1/695 398/1/373 395/1/637
f 186/1/671 193/1/670 190/1/722 174/1/700
f 726/1/328 766/1/210 597/1/151 765/1/124
f 81/1/504 82/1/537 62/1/536 80/1/505
f 74/1/384 80/1/505 62/1/536 68/1/702
f 632/1/691 637/1/723 629/1/724 625/1/725
f 161/1/620 162/1/623 154/1/715 160/1/58
f 340/1/587 363/1/588 332/1/596 333/1/512
f 678/1/266 721/1/265 720/1/287 714/1/613
f 53/1/698 68/1/702 47/1/378 46/1/379
f 47/1/378 68/1/702 62/1/536 54/1/539
f 143/1/59 149/1/716 142/1/334 135/1/676
f 263/1/518 331/1/291 270/1/290 264/1/272
f 494/1/545 495/1/544 383/1/529 487/1/448
f 93/1/661 111/1/726 102/1/520 94/1/662
f 120/1/727 122/1/398 112/1/401 111/1/726
f 135/1/676 142/1/334 129/1/333 128/1/677
f 660/1/728 661/1/419 644/1/653 654/1/91
f 193/1/670 195/1/609 188/1/611 190/1/722
f 332/1/596 356/1/597 323/1/640 324/1/531
f 182/1/729 190/1/722 188/1/611 189/1/730
f 248/1/525 256/1/271 254/1/274 247/1/634
f 25/1/686 42/1/160 19/1/159 18/1/469
f 196/1/608 224/1/397 202/1/657 197/1/610
f 739/1/295 130/1/294 129/1/333 150/1/335
f 4/1/206 16/1/471 10/1/470 8/1/207
f 642/1/115 694/1/639 648/1/90 641/1/93
f 127/1/678 128/1/677 120/1/727 121/1/717
f 128/1/677 129/1/333 122/1/398 120/1/727
f 202/1/657 224/1/397 222/1/396 216/1/658
f 639/1/108 640/1/256 656/1/249 655/1/109
f 188/1/611 197/1/610 194/1/731 189/1/730
f 202/1/657 203/1/660 194/1/731 197/1/610
f 519/1/318 526/1/352 509/1/329 511/1/319
f 149/1/716 743/1/732 150/1/335 142/1/334
f 4/1/206 26/1/94 24/1/672 16/1/471
f 561/1/298 582/1/332 555/1/263
f 88/1/576 121/1/717 93/1/661 89/1/577
f 93/1/661 121/1/717 120/1/727 111/1/726
f 222/1/396 267/1/395 229/1/375 223/1/374
f 698/1/150 699/1/168 159/1/132 692/1/131
f 739/1/295 150/1/335 743/1/732 710/1/733
f 554/1/264 588/1/734 549/1/344
f 338/1/605 336/1/214 346/1/213 345/1/616
f 414/1/534 431/1/573 417/1/591 406/1/624
f 81/1/504 89/1/577 85/1/663 82/1/537
f 258/1/735 251/1/736 230/1/376 229/1/375
f 136/1/683 137/1/222 144/1/221 140/1/315
f 112/1/401 104/1/288 102/1/520 111/1/726
f 75/1/316 119/1/189 70/1/178 69/1/300
f 85/1/663 79/1/675 55/1/538 82/1/537
f 251/1/736 243/1/491 242/1/489 230/1/376
f 169/1/81 205/1/705 176/1/342 168/1/82
f 549/1/344 588/1/734 603/1/737
f 549/1/344 603/1/737 556/1/358
f 55/1/538 56/1/87 49/1/52 54/1/539
f 47/1/378 54/1/539 49/1/52 48/1/51
f 599/1/738 598/1/490 605/1/739
f 222/1/396 223/1/374 214/1/740 216/1/658
f 209/1/659 216/1/658 214/1/740 215/1/741
f 464/1/95 465/1/98 446/1/355 457/1/138
f 603/1/737 588/1/734 609/1/742
f 603/1/737 609/1/742 610/1/743
f 603/1/737 610/1/743 556/1/358
f 565/1/369 610/1/743 572/1/509
f 572/1/509 610/1/743 580/1/564
f 580/1/564 610/1/743 600/1/444
f 221/1/744 228/1/483 610/1/745
f 215/1/741 221/1/744 610/1/745
f 556/1/358 610/1/743 557/1/359
f 209/1/659 215/1/741 610/1/745
f 203/1/660 209/1/659 610/1/745
f 194/1/731 203/1/660 610/1/745
f 557/1/359 610/1/743 562/1/363
f 189/1/730 194/1/731 610/1/745
f 182/1/729 189/1/730 610/1/745
f 175/1/701 182/1/729 610/1/745
f 167/1/622 175/1/701 610/1/745
f 162/1/623 167/1/622 610/1/745
f 602/1/441 610/1/743 608/1/353
f 600/1/444 610/1/743 602/1/441
f 562/1/363 610/1/743 565/1/369
f 710/1/733 743/1/732 711/1/746 703/1/747
f 605/1/739 598/1/490 612/1/169
f 605/1/739 612/1/169 613/1/172
f 605/1/739 613/1/172 614/1/468
f 223/1/374 226/1/377 220/1/748 214/1/740
f 220/1/748 221/1/744 215/1/741 214/1/740
f 39/1/75 61/1/185 60/1/184 52/1/556
f 610/1/743 614/1/468 616/1/354
f 608/1/353 610/1/743 616/1/354
f 598/1/490 599/1/738 594/1/749 593/1/476
f 5/1/8 26/1/94 4/1/206 1/1/1
f 226/1/377 234/1/484 227/1/481 220/1/748
f 552/1/120 596/1/154 546/1/153 547/1/96
f 729/1/134 738/1/137 702/1/750 695/1/703
f 695/1/703 702/1/750 696/1/751 689/1/752
f 724/1/187 725/1/166 698/1/150 718/1/149
f 204/1/606 236/1/423 237/1/422 231/1/607
f 688/1/704 695/1/703 689/1/752 682/1/753
f 733/1/140 737/1/135 729/1/134 723/1/141
f 742/1/136 746/1/710 123/1/399 130/1/294
f 737/1/135 751/1/711 746/1/710 742/1/136
f 674/1/754 688/1/704 682/1/753 675/1/755
f 723/1/141 688/1/704 674/1/754 717/1/142
f 650/1/110 658/1/250 657/1/267 649/1/113
f 296/1/307 308/1/570 302/1/244 294/1/247
f 227/1/481 228/1/483 221/1/744 220/1/748
f 123/1/399 746/1/710 114/1/709 113/1/400
f 587/1/331 611/1/756 588/1/734 582/1/332
f 174/1/700 190/1/722 182/1/729 175/1/701
f 715/1/48 750/1/598 728/1/687 722/1/688
f 728/1/687 750/1/598 115/1/599 751/1/711
f 666/1/416 717/1/142 674/1/754 667/1/417
f 716/1/139 717/1/142 666/1/416 709/1/757
f 15/1/32 14/1/31 9/1/20 11/1/694
f 237/1/422 280/1/631 232/1/394 231/1/607
f 705/1/720 722/1/688 716/1/139 709/1/757
f 715/1/48 722/1/688 705/1/720 707/1/49
f 684/1/177 719/1/202 712/1/173 691/1/174
f 116/1/445 750/1/598 715/1/48 745/1/47
f 114/1/709 115/1/599 107/1/252 106/1/251
f 299/1/565 291/1/551 290/1/550 298/1/689
f 443/1/555 473/1/495 450/1/559 444/1/572
f 114/1/709 106/1/251 105/1/289 113/1/400
f 107/1/252 116/1/445 108/1/415 100/1/253
f 469/1/97 547/1/96 546/1/153 542/1/218
f 652/1/418 653/1/633 646/1/758 651/1/699
f 310/1/627 335/1/667 307/1/690 306/1/685
f 660/1/728 709/1/757 666/1/416 661/1/419
f 176/1/342 177/1/313 144/1/221 168/1/82
f 100/1/253 101/1/241 92/1/66 99/1/65
f 663/1/230 147/1/18 664/1/254
f 108/1/415 109/1/268 101/1/241 100/1/253
f 610/1/743 665/1/759 614/1/468
f 644/1/653 661/1/419 652/1/418 651/1/699
f 274/1/425 262/1/424 257/1/514 269/1/497
f 70/1/178 71/1/181 64/1/165 69/1/300
f 45/1/696 165/1/603 53/1/698 46/1/379
f 595/1/242 647/1/248 590/1/257 589/1/243
f 448/1/60 560/1/107 456/1/117 449/1/362
f 510/1/371 533/1/158 532/1/157 531/1/628
f 665/1/760 672/1/761 673/1/762
f 705/1/720 709/1/757 660/1/728 701/1/721
f 633/1/309 651/1/699 646/1/758 638/1/310
f 109/1/268 110/1/270 83/1/191 101/1/241
f 669/1/231 676/1/176 670/1/175
f 45/1/696 399/1/695 172/1/600 165/1/603
f 113/1/400 105/1/289 104/1/288 112/1/401
f 758/1/27 761/1/72 566/1/43 759/1/29
f 673/1/762 672/1/761 679/1/763
f 672/1/761 680/1/764 679/1/763
f 672/1/761 681/1/765 680/1/764
f 637/1/723 645/1/111 643/1/116 635/1/513
f 739/1/295 710/1/733 702/1/750 738/1/137
f 681/1/765 687/1/766 680/1/764
f 266/1/630 288/1/629 286/1/305 287/1/708
f 102/1/520 103/1/280 78/1/506 94/1/662
f 229/1/375 267/1/395 266/1/630 258/1/735
f 84/1/192 66/1/183 72/1/279 90/1/229
f 480/1/548 481/1/549 474/1/562 475/1/558
f 43/1/112 52/1/556 51/1/317 50/1/129
f 516/1/410 527/1/432 522/1/433 517/1/411
f 526/1/352 543/1/345 539/1/155 533/1/158
f 774/1/337 787/1/767 784/1/768 783/1/769
f 39/1/75 52/1/556 43/1/112 38/1/76
f 66/1/183 84/1/192 59/1/343 60/1/184
f 159/1/132 699/1/168 3/1/3
f 708/1/46 707/1/49 700/1/638 706/1/615
f 524/1/301 577/1/517 575/1/276 568/1/308
f 618/1/474 620/1/770 617/1/771 611/1/756
f 699/1/168 704/1/167 3/1/3
f 34/1/104 61/1/185 39/1/75 35/1/74
f 648/1/90 701/1/721 660/1/728 654/1/91
f 700/1/638 701/1/721 648/1/90 694/1/639
f 292/1/567 301/1/566 300/1/589 295/1/306
f 702/1/750 710/1/733 703/1/747 696/1/751
f 65/1/182 73/1/507 72/1/279 66/1/183
f 593/1/476 594/1/749 586/1/519 585/1/477
f 530/1/224 584/1/223 583/1/232 577/1/517
f 713/1/614 741/1/641 708/1/46 706/1/615
f 693/1/612 694/1/639 642/1/115 686/1/114
f 122/1/398 129/1/333 130/1/294 123/1/399
f 424/1/571 431/1/573 414/1/534 419/1/533
f 132/1/190 153/1/130 139/1/133 133/1/304
f 117/1/414 741/1/641 124/1/296 118/1/269
f 443/1/555 444/1/572 424/1/571 438/1/574
f 180/1/719 166/1/57 148/1/314 183/1/712
f 671/1/255 138/1/17 721/1/265
f 634/1/92 636/1/646 628/1/645 627/1/772
f 245/1/643 379/1/508 252/1/405 246/1/233
f 740/1/455 763/1/122 762/1/71 760/1/26
f 631/1/278 632/1/691 625/1/725 581/1/297
f 63/1/773 79/1/675 78/1/506 73/1/507
f 63/1/773 73/1/507 65/1/182 67/1/103
f 635/1/513 641/1/93 634/1/92 627/1/772
f 141/1/56 143/1/59 135/1/676 134/1/679
f 138/1/17 125/1/16 119/1/189 131/1/286
f 622/1/472 628/1/645 626/1/312 623/1/473
f 181/1/718 186/1/671 174/1/700 173/1/621
f 178/1/143 238/1/644 239/1/126 233/1/125
f 704/1/167 731/1/70 3/1/3
f 446/1/355 465/1/98 455/1/347 447/1/356
f 63/1/773 67/1/103 40/1/88 56/1/87
f 674/1/754 675/1/755 659/1/632 667/1/417
f 731/1/70 734/1/69 3/1/3
f 20/1/34 23/1/33 28/1/649 27/1/62
f 131/1/286 736/1/642 720/1/287
f 131/1/286 124/1/296 736/1/642
f 720/1/287 736/1/642 713/1/614 714/1/613
f 629/1/724 637/1/723 635/1/513 627/1/772
f 587/1/331 621/1/475 618/1/474 611/1/756
f 581/1/297 625/1/725 621/1/475 587/1/331
f 22/1/774 33/1/105 28/1/649 23/1/33
f 22/1/774 44/1/53 40/1/88 33/1/105
f 678/1/266 714/1/613 693/1/612 686/1/114
f 625/1/725 629/1/724 622/1/472 621/1/475
f 726/1/328 727/1/188 712/1/173 719/1/202
f 623/1/473 624/1/775 620/1/770 618/1/474
f 149/1/716 154/1/715 743/1/732
f 712/1/173 727/1/188 724/1/187 718/1/149
f 728/1/687 751/1/711 737/1/135 733/1/140
f 154/1/715 747/1/776 743/1/732
f 154/1/715 162/1/623 747/1/776
f 162/1/623 610/1/745 747/1/776
f 711/1/746 743/1/732 747/1/776
f 711/1/746 747/1/776 610/1/745
f 622/1/472 629/1/724 627/1/772 628/1/645
f 22/1/774 23/1/33 15/1/32 21/1/164
f 734/1/69 749/1/674 3/1/3
f 626/1/312 630/1/311 624/1/775 623/1/473
f 639/1/108 645/1/111 637/1/723 632/1/691
f 749/1/674 752/1/673 3/1/3
f 748/1/25 749/1/674 734/1/69 744/1/68
f 3/1/3 752/1/673 753/1/89
f 3/1/3 753/1/89 754/1/4
f 10/1/470 18/1/469 19/1/159 13/1/693
f 3/1/3 754/1/4 436/1/7
f 7/1/692 11/1/694 9/1/20 6/1/11
f 2/1/2 8/1/207 7/1/692 6/1/11
f 10/1/470 13/1/693 7/1/692 8/1/207
f 219/1/647 225/1/635 217/1/464 213/1/467
f 12/1/163 21/1/164 15/1/32 11/1/694
f 19/1/159 36/1/162 12/1/163 13/1/693
f 29/1/50 44/1/53 22/1/774 21/1/164
f 417/1/591 445/1/462 411/1/463 412/1/321
f 41/1/161 48/1/51 29/1/50 36/1/162
f 353/1/101 384/1/100 383/1/529 378/1/526
f 45/1/696 46/1/379 41/1/161 42/1/160
f 55/1/538 79/1/675 63/1/773 56/1/87
f 510/1/371 508/1/413 504/1/330 509/1/329
f 228/1/483 768/1/777 610/1/745
f 768/1/778 769/1/779 672/1/780
f 769/1/779 770/1/781 672/1/780
f 672/1/780 770/1/781 771/1/782
f 672/1/780 771/1/782 772/1/338
f 771/1/782 773/1/339 772/1/338
f 782/1/783 785/1/784 687/1/766 681/1/765
f 775/1/785 774/1/337 776/1/786
f 776/1/786 774/1/337 777/1/787
f 777/1/787 774/1/337 778/1/788
f 778/1/788 774/1/337 779/1/789
f 779/1/789 774/1/337 780/1/336
f 772/1/338 774/1/337 781/1/790
f 611/1/756 617/1/771 609/1/742 588/1/734
f 781/1/790 782/1/783 681/1/765
f 781/1/790 774/1/337 783/1/769
f 781/1/790 783/1/769 782/1/783
f 784/1/768 786/1/791 782/1/783 783/1/769
f 582/1/332 588/1/734 554/1/264 555/1/263
f 774/1/337 775/1/785 787/1/767
f 785/1/784 782/1/783 788/1/792
f 786/1/791 789/1/793 782/1/783
f 788/1/792 782/1/783 790/1/794
f 790/1/794 782/1/783 791/1/795
f 792/1/796 782/1/783 789/1/793
f 791/1/795 782/1/783 792/1/796
f 507/1/439 528/1/434 500/1/492 501/1/440
