# Blender 4.3.2
# www.blender.org
o hair.076
v 7.006782 0.933895 -0.014863
v 7.008967 0.934583 -0.012842
v 7.007371 0.933647 -0.015243
v 7.007933 0.935001 -0.012202
v 7.005411 0.932163 -0.018046
v 7.006108 0.934036 -0.014646
v 7.006695 0.935251 -0.011819
v 7.007897 0.933342 -0.015709
v 7.009415 0.936233 -0.009053
v 7.005411 0.935366 -0.011643
v 7.005411 0.934109 -0.014535
v 7.005411 0.936766 -0.008284
v 7.007500 0.936625 -0.008483
v 7.009873 0.934055 -0.013652
v 7.008244 0.933059 -0.016144
v 7.010997 0.936928 -0.005481
v 7.010981 0.935616 -0.009962
v 7.004714 0.934036 -0.014646
v 7.004127 0.935251 -0.011819
v 7.003321 0.936625 -0.008483
v 7.005411 0.937644 -0.004527
v 7.008350 0.937446 -0.004773
v 7.010499 0.933567 -0.014400
v 7.008501 0.932738 -0.016636
v 7.012221 0.934886 -0.011034
v 7.004039 0.933895 -0.014863
v 7.002889 0.935001 -0.012202
v 7.001406 0.936233 -0.009053
v 6.999825 0.936928 -0.005481
v 7.002471 0.937446 -0.004773
v 7.009122 0.937856 -0.001262
v 7.014655 0.935279 -0.007990
v 7.013161 0.934156 -0.012092
v 7.003450 0.933647 -0.015243
v 7.001854 0.934583 -0.012842
v 6.999841 0.935616 -0.009962
v 7.001699 0.937856 -0.001262
v 7.013834 0.933279 -0.013389
v 7.016818 0.933233 -0.011179
v 7.015906 0.934376 -0.009392
v 7.013058 0.936167 -0.006620
v 7.002924 0.933342 -0.015709
v 7.005411 0.938137 -0.000971
v 7.010942 0.933003 -0.015264
v 7.018375 0.934082 -0.006701
v 7.014948 0.936264 -0.003404
v 7.012433 0.937201 -0.002090
v 7.002577 0.933059 -0.016144
v 7.000948 0.934055 -0.013652
v 7.005411 0.938432 0.002276
v 7.011239 0.932262 -0.016399
v 7.016864 0.935179 -0.005006
v 7.013832 0.937182 0.001180
v 7.000323 0.933567 -0.014400
v 6.998600 0.934886 -0.011034
v 7.014269 0.932107 -0.015175
v 7.019228 0.934411 -0.001779
v 7.009835 0.938007 0.001989
v 6.997660 0.934156 -0.012092
v 6.996167 0.935279 -0.007990
v 6.997763 0.936167 -0.006620
v 7.019479 0.932691 -0.008919
v 7.021968 0.931638 -0.006546
v 7.020859 0.933158 -0.003811
v 7.016936 0.935878 -0.000098
v 7.010489 0.937881 0.004938
v 6.995873 0.936264 -0.003404
v 6.998388 0.937201 -0.002090
v 7.020172 0.930723 -0.012094
v 7.023719 0.931572 -0.000525
v 7.019270 0.934861 0.003545
v 7.015269 0.936834 0.004433
v 6.996990 0.937182 0.001180
v 7.000987 0.938007 0.001989
v 7.017395 0.931622 -0.013705
v 7.022205 0.932905 0.002000
v 7.025668 0.930423 0.006051
v 7.020876 0.933392 0.006772
v 7.016214 0.935951 0.007293
v 7.000333 0.937881 0.004938
v 7.005411 0.938474 0.005135
v 7.017564 0.929882 -0.016400
v 7.014409 0.930843 -0.017101
v 7.020871 0.931996 0.008787
v 7.010899 0.937220 0.007437
v 7.005411 0.937903 0.007582
v 7.022711 0.929417 -0.010336
v 7.020375 0.928604 -0.015473
v 7.022948 0.927000 -0.014326
v 7.024436 0.930062 -0.003996
v 7.026919 0.928083 -0.001358
v 7.026510 0.929655 0.002344
v 7.010899 0.935870 0.009285
v 7.025123 0.927716 -0.008426
v 7.020011 0.926763 -0.018305
v 7.028780 0.927096 0.005292
v 7.025044 0.929015 0.008609
v 7.016196 0.934554 0.009227
v 7.025392 0.925057 -0.012964
v 7.027711 0.922760 -0.011337
v 7.027479 0.925597 -0.006247
v 7.017253 0.928353 -0.018693
v 7.014189 0.929692 -0.018814
v 7.015901 0.933148 0.010405
v 7.018301 0.932044 0.010153
v 7.024919 0.922691 -0.016768
v 7.022541 0.924887 -0.017661
v 7.029848 0.923041 -0.003683
v 7.029323 0.925701 0.001310
v 7.016471 0.926975 -0.020726
v 7.010880 0.934335 0.010576
v 7.020351 0.930693 0.009934
v 7.021507 0.922960 -0.020617
v 7.019092 0.925097 -0.020808
v 7.031380 0.922765 0.004842
v 7.028287 0.925494 0.008506
v 7.030762 0.921439 0.008583
v 7.008208 0.934736 0.010597
v 7.024215 0.928131 0.010088
v 7.017627 0.923506 -0.023200
v 7.027153 0.924812 0.010446
v 7.028858 0.922627 0.010629
v 7.032619 0.916675 0.008752
v 7.030144 0.920264 0.011053
v 7.005411 0.936485 0.009439
v 7.005411 0.934929 0.010815
v 7.031737 0.914886 0.012102
v 7.033401 0.917430 0.004859
v 7.034585 0.912801 0.004778
v 7.033747 0.911683 0.008818
v 7.032581 0.909630 0.012918
v 6.999923 0.937220 0.007437
v 6.999922 0.935870 0.009285
v 7.002614 0.934736 0.010597
v 7.033654 0.916115 0.000033
v 7.031987 0.919922 -0.001376
v 7.034138 0.907031 0.008673
v 7.032883 0.904718 0.013163
v 6.995552 0.936834 0.004433
v 6.994607 0.935951 0.007293
v 6.999941 0.934335 0.010576
v 7.031852 0.917025 -0.007306
v 7.029913 0.920091 -0.009393
v 7.032849 0.899977 0.013029
v 6.993885 0.935878 -0.000098
v 6.991551 0.934861 0.003545
v 6.994920 0.933148 0.010405
v 7.029197 0.917335 -0.014173
v 7.027139 0.920174 -0.015610
v 7.032849 0.895237 0.012633
v 7.034032 0.898097 0.007895
v 7.034123 0.902557 0.008353
v 6.991593 0.934411 -0.001779
v 6.994625 0.934554 0.009227
v 6.992521 0.932044 0.010153
v 7.025819 0.917781 -0.019413
v 7.023744 0.920525 -0.020154
v 7.032866 0.890497 0.012106
v 7.035060 0.904371 0.004372
v 7.035042 0.908467 0.004611
v 6.989951 0.931996 0.008787
v 6.989945 0.933392 0.006772
v 6.990470 0.930693 0.009934
v 7.021907 0.918469 -0.023441
v 7.019867 0.921101 -0.023470
v 7.033904 0.893646 0.007368
v 7.035244 0.908147 0.001403
v 7.034766 0.912048 0.000855
v 6.985153 0.930423 0.006051
v 6.988616 0.932905 0.002000
v 6.986606 0.928131 0.010088
v 7.017639 0.919441 -0.026021
v 7.034905 0.896817 0.002626
v 7.034928 0.900458 0.004074
v 7.034437 0.909890 -0.003430
v 7.033383 0.913541 -0.005250
v 6.987103 0.931572 -0.000525
v 6.985777 0.929015 0.008609
v 6.982534 0.925494 0.008506
v 6.983669 0.924812 0.010446
v 7.035250 0.901817 0.002086
v 7.035326 0.904655 0.001779
v 7.032592 0.910520 -0.010515
v 7.031034 0.914131 -0.012469
v 6.982041 0.927096 0.005292
v 6.980060 0.921439 0.008583
v 6.981964 0.922627 0.010629
v 7.035033 0.902873 -0.000862
v 7.034817 0.899578 0.000375
v 7.034947 0.906322 -0.002049
v 7.029529 0.911265 -0.017084
v 7.027752 0.914715 -0.018388
v 6.984311 0.929655 0.002344
v 6.980677 0.920264 0.011053
v 7.033756 0.896162 -0.003159
v 7.032818 0.892542 -0.001072
v 7.034353 0.903244 -0.006841
v 7.033742 0.906794 -0.008556
v 7.025633 0.912171 -0.022403
v 7.023808 0.915521 -0.023092
v 6.983902 0.928083 -0.001358
v 6.978202 0.916675 0.008752
v 6.979084 0.914886 0.012102
v 7.030479 0.888772 -0.004380
v 7.032369 0.903386 -0.013766
v 7.031135 0.907366 -0.015509
v 7.021071 0.913522 -0.026382
v 7.019403 0.916653 -0.026384
v 6.978240 0.909630 0.012918
v 6.979442 0.922765 0.004842
v 7.031965 0.892332 -0.007307
v 7.029344 0.888850 -0.010858
v 7.026601 0.883811 -0.008254
v 7.028863 0.904391 -0.019979
v 7.027334 0.908450 -0.021368
v 7.016228 0.915207 -0.028742
v 6.977075 0.911683 0.008818
v 6.976684 0.907031 0.008673
v 6.977938 0.904718 0.013163
v 7.032953 0.896081 -0.009880
v 7.034374 0.899742 -0.005124
v 7.025891 0.885786 -0.013918
v 7.022741 0.880120 -0.011271
v 6.977421 0.917430 0.004859
v 6.976237 0.912801 0.004778
v 6.977972 0.899977 0.013029
v 7.021603 0.883211 -0.016592
v 7.026741 0.889721 -0.017518
v 7.030377 0.892704 -0.014004
v 7.019130 0.877783 -0.013207
v 6.977168 0.916115 0.000033
v 6.975780 0.908467 0.004611
v 6.975577 0.908147 0.001403
v 6.976055 0.912048 0.000855
v 7.033031 0.899695 -0.011961
v 7.030555 0.896459 -0.016396
v 7.016637 0.881341 -0.018551
v 7.015124 0.876468 -0.014444
v 6.975761 0.904371 0.004372
v 6.976384 0.909890 -0.003430
v 6.976698 0.902557 0.008353
v 7.030007 0.900295 -0.018300
v 7.026572 0.897546 -0.022191
v 7.026956 0.893601 -0.020175
v 7.011154 0.880386 -0.019467
v 7.010607 0.875687 -0.015236
v 6.976789 0.898097 0.007895
v 6.977972 0.895237 0.012633
v 7.024291 0.905831 -0.025143
v 7.025627 0.901677 -0.023864
v 7.022270 0.891185 -0.023326
v 7.022141 0.887238 -0.020441
v 7.005411 0.875361 -0.015394
v 6.977955 0.890497 0.012106
v 7.021276 0.899300 -0.027103
v 7.016872 0.885470 -0.022511
v 7.005411 0.880139 -0.019664
v 6.999668 0.880386 -0.019467
v 7.000215 0.875687 -0.015236
v 6.976917 0.893646 0.007368
v 7.022736 0.909847 -0.025975
v 7.021984 0.895167 -0.025472
v 7.005411 0.884444 -0.023664
v 6.995697 0.876468 -0.014444
v 7.011234 0.884631 -0.023466
v 6.975916 0.896817 0.002626
v 7.018956 0.907890 -0.028859
v 7.017573 0.911910 -0.029021
v 7.020236 0.903552 -0.028228
v 7.016683 0.893424 -0.027809
v 6.994184 0.881341 -0.018551
v 6.991691 0.877783 -0.013207
v 7.011225 0.888642 -0.026550
v 7.016893 0.889451 -0.025551
v 7.013629 0.910725 -0.030906
v 7.015534 0.901840 -0.030447
v 6.993949 0.885470 -0.022511
v 6.989219 0.883211 -0.016592
v 6.999587 0.884631 -0.023466
v 6.988080 0.880120 -0.011271
v 7.016225 0.897530 -0.029424
v 6.988681 0.887238 -0.020441
v 6.984931 0.885786 -0.013918
v 6.984080 0.889721 -0.017518
v 6.999597 0.888642 -0.026550
v 7.005411 0.888468 -0.026743
v 6.984221 0.883811 -0.008254
v 7.011114 0.892586 -0.028866
v 7.010889 0.896633 -0.030559
v 6.988552 0.891185 -0.023326
v 6.981477 0.888850 -0.010858
v 7.005411 0.892393 -0.029074
v 6.980342 0.888772 -0.004380
v 7.005411 0.896403 -0.030829
v 7.010544 0.900922 -0.031623
v 7.005411 0.900662 -0.031950
v 7.010073 0.905595 -0.032051
v 7.014625 0.906429 -0.030926
v 6.993928 0.889451 -0.025551
v 6.999932 0.896633 -0.030559
v 6.999707 0.892586 -0.028866
v 7.005411 0.905335 -0.032378
v 7.000749 0.905595 -0.032051
v 7.000277 0.900922 -0.031623
v 6.994138 0.893424 -0.027809
v 6.994596 0.897530 -0.029424
v 6.995287 0.901840 -0.030447
v 7.005411 0.909769 -0.032237
v 7.009553 0.910010 -0.031936
v 7.009064 0.913524 -0.031370
v 7.012681 0.914157 -0.030431
v 6.988838 0.895167 -0.025472
v 6.989545 0.899300 -0.027103
v 7.001268 0.910010 -0.031936
v 7.001758 0.913524 -0.031370
v 7.005411 0.913312 -0.031652
v 7.011734 0.917144 -0.029549
v 7.008583 0.916582 -0.030389
v 7.005411 0.916402 -0.030649
v 7.014840 0.918109 -0.028070
v 6.984249 0.897546 -0.022191
v 6.997192 0.910725 -0.030906
v 6.996197 0.906429 -0.030926
v 7.008089 0.919626 -0.029029
v 7.013329 0.920941 -0.027056
v 7.010738 0.920106 -0.028310
v 7.015684 0.922088 -0.025331
v 6.983865 0.893601 -0.020175
v 6.991865 0.907890 -0.028859
v 6.990585 0.903552 -0.028228
v 7.009707 0.922954 -0.026756
v 7.013620 0.924557 -0.024347
v 7.011751 0.923631 -0.025738
v 7.015227 0.925691 -0.022644
v 6.980444 0.892704 -0.014004
v 6.980267 0.896459 -0.016396
v 6.986531 0.905831 -0.025143
v 6.985195 0.901677 -0.023864
v 7.010160 0.926111 -0.024153
v 7.012707 0.927665 -0.021819
v 7.011528 0.926811 -0.023102
v 7.013619 0.928637 -0.020369
v 6.977868 0.896081 -0.009880
v 6.978856 0.892332 -0.007307
v 6.981958 0.904391 -0.019979
v 6.980814 0.900295 -0.018300
v 7.008643 0.928324 -0.022436
v 7.008652 0.925599 -0.024926
v 7.010286 0.929372 -0.020830
v 7.009540 0.928792 -0.021718
v 7.011199 0.930748 -0.018721
v 6.977066 0.896162 -0.003159
v 6.978004 0.892542 -0.001072
v 6.978452 0.903386 -0.013766
v 7.007580 0.922565 -0.027340
v 7.007053 0.925308 -0.025372
v 7.007246 0.930118 -0.020652
v 7.007754 0.930382 -0.020247
v 7.011332 0.931495 -0.017576
v 6.977790 0.899695 -0.011961
v 7.005411 0.919475 -0.029255
v 7.005411 0.922442 -0.027524
v 7.006680 0.929912 -0.020969
v 7.008157 0.930717 -0.019733
v 6.976469 0.903244 -0.006841
v 6.976448 0.899742 -0.005124
v 7.002732 0.919626 -0.029029
v 7.007629 0.927971 -0.022978
v 7.008471 0.931092 -0.019160
v 7.010856 0.930028 -0.019823
v 6.975788 0.902873 -0.000862
v 6.976004 0.899578 0.000375
v 7.006540 0.927771 -0.023284
v 7.008648 0.931503 -0.018529
v 6.975571 0.901817 0.002086
v 6.975893 0.900458 0.004074
v 7.005411 0.925217 -0.025514
v 7.006055 0.929801 -0.021138
v 7.008721 0.931928 -0.017878
v 6.975495 0.904655 0.001779
v 7.003242 0.922565 -0.027340
v 7.003768 0.925308 -0.025372
v 7.004281 0.927771 -0.023284
v 7.005411 0.927707 -0.023382
v 7.005411 0.929760 -0.021202
v 6.975874 0.906322 -0.002049
v 7.001114 0.922954 -0.026756
v 7.002170 0.925599 -0.024926
v 7.004766 0.929801 -0.021138
v 7.008663 0.932340 -0.017246
v 6.977079 0.906794 -0.008556
v 7.003192 0.927971 -0.022978
v 7.002178 0.928324 -0.022436
v 7.000661 0.926111 -0.024153
v 7.004142 0.929912 -0.020969
v 6.977438 0.913541 -0.005250
v 6.978229 0.910520 -0.010515
v 6.979687 0.907366 -0.015509
v 6.999071 0.923631 -0.025738
v 6.997201 0.924557 -0.024347
v 6.999293 0.926811 -0.023102
v 7.003575 0.930118 -0.020652
v 6.978834 0.919922 -0.001376
v 6.978969 0.917025 -0.007306
v 6.981293 0.911265 -0.017084
v 6.979788 0.914131 -0.012469
v 6.983487 0.908450 -0.021368
v 6.997492 0.920941 -0.027056
v 7.000083 0.920106 -0.028310
v 6.980974 0.923041 -0.003683
v 6.981499 0.925701 0.001310
v 6.981625 0.917335 -0.014173
v 6.980908 0.920091 -0.009393
v 6.985188 0.912171 -0.022403
v 6.988085 0.909847 -0.025975
v 7.002238 0.916582 -0.030389
v 6.999088 0.917144 -0.029549
v 6.983110 0.922760 -0.011337
v 6.989750 0.913522 -0.026382
v 6.993248 0.911910 -0.029021
v 6.998140 0.914157 -0.030431
v 6.994593 0.915207 -0.028742
v 6.995982 0.918109 -0.028070
v 6.987013 0.915521 -0.023092
v 6.991418 0.916653 -0.026384
v 6.988914 0.918469 -0.023441
v 6.993183 0.919441 -0.026021
v 6.995137 0.922088 -0.025331
v 6.983069 0.914715 -0.018388
v 6.985003 0.917781 -0.019413
v 6.987078 0.920525 -0.020154
v 6.989314 0.922960 -0.020617
v 6.990954 0.921101 -0.023470
v 6.993194 0.923506 -0.023200
v 6.995594 0.925691 -0.022644
v 6.998115 0.927665 -0.021819
v 6.983682 0.920174 -0.015610
v 6.985903 0.922691 -0.016768
v 6.991729 0.925097 -0.020808
v 6.994350 0.926975 -0.020726
v 6.997202 0.928637 -0.020369
v 7.000535 0.929372 -0.020830
v 7.001282 0.928792 -0.021718
v 6.985429 0.925057 -0.012964
v 6.987873 0.927000 -0.014326
v 6.988281 0.924887 -0.017661
v 6.990810 0.926763 -0.018305
v 7.003067 0.930382 -0.020247
v 6.985698 0.927716 -0.008426
v 6.983342 0.925597 -0.006247
v 6.990447 0.928604 -0.015473
v 6.993257 0.929882 -0.016400
v 6.993568 0.928353 -0.018693
v 7.002665 0.930717 -0.019733
v 6.990650 0.930723 -0.012094
v 6.996633 0.929692 -0.018814
v 6.999965 0.930028 -0.019823
v 7.002351 0.931092 -0.019160
v 6.986385 0.930062 -0.003996
v 6.988111 0.929417 -0.010336
v 6.996413 0.930843 -0.017101
v 6.999623 0.930748 -0.018721
v 7.002173 0.931503 -0.018529
v 6.988853 0.931638 -0.006546
v 6.989962 0.933158 -0.003811
v 6.996552 0.932107 -0.015175
v 6.993427 0.931622 -0.013705
v 6.999490 0.931495 -0.017576
v 6.999583 0.932262 -0.016399
v 7.002100 0.931928 -0.017878
v 7.002158 0.932340 -0.017246
v 7.002321 0.932738 -0.016636
v 6.992446 0.934082 -0.006701
v 6.993958 0.935179 -0.005006
v 6.994004 0.933233 -0.011179
v 6.996988 0.933279 -0.013389
v 6.999880 0.933003 -0.015264
v 6.994915 0.934376 -0.009392
v 6.991343 0.932691 -0.008919
v 7.028858 0.922627 0.010629
v 7.027153 0.924812 0.010446
v 7.005411 0.899984 0.007967
v 7.030144 0.920264 0.011053
v 7.024215 0.928131 0.010088
v 7.031737 0.914886 0.012102
v 7.032581 0.909630 0.012918
v 7.032883 0.904718 0.013163
v 7.032818 0.892542 -0.001072
v 7.034905 0.896817 0.002626
v 7.032849 0.899977 0.013029
v 7.032849 0.895237 0.012633
v 7.030479 0.888772 -0.004380
v 7.032866 0.890497 0.012106
v 7.033904 0.893646 0.007368
v 6.981964 0.922627 0.010629
v 6.983669 0.924812 0.010446
v 6.980677 0.920264 0.011053
v 6.986606 0.928131 0.010088
v 6.979084 0.914886 0.012102
v 6.978240 0.909630 0.012918
v 6.977938 0.904718 0.013163
v 6.977972 0.899977 0.013029
v 6.975916 0.896817 0.002626
v 6.978004 0.892542 -0.001072
v 6.977972 0.895237 0.012633
v 6.980342 0.888772 -0.004380
v 6.977955 0.890497 0.012106
v 6.976917 0.893646 0.007368
vn 0.8469 0.4915 -0.2030
vn 0.8585 0.4228 -0.2902
vn 0.8032 0.4982 -0.3266
vn 0.7887 0.5660 -0.2401
vn 0.0623 0.8916 -0.4486
vn 0.0875 0.8831 -0.4609
vn -0.0000 0.8375 -0.5464
vn 0.0332 0.8964 -0.4421
vn -0.0623 0.8916 -0.4486
vn -0.0879 0.9096 -0.4060
vn -0.0460 0.9175 -0.3952
vn -0.0332 0.8964 -0.4421
vn -0.1044 0.8755 -0.4718
vn -0.1545 0.8864 -0.4363
vn -0.1269 0.8980 -0.4214
vn -0.0875 0.8831 -0.4609
vn 0.1044 0.8755 -0.4718
vn 0.2281 0.7888 -0.5707
vn 0.2279 0.8118 -0.5376
vn 0.3067 0.7903 -0.5305
vn 0.3043 0.7553 -0.5804
vn -0.1311 0.9365 -0.3252
vn -0.0677 0.9492 -0.3074
vn -0.0000 0.9201 -0.3917
vn -0.0000 0.8992 -0.4374
vn -0.0000 0.9841 -0.1774
vn -0.0000 0.9946 -0.1038
vn 0.1199 0.9870 -0.1072
vn 0.0971 0.9780 -0.1844
vn 0.1200 0.8654 -0.4866
vn -0.9389 -0.2613 -0.2241
vn -0.9440 -0.0973 -0.3151
vn -0.8552 -0.2216 -0.4685
vn -0.8475 -0.3854 -0.3650
vn -0.1859 0.9603 -0.2081
vn -0.2306 0.9648 -0.1265
vn -0.1199 0.9870 -0.1072
vn -0.0971 0.9780 -0.1844
vn -0.2333 0.3883 -0.8915
vn -0.3434 0.4151 -0.8425
vn -0.2902 0.5018 -0.8148
vn -0.2005 0.4776 -0.8554
vn -0.0000 0.9534 -0.3016
vn 0.0677 0.9492 -0.3074
vn 0.0460 0.9175 -0.3952
vn -0.2281 0.7888 -0.5707
vn -0.1431 0.8154 -0.5609
vn -0.1364 0.8027 -0.5805
vn -0.2213 0.7652 -0.6046
vn -0.1344 0.8525 -0.5052
vn -0.2059 0.8517 -0.4819
vn -0.1813 0.8711 -0.4563
vn -0.1200 0.8654 -0.4866
vn 0.1344 0.8525 -0.5052
vn 0.9754 0.1808 0.1260
vn 0.9821 0.1756 -0.0680
vn 0.9505 0.2923 -0.1056
vn 0.9447 0.3101 0.1070
vn 0.1813 0.8711 -0.4563
vn 0.2059 0.8517 -0.4819
vn 0.6560 0.6321 -0.4124
vn 0.6372 0.5714 -0.5173
vn 0.5326 0.6423 -0.5512
vn 0.5527 0.6945 -0.4607
vn 0.4384 0.5636 -0.7001
vn 0.3469 0.6342 -0.6910
vn 0.3845 0.6660 -0.6392
vn 0.4926 0.5972 -0.6330
vn 0.1859 0.9603 -0.2081
vn 0.1311 0.9365 -0.3252
vn -0.4384 0.5636 -0.7001
vn -0.3469 0.6342 -0.6910
vn -0.2989 0.6060 -0.7372
vn -0.3696 0.5320 -0.7618
vn -0.3112 0.9083 -0.2795
vn -0.2627 0.9333 -0.2449
vn -0.1843 0.9172 -0.3532
vn -0.2183 0.8990 -0.3797
vn 0.2211 0.8325 -0.5081
vn 0.1423 0.8399 -0.5237
vn 0.0879 0.9096 -0.4060
vn 0.1269 0.8980 -0.4214
vn 0.1843 0.9172 -0.3532
vn 0.2627 0.9333 -0.2449
vn 0.5519 0.7403 -0.3839
vn 0.6538 0.6839 -0.3237
vn 0.2306 0.9648 -0.1265
vn -0.5519 0.7403 -0.3839
vn -0.5257 0.7927 -0.3086
vn -0.4018 0.8299 -0.3872
vn -0.4225 0.7899 -0.4445
vn 0.9814 -0.1438 -0.1275
vn 0.9817 -0.0059 -0.1903
vn 0.9906 0.0381 -0.1310
vn 0.9930 -0.0622 -0.1003
vn -0.2519 0.8761 -0.4111
vn -0.3574 0.8759 -0.3242
vn -0.4673 0.8542 -0.2280
vn -0.4079 0.8946 -0.1827
vn 0.2824 0.8466 -0.4512
vn 0.2995 0.8198 -0.4881
vn -0.9221 0.0359 -0.3853
vn -0.8906 0.1271 -0.4367
vn -0.8172 0.0453 -0.5746
vn -0.8418 -0.0695 -0.5354
vn -0.2928 0.7218 -0.6272
vn -0.2061 0.7434 -0.6363
vn -0.2720 0.6927 -0.6680
vn 0.1545 0.8864 -0.4363
vn -0.4255 0.7511 -0.5048
vn -0.5527 0.6945 -0.4607
vn -0.0000 0.9994 -0.0358
vn 0.1450 0.9888 -0.0356
vn -0.2824 0.8466 -0.4512
vn -0.2211 0.8325 -0.5081
vn -0.2995 0.8198 -0.4881
vn -0.1423 0.8399 -0.5237
vn -0.3397 0.9271 -0.1583
vn -0.4229 0.9019 -0.0880
vn -0.2815 0.9580 -0.0541
vn -0.1450 0.9888 -0.0356
vn 0.2183 0.8990 -0.3797
vn 0.2519 0.8761 -0.4111
vn -0.4977 0.8605 -0.1085
vn 0.2902 0.5018 -0.8148
vn 0.3696 0.5320 -0.7618
vn 0.4463 0.4478 -0.7748
vn 0.3434 0.4151 -0.8425
vn 0.3112 0.9083 -0.2795
vn 0.3574 0.8759 -0.3242
vn -0.9505 0.2923 -0.1056
vn -0.9467 0.2376 -0.2175
vn -0.9742 0.1402 -0.1768
vn -0.9821 0.1756 -0.0680
vn 0.1467 0.7088 -0.6900
vn 0.1813 0.7244 -0.6652
vn 0.2397 0.6676 -0.7049
vn 0.1949 0.6465 -0.7376
vn -0.3354 0.9385 0.0826
vn -0.1696 0.9787 0.1160
vn 0.3397 0.9271 -0.1583
vn 0.4079 0.8946 -0.1827
vn -0.9906 0.0381 -0.1310
vn -0.9976 0.0631 -0.0289
vn 0.3587 0.8581 0.3674
vn 0.3049 0.6918 0.6545
vn 0.4525 0.6444 0.6164
vn 0.5146 0.7998 0.3091
vn 0.9877 -0.0163 0.1556
vn 0.9881 0.0565 0.1427
vn 0.9661 0.0325 0.2563
vn 0.9728 -0.0276 0.2300
vn -0.5604 0.8133 -0.1564
vn -0.6283 0.7681 -0.1235
vn -0.5586 0.8291 -0.0247
vn -0.4932 0.8695 0.0283
vn -0.6251 0.7420 -0.2422
vn -0.6960 0.6870 -0.2088
vn 0.2061 0.7434 -0.6363
vn 0.2720 0.6927 -0.6680
vn 0.4977 0.8605 -0.1085
vn 0.5586 0.8291 -0.0247
vn 0.6283 0.7681 -0.1235
vn 0.5604 0.8133 -0.1564
vn -0.7100 0.6991 -0.0848
vn -0.6391 0.7283 0.2474
vn -0.9040 0.2872 0.3167
vn -0.8954 0.2491 0.3691
vn -0.8249 0.3942 0.4052
vn -0.8376 0.4168 0.3530
vn 0.9057 0.3965 -0.1500
vn 0.8905 0.4442 0.0988
vn -0.5146 0.7998 0.3091
vn -0.3587 0.8581 0.3674
vn -0.7965 0.5833 0.1589
vn -0.7104 0.5312 0.4617
vn -0.5622 0.6112 0.5572
vn -0.0000 0.9928 0.1198
vn 0.1696 0.9787 0.1160
vn 0.1358 0.6303 -0.7644
vn 0.1015 0.6967 -0.7101
vn -0.3067 0.7903 -0.5305
vn -0.4525 0.6444 0.6164
vn -0.3049 0.6918 0.6545
vn -0.1730 0.8955 0.4101
vn -0.0000 0.9072 0.4208
vn -0.6560 0.6321 -0.4124
vn -0.6538 0.6839 -0.3237
vn -0.7608 0.6211 -0.1881
vn -0.8534 0.2007 -0.4811
vn -0.7852 0.1345 -0.6045
vn 0.7294 0.6266 -0.2747
vn 0.7375 0.5669 -0.3671
vn -0.7294 0.6266 -0.2747
vn -0.7375 0.5669 -0.3671
vn -0.9565 -0.2653 -0.1214
vn -0.9814 -0.1438 -0.1275
vn -0.9035 -0.3990 -0.1565
vn -0.5326 0.6423 -0.5512
vn -0.6372 0.5714 -0.5173
vn -0.4122 0.7063 -0.5756
vn 0.7100 0.6991 -0.0848
vn 0.6391 0.7283 0.2474
vn 0.7965 0.5833 0.1589
vn -0.5210 -0.6235 -0.5829
vn -0.5824 -0.6116 -0.5355
vn -0.3544 -0.6560 -0.6664
vn -0.3278 -0.6566 -0.6793
vn -0.9447 0.3101 0.1070
vn -0.9754 0.1808 0.1260
vn -0.9453 0.1508 0.2894
vn -0.8032 0.4982 -0.3266
vn -0.7887 0.5660 -0.2401
vn 0.9440 -0.0973 -0.3151
vn 0.9221 0.0359 -0.3853
vn 0.9612 0.1021 -0.2562
vn -0.1469 0.7224 0.6756
vn -0.2568 0.5939 0.7624
vn -0.1377 0.6312 0.7633
vn 0.3850 0.5664 0.7287
vn 0.2568 0.5939 0.7624
vn -0.7225 0.4956 -0.4820
vn -0.8469 0.4915 -0.2030
vn -0.8585 0.4228 -0.2902
vn -0.8317 0.5377 -0.1386
vn -0.3845 0.6660 -0.6392
vn -0.4926 0.5972 -0.6330
vn 0.4229 0.9019 -0.0880
vn 0.4105 0.5499 0.7274
vn -0.5958 0.5199 -0.6121
vn -0.6841 0.4363 -0.5845
vn -0.8905 0.4442 0.0988
vn -0.9057 0.3965 -0.1500
vn 0.8317 0.5377 -0.1386
vn 0.1377 0.6312 0.7633
vn 0.1469 0.7224 0.6756
vn 0.0975 0.6495 0.7541
vn -0.5014 0.5734 0.6479
vn -0.4105 0.5499 0.7274
vn -0.9881 0.0565 0.1427
vn 0.7104 0.5312 0.4617
vn 0.7373 0.4949 0.4598
vn 0.8376 0.4168 0.3530
vn 0.6090 0.5462 0.5751
vn 0.6251 0.7420 -0.2422
vn 0.6960 0.6870 -0.2088
vn 0.9393 0.1171 0.3226
vn 0.9453 0.1508 0.2894
vn 0.9040 0.2872 0.3167
vn 0.8954 0.2491 0.3691
vn 0.8249 0.3942 0.4052
vn -0.0000 0.7364 0.6765
vn -0.0000 0.6622 0.7493
vn -0.8256 -0.5017 -0.2583
vn -0.9393 0.1171 0.3226
vn 0.1730 0.8955 0.4101
vn -0.0975 0.6495 0.7541
vn 0.6869 -0.5868 -0.4288
vn 0.5824 -0.6116 -0.5355
vn 0.7231 -0.5639 -0.3989
vn 0.7767 -0.5599 -0.2887
vn 0.3354 0.9385 0.0826
vn -0.9082 0.3328 -0.2536
vn 0.0841 0.7726 -0.6292
vn 0.1067 0.7806 -0.6158
vn -0.9661 0.0325 0.2563
vn -0.9728 -0.0276 0.2300
vn -0.9696 -0.0265 0.2432
vn -0.9617 0.0137 0.2739
vn 0.2815 0.9580 -0.0541
vn 0.4932 0.8695 0.0283
vn -0.9912 -0.1325 0.0046
vn -0.9906 -0.0558 0.1251
vn -0.9983 -0.0582 0.0024
vn -0.9857 -0.1445 -0.0872
vn -0.5337 0.4830 -0.6941
vn -0.7912 0.4179 -0.4465
vn -0.8473 0.3394 -0.4086
vn -0.8945 0.2593 -0.3643
vn -0.9774 -0.0442 0.2065
vn -0.9756 -0.0341 0.2170
vn -0.4463 0.4478 -0.7748
vn -0.3850 0.5664 0.7287
vn -0.5892 0.2424 -0.7707
vn -0.5239 0.3482 -0.7773
vn -0.4024 0.3072 -0.8624
vn -0.4557 0.1859 -0.8705
vn -0.9877 -0.0163 0.1556
vn 0.8552 -0.2216 -0.4685
vn 0.7244 -0.3380 -0.6009
vn 0.7197 -0.1870 -0.6687
vn 0.8418 -0.0695 -0.5354
vn -0.7197 -0.4836 -0.4982
vn -0.7244 -0.3380 -0.6009
vn -0.5595 -0.4333 -0.7066
vn -0.5586 -0.5579 -0.6138
vn -1.0000 -0.0047 -0.0024
vn 1.0000 -0.0047 -0.0024
vn 0.9976 0.0631 -0.0289
vn 0.1233 0.7913 -0.5989
vn 0.2399 0.5806 -0.7781
vn 0.2989 0.6060 -0.7372
vn -0.6216 0.3925 -0.6779
vn 0.9912 -0.1325 0.0046
vn 0.9340 -0.3322 -0.1318
vn 0.9565 -0.2653 -0.1214
vn 0.9857 -0.1445 -0.0872
vn 0.4018 0.8299 -0.3872
vn 0.4225 0.7899 -0.4445
vn -0.3043 0.7553 -0.5804
vn 0.5014 0.5734 0.6479
vn 0.5622 0.6112 0.5572
vn 0.9906 -0.0558 0.1251
vn 0.9983 -0.0582 0.0024
vn -0.1523 -0.3000 -0.9417
vn -0.1581 -0.1511 -0.9758
vn -0.0000 -0.1689 -0.9856
vn -0.0000 -0.3208 -0.9471
vn -0.0000 -0.4515 -0.8923
vn 0.1523 -0.3000 -0.9417
vn 0.1420 -0.4355 -0.8889
vn -0.7373 0.4949 0.4598
vn -0.6090 0.5462 0.5751
vn -0.9930 -0.0622 -0.1003
vn -0.8085 0.2746 -0.5205
vn 0.8906 0.1271 -0.4367
vn 0.9318 0.1828 -0.3136
vn -0.9340 -0.3322 -0.1318
vn -0.9612 0.1021 -0.2562
vn -0.9817 -0.0059 -0.1903
vn -0.3475 -0.1019 -0.9321
vn -0.3561 -0.2401 -0.9031
vn -0.7444 0.2160 -0.6319
vn -0.7536 0.3533 -0.5544
vn -0.6915 0.3011 -0.6566
vn 0.7608 0.6211 -0.1881
vn 0.8750 -0.4641 -0.1375
vn 0.9035 -0.3990 -0.1565
vn -0.8750 -0.4641 -0.1375
vn -0.9318 0.1828 -0.3136
vn -0.6375 0.1443 -0.7569
vn -0.6747 0.0483 -0.7365
vn -0.7767 -0.5599 -0.2887
vn -0.0000 0.5437 -0.8393
vn 0.0835 0.5477 -0.8325
vn 0.1001 0.4621 -0.8811
vn -0.0000 0.4570 -0.8895
vn -0.0000 0.0967 -0.9953
vn 0.1456 0.1082 -0.9834
vn 0.1551 -0.0166 -0.9878
vn -0.0000 -0.0294 -0.9996
vn 0.9617 0.0137 0.2739
vn 0.8256 -0.5017 -0.2583
vn -0.6869 -0.5868 -0.4288
vn -0.7231 -0.5639 -0.3989
vn 0.9774 -0.0442 0.2065
vn 0.9696 -0.0265 0.2432
vn 0.9756 -0.0341 0.2170
vn -0.2397 0.6676 -0.7049
vn -0.2279 0.8118 -0.5376
vn 0.5210 -0.6235 -0.5829
vn 0.4255 0.7511 -0.5048
vn 0.9742 0.1402 -0.1768
vn 0.9467 0.2376 -0.2175
vn -0.7197 -0.1870 -0.6687
vn -0.0000 -0.6696 -0.7427
vn -0.1425 -0.6703 -0.7283
vn -0.1460 -0.6760 -0.7223
vn -0.0000 -0.6765 -0.7364
vn -0.7028 -0.0588 -0.7089
vn 0.4948 0.0751 -0.8658
vn 0.4557 0.1859 -0.8705
vn 0.5892 0.2424 -0.7707
vn 0.6375 0.1443 -0.7569
vn -0.5603 -0.2920 -0.7751
vn -0.1308 0.2460 -0.9604
vn -0.1150 0.3682 -0.9226
vn -0.0000 0.3605 -0.9328
vn -0.0000 0.2355 -0.9719
vn 0.9778 -0.0355 0.2066
vn 0.9795 -0.0448 0.1965
vn -0.5499 -0.1567 -0.8204
vn -0.5261 -0.0341 -0.8497
vn 0.3053 0.1404 -0.9419
vn 0.2705 0.2730 -0.9232
vn 0.4024 0.3072 -0.8624
vn 0.3540 -0.3802 -0.8545
vn 0.3561 -0.2401 -0.9031
vn 0.5499 -0.1567 -0.8204
vn 0.5603 -0.2920 -0.7751
vn -0.3476 -0.5100 -0.7868
vn -0.3476 -0.6162 -0.7068
vn 0.1460 -0.6760 -0.7223
vn 0.1425 -0.6703 -0.7283
vn -0.1366 -0.6433 -0.7533
vn -0.0000 -0.6469 -0.7626
vn -0.3540 -0.3802 -0.8545
vn -0.1420 -0.4355 -0.8889
vn -0.1354 -0.5509 -0.8235
vn 0.3278 -0.6566 -0.6793
vn 0.3544 -0.6560 -0.6664
vn -0.4948 0.0751 -0.8658
vn 0.1354 -0.5509 -0.8235
vn 0.3476 -0.5100 -0.7868
vn 0.3476 -0.6162 -0.7068
vn 0.1366 -0.6433 -0.7533
vn -0.3053 0.1404 -0.9419
vn -0.3299 0.0205 -0.9438
vn -0.2705 0.2730 -0.9232
vn 0.5586 -0.5579 -0.6138
vn -0.9795 -0.0448 0.1965
vn -0.9778 -0.0355 0.2066
vn 0.7197 -0.4836 -0.4982
vn -0.0000 -0.5595 -0.8288
vn -0.1551 -0.0166 -0.9878
vn 0.5595 -0.4333 -0.7066
vn 0.8475 -0.3854 -0.3650
vn 0.3299 0.0205 -0.9438
vn 0.3475 -0.1019 -0.9321
vn 0.1581 -0.1511 -0.9758
vn 0.7444 0.2160 -0.6319
vn 0.6915 0.3011 -0.6566
vn 0.7536 0.3533 -0.5544
vn 0.8085 0.2746 -0.5205
vn -0.1456 0.1082 -0.9834
vn 0.5239 0.3482 -0.7773
vn 0.6216 0.3925 -0.6779
vn 0.5261 -0.0341 -0.8497
vn 0.1308 0.2460 -0.9604
vn -0.0000 0.6173 -0.7867
vn 0.0676 0.6204 -0.7814
vn 0.1150 0.3682 -0.9226
vn 0.7028 -0.0588 -0.7089
vn 0.8534 0.2007 -0.4811
vn 0.8473 0.3394 -0.4086
vn 0.8945 0.2593 -0.3643
vn 0.7912 0.4179 -0.4465
vn 0.7225 0.4956 -0.4820
vn 0.6841 0.4363 -0.5845
vn 0.5958 0.5199 -0.6121
vn -0.2399 0.5806 -0.7781
vn 0.6747 0.0483 -0.7365
vn -0.1671 0.5602 -0.8113
vn -0.1949 0.6465 -0.7376
vn -0.1358 0.6303 -0.7644
vn 0.9082 0.3328 -0.2536
vn 0.9389 -0.2613 -0.2241
vn 0.8172 0.0453 -0.5746
vn -0.1813 0.7244 -0.6652
vn -0.1467 0.7088 -0.6900
vn -0.1015 0.6967 -0.7101
vn 0.4673 0.8542 -0.2280
vn -0.1456 0.8276 -0.5420
vn 0.1671 0.5602 -0.8113
vn -0.0676 0.6204 -0.7814
vn -0.0835 0.5477 -0.8325
vn -0.1067 0.7806 -0.6158
vn -0.0841 0.7726 -0.6292
vn -0.1233 0.7913 -0.5989
vn -0.1001 0.4621 -0.8811
vn 0.0578 0.7655 -0.6409
vn 0.4122 0.7063 -0.5756
vn 0.1364 0.8027 -0.5805
vn -0.0499 0.6898 -0.7223
vn 0.1431 0.8154 -0.5609
vn 0.2333 0.3883 -0.8915
vn 0.0276 0.7621 -0.6469
vn 0.1456 0.8276 -0.5420
vn -0.0000 0.6878 -0.7259
vn 0.0499 0.6898 -0.7223
vn -0.0578 0.7655 -0.6409
vn -0.0276 0.7621 -0.6469
vn -0.0000 0.7605 -0.6493
vn 0.2005 0.4776 -0.8554
vn 0.7852 0.1345 -0.6045
vn 0.5337 0.4830 -0.6941
vn 0.2928 0.7218 -0.6272
vn 0.2213 0.7652 -0.6046
vn 0.5257 0.7927 -0.3086
vn -0.1430 0.0318 0.9892
vn -0.1141 0.0007 0.9935
vn -0.1959 -0.3726 0.9071
vn -0.1995 0.0949 0.9753
vn -0.1173 0.0035 0.9931
vn -0.2199 0.1200 0.9681
vn -0.2067 0.0818 0.9750
vn -0.1872 0.0081 0.9823
vn 0.0597 -0.6742 0.7361
vn -0.0795 -0.9861 0.1459
vn -0.1812 -0.0540 0.9820
vn -0.1831 -0.0969 0.9783
vn 0.0574 -0.6783 0.7325
vn -0.3509 -0.8946 0.2768
vn -0.1895 -0.7977 -0.5726
vn 0.1430 0.0318 0.9892
vn 0.1959 -0.3726 0.9071
vn 0.1141 0.0007 0.9935
vn 0.1995 0.0949 0.9753
vn 0.1173 0.0035 0.9931
vn 0.2199 0.1200 0.9681
vn 0.2067 0.0818 0.9750
vn 0.1872 0.0081 0.9823
vn 0.1812 -0.0540 0.9820
vn 0.0795 -0.9861 0.1459
vn -0.0597 -0.6742 0.7361
vn 0.1831 -0.0969 0.9783
vn -0.0574 -0.6783 0.7325
vn 0.3509 -0.8946 0.2768
vn 0.1895 -0.7977 -0.5726
vt 0.000000 0.000000
s 1
f 108/1/1 143/1/2 100/1/3 101/1/4
f 1/1/5 3/1/6 5/1/7
f 1/1/5 5/1/7 6/1/8
f 26/1/9 27/1/10 19/1/11 18/1/12
f 42/1/13 49/1/14 35/1/15 34/1/16
f 3/1/6 8/1/17 5/1/7
f 351/1/18 359/1/19 83/1/20 103/1/21
f 19/1/11 27/1/10 28/1/22 20/1/23
f 18/1/12 19/1/11 10/1/24 11/1/25
f 6/1/8 5/1/7 11/1/25
f 21/1/26 43/1/27 31/1/28 22/1/29
f 8/1/17 15/1/30 5/1/7
f 343/1/31 360/1/32 336/1/33 335/1/34
f 29/1/35 68/1/36 37/1/37 30/1/38
f 417/1/39 423/1/40 408/1/41 409/1/42
f 29/1/35 30/1/38 20/1/23 28/1/22
f 11/1/25 5/1/7 18/1/12
f 12/1/43 13/1/44 7/1/45 10/1/24
f 20/1/23 30/1/38 21/1/26 12/1/43
f 462/1/46 463/1/47 458/1/48 457/1/49
f 472/1/50 477/1/51 54/1/52 48/1/53
f 15/1/30 24/1/54 5/1/7
f 129/1/55 168/1/56 135/1/57 128/1/58
f 23/1/59 44/1/60 24/1/54 15/1/30
f 18/1/12 5/1/7 26/1/9
f 89/1/61 107/1/62 95/1/63 88/1/64
f 120/1/65 334/1/66 110/1/67 114/1/68
f 13/1/44 22/1/29 16/1/69 9/1/70
f 37/1/37 43/1/27 21/1/26 30/1/38
f 434/1/71 435/1/72 400/1/73 428/1/74
f 60/1/75 61/1/76 36/1/77 55/1/78
f 51/1/79 390/1/80 24/1/54 44/1/60
f 26/1/9 5/1/7 34/1/16
f 1/1/5 4/1/81 2/1/82 3/1/6
f 9/1/70 17/1/83 2/1/82 4/1/81
f 16/1/69 41/1/84 17/1/83 9/1/70
f 69/1/85 87/1/86 89/1/61 88/1/64
f 31/1/28 47/1/87 16/1/69 22/1/29
f 455/1/88 479/1/89 475/1/90 467/1/91
f 221/1/92 197/1/93 190/1/94 188/1/95
f 34/1/16 5/1/7 42/1/13
f 54/1/52 59/1/96 55/1/78 49/1/14
f 60/1/75 478/1/97 473/1/98 474/1/99
f 38/1/100 56/1/101 51/1/79 44/1/60
f 354/1/102 398/1/103 345/1/104 346/1/105
f 441/1/106 457/1/49 442/1/107 436/1/108
f 42/1/13 5/1/7 48/1/53
f 14/1/109 23/1/59 15/1/30 8/1/17
f 455/1/88 467/1/91 452/1/110 451/1/111
f 50/1/112 58/1/113 31/1/28 43/1/27
f 476/1/114 477/1/51 469/1/115 466/1/116
f 469/1/115 477/1/51 472/1/50 471/1/117
f 67/1/118 145/1/119 73/1/120 68/1/36
f 73/1/120 74/1/121 37/1/37 68/1/36
f 25/1/122 33/1/123 23/1/59 14/1/109
f 25/1/122 14/1/109 2/1/82 17/1/83
f 475/1/90 476/1/114 466/1/116 467/1/91
f 67/1/118 474/1/99 153/1/124 145/1/119
f 325/1/125 327/1/126 172/1/127 320/1/128
f 32/1/129 40/1/130 33/1/123 25/1/122
f 231/1/131 396/1/132 240/1/133 234/1/134
f 475/1/90 479/1/89 473/1/98 478/1/97
f 347/1/135 350/1/136 341/1/137 339/1/138
f 73/1/120 139/1/139 80/1/140 74/1/121
f 46/1/141 52/1/142 32/1/129 41/1/84
f 16/1/69 47/1/87 46/1/141 41/1/84
f 240/1/133 386/1/143 233/1/144 234/1/134
f 79/1/145 98/1/146 84/1/147 78/1/148
f 159/1/149 160/1/150 137/1/151 152/1/152
f 153/1/124 465/1/153 177/1/154 170/1/155
f 153/1/124 170/1/155 146/1/156 145/1/119
f 177/1/154 465/1/153 464/1/157 459/1/158
f 341/1/137 350/1/136 349/1/159 340/1/160
f 57/1/161 76/1/162 70/1/163 64/1/164
f 177/1/154 193/1/165 169/1/166 170/1/155
f 202/1/167 203/1/168 194/1/169 186/1/170
f 135/1/57 136/1/171 115/1/172 128/1/58
f 146/1/156 162/1/173 140/1/174 139/1/139
f 185/1/175 179/1/176 178/1/177 169/1/166
f 50/1/112 81/1/178 66/1/179 58/1/113
f 348/1/180 368/1/181 347/1/135 339/1/138
f 452/1/110 467/1/91 466/1/116 461/1/182
f 17/1/83 41/1/84 32/1/129 25/1/122
f 169/1/166 178/1/177 161/1/183 162/1/173
f 140/1/174 162/1/173 161/1/183 154/1/184
f 80/1/140 132/1/185 86/1/186 81/1/178
f 36/1/77 61/1/76 29/1/35 28/1/22
f 445/1/187 460/1/188 455/1/88 451/1/111
f 177/1/154 459/1/158 201/1/189 193/1/165
f 405/1/190 407/1/191 345/1/104 398/1/103
f 94/1/192 101/1/4 100/1/3 99/1/193
f 459/1/158 464/1/157 460/1/188 449/1/194
f 449/1/194 460/1/188 445/1/187 444/1/195
f 352/1/196 366/1/197 343/1/31 344/1/198
f 445/1/187 451/1/111 447/1/199 446/1/200
f 452/1/110 453/1/201 447/1/199 451/1/111
f 92/1/202 77/1/203 96/1/204
f 272/1/205 278/1/206 271/1/207 264/1/208
f 202/1/167 224/1/209 225/1/210 217/1/211
f 418/1/212 450/1/213 449/1/194 444/1/195
f 197/1/93 235/1/214 205/1/215 198/1/216
f 133/1/217 154/1/184 147/1/218 141/1/219
f 98/1/146 105/1/220 84/1/147
f 98/1/146 104/1/221 105/1/220
f 67/1/118 68/1/36 29/1/35 61/1/76
f 445/1/187 446/1/200 438/1/222 444/1/195
f 410/1/223 450/1/213 418/1/212 413/1/224
f 450/1/213 410/1/223 411/1/225 201/1/189
f 447/1/199 453/1/201 440/1/226 439/1/227
f 46/1/141 65/1/228 57/1/161 52/1/142
f 105/1/220 112/1/229 84/1/147
f 446/1/200 447/1/199 439/1/227 432/1/230
f 438/1/222 446/1/200 432/1/230 431/1/231
f 210/1/232 411/1/225 410/1/223 403/1/233
f 109/1/234 96/1/204 115/1/172
f 77/1/203 92/1/202 70/1/163 76/1/162
f 111/1/235 93/1/236 118/1/237
f 161/1/183 178/1/177 171/1/238 163/1/239
f 225/1/210 234/1/134 233/1/144 232/1/240
f 7/1/45 13/1/44 9/1/70 4/1/81
f 434/1/71 439/1/227 440/1/226 435/1/72
f 116/1/241 122/1/242 117/1/243
f 116/1/241 121/1/244 122/1/242
f 94/1/192 87/1/86 63/1/245 90/1/246
f 131/1/247 130/1/248 123/1/249 127/1/250
f 117/1/243 122/1/242 124/1/251
f 93/1/236 125/1/252 118/1/237
f 118/1/237 125/1/252 126/1/253
f 291/1/254 344/1/198 343/1/31 335/1/34
f 202/1/167 217/1/211 209/1/255 203/1/168
f 86/1/186 125/1/252 93/1/236 85/1/256
f 125/1/252 134/1/257 126/1/253
f 125/1/252 133/1/217 134/1/257
f 210/1/232 403/1/233 231/1/131 224/1/209
f 231/1/131 234/1/134 225/1/210 224/1/209
f 223/1/258 227/1/259 222/1/260 213/1/261
f 185/1/175 210/1/232 186/1/170 179/1/176
f 66/1/179 85/1/256 79/1/145 72/1/262
f 93/1/236 98/1/146 79/1/145 85/1/256
f 134/1/257 133/1/217 141/1/219
f 404/1/263 396/1/132 231/1/131 403/1/233
f 357/1/264 358/1/265 350/1/136 347/1/135
f 218/1/266 241/1/267 226/1/268 219/1/269
f 53/1/270 72/1/262 71/1/271 65/1/228
f 266/1/272 376/1/273 375/1/274 372/1/275
f 432/1/230 439/1/227 434/1/71 433/1/276
f 418/1/212 437/1/277 412/1/278 413/1/224
f 404/1/263 413/1/224 412/1/278 406/1/279
f 247/1/280 248/1/281 226/1/268 241/1/267
f 473/1/98 479/1/89 464/1/157 465/1/153
f 434/1/71 428/1/74 427/1/282 433/1/276
f 147/1/218 154/1/184 155/1/283
f 419/1/284 425/1/285 422/1/286 420/1/287
f 418/1/212 444/1/195 438/1/222 437/1/277
f 146/1/156 170/1/155 169/1/166 162/1/173
f 239/1/288 241/1/267 218/1/266 232/1/240
f 239/1/288 376/1/273 247/1/280 241/1/267
f 210/1/232 224/1/209 202/1/167 186/1/170
f 154/1/184 161/1/183 155/1/283
f 155/1/283 161/1/183 163/1/239
f 236/1/289 244/1/290 243/1/291 242/1/292
f 284/1/293 328/1/294 290/1/295 282/1/296
f 233/1/144 380/1/297 239/1/288 232/1/240
f 159/1/149 182/1/298 167/1/299 160/1/150
f 358/1/265 364/1/300 349/1/159 350/1/136
f 71/1/271 78/1/148 77/1/203 76/1/162
f 201/1/189 459/1/158 449/1/194 450/1/213
f 325/1/125 333/1/301 332/1/302 327/1/126
f 426/1/303 433/1/276 427/1/282 425/1/285
f 173/1/304 196/1/305 195/1/306 189/1/307
f 59/1/96 478/1/97 60/1/75 55/1/78
f 39/1/308 75/1/309 56/1/101 38/1/100
f 73/1/120 145/1/119 146/1/156 139/1/139
f 462/1/46 457/1/49 441/1/106 456/1/310
f 119/1/311 121/1/244 116/1/241 97/1/312
f 411/1/225 185/1/175 193/1/165 201/1/189
f 174/1/313 181/1/314 159/1/149
f 159/1/149 181/1/314 182/1/298
f 300/1/315 304/1/316 296/1/317 294/1/318
f 292/1/319 294/1/318 289/1/320 288/1/321
f 97/1/312 116/1/241 96/1/204 77/1/203
f 117/1/243 115/1/172 96/1/204 116/1/241
f 179/1/176 186/1/170 187/1/322
f 179/1/176 187/1/322 180/1/323
f 233/1/144 386/1/143 371/1/324 380/1/297
f 181/1/314 188/1/95 182/1/298
f 181/1/314 189/1/307 188/1/95
f 429/1/325 405/1/190 406/1/279 412/1/278
f 205/1/215 206/1/326 183/1/327 198/1/216
f 169/1/166 193/1/165 185/1/175
f 187/1/322 186/1/170 194/1/169
f 266/1/272 372/1/275 352/1/196 353/1/328
f 352/1/196 372/1/275 371/1/324 366/1/197
f 240/1/133 391/1/329 365/1/330 386/1/143
f 371/1/324 386/1/143 365/1/330 366/1/197
f 307/1/331 304/1/316 300/1/315 306/1/332
f 414/1/333 429/1/325 430/1/334 424/1/335
f 96/1/204 109/1/234 91/1/336 92/1/202
f 204/1/337 211/1/338 195/1/306 196/1/305
f 124/1/251 127/1/250 123/1/249 117/1/243
f 293/1/339 353/1/328 352/1/196 344/1/198
f 397/1/340 398/1/103 354/1/102 391/1/329
f 365/1/330 391/1/329 354/1/102 360/1/32
f 414/1/333 415/1/341 337/1/342 407/1/191
f 426/1/303 425/1/285 419/1/284 424/1/335
f 123/1/249 128/1/58 115/1/172 117/1/243
f 293/1/339 344/1/198 291/1/254 287/1/343
f 362/1/344 355/1/345 324/1/346 361/1/347
f 308/1/348 309/1/349 297/1/350 302/1/351
f 422/1/286 425/1/285 427/1/282 423/1/40
f 397/1/340 406/1/279 405/1/190 398/1/103
f 131/1/247 138/1/352 137/1/151 130/1/248
f 115/1/172 136/1/171 108/1/1 109/1/234
f 71/1/271 76/1/162 57/1/161 65/1/228
f 343/1/31 366/1/197 365/1/330 360/1/32
f 213/1/261 222/1/260 212/1/353
f 280/1/354 287/1/343 283/1/355 278/1/206
f 137/1/151 160/1/150 129/1/55 130/1/248
f 123/1/249 130/1/248 129/1/55 128/1/58
f 151/1/356 152/1/152 144/1/357 150/1/358
f 436/1/108 401/1/359 400/1/73 435/1/72
f 469/1/115 468/1/360 461/1/182 466/1/116
f 223/1/258 230/1/361 227/1/259
f 2/1/82 14/1/109 8/1/17 3/1/6
f 91/1/336 109/1/234 108/1/1 101/1/4
f 167/1/299 168/1/56 129/1/55 160/1/150
f 291/1/254 335/1/34 284/1/293 283/1/355
f 336/1/33 328/1/294 284/1/293 335/1/34
f 336/1/33 360/1/32 354/1/102 346/1/105
f 151/1/356 174/1/313 159/1/149 152/1/152
f 188/1/95 190/1/94 167/1/299 182/1/298
f 82/1/362 83/1/20 56/1/101 75/1/309
f 175/1/363 176/1/364 135/1/57 168/1/56
f 167/1/299 190/1/94 175/1/363 168/1/56
f 336/1/33 346/1/105 321/1/365 328/1/294
f 253/1/366 259/1/367 258/1/368 257/1/369
f 66/1/179 72/1/262 53/1/270 58/1/113
f 204/1/337 213/1/261 212/1/353 211/1/338
f 218/1/266 219/1/269 209/1/255 217/1/211
f 345/1/104 407/1/191 337/1/342 338/1/370
f 267/1/371 268/1/372 207/1/373 261/1/374
f 290/1/295 328/1/294 321/1/365 312/1/375
f 315/1/376 416/1/377 319/1/378 316/1/379
f 412/1/278 437/1/277 430/1/334 429/1/325
f 158/1/380 166/1/381 151/1/356 150/1/358
f 313/1/382 338/1/370 337/1/342 330/1/383
f 313/1/382 330/1/383 307/1/331 306/1/332
f 275/1/384 311/1/385 216/1/386 268/1/372
f 270/1/387 281/1/388 255/1/389 262/1/390
f 290/1/295 299/1/391 277/1/392 282/1/296
f 253/1/366 257/1/369 245/1/393 246/1/394
f 258/1/368 279/1/395 263/1/396 257/1/369
f 305/1/397 301/1/398 285/1/399 299/1/391
f 238/1/400 246/1/394 245/1/393 237/1/401
f 173/1/304 174/1/313 151/1/356 166/1/381
f 419/1/284 420/1/287 329/1/402 415/1/341
f 414/1/333 424/1/335 419/1/284 415/1/341
f 313/1/382 306/1/332 305/1/397 312/1/375
f 290/1/295 312/1/375 305/1/397 299/1/391
f 230/1/361 238/1/400 237/1/401 227/1/259
f 273/1/403 274/1/404 256/1/405 265/1/406
f 277/1/392 299/1/391 285/1/399 279/1/395
f 240/1/133 396/1/132 397/1/340 391/1/329
f 329/1/402 420/1/287 322/1/407 323/1/408
f 420/1/287 422/1/286 421/1/409 322/1/407
f 405/1/190 429/1/325 414/1/333 407/1/191
f 404/1/263 406/1/279 397/1/340 396/1/132
f 245/1/393 265/1/406 256/1/405 237/1/401
f 227/1/259 237/1/401 256/1/405 252/1/410
f 272/1/205 280/1/354 278/1/206
f 247/1/280 260/1/411 254/1/412 248/1/281
f 227/1/259 252/1/410 228/1/413 222/1/260
f 263/1/396 286/1/414 273/1/403 265/1/406
f 285/1/399 301/1/398 292/1/319 286/1/414
f 321/1/365 338/1/370 313/1/382 312/1/375
f 296/1/317 304/1/316 303/1/415 302/1/351
f 256/1/405 274/1/404 251/1/416 252/1/410
f 228/1/413 252/1/410 251/1/416 244/1/290
f 283/1/355 287/1/343 291/1/254
f 228/1/413 229/1/417 212/1/353 222/1/260
f 292/1/319 288/1/321 273/1/403 286/1/414
f 263/1/396 265/1/406 245/1/393 257/1/369
f 292/1/319 301/1/398 300/1/315 294/1/318
f 144/1/357 152/1/152 137/1/151 138/1/352
f 307/1/331 330/1/383 329/1/402 323/1/408
f 307/1/331 323/1/408 303/1/415 304/1/316
f 297/1/350 298/1/418 276/1/419 295/1/420
f 133/1/217 125/1/252 86/1/186 132/1/185
f 274/1/404 270/1/387 262/1/390 251/1/416
f 296/1/317 295/1/420 289/1/320 294/1/318
f 296/1/317 302/1/351 297/1/350 295/1/420
f 273/1/403 288/1/321 270/1/387 274/1/404
f 270/1/387 288/1/321 289/1/320 281/1/388
f 277/1/392 279/1/395 258/1/368 271/1/207
f 289/1/320 295/1/420 276/1/419 281/1/388
f 337/1/342 415/1/341 329/1/402 330/1/383
f 199/1/421 200/1/422 156/1/423 192/1/424
f 303/1/415 314/1/425 308/1/348 302/1/351
f 207/1/373 208/1/426 164/1/427 200/1/422
f 322/1/407 421/1/409 315/1/376 314/1/425
f 305/1/397 306/1/332 300/1/315 301/1/398
f 255/1/389 281/1/388 276/1/419 269/1/428
f 308/1/348 316/1/379 310/1/429 309/1/349
f 362/1/344 377/1/430 356/1/431 355/1/345
f 422/1/286 423/1/40 417/1/39 421/1/409
f 315/1/376 421/1/409 417/1/39 416/1/377
f 319/1/378 318/1/432 310/1/429 316/1/379
f 243/1/291 262/1/390 255/1/389 250/1/433
f 191/1/434 192/1/424 148/1/435 184/1/436
f 297/1/350 309/1/349 275/1/384 298/1/418
f 315/1/376 316/1/379 308/1/348 314/1/425
f 148/1/435 149/1/437 100/1/3 143/1/2
f 430/1/334 431/1/231 426/1/303 424/1/335
f 427/1/282 428/1/74 408/1/41 423/1/40
f 153/1/124 474/1/99 473/1/98 465/1/153
f 303/1/415 323/1/408 322/1/407 314/1/425
f 276/1/419 298/1/418 267/1/371 269/1/428
f 456/1/310 441/1/106 440/1/226 453/1/201
f 106/1/438 157/1/439 113/1/440 107/1/62
f 408/1/41 428/1/74 400/1/73 399/1/441
f 7/1/45 4/1/81 1/1/5 6/1/8
f 474/1/99 67/1/118 61/1/76 60/1/75
f 113/1/440 114/1/68 95/1/63 107/1/62
f 255/1/389 269/1/428 249/1/442 250/1/433
f 249/1/442 269/1/428 267/1/371 261/1/374
f 387/1/443 399/1/441 394/1/444 388/1/445
f 400/1/73 401/1/359 394/1/444 399/1/441
f 135/1/57 176/1/364 142/1/446 136/1/171
f 440/1/226 441/1/106 436/1/108 435/1/72
f 235/1/214 220/1/447 229/1/417 236/1/289
f 212/1/353 229/1/417 220/1/447 211/1/338
f 278/1/206 282/1/296 277/1/392 271/1/207
f 243/1/291 250/1/433 214/1/448 242/1/292
f 401/1/359 443/1/449 393/1/450 394/1/444
f 388/1/445 394/1/444 393/1/450 392/1/451
f 32/1/129 52/1/142 45/1/452 40/1/130
f 442/1/107 443/1/449 401/1/359 436/1/108
f 468/1/360 470/1/453 463/1/47 462/1/46
f 461/1/182 468/1/360 462/1/46 456/1/310
f 220/1/447 221/1/92 195/1/306 211/1/338
f 79/1/145 78/1/148 71/1/271 72/1/262
f 195/1/306 221/1/92 188/1/95 189/1/307
f 331/1/454 348/1/180 339/1/138 333/1/301
f 205/1/215 242/1/292 214/1/448 206/1/326
f 387/1/443 388/1/445 382/1/455 381/1/456
f 443/1/449 448/1/457 402/1/458 393/1/450
f 357/1/264 5/1/7 358/1/265
f 442/1/107 454/1/459 448/1/457 443/1/449
f 362/1/344 381/1/456 382/1/455 377/1/430
f 367/1/460 381/1/456 362/1/344 361/1/347
f 55/1/78 36/1/77 35/1/15 49/1/14
f 357/1/264 363/1/461 5/1/7
f 358/1/265 5/1/7 364/1/300
f 95/1/63 102/1/462 82/1/362 88/1/64
f 84/1/147 97/1/312 77/1/203 78/1/148
f 319/1/378 361/1/347 324/1/346 318/1/432
f 319/1/378 416/1/377 367/1/460 361/1/347
f 364/1/300 5/1/7 369/1/463
f 458/1/48 454/1/459 442/1/107 457/1/49
f 19/1/11 20/1/23 12/1/43 10/1/24
f 80/1/140 139/1/139 140/1/174 132/1/185
f 70/1/163 92/1/202 91/1/336 90/1/246
f 331/1/454 355/1/345 356/1/431 348/1/180
f 388/1/445 392/1/451 383/1/464 382/1/455
f 369/1/463 5/1/7 374/1/465
f 21/1/26 22/1/29 13/1/44 12/1/43
f 372/1/275 375/1/274 371/1/324
f 173/1/304 189/1/307 181/1/314 174/1/313
f 375/1/274 376/1/273 239/1/288
f 317/1/466 320/1/128 216/1/386 311/1/385
f 363/1/461 378/1/467 5/1/7
f 140/1/174 154/1/184 133/1/217 132/1/185
f 374/1/465 5/1/7 379/1/468
f 375/1/274 239/1/288 380/1/297
f 247/1/280 376/1/273 266/1/272 260/1/411
f 375/1/274 380/1/297 371/1/324
f 383/1/464 384/1/469 377/1/430 382/1/455
f 377/1/430 384/1/469 373/1/470 356/1/431
f 392/1/451 395/1/471 389/1/472 383/1/464
f 384/1/469 385/1/473 378/1/467 373/1/470
f 378/1/467 385/1/473 5/1/7
f 48/1/53 54/1/52 49/1/14 42/1/13
f 216/1/386 320/1/128 172/1/127 208/1/426
f 324/1/346 355/1/345 331/1/454 326/1/474
f 383/1/464 389/1/472 385/1/473 384/1/469
f 385/1/473 389/1/472 5/1/7
f 390/1/80 5/1/7 24/1/54
f 379/1/468 5/1/7 390/1/80
f 80/1/140 81/1/178 50/1/112 74/1/121
f 452/1/110 461/1/182 456/1/310 453/1/201
f 389/1/472 395/1/471 5/1/7
f 373/1/470 378/1/467 363/1/461 368/1/181
f 347/1/135 368/1/181 363/1/461 357/1/264
f 175/1/363 198/1/216 183/1/327 176/1/364
f 310/1/429 311/1/385 275/1/384 309/1/349
f 284/1/293 282/1/296 278/1/206 283/1/355
f 179/1/176 180/1/323 171/1/238 178/1/177
f 395/1/471 402/1/458 5/1/7
f 236/1/289 242/1/292 205/1/215 235/1/214
f 183/1/327 184/1/436 142/1/446 176/1/364
f 214/1/448 215/1/475 191/1/434 206/1/326
f 183/1/327 206/1/326 191/1/434 184/1/436
f 331/1/454 333/1/301 325/1/125 326/1/474
f 95/1/63 114/1/68 110/1/67 102/1/462
f 142/1/446 143/1/2 108/1/1 136/1/171
f 225/1/210 232/1/240 218/1/266 217/1/211
f 210/1/232 185/1/175 411/1/225
f 119/1/311 97/1/312 84/1/147 112/1/229
f 321/1/365 346/1/105 345/1/104 338/1/370
f 86/1/186 85/1/256 66/1/179 81/1/178
f 191/1/434 215/1/475 199/1/421 192/1/424
f 249/1/442 261/1/374 199/1/421 215/1/475
f 324/1/346 326/1/474 317/1/466 318/1/432
f 310/1/429 318/1/432 317/1/466 311/1/385
f 317/1/466 326/1/474 325/1/125 320/1/128
f 367/1/460 409/1/42 387/1/443 381/1/456
f 264/1/208 271/1/207 258/1/368 259/1/367
f 199/1/421 261/1/374 207/1/373 200/1/422
f 298/1/418 275/1/384 268/1/372 267/1/371
f 417/1/39 409/1/42 367/1/460 416/1/377
f 251/1/416 262/1/390 243/1/291 244/1/290
f 207/1/373 268/1/372 216/1/386 208/1/426
f 430/1/334 437/1/277 438/1/222 431/1/231
f 142/1/446 184/1/436 148/1/435 143/1/2
f 164/1/427 208/1/426 172/1/127 165/1/476
f 432/1/230 433/1/276 426/1/303 431/1/231
f 214/1/448 250/1/433 249/1/442 215/1/475
f 156/1/423 200/1/422 164/1/427 157/1/439
f 148/1/435 192/1/424 156/1/423 149/1/437
f 164/1/427 165/1/476 113/1/440 157/1/439
f 172/1/127 327/1/126 120/1/65 165/1/476
f 113/1/440 165/1/476 120/1/65 114/1/68
f 332/1/302 334/1/66 120/1/65 327/1/126
f 332/1/302 341/1/137 340/1/160 334/1/66
f 156/1/423 157/1/439 106/1/438 149/1/437
f 106/1/438 107/1/62 89/1/61 99/1/193
f 100/1/3 149/1/437 106/1/438 99/1/193
f 339/1/138 341/1/137 332/1/302 333/1/301
f 340/1/160 342/1/477 110/1/67 334/1/66
f 469/1/115 471/1/117 470/1/453 468/1/360
f 349/1/159 370/1/478 342/1/477 340/1/160
f 393/1/450 402/1/458 395/1/471 392/1/451
f 348/1/180 356/1/431 373/1/470 368/1/181
f 387/1/443 409/1/42 408/1/41 399/1/441
f 6/1/8 11/1/25 10/1/24 7/1/45
f 93/1/236 111/1/235 104/1/221 98/1/146
f 402/1/458 448/1/457 5/1/7
f 26/1/9 34/1/16 35/1/15 27/1/10
f 37/1/37 74/1/121 50/1/112 43/1/27
f 31/1/28 58/1/113 53/1/270 47/1/87
f 91/1/336 101/1/4 94/1/192 90/1/246
f 94/1/192 99/1/193 89/1/61 87/1/86
f 448/1/457 454/1/459 5/1/7
f 69/1/85 88/1/64 82/1/362 75/1/309
f 228/1/413 244/1/290 236/1/289 229/1/417
f 110/1/67 342/1/477 103/1/21 102/1/462
f 82/1/362 102/1/462 103/1/21 83/1/20
f 35/1/15 36/1/77 28/1/22 27/1/10
f 454/1/459 458/1/48 5/1/7
f 370/1/478 351/1/18 103/1/21 342/1/477
f 369/1/463 374/1/465 351/1/18 370/1/478
f 53/1/270 65/1/228 46/1/141 47/1/87
f 458/1/48 463/1/47 5/1/7
f 70/1/163 90/1/246 63/1/245 64/1/164
f 54/1/52 477/1/51 476/1/114 59/1/96
f 63/1/245 87/1/86 69/1/85 62/1/479
f 197/1/93 198/1/216 175/1/363 190/1/94
f 374/1/465 379/1/468 359/1/19 351/1/18
f 83/1/20 359/1/19 51/1/79 56/1/101
f 463/1/47 470/1/453 5/1/7
f 379/1/468 390/1/80 51/1/79 359/1/19
f 5/1/7 470/1/453 471/1/117
f 410/1/223 413/1/224 404/1/263 403/1/233
f 220/1/447 235/1/214 197/1/93 221/1/92
f 5/1/7 472/1/50 48/1/53
f 5/1/7 471/1/117 472/1/50
f 57/1/161 64/1/164 45/1/452 52/1/142
f 45/1/452 64/1/164 63/1/245 62/1/479
f 369/1/463 370/1/478 349/1/159 364/1/300
f 475/1/90 478/1/97 59/1/96 476/1/114
f 69/1/85 75/1/309 39/1/308 62/1/479
f 33/1/123 40/1/130 39/1/308 38/1/100
f 479/1/89 455/1/88 460/1/188 464/1/157
f 38/1/100 44/1/60 23/1/59 33/1/123
f 45/1/452 62/1/479 39/1/308 40/1/130
f 480/1/480 481/1/481 482/1/482
f 480/1/480 482/1/482 483/1/483
f 481/1/481 484/1/484 482/1/482
f 483/1/483 482/1/482 485/1/485
f 485/1/485 482/1/482 486/1/486
f 486/1/486 482/1/482 487/1/487
f 482/1/482 488/1/488 489/1/489
f 482/1/482 490/1/490 487/1/487
f 482/1/482 491/1/491 490/1/490
f 482/1/482 492/1/492 488/1/488
f 482/1/482 493/1/493 491/1/491
f 489/1/489 494/1/494 482/1/482
f 494/1/494 493/1/493 482/1/482
f 495/1/495 482/1/496 496/1/497
f 495/1/495 497/1/498 482/1/496
f 496/1/497 482/1/496 498/1/499
f 497/1/498 499/1/500 482/1/496
f 499/1/500 500/1/501 482/1/496
f 500/1/501 501/1/502 482/1/496
f 501/1/502 502/1/503 482/1/496
f 482/1/496 503/1/504 504/1/505
f 482/1/496 502/1/503 505/1/506
f 482/1/496 504/1/505 506/1/507
f 482/1/496 505/1/506 507/1/508
f 482/1/496 507/1/508 508/1/509
f 503/1/504 482/1/496 508/1/509
f 285/1/399 286/1/414 263/1/396 279/1/395
