# Blender 4.3.2
# www.blender.org
o hair.005
v 7.287493 1.497929 -0.001416
v 7.288385 1.497743 -0.002035
v 7.285245 1.497276 -0.006545
v 7.286407 1.498054 -0.000997
v 7.289259 1.497914 0.003399
v 7.287330 1.498148 0.004153
v 7.289142 1.497528 -0.002809
v 7.290947 1.497605 0.002340
v 7.290769 1.497200 0.008443
v 7.288076 1.497469 0.009374
v 7.285245 1.498238 0.004404
v 7.285245 1.497578 0.009704
v 7.285246 1.498119 -0.000807
v 7.289744 1.497286 -0.003730
v 7.292353 1.497226 0.000923
v 7.293210 1.496823 0.006970
v 7.292233 1.495961 0.013358
v 7.295415 1.495509 0.011486
v 7.288805 1.496268 0.014512
v 7.283164 1.498148 0.004154
v 7.282415 1.497469 0.009375
v 7.285245 1.496386 0.014911
v 7.284104 1.498058 -0.000983
v 7.295341 1.496317 0.005004
v 7.293553 1.496803 -0.000746
v 7.298208 1.494842 0.008958
v 7.297362 1.493474 0.015566
v 7.300669 1.492611 0.012546
v 7.281272 1.497934 0.003441
v 7.279765 1.497213 0.008415
v 7.281684 1.496268 0.014512
v 7.283054 1.497947 -0.001365
v 7.300447 1.493894 0.005854
v 7.297093 1.495661 0.002598
v 7.294427 1.496338 -0.002669
v 7.290192 1.497021 -0.004754
v 7.303339 1.491500 0.008849
v 7.279748 1.497690 0.002502
v 7.277484 1.496902 0.006849
v 7.282305 1.497803 -0.001833
v 7.302094 1.492801 0.002323
v 7.305283 1.490214 0.004651
v 7.298417 1.494915 -0.000150
v 7.290457 1.496733 -0.005871
v 7.295014 1.495835 -0.004752
v 7.305711 1.488653 0.011602
v 7.307826 1.487158 0.006831
v 7.281714 1.497671 -0.002425
v 7.278649 1.497494 0.001354
v 7.303125 1.491688 -0.001505
v 7.306419 1.488821 0.000116
v 7.309050 1.485563 0.001707
v 7.299267 1.494138 -0.003152
v 7.290536 1.496440 -0.007025
v 7.295187 1.495299 -0.006937
v 7.302761 1.489962 0.015816
v 7.281214 1.497429 -0.003610
v 7.303484 1.490547 -0.005483
v 7.306736 1.487379 -0.004571
v 7.309350 1.483925 -0.003567
v 7.310917 1.482256 0.003193
v 7.299593 1.493325 -0.006292
v 7.290397 1.496129 -0.008201
v 7.294996 1.494685 -0.009133
v 7.293585 1.494095 0.017810
v 7.299040 1.490996 0.019265
v 7.306224 1.485952 -0.009221
v 7.308697 1.482302 -0.008772
v 7.309635 1.483894 0.008822
v 7.307477 1.485500 0.014064
v 7.290061 1.495818 -0.009320
v 7.289496 1.494486 0.019188
v 7.294753 1.491747 0.021831
v 7.300410 1.488204 0.022276
v 7.304486 1.487082 0.018732
v 7.308921 1.482190 0.016425
v 7.289510 1.495533 -0.010339
v 7.294368 1.494082 -0.011224
v 7.285245 1.494624 0.019661
v 7.290093 1.492209 0.023404
v 7.301396 1.485180 0.024921
v 7.295557 1.489218 0.025080
v 7.305748 1.483795 0.021345
v 7.309948 1.478478 0.018874
v 7.311043 1.480463 0.010844
v 7.299325 1.492450 -0.009437
v 7.285245 1.492368 0.023942
v 7.290487 1.489824 0.026745
v 7.306495 1.480274 0.023781
v 7.312496 1.478761 0.004816
v 7.303111 1.489376 -0.009450
v 7.278339 1.495975 0.013252
v 7.280994 1.494486 0.019187
v 7.301864 1.481901 0.027256
v 7.306458 1.476768 0.025579
v 7.275362 1.495520 0.011217
v 7.276956 1.494126 0.017729
v 7.280396 1.492209 0.023403
v 7.295933 1.486596 0.027654
v 7.296234 1.483495 0.029725
v 7.301624 1.478448 0.028832
v 7.304964 1.484624 -0.013698
v 7.307249 1.480806 -0.013791
v 7.275751 1.496623 0.005080
v 7.275749 1.491765 0.021782
v 7.279938 1.489798 0.026754
v 7.290627 1.487509 0.029270
v 7.302056 1.488253 -0.013263
v 7.310478 1.478863 -0.008213
v 7.285245 1.490029 0.027319
v 7.279603 1.487406 0.029304
v 7.274821 1.489176 0.025065
v 7.298491 1.491567 -0.012450
v 7.311230 1.480580 -0.002576
v 7.277488 1.497146 -0.000729
v 7.285245 1.487807 0.029841
v 7.293407 1.493512 -0.013167
v 7.312915 1.476913 -0.001459
v 7.273753 1.496257 0.002331
v 7.272954 1.495130 0.008730
v 7.285245 1.484874 0.032297
v 7.290827 1.484382 0.031459
v 7.313623 1.474779 0.007010
v 7.272039 1.496016 -0.001627
v 7.270390 1.494574 0.005888
v 7.273277 1.493537 0.015406
v 7.290814 1.481131 0.032815
v 7.296381 1.479952 0.031239
v 7.311997 1.476539 0.013277
v 7.276637 1.496570 -0.003543
v 7.296153 1.476442 0.031965
v 7.300992 1.475586 0.029413
v 7.305997 1.473480 0.026470
v 7.312403 1.472792 0.015578
v 7.310156 1.474937 0.020753
v 7.280874 1.497081 -0.005087
v 7.270081 1.488204 0.022276
v 7.271502 1.491064 0.019095
v 7.295779 1.465966 0.031067
v 7.304801 1.466591 0.025800
v 7.309535 1.471277 0.022219
v 7.280650 1.496679 -0.006629
v 7.276309 1.495620 -0.006853
v 7.269058 1.485029 0.025035
v 7.274152 1.486436 0.027692
v 7.267749 1.490125 0.015871
v 7.269972 1.492754 0.012747
v 7.290512 1.477300 0.033174
v 7.312140 1.468547 0.017674
v 7.310486 1.462301 0.019269
v 7.272191 1.494030 -0.007120
v 7.273835 1.483358 0.029945
v 7.279336 1.484585 0.031430
v 7.283681 1.477694 0.035117
v 7.278234 1.465966 0.033174
v 7.313092 1.459285 0.014776
v 7.311437 1.453325 0.016320
v 7.279091 1.481216 0.033251
v 7.284901 1.481446 0.034096
v 7.267006 1.491946 0.009833
v 7.264487 1.490968 0.007129
v 7.268059 1.494127 0.002933
v 7.278903 1.477398 0.034246
v 7.274714 1.476758 0.032441
v 7.269498 1.475586 0.029413
v 7.313002 1.456444 0.010572
v 7.264581 1.488928 0.012531
v 7.263299 1.493876 -0.001127
v 7.268474 1.491644 -0.007132
v 7.274085 1.479955 0.031597
v 7.268820 1.478409 0.028943
v 7.264326 1.473405 0.026377
v 7.265690 1.466591 0.025800
v 7.314072 1.459613 0.004733
v 7.253489 1.492603 -0.000661
v 7.263885 1.476634 0.025503
v 7.268627 1.481717 0.027342
v 7.260956 1.471277 0.022219
v 7.313816 1.458208 -0.002715
v 7.314856 1.463766 0.003120
v 7.312649 1.453716 -0.000091
v 7.314181 1.465340 0.012362
v 7.257858 1.481766 0.001713
v 7.260626 1.484460 0.010789
v 7.264012 1.480262 0.023790
v 7.312485 1.456594 -0.009456
v 7.314094 1.461894 -0.003998
v 7.311800 1.452181 -0.007411
v 7.310314 1.448440 -0.004380
v 7.314270 1.470611 0.009348
v 7.262819 1.485652 0.014643
v 7.312681 1.460289 -0.010654
v 7.312493 1.464263 -0.011722
v 7.314055 1.465990 -0.005368
v 7.309494 1.450943 -0.013756
v 7.308556 1.447096 -0.011675
v 7.306436 1.443480 -0.008254
v 7.314835 1.468066 0.001639
v 7.265988 1.486992 0.018699
v 7.310276 1.458670 -0.016798
v 7.310046 1.462637 -0.017706
v 7.311813 1.468982 -0.012709
v 7.304504 1.443142 -0.014492
v 7.302576 1.439788 -0.011271
v 7.314201 1.472705 -0.000134
v 7.264788 1.483712 0.021481
v 7.310160 1.454999 -0.015533
v 7.300130 1.439926 -0.016024
v 7.298965 1.437452 -0.013207
v 7.313465 1.470724 -0.006617
v 7.312146 1.475165 -0.007553
v 7.261379 1.482008 0.016885
v 7.306711 1.453584 -0.020894
v 7.295297 1.437434 -0.016272
v 7.294959 1.436136 -0.014444
v 7.310494 1.473477 -0.013334
v 7.308895 1.477252 -0.013632
v 7.309370 1.467404 -0.018474
v 7.258477 1.476482 0.013149
v 7.306788 1.457170 -0.022116
v 7.306605 1.461172 -0.022995
v 7.290442 1.435356 -0.015236
v 7.308160 1.472001 -0.018821
v 7.306700 1.475890 -0.018791
v 7.305157 1.479542 -0.018535
v 7.306020 1.466011 -0.023623
v 7.302147 1.455946 -0.026279
v 7.302075 1.459948 -0.027239
v 7.290755 1.437294 -0.018078
v 7.285245 1.435029 -0.015394
v 7.304997 1.470722 -0.023745
v 7.302346 1.478475 -0.022778
v 7.303034 1.483476 -0.017879
v 7.301661 1.464840 -0.027830
v 7.296801 1.459036 -0.030308
v 7.296566 1.463955 -0.030904
v 7.280049 1.435356 -0.015236
v 7.279736 1.437294 -0.018078
v 7.285245 1.437123 -0.018430
v 7.300445 1.482498 -0.021591
v 7.300361 1.487233 -0.016777
v 7.300878 1.469639 -0.027788
v 7.296778 1.455051 -0.029245
v 7.291121 1.458499 -0.032088
v 7.275532 1.436136 -0.014444
v 7.275194 1.437434 -0.016272
v 7.285245 1.439602 -0.021232
v 7.297125 1.490727 -0.015205
v 7.298120 1.486377 -0.019892
v 7.302062 1.452477 -0.025027
v 7.296686 1.451687 -0.027932
v 7.291090 1.454532 -0.030995
v 7.271526 1.437452 -0.013207
v 7.290987 1.439741 -0.020775
v 7.295315 1.490016 -0.017632
v 7.295350 1.485651 -0.022426
v 7.297215 1.481683 -0.024640
v 7.292083 1.493039 -0.014806
v 7.270361 1.439926 -0.016024
v 7.267915 1.439788 -0.011271
v 7.295963 1.439964 -0.019302
v 7.298755 1.477573 -0.026263
v 7.293500 1.481058 -0.026899
v 7.294577 1.476874 -0.028835
v 7.288799 1.495288 -0.011207
v 7.265987 1.443142 -0.014492
v 7.264055 1.443480 -0.008254
v 7.290985 1.442405 -0.023428
v 7.296278 1.442632 -0.021675
v 7.301105 1.442974 -0.018727
v 7.299887 1.473748 -0.027223
v 7.287956 1.495091 -0.011877
v 7.261935 1.447096 -0.011675
v 7.260177 1.448440 -0.004380
v 7.296508 1.445490 -0.024170
v 7.301557 1.445832 -0.020993
v 7.305604 1.446343 -0.016960
v 7.287043 1.494957 -0.012353
v 7.290509 1.492623 -0.016122
v 7.258245 1.452738 -0.006215
v 7.257842 1.453716 -0.000091
v 7.301839 1.449052 -0.023284
v 7.306314 1.449866 -0.019025
v 7.286149 1.494887 -0.012626
v 7.288768 1.492355 -0.017028
v 7.293089 1.489407 -0.019585
v 7.256437 1.458373 -0.000988
v 7.256419 1.459613 0.004733
v 7.285245 1.494877 -0.012706
v 7.287017 1.492189 -0.017606
v 7.285245 1.492153 -0.017755
v 7.290596 1.488961 -0.021029
v 7.292194 1.485103 -0.024307
v 7.255949 1.461960 -0.001630
v 7.257349 1.456948 -0.007340
v 7.284343 1.494902 -0.012585
v 7.285245 1.488612 -0.022187
v 7.283471 1.492189 -0.017605
v 7.288783 1.484763 -0.025449
v 7.289453 1.480654 -0.028243
v 7.290005 1.476417 -0.030345
v 7.260997 1.450943 -0.013756
v 7.260071 1.455106 -0.015050
v 7.283436 1.494995 -0.012242
v 7.285245 1.480507 -0.028686
v 7.285245 1.476249 -0.030832
v 7.295365 1.472983 -0.030017
v 7.290409 1.472489 -0.031640
v 7.264176 1.449866 -0.019025
v 7.264886 1.446343 -0.016960
v 7.282465 1.495168 -0.011597
v 7.281700 1.492370 -0.016980
v 7.296047 1.468809 -0.030754
v 7.303741 1.474734 -0.023423
v 7.268652 1.449052 -0.023284
v 7.268934 1.445832 -0.020993
v 7.269385 1.442974 -0.018727
v 7.282533 1.488698 -0.021896
v 7.273983 1.445490 -0.024170
v 7.274213 1.442632 -0.021675
v 7.274528 1.439964 -0.019302
v 7.287957 1.488698 -0.021897
v 7.285245 1.484646 -0.025835
v 7.281707 1.484763 -0.025449
v 7.291013 1.463416 -0.032664
v 7.279506 1.442405 -0.023428
v 7.279504 1.439741 -0.020775
v 7.285245 1.458325 -0.032655
v 7.285245 1.463233 -0.033214
v 7.290754 1.468285 -0.032458
v 7.291034 1.451221 -0.029644
v 7.285245 1.451070 -0.030203
v 7.285245 1.454366 -0.031566
v 7.285245 1.468100 -0.032994
v 7.285245 1.472309 -0.032158
v 7.285245 1.442302 -0.023923
v 7.281038 1.480654 -0.028243
v 7.291002 1.448154 -0.027954
v 7.279400 1.454532 -0.030995
v 7.280082 1.472489 -0.031640
v 7.280486 1.476417 -0.030345
v 7.285245 1.445144 -0.026385
v 7.279503 1.445243 -0.025891
v 7.290987 1.445243 -0.025891
v 7.279370 1.458499 -0.032088
v 7.275914 1.476874 -0.028835
v 7.279489 1.448154 -0.027954
v 7.285245 1.448030 -0.028478
v 7.273898 1.448503 -0.026263
v 7.296593 1.448503 -0.026263
v 7.279478 1.463416 -0.032664
v 7.276990 1.481059 -0.026899
v 7.273805 1.451687 -0.027932
v 7.273924 1.463955 -0.030904
v 7.279737 1.468285 -0.032458
v 7.278296 1.485103 -0.024306
v 7.279457 1.451221 -0.029644
v 7.273713 1.455051 -0.029245
v 7.273689 1.459036 -0.030308
v 7.274444 1.468809 -0.030754
v 7.275126 1.472983 -0.030017
v 7.279892 1.488964 -0.021022
v 7.268344 1.455946 -0.026279
v 7.268415 1.459948 -0.027239
v 7.270597 1.473747 -0.027218
v 7.268830 1.464840 -0.027830
v 7.269602 1.469641 -0.027779
v 7.271731 1.477573 -0.026260
v 7.279906 1.492677 -0.015937
v 7.268429 1.452477 -0.025027
v 7.264471 1.466011 -0.023623
v 7.265401 1.470929 -0.023308
v 7.268175 1.478817 -0.022490
v 7.273273 1.481686 -0.024636
v 7.281581 1.495429 -0.010693
v 7.263780 1.453584 -0.020894
v 7.270141 1.482838 -0.021327
v 7.275139 1.485656 -0.022420
v 7.280956 1.495800 -0.009443
v 7.278310 1.493192 -0.014279
v 7.280635 1.496253 -0.008034
v 7.263703 1.457170 -0.022116
v 7.277388 1.489417 -0.019559
v 7.272494 1.486643 -0.019604
v 7.277058 1.493918 -0.012008
v 7.276482 1.494823 -0.009372
v 7.275219 1.490169 -0.017318
v 7.257009 1.460688 -0.008093
v 7.259795 1.458880 -0.015947
v 7.263886 1.461172 -0.022995
v 7.267688 1.484521 -0.016913
v 7.270537 1.488169 -0.015739
v 7.273489 1.491250 -0.014190
v 7.259998 1.462923 -0.016642
v 7.260628 1.467886 -0.016956
v 7.265473 1.480876 -0.017428
v 7.265459 1.486192 -0.011969
v 7.269003 1.489721 -0.011296
v 7.272424 1.492679 -0.010554
v 7.266711 1.475021 -0.023065
v 7.263575 1.476859 -0.017417
v 7.261347 1.479151 -0.010979
v 7.261932 1.472852 -0.017180
v 7.258648 1.471479 -0.008768
v 7.248696 1.478269 0.003225
v 7.257252 1.464661 -0.008519
v 7.255060 1.466491 0.003979
v 7.260579 1.478448 0.018756
v 7.256474 1.465966 0.013160
v 7.258432 1.468633 0.017816
v 7.260337 1.474830 0.020588
v 7.257452 1.459391 0.014911
v 7.260005 1.462301 0.019269
v 7.257736 1.456469 0.010526
v 7.259054 1.453325 0.016320
v 7.310314 1.448440 -0.004380
v 7.312649 1.453716 -0.000091
v 7.285245 1.459215 0.005433
v 7.314072 1.459613 0.004733
v 7.313002 1.456444 0.010572
v 7.311437 1.453325 0.016320
v 7.259054 1.453325 0.016320
v 7.257736 1.456469 0.010526
v 7.285245 1.472855 0.011976
v 7.257842 1.453716 -0.000091
v 7.260177 1.448440 -0.004380
v 7.256419 1.459613 0.004733
v 7.310486 1.462301 0.019269
v 7.260005 1.462301 0.019269
v 7.309535 1.471277 0.022219
v 7.260956 1.471277 0.022219
v 7.304801 1.466591 0.025800
v 7.265690 1.466591 0.025800
v 7.300992 1.475586 0.029413
v 7.269498 1.475586 0.029413
v 7.295779 1.465966 0.031067
v 7.278234 1.465966 0.033174
v 7.290512 1.477300 0.033174
vn 0.1036 0.9898 -0.0977
vn 0.1364 0.9838 -0.1161
vn 0.0025 0.9672 -0.2540
vn 0.0607 0.9945 -0.0854
vn -0.8918 0.1548 -0.4251
vn -0.8651 0.2465 -0.4369
vn -0.7505 0.2215 -0.6227
vn -0.7696 0.0922 -0.6319
vn 0.6300 0.7657 0.1296
vn 0.5230 0.8507 0.0529
vn 0.4365 0.8893 0.1366
vn 0.5320 0.8148 0.2305
vn 0.1562 0.9787 -0.1334
vn 0.1885 0.9723 0.1379
vn 0.2620 0.9602 0.0969
vn 0.2070 0.9783 -0.0064
vn 0.1541 0.9878 0.0237
vn -0.8226 0.3295 -0.4634
vn -0.7519 0.4338 -0.4964
vn -0.6584 0.4186 -0.6255
vn -0.7142 0.3162 -0.6244
vn 0.5840 0.8113 -0.0273
vn 0.4586 0.8859 -0.0698
vn 0.4060 0.9137 -0.0148
vn 0.0006 0.9969 -0.0788
vn -0.0567 0.9948 -0.0847
vn -0.0858 0.9952 0.0473
vn 0.0002 0.9985 0.0546
vn 0.8991 0.4095 -0.1544
vn 0.8929 0.4502 -0.0041
vn 0.9327 0.3588 0.0378
vn 0.9404 0.3183 -0.1200
vn 0.1705 0.9731 -0.1550
vn -0.3657 -0.5836 -0.7251
vn -0.1733 -0.6094 -0.7737
vn -0.1654 -0.6698 -0.7239
vn -0.3545 -0.6432 -0.6787
vn -0.7510 -0.4001 -0.5253
vn -0.7249 -0.5004 -0.4735
vn -0.8327 -0.4988 -0.2405
vn -0.8732 -0.3554 -0.3335
vn 0.7217 0.6648 0.1928
vn 0.7958 0.6001 0.0816
vn 0.6972 0.7164 0.0243
vn 0.8727 -0.3550 -0.3351
vn 0.8903 -0.2355 -0.3898
vn 0.9547 -0.1984 -0.2219
vn 0.9308 -0.3322 -0.1526
vn -0.1052 0.9805 0.1659
vn -0.1244 0.9525 0.2781
vn -0.0000 0.9574 0.2889
vn -0.0000 0.9845 0.1755
vn 0.1050 0.9807 0.1648
vn 0.1221 0.9527 0.2783
vn 0.2294 0.9404 0.2509
vn -0.4270 0.4783 0.7674
vn -0.2402 0.5339 0.8107
vn -0.2199 0.6669 0.7119
vn -0.4084 0.6261 0.6642
vn 0.1459 0.9054 0.3987
vn 0.2815 0.8873 0.3654
vn -0.2483 0.9615 0.1176
vn -0.1916 0.9710 0.1430
vn -0.1449 0.9890 0.0282
vn -0.1763 0.9843 0.0116
vn 0.8400 0.4671 0.2760
vn 0.9008 0.4043 0.1587
vn 0.8582 0.4981 0.1238
vn 0.7912 0.5646 0.2351
vn 0.3299 0.8903 -0.3138
vn 0.3081 0.8743 -0.3751
vn 0.1647 0.9297 -0.3294
vn 0.1779 0.9390 -0.2944
vn -0.4374 0.2698 0.8578
vn -0.2627 0.3580 0.8960
vn -0.2378 0.9396 0.2462
vn -0.2863 0.8889 0.3577
vn -0.1478 0.9055 0.3977
vn 0.2298 0.8496 -0.4747
vn 0.1170 0.9159 -0.3840
vn 0.1450 0.9226 -0.3574
vn 0.2783 0.8603 -0.4272
vn -0.5518 0.2135 0.8062
vn -0.5088 0.0108 0.8608
vn -0.4402 0.0368 0.8971
vn -0.0948 0.9908 -0.0963
vn -0.1602 -0.7195 -0.6757
vn -0.1534 -0.7853 -0.5998
vn -0.3244 -0.7777 -0.5385
vn -0.3430 -0.7058 -0.6199
vn -0.2790 0.0906 0.9560
vn 0.4452 0.5247 -0.7256
vn 0.3711 0.6332 -0.6792
vn 0.4793 0.6378 -0.6029
vn 0.5706 0.5281 -0.6289
vn 0.1814 0.9666 -0.1813
vn 0.4961 0.8576 -0.1353
vn 0.3316 0.9274 -0.1731
vn 0.3131 0.9417 -0.1230
vn 0.1862 0.9596 -0.2111
vn 0.8738 0.3394 0.3482
vn 0.9327 0.2953 0.2073
vn -0.1087 0.9887 -0.1030
vn 0.2622 0.2660 0.9276
vn 0.2456 0.0173 0.9692
vn 0.3411 0.0147 0.9399
vn 0.3835 0.2448 0.8905
vn 0.9591 -0.0868 -0.2693
vn 0.9879 -0.0831 -0.1311
vn 0.9788 -0.1904 -0.0754
vn 0.7503 -0.4012 -0.5254
vn 0.5696 -0.4547 -0.6847
vn 0.5836 -0.3465 -0.7345
vn 0.7640 -0.2913 -0.5757
vn 0.9643 0.2502 0.0869
vn 0.9788 0.1897 -0.0778
vn 0.6293 0.7691 -0.1118
vn -0.1161 0.9867 -0.1140
vn -0.2802 0.9558 0.0891
vn -0.3680 0.9126 0.1783
vn -0.3220 0.9233 0.2094
vn 0.3368 0.9101 -0.2412
vn 0.1858 0.9501 -0.2506
vn 0.7467 0.4181 -0.5174
vn 0.6674 0.5304 -0.5227
vn 0.7280 0.5395 -0.4230
vn 0.8052 0.4258 -0.4128
vn -0.0000 0.7276 -0.6860
vn -0.0000 0.6210 -0.7838
vn -0.1272 0.6236 -0.7713
vn -0.1001 0.7296 -0.6765
vn 0.2805 0.7387 -0.6130
vn 0.3660 0.7464 -0.5558
vn -0.7535 0.5723 0.3235
vn -0.8408 0.4324 0.3258
vn -0.7027 0.5339 0.4703
vn -0.6524 0.6372 0.4103
vn 0.4906 0.0255 0.8710
vn 0.5314 0.2250 0.8167
vn -0.9165 0.1628 -0.3654
vn -0.8721 0.3423 -0.3497
vn -0.1368 0.9783 -0.1557
vn 0.0196 0.5352 0.8445
vn 0.0485 0.3244 0.9447
vn 0.2528 0.4888 0.8349
vn 0.5166 0.8263 -0.2244
vn 0.5120 0.7962 -0.3223
vn -0.3329 0.8197 0.4661
vn -0.4652 0.7863 0.4066
vn -0.5234 0.6935 0.4950
vn -0.3759 0.7337 0.5660
vn 0.5540 0.4352 0.7097
vn 0.7103 0.1973 0.6757
vn 0.7313 0.3974 0.5543
vn 0.5493 0.2957 -0.7816
vn 0.3732 0.2768 -0.8855
vn 0.3427 0.3979 -0.8510
vn 0.5061 0.4081 -0.7599
vn -0.9036 0.0368 -0.4268
vn -0.7797 -0.0424 -0.6247
vn 0.4831 0.7726 -0.4119
vn 0.0888 0.9950 0.0465
vn 0.3783 -0.4926 -0.7837
vn 0.3917 -0.3912 -0.8328
vn -0.9769 -0.2118 -0.0277
vn -0.9606 -0.2051 -0.1875
vn -0.9324 -0.3374 -0.1298
vn -0.9532 -0.3022 -0.0086
vn 0.0993 0.7293 -0.6769
vn 0.1939 0.7334 -0.6516
vn 0.2530 0.6288 -0.7352
vn 0.1272 0.6236 -0.7713
vn -0.5897 0.1793 -0.7875
vn -0.6053 0.0348 -0.7953
vn 0.6077 0.7341 0.3030
vn 0.5212 0.6931 0.4980
vn 0.6696 0.6423 0.3728
vn 0.4719 0.7839 0.4035
vn -0.5593 0.5863 0.5860
vn -0.7335 0.3909 0.5560
vn -0.5717 0.4338 0.6964
vn -0.0694 0.8320 -0.5505
vn -0.0006 0.8315 -0.5555
vn -0.0000 0.5080 -0.8614
vn -0.1489 0.5116 -0.8462
vn 0.5656 0.6435 -0.5158
vn 0.4359 0.7566 -0.4874
vn 0.6236 0.6560 -0.4252
vn -0.2853 0.9569 0.0551
vn -0.4007 0.9022 0.1593
vn -0.0000 0.9116 0.4110
vn 0.6935 0.3165 -0.6472
vn 0.7298 0.2086 -0.6510
vn 0.5815 0.1732 -0.7949
vn 0.7711 -0.1686 -0.6140
vn 0.8942 -0.1151 -0.4325
vn -0.8853 0.1688 0.4334
vn -0.7217 0.1960 0.6639
vn -0.8846 0.3046 0.3530
vn -0.1322 0.8379 -0.5296
vn -0.0775 0.9092 -0.4091
vn -0.0431 0.9068 -0.4194
vn -0.1919 0.8447 -0.4996
vn -0.1075 0.9129 -0.3938
vn -0.1960 0.7348 -0.6494
vn -0.2902 0.7428 -0.6033
vn -0.1965 0.7674 0.6103
vn -0.1714 0.8435 0.5090
vn 0.7927 0.3350 -0.5093
vn 0.8460 0.3507 -0.4016
vn 0.8826 0.2678 -0.3865
vn 0.8289 0.2434 -0.5036
vn 0.6028 0.0289 -0.7973
vn 0.7586 0.0738 -0.6474
vn 0.3322 0.9203 0.2064
vn 0.4102 0.8571 0.3115
vn 0.7416 0.6654 -0.0850
vn 0.7636 0.6130 -0.2029
vn 0.6567 0.7232 -0.2141
vn -0.0003 0.8525 0.5228
vn 0.1702 0.8436 0.5093
vn -0.6422 -0.0467 0.7651
vn -0.5205 0.8163 0.2504
vn -0.4677 0.8416 0.2703
vn -0.4849 0.6508 -0.5842
vn -0.3773 0.7572 -0.5332
vn -0.3770 0.6356 -0.6737
vn -0.3938 0.8665 0.3067
vn -0.5605 0.2949 -0.7739
vn -0.5139 0.4075 -0.7548
vn -0.3428 0.3979 -0.8510
vn -0.3733 0.2768 -0.8855
vn 0.4031 0.4589 0.7918
vn -0.9626 0.0909 -0.2551
vn -0.9060 -0.0949 -0.4125
vn -0.9707 -0.0573 -0.2334
vn 0.8363 0.5465 -0.0440
vn 0.3657 -0.5836 -0.7251
vn 0.5554 -0.5465 -0.6267
vn 0.0027 0.6833 0.7301
vn -0.0010 0.7823 0.6229
vn 0.8484 0.4975 -0.1805
vn 0.8863 -0.0078 -0.4630
vn 0.7712 -0.0526 -0.6344
vn 0.8652 0.1125 -0.4887
vn -0.4504 0.5259 -0.7215
vn -0.3018 0.5190 -0.7997
vn -0.9933 -0.0423 -0.1072
vn -0.1648 0.9343 -0.3160
vn -0.2816 0.8932 -0.3505
vn -0.2636 0.9181 -0.2960
vn -0.1686 0.9495 -0.2648
vn 0.3017 0.5190 -0.7998
vn 0.3310 0.8181 0.4704
vn 0.9419 0.1681 0.2909
vn 0.9815 0.1322 0.1386
vn -0.6428 0.5649 -0.5173
vn -0.5465 0.6771 -0.4928
vn -0.5754 0.5400 -0.6143
vn -0.1949 0.9785 -0.0671
vn -0.2221 0.9562 -0.1906
vn -0.2823 0.9487 -0.1426
vn 0.9976 0.0596 -0.0348
vn -0.2532 0.6290 -0.7350
vn 0.6348 -0.0419 0.7715
vn 0.8322 -0.0009 0.5545
vn 0.8746 0.1740 0.4525
vn -0.2472 0.8566 -0.4529
vn -0.1359 0.9180 -0.3726
vn 0.9720 -0.0229 0.2337
vn 0.9066 0.0147 0.4218
vn 0.6447 0.4152 -0.6419
vn -0.1931 0.9811 -0.0157
vn 0.2863 0.9547 -0.0808
vn -0.1584 0.9647 -0.2102
vn 0.3321 -0.0924 0.9387
vn 0.6039 -0.1803 0.7764
vn -0.0009 0.9062 -0.4228
vn 0.9618 0.1512 -0.2281
vn 0.9185 0.2882 -0.2707
vn 0.8679 -0.0674 0.4922
vn 0.7249 -0.5004 -0.4735
vn 0.7023 -0.6153 -0.3579
vn 0.5447 -0.6126 -0.5728
vn -0.0000 -0.6187 -0.7857
vn -0.0000 -0.5356 -0.8445
vn 0.1843 -0.5225 -0.8325
vn 0.1733 -0.6094 -0.7737
vn 0.5491 0.5870 0.5949
vn 0.3973 0.6151 0.6810
vn -0.3070 -0.9107 0.2763
vn -0.4021 -0.3511 0.8456
vn 0.0043 -0.7977 0.6031
vn -0.0000 -0.6621 0.7494
vn 0.0495 0.0161 0.9986
vn -0.2166 -0.1353 0.9668
vn -0.5709 0.7052 -0.4204
vn -0.4464 0.8030 -0.3948
vn -0.4344 0.7751 -0.4589
vn 0.9276 -0.1716 0.3318
vn 0.9384 -0.1299 0.3202
vn 0.8794 0.3737 -0.2950
vn -0.8887 -0.4461 -0.1053
vn 0.9762 -0.1888 0.1067
vn -0.5928 0.7211 0.3585
vn -0.6814 0.6695 0.2957
vn -0.3478 0.9128 0.2141
vn -0.2098 0.9750 -0.0733
vn -0.9843 -0.1715 0.0423
vn 0.2496 0.9674 -0.0431
vn 0.1958 -0.4231 -0.8847
vn 0.2033 -0.3155 -0.9269
vn 0.4048 -0.2861 -0.8685
vn 0.1469 -0.8225 -0.5494
vn 0.1534 -0.7853 -0.5998
vn 0.3244 -0.7777 -0.5385
vn 0.3158 -0.8010 -0.5086
vn -0.6016 -0.1862 0.7768
vn 0.9858 -0.1630 0.0412
vn -0.8918 0.4523 -0.0044
vn -0.3790 0.7883 -0.4847
vn -0.8254 -0.0077 0.5645
vn 0.9975 -0.0706 0.0053
vn 0.9596 -0.2787 -0.0390
vn -0.3666 0.8520 -0.3738
vn -0.8857 0.4601 -0.0625
vn -0.8618 0.4640 0.2049
vn 0.6556 0.6824 -0.3232
vn 0.8922 -0.4401 -0.1016
vn 0.3740 0.7297 0.5725
vn 0.1963 0.7665 0.6115
vn 0.2228 0.6547 0.7223
vn 0.8363 0.4529 -0.3090
vn 0.6825 -0.6709 -0.2899
vn 0.5088 -0.7387 -0.4420
vn 0.5344 -0.6950 -0.4810
vn 0.7805 -0.6050 -0.1576
vn 0.8315 -0.5006 -0.2409
vn -0.3964 0.1450 -0.9066
vn 0.2016 -0.0292 -0.9790
vn 0.1931 0.1261 -0.9730
vn 0.3963 0.1450 -0.9066
vn 0.4115 -0.0080 -0.9114
vn -0.0000 0.1195 -0.9928
vn -0.0000 0.2564 -0.9666
vn 0.1820 0.2622 -0.9477
vn -0.7664 -0.2877 -0.5743
vn -0.7760 -0.1623 -0.6095
vn -0.5964 -0.2331 -0.7681
vn -0.5836 -0.3465 -0.7345
vn -0.7805 -0.6050 -0.1576
vn -0.7023 -0.6153 -0.3579
vn -0.6825 -0.6709 -0.2899
vn -0.8962 -0.2313 -0.3787
vn -0.5344 -0.6950 -0.4810
vn -0.5088 -0.7387 -0.4420
vn 0.6065 -0.1110 -0.7873
vn 0.4140 -0.1595 -0.8962
vn -0.9055 0.2500 0.3429
vn 0.2055 -0.1846 -0.9611
vn -0.1469 -0.8225 -0.5494
vn -0.3158 -0.8010 -0.5086
vn 0.0394 0.9066 -0.4201
vn 0.0664 0.8317 -0.5513
vn 0.1760 0.8403 -0.5128
vn 0.7112 0.5418 0.4479
vn -0.6065 -0.1110 -0.7873
vn -0.4140 -0.1595 -0.8962
vn -0.4048 -0.2861 -0.8685
vn -0.0000 -0.7258 -0.6879
vn 0.1602 -0.7195 -0.6757
vn -0.0000 -0.7871 -0.6168
vn -0.4116 -0.0080 -0.9113
vn -0.0000 -0.8263 -0.5633
vn -0.5709 0.7406 0.3543
vn -0.2055 -0.1846 -0.9611
vn -0.2016 -0.0292 -0.9790
vn 0.0889 0.9109 -0.4030
vn -0.3917 -0.3912 -0.8328
vn -0.2033 -0.3155 -0.9269
vn -0.1958 -0.4231 -0.8847
vn -0.2794 0.8710 -0.4040
vn -0.1543 0.9247 -0.3480
vn -0.9066 0.0429 0.4198
vn -0.0000 -0.6801 -0.7331
vn -0.5447 -0.6126 -0.5728
vn 0.1654 -0.6698 -0.7239
vn 0.3545 -0.6432 -0.6787
vn 0.3430 -0.7058 -0.6199
vn -0.5554 -0.5465 -0.6267
vn 0.0665 0.9083 -0.4130
vn 0.1246 0.8361 -0.5343
vn -0.5696 -0.4547 -0.6847
vn -0.3783 -0.4926 -0.7837
vn 0.7592 0.5671 -0.3195
vn -0.9802 -0.1864 0.0665
vn -0.6851 0.5135 -0.5167
vn 0.1675 0.3879 -0.9063
vn 0.1489 0.5116 -0.8462
vn -0.1675 0.3879 -0.9063
vn 0.9253 0.1345 -0.3546
vn 0.9502 0.0111 -0.3115
vn -0.0000 0.3836 -0.9235
vn -0.1820 0.2622 -0.9477
vn -0.1931 0.1261 -0.9730
vn 0.3379 0.9402 0.0425
vn -0.0000 -0.1908 -0.9816
vn -0.0000 -0.3237 -0.9462
vn -0.0000 -0.0352 -0.9994
vn -0.1843 -0.5225 -0.8325
vn -0.0000 -0.4348 -0.9005
vn 0.5964 -0.2331 -0.7681
vn 0.9833 0.0211 -0.1807
vn -0.9374 -0.1414 0.3183
vn -0.9645 0.0143 0.2638
vn -0.9356 0.3527 0.0179
vn -0.8609 -0.0704 0.5039
vn -0.9678 -0.2340 0.0931
vn -0.9366 -0.1772 0.3024
vn 0.0272 -0.6378 0.7697
vn 0.0273 -0.6373 0.7701
vn 0.0182 -0.9811 0.1924
vn 0.0005 -0.8790 -0.4768
vn 0.3111 -0.9052 0.2896
vn -0.0005 -0.8790 -0.4768
vn 0.4021 -0.3511 0.8456
vn -0.0273 -0.6373 0.7701
vn -0.0272 -0.6378 0.7697
vn -0.0184 -0.9789 0.2035
vn -0.2200 -0.8970 0.3834
vn 0.2200 -0.8970 0.3834
vn -0.2009 -0.9674 -0.1542
vn 0.2009 -0.9674 -0.1542
vn -0.0030 -0.9875 0.1573
vn 0.0844 -0.9700 0.2281
vn -0.0615 -0.9492 -0.3086
vn 0.0063 -0.9516 -0.3072
vn -0.1681 -0.9556 0.2421
vt 0.000000 0.000000
s 1
f 1/1/1 2/1/2 3/1/3
f 1/1/1 3/1/3 4/1/4
f 395/1/5 403/1/6 372/1/7 371/1/8
f 37/1/9 33/1/10 26/1/11 28/1/12
f 2/1/2 7/1/13 3/1/3
f 9/1/14 16/1/15 8/1/16 5/1/17
f 401/1/18 396/1/19 373/1/20 400/1/21
f 41/1/22 43/1/23 34/1/24 33/1/10
f 13/1/25 23/1/26 20/1/27 11/1/28
f 114/1/29 61/1/30 90/1/31 118/1/32
f 4/1/4 3/1/3 13/1/25
f 7/1/13 14/1/33 3/1/3
f 319/1/34 343/1/35 326/1/36 320/1/37
f 309/1/38 310/1/39 273/1/40 302/1/41
f 37/1/9 46/1/42 47/1/43 42/1/44
f 195/1/45 207/1/46 186/1/47 188/1/48
f 21/1/49 31/1/50 22/1/51 12/1/52
f 10/1/53 19/1/54 17/1/55 9/1/14
f 152/1/56 153/1/57 111/1/58 145/1/59
f 19/1/54 72/1/60 65/1/61 17/1/55
f 13/1/25 3/1/3 23/1/26
f 39/1/62 30/1/63 29/1/64 38/1/65
f 76/1/66 85/1/67 69/1/68 70/1/69
f 64/1/70 78/1/71 71/1/72 63/1/73
f 152/1/56 170/1/74 158/1/75 153/1/57
f 92/1/76 97/1/77 93/1/78 31/1/50
f 258/1/79 265/1/80 77/1/81 117/1/82
f 171/1/83 165/1/84 164/1/85 170/1/74
f 23/1/26 3/1/3 32/1/86
f 327/1/87 238/1/88 246/1/89 321/1/90
f 163/1/91 158/1/75 170/1/74 164/1/85
f 257/1/92 256/1/93 249/1/94 240/1/95
f 36/1/96 3/1/3 14/1/33
f 43/1/23 53/1/97 45/1/98 35/1/99
f 35/1/99 45/1/98 44/1/100 36/1/96
f 84/1/101 129/1/102 85/1/67 76/1/66
f 32/1/86 3/1/3 40/1/103
f 127/1/104 148/1/105 131/1/106 128/1/107
f 186/1/47 192/1/108 187/1/109 179/1/110
f 283/1/111 282/1/112 250/1/113 213/1/114
f 36/1/96 44/1/100 3/1/3
f 123/1/115 205/1/116 118/1/32 90/1/31
f 50/1/117 53/1/97 43/1/23 41/1/22
f 372/1/7 403/1/6 401/1/18 400/1/21
f 40/1/103 3/1/3 48/1/118
f 104/1/119 120/1/120 96/1/121 39/1/62
f 55/1/122 64/1/70 63/1/73 54/1/123
f 225/1/124 233/1/125 102/1/126 103/1/127
f 297/1/128 323/1/129 324/1/130 318/1/131
f 256/1/93 286/1/132 255/1/133 249/1/94
f 44/1/100 54/1/123 3/1/3
f 191/1/134 212/1/135 206/1/136 199/1/137
f 131/1/106 132/1/138 101/1/139 128/1/107
f 403/1/6 404/1/140 402/1/141 401/1/18
f 48/1/118 3/1/3 57/1/142
f 121/1/143 159/1/144 127/1/104 122/1/145
f 62/1/146 86/1/147 64/1/70 55/1/122
f 105/1/148 138/1/149 137/1/150 112/1/151
f 94/1/152 101/1/139 95/1/153 89/1/154
f 271/1/155 307/1/156 264/1/157 262/1/158
f 54/1/123 63/1/73 3/1/3
f 394/1/159 395/1/5 371/1/8 390/1/160
f 86/1/147 113/1/161 78/1/71 64/1/70
f 6/1/162 11/1/28 12/1/52 10/1/53
f 350/1/163 251/1/164 250/1/113 282/1/112
f 287/1/165 295/1/166 280/1/167 281/1/168
f 322/1/169 292/1/170 293/1/171 299/1/172
f 371/1/8 372/1/7 367/1/173 366/1/174
f 28/1/12 56/1/175 46/1/42 37/1/9
f 47/1/43 46/1/42 70/1/69 69/1/68
f 63/1/73 71/1/72 3/1/3
f 74/1/176 75/1/177 56/1/175 66/1/178
f 144/1/179 206/1/136 185/1/180 177/1/181
f 297/1/128 318/1/131 298/1/182 291/1/183
f 323/1/129 305/1/184 337/1/185 324/1/130
f 241/1/186 248/1/187 113/1/161 108/1/188
f 5/1/17 8/1/16 2/1/2 1/1/1
f 71/1/72 77/1/81 3/1/3
f 119/1/189 125/1/190 120/1/120 104/1/119
f 22/1/51 79/1/191 72/1/60 19/1/54
f 271/1/155 314/1/192 231/1/193 242/1/194
f 213/1/114 220/1/195 200/1/196 207/1/46
f 411/1/197 176/1/198 185/1/180 408/1/199
f 298/1/182 312/1/200 304/1/201 296/1/202
f 312/1/200 369/1/203 311/1/204 304/1/201
f 362/1/205 383/1/206 369/1/203 312/1/200
f 105/1/148 112/1/151 106/1/207 98/1/208
f 224/1/209 217/1/210 216/1/211 223/1/212
f 234/1/213 242/1/194 231/1/193 226/1/214
f 18/1/215 27/1/216 28/1/12 26/1/11
f 50/1/117 51/1/217 59/1/218 58/1/219
f 293/1/171 292/1/170 286/1/132 256/1/93
f 79/1/191 87/1/220 80/1/221 72/1/60
f 171/1/83 176/1/198 172/1/222 165/1/84
f 125/1/190 160/1/223 147/1/224 120/1/120
f 384/1/225 387/1/226 383/1/206 378/1/227
f 120/1/120 147/1/224 126/1/228 96/1/121
f 365/1/229 368/1/230 346/1/231 361/1/232
f 100/1/233 128/1/107 101/1/139 94/1/152
f 406/1/234 394/1/159 389/1/235 388/1/236
f 224/1/209 225/1/124 103/1/127 217/1/210
f 47/1/43 69/1/68 61/1/30 52/1/237
f 275/1/238 350/1/163 282/1/112 276/1/239
f 85/1/67 129/1/102 123/1/115 90/1/31
f 111/1/58 116/1/240 110/1/241 106/1/207
f 61/1/30 114/1/29 60/1/242 52/1/237
f 60/1/242 59/1/218 51/1/217 52/1/237
f 201/1/243 221/1/244 226/1/214 218/1/245
f 368/1/230 374/1/246 352/1/247 346/1/231
f 294/1/248 388/1/236 295/1/166 287/1/165
f 106/1/207 110/1/241 87/1/220 98/1/208
f 144/1/179 177/1/181 152/1/56 145/1/59
f 112/1/151 145/1/59 111/1/58 106/1/207
f 93/1/78 98/1/208 87/1/220 79/1/191
f 381/1/249 386/1/250 143/1/251 142/1/252
f 263/1/253 293/1/171 256/1/93 257/1/92
f 111/1/58 153/1/57 121/1/143 116/1/240
f 11/1/28 20/1/27 21/1/49 12/1/52
f 5/1/17 6/1/162 10/1/53 9/1/14
f 408/1/199 185/1/180 206/1/136 212/1/135
f 72/1/60 80/1/221 73/1/254 65/1/61
f 58/1/219 62/1/146 53/1/97 50/1/117
f 134/1/255 190/1/256 123/1/115 129/1/102
f 391/1/257 392/1/258 384/1/225 377/1/259
f 115/1/260 130/1/261 124/1/262 119/1/189
f 198/1/263 205/1/116 123/1/115 190/1/256
f 374/1/246 378/1/227 356/1/264 352/1/247
f 17/1/55 65/1/61 27/1/216 18/1/215
f 95/1/153 133/1/265 141/1/266 135/1/267
f 369/1/203 380/1/268 375/1/269 311/1/204
f 182/1/270 190/1/256 134/1/255 149/1/271
f 240/1/95 232/1/272 262/1/158 257/1/92
f 126/1/228 138/1/149 105/1/148 97/1/77
f 38/1/65 49/1/273 104/1/119 39/1/62
f 34/1/24 43/1/23 35/1/99 25/1/274
f 57/1/142 3/1/3 136/1/275
f 42/1/44 47/1/43 52/1/237 51/1/217
f 132/1/138 131/1/106 139/1/276
f 132/1/138 140/1/277 133/1/265
f 291/1/183 298/1/182 296/1/202 289/1/278
f 133/1/265 140/1/277 141/1/266
f 365/1/229 400/1/21 373/1/20 368/1/230
f 136/1/275 3/1/3 142/1/252
f 377/1/259 373/1/20 396/1/19 391/1/257
f 210/1/279 211/1/280 118/1/32 205/1/116
f 127/1/104 128/1/107 100/1/233 122/1/145
f 400/1/21 365/1/229 367/1/173 372/1/7
f 177/1/181 185/1/180 176/1/198 171/1/83
f 139/1/276 131/1/106 148/1/105
f 141/1/266 150/1/281 149/1/271
f 276/1/239 277/1/282 203/1/283 270/1/284
f 342/1/285 348/1/286 338/1/287 344/1/288
f 81/1/289 99/1/290 100/1/233 94/1/152
f 421/1/291 428/1/292 424/1/293 418/1/294
f 148/1/105 154/1/295 155/1/296
f 398/1/297 399/1/298 393/1/299 392/1/258
f 150/1/281 157/1/300 156/1/301
f 216/1/211 217/1/210 109/1/302 211/1/280
f 32/1/86 40/1/103 38/1/65 29/1/64
f 280/1/167 302/1/41 273/1/40 274/1/303
f 255/1/133 258/1/79 117/1/82 248/1/187
f 30/1/63 92/1/76 31/1/50 21/1/49
f 155/1/296 154/1/295 163/1/91
f 155/1/296 163/1/91 164/1/85
f 155/1/296 164/1/85 165/1/84
f 157/1/300 166/1/304 156/1/301
f 160/1/223 161/1/305 167/1/306
f 162/1/307 124/1/262 168/1/308
f 162/1/307 168/1/308 161/1/305
f 406/1/234 294/1/248 407/1/309 404/1/140
f 8/1/16 15/1/310 7/1/13 2/1/2
f 232/1/272 240/1/95 233/1/125 225/1/124
f 251/1/164 331/1/311 252/1/312 243/1/313
f 222/1/314 229/1/315 214/1/316 215/1/317
f 165/1/84 172/1/222 173/1/318
f 166/1/304 174/1/319 156/1/301
f 168/1/308 175/1/320 161/1/305
f 168/1/308 169/1/321 175/1/320
f 251/1/164 350/1/163 338/1/287 331/1/311
f 125/1/190 162/1/307 161/1/305 160/1/223
f 172/1/222 178/1/322 173/1/318
f 180/1/323 198/1/263 190/1/256 182/1/270
f 174/1/319 181/1/324 179/1/110
f 18/1/215 16/1/15 9/1/14 17/1/55
f 130/1/261 143/1/251 151/1/325 124/1/262
f 161/1/305 175/1/320 183/1/326
f 161/1/305 183/1/326 184/1/327
f 161/1/305 184/1/327 167/1/306
f 314/1/192 224/1/209 223/1/212 231/1/193
f 398/1/297 169/1/321 151/1/325 399/1/298
f 108/1/188 113/1/161 86/1/147 91/1/328
f 181/1/324 189/1/329 188/1/48
f 377/1/259 384/1/225 378/1/227 374/1/246
f 167/1/306 184/1/327 191/1/134
f 45/1/98 55/1/122 54/1/123 44/1/100
f 82/1/330 88/1/331 107/1/332 99/1/290
f 109/1/302 217/1/210 103/1/127 68/1/333
f 56/1/175 75/1/177 70/1/69 46/1/42
f 204/1/334 209/1/335 208/1/336 203/1/283
f 189/1/329 197/1/337 196/1/338
f 141/1/266 149/1/271 134/1/255 135/1/267
f 360/1/339 367/1/173 365/1/229 361/1/232
f 199/1/137 206/1/136 144/1/179 137/1/150
f 325/1/340 330/1/341 313/1/342 236/1/343
f 334/1/344 335/1/345 308/1/346 330/1/341
f 376/1/347 382/1/348 363/1/349 370/1/350
f 267/1/351 273/1/40 266/1/352 260/1/353
f 307/1/156 271/1/155 242/1/194 313/1/342
f 303/1/354 376/1/347 309/1/38 302/1/41
f 260/1/353 266/1/352 259/1/355 253/1/356
f 226/1/214 231/1/193 223/1/212 218/1/245
f 313/1/342 330/1/341 308/1/346 307/1/156
f 191/1/134 184/1/327 212/1/135
f 95/1/153 135/1/267 84/1/101 89/1/154
f 236/1/343 313/1/342 242/1/194 234/1/213
f 259/1/355 321/1/90 246/1/89 253/1/356
f 209/1/335 215/1/317 214/1/316
f 87/1/220 110/1/241 88/1/331 80/1/221
f 236/1/343 234/1/213 228/1/357 235/1/358
f 184/1/327 219/1/359 212/1/135
f 184/1/327 183/1/326 219/1/359
f 244/1/360 325/1/340 236/1/343 235/1/358
f 246/1/89 238/1/88 237/1/361 245/1/362
f 144/1/179 145/1/59 112/1/151 137/1/150
f 291/1/183 289/1/278 284/1/363 290/1/364
f 255/1/133 286/1/132 279/1/365 258/1/79
f 303/1/354 302/1/41 280/1/167 295/1/166
f 81/1/289 94/1/152 89/1/154 83/1/366
f 382/1/348 390/1/160 364/1/367 363/1/349
f 363/1/349 364/1/367 359/1/368 358/1/369
f 81/1/289 83/1/366 75/1/177 74/1/176
f 390/1/160 382/1/348 389/1/235 394/1/159
f 88/1/331 82/1/330 73/1/254 80/1/221
f 113/1/161 248/1/187 117/1/82 78/1/71
f 27/1/216 66/1/178 56/1/175 28/1/12
f 240/1/95 249/1/94 241/1/186 233/1/125
f 186/1/47 207/1/46 200/1/196 192/1/108
f 247/1/370 254/1/371 229/1/315 239/1/372
f 364/1/367 366/1/174 354/1/373 359/1/368
f 230/1/374 239/1/372 229/1/315 222/1/314
f 25/1/274 35/1/99 36/1/96 14/1/33
f 160/1/223 167/1/306 146/1/375 147/1/224
f 366/1/174 367/1/173 360/1/339 354/1/373
f 345/1/376 359/1/368 354/1/373 351/1/377
f 200/1/196 220/1/195 221/1/244 201/1/243
f 83/1/366 89/1/154 84/1/101 76/1/66
f 327/1/87 247/1/370 239/1/372 238/1/88
f 110/1/241 116/1/240 107/1/332 88/1/331
f 258/1/79 279/1/365 272/1/378 265/1/80
f 353/1/379 370/1/350 363/1/349 358/1/369
f 353/1/379 358/1/369 339/1/380 357/1/381
f 245/1/362 253/1/356 246/1/89
f 84/1/101 135/1/267 134/1/255 129/1/102
f 53/1/97 62/1/146 55/1/122 45/1/98
f 411/1/197 178/1/322 172/1/222 176/1/198
f 69/1/68 85/1/67 90/1/31 61/1/30
f 78/1/71 117/1/82 77/1/81 71/1/72
f 380/1/268 385/1/382 379/1/383 375/1/269
f 411/1/197 408/1/199 219/1/359 410/1/384
f 1/1/1 4/1/4 6/1/162 5/1/17
f 101/1/139 132/1/138 133/1/265 95/1/153
f 65/1/61 73/1/254 66/1/178 27/1/216
f 77/1/81 265/1/80 3/1/3
f 196/1/338 195/1/45 188/1/48 189/1/329
f 326/1/36 336/1/385 247/1/370 327/1/87
f 326/1/36 327/1/87 321/1/90 320/1/37
f 320/1/37 321/1/90 259/1/355 317/1/386
f 208/1/336 270/1/284 203/1/283
f 12/1/52 22/1/51 19/1/54 10/1/53
f 33/1/10 37/1/9 42/1/44 41/1/22
f 118/1/32 211/1/280 109/1/302 114/1/29
f 265/1/80 272/1/378 3/1/3
f 283/1/111 213/1/114 207/1/46 195/1/45
f 267/1/351 274/1/303 273/1/40
f 268/1/387 269/1/388 261/1/389 254/1/371
f 320/1/37 317/1/386 316/1/390 319/1/34
f 316/1/390 317/1/386 266/1/352 310/1/39
f 203/1/283 277/1/282 196/1/338
f 272/1/378 278/1/391 3/1/3
f 378/1/227 383/1/206 362/1/205 356/1/264
f 286/1/132 292/1/170 285/1/392 279/1/365
f 276/1/239 270/1/284 269/1/388 275/1/238
f 274/1/303 281/1/168 280/1/167
f 315/1/393 370/1/350 353/1/379 349/1/394
f 315/1/393 349/1/394 319/1/34 316/1/390
f 315/1/393 316/1/390 310/1/39 309/1/38
f 315/1/393 309/1/38 376/1/347 370/1/350
f 49/1/273 38/1/65 40/1/103 48/1/118
f 278/1/391 284/1/363 3/1/3
f 290/1/364 322/1/169 297/1/128 291/1/183
f 67/1/395 91/1/328 58/1/219 59/1/218
f 23/1/26 32/1/86 29/1/64 20/1/27
f 281/1/168 288/1/396 287/1/165
f 284/1/363 289/1/278 3/1/3
f 146/1/375 199/1/137 137/1/150 138/1/149
f 73/1/254 82/1/330 74/1/176 66/1/178
f 4/1/4 13/1/25 11/1/28 6/1/162
f 396/1/19 401/1/18 402/1/141 397/1/397
f 263/1/253 264/1/157 301/1/398 300/1/399
f 82/1/330 99/1/290 81/1/289 74/1/176
f 289/1/278 296/1/202 3/1/3
f 318/1/131 362/1/205 312/1/200 298/1/182
f 285/1/392 290/1/364 284/1/363 278/1/391
f 121/1/143 122/1/145 107/1/332 116/1/240
f 352/1/247 356/1/264 324/1/130 337/1/185
f 346/1/231 352/1/247 337/1/185 341/1/400
f 201/1/243 218/1/245 202/1/401 193/1/402
f 20/1/27 29/1/64 30/1/63 21/1/49
f 296/1/202 304/1/201 3/1/3
f 97/1/77 105/1/148 98/1/208 93/1/78
f 341/1/400 337/1/185 305/1/184 306/1/403
f 264/1/157 307/1/156 308/1/346 301/1/398
f 340/1/404 361/1/232 346/1/231 341/1/400
f 233/1/125 241/1/186 108/1/188 102/1/126
f 283/1/111 195/1/45 196/1/338 277/1/282
f 273/1/40 310/1/39 266/1/352
f 304/1/201 311/1/204 3/1/3
f 179/1/110 187/1/109 180/1/323 174/1/319
f 303/1/354 389/1/235 382/1/348 376/1/347
f 360/1/339 361/1/232 340/1/404 355/1/405
f 30/1/63 39/1/62 96/1/121 92/1/76
f 57/1/142 115/1/260 49/1/273 48/1/118
f 266/1/352 317/1/386 259/1/355
f 232/1/272 314/1/192 271/1/155 262/1/158
f 163/1/91 154/1/295 159/1/144 158/1/75
f 383/1/206 387/1/226 380/1/268 369/1/203
f 386/1/250 399/1/298 151/1/325 143/1/251
f 356/1/264 362/1/205 318/1/131 324/1/130
f 322/1/169 299/1/172 323/1/129 297/1/128
f 354/1/373 360/1/339 355/1/405 351/1/377
f 268/1/387 344/1/288 275/1/238 269/1/388
f 33/1/10 34/1/24 24/1/406 26/1/11
f 254/1/371 261/1/389 214/1/316 229/1/315
f 202/1/401 216/1/211 211/1/280 210/1/279
f 339/1/380 345/1/376 328/1/407 333/1/408
f 345/1/376 351/1/377 329/1/409 328/1/407
f 201/1/243 193/1/402 192/1/108 200/1/196
f 244/1/360 328/1/407 329/1/409 325/1/340
f 334/1/344 355/1/405 340/1/404 335/1/345
f 305/1/184 323/1/129 299/1/172 300/1/399
f 351/1/377 355/1/405 334/1/344 329/1/409
f 353/1/379 357/1/381 347/1/410 349/1/394
f 332/1/411 357/1/381 339/1/380 333/1/408
f 332/1/411 333/1/408 252/1/312 331/1/311
f 388/1/236 389/1/235 303/1/354 295/1/166
f 308/1/346 335/1/345 306/1/403 301/1/398
f 60/1/242 114/1/29 109/1/302 68/1/333
f 326/1/36 343/1/35 342/1/285 336/1/385
f 247/1/370 336/1/385 268/1/387 254/1/371
f 191/1/134 199/1/137 146/1/375 167/1/306
f 347/1/410 348/1/286 342/1/285 343/1/35
f 152/1/56 177/1/181 171/1/83 170/1/74
f 300/1/399 301/1/398 306/1/403 305/1/184
f 158/1/75 159/1/144 121/1/143 153/1/57
f 218/1/245 223/1/212 216/1/211 202/1/401
f 338/1/287 350/1/163 275/1/238 344/1/288
f 348/1/286 332/1/411 331/1/311 338/1/287
f 329/1/409 334/1/344 330/1/341 325/1/340
f 31/1/50 93/1/78 79/1/191 22/1/51
f 293/1/171 263/1/253 300/1/399 299/1/172
f 126/1/228 147/1/224 146/1/375 138/1/149
f 347/1/410 357/1/381 332/1/411 348/1/286
f 227/1/412 250/1/113 251/1/164 243/1/313
f 59/1/218 60/1/242 68/1/333 67/1/395
f 358/1/369 359/1/368 345/1/376 339/1/380
f 243/1/313 252/1/312 244/1/360 235/1/358
f 364/1/367 390/1/160 371/1/8 366/1/174
f 107/1/332 122/1/145 100/1/233 99/1/290
f 227/1/412 243/1/313 235/1/358 228/1/357
f 202/1/401 210/1/279 194/1/413 193/1/402
f 194/1/413 210/1/279 205/1/116 198/1/263
f 67/1/395 68/1/333 103/1/127 102/1/126
f 340/1/404 341/1/400 306/1/403 335/1/345
f 257/1/92 262/1/158 264/1/157 263/1/253
f 75/1/177 83/1/366 76/1/66 70/1/69
f 96/1/121 126/1/228 97/1/77 92/1/76
f 228/1/357 234/1/213 226/1/214 221/1/244
f 279/1/365 285/1/392 278/1/391 272/1/378
f 26/1/11 24/1/406 16/1/15 18/1/215
f 24/1/406 34/1/24 25/1/274 15/1/310
f 91/1/328 86/1/147 62/1/146 58/1/219
f 156/1/301 182/1/270 149/1/271 150/1/281
f 311/1/204 375/1/269 3/1/3
f 249/1/94 255/1/133 248/1/187 241/1/186
f 213/1/114 250/1/113 227/1/412 220/1/195
f 224/1/209 314/1/192 232/1/272 225/1/124
f 282/1/112 283/1/111 277/1/282 276/1/239
f 375/1/269 379/1/383 3/1/3
f 379/1/383 385/1/382 386/1/250 381/1/249
f 3/1/3 379/1/383 381/1/249
f 3/1/3 381/1/249 142/1/252
f 238/1/88 239/1/372 230/1/374 237/1/361
f 228/1/357 221/1/244 220/1/195 227/1/412
f 136/1/275 142/1/252 143/1/251 130/1/261
f 397/1/397 398/1/297 392/1/258 391/1/257
f 182/1/270 156/1/301 174/1/319 180/1/323
f 124/1/262 162/1/307 125/1/190 119/1/189
f 127/1/104 159/1/144 154/1/295 148/1/105
f 392/1/258 393/1/299 387/1/226 384/1/225
f 342/1/285 344/1/288 268/1/387 336/1/385
f 288/1/396 412/1/414 409/1/415 407/1/309
f 214/1/316 261/1/389 208/1/336 209/1/335
f 193/1/402 194/1/413 187/1/109 192/1/108
f 194/1/413 198/1/263 180/1/323 187/1/109
f 319/1/34 349/1/394 347/1/410 343/1/35
f 15/1/310 25/1/274 14/1/33 7/1/13
f 115/1/260 119/1/189 104/1/119 49/1/273
f 16/1/15 24/1/406 15/1/310 8/1/16
f 391/1/257 396/1/19 397/1/397
f 397/1/397 175/1/320 169/1/321
f 397/1/397 183/1/326 175/1/320
f 404/1/140 395/1/5 394/1/159 406/1/234
f 398/1/297 397/1/397 169/1/321
f 387/1/226 393/1/299 385/1/382 380/1/268
f 407/1/309 294/1/248 287/1/165 288/1/396
f 373/1/20 377/1/259 374/1/246 368/1/230
f 41/1/22 42/1/44 51/1/217 50/1/117
f 397/1/397 402/1/141 183/1/326
f 197/1/337 204/1/334 203/1/283 196/1/338
f 393/1/299 399/1/298 386/1/250 385/1/382
f 403/1/6 395/1/5 404/1/140
f 402/1/141 404/1/140 183/1/326
f 183/1/326 404/1/140 405/1/416
f 183/1/326 405/1/416 219/1/359
f 269/1/388 270/1/284 208/1/336 261/1/389
f 406/1/234 388/1/236 294/1/248
f 405/1/416 407/1/309 219/1/359
f 404/1/140 407/1/309 405/1/416
f 102/1/126 108/1/188 91/1/328 67/1/395
f 219/1/359 408/1/199 212/1/135
f 409/1/415 412/1/414 413/1/417 410/1/384
f 219/1/359 407/1/309 409/1/415
f 219/1/359 409/1/415 410/1/384
f 124/1/262 151/1/325 169/1/321 168/1/308
f 322/1/169 290/1/364 285/1/392 292/1/170
f 410/1/384 178/1/322 411/1/197
f 181/1/324 188/1/48 186/1/47 179/1/110
f 410/1/384 413/1/417 178/1/322
f 288/1/396 414/1/418 412/1/414
f 412/1/414 414/1/418 415/1/419
f 412/1/414 415/1/419 413/1/417
f 416/1/420 417/1/421 418/1/294
f 417/1/421 419/1/422 418/1/294
f 419/1/422 420/1/423 418/1/294
f 420/1/423 421/1/291 418/1/294
f 418/1/294 422/1/424 423/1/425
f 424/1/293 429/1/426 422/1/424 418/1/294
f 57/1/142 136/1/275 130/1/261 115/1/260
f 418/1/294 425/1/427 426/1/428
f 418/1/294 427/1/429 425/1/427
f 418/1/294 423/1/425 427/1/429
f 428/1/292 430/1/430 424/1/293
f 429/1/426 424/1/293 431/1/431
f 430/1/430 432/1/432 424/1/293
f 431/1/431 424/1/293 433/1/433
f 432/1/432 434/1/434 424/1/293
f 433/1/433 424/1/293 435/1/435
f 434/1/434 436/1/436 424/1/293
f 435/1/435 424/1/293 437/1/437
f 437/1/437 424/1/293 438/1/438
f 436/1/436 438/1/438 424/1/293
f 252/1/312 333/1/408 328/1/407 244/1/360
