# Blender 4.3.2
# www.blender.org
o hair.101
v 7.725738 0.369157 0.018024
v 7.723699 0.370818 0.017755
v 7.724713 0.368757 0.024066
v 7.726355 0.369362 0.011569
v 7.727500 0.367168 0.018025
v 7.726871 0.366441 0.024330
v 7.729931 0.364426 0.018025
v 7.720975 0.373035 0.017397
v 7.722794 0.370324 0.023769
v 7.720037 0.372370 0.023051
v 7.718532 0.371688 0.027292
v 7.721254 0.369415 0.029040
v 7.723418 0.367204 0.029886
v 7.715286 0.375001 0.020409
v 7.716302 0.375730 0.015990
v 7.722270 0.372892 0.011270
v 7.718544 0.367178 0.033038
v 7.715830 0.370123 0.030781
v 7.712726 0.372644 0.027854
v 7.714310 0.373990 0.024563
v 7.720763 0.364103 0.034605
v 7.723300 0.361199 0.034939
v 7.725709 0.364558 0.030464
v 7.716668 0.361347 0.036757
v 7.714209 0.364780 0.035219
v 7.711980 0.367961 0.032936
v 7.709782 0.376106 0.020346
v 7.728186 0.361016 0.030473
v 7.719271 0.357791 0.037480
v 7.725882 0.357724 0.034662
v 7.721906 0.354223 0.037357
v 7.729573 0.363301 0.024373
v 7.709550 0.361319 0.034764
v 7.710590 0.376952 0.016879
v 7.709014 0.374778 0.023866
v 7.704995 0.377045 0.017827
v 7.714127 0.354195 0.037077
v 7.728255 0.354075 0.033950
v 7.731862 0.359981 0.023285
v 7.711682 0.357762 0.036323
v 7.707798 0.364754 0.032449
v 7.716816 0.350727 0.036976
v 7.730408 0.357153 0.029612
v 7.732151 0.361436 0.016933
v 7.733383 0.357775 0.022563
v 7.706470 0.367808 0.029935
v 7.709771 0.370784 0.030080
v 7.716708 0.376328 0.010179
v 7.710836 0.377838 0.011095
v 7.719663 0.347461 0.036051
v 7.733078 0.361218 0.009938
v 7.730293 0.365351 0.011605
v 7.707447 0.373011 0.026417
v 7.705615 0.370221 0.027778
v 7.715049 0.377097 0.006152
v 7.721614 0.373351 0.005104
v 7.704995 0.378205 0.012214
v 7.731501 0.363718 0.007269
v 7.704995 0.374929 0.022995
v 7.704995 0.372314 0.025800
v 7.719686 0.374633 0.002493
v 7.723725 0.371666 0.008354
v 7.725154 0.370482 0.000172
v 7.723006 0.371923 -0.002215
v 7.729272 0.366426 0.004734
v 7.732825 0.360758 0.002423
v 7.734500 0.357119 0.005150
v 7.704375 0.370221 0.027778
v 7.718066 0.375572 -0.000633
v 7.727190 0.368599 0.002279
v 7.724567 0.369616 -0.006312
v 7.720837 0.373224 -0.004844
v 7.733513 0.359601 0.016263
v 7.734360 0.358026 0.015139
v 7.735632 0.355661 0.013449
v 7.702543 0.373011 0.026417
v 7.703519 0.367808 0.029935
v 7.728979 0.366079 -0.002422
v 7.734616 0.355357 0.020995
v 7.700975 0.374778 0.023866
v 7.697264 0.372644 0.027854
v 7.700219 0.370784 0.030080
v 7.698009 0.367961 0.032936
v 7.702192 0.364754 0.032449
v 7.726907 0.368099 -0.004330
v 7.730916 0.363643 -0.000350
v 7.699399 0.376952 0.016879
v 7.700207 0.376106 0.020346
v 7.700439 0.361319 0.034764
v 7.727509 0.365413 -0.009025
v 7.731386 0.360676 -0.005656
v 7.733164 0.357312 -0.003256
v 7.735181 0.352978 -0.000479
v 7.694703 0.375001 0.020409
v 7.695679 0.373990 0.024563
v 7.693321 0.361347 0.036757
v 7.698307 0.357762 0.036323
v 7.695780 0.364780 0.035219
v 7.732649 0.353987 -0.009016
v 7.736453 0.351317 0.008917
v 7.691458 0.371688 0.027292
v 7.694160 0.370123 0.030781
v 7.695862 0.354195 0.037077
v 7.691446 0.367178 0.033038
v 7.737002 0.348843 0.016585
v 7.735849 0.352938 0.019427
v 7.737163 0.345784 0.010307
v 7.735928 0.348261 0.001920
v 7.690718 0.357791 0.037480
v 7.688083 0.354223 0.037357
v 7.693173 0.350727 0.036976
v 7.734805 0.348519 0.025057
v 7.733590 0.351598 0.026836
v 7.736774 0.340748 0.011904
v 7.736324 0.344048 0.004429
v 7.735383 0.345805 -0.003349
v 7.734208 0.349850 -0.006375
v 7.686689 0.361199 0.034939
v 7.690326 0.347461 0.036051
v 7.732062 0.354362 0.028329
v 7.731862 0.347986 0.030493
v 7.736050 0.345142 0.021748
v 7.736679 0.342244 0.016804
v 7.733222 0.346694 -0.011468
v 7.682970 0.347342 0.034694
v 7.687411 0.344499 0.034330
v 7.685484 0.350706 0.036423
v 7.730044 0.350957 0.032690
v 7.734715 0.342153 0.024580
v 7.735410 0.340023 0.020504
v 7.680596 0.344230 0.032253
v 7.684512 0.341909 0.031912
v 7.681734 0.354075 0.033950
v 7.684107 0.357724 0.034662
v 7.727019 0.347342 0.034694
v 7.724505 0.350706 0.036423
v 7.736222 0.339178 0.006252
v 7.736290 0.337825 0.012336
v 7.681716 0.339757 0.028894
v 7.681804 0.361016 0.030473
v 7.729393 0.344230 0.032253
v 7.731271 0.341617 0.028958
v 7.733454 0.344839 0.027649
v 7.735681 0.337251 0.001376
v 7.735050 0.333987 0.007893
v 7.735742 0.341357 -0.000619
v 7.735328 0.334903 0.012768
v 7.722579 0.344499 0.034330
v 7.734913 0.338220 -0.005870
v 7.734798 0.334405 -0.003778
v 7.734324 0.342391 -0.008475
v 7.734963 0.335840 0.017416
v 7.734208 0.338037 0.023061
v 7.733056 0.339526 0.025950
v 7.725477 0.341909 0.031912
v 7.733837 0.331036 -0.007514
v 7.734539 0.330590 -0.001863
v 7.733165 0.339717 -0.012131
v 7.733312 0.336821 0.021610
v 7.730906 0.338057 0.025414
v 7.728273 0.339757 0.028894
v 7.733147 0.326044 -0.005158
v 7.735299 0.329533 0.009401
v 7.735086 0.331085 0.009045
v 7.732037 0.324477 -0.007365
v 7.732712 0.324211 -0.005985
v 7.736010 0.326489 0.008120
v 7.735713 0.327970 0.009131
v 7.732088 0.328885 -0.009892
v 7.729521 0.326796 -0.011988
v 7.724658 0.321931 -0.009897
v 7.732278 0.322378 -0.006388
v 7.736194 0.324756 0.006389
v 7.734192 0.322392 -0.002813
v 7.733717 0.335438 -0.009685
v 7.732007 0.333159 -0.012283
v 7.730005 0.331301 -0.014771
v 7.726499 0.324980 -0.014012
v 7.722057 0.322826 -0.016486
v 7.722325 0.320450 -0.011271
v 7.724949 0.320939 -0.008677
v 7.732026 0.321246 -0.006397
v 7.725241 0.320059 -0.007601
v 7.736119 0.322472 0.004021
v 7.732026 0.321246 -0.006397
v 7.722370 0.327023 -0.019961
v 7.727169 0.329399 -0.017180
v 7.718714 0.318114 -0.013207
v 7.716724 0.325142 -0.022376
v 7.716435 0.320934 -0.018676
v 7.725532 0.319003 -0.006285
v 7.731931 0.319883 -0.006019
v 7.734402 0.321108 -0.002288
v 7.735989 0.321330 0.003660
v 7.731931 0.319883 -0.006019
v 7.722517 0.331695 -0.022903
v 7.714708 0.316798 -0.014444
v 7.710720 0.319805 -0.019756
v 7.732517 0.317157 -0.004498
v 7.725824 0.318026 -0.005080
v 7.734522 0.319868 -0.001861
v 7.735738 0.320266 0.004060
v 7.732517 0.317157 -0.004498
v 7.710191 0.316018 -0.015236
v 7.726891 0.315314 -0.001735
v 7.733037 0.314474 -0.003256
v 7.734660 0.317205 -0.000923
v 7.733626 0.317290 0.006391
v 7.735393 0.317175 0.003350
v 7.733037 0.314474 -0.003256
v 7.704995 0.315691 -0.015394
v 7.733153 0.313233 -0.002840
v 7.726990 0.313864 -0.000263
v 7.734794 0.314656 0.003005
v 7.734467 0.314638 -0.000368
v 7.731928 0.315104 0.008204
v 7.733153 0.313233 -0.002840
v 7.699270 0.319805 -0.019756
v 7.704995 0.319437 -0.019999
v 7.699799 0.316018 -0.015236
v 7.734329 0.313374 0.002980
v 7.731311 0.313678 0.008570
v 7.734282 0.313199 -0.000183
v 7.733788 0.311749 -0.000167
v 7.732721 0.311920 -0.003004
v 7.704995 0.323623 -0.023952
v 7.695282 0.316798 -0.014444
v 7.710828 0.324003 -0.023632
v 7.733490 0.311895 0.002982
v 7.730846 0.312338 0.008023
v 7.732412 0.310041 -0.000717
v 7.731167 0.310177 -0.004116
v 7.693554 0.320934 -0.018676
v 7.691275 0.318114 -0.013207
v 7.710869 0.328479 -0.026835
v 7.716811 0.329658 -0.025458
v 7.732097 0.310041 0.002317
v 7.730367 0.310326 0.005436
v 7.729864 0.308085 -0.004973
v 7.687932 0.322826 -0.016486
v 7.693265 0.325142 -0.022376
v 7.699162 0.324003 -0.023632
v 7.687664 0.320450 -0.011271
v 7.716792 0.334314 -0.027828
v 7.730528 0.308072 0.002301
v 7.729951 0.308095 0.003341
v 7.731355 0.307938 -0.000863
v 7.729508 0.307039 -0.005122
v 7.699121 0.328479 -0.026835
v 7.704995 0.328107 -0.027210
v 7.685332 0.321931 -0.009897
v 7.729743 0.306980 0.002613
v 7.731031 0.306858 -0.000631
v 7.730988 0.305889 -0.000370
v 7.729797 0.305921 -0.004813
v 7.704995 0.332649 -0.029688
v 7.710885 0.333020 -0.029284
v 7.683490 0.324980 -0.014012
v 7.687620 0.327023 -0.019961
v 7.729841 0.305904 0.002849
v 7.731373 0.303981 0.000795
v 7.731200 0.303600 -0.002830
v 7.710916 0.337438 -0.030925
v 7.722344 0.336693 -0.025147
v 7.716769 0.338966 -0.029416
v 7.722067 0.341890 -0.026558
v 7.687472 0.331695 -0.022903
v 7.682820 0.329399 -0.017180
v 7.693178 0.329658 -0.025458
v 7.730233 0.303872 0.004170
v 7.732112 0.301415 -0.001003
v 7.726766 0.339135 -0.022124
v 7.727307 0.334192 -0.019893
v 7.716533 0.343754 -0.029834
v 7.693197 0.334314 -0.027828
v 7.699104 0.333020 -0.029284
v 7.730581 0.301666 0.005269
v 7.731767 0.301729 0.002108
v 7.732203 0.300381 -0.000490
v 7.730074 0.336129 -0.017255
v 7.721371 0.347241 -0.026823
v 7.710949 0.341971 -0.031361
v 7.699073 0.337438 -0.030925
v 7.704995 0.337027 -0.031325
v 7.730557 0.300523 0.005602
v 7.731782 0.300350 0.002460
v 7.731634 0.299346 -0.000613
v 7.724634 0.351325 -0.023562
v 7.726159 0.344384 -0.023462
v 7.704995 0.341506 -0.031753
v 7.730078 0.299267 0.005277
v 7.731277 0.298975 0.002111
v 7.729140 0.297575 -0.001603
v 7.731757 0.337901 -0.014755
v 7.729429 0.340883 -0.019540
v 7.729047 0.347150 -0.020040
v 7.699039 0.341971 -0.031361
v 7.729997 0.297119 0.000894
v 7.729004 0.297390 0.003586
v 7.726639 0.295740 -0.002826
v 7.730757 0.342754 -0.017417
v 7.732040 0.344505 -0.014950
v 7.730206 0.348981 -0.017770
v 7.693221 0.338966 -0.029416
v 7.693457 0.343754 -0.029834
v 7.727809 0.295302 0.002160
v 7.728192 0.295270 -0.000379
v 7.725854 0.294822 -0.003046
v 7.731536 0.351025 -0.014160
v 7.728173 0.352611 -0.019696
v 7.725490 0.354897 -0.021283
v 7.729628 0.354658 -0.016360
v 7.687922 0.341890 -0.026558
v 7.687645 0.336693 -0.025147
v 7.688618 0.347241 -0.026823
v 7.727529 0.294438 -0.000623
v 7.727233 0.294258 0.001642
v 7.725711 0.293666 -0.002941
v 7.730802 0.357507 -0.011327
v 7.727567 0.357036 -0.017532
v 7.724880 0.358355 -0.019652
v 7.728901 0.360081 -0.013036
v 7.683224 0.339135 -0.022124
v 7.682683 0.334192 -0.019893
v 7.685356 0.351325 -0.023562
v 7.727192 0.293574 -0.000872
v 7.726998 0.293358 0.001284
v 7.725893 0.292486 -0.002557
v 7.729566 0.363249 -0.007520
v 7.679914 0.336129 -0.017255
v 7.679985 0.331301 -0.014771
v 7.683830 0.344384 -0.023462
v 7.727201 0.292409 -0.000867
v 7.727015 0.292229 0.000954
v 7.727502 0.291244 -0.000545
v 7.726456 0.291306 -0.001897
v 7.680469 0.326796 -0.011988
v 7.680560 0.340883 -0.019540
v 7.680942 0.347150 -0.020040
v 7.727364 0.291101 0.000912
v 7.729556 0.286586 0.001255
v 7.726918 0.362364 -0.014103
v 7.677901 0.328885 -0.009892
v 7.677952 0.324477 -0.007365
v 7.677711 0.322378 -0.006388
v 7.685040 0.320939 -0.008677
v 7.724730 0.365002 -0.014450
v 7.723746 0.362092 -0.018335
v 7.677982 0.333159 -0.012283
v 7.676152 0.331036 -0.007514
v 7.676272 0.335438 -0.009685
v 7.676843 0.326044 -0.005158
v 7.677277 0.324211 -0.005985
v 7.684749 0.320059 -0.007601
v 7.677964 0.321246 -0.006397
v 7.724969 0.367486 -0.010311
v 7.722351 0.365970 -0.017176
v 7.676824 0.339717 -0.012131
v 7.678232 0.337901 -0.014755
v 7.675076 0.338220 -0.005870
v 7.675451 0.330590 -0.001863
v 7.684457 0.319003 -0.006285
v 7.678059 0.319883 -0.006019
v 7.722321 0.369407 -0.011713
v 7.721841 0.371315 -0.008355
v 7.722605 0.367514 -0.014675
v 7.718374 0.369462 -0.016123
v 7.679232 0.342754 -0.017417
v 7.684165 0.318026 -0.005080
v 7.677472 0.317157 -0.004498
v 7.719032 0.371306 -0.013179
v 7.718668 0.372886 -0.010529
v 7.718214 0.374380 -0.007532
v 7.714932 0.372189 -0.015345
v 7.677948 0.344505 -0.014950
v 7.679783 0.348981 -0.017770
v 7.683099 0.315314 -0.001735
v 7.676952 0.314474 -0.003256
v 7.715437 0.375206 -0.009872
v 7.715476 0.373976 -0.012309
v 7.715982 0.376245 -0.003796
v 7.714137 0.377564 0.002786
v 7.712902 0.374529 -0.013334
v 7.712561 0.373384 -0.015117
v 7.676767 0.346694 -0.011468
v 7.676836 0.313233 -0.002840
v 7.682999 0.313864 -0.000263
v 7.713834 0.376529 -0.006849
v 7.712855 0.377783 -0.000625
v 7.710202 0.378082 0.007609
v 7.709165 0.374009 -0.015046
v 7.681816 0.352611 -0.019696
v 7.684500 0.354897 -0.021283
v 7.711339 0.377736 -0.003956
v 7.708816 0.378567 0.001026
v 7.709403 0.378439 0.004334
v 7.709350 0.374658 -0.014152
v 7.704995 0.374412 -0.014896
v 7.682422 0.357036 -0.017532
v 7.685109 0.358355 -0.019652
v 7.708114 0.378445 -0.002292
v 7.704995 0.378933 0.001737
v 7.712823 0.375493 -0.011455
v 7.709258 0.375297 -0.013126
v 7.681088 0.360081 -0.013036
v 7.680362 0.354658 -0.016360
v 7.683071 0.362364 -0.014103
v 7.685259 0.365002 -0.014450
v 7.686243 0.362092 -0.018335
v 7.704995 0.378592 0.007986
v 7.711622 0.376498 -0.009157
v 7.708554 0.375950 -0.011878
v 7.682480 0.365413 -0.009025
v 7.687638 0.365970 -0.017176
v 7.704995 0.378843 0.004926
v 7.709795 0.377430 -0.006981
v 7.707617 0.376507 -0.010850
v 7.678453 0.351025 -0.014160
v 7.687385 0.367514 -0.014675
v 7.691616 0.369462 -0.016123
v 7.700586 0.378439 0.004334
v 7.706379 0.376807 -0.010289
v 7.677340 0.353987 -0.009016
v 7.679188 0.357507 -0.011327
v 7.685020 0.367486 -0.010311
v 7.687669 0.369407 -0.011713
v 7.690958 0.371306 -0.013179
v 7.695057 0.372189 -0.015345
v 7.699788 0.378082 0.007609
v 7.678603 0.360676 -0.005656
v 7.680423 0.363249 -0.007520
v 7.685422 0.369616 -0.006312
v 7.688148 0.371316 -0.008355
v 7.691322 0.372886 -0.010529
v 7.681011 0.366079 -0.002422
v 7.683083 0.368099 -0.004330
v 7.694514 0.373976 -0.012309
v 7.697087 0.374529 -0.013334
v 7.697428 0.373384 -0.015117
v 7.699153 0.377838 0.011095
v 7.689153 0.373224 -0.004844
v 7.691775 0.374380 -0.007532
v 7.694552 0.375206 -0.009872
v 7.684835 0.370482 0.000172
v 7.697166 0.375493 -0.011455
v 7.700640 0.374658 -0.014152
v 7.700825 0.374009 -0.015046
v 7.693687 0.375730 0.015990
v 7.686983 0.371923 -0.002215
v 7.691923 0.375572 -0.000633
v 7.696155 0.376529 -0.006849
v 7.694007 0.376245 -0.003796
v 7.700731 0.375297 -0.013126
v 7.689013 0.373035 0.017397
v 7.689952 0.372370 0.023051
v 7.690304 0.374633 0.002493
v 7.688375 0.373351 0.005104
v 7.697134 0.377783 -0.000625
v 7.695852 0.377564 0.002786
v 7.701435 0.375950 -0.011878
v 7.687196 0.370324 0.023769
v 7.688735 0.369415 0.029040
v 7.682799 0.368599 0.002279
v 7.686265 0.371666 0.008354
v 7.694940 0.377097 0.006152
v 7.698368 0.376498 -0.009157
v 7.702372 0.376507 -0.010850
v 7.689227 0.364103 0.034605
v 7.680717 0.366426 0.004734
v 7.683635 0.369362 0.011569
v 7.687719 0.372892 0.011270
v 7.698650 0.377736 -0.003956
v 7.700193 0.377430 -0.006981
v 7.703610 0.376807 -0.010289
v 7.704995 0.376956 -0.010030
v 7.693281 0.376328 0.010179
v 7.701173 0.378567 0.001026
v 7.701875 0.378445 -0.002292
v 7.702618 0.377999 -0.005692
v 7.704995 0.378252 -0.005174
v 7.707371 0.377999 -0.005692
v 7.704995 0.378766 -0.001620
v 7.680058 0.364426 0.018025
v 7.682489 0.367168 0.018025
v 7.679697 0.365351 0.011605
v 7.686291 0.370818 0.017755
v 7.678488 0.363718 0.007269
v 7.684252 0.369157 0.018024
v 7.683118 0.366441 0.024330
v 7.685276 0.368757 0.024066
v 7.676911 0.361218 0.009938
v 7.677165 0.360758 0.002423
v 7.675489 0.357119 0.005150
v 7.679074 0.363643 -0.000350
v 7.686572 0.367204 0.029886
v 7.676826 0.357312 -0.003256
v 7.674808 0.352978 -0.000479
v 7.673537 0.351317 0.008917
v 7.674357 0.355661 0.013449
v 7.684279 0.364558 0.030464
v 7.674062 0.348261 0.001920
v 7.674606 0.345805 -0.003349
v 7.675782 0.349850 -0.006375
v 7.672987 0.348843 0.016585
v 7.672827 0.345784 0.010307
v 7.680416 0.363301 0.024373
v 7.673666 0.344048 0.004429
v 7.673214 0.340748 0.011904
v 7.679581 0.357153 0.029612
v 7.678127 0.359981 0.023285
v 7.677838 0.361436 0.016933
v 7.675665 0.342391 -0.008475
v 7.676607 0.357775 0.022563
v 7.677927 0.354362 0.028329
v 7.679945 0.350957 0.032690
v 7.675629 0.358026 0.015139
v 7.676476 0.359601 0.016263
v 7.674247 0.341357 -0.000619
v 7.676400 0.351598 0.026836
v 7.678128 0.347986 0.030493
v 7.675374 0.355357 0.020995
v 7.674140 0.352938 0.019427
v 7.674309 0.337251 0.001376
v 7.675191 0.334405 -0.003778
v 7.673767 0.339178 0.006252
v 7.678718 0.341617 0.028958
v 7.675184 0.348519 0.025057
v 7.673939 0.345142 0.021748
v 7.673311 0.342244 0.016804
v 7.674939 0.333987 0.007893
v 7.673700 0.337825 0.012336
v 7.674579 0.340023 0.020504
v 7.679084 0.338057 0.025414
v 7.675274 0.342153 0.024580
v 7.676535 0.344839 0.027649
v 7.674661 0.334903 0.012768
v 7.674690 0.329533 0.009401
v 7.674903 0.331085 0.009045
v 7.675781 0.338037 0.023061
v 7.675026 0.335840 0.017416
v 7.676677 0.336821 0.021610
v 7.676934 0.339526 0.025950
v 7.673979 0.326489 0.008120
v 7.674275 0.327970 0.009131
v 7.673795 0.324756 0.006389
v 7.675797 0.322392 -0.002813
v 7.673870 0.322472 0.004021
v 7.677964 0.321246 -0.006397
v 7.675588 0.321108 -0.002288
v 7.674000 0.321330 0.003660
v 7.678059 0.319883 -0.006019
v 7.675467 0.319868 -0.001861
v 7.674252 0.320266 0.004060
v 7.677472 0.317157 -0.004498
v 7.675329 0.317205 -0.000923
v 7.674597 0.317175 0.003350
v 7.676363 0.317290 0.006391
v 7.676952 0.314474 -0.003256
v 7.675522 0.314638 -0.000368
v 7.675195 0.314656 0.003005
v 7.678061 0.315104 0.008204
v 7.676836 0.313233 -0.002840
v 7.675707 0.313199 -0.000183
v 7.675660 0.313374 0.002980
v 7.678679 0.313678 0.008570
v 7.676201 0.311749 -0.000167
v 7.677269 0.311920 -0.003004
v 7.676500 0.311895 0.002982
v 7.679143 0.312338 0.008023
v 7.677577 0.310041 -0.000717
v 7.678822 0.310177 -0.004116
v 7.677892 0.310041 0.002317
v 7.679622 0.310326 0.005436
v 7.680126 0.308085 -0.004973
v 7.678634 0.307938 -0.000863
v 7.679461 0.308072 0.002301
v 7.680037 0.308095 0.003341
v 7.680481 0.307039 -0.005122
v 7.678958 0.306858 -0.000631
v 7.680246 0.306980 0.002613
v 7.679001 0.305889 -0.000370
v 7.680192 0.305921 -0.004813
v 7.680148 0.305904 0.002849
v 7.678617 0.303981 0.000795
v 7.678789 0.303600 -0.002830
v 7.679756 0.303872 0.004170
v 7.677877 0.301415 -0.001003
v 7.678223 0.301729 0.002108
v 7.679408 0.301666 0.005269
v 7.677785 0.300381 -0.000490
v 7.678207 0.300350 0.002460
v 7.679432 0.300523 0.005602
v 7.678355 0.299346 -0.000613
v 7.678712 0.298975 0.002111
v 7.679911 0.299267 0.005277
v 7.680849 0.297575 -0.001603
v 7.679992 0.297119 0.000894
v 7.680985 0.297390 0.003586
v 7.683350 0.295740 -0.002826
v 7.681797 0.295270 -0.000379
v 7.682180 0.295302 0.002160
v 7.684135 0.294822 -0.003046
v 7.682460 0.294438 -0.000623
v 7.682755 0.294258 0.001642
v 7.684278 0.293666 -0.002941
v 7.682797 0.293574 -0.000872
v 7.682992 0.293358 0.001284
v 7.684096 0.292486 -0.002557
v 7.682788 0.292409 -0.000867
v 7.682974 0.292229 0.000954
v 7.682487 0.291244 -0.000545
v 7.683533 0.291306 -0.001897
v 7.682625 0.291101 0.000912
v 7.680433 0.286586 0.001255
v 7.722325 0.320450 -0.011271
v 7.724658 0.321931 -0.009897
v 7.704995 0.336523 -0.000517
v 7.735738 0.320266 0.004060
v 7.735989 0.321330 0.003660
v 7.736119 0.322472 0.004021
v 7.733626 0.317290 0.006391
v 7.736194 0.324756 0.006389
v 7.731928 0.315104 0.008204
v 7.736010 0.326489 0.008120
v 7.731311 0.313678 0.008570
v 7.735713 0.327970 0.009131
v 7.726590 0.312754 0.000298
v 7.730846 0.312338 0.008023
v 7.674275 0.327970 0.009131
v 7.673979 0.326489 0.008120
v 7.673795 0.324756 0.006389
v 7.673870 0.322472 0.004021
v 7.685332 0.321931 -0.009897
v 7.687664 0.320450 -0.011271
v 7.732721 0.311920 -0.003004
v 7.724103 0.308116 0.002203
v 7.724813 0.307897 0.003722
v 7.674000 0.321330 0.003660
v 7.674252 0.320266 0.004060
v 7.731167 0.310177 -0.004116
v 7.723867 0.307002 0.002646
v 7.729864 0.308085 -0.004973
v 7.724166 0.307012 0.001663
v 7.724586 0.306864 0.003431
v 7.676363 0.317290 0.006391
v 7.724186 0.305817 0.002199
v 7.724846 0.305964 0.003375
v 7.729508 0.307039 -0.005122
v 7.729797 0.305921 -0.004813
v 7.678061 0.315104 0.008204
v 7.726635 0.301971 0.000608
v 7.730233 0.303872 0.004170
v 7.729841 0.305904 0.002849
v 7.730581 0.301666 0.005269
v 7.729401 0.301657 0.005084
v 7.727342 0.301824 -0.000710
v 7.678679 0.313678 0.008570
v 7.726914 0.300796 0.000160
v 7.730557 0.300523 0.005602
v 7.729743 0.306980 0.002613
v 7.683400 0.312754 0.000298
v 7.679143 0.312338 0.008023
v 7.729951 0.308095 0.003341
v 7.726431 0.299529 0.000490
v 7.729057 0.299419 0.004779
v 7.730078 0.299267 0.005277
v 7.685886 0.308116 0.002203
v 7.685176 0.307897 0.003722
v 7.677269 0.311920 -0.003004
v 7.730367 0.310326 0.005436
v 7.724543 0.296098 0.002303
v 7.723836 0.296447 0.001516
v 7.686121 0.307002 0.002646
v 7.685823 0.307012 0.001663
v 7.680126 0.308085 -0.004973
v 7.685404 0.306864 0.003431
v 7.678822 0.310177 -0.004116
v 7.723527 0.294996 0.001772
v 7.725854 0.294822 -0.003046
v 7.685143 0.305964 0.003375
v 7.685803 0.305817 0.002199
v 7.680192 0.305921 -0.004813
v 7.680481 0.307039 -0.005122
v 7.723819 0.293851 0.001766
v 7.726998 0.293358 0.001284
v 7.727233 0.294258 0.001642
v 7.726835 0.299545 -0.000259
v 7.726639 0.295740 -0.002826
v 7.725711 0.293666 -0.002941
v 7.683354 0.301971 0.000608
v 7.682648 0.301824 -0.000710
v 7.725893 0.292486 -0.002557
v 7.724468 0.292640 0.001466
v 7.727015 0.292229 0.000954
v 7.727809 0.295302 0.002160
v 7.729140 0.297575 -0.001603
v 7.683075 0.300796 0.000160
v 7.679432 0.300523 0.005602
v 7.680588 0.301657 0.005084
v 7.725284 0.291429 0.001317
v 7.726456 0.291306 -0.001897
v 7.727364 0.291101 0.000912
v 7.729004 0.297390 0.003586
v 7.731634 0.299346 -0.000613
v 7.677785 0.300381 -0.000490
v 7.729556 0.286586 0.001255
v 7.732203 0.300381 -0.000490
v 7.677877 0.301415 -0.001003
v 7.678789 0.303600 -0.002830
v 7.680148 0.305904 0.002849
v 7.679756 0.303872 0.004170
v 7.679408 0.301666 0.005269
v 7.680246 0.306980 0.002613
v 7.680037 0.308095 0.003341
v 7.679622 0.310326 0.005436
v 7.683558 0.299529 0.000490
v 7.680933 0.299419 0.004779
v 7.679911 0.299267 0.005277
v 7.683154 0.299545 -0.000259
v 7.686153 0.296447 0.001516
v 7.683350 0.295740 -0.002826
v 7.684135 0.294822 -0.003046
v 7.678355 0.299346 -0.000613
v 7.685446 0.296098 0.002303
v 7.680849 0.297575 -0.001603
v 7.686462 0.294996 0.001772
v 7.686170 0.293851 0.001766
v 7.684278 0.293666 -0.002941
v 7.682755 0.294258 0.001642
v 7.682992 0.293358 0.001284
v 7.684096 0.292486 -0.002557
v 7.685521 0.292640 0.001466
v 7.682974 0.292229 0.000954
v 7.684705 0.291429 0.001317
v 7.683533 0.291306 -0.001897
v 7.682625 0.291101 0.000912
v 7.680433 0.286586 0.001255
v 7.735299 0.329533 0.009401
v 7.704995 0.345539 0.000965
v 7.735086 0.331085 0.009045
v 7.674690 0.329533 0.009401
v 7.735050 0.333987 0.007893
v 7.674903 0.331085 0.009045
v 7.704995 0.364192 -0.002641
v 7.674939 0.333987 0.007893
v 7.735328 0.334903 0.012768
v 7.674661 0.334903 0.012768
v 7.734963 0.335840 0.017416
v 7.675026 0.335840 0.017416
v 7.733312 0.336821 0.021610
v 7.676677 0.336821 0.021610
v 7.730906 0.338057 0.025414
v 7.679084 0.338057 0.025414
v 7.728273 0.339757 0.028894
v 7.681716 0.339757 0.028894
v 7.725477 0.341909 0.031912
v 7.684512 0.341909 0.031912
v 7.722579 0.344499 0.034330
v 7.687411 0.344499 0.034330
v 7.719663 0.347461 0.036051
v 7.690326 0.347461 0.036051
v 7.716816 0.350727 0.036976
v 7.693173 0.350727 0.036976
v 7.714127 0.354195 0.037077
v 7.695862 0.354195 0.037077
v 7.711682 0.357762 0.036323
v 7.698307 0.357762 0.036323
v 7.709550 0.361319 0.034764
v 7.700439 0.361319 0.034764
v 7.707798 0.364754 0.032449
v 7.702192 0.364754 0.032449
v 7.706470 0.367808 0.029935
v 7.703519 0.367808 0.029935
v 7.705615 0.370221 0.027778
v 7.704375 0.370221 0.027778
v 7.704995 0.372314 0.025800
v 7.731200 0.303600 -0.002830
v 7.732112 0.301415 -0.001003
v 7.724780 0.355492 -0.026863
v 7.725286 0.356750 -0.023149
v 7.724752 0.359052 -0.026663
v 7.723430 0.357337 -0.030295
v 7.724490 0.353265 -0.026968
v 7.722936 0.360977 -0.030060
v 7.723870 0.362654 -0.026200
v 7.724620 0.360644 -0.022625
v 7.720799 0.357926 -0.033500
v 7.723046 0.353841 -0.030142
v 7.723711 0.350400 -0.026962
v 7.722506 0.350218 -0.029406
v 7.723331 0.365018 -0.021778
v 7.722309 0.367199 -0.025467
v 7.720834 0.353781 -0.033021
v 7.720581 0.349702 -0.031859
v 7.719852 0.346806 -0.029747
v 7.721688 0.369241 -0.021047
v 7.721069 0.368382 -0.028298
v 7.720739 0.371335 -0.024701
v 7.717523 0.353281 -0.036036
v 7.717594 0.349046 -0.034429
v 7.717124 0.345788 -0.032328
v 7.709627 0.344124 -0.035325
v 7.714039 0.344842 -0.034080
v 7.719028 0.374386 -0.021463
v 7.718406 0.373679 -0.019389
v 7.722228 0.364336 -0.029583
v 7.713750 0.348188 -0.036752
v 7.709580 0.347378 -0.038349
v 7.704995 0.347072 -0.038871
v 7.704995 0.343737 -0.035788
v 7.714460 0.381389 -0.021601
v 7.718622 0.375512 -0.023650
v 7.720073 0.365292 -0.032513
v 7.720444 0.361790 -0.033298
v 7.700363 0.344124 -0.035325
v 7.709364 0.351756 -0.040097
v 7.718382 0.372972 -0.028765
v 7.716970 0.376350 -0.026513
v 7.719330 0.369389 -0.030814
v 7.717228 0.362289 -0.036057
v 7.717428 0.358017 -0.036718
v 7.713582 0.352407 -0.038535
v 7.715552 0.372402 -0.031735
v 7.714278 0.375119 -0.029498
v 7.716513 0.368890 -0.033764
v 7.713541 0.357294 -0.039020
v 7.695951 0.344842 -0.034080
v 7.692865 0.345788 -0.032328
v 7.690137 0.346806 -0.029747
v 7.713195 0.367799 -0.035927
v 7.717113 0.365420 -0.035141
v 7.710669 0.375278 -0.028683
v 7.696239 0.348188 -0.036752
v 7.700409 0.347378 -0.038349
v 7.686278 0.350400 -0.026962
v 7.713475 0.362119 -0.038153
v 7.708974 0.376418 -0.030791
v 7.704995 0.383943 -0.022808
v 7.711860 0.373451 -0.031449
v 7.700625 0.351756 -0.040097
v 7.704995 0.351484 -0.040642
v 7.685499 0.353265 -0.026968
v 7.687484 0.350218 -0.029406
v 7.709360 0.362053 -0.039568
v 7.709359 0.356790 -0.040509
v 7.704995 0.356590 -0.041176
v 7.686560 0.357337 -0.030295
v 7.686943 0.353841 -0.030142
v 7.685209 0.355492 -0.026863
v 7.689408 0.349702 -0.031859
v 7.709016 0.367176 -0.037996
v 7.708919 0.372889 -0.034393
v 7.689190 0.357926 -0.033500
v 7.689155 0.353781 -0.033021
v 7.684703 0.356750 -0.023149
v 7.685237 0.359052 -0.026663
v 7.692467 0.353281 -0.036036
v 7.692395 0.349046 -0.034429
v 7.704995 0.371799 -0.036439
v 7.704995 0.375094 -0.034087
v 7.704995 0.378632 -0.030472
v 7.685369 0.360644 -0.022625
v 7.696407 0.352407 -0.038535
v 7.704995 0.367288 -0.038586
v 7.700973 0.367176 -0.037996
v 7.701070 0.372889 -0.034393
v 7.701015 0.376418 -0.030791
v 7.699321 0.375278 -0.028683
v 7.686658 0.365018 -0.021778
v 7.696448 0.357294 -0.039020
v 7.700630 0.356790 -0.040509
v 7.696795 0.367799 -0.035927
v 7.700629 0.362053 -0.039568
v 7.698129 0.373451 -0.031449
v 7.695711 0.375119 -0.029498
v 7.695529 0.381389 -0.021601
v 7.692561 0.358017 -0.036718
v 7.704995 0.362049 -0.040297
v 7.696514 0.362119 -0.038153
v 7.693018 0.376350 -0.026513
v 7.694437 0.372402 -0.031735
v 7.691607 0.372972 -0.028765
v 7.691367 0.375512 -0.023650
v 7.690961 0.374386 -0.021463
v 7.691584 0.373679 -0.019389
v 7.692761 0.362289 -0.036057
v 7.692876 0.365420 -0.035141
v 7.693477 0.368890 -0.033764
v 7.689250 0.371335 -0.024701
v 7.690659 0.369389 -0.030814
v 7.688920 0.368382 -0.028298
v 7.688301 0.369241 -0.021047
v 7.689546 0.361790 -0.033298
v 7.689916 0.365292 -0.032513
v 7.687681 0.367199 -0.025467
v 7.687761 0.364336 -0.029583
v 7.686119 0.362654 -0.026200
v 7.687053 0.360977 -0.030060
v 7.714932 0.372189 -0.015345
v 7.718374 0.369462 -0.016123
v 7.712561 0.373384 -0.015117
v 7.695057 0.372189 -0.015345
v 7.697428 0.373384 -0.015117
v 7.700825 0.374009 -0.015046
v 7.704995 0.374412 -0.014896
v 7.709165 0.374009 -0.015046
v 7.691616 0.369462 -0.016123
v 7.680985 0.297390 0.003586
v 7.682180 0.295302 0.002160
vn -0.4545 -0.4422 -0.7732
vn -0.4551 -0.2052 -0.8665
vn -0.2520 -0.2244 -0.9414
vn -0.2509 -0.5050 -0.8258
vn 0.6789 0.7237 0.1238
vn 0.6906 0.7212 0.0551
vn 0.6143 0.7782 0.1301
vn -0.6543 0.7169 0.2409
vn -0.6789 0.7237 0.1238
vn -0.7330 0.6672 0.1329
vn -0.7230 0.6439 0.2501
vn 0.7330 0.6672 0.1329
vn -0.1867 -0.2194 -0.9576
vn -0.2564 -0.4825 -0.8375
vn -0.0000 -0.5359 -0.8443
vn -0.0000 -0.2286 -0.9735
vn -0.6906 0.7212 0.0551
vn -0.7771 0.6259 0.0653
vn -0.7841 0.6056 0.1359
vn -0.6844 -0.1820 -0.7060
vn -0.6845 0.0100 -0.7290
vn -0.5729 -0.0778 -0.8160
vn -0.5758 -0.2589 -0.7755
vn -0.5303 0.8347 0.1486
vn -0.6143 0.7782 0.1301
vn -0.5752 0.7828 0.2372
vn -0.4623 0.8533 0.2412
vn 0.6606 0.7123 -0.2373
vn 0.6204 0.7337 -0.2772
vn 0.5817 0.7964 -0.1653
vn 0.6159 0.7796 -0.1137
vn 0.7923 -0.0340 0.6091
vn 0.8383 -0.1213 0.5316
vn 0.9241 0.0766 0.3743
vn 0.8899 0.1733 0.4220
vn -0.6436 0.5642 0.5171
vn -0.5576 0.6606 0.5027
vn -0.2922 0.9245 0.2449
vn -0.3533 0.9210 0.1639
vn -0.8870 0.4617 0.0062
vn -0.8278 0.5456 0.1307
vn 0.4100 -0.3455 -0.8441
vn 0.5758 -0.2589 -0.7755
vn 0.5613 -0.3912 -0.7293
vn 0.3946 -0.4667 -0.7915
vn -0.3402 0.8422 0.4183
vn -0.4566 0.7505 0.4779
vn -0.2362 0.6374 0.7334
vn -0.1416 0.7502 0.6459
vn 0.7339 0.4061 -0.5445
vn 0.8307 0.3066 -0.4646
vn 0.7578 0.2580 -0.5994
vn 0.8917 0.2049 -0.4036
vn -0.3278 0.5115 0.7943
vn -0.4535 0.3935 0.7997
vn 0.2697 0.9603 -0.0712
vn 0.1351 0.9905 -0.0248
vn 0.1484 0.9879 0.0453
vn 0.3230 0.9464 0.0040
vn 0.0075 0.3045 0.9525
vn -0.1171 0.1572 0.9806
vn -0.0526 0.8422 0.5366
vn 0.1894 0.5636 0.8041
vn 0.2638 0.6646 0.6990
vn -0.7923 -0.0340 0.6091
vn -0.5171 -0.3822 0.7659
vn -0.4208 -0.2590 0.8694
vn -0.7241 0.0610 0.6870
vn -0.0876 0.9472 0.3086
vn -0.2017 0.9112 0.3592
vn 0.0102 0.8953 0.4454
vn 0.2017 0.9112 0.3592
vn 0.2922 0.9245 0.2449
vn 0.0876 0.9472 0.3086
vn -0.7370 0.4399 0.5131
vn -0.5640 0.2782 0.7775
vn -0.7923 0.5497 0.2649
vn -0.2294 0.0204 0.9731
vn 0.1149 0.4472 0.8870
vn 0.3146 0.3035 0.8994
vn 0.4016 0.4072 0.8203
vn 0.2062 0.1687 0.9639
vn -0.1523 0.9676 0.2013
vn 0.1523 0.9676 0.2013
vn -0.0000 0.9661 0.2581
vn -0.0000 0.8771 0.4803
vn -0.0144 -0.1317 0.9912
vn 0.0944 0.0207 0.9953
vn -0.6529 0.1665 0.7389
vn -0.3264 -0.1206 0.9375
vn -0.8391 0.4725 0.2696
vn -0.8039 0.3365 0.4904
vn -0.8680 0.4833 0.1142
vn -0.8777 0.3957 0.2703
vn -0.8500 0.2590 0.4587
vn 0.4438 0.4951 0.7469
vn -0.3997 0.9142 0.0668
vn -0.1680 0.9796 0.1100
vn 0.8243 0.4911 -0.2815
vn 0.7458 0.5788 -0.3299
vn 0.7158 0.6721 -0.1894
vn 0.7911 0.5953 -0.1407
vn 0.2530 0.3970 -0.8823
vn -0.0000 0.5287 -0.8488
vn 0.3448 0.6017 -0.7204
vn 0.3548 0.4542 -0.8172
vn -0.8307 0.5559 -0.0287
vn -0.7620 0.6468 -0.0328
vn -0.4438 0.4951 0.7469
vn -0.2638 0.6646 0.6990
vn -0.2695 0.7348 0.6225
vn -0.3158 0.5920 0.7415
vn -0.8607 -0.1570 -0.4843
vn -0.8504 -0.1216 -0.5119
vn -0.9190 -0.0488 -0.3913
vn -0.9279 0.0722 -0.3659
vn -0.5799 0.8128 0.0562
vn -0.5758 0.8176 -0.0086
vn -0.6335 0.7737 0.0040
vn -0.7458 0.5788 -0.3299
vn -0.6894 0.6377 -0.3436
vn -0.7138 0.5340 -0.4532
vn -0.7201 0.4926 -0.4887
vn 0.8777 0.3957 0.2703
vn 0.9187 0.3162 0.2367
vn 0.9050 0.4148 0.0942
vn 0.8680 0.4833 0.1142
vn -0.5344 0.7656 -0.3581
vn -0.5063 0.8297 -0.2349
vn -0.3928 0.8668 -0.3072
vn -0.4159 0.7943 -0.4428
vn 0.7771 0.6259 0.0653
vn 0.8870 0.4617 0.0062
vn 0.8307 0.5559 -0.0287
vn -0.0102 0.8953 0.4454
vn -0.0000 0.7315 0.6818
vn 0.5799 0.8128 0.0562
vn 0.6335 0.7737 0.0040
vn -0.6575 0.7504 -0.0671
vn -0.6159 0.7796 -0.1137
vn -0.6606 0.7123 -0.2373
vn -0.7158 0.6721 -0.1894
vn -0.5323 0.8462 -0.0227
vn -0.8960 0.4310 -0.1066
vn -0.9423 0.3220 -0.0921
vn 0.3158 0.5920 0.7415
vn -0.4903 0.8691 -0.0655
vn -0.5817 0.7964 -0.1653
vn -0.9368 -0.1217 -0.3281
vn -0.8598 -0.2292 -0.4562
vn -0.8381 -0.2864 -0.4644
vn -0.9422 -0.1849 -0.2794
vn -0.7152 0.6980 -0.0350
vn -0.6693 -0.4352 -0.6022
vn -0.6890 -0.3092 -0.6555
vn -0.5613 -0.3912 -0.7293
vn -0.5440 -0.5110 -0.6655
vn -0.6204 0.7337 -0.2772
vn 0.8278 0.5456 0.1307
vn -0.9050 0.4148 0.0942
vn -0.9187 0.3162 0.2367
vn 0.9475 0.3187 0.0241
vn 0.2695 0.7348 0.6225
vn -0.7911 0.5953 -0.1407
vn -0.8488 0.5143 -0.1223
vn -0.9475 0.3187 0.0241
vn -0.9506 0.2376 0.1997
vn 0.4116 0.7531 -0.5132
vn 0.2586 0.7913 -0.5540
vn 0.2601 0.8252 -0.5014
vn 0.4159 0.7943 -0.4428
vn 0.0526 0.8422 0.5366
vn -0.0000 0.9984 0.0561
vn -0.0000 0.9969 0.0783
vn 0.1616 0.9844 0.0700
vn -0.2389 0.8942 -0.3787
vn -0.1942 0.9378 -0.2879
vn -0.0776 0.9133 -0.3998
vn -0.0921 0.8873 -0.4518
vn -0.0000 0.9912 0.1323
vn 0.1680 0.9796 0.1100
vn -0.5167 -0.6741 -0.5277
vn -0.7439 -0.3661 -0.5591
vn -0.6776 -0.5095 -0.5304
vn -0.6039 -0.6200 -0.5009
vn 0.6108 -0.1804 -0.7709
vn 0.5942 0.0332 -0.8036
vn 0.7360 0.0232 -0.6766
vn 0.7298 -0.1596 -0.6647
vn -0.8243 0.4911 -0.2815
vn 0.9626 0.2144 -0.1657
vn 0.9573 0.1508 -0.2466
vn 0.9264 0.2420 -0.2884
vn 0.9256 0.3187 -0.2040
vn 0.8039 0.3365 0.4904
vn 0.8500 0.2590 0.4587
vn 0.8391 0.4725 0.2696
vn -0.8871 0.3981 -0.2334
vn -0.9256 0.3187 -0.2040
vn -0.9626 0.2144 -0.1657
vn 0.5303 0.8347 0.1486
vn 0.3533 0.9210 0.1639
vn 0.4623 0.8533 0.2412
vn 0.6575 0.7504 -0.0671
vn 0.7152 0.6980 -0.0350
vn -0.9264 0.2420 -0.2884
vn -0.8768 0.3351 -0.3449
vn -0.9573 0.1508 -0.2466
vn -0.9870 0.0934 -0.1308
vn -0.9806 0.1821 -0.0729
vn 0.3402 0.8422 0.4183
vn 0.1416 0.7502 0.6459
vn -0.2221 -0.7525 -0.6200
vn -0.0000 -0.5327 -0.8463
vn -0.0000 -0.7819 -0.6234
vn 0.2362 0.6374 0.7334
vn -0.1149 0.4472 0.8870
vn -0.0075 0.3045 0.9525
vn 0.3278 0.5115 0.7943
vn -0.1894 0.5636 0.8041
vn 0.8346 -0.5389 -0.1141
vn 0.9037 -0.4215 -0.0750
vn 0.8820 -0.3396 -0.3267
vn 0.8368 -0.4406 -0.3251
vn 0.9506 0.2376 0.1997
vn 0.9911 0.0872 0.1008
vn -0.9941 -0.0106 -0.1083
vn -0.9987 0.0148 -0.0491
vn -0.0000 -0.4154 -0.9097
vn -0.1935 -0.4013 -0.8953
vn -0.9911 0.0872 0.1008
vn -0.9622 -0.0424 0.2690
vn -0.9241 0.0766 0.3743
vn -0.8899 0.1733 0.4220
vn -0.0000 1.0000 -0.0094
vn -0.7342 0.1788 -0.6550
vn -0.7360 0.0232 -0.6766
vn -0.8604 0.0142 -0.5095
vn -0.8646 0.1833 -0.4678
vn -0.9819 0.0522 -0.1821
vn 0.9622 -0.0424 0.2690
vn 0.5567 0.2156 -0.8023
vn 0.5342 0.3287 -0.7789
vn 0.7324 0.3081 -0.6071
vn 0.7342 0.1788 -0.6550
vn 0.6529 0.1665 0.7389
vn 0.3264 -0.1206 0.9375
vn 0.4208 -0.2590 0.8694
vn 0.7241 0.0610 0.6870
vn 0.2294 0.0204 0.9731
vn 0.0144 -0.1317 0.9912
vn 0.1132 -0.2809 0.9530
vn -0.8383 -0.1213 0.5316
vn 0.9763 -0.1768 0.1250
vn -0.4100 -0.3455 -0.8441
vn -0.1884 -0.5178 -0.8345
vn -0.3946 -0.4667 -0.7915
vn 0.1961 -0.4216 0.8853
vn -0.8620 -0.0239 -0.5064
vn -0.9105 0.0361 -0.4119
vn -0.8528 0.1352 -0.5045
vn -0.7861 0.0875 -0.6118
vn -0.8940 -0.1784 0.4109
vn 0.7879 -0.5111 0.3436
vn 0.6812 -0.6752 0.2830
vn 0.7382 -0.6746 -0.0060
vn 0.8102 -0.5604 0.1718
vn 0.9444 -0.2288 0.2360
vn 0.9921 -0.1247 0.0145
vn -0.3146 0.3035 0.8994
vn -0.2062 0.1687 0.9639
vn -0.6231 0.6865 -0.3748
vn -0.5567 0.2156 -0.8023
vn -0.5942 0.0332 -0.8036
vn 0.9728 -0.2238 0.0592
vn 0.9871 -0.1475 -0.0628
vn 0.2780 -0.5505 0.7872
vn 0.3450 -0.6429 0.6839
vn 0.5766 -0.4653 0.6717
vn 0.5171 -0.3822 0.7659
vn 0.7370 0.4399 0.5131
vn 0.5640 0.2782 0.7775
vn 0.9806 0.1821 -0.0729
vn 0.9870 0.0934 -0.1308
vn 0.9423 0.3220 -0.0921
vn 0.7157 -0.3767 -0.5881
vn 0.6888 -0.6146 -0.3844
vn 0.5812 -0.6079 -0.5409
vn 0.6078 -0.3914 -0.6909
vn -0.1132 -0.2809 0.9530
vn 0.9846 -0.1670 -0.0519
vn 0.9863 -0.1516 -0.0658
vn 0.8956 0.3418 -0.2848
vn 0.7201 0.4926 -0.4887
vn 0.7943 0.4300 -0.4291
vn 0.9630 -0.2633 0.0582
vn -0.2780 -0.5505 0.7872
vn -0.1961 -0.4216 0.8853
vn -0.9799 -0.0540 -0.1920
vn -0.9855 -0.1202 -0.1200
vn -0.9863 -0.1516 -0.0658
vn -0.9918 -0.0297 -0.1241
vn 0.5464 -0.6505 -0.5274
vn 0.3639 -0.6809 -0.6356
vn 0.3788 -0.5756 -0.7247
vn 0.5440 -0.5110 -0.6655
vn 0.9855 -0.1202 -0.1200
vn 0.9511 -0.2627 0.1623
vn 0.7054 -0.5650 0.4280
vn 0.6635 -0.6251 0.4110
vn 0.7370 -0.5141 0.4389
vn 0.8091 -0.4804 0.3385
vn 0.7533 -0.6011 0.2671
vn -0.8991 -0.1951 -0.3918
vn -0.9442 -0.2702 -0.1885
vn -0.9499 -0.1568 -0.2703
vn -0.8844 -0.1121 -0.4531
vn -0.9656 -0.0935 -0.2426
vn -0.9763 -0.2149 -0.0236
vn 0.9763 -0.2149 -0.0236
vn -0.2428 0.2422 -0.9394
vn -0.0000 0.2358 -0.9718
vn -0.0000 0.0333 -0.9994
vn -0.2418 0.0374 -0.9696
vn -0.9662 0.0185 -0.2570
vn -0.9294 -0.0532 -0.3652
vn 0.4315 -0.8048 0.4077
vn 0.6410 -0.5093 0.5742
vn 0.3650 -0.7230 0.5865
vn -0.1616 0.9844 0.0700
vn -0.3526 0.9351 0.0347
vn 0.9656 -0.0935 -0.2426
vn 0.9797 0.1398 -0.1434
vn 0.7808 0.2391 0.5772
vn 0.9152 -0.0095 -0.4029
vn 0.7439 -0.3661 -0.5591
vn -0.3448 0.6017 -0.7204
vn -0.0000 0.6678 -0.7444
vn 0.9535 0.2165 -0.2096
vn 0.6776 -0.5095 -0.5304
vn 0.8381 -0.2864 -0.4644
vn 0.7302 -0.5824 -0.3572
vn 0.8331 -0.5515 -0.0430
vn 0.6880 -0.2427 -0.6839
vn 0.9629 0.1456 -0.2273
vn 0.9032 0.3357 -0.2676
vn 0.9279 0.0722 -0.3659
vn -0.4064 0.9037 -0.1346
vn -0.3230 0.9464 0.0040
vn -0.2697 0.9603 -0.0712
vn 0.7191 0.4437 -0.5348
vn 0.8577 0.3905 -0.3345
vn 0.8647 0.2987 -0.4038
vn -0.7786 -0.3374 -0.5290
vn 0.4535 0.3935 0.7997
vn 0.6436 0.5642 0.5171
vn -0.1042 0.8344 -0.5412
vn -0.2601 0.8252 -0.5014
vn 0.1860 -0.2584 -0.9480
vn -0.8828 -0.2501 -0.3976
vn -0.8593 -0.1810 -0.4783
vn 0.9506 0.1610 -0.2655
vn 0.8607 -0.1570 -0.4843
vn -0.5464 -0.6505 -0.5274
vn 0.6064 -0.7195 -0.3386
vn 0.5021 -0.7134 -0.4888
vn -0.3788 -0.5756 -0.7247
vn -0.3639 -0.6809 -0.6356
vn 0.9713 0.2372 0.0165
vn 0.9421 0.2833 -0.1793
vn 0.9233 0.3550 -0.1467
vn 0.9476 0.3168 0.0401
vn 0.9183 -0.2342 -0.3192
vn -0.0916 -0.6223 -0.7774
vn -0.1860 -0.2584 -0.9480
vn 0.8828 -0.2501 -0.3976
vn 0.9190 -0.0488 -0.3913
vn 0.8593 -0.1810 -0.4783
vn -0.6880 -0.2427 -0.6839
vn -0.5766 -0.4653 0.6717
vn -0.6410 -0.5093 0.5742
vn -0.3650 -0.7230 0.5865
vn -0.3450 -0.6429 0.6839
vn -0.8956 0.3418 -0.2848
vn -0.9060 0.3681 -0.2088
vn -0.9476 0.3168 0.0401
vn -0.9713 0.2372 0.0165
vn 0.0916 -0.6223 -0.7774
vn -0.9345 -0.2663 -0.2361
vn -0.9183 -0.2342 -0.3192
vn -0.8551 -0.1143 -0.5057
vn -0.9217 -0.0866 -0.3781
vn -0.7976 -0.0946 -0.5957
vn -0.1266 -0.5880 -0.7989
vn -0.2999 -0.5115 -0.8052
vn -0.9412 -0.0332 -0.3363
vn 0.9217 -0.0866 -0.3781
vn 0.9379 -0.1214 -0.3250
vn 0.8551 -0.1143 -0.5057
vn 0.9918 -0.1280 -0.0058
vn 0.8375 -0.2315 0.4950
vn 0.9693 -0.1805 0.1672
vn -0.9719 -0.0491 -0.2304
vn -0.9506 0.1610 -0.2655
vn 0.6844 -0.1820 -0.7060
vn 0.7976 -0.0946 -0.5957
vn 0.8106 -0.2157 -0.5444
vn 0.6890 -0.3092 -0.6555
vn 0.9412 -0.0332 -0.3363
vn 0.9535 0.0980 -0.2849
vn 0.3916 -0.3036 -0.8686
vn 0.2999 -0.5115 -0.8052
vn -0.9379 -0.1214 -0.3250
vn -0.9520 -0.2411 0.1888
vn -0.9693 -0.1805 0.1672
vn 0.8359 -0.2676 0.4793
vn 0.9520 -0.2411 0.1888
vn 0.9152 -0.1691 0.3659
vn 0.9490 -0.1783 0.2600
vn 0.9539 0.1852 0.2362
vn 0.9204 0.1836 0.3451
vn -0.0000 -0.7732 -0.6342
vn -0.0000 -0.7301 -0.6834
vn 0.1709 -0.7176 -0.6752
vn 0.1579 -0.7638 -0.6259
vn 0.4880 0.4672 -0.7373
vn 0.0514 -0.3967 0.9165
vn -0.0803 -0.2288 0.9702
vn 0.8922 -0.0733 0.4457
vn 0.4186 -0.0513 0.9067
vn -0.8371 -0.4284 -0.3402
vn -0.8707 -0.4771 -0.1196
vn -0.7956 -0.5422 0.2704
vn -0.9075 -0.3477 0.2356
vn -0.0000 -0.6359 -0.7718
vn 0.1802 -0.6213 -0.7626
vn 0.3287 -0.7380 -0.5893
vn -0.7393 -0.5165 0.4321
vn -0.8083 -0.3659 0.4612
vn -0.7818 -0.5899 -0.2020
vn -0.7431 -0.6455 0.1763
vn -0.6812 -0.6752 0.2830
vn -0.7382 -0.6746 -0.0060
vn -0.0000 -0.5328 -0.8462
vn -0.1802 -0.6213 -0.7626
vn 0.7956 -0.5422 0.2704
vn 0.7393 -0.5165 0.4321
vn -0.8820 -0.3396 -0.3267
vn -0.9037 -0.4215 -0.0750
vn -0.8346 -0.5389 -0.1141
vn -0.8368 -0.4406 -0.3251
vn 0.4545 -0.4422 -0.7732
vn 0.4551 -0.2052 -0.8665
vn -0.5021 -0.7134 -0.4888
vn -0.6064 -0.7195 -0.3386
vn 0.1171 0.1572 0.9806
vn -0.8091 -0.4804 0.3385
vn -0.7370 -0.5141 0.4389
vn -0.6635 -0.6251 0.4110
vn -0.7533 -0.6011 0.2671
vn -0.9382 -0.1463 -0.3135
vn -0.9885 -0.1509 0.0042
vn 0.1935 -0.4013 -0.8953
vn 0.1884 -0.5178 -0.8345
vn 0.5758 0.8176 -0.0086
vn 0.5323 0.8462 -0.0227
vn 0.5167 -0.6741 -0.5277
vn 0.6039 -0.6200 -0.5009
vn 0.9118 -0.1762 0.3710
vn -0.9118 -0.1762 0.3709
vn -0.9417 -0.1369 -0.3074
vn -0.9778 -0.1916 0.0845
vn -0.8736 -0.4785 0.0885
vn -0.8722 -0.4145 -0.2597
vn -0.9605 0.1174 -0.2522
vn -0.9925 0.1218 0.0082
vn -0.0000 -0.2359 -0.9718
vn 0.4230 0.0363 -0.9054
vn -0.8841 0.4446 -0.1438
vn -0.9056 0.4102 0.1078
vn -0.8364 0.4993 0.2260
vn -0.8361 0.5402 -0.0951
vn 0.9925 0.1218 0.0082
vn 0.9437 0.3038 0.1306
vn 0.9605 0.1174 -0.2522
vn 0.9047 0.4171 -0.0869
vn 0.9427 -0.1726 -0.2856
vn 0.8680 -0.4292 -0.2497
vn 0.8056 -0.3868 -0.4488
vn 0.8386 -0.1588 -0.5211
vn -0.1484 0.9879 0.0453
vn -0.9871 -0.1475 -0.0628
vn -0.9921 -0.1247 0.0145
vn 0.6693 -0.4352 -0.6022
vn 0.9691 0.2452 0.0257
vn 0.0776 0.9133 -0.3998
vn 0.0695 0.9256 -0.3720
vn 0.1511 0.9598 -0.2366
vn 0.1942 0.9378 -0.2879
vn -0.7943 0.4300 -0.4291
vn -0.7365 -0.2994 -0.6066
vn -0.5180 -0.4225 -0.7438
vn -0.4088 -0.1697 -0.8967
vn 0.9382 -0.1463 -0.3135
vn 0.9885 -0.1509 0.0042
vn 0.6574 -0.5016 0.5622
vn 0.5543 -0.5587 0.6169
vn 0.7773 -0.5734 -0.2588
vn 0.8605 -0.4089 -0.3040
vn 0.9896 -0.1011 0.1028
vn -0.8106 -0.2157 -0.5444
vn 0.1867 -0.2194 -0.9576
vn 0.4088 -0.1697 -0.8967
vn -0.9152 -0.1691 0.3659
vn -0.9204 0.1836 0.3451
vn -0.9539 0.1852 0.2362
vn -0.9490 -0.1783 0.2600
vn -0.8331 -0.5515 -0.0431
vn -0.8102 -0.5604 0.1718
vn -0.9896 -0.1011 0.1028
vn -0.8756 -0.0353 -0.4818
vn 0.2564 -0.4825 -0.8375
vn -0.4016 0.4072 0.8203
vn -0.7879 -0.5111 0.3436
vn -0.7302 -0.5824 -0.3572
vn 0.6845 0.0100 -0.7290
vn 0.8756 -0.0353 -0.4818
vn 0.7861 0.0875 -0.6118
vn 0.8635 -0.0161 -0.5040
vn 0.7822 0.0036 -0.6230
vn 0.7156 0.2869 -0.6369
vn 0.9202 0.3890 -0.0446
vn -0.9629 0.1456 -0.2273
vn -0.9535 0.2165 -0.2096
vn -0.9152 -0.0095 -0.4029
vn 0.8960 0.4310 -0.1066
vn -0.0944 0.0207 0.9953
vn -0.9433 0.0996 -0.3166
vn -0.9075 0.1873 -0.3759
vn -0.7578 0.2580 -0.5994
vn 0.7841 0.6056 0.1359
vn -0.6275 0.6665 0.4025
vn -0.6727 0.5020 0.5436
vn -0.9964 0.0611 -0.0593
vn -0.8917 0.2049 -0.4036
vn -0.8307 0.3066 -0.4646
vn -0.7700 -0.2825 -0.5721
vn -0.7135 -0.4720 -0.5178
vn 0.5729 -0.0778 -0.8160
vn -0.8030 -0.1002 -0.5874
vn -0.7339 0.4061 -0.5445
vn 0.2137 0.9659 -0.1462
vn 0.1168 0.9874 -0.1065
vn 0.9056 0.4102 0.1078
vn 0.8390 0.5271 -0.1353
vn 0.9060 0.3681 -0.2088
vn -0.7990 -0.0117 -0.6013
vn -0.9505 0.0624 -0.3043
vn 0.7923 0.5497 0.2649
vn 0.7786 -0.3374 -0.5290
vn 0.8871 0.3981 -0.2334
vn 0.8488 0.5143 -0.1223
vn -0.7908 0.0565 -0.6094
vn -0.9330 0.2300 -0.2766
vn 0.8620 -0.0239 -0.5064
vn -0.9215 0.3676 0.1255
vn -0.9847 0.1359 0.1089
vn 0.9330 0.2300 -0.2766
vn 0.9209 0.3199 -0.2227
vn 0.7908 0.0565 -0.6094
vn 0.9215 0.3676 0.1255
vn 0.7138 0.5340 -0.4532
vn 0.6192 0.6515 -0.4384
vn 0.6231 0.6865 -0.3748
vn 0.6894 0.6377 -0.3436
vn 0.8646 0.1833 -0.4678
vn 0.8819 -0.1311 -0.4529
vn 0.8598 -0.2292 -0.4562
vn -0.8263 0.2206 -0.5183
vn -0.9097 -0.1884 -0.3701
vn -0.7571 -0.2079 0.6194
vn -0.8922 -0.0733 0.4457
vn 0.9368 -0.1217 -0.3281
vn 0.9422 -0.1849 -0.2794
vn 0.9294 -0.0532 -0.3652
vn 0.9662 0.0185 -0.2570
vn 0.9799 -0.0540 -0.1920
vn 0.5180 -0.4225 -0.7438
vn 0.7365 -0.2994 -0.6066
vn -0.9437 0.3038 0.1306
vn -0.8848 0.3392 0.3194
vn -0.9068 0.2648 0.3281
vn -0.6192 0.6515 -0.4384
vn -0.4230 0.0363 -0.9054
vn 0.4945 0.7068 -0.5059
vn 0.9105 0.0361 -0.4119
vn 0.9345 -0.2663 -0.2361
vn -0.5130 0.7295 -0.4524
vn -0.4116 0.7531 -0.5132
vn 0.5130 0.7295 -0.4524
vn 0.8528 0.1352 -0.5045
vn -0.7054 -0.5650 0.4280
vn -0.9444 -0.2288 0.2360
vn 0.1266 -0.5880 -0.7989
vn 0.5344 0.7656 -0.3581
vn -0.2586 0.7913 -0.5540
vn 0.3920 -0.7208 -0.5717
vn 0.9433 0.0996 -0.3166
vn 0.5576 0.6606 0.5027
vn -0.9421 0.2833 -0.1793
vn -0.9233 0.3550 -0.1467
vn -0.8577 0.3905 -0.3345
vn -0.8647 0.2987 -0.4038
vn -0.1009 0.8059 -0.5834
vn -0.1351 0.9905 -0.0248
vn -0.1168 0.9874 -0.1065
vn -0.2137 0.9659 -0.1462
vn 0.1009 0.8059 -0.5834
vn -0.0000 0.8693 -0.4943
vn 0.1042 0.8344 -0.5412
vn -0.9691 0.2452 0.0257
vn -0.0000 0.9958 -0.0921
vn 0.9075 0.1873 -0.3759
vn -0.9918 -0.1280 -0.0058
vn 0.0921 0.8873 -0.4518
vn -0.9136 -0.0211 -0.4061
vn -0.1133 -0.2076 -0.9716
vn -0.0704 0.3303 -0.9413
vn -0.5271 0.3867 -0.7567
vn 0.8768 0.3351 -0.3449
vn -0.0890 0.9747 -0.2051
vn -0.1511 0.9598 -0.2366
vn 0.9505 0.0624 -0.3043
vn 0.9847 0.1359 0.1089
vn -0.8390 0.5271 -0.1353
vn -0.8819 -0.1311 -0.4529
vn -0.0695 0.9256 -0.3720
vn -0.4945 0.7068 -0.5059
vn -0.0000 0.9810 -0.1938
vn -0.0000 0.9368 -0.3499
vn -0.0419 0.9325 -0.3587
vn 0.0419 0.9325 -0.3587
vn 0.4566 0.7505 0.4779
vn 0.7571 -0.2079 0.6194
vn 0.9097 -0.1884 -0.3701
vn 0.6543 0.7169 0.2409
vn 0.7230 0.6439 0.2501
vn 0.5063 0.8297 -0.2349
vn 0.3928 0.8668 -0.3072
vn -0.9846 -0.1670 -0.0519
vn -0.9630 -0.2633 0.0582
vn -0.9728 -0.2238 0.0592
vn -0.1709 -0.7176 -0.6752
vn 0.2389 0.8942 -0.3787
vn 0.8504 -0.1216 -0.5119
vn 0.8083 -0.3659 0.4612
vn 0.9075 -0.3477 0.2356
vn 0.4064 0.9037 -0.1346
vn 0.4903 0.8691 -0.0655
vn 0.3082 0.9296 -0.2020
vn 0.7431 -0.6455 0.1763
vn 0.8736 -0.4785 0.0885
vn 0.8722 -0.4145 -0.2597
vn 0.7818 -0.5899 -0.2020
vn 0.3526 0.9351 0.0347
vn 0.5752 0.7828 0.2372
vn 0.3997 0.9142 0.0668
vn -0.3082 0.9296 -0.2020
vn -0.9763 -0.1768 0.1250
vn 0.0890 0.9747 -0.2051
vn 0.9499 -0.1568 -0.2703
vn 0.7620 0.6468 -0.0328
vn 0.8707 -0.4771 -0.1196
vn 0.9442 -0.2702 -0.1885
vn 0.3905 0.2446 -0.8875
vn -0.8359 -0.2676 0.4793
vn 0.9819 0.0522 -0.1821
vn 0.9987 0.0148 -0.0491
vn -0.3287 -0.7380 -0.5893
vn -0.1579 -0.7638 -0.6259
vn 0.9941 -0.0106 -0.1083
vn 0.9918 -0.0297 -0.1241
vn 0.6211 -0.4055 -0.6707
vn 0.9028 -0.4287 -0.0348
vn 0.8940 -0.1784 0.4109
vn -0.3920 -0.7208 -0.5717
vn -0.8386 -0.1588 -0.5211
vn -0.7298 -0.1596 -0.6647
vn -0.7157 -0.3767 -0.5881
vn -0.8056 -0.3868 -0.4488
vn -0.6108 -0.1804 -0.7709
vn -0.6078 -0.3914 -0.6909
vn -0.9797 0.1398 -0.1434
vn -0.7808 0.2391 0.5773
vn -0.9511 -0.2627 0.1623
vn -0.4315 -0.8048 0.4077
vn -0.9032 0.3357 -0.2676
vn 0.9719 -0.0491 -0.2304
vn 0.9417 -0.1369 -0.3074
vn 0.8031 -0.1002 -0.5874
vn 0.7700 -0.2825 -0.5721
vn -0.8375 -0.2315 0.4951
vn 0.8844 -0.1121 -0.4531
vn 0.8991 -0.1951 -0.3918
vn 0.8371 -0.4284 -0.3402
vn -0.9632 0.1477 -0.2244
vn 0.9068 0.2648 0.3281
vn 0.8848 0.3392 0.3194
vn -0.9047 0.4171 -0.0869
vn 0.7135 -0.4720 -0.5178
vn 0.9778 -0.1916 0.0845
vn -0.9209 0.3199 -0.2227
vn -0.0768 -0.6103 0.7884
vn -0.4242 -0.5865 0.6900
vn -0.0000 -0.4146 0.9100
vn -0.7573 0.1351 0.6389
vn -0.5703 -0.5396 0.6194
vn 0.6727 0.5020 0.5436
vn 0.6275 0.6665 0.4025
vn -0.3913 -0.6630 0.6382
vn -0.7188 0.5843 0.3767
vn -0.3906 -0.6283 0.6728
vn -0.8186 0.3828 0.4282
vn -0.9535 0.0980 -0.2849
vn -0.3783 -0.4246 0.8226
vn 0.7990 -0.0117 -0.6013
vn 0.8186 0.3828 0.4282
vn 0.7855 0.1867 0.5900
vn 0.8808 0.4209 -0.2171
vn 0.3783 -0.4246 0.8226
vn 0.3906 -0.6283 0.6728
vn 0.3913 -0.6630 0.6382
vn 0.5703 -0.5396 0.6194
vn 0.4242 -0.5865 0.6900
vn 0.0768 -0.6103 0.7884
vn -0.7855 0.1867 0.5900
vn -0.8808 0.4209 -0.2171
vn -0.9202 0.3890 -0.0446
vn -0.5382 0.0434 0.8417
vn 0.7573 0.1351 0.6389
vn -0.3886 0.3221 -0.8633
vn -0.5206 0.4802 -0.7059
vn 0.5382 0.0434 0.8417
vn 0.4885 -0.1385 0.8615
vn 0.9725 -0.0418 0.2292
vn -0.8635 -0.0161 -0.5040
vn -0.9725 -0.0418 0.2292
vn 0.5206 0.4802 -0.7059
vn -0.9028 -0.4287 -0.0348
vn 0.4759 -0.2337 0.8479
vn 0.7188 0.5843 0.3767
vn -0.6211 -0.4055 -0.6707
vn -0.9312 -0.3604 -0.0543
vn -0.4759 -0.2337 0.8479
vn 0.0603 0.4862 0.8718
vn 0.1139 0.3575 0.9269
vn -0.1285 -0.1777 0.9757
vn -0.1139 0.3575 0.9269
vn -0.1030 0.3122 0.9444
vn -0.3905 0.2446 -0.8875
vn -0.5342 0.3287 -0.7789
vn -0.3548 0.4542 -0.8172
vn -0.5263 -0.1992 0.8266
vn -0.5955 -0.3181 -0.7377
vn -0.6143 0.0664 0.7863
vn -0.3916 -0.3036 -0.8686
vn -0.8549 0.5185 -0.0145
vn -0.6120 0.2978 0.7326
vn -0.3889 -0.1704 0.9054
vn 0.1402 -0.7647 0.6289
vn 0.0980 -0.5844 0.8055
vn -0.4186 -0.0513 0.9067
vn -0.9030 0.4162 0.1068
vn -0.7156 0.2869 -0.6369
vn -0.7822 0.0036 -0.6230
vn 0.3886 0.3221 -0.8633
vn 0.8263 0.2206 -0.5183
vn 0.0803 -0.2288 0.9702
vn -0.6806 0.5532 -0.4804
vn -0.7191 0.4437 -0.5348
vn -0.3842 0.5712 -0.7254
vn 0.9312 -0.3604 -0.0543
vn 0.5955 -0.3181 -0.7377
vn 0.5263 -0.1992 0.8266
vn -0.6574 -0.5016 0.5622
vn -0.0514 -0.3967 0.9165
vn -0.0787 -0.4794 0.8740
vn -0.0235 0.5444 -0.8385
vn 0.9136 -0.0211 -0.4061
vn 0.6143 0.0664 0.7863
vn -0.1143 -0.5928 -0.7972
vn 0.1835 -0.0682 0.9807
vn -0.5543 -0.5587 0.6169
vn 0.2090 0.1252 0.9699
vn -0.0403 -0.6305 0.7751
vn 0.0704 0.3303 -0.9413
vn 0.1133 -0.2076 -0.9716
vn 0.5271 0.3867 -0.7567
vn -0.7126 -0.6324 0.3039
vn -0.7773 -0.5734 -0.2588
vn 0.1143 -0.5928 -0.7972
vn 0.0946 -0.6715 -0.7349
vn -0.0603 0.4862 0.8718
vn 0.1030 0.3122 0.9444
vn -0.4885 -0.1385 0.8615
vn 0.1285 -0.1777 0.9757
vn -0.1402 -0.7647 0.6289
vn -0.0980 -0.5844 0.8055
vn 0.8549 0.5185 -0.0145
vn 0.6120 0.2978 0.7326
vn 0.3889 -0.1704 0.9054
vn 0.9030 0.4162 0.1068
vn 0.3842 0.5712 -0.7254
vn 0.6806 0.5532 -0.4804
vn 0.3336 0.6175 -0.7123
vn 0.0235 0.5444 -0.8385
vn 0.8604 0.0142 -0.5095
vn 0.9612 -0.0507 -0.2712
vn -0.8605 -0.4089 -0.3040
vn -0.1835 -0.0682 0.9807
vn -0.2090 0.1252 0.9699
vn 0.7126 -0.6324 0.3039
vn -0.0000 0.0696 0.9976
vn 0.2944 -0.0606 0.9538
vn -0.2944 -0.0606 0.9538
vn -0.1346 0.2550 0.9575
vn -0.4947 -0.1130 0.8617
vn 0.1346 0.2550 0.9575
vn -0.0000 -0.7198 0.6942
vn 0.4947 -0.1130 0.8617
vn -0.7204 -0.6831 0.1198
vn 0.7204 -0.6831 0.1198
vn -0.6846 -0.7289 -0.0074
vn 0.6846 -0.7289 -0.0074
vn -0.6384 -0.7613 -0.1137
vn 0.6384 -0.7613 -0.1137
vn -0.6316 -0.7645 -0.1289
vn 0.6316 -0.7645 -0.1289
vn -0.6525 -0.7511 -0.1003
vn 0.6525 -0.7511 -0.1003
vn -0.6768 -0.7327 -0.0714
vn 0.6768 -0.7327 -0.0714
vn -0.7042 -0.7087 -0.0426
vn 0.7042 -0.7087 -0.0426
vn -0.7347 -0.6783 -0.0148
vn 0.7347 -0.6783 -0.0148
vn -0.7682 -0.6401 0.0117
vn 0.7682 -0.6401 0.0117
vn -0.8043 -0.5932 0.0356
vn 0.8043 -0.5932 0.0356
vn -0.8426 -0.5355 0.0563
vn 0.8426 -0.5355 0.0563
vn -0.8816 -0.4666 0.0715
vn 0.8816 -0.4666 0.0715
vn -0.9175 -0.3897 0.0795
vn 0.9175 -0.3897 0.0795
vn -0.9441 -0.3203 0.0783
vn 0.9441 -0.3203 0.0783
vn -0.9634 -0.2586 0.0709
vn 0.9634 -0.2586 0.0709
vn -0.0000 -0.9616 0.2746
vn -0.0946 -0.6715 -0.7349
vn -0.9612 -0.0507 -0.2712
vn 0.9632 0.1477 -0.2244
vn 0.9964 0.0611 -0.0593
vn -0.9427 -0.1726 -0.2856
vn -0.8680 -0.4292 -0.2497
vn -0.6888 -0.6146 -0.3844
vn 0.8841 0.4446 -0.1438
vn -0.5812 -0.6079 -0.5409
vn 0.2221 -0.7525 -0.6200
vn 0.8364 0.4993 0.2260
vn 0.0160 -0.1896 0.9817
vn -0.1206 0.9638 0.2380
vn 0.8361 0.5402 -0.0951
vn -0.7324 0.3081 -0.6071
vn 0.2509 -0.5050 -0.8258
vn 0.2428 0.2422 -0.9394
vn -0.0000 0.3679 -0.9299
vn 0.5930 0.6604 -0.4607
vn 0.1708 0.7384 -0.6524
vn -0.4880 0.4672 -0.7373
vn -0.3336 0.6175 -0.7123
vn 0.3666 0.8662 -0.3396
vn 0.5338 0.6997 -0.4748
vn -0.0000 0.9979 0.0645
vn 0.3197 0.6997 -0.6389
vn 0.2520 -0.2244 -0.9414
vn -0.2530 0.3970 -0.8823
vn 0.2418 0.0374 -0.9696
vn -0.5338 0.6997 -0.4748
vn -0.0000 0.7827 -0.6224
vn -0.3666 0.8662 -0.3396
vn -0.3197 0.6997 -0.6389
vn -0.1708 0.7384 -0.6524
vn 0.1204 0.9638 0.2379
vn -0.5930 0.6604 -0.4607
vn 0.0800 0.0694 0.9944
vn 0.4068 0.6664 0.6249
vn 0.5834 0.4892 0.6483
vn 0.3393 0.7005 0.6278
vn -0.4068 0.6664 0.6249
vn -0.3393 0.7005 0.6278
vn -0.1174 0.6415 0.7581
vn -0.0000 0.6387 0.7695
vn 0.1174 0.6415 0.7581
vn -0.5834 0.4892 0.6483
vn 0.0403 -0.6305 0.7751
vn 0.0787 -0.4794 0.8740
vt 0.000000 0.000000
s 1
f 833/1/1 863/1/2 840/1/3 834/1/4
f 1/1/5 4/1/6 2/1/7
f 490/1/8 488/1/9 484/1/10 489/1/11
f 1/1/5 5/1/12 4/1/6
f 283/1/13 297/1/14 290/1/15 284/1/16
f 470/1/17 485/1/18 483/1/19 484/1/10
f 323/1/20 332/1/21 313/1/22 314/1/23
f 454/1/24 486/1/25 461/1/26 455/1/27
f 71/1/28 365/1/29 72/1/30 64/1/31
f 121/1/32 143/1/33 112/1/34 113/1/35
f 489/1/11 500/1/36 495/1/37 490/1/8
f 454/1/24 455/1/27 94/1/38 448/1/39
f 491/1/40 511/1/41 483/1/19 485/1/18
f 244/1/42 264/1/43 196/1/44 236/1/45
f 101/1/46 462/1/47 104/1/48 102/1/49
f 320/1/50 312/1/51 310/1/52 311/1/53
f 462/1/47 495/1/37 468/1/54 104/1/48
f 495/1/37 500/1/36 118/1/55 468/1/54
f 389/1/56 395/1/57 396/1/58 382/1/59
f 96/1/60 468/1/54 118/1/55 109/1/61
f 81/1/62 102/1/49 83/1/63 82/1/64
f 520/1/65 131/1/66 125/1/67 515/1/68
f 88/1/69 95/1/70 81/1/62 80/1/71
f 20/1/72 14/1/73 27/1/74
f 118/1/55 500/1/36 140/1/75 134/1/76
f 489/1/11 506/1/77 140/1/75 500/1/36
f 118/1/55 134/1/76 110/1/78 109/1/61
f 83/1/63 98/1/79 89/1/80 84/1/81
f 89/1/80 98/1/79 96/1/60 97/1/82
f 87/1/83 448/1/39 94/1/38 88/1/69
f 27/1/74 34/1/84 36/1/85
f 36/1/85 88/1/69 80/1/71 59/1/86
f 110/1/78 111/1/87 103/1/88 109/1/61
f 96/1/60 109/1/61 103/1/88 97/1/82
f 110/1/78 134/1/76 133/1/89 127/1/90
f 490/1/8 495/1/37 462/1/47 461/1/26
f 510/1/91 509/1/92 140/1/75 506/1/77
f 483/1/19 511/1/41 510/1/91 506/1/77
f 511/1/41 517/1/93 513/1/94 510/1/91
f 513/1/94 514/1/95 509/1/92 510/1/91
f 83/1/63 84/1/81 77/1/96 82/1/64
f 476/1/97 448/1/39 87/1/83 440/1/98
f 329/1/99 90/1/100 85/1/101 78/1/102
f 851/1/103 859/1/104 852/1/105 830/1/106
f 487/1/107 485/1/18 470/1/17 469/1/108
f 46/1/109 47/1/110 53/1/111
f 46/1/109 53/1/111 54/1/112
f 548/1/113 551/1/114 549/1/115 546/1/116
f 471/1/117 476/1/97 457/1/118 464/1/119
f 413/1/120 425/1/121 408/1/122 407/1/123
f 45/1/124 79/1/125 74/1/126 73/1/127
f 434/1/128 442/1/129 443/1/130 437/1/131
f 52/1/132 51/1/133 58/1/134
f 53/1/111 59/1/86 54/1/112
f 53/1/111 35/1/135 59/1/86
f 54/1/112 59/1/86 60/1/136
f 16/1/137 4/1/6 62/1/138
f 444/1/139 449/1/140 432/1/141 436/1/142
f 457/1/118 456/1/143 449/1/140 444/1/139
f 413/1/120 436/1/142 432/1/141 425/1/121
f 487/1/107 492/1/144 493/1/145 491/1/40
f 60/1/136 59/1/86 68/1/146
f 449/1/140 456/1/143 450/1/147 441/1/148
f 351/1/149 349/1/150 343/1/151 350/1/152
f 470/1/17 464/1/119 463/1/153 469/1/108
f 268/1/154 324/1/155 267/1/156 259/1/157
f 432/1/141 449/1/140 441/1/148 433/1/158
f 51/1/133 44/1/159 73/1/127
f 51/1/133 73/1/127 74/1/126
f 516/1/160 521/1/161 513/1/94 517/1/93
f 51/1/133 74/1/126 75/1/162
f 36/1/85 59/1/86 35/1/135 27/1/74
f 68/1/146 59/1/86 76/1/163
f 68/1/146 76/1/163 77/1/96
f 435/1/164 494/1/165 469/1/108 463/1/153
f 435/1/164 463/1/153 444/1/139 436/1/142
f 499/1/166 522/1/167 521/1/161 516/1/160
f 59/1/86 80/1/71 76/1/163
f 374/1/168 384/1/169 383/1/170 380/1/171
f 47/1/110 19/1/172 35/1/135 53/1/111
f 76/1/163 82/1/64 77/1/96
f 396/1/58 415/1/173 410/1/174 390/1/175
f 445/1/176 466/1/177 460/1/178 453/1/179
f 57/1/180 36/1/85 34/1/84 49/1/181
f 251/1/182 344/1/183 337/1/184 258/1/185
f 36/1/85 87/1/83 88/1/69
f 799/1/186 821/1/187 787/1/188 793/1/189
f 435/1/164 436/1/142 413/1/120 431/1/190
f 93/1/191 117/1/192 99/1/193 92/1/194
f 43/1/195 120/1/196 45/1/124 39/1/197
f 430/1/198 496/1/199 492/1/144 494/1/165
f 492/1/144 496/1/199 497/1/200 493/1/145
f 8/1/201 15/1/202 14/1/73 10/1/203
f 88/1/69 94/1/38 95/1/70
f 78/1/102 85/1/101 63/1/204 70/1/205
f 423/1/206 496/1/199 430/1/198 424/1/207
f 423/1/206 503/1/208 497/1/200 496/1/199
f 497/1/200 501/1/209 498/1/210 493/1/145
f 14/1/73 20/1/72 11/1/211 10/1/203
f 11/1/211 20/1/72 19/1/172 18/1/212
f 815/1/213 834/1/4 809/1/214 810/1/215
f 17/1/216 25/1/217 24/1/218 21/1/219
f 26/1/220 25/1/217 17/1/216 18/1/212
f 441/1/148 442/1/129 434/1/128 433/1/158
f 231/1/221 247/1/222 239/1/223 232/1/224
f 75/1/162 106/1/225 105/1/226
f 501/1/209 507/1/227 505/1/228 498/1/210
f 283/1/13 284/1/16 256/1/229 276/1/230
f 504/1/231 528/1/232 527/1/233 522/1/167
f 522/1/167 527/1/233 519/1/234 521/1/161
f 402/1/235 415/1/173 396/1/58 395/1/57
f 893/1/236 853/1/237 847/1/238 898/1/239
f 113/1/35 112/1/34 106/1/225 79/1/125
f 497/1/200 503/1/208 502/1/240 501/1/209
f 112/1/34 122/1/241 105/1/226 106/1/225
f 820/1/242 831/1/243 813/1/244 814/1/245
f 38/1/246 136/1/247 135/1/248 128/1/249
f 136/1/247 31/1/250 42/1/251 50/1/252
f 527/1/233 535/1/253 520/1/65 519/1/234
f 513/1/94 521/1/161 519/1/234 514/1/95
f 105/1/226 122/1/241 123/1/254
f 275/1/255 276/1/230 249/1/256 269/1/257
f 73/1/127 44/1/159 39/1/197 45/1/124
f 50/1/252 148/1/258 135/1/248 136/1/247
f 368/1/259 375/1/260 376/1/261 339/1/262
f 534/1/263 535/1/253 527/1/233 528/1/232
f 291/1/264 299/1/265 298/1/266 292/1/267
f 123/1/254 130/1/268 114/1/269
f 444/1/139 463/1/153 464/1/119 457/1/118
f 514/1/95 519/1/234 520/1/65 515/1/68
f 33/1/270 40/1/271 24/1/218 25/1/217
f 432/1/141 433/1/158 426/1/272 425/1/121
f 133/1/89 515/1/68 125/1/67 127/1/90
f 853/1/237 893/1/236 886/1/273 877/1/274
f 114/1/269 130/1/268 138/1/275
f 114/1/269 138/1/275 137/1/276
f 155/1/277 161/1/278 142/1/279 141/1/280
f 38/1/246 43/1/195 28/1/281 30/1/282
f 100/1/283 108/1/284 93/1/191 67/1/285
f 430/1/198 494/1/165 435/1/164 431/1/190
f 794/1/286 795/1/287 801/1/288 800/1/289
f 110/1/78 127/1/90 119/1/290 111/1/87
f 137/1/276 145/1/291 144/1/292
f 321/1/293 342/1/294 322/1/295 320/1/50
f 138/1/275 130/1/268 147/1/296
f 131/1/66 132/1/297 126/1/298 125/1/67
f 360/1/299 524/1/300 523/1/301 518/1/302
f 179/1/303 190/1/304 189/1/305 186/1/306
f 144/1/292 145/1/291 150/1/307
f 147/1/296 130/1/268 152/1/308
f 130/1/268 153/1/309 152/1/308
f 238/1/310 246/1/311 245/1/312 237/1/313
f 562/1/314 563/1/315 559/1/316 558/1/317
f 524/1/300 350/1/152 352/1/318 361/1/319
f 150/1/307 145/1/291 157/1/320
f 873/1/321 878/1/322 846/1/323 871/1/324
f 360/1/299 512/1/325 358/1/326 351/1/149
f 152/1/308 153/1/309 159/1/327
f 153/1/309 154/1/328 160/1/329
f 461/1/26 462/1/47 101/1/46 455/1/27
f 153/1/309 160/1/329 159/1/327
f 476/1/97 440/1/98 429/1/330 465/1/331
f 157/1/320 145/1/291 162/1/332
f 145/1/291 163/1/333 162/1/332
f 145/1/291 164/1/334 163/1/333
f 344/1/183 352/1/318 350/1/152 343/1/151
f 162/1/332 166/1/335 165/1/336
f 859/1/104 866/1/337 860/1/338 852/1/105
f 162/1/332 163/1/333 168/1/339
f 165/1/336 170/1/340 169/1/341
f 292/1/267 298/1/266 293/1/342 287/1/343
f 81/1/62 82/1/64 76/1/163 80/1/71
f 165/1/336 166/1/335 172/1/344
f 167/1/345 173/1/346 166/1/335
f 166/1/335 174/1/347 172/1/344
f 166/1/335 173/1/346 174/1/347
f 452/1/348 450/1/147 459/1/349 458/1/350
f 813/1/244 819/1/351 797/1/352 806/1/353
f 343/1/151 349/1/150 331/1/354 337/1/184
f 22/1/355 30/1/282 28/1/281 23/1/356
f 445/1/176 453/1/179 446/1/357 438/1/358
f 172/1/344 182/1/359 183/1/360
f 172/1/344 183/1/360 181/1/361
f 173/1/346 184/1/362 174/1/347
f 172/1/344 174/1/347 185/1/363
f 258/1/185 268/1/154 259/1/157 240/1/364
f 180/1/365 188/1/366 179/1/303
f 240/1/364 259/1/157 241/1/367 233/1/368
f 786/1/369 785/1/370 792/1/371 791/1/372
f 362/1/373 363/1/374 355/1/375 354/1/376
f 184/1/362 193/1/377 174/1/347
f 140/1/75 509/1/92 133/1/89 134/1/76
f 251/1/182 346/1/378 345/1/379 344/1/183
f 267/1/156 324/1/155 323/1/20 314/1/23
f 267/1/156 269/1/257 241/1/367 259/1/157
f 360/1/299 518/1/302 502/1/240 512/1/325
f 526/1/380 542/1/381 533/1/382 139/1/383
f 400/1/384 409/1/385 869/1/386 862/1/387
f 192/1/388 200/1/389 191/1/390
f 551/1/114 554/1/391 552/1/392 549/1/115
f 338/1/393 368/1/259 339/1/262 332/1/21
f 199/1/394 206/1/395 205/1/396
f 201/1/397 207/1/398 203/1/399
f 202/1/400 208/1/401 209/1/402
f 202/1/400 209/1/402 207/1/398
f 549/1/115 552/1/392 550/1/403 547/1/404
f 272/1/405 295/1/406 280/1/407 273/1/408
f 377/1/409 387/1/410 386/1/411 378/1/412
f 555/1/413 559/1/316 560/1/414 556/1/415
f 209/1/402 216/1/416 214/1/417
f 208/1/401 216/1/416 209/1/402
f 285/1/418 286/1/419 278/1/420 277/1/421
f 211/1/422 219/1/423 198/1/424 204/1/425
f 813/1/244 831/1/243 825/1/426 819/1/351
f 729/1/427 730/1/428 726/1/429 724/1/430
f 562/1/314 567/1/431 566/1/432 563/1/315
f 566/1/432 568/1/433 564/1/434 563/1/315
f 486/1/25 488/1/9 490/1/8 461/1/26
f 226/1/435 228/1/436 198/1/424 219/1/423
f 197/1/437 204/1/425 198/1/424 190/1/304
f 568/1/433 569/1/438 565/1/439 564/1/434
f 350/1/152 524/1/300 360/1/299 351/1/149
f 600/1/440 601/1/441 598/1/442 597/1/443
f 188/1/366 197/1/437 190/1/304 179/1/303
f 249/1/256 250/1/444 226/1/435 242/1/445
f 241/1/367 269/1/257 249/1/256 242/1/445
f 229/1/446 230/1/447 238/1/310
f 229/1/446 238/1/310 237/1/313
f 574/1/448 575/1/449 570/1/450 571/1/451
f 198/1/424 228/1/436 189/1/305 190/1/304
f 807/1/452 822/1/453 799/1/186 800/1/289
f 234/1/454 243/1/455 240/1/364
f 24/1/218 29/1/456 22/1/355 21/1/219
f 267/1/156 314/1/23 275/1/255 269/1/257
f 576/1/457 577/1/458 573/1/459 572/1/460
f 19/1/172 47/1/110 26/1/220 18/1/212
f 578/1/461 579/1/462 575/1/449 574/1/448
f 256/1/229 257/1/463 235/1/464 250/1/444
f 56/1/465 63/1/204 64/1/31 61/1/466
f 171/1/467 180/1/365 179/1/303 178/1/468
f 245/1/312 246/1/311 252/1/469
f 580/1/470 576/1/457 575/1/449 579/1/462
f 606/1/471 607/1/472 604/1/473 603/1/474
f 578/1/461 582/1/475 581/1/476 579/1/462
f 249/1/256 276/1/230 256/1/229 250/1/444
f 840/1/3 841/1/477 809/1/214 834/1/4
f 821/1/187 799/1/186 822/1/453 826/1/478
f 889/1/479 892/1/480 884/1/481 883/1/482
f 254/1/483 261/1/484 255/1/485
f 255/1/485 261/1/484 262/1/486
f 783/1/487 789/1/488 790/1/489 788/1/490
f 459/1/349 465/1/331 429/1/330 421/1/491
f 27/1/74 14/1/73 15/1/202 34/1/84
f 507/1/227 525/1/492 508/1/493 505/1/228
f 196/1/44 273/1/408 187/1/494 186/1/306
f 262/1/486 261/1/484 271/1/495
f 412/1/496 417/1/497 416/1/498 411/1/499
f 430/1/198 431/1/190 405/1/500 424/1/207
f 313/1/22 315/1/501 305/1/502 304/1/503
f 283/1/13 304/1/503 305/1/502 297/1/14
f 235/1/464 257/1/463 244/1/42 236/1/45
f 275/1/255 304/1/503 283/1/13 276/1/230
f 254/1/483 255/1/485 248/1/504 253/1/505
f 732/1/506 734/1/507 735/1/508 731/1/509
f 286/1/419 292/1/267 287/1/343 279/1/510
f 292/1/267 286/1/419 285/1/418 291/1/264
f 330/1/511 338/1/393 323/1/20 324/1/155
f 263/1/512 265/1/513 244/1/42 257/1/463
f 256/1/229 284/1/16 263/1/512 257/1/463
f 592/1/514 589/1/515 588/1/516 591/1/517
f 278/1/420 286/1/419 279/1/510
f 593/1/518 594/1/519 591/1/517 590/1/520
f 313/1/22 332/1/21 325/1/521 315/1/501
f 282/1/522 263/1/512 284/1/16 290/1/15
f 26/1/220 41/1/523 33/1/270 25/1/217
f 594/1/519 595/1/524 592/1/514 591/1/517
f 596/1/525 597/1/443 594/1/519 593/1/518
f 289/1/526 295/1/406 272/1/405
f 289/1/526 288/1/527 296/1/528
f 674/1/529 683/1/530 675/1/531 667/1/532
f 597/1/443 598/1/442 595/1/524 594/1/519
f 543/1/533 544/1/534 352/1/318 353/1/535
f 67/1/285 66/1/536 58/1/134 51/1/133
f 226/1/435 250/1/444 235/1/464 228/1/436
f 37/1/537 42/1/251 31/1/250 29/1/456
f 385/1/538 418/1/539 376/1/261 375/1/260
f 376/1/261 392/1/540 325/1/521 339/1/262
f 7/1/541 52/1/132 4/1/6 5/1/12
f 200/1/389 205/1/396 621/1/542 618/1/543
f 400/1/384 862/1/387 855/1/544 393/1/545
f 288/1/527 311/1/53 310/1/52
f 376/1/261 418/1/539 406/1/546 392/1/540
f 423/1/206 424/1/207 406/1/546 418/1/539
f 602/1/547 603/1/474 600/1/440 599/1/548
f 244/1/42 265/1/513 266/1/549 264/1/43
f 603/1/474 604/1/473 601/1/441 600/1/440
f 605/1/550 606/1/471 603/1/474 602/1/547
f 392/1/540 406/1/546 399/1/551 393/1/545
f 311/1/53 321/1/293 320/1/50
f 576/1/457 572/1/460 570/1/450 575/1/449
f 394/1/552 401/1/553 395/1/57 389/1/56
f 405/1/500 407/1/123 400/1/384 399/1/551
f 272/1/405 273/1/408 196/1/44 264/1/43
f 266/1/549 289/1/526 272/1/405 264/1/43
f 791/1/372 796/1/554 357/1/555 348/1/556
f 470/1/17 486/1/25 454/1/24 471/1/117
f 608/1/557 609/1/558 606/1/471 605/1/550
f 28/1/281 43/1/195 39/1/197 32/1/559
f 31/1/250 30/1/282 22/1/355 29/1/456
f 273/1/408 280/1/407 177/1/560 187/1/494
f 178/1/468 187/1/494 177/1/560 170/1/340
f 66/1/536 92/1/194 91/1/561 86/1/562
f 608/1/557 612/1/563 611/1/564 609/1/558
f 171/1/467 178/1/468 170/1/340 165/1/336
f 332/1/21 323/1/20 338/1/393
f 332/1/21 339/1/262 325/1/521
f 296/1/528 301/1/565 295/1/406 289/1/526
f 609/1/558 611/1/564 613/1/566 610/1/567
f 335/1/568 341/1/569 336/1/570
f 335/1/568 340/1/571 341/1/569
f 347/1/572 366/1/573 364/1/574 356/1/575
f 337/1/184 344/1/183 343/1/151
f 172/1/344 181/1/361 171/1/467 165/1/336
f 342/1/294 321/1/293 347/1/572
f 784/1/576 814/1/245 813/1/244 806/1/353
f 321/1/293 348/1/556 347/1/572
f 280/1/407 294/1/577 176/1/578 177/1/560
f 679/1/579 689/1/580 684/1/581 678/1/582
f 169/1/341 176/1/578 175/1/583 156/1/584
f 344/1/183 345/1/379 353/1/535
f 344/1/183 353/1/535 352/1/318
f 346/1/378 354/1/376 345/1/379
f 345/1/379 354/1/376 355/1/375
f 348/1/556 357/1/555 347/1/572
f 176/1/578 294/1/577 158/1/585 175/1/583
f 175/1/583 158/1/585 151/1/586 149/1/587
f 156/1/584 175/1/583 149/1/587 150/1/307
f 274/1/588 281/1/589 266/1/549 265/1/513
f 584/1/590 586/1/591 583/1/592 581/1/476
f 408/1/122 425/1/121 426/1/272 419/1/593
f 870/1/594 871/1/324 840/1/3 863/1/2
f 357/1/555 366/1/573 347/1/572
f 357/1/555 367/1/595 366/1/573
f 280/1/407 295/1/406 301/1/565 294/1/577
f 301/1/565 302/1/596 158/1/585 294/1/577
f 362/1/373 369/1/597 363/1/374
f 199/1/394 205/1/396 200/1/389 192/1/388
f 247/1/222 253/1/505 248/1/504 239/1/223
f 426/1/272 433/1/158 434/1/128 427/1/598
f 165/1/336 169/1/341 156/1/584 162/1/332
f 450/1/147 452/1/348 442/1/129 441/1/148
f 434/1/128 437/1/131 428/1/599 427/1/598
f 367/1/595 374/1/168 371/1/600
f 303/1/601 302/1/596 301/1/565 296/1/528
f 539/1/602 542/1/381 534/1/263 532/1/603
f 370/1/604 377/1/409 378/1/412
f 374/1/168 380/1/171 372/1/605 371/1/600
f 570/1/450 572/1/460 568/1/433 566/1/432
f 438/1/358 439/1/606 428/1/599 437/1/131
f 443/1/130 445/1/176 438/1/358 437/1/131
f 801/1/288 803/1/607 807/1/452 800/1/289
f 158/1/585 302/1/596 124/1/608 151/1/586
f 498/1/210 505/1/228 504/1/231 499/1/166
f 22/1/355 23/1/356 13/1/609 21/1/219
f 897/1/610 895/1/611 891/1/612 896/1/613
f 429/1/330 440/1/98 57/1/180 410/1/174
f 31/1/250 136/1/247 38/1/246 30/1/282
f 447/1/614 439/1/606 438/1/358 446/1/357
f 325/1/521 392/1/540 393/1/545
f 477/1/615 478/1/616 472/1/617 458/1/350
f 421/1/491 477/1/615 458/1/350 459/1/349
f 391/1/618 398/1/619 397/1/620
f 587/1/621 590/1/520 588/1/516 584/1/590
f 393/1/545 399/1/551 400/1/384
f 402/1/235 477/1/615 421/1/491 415/1/173
f 402/1/235 482/1/622 478/1/616 477/1/615
f 312/1/51 309/1/623 303/1/601 310/1/52
f 552/1/392 555/1/413 553/1/624 550/1/403
f 397/1/620 398/1/619 404/1/625
f 658/1/626 707/1/627 704/1/628 687/1/629
f 322/1/295 319/1/630 312/1/51 320/1/50
f 478/1/616 479/1/631 473/1/632 472/1/617
f 400/1/384 407/1/123 408/1/122
f 400/1/384 408/1/122 409/1/385
f 421/1/491 429/1/330 410/1/174 415/1/173
f 177/1/560 176/1/578 169/1/341 170/1/340
f 404/1/625 398/1/619 412/1/496
f 333/1/633 334/1/634 340/1/571 335/1/568
f 322/1/295 342/1/294 90/1/100 329/1/99
f 347/1/572 356/1/575 90/1/100 342/1/294
f 409/1/385 408/1/122 414/1/635
f 349/1/150 359/1/636 330/1/511 331/1/354
f 412/1/496 398/1/619 417/1/497
f 466/1/177 473/1/632 467/1/637 460/1/178
f 414/1/635 408/1/122 419/1/593
f 414/1/635 419/1/593 420/1/638
f 502/1/240 518/1/302 507/1/227 501/1/209
f 479/1/631 480/1/639 475/1/640 474/1/641
f 417/1/497 398/1/619 422/1/642
f 473/1/632 479/1/631 474/1/641 467/1/637
f 124/1/608 309/1/623 99/1/193 117/1/192
f 359/1/636 368/1/259 338/1/393 330/1/511
f 11/1/211 18/1/212 17/1/216 12/1/643
f 364/1/574 366/1/573 367/1/595 371/1/600
f 420/1/638 427/1/598 428/1/599
f 99/1/193 319/1/630 91/1/561 92/1/194
f 322/1/295 329/1/99 91/1/561 319/1/630
f 186/1/306 187/1/494 178/1/468 179/1/303
f 90/1/100 356/1/575 71/1/28 85/1/101
f 364/1/574 365/1/29 71/1/28 356/1/575
f 535/1/253 526/1/380 131/1/66 520/1/65
f 727/1/644 732/1/506 731/1/509 728/1/645
f 91/1/561 329/1/99 78/1/102 86/1/562
f 3/1/646 6/1/647 5/1/12 1/1/5
f 275/1/255 314/1/23 313/1/22 304/1/503
f 290/1/15 297/1/14 815/1/213 810/1/215
f 372/1/605 373/1/648 72/1/30 365/1/29
f 372/1/605 380/1/171 379/1/649 373/1/648
f 530/1/650 536/1/651 531/1/652 525/1/492
f 63/1/204 85/1/101 71/1/28 64/1/31
f 241/1/367 242/1/445 218/1/653 233/1/368
f 397/1/620 404/1/625 403/1/654 383/1/170
f 201/1/397 203/1/399 195/1/655 193/1/377
f 446/1/357 398/1/619 447/1/614
f 419/1/593 426/1/272 427/1/598 420/1/638
f 222/1/656 230/1/447 229/1/446 221/1/657
f 373/1/648 381/1/658 69/1/659 72/1/30
f 373/1/648 379/1/649 388/1/660 381/1/658
f 403/1/654 411/1/499 388/1/660 379/1/649
f 446/1/357 453/1/179 398/1/619
f 306/1/661 317/1/662 316/1/663 307/1/664
f 840/1/3 871/1/324 846/1/323 841/1/477
f 388/1/660 394/1/552 389/1/56 381/1/658
f 381/1/658 389/1/56 382/1/59 69/1/659
f 382/1/59 396/1/58 390/1/175 55/1/665
f 372/1/605 365/1/29 364/1/574 371/1/600
f 412/1/496 411/1/499 403/1/654 404/1/625
f 453/1/179 460/1/178 398/1/619
f 11/1/211 12/1/643 9/1/666 10/1/203
f 312/1/51 319/1/630 99/1/193 309/1/623
f 62/1/138 70/1/205 63/1/204 56/1/465
f 69/1/659 382/1/59 55/1/665 61/1/466
f 55/1/665 390/1/175 49/1/181 48/1/667
f 56/1/465 61/1/466 55/1/665 48/1/667
f 472/1/617 473/1/632 466/1/177 451/1/668
f 460/1/178 467/1/637 398/1/619
f 383/1/170 403/1/654 379/1/649 380/1/171
f 104/1/48 468/1/54 96/1/60 98/1/79
f 39/1/197 44/1/159 7/1/541 32/1/559
f 4/1/6 16/1/137 8/1/201 2/1/7
f 16/1/137 48/1/667 15/1/202 8/1/201
f 464/1/119 470/1/17 471/1/117
f 532/1/603 534/1/263 528/1/232 529/1/669
f 411/1/499 416/1/498 394/1/552 388/1/660
f 467/1/637 474/1/641 398/1/619
f 131/1/66 526/1/380 139/1/383 132/1/297
f 398/1/619 474/1/641 475/1/640
f 398/1/619 475/1/640 422/1/642
f 79/1/125 106/1/225 75/1/162 74/1/126
f 390/1/175 410/1/174 57/1/180 49/1/181
f 481/1/670 401/1/553 394/1/552 416/1/498
f 475/1/640 480/1/639 481/1/670 422/1/642
f 26/1/220 47/1/110 46/1/109 41/1/523
f 303/1/601 309/1/623 124/1/608 302/1/596
f 478/1/616 482/1/622 480/1/639 479/1/631
f 214/1/417 215/1/671 207/1/398 209/1/402
f 58/1/134 65/1/672 4/1/6 52/1/132
f 470/1/17 488/1/9 486/1/25
f 470/1/17 484/1/10 488/1/9
f 6/1/647 32/1/559 7/1/541 5/1/12
f 483/1/19 506/1/77 489/1/11 484/1/10
f 12/1/643 13/1/609 3/1/646 9/1/666
f 2/1/7 9/1/666 3/1/646 1/1/5
f 51/1/133 52/1/132 7/1/541 44/1/159
f 485/1/18 487/1/107 491/1/40
f 66/1/536 86/1/562 65/1/672 58/1/134
f 221/1/657 229/1/446 224/1/673 223/1/674
f 826/1/478 836/1/675 820/1/242 821/1/187
f 560/1/414 564/1/434 565/1/439 561/1/676
f 564/1/434 560/1/414 559/1/316 563/1/315
f 358/1/326 512/1/325 385/1/538 375/1/260
f 534/1/263 542/1/381 526/1/380 535/1/253
f 391/1/618 397/1/620 383/1/170 384/1/169
f 75/1/162 100/1/283 67/1/285 51/1/133
f 457/1/118 476/1/97 465/1/331 456/1/143
f 451/1/668 466/1/177 445/1/176 443/1/130
f 116/1/677 151/1/586 124/1/608 117/1/192
f 105/1/226 107/1/678 100/1/283 75/1/162
f 227/1/679 233/1/368 218/1/653 220/1/680
f 115/1/681 146/1/682 116/1/677 108/1/284
f 105/1/226 123/1/254 114/1/269 107/1/678
f 114/1/269 137/1/276 115/1/681 107/1/678
f 189/1/305 236/1/45 196/1/44 186/1/306
f 610/1/567 607/1/472 606/1/471 609/1/558
f 149/1/587 151/1/586 116/1/677 146/1/682
f 83/1/63 102/1/49 104/1/48 98/1/79
f 401/1/553 482/1/622 402/1/235 395/1/57
f 43/1/195 38/1/246 128/1/249 120/1/196
f 491/1/40 499/1/166 516/1/160
f 491/1/40 517/1/93 511/1/41
f 491/1/40 516/1/160 517/1/93
f 682/1/683 683/1/530 674/1/529 681/1/684
f 45/1/124 120/1/196 113/1/35 79/1/125
f 135/1/248 141/1/280 121/1/32 128/1/249
f 120/1/196 128/1/249 121/1/32 113/1/35
f 358/1/326 359/1/636 349/1/150 351/1/149
f 143/1/33 129/1/685 122/1/241 112/1/34
f 499/1/166 504/1/231 522/1/167
f 144/1/292 146/1/682 115/1/681 137/1/276
f 66/1/536 67/1/285 93/1/191 92/1/194
f 142/1/279 143/1/33 121/1/32 141/1/280
f 833/1/1 834/1/4 815/1/213 827/1/686
f 848/1/687 854/1/688 850/1/689 843/1/690
f 504/1/231 529/1/669 528/1/232
f 523/1/301 524/1/300 530/1/650
f 524/1/300 361/1/319 530/1/650
f 530/1/650 361/1/319 352/1/318
f 523/1/301 530/1/650 525/1/492
f 138/1/275 147/1/296 145/1/291 137/1/276
f 525/1/492 531/1/652 508/1/493
f 508/1/493 532/1/603 529/1/669
f 130/1/268 123/1/254 122/1/241 129/1/685
f 508/1/493 531/1/652 532/1/603
f 142/1/279 161/1/278 160/1/329 154/1/328
f 857/1/691 858/1/692 850/1/689 854/1/688
f 142/1/279 154/1/328 129/1/685 143/1/33
f 531/1/652 536/1/651 532/1/603
f 530/1/650 352/1/318 537/1/693
f 530/1/650 537/1/693 538/1/694
f 129/1/685 154/1/328 153/1/309 130/1/268
f 532/1/603 536/1/651 540/1/695
f 532/1/603 540/1/695 539/1/602
f 533/1/382 539/1/602 541/1/696
f 539/1/602 540/1/695 541/1/696
f 533/1/382 542/1/381 539/1/602
f 162/1/332 168/1/339 167/1/345 166/1/335
f 352/1/318 544/1/534 537/1/693
f 353/1/535 545/1/697 543/1/533
f 353/1/535 546/1/116 545/1/697
f 353/1/535 345/1/379 546/1/116
f 545/1/697 546/1/116 547/1/404
f 345/1/379 548/1/113 546/1/116
f 546/1/116 549/1/115 547/1/404
f 193/1/377 195/1/655 185/1/363 174/1/347
f 194/1/698 201/1/397 193/1/377 184/1/362
f 316/1/663 326/1/699 318/1/700 308/1/701
f 202/1/400 207/1/398 201/1/397 194/1/698
f 552/1/392 554/1/391 555/1/413
f 553/1/624 555/1/413 556/1/415
f 553/1/624 556/1/415 557/1/702
f 207/1/398 215/1/671 210/1/703 203/1/399
f 442/1/129 452/1/348 451/1/668 443/1/130
f 556/1/415 560/1/414 561/1/676
f 556/1/415 561/1/676 557/1/702
f 215/1/671 223/1/674 217/1/704 210/1/703
f 221/1/657 223/1/674 215/1/671 214/1/417
f 222/1/656 221/1/657 214/1/417 216/1/416
f 469/1/108 494/1/165 492/1/144 487/1/107
f 422/1/642 481/1/670 416/1/498 417/1/497
f 258/1/185 337/1/184 331/1/354 268/1/154
f 229/1/446 237/1/313 231/1/221 224/1/673
f 231/1/221 232/1/224 225/1/705 224/1/673
f 568/1/433 572/1/460 573/1/459
f 568/1/433 573/1/459 569/1/438
f 94/1/38 455/1/27 101/1/46 95/1/70
f 245/1/312 247/1/222 231/1/221 237/1/313
f 584/1/590 588/1/516 589/1/515 586/1/591
f 64/1/31 72/1/30 69/1/659 61/1/466
f 897/1/610 856/1/706 855/1/544 862/1/387
f 576/1/457 580/1/470 577/1/458
f 252/1/469 260/1/707 254/1/483 253/1/505
f 182/1/359 192/1/388 191/1/390 183/1/360
f 581/1/476 582/1/475 584/1/590
f 260/1/707 270/1/708 261/1/484 254/1/483
f 582/1/475 585/1/709 584/1/590
f 584/1/590 585/1/709 587/1/621
f 278/1/420 279/1/510 271/1/495 261/1/484
f 277/1/421 278/1/420 261/1/484 270/1/708
f 588/1/516 590/1/520 591/1/517
f 263/1/512 282/1/522 274/1/588 265/1/513
f 116/1/677 117/1/192 93/1/191 108/1/284
f 224/1/673 225/1/705 217/1/704 223/1/674
f 599/1/548 600/1/440 597/1/443 596/1/525
f 157/1/320 162/1/332 156/1/584 150/1/307
f 298/1/266 307/1/664 300/1/710 293/1/342
f 307/1/664 298/1/266 299/1/265 306/1/661
f 307/1/664 316/1/663 308/1/701 300/1/710
f 458/1/350 472/1/617 451/1/668 452/1/348
f 508/1/493 529/1/669 504/1/231 505/1/228
f 317/1/662 327/1/711 326/1/699 316/1/663
f 581/1/476 583/1/592 580/1/470 579/1/462
f 326/1/699 327/1/711 334/1/634 333/1/633
f 567/1/431 571/1/451 570/1/450 566/1/432
f 107/1/678 115/1/681 108/1/284 100/1/283
f 611/1/564 614/1/712 613/1/566
f 611/1/564 612/1/563 614/1/712
f 615/1/713 616/1/714 617/1/715
f 618/1/543 191/1/390 200/1/389
f 618/1/543 183/1/360 191/1/390
f 616/1/714 181/1/361 618/1/543
f 618/1/543 181/1/361 183/1/360
f 616/1/714 618/1/543 619/1/716
f 616/1/714 619/1/716 620/1/717
f 616/1/714 620/1/717 617/1/715
f 639/1/718 645/1/719 377/1/409 369/1/597
f 620/1/717 622/1/720 617/1/715
f 621/1/542 205/1/396 623/1/721
f 622/1/720 624/1/722 617/1/715
f 205/1/396 625/1/723 623/1/721
f 205/1/396 213/1/724 625/1/723
f 624/1/722 626/1/725 617/1/715
f 335/1/568 336/1/570 328/1/726 333/1/633
f 657/1/727 662/1/728 661/1/729 387/1/410
f 617/1/715 629/1/730 630/1/731
f 617/1/715 630/1/731 631/1/732
f 617/1/715 631/1/732 632/1/733
f 617/1/715 632/1/733 633/1/734
f 617/1/715 633/1/734 634/1/735
f 628/1/736 627/1/737 636/1/738
f 628/1/736 636/1/738 637/1/739
f 632/1/733 638/1/740 633/1/734
f 633/1/734 639/1/718 346/1/378
f 639/1/718 362/1/373 354/1/376
f 639/1/718 354/1/376 346/1/378
f 639/1/718 369/1/597 362/1/373
f 633/1/734 638/1/740 639/1/718
f 635/1/741 640/1/742 627/1/737
f 668/1/743 676/1/744 673/1/745 667/1/532
f 627/1/737 628/1/736 625/1/723 213/1/724
f 499/1/166 491/1/40 493/1/145 498/1/210
f 636/1/738 643/1/746 641/1/747
f 675/1/531 677/1/748 661/1/729 667/1/532
f 641/1/747 643/1/746 646/1/749
f 680/1/750 681/1/684 673/1/745 676/1/744
f 465/1/331 459/1/349 450/1/147 456/1/143
f 645/1/719 650/1/751 377/1/409
f 646/1/749 649/1/752 651/1/753
f 647/1/754 652/1/755 653/1/756
f 676/1/744 713/1/757 710/1/758 680/1/750
f 647/1/754 654/1/759 652/1/755
f 879/1/760 886/1/273 887/1/761 872/1/762
f 647/1/754 655/1/763 654/1/759
f 649/1/752 656/1/764 651/1/753
f 377/1/409 657/1/727 387/1/410
f 377/1/409 650/1/751 657/1/727
f 651/1/753 656/1/764 658/1/626
f 651/1/753 659/1/765 655/1/763
f 654/1/759 655/1/763 659/1/765
f 651/1/753 658/1/626 659/1/765
f 212/1/766 635/1/741 627/1/737 213/1/724
f 27/1/74 35/1/135 19/1/172 20/1/72
f 212/1/766 213/1/724 205/1/396 206/1/395
f 659/1/765 658/1/626 664/1/767
f 659/1/765 664/1/767 665/1/768
f 659/1/765 665/1/768 666/1/769
f 662/1/728 667/1/532 661/1/729
f 662/1/728 668/1/743 667/1/532
f 637/1/739 670/1/770 628/1/736
f 663/1/771 670/1/770 637/1/739
f 665/1/768 671/1/772 666/1/769
f 665/1/768 664/1/767 672/1/773
f 665/1/768 672/1/773 671/1/772
f 288/1/527 289/1/526 266/1/549 281/1/589
f 667/1/532 673/1/745 674/1/529
f 640/1/742 642/1/774 636/1/738 627/1/737
f 642/1/774 648/1/775 643/1/746 636/1/738
f 669/1/776 661/1/729 677/1/748
f 671/1/772 672/1/773 678/1/582
f 672/1/773 679/1/579 678/1/582
f 672/1/773 664/1/767 679/1/579
f 326/1/699 333/1/633 328/1/726 318/1/700
f 673/1/745 681/1/684 674/1/529
f 649/1/752 646/1/749 643/1/746 648/1/775
f 727/1/644 728/1/645 722/1/777 726/1/429
f 678/1/582 684/1/581 685/1/778
f 891/1/612 889/1/479 882/1/779 890/1/780
f 664/1/767 658/1/626 687/1/629
f 664/1/767 688/1/781 679/1/579
f 664/1/767 687/1/629 688/1/781
f 681/1/684 690/1/782 682/1/683
f 682/1/683 690/1/782 691/1/783
f 699/1/784 690/1/782 681/1/684 680/1/750
f 685/1/778 684/1/581 693/1/785
f 234/1/454 240/1/364 233/1/368 227/1/679
f 686/1/786 695/1/787 671/1/772
f 688/1/781 687/1/629 696/1/788
f 690/1/782 697/1/789 691/1/783
f 690/1/782 698/1/790 697/1/789
f 690/1/782 699/1/784 698/1/790
f 647/1/754 646/1/749 651/1/753 655/1/763
f 656/1/764 778/1/791 707/1/627 658/1/626
f 694/1/792 700/1/793 702/1/794
f 671/1/772 695/1/787 703/1/795
f 671/1/772 703/1/795 666/1/769
f 696/1/788 687/1/629 704/1/628
f 723/1/796 705/1/797 697/1/789 719/1/798
f 12/1/643 17/1/216 21/1/219 13/1/609
f 702/1/794 700/1/793 706/1/799
f 700/1/793 701/1/800 706/1/799
f 705/1/797 708/1/801 691/1/783 697/1/789
f 691/1/783 708/1/801 709/1/802
f 691/1/783 709/1/802 682/1/683
f 101/1/46 102/1/49 81/1/62 95/1/70
f 680/1/750 710/1/758 711/1/803
f 712/1/804 698/1/790 699/1/784
f 680/1/750 712/1/804 699/1/784
f 680/1/750 711/1/803 712/1/804
f 644/1/805 660/1/806 663/1/771 637/1/739
f 668/1/743 662/1/728 715/1/807
f 668/1/743 715/1/807 714/1/808
f 698/1/790 716/1/809 697/1/789
f 698/1/790 717/1/810 716/1/809
f 698/1/790 718/1/811 717/1/810
f 716/1/809 719/1/798 697/1/789
f 716/1/809 717/1/810 720/1/812
f 716/1/809 721/1/813 719/1/798
f 716/1/809 720/1/812 722/1/777
f 716/1/809 722/1/777 721/1/813
f 817/1/814 819/1/351 825/1/426 823/1/815
f 717/1/810 718/1/811 724/1/430
f 717/1/810 724/1/430 720/1/812
f 719/1/798 725/1/816 723/1/796
f 719/1/798 721/1/813 725/1/816
f 720/1/812 726/1/429 722/1/777
f 720/1/812 724/1/430 726/1/429
f 783/1/487 788/1/490 782/1/817 779/1/818
f 686/1/786 671/1/772 678/1/582 685/1/778
f 726/1/429 730/1/428 727/1/644
f 692/1/819 693/1/785 684/1/581 689/1/580
f 730/1/428 732/1/506 727/1/644
f 693/1/785 700/1/793 694/1/792 685/1/778
f 701/1/800 700/1/793 693/1/785 692/1/819
f 733/1/820 736/1/821 734/1/507
f 734/1/507 737/1/822 735/1/508
f 737/1/822 734/1/507 736/1/821
f 617/1/715 739/1/823 741/1/824 629/1/730
f 738/1/825 740/1/826 739/1/823
f 641/1/747 644/1/805 637/1/739 636/1/738
f 740/1/826 742/1/827 739/1/823
f 739/1/823 743/1/828 741/1/824
f 739/1/823 742/1/827 744/1/829
f 739/1/823 744/1/829 745/1/830
f 739/1/823 745/1/830 743/1/828
f 742/1/827 746/1/831 744/1/829
f 745/1/830 744/1/829 747/1/832
f 746/1/831 748/1/833 744/1/829
f 747/1/832 744/1/829 749/1/834
f 748/1/833 750/1/835 744/1/829
f 749/1/834 744/1/829 751/1/836
f 750/1/835 752/1/837 744/1/829
f 751/1/836 744/1/829 753/1/838
f 752/1/837 754/1/839 744/1/829
f 753/1/838 744/1/829 755/1/840
f 754/1/839 756/1/841 744/1/829
f 755/1/840 744/1/829 757/1/842
f 756/1/841 758/1/843 744/1/829
f 757/1/842 744/1/829 759/1/844
f 758/1/843 760/1/845 744/1/829
f 759/1/844 744/1/829 761/1/846
f 760/1/845 762/1/847 744/1/829
f 761/1/846 744/1/829 763/1/848
f 762/1/847 764/1/849 744/1/829
f 763/1/848 744/1/829 765/1/850
f 764/1/849 766/1/851 744/1/829
f 765/1/850 744/1/829 767/1/852
f 766/1/851 768/1/853 744/1/829
f 767/1/852 744/1/829 769/1/854
f 768/1/853 770/1/855 744/1/829
f 769/1/854 744/1/829 771/1/856
f 770/1/855 772/1/857 744/1/829
f 771/1/856 744/1/829 773/1/858
f 772/1/857 774/1/859 744/1/829
f 744/1/829 775/1/860 773/1/858
f 744/1/829 776/1/861 775/1/860
f 744/1/829 774/1/859 776/1/861
f 649/1/752 777/1/862 656/1/764
f 777/1/862 778/1/791 656/1/764
f 849/1/863 325/1/521 393/1/545 855/1/544
f 288/1/527 310/1/52 303/1/601 296/1/528
f 779/1/818 781/1/864 780/1/865
f 661/1/729 669/1/776 386/1/411 387/1/410
f 779/1/818 288/1/527 783/1/487
f 842/1/866 849/1/863 847/1/238 848/1/687
f 898/1/239 856/1/706 897/1/610 896/1/613
f 738/1/825 739/1/823 617/1/715 626/1/725
f 57/1/180 440/1/98 87/1/83 36/1/85
f 853/1/237 854/1/688 848/1/687 847/1/238
f 783/1/487 288/1/527 789/1/488
f 288/1/527 281/1/589 789/1/488
f 842/1/866 848/1/687 843/1/690 835/1/867
f 784/1/576 806/1/353 785/1/370 781/1/864
f 892/1/480 869/1/386 409/1/385 414/1/635
f 895/1/611 897/1/610 862/1/387 869/1/386
f 385/1/538 512/1/325 502/1/240 503/1/208
f 790/1/489 795/1/287 794/1/286
f 835/1/867 843/1/690 829/1/868 315/1/501
f 281/1/589 274/1/588 795/1/287
f 889/1/479 895/1/611 869/1/386 892/1/480
f 653/1/756 660/1/806 644/1/805 647/1/754
f 792/1/371 797/1/352 798/1/869
f 853/1/237 877/1/274 857/1/691 854/1/688
f 385/1/538 503/1/208 423/1/206 418/1/539
f 850/1/689 858/1/692 828/1/870 829/1/868
f 795/1/287 274/1/588 801/1/288
f 274/1/588 282/1/522 802/1/871
f 13/1/609 23/1/356 6/1/647 3/1/646
f 274/1/588 802/1/871 803/1/607
f 274/1/588 803/1/607 801/1/288
f 357/1/555 796/1/554 804/1/872
f 252/1/469 253/1/505 247/1/222 245/1/312
f 357/1/555 804/1/872 805/1/873
f 406/1/546 424/1/207 405/1/500 399/1/551
f 828/1/870 858/1/692 833/1/1 827/1/686
f 857/1/691 863/1/2 833/1/1 858/1/692
f 358/1/326 375/1/260 368/1/259 359/1/636
f 805/1/873 811/1/874 357/1/555
f 804/1/872 811/1/874 805/1/873
f 804/1/872 812/1/875 811/1/874
f 894/1/876 896/1/613 891/1/612 890/1/780
f 893/1/236 898/1/239 896/1/613 894/1/876
f 802/1/871 810/1/215 809/1/214 808/1/877
f 297/1/14 305/1/502 815/1/213
f 290/1/15 810/1/215 802/1/871 282/1/522
f 218/1/653 242/1/445 226/1/435 219/1/423
f 844/1/878 878/1/322 864/1/879 851/1/103
f 844/1/878 851/1/103 830/1/106 836/1/675
f 641/1/747 646/1/749 647/1/754 644/1/805
f 812/1/875 818/1/880 811/1/874
f 65/1/672 86/1/562 78/1/102 70/1/205
f 886/1/273 893/1/236 894/1/876 887/1/761
f 733/1/820 734/1/507 732/1/506 730/1/428
f 818/1/880 824/1/881 811/1/874
f 888/1/882 890/1/780 882/1/779 881/1/883
f 887/1/761 894/1/876 890/1/780 888/1/882
f 879/1/760 870/1/594 877/1/274 886/1/273
f 857/1/691 877/1/274 870/1/594 863/1/2
f 119/1/290 127/1/90 125/1/67 126/1/298
f 305/1/502 827/1/686 815/1/213
f 305/1/502 828/1/870 827/1/686
f 305/1/502 315/1/501 829/1/868
f 305/1/502 829/1/868 828/1/870
f 823/1/815 825/1/426 830/1/106
f 823/1/815 830/1/106 824/1/881
f 825/1/426 831/1/243 830/1/106
f 811/1/874 824/1/881 832/1/884
f 8/1/201 10/1/203 9/1/666 2/1/7
f 802/1/871 808/1/877 807/1/452 803/1/607
f 315/1/501 325/1/521 835/1/867
f 780/1/865 311/1/53 288/1/527 779/1/818
f 789/1/488 281/1/589 795/1/287 790/1/489
f 832/1/884 837/1/885 838/1/886
f 832/1/884 824/1/881 839/1/887
f 832/1/884 839/1/887 837/1/885
f 839/1/887 830/1/106 837/1/885
f 839/1/887 824/1/881 830/1/106
f 809/1/214 841/1/477 816/1/888 808/1/877
f 816/1/888 822/1/453 807/1/452 808/1/877
f 835/1/867 325/1/521 842/1/866
f 4/1/6 65/1/672 70/1/205 62/1/138
f 873/1/321 879/1/760 872/1/762 865/1/889
f 480/1/639 482/1/622 401/1/553 481/1/670
f 144/1/292 150/1/307 149/1/587 146/1/682
f 841/1/477 846/1/323 845/1/890 816/1/888
f 211/1/422 220/1/680 218/1/653 219/1/423
f 251/1/182 258/1/185 240/1/364 243/1/455
f 842/1/866 325/1/521 849/1/863
f 843/1/690 850/1/689 829/1/868
f 148/1/258 155/1/277 141/1/280 135/1/248
f 788/1/490 790/1/489 794/1/286 793/1/189
f 865/1/889 872/1/762 866/1/337 859/1/104
f 830/1/106 852/1/105 837/1/885
f 476/1/97 471/1/117 454/1/24 448/1/39
f 867/1/891 861/1/892 860/1/338 866/1/337
f 780/1/865 786/1/369 321/1/293 311/1/53
f 782/1/817 784/1/576 781/1/864 779/1/818
f 849/1/863 855/1/544 856/1/706
f 405/1/500 431/1/190 413/1/120 407/1/123
f 794/1/286 800/1/289 799/1/186 793/1/189
f 235/1/464 236/1/45 189/1/305 228/1/436
f 792/1/371 798/1/869 796/1/554 791/1/372
f 837/1/885 861/1/892 838/1/886
f 786/1/369 780/1/865 781/1/864 785/1/370
f 864/1/879 878/1/322 873/1/321 865/1/889
f 859/1/104 851/1/103 864/1/879
f 859/1/104 864/1/879 865/1/889
f 558/1/317 559/1/316 555/1/413 554/1/391
f 860/1/338 861/1/892 837/1/885 852/1/105
f 861/1/892 867/1/891 838/1/886
f 838/1/886 867/1/891 868/1/893
f 791/1/372 348/1/556 321/1/293 786/1/369
f 898/1/239 847/1/238 849/1/863 856/1/706
f 870/1/594 879/1/760 873/1/321 871/1/324
f 816/1/888 845/1/890 826/1/478 822/1/453
f 866/1/337 872/1/762 867/1/891
f 826/1/478 845/1/890 844/1/878 836/1/675
f 15/1/202 48/1/667 49/1/181 34/1/84
f 515/1/68 133/1/89 509/1/92 514/1/95
f 846/1/323 878/1/322 844/1/878 845/1/890
f 867/1/891 872/1/762 874/1/894
f 867/1/891 874/1/894 868/1/893
f 868/1/893 874/1/894 875/1/895
f 874/1/894 872/1/762 875/1/895
f 868/1/893 875/1/895 876/1/896
f 875/1/895 880/1/897 876/1/896
f 875/1/895 872/1/762 881/1/883
f 824/1/881 818/1/880 817/1/814 823/1/815
f 876/1/896 880/1/897 883/1/482
f 817/1/814 818/1/880 812/1/875 798/1/869
f 876/1/896 883/1/482 884/1/481
f 884/1/481 414/1/635 885/1/898
f 876/1/896 885/1/898 414/1/635
f 876/1/896 884/1/481 885/1/898
f 268/1/154 331/1/354 330/1/511 324/1/155
f 787/1/188 821/1/187 820/1/242 814/1/245
f 831/1/243 820/1/242 836/1/675 830/1/106
f 881/1/883 872/1/762 888/1/882
f 676/1/744 668/1/743 714/1/808 713/1/757
f 887/1/761 888/1/882 872/1/762
f 798/1/869 812/1/875 804/1/872 796/1/554
f 797/1/352 819/1/351 817/1/814 798/1/869
f 884/1/481 892/1/480 414/1/635
f 788/1/490 793/1/189 787/1/188 782/1/817
f 28/1/281 32/1/559 6/1/647 23/1/356
f 523/1/301 525/1/492 507/1/227 518/1/302
f 882/1/779 880/1/897 875/1/895 881/1/883
f 889/1/479 891/1/612 895/1/611
f 369/1/597 377/1/409 370/1/604 363/1/374
f 785/1/370 806/1/353 797/1/352 792/1/371
f 16/1/137 62/1/138 56/1/465 48/1/667
f 787/1/188 814/1/245 784/1/576 782/1/817
f 882/1/779 889/1/479 883/1/482 880/1/897
f 832/1/884 838/1/886 899/1/899
f 811/1/874 832/1/884 899/1/899
f 811/1/874 899/1/899 900/1/900
f 811/1/874 900/1/900 357/1/555
f 899/1/899 838/1/886 901/1/901
f 868/1/893 876/1/896 902/1/902
f 838/1/886 868/1/893 902/1/902
f 838/1/886 902/1/902 903/1/903
f 838/1/886 903/1/903 904/1/904
f 838/1/886 904/1/904 905/1/905
f 838/1/886 905/1/905 906/1/906
f 838/1/886 906/1/906 901/1/901
f 902/1/902 876/1/896 907/1/907
f 876/1/896 414/1/635 907/1/907
f 908/1/908 724/1/430 718/1/811
f 724/1/430 909/1/909 729/1/427
f 908/1/908 909/1/909 724/1/430
f 24/1/218 40/1/271 37/1/537 29/1/456
