# Blender 4.3.2
# www.blender.org
o hair.013
v 7.431187 1.335528 0.021439
v 7.431479 1.327853 0.032920
v 7.429906 1.334180 0.033003
v 7.419288 1.327853 0.034164
v 7.419132 1.335528 0.021439
v 7.429171 1.337318 0.033181
v 7.425966 1.334083 0.033565
v 7.448852 1.329960 0.021439
v 7.445268 1.326288 0.026264
v 7.439291 1.334678 0.029780
v 7.436672 1.332418 0.030766
v 7.425159 1.323033 0.015266
v 7.450475 1.316568 0.017373
v 7.449663 1.323264 0.019406
v 7.413717 1.332348 0.031218
v 7.450228 1.308523 -0.004380
v 7.453800 1.318675 0.004733
v 7.452969 1.318148 0.007893
v 7.451029 1.316919 0.015266
v 7.451583 1.317270 0.013160
v 7.452137 1.317621 0.011053
v 7.411016 1.334667 0.029778
v 7.405051 1.326288 0.024684
v 7.401467 1.329960 0.021439
v 7.400655 1.323264 0.019406
v 7.399844 1.316568 0.017373
v 7.399290 1.316919 0.015266
v 7.396519 1.318675 0.004733
v 7.400091 1.308523 -0.004380
v 7.398736 1.317270 0.013160
v 7.398181 1.317621 0.011053
v 7.397350 1.318148 0.007893
v 7.450228 1.308523 -0.004380
v 7.453468 1.323034 0.000094
v 7.453800 1.318675 0.004733
v 7.451657 1.311994 -0.007455
v 7.446350 1.303563 -0.008254
v 7.452816 1.328453 0.002936
v 7.452810 1.330073 -0.002998
v 7.453136 1.327402 -0.004553
v 7.452279 1.316165 -0.009986
v 7.452969 1.318148 0.007893
v 7.445741 1.304150 -0.014266
v 7.442490 1.299871 -0.011271
v 7.452805 1.331765 -0.009196
v 7.451911 1.337435 0.001286
v 7.452798 1.327302 0.007138
v 7.451738 1.337535 0.006169
v 7.446168 1.307307 -0.018405
v 7.452267 1.320458 -0.012432
v 7.452137 1.317621 0.011053
v 7.436496 1.300227 -0.019133
v 7.438879 1.297534 -0.013207
v 7.452130 1.326333 0.010149
v 7.451564 1.337635 0.011053
v 7.449101 1.344098 0.009046
v 7.446143 1.310808 -0.022232
v 7.436005 1.309114 -0.026887
v 7.436336 1.304443 -0.023226
v 7.445989 1.331179 -0.023288
v 7.448097 1.319309 -0.025089
v 7.451583 1.317270 0.013160
v 7.434873 1.296219 -0.014444
v 7.448762 1.343528 0.013466
v 7.450208 1.333797 0.016246
v 7.425159 1.308150 -0.029016
v 7.436347 1.320458 -0.030730
v 7.425159 1.303606 -0.024591
v 7.425159 1.299138 -0.020230
v 7.451289 1.325288 0.013300
v 7.451029 1.316919 0.015266
v 7.430356 1.295438 -0.015236
v 7.425159 1.320326 -0.037470
v 7.425159 1.333710 -0.032132
v 7.439696 1.333210 -0.031896
v 7.413983 1.304443 -0.023226
v 7.449530 1.331879 0.018842
v 7.450447 1.324243 0.016451
v 7.449663 1.323264 0.019406
v 7.450475 1.316568 0.017373
v 7.425159 1.295112 -0.015394
v 7.413972 1.320458 -0.030730
v 7.436575 1.344146 -0.023951
v 7.453481 1.339789 -0.021900
v 7.448852 1.329960 0.021439
v 7.446711 1.335271 0.024186
v 7.419963 1.295438 -0.015236
v 7.413823 1.300227 -0.019133
v 7.415446 1.296219 -0.014444
v 7.414314 1.309114 -0.026887
v 7.446833 1.346304 -0.012262
v 7.446057 1.332080 0.025728
v 7.445268 1.326288 0.026264
v 7.404150 1.307307 -0.018405
v 7.404578 1.304150 -0.014266
v 7.411440 1.297534 -0.013207
v 7.404176 1.310808 -0.022232
v 7.447332 1.354206 -0.001367
v 7.446336 1.351636 0.007981
v 7.442832 1.333433 0.027983
v 7.443642 1.336764 0.026846
v 7.439291 1.334678 0.029780
v 7.407829 1.299871 -0.011271
v 7.398051 1.320458 -0.012432
v 7.402222 1.319309 -0.025089
v 7.436347 1.356024 -0.001992
v 7.445804 1.350394 0.011851
v 7.447107 1.346391 0.014634
v 7.440241 1.338138 0.029084
v 7.403969 1.303563 -0.008254
v 7.404330 1.331179 -0.023288
v 7.439696 1.354975 -0.017134
v 7.447124 1.341402 0.020470
v 7.445370 1.344256 0.020896
v 7.398662 1.311994 -0.007455
v 7.400091 1.308523 -0.004380
v 7.398040 1.316165 -0.009986
v 7.410623 1.333210 -0.031896
v 7.425159 1.354015 -0.015095
v 7.396851 1.323038 0.000090
v 7.396519 1.318675 0.004733
v 7.397514 1.331765 -0.009196
v 7.397182 1.327402 -0.004553
v 7.413743 1.344146 -0.023951
v 7.425159 1.348169 -0.027323
v 7.444223 1.339985 0.025409
v 7.397463 1.328055 0.003009
v 7.397486 1.326891 0.007408
v 7.397350 1.318148 0.007893
v 7.397489 1.329910 -0.003093
v 7.396838 1.339789 -0.021900
v 7.444294 1.343069 0.023590
v 7.441334 1.344672 0.026549
v 7.440999 1.341471 0.028051
v 7.398176 1.326073 0.010128
v 7.398181 1.317621 0.011053
v 7.398407 1.337435 0.001286
v 7.403486 1.346304 -0.012262
v 7.442359 1.345821 0.023877
v 7.443385 1.346971 0.021206
v 7.438113 1.346137 0.028496
v 7.437117 1.342902 0.030086
v 7.435808 1.339524 0.031126
v 7.410623 1.354975 -0.017134
v 7.439944 1.349928 0.023272
v 7.439150 1.348219 0.025997
v 7.445287 1.349163 0.015728
v 7.440485 1.351366 0.020330
v 7.434500 1.347258 0.029852
v 7.432905 1.344108 0.031505
v 7.433414 1.333332 0.032236
v 7.436672 1.332418 0.030766
v 7.434358 1.336079 0.031794
v 7.413972 1.356024 -0.001992
v 7.435082 1.349762 0.027416
v 7.441028 1.352890 0.017306
v 7.441845 1.353549 0.012619
v 7.429906 1.334180 0.033003
v 7.431479 1.327853 0.032920
v 7.429171 1.337318 0.033181
v 7.431100 1.340758 0.032539
v 7.402987 1.354206 -0.001367
v 7.436119 1.355718 0.008182
v 7.436101 1.355826 0.013287
v 7.427692 1.341370 0.033369
v 7.428835 1.344735 0.032337
v 7.403983 1.351636 0.007981
v 7.425159 1.360990 -0.003055
v 7.425159 1.359032 0.010672
v 7.430399 1.357556 0.014407
v 7.430607 1.356599 0.019033
v 7.435795 1.355176 0.018281
v 7.414200 1.355718 0.008182
v 7.425159 1.358293 0.015079
v 7.419766 1.357505 0.014516
v 7.425159 1.357028 0.019381
v 7.430536 1.354966 0.022393
v 7.435814 1.353923 0.021626
v 7.429892 1.347860 0.030702
v 7.430163 1.350590 0.028181
v 7.419724 1.356596 0.019047
v 7.414221 1.355828 0.013277
v 7.425159 1.355355 0.022684
v 7.419783 1.354967 0.022393
v 7.435506 1.351968 0.024615
v 7.425159 1.348057 0.030943
v 7.425159 1.350781 0.028480
v 7.424644 1.345047 0.032547
v 7.414524 1.355176 0.018280
v 7.414505 1.353923 0.021626
v 7.425159 1.353200 0.025683
v 7.430373 1.352903 0.025382
v 7.419946 1.352903 0.025382
v 7.420156 1.350591 0.028180
v 7.424128 1.341797 0.033600
v 7.425913 1.337492 0.033714
v 7.409270 1.352864 0.017336
v 7.414813 1.351968 0.024615
v 7.415237 1.349764 0.027415
v 7.420422 1.347875 0.030717
v 7.423208 1.333289 0.033894
v 7.423049 1.337650 0.033880
v 7.425966 1.334083 0.033565
v 7.409167 1.353803 0.013309
v 7.410375 1.349928 0.023272
v 7.409833 1.351367 0.020331
v 7.420360 1.344739 0.032312
v 7.415806 1.347270 0.029886
v 7.421513 1.333292 0.034027
v 7.419288 1.327853 0.034164
v 7.404515 1.350394 0.011851
v 7.405032 1.349163 0.015728
v 7.406934 1.346971 0.021206
v 7.419810 1.333033 0.033861
v 7.416192 1.332476 0.032623
v 7.413717 1.332348 0.031218
v 7.418200 1.332759 0.033420
v 7.401217 1.344098 0.009046
v 7.403211 1.346391 0.014634
v 7.404949 1.344256 0.020896
v 7.407960 1.345821 0.023879
v 7.420380 1.341360 0.033342
v 7.414290 1.335894 0.031696
v 7.411016 1.334667 0.029778
v 7.417386 1.336759 0.032899
v 7.398581 1.337535 0.006169
v 7.401557 1.343530 0.013466
v 7.411168 1.348219 0.025995
v 7.416190 1.344080 0.031458
v 7.420238 1.337438 0.033694
v 7.398755 1.337635 0.011053
v 7.412191 1.346147 0.028502
v 7.412546 1.342892 0.030041
v 7.416771 1.340676 0.032474
v 7.399772 1.334757 0.014948
v 7.408987 1.344671 0.026551
v 7.406025 1.343069 0.023589
v 7.409304 1.341473 0.028041
v 7.413212 1.339470 0.031066
v 7.399019 1.325119 0.013277
v 7.403195 1.341402 0.020470
v 7.406098 1.339974 0.025411
v 7.410071 1.338106 0.028926
v 7.399862 1.324165 0.016427
v 7.400789 1.331879 0.018842
v 7.398736 1.317270 0.013160
v 7.403897 1.335742 0.023718
v 7.406796 1.336794 0.026507
v 7.406996 1.332522 0.026763
v 7.405051 1.326288 0.024684
v 7.399290 1.316919 0.015266
v 7.400655 1.323264 0.019406
v 7.401467 1.329960 0.021439
v 7.404248 1.331293 0.024532
v 7.399844 1.316568 0.017373
vn -0.1794 -0.9569 0.2284
vn -0.4394 -0.7519 -0.4915
vn -0.9643 -0.2285 -0.1335
vn -0.5166 -0.7057 -0.4849
vn -0.6376 -0.6773 -0.3672
vn -0.7334 -0.5835 -0.3487
vn -0.3459 -0.7180 -0.6040
vn -0.0792 -0.9874 0.1369
vn 0.6876 -0.6940 0.2133
vn 0.1373 -0.9324 -0.3344
vn -0.2490 -0.7900 0.5602
vn -0.4136 -0.8280 -0.3787
vn -0.2164 -0.9699 0.1114
vn 0.4431 -0.7392 -0.5071
vn -0.1404 -0.6361 0.7587
vn -0.2419 -0.9037 0.3534
vn -0.0945 -0.2997 0.9494
vn 0.1552 -0.6896 0.7074
vn 0.0139 -0.9100 0.4143
vn -0.2245 -0.9499 -0.2174
vn -0.2602 -0.8248 -0.5019
vn 0.1591 -0.9858 0.0530
vn 0.0936 -0.9868 0.1318
vn 0.3771 -0.7604 -0.5287
vn 0.2461 -0.7806 0.5745
vn 0.0945 -0.2997 0.9494
vn 0.2419 -0.9037 0.3534
vn 0.1404 -0.6361 0.7587
vn 0.2245 -0.9499 -0.2174
vn -0.0139 -0.9100 0.4143
vn -0.1552 -0.6896 0.7074
vn -0.9674 -0.0560 -0.2470
vn -0.9882 0.0936 -0.1213
vn -0.7248 0.0238 -0.6886
vn -0.7629 -0.1445 -0.6301
vn -0.8109 -0.5657 -0.1498
vn -0.9145 -0.3871 -0.1173
vn -0.9399 -0.3065 -0.1509
vn 0.9997 -0.0157 -0.0169
vn 0.9937 0.1007 0.0482
vn 0.9988 -0.0250 0.0411
vn 0.3318 0.4818 0.8111
vn 0.2977 0.2510 0.9211
vn 0.4403 0.2042 0.8743
vn 0.5134 0.4183 0.7493
vn -0.9997 -0.0155 -0.0161
vn -0.9993 0.0272 -0.0275
vn -0.9622 -0.1934 -0.1919
vn -0.0000 0.3055 -0.9522
vn -0.0000 0.7233 -0.6906
vn 0.3356 0.5594 -0.7579
vn 0.5004 0.2883 -0.8164
vn -0.7230 -0.4949 -0.4820
vn 0.8109 -0.5657 -0.1498
vn 0.6376 -0.6773 -0.3672
vn 0.7334 -0.5835 -0.3487
vn 0.9993 0.0272 -0.0275
vn 0.9622 -0.1934 -0.1919
vn 0.9882 0.0936 -0.1213
vn 0.9941 0.1052 0.0278
vn 0.9744 0.2244 -0.0134
vn 0.2659 0.1034 0.9584
vn 0.3742 0.0860 0.9234
vn 0.9674 -0.0560 -0.2470
vn -0.3248 0.0584 0.9440
vn -0.4519 0.0154 0.8919
vn -0.4358 0.0037 0.9001
vn -0.3269 0.0627 0.9430
vn -0.7147 0.4817 0.5071
vn -0.5762 0.5701 0.5856
vn -0.6099 0.6164 0.4980
vn -0.7366 0.4991 0.4564
vn 0.0040 0.5717 0.8204
vn -0.0006 0.3807 0.9247
vn 0.1569 0.3265 0.9321
vn 0.1535 0.5423 0.8260
vn 0.1507 0.1417 0.9784
vn 0.9711 0.2317 0.0575
vn 0.9256 0.3589 0.1202
vn -0.9704 0.2387 0.0374
vn -0.9599 0.2157 0.1791
vn -0.9037 0.3618 0.2290
vn -0.9256 0.3589 0.1202
vn -0.0019 0.1904 0.9817
vn -0.0044 0.0505 0.9987
vn 0.1231 0.0033 0.9924
vn -0.9966 -0.0382 0.0730
vn 0.6761 -0.4137 -0.6097
vn 0.7629 -0.1445 -0.6301
vn 0.7582 0.5530 0.3454
vn 0.5606 0.7644 0.3184
vn 0.6021 0.6691 0.4356
vn 0.7365 0.4995 0.4561
vn 0.5166 -0.7057 -0.4849
vn 0.2723 -0.7549 -0.5967
vn 0.3459 -0.7180 -0.6040
vn 0.2234 0.0218 0.9745
vn 0.3312 0.0254 0.9432
vn -0.1683 0.1854 0.9681
vn -0.1739 0.0723 0.9821
vn 0.5112 0.1045 0.8531
vn 0.5986 0.2113 0.7727
vn -0.6761 -0.4137 -0.6097
vn -0.4179 -0.1669 -0.8930
vn -0.3454 -0.5108 -0.7872
vn 0.8580 0.4308 0.2796
vn 0.9044 0.3592 0.2303
vn 0.7822 0.5674 0.2571
vn -0.5070 0.2379 0.8285
vn -0.4801 0.0919 0.8724
vn -0.3273 0.1476 0.9333
vn -0.3341 0.3119 0.8894
vn -0.0000 -0.7262 -0.6875
vn 0.1917 -0.6826 -0.7052
vn 0.6314 0.7597 -0.1554
vn 0.7192 0.6700 0.1839
vn -0.0000 -0.6760 -0.7369
vn 0.3221 -0.6540 -0.6845
vn -0.0000 -0.5647 -0.8253
vn 0.3454 -0.5108 -0.7872
vn -0.1885 0.0683 0.9797
vn -0.1602 0.3673 0.9162
vn -0.3322 0.5162 0.7894
vn -0.1447 0.5631 0.8136
vn -0.0000 -0.7685 -0.6398
vn -0.0000 -0.1651 -0.9863
vn 0.4179 -0.1669 -0.8930
vn -0.3356 0.5594 -0.7579
vn -0.5004 0.2883 -0.8164
vn 0.7248 0.0238 -0.6886
vn 0.8106 0.2469 -0.5311
vn 0.8572 0.3013 0.4177
vn 0.7539 0.3716 0.5418
vn 0.7232 0.2428 0.6465
vn 0.8155 0.1787 0.5505
vn -0.1917 -0.6826 -0.7052
vn -0.2723 -0.7549 -0.5967
vn 0.7706 0.5919 -0.2364
vn -0.9744 0.2243 -0.0137
vn -0.6314 0.7597 -0.1554
vn -0.7706 0.5919 -0.2364
vn 0.9127 0.0560 0.4048
vn 0.7396 0.0610 0.6703
vn 0.6902 -0.0437 0.7223
vn 0.7230 -0.4949 -0.4820
vn -0.8580 0.4308 0.2796
vn -0.7891 0.4335 0.4352
vn -0.7571 0.5563 0.3426
vn -0.7185 0.6705 0.1849
vn 0.5341 0.0376 0.8446
vn 0.9633 0.0297 0.2668
vn 0.9631 0.0324 0.2672
vn 0.9639 0.0337 0.2642
vn 0.9640 0.0309 0.2641
vn 0.4472 0.0327 0.8938
vn -0.3223 0.9450 0.0561
vn -0.3114 0.9470 -0.0787
vn 0.3114 0.9470 -0.0787
vn -0.7795 0.5717 0.2560
vn 0.6278 0.1494 0.7639
vn 0.4504 0.7336 -0.5088
vn -0.8582 0.2891 0.4242
vn 0.9398 -0.3065 -0.1509
vn -0.9869 0.0677 0.1468
vn -0.9939 0.1057 0.0306
vn -0.0000 0.8841 -0.4673
vn 0.2395 0.0375 0.9702
vn 0.3180 0.0085 0.9480
vn 0.9591 0.2087 0.1911
vn 0.9426 0.1142 0.3139
vn -0.5280 0.4422 0.7250
vn -0.3442 0.6704 0.6573
vn -0.7591 0.3610 0.5417
vn -0.7328 0.1947 0.6519
vn -0.6350 0.1949 0.7475
vn -0.6743 0.3890 0.6277
vn -0.9940 0.1053 0.0283
vn -0.8106 0.2469 -0.5311
vn 0.7891 0.4336 0.4350
vn -0.3736 0.8084 0.4549
vn -0.1700 0.8530 0.4934
vn -0.1979 0.9297 0.3105
vn -0.3609 0.8900 0.2786
vn -0.9639 0.0337 0.2642
vn -0.9639 0.0352 0.2641
vn -0.9630 0.0338 0.2673
vn -0.9633 0.0329 0.2665
vn -0.9408 0.1163 0.3185
vn 0.9889 0.0741 0.1287
vn 0.9792 0.0518 0.1963
vn 0.7144 0.4817 0.5075
vn 0.6652 0.3832 0.6408
vn -0.8808 0.0571 0.4700
vn -0.9267 0.0926 0.3642
vn -0.9646 0.0317 0.2619
vn -0.9635 0.0299 0.2659
vn 0.1987 0.9299 0.3095
vn 0.3619 0.8902 0.2766
vn 0.3404 0.9376 0.0709
vn 0.2380 0.9648 0.1122
vn -0.4504 0.7336 -0.5088
vn -0.8023 0.1344 0.5816
vn 0.6099 0.6166 0.4978
vn -0.6020 0.6690 0.4359
vn -0.5651 0.7600 0.3211
vn -0.3221 -0.6540 -0.6845
vn -0.0000 0.9957 -0.0924
vn 0.9375 0.0924 0.3355
vn 0.4973 0.8568 0.1363
vn 0.9730 0.0398 0.2272
vn 0.9664 0.0306 0.2553
vn 0.3102 0.0092 0.9506
vn 0.3930 -0.0179 0.9194
vn 0.3217 0.9452 0.0552
vn -0.0077 0.0282 0.9996
vn 0.1020 -0.0207 0.9946
vn 0.9145 -0.3871 -0.1173
vn -0.3613 0.7408 0.5663
vn -0.4870 0.8626 0.1372
vn -0.0003 0.9961 0.0878
vn -0.0006 0.9789 0.2041
vn -0.2394 0.9642 0.1136
vn -0.1553 0.7824 0.6031
vn -0.0000 0.7899 0.6132
vn 0.0001 0.8582 0.5133
vn -0.1470 0.7130 0.6856
vn 0.3736 0.8084 0.4548
vn -0.3398 0.9379 0.0692
vn -0.0001 0.9382 0.3462
vn 0.1700 0.8530 0.4934
vn 0.0005 0.7190 0.6950
vn -0.9644 0.0282 0.2630
vn 0.1553 0.7824 0.6031
vn -0.9653 0.0287 0.2594
vn -0.5898 0.0606 0.8053
vn 0.1479 0.7110 0.6875
vn 0.1199 -0.0057 0.9928
vn 0.3613 0.7409 0.5662
vn 0.3440 0.6677 0.6602
vn 0.5753 0.5690 0.5876
vn -0.2200 0.0276 0.9751
vn -0.4928 -0.0379 0.8693
vn -0.7205 0.0086 0.6934
vn -0.5568 -0.0004 0.8306
vn 0.9630 0.0339 0.2672
vn -0.9649 0.0294 0.2610
vn -0.6121 -0.0282 0.7903
vn -0.6530 0.0610 0.7549
vn -0.6542 -0.0884 0.7512
vn 0.9639 0.0351 0.2641
vt 0.000000 0.000000
s 1
f 1/1/1 2/1/2 3/1/3
f 96/1/4 103/1/5 95/1/6 88/1/7
f 1/1/1 3/1/3 6/1/8
f 1/1/1 6/1/8 7/1/9
f 1/1/1 7/1/9 4/1/10
f 1/1/1 8/1/11 9/1/12
f 1/1/1 9/1/12 10/1/13
f 1/1/1 11/1/14 2/1/2
f 1/1/1 10/1/13 11/1/14
f 1/1/1 12/1/15 13/1/16
f 1/1/1 13/1/16 14/1/17
f 1/1/1 14/1/17 8/1/11
f 12/1/15 16/1/18 17/1/19
f 12/1/15 17/1/19 18/1/20
f 12/1/15 19/1/20 13/1/16
f 12/1/15 20/1/20 19/1/20
f 12/1/15 18/1/20 21/1/20
f 12/1/15 21/1/20 20/1/20
f 15/1/21 22/1/22 5/1/23
f 22/1/22 23/1/24 5/1/23
f 5/1/23 23/1/24 24/1/25
f 5/1/23 24/1/25 25/1/26
f 5/1/23 25/1/26 26/1/27
f 5/1/23 26/1/27 12/1/28
f 26/1/27 27/1/29 12/1/28
f 12/1/28 28/1/30 29/1/31
f 12/1/28 27/1/29 30/1/29
f 12/1/28 30/1/29 31/1/29
f 12/1/28 32/1/29 28/1/30
f 12/1/28 31/1/29 32/1/29
f 104/1/32 122/1/33 111/1/34 105/1/35
f 110/1/36 116/1/37 115/1/38 95/1/6
f 34/1/39 38/1/40 35/1/41
f 149/1/42 150/1/43 142/1/44 141/1/45
f 120/1/46 123/1/47 117/1/48 115/1/38
f 74/1/49 125/1/50 83/1/51 75/1/52
f 117/1/48 94/1/53 95/1/6 115/1/38
f 37/1/54 44/1/55 43/1/56
f 40/1/57 41/1/58 45/1/59
f 39/1/60 40/1/57 45/1/59
f 39/1/60 46/1/61 38/1/40
f 39/1/60 45/1/59 46/1/61
f 161/1/62 143/1/63 142/1/44 150/1/43
f 41/1/58 50/1/64 45/1/59
f 225/1/65 223/1/66 215/1/67 217/1/68
f 221/1/69 228/1/70 205/1/71 213/1/72
f 186/1/73 188/1/74 166/1/75 179/1/76
f 166/1/75 165/1/77 161/1/62 150/1/43
f 48/1/78 46/1/61 56/1/79
f 226/1/80 231/1/81 227/1/82 218/1/83
f 195/1/84 202/1/85 196/1/86 165/1/77
f 116/1/37 121/1/87 120/1/46 115/1/38
f 50/1/64 57/1/88 61/1/89
f 147/1/90 156/1/91 148/1/92 140/1/93
f 53/1/94 63/1/95 52/1/96
f 161/1/62 160/1/97 153/1/98 143/1/63
f 222/1/99 230/1/100 202/1/85 195/1/84
f 142/1/44 143/1/63 109/1/101 134/1/102
f 97/1/103 105/1/35 82/1/104 90/1/105
f 149/1/42 179/1/76 166/1/75 150/1/43
f 108/1/106 64/1/107 56/1/79 107/1/108
f 233/1/109 239/1/110 234/1/111 229/1/112
f 63/1/95 69/1/113 52/1/96
f 234/1/111 225/1/65 230/1/100 222/1/99
f 63/1/95 72/1/114 69/1/113
f 46/1/61 98/1/115 99/1/116 56/1/79
f 69/1/113 68/1/117 59/1/118 52/1/96
f 59/1/118 68/1/117 66/1/119 58/1/120
f 214/1/121 230/1/100 225/1/65 217/1/68
f 207/1/122 222/1/99 195/1/84 188/1/74
f 208/1/123 229/1/112 207/1/122 200/1/124
f 72/1/114 81/1/125 69/1/113
f 66/1/119 73/1/126 67/1/127 58/1/120
f 74/1/49 75/1/52 67/1/127 73/1/126
f 124/1/128 125/1/50 74/1/49 118/1/129
f 75/1/52 83/1/51 60/1/130
f 60/1/130 84/1/131 45/1/59
f 60/1/130 83/1/51 84/1/131
f 34/1/39 40/1/57 39/1/60 38/1/40
f 113/1/132 132/1/133 126/1/134 86/1/135
f 81/1/125 87/1/136 69/1/113
f 69/1/113 89/1/137 88/1/7
f 69/1/113 87/1/136 89/1/137
f 84/1/131 83/1/51 91/1/138
f 84/1/131 91/1/138 45/1/59
f 137/1/139 162/1/140 138/1/141 122/1/33
f 85/1/142 92/1/143 93/1/144
f 49/1/145 59/1/118 58/1/120 57/1/88
f 52/1/96 59/1/118 49/1/145 43/1/56
f 88/1/7 89/1/137 96/1/4
f 53/1/94 52/1/96 43/1/56 44/1/55
f 219/1/146 220/1/147 213/1/72 212/1/148
f 137/1/139 218/1/83 167/1/149 162/1/140
f 92/1/143 100/1/150 93/1/144
f 70/1/151 78/1/152 71/1/153 62/1/154
f 93/1/144 100/1/150 102/1/155
f 49/1/145 57/1/88 50/1/64 41/1/58
f 97/1/103 104/1/32 105/1/35
f 167/1/149 173/1/156 154/1/157 162/1/140
f 98/1/115 91/1/138 106/1/158
f 56/1/79 99/1/116 107/1/108
f 218/1/83 227/1/82 219/1/146 211/1/159
f 134/1/102 109/1/101 101/1/160 126/1/134
f 103/1/5 110/1/36 95/1/6
f 67/1/127 75/1/52 60/1/130 61/1/89
f 50/1/64 61/1/89 60/1/130 45/1/59
f 91/1/138 112/1/161 106/1/158
f 91/1/138 83/1/51 112/1/161
f 227/1/82 241/1/162 220/1/147 219/1/146
f 34/1/39 36/1/163 41/1/58 40/1/57
f 121/1/87 128/1/164 127/1/165 120/1/46
f 4/1/10 15/1/21 5/1/23 1/1/1
f 112/1/161 83/1/51 119/1/166
f 153/1/98 160/1/97 158/1/167 151/1/168
f 91/1/138 98/1/115 46/1/61 45/1/59
f 117/1/48 122/1/33 104/1/32
f 117/1/48 123/1/47 122/1/33
f 111/1/34 118/1/129 82/1/104 105/1/35
f 118/1/129 111/1/34 124/1/128
f 125/1/50 119/1/166 83/1/51
f 125/1/50 124/1/128 119/1/166
f 56/1/79 64/1/107 55/1/169 48/1/78
f 86/1/135 126/1/134 101/1/160
f 64/1/107 113/1/132 65/1/170 55/1/169
f 228/1/70 232/1/171 208/1/123 199/1/172
f 237/1/173 242/1/174 238/1/175 236/1/176
f 123/1/47 130/1/177 122/1/33
f 111/1/34 131/1/178 124/1/128
f 111/1/34 122/1/33 131/1/178
f 113/1/132 114/1/179 132/1/133
f 190/1/180 184/1/181 181/1/182 189/1/183
f 207/1/122 188/1/74 186/1/73 200/1/124
f 251/1/184 255/1/185 252/1/186 244/1/187
f 130/1/177 137/1/139 122/1/33
f 235/1/188 241/1/162 227/1/82 231/1/81
f 131/1/178 138/1/141 124/1/128
f 131/1/178 122/1/33 138/1/141
f 38/1/40 47/1/189 42/1/190 35/1/41
f 236/1/176 238/1/175 233/1/109 232/1/171
f 132/1/133 139/1/191 133/1/192
f 253/1/193 245/1/194 244/1/187 252/1/186
f 82/1/104 118/1/129 74/1/49 73/1/126
f 246/1/195 251/1/184 244/1/187 240/1/196
f 101/1/160 100/1/150 92/1/143 86/1/135
f 171/1/197 172/1/198 164/1/199 170/1/200
f 124/1/128 144/1/201 119/1/166
f 124/1/128 138/1/141 144/1/201
f 241/1/162 247/1/202 242/1/174 237/1/173
f 108/1/106 107/1/108 147/1/90
f 140/1/93 148/1/92 145/1/203
f 212/1/148 213/1/72 206/1/204 197/1/205
f 43/1/56 49/1/145 41/1/58 36/1/163
f 94/1/53 97/1/103 90/1/105 76/1/206
f 165/1/77 196/1/86 160/1/97 161/1/62
f 144/1/201 138/1/141 154/1/157
f 119/1/166 168/1/207 106/1/158 112/1/161
f 88/1/7 95/1/6 94/1/53 76/1/206
f 48/1/78 47/1/189 38/1/40 46/1/61
f 65/1/170 113/1/132 86/1/135 77/1/208
f 107/1/108 99/1/116 157/1/209
f 47/1/189 54/1/210 51/1/211 42/1/190
f 151/1/168 159/1/212 152/1/213
f 151/1/168 158/1/167 159/1/212
f 54/1/210 70/1/151 62/1/154 51/1/211
f 138/1/141 162/1/140 154/1/157
f 99/1/116 163/1/214 157/1/209
f 127/1/165 130/1/177 123/1/47 120/1/46
f 157/1/209 163/1/214 164/1/199
f 202/1/85 209/1/215 201/1/216 196/1/86
f 66/1/119 90/1/105 82/1/104 73/1/126
f 33/1/217 36/1/163 34/1/39 35/1/41
f 168/1/207 119/1/166 144/1/201 154/1/157
f 205/1/71 228/1/70 199/1/172 198/1/218
f 211/1/159 212/1/148 197/1/205 204/1/219
f 169/1/220 163/1/214 106/1/158 168/1/207
f 163/1/214 170/1/200 164/1/199
f 163/1/214 169/1/220 170/1/200
f 114/1/179 113/1/132 64/1/107 108/1/106
f 133/1/192 134/1/102 126/1/134 132/1/133
f 169/1/220 174/1/221 170/1/200
f 169/1/220 173/1/156 175/1/222
f 169/1/220 175/1/222 174/1/221
f 184/1/181 193/1/223 191/1/224 183/1/225
f 229/1/112 234/1/111 222/1/99 207/1/122
f 197/1/205 206/1/204 190/1/180 189/1/183
f 77/1/208 78/1/152 70/1/151 65/1/170
f 199/1/172 208/1/123 200/1/124 194/1/226
f 109/1/101 102/1/155 100/1/150 101/1/160
f 178/1/227 148/1/92 156/1/91 172/1/198
f 175/1/222 173/1/156 182/1/228
f 176/1/229 183/1/225 177/1/230 171/1/197
f 190/1/180 198/1/218 193/1/223 184/1/181
f 128/1/164 231/1/81 226/1/80 127/1/165
f 194/1/226 200/1/124 186/1/73 187/1/231
f 135/1/232 235/1/188 231/1/81 128/1/164
f 171/1/197 177/1/230 178/1/227 172/1/198
f 192/1/233 177/1/230 183/1/225 191/1/224
f 191/1/224 193/1/223 194/1/226 187/1/231
f 193/1/223 198/1/218 199/1/172 194/1/226
f 220/1/147 237/1/173 221/1/69 213/1/72
f 129/1/234 135/1/232 128/1/164 121/1/87
f 238/1/175 243/1/235 239/1/110 233/1/109
f 180/1/236 192/1/233 191/1/224 187/1/231
f 65/1/170 70/1/151 54/1/210 55/1/169
f 141/1/45 142/1/44 134/1/102 133/1/192
f 106/1/158 163/1/214 99/1/116 98/1/115
f 174/1/221 176/1/229 171/1/197 170/1/200
f 182/1/228 204/1/219 197/1/205 189/1/183
f 196/1/86 201/1/216 160/1/97
f 37/1/54 43/1/56 36/1/163 33/1/217
f 160/1/97 201/1/216 203/1/237
f 182/1/228 173/1/156 204/1/219
f 204/1/219 173/1/156 167/1/149
f 145/1/203 185/1/238 155/1/239 146/1/240
f 178/1/227 185/1/238 145/1/203 148/1/92
f 180/1/236 179/1/76 149/1/42 155/1/239
f 67/1/127 61/1/89 57/1/88 58/1/120
f 177/1/230 192/1/233 185/1/238 178/1/227
f 201/1/216 210/1/241 203/1/237
f 201/1/216 209/1/215 210/1/241
f 164/1/199 172/1/198 156/1/91 157/1/209
f 204/1/219 167/1/149 211/1/159
f 127/1/165 226/1/80 137/1/139 130/1/177
f 206/1/204 213/1/72 205/1/71
f 209/1/215 214/1/121 210/1/241
f 145/1/203 146/1/240 139/1/191 140/1/93
f 210/1/241 215/1/67 216/1/242
f 210/1/241 217/1/68 215/1/67
f 210/1/241 214/1/121 217/1/68
f 167/1/149 218/1/83 211/1/159
f 253/1/193 254/1/243 247/1/202 245/1/194
f 108/1/106 147/1/90 140/1/93 114/1/179
f 211/1/159 219/1/146 212/1/148
f 114/1/179 140/1/93 139/1/191 132/1/133
f 202/1/85 230/1/100 214/1/121 209/1/215
f 107/1/108 157/1/209 156/1/91 147/1/90
f 216/1/242 215/1/67 223/1/66
f 216/1/242 223/1/66 224/1/244
f 240/1/196 245/1/194 235/1/188 135/1/232
f 77/1/208 85/1/142 79/1/245 78/1/152
f 137/1/139 226/1/80 218/1/83
f 94/1/53 117/1/48 104/1/32 97/1/103
f 198/1/218 190/1/180 206/1/204 205/1/71
f 241/1/162 235/1/188 245/1/194 247/1/202
f 174/1/221 175/1/222 181/1/182 176/1/229
f 102/1/155 153/1/98 151/1/168 152/1/213
f 182/1/228 189/1/183 181/1/182 175/1/222
f 139/1/191 146/1/240 141/1/45 133/1/192
f 69/1/113 88/1/7 76/1/206 68/1/117
f 143/1/63 153/1/98 102/1/155 109/1/101
f 176/1/229 181/1/182 184/1/181 183/1/225
f 48/1/78 55/1/169 54/1/210 47/1/189
f 187/1/231 186/1/73 179/1/76 180/1/236
f 221/1/69 237/1/173 236/1/176
f 155/1/239 185/1/238 192/1/233 180/1/236
f 136/1/246 240/1/196 135/1/232 129/1/234
f 243/1/235 224/1/244 223/1/66 239/1/110
f 247/1/202 254/1/243 249/1/247 248/1/248
f 237/1/173 220/1/147 241/1/162
f 86/1/135 92/1/143 85/1/142 77/1/208
f 234/1/111 239/1/110 223/1/66 225/1/65
f 242/1/174 248/1/248 243/1/235 238/1/175
f 240/1/196 244/1/187 245/1/194
f 76/1/206 90/1/105 66/1/119 68/1/117
f 240/1/196 136/1/246 246/1/195
f 155/1/239 149/1/42 141/1/45 146/1/240
f 188/1/74 195/1/84 165/1/77 166/1/75
f 242/1/174 247/1/202 248/1/248
f 154/1/157 173/1/156 169/1/220 168/1/207
f 224/1/244 249/1/247 250/1/249
f 79/1/245 80/1/250 71/1/153 78/1/152
f 221/1/69 236/1/176 232/1/171 228/1/70
f 248/1/248 249/1/247 224/1/244 243/1/235
f 249/1/247 254/1/243 250/1/249
f 250/1/249 254/1/243 253/1/193
f 233/1/109 229/1/112 208/1/123 232/1/171
