# Blender 4.3.2
# www.blender.org
o hair.128
v 7.451662 0.913184 0.023932
v 7.450419 0.915496 0.025058
v 7.447886 0.914794 0.030227
v 7.449491 0.911930 0.029054
v 7.452154 0.915946 0.019846
v 7.452849 0.910704 0.022553
v 7.453914 0.911919 0.017951
v 7.455595 0.907299 0.014794
v 7.454954 0.911034 0.014142
v 7.453929 0.914976 0.013509
v 7.448520 0.921368 0.021449
v 7.450094 0.920873 0.018070
v 7.456258 0.908091 0.007834
v 7.455277 0.912828 0.007654
v 7.453627 0.917709 0.007110
v 7.452304 0.919328 0.012219
v 7.447396 0.920238 0.026378
v 7.445357 0.923265 0.026175
v 7.444925 0.926134 0.021841
v 7.448105 0.924767 0.016524
v 7.450165 0.923613 0.011315
v 7.455547 0.910679 0.001900
v 7.445565 0.918686 0.030740
v 7.443007 0.925928 0.026144
v 7.441890 0.925009 0.028823
v 7.443388 0.922693 0.030043
v 7.445806 0.928410 0.014888
v 7.449206 0.926294 0.005372
v 7.447918 0.927393 0.010076
v 7.451529 0.922326 0.006354
v 7.442667 0.917385 0.033203
v 7.440522 0.921778 0.032028
v 7.444541 0.913711 0.033181
v 7.440026 0.927388 0.027021
v 7.445657 0.930505 0.008675
v 7.452016 0.920946 0.001091
v 7.454035 0.915979 0.001583
v 7.439182 0.916090 0.034024
v 7.446245 0.910503 0.032283
v 7.447924 0.907468 0.030827
v 7.450922 0.909200 0.027523
v 7.453251 0.914179 -0.004909
v 7.456383 0.905495 0.002041
v 7.455143 0.903223 -0.004878
v 7.454525 0.908538 -0.004870
v 7.440847 0.912225 0.034405
v 7.437404 0.920773 0.032760
v 7.452347 0.906273 0.025424
v 7.454240 0.907320 0.020734
v 7.456804 0.901337 0.007138
v 7.456764 0.899495 0.002132
v 7.452544 0.906765 -0.011776
v 7.442517 0.908868 0.033995
v 7.435701 0.925906 0.031103
v 7.439292 0.925612 0.029896
v 7.454857 0.904635 0.018745
v 7.455963 0.903152 0.013523
v 7.451455 0.919526 -0.005004
v 7.451530 0.912609 -0.011547
v 7.450013 0.918225 -0.011223
v 7.444285 0.905717 0.032911
v 7.456228 0.898167 0.011731
v 7.455571 0.900543 0.015113
v 7.455264 0.902563 0.017195
v 7.449273 0.923956 -0.005167
v 7.449658 0.925138 0.000414
v 7.449110 0.911566 -0.017554
v 7.446088 0.902860 0.031289
v 7.454923 0.900074 0.017972
v 7.454088 0.901562 0.020859
v 7.455942 0.893372 0.001248
v 7.456361 0.893677 0.005646
v 7.447214 0.928544 -0.000260
v 7.446828 0.929538 0.004323
v 7.453449 0.903795 0.023185
v 7.454857 0.892707 -0.005053
v 7.455207 0.888127 0.000852
v 7.455216 0.898014 -0.004937
v 7.455233 0.897746 0.015807
v 7.455635 0.894158 0.010347
v 7.444500 0.931924 0.003369
v 7.451093 0.902135 0.026399
v 7.449549 0.904657 0.028854
v 7.452949 0.896431 -0.011911
v 7.452943 0.901442 -0.011888
v 7.453941 0.896531 0.018992
v 7.453180 0.898154 0.021558
v 7.455609 0.888687 0.009017
v 7.454516 0.894661 0.015137
v 7.452268 0.899880 0.023983
v 7.450171 0.900311 -0.018188
v 7.449911 0.905720 -0.018001
v 7.451138 0.896761 0.023894
v 7.452532 0.895640 0.020827
v 7.455775 0.888203 0.004750
v 7.455207 0.883633 0.003946
v 7.455137 0.883934 0.007724
v 7.447859 0.900386 0.029263
v 7.449557 0.898338 0.026807
v 7.446445 0.905170 -0.023386
v 7.453774 0.879007 0.005464
v 7.453873 0.879503 0.003012
v 7.453478 0.878039 -0.000298
v 7.454539 0.883092 0.000465
v 7.453454 0.882176 -0.004831
v 7.454220 0.887404 -0.005072
v 7.450998 0.872706 0.001238
v 7.450623 0.872214 -0.002017
v 7.452426 0.877326 -0.004548
v 7.449948 0.871787 -0.004448
v 7.450559 0.875976 -0.009460
v 7.451621 0.881181 -0.010737
v 7.452367 0.886457 -0.011554
v 7.452784 0.891493 -0.011872
v 7.447440 0.867104 -0.003491
v 7.449049 0.871219 -0.007690
v 7.448844 0.880377 -0.016396
v 7.447943 0.875040 -0.014696
v 7.446744 0.870139 -0.012364
v 7.449528 0.885677 -0.017515
v 7.449918 0.890530 -0.018032
v 7.450103 0.895280 -0.018178
v 7.445381 0.866395 -0.010411
v 7.444295 0.864080 -0.006991
v 7.444610 0.874497 -0.019543
v 7.445271 0.879880 -0.021364
v 7.445846 0.885220 -0.022642
v 7.443039 0.865809 -0.014781
v 7.443810 0.869662 -0.017162
v 7.446257 0.889989 -0.023297
v 7.446512 0.894660 -0.023546
v 7.446623 0.899730 -0.023606
v 7.441983 0.863338 -0.012086
v 7.441392 0.862354 -0.009790
v 7.441054 0.879804 -0.025184
v 7.441472 0.885243 -0.026620
v 7.441803 0.890048 -0.027420
v 7.440123 0.869490 -0.020742
v 7.442116 0.899603 -0.027923
v 7.442025 0.894675 -0.027786
v 7.439210 0.862952 -0.015430
v 7.438546 0.861101 -0.012583
v 7.439704 0.865530 -0.018130
v 7.436475 0.885443 -0.029384
v 7.436679 0.890320 -0.030277
v 7.436819 0.894932 -0.030735
v 7.440616 0.874329 -0.023229
v 7.435088 0.860199 -0.015149
v 7.435381 0.862429 -0.018037
v 7.435567 0.865398 -0.020786
v 7.431032 0.890417 -0.031760
v 7.436865 0.899695 -0.030944
v 7.431114 0.899775 -0.032484
v 7.431097 0.895036 -0.032244
v 7.435997 0.874353 -0.025876
v 7.436233 0.879909 -0.027872
v 7.430553 0.862036 -0.020362
v 7.430428 0.859404 -0.017379
v 7.435739 0.869488 -0.023383
v 7.436766 0.904774 -0.030790
v 7.441984 0.904879 -0.027727
v 7.425159 0.895050 -0.032637
v 7.430838 0.879954 -0.029471
v 7.430940 0.885517 -0.030885
v 7.425159 0.858941 -0.018417
v 7.430661 0.869475 -0.025455
v 7.441536 0.910524 -0.027089
v 7.445827 0.910917 -0.022793
v 7.425159 0.890422 -0.032158
v 7.425159 0.885521 -0.031319
v 7.419765 0.862036 -0.020362
v 7.425159 0.861767 -0.021570
v 7.419890 0.859404 -0.017379
v 7.430749 0.874374 -0.027655
v 7.430611 0.865286 -0.023070
v 7.444808 0.916456 -0.021863
v 7.447843 0.917199 -0.016885
v 7.425159 0.865147 -0.024254
v 7.415231 0.860199 -0.015149
v 7.425159 0.874363 -0.028383
v 7.425159 0.879960 -0.029999
v 7.425159 0.869396 -0.026493
v 7.446183 0.921965 -0.016029
v 7.448102 0.922860 -0.010827
v 7.419708 0.865286 -0.023070
v 7.419658 0.869475 -0.025455
v 7.419481 0.879954 -0.029471
v 7.419287 0.890417 -0.031760
v 7.419379 0.885517 -0.030885
v 7.445993 0.926601 -0.010325
v 7.446947 0.927529 -0.005272
v 7.414937 0.862429 -0.018037
v 7.414752 0.865398 -0.020786
v 7.413844 0.885443 -0.029384
v 7.444637 0.930269 -0.005168
v 7.444858 0.931111 -0.000728
v 7.411109 0.862952 -0.015430
v 7.411773 0.861101 -0.012583
v 7.410614 0.865530 -0.018130
v 7.414580 0.869488 -0.023383
v 7.410196 0.869490 -0.020742
v 7.442521 0.933088 -0.001043
v 7.442190 0.933715 0.002536
v 7.441214 0.934308 0.005964
v 7.443422 0.932711 0.007276
v 7.408926 0.862354 -0.009790
v 7.408367 0.863286 -0.011965
v 7.407279 0.865809 -0.014781
v 7.414321 0.874353 -0.025876
v 7.419569 0.874374 -0.027655
v 7.439868 0.935268 0.001835
v 7.441493 0.933470 0.011127
v 7.443577 0.931436 0.012968
v 7.406022 0.864081 -0.006990
v 7.404938 0.866395 -0.010411
v 7.406509 0.869662 -0.017162
v 7.403614 0.870159 -0.012347
v 7.440931 0.932269 0.016723
v 7.443071 0.929474 0.019024
v 7.402892 0.867154 -0.003522
v 7.405711 0.874483 -0.019541
v 7.409703 0.874329 -0.023230
v 7.414086 0.879909 -0.027872
v 7.439904 0.930706 0.021714
v 7.440899 0.928621 0.024146
v 7.409265 0.879804 -0.025184
v 7.413639 0.890320 -0.030277
v 7.408515 0.890048 -0.027419
v 7.408847 0.885243 -0.026620
v 7.436737 0.929874 0.025855
v 7.436360 0.928016 0.028393
v 7.405057 0.879825 -0.021355
v 7.404484 0.885138 -0.022628
v 7.413500 0.894932 -0.030735
v 7.419222 0.895036 -0.032244
v 7.431873 0.928350 0.030052
v 7.428862 0.922946 0.034440
v 7.432020 0.920770 0.033932
v 7.431272 0.925870 0.032277
v 7.401507 0.880156 -0.016359
v 7.402535 0.875041 -0.014607
v 7.419205 0.899775 -0.032484
v 7.425159 0.899812 -0.032882
v 7.428489 0.916091 0.036140
v 7.428218 0.926403 0.032738
v 7.399923 0.875942 -0.009391
v 7.401537 0.871346 -0.007611
v 7.425159 0.904829 -0.032752
v 7.431061 0.904790 -0.032350
v 7.422018 0.916555 0.036908
v 7.425168 0.912225 0.036827
v 7.425493 0.919765 0.036145
v 7.400598 0.871871 -0.004412
v 7.399894 0.872264 -0.002013
v 7.399341 0.872756 0.001183
v 7.398499 0.877286 -0.004451
v 7.430915 0.910219 -0.031709
v 7.436473 0.910315 -0.030156
v 7.421863 0.908868 0.036523
v 7.422850 0.923048 0.035098
v 7.425977 0.925157 0.034252
v 7.397361 0.878008 -0.000241
v 7.396617 0.878811 0.003025
v 7.396532 0.878983 0.005496
v 7.397354 0.881932 -0.004742
v 7.435985 0.915739 -0.029001
v 7.440782 0.916006 -0.026006
v 7.427362 0.928132 0.031600
v 7.423728 0.927323 0.032781
v 7.395397 0.883577 0.003995
v 7.395223 0.883928 0.007740
v 7.398746 0.880850 -0.010682
v 7.439731 0.920776 -0.024474
v 7.443420 0.921272 -0.020632
v 7.431463 0.930328 0.027802
v 7.425027 0.930237 0.029514
v 7.394753 0.888679 0.009007
v 7.398025 0.885962 -0.011471
v 7.400839 0.885347 -0.017459
v 7.441821 0.925276 -0.019217
v 7.444308 0.925868 -0.015033
v 7.430839 0.931985 0.025629
v 7.435939 0.931680 0.023678
v 7.400432 0.890308 -0.017993
v 7.404069 0.889934 -0.023287
v 7.442316 0.928858 -0.013905
v 7.443804 0.929488 -0.009658
v 7.434551 0.933359 0.021581
v 7.438046 0.932940 0.019486
v 7.403809 0.894645 -0.023543
v 7.408293 0.894675 -0.027785
v 7.441539 0.931782 -0.008849
v 7.442307 0.932420 -0.004921
v 7.436320 0.934534 0.017252
v 7.439023 0.934108 0.014564
v 7.408202 0.899603 -0.027923
v 7.413454 0.899695 -0.030944
v 7.439925 0.934302 -0.004603
v 7.440145 0.934804 -0.001268
v 7.437256 0.935353 0.012445
v 7.439501 0.934874 0.009378
v 7.413553 0.904774 -0.030790
v 7.419258 0.904790 -0.032350
v 7.437463 0.936215 -0.001418
v 7.437252 0.936544 0.001175
v 7.436558 0.936856 0.003635
v 7.439020 0.935703 0.004797
v 7.437526 0.936121 0.007704
v 7.419404 0.910219 -0.031709
v 7.425159 0.910200 -0.032104
v 7.434140 0.937534 0.000472
v 7.435326 0.937158 0.005986
v 7.432727 0.937957 0.004139
v 7.433625 0.937750 0.002364
v 7.433627 0.937411 0.007958
v 7.435512 0.936476 0.010241
v 7.425159 0.915474 -0.030928
v 7.430676 0.915549 -0.030532
v 7.430705 0.938366 0.001090
v 7.433115 0.936716 0.012094
v 7.431545 0.937573 0.009274
v 7.429955 0.938247 0.006664
v 7.431488 0.938131 0.005632
v 7.434690 0.935684 0.014841
v 7.430344 0.920249 -0.028791
v 7.435301 0.920445 -0.027285
v 7.429337 0.937687 0.010050
v 7.430511 0.936880 0.013299
v 7.431795 0.935892 0.016542
v 7.429367 0.938611 0.003353
v 7.433158 0.934766 0.019260
v 7.434461 0.924399 -0.025222
v 7.438483 0.924768 -0.022677
v 7.427852 0.937011 0.013902
v 7.428561 0.936006 0.017515
v 7.429325 0.934828 0.020645
v 7.430237 0.938491 0.002386
v 7.430096 0.933448 0.023317
v 7.437083 0.927869 -0.020717
v 7.440095 0.928334 -0.017679
v 7.425159 0.936039 0.017818
v 7.425159 0.934816 0.021178
v 7.425183 0.933408 0.024110
v 7.427890 0.938757 0.000562
v 7.425252 0.931958 0.026666
v 7.438225 0.930797 -0.015874
v 7.440205 0.931247 -0.012582
v 7.420994 0.934827 0.020644
v 7.420309 0.933431 0.023384
v 7.419827 0.931920 0.025896
v 7.421360 0.928704 0.030960
v 7.419124 0.930367 0.028101
v 7.417842 0.928715 0.029824
v 7.437963 0.933420 -0.010997
v 7.439201 0.933822 -0.007927
v 7.415893 0.933330 0.021687
v 7.414889 0.931569 0.024097
v 7.414142 0.929623 0.026500
v 7.419674 0.927229 0.031929
v 7.420661 0.925920 0.033529
v 7.436593 0.935522 -0.006839
v 7.437247 0.935859 -0.004165
v 7.410758 0.930619 0.022019
v 7.409629 0.928008 0.024681
v 7.409443 0.925358 0.027584
v 7.413700 0.927529 0.028853
v 7.417571 0.924043 0.034025
v 7.417012 0.926671 0.031572
v 7.419447 0.920557 0.035903
v 7.434125 0.937068 -0.003585
v 7.434298 0.937307 -0.001518
v 7.404891 0.925428 0.021909
v 7.413788 0.924956 0.031235
v 7.414340 0.921719 0.034086
v 7.415921 0.917740 0.036193
v 7.418522 0.913397 0.036955
v 7.431156 0.938079 -0.001581
v 7.431162 0.938214 -0.000187
v 7.410731 0.918884 0.033501
v 7.410013 0.922365 0.030434
v 7.414992 0.910320 0.036339
v 7.412336 0.914774 0.035689
v 7.418383 0.905717 0.035755
v 7.428380 0.938610 -0.000855
v 7.428252 0.938692 -0.000087
v 7.406168 0.919182 0.029221
v 7.407097 0.915749 0.032360
v 7.408860 0.911772 0.034505
v 7.405396 0.922366 0.026107
v 7.414831 0.902860 0.034449
v 7.411509 0.907395 0.035106
v 7.428508 0.938533 -0.001621
v 7.425159 0.938869 -0.001656
v 7.427526 0.938827 0.001213
v 7.403781 0.912527 0.030731
v 7.401870 0.918687 0.024553
v 7.408165 0.904691 0.033293
v 7.411312 0.900386 0.032529
v 7.431159 0.937912 -0.002992
v 7.428381 0.938451 -0.002388
v 7.426983 0.938870 0.001648
v 7.428487 0.938695 0.004291
v 7.407926 0.898342 0.030070
v 7.433618 0.936841 -0.005575
v 7.430706 0.937787 -0.004296
v 7.428253 0.938375 -0.003155
v 7.426440 0.938917 0.002082
v 7.427372 0.938761 0.004741
v 7.428315 0.938331 0.007304
v 7.405041 0.902254 0.030924
v 7.402304 0.900229 0.027908
v 7.404773 0.896774 0.027153
v 7.432773 0.936652 -0.007334
v 7.427891 0.938305 -0.003804
v 7.425801 0.938931 0.002234
v 7.426729 0.938410 0.007631
v 7.426303 0.938807 0.005222
v 7.427228 0.937799 0.010411
v 7.402769 0.906042 0.030427
v 7.405644 0.908841 0.032751
v 7.401993 0.895656 0.023889
v 7.425159 0.938949 0.002386
v 7.425159 0.938826 0.005184
v 7.425159 0.937854 0.010490
v 7.425159 0.938449 0.007718
v 7.425159 0.937069 0.014054
v 7.398409 0.896256 0.020330
v 7.399726 0.894952 0.020383
v 7.399924 0.898523 0.024607
v 7.424517 0.938931 0.002234
v 7.423590 0.938410 0.007631
v 7.422467 0.937011 0.013902
v 7.423090 0.937799 0.010411
v 7.421758 0.936005 0.017514
v 7.397865 0.894520 0.016826
v 7.398312 0.900905 0.024298
v 7.400370 0.903548 0.027494
v 7.420982 0.937687 0.010050
v 7.419808 0.936880 0.013299
v 7.418524 0.935891 0.016541
v 7.417160 0.934764 0.019260
v 7.395531 0.896150 0.015070
v 7.394848 0.894363 0.010102
v 7.400865 0.909253 0.028572
v 7.398638 0.905967 0.025723
v 7.417204 0.936716 0.012094
v 7.413998 0.934532 0.017253
v 7.415629 0.935683 0.014841
v 7.412357 0.932917 0.019566
v 7.394553 0.894000 0.006199
v 7.394269 0.897142 0.012132
v 7.396617 0.898132 0.019413
v 7.413063 0.935353 0.012445
v 7.409410 0.932261 0.016750
v 7.411295 0.934107 0.014565
v 7.407338 0.929444 0.019125
v 7.394845 0.888495 0.005109
v 7.395342 0.899809 0.017570
v 7.396836 0.902990 0.022427
v 7.408826 0.933469 0.011127
v 7.406743 0.931434 0.012971
v 7.404515 0.928406 0.014902
v 7.395423 0.887999 0.000887
v 7.395988 0.882964 0.000476
v 7.395639 0.904805 0.019345
v 7.394262 0.902409 0.013800
v 7.404662 0.930505 0.008675
v 7.394783 0.893287 0.001297
v 7.394159 0.900865 0.007479
v 7.397472 0.908031 0.022986
v 7.396634 0.910071 0.020062
v 7.395055 0.905995 0.017174
v 7.394581 0.906551 0.014416
v 7.395951 0.892464 -0.004966
v 7.394314 0.899479 0.001749
v 7.394423 0.907429 0.007879
v 7.394392 0.905477 0.002091
v 7.396605 0.887051 -0.004967
v 7.399791 0.911935 0.025599
v 7.396150 0.911582 0.017346
v 7.395161 0.910052 0.014104
v 7.395632 0.903201 -0.004824
v 7.395567 0.897936 -0.004876
v 7.395494 0.912801 0.007700
v 7.395227 0.910655 0.001953
v 7.397583 0.891160 -0.011817
v 7.398430 0.916615 0.019409
v 7.398924 0.914514 0.022632
v 7.396376 0.914988 0.013383
v 7.397382 0.896345 -0.011897
v 7.400224 0.895222 -0.018168
v 7.402727 0.915681 0.027646
v 7.399959 0.920498 0.017819
v 7.398054 0.919337 0.012406
v 7.397376 0.901441 -0.011888
v 7.400148 0.900310 -0.018188
v 7.403695 0.899730 -0.023606
v 7.401029 0.920560 0.020854
v 7.400127 0.923594 0.011256
v 7.397146 0.917683 0.007158
v 7.397775 0.906765 -0.011776
v 7.396249 0.908516 -0.004814
v 7.403874 0.905170 -0.023386
v 7.400408 0.905720 -0.018001
v 7.408335 0.904879 -0.027727
v 7.397523 0.914156 -0.004853
v 7.396739 0.915956 0.001638
v 7.398788 0.912609 -0.011547
v 7.401209 0.911566 -0.017554
v 7.408783 0.910524 -0.027089
v 7.404491 0.910917 -0.022793
v 7.413846 0.910315 -0.030156
v 7.402109 0.924683 0.016316
v 7.398758 0.920923 0.001147
v 7.400306 0.918225 -0.011223
v 7.405511 0.916456 -0.021863
v 7.402476 0.917199 -0.016885
v 7.414334 0.915739 -0.029001
v 7.419643 0.915549 -0.030532
v 7.399246 0.922303 0.006407
v 7.404136 0.921965 -0.016029
v 7.409537 0.916006 -0.026006
v 7.406898 0.921272 -0.020632
v 7.410588 0.920776 -0.024474
v 7.419975 0.920249 -0.028791
v 7.425159 0.920185 -0.029216
v 7.402400 0.927392 0.010078
v 7.401113 0.926294 0.005372
v 7.408497 0.925276 -0.019217
v 7.425159 0.924186 -0.027124
v 7.429929 0.924224 -0.026673
v 7.406896 0.932711 0.007276
v 7.405818 0.931924 0.003369
v 7.403490 0.929538 0.004323
v 7.415018 0.920445 -0.027285
v 7.429420 0.927323 -0.024273
v 7.433467 0.927515 -0.022936
v 7.410818 0.934874 0.009378
v 7.409105 0.934308 0.005964
v 7.403105 0.928544 -0.000260
v 7.415858 0.924399 -0.025222
v 7.411836 0.924768 -0.022677
v 7.420389 0.924224 -0.026673
v 7.432345 0.930120 -0.020336
v 7.435537 0.930418 -0.018461
v 7.412793 0.936121 0.007704
v 7.400661 0.925138 0.000414
v 7.413236 0.927869 -0.020717
v 7.420898 0.927323 -0.024273
v 7.425159 0.927268 -0.024722
v 7.433828 0.932810 -0.015769
v 7.436179 0.933086 -0.013664
v 7.401046 0.923956 -0.005167
v 7.399319 0.919503 -0.004947
v 7.425159 0.929831 -0.021921
v 7.428833 0.929912 -0.021509
v 7.433956 0.935023 -0.011236
v 7.435491 0.935247 -0.009210
v 7.428180 0.932420 -0.018264
v 7.425159 0.932348 -0.018602
v 7.422138 0.932420 -0.018264
v 7.421485 0.929912 -0.021509
v 7.431103 0.932589 -0.017303
v 7.402217 0.922860 -0.010827
v 7.425159 0.934533 -0.015075
v 7.417974 0.930120 -0.020336
v 7.416852 0.927515 -0.022936
v 7.429812 0.934691 -0.014079
v 7.432011 0.934839 -0.012872
v 7.404325 0.926601 -0.010325
v 7.406011 0.925868 -0.015033
v 7.403372 0.927529 -0.005272
v 7.427511 0.934580 -0.014821
v 7.430186 0.936368 -0.010073
v 7.431619 0.936496 -0.008841
v 7.408002 0.928858 -0.013905
v 7.410223 0.928334 -0.017679
v 7.405681 0.930269 -0.005168
v 7.405461 0.931111 -0.000728
v 7.426886 0.936196 -0.011547
v 7.429403 0.937552 -0.006557
v 7.430252 0.937637 -0.005585
v 7.412094 0.930797 -0.015874
v 7.407798 0.933088 -0.001043
v 7.408129 0.933715 0.002536
v 7.406515 0.929488 -0.009658
v 7.414782 0.930418 -0.018461
v 7.411299 0.935703 0.004797
v 7.410450 0.935268 0.001835
v 7.408780 0.931782 -0.008849
v 7.410114 0.931247 -0.012582
v 7.408012 0.932420 -0.004921
v 7.427527 0.938241 -0.004456
v 7.413761 0.936856 0.003635
v 7.412356 0.933420 -0.010997
v 7.411118 0.933822 -0.007927
v 7.410394 0.934302 -0.004603
v 7.414140 0.933086 -0.013664
v 7.416491 0.932810 -0.015769
v 7.410174 0.934804 -0.001268
v 7.426985 0.938194 -0.004890
v 7.413725 0.935522 -0.006839
v 7.414828 0.935247 -0.009210
v 7.416363 0.935023 -0.011236
v 7.412856 0.936215 -0.001418
v 7.413072 0.935859 -0.004165
v 7.413067 0.936544 0.001175
v 7.417546 0.936652 -0.007334
v 7.416701 0.936841 -0.005575
v 7.416194 0.937068 -0.003585
v 7.416179 0.937534 0.000472
v 7.416020 0.937307 -0.001518
v 7.419216 0.932589 -0.017303
v 7.419613 0.937787 -0.004296
v 7.419163 0.938079 -0.001581
v 7.419159 0.937912 -0.002992
v 7.416694 0.937750 0.002364
v 7.419614 0.938366 0.001090
v 7.419157 0.938214 -0.000187
v 7.420507 0.934691 -0.014079
v 7.422808 0.934580 -0.014821
v 7.418308 0.934839 -0.012872
v 7.421937 0.938451 -0.002388
v 7.417592 0.937957 0.004139
v 7.421938 0.938610 -0.000855
v 7.414993 0.937158 0.005986
v 7.423433 0.936196 -0.011547
v 7.425159 0.936167 -0.011738
v 7.420133 0.936368 -0.010073
v 7.418699 0.936496 -0.008841
v 7.414807 0.936476 0.010241
v 7.416692 0.937411 0.007958
v 7.425159 0.937335 -0.008589
v 7.426340 0.937321 -0.008598
v 7.427437 0.937395 -0.008062
v 7.428575 0.936268 -0.010989
v 7.420067 0.937637 -0.005585
v 7.420916 0.937552 -0.006557
v 7.425800 0.938134 -0.005477
v 7.422065 0.938375 -0.003155
v 7.422427 0.938305 -0.003805
v 7.422791 0.938241 -0.004456
v 7.421771 0.937435 -0.007540
v 7.423334 0.938194 -0.004890
v 7.418774 0.937573 0.009274
v 7.428548 0.937435 -0.007540
v 7.422882 0.937395 -0.008062
v 7.421744 0.936268 -0.010989
v 7.423878 0.938152 -0.005325
v 7.420364 0.938247 0.006664
v 7.418831 0.938131 0.005632
v 7.422004 0.938331 0.007304
v 7.426441 0.938152 -0.005325
v 7.424519 0.938134 -0.005478
v 7.420952 0.938611 0.003353
v 7.420082 0.938491 0.002386
v 7.422946 0.938761 0.004741
v 7.425159 0.938120 -0.005630
v 7.423979 0.937321 -0.008598
v 7.422429 0.938757 0.000562
v 7.422067 0.938692 -0.000087
v 7.421832 0.938695 0.004291
v 7.422793 0.938827 0.001213
v 7.421811 0.938533 -0.001621
v 7.423336 0.938870 0.001648
v 7.423879 0.938917 0.002082
v 7.424016 0.938807 0.005222
v 7.447859 0.900386 0.029263
v 7.446071 0.905163 0.023528
v 7.449557 0.898338 0.026807
v 7.446088 0.902860 0.031289
v 7.444903 0.906748 0.025053
v 7.443924 0.910550 0.018629
v 7.444411 0.910017 0.017818
v 7.444899 0.909483 0.017007
v 7.447145 0.903863 0.021889
v 7.448161 0.902800 0.020020
v 7.451138 0.896761 0.023894
v 7.443595 0.908655 0.026578
v 7.444285 0.905717 0.032911
v 7.442949 0.911617 0.020250
v 7.445386 0.908950 0.016196
v 7.445874 0.908417 0.015386
v 7.449108 0.902041 0.017983
v 7.452532 0.895640 0.020827
v 7.442517 0.908868 0.033995
v 7.442083 0.911155 0.027767
v 7.441973 0.912683 0.021872
v 7.446706 0.908105 0.012195
v 7.450540 0.901363 0.013650
v 7.454516 0.894661 0.015137
v 7.440310 0.914524 0.028291
v 7.440847 0.912225 0.034405
v 7.439834 0.916853 0.022183
v 7.447538 0.907793 0.009005
v 7.451387 0.901044 0.009601
v 7.455635 0.894158 0.010347
v 7.437691 0.921021 0.022493
v 7.438499 0.918353 0.028093
v 7.439182 0.916090 0.034024
v 7.447175 0.891387 0.005610
v 7.451252 0.890397 0.007146
v 7.455609 0.888687 0.009017
v 7.436880 0.922242 0.027122
v 7.436663 0.923842 0.021537
v 7.437404 0.920773 0.032760
v 7.450658 0.886471 0.005909
v 7.446136 0.888888 0.004346
v 7.455137 0.883934 0.007724
v 7.435629 0.926004 0.025746
v 7.435674 0.926568 0.020572
v 7.435701 0.925906 0.031103
v 7.445096 0.886389 0.003082
v 7.449468 0.882786 0.004153
v 7.453774 0.879007 0.005464
v 7.431683 0.920969 0.028631
v 7.431336 0.921176 0.023334
v 7.432020 0.920770 0.033932
v 7.447461 0.878441 0.001394
v 7.444057 0.883891 0.001818
v 7.450998 0.872706 0.001238
v 7.428489 0.916091 0.036140
v 7.427872 0.916180 0.030846
v 7.426973 0.915665 0.026083
v 7.447440 0.867104 -0.003491
v 7.445025 0.874572 -0.001620
v 7.443017 0.881392 0.000554
v 7.424451 0.912395 0.031770
v 7.425168 0.912225 0.036827
v 7.423734 0.912566 0.026712
v 7.442605 0.872361 -0.004235
v 7.444295 0.864080 -0.006991
v 7.440987 0.880371 -0.001327
v 7.421863 0.908868 0.036523
v 7.421141 0.909215 0.031752
v 7.420496 0.909467 0.027341
v 7.440172 0.871026 -0.006584
v 7.441392 0.862354 -0.009790
v 7.438958 0.879351 -0.003208
v 7.417666 0.906234 0.031143
v 7.418383 0.905717 0.035755
v 7.416950 0.906751 0.026530
v 7.437734 0.869814 -0.008869
v 7.438546 0.861101 -0.012583
v 7.436928 0.878330 -0.005089
v 7.414831 0.902860 0.034449
v 7.414256 0.903653 0.029872
v 7.413404 0.904034 0.025719
v 7.435088 0.860199 -0.015149
v 7.434638 0.868860 -0.011132
v 7.434898 0.877310 -0.006970
v 7.411139 0.901674 0.027867
v 7.411312 0.900386 0.032529
v 7.410965 0.902963 0.023206
v 7.430228 0.868295 -0.013406
v 7.430428 0.859404 -0.017379
v 7.430029 0.877132 -0.009425
v 7.408527 0.901891 0.020693
v 7.408446 0.900238 0.025522
v 7.407926 0.898342 0.030070
v 7.425159 0.876954 -0.011879
v 7.425159 0.868110 -0.014547
v 7.425159 0.858941 -0.018417
v 7.406309 0.899282 0.023226
v 7.407845 0.901790 0.019299
v 7.404773 0.896774 0.027153
v 7.420091 0.868295 -0.013406
v 7.420290 0.877132 -0.009425
v 7.419890 0.859404 -0.017379
v 7.401993 0.895656 0.023889
v 7.404580 0.898680 0.020893
v 7.407162 0.901689 0.017905
v 7.415420 0.877310 -0.006970
v 7.415680 0.868860 -0.011132
v 7.415231 0.860199 -0.015149
v 7.403118 0.898298 0.018434
v 7.399726 0.894952 0.020383
v 7.406479 0.901588 0.016512
v 7.412585 0.869814 -0.008869
v 7.413391 0.878330 -0.005089
v 7.411773 0.861101 -0.012583
v 7.401775 0.898052 0.015777
v 7.405797 0.901486 0.015118
v 7.397865 0.894520 0.016826
v 7.411361 0.879351 -0.003208
v 7.410147 0.871026 -0.006584
v 7.408926 0.862354 -0.009790
v 7.399008 0.897701 0.009836
v 7.394848 0.894363 0.010102
v 7.403066 0.901082 0.009542
v 7.407708 0.872365 -0.004243
v 7.409331 0.880371 -0.001327
v 7.406022 0.864081 -0.006990
v 7.399086 0.889977 0.007183
v 7.394753 0.888679 0.009007
v 7.403143 0.891387 0.005610
v 7.407302 0.881392 0.000554
v 7.405275 0.874587 -0.001651
v 7.402892 0.867154 -0.003522
v 7.399670 0.886466 0.005927
v 7.395223 0.883928 0.007740
v 7.404183 0.888888 0.004346
v 7.402858 0.878441 0.001394
v 7.406262 0.883891 0.001818
v 7.399341 0.872756 0.001183
v 7.405223 0.886389 0.003082
v 7.400875 0.882770 0.004199
v 7.396532 0.878983 0.005496
vn -0.5118 -0.3779 0.7716
vn -0.4283 -0.3902 0.8151
vn -0.4045 -0.3941 0.8253
vn -0.5021 -0.3786 0.7775
vn 0.8912 0.2654 0.3679
vn 0.8877 0.3732 0.2696
vn 0.8478 0.3636 0.3861
vn 0.9923 -0.0936 0.0816
vn 0.9939 -0.1055 -0.0314
vn 0.9953 -0.0944 0.0204
vn 0.9806 -0.1370 0.1399
vn -0.1147 0.9796 -0.1652
vn -0.0993 0.9776 -0.1856
vn -0.1521 0.9600 -0.2352
vn -0.1811 0.9615 -0.2066
vn 0.5931 -0.7743 -0.2208
vn 0.5195 -0.7722 -0.3658
vn 0.5201 -0.7155 -0.4664
vn 0.6239 -0.7205 -0.3028
vn 0.9382 0.2537 0.2356
vn 0.9774 0.1243 0.1710
vn 0.9601 0.2299 0.1591
vn 0.9283 0.3359 0.1598
vn -0.9735 0.0611 -0.2204
vn -0.9611 0.1631 -0.2231
vn -0.9369 0.1286 -0.3251
vn -0.9439 0.0391 -0.3278
vn -0.1758 -0.1003 0.9793
vn -0.2744 -0.1844 0.9438
vn -0.2009 -0.2862 0.9369
vn -0.1068 -0.1994 0.9741
vn -0.9202 0.2038 0.3341
vn -0.9367 0.2834 0.2054
vn -0.9856 0.1141 0.1247
vn -0.9627 0.0866 0.2563
vn 0.9646 0.2613 0.0360
vn 0.9708 -0.0888 -0.2231
vn 0.9352 -0.0755 -0.3460
vn 0.9349 -0.0217 -0.3542
vn 0.9691 -0.0232 -0.2454
vn 0.8032 0.5104 0.3071
vn 0.7891 0.4760 0.3883
vn -0.6998 0.5909 0.4013
vn -0.7916 0.5550 0.2558
vn -0.8432 0.4751 0.2516
vn -0.7985 0.4823 0.3602
vn -0.9776 -0.0238 -0.2091
vn -0.9947 -0.0204 -0.1012
vn -0.9902 0.0875 -0.1092
vn -0.0588 0.9826 0.1761
vn -0.0476 0.9938 0.1003
vn -0.0801 0.9935 0.0811
vn -0.0992 0.9816 0.1629
vn -0.8392 0.0203 0.5434
vn -0.8926 -0.0795 0.4438
vn -0.7785 -0.2747 0.5643
vn -0.7155 -0.1893 0.6725
vn -0.9308 0.3655 -0.0026
vn -0.9427 0.3131 -0.1151
vn -0.9706 0.2085 -0.1199
vn -0.9660 0.2586 0.0001
vn 0.9430 -0.3200 -0.0919
vn 0.8839 -0.4602 -0.0836
vn 0.8802 -0.4421 -0.1728
vn 0.9292 -0.3042 -0.2097
vn -0.0284 0.9995 0.0099
vn -0.0533 0.9986 0.0066
vn -0.9194 0.3384 -0.2006
vn -0.8953 0.3203 -0.3097
vn -0.9220 0.2236 -0.3162
vn -0.9416 0.2614 -0.2124
vn 0.7279 0.5675 0.3848
vn 0.7051 0.6278 0.3298
vn 0.5756 0.7270 0.3745
vn -0.4469 0.5751 0.6852
vn -0.3845 0.4467 0.8078
vn -0.2548 0.5081 0.8227
vn -0.3241 0.6407 0.6960
vn 0.0663 0.9698 0.2345
vn 0.0778 0.9517 0.2969
vn 0.1655 0.9478 0.2726
vn 0.1318 0.9656 0.2240
vn -0.0201 0.6446 0.7643
vn -0.1467 0.5682 0.8097
vn -0.0132 0.3766 0.9263
vn 0.1186 0.4739 0.8726
vn -0.2404 0.9605 0.1403
vn -0.1865 0.9783 0.0899
vn -0.2306 0.9724 0.0354
vn -0.3097 0.9473 0.0813
vn -0.4062 -0.2177 0.8875
vn -0.4230 -0.2515 0.8705
vn -0.4469 -0.2361 0.8629
vn -0.4282 -0.2079 0.8794
vn 0.8522 0.4761 -0.2171
vn 0.8505 0.5148 -0.1081
vn 0.9033 0.4156 -0.1069
vn 0.9020 0.3658 -0.2291
vn 0.6032 -0.7580 -0.2480
vn 0.6037 -0.7587 -0.2449
vn 0.6038 -0.7590 -0.2436
vn 0.6047 -0.7576 -0.2457
vn -0.9919 0.1268 0.0018
vn 0.9164 0.2138 0.3384
vn 0.9449 0.1210 0.3042
vn 0.4321 0.7473 0.5049
vn 0.6486 0.7292 0.2182
vn 0.5573 0.7778 0.2906
vn 0.6460 0.6898 0.3269
vn 0.7318 0.6346 0.2485
vn -0.7196 0.6841 0.1197
vn -0.7651 0.6439 -0.0041
vn -0.8528 0.5219 0.0194
vn -0.8023 0.5795 0.1431
vn -0.5787 -0.5627 0.5903
vn -0.6469 -0.4719 0.5990
vn -0.6887 -0.5517 0.4704
vn -0.6317 -0.6080 0.4809
vn -0.8394 -0.5120 -0.1825
vn -0.8336 -0.5231 -0.1776
vn -0.8424 -0.5136 -0.1633
vn -0.8465 -0.5046 -0.1699
vn -0.9024 -0.3338 -0.2725
vn -0.9262 -0.2330 -0.2964
vn -0.8449 -0.2581 -0.4685
vn -0.8373 -0.3445 -0.4246
vn -0.3708 0.9081 0.1944
vn -0.4634 0.8751 0.1392
vn -0.5417 0.8237 0.1675
vn -0.4512 0.8616 0.2324
vn -0.9686 0.2140 0.1263
vn -0.9400 0.3132 0.1356
vn -0.8985 0.4217 0.1221
vn -0.9210 0.3772 -0.0977
vn -0.9390 -0.3044 -0.1603
vn -0.9329 -0.3039 -0.1931
vn -0.8933 -0.4102 -0.1838
vn -0.8973 -0.4187 -0.1398
vn 0.6408 -0.7399 -0.2049
vn 0.6248 -0.7475 -0.2256
vn 0.6118 -0.7578 -0.2269
vn 0.6310 -0.7491 -0.2017
vn -0.8202 -0.3801 0.4275
vn -0.8313 -0.4381 0.3422
vn -0.7109 -0.5833 0.3929
vn 0.4075 -0.2558 0.8767
vn 0.4102 -0.2850 0.8663
vn 0.6510 -0.7421 0.1597
vn 0.6251 -0.6704 0.3999
vn -0.8656 -0.4832 -0.1314
vn -0.8565 -0.4954 -0.1447
vn -0.8561 -0.4916 -0.1592
vn -0.8592 -0.4898 -0.1478
vn 0.8227 -0.4350 -0.3659
vn 0.7169 -0.4390 -0.5416
vn 0.7215 -0.3535 -0.5954
vn 0.8332 -0.3372 -0.4382
vn -0.2163 0.6773 0.7032
vn 0.9823 -0.1174 -0.1459
vn 0.9874 -0.1000 -0.1230
vn 0.4528 -0.3864 0.8036
vn 0.4283 -0.3902 0.8151
vn 0.3090 -0.3811 0.8713
vn 0.3569 -0.3682 0.8585
vn 0.4980 0.6526 0.5710
vn 0.3273 0.6334 0.7012
vn 0.2861 0.4293 0.8567
vn 0.5630 0.5310 0.6334
vn -0.5173 -0.3728 0.7704
vn -0.5079 -0.3862 0.7700
vn -0.5197 -0.3846 0.7629
vn -0.5292 -0.3735 0.7619
vn 0.8974 -0.4412 0.0028
vn 0.9487 -0.3145 -0.0321
vn 0.9648 0.0167 0.2625
vn 0.4288 -0.7453 -0.5106
vn 0.2862 -0.7356 -0.6140
vn 0.2775 -0.6800 -0.6787
vn 0.4148 -0.6921 -0.5907
vn -0.0778 0.9770 -0.1986
vn -0.0542 0.9754 -0.2135
vn -0.0835 0.9554 -0.2831
vn -0.1242 0.9557 -0.2669
vn -0.9545 -0.2978 -0.0144
vn -0.9882 -0.1510 -0.0249
vn -0.9829 -0.1654 -0.0811
vn -0.9469 -0.3141 -0.0688
vn 0.9882 0.0234 0.1514
vn 0.9725 -0.0197 0.2320
vn 0.9810 -0.0326 0.1911
vn -0.4443 0.0634 0.8936
vn -0.3456 0.1407 0.9278
vn 0.5988 0.1844 -0.7793
vn 0.5830 0.2968 -0.7563
vn 0.7342 0.2992 -0.6094
vn 0.7571 0.1925 -0.6243
vn -0.8710 0.4468 -0.2043
vn -0.8455 0.4331 -0.3123
vn 0.9262 0.1276 -0.3548
vn 0.8729 0.1078 -0.4759
vn 0.8597 0.2018 -0.4693
vn 0.9113 0.2218 -0.3469
vn 0.7932 0.1540 0.5892
vn 0.8319 0.0861 0.5482
vn 0.9512 -0.1023 0.2912
vn 0.9812 -0.1021 0.1636
vn -0.3843 0.7500 0.5384
vn -0.4262 0.6668 0.6113
vn -0.2707 0.7320 0.6252
vn -0.1978 0.7979 0.5694
vn -0.1215 -0.9916 -0.0445
vn 0.7746 -0.6283 -0.0718
vn 0.7713 -0.6329 -0.0674
vn -0.1726 -0.9805 -0.0940
vn -0.9702 -0.1717 -0.1711
vn 0.1612 0.3710 0.9145
vn 0.1679 0.2267 0.9594
vn 0.3441 0.2833 0.8952
vn -0.7837 0.6101 -0.1164
vn -0.7857 0.5817 -0.2106
vn -0.8738 0.4762 -0.0989
vn 0.9010 -0.0671 0.4286
vn 0.9246 -0.1028 0.3669
vn 0.9704 0.2091 -0.1206
vn 0.9427 0.3131 -0.1150
vn 0.9281 0.3707 0.0351
vn 0.8586 -0.2558 0.4442
vn 0.8710 -0.3298 0.3642
vn -0.4982 0.3853 0.7768
vn -0.5901 0.3167 0.7426
vn 0.9486 -0.1876 0.2551
vn -0.6722 0.7399 -0.0270
vn -0.6978 0.7054 -0.1245
vn -0.6175 0.7825 0.0804
vn -0.4213 -0.3473 0.8378
vn -0.4750 -0.3703 0.7983
vn 0.5447 -0.3623 0.7563
vn 0.5021 -0.3786 0.7775
vn 0.5118 -0.3779 0.7716
vn 0.5285 -0.3734 0.7624
vn -0.9457 -0.0265 -0.3240
vn -0.9457 -0.0803 -0.3149
vn -0.9770 -0.0833 -0.1961
vn -0.8844 -0.4546 -0.1055
vn -0.8977 -0.4325 -0.0834
vn -0.8960 -0.4357 -0.0863
vn -0.8800 -0.4622 -0.1091
vn -0.9732 -0.1238 -0.1936
vn -0.9839 -0.0998 -0.1483
vn -0.9905 -0.0772 -0.1141
vn 0.8257 -0.2212 0.5190
vn 0.7773 -0.1794 0.6030
vn 0.7420 -0.2456 0.6237
vn 0.7877 -0.3009 0.5376
vn 0.9353 -0.2430 0.2574
vn 0.9343 0.2599 -0.2438
vn 0.8833 0.3273 -0.3357
vn -0.1939 0.9658 -0.1721
vn -0.1279 0.9809 -0.1469
vn 0.8178 -0.3445 0.4609
vn -0.5209 -0.7155 -0.4656
vn -0.5377 -0.5803 -0.6117
vn -0.4087 -0.5685 -0.7140
vn -0.4148 -0.6921 -0.5907
vn 0.8374 0.4807 0.2601
vn 0.6840 -0.2031 0.7006
vn 0.8346 -0.5247 -0.1678
vn 0.7813 -0.5603 -0.2751
vn 0.8634 -0.4413 -0.2444
vn -0.8597 0.2018 -0.4693
vn -0.7571 0.1925 -0.6243
vn -0.7666 0.0981 -0.6345
vn -0.8729 0.1078 -0.4759
vn -0.1863 0.9817 -0.0388
vn -0.2022 0.9767 -0.0719
vn -0.2772 0.9587 -0.0632
vn -0.2593 0.9657 -0.0138
vn 0.2281 0.7115 0.6647
vn 0.2084 0.7874 0.5801
vn 0.0144 0.8029 0.5960
vn 0.1379 0.6973 0.7034
vn 0.8660 0.0125 0.4999
vn -0.8352 -0.4199 -0.3551
vn -0.7260 -0.3544 -0.5894
vn -0.7225 -0.4338 -0.5383
vn 0.9941 -0.0197 -0.1065
vn 0.9447 -0.3278 -0.0060
vn 0.9988 0.0004 0.0493
vn -0.5526 -0.3723 -0.7457
vn -0.5478 -0.4617 -0.6977
vn 0.1680 0.9257 -0.3389
vn 0.1242 0.9557 -0.2668
vn 0.1521 0.9600 -0.2352
vn 0.2144 0.9300 -0.2985
vn 0.7907 0.5561 0.2563
vn -0.1090 0.9742 0.1977
vn -0.1629 0.9699 0.1809
vn -0.2109 0.9546 0.2103
vn -0.1318 0.9656 0.2242
vn 0.3747 -0.0716 -0.9244
vn 0.3819 -0.0034 -0.9242
vn 0.5993 0.0051 -0.8005
vn 0.5914 -0.0622 -0.8040
vn -0.9410 -0.1441 -0.3061
vn -0.8576 -0.1673 -0.4864
vn -0.8623 -0.4872 0.1382
vn -0.7815 -0.4269 0.4550
vn -0.8379 -0.5196 -0.1674
vn -0.8444 -0.5083 -0.1695
vn 0.9896 0.1380 0.0405
vn 0.9878 0.1037 -0.1163
vn 0.1942 0.1424 0.9706
vn 0.1293 0.2241 0.9659
vn 0.0114 0.1139 0.9934
vn 0.0598 0.0084 0.9982
vn -0.0664 0.9698 0.2346
vn -0.0617 0.9764 0.2071
vn 0.7345 -0.6490 -0.1983
vn -0.6341 -0.1131 0.7650
vn -0.7682 0.1251 0.6278
vn -0.9999 -0.0111 -0.0027
vn -0.9916 -0.0013 0.1293
vn -0.3636 -0.2172 -0.9059
vn -0.3670 -0.1396 -0.9197
vn -0.1603 -0.1401 -0.9771
vn -0.1662 -0.2115 -0.9631
vn 0.8949 -0.3239 -0.3071
vn 0.8455 -0.2460 -0.4740
vn 0.9173 -0.2180 -0.3332
vn 0.5374 -0.5796 -0.6125
vn 0.5479 -0.4616 -0.6977
vn 0.6899 -0.5700 -0.4463
vn -0.5262 -0.3613 0.7698
vn -0.5070 -0.3570 0.7845
vn 0.3555 0.9345 0.0181
vn 0.2593 0.9657 -0.0138
vn 0.2306 0.9724 0.0354
vn 0.3097 0.9473 0.0813
vn -0.2862 0.8867 -0.3632
vn -0.2167 0.8834 -0.4156
vn -0.2732 0.8282 -0.4894
vn -0.3717 0.8268 -0.4222
vn -0.3733 -0.2656 0.8889
vn -0.5358 -0.0188 0.8441
vn -0.4806 -0.3459 0.8059
vn 0.6485 0.3945 0.6510
vn 0.3778 0.2934 -0.8782
vn 0.3865 0.1762 -0.9053
vn -0.1836 -0.2763 -0.9434
vn -0.0000 -0.2059 -0.9786
vn -0.0000 -0.2665 -0.9638
vn 0.4225 -0.0371 0.9056
vn 0.5635 0.0114 0.8260
vn 0.4585 0.1330 0.8787
vn 0.2911 0.0785 0.9535
vn -0.6903 -0.5659 -0.4508
vn 0.1602 0.4140 -0.8961
vn 0.3579 0.4224 -0.8327
vn 0.1630 0.2859 -0.9443
vn 0.3866 0.0812 -0.9187
vn 0.6021 0.0900 -0.7933
vn -0.5082 -0.3853 0.7702
vn -0.2868 0.9448 -0.1584
vn -0.2762 0.9391 -0.2043
vn -0.3861 0.8907 -0.2401
vn -0.4027 0.8975 -0.1797
vn 0.0901 0.8236 -0.5600
vn 0.1805 0.8261 -0.5338
vn 0.2197 0.7656 -0.6046
vn 0.1100 0.7658 -0.6336
vn -0.5993 0.0050 -0.8005
vn -0.3819 -0.0034 -0.9242
vn -0.3747 -0.0716 -0.9244
vn -0.5916 -0.0624 -0.8038
vn -0.5795 -0.1310 -0.8043
vn -0.4288 -0.7453 -0.5106
vn -0.5210 -0.7710 -0.3662
vn -0.9980 -0.0618 -0.0129
vn -0.9959 -0.0739 -0.0524
vn -0.3975 -0.4628 -0.7923
vn -0.1602 0.4140 -0.8961
vn -0.0000 0.4073 -0.9133
vn -0.0000 0.2816 -0.9595
vn -0.1630 0.2859 -0.9443
vn 0.1657 0.1703 -0.9714
vn -0.0000 0.1685 -0.9857
vn -0.8689 -0.0913 -0.4865
vn -0.7526 -0.1137 -0.6485
vn -0.7383 -0.1919 -0.6466
vn -0.5589 -0.2839 -0.7791
vn -0.3694 -0.2886 -0.8833
vn -0.3815 -0.3745 -0.8451
vn -0.2775 -0.6800 -0.6787
vn -0.2862 -0.7356 -0.6140
vn -0.7635 -0.0503 -0.6439
vn -0.7683 0.0127 -0.6399
vn -0.6021 0.0900 -0.7933
vn -0.3866 0.0812 -0.9187
vn -0.1607 -0.0766 -0.9840
vn -0.0000 -0.0775 -0.9970
vn -0.0000 -0.1383 -0.9904
vn -0.1636 -0.0100 -0.9865
vn -0.0000 -0.0121 -0.9999
vn -0.3397 0.8929 0.2954
vn -0.5568 0.7744 0.3006
vn -0.4312 0.8190 0.3785
vn -0.2144 -0.3532 -0.9107
vn -0.8773 0.0226 -0.4793
vn -0.2504 -0.4419 -0.8614
vn -0.2724 -0.5533 -0.7872
vn -0.2299 0.2221 0.9475
vn -0.0833 -0.0035 0.9965
vn 0.7379 -0.1919 -0.6471
vn 0.8572 -0.1663 -0.4875
vn 0.7283 -0.2668 -0.6312
vn 0.1660 0.0749 -0.9833
vn -0.0000 -0.7492 -0.6624
vn -0.0000 -0.6886 -0.7252
vn -0.8331 0.3066 -0.4604
vn -0.7342 0.2992 -0.6094
vn -0.5830 0.2968 -0.7563
vn -0.5988 0.1844 -0.7793
vn -0.1021 0.9173 0.3848
vn -0.2158 0.9108 0.3519
vn -0.2801 0.8541 0.4382
vn -0.1352 0.8747 0.4655
vn -0.0000 -0.5543 -0.8323
vn -0.0000 -0.4313 -0.9022
vn -0.0575 0.9187 -0.3907
vn -0.0000 0.9173 -0.3982
vn -0.0000 0.8739 -0.4860
vn -0.0726 0.8754 -0.4779
vn -0.0000 -0.3383 -0.9410
vn 0.2759 0.8583 0.4328
vn 0.1357 0.8741 0.4663
vn 0.1736 0.8335 0.5245
vn 0.3325 0.8057 0.4901
vn -0.7889 0.4223 -0.4464
vn -0.3555 0.9345 0.0181
vn -0.3858 0.9212 -0.0507
vn 0.2504 -0.4419 -0.8614
vn 0.2144 -0.3532 -0.9107
vn 0.1836 -0.2763 -0.9434
vn 0.1662 -0.2115 -0.9631
vn 0.1603 -0.1401 -0.9771
vn -0.0000 0.0732 -0.9973
vn 0.1636 -0.0100 -0.9865
vn -0.7704 0.5586 -0.3074
vn -0.7294 -0.2703 -0.6284
vn 0.2724 -0.5533 -0.7872
vn 0.4087 -0.5685 -0.7140
vn 0.3636 -0.2172 -0.9059
vn 0.3694 -0.2886 -0.8833
vn 0.3670 -0.1396 -0.9197
vn -0.5708 -0.4101 0.7113
vn -0.4942 -0.5146 0.7007
vn 0.4494 -0.2393 0.8607
vn 0.4630 -0.2834 0.8398
vn 0.4378 -0.2806 0.8542
vn 0.4341 -0.2527 0.8647
vn -0.8499 -0.4949 -0.1808
vn -0.8782 -0.4181 -0.2321
vn -0.7857 -0.5583 -0.2664
vn 0.7359 -0.6720 -0.0829
vn 0.7628 -0.6427 -0.0714
vn 0.7439 -0.6620 -0.0909
vn -0.5919 0.8053 -0.0334
vn -0.6191 0.7754 -0.1248
vn -0.6206 0.7570 -0.2045
vn -0.6997 0.6835 -0.2079
vn 0.9589 -0.1818 -0.2180
vn 0.9303 -0.1434 -0.3376
vn 0.9689 -0.1302 -0.2106
vn -0.2099 -0.9701 -0.1217
vn -0.9353 -0.3490 -0.0583
vn -0.9353 -0.3525 -0.0295
vn -0.7337 -0.6537 -0.1854
vn -0.6277 -0.7157 -0.3061
vn -0.6312 -0.7360 -0.2446
vn 0.3815 -0.3745 -0.8451
vn 0.3975 -0.4628 -0.7923
vn 0.0110 0.8518 0.5238
vn 0.8462 0.5089 0.1581
vn 0.8848 0.4646 0.0348
vn 0.8340 0.5513 0.0209
vn 0.7946 0.5888 0.1483
vn -0.5376 0.8409 0.0624
vn -0.4639 0.8845 0.0503
vn -0.5082 0.8605 -0.0365
vn -0.5307 0.8389 -0.1213
vn -0.6485 0.7285 0.2208
vn 0.9643 0.0675 -0.2560
vn -0.7307 0.6340 0.2533
vn 0.5416 0.8239 0.1670
vn 0.4507 0.8625 0.2303
vn -0.1383 0.7715 0.6210
vn 0.9537 0.1623 -0.2534
vn -0.1107 0.3075 0.9451
vn 0.5481 0.7013 0.4558
vn -0.7247 0.5436 -0.4235
vn -0.6301 0.5396 -0.5583
vn -0.6929 0.4161 -0.5888
vn -0.5050 0.7421 0.4408
vn -0.3366 0.8002 0.4964
vn 0.5591 -0.2839 -0.7790
vn 0.5666 -0.2105 -0.7966
vn 0.5792 -0.1310 -0.8046
vn 0.7134 -0.1265 0.6893
vn 0.2868 0.9448 -0.1584
vn 0.2871 0.9513 -0.1121
vn 0.4015 0.9082 -0.1180
vn 0.4027 0.8975 -0.1797
vn 0.1017 0.9172 0.3851
vn 0.2141 0.9117 0.3507
vn -0.8267 0.2567 0.5007
vn -0.8535 0.3093 0.4195
vn -0.8955 0.1466 0.4202
vn -0.6774 0.2339 0.6975
vn -0.7344 0.3571 0.5771
vn 0.1607 -0.0766 -0.9840
vn 0.4199 -0.3493 0.8377
vn 0.4751 -0.3720 0.7974
vn 0.5137 -0.3730 0.7727
vn 0.5035 -0.3882 0.7718
vn 0.8910 0.4266 0.1553
vn 0.2596 0.5910 0.7638
vn 0.2422 0.3297 0.9125
vn 0.3071 0.2416 0.9205
vn 0.2279 0.5469 0.8056
vn -0.9023 0.4309 0.0144
vn 0.6301 0.5396 -0.5583
vn 0.5412 0.6661 -0.5132
vn 0.6349 0.6655 -0.3925
vn 0.7247 0.5436 -0.4235
vn 0.4045 -0.3941 0.8253
vn 0.2497 -0.3978 0.8828
vn 0.2102 0.5635 0.7989
vn -0.1318 0.9879 -0.0816
vn -0.1365 0.9852 -0.1033
vn -0.2039 0.9732 -0.1063
vn -0.0000 0.5428 -0.8398
vn 0.1533 0.5474 -0.8227
vn -0.1660 0.0749 -0.9833
vn -0.9089 -0.4070 -0.0912
vn 0.7339 0.2600 0.6275
vn -0.3865 0.1762 -0.9053
vn -0.1657 0.1703 -0.9714
vn -0.1403 0.9897 0.0290
vn -0.0956 0.9952 -0.0208
vn -0.1119 0.9929 -0.0412
vn -0.1714 0.9852 -0.0037
vn 0.6082 -0.7570 -0.2390
vn 0.6059 -0.7585 -0.2400
vn 0.6119 -0.7535 -0.2406
vn 0.6060 -0.7573 -0.2436
vn -0.7637 0.4176 0.4923
vn -0.6677 0.5051 0.5469
vn 0.9806 -0.1897 -0.0495
vn 0.9827 -0.1823 0.0322
vn -0.3778 0.2934 -0.8782
vn 0.6867 -0.7107 -0.1527
vn 0.6612 -0.7282 -0.1804
vn 0.6478 -0.7405 -0.1791
vn 0.6739 -0.7235 -0.1501
vn 0.5076 0.7567 0.4120
vn 0.3489 0.7703 0.5337
vn -0.5477 0.4199 -0.7236
vn -0.3579 0.4224 -0.8327
vn -0.9435 0.0320 0.3299
vn -0.0002 0.9523 0.3052
vn 0.0001 0.9189 0.3946
vn -0.4901 0.5457 -0.6797
vn -0.9605 -0.1963 -0.1974
vn -0.5984 0.7504 -0.2807
vn -0.5095 0.8177 -0.2680
vn -0.4567 0.8210 -0.3425
vn -0.5460 0.7534 -0.3664
vn -0.3967 -0.4546 0.7974
vn -0.6815 0.6710 -0.2919
vn -0.6349 0.6655 -0.3925
vn -0.5412 0.6661 -0.5132
vn 0.9751 -0.1719 -0.1402
vn -0.8753 -0.0356 -0.4823
vn -0.5667 -0.2104 -0.7966
vn 0.5528 -0.3722 -0.7456
vn -0.7227 -0.3826 0.5756
vn -0.8320 -0.5300 -0.1641
vn -0.4015 0.9082 -0.1180
vn 0.7628 -0.0490 -0.6448
vn 0.7682 0.0131 -0.6401
vn -0.5320 0.8236 -0.1965
vn -0.8817 0.3698 0.2929
vn -0.0780 0.9517 0.2970
vn -0.2656 0.9344 0.2374
vn -0.8273 -0.5287 -0.1900
vn -0.8336 -0.5186 -0.1901
vn 0.5376 0.8409 0.0623
vn 0.4634 0.8752 0.1391
vn 0.6175 0.7825 0.0803
vn 0.7704 0.5586 -0.3074
vn 0.7857 0.5817 -0.2106
vn 0.8367 0.4426 -0.3224
vn 0.7057 -0.6985 -0.1186
vn 0.7173 -0.6854 -0.1251
vn -0.3994 0.9085 0.1227
vn 0.8679 -0.0879 -0.4889
vn -0.2871 0.9513 -0.1121
vn -0.3101 0.9339 0.1779
vn -0.1108 0.9916 0.0666
vn -0.1356 0.9814 0.1362
vn 0.7516 -0.1127 -0.6499
vn 0.3381 0.8945 0.2925
vn 0.4292 0.8258 0.3659
vn -0.8586 0.4949 0.1335
vn -0.3234 0.5514 -0.7690
vn -0.1533 0.5474 -0.8227
vn -0.1655 0.9477 0.2729
vn 0.8746 -0.0320 -0.4838
vn 0.2762 0.9391 -0.2043
vn 0.1939 0.9658 -0.1721
vn 0.2068 0.9683 -0.1403
vn 0.1863 0.9817 -0.0388
vn 0.1714 0.9852 -0.0037
vn -0.4100 0.6714 -0.6174
vn -0.2709 0.6766 -0.6847
vn 0.6035 -0.7585 -0.2458
vn 0.6107 -0.7553 -0.2378
vn -0.1680 0.9257 -0.3390
vn -0.1161 0.9215 -0.3707
vn -0.1459 0.8790 -0.4539
vn 0.3708 0.9082 0.1943
vn 0.5984 0.7504 -0.2807
vn 0.5095 0.8177 -0.2680
vn 0.5320 0.8236 -0.1965
vn 0.6206 0.7570 -0.2045
vn -0.0746 0.9972 -0.0073
vn -0.4521 0.7600 -0.4669
vn -0.3339 0.7640 -0.5521
vn 0.3234 0.5514 -0.7690
vn 0.2709 0.6766 -0.6847
vn 0.4100 0.6714 -0.6174
vn 0.4901 0.5457 -0.6797
vn -0.1331 0.9832 -0.1247
vn -0.2068 0.9683 -0.1403
vn -0.4695 -0.2270 0.8533
vn -0.4579 -0.1974 0.8668
vn -0.0000 0.9954 0.0955
vn -0.0000 0.9833 0.1819
vn -0.6420 0.4356 0.6310
vn -0.0000 0.7657 -0.6432
vn -0.1100 0.7658 -0.6336
vn -0.0901 0.8236 -0.5600
vn -0.0000 0.8225 -0.5687
vn -0.3466 0.8881 -0.3018
vn -0.6389 0.6848 0.3506
vn 0.1356 0.9814 0.1362
vn 0.0992 0.9816 0.1629
vn 0.1090 0.9742 0.1977
vn 0.1629 0.9699 0.1809
vn -0.5512 0.5044 0.6647
vn 0.8771 0.0237 -0.4796
vn 0.9331 0.0403 -0.3573
vn 0.3044 0.7389 0.6011
vn 0.2404 0.9605 0.1403
vn 0.3101 0.9339 0.1779
vn 0.3994 0.9085 0.1227
vn -0.0000 0.9534 -0.3016
vn -0.0433 0.9518 -0.3038
vn -0.0272 0.9756 -0.2178
vn -0.0000 0.9746 -0.2239
vn -0.8408 -0.5066 -0.1908
vn -0.8459 -0.4994 -0.1872
vn 0.1318 0.9879 -0.0816
vn 0.1365 0.9852 -0.1033
vn -0.0000 0.9947 -0.1028
vn 0.1254 0.9903 -0.0597
vn 0.1119 0.9929 -0.0413
vn 0.0956 0.9952 -0.0208
vn 0.0021 0.8811 0.4730
vn -0.5486 0.6728 0.4963
vn -0.1805 0.8261 -0.5338
vn -0.2197 0.7656 -0.6046
vn 0.6933 -0.7122 -0.1100
vn 0.1331 0.9832 -0.1247
vn 0.0746 0.9972 -0.0073
vn 0.1339 0.6772 -0.7235
vn -0.0000 0.6763 -0.7366
vn 0.1279 0.9809 -0.1469
vn 0.0533 0.9986 0.0066
vn 0.5082 0.8605 -0.0365
vn 0.4639 0.8845 0.0503
vn 0.5919 0.8053 -0.0334
vn -0.2510 0.9346 -0.2519
vn -0.4603 -0.2827 0.8415
vn -0.4887 -0.2846 0.8247
vn 0.1147 0.9796 -0.1652
vn 0.0284 0.9995 0.0099
vn -0.1254 0.9903 -0.0597
vn 0.1811 0.9615 -0.2066
vn 0.2510 0.9346 -0.2519
vn -0.0000 0.9999 0.0149
vn -0.5586 0.5829 0.5900
vn 0.0588 0.9826 0.1761
vn -0.0000 0.9773 0.2121
vn 0.0617 0.9764 0.2071
vn -0.8910 -0.4441 -0.0945
vn -0.8716 -0.4761 -0.1169
vn 0.0476 0.9938 0.1003
vn -0.8623 -0.4872 -0.1382
vn -0.8729 -0.4722 -0.1231
vn -0.0000 0.9708 0.2397
vn 0.0575 0.9187 -0.3907
vn 0.1161 0.9215 -0.3707
vn 0.1459 0.8790 -0.4539
vn 0.0725 0.8754 -0.4779
vn 0.6026 -0.7585 -0.2482
vn -0.9816 -0.1736 0.0798
vn 0.7487 -0.6552 -0.1006
vn -0.9325 -0.1704 0.3183
vn 0.2109 0.9546 0.2102
vn 0.2657 0.9344 0.2372
vn -0.8532 -0.4966 -0.1595
vn -0.8519 -0.5014 -0.1514
vn -0.9985 -0.0541 0.0049
vn -0.9715 -0.1807 0.1535
vn -0.2144 0.9300 -0.2985
vn 0.4885 -0.2893 0.8232
vn 0.5032 -0.3346 0.7967
vn 0.4559 -0.3386 0.8231
vn -0.2954 -0.3734 0.8794
vn 0.6598 -0.7370 -0.1462
vn 0.6078 -0.7571 -0.2396
vn 0.6090 -0.7561 -0.2397
vn 0.6447 -0.0661 0.7616
vn 0.5290 -0.1139 0.8409
vn 0.6183 -0.1699 0.7673
vn -0.8507 -0.4948 -0.1773
vn -0.8541 -0.4919 -0.1690
vn -0.4537 -0.3335 0.8264
vn -0.5077 -0.3286 0.7964
vn 0.6088 -0.7559 -0.2408
vn 0.5677 -0.5521 0.6107
vn 0.3466 0.8881 -0.3018
vn 0.3861 0.8907 -0.2401
vn 0.7889 0.4223 -0.4464
vn 0.8331 0.3066 -0.4604
vn 0.6351 -0.7518 -0.1775
vn 0.7666 0.0981 -0.6345
vn -0.0273 -0.1063 0.9940
vn 0.4094 -0.2280 0.8834
vn 0.4657 -0.2309 0.8543
vn 0.4521 0.7600 -0.4669
vn 0.3717 0.8268 -0.4222
vn 0.4567 0.8210 -0.3425
vn 0.5460 0.7534 -0.3664
vn 0.6929 0.4161 -0.5888
vn 0.5477 0.4199 -0.7236
vn 0.7651 0.6439 -0.0041
vn 0.7195 0.6841 0.1196
vn -0.1339 0.6772 -0.7235
vn 0.6191 0.7754 -0.1248
vn 0.6722 0.7399 -0.0270
vn 0.6978 0.7054 -0.1245
vn 0.7837 0.6101 -0.1164
vn 0.2039 0.9732 -0.1063
vn 0.2022 0.9767 -0.0719
vn 0.2862 0.8867 -0.3632
vn 0.6815 0.6710 -0.2919
vn 0.6997 0.6835 -0.2079
vn -0.4319 -0.2837 0.8562
vn 0.5307 0.8389 -0.1213
vn -0.1644 0.8417 0.5144
vn 0.0993 0.9776 -0.1856
vn 0.3858 0.9212 -0.0507
vn 0.2732 0.8282 -0.4894
vn 0.3339 0.7640 -0.5521
vn 0.0778 0.9770 -0.1985
vn -0.3090 -0.3811 0.8713
vn -0.0000 -0.3796 0.9251
vn -0.0000 -0.3999 0.9166
vn -0.2497 -0.3978 0.8828
vn 0.2167 0.8834 -0.4156
vn 0.2772 0.9587 -0.0632
vn 0.1403 0.9897 0.0290
vn 0.1865 0.9783 0.0899
vn 0.0433 0.9518 -0.3038
vn 0.0835 0.9554 -0.2831
vn 0.0542 0.9754 -0.2135
vn 0.0272 0.9756 -0.2178
vn 0.0801 0.9935 0.0811
vn 0.1108 0.9916 0.0666
vn -0.0000 -0.3552 0.9348
vn -0.9351 -0.3542 -0.0138
vn -0.9118 -0.4067 -0.0578
vn -0.9155 -0.3957 -0.0727
vn 0.5185 -0.3850 0.7635
vn -0.9142 -0.4020 -0.0520
vn -0.4088 -0.3043 0.8604
vn -0.4528 -0.3864 0.8036
vn 0.5238 -0.3606 0.7718
vn 0.5082 -0.3853 0.7702
vn 0.6085 -0.7656 -0.2089
vn 0.5965 -0.7658 -0.2403
vn 0.6062 -0.7569 -0.2442
vn -0.3569 -0.3682 0.8585
vn 0.4145 -0.3054 0.8573
vn 0.5025 -0.3571 0.7874
vn -0.5450 -0.3625 0.7560
vt 0.000000 0.000000
s 1
f 743/1/1 750/1/2 749/1/3 744/1/4
f 1/1/5 5/1/6 2/1/7
f 88/1/8 95/1/9 72/1/10 80/1/11
f 641/1/12 642/1/13 638/1/14 637/1/15
f 134/1/16 142/1/17 141/1/18 133/1/19
f 7/1/20 8/1/21 9/1/22
f 7/1/20 10/1/23 5/1/6
f 7/1/20 9/1/22 10/1/23
f 482/1/24 502/1/25 501/1/26 495/1/27
f 381/1/28 391/1/29 390/1/30 383/1/31
f 471/1/32 480/1/33 473/1/34 472/1/35
f 9/1/22 14/1/36 10/1/23
f 76/1/37 114/1/38 84/1/39 78/1/40
f 11/1/41 17/1/42 2/1/7
f 372/1/43 513/1/44 493/1/45 498/1/46
f 482/1/24 483/1/47 475/1/48 477/1/49
f 431/1/50 667/1/51 657/1/52 652/1/53
f 445/1/54 459/1/55 436/1/56 437/1/57
f 500/1/58 507/1/59 485/1/60 484/1/61
f 103/1/62 108/1/63 110/1/64 109/1/65
f 657/1/52 667/1/51 430/1/66 666/1/67
f 554/1/68 515/1/69 508/1/70 506/1/71
f 18/1/72 19/1/73 24/1/74
f 373/1/75 374/1/76 367/1/77 368/1/78
f 334/1/79 335/1/80 329/1/81 328/1/82
f 269/1/83 360/1/84 260/1/85 261/1/86
f 632/1/87 651/1/88 624/1/89 626/1/90
f 701/1/91 708/1/92 707/1/93 702/1/94
f 65/1/95 66/1/96 36/1/97 58/1/98
f 764/1/99 771/1/100 772/1/101 765/1/102
f 476/1/103 484/1/61 485/1/60 477/1/49
f 6/1/104 49/1/105 8/1/21 7/1/20
f 24/1/74 19/1/73 34/1/106
f 213/1/107 218/1/108 219/1/109 27/1/110
f 467/1/111 534/1/112 528/1/113 527/1/114
f 421/1/115 429/1/116 427/1/117 428/1/118
f 677/1/119 678/1/120 670/1/121 676/1/122
f 246/1/123 272/1/124 240/1/125 241/1/126
f 453/1/127 538/1/128 460/1/129 455/1/130
f 481/1/131 489/1/132 484/1/61 476/1/103
f 494/1/133 500/1/58 484/1/61 489/1/132
f 514/1/134 554/1/68 506/1/71 507/1/59
f 485/1/60 502/1/25 482/1/24 477/1/49
f 262/1/135 256/1/136 253/1/137 254/1/138
f 746/1/139 753/1/140 752/1/141 747/1/142
f 427/1/117 452/1/143 442/1/144 435/1/145
f 794/1/146 796/1/147 790/1/148 788/1/149
f 679/1/150 681/1/151 673/1/152 672/1/153
f 119/1/154 129/1/155 125/1/156 118/1/157
f 359/1/158 368/1/78 367/1/77 360/1/84
f 72/1/10 95/1/9 77/1/159 71/1/160
f 773/1/161 774/1/162 767/1/163 768/1/164
f 25/1/165 55/1/166 32/1/167 26/1/168
f 731/1/169 733/1/170 739/1/171 737/1/172
f 107/1/173 108/1/63 103/1/62 102/1/174
f 49/1/105 56/1/175 8/1/21
f 148/1/176 158/1/177 157/1/178 149/1/179
f 644/1/180 649/1/181 647/1/182 643/1/183
f 264/1/184 271/1/185 270/1/186 263/1/187
f 57/1/188 64/1/189 63/1/190
f 388/1/191 391/1/29 381/1/28 382/1/192
f 167/1/193 267/1/194 176/1/195 168/1/196
f 553/1/197 564/1/198 515/1/69 554/1/68
f 52/1/199 92/1/200 67/1/201 59/1/202
f 4/1/203 41/1/204 6/1/104 1/1/5
f 63/1/190 64/1/189 69/1/205
f 63/1/190 69/1/205 62/1/206
f 358/1/207 366/1/208 353/1/209 352/1/210
f 712/1/211 718/1/212 716/1/213 710/1/214
f 270/1/186 464/1/215 262/1/135 263/1/187
f 32/1/167 47/1/216 38/1/217 31/1/218
f 540/1/219 572/1/220 553/1/197 547/1/221
f 56/1/175 75/1/222 70/1/223
f 22/1/224 37/1/225 15/1/226 14/1/36
f 69/1/205 70/1/223 87/1/227 86/1/228
f 388/1/191 382/1/192 379/1/229 387/1/230
f 62/1/206 69/1/205 79/1/231
f 62/1/206 79/1/231 80/1/11
f 533/1/232 579/1/233 540/1/219 534/1/112
f 533/1/232 534/1/112 467/1/111 532/1/234
f 727/1/235 733/1/170 731/1/169 726/1/236
f 787/1/237 781/1/238 779/1/239 786/1/240
f 55/1/166 25/1/165 24/1/74 34/1/106
f 483/1/47 490/1/241 486/1/242 474/1/243
f 686/1/244 693/1/245 692/1/246 687/1/247
f 79/1/231 86/1/228 80/1/11
f 79/1/231 69/1/205 86/1/228
f 474/1/243 478/1/248 463/1/249 468/1/250
f 90/1/251 82/1/252 99/1/253 93/1/254
f 80/1/11 86/1/228 89/1/255
f 70/1/223 90/1/251 87/1/227
f 42/1/256 59/1/202 60/1/257 58/1/98
f 614/1/258 640/1/259 641/1/12 637/1/15
f 86/1/228 87/1/227 93/1/254
f 87/1/227 90/1/251 93/1/254
f 86/1/228 94/1/260 89/1/255
f 86/1/228 93/1/254 94/1/260
f 197/1/261 199/1/262 193/1/263 192/1/264
f 5/1/6 12/1/265 11/1/41 2/1/7
f 98/1/266 99/1/253 82/1/252
f 115/1/267 123/1/268 119/1/154 116/1/269
f 509/1/270 511/1/271 503/1/272 504/1/273
f 618/1/274 619/1/275 611/1/276 617/1/277
f 236/1/278 275/1/279 276/1/280 268/1/281
f 48/1/282 75/1/222 56/1/175 49/1/105
f 217/1/283 241/1/126 221/1/284 216/1/285
f 76/1/37 78/1/40 51/1/286 71/1/160
f 101/1/287 107/1/173 102/1/174
f 57/1/188 63/1/190 62/1/206 50/1/288
f 221/1/284 222/1/289 201/1/290 216/1/285
f 574/1/291 646/1/292 581/1/293 575/1/294
f 27/1/110 219/1/109 19/1/73 20/1/295
f 438/1/296 645/1/297 446/1/298 439/1/299
f 108/1/63 115/1/267 110/1/64
f 107/1/173 115/1/267 108/1/63
f 110/1/64 115/1/267 116/1/269
f 146/1/300 152/1/301 139/1/302 140/1/303
f 278/1/304 279/1/305 240/1/125 272/1/124
f 695/1/306 696/1/307 690/1/308 689/1/309
f 13/1/310 43/1/311 22/1/224 14/1/36
f 244/1/312 252/1/313 250/1/314 251/1/315
f 438/1/296 439/1/299 432/1/316 433/1/317
f 115/1/267 124/1/318 123/1/268
f 445/1/54 437/1/57 419/1/319 444/1/320
f 473/1/34 476/1/103 469/1/321 466/1/322
f 194/1/323 227/1/324 188/1/325 189/1/326
f 111/1/327 118/1/157 117/1/328 112/1/329
f 143/1/330 138/1/331 129/1/155 128/1/332
f 731/1/169 732/1/333 725/1/334 726/1/236
f 306/1/335 314/1/336 313/1/337 312/1/338
f 604/1/339 622/1/340 599/1/341 598/1/342
f 124/1/318 134/1/16 133/1/19
f 397/1/343 420/1/344 419/1/319 410/1/345
f 18/1/72 26/1/168 23/1/346 17/1/42
f 266/1/347 267/1/194 167/1/193 258/1/348
f 187/1/349 189/1/326 170/1/350 181/1/351
f 53/1/352 39/1/353 33/1/354 46/1/355
f 208/1/356 216/1/285 201/1/290 199/1/262
f 325/1/357 326/1/358 266/1/347 318/1/359
f 160/1/360 161/1/361 139/1/302 152/1/301
f 739/1/171 745/1/362 743/1/1 737/1/172
f 62/1/206 80/1/11 72/1/10 50/1/288
f 610/1/363 609/1/364 602/1/365 606/1/366
f 559/1/367 563/1/368 544/1/369 556/1/370
f 296/1/371 297/1/372 234/1/373 291/1/374
f 228/1/375 291/1/374 234/1/373 227/1/324
f 179/1/376 198/1/377 197/1/261 192/1/264
f 450/1/378 468/1/250 463/1/249 457/1/379
f 201/1/290 200/1/380 193/1/263 199/1/262
f 525/1/381 526/1/382 317/1/383 519/1/384
f 317/1/383 318/1/359 257/1/385 310/1/386
f 284/1/387 285/1/388 233/1/389 279/1/305
f 222/1/289 226/1/390 223/1/391 209/1/392
f 201/1/290 222/1/289 209/1/392 200/1/380
f 56/1/175 64/1/189 57/1/188 8/1/21
f 179/1/376 192/1/264 171/1/393 173/1/394
f 290/1/395 497/1/396 296/1/371 291/1/374
f 296/1/371 505/1/397 302/1/398 297/1/372
f 188/1/325 235/1/399 162/1/400 169/1/401
f 242/1/402 243/1/403 162/1/400 235/1/399
f 447/1/404 455/1/130 454/1/405 449/1/406
f 209/1/392 223/1/391 187/1/349 210/1/407
f 496/1/408 504/1/273 503/1/272 497/1/396
f 193/1/263 200/1/380 186/1/409 185/1/410
f 375/1/411 382/1/192 381/1/28 376/1/412
f 278/1/304 486/1/242 284/1/387 279/1/305
f 127/1/413 120/1/414 117/1/328 126/1/415
f 257/1/385 258/1/348 160/1/360 249/1/416
f 234/1/373 297/1/372 242/1/402 235/1/399
f 165/1/417 172/1/418 157/1/178 158/1/177
f 509/1/270 517/1/419 516/1/420 511/1/271
f 516/1/420 522/1/421 510/1/422 511/1/271
f 348/1/423 441/1/424 356/1/425 349/1/426
f 171/1/393 185/1/410 178/1/427 172/1/418
f 186/1/409 182/1/428 178/1/427 185/1/410
f 128/1/332 129/1/155 119/1/154 123/1/268
f 627/1/429 628/1/430 565/1/431 621/1/432
f 210/1/407 187/1/349 181/1/351 180/1/433
f 288/1/434 338/1/435 282/1/436 283/1/437
f 515/1/69 564/1/198 521/1/438 517/1/419
f 594/1/439 617/1/277 611/1/276 607/1/440
f 166/1/441 182/1/428 180/1/433 174/1/442
f 540/1/219 547/1/221 528/1/113 534/1/112
f 163/1/443 181/1/351 170/1/350 164/1/444
f 151/1/445 164/1/444 170/1/350 169/1/401
f 248/1/446 249/1/416 153/1/447 243/1/403
f 553/1/197 572/1/220 570/1/448 564/1/198
f 221/1/284 241/1/126 240/1/125 232/1/449
f 110/1/64 116/1/269 111/1/327 109/1/65
f 157/1/178 175/1/450 150/1/451 149/1/179
f 163/1/443 164/1/444 144/1/452 156/1/453
f 144/1/452 164/1/444 151/1/445 145/1/454
f 411/1/455 429/1/116 421/1/115 412/1/456
f 800/1/457 807/1/458 806/1/459 802/1/460
f 220/1/461 247/1/462 217/1/283 215/1/463
f 141/1/18 149/1/179 150/1/451 143/1/330
f 724/1/464 717/1/465 716/1/213 723/1/466
f 533/1/232 585/1/467 584/1/468 579/1/233
f 584/1/468 592/1/469 578/1/470 579/1/233
f 105/1/471 112/1/329 113/1/472 106/1/473
f 711/1/474 705/1/475 704/1/476 710/1/214
f 50/1/288 51/1/286 43/1/311 13/1/310
f 214/1/477 215/1/463 207/1/478 206/1/479
f 166/1/441 174/1/442 155/1/480 159/1/481
f 282/1/436 345/1/482 276/1/280 275/1/279
f 21/1/483 30/1/484 28/1/485 29/1/486
f 539/1/487 588/1/488 589/1/489 585/1/467
f 589/1/489 600/1/490 584/1/468 585/1/467
f 539/1/487 532/1/234 460/1/129 538/1/128
f 460/1/129 532/1/234 467/1/111 461/1/491
f 51/1/286 78/1/40 44/1/492 43/1/311
f 207/1/478 215/1/463 208/1/356
f 171/1/393 192/1/264 193/1/263 185/1/410
f 467/1/111 527/1/114 462/1/493 461/1/491
f 212/1/494 295/1/495 218/1/108 213/1/107
f 373/1/75 368/1/78 353/1/209 366/1/208
f 214/1/477 220/1/461 215/1/463
f 359/1/158 360/1/84 269/1/83 351/1/496
f 52/1/199 59/1/202 42/1/256 45/1/497
f 644/1/180 643/1/183 638/1/14 642/1/13
f 367/1/77 374/1/76 375/1/411 369/1/498
f 19/1/73 225/1/499 34/1/106
f 521/1/438 571/1/500 529/1/501 523/1/502
f 356/1/425 449/1/406 363/1/503 357/1/504
f 135/1/505 156/1/453 144/1/452 136/1/506
f 144/1/452 145/1/454 137/1/507 136/1/506
f 48/1/282 83/1/508 82/1/252 75/1/222
f 370/1/509 371/1/510 304/1/511 362/1/512
f 329/1/81 335/1/80 336/1/513 331/1/514
f 479/1/515 488/1/516 471/1/32 470/1/517
f 395/1/518 492/1/519 479/1/515 444/1/320
f 151/1/445 154/1/520 146/1/300 145/1/454
f 797/1/521 798/1/522 791/1/523 792/1/524
f 15/1/226 16/1/525 10/1/23 14/1/36
f 54/1/526 237/1/527 238/1/528
f 54/1/526 239/1/529 237/1/527
f 528/1/113 547/1/221 514/1/134 520/1/530
f 280/1/531 340/1/532 286/1/533 281/1/534
f 146/1/300 154/1/520 153/1/447 152/1/301
f 151/1/445 169/1/401 162/1/400 154/1/520
f 501/1/26 504/1/273 496/1/408 495/1/27
f 775/1/535 769/1/536 767/1/163 774/1/162
f 239/1/529 245/1/537 237/1/527
f 625/1/538 664/1/539 615/1/540 619/1/275
f 530/1/541 531/1/542 325/1/357 526/1/382
f 242/1/402 303/1/543 248/1/446 243/1/403
f 248/1/446 310/1/386 257/1/385 249/1/416
f 515/1/69 517/1/419 509/1/270 508/1/70
f 220/1/461 253/1/137 247/1/462
f 220/1/461 254/1/138 253/1/137
f 220/1/461 255/1/544 254/1/138
f 17/1/42 23/1/346 3/1/545 2/1/7
f 302/1/398 512/1/546 309/1/547 303/1/543
f 309/1/547 310/1/386 248/1/446 303/1/543
f 655/1/548 663/1/549 660/1/550 656/1/551
f 475/1/48 483/1/47 474/1/243 468/1/250
f 776/1/552 778/1/553 772/1/101 771/1/100
f 237/1/527 245/1/537 261/1/86
f 752/1/141 753/1/140 760/1/554 759/1/555
f 124/1/318 133/1/19 128/1/332 123/1/268
f 255/1/544 264/1/184 263/1/187
f 372/1/43 498/1/46 396/1/556 389/1/557
f 101/1/287 102/1/174 96/1/558 97/1/559
f 522/1/421 518/1/560 512/1/546 510/1/422
f 117/1/328 120/1/414 113/1/472 112/1/329
f 734/1/561 741/1/562 740/1/563 735/1/564
f 237/1/527 252/1/313 244/1/312 238/1/528
f 207/1/478 208/1/356 199/1/262 197/1/261
f 48/1/282 49/1/105 6/1/104 41/1/204
f 224/1/565 283/1/437 230/1/566 225/1/499
f 524/1/567 535/1/568 518/1/560 522/1/421
f 13/1/310 14/1/36 9/1/22 8/1/21
f 445/1/54 470/1/517 465/1/569 459/1/55
f 88/1/8 97/1/559 96/1/558 95/1/9
f 510/1/422 512/1/546 302/1/398 505/1/397
f 341/1/570 342/1/571 336/1/513 335/1/80
f 529/1/501 542/1/572 524/1/567 523/1/502
f 265/1/573 272/1/124 246/1/123 256/1/136
f 590/1/574 596/1/575 595/1/576 591/1/577
f 503/1/272 505/1/397 296/1/371 497/1/396
f 290/1/395 291/1/374 228/1/375 285/1/388
f 411/1/455 412/1/456 403/1/578 410/1/345
f 570/1/448 586/1/579 576/1/580 571/1/500
f 576/1/580 577/1/581 529/1/501 571/1/500
f 96/1/558 104/1/582 77/1/159 95/1/9
f 490/1/241 491/1/583 284/1/387 486/1/242
f 194/1/323 229/1/584 228/1/375 227/1/324
f 518/1/560 519/1/384 309/1/547 512/1/546
f 590/1/574 591/1/577 576/1/580 586/1/579
f 125/1/156 147/1/585 135/1/505 126/1/415
f 696/1/307 697/1/586 691/1/587 690/1/308
f 589/1/489 607/1/440 605/1/588 600/1/490
f 131/1/589 140/1/303 139/1/302 132/1/590
f 230/1/566 283/1/437 282/1/436 275/1/279
f 590/1/574 592/1/469 597/1/591 596/1/575
f 493/1/45 494/1/133 489/1/132 487/1/592
f 341/1/570 434/1/593 348/1/423 342/1/571
f 453/1/127 455/1/130 447/1/404 448/1/594
f 234/1/373 235/1/399 188/1/325 227/1/324
f 153/1/447 249/1/416 160/1/360 152/1/301
f 690/1/308 691/1/587 685/1/595 684/1/596
f 204/1/597 301/1/598 212/1/494 205/1/599
f 584/1/468 600/1/490 597/1/591 592/1/469
f 190/1/600 191/1/601 65/1/95 184/1/602
f 734/1/561 735/1/564 728/1/603 729/1/604
f 546/1/605 626/1/90 594/1/439 588/1/488
f 302/1/398 303/1/543 242/1/402 297/1/372
f 170/1/350 189/1/326 188/1/325 169/1/401
f 121/1/606 114/1/38 113/1/472 120/1/414
f 611/1/276 612/1/607 605/1/588 607/1/440
f 594/1/439 626/1/90 624/1/89 617/1/277
f 632/1/87 626/1/90 546/1/605 631/1/608
f 657/1/52 662/1/609 650/1/610 652/1/53
f 309/1/547 519/1/384 317/1/383 310/1/386
f 137/1/507 140/1/303 131/1/589 130/1/611
f 624/1/89 656/1/551 618/1/274 617/1/277
f 155/1/480 174/1/442 163/1/443 156/1/453
f 446/1/298 645/1/297 632/1/87 631/1/608
f 800/1/457 802/1/460 796/1/147 794/1/146
f 294/1/612 331/1/514 288/1/434 289/1/613
f 127/1/413 130/1/611 121/1/606 120/1/414
f 518/1/560 535/1/568 525/1/381 519/1/384
f 438/1/296 652/1/53 650/1/610 645/1/297
f 524/1/567 522/1/421 516/1/420 523/1/502
f 493/1/45 513/1/44 499/1/614 494/1/133
f 240/1/125 279/1/305 233/1/389 232/1/449
f 655/1/548 656/1/551 624/1/89 651/1/88
f 650/1/610 662/1/609 655/1/548 651/1/88
f 541/1/615 543/1/616 525/1/381 535/1/568
f 594/1/439 607/1/440 589/1/489 588/1/488
f 432/1/316 439/1/299 440/1/617 434/1/593
f 121/1/606 130/1/611 131/1/589 122/1/618
f 370/1/509 404/1/619 405/1/620 399/1/621
f 319/1/622 337/1/623 313/1/337 314/1/336
f 548/1/624 567/1/625 541/1/615 542/1/572
f 770/1/626 777/1/627 776/1/552 771/1/100
f 629/1/628 648/1/629 620/1/630 622/1/340
f 212/1/494 301/1/598 300/1/631 295/1/495
f 292/1/632 355/1/633 298/1/634 293/1/635
f 260/1/85 369/1/498 250/1/314 252/1/313
f 657/1/52 666/1/67 665/1/636 662/1/609
f 209/1/392 210/1/407 186/1/409 200/1/380
f 583/1/637 587/1/638 548/1/624 577/1/581
f 77/1/159 106/1/473 76/1/37 71/1/160
f 38/1/217 46/1/355 33/1/354 31/1/218
f 492/1/519 396/1/556 488/1/516 479/1/515
f 332/1/639 537/1/640 339/1/641 333/1/642
f 664/1/539 623/1/643 616/1/644 615/1/540
f 276/1/280 352/1/210 353/1/209
f 276/1/280 353/1/209 351/1/496
f 707/1/93 709/1/645 703/1/646 702/1/94
f 595/1/576 598/1/342 583/1/637 591/1/577
f 423/1/647 667/1/51 431/1/50 425/1/648
f 386/1/649 492/1/519 395/1/518 387/1/230
f 555/1/650 562/1/651 561/1/652 560/1/653
f 8/1/21 57/1/188 50/1/288 13/1/310
f 138/1/331 147/1/585 125/1/156 129/1/155
f 351/1/496 353/1/209 359/1/158
f 602/1/365 603/1/654 595/1/576 596/1/575
f 597/1/591 606/1/366 602/1/365 596/1/575
f 527/1/114 528/1/113 520/1/530 499/1/614
f 221/1/284 232/1/449 226/1/390 222/1/289
f 462/1/493 513/1/44 372/1/43 456/1/655
f 322/1/656 409/1/657 327/1/658 321/1/659
f 224/1/565 289/1/613 288/1/434 283/1/437
f 359/1/158 353/1/209 368/1/78
f 605/1/588 612/1/607 610/1/363 606/1/366
f 226/1/390 232/1/449 233/1/389 229/1/584
f 454/1/405 456/1/655 363/1/503 449/1/406
f 373/1/75 380/1/660 379/1/229 374/1/76
f 84/1/39 122/1/618 91/1/661 85/1/662
f 477/1/49 475/1/48 469/1/321 476/1/103
f 463/1/249 478/1/248 265/1/573 464/1/215
f 230/1/566 275/1/279 236/1/278 231/1/663
f 247/1/462 253/1/137 256/1/136 246/1/123
f 615/1/540 616/1/644 610/1/363 612/1/607
f 496/1/408 497/1/396 290/1/395 491/1/583
f 245/1/537 268/1/281 269/1/83 261/1/86
f 84/1/39 85/1/662 44/1/492 78/1/40
f 113/1/472 114/1/38 76/1/37 106/1/473
f 315/1/664 316/1/665 308/1/666 312/1/338
f 308/1/666 316/1/665 300/1/631 301/1/598
f 521/1/438 523/1/502 516/1/420 517/1/419
f 633/1/667 659/1/668 654/1/669 658/1/670
f 683/1/671 684/1/596 677/1/119 682/1/672
f 218/1/108 289/1/613 224/1/565 219/1/109
f 12/1/265 16/1/525 21/1/483 20/1/295
f 446/1/298 448/1/594 440/1/617 439/1/299
f 384/1/673 392/1/674 393/1/675
f 384/1/673 393/1/675 385/1/676
f 385/1/676 393/1/675 344/1/677
f 344/1/677 393/1/675 394/1/678
f 348/1/423 349/1/426 343/1/679 342/1/571
f 395/1/518 420/1/344 388/1/191 387/1/230
f 570/1/448 571/1/500 521/1/438 564/1/198
f 363/1/503 364/1/680 358/1/207 357/1/504
f 599/1/341 613/1/681 566/1/682 587/1/638
f 728/1/603 730/1/683 724/1/464 723/1/466
f 631/1/608 453/1/127 448/1/594 446/1/298
f 392/1/674 400/1/684 393/1/675
f 394/1/678 393/1/675 401/1/685
f 623/1/643 640/1/259 614/1/258 616/1/644
f 555/1/650 556/1/370 536/1/686 550/1/687
f 610/1/363 616/1/644 614/1/258 609/1/364
f 654/1/669 659/1/668 647/1/182 649/1/181
f 400/1/684 406/1/688 393/1/675
f 401/1/685 393/1/675 407/1/689
f 1/1/5 6/1/104 7/1/20 5/1/6
f 211/1/690 307/1/691 204/1/597 203/1/692
f 284/1/387 491/1/583 290/1/395 285/1/388
f 602/1/365 609/1/364 608/1/693 603/1/654
f 662/1/609 665/1/636 663/1/549 655/1/548
f 707/1/93 714/1/694 715/1/695 709/1/645
f 406/1/688 414/1/696 393/1/675
f 407/1/689 393/1/675 415/1/697
f 618/1/274 661/1/698 625/1/538 619/1/275
f 431/1/50 652/1/53 438/1/296 433/1/317
f 529/1/501 577/1/581 548/1/624 542/1/572
f 581/1/293 582/1/699 413/1/700 575/1/294
f 503/1/272 511/1/271 510/1/422 505/1/397
f 233/1/389 285/1/388 228/1/375 229/1/584
f 23/1/346 26/1/168 32/1/167 31/1/218
f 415/1/697 393/1/675 422/1/701
f 365/1/702 366/1/208 358/1/207 364/1/680
f 306/1/335 312/1/338 308/1/666 307/1/691
f 416/1/703 425/1/648 424/1/704 418/1/705
f 431/1/50 433/1/317 424/1/704 425/1/648
f 692/1/246 694/1/706 688/1/707 687/1/247
f 423/1/647 417/1/708 415/1/697 422/1/701
f 422/1/701 393/1/675 430/1/66
f 671/1/709 680/1/710 679/1/150 672/1/153
f 423/1/647 425/1/648 416/1/703 417/1/708
f 424/1/704 426/1/711 334/1/79 418/1/705
f 334/1/79 426/1/711 341/1/570 335/1/80
f 428/1/118 427/1/117 435/1/145
f 343/1/679 345/1/482 282/1/436 338/1/435
f 595/1/576 603/1/654 604/1/339 598/1/342
f 627/1/429 659/1/668 633/1/667 628/1/430
f 327/1/658 418/1/705 334/1/79 328/1/82
f 580/1/712 636/1/713 568/1/714 573/1/715
f 539/1/487 585/1/467 533/1/232 532/1/234
f 760/1/554 766/1/716 764/1/99 759/1/555
f 435/1/145 442/1/144 443/1/717
f 722/1/718 729/1/604 728/1/603 723/1/466
f 465/1/569 472/1/35 466/1/322 458/1/719
f 327/1/658 328/1/82 320/1/720 321/1/659
f 320/1/720 328/1/82 329/1/81 324/1/721
f 329/1/81 331/1/514 294/1/612 324/1/721
f 671/1/709 672/1/153 669/1/722 668/1/723
f 277/1/724 457/1/379 270/1/186 271/1/185
f 230/1/566 231/1/663 34/1/106 225/1/499
f 443/1/717 442/1/144 451/1/725
f 452/1/143 451/1/725 442/1/144
f 320/1/720 324/1/721 300/1/631 316/1/665
f 604/1/339 630/1/726 629/1/628 622/1/340
f 530/1/541 550/1/687 536/1/686 531/1/542
f 178/1/427 175/1/450 157/1/178 172/1/418
f 452/1/143 458/1/719 451/1/725
f 808/1/727 805/1/728 803/1/729 807/1/458
f 397/1/343 398/1/730 390/1/30 391/1/29
f 315/1/664 321/1/659 320/1/720 316/1/665
f 728/1/603 735/1/564 736/1/731 730/1/683
f 783/1/732 778/1/553 776/1/552 782/1/733
f 450/1/378 457/1/379 277/1/724 443/1/717
f 33/1/354 39/1/353 4/1/203 3/1/545
f 217/1/283 216/1/285 208/1/356 215/1/463
f 83/1/508 40/1/734 61/1/735 68/1/736
f 458/1/719 459/1/55 465/1/569
f 379/1/229 382/1/192 375/1/411 374/1/76
f 458/1/719 466/1/322 451/1/725
f 675/1/737 676/1/122 669/1/722 674/1/738
f 561/1/652 621/1/432 565/1/431 560/1/653
f 436/1/56 459/1/55 458/1/719 452/1/143
f 466/1/322 469/1/321 451/1/725
f 25/1/165 26/1/168 18/1/72 24/1/74
f 15/1/226 30/1/484 21/1/483 16/1/525
f 466/1/322 472/1/35 473/1/34
f 788/1/149 790/1/148 783/1/732 782/1/733
f 150/1/451 175/1/450 166/1/441 159/1/481
f 363/1/503 456/1/655 372/1/43 364/1/680
f 679/1/150 687/1/247 688/1/707 681/1/151
f 770/1/626 771/1/100 764/1/99 766/1/716
f 546/1/605 588/1/488 539/1/487 538/1/128
f 218/1/108 295/1/495 294/1/612 289/1/613
f 440/1/617 448/1/594 447/1/404 441/1/424
f 473/1/34 481/1/131 476/1/103
f 473/1/34 480/1/33 481/1/131
f 32/1/167 55/1/166 54/1/526 47/1/216
f 719/1/739 721/1/740 715/1/695 714/1/694
f 64/1/189 56/1/175 70/1/223 69/1/205
f 722/1/718 723/1/466 716/1/213 718/1/212
f 480/1/33 487/1/592 481/1/131
f 396/1/556 498/1/46 487/1/592 488/1/516
f 187/1/349 223/1/391 194/1/323 189/1/326
f 462/1/493 527/1/114 499/1/614 513/1/44
f 481/1/131 487/1/592 489/1/132
f 430/1/66 667/1/51 423/1/647 422/1/701
f 506/1/71 508/1/70 501/1/26 502/1/25
f 782/1/733 784/1/741 789/1/742 788/1/149
f 165/1/417 173/1/394 171/1/393 172/1/418
f 485/1/60 507/1/59 506/1/71 502/1/25
f 558/1/743 413/1/700 404/1/619 361/1/744
f 42/1/256 58/1/98 36/1/97 37/1/225
f 236/1/278 268/1/281 245/1/537 239/1/529
f 498/1/46 493/1/45 487/1/592
f 553/1/197 554/1/68 514/1/134 547/1/221
f 464/1/215 265/1/573 256/1/136 262/1/135
f 183/1/745 184/1/602 60/1/257 177/1/746
f 91/1/661 92/1/200 52/1/199 85/1/662
f 740/1/563 742/1/747 736/1/731 735/1/564
f 91/1/661 132/1/590 100/1/748 92/1/200
f 139/1/302 161/1/361 100/1/748 132/1/590
f 44/1/492 85/1/662 52/1/199 45/1/497
f 237/1/527 261/1/86 260/1/85 252/1/313
f 67/1/201 177/1/746 60/1/257 59/1/202
f 367/1/77 369/1/498 260/1/85 360/1/84
f 160/1/360 258/1/348 167/1/193 161/1/361
f 167/1/193 168/1/196 100/1/748 161/1/361
f 381/1/28 383/1/31 259/1/749 376/1/412
f 795/1/750 801/1/751 800/1/457 794/1/146
f 375/1/411 376/1/412 250/1/314 369/1/498
f 501/1/26 508/1/70 509/1/270 504/1/273
f 346/1/752 552/1/753 354/1/754 347/1/755
f 578/1/470 586/1/579 570/1/448 572/1/220
f 675/1/737 682/1/672 677/1/119 676/1/122
f 257/1/385 318/1/359 266/1/347 258/1/348
f 137/1/507 145/1/454 146/1/300 140/1/303
f 614/1/258 637/1/15 608/1/693 609/1/364
f 176/1/195 274/1/756 183/1/745 177/1/746
f 397/1/343 410/1/345 403/1/578 398/1/730
f 273/1/757 274/1/756 176/1/195 267/1/194
f 317/1/383 526/1/382 325/1/357 318/1/359
f 28/1/485 74/1/758 35/1/759 29/1/486
f 419/1/319 437/1/57 411/1/455 410/1/345
f 578/1/470 592/1/469 590/1/574 586/1/579
f 180/1/433 181/1/351 163/1/443 174/1/442
f 280/1/531 281/1/534 183/1/745 274/1/756
f 176/1/195 177/1/746 67/1/201 168/1/196
f 525/1/381 543/1/616 530/1/541 526/1/382
f 325/1/357 531/1/542 332/1/639 326/1/358
f 119/1/154 118/1/157 111/1/327 116/1/269
f 549/1/760 550/1/687 530/1/541 543/1/616
f 488/1/516 487/1/592 480/1/33 471/1/32
f 202/1/761 203/1/692 81/1/762 196/1/763
f 204/1/597 205/1/599 81/1/762 203/1/692
f 73/1/764 74/1/758 28/1/485 66/1/96
f 669/1/722 676/1/122 670/1/121 668/1/723
f 332/1/639 333/1/642 273/1/757 326/1/358
f 127/1/413 136/1/506 137/1/507 130/1/611
f 548/1/624 587/1/638 566/1/682 567/1/625
f 549/1/760 567/1/625 566/1/682 562/1/651
f 204/1/597 307/1/691 308/1/666 301/1/598
f 377/1/765 392/1/674 384/1/673 378/1/766
f 339/1/641 340/1/532 280/1/531 333/1/642
f 524/1/567 542/1/572 541/1/615 535/1/568
f 395/1/518 444/1/320 419/1/319 420/1/344
f 536/1/686 537/1/640 332/1/639 531/1/542
f 559/1/367 573/1/715 568/1/714 563/1/368
f 411/1/455 437/1/57 436/1/56 429/1/116
f 540/1/219 579/1/233 578/1/470 572/1/220
f 81/1/762 205/1/599 35/1/759 74/1/758
f 111/1/327 112/1/329 105/1/471 109/1/65
f 549/1/760 562/1/651 555/1/650 550/1/687
f 686/1/244 687/1/247 679/1/150 680/1/710
f 650/1/610 651/1/88 632/1/87 645/1/297
f 647/1/182 659/1/668 627/1/429 648/1/629
f 608/1/693 630/1/726 604/1/339 603/1/654
f 566/1/682 613/1/681 561/1/652 562/1/651
f 599/1/341 622/1/340 620/1/630 613/1/681
f 555/1/650 560/1/653 559/1/367 556/1/370
f 460/1/129 461/1/491 454/1/405 455/1/130
f 565/1/431 573/1/715 559/1/367 560/1/653
f 447/1/404 449/1/406 356/1/425 441/1/424
f 536/1/686 556/1/370 544/1/369 537/1/640
f 557/1/767 575/1/294 413/1/700 558/1/743
f 620/1/630 621/1/432 561/1/652 613/1/681
f 35/1/759 213/1/107 27/1/110 29/1/486
f 372/1/43 389/1/557 365/1/702 364/1/680
f 183/1/745 281/1/534 190/1/600 184/1/602
f 135/1/505 136/1/506 127/1/413 126/1/415
f 178/1/427 182/1/428 166/1/441 175/1/450
f 121/1/606 122/1/618 84/1/39 114/1/38
f 436/1/56 452/1/143 427/1/117 429/1/116
f 190/1/600 287/1/768 195/1/769 191/1/601
f 195/1/769 196/1/763 73/1/764 191/1/601
f 424/1/704 433/1/317 432/1/316 426/1/711
f 648/1/629 627/1/429 621/1/432 620/1/630
f 638/1/14 643/1/183 629/1/628 630/1/726
f 608/1/693 637/1/15 638/1/14 630/1/726
f 386/1/649 387/1/230 379/1/229 380/1/660
f 713/1/770 714/1/694 707/1/93 708/1/92
f 346/1/752 347/1/755 286/1/533 340/1/532
f 226/1/390 229/1/584 194/1/323 223/1/391
f 202/1/761 299/1/771 211/1/690 203/1/692
f 131/1/589 132/1/590 91/1/661 122/1/618
f 350/1/772 345/1/482 343/1/679 349/1/426
f 292/1/632 293/1/635 195/1/769 287/1/768
f 474/1/243 486/1/242 278/1/304 478/1/248
f 414/1/696 593/1/773 393/1/675
f 306/1/335 307/1/691 211/1/690 305/1/774
f 445/1/54 444/1/320 479/1/515 470/1/517
f 354/1/754 355/1/633 292/1/632 347/1/755
f 105/1/471 106/1/473 77/1/159 104/1/582
f 60/1/257 184/1/602 65/1/95 58/1/98
f 298/1/634 299/1/771 202/1/761 293/1/635
f 551/1/775 552/1/753 346/1/752 545/1/776
f 544/1/369 563/1/368 551/1/775 545/1/776
f 365/1/702 380/1/660 373/1/75 366/1/208
f 593/1/773 601/1/777 393/1/675
f 356/1/425 357/1/504 350/1/772 349/1/426
f 755/1/778 762/1/779 763/1/780 756/1/781
f 557/1/767 558/1/743 354/1/754 552/1/753
f 551/1/775 569/1/782 557/1/767 552/1/753
f 298/1/634 362/1/512 304/1/511 299/1/771
f 304/1/511 305/1/774 211/1/690 299/1/771
f 21/1/483 29/1/486 27/1/110 20/1/295
f 689/1/309 690/1/308 684/1/596 683/1/671
f 361/1/744 404/1/619 370/1/509 362/1/512
f 125/1/156 126/1/415 117/1/328 118/1/157
f 311/1/783 314/1/336 306/1/335 305/1/774
f 647/1/182 648/1/629 629/1/628 643/1/183
f 413/1/700 582/1/699 405/1/620 404/1/619
f 440/1/617 441/1/424 348/1/423 434/1/593
f 377/1/765 378/1/766 311/1/783 371/1/510
f 217/1/283 247/1/462 246/1/123 241/1/126
f 311/1/783 378/1/766 319/1/622 314/1/336
f 568/1/714 569/1/782 551/1/775 563/1/368
f 65/1/95 191/1/601 73/1/764 66/1/96
f 377/1/765 399/1/621 400/1/684 392/1/674
f 405/1/620 406/1/688 400/1/684 399/1/621
f 313/1/337 337/1/623 330/1/784 323/1/785
f 776/1/552 777/1/627 784/1/741 782/1/733
f 384/1/673 385/1/676 319/1/622 378/1/766
f 453/1/127 631/1/608 546/1/605 538/1/128
f 565/1/431 628/1/430 580/1/712 573/1/715
f 10/1/23 16/1/525 12/1/265 5/1/6
f 574/1/291 575/1/294 557/1/767 569/1/782
f 636/1/713 574/1/291 569/1/782 568/1/714
f 313/1/337 323/1/785 315/1/664 312/1/338
f 370/1/509 399/1/621 377/1/765 371/1/510
f 361/1/744 362/1/512 298/1/634 355/1/633
f 633/1/667 634/1/786 580/1/712 628/1/430
f 304/1/511 371/1/510 311/1/783 305/1/774
f 354/1/754 558/1/743 361/1/744 355/1/633
f 611/1/276 619/1/275 615/1/540 612/1/607
f 660/1/550 661/1/698 618/1/274 656/1/551
f 432/1/316 434/1/593 341/1/570 426/1/711
f 286/1/533 287/1/768 190/1/600 281/1/534
f 599/1/341 587/1/638 583/1/637 598/1/342
f 640/1/259 623/1/643 393/1/675
f 673/1/152 674/1/738 669/1/722 672/1/153
f 582/1/699 414/1/696 406/1/688 405/1/620
f 640/1/259 393/1/675 641/1/12
f 641/1/12 393/1/675 642/1/13
f 642/1/13 393/1/675 644/1/180
f 581/1/293 646/1/292 601/1/777 593/1/773
f 250/1/314 376/1/412 259/1/749 251/1/315
f 635/1/787 646/1/292 574/1/291 636/1/713
f 635/1/787 653/1/788 601/1/777 646/1/292
f 635/1/787 636/1/713 580/1/712 634/1/786
f 644/1/180 393/1/675 649/1/181
f 388/1/191 420/1/344 397/1/343 391/1/29
f 315/1/664 323/1/785 322/1/656 321/1/659
f 653/1/788 639/1/789 393/1/675
f 601/1/777 653/1/788 393/1/675
f 649/1/181 393/1/675 654/1/669
f 639/1/789 653/1/788 635/1/787 634/1/786
f 396/1/556 492/1/519 386/1/649 389/1/557
f 605/1/588 606/1/366 597/1/591 600/1/490
f 408/1/790 409/1/657 322/1/656 402/1/791
f 408/1/790 417/1/708 416/1/703 409/1/657
f 639/1/789 658/1/670 393/1/675
f 658/1/670 654/1/669 393/1/675
f 633/1/667 658/1/670 639/1/789 634/1/786
f 319/1/622 385/1/676 344/1/677 337/1/623
f 344/1/677 394/1/678 330/1/784 337/1/623
f 660/1/550 393/1/675 661/1/698
f 661/1/698 393/1/675 625/1/538
f 660/1/550 663/1/549 393/1/675
f 625/1/538 393/1/675 664/1/539
f 393/1/675 623/1/643 664/1/539
f 401/1/685 402/1/791 330/1/784 394/1/678
f 393/1/675 663/1/549 665/1/636
f 401/1/685 407/1/689 408/1/790 402/1/791
f 393/1/675 665/1/636 666/1/67
f 393/1/675 666/1/67 430/1/66
f 415/1/697 417/1/708 408/1/790 407/1/689
f 186/1/409 210/1/407 180/1/433 182/1/428
f 685/1/595 678/1/120 677/1/119 684/1/596
f 800/1/457 801/1/751 808/1/727 807/1/458
f 544/1/369 545/1/776 339/1/641 537/1/640
f 212/1/494 213/1/107 35/1/759 205/1/599
f 300/1/631 324/1/721 294/1/612 295/1/495
f 761/1/792 768/1/164 767/1/163 762/1/779
f 36/1/97 66/1/96 28/1/485 30/1/484
f 138/1/331 159/1/481 155/1/480 147/1/585
f 266/1/347 326/1/358 273/1/757 267/1/194
f 350/1/772 357/1/504 358/1/207 352/1/210
f 276/1/280 351/1/496 269/1/83 268/1/281
f 195/1/769 293/1/635 202/1/761 196/1/763
f 416/1/703 418/1/705 327/1/658 409/1/657
f 482/1/24 495/1/27 490/1/241 483/1/47
f 500/1/58 520/1/530 514/1/134 507/1/59
f 462/1/493 456/1/655 454/1/405 461/1/491
f 541/1/615 567/1/625 549/1/760 543/1/616
f 133/1/19 141/1/18 143/1/330 128/1/332
f 704/1/476 706/1/793 712/1/211 710/1/214
f 695/1/306 701/1/91 696/1/307
f 696/1/307 701/1/91 702/1/94
f 696/1/307 702/1/94 703/1/646
f 696/1/307 703/1/646 697/1/586
f 103/1/62 104/1/582 96/1/558 102/1/174
f 699/1/794 704/1/476 698/1/795
f 698/1/795 704/1/476 705/1/475
f 15/1/226 37/1/225 36/1/97 30/1/484
f 490/1/241 495/1/27 496/1/408 491/1/583
f 255/1/544 263/1/187 262/1/135 254/1/138
f 785/1/796 792/1/524 791/1/523 786/1/240
f 365/1/702 389/1/557 386/1/649 380/1/660
f 31/1/218 33/1/354 3/1/545 23/1/346
f 50/1/288 72/1/10 71/1/160 51/1/286
f 692/1/246 693/1/245 700/1/797 699/1/794
f 148/1/176 149/1/179 141/1/18 142/1/17
f 40/1/734 83/1/508 48/1/282 41/1/204
f 469/1/321 475/1/48 468/1/250 450/1/378
f 471/1/32 472/1/35 465/1/569 470/1/517
f 719/1/739 725/1/334 721/1/740
f 719/1/739 726/1/236 725/1/334
f 719/1/739 727/1/235 726/1/236
f 719/1/739 720/1/798 727/1/235
f 100/1/748 168/1/196 67/1/201 92/1/200
f 265/1/573 478/1/248 278/1/304 272/1/124
f 236/1/278 239/1/529 54/1/526 231/1/663
f 743/1/1 745/1/362 751/1/799 750/1/2
f 350/1/772 352/1/210 276/1/280 345/1/482
f 73/1/764 196/1/763 81/1/762 74/1/758
f 451/1/725 469/1/321 450/1/378 443/1/717
f 791/1/523 793/1/800 787/1/237 786/1/240
f 150/1/451 159/1/481 138/1/331 143/1/330
f 224/1/565 225/1/499 19/1/73 219/1/109
f 785/1/796 786/1/240 779/1/239 780/1/801
f 68/1/736 98/1/266 82/1/252 83/1/508
f 748/1/802 742/1/747 740/1/563 747/1/142
f 463/1/249 464/1/215 270/1/186 457/1/379
f 779/1/239 781/1/238 775/1/535 774/1/162
f 773/1/161 780/1/801 779/1/239 774/1/162
f 3/1/545 4/1/203 1/1/5 2/1/7
f 747/1/142 752/1/141 748/1/802
f 748/1/802 752/1/141 754/1/803
f 103/1/62 109/1/65 105/1/471 104/1/582
f 20/1/295 19/1/73 11/1/41 12/1/265
f 700/1/797 706/1/793 704/1/476 699/1/794
f 713/1/770 720/1/798 719/1/739 714/1/694
f 53/1/352 61/1/735 40/1/734 39/1/353
f 767/1/163 769/1/536 763/1/780 762/1/779
f 759/1/555 764/1/99 758/1/804
f 11/1/41 19/1/73 18/1/72 17/1/42
f 758/1/804 764/1/99 765/1/102
f 499/1/614 520/1/530 500/1/58 494/1/133
f 761/1/792 762/1/779 755/1/778 757/1/805
f 576/1/580 591/1/577 583/1/637 577/1/581
f 746/1/139 747/1/142 740/1/563 741/1/562
f 751/1/799 757/1/805 755/1/778 750/1/2
f 755/1/778 756/1/781 749/1/3 750/1/2
f 155/1/480 156/1/453 135/1/505 147/1/585
f 339/1/641 545/1/776 346/1/752 340/1/532
f 803/1/729 804/1/806 806/1/459 807/1/458
f 791/1/523 798/1/522 799/1/807 793/1/800
f 330/1/784 402/1/791 322/1/656 323/1/785
f 273/1/757 333/1/642 280/1/531 274/1/756
f 789/1/742 795/1/750 794/1/146 788/1/149
f 743/1/1 744/1/4 738/1/808 737/1/172
f 44/1/492 45/1/497 22/1/224 43/1/311
f 22/1/224 45/1/497 42/1/256 37/1/225
f 738/1/808 732/1/333 731/1/169 737/1/172
f 34/1/106 231/1/663 54/1/526 55/1/166
f 206/1/479 207/1/478 197/1/261 198/1/377
f 716/1/213 717/1/465 711/1/474 710/1/214
f 82/1/252 90/1/251 70/1/223 75/1/222
f 752/1/141 759/1/555 758/1/804 754/1/803
f 336/1/513 338/1/435 288/1/434 331/1/514
f 286/1/533 347/1/755 292/1/632 287/1/768
f 798/1/522 803/1/729 799/1/807
f 797/1/521 803/1/729 798/1/522
f 797/1/521 804/1/806 803/1/729
f 799/1/807 803/1/729 805/1/728
f 336/1/513 342/1/571 343/1/679 338/1/435
f 692/1/246 699/1/794 698/1/795 694/1/706
f 581/1/293 593/1/773 414/1/696 582/1/699
f 40/1/734 41/1/204 4/1/203 39/1/353
f 162/1/400 243/1/403 153/1/447 154/1/520
