# Blender 4.3.2
# www.blender.org
o hair.058
v 7.442490 0.040616 -0.011271
v 7.444589 0.044853 -0.013274
v 7.446350 0.044307 -0.008254
v 7.440639 0.042335 -0.015854
v 7.438879 0.038279 -0.013207
v 7.448208 0.048368 -0.009840
v 7.450228 0.049267 -0.004380
v 7.435916 0.040503 -0.017728
v 7.434873 0.036964 -0.014444
v 7.436511 0.044001 -0.020634
v 7.441465 0.046061 -0.018373
v 7.451159 0.052949 -0.005591
v 7.451727 0.055100 0.000176
v 7.449183 0.052364 -0.011541
v 7.451724 0.056621 -0.007131
v 7.430356 0.036183 -0.015236
v 7.430878 0.039646 -0.018529
v 7.430887 0.043092 -0.021588
v 7.441494 0.049675 -0.020830
v 7.446116 0.052572 -0.017639
v 7.445763 0.048763 -0.015437
v 7.452562 0.058534 -0.000937
v 7.452863 0.060932 0.004733
v 7.425159 0.035856 -0.015394
v 7.425159 0.039339 -0.018780
v 7.425159 0.042842 -0.021844
v 7.430823 0.046657 -0.024172
v 7.445578 0.056179 -0.019967
v 7.449354 0.056230 -0.013477
v 7.452850 0.061941 -0.002275
v 7.453019 0.063643 0.003451
v 7.419441 0.039646 -0.018529
v 7.419963 0.036183 -0.015236
v 7.436401 0.047554 -0.023216
v 7.453098 0.066786 0.002163
v 7.452728 0.067727 0.007641
v 7.451623 0.060258 -0.009115
v 7.415446 0.036964 -0.014444
v 7.436128 0.051249 -0.025421
v 7.441090 0.053325 -0.023082
v 7.452438 0.065151 0.009300
v 7.451728 0.062214 0.012613
v 7.452041 0.058319 0.009466
v 7.414403 0.040503 -0.017728
v 7.409680 0.042335 -0.015854
v 7.411440 0.038279 -0.013207
v 7.440434 0.057176 -0.024929
v 7.451888 0.068688 0.012798
v 7.451100 0.065561 0.015336
v 7.451202 0.055732 0.014213
v 7.451219 0.060712 0.014597
v 7.413808 0.044001 -0.020634
v 7.419431 0.043092 -0.021588
v 7.407829 0.040616 -0.011271
v 7.452038 0.071067 0.011432
v 7.451366 0.073963 0.014656
v 7.451139 0.071874 0.015818
v 7.450726 0.070056 0.016818
v 7.419496 0.046657 -0.024172
v 7.425159 0.046427 -0.024430
v 7.405730 0.044853 -0.013274
v 7.402111 0.048368 -0.009840
v 7.403969 0.044307 -0.008254
v 7.452030 0.073530 0.010068
v 7.450079 0.074429 0.018430
v 7.425159 0.050084 -0.026639
v 7.430691 0.050323 -0.026377
v 7.404555 0.048763 -0.015437
v 7.408854 0.046061 -0.018373
v 7.400091 0.049267 -0.004380
v 7.452718 0.070479 0.006284
v 7.430478 0.054157 -0.028225
v 7.435686 0.055145 -0.027225
v 7.408825 0.049675 -0.020830
v 7.413918 0.047554 -0.023216
v 7.399159 0.052949 -0.005591
v 7.397756 0.058534 -0.000937
v 7.398592 0.055100 0.000176
v 7.452398 0.073279 0.004745
v 7.435090 0.059246 -0.028585
v 7.414191 0.051249 -0.025421
v 7.419628 0.050323 -0.026377
v 7.398595 0.056621 -0.007131
v 7.401135 0.052364 -0.011541
v 7.397456 0.060932 0.004733
v 7.419841 0.054157 -0.028225
v 7.409229 0.053325 -0.023082
v 7.414633 0.055145 -0.027225
v 7.409885 0.057176 -0.024929
v 7.425159 0.053886 -0.028511
v 7.400965 0.056230 -0.013477
v 7.404202 0.052572 -0.017639
v 7.404741 0.056179 -0.019967
v 7.415229 0.059246 -0.028585
v 7.405622 0.059956 -0.021898
v 7.406785 0.063855 -0.023443
v 7.410763 0.061200 -0.026362
v 7.425159 0.057896 -0.029942
v 7.430188 0.058203 -0.029635
v 7.401511 0.059836 -0.015730
v 7.402565 0.063425 -0.017779
v 7.411839 0.065387 -0.027374
v 7.420131 0.058203 -0.029635
v 7.425159 0.062174 -0.030826
v 7.429824 0.062506 -0.030524
v 7.420495 0.062506 -0.030524
v 7.439556 0.061200 -0.026362
v 7.434351 0.063559 -0.029462
v 7.438479 0.065387 -0.027374
v 7.399254 0.063978 -0.011058
v 7.425159 0.066699 -0.030991
v 7.433374 0.068032 -0.029555
v 7.429346 0.067035 -0.030638
v 7.443533 0.063855 -0.023443
v 7.444697 0.059956 -0.021898
v 7.398696 0.060258 -0.009115
v 7.415967 0.063559 -0.029462
v 7.428758 0.071720 -0.029913
v 7.447753 0.063425 -0.017779
v 7.448808 0.059836 -0.015730
v 7.397707 0.065341 -0.003950
v 7.397469 0.061941 -0.002275
v 7.416945 0.068032 -0.029555
v 7.420973 0.067035 -0.030638
v 7.451065 0.063978 -0.011058
v 7.397221 0.066786 0.002163
v 7.397300 0.063643 0.003451
v 7.421561 0.071720 -0.029913
v 7.425159 0.071429 -0.030266
v 7.449888 0.067349 -0.013226
v 7.450650 0.071528 -0.008348
v 7.451860 0.068424 -0.006111
v 7.452612 0.065341 -0.003950
v 7.397591 0.067727 0.007641
v 7.425159 0.076091 -0.028806
v 7.448387 0.070741 -0.015190
v 7.446387 0.067086 -0.019514
v 7.451990 0.072662 -0.001356
v 7.452774 0.069764 0.000563
v 7.449184 0.074634 -0.010581
v 7.444809 0.070805 -0.020990
v 7.446693 0.074146 -0.016979
v 7.447525 0.077704 -0.012700
v 7.442134 0.067854 -0.024631
v 7.449281 0.078482 -0.006044
v 7.444615 0.077502 -0.018453
v 7.442811 0.074509 -0.022003
v 7.440320 0.071881 -0.025204
v 7.437062 0.069672 -0.027669
v 7.451742 0.076229 0.008515
v 7.451052 0.079116 0.006673
v 7.451667 0.076144 0.002916
v 7.450752 0.075586 -0.003618
v 7.440369 0.078137 -0.022473
v 7.435370 0.073976 -0.027276
v 7.438143 0.075859 -0.025127
v 7.432200 0.072571 -0.028888
v 7.451074 0.078978 0.011817
v 7.450473 0.079105 0.000687
v 7.451372 0.076308 0.013378
v 7.435771 0.079658 -0.024544
v 7.433506 0.078130 -0.026309
v 7.430922 0.077007 -0.027665
v 7.428102 0.076324 -0.028515
v 7.450414 0.079018 0.016527
v 7.450377 0.076650 0.017788
v 7.431493 0.081837 -0.024652
v 7.427389 0.080481 -0.026328
v 7.429530 0.080996 -0.025688
v 7.425159 0.080303 -0.026545
v 7.422216 0.076324 -0.028515
v 7.422930 0.080481 -0.026328
v 7.448746 0.079362 0.021231
v 7.448269 0.077331 0.022537
v 7.448057 0.075739 0.022877
v 7.447740 0.074235 0.022716
v 7.428217 0.084269 -0.023377
v 7.425159 0.083762 -0.023950
v 7.426716 0.083921 -0.023822
v 7.418118 0.072571 -0.028888
v 7.419397 0.077007 -0.027665
v 7.446100 0.079383 0.025676
v 7.445575 0.077067 0.026573
v 7.445210 0.074539 0.026523
v 7.426033 0.087159 -0.020914
v 7.413257 0.069672 -0.027669
v 7.414949 0.073976 -0.027276
v 7.416813 0.078130 -0.026309
v 7.420789 0.080996 -0.025688
v 7.418826 0.081837 -0.024652
v 7.443191 0.078398 0.029063
v 7.442574 0.075276 0.029543
v 7.408185 0.067854 -0.024631
v 7.409999 0.071881 -0.025204
v 7.412176 0.075859 -0.025127
v 7.414548 0.079658 -0.024544
v 7.422101 0.084269 -0.023377
v 7.423603 0.083921 -0.023822
v 7.439902 0.076512 0.031917
v 7.403932 0.067086 -0.019514
v 7.405510 0.070805 -0.020990
v 7.407507 0.074509 -0.022003
v 7.409949 0.078137 -0.022473
v 7.424285 0.087159 -0.020914
v 7.425159 0.087074 -0.021021
v 7.440497 0.079947 0.031259
v 7.437704 0.081603 0.032961
v 7.437259 0.078300 0.033818
v 7.401932 0.070741 -0.015190
v 7.405704 0.077502 -0.018453
v 7.403625 0.074146 -0.016979
v 7.423443 0.087345 -0.020684
v 7.425159 0.091004 -0.016789
v 7.426876 0.087345 -0.020684
v 7.440812 0.083118 0.030217
v 7.434563 0.080483 0.035169
v 7.443584 0.081345 0.028214
v 7.402794 0.077704 -0.012700
v 7.420732 0.084885 -0.022666
v 7.422679 0.087694 -0.020251
v 7.427639 0.087694 -0.020251
v 7.429586 0.084885 -0.022666
v 7.443711 0.084058 0.026772
v 7.446405 0.081886 0.024371
v 7.417106 0.082989 -0.023299
v 7.419523 0.085660 -0.021686
v 7.422000 0.088121 -0.019721
v 7.430796 0.085660 -0.021686
v 7.428319 0.088121 -0.019721
v 7.433213 0.082989 -0.023299
v 7.446365 0.084412 0.022643
v 7.448782 0.081835 0.019775
v 7.415706 0.084407 -0.021667
v 7.421462 0.088675 -0.019034
v 7.418551 0.086671 -0.020544
v 7.428857 0.088675 -0.019034
v 7.434613 0.084407 -0.021667
v 7.431768 0.086671 -0.020544
v 7.437605 0.081520 -0.022393
v 7.448358 0.084375 0.017905
v 7.450065 0.081661 0.014886
v 7.417815 0.087787 -0.019221
v 7.421042 0.089271 -0.018294
v 7.432504 0.087787 -0.019221
v 7.429276 0.089271 -0.018294
v 7.438948 0.083634 -0.019943
v 7.441978 0.080716 -0.019452
v 7.449227 0.084407 0.012787
v 7.450359 0.081849 0.009893
v 7.420815 0.089949 -0.017452
v 7.429504 0.089949 -0.017452
v 7.442794 0.083429 -0.016124
v 7.445461 0.080664 -0.014589
v 7.449130 0.084801 0.007526
v 7.449874 0.082144 0.004448
v 7.417395 0.089008 -0.017786
v 7.417259 0.090205 -0.016269
v 7.420719 0.090620 -0.016620
v 7.445503 0.083823 -0.010677
v 7.447598 0.081257 -0.008429
v 7.448986 0.082000 -0.001790
v 7.448346 0.085062 0.001918
v 7.414083 0.087716 -0.017735
v 7.420838 0.091300 -0.015775
v 7.414671 0.086024 -0.019810
v 7.447180 0.084623 -0.004357
v 7.446397 0.087568 -0.000839
v 7.447515 0.087582 0.004786
v 7.445437 0.089878 0.001735
v 7.417447 0.091396 -0.014809
v 7.417879 0.092436 -0.013446
v 7.421052 0.091886 -0.015048
v 7.411371 0.083634 -0.019943
v 7.444095 0.089603 -0.003742
v 7.446246 0.089655 0.007105
v 7.447925 0.087138 0.010159
v 7.414224 0.091004 -0.013515
v 7.421392 0.092364 -0.014455
v 7.413945 0.089388 -0.015581
v 7.410636 0.085858 -0.017228
v 7.410522 0.088034 -0.014413
v 7.446111 0.089246 0.012545
v 7.447440 0.086854 0.015525
v 7.418442 0.093214 -0.012459
v 7.419087 0.093813 -0.011661
v 7.421754 0.092718 -0.014018
v 7.407525 0.083429 -0.016124
v 7.445093 0.089023 0.017874
v 7.445931 0.086800 0.020520
v 7.414802 0.092449 -0.011708
v 7.415597 0.093540 -0.010298
v 7.422134 0.093013 -0.013669
v 7.408341 0.080716 -0.019452
v 7.412714 0.081520 -0.022393
v 7.443118 0.088769 0.022496
v 7.443547 0.086519 0.024832
v 7.411664 0.092024 -0.009441
v 7.410920 0.090145 -0.011747
v 7.440573 0.088272 0.026542
v 7.440825 0.085876 0.028631
v 7.407942 0.088756 -0.009480
v 7.407456 0.086115 -0.012713
v 7.404858 0.080664 -0.014589
v 7.404816 0.083823 -0.010677
v 7.437754 0.087298 0.030070
v 7.437860 0.084612 0.031772
v 7.405334 0.086896 -0.006942
v 7.406224 0.089603 -0.003742
v 7.408808 0.091085 -0.006700
v 7.402721 0.081257 -0.008429
v 7.403139 0.084623 -0.004357
v 7.434410 0.085775 0.033051
v 7.434372 0.082989 0.034382
v 7.409864 0.092838 -0.004687
v 7.412639 0.093438 -0.007684
v 7.401038 0.078482 -0.006044
v 7.430026 0.083677 0.035557
v 7.429995 0.081016 0.036551
v 7.430266 0.079193 0.036803
v 7.431121 0.077578 0.036517
v 7.413776 0.094496 -0.006333
v 7.416515 0.094362 -0.009201
v 7.401134 0.074634 -0.010581
v 7.425329 0.080881 0.037036
v 7.425862 0.077993 0.037523
v 7.427351 0.075227 0.037126
v 7.417462 0.095003 -0.008337
v 7.419762 0.094283 -0.011035
v 7.399669 0.071528 -0.008348
v 7.400431 0.067349 -0.013226
v 7.421928 0.077127 0.037080
v 7.423611 0.073456 0.036953
v 7.420434 0.094670 -0.010515
v 7.422507 0.093247 -0.013374
v 7.399567 0.075586 -0.003618
v 7.401333 0.082000 -0.001790
v 7.399846 0.079105 0.000687
v 7.419896 0.072224 0.036129
v 7.422928 0.093471 -0.013093
v 7.398329 0.072662 -0.001356
v 7.401973 0.085062 0.001918
v 7.403922 0.087568 -0.000839
v 7.398458 0.068424 -0.006111
v 7.415308 0.073484 0.034881
v 7.416205 0.071640 0.034632
v 7.418300 0.076026 0.036162
v 7.404881 0.089878 0.001735
v 7.407280 0.091653 -0.001477
v 7.397545 0.069764 0.000563
v 7.414054 0.075758 0.034250
v 7.412519 0.071006 0.033173
v 7.415756 0.080483 0.035169
v 7.420736 0.080571 0.036549
v 7.408596 0.093198 0.000208
v 7.411127 0.094139 -0.003176
v 7.397920 0.073279 0.004745
v 7.397601 0.070479 0.006284
v 7.398652 0.076144 0.002916
v 7.420293 0.083677 0.035557
v 7.425159 0.083828 0.036035
v 7.412553 0.095167 -0.001929
v 7.414998 0.095323 -0.005249
v 7.398289 0.073530 0.010068
v 7.399267 0.079116 0.006673
v 7.400444 0.082144 0.004448
v 7.430030 0.086482 0.034058
v 7.425159 0.086696 0.034454
v 7.416282 0.095984 -0.004373
v 7.418444 0.095522 -0.007633
v 7.401189 0.084801 0.007526
v 7.402804 0.087582 0.004786
v 7.434226 0.088378 0.031181
v 7.429901 0.089098 0.031960
v 7.419471 0.095979 -0.007018
v 7.421176 0.095028 -0.010023
v 7.404073 0.089655 0.007105
v 7.406193 0.091683 0.003713
v 7.433874 0.090732 0.028766
v 7.437425 0.089670 0.027842
v 7.421919 0.095314 -0.009630
v 7.423348 0.093650 -0.012859
v 7.407914 0.093157 0.005405
v 7.410183 0.094436 0.001634
v 7.436936 0.091813 0.025060
v 7.440122 0.090432 0.023987
v 7.423774 0.093769 -0.012711
v 7.411957 0.095425 0.002821
v 7.405870 0.091421 0.009124
v 7.408051 0.092892 0.010815
v 7.409916 0.094351 0.006816
v 7.414092 0.095991 -0.000907
v 7.439408 0.092289 0.020890
v 7.442363 0.090793 0.019628
v 7.402394 0.087138 0.010159
v 7.404207 0.089246 0.012545
v 7.412080 0.095338 0.007968
v 7.415706 0.096656 -0.000064
v 7.417611 0.096538 -0.003644
v 7.441228 0.092557 0.016107
v 7.443829 0.091066 0.014563
v 7.401092 0.084407 0.012787
v 7.399960 0.081849 0.009893
v 7.413847 0.096224 0.003797
v 7.418980 0.096993 -0.003052
v 7.420524 0.096358 -0.006518
v 7.442267 0.092892 0.010815
v 7.444449 0.091421 0.009124
v 7.399245 0.078978 0.011817
v 7.398577 0.076229 0.008515
v 7.415839 0.096861 0.004598
v 7.421586 0.096640 -0.006162
v 7.422675 0.095530 -0.009365
v 7.442404 0.093157 0.005405
v 7.444126 0.091683 0.003713
v 7.417389 0.097184 0.000630
v 7.423446 0.095662 -0.009192
v 7.424206 0.093852 -0.012608
v 7.441723 0.093198 0.000208
v 7.443038 0.091653 -0.001477
v 7.419136 0.097599 0.001204
v 7.420381 0.097357 -0.002589
v 7.424674 0.093924 -0.012519
v 7.440454 0.092838 -0.004687
v 7.444985 0.086896 -0.006942
v 7.442377 0.088756 -0.009480
v 7.441511 0.091085 -0.006700
v 7.421864 0.097627 -0.002237
v 7.422699 0.096845 -0.005902
v 7.438655 0.092024 -0.009441
v 7.439399 0.090145 -0.011747
v 7.439796 0.088034 -0.014413
v 7.442862 0.086115 -0.012713
v 7.423905 0.096991 -0.005693
v 7.424289 0.095792 -0.009025
v 7.436095 0.091004 -0.013515
v 7.439682 0.085858 -0.017228
v 7.436235 0.087716 -0.017735
v 7.436373 0.089388 -0.015581
v 7.425159 0.095826 -0.008952
v 7.425159 0.093960 -0.012475
v 7.433060 0.090205 -0.016269
v 7.432923 0.089008 -0.017786
v 7.435647 0.086024 -0.019810
v 7.425644 0.093924 -0.012519
v 7.432872 0.091396 -0.014809
v 7.429600 0.090620 -0.016620
v 7.429481 0.091300 -0.015775
v 7.426030 0.095792 -0.009025
v 7.426873 0.095662 -0.009192
v 7.426113 0.093852 -0.012608
v 7.432440 0.092436 -0.013446
v 7.435517 0.092449 -0.011708
v 7.429267 0.091886 -0.015048
v 7.426413 0.096991 -0.005693
v 7.426545 0.093769 -0.012711
v 7.425159 0.097049 -0.005601
v 7.431877 0.093214 -0.012459
v 7.434721 0.093540 -0.010298
v 7.428926 0.092364 -0.014455
v 7.437680 0.093438 -0.007684
v 7.427644 0.095530 -0.009365
v 7.428400 0.095314 -0.009630
v 7.426971 0.093650 -0.012859
v 7.425159 0.097861 -0.001871
v 7.431231 0.093813 -0.011661
v 7.428565 0.092718 -0.014018
v 7.436543 0.094496 -0.006333
v 7.439192 0.094139 -0.003176
v 7.428733 0.096640 -0.006162
v 7.427390 0.093471 -0.013093
v 7.427620 0.096845 -0.005902
v 7.428455 0.097627 -0.002237
v 7.426840 0.097800 -0.001977
v 7.428185 0.093013 -0.013669
v 7.437766 0.095167 -0.001929
v 7.440136 0.094436 0.001634
v 7.429142 0.095028 -0.010023
v 7.429885 0.094670 -0.010515
v 7.427812 0.093247 -0.013374
v 7.427284 0.098117 0.001981
v 7.438361 0.095425 0.002821
v 7.440403 0.094351 0.006816
v 7.430848 0.095979 -0.007018
v 7.429794 0.096358 -0.006518
v 7.425159 0.098190 0.002114
v 7.423035 0.098117 0.001981
v 7.423479 0.097800 -0.001977
v 7.438239 0.095338 0.007968
v 7.439858 0.094118 0.012166
v 7.430557 0.094283 -0.011035
v 7.431339 0.096993 -0.003052
v 7.425159 0.098077 0.006318
v 7.437293 0.095170 0.013211
v 7.438433 0.093832 0.017241
v 7.432857 0.095003 -0.008337
v 7.433804 0.094362 -0.009201
v 7.431874 0.095522 -0.007633
v 7.420999 0.097912 0.001655
v 7.435457 0.094915 0.018009
v 7.436259 0.093574 0.021739
v 7.434037 0.095984 -0.004373
v 7.417925 0.097359 0.005261
v 7.420161 0.097732 0.005783
v 7.422607 0.097981 0.006162
v 7.432819 0.094525 0.022264
v 7.433398 0.092852 0.025765
v 7.435321 0.095323 -0.005249
v 7.416782 0.096839 0.009617
v 7.414369 0.096168 0.008893
v 7.422211 0.097646 0.010555
v 7.429394 0.093516 0.026167
v 7.429681 0.091443 0.029320
v 7.436227 0.095991 -0.000907
v 7.413026 0.095170 0.013211
v 7.410460 0.094118 0.012166
v 7.425159 0.091702 0.029498
v 7.425159 0.089344 0.032241
v 7.432707 0.096538 -0.003644
v 7.434613 0.096656 -0.000064
v 7.436472 0.096224 0.003797
v 7.409091 0.092557 0.016107
v 7.406490 0.091066 0.014563
v 7.420417 0.089098 0.031960
v 7.420289 0.086482 0.034058
v 7.434480 0.096861 0.004598
v 7.432930 0.097184 0.000630
v 7.435950 0.096168 0.008893
v 7.405226 0.089023 0.017874
v 7.402879 0.086854 0.015525
v 7.415909 0.085775 0.033051
v 7.415946 0.082989 0.034382
v 7.431183 0.097599 0.001204
v 7.429938 0.097357 -0.002589
v 7.433537 0.096839 0.009617
v 7.434575 0.096040 0.013970
v 7.401961 0.084375 0.017905
v 7.400254 0.081661 0.014886
v 7.412615 0.081603 0.032961
v 7.413060 0.078301 0.033816
v 7.431642 0.096672 0.014503
v 7.432238 0.095712 0.018505
v 7.398947 0.076308 0.013378
v 7.399905 0.079018 0.016527
v 7.410417 0.076512 0.031917
v 7.429320 0.097912 0.001655
v 7.428761 0.096191 0.018837
v 7.429065 0.095100 0.022586
v 7.398952 0.073963 0.014656
v 7.398280 0.071067 0.011432
v 7.409822 0.079947 0.031259
v 7.407127 0.078398 0.029063
v 7.407745 0.075276 0.029543
v 7.425159 0.095303 0.022699
v 7.425159 0.093758 0.026295
v 7.397881 0.065151 0.009300
v 7.398431 0.068688 0.012798
v 7.412458 0.084612 0.031772
v 7.409507 0.083118 0.030217
v 7.405109 0.074539 0.026523
v 7.420925 0.093516 0.026167
v 7.420638 0.091443 0.029320
v 7.398278 0.058319 0.009466
v 7.398591 0.062214 0.012613
v 7.399219 0.065561 0.015336
v 7.399179 0.071874 0.015818
v 7.412565 0.087298 0.030070
v 7.404744 0.077067 0.026573
v 7.402262 0.075739 0.022877
v 7.402579 0.074235 0.022716
v 7.416445 0.090732 0.028766
v 7.416093 0.088378 0.031181
v 7.399117 0.055732 0.014213
v 7.399593 0.070056 0.016818
v 7.399099 0.060712 0.014597
v 7.406734 0.081345 0.028214
v 7.404219 0.079383 0.025676
v 7.400239 0.074429 0.018430
v 7.402049 0.077331 0.022537
v 7.409494 0.085876 0.028631
v 7.406608 0.084058 0.026772
v 7.403914 0.081886 0.024371
v 7.401573 0.079362 0.021231
v 7.399942 0.076650 0.017788
v 7.412894 0.089670 0.027842
v 7.409746 0.088272 0.026542
v 7.406772 0.086519 0.024832
v 7.403954 0.084412 0.022643
v 7.401536 0.081835 0.019775
v 7.416921 0.092852 0.025765
v 7.413383 0.091813 0.025060
v 7.407201 0.088769 0.022496
v 7.410196 0.090432 0.023987
v 7.404387 0.086800 0.020520
v 7.421254 0.095100 0.022586
v 7.417500 0.094525 0.022264
v 7.414060 0.093574 0.021739
v 7.410911 0.092289 0.020890
v 7.407956 0.090793 0.019628
v 7.421558 0.096191 0.018837
v 7.418081 0.095712 0.018505
v 7.414861 0.094915 0.018009
v 7.425159 0.096360 0.018964
v 7.411886 0.093832 0.017241
v 7.418677 0.096672 0.014503
v 7.421858 0.097058 0.014877
v 7.425159 0.097194 0.015024
v 7.415744 0.096040 0.013970
v 7.428461 0.097058 0.014877
v 7.419379 0.097332 0.010163
v 7.428108 0.097646 0.010555
v 7.425159 0.097757 0.010713
v 7.430939 0.097332 0.010163
v 7.430158 0.097732 0.005783
v 7.427712 0.097981 0.006162
v 7.432394 0.097359 0.005261
v 7.397635 0.049341 -0.003054
v 7.392650 0.052579 -0.004035
v 7.393128 0.052695 -0.004842
v 7.392477 0.052632 -0.003051
v 7.392594 0.052621 -0.002052
v 7.393113 0.052721 -0.001246
v 7.393949 0.052989 -0.000734
v 7.394953 0.053343 -0.000724
v 7.395810 0.053711 -0.001038
v 7.396389 0.053995 -0.001659
v 7.396693 0.054198 -0.002324
v 7.396721 0.054297 -0.003040
v 7.396692 0.054211 -0.003777
v 7.396393 0.053999 -0.004466
v 7.395817 0.053708 -0.005091
v 7.394982 0.053286 -0.005369
v 7.393960 0.052953 -0.005360
v 7.393325 0.056501 0.001247
v 7.395822 0.057525 -0.000585
v 7.396243 0.057945 -0.003035
v 7.396191 0.058004 -0.001765
v 7.395788 0.057541 -0.005556
v 7.396163 0.058025 -0.004335
v 7.393335 0.056407 -0.007363
v 7.394764 0.057173 -0.006779
v 7.391399 0.055989 -0.007307
v 7.389952 0.055503 -0.006326
v 7.396105 0.061678 -0.001269
v 7.396079 0.061762 -0.003045
v 7.396004 0.061714 -0.004844
v 7.394109 0.060980 -0.008379
v 7.395469 0.061477 -0.006653
v 7.389416 0.059905 -0.009145
v 7.391982 0.060374 -0.009432
v 7.388798 0.055427 -0.003050
v 7.388877 0.055530 -0.004855
v 7.396371 0.065494 -0.003061
v 7.396196 0.065508 -0.005310
v 7.395498 0.065425 -0.007571
v 7.393787 0.065157 -0.009757
v 7.391133 0.064873 -0.011011
v 7.385872 0.059508 -0.005632
v 7.396801 0.068911 -0.005639
v 7.396031 0.068983 -0.008218
v 7.394108 0.069119 -0.010708
v 7.388059 0.064733 -0.010591
v 7.387742 0.069788 -0.011548
v 7.391132 0.069393 -0.012094
v 7.389936 0.055539 0.000245
v 7.388867 0.055543 -0.001236
v 7.387082 0.059527 -0.007915
v 7.397039 0.072329 -0.008531
v 7.385237 0.064614 -0.009074
v 7.391797 0.073629 -0.012636
v 7.385864 0.059515 -0.000461
v 7.385406 0.059488 -0.003052
v 7.384604 0.070122 -0.009842
v 7.383067 0.070403 -0.006647
v 7.383828 0.064709 -0.006245
v 7.391383 0.056073 0.001214
v 7.383222 0.064718 -0.003053
v 7.384902 0.075241 -0.010317
v 7.388225 0.074482 -0.012089
v 7.389469 0.060001 0.002973
v 7.394775 0.057215 0.000639
v 7.394232 0.061019 0.002165
v 7.392070 0.060492 0.003193
v 7.387092 0.059561 0.001820
v 7.389256 0.078255 -0.012292
v 7.391304 0.064969 0.004690
v 7.388165 0.064807 0.004349
v 7.385264 0.064631 0.002958
v 7.383821 0.064708 0.000148
v 7.393996 0.065189 0.003496
v 7.387821 0.069813 0.005347
v 7.391257 0.069432 0.005832
v 7.394233 0.069146 0.004473
v 7.383060 0.070400 0.000547
v 7.384621 0.070122 0.003729
v 7.395616 0.061440 0.000494
v 7.382360 0.070493 -0.003054
v 7.395713 0.065388 0.001398
v 7.391743 0.073495 0.006483
v 7.384883 0.075218 0.004213
v 7.383269 0.075702 0.000798
v 7.382510 0.075892 -0.003055
v 7.396331 0.065472 -0.000822
v 7.383280 0.075701 -0.006902
v 7.396128 0.068990 0.002035
v 7.396853 0.068909 -0.000503
v 7.384154 0.079760 0.000962
v 7.383378 0.080046 -0.003057
v 7.384177 0.079756 -0.007071
v 7.396977 0.068879 -0.003062
v 7.385855 0.079217 -0.010593
v 7.396754 0.072231 0.002329
v 7.394800 0.072726 0.004969
v 7.384940 0.083387 -0.003060
v 7.385732 0.083033 -0.007074
v 7.387423 0.082501 -0.010555
v 7.397789 0.071980 -0.003048
v 7.397775 0.072064 -0.005783
v 7.395682 0.075702 0.005007
v 7.387961 0.085948 -0.006814
v 7.390707 0.081453 -0.012152
v 7.389585 0.085486 -0.010048
v 7.392476 0.084403 -0.011582
v 7.397567 0.072016 -0.000350
v 7.399072 0.075117 -0.005717
v 7.394361 0.080446 -0.012463
v 7.391933 0.087919 -0.009115
v 7.394289 0.086948 -0.010566
v 7.397068 0.085987 -0.011015
v 7.395764 0.083377 -0.011971
v 7.398578 0.074779 -0.000360
v 7.397717 0.075038 0.002318
v 7.392958 0.077260 -0.012725
v 7.395879 0.088864 -0.008991
v 7.399065 0.082409 -0.010721
v 7.398902 0.074814 -0.003022
v 7.398978 0.077784 0.002218
v 7.396882 0.078505 0.004836
v 7.393793 0.079667 0.006382
v 7.392584 0.076743 0.006618
v 7.396346 0.076339 -0.011173
v 7.394969 0.072862 -0.011174
v 7.400220 0.077641 -0.002999
v 7.398293 0.081651 0.004567
v 7.389058 0.077976 0.006197
v 7.388200 0.074405 0.005962
v 7.397854 0.079517 -0.010958
v 7.399845 0.077535 -0.000414
v 7.400189 0.078737 -0.008304
v 7.399995 0.084982 -0.010055
v 7.402480 0.084344 -0.008254
v 7.401365 0.081610 -0.008288
v 7.398561 0.075615 -0.008464
v 7.401111 0.080694 -0.000445
v 7.400298 0.080923 0.002134
v 7.385778 0.079150 0.004487
v 7.400692 0.087062 -0.008594
v 7.401731 0.081104 -0.005621
v 7.400525 0.078106 -0.005620
v 7.401851 0.084180 0.002073
v 7.387308 0.082410 0.004447
v 7.385697 0.083043 0.000960
v 7.390408 0.081046 0.006060
v 7.401454 0.080779 -0.003014
v 7.400498 0.086957 0.002488
v 7.399589 0.084667 0.003869
v 7.402760 0.086025 0.001111
v 7.387916 0.085969 0.000693
v 7.387197 0.086289 -0.003064
v 7.392277 0.084124 0.005501
v 7.395380 0.082805 0.005894
v 7.402592 0.084071 -0.003050
v 7.396979 0.085741 0.004951
v 7.403418 0.087537 -0.000526
v 7.389760 0.088551 -0.003062
v 7.390452 0.088273 -0.006318
v 7.402795 0.084095 -0.005681
v 7.394250 0.086845 0.004498
v 7.395922 0.088788 0.002951
v 7.398182 0.087931 0.003307
v 7.403745 0.087857 -0.003086
v 7.401113 0.088597 0.000273
v 7.392842 0.089745 -0.005596
v 7.394080 0.089517 -0.007767
v 7.403304 0.085971 -0.007293
v 7.391865 0.087929 0.003019
v 7.389483 0.085438 0.003941
v 7.401201 0.089098 -0.003026
v 7.403751 0.087319 -0.005596
v 7.398996 0.089490 0.000808
v 7.397292 0.090154 -0.006744
v 7.398133 0.088090 -0.009340
v 7.401202 0.088613 -0.006316
v 7.398468 0.090319 -0.002977
v 7.398922 0.089634 -0.006799
v 7.397356 0.090057 0.000748
v 7.396202 0.090430 -0.005880
v 7.390402 0.088303 0.000201
v 7.396187 0.090442 -0.000132
v 7.394038 0.089542 0.001700
v 7.395314 0.090553 -0.004613
v 7.392795 0.089780 -0.000491
v 7.392282 0.089941 -0.003048
v 7.395283 0.090581 -0.001421
v 7.395036 0.090635 -0.003018
v 7.450079 0.074429 0.018430
v 7.425159 0.080785 0.014275
v 7.450726 0.070056 0.016818
v 7.447740 0.074235 0.022716
v 7.451100 0.065561 0.015336
v 7.445210 0.074539 0.026523
v 7.451219 0.060712 0.014597
v 7.442574 0.075276 0.029543
v 7.451202 0.055732 0.014213
v 7.439902 0.076512 0.031917
v 7.452041 0.058319 0.009466
v 7.437259 0.078300 0.033818
v 7.452863 0.060932 0.004733
v 7.434563 0.080483 0.035169
v 7.431121 0.077578 0.036517
v 7.427351 0.075227 0.037126
v 7.423611 0.073456 0.036953
v 7.419896 0.072224 0.036129
v 7.416205 0.071640 0.034632
v 7.412519 0.071006 0.033173
v 7.414054 0.075758 0.034250
v 7.415756 0.080483 0.035169
v 7.413060 0.078301 0.033816
v 7.410417 0.076512 0.031917
v 7.407745 0.075276 0.029543
v 7.405109 0.074539 0.026523
v 7.402579 0.074235 0.022716
v 7.400239 0.074429 0.018430
v 7.399593 0.070056 0.016818
v 7.399219 0.065561 0.015336
v 7.399099 0.060712 0.014597
v 7.399117 0.055732 0.014213
v 7.398278 0.058319 0.009466
v 7.397456 0.060932 0.004733
v 7.452684 0.049341 -0.003054
v 7.457191 0.052695 -0.004842
v 7.457669 0.052579 -0.004035
v 7.457842 0.052632 -0.003051
v 7.457725 0.052621 -0.002052
v 7.457206 0.052721 -0.001246
v 7.456370 0.052989 -0.000734
v 7.455366 0.053343 -0.000724
v 7.454509 0.053711 -0.001038
v 7.453930 0.053995 -0.001659
v 7.453626 0.054198 -0.002324
v 7.453598 0.054297 -0.003040
v 7.453627 0.054211 -0.003777
v 7.453925 0.053999 -0.004466
v 7.454502 0.053708 -0.005091
v 7.455336 0.053286 -0.005369
v 7.456358 0.052953 -0.005360
v 7.456994 0.056501 0.001247
v 7.454497 0.057525 -0.000585
v 7.454076 0.057945 -0.003035
v 7.454127 0.058004 -0.001765
v 7.454530 0.057541 -0.005556
v 7.454156 0.058025 -0.004335
v 7.456984 0.056407 -0.007363
v 7.455555 0.057173 -0.006779
v 7.458920 0.055989 -0.007307
v 7.460367 0.055503 -0.006326
v 7.454214 0.061678 -0.001269
v 7.454240 0.061762 -0.003045
v 7.454315 0.061714 -0.004844
v 7.454850 0.061477 -0.006653
v 7.456210 0.060980 -0.008379
v 7.458336 0.060374 -0.009432
v 7.460903 0.059905 -0.009145
v 7.461521 0.055427 -0.003050
v 7.461442 0.055530 -0.004855
v 7.453948 0.065494 -0.003061
v 7.454123 0.065508 -0.005310
v 7.454820 0.065425 -0.007571
v 7.456532 0.065157 -0.009757
v 7.459186 0.064873 -0.011011
v 7.464447 0.059508 -0.005632
v 7.453518 0.068911 -0.005639
v 7.454288 0.068983 -0.008218
v 7.456211 0.069119 -0.010708
v 7.462260 0.064733 -0.010591
v 7.459187 0.069393 -0.012094
v 7.462577 0.069788 -0.011548
v 7.460382 0.055539 0.000245
v 7.461452 0.055543 -0.001236
v 7.453280 0.072329 -0.008531
v 7.455350 0.072862 -0.011174
v 7.458522 0.073629 -0.012636
v 7.465082 0.064614 -0.009074
v 7.463237 0.059527 -0.007915
v 7.464455 0.059515 -0.000461
v 7.464913 0.059488 -0.003052
v 7.453973 0.076339 -0.011173
v 7.465715 0.070122 -0.009842
v 7.467252 0.070403 -0.006647
v 7.466491 0.064709 -0.006245
v 7.458936 0.056073 0.001214
v 7.467096 0.064718 -0.003053
v 7.465417 0.075241 -0.010317
v 7.467959 0.070493 -0.003054
v 7.467809 0.075892 -0.003055
v 7.467038 0.075701 -0.006902
v 7.462094 0.074482 -0.012089
v 7.460849 0.060001 0.002973
v 7.463227 0.059561 0.001820
v 7.467258 0.070400 0.000547
v 7.466497 0.064708 0.000148
v 7.466142 0.079756 -0.007071
v 7.461063 0.078255 -0.012292
v 7.457360 0.077260 -0.012725
v 7.465055 0.064631 0.002958
v 7.465698 0.070122 0.003729
v 7.465436 0.075218 0.004213
v 7.467049 0.075702 0.000798
v 7.455958 0.080446 -0.012463
v 7.452464 0.079517 -0.010958
v 7.450130 0.078737 -0.008304
v 7.451758 0.075615 -0.008464
v 7.462154 0.064807 0.004349
v 7.462498 0.069813 0.005347
v 7.466165 0.079760 0.000962
v 7.466941 0.080046 -0.003057
v 7.451253 0.082409 -0.010721
v 7.451246 0.075117 -0.005717
v 7.452544 0.072064 -0.005783
v 7.459015 0.064969 0.004690
v 7.458249 0.060492 0.003193
v 7.465379 0.083387 -0.003060
v 7.452530 0.071980 -0.003048
v 7.453341 0.068879 -0.003062
v 7.456087 0.061019 0.002165
v 7.456323 0.065189 0.003496
v 7.459062 0.069432 0.005832
v 7.456085 0.069146 0.004473
v 7.455544 0.057215 0.000639
v 7.453465 0.068909 -0.000503
v 7.453988 0.065472 -0.000822
v 7.454606 0.065388 0.001398
v 7.458576 0.073495 0.006483
v 7.462119 0.074405 0.005962
v 7.454703 0.061440 0.000494
v 7.454191 0.068990 0.002035
v 7.461261 0.077976 0.006197
v 7.457735 0.076743 0.006618
v 7.455519 0.072726 0.004969
v 7.454637 0.075702 0.005007
v 7.464540 0.079150 0.004487
v 7.453564 0.072231 0.002329
v 7.456526 0.079667 0.006382
v 7.463011 0.082410 0.004447
v 7.459911 0.081046 0.006060
v 7.452602 0.075038 0.002318
v 7.451341 0.077784 0.002218
v 7.453437 0.078505 0.004836
v 7.464622 0.083043 0.000960
v 7.452751 0.072016 -0.000350
v 7.451741 0.074779 -0.000360
v 7.458042 0.084124 0.005501
v 7.452026 0.081651 0.004567
v 7.462402 0.085969 0.000693
v 7.464587 0.083033 -0.007074
v 7.462358 0.085948 -0.006814
v 7.463121 0.086289 -0.003064
v 7.451416 0.074814 -0.003022
v 7.462896 0.082501 -0.010555
v 7.464464 0.079217 -0.010593
v 7.460559 0.088551 -0.003062
v 7.459867 0.088273 -0.006318
v 7.458385 0.087919 -0.009115
v 7.460734 0.085486 -0.010048
v 7.450099 0.077641 -0.002999
v 7.449794 0.078106 -0.005620
v 7.457477 0.089745 -0.005596
v 7.457843 0.084403 -0.011582
v 7.450474 0.077535 -0.000414
v 7.448864 0.080779 -0.003014
v 7.448587 0.081104 -0.005621
v 7.448954 0.081610 -0.008288
v 7.459611 0.081453 -0.012152
v 7.449208 0.080694 -0.000445
v 7.450021 0.080923 0.002134
v 7.447727 0.084071 -0.003050
v 7.447839 0.084344 -0.008254
v 7.447524 0.084095 -0.005681
v 7.454555 0.083377 -0.011971
v 7.448468 0.084180 0.002073
v 7.450730 0.084667 0.003869
v 7.453340 0.085741 0.004951
v 7.454939 0.082805 0.005894
v 7.447015 0.085971 -0.007293
v 7.449626 0.087062 -0.008594
v 7.450324 0.084982 -0.010055
v 7.453251 0.085987 -0.011015
v 7.456030 0.086948 -0.010566
v 7.449821 0.086957 0.002488
v 7.447559 0.086025 0.001111
v 7.449117 0.088613 -0.006316
v 7.446568 0.087319 -0.005596
v 7.452186 0.088090 -0.009340
v 7.454440 0.088864 -0.008991
v 7.456239 0.089517 -0.007767
v 7.446901 0.087537 -0.000526
v 7.452137 0.087931 0.003307
v 7.449206 0.088597 0.000273
v 7.451396 0.089634 -0.006799
v 7.449118 0.089098 -0.003026
v 7.446574 0.087857 -0.003086
v 7.453027 0.090154 -0.006744
v 7.456069 0.086845 0.004498
v 7.454397 0.088788 0.002951
v 7.452963 0.090057 0.000748
v 7.451323 0.089490 0.000808
v 7.451851 0.090319 -0.002977
v 7.454116 0.090430 -0.005880
v 7.458454 0.087929 0.003019
v 7.456281 0.089542 0.001700
v 7.460836 0.085438 0.003941
v 7.454132 0.090442 -0.000132
v 7.455036 0.090581 -0.001421
v 7.455283 0.090635 -0.003018
v 7.455005 0.090553 -0.004613
v 7.457524 0.089780 -0.000491
v 7.459917 0.088303 0.000201
v 7.458037 0.089941 -0.003048
vn -0.7018 -0.5617 -0.4381
vn -0.8155 -0.4880 -0.3111
vn -0.8553 -0.4106 -0.3160
vn -0.7439 -0.5082 -0.4339
vn -0.5840 -0.5800 -0.5679
vn -0.5304 -0.6263 -0.5713
vn -0.5305 0.4384 0.7255
vn -0.4858 0.7765 0.4013
vn -0.5076 0.7787 0.3688
vn -0.5781 0.4100 0.7055
vn -0.2484 0.3244 0.9127
vn -0.3200 0.5936 0.7384
vn -0.5508 0.0783 0.8310
vn -0.6047 -0.4982 -0.6213
vn -0.7662 -0.4103 -0.4945
vn 0.9139 -0.3631 -0.1817
vn 0.9483 -0.2832 -0.1436
vn 0.9755 -0.2200 -0.0104
vn -0.8855 -0.2970 -0.3574
vn -0.9628 -0.1682 -0.2112
vn -0.9498 -0.2755 -0.1481
vn -0.3293 -0.6776 -0.6576
vn -0.3584 -0.6474 -0.6726
vn -0.1512 -0.6759 -0.7213
vn -0.1440 -0.6961 -0.7033
vn -0.3816 -0.5766 -0.7225
vn -0.1457 -0.6176 -0.7728
vn -0.8955 0.2997 -0.3291
vn -0.8020 0.4993 -0.3280
vn -0.5880 0.4038 -0.7009
vn -0.6738 0.2212 -0.7050
vn -0.7751 -0.3076 -0.5519
vn -0.6034 -0.4122 -0.6826
vn -0.9046 -0.3709 0.2101
vn -0.8877 -0.3894 0.2456
vn -0.9111 -0.4084 0.0562
vn -0.9169 -0.3951 0.0554
vn 0.9878 -0.1521 -0.0347
vn 0.9948 -0.0733 0.0712
vn 0.8055 0.4811 -0.3460
vn 0.7844 0.5446 -0.2967
vn 0.8593 0.4529 -0.2377
vn 0.8794 0.3845 -0.2809
vn -0.8528 0.5222 -0.0043
vn -0.9481 0.3179 -0.0028
vn -0.8980 0.2980 0.3238
vn -0.8046 0.4988 0.3222
vn -0.0000 -0.6242 -0.7813
vn -0.0000 -0.6787 -0.7344
vn 0.1883 0.9685 0.1631
vn 0.1643 0.9819 0.0940
vn 0.0836 0.9915 0.0998
vn 0.0940 0.9812 0.1685
vn 0.8924 -0.1849 -0.4117
vn 0.9597 -0.0722 -0.2717
vn 0.9624 -0.1861 -0.1981
vn 0.8855 -0.2970 -0.3574
vn 0.3825 0.9126 0.1447
vn 0.4313 0.8767 0.2131
vn 0.5256 0.8273 0.1984
vn 0.4664 0.8747 0.1317
vn -0.9583 -0.0638 -0.2784
vn -0.8924 -0.1849 -0.4117
vn -0.9861 0.0510 -0.1579
vn -0.9644 0.1434 -0.2223
vn -0.9422 0.0381 -0.3328
vn 0.3860 0.8694 -0.3085
vn 0.4978 0.8380 -0.2236
vn 0.5806 0.7654 -0.2777
vn 0.4515 0.8192 -0.3535
vn -0.0000 -0.6958 -0.7182
vn 0.1512 -0.6759 -0.7213
vn 0.1440 -0.6961 -0.7033
vn 0.1457 -0.6176 -0.7728
vn 0.9988 -0.0335 0.0359
vn 0.9947 -0.0407 -0.0949
vn 0.9993 0.0351 -0.0117
vn -0.9292 -0.0047 0.3695
vn -0.9459 0.0764 0.3155
vn -0.9745 0.0560 0.2173
vn -0.9551 0.0056 0.2961
vn -0.9929 -0.0912 0.0766
vn -0.9874 -0.0266 0.1563
vn -0.9936 0.0164 0.1114
vn -0.9977 -0.0524 0.0427
vn -0.1852 0.9060 0.3807
vn -0.3718 0.8394 0.3965
vn -0.0410 0.7422 0.6689
vn -0.5927 -0.3209 -0.7388
vn -0.3792 -0.4074 -0.8308
vn -0.3807 -0.4955 -0.7807
vn 0.8955 0.2997 -0.3291
vn 0.9481 0.3179 -0.0028
vn 0.9929 0.1191 -0.0017
vn 0.9410 0.1082 -0.3207
vn -0.9802 -0.0337 0.1951
vn -0.9858 -0.0463 0.1614
vn 0.5304 -0.6263 -0.5713
vn 0.3293 -0.6776 -0.6576
vn 0.3584 -0.6474 -0.6726
vn 0.5840 -0.5800 -0.5679
vn 0.1264 0.9459 -0.2989
vn 0.1641 0.9358 -0.3121
vn 0.1126 0.8977 -0.4260
vn 0.0858 0.9044 -0.4180
vn -0.0000 0.9152 -0.4030
vn 0.0313 0.9131 -0.4065
vn 0.0193 0.8551 -0.5180
vn -0.0000 0.8573 -0.5149
vn -0.0797 0.7131 -0.6966
vn -0.0547 0.7041 -0.7080
vn -0.0985 0.6374 -0.7642
vn -0.1392 0.6497 -0.7473
vn -0.6228 -0.2039 0.7554
vn -0.6253 -0.1978 0.7549
vn -0.2693 -0.3711 0.8887
vn -0.2160 -0.3166 0.9236
vn -0.9995 0.0302 -0.0103
vn -0.9885 0.1254 -0.0846
vn -0.9948 -0.0509 -0.0877
vn 0.9802 -0.0337 0.1951
vn 0.9699 -0.0266 0.2421
vn 0.9800 -0.0286 0.1968
vn 0.3816 -0.5766 -0.7225
vn 0.6047 -0.4982 -0.6213
vn -0.8869 0.1746 -0.4276
vn -0.9136 0.1196 -0.3886
vn -0.9390 0.2130 -0.2700
vn -0.9172 0.2560 -0.3053
vn -0.9142 -0.3619 -0.1822
vn -0.9764 -0.2159 0.0005
vn -0.9880 -0.1520 -0.0270
vn -0.7636 -0.0428 -0.6442
vn -0.5107 0.1690 -0.8430
vn -0.5228 -0.0764 -0.8490
vn -0.8267 -0.2918 -0.4811
vn 0.9778 -0.0057 0.2094
vn 0.9551 0.0056 0.2961
vn 0.9380 -0.0231 0.3460
vn 0.1448 -0.5425 -0.8275
vn 0.3807 -0.4955 -0.7807
vn -0.0000 -0.5512 -0.8344
vn -0.9891 0.1090 0.0986
vn -0.9870 0.0454 0.1542
vn -0.9814 0.1319 0.1395
vn 0.9885 0.1254 -0.0846
vn 0.9850 0.1720 -0.0109
vn 0.9944 0.0859 0.0610
vn 0.9292 -0.0047 0.3695
vn -0.0000 0.5581 0.8298
vn -0.1812 0.5386 0.8229
vn -0.1955 0.3755 0.9060
vn -0.0059 0.3991 0.9169
vn -0.1448 -0.5425 -0.8275
vn -0.1480 -0.4629 -0.8740
vn -0.0000 -0.4768 -0.8790
vn 0.8553 -0.4106 -0.3160
vn 0.6363 0.0200 0.7712
vn 0.5508 0.0783 0.8310
vn 0.5585 -0.1297 0.8193
vn 0.7663 -0.2855 0.5756
vn 0.8155 -0.4880 -0.3111
vn -0.0000 0.9416 0.3366
vn -0.0000 0.9703 0.2418
vn -0.1045 0.9652 0.2398
vn -0.1153 0.9354 0.3343
vn -0.9478 -0.0630 -0.3125
vn -0.9410 0.1082 -0.3207
vn -0.7213 0.0549 -0.6905
vn -0.7288 -0.0970 -0.6778
vn 0.6034 -0.4122 -0.6826
vn -0.7763 0.1681 -0.6076
vn -0.6884 0.2797 -0.6692
vn -0.5801 0.2269 -0.7823
vn -0.6624 0.0929 -0.7433
vn 0.7439 -0.5082 -0.4339
vn 0.7018 -0.5617 -0.4381
vn 0.9551 0.1913 0.2261
vn 0.8941 0.2940 0.3379
vn 0.8961 0.1513 0.4172
vn 0.9459 0.0764 0.3155
vn -0.9944 0.0859 0.0610
vn -0.9850 0.1720 -0.0109
vn 0.9046 -0.3709 0.2101
vn 0.8877 -0.3894 0.2456
vn 0.8072 -0.3319 0.4881
vn 0.8194 -0.3127 0.4805
vn -0.3722 -0.1900 -0.9085
vn -0.1614 -0.2486 -0.9551
vn -0.1553 -0.3663 -0.9174
vn -0.3774 -0.3035 -0.8749
vn 0.1599 0.6814 0.7142
vn -0.0000 0.6970 0.7171
vn 0.1812 0.5386 0.8229
vn 0.1480 -0.4629 -0.8740
vn 0.3792 -0.4074 -0.8308
vn 0.1553 -0.3663 -0.9174
vn 0.3774 -0.3035 -0.8749
vn -0.0000 -0.3849 -0.9230
vn 0.5776 -0.2165 -0.7871
vn 0.5927 -0.3209 -0.7388
vn 0.7751 -0.3076 -0.5519
vn 0.7662 -0.4103 -0.4945
vn -0.5359 0.2241 0.8140
vn -0.6214 0.1218 0.7740
vn -0.6247 0.0460 0.7795
vn -0.5592 0.1387 0.8174
vn 0.7590 -0.2104 -0.6161
vn 0.7372 -0.1084 -0.6670
vn 0.8784 -0.0836 -0.4705
vn 0.9556 -0.2389 -0.1723
vn 0.9766 -0.2151 -0.0034
vn 0.9924 -0.1205 -0.0248
vn 0.9750 -0.1318 -0.1787
vn 0.3722 -0.1900 -0.9085
vn 0.5576 -0.1133 -0.8223
vn -0.8525 0.0098 -0.5226
vn -0.8242 0.0836 -0.5601
vn -0.7108 -0.0173 -0.7032
vn -0.7372 -0.1084 -0.6670
vn -0.0000 -0.2672 -0.9636
vn 0.1614 -0.2486 -0.9551
vn -0.0000 0.9853 0.1706
vn -0.0000 0.9947 0.1024
vn -0.0836 0.9915 0.0998
vn -0.0940 0.9812 0.1685
vn -0.5776 -0.2165 -0.7871
vn -0.5576 -0.1133 -0.8223
vn 0.7108 -0.0173 -0.7032
vn 0.8242 0.0836 -0.5601
vn 0.8525 0.0098 -0.5226
vn 0.3528 -0.0453 -0.9346
vn 0.5179 0.0168 -0.8553
vn 0.2689 -0.3827 -0.8839
vn 0.2158 -0.3301 -0.9190
vn 0.6399 -0.1946 -0.7434
vn 0.6361 -0.1909 -0.7476
vn -0.0000 0.8819 0.4715
vn 0.1276 0.8740 0.4689
vn 0.1153 0.9354 0.3343
vn -0.3528 -0.0453 -0.9346
vn -0.1612 -0.0978 -0.9821
vn 0.1612 -0.0978 -0.9821
vn -0.0000 -0.1169 -0.9931
vn -0.5605 0.8212 0.1072
vn -0.4664 0.8747 0.1317
vn -0.4067 0.9112 0.0651
vn -0.4884 0.8717 0.0397
vn 0.9136 0.1196 -0.3886
vn 0.9422 0.0381 -0.3328
vn 0.9858 -0.0463 0.1614
vn 0.9874 -0.0266 0.1563
vn -0.0000 0.0604 -0.9982
vn 0.1551 0.0792 -0.9847
vn 0.8913 0.4271 -0.1522
vn 0.8537 0.5117 -0.0968
vn 0.9084 0.4156 -0.0448
vn 0.9317 0.3488 -0.1011
vn -0.3161 0.1231 -0.9407
vn -0.1551 0.0792 -0.9847
vn 0.6436 0.6549 0.3960
vn 0.5865 0.7583 0.2847
vn 0.4818 0.8227 0.3017
vn 0.5339 0.7336 0.4204
vn -0.5179 0.0168 -0.8553
vn 0.9664 0.1227 -0.2258
vn 0.9810 0.0538 -0.1865
vn 0.9964 0.0841 -0.0129
vn 0.9882 0.1529 -0.0023
vn -0.5996 0.7870 -0.1449
vn -0.4978 0.8380 -0.2236
vn -0.5806 0.7654 -0.2777
vn -0.6882 0.6938 -0.2122
vn 0.5753 -0.1923 0.7951
vn -0.7590 -0.2104 -0.6161
vn -0.8784 -0.0836 -0.4705
vn 0.9644 0.1434 -0.2223
vn 0.9857 0.0557 -0.1589
vn 0.3161 0.1231 -0.9407
vn 0.4526 0.1704 -0.8753
vn -0.0000 0.3815 -0.9244
vn -0.1184 0.3873 -0.9143
vn -0.0789 0.5342 -0.8417
vn -0.0000 0.5309 -0.8474
vn 0.1440 0.2358 -0.9611
vn 0.2765 0.2639 -0.9241
vn -0.0000 0.2242 -0.9745
vn -0.1679 0.6628 -0.7298
vn -0.0965 0.7198 -0.6874
vn 0.9936 0.0164 0.1114
vn -0.9778 -0.0057 0.2094
vn -0.2700 0.0930 -0.9584
vn 0.1353 -0.0364 -0.9901
vn 0.1063 -0.1089 -0.9884
vn -0.3190 -0.0210 -0.9475
vn -0.1440 0.2358 -0.9611
vn 0.8472 -0.2487 0.4695
vn 0.5876 -0.1986 0.7844
vn 0.5902 -0.2125 0.7788
vn 0.8665 -0.1999 0.4574
vn -0.8593 0.4529 -0.2377
vn -0.8286 0.5203 -0.2066
vn -0.7487 0.6094 -0.2608
vn -0.7844 0.5446 -0.2967
vn 0.8101 0.2730 0.5188
vn 0.8012 0.1264 0.5849
vn 0.8759 0.0424 0.4806
vn 0.2230 0.7378 -0.6371
vn 0.2061 0.7067 -0.6769
vn 0.1150 0.7443 -0.6578
vn 0.1203 0.7604 -0.6383
vn -0.9634 0.2534 -0.0870
vn -0.9651 0.2108 -0.1551
vn -0.2910 0.7554 0.5871
vn -0.3233 0.6355 0.7011
vn -0.1599 0.6814 0.7142
vn -0.1415 0.7887 0.5983
vn -0.1808 0.0240 0.9832
vn -0.5753 -0.1923 0.7951
vn -0.5841 -0.1972 0.7873
vn -0.1497 -0.0429 0.9878
vn -0.9415 0.2687 -0.2034
vn -0.9194 0.3142 -0.2365
vn 0.3311 -0.1361 -0.9337
vn 0.3190 -0.0210 -0.9475
vn 0.7213 0.0549 -0.6905
vn 0.7288 -0.0970 -0.6778
vn -0.8800 0.3158 -0.3549
vn -0.8038 0.4126 -0.4286
vn -0.7630 0.3380 -0.5510
vn -0.8450 0.2386 -0.4786
vn 0.6970 0.0448 0.7157
vn 0.6215 0.1218 0.7739
vn 0.6249 0.0461 0.7794
vn 0.6894 -0.0316 0.7237
vn -0.4526 0.1704 -0.8753
vn -0.2106 0.2215 -0.9522
vn -0.3566 0.4794 0.8019
vn -0.5073 0.3904 0.7683
vn -0.3780 0.3239 0.8673
vn -0.6490 0.4454 -0.6167
vn -0.5791 0.3885 -0.7167
vn -0.1610 0.0389 -0.9862
vn 0.2106 0.2215 -0.9522
vn 0.2700 0.0930 -0.9584
vn -0.1353 -0.0364 -0.9901
vn 0.3649 0.8763 0.3146
vn 0.4059 0.8004 0.4411
vn -0.9720 0.2243 0.0701
vn -0.9813 0.1903 0.0303
vn -0.0212 0.7594 -0.6503
vn 0.2164 0.8692 -0.4446
vn 0.3687 0.7228 -0.5845
vn 0.0877 0.5548 -0.8274
vn 0.2036 0.9585 -0.1995
vn 0.1586 0.9710 -0.1789
vn 0.1855 0.9809 -0.0587
vn 0.2405 0.9672 -0.0820
vn -0.7759 0.6307 -0.0113
vn -0.6694 0.7403 0.0618
vn -0.5846 0.8113 -0.0069
vn -0.6890 0.7205 -0.0780
vn -0.9387 0.3129 -0.1450
vn -0.9091 0.3712 -0.1889
vn -0.4481 0.5017 -0.7399
vn -0.3829 0.4633 -0.7992
vn -0.4894 0.3436 -0.8015
vn -0.9388 0.3103 0.1494
vn -0.8997 0.4278 0.0868
vn -0.9459 0.3245 0.0054
vn -0.8671 0.4316 0.2488
vn -0.8160 0.5523 0.1705
vn -0.2765 0.2639 -0.9241
vn -0.2243 0.4041 -0.8868
vn 0.2172 0.3822 -0.8982
vn 0.5107 0.1690 -0.8430
vn 0.5228 -0.0764 -0.8490
vn 0.1745 0.1638 -0.9709
vn -0.8941 0.2940 0.3379
vn -0.9551 0.1913 0.2261
vn -0.3017 0.6071 -0.7351
vn -0.5047 0.5527 -0.6632
vn -0.3416 0.6458 -0.6828
vn -0.8472 -0.2487 0.4695
vn -0.9392 -0.2837 0.1934
vn -0.9658 -0.1979 0.1674
vn -0.8665 -0.1999 0.4574
vn -0.6925 0.5160 -0.5042
vn 0.0789 0.5342 -0.8417
vn 0.1184 0.3873 -0.9143
vn -0.3094 0.4301 -0.8481
vn -0.3866 0.2996 -0.8723
vn -0.8961 0.1513 0.4172
vn 0.8542 -0.1006 0.5100
vn 0.8328 -0.1984 0.5168
vn -0.4726 0.7999 -0.3699
vn -0.3569 0.8572 -0.3713
vn -0.2907 0.6368 -0.7141
vn -0.4952 0.5135 -0.7008
vn -0.0461 0.6317 -0.7738
vn -0.1562 0.5432 -0.8250
vn -0.0000 0.6285 -0.7778
vn -0.5554 0.6677 -0.4958
vn -0.7002 0.5776 -0.4195
vn -0.6829 0.6314 -0.3675
vn -0.5433 0.7099 -0.4482
vn 0.1562 0.5432 -0.8250
vn 0.2243 0.4041 -0.8868
vn -0.8759 0.0424 0.4806
vn -0.8012 0.1264 0.5849
vn -0.8101 0.2730 0.5188
vn -0.8542 -0.1006 0.5100
vn -0.7756 -0.0299 0.6305
vn -0.0258 0.7004 -0.7133
vn -0.0596 0.9086 -0.4134
vn -0.0313 0.9131 -0.4065
vn -0.0193 0.8551 -0.5180
vn -0.0331 0.8530 -0.5208
vn 0.3866 0.2996 -0.8723
vn 0.3094 0.4301 -0.8481
vn 0.2159 0.5591 -0.8005
vn -0.6970 0.0448 0.7157
vn -0.7121 0.2112 0.6695
vn -0.5361 -0.8145 -0.2218
vn -0.6666 -0.7031 -0.2476
vn -0.4610 -0.6700 -0.5820
vn -0.3713 -0.7466 -0.5520
vn 0.0193 0.0307 0.9993
vn 0.2267 0.0748 0.9711
vn 0.1966 0.2546 0.9469
vn -0.0137 0.2341 0.9721
vn 0.4894 0.3436 -0.8015
vn 0.5801 0.2269 -0.7823
vn 0.3829 0.4633 -0.7992
vn 0.2629 0.5806 -0.7706
vn 0.0985 0.6374 -0.7642
vn 0.1392 0.6497 -0.7473
vn -0.1531 -0.2590 0.9536
vn -0.1179 -0.1996 0.9727
vn -0.5902 -0.2125 0.7788
vn -0.6020 -0.2121 0.7698
vn -0.6894 -0.0316 0.7237
vn -0.5443 0.6149 -0.5706
vn -0.3734 0.6932 -0.6165
vn 0.6884 0.2797 -0.6692
vn 0.7763 0.1681 -0.6076
vn 0.6624 0.0929 -0.7433
vn 0.5791 0.3885 -0.7167
vn 0.1060 0.7313 -0.6738
vn 0.1845 0.6807 -0.7090
vn -0.0000 0.6966 -0.7174
vn 0.0258 0.7004 -0.7133
vn 0.0461 0.6317 -0.7738
vn 0.3734 0.6932 -0.6165
vn 0.3888 0.7322 -0.5592
vn 0.5554 0.6677 -0.4958
vn 0.5443 0.6149 -0.5706
vn 0.0587 -0.5759 0.8154
vn 0.1176 -0.5257 0.8425
vn -0.2879 -0.3608 0.8871
vn 0.8869 0.1746 -0.4276
vn 0.8450 0.2386 -0.4786
vn 0.2353 0.9153 0.3269
vn 0.2623 0.8486 0.4594
vn -0.5772 0.6218 0.5293
vn -0.6080 0.4798 0.6326
vn -0.4789 0.5645 0.6724
vn -0.4439 0.6980 0.5619
vn -0.0000 0.7806 -0.6250
vn 0.0547 0.7041 -0.7080
vn -0.1845 0.6807 -0.7090
vn -0.1060 0.7313 -0.6738
vn -0.3880 0.1682 0.9062
vn 0.8800 0.3158 -0.3549
vn 0.9172 0.2560 -0.3053
vn -0.9845 -0.0289 -0.1730
vn -0.9750 -0.1318 -0.1787
vn -0.8770 -0.1621 -0.4523
vn -0.8868 -0.0864 -0.4540
vn 0.0797 0.7131 -0.6966
vn -0.7128 0.3845 0.5866
vn -0.6202 0.2965 0.7262
vn -0.7949 0.4200 0.4379
vn -0.2629 0.5806 -0.7706
vn 0.0965 0.7198 -0.6874
vn 0.1679 0.6628 -0.7298
vn -0.2159 0.5591 -0.8005
vn -0.1552 0.9206 -0.3583
vn 0.0059 0.9757 -0.2189
vn -0.9603 0.2757 -0.0427
vn -0.6867 0.5317 0.4957
vn 0.1610 0.0389 -0.9862
vn 0.5410 -0.1805 -0.8214
vn 0.5488 -0.2149 -0.8079
vn 0.3017 0.6071 -0.7351
vn 0.4858 0.7765 0.4013
vn 0.3718 0.8394 0.3965
vn 0.3200 0.5936 0.7384
vn 0.5305 0.4384 0.7255
vn 0.9891 0.1090 0.0986
vn 0.9814 0.1319 0.1395
vn 0.9745 0.0560 0.2173
vn 0.9870 0.0454 0.1542
vn -0.7587 0.5550 0.3412
vn 0.4481 0.5017 -0.7399
vn 0.9720 0.2243 0.0701
vn 0.9813 0.1903 0.0303
vn 0.3416 0.6458 -0.6828
vn -0.1150 0.7443 -0.6578
vn -0.2061 0.7067 -0.6769
vn -0.1465 0.8817 -0.4485
vn -0.1295 0.8906 -0.4360
vn -0.0680 0.8440 -0.5321
vn -0.0802 0.8380 -0.5398
vn -0.8750 -0.0303 -0.4831
vn -0.6361 -0.1909 -0.7476
vn -0.6083 -0.1571 -0.7780
vn -0.8465 0.0233 -0.5318
vn 0.2693 -0.3711 0.8887
vn 0.2160 -0.3166 0.9236
vn -0.1904 -0.4018 0.8957
vn -0.1176 -0.5257 0.8425
vn -0.1203 0.7604 -0.6383
vn 0.8184 -0.3495 -0.4562
vn 0.8087 -0.3642 -0.4618
vn -0.2230 0.7378 -0.6371
vn 0.5841 -0.1972 0.7873
vn -0.2353 0.7635 -0.6014
vn -0.1240 0.7740 -0.6209
vn -0.2826 0.9592 0.0091
vn -0.4354 0.9002 0.0064
vn 0.1240 0.7740 -0.6209
vn 0.2353 0.7635 -0.6014
vn -0.8794 0.3845 -0.2809
vn -0.8055 0.4811 -0.3460
vn -0.9472 -0.0644 0.3141
vn -0.9421 0.1058 0.3183
vn -0.9929 0.1191 -0.0017
vn -0.9984 -0.0570 -0.0012
vn -0.9084 0.4156 -0.0448
vn -0.8537 0.5117 -0.0968
vn -0.8913 0.4271 -0.1522
vn -0.9317 0.3488 -0.1011
vn -0.1215 0.7876 -0.6041
vn 0.1215 0.7876 -0.6041
vn 0.2331 0.7867 -0.5716
vn 0.1929 0.9250 -0.3275
vn 0.2440 0.9439 -0.2224
vn 0.2837 0.9269 -0.2459
vn 0.2183 0.9132 -0.3441
vn -0.7766 0.6103 -0.1563
vn 0.1176 0.8015 -0.5864
vn 0.2222 0.8120 -0.5397
vn -0.1176 0.8015 -0.5864
vn 0.5047 0.5527 -0.6632
vn -0.8470 0.5300 0.0421
vn 0.3849 0.7635 -0.5186
vn 0.7630 0.3380 -0.5510
vn 0.8038 0.4126 -0.4286
vn 0.1091 0.8132 -0.5716
vn 0.2012 0.8368 -0.5092
vn -0.1091 0.8132 -0.5716
vn -0.7032 0.6687 0.2415
vn 0.5433 0.7099 -0.4482
vn -0.7499 0.6511 0.1171
vn 0.1030 0.8214 -0.5609
vn 0.1810 0.8572 -0.4822
vn -0.1030 0.8214 -0.5609
vn -0.6761 -0.2794 0.6818
vn -0.5821 -0.4834 0.6538
vn -0.2633 -0.2675 0.9269
vn 0.6925 0.5160 -0.5042
vn 0.6490 0.4454 -0.6167
vn -0.6348 0.7541 0.1681
vn 0.3220 0.8434 -0.4302
vn 0.3619 0.8010 -0.4768
vn -0.8263 -0.3179 -0.4649
vn -0.5601 -0.2268 -0.7968
vn -0.5850 -0.2294 -0.7779
vn -0.8538 -0.2480 -0.4577
vn -0.0927 0.8296 -0.5506
vn 0.0927 0.8296 -0.5506
vn 0.1633 0.8708 -0.4637
vn -0.1989 0.1875 0.9619
vn -0.1619 -0.0032 0.9868
vn -0.6436 0.6549 0.3960
vn 0.5096 0.7599 -0.4034
vn 0.6957 -0.7184 -0.0000
vn 0.6656 -0.7026 0.2516
vn 0.5363 -0.8130 0.2267
vn 0.5754 -0.8179 0.0011
vn -0.5837 0.8119 -0.0080
vn -0.3860 0.9225 -0.0092
vn -0.3537 0.9095 -0.2186
vn -0.5424 0.7920 -0.2803
vn 0.6829 0.6314 -0.3675
vn 0.6453 0.6910 -0.3257
vn 0.7002 0.5776 -0.4195
vn 0.7759 0.6307 -0.0113
vn 0.8470 0.5300 0.0421
vn 0.7766 0.6103 -0.1563
vn 0.6890 0.7205 -0.0780
vn 0.1552 0.9206 -0.3583
vn 0.3569 0.8572 -0.3713
vn 0.2907 0.6368 -0.7141
vn 0.0212 0.7594 -0.6503
vn 0.4526 -0.6638 0.5955
vn 0.5821 -0.4834 0.6538
vn 0.1904 -0.4018 0.8957
vn 0.7487 0.6094 -0.2608
vn 0.8286 0.5203 -0.2066
vn -0.1592 0.3678 -0.9162
vn -0.0877 0.5548 -0.8274
vn 0.3267 0.9181 0.2244
vn 0.1523 0.3492 0.9246
vn 0.0775 0.5316 0.8434
vn -0.2006 0.1226 0.9720
vn 0.9091 0.3712 -0.1889
vn 0.9194 0.3142 -0.2365
vn 0.5601 -0.2268 -0.7968
vn 0.4101 0.2307 0.8824
vn 0.2624 -0.0203 0.9648
vn 0.9390 0.2130 -0.2700
vn -0.5585 -0.1297 0.8193
vn -0.9111 -0.4026 -0.0885
vn -0.9040 -0.4111 -0.1173
vn 0.2465 0.8981 -0.3643
vn 0.2807 0.8762 -0.3919
vn 0.4205 0.8900 -0.1766
vn 0.5066 0.8582 -0.0828
vn 0.5996 0.7870 -0.1449
vn 0.1011 0.9948 -0.0088
vn 0.3860 0.9225 -0.0092
vn 0.3537 0.9095 -0.2186
vn 0.0946 0.9889 -0.1143
vn 0.1949 0.3941 0.8981
vn 0.3848 0.3345 0.8603
vn 0.1465 0.8817 -0.4485
vn 0.0802 0.8380 -0.5398
vn 0.0680 0.8440 -0.5321
vn 0.1295 0.8906 -0.4360
vn 0.9415 0.2687 -0.2034
vn 0.9651 0.2108 -0.1551
vn 0.9387 0.3129 -0.1450
vn 0.9634 0.2534 -0.0870
vn -0.9839 -0.0368 0.1747
vn -0.9800 -0.0286 0.1968
vn 0.5880 0.4038 -0.7009
vn 0.4880 0.5684 -0.6624
vn 0.6837 0.6594 -0.3126
vn 0.8020 0.4993 -0.3280
vn 0.5361 -0.8145 -0.2218
vn 0.6666 -0.7031 -0.2476
vn 0.4952 0.5135 -0.7008
vn 0.5491 0.4908 -0.6765
vn 0.7636 -0.0428 -0.6442
vn -0.3860 -0.1226 0.9143
vn -0.4135 -0.1530 0.8975
vn -0.3080 -0.2217 0.9252
vn -0.4368 -0.0184 0.8994
vn 0.6882 0.6938 -0.2122
vn -0.9137 -0.2661 0.3071
vn -0.8144 -0.5048 0.2861
vn 0.5837 0.8119 -0.0080
vn 0.3567 0.9100 0.2115
vn 0.5466 0.7914 0.2738
vn 0.6867 0.5317 0.4957
vn 0.7949 0.4200 0.4379
vn 0.7587 0.5550 0.3412
vn -0.0462 0.8510 -0.5231
vn -0.0858 0.9044 -0.4180
vn 0.9603 0.2757 -0.0427
vn 0.8980 0.2980 0.3238
vn 0.6791 0.2160 0.7016
vn 0.7210 0.0449 0.6914
vn 0.9421 0.1058 0.3183
vn -0.1444 0.9887 0.0405
vn -0.1643 0.9819 0.0940
vn -0.0751 0.9960 0.0481
vn 0.2958 0.9490 -0.1088
vn 0.9459 0.3245 0.0054
vn 0.3296 0.9038 -0.2730
vn 0.6869 0.6588 0.3069
vn 0.7307 0.6826 -0.0061
vn -0.3220 0.8434 -0.4302
vn -0.2012 0.8368 -0.5092
vn -0.2222 0.8120 -0.5397
vn -0.3619 0.8010 -0.4768
vn 0.5850 -0.2294 -0.7779
vn 0.8538 -0.2480 -0.4577
vn 0.8770 -0.1621 -0.4523
vn 0.6157 -0.2112 -0.7592
vn 0.0587 0.8489 -0.5253
vn -0.0587 0.8489 -0.5253
vn 0.5846 0.8113 -0.0069
vn 0.6694 0.7403 0.0618
vn 0.8750 -0.0303 -0.4831
vn 0.8465 0.0233 -0.5318
vn 0.7756 -0.0299 0.6305
vn 0.0462 0.8510 -0.5231
vn -0.1855 0.9809 -0.0587
vn -0.2138 0.9764 0.0291
vn -0.1267 0.9911 -0.0405
vn 0.4242 0.9048 -0.0370
vn 0.4884 0.8717 0.0397
vn 0.5605 0.8212 0.1072
vn -0.4818 0.8227 0.3017
vn -0.5339 0.7336 0.4204
vn -0.4059 0.8004 0.4411
vn -0.3649 0.8763 0.3146
vn -0.5865 0.7583 0.2847
vn 0.2888 0.9448 0.1548
vn 0.4067 0.9112 0.0651
vn -0.4242 0.9048 -0.0370
vn -0.5066 0.8582 -0.0828
vn 0.3544 0.9246 -0.1395
vn 0.3514 0.9362 -0.0061
vn -0.5256 0.8273 0.1984
vn 0.8997 0.4278 0.0868
vn 0.3566 0.4794 0.8019
vn 0.9388 0.3103 0.1494
vn -0.8328 -0.1984 0.5168
vn -0.7672 -0.1216 0.6297
vn 0.2824 0.9592 0.0144
vn 0.3304 0.9406 0.0780
vn 0.5899 0.4019 0.7003
vn 0.2091 0.2143 0.9541
vn 0.2746 0.0834 0.9579
vn -0.0653 0.9974 -0.0293
vn 0.9494 -0.3127 0.0301
vn 0.9169 -0.3951 0.0554
vn 0.9392 -0.2837 0.1934
vn 0.0596 0.9086 -0.4134
vn 0.0331 0.8530 -0.5208
vn -0.0438 0.9591 -0.2796
vn -0.0543 0.9871 -0.1506
vn -0.0000 0.9893 -0.1459
vn -0.0000 0.9614 -0.2751
vn 0.2486 0.9647 0.0866
vn -0.6837 0.6594 -0.3126
vn -0.3687 0.7228 -0.5845
vn -0.4880 0.5684 -0.6624
vn -0.6453 0.6910 -0.3257
vn 0.1194 -0.1220 0.9853
vn -0.3163 -0.0410 0.9478
vn -0.3104 -0.1524 0.9383
vn 0.1179 -0.1996 0.9727
vn 0.9472 -0.0644 0.3141
vn 0.7175 -0.1046 0.6886
vn 0.6761 -0.2794 0.6818
vn 0.9137 -0.2661 0.3071
vn -0.0000 0.9997 -0.0253
vn -0.8848 -0.1029 0.4545
vn -0.8713 -0.0448 0.4886
vn -0.4515 0.8192 -0.3535
vn -0.5096 0.7599 -0.4034
vn 0.6936 -0.2802 -0.6636
vn 0.5966 -0.4906 -0.6351
vn 0.2159 -0.4216 -0.8807
vn 0.2949 -0.2715 -0.9162
vn 0.0438 0.9591 -0.2796
vn 0.0858 0.9537 -0.2884
vn 0.0543 0.9871 -0.1506
vn 0.1074 0.9809 -0.1622
vn -0.8184 -0.3495 -0.4562
vn -0.5410 -0.1805 -0.8214
vn -0.3849 0.7635 -0.5186
vn -0.3888 0.7322 -0.5592
vn -0.9556 -0.2389 -0.1723
vn -0.9766 -0.2151 -0.0034
vn -0.9494 -0.3127 0.0301
vn -0.9292 -0.3390 -0.1473
vn -0.0858 0.9537 -0.2884
vn -0.1074 0.9809 -0.1622
vn -0.2983 -0.0479 0.9533
vn -0.2459 -0.1409 0.9590
vn -0.1190 -0.1053 0.9873
vn 0.2826 0.9592 0.0091
vn 0.4354 0.9002 0.0064
vn 0.4726 0.7999 -0.3699
vn 0.3653 -0.7429 0.5609
vn -0.1194 -0.1220 0.9853
vn -0.5876 -0.1986 0.7844
vn 0.1481 -0.2604 -0.9541
vn -0.2331 0.7867 -0.5716
vn 0.1045 0.9652 0.2398
vn 0.2115 0.9489 0.2341
vn -0.1126 0.8977 -0.4260
vn 0.8868 -0.0864 -0.4540
vn 0.2633 -0.2675 0.9269
vn -0.3304 0.9406 0.0780
vn -0.2824 0.9592 0.0144
vn -0.3514 0.9362 -0.0061
vn -0.2807 0.8762 -0.3919
vn -0.1810 0.8572 -0.4822
vn -0.3860 0.8694 -0.3085
vn -0.1264 0.9459 -0.2989
vn -0.1641 0.9358 -0.3121
vn -0.1586 0.9710 -0.1789
vn 0.6059 -0.1553 0.7803
vn 0.6253 -0.1978 0.7549
vn 0.2879 -0.3608 0.8871
vn -0.4205 0.8900 -0.1766
vn -0.3296 0.9038 -0.2730
vn -0.1633 0.8708 -0.4637
vn 0.1808 0.0240 0.9832
vn -0.2091 0.2143 0.9541
vn -0.2746 0.0834 0.9579
vn 0.1497 -0.0429 0.9878
vn -0.3544 0.9246 -0.1395
vn -0.1929 0.9250 -0.3275
vn -0.2183 0.9132 -0.3441
vn 0.0653 0.9974 -0.0293
vn 0.1267 0.9911 -0.0405
vn 0.3163 -0.0410 0.9478
vn -0.2036 0.9585 -0.1995
vn -0.0000 0.9987 0.0509
vn 0.0751 0.9960 0.0481
vn -0.2486 0.9647 0.0866
vn -0.3825 0.9126 0.1447
vn -0.4313 0.8767 0.2131
vn 0.9151 -0.2659 -0.3031
vn 0.8157 -0.5051 -0.2820
vn -0.2465 0.8981 -0.3643
vn -0.3267 0.9181 0.2244
vn -0.2888 0.9448 0.1548
vn -0.2837 0.9269 -0.2459
vn -0.2440 0.9439 -0.2224
vn 0.1444 0.9887 0.0405
vn 0.2138 0.9764 0.0291
vn -0.2353 0.9153 0.3269
vn -0.2623 0.8486 0.4594
vn 0.9322 -0.3564 -0.0637
vn 0.9376 -0.3428 -0.0578
vn 0.9421 -0.3290 0.0644
vn 0.9347 -0.3512 0.0552
vn -0.3311 -0.1361 -0.9337
vn 0.1090 -0.1868 -0.9763
vn -0.1276 0.8740 0.4689
vn -0.0000 0.7994 0.6008
vn -0.7307 0.6826 -0.0061
vn -0.2958 0.9490 -0.1088
vn -0.2405 0.9672 -0.0820
vn -0.9924 -0.1205 -0.0248
vn -0.9819 -0.1226 0.1442
vn 0.1415 0.7887 0.5983
vn -0.8072 -0.3319 0.4881
vn -0.7663 -0.2855 0.5756
vn -0.8796 -0.3554 0.3162
vn 0.9819 -0.1226 0.1442
vn 0.9896 -0.0374 0.1389
vn 0.9995 -0.0174 -0.0253
vn 0.7032 0.6687 0.2415
vn 0.8671 0.4316 0.2488
vn 0.8160 0.5523 0.1705
vn 0.5359 0.2242 0.8140
vn 0.5073 0.3904 0.7683
vn -0.1883 0.9685 0.1631
vn -0.2115 0.9489 0.2341
vn 0.5593 0.1389 0.8172
vn -0.1319 -0.5430 -0.8293
vn -0.0677 -0.5851 -0.8081
vn 0.6202 0.2965 0.7262
vn 0.7121 0.2112 0.6695
vn 0.7672 -0.1216 0.6297
vn 0.9658 -0.1979 0.1674
vn -0.9699 -0.0266 0.2421
vn 0.4789 0.5645 0.6724
vn 0.6080 0.4798 0.6326
vn 0.2910 0.7554 0.5871
vn 0.3233 0.6355 0.7011
vn 0.6228 -0.2039 0.7554
vn 0.6020 -0.2121 0.7698
vn 0.1531 -0.2590 0.9536
vn 0.9839 -0.0368 0.1747
vn -0.9380 -0.0231 0.3460
vn 0.8848 -0.1029 0.4545
vn 0.8787 -0.1553 0.4515
vn 0.7128 0.3845 0.5866
vn 0.8263 -0.3179 -0.4649
vn 0.9040 -0.4111 -0.1173
vn 0.9292 -0.3390 -0.1473
vn 0.2484 0.3244 0.9127
vn 0.2006 0.1226 0.9720
vn 0.5772 0.6218 0.5293
vn 0.4439 0.6980 0.5619
vn -0.9322 -0.3564 -0.0637
vn -0.3664 0.7155 0.5948
vn -0.4871 0.5625 0.6680
vn -0.1523 0.3492 0.9246
vn -0.0775 0.5316 0.8434
vn 0.4871 0.5625 0.6680
vn 0.8046 0.4988 0.3222
vn 0.9478 -0.0630 -0.3125
vn 0.5635 -0.8261 0.0013
vn -0.5754 -0.8179 0.0011
vn -0.5363 -0.8130 0.2267
vn -0.3653 -0.7429 0.5609
vn -0.0587 -0.5759 0.8154
vn 0.8411 0.0180 0.5406
vn 0.9657 0.1186 0.2309
vn 0.6083 -0.1571 -0.7780
vn 0.2823 -0.3681 -0.8859
vn -0.6059 -0.1553 0.7803
vn -0.8411 0.0180 0.5406
vn -0.9964 0.0841 -0.0129
vn -0.9810 0.0538 -0.1865
vn -0.9664 0.1227 -0.2258
vn -0.9882 0.1529 -0.0023
vn -0.9657 0.1186 0.2309
vn -0.9842 0.0437 0.1715
vn -0.4526 -0.6638 0.5955
vn -0.6656 -0.7026 0.2516
vn -0.2689 -0.3827 -0.8839
vn 0.1319 -0.5430 -0.8293
vn 0.0677 -0.5851 -0.8081
vn -0.2823 -0.3681 -0.8859
vn 0.4610 -0.6700 -0.5820
vn 0.3713 -0.7466 -0.5520
vn -0.9896 -0.0374 0.1389
vn -0.9995 -0.0174 -0.0253
vn -0.6399 -0.1946 -0.7434
vn -0.2158 -0.3301 -0.9190
vn -0.6157 -0.2112 -0.7592
vn -0.8787 -0.1553 0.4515
vn -0.1481 -0.2604 -0.9541
vn 0.7499 0.6511 0.1171
vn -0.1745 0.1638 -0.9709
vn 0.1592 0.3678 -0.9162
vn 0.3664 0.7155 0.5948
vn 0.2053 0.8645 0.4589
vn 0.3104 -0.1524 0.9383
vn -0.1063 -0.1089 -0.9884
vn -0.1090 -0.1868 -0.9763
vn 0.8144 -0.5048 0.2861
vn 0.9984 -0.0570 -0.0012
vn 0.9646 -0.2636 -0.0013
vn 0.8626 -0.5059 -0.0009
vn 0.6738 0.2212 -0.7050
vn 0.6348 0.7541 0.1681
vn 0.5424 0.7920 -0.2803
vn 0.8528 0.5222 -0.0043
vn -0.8087 -0.3642 -0.4618
vn -0.5005 0.7858 -0.3634
vn -0.4568 0.8895 -0.0091
vn -0.2172 0.3822 -0.8982
vn -0.9646 -0.2636 -0.0013
vn -0.9151 -0.2659 -0.3031
vn 0.9845 -0.0289 -0.1730
vn -0.8194 -0.3127 0.4805
vn -0.5488 -0.2149 -0.8079
vn -0.5491 0.4908 -0.6765
vn -0.6363 0.0200 0.7712
vn -0.9421 -0.3290 0.0644
vn -0.9376 -0.3428 -0.0578
vn -0.9347 -0.3512 0.0552
vn 0.0700 -0.0793 0.9944
vn -0.3567 0.9100 0.2115
vn -0.5466 0.7914 0.2738
vn -0.2053 0.8645 0.4589
vn 0.1852 0.9060 0.3807
vn -0.0059 0.9757 -0.2189
vn 0.0179 0.9708 0.2394
vn -0.0179 0.9708 0.2394
vn -0.8157 -0.5051 -0.2820
vn -0.5966 -0.4906 -0.6351
vn -0.0946 0.9889 -0.1143
vn -0.0937 0.9897 0.1083
vn -0.2159 -0.4216 -0.8807
vn -0.1011 0.9948 -0.0088
vn 0.0937 0.9897 0.1083
vn -0.2905 -0.7542 0.5888
vn 0.0203 -0.9941 0.1067
vn -0.2325 -0.3381 0.9119
vn -0.2313 -0.9642 -0.1296
vn -0.1615 -0.2080 0.9647
vn -0.2659 -0.9624 -0.0555
vn -0.0881 -0.0985 0.9912
vn -0.3223 -0.9463 0.0262
vn -0.6859 -0.7134 0.1437
vn -0.4099 -0.9037 0.1236
vn -0.6167 -0.6397 -0.4588
vn -0.4999 -0.8421 0.2025
vn -0.6164 -0.6391 -0.4599
vn 0.0116 -0.9997 -0.0197
vn 0.5199 -0.8147 -0.2568
vn 0.4519 -0.8559 -0.2515
vn 0.3888 -0.8841 -0.2592
vn 0.3103 -0.9082 -0.2810
vn 0.2693 -0.9172 -0.2936
vn -0.5028 -0.5831 -0.6381
vn -0.8488 0.3686 -0.3791
vn -0.5682 -0.7784 -0.2670
vn 0.4999 -0.8421 0.2025
vn 0.4100 -0.9037 0.1238
vn 0.3223 -0.9463 0.0262
vn 0.2659 -0.9624 -0.0555
vn 0.2313 -0.9642 -0.1296
vn 0.2905 -0.7542 0.5888
vn 0.2325 -0.3381 0.9119
vn 0.1615 -0.2080 0.9647
vn 0.0881 -0.0985 0.9912
vn 0.6859 -0.7134 0.1437
vn 0.6167 -0.6397 -0.4588
vn 0.6164 -0.6391 -0.4599
vn -0.5635 -0.8261 0.0013
vn 0.9842 0.0437 0.1715
vn 0.8713 -0.0448 0.4886
vn -0.2949 -0.2715 -0.9162
vn 0.0410 0.7422 0.6689
vn -0.6957 -0.7184 -0.0000
vn -0.8626 -0.5059 -0.0009
vn -0.6936 -0.2802 -0.6637
vn -0.7175 -0.1046 0.6886
vn -0.7210 0.0449 0.6914
vn -0.6791 0.2160 0.7016
vn 0.8267 -0.2918 -0.4811
vn 0.9111 -0.4026 -0.0885
vn -0.5899 0.4019 0.7003
vn -0.6869 0.6588 0.3069
vn 0.9111 -0.4084 0.0562
vn -0.2164 0.8692 -0.4446
vn 0.8796 -0.3554 0.3162
vn 0.5781 0.4100 0.7055
vn 0.5005 0.7858 -0.3634
vn 0.5076 0.7787 0.3688
vn 0.4568 0.8895 -0.0091
vt 0.000000 0.000000
s 1
f 54/1/1 63/1/2 62/1/3 61/1/4
f 54/1/1 61/1/4 45/1/5 46/1/6
f 998/1/7 1007/1/8 1005/1/9 999/1/10
f 991/1/11 1006/1/12 998/1/7 990/1/13
f 69/1/14 45/1/5 61/1/4 68/1/15
f 7/1/16 12/1/17 13/1/18
f 62/1/3 84/1/19 68/1/15 61/1/4
f 83/1/20 84/1/19 62/1/3 76/1/21
f 38/1/22 44/1/23 32/1/24 33/1/25
f 52/1/26 53/1/27 32/1/24 44/1/23
f 708/1/28 714/1/29 715/1/30 710/1/31
f 68/1/15 92/1/32 74/1/33 69/1/14
f 960/1/34 978/1/35 974/1/36 967/1/37
f 13/1/18 22/1/38 23/1/39
f 259/1/40 424/1/41 266/1/42 260/1/43
f 713/1/44 714/1/29 708/1/28 707/1/45
f 706/1/46 761/1/47 713/1/44 707/1/45
f 32/1/24 53/1/27 26/1/48 25/1/49
f 540/1/50 612/1/51 610/1/52 608/1/53
f 29/1/54 37/1/55 15/1/56 14/1/57
f 493/1/58 494/1/59 399/1/60 489/1/61
f 83/1/20 116/1/62 91/1/63 84/1/19
f 121/1/64 343/1/65 110/1/66 116/1/62
f 467/1/67 468/1/68 423/1/69 460/1/70
f 24/1/71 25/1/49 17/1/72 16/1/73
f 26/1/48 18/1/74 17/1/72 25/1/49
f 31/1/75 30/1/76 35/1/77
f 577/1/78 583/1/79 548/1/80 565/1/81
f 85/1/82 555/1/83 134/1/84 127/1/85
f 1014/1/86 1015/1/87 1006/1/12 1013/1/88
f 74/1/33 87/1/89 81/1/90 75/1/91
f 911/1/92 925/1/93 904/1/94 905/1/95
f 563/1/96 555/1/83 85/1/82 562/1/97
f 5/1/98 9/1/99 8/1/100 4/1/101
f 469/1/102 484/1/103 462/1/104 461/1/105
f 439/1/106 448/1/107 444/1/108 440/1/109
f 220/1/110 212/1/111 197/1/112 219/1/113
f 934/1/114 938/1/115 856/1/116 930/1/117
f 126/1/118 349/1/119 121/1/64 122/1/120
f 42/1/121 49/1/122 51/1/123
f 10/1/124 11/1/125 4/1/101 8/1/100
f 209/1/126 330/1/127 329/1/128 323/1/129
f 70/1/130 78/1/131 77/1/132 76/1/21
f 986/1/133 995/1/134 926/1/135 981/1/136
f 48/1/137 57/1/138 49/1/122
f 49/1/122 57/1/138 58/1/139
f 27/1/140 34/1/141 10/1/124 18/1/74
f 26/1/48 60/1/142 27/1/140 18/1/74
f 85/1/82 127/1/85 77/1/132 78/1/131
f 363/1/143 549/1/144 548/1/80 542/1/145
f 139/1/146 79/1/147 71/1/148 35/1/77
f 38/1/22 46/1/6 45/1/5 44/1/23
f 57/1/138 65/1/149 58/1/139
f 367/1/150 524/1/151 359/1/152 360/1/153
f 59/1/154 82/1/155 66/1/156 60/1/142
f 6/1/157 14/1/57 15/1/56 12/1/17
f 759/1/158 765/1/159 743/1/160 754/1/161
f 6/1/157 12/1/17 7/1/16 3/1/162
f 553/1/163 602/1/164 599/1/165 594/1/166
f 673/1/167 703/1/168 677/1/169 672/1/170
f 10/1/124 34/1/141 19/1/171 11/1/125
f 201/1/172 202/1/173 194/1/174 193/1/175
f 2/1/176 6/1/157 3/1/162 1/1/177
f 165/1/178 232/1/179 173/1/180 166/1/181
f 126/1/118 357/1/182 356/1/183 349/1/119
f 730/1/184 747/1/185 736/1/186 731/1/187
f 94/1/188 103/1/189 86/1/190 88/1/191
f 373/1/192 517/1/193 367/1/150 366/1/194
f 27/1/140 67/1/195 39/1/196 34/1/141
f 1/1/177 5/1/98 4/1/101 2/1/176
f 77/1/132 127/1/85 126/1/118 122/1/120
f 70/1/130 76/1/21 62/1/3 63/1/2
f 72/1/197 73/1/198 39/1/196 67/1/195
f 66/1/156 90/1/199 72/1/197 67/1/195
f 39/1/196 73/1/198 47/1/200 40/1/201
f 20/1/202 29/1/54 14/1/57 21/1/203
f 538/1/204 550/1/205 544/1/206 539/1/207
f 19/1/171 40/1/201 28/1/208 20/1/202
f 47/1/200 115/1/209 28/1/208 40/1/201
f 28/1/208 120/1/210 29/1/54 20/1/202
f 658/1/211 709/1/212 652/1/213 653/1/214
f 80/1/215 107/1/216 47/1/200 73/1/198
f 101/1/217 200/1/218 96/1/219 95/1/220
f 98/1/221 99/1/222 72/1/197 90/1/199
f 606/1/223 611/1/224 510/1/225 605/1/226
f 89/1/227 97/1/228 94/1/188 88/1/191
f 114/1/229 137/1/230 119/1/231 115/1/209
f 80/1/215 108/1/232 109/1/233 107/1/216
f 639/1/234 649/1/235 646/1/236 640/1/237
f 553/1/163 554/1/238 511/1/239 547/1/240
f 94/1/188 117/1/241 106/1/242 103/1/189
f 105/1/243 99/1/222 98/1/221 104/1/244
f 389/1/245 515/1/246 396/1/247 390/1/248
f 114/1/229 115/1/209 47/1/200 107/1/216
f 119/1/231 130/1/249 125/1/250 120/1/210
f 42/1/121 43/1/251 23/1/39 41/1/252
f 111/1/253 113/1/254 105/1/243 104/1/244
f 262/1/255 268/1/256 254/1/257 255/1/258
f 123/1/259 124/1/260 106/1/242 117/1/241
f 295/1/261 393/1/262 392/1/263 385/1/264
f 96/1/219 193/1/175 102/1/265 97/1/228
f 96/1/219 97/1/228 89/1/227 95/1/220
f 628/1/266 638/1/267 635/1/268 627/1/269
f 354/1/270 355/1/271 314/1/272 348/1/273
f 736/1/186 754/1/161 743/1/160 737/1/274
f 93/1/275 100/1/276 101/1/217 95/1/220
f 132/1/277 133/1/278 37/1/55 125/1/250
f 134/1/84 357/1/182 126/1/118 127/1/85
f 112/1/279 149/1/280 109/1/233 108/1/232
f 22/1/38 13/1/18 12/1/17 15/1/56
f 91/1/63 116/1/62 110/1/66 100/1/276
f 135/1/281 171/1/282 172/1/283 170/1/284
f 139/1/146 35/1/77 30/1/76 133/1/278
f 77/1/132 122/1/120 83/1/20 76/1/21
f 118/1/285 157/1/286 112/1/279 113/1/254
f 111/1/253 129/1/287 118/1/285 113/1/254
f 110/1/66 343/1/65 329/1/128 330/1/127
f 226/1/288 227/1/289 220/1/110 219/1/113
f 37/1/55 133/1/278 30/1/76
f 35/1/77 71/1/148 36/1/290 31/1/75
f 556/1/291 565/1/81 548/1/80 549/1/144
f 684/1/292 732/1/293 669/1/294 678/1/295
f 128/1/296 171/1/282 135/1/281 129/1/287
f 711/1/297 712/1/298 692/1/299 704/1/300
f 311/1/301 342/1/302 308/1/303 307/1/304
f 173/1/180 224/1/305 182/1/306 174/1/307
f 442/1/308 244/1/309 245/1/310 251/1/311
f 83/1/20 122/1/120 121/1/64 116/1/62
f 356/1/183 358/1/312 340/1/313 349/1/119
f 570/1/314 571/1/315 523/1/316 561/1/317
f 96/1/219 200/1/218 201/1/172 193/1/175
f 952/1/318 957/1/319 949/1/320 947/1/321
f 329/1/128 335/1/322 316/1/323 323/1/129
f 886/1/324 906/1/325 902/1/326 897/1/327
f 218/1/328 303/1/329 210/1/330 211/1/331
f 201/1/172 211/1/331 210/1/330 202/1/173
f 191/1/332 206/1/333 199/1/334 192/1/335
f 102/1/265 193/1/175 194/1/174 186/1/336
f 715/1/30 720/1/337 684/1/292 710/1/31
f 530/1/338 557/1/339 538/1/204 531/1/340
f 210/1/330 293/1/341 203/1/342 202/1/173
f 918/1/343 982/1/344 912/1/345 913/1/346
f 392/1/263 500/1/347 384/1/348 385/1/264
f 363/1/143 542/1/145 408/1/349 409/1/350
f 1003/1/351 1004/1/352 972/1/353 997/1/354
f 491/1/355 533/1/356 532/1/357 526/1/358
f 376/1/359 388/1/360 382/1/361 377/1/362
f 337/1/363 336/1/364 316/1/323 335/1/322
f 203/1/342 294/1/365 196/1/366 195/1/367
f 408/1/349 537/1/368 401/1/369 402/1/370
f 401/1/369 537/1/368 536/1/371 529/1/372
f 128/1/296 180/1/373 181/1/374 171/1/282
f 134/1/84 555/1/83 556/1/291 549/1/144
f 728/1/375 749/1/376 734/1/377 729/1/378
f 588/1/379 536/1/371 537/1/368 543/1/380
f 233/1/381 294/1/365 273/1/382 265/1/383
f 951/1/384 959/1/385 939/1/386 945/1/387
f 210/1/330 303/1/329 287/1/388 293/1/341
f 135/1/281 170/1/284 168/1/389 164/1/390
f 196/1/366 188/1/391 187/1/392 195/1/367
f 582/1/393 588/1/379 543/1/380 583/1/79
f 65/1/149 174/1/307 175/1/394
f 65/1/149 175/1/394 176/1/395
f 1000/1/396 1008/1/397 1002/1/398 994/1/399
f 197/1/112 198/1/400 172/1/283 189/1/401
f 172/1/283 198/1/400 178/1/402 170/1/284
f 209/1/126 323/1/129 218/1/328 211/1/331
f 281/1/403 302/1/404 301/1/405 298/1/406
f 168/1/389 169/1/407 163/1/408 164/1/390
f 582/1/393 578/1/409 576/1/410 581/1/411
f 576/1/410 578/1/409 568/1/412 567/1/413
f 203/1/342 195/1/367 194/1/174 202/1/173
f 197/1/112 212/1/111 204/1/414 198/1/400
f 416/1/415 434/1/416 422/1/417 417/1/418
f 112/1/279 157/1/286 155/1/419 149/1/280
f 155/1/419 157/1/286 163/1/408 162/1/420
f 163/1/408 169/1/407 167/1/421 162/1/420
f 576/1/410 567/1/413 551/1/422 575/1/423
f 617/1/424 651/1/425 642/1/426 618/1/427
f 325/1/428 319/1/429 318/1/430 324/1/431
f 155/1/419 156/1/432 148/1/433 149/1/280
f 155/1/419 162/1/420 161/1/434 156/1/432
f 167/1/421 230/1/435 161/1/434 162/1/420
f 177/1/436 222/1/437 167/1/421 169/1/407
f 929/1/438 936/1/439 937/1/440 935/1/441
f 551/1/422 552/1/442 544/1/206 550/1/205
f 273/1/382 280/1/443 263/1/444 265/1/383
f 148/1/433 147/1/445 141/1/446 144/1/447
f 148/1/433 156/1/432 154/1/448 147/1/445
f 236/1/449 245/1/310 244/1/309 238/1/450
f 178/1/402 205/1/451 185/1/452 179/1/453
f 437/1/454 438/1/455 431/1/456 436/1/457
f 845/1/458 900/1/459 856/1/116 846/1/460
f 119/1/231 137/1/230 136/1/461 130/1/249
f 141/1/446 142/1/462 136/1/461 137/1/230
f 505/1/463 506/1/464 384/1/348 500/1/347
f 585/1/465 579/1/466 566/1/467 584/1/468
f 204/1/414 212/1/111 213/1/469
f 204/1/414 213/1/469 205/1/451
f 205/1/451 213/1/469 185/1/452
f 185/1/452 213/1/469 214/1/470
f 15/1/56 37/1/55 30/1/76 22/1/38
f 226/1/288 235/1/471 234/1/472 227/1/289
f 538/1/204 539/1/207 352/1/473 531/1/340
f 143/1/474 140/1/475 136/1/461 142/1/462
f 868/1/476 876/1/477 877/1/478 869/1/479
f 221/1/480 222/1/437 177/1/436 214/1/470
f 212/1/111 220/1/110 213/1/469
f 214/1/470 213/1/469 221/1/480
f 134/1/84 549/1/144 363/1/143 357/1/182
f 580/1/481 575/1/423 558/1/482 579/1/466
f 587/1/483 588/1/379 582/1/393 581/1/411
f 233/1/381 235/1/471 226/1/288 225/1/484
f 221/1/480 229/1/485 228/1/486 222/1/437
f 220/1/110 227/1/289 213/1/469
f 190/1/487 225/1/484 226/1/288 219/1/113
f 1011/1/488 1017/1/489 1004/1/352 1003/1/351
f 221/1/480 213/1/469 229/1/485
f 364/1/490 409/1/350 408/1/349 402/1/370
f 580/1/481 586/1/491 587/1/483 581/1/411
f 725/1/492 746/1/493 740/1/494 732/1/293
f 228/1/486 238/1/450 237/1/495 230/1/435
f 227/1/289 234/1/472 213/1/469
f 236/1/449 238/1/450 228/1/486 229/1/485
f 229/1/485 213/1/469 236/1/449
f 781/1/496 789/1/497 779/1/498 764/1/499
f 294/1/365 233/1/381 225/1/484 196/1/366
f 64/1/500 160/1/501 56/1/502 55/1/503
f 587/1/483 593/1/504 536/1/371 588/1/379
f 237/1/495 239/1/505 161/1/434 230/1/435
f 158/1/506 160/1/501 64/1/500 150/1/507
f 244/1/309 443/1/508 237/1/495 238/1/450
f 234/1/472 243/1/509 213/1/469
f 242/1/510 243/1/509 234/1/472 235/1/471
f 333/1/511 375/1/512 339/1/513 334/1/514
f 236/1/449 213/1/469 245/1/310
f 273/1/382 294/1/365 203/1/342 293/1/341
f 194/1/174 195/1/367 187/1/392 186/1/336
f 860/1/515 863/1/516 853/1/517 852/1/518
f 633/1/519 682/1/520 679/1/521 675/1/522
f 243/1/509 250/1/523 213/1/469
f 748/1/524 752/1/525 740/1/494 746/1/493
f 242/1/510 256/1/526 250/1/523 243/1/509
f 245/1/310 213/1/469 251/1/311
f 185/1/452 214/1/470 177/1/436 179/1/453
f 736/1/186 737/1/274 718/1/527 731/1/187
f 257/1/528 258/1/529 250/1/523 256/1/526
f 1015/1/87 1016/1/530 1009/1/531 1007/1/8
f 251/1/311 446/1/532 441/1/533 442/1/308
f 250/1/523 258/1/529 213/1/469
f 218/1/328 310/1/534 304/1/535 303/1/329
f 304/1/535 302/1/404 287/1/388 303/1/329
f 693/1/536 700/1/537 701/1/538 696/1/539
f 370/1/540 371/1/541 341/1/542 365/1/543
f 437/1/454 442/1/308 441/1/533 438/1/455
f 437/1/454 443/1/508 244/1/309 442/1/308
f 258/1/529 264/1/544 213/1/469
f 441/1/533 446/1/532 447/1/545 445/1/546
f 311/1/301 307/1/304 304/1/535 310/1/534
f 483/1/547 518/1/548 501/1/549 497/1/550
f 341/1/542 342/1/302 311/1/301 336/1/364
f 341/1/542 371/1/541 347/1/551 342/1/302
f 447/1/545 453/1/552 451/1/553 445/1/546
f 264/1/544 272/1/554 213/1/469
f 246/1/555 443/1/508 437/1/454 436/1/457
f 237/1/495 443/1/508 246/1/555 239/1/505
f 105/1/243 113/1/254 112/1/279 108/1/232
f 304/1/535 307/1/304 301/1/405 302/1/404
f 370/1/540 394/1/556 376/1/359 371/1/541
f 376/1/359 377/1/362 347/1/551 371/1/541
f 441/1/533 445/1/546 435/1/557 438/1/455
f 146/1/558 253/1/559 143/1/474 142/1/462
f 459/1/560 457/1/561 451/1/553 453/1/552
f 272/1/554 278/1/562 213/1/469
f 593/1/504 528/1/563 529/1/372 536/1/371
f 431/1/456 438/1/455 435/1/557 430/1/564
f 401/1/369 529/1/372 395/1/565 394/1/556
f 395/1/565 388/1/360 376/1/359 394/1/556
f 459/1/560 466/1/566 465/1/567 457/1/561
f 278/1/562 286/1/568 213/1/469
f 687/1/569 683/1/570 679/1/521 686/1/571
f 246/1/555 436/1/457 252/1/572 247/1/573
f 395/1/565 529/1/372 528/1/563 522/1/574
f 364/1/490 402/1/370 370/1/540 365/1/543
f 458/1/575 452/1/576 451/1/553 457/1/561
f 889/1/577 890/1/578 883/1/579 882/1/580
f 286/1/568 292/1/581 213/1/469
f 474/1/582 490/1/583 465/1/567 466/1/566
f 324/1/431 353/1/584 331/1/585 325/1/428
f 252/1/572 253/1/559 146/1/558 247/1/573
f 591/1/586 593/1/504 587/1/483 586/1/491
f 118/1/285 164/1/390 163/1/408 157/1/286
f 458/1/575 460/1/70 429/1/587 452/1/576
f 873/1/588 888/1/589 843/1/590 842/1/591
f 154/1/448 247/1/573 146/1/558 147/1/445
f 774/1/592 802/1/593 782/1/594 775/1/595
f 425/1/596 430/1/564 429/1/587 426/1/597
f 425/1/596 432/1/598 431/1/456 430/1/564
f 275/1/599 276/1/600 254/1/257 268/1/256
f 259/1/40 432/1/598 425/1/596 424/1/41
f 269/1/601 414/1/602 275/1/599 268/1/256
f 790/1/603 794/1/604 791/1/605 733/1/606
f 887/1/607 908/1/608 907/1/609 900/1/459
f 425/1/596 426/1/597 274/1/610 424/1/41
f 119/1/231 120/1/210 28/1/208 115/1/209
f 266/1/42 424/1/41 274/1/610 267/1/611
f 571/1/315 566/1/467 557/1/339 530/1/338
f 728/1/375 729/1/378 722/1/612 727/1/613
f 499/1/614 500/1/347 392/1/263 494/1/59
f 961/1/615 1012/1/616 991/1/11 992/1/617
f 266/1/42 261/1/618 145/1/619 260/1/43
f 143/1/474 260/1/43 145/1/619 140/1/475
f 740/1/494 741/1/620 669/1/294 732/1/293
f 530/1/338 531/1/340 359/1/152 524/1/151
f 216/1/621 318/1/430 319/1/429
f 216/1/621 319/1/429 320/1/622
f 131/1/623 132/1/277 125/1/250 130/1/249
f 128/1/296 129/1/287 111/1/253 124/1/260
f 89/1/227 88/1/191 81/1/90 87/1/89
f 952/1/318 992/1/617 962/1/624 957/1/319
f 974/1/36 975/1/625 927/1/626 967/1/37
f 495/1/627 496/1/628 465/1/567 490/1/583
f 475/1/629 476/1/630 418/1/631 468/1/68
f 136/1/461 140/1/475 131/1/623 130/1/249
f 599/1/165 602/1/164 606/1/223 605/1/226
f 347/1/551 348/1/273 308/1/303 342/1/302
f 121/1/64 349/1/119 340/1/313 343/1/65
f 1023/1/632 1027/1/633 976/1/634 1024/1/635
f 580/1/481 581/1/411 576/1/410 575/1/423
f 317/1/636 318/1/430 216/1/621 313/1/637
f 292/1/581 334/1/514 213/1/469
f 59/1/154 60/1/142 26/1/48 53/1/27
f 102/1/265 186/1/336 123/1/259 117/1/241
f 334/1/514 339/1/513 213/1/469
f 478/1/638 479/1/639 470/1/640 477/1/641
f 131/1/623 153/1/642 138/1/643 132/1/277
f 138/1/643 153/1/642 159/1/644 152/1/645
f 262/1/255 255/1/258 159/1/644 261/1/618
f 218/1/328 323/1/129 316/1/323 310/1/534
f 138/1/643 139/1/146 133/1/278 132/1/277
f 572/1/646 574/1/647 563/1/96 562/1/97
f 968/1/648 973/1/649 965/1/650 964/1/651
f 841/1/652 874/1/653 873/1/588 842/1/591
f 756/1/654 784/1/655 750/1/656 749/1/376
f 344/1/657 351/1/658 345/1/659
f 344/1/657 350/1/660 351/1/658
f 11/1/125 21/1/203 2/1/176 4/1/101
f 423/1/69 468/1/68 418/1/631 419/1/661
f 687/1/569 688/1/662 670/1/663 683/1/570
f 45/1/5 69/1/14 52/1/26 44/1/23
f 970/1/664 1027/1/633 1025/1/665 1026/1/666
f 102/1/265 117/1/241 94/1/188 97/1/228
f 295/1/261 296/1/667 231/1/668 289/1/669
f 266/1/42 267/1/611 262/1/255 261/1/618
f 416/1/415 417/1/418 386/1/670 412/1/671
f 36/1/290 71/1/148 64/1/500 55/1/503
f 79/1/147 150/1/507 64/1/500 71/1/148
f 159/1/644 255/1/258 151/1/672 152/1/645
f 79/1/147 152/1/645 151/1/672 150/1/507
f 924/1/673 950/1/674 916/1/675 917/1/676
f 317/1/636 366/1/194 367/1/150 360/1/153
f 503/1/677 609/1/678 510/1/225 504/1/679
f 491/1/355 526/1/358 519/1/680 518/1/548
f 151/1/672 255/1/258 254/1/257 249/1/681
f 262/1/255 267/1/611 269/1/601 268/1/256
f 523/1/316 571/1/315 530/1/338 524/1/151
f 523/1/316 524/1/151 367/1/150 517/1/193
f 507/1/682 495/1/627 497/1/550 501/1/549
f 252/1/572 436/1/457 431/1/456 432/1/598
f 1026/1/666 963/1/683 966/1/684 970/1/664
f 291/1/685 284/1/686 271/1/687 290/1/688
f 570/1/314 584/1/468 566/1/467 571/1/315
f 660/1/689 659/1/690 654/1/691 655/1/692
f 462/1/104 477/1/641 470/1/640 463/1/693
f 101/1/217 330/1/127 209/1/126 200/1/218
f 339/1/513 381/1/694 213/1/469
f 275/1/599 414/1/602 413/1/695 407/1/696
f 418/1/631 476/1/630 413/1/695 414/1/602
f 637/1/697 638/1/267 628/1/266 629/1/698
f 182/1/306 183/1/699 175/1/394 174/1/307
f 462/1/104 463/1/693 455/1/700 461/1/105
f 381/1/694 386/1/670 213/1/469
f 420/1/701 502/1/702 503/1/677 498/1/703
f 481/1/704 482/1/705 413/1/695 476/1/630
f 413/1/695 482/1/705 406/1/706 407/1/696
f 597/1/707 592/1/708 590/1/709 596/1/710
f 597/1/707 598/1/711 591/1/586 592/1/708
f 493/1/58 535/1/712 499/1/614 494/1/59
f 178/1/402 179/1/453 168/1/389 170/1/284
f 488/1/713 489/1/61 406/1/706 482/1/705
f 382/1/361 390/1/248 387/1/714 383/1/715
f 501/1/549 518/1/548 519/1/680 513/1/716
f 519/1/680 520/1/717 481/1/704 513/1/716
f 451/1/553 452/1/576 435/1/557 445/1/546
f 598/1/711 521/1/718 522/1/574 528/1/563
f 181/1/374 189/1/401 172/1/283 171/1/282
f 254/1/257 276/1/600 248/1/719 249/1/681
f 518/1/548 483/1/547 484/1/103 491/1/355
f 312/1/720 366/1/194 317/1/636 313/1/637
f 395/1/565 522/1/574 389/1/245 388/1/360
f 389/1/245 522/1/574 521/1/718 515/1/246
f 151/1/672 249/1/681 158/1/506 150/1/507
f 158/1/506 249/1/681 248/1/719 241/1/721
f 568/1/412 569/1/722 559/1/723 567/1/413
f 525/1/724 527/1/725 488/1/713 520/1/717
f 953/1/726 954/1/727 946/1/728 950/1/674
f 503/1/677 504/1/679 486/1/729 498/1/703
f 716/1/730 735/1/731 730/1/184 723/1/732
f 24/1/71 33/1/25 32/1/24 25/1/49
f 329/1/128 343/1/65 340/1/313 335/1/322
f 449/1/733 461/1/105 455/1/700 450/1/734
f 467/1/67 507/1/682 475/1/629 468/1/68
f 386/1/670 417/1/418 213/1/469
f 347/1/551 377/1/362 354/1/270 348/1/273
f 433/1/735 487/1/736 464/1/737 456/1/738
f 93/1/275 87/1/89 74/1/33 92/1/32
f 534/1/739 612/1/51 540/1/50 535/1/712
f 417/1/418 422/1/417 213/1/469
f 449/1/733 450/1/734 444/1/108 448/1/107
f 719/1/740 775/1/595 726/1/741 721/1/742
f 308/1/303 348/1/273 314/1/272 309/1/743
f 109/1/233 144/1/447 114/1/229 107/1/216
f 698/1/744 745/1/745 690/1/746 691/1/747
f 909/1/748 915/1/749 914/1/750 910/1/751
f 464/1/737 487/1/736 486/1/729 485/1/752
f 934/1/114 944/1/753 857/1/754 938/1/115
f 314/1/272 315/1/755 297/1/756 309/1/743
f 892/1/757 893/1/758 872/1/759 884/1/760
f 287/1/388 302/1/404 281/1/403 280/1/443
f 454/1/761 471/1/762 449/1/733 448/1/107
f 454/1/761 473/1/763 472/1/764 471/1/762
f 920/1/765 981/1/136 926/1/135 919/1/766
f 277/1/767 298/1/406 297/1/756 290/1/688
f 273/1/382 293/1/341 287/1/388 280/1/443
f 263/1/444 280/1/443 281/1/403 279/1/768
f 881/1/769 933/1/770 932/1/771 928/1/772
f 487/1/736 433/1/735 428/1/773 427/1/774
f 422/1/417 440/1/109 213/1/469
f 331/1/585 346/1/775 338/1/776 332/1/777
f 794/1/604 793/1/778 787/1/779 792/1/780
f 887/1/607 900/1/459 845/1/458 844/1/781
f 274/1/610 426/1/597 423/1/69 419/1/661
f 440/1/109 444/1/108 213/1/469
f 439/1/106 440/1/109 422/1/417 434/1/416
f 251/1/311 213/1/469 446/1/532
f 308/1/303 309/1/743 301/1/405 307/1/304
f 446/1/532 213/1/469 447/1/545
f 942/1/782 948/1/783 937/1/440 936/1/439
f 444/1/108 450/1/734 213/1/469
f 646/1/236 649/1/235 656/1/784 655/1/692
f 277/1/767 290/1/688 271/1/687 270/1/785
f 447/1/545 213/1/469 453/1/552
f 433/1/735 456/1/738 439/1/106 434/1/416
f 546/1/786 547/1/240 505/1/463 541/1/787
f 450/1/734 455/1/700 213/1/469
f 340/1/313 358/1/312 337/1/363 335/1/322
f 380/1/788 412/1/671 386/1/670 381/1/694
f 646/1/236 655/1/692 654/1/691 647/1/789
f 929/1/438 930/1/117 907/1/609 922/1/790
f 453/1/552 213/1/469 459/1/560
f 462/1/104 484/1/103 483/1/547 477/1/641
f 455/1/700 463/1/693 213/1/469
f 396/1/247 509/1/791 410/1/792 403/1/793
f 464/1/737 473/1/763 454/1/761 456/1/738
f 356/1/183 409/1/350 364/1/490 358/1/312
f 291/1/685 322/1/794 285/1/795 284/1/686
f 459/1/560 213/1/469 466/1/566
f 321/1/796 322/1/794 291/1/685 315/1/755
f 314/1/272 355/1/271 321/1/796 315/1/755
f 411/1/797 428/1/773 416/1/415 412/1/671
f 411/1/797 412/1/671 380/1/788 405/1/798
f 463/1/693 470/1/640 213/1/469
f 1017/1/489 1024/1/635 976/1/634 1004/1/352
f 382/1/361 383/1/715 354/1/270 377/1/362
f 427/1/774 428/1/773 411/1/797 421/1/799
f 466/1/566 213/1/469 474/1/582
f 624/1/800 680/1/801 633/1/519 623/1/802
f 354/1/270 383/1/715 361/1/803 355/1/271
f 361/1/803 362/1/804 321/1/796 355/1/271
f 566/1/467 579/1/466 558/1/482 557/1/339
f 470/1/640 479/1/639 213/1/469
f 479/1/639 474/1/582 213/1/469
f 333/1/511 334/1/514 292/1/581 328/1/805
f 738/1/806 762/1/807 744/1/808 739/1/809
f 427/1/774 498/1/703 486/1/729 487/1/736
f 387/1/714 391/1/810 361/1/803 383/1/715
f 449/1/733 471/1/762 469/1/102 461/1/105
f 374/1/811 405/1/798 380/1/788 375/1/512
f 374/1/811 375/1/512 333/1/511 369/1/812
f 464/1/737 485/1/752 480/1/813 473/1/763
f 472/1/764 545/1/814 532/1/357 533/1/356
f 946/1/728 947/1/321 942/1/782 943/1/815
f 396/1/247 403/1/793 387/1/714 390/1/248
f 469/1/102 533/1/356 491/1/355 484/1/103
f 404/1/816 421/1/799 411/1/797 405/1/798
f 492/1/817 614/1/818 480/1/813 485/1/752
f 508/1/819 609/1/678 503/1/677 502/1/702
f 396/1/247 515/1/246 514/1/820 509/1/791
f 521/1/718 603/1/821 514/1/820 515/1/246
f 892/1/757 899/1/822 880/1/823 893/1/758
f 327/1/824 369/1/812 333/1/511 328/1/805
f 321/1/796 362/1/804 327/1/824 322/1/794
f 601/1/825 603/1/821 597/1/707 596/1/710
f 601/1/825 607/1/826 514/1/820 603/1/821
f 368/1/827 398/1/828 374/1/811 369/1/812
f 368/1/827 369/1/812 327/1/824 362/1/804
f 613/1/829 615/1/830 532/1/357 545/1/814
f 480/1/813 614/1/818 613/1/829 545/1/814
f 271/1/687 284/1/686 278/1/562 272/1/554
f 595/1/831 596/1/710 590/1/709 589/1/832
f 361/1/803 391/1/810 368/1/827 362/1/804
f 525/1/724 615/1/830 534/1/739 527/1/725
f 534/1/739 615/1/830 613/1/829 612/1/51
f 610/1/52 614/1/818 492/1/817 611/1/224
f 613/1/829 614/1/818 610/1/52 612/1/51
f 757/1/833 776/1/834 771/1/835 763/1/836
f 297/1/756 315/1/755 291/1/685 290/1/688
f 662/1/837 678/1/295 669/1/294 663/1/838
f 534/1/739 535/1/712 493/1/58 527/1/725
f 615/1/830 525/1/724 526/1/358 532/1/357
f 560/1/839 561/1/317 516/1/840 554/1/238
f 713/1/44 768/1/841 719/1/740 714/1/29
f 501/1/549 513/1/716 475/1/629 507/1/682
f 397/1/842 415/1/843 404/1/816 398/1/828
f 327/1/824 328/1/805 285/1/795 322/1/794
f 875/1/844 940/1/845 939/1/386 933/1/770
f 516/1/840 517/1/193 373/1/192 512/1/846
f 86/1/190 90/1/199 66/1/156 82/1/155
f 956/1/847 984/1/848 983/1/849 978/1/35
f 410/1/792 415/1/843 397/1/842 403/1/793
f 435/1/557 452/1/576 429/1/587 430/1/564
f 652/1/213 702/1/850 643/1/851 644/1/852
f 478/1/638 497/1/550 495/1/627 490/1/583
f 519/1/680 526/1/358 525/1/724 520/1/717
f 410/1/792 502/1/702 420/1/701 415/1/843
f 420/1/701 421/1/799 404/1/816 415/1/843
f 420/1/701 498/1/703 427/1/774 421/1/799
f 439/1/106 456/1/738 454/1/761 448/1/107
f 106/1/242 124/1/260 111/1/253 104/1/244
f 288/1/853 289/1/669 240/1/854 283/1/855
f 248/1/719 283/1/855 240/1/854 241/1/721
f 312/1/720 313/1/637 207/1/856 306/1/857
f 21/1/203 14/1/57 6/1/157 2/1/176
f 604/1/858 607/1/826 601/1/825 600/1/859
f 604/1/858 609/1/678 508/1/819 607/1/826
f 158/1/506 241/1/721 165/1/178 160/1/501
f 165/1/178 241/1/721 240/1/854 232/1/179
f 207/1/856 208/1/860 199/1/334 206/1/333
f 599/1/165 600/1/859 595/1/831 594/1/166
f 599/1/165 605/1/226 604/1/858 600/1/859
f 734/1/377 746/1/493 725/1/492 729/1/378
f 165/1/178 166/1/181 56/1/502 160/1/501
f 642/1/426 641/1/861 632/1/862 618/1/427
f 86/1/190 103/1/189 98/1/221 90/1/199
f 553/1/163 594/1/166 560/1/839 554/1/238
f 36/1/290 55/1/503 48/1/137 41/1/252
f 56/1/502 57/1/138 48/1/137 55/1/503
f 215/1/863 306/1/857 207/1/856 206/1/333
f 191/1/332 217/1/864 215/1/863 206/1/333
f 191/1/332 192/1/335 184/1/865 183/1/699
f 716/1/730 723/1/732 705/1/866 709/1/212
f 510/1/225 611/1/224 492/1/817 504/1/679
f 16/1/73 17/1/72 8/1/100 9/1/99
f 41/1/252 48/1/137 49/1/122 42/1/121
f 556/1/291 564/1/867 565/1/81
f 429/1/587 460/1/70 423/1/69 426/1/597
f 305/1/868 306/1/857 215/1/863 300/1/869
f 175/1/394 183/1/699 184/1/865 176/1/395
f 378/1/870 512/1/846 373/1/192 372/1/871
f 511/1/239 512/1/846 378/1/870 506/1/464
f 681/1/872 689/1/873 685/1/874 682/1/520
f 42/1/121 51/1/123 50/1/875 43/1/251
f 564/1/867 573/1/876 565/1/81
f 564/1/867 563/1/96 574/1/647
f 695/1/877 697/1/878 689/1/873 681/1/872
f 271/1/687 272/1/554 264/1/544 270/1/785
f 573/1/876 577/1/78 565/1/81
f 56/1/502 166/1/181 65/1/149 57/1/138
f 569/1/722 568/1/412 577/1/78
f 568/1/412 578/1/409 577/1/78
f 182/1/306 224/1/305 223/1/879 217/1/864
f 582/1/393 583/1/79 577/1/78 578/1/409
f 173/1/180 174/1/307 65/1/149 166/1/181
f 667/1/880 752/1/525 724/1/881 717/1/882
f 772/1/883 770/1/884 743/1/160 765/1/159
f 299/1/885 300/1/869 223/1/879 296/1/667
f 299/1/885 379/1/886 305/1/868 300/1/869
f 173/1/180 232/1/179 231/1/668 224/1/305
f 20/1/202 21/1/203 11/1/125 19/1/171
f 231/1/668 296/1/667 223/1/879 224/1/305
f 299/1/885 385/1/264 384/1/348 379/1/886
f 384/1/348 506/1/464 378/1/870 379/1/886
f 138/1/643 152/1/645 79/1/147 139/1/146
f 295/1/261 385/1/264 299/1/885 296/1/667
f 288/1/853 393/1/262 295/1/261 289/1/669
f 505/1/463 547/1/240 511/1/239 506/1/464
f 305/1/868 372/1/871 312/1/720 306/1/857
f 980/1/887 981/1/136 920/1/765 975/1/625
f 785/1/888 786/1/889 769/1/890 777/1/891
f 399/1/60 494/1/59 392/1/263 393/1/262
f 546/1/786 602/1/164 553/1/163 547/1/240
f 259/1/40 260/1/43 143/1/474 253/1/559
f 499/1/614 541/1/787 505/1/463 500/1/347
f 285/1/795 286/1/568 278/1/562 284/1/686
f 204/1/414 205/1/451 178/1/402 198/1/400
f 404/1/816 405/1/798 374/1/811 398/1/828
f 669/1/294 741/1/620 660/1/689 663/1/838
f 511/1/239 554/1/238 516/1/840 512/1/846
f 546/1/786 608/1/53 606/1/223 602/1/164
f 610/1/52 611/1/224 606/1/223 608/1/53
f 397/1/842 398/1/828 368/1/827 391/1/810
f 480/1/813 545/1/814 472/1/764 473/1/763
f 1020/1/892 953/1/726 958/1/893 963/1/683
f 510/1/225 609/1/678 604/1/858 605/1/226
f 106/1/242 104/1/244 98/1/221 103/1/189
f 898/1/894 899/1/822 892/1/757 897/1/327
f 387/1/714 403/1/793 397/1/842 391/1/810
f 916/1/675 950/1/674 946/1/728 943/1/815
f 718/1/527 739/1/809 698/1/744 712/1/298
f 616/1/895 617/1/424 618/1/427
f 616/1/895 619/1/896 617/1/424
f 616/1/895 620/1/897 619/1/896
f 616/1/895 621/1/898 620/1/897
f 616/1/895 622/1/899 621/1/898
f 616/1/895 623/1/802 622/1/899
f 616/1/895 624/1/800 623/1/802
f 616/1/895 625/1/900 624/1/800
f 616/1/895 626/1/901 625/1/900
f 616/1/895 627/1/269 626/1/901
f 616/1/895 628/1/266 627/1/269
f 616/1/895 629/1/698 628/1/266
f 616/1/895 630/1/902 629/1/698
f 616/1/895 631/1/903 630/1/902
f 616/1/895 618/1/427 632/1/862
f 616/1/895 632/1/862 631/1/903
f 331/1/585 353/1/584 352/1/473 346/1/775
f 856/1/116 938/1/115 847/1/904 846/1/460
f 938/1/115 857/1/754 848/1/905 847/1/904
f 240/1/854 289/1/669 231/1/668 232/1/179
f 858/1/906 861/1/907 851/1/908 850/1/909
f 849/1/910 859/1/911 858/1/906 850/1/909
f 851/1/908 861/1/907 860/1/515 852/1/518
f 664/1/912 683/1/570 670/1/663 665/1/913
f 862/1/914 864/1/915 855/1/916 854/1/917
f 853/1/517 863/1/516 862/1/914 854/1/917
f 865/1/918 840/1/919 855/1/916 864/1/915
f 865/1/918 874/1/653 841/1/652 840/1/919
f 857/1/754 944/1/753 866/1/920 859/1/911
f 866/1/920 867/1/921 858/1/906 859/1/911
f 858/1/906 867/1/921 868/1/476 861/1/907
f 868/1/476 869/1/479 860/1/515 861/1/907
f 870/1/922 871/1/923 862/1/914 863/1/516
f 860/1/515 869/1/479 870/1/922 863/1/516
f 862/1/914 871/1/923 872/1/759 864/1/915
f 872/1/759 893/1/758 865/1/918 864/1/915
f 274/1/610 419/1/661 269/1/601 267/1/611
f 324/1/431 360/1/153 359/1/152 353/1/584
f 875/1/844 876/1/477 868/1/476 867/1/921
f 866/1/920 940/1/845 875/1/844 867/1/921
f 877/1/478 878/1/924 870/1/922 869/1/479
f 937/1/440 945/1/387 941/1/925 935/1/441
f 879/1/926 884/1/760 872/1/759 871/1/923
f 879/1/926 871/1/923 870/1/922 878/1/924
f 585/1/465 592/1/708 591/1/586 586/1/491
f 893/1/758 880/1/823 874/1/653 865/1/918
f 875/1/844 933/1/770 881/1/769 876/1/477
f 312/1/720 372/1/871 373/1/192 366/1/194
f 877/1/478 882/1/580 883/1/579 878/1/924
f 257/1/528 270/1/785 264/1/544 258/1/529
f 282/1/927 283/1/855 248/1/719 276/1/600
f 918/1/343 988/1/928 977/1/929 982/1/344
f 1018/1/930 1019/1/931 1013/1/88 1012/1/616
f 916/1/675 943/1/815 923/1/932 915/1/749
f 881/1/769 928/1/772 889/1/577 882/1/580
f 881/1/769 882/1/580 877/1/478 876/1/477
f 123/1/259 180/1/373 128/1/296 124/1/260
f 389/1/245 390/1/248 382/1/361 388/1/360
f 891/1/933 906/1/325 886/1/324 885/1/934
f 883/1/579 890/1/578 891/1/933 885/1/934
f 894/1/935 908/1/608 887/1/607 888/1/589
f 359/1/152 531/1/340 352/1/473 353/1/584
f 540/1/50 608/1/53 546/1/786 541/1/787
f 410/1/792 509/1/791 508/1/819 502/1/702
f 898/1/894 903/1/936 901/1/937 899/1/822
f 880/1/823 899/1/822 901/1/937 895/1/938
f 667/1/880 717/1/882 658/1/211 659/1/690
f 902/1/326 905/1/95 898/1/894 897/1/327
f 907/1/609 930/1/117 856/1/116 900/1/459
f 242/1/510 265/1/383 263/1/444 256/1/526
f 646/1/236 647/1/789 637/1/697 640/1/237
f 301/1/405 309/1/743 297/1/756 298/1/406
f 969/1/939 902/1/326 906/1/325 912/1/345
f 891/1/933 913/1/346 912/1/345 906/1/325
f 929/1/438 935/1/441 934/1/114 930/1/117
f 639/1/234 640/1/237 630/1/902 631/1/903
f 914/1/750 922/1/790 907/1/609 908/1/608
f 914/1/750 908/1/608 894/1/935 910/1/751
f 282/1/927 400/1/940 288/1/853 283/1/855
f 923/1/932 936/1/439 929/1/438 922/1/790
f 972/1/353 1004/1/352 976/1/634 971/1/941
f 931/1/942 966/1/684 963/1/683 958/1/893
f 72/1/197 99/1/222 80/1/215 73/1/198
f 941/1/925 944/1/753 934/1/114 935/1/441
f 281/1/403 298/1/406 277/1/767 279/1/768
f 866/1/920 944/1/753 941/1/925 940/1/845
f 923/1/932 943/1/815 942/1/782 936/1/439
f 927/1/626 975/1/625 920/1/765 921/1/943
f 516/1/840 561/1/317 523/1/316 517/1/193
f 288/1/853 400/1/940 399/1/60 393/1/262
f 904/1/94 917/1/676 909/1/748 903/1/936
f 924/1/673 958/1/893 953/1/726 950/1/674
f 941/1/925 945/1/387 939/1/386 940/1/845
f 135/1/281 164/1/390 118/1/285 129/1/287
f 706/1/46 707/1/45 701/1/538 700/1/537
f 904/1/94 925/1/93 924/1/673 917/1/676
f 902/1/326 969/1/939 911/1/92 905/1/95
f 337/1/363 365/1/543 341/1/542 336/1/364
f 364/1/490 365/1/543 337/1/363 358/1/312
f 948/1/783 951/1/384 945/1/387 937/1/440
f 931/1/942 958/1/893 924/1/673 925/1/93
f 911/1/92 964/1/651 931/1/942 925/1/93
f 911/1/92 969/1/939 968/1/648 964/1/651
f 912/1/345 982/1/344 968/1/648 969/1/939
f 91/1/63 100/1/276 93/1/275 92/1/32
f 939/1/386 959/1/385 932/1/771 933/1/770
f 909/1/748 917/1/676 916/1/675 915/1/749
f 949/1/320 948/1/783 942/1/782 947/1/321
f 406/1/706 489/1/61 399/1/60 400/1/940
f 965/1/650 966/1/684 931/1/942 964/1/651
f 190/1/487 189/1/401 181/1/374 188/1/391
f 889/1/577 928/1/772 927/1/626 921/1/943
f 540/1/50 541/1/787 499/1/614 535/1/712
f 1001/1/944 1010/1/945 1009/1/531 1000/1/396
f 558/1/482 575/1/423 551/1/422 550/1/205
f 977/1/929 997/1/354 972/1/353 973/1/649
f 965/1/650 973/1/649 972/1/353 971/1/941
f 996/1/946 997/1/354 977/1/929 988/1/928
f 960/1/34 967/1/37 932/1/771 959/1/385
f 676/1/947 696/1/539 673/1/167 674/1/948
f 857/1/754 859/1/911 849/1/910 848/1/905
f 637/1/697 647/1/789 645/1/949 638/1/267
f 988/1/928 926/1/135 995/1/134 996/1/946
f 926/1/135 988/1/928 918/1/343 919/1/766
f 956/1/847 978/1/35 960/1/34 955/1/950
f 949/1/320 957/1/319 956/1/847 955/1/950
f 275/1/599 407/1/696 282/1/927 276/1/600
f 896/1/951 919/1/766 918/1/343 913/1/346
f 896/1/951 913/1/346 891/1/933 890/1/578
f 560/1/839 594/1/166 595/1/831 589/1/832
f 187/1/392 188/1/391 181/1/374 180/1/373
f 643/1/851 702/1/850 697/1/878 695/1/877
f 962/1/624 984/1/848 956/1/847 957/1/319
f 141/1/446 147/1/445 146/1/558 142/1/462
f 946/1/728 954/1/727 952/1/318 947/1/321
f 963/1/683 1026/1/666 1018/1/930 1020/1/892
f 495/1/627 507/1/682 467/1/67 496/1/628
f 896/1/951 921/1/943 920/1/765 919/1/766
f 209/1/126 211/1/331 201/1/172 200/1/218
f 91/1/63 92/1/32 68/1/15 84/1/19
f 914/1/750 915/1/749 923/1/932 922/1/790
f 488/1/713 527/1/725 493/1/58 489/1/61
f 994/1/399 995/1/134 986/1/133 993/1/952
f 994/1/399 1002/1/398 996/1/946 995/1/134
f 585/1/465 586/1/491 580/1/481 579/1/466
f 263/1/444 279/1/768 257/1/528 256/1/526
f 190/1/487 219/1/113 197/1/112 189/1/401
f 962/1/624 990/1/13 989/1/953 984/1/848
f 39/1/196 40/1/201 19/1/171 34/1/141
f 677/1/169 710/1/31 684/1/292 678/1/295
f 207/1/856 313/1/637 216/1/621 208/1/860
f 949/1/320 955/1/950 951/1/384 948/1/783
f 145/1/619 153/1/642 131/1/623 140/1/475
f 168/1/389 179/1/453 177/1/436 169/1/407
f 31/1/75 23/1/39 22/1/38 30/1/76
f 985/1/954 987/1/955 980/1/887 979/1/956
f 993/1/952 1001/1/944 1000/1/396 994/1/399
f 962/1/624 992/1/617 991/1/11 990/1/13
f 478/1/638 490/1/583 474/1/582 479/1/639
f 346/1/775 352/1/473 350/1/660 344/1/657
f 433/1/735 434/1/416 416/1/415 428/1/773
f 110/1/66 330/1/127 101/1/217 100/1/276
f 991/1/11 1012/1/616 1013/1/88 1006/1/12
f 331/1/585 332/1/777 326/1/957 325/1/428
f 1006/1/12 1015/1/87 1007/1/8 998/1/7
f 685/1/874 691/1/747 690/1/746 686/1/571
f 976/1/634 1027/1/633 970/1/664 971/1/941
f 961/1/615 1020/1/892 1018/1/930 1012/1/616
f 590/1/709 584/1/468 570/1/314 589/1/832
f 607/1/826 508/1/819 509/1/791 514/1/820
f 363/1/143 409/1/350 356/1/183 357/1/182
f 801/1/958 797/1/959 785/1/888 799/1/960
f 228/1/486 230/1/435 167/1/421 222/1/437
f 1003/1/351 1002/1/398 1008/1/397 1011/1/488
f 558/1/482 550/1/205 538/1/204 557/1/339
f 551/1/422 567/1/413 559/1/723 552/1/442
f 790/1/603 793/1/778 794/1/604
f 1009/1/531 1016/1/530 1008/1/397 1000/1/396
f 789/1/497 793/1/778 795/1/961
f 380/1/788 381/1/694 339/1/513 375/1/512
f 790/1/603 796/1/962 793/1/778
f 795/1/961 793/1/778 798/1/963
f 1019/1/931 1021/1/964 1014/1/86 1013/1/88
f 657/1/965 666/1/966 642/1/426 651/1/425
f 796/1/962 800/1/967 793/1/778
f 1018/1/930 1026/1/666 1025/1/665 1019/1/931
f 590/1/709 592/1/708 585/1/465 584/1/468
f 798/1/963 793/1/778 803/1/968
f 223/1/879 300/1/869 215/1/863 217/1/864
f 648/1/969 649/1/235 639/1/234 641/1/861
f 800/1/967 804/1/970 793/1/778
f 1027/1/633 1023/1/632 1022/1/971 1025/1/665
f 793/1/778 804/1/970 803/1/968
f 805/1/972 806/1/973 807/1/974
f 805/1/972 808/1/975 806/1/973
f 807/1/974 806/1/973 809/1/976
f 808/1/975 810/1/977 806/1/973
f 809/1/976 806/1/973 811/1/978
f 810/1/977 812/1/979 806/1/973
f 811/1/978 806/1/973 813/1/980
f 812/1/979 814/1/981 806/1/973
f 813/1/980 806/1/973 815/1/982
f 814/1/981 816/1/983 806/1/973
f 815/1/982 806/1/973 817/1/984
f 816/1/983 818/1/985 806/1/973
f 818/1/985 819/1/986 806/1/973
f 819/1/986 820/1/987 806/1/973
f 820/1/987 821/1/988 806/1/973
f 821/1/988 822/1/989 806/1/973
f 822/1/989 823/1/990 806/1/973
f 823/1/990 824/1/991 806/1/973
f 824/1/991 825/1/992 806/1/973
f 825/1/992 826/1/993 806/1/973
f 826/1/993 827/1/994 806/1/973
f 827/1/994 828/1/995 806/1/973
f 828/1/995 829/1/996 806/1/973
f 829/1/996 830/1/997 806/1/973
f 830/1/997 831/1/998 806/1/973
f 831/1/998 832/1/999 806/1/973
f 832/1/999 833/1/1000 806/1/973
f 833/1/1000 834/1/1001 806/1/973
f 834/1/1001 835/1/1002 806/1/973
f 806/1/973 835/1/1002 836/1/1003
f 806/1/973 836/1/1003 837/1/1004
f 806/1/973 837/1/1004 838/1/1005
f 839/1/1006 840/1/919 841/1/652
f 839/1/1006 841/1/652 842/1/591
f 839/1/1006 842/1/591 843/1/590
f 839/1/1006 843/1/590 844/1/781
f 839/1/1006 844/1/781 845/1/458
f 839/1/1006 845/1/458 846/1/460
f 839/1/1006 846/1/460 847/1/904
f 839/1/1006 847/1/904 848/1/905
f 839/1/1006 848/1/905 849/1/910
f 839/1/1006 849/1/910 850/1/909
f 839/1/1006 850/1/909 851/1/908
f 839/1/1006 851/1/908 852/1/518
f 839/1/1006 852/1/518 853/1/517
f 839/1/1006 853/1/517 854/1/917
f 839/1/1006 855/1/916 840/1/919
f 839/1/1006 854/1/917 855/1/916
f 633/1/519 675/1/522 622/1/899 623/1/802
f 109/1/233 149/1/280 148/1/433 144/1/447
f 125/1/250 37/1/55 29/1/54 120/1/210
f 626/1/901 636/1/1007 634/1/1008 625/1/900
f 182/1/306 217/1/864 191/1/332 183/1/699
f 879/1/926 885/1/934 886/1/324 884/1/760
f 630/1/902 640/1/237 637/1/697 629/1/698
f 123/1/259 186/1/336 187/1/392 180/1/373
f 338/1/776 346/1/775 344/1/657 345/1/659
f 564/1/867 556/1/291 555/1/83 563/1/96
f 726/1/741 727/1/613 722/1/612 721/1/742
f 791/1/605 756/1/654 749/1/376 728/1/375
f 257/1/528 279/1/768 277/1/767 270/1/785
f 305/1/868 379/1/886 378/1/870 372/1/871
f 635/1/268 636/1/1007 626/1/901 627/1/269
f 601/1/825 596/1/710 595/1/831 600/1/859
f 648/1/969 661/1/1009 656/1/784 649/1/235
f 772/1/883 779/1/498 778/1/1010 777/1/891
f 408/1/349 542/1/145 543/1/380 537/1/368
f 370/1/540 402/1/370 401/1/369 394/1/556
f 650/1/1011 651/1/425 617/1/424 619/1/896
f 620/1/897 665/1/913 650/1/1011 619/1/896
f 932/1/771 967/1/37 927/1/626 928/1/772
f 886/1/324 897/1/327 892/1/757 884/1/760
f 645/1/949 644/1/852 635/1/268 638/1/267
f 645/1/949 647/1/789 654/1/691 653/1/214
f 880/1/823 895/1/938 873/1/588 874/1/653
f 643/1/851 695/1/877 634/1/1008 636/1/1007
f 650/1/1011 671/1/1012 657/1/965 651/1/425
f 233/1/381 265/1/383 242/1/510 235/1/471
f 486/1/729 504/1/679 492/1/817 485/1/752
f 654/1/691 659/1/690 658/1/211 653/1/214
f 591/1/586 598/1/711 528/1/563 593/1/504
f 656/1/784 663/1/838 660/1/689 655/1/692
f 662/1/837 663/1/838 656/1/784 661/1/1009
f 664/1/912 665/1/913 620/1/897 621/1/898
f 622/1/899 675/1/522 664/1/912 621/1/898
f 741/1/620 667/1/880 659/1/690 660/1/689
f 481/1/704 520/1/717 488/1/713 482/1/705
f 18/1/74 10/1/124 8/1/100 17/1/72
f 74/1/33 75/1/91 52/1/26 69/1/14
f 668/1/1013 672/1/170 662/1/837 661/1/1009
f 648/1/969 666/1/966 668/1/1013 661/1/1009
f 657/1/965 674/1/948 668/1/1013 666/1/966
f 982/1/344 977/1/929 973/1/649 968/1/648
f 670/1/663 671/1/1012 650/1/1011 665/1/913
f 740/1/494 752/1/525 667/1/880 741/1/620
f 645/1/949 653/1/214 652/1/213 644/1/852
f 668/1/1013 674/1/948 673/1/167 672/1/170
f 670/1/663 688/1/662 676/1/947 671/1/1012
f 676/1/947 674/1/948 657/1/965 671/1/1012
f 909/1/748 910/1/751 901/1/937 903/1/936
f 951/1/384 955/1/950 960/1/34 959/1/385
f 677/1/169 678/1/295 662/1/837 672/1/170
f 701/1/538 703/1/168 673/1/167 696/1/539
f 679/1/521 683/1/570 664/1/912 675/1/522
f 161/1/434 239/1/505 154/1/448 156/1/432
f 898/1/894 905/1/95 904/1/94 903/1/936
f 693/1/536 696/1/539 676/1/947 688/1/662
f 708/1/28 703/1/168 701/1/538 707/1/45
f 708/1/28 710/1/31 677/1/169 703/1/168
f 269/1/601 419/1/661 418/1/631 414/1/602
f 317/1/636 360/1/153 324/1/431 318/1/430
f 496/1/628 467/1/67 460/1/70 458/1/575
f 705/1/866 704/1/300 697/1/878 702/1/850
f 687/1/569 694/1/1014 693/1/536 688/1/662
f 699/1/1015 700/1/537 693/1/536 694/1/1014
f 725/1/492 732/1/293 684/1/292 720/1/337
f 799/1/960 778/1/1010 795/1/961 798/1/963
f 326/1/957 320/1/622 319/1/429 325/1/428
f 690/1/746 694/1/1014 687/1/569 686/1/571
f 745/1/745 699/1/1015 694/1/1014 690/1/746
f 699/1/1015 755/1/1016 706/1/46 700/1/537
f 81/1/90 82/1/155 59/1/154 75/1/91
f 734/1/377 751/1/1017 748/1/524 746/1/493
f 548/1/80 583/1/79 543/1/380 542/1/145
f 748/1/524 758/1/1018 724/1/881 752/1/525
f 465/1/567 496/1/628 458/1/575 457/1/561
f 114/1/229 144/1/447 141/1/446 137/1/230
f 685/1/874 686/1/571 679/1/521 682/1/520
f 52/1/26 75/1/91 59/1/154 53/1/27
f 66/1/156 67/1/195 27/1/140 60/1/142
f 724/1/881 735/1/731 716/1/730 717/1/882
f 658/1/211 717/1/882 716/1/730 709/1/212
f 285/1/795 328/1/805 292/1/581 286/1/568
f 681/1/872 682/1/520 633/1/519 680/1/801
f 685/1/874 689/1/873 692/1/299 691/1/747
f 634/1/1008 695/1/877 681/1/872 680/1/801
f 652/1/213 709/1/212 705/1/866 702/1/850
f 475/1/629 513/1/716 481/1/704 476/1/630
f 282/1/927 407/1/696 406/1/706 400/1/940
f 597/1/707 603/1/821 521/1/718 598/1/711
f 697/1/878 704/1/300 692/1/299 689/1/873
f 889/1/577 921/1/943 896/1/951 890/1/578
f 953/1/726 1020/1/892 961/1/615 954/1/727
f 692/1/299 712/1/298 698/1/744 691/1/747
f 744/1/808 745/1/745 698/1/744 739/1/809
f 744/1/808 755/1/1016 699/1/1015 745/1/745
f 316/1/323 336/1/364 311/1/301 310/1/534
f 252/1/572 432/1/598 259/1/40 253/1/559
f 705/1/866 723/1/732 711/1/297 704/1/300
f 711/1/297 731/1/187 718/1/527 712/1/298
f 901/1/937 910/1/751 894/1/935 895/1/938
f 738/1/806 739/1/809 718/1/527 737/1/274
f 744/1/808 762/1/807 760/1/1019 755/1/1016
f 760/1/1019 761/1/47 706/1/46 755/1/1016
f 883/1/579 885/1/934 879/1/926 878/1/924
f 730/1/184 731/1/187 711/1/297 723/1/732
f 965/1/650 971/1/941 970/1/664 966/1/684
f 533/1/356 469/1/102 471/1/762 472/1/764
f 738/1/806 770/1/884 769/1/890 762/1/807
f 769/1/890 786/1/889 760/1/1019 762/1/807
f 483/1/547 497/1/550 478/1/638 477/1/641
f 743/1/160 770/1/884 738/1/806 737/1/274
f 786/1/889 767/1/1020 761/1/47 760/1/1019
f 767/1/1020 768/1/841 713/1/44 761/1/47
f 81/1/90 88/1/191 86/1/190 82/1/155
f 719/1/740 721/1/742 715/1/30 714/1/29
f 105/1/243 108/1/232 80/1/215 99/1/222
f 873/1/588 895/1/938 894/1/935 888/1/589
f 774/1/592 775/1/595 719/1/740 768/1/841
f 767/1/1020 797/1/959 774/1/592 768/1/841
f 93/1/275 95/1/220 89/1/227 87/1/89
f 724/1/881 758/1/1018 742/1/1021 735/1/731
f 742/1/1021 747/1/185 730/1/184 735/1/731
f 782/1/594 783/1/1022 726/1/741 775/1/595
f 642/1/426 666/1/966 648/1/969 641/1/861
f 722/1/612 720/1/337 715/1/30 721/1/742
f 246/1/555 247/1/573 154/1/448 239/1/505
f 757/1/833 763/1/836 742/1/1021 758/1/1018
f 757/1/833 758/1/1018 748/1/524 751/1/1017
f 722/1/612 729/1/378 725/1/492 720/1/337
f 753/1/1023 754/1/161 736/1/186 747/1/185
f 992/1/617 952/1/318 954/1/727 961/1/615
f 750/1/656 751/1/1017 734/1/377 749/1/376
f 750/1/656 776/1/834 757/1/833 751/1/1017
f 632/1/862 641/1/861 639/1/234 631/1/903
f 634/1/1008 680/1/801 624/1/800 625/1/900
f 772/1/883 777/1/891 769/1/890 770/1/884
f 998/1/7 999/1/10 989/1/953 990/1/13
f 980/1/887 975/1/625 974/1/36 979/1/956
f 843/1/590 888/1/589 887/1/607 844/1/781
f 196/1/366 225/1/484 190/1/487 188/1/391
f 759/1/158 766/1/1024 764/1/499 765/1/159
f 764/1/499 779/1/498 772/1/883 765/1/159
f 792/1/780 788/1/1025 784/1/655 756/1/654
f 733/1/606 791/1/605 728/1/375 727/1/613
f 726/1/741 783/1/1022 733/1/606 727/1/613
f 773/1/1026 781/1/496 764/1/499 766/1/1024
f 36/1/290 41/1/252 23/1/39 31/1/75
f 791/1/605 794/1/604 792/1/780 756/1/654
f 788/1/1025 792/1/780 787/1/779 780/1/1027
f 980/1/887 987/1/955 986/1/133 981/1/136
f 780/1/1027 787/1/779 781/1/496 773/1/1026
f 1019/1/931 1025/1/665 1022/1/971 1021/1/964
f 783/1/1022 796/1/962 790/1/603 733/1/606
f 635/1/268 644/1/852 643/1/851 636/1/1007
f 795/1/961 778/1/1010 779/1/498 789/1/497
f 787/1/779 793/1/778 789/1/497 781/1/496
f 1008/1/397 1016/1/530 1011/1/488
f 1014/1/86 1016/1/530 1015/1/87
f 1011/1/488 1016/1/530 1017/1/489
f 1003/1/351 997/1/354 996/1/946 1002/1/398
f 778/1/1010 799/1/960 785/1/888 777/1/891
f 1007/1/8 1009/1/531 1010/1/945 1005/1/9
f 785/1/888 797/1/959 767/1/1020 786/1/889
f 1014/1/86 1021/1/964 1016/1/530
f 1016/1/530 1021/1/964 1022/1/971
f 803/1/968 801/1/958 799/1/960 798/1/963
f 1016/1/530 1022/1/971 1023/1/632
f 800/1/967 796/1/962 783/1/1022 782/1/594
f 782/1/594 802/1/593 804/1/970 800/1/967
f 1016/1/530 1024/1/635 1017/1/489
f 1016/1/530 1023/1/632 1024/1/635
f 560/1/839 589/1/832 570/1/314 561/1/317
f 801/1/958 802/1/593 774/1/592 797/1/959
f 803/1/968 804/1/970 802/1/593 801/1/958
f 145/1/619 261/1/618 159/1/644 153/1/642
