# Blender 4.3.2
# www.blender.org
o hair.087
v 7.955301 0.331157 0.016973
v 7.959749 0.333891 0.016894
v 7.956141 0.329034 0.017463
v 7.959601 0.320293 0.019480
v 7.956821 0.331012 0.030144
v 7.956868 0.329060 0.028942
v 7.962383 0.339877 0.028569
v 7.957551 0.332606 0.030411
v 7.959601 0.320293 0.019480
v 7.963522 0.342047 0.028698
v 7.974675 0.369372 0.028825
v 7.970254 0.369029 0.027686
v 7.972172 0.366830 0.031386
v 7.971907 0.370692 0.026566
v 7.974376 0.373184 0.023419
v 7.977017 0.370342 0.026589
v 7.967649 0.369661 0.024869
v 7.966256 0.368003 0.025795
v 7.967776 0.366535 0.029366
v 7.970794 0.365319 0.032665
v 7.976326 0.375240 0.019867
v 7.970489 0.372500 0.021906
v 7.978232 0.372638 0.023985
v 7.981749 0.371272 0.024185
v 7.981003 0.367973 0.026485
v 7.961047 0.365322 0.019044
v 7.964073 0.368800 0.016516
v 7.959836 0.363670 0.019811
v 7.964166 0.365517 0.027185
v 7.965929 0.364088 0.030888
v 7.969196 0.363007 0.033974
v 7.973105 0.374872 0.018490
v 7.967284 0.372115 0.013479
v 7.984832 0.370113 0.024009
v 7.984832 0.364666 0.025704
v 7.956795 0.360663 0.012124
v 7.959758 0.364899 0.008976
v 7.963296 0.369018 0.005520
v 7.958020 0.361192 0.020961
v 7.961797 0.362555 0.028436
v 7.964013 0.361327 0.031726
v 7.966778 0.359113 0.035462
v 7.967487 0.372678 0.002123
v 7.971355 0.375212 0.008233
v 7.988661 0.367973 0.026485
v 7.962083 0.367481 0.001480
v 7.958548 0.362994 0.004382
v 7.966222 0.371456 -0.001276
v 7.955609 0.356819 0.013208
v 7.956080 0.357472 0.021589
v 7.959439 0.359116 0.029214
v 7.961518 0.357512 0.032847
v 7.964382 0.355125 0.036055
v 7.975984 0.376805 0.012304
v 7.974246 0.377040 0.004443
v 7.987916 0.371272 0.024185
v 7.992647 0.370342 0.026589
v 7.954965 0.352813 0.013830
v 7.955190 0.353390 0.021719
v 7.958135 0.355896 0.029069
v 7.959942 0.353993 0.033160
v 7.963675 0.352949 0.035757
v 7.984832 0.373834 0.021047
v 7.991432 0.372638 0.023985
v 7.995288 0.373184 0.023419
v 7.994989 0.369372 0.028825
v 7.957283 0.352474 0.028765
v 7.959658 0.351653 0.032413
v 7.963265 0.350381 0.034552
v 7.987371 0.374330 0.021004
v 7.984832 0.376604 0.015374
v 7.982293 0.374330 0.021004
v 7.997492 0.366830 0.031386
v 7.999410 0.369029 0.027686
v 7.997757 0.370692 0.026566
v 7.959668 0.348995 0.031002
v 7.957216 0.350437 0.027997
v 7.963584 0.344373 0.029901
v 7.979445 0.375018 0.020655
v 7.982850 0.376842 0.015153
v 7.998870 0.365319 0.032665
v 8.001889 0.366535 0.029366
v 8.002016 0.369661 0.024869
v 7.957127 0.348132 0.027128
v 7.954886 0.349534 0.021611
v 7.980681 0.377211 0.014567
v 7.984832 0.378428 0.009762
v 7.983234 0.378497 0.009583
v 7.978355 0.377174 0.013631
v 7.999176 0.372500 0.021906
v 7.993339 0.375240 0.019867
v 7.981540 0.378546 0.009114
v 7.984832 0.379304 0.003948
v 7.982492 0.379156 0.003498
v 7.986815 0.376842 0.015153
v 7.977899 0.378114 0.007475
v 7.990220 0.375018 0.020655
v 7.954453 0.349174 0.014391
v 7.979740 0.378409 0.008429
v 7.986431 0.378497 0.009583
v 7.988984 0.377211 0.014567
v 7.954046 0.345327 0.014977
v 7.954942 0.346622 0.021413
v 7.955391 0.354259 0.008173
v 7.954906 0.350730 0.008773
v 7.955422 0.341883 0.020947
v 7.957198 0.343286 0.025233
v 7.959769 0.344108 0.028278
v 7.954502 0.347340 0.009317
v 7.979970 0.378803 0.002442
v 7.954903 0.339884 0.020773
v 7.953725 0.340160 0.015707
v 7.956261 0.341072 0.025085
v 7.959466 0.342068 0.027547
v 7.956117 0.358174 0.007140
v 7.953882 0.338899 0.010430
v 7.953777 0.337590 0.016004
v 7.955155 0.339105 0.025123
v 7.958464 0.340062 0.027568
v 7.963522 0.342047 0.028698
v 7.962383 0.339877 0.028569
v 7.956165 0.355930 0.001351
v 7.955621 0.352031 0.002354
v 7.955241 0.348560 0.003033
v 7.953905 0.337651 0.020718
v 7.952253 0.332617 0.024984
v 7.954390 0.332512 0.028129
v 7.957551 0.332606 0.030411
v 7.956297 0.350536 -0.004127
v 7.955999 0.347346 -0.003543
v 7.956784 0.354121 -0.004875
v 7.954998 0.345784 0.003535
v 7.952710 0.333084 0.020433
v 7.954180 0.333987 0.016320
v 7.956821 0.331012 0.030144
v 7.957740 0.349628 -0.010814
v 7.958216 0.352853 -0.011216
v 7.958504 0.359154 -0.006175
v 7.954824 0.342962 0.003996
v 7.955794 0.343936 -0.002885
v 7.954261 0.344169 0.009754
v 7.953631 0.334807 0.010856
v 7.954323 0.330643 0.027484
v 7.956868 0.329060 0.028942
v 7.958050 0.361128 -0.000699
v 7.955698 0.342344 -0.002578
v 7.957275 0.342625 -0.009614
v 7.954439 0.337911 0.004855
v 7.953952 0.333759 0.005640
v 7.955151 0.328489 0.026043
v 7.952649 0.330400 0.024326
v 7.961398 0.365909 -0.002751
v 7.957441 0.346346 -0.010411
v 7.954034 0.328241 0.023317
v 7.954533 0.328459 0.019976
v 7.953202 0.330603 0.020106
v 7.965603 0.370255 -0.004949
v 7.960270 0.349168 -0.017223
v 7.961410 0.364077 -0.007461
v 7.965827 0.368959 -0.008973
v 7.969918 0.373185 -0.006550
v 7.970227 0.374192 -0.003479
v 7.971096 0.375186 -0.000572
v 7.953389 0.331552 0.010912
v 7.954502 0.330521 0.015073
v 7.962368 0.362383 -0.012328
v 7.966848 0.367696 -0.013022
v 7.970183 0.372150 -0.009736
v 7.974639 0.376182 -0.005412
v 7.975190 0.376901 -0.003252
v 7.953029 0.324967 0.010876
v 7.954864 0.326614 0.013668
v 7.953358 0.328708 0.010834
v 7.953478 0.330849 0.006070
v 7.959930 0.357495 -0.011763
v 7.974491 0.375435 -0.007655
v 7.979466 0.377194 -0.006980
v 7.977410 0.378120 0.000399
v 7.952802 0.317749 0.011332
v 7.955505 0.317854 0.014311
v 7.962353 0.356555 -0.017200
v 7.960707 0.352226 -0.017330
v 7.974709 0.374690 -0.009897
v 7.982206 0.378622 -0.002722
v 7.980773 0.378173 -0.004056
v 7.953017 0.315949 0.011298
v 7.955892 0.316078 0.014238
v 7.964198 0.351977 -0.022742
v 7.963814 0.348985 -0.022848
v 7.960026 0.346072 -0.017054
v 7.971010 0.371147 -0.012859
v 7.983566 0.378813 -0.002153
v 7.979673 0.377592 -0.005793
v 7.953897 0.314181 0.011115
v 7.956659 0.314451 0.013870
v 7.959875 0.342506 -0.016369
v 7.968621 0.366587 -0.016784
v 7.972385 0.370236 -0.015744
v 7.984832 0.377556 -0.008347
v 7.979259 0.376797 -0.008167
v 7.958582 0.308167 0.009334
v 7.960767 0.308029 0.011006
v 7.957122 0.337593 -0.008260
v 7.964515 0.361225 -0.017039
v 7.979472 0.376400 -0.009353
v 7.959088 0.306574 0.009394
v 7.961161 0.306610 0.010656
v 7.955438 0.337626 -0.001498
v 7.967580 0.360419 -0.021289
v 7.965676 0.356044 -0.022077
v 7.975293 0.373974 -0.012054
v 7.971290 0.359780 -0.024773
v 7.969794 0.355674 -0.025973
v 7.971038 0.365644 -0.020107
v 7.984832 0.378893 -0.001917
v 7.976249 0.373315 -0.014043
v 7.979685 0.376004 -0.010540
v 7.980289 0.375668 -0.011546
v 7.955175 0.333647 -0.000249
v 7.954807 0.330498 0.000709
v 7.974241 0.369444 -0.018283
v 7.986099 0.378813 -0.002153
v 7.987172 0.379156 0.003498
v 7.977530 0.372737 -0.015788
v 7.980894 0.375332 -0.012552
v 7.952903 0.327311 0.006593
v 7.954330 0.326419 0.001950
v 7.957161 0.333662 -0.006584
v 7.987458 0.378622 -0.002722
v 7.988125 0.378546 0.009114
v 7.981797 0.375108 -0.013224
v 7.979096 0.372264 -0.017218
v 7.959748 0.337662 -0.015081
v 7.959824 0.333832 -0.013271
v 7.957515 0.330553 -0.004845
v 7.991309 0.377174 0.013631
v 7.989925 0.378409 0.008429
v 7.976509 0.368797 -0.020365
v 7.952301 0.323981 0.007001
v 7.963451 0.342481 -0.022344
v 7.989695 0.378803 0.002442
v 7.991766 0.378114 0.007475
v 7.973991 0.364877 -0.022835
v 7.951140 0.317790 0.007701
v 7.963604 0.345951 -0.022852
v 7.993681 0.376805 0.012304
v 7.995419 0.377040 0.004443
v 7.988891 0.378173 -0.004056
v 7.951143 0.316068 0.007898
v 7.968092 0.345883 -0.027256
v 7.968295 0.348901 -0.027175
v 7.967932 0.342477 -0.026919
v 7.975502 0.359315 -0.027368
v 7.974495 0.355437 -0.028795
v 7.951846 0.314346 0.007753
v 7.968625 0.351848 -0.026961
v 7.963300 0.337779 -0.021278
v 7.996559 0.374872 0.018490
v 7.973710 0.351821 -0.029934
v 7.977359 0.364308 -0.024871
v 7.956433 0.308052 0.007015
v 7.963303 0.334081 -0.019604
v 7.998309 0.375212 0.008233
v 8.002380 0.372115 0.013479
v 7.979096 0.368316 -0.021918
v 7.957147 0.306524 0.006884
v 7.973457 0.348895 -0.030181
v 7.959764 0.330421 -0.011836
v 8.002177 0.372678 0.002123
v 7.980879 0.371911 -0.018284
v 7.957242 0.304585 0.007903
v 7.958941 0.304611 0.009682
v 7.973279 0.345862 -0.030275
v 7.973132 0.342495 -0.030080
v 7.982701 0.374884 -0.013896
v 7.957944 0.304354 0.005752
v 7.956391 0.296066 0.013160
v 7.960715 0.304778 0.010911
v 7.978944 0.345892 -0.031937
v 7.967761 0.337888 -0.026148
v 7.983767 0.374805 -0.014132
v 7.958133 0.306096 0.004271
v 7.958849 0.304329 0.003829
v 7.958935 0.305937 0.002549
v 7.979045 0.348956 -0.031860
v 7.967731 0.334340 -0.024845
v 7.982818 0.371695 -0.018938
v 7.957441 0.307632 0.004320
v 7.958703 0.307250 0.002243
v 7.979179 0.351882 -0.031625
v 7.979571 0.355333 -0.030458
v 7.967496 0.331136 -0.023939
v 7.963097 0.330778 -0.018343
v 7.981908 0.368022 -0.022871
v 7.955538 0.315229 0.001808
v 7.953360 0.314681 0.004394
v 7.984832 0.351935 -0.032148
v 7.980076 0.359034 -0.028952
v 7.959703 0.327010 -0.010402
v 7.981022 0.363961 -0.026120
v 7.984832 0.367921 -0.023196
v 7.955204 0.317167 0.001601
v 7.952617 0.316541 0.004525
v 7.984832 0.358940 -0.029491
v 7.984832 0.363842 -0.026548
v 7.957964 0.326614 -0.002641
v 7.984832 0.371621 -0.019161
v 7.955341 0.318799 0.001090
v 7.952776 0.318230 0.004034
v 7.984832 0.355314 -0.030999
v 7.989588 0.359034 -0.028952
v 7.988643 0.363961 -0.026120
v 7.984832 0.374727 -0.014368
v 7.953722 0.322818 0.002915
v 7.956558 0.322424 -0.000641
v 7.990094 0.355333 -0.030458
v 7.987757 0.368022 -0.022871
v 7.986847 0.371695 -0.018938
v 7.985898 0.374805 -0.014132
v 7.995170 0.355437 -0.028795
v 7.990486 0.351882 -0.031625
v 7.995955 0.351821 -0.029934
v 7.990569 0.368316 -0.021918
v 7.992305 0.364308 -0.024871
v 7.988785 0.371911 -0.018284
v 7.959642 0.322883 -0.010458
v 7.958213 0.322556 -0.002845
v 7.994163 0.359315 -0.027368
v 7.990619 0.348956 -0.031860
v 7.984832 0.349005 -0.032367
v 7.995674 0.364877 -0.022835
v 7.993155 0.368797 -0.020365
v 7.962890 0.327475 -0.017082
v 7.959429 0.318570 -0.011126
v 7.958395 0.318479 -0.003480
v 7.998375 0.359780 -0.024773
v 7.984832 0.345921 -0.032428
v 7.998626 0.365644 -0.020107
v 8.002084 0.360419 -0.021289
v 7.967262 0.327932 -0.023032
v 7.962064 0.318590 -0.018102
v 7.959153 0.314052 -0.011885
v 7.958441 0.314362 -0.004979
v 7.999870 0.355674 -0.025973
v 7.978859 0.342539 -0.031822
v 7.972567 0.328306 -0.027695
v 7.966549 0.323548 -0.023628
v 7.972752 0.331441 -0.028208
v 7.958420 0.310225 -0.006909
v 7.984832 0.342566 -0.032337
v 7.978766 0.338074 -0.031518
v 7.972973 0.337990 -0.029593
v 7.962580 0.323216 -0.017419
v 7.972938 0.334576 -0.028720
v 7.959165 0.309287 -0.012001
v 7.959832 0.304393 -0.010731
v 7.959282 0.305987 -0.005464
v 7.978742 0.334740 -0.030952
v 7.961417 0.308468 -0.017651
v 7.960855 0.301343 -0.004673
v 7.961533 0.313644 -0.018284
v 7.984832 0.334801 -0.031653
v 7.984832 0.331700 -0.031561
v 7.978638 0.331633 -0.030737
v 7.965900 0.318572 -0.024199
v 7.965259 0.313187 -0.024115
v 7.978534 0.328526 -0.030522
v 7.961079 0.299871 -0.009057
v 7.962846 0.296134 -0.007986
v 7.963850 0.295885 -0.005189
v 7.984832 0.328599 -0.031470
v 7.984832 0.338109 -0.032098
v 7.978142 0.323795 -0.031383
v 7.971913 0.323729 -0.028335
v 7.963404 0.298416 -0.013448
v 7.967557 0.290020 -0.006359
v 7.962143 0.303227 -0.015899
v 7.990899 0.338074 -0.031518
v 7.990922 0.334740 -0.030952
v 7.990806 0.342539 -0.031822
v 7.971307 0.318440 -0.028820
v 7.964912 0.294437 -0.010683
v 7.967434 0.294741 -0.014508
v 7.970359 0.293991 -0.014507
v 7.965997 0.302375 -0.021143
v 7.991026 0.331633 -0.030737
v 7.967209 0.298035 -0.018060
v 7.973160 0.297962 -0.022655
v 7.965127 0.307668 -0.023157
v 7.971437 0.301861 -0.025604
v 7.970604 0.307037 -0.027686
v 7.996912 0.331441 -0.028208
v 7.991130 0.328526 -0.030522
v 7.991522 0.323795 -0.031383
v 7.984832 0.323804 -0.032490
v 7.970716 0.312732 -0.028688
v 7.977821 0.301225 -0.029073
v 7.977350 0.306488 -0.031075
v 7.977425 0.312348 -0.031980
v 7.997098 0.328306 -0.027695
v 7.984832 0.318192 -0.033236
v 7.977777 0.318278 -0.032002
v 7.984832 0.306229 -0.032495
v 7.984832 0.300868 -0.030576
v 7.978997 0.296851 -0.026345
v 7.984832 0.296252 -0.027556
v 7.984832 0.312173 -0.033313
v 7.991887 0.318278 -0.032002
v 7.992239 0.312348 -0.031980
v 7.991843 0.301225 -0.029073
v 7.992315 0.306488 -0.031075
v 7.980652 0.293001 -0.024065
v 7.978996 0.292274 -0.020878
v 7.997751 0.323729 -0.028335
v 7.998358 0.318440 -0.028820
v 7.998949 0.312732 -0.028688
v 7.999060 0.307037 -0.027686
v 7.984832 0.291873 -0.024309
v 7.984832 0.286586 -0.019100
v 8.003115 0.323548 -0.023628
v 8.002402 0.327932 -0.023032
v 8.002168 0.331136 -0.023939
v 8.003764 0.318572 -0.024199
v 8.004406 0.313187 -0.024115
v 7.989012 0.293001 -0.024065
v 7.990668 0.292274 -0.020878
v 8.006775 0.327475 -0.017082
v 8.006568 0.330778 -0.018343
v 7.996727 0.334576 -0.028720
v 8.001933 0.334340 -0.024845
v 8.006362 0.334081 -0.019604
v 8.007601 0.318590 -0.018102
v 7.990667 0.296851 -0.026345
v 7.996504 0.297962 -0.022655
v 8.009901 0.330421 -0.011836
v 8.009962 0.327010 -0.010402
v 8.001904 0.337888 -0.026148
v 8.006365 0.337779 -0.021278
v 7.996692 0.337990 -0.029593
v 8.007085 0.323216 -0.017419
v 7.998228 0.301861 -0.025604
v 7.996533 0.342495 -0.030080
v 8.001733 0.342477 -0.026919
v 8.009916 0.337662 -0.015081
v 8.006213 0.342481 -0.022344
v 8.010022 0.322883 -0.010458
v 8.003668 0.302375 -0.021143
v 8.001572 0.345883 -0.027256
v 8.006060 0.345951 -0.022852
v 8.009840 0.333832 -0.013271
v 7.990721 0.345892 -0.031937
v 8.002231 0.294741 -0.014508
v 7.999306 0.293991 -0.014507
v 8.002456 0.298035 -0.018060
v 8.005850 0.348985 -0.022848
v 8.009638 0.346072 -0.017054
v 8.012504 0.333662 -0.006584
v 8.012149 0.330553 -0.004845
v 7.996386 0.345862 -0.030275
v 8.002108 0.290020 -0.006359
v 8.006261 0.298416 -0.013448
v 8.009790 0.342506 -0.016369
v 8.011701 0.326614 -0.002641
v 7.996207 0.348895 -0.030181
v 8.001369 0.348901 -0.027175
v 8.012542 0.337593 -0.008260
v 8.011452 0.322556 -0.002845
v 8.010236 0.318570 -0.011126
v 8.001040 0.351848 -0.026961
v 8.005466 0.351977 -0.022742
v 8.009395 0.349168 -0.017223
v 8.011270 0.318479 -0.003480
v 8.010511 0.314052 -0.011885
v 8.008132 0.313644 -0.018284
v 8.003988 0.356044 -0.022077
v 8.008958 0.352226 -0.017330
v 8.007312 0.356555 -0.017200
v 8.012223 0.346346 -0.010411
v 8.011224 0.314362 -0.004979
v 8.008247 0.308468 -0.017651
v 8.004538 0.307668 -0.023157
v 8.005150 0.361225 -0.017039
v 8.011449 0.352853 -0.011216
v 8.012389 0.342625 -0.009614
v 8.011244 0.310225 -0.006909
v 8.001043 0.366587 -0.016784
v 8.007298 0.362383 -0.012328
v 8.011925 0.349628 -0.010814
v 8.014226 0.337626 -0.001498
v 8.013967 0.342344 -0.002578
v 8.010500 0.309287 -0.012001
v 8.007522 0.303227 -0.015899
v 8.009734 0.357495 -0.011763
v 8.013665 0.347346 -0.003543
v 8.014489 0.333647 -0.000249
v 8.009833 0.304393 -0.010731
v 8.011161 0.359154 -0.006175
v 8.013367 0.350536 -0.004127
v 8.012881 0.354121 -0.004875
v 8.013871 0.343936 -0.002885
v 8.014857 0.330498 0.000709
v 8.010383 0.305987 -0.005464
v 8.014044 0.352031 0.002354
v 8.013499 0.355930 0.001351
v 8.014840 0.342962 0.003996
v 8.014668 0.345784 0.003535
v 8.015225 0.337911 0.004855
v 8.015334 0.326419 0.001950
v 8.013107 0.322424 -0.000641
v 8.008809 0.301343 -0.004673
v 8.014423 0.348560 0.003033
v 8.015162 0.347340 0.009317
v 8.014759 0.350730 0.008773
v 8.015783 0.338899 0.010430
v 8.015713 0.333759 0.005640
v 8.015944 0.322818 0.002915
v 8.014324 0.318799 0.001090
v 8.008586 0.299871 -0.009057
v 8.006819 0.296134 -0.007986
v 8.005814 0.295885 -0.005189
v 8.014274 0.354259 0.008173
v 8.017364 0.323981 0.007001
v 8.016889 0.318230 0.004034
v 8.017048 0.316541 0.004525
v 8.014462 0.317167 0.001601
v 8.004753 0.294437 -0.010683
v 8.013547 0.358174 0.007140
v 8.016186 0.330849 0.006070
v 8.018524 0.317790 0.007701
v 8.016305 0.314681 0.004394
v 8.014127 0.315229 0.001808
v 8.011614 0.361128 -0.000699
v 8.011117 0.362994 0.004382
v 8.012869 0.360663 0.012124
v 8.016034 0.334807 0.010856
v 8.012223 0.307632 0.004320
v 8.010962 0.307250 0.002243
v 8.008266 0.365909 -0.002751
v 8.007582 0.367481 0.001480
v 8.009907 0.364899 0.008976
v 8.008254 0.364077 -0.007461
v 8.014055 0.356819 0.013208
v 8.014700 0.352813 0.013830
v 8.011532 0.306096 0.004271
v 8.010730 0.305937 0.002549
v 8.004061 0.370255 -0.004949
v 8.003443 0.371456 -0.001276
v 8.006369 0.369018 0.005520
v 8.003838 0.368959 -0.008973
v 8.002816 0.367696 -0.013022
v 8.015211 0.349174 0.014391
v 8.011720 0.304354 0.005752
v 8.010816 0.304329 0.003829
v 7.999747 0.373185 -0.006550
v 7.999482 0.372150 -0.009736
v 7.998654 0.371147 -0.012859
v 7.997279 0.370236 -0.015744
v 8.015619 0.345327 0.014977
v 8.015404 0.344169 0.009754
v 8.013273 0.296066 0.013160
v 7.994956 0.374690 -0.009897
v 7.994371 0.373974 -0.012054
v 7.993416 0.373315 -0.014043
v 7.995423 0.369444 -0.018283
v 8.010723 0.304611 0.009682
v 8.008949 0.304778 0.010911
v 8.012423 0.304585 0.007903
v 7.995174 0.375435 -0.007655
v 7.990192 0.376400 -0.009353
v 7.992135 0.372737 -0.015788
v 7.990569 0.372264 -0.017218
v 8.010576 0.306574 0.009394
v 8.008504 0.306610 0.010656
v 8.012517 0.306524 0.006884
v 7.995026 0.376182 -0.005412
v 7.999437 0.374192 -0.003479
v 7.987867 0.375108 -0.013224
v 8.011082 0.308167 0.009334
v 8.008898 0.308029 0.011006
v 8.013232 0.308052 0.007015
v 7.998569 0.375186 -0.000572
v 7.994475 0.376901 -0.003252
v 7.990199 0.377194 -0.006980
v 7.986964 0.374884 -0.013896
v 8.013005 0.314451 0.013870
v 8.017818 0.314346 0.007753
v 7.990406 0.376797 -0.008167
v 8.005591 0.368800 0.016516
v 8.015767 0.314181 0.011115
v 8.013772 0.316078 0.014238
v 7.992255 0.378120 0.000399
v 8.008617 0.365322 0.019044
v 7.988771 0.375332 -0.012552
v 8.016648 0.315949 0.011298
v 8.014159 0.317854 0.014311
v 7.989991 0.377592 -0.005793
v 7.989375 0.375668 -0.011546
v 8.016863 0.317749 0.011332
v 8.014801 0.326614 0.013668
v 8.003409 0.368003 0.025795
v 7.989979 0.376004 -0.010540
v 8.016636 0.324967 0.010876
v 8.015163 0.330521 0.015073
v 8.018522 0.316068 0.007898
v 8.009829 0.363670 0.019811
v 8.016307 0.328708 0.010834
v 8.016275 0.331552 0.010912
v 8.015484 0.333987 0.016320
v 8.005499 0.365517 0.027185
v 8.011644 0.361192 0.020961
v 8.016762 0.327311 0.006593
v 8.003736 0.364088 0.030888
v 8.007867 0.362555 0.028436
v 8.013584 0.357472 0.021589
v 8.015887 0.337590 0.016004
v 8.000468 0.363007 0.033974
v 8.005651 0.361327 0.031726
v 8.010225 0.359116 0.029214
v 8.014475 0.353390 0.021719
v 8.015939 0.340160 0.015707
v 8.014761 0.339884 0.020773
v 8.015759 0.337651 0.020718
v 8.002887 0.359113 0.035462
v 8.008146 0.357512 0.032847
v 8.011529 0.355896 0.029069
v 8.014778 0.349534 0.021611
v 8.012383 0.352474 0.028765
v 8.014723 0.346622 0.021413
v 8.014242 0.341883 0.020947
v 8.014509 0.339105 0.025123
v 8.017411 0.332617 0.024984
v 8.016954 0.333084 0.020433
v 8.005282 0.355125 0.036055
v 8.009723 0.353993 0.033160
v 8.012448 0.350437 0.027997
v 8.012538 0.348132 0.027128
v 8.010007 0.351653 0.032413
v 8.012466 0.343286 0.025233
v 8.016462 0.330603 0.020106
v 8.014364 0.331157 0.016973
v 8.005989 0.352949 0.035757
v 8.009996 0.348995 0.031002
v 8.009895 0.344108 0.028278
v 8.006399 0.350381 0.034552
v 8.013404 0.341072 0.025085
v 8.017015 0.330400 0.024326
v 8.015132 0.328459 0.019976
v 8.013523 0.329034 0.017463
v 8.006081 0.344373 0.029901
v 8.010198 0.342068 0.027547
v 8.011200 0.340062 0.027568
v 8.015275 0.332512 0.028129
v 8.015342 0.330643 0.027484
v 8.015631 0.328241 0.023317
v 8.010063 0.320293 0.019480
v 8.006143 0.342047 0.028698
v 8.007281 0.339877 0.028569
v 8.012114 0.332606 0.030411
v 8.012843 0.331012 0.030144
v 8.012796 0.329060 0.028942
v 8.014514 0.328489 0.026043
v 7.958420 0.310225 -0.006909
v 7.959282 0.305987 -0.005464
v 7.973526 0.308712 -0.007243
v 7.960855 0.301343 -0.004673
v 7.963850 0.295885 -0.005189
v 7.957964 0.326614 -0.002641
v 7.958213 0.322556 -0.002845
v 7.965099 0.327794 0.001226
v 7.956558 0.322424 -0.000641
v 7.958395 0.318479 -0.003480
v 7.969893 0.317767 -0.003255
v 7.984832 0.327794 0.001226
v 7.962278 0.318143 0.006795
v 7.954864 0.326614 0.013668
v 7.964942 0.350491 0.017298
v 7.955341 0.318799 0.001090
v 7.958441 0.314362 -0.004979
v 7.984832 0.318253 -0.003008
v 7.999771 0.317767 -0.003255
v 8.004566 0.327794 0.001226
v 7.962144 0.316355 0.007638
v 7.955204 0.317167 0.001601
v 7.954502 0.330521 0.015073
v 7.984832 0.308793 -0.007419
v 7.996139 0.308712 -0.007243
v 8.011244 0.310225 -0.006909
v 8.011224 0.314362 -0.004979
v 8.011270 0.318479 -0.003480
v 7.954180 0.333987 0.016320
v 7.984832 0.286586 -0.019100
v 8.011452 0.322556 -0.002845
v 7.990668 0.292274 -0.020878
v 7.978996 0.292274 -0.020878
v 8.011701 0.326614 -0.002641
v 7.963584 0.344373 0.029901
v 7.996504 0.297962 -0.022655
v 7.973160 0.297962 -0.022655
v 7.970541 0.299366 -0.006801
v 7.970359 0.293991 -0.014507
v 8.013107 0.322424 -0.000641
v 8.007386 0.318143 0.006795
v 8.014801 0.326614 0.013668
v 8.009916 0.333891 0.016894
v 8.004722 0.350491 0.017298
v 7.963265 0.350381 0.034552
v 7.999306 0.293991 -0.014507
v 7.967557 0.290020 -0.006359
v 8.014324 0.318799 0.001090
v 8.014462 0.317167 0.001601
v 8.007520 0.316355 0.007638
v 8.015163 0.330521 0.015073
v 7.963675 0.352949 0.035757
v 7.999123 0.299366 -0.006801
v 8.002108 0.290020 -0.006359
v 8.015484 0.333987 0.016320
v 7.964382 0.355125 0.036055
v 8.005814 0.295885 -0.005189
v 8.012843 0.331012 0.030144
v 8.012114 0.332606 0.030411
v 8.006143 0.342047 0.028698
v 7.966778 0.359113 0.035462
v 8.006081 0.344373 0.029901
v 7.974298 0.365684 0.023452
v 7.970794 0.365319 0.032665
v 7.969196 0.363007 0.033974
v 8.006399 0.350381 0.034552
v 7.972172 0.366830 0.031386
v 7.979566 0.365175 0.024578
v 7.977017 0.370342 0.026589
v 7.974675 0.369372 0.028825
v 8.005989 0.352949 0.035757
v 7.981003 0.367973 0.026485
v 7.984832 0.364666 0.025704
v 8.005282 0.355125 0.036055
v 8.002887 0.359113 0.035462
v 7.998870 0.365319 0.032665
v 7.995366 0.365684 0.023452
v 8.000468 0.363007 0.033974
v 7.997492 0.366830 0.031386
v 7.992647 0.370342 0.026589
v 7.990099 0.365175 0.024578
v 7.994989 0.369372 0.028825
v 7.988661 0.367973 0.026485
v 7.955505 0.317854 0.014311
v 7.955892 0.316078 0.014238
v 7.962310 0.314631 0.007742
v 7.956659 0.314451 0.013870
v 7.955538 0.315229 0.001808
v 7.965287 0.308259 0.007031
v 7.960767 0.308029 0.011006
v 7.958703 0.307250 0.002243
v 7.956391 0.296066 0.013160
v 7.958849 0.304329 0.003829
v 7.964588 0.304625 0.007945
v 7.960715 0.304778 0.010911
v 7.958935 0.305937 0.002549
v 7.965421 0.306703 0.007168
v 7.961161 0.306610 0.010656
v 8.012796 0.329060 0.028942
v 8.007281 0.339877 0.028569
v 8.010063 0.320293 0.019480
v 8.010383 0.305987 -0.005464
v 8.008809 0.301343 -0.004673
v 8.014159 0.317854 0.014311
v 8.013772 0.316078 0.014238
v 8.007354 0.314631 0.007742
v 8.013005 0.314451 0.013870
v 8.014127 0.315229 0.001808
v 8.004377 0.308259 0.007031
v 8.008898 0.308029 0.011006
v 8.010962 0.307250 0.002243
v 8.013273 0.296066 0.013160
v 8.005076 0.304625 0.007945
v 8.010816 0.304329 0.003829
v 8.008949 0.304778 0.010911
v 8.004244 0.306703 0.007168
v 8.010730 0.305937 0.002549
v 8.008504 0.306610 0.010656
vn -0.3980 -0.3083 -0.8640
vn 0.8829 -0.4434 0.1545
vn -0.3539 -0.3411 -0.8709
vn -0.6949 -0.6233 -0.3587
vn 0.9485 -0.2797 0.1488
vn 0.9755 -0.0452 0.2151
vn 0.9150 -0.4029 -0.0204
vn 0.8740 -0.4761 0.0968
vn 0.9685 0.0363 0.2462
vn 0.5515 -0.3239 0.7687
vn 0.4935 0.0292 0.8692
vn 0.8201 0.3204 0.4741
vn 0.8470 -0.0266 0.5309
vn 0.6274 -0.4514 0.6345
vn 0.8458 -0.5165 0.1338
vn 0.8713 -0.4885 0.0473
vn 0.6595 -0.5064 0.5555
vn 0.0880 0.7934 0.6023
vn 0.2115 0.8123 0.5436
vn 0.1428 0.8524 0.5030
vn -0.1295 0.7253 0.6761
vn -0.8091 -0.1950 -0.5544
vn -0.8302 -0.1576 -0.5347
vn -0.9054 -0.1600 -0.3933
vn -0.8910 -0.1755 -0.4187
vn -0.3369 0.7497 0.5696
vn -0.2115 0.8123 0.5436
vn -0.5192 0.7748 0.3609
vn -0.9869 0.0801 -0.1403
vn -0.9588 -0.0527 -0.2792
vn -0.9236 -0.0438 -0.3808
vn -0.9865 0.0902 -0.1366
vn 0.4208 0.7126 0.5613
vn 0.3369 0.7497 0.5696
vn 0.2860 0.7481 0.5988
vn 0.3643 0.7008 0.6134
vn 0.4562 0.8368 0.3028
vn 0.3841 0.8936 0.2323
vn 0.1409 0.9190 0.3681
vn -0.0606 0.8746 0.4811
vn -0.1165 0.7363 0.6666
vn -0.1428 0.8524 0.5030
vn 0.1295 0.7253 0.6761
vn 0.1165 0.7363 0.6666
vn -0.2587 0.5871 0.7671
vn -0.3246 0.4551 0.8292
vn -0.3841 0.8936 0.2323
vn -0.3323 0.9313 0.1492
vn -0.5077 0.8589 0.0670
vn -0.5959 0.7965 0.1026
vn -0.4562 0.8368 0.3028
vn -0.6789 0.7219 0.1342
vn 0.5772 0.7231 0.3795
vn 0.6197 0.6782 0.3949
vn 0.7490 0.6427 0.1608
vn 0.7273 0.6680 0.1573
vn 0.4871 0.6320 0.6028
vn 0.4402 0.6065 0.6621
vn -0.6945 -0.1562 -0.7023
vn -0.5098 -0.1115 -0.8530
vn -0.5463 0.0432 -0.8365
vn -0.7407 0.0165 -0.6717
vn -0.9358 0.3026 0.1810
vn -0.8201 0.3204 0.4741
vn -0.8470 -0.0266 0.5309
vn -0.9557 0.1097 0.2733
vn -0.7273 0.6680 0.1573
vn -0.8855 0.4642 0.0187
vn -0.7490 0.6427 0.1608
vn 0.8855 0.4642 0.0187
vn 0.7889 0.6144 0.0139
vn 0.6789 0.7219 0.1342
vn -0.4980 0.4596 -0.7354
vn -0.5420 0.3802 -0.7494
vn -0.6881 0.3721 -0.6229
vn -0.6265 0.4588 -0.6300
vn -0.8166 0.5512 0.1716
vn -0.7381 0.0651 0.6715
vn -0.5373 0.2891 0.7923
vn -0.4624 0.3222 0.8261
vn -0.8153 0.4047 0.4142
vn 0.5341 0.5521 0.6402
vn 0.6720 0.6054 0.4264
vn 0.4923 0.5063 0.7080
vn 0.5959 0.7965 0.1026
vn 0.7046 0.7095 0.0064
vn 0.6165 0.7872 -0.0178
vn 0.5077 0.8589 0.0670
vn 0.3323 0.9313 0.1492
vn 0.3246 0.4551 0.8292
vn -0.0000 0.3886 0.9214
vn -0.0000 0.5107 0.8598
vn 0.2587 0.5871 0.7671
vn 0.7620 0.6437 -0.0705
vn 0.8602 0.5053 -0.0694
vn 0.9502 0.3054 -0.0619
vn 0.6632 0.7419 -0.0992
vn -0.8713 -0.4885 0.0473
vn -0.6595 -0.5064 0.5555
vn -0.7831 -0.2544 0.5675
vn -0.9748 -0.2181 0.0461
vn 0.5467 0.3403 0.7651
vn 0.6224 0.4084 0.6677
vn 0.7732 0.4537 0.4431
vn 0.9638 -0.2334 0.1291
vn 0.6605 -0.0288 0.7502
vn -0.4128 0.5828 -0.6999
vn -0.5174 0.5932 -0.6168
vn -0.8938 0.0020 -0.4484
vn -0.7802 -0.0001 -0.6255
vn -0.7896 -0.0793 -0.6085
vn -0.8969 -0.0638 -0.4375
vn 0.9594 0.0658 0.2742
vn 0.9070 -0.3867 0.1667
vn 0.8765 -0.3515 -0.3290
vn 0.9835 -0.0022 -0.1810
vn -0.6396 0.1232 -0.7587
vn -0.9696 0.2443 -0.0130
vn -0.9983 0.0527 0.0262
vn -0.6275 -0.1890 -0.7553
vn 0.1136 0.6856 -0.7191
vn 0.2213 0.6908 -0.6883
vn 0.2877 0.5764 -0.7648
vn 0.1476 0.5727 -0.8063
vn -0.8675 -0.0241 -0.4969
vn -0.9421 -0.0796 -0.3258
vn 0.8849 -0.2892 -0.3651
vn 0.8636 -0.2919 -0.4112
vn 0.8068 -0.3405 -0.4829
vn 0.8246 -0.3956 -0.4045
vn -0.9949 0.0408 0.0920
vn -0.9658 -0.0428 0.2557
vn -0.9930 -0.0697 -0.0951
vn -0.9995 0.0301 0.0046
vn -0.1616 0.8109 0.5624
vn -0.0000 0.7921 0.6104
vn -0.0275 -0.4009 0.9157
vn -0.0268 -0.3852 0.9224
vn 0.0144 -0.0943 0.9954
vn 0.1228 -0.3780 0.9176
vn 0.7385 -0.4003 0.5426
vn 0.6511 -0.6281 0.4260
vn 0.8044 -0.5842 0.1083
vn -0.8753 0.2418 0.4187
vn -0.9734 0.1480 0.1748
vn -0.9069 0.0127 0.4211
vn 0.6746 0.1403 0.7248
vn 0.6339 0.0322 0.7727
vn 0.9780 -0.2029 -0.0485
vn 0.9821 0.1692 -0.0822
vn 0.5905 0.0203 0.8068
vn 0.5316 -0.3503 0.7712
vn 0.7320 -0.1903 0.6542
vn 0.7249 0.0945 0.6823
vn 0.7831 -0.2544 0.5675
vn 0.6792 -0.2892 0.6746
vn 0.5801 -0.5129 0.6328
vn -0.1626 0.9615 0.2217
vn -0.1657 0.9775 0.1306
vn -0.2776 0.9562 0.0924
vn -0.0839 0.9351 0.3443
vn -0.0000 0.9305 0.3664
vn -0.0880 0.7934 0.6023
vn -0.2860 0.7481 0.5988
vn -0.7320 -0.1903 0.6542
vn -0.6424 -0.3738 0.6690
vn -0.5316 -0.3503 0.7712
vn 0.6424 -0.3738 0.6690
vn 0.8900 -0.1181 0.4405
vn 0.9069 0.0127 0.4211
vn 0.3641 -0.4600 0.8098
vn 0.0069 0.9566 0.2914
vn -0.7385 -0.4003 0.5426
vn -0.6432 -0.5041 0.5763
vn -0.6452 -0.1036 0.7569
vn 0.5192 0.7748 0.3609
vn -0.8900 -0.1181 0.4405
vn -0.8523 -0.1871 0.4885
vn -0.9779 0.0135 0.2088
vn 0.9358 0.3026 0.1810
vn 0.9621 0.2699 0.0401
vn 0.9977 0.0656 0.0143
vn 0.9939 0.0786 0.0769
vn 0.2112 0.9370 -0.2782
vn 0.2025 0.9502 -0.2371
vn 0.3601 0.9193 -0.1590
vn 0.3852 0.8933 -0.2315
vn -0.0141 0.9777 0.2097
vn -0.0000 0.9732 0.2300
vn 0.0648 0.9832 0.1705
vn -0.4315 -0.1527 -0.8891
vn -0.4686 -0.1689 -0.8671
vn -0.6606 -0.2031 -0.7227
vn -0.6337 -0.1730 -0.7539
vn -0.7889 0.6144 0.0139
vn -0.9568 -0.0297 -0.2891
vn -0.9565 0.0179 -0.2911
vn 0.0141 0.9777 0.2097
vn -0.0000 0.9993 0.0361
vn -0.0000 0.9917 -0.1290
vn -0.0592 0.9889 -0.1364
vn -0.0938 0.9955 0.0115
vn 0.0839 0.9351 0.3443
vn 0.1616 0.8109 0.5624
vn 0.1626 0.9615 0.2217
vn 0.2776 0.9562 0.0924
vn 0.1657 0.9775 0.1306
vn 0.9834 0.0051 -0.1816
vn 0.9890 0.0406 -0.1424
vn 0.9646 0.0841 -0.2498
vn 0.9584 0.0491 -0.2811
vn 0.9734 0.1480 0.1748
vn 0.9779 0.0135 0.2088
vn 0.9954 0.0956 0.0069
vn 0.9898 0.1426 -0.0048
vn -0.0648 0.9832 0.1705
vn -0.0069 0.9566 0.2914
vn -0.1409 0.9190 0.3681
vn 0.0606 0.8746 0.4811
vn 0.9613 -0.0472 0.2714
vn 0.9974 0.0479 0.0544
vn 0.8523 -0.1871 0.4885
vn 0.9911 0.1143 -0.0681
vn 0.9865 0.1532 -0.0581
vn 0.9682 0.2499 0.0083
vn -0.0000 -0.5729 -0.8196
vn -0.0000 -0.6915 -0.7223
vn -0.3828 -0.6535 -0.6530
vn -0.3691 -0.6055 -0.7051
vn 0.9935 0.0863 -0.0748
vn 0.9557 0.1097 0.2733
vn -0.9613 -0.0472 0.2714
vn 0.6261 0.3387 0.7024
vn 0.5614 -0.0255 0.8271
vn 0.5434 0.3084 0.7808
vn -0.5812 0.2375 -0.7784
vn -0.7432 0.2324 -0.6274
vn -0.9829 0.0028 -0.1841
vn -0.9766 -0.0240 -0.2136
vn -0.9896 0.0537 -0.1336
vn -0.9913 0.0459 -0.1235
vn -0.9939 0.0786 0.0769
vn -0.9773 0.0329 0.2094
vn -0.9266 0.0618 0.3709
vn -0.8693 -0.0439 0.4924
vn -0.9594 0.0658 0.2742
vn -0.9070 -0.3867 0.1667
vn 0.9964 0.0544 -0.0655
vn 0.9949 0.0635 -0.0780
vn 0.8549 -0.0083 0.5187
vn 0.9266 0.0618 0.3709
vn 0.8693 -0.0439 0.4924
vn 0.7549 -0.0643 0.6527
vn 0.8753 0.2418 0.4187
vn 0.9222 0.3449 0.1749
vn -0.8829 -0.4434 0.1545
vn -0.9150 -0.4029 -0.0204
vn -0.9755 -0.2189 -0.0203
vn -0.9335 -0.3300 0.1401
vn 0.8657 0.0417 -0.4988
vn 0.8469 -0.0180 -0.5314
vn 0.7571 -0.0593 -0.6506
vn 0.7780 -0.0286 -0.6276
vn 0.9687 0.2184 -0.1181
vn 0.8968 0.4171 -0.1478
vn 0.9887 0.1069 -0.1047
vn -0.6197 0.6782 0.3949
vn -0.4871 0.6320 0.6028
vn -0.4208 0.7126 0.5613
vn -0.5772 0.7231 0.3795
vn 0.4624 0.3222 0.8261
vn 0.5373 0.2891 0.7923
vn 0.7381 0.0651 0.6715
vn 0.8153 0.4047 0.4142
vn -0.2431 0.2029 0.9485
vn -0.9887 0.1069 -0.1047
vn -0.9687 0.2184 -0.1181
vn -0.9612 0.1858 -0.2041
vn -0.9811 0.0840 -0.1741
vn 0.9612 0.1858 -0.2041
vn 0.9811 0.0840 -0.1741
vn 0.4170 0.9086 0.0245
vn 0.2897 0.9540 -0.0777
vn 0.1914 0.9812 -0.0238
vn 0.9258 0.1913 -0.3262
vn 0.9516 0.0756 -0.2980
vn 0.9930 -0.0697 -0.0951
vn 0.9842 0.0471 -0.1706
vn 0.9565 0.0179 -0.2911
vn -0.0000 0.4477 -0.8942
vn -0.0000 0.3553 -0.9347
vn -0.1887 0.3618 -0.9130
vn -0.1774 0.4505 -0.8750
vn 0.3181 0.6996 -0.6398
vn 0.4001 0.7120 -0.5770
vn 0.5174 0.5932 -0.6168
vn 0.4128 0.5828 -0.6999
vn -0.0000 -0.2493 -0.9684
vn -0.0000 -0.4562 -0.8899
vn -0.3421 -0.4745 -0.8110
vn -0.3282 -0.2530 -0.9101
vn -0.7873 0.4709 -0.3979
vn -0.7257 0.4568 -0.5145
vn -0.7986 0.3507 -0.4891
vn -0.8676 0.3370 -0.3656
vn 0.9846 0.0183 -0.1740
vn 0.9916 0.0560 -0.1168
vn 0.9913 0.0459 -0.1235
vn 0.9829 0.0028 -0.1841
vn 0.6076 0.0039 -0.7943
vn 0.6008 0.0884 -0.7945
vn 0.7723 0.0853 -0.6296
vn 0.7802 -0.0001 -0.6255
vn -0.9977 0.0656 0.0143
vn 0.6452 -0.1036 0.7569
vn 0.6432 -0.5041 0.5763
vn 0.9568 -0.0297 -0.2891
vn 0.9896 0.0537 -0.1336
vn 0.9766 -0.0240 -0.2136
vn 0.9995 0.0301 0.0046
vn 0.9869 0.0801 -0.1403
vn -0.6511 -0.6281 0.4260
vn 0.9001 0.3560 -0.2511
vn 0.8085 0.5156 -0.2836
vn 0.7972 0.5800 -0.1676
vn -0.7345 0.1616 0.6590
vn -0.6397 -0.2799 0.7158
vn -0.4974 -0.5423 0.6772
vn -0.9801 -0.1955 -0.0354
vn -0.8044 -0.5842 0.1083
vn 0.5098 -0.1115 -0.8530
vn 0.5463 0.0432 -0.8365
vn 0.2894 0.0644 -0.9550
vn 0.2630 -0.0683 -0.9624
vn 0.8035 -0.4716 -0.3633
vn -0.8035 -0.4716 -0.3633
vn -0.7732 0.4537 0.4431
vn -0.6224 0.4084 0.6677
vn -0.5341 0.5521 0.6402
vn -0.6720 0.6055 0.4264
vn 0.3980 -0.3083 -0.8640
vn 0.6835 0.7015 -0.2017
vn 0.8768 0.1294 -0.4631
vn 0.8675 -0.0241 -0.4969
vn 0.9421 -0.0796 -0.3258
vn 0.7407 0.0165 -0.6717
vn 0.7451 0.1718 -0.6445
vn 0.5462 0.1704 -0.8202
vn 0.6798 0.6622 -0.3151
vn -0.3280 0.8225 -0.4646
vn -0.4645 0.7282 -0.5039
vn -0.5098 0.7484 -0.4243
vn -0.3613 0.8377 -0.4094
vn 0.5361 0.7723 -0.3408
vn 0.5466 0.7987 -0.2516
vn 0.5133 0.8553 -0.0708
vn 0.5435 0.8237 -0.1615
vn 0.9658 -0.0428 0.2557
vn 0.9949 0.0408 0.0920
vn -0.0000 0.5716 -0.8206
vn -0.1476 0.5727 -0.8063
vn -0.0787 0.7892 -0.6091
vn -0.1136 0.6856 -0.7191
vn -0.2213 0.6908 -0.6883
vn -0.1529 0.7938 -0.5887
vn 0.6513 0.6313 -0.4210
vn 0.5098 0.7484 -0.4243
vn 0.2796 0.8104 -0.5149
vn 0.3280 0.8225 -0.4646
vn 0.4645 0.7282 -0.5039
vn 0.3891 0.8737 -0.2919
vn 0.9773 0.0329 0.2094
vn 0.9865 0.0902 -0.1366
vn 0.2119 0.9150 -0.3433
vn 0.2212 0.9244 -0.3108
vn 0.3826 0.8547 -0.3507
vn -0.5523 -0.4309 -0.7137
vn 0.7894 -0.3563 -0.4998
vn 0.8324 -0.1740 -0.5261
vn 0.9748 -0.2181 0.0461
vn 0.7873 0.4709 -0.3979
vn 0.8676 0.3370 -0.3656
vn 0.7986 0.3507 -0.4891
vn 0.7257 0.4568 -0.5145
vn 0.8574 0.2131 -0.4684
vn 0.1637 0.9683 -0.1887
vn 0.1117 0.9820 -0.1524
vn 0.0938 0.9955 0.0115
vn 0.0592 0.9889 -0.1364
vn -0.6513 0.6313 -0.4210
vn -0.5974 0.6087 -0.5221
vn 0.7432 0.2324 -0.6274
vn 0.8873 0.0775 -0.4546
vn 0.8938 0.0020 -0.4484
vn 0.3613 0.8377 -0.4094
vn -0.1213 0.8822 -0.4550
vn -0.0866 0.8744 -0.4775
vn -0.2220 0.8004 -0.5569
vn 0.8969 -0.0638 -0.4375
vn -0.8768 0.1294 -0.4631
vn -0.8840 0.1296 -0.4491
vn -0.9646 0.0841 -0.2498
vn -0.9584 0.0491 -0.2811
vn 0.5974 0.6087 -0.5221
vn -0.2025 0.9502 -0.2371
vn -0.1637 0.9683 -0.1887
vn -0.0000 0.9487 -0.3161
vn -0.1117 0.9820 -0.1524
vn -0.2112 0.9370 -0.2782
vn -0.2212 0.9244 -0.3108
vn 0.5531 -0.4083 0.7262
vn 0.9498 -0.0846 -0.3011
vn 0.8911 -0.1487 -0.4287
vn -0.2053 0.9031 -0.3772
vn -0.1804 0.8960 -0.4058
vn -0.2119 0.9150 -0.3433
vn 0.9588 -0.0527 -0.2792
vn 0.4797 -0.6407 -0.5994
vn 0.4637 -0.6813 -0.5664
vn 0.3828 -0.6535 -0.6530
vn 0.3691 -0.6055 -0.7051
vn 0.3421 -0.4745 -0.8110
vn 0.6881 0.3721 -0.6229
vn 0.6265 0.4588 -0.6300
vn 0.2053 0.9031 -0.3772
vn 0.4980 0.4596 -0.7354
vn 0.5420 0.3802 -0.7494
vn 0.5812 0.2375 -0.7784
vn 0.1804 0.8960 -0.4058
vn 0.9236 -0.0438 -0.3808
vn 0.3466 0.4561 -0.8197
vn -0.9949 0.0635 -0.0780
vn -0.9964 0.0544 -0.0655
vn -0.9974 0.0479 0.0544
vn 0.6218 -0.0768 -0.7794
vn 0.7896 -0.0793 -0.6085
vn 0.7937 -0.1647 -0.5856
vn 0.6337 -0.1730 -0.7539
vn -0.1584 0.8857 -0.4365
vn -0.8549 -0.0083 0.5187
vn -0.9991 0.0400 -0.0167
vn 0.9424 -0.1359 -0.3056
vn 0.9290 -0.1911 -0.3169
vn -0.1914 0.9812 -0.0238
vn 0.1213 0.8822 -0.4550
vn 0.1584 0.8857 -0.4365
vn 0.2220 0.8004 -0.5569
vn -0.6076 0.0039 -0.7943
vn -0.3985 0.0046 -0.9172
vn -0.4105 -0.0630 -0.9097
vn -0.6218 -0.0768 -0.7794
vn -0.9498 -0.0846 -0.3011
vn -0.8911 -0.1487 -0.4287
vn -0.9290 -0.1911 -0.3169
vn -0.9424 -0.1359 -0.3056
vn 0.9771 0.1056 0.1846
vn 0.9141 -0.1885 -0.3589
vn 0.9682 0.0508 -0.2448
vn 0.8904 0.0357 -0.4537
vn 0.8840 0.1296 -0.4491
vn 0.8832 0.0124 -0.4688
vn 0.9876 0.1034 -0.1184
vn 0.9895 0.1233 -0.0753
vn -0.8602 0.5053 -0.0694
vn -0.8968 0.4171 -0.1478
vn -0.9502 0.3054 -0.0619
vn 0.9991 0.0400 -0.0167
vn -0.2897 0.9540 -0.0777
vn -0.4170 0.9086 0.0245
vn 0.8910 -0.1755 -0.4187
vn 0.9054 -0.1600 -0.3933
vn 0.2995 0.1622 -0.9402
vn 0.5449 0.0918 -0.8335
vn 0.3064 0.0725 -0.9491
vn 0.8166 0.5512 0.1716
vn 0.3922 0.2277 -0.8913
vn 0.3976 0.0781 -0.9142
vn 0.9107 -0.1145 -0.3970
vn 0.8091 -0.1950 -0.5544
vn -0.3601 0.9193 -0.1590
vn -0.5133 0.8553 -0.0708
vn -0.7620 0.6437 -0.0705
vn -0.7046 0.7095 0.0064
vn -0.9682 0.0508 -0.2448
vn -0.9915 0.0476 -0.1211
vn -0.9890 0.0406 -0.1424
vn 0.3985 0.0046 -0.9172
vn 0.8302 -0.1576 -0.5347
vn -0.6165 0.7872 -0.0178
vn 0.1529 0.7938 -0.5887
vn 0.0866 0.8744 -0.4775
vn 0.9907 0.0791 -0.1110
vn 0.4105 -0.0630 -0.9097
vn 0.2431 0.2029 0.9485
vn 0.2907 -0.1865 0.9385
vn -0.9771 0.1056 0.1846
vn -0.9141 -0.1885 -0.3589
vn -0.9093 0.2657 0.3204
vn -0.6261 0.3387 0.7024
vn -0.5434 0.3084 0.7808
vn 0.3735 0.3741 -0.8488
vn -0.0000 -0.0471 -0.9989
vn -0.2630 -0.0683 -0.9624
vn -0.2330 -0.1221 -0.9648
vn -0.0000 -0.0995 -0.9950
vn -0.4797 -0.6407 -0.5994
vn -0.5180 -0.4946 -0.6979
vn -0.5466 0.7987 -0.2516
vn -0.5361 0.7723 -0.3408
vn -0.6798 0.6622 -0.3151
vn -0.6835 0.7015 -0.2017
vn -0.0428 0.8750 -0.4822
vn -0.8821 -0.2436 -0.4031
vn 0.8821 -0.2436 -0.4031
vn 0.1887 0.3618 -0.9130
vn 0.1923 0.2114 -0.9583
vn -0.0000 0.2036 -0.9790
vn -0.7937 -0.1647 -0.5856
vn 0.6606 -0.2031 -0.7227
vn 0.6945 -0.1562 -0.7023
vn 0.0787 0.7892 -0.6091
vn -0.8246 -0.3956 -0.4045
vn -0.7894 -0.3563 -0.4998
vn -0.7311 -0.2929 -0.6162
vn -0.8068 -0.3405 -0.4829
vn 0.7311 -0.2929 -0.6162
vn -0.2995 0.1622 -0.9402
vn -0.5462 0.1704 -0.8202
vn -0.2894 0.0644 -0.9550
vn 0.1889 0.0604 -0.9801
vn -0.0000 0.0517 -0.9987
vn 0.1774 0.4505 -0.8750
vn -0.9846 0.0183 -0.1740
vn -0.9916 0.0560 -0.1168
vn -0.6632 0.7419 -0.0992
vn 0.2330 -0.1221 -0.9648
vn 0.4686 -0.1689 -0.8671
vn -0.9107 -0.1145 -0.3970
vn -0.8832 0.0124 -0.4688
vn -0.9954 0.0956 0.0069
vn -0.9898 0.1426 -0.0048
vn 0.7247 -0.1702 -0.6677
vn -0.0000 0.6839 -0.7296
vn -0.0000 0.8704 -0.4923
vn -0.9393 -0.2914 0.1810
vn -0.7061 -0.1932 0.6812
vn -0.1228 -0.3780 0.9176
vn 0.1240 -0.8125 0.5697
vn -0.1923 0.2114 -0.9583
vn -0.5449 0.0918 -0.8335
vn -0.5490 -0.0446 -0.8346
vn -0.7499 -0.0064 -0.6615
vn -0.7469 0.1212 -0.6538
vn -0.0000 0.7882 -0.6154
vn 0.0428 0.8750 -0.4822
vn -0.2877 0.5764 -0.7648
vn -0.3922 0.2277 -0.8913
vn -0.3735 0.3741 -0.8488
vn -0.3466 0.4561 -0.8197
vn -0.1889 0.0604 -0.9801
vn -0.3976 0.0781 -0.9142
vn -0.0000 -0.0446 -0.9990
vn 0.1915 -0.0498 -0.9802
vn 0.2066 -0.1198 -0.9711
vn -0.0000 -0.1047 -0.9945
vn -0.0000 -0.0029 -1.0000
vn -0.1860 -0.0000 -0.9826
vn -0.3181 0.6996 -0.6398
vn -0.4001 0.7120 -0.5770
vn 0.9915 0.0476 -0.1211
vn 0.1860 -0.0000 -0.9826
vn 0.9925 -0.0652 -0.1037
vn 0.9660 -0.1022 -0.2376
vn 0.9432 -0.2748 -0.1866
vn 0.9075 -0.4077 -0.1014
vn 0.7714 -0.4919 -0.4037
vn 0.8321 -0.3559 -0.4253
vn -0.0000 0.0678 -0.9977
vn -0.0000 -0.0674 -0.9977
vn -0.3157 -0.0625 -0.9468
vn -0.3064 0.0725 -0.9491
vn 0.4315 -0.1527 -0.8891
vn 0.9710 -0.2367 -0.0327
vn -0.6675 -0.4561 -0.5886
vn -0.5840 -0.5959 -0.5513
vn -0.7972 0.5800 -0.1676
vn -0.5483 -0.2523 -0.7973
vn -0.7364 -0.2174 -0.6407
vn -0.7723 0.0853 -0.6296
vn -0.8873 0.0775 -0.4546
vn -0.4923 0.5063 0.7080
vn -0.4402 0.6065 0.6621
vn 0.7499 -0.0064 -0.6615
vn 0.7364 -0.2174 -0.6407
vn 0.5483 -0.2523 -0.7973
vn 0.5490 -0.0446 -0.8346
vn -0.0000 0.1631 -0.9866
vn -0.0000 0.0771 -0.9970
vn 0.8503 -0.5256 -0.0271
vn 0.6958 -0.6299 -0.3450
vn -0.8381 -0.5044 0.2078
vn -0.8503 -0.5256 -0.0271
vn -0.6454 -0.7303 -0.2241
vn -0.2066 -0.1198 -0.9711
vn -0.1915 -0.0498 -0.9802
vn 0.7469 0.1212 -0.6538
vn -0.9516 0.0756 -0.2980
vn -0.9842 0.0471 -0.1706
vn -0.6958 -0.6299 -0.3450
vn -0.4539 -0.7351 -0.5036
vn 0.4539 -0.7351 -0.5036
vn 0.5840 -0.5959 -0.5513
vn -0.2169 -0.8461 -0.4869
vn 0.8804 -0.1534 -0.4487
vn 0.6675 -0.4561 -0.5886
vn 0.5180 -0.4946 -0.6979
vn 0.3157 -0.0625 -0.9468
vn 0.3282 -0.2530 -0.9101
vn -0.6008 0.0884 -0.7945
vn -0.2796 0.8104 -0.5149
vn -0.6110 -0.0561 0.7896
vn -0.6339 0.0322 0.7727
vn -0.9780 -0.2029 -0.0485
vn -0.8580 -0.5039 0.1000
vn -0.0000 -0.7711 -0.6367
vn -0.7451 0.1718 -0.6445
vn -0.9865 0.1532 -0.0581
vn -0.9911 0.1143 -0.0681
vn -0.9682 0.2499 0.0083
vn -0.9821 0.1692 -0.0822
vn -0.6746 0.1403 0.7248
vn -0.7100 0.1595 0.6859
vn -0.8469 -0.0180 -0.5314
vn -0.8324 -0.1740 -0.5261
vn -0.8904 0.0357 -0.4537
vn -0.3643 0.7008 0.6134
vn -0.4637 -0.6813 -0.5664
vn -0.9621 0.2699 0.0401
vn -0.9835 -0.0022 -0.1810
vn -0.8765 -0.3515 -0.3290
vn -0.5792 -0.2552 -0.7742
vn -0.6012 0.1299 -0.7885
vn 0.3539 -0.3411 -0.8709
vn 0.2169 -0.8461 -0.4869
vn 0.6454 -0.7303 -0.2241
vn -0.7714 -0.4919 -0.4037
vn -0.8321 -0.3559 -0.4253
vn -0.9834 0.0051 -0.1816
vn -0.9075 -0.4077 -0.1014
vn -0.8085 0.5156 -0.2836
vn -0.5435 0.8237 -0.1615
vn -0.8574 0.2131 -0.4684
vn -0.8804 -0.1534 -0.4487
vn -0.9660 -0.1022 -0.2376
vn -0.9432 -0.2748 -0.1866
vn -0.9710 -0.2367 -0.0327
vn -0.9925 -0.0652 -0.1037
vn -0.9258 0.1913 -0.3262
vn -0.9001 0.3560 -0.2511
vn -0.9907 0.0791 -0.1110
vn -0.7780 -0.0286 -0.6276
vn -0.8657 0.0417 -0.4988
vn -0.9314 -0.3553 0.0793
vn -0.9935 0.0863 -0.0748
vn -0.9895 0.1233 -0.0753
vn 0.7183 0.1760 0.6731
vn 0.7100 0.1595 0.6859
vn 0.9696 0.2443 -0.0130
vn 0.9983 0.0527 0.0262
vn -0.7571 -0.0593 -0.6506
vn 0.8381 -0.5044 0.2078
vn -0.9876 0.1034 -0.1184
vn -0.7247 -0.1702 -0.6677
vn -0.3826 0.8547 -0.3507
vn -0.8849 -0.2892 -0.3651
vn -0.8636 -0.2919 -0.4112
vn -0.3852 0.8933 -0.2315
vn -0.3891 0.8737 -0.2919
vn 0.9093 0.2657 0.3204
vn -0.6605 -0.0288 0.7502
vn -0.9638 -0.2334 0.1291
vn -0.5614 -0.0255 0.8271
vn -0.0000 -0.4095 0.9123
vn -0.0000 -0.4390 0.8985
vn 0.0275 -0.4009 0.9157
vn 0.9314 -0.3553 0.0793
vn -0.6274 -0.4514 0.6345
vn -0.8458 -0.5165 0.1338
vn -0.5801 -0.5129 0.6328
vn -0.6792 -0.2892 0.6746
vn -0.0000 -0.4070 0.9134
vn -0.7549 -0.0643 0.6527
vn -0.5905 0.0203 0.8068
vn -0.7249 0.0945 0.6823
vn -0.9222 0.3449 0.1749
vn -0.5467 0.3403 0.7651
vn 0.4974 -0.5423 0.6772
vn 0.9801 -0.1955 -0.0354
vn 0.4966 -0.5207 -0.6945
vn 0.0602 -0.9681 0.2434
vn -0.5531 -0.4083 0.7262
vn -0.4935 0.0292 0.8692
vn -0.5515 -0.3239 0.7687
vn -0.2327 -0.4565 0.8587
vn -0.2321 -0.4577 0.8583
vn 0.2110 -0.6312 0.7464
vn 0.5714 -0.6308 0.5249
vn -0.0831 -0.3604 0.9291
vn -0.2371 -0.2863 0.9284
vn -0.2907 -0.1865 0.9385
vn -0.3641 -0.4600 0.8098
vn 0.7345 0.1616 0.6590
vn 0.6949 -0.6233 -0.3587
vn 0.0691 0.2663 0.9614
vn 0.1433 0.0971 0.9849
vn 0.2287 -0.0166 0.9734
vn -0.4966 -0.5207 -0.6945
vn -0.0602 -0.9681 0.2434
vn 0.0831 -0.3604 0.9291
vn 0.2371 -0.2863 0.9284
vn -0.0144 -0.0943 0.9954
vn 0.0268 -0.3852 0.9224
vn 0.6397 -0.2799 0.7158
vn 0.9335 -0.3300 0.1401
vn 0.5523 -0.4309 -0.7137
vn -0.1023 -0.3450 0.9330
vn -0.0510 -0.9401 0.3370
vn -0.0000 -0.6735 0.7392
vn 0.6954 -0.5816 0.4222
vn -0.6954 -0.5816 0.4222
vn 0.9755 -0.2189 -0.0203
vn 0.9953 -0.0423 0.0868
vn -0.1240 -0.8125 0.5697
vn 0.7061 -0.1932 0.6812
vn 0.6012 0.1299 -0.7885
vn 0.6396 0.1232 -0.7587
vn 0.9850 -0.1440 0.0948
vn 0.9393 -0.2914 0.1810
vn 0.7314 -0.2028 0.6511
vn 0.6275 -0.1890 -0.7553
vn 0.1023 -0.3450 0.9330
vn 0.9553 -0.2772 0.1025
vn -0.7314 -0.2028 0.6511
vn 0.0510 -0.9401 0.3370
vn 0.8974 -0.4213 0.1309
vn -0.2287 -0.0166 0.9734
vn -0.9485 -0.2797 0.1488
vn -0.8740 -0.4761 0.0968
vn 0.8613 -0.4872 0.1442
vn -0.9953 -0.0423 0.0868
vn 0.8170 -0.5287 0.2300
vn 0.8570 -0.4927 0.1512
vn -0.9850 -0.1440 0.0948
vn 0.8153 -0.5008 0.2908
vn -0.2110 -0.6312 0.7464
vn 0.2321 -0.4577 0.8583
vn 0.2327 -0.4565 0.8587
vn -0.5714 -0.6308 0.5249
vn 0.7489 -0.5696 0.3385
vn -0.9553 -0.2772 0.1025
vn -0.2278 -0.4659 0.8550
vn -0.8974 -0.4213 0.1309
vn -0.8613 -0.4872 0.1442
vn -0.8170 -0.5287 0.2300
vn -0.8570 -0.4927 0.1512
vn -0.8153 -0.5008 0.2908
vn 0.5792 -0.2552 -0.7742
vn 0.8580 -0.5039 0.1000
vn 0.4895 -0.6077 -0.6254
vn -0.7489 -0.5696 0.3385
vn 0.2278 -0.4659 0.8550
vn -0.7183 0.1760 0.6731
vn 0.7079 -0.7050 -0.0445
vn 0.6110 -0.0561 0.7896
vn -0.4895 -0.6077 -0.6254
vn -0.9755 -0.0452 0.2151
vn -0.9685 0.0363 0.2462
vn -0.0691 0.2663 0.9614
vn -0.1433 0.0971 0.9849
vn -0.7079 -0.7050 -0.0445
vt 0.000000 0.000000
s 1
f 1/1/1 2/1/2 3/1/3
f 3/1/3 2/1/2 4/1/4
f 2/1/2 5/1/5 6/1/6
f 2/1/2 7/1/7 8/1/8
f 2/1/2 8/1/8 5/1/5
f 2/1/2 6/1/6 9/1/9
f 643/1/10 650/1/11 645/1/12 638/1/13
f 578/1/14 580/1/15 586/1/16 589/1/17
f 66/1/18 75/1/19 65/1/20 57/1/21
f 262/1/22 293/1/23 268/1/24 234/1/25
f 12/1/26 14/1/27 17/1/28
f 149/1/29 219/1/30 220/1/31 174/1/32
f 82/1/33 74/1/34 73/1/35 81/1/36
f 90/1/37 258/1/38 91/1/39 65/1/20
f 91/1/39 97/1/40 64/1/41 65/1/20
f 15/1/42 16/1/43 23/1/44
f 57/1/21 64/1/41 56/1/45 45/1/46
f 32/1/47 54/1/48 44/1/49 33/1/50
f 17/1/28 22/1/51 27/1/52
f 600/1/53 609/1/54 605/1/55 592/1/56
f 82/1/33 612/1/57 609/1/54 600/1/53
f 81/1/36 616/1/58 612/1/57 82/1/33
f 292/1/59 348/1/60 346/1/61 340/1/62
f 111/1/63 113/1/64 107/1/65 106/1/66
f 26/1/67 36/1/68 28/1/69
f 592/1/56 534/1/70 540/1/71 588/1/72
f 212/1/73 213/1/74 210/1/75 209/1/76
f 28/1/69 36/1/68 39/1/77
f 127/1/78 128/1/79 119/1/80 118/1/81
f 612/1/57 617/1/82 613/1/83 609/1/54
f 616/1/58 623/1/84 617/1/82 612/1/57
f 264/1/85 548/1/86 269/1/87 263/1/88
f 258/1/38 264/1/85 263/1/88 246/1/89
f 25/1/90 35/1/91 34/1/92 24/1/93
f 539/1/94 548/1/86 540/1/71 533/1/95
f 533/1/95 540/1/71 534/1/70 527/1/96
f 547/1/97 269/1/87 548/1/86 539/1/94
f 255/1/98 194/1/99 186/1/100 249/1/101
f 623/1/84 633/1/102 624/1/103 617/1/82
f 617/1/82 624/1/103 618/1/104 613/1/83
f 574/1/105 580/1/15 578/1/14 572/1/106
f 243/1/107 212/1/73 209/1/76 214/1/108
f 190/1/109 245/1/110 240/1/111 196/1/112
f 631/1/113 646/1/114 639/1/115 632/1/116
f 769/1/117 767/1/118 711/1/119 710/1/120
f 317/1/121 323/1/122 324/1/123 312/1/124
f 293/1/23 333/1/125 299/1/126 268/1/24
f 544/1/127 545/1/128 537/1/129 536/1/130
f 164/1/131 165/1/132 134/1/133 142/1/134
f 56/1/45 70/1/135 63/1/136 34/1/92
f 672/1/137 678/1/138 662/1/139 664/1/140
f 57/1/21 65/1/20 64/1/41
f 653/1/141 661/1/142 654/1/143 646/1/114
f 60/1/144 59/1/145 67/1/146
f 751/1/147 759/1/148 758/1/149 750/1/150
f 641/1/151 644/1/152 637/1/153 634/1/154
f 589/1/17 594/1/155 590/1/156 585/1/157
f 89/1/158 99/1/159 96/1/160 54/1/48
f 64/1/41 97/1/40 70/1/135 56/1/45
f 70/1/135 95/1/161 71/1/162 63/1/136
f 11/1/163 14/1/27 12/1/26 13/1/164
f 68/1/165 76/1/166 69/1/167
f 637/1/153 642/1/168 635/1/169 627/1/170
f 649/1/171 643/1/10 642/1/168 644/1/152
f 97/1/40 101/1/172 95/1/161 70/1/135
f 143/1/173 144/1/174 135/1/175 127/1/78
f 75/1/19 74/1/34 83/1/176
f 15/1/42 22/1/51 17/1/28 14/1/27
f 77/1/177 84/1/178 76/1/166
f 77/1/177 85/1/179 84/1/178
f 621/1/180 622/1/181 615/1/182 620/1/183
f 583/1/184 596/1/185 582/1/186 575/1/187
f 95/1/161 100/1/188 87/1/189 71/1/162
f 101/1/172 230/1/190 100/1/188 95/1/161
f 352/1/191 354/1/192 286/1/193 280/1/194
f 37/1/195 36/1/68 26/1/67 27/1/52
f 196/1/112 147/1/196 153/1/197 190/1/109
f 88/1/198 87/1/189 93/1/199
f 93/1/199 215/1/200 192/1/201 94/1/202
f 71/1/162 80/1/203 72/1/204 63/1/136
f 236/1/205 246/1/89 242/1/206 237/1/207
f 467/1/208 472/1/209 468/1/210 446/1/211
f 619/1/212 626/1/213 551/1/214 543/1/215
f 92/1/216 94/1/202 99/1/159
f 87/1/189 100/1/188 93/1/199
f 86/1/217 89/1/158 21/1/218 79/1/219
f 74/1/34 82/1/33 600/1/53 83/1/176
f 626/1/213 628/1/220 558/1/221 551/1/214
f 636/1/222 638/1/13 628/1/220 626/1/213
f 543/1/215 513/1/223 521/1/224 542/1/225
f 406/1/226 418/1/227 412/1/228 405/1/229
f 551/1/214 512/1/230 513/1/223 543/1/215
f 558/1/221 628/1/220 629/1/231 620/1/183
f 103/1/232 106/1/66 107/1/65
f 636/1/222 642/1/168 643/1/10 638/1/13
f 565/1/233 572/1/106 573/1/234 566/1/235
f 213/1/74 256/1/236 188/1/237 210/1/75
f 146/1/238 208/1/239 148/1/240 139/1/241
f 638/1/13 645/1/12 621/1/180 629/1/231
f 106/1/66 112/1/242 111/1/63
f 165/1/132 173/1/243 171/1/244 172/1/245
f 127/1/78 126/1/246 151/1/247 143/1/173
f 558/1/221 620/1/183 514/1/248 559/1/249
f 598/1/250 602/1/251 599/1/252 595/1/253
f 574/1/105 544/1/127 536/1/130 580/1/15
f 618/1/104 625/1/254 619/1/212 614/1/255
f 704/1/256 761/1/257 721/1/258 705/1/259
f 516/1/260 523/1/261 517/1/262 509/1/263
f 504/1/264 532/1/265 533/1/95 527/1/96
f 503/1/266 504/1/264 527/1/96 521/1/224
f 292/1/59 340/1/62 293/1/23 262/1/22
f 29/1/267 30/1/268 19/1/269 18/1/270
f 118/1/81 126/1/246 127/1/78
f 651/1/271 658/1/272 652/1/273 630/1/274
f 119/1/80 128/1/79 121/1/275
f 123/1/276 122/1/277 131/1/278 129/1/279
f 499/1/280 504/1/264 503/1/266 498/1/281
f 247/1/282 591/1/283 241/1/284 242/1/206
f 483/1/285 499/1/280 498/1/281 488/1/286
f 622/1/181 632/1/116 608/1/287 615/1/182
f 128/1/79 127/1/78 135/1/175
f 498/1/281 494/1/288 478/1/289 488/1/286
f 304/1/290 310/1/291 291/1/292 298/1/293
f 332/1/294 564/1/295 338/1/296 331/1/297
f 403/1/298 404/1/299 397/1/300 398/1/301
f 166/1/302 204/1/303 181/1/304 175/1/305
f 500/1/306 506/1/307 505/1/308 490/1/309
f 448/1/310 465/1/311 455/1/312 449/1/313
f 117/1/314 142/1/134 134/1/133
f 659/1/315 660/1/316 653/1/141 652/1/273
f 494/1/288 500/1/306 484/1/317 478/1/289
f 286/1/193 354/1/192 348/1/60 292/1/59
f 507/1/318 489/1/319 490/1/309 505/1/308
f 514/1/248 535/1/320 515/1/321 507/1/318
f 144/1/174 143/1/173 150/1/322
f 144/1/174 150/1/322 4/1/4
f 652/1/273 653/1/141 646/1/114 631/1/113
f 497/1/323 541/1/324 538/1/325 532/1/265
f 538/1/325 539/1/94 533/1/95 532/1/265
f 765/1/326 703/1/327 681/1/328 702/1/329
f 150/1/322 154/1/330 4/1/4
f 392/1/331 400/1/332 393/1/333 386/1/334
f 646/1/114 654/1/143 647/1/335 639/1/115
f 4/1/4 155/1/336 3/1/3
f 4/1/4 154/1/330 155/1/336
f 51/1/337 52/1/338 41/1/339 40/1/340
f 639/1/115 640/1/341 608/1/287 632/1/116
f 546/1/342 547/1/97 539/1/94 538/1/325
f 446/1/211 440/1/343 427/1/344 436/1/345
f 400/1/332 421/1/346 420/1/347 414/1/348
f 541/1/324 549/1/349 546/1/342 538/1/325
f 216/1/350 198/1/351 191/1/352 211/1/353
f 549/1/349 555/1/354 554/1/355 546/1/342
f 581/1/356 269/1/87 547/1/97 576/1/357
f 603/1/358 607/1/359 535/1/320 608/1/287
f 305/1/360 304/1/290 298/1/293 300/1/361
f 287/1/362 294/1/363 265/1/364 270/1/365
f 550/1/366 556/1/367 555/1/354 549/1/349
f 564/1/295 570/1/368 563/1/369 557/1/370
f 575/1/187 576/1/357 554/1/355 568/1/371
f 582/1/186 591/1/283 247/1/282 581/1/356
f 602/1/251 606/1/372 603/1/358 599/1/252
f 165/1/132 164/1/131 173/1/243
f 607/1/359 528/1/373 515/1/321 535/1/320
f 569/1/374 587/1/375 568/1/371 561/1/376
f 558/1/221 559/1/249 512/1/230 551/1/214
f 710/1/120 711/1/119 702/1/329 709/1/377
f 586/1/16 530/1/378 524/1/379 604/1/380
f 487/1/381 493/1/382 477/1/383 482/1/384
f 575/1/187 582/1/186 581/1/356 576/1/357
f 477/1/383 493/1/382 483/1/285 476/1/385
f 591/1/283 248/1/386 229/1/387 241/1/284
f 23/1/44 79/1/219 21/1/218 15/1/42
f 223/1/388 241/1/284 229/1/387 222/1/389
f 167/1/390 191/1/352 198/1/351 197/1/391
f 470/1/392 476/1/385 471/1/393 455/1/312
f 455/1/312 471/1/393 456/1/394 449/1/313
f 556/1/367 562/1/395 561/1/376 555/1/354
f 93/1/199 223/1/388 222/1/389 215/1/200
f 231/1/396 275/1/397 270/1/365 232/1/398
f 478/1/289 484/1/317 462/1/399 456/1/394
f 353/1/400 341/1/401 334/1/402 326/1/403
f 550/1/366 486/1/404 557/1/370 556/1/367
f 193/1/405 185/1/406 199/1/407
f 185/1/406 184/1/408 199/1/407
f 184/1/408 192/1/201 199/1/407
f 193/1/405 199/1/407 177/1/409
f 177/1/409 199/1/407 200/1/410
f 578/1/14 589/1/17 585/1/157 579/1/411
f 462/1/399 484/1/317 466/1/412 444/1/413
f 211/1/353 217/1/414 218/1/415 216/1/350
f 200/1/410 199/1/407 205/1/416
f 579/1/411 573/1/234 572/1/106 578/1/14
f 507/1/318 515/1/321 495/1/417 489/1/319
f 434/1/418 426/1/419 425/1/420 433/1/421
f 410/1/422 433/1/421 406/1/226 404/1/299
f 475/1/423 339/1/424 482/1/384 477/1/383
f 601/1/425 569/1/374 561/1/376 562/1/395
f 336/1/426 339/1/424 475/1/423 344/1/427
f 344/1/427 475/1/423 470/1/392 469/1/428
f 561/1/376 568/1/371 554/1/355 555/1/354
f 192/1/201 215/1/200 199/1/407
f 556/1/367 557/1/370 563/1/369 562/1/395
f 205/1/416 199/1/407 217/1/414
f 217/1/414 199/1/407 218/1/415
f 597/1/429 601/1/425 562/1/395 563/1/369
f 515/1/321 528/1/373 501/1/430 495/1/417
f 331/1/297 336/1/426 328/1/431 324/1/123
f 215/1/200 222/1/389 199/1/407
f 141/1/432 116/1/433 112/1/242 102/1/434
f 88/1/198 93/1/199 94/1/202 92/1/216
f 443/1/435 445/1/436 438/1/437 437/1/438
f 218/1/415 199/1/407 225/1/439
f 90/1/37 588/1/72 264/1/85 258/1/38
f 179/1/440 244/1/441 249/1/101 186/1/100
f 457/1/442 489/1/319 495/1/417 458/1/443
f 222/1/389 229/1/387 199/1/407
f 94/1/202 192/1/201 184/1/408 110/1/444
f 577/1/445 593/1/446 570/1/368 571/1/447
f 225/1/439 199/1/407 231/1/396
f 250/1/448 273/1/449 274/1/450 252/1/451
f 203/1/452 233/1/453 234/1/25
f 268/1/24 299/1/126 235/1/454 228/1/455
f 567/1/456 552/1/457 544/1/127 574/1/105
f 92/1/216 99/1/159 89/1/158 86/1/217
f 230/1/190 237/1/207 223/1/388
f 473/1/458 474/1/459 432/1/460 468/1/210
f 508/1/461 611/1/462 522/1/463 516/1/260
f 567/1/456 574/1/105 572/1/106 565/1/233
f 456/1/394 462/1/399 445/1/436 449/1/313
f 88/1/198 92/1/216 86/1/217 80/1/203
f 96/1/160 99/1/159 94/1/202 110/1/444
f 47/1/464 145/1/465 122/1/277 115/1/466
f 331/1/297 338/1/296 339/1/424 336/1/426
f 529/1/467 522/1/463 602/1/251 598/1/250
f 21/1/218 89/1/158 54/1/48 32/1/47
f 110/1/444 178/1/468 55/1/469 96/1/160
f 54/1/48 96/1/160 55/1/469 44/1/49
f 229/1/387 248/1/386 199/1/407
f 450/1/470 466/1/412 457/1/442 435/1/471
f 594/1/155 604/1/380 529/1/467 598/1/250
f 394/1/472 414/1/348 415/1/473 408/1/474
f 470/1/392 455/1/312 465/1/311 469/1/428
f 174/1/32 164/1/131 142/1/134 149/1/29
f 204/1/303 209/1/76 210/1/75 181/1/304
f 483/1/285 488/1/286 471/1/393 476/1/385
f 586/1/16 604/1/380 594/1/155 589/1/17
f 610/1/475 614/1/255 542/1/225 534/1/70
f 322/1/476 469/1/428 465/1/311 464/1/477
f 463/1/478 467/1/208 446/1/211 436/1/345
f 324/1/123 323/1/122 332/1/294 331/1/297
f 11/1/163 16/1/43 15/1/42 14/1/27
f 444/1/413 450/1/470 431/1/479 438/1/437
f 55/1/469 178/1/468 170/1/480 163/1/481
f 22/1/51 32/1/47 33/1/50 27/1/52
f 46/1/482 47/1/464 37/1/195 38/1/483
f 342/1/484 343/1/485 335/1/486 334/1/402
f 464/1/477 465/1/311 448/1/310 459/1/487
f 431/1/479 450/1/470 435/1/471 428/1/488
f 458/1/443 436/1/345 435/1/471 457/1/442
f 55/1/469 163/1/481 43/1/489 44/1/49
f 581/1/356 247/1/282 263/1/88 269/1/87
f 325/1/490 584/1/491 577/1/445 571/1/447
f 514/1/248 620/1/183 615/1/182 535/1/320
f 506/1/307 511/1/492 513/1/223 512/1/230
f 442/1/493 459/1/487 448/1/310 443/1/435
f 231/1/396 199/1/407 275/1/397
f 657/1/494 651/1/271 650/1/11 656/1/495
f 271/1/496 276/1/497 277/1/498
f 271/1/496 277/1/498 272/1/499
f 272/1/499 277/1/498 278/1/500
f 344/1/427 469/1/428 322/1/476 320/1/501
f 363/1/502 364/1/503 358/1/504 362/1/505
f 397/1/300 405/1/229 388/1/506 390/1/507
f 161/1/508 168/1/509 160/1/510 157/1/511
f 275/1/397 199/1/407 281/1/512
f 649/1/171 656/1/495 650/1/11 643/1/10
f 277/1/498 276/1/497 283/1/513
f 552/1/457 553/1/514 545/1/128 544/1/127
f 316/1/515 321/1/516 297/1/517 310/1/291
f 257/1/518 280/1/194 286/1/193
f 430/1/519 438/1/437 431/1/479 422/1/520
f 318/1/521 325/1/490 323/1/122 317/1/121
f 288/1/522 296/1/523 295/1/524 289/1/525
f 40/1/340 41/1/339 30/1/268 29/1/267
f 322/1/476 321/1/516 316/1/515 320/1/501
f 422/1/520 431/1/479 428/1/488 421/1/346
f 427/1/344 440/1/343 420/1/347 421/1/346
f 536/1/130 537/1/129 531/1/526 530/1/378
f 486/1/404 550/1/366 487/1/381 482/1/384
f 373/1/527 374/1/528 346/1/61 367/1/529
f 329/1/530 330/1/531 297/1/517 321/1/516
f 311/1/532 328/1/431 320/1/501 316/1/515
f 436/1/345 427/1/344 428/1/488 435/1/471
f 140/1/533 146/1/238 139/1/241 132/1/534
f 38/1/483 43/1/489 48/1/535 46/1/482
f 487/1/381 541/1/324 497/1/323 493/1/382
f 379/1/536 429/1/537 392/1/331 386/1/334
f 604/1/380 524/1/379 523/1/261 529/1/467
f 304/1/290 311/1/532 316/1/515 310/1/291
f 305/1/360 312/1/124 311/1/532 304/1/290
f 235/1/454 299/1/126 306/1/538
f 220/1/31 306/1/538 227/1/539
f 98/1/540 85/1/179 59/1/145 58/1/541
f 524/1/379 525/1/542 517/1/262 523/1/261
f 522/1/463 529/1/467 523/1/261 516/1/260
f 487/1/381 550/1/366 549/1/349 541/1/324
f 301/1/543 305/1/360 300/1/361 294/1/363
f 281/1/512 199/1/407 313/1/544
f 707/1/545 714/1/546 686/1/547 697/1/548
f 631/1/113 632/1/116 622/1/181 630/1/274
f 291/1/292 310/1/291 297/1/517 290/1/549
f 381/1/550 396/1/551 366/1/552 365/1/553
f 287/1/362 307/1/554 301/1/543 294/1/363
f 281/1/512 313/1/544 307/1/554 287/1/362
f 313/1/544 199/1/407 319/1/555
f 497/1/323 532/1/265 504/1/264 499/1/280
f 494/1/288 511/1/492 506/1/307 500/1/306
f 512/1/230 559/1/249 505/1/308 506/1/307
f 294/1/363 300/1/361 260/1/556 265/1/364
f 281/1/512 287/1/362 270/1/365 275/1/397
f 291/1/292 290/1/549 259/1/557 254/1/558
f 300/1/361 298/1/293 253/1/559 260/1/556
f 259/1/557 290/1/549 285/1/560 267/1/561
f 503/1/266 511/1/492 494/1/288 498/1/281
f 243/1/107 260/1/556 253/1/559 212/1/73
f 312/1/124 324/1/123 328/1/431 311/1/532
f 116/1/433 148/1/240 149/1/29 142/1/134
f 236/1/205 237/1/207 230/1/190 101/1/172
f 212/1/73 253/1/559 254/1/558 213/1/74
f 350/1/562 380/1/563 378/1/564 372/1/565
f 330/1/531 337/1/566 279/1/567 285/1/560
f 238/1/568 243/1/107 214/1/108 221/1/569
f 594/1/155 598/1/250 595/1/253 590/1/156
f 293/1/23 340/1/62 333/1/125
f 446/1/211 468/1/210 432/1/460 440/1/343
f 472/1/209 479/1/570 473/1/458 468/1/210
f 319/1/555 584/1/491 325/1/490 318/1/521
f 259/1/557 256/1/236 213/1/74 254/1/558
f 337/1/566 451/1/571 380/1/563 350/1/562
f 400/1/332 392/1/331 422/1/520 421/1/346
f 323/1/122 325/1/490 571/1/447 332/1/294
f 471/1/393 488/1/286 478/1/289 456/1/394
f 430/1/519 422/1/520 392/1/331 429/1/537
f 485/1/572 491/1/573 473/1/458 479/1/570
f 297/1/517 330/1/531 285/1/560 290/1/549
f 496/1/574 518/1/575 461/1/576 492/1/577
f 401/1/578 407/1/579 399/1/580 402/1/581
f 429/1/537 439/1/582 437/1/438 430/1/519
f 485/1/572 502/1/583 496/1/574 491/1/573
f 47/1/464 115/1/466 36/1/68 37/1/195
f 385/1/584 390/1/507 388/1/506 387/1/585
f 571/1/447 570/1/368 564/1/295 332/1/294
f 157/1/511 152/1/586 46/1/482 48/1/535
f 443/1/435 448/1/310 449/1/313 445/1/436
f 391/1/587 390/1/507 385/1/584 389/1/588
f 379/1/536 386/1/334 363/1/502 362/1/505
f 451/1/571 459/1/487 442/1/493 380/1/563
f 189/1/589 245/1/110 190/1/109 158/1/590
f 41/1/339 42/1/591 31/1/592 30/1/268
f 103/1/232 107/1/65 84/1/178 85/1/179
f 424/1/593 481/1/594 417/1/595 416/1/596
f 394/1/472 395/1/597 371/1/598 393/1/333
f 400/1/332 414/1/348 394/1/472 393/1/333
f 519/1/599 526/1/600 461/1/576 518/1/575
f 301/1/543 307/1/554 318/1/521 317/1/121
f 370/1/601 369/1/602 376/1/603
f 350/1/562 372/1/565 351/1/604 345/1/605
f 351/1/604 372/1/565 362/1/505 358/1/504
f 371/1/598 395/1/597 373/1/527 367/1/529
f 329/1/530 451/1/571 337/1/566 330/1/531
f 420/1/347 423/1/606 415/1/473 414/1/348
f 136/1/607 153/1/197 130/1/608 129/1/279
f 424/1/593 416/1/596 415/1/473 423/1/606
f 376/1/603 369/1/602 382/1/609
f 376/1/603 382/1/609 383/1/610
f 461/1/576 526/1/600 452/1/611 454/1/612
f 376/1/603 383/1/610 384/1/613
f 480/1/614 492/1/577 447/1/615 481/1/594
f 445/1/436 462/1/399 444/1/413 438/1/437
f 364/1/503 363/1/502 371/1/598 367/1/529
f 447/1/615 454/1/612 434/1/418 441/1/616
f 383/1/610 388/1/506 384/1/613
f 383/1/610 387/1/585 388/1/506
f 481/1/594 447/1/615 441/1/616 417/1/595
f 322/1/476 464/1/477 329/1/530 321/1/516
f 358/1/504 364/1/503 348/1/60 354/1/192
f 348/1/60 364/1/503 367/1/529 346/1/61
f 130/1/608 153/1/197 147/1/196 140/1/533
f 410/1/422 441/1/616 434/1/418 433/1/421
f 386/1/334 393/1/333 371/1/598 363/1/502
f 409/1/617 416/1/596 417/1/595 411/1/618
f 415/1/473 416/1/596 409/1/617 408/1/474
f 254/1/558 253/1/559 298/1/293 291/1/292
f 188/1/237 256/1/236 251/1/619 189/1/589
f 401/1/578 402/1/581 373/1/527 395/1/597
f 409/1/617 407/1/579 401/1/578 408/1/474
f 409/1/617 411/1/618 403/1/298 407/1/579
f 403/1/298 411/1/618 410/1/422 404/1/299
f 231/1/396 232/1/398 224/1/620 225/1/439
f 391/1/587 396/1/551 399/1/580 398/1/301
f 337/1/566 350/1/562 345/1/605 279/1/567
f 480/1/614 481/1/594 424/1/593 474/1/459
f 406/1/226 405/1/229 397/1/300 404/1/299
f 776/1/621 779/1/622 777/1/623 774/1/624
f 406/1/226 433/1/421 425/1/420 418/1/227
f 373/1/527 402/1/581 381/1/550 374/1/528
f 259/1/557 267/1/561 251/1/619 256/1/236
f 559/1/249 514/1/248 507/1/318 505/1/308
f 391/1/587 398/1/301 397/1/300 390/1/507
f 425/1/420 426/1/419 419/1/625 418/1/227
f 378/1/564 379/1/536 362/1/505 372/1/565
f 346/1/61 374/1/528 347/1/626 340/1/62
f 104/1/627 105/1/628 58/1/541 49/1/629
f 336/1/426 344/1/427 320/1/501 328/1/431
f 366/1/552 396/1/551 391/1/587 389/1/588
f 770/1/630 771/1/631 768/1/632 767/1/118
f 613/1/83 618/1/104 614/1/255 610/1/475
f 347/1/626 353/1/400 333/1/125 340/1/62
f 110/1/444 184/1/408 185/1/406 178/1/468
f 421/1/346 428/1/488 427/1/344
f 606/1/372 611/1/462 528/1/373 607/1/359
f 244/1/441 309/1/633 303/1/634 249/1/101
f 347/1/626 365/1/553 341/1/401 353/1/400
f 341/1/401 365/1/553 366/1/552 361/1/635
f 30/1/268 31/1/592 20/1/636 19/1/269
f 412/1/228 413/1/637 388/1/506 405/1/229
f 125/1/638 117/1/314 134/1/133 133/1/639
f 458/1/443 495/1/417 501/1/430 463/1/478
f 151/1/247 156/1/640 155/1/336 154/1/330
f 430/1/519 437/1/438 438/1/437
f 352/1/191 351/1/604 358/1/504 354/1/192
f 352/1/191 274/1/450 345/1/605 351/1/604
f 274/1/450 352/1/191 280/1/194 252/1/451
f 252/1/451 280/1/194 257/1/518 240/1/111
f 466/1/412 490/1/309 489/1/319 457/1/442
f 240/1/111 257/1/518 233/1/453 196/1/112
f 333/1/125 353/1/400 326/1/403 299/1/126
f 778/1/641 777/1/623 770/1/630 772/1/642
f 432/1/460 474/1/459 424/1/593 423/1/606
f 647/1/335 648/1/643 640/1/341 639/1/115
f 168/1/509 191/1/352 167/1/390 160/1/510
f 245/1/110 250/1/448 252/1/451 240/1/111
f 279/1/567 345/1/605 274/1/450 273/1/449
f 434/1/418 452/1/611 453/1/644
f 434/1/418 454/1/612 452/1/611
f 189/1/589 251/1/619 250/1/448 245/1/110
f 329/1/530 464/1/477 459/1/487 451/1/571
f 77/1/177 76/1/166 68/1/165 67/1/146
f 234/1/25 268/1/24 228/1/455 203/1/452
f 597/1/429 563/1/369 570/1/368 593/1/446
f 453/1/644 452/1/611 460/1/645
f 385/1/584 387/1/585 375/1/646 377/1/647
f 621/1/180 645/1/12 630/1/274 622/1/181
f 326/1/403 327/1/648 306/1/538 299/1/126
f 436/1/345 458/1/443 463/1/478
f 267/1/561 285/1/560 279/1/567 273/1/449
f 394/1/472 408/1/474 401/1/578 395/1/597
f 374/1/528 381/1/550 365/1/553 347/1/626
f 444/1/413 466/1/412 450/1/470
f 382/1/609 369/1/602 368/1/649 375/1/646
f 334/1/402 335/1/486 327/1/648 326/1/403
f 381/1/550 402/1/581 399/1/580 396/1/551
f 157/1/511 160/1/510 159/1/650 152/1/586
f 417/1/595 441/1/616 410/1/422 411/1/618
f 633/1/102 641/1/151 634/1/154 624/1/103
f 341/1/401 361/1/635 342/1/484 334/1/402
f 48/1/535 43/1/489 163/1/481 162/1/651
f 181/1/304 210/1/75 188/1/237 182/1/652
f 158/1/590 190/1/109 153/1/197 136/1/607
f 528/1/373 611/1/462 508/1/461 501/1/430
f 366/1/552 389/1/588 359/1/653 361/1/635
f 342/1/484 361/1/635 359/1/653 355/1/654
f 338/1/296 564/1/295 557/1/370 486/1/404
f 356/1/655 357/1/656 349/1/657 355/1/654
f 181/1/304 182/1/652 137/1/658 175/1/305
f 137/1/658 182/1/652 158/1/590 136/1/607
f 508/1/461 516/1/260 509/1/263 463/1/478
f 197/1/391 214/1/108 209/1/76 204/1/303
f 197/1/391 204/1/303 166/1/302 167/1/390
f 614/1/255 619/1/212 543/1/215 542/1/225
f 203/1/452 228/1/455 208/1/239 146/1/238
f 147/1/196 203/1/452 146/1/238 140/1/533
f 267/1/561 273/1/449 250/1/448 251/1/619
f 188/1/237 189/1/589 158/1/590 182/1/652
f 74/1/34 75/1/19 66/1/18 73/1/35
f 359/1/653 377/1/647 356/1/655 355/1/654
f 356/1/655 377/1/647 375/1/646 368/1/649
f 554/1/355 576/1/357 547/1/97 546/1/342
f 138/1/659 175/1/305 137/1/658 131/1/278
f 166/1/302 175/1/305 138/1/659 159/1/650
f 129/1/279 131/1/278 137/1/658 136/1/607
f 235/1/454 306/1/538 220/1/31 219/1/30
f 420/1/347 440/1/343 432/1/460 423/1/606
f 130/1/608 124/1/660 123/1/276 129/1/279
f 122/1/277 145/1/465 138/1/659 131/1/278
f 100/1/188 230/1/190 223/1/388 93/1/199
f 130/1/608 140/1/533 132/1/534 124/1/660
f 530/1/378 531/1/526 525/1/542 524/1/379
f 463/1/478 501/1/430 508/1/461
f 227/1/539 306/1/538 315/1/661 314/1/662
f 356/1/655 368/1/649 360/1/663 357/1/656
f 139/1/241 141/1/432 109/1/664 132/1/534
f 124/1/660 132/1/534 109/1/664 105/1/628
f 139/1/241 148/1/240 116/1/433 141/1/432
f 491/1/573 496/1/574 492/1/577 480/1/614
f 171/1/244 239/1/665 244/1/441 179/1/440
f 746/1/666 748/1/667 747/1/668 682/1/669
f 314/1/662 315/1/661 308/1/670 309/1/633
f 21/1/218 32/1/47 22/1/51 15/1/42
f 369/1/602 370/1/601 360/1/663 368/1/649
f 520/1/671 460/1/645 519/1/599
f 104/1/627 123/1/276 124/1/660 105/1/628
f 159/1/650 138/1/659 145/1/465 152/1/586
f 63/1/136 72/1/204 24/1/93 34/1/92
f 375/1/646 387/1/585 383/1/610 382/1/609
f 460/1/645 526/1/600 519/1/599
f 460/1/645 452/1/611 526/1/600
f 87/1/189 88/1/198 80/1/203 71/1/162
f 227/1/539 226/1/672 174/1/32 220/1/31
f 627/1/170 635/1/169 626/1/213 619/1/212
f 296/1/523 303/1/634 302/1/673 295/1/524
f 609/1/54 613/1/83 610/1/475 605/1/55
f 36/1/68 115/1/466 104/1/627 49/1/629
f 205/1/416 217/1/414 211/1/353 183/1/674
f 123/1/276 104/1/627 115/1/466 122/1/277
f 342/1/484 355/1/654 349/1/657 343/1/485
f 470/1/392 475/1/423 477/1/383 476/1/385
f 497/1/323 499/1/280 483/1/285 493/1/382
f 238/1/568 265/1/364 260/1/556 243/1/107
f 534/1/70 542/1/225 521/1/224 527/1/96
f 282/1/675 288/1/522 289/1/525 284/1/676
f 237/1/207 242/1/206 241/1/284 223/1/388
f 588/1/72 540/1/71 548/1/86 264/1/85
f 301/1/543 317/1/121 312/1/124 305/1/360
f 160/1/510 167/1/390 166/1/302 159/1/650
f 239/1/665 314/1/662 309/1/633 244/1/441
f 651/1/271 630/1/274 645/1/12 650/1/11
f 227/1/539 314/1/662 239/1/665 226/1/672
f 48/1/535 162/1/651 161/1/508 157/1/511
f 152/1/586 145/1/465 47/1/464 46/1/482
f 169/1/677 176/1/678 161/1/508 162/1/651
f 198/1/351 221/1/569 214/1/108 197/1/391
f 109/1/664 141/1/432 102/1/434 98/1/540
f 473/1/458 491/1/573 480/1/614 474/1/459
f 553/1/514 552/1/457 560/1/679
f 91/1/39 258/1/38 246/1/89 236/1/205
f 161/1/508 176/1/678 183/1/674 168/1/509
f 183/1/674 211/1/353 191/1/352 168/1/509
f 216/1/350 224/1/620 221/1/569 198/1/351
f 560/1/679 565/1/233 566/1/235
f 560/1/679 567/1/456 565/1/233
f 560/1/679 552/1/457 567/1/456
f 442/1/493 443/1/435 437/1/438 439/1/582
f 200/1/410 205/1/416 183/1/674 176/1/678
f 232/1/398 270/1/365 265/1/364 238/1/568
f 232/1/398 238/1/568 221/1/569 224/1/620
f 271/1/496 272/1/499 206/1/680 266/1/681
f 272/1/499 278/1/500 207/1/682 206/1/680
f 266/1/681 282/1/675 276/1/497 271/1/496
f 359/1/653 389/1/588 385/1/584 377/1/647
f 679/1/683 685/1/684 686/1/547 680/1/685
f 510/1/686 518/1/575 496/1/574 502/1/583
f 201/1/687 261/1/688 266/1/681 206/1/680
f 286/1/193 292/1/59 262/1/22 257/1/518
f 261/1/688 288/1/522 282/1/675 266/1/681
f 163/1/481 170/1/480 169/1/677 162/1/651
f 380/1/563 442/1/493 439/1/582 378/1/564
f 72/1/204 79/1/219 23/1/44 24/1/93
f 177/1/409 200/1/410 176/1/678 169/1/677
f 170/1/480 193/1/405 177/1/409 169/1/677
f 584/1/491 199/1/407 577/1/445
f 584/1/491 319/1/555 199/1/407
f 28/1/69 29/1/267 18/1/270 26/1/67
f 255/1/98 296/1/523 288/1/522 261/1/688
f 583/1/184 587/1/375 199/1/407
f 199/1/407 587/1/375 569/1/374
f 90/1/37 83/1/176 588/1/72
f 38/1/483 37/1/195 27/1/52 33/1/50
f 194/1/99 255/1/98 261/1/688 201/1/687
f 194/1/99 195/1/689 187/1/690 186/1/100
f 185/1/406 193/1/405 170/1/480 178/1/468
f 17/1/28 27/1/52 26/1/67 18/1/270
f 105/1/628 109/1/664 98/1/540 58/1/541
f 577/1/445 199/1/407 593/1/446
f 680/1/685 681/1/328 673/1/691 679/1/683
f 186/1/100 187/1/690 180/1/692 179/1/440
f 248/1/386 596/1/185 199/1/407
f 596/1/185 583/1/184 199/1/407
f 68/1/165 69/1/167 62/1/693 61/1/694
f 218/1/415 225/1/439 224/1/620 216/1/350
f 593/1/446 199/1/407 597/1/429
f 179/1/440 180/1/692 172/1/245 171/1/244
f 18/1/270 19/1/269 12/1/26 17/1/28
f 199/1/407 601/1/425 597/1/429
f 199/1/407 569/1/374 601/1/425
f 484/1/317 500/1/306 490/1/309 466/1/412
f 249/1/101 303/1/634 296/1/523 255/1/98
f 83/1/176 600/1/53 592/1/56 588/1/72
f 592/1/56 605/1/55 534/1/70
f 16/1/43 25/1/90 24/1/93 23/1/44
f 239/1/665 171/1/244 173/1/243 226/1/672
f 603/1/358 606/1/372 607/1/359
f 522/1/463 611/1/462 606/1/372 602/1/251
f 233/1/453 257/1/518 262/1/22 234/1/25
f 39/1/77 40/1/340 29/1/267 28/1/69
f 49/1/629 50/1/695 39/1/77 36/1/68
f 605/1/55 610/1/475 534/1/70
f 226/1/672 173/1/243 164/1/131 174/1/32
f 91/1/39 236/1/205 101/1/172 97/1/40
f 208/1/239 219/1/30 149/1/29 148/1/240
f 58/1/541 59/1/145 50/1/695 49/1/629
f 50/1/695 51/1/337 40/1/340 39/1/77
f 116/1/433 142/1/134 117/1/314 112/1/242
f 535/1/320 615/1/182 608/1/287
f 33/1/50 44/1/49 43/1/489 38/1/483
f 80/1/203 86/1/217 79/1/219 72/1/204
f 486/1/404 482/1/384 339/1/424 338/1/296
f 59/1/145 60/1/144 51/1/337 50/1/695
f 117/1/314 125/1/638 111/1/63 112/1/242
f 303/1/634 309/1/633 308/1/670 302/1/673
f 52/1/338 53/1/696 42/1/591 41/1/339
f 60/1/144 61/1/694 52/1/338 51/1/337
f 582/1/186 596/1/185 248/1/386 591/1/283
f 619/1/212 625/1/254 627/1/170
f 77/1/177 67/1/146 59/1/145 85/1/179
f 620/1/183 629/1/231 621/1/180
f 510/1/686 520/1/671 519/1/599 518/1/575
f 111/1/63 125/1/638 118/1/81 113/1/64
f 125/1/638 133/1/639 126/1/246 118/1/81
f 67/1/146 68/1/165 61/1/694 60/1/144
f 61/1/694 62/1/693 53/1/696 52/1/338
f 669/1/697 674/1/698 670/1/699 667/1/700
f 626/1/213 635/1/169 636/1/222
f 246/1/89 263/1/88 247/1/282 242/1/206
f 412/1/228 418/1/227 419/1/625 413/1/637
f 628/1/220 638/1/13 629/1/231
f 206/1/680 207/1/682 202/1/701 201/1/687
f 156/1/640 151/1/247 126/1/246 133/1/639
f 319/1/555 318/1/521 307/1/554 313/1/544
f 635/1/169 642/1/168 636/1/222
f 284/1/676 283/1/513 276/1/497 282/1/675
f 637/1/153 644/1/152 642/1/168
f 113/1/64 114/1/702 108/1/703 107/1/65
f 155/1/336 156/1/640 1/1/1 3/1/3
f 729/1/704 733/1/705 730/1/706 724/1/707
f 671/1/708 672/1/137 669/1/697 668/1/709
f 114/1/702 120/1/710 78/1/711 108/1/703
f 119/1/80 114/1/702 113/1/64 118/1/81
f 439/1/582 429/1/537 379/1/536 378/1/564
f 630/1/274 652/1/273 631/1/113
f 745/1/712 746/1/666 682/1/669 674/1/698
f 143/1/173 151/1/247 154/1/330 150/1/322
f 647/1/335 654/1/143 655/1/713
f 647/1/335 655/1/713 648/1/643
f 114/1/702 119/1/80 121/1/275 120/1/710
f 651/1/271 657/1/494 658/1/272
f 133/1/639 134/1/133 1/1/1 156/1/640
f 652/1/273 658/1/272 659/1/315
f 654/1/143 661/1/142 655/1/713
f 653/1/141 660/1/316 661/1/142
f 655/1/713 661/1/142 660/1/316
f 662/1/139 663/1/714 664/1/140
f 663/1/714 665/1/715 664/1/140
f 664/1/140 665/1/715 666/1/716
f 667/1/700 668/1/709 669/1/697
f 701/1/717 702/1/329 681/1/328 695/1/718
f 689/1/719 692/1/720 681/1/328 680/1/685
f 687/1/721 688/1/722 680/1/685 686/1/547
f 102/1/434 103/1/232 85/1/179 98/1/540
f 669/1/697 2/1/2 675/1/723
f 669/1/697 676/1/724 2/1/2
f 670/1/699 674/1/698 677/1/725
f 671/1/708 678/1/138 672/1/137
f 521/1/224 513/1/223 511/1/492 503/1/266
f 672/1/137 679/1/683 673/1/691 669/1/697
f 19/1/269 20/1/636 13/1/164 12/1/26
f 675/1/723 2/1/2 684/1/726
f 664/1/140 685/1/684 679/1/683 672/1/137
f 201/1/687 202/1/701 195/1/689 194/1/99
f 84/1/178 107/1/65 108/1/703 76/1/166
f 680/1/685 688/1/722 689/1/719
f 2/1/2 1/1/1 690/1/727
f 684/1/726 2/1/2 690/1/727
f 685/1/684 664/1/140 691/1/728
f 685/1/684 691/1/728 686/1/547
f 691/1/728 693/1/729 686/1/547
f 691/1/728 664/1/140 694/1/730
f 692/1/720 695/1/718 681/1/328
f 10/1/731 676/1/724 696/1/732
f 693/1/729 697/1/548 686/1/547
f 664/1/140 698/1/733 694/1/730
f 664/1/140 666/1/716 699/1/734
f 45/1/46 56/1/45 34/1/92 35/1/91
f 750/1/150 752/1/735 749/1/736 747/1/668
f 681/1/328 703/1/327 704/1/256
f 640/1/341 648/1/643 704/1/256
f 648/1/643 655/1/713 704/1/256
f 681/1/328 704/1/256 705/1/259
f 696/1/732 676/1/724 706/1/737
f 664/1/140 699/1/734 700/1/738 698/1/733
f 699/1/734 708/1/739 700/1/738
f 699/1/734 666/1/716 708/1/739
f 701/1/717 709/1/377 702/1/329
f 683/1/740 677/1/725 674/1/698 682/1/669
f 703/1/327 712/1/741 704/1/256
f 706/1/737 676/1/724 713/1/742
f 707/1/545 715/1/743 714/1/546
f 716/1/744 640/1/341 704/1/256
f 712/1/741 716/1/744 704/1/256
f 713/1/742 676/1/724 717/1/745
f 714/1/546 715/1/743 718/1/746
f 714/1/546 718/1/746 686/1/547
f 704/1/256 719/1/747 720/1/748
f 2/1/2 676/1/724 10/1/731 7/1/7
f 717/1/745 676/1/724 722/1/749
f 721/1/258 723/1/750 705/1/259
f 676/1/724 724/1/707 725/1/751
f 676/1/724 725/1/751 726/1/752
f 676/1/724 726/1/752 722/1/749
f 723/1/750 727/1/753 705/1/259
f 724/1/707 728/1/754 725/1/751
f 741/1/755 744/1/756 742/1/757 738/1/758
f 724/1/707 730/1/706 731/1/759
f 724/1/707 731/1/759 728/1/754
f 727/1/753 732/1/760 705/1/259
f 729/1/704 734/1/761 733/1/705
f 732/1/760 735/1/762 705/1/259
f 735/1/762 736/1/763 705/1/259
f 705/1/259 737/1/764 738/1/758
f 705/1/259 736/1/763 739/1/765
f 705/1/259 739/1/765 737/1/764
f 737/1/764 740/1/766 738/1/758
f 757/1/767 758/1/149 755/1/768 754/1/769
f 738/1/758 740/1/766 743/1/770
f 738/1/758 743/1/770 741/1/755
f 742/1/757 744/1/756 734/1/771
f 102/1/434 112/1/242 106/1/66 103/1/232
f 702/1/329 711/1/119 766/1/772 765/1/326
f 767/1/118 768/1/632 766/1/772 711/1/119
f 634/1/154 637/1/153 627/1/170 625/1/254
f 769/1/117 772/1/642 770/1/630 767/1/118
f 76/1/166 108/1/703 78/1/711 69/1/167
f 753/1/773 754/1/769 755/1/768
f 753/1/773 755/1/768 756/1/774
f 774/1/624 777/1/623 778/1/641 775/1/775
f 568/1/371 587/1/375 583/1/184 575/1/187
f 777/1/623 779/1/622 771/1/631 770/1/630
f 83/1/176 90/1/37 65/1/20 75/1/19
f 704/1/256 760/1/776 719/1/747
f 704/1/256 720/1/748 761/1/257
f 704/1/256 762/1/777 760/1/776
f 687/1/721 686/1/547 763/1/778
f 686/1/547 764/1/779 763/1/778
f 686/1/547 718/1/746 764/1/779
f 745/1/712 674/1/698 669/1/697 675/1/723
f 228/1/455 235/1/454 219/1/30 208/1/239
f 196/1/112 233/1/453 203/1/452 147/1/196
f 749/1/736 683/1/740 682/1/669 747/1/668
f 748/1/667 751/1/147 750/1/150 747/1/668
f 536/1/130 530/1/378 586/1/16 580/1/15
f 773/1/780 774/1/624 775/1/775
f 773/1/780 776/1/621 774/1/624
f 758/1/149 759/1/148 756/1/774 755/1/768
f 447/1/615 492/1/577 461/1/576 454/1/612
f 750/1/150 758/1/149 757/1/767 752/1/735
f 624/1/103 634/1/154 625/1/254 618/1/104
f 399/1/580 407/1/579 403/1/298 398/1/301
