# Blender 4.3.2
# www.blender.org
o hair.033
v 7.568074 0.092751 -0.017184
v 7.568534 0.093110 -0.016503
v 7.570385 0.090938 -0.019143
v 7.565077 0.094693 -0.014417
v 7.567387 0.092512 -0.017640
v 7.568993 0.093468 -0.015821
v 7.572013 0.092206 -0.016734
v 7.571318 0.091529 -0.018020
v 7.569145 0.093891 -0.015018
v 7.574183 0.089564 -0.019396
v 7.575198 0.090562 -0.017527
v 7.575819 0.091645 -0.015498
v 7.572439 0.092940 -0.015338
v 7.569296 0.094314 -0.014214
v 7.572550 0.093703 -0.013888
v 7.577049 0.087257 -0.020579
v 7.575248 0.086113 -0.022690
v 7.572822 0.088698 -0.021019
v 7.578372 0.088574 -0.018134
v 7.569075 0.094737 -0.013410
v 7.575982 0.092768 -0.013387
v 7.575617 0.093887 -0.011276
v 7.572300 0.094466 -0.012438
v 7.579767 0.084648 -0.021460
v 7.571160 0.088008 -0.022312
v 7.569247 0.090459 -0.020055
v 7.568853 0.095160 -0.012606
v 7.571764 0.095201 -0.011042
v 7.579292 0.091453 -0.012684
v 7.567950 0.090106 -0.020725
v 7.573062 0.085218 -0.024356
v 7.570577 0.084587 -0.025537
v 7.569268 0.087511 -0.023242
v 7.566699 0.092272 -0.018095
v 7.568388 0.095520 -0.011921
v 7.579126 0.089987 -0.015463
v 7.574841 0.082116 -0.026026
v 7.567213 0.087226 -0.023776
v 7.577527 0.083217 -0.024007
v 7.565888 0.092188 -0.018255
v 7.582108 0.087986 -0.015204
v 7.581361 0.086281 -0.018490
v 7.582283 0.081774 -0.022003
v 7.579638 0.080086 -0.024949
v 7.584114 0.083685 -0.018556
v 7.566541 0.089894 -0.021127
v 7.565077 0.089824 -0.021261
v 7.565077 0.092104 -0.018415
v 7.584542 0.078670 -0.022174
v 7.581561 0.076795 -0.025493
v 7.577984 0.075309 -0.028156
v 7.576485 0.078785 -0.027300
v 7.564266 0.092188 -0.018255
v 7.565077 0.087136 -0.023945
v 7.567880 0.084235 -0.026196
v 7.565077 0.084129 -0.026395
v 7.583243 0.073351 -0.025651
v 7.572930 0.077880 -0.028980
v 7.571802 0.081350 -0.027460
v 7.563455 0.092272 -0.018095
v 7.562204 0.090106 -0.020725
v 7.563612 0.089894 -0.021127
v 7.562941 0.087226 -0.023776
v 7.568504 0.080926 -0.028255
v 7.562767 0.092512 -0.017640
v 7.560907 0.090459 -0.020055
v 7.558993 0.088008 -0.022312
v 7.560886 0.087511 -0.023242
v 7.562274 0.084235 -0.026196
v 7.559577 0.084587 -0.025537
v 7.565077 0.080799 -0.028493
v 7.569078 0.077379 -0.029911
v 7.565077 0.077230 -0.030190
v 7.559768 0.090938 -0.019143
v 7.562079 0.092751 -0.017184
v 7.561649 0.080926 -0.028255
v 7.573949 0.074255 -0.030065
v 7.569593 0.073679 -0.031123
v 7.565077 0.073510 -0.031439
v 7.560560 0.073679 -0.031123
v 7.561076 0.077379 -0.029911
v 7.561620 0.093110 -0.016503
v 7.558351 0.081350 -0.027460
v 7.557223 0.077880 -0.028980
v 7.579302 0.071707 -0.028597
v 7.574842 0.070521 -0.030712
v 7.565071 0.069692 -0.032229
v 7.570044 0.069877 -0.031881
v 7.555313 0.082116 -0.026026
v 7.557092 0.085218 -0.024356
v 7.580400 0.068000 -0.028628
v 7.575592 0.066723 -0.030915
v 7.570424 0.066031 -0.032177
v 7.565053 0.065830 -0.032552
v 7.559633 0.066031 -0.032177
v 7.560085 0.069878 -0.031881
v 7.554905 0.086113 -0.022690
v 7.557332 0.088698 -0.021019
v 7.576202 0.062760 -0.030619
v 7.570736 0.062031 -0.031958
v 7.565038 0.061818 -0.032356
v 7.555275 0.070521 -0.030712
v 7.556204 0.074255 -0.030065
v 7.555970 0.089564 -0.019396
v 7.558836 0.091529 -0.018020
v 7.570981 0.057773 -0.031172
v 7.559262 0.062031 -0.031958
v 7.559034 0.057772 -0.031171
v 7.565042 0.057549 -0.031588
v 7.552169 0.075309 -0.028156
v 7.553668 0.078785 -0.027300
v 7.558140 0.092206 -0.016734
v 7.561160 0.093468 -0.015821
v 7.553717 0.062761 -0.030618
v 7.554416 0.066724 -0.030914
v 7.565056 0.053284 -0.030186
v 7.550516 0.080086 -0.024949
v 7.552627 0.083217 -0.024007
v 7.561009 0.093891 -0.015018
v 7.549655 0.068001 -0.028627
v 7.550828 0.071708 -0.028597
v 7.576678 0.058530 -0.029771
v 7.576971 0.054299 -0.028334
v 7.571136 0.053518 -0.029763
v 7.550386 0.084648 -0.021460
v 7.553105 0.087257 -0.020579
v 7.546904 0.073352 -0.025651
v 7.548592 0.076796 -0.025493
v 7.581285 0.064097 -0.028191
v 7.581959 0.059907 -0.027232
v 7.571174 0.049527 -0.027677
v 7.565067 0.049284 -0.028090
v 7.551781 0.088574 -0.018134
v 7.554956 0.090562 -0.017527
v 7.545611 0.078671 -0.022173
v 7.547870 0.081774 -0.022003
v 7.585721 0.065902 -0.024793
v 7.565074 0.045231 -0.024952
v 7.558939 0.049525 -0.027676
v 7.558933 0.053516 -0.029762
v 7.554334 0.091645 -0.015498
v 7.557714 0.092940 -0.015338
v 7.546040 0.083685 -0.018556
v 7.548792 0.086281 -0.018490
v 7.553054 0.054296 -0.028332
v 7.553268 0.058529 -0.029769
v 7.557603 0.093703 -0.013888
v 7.560857 0.094314 -0.014214
v 7.548045 0.087986 -0.015204
v 7.551028 0.089987 -0.015463
v 7.548055 0.059906 -0.027229
v 7.548712 0.064098 -0.028190
v 7.561079 0.094737 -0.013410
v 7.547971 0.089755 -0.011777
v 7.550861 0.091453 -0.012684
v 7.545331 0.085655 -0.014706
v 7.545366 0.087704 -0.010683
v 7.544392 0.065903 -0.024792
v 7.545498 0.069759 -0.025436
v 7.548398 0.091580 -0.008385
v 7.543575 0.080790 -0.018295
v 7.542834 0.083010 -0.013955
v 7.554172 0.092768 -0.013387
v 7.542092 0.071896 -0.021462
v 7.543666 0.075368 -0.021988
v 7.541463 0.077653 -0.017723
v 7.542909 0.085330 -0.009416
v 7.540642 0.080104 -0.012970
v 7.540704 0.082658 -0.008008
v 7.554536 0.093887 -0.011276
v 7.557854 0.094466 -0.012438
v 7.539766 0.074333 -0.016856
v 7.538848 0.076994 -0.011768
v 7.543324 0.087752 -0.004942
v 7.545762 0.089849 -0.006719
v 7.551300 0.092930 -0.009913
v 7.558389 0.095201 -0.011042
v 7.561300 0.095160 -0.012606
v 7.538497 0.070509 -0.015612
v 7.546687 0.091806 -0.003029
v 7.549371 0.093284 -0.005186
v 7.552259 0.094335 -0.007264
v 7.561766 0.095520 -0.011921
v 7.540903 0.068036 -0.020542
v 7.550941 0.094691 -0.002339
v 7.548313 0.093290 0.000174
v 7.545807 0.091388 0.002715
v 7.544238 0.089897 -0.000807
v 7.555320 0.094966 -0.009247
v 7.540112 0.063571 -0.019176
v 7.543601 0.061666 -0.023662
v 7.550548 0.094573 0.003091
v 7.542037 0.087497 0.001393
v 7.541148 0.085252 -0.003120
v 7.556417 0.095972 -0.007384
v 7.559135 0.095879 -0.009753
v 7.543224 0.057454 -0.022230
v 7.547707 0.055707 -0.025740
v 7.539295 0.082315 -0.001320
v 7.538853 0.079710 -0.006492
v 7.553655 0.095587 -0.004850
v 7.560045 0.096473 -0.008623
v 7.562232 0.095881 -0.011236
v 7.547691 0.051780 -0.023715
v 7.553058 0.050330 -0.026271
v 7.537276 0.076189 -0.004583
v 7.537426 0.073333 -0.010173
v 7.555392 0.096646 -0.002725
v 7.562852 0.096121 -0.010779
v 7.553271 0.046347 -0.023271
v 7.559042 0.045488 -0.024577
v 7.537669 0.065861 -0.013910
v 7.536353 0.068775 -0.008004
v 7.557753 0.096834 -0.005750
v 7.559209 0.040838 -0.020514
v 7.571102 0.045489 -0.024578
v 7.570945 0.040838 -0.020514
v 7.565077 0.040547 -0.020808
v 7.539937 0.059246 -0.018050
v 7.537648 0.059804 -0.012207
v 7.559259 0.097481 -0.004408
v 7.561070 0.096956 -0.007704
v 7.576868 0.046349 -0.023272
v 7.577034 0.050332 -0.026273
v 7.565077 0.035501 -0.015346
v 7.540599 0.055807 -0.017852
v 7.543363 0.053674 -0.020683
v 7.562248 0.097315 -0.007022
v 7.563472 0.096362 -0.010322
v 7.582420 0.051782 -0.023718
v 7.582359 0.055709 -0.025743
v 7.570535 0.035833 -0.015144
v 7.559618 0.035833 -0.015144
v 7.543602 0.050378 -0.017898
v 7.548027 0.047894 -0.020850
v 7.564275 0.096446 -0.010161
v 7.586905 0.057456 -0.022234
v 7.586516 0.061666 -0.023665
v 7.576512 0.041810 -0.019399
v 7.576010 0.036943 -0.014137
v 7.554143 0.036943 -0.014137
v 7.548677 0.043560 -0.017226
v 7.553642 0.041809 -0.019399
v 7.590040 0.063571 -0.019178
v 7.582116 0.047895 -0.020852
v 7.581477 0.043560 -0.017226
v 7.580755 0.038914 -0.012239
v 7.549398 0.038914 -0.012239
v 7.545883 0.041583 -0.009921
v 7.544443 0.046240 -0.014505
v 7.586778 0.053675 -0.020686
v 7.586549 0.050379 -0.017900
v 7.585711 0.046240 -0.014505
v 7.584271 0.041583 -0.009921
v 7.540942 0.049940 -0.011786
v 7.542498 0.044978 -0.007243
v 7.540287 0.054047 -0.014997
v 7.589552 0.055808 -0.017854
v 7.590214 0.059246 -0.018052
v 7.589867 0.054048 -0.014998
v 7.589211 0.049940 -0.011786
v 7.587655 0.044978 -0.007243
v 7.539454 0.048857 -0.003941
v 7.538187 0.054267 -0.007746
v 7.592505 0.059804 -0.012208
v 7.589249 0.068036 -0.020543
v 7.591656 0.070509 -0.015613
v 7.592484 0.065860 -0.013911
v 7.591967 0.054267 -0.007746
v 7.590700 0.048857 -0.003941
v 7.536344 0.058029 -0.002247
v 7.537530 0.052411 0.001119
v 7.535973 0.063601 -0.005329
v 7.588060 0.071895 -0.021463
v 7.584630 0.069758 -0.025437
v 7.593801 0.068775 -0.008005
v 7.593810 0.058028 -0.002247
v 7.592624 0.052411 0.001119
v 7.536659 0.055277 0.006913
v 7.535134 0.066783 0.000947
v 7.535894 0.071796 -0.001998
v 7.594182 0.063600 -0.005329
v 7.595030 0.066784 0.000943
v 7.594730 0.061396 0.003934
v 7.593421 0.055415 0.006997
v 7.536027 0.074402 0.003565
v 7.537632 0.078759 0.000796
v 7.586487 0.075367 -0.021988
v 7.595187 0.064238 0.009647
v 7.593447 0.058666 0.014658
v 7.592665 0.057181 0.012842
v 7.594493 0.060143 0.012402
v 7.538314 0.080960 0.005797
v 7.540102 0.084552 0.003482
v 7.588690 0.077653 -0.017723
v 7.590387 0.074333 -0.016857
v 7.586578 0.080790 -0.018295
v 7.590531 0.059077 0.018528
v 7.594307 0.062654 0.017342
v 7.541199 0.086162 0.007645
v 7.543433 0.089005 0.005225
v 7.591305 0.076994 -0.011770
v 7.592727 0.073333 -0.010174
v 7.587319 0.083010 -0.013955
v 7.584822 0.085656 -0.014706
v 7.545396 0.090328 0.008952
v 7.548019 0.092704 0.006079
v 7.592941 0.076218 -0.004586
v 7.594302 0.071814 -0.002002
v 7.584787 0.087704 -0.010683
v 7.582182 0.089755 -0.011777
v 7.589511 0.080104 -0.012971
v 7.550858 0.094323 0.009742
v 7.594297 0.074478 0.003555
v 7.595224 0.069500 0.006622
v 7.581756 0.091580 -0.008386
v 7.578854 0.092930 -0.009913
v 7.589459 0.082663 -0.008011
v 7.591342 0.079730 -0.006495
v 7.587244 0.085331 -0.009417
v 7.595006 0.071783 0.011589
v 7.595119 0.066756 0.014760
v 7.577894 0.094335 -0.007264
v 7.574833 0.094966 -0.009247
v 7.591026 0.082394 -0.001323
v 7.592775 0.078875 0.000792
v 7.586828 0.087753 -0.004945
v 7.594752 0.069089 0.019111
v 7.573737 0.095972 -0.007384
v 7.571018 0.095879 -0.009753
v 7.592282 0.081088 0.005630
v 7.593948 0.076678 0.008454
v 7.589046 0.085273 -0.003124
v 7.570109 0.096473 -0.008623
v 7.576499 0.095587 -0.004850
v 7.572401 0.096834 -0.005750
v 7.574761 0.096646 -0.002724
v 7.567922 0.095881 -0.011236
v 7.593416 0.078326 0.012483
v 7.594621 0.073670 0.015729
v 7.588208 0.087550 0.001369
v 7.579212 0.094691 -0.002340
v 7.580782 0.093284 -0.005188
v 7.567302 0.096121 -0.010779
v 7.593776 0.075624 0.019088
v 7.590346 0.084660 0.003391
v 7.583469 0.091811 -0.003032
v 7.584392 0.089850 -0.006721
v 7.566681 0.096362 -0.010322
v 7.567906 0.097315 -0.007022
v 7.569084 0.096956 -0.007704
v 7.570895 0.097481 -0.004408
v 7.589294 0.086202 0.007297
v 7.591514 0.082643 0.009598
v 7.565879 0.096446 -0.010161
v 7.565077 0.096531 -0.010001
v 7.590425 0.083865 0.013249
v 7.592469 0.079841 0.015963
v 7.585930 0.089917 -0.000809
v 7.566539 0.097536 -0.006602
v 7.565077 0.097612 -0.006458
v 7.563615 0.097536 -0.006602
v 7.590875 0.081641 0.019212
v 7.584408 0.091462 0.002722
v 7.581856 0.093308 0.000174
v 7.567191 0.098243 -0.002796
v 7.569173 0.097942 -0.003407
v 7.562963 0.098243 -0.002796
v 7.560980 0.097942 -0.003407
v 7.579625 0.094596 0.003094
v 7.577155 0.095890 0.000189
v 7.586883 0.089108 0.005148
v 7.570493 0.098081 0.000408
v 7.572774 0.097475 -0.000939
v 7.559661 0.098082 0.000407
v 7.557379 0.097475 -0.000939
v 7.574719 0.096968 0.002434
v 7.585061 0.090418 0.009347
v 7.588155 0.087170 0.010950
v 7.582213 0.092794 0.006090
v 7.555435 0.096968 0.002433
v 7.552998 0.095890 0.000189
v 7.587216 0.087709 0.014911
v 7.588966 0.085081 0.017135
v 7.579295 0.094319 0.009736
v 7.576851 0.095928 0.005923
v 7.586967 0.086174 0.020925
v 7.585714 0.088363 0.018548
v 7.585374 0.089739 0.013691
v 7.584599 0.089807 0.016573
v 7.573491 0.097036 0.008303
v 7.553302 0.095929 0.005922
v 7.582889 0.089671 0.021231
v 7.581568 0.092638 0.012947
v 7.583188 0.091381 0.014628
v 7.582582 0.091155 0.017744
v 7.571872 0.097819 0.004176
v 7.556658 0.097083 0.008235
v 7.558281 0.097820 0.004174
v 7.578637 0.093510 0.017900
v 7.568584 0.098337 0.005195
v 7.567870 0.098476 0.001217
v 7.561569 0.098337 0.005193
v 7.562284 0.098476 0.001217
v 7.575528 0.095613 0.013193
v 7.565077 0.098620 0.001487
v 7.565077 0.098354 -0.002589
v 7.570788 0.096254 0.015992
v 7.569502 0.097654 0.009874
v 7.565077 0.098512 0.005524
v 7.560699 0.097761 0.009596
v 7.565091 0.097954 0.010108
v 7.559552 0.096684 0.014885
v 7.554607 0.095799 0.012934
v 7.565132 0.096871 0.015827
v 7.551893 0.093755 0.018154
v 7.558612 0.095215 0.020131
v 7.564250 0.095427 0.021272
v 7.547984 0.092019 0.013148
v 7.558364 0.093463 0.024402
v 7.568924 0.094925 0.021067
v 7.568072 0.092474 0.025282
v 7.563419 0.093293 0.025696
v 7.544561 0.088884 0.015396
v 7.542661 0.087491 0.011505
v 7.571878 0.093645 0.021685
v 7.574238 0.094174 0.019716
v 7.562019 0.090569 0.029322
v 7.540156 0.084145 0.014027
v 7.546754 0.089786 0.019305
v 7.541419 0.085419 0.016993
v 7.542908 0.085695 0.020202
v 7.539138 0.082707 0.010251
v 7.575963 0.091319 0.023725
v 7.572271 0.091614 0.024258
v 7.579414 0.090901 0.022958
v 7.549097 0.089643 0.023219
v 7.553419 0.092431 0.023032
v 7.539386 0.082129 0.018444
v 7.537283 0.078489 0.013318
v 7.566952 0.089243 0.028908
v 7.573324 0.087815 0.027538
v 7.581019 0.087518 0.026617
v 7.584255 0.087026 0.024289
v 7.554325 0.091020 0.025897
v 7.557646 0.091242 0.027770
v 7.538223 0.080244 0.016804
v 7.564282 0.085570 0.032219
v 7.559433 0.087355 0.032371
v 7.555296 0.088361 0.030307
v 7.586823 0.083317 0.026120
v 7.588903 0.083032 0.022506
v 7.551856 0.088989 0.026949
v 7.537675 0.076325 0.021179
v 7.555932 0.083626 0.034457
v 7.548455 0.085489 0.028045
v 7.551953 0.084877 0.031889
v 7.590382 0.080119 0.023593
v 7.592179 0.078109 0.021713
v 7.545347 0.085740 0.024018
v 7.539968 0.081311 0.021001
v 7.548255 0.080843 0.032392
v 7.545118 0.081480 0.028429
v 7.542117 0.081366 0.024480
v 7.589729 0.079167 0.026500
v 7.592113 0.075203 0.025208
v 7.593834 0.071738 0.022620
v 7.543213 0.078489 0.028575
v 7.540451 0.077195 0.025808
v 7.584091 0.083013 0.028903
v 7.587533 0.078012 0.029563
v 7.590248 0.073135 0.028345
v 7.592257 0.068800 0.025648
v 7.593586 0.065423 0.021869
v 7.544602 0.076954 0.031576
v 7.541394 0.073904 0.029202
v 7.580170 0.082640 0.029708
v 7.577447 0.087528 0.027297
v 7.583337 0.077291 0.030640
v 7.586153 0.072119 0.029772
v 7.590900 0.063509 0.023242
v 7.588660 0.067425 0.027255
v 7.592590 0.060535 0.018715
v 7.547581 0.075000 0.034516
v 7.551785 0.079356 0.035192
v 7.578141 0.076788 0.030722
v 7.580944 0.071630 0.030343
v 7.584052 0.066831 0.028154
v 7.587454 0.062471 0.023923
v 7.555960 0.076921 0.035652
v 7.560480 0.081461 0.034654
v 7.569488 0.083395 0.030959
v 7.575654 0.082231 0.029524
v 7.551274 0.072326 0.035131
v 7.555323 0.069290 0.034583
v 7.560459 0.074013 0.034942
v 7.565312 0.078839 0.033666
v 7.546971 0.068049 0.033005
v 7.543912 0.071015 0.032366
v 7.550300 0.065045 0.032382
v 7.540730 0.067573 0.028697
v 7.543134 0.064406 0.029316
v 7.545731 0.061563 0.028634
v 7.538712 0.071386 0.025474
v 7.539847 0.061712 0.024105
v 7.537989 0.064846 0.023463
v 7.536634 0.069091 0.020596
v 7.541958 0.059132 0.023633
v 7.536245 0.073841 0.016786
v 7.536129 0.062476 0.017673
v 7.537505 0.059758 0.018698
v 7.539082 0.057554 0.018039
v 7.535376 0.071811 0.011869
v 7.535327 0.066794 0.015132
v 7.536555 0.076623 0.008674
v 7.536500 0.058339 0.014425
v 7.535592 0.060100 0.012336
v 7.534954 0.064269 0.009648
v 7.537205 0.056630 0.012509
v 7.534970 0.069489 0.006634
v 7.535420 0.061405 0.003935
v 7.585307 0.059980 0.001455
v 7.583416 0.057517 -0.000951
v 7.590700 0.048857 -0.003941
v 7.592624 0.052411 0.001119
v 7.584145 0.067620 0.007174
v 7.587655 0.044978 -0.007243
v 7.581296 0.055068 -0.002878
v 7.593421 0.055415 0.006997
v 7.581991 0.074094 0.011806
v 7.584271 0.041583 -0.009921
v 7.578496 0.053055 -0.004620
v 7.581556 0.074810 0.014402
v 7.592665 0.057181 0.012842
v 7.575099 0.051495 -0.006000
v 7.580755 0.038914 -0.012239
v 7.590531 0.059077 0.018528
v 7.580661 0.075570 0.016945
v 7.576010 0.036943 -0.014137
v 7.571137 0.050801 -0.006706
v 7.587454 0.062471 0.023923
v 7.579241 0.077161 0.019327
v 7.570535 0.035833 -0.015144
v 7.567186 0.050543 -0.006863
v 7.584052 0.066831 0.028154
v 7.577712 0.079075 0.021320
v 7.563235 0.050801 -0.006706
v 7.565077 0.035501 -0.015346
v 7.580944 0.071630 0.030343
v 7.576347 0.081232 0.022180
v 7.559618 0.035833 -0.015144
v 7.559273 0.051495 -0.006000
v 7.578141 0.076788 0.030722
v 7.575084 0.083509 0.022436
v 7.555875 0.053055 -0.004620
v 7.554143 0.036943 -0.014137
v 7.575654 0.082231 0.029524
v 7.573996 0.085943 0.021816
v 7.549398 0.038914 -0.012239
v 7.553075 0.055068 -0.002878
v 7.573324 0.087815 0.027538
v 7.572960 0.088425 0.020933
v 7.550956 0.057517 -0.000951
v 7.545883 0.041583 -0.009921
v 7.569488 0.083395 0.030959
v 7.571256 0.086461 0.022454
v 7.542498 0.044978 -0.007243
v 7.549065 0.059980 0.001455
v 7.565312 0.078839 0.033666
v 7.569438 0.084451 0.023736
v 7.539454 0.048857 -0.003941
v 7.552336 0.067620 0.007174
v 7.560459 0.074013 0.034942
v 7.567243 0.082291 0.024224
v 7.556575 0.074048 0.011778
v 7.537530 0.052411 0.001119
v 7.555323 0.069290 0.034583
v 7.564954 0.080166 0.024167
v 7.536659 0.055277 0.006913
v 7.556908 0.074565 0.014254
v 7.550300 0.065045 0.032382
v 7.562727 0.078305 0.023086
v 7.557686 0.074939 0.016708
v 7.537205 0.056630 0.012509
v 7.545731 0.061563 0.028634
v 7.560653 0.076699 0.021490
v 7.539082 0.057554 0.018039
v 7.559020 0.075677 0.019198
v 7.541958 0.059132 0.023633
v 7.596549 0.021088 -0.011187
v 7.596250 0.027236 -0.011564
v 7.596393 0.027114 -0.012510
v 7.596919 0.026887 -0.013289
v 7.597722 0.026600 -0.013746
v 7.598645 0.026309 -0.013791
v 7.599504 0.026073 -0.013414
v 7.600129 0.025938 -0.012690
v 7.600396 0.025931 -0.011763
v 7.600253 0.026052 -0.010817
v 7.599728 0.026280 -0.010038
v 7.598925 0.026567 -0.009581
v 7.598002 0.026857 -0.009536
v 7.597143 0.027093 -0.009913
v 7.596518 0.027228 -0.010637
v 7.603364 0.031510 -0.013945
v 7.603827 0.031508 -0.012206
v 7.603511 0.031702 -0.010443
v 7.602477 0.032055 -0.009006
v 7.600931 0.032495 -0.008178
v 7.599178 0.032935 -0.008124
v 7.597566 0.033290 -0.008853
v 7.596414 0.033488 -0.010223
v 7.595950 0.033490 -0.011962
v 7.596266 0.033295 -0.013725
v 7.606609 0.037498 -0.012571
v 7.606154 0.037713 -0.010166
v 7.604719 0.038100 -0.008210
v 7.602585 0.038582 -0.007091
v 7.600177 0.039064 -0.007031
v 7.597971 0.039451 -0.008041
v 7.596404 0.039665 -0.009921
v 7.595786 0.039665 -0.012300
v 7.596241 0.039449 -0.014705
v 7.597300 0.032943 -0.015162
v 7.608382 0.043935 -0.009817
v 7.606550 0.044288 -0.007401
v 7.603857 0.044726 -0.006037
v 7.600839 0.045163 -0.005994
v 7.598093 0.045512 -0.007281
v 7.596162 0.045704 -0.009643
v 7.595430 0.045700 -0.012611
v 7.596041 0.045501 -0.015599
v 7.598846 0.032503 -0.015989
v 7.607911 0.050627 -0.006567
v 7.604706 0.050904 -0.004998
v 7.601137 0.051183 -0.004992
v 7.597911 0.051407 -0.006550
v 7.595667 0.051531 -0.009361
v 7.594850 0.051530 -0.012870
v 7.595619 0.051405 -0.016381
v 7.597825 0.051181 -0.019201
v 7.597874 0.045148 -0.018014
v 7.600598 0.032062 -0.016044
v 7.601078 0.057029 -0.004364
v 7.597594 0.057017 -0.006117
v 7.595196 0.057019 -0.009220
v 7.594356 0.057034 -0.013058
v 7.595241 0.057058 -0.016873
v 7.597677 0.057089 -0.019910
v 7.597676 0.039061 -0.016661
v 7.602211 0.031707 -0.015315
v 7.596925 0.062191 -0.005706
v 7.594452 0.062013 -0.009050
v 7.593605 0.062062 -0.013141
v 7.594553 0.062332 -0.017174
v 7.597111 0.062773 -0.020348
v 7.600775 0.063298 -0.022033
v 7.601183 0.057123 -0.021566
v 7.593587 0.066303 -0.008904
v 7.592690 0.066402 -0.013212
v 7.593642 0.067024 -0.017127
v 7.596086 0.068049 -0.020272
v 7.599596 0.069274 -0.021878
v 7.603478 0.070451 -0.021621
v 7.604814 0.063804 -0.021891
v 7.601029 0.050902 -0.020769
v 7.599810 0.038578 -0.017779
v 7.592455 0.071091 -0.016942
v 7.594509 0.072742 -0.019478
v 7.597360 0.074684 -0.020812
v 7.600592 0.076560 -0.020378
v 7.600566 0.044709 -0.019378
v 7.605062 0.057152 -0.021510
v 7.604599 0.050625 -0.020775
v 7.603584 0.044273 -0.019421
v 7.602218 0.038096 -0.017840
v 7.591864 0.076614 -0.018128
v 7.593904 0.079052 -0.018901
v 7.596278 0.081497 -0.018486
v 7.608424 0.064188 -0.019955
v 7.608544 0.057169 -0.019756
v 7.607823 0.050404 -0.019217
v 7.606330 0.043925 -0.018134
v 7.604424 0.037711 -0.016830
v 7.589395 0.082117 -0.016519
v 7.590751 0.084214 -0.015745
v 7.592193 0.085888 -0.013799
v 7.598312 0.083022 -0.016199
v 7.606955 0.071345 -0.019560
v 7.610066 0.050282 -0.016406
v 7.608261 0.043734 -0.015772
v 7.605991 0.037497 -0.014950
v 7.585238 0.085750 -0.012919
v 7.586167 0.087157 -0.011324
v 7.603539 0.077986 -0.018263
v 7.605627 0.078683 -0.014905
v 7.609344 0.071777 -0.016111
v 7.610884 0.050282 -0.012898
v 7.608993 0.043738 -0.012804
v 7.584438 0.084034 -0.013634
v 7.587050 0.088016 -0.009169
v 7.599964 0.083902 -0.013127
v 7.610894 0.064372 -0.016612
v 7.610116 0.050405 -0.009387
v 7.587983 0.079259 -0.015982
v 7.583622 0.081235 -0.013036
v 7.593441 0.086830 -0.011091
v 7.587725 0.088173 -0.006851
v 7.594269 0.086875 -0.008118
v 7.600808 0.083780 -0.009628
v 7.610940 0.057171 -0.016655
v 7.590445 0.074541 -0.016246
v 7.587318 0.077517 -0.014903
v 7.583179 0.080054 -0.012604
v 7.588058 0.087574 -0.004790
v 7.594509 0.085998 -0.005443
v 7.606460 0.078519 -0.010952
v 7.591874 0.070124 -0.013054
v 7.587721 0.076679 -0.011712
v 7.583672 0.079420 -0.010042
v 7.590358 0.073390 -0.012488
v 7.587961 0.086288 -0.003408
v 7.610180 0.071665 -0.011952
v 7.611780 0.057156 -0.012819
v 7.588721 0.076822 -0.008202
v 7.584505 0.079627 -0.007213
v 7.594086 0.084336 -0.003597
v 7.587121 0.083402 -0.002764
v 7.611741 0.064320 -0.012524
v 7.610796 0.064042 -0.008495
v 7.610897 0.057127 -0.009005
v 7.590149 0.077842 -0.004926
v 7.585539 0.080568 -0.004520
v 7.592862 0.070004 -0.008691
v 7.600667 0.082669 -0.006379
v 7.592748 0.081505 -0.002782
v 7.586373 0.081670 -0.003306
v 7.608463 0.057090 -0.005968
v 7.591560 0.079505 -0.003089
v 7.591339 0.073303 -0.008464
v 7.596034 0.066728 -0.005333
v 7.599544 0.080775 -0.004022
v 7.597526 0.078307 -0.002982
v 7.604958 0.057055 -0.004311
v 7.595280 0.076000 -0.003313
v 7.600541 0.062566 -0.003770
v 7.605868 0.077527 -0.007177
v 7.604580 0.063067 -0.003632
v 7.593207 0.074254 -0.004865
v 7.599449 0.067600 -0.003444
v 7.603953 0.075897 -0.004324
v 7.609299 0.071029 -0.007900
v 7.608243 0.063595 -0.005319
v 7.603353 0.068770 -0.003141
v 7.595078 0.070710 -0.005046
v 7.597866 0.072092 -0.003394
v 7.601089 0.073954 -0.002973
v 7.606865 0.069995 -0.004752
v 7.533605 0.021088 -0.011187
v 7.533761 0.027114 -0.012510
v 7.533904 0.027236 -0.011564
v 7.533235 0.026887 -0.013289
v 7.532431 0.026600 -0.013746
v 7.531509 0.026309 -0.013791
v 7.530650 0.026073 -0.013414
v 7.530025 0.025938 -0.012690
v 7.529757 0.025931 -0.011763
v 7.529900 0.026052 -0.010817
v 7.530426 0.026280 -0.010038
v 7.531229 0.026567 -0.009581
v 7.532152 0.026857 -0.009536
v 7.533010 0.027093 -0.009913
v 7.533636 0.027228 -0.010637
v 7.527943 0.031707 -0.015315
v 7.526790 0.031510 -0.013945
v 7.526326 0.031508 -0.012206
v 7.526642 0.031702 -0.010443
v 7.527677 0.032055 -0.009006
v 7.529222 0.032495 -0.008178
v 7.530975 0.032936 -0.008124
v 7.532588 0.033290 -0.008853
v 7.533740 0.033488 -0.010223
v 7.534204 0.033490 -0.011962
v 7.524162 0.037497 -0.014950
v 7.523544 0.037498 -0.012571
v 7.523999 0.037713 -0.010166
v 7.525435 0.038100 -0.008210
v 7.527568 0.038582 -0.007091
v 7.529976 0.039064 -0.007031
v 7.532182 0.039451 -0.008041
v 7.533750 0.039665 -0.009921
v 7.534367 0.039665 -0.012300
v 7.533887 0.033295 -0.013725
v 7.521161 0.043738 -0.012804
v 7.521771 0.043935 -0.009817
v 7.523604 0.044288 -0.007401
v 7.526297 0.044726 -0.006037
v 7.529315 0.045163 -0.005994
v 7.532061 0.045512 -0.007281
v 7.533991 0.045704 -0.009643
v 7.534724 0.045700 -0.012611
v 7.532854 0.032943 -0.015162
v 7.520038 0.050405 -0.009387
v 7.522243 0.050627 -0.006567
v 7.525448 0.050904 -0.004998
v 7.529017 0.051183 -0.004992
v 7.532243 0.051407 -0.006550
v 7.534486 0.051531 -0.009361
v 7.535304 0.051530 -0.012870
v 7.534534 0.051405 -0.016381
v 7.534113 0.045501 -0.015599
v 7.531308 0.032503 -0.015989
v 7.525196 0.057055 -0.004311
v 7.529076 0.057029 -0.004364
v 7.532559 0.057017 -0.006117
v 7.534957 0.057019 -0.009220
v 7.535797 0.057034 -0.013058
v 7.534913 0.057058 -0.016873
v 7.533913 0.039449 -0.014705
v 7.529555 0.032062 -0.016044
v 7.529613 0.062566 -0.003770
v 7.533228 0.062191 -0.005706
v 7.535702 0.062013 -0.009050
v 7.536548 0.062062 -0.013141
v 7.535600 0.062332 -0.017174
v 7.533042 0.062773 -0.020348
v 7.532476 0.057089 -0.019910
v 7.534120 0.066728 -0.005333
v 7.536567 0.066303 -0.008904
v 7.537463 0.066402 -0.013212
v 7.536512 0.067024 -0.017127
v 7.534068 0.068049 -0.020272
v 7.530557 0.069274 -0.021878
v 7.529378 0.063298 -0.022033
v 7.532329 0.051181 -0.019201
v 7.532477 0.039061 -0.016661
v 7.537699 0.071091 -0.016942
v 7.538279 0.070124 -0.013054
v 7.535645 0.072742 -0.019478
v 7.532794 0.074684 -0.020812
v 7.532280 0.045148 -0.018014
v 7.528970 0.057123 -0.021566
v 7.529124 0.050902 -0.020769
v 7.530344 0.038578 -0.017779
v 7.539709 0.074541 -0.016246
v 7.538290 0.076614 -0.018128
v 7.536250 0.079052 -0.018901
v 7.533875 0.081497 -0.018486
v 7.529562 0.076560 -0.020378
v 7.529588 0.044709 -0.019378
v 7.527936 0.038096 -0.017840
v 7.542170 0.079259 -0.015982
v 7.540759 0.082117 -0.016519
v 7.539403 0.084214 -0.015745
v 7.526675 0.070451 -0.021621
v 7.525555 0.050625 -0.020775
v 7.526569 0.044273 -0.019421
v 7.525340 0.063804 -0.021891
v 7.525730 0.037711 -0.016830
v 7.526614 0.077986 -0.018263
v 7.523199 0.071345 -0.019560
v 7.525091 0.057152 -0.021510
v 7.522330 0.050404 -0.019217
v 7.523823 0.043925 -0.018134
v 7.521729 0.064188 -0.019955
v 7.531842 0.083022 -0.016199
v 7.524527 0.078683 -0.014905
v 7.520810 0.071777 -0.016111
v 7.521610 0.057169 -0.019756
v 7.520087 0.050282 -0.016406
v 7.521893 0.043734 -0.015772
v 7.519259 0.064372 -0.016612
v 7.537960 0.085888 -0.013799
v 7.523694 0.078519 -0.010952
v 7.519973 0.071665 -0.011952
v 7.519213 0.057171 -0.016655
v 7.519269 0.050282 -0.012898
v 7.518413 0.064320 -0.012524
v 7.544915 0.085750 -0.012919
v 7.543986 0.087157 -0.011324
v 7.524285 0.077527 -0.007177
v 7.520854 0.071029 -0.007900
v 7.518374 0.057156 -0.012819
v 7.519257 0.057127 -0.009005
v 7.519357 0.064042 -0.008495
v 7.521691 0.057090 -0.005968
v 7.545716 0.084034 -0.013634
v 7.543104 0.088016 -0.009169
v 7.521911 0.063595 -0.005319
v 7.523288 0.069995 -0.004752
v 7.525573 0.063067 -0.003632
v 7.546532 0.081235 -0.013036
v 7.542835 0.077517 -0.014903
v 7.536713 0.086830 -0.011091
v 7.542428 0.088173 -0.006851
v 7.526801 0.068770 -0.003141
v 7.526201 0.075897 -0.004324
v 7.529064 0.073954 -0.002973
v 7.546974 0.080054 -0.012604
v 7.539796 0.073390 -0.012488
v 7.530190 0.083902 -0.013127
v 7.535884 0.086875 -0.008118
v 7.542096 0.087574 -0.004790
v 7.530705 0.067600 -0.003444
v 7.542432 0.076679 -0.011712
v 7.546481 0.079420 -0.010042
v 7.537292 0.070004 -0.008691
v 7.535645 0.085998 -0.005443
v 7.542192 0.086288 -0.003408
v 7.535076 0.070710 -0.005046
v 7.541432 0.076822 -0.008202
v 7.545649 0.079627 -0.007213
v 7.538815 0.073303 -0.008464
v 7.529346 0.083780 -0.009628
v 7.536068 0.084336 -0.003597
v 7.543032 0.083402 -0.002764
v 7.532288 0.072092 -0.003394
v 7.540005 0.077842 -0.004926
v 7.544614 0.080568 -0.004520
v 7.536947 0.074254 -0.004865
v 7.529487 0.082669 -0.006379
v 7.543780 0.081670 -0.003306
v 7.538593 0.079505 -0.003089
v 7.534874 0.076000 -0.003313
v 7.530610 0.080775 -0.004022
v 7.537405 0.081505 -0.002782
v 7.532628 0.078307 -0.002982
vn -0.1821 0.7799 -0.5988
vn -0.2141 0.7965 -0.5655
vn -0.1288 0.8394 -0.5280
vn -0.1128 0.8278 -0.5495
vn 0.1128 0.8278 -0.5495
vn -0.0000 0.8853 -0.4650
vn 0.1288 0.8394 -0.5280
vn -0.0861 0.8220 -0.5629
vn -0.1436 0.7653 -0.6275
vn 0.0861 0.8220 -0.5629
vn 0.1469 0.8491 -0.5074
vn -0.5679 0.6725 0.4746
vn -0.7392 0.4888 0.4633
vn -0.5091 0.2936 0.8091
vn -0.3963 0.3994 0.8267
vn 0.0088 0.9873 0.1585
vn 0.0167 0.9731 0.2298
vn 0.1807 0.9506 0.2524
vn 0.1454 0.9771 0.1551
vn 0.1519 0.8627 -0.4823
vn 0.9504 0.2749 -0.1454
vn 0.9373 0.3346 -0.0975
vn 0.9743 0.2155 -0.0662
vn 0.9822 0.1480 -0.1159
vn -0.2925 0.7463 -0.5979
vn -0.2494 0.7220 -0.6453
vn -0.3475 0.8009 -0.4876
vn -0.3559 0.8328 -0.4240
vn -0.2534 0.8604 -0.4421
vn -0.2498 0.8360 -0.4886
vn 0.1598 0.8766 -0.4538
vn -0.1598 0.8766 -0.4538
vn -0.1519 0.8627 -0.4823
vn 0.1875 0.9812 -0.0451
vn 0.2385 0.9702 0.0430
vn 0.3485 0.9373 0.0030
vn 0.2733 0.9587 -0.0788
vn -0.3198 0.6478 -0.6915
vn -0.3748 0.6818 -0.6282
vn 0.1821 0.7799 -0.5988
vn 0.1436 0.7653 -0.6275
vn -0.4238 0.7189 -0.5511
vn -0.3248 0.7726 -0.5456
vn 0.9142 0.4036 -0.0355
vn 0.9607 0.2771 -0.0189
vn 0.1519 0.8914 -0.4270
vn -0.3459 0.8644 -0.3649
vn -0.2474 0.8835 -0.3977
vn -0.5746 0.8143 0.0820
vn -0.3654 0.7971 0.4808
vn -0.3318 0.9389 0.0914
vn -0.4608 0.6009 -0.6531
vn -0.3913 0.5571 -0.7325
vn -0.1947 0.7010 -0.6861
vn -0.2501 0.6202 -0.7435
vn 0.1475 0.9022 -0.4054
vn -0.7984 0.6003 -0.0471
vn -0.7219 0.6902 0.0495
vn -0.6404 0.7675 0.0285
vn -0.7190 0.6893 -0.0889
vn -0.3251 0.8907 -0.3178
vn -0.2330 0.9012 -0.3655
vn -0.4815 0.7842 -0.3913
vn -0.4645 0.7520 -0.4677
vn -0.4663 0.8232 -0.3239
vn 0.8354 0.5120 0.2000
vn 0.8789 0.3997 0.2602
vn 0.9427 0.2865 0.1710
vn 0.8934 0.4342 0.1151
vn 0.0631 0.6727 -0.7373
vn 0.0488 0.7460 -0.6642
vn 0.0974 0.7540 -0.6497
vn 0.1305 0.6840 -0.7177
vn -0.1652 0.5992 -0.7833
vn -0.1305 0.6840 -0.7177
vn 0.0610 0.8133 -0.5786
vn 0.8317 0.5469 0.0955
vn 0.7864 0.5943 0.1686
vn 0.1325 0.9114 -0.3897
vn 0.1652 0.5992 -0.7833
vn 0.1947 0.7010 -0.6861
vn 0.2501 0.6202 -0.7435
vn 0.0943 0.4845 -0.8697
vn -0.0000 0.4800 -0.8772
vn -0.0000 0.5817 -0.8134
vn 0.0777 0.5860 -0.8066
vn -0.0777 0.5860 -0.8066
vn -0.0631 0.6727 -0.7373
vn -0.0000 0.6688 -0.7435
vn -0.0974 0.7540 -0.6497
vn -0.0488 0.7460 -0.6642
vn 0.0300 0.8123 -0.5825
vn -0.0300 0.8123 -0.5825
vn -0.0610 0.8133 -0.5786
vn -0.5840 0.6905 -0.4268
vn -0.6043 0.7173 -0.3470
vn 0.9512 -0.1669 -0.2595
vn 0.9865 -0.0755 -0.1454
vn 0.9741 -0.2024 -0.1007
vn 0.9337 -0.3011 -0.1937
vn -0.4584 0.4599 -0.7605
vn -0.3076 0.5239 -0.7943
vn -0.3597 0.4229 -0.8317
vn -0.3097 -0.2529 -0.9166
vn -0.3433 -0.3036 -0.8888
vn -0.6963 -0.1873 -0.6929
vn -0.6773 -0.1556 -0.7191
vn -0.5308 -0.0796 -0.8438
vn -0.5390 -0.0835 -0.8381
vn -0.3684 0.2678 -0.8903
vn -0.2878 0.2246 -0.9310
vn -0.0309 0.9396 -0.3409
vn -0.0525 0.9689 -0.2420
vn -0.0000 0.9712 -0.2382
vn -0.0000 0.9427 -0.3336
vn -0.5298 0.6518 -0.5427
vn -0.0000 0.8079 -0.5893
vn -0.0943 0.4845 -0.8697
vn -0.2027 0.4993 -0.8424
vn -0.3211 -0.3310 0.8873
vn -0.5167 -0.4429 0.7327
vn -0.4118 -0.5400 0.7341
vn -0.2131 -0.4131 0.8854
vn -0.5674 -0.4506 -0.6893
vn -0.5704 -0.5517 -0.6085
vn -0.7353 -0.4874 -0.4709
vn -0.7274 -0.3848 -0.5682
vn -0.0000 0.7437 -0.6686
vn 0.9968 0.0010 -0.0798
vn 0.9973 0.0682 -0.0283
vn 0.9959 -0.0888 0.0168
vn 0.9891 -0.1430 -0.0352
vn -0.9215 0.1160 -0.3706
vn -0.9494 -0.0062 -0.3140
vn -0.9807 0.0693 -0.1828
vn -0.9550 0.2034 -0.2160
vn -0.5872 0.2475 -0.7707
vn -0.7056 0.2973 -0.6432
vn -0.6292 0.4072 -0.6620
vn -0.5241 0.3566 -0.7734
vn -0.2376 0.3943 -0.8877
vn -0.4083 0.3172 -0.8560
vn -0.2694 0.2847 -0.9200
vn 0.4608 0.6009 -0.6531
vn 0.3913 0.5571 -0.7325
vn 0.3198 0.6478 -0.6915
vn 0.3748 0.6818 -0.6282
vn -0.6527 0.7533 0.0810
vn -0.5825 0.8047 0.1150
vn -0.5038 0.8594 0.0874
vn -0.5788 0.8126 0.0688
vn 0.9805 0.0667 -0.1850
vn 0.9545 0.2014 -0.2200
vn -0.2502 0.8456 0.4716
vn -0.2085 0.9744 0.0840
vn -0.1106 0.3773 -0.9195
vn 0.1175 0.9906 0.0705
vn 0.2902 0.9498 0.1167
vn -0.5024 0.8642 0.0290
vn -0.4283 0.9019 0.0562
vn -0.3503 0.9366 0.0013
vn -0.4229 0.9054 -0.0386
vn -0.4925 -0.4288 -0.7574
vn -0.1073 -0.3503 -0.9304
vn -0.0592 -0.4212 -0.9051
vn -0.4329 -0.5168 -0.7386
vn 0.2027 0.4993 -0.8424
vn 0.1106 0.3773 -0.9195
vn -0.0000 0.3723 -0.9281
vn -0.1256 0.2649 -0.9561
vn 0.6293 0.4070 -0.6621
vn 0.7055 0.2967 -0.6436
vn 0.5869 0.2445 -0.7719
vn 0.5242 0.3560 -0.7736
vn 0.1259 0.2644 -0.9562
vn 0.0001 0.2589 -0.9659
vn -0.8293 0.5548 0.0671
vn -0.7577 0.6267 0.1818
vn -0.6678 0.7300 0.1457
vn -0.7352 0.6738 0.0740
vn 0.2376 0.3943 -0.8877
vn -0.4727 0.8359 -0.2788
vn -0.2269 0.9438 -0.2403
vn 0.7744 0.1737 -0.6084
vn 0.6450 0.1235 -0.7542
vn 0.2192 -0.1056 0.9700
vn 0.2125 -0.0650 0.9750
vn -0.2368 -0.1235 0.9637
vn -0.2305 -0.1155 0.9662
vn 0.2827 -0.2187 -0.9339
vn -0.1441 -0.2956 -0.9444
vn -0.1762 -0.2554 -0.9506
vn 0.2576 -0.2028 -0.9447
vn -0.2980 0.1729 -0.9388
vn -0.1385 0.1494 -0.9790
vn 0.3076 0.5239 -0.7943
vn 0.1755 0.4890 0.8545
vn 0.2614 0.4642 0.8463
vn 0.3654 0.7971 0.4808
vn 0.2502 0.8456 0.4716
vn -0.6108 -0.0775 0.7880
vn -0.6126 -0.0749 0.7868
vn -0.8900 -0.0403 0.4541
vn -0.8868 -0.0338 0.4608
vn 0.2217 -0.1377 0.9653
vn -0.2053 -0.2156 0.9546
vn -0.1913 -0.2534 0.9483
vn 0.2260 -0.1559 0.9616
vn -0.9709 -0.2394 0.0062
vn -0.9897 -0.1374 -0.0396
vn -0.9741 -0.2013 -0.1033
vn -0.9623 -0.2588 -0.0833
vn 0.9929 -0.1191 -0.0076
vn 0.8915 -0.1188 -0.4372
vn 0.8787 -0.1552 -0.4514
vn 0.9844 -0.1750 -0.0201
vn -0.2300 -0.1558 -0.9606
vn -0.2576 -0.2028 -0.9447
vn -0.6451 -0.1487 -0.7495
vn -0.6279 -0.1302 -0.7673
vn 0.7292 -0.2173 -0.6489
vn 0.7255 -0.3837 -0.5713
vn 0.5653 -0.4477 -0.6929
vn 0.5646 -0.2959 -0.7705
vn -0.8442 0.4916 -0.2136
vn -0.9058 0.3906 -0.1641
vn -0.8953 0.4340 -0.1000
vn -0.8366 0.5270 -0.1496
vn 0.0003 -0.1145 -0.9934
vn 0.0003 0.0159 -0.9999
vn 0.1519 0.0220 -0.9881
vn 0.1621 -0.1077 -0.9809
vn 0.6229 -0.1045 0.7753
vn 0.8966 -0.0922 0.4331
vn 0.8995 -0.1188 0.4205
vn 0.6294 -0.1187 0.7680
vn 0.4966 0.0808 -0.8642
vn 0.6932 0.0007 -0.7207
vn 0.5319 -0.0445 -0.8457
vn -0.2125 -0.0650 0.9750
vn -0.6223 0.0046 0.7827
vn -0.6241 -0.0898 0.7761
vn -0.2192 -0.1056 0.9700
vn 0.4544 0.2027 -0.8675
vn 0.0025 0.9970 0.0773
vn -0.4308 0.8650 -0.2574
vn -0.3897 0.9014 -0.1884
vn -0.2971 0.9146 -0.2742
vn 0.3488 -0.0838 -0.9335
vn 0.3649 -0.2122 -0.9065
vn 0.1695 -0.2385 -0.9562
vn 0.5555 -0.1662 -0.8148
vn -0.1681 -0.2401 -0.9561
vn -0.3668 -0.2155 -0.9050
vn -0.3504 -0.0815 -0.9330
vn -0.1607 -0.1070 -0.9812
vn -0.7642 0.6124 -0.2026
vn -0.7744 0.5763 -0.2612
vn -0.6081 -0.0995 0.7876
vn -0.8819 -0.0459 0.4691
vn 0.2355 0.8151 -0.5292
vn 0.3248 0.7726 -0.5456
vn 0.2925 0.7463 -0.5979
vn 0.2141 0.7965 -0.5655
vn -0.1469 0.8491 -0.5074
vn 0.0003 -0.2462 -0.9692
vn 0.8851 -0.1942 0.4229
vn 0.9003 -0.0735 0.4291
vn 0.6241 -0.0898 0.7761
vn 0.6137 -0.1766 0.7695
vn -0.3750 -0.3555 -0.8561
vn -0.3748 -0.5014 -0.7798
vn -0.5692 -0.2996 -0.7656
vn 0.1725 -0.5299 -0.8303
vn 0.3747 -0.4982 -0.7819
vn 0.3725 -0.5965 -0.7110
vn 0.1682 -0.6272 -0.7605
vn -0.9233 -0.0773 -0.3763
vn -0.9303 -0.0947 -0.3544
vn -0.9972 -0.0441 0.0608
vn -0.9984 -0.0337 0.0449
vn 0.2498 0.8360 -0.4886
vn 0.3263 0.0443 -0.9442
vn -0.5693 -0.2964 -0.7669
vn -0.8443 -0.3183 -0.4311
vn -0.8802 -0.2039 -0.4287
vn -0.6076 -0.1954 -0.7699
vn -0.3723 -0.5979 -0.7098
vn 0.4584 0.4599 -0.7605
vn 0.5461 0.5087 -0.6656
vn 0.5044 0.5542 -0.6622
vn 0.6176 0.3040 -0.7253
vn 0.2523 0.1968 -0.9474
vn 0.1792 0.3878 -0.9042
vn 0.0185 0.8682 -0.4958
vn 0.1920 0.6531 -0.7325
vn 0.1267 0.6344 -0.7626
vn -0.0811 0.8536 -0.5145
vn -0.8928 -0.0768 0.4438
vn -0.8966 -0.0922 0.4331
vn -0.9956 -0.0933 0.0071
vn -0.9967 -0.0780 0.0214
vn -0.5625 -0.1681 -0.8095
vn -0.5385 -0.0403 -0.8417
vn -0.9072 0.1106 -0.4059
vn -0.9943 0.1054 0.0138
vn -0.9396 0.3408 0.0313
vn -0.8552 0.3539 -0.3787
vn 0.0001 -0.6363 -0.7715
vn 0.0002 -0.5392 -0.8422
vn -0.1717 -0.5313 -0.8296
vn -0.1723 -0.3829 -0.9076
vn 0.0002 -0.3896 -0.9210
vn 0.4238 0.7189 -0.5511
vn 0.5298 0.6518 -0.5427
vn 0.5949 -0.1104 -0.7962
vn 0.1815 -0.0459 -0.9823
vn 0.1845 0.0537 -0.9814
vn 0.5853 -0.0869 -0.8061
vn 0.2699 0.2837 -0.9202
vn -0.7282 -0.1084 -0.6767
vn -0.6982 0.0041 -0.7158
vn -0.6294 -0.1187 0.7680
vn -0.6229 -0.1045 0.7753
vn -0.2259 -0.1267 0.9659
vn 0.3742 -0.3511 -0.8583
vn 0.3475 0.8009 -0.4876
vn 0.4645 0.7520 -0.4677
vn 0.6317 0.5716 -0.5237
vn 0.7235 0.4781 -0.4980
vn -0.1678 -0.6278 -0.7600
vn 0.2534 0.8604 -0.4421
vn 0.3559 0.8328 -0.4240
vn 0.4815 0.7842 -0.3914
vn 0.6043 0.7173 -0.3470
vn 0.5840 0.6905 -0.4268
vn 0.6845 0.6219 -0.3805
vn 0.8802 -0.2039 -0.4287
vn 0.9051 -0.0610 -0.4207
vn 0.9980 -0.0625 0.0030
vn 0.9791 -0.2035 -0.0042
vn 0.2474 0.8835 -0.3977
vn -0.1519 0.8914 -0.4270
vn 0.3459 0.8644 -0.3649
vn 0.4663 0.8232 -0.3239
vn -0.1608 0.9652 0.2060
vn -0.1351 0.9807 0.1415
vn -0.1504 0.0247 -0.9883
vn -0.6392 -0.0694 -0.7659
vn -0.9051 -0.0610 -0.4207
vn -0.6523 0.0818 -0.7536
vn -0.7468 -0.1774 0.6410
vn -0.8640 -0.2026 0.4610
vn -0.6792 -0.4773 0.5576
vn 0.4932 0.8695 0.0252
vn 0.4195 0.9055 0.0639
vn 0.4778 0.8735 0.0930
vn 0.5616 0.8253 0.0587
vn -0.0393 0.5522 -0.8328
vn -0.3039 0.7580 -0.5772
vn -0.9081 0.3312 -0.2563
vn -0.8424 0.4479 -0.2997
vn -0.8027 0.3721 -0.4661
vn -0.8719 0.2475 -0.4226
vn -0.4541 0.2081 -0.8663
vn 0.6522 0.0818 -0.7536
vn 0.6392 -0.0694 -0.7659
vn 0.2455 -0.0848 -0.9657
vn 0.2665 0.0249 -0.9635
vn 0.8026 0.3721 -0.4662
vn 0.7682 0.5428 -0.3394
vn 0.8414 0.4483 -0.3017
vn 0.8719 0.2475 -0.4226
vn 0.6983 0.6482 -0.3036
vn 0.9070 0.3310 -0.2602
vn -0.7330 -0.2185 -0.6442
vn -0.8772 -0.1648 -0.4510
vn -0.8639 -0.0566 -0.5004
vn 0.8396 0.4954 -0.2229
vn 0.9017 0.3923 -0.1817
vn 0.6828 0.6874 -0.2474
vn 0.7606 0.6147 -0.2088
vn 0.7729 0.5774 -0.2631
vn 0.2330 0.9012 -0.3655
vn 0.9381 0.0900 0.3344
vn 0.9815 -0.0012 0.1914
vn 0.9789 0.1902 0.0750
vn -0.1475 0.9022 -0.4054
vn -0.4629 -0.5999 0.6526
vn -0.3650 -0.7118 0.6001
vn -0.4688 -0.8238 0.3188
vn -0.6100 -0.7170 0.3374
vn 0.9215 0.1160 -0.3706
vn 0.8285 0.0486 -0.5579
vn 0.0001 0.0161 0.9999
vn 0.0500 0.0496 0.9975
vn -0.1014 0.9612 -0.2567
vn -0.0658 0.9367 -0.3439
vn -0.9121 -0.3663 -0.1841
vn -0.9337 -0.3010 -0.1936
vn 0.1855 0.0026 0.9826
vn -0.2493 -0.1163 0.9614
vn 0.2131 0.9166 -0.3384
vn -0.1325 0.9114 -0.3897
vn 0.4749 0.8738 -0.1047
vn 0.5355 0.8208 -0.1987
vn 0.4308 0.8650 -0.2574
vn 0.3897 0.9015 -0.1884
vn -0.3745 -0.6617 -0.6496
vn -0.5827 -0.6067 -0.5408
vn 0.3597 0.4229 -0.8317
vn 0.2305 -0.1155 0.9662
vn -0.2165 -0.1527 0.9643
vn 0.2259 -0.1267 0.9659
vn 0.9494 -0.0062 -0.3141
vn 0.8628 -0.0569 -0.5023
vn 0.0002 0.1417 -0.9899
vn -0.7749 0.1749 -0.6074
vn 0.7045 -0.5712 -0.4211
vn 0.7691 -0.4726 -0.4303
vn 0.8811 -0.4727 -0.0140
vn 0.8194 -0.5730 -0.0151
vn 0.2971 0.9146 -0.2742
vn 0.3251 0.8907 -0.3178
vn 0.1396 0.1475 -0.9792
vn 0.9432 -0.3317 -0.0156
vn 0.8680 -0.3187 0.3808
vn 0.8973 -0.2072 0.3897
vn 0.9767 -0.2133 -0.0255
vn 0.9210 -0.3894 -0.0134
vn 0.8394 -0.3549 0.4116
vn 0.8059 -0.4291 0.4078
vn 0.1185 0.9207 -0.3717
vn 0.1832 0.9327 -0.3107
vn 0.2566 0.9395 -0.2271
vn -0.1185 0.9207 -0.3717
vn 0.2494 0.7220 -0.6453
vn 0.1735 -0.3808 -0.9082
vn -0.8995 -0.1188 0.4205
vn -0.9929 -0.1191 -0.0076
vn 0.6773 -0.1556 -0.7191
vn 0.3097 -0.2529 -0.9166
vn 0.6613 -0.1406 -0.7368
vn 0.3409 0.9315 -0.1266
vn 0.4206 0.9064 -0.0399
vn -0.0939 0.9278 -0.3612
vn 0.0939 0.9278 -0.3612
vn 0.1472 0.9482 -0.2815
vn -0.7962 0.6021 0.0591
vn -0.7074 0.6241 -0.3318
vn 0.8819 -0.0459 0.4691
vn 0.9972 -0.0441 0.0608
vn 0.9984 -0.0337 0.0449
vn 0.8868 -0.0338 0.4608
vn 0.7229 -0.1086 -0.6823
vn 0.5699 -0.5504 -0.6102
vn -0.0000 -0.6986 -0.7155
vn -0.1663 -0.6916 -0.7028
vn -0.9970 -0.0702 0.0325
vn -0.9691 -0.2201 0.1113
vn -0.6121 -0.2695 0.7435
vn -0.2438 -0.1377 0.9600
vn -0.2278 -0.2123 0.9503
vn -0.5694 -0.4151 0.7096
vn 0.2029 0.9623 -0.1814
vn 0.9920 0.1255 0.0143
vn 0.6076 -0.1954 -0.7699
vn 0.1664 -0.6915 -0.7029
vn 0.1616 -0.7293 -0.6648
vn -0.0000 -0.7343 -0.6788
vn -0.7783 0.1946 0.5969
vn -0.5893 -0.0720 0.8047
vn -0.4181 0.0898 0.9040
vn -0.6559 0.3344 0.6767
vn 0.6688 -0.7289 -0.1463
vn 0.6695 -0.7287 -0.1437
vn 0.6732 -0.7299 -0.1187
vn 0.6722 -0.7294 -0.1269
vn 0.6897 -0.5023 -0.5215
vn 0.6689 -0.7429 0.0266
vn 0.8418 -0.5397 0.0123
vn 0.7637 -0.4021 -0.5051
vn -0.0305 -0.2301 0.9727
vn 0.1361 -0.0391 0.9899
vn 0.0343 0.0188 0.9992
vn -0.1337 -0.1636 0.9774
vn 0.8500 -0.3007 -0.4325
vn 0.8732 -0.3574 -0.3312
vn 0.7348 -0.4869 -0.4723
vn 0.0309 0.9396 -0.3409
vn 0.0525 0.9689 -0.2420
vn 0.1014 0.9612 -0.2567
vn 0.0658 0.9367 -0.3439
vn -0.0000 0.9999 -0.0169
vn 0.0954 0.9951 -0.0244
vn -0.3258 0.0510 -0.9440
vn 0.3746 -0.6614 -0.6498
vn 0.3736 -0.6994 -0.6092
vn -0.6689 -0.7429 0.0266
vn -0.5456 -0.8368 0.0460
vn -0.6538 -0.5728 -0.4944
vn -0.6897 -0.5023 -0.5215
vn -0.8296 0.0496 -0.5562
vn -0.9210 -0.3894 -0.0134
vn -0.8123 -0.3900 -0.4337
vn -0.7691 -0.4726 -0.4303
vn -0.8811 -0.4727 -0.0140
vn 0.9087 -0.1039 -0.4044
vn 0.6451 -0.1487 -0.7495
vn 0.6279 -0.1302 -0.7673
vn 0.9007 -0.1074 -0.4210
vn -0.8915 -0.1188 -0.4372
vn -0.9007 -0.1074 -0.4210
vn -0.3736 -0.6994 -0.6092
vn -0.5865 -0.6376 -0.4995
vn 0.8123 -0.3900 -0.4337
vn 0.4925 -0.4288 -0.7574
vn 0.5350 -0.3566 -0.7659
vn 0.3164 0.6662 0.6753
vn 0.3666 0.4787 0.7978
vn 0.6399 0.5807 0.5033
vn 0.5701 0.6875 0.4498
vn 0.7984 0.6011 0.0359
vn 0.7581 0.6475 0.0774
vn 0.8747 0.4833 0.0363
vn -0.7320 -0.5702 -0.3729
vn -0.7380 -0.5371 -0.4085
vn -0.1301 -0.4895 0.8622
vn -0.1695 -0.4875 0.8565
vn -0.1741 -0.4872 0.8557
vn -0.1346 -0.4893 0.8617
vn -0.5660 0.6202 0.5431
vn -0.6539 0.5220 0.5477
vn -0.5378 0.4707 0.6994
vn -0.4251 0.5905 0.6860
vn 0.6736 -0.7389 0.0203
vn 0.6752 -0.7372 -0.0256
vn -0.9358 0.3480 0.0569
vn -0.9687 0.1866 0.1638
vn -0.9076 0.2713 0.3204
vn -0.9096 0.3966 0.1240
vn -0.8507 -0.3010 -0.4311
vn -0.8513 -0.4329 -0.2965
vn -0.8734 -0.3574 -0.3308
vn -0.8299 -0.4876 -0.2713
vn 0.4934 -0.5685 0.6583
vn 0.6338 -0.5974 0.4914
vn 0.9206 -0.2816 0.2705
vn 0.8402 -0.2992 0.4523
vn -0.9512 -0.1669 -0.2594
vn 0.7344 -0.2175 0.6430
vn 0.3631 -0.4342 0.8244
vn -0.9986 -0.0411 0.0334
vn -0.9169 -0.0771 -0.3917
vn 0.5429 0.7624 0.3522
vn 0.7057 0.6471 0.2885
vn 0.6695 0.7048 0.2345
vn -0.6324 0.7616 -0.1416
vn -0.5361 0.8208 -0.1974
vn -0.5860 0.7592 -0.2834
vn -0.6832 0.6875 -0.2462
vn 0.8259 0.5377 -0.1696
vn -0.9504 0.2833 -0.1285
vn -0.9867 -0.0741 -0.1449
vn -0.5596 0.8283 -0.0262
vn 0.5858 0.7592 -0.2836
vn -0.4992 0.0891 -0.8619
vn 0.0229 0.9316 0.3629
vn -0.1862 0.9342 0.3042
vn -0.9969 0.0090 -0.0781
vn -0.9353 0.3468 -0.0699
vn -0.7848 -0.4658 0.4087
vn -0.6668 -0.6151 0.4208
vn -0.5724 -0.5921 0.5673
vn -0.1413 0.9789 -0.1477
vn -0.0745 0.9888 -0.1291
vn 0.9665 -0.2559 0.0206
vn 0.7284 -0.5924 0.3442
vn 0.6085 -0.7223 0.3287
vn 0.9560 -0.2676 0.1205
vn -0.2566 0.9394 -0.2271
vn -0.1832 0.9327 -0.3107
vn -0.2131 0.9166 -0.3384
vn -0.7235 0.4781 -0.4980
vn -0.6317 0.5716 -0.5236
vn -0.5461 0.5087 -0.6656
vn -0.8059 -0.4291 0.4078
vn -0.8194 -0.5730 -0.0151
vn -0.7543 -0.5218 0.3983
vn 0.4278 -0.7267 0.5375
vn 0.2659 0.4065 0.8741
vn 0.3263 0.3663 0.8714
vn 0.1843 0.5807 0.7930
vn 0.2745 0.5916 0.7581
vn -0.8777 0.4785 0.0262
vn 0.9356 0.3509 0.0400
vn 0.6108 -0.0775 0.7880
vn 0.2318 -0.1942 0.9532
vn 0.6081 -0.0995 0.7876
vn -0.6984 0.6482 -0.3035
vn -0.2029 0.9623 -0.1814
vn -0.2733 0.9587 -0.0788
vn -0.1874 0.9812 -0.0452
vn -0.9959 0.0898 -0.0143
vn 0.4835 0.2374 0.8425
vn 0.6161 -0.0201 0.7874
vn 0.8589 0.2390 0.4529
vn 0.7488 0.4218 0.5112
vn 0.4086 0.3160 -0.8563
vn 0.2994 0.1683 -0.9392
vn 0.6099 -0.1139 -0.7842
vn 0.2021 -0.1017 -0.9741
vn -0.6845 0.6219 -0.3804
vn -0.7685 0.5426 -0.3390
vn 0.6308 0.7618 -0.1477
vn 0.5549 0.8311 -0.0362
vn 0.6331 0.7740 0.0077
vn 0.7140 0.6924 -0.1039
vn -0.6386 -0.1873 0.7464
vn 0.1413 0.9789 -0.1476
vn -0.6137 -0.1766 0.7695
vn -0.8851 -0.1942 0.4229
vn -0.8607 -0.2939 0.4157
vn -0.5977 -0.2516 0.7612
vn 0.5977 -0.2516 0.7612
vn 0.2165 -0.1527 0.9643
vn 0.2105 -0.1983 0.9573
vn 0.1073 -0.3503 -0.9304
vn 0.0592 -0.4212 -0.9051
vn -0.8540 0.2669 0.4466
vn -0.1959 -0.3114 0.9299
vn -0.1982 -0.4169 0.8871
vn -0.1946 0.8726 0.4480
vn 0.0546 0.8377 0.5434
vn -0.9810 0.1616 -0.1073
vn 0.5578 -0.0803 -0.8260
vn 0.6538 -0.5728 -0.4944
vn 0.5390 -0.0835 -0.8381
vn -0.3409 0.9315 -0.1266
vn -0.2222 0.1531 -0.9629
vn 0.0393 0.5522 -0.8328
vn -0.1472 0.9482 -0.2815
vn -0.4153 0.2750 -0.8671
vn -0.1920 0.6531 -0.7325
vn -0.1267 0.6344 -0.7626
vn 0.8443 -0.3183 -0.4311
vn 0.9482 -0.3174 -0.0096
vn 0.6386 -0.1873 0.7464
vn 0.2493 -0.1163 0.9614
vn 0.2368 -0.1235 0.9637
vn 0.6338 -0.1607 0.7566
vn -0.9132 0.4072 -0.0186
vn -0.8659 0.4995 -0.0255
vn 0.4153 0.2750 -0.8671
vn 0.3684 0.2678 -0.8903
vn -0.3491 0.9248 0.1516
vn -0.2926 0.9508 0.1019
vn -0.6613 -0.1406 -0.7368
vn -0.9087 -0.1039 -0.4044
vn -0.2355 0.8151 -0.5292
vn 0.1387 -0.5185 0.8438
vn 0.1330 -0.5173 0.8454
vn 0.0880 -0.5082 0.8567
vn 0.0912 -0.5089 0.8560
vn 0.8336 -0.2669 -0.4836
vn 0.1032 0.0738 0.9919
vn 0.3963 0.3994 0.8267
vn 0.3423 0.8015 0.4904
vn -0.0000 0.9924 -0.1230
vn 0.0745 0.9888 -0.1291
vn 0.9967 -0.0780 0.0214
vn 0.9956 -0.0933 0.0071
vn -0.0954 0.9951 -0.0244
vn -0.9685 0.2438 -0.0504
vn 0.9953 -0.0407 0.0878
vn -0.2665 0.0249 -0.9635
vn -0.2523 0.1968 -0.9474
vn -0.1149 0.9912 0.0656
vn -0.2388 0.9703 0.0379
vn -0.9393 -0.1908 0.2851
vn -0.9872 -0.0035 0.1596
vn 0.7596 0.5716 0.3103
vn -0.6929 0.6325 0.3463
vn -0.6373 0.6184 0.4597
vn -0.5384 0.7247 0.4300
vn -0.6028 0.7445 0.2870
vn 0.1513 -0.5210 0.8400
vn 0.1521 -0.5212 0.8398
vn 0.8538 0.5181 -0.0516
vn -0.9522 0.0264 0.3042
vn 0.8513 -0.4329 -0.2966
vn -0.9767 -0.2133 -0.0255
vn -0.9432 -0.3317 -0.0156
vn -0.8336 -0.2669 -0.4836
vn -0.8686 -0.1854 -0.4596
vn -0.1845 0.0537 -0.9814
vn 0.3855 0.8806 0.2755
vn 0.5485 0.8031 0.2328
vn 0.8764 -0.1646 -0.4526
vn 0.6689 -0.7287 -0.1471
vn 0.6699 -0.7283 -0.1442
vn 0.6726 -0.7270 -0.1378
vn 0.6717 -0.7275 -0.1397
vn -0.9859 0.1538 0.0658
vn 0.2289 0.8420 0.4885
vn 0.2269 0.7466 0.6254
vn 0.1919 0.7809 0.5944
vn 0.2405 0.8891 0.3894
vn 0.3303 0.9281 0.1718
vn 0.2364 0.7643 0.5999
vn 0.1823 0.8935 0.4104
vn -0.8680 -0.3187 0.3808
vn -0.8973 -0.2072 0.3897
vn -0.8418 -0.5397 0.0123
vn -0.7824 -0.5079 0.3604
vn 0.6223 0.0046 0.7827
vn 0.5920 0.1440 0.7930
vn 0.1038 0.5798 0.8081
vn 0.9623 -0.2605 -0.0784
vn 0.9121 -0.3663 -0.1841
vn -0.0694 -0.4903 0.8688
vn -0.0152 -0.4907 0.8712
vn -0.0198 -0.4904 0.8713
vn -0.0705 -0.4903 0.8687
vn 0.7137 0.6999 0.0286
vn 0.7858 0.6143 -0.0722
vn 0.6451 0.7611 0.0677
vn 0.9943 0.1054 0.0138
vn 0.9072 0.1106 -0.4059
vn -0.2597 0.2578 0.9306
vn 0.0659 0.7144 0.6967
vn 0.0054 0.5795 0.8150
vn -0.5853 -0.0869 -0.8061
vn -0.5628 -0.0756 -0.8232
vn -0.7964 0.3540 0.4903
vn -0.7243 0.5013 0.4734
vn -0.7880 0.4820 0.3831
vn 0.8299 -0.4876 -0.2713
vn -0.8378 -0.4726 0.2733
vn -0.8457 -0.5150 -0.1399
vn -0.8580 -0.5019 -0.1097
vn -0.8630 -0.4954 -0.0984
vn -0.8472 -0.5137 -0.1357
vn -0.9525 0.3044 0.0020
vn -0.1412 0.0618 0.9880
vn -0.1032 0.0738 0.9919
vn 0.6092 -0.7290 0.3122
vn 0.6515 -0.7403 0.1657
vn -0.9136 -0.4067 0.0025
vn -0.1423 -0.9861 -0.0860
vn -0.9229 -0.3848 0.0131
vn -0.9083 -0.4182 -0.0119
vn 0.2752 0.1631 0.9474
vn 0.1784 0.2117 0.9609
vn 0.5091 0.2936 0.8091
vn 0.1412 0.0618 0.9880
vn -0.4642 0.7131 0.5254
vn -0.7140 0.4349 0.5486
vn 0.6393 0.7463 0.1854
vn 0.2458 -0.1967 0.9491
vn 0.8094 0.4880 0.3268
vn -0.0105 0.3069 0.9517
vn 0.0699 0.3389 0.9382
vn -0.8052 0.5917 0.0399
vn -0.8841 0.0835 0.4597
vn -0.2172 0.7889 0.5749
vn -0.3068 0.6984 0.6467
vn -0.8351 0.5013 0.2267
vn 0.3069 -0.6251 0.7177
vn -0.8426 -0.5184 -0.1460
vn -0.8422 -0.5180 -0.1496
vn -0.8423 -0.5179 -0.1493
vn -0.8470 -0.5253 -0.0815
vn 0.7329 0.6681 0.1283
vn -0.4346 0.8658 0.2479
vn 0.6596 0.7447 0.1015
vn -0.3884 0.8255 0.4096
vn 0.5628 -0.0756 -0.8232
vn 0.8686 -0.1854 -0.4596
vn 0.0102 0.0807 0.9967
vn 0.1334 0.0812 0.9877
vn -0.3742 -0.5390 0.7546
vn -0.2145 -0.4937 0.8428
vn -0.2029 -0.4910 0.8472
vn -0.3241 -0.5258 0.7865
vn 0.2092 -0.4326 0.8770
vn 0.1089 -0.1790 0.9778
vn 0.5770 0.8067 0.1279
vn 0.5232 0.8457 0.1049
vn -0.5627 -0.5680 0.6006
vn -0.5143 -0.5565 0.6526
vn -0.7806 -0.5596 0.2785
vn -0.8482 -0.5291 -0.0261
vn -0.8340 -0.5414 0.1064
vn -0.3740 0.7788 0.5035
vn 0.7380 -0.5370 -0.4088
vn -0.7637 -0.4021 -0.5051
vn -0.2614 0.4642 0.8463
vn -0.1152 0.4221 0.8992
vn 0.7320 -0.5702 -0.3729
vn 0.4629 -0.5999 0.6526
vn 0.1959 -0.3114 0.9299
vn 0.2278 -0.2123 0.9503
vn 0.5694 -0.4151 0.7096
vn -0.7674 -0.5922 0.2456
vn 0.1895 -0.5449 0.8168
vn 0.1726 -0.5348 0.8272
vn -0.6960 -0.5532 0.4577
vn 0.0002 -0.4913 0.8710
vn 0.3395 -0.6285 0.6998
vn 0.2883 -0.5996 0.7466
vn 0.8973 -0.1745 0.4056
vn -0.8741 -0.4806 -0.0703
vn -0.8814 -0.4685 -0.0599
vn -0.2872 -0.9551 -0.0725
vn 0.7020 -0.7040 -0.1079
vn 0.7082 -0.6983 -0.1042
vn 0.6866 -0.7171 -0.1201
vn 0.6982 -0.7074 -0.1099
vn 0.4968 -0.6927 0.5229
vn 0.6774 -0.7240 -0.1303
vn 0.6803 -0.7219 -0.1269
vn 0.4726 -0.6797 0.5609
vn 0.6741 -0.7262 -0.1349
vn 0.6755 -0.7253 -0.1327
vn -0.3050 -0.9488 0.0817
vn 0.4329 -0.5168 -0.7386
vn 0.7543 -0.5218 0.3983
vn 0.5230 -0.4283 0.7369
vn 0.1714 -0.3114 0.9347
vn -0.2318 -0.1942 0.9532
vn -0.7045 -0.5712 -0.4211
vn -0.5594 -0.3508 0.7510
vn -0.5230 -0.4283 0.7369
vn -0.1714 -0.3114 0.9347
vn 0.1117 0.9669 -0.2293
vn 0.2269 0.9438 -0.2403
vn 0.0811 0.8536 -0.5145
vn -0.0185 0.8682 -0.4958
vn 0.2085 0.9744 0.0840
vn 0.3318 0.9389 0.0914
vn 0.9233 -0.0773 -0.3763
vn 0.9303 -0.0947 -0.3544
vn -0.6338 -0.1607 0.7566
vn -0.8394 -0.3549 0.4116
vn -0.5839 -0.2931 0.7571
vn 0.5826 -0.6064 -0.5411
vn 0.5865 -0.6376 -0.4995
vn 0.6126 -0.0749 0.7868
vn 0.8900 -0.0403 0.4541
vn 0.9169 -0.0771 -0.3917
vn 0.9986 -0.0411 0.0334
vn -0.9482 -0.3174 -0.0096
vn 0.2236 -0.1442 0.9639
vn -0.2105 -0.1983 0.9573
vn 0.8974 0.0672 0.4361
vn -0.5044 0.5542 -0.6622
vn -0.4764 0.8732 -0.1024
vn 0.6963 -0.1873 -0.6929
vn 0.3433 -0.3036 -0.8888
vn -0.6474 0.1285 -0.7513
vn 0.6173 -0.1006 0.7802
vn 0.8928 -0.0768 0.4438
vn 0.2119 -0.1787 -0.9608
vn 0.1762 -0.2554 -0.9506
vn -0.2021 -0.1017 -0.9741
vn -0.6099 -0.1139 -0.7842
vn -0.6173 -0.1006 0.7802
vn -0.2236 -0.1442 0.9639
vn 0.5746 0.8143 0.0820
vn 0.7962 0.6021 0.0591
vn 0.7074 0.6241 -0.3318
vn 0.4727 0.8359 -0.2788
vn -0.5350 -0.3566 -0.7659
vn -0.6176 0.3040 -0.7253
vn 0.5839 -0.2931 0.7571
vn 0.5594 -0.3508 0.7510
vn 0.2300 -0.1558 -0.9606
vn 0.8864 0.4437 -0.1320
vn -0.5920 0.1440 0.7930
vn 0.8540 0.2669 0.4466
vn 0.2222 0.1531 -0.9629
vn -0.1792 0.3878 -0.9042
vn -0.2119 -0.1787 -0.9608
vn 0.5308 -0.0796 -0.8438
vn 0.2878 0.2246 -0.9310
vn -0.2455 -0.0848 -0.9657
vn -0.1616 -0.7293 -0.6648
vn -0.9791 -0.2035 -0.0042
vn -0.1117 0.9669 -0.2293
vn -0.9980 -0.0625 0.0030
vn -0.9003 -0.0735 0.4291
vn -0.8974 0.0672 0.4361
vn 0.5456 -0.8368 0.0460
vn -0.1755 0.4890 0.8545
vn 0.4688 -0.8238 0.3188
vn 0.6100 -0.7170 0.3374
vn -0.0500 0.0496 0.9975
vn -0.0001 0.0161 0.9999
vn 0.3650 -0.7118 0.6001
vn 0.1441 -0.2956 -0.9444
vn 0.1982 -0.4169 0.8871
vn 0.7824 -0.5079 0.3604
vn 0.6121 -0.2695 0.7435
vn -0.8787 -0.1552 -0.4514
vn -0.5949 -0.1104 -0.7962
vn -0.1855 0.0026 0.9826
vn 0.2438 -0.1377 0.9600
vn 0.3050 -0.9488 0.0817
vn 0.1913 -0.2534 0.9483
vn -0.2260 -0.1559 0.9616
vn 0.5693 -0.2964 -0.7669
vn 0.0323 -0.4973 0.8670
vn 0.0306 -0.4969 0.8672
vn -0.2217 -0.1377 0.9653
vn 0.2053 -0.2156 0.9547
vn 0.3039 0.7580 -0.5772
vn 0.8607 -0.2939 0.4157
vn -0.9844 -0.1750 -0.0201
vn -0.8973 -0.1745 0.4056
vn -0.1815 -0.0459 -0.9823
vn -0.2827 -0.2187 -0.9339
vn 0.8552 0.3539 -0.3787
vn 0.9396 0.3408 0.0313
vn 0.7392 0.4888 0.4633
vn -0.5578 -0.0803 -0.8260
vn 0.5679 0.6725 0.4746
vt 0.000000 0.000000
s 1
f 74/1/1 105/1/2 82/1/3 75/1/4
f 1/1/5 4/1/6 2/1/7
f 74/1/1 75/1/4 65/1/8 66/1/9
f 1/1/5 5/1/10 4/1/6
f 2/1/7 4/1/6 6/1/11
f 921/1/12 881/1/13 897/1/14 925/1/15
f 412/1/16 415/1/17 408/1/18 409/1/19
f 6/1/11 4/1/6 9/1/20
f 308/1/21 326/1/22 314/1/23 309/1/24
f 104/1/25 105/1/2 74/1/1 98/1/26
f 141/1/27 163/1/28 147/1/29 142/1/30
f 9/1/20 4/1/6 14/1/31
f 147/1/29 148/1/32 119/1/33 142/1/30
f 373/1/34 397/1/35 377/1/36 374/1/37
f 97/1/38 126/1/39 104/1/25 98/1/26
f 3/1/40 26/1/41 5/1/10 1/1/5
f 133/1/42 134/1/43 104/1/25 126/1/39
f 331/1/44 332/1/45 314/1/23 326/1/22
f 14/1/31 4/1/6 20/1/46
f 170/1/47 171/1/48 147/1/29 163/1/28
f 914/1/49 921/1/12 908/1/50 902/1/51
f 125/1/52 126/1/39 97/1/38 118/1/53
f 97/1/38 98/1/26 67/1/54 90/1/55
f 67/1/54 98/1/26 74/1/1 66/1/9
f 20/1/46 4/1/6 27/1/56
f 193/1/57 301/1/58 187/1/59 188/1/60
f 170/1/47 189/1/61 177/1/62 171/1/48
f 155/1/63 163/1/28 141/1/27 150/1/64
f 155/1/63 176/1/65 170/1/47 163/1/28
f 363/1/66 459/1/67 345/1/68 358/1/69
f 38/1/70 46/1/71 30/1/72 33/1/73
f 70/1/74 90/1/55 67/1/54 68/1/75
f 5/1/10 34/1/76 4/1/6
f 357/1/77 384/1/78 363/1/66 358/1/69
f 27/1/56 4/1/6 35/1/79
f 32/1/80 33/1/73 25/1/81 31/1/82
f 64/1/83 71/1/84 56/1/85 55/1/86
f 56/1/85 69/1/87 63/1/88 54/1/89
f 63/1/88 68/1/75 61/1/90 62/1/91
f 34/1/76 40/1/92 4/1/6
f 53/1/93 62/1/91 61/1/90 60/1/94
f 155/1/63 150/1/64 149/1/95 154/1/96
f 265/1/97 282/1/98 277/1/99 269/1/100
f 70/1/74 68/1/75 63/1/88 69/1/87
f 117/1/101 118/1/53 89/1/102 111/1/103
f 633/1/104 594/1/105 593/1/106 624/1/107
f 677/1/108 705/1/109 685/1/110 678/1/111
f 236/1/112 362/1/113 361/1/114 356/1/115
f 125/1/52 144/1/116 133/1/42 126/1/39
f 40/1/92 48/1/117 4/1/6
f 76/1/118 83/1/119 70/1/74 69/1/87
f 498/1/120 502/1/121 503/1/122 500/1/123
f 204/1/124 235/1/125 234/1/126 227/1/127
f 47/1/128 48/1/117 40/1/92 46/1/71
f 48/1/117 53/1/93 4/1/6
f 283/1/129 315/1/130 289/1/131 284/1/132
f 179/1/133 212/1/134 213/1/135 207/1/136
f 127/1/137 165/1/138 135/1/139 128/1/140
f 84/1/141 111/1/103 89/1/102 83/1/119
f 110/1/142 111/1/103 84/1/141 103/1/143
f 53/1/93 60/1/94 4/1/6
f 24/1/144 39/1/145 17/1/146 16/1/147
f 38/1/70 54/1/89 47/1/128 46/1/71
f 56/1/85 54/1/89 38/1/70 55/1/86
f 306/1/148 419/1/149 313/1/150 307/1/151
f 308/1/21 309/1/24 276/1/152 303/1/153
f 89/1/102 90/1/55 70/1/74 83/1/119
f 56/1/85 71/1/84 76/1/118 69/1/87
f 60/1/94 65/1/8 4/1/6
f 30/1/72 34/1/76 5/1/10 26/1/41
f 25/1/81 33/1/73 30/1/72 26/1/41
f 32/1/80 55/1/86 38/1/70 33/1/73
f 902/1/51 908/1/50 903/1/154 895/1/155
f 84/1/141 83/1/119 76/1/118 81/1/156
f 401/1/157 409/1/19 391/1/158 397/1/35
f 192/1/159 392/1/160 381/1/161 382/1/162
f 65/1/8 75/1/4 4/1/6
f 774/1/163 820/1/164 764/1/165 765/1/166
f 64/1/83 55/1/86 32/1/80 59/1/167
f 64/1/83 72/1/168 73/1/169 71/1/84
f 80/1/170 103/1/143 84/1/141 81/1/156
f 49/1/171 288/1/172 57/1/173 50/1/174
f 78/1/175 79/1/176 73/1/169 72/1/168
f 429/1/177 431/1/178 424/1/179 425/1/180
f 75/1/4 82/1/3 4/1/6
f 58/1/181 72/1/168 64/1/83 59/1/167
f 901/1/182 914/1/49 902/1/51 894/1/183
f 57/1/173 288/1/172 274/1/184 275/1/185
f 744/1/186 748/1/187 746/1/188 644/1/189
f 844/1/190 851/1/191 857/1/192 850/1/193
f 102/1/194 103/1/143 80/1/170 96/1/195
f 37/1/196 59/1/167 32/1/80 31/1/82
f 722/1/197 727/1/198 716/1/199 715/1/200
f 611/1/201 620/1/202 621/1/203 612/1/204
f 789/1/205 788/1/206 779/1/207 780/1/208
f 279/1/209 521/1/210 271/1/211 272/1/212
f 817/1/213 818/1/214 825/1/215 824/1/216
f 666/1/217 672/1/218 642/1/219 641/1/220
f 17/1/146 39/1/145 37/1/196 31/1/82
f 237/1/221 251/1/222 230/1/223 231/1/224
f 169/1/225 200/1/226 199/1/227 194/1/228
f 101/1/229 94/1/230 93/1/231 100/1/232
f 807/1/233 808/1/234 816/1/235 815/1/236
f 91/1/237 275/1/185 137/1/238 129/1/239
f 891/1/240 889/1/241 886/1/242 813/1/243
f 275/1/185 91/1/237 85/1/244 57/1/173
f 410/1/245 412/1/16 409/1/19 401/1/157
f 182/1/246 201/1/247 195/1/248 189/1/61
f 99/1/249 122/1/250 106/1/251 100/1/232
f 130/1/252 122/1/250 99/1/249 129/1/239
f 108/1/253 146/1/254 114/1/255 107/1/256
f 169/1/225 194/1/228 174/1/257 167/1/258
f 603/1/259 611/1/201 612/1/204 604/1/260
f 7/1/261 11/1/262 10/1/263 8/1/264
f 7/1/261 8/1/264 2/1/7 6/1/11
f 82/1/3 113/1/265 4/1/6
f 106/1/251 109/1/266 101/1/229 100/1/232
f 704/1/267 731/1/268 738/1/269 634/1/270
f 145/1/271 205/1/272 204/1/124 198/1/273
f 131/1/274 224/1/275 223/1/276 216/1/277
f 614/1/278 592/1/279 591/1/280 613/1/281
f 174/1/257 194/1/228 193/1/57 188/1/60
f 9/1/20 13/1/282 7/1/261 6/1/11
f 113/1/265 119/1/33 4/1/6
f 99/1/249 100/1/232 93/1/231 92/1/283
f 864/1/284 871/1/285 870/1/286 863/1/287
f 210/1/288 235/1/125 204/1/124 205/1/272
f 44/1/289 39/1/145 24/1/144 43/1/290
f 695/1/291 689/1/292 664/1/293 671/1/294
f 880/1/295 879/1/296 854/1/297 873/1/298
f 630/1/299 638/1/300 639/1/301 631/1/302
f 151/1/303 152/1/304 114/1/255 146/1/254
f 872/1/305 878/1/306 875/1/307 868/1/308
f 131/1/274 216/1/277 138/1/309 132/1/310
f 139/1/311 140/1/312 116/1/313 132/1/310
f 19/1/314 42/1/315 24/1/144 16/1/147
f 826/1/316 834/1/317 833/1/318 832/1/319
f 58/1/181 77/1/320 78/1/175 72/1/168
f 49/1/171 50/1/174 44/1/289 43/1/290
f 151/1/303 191/1/321 158/1/322 152/1/304
f 645/1/323 637/1/324 636/1/325 644/1/189
f 139/1/311 205/1/272 145/1/271 140/1/312
f 123/1/326 231/1/224 230/1/223 224/1/275
f 116/1/313 140/1/312 108/1/253 109/1/266
f 12/1/327 36/1/328 19/1/314 11/1/262
f 7/1/261 13/1/282 12/1/327 11/1/262
f 45/1/329 297/1/330 49/1/171 43/1/290
f 45/1/329 43/1/290 24/1/144 42/1/315
f 139/1/311 211/1/331 210/1/288 205/1/272
f 138/1/309 211/1/331 139/1/311 132/1/310
f 15/1/332 21/1/333 12/1/327 13/1/282
f 29/1/334 311/1/335 41/1/336 36/1/328
f 119/1/33 148/1/32 4/1/6
f 41/1/336 305/1/337 45/1/329 42/1/315
f 41/1/336 42/1/315 19/1/314 36/1/328
f 101/1/229 109/1/266 108/1/253 107/1/256
f 690/1/338 711/1/339 724/1/340 698/1/341
f 20/1/46 23/1/342 15/1/332 14/1/31
f 148/1/32 153/1/343 4/1/6
f 306/1/148 425/1/180 424/1/179 419/1/149
f 22/1/344 317/1/345 29/1/334 21/1/333
f 413/1/346 415/1/17 412/1/16 411/1/347
f 101/1/229 107/1/256 95/1/348 94/1/230
f 869/1/349 876/1/350 872/1/305 865/1/351
f 501/1/352 506/1/353 505/1/354 502/1/121
f 370/1/355 386/1/356 385/1/357 380/1/358
f 848/1/359 866/1/360 873/1/298 854/1/297
f 173/1/361 168/1/362 166/1/363 172/1/364
f 127/1/137 128/1/140 110/1/142 121/1/365
f 680/1/366 681/1/367 673/1/368 665/1/369
f 49/1/171 297/1/330 295/1/370 288/1/172
f 304/1/371 312/1/372 295/1/370 297/1/330
f 295/1/370 296/1/373 274/1/184 288/1/172
f 179/1/133 207/1/136 173/1/361 172/1/364
f 41/1/336 311/1/335 310/1/374 305/1/337
f 29/1/334 36/1/328 12/1/327 21/1/333
f 295/1/370 312/1/372 302/1/375 296/1/373
f 197/1/376 219/1/377 190/1/378 191/1/321
f 318/1/379 319/1/380 302/1/375 312/1/372
f 348/1/381 327/1/382 320/1/383 310/1/374
f 28/1/384 23/1/342 20/1/46 27/1/56
f 345/1/68 467/1/385 328/1/386 340/1/387
f 153/1/343 178/1/388 4/1/6
f 732/1/389 733/1/390 726/1/391 725/1/392
f 274/1/184 296/1/373 267/1/393 266/1/394
f 728/1/395 736/1/396 727/1/198 722/1/197
f 228/1/397 362/1/113 236/1/112 229/1/398
f 263/1/399 272/1/212 271/1/211 264/1/400
f 748/1/187 754/1/401 750/1/402 746/1/188
f 35/1/79 330/1/403 28/1/384 27/1/56
f 178/1/388 183/1/404 4/1/6
f 342/1/405 343/1/406 323/1/407 335/1/408
f 210/1/288 243/1/409 242/1/410 235/1/125
f 44/1/289 52/1/411 37/1/196 39/1/145
f 814/1/412 813/1/243 805/1/413 806/1/414
f 267/1/393 268/1/415 244/1/416 266/1/394
f 95/1/348 96/1/195 87/1/417 94/1/230
f 164/1/418 172/1/364 166/1/363 165/1/138
f 149/1/95 150/1/64 133/1/42 144/1/116
f 597/1/419 605/1/420 606/1/421 598/1/422
f 329/1/423 335/1/408 323/1/407 324/1/424
f 28/1/384 330/1/403 329/1/423 324/1/424
f 78/1/175 88/1/425 87/1/417 79/1/176
f 838/1/426 907/1/427 829/1/428 830/1/429
f 606/1/421 615/1/430 616/1/431 607/1/432
f 91/1/237 129/1/239 99/1/249 92/1/283
f 35/1/79 338/1/433 334/1/434 330/1/403
f 334/1/434 336/1/435 329/1/423 330/1/403
f 183/1/404 203/1/436 4/1/6
f 25/1/81 26/1/41 3/1/40 18/1/437
f 123/1/326 124/1/438 106/1/251 122/1/250
f 638/1/300 646/1/439 647/1/440 639/1/301
f 802/1/441 812/1/442 844/1/190 836/1/443
f 329/1/423 336/1/435 337/1/444 335/1/408
f 337/1/444 371/1/445 342/1/405 335/1/408
f 203/1/436 209/1/446 4/1/6
f 344/1/447 351/1/448 334/1/434 338/1/433
f 130/1/252 231/1/224 123/1/326 122/1/250
f 868/1/308 875/1/307 874/1/449 867/1/450
f 267/1/393 303/1/153 276/1/152 268/1/415
f 773/1/451 761/1/452 783/1/453 782/1/454
f 137/1/238 238/1/455 130/1/252 129/1/239
f 230/1/223 245/1/456 223/1/276 224/1/275
f 138/1/309 218/1/457 215/1/458 211/1/331
f 518/1/459 521/1/210 279/1/209 517/1/460
f 755/1/461 756/1/462 745/1/463 749/1/464
f 352/1/465 336/1/435 334/1/434 351/1/448
f 314/1/23 332/1/45 321/1/466 315/1/130
f 215/1/458 243/1/409 210/1/288 211/1/331
f 145/1/271 146/1/254 108/1/253 140/1/312
f 711/1/339 690/1/338 682/1/467 681/1/367
f 217/1/468 232/1/469 225/1/470 218/1/457
f 476/1/471 499/1/472 484/1/473 475/1/474
f 588/1/475 589/1/476 587/1/477 583/1/478
f 893/1/479 905/1/480 900/1/481 845/1/482
f 495/1/483 496/1/484 490/1/485 494/1/486
f 209/1/446 229/1/398 4/1/6
f 123/1/326 224/1/275 131/1/274 124/1/438
f 130/1/252 238/1/455 237/1/221 231/1/224
f 110/1/142 128/1/140 117/1/101 111/1/103
f 258/1/487 260/1/488 252/1/489 251/1/222
f 355/1/490 360/1/491 350/1/492 349/1/493
f 229/1/398 236/1/112 4/1/6
f 283/1/129 284/1/132 277/1/99 282/1/98
f 406/1/494 410/1/245 401/1/157 402/1/495
f 95/1/348 115/1/496 102/1/194 96/1/195
f 217/1/468 239/1/497 240/1/498 232/1/469
f 719/1/499 720/1/500 714/1/501 713/1/502
f 190/1/378 212/1/134 179/1/133 184/1/503
f 785/1/504 784/1/505 775/1/506 776/1/507
f 811/1/508 841/1/509 835/1/510 810/1/511
f 639/1/301 647/1/440 648/1/512 640/1/513
f 241/1/514 248/1/515 242/1/410 243/1/409
f 692/1/516 605/1/420 651/1/517 684/1/518
f 443/1/519 470/1/520 451/1/521 444/1/522
f 73/1/169 81/1/156 76/1/118 71/1/84
f 353/1/523 379/1/524 357/1/77 354/1/525
f 249/1/526 250/1/527 242/1/410 248/1/515
f 536/1/528 531/1/529 532/1/530 535/1/531
f 456/1/532 463/1/533 462/1/534 457/1/535
f 583/1/478 587/1/477 584/1/536 580/1/537
f 440/1/538 509/1/539 454/1/540 447/1/541
f 197/1/376 227/1/127 226/1/542 219/1/377
f 255/1/543 257/1/544 234/1/126 250/1/527
f 249/1/526 256/1/545 255/1/543 250/1/527
f 481/1/546 483/1/547 299/1/548 474/1/549
f 257/1/544 220/1/550 219/1/377 226/1/542
f 190/1/378 219/1/377 220/1/550 212/1/134
f 473/1/551 482/1/552 481/1/546 474/1/549
f 613/1/281 622/1/553 623/1/554 614/1/278
f 263/1/399 264/1/400 255/1/543 256/1/545
f 393/1/555 444/1/522 387/1/556 388/1/557
f 180/1/558 181/1/559 160/1/560 175/1/561
f 304/1/371 320/1/383 318/1/379 312/1/372
f 327/1/382 333/1/562 318/1/379 320/1/383
f 173/1/361 207/1/136 206/1/563 200/1/226
f 220/1/550 273/1/564 213/1/135 212/1/134
f 187/1/59 307/1/151 192/1/159 186/1/565
f 323/1/407 343/1/406 316/1/566 317/1/345
f 271/1/211 273/1/564 220/1/550 264/1/400
f 120/1/567 121/1/365 102/1/194 115/1/496
f 725/1/392 726/1/391 720/1/500 719/1/499
f 418/1/568 415/1/17 413/1/346 417/1/569
f 271/1/211 521/1/210 280/1/570 273/1/564
f 665/1/369 664/1/293 689/1/292 680/1/366
f 206/1/563 287/1/571 199/1/227 200/1/226
f 505/1/354 511/1/572 512/1/573 508/1/574
f 9/1/20 14/1/31 15/1/332 13/1/282
f 228/1/397 369/1/575 368/1/576 362/1/113
f 473/1/551 474/1/549 328/1/386 467/1/385
f 285/1/577 290/1/578 291/1/579
f 285/1/577 292/1/580 290/1/578
f 195/1/248 214/1/581 202/1/582 196/1/583
f 135/1/139 161/1/584 143/1/585 136/1/586
f 80/1/170 81/1/156 73/1/169 79/1/176
f 777/1/587 776/1/507 767/1/588 768/1/589
f 291/1/579 290/1/578 298/1/590
f 448/1/591 492/1/592 442/1/593 441/1/594
f 440/1/538 447/1/541 429/1/177 433/1/595
f 331/1/44 354/1/525 339/1/596 332/1/45
f 61/1/90 66/1/9 65/1/8 60/1/94
f 781/1/597 780/1/208 771/1/598 772/1/599
f 174/1/257 175/1/561 157/1/600 167/1/258
f 10/1/263 11/1/262 19/1/314 16/1/147
f 221/1/601 376/1/602 375/1/603 369/1/575
f 280/1/570 521/1/210 518/1/459 520/1/604
f 471/1/605 472/1/606 466/1/607 465/1/608
f 51/1/609 85/1/244 86/1/610 77/1/320
f 827/1/611 842/1/612 834/1/317 826/1/316
f 149/1/95 156/1/613 157/1/600 154/1/96
f 162/1/614 167/1/258 157/1/600 156/1/613
f 347/1/615 365/1/616 364/1/617 359/1/618
f 339/1/596 358/1/69 345/1/68 340/1/387
f 750/1/402 756/1/462 755/1/461 741/1/619
f 10/1/263 18/1/437 3/1/40 8/1/264
f 157/1/600 175/1/561 160/1/560 154/1/96
f 160/1/560 176/1/65 155/1/63 154/1/96
f 166/1/363 161/1/584 135/1/139 165/1/138
f 302/1/375 319/1/380 308/1/21 303/1/153
f 373/1/34 374/1/37 352/1/465 367/1/620
f 352/1/465 374/1/37 337/1/444 336/1/435
f 182/1/246 176/1/65 160/1/560 181/1/559
f 182/1/246 189/1/61 170/1/47 176/1/65
f 804/1/621 803/1/622 795/1/623 796/1/624
f 626/1/625 634/1/270 635/1/626 627/1/627
f 594/1/105 633/1/104 643/1/628 595/1/629
f 875/1/307 882/1/630 881/1/13 874/1/449
f 357/1/77 358/1/69 339/1/596 354/1/525
f 733/1/390 732/1/389 739/1/631 737/1/632
f 28/1/384 324/1/424 22/1/344 23/1/342
f 30/1/72 46/1/71 40/1/92 34/1/76
f 420/1/633 423/1/634 418/1/568 417/1/569
f 213/1/135 281/1/635 206/1/563 207/1/136
f 892/1/636 899/1/637 893/1/479 852/1/638
f 208/1/639 376/1/602 221/1/601 214/1/581
f 466/1/607 467/1/385 345/1/68 459/1/67
f 35/1/79 4/1/6 338/1/433
f 670/1/640 678/1/111 679/1/641 671/1/294
f 221/1/601 222/1/642 202/1/582 214/1/581
f 685/1/110 700/1/643 693/1/644 686/1/645
f 691/1/646 699/1/647 615/1/430 692/1/516
f 828/1/648 904/1/649 821/1/650 822/1/651
f 293/1/652 294/1/653 199/1/227 287/1/571
f 338/1/433 4/1/6 344/1/447
f 887/1/654 892/1/636 852/1/638 853/1/655
f 313/1/150 414/1/656 398/1/657 392/1/160
f 377/1/36 397/1/35 391/1/158 386/1/356
f 22/1/344 324/1/424 323/1/407 317/1/345
f 642/1/219 650/1/658 623/1/554 632/1/659
f 208/1/639 382/1/162 381/1/161 376/1/602
f 344/1/447 4/1/6 349/1/493
f 228/1/397 229/1/398 209/1/446 222/1/642
f 221/1/601 369/1/575 228/1/397 222/1/642
f 112/1/660 142/1/30 119/1/33 113/1/265
f 555/1/661 559/1/662 556/1/663 552/1/664
f 845/1/482 900/1/481 838/1/426 837/1/665
f 276/1/152 309/1/24 283/1/129 282/1/98
f 166/1/363 168/1/362 162/1/614 161/1/584
f 349/1/493 4/1/6 355/1/490
f 4/1/6 356/1/115 355/1/490
f 4/1/6 236/1/112 356/1/115
f 736/1/396 743/1/666 742/1/667 727/1/198
f 443/1/519 444/1/522 393/1/555 436/1/668
f 177/1/62 178/1/388 153/1/343 171/1/48
f 361/1/114 360/1/491 355/1/490 356/1/115
f 484/1/473 499/1/472 498/1/120 494/1/486
f 143/1/585 161/1/584 162/1/614 156/1/613
f 133/1/42 150/1/64 141/1/27 134/1/43
f 373/1/34 402/1/495 401/1/157 397/1/35
f 368/1/576 407/1/669 361/1/114 362/1/113
f 17/1/146 31/1/82 25/1/81 18/1/437
f 366/1/670 402/1/495 373/1/34 367/1/620
f 366/1/670 367/1/620 350/1/492 360/1/491
f 162/1/614 168/1/362 169/1/225 167/1/258
f 801/1/671 811/1/508 810/1/511 809/1/672
f 375/1/603 404/1/673 368/1/576 369/1/575
f 286/1/674 287/1/571 206/1/563 281/1/635
f 321/1/466 322/1/675 289/1/131 315/1/130
f 366/1/670 407/1/669 406/1/494 402/1/495
f 834/1/317 858/1/676 855/1/677 833/1/318
f 412/1/16 410/1/245 403/1/678 411/1/347
f 381/1/161 399/1/679 375/1/603 376/1/602
f 518/1/459 517/1/460 510/1/680 514/1/681
f 276/1/152 282/1/98 265/1/97 268/1/415
f 15/1/332 23/1/342 22/1/344 21/1/333
f 337/1/444 374/1/37 377/1/36 371/1/445
f 387/1/556 452/1/682 363/1/66 384/1/78
f 432/1/683 460/1/684 437/1/685 430/1/686
f 560/1/687 564/1/688 559/1/662 555/1/661
f 353/1/523 354/1/525 331/1/44 346/1/689
f 377/1/36 386/1/356 370/1/355 371/1/445
f 507/1/690 514/1/681 510/1/680 506/1/353
f 316/1/566 348/1/381 310/1/374 311/1/335
f 265/1/97 269/1/100 261/1/691 260/1/488
f 398/1/657 414/1/656 413/1/346 411/1/347
f 660/1/692 718/1/693 668/1/694 661/1/695
f 671/1/294 664/1/293 663/1/696 670/1/640
f 400/1/697 436/1/668 393/1/555 396/1/698
f 265/1/97 260/1/488 258/1/487 259/1/699
f 585/1/700 586/1/701 582/1/702 581/1/703
f 177/1/62 196/1/583 183/1/404 178/1/388
f 513/1/704 520/1/604 518/1/459 514/1/681
f 426/1/705 435/1/706 434/1/707 427/1/708
f 408/1/18 427/1/708 400/1/697 405/1/709
f 418/1/568 423/1/634 422/1/710 421/1/711
f 403/1/678 404/1/673 375/1/603 399/1/679
f 741/1/619 755/1/461 734/1/712 659/1/713
f 721/1/714 740/1/715 725/1/392 719/1/499
f 498/1/120 500/1/123 495/1/483 494/1/486
f 403/1/678 410/1/245 406/1/494 404/1/673
f 406/1/494 407/1/669 368/1/576 404/1/673
f 143/1/585 144/1/116 125/1/52 136/1/586
f 753/1/716 758/1/717 754/1/401 748/1/187
f 328/1/386 474/1/549 299/1/548 322/1/675
f 434/1/707 478/1/718 443/1/519 436/1/668
f 277/1/99 278/1/719 270/1/720 269/1/100
f 540/1/721 544/1/722 543/1/723 539/1/724
f 364/1/617 372/1/725 341/1/726 359/1/618
f 195/1/248 196/1/583 177/1/62 189/1/61
f 112/1/660 113/1/265 82/1/3 105/1/2
f 737/1/632 739/1/631 736/1/396 728/1/395
f 364/1/617 380/1/358 378/1/727 372/1/725
f 729/1/728 724/1/340 711/1/339 703/1/729
f 484/1/473 494/1/486 490/1/485 485/1/730
f 428/1/731 449/1/732 448/1/591 441/1/594
f 662/1/733 669/1/734 670/1/640 663/1/696
f 454/1/540 469/1/735 464/1/736 461/1/737
f 270/1/720 262/1/738 261/1/691 269/1/100
f 314/1/23 315/1/130 283/1/129 309/1/24
f 510/1/680 517/1/460 516/1/739 511/1/572
f 545/1/740 549/1/741 546/1/742 542/1/743
f 147/1/29 171/1/48 153/1/343 148/1/32
f 422/1/710 441/1/594 442/1/593 435/1/706
f 293/1/652 515/1/744 440/1/538 433/1/595
f 897/1/14 898/1/745 927/1/746 925/1/15
f 350/1/492 351/1/448 344/1/447 349/1/493
f 580/1/537 584/1/536 579/1/747 575/1/748
f 339/1/596 340/1/387 321/1/466 332/1/45
f 234/1/126 257/1/544 226/1/542 227/1/127
f 428/1/731 441/1/594 422/1/710 423/1/634
f 557/1/749 561/1/750 558/1/751 554/1/752
f 497/1/753 492/1/592 448/1/591 491/1/754
f 434/1/707 436/1/668 400/1/697 427/1/708
f 751/1/755 757/1/756 754/1/401 758/1/717
f 437/1/685 460/1/684 456/1/532 453/1/757
f 513/1/704 514/1/681 507/1/690 509/1/539
f 242/1/410 250/1/527 234/1/126 235/1/125
f 468/1/758 475/1/474 462/1/534 463/1/533
f 390/1/759 396/1/698 393/1/555 388/1/557
f 480/1/760 482/1/552 473/1/551 472/1/606
f 458/1/761 459/1/67 363/1/66 452/1/682
f 442/1/593 493/1/762 477/1/763 478/1/718
f 300/1/764 301/1/58 193/1/57 294/1/653
f 454/1/540 509/1/539 507/1/690 504/1/765
f 420/1/633 446/1/766 428/1/731 423/1/634
f 669/1/734 677/1/108 678/1/111 670/1/640
f 456/1/532 457/1/535 450/1/767 453/1/757
f 447/1/541 454/1/540 439/1/768
f 481/1/546 489/1/769 298/1/590 483/1/547
f 464/1/736 463/1/533 456/1/532 460/1/684
f 464/1/736 460/1/684 432/1/683 461/1/737
f 537/1/770 541/1/771 538/1/772 533/1/773
f 484/1/473 485/1/730 462/1/534 475/1/474
f 383/1/774 388/1/557 387/1/556 384/1/78
f 439/1/768 454/1/540 461/1/737
f 424/1/179 430/1/686 416/1/775 419/1/149
f 422/1/710 435/1/706 426/1/705 421/1/711
f 390/1/759 388/1/557 383/1/774 389/1/776
f 437/1/685 438/1/777 416/1/775 430/1/686
f 383/1/774 384/1/78 357/1/77 379/1/524
f 541/1/771 545/1/740 542/1/743 538/1/772
f 29/1/334 317/1/345 316/1/566 311/1/335
f 458/1/761 465/1/608 466/1/607 459/1/67
f 378/1/727 389/1/776 383/1/774 379/1/524
f 416/1/775 417/1/569 413/1/346 414/1/656
f 289/1/131 322/1/675 299/1/548 292/1/580
f 313/1/150 392/1/160 192/1/159 307/1/151
f 839/1/778 837/1/665 831/1/779 832/1/319
f 468/1/758 469/1/735 476/1/471
f 477/1/763 493/1/762 486/1/780 479/1/781
f 468/1/758 476/1/471 475/1/474
f 523/1/782 528/1/783 527/1/784 524/1/785
f 488/1/786 482/1/552 480/1/760 487/1/787
f 454/1/540 504/1/765 476/1/471 469/1/735
f 400/1/697 396/1/698 395/1/788 394/1/789
f 443/1/519 478/1/718 477/1/763 470/1/520
f 255/1/543 264/1/400 220/1/550 257/1/544
f 416/1/775 438/1/777 420/1/633 417/1/569
f 483/1/547 298/1/590 290/1/578
f 451/1/521 465/1/608 458/1/761 452/1/682
f 476/1/471 504/1/765 501/1/352 499/1/472
f 528/1/783 532/1/530 531/1/529 527/1/784
f 524/1/785 525/1/790 522/1/791 523/1/782
f 488/1/786 489/1/769 481/1/546 482/1/552
f 395/1/788 396/1/698 390/1/759 389/1/776
f 529/1/792 534/1/793 533/1/773 530/1/794
f 437/1/685 453/1/757 445/1/795 438/1/777
f 252/1/489 260/1/488 261/1/691 253/1/796
f 385/1/357 405/1/709 400/1/697 394/1/789
f 445/1/795 453/1/757 450/1/767 446/1/766
f 237/1/221 259/1/699 258/1/487 251/1/222
f 668/1/694 712/1/797 677/1/108 669/1/734
f 306/1/148 307/1/151 187/1/59 301/1/58
f 445/1/795 446/1/766 420/1/633 438/1/777
f 921/1/12 925/1/15 915/1/798 908/1/50
f 51/1/609 77/1/320 58/1/181 52/1/411
f 141/1/27 142/1/30 112/1/660 134/1/43
f 347/1/615 348/1/381 316/1/566 343/1/406
f 429/1/177 447/1/541 439/1/768 431/1/178
f 462/1/534 485/1/730 455/1/799 457/1/535
f 261/1/691 262/1/738 254/1/800 253/1/796
f 2/1/7 8/1/264 3/1/40 1/1/5
f 286/1/674 515/1/744 293/1/652 287/1/571
f 424/1/179 431/1/178 432/1/683 430/1/686
f 439/1/768 461/1/737 432/1/683 431/1/178
f 451/1/521 470/1/520 471/1/605 465/1/608
f 471/1/605 479/1/781 480/1/760 472/1/606
f 511/1/572 516/1/739 512/1/573
f 516/1/739 517/1/460 279/1/209
f 289/1/131 292/1/580 285/1/577 284/1/132
f 300/1/764 425/1/180 306/1/148 301/1/58
f 918/1/801 923/1/802 924/1/803 920/1/804
f 512/1/573 516/1/739 519/1/805
f 516/1/739 279/1/209 519/1/805
f 204/1/124 227/1/127 197/1/376 198/1/273
f 563/1/806 567/1/807 564/1/688 560/1/687
f 522/1/791 525/1/790 526/1/808
f 395/1/788 389/1/776 378/1/727 394/1/789
f 525/1/790 529/1/792 526/1/808
f 526/1/808 529/1/792 530/1/794
f 455/1/799 491/1/754 448/1/591 449/1/732
f 299/1/548 483/1/547 290/1/578 292/1/580
f 478/1/718 434/1/707 435/1/706 442/1/593
f 533/1/773 534/1/793 537/1/770
f 418/1/568 421/1/711 408/1/18 415/1/17
f 244/1/416 268/1/415 265/1/97 259/1/699
f 450/1/767 457/1/535 455/1/799 449/1/732
f 712/1/797 713/1/502 705/1/109 677/1/108
f 490/1/485 491/1/754 455/1/799 485/1/730
f 62/1/91 47/1/128 54/1/89 63/1/88
f 544/1/722 548/1/809 543/1/723
f 568/1/810 571/1/811 567/1/807 563/1/806
f 823/1/812 824/1/216 830/1/429 829/1/428
f 550/1/813 553/1/814 554/1/752
f 313/1/150 419/1/149 416/1/775 414/1/656
f 553/1/814 557/1/749 554/1/752
f 490/1/485 496/1/484 497/1/753 491/1/754
f 507/1/690 506/1/353 501/1/352 504/1/765
f 558/1/751 561/1/750 562/1/815
f 589/1/476 588/1/475 586/1/701 585/1/700
f 561/1/750 565/1/816 562/1/815
f 562/1/815 565/1/816 566/1/817
f 486/1/780 487/1/787 480/1/760 479/1/781
f 565/1/816 569/1/818 566/1/817
f 566/1/817 569/1/818 570/1/819
f 568/1/810 572/1/820 571/1/811
f 569/1/818 573/1/821 570/1/819
f 570/1/819 573/1/821 574/1/822
f 572/1/820 575/1/748 576/1/823
f 572/1/820 576/1/823 571/1/811
f 573/1/821 577/1/824 574/1/822
f 574/1/822 577/1/824 578/1/825
f 575/1/748 579/1/747 576/1/823
f 426/1/705 427/1/708 408/1/18 421/1/711
f 577/1/824 581/1/703 578/1/825
f 578/1/825 581/1/703 582/1/702
f 464/1/736 469/1/735 468/1/758 463/1/533
f 479/1/781 471/1/605 470/1/520 477/1/763
f 549/1/741 553/1/814 550/1/813 546/1/742
f 590/1/826 591/1/280 592/1/279
f 590/1/826 592/1/279 593/1/106
f 590/1/826 593/1/106 594/1/105
f 590/1/826 594/1/105 595/1/629
f 590/1/826 595/1/629 596/1/827
f 590/1/826 596/1/827 597/1/419
f 590/1/826 597/1/419 598/1/422
f 590/1/826 598/1/422 599/1/828
f 590/1/826 599/1/828 600/1/829
f 590/1/826 600/1/829 601/1/830
f 590/1/826 601/1/830 602/1/831
f 590/1/826 602/1/831 603/1/259
f 590/1/826 604/1/260 591/1/280
f 590/1/826 603/1/259 604/1/260
f 921/1/12 914/1/49 874/1/449 881/1/13
f 766/1/832 767/1/588 776/1/507 775/1/506
f 135/1/139 136/1/586 117/1/101 128/1/140
f 778/1/833 777/1/587 768/1/589 769/1/834
f 370/1/355 380/1/358 364/1/617 365/1/616
f 779/1/207 778/1/833 769/1/834 770/1/835
f 701/1/836 707/1/837 687/1/838 694/1/839
f 782/1/454 781/1/597 772/1/599 773/1/451
f 708/1/840 709/1/841 707/1/837 701/1/836
f 793/1/842 783/1/453 761/1/452 760/1/843
f 644/1/189 746/1/188 652/1/844 645/1/323
f 786/1/845 785/1/504 776/1/507 777/1/587
f 777/1/587 778/1/833 787/1/846 786/1/845
f 246/1/847 247/1/848 240/1/498 239/1/497
f 788/1/206 787/1/846 778/1/833 779/1/207
f 790/1/849 789/1/205 780/1/208 781/1/597
f 781/1/597 782/1/454 791/1/850 790/1/849
f 246/1/847 239/1/497 223/1/276 245/1/456
f 783/1/453 793/1/842 819/1/851 792/1/852
f 361/1/114 407/1/669 366/1/670 360/1/491
f 785/1/504 786/1/845 795/1/623 794/1/853
f 698/1/341 699/1/647 691/1/646 690/1/338
f 796/1/624 795/1/623 786/1/845 787/1/846
f 788/1/206 789/1/205 798/1/854 797/1/855
f 738/1/269 731/1/268 730/1/856 753/1/716
f 860/1/857 867/1/450 901/1/182 866/1/360
f 382/1/162 185/1/858 186/1/565 192/1/159
f 792/1/852 819/1/851 811/1/508 801/1/671
f 812/1/442 802/1/441 762/1/859 763/1/860
f 158/1/322 159/1/861 120/1/567 152/1/304
f 805/1/413 804/1/621 796/1/624 797/1/855
f 797/1/855 798/1/854 806/1/414 805/1/413
f 807/1/233 806/1/414 798/1/854 799/1/862
f 93/1/231 94/1/230 87/1/417 88/1/425
f 800/1/863 801/1/671 809/1/672 808/1/234
f 674/1/864 675/1/865 672/1/218 666/1/217
f 658/1/866 666/1/217 641/1/220 649/1/867
f 819/1/851 836/1/443 841/1/509 811/1/508
f 820/1/164 812/1/442 763/1/860 764/1/165
f 637/1/324 629/1/868 628/1/869 636/1/325
f 815/1/236 814/1/412 806/1/414 807/1/233
f 710/1/870 717/1/871 696/1/872 702/1/873
f 817/1/213 816/1/235 808/1/234 809/1/672
f 818/1/214 817/1/213 809/1/672 810/1/511
f 784/1/505 871/1/285 864/1/284 859/1/874
f 836/1/443 819/1/851 793/1/842 802/1/441
f 831/1/779 830/1/429 824/1/216 825/1/215
f 814/1/412 815/1/236 822/1/651 821/1/650
f 865/1/351 872/1/305 868/1/308 861/1/875
f 824/1/216 823/1/812 816/1/235 817/1/213
f 607/1/432 616/1/431 617/1/876 608/1/877
f 818/1/214 827/1/611 826/1/316 825/1/215
f 51/1/609 52/1/411 44/1/289 50/1/174
f 835/1/510 843/1/878 842/1/612 827/1/611
f 325/1/879 326/1/22 308/1/21 319/1/380
f 86/1/610 92/1/283 93/1/231 88/1/425
f 180/1/558 188/1/60 187/1/59 186/1/565
f 58/1/181 59/1/167 37/1/196 52/1/411
f 17/1/146 18/1/437 10/1/263 16/1/147
f 890/1/880 897/1/14 881/1/13 882/1/630
f 752/1/881 758/1/717 753/1/716 730/1/856
f 841/1/509 850/1/193 843/1/878 835/1/510
f 164/1/418 165/1/138 127/1/137 159/1/861
f 837/1/665 838/1/426 830/1/429 831/1/779
f 510/1/680 511/1/572 505/1/354 506/1/353
f 840/1/882 839/1/778 832/1/319 833/1/318
f 833/1/318 855/1/677 849/1/883 840/1/882
f 836/1/443 844/1/190 850/1/193 841/1/509
f 801/1/671 800/1/863 791/1/850 792/1/852
f 850/1/193 857/1/192 856/1/884 843/1/878
f 650/1/658 624/1/107 614/1/278 623/1/554
f 851/1/191 844/1/190 812/1/442 820/1/164
f 846/1/885 845/1/482 837/1/665 839/1/778
f 847/1/886 846/1/885 839/1/778 840/1/882
f 840/1/882 849/1/883 848/1/359 847/1/886
f 862/1/887 869/1/349 865/1/351 858/1/676
f 744/1/186 635/1/626 634/1/270 738/1/269
f 857/1/192 864/1/284 863/1/287 856/1/884
f 851/1/191 859/1/874 864/1/284 857/1/192
f 859/1/874 851/1/191 820/1/164 774/1/163
f 853/1/655 852/1/638 846/1/885 847/1/886
f 535/1/531 540/1/721 539/1/724 536/1/528
f 45/1/329 305/1/337 304/1/371 297/1/330
f 391/1/158 409/1/19 408/1/18 405/1/709
f 858/1/676 865/1/351 861/1/875 855/1/677
f 799/1/862 798/1/854 789/1/205 790/1/849
f 241/1/514 243/1/409 215/1/458 233/1/888
f 784/1/505 859/1/874 774/1/163 775/1/506
f 879/1/296 887/1/654 853/1/655 854/1/297
f 57/1/173 85/1/244 51/1/609 50/1/174
f 855/1/677 861/1/875 860/1/857 849/1/883
f 199/1/227 294/1/653 193/1/57 194/1/228
f 114/1/255 115/1/496 95/1/348 107/1/256
f 877/1/889 870/1/286 871/1/285 794/1/853
f 794/1/853 871/1/285 784/1/505 785/1/504
f 873/1/298 894/1/183 888/1/890 880/1/295
f 120/1/567 159/1/861 127/1/137 121/1/365
f 883/1/891 884/1/892 885/1/893 878/1/306
f 878/1/306 885/1/893 882/1/630 875/1/307
f 743/1/666 745/1/463 756/1/462 757/1/756
f 866/1/360 901/1/182 894/1/183 873/1/298
f 894/1/183 902/1/51 895/1/155 888/1/890
f 770/1/835 771/1/598 780/1/208 779/1/207
f 914/1/49 901/1/182 867/1/450 874/1/449
f 863/1/287 870/1/286 876/1/350 869/1/349
f 852/1/638 893/1/479 845/1/482 846/1/885
f 440/1/538 515/1/744 513/1/704 509/1/539
f 117/1/101 136/1/586 125/1/52 118/1/53
f 61/1/90 68/1/75 67/1/54 66/1/9
f 217/1/468 218/1/457 138/1/309 216/1/277
f 501/1/352 502/1/121 498/1/120 499/1/472
f 223/1/276 239/1/497 217/1/468 216/1/277
f 899/1/637 906/1/894 905/1/480 893/1/479
f 286/1/674 520/1/604 513/1/704 515/1/744
f 908/1/50 915/1/798 909/1/895 903/1/154
f 106/1/251 124/1/438 116/1/313 109/1/266
f 877/1/889 883/1/891 876/1/350 870/1/286
f 906/1/894 912/1/896 911/1/897 905/1/480
f 915/1/798 926/1/898 916/1/899 909/1/895
f 876/1/350 883/1/891 878/1/306 872/1/305
f 225/1/470 233/1/888 215/1/458 218/1/457
f 277/1/99 284/1/132 285/1/577 278/1/719
f 912/1/896 919/1/900 918/1/801 911/1/897
f 684/1/518 651/1/517 643/1/628 676/1/901
f 398/1/657 399/1/679 381/1/161 392/1/160
f 341/1/726 372/1/725 353/1/523 346/1/689
f 922/1/902 916/1/899 926/1/898 923/1/802
f 886/1/242 884/1/892 803/1/622 804/1/621
f 923/1/802 918/1/801 919/1/900 922/1/902
f 913/1/903 900/1/481 905/1/480 911/1/897
f 907/1/427 910/1/904 828/1/648 829/1/428
f 925/1/15 927/1/746 926/1/898 915/1/798
f 927/1/746 924/1/803 923/1/802 926/1/898
f 886/1/242 804/1/621 805/1/413 813/1/243
f 293/1/652 433/1/595 300/1/764 294/1/653
f 164/1/418 184/1/503 179/1/133 172/1/364
f 821/1/650 891/1/240 813/1/243 814/1/412
f 208/1/639 214/1/581 195/1/248 201/1/247
f 102/1/194 121/1/365 110/1/142 103/1/143
f 648/1/512 655/1/905 656/1/906 649/1/867
f 913/1/903 911/1/897 918/1/801 920/1/804
f 821/1/650 904/1/649 896/1/907 891/1/240
f 246/1/847 253/1/796 254/1/800 247/1/848
f 318/1/379 333/1/562 325/1/879 319/1/380
f 385/1/357 394/1/789 378/1/727 380/1/358
f 884/1/892 886/1/242 889/1/241 885/1/893
f 889/1/241 891/1/240 896/1/907 890/1/880
f 910/1/904 917/1/908 904/1/649 828/1/648
f 913/1/903 920/1/804 910/1/904 907/1/427
f 280/1/570 520/1/604 286/1/674 281/1/635
f 920/1/804 924/1/803 917/1/908 910/1/904
f 924/1/803 927/1/746 898/1/745 917/1/908
f 890/1/880 896/1/907 898/1/745 897/1/14
f 885/1/893 889/1/241 890/1/880 882/1/630
f 759/1/909 760/1/843 761/1/452
f 759/1/909 762/1/859 760/1/843
f 759/1/909 763/1/860 762/1/859
f 759/1/909 764/1/165 763/1/860
f 759/1/909 765/1/166 764/1/165
f 759/1/909 766/1/832 765/1/166
f 759/1/909 767/1/588 766/1/832
f 759/1/909 768/1/589 767/1/588
f 759/1/909 769/1/834 768/1/589
f 759/1/909 770/1/835 769/1/834
f 759/1/909 771/1/598 770/1/835
f 759/1/909 772/1/599 771/1/598
f 759/1/909 761/1/452 773/1/451
f 759/1/909 773/1/451 772/1/599
f 595/1/629 643/1/628 651/1/517 596/1/827
f 596/1/827 651/1/517 605/1/420 597/1/419
f 842/1/612 862/1/887 858/1/676 834/1/317
f 607/1/432 599/1/828 598/1/422 606/1/421
f 185/1/858 201/1/247 182/1/246 181/1/559
f 600/1/829 608/1/877 609/1/910 601/1/830
f 601/1/830 609/1/910 610/1/911 602/1/831
f 611/1/201 603/1/259 602/1/831 610/1/911
f 230/1/223 251/1/222 252/1/489 245/1/456
f 604/1/260 612/1/204 613/1/281 591/1/280
f 683/1/912 684/1/518 676/1/901 675/1/865
f 692/1/516 615/1/430 606/1/421 605/1/420
f 552/1/664 556/1/663 551/1/913 547/1/914
f 610/1/911 619/1/915 620/1/202 611/1/201
f 618/1/916 609/1/910 608/1/877 617/1/876
f 609/1/910 618/1/916 619/1/915 610/1/911
f 91/1/237 92/1/283 86/1/610 85/1/244
f 707/1/837 702/1/873 688/1/917 687/1/838
f 622/1/553 613/1/281 612/1/204 621/1/203
f 732/1/389 725/1/392 740/1/715 749/1/464
f 808/1/234 807/1/233 799/1/862 800/1/863
f 627/1/627 635/1/626 636/1/325 628/1/869
f 626/1/625 617/1/876 616/1/431 625/1/918
f 617/1/876 626/1/625 627/1/627 618/1/916
f 699/1/647 625/1/918 616/1/431 615/1/430
f 629/1/868 620/1/202 619/1/915 628/1/869
f 620/1/202 629/1/868 630/1/299 621/1/203
f 621/1/203 630/1/299 631/1/302 622/1/553
f 592/1/279 614/1/278 624/1/107 593/1/106
f 699/1/647 698/1/341 704/1/267 625/1/918
f 625/1/918 704/1/267 634/1/270 626/1/625
f 618/1/916 627/1/627 628/1/869 619/1/915
f 861/1/875 868/1/308 867/1/450 860/1/857
f 829/1/428 828/1/648 822/1/651 823/1/812
f 629/1/868 637/1/324 638/1/300 630/1/299
f 810/1/511 835/1/510 827/1/611 818/1/214
f 631/1/302 639/1/301 640/1/513 632/1/659
f 173/1/361 200/1/226 169/1/225 168/1/362
f 280/1/570 281/1/635 213/1/135 273/1/564
f 797/1/855 796/1/624 787/1/846 788/1/206
f 635/1/626 744/1/186 644/1/189 636/1/325
f 856/1/884 863/1/287 869/1/349 862/1/887
f 637/1/324 645/1/323 646/1/439 638/1/300
f 654/1/919 647/1/440 646/1/439 653/1/920
f 158/1/322 191/1/321 190/1/378 184/1/503
f 622/1/553 631/1/302 632/1/659 623/1/554
f 760/1/843 762/1/859 802/1/441 793/1/842
f 158/1/322 184/1/503 164/1/418 159/1/861
f 682/1/467 683/1/912 675/1/865 674/1/864
f 645/1/323 652/1/844 653/1/920 646/1/439
f 114/1/255 152/1/304 120/1/567 115/1/496
f 647/1/440 654/1/919 655/1/905 648/1/512
f 137/1/238 275/1/185 274/1/184 266/1/394
f 649/1/867 641/1/220 640/1/513 648/1/512
f 746/1/188 750/1/402 741/1/619 652/1/844
f 652/1/844 741/1/619 659/1/713 653/1/920
f 653/1/920 659/1/713 660/1/692 654/1/919
f 654/1/919 660/1/692 661/1/695 655/1/905
f 655/1/905 661/1/695 662/1/733 656/1/906
f 663/1/696 657/1/921 656/1/906 662/1/733
f 657/1/921 658/1/866 649/1/867 656/1/906
f 641/1/220 642/1/219 632/1/659 640/1/513
f 342/1/405 365/1/616 347/1/615 343/1/406
f 428/1/731 446/1/766 450/1/767 449/1/732
f 659/1/713 734/1/712 718/1/693 660/1/692
f 661/1/695 668/1/694 669/1/734 662/1/733
f 739/1/631 745/1/463 743/1/666 736/1/396
f 900/1/481 913/1/903 907/1/427 838/1/426
f 843/1/878 856/1/884 862/1/887 842/1/612
f 792/1/852 791/1/850 782/1/454 783/1/453
f 667/1/922 633/1/104 624/1/107 650/1/658
f 718/1/693 721/1/714 712/1/797 668/1/694
f 866/1/360 848/1/359 849/1/883 860/1/857
f 847/1/886 848/1/359 854/1/297 853/1/655
f 300/1/764 433/1/595 429/1/177 425/1/180
f 378/1/727 379/1/524 353/1/523 372/1/725
f 86/1/610 88/1/425 78/1/175 77/1/320
f 87/1/417 96/1/195 80/1/170 79/1/176
f 202/1/582 222/1/642 209/1/446 203/1/436
f 896/1/907 904/1/649 917/1/908 898/1/745
f 686/1/645 679/1/641 678/1/111 685/1/110
f 664/1/293 665/1/369 657/1/921 663/1/696
f 244/1/416 259/1/699 237/1/221 238/1/455
f 675/1/865 676/1/901 667/1/922 672/1/218
f 665/1/369 673/1/368 658/1/866 657/1/921
f 672/1/218 667/1/922 650/1/658 642/1/219
f 347/1/615 359/1/618 327/1/382 348/1/381
f 185/1/858 382/1/162 208/1/639 201/1/247
f 673/1/368 674/1/864 666/1/217 658/1/866
f 800/1/863 799/1/862 790/1/849 791/1/850
f 180/1/558 186/1/565 185/1/858 181/1/559
f 667/1/922 676/1/901 643/1/628 633/1/104
f 688/1/917 695/1/291 671/1/294 679/1/641
f 696/1/872 697/1/923 689/1/292 695/1/291
f 697/1/923 703/1/729 680/1/366 689/1/292
f 681/1/367 682/1/467 674/1/864 673/1/368
f 690/1/338 691/1/646 683/1/912 682/1/467
f 691/1/646 692/1/516 684/1/518 683/1/912
f 703/1/729 711/1/339 681/1/367 680/1/366
f 687/1/838 688/1/917 679/1/641 686/1/645
f 717/1/871 723/1/924 697/1/923 696/1/872
f 723/1/924 729/1/728 703/1/729 697/1/923
f 884/1/892 883/1/891 877/1/889 803/1/622
f 137/1/238 266/1/394 244/1/416 238/1/455
f 145/1/271 198/1/273 151/1/303 146/1/254
f 775/1/506 774/1/163 765/1/166 766/1/832
f 686/1/645 693/1/644 694/1/839 687/1/838
f 747/1/925 752/1/881 723/1/924 717/1/871
f 752/1/881 730/1/856 729/1/728 723/1/924
f 151/1/303 198/1/273 197/1/376 191/1/321
f 731/1/268 704/1/267 698/1/341 724/1/340
f 730/1/856 731/1/268 724/1/340 729/1/728
f 803/1/622 877/1/889 794/1/853 795/1/623
f 705/1/109 706/1/926 700/1/643 685/1/110
f 599/1/828 607/1/432 608/1/877 600/1/829
f 341/1/726 346/1/689 325/1/879 333/1/562
f 832/1/319 831/1/779 825/1/215 826/1/316
f 738/1/269 753/1/716 748/1/187 744/1/186
f 713/1/502 714/1/501 706/1/926 705/1/109
f 342/1/405 371/1/445 370/1/355 365/1/616
f 327/1/382 359/1/618 341/1/726 333/1/562
f 547/1/914 551/1/913 548/1/809 544/1/722
f 751/1/755 758/1/717 752/1/881 747/1/925
f 143/1/585 156/1/613 149/1/95 144/1/116
f 721/1/714 719/1/499 713/1/502 712/1/797
f 695/1/291 688/1/917 702/1/873 696/1/872
f 709/1/841 710/1/870 702/1/873 707/1/837
f 715/1/200 716/1/199 709/1/841 708/1/840
f 104/1/25 134/1/43 112/1/660 105/1/2
f 391/1/158 405/1/709 385/1/357 386/1/356
f 174/1/257 188/1/60 180/1/558 175/1/561
f 734/1/712 740/1/715 721/1/714 718/1/693
f 325/1/879 346/1/689 331/1/44 326/1/22
f 47/1/128 62/1/91 53/1/93 48/1/117
f 89/1/102 118/1/53 97/1/38 90/1/55
f 505/1/354 508/1/574 503/1/122 502/1/121
f 302/1/375 303/1/153 267/1/393 296/1/373
f 823/1/812 822/1/651 815/1/236 816/1/235
f 716/1/199 735/1/927 710/1/870 709/1/841
f 398/1/657 411/1/347 403/1/678 399/1/679
f 754/1/401 757/1/756 756/1/462 750/1/402
f 755/1/461 749/1/464 740/1/715 734/1/712
f 310/1/374 320/1/383 304/1/371 305/1/337
f 451/1/521 452/1/682 387/1/556 444/1/522
f 735/1/927 747/1/925 717/1/871 710/1/870
f 727/1/198 742/1/667 735/1/927 716/1/199
f 350/1/492 367/1/620 352/1/465 351/1/448
f 732/1/389 749/1/464 745/1/463 739/1/631
f 321/1/466 340/1/387 328/1/386 322/1/675
f 742/1/667 751/1/755 747/1/925 735/1/927
f 202/1/582 203/1/436 183/1/404 196/1/583
f 252/1/489 253/1/796 246/1/847 245/1/456
f 473/1/551 467/1/385 466/1/607 472/1/606
f 743/1/666 757/1/756 751/1/755 742/1/667
f 132/1/310 116/1/313 124/1/438 131/1/274
