# Blender 4.3.2
# www.blender.org
o hair.048
v 7.431299 0.797624 0.007897
v 7.431886 0.797624 0.006709
v 7.428243 0.798211 0.005643
v 7.434054 0.796561 0.009970
v 7.430528 0.797624 0.008989
v 7.428526 0.798211 0.005040
v 7.432203 0.797624 0.005387
v 7.435425 0.796591 0.006374
v 7.434891 0.796565 0.008270
v 7.428698 0.798211 0.004383
v 7.432447 0.797624 0.003965
v 7.425159 0.798483 0.003372
v 7.427846 0.798211 0.006181
v 7.438677 0.795185 0.007403
v 7.435716 0.796599 0.004298
v 7.436789 0.795219 0.012014
v 7.437908 0.795189 0.009849
v 7.428807 0.798211 0.003669
v 7.435731 0.796600 0.002178
v 7.432399 0.797624 0.002519
v 7.427361 0.798211 0.006626
v 7.429543 0.797624 0.009855
v 7.439090 0.795182 0.004672
v 7.439120 0.795183 0.001858
v 7.440671 0.793516 0.011325
v 7.428797 0.798211 0.002944
v 7.435441 0.796604 0.000148
v 7.432233 0.797624 0.001122
v 7.426845 0.798211 0.007009
v 7.428527 0.797624 0.010645
v 7.431434 0.796684 0.012709
v 7.432856 0.796620 0.011460
v 7.442312 0.793320 0.005068
v 7.428700 0.798211 0.002247
v 7.431783 0.797624 -0.000186
v 7.434834 0.796613 -0.001792
v 7.426273 0.798211 0.007273
v 7.429925 0.796694 0.013690
v 7.433290 0.795509 0.015447
v 7.435326 0.795297 0.013898
v 7.441749 0.793371 0.008411
v 7.428487 0.798211 0.001587
v 7.431158 0.797624 -0.001489
v 7.425725 0.798211 0.007433
v 7.427376 0.797624 0.011144
v 7.437929 0.793671 0.016054
v 7.439319 0.793650 0.013857
v 7.444583 0.791133 0.009392
v 7.428162 0.798211 0.000942
v 7.426290 0.797624 0.011494
v 7.425159 0.798211 0.007460
v 7.428360 0.796677 0.014371
v 7.435017 0.794197 0.017830
v 7.439608 0.792329 0.017458
v 7.441658 0.791882 0.015248
v 7.430293 0.797624 -0.002597
v 7.427738 0.798211 0.000377
v 7.429300 0.795554 0.017347
v 7.431295 0.795571 0.016587
v 7.432468 0.794376 0.019041
v 7.436394 0.792756 0.019953
v 7.443208 0.791481 0.012727
v 7.427188 0.798211 -0.000114
v 7.433902 0.796628 -0.003646
v 7.432650 0.796641 -0.005329
v 7.430097 0.794374 0.019827
v 7.430841 0.793115 0.022043
v 7.433543 0.792869 0.021429
v 7.434618 0.790814 0.024123
v 7.438099 0.790812 0.021842
v 7.445543 0.789022 0.014087
v 7.437936 0.795200 -0.003410
v 7.427721 0.794362 0.020327
v 7.440049 0.788447 0.023660
v 7.441028 0.790687 0.019035
v 7.443414 0.789801 0.017022
v 7.438739 0.795188 -0.000835
v 7.426768 0.796663 0.014724
v 7.427265 0.795528 0.017756
v 7.442615 0.788289 0.021314
v 7.445409 0.787078 0.019051
v 7.441895 0.793326 -0.001751
v 7.442361 0.793320 0.001584
v 7.425200 0.795510 0.017889
v 7.443424 0.786488 0.023238
v 7.445329 0.790988 0.001363
v 7.445272 0.790999 0.005479
v 7.425313 0.794342 0.020567
v 7.425593 0.793092 0.023005
v 7.428222 0.793166 0.022599
v 7.425160 0.797624 0.011518
v 7.425161 0.796657 0.014818
v 7.447123 0.788456 0.010343
v 7.447862 0.788204 0.005901
v 7.422850 0.794316 0.020577
v 7.428853 0.791939 0.024737
v 7.431623 0.791754 0.024224
v 7.424029 0.797624 0.011494
v 7.423552 0.796664 0.014722
v 7.447660 0.786346 0.015055
v 7.449326 0.785451 0.011169
v 7.423119 0.795518 0.017816
v 7.431292 0.790716 0.025886
v 7.436754 0.788402 0.025826
v 7.432663 0.789711 0.026647
v 7.433874 0.787817 0.027874
v 7.421957 0.796678 0.014368
v 7.421055 0.795523 0.017463
v 7.449544 0.783660 0.015279
v 7.429611 0.790554 0.026642
v 7.430492 0.788879 0.028215
v 7.438622 0.786101 0.027002
v 7.441692 0.786176 0.025195
v 7.420377 0.794244 0.020306
v 7.420090 0.792737 0.023065
v 7.422863 0.792964 0.023170
v 7.426130 0.791701 0.025353
v 7.426942 0.790066 0.027482
v 7.443480 0.783418 0.026459
v 7.444973 0.785221 0.022827
v 7.417941 0.794089 0.019706
v 7.423278 0.791368 0.025762
v 7.424083 0.789439 0.028176
v 7.425266 0.787089 0.030234
v 7.428045 0.788084 0.029265
v 7.446656 0.783566 0.022170
v 7.447822 0.784567 0.018371
v 7.420392 0.796694 0.013689
v 7.419044 0.795500 0.016751
v 7.421126 0.788641 0.028609
v 7.420366 0.790894 0.025908
v 7.429396 0.785812 0.030589
v 7.431600 0.786947 0.029375
v 7.448994 0.782497 0.018481
v 7.417090 0.795433 0.015622
v 7.422943 0.797624 0.011143
v 7.421792 0.797624 0.010645
v 7.417459 0.790230 0.025736
v 7.417330 0.792365 0.022664
v 7.433036 0.784788 0.030040
v 7.435355 0.785794 0.028628
v 7.415552 0.793898 0.018524
v 7.413970 0.791828 0.021626
v 7.423473 0.798211 0.007009
v 7.424046 0.798211 0.007272
v 7.424593 0.798211 0.007433
v 7.436446 0.784230 0.029104
v 7.439824 0.783817 0.028110
v 7.413218 0.793717 0.016503
v 7.422957 0.798211 0.006626
v 7.434637 0.782516 0.030456
v 7.439980 0.781476 0.029636
v 7.437479 0.782515 0.030019
v 7.420775 0.797624 0.009855
v 7.422472 0.798211 0.006181
v 7.419791 0.797624 0.008990
v 7.418884 0.796683 0.012711
v 7.430947 0.783307 0.031343
v 7.432598 0.780687 0.031812
v 7.439574 0.779056 0.031293
v 7.422075 0.798211 0.005643
v 7.417462 0.796619 0.011462
v 7.426728 0.784431 0.031778
v 7.428370 0.781577 0.032646
v 7.430102 0.778627 0.033176
v 7.440781 0.777189 0.031512
v 7.421793 0.798211 0.005040
v 7.419020 0.797624 0.007898
v 7.415199 0.795307 0.014014
v 7.423765 0.782865 0.032711
v 7.422294 0.785904 0.030943
v 7.427201 0.776483 0.034338
v 7.442222 0.780148 0.029218
v 7.418433 0.797624 0.006709
v 7.416264 0.796560 0.009972
v 7.413570 0.795195 0.012051
v 7.418160 0.787636 0.028669
v 7.419268 0.784537 0.031210
v 7.422265 0.777795 0.034322
v 7.423951 0.774405 0.035089
v 7.425433 0.779704 0.033716
v 7.415428 0.796565 0.008270
v 7.414576 0.789344 0.025331
v 7.415252 0.786480 0.028461
v 7.420640 0.772537 0.035379
v 7.414894 0.796591 0.006374
v 7.411642 0.795185 0.007403
v 7.412411 0.795189 0.009849
v 7.411733 0.788204 0.024777
v 7.416136 0.774547 0.034271
v 7.417561 0.771025 0.035159
v 7.419090 0.776019 0.034497
v 7.420672 0.781175 0.033161
v 7.409614 0.793434 0.011346
v 7.411163 0.793558 0.013995
v 7.414580 0.769751 0.034569
v 7.417617 0.779534 0.033219
v 7.416302 0.783115 0.031148
v 7.408810 0.791639 0.015628
v 7.406979 0.791331 0.012697
v 7.408570 0.793371 0.008411
v 7.405735 0.791133 0.009392
v 7.411143 0.791960 0.018388
v 7.413509 0.781766 0.030870
v 7.414767 0.778113 0.032977
v 7.412464 0.785225 0.028090
v 7.408007 0.793320 0.005068
v 7.408601 0.790151 0.019126
v 7.410663 0.790061 0.021574
v 7.409800 0.783879 0.027520
v 7.410837 0.780432 0.030346
v 7.412032 0.776806 0.032443
v 7.413290 0.773258 0.033713
v 7.408734 0.788470 0.021817
v 7.409011 0.786889 0.024063
v 7.408233 0.779054 0.029549
v 7.407259 0.782451 0.026715
v 7.406490 0.785476 0.023178
v 7.409323 0.775506 0.031624
v 7.410440 0.772032 0.032887
v 7.411570 0.768594 0.033744
v 7.406684 0.788064 0.020221
v 7.404862 0.780949 0.025680
v 7.405701 0.777643 0.028443
v 7.406627 0.774229 0.030443
v 7.403818 0.786619 0.018251
v 7.404196 0.783966 0.022166
v 7.407553 0.770889 0.031672
v 7.408479 0.767586 0.032514
v 7.406274 0.789424 0.016776
v 7.403246 0.776210 0.026994
v 7.402629 0.779382 0.024421
v 7.402158 0.782358 0.021070
v 7.403929 0.772985 0.028823
v 7.404596 0.769849 0.029943
v 7.405256 0.766757 0.030709
v 7.404412 0.788831 0.013869
v 7.400591 0.777710 0.022780
v 7.400996 0.774814 0.025099
v 7.401446 0.771897 0.026717
v 7.401855 0.769000 0.027677
v 7.402244 0.766113 0.028308
v 7.403196 0.788456 0.010343
v 7.402090 0.786162 0.014679
v 7.399079 0.773515 0.022653
v 7.399396 0.771085 0.024074
v 7.399615 0.768430 0.024846
v 7.399785 0.765660 0.025294
v 7.400993 0.785451 0.011169
v 7.402457 0.788204 0.005901
v 7.400189 0.783552 0.014944
v 7.401467 0.784096 0.017669
v 7.405046 0.790999 0.005479
v 7.397752 0.770680 0.021057
v 7.397807 0.768136 0.021621
v 7.397818 0.765419 0.021877
v 7.400218 0.782014 0.017592
v 7.400314 0.780541 0.019714
v 7.404990 0.790988 0.001363
v 7.396361 0.768118 0.018171
v 7.396488 0.770809 0.017828
v 7.396703 0.773463 0.016993
v 7.397609 0.772876 0.019878
v 7.396279 0.765409 0.018269
v 7.398605 0.778400 0.017922
v 7.398947 0.780973 0.015684
v 7.398777 0.775894 0.020598
v 7.395473 0.771009 0.013647
v 7.397821 0.774862 0.019008
v 7.394954 0.765515 0.014564
v 7.397267 0.778358 0.013122
v 7.397308 0.776015 0.016685
v 7.399168 0.782230 0.011780
v 7.395127 0.767905 0.013776
v 7.393958 0.767030 0.007720
v 7.393656 0.763957 0.008155
v 7.394183 0.759577 0.014559
v 7.398268 0.781696 0.006760
v 7.400227 0.785052 0.006327
v 7.396081 0.774331 0.013165
v 7.392620 0.760806 0.001582
v 7.393116 0.759422 0.008103
v 7.392478 0.753616 0.007515
v 7.393566 0.753577 0.014561
v 7.400190 0.784983 0.001105
v 7.402419 0.788161 0.001202
v 7.395463 0.774534 0.007559
v 7.394601 0.770814 0.007779
v 7.392947 0.746193 0.014563
v 7.402946 0.788221 -0.003312
v 7.407958 0.793320 0.001584
v 7.408423 0.793326 -0.001751
v 7.405512 0.791007 -0.002583
v 7.396674 0.778166 0.007182
v 7.394253 0.770526 0.001183
v 7.393433 0.766119 0.000979
v 7.411229 0.795182 0.004672
v 7.411199 0.795183 0.001858
v 7.406660 0.791038 -0.006359
v 7.396578 0.778074 0.001106
v 7.398226 0.781605 0.001074
v 7.394147 0.765810 -0.005451
v 7.414603 0.796599 0.004298
v 7.395278 0.774446 0.001184
v 7.398799 0.781675 -0.004386
v 7.400713 0.785075 -0.003919
v 7.414587 0.796600 0.002178
v 7.417871 0.797624 0.003965
v 7.418116 0.797624 0.005387
v 7.395955 0.774444 -0.004948
v 7.394958 0.770434 -0.005157
v 7.402009 0.785209 -0.008734
v 7.404174 0.788310 -0.007635
v 7.421620 0.798211 0.004383
v 7.397211 0.778103 -0.004725
v 7.396734 0.770436 -0.011265
v 7.406237 0.788352 -0.011761
v 7.408482 0.791063 -0.009966
v 7.410961 0.793359 -0.007991
v 7.409419 0.793339 -0.004942
v 7.421512 0.798211 0.003669
v 7.398760 0.778171 -0.010315
v 7.400213 0.781790 -0.009619
v 7.410915 0.791079 -0.013218
v 7.412383 0.795200 -0.003410
v 7.411579 0.795188 -0.000835
v 7.421522 0.798211 0.002944
v 7.417920 0.797624 0.002519
v 7.397620 0.774473 -0.010844
v 7.402693 0.781839 -0.014614
v 7.404286 0.785264 -0.013327
v 7.414878 0.796604 0.000148
v 7.421619 0.798211 0.002247
v 7.418086 0.797624 0.001122
v 7.400401 0.774487 -0.016505
v 7.407369 0.785279 -0.017449
v 7.409016 0.788366 -0.015470
v 7.415484 0.796613 -0.001792
v 7.421832 0.798211 0.001587
v 7.418536 0.797624 -0.000186
v 7.401412 0.778203 -0.015661
v 7.412394 0.788369 -0.018540
v 7.416416 0.796628 -0.003646
v 7.419161 0.797624 -0.001489
v 7.413623 0.795220 -0.005872
v 7.422157 0.798211 0.000942
v 7.404945 0.778230 -0.020471
v 7.406023 0.781862 -0.019104
v 7.417669 0.796641 -0.005329
v 7.415284 0.795238 -0.008102
v 7.413018 0.793377 -0.010747
v 7.422581 0.798211 0.000377
v 7.399625 0.770435 -0.017157
v 7.404105 0.774500 -0.021588
v 7.403479 0.770432 -0.022440
v 7.409988 0.781901 -0.022823
v 7.411081 0.785292 -0.020852
v 7.415560 0.793382 -0.013058
v 7.413897 0.791083 -0.015928
v 7.423131 0.798211 -0.000114
v 7.420026 0.797624 -0.002597
v 7.408541 0.774527 -0.025749
v 7.415357 0.785302 -0.023416
v 7.417339 0.791082 -0.017981
v 7.416287 0.788369 -0.020857
v 7.421107 0.797624 -0.003601
v 7.423748 0.798211 -0.000491
v 7.409135 0.778284 -0.024455
v 7.420615 0.788371 -0.022308
v 7.421155 0.791084 -0.019262
v 7.421751 0.793385 -0.015910
v 7.418499 0.793382 -0.014815
v 7.424442 0.798211 -0.000715
v 7.422350 0.797625 -0.004326
v 7.419238 0.796648 -0.006757
v 7.425159 0.791086 -0.019711
v 7.419746 0.795247 -0.011418
v 7.417351 0.795245 -0.009983
v 7.425159 0.798211 -0.000805
v 7.423726 0.797625 -0.004802
v 7.421057 0.796651 -0.007849
v 7.426570 0.798211 -0.000491
v 7.425877 0.798211 -0.000715
v 7.422390 0.795250 -0.012311
v 7.423062 0.796654 -0.008528
v 7.425159 0.797625 -0.004952
v 7.425159 0.796656 -0.008763
v 7.427969 0.797625 -0.004326
v 7.426592 0.797625 -0.004802
v 7.429212 0.797624 -0.003601
v 7.425159 0.795253 -0.012622
v 7.425159 0.793387 -0.016292
v 7.427257 0.796654 -0.008528
v 7.429262 0.796651 -0.007849
v 7.431081 0.796648 -0.006757
v 7.428567 0.793385 -0.015910
v 7.427928 0.795250 -0.012311
v 7.425159 0.788373 -0.022816
v 7.429704 0.788371 -0.022308
v 7.429163 0.791084 -0.019262
v 7.430573 0.795247 -0.011418
v 7.435035 0.795238 -0.008102
v 7.432968 0.795245 -0.009983
v 7.431819 0.793382 -0.014815
v 7.432980 0.791082 -0.017981
v 7.425159 0.785309 -0.025583
v 7.420133 0.785307 -0.025021
v 7.434759 0.793382 -0.013058
v 7.436696 0.795220 -0.005872
v 7.434032 0.788369 -0.020857
v 7.437925 0.788369 -0.018540
v 7.436422 0.791083 -0.015928
v 7.419715 0.781951 -0.027376
v 7.414562 0.781937 -0.025628
v 7.437300 0.793377 -0.010747
v 7.439404 0.791079 -0.013218
v 7.439358 0.793359 -0.007991
v 7.434962 0.785302 -0.023416
v 7.430186 0.785307 -0.025021
v 7.413962 0.778333 -0.027451
v 7.441303 0.788366 -0.015470
v 7.444082 0.788352 -0.011761
v 7.441836 0.791063 -0.009966
v 7.440900 0.793339 -0.004942
v 7.443658 0.791038 -0.006359
v 7.430604 0.781951 -0.027376
v 7.425159 0.781952 -0.027985
v 7.442950 0.785279 -0.017449
v 7.439238 0.785292 -0.020852
v 7.425159 0.778346 -0.029940
v 7.419406 0.778348 -0.029302
v 7.408143 0.770428 -0.026719
v 7.413620 0.774548 -0.028843
v 7.413438 0.770419 -0.029866
v 7.440331 0.781901 -0.022823
v 7.435757 0.781937 -0.025628
v 7.444807 0.791007 -0.002583
v 7.419251 0.774544 -0.030726
v 7.407877 0.765783 -0.027379
v 7.436357 0.778333 -0.027451
v 7.430912 0.778348 -0.029302
v 7.447372 0.788221 -0.003312
v 7.447899 0.788161 0.001202
v 7.446145 0.788310 -0.007635
v 7.431067 0.774544 -0.030726
v 7.425159 0.774535 -0.031365
v 7.450129 0.784983 0.001105
v 7.449605 0.785075 -0.003919
v 7.448310 0.785209 -0.008734
v 7.450092 0.785052 0.006327
v 7.446033 0.785264 -0.013327
v 7.425159 0.770384 -0.032380
v 7.451519 0.781675 -0.004386
v 7.452073 0.781597 0.001076
v 7.451972 0.781663 0.006754
v 7.447626 0.781839 -0.014614
v 7.450105 0.781790 -0.009619
v 7.451151 0.782230 0.011780
v 7.444296 0.781862 -0.019104
v 7.419186 0.770398 -0.031753
v 7.453711 0.778064 0.001105
v 7.452639 0.778280 0.013405
v 7.453526 0.778119 0.007168
v 7.451559 0.778171 -0.010315
v 7.450597 0.781107 0.016337
v 7.445374 0.778230 -0.020471
v 7.441184 0.778284 -0.024455
v 7.454773 0.774507 0.007552
v 7.453108 0.778103 -0.004725
v 7.448422 0.781458 0.021187
v 7.450224 0.778834 0.019803
v 7.448906 0.778203 -0.015661
v 7.441778 0.774527 -0.025749
v 7.436698 0.774548 -0.028843
v 7.454364 0.774444 -0.004948
v 7.447206 0.779127 0.025192
v 7.449000 0.776483 0.023943
v 7.449918 0.774487 -0.016505
v 7.436881 0.770419 -0.029866
v 7.431133 0.770398 -0.031753
v 7.455020 0.774441 0.001184
v 7.452699 0.774473 -0.010844
v 7.450781 0.773719 0.022327
v 7.447500 0.773697 0.027021
v 7.446214 0.774500 -0.021588
v 7.431176 0.765768 -0.032483
v 7.425159 0.765759 -0.033107
v 7.419143 0.765768 -0.032483
v 7.456059 0.770527 0.001185
v 7.453585 0.770436 -0.011265
v 7.451908 0.775920 0.018424
v 7.446840 0.770432 -0.022440
v 7.442176 0.770428 -0.026719
v 7.425159 0.760306 -0.033663
v 7.455360 0.770434 -0.005157
v 7.450694 0.770435 -0.017157
v 7.453317 0.772945 0.017457
v 7.454060 0.774167 0.013271
v 7.442441 0.765783 -0.027379
v 7.437001 0.765780 -0.030583
v 7.413318 0.765780 -0.030583
v 7.456172 0.765810 -0.005451
v 7.454893 0.770847 0.013456
v 7.455718 0.770814 0.007779
v 7.437109 0.760304 -0.031108
v 7.431221 0.760307 -0.033034
v 7.413210 0.760304 -0.031108
v 7.419098 0.760307 -0.033034
v 7.456361 0.767030 0.007720
v 7.456885 0.766119 0.000979
v 7.451265 0.765792 -0.017624
v 7.454278 0.765802 -0.011631
v 7.431292 0.753666 -0.033522
v 7.425159 0.753667 -0.034167
v 7.419027 0.753666 -0.033522
v 7.457699 0.760806 0.001582
v 7.454829 0.760296 -0.011944
v 7.425159 0.746266 -0.034642
v 7.437256 0.753660 -0.031558
v 7.437426 0.746261 -0.031978
v 7.431379 0.746265 -0.033981
v 7.456834 0.760305 -0.005736
v 7.447272 0.765784 -0.023012
v 7.442652 0.760290 -0.027847
v 7.442883 0.753645 -0.028246
v 7.431471 0.738525 -0.034443
v 7.457384 0.753650 -0.005918
v 7.451705 0.760284 -0.017976
v 7.447600 0.760278 -0.023415
v 7.447914 0.753633 -0.023762
v 7.448222 0.746245 -0.024072
v 7.443125 0.746253 -0.028614
v 7.452090 0.753635 -0.018283
v 7.455288 0.753644 -0.012203
v 7.452459 0.746245 -0.018533
v 7.452851 0.738510 -0.018715
v 7.448532 0.738512 -0.024361
v 7.443369 0.738517 -0.028989
v 7.437602 0.738522 -0.032412
v 7.455716 0.746247 -0.012385
v 7.448770 0.730603 -0.024573
v 7.456174 0.738510 -0.012470
v 7.456547 0.730599 -0.012466
v 7.453168 0.730601 -0.018807
v 7.443558 0.730606 -0.029297
v 7.437747 0.730609 -0.032782
v 7.457873 0.746249 -0.006014
v 7.458351 0.738509 -0.006045
v 7.458271 0.753644 0.000634
v 7.458815 0.746244 0.000609
v 7.453312 0.722684 -0.018788
v 7.443636 0.722687 -0.029461
v 7.431549 0.730611 -0.034835
v 7.437820 0.722688 -0.033007
v 7.431593 0.722690 -0.035081
v 7.457841 0.753616 0.007515
v 7.456662 0.763958 0.008156
v 7.457202 0.759422 0.008103
v 7.425159 0.730612 -0.035503
v 7.425159 0.738526 -0.035111
v 7.437860 0.714764 -0.033160
v 7.455213 0.767850 0.013575
v 7.455365 0.765515 0.014564
v 7.456136 0.759577 0.014559
v 7.418847 0.738525 -0.034443
v 7.418940 0.746265 -0.033981
v 7.443659 0.714764 -0.029555
v 7.431620 0.714764 -0.035254
v 7.454058 0.767884 0.017347
v 7.454138 0.770177 0.017049
v 7.453526 0.765828 0.017999
v 7.456753 0.753577 0.014561
v 7.412893 0.746261 -0.031978
v 7.413063 0.753660 -0.031558
v 7.448876 0.714764 -0.024664
v 7.425159 0.714764 -0.035922
v 7.425159 0.722690 -0.035749
v 7.453180 0.769737 0.019208
v 7.452396 0.771206 0.020494
v 7.451662 0.766363 0.021382
v 7.457372 0.746193 0.014563
v 7.407436 0.753645 -0.028246
v 7.407667 0.760290 -0.027847
v 7.418726 0.722690 -0.035081
v 7.418699 0.714764 -0.035254
v 7.418769 0.730611 -0.034835
v 7.451151 0.769314 0.022770
v 7.452752 0.768061 0.020068
v 7.449745 0.767344 0.024664
v 7.402719 0.760278 -0.023415
v 7.403047 0.765784 -0.023012
v 7.412459 0.714764 -0.033160
v 7.412572 0.730609 -0.032782
v 7.412498 0.722688 -0.033007
v 7.412717 0.738522 -0.032412
v 7.447803 0.768784 0.027505
v 7.399054 0.765792 -0.017624
v 7.406682 0.722687 -0.029461
v 7.406660 0.714764 -0.029555
v 7.406950 0.738517 -0.028989
v 7.406761 0.730606 -0.029297
v 7.407194 0.746253 -0.028614
v 7.445861 0.770695 0.029569
v 7.449365 0.771304 0.025179
v 7.401443 0.714764 -0.024664
v 7.401549 0.730603 -0.024573
v 7.402097 0.746245 -0.024072
v 7.401787 0.738512 -0.024361
v 7.402405 0.753633 -0.023762
v 7.443995 0.772863 0.030876
v 7.396040 0.765802 -0.011631
v 7.397468 0.738510 -0.018715
v 7.398229 0.753635 -0.018283
v 7.397860 0.746245 -0.018533
v 7.398613 0.760284 -0.017976
v 7.444023 0.778344 0.028885
v 7.442278 0.775076 0.031448
v 7.445678 0.776156 0.028267
v 7.395489 0.760297 -0.011944
v 7.393485 0.760305 -0.005736
v 7.394603 0.746247 -0.012385
v 7.395030 0.753644 -0.012203
v 7.392935 0.753650 -0.005918
v 7.392048 0.753644 0.000634
v 7.392446 0.746249 -0.006014
v 7.394145 0.738510 -0.012470
v 7.391968 0.738509 -0.006045
v 7.445553 0.781283 0.025925
v 7.391504 0.746244 0.000609
v 7.391893 0.746222 0.007516
v 7.397151 0.730601 -0.018807
v 7.393772 0.730599 -0.012466
v 7.391437 0.738487 0.007517
v 7.391034 0.738504 0.000603
v 7.392508 0.738465 0.014564
v 7.397007 0.722684 -0.018788
v 7.401459 0.722685 -0.024652
v 7.391617 0.730597 -0.006020
v 7.393599 0.722683 -0.012383
v 7.391508 0.722682 -0.005950
v 7.390731 0.730592 0.000614
v 7.392241 0.730565 0.014564
v 7.391158 0.730580 0.007521
v 7.393527 0.714764 -0.012260
v 7.396950 0.714764 -0.018714
v 7.391519 0.714764 -0.005858
v 7.390781 0.714764 0.000681
v 7.390690 0.722679 0.000643
v 7.391106 0.722672 0.007530
v 7.392138 0.722665 0.014564
v 7.391167 0.714764 0.007542
v 7.392115 0.714764 0.014564
v 7.456720 0.722683 -0.012383
v 7.456792 0.714764 -0.012260
v 7.453369 0.714764 -0.018714
v 7.448860 0.722685 -0.024652
v 7.458702 0.730597 -0.006020
v 7.458811 0.722682 -0.005950
v 7.458800 0.714764 -0.005858
v 7.459285 0.738504 0.000603
v 7.459588 0.730592 0.000614
v 7.459628 0.722679 0.000643
v 7.459538 0.714764 0.000681
v 7.458882 0.738487 0.007517
v 7.458426 0.746222 0.007516
v 7.459161 0.730580 0.007521
v 7.459213 0.722672 0.007530
v 7.459152 0.714764 0.007542
v 7.457811 0.738465 0.014564
v 7.458077 0.730565 0.014564
v 7.458181 0.722665 0.014564
v 7.458203 0.714764 0.014564
v 7.434637 0.782516 0.030456
v 7.432598 0.780687 0.031812
v 7.436053 0.784445 0.023881
v 7.436446 0.784230 0.029104
v 7.428661 0.780084 0.017596
v 7.430102 0.778627 0.033176
v 7.439981 0.778898 0.019257
v 7.437479 0.782515 0.030019
v 7.427201 0.776483 0.034338
v 7.439574 0.779056 0.031293
v 7.423951 0.774405 0.035089
v 7.440781 0.777189 0.031512
v 7.420640 0.772537 0.035379
v 7.442278 0.775076 0.031448
v 7.414580 0.769751 0.034569
v 7.417561 0.771025 0.035159
v 7.443995 0.772863 0.030876
v 7.411570 0.768594 0.033744
v 7.445861 0.770695 0.029569
v 7.408479 0.767586 0.032514
v 7.447803 0.768784 0.027505
v 7.405256 0.766757 0.030709
v 7.449745 0.767344 0.024664
v 7.451662 0.766363 0.021382
v 7.455365 0.765515 0.014564
v 7.453526 0.765828 0.017999
v 7.402244 0.766113 0.028308
v 7.448257 0.755937 0.006308
v 7.449357 0.761804 0.010040
v 7.451403 0.764478 0.012458
v 7.447626 0.746438 -0.000094
v 7.454156 0.762453 0.012675
v 7.456136 0.759577 0.014559
v 7.399785 0.765660 0.025294
v 7.451894 0.753728 0.007619
v 7.453289 0.759507 0.010939
v 7.455451 0.751261 0.012077
v 7.456753 0.753577 0.014561
v 7.454059 0.753101 0.010341
v 7.397818 0.765419 0.021877
v 7.450876 0.746539 0.004086
v 7.453152 0.746378 0.007721
v 7.455266 0.745796 0.011061
v 7.457372 0.746193 0.014563
v 7.396279 0.765409 0.018269
v 7.451139 0.739362 0.001707
v 7.455303 0.738928 0.010492
v 7.453008 0.739268 0.006259
v 7.457811 0.738465 0.014564
v 7.394954 0.765515 0.014564
v 7.449131 0.739311 -0.002467
v 7.446417 0.739216 -0.005565
v 7.444557 0.746362 -0.001569
v 7.453973 0.731640 0.005011
v 7.455877 0.731177 0.009907
v 7.458077 0.730565 0.014564
v 7.394183 0.759577 0.014559
v 7.396163 0.762453 0.012675
v 7.398916 0.764478 0.012458
v 7.400962 0.761804 0.010040
v 7.402061 0.755937 0.006308
v 7.402693 0.746438 -0.000094
v 7.451101 0.731784 -0.005506
v 7.441489 0.746286 -0.003044
v 7.457302 0.723062 0.008844
v 7.458181 0.722665 0.014564
v 7.397030 0.759507 0.010939
v 7.398425 0.753728 0.007619
v 7.452662 0.731805 -0.000364
v 7.443108 0.739135 -0.007885
v 7.439311 0.739125 -0.009722
v 7.438058 0.746413 -0.003628
v 7.444897 0.731588 -0.013146
v 7.448449 0.731693 -0.009706
v 7.458203 0.714764 0.014564
v 7.455421 0.723477 -0.002976
v 7.456392 0.723364 0.003029
v 7.434628 0.746540 -0.004212
v 7.450823 0.723417 -0.014138
v 7.453772 0.723471 -0.008816
v 7.459152 0.714764 0.007542
v 7.396260 0.753101 0.010341
v 7.394868 0.751261 0.012077
v 7.393566 0.753577 0.014561
v 7.459538 0.714764 0.000681
v 7.435017 0.739141 -0.011061
v 7.430215 0.739140 -0.011886
v 7.429893 0.746539 -0.004487
v 7.456792 0.714764 -0.012260
v 7.397167 0.746378 0.007721
v 7.392947 0.746193 0.014563
v 7.399443 0.746539 0.004086
v 7.458800 0.714764 -0.005858
v 7.435820 0.731489 -0.018153
v 7.440638 0.731524 -0.016010
v 7.425159 0.746536 -0.004762
v 7.453369 0.714764 -0.018714
v 7.395016 0.738928 0.010492
v 7.395053 0.745796 0.011061
v 7.392508 0.738465 0.014564
v 7.442111 0.723300 -0.022685
v 7.446846 0.723349 -0.018806
v 7.425159 0.739135 -0.012170
v 7.420104 0.739140 -0.011886
v 7.420425 0.746539 -0.004487
v 7.448876 0.714764 -0.024664
v 7.392241 0.730565 0.014564
v 7.425159 0.731462 -0.019855
v 7.430592 0.731469 -0.019431
v 7.415691 0.746540 -0.004212
v 7.443659 0.714764 -0.029555
v 7.399179 0.739362 0.001707
v 7.397311 0.739268 0.006259
v 7.393017 0.723062 0.008844
v 7.394442 0.731177 0.009907
v 7.392138 0.722665 0.014564
v 7.431078 0.723253 -0.027269
v 7.436796 0.723269 -0.025574
v 7.437860 0.714764 -0.033160
v 7.396346 0.731640 0.005011
v 7.392115 0.714764 0.014564
v 7.425159 0.723248 -0.027819
v 7.425159 0.714764 -0.035922
v 7.431620 0.714764 -0.035254
v 7.401188 0.739311 -0.002467
v 7.403902 0.739216 -0.005565
v 7.405762 0.746362 -0.001569
v 7.391167 0.714764 0.007542
v 7.419240 0.723253 -0.027269
v 7.418699 0.714764 -0.035254
v 7.419727 0.731469 -0.019431
v 7.397657 0.731805 -0.000364
v 7.399218 0.731784 -0.005506
v 7.408830 0.746286 -0.003044
v 7.390781 0.714764 0.000681
v 7.393927 0.723364 0.003029
v 7.412459 0.714764 -0.033160
v 7.414499 0.731489 -0.018153
v 7.413523 0.723269 -0.025574
v 7.415301 0.739141 -0.011061
v 7.394897 0.723477 -0.002976
v 7.407211 0.739135 -0.007885
v 7.411007 0.739125 -0.009722
v 7.412261 0.746413 -0.003628
v 7.391519 0.714764 -0.005858
v 7.408207 0.723300 -0.022685
v 7.406660 0.714764 -0.029555
v 7.409681 0.731524 -0.016010
v 7.393527 0.714764 -0.012260
v 7.396547 0.723471 -0.008816
v 7.405422 0.731588 -0.013146
v 7.401870 0.731693 -0.009706
v 7.403472 0.723349 -0.018806
v 7.401443 0.714764 -0.024664
v 7.399496 0.723417 -0.014138
v 7.396950 0.714764 -0.018714
vn -0.1707 0.9749 0.1428
vn -0.2551 0.9453 0.2031
vn -0.2043 0.9501 0.2358
vn -0.1376 0.9772 0.1617
vn 0.4065 0.8997 -0.1589
vn 0.3691 0.9028 -0.2207
vn 0.2798 0.9456 -0.1660
vn 0.3103 0.9429 -0.1206
vn -0.0989 0.9934 0.0584
vn -0.1972 0.9736 0.1151
vn -0.0841 0.9936 0.0750
vn -0.2913 0.9414 0.1700
vn -0.9688 0.1598 0.1896
vn -0.9769 0.1928 0.0919
vn -0.9833 0.1459 0.1089
vn -0.9699 0.1175 0.2135
vn 0.4609 0.8170 0.3464
vn 0.5448 0.7939 0.2699
vn 0.4461 0.8649 0.2301
vn 0.3895 0.8741 0.2901
vn -0.3332 0.9398 0.0754
vn -0.2248 0.9732 0.0488
vn -0.2317 0.9726 0.0168
vn -0.3415 0.9395 0.0264
vn -0.6671 0.3221 0.6717
vn -0.7700 0.2708 0.5777
vn -0.7439 0.1693 0.6464
vn -0.6283 0.2082 0.7496
vn 0.1101 0.9931 0.0393
vn -0.0000 1.0000 0.0005
vn 0.0989 0.9934 0.0585
vn 0.1156 0.9930 0.0237
vn 0.0841 0.9936 0.0750
vn -0.4292 0.8979 0.0976
vn -0.4023 0.9008 0.1631
vn -0.3156 0.9404 0.1264
vn -0.4428 0.8960 0.0347
vn -0.4294 0.6951 -0.5765
vn -0.4822 0.5991 -0.6392
vn -0.6056 0.5816 -0.5431
vn -0.5409 0.6846 -0.4885
vn 0.1187 0.9929 0.0081
vn -0.9304 -0.2382 0.2787
vn -0.9265 -0.1449 0.3472
vn -0.8778 -0.0798 0.4724
vn -0.9007 -0.1375 0.4120
vn -0.1183 0.9929 -0.0089
vn -0.2288 0.9733 -0.0162
vn -0.1187 0.9929 0.0081
vn 0.0707 0.9939 0.0852
vn 0.0851 0.9796 -0.1823
vn 0.1287 0.9528 -0.2748
vn 0.0662 0.9541 -0.2919
vn 0.0438 0.9801 -0.1937
vn 0.1819 0.3323 0.9255
vn 0.2460 0.3705 0.8957
vn 0.1751 0.4824 0.8583
vn 0.1019 0.4478 0.8883
vn -0.3681 0.9043 0.2161
vn -0.3237 0.9109 0.2561
vn -0.1440 0.8486 0.5090
vn -0.2450 0.8263 0.5072
vn -0.2606 0.7423 0.6172
vn -0.1571 0.7790 0.6070
vn 0.1183 0.9929 -0.0089
vn -0.3305 0.9411 -0.0720
vn -0.4311 0.8974 -0.0939
vn -0.4433 0.8959 -0.0277
vn -0.3412 0.9397 -0.0222
vn -0.2231 0.9735 -0.0494
vn 0.3332 0.9398 0.0754
vn 0.3415 0.9395 0.0264
vn 0.2317 0.9726 0.0168
vn 0.2248 0.9732 0.0488
vn 0.2382 -0.6676 0.7054
vn 0.2882 -0.6566 0.6970
vn 0.1376 -0.6835 0.7169
vn 0.1124 -0.6919 0.7132
vn 0.0564 0.9940 0.0941
vn -0.1101 0.9931 0.0393
vn -0.2172 0.9727 0.0824
vn 0.9634 0.1814 0.1976
vn 0.9678 0.1027 0.2296
vn 0.9831 0.1467 0.1095
vn 0.9740 0.2053 0.0959
vn 0.0973 0.9267 0.3629
vn 0.1205 0.8960 0.4274
vn 0.1972 0.8932 0.4042
vn 0.1663 0.9288 0.3312
vn -0.5590 0.8285 -0.0338
vn -0.5571 0.8294 0.0424
vn -0.5363 0.8355 0.1195
vn 0.1149 0.9930 -0.0259
vn -0.4976 0.8446 0.1976
vn -0.4476 0.8558 0.2593
vn -0.0314 0.9762 0.2146
vn -0.0682 0.9776 0.1993
vn -0.0885 0.9516 0.2943
vn -0.0370 0.9497 0.3109
vn -0.1721 0.9132 -0.3694
vn -0.0886 0.9151 -0.3934
vn -0.1115 0.8593 -0.4992
vn -0.2167 0.8566 -0.4683
vn 0.0380 0.9942 0.1007
vn -0.0312 0.2591 0.9654
vn -0.1197 0.3685 0.9219
vn -0.2053 0.3431 0.9166
vn -0.1330 0.2328 0.9634
vn 0.0616 0.9003 0.4309
vn 0.0795 0.8783 0.4714
vn 0.1592 0.8673 0.4717
vn 0.1074 0.9933 -0.0438
vn -0.3103 0.9429 -0.1206
vn -0.2070 0.9749 -0.0821
vn -0.1871 0.9759 -0.1125
vn -0.2798 0.9456 -0.1660
vn -0.1074 0.9933 -0.0438
vn -0.0970 0.9935 -0.0595
vn 0.0179 0.9943 0.1056
vn -0.0179 0.9942 0.1056
vn -0.0380 0.9942 0.1007
vn -0.9194 0.3644 0.1481
vn -0.9177 0.2935 0.2678
vn -0.8763 0.3548 0.3257
vn -0.8745 0.4300 0.2244
vn -0.7290 0.4988 0.4688
vn -0.8123 0.4217 0.4030
vn -0.7950 0.3578 0.4899
vn -0.7026 0.4224 0.5727
vn 0.5571 0.8294 0.0424
vn 0.6735 0.7377 0.0464
vn 0.6780 0.7341 -0.0386
vn 0.5590 0.8285 -0.0338
vn -0.0662 0.9541 -0.2919
vn -0.1287 0.9528 -0.2748
vn 0.0970 0.9935 -0.0595
vn -0.0000 0.9944 0.1058
vn -0.0000 0.9768 0.2142
vn -0.1009 0.9284 0.3576
vn -0.1781 0.9260 0.3328
vn -0.2139 0.8869 0.4095
vn -0.1213 0.8959 0.4275
vn -0.8533 0.2213 0.4722
vn -0.8414 0.1328 0.5238
vn 0.9083 0.2599 0.3277
vn 0.9383 0.1309 0.3200
vn 0.9373 0.2896 0.1940
vn 0.4283 0.7199 0.5461
vn 0.5474 0.7187 0.4287
vn 0.5145 0.7610 0.3952
vn 0.4003 0.7710 0.4953
vn -0.8321 0.0622 0.5512
vn -0.7225 0.0851 0.6861
vn 0.0824 0.9938 -0.0751
vn 0.4294 0.6951 -0.5765
vn 0.4822 0.5991 -0.6392
vn 0.3329 0.6145 -0.7152
vn 0.2973 0.7040 -0.6450
vn -0.1156 0.9930 0.0237
vn 0.0146 0.5897 0.8075
vn -0.0945 0.5473 0.8316
vn -0.0069 0.4061 0.9138
vn 0.1049 0.9773 0.1840
vn 0.1418 0.9534 0.2664
vn 0.2023 0.9515 0.2318
vn 0.1376 0.9772 0.1616
vn 0.0652 0.9941 -0.0871
vn 0.1871 0.9759 -0.1125
vn 0.2070 0.9749 -0.0821
vn 0.0817 0.2919 0.9530
vn 0.1111 0.2534 0.9610
vn 0.2058 0.2925 0.9339
vn 0.5442 0.5192 0.6590
vn 0.6579 0.5933 0.4639
vn 0.5654 0.6645 0.4886
vn 0.4628 0.6396 0.6137
vn 0.6831 0.6918 0.2340
vn 0.7544 0.6045 0.2560
vn 0.8127 0.5649 0.1429
vn 0.7388 0.6589 0.1415
vn 0.3612 0.9108 0.2000
vn 0.3176 0.9173 0.2402
vn -0.5197 0.8070 0.2805
vn -0.4450 0.8226 0.3539
vn -0.3884 0.8667 0.3130
vn -0.1572 0.9775 -0.1406
vn -0.2375 0.9485 -0.2098
vn -0.4065 0.8997 -0.1589
vn -0.3691 0.9028 -0.2207
vn -0.5290 0.2379 0.8146
vn -0.5782 0.3612 0.7316
vn 0.0314 0.9762 0.2147
vn 0.0007 0.9485 0.3169
vn 0.0379 0.9494 0.3117
vn 0.2829 -0.6368 0.7173
vn 0.2252 -0.6393 0.7352
vn 0.3389 -0.5846 0.7371
vn 0.4055 -0.5816 0.7052
vn -0.8265 0.0382 0.5616
vn -0.7096 0.0553 0.7024
vn -0.7368 0.6642 0.1263
vn -0.8135 0.5716 0.1070
vn -0.7543 0.6263 0.1971
vn -0.6737 0.7079 0.2123
vn 0.2497 0.9259 0.2836
vn 0.3740 -0.6251 0.6852
vn 0.1736 -0.6767 0.7155
vn -0.8221 0.4594 0.3364
vn -0.5929 0.1124 0.7974
vn -0.5738 0.0780 0.8153
vn -0.4590 0.0962 0.8832
vn -0.4819 0.1336 0.8660
vn -0.6735 0.7377 0.0464
vn -0.6421 0.7552 0.1319
vn -0.5788 0.2928 -0.7611
vn -0.4026 0.2935 -0.8670
vn -0.4063 0.1941 -0.8929
vn -0.5858 0.1937 -0.7870
vn 0.9270 -0.0894 0.3644
vn 0.9854 -0.1130 0.1271
vn 0.9717 -0.1953 0.1325
vn 0.9265 -0.1449 0.3472
vn -0.7628 0.5486 0.3422
vn -0.6780 0.7341 -0.0386
vn -0.5428 0.8317 -0.1169
vn -0.6566 0.7424 -0.1330
vn 0.8431 0.5363 -0.0393
vn 0.8903 0.4539 -0.0369
vn 0.8767 0.4552 -0.1556
vn 0.8260 0.5449 -0.1445
vn -0.7767 0.6285 -0.0404
vn -0.7715 0.6346 0.0454
vn 0.2888 0.4233 0.8587
vn 0.3237 0.5094 0.7973
vn 0.3199 0.6041 0.7299
vn 0.2455 0.5300 0.8117
vn -0.8760 0.4560 -0.1572
vn -0.9131 0.3698 -0.1717
vn -0.9267 0.3732 -0.0439
vn -0.8873 0.4590 -0.0435
vn -0.0440 0.9011 0.4315
vn -0.0377 0.9279 0.3708
vn 0.6909 0.2547 0.6765
vn 0.7606 0.1825 0.6230
vn 0.8150 0.2709 0.5123
vn 0.7632 0.3345 0.5528
vn 0.6133 0.7257 0.3118
vn -0.0545 0.8651 0.4986
vn -0.0588 0.8087 0.5852
vn 0.0151 0.8299 0.5578
vn 0.0135 0.8751 0.4837
vn -0.2588 0.7859 -0.5616
vn -0.2973 0.7040 -0.6450
vn -0.3733 0.7801 -0.5021
vn -0.3589 0.8039 0.4743
vn -0.3095 0.8768 0.3680
vn 0.3636 0.5937 0.7179
vn 0.3631 0.5350 0.7629
vn 0.9353 -0.3438 0.0841
vn 0.9380 -0.3182 0.1373
vn 0.9771 -0.2125 0.0142
vn -0.5991 0.7435 0.2972
vn -0.5869 0.7806 0.2150
vn 0.2972 0.8883 0.3501
vn 0.7547 0.6410 -0.1395
vn 0.7794 0.5571 -0.2867
vn 0.7035 0.6604 -0.2626
vn 0.2588 0.7859 -0.5616
vn 0.1527 0.7091 -0.6884
vn 0.1331 0.7895 -0.5991
vn -0.8303 0.5262 0.1834
vn 0.6749 0.6548 0.3403
vn 0.8240 0.5098 0.2473
vn 0.5629 -0.5011 0.6573
vn 0.6638 -0.4939 0.5616
vn 0.5114 -0.5667 0.6460
vn 0.2658 0.3316 0.9052
vn -0.7141 -0.4839 0.5058
vn -0.5819 -0.5487 0.6003
vn -0.5965 -0.5466 0.5877
vn -0.7224 -0.4835 0.4943
vn 0.5819 -0.5487 0.6003
vn 0.4407 -0.6097 0.6589
vn -0.8830 0.4669 0.0480
vn -0.9262 0.3733 0.0535
vn 0.0908 0.6218 0.7779
vn -0.0230 0.9944 -0.1027
vn -0.0438 0.9801 -0.1937
vn -0.0851 0.9796 -0.1823
vn -0.0450 0.9942 -0.0973
vn 0.3626 0.6765 0.6410
vn 0.8227 0.4549 0.3410
vn 0.8653 0.4122 0.2853
vn 0.7651 0.5666 0.3057
vn 0.5287 0.4976 -0.6877
vn 0.5615 0.3963 -0.7264
vn 0.3907 0.4068 -0.8258
vn 0.3657 0.5164 -0.7743
vn -0.9768 0.2114 -0.0341
vn -0.9582 0.2113 -0.1931
vn -0.9670 0.1519 -0.2047
vn -0.9871 0.1570 -0.0325
vn -0.9598 0.2721 0.0692
vn -0.9564 0.2449 0.1593
vn 0.9760 0.2153 -0.0325
vn 0.9870 0.1573 -0.0325
vn 0.9670 0.1520 -0.2045
vn 0.9582 0.2119 -0.1924
vn 0.6936 0.3835 -0.6098
vn 0.6582 0.4764 -0.5829
vn 0.5428 0.8317 -0.1169
vn 0.6566 0.7424 -0.1330
vn 0.6113 0.7554 -0.2357
vn 0.5099 0.8366 -0.2004
vn -0.3155 0.9067 -0.2800
vn -0.3959 0.8470 -0.3547
vn -0.4619 0.8416 -0.2799
vn -0.8689 0.4856 0.0963
vn -0.2027 0.5046 0.8393
vn -0.1441 0.6746 0.7240
vn -0.2489 0.6314 0.7344
vn -0.6582 0.4764 -0.5829
vn -0.7582 0.4615 -0.4607
vn -0.7031 0.5681 -0.4277
vn 0.9810 0.1096 0.1599
vn 0.9842 0.0886 0.1531
vn 0.9904 0.0840 0.1096
vn 0.9868 0.1037 0.1248
vn -0.2777 0.4759 0.8345
vn -0.2584 0.9194 0.2965
vn -0.9403 0.0785 0.3311
vn -0.9689 0.1135 0.2199
vn -0.9360 0.0680 0.3454
vn 0.8415 0.0089 0.5401
vn 0.8081 0.1042 0.5797
vn 0.7890 0.0688 0.6106
vn 0.8250 -0.0313 0.5643
vn 0.8450 0.2212 0.4869
vn 0.2483 0.8444 0.4746
vn 0.3473 0.8322 0.4322
vn 0.0870 0.9516 0.2949
vn 0.0683 0.9775 0.1994
vn 0.6455 0.7524 0.1312
vn 0.6001 0.7729 0.2062
vn -0.0000 0.9158 -0.4017
vn 0.0886 0.9151 -0.3934
vn 0.1115 0.8593 -0.4992
vn -0.0000 0.8603 -0.5098
vn 0.2171 0.9727 0.0824
vn 0.1972 0.9736 0.1150
vn -0.9016 0.1169 0.4165
vn -0.8982 0.0560 0.4360
vn -0.0563 0.9940 0.0941
vn -0.5099 0.8366 -0.2004
vn 0.5970 0.3368 0.7281
vn 0.6810 0.4188 0.6007
vn 0.4800 0.4237 0.7681
vn -0.5202 0.7633 0.3832
vn -0.5826 0.6783 0.4477
vn -0.5168 0.6836 0.5154
vn -0.4558 0.7430 0.4901
vn -0.3389 -0.5846 0.7371
vn -0.4055 -0.5816 0.7052
vn -0.5629 -0.5011 0.6573
vn -0.4851 -0.4980 0.7188
vn -0.0706 0.9939 0.0852
vn 0.3160 0.4914 0.8116
vn 0.3766 0.4952 0.7829
vn 0.3514 0.5734 0.7401
vn 0.1706 0.9749 0.1428
vn -0.0652 0.9941 -0.0871
vn -0.1239 0.9785 -0.1647
vn -0.0824 0.9938 -0.0751
vn 0.2532 0.9467 0.1993
vn 0.9092 0.3640 0.2024
vn 0.9268 0.3685 0.0726
vn 0.8916 0.4492 0.0568
vn 0.8743 0.4617 0.1498
vn 0.4760 0.4410 0.7609
vn 0.0367 0.7431 0.6682
vn 0.1791 0.6564 0.7329
vn 0.1237 0.7699 0.6261
vn -0.1149 0.9930 -0.0259
vn -0.6744 0.6429 0.3630
vn -0.6524 0.5554 0.5156
vn 0.4923 0.3781 0.7841
vn 0.3128 0.8523 -0.4193
vn 0.3959 0.8470 -0.3547
vn 0.4712 0.7730 -0.4249
vn 0.3733 0.7801 -0.5021
vn 0.2288 0.9733 -0.0162
vn 0.5788 0.2928 -0.7611
vn 0.4026 0.2935 -0.8670
vn -0.1049 0.9773 0.1840
vn -0.1066 0.1940 0.9752
vn 0.0016 0.2225 0.9749
vn -0.9443 0.1282 0.3030
vn 0.0048 0.9266 0.3760
vn 0.0114 0.9025 0.4306
vn -0.1387 -0.6779 0.7219
vn -0.1736 -0.6767 0.7155
vn -0.2829 -0.6368 0.7173
vn -0.2252 -0.6393 0.7352
vn -0.8689 -0.0571 0.4917
vn -0.8528 -0.0589 0.5188
vn -0.8526 -0.0663 0.5183
vn -0.6204 0.4706 0.6274
vn -0.8408 0.5398 -0.0413
vn -0.8373 0.5448 0.0459
vn 0.4619 0.8416 -0.2799
vn 0.5496 0.7653 -0.3349
vn 0.3156 0.9407 0.1245
vn -0.1862 0.9510 -0.2469
vn -0.4986 0.3935 0.7724
vn -0.5473 0.5078 0.6652
vn -0.4403 0.2641 0.8581
vn -0.0000 0.9546 -0.2979
vn 0.6307 0.6743 -0.3842
vn 0.5409 0.6846 -0.4885
vn -0.2061 0.1269 -0.9703
vn -0.2075 0.0867 -0.9744
vn -0.4098 0.0832 -0.9084
vn -0.4081 0.1228 -0.9046
vn 0.8344 0.4555 -0.3103
vn 0.3155 0.9067 -0.2800
vn 0.2484 0.9103 -0.3311
vn 0.4433 0.8959 -0.0277
vn 0.4428 0.8960 0.0347
vn 0.0947 0.8454 0.5257
vn -0.6113 0.7554 -0.2357
vn -0.5496 0.7653 -0.3349
vn 0.7715 0.6346 0.0454
vn 0.8409 0.5392 0.0458
vn 0.7767 0.6285 -0.0404
vn -0.1453 0.9524 0.2678
vn -0.7942 0.3712 -0.4811
vn -0.8705 0.3659 -0.3292
vn -0.8344 0.4555 -0.3103
vn 0.0230 0.9944 -0.1027
vn -0.0000 0.9804 -0.1971
vn -0.0000 0.9944 -0.1053
vn 0.5371 0.8358 0.1136
vn -0.6948 -0.2591 0.6710
vn -0.8136 -0.1201 0.5690
vn -0.7883 -0.1223 0.6030
vn -0.6225 -0.2785 0.7314
vn -0.9382 0.2149 0.2713
vn 0.9706 0.1059 -0.2159
vn 0.9190 0.0966 -0.3822
vn 0.9186 0.1406 -0.3694
vn 0.9407 0.2867 -0.1815
vn 0.9555 0.2929 -0.0340
vn -0.0000 -0.7077 0.7065
vn 0.0612 -0.7004 0.7112
vn 0.0800 -0.6991 0.7105
vn -0.0000 -0.7063 0.7079
vn 0.9525 0.2927 0.0838
vn -0.5881 0.0809 -0.8047
vn -0.5879 0.1199 -0.8000
vn -0.8439 0.1291 -0.5207
vn -0.9186 0.1406 -0.3694
vn -0.9124 0.2027 -0.3556
vn -0.8379 0.1976 -0.5089
vn -0.2036 0.2948 -0.9336
vn -0.2051 0.1964 -0.9588
vn 0.2100 0.7863 0.5811
vn 0.2799 0.7143 0.6414
vn -0.7305 0.1958 -0.6543
vn -0.7349 0.1220 -0.6672
vn -0.4717 0.5419 0.6956
vn -0.4195 0.4241 0.8026
vn -0.3443 0.4519 0.8229
vn -0.3970 0.5716 0.7181
vn -0.2818 0.3176 0.9054
vn 0.9269 0.3736 -0.0350
vn 0.9135 0.3699 -0.1694
vn 0.7420 0.5076 0.4380
vn 0.8107 0.4167 0.4112
vn 0.2970 -0.6549 0.6949
vn 0.1425 -0.6812 0.7180
vn -0.0000 0.6251 -0.7805
vn -0.1699 0.6228 -0.7637
vn -0.1527 0.7091 -0.6884
vn -0.0000 0.7108 -0.7034
vn 0.2899 0.9424 0.1666
vn -0.5811 0.5957 0.5545
vn -0.5053 0.6325 0.5871
vn 0.0446 0.9258 0.3754
vn -0.5287 0.4976 -0.6877
vn -0.9838 0.1268 0.1267
vn -0.9868 0.1037 0.1248
vn -0.9810 0.1096 0.1599
vn -0.2863 -0.4772 0.8309
vn -0.5886 -0.2672 0.7630
vn -0.2928 -0.5138 0.8064
vn -0.6307 0.6743 -0.3842
vn -0.7927 -0.2308 0.5643
vn -0.8522 -0.1043 0.5127
vn 0.2958 0.3797 0.8765
vn 0.7582 0.4615 -0.4607
vn 0.7942 0.3712 -0.4811
vn 0.3130 0.7719 0.5533
vn 0.2061 0.8313 0.5162
vn 0.2167 0.8566 -0.4683
vn 0.8835 0.3115 0.3498
vn 0.2036 0.2948 -0.9336
vn 0.1978 0.4125 -0.8892
vn 0.8509 -0.1195 0.5115
vn 0.8761 -0.0950 0.4727
vn -0.8829 -0.2392 0.4041
vn -0.9098 -0.3168 0.2681
vn -0.7547 0.6410 -0.1395
vn -0.9040 0.1973 0.3794
vn -0.8963 0.2668 0.3541
vn -0.8315 -0.4273 0.3549
vn -0.8199 -0.4064 0.4031
vn -0.6638 -0.4939 0.5616
vn 0.7141 -0.4839 0.5058
vn 0.9238 0.0130 0.3827
vn 0.9837 0.1277 0.1269
vn 0.9937 0.1116 -0.0141
vn -0.2484 0.9103 -0.3311
vn 0.9621 0.1003 0.2537
vn 0.7305 0.1958 -0.6543
vn 0.7349 0.1220 -0.6672
vn 0.5879 0.1199 -0.8000
vn 0.5858 0.1937 -0.7870
vn -0.9937 0.1116 -0.0142
vn 0.4982 0.8490 0.1759
vn 0.3999 0.9039 0.1520
vn 0.9961 0.0806 -0.0364
vn -0.6936 0.3835 -0.6098
vn -0.7167 0.2911 -0.6337
vn -0.8204 0.2848 -0.4958
vn -0.0391 0.7139 0.6992
vn 0.9922 0.0683 0.1040
vn 0.9863 0.0688 0.1496
vn -0.8641 0.2980 0.4056
vn -0.2262 0.2014 0.9530
vn -0.2059 0.1592 0.9655
vn 0.4285 0.8985 0.0949
vn 0.4311 0.8974 -0.0939
vn -0.7794 0.5571 -0.2867
vn -0.9706 0.1059 -0.2159
vn 0.3412 0.9397 -0.0222
vn -0.3273 0.5984 0.7313
vn -0.3493 0.7065 0.6154
vn 0.8566 0.3500 0.3791
vn 0.4081 0.1228 -0.9046
vn 0.4063 0.1941 -0.8929
vn -0.8962 0.2812 -0.3431
vn -0.3329 0.6145 -0.7152
vn 0.9124 0.2027 -0.3556
vn 0.8962 0.2812 -0.3431
vn -0.5615 0.3963 -0.7264
vn 0.8705 0.3659 -0.3292
vn -0.0000 -0.6891 0.7246
vn -0.0000 -0.6915 0.7223
vn 0.7031 0.5681 -0.4277
vn 0.1721 0.9132 -0.3694
vn 0.2231 0.9735 -0.0494
vn 0.8379 0.1976 -0.5089
vn 0.8204 0.2848 -0.4958
vn 0.7167 0.2911 -0.6337
vn 0.6056 0.5816 -0.5431
vn 0.3305 0.9411 -0.0720
vn -0.0800 -0.6991 0.7105
vn -0.1124 -0.6919 0.7132
vn -0.2382 -0.6676 0.7054
vn 0.2375 0.9485 -0.2098
vn 0.1572 0.9775 -0.1406
vn -0.3849 0.1534 0.9101
vn 0.9714 0.0771 -0.2248
vn 0.1239 0.9785 -0.1647
vn 0.6650 0.2238 0.7125
vn 0.7373 0.1505 0.6586
vn 0.1862 0.9510 -0.2469
vn 0.0450 0.9942 -0.0973
vn -0.0000 0.7908 -0.6121
vn -0.1331 0.7895 -0.5991
vn 0.1699 0.6228 -0.7637
vn -0.3657 0.5164 -0.7743
vn -0.8255 0.5455 -0.1450
vn -0.3128 0.8523 -0.4193
vn 0.1855 0.5262 -0.8299
vn -0.4712 0.7730 -0.4249
vn -0.3606 0.1137 0.9258
vn -0.7035 0.6604 -0.2626
vn -0.1855 0.5262 -0.8299
vn -0.0000 0.5287 -0.8488
vn -0.0000 0.4140 -0.9103
vn -0.0000 -0.6994 0.7147
vn 0.1387 -0.6779 0.7219
vn -0.0000 0.2953 -0.9554
vn 0.2051 0.1964 -0.9588
vn -0.1376 -0.6835 0.7169
vn -0.1978 0.4125 -0.8892
vn -0.3907 0.4068 -0.8258
vn -0.4287 0.6703 0.6058
vn -0.8433 0.0879 -0.5302
vn -0.9190 0.0966 -0.3822
vn -0.0000 0.1974 -0.9803
vn -0.9406 0.2858 -0.1831
vn -0.9571 0.2871 -0.0399
vn -0.8958 0.0360 0.4429
vn -0.6409 -0.3827 0.6654
vn -0.7554 -0.3801 0.5338
vn -0.9021 -0.3805 0.2034
vn -0.9380 -0.3182 0.1373
vn -0.9995 -0.0084 -0.0296
vn -0.9995 -0.0005 -0.0317
vn -0.9762 0.0037 -0.2166
vn -0.9774 -0.0039 -0.2112
vn 0.2061 0.1269 -0.9703
vn -0.0000 0.1284 -0.9917
vn -0.2827 0.1317 0.9501
vn -0.3043 0.1741 0.9365
vn -0.3589 0.2903 0.8871
vn -0.4172 0.0387 -0.9080
vn -0.5960 0.0338 -0.8023
vn -0.5915 0.0513 -0.8047
vn -0.4145 0.0544 -0.9084
vn -0.0000 0.0881 -0.9961
vn 0.9719 0.0511 -0.2296
vn 0.9740 0.0266 -0.2248
vn 0.9186 0.0282 -0.3942
vn 0.9170 0.0501 -0.3956
vn -0.9740 0.0266 -0.2248
vn -0.9186 0.0282 -0.3942
vn -0.9205 0.0074 -0.3906
vn 0.4098 0.0832 -0.9084
vn 0.2075 0.0867 -0.9744
vn 0.5881 0.0809 -0.8047
vn -0.9168 0.0606 -0.3947
vn -0.9178 0.0711 -0.3906
vn -0.8415 0.0671 -0.5361
vn -0.8405 0.0580 -0.5387
vn -0.2093 0.0683 -0.9755
vn -0.0000 0.0693 -0.9976
vn 0.4115 0.0661 -0.9090
vn 0.2093 0.0683 -0.9755
vn 0.9876 0.0457 0.1501
vn 0.9934 0.0469 0.1044
vn -0.0000 0.0621 -0.9981
vn -0.2105 0.0618 -0.9756
vn 0.5882 0.0646 -0.8061
vn 0.5891 0.0586 -0.8059
vn 0.4130 0.0605 -0.9087
vn 0.5915 0.0513 -0.8047
vn 0.4145 0.0544 -0.9084
vn -0.5882 0.0646 -0.8061
vn -0.4115 0.0661 -0.9090
vn -0.4130 0.0605 -0.9087
vn -0.5891 0.0586 -0.8059
vn -0.2107 0.0554 -0.9760
vn -0.0000 0.0553 -0.9985
vn -0.9714 0.0771 -0.2248
vn -0.9961 0.0806 -0.0364
vn 0.9762 0.0037 -0.2166
vn 0.9774 -0.0039 -0.2112
vn 0.9219 0.0005 -0.3873
vn 0.9205 0.0074 -0.3906
vn -0.6020 0.0167 -0.7983
vn -0.4211 0.0233 -0.9067
vn -0.7323 0.0574 -0.6786
vn -0.7325 0.0649 -0.6776
vn 0.9168 0.0606 -0.3947
vn 0.8405 0.0480 -0.5397
vn 0.8405 0.0580 -0.5387
vn -0.8405 0.0480 -0.5397
vn -0.7336 0.0483 -0.6779
vn 0.7336 0.0483 -0.6779
vn 0.7323 0.0574 -0.6786
vn 0.9969 0.0669 -0.0403
vn 0.9980 0.0497 -0.0398
vn 0.9711 0.0640 -0.2299
vn 0.7364 0.0287 -0.6759
vn 0.5960 0.0338 -0.8023
vn -0.9170 0.0501 -0.3956
vn -0.7364 0.0287 -0.6759
vn 0.6020 0.0167 -0.7983
vn 0.6051 0.0110 -0.7961
vn 0.4231 0.0182 -0.9059
vn 0.4211 0.0233 -0.9067
vn -0.8414 0.0274 -0.5397
vn -0.2106 0.0406 -0.9767
vn -0.9719 0.0511 -0.2296
vn -0.9711 0.0640 -0.2299
vn -0.9969 0.0669 -0.0403
vn -0.9980 0.0497 -0.0398
vn 0.8432 0.0014 -0.5376
vn 0.8424 0.0079 -0.5388
vn -0.7399 0.0101 -0.6726
vn -0.6051 0.0110 -0.7961
vn -0.7418 0.0039 -0.6707
vn -0.2110 0.0262 -0.9771
vn 0.8415 0.0671 -0.5361
vn 0.7325 0.0649 -0.6776
vn 0.2110 0.0262 -0.9771
vn 0.2106 0.0406 -0.9767
vn 0.4172 0.0387 -0.9080
vn -0.0000 0.0406 -0.9992
vn -0.4231 0.0182 -0.9059
vn 0.9948 0.0010 0.1019
vn 0.9995 -0.0005 -0.0317
vn 0.9991 0.0231 -0.0358
vn 0.9942 0.0217 0.1052
vn 0.8778 -0.0798 0.4724
vn 0.8689 -0.0571 0.4917
vn -0.9904 0.0840 0.1096
vn -0.9842 0.0886 0.1531
vn 0.2107 0.0554 -0.9760
vn 0.2105 0.0618 -0.9756
vn 0.5723 0.3017 0.7625
vn 0.9885 0.0220 0.1499
vn 0.9896 0.0037 0.1440
vn 0.9902 -0.0023 0.1395
vn 0.9951 -0.0059 0.0990
vn -0.0000 0.0220 -0.9998
vn -0.2112 0.0215 -0.9772
vn -0.0000 0.0266 -0.9996
vn 0.8956 0.0731 0.4388
vn 0.8946 -0.0152 0.4466
vn -0.7340 0.0824 -0.6742
vn 0.7418 0.0039 -0.6707
vn 0.7399 0.0101 -0.6726
vn -0.9951 -0.0059 0.0990
vn -0.9948 0.0010 0.1019
vn 0.9934 -0.1141 -0.0089
vn -0.3668 -0.4626 0.8071
vn 0.7340 0.0824 -0.6742
vn 0.2112 0.0215 -0.9772
vn -0.9934 0.0469 0.1044
vn -0.9942 0.0217 0.1052
vn -0.9885 0.0220 0.1499
vn -0.9876 0.0457 0.1501
vn 0.8439 0.1291 -0.5207
vn 0.8433 0.0879 -0.5302
vn -0.9922 0.0683 0.1040
vn -0.9863 0.0688 0.1496
vn 0.8414 0.0274 -0.5397
vn 0.8262 -0.4362 0.3565
vn 0.8315 -0.4273 0.3549
vn 0.9021 -0.3805 0.2034
vn 0.8933 -0.4019 0.2014
vn 0.9178 0.0711 -0.3906
vn -0.8424 0.0079 -0.5388
vn -0.9991 0.0231 -0.0358
vn 0.9995 -0.0084 -0.0296
vn -0.8432 0.0014 -0.5376
vn -0.9219 0.0005 -0.3873
vn -0.9896 0.0037 0.1440
vn -0.9902 -0.0023 0.1395
vn 0.6366 -0.7662 -0.0877
vn 0.5944 -0.7949 -0.1217
vn -0.1378 -0.9748 0.1754
vn -0.1488 -0.9869 -0.0632
vn 0.2537 -0.8973 0.3611
vn 0.5684 -0.8126 -0.1286
vn -0.5272 -0.6962 0.4873
vn -0.8514 -0.5240 -0.0218
vn 0.5268 -0.8393 -0.1346
vn -0.8443 -0.5354 -0.0215
vn 0.4872 -0.8606 -0.1482
vn -0.8260 -0.5632 -0.0246
vn 0.4453 -0.8777 -0.1769
vn -0.8036 -0.5941 -0.0348
vn 0.4103 -0.8884 -0.2060
vn 0.4263 -0.8104 -0.4019
vn -0.7828 -0.6202 -0.0517
vn 0.3888 -0.8936 -0.2243
vn -0.7593 -0.6457 -0.0807
vn 0.3742 -0.8948 -0.2435
vn -0.7322 -0.6693 -0.1264
vn 0.3755 -0.8953 -0.2396
vn -0.7078 -0.6828 -0.1809
vn -0.6886 -0.6830 -0.2436
vn -0.5735 -0.5648 0.5934
vn -0.6784 -0.6751 -0.2898
vn 0.3910 -0.8971 -0.2056
vn 0.5886 -0.2672 0.7630
vn 0.6225 -0.2785 0.7314
vn 0.2693 -0.4870 0.8308
vn 0.2758 -0.5380 0.7965
vn 0.4017 -0.8985 -0.1769
vn 0.6948 -0.2591 0.6710
vn 0.7927 -0.2308 0.5643
vn 0.6264 -0.3904 0.6747
vn 0.3448 -0.4677 0.8138
vn 0.7883 -0.1223 0.6030
vn 0.8136 -0.1201 0.5690
vn -0.8427 -0.0821 0.5321
vn -0.8489 -0.0824 0.5220
vn 0.4039 -0.8990 -0.1695
vn 0.8522 -0.1043 0.5127
vn -0.4407 -0.6097 0.6589
vn -0.4540 -0.6079 0.6514
vn 0.4038 -0.8989 -0.1701
vn 0.9007 -0.1375 0.4120
vn 0.8829 -0.2392 0.4041
vn 0.7554 -0.3801 0.5338
vn 0.8528 -0.0589 0.5188
vn 0.8526 -0.0663 0.5183
vn 0.5041 -0.6801 0.5323
vn 0.9098 -0.3168 0.2681
vn 0.8199 -0.4064 0.4031
vn 0.9304 -0.2382 0.2787
vn 0.4851 -0.4980 0.7188
vn 0.8723 0.1524 0.4645
vn -0.2882 -0.6566 0.6970
vn -0.2970 -0.6549 0.6949
vn 0.8427 -0.0821 0.5321
vn 0.8489 -0.0824 0.5220
vn 0.7224 -0.4835 0.4943
vn -0.0612 -0.7004 0.7112
vn 0.5965 -0.5466 0.5877
vn 0.4540 -0.6079 0.6514
vn -0.9270 -0.0894 0.3644
vn -0.9717 -0.1953 0.1325
vn -0.9854 -0.1130 0.1271
vn -0.9771 -0.2125 0.0142
vn -0.9934 -0.1141 -0.0089
vn -0.1425 -0.6812 0.7180
vn -0.9353 -0.3438 0.0841
vn -0.8933 -0.4019 0.2014
vn -0.3740 -0.6251 0.6852
vn -0.8262 -0.4362 0.3565
vn -0.5114 -0.5667 0.6460
vt 0.000000 0.000000
s 1
f 156/1/1 162/1/2 157/1/3 154/1/4
f 72/1/5 409/1/6 64/1/7 36/1/8
f 161/1/9 168/1/10 156/1/1 155/1/11
f 175/1/12 162/1/2 156/1/1 168/1/10
f 268/1/13 288/1/14 275/1/15 274/1/16
f 54/1/17 55/1/18 47/1/19 46/1/20
f 186/1/21 309/1/22 308/1/23 303/1/24
f 231/1/25 239/1/26 240/1/27 234/1/28
f 6/1/29 12/1/30 3/1/31
f 6/1/29 10/1/32 12/1/30
f 3/1/31 12/1/30 13/1/33
f 187/1/34 188/1/35 182/1/36 186/1/21
f 187/1/34 186/1/21 303/1/24 297/1/37
f 342/1/38 357/1/39 336/1/40 337/1/41
f 10/1/32 18/1/42 12/1/30
f 726/1/43 727/1/44 719/1/45 720/1/46
f 327/1/47 328/1/48 308/1/23 321/1/49
f 13/1/33 12/1/30 21/1/50
f 388/1/51 394/1/52 393/1/53 389/1/54
f 164/1/55 158/1/56 132/1/57 163/1/58
f 175/1/12 176/1/59 169/1/60 162/1/2
f 115/1/61 139/1/62 138/1/63 131/1/64
f 18/1/42 26/1/65 12/1/30
f 332/1/66 326/1/67 298/1/68 307/1/69
f 334/1/70 332/1/66 307/1/69 328/1/48
f 8/1/71 15/1/72 11/1/73 7/1/74
f 810/1/75 811/1/76 801/1/77 803/1/78
f 21/1/50 12/1/30 29/1/79
f 167/1/80 174/1/81 168/1/10 161/1/9
f 503/1/82 562/1/83 509/1/84 504/1/85
f 58/1/86 66/1/87 60/1/88 59/1/89
f 298/1/68 291/1/90 207/1/91 297/1/37
f 187/1/34 297/1/37 207/1/91 201/1/92
f 26/1/65 34/1/93 12/1/30
f 194/1/94 195/1/95 176/1/59 188/1/35
f 98/1/96 136/1/97 107/1/98 99/1/99
f 377/1/100 384/1/101 371/1/102 372/1/103
f 29/1/79 12/1/30 37/1/104
f 179/1/105 193/1/106 197/1/107 192/1/108
f 73/1/109 90/1/110 67/1/111 66/1/87
f 34/1/93 42/1/112 12/1/30
f 338/1/113 340/1/114 344/1/115 343/1/116
f 339/1/117 346/1/118 344/1/115 340/1/114
f 37/1/104 12/1/30 44/1/119
f 98/1/96 146/1/120 145/1/121 136/1/97
f 271/1/122 272/1/123 265/1/124 266/1/125
f 233/1/126 258/1/127 238/1/128 232/1/129
f 33/1/130 87/1/131 86/1/132 83/1/133
f 385/1/134 384/1/101 377/1/100 381/1/135
f 42/1/112 49/1/136 12/1/30
f 51/1/137 146/1/120 98/1/96 91/1/138
f 44/1/119 12/1/30 51/1/137
f 334/1/70 340/1/114 338/1/113 332/1/66
f 108/1/139 129/1/140 121/1/141 114/1/142
f 245/1/143 246/1/144 240/1/27 239/1/26
f 497/1/145 570/1/146 503/1/82 498/1/147
f 74/1/148 80/1/149 75/1/150 70/1/151
f 240/1/27 246/1/144 247/1/152 241/1/153
f 49/1/136 57/1/154 12/1/30
f 411/1/155 429/1/156 418/1/157 410/1/158
f 314/1/159 321/1/49 308/1/23 309/1/22
f 121/1/141 139/1/62 115/1/61 114/1/142
f 124/1/160 171/1/161 170/1/162 163/1/58
f 30/1/163 38/1/164 31/1/165 22/1/166
f 57/1/154 63/1/167 12/1/30
f 36/1/8 64/1/7 43/1/168 35/1/169
f 164/1/55 181/1/170 172/1/171 165/1/172
f 119/1/173 120/1/174 85/1/175 113/1/176
f 71/1/177 100/1/178 101/1/179 93/1/180
f 46/1/20 47/1/19 16/1/181 40/1/182
f 199/1/183 203/1/184 149/1/185 195/1/95
f 361/1/186 349/1/187 343/1/116 344/1/115
f 332/1/66 338/1/113 325/1/188 326/1/67
f 343/1/116 345/1/189 325/1/188 338/1/113
f 231/1/25 234/1/28 225/1/190 224/1/191
f 50/1/192 91/1/138 92/1/193 78/1/194
f 815/1/195 816/1/196 806/1/197 814/1/198
f 247/1/152 248/1/199 242/1/200 241/1/153
f 243/1/201 249/1/202 244/1/203 237/1/204
f 38/1/164 59/1/89 39/1/205 31/1/165
f 815/1/195 820/1/206 810/1/75 812/1/207
f 257/1/208 266/1/125 265/1/124 258/1/127
f 235/1/209 236/1/210 229/1/211 228/1/212
f 207/1/91 253/1/213 202/1/214 201/1/92
f 51/1/137 91/1/138 50/1/192 44/1/119
f 362/1/215 433/1/216 434/1/217 432/1/218
f 779/1/219 788/1/220 786/1/221 787/1/222
f 257/1/208 258/1/127 233/1/126 252/1/223
f 207/1/91 291/1/90 259/1/224 253/1/213
f 292/1/225 293/1/226 259/1/224 291/1/90
f 447/1/227 454/1/228 453/1/229 448/1/230
f 98/1/96 99/1/99 92/1/193 91/1/138
f 259/1/224 286/1/231 250/1/232 253/1/213
f 140/1/233 141/1/234 106/1/235 133/1/236
f 305/1/237 315/1/238 300/1/239 301/1/240
f 108/1/139 114/1/142 95/1/241 102/1/242
f 618/1/243 484/1/244 477/1/245 476/1/246
f 76/1/247 55/1/18 54/1/17 75/1/150
f 116/1/248 122/1/249 117/1/250 89/1/251
f 99/1/99 107/1/98 108/1/139 102/1/242
f 364/1/252 365/1/253 342/1/38 359/1/254
f 149/1/185 203/1/184 143/1/255 142/1/256
f 235/1/209 228/1/212 225/1/190 234/1/28
f 112/1/257 148/1/258 119/1/173 113/1/176
f 807/1/259 808/1/260 786/1/221 800/1/261
f 237/1/204 230/1/262 199/1/183 200/1/263
f 39/1/205 59/1/89 60/1/88 53/1/264
f 442/1/265 448/1/230 449/1/266 444/1/267
f 405/1/268 410/1/158 399/1/269 400/1/270
f 251/1/271 266/1/125 257/1/208 252/1/223
f 100/1/178 81/1/272 109/1/273
f 798/1/274 824/1/275 823/1/276 814/1/198
f 164/1/55 165/1/172 159/1/277 158/1/56
f 751/1/278 774/1/279 778/1/280 769/1/281
f 823/1/276 825/1/282 818/1/283 820/1/206
f 278/1/284 301/1/240 300/1/239 294/1/285
f 124/1/160 163/1/58 132/1/57 125/1/286
f 373/1/287 380/1/288 374/1/289 367/1/290
f 106/1/235 141/1/234 112/1/257 104/1/291
f 134/1/292 465/1/293 109/1/273 127/1/294
f 435/1/295 467/1/296 440/1/297 436/1/298
f 295/1/299 311/1/300 302/1/301 296/1/302
f 271/1/122 294/1/285 287/1/303 280/1/304
f 489/1/305 510/1/306 502/1/307 495/1/308
f 466/1/309 467/1/296 435/1/295 459/1/310
f 82/1/311 437/1/312 425/1/313 424/1/314
f 350/1/315 351/1/316 319/1/317 345/1/189
f 278/1/284 294/1/285 271/1/122 273/1/318
f 81/1/272 127/1/294 109/1/273
f 178/1/319 171/1/161 130/1/320 177/1/321
f 336/1/40 348/1/322 330/1/323 331/1/324
f 564/1/325 572/1/326 556/1/327 558/1/328
f 178/1/319 198/1/329 197/1/107 193/1/106
f 135/1/330 142/1/256 121/1/141 129/1/140
f 260/1/331 274/1/16 270/1/332 264/1/333
f 587/1/334 604/1/335 596/1/336 589/1/337
f 604/1/335 483/1/338 477/1/245 484/1/244
f 60/1/88 68/1/339 61/1/340 53/1/264
f 52/1/341 38/1/164 30/1/163 45/1/342
f 71/1/177 93/1/180 48/1/343 62/1/344
f 391/1/345 397/1/346 396/1/347 392/1/348
f 178/1/319 193/1/106 170/1/162 171/1/161
f 2/1/349 6/1/29 3/1/31 1/1/350
f 174/1/81 167/1/80 314/1/159 309/1/22
f 254/1/351 255/1/352 247/1/152 246/1/144
f 37/1/104 45/1/342 30/1/163 29/1/79
f 144/1/353 145/1/121 12/1/30
f 325/1/188 345/1/189 319/1/317 320/1/354
f 146/1/120 51/1/137 12/1/30
f 145/1/121 146/1/120 12/1/30
f 616/1/355 628/1/356 119/1/173 173/1/357
f 208/1/358 222/1/359 214/1/360 209/1/361
f 181/1/170 164/1/55 163/1/58 170/1/162
f 736/1/362 742/1/363 724/1/364 725/1/365
f 144/1/353 12/1/30 150/1/366
f 29/1/79 30/1/163 22/1/166 21/1/50
f 147/1/367 152/1/368 148/1/258
f 112/1/257 113/1/176 74/1/148 104/1/291
f 147/1/367 153/1/369 152/1/368
f 150/1/366 12/1/30 155/1/11
f 22/1/166 5/1/370 13/1/33 21/1/50
f 360/1/371 366/1/372 361/1/186 352/1/373
f 31/1/165 32/1/374 5/1/370 22/1/166
f 462/1/375 463/1/376 455/1/377 458/1/378
f 153/1/369 160/1/379 152/1/368
f 155/1/11 12/1/30 161/1/9
f 50/1/192 78/1/194 52/1/341 45/1/342
f 118/1/380 125/1/286 111/1/381 110/1/382
f 333/1/383 334/1/70 328/1/48 327/1/47
f 226/1/384 252/1/223 233/1/126 227/1/385
f 160/1/379 166/1/386 152/1/368
f 161/1/9 12/1/30 167/1/80
f 408/1/387 415/1/388 416/1/389 412/1/390
f 20/1/391 26/1/65 18/1/42 11/1/73
f 473/1/392 474/1/393 440/1/297 467/1/296
f 150/1/366 154/1/4 137/1/394 144/1/353
f 152/1/368 166/1/386 173/1/357
f 179/1/105 192/1/108 185/1/395 180/1/396
f 176/1/59 195/1/95 149/1/185 169/1/60
f 44/1/119 50/1/192 45/1/342 37/1/104
f 268/1/13 274/1/16 260/1/331 261/1/397
f 84/1/398 102/1/242 95/1/241 88/1/399
f 240/1/27 241/1/153 235/1/209 234/1/28
f 750/1/400 758/1/401 743/1/402 744/1/403
f 55/1/18 76/1/247 71/1/177 62/1/344
f 719/1/45 721/1/404 716/1/405 715/1/406
f 223/1/407 227/1/385 233/1/126 232/1/129
f 285/1/408 301/1/240 278/1/284 279/1/409
f 417/1/410 423/1/411 416/1/389 415/1/388
f 2/1/349 9/1/412 8/1/71 7/1/74
f 367/1/290 374/1/289 366/1/372 360/1/371
f 366/1/372 375/1/413 349/1/187 361/1/186
f 223/1/407 224/1/191 216/1/414 217/1/415
f 216/1/414 224/1/191 225/1/190 219/1/416
f 385/1/134 387/1/417 391/1/345 384/1/101
f 416/1/389 423/1/411 422/1/418 421/1/419
f 488/1/420 508/1/421 507/1/422 501/1/423
f 453/1/229 457/1/424 449/1/266 448/1/230
f 402/1/425 415/1/388 408/1/387 403/1/426
f 33/1/130 83/1/133 24/1/427 23/1/428
f 118/1/380 110/1/382 96/1/429 117/1/250
f 299/1/430 320/1/354 319/1/317 318/1/431
f 94/1/432 450/1/433 447/1/227 443/1/434
f 128/1/435 129/1/140 108/1/139 107/1/98
f 330/1/323 341/1/436 322/1/437 323/1/438
f 383/1/439 389/1/54 386/1/440 379/1/441
f 48/1/343 87/1/131 33/1/130 41/1/442
f 707/1/443 711/1/444 705/1/445 708/1/446
f 271/1/122 280/1/304 262/1/447 272/1/123
f 502/1/307 522/1/448 517/1/449 512/1/450
f 489/1/305 495/1/308 475/1/451 481/1/452
f 768/1/453 777/1/454 776/1/455 775/1/456
f 468/1/457 504/1/85 489/1/305 481/1/452
f 199/1/183 230/1/262 208/1/358 203/1/184
f 75/1/150 80/1/149 81/1/272 76/1/247
f 507/1/422 583/1/458 439/1/459 501/1/423
f 597/1/460 611/1/461 316/1/462 353/1/463
f 438/1/464 460/1/465 434/1/217 433/1/216
f 103/1/466 110/1/382 111/1/381 105/1/467
f 597/1/460 353/1/463 355/1/468 591/1/469
f 210/1/470 211/1/471 204/1/472 206/1/473
f 101/1/179 458/1/378 455/1/377 450/1/433
f 204/1/472 205/1/474 197/1/107 198/1/329
f 461/1/475 481/1/452 475/1/451 469/1/476
f 126/1/477 628/1/356 476/1/246 470/1/478
f 251/1/271 252/1/223 226/1/384 244/1/203
f 801/1/77 811/1/76 809/1/479 802/1/480
f 406/1/481 407/1/482 369/1/483 398/1/484
f 89/1/251 117/1/250 96/1/429 90/1/110
f 32/1/374 40/1/182 16/1/181 4/1/485
f 218/1/486 217/1/415 210/1/470 215/1/487
f 226/1/384 227/1/385 218/1/486 222/1/359
f 84/1/398 88/1/399 73/1/109 79/1/488
f 202/1/214 253/1/213 250/1/232 243/1/201
f 126/1/477 470/1/478 134/1/292 127/1/294
f 254/1/351 261/1/397 260/1/331 255/1/352
f 336/1/40 357/1/39 356/1/489 348/1/322
f 58/1/86 79/1/488 73/1/109 66/1/87
f 287/1/303 288/1/14 268/1/13 280/1/304
f 389/1/54 393/1/53 387/1/417 386/1/440
f 416/1/389 421/1/419 411/1/155 412/1/390
f 218/1/486 227/1/385 223/1/407 217/1/415
f 111/1/381 133/1/236 106/1/235 105/1/467
f 276/1/490 282/1/491 277/1/492 270/1/332
f 701/1/493 708/1/446 704/1/494 702/1/495
f 137/1/394 154/1/4 157/1/3 128/1/435
f 317/1/496 337/1/41 336/1/40 331/1/324
f 101/1/179 450/1/433 94/1/432 93/1/180
f 94/1/432 87/1/131 48/1/343 93/1/180
f 208/1/358 209/1/361 143/1/255 203/1/184
f 262/1/447 280/1/304 268/1/13 261/1/397
f 707/1/443 713/1/497 714/1/498 711/1/444
f 159/1/277 151/1/499 140/1/233 158/1/56
f 456/1/500 472/1/501 466/1/309 459/1/310
f 103/1/466 105/1/467 69/1/502 97/1/503
f 251/1/271 273/1/318 271/1/122 266/1/125
f 86/1/132 437/1/312 82/1/311 83/1/133
f 408/1/387 412/1/390 405/1/268 404/1/504
f 497/1/145 498/1/147 462/1/375 491/1/505
f 440/1/297 474/1/393 445/1/506 441/1/507
f 587/1/334 589/1/337 580/1/508 588/1/509
f 718/1/510 741/1/511 726/1/43 720/1/46
f 259/1/224 293/1/226 290/1/512 286/1/231
f 67/1/111 97/1/503 69/1/502 68/1/339
f 308/1/23 328/1/48 307/1/69 303/1/24
f 263/1/513 269/1/514 262/1/447
f 751/1/278 752/1/515 735/1/516 746/1/517
f 823/1/276 824/1/275 827/1/518 825/1/282
f 503/1/82 570/1/146 569/1/519 562/1/83
f 147/1/367 148/1/258 112/1/257 141/1/234
f 509/1/84 557/1/520 516/1/521 510/1/306
f 208/1/358 230/1/262 226/1/384 222/1/359
f 269/1/514 272/1/123 262/1/447
f 43/1/168 49/1/136 42/1/112 35/1/169
f 375/1/413 381/1/135 377/1/100 378/1/522
f 557/1/520 563/1/523 564/1/325 558/1/328
f 492/1/524 523/1/525 499/1/526 493/1/527
f 96/1/429 97/1/503 67/1/111 90/1/110
f 69/1/502 104/1/291 74/1/148 70/1/151
f 276/1/490 281/1/528 282/1/491
f 16/1/181 47/1/19 25/1/529 17/1/530
f 516/1/521 558/1/328 556/1/327 549/1/531
f 250/1/232 279/1/409 249/1/202 243/1/201
f 347/1/532 354/1/533 335/1/534 341/1/436
f 130/1/320 171/1/161 124/1/160 123/1/535
f 135/1/330 169/1/60 149/1/185 142/1/256
f 665/1/536 556/1/327 572/1/326 581/1/537
f 447/1/227 448/1/230 442/1/265 443/1/434
f 86/1/132 443/1/434 442/1/265 437/1/312
f 265/1/124 267/1/538 238/1/128 258/1/127
f 509/1/84 510/1/306 489/1/305 504/1/85
f 185/1/395 192/1/108 190/1/539 191/1/540
f 14/1/541 23/1/428 15/1/72 8/1/71
f 24/1/427 83/1/133 82/1/311 77/1/542
f 150/1/366 155/1/11 156/1/1 154/1/4
f 442/1/265 444/1/267 425/1/313 437/1/312
f 312/1/543 331/1/324 330/1/323 323/1/438
f 503/1/82 504/1/85 468/1/457 498/1/147
f 194/1/94 201/1/92 202/1/214 200/1/263
f 516/1/521 522/1/448 502/1/307 510/1/306
f 302/1/301 620/1/544 281/1/528 296/1/302
f 15/1/72 23/1/428 24/1/427 19/1/545
f 184/1/546 198/1/329 178/1/319 177/1/321
f 138/1/63 183/1/547 184/1/546 177/1/321
f 483/1/338 491/1/505 471/1/548 477/1/245
f 19/1/545 20/1/391 11/1/73 15/1/72
f 499/1/526 500/1/549 479/1/550 493/1/527
f 335/1/534 353/1/463 316/1/462 329/1/551
f 462/1/375 498/1/147 468/1/457 463/1/376
f 369/1/483 407/1/482 363/1/552 365/1/253
f 7/1/74 10/1/32 6/1/29 2/1/349
f 11/1/73 18/1/42 10/1/32 7/1/74
f 314/1/159 167/1/80 12/1/30
f 475/1/451 495/1/308 490/1/553 482/1/554
f 502/1/307 512/1/450 490/1/553 495/1/308
f 347/1/532 368/1/555 362/1/215 354/1/533
f 70/1/151 75/1/150 54/1/17 61/1/340
f 417/1/410 424/1/314 425/1/313 423/1/411
f 314/1/159 12/1/30 321/1/49
f 453/1/229 469/1/476 464/1/556 457/1/424
f 801/1/77 802/1/480 795/1/557 794/1/558
f 275/1/15 276/1/490 270/1/332 274/1/16
f 5/1/370 32/1/374 4/1/485 1/1/350
f 424/1/314 72/1/5 77/1/542 82/1/311
f 72/1/5 424/1/314 417/1/410 409/1/6
f 132/1/57 158/1/56 140/1/233 133/1/236
f 321/1/49 12/1/30 327/1/47
f 464/1/556 472/1/501 456/1/500 457/1/424
f 449/1/266 457/1/424 456/1/500 451/1/559
f 477/1/245 471/1/548 470/1/478 476/1/246
f 401/1/560 403/1/426 408/1/387 404/1/504
f 28/1/561 34/1/93 26/1/65 20/1/391
f 327/1/47 12/1/30 333/1/383
f 303/1/24 307/1/69 298/1/68 297/1/37
f 490/1/553 496/1/562 478/1/563 482/1/554
f 478/1/563 496/1/562 492/1/524 485/1/564
f 422/1/418 451/1/559 428/1/565 421/1/419
f 456/1/500 459/1/310 428/1/565 451/1/559
f 36/1/8 35/1/169 28/1/561 27/1/566
f 35/1/169 42/1/112 34/1/93 28/1/561
f 333/1/383 12/1/30 339/1/117
f 428/1/565 429/1/156 411/1/155 421/1/419
f 339/1/117 340/1/114 334/1/70 333/1/383
f 9/1/412 17/1/530 14/1/541 8/1/71
f 759/1/567 781/1/568 766/1/569 758/1/401
f 67/1/111 68/1/339 60/1/88 66/1/87
f 339/1/117 12/1/30 346/1/118
f 455/1/377 454/1/228 447/1/227 450/1/433
f 478/1/563 485/1/564 466/1/309 472/1/501
f 43/1/168 64/1/7 65/1/570 56/1/571
f 64/1/7 409/1/6 402/1/425 65/1/570
f 409/1/6 417/1/410 415/1/388 402/1/425
f 346/1/118 12/1/30 352/1/373
f 56/1/571 57/1/154 49/1/136 43/1/168
f 225/1/190 228/1/212 220/1/572 219/1/416
f 428/1/565 459/1/310 435/1/295 429/1/156
f 122/1/249 131/1/64 130/1/320 123/1/535
f 516/1/521 549/1/531 527/1/573 522/1/448
f 4/1/485 9/1/412 2/1/349 1/1/350
f 352/1/373 12/1/30 360/1/371
f 56/1/571 390/1/574 63/1/167 57/1/154
f 466/1/309 485/1/564 473/1/392 467/1/296
f 492/1/524 493/1/527 473/1/392 485/1/564
f 484/1/244 618/1/243 610/1/575 603/1/576
f 435/1/295 436/1/298 418/1/157 429/1/156
f 25/1/529 62/1/344 48/1/343 41/1/442
f 405/1/268 412/1/390 411/1/155 410/1/158
f 65/1/570 395/1/577 390/1/574 56/1/571
f 63/1/167 390/1/574 388/1/51 382/1/578
f 360/1/371 12/1/30 367/1/290
f 376/1/579 398/1/484 369/1/483 370/1/580
f 418/1/157 419/1/581 399/1/269 410/1/158
f 396/1/347 404/1/504 405/1/268 400/1/270
f 367/1/290 12/1/30 373/1/287
f 382/1/578 388/1/51 389/1/54 383/1/439
f 170/1/162 193/1/106 179/1/105 181/1/170
f 376/1/579 400/1/270 399/1/269 398/1/484
f 364/1/252 372/1/103 371/1/102 370/1/580
f 238/1/128 239/1/26 231/1/25 232/1/129
f 401/1/560 404/1/504 396/1/347 397/1/346
f 395/1/577 403/1/426 401/1/560 394/1/52
f 373/1/287 12/1/30 379/1/441
f 162/1/2 169/1/60 135/1/330 157/1/3
f 390/1/574 395/1/577 394/1/52 388/1/51
f 292/1/225 326/1/67 325/1/188 320/1/354
f 12/1/30 63/1/167 382/1/578
f 12/1/30 383/1/439 379/1/441
f 12/1/30 382/1/578 383/1/439
f 401/1/560 397/1/346 393/1/53 394/1/52
f 379/1/441 386/1/440 380/1/288 373/1/287
f 14/1/541 41/1/442 33/1/130 23/1/428
f 174/1/81 182/1/36 175/1/12 168/1/10
f 27/1/566 77/1/542 72/1/5 36/1/8
f 380/1/288 386/1/440 387/1/417 385/1/134
f 343/1/116 349/1/187 350/1/315 345/1/189
f 393/1/53 397/1/346 391/1/345 387/1/417
f 136/1/97 145/1/121 144/1/353 137/1/394
f 94/1/432 443/1/434 86/1/132 87/1/131
f 380/1/288 385/1/134 381/1/135 374/1/289
f 714/1/498 720/1/46 719/1/45 715/1/406
f 391/1/345 392/1/348 371/1/102 384/1/101
f 371/1/102 392/1/348 376/1/579 370/1/580
f 362/1/215 432/1/218 355/1/468 354/1/533
f 55/1/18 62/1/344 25/1/529 47/1/19
f 374/1/289 381/1/135 375/1/413 366/1/372
f 122/1/249 123/1/535 118/1/380 117/1/250
f 352/1/373 361/1/186 344/1/115 346/1/118
f 375/1/413 378/1/522 350/1/315 349/1/187
f 363/1/552 414/1/582 356/1/489 357/1/39
f 364/1/252 370/1/580 369/1/483 365/1/253
f 399/1/269 419/1/581 406/1/481 398/1/484
f 285/1/408 306/1/583 305/1/237 301/1/240
f 358/1/584 378/1/522 377/1/100 372/1/103
f 350/1/315 378/1/522 358/1/584 351/1/316
f 358/1/584 372/1/103 364/1/252 359/1/254
f 194/1/94 200/1/263 199/1/183 195/1/95
f 461/1/475 469/1/476 453/1/229 454/1/228
f 418/1/157 436/1/298 426/1/585 419/1/581
f 358/1/584 359/1/254 324/1/586 351/1/316
f 324/1/586 359/1/254 342/1/38 337/1/41
f 402/1/425 403/1/426 395/1/577 65/1/570
f 319/1/317 351/1/316 324/1/586 318/1/431
f 235/1/209 241/1/153 242/1/200 236/1/210
f 342/1/38 365/1/253 363/1/552 357/1/39
f 220/1/572 228/1/212 229/1/211 221/1/587
f 107/1/98 136/1/97 137/1/394 128/1/435
f 440/1/297 441/1/507 426/1/585 436/1/298
f 138/1/63 177/1/321 130/1/320 131/1/64
f 324/1/586 337/1/41 317/1/496 318/1/431
f 187/1/34 201/1/92 194/1/94 188/1/35
f 292/1/225 320/1/354 299/1/430 293/1/226
f 299/1/430 318/1/431 317/1/496 313/1/588
f 413/1/589 414/1/582 363/1/552 407/1/482
f 406/1/481 427/1/590 413/1/589 407/1/482
f 132/1/57 133/1/236 111/1/381 125/1/286
f 124/1/160 125/1/286 118/1/380 123/1/535
f 426/1/585 441/1/507 430/1/591 427/1/590
f 776/1/455 803/1/78 780/1/592 775/1/456
f 473/1/392 493/1/527 479/1/550 474/1/393
f 782/1/593 812/1/207 776/1/455 777/1/454
f 78/1/194 79/1/488 58/1/86 52/1/341
f 445/1/506 446/1/594 430/1/591 441/1/507
f 115/1/61 116/1/248 95/1/241 114/1/142
f 479/1/550 480/1/595 445/1/506 474/1/393
f 780/1/592 794/1/558 789/1/596 781/1/568
f 413/1/589 431/1/597 420/1/598 414/1/582
f 414/1/582 420/1/598 368/1/555 356/1/489
f 189/1/599 206/1/473 184/1/546 183/1/547
f 298/1/68 326/1/67 292/1/225 291/1/90
f 299/1/430 313/1/588 290/1/512 293/1/226
f 431/1/597 438/1/464 433/1/216 420/1/598
f 597/1/460 615/1/600 619/1/601 611/1/461
f 250/1/232 286/1/231 285/1/408 279/1/409
f 115/1/61 131/1/64 122/1/249 116/1/248
f 290/1/512 313/1/588 312/1/543 306/1/583
f 317/1/496 331/1/324 312/1/543 313/1/588
f 445/1/506 480/1/595 452/1/602 446/1/594
f 430/1/591 446/1/594 438/1/464 431/1/597
f 305/1/237 323/1/438 322/1/437 315/1/238
f 312/1/543 323/1/438 305/1/237 306/1/583
f 449/1/266 451/1/559 422/1/418 444/1/267
f 300/1/239 315/1/238 310/1/603 304/1/604
f 197/1/107 205/1/474 190/1/539 192/1/108
f 99/1/99 102/1/242 84/1/398 92/1/193
f 223/1/407 232/1/129 231/1/25 224/1/191
f 300/1/239 304/1/604 287/1/303 294/1/285
f 476/1/246 628/1/356 616/1/355 618/1/243
f 134/1/292 470/1/478 471/1/548 465/1/293
f 260/1/331 264/1/333 256/1/605 255/1/352
f 426/1/585 427/1/590 406/1/481 419/1/581
f 356/1/489 368/1/555 347/1/532 348/1/322
f 330/1/323 348/1/322 347/1/532 341/1/436
f 290/1/512 306/1/583 285/1/408 286/1/231
f 475/1/451 482/1/554 464/1/556 469/1/476
f 703/1/606 723/1/607 718/1/510 713/1/497
f 748/1/608 749/1/609 726/1/43 741/1/511
f 157/1/3 135/1/330 129/1/140 128/1/435
f 420/1/598 433/1/216 362/1/215 368/1/555
f 322/1/437 329/1/551 310/1/603 315/1/238
f 464/1/556 482/1/554 478/1/563 472/1/501
f 468/1/457 481/1/452 461/1/475 463/1/376
f 25/1/529 41/1/442 14/1/541 17/1/530
f 455/1/377 463/1/376 461/1/475 454/1/228
f 322/1/437 341/1/436 335/1/534 329/1/551
f 58/1/86 59/1/89 38/1/164 52/1/341
f 89/1/251 90/1/110 73/1/109 88/1/399
f 182/1/36 188/1/35 176/1/59 175/1/12
f 237/1/204 200/1/263 202/1/214 243/1/201
f 425/1/313 444/1/267 422/1/418 423/1/411
f 310/1/603 329/1/551 316/1/462 311/1/300
f 647/1/610 648/1/611 640/1/612 646/1/613
f 486/1/614 487/1/615 452/1/602 480/1/595
f 479/1/550 500/1/549 486/1/614 480/1/595
f 316/1/462 611/1/461 302/1/301 311/1/300
f 220/1/572 221/1/587 196/1/616 213/1/617
f 430/1/591 431/1/597 413/1/589 427/1/590
f 220/1/572 213/1/617 212/1/618 219/1/416
f 247/1/152 255/1/352 256/1/605 248/1/199
f 335/1/534 354/1/533 355/1/468 353/1/463
f 593/1/619 601/1/620 600/1/621 595/1/622
f 494/1/623 508/1/421 488/1/420 487/1/615
f 53/1/264 61/1/340 54/1/17 46/1/20
f 143/1/255 183/1/547 138/1/63 139/1/62
f 434/1/217 501/1/423 439/1/459 432/1/218
f 439/1/459 591/1/469 355/1/468 432/1/218
f 78/1/194 92/1/193 84/1/398 79/1/488
f 488/1/420 501/1/423 434/1/217 460/1/465
f 126/1/477 127/1/294 81/1/272 120/1/174
f 95/1/241 116/1/248 89/1/251 88/1/399
f 548/1/624 657/1/625 543/1/626 542/1/627
f 640/1/612 638/1/628 632/1/629 639/1/630
f 505/1/631 506/1/632 486/1/614 500/1/549
f 499/1/526 524/1/633 505/1/631 500/1/549
f 172/1/171 181/1/170 179/1/105 180/1/396
f 509/1/84 562/1/83 563/1/523 557/1/520
f 204/1/472 211/1/471 212/1/618 205/1/474
f 310/1/603 311/1/300 295/1/299 304/1/604
f 621/1/634 622/1/635 613/1/636 614/1/637
f 515/1/638 508/1/421 494/1/623 514/1/639
f 505/1/631 519/1/640 513/1/641 506/1/632
f 581/1/537 669/1/642 664/1/643 665/1/536
f 275/1/15 296/1/302 281/1/528 276/1/490
f 24/1/427 77/1/542 27/1/566 19/1/545
f 619/1/601 620/1/544 302/1/301 611/1/461
f 212/1/618 213/1/617 190/1/539 205/1/474
f 518/1/644 566/1/645 515/1/638 514/1/639
f 525/1/646 532/1/647 520/1/648 519/1/640
f 538/1/649 539/1/650 520/1/648 532/1/647
f 582/1/651 583/1/458 507/1/422 574/1/652
f 573/1/653 602/1/654 582/1/651 574/1/652
f 565/1/655 595/1/622 573/1/653 566/1/645
f 565/1/655 566/1/645 518/1/644 560/1/656
f 619/1/601 622/1/635 623/1/657 620/1/544
f 623/1/657 624/1/658 281/1/528 620/1/544
f 658/1/659 659/1/660 654/1/661 653/1/662
f 210/1/470 217/1/415 216/1/414 211/1/471
f 598/1/663 601/1/620 593/1/619 594/1/664
f 607/1/665 609/1/666 582/1/651 602/1/654
f 607/1/665 614/1/637 613/1/636 609/1/666
f 540/1/667 542/1/627 536/1/668 535/1/669
f 613/1/636 622/1/635 619/1/601 615/1/600
f 612/1/670 614/1/637 607/1/665 608/1/671
f 536/1/668 537/1/672 531/1/673 535/1/669
f 600/1/621 602/1/654 573/1/653 595/1/622
f 550/1/674 660/1/675 548/1/624 547/1/676
f 541/1/677 545/1/678 538/1/649 537/1/672
f 612/1/670 626/1/679 621/1/634 614/1/637
f 606/1/680 608/1/671 600/1/621 601/1/620
f 552/1/681 567/1/682 561/1/683 554/1/684
f 632/1/629 626/1/679 612/1/670 631/1/685
f 505/1/631 524/1/633 525/1/646 519/1/640
f 593/1/619 595/1/622 565/1/655 586/1/686
f 621/1/634 626/1/679 627/1/687 625/1/688
f 632/1/629 638/1/628 627/1/687 626/1/679
f 629/1/689 624/1/658 623/1/657 625/1/688
f 627/1/687 634/1/690 629/1/689 625/1/688
f 600/1/621 608/1/671 607/1/665 602/1/654
f 654/1/661 655/1/691 551/1/692 653/1/662
f 527/1/573 549/1/531 550/1/674 547/1/676
f 637/1/693 598/1/663 599/1/694 605/1/695
f 584/1/696 594/1/664 593/1/619 586/1/686
f 121/1/141 142/1/256 143/1/255 139/1/62
f 533/1/697 535/1/669 531/1/673 530/1/698
f 516/1/521 557/1/520 558/1/328
f 555/1/699 553/1/700 546/1/701 554/1/684
f 559/1/702 586/1/686 565/1/655 560/1/656
f 592/1/703 599/1/694 598/1/663 594/1/664
f 667/1/704 662/1/705 661/1/706 666/1/707
f 596/1/336 604/1/335 484/1/244 603/1/576
f 779/1/219 787/1/222 770/1/708 772/1/709
f 283/1/710 284/1/711 277/1/492 282/1/491
f 520/1/648 539/1/650 526/1/712 521/1/713
f 513/1/641 514/1/639 494/1/623 506/1/632
f 254/1/351 263/1/513 262/1/447 261/1/397
f 610/1/575 618/1/243 616/1/355 617/1/714
f 670/1/715 671/1/716 667/1/704 666/1/707
f 520/1/648 521/1/713 513/1/641 519/1/640
f 672/1/717 668/1/718 667/1/704 671/1/716
f 576/1/719 585/1/720 584/1/696 577/1/721
f 245/1/143 263/1/513 254/1/351 246/1/144
f 570/1/146 578/1/722 569/1/519
f 571/1/723 569/1/519 580/1/508
f 613/1/636 615/1/600 590/1/724 609/1/666
f 575/1/725 656/1/726 551/1/692 655/1/691
f 647/1/610 651/1/727 649/1/728 648/1/611
f 555/1/699 577/1/721 559/1/702 553/1/700
f 550/1/674 665/1/536 664/1/643 660/1/675
f 265/1/124 272/1/123 269/1/514 267/1/538
f 793/1/729 800/1/261 786/1/221 788/1/220
f 569/1/519 578/1/722 588/1/509
f 569/1/519 588/1/509 580/1/508
f 703/1/606 713/1/497 707/1/443 700/1/730
f 529/1/731 530/1/698 525/1/646 524/1/633
f 529/1/731 524/1/633 499/1/526 523/1/525
f 561/1/683 568/1/732 555/1/699 554/1/684
f 633/1/733 643/1/734 642/1/735 635/1/736
f 559/1/702 560/1/656 526/1/712 553/1/700
f 109/1/273 458/1/378 101/1/179 100/1/178
f 511/1/737 528/1/738 529/1/731 523/1/525
f 511/1/737 523/1/525 492/1/524 496/1/562
f 490/1/553 512/1/450 511/1/737 496/1/562
f 283/1/710 630/1/739 289/1/740 284/1/711
f 552/1/681 554/1/684 546/1/701 545/1/678
f 486/1/614 506/1/632 494/1/623 487/1/615
f 538/1/649 545/1/678 546/1/701 539/1/650
f 174/1/81 309/1/22 186/1/21 182/1/36
f 552/1/681 656/1/726 575/1/725 567/1/682
f 606/1/680 631/1/685 612/1/670 608/1/671
f 656/1/726 552/1/681 545/1/678 541/1/677
f 538/1/649 532/1/647 531/1/673 537/1/672
f 526/1/712 560/1/656 518/1/644 521/1/713
f 396/1/347 400/1/270 376/1/579 392/1/348
f 582/1/651 609/1/666 590/1/724 583/1/458
f 536/1/668 544/1/741 541/1/677 537/1/672
f 528/1/738 533/1/697 530/1/698 529/1/731
f 573/1/653 574/1/652 515/1/638 566/1/645
f 39/1/205 53/1/264 46/1/20 40/1/182
f 96/1/429 110/1/382 103/1/466 97/1/503
f 821/1/742 822/1/743 813/1/744 817/1/745
f 238/1/128 267/1/538 245/1/143 239/1/26
f 189/1/599 215/1/487 210/1/470 206/1/473
f 452/1/602 487/1/615 488/1/420 460/1/465
f 517/1/449 528/1/738 511/1/737 512/1/450
f 548/1/624 542/1/627 540/1/667 547/1/676
f 540/1/667 535/1/669 533/1/697 534/1/746
f 636/1/747 639/1/630 632/1/629 631/1/685
f 119/1/173 628/1/356 126/1/477 120/1/174
f 527/1/573 547/1/676 540/1/667 534/1/746
f 634/1/690 627/1/687 638/1/628 641/1/748
f 556/1/327 665/1/536 550/1/674 549/1/531
f 606/1/680 637/1/693 636/1/747 631/1/685
f 621/1/634 625/1/688 623/1/657 622/1/635
f 190/1/539 213/1/617 196/1/616 191/1/540
f 590/1/724 591/1/469 439/1/459 583/1/458
f 513/1/641 521/1/713 518/1/644 514/1/639
f 641/1/748 643/1/734 633/1/733 634/1/690
f 543/1/626 653/1/662 551/1/692 544/1/741
f 551/1/692 656/1/726 541/1/677 544/1/741
f 515/1/638 574/1/652 507/1/422 508/1/421
f 658/1/659 653/1/662 543/1/626 657/1/625
f 517/1/449 534/1/746 533/1/697 528/1/738
f 548/1/624 660/1/675 661/1/706 657/1/625
f 664/1/643 666/1/707 661/1/706 660/1/675
f 670/1/715 666/1/707 664/1/643 669/1/642
f 452/1/602 460/1/465 438/1/464 446/1/594
f 543/1/626 544/1/741 536/1/668 542/1/627
f 663/1/749 659/1/660 658/1/659 662/1/705
f 546/1/701 553/1/700 526/1/712 539/1/650
f 667/1/704 668/1/718 663/1/749 662/1/705
f 531/1/673 532/1/647 525/1/646 530/1/698
f 598/1/663 637/1/693 606/1/680 601/1/620
f 636/1/747 645/1/750 644/1/751 639/1/630
f 605/1/695 645/1/750 636/1/747 637/1/693
f 644/1/751 646/1/613 640/1/612 639/1/630
f 590/1/724 615/1/600 597/1/460 591/1/469
f 661/1/706 662/1/705 658/1/659 657/1/625
f 640/1/612 648/1/611 641/1/748 638/1/628
f 527/1/573 534/1/746 517/1/449 522/1/448
f 584/1/696 586/1/686 559/1/702 577/1/721
f 629/1/689 634/1/690 633/1/733 630/1/739
f 633/1/733 635/1/736 289/1/740 630/1/739
f 641/1/748 648/1/611 649/1/728 643/1/734
f 629/1/689 630/1/739 283/1/710 624/1/658
f 592/1/703 594/1/664 584/1/696 585/1/720
f 649/1/728 650/1/752 642/1/735 643/1/734
f 649/1/728 651/1/727 652/1/753 650/1/752
f 673/1/754 674/1/755 675/1/756
f 673/1/754 675/1/756 676/1/757
f 674/1/755 677/1/758 675/1/756
f 674/1/755 678/1/759 677/1/758
f 675/1/756 679/1/760 676/1/757
f 675/1/756 677/1/758 679/1/760
f 676/1/757 679/1/760 680/1/761
f 678/1/759 681/1/762 677/1/758
f 680/1/761 679/1/760 682/1/763
f 681/1/762 683/1/764 677/1/758
f 682/1/763 679/1/760 684/1/765
f 683/1/764 685/1/766 677/1/758
f 684/1/765 679/1/760 686/1/767
f 685/1/766 687/1/768 677/1/758
f 685/1/766 688/1/769 687/1/768
f 686/1/767 679/1/760 689/1/770
f 687/1/768 690/1/771 677/1/758
f 689/1/770 679/1/760 691/1/772
f 690/1/771 692/1/773 677/1/758
f 691/1/772 679/1/760 693/1/774
f 692/1/773 694/1/775 677/1/758
f 679/1/760 695/1/776 693/1/774
f 679/1/760 696/1/777 695/1/776
f 679/1/760 677/1/758 697/1/778
f 679/1/760 698/1/779 696/1/777
f 679/1/760 697/1/778 698/1/779
f 694/1/775 699/1/780 677/1/758
f 677/1/758 700/1/730 701/1/493
f 677/1/758 701/1/493 702/1/495
f 677/1/758 702/1/495 697/1/778
f 677/1/758 703/1/606 700/1/730
f 697/1/778 702/1/495 704/1/494
f 730/1/781 739/1/782 732/1/783 731/1/784
f 697/1/778 704/1/494 705/1/445
f 699/1/780 706/1/785 677/1/758
f 740/1/786 764/1/787 734/1/788 733/1/789
f 140/1/233 151/1/499 147/1/367 141/1/234
f 704/1/494 708/1/446 705/1/445
f 729/1/790 754/1/791 740/1/786 739/1/782
f 705/1/445 709/1/792 710/1/793
f 705/1/445 711/1/444 709/1/792
f 706/1/785 712/1/794 677/1/758
f 762/1/795 764/1/787 740/1/786 754/1/791
f 773/1/796 783/1/797 778/1/280 774/1/279
f 709/1/792 716/1/405 710/1/793
f 709/1/792 715/1/406 716/1/405
f 712/1/794 717/1/798 677/1/758
f 762/1/795 785/1/799 784/1/800 764/1/787
f 784/1/800 797/1/801 734/1/788 764/1/787
f 763/1/802 772/1/709 770/1/708 771/1/803
f 770/1/708 785/1/799 762/1/795 771/1/803
f 717/1/798 722/1/804 677/1/758
f 784/1/800 804/1/805 805/1/806 797/1/801
f 770/1/708 787/1/222 792/1/807 785/1/799
f 792/1/807 804/1/805 784/1/800 785/1/799
f 69/1/502 70/1/151 61/1/340 68/1/339
f 722/1/804 729/1/790 730/1/781
f 722/1/804 731/1/784 677/1/758
f 722/1/804 730/1/781 731/1/784
f 677/1/758 731/1/784 732/1/783
f 732/1/783 739/1/782 740/1/786 733/1/789
f 677/1/758 732/1/783 733/1/789
f 677/1/758 733/1/789 734/1/788
f 109/1/273 465/1/293 462/1/375 458/1/378
f 718/1/510 720/1/46 714/1/498 713/1/497
f 798/1/274 814/1/198 806/1/197 799/1/808
f 81/1/272 100/1/178 71/1/177 76/1/247
f 604/1/335 587/1/334 579/1/809 483/1/338
f 730/1/781 729/1/790 739/1/782
f 707/1/443 708/1/446 701/1/493 700/1/730
f 569/1/519 571/1/723 563/1/523 562/1/83
f 471/1/548 491/1/505 462/1/375 465/1/293
f 245/1/143 267/1/538 269/1/514 263/1/513
f 810/1/75 820/1/206 818/1/283 811/1/76
f 790/1/810 791/1/811 783/1/797 773/1/796
f 74/1/148 113/1/176 85/1/175 80/1/149
f 792/1/807 808/1/260 813/1/744 804/1/805
f 782/1/593 816/1/196 815/1/195 812/1/207
f 617/1/714 616/1/355 173/1/357 166/1/386
f 827/1/518 824/1/275 805/1/806 822/1/743
f 729/1/790 755/1/812 754/1/791
f 729/1/790 756/1/813 755/1/812
f 588/1/509 578/1/722 579/1/809 587/1/334
f 813/1/744 822/1/743 805/1/806 804/1/805
f 16/1/181 17/1/530 9/1/412 4/1/485
f 821/1/742 828/1/814 827/1/518 822/1/743
f 807/1/259 817/1/745 813/1/744 808/1/260
f 249/1/202 273/1/318 251/1/271 244/1/203
f 714/1/498 715/1/406 709/1/792 711/1/444
f 756/1/813 763/1/802 755/1/812
f 776/1/455 812/1/207 810/1/75 803/1/78
f 237/1/204 244/1/203 226/1/384 230/1/262
f 216/1/414 219/1/416 212/1/618 211/1/471
f 3/1/31 13/1/33 5/1/370 1/1/350
f 19/1/545 27/1/566 28/1/561 20/1/391
f 763/1/802 771/1/803 755/1/812
f 106/1/235 104/1/291 69/1/502 105/1/467
f 85/1/175 120/1/174 81/1/272 80/1/149
f 768/1/453 775/1/456 759/1/567 760/1/815
f 827/1/518 828/1/814 826/1/816 825/1/282
f 826/1/816 819/1/817 818/1/283 825/1/282
f 719/1/45 727/1/44 728/1/818 721/1/404
f 780/1/592 781/1/568 759/1/567 775/1/456
f 249/1/202 279/1/409 278/1/284 273/1/318
f 750/1/400 760/1/815 759/1/567 758/1/401
f 497/1/145 579/1/809 578/1/722 570/1/146
f 771/1/803 762/1/795 754/1/791 755/1/812
f 737/1/819 738/1/820 728/1/818 727/1/44
f 780/1/592 803/1/78 801/1/77 794/1/558
f 295/1/299 296/1/302 275/1/15 288/1/14
f 818/1/283 819/1/817 809/1/479 811/1/76
f 483/1/338 579/1/809 497/1/145 491/1/505
f 726/1/43 749/1/609 737/1/819 727/1/44
f 39/1/205 40/1/182 32/1/374 31/1/165
f 823/1/276 820/1/206 815/1/195 814/1/198
f 737/1/819 753/1/821 747/1/822 738/1/820
f 184/1/546 206/1/473 204/1/472 198/1/329
f 703/1/606 725/1/365 724/1/364 723/1/607
f 795/1/557 796/1/823 789/1/596 794/1/558
f 287/1/303 304/1/604 295/1/299 288/1/14
f 735/1/516 741/1/511 718/1/510 723/1/607
f 724/1/364 746/1/517 735/1/516 723/1/607
f 786/1/221 808/1/260 792/1/807 787/1/222
f 757/1/824 753/1/821 737/1/819 749/1/609
f 789/1/596 796/1/823 791/1/811 790/1/810
f 143/1/255 209/1/361 189/1/599 183/1/547
f 789/1/596 790/1/810 766/1/569 781/1/568
f 214/1/360 215/1/487 189/1/599 209/1/361
f 748/1/608 765/1/825 757/1/824 749/1/609
f 735/1/516 752/1/515 748/1/608 741/1/511
f 736/1/362 744/1/403 743/1/402 742/1/363
f 281/1/528 624/1/658 283/1/710 282/1/491
f 766/1/569 767/1/826 743/1/402 758/1/401
f 766/1/569 790/1/810 773/1/796 767/1/826
f 214/1/360 222/1/359 218/1/486 215/1/487
f 761/1/827 765/1/825 748/1/608 752/1/515
f 745/1/828 746/1/517 724/1/364 742/1/363
f 743/1/402 767/1/826 745/1/828 742/1/363
f 773/1/796 774/1/279 745/1/828 767/1/826
f 798/1/274 799/1/808 734/1/788 797/1/801
f 805/1/806 824/1/275 798/1/274 797/1/801
f 152/1/368 173/1/357 119/1/173 148/1/258
f 745/1/828 774/1/279 751/1/278 746/1/517
f 751/1/278 769/1/281 761/1/827 752/1/515
f 576/1/719 577/1/721 555/1/699 568/1/732
