# Blender 4.3.2
# www.blender.org
o hair.129
v 7.849776 0.514957 -0.012329
v 7.849240 0.515420 -0.011442
v 7.852904 0.514776 -0.010624
v 7.844915 0.514579 -0.014811
v 7.850009 0.514427 -0.013337
v 7.851015 0.516214 -0.007859
v 7.852095 0.515538 -0.009168
v 7.848629 0.515860 -0.010597
v 7.855781 0.515297 -0.005947
v 7.854140 0.516266 -0.004045
v 7.847764 0.516178 -0.009981
v 7.852010 0.517058 -0.002441
v 7.849607 0.516754 -0.006803
v 7.859150 0.514416 -0.002116
v 7.860676 0.512888 -0.005026
v 7.856962 0.514164 -0.008105
v 7.857048 0.515683 0.000401
v 7.846863 0.516463 -0.009430
v 7.848064 0.517173 -0.005981
v 7.849647 0.517655 -0.001220
v 7.863613 0.510961 -0.001759
v 7.861675 0.511090 -0.008308
v 7.857695 0.512871 -0.010492
v 7.853361 0.513930 -0.012219
v 7.854329 0.516700 0.002506
v 7.859271 0.514669 0.005407
v 7.845890 0.516589 -0.009186
v 7.862009 0.509208 -0.011732
v 7.857937 0.511511 -0.013000
v 7.853535 0.513049 -0.013879
v 7.861755 0.512982 0.002130
v 7.851266 0.517454 0.004097
v 7.850164 0.513887 -0.014363
v 7.865184 0.506454 -0.010281
v 7.861540 0.507434 -0.015062
v 7.857623 0.510173 -0.015525
v 7.853334 0.512164 -0.015571
v 7.849998 0.513343 -0.015405
v 7.864052 0.511093 0.006321
v 7.864787 0.508716 -0.006000
v 7.864712 0.504386 -0.014286
v 7.860424 0.505793 -0.018286
v 7.856779 0.508908 -0.017985
v 7.852817 0.511309 -0.017223
v 7.849742 0.512808 -0.016436
v 7.866206 0.508619 0.001573
v 7.867590 0.505911 -0.003564
v 7.867676 0.500856 -0.013283
v 7.863506 0.502494 -0.018046
v 7.855409 0.507768 -0.020298
v 7.851876 0.510541 -0.018727
v 7.849154 0.512343 -0.017338
v 7.867994 0.506475 0.004227
v 7.868112 0.503234 -0.008662
v 7.869574 0.503366 -0.001526
v 7.870222 0.500307 -0.007213
v 7.850728 0.509857 -0.020063
v 7.848508 0.511901 -0.018192
v 7.865610 0.509271 0.009481
v 7.861241 0.513144 0.010280
v 7.862562 0.511555 0.013834
v 7.871520 0.500145 0.000942
v 7.847697 0.511580 -0.018804
v 7.853712 0.506762 -0.022327
v 7.849451 0.509305 -0.021113
v 7.867050 0.506882 0.012879
v 7.857899 0.514572 0.013041
v 7.856236 0.515910 0.007810
v 7.848067 0.508875 -0.021914
v 7.846856 0.511293 -0.019347
v 7.856804 0.502979 -0.024168
v 7.851868 0.505909 -0.023921
v 7.869731 0.503741 0.007257
v 7.852760 0.516777 0.009485
v 7.845894 0.511170 -0.019574
v 7.849802 0.505261 -0.025069
v 7.846523 0.508639 -0.022352
v 7.854506 0.501821 -0.026302
v 7.851775 0.500931 -0.027802
v 7.870890 0.500997 0.009836
v 7.848116 0.517937 0.005072
v 7.847283 0.518026 -0.000483
v 7.844915 0.508547 -0.022521
v 7.844915 0.511086 -0.019725
v 7.847432 0.504885 -0.025740
v 7.844915 0.504762 -0.025961
v 7.848931 0.517355 0.010581
v 7.844915 0.518112 0.005405
v 7.844915 0.517573 0.010985
v 7.843307 0.508639 -0.022352
v 7.843935 0.511170 -0.019574
v 7.848481 0.500409 -0.028661
v 7.844915 0.500240 -0.028930
v 7.842398 0.504885 -0.025740
v 7.849618 0.516238 0.016145
v 7.854032 0.515542 0.014895
v 7.846493 0.517415 -0.005511
v 7.853308 0.496798 -0.029269
v 7.844915 0.495975 -0.030539
v 7.841349 0.500409 -0.028661
v 7.854865 0.514176 0.018919
v 7.859001 0.513115 0.016873
v 7.844915 0.518158 -0.000230
v 7.844915 0.517514 -0.005322
v 7.844915 0.516676 -0.009020
v 7.860021 0.511121 0.020680
v 7.863728 0.509401 0.017469
v 7.842547 0.518026 -0.000483
v 7.843337 0.517415 -0.005511
v 7.843940 0.516589 -0.009186
v 7.841713 0.517937 0.005072
v 7.864474 0.507104 0.020301
v 7.867992 0.504410 0.015632
v 7.838563 0.517454 0.004097
v 7.840183 0.517655 -0.001220
v 7.841765 0.517173 -0.005981
v 7.842967 0.516463 -0.009430
v 7.837070 0.516777 0.009485
v 7.840899 0.517355 0.010581
v 7.868696 0.501471 0.018235
v 7.835501 0.516700 0.002506
v 7.837820 0.517058 -0.002441
v 7.840223 0.516754 -0.006803
v 7.842065 0.516178 -0.009981
v 7.840211 0.516238 0.016145
v 7.832782 0.515683 0.000401
v 7.830559 0.514670 0.005407
v 7.833594 0.515910 0.007810
v 7.835690 0.516266 -0.004045
v 7.838815 0.516214 -0.007859
v 7.841201 0.515860 -0.010597
v 7.844915 0.516519 0.016620
v 7.830680 0.514416 -0.002116
v 7.834049 0.515297 -0.005947
v 7.831931 0.514572 0.013041
v 7.837735 0.515538 -0.009168
v 7.840590 0.515420 -0.011442
v 7.844915 0.515333 0.020841
v 7.850066 0.514988 0.020308
v 7.835798 0.515542 0.014895
v 7.836926 0.514776 -0.010624
v 7.840054 0.514957 -0.012329
v 7.834965 0.514176 0.018919
v 7.839764 0.514988 0.020308
v 7.850583 0.513478 0.024461
v 7.855793 0.512518 0.022947
v 7.839820 0.514427 -0.013337
v 7.832868 0.514164 -0.008105
v 7.836469 0.513930 -0.012219
v 7.839247 0.513478 0.024461
v 7.856498 0.510610 0.026044
v 7.860709 0.508945 0.023575
v 7.839666 0.513887 -0.014363
v 7.836295 0.513049 -0.013879
v 7.829154 0.512888 -0.005026
v 7.832135 0.512871 -0.010492
v 7.844915 0.513899 0.025054
v 7.861421 0.506385 0.026473
v 7.865075 0.504314 0.022969
v 7.839832 0.513343 -0.015405
v 7.826217 0.510961 -0.001759
v 7.828155 0.511090 -0.008308
v 7.828075 0.512982 0.002130
v 7.844915 0.512166 0.028294
v 7.850986 0.511687 0.027651
v 7.865877 0.501180 0.025771
v 7.827821 0.509208 -0.011732
v 7.824646 0.506454 -0.010281
v 7.825043 0.508716 -0.006000
v 7.825778 0.511093 0.006321
v 7.828589 0.513144 0.010280
v 7.851308 0.509174 0.030831
v 7.857065 0.508029 0.029108
v 7.822240 0.505911 -0.003564
v 7.831892 0.511511 -0.013000
v 7.827268 0.511555 0.013834
v 7.830829 0.513115 0.016873
v 7.857373 0.504781 0.032229
v 7.862051 0.503157 0.029315
v 7.823624 0.508619 0.001573
v 7.832207 0.510173 -0.015525
v 7.836496 0.512164 -0.015571
v 7.829809 0.511121 0.020680
v 7.834037 0.512518 0.022947
v 7.862497 0.498998 0.032132
v 7.821836 0.506475 0.004227
v 7.824220 0.509271 0.009481
v 7.828290 0.507434 -0.015062
v 7.837013 0.511309 -0.017223
v 7.833332 0.510610 0.026044
v 7.838844 0.511687 0.027651
v 7.822780 0.506882 0.012879
v 7.826102 0.509401 0.017469
v 7.829406 0.505793 -0.018286
v 7.825118 0.504386 -0.014286
v 7.833051 0.508908 -0.017985
v 7.838521 0.509174 0.030831
v 7.844915 0.509696 0.031529
v 7.825356 0.507104 0.020301
v 7.829121 0.508945 0.023575
v 7.826324 0.502494 -0.018046
v 7.822154 0.500856 -0.013283
v 7.834421 0.507768 -0.020298
v 7.837954 0.510541 -0.018727
v 7.844915 0.506288 0.034645
v 7.851315 0.504785 0.034587
v 7.828409 0.506385 0.026473
v 7.821718 0.503234 -0.008662
v 7.839102 0.509857 -0.020063
v 7.840676 0.512343 -0.017338
v 7.840087 0.512808 -0.016436
v 7.856263 0.499900 0.035390
v 7.859021 0.499627 0.034667
v 7.832765 0.508029 0.029108
v 7.819608 0.500307 -0.007213
v 7.820256 0.503366 -0.001526
v 7.858704 0.495278 0.035643
v 7.832457 0.504781 0.032229
v 7.838514 0.504785 0.034587
v 7.818310 0.500145 0.000942
v 7.820098 0.503741 0.007257
v 7.827778 0.503157 0.029315
v 7.823953 0.501180 0.025771
v 7.824755 0.504314 0.022969
v 7.844915 0.502257 0.037098
v 7.818940 0.500997 0.009836
v 7.821837 0.504410 0.015632
v 7.827332 0.498998 0.032132
v 7.821134 0.501471 0.018235
v 7.850033 0.501094 0.036701
v 7.818150 0.497825 0.012321
v 7.817041 0.497003 0.003177
v 7.816250 0.493512 0.005438
v 7.833567 0.499900 0.035390
v 7.830809 0.499627 0.034667
v 7.817677 0.494419 0.014702
v 7.820700 0.498120 0.020715
v 7.816265 0.493074 -0.003449
v 7.817565 0.496611 -0.005317
v 7.839797 0.501094 0.036701
v 7.831126 0.495278 0.035643
v 7.824048 0.497261 0.028681
v 7.817470 0.490956 0.016974
v 7.820562 0.494404 0.023108
v 7.818019 0.493653 -0.010770
v 7.820024 0.497658 -0.012263
v 7.837338 0.497509 0.036071
v 7.841372 0.495411 0.037924
v 7.824806 0.492865 0.031067
v 7.827920 0.494738 0.033734
v 7.817482 0.486854 0.019068
v 7.815601 0.486589 0.009929
v 7.820401 0.490121 0.024795
v 7.821394 0.495338 -0.016833
v 7.823440 0.498731 -0.017516
v 7.834354 0.495321 0.036508
v 7.829639 0.491477 0.034384
v 7.822967 0.488651 0.029487
v 7.828062 0.490758 0.032647
v 7.815813 0.489952 0.007695
v 7.819892 0.485387 0.025459
v 7.825470 0.496812 -0.021464
v 7.828135 0.500760 -0.021610
v 7.832840 0.491934 0.035621
v 7.838687 0.494972 0.036334
v 7.821226 0.484438 0.027643
v 7.831317 0.488651 0.034227
v 7.815068 0.485461 0.000716
v 7.815480 0.489256 -0.001416
v 7.831019 0.504306 -0.021407
v 7.841801 0.492338 0.036860
v 7.835002 0.491811 0.035280
v 7.819679 0.480224 0.025273
v 7.815886 0.485773 -0.007254
v 7.816742 0.489854 -0.009149
v 7.833026 0.502979 -0.024168
v 7.830457 0.499202 -0.024791
v 7.836118 0.506762 -0.022327
v 7.818417 0.476230 0.022464
v 7.818321 0.487048 -0.014291
v 7.819520 0.491087 -0.015682
v 7.837962 0.505909 -0.023921
v 7.840379 0.509305 -0.021113
v 7.841322 0.511901 -0.018192
v 7.842133 0.511580 -0.018804
v 7.831217 0.492110 0.035488
v 7.821917 0.488728 -0.020333
v 7.823606 0.493263 -0.021088
v 7.841763 0.508875 -0.021914
v 7.842974 0.511293 -0.019347
v 7.820849 0.484361 -0.019254
v 7.824200 0.481899 -0.023685
v 7.825100 0.486582 -0.024488
v 7.826545 0.491392 -0.024898
v 7.840028 0.505261 -0.025069
v 7.820066 0.479651 -0.017696
v 7.828967 0.484654 -0.027913
v 7.817430 0.482693 -0.012529
v 7.828137 0.495085 -0.024999
v 7.838055 0.500931 -0.027802
v 7.835324 0.501821 -0.026302
v 7.816910 0.478268 -0.010630
v 7.815409 0.481677 -0.005242
v 7.831343 0.493538 -0.027992
v 7.833200 0.497844 -0.027394
v 7.836522 0.496798 -0.029269
v 7.815268 0.477838 -0.003281
v 7.814888 0.481990 0.002880
v 7.830104 0.489682 -0.028130
v 7.834391 0.488346 -0.030512
v 7.835227 0.492334 -0.030192
v 7.840553 0.496178 -0.030263
v 7.839891 0.491643 -0.031329
v 7.814759 0.478589 0.004733
v 7.815719 0.483028 0.012438
v 7.833606 0.483167 -0.030394
v 7.839469 0.487605 -0.031755
v 7.839053 0.482347 -0.031805
v 7.844915 0.491427 -0.031632
v 7.844915 0.487384 -0.032091
v 7.849938 0.491643 -0.031329
v 7.849277 0.496178 -0.030263
v 7.816270 0.477983 0.015797
v 7.817666 0.481851 0.020906
v 7.833098 0.478162 -0.029730
v 7.817527 0.472675 0.019304
v 7.816825 0.469340 0.015969
v 7.815792 0.473964 0.010351
v 7.828251 0.479768 -0.027221
v 7.854602 0.492334 -0.030192
v 7.858487 0.493538 -0.027992
v 7.856630 0.497844 -0.027394
v 7.815553 0.473552 -0.001693
v 7.816352 0.468155 -0.000813
v 7.815453 0.473262 0.003328
v 7.827772 0.474541 -0.025932
v 7.823582 0.476862 -0.022312
v 7.855439 0.488346 -0.030512
v 7.859373 0.499202 -0.024791
v 7.817142 0.469315 -0.006998
v 7.816410 0.467862 0.001748
v 7.823277 0.471843 -0.020557
v 7.819639 0.474901 -0.015886
v 7.859725 0.489682 -0.028130
v 7.861693 0.495085 -0.024999
v 7.863285 0.491392 -0.024898
v 7.858811 0.504306 -0.021407
v 7.817891 0.462317 -0.000183
v 7.819638 0.470421 -0.014053
v 7.816824 0.474023 -0.008831
v 7.860863 0.484654 -0.027913
v 7.864360 0.496812 -0.021464
v 7.861695 0.500760 -0.021610
v 7.819857 0.456963 -0.002290
v 7.818132 0.463564 -0.004920
v 7.856224 0.483167 -0.030394
v 7.850777 0.482347 -0.031805
v 7.850360 0.487605 -0.031755
v 7.820670 0.459900 -0.009059
v 7.821655 0.454341 -0.006133
v 7.822268 0.452135 -0.004397
v 7.819881 0.465583 -0.011938
v 7.856732 0.478162 -0.029730
v 7.866390 0.498731 -0.017516
v 7.824065 0.451471 -0.009587
v 7.824989 0.447921 -0.006503
v 7.823362 0.462382 -0.016241
v 7.823317 0.467220 -0.018605
v 7.844915 0.482108 -0.032171
v 7.868436 0.495338 -0.016833
v 7.866224 0.493263 -0.021088
v 7.827886 0.444410 -0.008610
v 7.827338 0.464542 -0.022340
v 7.827431 0.469323 -0.024306
v 7.823486 0.456498 -0.012823
v 7.844915 0.477006 -0.031582
v 7.838784 0.477263 -0.031200
v 7.867913 0.488728 -0.020333
v 7.864730 0.486582 -0.024488
v 7.832550 0.467568 -0.026754
v 7.832758 0.472841 -0.028473
v 7.826477 0.453837 -0.016303
v 7.826595 0.449039 -0.012556
v 7.827021 0.459610 -0.019900
v 7.838573 0.471838 -0.030154
v 7.865630 0.481899 -0.023685
v 7.861579 0.479768 -0.027221
v 7.830179 0.447070 -0.015117
v 7.830870 0.441250 -0.010717
v 7.832231 0.457774 -0.022492
v 7.832438 0.462719 -0.024705
v 7.862058 0.474541 -0.025932
v 7.857072 0.472841 -0.028473
v 7.851257 0.471838 -0.030154
v 7.851046 0.477263 -0.031200
v 7.833227 0.446209 -0.016497
v 7.837542 0.445463 -0.017739
v 7.838309 0.461545 -0.026676
v 7.838459 0.466503 -0.028423
v 7.857280 0.467568 -0.026754
v 7.835217 0.451390 -0.020577
v 7.839685 0.451120 -0.021862
v 7.841113 0.446401 -0.019290
v 7.842434 0.443234 -0.017182
v 7.841228 0.441952 -0.015632
v 7.844915 0.466221 -0.028837
v 7.844915 0.471569 -0.030555
v 7.830832 0.451835 -0.018684
v 7.844915 0.446414 -0.019483
v 7.844915 0.442743 -0.016936
v 7.844915 0.438441 -0.013526
v 7.851370 0.466503 -0.028423
v 7.838587 0.456413 -0.024492
v 7.847395 0.443234 -0.017182
v 7.848602 0.441952 -0.015632
v 7.851521 0.461545 -0.026676
v 7.844915 0.461233 -0.027105
v 7.844915 0.456214 -0.024775
v 7.844915 0.451081 -0.022236
v 7.848717 0.446401 -0.019290
v 7.852288 0.445463 -0.017739
v 7.857392 0.462719 -0.024705
v 7.857599 0.457774 -0.022492
v 7.851243 0.456413 -0.024492
v 7.850145 0.451120 -0.021862
v 7.854613 0.451390 -0.020577
v 7.856603 0.446209 -0.016497
v 7.858960 0.441250 -0.010717
v 7.862492 0.464542 -0.022340
v 7.862399 0.469323 -0.024306
v 7.858998 0.451835 -0.018684
v 7.859651 0.447070 -0.015117
v 7.863235 0.449039 -0.012556
v 7.861944 0.444410 -0.008610
v 7.866553 0.471843 -0.020557
v 7.862809 0.459610 -0.019900
v 7.866513 0.467220 -0.018605
v 7.866468 0.462382 -0.016241
v 7.866248 0.476862 -0.022312
v 7.863353 0.453837 -0.016303
v 7.865765 0.451471 -0.009587
v 7.864841 0.447921 -0.006503
v 7.870192 0.470421 -0.014053
v 7.869948 0.465583 -0.011938
v 7.869160 0.459900 -0.009059
v 7.866343 0.456498 -0.012823
v 7.869763 0.479651 -0.017696
v 7.868981 0.484361 -0.019254
v 7.867562 0.452135 -0.004397
v 7.872688 0.469315 -0.006998
v 7.868175 0.454341 -0.006133
v 7.871698 0.463564 -0.004920
v 7.869973 0.456963 -0.002290
v 7.871509 0.487048 -0.014291
v 7.870310 0.491087 -0.015682
v 7.870191 0.474901 -0.015886
v 7.873477 0.468155 -0.000813
v 7.871939 0.462317 -0.000183
v 7.871811 0.493653 -0.010770
v 7.869806 0.497658 -0.012263
v 7.872920 0.478268 -0.010630
v 7.873006 0.474023 -0.008831
v 7.873420 0.467862 0.001748
v 7.874562 0.477838 -0.003281
v 7.874421 0.481677 -0.005242
v 7.872399 0.482693 -0.012529
v 7.873943 0.485773 -0.007254
v 7.874277 0.473552 -0.001693
v 7.874377 0.473262 0.003328
v 7.872264 0.496611 -0.005317
v 7.874762 0.485461 0.000716
v 7.873088 0.489854 -0.009149
v 7.873565 0.493074 -0.003449
v 7.874350 0.489256 -0.001416
v 7.875071 0.478589 0.004733
v 7.872789 0.497002 0.003177
v 7.873580 0.493512 0.005438
v 7.874941 0.481990 0.002880
v 7.874229 0.486589 0.009929
v 7.874017 0.489952 0.007695
v 7.874111 0.483028 0.012438
v 7.873560 0.477983 0.015797
v 7.874038 0.473964 0.010351
v 7.871680 0.497825 0.012321
v 7.872153 0.494419 0.014702
v 7.872360 0.490956 0.016974
v 7.872348 0.486854 0.019068
v 7.873004 0.469340 0.015969
v 7.872164 0.481851 0.020906
v 7.871413 0.476230 0.022464
v 7.872303 0.472675 0.019304
v 7.869130 0.498120 0.020715
v 7.869267 0.494404 0.023108
v 7.869429 0.490121 0.024795
v 7.869937 0.485387 0.025459
v 7.870151 0.480224 0.025273
v 7.865782 0.497261 0.028681
v 7.865024 0.492865 0.031067
v 7.866863 0.488651 0.029487
v 7.868604 0.484438 0.027643
v 7.861910 0.494738 0.033734
v 7.860191 0.491477 0.034384
v 7.861768 0.490758 0.032647
v 7.855476 0.495321 0.036508
v 7.856990 0.491934 0.035621
v 7.858613 0.492110 0.035488
v 7.858512 0.488651 0.034227
v 7.851142 0.494972 0.036334
v 7.852491 0.497509 0.036071
v 7.854827 0.491811 0.035280
v 7.847910 0.495411 0.037924
v 7.848029 0.492338 0.036860
v 7.844915 0.495683 0.038400
v 7.846502 0.492784 0.037768
v 7.844915 0.489705 0.037387
v 7.844915 0.493218 0.038155
v 7.843328 0.492784 0.037768
v 7.824989 0.447921 -0.006503
v 7.827886 0.444410 -0.008610
v 7.830818 0.459247 -0.005587
v 7.822268 0.452135 -0.004397
v 7.830870 0.441250 -0.010717
v 7.838333 0.450701 -0.010663
v 7.827583 0.463308 -0.001994
v 7.844915 0.456828 -0.008232
v 7.819857 0.456963 -0.002290
v 7.837542 0.445463 -0.017739
v 7.841228 0.441952 -0.015632
v 7.844915 0.438441 -0.013526
v 7.824347 0.467368 0.001600
v 7.851497 0.450701 -0.010663
v 7.859012 0.459247 -0.005587
v 7.817891 0.462317 -0.000183
v 7.848602 0.441952 -0.015632
v 7.816410 0.467862 0.001748
v 7.822885 0.473935 0.003706
v 7.858960 0.441250 -0.010717
v 7.852288 0.445463 -0.017739
v 7.867562 0.452135 -0.004397
v 7.862247 0.463308 -0.001994
v 7.861944 0.444410 -0.008610
v 7.864841 0.447921 -0.006503
v 7.815453 0.473262 0.003328
v 7.821422 0.480502 0.005813
v 7.869973 0.456963 -0.002290
v 7.865483 0.467368 0.001600
v 7.814759 0.478589 0.004733
v 7.815792 0.473964 0.010351
v 7.822042 0.477727 0.009184
v 7.871939 0.462317 -0.000183
v 7.873420 0.467862 0.001748
v 7.866945 0.473935 0.003706
v 7.822661 0.474952 0.012555
v 7.816825 0.469340 0.015969
v 7.874377 0.473262 0.003328
v 7.868408 0.480502 0.005813
v 7.817527 0.472675 0.019304
v 7.818417 0.476230 0.022464
v 7.825221 0.481773 0.016495
v 7.875071 0.478589 0.004733
v 7.874038 0.473964 0.010351
v 7.867788 0.477727 0.009184
v 7.819679 0.480224 0.025273
v 7.827780 0.488594 0.020434
v 7.867168 0.474952 0.012555
v 7.873004 0.469340 0.015969
v 7.821226 0.484438 0.027643
v 7.822967 0.488651 0.029487
v 7.844915 0.499304 0.007456
v 7.872303 0.472675 0.019304
v 7.871413 0.476230 0.022464
v 7.864609 0.481773 0.016495
v 7.824806 0.492865 0.031067
v 7.870151 0.480224 0.025273
v 7.862050 0.488594 0.020434
v 7.828062 0.490758 0.032647
v 7.868604 0.484438 0.027643
v 7.866863 0.488651 0.029487
v 7.831317 0.488651 0.034227
v 7.865024 0.492865 0.031067
v 7.835002 0.491811 0.035280
v 7.861768 0.490758 0.032647
v 7.838687 0.494972 0.036334
v 7.858512 0.488651 0.034227
v 7.841801 0.492338 0.036860
v 7.854827 0.491811 0.035280
v 7.851142 0.494972 0.036334
v 7.848029 0.492338 0.036860
v 7.844915 0.489705 0.037387
vn 0.4604 0.7387 -0.4923
vn 0.4648 0.7773 -0.4240
vn 0.6277 0.6819 -0.3754
vn 0.6109 0.6361 -0.4714
vn 0.2012 0.8987 -0.3898
vn -0.0000 0.8858 -0.4640
vn 0.1778 0.9165 -0.3585
vn -0.2123 0.8805 -0.4239
vn -0.3179 0.8608 -0.3973
vn -0.2966 0.8896 -0.3472
vn -0.2012 0.8987 -0.3898
vn 0.2123 0.8805 -0.4239
vn -0.1778 0.9165 -0.3585
vn -0.2640 0.9177 -0.2970
vn -0.2206 0.9428 -0.2501
vn -0.1513 0.9328 -0.3272
vn 0.1513 0.9328 -0.3272
vn -0.0000 0.6106 -0.7920
vn -0.0767 0.6163 -0.7838
vn -0.0596 0.7087 -0.7029
vn -0.0000 0.7059 -0.7083
vn -0.3010 0.9406 -0.1569
vn -0.3681 0.9038 -0.2184
vn 0.1171 0.9446 -0.3066
vn -0.2316 0.9665 -0.1106
vn -0.1736 0.9613 -0.2140
vn -0.6645 0.3320 0.6695
vn -0.6226 0.0249 0.7822
vn -0.3905 0.0513 0.9192
vn -0.4404 0.3438 0.8294
vn -0.4008 0.9145 -0.0557
vn -0.5024 0.8565 -0.1186
vn -0.2946 0.9556 -0.0093
vn 0.0846 0.9537 -0.2886
vn 0.6895 0.7147 -0.1175
vn 0.7319 0.6487 -0.2085
vn 0.6168 0.7358 -0.2795
vn 0.5754 0.7944 -0.1945
vn -0.1171 0.9446 -0.3066
vn -0.6895 0.7147 -0.1175
vn -0.7604 0.6462 -0.0651
vn -0.6846 0.7287 0.0168
vn -0.6078 0.7930 -0.0410
vn -0.6168 0.7358 -0.2795
vn -0.7319 0.6487 -0.2085
vn -0.5754 0.7944 -0.1945
vn -0.4516 0.8187 -0.3547
vn -0.4195 0.8615 -0.2862
vn -0.4868 0.8732 0.0237
vn -0.3511 0.9332 0.0765
vn 0.0452 0.9582 -0.2826
vn -0.0452 0.9582 -0.2826
vn -0.0846 0.9537 -0.2886
vn -0.1249 0.9737 -0.1904
vn -0.0688 0.9819 -0.1763
vn 0.2316 0.9665 -0.1106
vn 0.2946 0.9556 -0.0093
vn 0.4008 0.9145 -0.0557
vn 0.3010 0.9406 -0.1569
vn -0.3265 0.8341 -0.4447
vn -0.4648 0.7773 -0.4240
vn -0.2194 0.8633 -0.4545
vn -0.2044 0.9786 0.0233
vn -0.1664 0.9827 -0.0808
vn 0.2194 0.8633 -0.4545
vn 0.4516 0.8187 -0.3547
vn 0.4195 0.8615 -0.2862
vn -0.6109 0.6361 -0.4714
vn -0.7157 0.5469 -0.4344
vn -0.7392 0.5935 -0.3184
vn -0.6277 0.6819 -0.3754
vn -0.4604 0.7387 -0.4923
vn -0.3239 0.8081 -0.4919
vn -0.2143 0.8476 -0.4855
vn 0.2143 0.8476 -0.4855
vn -0.7464 0.6608 0.0793
vn -0.6269 0.7591 0.1753
vn -0.5619 0.8215 0.0971
vn -0.4366 0.7095 -0.5532
vn -0.5774 0.6048 -0.5485
vn -0.6773 0.5088 -0.5315
vn -0.3069 0.7830 -0.5411
vn -0.2048 0.8294 -0.5198
vn 0.2048 0.8294 -0.5198
vn 0.1736 -0.4769 -0.8617
vn 0.1394 -0.5483 -0.8246
vn -0.0000 -0.5335 -0.8458
vn -0.0000 -0.4743 -0.8803
vn -0.8095 0.5215 -0.2695
vn -0.8003 0.5787 -0.1571
vn -0.8708 0.4384 -0.2226
vn -0.9268 0.3348 -0.1702
vn -0.9090 0.4132 -0.0538
vn -0.8565 0.5046 -0.1088
vn -0.1488 0.9626 0.2264
vn -0.0000 0.9725 0.2329
vn -0.0000 0.9896 0.1437
vn -0.1284 0.9825 0.1352
vn -0.3910 0.6923 -0.6065
vn -0.5295 0.5817 -0.6175
vn -0.8617 -0.0690 -0.5027
vn -0.8721 -0.1457 -0.4671
vn -0.9430 -0.0781 -0.3234
vn -0.9307 -0.0075 -0.3656
vn -0.7764 0.0954 0.6230
vn -0.8078 0.2684 0.5247
vn 0.1825 0.8149 -0.5501
vn -0.8168 0.5768 -0.0135
vn 0.9430 -0.0781 -0.3234
vn 0.9307 -0.0075 -0.3656
vn 0.9760 0.0590 -0.2098
vn 0.9864 -0.0048 -0.1645
vn -0.8072 0.1282 -0.5762
vn -0.8420 0.0173 -0.5391
vn -0.9101 0.0739 -0.4077
vn -0.8739 0.1834 -0.4501
vn 0.4257 0.5611 0.7099
vn 0.4404 0.3438 0.8294
vn 0.6645 0.3320 0.6695
vn 0.6517 0.5187 0.5534
vn -0.0000 -0.4288 -0.9034
vn 0.2072 -0.4223 -0.8825
vn 0.1587 0.8016 -0.5763
vn 0.1239 -0.6132 -0.7801
vn -0.0000 -0.5983 -0.8013
vn -0.8679 0.4944 0.0487
vn -0.2794 0.3348 -0.8999
vn -0.4454 0.3776 -0.8118
vn -0.3520 0.5221 -0.7769
vn -0.2220 0.4877 -0.8443
vn 0.1249 0.7929 -0.5964
vn 0.2364 0.9651 0.1127
vn 0.2716 0.9398 0.2076
vn 0.4071 0.8980 0.1668
vn 0.3511 0.9332 0.0765
vn -0.1850 0.7317 -0.6561
vn -0.2486 0.6564 -0.7123
vn -0.3265 0.6775 -0.6590
vn -0.2349 0.7468 -0.6222
vn -0.7994 0.5803 0.1559
vn -0.6859 0.6776 0.2653
vn 0.2598 -0.9432 0.2072
vn 0.3063 -0.7065 -0.6379
vn 0.2136 -0.8862 0.4111
vn 0.6269 0.7591 0.1753
vn 0.6859 0.6776 0.2653
vn 0.7994 0.5803 0.1559
vn 0.7464 0.6608 0.0793
vn -0.4648 0.8495 0.2496
vn -0.4071 0.8980 0.1668
vn 0.8757 -0.2061 -0.4366
vn 0.8809 -0.2585 -0.3964
vn 0.8137 -0.2783 -0.5103
vn 0.7914 -0.2502 -0.5578
vn 0.0847 0.7824 -0.6170
vn -0.4562 0.5553 -0.6953
vn -0.1231 0.7177 -0.6854
vn -0.1614 0.6330 -0.7572
vn 0.3265 0.6775 -0.6590
vn 0.2486 0.6564 -0.7123
vn 0.1850 0.7317 -0.6561
vn 0.2349 0.7468 -0.6222
vn -0.2364 0.9651 0.1127
vn -0.2716 0.9398 0.2076
vn -0.0847 0.7824 -0.6170
vn -0.0389 0.7794 -0.6253
vn 0.0389 0.7794 -0.6253
vn -0.9992 -0.0260 0.0315
vn -0.9860 0.0408 0.1614
vn -0.9876 0.1013 0.1199
vn -0.9997 0.0263 0.0025
vn -0.9527 0.3039 0.0085
vn -0.9108 0.3953 0.1186
vn -0.8401 0.4884 0.2361
vn -0.1113 0.9927 0.0459
vn 0.9101 0.0739 -0.4077
vn 0.8617 -0.0690 -0.5027
vn 0.8420 0.0173 -0.5391
vn 0.8072 0.1282 -0.5762
vn 0.7091 0.0795 -0.7007
vn 0.6689 0.1992 -0.7162
vn 0.7560 0.2524 -0.6040
vn -0.0000 0.7757 -0.6311
vn 0.7392 0.5935 -0.3184
vn 0.7157 0.5469 -0.4344
vn -0.9485 0.1162 0.2948
vn -0.8816 0.1600 0.4441
vn -0.8916 0.2213 0.3951
vn -0.9492 0.1758 0.2611
vn -0.0917 0.9939 -0.0618
vn -0.0000 0.9985 0.0548
vn -0.0000 0.9985 -0.0547
vn 0.0596 0.7087 -0.7029
vn 0.0767 0.6163 -0.7838
vn 0.0688 0.9819 -0.1763
vn 0.1249 0.9737 -0.1904
vn -0.0000 0.4523 -0.8919
vn -0.0984 0.4619 -0.8815
vn -0.3454 0.0914 -0.9340
vn -0.3660 -0.0228 -0.9303
vn -0.5643 0.0258 -0.8251
vn -0.5385 0.1421 -0.8305
vn -0.1912 0.8991 0.3938
vn -0.0000 0.9143 0.4051
vn -0.0000 0.9534 0.3019
vn -0.1680 0.9406 0.2951
vn 0.9090 0.4132 -0.0538
vn 0.9527 0.3039 0.0085
vn 0.9688 0.2215 -0.1110
vn 0.9268 0.3348 -0.1702
vn -0.8885 0.3200 0.3288
vn -0.8000 0.4203 0.4281
vn -0.7102 -0.3774 -0.5944
vn -0.7598 -0.4574 -0.4620
vn -0.8512 -0.4053 -0.3335
vn -0.8434 -0.3203 -0.4314
vn -0.0000 0.2942 -0.9557
vn -0.1166 0.3045 -0.9454
vn 0.3520 0.5221 -0.7769
vn 0.2220 0.4877 -0.8443
vn 0.1614 0.6330 -0.7572
vn 0.1231 0.7177 -0.6854
vn 0.4562 0.5553 -0.6953
vn 0.5606 0.4236 -0.7116
vn 0.4454 0.3776 -0.8118
vn -0.0000 0.9853 -0.1711
vn -0.0000 0.9613 -0.2755
vn -0.5360 0.7734 0.3386
vn -0.3674 0.8530 0.3708
vn -0.3109 0.9080 0.2810
vn 0.0917 0.9939 -0.0618
vn 0.3681 0.9038 -0.2184
vn 0.2640 0.9177 -0.2970
vn 0.2206 0.9428 -0.2501
vn -0.1868 -0.2440 -0.9516
vn -0.3989 -0.2224 -0.8896
vn -0.3847 -0.1316 -0.9136
vn -0.1734 -0.1488 -0.9735
vn -0.7332 0.5865 0.3442
vn 0.3109 0.9080 0.2810
vn 0.3674 0.8530 0.3708
vn 0.5360 0.7734 0.3386
vn 0.4648 0.8495 0.2496
vn 0.2044 0.9786 0.0233
vn 0.1664 0.9827 -0.0808
vn 0.1113 0.9927 0.0459
vn 0.6212 0.3138 -0.7181
vn 0.5019 0.2583 -0.8255
vn -0.7660 0.5187 0.3798
vn -0.8669 0.4079 0.2864
vn -0.9363 0.3042 0.1753
vn 0.5643 0.0258 -0.8251
vn 0.5385 0.1421 -0.8305
vn 0.1736 0.9613 -0.2140
vn 0.1488 0.9626 0.2264
vn 0.1284 0.9825 0.1352
vn -0.1825 0.8149 -0.5501
vn -0.2760 0.7625 -0.5852
vn 0.3179 0.8608 -0.3973
vn 0.2966 0.8896 -0.3472
vn 0.4868 0.8732 0.0237
vn 0.5619 0.8215 0.0971
vn 0.6846 0.7287 0.0168
vn 0.6078 0.7930 -0.0410
vn -0.6293 -0.3044 -0.7151
vn -0.6591 -0.3280 -0.6768
vn -0.8137 -0.2783 -0.5103
vn -0.7914 -0.2502 -0.5578
vn -0.2136 -0.3646 -0.9063
vn -0.0000 -0.3693 -0.9293
vn -0.2072 -0.4223 -0.8825
vn 0.1680 0.9406 0.2951
vn -0.5606 0.4236 -0.7116
vn -0.6307 0.4690 -0.6182
vn 0.5774 0.6048 -0.5485
vn 0.5295 0.5817 -0.6175
vn 0.3910 0.6923 -0.6065
vn 0.4366 0.7095 -0.5532
vn 0.1912 0.8991 0.3938
vn -0.6212 0.3138 -0.7181
vn -0.6964 0.3674 -0.6165
vn 0.3239 0.8081 -0.4919
vn 0.3265 0.8341 -0.4447
vn -0.4195 0.7700 0.4808
vn -0.2151 0.8206 0.5294
vn 0.4098 -0.2988 -0.8619
vn 0.6154 -0.2545 -0.7460
vn 0.6293 -0.3044 -0.7151
vn 0.4233 -0.3465 -0.8371
vn 0.5024 0.8565 -0.1186
vn -0.9472 0.2356 0.2176
vn -0.6311 0.6122 0.4763
vn -0.5987 0.6836 0.4174
vn -0.2273 0.7149 0.6612
vn -0.2314 0.5477 0.8040
vn -0.0000 0.5889 0.8082
vn -0.0000 0.7295 0.6840
vn 0.9896 -0.0606 -0.1304
vn 0.9482 -0.1407 -0.2849
vn -0.0000 0.8379 0.5459
vn 0.2151 0.8206 0.5294
vn -0.6517 0.5187 0.5534
vn 0.9247 -0.3203 -0.2057
vn 0.8946 -0.3664 -0.2558
vn 0.8917 -0.3066 -0.3330
vn 0.9402 -0.2748 -0.2014
vn 0.7604 0.6462 -0.0651
vn 0.1597 -0.0468 -0.9860
vn -0.0000 -0.0516 -0.9987
vn -0.0000 0.0620 -0.9981
vn 0.1455 0.0666 -0.9871
vn 0.8003 0.5787 -0.1571
vn 0.3069 0.7830 -0.5411
vn 0.8512 -0.4053 -0.3335
vn 0.8434 -0.3203 -0.4314
vn -0.4257 0.5611 0.7099
vn -0.4404 0.6796 0.5867
vn 0.0984 0.4619 -0.8815
vn 0.0017 0.3589 0.9334
vn 0.0064 0.0345 0.9994
vn 0.2779 -0.0553 0.9590
vn 0.2252 0.2721 0.9355
vn -0.2987 -0.0780 0.9512
vn -0.2262 0.2771 0.9338
vn 0.8168 0.5768 -0.0135
vn 0.8565 0.5046 -0.1088
vn -0.3329 -0.2920 0.8966
vn -0.2841 -0.3785 0.8809
vn -0.2714 -0.3857 0.8818
vn -0.2938 -0.3280 0.8979
vn 0.8078 0.2684 0.5247
vn 0.8000 0.4203 0.4281
vn 0.4195 0.7700 0.4808
vn 0.5987 0.6836 0.4174
vn -0.1310 0.1789 -0.9751
vn -0.1455 0.0666 -0.9871
vn -0.3183 0.2081 -0.9249
vn -0.8757 -0.2061 -0.4366
vn -0.8809 -0.2585 -0.3964
vn -0.9464 -0.2019 -0.2521
vn -0.9482 -0.1407 -0.2849
vn 0.8679 0.4944 0.0487
vn 0.1166 0.3045 -0.9454
vn -0.4098 -0.2988 -0.8619
vn -0.2000 -0.3160 -0.9274
vn -0.4233 -0.3465 -0.8371
vn 0.9153 0.2545 -0.3121
vn 0.9548 0.1429 -0.2607
vn 0.8739 0.1834 -0.4501
vn 0.2273 0.7149 0.6612
vn 0.4404 0.6796 0.5867
vn 0.7332 0.5865 0.3442
vn -0.7781 -0.1993 -0.5957
vn -0.6154 -0.2545 -0.7460
vn 0.8095 0.5215 -0.2695
vn 0.7900 0.4680 -0.3961
vn 0.7503 0.4178 -0.5123
vn 0.6773 0.5088 -0.5315
vn 0.6011 -0.1778 -0.7792
vn 0.3989 -0.2224 -0.8896
vn 0.3847 -0.1316 -0.9136
vn 0.5854 -0.0888 -0.8059
vn 0.2760 0.7625 -0.5852
vn 0.2314 0.5477 0.8040
vn 0.6311 0.6122 0.4763
vn -0.2389 0.3039 0.9223
vn 0.2389 0.3039 0.9223
vn 0.8573 0.3709 -0.3572
vn 0.8708 0.4384 -0.2226
vn -0.6011 -0.1778 -0.7792
vn -0.7611 -0.1240 -0.6367
vn -0.0903 -0.0015 0.9959
vn 0.8177 0.3077 -0.4865
vn 0.6964 0.3674 -0.6165
vn 0.8401 0.4884 0.2361
vn -0.5007 -0.4401 -0.7454
vn -0.5745 -0.5089 -0.6411
vn -0.0270 -0.2937 0.9555
vn -0.0288 -0.2934 0.9556
vn -0.0076 -0.3101 0.9507
vn 0.0823 -0.3576 0.9302
vn 0.8721 -0.1457 -0.4671
vn 0.7781 -0.1993 -0.5957
vn 0.7611 -0.1240 -0.6367
vn 0.9108 0.3953 0.1186
vn 0.8885 0.3200 0.3288
vn 0.8669 0.4079 0.2864
vn 0.7660 0.5187 0.3798
vn -0.7900 0.4680 -0.3961
vn 0.9897 0.1305 -0.0593
vn 0.9972 0.0707 -0.0237
vn -0.4341 -0.3888 -0.8127
vn -0.1736 -0.4769 -0.8617
vn -0.3390 -0.4670 -0.8167
vn -0.0000 -0.1512 -0.9885
vn -0.1597 -0.0468 -0.9860
vn -0.0000 0.1715 -0.9852
vn 0.9761 0.2094 0.0584
vn 0.3905 0.0513 0.9192
vn 0.6226 0.0249 0.7822
vn 0.8916 0.2213 0.3951
vn 0.9492 0.1758 0.2611
vn 0.9472 0.2356 0.2176
vn -0.1816 0.0729 0.9807
vn 0.9464 -0.2019 -0.2521
vn 0.9865 -0.1323 -0.0961
vn 0.9745 -0.2102 -0.0786
vn 0.7764 0.0954 0.6230
vn 0.8816 0.1600 0.4441
vn 0.9485 0.1162 0.2948
vn 0.9876 0.1013 0.1199
vn 0.9860 0.0408 0.1614
vn 0.2136 -0.3646 -0.9063
vn -0.0000 -0.3180 -0.9481
vn 0.2000 -0.3160 -0.9274
vn 0.6307 0.4690 -0.6182
vn 0.5460 -0.2532 0.7986
vn 0.5966 -0.2785 0.7526
vn 0.3307 -0.1979 0.9227
vn -0.8396 0.1603 0.5190
vn -0.3307 -0.1979 0.9227
vn -0.0371 -0.3054 0.9515
vn 0.8819 0.0925 0.4622
vn 0.9406 0.0337 0.3379
vn 0.0371 -0.3054 0.9515
vn 0.0903 -0.0015 0.9959
vn -0.2418 -0.0920 0.9660
vn -0.5966 -0.2785 0.7526
vn -0.3196 -0.3868 0.8650
vn -0.5460 -0.2532 0.7986
vn 0.1734 -0.1488 -0.9735
vn 0.3660 -0.0228 -0.9303
vn 0.9363 0.3042 0.1753
vn 0.1683 0.0701 0.9832
vn 0.2162 -0.0797 0.9731
vn 0.1163 -0.4335 0.8936
vn -0.8455 0.0875 0.5268
vn -0.8819 0.0925 0.4622
vn -0.9132 0.0231 0.4069
vn 0.2794 0.3348 -0.8999
vn 0.3183 0.2081 -0.9249
vn 0.1310 0.1789 -0.9751
vn -0.9414 -0.0231 0.3364
vn -0.9153 0.2545 -0.3121
vn -0.9548 0.1429 -0.2607
vn -0.9688 0.2215 -0.1110
vn -0.1587 0.8016 -0.5763
vn -0.1249 0.7929 -0.5964
vn 0.7400 -0.0346 -0.6718
vn 0.9997 0.0263 0.0025
vn 0.3454 0.0914 -0.9340
vn -0.5019 0.2583 -0.8255
vn 0.9992 -0.0260 0.0315
vn -0.7503 0.4178 -0.5123
vn -0.8177 0.3077 -0.4865
vn -0.8573 0.3709 -0.3572
vn 0.9849 0.1481 0.0893
vn 0.9772 -0.0224 0.2110
vn -0.9406 0.0337 0.3379
vn 0.9712 -0.0500 0.2328
vn 0.9816 -0.0595 0.1817
vn 0.9870 -0.0474 0.1535
vn -0.9865 -0.1323 -0.0961
vn -0.9745 -0.2102 -0.0786
vn -0.9906 -0.1158 -0.0722
vn 0.9414 -0.0231 0.3364
vn -0.9776 -0.2106 -0.0022
vn -0.9772 -0.0224 0.2110
vn -0.6689 0.1992 -0.7162
vn -0.9896 -0.0606 -0.1304
vn -0.9972 0.0707 -0.0237
vn -0.9864 -0.0048 -0.1645
vn -0.9483 -0.2682 -0.1695
vn -0.7091 0.0795 -0.7007
vn -0.9760 0.0590 -0.2098
vn -0.9247 -0.3203 -0.2057
vn -0.9402 -0.2748 -0.2014
vn -0.8917 -0.3066 -0.3330
vn -0.8946 -0.3664 -0.2558
vn -0.8818 -0.4183 -0.2179
vn -0.5854 -0.0888 -0.8059
vn 0.8818 -0.4183 -0.2179
vn 0.8371 -0.4675 -0.2840
vn -0.1394 -0.5483 -0.8246
vn -0.2647 -0.5652 -0.7813
vn -0.7560 0.2524 -0.6040
vn 0.6591 -0.3280 -0.6768
vn 0.7102 -0.3774 -0.5944
vn 0.7598 -0.4574 -0.4620
vn 0.1868 -0.2440 -0.9516
vn 0.5745 -0.5089 -0.6411
vn 0.5007 -0.4401 -0.7454
vn 0.7645 -0.5013 -0.4053
vn 0.6038 -0.5618 -0.5656
vn 0.4341 -0.3888 -0.8127
vn -0.7400 -0.0346 -0.6718
vn -0.0000 -0.2478 -0.9688
vn -0.6038 -0.5618 -0.5656
vn -0.3776 -0.5597 -0.7377
vn -0.9897 0.1305 -0.0593
vn -0.9761 0.2094 0.0584
vn 0.3390 -0.4670 -0.8167
vn 0.3776 -0.5597 -0.7377
vn 0.2647 -0.5652 -0.7813
vn 0.2110 -0.6464 -0.7333
vn -0.8371 -0.4675 -0.2840
vn -0.1239 -0.6132 -0.7801
vn -0.0000 -0.6481 -0.7615
vn -0.2110 -0.6464 -0.7333
vn -0.0000 -0.5222 0.8528
vn -0.1322 -0.4360 0.8902
vn -0.0000 -0.3764 0.9265
vn 0.1322 -0.4360 0.8902
vn 0.8396 0.1603 0.5190
vn 0.8455 0.0875 0.5268
vn -0.7645 -0.5013 -0.4053
vn 0.0057 -0.1639 0.9865
vn 0.2978 -0.2334 0.9257
vn 0.9483 -0.2682 -0.1695
vn 0.9776 -0.2106 -0.0022
vn 0.9906 -0.1158 -0.0722
vn -0.9849 0.1481 0.0893
vn -0.9870 -0.0474 0.1535
vn 0.0288 -0.2934 0.9556
vn -0.2136 -0.8862 0.4111
vn -0.2598 -0.9432 0.2072
vn 0.0270 -0.2937 0.9555
vn -0.9712 -0.0500 0.2328
vn -0.2856 -0.2477 0.9258
vn 0.9132 0.0231 0.4069
vn -0.7631 -0.5127 0.3933
vn -0.7644 -0.5043 0.4017
vn -0.7158 -0.5859 0.3800
vn -0.7615 -0.5150 0.3935
vn -0.3063 -0.7065 -0.6379
vn -0.6776 -0.7339 -0.0481
vn -0.6407 -0.7507 -0.1608
vn 0.3196 -0.3868 0.8650
vn -0.1163 -0.4335 0.8936
vn -0.9816 -0.0595 0.1817
vn 0.4119 -0.2951 0.8621
vn -0.0000 -0.2782 0.9605
vn -0.1312 -0.3893 0.9117
vn -0.0823 -0.3576 0.9302
vn -0.4200 -0.3391 0.8418
vn 0.3425 -0.2496 0.9058
vn 0.3379 -0.2563 0.9056
vn 0.2938 -0.3280 0.8979
vn 0.3329 -0.2920 0.8966
vn 0.5111 -0.4004 0.7606
vn -0.0961 -0.7949 0.5991
vn -0.7368 -0.5014 0.4536
vn -0.5111 -0.4004 0.7606
vn -0.3379 -0.2563 0.9056
vn 0.7368 -0.5014 0.4536
vn 0.1312 -0.3892 0.9117
vn 0.0076 -0.3101 0.9507
vn 0.0961 -0.7949 0.5991
vn 0.2714 -0.3857 0.8818
vn 0.2841 -0.3785 0.8809
vn -0.3425 -0.2496 0.9058
vn 0.6407 -0.7507 -0.1608
vn 0.7615 -0.5150 0.3935
vn 0.7603 -0.5184 0.3914
vn 0.7536 -0.5297 0.3892
vn 0.6776 -0.7339 -0.0481
vn -0.7603 -0.5184 0.3914
vn -0.7536 -0.5297 0.3892
vn 0.7631 -0.5127 0.3933
vn 0.7158 -0.5859 0.3800
vn 0.7376 -0.5181 0.4331
vn 0.7644 -0.5043 0.4017
vn -0.0000 -0.9985 -0.0543
vn 0.3693 -0.9273 0.0616
vn -0.3001 -0.8241 -0.4804
vn -0.7376 -0.5181 0.4331
vn 0.1615 -0.9424 -0.2930
vn -0.3693 -0.9273 0.0616
vn 0.6466 -0.7624 0.0251
vn 0.3001 -0.8241 -0.4804
vn 0.0248 -0.9894 -0.1431
vn -0.1615 -0.9424 -0.2930
vn -0.6019 -0.7604 -0.2439
vn -0.6466 -0.7624 0.0251
vn -0.0248 -0.9894 -0.1431
vn 0.6019 -0.7604 -0.2439
vn -0.0000 -0.9522 -0.3054
vt 0.000000 0.000000
s 1
f 36/1/1 29/1/2 28/1/3 35/1/4
f 1/1/5 4/1/6 2/1/7
f 147/1/8 149/1/9 141/1/10 142/1/11
f 1/1/5 5/1/12 4/1/6
f 137/1/13 136/1/14 130/1/15 131/1/16
f 2/1/7 4/1/6 8/1/17
f 86/1/18 94/1/19 90/1/20 83/1/21
f 129/1/22 130/1/15 136/1/14 134/1/23
f 8/1/17 4/1/6 11/1/24
f 137/1/13 142/1/11 141/1/10 136/1/14
f 130/1/15 129/1/22 122/1/25 123/1/26
f 228/1/27 250/1/28 241/1/29 235/1/30
f 126/1/31 129/1/22 134/1/23 133/1/32
f 122/1/25 129/1/22 126/1/31 121/1/33
f 11/1/24 4/1/6 18/1/34
f 21/1/35 40/1/36 22/1/37 15/1/38
f 124/1/39 131/1/16 130/1/15 123/1/26
f 161/1/40 180/1/41 170/1/42 163/1/43
f 162/1/44 169/1/45 161/1/40 155/1/46
f 156/1/47 162/1/44 155/1/46 148/1/48
f 149/1/9 156/1/47 148/1/48 141/1/10
f 127/1/49 128/1/50 121/1/33 126/1/31
f 133/1/32 163/1/43 127/1/49 126/1/31
f 18/1/34 4/1/6 27/1/51
f 110/1/52 117/1/53 116/1/54 109/1/55
f 12/1/56 25/1/57 17/1/58 10/1/59
f 154/1/60 175/1/61 156/1/47 149/1/9
f 147/1/8 153/1/62 154/1/60 149/1/9
f 114/1/63 115/1/64 122/1/25 121/1/33
f 5/1/12 33/1/65 4/1/6
f 23/1/66 16/1/67 15/1/38 22/1/37
f 188/1/68 195/1/69 168/1/70 167/1/71
f 181/1/72 188/1/68 167/1/71 175/1/61
f 182/1/73 181/1/72 175/1/61 154/1/60
f 160/1/74 182/1/73 154/1/60 153/1/62
f 33/1/65 38/1/75 4/1/6
f 170/1/42 187/1/76 176/1/77 171/1/78
f 170/1/42 171/1/78 127/1/49 163/1/43
f 181/1/72 196/1/79 194/1/80 188/1/68
f 194/1/80 201/1/81 195/1/69 188/1/68
f 189/1/82 196/1/79 181/1/72 182/1/73
f 160/1/74 211/1/83 189/1/82 182/1/73
f 38/1/75 45/1/84 4/1/6
f 425/1/85 420/1/86 409/1/87 419/1/88
f 168/1/70 208/1/89 174/1/90 169/1/45
f 215/1/91 239/1/92 220/1/93 216/1/94
f 125/1/95 132/1/96 89/1/97 119/1/98
f 203/1/99 270/1/100 194/1/80 196/1/79
f 296/1/101 343/1/102 302/1/103 298/1/104
f 249/1/105 250/1/28 228/1/27 242/1/106
f 45/1/84 52/1/107 4/1/6
f 124/1/39 123/1/26 116/1/54 117/1/53
f 186/1/108 187/1/76 170/1/42 180/1/41
f 461/1/109 466/1/110 467/1/111 465/1/112
f 287/1/113 291/1/114 280/1/115 281/1/116
f 178/1/117 213/1/118 185/1/119 179/1/120
f 418/1/121 424/1/122 425/1/85 419/1/88
f 52/1/107 58/1/123 4/1/6
f 409/1/87 420/1/86 414/1/124 410/1/125
f 220/1/93 221/1/126 186/1/108 216/1/94
f 306/1/127 305/1/128 301/1/129 300/1/130
f 58/1/123 63/1/131 4/1/6
f 74/1/132 96/1/133 67/1/134 68/1/135
f 283/1/136 282/1/137 278/1/138 209/1/139
f 192/1/140 193/1/141 176/1/77 187/1/76
f 544/1/142 549/1/143 548/1/143 547/1/144
f 61/1/145 107/1/146 66/1/147 59/1/148
f 176/1/77 177/1/149 135/1/150 171/1/78
f 443/1/151 444/1/152 438/1/153 437/1/154
f 63/1/131 70/1/155 4/1/6
f 282/1/137 301/1/129 276/1/156 278/1/138
f 289/1/157 295/1/158 282/1/137 283/1/136
f 64/1/159 72/1/160 65/1/161 57/1/162
f 121/1/33 128/1/50 118/1/163 114/1/63
f 135/1/150 140/1/164 118/1/163 128/1/50
f 290/1/165 91/1/166 90/1/20 289/1/157
f 70/1/155 75/1/167 4/1/6
f 314/1/168 315/1/169 252/1/170 308/1/171
f 300/1/130 301/1/129 282/1/137 295/1/158
f 220/1/93 232/1/172 226/1/173 221/1/126
f 226/1/173 227/1/174 192/1/140 221/1/126
f 118/1/163 119/1/98 111/1/175 114/1/63
f 454/1/176 466/1/110 447/1/177 448/1/178
f 378/1/179 379/1/180 346/1/181 371/1/182
f 91/1/166 84/1/183 83/1/21 90/1/20
f 75/1/167 84/1/183 4/1/6
f 34/1/184 41/1/185 35/1/4 28/1/3
f 251/1/186 253/1/187 244/1/188 243/1/189
f 108/1/190 111/1/175 88/1/191 103/1/192
f 111/1/175 119/1/98 89/1/97 88/1/191
f 86/1/18 83/1/21 77/1/193 85/1/194
f 27/1/51 97/1/195 19/1/196 18/1/34
f 84/1/183 91/1/166 4/1/6
f 93/1/197 100/1/198 94/1/19 86/1/18
f 310/1/199 316/1/200 297/1/201 309/1/202
f 150/1/203 157/1/204 138/1/205 144/1/206
f 62/1/207 476/1/208 473/1/209 470/1/210
f 237/1/211 244/1/188 242/1/106 223/1/212
f 382/1/213 383/1/214 365/1/215 375/1/216
f 99/1/217 312/1/218 100/1/198 93/1/197
f 215/1/91 216/1/94 174/1/90 208/1/89
f 72/1/160 78/1/219 79/1/220 76/1/221
f 72/1/160 76/1/221 69/1/222 65/1/161
f 78/1/219 71/1/223 339/1/224 332/1/225
f 104/1/226 105/1/227 110/1/52 109/1/55
f 27/1/51 4/1/6 105/1/227
f 183/1/228 184/1/229 143/1/230 177/1/149
f 176/1/77 193/1/141 183/1/228 177/1/149
f 252/1/170 315/1/169 251/1/186 243/1/189
f 97/1/195 104/1/226 103/1/192 82/1/231
f 10/1/59 9/1/232 7/1/233 6/1/234
f 105/1/227 4/1/6 110/1/52
f 385/1/235 381/1/236 325/1/237 377/1/238
f 192/1/140 227/1/174 199/1/239 193/1/141
f 101/1/240 146/1/241 106/1/242 102/1/243
f 32/1/244 20/1/245 82/1/231 81/1/246
f 19/1/196 97/1/195 82/1/231 20/1/245
f 141/1/10 148/1/48 134/1/23 136/1/14
f 110/1/52 4/1/6 117/1/53
f 339/1/224 345/1/247 331/1/248 332/1/225
f 224/1/249 199/1/239 227/1/174 229/1/250
f 226/1/173 231/1/251 229/1/250 227/1/174
f 346/1/181 379/1/180 351/1/252 344/1/253
f 115/1/64 116/1/54 123/1/26 122/1/25
f 20/1/245 12/1/56 13/1/254 19/1/196
f 11/1/24 18/1/34 19/1/196 13/1/254
f 117/1/53 4/1/6 124/1/39
f 95/1/255 96/1/133 74/1/132 87/1/256
f 89/1/97 132/1/96 95/1/255 87/1/256
f 189/1/82 211/1/83 210/1/257 204/1/258
f 127/1/49 171/1/78 135/1/150 128/1/50
f 24/1/259 3/1/260 16/1/67 23/1/66
f 11/1/24 13/1/254 6/1/234 8/1/17
f 124/1/39 4/1/6 131/1/16
f 26/1/261 60/1/262 39/1/263 31/1/264
f 373/1/265 384/1/266 367/1/267 368/1/268
f 25/1/57 32/1/244 74/1/132 68/1/135
f 26/1/261 68/1/135 67/1/134 60/1/262
f 6/1/234 13/1/254 12/1/56 10/1/59
f 174/1/90 216/1/94 186/1/108 180/1/41
f 131/1/16 4/1/6 137/1/13
f 398/1/269 417/1/270 418/1/121 413/1/271
f 125/1/95 144/1/206 138/1/205 132/1/96
f 2/1/7 7/1/233 3/1/260 1/1/5
f 9/1/232 16/1/67 3/1/260 7/1/233
f 137/1/13 4/1/6 142/1/11
f 95/1/255 139/1/272 101/1/240 96/1/133
f 101/1/240 102/1/243 67/1/134 96/1/133
f 270/1/100 276/1/156 277/1/273 263/1/274
f 143/1/230 184/1/229 150/1/203 144/1/206
f 142/1/11 4/1/6 147/1/8
f 42/1/275 347/1/276 50/1/277 43/1/278
f 12/1/56 20/1/245 32/1/244 25/1/57
f 138/1/205 157/1/204 145/1/279 139/1/272
f 277/1/273 299/1/280 262/1/281 263/1/274
f 29/1/2 36/1/1 37/1/282 30/1/283
f 190/1/284 191/1/285 150/1/203 184/1/229
f 147/1/8 4/1/6 153/1/62
f 400/1/286 430/1/287 429/1/288 422/1/289
f 15/1/38 16/1/67 9/1/232 14/1/290
f 38/1/75 33/1/65 30/1/283 37/1/282
f 156/1/47 175/1/61 167/1/71 162/1/44
f 243/1/189 244/1/188 237/1/211 236/1/291
f 199/1/239 224/1/249 207/1/292 200/1/293
f 153/1/62 4/1/6 160/1/74
f 197/1/294 219/1/295 205/1/296 198/1/297
f 14/1/290 31/1/264 21/1/35 15/1/38
f 461/1/109 465/1/112 464/1/298 462/1/299
f 164/1/300 165/1/301 145/1/279 157/1/204
f 145/1/279 146/1/241 101/1/240 139/1/272
f 207/1/292 224/1/249 223/1/212 222/1/302
f 204/1/258 203/1/99 196/1/79 189/1/82
f 28/1/3 29/1/2 23/1/66 22/1/37
f 22/1/37 40/1/36 34/1/184 28/1/3
f 453/1/303 451/1/304 445/1/305 452/1/306
f 39/1/263 46/1/307 21/1/35 31/1/264
f 357/1/308 369/1/309 320/1/310 358/1/311
f 197/1/294 198/1/297 164/1/300 191/1/285
f 47/1/312 40/1/36 21/1/35 46/1/307
f 36/1/1 43/1/278 44/1/313 37/1/282
f 445/1/305 451/1/304 441/1/314 446/1/315
f 39/1/263 60/1/262 61/1/145 59/1/148
f 207/1/292 222/1/302 218/1/316 214/1/317
f 218/1/316 219/1/295 197/1/294 214/1/317
f 85/1/194 92/1/318 93/1/197 86/1/18
f 209/1/139 278/1/138 203/1/99 204/1/258
f 225/1/319 513/1/320 511/1/321 230/1/322
f 248/1/323 513/1/320 225/1/319 240/1/324
f 228/1/27 235/1/30 218/1/316 222/1/302
f 223/1/212 242/1/106 228/1/27 222/1/302
f 53/1/325 55/1/326 47/1/312 46/1/307
f 539/1/327 545/1/328 540/1/329 532/1/330
f 27/1/51 105/1/227 104/1/226 97/1/195
f 3/1/260 24/1/259 5/1/12 1/1/5
f 185/1/119 497/1/331 166/1/332 179/1/120
f 151/1/333 152/1/334 106/1/242 146/1/241
f 313/1/335 317/1/336 310/1/199 311/1/337
f 349/1/338 362/1/339 340/1/340 350/1/341
f 66/1/147 73/1/342 53/1/325 59/1/148
f 92/1/318 322/1/343 99/1/217 93/1/197
f 380/1/344 399/1/345 398/1/269 391/1/346
f 459/1/347 472/1/348 454/1/176 455/1/349
f 172/1/350 173/1/351 151/1/333 165/1/301
f 106/1/242 152/1/334 112/1/352 107/1/146
f 342/1/353 374/1/354 373/1/265 368/1/268
f 34/1/184 54/1/355 48/1/356 41/1/185
f 48/1/356 364/1/357 49/1/358 41/1/185
f 392/1/359 393/1/360 363/1/361 387/1/362
f 51/1/363 44/1/313 43/1/278 50/1/277
f 205/1/296 206/1/364 172/1/350 198/1/297
f 30/1/283 33/1/65 5/1/12 24/1/259
f 2/1/7 8/1/17 6/1/234 7/1/233
f 151/1/333 173/1/351 158/1/365 152/1/334
f 50/1/277 64/1/159 57/1/162 51/1/363
f 57/1/162 58/1/123 52/1/107 51/1/363
f 44/1/313 51/1/363 52/1/107 45/1/84
f 211/1/83 4/1/6 210/1/257
f 160/1/74 4/1/6 211/1/83
f 234/1/366 240/1/324 219/1/295 218/1/316
f 178/1/117 212/1/367 213/1/118
f 460/1/368 48/1/356 54/1/355 56/1/369
f 47/1/312 55/1/326 56/1/369 54/1/355
f 336/1/370 374/1/354 342/1/353 337/1/371
f 241/1/29 256/1/372 234/1/366 235/1/30
f 370/1/373 371/1/182 352/1/374 364/1/357
f 112/1/352 113/1/375 66/1/147 107/1/146
f 382/1/213 408/1/376 388/1/377 383/1/214
f 62/1/207 470/1/210 56/1/369 55/1/326
f 138/1/205 139/1/272 95/1/255 132/1/96
f 536/1/378 543/1/379 535/1/380 530/1/381
f 219/1/295 240/1/324 225/1/319 205/1/296
f 116/1/54 115/1/64 108/1/190 109/1/55
f 447/1/177 456/1/382 435/1/383 439/1/384
f 66/1/147 113/1/375 80/1/385 73/1/342
f 30/1/283 24/1/259 23/1/66 29/1/2
f 166/1/332 492/1/386 120/1/387 159/1/388
f 202/1/389 208/1/89 168/1/70 195/1/69
f 467/1/111 474/1/390 471/1/391 465/1/112
f 158/1/365 179/1/120 166/1/332 159/1/388
f 390/1/392 413/1/271 402/1/393 401/1/394
f 218/1/316 235/1/30 234/1/366
f 376/1/395 377/1/238 318/1/396 369/1/309
f 207/1/292 214/1/317 190/1/284 200/1/293
f 99/1/217 319/1/397 313/1/335 312/1/218
f 473/1/209 476/1/208 477/1/398 474/1/390
f 203/1/99 278/1/138 276/1/156 270/1/100
f 217/1/399 501/1/400 185/1/119 213/1/118
f 166/1/332 497/1/331 493/1/401 492/1/386
f 492/1/386 493/1/401 486/1/402 485/1/403
f 194/1/80 270/1/100 263/1/274 201/1/81
f 473/1/209 472/1/348 459/1/347 470/1/210
f 240/1/324 234/1/366 247/1/404
f 450/1/405 468/1/406 457/1/407 452/1/306
f 9/1/232 10/1/59 17/1/58 14/1/290
f 185/1/119 501/1/400 498/1/408 497/1/331
f 493/1/401 497/1/331 498/1/408 494/1/409
f 493/1/401 494/1/409 487/1/410 486/1/402
f 479/1/411 486/1/402 487/1/410 481/1/412
f 416/1/413 417/1/270 406/1/414 412/1/415
f 49/1/358 364/1/357 352/1/374 353/1/416
f 48/1/356 460/1/368 370/1/373 364/1/357
f 234/1/366 256/1/372 247/1/404
f 502/1/417 503/1/418 498/1/408 501/1/400
f 217/1/399 506/1/419 502/1/417 501/1/400
f 249/1/105 253/1/187 258/1/420
f 241/1/29 286/1/421 264/1/422 256/1/372
f 495/1/423 489/1/424 487/1/410 494/1/409
f 370/1/373 460/1/368 459/1/347 455/1/349
f 313/1/335 319/1/397 320/1/310 317/1/336
f 347/1/276 42/1/275 49/1/358 353/1/416
f 505/1/425 506/1/419 217/1/399 504/1/426
f 256/1/372 264/1/422 265/1/427
f 256/1/372 265/1/427 247/1/404
f 259/1/428 267/1/429 257/1/430
f 363/1/361 395/1/431 357/1/308 356/1/432
f 120/1/387 492/1/386 485/1/403 484/1/433
f 509/1/434 230/1/322 511/1/321 508/1/435
f 265/1/427 264/1/422 272/1/436
f 272/1/436 264/1/422 267/1/429
f 266/1/437 261/1/438 273/1/439
f 98/1/440 330/1/441 321/1/442 322/1/343
f 473/1/209 474/1/390 467/1/111 472/1/348
f 50/1/277 347/1/276 71/1/223 64/1/159
f 347/1/276 353/1/416 339/1/224 71/1/223
f 339/1/224 353/1/416 352/1/374 345/1/247
f 273/1/439 261/1/438 279/1/443
f 245/1/444 275/1/445 238/1/446 239/1/92
f 454/1/176 472/1/348 467/1/111 466/1/110
f 71/1/223 78/1/219 72/1/160 64/1/159
f 158/1/365 159/1/388 112/1/352 152/1/334
f 210/1/257 4/1/6 284/1/447
f 57/1/162 65/1/161 63/1/131 58/1/123
f 284/1/447 4/1/6 285/1/448
f 267/1/429 286/1/421 257/1/430
f 264/1/422 286/1/421 267/1/429
f 80/1/385 484/1/433 477/1/398 476/1/208
f 378/1/179 455/1/349 454/1/176 448/1/178
f 83/1/21 84/1/183 75/1/167 77/1/193
f 69/1/222 70/1/155 63/1/131 65/1/161
f 212/1/367 504/1/426 217/1/399 213/1/118
f 285/1/448 4/1/6 290/1/165
f 4/1/6 91/1/166 290/1/165
f 378/1/179 448/1/178 386/1/449 379/1/180
f 112/1/352 159/1/388 120/1/387 113/1/375
f 352/1/374 371/1/182 346/1/181 345/1/247
f 76/1/221 85/1/194 77/1/193 69/1/222
f 41/1/185 49/1/358 42/1/275 35/1/4
f 351/1/252 387/1/362 363/1/361 356/1/432
f 392/1/359 430/1/287 400/1/286 393/1/360
f 386/1/449 387/1/362 351/1/252 379/1/180
f 79/1/220 92/1/318 85/1/194 76/1/221
f 109/1/55 108/1/190 103/1/192 104/1/226
f 331/1/248 345/1/247 346/1/181 344/1/253
f 447/1/177 466/1/110 461/1/109 456/1/382
f 94/1/19 100/1/198 300/1/130 295/1/158
f 80/1/385 476/1/208 62/1/207 73/1/342
f 398/1/269 413/1/271 390/1/392 391/1/346
f 322/1/343 92/1/318 79/1/220 98/1/440
f 78/1/219 332/1/225 98/1/440 79/1/220
f 89/1/97 87/1/256 81/1/246 88/1/191
f 471/1/391 478/1/450 464/1/298 465/1/112
f 210/1/257 284/1/447 209/1/139 204/1/258
f 351/1/252 356/1/432 338/1/451 344/1/253
f 331/1/248 344/1/253 338/1/451 330/1/441
f 304/1/452 311/1/337 310/1/199 309/1/202
f 338/1/451 358/1/311 321/1/442 330/1/441
f 99/1/217 322/1/343 321/1/442 319/1/397
f 161/1/40 163/1/43 133/1/32 155/1/46
f 479/1/411 481/1/412 475/1/453 478/1/450
f 202/1/389 255/1/454 254/1/455 246/1/456
f 358/1/311 320/1/310 319/1/397 321/1/442
f 477/1/398 480/1/457 471/1/391 474/1/390
f 98/1/440 332/1/225 331/1/248 330/1/441
f 145/1/279 165/1/301 151/1/333 146/1/241
f 306/1/127 312/1/218 313/1/335 311/1/337
f 106/1/242 107/1/146 61/1/145 102/1/243
f 487/1/410 489/1/424 482/1/458 481/1/412
f 257/1/430 286/1/421 241/1/29 250/1/28
f 324/1/459 279/1/443 261/1/438
f 53/1/325 73/1/342 62/1/207 55/1/326
f 164/1/300 198/1/297 172/1/350 165/1/301
f 482/1/458 491/1/460 488/1/461 483/1/462
f 306/1/127 311/1/337 304/1/452 305/1/128
f 314/1/168 333/1/463 334/1/464
f 314/1/168 334/1/464 335/1/465
f 174/1/90 180/1/41 161/1/40 169/1/45
f 229/1/250 237/1/211 223/1/212 224/1/249
f 81/1/246 87/1/256 74/1/132 32/1/244
f 370/1/373 455/1/349 378/1/179 371/1/182
f 301/1/129 305/1/128 277/1/273 276/1/156
f 277/1/273 305/1/128 304/1/452 299/1/280
f 490/1/466 491/1/460 482/1/458 489/1/424
f 335/1/465 334/1/464 341/1/467
f 392/1/359 439/1/384 435/1/383 430/1/287
f 323/1/468 324/1/459 251/1/186 315/1/169
f 304/1/452 309/1/202 294/1/469 299/1/280
f 307/1/470 308/1/171 268/1/471 303/1/472
f 341/1/467 334/1/464 348/1/473
f 461/1/109 462/1/299 443/1/151 456/1/382
f 349/1/338 350/1/341 302/1/103 343/1/102
f 443/1/151 462/1/299 450/1/405 444/1/152
f 294/1/469 309/1/202 297/1/201 293/1/474
f 183/1/228 200/1/293 190/1/284 184/1/229
f 56/1/369 470/1/210 459/1/347 460/1/368
f 201/1/81 255/1/454 202/1/389 195/1/69
f 201/1/81 263/1/274 262/1/281 255/1/454
f 280/1/115 298/1/104 274/1/475 275/1/445
f 348/1/473 334/1/464 354/1/476
f 334/1/464 355/1/477 354/1/476
f 310/1/199 317/1/336 318/1/396 316/1/200
f 320/1/310 369/1/309 318/1/396 317/1/336
f 450/1/405 452/1/306 445/1/305 444/1/152
f 340/1/340 362/1/339 359/1/478 355/1/477
f 354/1/476 360/1/479 361/1/480
f 318/1/396 377/1/238 325/1/237 316/1/200
f 325/1/237 329/1/481 297/1/201 316/1/200
f 441/1/314 451/1/304 449/1/482 442/1/483
f 25/1/57 68/1/135 26/1/261 17/1/58
f 445/1/305 446/1/315 438/1/153 444/1/152
f 402/1/393 403/1/484 397/1/485 401/1/394
f 385/1/235 399/1/345 380/1/344 381/1/236
f 262/1/281 288/1/486 254/1/455 255/1/454
f 39/1/263 59/1/148 53/1/325 46/1/307
f 435/1/383 437/1/154 429/1/288 430/1/287
f 429/1/288 437/1/154 438/1/153 436/1/487
f 395/1/431 376/1/395 369/1/309 357/1/308
f 485/1/403 480/1/457 477/1/398 484/1/433
f 254/1/455 288/1/486 287/1/113 281/1/116
f 287/1/113 288/1/486 294/1/469 293/1/474
f 135/1/150 177/1/149 143/1/230 140/1/164
f 168/1/70 169/1/45 162/1/44 167/1/71
f 440/1/488 446/1/315 441/1/314 433/1/489
f 438/1/153 446/1/315 440/1/488 436/1/487
f 471/1/391 480/1/457 479/1/411 478/1/450
f 394/1/490 395/1/431 363/1/361 393/1/360
f 400/1/286 412/1/415 394/1/490 393/1/360
f 199/1/239 200/1/293 183/1/228 193/1/141
f 386/1/449 448/1/178 447/1/177 439/1/384
f 440/1/488 433/1/489 432/1/491 431/1/492
f 433/1/489 434/1/493 428/1/494 432/1/491
f 436/1/487 440/1/488 431/1/492 423/1/495
f 429/1/288 436/1/487 423/1/495 422/1/289
f 336/1/370 337/1/371 292/1/496 329/1/481
f 325/1/237 381/1/236 336/1/370 329/1/481
f 373/1/265 391/1/346 390/1/392 384/1/266
f 376/1/395 407/1/497 385/1/235 377/1/238
f 389/1/498 388/1/377 396/1/499
f 389/1/498 396/1/499 397/1/485
f 423/1/495 424/1/122 416/1/413 422/1/289
f 400/1/286 422/1/289 416/1/413 412/1/415
f 336/1/370 381/1/236 380/1/344 374/1/354
f 238/1/446 269/1/500 233/1/501 232/1/172
f 396/1/499 401/1/394 397/1/485
f 426/1/502 431/1/492 432/1/491 427/1/503
f 425/1/85 426/1/502 421/1/504 420/1/86
f 423/1/495 426/1/502 425/1/85 424/1/122
f 414/1/124 420/1/86 421/1/504 415/1/505
f 394/1/490 407/1/497 376/1/395 395/1/431
f 485/1/403 486/1/402 479/1/411 480/1/457
f 385/1/235 407/1/497 406/1/414 399/1/345
f 401/1/394 408/1/376 390/1/392
f 297/1/201 329/1/481 292/1/496 293/1/474
f 365/1/215 366/1/506 361/1/480 360/1/479
f 404/1/507 410/1/125 411/1/508
f 404/1/507 411/1/508 405/1/509
f 410/1/125 414/1/124 411/1/508
f 409/1/87 410/1/125 404/1/507 403/1/484
f 411/1/508 414/1/124 415/1/505
f 143/1/230 144/1/206 125/1/95 140/1/164
f 406/1/414 417/1/270 398/1/269 399/1/345
f 47/1/312 54/1/355 34/1/184 40/1/36
f 238/1/446 275/1/445 274/1/475 269/1/500
f 416/1/413 424/1/122 418/1/121 417/1/270
f 529/1/510 531/1/511 525/1/512 523/1/513
f 118/1/163 140/1/164 125/1/95 119/1/98
f 418/1/121 419/1/88 402/1/393 413/1/271
f 402/1/393 419/1/88 409/1/87 403/1/484
f 225/1/319 230/1/322 206/1/364 205/1/296
f 251/1/186 324/1/459 261/1/438 253/1/187
f 421/1/504 426/1/502 427/1/503
f 421/1/504 427/1/503 428/1/494
f 380/1/344 391/1/346 373/1/265 374/1/354
f 82/1/231 103/1/192 88/1/191 81/1/246
f 426/1/502 423/1/495 431/1/492
f 206/1/364 230/1/322 212/1/367 178/1/117
f 427/1/503 432/1/491 428/1/494
f 499/1/514 500/1/515 495/1/423 494/1/409
f 172/1/350 206/1/364 178/1/117 173/1/351
f 435/1/383 456/1/382 443/1/151 437/1/154
f 244/1/188 253/1/187 249/1/105 242/1/106
f 285/1/448 283/1/136 209/1/139 284/1/447
f 44/1/313 45/1/84 38/1/75 37/1/282
f 287/1/113 293/1/474 292/1/496 291/1/114
f 365/1/215 383/1/214 372/1/516 366/1/506
f 289/1/157 90/1/20 94/1/19 295/1/158
f 342/1/353 368/1/268 349/1/338 343/1/102
f 349/1/338 368/1/268 367/1/267 362/1/339
f 464/1/298 478/1/450 475/1/453 468/1/406
f 359/1/478 375/1/216 365/1/215 360/1/479
f 342/1/353 343/1/102 296/1/101 337/1/371
f 292/1/496 337/1/371 296/1/101 291/1/114
f 513/1/320 516/1/517 514/1/518 511/1/321
f 383/1/214 388/1/377 389/1/498 372/1/516
f 441/1/314 442/1/483 434/1/493 433/1/489
f 359/1/478 360/1/479 354/1/476 355/1/477
f 449/1/482 451/1/304 453/1/303
f 120/1/387 484/1/433 80/1/385 113/1/375
f 296/1/101 298/1/104 280/1/115 291/1/114
f 452/1/306 457/1/407 453/1/303
f 340/1/340 355/1/477 334/1/464 333/1/463
f 453/1/303 457/1/407 458/1/519
f 245/1/444 281/1/116 280/1/115 275/1/445
f 254/1/455 281/1/116 245/1/444 246/1/456
f 215/1/91 246/1/456 245/1/444 239/1/92
f 367/1/267 384/1/266 382/1/213 375/1/216
f 285/1/448 290/1/165 289/1/157 283/1/136
f 458/1/519 457/1/407 463/1/520
f 350/1/341 340/1/340 333/1/463 307/1/470
f 302/1/103 350/1/341 307/1/470 303/1/472
f 302/1/103 303/1/472 274/1/475 298/1/104
f 150/1/203 191/1/285 164/1/300 157/1/204
f 463/1/520 457/1/407 469/1/521
f 274/1/475 303/1/472 268/1/471 269/1/500
f 202/1/389 246/1/456 215/1/91 208/1/89
f 262/1/281 299/1/280 294/1/469 288/1/486
f 357/1/308 358/1/311 338/1/451 356/1/432
f 220/1/93 239/1/92 238/1/446 232/1/172
f 307/1/470 333/1/463 314/1/168 308/1/171
f 457/1/407 475/1/453 469/1/521
f 468/1/406 475/1/453 457/1/407
f 178/1/117 179/1/120 158/1/365 173/1/351
f 233/1/501 269/1/500 268/1/471 260/1/522
f 226/1/173 232/1/172 233/1/501 231/1/251
f 100/1/198 312/1/218 306/1/127 300/1/130
f 268/1/471 308/1/171 252/1/170 260/1/522
f 314/1/168 328/1/523 323/1/468 315/1/169
f 233/1/501 260/1/522 236/1/291 231/1/251
f 236/1/291 260/1/522 252/1/170 243/1/189
f 236/1/291 237/1/211 229/1/250 231/1/251
f 555/1/524 560/1/525 556/1/526 552/1/527
f 108/1/190 115/1/64 114/1/63 111/1/175
f 67/1/134 102/1/243 61/1/145 60/1/262
f 323/1/468 326/1/528 279/1/443 324/1/459
f 190/1/284 214/1/317 197/1/294 191/1/285
f 42/1/275 43/1/278 36/1/1 35/1/4
f 69/1/222 77/1/193 75/1/167 70/1/155
f 489/1/424 495/1/423 490/1/466
f 517/1/529 516/1/517 513/1/320 248/1/323
f 490/1/466 495/1/423 496/1/530
f 574/1/531 577/1/532 575/1/533 572/1/534
f 390/1/392 408/1/376 382/1/213 384/1/266
f 261/1/438 266/1/437 258/1/420 253/1/187
f 494/1/409 498/1/408 499/1/514
f 495/1/423 500/1/515 496/1/530
f 561/1/535 566/1/536 565/1/537 562/1/535
f 26/1/261 31/1/264 14/1/290 17/1/58
f 388/1/377 408/1/376 401/1/394 396/1/499
f 502/1/417 507/1/538 503/1/418
f 505/1/425 507/1/538 506/1/419
f 502/1/417 506/1/419 507/1/538
f 504/1/426 508/1/435 505/1/425
f 504/1/426 509/1/434 508/1/435
f 212/1/367 230/1/322 509/1/434
f 504/1/426 212/1/367 509/1/434
f 505/1/425 510/1/539 507/1/538
f 505/1/425 508/1/435 510/1/539
f 323/1/468 328/1/523 327/1/540 326/1/528
f 265/1/427 248/1/323 240/1/324 247/1/404
f 508/1/435 511/1/321 512/1/541
f 511/1/321 514/1/518 512/1/541
f 464/1/298 468/1/406 450/1/405 462/1/299
f 512/1/541 514/1/518 515/1/542
f 514/1/518 516/1/517 515/1/542
f 545/1/328 550/1/543 546/1/544 540/1/329
f 515/1/542 516/1/517 517/1/529
f 515/1/542 517/1/529 271/1/545
f 518/1/546 519/1/547 520/1/548
f 518/1/546 520/1/548 521/1/549
f 249/1/105 259/1/428 257/1/430 250/1/28
f 367/1/267 375/1/216 359/1/478 362/1/339
f 520/1/548 523/1/513 525/1/512
f 522/1/550 527/1/551 523/1/513
f 523/1/513 527/1/551 528/1/552
f 537/1/553 541/1/554 532/1/330 531/1/511
f 523/1/513 528/1/552 529/1/510
f 404/1/507 405/1/509 397/1/485 403/1/484
f 525/1/512 531/1/511 532/1/330
f 529/1/510 534/1/555 531/1/511
f 530/1/381 535/1/380 533/1/556
f 551/1/557 555/1/524 552/1/527 546/1/544
f 522/1/550 523/1/513 520/1/548 519/1/547
f 531/1/511 534/1/555 538/1/558
f 531/1/511 538/1/558 537/1/553
f 524/1/559 526/1/560 521/1/549 520/1/548
f 532/1/330 542/1/561 539/1/327
f 532/1/330 541/1/554 542/1/561
f 386/1/449 439/1/384 392/1/359 387/1/362
f 530/1/381 533/1/556 526/1/560 524/1/559
f 561/1/535 562/1/535 556/1/526 560/1/525
f 546/1/544 550/1/543 551/1/557
f 553/1/562 559/1/563 558/1/564 557/1/565
f 271/1/545 517/1/529 248/1/323 265/1/427
f 544/1/142 547/1/144 543/1/379 536/1/378
f 553/1/562 557/1/565 554/1/566
f 571/1/567 572/1/534 565/1/537 570/1/568
f 482/1/458 483/1/462 475/1/453 481/1/412
f 559/1/563 563/1/569 558/1/564
f 155/1/46 133/1/32 134/1/23 148/1/48
f 553/1/562 554/1/566 548/1/143 549/1/143
f 564/1/570 568/1/571 567/1/572
f 564/1/570 569/1/573 568/1/571
f 566/1/536 570/1/568 565/1/537
f 186/1/108 221/1/126 192/1/140 187/1/76
f 568/1/571 569/1/573 573/1/574
f 571/1/567 574/1/531 572/1/534
f 564/1/570 567/1/572 563/1/569 559/1/563
f 573/1/574 569/1/573 576/1/575
f 575/1/533 578/1/576 569/1/573
f 575/1/533 577/1/532 578/1/576
f 576/1/575 569/1/573 579/1/577
f 578/1/576 580/1/578 569/1/573
f 579/1/577 569/1/573 581/1/579
f 580/1/578 582/1/580 569/1/573
f 581/1/579 569/1/573 583/1/581
f 582/1/580 584/1/582 569/1/573
f 583/1/581 569/1/573 585/1/583
f 584/1/582 586/1/584 569/1/573
f 569/1/573 586/1/584 587/1/585
f 569/1/573 587/1/585 588/1/586
f 569/1/573 589/1/587 585/1/583
f 569/1/573 588/1/586 589/1/587
f 394/1/490 412/1/415 406/1/414 407/1/497
