# Blender 4.3.2
# www.blender.org
o hair.127
v 7.984832 0.643388 0.014213
v 7.976512 0.632771 0.032124
v 7.972536 0.636818 0.030759
v 7.961538 0.634893 0.021738
v 7.960278 0.630654 0.021082
v 7.967480 0.636044 0.028494
v 7.965872 0.630934 0.027476
v 7.963682 0.632868 0.024579
v 7.984832 0.643126 0.033097
v 7.980826 0.637822 0.032784
v 7.959035 0.626389 0.019992
v 7.957860 0.620760 0.017906
v 7.955456 0.611939 0.008756
v 7.954686 0.615248 0.006730
v 7.956923 0.614839 0.014801
v 7.956240 0.608650 0.010812
v 7.953932 0.618576 0.004733
v 7.968964 0.641214 0.029433
v 7.997128 0.636818 0.030759
v 7.993152 0.632771 0.032124
v 8.009387 0.630654 0.021082
v 8.008126 0.634893 0.021738
v 8.003793 0.630934 0.027476
v 8.002185 0.636044 0.028494
v 8.005982 0.632868 0.024579
v 7.988838 0.637822 0.032784
v 8.011804 0.620760 0.017906
v 8.010629 0.626389 0.019992
v 8.014979 0.615248 0.006730
v 8.014209 0.611939 0.008756
v 8.013424 0.608650 0.010812
v 8.012741 0.614839 0.014801
v 8.015733 0.618576 0.004733
v 8.000700 0.641214 0.029433
v 7.979480 0.642803 0.032851
v 7.975789 0.642470 0.032352
v 7.976101 0.638204 0.033004
v 7.978657 0.638420 0.033312
v 7.984832 0.643126 0.033097
v 7.980133 0.646286 0.030855
v 7.972509 0.641965 0.031252
v 7.975790 0.645817 0.030409
v 7.972047 0.645128 0.029092
v 7.976512 0.632771 0.032124
v 7.973856 0.637838 0.032157
v 7.980826 0.637822 0.032784
v 7.980272 0.649059 0.027995
v 7.984832 0.646456 0.030996
v 7.984832 0.649256 0.028152
v 7.968964 0.641214 0.029433
v 7.975914 0.648611 0.027481
v 7.972149 0.647745 0.026271
v 7.968730 0.644187 0.027450
v 7.972536 0.636818 0.030759
v 7.980411 0.652066 0.023654
v 7.976258 0.651581 0.023070
v 7.989532 0.646286 0.030855
v 7.972701 0.650696 0.021898
v 7.968919 0.646667 0.024746
v 7.965770 0.643115 0.025880
v 7.984832 0.652310 0.023864
v 7.984832 0.654369 0.019807
v 7.980648 0.654216 0.019514
v 7.976714 0.653750 0.018860
v 7.973299 0.652933 0.017807
v 7.988838 0.637822 0.032784
v 7.991008 0.638420 0.033312
v 7.990184 0.642803 0.032851
v 7.989254 0.652066 0.023654
v 7.980845 0.655989 0.015124
v 7.977187 0.655473 0.014375
v 7.974092 0.654784 0.013304
v 7.970400 0.652033 0.016428
v 7.993152 0.632771 0.032124
v 7.993563 0.638204 0.033004
v 7.993876 0.642470 0.032352
v 7.989393 0.649059 0.027995
v 7.977876 0.656831 0.009670
v 7.972757 0.655493 0.007598
v 7.971460 0.653960 0.012044
v 7.969587 0.649712 0.020471
v 7.995808 0.637838 0.032157
v 7.997128 0.636818 0.030759
v 7.997156 0.641965 0.031252
v 7.993875 0.645817 0.030409
v 7.997618 0.645128 0.029092
v 7.993751 0.648611 0.027481
v 7.969241 0.653082 0.010732
v 7.966843 0.648772 0.018977
v 7.965978 0.645642 0.023237
v 8.000700 0.641214 0.029433
v 7.997515 0.647745 0.026271
v 8.000934 0.644187 0.027450
v 7.993406 0.651581 0.023070
v 7.996964 0.650696 0.021898
v 7.989017 0.654216 0.019514
v 7.967907 0.651133 0.014990
v 7.963264 0.641805 0.024220
v 7.965632 0.639305 0.027699
v 8.000746 0.646667 0.024746
v 8.003895 0.643115 0.025880
v 7.988820 0.655989 0.015124
v 7.992950 0.653750 0.018860
v 7.984832 0.656080 0.015384
v 7.965710 0.650120 0.013434
v 7.965937 0.636136 0.028137
v 7.967480 0.636044 0.028494
v 7.996366 0.652933 0.017807
v 7.995573 0.654784 0.013304
v 7.992478 0.655473 0.014375
v 7.984832 0.657360 0.010646
v 7.969141 0.653699 0.005251
v 7.967303 0.652076 0.009334
v 7.965872 0.630934 0.027476
v 7.999265 0.652033 0.016428
v 7.991788 0.656831 0.009670
v 7.984832 0.658077 0.005843
v 7.978755 0.657609 0.005064
v 7.974351 0.656407 0.003304
v 7.965627 0.650757 0.007818
v 7.964604 0.635444 0.027107
v 7.963705 0.634262 0.025847
v 7.963682 0.632868 0.024579
v 7.979607 0.657971 0.001106
v 7.975867 0.656926 -0.000376
v 7.973241 0.655672 -0.002046
v 7.971249 0.654889 0.001331
v 7.963828 0.648761 0.011698
v 7.964430 0.647717 0.017315
v 7.963730 0.638045 0.026370
v 7.961538 0.634893 0.021738
v 7.977739 0.657021 -0.004325
v 7.980666 0.657816 -0.003118
v 7.966317 0.651139 0.002500
v 7.962382 0.646379 0.015414
v 7.963369 0.644515 0.021537
v 7.962420 0.636653 0.024548
v 7.961394 0.640219 0.022072
v 7.964182 0.649191 0.006066
v 7.961289 0.643123 0.019475
v 7.959928 0.638423 0.019487
v 7.960787 0.645266 0.007125
v 7.962247 0.647098 0.009650
v 7.962824 0.647494 0.003923
v 7.959547 0.641540 0.016918
v 7.958951 0.633125 0.019395
v 7.960278 0.630654 0.021082
v 7.957863 0.636644 0.016219
v 7.959518 0.643447 0.004470
v 7.959097 0.642885 0.010239
v 7.960664 0.644754 0.013112
v 7.963990 0.648159 -0.001317
v 7.961672 0.645807 0.001620
v 7.968746 0.652760 -0.000967
v 7.957556 0.639892 0.013787
v 7.959035 0.626389 0.019992
v 7.956482 0.631219 0.016577
v 7.955761 0.635019 0.013256
v 7.957673 0.640999 0.007297
v 7.956248 0.638037 0.010419
v 7.960919 0.644274 -0.000621
v 7.971019 0.654016 -0.004012
v 7.969110 0.651893 -0.006795
v 7.966623 0.650225 -0.004237
v 7.955926 0.624959 0.015923
v 7.957860 0.620760 0.017906
v 7.954988 0.629322 0.013293
v 7.954683 0.633033 0.010084
v 7.955513 0.636079 0.007379
v 7.975677 0.656090 -0.005661
v 7.973858 0.654884 -0.007292
v 7.962684 0.645555 -0.005341
v 7.955850 0.620009 0.015438
v 7.955785 0.614729 0.013571
v 7.956923 0.614839 0.014801
v 7.954093 0.627364 0.010126
v 7.956968 0.639140 0.004536
v 7.955220 0.634350 0.004494
v 7.960444 0.642827 -0.002846
v 7.958416 0.640091 -0.000413
v 7.958800 0.641726 0.001981
v 7.956240 0.608650 0.010812
v 7.956648 0.637368 0.001957
v 7.956494 0.635597 -0.000637
v 7.955184 0.632582 0.001641
v 7.954314 0.631001 0.007209
v 7.960121 0.641401 -0.005123
v 7.958198 0.638476 -0.002849
v 7.955086 0.614252 0.011963
v 7.954991 0.613173 0.010282
v 7.955456 0.611939 0.008756
v 7.954208 0.628910 0.004334
v 7.953835 0.625136 0.006787
v 7.965334 0.647969 -0.007741
v 7.962163 0.642673 -0.010031
v 7.958229 0.636442 -0.005912
v 7.954595 0.618806 0.012640
v 7.954311 0.617205 0.009706
v 7.954686 0.615248 0.006730
v 7.967927 0.649915 -0.009778
v 7.956638 0.633339 -0.003910
v 7.954375 0.623339 0.012523
v 7.953932 0.621160 0.008760
v 7.953932 0.618576 0.004733
v 7.972254 0.653262 -0.009510
v 7.967475 0.647693 -0.013275
v 7.971259 0.651666 -0.011868
v 7.954615 0.626148 0.000522
v 7.955457 0.630097 -0.001854
v 7.976528 0.655023 -0.009892
v 7.977927 0.655895 -0.008558
v 7.964806 0.645438 -0.011830
v 7.954128 0.622277 0.002608
v 7.956247 0.626403 -0.007023
v 7.980352 0.655260 -0.011531
v 7.981367 0.655709 -0.010840
v 7.979469 0.656582 -0.007523
v 7.965170 0.643424 -0.015017
v 7.967879 0.645994 -0.016019
v 7.955542 0.617761 -0.004036
v 7.957186 0.630081 -0.008637
v 7.955658 0.613703 -0.003658
v 7.955919 0.609082 0.001569
v 7.981667 0.657189 -0.006622
v 7.970921 0.649884 -0.014654
v 7.955694 0.622091 -0.005322
v 7.955792 0.607413 -0.004365
v 7.957337 0.609321 -0.010570
v 7.955503 0.604153 -0.000846
v 7.982797 0.656103 -0.010235
v 7.984832 0.657513 -0.006213
v 7.984832 0.658196 -0.002582
v 7.957792 0.622582 -0.012595
v 7.957464 0.617962 -0.011493
v 7.954506 0.598356 -0.007212
v 7.954634 0.599294 -0.003685
v 7.955329 0.602532 -0.005528
v 7.984832 0.658389 0.001745
v 7.960454 0.619331 -0.017595
v 7.958425 0.626567 -0.013847
v 7.958478 0.633581 -0.010228
v 7.957366 0.613339 -0.010836
v 7.951721 0.591668 -0.010698
v 7.956800 0.600784 -0.010548
v 7.957467 0.604713 -0.010450
v 7.990058 0.657971 0.001106
v 7.959385 0.630351 -0.015183
v 7.960899 0.623349 -0.018709
v 7.960223 0.636984 -0.012005
v 7.960052 0.639577 -0.007985
v 7.955279 0.596951 -0.010271
v 7.956708 0.595749 -0.012759
v 7.957831 0.594920 -0.014062
v 7.960512 0.602358 -0.014815
v 7.988998 0.657816 -0.003118
v 7.962428 0.640338 -0.013677
v 7.959839 0.599104 -0.014121
v 7.963941 0.598173 -0.017426
v 7.960384 0.606435 -0.015434
v 7.986867 0.656103 -0.010235
v 7.984832 0.656309 -0.009957
v 7.987998 0.657189 -0.006622
v 7.963489 0.601478 -0.018190
v 7.965467 0.598808 -0.022024
v 7.964459 0.594654 -0.021798
v 7.960341 0.610178 -0.015967
v 7.984832 0.654780 -0.013336
v 7.983857 0.654698 -0.013471
v 7.966102 0.641228 -0.018634
v 7.963384 0.604950 -0.018885
v 7.965255 0.595970 -0.023480
v 7.965005 0.591135 -0.026166
v 7.960293 0.614726 -0.016612
v 7.983146 0.654520 -0.013765
v 7.963275 0.637777 -0.017855
v 7.965833 0.604194 -0.022034
v 7.963422 0.608260 -0.019562
v 7.963376 0.616825 -0.021559
v 7.963346 0.612427 -0.020448
v 7.979415 0.654703 -0.012410
v 7.982632 0.654308 -0.014116
v 7.961022 0.634078 -0.016625
v 7.965683 0.601249 -0.021799
v 7.965995 0.607128 -0.022323
v 7.966008 0.615154 -0.024092
v 7.966022 0.610932 -0.023020
v 7.975255 0.653857 -0.011601
v 7.984832 0.653227 -0.016509
v 7.982169 0.654040 -0.014557
v 7.967848 0.598816 -0.025126
v 7.978604 0.653996 -0.013543
v 7.974475 0.652655 -0.013395
v 7.981815 0.653695 -0.015129
v 7.967010 0.596273 -0.025406
v 7.978113 0.653236 -0.014754
v 7.974235 0.651320 -0.015530
v 7.981589 0.653329 -0.015733
v 7.969107 0.595601 -0.026635
v 7.970854 0.594019 -0.026861
v 7.978024 0.652356 -0.016203
v 7.974497 0.650347 -0.017226
v 7.978305 0.651762 -0.017291
v 7.971302 0.648557 -0.016846
v 7.985808 0.654698 -0.013471
v 7.981552 0.652908 -0.016427
v 7.971509 0.598151 -0.026764
v 7.968295 0.601147 -0.024848
v 7.976695 0.596918 -0.027538
v 7.981691 0.652604 -0.016960
v 7.972099 0.647109 -0.019291
v 7.968788 0.644149 -0.019112
v 7.988298 0.655709 -0.010840
v 7.968498 0.603708 -0.024592
v 7.981853 0.652278 -0.017473
v 7.978669 0.651071 -0.018385
v 7.970226 0.642483 -0.022123
v 7.967669 0.639273 -0.022226
v 7.971807 0.602956 -0.026451
v 7.968638 0.606326 -0.024405
v 7.982141 0.651991 -0.017942
v 7.975272 0.649297 -0.019040
v 7.979264 0.650441 -0.019380
v 7.965029 0.635431 -0.021966
v 7.969492 0.637707 -0.025251
v 7.971990 0.600366 -0.026640
v 7.982446 0.651712 -0.018404
v 7.979876 0.649820 -0.020284
v 7.967108 0.633542 -0.025429
v 7.963049 0.631305 -0.021101
v 7.976182 0.599683 -0.027617
v 7.975708 0.602263 -0.027557
v 7.982999 0.651415 -0.018887
v 7.981016 0.649168 -0.021283
v 7.977167 0.647314 -0.022122
v 7.961707 0.627227 -0.019930
v 7.980423 0.599988 -0.028713
v 7.980101 0.602284 -0.028700
v 7.971604 0.605533 -0.026185
v 7.983691 0.651237 -0.019181
v 7.982459 0.648787 -0.021879
v 7.978885 0.646395 -0.023611
v 7.976096 0.648185 -0.020781
v 7.963643 0.620775 -0.022701
v 7.968591 0.609898 -0.024826
v 7.984260 0.651188 -0.019269
v 7.983612 0.648682 -0.022045
v 7.981008 0.645799 -0.024562
v 7.979718 0.642704 -0.026845
v 7.976918 0.643497 -0.025523
v 7.968478 0.613999 -0.025791
v 7.971082 0.613027 -0.027285
v 7.971350 0.609010 -0.026449
v 7.982771 0.645535 -0.024997
v 7.974648 0.644673 -0.023505
v 7.973314 0.645766 -0.021605
v 7.966145 0.619095 -0.025228
v 7.968525 0.617971 -0.026879
v 7.975247 0.604886 -0.027487
v 7.971844 0.641144 -0.024636
v 7.974705 0.639682 -0.027284
v 7.966648 0.623127 -0.026318
v 7.964334 0.624695 -0.023887
v 7.968884 0.622121 -0.027853
v 7.971033 0.617026 -0.028344
v 7.972843 0.635969 -0.028416
v 7.978257 0.638658 -0.029053
v 7.977024 0.634736 -0.030561
v 7.965429 0.629060 -0.024842
v 7.974518 0.612283 -0.028560
v 7.984832 0.602465 -0.029298
v 7.979787 0.604730 -0.028660
v 7.981290 0.638225 -0.029793
v 7.970985 0.631438 -0.029019
v 7.969694 0.626673 -0.028664
v 7.974862 0.608352 -0.027818
v 7.984832 0.600399 -0.029260
v 7.984832 0.598180 -0.029620
v 7.980966 0.597868 -0.029077
v 7.979524 0.608035 -0.028926
v 7.975829 0.629977 -0.031445
v 7.979300 0.611824 -0.029617
v 7.989242 0.599988 -0.028713
v 7.982476 0.594126 -0.030694
v 7.980764 0.592814 -0.030416
v 7.984832 0.607949 -0.029551
v 7.980620 0.634214 -0.031461
v 7.971213 0.621249 -0.029283
v 7.974412 0.616254 -0.029599
v 7.984832 0.594589 -0.030848
v 7.984832 0.588708 -0.033298
v 7.984832 0.604763 -0.029317
v 7.974984 0.625089 -0.031243
v 7.974436 0.620481 -0.030528
v 7.979228 0.615663 -0.030653
v 7.988698 0.597868 -0.029077
v 7.987188 0.594126 -0.030694
v 7.988900 0.592814 -0.030416
v 7.989877 0.604730 -0.028660
v 7.989564 0.602284 -0.028700
v 7.979975 0.629353 -0.032468
v 7.984832 0.611640 -0.030216
v 7.992970 0.596918 -0.027538
v 7.993482 0.599683 -0.027617
v 7.990365 0.611824 -0.029617
v 7.990140 0.608035 -0.028926
v 7.994417 0.604886 -0.027487
v 7.993957 0.602263 -0.027557
v 7.984832 0.633965 -0.031868
v 7.984832 0.629057 -0.032938
v 7.979521 0.624400 -0.032333
v 7.998156 0.598151 -0.026764
v 7.998810 0.594019 -0.026861
v 7.997675 0.600366 -0.026640
v 7.994803 0.608352 -0.027818
v 7.997858 0.602956 -0.026451
v 7.998061 0.605533 -0.026185
v 8.000558 0.595601 -0.026635
v 8.001816 0.598816 -0.025126
v 8.001369 0.601147 -0.024848
v 8.004660 0.591135 -0.026166
v 7.995147 0.612283 -0.028560
v 7.998315 0.609010 -0.026449
v 7.979225 0.619778 -0.031637
v 8.002655 0.596273 -0.025406
v 8.001166 0.603708 -0.024592
v 8.003981 0.601249 -0.021799
v 7.984832 0.624067 -0.032865
v 7.984832 0.619434 -0.032199
v 7.984832 0.615369 -0.031296
v 8.004410 0.595970 -0.023480
v 8.001026 0.606326 -0.024405
v 8.004197 0.598808 -0.022024
v 8.001074 0.609898 -0.024826
v 7.990144 0.624400 -0.032333
v 7.990439 0.619778 -0.031637
v 7.989689 0.629353 -0.032468
v 7.990437 0.615663 -0.030653
v 8.005205 0.594654 -0.021798
v 8.006176 0.601478 -0.018190
v 8.005724 0.598173 -0.017426
v 7.998582 0.613027 -0.027285
v 7.995228 0.620481 -0.030528
v 7.995253 0.616254 -0.029599
v 8.003832 0.604194 -0.022034
v 8.006280 0.604950 -0.018885
v 8.009152 0.602358 -0.014815
v 8.009826 0.599104 -0.014121
v 8.012957 0.595749 -0.012759
v 8.011833 0.594920 -0.014062
v 7.998631 0.617026 -0.028344
v 7.994681 0.625089 -0.031243
v 7.998451 0.621249 -0.029283
v 8.012865 0.600784 -0.010548
v 8.014385 0.596951 -0.010271
v 8.017943 0.591668 -0.010698
v 8.003670 0.607128 -0.022323
v 8.000780 0.622121 -0.027853
v 8.001140 0.617971 -0.026879
v 7.999971 0.626673 -0.028664
v 8.015158 0.598356 -0.007212
v 8.015030 0.599294 -0.003685
v 8.006243 0.608260 -0.019562
v 8.003642 0.610932 -0.023020
v 8.003016 0.623127 -0.026318
v 8.001186 0.613999 -0.025791
v 8.003519 0.619095 -0.025228
v 8.014336 0.602532 -0.005528
v 8.014162 0.604153 -0.000846
v 8.009280 0.606435 -0.015434
v 8.009323 0.610178 -0.015967
v 8.003656 0.615154 -0.024092
v 8.006318 0.612427 -0.020448
v 8.006021 0.620775 -0.022701
v 8.012197 0.604713 -0.010450
v 8.013872 0.607413 -0.004365
v 8.013745 0.609082 0.001569
v 8.012328 0.609321 -0.010570
v 8.012299 0.613339 -0.010836
v 8.009372 0.614726 -0.016612
v 8.012200 0.617962 -0.011493
v 8.006289 0.616825 -0.021559
v 8.014007 0.613703 -0.003658
v 8.015733 0.618576 0.004733
v 8.014123 0.617761 -0.004036
v 8.009211 0.619331 -0.017595
v 8.011872 0.622582 -0.012595
v 8.013418 0.626403 -0.007023
v 8.013971 0.622091 -0.005322
v 8.008766 0.623349 -0.018709
v 8.015049 0.626148 0.000522
v 8.015536 0.622277 0.002608
v 8.011240 0.626567 -0.013847
v 8.012479 0.630081 -0.008637
v 8.014208 0.630097 -0.001854
v 8.013027 0.633339 -0.003910
v 8.007957 0.627227 -0.019930
v 8.010279 0.630351 -0.015183
v 8.005330 0.624695 -0.023887
v 8.014482 0.632582 0.001641
v 8.015457 0.628910 0.004334
v 8.015830 0.625136 0.006787
v 8.011187 0.633581 -0.010228
v 8.011436 0.636442 -0.005912
v 8.013171 0.635597 -0.000637
v 8.006616 0.631305 -0.021101
v 8.004235 0.629060 -0.024842
v 8.014444 0.634350 0.004494
v 8.015350 0.631001 0.007209
v 8.015733 0.621160 0.008760
v 8.015573 0.627364 0.010126
v 8.015353 0.617205 0.009706
v 8.014979 0.615248 0.006730
v 8.009441 0.636984 -0.012005
v 7.993836 0.629977 -0.031445
v 7.998680 0.631438 -0.029019
v 8.002557 0.633542 -0.025429
v 8.014982 0.633033 0.010084
v 8.015289 0.623339 0.012523
v 8.014209 0.611939 0.008756
v 8.008642 0.634078 -0.016625
v 7.992641 0.634736 -0.030561
v 7.996822 0.635969 -0.028416
v 7.989045 0.634214 -0.031461
v 8.000173 0.637707 -0.025251
v 8.004636 0.635431 -0.021966
v 8.014674 0.613173 0.010282
v 8.013424 0.608650 0.010812
v 8.006389 0.637777 -0.017855
v 7.994959 0.639682 -0.027284
v 7.997821 0.641144 -0.024636
v 7.988374 0.638225 -0.029793
v 8.001996 0.639273 -0.022226
v 8.015070 0.618806 0.012640
v 8.014579 0.614252 0.011963
v 8.013879 0.614729 0.013571
v 8.012741 0.614839 0.014801
v 7.984832 0.638023 -0.030143
v 7.991408 0.638658 -0.029053
v 8.003563 0.641228 -0.018634
v 7.999438 0.642483 -0.022123
v 8.013815 0.620009 0.015438
v 8.011804 0.620760 0.017906
v 7.982084 0.642358 -0.027385
v 7.989947 0.642704 -0.026845
v 7.992746 0.643497 -0.025523
v 8.007236 0.640338 -0.013677
v 8.013739 0.624959 0.015923
v 8.010629 0.626389 0.019992
v 7.987581 0.642358 -0.027385
v 7.995016 0.644673 -0.023505
v 8.009612 0.639577 -0.007985
v 7.996351 0.645766 -0.021605
v 8.010714 0.633125 0.019395
v 8.009387 0.630654 0.021082
v 8.013183 0.631219 0.016577
v 7.984832 0.642192 -0.027638
v 7.986894 0.645535 -0.024997
v 7.997566 0.647109 -0.019291
v 7.993569 0.648185 -0.020781
v 8.000876 0.644149 -0.019112
v 8.014677 0.629322 0.013293
v 8.008126 0.634893 0.021738
v 7.988657 0.645799 -0.024562
v 7.990780 0.646395 -0.023611
v 8.001785 0.645994 -0.016019
v 7.998363 0.648557 -0.016846
v 8.004494 0.643424 -0.015017
v 7.984832 0.645413 -0.025138
v 7.992498 0.647314 -0.022122
v 7.998744 0.649884 -0.014654
v 7.995168 0.650347 -0.017226
v 8.007502 0.642673 -0.010031
v 7.984832 0.648595 -0.022180
v 7.994393 0.649297 -0.019040
v 7.995430 0.651320 -0.015530
v 7.991360 0.651762 -0.017291
v 8.009543 0.641401 -0.005123
v 7.986053 0.648682 -0.022045
v 7.984832 0.651148 -0.019334
v 7.990400 0.650441 -0.019380
v 7.990996 0.651071 -0.018385
v 8.011467 0.638476 -0.002849
v 7.985404 0.651188 -0.019269
v 7.987206 0.648787 -0.021879
v 7.989789 0.649820 -0.020284
v 7.987524 0.651991 -0.017942
v 7.988649 0.649168 -0.021283
v 7.987811 0.652278 -0.017473
v 7.987974 0.652604 -0.016960
v 8.013017 0.637368 0.001957
v 7.985974 0.651237 -0.019181
v 7.986665 0.651415 -0.018887
v 7.987219 0.651712 -0.018404
v 7.988112 0.652908 -0.016427
v 7.991641 0.652356 -0.016203
v 8.012697 0.639140 0.004536
v 8.011249 0.640091 -0.000413
v 8.014152 0.636079 0.007379
v 7.988075 0.653329 -0.015733
v 7.991551 0.653236 -0.014754
v 7.995189 0.652655 -0.013395
v 7.998405 0.651666 -0.011868
v 8.011992 0.640999 0.007297
v 8.010865 0.641726 0.001981
v 8.013417 0.638037 0.010419
v 8.013903 0.635019 0.013256
v 7.987850 0.653695 -0.015129
v 7.991060 0.653996 -0.013543
v 8.002189 0.647693 -0.013275
v 8.008745 0.644274 -0.000621
v 8.010146 0.643447 0.004470
v 7.987495 0.654040 -0.014557
v 7.986518 0.654520 -0.013765
v 7.987032 0.654308 -0.014116
v 8.004859 0.645438 -0.011830
v 8.009220 0.642827 -0.002846
v 8.011801 0.636644 0.016219
v 7.990249 0.654703 -0.012410
v 7.989313 0.655260 -0.011531
v 8.004331 0.647969 -0.007741
v 8.006980 0.645555 -0.005341
v 8.009737 0.638423 0.019487
v 8.012109 0.639892 0.013787
v 8.001738 0.649915 -0.009778
v 8.003042 0.650225 -0.004237
v 8.005675 0.648159 -0.001317
v 8.007993 0.645807 0.001620
v 8.007245 0.636653 0.024548
v 8.005960 0.634262 0.025847
v 8.005982 0.632868 0.024579
v 8.010118 0.641540 0.016918
v 8.010568 0.642885 0.010239
v 8.006841 0.647494 0.003923
v 8.008878 0.645266 0.007125
v 8.005060 0.635444 0.027107
v 8.003793 0.630934 0.027476
v 8.008375 0.643123 0.019475
v 8.008270 0.640219 0.022072
v 8.007417 0.647098 0.009650
v 8.009001 0.644754 0.013112
v 8.003348 0.651139 0.002500
v 8.005482 0.649191 0.006066
v 8.003728 0.636136 0.028137
v 8.005934 0.638045 0.026370
v 8.002185 0.636044 0.028494
v 8.005836 0.648761 0.011698
v 8.007282 0.646379 0.015414
v 8.000918 0.652760 -0.000967
v 8.004038 0.650757 0.007818
v 8.004032 0.639305 0.027699
v 8.006401 0.641805 0.024220
v 8.003955 0.650120 0.013434
v 8.005235 0.647717 0.017315
v 8.006295 0.644515 0.021537
v 8.000554 0.651893 -0.006795
v 8.003686 0.645642 0.023237
v 8.002822 0.648772 0.018977
v 7.998646 0.654016 -0.004012
v 7.995807 0.654884 -0.007292
v 7.997411 0.653262 -0.009510
v 8.001758 0.651133 0.014990
v 8.000077 0.649712 0.020471
v 7.998416 0.654889 0.001331
v 7.994409 0.653857 -0.011601
v 7.993136 0.655023 -0.009892
v 8.002361 0.652076 0.009334
v 8.000424 0.653082 0.010732
v 8.000523 0.653699 0.005251
v 7.991737 0.655895 -0.008558
v 7.996908 0.655493 0.007598
v 7.998205 0.653960 0.012044
v 7.995313 0.656407 0.003304
v 7.990196 0.656582 -0.007523
v 7.993988 0.656090 -0.005661
v 7.990910 0.657609 0.005064
v 7.996424 0.655672 -0.002046
v 7.993797 0.656926 -0.000376
v 7.991926 0.657021 -0.004325
v 7.998810 0.594019 -0.026861
v 7.994520 0.594762 -0.015488
v 7.992970 0.596918 -0.027538
v 8.004660 0.591135 -0.026166
v 8.004646 0.595833 -0.010974
v 8.005205 0.594654 -0.021798
v 8.011833 0.594920 -0.014062
v 8.017943 0.591668 -0.010698
v 8.015030 0.599294 -0.003685
v 8.005724 0.598173 -0.017426
v 7.998985 0.609420 -0.003777
v 8.014162 0.604153 -0.000846
v 8.013745 0.609082 0.001569
v 7.984832 0.608655 -0.007002
v 7.975145 0.594762 -0.015488
v 7.970680 0.609420 -0.003777
v 7.988900 0.592814 -0.030416
v 7.984832 0.588708 -0.033298
v 7.955919 0.609082 0.001569
v 7.955503 0.604153 -0.000846
v 7.954634 0.599294 -0.003685
v 7.965019 0.595833 -0.010974
v 7.980764 0.592814 -0.030416
v 7.951721 0.591668 -0.010698
v 7.957831 0.594920 -0.014062
v 7.963941 0.598173 -0.017426
v 7.964459 0.594654 -0.021798
v 7.965005 0.591135 -0.026166
v 7.976695 0.596918 -0.027538
v 7.970854 0.594019 -0.026861
vn -0.0000 -0.9576 0.2882
vn 0.1048 -0.8761 -0.4706
vn -0.4842 -0.6280 -0.6092
vn 0.4312 -0.7783 0.4563
vn 0.4026 -0.3121 0.8606
vn 0.6792 -0.3327 0.6542
vn 0.4848 -0.8663 -0.1203
vn 0.0915 -0.7862 -0.6112
vn -0.0000 -0.9999 -0.0139
vn 0.7771 -0.6290 -0.0209
vn 0.4318 -0.3767 0.8196
vn 0.4776 -0.4457 0.7571
vn 0.5246 -0.3558 -0.7734
vn 0.5215 -0.3520 -0.7773
vn 0.5179 -0.4919 0.6999
vn 0.7578 -0.5982 -0.2606
vn 0.5277 -0.7830 0.3294
vn 0.3302 -0.9196 0.2129
vn 0.4842 -0.6280 -0.6092
vn -0.1048 -0.8761 -0.4706
vn -0.4026 -0.3121 0.8606
vn -0.4312 -0.7783 0.4563
vn -0.4848 -0.8663 -0.1203
vn -0.6792 -0.3327 0.6542
vn -0.0915 -0.7862 -0.6112
vn -0.7771 -0.6290 -0.0209
vn -0.4776 -0.4457 0.7571
vn -0.4318 -0.3767 0.8196
vn -0.5215 -0.3520 -0.7773
vn -0.5246 -0.3558 -0.7734
vn -0.7578 -0.5982 -0.2606
vn -0.5179 -0.4919 0.6999
vn -0.5277 -0.7830 0.3294
vn -0.3302 -0.9196 0.2129
vn -0.8104 0.1893 -0.5545
vn -0.7266 0.1184 -0.6768
vn -0.7681 0.0099 -0.6402
vn -0.8466 0.0692 -0.5277
vn -0.1014 0.3239 0.9406
vn 0.0035 -0.0756 0.9971
vn -0.0000 0.3536 0.9354
vn -0.1886 -0.0157 -0.9819
vn -0.2072 0.0200 -0.9781
vn -0.2395 -0.0036 -0.9709
vn -0.2593 -0.0015 -0.9658
vn -0.0395 0.9040 -0.4258
vn -0.0680 0.8986 -0.4335
vn -0.1209 0.9198 -0.3733
vn -0.0727 0.9308 -0.3583
vn 0.4477 0.2408 0.8611
vn 0.2536 0.3136 0.9151
vn 0.2292 -0.0226 0.9731
vn 0.4522 -0.1014 0.8862
vn 0.4268 0.5745 0.6985
vn 0.2559 0.6031 0.7555
vn -0.2292 -0.0226 0.9731
vn -0.2247 -0.2317 0.9465
vn -0.4522 -0.1014 0.8862
vn 0.1734 -0.2195 0.9601
vn 0.2566 0.7594 0.5979
vn 0.1065 0.7700 0.6291
vn 0.1013 0.6203 0.7778
vn -0.0000 0.7699 0.6382
vn -0.0000 0.6232 0.7821
vn 0.5874 0.0558 -0.8074
vn 0.7500 -0.0199 -0.6611
vn 0.8187 0.0144 -0.5741
vn 0.5924 0.1164 -0.7972
vn -0.9271 -0.0376 -0.3730
vn -0.8180 -0.0906 -0.5680
vn -0.7718 -0.0602 -0.6330
vn -0.8964 0.0459 -0.4408
vn 0.4155 0.7269 0.5468
vn 0.5206 0.5427 0.6592
vn 0.4917 0.7021 0.5151
vn -0.5510 -0.1809 0.8147
vn -0.1013 0.6203 0.7778
vn -0.1065 0.7700 0.6291
vn -0.1768 -0.2248 -0.9582
vn -0.0000 -0.2260 -0.9741
vn -0.0000 -0.1319 -0.9913
vn -0.1804 -0.1413 -0.9734
vn -0.1783 -0.2414 -0.9539
vn -0.0000 -0.2480 -0.9688
vn -0.5924 0.1164 -0.7972
vn -0.3102 0.0632 -0.9486
vn -0.2508 0.1015 -0.9627
vn -0.5798 0.2384 -0.7791
vn 0.1037 0.4534 -0.8852
vn 0.0763 0.5612 -0.8241
vn 0.1628 0.5685 -0.8064
vn 0.2144 0.4637 -0.8596
vn -0.6346 0.7097 0.3058
vn -0.6863 0.5889 0.4269
vn -0.5576 0.6708 0.4890
vn -0.5292 0.7594 0.3786
vn 0.5866 0.2117 0.7817
vn 0.5956 0.4957 0.6321
vn 0.5257 0.2686 0.8072
vn 0.1163 0.8539 0.5074
vn 0.1185 0.9068 0.4045
vn -0.0000 0.9108 0.4128
vn -0.0000 0.8564 0.5163
vn 0.2568 0.8396 0.4787
vn 0.2512 0.8900 0.3805
vn -0.9384 0.2459 -0.2427
vn -0.9669 0.1426 -0.2116
vn -0.9641 0.2085 -0.1643
vn -0.9273 0.3122 -0.2065
vn -0.1734 -0.2195 0.9601
vn -0.0035 -0.0756 0.9971
vn 0.1014 0.3239 0.9406
vn -0.1185 0.9068 0.4045
vn -0.2512 0.8900 0.3805
vn -0.2568 0.8396 0.4787
vn -0.1163 0.8539 0.5074
vn 0.1794 -0.1777 -0.9676
vn 0.1783 -0.2414 -0.9539
vn -0.0000 -0.1848 -0.9828
vn -0.7270 0.6859 -0.0322
vn -0.7658 0.6425 0.0275
vn -0.7095 0.6973 0.1021
vn -0.6787 0.7342 0.0186
vn 0.4477 0.8866 -0.1160
vn 0.3204 0.9456 -0.0571
vn 0.3623 0.9316 0.0289
vn 0.5148 0.8558 -0.0508
vn 0.4478 0.8350 0.3198
vn 0.4162 0.8806 0.2263
vn 0.3425 0.9047 0.2534
vn 0.3732 0.8594 0.3495
vn -0.8171 0.5566 -0.1499
vn -0.8524 0.5011 -0.1492
vn -0.8169 0.5715 -0.0780
vn -0.7833 0.6127 -0.1055
vn 0.2247 -0.2317 0.9465
vn -0.2536 0.3136 0.9151
vn -0.2559 0.6031 0.7555
vn -0.2292 0.9324 0.2797
vn -0.2129 0.9617 0.1724
vn -0.3425 0.9047 0.2534
vn 0.2292 0.9324 0.2797
vn 0.2129 0.9617 0.1724
vn -0.0000 0.9804 0.1971
vn 0.1122 0.9480 0.2979
vn 0.3723 0.0476 -0.9269
vn 0.3102 0.0632 -0.9486
vn 0.5510 -0.1809 0.8147
vn -0.1400 0.9812 -0.1328
vn -0.0000 0.9934 -0.1143
vn -0.0000 0.9701 -0.2426
vn -0.1075 0.9609 -0.2552
vn -0.1731 -0.0728 -0.9822
vn -0.0000 -0.0816 -0.9967
vn -0.1794 -0.1777 -0.9676
vn 0.6138 0.7599 -0.2141
vn 0.4878 0.8190 -0.3021
vn 0.4285 0.8659 -0.2579
vn 0.5526 0.8163 -0.1679
vn -0.2566 0.7594 0.5979
vn -0.3623 0.9316 0.0289
vn -0.5148 0.8558 -0.0508
vn -0.5640 0.8257 0.0092
vn -0.3970 0.9108 0.1133
vn -0.4162 0.8806 0.2263
vn -0.4952 0.8506 0.1768
vn 0.4952 0.8506 0.1768
vn 0.5124 0.8127 0.2773
vn -0.3133 -0.2271 -0.9221
vn -0.3123 -0.2255 -0.9228
vn -0.4268 0.5745 0.6985
vn -0.5206 0.5427 0.6592
vn -0.5257 0.2686 0.8072
vn -0.4477 0.2408 0.8611
vn -0.2375 0.8484 -0.4731
vn -0.2435 0.8295 -0.5027
vn -0.3887 0.7831 -0.4854
vn -0.3765 0.8202 -0.4307
vn -0.3972 0.8058 0.4393
vn -0.4155 0.7269 0.5468
vn 0.6277 0.7696 -0.1169
vn 0.6872 0.7080 -0.1628
vn 0.7347 0.3824 0.5604
vn 0.6863 0.5889 0.4269
vn 0.5576 0.6708 0.4890
vn 0.7291 0.1178 0.6742
vn -0.4683 0.7809 0.4134
vn -0.4917 0.7021 0.5151
vn -0.5956 0.4957 0.6321
vn 0.9176 0.3822 0.1091
vn 0.8647 0.5020 -0.0195
vn 0.8243 0.5622 0.0669
vn 0.8783 0.4067 0.2514
vn -0.0000 0.9487 0.3161
vn -0.1122 0.9480 0.2979
vn 0.2658 0.3256 -0.9074
vn 0.3570 0.4896 -0.7955
vn 0.4285 0.3686 -0.8249
vn 0.6090 0.7674 0.2007
vn 0.5843 0.8046 0.1053
vn -0.5866 0.2117 0.7817
vn -0.4390 -0.0467 0.8973
vn -0.2306 -0.1137 0.9664
vn -0.3732 0.8594 0.3495
vn -0.6803 -0.1559 -0.7161
vn -0.5803 -0.1571 -0.7991
vn -0.5806 -0.0343 -0.8134
vn -0.7009 -0.0782 -0.7089
vn -0.6672 -0.2026 0.7167
vn -0.0331 0.7159 -0.6974
vn -0.0514 0.6474 -0.7604
vn -0.1141 0.6542 -0.7477
vn -0.0727 0.7189 -0.6913
vn -0.4478 0.8350 0.3198
vn -0.3361 -0.0349 -0.9412
vn -0.3271 -0.1467 -0.9335
vn -0.4684 -0.1123 -0.8764
vn -0.5471 0.0311 -0.8365
vn 0.6940 0.4933 -0.5243
vn 0.7266 0.5186 -0.4506
vn 0.8098 0.4398 -0.3884
vn 0.7786 0.3985 -0.4848
vn 0.1897 0.9777 0.0896
vn -0.0000 0.9935 0.1141
vn 0.8658 0.4502 -0.2182
vn 0.8425 0.5088 -0.1771
vn 0.8762 0.4451 -0.1850
vn 0.8950 0.3882 -0.2197
vn 0.5640 0.8257 0.0092
vn 0.3970 0.9108 0.1133
vn -0.6434 0.5846 -0.4943
vn -0.7266 0.5186 -0.4506
vn -0.7437 0.5691 -0.3507
vn -0.6592 0.6353 -0.4023
vn -0.5843 0.8046 0.1053
vn -0.6767 -0.0681 0.7331
vn -0.8170 -0.2173 0.5341
vn -0.8562 -0.3168 0.4081
vn 0.1704 0.9854 -0.0057
vn -0.0000 0.9999 0.0167
vn 0.3453 0.9133 -0.2159
vn 0.2530 0.9517 -0.1737
vn -0.2658 0.3256 -0.9074
vn -0.3157 0.1293 -0.9400
vn -0.5030 0.1884 -0.8435
vn -0.4285 0.3686 -0.8249
vn 0.7095 0.6973 0.1021
vn 0.6346 0.7097 0.3058
vn 0.7454 0.6327 0.2097
vn 0.8628 0.4004 0.3086
vn 0.8733 0.1500 0.4635
vn 0.8566 0.2347 0.4595
vn 0.2395 -0.0036 -0.9709
vn 0.2508 0.1015 -0.9627
vn 0.2570 0.0613 -0.9645
vn 0.4889 0.5254 -0.6963
vn 0.5727 0.4279 -0.6992
vn 0.1400 0.9812 -0.1328
vn 0.5292 0.7594 0.3786
vn -0.9632 0.0783 -0.2572
vn -0.9295 0.0045 -0.3688
vn -0.9337 -0.0348 -0.3563
vn -0.9727 0.0091 -0.2320
vn 0.8142 0.4659 0.3465
vn 0.8590 -0.0622 0.5082
vn 0.6767 -0.0681 0.7331
vn 0.8170 -0.2173 0.5341
vn -0.2291 0.8088 -0.5416
vn -0.3824 0.7481 -0.5423
vn 0.7270 0.6859 -0.0322
vn 0.6787 0.7342 0.0186
vn 0.7658 0.6425 0.0275
vn 0.7733 -0.1336 -0.6199
vn 0.7703 -0.1089 -0.6283
vn 0.7009 -0.0782 -0.7089
vn 0.6803 -0.1559 -0.7161
vn -0.2472 0.1792 -0.9523
vn -0.2570 0.0613 -0.9645
vn 0.7277 0.6442 -0.2354
vn 0.7933 0.5751 -0.1998
vn 0.8193 0.4896 -0.2984
vn 0.7437 0.5691 -0.3507
vn 0.8008 0.5843 0.1315
vn -0.6824 0.7267 -0.0788
vn -0.7556 0.6520 -0.0625
vn 0.3838 0.6114 -0.6920
vn 0.4529 0.6266 -0.6343
vn 0.5686 0.5466 -0.6147
vn 0.8531 -0.0267 0.5211
vn 0.7798 0.1272 0.6129
vn -0.8531 -0.0267 0.5211
vn -0.7798 0.1272 0.6129
vn -0.7431 0.0654 0.6660
vn -0.0000 0.2397 -0.9709
vn -0.0000 0.3576 -0.9339
vn -0.2544 0.3094 -0.9163
vn 0.7556 0.6520 -0.0625
vn 0.7868 0.6171 -0.0150
vn 0.8169 0.5715 -0.0780
vn 0.7833 0.6127 -0.1055
vn -0.0000 0.0619 -0.9981
vn 0.3887 0.7831 -0.4854
vn 0.3765 0.8202 -0.4307
vn 0.5219 0.7707 -0.3656
vn 0.5352 0.7132 -0.4527
vn 0.7439 0.6553 -0.1311
vn 0.6824 0.7267 -0.0788
vn 0.4271 -0.0278 -0.9038
vn 0.4603 -0.1573 -0.8737
vn 0.5803 -0.1571 -0.7991
vn 0.5806 -0.0343 -0.8134
vn 0.8006 0.0066 0.5992
vn 0.8568 0.1148 0.5027
vn 0.7431 0.0654 0.6660
vn -0.6630 -0.0474 -0.7471
vn 0.9213 0.2402 0.3057
vn 0.5817 -0.1765 -0.7940
vn 0.5831 -0.2050 -0.7861
vn 0.4691 -0.2196 -0.8554
vn 0.4701 -0.2023 -0.8591
vn -0.7439 0.6553 -0.1311
vn 0.8171 0.5566 -0.1499
vn 0.8524 0.5011 -0.1492
vn -0.1967 0.6688 -0.7170
vn -0.1298 0.7313 -0.6696
vn 0.9634 -0.0024 0.2681
vn 0.8671 -0.0053 0.4982
vn 0.8234 -0.1215 0.5543
vn 0.9482 -0.0952 0.3032
vn -0.7898 -0.2483 0.5608
vn -0.7016 -0.2690 0.6598
vn -0.7607 -0.1097 0.6398
vn -0.8234 -0.1215 0.5543
vn 0.9421 0.0800 0.3255
vn 0.9739 0.1922 0.1210
vn -0.9196 0.2616 -0.2930
vn -0.8999 0.1623 -0.4047
vn -0.9206 0.0701 -0.3842
vn -0.9455 0.1688 -0.2786
vn 0.3545 0.7218 -0.5945
vn 0.2154 0.7818 -0.5851
vn 0.2291 0.8088 -0.5416
vn 0.3824 0.7481 -0.5423
vn 0.3452 0.8573 -0.3819
vn 0.2375 0.8484 -0.4731
vn 0.2156 0.8729 -0.4377
vn 0.8528 -0.0856 -0.5151
vn 0.7858 -0.1276 -0.6052
vn 0.8632 -0.0650 -0.5007
vn 0.7898 -0.2483 0.5608
vn 0.7607 -0.1097 0.6398
vn 0.7016 -0.2690 0.6598
vn 0.9878 0.0626 0.1425
vn 0.9885 0.1512 -0.0007
vn -0.8008 0.5843 0.1315
vn -0.7454 0.6327 0.2097
vn 0.1087 0.8105 -0.5756
vn 0.1153 0.8169 -0.5651
vn 0.1915 0.7655 -0.6142
vn 0.8999 0.4221 -0.1096
vn 0.9155 0.3680 -0.1624
vn -0.9244 -0.2889 0.2490
vn 0.9273 0.3122 -0.2065
vn 0.9587 0.2646 -0.1041
vn 0.9641 0.2084 -0.1643
vn 0.9896 0.1069 -0.0965
vn -0.8425 0.5088 -0.1771
vn -0.7933 0.5751 -0.1998
vn -0.8658 0.4502 -0.2182
vn 0.6616 0.2729 -0.6984
vn 0.5030 0.1884 -0.8435
vn -0.9316 -0.1932 0.3080
vn -0.9740 -0.2149 0.0711
vn -0.9683 -0.2435 -0.0558
vn 0.6522 0.4692 -0.5954
vn 0.7395 0.3438 -0.5787
vn 0.8791 0.3986 -0.2613
vn 0.9102 0.3272 -0.2539
vn 0.8799 0.3465 -0.3250
vn 0.9196 0.2616 -0.2930
vn 0.9316 -0.1932 0.3080
vn -0.9482 -0.0952 0.3032
vn -0.3043 -0.6071 0.7341
vn -0.3336 -0.5002 0.7991
vn -0.2778 -0.5452 0.7909
vn -0.1727 -0.8754 0.4515
vn -0.9873 -0.1337 0.0860
vn 0.6482 0.7044 -0.2891
vn 0.9384 0.2459 -0.2427
vn 0.9669 0.1426 -0.2116
vn 0.8180 -0.0906 -0.5680
vn 0.8348 -0.0840 -0.5441
vn 0.9336 -0.0430 -0.3556
vn 0.9271 -0.0376 -0.3730
vn 0.9337 -0.0348 -0.3563
vn 0.9971 -0.0431 0.0621
vn 0.9995 0.0312 -0.0109
vn -0.5688 -0.0965 -0.8168
vn -0.5817 -0.1765 -0.7940
vn -0.6803 -0.1419 -0.7190
vn 0.9873 -0.1337 0.0860
vn 0.9848 -0.1739 -0.0009
vn 0.9949 -0.0790 -0.0632
vn 0.6141 0.5599 -0.5563
vn 0.4987 0.6411 -0.5834
vn 0.5247 0.6681 -0.5276
vn 0.6434 0.5846 -0.4943
vn -0.8647 0.5020 -0.0195
vn -0.8999 0.4221 -0.1096
vn -0.9896 0.1069 -0.0965
vn -0.9885 0.1512 -0.0007
vn -0.9587 0.2646 -0.1041
vn -0.1295 0.8588 -0.4956
vn -0.1326 0.8500 -0.5098
vn -0.5219 0.7707 -0.3656
vn -0.4878 0.8190 -0.3021
vn -0.3452 0.8573 -0.3819
vn -0.9155 0.3680 -0.1624
vn 0.7862 -0.0978 -0.6102
vn 0.8069 -0.1055 -0.5812
vn 0.8104 0.1893 -0.5545
vn 0.7266 0.1184 -0.6768
vn 0.1547 0.9080 -0.3893
vn 0.2411 0.9187 -0.3128
vn 0.2956 0.8913 -0.3439
vn 0.1850 0.8937 -0.4087
vn -0.6090 0.7674 0.2007
vn 0.1833 0.9411 -0.2842
vn 0.4683 0.7809 0.4134
vn 0.3972 0.8058 0.4393
vn 0.6592 0.6353 -0.4023
vn -0.9213 0.2402 0.3057
vn -0.9739 0.1922 0.1210
vn -0.9421 0.0800 0.3255
vn -0.8568 0.1148 0.5027
vn 0.0727 0.7189 -0.6913
vn 0.0426 0.7778 -0.6271
vn 0.0754 0.7869 -0.6124
vn 0.1298 0.7313 -0.6696
vn -0.9949 -0.0790 -0.0632
vn -0.9857 -0.0506 -0.1604
vn -0.9981 -0.0541 -0.0305
vn 0.1075 0.9609 -0.2552
vn 0.9908 0.0456 -0.1271
vn 0.9857 -0.0506 -0.1604
vn 0.9981 -0.0541 -0.0305
vn 0.9962 0.0876 0.0020
vn 0.0753 -0.8781 0.4726
vn -0.0000 -0.9733 0.2296
vn -0.0753 -0.8781 0.4726
vn -0.0000 -0.6566 0.7543
vn 0.9771 -0.0291 -0.2109
vn -0.7915 -0.0801 -0.6059
vn 0.9455 0.1688 -0.2786
vn 0.9632 0.0783 -0.2572
vn 0.9295 0.0045 -0.3688
vn 0.9206 0.0701 -0.3842
vn 0.9727 0.0091 -0.2320
vn 0.2593 -0.0015 -0.9658
vn 0.2893 -0.0498 -0.9559
vn -0.9962 0.0876 0.0020
vn -0.8998 0.3728 -0.2268
vn -0.9722 0.2328 -0.0268
vn -0.9641 0.1958 -0.1792
vn -0.9908 0.0456 -0.1271
vn 0.8625 -0.0142 -0.5058
vn 0.7915 -0.0801 -0.6059
vn 0.8999 0.1623 -0.4047
vn -0.7328 0.4764 -0.4858
vn 0.0744 -0.9806 0.1816
vn -0.2839 -0.9572 0.0564
vn -0.8271 0.2226 -0.5161
vn -0.0000 0.7124 -0.7018
vn -0.0000 0.6451 -0.7641
vn 0.1804 -0.1413 -0.9734
vn 0.3086 -0.1550 -0.9385
vn 0.1883 -0.0524 -0.9807
vn 0.1886 -0.0157 -0.9819
vn 0.8550 0.2742 -0.4401
vn 0.3157 0.1293 -0.9400
vn 0.1569 0.1024 -0.9823
vn 0.1304 0.3060 -0.9430
vn -0.7422 0.4183 -0.5236
vn -0.6317 0.3521 -0.6907
vn 0.8271 0.2226 -0.5161
vn 0.7422 0.4183 -0.5236
vn 0.6317 0.3521 -0.6907
vn 0.6854 0.1261 -0.7171
vn -0.5879 0.3503 -0.7292
vn 0.8964 0.0459 -0.4408
vn 0.7718 -0.0602 -0.6330
vn -0.1711 0.7475 -0.6418
vn -0.0994 0.7996 -0.5923
vn -0.0754 0.7869 -0.6124
vn -0.1883 -0.0524 -0.9807
vn -0.0000 -0.0432 -0.9991
vn -0.0000 -0.0093 -1.0000
vn -0.8250 0.0128 -0.5650
vn 0.8250 0.0128 -0.5650
vn -0.6854 0.1261 -0.7171
vn -0.0000 0.9358 -0.3526
vn -0.3621 0.2621 -0.8945
vn -0.8676 0.1549 -0.4724
vn -0.9366 0.2093 -0.2809
vn -0.8733 0.1500 0.4635
vn -0.8566 0.2347 0.4595
vn 0.0727 0.9308 -0.3583
vn 0.0395 0.9040 -0.4258
vn -0.0000 0.9061 -0.4231
vn 0.2690 0.6859 -0.6761
vn 0.3199 0.7008 -0.6377
vn 0.1209 0.9198 -0.3733
vn 0.0680 0.8986 -0.4335
vn -0.7395 0.3438 -0.5787
vn -0.8550 0.2742 -0.4401
vn -0.7786 0.3985 -0.4848
vn 0.6804 -0.1788 -0.7107
vn -0.8511 0.2835 -0.4418
vn -0.6201 0.2524 -0.7428
vn -0.7347 0.3824 0.5604
vn -0.9634 -0.0024 0.2681
vn -0.8671 -0.0053 0.4982
vn -0.9878 0.0626 0.1425
vn -0.8791 0.3986 -0.2613
vn -0.8193 0.4896 -0.2984
vn 0.0878 0.8925 -0.4425
vn 0.1047 0.8844 -0.4547
vn -0.1704 0.9854 -0.0057
vn -0.0878 0.8925 -0.4425
vn -0.0000 0.8552 -0.5182
vn -0.1047 0.8844 -0.4547
vn 0.5798 0.2384 -0.7791
vn 0.8676 0.1549 -0.4724
vn 0.8511 0.2835 -0.4418
vn 0.5758 0.3207 -0.7520
vn 0.1188 0.8728 -0.4734
vn -0.4477 0.8866 -0.1160
vn -0.5526 0.8163 -0.1679
vn -0.6277 0.7696 -0.1169
vn -0.1188 0.8728 -0.4734
vn -0.5758 0.3207 -0.7520
vn 0.2435 0.8295 -0.5027
vn -0.2549 0.1522 -0.9549
vn 0.2549 0.1522 -0.9549
vn -0.1176 0.0287 -0.9927
vn 0.1295 0.8588 -0.4956
vn 0.1326 0.8500 -0.5098
vn -0.5727 0.4279 -0.6992
vn -0.6616 0.2729 -0.6984
vn -0.6522 0.4692 -0.5954
vn 0.1230 0.8357 -0.5352
vn -0.1230 0.8357 -0.5352
vn -0.2530 0.9517 -0.1737
vn -0.1833 0.9411 -0.2842
vn 0.3271 -0.1467 -0.9335
vn 0.4684 -0.1123 -0.8764
vn 0.3133 -0.2271 -0.9221
vn 0.8466 0.0692 -0.5277
vn -0.1153 0.8169 -0.5651
vn -0.8950 0.3882 -0.2197
vn -0.8762 0.4451 -0.1850
vn -0.1087 0.8105 -0.5756
vn 0.1711 0.7475 -0.6418
vn 0.0994 0.7996 -0.5923
vn -0.8625 -0.0142 -0.5058
vn 0.2072 0.0200 -0.9781
vn 0.2472 0.1792 -0.9523
vn -0.8006 0.0066 0.5992
vn -0.0426 0.7778 -0.6271
vn 0.2771 0.5877 -0.7602
vn 0.1967 0.6688 -0.7170
vn 0.1141 0.6542 -0.7477
vn 0.6803 -0.1419 -0.7190
vn 0.7681 0.0099 -0.6402
vn 0.0218 0.7761 -0.6302
vn 0.0331 0.7159 -0.6974
vn -0.0218 0.7761 -0.6302
vn 0.0514 0.6474 -0.7604
vn -0.5874 0.0558 -0.8074
vn -0.7500 -0.0199 -0.6611
vn -0.7291 0.1178 0.6742
vn -0.3086 -0.1550 -0.9385
vn -0.4603 -0.1573 -0.8737
vn -0.4691 -0.2196 -0.8554
vn -0.2690 0.6859 -0.6761
vn -0.3199 0.7008 -0.6377
vn -0.1915 0.7655 -0.6142
vn -0.5124 0.8127 0.2773
vn 0.6630 -0.0474 -0.7471
vn 0.5688 -0.0965 -0.8168
vn -0.3453 0.9133 -0.2159
vn -0.2411 0.9187 -0.3128
vn 0.5471 0.0311 -0.8365
vn 0.3123 -0.2255 -0.9228
vn -0.7868 0.6171 -0.0150
vn 0.3361 -0.0349 -0.9412
vn 0.1768 -0.2248 -0.9582
vn 0.9916 -0.0033 -0.1295
vn 0.3621 0.2621 -0.8945
vn 0.2544 0.3094 -0.9163
vn 0.8672 0.2012 0.4555
vn -0.0000 0.3435 -0.9392
vn -0.0000 0.0940 -0.9956
vn -0.1569 0.1024 -0.9823
vn -0.3723 0.0476 -0.9269
vn -0.8590 -0.0622 0.5082
vn -0.2893 -0.0498 -0.9559
vn -0.0000 0.2993 -0.9542
vn -0.0000 0.4501 -0.8930
vn 0.1731 -0.0728 -0.9822
vn 0.1176 0.0287 -0.9927
vn 0.9482 0.3166 -0.0246
vn -0.4271 -0.0278 -0.9038
vn -0.8783 0.4067 0.2514
vn -0.9176 0.3822 0.1091
vn 0.6201 0.2524 -0.7428
vn -0.8187 0.0144 -0.5741
vn 0.8562 -0.3168 0.4081
vn 0.9366 0.2093 -0.2809
vn -0.8069 -0.1055 -0.5812
vn 0.9835 0.0545 -0.1726
vn -0.6482 0.7044 -0.2891
vn -0.6138 0.7599 -0.2141
vn -0.7862 -0.0978 -0.6102
vn 0.5879 0.3503 -0.7292
vn -0.4701 -0.2023 -0.8591
vn -0.9971 -0.0431 0.0621
vn -0.9848 -0.1739 -0.0009
vn -0.8632 -0.0650 -0.5007
vn -0.8528 -0.0856 -0.5151
vn 0.7328 0.4764 -0.4858
vn -0.6804 -0.1788 -0.7107
vn -0.7858 -0.1276 -0.6052
vn -0.5831 -0.2050 -0.7861
vn 0.8998 0.3728 -0.2268
vn 0.9722 0.2328 -0.0268
vn -0.7703 -0.1089 -0.6283
vn 0.9641 0.1958 -0.1792
vn -0.8348 -0.0840 -0.5441
vn -0.7733 -0.1336 -0.6199
vn -0.9336 -0.0430 -0.3556
vn -0.9771 -0.0291 -0.2109
vn -0.9916 -0.0033 -0.1295
vn -0.9835 0.0545 -0.1726
vn -0.9995 0.0312 -0.0109
vn -0.9102 0.3272 -0.2539
vn -0.1897 0.9777 0.0896
vn -0.1304 0.3060 -0.9430
vn -0.0763 0.5612 -0.8241
vn -0.0000 0.5589 -0.8293
vn -0.1037 0.4534 -0.8852
vn -0.8799 0.3465 -0.3250
vn 0.4390 -0.0467 0.8973
vn -0.9482 0.3166 -0.0246
vn 0.9683 -0.2435 -0.0558
vn 0.9740 -0.2149 0.0711
vn 0.9244 -0.2889 0.2490
vn -0.3570 0.4896 -0.7955
vn -0.2144 0.4637 -0.8596
vn -0.4889 0.5254 -0.6963
vn -0.6940 0.4933 -0.5243
vn -0.5686 0.5466 -0.6147
vn -0.6141 0.5599 -0.5563
vn -0.1628 0.5685 -0.8064
vn -0.8098 0.4398 -0.3884
vn -0.0000 0.7734 -0.6340
vn -0.3838 0.6114 -0.6920
vn -0.2771 0.5877 -0.7602
vn -0.4529 0.6266 -0.6343
vn -0.6872 0.7080 -0.1628
vn -0.4987 0.6411 -0.5834
vn -0.3545 0.7218 -0.5945
vn -0.5247 0.6681 -0.5276
vn -0.5352 0.7132 -0.4527
vn -0.2154 0.7818 -0.5851
vn -0.1547 0.9080 -0.3893
vn -0.1850 0.8937 -0.4087
vn -0.2956 0.8913 -0.3439
vn -0.4285 0.8659 -0.2579
vn -0.2156 0.8729 -0.4377
vn -0.7277 0.6442 -0.2354
vn -0.3204 0.9456 -0.0571
vn -0.8672 0.2012 0.4555
vn -0.8628 0.4004 0.3086
vn -0.8243 0.5622 0.0669
vn 0.6672 -0.2026 0.7167
vn -0.8142 0.4659 0.3465
vn 0.2306 -0.1137 0.9664
vn 0.3702 -0.9050 -0.2096
vn -0.0744 -0.9806 0.1816
vn 0.2839 -0.9572 0.0564
vn 0.1727 -0.8754 0.4515
vn 0.9669 -0.2436 0.0765
vn -0.2710 -0.8895 -0.3679
vn -0.2804 -0.8681 0.4097
vn 0.7481 -0.6540 -0.1123
vn 0.3043 -0.6071 0.7341
vn 0.2778 -0.5452 0.7909
vn 0.3336 -0.5002 0.7991
vn -0.2254 -0.4475 0.8654
vn 0.7639 -0.6110 -0.2078
vn 0.2254 -0.4475 0.8654
vn -0.7639 -0.6110 -0.2078
vn 0.2804 -0.8681 0.4097
vn 0.2710 -0.8895 -0.3679
vn -0.7481 -0.6540 -0.1123
vn -0.9669 -0.2436 0.0765
vn -0.3702 -0.9050 -0.2096
vt 0.000000 0.000000
s 1
f 1/1/1 2/1/2 3/1/3
f 1/1/1 4/1/4 5/1/5
f 1/1/1 6/1/6 7/1/7
f 1/1/1 8/1/8 4/1/4
f 1/1/1 7/1/7 8/1/8
f 1/1/1 9/1/9 10/1/10
f 1/1/1 10/1/10 2/1/2
f 1/1/1 5/1/5 11/1/11
f 1/1/1 11/1/11 12/1/12
f 1/1/1 13/1/13 14/1/14
f 1/1/1 12/1/12 15/1/15
f 1/1/1 15/1/15 16/1/16
f 1/1/1 16/1/16 13/1/13
f 1/1/1 14/1/14 17/1/17
f 1/1/1 3/1/3 18/1/18
f 1/1/1 18/1/18 6/1/6
f 1/1/1 19/1/19 20/1/20
f 1/1/1 21/1/21 22/1/22
f 1/1/1 23/1/23 24/1/24
f 1/1/1 25/1/25 23/1/23
f 1/1/1 22/1/22 25/1/25
f 1/1/1 26/1/26 9/1/9
f 1/1/1 20/1/20 26/1/26
f 1/1/1 27/1/27 28/1/28
f 1/1/1 28/1/28 21/1/21
f 1/1/1 29/1/29 30/1/30
f 1/1/1 30/1/30 31/1/31
f 1/1/1 31/1/31 32/1/32
f 1/1/1 32/1/32 27/1/27
f 1/1/1 33/1/33 29/1/29
f 1/1/1 34/1/34 19/1/19
f 1/1/1 24/1/24 34/1/34
f 329/1/35 368/1/36 362/1/37 335/1/38
f 35/1/39 38/1/40 39/1/41
f 337/1/42 336/1/43 330/1/44 331/1/45
f 268/1/46 274/1/47 216/1/48 230/1/49
f 84/1/50 76/1/51 75/1/52 82/1/53
f 86/1/54 85/1/55 76/1/51 84/1/50
f 37/1/56 44/1/57 38/1/40
f 37/1/56 45/1/58 44/1/57
f 38/1/40 46/1/59 39/1/41
f 38/1/40 44/1/57 46/1/59
f 85/1/55 87/1/60 77/1/61 57/1/62
f 57/1/62 77/1/61 49/1/63 48/1/64
f 425/1/65 444/1/66 426/1/67 419/1/68
f 228/1/69 259/1/70 254/1/71 245/1/72
f 86/1/54 92/1/73 87/1/60 85/1/55
f 93/1/74 100/1/75 92/1/73 86/1/54
f 44/1/57 45/1/58 54/1/76
f 40/1/77 48/1/64 49/1/63 47/1/78
f 381/1/79 401/1/80 385/1/81 379/1/82
f 394/1/83 429/1/84 401/1/80 381/1/79
f 39/1/41 48/1/64 40/1/77 35/1/39
f 307/1/85 325/1/86 306/1/87 290/1/88
f 531/1/89 549/1/90 544/1/91 538/1/92
f 129/1/93 136/1/94 90/1/95 89/1/96
f 650/1/97 101/1/98 93/1/74 91/1/99
f 69/1/100 96/1/101 62/1/102 61/1/103
f 94/1/104 103/1/105 96/1/101 69/1/100
f 201/1/106 209/1/107 185/1/108 184/1/109
f 39/1/41 66/1/110 67/1/111
f 39/1/41 67/1/111 68/1/112
f 63/1/113 64/1/114 56/1/115 55/1/116
f 49/1/63 61/1/103 55/1/116 47/1/78
f 435/1/117 437/1/118 429/1/84 428/1/119
f 139/1/120 143/1/121 128/1/122 120/1/123
f 676/1/124 677/1/125 672/1/126 663/1/127
f 115/1/128 671/1/129 109/1/130 108/1/131
f 161/1/132 181/1/133 149/1/134 153/1/135
f 66/1/110 74/1/136 67/1/111
f 37/1/56 38/1/40 35/1/39 36/1/137
f 67/1/111 74/1/136 75/1/52
f 40/1/77 42/1/138 36/1/137 35/1/39
f 71/1/139 78/1/140 72/1/141
f 110/1/142 116/1/143 111/1/144 102/1/145
f 415/1/146 425/1/65 419/1/68 413/1/147
f 74/1/136 82/1/53 75/1/52
f 74/1/136 83/1/148 82/1/53
f 133/1/149 232/1/150 231/1/151 224/1/152
f 410/1/153 427/1/154 428/1/119 423/1/155
f 655/1/156 660/1/157 659/1/158 658/1/159
f 47/1/78 55/1/116 56/1/115 51/1/160
f 119/1/161 127/1/162 112/1/163 79/1/164
f 80/1/165 79/1/164 88/1/166
f 667/1/167 671/1/129 115/1/128 661/1/168
f 388/1/169 394/1/83 381/1/79 369/1/170
f 43/1/171 53/1/172 50/1/173 41/1/174
f 50/1/173 54/1/76 45/1/58 41/1/174
f 295/1/175 300/1/176 296/1/177 292/1/178
f 51/1/160 56/1/115 58/1/179 52/1/180
f 47/1/78 51/1/160 42/1/138 40/1/77
f 655/1/156 658/1/159 648/1/181 625/1/182
f 651/1/183 654/1/184 656/1/185 101/1/98
f 651/1/183 101/1/98 650/1/97 644/1/186
f 58/1/179 81/1/187 59/1/188 52/1/180
f 59/1/188 90/1/95 60/1/189 53/1/172
f 605/1/190 603/1/191 632/1/192 623/1/193
f 62/1/102 104/1/194 70/1/195 63/1/113
f 70/1/195 71/1/139 64/1/114 63/1/113
f 521/1/196 538/1/92 529/1/197 522/1/198
f 667/1/167 661/1/168 652/1/199 666/1/200
f 50/1/173 99/1/201 106/1/202
f 50/1/173 106/1/202 107/1/203
f 56/1/115 64/1/114 65/1/204 58/1/179
f 64/1/114 71/1/139 72/1/141 65/1/204
f 104/1/194 111/1/144 70/1/195
f 104/1/194 102/1/145 111/1/144
f 286/1/205 344/1/206 319/1/207 284/1/208
f 107/1/203 106/1/202 114/1/209
f 346/1/210 353/1/211 347/1/212 340/1/213
f 73/1/214 81/1/187 58/1/179 65/1/204
f 110/1/142 109/1/130 116/1/143
f 392/1/215 393/1/216 387/1/217 374/1/218
f 539/1/219 567/1/220 546/1/221 528/1/222
f 116/1/143 675/1/223 117/1/224 111/1/144
f 577/1/225 616/1/226 597/1/227 582/1/228
f 668/1/229 663/1/127 672/1/126 670/1/230
f 219/1/231 218/1/232 212/1/233 206/1/234
f 113/1/235 112/1/163 120/1/123
f 114/1/209 106/1/202 121/1/236
f 114/1/209 121/1/236 122/1/237
f 114/1/209 122/1/237 123/1/238
f 675/1/223 246/1/239 238/1/240 117/1/224
f 674/1/241 678/1/242 677/1/125 676/1/124
f 367/1/243 380/1/244 373/1/245 365/1/246
f 646/1/247 652/1/199 653/1/248 647/1/249
f 631/1/250 622/1/251 617/1/252 623/1/193
f 403/1/253 413/1/147 411/1/254 402/1/255
f 530/1/256 524/1/257 522/1/198 529/1/197
f 677/1/125 678/1/242 255/1/258 246/1/239
f 652/1/199 661/1/168 657/1/259 653/1/248
f 214/1/260 233/1/261 234/1/262 226/1/263
f 653/1/248 657/1/259 656/1/185 654/1/184
f 647/1/249 653/1/248 654/1/184 637/1/264
f 628/1/265 644/1/186 635/1/266 629/1/267
f 60/1/189 99/1/201 50/1/173 53/1/172
f 302/1/268 301/1/269 296/1/177 300/1/176
f 642/1/270 649/1/271 646/1/247 639/1/272
f 472/1/273 462/1/274 456/1/275 463/1/276
f 336/1/43 378/1/277 308/1/278 330/1/44
f 620/1/279 621/1/280 572/1/281 615/1/282
f 647/1/249 640/1/283 639/1/272 646/1/247
f 139/1/120 134/1/284 144/1/285
f 530/1/256 550/1/286 552/1/287 540/1/288
f 622/1/251 562/1/289 553/1/290 617/1/252
f 131/1/291 146/1/292 147/1/293
f 377/1/294 389/1/295 383/1/296 378/1/277
f 633/1/297 634/1/298 611/1/299 627/1/300
f 377/1/294 378/1/277 336/1/43 376/1/301
f 575/1/302 601/1/303 602/1/304 570/1/305
f 626/1/306 641/1/307 633/1/297 627/1/300
f 626/1/306 625/1/182 648/1/181 641/1/307
f 416/1/308 422/1/309 433/1/310 431/1/311
f 548/1/312 555/1/313 553/1/290 554/1/314
f 368/1/36 374/1/218 361/1/315 362/1/37
f 623/1/193 617/1/252 606/1/316 605/1/190
f 458/1/317 465/1/318 441/1/319 450/1/320
f 153/1/135 152/1/321 161/1/132
f 610/1/322 627/1/300 611/1/299 604/1/323
f 658/1/159 676/1/124 663/1/127 648/1/181
f 340/1/213 347/1/212 341/1/324 333/1/325
f 518/1/326 547/1/327 541/1/328 533/1/329
f 174/1/330 175/1/331 166/1/332 173/1/333
f 606/1/316 555/1/313 561/1/334 517/1/335
f 241/1/336 247/1/337 240/1/338 221/1/339
f 574/1/340 581/1/341 576/1/342 571/1/343
f 674/1/241 676/1/124 658/1/159 659/1/158
f 664/1/344 601/1/303 600/1/345 608/1/346
f 479/1/347 472/1/273 481/1/348 485/1/349
f 393/1/216 423/1/155 394/1/83 388/1/169
f 535/1/350 541/1/328 542/1/351 536/1/352
f 517/1/335 561/1/334 510/1/353 508/1/354
f 510/1/353 561/1/334 547/1/327 518/1/326
f 143/1/121 151/1/355 135/1/356 128/1/122
f 586/1/357 588/1/358 581/1/341 580/1/359
f 597/1/227 616/1/226 610/1/322 604/1/323
f 597/1/227 604/1/323 596/1/360 590/1/361
f 604/1/323 611/1/299 603/1/191 596/1/360
f 175/1/331 174/1/330 182/1/362
f 504/1/363 590/1/361 507/1/364 499/1/365
f 499/1/365 507/1/364 508/1/354 500/1/366
f 179/1/367 172/1/368 187/1/369
f 522/1/198 524/1/257 516/1/370 515/1/371
f 582/1/228 597/1/227 590/1/361 504/1/363
f 182/1/362 174/1/330 189/1/372
f 182/1/362 189/1/372 190/1/373
f 182/1/362 190/1/373 191/1/374
f 532/1/375 539/1/219 528/1/222 525/1/376
f 625/1/182 626/1/306 621/1/280 620/1/279
f 572/1/281 621/1/280 577/1/225 551/1/377
f 577/1/225 582/1/228 503/1/378 551/1/377
f 513/1/379 551/1/377 503/1/378 502/1/380
f 533/1/329 541/1/328 535/1/350 534/1/381
f 189/1/372 197/1/382 190/1/373
f 687/1/383 690/1/384 689/1/385 683/1/386
f 190/1/373 197/1/382 198/1/387
f 624/1/388 655/1/156 625/1/182 620/1/279
f 495/1/389 504/1/363 499/1/365 494/1/390
f 469/1/391 470/1/392 478/1/393 477/1/394
f 470/1/392 479/1/347 480/1/395 478/1/393
f 510/1/353 518/1/326 509/1/396 501/1/397
f 361/1/315 363/1/398 357/1/399 356/1/400
f 511/1/401 512/1/402 483/1/403 509/1/396
f 655/1/156 624/1/388 602/1/304 660/1/157
f 560/1/404 558/1/405 566/1/406 565/1/407
f 159/1/408 149/1/134 181/1/133 177/1/409
f 185/1/108 192/1/410 186/1/411 178/1/412
f 297/1/413 305/1/414 300/1/176 295/1/175
f 292/1/178 207/1/415 205/1/416 287/1/417
f 184/1/109 185/1/108 178/1/412 183/1/418
f 444/1/66 445/1/419 439/1/420 426/1/67
f 516/1/370 525/1/376 505/1/421 506/1/422
f 619/1/423 669/1/424 665/1/425 618/1/426
f 128/1/122 135/1/356 129/1/93 105/1/427
f 673/1/428 678/1/242 674/1/241 669/1/424
f 100/1/75 662/1/429 95/1/430 92/1/73
f 565/1/407 609/1/431 615/1/282 567/1/220
f 158/1/432 168/1/433 167/1/434 157/1/435
f 221/1/339 240/1/338 233/1/261 214/1/260
f 584/1/436 591/1/437 592/1/438 587/1/439
f 204/1/440 222/1/441 223/1/442
f 262/1/443 255/1/258 678/1/242 673/1/428
f 611/1/299 634/1/298 632/1/192 603/1/191
f 567/1/220 615/1/282 572/1/281 546/1/221
f 475/1/444 482/1/445 476/1/446 468/1/447
f 693/1/448 696/1/449 680/1/450 692/1/451
f 484/1/452 482/1/445 477/1/394 478/1/393
f 255/1/258 262/1/443 231/1/151 232/1/150
f 343/1/453 362/1/37 361/1/315 356/1/400
f 246/1/239 255/1/258 232/1/150 238/1/240
f 493/1/454 487/1/455 486/1/456 492/1/457
f 487/1/455 488/1/458 480/1/395 486/1/456
f 407/1/459 406/1/460 416/1/308 415/1/146
f 229/1/461 235/1/462 236/1/463
f 229/1/461 237/1/464 235/1/462
f 229/1/461 227/1/465 237/1/464
f 485/1/349 486/1/456 480/1/395 479/1/347
f 489/1/466 485/1/349 481/1/348 473/1/467
f 502/1/380 493/1/454 492/1/457 497/1/468
f 236/1/463 235/1/462 243/1/469
f 682/1/470 683/1/386 680/1/450 679/1/471
f 237/1/464 244/1/472 235/1/462
f 346/1/210 573/1/473 568/1/474 353/1/211
f 405/1/475 414/1/476 406/1/460 398/1/477
f 406/1/460 407/1/459 399/1/478 398/1/477
f 497/1/468 520/1/479 513/1/379 502/1/380
f 514/1/480 436/1/481 523/1/482 521/1/196
f 243/1/469 235/1/462 251/1/483
f 251/1/483 235/1/462 244/1/472
f 243/1/469 251/1/483 252/1/484
f 453/1/485 454/1/486 448/1/487 447/1/488
f 243/1/469 252/1/484 253/1/489
f 477/1/394 474/1/490 446/1/491 469/1/391
f 446/1/491 474/1/490 453/1/485 447/1/488
f 333/1/325 327/1/492 326/1/493 332/1/494
f 371/1/495 391/1/496 370/1/497 337/1/42
f 252/1/484 258/1/498 253/1/489
f 446/1/491 447/1/488 440/1/499 439/1/420
f 252/1/484 257/1/500 258/1/498
f 91/1/99 84/1/50 82/1/53 83/1/148
f 231/1/151 261/1/501 230/1/49 224/1/152
f 383/1/296 384/1/502 308/1/278 378/1/277
f 258/1/498 264/1/503 265/1/504
f 141/1/505 148/1/506 146/1/292 131/1/291
f 260/1/507 304/1/508 267/1/509 261/1/501
f 550/1/286 569/1/510 559/1/511 552/1/287
f 312/1/512 613/1/513 304/1/508 260/1/507
f 609/1/431 624/1/388 620/1/279 615/1/282
f 323/1/514 329/1/35 282/1/515 275/1/516
f 91/1/99 93/1/74 86/1/54 84/1/50
f 471/1/517 481/1/348 472/1/273 463/1/276
f 265/1/504 264/1/503 271/1/518
f 265/1/504 271/1/518 272/1/519
f 136/1/94 98/1/520 60/1/189 90/1/95
f 528/1/222 546/1/221 513/1/379 520/1/479
f 267/1/509 268/1/46 230/1/49 261/1/501
f 462/1/274 472/1/273 479/1/347 470/1/392
f 202/1/521 165/1/522 167/1/434 176/1/523
f 470/1/392 469/1/391 445/1/419 462/1/274
f 250/1/524 187/1/369 172/1/368 195/1/525
f 614/1/526 619/1/423 618/1/426 612/1/527
f 492/1/457 486/1/456 485/1/349 489/1/466
f 640/1/283 631/1/250 623/1/193 632/1/192
f 124/1/528 238/1/240 232/1/150 133/1/149
f 281/1/529 274/1/47 288/1/530
f 274/1/47 268/1/46 288/1/530
f 268/1/46 267/1/509 288/1/530
f 281/1/529 288/1/530 289/1/531
f 418/1/532 432/1/533 430/1/534 424/1/535
f 426/1/67 432/1/533 418/1/532 419/1/68
f 612/1/527 618/1/426 608/1/346 607/1/536
f 127/1/162 126/1/537 162/1/538 154/1/539
f 601/1/303 664/1/344 660/1/157 602/1/304
f 289/1/531 288/1/530 293/1/540
f 271/1/518 294/1/541 272/1/519
f 558/1/405 574/1/340 571/1/343 566/1/406
f 36/1/137 42/1/138 43/1/171 41/1/174
f 600/1/345 601/1/303 575/1/302 595/1/542
f 293/1/540 288/1/530 297/1/413
f 294/1/541 298/1/543 272/1/519
f 418/1/532 424/1/535 417/1/544 411/1/254
f 272/1/519 298/1/543 299/1/545
f 599/1/546 600/1/345 595/1/542 594/1/547
f 324/1/548 328/1/549 323/1/514 317/1/550
f 576/1/342 595/1/542 575/1/302 571/1/343
f 267/1/509 304/1/508 288/1/530
f 297/1/413 288/1/530 305/1/414
f 298/1/543 306/1/87 299/1/545
f 411/1/254 413/1/147 419/1/68 418/1/532
f 299/1/545 306/1/87 308/1/278
f 589/1/551 594/1/547 595/1/542 576/1/342
f 305/1/414 288/1/530 309/1/552
f 132/1/553 133/1/149 224/1/152 217/1/554
f 672/1/126 677/1/125 246/1/239 675/1/223
f 442/1/555 452/1/556 450/1/320 443/1/557
f 224/1/152 230/1/49 216/1/48 217/1/554
f 497/1/468 492/1/457 489/1/466 496/1/558
f 456/1/275 444/1/66 425/1/65 431/1/311
f 309/1/552 288/1/530 314/1/559
f 589/1/551 576/1/342 581/1/341 588/1/358
f 72/1/141 80/1/165 73/1/214 65/1/204
f 571/1/343 575/1/302 570/1/305 566/1/406
f 188/1/560 184/1/109 183/1/418 180/1/561
f 621/1/280 626/1/306 610/1/322 616/1/226
f 431/1/311 433/1/310 463/1/276 456/1/275
f 431/1/311 425/1/65 415/1/146 416/1/308
f 52/1/180 59/1/188 53/1/172 43/1/171
f 314/1/559 288/1/530 320/1/562
f 559/1/511 574/1/340 558/1/405 552/1/287
f 640/1/283 647/1/249 637/1/264 631/1/250
f 525/1/376 528/1/222 520/1/479 505/1/421
f 524/1/257 532/1/375 525/1/376 516/1/370
f 524/1/257 530/1/256 540/1/288 532/1/375
f 320/1/562 288/1/530 326/1/493
f 585/1/563 593/1/564 586/1/357 580/1/359
f 76/1/51 85/1/55 57/1/62 68/1/112
f 505/1/421 520/1/479 497/1/468 496/1/558
f 689/1/385 692/1/451 680/1/450 683/1/386
f 407/1/459 415/1/146 413/1/147 403/1/253
f 326/1/493 288/1/530 332/1/494
f 585/1/563 587/1/439 592/1/438 593/1/564
f 335/1/38 362/1/37 343/1/453 248/1/565
f 569/1/510 585/1/563 580/1/359 559/1/511
f 382/1/566 403/1/253 402/1/255 395/1/567
f 399/1/478 407/1/459 403/1/253 382/1/566
f 146/1/292 157/1/435 156/1/568 147/1/293
f 332/1/494 288/1/530 339/1/569
f 529/1/197 545/1/570 550/1/286 530/1/256
f 584/1/436 587/1/439 564/1/571 563/1/572
f 300/1/176 305/1/414 309/1/552 302/1/268
f 473/1/467 481/1/348 471/1/517 466/1/573
f 473/1/467 498/1/574 496/1/558 489/1/466
f 422/1/309 416/1/308 406/1/460 414/1/476
f 583/1/575 591/1/437 584/1/436 578/1/576
f 339/1/569 288/1/530 345/1/577
f 578/1/576 584/1/436 563/1/572 557/1/578
f 564/1/571 545/1/570 544/1/91 563/1/572
f 545/1/570 564/1/571 569/1/510 550/1/286
f 284/1/208 319/1/207 313/1/579 276/1/580
f 441/1/319 465/1/318 433/1/310 422/1/309
f 109/1/130 110/1/142 103/1/105 108/1/131
f 98/1/520 130/1/581 99/1/201 60/1/189
f 369/1/170 375/1/582 352/1/583 351/1/584
f 334/1/585 342/1/586 322/1/587 327/1/492
f 290/1/88 294/1/541 271/1/518 264/1/503
f 462/1/274 445/1/419 444/1/66 456/1/275
f 41/1/174 45/1/58 37/1/56 36/1/137
f 88/1/166 97/1/588 73/1/214 80/1/165
f 464/1/589 466/1/573 458/1/317 457/1/590
f 464/1/589 498/1/574 473/1/467 466/1/573
f 498/1/574 506/1/422 505/1/421 496/1/558
f 457/1/590 458/1/317 450/1/320 452/1/556
f 180/1/561 183/1/418 177/1/409 181/1/133
f 663/1/127 668/1/229 641/1/307 648/1/181
f 538/1/92 544/1/91 545/1/570 529/1/197
f 170/1/591 132/1/553 217/1/554 211/1/592
f 464/1/589 459/1/593 506/1/422 498/1/574
f 618/1/426 665/1/425 664/1/344 608/1/346
f 421/1/594 441/1/319 422/1/309 414/1/476
f 508/1/354 510/1/353 501/1/397 500/1/366
f 398/1/477 399/1/478 370/1/497 391/1/496
f 144/1/285 153/1/135 149/1/134 142/1/595
f 101/1/98 656/1/185 100/1/75 93/1/74
f 515/1/371 516/1/370 506/1/422 459/1/593
f 521/1/196 522/1/198 515/1/371 514/1/480
f 361/1/315 374/1/218 363/1/398
f 382/1/566 395/1/567 377/1/294 376/1/301
f 639/1/272 640/1/283 632/1/192 634/1/298
f 514/1/480 515/1/371 459/1/593 451/1/596
f 404/1/597 421/1/594 414/1/476 405/1/475
f 370/1/497 376/1/301 336/1/43 337/1/42
f 501/1/397 509/1/396 483/1/403 491/1/598
f 395/1/567 402/1/255 397/1/599 396/1/600
f 377/1/294 395/1/567 396/1/600 389/1/295
f 385/1/81 405/1/475 398/1/477 391/1/496
f 404/1/597 405/1/475 385/1/81 401/1/80
f 94/1/104 95/1/430 108/1/131 103/1/105
f 363/1/398 374/1/218 387/1/217
f 638/1/601 651/1/183 644/1/186 628/1/265
f 443/1/557 421/1/594 404/1/597 437/1/118
f 383/1/296 390/1/602 384/1/502
f 383/1/296 389/1/295 390/1/602
f 451/1/596 459/1/593 452/1/556 442/1/555
f 442/1/555 443/1/557 437/1/118 435/1/117
f 637/1/264 638/1/601 622/1/251 631/1/250
f 389/1/295 396/1/600 390/1/602
f 390/1/602 396/1/600 397/1/599
f 380/1/244 392/1/215 374/1/218 373/1/245
f 531/1/89 538/1/92 521/1/196 523/1/482
f 409/1/603 427/1/154 410/1/153 400/1/604
f 437/1/118 404/1/597 401/1/80 429/1/84
f 465/1/318 471/1/517 463/1/276 433/1/310
f 331/1/45 330/1/44 325/1/86 318/1/605
f 130/1/581 137/1/606 122/1/237 121/1/236
f 102/1/145 104/1/194 62/1/102 96/1/101
f 358/1/607 371/1/495 337/1/42 331/1/45
f 358/1/607 375/1/582 379/1/82 371/1/495
f 408/1/608 537/1/609 531/1/89 523/1/482
f 408/1/608 523/1/482 436/1/481 409/1/603
f 409/1/603 436/1/481 434/1/610 427/1/154
f 87/1/60 94/1/104 69/1/100 77/1/61
f 325/1/86 330/1/44 308/1/278 306/1/87
f 402/1/255 411/1/254 412/1/611
f 70/1/195 111/1/144 78/1/140 71/1/139
f 596/1/360 598/1/612 507/1/364 590/1/361
f 338/1/613 358/1/607 331/1/45 318/1/605
f 411/1/254 417/1/544 412/1/611
f 155/1/614 160/1/615 158/1/432 148/1/506
f 503/1/378 582/1/228 504/1/363 495/1/389
f 318/1/605 325/1/86 307/1/85 313/1/579
f 412/1/611 417/1/544 420/1/616
f 352/1/583 375/1/582 358/1/607 338/1/613
f 168/1/433 186/1/411 176/1/523 167/1/434
f 417/1/544 424/1/535 420/1/616
f 51/1/160 52/1/180 43/1/171 42/1/138
f 283/1/617 276/1/580 313/1/579 307/1/85
f 434/1/610 435/1/117 428/1/119 427/1/154
f 436/1/481 514/1/480 451/1/596 434/1/610
f 484/1/452 491/1/598 483/1/403 482/1/445
f 424/1/535 430/1/534 420/1/616
f 629/1/267 630/1/618 562/1/289 628/1/265
f 344/1/206 352/1/583 338/1/613 319/1/207
f 385/1/81 391/1/496 371/1/495 379/1/82
f 434/1/610 451/1/596 442/1/555 435/1/117
f 423/1/155 428/1/119 429/1/84 394/1/83
f 546/1/221 572/1/281 551/1/377 513/1/379
f 62/1/102 63/1/113 55/1/116 61/1/103
f 430/1/534 432/1/533 438/1/619
f 430/1/534 438/1/619 420/1/616
f 263/1/620 283/1/617 264/1/503 258/1/498
f 432/1/533 440/1/499 438/1/619
f 490/1/621 491/1/598 484/1/452 488/1/458
f 410/1/153 423/1/155 393/1/216 392/1/215
f 205/1/416 207/1/415 200/1/622 163/1/623
f 370/1/497 399/1/478 382/1/566 376/1/301
f 276/1/580 283/1/617 263/1/620 270/1/624
f 641/1/307 668/1/229 649/1/271 642/1/270
f 270/1/624 263/1/620 254/1/71 259/1/70
f 440/1/499 447/1/488 448/1/487
f 440/1/499 448/1/487 449/1/625
f 364/1/626 388/1/169 369/1/170 351/1/584
f 400/1/604 410/1/153 392/1/215 380/1/244
f 387/1/217 393/1/216 388/1/169 364/1/626
f 480/1/395 488/1/458 484/1/452 478/1/393
f 198/1/387 203/1/627 204/1/440 199/1/628
f 239/1/629 273/1/630 234/1/262 233/1/261
f 448/1/487 454/1/486 455/1/631
f 448/1/487 455/1/631 449/1/625
f 343/1/453 356/1/400 285/1/632 278/1/633
f 569/1/510 564/1/571 587/1/439 585/1/563
f 357/1/399 364/1/626 351/1/584 350/1/634
f 452/1/556 459/1/593 457/1/590
f 454/1/486 460/1/635 455/1/631
f 454/1/486 453/1/485 460/1/635
f 455/1/631 460/1/635 461/1/636
f 277/1/637 284/1/208 276/1/580 270/1/624
f 320/1/562 326/1/493 327/1/492 322/1/587
f 457/1/590 459/1/593 464/1/589
f 75/1/52 76/1/51 68/1/112 67/1/111
f 286/1/205 285/1/632 350/1/634 344/1/206
f 356/1/400 357/1/399 350/1/634 285/1/632
f 460/1/635 453/1/485 467/1/638
f 460/1/635 467/1/638 468/1/447
f 460/1/635 468/1/447 461/1/636
f 266/1/639 277/1/637 270/1/624 259/1/70
f 279/1/640 286/1/205 284/1/208 277/1/637
f 285/1/632 286/1/205 279/1/640 278/1/633
f 668/1/229 670/1/230 667/1/167 666/1/200
f 363/1/398 387/1/217 364/1/626 357/1/399
f 467/1/638 475/1/444 468/1/447
f 227/1/465 245/1/72 244/1/472 237/1/464
f 174/1/330 173/1/333 197/1/382 189/1/372
f 475/1/444 467/1/638 453/1/485 474/1/490
f 228/1/69 245/1/72 227/1/465 222/1/441
f 242/1/641 266/1/639 259/1/70 228/1/69
f 290/1/88 306/1/87 298/1/543 294/1/541
f 234/1/262 273/1/630 266/1/639 242/1/641
f 476/1/446 482/1/445 483/1/403
f 234/1/262 242/1/641 220/1/642 226/1/263
f 220/1/642 222/1/441 204/1/440 213/1/643
f 547/1/327 548/1/312 542/1/351 541/1/328
f 273/1/630 279/1/640 277/1/637 266/1/639
f 279/1/640 273/1/630 239/1/629 278/1/633
f 254/1/71 257/1/500 244/1/472 245/1/72
f 248/1/565 343/1/453 278/1/633 239/1/629
f 208/1/644 226/1/263 220/1/642 213/1/643
f 214/1/260 226/1/263 208/1/644 209/1/107
f 240/1/338 248/1/565 239/1/629 233/1/261
f 622/1/251 638/1/601 628/1/265 562/1/289
f 201/1/106 221/1/339 214/1/260 209/1/107
f 487/1/455 494/1/390 490/1/621 488/1/458
f 247/1/337 335/1/38 248/1/565 240/1/338
f 185/1/108 209/1/107 208/1/644 192/1/410
f 499/1/365 500/1/366 490/1/621 494/1/390
f 213/1/643 193/1/645 192/1/410 208/1/644
f 193/1/645 213/1/643 204/1/440 203/1/627
f 466/1/573 471/1/517 465/1/318 458/1/317
f 196/1/646 241/1/336 221/1/339 201/1/106
f 196/1/646 201/1/106 184/1/109 188/1/560
f 580/1/359 581/1/341 574/1/340 559/1/511
f 88/1/166 113/1/235 105/1/427 97/1/588
f 244/1/472 257/1/500 252/1/484 251/1/483
f 117/1/224 118/1/647 78/1/140 111/1/144
f 408/1/608 409/1/603 400/1/604 386/1/648
f 186/1/411 192/1/410 193/1/645 176/1/523
f 543/1/649 556/1/650 537/1/609 372/1/651
f 152/1/321 153/1/135 144/1/285 134/1/284
f 557/1/578 563/1/572 544/1/91 549/1/90
f 196/1/646 250/1/524 249/1/652 241/1/336
f 95/1/430 94/1/104 87/1/60 92/1/73
f 602/1/304 624/1/388 609/1/431 570/1/305
f 328/1/549 368/1/36 329/1/35 323/1/514
f 644/1/186 650/1/97 643/1/653 635/1/266
f 178/1/412 186/1/411 168/1/433 169/1/654
f 202/1/521 203/1/627 198/1/387 197/1/382
f 198/1/387 199/1/628 191/1/374 190/1/373
f 345/1/577 346/1/210 340/1/213 339/1/569
f 365/1/246 373/1/245 328/1/549 324/1/548
f 386/1/648 400/1/604 380/1/244 367/1/243
f 662/1/429 115/1/128 108/1/131 95/1/430
f 657/1/259 661/1/168 115/1/128 662/1/429
f 519/1/655 526/1/656 527/1/657
f 372/1/651 537/1/609 408/1/608 386/1/648
f 360/1/658 366/1/659 367/1/243 365/1/246
f 359/1/660 360/1/658 365/1/246 324/1/548
f 649/1/271 666/1/200 652/1/199 646/1/247
f 372/1/651 386/1/648 367/1/243 366/1/659
f 317/1/550 323/1/514 275/1/516 269/1/661
f 511/1/401 533/1/329 526/1/656
f 526/1/656 534/1/381 527/1/657
f 526/1/656 533/1/329 534/1/381
f 527/1/657 534/1/381 535/1/350
f 477/1/394 482/1/445 475/1/444 474/1/490
f 527/1/657 535/1/350 536/1/352
f 316/1/662 317/1/550 269/1/661 311/1/663
f 660/1/157 664/1/344 665/1/425 659/1/158
f 202/1/521 197/1/382 173/1/333 165/1/522
f 227/1/465 229/1/461 223/1/442 222/1/441
f 537/1/609 556/1/650 549/1/90 531/1/89
f 348/1/664 543/1/649 372/1/651 366/1/659
f 507/1/364 598/1/612 517/1/335 508/1/354
f 269/1/661 275/1/516 256/1/665 218/1/232
f 638/1/601 637/1/264 654/1/184 651/1/183
f 165/1/522 173/1/333 166/1/332 156/1/568
f 578/1/576 573/1/473 579/1/666 583/1/575
f 354/1/667 349/1/668 360/1/658 359/1/660
f 256/1/665 249/1/652 250/1/524 195/1/525
f 359/1/660 316/1/662 355/1/669 354/1/667
f 511/1/401 526/1/656 519/1/655 512/1/402
f 157/1/435 167/1/434 165/1/522 156/1/568
f 154/1/539 164/1/670 152/1/321 134/1/284
f 353/1/211 543/1/649 348/1/664 347/1/212
f 353/1/211 568/1/474 556/1/650 543/1/649
f 310/1/671 355/1/669 316/1/662 311/1/663
f 342/1/586 355/1/669 310/1/671 321/1/672
f 354/1/667 355/1/669 342/1/586 334/1/585
f 554/1/314 553/1/290 562/1/289
f 117/1/224 238/1/240 124/1/528 118/1/647
f 219/1/231 311/1/663 269/1/661 218/1/232
f 303/1/673 310/1/671 311/1/663 219/1/231
f 568/1/474 573/1/473 578/1/576 557/1/578
f 450/1/320 441/1/319 421/1/594 443/1/557
f 225/1/674 303/1/673 219/1/231 206/1/234
f 301/1/269 303/1/673 225/1/674 296/1/177
f 301/1/269 321/1/672 310/1/671 303/1/673
f 218/1/232 256/1/665 195/1/525 212/1/233
f 633/1/297 642/1/270 639/1/272 634/1/298
f 316/1/662 359/1/660 324/1/548 317/1/550
f 321/1/672 301/1/269 302/1/268 315/1/675
f 319/1/207 338/1/613 318/1/605 313/1/579
f 187/1/369 250/1/524 196/1/646 188/1/560
f 558/1/405 560/1/404 540/1/288 552/1/287
f 329/1/35 335/1/38 247/1/337 282/1/515
f 345/1/577 288/1/530 579/1/666
f 605/1/190 606/1/316 517/1/335 598/1/612
f 322/1/587 342/1/586 321/1/672 315/1/675
f 345/1/577 579/1/666 573/1/473 346/1/210
f 579/1/666 288/1/530 583/1/575
f 215/1/676 280/1/677 210/1/678 211/1/592
f 202/1/521 176/1/523 193/1/645 203/1/627
f 320/1/562 322/1/587 315/1/675 314/1/559
f 351/1/584 352/1/583 344/1/206 350/1/634
f 333/1/325 341/1/324 334/1/585 327/1/492
f 586/1/357 288/1/530 588/1/358
f 588/1/358 288/1/530 589/1/551
f 373/1/245 374/1/218 368/1/36 328/1/549
f 103/1/105 110/1/142 102/1/145 96/1/101
f 583/1/575 288/1/530 591/1/437
f 332/1/494 339/1/569 340/1/213 333/1/325
f 591/1/437 288/1/530 592/1/438
f 231/1/151 262/1/443 260/1/507 261/1/501
f 592/1/438 288/1/530 593/1/564
f 586/1/357 593/1/564 288/1/530
f 589/1/551 288/1/530 594/1/547
f 495/1/389 494/1/390 487/1/455 493/1/454
f 177/1/409 183/1/418 178/1/412 169/1/654
f 187/1/369 188/1/560 180/1/561 179/1/367
f 556/1/650 568/1/474 557/1/578 549/1/90
f 39/1/41 68/1/112 57/1/62 48/1/64
f 594/1/547 288/1/530 599/1/546
f 170/1/591 171/1/679 162/1/538 126/1/537
f 292/1/178 296/1/177 225/1/674 207/1/415
f 159/1/408 177/1/409 169/1/654 160/1/615
f 180/1/561 181/1/133 161/1/132 179/1/367
f 160/1/615 169/1/654 168/1/433 158/1/432
f 254/1/71 263/1/620 258/1/498 257/1/500
f 293/1/540 297/1/413 295/1/175 291/1/680
f 599/1/546 288/1/530 607/1/536
f 291/1/680 295/1/175 292/1/178 287/1/417
f 207/1/415 225/1/674 206/1/234 200/1/622
f 669/1/424 674/1/241 659/1/158 665/1/425
f 670/1/230 672/1/126 675/1/223 116/1/143
f 503/1/378 495/1/389 493/1/454 502/1/380
f 607/1/536 288/1/530 612/1/527
f 288/1/530 304/1/508 613/1/513
f 288/1/530 614/1/526 612/1/527
f 288/1/530 613/1/513 614/1/526
f 200/1/622 194/1/681 164/1/670 163/1/623
f 148/1/506 158/1/432 157/1/435 146/1/292
f 133/1/149 132/1/553 125/1/682 124/1/528
f 274/1/47 281/1/529 215/1/676 216/1/48
f 194/1/681 212/1/233 195/1/525 172/1/368
f 206/1/234 212/1/233 194/1/681 200/1/622
f 577/1/225 621/1/280 616/1/226
f 172/1/368 179/1/367 161/1/132 152/1/321
f 547/1/327 561/1/334 555/1/313 548/1/312
f 439/1/420 440/1/499 432/1/533 426/1/67
f 570/1/305 609/1/431 565/1/407 566/1/406
f 164/1/670 194/1/681 172/1/368 152/1/321
f 610/1/322 626/1/306 627/1/300
f 141/1/505 131/1/291 137/1/606 138/1/683
f 137/1/606 131/1/291 123/1/238 122/1/237
f 145/1/684 155/1/614 148/1/506 141/1/505
f 150/1/685 159/1/408 160/1/615 155/1/614
f 149/1/134 159/1/408 150/1/685 142/1/595
f 671/1/129 670/1/230 116/1/143 109/1/130
f 657/1/259 662/1/429 100/1/75 656/1/185
f 349/1/668 354/1/667 334/1/585 341/1/324
f 629/1/267 635/1/266 636/1/686
f 629/1/267 636/1/686 630/1/618
f 140/1/687 145/1/684 141/1/505 138/1/683
f 150/1/685 151/1/355 143/1/121 142/1/595
f 145/1/684 151/1/355 150/1/685 155/1/614
f 633/1/297 641/1/307 642/1/270
f 139/1/120 144/1/285 142/1/595 143/1/121
f 635/1/266 643/1/653 636/1/686
f 106/1/202 99/1/201 130/1/581 121/1/236
f 130/1/581 98/1/520 138/1/683 137/1/606
f 636/1/686 643/1/653 645/1/688
f 643/1/653 91/1/99 645/1/688
f 283/1/617 307/1/85 290/1/88 264/1/503
f 603/1/191 605/1/190 598/1/612 596/1/360
f 135/1/356 151/1/355 145/1/684 140/1/687
f 540/1/288 560/1/404 539/1/219 532/1/375
f 134/1/284 139/1/120 120/1/123 112/1/163
f 643/1/653 650/1/97 91/1/99
f 445/1/419 469/1/391 446/1/491 439/1/420
f 120/1/123 128/1/122 105/1/427 113/1/235
f 565/1/407 567/1/220 539/1/219 560/1/404
f 136/1/94 140/1/687 138/1/683 98/1/520
f 366/1/659 360/1/658 349/1/668 348/1/664
f 163/1/623 164/1/670 154/1/539 162/1/538
f 309/1/552 314/1/559 315/1/675 302/1/268
f 249/1/652 282/1/515 247/1/337 241/1/336
f 89/1/96 90/1/95 59/1/188 81/1/187
f 105/1/427 129/1/93 89/1/96 97/1/588
f 171/1/679 205/1/416 163/1/623 162/1/538
f 312/1/512 673/1/428 669/1/424 619/1/423
f 135/1/356 140/1/687 136/1/94 129/1/93
f 97/1/588 89/1/96 81/1/187 73/1/214
f 607/1/536 608/1/346 600/1/345 599/1/546
f 127/1/162 154/1/539 134/1/284 112/1/163
f 280/1/677 291/1/680 287/1/417 210/1/678
f 210/1/678 287/1/417 205/1/416 171/1/679
f 614/1/526 613/1/513 312/1/512 619/1/423
f 375/1/582 369/1/170 381/1/79 379/1/82
f 262/1/443 673/1/428 312/1/512 260/1/507
f 112/1/163 113/1/235 88/1/166 79/1/164
f 649/1/271 668/1/229 666/1/200
f 211/1/592 210/1/678 171/1/679 170/1/591
f 211/1/592 217/1/554 216/1/48 215/1/676
f 79/1/164 80/1/165 72/1/141 78/1/140
f 667/1/167 670/1/230 671/1/129
f 275/1/516 282/1/515 249/1/652 256/1/665
f 500/1/366 501/1/397 491/1/598 490/1/621
f 281/1/529 289/1/531 280/1/677 215/1/676
f 118/1/647 119/1/161 79/1/164 78/1/140
f 126/1/537 127/1/162 119/1/161 125/1/682
f 125/1/682 119/1/161 118/1/647 124/1/528
f 348/1/664 349/1/668 341/1/324 347/1/212
f 132/1/553 170/1/591 126/1/537 125/1/682
f 289/1/531 293/1/540 291/1/680 280/1/677
f 679/1/471 680/1/450 681/1/689
f 706/1/690 708/1/691 693/1/448 700/1/692
f 682/1/470 684/1/693 683/1/386
f 683/1/386 685/1/694 686/1/695
f 683/1/386 686/1/695 687/1/383
f 683/1/386 688/1/696 685/1/694
f 683/1/386 684/1/693 688/1/696
f 699/1/697 700/1/692 694/1/698 698/1/699
f 694/1/698 700/1/692 693/1/448 692/1/451
f 691/1/700 33/1/33 1/1/1
f 689/1/385 690/1/384 691/1/700
f 689/1/385 691/1/700 1/1/1
f 617/1/252 553/1/290 555/1/313 606/1/316
f 680/1/450 695/1/701 681/1/689
f 680/1/450 696/1/449 695/1/701
f 1/1/1 17/1/17 697/1/702
f 694/1/698 1/1/1 697/1/702
f 694/1/698 697/1/702 698/1/699
f 518/1/326 533/1/329 511/1/401 509/1/396
f 696/1/449 693/1/448 701/1/703
f 699/1/697 702/1/704 700/1/692
f 700/1/692 702/1/704 703/1/705
f 700/1/692 703/1/705 704/1/706
f 700/1/692 704/1/706 705/1/707
f 700/1/692 705/1/707 706/1/690
f 220/1/642 242/1/641 228/1/69 222/1/441
f 701/1/703 693/1/448 707/1/708
f 693/1/448 708/1/691 707/1/708
f 49/1/63 77/1/61 69/1/100 61/1/103
