# Blender 4.3.2
# www.blender.org
o hair.067
v 7.705004 1.492936 -0.010976
v 7.704420 1.492911 -0.011021
v 7.703913 1.493639 -0.008697
v 7.705006 1.493685 -0.008624
v 7.704994 1.491863 -0.013492
v 7.705570 1.492911 -0.011021
v 7.706079 1.493639 -0.008697
v 7.706140 1.492837 -0.011151
v 7.705004 1.494346 -0.006181
v 7.706543 1.494230 -0.006333
v 7.707153 1.493483 -0.008956
v 7.708172 1.493999 -0.006654
v 7.706655 1.492715 -0.011368
v 7.704996 1.494957 -0.003561
v 7.703447 1.494230 -0.006334
v 7.707034 1.494787 -0.003769
v 7.709147 1.494475 -0.004179
v 7.708145 1.493249 -0.009353
v 7.709646 1.493582 -0.007295
v 7.709001 1.492934 -0.009901
v 7.707119 1.492551 -0.011658
v 7.701819 1.493999 -0.006654
v 7.700819 1.494469 -0.004190
v 7.702965 1.494789 -0.003768
v 7.707524 1.495386 -0.000806
v 7.710897 1.493138 -0.008027
v 7.711185 1.493872 -0.005085
v 7.712811 1.493225 -0.006099
v 7.709711 1.492551 -0.010588
v 7.707496 1.492338 -0.012035
v 7.702476 1.495386 -0.000819
v 7.702840 1.493483 -0.008957
v 7.711864 1.492612 -0.009017
v 7.714797 1.493405 -0.003842
v 7.713997 1.492461 -0.007351
v 7.710251 1.492079 -0.011410
v 7.707786 1.492082 -0.012463
v 7.704995 1.495608 -0.000549
v 7.703853 1.492836 -0.011154
v 7.701848 1.493250 -0.009351
v 7.712716 1.491884 -0.010248
v 7.710561 1.491595 -0.012278
v 7.707942 1.491818 -0.012931
v 7.704991 1.496295 0.003058
v 7.703334 1.492715 -0.011367
v 7.700361 1.493588 -0.007284
v 7.707984 1.491541 -0.013448
v 7.699815 1.494964 -0.001363
v 7.698737 1.495530 0.001999
v 7.701987 1.496081 0.002686
v 7.702870 1.492551 -0.011658
v 7.700992 1.492936 -0.009898
v 7.697428 1.494228 -0.002447
v 7.698898 1.493901 -0.005034
v 7.699575 1.496461 0.006928
v 7.701470 1.496809 0.007346
v 7.703259 1.497048 0.007639
v 7.699108 1.493146 -0.008010
v 7.700280 1.492552 -0.010586
v 7.697266 1.493285 -0.005983
v 7.715088 1.491517 -0.008980
v 7.713129 1.491243 -0.011441
v 7.700903 1.497364 0.012267
v 7.698130 1.492614 -0.009012
v 7.697274 1.491884 -0.010247
v 7.699736 1.492091 -0.011414
v 7.702494 1.492338 -0.012035
v 7.715592 1.490653 -0.010502
v 7.715834 1.489556 -0.012394
v 7.713316 1.490431 -0.012913
v 7.710665 1.491057 -0.013262
v 7.694935 1.491548 -0.008936
v 7.696055 1.492519 -0.007270
v 7.702202 1.492093 -0.012469
v 7.717852 1.489750 -0.009325
v 7.713168 1.489446 -0.014601
v 7.710570 1.490394 -0.014425
v 7.707941 1.491192 -0.014066
v 7.694051 1.492278 -0.005273
v 7.695421 1.493405 -0.003664
v 7.702045 1.491829 -0.012937
v 7.717366 1.490774 -0.007442
v 7.707775 1.490839 -0.014690
v 7.710248 1.489720 -0.015596
v 7.712705 1.488413 -0.016335
v 7.693388 1.493547 -0.000909
v 7.695807 1.494592 0.000600
v 7.699425 1.491606 -0.012283
v 7.702006 1.491540 -0.013449
v 7.716501 1.491944 -0.005510
v 7.707494 1.490513 -0.015267
v 7.709731 1.489084 -0.016689
v 7.697669 1.496017 0.006342
v 7.695848 1.495488 0.005547
v 7.696861 1.491242 -0.011440
v 7.716677 1.493329 -0.001075
v 7.712899 1.494242 -0.002235
v 7.707125 1.490217 -0.015791
v 7.696535 1.496432 0.011133
v 7.698727 1.496965 0.011810
v 7.718001 1.491929 -0.002873
v 7.718719 1.493241 0.002345
v 7.715199 1.494153 0.000115
v 7.710203 1.494986 -0.001258
v 7.697853 1.497267 0.016444
v 7.700372 1.497608 0.016685
v 7.702736 1.497663 0.016744
v 7.702977 1.497587 0.012532
v 7.718781 1.490823 -0.004282
v 7.711169 1.495471 0.002045
v 7.699840 1.497550 0.020378
v 7.704993 1.497594 0.012597
v 7.704992 1.497128 0.007754
v 7.720837 1.490099 -0.001987
v 7.719473 1.489869 -0.005827
v 7.707987 1.495991 0.002702
v 7.713570 1.494755 0.001050
v 7.706721 1.496998 0.007643
v 7.720159 1.491531 0.000001
v 7.720006 1.488657 -0.007896
v 7.722064 1.487351 -0.006406
v 7.721468 1.488842 -0.004000
v 7.720429 1.487102 -0.010679
v 7.718153 1.488420 -0.011658
v 7.715173 1.495182 0.005415
v 7.717134 1.494336 0.004055
v 7.722283 1.490939 0.003053
v 7.723392 1.487596 -0.002065
v 7.717970 1.486856 -0.014239
v 7.715658 1.488251 -0.014547
v 7.712226 1.496018 0.006369
v 7.710396 1.496404 0.006925
v 7.718886 1.494207 0.007799
v 7.722845 1.489197 0.000466
v 7.715074 1.486888 -0.016756
v 7.713202 1.496251 0.010842
v 7.708503 1.496732 0.007350
v 7.721571 1.492029 0.004705
v 7.720688 1.493018 0.006184
v 7.719791 1.493688 0.007121
v 7.711939 1.487427 -0.017920
v 7.707002 1.497451 0.012448
v 7.709044 1.497133 0.012094
v 7.723493 1.491393 0.007876
v 7.724302 1.490151 0.005902
v 7.724676 1.489043 0.004243
v 7.721417 1.493250 0.010697
v 7.707249 1.497329 0.016388
v 7.705003 1.497550 0.016637
v 7.711163 1.496720 0.011540
v 7.726054 1.489251 0.008435
v 7.724819 1.488076 0.002851
v 7.724994 1.487305 0.001659
v 7.722461 1.492512 0.009647
v 7.702479 1.497454 0.020194
v 7.704964 1.497163 0.019876
v 7.711806 1.496529 0.015389
v 7.726583 1.486915 0.005134
v 7.723934 1.491927 0.012628
v 7.725134 1.490657 0.010640
v 7.702130 1.496892 0.022746
v 7.709506 1.496981 0.015978
v 7.726455 1.488014 0.006644
v 7.720235 1.493855 0.011259
v 7.721351 1.493373 0.014462
v 7.722692 1.492755 0.013769
v 7.726352 1.489907 0.012821
v 7.727376 1.488319 0.010537
v 7.727842 1.486942 0.008646
v 7.707411 1.496882 0.019497
v 7.709839 1.496520 0.019021
v 7.718788 1.494576 0.011569
v 7.723511 1.492370 0.016129
v 7.717707 1.494884 0.008696
v 7.729268 1.486841 0.013613
v 7.707436 1.496361 0.021811
v 7.704818 1.496639 0.022302
v 7.724990 1.491369 0.014887
v 7.716458 1.495330 0.009355
v 7.715008 1.495763 0.010060
v 7.704554 1.495988 0.025216
v 7.699262 1.496916 0.023041
v 7.698368 1.495893 0.026145
v 7.701571 1.496100 0.025783
v 7.726502 1.490642 0.017969
v 7.728120 1.488791 0.015923
v 7.715960 1.495523 0.013839
v 7.714005 1.496025 0.014663
v 7.696133 1.496646 0.023117
v 7.696978 1.497245 0.020376
v 7.724535 1.491999 0.019218
v 7.727943 1.489457 0.021556
v 7.729888 1.487208 0.019532
v 7.731189 1.484872 0.017050
v 7.729850 1.485198 0.011570
v 7.714554 1.495548 0.017710
v 7.712266 1.496055 0.018422
v 7.694028 1.496843 0.019975
v 7.695300 1.496757 0.015883
v 7.730325 1.484982 0.022389
v 7.730029 1.483781 0.009646
v 7.731887 1.482975 0.014633
v 7.727996 1.485711 0.006999
v 7.709990 1.495992 0.021244
v 7.712484 1.495523 0.020586
v 7.692856 1.495997 0.014866
v 7.694416 1.495808 0.010209
v 7.732724 1.480650 0.016409
v 7.732046 1.481429 0.012216
v 7.728151 1.484599 0.005427
v 7.726744 1.485965 0.003748
v 7.710079 1.495228 0.023792
v 7.692468 1.495054 0.009081
v 7.694160 1.494882 0.004626
v 7.731916 1.482569 0.019527
v 7.727007 1.484606 0.001775
v 7.730036 1.482539 0.007672
v 7.729427 1.481741 0.004436
v 7.725299 1.486140 -0.000064
v 7.692659 1.494208 0.003664
v 7.732355 1.479972 0.021590
v 7.727511 1.482328 -0.001536
v 7.725900 1.484045 -0.003089
v 7.731761 1.480163 0.009723
v 7.731249 1.479330 0.007363
v 7.724014 1.485795 -0.004788
v 7.733332 1.478002 0.017796
v 7.733567 1.476460 0.014082
v 7.732893 1.479123 0.013317
v 7.729668 1.479618 0.000594
v 7.728112 1.479482 -0.005625
v 7.732513 1.477865 0.010516
v 7.724552 1.483580 -0.008344
v 7.722561 1.485477 -0.009597
v 7.733826 1.475397 0.018644
v 7.731280 1.476542 0.002919
v 7.733126 1.475311 0.011061
v 7.731860 1.476740 0.007860
v 7.722421 1.483376 -0.013070
v 7.720276 1.485262 -0.013719
v 7.731248 1.474077 -0.002226
v 7.732064 1.471127 -0.000580
v 7.731610 1.473896 0.005054
v 7.730762 1.476452 0.010803
v 7.732349 1.474359 0.008386
v 7.733715 1.472837 0.011635
v 7.734338 1.473704 0.014724
v 7.719549 1.483383 -0.016811
v 7.717302 1.485239 -0.016874
v 7.731663 1.470233 0.007192
v 7.732598 1.467500 0.001205
v 7.729825 1.476978 -0.004002
v 7.730275 1.473573 0.014349
v 7.732597 1.472398 0.008969
v 7.734568 1.470687 0.015077
v 7.716146 1.483761 -0.019357
v 7.714091 1.485620 -0.018806
v 7.729506 1.473951 -0.008853
v 7.730725 1.471114 -0.007456
v 7.731852 1.467884 -0.006043
v 7.730369 1.466839 0.014243
v 7.732759 1.469949 0.009895
v 7.712750 1.484497 -0.020605
v 7.710903 1.486544 -0.019304
v 7.729596 1.467857 -0.012686
v 7.731603 1.465449 0.008536
v 7.730275 1.460105 0.014243
v 7.732769 1.463208 0.002984
v 7.734061 1.470276 0.012167
v 7.733947 1.467458 0.012590
v 7.732990 1.466106 0.011453
v 7.709021 1.488515 -0.017657
v 7.732449 1.463999 -0.004393
v 7.732366 1.459218 -0.002334
v 7.732698 1.460105 0.004733
v 7.734222 1.467224 0.014964
v 7.733257 1.461566 0.013327
v 7.708161 1.488053 -0.018442
v 7.706665 1.489985 -0.016203
v 7.731346 1.460085 -0.009650
v 7.730691 1.464356 -0.011366
v 7.731562 1.454273 0.000176
v 7.733678 1.469735 0.019042
v 7.733024 1.466542 0.018893
v 7.706147 1.489802 -0.016527
v 7.709637 1.485816 -0.020433
v 7.728440 1.460755 -0.016501
v 7.730063 1.448440 -0.004380
v 7.734112 1.472722 0.019037
v 7.732670 1.471582 0.024392
v 7.707173 1.487704 -0.019033
v 7.705581 1.489700 -0.016709
v 7.731065 1.454617 -0.007177
v 7.728931 1.449964 -0.011371
v 7.726185 1.443480 -0.008254
v 7.732782 1.475381 0.023180
v 7.706106 1.487492 -0.019390
v 7.708191 1.485271 -0.021272
v 7.704994 1.489656 -0.016785
v 7.725421 1.446161 -0.014318
v 7.722325 1.439788 -0.011271
v 7.728998 1.456095 -0.014606
v 7.725589 1.452609 -0.018897
v 7.732852 1.473032 0.023619
v 7.709195 1.482866 -0.023155
v 7.706622 1.484937 -0.021787
v 7.711093 1.483566 -0.022070
v 7.721308 1.443380 -0.017075
v 7.718714 1.437452 -0.013207
v 7.730783 1.475332 0.027006
v 7.729185 1.470127 0.026198
v 7.731439 1.468248 0.023335
v 7.730234 1.472850 0.026911
v 7.712509 1.481359 -0.023317
v 7.714534 1.482457 -0.021548
v 7.714708 1.436136 -0.014444
v 7.716580 1.441519 -0.019118
v 7.730086 1.464977 0.022210
v 7.727804 1.474189 0.029250
v 7.716380 1.480242 -0.022371
v 7.710173 1.480525 -0.024617
v 7.711186 1.478003 -0.025964
v 7.713979 1.478978 -0.024451
v 7.718243 1.481710 -0.019760
v 7.711200 1.440312 -0.020247
v 7.710191 1.435356 -0.015236
v 7.716306 1.448617 -0.024456
v 7.727885 1.467284 0.025176
v 7.707632 1.480011 -0.025411
v 7.715392 1.476313 -0.025476
v 7.707133 1.482436 -0.023820
v 7.720215 1.479397 -0.020014
v 7.704995 1.439654 -0.020448
v 7.704995 1.435029 -0.015394
v 7.721301 1.450210 -0.022156
v 7.725714 1.469669 0.027823
v 7.704995 1.482289 -0.024046
v 7.704995 1.484822 -0.021962
v 7.718134 1.477742 -0.023047
v 7.699799 1.435356 -0.015236
v 7.698790 1.440312 -0.020247
v 7.704995 1.447147 -0.026355
v 7.720983 1.455289 -0.024459
v 7.725178 1.457570 -0.021011
v 7.704995 1.487418 -0.019515
v 7.719748 1.474911 -0.023466
v 7.695282 1.436136 -0.014444
v 7.710779 1.447549 -0.025871
v 7.716069 1.453729 -0.026890
v 7.724430 1.461926 -0.022131
v 7.727473 1.464709 -0.017687
v 7.703883 1.487492 -0.019390
v 7.704408 1.489700 -0.016708
v 7.693409 1.441519 -0.019118
v 7.691275 1.437452 -0.013207
v 7.726369 1.468076 -0.018610
v 7.728332 1.470906 -0.013826
v 7.703367 1.484937 -0.021787
v 7.702816 1.487704 -0.019032
v 7.703842 1.489802 -0.016527
v 7.693683 1.448617 -0.024456
v 7.688682 1.443380 -0.017075
v 7.699211 1.447549 -0.025871
v 7.687664 1.439788 -0.011271
v 7.726930 1.473676 -0.014802
v 7.727952 1.476477 -0.010107
v 7.701798 1.485270 -0.021272
v 7.701828 1.488053 -0.018441
v 7.703324 1.489986 -0.016202
v 7.699337 1.452705 -0.028350
v 7.704995 1.452327 -0.028837
v 7.684568 1.446161 -0.014318
v 7.683805 1.443480 -0.008254
v 7.702866 1.490219 -0.015789
v 7.704995 1.456831 -0.029988
v 7.710652 1.452705 -0.028350
v 7.684401 1.452609 -0.018897
v 7.681058 1.449964 -0.011371
v 7.688689 1.450210 -0.022156
v 7.679926 1.448440 -0.004380
v 7.702856 1.482436 -0.023819
v 7.700794 1.482866 -0.023155
v 7.715672 1.458138 -0.028140
v 7.689006 1.455289 -0.024459
v 7.693920 1.453729 -0.026890
v 7.678924 1.454617 -0.007177
v 7.677623 1.459218 -0.002334
v 7.678427 1.454273 0.000176
v 7.702357 1.480011 -0.025411
v 7.700353 1.485814 -0.020431
v 7.720415 1.459730 -0.025641
v 7.694317 1.458138 -0.028140
v 7.699543 1.457163 -0.029554
v 7.678643 1.460085 -0.009650
v 7.677291 1.460105 0.004733
v 7.699087 1.486540 -0.019301
v 7.700971 1.488516 -0.017655
v 7.719683 1.463434 -0.026335
v 7.723519 1.465555 -0.022887
v 7.699822 1.460936 -0.030137
v 7.680991 1.456095 -0.014606
v 7.700261 1.489084 -0.016686
v 7.702497 1.490514 -0.015266
v 7.722458 1.468770 -0.023356
v 7.725129 1.471092 -0.019312
v 7.681549 1.460755 -0.016501
v 7.684811 1.457570 -0.021011
v 7.699744 1.489719 -0.015595
v 7.702217 1.490840 -0.014689
v 7.702051 1.491192 -0.014066
v 7.723655 1.473993 -0.019781
v 7.725316 1.476333 -0.015587
v 7.726230 1.478894 -0.011229
v 7.685559 1.461926 -0.022131
v 7.689575 1.459730 -0.025641
v 7.699421 1.490393 -0.014425
v 7.697286 1.488408 -0.016332
v 7.699328 1.491055 -0.013263
v 7.723566 1.478882 -0.016205
v 7.690306 1.463434 -0.026335
v 7.694849 1.461849 -0.028802
v 7.696823 1.489442 -0.014599
v 7.696674 1.490428 -0.012911
v 7.698051 1.487422 -0.017917
v 7.694916 1.486887 -0.016755
v 7.726425 1.481517 -0.006973
v 7.695463 1.465226 -0.029007
v 7.694332 1.488251 -0.014546
v 7.694157 1.489556 -0.012393
v 7.697239 1.484496 -0.020605
v 7.695898 1.485619 -0.018805
v 7.694406 1.490659 -0.010493
v 7.724403 1.481212 -0.012230
v 7.692020 1.486857 -0.014239
v 7.693843 1.483760 -0.019357
v 7.698896 1.483565 -0.022070
v 7.692167 1.489765 -0.009320
v 7.692799 1.490890 -0.007366
v 7.692688 1.485239 -0.016874
v 7.700305 1.481695 -0.023886
v 7.697480 1.481359 -0.023317
v 7.691845 1.488423 -0.011659
v 7.690610 1.490049 -0.005645
v 7.692004 1.491911 -0.002904
v 7.721642 1.481275 -0.016610
v 7.699817 1.480525 -0.024617
v 7.695455 1.482457 -0.021548
v 7.689563 1.487099 -0.010685
v 7.691418 1.493433 0.002591
v 7.690514 1.492522 0.001340
v 7.722026 1.476777 -0.020036
v 7.698803 1.478003 -0.025964
v 7.689986 1.488654 -0.007906
v 7.689421 1.493072 0.006311
v 7.690791 1.494131 0.007794
v 7.721179 1.471898 -0.023542
v 7.696010 1.478978 -0.024451
v 7.693610 1.480242 -0.022371
v 7.687930 1.487346 -0.006420
v 7.688869 1.493791 0.011766
v 7.690645 1.495055 0.013462
v 7.718827 1.466754 -0.026648
v 7.717820 1.470070 -0.026600
v 7.694597 1.476313 -0.025476
v 7.688713 1.494748 0.017275
v 7.691251 1.495858 0.018897
v 7.715140 1.461849 -0.028802
v 7.714526 1.465226 -0.029007
v 7.697818 1.475201 -0.027226
v 7.701336 1.474502 -0.028221
v 7.701842 1.477402 -0.026871
v 7.689760 1.494988 0.021680
v 7.692869 1.496171 0.022775
v 7.710447 1.457163 -0.029554
v 7.710167 1.460936 -0.030137
v 7.696917 1.472042 -0.028218
v 7.704995 1.477194 -0.027173
v 7.704995 1.479836 -0.025680
v 7.691199 1.494250 0.025866
v 7.694849 1.495331 0.026238
v 7.693299 1.473295 -0.026235
v 7.690242 1.474911 -0.023466
v 7.691855 1.477742 -0.023047
v 7.687614 1.492609 0.024873
v 7.689296 1.491053 0.029152
v 7.697059 1.494236 0.029617
v 7.704995 1.460648 -0.030521
v 7.689775 1.479397 -0.020014
v 7.691746 1.481710 -0.019760
v 7.708148 1.477402 -0.026871
v 7.700655 1.494866 0.029239
v 7.704027 1.494945 0.028552
v 7.704995 1.464105 -0.030594
v 7.709848 1.464367 -0.030252
v 7.690440 1.483383 -0.016811
v 7.708652 1.474502 -0.028221
v 7.704995 1.474255 -0.028530
v 7.712171 1.475201 -0.027226
v 7.707389 1.495671 0.024541
v 7.709501 1.467841 -0.029946
v 7.713839 1.468666 -0.028790
v 7.704995 1.470986 -0.029601
v 7.700875 1.471259 -0.029292
v 7.713072 1.472042 -0.028218
v 7.716690 1.473295 -0.026235
v 7.689713 1.485262 -0.013719
v 7.700488 1.467841 -0.029946
v 7.696150 1.468666 -0.028790
v 7.692170 1.470070 -0.026600
v 7.709114 1.471259 -0.029292
v 7.688348 1.481275 -0.016610
v 7.687568 1.483376 -0.013070
v 7.687431 1.485475 -0.009604
v 7.704995 1.467574 -0.030265
v 7.687963 1.476777 -0.020036
v 7.686424 1.478882 -0.016205
v 7.685586 1.481212 -0.012230
v 7.685437 1.483576 -0.008348
v 7.688810 1.471898 -0.023542
v 7.686334 1.473993 -0.019781
v 7.700141 1.464367 -0.030252
v 7.684674 1.476333 -0.015587
v 7.683760 1.478894 -0.011229
v 7.683554 1.481510 -0.006967
v 7.684019 1.484018 -0.003064
v 7.685962 1.485785 -0.004793
v 7.687531 1.468770 -0.023356
v 7.691162 1.466754 -0.026648
v 7.683059 1.473676 -0.014802
v 7.682037 1.476477 -0.010108
v 7.681744 1.479316 -0.005504
v 7.686608 1.487812 -0.001761
v 7.688589 1.489058 -0.003748
v 7.680482 1.473951 -0.008853
v 7.681657 1.470906 -0.013826
v 7.683620 1.468076 -0.018610
v 7.684860 1.471092 -0.019312
v 7.689263 1.490323 -0.001689
v 7.686471 1.465555 -0.022887
v 7.680394 1.467857 -0.012686
v 7.689834 1.491482 -0.000088
v 7.687179 1.489307 0.000681
v 7.687660 1.490653 0.002700
v 7.682517 1.464709 -0.017687
v 7.685096 1.487879 0.002789
v 7.684592 1.486284 0.000230
v 7.685541 1.489329 0.005011
v 7.686325 1.490862 0.007417
v 7.688392 1.491911 0.004595
v 7.679298 1.464356 -0.011366
v 7.682781 1.484308 0.002303
v 7.682188 1.481981 -0.001254
v 7.683481 1.487594 0.007190
v 7.687438 1.492380 0.009753
v 7.678137 1.467884 -0.006043
v 7.677540 1.463999 -0.004393
v 7.679264 1.471114 -0.007456
v 7.680083 1.476955 -0.003954
v 7.680447 1.479656 0.000604
v 7.685386 1.491308 0.012824
v 7.686817 1.493132 0.015246
v 7.677400 1.467508 0.001209
v 7.677220 1.463211 0.002981
v 7.678863 1.474243 -0.002287
v 7.679309 1.476918 0.002683
v 7.681110 1.481920 0.004447
v 7.684247 1.489422 0.009987
v 7.684790 1.491784 0.017950
v 7.686950 1.493556 0.020041
v 7.679714 1.460105 0.014243
v 7.678387 1.465453 0.008534
v 7.677956 1.471141 -0.000560
v 7.681287 1.483762 0.007166
v 7.683102 1.486034 0.004873
v 7.682092 1.487640 0.012488
v 7.684393 1.490712 0.023347
v 7.679620 1.466839 0.014243
v 7.678394 1.470247 0.007191
v 7.678645 1.473933 0.005057
v 7.683170 1.489815 0.015429
v 7.681853 1.488742 0.021302
v 7.682180 1.486397 0.026605
v 7.685488 1.488810 0.028175
v 7.679714 1.473573 0.014349
v 7.681483 1.485535 0.009580
v 7.680014 1.486759 0.018736
v 7.684264 1.484246 0.030579
v 7.679769 1.476491 0.010740
v 7.679825 1.479409 0.007237
v 7.679353 1.481297 0.009990
v 7.679070 1.482827 0.012767
v 7.679259 1.484651 0.015715
v 7.676826 1.478810 0.017673
v 7.677760 1.481347 0.021138
v 7.678291 1.473856 0.008829
v 7.677087 1.475230 0.011423
v 7.676260 1.476524 0.014225
v 7.675989 1.472718 0.018293
v 7.677364 1.476252 0.022764
v 7.679764 1.484028 0.024370
v 7.677269 1.467790 0.010873
v 7.675891 1.469861 0.014386
v 7.676335 1.468535 0.012199
v 7.676975 1.466450 0.018919
v 7.677103 1.471491 0.024395
v 7.679161 1.479331 0.026079
v 7.681377 1.481781 0.028645
v 7.676899 1.461601 0.013273
v 7.678819 1.474429 0.027310
v 7.680308 1.470657 0.026210
v 7.678505 1.468237 0.023303
v 7.681364 1.476933 0.029683
v 7.687642 1.486664 0.031921
v 7.683778 1.479324 0.031966
v 7.686673 1.481756 0.033700
v 7.679908 1.464982 0.022212
v 7.682302 1.473082 0.028855
v 7.684556 1.475420 0.031156
v 7.691331 1.488970 0.032712
v 7.693213 1.492913 0.029610
v 7.690859 1.480303 0.034543
v 7.690105 1.484323 0.034908
v 7.687344 1.477806 0.033021
v 7.681675 1.467286 0.024834
v 7.683597 1.469622 0.027292
v 7.685869 1.471925 0.029472
v 7.688774 1.474236 0.031363
v 7.693986 1.486670 0.035485
v 7.692591 1.476586 0.032957
v 7.695199 1.490886 0.032979
v 7.699113 1.492137 0.032754
v 7.696910 1.478758 0.033934
v 7.694913 1.482662 0.035365
v 7.699254 1.484535 0.035392
v 7.698176 1.488456 0.035433
v 7.702972 1.492725 0.032061
v 7.702437 1.489542 0.034756
v 7.701340 1.480492 0.033991
v 7.705485 1.481693 0.033296
v 7.703549 1.485766 0.034711
v 7.706676 1.492651 0.030926
v 7.707195 1.494613 0.027634
v 7.707468 1.486207 0.033384
v 7.706531 1.489785 0.033455
v 7.708947 1.482273 0.032014
v 7.710105 1.494065 0.026612
v 7.709980 1.492146 0.029588
v 7.710079 1.489428 0.031876
v 7.710746 1.486096 0.031832
v 7.711698 1.482459 0.030622
v 7.712641 1.491444 0.028284
v 7.712701 1.493492 0.025617
v 7.712621 1.494738 0.023004
v 7.712707 1.488714 0.030368
v 7.713120 1.485675 0.030475
v 7.713706 1.482481 0.029593
v 7.714840 1.492980 0.024748
v 7.714679 1.490744 0.027155
v 7.714593 1.487937 0.029076
v 7.714841 1.494269 0.022245
v 7.714795 1.485172 0.029370
v 7.715140 1.482428 0.028851
v 7.714769 1.495028 0.019862
v 7.716119 1.490251 0.026345
v 7.716384 1.492609 0.024107
v 7.716564 1.493889 0.021586
v 7.715979 1.484817 0.028577
v 7.715920 1.487389 0.028146
v 7.716697 1.494578 0.019100
v 7.716165 1.482390 0.028322
v 7.716561 1.495060 0.016896
v 7.717647 1.492922 0.023355
v 7.716826 1.486676 0.027886
v 7.717228 1.489883 0.025548
v 7.718221 1.493596 0.021016
v 7.716984 1.482360 0.027898
v 7.717006 1.484685 0.028194
v 7.718450 1.494132 0.018343
v 7.718318 1.494560 0.016016
v 7.717584 1.495036 0.012835
v 7.719855 1.494014 0.015106
v 7.720209 1.493646 0.017638
v 7.721916 1.493074 0.016920
v 7.720241 1.493384 0.020524
v 7.722413 1.492934 0.019969
v 7.720213 1.492575 0.023416
v 7.722815 1.492318 0.023112
v 7.725458 1.491175 0.022605
v 7.719962 1.490401 0.025782
v 7.722708 1.490374 0.025735
v 7.725536 1.489276 0.025477
v 7.728212 1.487425 0.024555
v 7.719795 1.487504 0.027939
v 7.722635 1.487542 0.028270
v 7.725502 1.486562 0.028176
v 7.728212 1.484778 0.027196
v 7.730578 1.482408 0.024864
v 7.720005 1.484599 0.029294
v 7.723000 1.484367 0.030134
v 7.725808 1.483546 0.029943
v 7.728418 1.482103 0.028636
v 7.730820 1.480003 0.026127
v 7.732614 1.477613 0.022663
v 7.720397 1.481845 0.030116
v 7.723273 1.481156 0.031235
v 7.725994 1.480467 0.030869
v 7.728552 1.479425 0.029268
v 7.730941 1.477681 0.026679
v 7.720776 1.479403 0.030674
v 7.719254 1.478595 0.029712
v 7.722924 1.478191 0.031452
v 7.725574 1.477514 0.031008
v 7.728327 1.476764 0.029481
v 7.721477 1.475116 0.030649
v 7.725101 1.474928 0.030599
v 7.725128 1.472947 0.029883
v 7.723604 1.472210 0.029834
v 7.727044 1.471772 0.028551
v 7.677269 1.467790 0.010873
v 7.678291 1.473856 0.008829
v 7.689871 1.488088 0.015258
v 7.679825 1.479409 0.007237
v 7.713706 1.482481 0.029593
v 7.715140 1.482428 0.028851
v 7.711698 1.482459 0.030622
v 7.716165 1.482390 0.028322
v 7.708947 1.482273 0.032014
v 7.716984 1.482360 0.027898
v 7.705485 1.481693 0.033296
v 7.716409 1.483882 0.021880
v 7.719254 1.478595 0.029712
v 7.701340 1.480492 0.033991
v 7.720118 1.486372 0.015258
v 7.721477 1.475116 0.030649
v 7.696910 1.478758 0.033934
v 7.723604 1.472210 0.029834
v 7.692591 1.476586 0.032957
v 7.725714 1.469669 0.027823
v 7.688774 1.474236 0.031363
v 7.727885 1.467284 0.025176
v 7.685869 1.471925 0.029472
v 7.730086 1.464977 0.022210
v 7.683597 1.469622 0.027292
v 7.731439 1.468248 0.023335
v 7.681675 1.467286 0.024834
v 7.732670 1.471582 0.024392
v 7.679908 1.464982 0.022212
v 7.733024 1.466542 0.018893
v 7.678505 1.468237 0.023303
v 7.733257 1.461566 0.013327
v 7.732990 1.466106 0.011453
v 7.732759 1.469949 0.009895
v 7.731249 1.479330 0.007363
v 7.731860 1.476740 0.007860
v 7.732349 1.474359 0.008386
v 7.732597 1.472398 0.008969
v 7.677103 1.471491 0.024395
v 7.676975 1.466450 0.018919
v 7.676899 1.461601 0.013273
vn 0.2157 0.8920 -0.3972
vn 0.1438 0.8871 -0.4385
vn 0.1288 0.9015 -0.4132
vn 0.1937 0.9134 -0.3580
vn 0.0002 0.9384 -0.3456
vn 0.0005 0.8779 -0.4789
vn -0.0300 0.9370 -0.3481
vn -0.5695 0.0125 -0.8219
vn -0.7239 0.0882 -0.6842
vn -0.6899 0.1812 -0.7009
vn -0.5393 0.1163 -0.8340
vn 0.0298 0.9370 -0.3481
vn 0.0581 0.9332 -0.3547
vn -0.9802 0.0368 0.1947
vn -0.9861 0.0984 0.1340
vn -0.9962 0.0836 0.0226
vn -0.9982 0.0050 0.0592
vn 0.6899 0.1812 -0.7009
vn 0.7894 0.2520 -0.5597
vn 0.8242 0.1681 -0.5407
vn 0.7239 0.0882 -0.6842
vn 0.2547 0.9142 -0.3153
vn 0.2883 0.8879 -0.3585
vn -0.0507 0.9589 -0.2792
vn -0.0944 0.9535 -0.2864
vn -0.1230 0.9609 -0.2480
vn -0.0683 0.9684 -0.2400
vn -0.0579 0.9331 -0.3548
vn -0.0827 0.9268 -0.3663
vn -0.1334 0.9450 -0.2987
vn 0.0830 0.9267 -0.3666
vn -0.1241 0.9056 -0.4057
vn -0.1383 0.8914 -0.4317
vn -0.2154 0.8942 -0.3925
vn -0.1919 0.9156 -0.3533
vn 0.2239 0.8747 -0.4299
vn 0.1468 0.8796 -0.4525
vn -0.2610 0.9285 -0.2641
vn -0.3207 0.9077 -0.2707
vn -0.2161 0.9482 -0.2330
vn -0.1967 0.9499 -0.2429
vn -0.2849 0.5738 -0.7678
vn -0.3722 0.6033 -0.7053
vn -0.3118 0.6503 -0.6927
vn -0.2419 0.6281 -0.7396
vn -0.1707 0.9501 -0.2610
vn 0.8740 0.4104 0.2600
vn 0.9342 0.3320 0.1308
vn 0.8845 0.4656 -0.0281
vn 0.8337 0.5487 0.0618
vn 0.1062 0.9175 -0.3834
vn 0.1668 0.6092 -0.7753
vn 0.0859 0.5972 -0.7975
vn 0.0693 0.6626 -0.7458
vn 0.1344 0.6719 -0.7284
vn 0.3217 0.8242 -0.4661
vn 0.2275 0.8510 -0.4734
vn 0.3082 0.8602 -0.4062
vn 0.5321 0.6833 -0.5000
vn 0.5008 0.6519 -0.5694
vn 0.4158 0.7000 -0.5807
vn 0.4383 0.7337 -0.5192
vn 0.1628 0.9336 -0.3193
vn 0.2109 0.9369 -0.2788
vn 0.1384 0.9636 -0.2288
vn 0.1909 0.9501 -0.2469
vn 0.1716 0.9499 -0.2613
vn 0.1229 0.9610 -0.2479
vn -0.8784 0.4087 -0.2479
vn -0.8241 0.5163 -0.2329
vn -0.8381 0.5056 -0.2047
vn -0.8994 0.4022 -0.1715
vn -0.4151 0.7004 -0.5807
vn -0.5006 0.6520 -0.5694
vn -0.5319 0.6835 -0.4999
vn -0.4378 0.7340 -0.5192
vn -0.5353 0.7776 -0.3298
vn -0.4952 0.8192 -0.2895
vn -0.3947 0.8626 -0.3163
vn -0.4289 0.8240 -0.3702
vn 0.0004 0.9762 -0.2168
vn 0.0052 0.9801 -0.1985
vn 0.0906 0.9764 -0.1959
vn 0.0805 0.9727 -0.2177
vn -0.4430 0.7782 -0.4452
vn -0.3223 0.8232 -0.4674
vn -0.3225 0.7883 -0.5240
vn -0.0495 0.6689 0.7417
vn -0.1504 0.5110 0.8463
vn 0.0674 0.5793 0.8123
vn 0.1814 0.7203 0.6695
vn -0.5898 -0.2219 -0.7764
vn -0.5847 -0.0882 -0.8065
vn -0.3929 -0.1573 -0.9060
vn -0.3987 -0.2948 -0.8684
vn -0.9677 0.1401 -0.2095
vn -0.9821 0.1801 -0.0556
vn -0.9538 0.2672 -0.1374
vn -0.9352 0.2267 -0.2719
vn -0.5185 0.8390 -0.1648
vn -0.5972 0.7910 -0.1326
vn -0.4794 0.8757 -0.0580
vn -0.3956 0.9079 -0.1387
vn -0.3366 0.8966 -0.2877
vn -0.2532 0.9149 -0.3144
vn -0.2892 0.8880 -0.3575
vn 0.7124 0.6786 0.1787
vn 0.7320 0.6714 -0.1160
vn 0.6291 0.7756 -0.0515
vn 0.1336 0.9449 -0.2989
vn -0.7894 0.2520 -0.5597
vn -0.7461 0.3329 -0.5766
vn -0.6472 0.2718 -0.7122
vn 0.1618 0.9861 -0.0389
vn 0.1290 0.9824 -0.1352
vn 0.0911 0.9866 -0.1355
vn 0.1112 0.9931 -0.0377
vn -0.8458 0.4602 -0.2699
vn -0.8098 0.5099 -0.2901
vn -0.8138 0.4445 -0.3744
vn -0.8489 0.3890 -0.3577
vn -0.1461 0.8750 -0.4615
vn -0.2265 0.8719 -0.4341
vn -0.1166 0.3790 -0.9180
vn -0.1308 0.2614 -0.9563
vn -0.2912 0.2871 -0.9126
vn -0.2498 0.4052 -0.8795
vn 0.8137 0.4446 -0.3745
vn 0.7723 0.4971 -0.3956
vn 0.7713 0.5591 -0.3043
vn 0.8088 0.5119 -0.2894
vn 0.6285 0.6840 -0.3703
vn 0.5457 0.7305 -0.4106
vn 0.5371 0.7765 -0.3295
vn 0.6152 0.7302 -0.2974
vn 0.1863 0.9798 0.0728
vn 0.2238 0.9725 0.0648
vn 0.1923 0.9805 -0.0406
vn 0.1466 0.8662 -0.4776
vn 0.2849 0.5738 -0.7679
vn 0.3264 0.5194 -0.7897
vn 0.2174 0.4907 -0.8437
vn 0.1954 0.5478 -0.8135
vn -0.1062 0.9175 -0.3834
vn 0.9521 0.2579 -0.1644
vn 0.8953 0.3777 -0.2363
vn 0.8816 0.4263 -0.2027
vn 0.9673 0.2381 -0.0878
vn 0.7049 0.5639 -0.4302
vn 0.6723 0.5296 -0.5172
vn 0.5825 0.6012 -0.5471
vn 0.6170 0.6319 -0.4691
vn -0.1673 0.6094 -0.7750
vn -0.1933 0.6871 -0.7004
vn -0.1348 0.6720 -0.7282
vn -0.0978 0.9782 -0.1830
vn -0.1600 0.9763 -0.1459
vn -0.1158 0.9823 -0.1471
vn -0.4294 0.8566 -0.2862
vn 0.9972 0.0718 0.0198
vn 0.9907 0.0137 -0.1354
vn 0.9678 0.1372 -0.2109
vn 0.9863 0.1515 -0.0660
vn -0.1408 0.9633 -0.2285
vn -0.1528 0.9641 -0.2171
vn -0.8351 0.3204 -0.4471
vn -0.8242 0.1681 -0.5407
vn -0.8737 0.2412 -0.4224
vn 0.0177 0.9996 0.0227
vn -0.0379 0.9971 -0.0657
vn -0.1140 0.9892 -0.0922
vn -0.0768 0.9968 -0.0232
vn -0.2289 0.8480 -0.4779
vn -0.3101 0.8592 -0.4071
vn 0.1689 0.9694 -0.1783
vn 0.1920 0.9721 -0.1351
vn 0.2634 0.9527 -0.1514
vn 0.2294 0.9552 -0.1869
vn -0.2088 0.9376 -0.2782
vn -0.1628 0.9336 -0.3190
vn -0.9588 0.2818 -0.0350
vn -0.9001 0.4138 -0.1367
vn -0.9037 0.3697 -0.2161
vn -0.5824 0.6012 -0.5471
vn -0.4480 0.6290 -0.6354
vn -0.5241 0.5792 -0.6244
vn 0.3103 0.7580 -0.5738
vn 0.3227 0.7885 -0.5236
vn 0.9340 0.2280 -0.2751
vn 0.5241 0.5792 -0.6244
vn 0.4481 0.6289 -0.6354
vn -0.0805 0.9726 -0.2180
vn -0.7049 0.5639 -0.4302
vn -0.7098 0.6211 -0.3323
vn -0.6281 0.6844 -0.3702
vn -0.6169 0.6321 -0.4690
vn 0.0685 0.9684 -0.2398
vn 0.0004 0.9710 -0.2391
vn 0.8737 0.2412 -0.4224
vn 0.9027 0.1700 -0.3954
vn 0.8473 0.0903 -0.5234
vn -0.2262 0.8260 -0.5162
vn 0.9709 0.2080 -0.1191
vn 0.9626 0.2310 -0.1416
vn 0.9612 0.2758 0.0002
vn 0.9716 0.2288 0.0598
vn 0.1442 0.8500 -0.5066
vn 0.2878 -0.0981 0.9526
vn 0.2078 -0.2579 0.9435
vn 0.4946 -0.2715 0.8256
vn 0.5837 -0.0854 0.8074
vn 0.5859 0.7649 -0.2678
vn 0.6537 0.7104 -0.2610
vn 0.6886 0.6725 -0.2713
vn 0.7461 0.3329 -0.5766
vn 0.6915 0.4128 -0.5928
vn 0.7465 0.4532 -0.4872
vn 0.7954 0.3886 -0.4652
vn 0.3900 0.9206 -0.0204
vn 0.3807 0.9233 0.0516
vn 0.4102 0.9119 0.0113
vn 0.4305 0.9016 -0.0417
vn 0.1368 0.8392 -0.5263
vn -0.0578 0.9882 -0.1419
vn 0.0110 0.9833 -0.1815
vn 0.2225 0.9499 -0.2194
vn 0.2956 0.9341 -0.2002
vn 0.4128 0.8773 -0.2447
vn 0.3367 0.9031 -0.2666
vn 0.8596 0.2279 0.4573
vn 0.8680 0.3351 0.3663
vn 0.6998 0.4487 0.5559
vn 0.6869 0.3051 0.6596
vn 0.8437 0.4624 -0.2728
vn 0.8253 0.5145 -0.2327
vn 0.9478 0.1871 -0.2581
vn 0.9400 0.1623 -0.3001
vn 0.9539 0.2413 -0.1786
vn 0.9149 0.2977 -0.2725
vn -0.1469 0.8615 -0.4861
vn 0.2148 0.8051 -0.5529
vn 0.1268 0.8310 -0.5416
vn -0.1434 0.7509 -0.6447
vn -0.1013 0.7386 -0.6665
vn -0.2380 0.9591 -0.1534
vn -0.2606 0.9560 -0.1343
vn -0.2106 0.9696 -0.1245
vn -0.1936 0.9701 -0.1462
vn 0.1233 0.9786 0.1648
vn 0.1365 0.9633 0.2312
vn 0.1746 0.9568 0.2323
vn 0.1564 0.9725 0.1727
vn -0.1750 0.9667 -0.1869
vn -0.2174 0.4908 -0.8437
vn -0.3859 0.4350 -0.8136
vn -0.3264 0.5194 -0.7897
vn -0.1845 0.5750 -0.7971
vn -0.5913 0.3664 -0.7184
vn -0.6915 0.4128 -0.5928
vn -0.6130 0.5021 -0.6100
vn -0.5141 0.4689 -0.7182
vn 0.1134 0.8225 -0.5573
vn 0.8710 -0.0181 -0.4909
vn 0.9336 0.0727 -0.3508
vn -0.1426 -0.4615 0.8756
vn -0.0501 -0.4072 0.9120
vn -0.1257 -0.2672 0.9554
vn -0.2315 -0.3344 0.9136
vn 0.2429 0.7064 -0.6648
vn 0.1715 0.7654 -0.6203
vn 0.1965 0.7839 -0.5889
vn 0.2830 0.7300 -0.6222
vn -0.4345 0.5514 -0.7122
vn -0.7702 0.5595 -0.3062
vn -0.7722 0.4972 -0.3957
vn -0.3533 0.0673 -0.9331
vn -0.3781 -0.0470 -0.9246
vn 0.4431 0.7780 -0.4453
vn 0.4286 0.8237 -0.3713
vn 0.4597 0.8410 -0.2853
vn 0.5262 0.7981 -0.2936
vn 0.5653 0.7764 -0.2787
vn -0.7954 0.3886 -0.4652
vn -0.7298 0.6701 -0.1354
vn -0.8428 0.5382 0.0017
vn -0.7672 0.6247 0.1457
vn -0.6724 0.7397 -0.0283
vn -0.1370 0.8391 -0.5264
vn -0.2155 0.8047 -0.5531
vn -0.1444 0.8499 -0.5068
vn 0.1927 0.6868 -0.7008
vn 0.2418 0.6276 -0.7401
vn 0.8953 0.3084 -0.3215
vn 0.8499 0.3886 -0.3560
vn -0.9820 0.1788 0.0615
vn 0.0193 0.9906 -0.1357
vn 0.7200 0.6611 -0.2110
vn 0.7579 0.6244 -0.1890
vn 0.8063 0.5331 -0.2562
vn 0.7730 0.5693 -0.2801
vn 0.8288 0.4900 -0.2701
vn 0.7982 0.5373 -0.2724
vn 0.7908 0.5361 -0.2953
vn 0.8227 0.4931 -0.2831
vn -0.7099 0.6555 -0.2577
vn -0.6494 0.7135 -0.2633
vn -0.6884 0.6702 -0.2773
vn -0.7451 0.6126 -0.2635
vn 0.3991 -0.4635 -0.7911
vn 0.3987 -0.2948 -0.8684
vn 0.5898 -0.2219 -0.7764
vn 0.5935 -0.3933 -0.7022
vn -0.5741 0.7702 -0.2779
vn -0.6130 0.7302 -0.3017
vn 0.2625 0.9336 0.2437
vn 0.2932 0.9259 0.2384
vn 0.2755 0.9494 0.1505
vn 0.2440 0.9563 0.1613
vn 0.0945 0.9535 -0.2864
vn -0.8867 0.4017 -0.2289
vn -0.8769 0.4619 -0.1332
vn -0.7835 0.5874 -0.2028
vn -0.8344 0.4964 -0.2397
vn 0.9918 0.0521 0.1167
vn 0.9939 0.0922 0.0600
vn 0.4062 0.9058 -0.1204
vn 0.3532 0.9308 -0.0945
vn -0.3721 0.6738 -0.6384
vn -0.9600 -0.0653 -0.2722
vn -0.8889 -0.1657 -0.4270
vn -0.8812 -0.3340 -0.3347
vn -0.9663 -0.1801 -0.1841
vn 0.3399 0.8916 -0.2991
vn 0.3948 0.8620 -0.3179
vn 0.7873 0.5649 -0.2469
vn 0.7644 0.5913 -0.2570
vn 0.8115 0.5287 -0.2489
vn -0.2532 0.9456 -0.2043
vn -0.2911 0.9423 -0.1653
vn 0.4717 0.0310 0.8812
vn 0.0184 0.1160 0.9931
vn 0.1646 0.3605 0.9181
vn 0.5667 0.3043 0.7656
vn -0.1989 0.7841 -0.5879
vn -0.1271 0.8309 -0.5417
vn -0.1103 0.8211 -0.5601
vn -0.1503 0.9868 -0.0610
vn -0.2158 0.9721 -0.0923
vn -0.2396 0.9702 0.0350
vn -0.1293 0.9883 0.0814
vn 0.4670 0.8545 -0.2275
vn 0.5802 0.7623 -0.2868
vn 0.5847 -0.0882 -0.8065
vn 0.7438 0.0004 -0.6684
vn 0.7585 -0.1224 -0.6400
vn 0.1055 0.9787 -0.1763
vn 0.1540 0.9794 -0.1309
vn 0.5165 0.8375 -0.1783
vn 0.5746 0.7873 -0.2235
vn 0.4508 0.8816 -0.1396
vn -0.2829 0.7301 -0.6220
vn -0.3101 0.7580 -0.5739
vn -0.7935 0.5571 -0.2449
vn 0.4613 0.3540 0.8135
vn 0.5545 0.3215 0.7676
vn 0.4954 0.6149 0.6136
vn 0.4076 0.6787 0.6109
vn -0.2854 0.2716 0.9191
vn -0.3948 0.1573 0.9052
vn -0.0457 0.1970 0.9793
vn -0.0133 0.4000 0.9164
vn 0.7227 0.6207 -0.3041
vn 0.7377 0.6026 -0.3043
vn 0.2537 0.8634 0.4362
vn 0.3348 0.8292 0.4475
vn 0.2626 0.9115 0.3166
vn 0.2071 0.9337 0.2920
vn 0.6328 0.7240 -0.2745
vn 0.6712 0.6992 -0.2462
vn 0.2031 0.9644 0.1696
vn 0.2219 0.9448 0.2409
vn -0.1269 -0.1967 0.9722
vn -0.1175 -0.0477 0.9919
vn -0.0000 0.2515 -0.9678
vn -0.0000 0.3676 -0.9300
vn -0.1683 0.9794 -0.1119
vn 0.6572 0.1116 0.7454
vn 0.8368 0.0995 0.5383
vn -0.1657 0.0081 0.9861
vn 0.6893 0.6645 -0.2886
vn 0.7488 0.6014 -0.2785
vn 0.2045 0.9633 0.1740
vn 0.0863 0.8619 0.4996
vn 0.2795 0.8799 0.3842
vn 0.3205 0.9431 0.0886
vn -0.0383 0.9925 0.1164
vn 0.0708 0.9867 0.1464
vn 0.5059 0.8146 -0.2835
vn -0.1003 0.5296 -0.8423
vn -0.0862 0.5971 -0.7975
vn -0.5079 -0.6382 -0.5786
vn -0.6670 -0.5786 -0.4693
vn -0.6196 -0.5365 -0.5729
vn -0.4093 -0.6077 -0.6806
vn -0.3633 0.9148 -0.1762
vn -0.4423 0.8821 -0.1619
vn -0.3422 0.9279 -0.1483
vn 0.3994 -0.4312 0.8090
vn 0.4971 -0.4475 0.7434
vn 0.6393 -0.2577 0.7245
vn 0.1420 0.8302 0.5391
vn 0.2110 0.5851 0.7831
vn 0.4427 -0.0857 0.8926
vn -0.8395 0.5031 -0.2054
vn -0.6746 0.7119 -0.1952
vn -0.6075 0.7751 -0.1739
vn -0.5364 0.8243 -0.1810
vn -0.6122 0.7605 -0.2166
vn 0.9849 0.0414 0.1678
vn 0.9881 0.0637 0.1403
vn 0.5747 0.8132 -0.0916
vn 0.5923 0.8011 -0.0861
vn 0.6879 0.7131 -0.1352
vn 0.6543 0.7417 -0.1477
vn -0.1465 0.9547 0.2592
vn -0.0397 0.9660 0.2553
vn 0.1003 0.5296 -0.8423
vn 0.1077 0.4673 -0.8775
vn -0.0000 0.4574 -0.8892
vn -0.0000 0.5228 -0.8524
vn -0.1077 0.4673 -0.8775
vn 0.4701 0.8820 -0.0315
vn 0.4738 0.8800 -0.0327
vn 0.1000 0.7383 -0.6670
vn 0.0525 0.7309 -0.6804
vn 0.0305 0.8024 -0.5960
vn 0.0642 0.8069 -0.5873
vn 0.8474 0.4551 -0.2734
vn 0.8311 0.5069 -0.2287
vn 0.3890 0.7853 0.4816
vn 0.1524 0.9670 -0.2043
vn 0.2806 0.9574 -0.0679
vn -0.7629 -0.2903 -0.5777
vn -0.7690 -0.4584 -0.4456
vn 0.2512 0.9663 -0.0565
vn 0.4069 0.5590 0.7225
vn 0.4719 0.6752 0.5670
vn -0.6218 0.7321 -0.2781
vn -0.6871 0.6757 -0.2671
vn -0.6633 0.7017 -0.2602
vn -0.5954 0.7472 -0.2953
vn 0.5470 0.8267 -0.1314
vn 0.6125 0.7683 -0.1857
vn 0.1403 0.7502 -0.6462
vn 0.3728 0.6733 -0.6386
vn 0.6266 0.7257 -0.2843
vn 0.7163 0.6484 -0.2577
vn 0.5184 -0.0178 0.8549
vn 0.4777 -0.1418 0.8670
vn 0.4970 -0.0984 0.8621
vn 0.5464 0.0097 0.8374
vn 0.1686 -0.7161 -0.6773
vn -0.0000 -0.7285 -0.6850
vn -0.0000 -0.6756 -0.7372
vn 0.1937 -0.6553 -0.7301
vn -0.7532 0.6087 -0.2493
vn -0.7733 0.5870 -0.2396
vn -0.7865 0.5752 -0.2249
vn -0.7305 0.6544 -0.1954
vn -0.4620 0.8688 0.1781
vn -0.3058 0.9228 0.2344
vn -0.3655 0.9308 -0.0082
vn 0.9489 0.1522 -0.2764
vn 0.9983 0.0025 0.0589
vn 0.9800 0.0332 0.1961
vn -0.0000 -0.5271 -0.8498
vn 0.2014 -0.5097 -0.8365
vn -0.2432 0.7066 -0.6645
vn -0.1752 0.7661 -0.6184
vn 0.4862 0.8737 0.0183
vn 0.0544 -0.3267 0.9436
vn -0.0089 -0.1876 0.9822
vn 0.4345 0.5513 -0.7122
vn 0.5141 0.4689 -0.7182
vn 0.3859 0.4350 -0.8136
vn 0.5018 0.2155 -0.8377
vn 0.4519 0.3221 -0.8319
vn 0.5913 0.3664 -0.7184
vn 0.6472 0.2718 -0.7122
vn 0.8671 0.4375 -0.2383
vn 0.3067 0.9266 0.2177
vn 0.3066 0.9426 0.1325
vn 0.7939 0.5847 -0.1670
vn 0.3057 0.9482 0.0866
vn 0.3671 0.9300 0.0197
vn -0.3946 0.8818 -0.2583
vn -0.4562 0.8662 -0.2037
vn 0.3121 0.6498 -0.6931
vn -0.9818 0.1618 0.0998
vn -0.9511 0.2559 -0.1728
vn 0.8613 0.4234 -0.2810
vn -0.9911 -0.1068 -0.0791
vn -0.9907 0.0148 -0.1351
vn -0.5156 0.8054 -0.2924
vn -0.0695 0.6626 -0.7458
vn -0.0856 0.9750 -0.2050
vn 0.0003 0.9605 -0.2782
vn 0.0508 0.9589 -0.2792
vn 0.9139 0.3467 -0.2112
vn 0.9079 0.4020 -0.1189
vn -0.3492 -0.3788 0.8571
vn -0.4576 0.0860 0.8850
vn -0.5738 -0.0052 0.8190
vn -0.7465 0.4532 -0.4872
vn 0.4686 0.8802 -0.0751
vn -0.5018 0.2155 -0.8377
vn -0.3255 0.1742 -0.9294
vn -0.5454 0.7310 -0.4102
vn -0.2916 0.9500 -0.1119
vn -0.7239 0.6487 -0.2350
vn 0.3723 0.6032 -0.7054
vn 0.7472 0.6138 -0.2548
vn -0.5401 0.7627 0.3557
vn -0.3974 0.8243 0.4033
vn 0.2846 0.9577 0.0417
vn 0.2534 0.9658 0.0547
vn -0.6723 0.5296 -0.5172
vn 0.3840 0.3896 0.8371
vn 0.3691 0.1522 0.9168
vn 0.2608 0.9245 -0.2781
vn -0.6686 0.7233 -0.1727
vn 0.0403 0.9982 -0.0444
vn -0.0855 0.8118 -0.5777
vn -0.9844 0.0888 0.1520
vn -0.9803 0.0106 0.1972
vn 0.5384 0.4932 0.6833
vn 0.3931 0.7026 0.5932
vn 0.4202 0.7410 0.5239
vn 0.5361 0.5453 0.6444
vn -0.0000 0.5929 -0.8053
vn -0.0000 0.6594 -0.7518
vn 0.9795 0.0078 0.2011
vn 0.9732 0.0036 0.2298
vn -0.9374 0.3013 0.1745
vn -0.8532 0.3961 0.3392
vn 0.5168 0.8061 0.2882
vn -0.9951 -0.0338 0.0926
vn -0.9837 -0.1697 -0.0596
vn 0.9951 -0.0339 0.0926
vn 0.9379 -0.1239 -0.3240
vn 0.9803 -0.1905 -0.0527
vn 0.8469 -0.1521 -0.5095
vn 0.9845 -0.1604 0.0716
vn 0.0931 0.8147 -0.5724
vn -0.9660 0.2568 0.0287
vn 0.3282 0.8758 0.3540
vn 0.3011 0.8909 0.3400
vn -0.6627 -0.0674 0.7458
vn -0.7621 0.2754 0.5860
vn -0.8646 0.2097 0.4566
vn -0.7526 -0.1071 0.6497
vn 0.9623 -0.1460 0.2294
vn 0.9512 -0.2055 0.2302
vn 0.9441 0.1829 0.2743
vn 0.9417 0.2628 0.2101
vn -0.9336 0.0727 -0.3508
vn -0.8710 -0.0181 -0.4909
vn -0.9027 0.1700 -0.3954
vn -0.8473 0.0903 -0.5234
vn -0.9293 -0.3172 -0.1893
vn 0.8153 -0.1904 0.5469
vn -0.7438 0.0004 -0.6684
vn 0.9293 -0.3172 -0.1893
vn 0.8812 -0.3340 -0.3347
vn 0.9663 -0.1801 -0.1841
vn -0.7934 -0.5125 -0.3285
vn -0.8974 0.3114 -0.3126
vn -0.9320 0.1414 -0.3337
vn -0.9980 -0.0367 -0.0523
vn -0.9962 0.0172 0.0852
vn -0.9691 0.2001 -0.1440
vn -0.4758 0.6826 0.5546
vn -0.3418 0.7633 0.5482
vn -0.2333 0.8877 0.3970
vn -0.0527 0.7309 -0.6804
vn -0.0000 0.8005 -0.5994
vn -0.0306 0.8024 -0.5960
vn -0.0000 0.7282 -0.6854
vn 0.8824 -0.0776 -0.4641
vn 0.9462 -0.0439 -0.3205
vn 0.9227 -0.0178 0.3852
vn 0.1165 -0.1204 0.9859
vn -0.0246 0.3256 0.9452
vn -0.1937 0.2669 0.9441
vn 0.5967 0.2913 0.7478
vn -0.5935 -0.3933 -0.7022
vn 0.3487 0.9202 -0.1778
vn 0.7725 -0.0393 0.6338
vn 0.9376 0.0791 0.3387
vn 0.2855 0.7156 0.6374
vn 0.1327 0.8830 0.4501
vn 0.1183 0.7263 0.6771
vn -0.5795 0.8097 0.0930
vn 0.5079 -0.6382 -0.5786
vn 0.3286 -0.6900 -0.6449
vn 0.4093 -0.6077 -0.6806
vn -0.8549 -0.1775 0.4875
vn -0.9554 0.1290 0.2656
vn 0.7100 0.6209 -0.3321
vn -0.1947 0.5477 -0.8137
vn 0.1336 0.9489 0.2859
vn -0.3991 -0.4635 -0.7911
vn -0.2014 -0.5097 -0.8365
vn -0.1937 -0.6553 -0.7301
vn -0.1686 -0.7161 -0.6773
vn 0.0292 0.9510 0.3077
vn -0.0234 0.8771 0.4798
vn -0.0000 -0.1991 -0.9800
vn -0.0000 -0.0852 -0.9964
vn 0.1759 -0.0784 -0.9813
vn 0.1903 -0.1919 -0.9628
vn 0.7255 0.5448 0.4206
vn -0.4519 0.3221 -0.8319
vn -0.7585 -0.1224 -0.6400
vn -0.8962 0.3056 -0.3216
vn -0.3286 -0.6900 -0.6449
vn -0.0599 0.8054 -0.5896
vn 0.3929 -0.1573 -0.9060
vn 0.3781 -0.0470 -0.9246
vn 0.6196 -0.5365 -0.5729
vn 0.6670 -0.5786 -0.4693
vn 0.2013 -0.3342 -0.9208
vn 0.2527 -0.0684 0.9651
vn 0.1597 0.3640 0.9176
vn -0.2013 -0.3342 -0.9208
vn -0.0000 -0.3453 -0.9385
vn 0.7690 -0.4584 -0.4456
vn 0.7934 -0.5125 -0.3285
vn 0.2291 0.9403 0.2515
vn -0.1453 0.1492 -0.9781
vn 0.7629 -0.2903 -0.5777
vn 0.8889 -0.1657 -0.4270
vn 0.2946 0.9414 0.1640
vn 0.2899 0.8985 0.3296
vn 0.1349 0.9880 0.0751
vn -0.1903 -0.1919 -0.9628
vn -0.1759 -0.0784 -0.9813
vn -0.1598 0.0400 -0.9863
vn -0.0000 0.0332 -0.9994
vn -0.5512 0.7940 -0.2565
vn 0.9486 0.0769 -0.3069
vn 0.9203 0.0314 -0.3900
vn 0.9368 0.1129 -0.3310
vn 0.9911 -0.1071 -0.0792
vn 0.9600 -0.0653 -0.2722
vn 0.2957 -0.1927 0.9356
vn 0.4013 -0.1661 0.9008
vn 0.3784 -0.0403 0.9248
vn 0.0819 0.9948 0.0598
vn 0.1691 -0.2502 0.9533
vn 0.9858 0.1466 -0.0824
vn 0.2255 0.8264 -0.5159
vn 0.5695 0.0125 -0.8219
vn 0.3533 0.0673 -0.9331
vn 0.5393 0.1163 -0.8340
vn 0.9786 0.1682 0.1188
vn 0.2247 0.9733 -0.0464
vn 0.6130 0.5021 -0.6100
vn 0.9998 -0.0211 -0.0052
vn -0.6636 0.6997 0.2647
vn 0.2498 0.4052 -0.8795
vn 0.1166 0.3790 -0.9180
vn 0.3333 0.3701 0.8671
vn 0.2912 0.2871 -0.9126
vn 0.1308 0.2614 -0.9563
vn 0.3598 -0.4911 0.7934
vn 0.4758 -0.4799 0.7371
vn -0.1871 0.8353 0.5170
vn -0.0981 0.9327 0.3471
vn -0.7346 0.5033 0.4551
vn -0.6458 0.3795 0.6625
vn -0.5997 0.6008 0.5286
vn -0.9888 -0.1360 -0.0609
vn -0.9887 -0.1020 0.1101
vn -0.9574 -0.0524 -0.2841
vn 0.9820 0.0182 0.1879
vn 0.4501 -0.1632 0.8779
vn 0.4631 -0.0317 0.8857
vn -0.0000 0.1415 -0.9899
vn 0.1453 0.1492 -0.9781
vn 0.1598 0.0400 -0.9863
vn 0.3255 0.1742 -0.9294
vn 0.8351 0.3204 -0.4471
vn -0.8624 -0.0714 -0.5012
vn -0.8899 0.0979 -0.4456
vn -0.9733 0.0037 0.2297
vn -0.3388 0.1831 0.9229
vn -0.4759 -0.4518 0.7546
vn -0.4195 -0.4154 0.8072
vn 0.9837 -0.1698 -0.0596
vn 0.5031 -0.4723 0.7237
vn 0.5201 -0.4531 0.7240
vn -0.2589 -0.4887 0.8331
vn -0.0756 0.7039 0.7062
vn -0.2599 0.6523 0.7120
vn -0.5334 0.4855 0.6926
vn -0.3751 -0.4921 0.7856
vn -0.5043 -0.4665 0.7266
vn -0.4682 -0.4817 0.7408
vn -0.4140 0.5771 0.7039
vn -0.4224 0.0455 0.9053
vn 0.0719 0.9667 0.2458
vn 0.1301 -0.3778 0.9167
vn 0.2241 -0.3745 0.8997
vn 0.3417 0.9345 0.0994
vn 0.3287 0.9442 0.0224
vn -0.4940 -0.4772 0.7268
vn -0.5057 0.0025 0.8627
vn 0.7070 -0.3007 -0.6401
vn 0.7372 -0.3348 -0.5868
vn 0.5607 -0.7101 -0.4259
vn 0.7527 -0.3650 -0.5479
vn -0.1171 -0.9754 -0.1869
vn -0.1256 -0.9768 -0.1733
vn -0.0877 -0.9691 -0.2305
vn -0.0321 -0.9550 -0.2949
vn -0.5567 -0.8190 -0.1387
vn 0.0828 -0.9146 -0.3959
vn -0.2562 -0.9010 -0.3500
vn -0.7235 -0.6108 -0.3216
vn 0.2329 -0.8432 -0.4845
vn -0.7024 -0.5695 -0.4270
vn -0.7898 -0.5263 -0.3152
vn 0.3865 -0.7585 -0.5246
vn -0.8247 -0.4913 -0.2801
vn 0.5330 -0.6697 -0.5171
vn -0.8378 -0.4785 -0.2629
vn 0.6616 -0.5902 -0.4626
vn -0.8412 -0.4758 -0.2568
vn 0.7713 -0.5172 -0.3709
vn -0.2435 -0.4005 -0.8833
vn 0.8402 -0.4661 -0.2771
vn 0.6063 0.0245 -0.7949
vn 0.8694 -0.4431 -0.2185
vn -0.2336 -0.6467 -0.7261
vn 0.2785 -0.3849 -0.8799
vn -0.8076 -0.4573 0.3724
vn -0.5938 0.0139 -0.8045
vn -0.8838 -0.4627 -0.0689
vn -0.6848 -0.3112 -0.6590
vn -0.6807 -0.3068 -0.6652
vn -0.6688 -0.2893 -0.6849
vn -0.6687 -0.2890 -0.6851
vn -0.6684 -0.2883 -0.6857
vn -0.6733 -0.2964 -0.6774
vn 0.2943 -0.6247 -0.7233
vn 0.8256 -0.4304 0.3648
vn 0.8984 -0.4362 -0.0508
vt 0.000000 0.000000
s 1
f 36/1/1 37/1/2 30/1/3 29/1/4
f 1/1/5 5/1/6 2/1/7
f 420/1/8 539/1/9 527/1/10 528/1/11
f 1/1/5 6/1/12 5/1/6
f 6/1/12 8/1/13 5/1/6
f 571/1/14 578/1/15 562/1/16 563/1/17
f 404/1/18 405/1/19 356/1/20 399/1/21
f 36/1/1 29/1/4 33/1/22 41/1/23
f 3/1/24 32/1/25 22/1/26 15/1/27
f 39/1/28 45/1/29 40/1/30 32/1/25
f 8/1/13 13/1/31 5/1/6
f 67/1/32 74/1/33 66/1/34 59/1/35
f 42/1/36 43/1/37 37/1/2 36/1/1
f 60/1/38 80/1/39 53/1/40 54/1/41
f 441/1/42 447/1/43 430/1/44 436/1/45
f 40/1/30 46/1/46 22/1/26 32/1/25
f 200/1/47 215/1/48 194/1/49 193/1/50
f 13/1/31 21/1/51 5/1/6
f 305/1/52 331/1/53 306/1/54 298/1/55
f 70/1/56 71/1/57 42/1/36 62/1/58
f 129/1/59 249/1/60 135/1/61 130/1/62
f 33/1/22 29/1/4 20/1/63 26/1/64
f 17/1/65 27/1/66 19/1/67 12/1/68
f 573/1/69 574/1/70 551/1/71 566/1/72
f 425/1/73 439/1/74 434/1/75 428/1/76
f 21/1/51 30/1/3 5/1/6
f 437/1/77 438/1/78 72/1/79 432/1/80
f 14/1/81 38/1/82 25/1/83 16/1/84
f 429/1/85 423/1/86 422/1/87 428/1/76
f 689/1/88 693/1/89 694/1/90 690/1/91
f 384/1/92 415/1/93 392/1/94 385/1/95
f 555/1/96 572/1/97 564/1/98 557/1/99
f 460/1/100 561/1/101 465/1/102 461/1/103
f 72/1/79 73/1/104 64/1/105 65/1/106
f 30/1/3 37/1/2 5/1/6
f 2/1/7 5/1/6 39/1/28
f 192/1/107 193/1/50 186/1/108 185/1/109
f 20/1/63 21/1/51 13/1/31 18/1/110
f 537/1/111 520/1/112 519/1/113 527/1/10
f 143/1/114 137/1/115 118/1/116 142/1/117
f 531/1/118 524/1/119 523/1/120 530/1/121
f 81/1/122 88/1/123 66/1/34 74/1/33
f 37/1/2 43/1/37 5/1/6
f 470/1/124 503/1/125 476/1/126 469/1/127
f 413/1/128 433/1/129 233/1/130 426/1/131
f 39/1/28 5/1/6 45/1/29
f 123/1/132 124/1/133 75/1/134 120/1/135
f 143/1/114 162/1/136 157/1/137 150/1/138
f 43/1/37 47/1/139 5/1/6
f 314/1/140 323/1/141 322/1/142 321/1/143
f 45/1/29 5/1/6 51/1/144
f 241/1/145 252/1/146 230/1/147 236/1/148
f 29/1/4 30/1/3 21/1/51 20/1/63
f 239/1/149 445/1/150 248/1/151 240/1/152
f 382/1/153 436/1/45 390/1/154 367/1/155
f 50/1/156 55/1/157 56/1/158
f 72/1/79 438/1/78 79/1/159 73/1/104
f 251/1/160 273/1/161 260/1/162 242/1/163
f 23/1/164 54/1/41 53/1/40 48/1/165
f 529/1/166 537/1/111 536/1/167 535/1/168
f 107/1/169 108/1/170 63/1/171 106/1/172
f 418/1/173 423/1/86 95/1/174 88/1/123
f 110/1/175 131/1/176 125/1/177 117/1/178
f 59/1/35 64/1/105 58/1/179 52/1/180
f 564/1/98 565/1/181 559/1/182 558/1/183
f 495/1/184 439/1/74 435/1/185 489/1/186
f 135/1/61 85/1/187 76/1/188 130/1/62
f 260/1/162 259/1/189 241/1/145 242/1/163
f 67/1/32 51/1/144 5/1/6
f 248/1/151 324/1/190 256/1/191 249/1/60
f 46/1/46 54/1/41 23/1/164 22/1/26
f 23/1/164 24/1/192 15/1/27 22/1/26
f 67/1/32 5/1/6 74/1/33
f 512/1/193 513/1/194 448/1/195 506/1/196
f 14/1/81 16/1/84 10/1/197 9/1/198
f 356/1/20 357/1/199 265/1/200 351/1/201
f 416/1/202 422/1/87 423/1/86 418/1/173
f 228/1/203 229/1/204 208/1/205 227/1/206
f 47/1/139 78/1/207 5/1/6
f 712/1/208 715/1/209 319/1/210 713/1/211
f 115/1/212 122/1/213 121/1/214 120/1/135
f 74/1/33 5/1/6 81/1/122
f 411/1/215 451/1/216 419/1/217 412/1/218
f 172/1/219 681/1/220 165/1/221 164/1/222
f 78/1/207 83/1/223 5/1/6
f 50/1/156 56/1/158 57/1/224 44/1/225
f 97/1/226 103/1/227 96/1/228 34/1/229
f 702/1/230 697/1/231 696/1/232 701/1/233
f 230/1/147 252/1/146 231/1/234 222/1/235
f 41/1/23 62/1/58 42/1/36 36/1/1
f 232/1/236 238/1/237 225/1/238 224/1/239
f 81/1/122 5/1/6 89/1/240
f 83/1/223 84/1/241 91/1/242
f 83/1/223 91/1/242 5/1/6
f 367/1/155 390/1/154 368/1/243 359/1/244
f 94/1/245 207/1/246 99/1/247 93/1/248
f 156/1/249 177/1/250 176/1/251 170/1/252
f 49/1/253 94/1/245 93/1/248
f 452/1/254 469/1/127 464/1/255 457/1/256
f 441/1/42 436/1/45 382/1/153 440/1/257
f 482/1/258 515/1/259 488/1/260 483/1/261
f 91/1/242 98/1/262 5/1/6
f 287/1/263 351/1/201 265/1/200 281/1/264
f 52/1/180 58/1/179 46/1/46 40/1/30
f 627/1/265 629/1/266 621/1/267 623/1/268
f 264/1/269 272/1/270 92/1/271 141/1/272
f 458/1/273 447/1/43 441/1/42 457/1/256
f 523/1/120 524/1/119 518/1/274 517/1/275
f 420/1/8 528/1/11 427/1/276 421/1/277
f 75/1/134 124/1/133 69/1/278 68/1/279
f 90/1/280 101/1/281 109/1/282
f 520/1/112 537/1/111 529/1/166 522/1/283
f 580/1/284 586/1/285 581/1/286 568/1/287
f 512/1/193 517/1/275 518/1/274 513/1/194
f 409/1/288 408/1/289 416/1/202 410/1/290
f 286/1/291 307/1/292 305/1/52 298/1/55
f 258/1/293 366/1/294 231/1/234 252/1/146
f 579/1/295 572/1/97 562/1/16 578/1/15
f 57/1/224 113/1/296 44/1/225
f 151/1/297 168/1/298 169/1/299 163/1/300
f 210/1/301 211/1/302 158/1/303 203/1/304
f 532/1/305 533/1/306 459/1/307 526/1/308
f 97/1/226 117/1/178 103/1/227
f 327/1/309 349/1/310 343/1/311 335/1/312
f 459/1/307 533/1/306 443/1/313 453/1/314
f 113/1/296 118/1/116 44/1/225
f 205/1/315 663/1/316 196/1/317 197/1/318
f 11/1/319 18/1/110 13/1/31 8/1/13
f 42/1/36 71/1/57 47/1/139 43/1/37
f 591/1/320 592/1/321 575/1/322 585/1/323
f 419/1/217 445/1/150 239/1/149 433/1/129
f 225/1/238 244/1/324 243/1/325 236/1/148
f 133/1/326 174/1/327 172/1/219 164/1/222
f 430/1/44 447/1/43 435/1/185 431/1/328
f 394/1/329 401/1/330 378/1/331 386/1/332
f 35/1/333 61/1/334 41/1/23 33/1/22
f 223/1/335 219/1/336 216/1/337 222/1/235
f 87/1/338 214/1/339 94/1/245 49/1/253
f 667/1/340 677/1/341 673/1/342 668/1/343
f 402/1/344 408/1/289 403/1/345 374/1/346
f 105/1/347 199/1/348 198/1/349 190/1/350
f 53/1/40 87/1/338 49/1/253 48/1/165
f 102/1/351 119/1/352 101/1/281 96/1/228
f 343/1/311 391/1/353 350/1/354 344/1/355
f 116/1/356 137/1/115 132/1/357
f 102/1/351 139/1/358 138/1/359
f 102/1/351 140/1/360 139/1/358
f 424/1/361 431/1/328 425/1/73 417/1/362
f 525/1/363 526/1/308 518/1/274 524/1/119
f 648/1/364 654/1/365 651/1/366 647/1/367
f 698/1/368 704/1/369 705/1/370 699/1/371
f 146/1/372 163/1/300 158/1/303 152/1/373
f 642/1/374 646/1/375 212/1/376 499/1/377
f 127/1/378 145/1/379 146/1/372
f 171/1/380 204/1/381 205/1/315 197/1/318
f 714/1/382 715/1/209 712/1/208 711/1/383
f 502/1/384 503/1/125 470/1/124 497/1/385
f 99/1/247 199/1/348 105/1/347 100/1/386
f 707/1/387 708/1/388 702/1/230 701/1/233
f 676/1/389 704/1/369 698/1/368 677/1/341
f 134/1/390 152/1/373 153/1/391
f 684/1/392 686/1/393 687/1/394 685/1/395
f 111/1/396 155/1/397 107/1/169 106/1/172
f 58/1/179 60/1/38 54/1/41 46/1/46
f 89/1/240 418/1/173 88/1/123 81/1/122
f 35/1/333 90/1/280 82/1/398 61/1/334
f 389/1/399 440/1/257 382/1/153 381/1/400
f 355/1/401 364/1/402 362/1/403 354/1/404
f 220/1/405 455/1/406 213/1/407 214/1/339
f 319/1/210 718/1/408 311/1/409 313/1/410
f 672/1/411 674/1/412 689/1/88 686/1/393
f 676/1/389 677/1/341 667/1/340 670/1/413
f 531/1/118 552/1/414 525/1/363 524/1/119
f 548/1/415 554/1/416 454/1/417 549/1/418
f 244/1/324 253/1/419 250/1/420 243/1/325
f 159/1/421 178/1/422 167/1/423 160/1/424
f 111/1/396 190/1/350 189/1/425 182/1/426
f 329/1/427 490/1/428 477/1/429 478/1/430
f 477/1/429 497/1/385 470/1/124 471/1/431
f 173/1/432 178/1/422 159/1/421 166/1/433
f 26/1/64 20/1/63 18/1/110 19/1/67
f 291/1/434 297/1/435 292/1/436 285/1/437
f 236/1/148 243/1/325 242/1/163 241/1/145
f 201/1/438 203/1/304 169/1/299 195/1/439
f 651/1/366 652/1/440 646/1/375 647/1/367
f 110/1/175 117/1/178 97/1/226 104/1/441
f 12/1/68 19/1/67 18/1/110 11/1/319
f 174/1/327 125/1/177 179/1/442
f 378/1/331 401/1/330 377/1/443 372/1/444
f 125/1/177 180/1/445 179/1/442
f 694/1/90 695/1/446 691/1/447 690/1/91
f 538/1/448 542/1/449 543/1/450 541/1/451
f 139/1/358 154/1/452 144/1/453 138/1/359
f 105/1/347 190/1/350 111/1/396 106/1/172
f 264/1/269 286/1/291 278/1/454 272/1/270
f 94/1/245 214/1/339 213/1/407 207/1/246
f 135/1/61 257/1/455 141/1/272 85/1/187
f 114/1/456 134/1/390 128/1/457 122/1/213
f 655/1/458 656/1/459 662/1/460 661/1/461
f 105/1/347 106/1/172 63/1/171 100/1/386
f 326/1/462 334/1/463 333/1/464 325/1/465
f 551/1/71 574/1/70 545/1/466 546/1/467
f 553/1/468 585/1/323 575/1/322 567/1/469
f 472/1/470 473/1/471 198/1/349 466/1/472
f 228/1/203 237/1/473 232/1/236 229/1/204
f 185/1/109 186/1/108 167/1/423 178/1/422
f 268/1/474 251/1/160 250/1/420 266/1/475
f 342/1/476 348/1/477 325/1/465 333/1/464
f 64/1/105 73/1/104 60/1/38 58/1/179
f 396/1/478 424/1/361 402/1/344 397/1/479
f 673/1/342 693/1/89 689/1/88 674/1/412
f 425/1/73 428/1/76 422/1/87 417/1/362
f 173/1/432 191/1/480 185/1/109 178/1/422
f 420/1/8 421/1/277 392/1/94 415/1/93
f 632/1/481 633/1/482 621/1/267 629/1/266
f 320/1/483 339/1/484 330/1/485 323/1/141
f 463/1/486 505/1/487 346/1/488 456/1/489
f 236/1/148 230/1/147 218/1/490 225/1/238
f 669/1/491 671/1/492 196/1/317 663/1/316
f 186/1/108 193/1/50 194/1/49 175/1/493
f 682/1/494 683/1/495 165/1/221 681/1/220
f 86/1/496 449/1/497 220/1/405 87/1/338
f 263/1/498 307/1/292 286/1/291 264/1/269
f 278/1/454 286/1/291 298/1/55 291/1/434
f 565/1/181 579/1/295 588/1/499 589/1/500
f 210/1/301 217/1/501 218/1/490
f 387/1/502 563/1/17 562/1/16 556/1/503
f 214/1/339 87/1/338 220/1/405
f 538/1/448 444/1/504 443/1/313 533/1/306
f 358/1/505 381/1/400 382/1/153 367/1/155
f 575/1/322 592/1/321 586/1/285 580/1/284
f 23/1/164 48/1/165 31/1/506 24/1/192
f 4/1/507 7/1/508 6/1/12 1/1/5
f 208/1/205 229/1/204 209/1/509 202/1/510
f 146/1/372 152/1/373 134/1/390 127/1/378
f 618/1/511 623/1/268 615/1/512 614/1/513
f 525/1/363 546/1/467 532/1/305 526/1/308
f 523/1/120 517/1/275 516/1/514 522/1/283
f 329/1/427 331/1/53 305/1/52 321/1/143
f 165/1/221 166/1/433 147/1/515 164/1/222
f 427/1/276 528/1/11 509/1/516 508/1/517
f 7/1/508 10/1/197 12/1/68 11/1/319
f 448/1/195 453/1/314 437/1/77 442/1/518
f 49/1/253 50/1/156 31/1/506 48/1/165
f 213/1/407 461/1/103 206/1/519 207/1/246
f 573/1/69 585/1/323 553/1/468 574/1/70
f 548/1/415 549/1/418 543/1/450 547/1/520
f 256/1/191 324/1/190 320/1/483 315/1/521
f 426/1/131 233/1/130 226/1/522 223/1/335
f 25/1/83 116/1/356 110/1/175 104/1/441
f 3/1/24 4/1/507 1/1/5 2/1/7
f 545/1/466 547/1/520 543/1/450 542/1/449
f 472/1/470 484/1/523 479/1/524 473/1/471
f 88/1/123 95/1/174 65/1/106 66/1/34
f 196/1/317 671/1/492 187/1/525 188/1/526
f 434/1/75 506/1/196 448/1/195 442/1/518
f 512/1/193 506/1/196 495/1/184 511/1/527
f 454/1/417 554/1/416 460/1/100 455/1/406
f 411/1/215 456/1/489 346/1/488 451/1/216
f 25/1/83 104/1/441 17/1/65 16/1/84
f 700/1/528 706/1/529 707/1/387 701/1/233
f 28/1/530 35/1/333 33/1/22 26/1/64
f 435/1/185 439/1/74 425/1/73 431/1/328
f 560/1/531 580/1/284 568/1/287 561/1/101
f 112/1/532 113/1/296 57/1/224 108/1/170
f 95/1/174 432/1/80 72/1/79 65/1/106
f 516/1/514 511/1/527 488/1/260 515/1/259
f 368/1/243 397/1/479 374/1/346 369/1/533
f 584/1/534 578/1/15 571/1/14 577/1/535
f 565/1/181 589/1/500 566/1/72 559/1/182
f 115/1/212 120/1/135 75/1/134 82/1/398
f 664/1/536 665/1/537 657/1/538 658/1/539
f 437/1/77 453/1/314 443/1/313 438/1/78
f 337/1/540 338/1/541 306/1/54 331/1/53
f 261/1/542 267/1/543 266/1/475
f 416/1/202 418/1/173 89/1/240 410/1/290
f 79/1/159 80/1/39 60/1/38 73/1/104
f 594/1/544 600/1/545 581/1/286 586/1/285
f 691/1/447 688/1/546 687/1/394 690/1/91
f 147/1/515 166/1/433 159/1/421 154/1/452
f 395/1/547 563/1/17 387/1/502 388/1/548
f 266/1/475 267/1/543 275/1/549
f 266/1/475 275/1/549 268/1/474
f 270/1/550 277/1/551 271/1/552
f 270/1/550 276/1/553 277/1/551
f 396/1/478 397/1/479 368/1/243 390/1/154
f 488/1/260 489/1/186 458/1/273 483/1/261
f 98/1/262 279/1/554 5/1/6
f 593/1/555 594/1/544 586/1/285 592/1/321
f 660/1/556 663/1/316 205/1/315 653/1/557
f 612/1/558 607/1/559 606/1/560 609/1/561
f 276/1/553 283/1/562 277/1/551
f 277/1/551 283/1/562 284/1/563
f 279/1/554 285/1/437 5/1/6
f 702/1/230 703/1/564 221/1/565 697/1/231
f 394/1/329 550/1/566 406/1/567 401/1/330
f 406/1/567 550/1/566 540/1/568 544/1/569
f 380/1/570 388/1/548 387/1/502 386/1/332
f 284/1/563 283/1/562 290/1/571
f 285/1/437 278/1/454 291/1/434
f 285/1/437 292/1/436 5/1/6
f 414/1/572 544/1/569 536/1/167 539/1/9
f 288/1/573 294/1/574 293/1/575
f 373/1/576 380/1/570 378/1/331 372/1/444
f 590/1/577 591/1/320 585/1/323 573/1/69
f 596/1/578 602/1/579 598/1/580 597/1/581
f 485/1/582 620/1/583 480/1/584 479/1/524
f 85/1/187 141/1/272 92/1/271 84/1/241
f 352/1/585 358/1/505 367/1/155 359/1/244
f 292/1/436 299/1/586 5/1/6
f 352/1/585 353/1/587 299/1/586 345/1/588
f 270/1/550 271/1/552 262/1/589 269/1/590
f 584/1/534 588/1/499 579/1/295 578/1/15
f 712/1/208 713/1/211 707/1/387 706/1/529
f 283/1/562 304/1/591 290/1/571
f 634/1/592 635/1/593 628/1/594 633/1/482
f 659/1/595 668/1/343 664/1/536 658/1/539
f 377/1/443 379/1/596 362/1/403 372/1/444
f 133/1/326 140/1/360 102/1/351 126/1/597
f 708/1/388 310/1/598 304/1/591 296/1/599
f 641/1/600 642/1/374 492/1/601 636/1/602
f 364/1/402 373/1/576 372/1/444 362/1/403
f 133/1/326 164/1/222 147/1/515 140/1/360
f 465/1/102 569/1/603 472/1/470 466/1/472
f 309/1/604 316/1/605 317/1/606
f 605/1/607 609/1/561 606/1/560 599/1/608
f 560/1/531 561/1/101 460/1/100 554/1/416
f 144/1/453 160/1/424 151/1/297 145/1/379
f 233/1/130 234/1/609 121/1/214 226/1/522
f 458/1/273 489/1/186 435/1/185 447/1/43
f 452/1/254 457/1/256 441/1/42 446/1/610
f 181/1/611 499/1/377 176/1/251 177/1/250
f 559/1/182 552/1/414 531/1/118 558/1/183
f 361/1/612 363/1/613 341/1/614 354/1/404
f 171/1/380 197/1/318 157/1/137 162/1/136
f 389/1/399 471/1/431 452/1/254 446/1/610
f 429/1/85 442/1/518 437/1/77 432/1/80
f 464/1/255 483/1/261 458/1/273 457/1/256
f 346/1/488 505/1/487 330/1/485 339/1/484
f 488/1/260 511/1/527 495/1/184 489/1/186
f 340/1/615 341/1/614 333/1/464 334/1/463
f 184/1/616 491/1/617 492/1/601 181/1/611
f 337/1/540 381/1/400 358/1/505 338/1/541
f 337/1/540 478/1/430 389/1/399 381/1/400
f 413/1/128 426/1/131 231/1/234 366/1/294
f 579/1/295 565/1/181 564/1/98 572/1/97
f 375/1/618 487/1/619 475/1/620 474/1/621
f 341/1/614 363/1/613 342/1/476 333/1/464
f 691/1/447 692/1/622 192/1/107 688/1/546
f 384/1/92 385/1/95 361/1/612 379/1/596
f 19/1/67 27/1/66 28/1/530 26/1/64
f 482/1/258 483/1/261 464/1/255 481/1/623
f 316/1/605 326/1/462 325/1/465 317/1/606
f 325/1/465 348/1/477 327/1/309 317/1/606
f 194/1/49 202/1/510 195/1/439 175/1/493
f 414/1/572 415/1/93 384/1/92 407/1/624
f 540/1/568 557/1/99 534/1/625 535/1/168
f 338/1/541 345/1/588 297/1/435 306/1/54
f 299/1/586 353/1/587 5/1/6
f 347/1/626 355/1/401 354/1/404
f 544/1/569 540/1/568 535/1/168 536/1/167
f 359/1/244 360/1/627 353/1/587 352/1/585
f 31/1/506 50/1/156 44/1/225 38/1/82
f 278/1/454 285/1/437 279/1/554 272/1/270
f 353/1/587 360/1/627 5/1/6
f 383/1/628 474/1/621 475/1/620 467/1/629
f 327/1/309 335/1/312 308/1/630 317/1/606
f 309/1/604 317/1/606 308/1/630 301/1/631
f 525/1/363 552/1/414 551/1/71 546/1/467
f 86/1/496 87/1/338 53/1/40 80/1/39
f 118/1/116 137/1/115 116/1/356 44/1/225
f 34/1/229 90/1/280 35/1/333 28/1/530
f 402/1/344 424/1/361 417/1/362 408/1/289
f 360/1/627 369/1/533 5/1/6
f 348/1/477 376/1/632 349/1/310 327/1/309
f 634/1/592 640/1/633 637/1/634 635/1/593
f 370/1/635 371/1/636 342/1/476 363/1/613
f 301/1/631 308/1/630 300/1/637 295/1/638
f 672/1/411 686/1/393 684/1/392 675/1/639
f 369/1/533 374/1/346 5/1/6
f 375/1/618 474/1/621 376/1/632 371/1/636
f 361/1/612 385/1/95 370/1/635 363/1/613
f 507/1/640 508/1/517 476/1/126 503/1/125
f 303/1/641 302/1/642 294/1/574 300/1/637
f 675/1/639 678/1/643 669/1/491 666/1/644
f 314/1/140 321/1/143 305/1/52 307/1/292
f 171/1/380 162/1/136 148/1/645 170/1/252
f 392/1/94 393/1/646 370/1/635 385/1/95
f 343/1/311 344/1/355 303/1/641 335/1/312
f 400/1/647 521/1/648 493/1/649 487/1/619
f 380/1/570 386/1/332 378/1/331
f 127/1/378 134/1/390 114/1/456 119/1/352
f 450/1/650 549/1/418 454/1/417 449/1/497
f 452/1/254 471/1/431 470/1/124 469/1/127
f 246/1/651 254/1/652 245/1/653 237/1/473
f 192/1/107 692/1/622 200/1/47 193/1/50
f 383/1/628 391/1/353 343/1/311 349/1/310
f 274/1/654 293/1/575 280/1/655 273/1/161
f 294/1/574 302/1/642 280/1/655 293/1/575
f 639/1/656 645/1/657 643/1/658 640/1/633
f 175/1/493 195/1/439 169/1/299 168/1/298
f 476/1/126 508/1/517 509/1/516 481/1/623
f 231/1/234 426/1/131 223/1/335 222/1/235
f 376/1/632 474/1/621 383/1/628 349/1/310
f 362/1/403 379/1/596 361/1/612 354/1/404
f 397/1/479 402/1/344 374/1/346
f 103/1/227 126/1/597 102/1/351 96/1/228
f 92/1/271 98/1/262 91/1/242 84/1/241
f 374/1/346 403/1/345 5/1/6
f 52/1/180 40/1/30 45/1/29 51/1/144
f 539/1/9 536/1/167 537/1/111 527/1/10
f 216/1/337 219/1/336 153/1/391 211/1/302
f 303/1/641 344/1/355 287/1/263 302/1/642
f 403/1/345 409/1/288 5/1/6
f 403/1/345 408/1/289 409/1/288
f 5/1/6 410/1/290 89/1/240
f 5/1/6 409/1/288 410/1/290
f 156/1/249 170/1/252 148/1/645 149/1/659
f 632/1/481 638/1/660 634/1/592 633/1/482
f 228/1/203 247/1/661 246/1/651 237/1/473
f 191/1/480 688/1/546 192/1/107 185/1/109
f 128/1/457 226/1/522 121/1/214 122/1/213
f 350/1/354 351/1/201 287/1/263 344/1/355
f 77/1/662 84/1/241 83/1/223 78/1/207
f 71/1/57 77/1/662 78/1/207 47/1/139
f 77/1/662 76/1/188 85/1/187 84/1/241
f 639/1/656 640/1/633 634/1/592 638/1/660
f 112/1/532 149/1/659 148/1/645 142/1/117
f 520/1/112 522/1/283 516/1/514 515/1/259
f 398/1/663 399/1/21 350/1/354 391/1/353
f 383/1/628 467/1/629 398/1/663 391/1/353
f 237/1/473 245/1/653 238/1/237 232/1/236
f 2/1/7 39/1/28 32/1/25 3/1/24
f 509/1/516 528/1/11 527/1/10 519/1/113
f 132/1/357 131/1/176 110/1/175 116/1/356
f 148/1/645 162/1/136 143/1/114 142/1/117
f 564/1/98 558/1/183 534/1/625 557/1/99
f 398/1/663 467/1/629 468/1/664 462/1/665
f 651/1/366 654/1/365 659/1/595 658/1/539
f 69/1/278 130/1/62 76/1/188 70/1/56
f 235/1/666 247/1/661 228/1/203 227/1/206
f 263/1/498 264/1/269 141/1/272 257/1/455
f 516/1/514 517/1/275 512/1/193 511/1/527
f 129/1/59 130/1/62 69/1/278 124/1/133
f 51/1/144 67/1/32 59/1/35 52/1/180
f 256/1/191 315/1/521 263/1/498 257/1/455
f 194/1/49 215/1/48 208/1/205 202/1/510
f 104/1/441 97/1/226 27/1/66 17/1/65
f 687/1/394 688/1/546 191/1/480 685/1/395
f 651/1/366 658/1/539 657/1/538 652/1/440
f 263/1/498 315/1/521 314/1/140 307/1/292
f 176/1/251 204/1/381 171/1/380 170/1/252
f 136/1/667 188/1/526 187/1/525 180/1/445
f 445/1/150 332/1/668 324/1/190 248/1/151
f 440/1/257 446/1/610 441/1/42
f 440/1/257 389/1/399 446/1/610
f 518/1/274 526/1/308 459/1/307 513/1/194
f 495/1/184 506/1/196 434/1/75 439/1/74
f 86/1/496 450/1/650 449/1/497
f 212/1/376 653/1/557 205/1/315 204/1/381
f 520/1/112 515/1/259 482/1/258 519/1/113
f 239/1/149 240/1/152 123/1/132 234/1/609
f 218/1/490 230/1/147 222/1/235 216/1/337
f 700/1/528 695/1/446 694/1/90 699/1/371
f 460/1/100 461/1/103 213/1/407 455/1/406
f 320/1/483 323/1/141 314/1/140 315/1/521
f 562/1/16 572/1/97 555/1/96 556/1/503
f 255/1/669 276/1/553 270/1/550 269/1/590
f 27/1/66 97/1/226 34/1/229 28/1/530
f 707/1/387 713/1/211 310/1/598 708/1/388
f 568/1/287 581/1/286 576/1/670 569/1/603
f 509/1/516 519/1/113 482/1/258 481/1/623
f 59/1/35 66/1/34 65/1/106 64/1/105
f 157/1/137 188/1/526 136/1/667 150/1/138
f 330/1/485 498/1/671 322/1/142 323/1/141
f 256/1/191 257/1/455 135/1/61 249/1/60
f 646/1/375 652/1/440 653/1/557 212/1/376
f 529/1/166 535/1/168 534/1/625 530/1/121
f 123/1/132 240/1/152 129/1/59 124/1/133
f 322/1/142 498/1/671 496/1/672 490/1/428
f 712/1/208 706/1/529 705/1/370 711/1/383
f 641/1/600 644/1/673 648/1/364 647/1/367
f 427/1/276 521/1/648 400/1/647 421/1/277
f 400/1/647 487/1/619 375/1/618 393/1/646
f 392/1/94 421/1/277 400/1/647 393/1/646
f 243/1/325 250/1/420 251/1/160 242/1/163
f 504/1/674 510/1/675 496/1/672 498/1/671
f 109/1/282 115/1/212 82/1/398 90/1/280
f 496/1/672 497/1/385 477/1/429 490/1/428
f 389/1/399 478/1/430 477/1/429 471/1/431
f 718/1/408 336/1/676 328/1/677 311/1/409
f 486/1/678 491/1/617 184/1/616 183/1/679
f 99/1/247 207/1/246 206/1/519 199/1/348
f 664/1/536 674/1/412 672/1/411 665/1/537
f 582/1/680 607/1/559 587/1/681 583/1/682
f 608/1/683 604/1/684 602/1/579 603/1/685
f 296/1/599 304/1/591 283/1/562 289/1/686
f 332/1/668 339/1/484 320/1/483 324/1/190
f 332/1/668 451/1/216 346/1/488 339/1/484
f 643/1/658 645/1/657 650/1/687 649/1/688
f 493/1/649 514/1/689 500/1/690 494/1/691
f 493/1/649 494/1/691 475/1/620 487/1/619
f 69/1/278 70/1/56 62/1/58 68/1/279
f 248/1/151 249/1/60 129/1/59 240/1/152
f 223/1/335 226/1/522 128/1/457 219/1/336
f 478/1/430 337/1/540 331/1/53 329/1/427
f 55/1/157 100/1/386 63/1/171 56/1/158
f 637/1/634 644/1/673 641/1/600 636/1/602
f 493/1/649 521/1/648 507/1/640 514/1/689
f 507/1/640 521/1/648 427/1/276 508/1/517
f 44/1/225 116/1/356 25/1/83 38/1/82
f 496/1/672 510/1/675 502/1/384 497/1/385
f 7/1/508 11/1/319 8/1/13 6/1/12
f 206/1/519 466/1/472 198/1/349 199/1/348
f 476/1/126 481/1/623 464/1/255 469/1/127
f 529/1/166 530/1/121 523/1/120 522/1/283
f 500/1/690 510/1/675 504/1/674 501/1/692
f 500/1/690 514/1/689 502/1/384 510/1/675
f 241/1/145 259/1/189 258/1/293 252/1/146
f 468/1/664 501/1/692 463/1/486 462/1/665
f 143/1/114 150/1/138 132/1/357 137/1/115
f 504/1/674 505/1/487 463/1/486 501/1/692
f 209/1/509 229/1/204 232/1/236 224/1/239
f 322/1/142 490/1/428 329/1/427 321/1/143
f 17/1/65 12/1/68 10/1/197 16/1/84
f 568/1/287 569/1/603 465/1/102 561/1/101
f 419/1/217 451/1/216 332/1/668 445/1/150
f 61/1/334 82/1/398 75/1/134 68/1/279
f 107/1/169 149/1/659 112/1/532 108/1/170
f 448/1/195 513/1/194 459/1/307 453/1/314
f 255/1/669 269/1/590 246/1/651 247/1/661
f 157/1/137 197/1/318 196/1/317 188/1/526
f 233/1/130 433/1/129 239/1/149 234/1/609
f 419/1/217 433/1/129 413/1/128 412/1/218
f 434/1/75 442/1/518 429/1/85 428/1/76
f 404/1/18 456/1/489 411/1/215 405/1/19
f 404/1/18 462/1/665 463/1/486 456/1/489
f 398/1/663 462/1/665 404/1/18 399/1/21
f 413/1/128 366/1/294 365/1/693 412/1/218
f 411/1/215 412/1/218 365/1/693 405/1/19
f 338/1/541 358/1/505 352/1/585 345/1/588
f 534/1/625 558/1/183 531/1/118 530/1/121
f 298/1/55 306/1/54 297/1/435 291/1/434
f 70/1/56 76/1/188 77/1/662 71/1/57
f 365/1/693 366/1/294 258/1/293 357/1/199
f 200/1/47 697/1/231 221/1/565 215/1/48
f 356/1/20 405/1/19 365/1/693 357/1/199
f 9/1/198 10/1/197 7/1/508 4/1/507
f 532/1/305 546/1/467 545/1/466 542/1/449
f 601/1/694 603/1/685 596/1/578 595/1/695
f 350/1/354 399/1/21 356/1/20 351/1/201
f 265/1/200 357/1/199 258/1/293 259/1/189
f 414/1/572 539/1/9 420/1/8 415/1/93
f 538/1/448 541/1/451 444/1/504
f 655/1/458 654/1/365 648/1/364 649/1/688
f 705/1/370 706/1/529 700/1/528 699/1/371
f 443/1/313 444/1/504 79/1/159 438/1/78
f 280/1/655 302/1/642 287/1/263 281/1/264
f 430/1/44 431/1/328 424/1/361 396/1/478
f 246/1/651 269/1/590 262/1/589 254/1/652
f 492/1/601 642/1/374 499/1/377 181/1/611
f 297/1/435 345/1/588 299/1/586 292/1/436
f 221/1/565 703/1/564 235/1/666 227/1/206
f 390/1/154 436/1/45 430/1/44 396/1/478
f 575/1/322 580/1/284 560/1/531 567/1/469
f 260/1/162 281/1/264 265/1/200 259/1/189
f 280/1/655 281/1/264 260/1/162 273/1/161
f 475/1/620 494/1/691 468/1/664 467/1/629
f 31/1/506 38/1/82 14/1/81 24/1/192
f 641/1/600 647/1/367 646/1/375 642/1/374
f 667/1/340 668/1/343 659/1/595 661/1/461
f 99/1/247 100/1/386 55/1/157 93/1/248
f 347/1/626 354/1/404 341/1/614 340/1/615
f 112/1/532 142/1/117 118/1/116 113/1/296
f 121/1/214 234/1/609 123/1/132 120/1/135
f 559/1/182 566/1/72 551/1/71 552/1/414
f 176/1/251 499/1/377 212/1/376 204/1/381
f 502/1/384 514/1/689 507/1/640 503/1/125
f 500/1/690 501/1/692 468/1/664 494/1/691
f 395/1/547 570/1/696 571/1/14
f 395/1/547 571/1/14 563/1/17
f 330/1/485 505/1/487 504/1/674 498/1/671
f 132/1/357 150/1/138 136/1/667 131/1/176
f 153/1/391 219/1/336 128/1/457 134/1/390
f 125/1/177 126/1/597 103/1/227 117/1/178
f 125/1/177 174/1/327 133/1/326 126/1/597
f 698/1/368 693/1/89 673/1/342 677/1/341
f 682/1/494 684/1/392 685/1/395 683/1/495
f 570/1/696 577/1/535 571/1/14
f 555/1/96 557/1/99 540/1/568 550/1/566
f 63/1/171 108/1/170 57/1/224 56/1/158
f 615/1/512 623/1/268 621/1/267 622/1/697
f 189/1/425 480/1/584 183/1/679 182/1/426
f 198/1/349 473/1/471 189/1/425 190/1/350
f 107/1/169 155/1/397 156/1/249 149/1/659
f 308/1/630 335/1/312 303/1/641 300/1/637
f 225/1/238 218/1/490 217/1/501 224/1/239
f 610/1/698 617/1/699 612/1/558 609/1/561
f 454/1/417 455/1/406 220/1/405 449/1/497
f 151/1/297 163/1/300 146/1/372 145/1/379
f 702/1/230 708/1/388 296/1/599 703/1/564
f 669/1/491 663/1/316 660/1/556 666/1/644
f 406/1/567 407/1/624 377/1/443 401/1/330
f 101/1/281 119/1/352 114/1/456 109/1/282
f 655/1/458 661/1/461 659/1/595 654/1/365
f 275/1/549 282/1/700 274/1/654 268/1/474
f 136/1/667 180/1/445 125/1/177 131/1/176
f 202/1/510 209/1/509 201/1/438 195/1/439
f 593/1/555 597/1/581 598/1/580
f 311/1/409 328/1/677 318/1/701 312/1/702
f 627/1/265 623/1/268 618/1/511 626/1/703
f 167/1/423 186/1/108 175/1/493 168/1/298
f 576/1/670 484/1/523 472/1/470 569/1/603
f 596/1/578 603/1/685 602/1/579
f 598/1/580 602/1/579 604/1/684
f 631/1/704 491/1/617 486/1/678 630/1/705
f 631/1/704 635/1/593 637/1/634 636/1/602
f 598/1/580 599/1/608 594/1/544 593/1/555
f 582/1/680 583/1/682 484/1/523 576/1/670
f 601/1/694 608/1/683 603/1/685
f 587/1/681 614/1/513 615/1/512 613/1/706
f 484/1/523 583/1/682 485/1/582 479/1/524
f 625/1/707 626/1/703 618/1/511 617/1/699
f 605/1/607 611/1/708 610/1/698 609/1/561
f 598/1/580 604/1/684 605/1/607 599/1/608
f 617/1/699 610/1/698 624/1/709 625/1/707
f 620/1/583 486/1/678 183/1/679 480/1/584
f 631/1/704 636/1/602 492/1/601 491/1/617
f 619/1/710 620/1/583 485/1/582 613/1/706
f 619/1/710 630/1/705 486/1/678 620/1/583
f 255/1/669 289/1/686 283/1/562 276/1/553
f 587/1/681 613/1/706 485/1/582 583/1/682
f 628/1/594 635/1/593 631/1/704 630/1/705
f 709/1/711 711/1/383 705/1/370 704/1/369
f 169/1/299 203/1/304 158/1/303 163/1/300
f 210/1/301 218/1/490 216/1/337 211/1/302
f 615/1/512 622/1/697 619/1/710 613/1/706
f 630/1/705 619/1/710 622/1/697 628/1/594
f 612/1/558 614/1/513 587/1/681 607/1/559
f 612/1/558 617/1/699 618/1/511 614/1/513
f 417/1/362 422/1/87 416/1/202 408/1/289
f 696/1/232 697/1/231 200/1/47 692/1/622
f 49/1/253 93/1/248 55/1/157 50/1/156
f 479/1/524 480/1/584 189/1/425 473/1/471
f 370/1/635 393/1/646 375/1/618 371/1/636
f 161/1/712 177/1/250 156/1/249 155/1/397
f 161/1/712 184/1/616 181/1/611 177/1/250
f 599/1/608 606/1/560 600/1/545 594/1/544
f 394/1/329 556/1/503 555/1/96 550/1/566
f 589/1/500 590/1/577 573/1/69 566/1/72
f 595/1/695 596/1/578 590/1/577 589/1/500
f 657/1/538 665/1/537 666/1/644 660/1/556
f 444/1/504 541/1/451 450/1/650 86/1/496
f 673/1/342 674/1/412 664/1/536 668/1/343
f 295/1/638 300/1/637 294/1/574 288/1/573
f 465/1/102 466/1/472 206/1/519 461/1/103
f 201/1/438 209/1/509 224/1/239 217/1/501
f 657/1/538 660/1/556 653/1/557 652/1/440
f 235/1/666 289/1/686 255/1/669 247/1/661
f 714/1/382 717/1/713 716/1/714 715/1/209
f 532/1/305 542/1/449 538/1/448 533/1/306
f 251/1/160 268/1/474 274/1/654 273/1/161
f 3/1/24 15/1/27 9/1/198 4/1/507
f 679/1/715 678/1/643 682/1/494 681/1/220
f 553/1/468 567/1/469 548/1/415 547/1/520
f 310/1/598 313/1/410 290/1/571 304/1/591
f 221/1/565 227/1/206 208/1/205 215/1/48
f 147/1/515 154/1/452 139/1/358 140/1/360
f 680/1/716 172/1/219 174/1/327 179/1/442
f 111/1/396 182/1/426 161/1/712 155/1/397
f 159/1/421 160/1/424 144/1/453 154/1/452
f 387/1/502 556/1/503 394/1/329 386/1/332
f 261/1/542 266/1/475 250/1/420 253/1/419
f 665/1/537 672/1/411 666/1/644
f 616/1/717 624/1/709 610/1/698 611/1/708
f 709/1/711 710/1/718 714/1/382 711/1/383
f 713/1/211 319/1/210 313/1/410 310/1/598
f 675/1/639 684/1/392 682/1/494 678/1/643
f 666/1/644 672/1/411 675/1/639
f 596/1/578 597/1/581 591/1/320 590/1/577
f 543/1/450 549/1/418 450/1/650 541/1/451
f 79/1/159 444/1/504 86/1/496 80/1/39
f 703/1/564 296/1/599 289/1/686 235/1/666
f 700/1/528 701/1/233 696/1/232 695/1/446
f 102/1/351 138/1/359 127/1/378 119/1/352
f 581/1/286 600/1/545 582/1/680 576/1/670
f 201/1/438 217/1/501 210/1/301 203/1/304
f 165/1/221 683/1/495 173/1/432 166/1/433
f 643/1/658 649/1/688 648/1/364 644/1/673
f 691/1/447 695/1/446 696/1/232 692/1/622
f 15/1/27 24/1/192 14/1/81 9/1/198
f 698/1/368 699/1/371 694/1/90 693/1/89
f 272/1/270 279/1/554 98/1/262 92/1/271
f 368/1/243 369/1/533 360/1/627 359/1/244
f 429/1/85 432/1/80 95/1/174 423/1/86
f 574/1/70 553/1/468 547/1/520 545/1/466
f 377/1/443 407/1/624 384/1/92 379/1/596
f 114/1/456 122/1/213 115/1/212 109/1/282
f 406/1/567 544/1/569 414/1/572 407/1/624
f 61/1/334 68/1/279 62/1/58 41/1/23
f 621/1/267 633/1/482 628/1/594 622/1/697
f 96/1/228 101/1/281 90/1/280 34/1/229
f 183/1/679 184/1/616 161/1/712 182/1/426
f 662/1/460 670/1/413 667/1/340 661/1/461
f 669/1/491 678/1/643 679/1/715 671/1/492
f 187/1/525 680/1/716 179/1/442 180/1/445
f 548/1/415 567/1/469 560/1/531 554/1/416
f 679/1/715 681/1/220 172/1/219 680/1/716
f 167/1/423 168/1/298 151/1/297 160/1/424
f 144/1/453 145/1/379 127/1/378 138/1/359
f 290/1/571 313/1/410 311/1/409 312/1/702
f 336/1/676 718/1/408 716/1/714 717/1/713
f 158/1/303 211/1/302 153/1/391 152/1/373
f 606/1/560 607/1/559 582/1/680 600/1/545
f 676/1/389 709/1/711 704/1/369
f 676/1/389 710/1/718 709/1/711
f 643/1/658 644/1/673 637/1/634 640/1/633
f 685/1/395 191/1/480 173/1/432 683/1/495
f 689/1/88 690/1/91 687/1/394 686/1/393
f 679/1/715 680/1/716 187/1/525 671/1/492
f 716/1/714 718/1/408 319/1/210 715/1/209
f 650/1/687 656/1/459 655/1/458 649/1/688
f 288/1/573 293/1/575 274/1/654 282/1/700
f 591/1/320 597/1/581 593/1/555 592/1/321
f 719/1/719 720/1/720 721/1/721
f 720/1/720 722/1/722 721/1/721
f 723/1/723 721/1/721 724/1/724
f 723/1/723 725/1/725 721/1/721
f 724/1/724 721/1/721 726/1/724
f 725/1/725 727/1/726 721/1/721
f 726/1/724 721/1/721 728/1/727
f 727/1/726 729/1/728 721/1/721
f 728/1/727 721/1/721 730/1/729
f 728/1/727 730/1/729 731/1/730
f 729/1/728 732/1/731 721/1/721
f 730/1/729 733/1/732 731/1/730
f 731/1/730 733/1/732 734/1/733
f 732/1/731 735/1/734 721/1/721
f 734/1/733 733/1/732 736/1/735
f 735/1/734 737/1/736 721/1/721
f 736/1/735 733/1/732 738/1/737
f 737/1/736 739/1/738 721/1/721
f 738/1/737 733/1/732 740/1/739
f 739/1/738 741/1/740 721/1/721
f 740/1/739 733/1/732 742/1/741
f 741/1/740 743/1/742 721/1/721
f 742/1/741 733/1/732 744/1/743
f 743/1/742 745/1/744 721/1/721
f 744/1/743 733/1/732 746/1/745
f 745/1/744 747/1/746 721/1/721
f 746/1/745 733/1/732 748/1/747
f 747/1/746 749/1/748 721/1/721
f 748/1/747 733/1/732 750/1/749
f 733/1/732 751/1/750 750/1/749
f 733/1/732 752/1/751 751/1/750
f 733/1/732 753/1/752 754/1/753
f 733/1/732 754/1/753 755/1/754
f 733/1/732 755/1/754 756/1/755
f 733/1/732 756/1/755 752/1/751
f 749/1/748 757/1/756 721/1/721
f 757/1/756 758/1/757 721/1/721
f 721/1/721 758/1/757 759/1/758
f 721/1/721 759/1/758 719/1/719
f 371/1/636 376/1/632 348/1/477 342/1/476
