# Blender 4.3.2
# www.blender.org
o hair.024
v 7.992996 0.047662 -0.011646
v 7.994545 0.036964 -0.014444
v 7.998552 0.038279 -0.013207
v 7.996419 0.049168 -0.010243
v 7.989046 0.046828 -0.012305
v 7.990028 0.036183 -0.015236
v 8.002163 0.040616 -0.011271
v 7.999316 0.051177 -0.008433
v 7.984832 0.046579 -0.012448
v 7.984832 0.035856 -0.015394
v 8.006022 0.044307 -0.008254
v 8.003638 0.056080 -0.004117
v 7.980619 0.046828 -0.012305
v 7.979636 0.036183 -0.015236
v 8.010455 0.048857 -0.003941
v 8.005281 0.058746 -0.000663
v 7.976669 0.047662 -0.011646
v 7.975119 0.036964 -0.014444
v 8.012097 0.052411 0.000512
v 8.013371 0.056327 0.005651
v 8.006236 0.061683 0.003191
v 7.971113 0.038279 -0.013207
v 7.973245 0.049168 -0.010243
v 8.006125 0.065059 0.006828
v 8.013223 0.060828 0.010499
v 7.970348 0.051177 -0.008433
v 7.967502 0.040616 -0.011271
v 8.012175 0.065507 0.014760
v 8.005339 0.068568 0.010023
v 7.963642 0.044307 -0.008254
v 7.966026 0.056080 -0.004117
v 8.004268 0.071905 0.012555
v 8.010747 0.069956 0.018136
v 7.959209 0.048857 -0.003941
v 7.964383 0.058746 -0.000663
v 8.009130 0.074290 0.021070
v 8.003055 0.075156 0.014756
v 7.957567 0.052411 0.000512
v 7.963428 0.061683 0.003191
v 7.956293 0.056327 0.005651
v 8.002507 0.072698 0.015388
v 8.008399 0.071014 0.021914
v 7.963539 0.065059 0.006828
v 7.956441 0.060828 0.010499
v 8.001960 0.070241 0.016021
v 8.007669 0.067738 0.022757
v 7.964326 0.068568 0.010023
v 7.957490 0.065507 0.014760
v 8.006940 0.064462 0.023601
v 8.001413 0.067784 0.016654
v 7.965396 0.071905 0.012555
v 7.958918 0.069956 0.018136
v 8.005970 0.061185 0.024539
v 8.000866 0.065327 0.017286
v 7.966609 0.075156 0.014756
v 7.960536 0.074290 0.021070
v 7.999928 0.068150 0.017869
v 8.004961 0.064950 0.025221
v 7.967157 0.072698 0.015388
v 7.961265 0.071014 0.021914
v 7.998991 0.070974 0.018451
v 8.003711 0.068715 0.025997
v 7.967704 0.070241 0.016021
v 7.961995 0.067738 0.022757
v 8.002461 0.072479 0.026774
v 7.998055 0.073797 0.019033
v 7.962725 0.064462 0.023601
v 7.968252 0.067784 0.016654
v 8.001212 0.076244 0.027550
v 7.997118 0.076621 0.019616
v 7.968799 0.065327 0.017286
v 7.963695 0.061185 0.024539
v 7.996358 0.074080 0.020148
v 8.000200 0.072856 0.028259
v 7.969736 0.068150 0.017869
v 7.964704 0.064950 0.025221
v 7.995600 0.071539 0.020679
v 7.999189 0.069468 0.028969
v 7.970673 0.070974 0.018451
v 7.965953 0.068715 0.025997
v 7.998177 0.066080 0.029678
v 7.994841 0.068998 0.021211
v 7.967203 0.072479 0.026774
v 7.971498 0.073459 0.018963
v 7.997128 0.062693 0.030349
v 7.994082 0.066457 0.021743
v 7.968452 0.076244 0.027550
v 7.972322 0.075943 0.019476
v 7.992990 0.069172 0.021904
v 7.995709 0.066312 0.030601
v 7.972547 0.076621 0.019616
v 7.973306 0.074080 0.020148
v 7.969464 0.072856 0.028259
v 7.991897 0.071887 0.022065
v 7.994252 0.069932 0.030816
v 7.974065 0.071539 0.020679
v 7.970476 0.069468 0.028969
v 7.992795 0.073551 0.031030
v 7.990805 0.074601 0.022226
v 7.974823 0.068998 0.021211
v 7.971488 0.066080 0.029678
v 7.991339 0.077171 0.031244
v 7.989712 0.077316 0.022386
v 7.972536 0.062693 0.030349
v 7.975583 0.066457 0.021743
v 7.988492 0.074528 0.022699
v 7.989712 0.073454 0.031662
v 7.976675 0.069172 0.021904
v 7.973956 0.066312 0.030601
v 7.987272 0.071740 0.023012
v 7.988086 0.069736 0.032079
v 7.977767 0.071887 0.022065
v 7.975412 0.069932 0.030816
v 7.986459 0.066019 0.032496
v 7.986053 0.068952 0.023325
v 7.978860 0.074601 0.022226
v 7.976869 0.073551 0.031030
v 7.984832 0.062302 0.032818
v 7.984832 0.066164 0.023638
v 7.978325 0.077171 0.031244
v 7.979952 0.077316 0.022386
v 7.983612 0.068952 0.023325
v 7.983206 0.066019 0.032496
v 7.981172 0.074528 0.022699
v 7.979952 0.073454 0.031662
v 7.982392 0.071740 0.023012
v 7.981579 0.069736 0.032079
v 8.016304 0.021088 -0.011187
v 8.016006 0.027236 -0.011564
v 8.016149 0.027114 -0.012510
v 8.016674 0.026887 -0.013289
v 8.017478 0.026600 -0.013746
v 8.018400 0.026309 -0.013791
v 8.019259 0.026073 -0.013414
v 8.019884 0.025938 -0.012690
v 8.020152 0.025931 -0.011763
v 8.020009 0.026052 -0.010817
v 8.019484 0.026280 -0.010038
v 8.018680 0.026567 -0.009581
v 8.017757 0.026857 -0.009536
v 8.016898 0.027093 -0.009913
v 8.016273 0.027228 -0.010637
v 8.023119 0.031510 -0.013945
v 8.023583 0.031508 -0.012206
v 8.023267 0.031702 -0.010443
v 8.022233 0.032054 -0.009006
v 8.020686 0.032495 -0.008178
v 8.018934 0.032935 -0.008124
v 8.017322 0.033290 -0.008853
v 8.016170 0.033488 -0.010223
v 8.015705 0.033490 -0.011962
v 8.016022 0.033295 -0.013725
v 8.026364 0.037498 -0.012571
v 8.025910 0.037713 -0.010166
v 8.024474 0.038100 -0.008210
v 8.022341 0.038582 -0.007091
v 8.019933 0.039064 -0.007031
v 8.017727 0.039451 -0.008041
v 8.016159 0.039665 -0.009921
v 8.015542 0.039664 -0.012300
v 8.015996 0.039449 -0.014705
v 8.017056 0.032943 -0.015162
v 8.028138 0.043935 -0.009817
v 8.026305 0.044288 -0.007401
v 8.023613 0.044726 -0.006037
v 8.020594 0.045163 -0.005994
v 8.017848 0.045512 -0.007281
v 8.015918 0.045704 -0.009643
v 8.015185 0.045700 -0.012611
v 8.015796 0.045501 -0.015599
v 8.018601 0.032503 -0.015989
v 8.027666 0.050627 -0.006567
v 8.024461 0.050904 -0.004998
v 8.020892 0.051183 -0.004992
v 8.017667 0.051406 -0.006550
v 8.015423 0.051531 -0.009361
v 8.014606 0.051530 -0.012870
v 8.015374 0.051405 -0.016381
v 8.017580 0.051180 -0.019201
v 8.017629 0.045148 -0.018014
v 8.020353 0.032062 -0.016044
v 8.020834 0.057029 -0.004364
v 8.017349 0.057017 -0.006117
v 8.014952 0.057019 -0.009220
v 8.014112 0.057033 -0.013058
v 8.014997 0.057058 -0.016873
v 8.017432 0.057089 -0.019910
v 8.017432 0.039061 -0.016661
v 8.021966 0.031707 -0.015315
v 8.016681 0.062191 -0.005706
v 8.014207 0.062013 -0.009050
v 8.013361 0.062062 -0.013141
v 8.014309 0.062332 -0.017174
v 8.016867 0.062773 -0.020348
v 8.020531 0.063298 -0.022033
v 8.020939 0.057123 -0.021566
v 8.013343 0.066303 -0.008904
v 8.012445 0.066402 -0.013212
v 8.013397 0.067024 -0.017127
v 8.015841 0.068049 -0.020272
v 8.019352 0.069274 -0.021878
v 8.023234 0.070451 -0.021621
v 8.024570 0.063804 -0.021891
v 8.020785 0.050902 -0.020769
v 8.019566 0.038578 -0.017779
v 8.012210 0.071091 -0.016942
v 8.014264 0.072742 -0.019478
v 8.017116 0.074684 -0.020812
v 8.020348 0.076560 -0.020378
v 8.020322 0.044709 -0.019378
v 8.024817 0.057152 -0.021510
v 8.024354 0.050625 -0.020775
v 8.023340 0.044273 -0.019421
v 8.021974 0.038096 -0.017840
v 8.011620 0.076614 -0.018128
v 8.013659 0.079052 -0.018901
v 8.016034 0.081497 -0.018486
v 8.028180 0.064188 -0.019955
v 8.028299 0.057169 -0.019756
v 8.027579 0.050404 -0.019217
v 8.026086 0.043925 -0.018134
v 8.024179 0.037710 -0.016830
v 8.009151 0.082117 -0.016519
v 8.010507 0.084214 -0.015745
v 8.011949 0.085888 -0.013799
v 8.018067 0.083022 -0.016199
v 8.026711 0.071345 -0.019560
v 8.029822 0.050282 -0.016406
v 8.028016 0.043734 -0.015772
v 8.025746 0.037497 -0.014950
v 8.004994 0.085750 -0.012919
v 8.005922 0.087157 -0.011324
v 8.023294 0.077986 -0.018263
v 8.025382 0.078683 -0.014905
v 8.029099 0.071777 -0.016111
v 8.030640 0.050282 -0.012898
v 8.028749 0.043738 -0.012804
v 8.004193 0.084034 -0.013634
v 8.006805 0.088016 -0.009169
v 8.019720 0.083902 -0.013127
v 8.030650 0.064372 -0.016612
v 8.029871 0.050405 -0.009387
v 8.007739 0.079259 -0.015982
v 8.003377 0.081235 -0.013036
v 8.013196 0.086830 -0.011091
v 8.007481 0.088173 -0.006851
v 8.014025 0.086875 -0.008118
v 8.020563 0.083780 -0.009628
v 8.030696 0.057171 -0.016655
v 8.010200 0.074541 -0.016246
v 8.007074 0.077517 -0.014903
v 8.002935 0.080054 -0.012604
v 8.007812 0.087574 -0.004790
v 8.014264 0.085998 -0.005443
v 8.026216 0.078519 -0.010952
v 8.011630 0.070124 -0.013054
v 8.007477 0.076679 -0.011712
v 8.003428 0.079420 -0.010042
v 8.010114 0.073390 -0.012488
v 8.007716 0.086288 -0.003408
v 8.029936 0.071665 -0.011952
v 8.031535 0.057156 -0.012819
v 8.008476 0.076822 -0.008202
v 8.004260 0.079627 -0.007213
v 8.013841 0.084336 -0.003597
v 8.006877 0.083402 -0.002764
v 8.031496 0.064320 -0.012524
v 8.030552 0.064042 -0.008495
v 8.030652 0.057127 -0.009005
v 8.009905 0.077841 -0.004926
v 8.005295 0.080568 -0.004520
v 8.012617 0.070003 -0.008691
v 8.020422 0.082669 -0.006379
v 8.012504 0.081505 -0.002782
v 8.006128 0.081670 -0.003306
v 8.028218 0.057090 -0.005968
v 8.011316 0.079505 -0.003089
v 8.011095 0.073303 -0.008464
v 8.015789 0.066728 -0.005333
v 8.019300 0.080775 -0.004022
v 8.017282 0.078307 -0.002982
v 8.024714 0.057055 -0.004311
v 8.015036 0.076000 -0.003313
v 8.020296 0.062566 -0.003770
v 8.025623 0.077527 -0.007177
v 8.024336 0.063067 -0.003632
v 8.012962 0.074254 -0.004865
v 8.019204 0.067600 -0.003444
v 8.023708 0.075897 -0.004324
v 8.029055 0.071029 -0.007900
v 8.027998 0.063594 -0.005319
v 8.023108 0.068770 -0.003141
v 8.014833 0.070710 -0.005046
v 8.017621 0.072092 -0.003394
v 8.020844 0.073954 -0.002973
v 8.026621 0.069995 -0.004752
v 7.953361 0.021088 -0.011187
v 7.953516 0.027114 -0.012510
v 7.953659 0.027236 -0.011564
v 7.952991 0.026887 -0.013289
v 7.952187 0.026600 -0.013746
v 7.951264 0.026309 -0.013791
v 7.950406 0.026073 -0.013414
v 7.949780 0.025938 -0.012690
v 7.949513 0.025931 -0.011763
v 7.949656 0.026052 -0.010817
v 7.950181 0.026280 -0.010038
v 7.950984 0.026567 -0.009581
v 7.951907 0.026857 -0.009536
v 7.952766 0.027093 -0.009913
v 7.953392 0.027228 -0.010637
v 7.947699 0.031707 -0.015315
v 7.946546 0.031510 -0.013945
v 7.946082 0.031508 -0.012206
v 7.946398 0.031702 -0.010443
v 7.947432 0.032054 -0.009006
v 7.948978 0.032495 -0.008178
v 7.950730 0.032935 -0.008124
v 7.952343 0.033290 -0.008853
v 7.953496 0.033488 -0.010223
v 7.953959 0.033490 -0.011962
v 7.943918 0.037497 -0.014950
v 7.943300 0.037498 -0.012571
v 7.943754 0.037713 -0.010166
v 7.945190 0.038100 -0.008210
v 7.947324 0.038582 -0.007091
v 7.949732 0.039064 -0.007031
v 7.951938 0.039451 -0.008041
v 7.953505 0.039665 -0.009921
v 7.954123 0.039664 -0.012300
v 7.953643 0.033295 -0.013725
v 7.940916 0.043738 -0.012804
v 7.941526 0.043935 -0.009817
v 7.943359 0.044288 -0.007401
v 7.946052 0.044726 -0.006037
v 7.949070 0.045163 -0.005994
v 7.951817 0.045512 -0.007281
v 7.953747 0.045704 -0.009643
v 7.954479 0.045700 -0.012611
v 7.952609 0.032943 -0.015162
v 7.939794 0.050405 -0.009387
v 7.941998 0.050627 -0.006567
v 7.945203 0.050904 -0.004998
v 7.948772 0.051183 -0.004992
v 7.951998 0.051407 -0.006550
v 7.954241 0.051531 -0.009361
v 7.955060 0.051530 -0.012870
v 7.954290 0.051405 -0.016381
v 7.953868 0.045501 -0.015599
v 7.951063 0.032503 -0.015989
v 7.944951 0.057055 -0.004311
v 7.948831 0.057029 -0.004364
v 7.952315 0.057017 -0.006117
v 7.954713 0.057019 -0.009220
v 7.955553 0.057033 -0.013058
v 7.954668 0.057058 -0.016873
v 7.953669 0.039449 -0.014705
v 7.949311 0.032062 -0.016044
v 7.949368 0.062566 -0.003770
v 7.952983 0.062191 -0.005706
v 7.955457 0.062013 -0.009050
v 7.956304 0.062062 -0.013141
v 7.955356 0.062332 -0.017174
v 7.952798 0.062773 -0.020348
v 7.952232 0.057089 -0.019910
v 7.953875 0.066728 -0.005333
v 7.956322 0.066303 -0.008904
v 7.957219 0.066402 -0.013212
v 7.956267 0.067024 -0.017127
v 7.953824 0.068049 -0.020272
v 7.950313 0.069274 -0.021878
v 7.949134 0.063298 -0.022033
v 7.952085 0.051181 -0.019201
v 7.952232 0.039061 -0.016661
v 7.957454 0.071091 -0.016942
v 7.958035 0.070124 -0.013054
v 7.955400 0.072742 -0.019478
v 7.952549 0.074684 -0.020812
v 7.952035 0.045148 -0.018014
v 7.948726 0.057123 -0.021566
v 7.948880 0.050902 -0.020769
v 7.950099 0.038578 -0.017779
v 7.959465 0.074541 -0.016246
v 7.958045 0.076614 -0.018128
v 7.956006 0.079052 -0.018901
v 7.953630 0.081497 -0.018486
v 7.949317 0.076560 -0.020378
v 7.949343 0.044709 -0.019378
v 7.947691 0.038096 -0.017840
v 7.961926 0.079259 -0.015982
v 7.960514 0.082117 -0.016519
v 7.959158 0.084214 -0.015745
v 7.946431 0.070451 -0.021621
v 7.945311 0.050625 -0.020775
v 7.946325 0.044273 -0.019421
v 7.945095 0.063804 -0.021891
v 7.945485 0.037710 -0.016830
v 7.946370 0.077986 -0.018263
v 7.942954 0.071345 -0.019560
v 7.944847 0.057152 -0.021510
v 7.942085 0.050404 -0.019217
v 7.943579 0.043925 -0.018134
v 7.941485 0.064188 -0.019955
v 7.951597 0.083022 -0.016199
v 7.944283 0.078683 -0.014905
v 7.940566 0.071777 -0.016111
v 7.941365 0.057169 -0.019756
v 7.939843 0.050282 -0.016406
v 7.941648 0.043734 -0.015772
v 7.939014 0.064372 -0.016612
v 7.957716 0.085888 -0.013799
v 7.943449 0.078519 -0.010952
v 7.939729 0.071665 -0.011952
v 7.938969 0.057171 -0.016655
v 7.939025 0.050282 -0.012898
v 7.938168 0.064320 -0.012524
v 7.964670 0.085750 -0.012919
v 7.963742 0.087157 -0.011324
v 7.944041 0.077527 -0.007177
v 7.940610 0.071029 -0.007900
v 7.938129 0.057156 -0.012819
v 7.939013 0.057127 -0.009005
v 7.939113 0.064042 -0.008495
v 7.941446 0.057090 -0.005968
v 7.965471 0.084034 -0.013634
v 7.962859 0.088016 -0.009169
v 7.941667 0.063594 -0.005319
v 7.943044 0.069995 -0.004752
v 7.945329 0.063067 -0.003632
v 7.966288 0.081235 -0.013036
v 7.962590 0.077517 -0.014903
v 7.956468 0.086830 -0.011091
v 7.962184 0.088173 -0.006851
v 7.946557 0.068770 -0.003141
v 7.945956 0.075897 -0.004324
v 7.948820 0.073954 -0.002973
v 7.966730 0.080054 -0.012604
v 7.959551 0.073390 -0.012488
v 7.949945 0.083902 -0.013127
v 7.955640 0.086875 -0.008118
v 7.961852 0.087574 -0.004790
v 7.950460 0.067600 -0.003444
v 7.962188 0.076679 -0.011712
v 7.966237 0.079420 -0.010042
v 7.957047 0.070003 -0.008691
v 7.955400 0.085998 -0.005443
v 7.961948 0.086288 -0.003408
v 7.954832 0.070710 -0.005046
v 7.961188 0.076822 -0.008202
v 7.965405 0.079627 -0.007213
v 7.958570 0.073303 -0.008464
v 7.949101 0.083780 -0.009628
v 7.955823 0.084336 -0.003597
v 7.962788 0.083402 -0.002764
v 7.952044 0.072092 -0.003394
v 7.964370 0.080568 -0.004520
v 7.959760 0.077841 -0.004926
v 7.956702 0.074254 -0.004865
v 7.949243 0.082669 -0.006379
v 7.958348 0.079505 -0.003089
v 7.963536 0.081670 -0.003306
v 7.954629 0.076000 -0.003313
v 7.950366 0.080775 -0.004022
v 7.957161 0.081505 -0.002782
v 7.952383 0.078307 -0.002982
v 7.994252 0.069932 0.030816
v 7.995709 0.066312 0.030601
v 7.997235 0.069650 0.030698
v 7.997247 0.073131 0.030796
v 7.992795 0.073551 0.031030
v 7.997200 0.066171 0.030543
v 7.997128 0.062693 0.030349
v 7.998177 0.066080 0.029678
v 7.999189 0.069468 0.028969
v 8.000200 0.072856 0.028259
v 8.001212 0.076244 0.027550
v 7.997175 0.076615 0.030680
v 7.991339 0.077171 0.031244
v 7.996983 0.079585 0.030045
v 8.001529 0.078872 0.027056
v 8.005933 0.075333 0.024641
v 8.002461 0.072479 0.026774
v 7.991120 0.080016 0.030905
v 7.984832 0.077105 0.032642
v 7.989712 0.073454 0.031662
v 7.984832 0.080254 0.031832
v 7.996823 0.082385 0.029213
v 8.001678 0.081505 0.026268
v 8.005659 0.080137 0.022855
v 8.005737 0.077774 0.023945
v 8.006133 0.071797 0.024748
v 8.003711 0.068715 0.025997
v 7.990961 0.082828 0.030151
v 7.984832 0.073409 0.032914
v 7.988086 0.069736 0.032079
v 7.990811 0.085547 0.029006
v 7.996633 0.085079 0.028032
v 8.001672 0.084053 0.025131
v 8.009130 0.074290 0.021070
v 8.009269 0.075758 0.020177
v 8.006186 0.068259 0.024679
v 8.004961 0.064950 0.025221
v 7.984832 0.069707 0.032955
v 7.986459 0.066019 0.032496
v 7.996417 0.087640 0.026523
v 7.990673 0.088145 0.027494
v 8.001513 0.086491 0.023667
v 8.005528 0.082500 0.021591
v 8.010747 0.069956 0.018136
v 8.008399 0.071014 0.021914
v 8.006198 0.064722 0.024562
v 8.005970 0.061185 0.024539
v 7.984832 0.066004 0.032934
v 7.984832 0.062302 0.032818
v 8.009221 0.077849 0.018745
v 8.010921 0.072577 0.017079
v 8.012175 0.065507 0.014760
v 8.007669 0.067738 0.022757
v 8.006940 0.064462 0.023601
v 7.983206 0.066019 0.032496
v 8.012576 0.068649 0.013607
v 8.013818 0.064295 0.009081
v 8.013223 0.060828 0.010499
v 8.012827 0.071705 0.012347
v 8.010992 0.075173 0.015918
v 7.981579 0.069736 0.032079
v 8.013371 0.056327 0.005651
v 8.014121 0.059942 0.003904
v 8.014630 0.063491 0.002144
v 8.014203 0.067669 0.007595
v 8.010862 0.077718 0.014548
v 8.012777 0.074590 0.010876
v 8.014172 0.070860 0.005972
v 7.979952 0.073454 0.031662
v 8.012960 0.056015 -0.001526
v 8.012097 0.052411 0.000512
v 8.012442 0.077341 0.009252
v 8.013782 0.073917 0.004263
v 8.014660 0.066907 0.000361
v 8.014295 0.070238 -0.001418
v 8.008906 0.080113 0.017374
v 7.978325 0.077171 0.031244
v 8.010455 0.048857 -0.003941
v 8.013090 0.076891 0.002521
v 8.013853 0.063115 -0.005431
v 8.008507 0.082369 0.015854
v 8.005267 0.084806 0.020086
v 7.978544 0.080016 0.030905
v 7.984832 0.083047 0.030860
v 8.013616 0.059593 -0.003521
v 8.008026 0.084554 0.014187
v 8.004876 0.087028 0.018350
v 8.010529 0.080187 0.013004
v 8.001207 0.088794 0.021896
v 7.984832 0.085748 0.029538
v 8.011676 0.056024 -0.008914
v 8.011152 0.052348 -0.006632
v 8.009993 0.082553 0.011322
v 8.011837 0.079991 0.007536
v 7.996178 0.090041 0.024711
v 7.984832 0.088330 0.027893
v 8.008647 0.049033 -0.010678
v 8.006022 0.044307 -0.008254
v 8.010886 0.082600 0.005655
v 8.000665 0.090904 0.019622
v 7.995844 0.092185 0.022357
v 7.990546 0.090594 0.025637
v 7.978992 0.088145 0.027494
v 7.984832 0.090764 0.025948
v 8.002163 0.040616 -0.011271
v 8.005466 0.046102 -0.014013
v 8.007254 0.086712 0.012210
v 8.004204 0.089140 0.016218
v 7.990388 0.092785 0.023295
v 7.978854 0.085547 0.029006
v 8.001374 0.043596 -0.017028
v 7.998552 0.038279 -0.013207
v 8.006174 0.050114 -0.017484
v 8.009137 0.084897 0.009392
v 8.003098 0.091116 0.013527
v 7.999795 0.092765 0.016648
v 7.978704 0.082828 0.030151
v 7.996392 0.041752 -0.019313
v 7.994545 0.036964 -0.014444
v 8.009328 0.052835 -0.013550
v 8.007846 0.087296 0.007105
v 7.995346 0.093979 0.019221
v 7.972682 0.079585 0.030045
v 7.972490 0.076619 0.030679
v 7.990700 0.040975 -0.020242
v 7.990028 0.036183 -0.015236
v 7.996594 0.046409 -0.023182
v 8.006038 0.088913 0.009789
v 7.990152 0.094608 0.020324
v 7.972417 0.073134 0.030796
v 7.976869 0.073551 0.031030
v 7.984832 0.035856 -0.015394
v 8.001816 0.047951 -0.020772
v 8.004499 0.091029 0.007094
v 8.001698 0.092952 0.010515
v 7.984832 0.094862 0.020753
v 7.984832 0.092969 0.023602
v 7.972430 0.069652 0.030698
v 7.975412 0.069932 0.030816
v 8.002118 0.051851 -0.023588
v 7.998681 0.094430 0.013311
v 7.979277 0.092785 0.023295
v 7.979118 0.090594 0.025637
v 7.973956 0.066312 0.030601
v 7.970476 0.069468 0.028969
v 7.972465 0.066172 0.030542
v 7.994669 0.095518 0.015666
v 7.979512 0.094608 0.020324
v 7.973821 0.092185 0.022357
v 7.973248 0.087640 0.026523
v 7.972536 0.062693 0.030349
v 7.969464 0.072856 0.028259
v 7.971488 0.066080 0.029678
v 7.989824 0.096144 0.016927
v 7.984832 0.096465 0.017468
v 7.979840 0.096144 0.016927
v 7.973032 0.085079 0.028032
v 7.968452 0.076244 0.027550
v 7.984832 0.097800 0.013817
v 7.989389 0.097475 0.013309
v 7.980276 0.097475 0.013309
v 7.974996 0.095518 0.015666
v 7.972842 0.082384 0.029214
v 7.968135 0.078872 0.027056
v 7.963531 0.071797 0.024749
v 7.967203 0.072479 0.026774
v 7.963731 0.075333 0.024641
v 7.993800 0.096900 0.012054
v 7.974319 0.093979 0.019221
v 7.967993 0.084053 0.025131
v 7.967987 0.081505 0.026268
v 7.963927 0.077774 0.023945
v 7.963479 0.068259 0.024679
v 7.965953 0.068715 0.025997
v 7.997403 0.095950 0.009950
v 7.969000 0.090904 0.019622
v 7.973487 0.090041 0.024711
v 7.964136 0.082500 0.021591
v 7.964006 0.080137 0.022856
v 7.968151 0.086491 0.023667
v 7.964704 0.064950 0.025221
v 8.000142 0.094645 0.007424
v 7.968457 0.088794 0.021896
v 7.960443 0.077849 0.018746
v 7.960396 0.075757 0.020177
v 7.964397 0.084806 0.020087
v 7.963467 0.064722 0.024562
v 7.963695 0.061185 0.024539
v 7.964788 0.087028 0.018350
v 7.965460 0.089140 0.016218
v 7.960536 0.074290 0.021070
v 7.961158 0.082369 0.015854
v 7.962725 0.064462 0.023601
v 7.961995 0.067738 0.022757
v 7.961638 0.084554 0.014187
v 7.962411 0.086712 0.012210
v 7.969870 0.092765 0.016648
v 7.966566 0.091116 0.013527
v 7.961265 0.071014 0.021914
v 7.960759 0.080112 0.017374
v 7.959672 0.082553 0.011322
v 7.960527 0.084897 0.009392
v 7.961819 0.087296 0.007105
v 7.963627 0.088913 0.009789
v 7.970984 0.094430 0.013311
v 7.967967 0.092952 0.010515
v 7.965165 0.091029 0.007094
v 7.958803 0.077718 0.014548
v 7.958672 0.075173 0.015918
v 7.958779 0.082600 0.005655
v 7.975865 0.096900 0.012054
v 7.972261 0.095950 0.009950
v 7.969523 0.094645 0.007424
v 7.959136 0.080187 0.013004
v 7.956838 0.071705 0.012347
v 7.958745 0.072577 0.017080
v 7.976890 0.097977 0.008347
v 7.973704 0.097175 0.006509
v 7.980795 0.098474 0.009494
v 7.971266 0.096043 0.004251
v 7.957222 0.077341 0.009252
v 7.957828 0.079991 0.007536
v 7.958918 0.069956 0.018136
v 7.978033 0.098602 0.004507
v 7.981378 0.099015 0.005510
v 7.975314 0.097958 0.002932
v 7.984832 0.098768 0.009907
v 7.984832 0.099271 0.005846
v 7.956888 0.074590 0.010876
v 7.956574 0.076891 0.002521
v 7.957490 0.065507 0.014760
v 7.979275 0.098627 0.000672
v 7.977066 0.097988 -0.000554
v 7.982009 0.099039 0.001462
v 7.988869 0.098474 0.009494
v 7.955492 0.070860 0.005972
v 7.957089 0.068649 0.013607
v 7.955847 0.064295 0.009081
v 7.956441 0.060828 0.010499
v 7.980596 0.098356 -0.003257
v 7.982679 0.098676 -0.002644
v 7.984832 0.099194 0.001758
v 7.984832 0.098790 -0.002425
v 7.955883 0.073917 0.004263
v 7.956293 0.056327 0.005651
v 7.983349 0.097890 -0.006462
v 7.981917 0.097665 -0.006894
v 7.988287 0.099015 0.005510
v 7.987655 0.099039 0.001462
v 7.992775 0.097977 0.008347
v 7.955370 0.070238 -0.001418
v 7.955462 0.067669 0.007595
v 7.991632 0.098602 0.004507
v 7.990389 0.098627 0.000672
v 7.986985 0.098676 -0.002644
v 7.995960 0.097175 0.006509
v 7.955005 0.066907 0.000361
v 7.955034 0.063491 0.002144
v 7.955544 0.059942 0.003904
v 7.994350 0.097958 0.002932
v 7.992599 0.097988 -0.000554
v 7.989069 0.098356 -0.003257
v 7.986316 0.097890 -0.006462
v 7.984832 0.097966 -0.006318
v 7.998398 0.096043 0.004251
v 7.955812 0.063115 -0.005431
v 7.956704 0.056015 -0.001526
v 7.957567 0.052411 0.000512
v 7.984832 0.096877 -0.009959
v 7.985686 0.096835 -0.010041
v 7.987747 0.097665 -0.006894
v 7.983978 0.096835 -0.010041
v 7.959209 0.048857 -0.003941
v 7.984832 0.095021 -0.014429
v 7.986506 0.096704 -0.010292
v 7.988877 0.097322 -0.007551
v 7.983159 0.096704 -0.010292
v 7.980787 0.097322 -0.007551
v 7.958513 0.052348 -0.006632
v 7.961018 0.049033 -0.010678
v 7.963642 0.044307 -0.008254
v 7.987151 0.096506 -0.010671
v 7.990734 0.097865 -0.004199
v 7.989859 0.096925 -0.008312
v 7.982513 0.096506 -0.010671
v 7.978930 0.097865 -0.004199
v 7.957989 0.056024 -0.008914
v 7.956049 0.059593 -0.003521
v 7.964198 0.046102 -0.014013
v 7.967502 0.040616 -0.011271
v 7.979806 0.096925 -0.008312
v 7.981998 0.096267 -0.011130
v 7.975368 0.097171 -0.002119
v 7.963491 0.050113 -0.017484
v 7.968290 0.043596 -0.017028
v 7.971113 0.038279 -0.013207
v 7.960337 0.052835 -0.013550
v 7.978872 0.096434 -0.009253
v 7.981475 0.095920 -0.011795
v 7.973229 0.096995 0.000992
v 7.973273 0.041752 -0.019313
v 7.975119 0.036964 -0.014444
v 7.959867 0.056508 -0.015894
v 7.957552 0.059608 -0.010988
v 7.977638 0.097249 -0.005378
v 7.981180 0.095664 -0.012286
v 7.968886 0.094506 0.001438
v 7.978964 0.040975 -0.020242
v 7.979636 0.036183 -0.015236
v 7.957459 0.063248 -0.012837
v 7.955940 0.066627 -0.007249
v 7.973683 0.096095 -0.004182
v 7.966901 0.092932 0.004297
v 7.956384 0.070170 -0.008967
v 7.956048 0.073527 -0.003166
v 7.971172 0.095635 -0.001446
v 7.965359 0.091631 0.002037
v 7.963459 0.089593 0.004605
v 7.984832 0.040771 -0.020447
v 7.957088 0.076734 -0.004863
v 7.957616 0.079799 0.000716
v 7.970016 0.094621 -0.003148
v 7.967539 0.093332 -0.000561
v 7.961895 0.087723 0.001285
v 7.960151 0.085229 0.003533
v 7.984832 0.045297 -0.024855
v 7.990845 0.045553 -0.024482
v 7.959058 0.082655 -0.001181
v 7.966317 0.091807 -0.003221
v 7.960875 0.085348 -0.003098
v 7.963961 0.089930 -0.000978
v 7.963041 0.087770 -0.004962
v 7.990936 0.049610 -0.027524
v 7.996784 0.050410 -0.026129
v 7.960388 0.082719 -0.008018
v 7.958543 0.079817 -0.006487
v 7.965474 0.089887 -0.006748
v 7.965054 0.087770 -0.010710
v 7.962595 0.085381 -0.009433
v 7.996748 0.054371 -0.028183
v 8.002066 0.055772 -0.025597
v 8.006547 0.057752 -0.022063
v 8.006577 0.053896 -0.020108
v 7.958611 0.076961 -0.011834
v 7.957242 0.073647 -0.010518
v 7.968090 0.091668 -0.008429
v 7.962622 0.082992 -0.013910
v 8.001677 0.059937 -0.027142
v 8.009797 0.056508 -0.015895
v 7.958376 0.070721 -0.015900
v 7.957694 0.067005 -0.014506
v 7.968931 0.093313 -0.005412
v 7.960426 0.080085 -0.012952
v 7.960083 0.064217 -0.019406
v 7.959795 0.060267 -0.017792
v 7.972726 0.095351 -0.005608
v 7.971786 0.094371 -0.007486
v 7.961356 0.077570 -0.017665
v 7.959629 0.074243 -0.016925
v 8.012113 0.059608 -0.010988
v 7.975605 0.095846 -0.008069
v 7.976345 0.096409 -0.006990
v 7.961966 0.071822 -0.021466
v 7.960789 0.068140 -0.020658
v 8.012205 0.063249 -0.012838
v 8.013724 0.066627 -0.007249
v 8.009870 0.060267 -0.017793
v 7.964243 0.065925 -0.024760
v 7.963500 0.061847 -0.023631
v 7.963111 0.057752 -0.022062
v 8.013280 0.070170 -0.008967
v 8.013618 0.073527 -0.003166
v 8.009581 0.064217 -0.019407
v 8.006140 0.061847 -0.023632
v 7.978251 0.096005 -0.010077
v 8.012577 0.076734 -0.004863
v 8.012049 0.079799 0.000716
v 8.005384 0.065924 -0.024761
v 8.011971 0.067005 -0.014506
v 7.977800 0.095478 -0.011086
v 7.974867 0.095107 -0.009486
v 7.980884 0.095408 -0.012776
v 7.963088 0.053896 -0.020108
v 8.011288 0.070721 -0.015900
v 8.012423 0.073647 -0.010518
v 7.974202 0.094119 -0.011379
v 7.970972 0.093074 -0.009974
v 7.980686 0.094996 -0.013566
v 7.967546 0.051850 -0.023588
v 7.967848 0.047950 -0.020772
v 8.008876 0.068140 -0.020658
v 8.011054 0.076961 -0.011834
v 7.970531 0.091626 -0.012749
v 7.967651 0.089854 -0.011824
v 7.977357 0.094731 -0.012519
v 7.973071 0.046409 -0.023182
v 8.007699 0.071821 -0.021466
v 7.967772 0.088040 -0.015223
v 7.965103 0.085654 -0.014677
v 7.977067 0.093972 -0.013972
v 7.973839 0.093024 -0.013478
v 8.010036 0.074243 -0.016926
v 7.965887 0.083620 -0.018492
v 7.963463 0.080704 -0.018201
v 7.980488 0.094610 -0.014305
v 7.974004 0.091894 -0.015644
v 7.970712 0.090158 -0.015562
v 7.978820 0.045553 -0.024482
v 7.965461 0.078616 -0.022118
v 7.963546 0.075301 -0.021922
v 7.980643 0.094152 -0.015184
v 7.971481 0.088755 -0.018252
v 7.968563 0.086295 -0.018495
v 7.978728 0.049609 -0.027524
v 7.972881 0.050409 -0.026128
v 7.984832 0.049370 -0.027935
v 7.966714 0.073331 -0.025618
v 7.965328 0.069728 -0.025394
v 7.977218 0.093196 -0.015459
v 7.972880 0.054370 -0.028183
v 7.967575 0.055771 -0.025596
v 7.984826 0.053365 -0.030028
v 7.990919 0.053596 -0.029607
v 7.969426 0.067993 -0.028650
v 7.977639 0.092446 -0.016899
v 7.974631 0.090823 -0.017697
v 7.980798 0.093720 -0.016012
v 7.967891 0.059936 -0.027141
v 7.978722 0.053595 -0.029607
v 7.996462 0.058565 -0.029715
v 7.975654 0.089836 -0.019588
v 7.970130 0.084687 -0.021512
v 7.972805 0.087462 -0.020731
v 7.981271 0.093354 -0.016714
v 7.978800 0.057810 -0.031127
v 8.001014 0.064095 -0.028176
v 7.995984 0.062760 -0.030679
v 7.974604 0.086343 -0.022875
v 7.978356 0.091744 -0.018244
v 7.968504 0.064095 -0.028175
v 8.000141 0.067992 -0.028650
v 8.004312 0.069727 -0.025395
v 7.967670 0.081750 -0.021999
v 7.979370 0.091122 -0.019435
v 7.977026 0.088979 -0.021231
v 8.002944 0.073330 -0.025618
v 8.006119 0.075300 -0.021923
v 8.008308 0.077570 -0.017665
v 7.970237 0.080132 -0.025033
v 7.968358 0.076804 -0.025515
v 7.972330 0.083297 -0.024119
v 7.981745 0.092987 -0.017416
v 7.978702 0.088296 -0.022540
v 8.004203 0.078615 -0.022118
v 7.971894 0.075346 -0.028250
v 7.973370 0.078854 -0.027431
v 7.975014 0.082207 -0.026164
v 7.970581 0.071716 -0.028647
v 7.982453 0.092742 -0.017885
v 7.975921 0.074301 -0.030211
v 7.974997 0.070544 -0.030845
v 7.978070 0.081437 -0.027607
v 7.976938 0.077948 -0.029130
v 7.976799 0.085463 -0.024563
v 7.979300 0.084839 -0.025758
v 7.974143 0.066726 -0.031028
v 7.973461 0.062761 -0.030678
v 7.980497 0.090636 -0.020368
v 7.980291 0.073726 -0.031288
v 7.981386 0.081011 -0.028407
v 7.980809 0.077446 -0.030071
v 7.979362 0.066034 -0.032324
v 7.981961 0.090253 -0.021102
v 7.980610 0.087805 -0.023482
v 7.984832 0.077296 -0.030352
v 7.982013 0.084492 -0.026424
v 7.984832 0.084386 -0.026626
v 7.984832 0.080883 -0.028646
v 7.973057 0.058565 -0.029714
v 7.982680 0.087523 -0.024024
v 7.983161 0.092498 -0.018355
v 7.988278 0.081011 -0.028407
v 7.979001 0.062031 -0.032045
v 7.983310 0.090052 -0.021487
v 7.984832 0.089958 -0.021668
v 7.984832 0.087433 -0.024195
v 7.983997 0.092411 -0.018520
v 7.984796 0.061817 -0.032445
v 7.984808 0.057587 -0.031543
v 7.986984 0.087523 -0.024024
v 7.986354 0.090052 -0.021487
v 7.985668 0.092411 -0.018520
v 7.984832 0.092325 -0.018685
v 7.987652 0.084492 -0.026424
v 7.990767 0.057811 -0.031127
v 7.987703 0.090253 -0.021102
v 7.989055 0.087805 -0.023482
v 7.990365 0.084839 -0.025758
v 7.986503 0.092497 -0.018355
v 7.991595 0.081437 -0.027607
v 7.992727 0.077948 -0.029130
v 7.988855 0.077446 -0.030071
v 7.990963 0.088296 -0.022540
v 7.989168 0.090636 -0.020368
v 7.987211 0.092742 -0.017885
v 7.994651 0.082207 -0.026164
v 7.992865 0.085463 -0.024563
v 7.989374 0.073726 -0.031288
v 7.984832 0.073556 -0.031606
v 7.990294 0.091122 -0.019435
v 7.987920 0.092987 -0.017416
v 7.995061 0.086343 -0.022875
v 7.984826 0.069717 -0.032395
v 7.979814 0.069904 -0.032044
v 7.990518 0.062031 -0.032046
v 7.995377 0.066725 -0.031028
v 7.990206 0.066033 -0.032324
v 7.988393 0.093354 -0.016714
v 7.984808 0.065832 -0.032702
v 7.994632 0.070543 -0.030845
v 7.999060 0.071715 -0.028648
v 7.989826 0.069903 -0.032044
v 7.991309 0.091744 -0.018244
v 7.988866 0.093720 -0.016012
v 7.992026 0.092446 -0.016899
v 7.997771 0.075346 -0.028250
v 7.993744 0.074300 -0.030211
v 8.001307 0.076804 -0.025516
v 7.994010 0.089836 -0.019588
v 7.992638 0.088979 -0.021231
v 7.989021 0.094152 -0.015184
v 7.999427 0.080132 -0.025034
v 7.996294 0.078854 -0.027431
v 7.992447 0.093196 -0.015459
v 7.989177 0.094610 -0.014305
v 7.992598 0.093972 -0.013972
v 8.001994 0.081750 -0.021999
v 7.999534 0.084687 -0.021512
v 7.997335 0.083297 -0.024119
v 7.995661 0.091894 -0.015644
v 7.995033 0.090823 -0.017697
v 7.988978 0.094996 -0.013566
v 8.003778 0.083620 -0.018492
v 8.006202 0.080704 -0.018201
v 7.998184 0.088755 -0.018252
v 7.996860 0.087462 -0.020731
v 7.992307 0.094731 -0.012519
v 7.988780 0.095408 -0.012776
v 7.991865 0.095478 -0.011086
v 8.007043 0.082992 -0.013910
v 8.009239 0.080085 -0.012952
v 7.995462 0.094119 -0.011379
v 7.995826 0.093024 -0.013478
v 7.988485 0.095664 -0.012286
v 8.001101 0.086295 -0.018495
v 8.009277 0.082719 -0.008018
v 8.011122 0.079817 -0.006487
v 7.999133 0.091626 -0.012749
v 7.998952 0.090158 -0.015562
v 7.987666 0.096267 -0.011130
v 7.988190 0.095920 -0.011795
v 8.001892 0.088040 -0.015223
v 8.004562 0.085654 -0.014677
v 8.010607 0.082655 -0.001181
v 7.990792 0.096434 -0.009253
v 8.002013 0.089854 -0.011824
v 8.004611 0.087770 -0.010710
v 8.007070 0.085381 -0.009433
v 7.992026 0.097249 -0.005378
v 7.991414 0.096005 -0.010077
v 8.001575 0.091668 -0.008429
v 8.006624 0.087770 -0.004962
v 8.004191 0.089887 -0.006748
v 8.008790 0.085348 -0.003098
v 8.009514 0.085229 0.003533
v 7.994297 0.097171 -0.002119
v 7.994059 0.095846 -0.008069
v 7.998693 0.093074 -0.009974
v 8.003347 0.091807 -0.003221
v 8.007770 0.087723 0.001285
v 8.006206 0.089593 0.004605
v 7.993320 0.096409 -0.006990
v 7.997878 0.094371 -0.007486
v 7.994798 0.095107 -0.009486
v 8.000733 0.093313 -0.005412
v 8.005703 0.089930 -0.000978
v 8.004306 0.091631 0.002037
v 8.002764 0.092932 0.004297
v 7.996435 0.096995 0.000992
v 7.995981 0.096095 -0.004182
v 7.999649 0.094621 -0.003148
v 8.000779 0.094506 0.001438
v 8.002126 0.093332 -0.000561
v 7.998493 0.095635 -0.001446
v 7.996938 0.095351 -0.005608
vn -0.1934 -0.2856 0.9386
vn -0.1519 -0.2725 0.9501
vn -0.2357 -0.2889 0.9279
vn 0.3084 -0.3157 0.8973
vn 0.3063 -0.3150 0.8983
vn 0.2357 -0.2889 0.9279
vn 0.1934 -0.2856 0.9386
vn 0.1519 -0.2725 0.9501
vn 0.0619 -0.2682 0.9614
vn 0.0655 -0.2683 0.9611
vn 0.8447 -0.4541 -0.2834
vn 0.8739 -0.3570 -0.3298
vn 0.9381 -0.2651 -0.2230
vn 0.9187 -0.3404 -0.2002
vn -0.0000 -0.2658 0.9640
vn 0.5033 -0.4529 0.7359
vn 0.4905 -0.4419 0.7511
vn 0.3812 -0.3529 0.8545
vn 0.3801 -0.3522 0.8553
vn -0.8976 0.4374 0.0549
vn -0.9296 0.3510 0.1127
vn -0.8778 0.4250 0.2211
vn -0.8435 0.5141 0.1555
vn 0.8351 -0.3625 0.4138
vn -0.5693 0.8153 0.1055
vn -0.6382 0.7684 0.0484
vn -0.6911 0.7151 0.1051
vn -0.6168 0.7716 0.1552
vn 0.6145 -0.5665 0.5490
vn 0.5900 -0.5299 0.6092
vn 0.5928 -0.5328 0.6039
vn 0.6152 -0.5688 0.5459
vn 0.0001 0.0161 0.9999
vn 0.0500 0.0496 0.9975
vn 0.2614 0.4642 0.8463
vn 0.1755 0.4890 0.8545
vn 0.5119 0.8387 -0.1858
vn 0.4074 0.8815 -0.2387
vn 0.3679 0.9053 -0.2123
vn 0.4620 0.8752 -0.1435
vn -0.3063 -0.3150 0.8983
vn -0.3812 -0.3529 0.8545
vn -0.3801 -0.3522 0.8553
vn -0.3084 -0.3157 0.8973
vn 0.9482 -0.1932 -0.2523
vn 0.9825 -0.0980 -0.1583
vn 0.9743 -0.1846 -0.1287
vn 0.2259 -0.1267 0.9659
vn 0.6229 -0.1045 0.7753
vn 0.6294 -0.1187 0.7680
vn 0.2305 -0.1155 0.9662
vn 0.6224 -0.5873 0.5174
vn 0.6224 -0.5874 0.5174
vn 0.6204 -0.5954 0.5105
vn 0.6205 -0.5949 0.5110
vn -0.4905 -0.4419 0.7511
vn -0.5900 -0.5299 0.6092
vn -0.5928 -0.5328 0.6039
vn -0.5033 -0.4529 0.7359
vn 0.6909 0.7227 -0.0205
vn 0.6183 0.7795 -0.1009
vn 0.5690 0.8215 -0.0354
vn 0.6382 0.7684 0.0484
vn 0.3457 0.6325 -0.6932
vn 0.4088 0.6653 -0.6247
vn 0.4972 0.5832 -0.6424
vn 0.4183 0.5432 -0.7280
vn 0.1378 -0.9548 -0.2634
vn 0.6599 -0.3218 -0.6789
vn -0.0604 -0.9951 -0.0783
vn -0.6599 -0.3218 -0.6789
vn -0.1378 -0.9548 -0.2634
vn -0.6145 -0.5665 0.5490
vn -0.6195 -0.5917 0.5158
vn -0.6195 -0.5928 0.5145
vn -0.6152 -0.5688 0.5459
vn -0.6204 -0.5954 0.5105
vn -0.6205 -0.5949 0.5110
vn 0.4657 -0.0303 0.8844
vn 0.6437 -0.0335 0.7646
vn 0.6420 -0.0178 0.7665
vn 0.4723 -0.0207 0.8812
vn 0.7042 0.6394 -0.3086
vn 0.6920 0.6793 -0.2445
vn 0.7653 0.6112 -0.2018
vn 0.7742 0.5725 -0.2698
vn 0.6900 -0.6210 -0.3718
vn 0.6001 -0.6099 -0.5176
vn 0.7494 -0.5440 -0.3775
vn 0.7825 -0.5562 -0.2797
vn -0.6224 -0.5873 0.5174
vn -0.6224 -0.5874 0.5174
vn 0.8970 -0.4006 -0.1869
vn 0.0604 -0.9951 -0.0783
vn -0.2832 0.9272 0.2451
vn -0.2445 0.9576 0.1526
vn -0.3906 0.9157 0.0945
vn -0.4477 0.8765 0.1769
vn -0.9131 -0.3744 0.1615
vn -0.9122 -0.3766 0.1613
vn -0.9128 -0.3752 0.1615
vn 0.7864 -0.0342 0.6167
vn 0.7864 -0.0122 0.6175
vn 0.6530 -0.3432 -0.6752
vn 0.6558 -0.3346 -0.6767
vn 0.3109 0.1643 -0.9361
vn 0.2784 0.2798 -0.9188
vn 0.4259 0.3077 -0.8508
vn 0.4723 0.1974 -0.8590
vn -0.2946 -0.9050 -0.3069
vn -0.2277 -0.9063 -0.3560
vn -0.8288 -0.3405 -0.4439
vn -0.0461 -0.9964 -0.0711
vn 0.0673 -0.9977 -0.0127
vn -0.8413 -0.3430 0.4179
vn -0.8391 -0.3499 0.4165
vn 0.9967 -0.0805 0.0089
vn 0.9868 0.0218 0.1606
vn 0.9773 -0.0522 0.2055
vn 0.9868 -0.1561 0.0439
vn -0.8351 -0.3625 0.4138
vn -0.3693 -0.0146 0.9292
vn -0.0661 -0.0102 0.9978
vn -0.1547 0.1175 0.9810
vn -0.3686 0.0835 0.9258
vn 0.6168 0.7716 0.1552
vn 0.4847 0.8436 0.2311
vn 0.5183 0.8030 0.2941
vn 0.6623 0.7211 0.2033
vn 0.8391 -0.3499 0.4165
vn 0.8413 -0.3430 0.4179
vn 0.2946 -0.9050 -0.3069
vn 0.2277 -0.9063 -0.3560
vn -0.7953 0.3748 -0.4765
vn -0.7092 0.3014 -0.6373
vn -0.7673 0.1861 -0.6137
vn -0.8586 0.2612 -0.4411
vn 0.9128 -0.3752 0.1615
vn 0.9131 -0.3744 0.1615
vn 0.1325 -0.9248 -0.3567
vn 0.0965 -0.9243 -0.3693
vn 0.9991 0.0172 -0.0375
vn 0.9122 -0.3766 0.1613
vn 0.8288 -0.3405 -0.4439
vn 0.8284 -0.3417 -0.4438
vn 0.8286 -0.3412 -0.4438
vn 0.0325 -0.9994 -0.0104
vn 0.0106 -0.9998 -0.0144
vn -0.1325 -0.9248 -0.3567
vn -0.0965 -0.9243 -0.3693
vn -0.8954 -0.4111 -0.1712
vn -0.9543 0.1046 0.2800
vn -0.9484 0.0314 0.3155
vn -0.9271 0.0957 0.3625
vn -0.9228 0.1848 0.3379
vn -0.3691 -0.0398 0.9285
vn -0.0410 -0.0384 0.9984
vn -0.8960 -0.4098 -0.1713
vn -0.8958 -0.4103 -0.1712
vn -0.6401 -0.0082 0.7682
vn -0.6566 -0.0343 0.7534
vn -0.0000 -0.9224 -0.3863
vn -0.0597 0.8163 -0.5745
vn -0.0302 0.8160 -0.5772
vn -0.0509 0.7486 -0.6611
vn -0.0967 0.7560 -0.6474
vn 0.4986 0.0093 0.8668
vn 0.6431 0.0073 0.7658
vn 0.6588 0.1227 0.7423
vn 0.5819 0.0992 0.8072
vn 0.9120 0.1240 -0.3910
vn 0.9480 0.2148 -0.2347
vn 0.9757 0.0924 -0.1989
vn 0.9417 -0.0051 -0.3365
vn -0.5819 0.0992 0.8072
vn -0.9868 0.0218 0.1606
vn -0.9773 -0.0522 0.2055
vn -0.3050 -0.9488 0.0817
vn -0.9972 -0.0441 0.0608
vn -0.9303 -0.0947 -0.3544
vn -0.6963 -0.1873 -0.6929
vn -0.3433 -0.3036 -0.8888
vn 0.0592 -0.4212 -0.9051
vn 0.4329 -0.5168 -0.7386
vn 0.7045 -0.5712 -0.4211
vn 0.8194 -0.5730 -0.0151
vn 0.7543 -0.5218 0.3983
vn 0.5230 -0.4283 0.7369
vn 0.1714 -0.3114 0.9347
vn -0.2318 -0.1942 0.9532
vn -0.6081 -0.0995 0.7876
vn -0.8819 -0.0459 0.4691
vn 0.3214 0.5095 -0.7982
vn 0.4824 0.4533 -0.7495
vn 0.3716 0.4174 -0.8293
vn -0.8811 -0.4727 -0.0140
vn -0.7691 -0.4726 -0.4303
vn -0.7045 -0.5712 -0.4211
vn -0.8194 -0.5730 -0.0151
vn -0.8059 -0.4291 0.4078
vn -0.7543 -0.5218 0.3983
vn -0.5594 -0.3508 0.7510
vn -0.5230 -0.4283 0.7369
vn -0.8983 0.3391 -0.2793
vn -0.9480 0.2148 -0.2347
vn -0.9456 0.2962 -0.1342
vn -0.8997 0.3987 -0.1779
vn -0.1714 -0.3114 0.9347
vn -0.1913 -0.2534 0.9483
vn 0.1117 0.9669 -0.2293
vn 0.2269 0.9438 -0.2403
vn 0.0811 0.8536 -0.5145
vn -0.0185 0.8682 -0.4958
vn 0.8868 -0.0338 0.4608
vn 0.6108 -0.0775 0.7880
vn 0.6081 -0.0995 0.7876
vn 0.8819 -0.0459 0.4691
vn 0.7953 0.3748 -0.4765
vn 0.8586 0.2612 -0.4411
vn 0.7667 0.1850 -0.6147
vn 0.7091 0.3008 -0.6377
vn 0.9233 -0.0773 -0.3763
vn 0.9984 -0.0337 0.0449
vn 0.9972 -0.0441 0.0608
vn 0.9303 -0.0947 -0.3544
vn -0.3685 -0.5920 -0.7167
vn -0.1590 -0.6323 -0.7583
vn -0.1457 -0.6988 -0.7004
vn -0.3625 -0.6678 -0.6501
vn -0.8394 -0.3549 0.4116
vn -0.9210 -0.3894 -0.0134
vn -0.5839 -0.2931 0.7571
vn -0.8123 -0.3900 -0.4337
vn 0.8997 0.3987 -0.1779
vn 0.8873 0.4504 -0.0994
vn 0.9304 0.3630 -0.0505
vn 0.9456 0.2962 -0.1342
vn 0.6126 -0.0749 0.7868
vn 0.2217 -0.1377 0.9653
vn 0.2260 -0.1559 0.9616
vn 0.8900 -0.0403 0.4541
vn 0.8123 -0.3900 -0.4337
vn 0.7691 -0.4726 -0.4303
vn 0.4925 -0.4288 -0.7574
vn 0.5350 -0.3566 -0.7659
vn 0.9169 -0.0771 -0.3917
vn 0.9986 -0.0411 0.0334
vn 0.0507 0.9674 -0.2480
vn 0.0314 0.9419 -0.3343
vn -0.0000 0.9433 -0.3320
vn -0.0000 0.9697 -0.2441
vn 0.2105 -0.1983 0.9573
vn 0.2165 -0.1527 0.9643
vn -0.2259 -0.1267 0.9659
vn -0.2236 -0.1442 0.9639
vn 0.9791 -0.2035 -0.0042
vn 0.9482 -0.3174 -0.0096
vn 0.8443 -0.3183 -0.4311
vn 0.8802 -0.2039 -0.4287
vn -0.5977 -0.2516 0.7612
vn -0.8607 -0.2939 0.4157
vn 0.2236 -0.1442 0.9639
vn -0.2105 -0.1983 0.9573
vn -0.2053 -0.2156 0.9547
vn -0.6020 0.2450 -0.7600
vn -0.6524 0.1308 -0.7465
vn -0.3039 0.7580 -0.5772
vn -0.5044 0.5542 -0.6622
vn -0.7074 0.6241 -0.3318
vn -0.4727 0.8359 -0.2788
vn -0.0000 0.8764 0.4816
vn -0.1385 0.8793 0.4557
vn -0.1277 0.7941 0.5942
vn -0.0000 0.7899 0.6132
vn 0.9087 -0.1039 -0.4044
vn 0.9967 -0.0780 0.0214
vn 0.6963 -0.1873 -0.6929
vn 0.3433 -0.3036 -0.8888
vn 0.3097 -0.2529 -0.9166
vn 0.6773 -0.1556 -0.7191
vn 0.1386 0.4611 0.8764
vn 0.1303 0.5622 0.8167
vn -0.0000 0.5693 0.8222
vn -0.0000 0.4699 0.8827
vn -0.7924 0.5709 0.2150
vn -0.7410 0.6545 0.1504
vn -0.7973 0.5956 0.0981
vn -0.2165 -0.1527 0.9643
vn 0.6173 -0.1006 0.7802
vn 0.8928 -0.0768 0.4438
vn 0.8966 -0.0922 0.4331
vn -0.8013 0.5959 -0.0533
vn -0.8541 0.5201 0.0013
vn -0.7474 0.6629 0.0454
vn 0.2119 -0.1787 -0.9608
vn 0.1762 -0.2554 -0.9506
vn -0.2576 -0.2028 -0.9447
vn -0.2300 -0.1558 -0.9606
vn -0.2021 -0.1017 -0.9741
vn -0.6279 -0.1302 -0.7673
vn -0.6099 -0.1139 -0.7842
vn 0.6613 -0.1406 -0.7368
vn 0.6451 -0.1487 -0.7495
vn -0.1073 -0.3503 -0.9304
vn -0.0592 -0.4212 -0.9051
vn -0.2192 -0.1056 0.9700
vn -0.2119 -0.1787 -0.9608
vn -0.6076 -0.1954 -0.7699
vn -0.6392 -0.0694 -0.7659
vn -0.2455 -0.0848 -0.9657
vn 0.8995 -0.1188 0.4205
vn 0.9929 -0.1191 -0.0076
vn 0.9956 -0.0933 0.0071
vn 0.9007 -0.1074 -0.4210
vn 0.8915 -0.1188 -0.4372
vn -0.8443 -0.3183 -0.4311
vn -0.5693 -0.2964 -0.7669
vn -0.5350 -0.3566 -0.7659
vn -0.8686 -0.1854 -0.4596
vn -0.8787 -0.1552 -0.4514
vn -0.9844 -0.1750 -0.0201
vn -0.9767 -0.2133 -0.0255
vn 0.6338 -0.1607 0.7566
vn 0.2368 -0.1235 0.9637
vn -0.1540 0.0152 -0.9880
vn -0.1644 -0.1297 -0.9778
vn -0.3618 -0.1000 -0.9269
vn -0.3383 0.0437 -0.9400
vn 0.9844 -0.1750 -0.0201
vn 0.8973 -0.1745 0.4056
vn 0.8059 -0.4291 0.4078
vn 0.8394 -0.3549 0.4116
vn 0.5839 -0.2931 0.7571
vn 0.5594 -0.3508 0.7510
vn 0.6099 -0.1139 -0.7842
vn 0.5949 -0.1104 -0.7962
vn 0.8787 -0.1552 -0.4514
vn -0.0974 0.4685 -0.8781
vn -0.1116 0.3768 -0.9195
vn -0.2417 0.3919 -0.8877
vn -0.2095 0.4841 -0.8496
vn 0.6279 -0.1302 -0.7673
vn 0.2300 -0.1558 -0.9606
vn 0.2021 -0.1017 -0.9741
vn 0.8973 -0.2072 0.3897
vn 0.6386 -0.1873 0.7464
vn 0.9767 -0.2133 -0.0255
vn 0.8686 -0.1854 -0.4596
vn 0.3654 0.7971 0.4808
vn 0.2502 0.8456 0.4716
vn 0.1815 -0.0459 -0.9823
vn 0.1845 0.0537 -0.9814
vn 0.5853 -0.0869 -0.8061
vn -0.1844 0.7815 -0.5960
vn -0.2601 0.7194 -0.6440
vn -0.3070 0.7425 -0.5954
vn -0.2180 0.7972 -0.5630
vn -0.2665 0.0249 -0.9635
vn 0.2576 -0.2028 -0.9447
vn 0.1280 0.2631 -0.9562
vn 0.1426 0.1442 -0.9792
vn 0.8336 -0.2669 -0.4836
vn 0.9432 -0.3317 -0.0156
vn -0.1323 0.9087 -0.3959
vn -0.2334 0.9122 -0.3368
vn -0.2099 0.9262 -0.3131
vn -0.1261 0.9140 -0.3855
vn 0.4477 0.8765 0.1769
vn 0.2832 0.9272 0.2451
vn 0.3031 0.9010 0.3105
vn -0.2523 0.1968 -0.9474
vn -0.1792 0.3878 -0.9042
vn 0.2222 0.1531 -0.9629
vn 0.2827 -0.2187 -0.9339
vn -0.1762 -0.2554 -0.9506
vn -0.1441 -0.2956 -0.9444
vn -0.0985 0.9285 -0.3581
vn -0.1818 0.9382 -0.2946
vn -0.1482 0.9488 -0.2790
vn -0.0684 0.9366 -0.3438
vn 0.2147 0.9558 -0.2007
vn 0.2682 0.9356 -0.2295
vn 0.1818 0.9382 -0.2946
vn 0.1482 0.9488 -0.2790
vn -0.0393 0.5522 -0.8328
vn 0.2878 0.2246 -0.9310
vn -0.6523 0.0818 -0.7536
vn -0.9614 0.2750 -0.0020
vn -0.9304 0.3630 -0.0505
vn -0.9761 0.1938 -0.0980
vn -0.4925 -0.4288 -0.7574
vn 0.2438 -0.1377 0.9600
vn -0.1412 0.0618 0.9880
vn -0.1855 0.0026 0.9826
vn 0.2493 -0.1163 0.9614
vn 0.9647 -0.2442 -0.0989
vn -0.5014 0.7755 -0.3837
vn -0.6185 0.7054 -0.3461
vn -0.5992 0.7495 -0.2816
vn -0.4833 0.8157 -0.3179
vn -0.3011 0.9200 -0.2509
vn -0.2682 0.9356 -0.2295
vn -0.4972 0.5832 -0.6424
vn -0.4183 0.5432 -0.7280
vn -0.4824 0.4533 -0.7495
vn -0.5731 0.5000 -0.6493
vn 0.7924 0.5709 0.2150
vn 0.7162 0.6357 0.2882
vn 0.7560 0.5268 0.3885
vn 0.8292 0.4757 0.2936
vn 0.1920 0.6531 -0.7325
vn 0.4153 0.2750 -0.8671
vn 0.3684 0.2678 -0.8903
vn 0.1267 0.6344 -0.7626
vn -0.4256 0.3090 -0.8505
vn -0.4721 0.2031 -0.8578
vn -0.5475 0.3483 -0.7609
vn -0.6176 0.3040 -0.7253
vn -0.6133 0.3987 0.6818
vn -0.6055 0.3010 0.7367
vn -0.3594 0.3249 0.8748
vn -0.3541 0.4400 0.8252
vn 0.8851 -0.1942 0.4229
vn 0.9003 -0.0735 0.4291
vn 0.6241 -0.0898 0.7761
vn 0.6137 -0.1766 0.7695
vn -0.9482 -0.3174 -0.0096
vn -0.9791 -0.2035 -0.0042
vn -0.8802 -0.2039 -0.4287
vn -0.0811 0.8536 -0.5145
vn -0.2269 0.9438 -0.2403
vn -0.1117 0.9669 -0.2293
vn 0.0185 0.8682 -0.4958
vn -0.5508 -0.0516 -0.8331
vn -0.5147 0.0855 -0.8531
vn -0.8851 -0.1942 0.4229
vn 0.1032 0.0738 0.9919
vn -0.2278 -0.2123 0.9503
vn -0.2438 -0.1377 0.9600
vn 0.1412 0.0618 0.9880
vn -0.3684 0.2678 -0.8903
vn -0.4153 0.2750 -0.8671
vn -0.1920 0.6531 -0.7325
vn -0.1267 0.6344 -0.7626
vn 0.2318 -0.1942 0.9532
vn -0.7962 0.6021 0.0591
vn -0.5746 0.8143 0.0820
vn -0.9051 -0.0610 -0.4207
vn 0.5578 -0.0803 -0.8260
vn 0.5390 -0.0835 -0.8381
vn 0.3108 0.9500 -0.0310
vn 0.4032 0.9101 -0.0955
vn 0.3230 0.9287 -0.1821
vn 0.2527 0.9581 -0.1352
vn -0.2014 0.6989 -0.6863
vn -0.2667 0.6035 -0.7515
vn -0.3457 0.6325 -0.6932
vn 0.7532 -0.4586 -0.4715
vn 0.1735 -0.3926 -0.9032
vn 0.1713 -0.2651 -0.9489
vn 0.3723 -0.2328 -0.8985
vn 0.3771 -0.3602 -0.8532
vn -0.1263 0.8421 -0.5244
vn -0.2417 0.8161 -0.5249
vn -0.1450 0.8516 -0.5037
vn 0.7678 0.4410 0.4648
vn 0.8447 0.4020 0.3532
vn 0.6689 -0.7429 0.0266
vn 0.6897 -0.5023 -0.5215
vn 0.6538 -0.5728 -0.4944
vn 0.5456 -0.8368 0.0460
vn -0.3654 0.7971 0.4808
vn -0.2614 0.4642 0.8463
vn -0.1755 0.4890 0.8545
vn -0.2502 0.8456 0.4716
vn 0.0002 -0.2744 -0.9616
vn 0.0002 -0.4017 -0.9158
vn -0.9980 -0.0625 0.0030
vn 0.4688 -0.8238 0.3188
vn 0.6100 -0.7170 0.3374
vn -0.0500 0.0496 0.9975
vn -0.0001 0.0161 0.9999
vn -0.9943 0.1054 0.0138
vn -0.9072 0.1106 -0.4059
vn 0.9051 -0.0610 -0.4207
vn 0.6076 -0.1954 -0.7699
vn 0.6392 -0.0694 -0.7659
vn 0.3432 0.6545 0.6737
vn 0.1253 0.6723 0.7296
vn 0.3496 0.5417 0.7644
vn 0.4629 -0.5999 0.6526
vn 0.3650 -0.7118 0.6001
vn 0.6017 0.2419 -0.7612
vn 0.5476 0.3476 -0.7611
vn 0.6468 0.4023 -0.6479
vn -0.2629 0.8606 -0.4362
vn -0.2567 0.8362 -0.4847
vn -0.3661 0.7958 -0.4824
vn -0.3750 0.8292 -0.4145
vn 0.1982 -0.4169 0.8871
vn 0.1959 -0.3114 0.9299
vn -0.6241 -0.0898 0.7761
vn -0.9003 -0.0735 0.4291
vn -0.6137 -0.1766 0.7695
vn 0.7824 -0.5079 0.3604
vn 0.8418 -0.5397 0.0123
vn 0.8680 -0.3187 0.3808
vn 0.6121 -0.2695 0.7435
vn 0.5642 0.7177 0.4081
vn 0.1493 0.8649 -0.4792
vn 0.2567 0.8362 -0.4847
vn 0.2417 0.8161 -0.5249
vn 0.1450 0.8516 -0.5037
vn 0.2278 -0.2123 0.9503
vn 0.5694 -0.4151 0.7096
vn 0.0967 0.7560 -0.6474
vn 0.1453 0.7670 -0.6250
vn 0.2014 0.6989 -0.6863
vn 0.1345 0.6818 -0.7191
vn -0.2125 -0.0650 0.9750
vn 0.2192 -0.1056 0.9700
vn 0.2125 -0.0650 0.9750
vn -0.2368 -0.1235 0.9637
vn -0.2305 -0.1155 0.9662
vn -0.5679 0.6725 0.4746
vn -0.7392 0.4888 0.4633
vn -0.5091 0.2936 0.8091
vn -0.3963 0.3994 0.8267
vn -0.1277 0.2635 -0.9562
vn -0.1415 0.1462 -0.9791
vn -0.3094 0.1691 -0.9358
vn -0.2779 0.2809 -0.9186
vn -0.9886 0.1146 0.0978
vn -0.9991 0.0172 -0.0375
vn -0.9967 -0.0805 0.0089
vn 0.0003 0.0060 -1.0000
vn 0.0002 -0.1378 -0.9905
vn -0.5642 0.7177 0.4081
vn -0.6004 0.5961 0.5330
vn -0.3432 0.6545 0.6737
vn -0.3294 0.7806 0.5312
vn 0.9210 -0.3894 -0.0134
vn 0.3070 0.7425 -0.5954
vn 0.2601 0.7194 -0.6440
vn -0.7653 0.6112 -0.2018
vn -0.7742 0.5725 -0.2698
vn -0.8412 0.4917 -0.2249
vn -0.8317 0.5343 -0.1509
vn -0.6055 0.6665 -0.4349
vn -0.5613 0.6265 -0.5407
vn -0.6468 0.5544 -0.5238
vn -0.6918 0.6024 -0.3981
vn -0.3649 0.2144 0.9060
vn -0.5905 0.2067 0.7801
vn -0.1032 0.0738 0.9919
vn -0.8974 0.0672 0.4361
vn -0.6223 0.0046 0.7827
vn -0.5920 0.1440 0.7930
vn -0.8540 0.2669 0.4466
vn 0.3050 -0.9488 0.0817
vn -0.4329 -0.5168 -0.7386
vn 0.1073 -0.3503 -0.9304
vn -0.6108 -0.0775 0.7880
vn -0.8868 -0.0338 0.4608
vn 0.5812 -0.5348 -0.6133
vn 0.1913 -0.2534 0.9483
vn -0.2260 -0.1559 0.9616
vn -0.7677 0.4410 0.4648
vn -0.7608 0.3764 0.5287
vn -0.6129 0.4907 0.6193
vn -0.9984 -0.0337 0.0449
vn 0.5693 -0.2964 -0.7669
vn 0.1441 -0.2956 -0.9444
vn 0.8811 -0.4727 -0.0140
vn 0.5119 0.0774 -0.8555
vn 0.6500 0.1260 -0.7494
vn 0.2053 -0.2156 0.9546
vn -0.2217 -0.1377 0.9653
vn 0.4727 0.8359 -0.2788
vn 0.3039 0.7580 -0.5772
vn -0.9986 -0.0411 0.0334
vn -0.8900 -0.0403 0.4541
vn 0.3685 -0.5920 -0.7167
vn 0.3625 -0.6678 -0.6501
vn 0.8607 -0.2939 0.4157
vn 0.5977 -0.2516 0.7612
vn -0.8873 0.4504 -0.0994
vn -0.6173 -0.1006 0.7802
vn -0.6126 -0.0749 0.7868
vn -0.8928 -0.0768 0.4438
vn -0.9967 -0.0780 0.0214
vn -0.9233 -0.0773 -0.3763
vn -0.6773 -0.1556 -0.7191
vn -0.9396 0.3408 0.0313
vn -0.8552 0.3539 -0.3787
vn -0.6338 -0.1607 0.7566
vn -0.6386 -0.1873 0.7464
vn -0.8973 -0.2072 0.3897
vn -0.8973 -0.1745 0.4056
vn 0.1554 0.0127 -0.9878
vn 0.0002 0.1385 -0.9904
vn -0.8966 -0.0922 0.4331
vn -0.9956 -0.0933 0.0071
vn -0.9007 -0.1074 -0.4210
vn -0.9087 -0.1039 -0.4044
vn -0.6468 0.4024 -0.6478
vn 0.8849 -0.2738 -0.3769
vn -0.6229 -0.1045 0.7753
vn -0.6294 -0.1187 0.7680
vn 0.5746 0.8143 0.0820
vn 0.7962 0.6021 0.0591
vn 0.7074 0.6241 -0.3318
vn -0.9929 -0.1191 -0.0076
vn -0.8995 -0.1188 0.4205
vn -0.9169 -0.0771 -0.3917
vn 0.2667 0.6035 -0.7515
vn -0.6990 -0.0011 -0.7151
vn -0.8212 0.0512 -0.5683
vn 0.3597 -0.1003 -0.9277
vn 0.3385 0.0373 -0.9402
vn 0.5442 -0.0536 -0.8372
vn -0.8915 -0.1188 -0.4372
vn 0.6942 -0.0032 -0.7198
vn 0.8202 0.0505 -0.5699
vn -0.2493 -0.1163 0.9614
vn -0.3214 0.5095 -0.7982
vn -0.1754 0.5804 -0.7952
vn -0.5853 -0.0869 -0.8061
vn -0.5949 -0.1104 -0.7962
vn 0.3665 0.8596 -0.3559
vn 0.3504 0.8821 -0.3147
vn 0.4485 0.8511 -0.2730
vn 0.4833 0.8157 -0.3179
vn -0.1815 -0.0459 -0.9823
vn -0.6451 -0.1487 -0.7495
vn -0.6613 -0.1406 -0.7368
vn -0.1964 0.9801 0.0274
vn -0.1658 0.9825 -0.0846
vn -0.2527 0.9581 -0.1352
vn -0.3108 0.9500 -0.0310
vn -0.8680 -0.3187 0.3808
vn -0.9432 -0.3317 -0.0156
vn -0.8336 -0.2669 -0.4836
vn -0.5628 -0.0756 -0.8232
vn -0.2222 0.1531 -0.9629
vn -0.1845 0.0537 -0.9814
vn 0.2455 -0.0848 -0.9657
vn -0.2827 -0.2187 -0.9339
vn -0.3097 -0.2529 -0.9166
vn -0.8418 -0.5397 0.0123
vn -0.7637 -0.4021 -0.5051
vn -0.5308 -0.0796 -0.8438
vn -0.2878 0.2246 -0.9310
vn 0.6911 0.7151 0.1051
vn 0.7474 0.6629 0.0454
vn -0.6897 -0.5023 -0.5215
vn -0.5390 -0.0835 -0.8381
vn 0.0393 0.5522 -0.8328
vn 0.2523 0.1968 -0.9474
vn 0.2665 0.0249 -0.9635
vn 0.8540 0.2669 0.4466
vn 0.5920 0.1440 0.7930
vn 0.6223 0.0046 0.7827
vn 0.8974 0.0672 0.4361
vn -0.9476 0.2717 0.1680
vn -0.8967 0.3475 0.2741
vn 0.6176 0.3040 -0.7253
vn 0.6522 0.0818 -0.7536
vn -0.3137 0.8652 0.3913
vn 0.5044 0.5542 -0.6622
vn 0.1792 0.3878 -0.9042
vn 0.8552 0.3539 -0.3787
vn 0.9072 0.1106 -0.4059
vn 0.9396 0.3408 0.0313
vn 0.9943 0.1054 0.0138
vn -0.0619 -0.2682 0.9614
vn -0.0655 -0.2683 0.9611
vn -0.1704 -0.2677 -0.9483
vn 0.7392 0.4888 0.4633
vn 0.5661 -0.1806 -0.8043
vn 0.7287 -0.1258 -0.6732
vn 0.7512 -0.2391 -0.6153
vn 0.5778 -0.3048 -0.7571
vn 0.9980 -0.0625 0.0030
vn -0.5578 -0.0803 -0.8260
vn -0.6538 -0.5728 -0.4944
vn 0.2085 0.9744 0.0840
vn 0.3318 0.9389 0.0914
vn 0.1855 0.0026 0.9826
vn 0.5091 0.2936 0.8091
vn 0.0461 -0.9964 -0.0711
vn -0.0673 -0.9977 -0.0127
vn -0.6689 -0.7429 0.0266
vn -0.8362 0.4438 -0.3222
vn -0.1093 0.9926 0.0538
vn -0.0890 0.9944 -0.0573
vn -0.7824 -0.5079 0.3604
vn 0.2417 0.3919 -0.8877
vn 0.2095 0.4841 -0.8496
vn -0.5690 0.8215 -0.0354
vn -0.5039 0.8634 0.0259
vn -0.7328 -0.1275 -0.6684
vn -0.8591 -0.0737 -0.5065
vn -0.6121 -0.2695 0.7435
vn -0.5694 -0.4151 0.7096
vn 0.5992 0.7495 -0.2816
vn 0.5596 0.7958 -0.2314
vn 0.6613 0.7294 -0.1753
vn 0.5679 0.6725 0.4746
vn -0.6100 -0.7170 0.3374
vn -0.7379 0.3186 0.5950
vn -0.4629 -0.5999 0.6526
vn 0.3963 0.3994 0.8267
vn 0.5693 0.8153 0.1055
vn 0.5039 0.8634 0.0259
vn 0.3906 0.9157 0.0945
vn 0.3011 0.9200 -0.2509
vn -0.7258 0.4698 -0.5025
vn -0.7668 0.5307 -0.3612
vn -0.1959 -0.3114 0.9299
vn -0.9868 -0.1561 0.0439
vn -0.9809 -0.1912 0.0362
vn -0.9757 -0.0873 0.2011
vn 0.0347 -0.0489 0.9982
vn 0.3572 -0.0593 0.9322
vn 0.3691 -0.0522 0.9279
vn 0.6597 -0.0464 0.7501
vn 0.7741 0.0128 0.6330
vn 0.8356 0.1378 0.5317
vn -0.6558 -0.3346 -0.6767
vn -0.6530 -0.3432 -0.6752
vn 0.3137 0.8652 0.3913
vn 0.3294 0.7806 0.5312
vn -0.6973 0.2543 0.6702
vn -0.6588 0.1227 0.7423
vn -0.6431 0.0073 0.7658
vn -0.4986 0.0093 0.8668
vn -0.8362 0.1437 0.5293
vn -0.8565 0.2348 0.4596
vn -0.9103 0.2752 0.3092
vn -0.9555 0.1935 0.2226
vn -0.0000 0.2466 0.9691
vn -0.1545 0.2352 0.9596
vn -0.0000 0.1169 0.9931
vn -0.1472 0.3474 0.9261
vn 0.6004 0.5961 0.5330
vn -0.6420 -0.0178 0.7665
vn -0.4723 -0.0207 0.8812
vn -0.0000 0.3577 0.9339
vn -0.1386 0.4611 0.8764
vn 0.3243 -0.7183 -0.6155
vn 0.1341 -0.7263 -0.6742
vn 0.1457 -0.6988 -0.7004
vn -0.8557 0.3012 0.4207
vn -0.6437 -0.0335 0.7646
vn -0.4657 -0.0304 0.8844
vn -0.0000 0.0230 0.9997
vn -0.2359 0.0276 0.9714
vn -0.2556 0.0008 0.9668
vn -0.0000 -0.0006 1.0000
vn 0.9614 0.2750 -0.0020
vn 0.8976 0.4374 0.0549
vn 0.9296 0.3510 0.1127
vn -0.3496 0.5417 0.7644
vn -0.1303 0.5622 0.8167
vn 0.1322 0.9751 0.1783
vn 0.1093 0.9926 0.0538
vn -0.0000 0.9982 0.0596
vn -0.0000 0.9827 0.1853
vn 0.8958 -0.4103 -0.1712
vn 0.8960 -0.4098 -0.1713
vn -0.7741 0.0128 0.6330
vn 0.6349 -0.0457 0.7712
vn 0.2601 -0.0144 0.9655
vn -0.0000 -0.0185 0.9998
vn -0.0000 -0.0313 0.9995
vn -0.7527 -0.2411 -0.6126
vn -0.8797 -0.1743 -0.4424
vn 0.8954 -0.4111 -0.1712
vn -0.9501 -0.0062 0.3118
vn -0.9283 0.0608 0.3669
vn -0.7864 -0.0122 0.6175
vn -0.7864 -0.0342 0.6167
vn 0.2556 0.0008 0.9668
vn -0.2601 -0.0144 0.9655
vn -0.8284 -0.3417 -0.4438
vn -0.8286 -0.3412 -0.4438
vn 0.9287 0.0659 0.3649
vn 0.9267 0.1086 0.3598
vn 0.8576 0.2227 0.4636
vn 0.2359 0.0276 0.9714
vn 0.9222 0.1903 0.3367
vn 0.8589 0.2874 0.4240
vn -0.3691 -0.0521 0.9279
vn -0.0349 -0.0489 0.9982
vn -0.8517 0.3464 0.3933
vn 0.1547 0.1175 0.9810
vn -0.9743 -0.1846 -0.1287
vn -0.9647 -0.2442 -0.0989
vn -0.9591 -0.2687 -0.0888
vn -0.6623 0.7211 0.2033
vn -0.4485 0.8511 -0.2730
vn -0.5596 0.7958 -0.2314
vn 0.7637 -0.4021 -0.5051
vn -0.9187 -0.3404 -0.2002
vn -0.8970 -0.4006 -0.1869
vn 0.2099 0.9262 -0.3131
vn 0.3273 0.9033 -0.2773
vn 0.2334 0.9122 -0.3368
vn -0.9920 0.1047 -0.0702
vn -0.9798 0.1951 0.0451
vn 0.3750 0.8292 -0.4145
vn 0.2629 0.8606 -0.4362
vn 0.2571 0.8823 -0.3943
vn -0.9825 -0.0980 -0.1583
vn -0.5716 -0.1858 -0.7992
vn -0.3650 -0.7118 0.6001
vn -0.4688 -0.8238 0.3188
vn -0.7560 0.5268 0.3885
vn -0.8292 0.4757 0.2936
vn -0.8447 0.4020 0.3533
vn -0.9381 -0.2651 -0.2230
vn -0.9482 -0.1932 -0.2523
vn 0.8794 -0.1740 -0.4432
vn 0.9508 -0.1036 -0.2920
vn -0.4913 0.7358 -0.4661
vn -0.1253 0.6723 0.7296
vn -0.8739 -0.3570 -0.3298
vn -0.8447 -0.4541 -0.2834
vn -0.7825 -0.5562 -0.2797
vn -0.9120 0.1240 -0.3909
vn -0.0000 0.6744 0.7383
vn -0.7494 -0.5440 -0.3775
vn -0.6001 -0.6099 -0.5176
vn -0.6900 -0.6210 -0.3718
vn -0.7162 0.6357 0.2882
vn 0.1654 -0.1295 -0.9777
vn 0.1277 0.7941 0.5942
vn 0.1385 0.8793 0.4557
vn 0.5277 -0.6782 -0.5114
vn -0.7532 -0.4586 -0.4715
vn -0.5812 -0.5348 -0.6133
vn 0.9840 -0.0066 -0.1782
vn -0.5183 0.8030 0.2941
vn -0.3243 -0.7183 -0.6155
vn -0.5277 -0.6782 -0.5114
vn 0.1545 0.2352 0.9596
vn 0.3686 0.0834 0.9259
vn 0.3649 0.2143 0.9060
vn -0.1341 -0.7263 -0.6742
vn 0.0660 -0.0102 0.9978
vn 0.3693 -0.0147 0.9292
vn -0.0000 -0.7055 -0.7087
vn -0.0000 -0.7215 -0.6924
vn -0.4847 0.8436 0.2312
vn 0.0409 -0.0385 0.9984
vn 0.3691 -0.0399 0.9285
vn -0.5796 -0.4398 -0.6861
vn -0.3751 -0.4959 -0.7832
vn -0.7588 -0.3614 -0.5418
vn -0.3031 0.9010 0.3105
vn 0.1472 0.3474 0.9261
vn 0.6567 -0.0343 0.7534
vn 0.6402 -0.0082 0.7682
vn -0.1495 0.9201 0.3620
vn -0.3572 -0.0593 0.9322
vn -0.6596 -0.0464 0.7502
vn 0.1495 0.9201 0.3620
vn -0.0000 0.9239 0.3827
vn -0.0000 0.4636 -0.8860
vn -0.0000 0.3722 -0.9282
vn 0.5905 0.2068 0.7801
vn 0.1480 0.9482 0.2810
vn -0.0000 0.9561 0.2929
vn -0.3318 0.9389 0.0914
vn -0.0000 0.5611 -0.8277
vn 0.0827 0.5658 -0.8204
vn 0.0974 0.4685 -0.8781
vn 0.9501 -0.0062 0.3118
vn 0.9757 -0.0873 0.2011
vn 0.9484 0.0314 0.3155
vn -0.1113 0.8305 -0.5458
vn 0.6056 0.3010 0.7367
vn 0.6133 0.3987 0.6818
vn 0.3541 0.4400 0.8252
vn 0.3594 0.3249 0.8748
vn 0.6973 0.2544 0.6702
vn 0.7379 0.3186 0.5950
vn 0.5308 -0.0796 -0.8438
vn 0.7608 0.3764 0.5287
vn 0.6130 0.4907 0.6193
vn 0.8517 0.3464 0.3933
vn -0.6349 -0.0457 0.7712
vn -0.9840 -0.0066 -0.1782
vn 0.7410 0.6545 0.1504
vn 0.8778 0.4250 0.2211
vn 0.8967 0.3475 0.2741
vn 0.8435 0.5141 0.1555
vn 0.7973 0.5956 0.0981
vn 0.9103 0.2752 0.3092
vn -0.5456 -0.8368 0.0460
vn 0.9543 0.1046 0.2800
vn 0.9555 0.1935 0.2226
vn 0.2445 0.9576 0.1526
vn 0.9476 0.2717 0.1680
vn 0.1964 0.9801 0.0274
vn 0.9798 0.1951 0.0451
vn 0.1658 0.9825 -0.0846
vn 0.0890 0.9944 -0.0573
vn -0.1322 0.9751 0.1783
vn -0.1480 0.9482 0.2810
vn 0.9886 0.1146 0.0978
vn 0.1428 0.9748 -0.1712
vn 0.9809 -0.1912 0.0362
vn -0.0000 0.9890 -0.1477
vn 0.0708 0.9856 -0.1533
vn 0.1035 0.9598 -0.2609
vn -0.0000 0.9987 -0.0508
vn -0.0708 0.9856 -0.1533
vn 0.9920 0.1047 -0.0702
vn 0.4575 0.7000 -0.5484
vn 0.3425 0.7678 -0.5415
vn -0.1428 0.9748 -0.1712
vn -0.1497 0.8918 -0.4268
vn -0.2571 0.8823 -0.3943
vn -0.2483 0.8963 -0.3674
vn -0.1472 0.8995 -0.4113
vn 0.1157 0.9208 -0.3725
vn 0.0985 0.9285 -0.3581
vn -0.1570 0.8786 -0.4510
vn -0.3273 0.9033 -0.2773
vn -0.3504 0.8821 -0.3147
vn -0.4074 0.8815 -0.2387
vn -0.4032 0.9101 -0.0955
vn -0.0314 0.9419 -0.3343
vn -0.0507 0.9674 -0.2480
vn 0.1754 0.5804 -0.7952
vn 0.0684 0.9366 -0.3438
vn -0.0000 0.8117 -0.5841
vn -0.0000 0.7454 -0.6667
vn -0.0000 0.8876 -0.4606
vn -0.4620 0.8752 -0.1435
vn -0.1035 0.9598 -0.2609
vn -0.2147 0.9558 -0.2007
vn 0.6195 -0.5928 0.5145
vn 0.6195 -0.5917 0.5158
vn -0.1157 0.9208 -0.3725
vn 0.5628 -0.0756 -0.8232
vn 0.9591 -0.2687 -0.0888
vn -0.1982 -0.4169 0.8871
vn 0.8582 -0.0736 -0.5081
vn 0.1323 0.9087 -0.3959
vn 0.1261 0.9140 -0.3855
vn 0.5613 0.6265 -0.5407
vn -0.1453 0.7670 -0.6250
vn 0.1570 0.8786 -0.4510
vn 0.9761 0.1938 -0.0980
vn -0.6613 0.7294 -0.1753
vn -0.7377 0.6654 -0.1142
vn -0.6909 0.7227 -0.0205
vn -0.6183 0.7795 -0.1009
vn 0.8013 0.5959 -0.0533
vn 0.8541 0.5201 0.0013
vn 0.0001 0.2580 -0.9661
vn -0.0000 -0.6465 -0.7629
vn 0.1590 -0.6322 -0.7583
vn -0.3739 -0.2386 -0.8963
vn 0.8317 0.5343 -0.1509
vn 0.7377 0.6654 -0.1142
vn -0.0660 0.6701 -0.7393
vn -0.0000 0.6660 -0.7459
vn -0.0827 0.5658 -0.8204
vn -0.1727 -0.3946 -0.9025
vn -0.3771 -0.3649 -0.8513
vn 0.8412 0.4917 -0.2249
vn -0.0106 -0.9998 -0.0144
vn -0.0325 -0.9994 -0.0104
vn 0.5794 -0.4387 -0.6869
vn 0.3753 -0.4948 -0.7838
vn -0.1716 -0.5264 -0.8328
vn -0.5797 -0.3094 -0.7538
vn 0.8983 0.3391 -0.2793
vn 0.8362 0.4438 -0.3222
vn 0.5014 0.7755 -0.3837
vn 0.4913 0.7358 -0.4661
vn 0.3661 0.7958 -0.4824
vn -0.8849 -0.2739 -0.3767
vn -0.7042 0.6394 -0.3086
vn -0.3425 0.7678 -0.5415
vn -0.4575 0.7000 -0.5484
vn -0.1345 0.6818 -0.7191
vn 0.7668 0.5307 -0.3612
vn 0.7258 0.4698 -0.5025
vn -0.9508 -0.1036 -0.2920
vn -0.3715 0.4174 -0.8293
vn -0.9757 0.0924 -0.1989
vn -0.9417 -0.0051 -0.3365
vn 0.0509 0.7486 -0.6611
vn 0.0660 0.6701 -0.7393
vn 0.2483 0.8963 -0.3674
vn 0.1472 0.8995 -0.4113
vn 0.1497 0.8918 -0.4268
vn 0.6185 0.7054 -0.3461
vn -0.0845 0.8252 -0.5584
vn 0.6055 0.6665 -0.4349
vn 0.6918 0.6024 -0.3981
vn 0.6468 0.5544 -0.5238
vn 0.5731 0.5000 -0.6493
vn -0.1493 0.8649 -0.4792
vn 0.1719 -0.5259 -0.8330
vn 0.0001 -0.5345 -0.8452
vn 0.2180 0.7972 -0.5630
vn -0.3665 0.8596 -0.3559
vn 0.1263 0.8421 -0.5244
vn 0.7586 -0.3609 -0.5424
vn 0.1844 0.7815 -0.5960
vn 0.1113 0.8305 -0.5458
vn -0.2085 0.9744 0.0840
vn 0.0845 0.8252 -0.5584
vn 0.1116 0.3768 -0.9195
vn 0.0302 0.8160 -0.5772
vn 0.0597 0.8163 -0.5745
vn -0.5119 0.8387 -0.1858
vn -0.4088 0.6653 -0.6247
vn -0.6920 0.6793 -0.2445
vn -0.3230 0.9287 -0.1821
vn -0.3679 0.9053 -0.2123
vt 0.000000 0.000000
s 1
f 1/1/1 2/1/2 3/1/3
f 23/1/4 27/1/5 22/1/6 17/1/7
f 18/1/8 14/1/9 13/1/10 17/1/7
f 562/1/11 585/1/12 556/1/13 557/1/14
f 13/1/10 14/1/9 10/1/15 9/1/15
f 31/1/16 34/1/17 30/1/18 26/1/19
f 675/1/20 687/1/21 666/1/22 667/1/23
f 79/1/24 84/1/24 83/1/24 80/1/24
f 678/1/25 778/1/26 672/1/27 671/1/28
f 40/1/29 38/1/30 35/1/31 39/1/32
f 17/1/7 22/1/6 18/1/8
f 266/1/33 274/1/34 265/1/35 260/1/36
f 1056/1/37 1060/1/38 1055/1/39 1059/1/40
f 7/1/41 11/1/42 8/1/43 4/1/44
f 556/1/13 825/1/45 545/1/46 550/1/47
f 344/1/48 345/1/49 353/1/50 352/1/51
f 51/1/52 52/1/53 48/1/54 47/1/55
f 15/1/56 19/1/57 16/1/58 12/1/59
f 1052/1/60 1058/1/61 1057/1/62 1053/1/63
f 977/1/64 1011/1/65 1003/1/66 1004/1/67
f 36/1/68 41/1/69 37/1/70
f 59/1/71 63/1/71 60/1/71 56/1/72
f 20/1/73 25/1/74 24/1/75 21/1/76
f 42/1/69 46/1/69 45/1/69
f 28/1/77 29/1/78 24/1/75 25/1/74
f 502/1/79 511/1/80 501/1/81 492/1/82
f 1032/1/83 1038/1/84 1037/1/85 1033/1/86
f 570/1/87 576/1/88 571/1/89 563/1/90
f 36/1/68 37/1/70 32/1/91 33/1/92
f 543/1/93 563/1/90 562/1/11 557/1/14
f 55/1/94 59/1/71 56/1/72
f 676/1/95 682/1/96 683/1/97 677/1/98
f 90/1/99 95/1/100 94/1/100 89/1/101
f 60/1/71 63/1/71 64/1/71
f 511/1/80 519/1/102 518/1/103 501/1/81
f 49/1/104 50/1/105 45/1/69 46/1/69
f 985/1/106 992/1/107 991/1/108 986/1/109
f 53/1/110 54/1/111 50/1/105 49/1/104
f 92/1/112 93/1/112 87/1/113 91/1/114
f 53/1/110 58/1/115 57/1/116 54/1/111
f 529/1/117 530/1/118 522/1/119 528/1/120
f 58/1/115 62/1/121 61/1/121 57/1/116
f 595/1/122 596/1/123 542/1/124 589/1/125
f 600/1/126 606/1/127 581/1/128 580/1/129
f 75/1/130 76/1/131 72/1/132 71/1/133
f 823/1/134 875/1/135 828/1/136 824/1/137
f 108/1/138 109/1/139 104/1/140 105/1/141
f 88/1/24 91/1/114 87/1/113
f 529/1/117 550/1/47 545/1/46 539/1/142
f 112/1/143 113/1/143 109/1/139 108/1/138
f 74/1/144 78/1/144 77/1/144 73/1/144
f 117/1/143 113/1/143 112/1/143 116/1/143
f 81/1/145 82/1/146 77/1/144 78/1/144
f 116/1/143 121/1/147 120/1/148 117/1/143
f 85/1/149 86/1/150 82/1/146 81/1/145
f 124/1/151 125/1/151 120/1/148 121/1/147
f 680/1/152 702/1/153 681/1/154 674/1/155
f 126/1/151 127/1/151 125/1/151 124/1/151
f 603/1/156 604/1/157 596/1/123 595/1/122
f 123/1/158 127/1/151 126/1/151 122/1/159
f 595/1/122 617/1/160 610/1/161 603/1/156
f 118/1/162 123/1/158 122/1/159 119/1/162
f 946/1/163 952/1/164 949/1/165 938/1/166
f 482/1/167 491/1/168 481/1/169 476/1/170
f 849/1/171 850/1/172 836/1/173 844/1/174
f 589/1/125 623/1/175 617/1/160 595/1/122
f 680/1/152 717/1/176 703/1/177 702/1/153
f 128/1/178 129/1/179 130/1/180
f 128/1/178 130/1/180 131/1/181
f 128/1/178 131/1/181 132/1/182
f 128/1/178 132/1/182 133/1/183
f 128/1/178 133/1/183 134/1/184
f 128/1/178 134/1/184 135/1/185
f 128/1/178 135/1/185 136/1/186
f 128/1/178 136/1/186 137/1/187
f 128/1/178 137/1/187 138/1/188
f 128/1/178 138/1/188 139/1/189
f 128/1/178 139/1/189 140/1/190
f 128/1/178 140/1/190 141/1/191
f 128/1/178 142/1/192 129/1/179
f 128/1/178 141/1/191 142/1/192
f 971/1/193 1004/1/67 997/1/194 998/1/195
f 314/1/196 313/1/197 304/1/198 305/1/199
f 315/1/200 314/1/196 305/1/199 306/1/201
f 316/1/202 315/1/200 306/1/201 307/1/203
f 809/1/204 810/1/205 785/1/206 801/1/207
f 307/1/203 308/1/208 317/1/209 316/1/202
f 239/1/210 245/1/211 225/1/212 232/1/213
f 320/1/214 319/1/215 310/1/216 311/1/217
f 913/1/218 867/1/219 862/1/220 912/1/221
f 331/1/222 321/1/223 299/1/224 298/1/225
f 861/1/226 873/1/227 773/1/228 766/1/229
f 324/1/230 323/1/231 314/1/196 315/1/200
f 325/1/232 324/1/230 315/1/200 316/1/202
f 323/1/231 322/1/233 313/1/197 314/1/196
f 1022/1/234 1029/1/235 842/1/236 841/1/237
f 328/1/238 327/1/239 318/1/240 319/1/215
f 329/1/241 328/1/238 319/1/215 320/1/214
f 230/1/242 143/1/243 189/1/244 222/1/245
f 321/1/223 331/1/222 357/1/246 330/1/247
f 728/1/248 735/1/249 734/1/250 729/1/251
f 165/1/252 173/1/253 174/1/254 166/1/255
f 236/1/256 237/1/257 229/1/258 228/1/259
f 324/1/230 325/1/232 334/1/260 333/1/261
f 336/1/262 335/1/263 326/1/264 327/1/239
f 882/1/265 883/1/266 828/1/136 875/1/135
f 404/1/267 398/1/268 405/1/269 439/1/270
f 601/1/271 613/1/272 607/1/273 602/1/274
f 330/1/247 357/1/246 349/1/275 339/1/276
f 300/1/277 301/1/278 350/1/279 340/1/280
f 496/1/281 506/1/282 561/1/283 555/1/284
f 661/1/285 669/1/286 668/1/287 667/1/23
f 344/1/48 343/1/288 335/1/263 336/1/262
f 345/1/49 344/1/48 336/1/262 337/1/289
f 337/1/289 338/1/290 346/1/291 345/1/49
f 789/1/292 790/1/293 668/1/287 783/1/294
f 212/1/295 213/1/296 210/1/297 204/1/298
f 196/1/299 204/1/298 179/1/300 187/1/301
f 357/1/246 374/1/302 379/1/303 349/1/275
f 358/1/304 350/1/279 301/1/278 302/1/305
f 352/1/51 351/1/306 343/1/288 344/1/48
f 394/1/307 401/1/308 407/1/309 400/1/310
f 354/1/311 353/1/50 345/1/49 346/1/291
f 355/1/312 354/1/311 346/1/291 347/1/313
f 347/1/313 348/1/314 356/1/315 355/1/312
f 322/1/233 409/1/316 402/1/317 397/1/318
f 374/1/302 357/1/246 331/1/222 340/1/280
f 199/1/319 193/1/320 192/1/321 198/1/322
f 352/1/51 353/1/50 360/1/323 359/1/324
f 937/1/325 948/1/326 932/1/327 931/1/328
f 354/1/311 355/1/312 362/1/329 361/1/330
f 145/1/331 154/1/332 155/1/333 146/1/334
f 356/1/315 365/1/335 364/1/336 363/1/337
f 935/1/338 936/1/339 928/1/340 927/1/341
f 373/1/342 381/1/343 380/1/344 365/1/335
f 360/1/323 361/1/330 367/1/345 366/1/346
f 368/1/347 367/1/345 361/1/330 362/1/329
f 369/1/348 368/1/347 362/1/329 363/1/337
f 260/1/36 265/1/35 254/1/349 253/1/350
f 364/1/336 372/1/351 371/1/352 370/1/353
f 909/1/354 910/1/355 896/1/356 904/1/357
f 380/1/344 400/1/310 396/1/358 372/1/351
f 379/1/303 388/1/359 381/1/343 373/1/342
f 973/1/360 992/1/107 985/1/106 987/1/361
f 375/1/362 376/1/363 368/1/347 369/1/348
f 771/1/364 840/1/365 763/1/366 764/1/367
f 606/1/127 640/1/368 633/1/369 612/1/370
f 371/1/352 393/1/371 387/1/372 378/1/373
f 379/1/303 374/1/302 382/1/374 388/1/359
f 400/1/310 380/1/344 381/1/343 394/1/307
f 388/1/359 395/1/375 394/1/307 381/1/343
f 382/1/374 389/1/376 395/1/375 388/1/359
f 389/1/376 382/1/374 350/1/279 358/1/304
f 750/1/377 756/1/378 743/1/379 742/1/380
f 748/1/381 1034/1/382 749/1/383 741/1/384
f 378/1/373 387/1/372 386/1/385 385/1/386
f 400/1/310 407/1/309 403/1/387 396/1/358
f 695/1/388 786/1/389 785/1/206 780/1/390
f 395/1/375 402/1/317 401/1/308 394/1/307
f 389/1/376 397/1/318 402/1/317 395/1/375
f 397/1/318 389/1/376 358/1/304 312/1/391
f 455/1/392 436/1/393 434/1/394 442/1/395
f 535/1/396 550/1/47 529/1/117 528/1/120
f 858/1/397 859/1/398 811/1/399 852/1/400
f 827/1/401 770/1/402 756/1/378 763/1/366
f 897/1/403 916/1/404 914/1/405 908/1/406
f 337/1/289 336/1/262 327/1/239 328/1/238
f 572/1/407 573/1/408 552/1/409 551/1/410
f 322/1/233 397/1/318 312/1/391 313/1/197
f 417/1/411 425/1/412 391/1/413 392/1/414
f 920/1/415 923/1/416 882/1/265 915/1/417
f 393/1/371 399/1/418 398/1/268 387/1/372
f 635/1/419 636/1/420 628/1/421 622/1/422
f 242/1/423 269/1/424 276/1/425 172/1/426
f 409/1/316 332/1/427 415/1/428 408/1/429
f 332/1/427 409/1/316 322/1/233 323/1/231
f 411/1/430 432/1/431 426/1/432 418/1/433
f 347/1/313 346/1/291 338/1/290 339/1/276
f 932/1/327 905/1/434 889/1/435 931/1/328
f 341/1/436 415/1/428 332/1/427 333/1/261
f 281/1/437 283/1/438 294/1/439 295/1/440
f 404/1/267 439/1/270 432/1/431 411/1/430
f 223/1/441 238/1/442 231/1/443 224/1/444
f 318/1/240 317/1/209 308/1/208 309/1/445
f 405/1/269 412/1/446 452/1/447 439/1/270
f 401/1/308 408/1/429 414/1/448 407/1/309
f 425/1/412 430/1/449 390/1/450 391/1/413
f 725/1/451 1054/1/452 1041/1/453 726/1/454
f 918/1/455 929/1/456 903/1/457 910/1/355
f 578/1/458 585/1/12 562/1/11 571/1/89
f 888/1/459 960/1/460 895/1/461 805/1/462
f 899/1/463 904/1/357 890/1/464 892/1/465
f 551/1/410 552/1/409 547/1/466 546/1/467
f 443/1/468 431/1/469 437/1/470 444/1/471
f 35/1/31 38/1/30 34/1/17 31/1/16
f 446/1/472 453/1/473 447/1/474 441/1/475
f 954/1/476 960/1/460 888/1/459 887/1/477
f 415/1/428 421/1/478 414/1/448 408/1/429
f 444/1/471 450/1/479 449/1/480 443/1/468
f 453/1/473 464/1/481 454/1/482 447/1/474
f 414/1/448 421/1/478 416/1/483 410/1/484
f 249/1/485 228/1/259 220/1/486 219/1/487
f 560/1/488 567/1/489 506/1/282 505/1/490
f 457/1/491 449/1/480 450/1/479 456/1/492
f 911/1/493 993/1/494 919/1/495 912/1/221
f 865/1/496 884/1/497 871/1/498 866/1/499
f 56/1/72 52/1/53 51/1/52 55/1/94
f 461/1/500 454/1/482 464/1/481 460/1/501
f 424/1/502 422/1/503 341/1/436 342/1/504
f 456/1/492 461/1/500 460/1/501 457/1/491
f 443/1/468 449/1/480 451/1/505 438/1/506
f 445/1/507 448/1/508 366/1/346 367/1/345
f 581/1/128 565/1/509 573/1/408 580/1/129
f 996/1/510 999/1/511 990/1/512 989/1/513
f 424/1/502 342/1/504 343/1/288 351/1/306
f 462/1/514 458/1/515 457/1/491 460/1/501
f 961/1/516 969/1/517 968/1/518 962/1/519
f 359/1/324 429/1/520 351/1/306 352/1/51
f 282/1/521 286/1/522 284/1/523 182/1/524
f 459/1/525 419/1/526 435/1/527 463/1/528
f 934/1/529 979/1/530 926/1/531 925/1/532
f 28/1/77 33/1/92 32/1/91 29/1/78
f 359/1/324 442/1/395 434/1/394 429/1/520
f 701/1/533 722/1/534 723/1/535 717/1/176
f 937/1/325 984/1/536 953/1/537 948/1/326
f 641/1/538 648/1/539 642/1/540 614/1/541
f 229/1/258 237/1/257 153/1/542 230/1/242
f 994/1/543 1011/1/65 977/1/64 995/1/544
f 797/1/545 804/1/546 800/1/547 795/1/548
f 448/1/508 455/1/392 442/1/395 366/1/346
f 863/1/549 878/1/550 868/1/551 864/1/552
f 588/1/553 629/1/554 623/1/175 589/1/125
f 462/1/514 465/1/555 436/1/393 455/1/392
f 423/1/556 427/1/557 428/1/558 420/1/559
f 436/1/393 435/1/527 428/1/558 434/1/394
f 297/1/560 298/1/225 299/1/224
f 297/1/560 300/1/277 298/1/225
f 297/1/560 301/1/278 300/1/277
f 297/1/560 302/1/305 301/1/278
f 297/1/560 303/1/561 302/1/305
f 297/1/560 304/1/198 303/1/561
f 297/1/560 305/1/199 304/1/198
f 297/1/560 306/1/201 305/1/199
f 297/1/560 307/1/203 306/1/201
f 297/1/560 308/1/208 307/1/203
f 297/1/560 309/1/445 308/1/208
f 297/1/560 310/1/216 309/1/445
f 297/1/560 299/1/224 311/1/217
f 297/1/560 311/1/217 310/1/216
f 133/1/183 181/1/562 189/1/244 134/1/184
f 134/1/184 189/1/244 143/1/243 135/1/185
f 991/1/108 998/1/195 997/1/194 993/1/494
f 141/1/191 149/1/563 150/1/564 142/1/192
f 576/1/88 598/1/565 578/1/458 571/1/89
f 138/1/188 146/1/334 147/1/566 139/1/189
f 148/1/567 140/1/190 139/1/189 147/1/566
f 140/1/190 148/1/567 149/1/563 141/1/191
f 651/1/568 643/1/569 635/1/419 645/1/570
f 142/1/192 150/1/564 151/1/571 129/1/179
f 221/1/572 222/1/245 214/1/573 213/1/296
f 230/1/242 153/1/542 144/1/574 143/1/243
f 906/1/575 986/1/109 911/1/493 907/1/576
f 911/1/493 912/1/221 862/1/220 907/1/576
f 156/1/577 147/1/566 146/1/334 155/1/333
f 147/1/566 156/1/577 157/1/578 148/1/567
f 327/1/239 326/1/264 317/1/209 318/1/240
f 245/1/211 240/1/579 226/1/580 225/1/212
f 160/1/581 151/1/571 150/1/564 159/1/582
f 1056/1/37 1059/1/40 1057/1/62 1058/1/61
f 592/1/583 598/1/565 576/1/88 583/1/584
f 237/1/257 163/1/585 154/1/332 153/1/542
f 164/1/586 155/1/333 154/1/332 163/1/585
f 155/1/333 164/1/586 165/1/252 156/1/577
f 675/1/20 790/1/293 793/1/587 786/1/389
f 157/1/578 166/1/255 167/1/588 158/1/589
f 168/1/590 159/1/582 158/1/589 167/1/588
f 159/1/582 168/1/590 169/1/591 160/1/581
f 130/1/180 152/1/592 162/1/593 131/1/181
f 416/1/483 423/1/556 420/1/559 413/1/594
f 163/1/585 242/1/423 172/1/426 164/1/586
f 164/1/586 172/1/426 173/1/253 165/1/252
f 399/1/418 406/1/595 405/1/269 398/1/268
f 190/1/596 279/1/597 197/1/598 191/1/599
f 982/1/600 984/1/536 978/1/601 987/1/361
f 168/1/590 176/1/602 177/1/603 169/1/591
f 169/1/591 177/1/603 178/1/604 170/1/605
f 874/1/606 915/1/417 882/1/265 875/1/135
f 814/1/607 825/1/45 556/1/13 585/1/12
f 335/1/263 334/1/260 325/1/232 326/1/264
f 166/1/255 174/1/254 175/1/608 167/1/588
f 174/1/254 182/1/524 183/1/609 175/1/608
f 248/1/610 255/1/611 234/1/612 240/1/579
f 192/1/321 185/1/613 184/1/614 191/1/599
f 173/1/253 282/1/521 182/1/524 174/1/254
f 160/1/581 169/1/591 170/1/605 161/1/615
f 977/1/64 1004/1/67 971/1/193 972/1/616
f 828/1/136 883/1/266 833/1/617 829/1/618
f 220/1/486 221/1/572 213/1/296 212/1/295
f 191/1/599 184/1/614 183/1/609 190/1/596
f 902/1/619 981/1/620 906/1/575 901/1/621
f 193/1/320 186/1/622 185/1/613 192/1/321
f 843/1/623 907/1/576 862/1/220 856/1/624
f 178/1/604 186/1/622 187/1/301 179/1/300
f 284/1/523 288/1/625 279/1/597 190/1/596
f 343/1/288 342/1/504 334/1/260 335/1/263
f 926/1/531 931/1/328 889/1/435 923/1/416
f 922/1/626 929/1/456 930/1/627 927/1/341
f 193/1/320 199/1/319 200/1/628 194/1/629
f 1017/1/630 1049/1/631 1048/1/632 1043/1/633
f 195/1/634 196/1/299 187/1/301 194/1/629
f 179/1/300 180/1/635 170/1/605 178/1/604
f 180/1/635 188/1/636 161/1/615 170/1/605
f 689/1/637 697/1/638 698/1/639 691/1/640
f 197/1/598 272/1/641 256/1/642 198/1/322
f 199/1/319 206/1/643 207/1/644 200/1/628
f 200/1/628 207/1/644 208/1/645 201/1/646
f 438/1/506 451/1/505 445/1/507 376/1/363
f 211/1/647 212/1/295 204/1/298 196/1/299
f 320/1/214 321/1/223 330/1/247 329/1/241
f 162/1/593 188/1/636 205/1/648 171/1/649
f 256/1/642 259/1/650 250/1/651 206/1/643
f 206/1/643 250/1/651 215/1/652 207/1/644
f 207/1/644 215/1/652 216/1/653 208/1/645
f 65/1/121 66/1/121 61/1/121 62/1/121
f 458/1/515 462/1/514 455/1/392 448/1/508
f 800/1/547 801/1/207 793/1/587 795/1/548
f 1052/1/60 1053/1/63 599/1/654 1046/1/655
f 250/1/651 251/1/656 243/1/657 215/1/652
f 215/1/652 243/1/657 223/1/441 216/1/653
f 216/1/653 223/1/441 224/1/444 217/1/658
f 202/1/659 203/1/660 195/1/634 201/1/646
f 672/1/27 783/1/294 668/1/287 669/1/286
f 188/1/636 162/1/593 152/1/592 161/1/615
f 290/1/661 296/1/662 291/1/663 268/1/664
f 210/1/297 205/1/648 188/1/636 180/1/635
f 666/1/22 687/1/21 686/1/665 679/1/666
f 227/1/667 218/1/668 203/1/660 202/1/659
f 978/1/601 984/1/536 937/1/325 979/1/530
f 979/1/530 937/1/325 931/1/328 926/1/531
f 613/1/272 634/1/669 614/1/541 607/1/273
f 205/1/648 214/1/573 181/1/562 171/1/649
f 226/1/580 233/1/670 209/1/671 217/1/658
f 234/1/612 235/1/672 227/1/667 233/1/670
f 235/1/672 241/1/673 218/1/668 227/1/667
f 219/1/487 220/1/486 212/1/295 211/1/647
f 228/1/259 229/1/258 221/1/572 220/1/486
f 229/1/258 230/1/242 222/1/245 221/1/572
f 241/1/673 249/1/485 219/1/487 218/1/668
f 225/1/212 226/1/580 217/1/658 224/1/444
f 255/1/611 261/1/674 235/1/672 234/1/612
f 261/1/674 267/1/675 241/1/673 235/1/672
f 422/1/503 421/1/478 415/1/428 341/1/436
f 10/1/15 6/1/676 5/1/677 9/1/15
f 953/1/537 954/1/476 900/1/678 948/1/326
f 303/1/561 304/1/198 313/1/197 312/1/391
f 224/1/444 231/1/443 232/1/213 225/1/212
f 285/1/679 290/1/661 261/1/674 255/1/611
f 290/1/661 268/1/664 267/1/675 261/1/674
f 813/1/680 839/1/681 807/1/682 806/1/683
f 269/1/424 242/1/423 236/1/256 262/1/684
f 268/1/664 269/1/424 262/1/684 267/1/675
f 237/1/257 236/1/256 242/1/423 163/1/585
f 243/1/657 244/1/685 238/1/442 223/1/441
f 137/1/187 145/1/331 146/1/334 138/1/188
f 276/1/425 269/1/424 268/1/664 291/1/663
f 370/1/353 369/1/348 363/1/337 364/1/336
f 276/1/425 291/1/663 286/1/522 282/1/521
f 251/1/656 252/1/686 244/1/685 243/1/657
f 339/1/276 349/1/275 348/1/314 347/1/313
f 246/1/687 247/1/688 245/1/211 239/1/210
f 291/1/663 296/1/662 292/1/689 286/1/522
f 289/1/690 296/1/662 290/1/661 285/1/679
f 69/1/691 74/1/144 73/1/144 70/1/692
f 251/1/656 250/1/651 259/1/650 257/1/693
f 233/1/670 226/1/580 240/1/579 234/1/612
f 247/1/688 248/1/610 240/1/579 245/1/211
f 253/1/350 254/1/349 247/1/688 246/1/687
f 823/1/134 824/1/137 809/1/204 818/1/694
f 198/1/322 256/1/642 206/1/643 199/1/319
f 690/1/695 699/1/696 697/1/638 689/1/637
f 272/1/641 278/1/697 259/1/650 256/1/642
f 971/1/193 998/1/195 966/1/698 965/1/699
f 772/1/700 778/1/26 678/1/25 685/1/701
f 833/1/617 834/1/702 819/1/703 829/1/618
f 278/1/697 272/1/641 293/1/704 287/1/705
f 1036/1/706 1050/1/707 1044/1/708 1038/1/84
f 361/1/330 360/1/323 353/1/50 354/1/311
f 254/1/349 273/1/709 248/1/610 247/1/688
f 278/1/697 263/1/710 257/1/693 259/1/650
f 292/1/689 295/1/440 294/1/439 288/1/625
f 643/1/569 644/1/711 636/1/420 635/1/419
f 294/1/439 283/1/438 287/1/705 293/1/704
f 270/1/712 263/1/710 278/1/697 287/1/705
f 273/1/709 285/1/679 255/1/611 248/1/610
f 265/1/35 280/1/713 273/1/709 254/1/349
f 640/1/368 647/1/714 730/1/715 721/1/716
f 1047/1/717 1034/1/382 1041/1/453 1055/1/39
f 463/1/528 465/1/555 464/1/481 453/1/473
f 868/1/551 869/1/718 812/1/719 864/1/552
f 274/1/34 281/1/437 280/1/713 265/1/35
f 430/1/449 437/1/470 431/1/469 390/1/450
f 277/1/720 283/1/438 281/1/437 274/1/34
f 281/1/437 295/1/440 289/1/690 280/1/713
f 79/1/24 80/1/24 76/1/131 75/1/130
f 703/1/177 724/1/721 710/1/722 704/1/723
f 467/1/724 472/1/725 471/1/726
f 472/1/725 473/1/727 471/1/726
f 510/1/728 491/1/168 501/1/81 518/1/103
f 1041/1/453 1034/1/382 748/1/381 726/1/454
f 499/1/729 481/1/169 491/1/168 510/1/728
f 63/1/71 68/1/730 67/1/731 64/1/71
f 565/1/509 581/1/128 587/1/732 566/1/733
f 629/1/554 637/1/734 632/1/735 623/1/175
f 623/1/175 632/1/735 630/1/736 631/1/737
f 656/1/738 632/1/735 637/1/734 650/1/739
f 673/1/740 694/1/741 680/1/152 674/1/155
f 486/1/742 548/1/743 542/1/124 484/1/744
f 582/1/745 628/1/421 588/1/553 548/1/743
f 628/1/421 636/1/420 629/1/554 588/1/553
f 573/1/408 565/1/509 554/1/746 552/1/409
f 638/1/747 639/1/748 631/1/737 630/1/736
f 549/1/749 582/1/745 548/1/743 486/1/742
f 96/1/112 97/1/112 93/1/112 92/1/112
f 622/1/422 628/1/421 582/1/745 575/1/750
f 882/1/265 923/1/416 889/1/435 883/1/266
f 451/1/505 458/1/515 448/1/508 445/1/507
f 584/1/751 591/1/752 590/1/753 583/1/584
f 644/1/711 649/1/754 650/1/739 637/1/734
f 638/1/747 652/1/755 646/1/756 639/1/748
f 494/1/757 534/1/758 526/1/759 503/1/760
f 544/1/761 842/1/236 564/1/762 559/1/763
f 615/1/764 622/1/422 575/1/750 568/1/765
f 700/1/766 713/1/767 693/1/768 692/1/769
f 118/1/162 119/1/162 115/1/770 114/1/771
f 664/1/772 630/1/736 632/1/735 656/1/738
f 502/1/79 512/1/773 511/1/80
f 504/1/774 513/1/775 514/1/776
f 819/1/703 834/1/702 835/1/777 820/1/778
f 114/1/771 115/1/770 110/1/779 111/1/779
f 681/1/154 702/1/153 696/1/780 688/1/781
f 630/1/736 664/1/772 659/1/782 638/1/747
f 652/1/755 638/1/747 659/1/782 658/1/783
f 512/1/773 519/1/102 511/1/80
f 503/1/760 513/1/775 504/1/774 495/1/784
f 513/1/775 520/1/785 514/1/776
f 703/1/177 704/1/723 696/1/780 702/1/153
f 101/1/786 97/1/112 96/1/112 100/1/787
f 509/1/788 516/1/789 500/1/790 499/1/729
f 494/1/757 503/1/760 495/1/784 485/1/791
f 516/1/789 525/1/792 515/1/793 500/1/790
f 723/1/535 724/1/721 703/1/177 717/1/176
f 603/1/156 611/1/794 609/1/795 604/1/157
f 673/1/740 674/1/155 649/1/754 665/1/796
f 107/1/779 111/1/779 110/1/779 106/1/779
f 1054/1/452 1059/1/40 1055/1/39 1041/1/453
f 484/1/744 494/1/757 485/1/791 478/1/797
f 723/1/535 753/1/798 732/1/799 724/1/721
f 732/1/799 733/1/800 710/1/722 724/1/721
f 270/1/712 287/1/705 283/1/438 277/1/720
f 672/1/27 669/1/286 663/1/801 671/1/28
f 822/1/802 852/1/400 811/1/399 817/1/803
f 383/1/804 438/1/506 376/1/363 375/1/362
f 732/1/799 744/1/805 738/1/806 733/1/800
f 1030/1/807 1047/1/717 1042/1/808 1035/1/809
f 695/1/388 780/1/390 716/1/810 709/1/811
f 1017/1/630 1018/1/812 1001/1/813 1012/1/814
f 753/1/798 723/1/535 722/1/534 731/1/815
f 589/1/125 542/1/124 548/1/743 588/1/553
f 833/1/617 905/1/434 893/1/816 834/1/702
f 270/1/712 271/1/817 264/1/818 263/1/710
f 654/1/819 660/1/820 657/1/821 651/1/568
f 340/1/280 331/1/222 298/1/225 300/1/277
f 186/1/622 193/1/320 194/1/629 187/1/301
f 575/1/750 582/1/745 549/1/749 555/1/284
f 732/1/799 753/1/798 752/1/822 744/1/805
f 731/1/815 769/1/823 752/1/822 753/1/798
f 814/1/607 832/1/824 830/1/825 825/1/45
f 858/1/397 872/1/826 863/1/549 859/1/398
f 608/1/827 642/1/540 615/1/764 568/1/765
f 568/1/765 575/1/750 555/1/284 561/1/283
f 752/1/822 762/1/828 745/1/829 744/1/805
f 745/1/829 746/1/830 738/1/806 744/1/805
f 675/1/20 786/1/389 695/1/388 687/1/21
f 177/1/603 185/1/613 186/1/622 178/1/604
f 809/1/204 824/1/137 815/1/831 810/1/205
f 889/1/435 905/1/434 833/1/617 883/1/266
f 569/1/832 608/1/827 568/1/765 561/1/283
f 11/1/42 15/1/56 12/1/59 8/1/43
f 407/1/309 414/1/448 410/1/484 403/1/387
f 754/1/833 760/1/834 755/1/835 746/1/830
f 563/1/90 571/1/89 562/1/11
f 654/1/819 655/1/836 661/1/285 660/1/820
f 953/1/537 984/1/536 982/1/600 980/1/837
f 655/1/836 654/1/819 648/1/539 641/1/538
f 607/1/273 608/1/827 569/1/832 602/1/274
f 601/1/271 602/1/274 574/1/838 594/1/839
f 570/1/87 577/1/840 576/1/88
f 745/1/829 762/1/828 759/1/841 754/1/833
f 759/1/841 855/1/842 760/1/834 754/1/833
f 830/1/825 844/1/174 836/1/173 831/1/843
f 662/1/844 663/1/801 655/1/836 641/1/538
f 766/1/229 767/1/845 761/1/846 760/1/834
f 156/1/577 165/1/252 166/1/255 157/1/578
f 668/1/287 790/1/293 675/1/20 667/1/23
f 634/1/669 662/1/844 641/1/538 614/1/541
f 372/1/351 396/1/358 393/1/371 371/1/352
f 483/1/847 478/1/797 477/1/848 479/1/849
f 773/1/228 774/1/850 767/1/845 766/1/229
f 182/1/524 284/1/523 190/1/596 183/1/609
f 861/1/226 766/1/229 760/1/834 855/1/842
f 151/1/571 160/1/581 161/1/615 152/1/592
f 477/1/848 478/1/797 470/1/851 469/1/852
f 773/1/228 784/1/853 597/1/854 774/1/850
f 349/1/275 379/1/303 373/1/342 348/1/314
f 26/1/19 30/1/18 27/1/5 23/1/4
f 671/1/28 663/1/801 662/1/844 670/1/855
f 204/1/298 210/1/297 180/1/635 179/1/300
f 469/1/852 470/1/851 466/1/856 468/1/857
f 854/1/858 880/1/859 861/1/226 855/1/842
f 854/1/858 855/1/842 759/1/841 848/1/860
f 634/1/669 627/1/861 670/1/855 662/1/844
f 555/1/284 549/1/749 493/1/862 496/1/281
f 960/1/460 980/1/837 902/1/619 895/1/461
f 467/1/724 471/1/726 468/1/857 466/1/856
f 468/1/857 474/1/863 475/1/864 469/1/852
f 473/1/727 474/1/863 468/1/857 471/1/726
f 627/1/861 634/1/669 613/1/272 621/1/865
f 566/1/733 574/1/838 567/1/489 560/1/488
f 594/1/839 574/1/838 566/1/733 587/1/732
f 355/1/312 356/1/315 363/1/337 362/1/329
f 622/1/422 615/1/764 645/1/570 635/1/419
f 609/1/795 611/1/794 616/1/866
f 476/1/170 477/1/848 469/1/852 475/1/864
f 611/1/794 618/1/867 616/1/866
f 991/1/108 993/1/494 911/1/493 986/1/109
f 619/1/868 620/1/869 601/1/271 594/1/839
f 935/1/338 943/1/870 940/1/871 936/1/339
f 476/1/170 480/1/872 479/1/849 477/1/848
f 413/1/594 420/1/559 419/1/526 412/1/446
f 619/1/868 625/1/873 624/1/874 620/1/869
f 789/1/292 795/1/548 793/1/587 790/1/293
f 439/1/270 452/1/447 440/1/875 432/1/431
f 612/1/370 633/1/369 625/1/873 619/1/868
f 942/1/876 959/1/877 947/1/878 943/1/870
f 517/1/879 523/1/880 522/1/119 521/1/881
f 899/1/463 917/1/882 909/1/354 904/1/357
f 676/1/95 677/1/98 670/1/855 627/1/861
f 488/1/883 498/1/884 497/1/885 487/1/886
f 480/1/872 490/1/887 489/1/888 488/1/883
f 577/1/840 584/1/751 583/1/584 576/1/88
f 677/1/98 678/1/25 671/1/28 670/1/855
f 390/1/450 431/1/469 383/1/804 384/1/889
f 565/1/509 566/1/733 560/1/488 554/1/746
f 489/1/888 508/1/890 498/1/884 488/1/883
f 498/1/884 507/1/891 505/1/490 497/1/885
f 554/1/746 560/1/488 505/1/490 507/1/891
f 492/1/82 501/1/81 491/1/168 482/1/167
f 5/1/677 6/1/676 2/1/2 1/1/1
f 515/1/793 541/1/892 508/1/890 489/1/888
f 535/1/396 557/1/14 556/1/13 550/1/47
f 508/1/890 547/1/466 507/1/891 498/1/884
f 552/1/409 554/1/746 507/1/891 547/1/466
f 646/1/756 652/1/755 653/1/893
f 716/1/810 776/1/894 731/1/815 722/1/534
f 499/1/729 500/1/790 490/1/887 481/1/169
f 567/1/489 569/1/832 561/1/283 506/1/282
f 541/1/892 546/1/467 547/1/466 508/1/890
f 652/1/755 658/1/783 653/1/893
f 657/1/821 679/1/666 673/1/740 665/1/796
f 98/1/100 99/1/100 94/1/100 95/1/100
f 149/1/563 158/1/589 159/1/582 150/1/564
f 606/1/127 612/1/370 587/1/732 581/1/128
f 572/1/407 593/1/895 580/1/129 573/1/408
f 681/1/154 656/1/738 650/1/739 674/1/155
f 558/1/896 551/1/410 546/1/467 553/1/897
f 558/1/896 579/1/898 572/1/407 551/1/410
f 586/1/899 593/1/895 572/1/407 579/1/898
f 600/1/126 647/1/714 640/1/368 606/1/127
f 481/1/169 490/1/887 480/1/872 476/1/170
f 599/1/654 600/1/126 580/1/129 593/1/895
f 586/1/899 1046/1/655 599/1/654 593/1/895
f 531/1/900 541/1/892 515/1/793 525/1/792
f 531/1/900 553/1/897 546/1/467 541/1/892
f 649/1/754 674/1/155 650/1/739
f 564/1/762 579/1/898 558/1/896 559/1/763
f 982/1/600 987/1/361 985/1/106 981/1/620
f 460/1/501 464/1/481 465/1/555 462/1/514
f 257/1/693 258/1/901 252/1/686 251/1/656
f 500/1/790 515/1/793 489/1/888 490/1/887
f 524/1/902 532/1/903 531/1/900 525/1/792
f 503/1/760 526/1/759 520/1/785 513/1/775
f 524/1/902 525/1/792 516/1/789 521/1/881
f 715/1/904 700/1/766 625/1/873 633/1/369
f 633/1/369 640/1/368 721/1/716 715/1/904
f 69/1/691 70/1/692 66/1/121 65/1/121
f 431/1/469 443/1/468 438/1/506 383/1/804
f 537/1/905 553/1/897 531/1/900 532/1/903
f 537/1/905 559/1/763 558/1/896 553/1/897
f 656/1/738 681/1/154 688/1/781
f 721/1/716 725/1/451 718/1/906 715/1/904
f 715/1/904 718/1/906 713/1/767 700/1/766
f 208/1/645 216/1/653 217/1/658 209/1/671
f 487/1/886 497/1/885 496/1/281 493/1/862
f 544/1/761 559/1/763 537/1/905 538/1/907
f 906/1/575 907/1/576 843/1/623 901/1/621
f 719/1/908 714/1/909 713/1/767 718/1/906
f 726/1/454 719/1/908 718/1/906 725/1/451
f 434/1/394 428/1/558 427/1/557 429/1/520
f 624/1/874 692/1/769 684/1/910 626/1/911
f 684/1/910 692/1/769 693/1/768 690/1/695
f 533/1/912 532/1/903 524/1/902 530/1/118
f 533/1/912 538/1/907 537/1/905 532/1/903
f 100/1/787 105/1/141 104/1/140 101/1/786
f 522/1/119 530/1/118 524/1/902 521/1/881
f 726/1/454 748/1/381 727/1/913 719/1/908
f 132/1/182 171/1/649 181/1/562 133/1/183
f 457/1/491 458/1/515 451/1/505 449/1/480
f 527/1/914 528/1/120 522/1/119 523/1/880
f 728/1/248 729/1/251 708/1/915 720/1/916
f 720/1/916 727/1/913 736/1/917 728/1/248
f 693/1/768 707/1/918 699/1/696 690/1/695
f 699/1/696 707/1/918 708/1/915 706/1/919
f 800/1/547 818/1/694 809/1/204 801/1/207
f 144/1/574 136/1/186 135/1/185 143/1/243
f 136/1/186 144/1/574 145/1/331 137/1/187
f 533/1/912 539/1/142 540/1/920 538/1/907
f 1010/1/921 1011/1/65 994/1/543 1006/1/922
f 697/1/638 699/1/696 706/1/919 705/1/923
f 853/1/924 860/1/925 845/1/926 847/1/927
f 771/1/364 847/1/927 845/1/926 840/1/365
f 529/1/117 539/1/142 533/1/912 530/1/118
f 484/1/744 542/1/124 534/1/758 494/1/757
f 749/1/383 1030/1/807 1025/1/928 747/1/929
f 853/1/924 870/1/930 865/1/496 860/1/925
f 826/1/931 846/1/932 822/1/802 821/1/933
f 677/1/98 683/1/97 685/1/701 678/1/25
f 691/1/640 765/1/934 685/1/701 683/1/97
f 391/1/413 390/1/450 384/1/889 385/1/386
f 545/1/46 831/1/843 540/1/920 539/1/142
f 701/1/533 717/1/176 680/1/152 694/1/741
f 686/1/665 694/1/741 673/1/740 679/1/666
f 131/1/181 162/1/593 171/1/649 132/1/182
f 734/1/250 737/1/935 711/1/936 729/1/251
f 20/1/73 21/1/76 16/1/58 19/1/57
f 968/1/518 972/1/616 963/1/937 962/1/519
f 736/1/917 740/1/938 735/1/249 728/1/248
f 952/1/164 958/1/939 950/1/940 949/1/165
f 734/1/250 739/1/941 737/1/935
f 734/1/250 735/1/249 739/1/941
f 735/1/249 740/1/938 739/1/941
f 736/1/917 741/1/384 740/1/938
f 765/1/934 781/1/942 772/1/700 685/1/701
f 737/1/935 739/1/941 742/1/380
f 712/1/943 742/1/380 743/1/379
f 727/1/913 748/1/381 741/1/384 736/1/917
f 72/1/132 67/1/731 68/1/730 71/1/133
f 740/1/938 747/1/929 739/1/941
f 404/1/267 386/1/385 387/1/372 398/1/268
f 756/1/378 770/1/402 751/1/944 743/1/379
f 741/1/384 749/1/383 747/1/929 740/1/938
f 742/1/380 739/1/941 750/1/377
f 43/1/945 44/1/946 40/1/29 39/1/32
f 705/1/923 751/1/944 698/1/639 697/1/638
f 478/1/797 483/1/847 486/1/742 484/1/744
f 746/1/830 745/1/829 754/1/833
f 517/1/879 521/1/881 516/1/789 509/1/788
f 392/1/414 391/1/413 385/1/386 386/1/385
f 750/1/377 739/1/941 757/1/947
f 384/1/889 383/1/804 375/1/362 377/1/948
f 527/1/914 536/1/949 535/1/396 528/1/120
f 275/1/950 277/1/720 274/1/34 266/1/33
f 643/1/569 665/1/796 649/1/754 644/1/711
f 366/1/346 442/1/395 359/1/324 360/1/323
f 755/1/835 760/1/834 761/1/846
f 757/1/947 739/1/941 764/1/367
f 757/1/947 764/1/367 763/1/366
f 85/1/149 90/1/99 89/1/101 86/1/150
f 843/1/623 856/1/624 838/1/951 839/1/681
f 144/1/574 153/1/542 154/1/332 145/1/331
f 1034/1/382 1047/1/717 1030/1/807 749/1/383
f 1030/1/807 1035/1/809 1019/1/952 1026/1/953
f 764/1/367 739/1/941 771/1/364
f 1057/1/62 1059/1/40 1054/1/452 730/1/715
f 1053/1/63 1057/1/62 730/1/715 647/1/714
f 610/1/161 618/1/867 611/1/794 603/1/156
f 874/1/606 875/1/135 823/1/134 869/1/718
f 1010/1/921 1020/1/954 1003/1/66 1011/1/65
f 909/1/354 933/1/955 918/1/455 910/1/355
f 730/1/715 1054/1/452 725/1/451 721/1/716
f 385/1/386 384/1/889 377/1/948 378/1/373
f 1001/1/813 999/1/511 996/1/510 1000/1/956
f 194/1/629 200/1/628 201/1/646 195/1/634
f 626/1/911 676/1/95 627/1/861 621/1/865
f 488/1/883 487/1/886 479/1/849 480/1/872
f 841/1/237 842/1/236 544/1/761 837/1/957
f 312/1/391 358/1/304 302/1/305 303/1/561
f 794/1/958 796/1/959 782/1/960 788/1/961
f 378/1/373 377/1/948 370/1/353 371/1/352
f 1045/1/962 1046/1/655 586/1/899 1040/1/963
f 940/1/871 974/1/964 934/1/529 936/1/339
f 791/1/965 792/1/966 590/1/753 784/1/853
f 932/1/327 944/1/967 893/1/816 905/1/434
f 1029/1/235 1040/1/963 564/1/762 842/1/236
f 316/1/202 317/1/209 326/1/264 325/1/232
f 1039/1/968 1045/1/962 1040/1/963 1029/1/235
f 1044/1/708 1058/1/61 1052/1/60 1051/1/969
f 1056/1/37 1058/1/61 1044/1/708 1050/1/707
f 1037/1/85 1051/1/969 1045/1/962 1039/1/968
f 945/1/970 951/1/971 942/1/876 941/1/972
f 410/1/484 416/1/483 413/1/594 406/1/595
f 944/1/967 900/1/678 894/1/973 885/1/974
f 1037/1/85 1039/1/968 1021/1/975 1033/1/86
f 1021/1/975 1039/1/968 1029/1/235 1022/1/234
f 102/1/976 103/1/977 99/1/100 98/1/100
f 805/1/462 806/1/683 605/1/978 799/1/979
f 885/1/974 894/1/973 879/1/980 880/1/859
f 893/1/816 944/1/967 885/1/974 886/1/981
f 1021/1/975 1022/1/234 857/1/982 1016/1/983
f 857/1/982 1022/1/234 841/1/237 850/1/172
f 838/1/951 856/1/624 849/1/171 844/1/174
f 1023/1/984 1024/1/985 1005/1/986 1018/1/812
f 914/1/405 915/1/417 874/1/606 908/1/406
f 714/1/909 720/1/916 708/1/915 707/1/918
f 592/1/583 799/1/979 605/1/978 598/1/565
f 376/1/363 445/1/507 367/1/345 368/1/347
f 768/1/987 848/1/860 759/1/841 762/1/828
f 459/1/525 452/1/447 412/1/446 419/1/526
f 752/1/822 769/1/823 768/1/987 762/1/828
f 863/1/549 864/1/552 803/1/988 859/1/398
f 849/1/171 867/1/219 857/1/982 850/1/172
f 871/1/498 891/1/989 877/1/990 872/1/826
f 938/1/166 949/1/165 945/1/970 939/1/991
f 288/1/625 294/1/439 293/1/704 279/1/597
f 1048/1/632 1050/1/707 1036/1/706 1043/1/633
f 913/1/218 1016/1/983 857/1/982 867/1/219
f 1015/1/992 1016/1/983 913/1/218 1009/1/993
f 716/1/810 722/1/534 701/1/533 709/1/811
f 1042/1/808 1060/1/38 1048/1/632 1049/1/631
f 920/1/415 925/1/532 926/1/531 923/1/416
f 862/1/220 867/1/219 849/1/171 856/1/624
f 311/1/217 299/1/224 321/1/223 320/1/214
f 731/1/815 776/1/894 775/1/994 769/1/823
f 775/1/994 820/1/778 768/1/987 769/1/823
f 418/1/433 417/1/411 392/1/414 411/1/430
f 708/1/915 729/1/251 711/1/936 706/1/919
f 807/1/682 839/1/681 838/1/951 832/1/824
f 922/1/626 921/1/995 914/1/405 916/1/404
f 779/1/996 816/1/997 775/1/994 776/1/894
f 716/1/810 780/1/390 779/1/996 776/1/894
f 819/1/703 820/1/778 775/1/994 816/1/997
f 950/1/940 956/1/998 955/1/999 951/1/971
f 785/1/206 810/1/205 779/1/996 780/1/390
f 172/1/426 276/1/425 282/1/521 173/1/253
f 421/1/478 422/1/503 423/1/556 416/1/483
f 828/1/136 829/1/618 815/1/831 824/1/137
f 1019/1/952 1035/1/809 1014/1/1000 1013/1/1001
f 1042/1/808 1049/1/631 1014/1/1000 1035/1/809
f 771/1/364 739/1/941 847/1/927
f 815/1/831 816/1/997 779/1/996 810/1/205
f 815/1/831 829/1/618 819/1/703 816/1/997
f 209/1/671 233/1/670 227/1/667 202/1/659
f 1014/1/1000 1049/1/631 1017/1/630 1012/1/814
f 847/1/927 739/1/941 853/1/924
f 1014/1/1000 1012/1/814 1007/1/1002 1013/1/1001
f 228/1/259 249/1/485 262/1/684 236/1/256
f 902/1/619 901/1/621 813/1/680 895/1/461
f 1036/1/706 1038/1/84 1032/1/83 1031/1/1003
f 928/1/340 936/1/339 934/1/529 925/1/532
f 1023/1/984 1043/1/633 1036/1/706 1031/1/1003
f 924/1/1004 933/1/955 909/1/354 917/1/882
f 176/1/602 168/1/590 167/1/588 175/1/608
f 854/1/858 886/1/981 885/1/974 880/1/859
f 590/1/753 792/1/966 592/1/583 583/1/584
f 624/1/874 626/1/911 621/1/865 620/1/869
f 263/1/710 264/1/818 258/1/901 257/1/693
f 1027/1/1005 1031/1/1003 1032/1/83 1028/1/1006
f 1023/1/984 1031/1/1003 1027/1/1005 1024/1/985
f 1007/1/1002 1012/1/814 1001/1/813 1000/1/956
f 280/1/713 289/1/690 285/1/679 273/1/709
f 1027/1/1005 1028/1/1006 1008/1/1007 1020/1/954
f 1008/1/1007 1028/1/1006 1015/1/992 1009/1/993
f 853/1/924 739/1/941 870/1/930
f 812/1/719 869/1/718 823/1/134 818/1/694
f 1001/1/813 1018/1/812 1005/1/986 999/1/511
f 919/1/495 1009/1/993 913/1/218 912/1/221
f 1008/1/1007 1009/1/993 919/1/495 1002/1/1008
f 890/1/464 904/1/357 896/1/356 891/1/989
f 870/1/930 739/1/941 876/1/1009
f 1005/1/986 1024/1/985 1010/1/921 1006/1/922
f 830/1/825 831/1/843 545/1/46 825/1/45
f 798/1/1010 799/1/979 592/1/583 792/1/966
f 791/1/965 881/1/1011 798/1/1010 792/1/966
f 427/1/557 423/1/556 422/1/503 424/1/502
f 987/1/361 978/1/601 974/1/964 973/1/360
f 406/1/595 413/1/594 412/1/446 405/1/269
f 900/1/678 954/1/476 887/1/477 894/1/973
f 879/1/980 894/1/973 887/1/477 881/1/1011
f 798/1/1010 888/1/459 805/1/462 799/1/979
f 893/1/816 886/1/981 835/1/777 834/1/702
f 564/1/762 1040/1/963 586/1/899 579/1/898
f 743/1/379 751/1/944 705/1/923 712/1/943
f 1005/1/986 1006/1/922 990/1/512 999/1/511
f 876/1/1009 739/1/941 892/1/465
f 661/1/285 667/1/23 666/1/22 660/1/820
f 953/1/537 980/1/837 960/1/460 954/1/476
f 184/1/614 176/1/602 175/1/608 183/1/609
f 267/1/675 262/1/684 249/1/485 241/1/673
f 836/1/173 837/1/957 540/1/920 831/1/843
f 990/1/512 1006/1/922 994/1/543 988/1/1012
f 845/1/926 860/1/925 851/1/1013 846/1/932
f 1003/1/66 1020/1/954 1008/1/1007 1002/1/1008
f 990/1/512 988/1/1012 983/1/1014 989/1/513
f 892/1/465 739/1/941 899/1/463
f 861/1/226 880/1/859 879/1/980 873/1/227
f 879/1/980 881/1/1011 791/1/965 873/1/227
f 807/1/682 808/1/1015 605/1/978 806/1/683
f 897/1/403 908/1/406 868/1/551 878/1/550
f 666/1/22 679/1/666 657/1/821 660/1/820
f 176/1/602 184/1/614 185/1/613 177/1/603
f 982/1/600 981/1/620 902/1/619 980/1/837
f 994/1/543 995/1/544 975/1/1016 988/1/1012
f 983/1/1014 988/1/1012 975/1/1016 976/1/1017
f 191/1/599 197/1/598 198/1/322 192/1/321
f 985/1/106 986/1/109 906/1/575 981/1/620
f 432/1/431 440/1/875 433/1/1018 426/1/432
f 845/1/926 846/1/932 826/1/931 840/1/365
f 997/1/194 1002/1/1008 919/1/495 993/1/494
f 997/1/194 1004/1/67 1003/1/66 1002/1/1008
f 899/1/463 739/1/941 917/1/882
f 995/1/544 977/1/64 972/1/616 968/1/518
f 975/1/1016 995/1/544 968/1/518 969/1/517
f 1015/1/992 1033/1/86 1021/1/975 1016/1/983
f 222/1/245 189/1/244 181/1/562 214/1/573
f 966/1/698 998/1/195 991/1/108 992/1/107
f 601/1/271 620/1/869 621/1/865 613/1/272
f 807/1/682 832/1/824 814/1/607 808/1/1015
f 648/1/539 654/1/819 651/1/568 645/1/570
f 917/1/882 739/1/941 924/1/1004
f 970/1/1019 976/1/1017 975/1/1016 969/1/517
f 203/1/660 211/1/647 196/1/299 195/1/634
f 1045/1/962 1051/1/969 1052/1/60 1046/1/655
f 402/1/317 409/1/316 408/1/429 401/1/308
f 84/1/24 88/1/24 87/1/113 83/1/24
f 963/1/937 972/1/616 971/1/193 965/1/699
f 440/1/875 446/1/472 441/1/475 433/1/1018
f 835/1/777 886/1/981 854/1/858 848/1/860
f 813/1/680 901/1/621 843/1/623 839/1/681
f 992/1/107 973/1/360 967/1/1020 966/1/698
f 642/1/540 648/1/539 645/1/570 615/1/764
f 966/1/698 967/1/1020 947/1/878 965/1/699
f 963/1/937 965/1/699 947/1/878 959/1/877
f 403/1/387 410/1/484 406/1/595 399/1/418
f 328/1/238 329/1/241 338/1/290 337/1/289
f 435/1/527 436/1/393 465/1/555 463/1/528
f 597/1/854 784/1/853 590/1/753 591/1/752
f 947/1/878 967/1/1020 940/1/871 943/1/870
f 973/1/360 974/1/964 940/1/871 967/1/1020
f 396/1/358 403/1/387 399/1/418 393/1/371
f 605/1/978 808/1/1015 578/1/458 598/1/565
f 1044/1/708 1051/1/969 1037/1/85 1038/1/84
f 955/1/999 959/1/877 942/1/876 951/1/971
f 961/1/516 962/1/519 955/1/999 956/1/998
f 924/1/1004 739/1/941 946/1/163
f 942/1/876 943/1/870 935/1/338 941/1/972
f 365/1/335 380/1/344 372/1/351 364/1/336
f 279/1/597 293/1/704 272/1/641 197/1/598
f 946/1/163 739/1/941 952/1/164
f 957/1/1021 964/1/1022 961/1/516 956/1/998
f 950/1/940 958/1/939 957/1/1021 956/1/998
f 932/1/327 948/1/326 900/1/678 944/1/967
f 333/1/261 334/1/260 342/1/504 341/1/436
f 706/1/919 711/1/936 712/1/943 705/1/923
f 950/1/940 951/1/971 945/1/970 949/1/165
f 386/1/385 404/1/267 411/1/430 392/1/414
f 952/1/164 739/1/941 958/1/939
f 957/1/1021 958/1/939 739/1/941
f 574/1/838 602/1/274 569/1/832 567/1/489
f 805/1/462 895/1/461 813/1/680 806/1/683
f 773/1/228 873/1/227 791/1/965 784/1/853
f 1027/1/1005 1020/1/954 1010/1/921 1024/1/985
f 719/1/908 727/1/913 720/1/916 714/1/909
f 945/1/970 941/1/972 930/1/627 939/1/991
f 836/1/173 850/1/172 841/1/237 837/1/957
f 957/1/1021 739/1/941 964/1/1022
f 868/1/551 908/1/406 874/1/606 869/1/718
f 918/1/455 939/1/991 930/1/627 929/1/456
f 938/1/166 939/1/991 918/1/455 933/1/955
f 924/1/1004 946/1/163 938/1/166 933/1/955
f 964/1/1022 739/1/941 970/1/1019
f 152/1/592 130/1/180 129/1/179 151/1/571
f 927/1/341 928/1/340 921/1/995 922/1/626
f 493/1/862 549/1/749 486/1/742 483/1/847
f 626/1/911 684/1/910 682/1/96 676/1/95
f 1017/1/630 1043/1/633 1023/1/984 1018/1/812
f 1055/1/39 1060/1/38 1042/1/808 1047/1/717
f 970/1/1019 739/1/941 976/1/1017
f 787/1/1023 817/1/803 794/1/958 788/1/961
f 903/1/457 929/1/456 922/1/626 916/1/404
f 218/1/668 219/1/487 211/1/647 203/1/660
f 213/1/296 214/1/573 205/1/648 210/1/297
f 339/1/276 338/1/290 329/1/241 330/1/247
f 657/1/821 665/1/796 643/1/569 651/1/568
f 614/1/541 642/1/540 608/1/827 607/1/273
f 976/1/1017 739/1/941 983/1/1014
f 377/1/948 375/1/362 369/1/348 370/1/353
f 814/1/607 585/1/12 578/1/458 808/1/1015
f 148/1/567 157/1/578 158/1/589 149/1/563
f 978/1/601 979/1/530 934/1/529 974/1/964
f 497/1/885 505/1/490 506/1/282 496/1/281
f 983/1/1014 739/1/941 989/1/513
f 459/1/525 463/1/528 453/1/473 446/1/472
f 695/1/388 709/1/811 686/1/665 687/1/21
f 612/1/370 619/1/868 594/1/839 587/1/732
f 921/1/995 928/1/340 925/1/532 920/1/415
f 890/1/464 891/1/989 871/1/498 884/1/497
f 102/1/976 107/1/779 106/1/779 103/1/977
f 896/1/356 910/1/355 903/1/457 898/1/1024
f 989/1/513 739/1/941 996/1/510
f 876/1/1009 892/1/465 890/1/464 884/1/497
f 914/1/405 921/1/995 920/1/415 915/1/417
f 540/1/920 837/1/957 544/1/761 538/1/907
f 835/1/777 848/1/860 768/1/987 820/1/778
f 996/1/510 739/1/941 1000/1/956
f 876/1/1009 884/1/497 865/1/496 870/1/930
f 930/1/627 941/1/972 935/1/338 927/1/341
f 903/1/457 916/1/404 897/1/403 898/1/1024
f 543/1/93 557/1/14 535/1/396 536/1/949
f 838/1/951 844/1/174 830/1/825 832/1/824
f 1000/1/956 739/1/941 1007/1/1002
f 42/1/69 45/1/69 41/1/69 36/1/68
f 452/1/447 459/1/525 446/1/472 440/1/875
f 789/1/292 796/1/959 797/1/545 795/1/548
f 3/1/3 7/1/41 4/1/44 1/1/1
f 896/1/356 898/1/1024 877/1/990 891/1/989
f 877/1/990 898/1/1024 897/1/403 878/1/550
f 1007/1/1002 739/1/941 1013/1/1001
f 209/1/671 202/1/659 201/1/646 208/1/645
f 48/1/54 44/1/946 43/1/945 47/1/55
f 286/1/522 292/1/689 288/1/625 284/1/523
f 714/1/909 707/1/918 693/1/768 713/1/767
f 865/1/496 866/1/499 851/1/1013 860/1/925
f 1013/1/1001 739/1/941 1019/1/952
f 292/1/689 296/1/662 289/1/690 295/1/440
f 624/1/874 625/1/873 700/1/766 692/1/769
f 812/1/719 818/1/694 800/1/547 804/1/546
f 871/1/498 872/1/826 858/1/397 866/1/499
f 851/1/1013 866/1/499 858/1/397 852/1/400
f 739/1/941 747/1/929 1025/1/928
f 757/1/947 763/1/366 756/1/378 750/1/377
f 739/1/941 1026/1/953 1019/1/952
f 739/1/941 1025/1/928 1026/1/953
f 686/1/665 709/1/811 701/1/533 694/1/741
f 877/1/990 878/1/550 863/1/549 872/1/826
f 487/1/886 493/1/862 483/1/847 479/1/849
f 793/1/587 801/1/207 785/1/206 786/1/389
f 382/1/374 374/1/302 340/1/280 350/1/279
f 333/1/261 332/1/427 323/1/231 324/1/230
f 1025/1/928 1030/1/807 1026/1/953
f 970/1/1019 969/1/517 961/1/516 964/1/1022
f 803/1/988 864/1/552 812/1/719 804/1/546
f 428/1/558 435/1/527 419/1/526 420/1/559
f 277/1/720 275/1/950 271/1/817 270/1/712
f 1048/1/632 1060/1/38 1056/1/37 1050/1/707
f 811/1/399 859/1/398 803/1/988 802/1/1025
f 319/1/215 318/1/240 309/1/445 310/1/216
f 803/1/988 804/1/546 797/1/545 802/1/1025
f 751/1/944 770/1/402 758/1/1026 698/1/639
f 758/1/1026 765/1/934 691/1/640 698/1/639
f 663/1/801 669/1/286 661/1/285 655/1/836
f 763/1/366 840/1/365 826/1/931 827/1/401
f 794/1/958 802/1/1025 797/1/545 796/1/959
f 794/1/958 817/1/803 811/1/399 802/1/1025
f 429/1/520 427/1/557 424/1/502 351/1/306
f 348/1/314 373/1/342 365/1/335 356/1/315
f 682/1/96 684/1/910 690/1/695 689/1/637
f 851/1/1013 852/1/400 822/1/802 846/1/932
f 636/1/420 644/1/711 637/1/734 629/1/554
f 737/1/935 742/1/380 712/1/943 711/1/936
f 782/1/960 796/1/959 789/1/292 783/1/294
f 782/1/960 783/1/294 672/1/27 778/1/26
f 1032/1/83 1033/1/86 1015/1/992 1028/1/1006
f 770/1/402 827/1/401 777/1/1027 758/1/1026
f 777/1/1027 781/1/942 765/1/934 758/1/1026
f 777/1/1027 827/1/401 826/1/931 821/1/933
f 955/1/999 962/1/519 963/1/937 959/1/877
f 787/1/1023 821/1/933 822/1/802 817/1/803
f 689/1/637 691/1/640 683/1/97 682/1/96
f 599/1/654 1053/1/63 647/1/714 600/1/126
f 772/1/700 788/1/961 782/1/960 778/1/26
f 787/1/1023 788/1/961 772/1/700 781/1/942
f 777/1/1027 821/1/933 787/1/1023 781/1/942
f 887/1/477 888/1/459 798/1/1010 881/1/1011
