# Blender 4.3.2
# www.blender.org
o hair.126
v 7.686205 0.860406 -0.015628
v 7.690179 0.857370 -0.018506
v 7.697088 0.881205 -0.007374
v 7.682711 0.863990 -0.012232
v 7.679827 0.868014 -0.008660
v 7.676184 0.876941 -0.001824
v 7.689891 0.885759 -0.001943
v 7.704995 0.879843 -0.009276
v 7.694687 0.855028 -0.020724
v 7.680100 0.894335 0.006562
v 7.674695 0.886027 0.004881
v 7.699710 0.853572 -0.022110
v 7.676306 0.888520 0.010811
v 7.680805 0.895426 0.009098
v 7.704995 0.853065 -0.022594
v 7.710279 0.853572 -0.022110
v 7.715302 0.855028 -0.020724
v 7.719810 0.857370 -0.018506
v 7.712901 0.881205 -0.007374
v 7.681518 0.896495 0.011605
v 7.678004 0.891066 0.016648
v 7.723784 0.860406 -0.015628
v 7.733806 0.876941 -0.001824
v 7.720098 0.885759 -0.001943
v 7.730162 0.868014 -0.008660
v 7.727278 0.863990 -0.012232
v 7.682967 0.898819 0.015175
v 7.679954 0.894257 0.022010
v 7.729889 0.894335 0.006562
v 7.735295 0.886027 0.004881
v 7.684480 0.901504 0.019146
v 7.682027 0.898047 0.026768
v 7.733684 0.888520 0.010811
v 7.729184 0.895426 0.009098
v 7.686192 0.904847 0.021505
v 7.684092 0.902475 0.030748
v 7.728471 0.896495 0.011605
v 7.731985 0.891066 0.016648
v 7.687889 0.908501 0.023520
v 7.686194 0.907519 0.033843
v 7.727022 0.898819 0.015175
v 7.730035 0.894257 0.022010
v 7.689474 0.912199 0.024609
v 7.688369 0.913156 0.035950
v 7.725509 0.901504 0.019146
v 7.727962 0.898047 0.026768
v 7.690924 0.915853 0.025320
v 7.690382 0.918653 0.036629
v 7.723797 0.904847 0.021505
v 7.725897 0.902475 0.030748
v 7.692248 0.919048 0.024611
v 7.691990 0.923266 0.035434
v 7.722101 0.908501 0.023520
v 7.723795 0.907519 0.033843
v 7.693318 0.927405 0.033263
v 7.693404 0.922093 0.023656
v 7.720515 0.912199 0.024609
v 7.721620 0.913156 0.035950
v 7.704995 0.915009 0.010846
v 7.704995 0.924019 0.028054
v 7.719065 0.915853 0.025320
v 7.719607 0.918653 0.036629
v 7.716671 0.927405 0.033263
v 7.716585 0.922093 0.023656
v 7.717741 0.919048 0.024611
v 7.717999 0.923266 0.035434
v 7.704076 0.937970 -0.007102
v 7.703198 0.938017 -0.006755
v 7.704995 0.939120 -0.001681
v 7.704995 0.937971 -0.007175
v 7.703662 0.937249 -0.009390
v 7.702369 0.937309 -0.008934
v 7.704995 0.937235 -0.009523
v 7.702363 0.938058 -0.006272
v 7.705914 0.937970 -0.007102
v 7.701550 0.936500 -0.011082
v 7.703254 0.936428 -0.011646
v 7.704995 0.936398 -0.011838
v 7.701138 0.937380 -0.008230
v 7.706326 0.937249 -0.009390
v 7.701658 0.938141 -0.005559
v 7.700060 0.937486 -0.007251
v 7.706791 0.938017 -0.006755
v 7.707620 0.937309 -0.008934
v 7.702765 0.935144 -0.014198
v 7.704995 0.935099 -0.014443
v 7.699926 0.936601 -0.010158
v 7.700591 0.935251 -0.013485
v 7.706735 0.936428 -0.011646
v 7.698481 0.936731 -0.008916
v 7.708439 0.936500 -0.011082
v 7.697318 0.936888 -0.007398
v 7.699172 0.937603 -0.006081
v 7.707626 0.938058 -0.006272
v 7.708852 0.937380 -0.008230
v 7.698532 0.935394 -0.012330
v 7.702288 0.933714 -0.016673
v 7.699656 0.933855 -0.015815
v 7.707224 0.935144 -0.014198
v 7.696720 0.935575 -0.010761
v 7.708332 0.938141 -0.005559
v 7.709929 0.937486 -0.007251
v 7.711509 0.936731 -0.008916
v 7.710063 0.936601 -0.010158
v 7.697173 0.934040 -0.014435
v 7.698692 0.932136 -0.018189
v 7.704995 0.933654 -0.016971
v 7.695004 0.934271 -0.012549
v 7.695295 0.935793 -0.008815
v 7.711457 0.935394 -0.012330
v 7.709398 0.935251 -0.013485
v 7.695833 0.932378 -0.016551
v 7.693384 0.932681 -0.014299
v 7.693326 0.934549 -0.010184
v 7.691538 0.933042 -0.011451
v 7.694276 0.936057 -0.006556
v 7.696466 0.937078 -0.005627
v 7.707701 0.933714 -0.016673
v 7.710334 0.933855 -0.015815
v 7.701784 0.931961 -0.019209
v 7.704995 0.931891 -0.019566
v 7.698539 0.937753 -0.004706
v 7.695957 0.937306 -0.003625
v 7.701046 0.938216 -0.004741
v 7.712816 0.934040 -0.014435
v 7.711298 0.932136 -0.018189
v 7.697752 0.930310 -0.020491
v 7.708205 0.931961 -0.019209
v 7.704995 0.930021 -0.022085
v 7.700634 0.938326 -0.003766
v 7.713269 0.935575 -0.010761
v 7.694530 0.930608 -0.018602
v 7.701293 0.930102 -0.021671
v 7.700342 0.938428 -0.002723
v 7.698138 0.937918 -0.003182
v 7.714986 0.934271 -0.012549
v 7.714694 0.935793 -0.008815
v 7.712671 0.936888 -0.007398
v 7.691813 0.930984 -0.015992
v 7.689811 0.931430 -0.012673
v 7.700715 0.927416 -0.024371
v 7.716606 0.932681 -0.014299
v 7.714156 0.932378 -0.016551
v 7.710817 0.937603 -0.006081
v 7.687754 0.928939 -0.013956
v 7.688465 0.931962 -0.008918
v 7.690270 0.933477 -0.008200
v 7.712237 0.930310 -0.020491
v 7.715459 0.930608 -0.018602
v 7.708943 0.938216 -0.004741
v 7.689536 0.934000 -0.004712
v 7.691450 0.935297 -0.004431
v 7.692144 0.934887 -0.007447
v 7.716975 0.927958 -0.020801
v 7.718175 0.930984 -0.015992
v 7.708697 0.930102 -0.021671
v 7.709355 0.938326 -0.003766
v 7.711450 0.937753 -0.004706
v 7.693673 0.936377 -0.004042
v 7.720178 0.931430 -0.012673
v 7.718451 0.933042 -0.011451
v 7.709274 0.927416 -0.024371
v 7.704995 0.927360 -0.024820
v 7.713523 0.937078 -0.005627
v 7.695783 0.937547 -0.001546
v 7.716663 0.934549 -0.010184
v 7.713340 0.927608 -0.023030
v 7.704995 0.924231 -0.027186
v 7.714033 0.937306 -0.003625
v 7.715714 0.936057 -0.006556
v 7.698020 0.938102 -0.001592
v 7.717845 0.934887 -0.007447
v 7.719719 0.933477 -0.008200
v 7.714313 0.924431 -0.025260
v 7.711852 0.937918 -0.003182
v 7.716317 0.936377 -0.004042
v 7.714206 0.937547 -0.001546
v 7.700280 0.938553 -0.001628
v 7.718540 0.935297 -0.004431
v 7.721524 0.931962 -0.008918
v 7.709775 0.924265 -0.026726
v 7.709648 0.938428 -0.002723
v 7.711969 0.938102 -0.001592
v 7.716512 0.936712 -0.001468
v 7.714045 0.937776 0.000456
v 7.718757 0.935725 -0.001370
v 7.720454 0.934000 -0.004712
v 7.722235 0.928939 -0.013956
v 7.710210 0.920340 -0.028977
v 7.709710 0.938553 -0.001628
v 7.711858 0.938269 -0.000046
v 7.716304 0.937022 0.000971
v 7.713526 0.937993 0.002359
v 7.720003 0.928419 -0.017746
v 7.709648 0.938659 -0.000540
v 7.711450 0.938437 0.001422
v 7.715658 0.937323 0.003281
v 7.718504 0.936115 0.001495
v 7.712622 0.938202 0.004141
v 7.721673 0.925291 -0.019231
v 7.718335 0.924790 -0.022702
v 7.709352 0.938777 0.000489
v 7.710788 0.938590 0.002804
v 7.720665 0.934541 -0.001225
v 7.720356 0.935026 0.002009
v 7.719604 0.920815 -0.024537
v 7.715183 0.920511 -0.027406
v 7.708934 0.938873 0.001467
v 7.711401 0.938389 0.005686
v 7.709867 0.938732 0.003987
v 7.722296 0.932597 -0.004967
v 7.715892 0.916030 -0.029195
v 7.710561 0.915867 -0.030836
v 7.704995 0.920288 -0.029436
v 7.704995 0.915804 -0.031286
v 7.708315 0.938970 0.002285
v 7.714537 0.937632 0.005473
v 7.723727 0.929567 -0.009694
v 7.724563 0.930345 -0.005188
v 7.710801 0.911114 -0.031997
v 7.699779 0.920340 -0.028977
v 7.700214 0.924265 -0.026726
v 7.707608 0.939039 0.002993
v 7.708777 0.938844 0.004938
v 7.717735 0.936498 0.004203
v 7.725843 0.926607 -0.010329
v 7.724160 0.925879 -0.015041
v 7.695677 0.924431 -0.025260
v 7.696649 0.927608 -0.023030
v 7.709932 0.938544 0.006877
v 7.716404 0.936906 0.006797
v 7.719494 0.935516 0.005062
v 7.726037 0.921977 -0.016035
v 7.723278 0.921291 -0.020654
v 7.693015 0.927958 -0.020801
v 7.713020 0.937916 0.007400
v 7.718047 0.936070 0.008023
v 7.721189 0.934420 0.005917
v 7.722139 0.933827 0.002527
v 7.724648 0.916689 -0.021853
v 7.720662 0.916262 -0.026089
v 7.711186 0.938139 0.008913
v 7.714599 0.937283 0.009099
v 7.722502 0.933248 -0.001064
v 7.724327 0.931843 0.003337
v 7.721379 0.911393 -0.027126
v 7.716374 0.911207 -0.030338
v 7.689986 0.928419 -0.017746
v 7.716068 0.936598 0.010712
v 7.708318 0.938652 0.007726
v 7.716656 0.906623 -0.030956
v 7.688317 0.925291 -0.019231
v 7.691654 0.924790 -0.022702
v 7.719634 0.935116 0.009238
v 7.707551 0.938929 0.005598
v 7.712410 0.937573 0.010929
v 7.709159 0.938278 0.009977
v 7.690385 0.920815 -0.024537
v 7.694807 0.920511 -0.027406
v 7.717493 0.935792 0.012309
v 7.721675 0.933502 0.010934
v 7.723291 0.932579 0.007166
v 7.706774 0.939099 0.003463
v 7.694097 0.916030 -0.029195
v 7.699428 0.915867 -0.030836
v 7.714795 0.936316 0.014935
v 7.713618 0.937008 0.012943
v 7.725421 0.930192 0.008548
v 7.705904 0.939126 0.003806
v 7.706285 0.938968 0.006029
v 7.706662 0.938704 0.008242
v 7.699188 0.911114 -0.031997
v 7.704995 0.911092 -0.032434
v 7.704995 0.939141 0.003874
v 7.704995 0.938981 0.006151
v 7.704995 0.938715 0.008419
v 7.707077 0.938307 0.010546
v 7.704995 0.906641 -0.033033
v 7.710941 0.906612 -0.032607
v 7.709983 0.937741 0.012202
v 7.710837 0.937229 0.014489
v 7.704085 0.939126 0.003806
v 7.703704 0.938968 0.006029
v 7.704995 0.938295 0.010706
v 7.707486 0.937749 0.012817
v 7.710996 0.902856 -0.032821
v 7.707916 0.937195 0.015101
v 7.711677 0.936590 0.016748
v 7.703215 0.939099 0.003463
v 7.703327 0.938704 0.008242
v 7.702439 0.938929 0.005598
v 7.704995 0.937714 0.012959
v 7.704995 0.937116 0.015172
v 7.708344 0.936514 0.017352
v 7.716387 0.935252 0.017579
v 7.702381 0.939039 0.002993
v 7.702912 0.938307 0.010546
v 7.701671 0.938652 0.007726
v 7.701212 0.938844 0.004938
v 7.702503 0.937749 0.012817
v 7.719398 0.934450 0.014471
v 7.701674 0.938970 0.002285
v 7.700830 0.938278 0.009977
v 7.700006 0.937741 0.012202
v 7.700057 0.938544 0.006877
v 7.700122 0.938732 0.003987
v 7.702074 0.937195 0.015101
v 7.699152 0.937229 0.014489
v 7.721407 0.932749 0.016825
v 7.701055 0.938873 0.001467
v 7.697579 0.937573 0.010929
v 7.698588 0.938389 0.005686
v 7.699202 0.938590 0.002804
v 7.698312 0.936590 0.016748
v 7.701645 0.936514 0.017352
v 7.704995 0.936393 0.017348
v 7.696371 0.937008 0.012943
v 7.700637 0.938777 0.000489
v 7.698803 0.938139 0.008913
v 7.704995 0.935331 0.020373
v 7.701080 0.935631 0.020318
v 7.708910 0.935631 0.020318
v 7.700341 0.938659 -0.000540
v 7.698539 0.938437 0.001422
v 7.696970 0.937916 0.007400
v 7.712807 0.935713 0.019713
v 7.698131 0.938269 -0.000046
v 7.696463 0.937993 0.002359
v 7.697368 0.938202 0.004141
v 7.695452 0.937632 0.005473
v 7.695390 0.937283 0.009099
v 7.693585 0.936906 0.006797
v 7.713934 0.934896 0.022248
v 7.717977 0.934033 0.020128
v 7.695944 0.937776 0.000456
v 7.693921 0.936598 0.010712
v 7.695194 0.936316 0.014935
v 7.709776 0.934798 0.022729
v 7.715035 0.934224 0.024112
v 7.719551 0.932680 0.022527
v 7.693477 0.936712 -0.001468
v 7.693685 0.937022 0.000971
v 7.692496 0.935792 0.012309
v 7.693602 0.935252 0.017579
v 7.697182 0.935713 0.019713
v 7.704995 0.933777 0.023105
v 7.700213 0.934798 0.022729
v 7.691232 0.935725 -0.001370
v 7.694331 0.937323 0.003281
v 7.691485 0.936115 0.001495
v 7.696055 0.934896 0.022248
v 7.712966 0.933618 0.025373
v 7.704995 0.931684 0.024814
v 7.697023 0.933618 0.025373
v 7.692254 0.936498 0.004203
v 7.690495 0.935516 0.005062
v 7.689632 0.935026 0.002009
v 7.716047 0.933361 0.025969
v 7.714470 0.932431 0.027887
v 7.693942 0.933361 0.025969
v 7.695519 0.932431 0.027887
v 7.688800 0.934420 0.005917
v 7.691942 0.936070 0.008023
v 7.689324 0.934541 -0.001225
v 7.715300 0.931005 0.029849
v 7.717462 0.931947 0.028481
v 7.720789 0.931308 0.024777
v 7.690355 0.935116 0.009238
v 7.687693 0.932597 -0.004967
v 7.718264 0.930663 0.029949
v 7.721811 0.929883 0.027072
v 7.704995 0.929393 0.026159
v 7.694690 0.931005 0.029849
v 7.726447 0.927478 0.022509
v 7.723627 0.930603 0.019522
v 7.688314 0.933502 0.010934
v 7.722555 0.928544 0.028945
v 7.727045 0.925872 0.025600
v 7.692527 0.931947 0.028481
v 7.726167 0.928668 0.015071
v 7.723807 0.931405 0.012836
v 7.690592 0.934450 0.014471
v 7.727263 0.924831 0.027779
v 7.729924 0.921809 0.023845
v 7.688178 0.929883 0.027072
v 7.691726 0.930663 0.029949
v 7.688581 0.932749 0.016825
v 7.692012 0.934033 0.020128
v 7.694078 0.929603 0.031376
v 7.687435 0.928544 0.028945
v 7.690206 0.928688 0.031773
v 7.686698 0.932579 0.007166
v 7.684568 0.930192 0.008548
v 7.686182 0.931405 0.012836
v 7.694954 0.934224 0.024112
v 7.690438 0.932680 0.022527
v 7.715911 0.929603 0.031376
v 7.704995 0.926906 0.027310
v 7.685663 0.931843 0.003337
v 7.683822 0.928668 0.015071
v 7.687850 0.933827 0.002527
v 7.689200 0.931308 0.024777
v 7.686362 0.930603 0.019522
v 7.687488 0.933248 -0.001064
v 7.683542 0.927478 0.022509
v 7.719784 0.928688 0.031773
v 7.685427 0.930345 -0.005188
v 7.685230 0.931147 -0.000735
v 7.682944 0.925872 0.025600
v 7.727379 0.923704 0.029841
v 7.723034 0.926893 0.031236
v 7.716671 0.927405 0.033263
v 7.682986 0.928470 -0.000250
v 7.683474 0.929289 0.004281
v 7.729975 0.919350 0.029038
v 7.726756 0.922848 0.031781
v 7.730063 0.920617 0.026459
v 7.722243 0.925759 0.033080
v 7.686262 0.929567 -0.009694
v 7.681161 0.925945 0.005385
v 7.682280 0.927065 0.010088
v 7.732769 0.915605 0.024658
v 7.725307 0.921818 0.033668
v 7.723609 0.920729 0.035277
v 7.720754 0.924504 0.034659
v 7.684146 0.926607 -0.010329
v 7.683206 0.927523 -0.005264
v 7.680064 0.923400 0.011418
v 7.681408 0.925255 0.016691
v 7.728224 0.916831 0.033508
v 7.720080 0.922879 0.035976
v 7.717999 0.923266 0.035434
v 7.704995 0.924019 0.028054
v 7.729459 0.918076 0.031451
v 7.680951 0.923912 -0.005148
v 7.680649 0.924993 0.000448
v 7.679324 0.921492 0.017876
v 7.721923 0.919458 0.036494
v 7.719607 0.918653 0.036629
v 7.693318 0.927405 0.033263
v 7.731978 0.912822 0.030082
v 7.732586 0.914248 0.027493
v 7.678523 0.920933 0.001203
v 7.679005 0.922072 0.006460
v 7.724185 0.914308 0.035900
v 7.726342 0.915554 0.034964
v 7.721620 0.913156 0.035950
v 7.728811 0.909871 0.033473
v 7.730755 0.911339 0.032160
v 7.734418 0.909111 0.024971
v 7.677301 0.917951 0.007315
v 7.678163 0.919420 0.012149
v 7.723795 0.907519 0.033843
v 7.726509 0.908553 0.034129
v 7.687747 0.925759 0.033080
v 7.686955 0.926893 0.031236
v 7.732668 0.906050 0.029391
v 7.676661 0.915486 0.012825
v 7.677519 0.917527 0.018860
v 7.679869 0.922279 0.020742
v 7.728576 0.903273 0.031123
v 7.725897 0.902475 0.030748
v 7.683233 0.922848 0.031781
v 7.682610 0.923704 0.029841
v 7.733782 0.907643 0.027456
v 7.680065 0.921809 0.023845
v 7.727962 0.898047 0.026768
v 7.730846 0.904531 0.030590
v 7.682726 0.924831 0.027779
v 7.680014 0.919350 0.029038
v 7.734891 0.902685 0.023861
v 7.730035 0.894257 0.022010
v 7.731185 0.895593 0.024076
v 7.730200 0.898838 0.027551
v 7.732247 0.899666 0.026759
v 7.733871 0.901060 0.025588
v 7.679925 0.920617 0.026459
v 7.731985 0.891066 0.016648
v 7.732762 0.895356 0.022434
v 7.734287 0.896415 0.021140
v 7.677220 0.915605 0.024658
v 7.677419 0.916845 0.021763
v 7.734398 0.892587 0.016613
v 7.733684 0.888520 0.010811
v 7.735333 0.898069 0.019580
v 7.735401 0.893983 0.015045
v 7.677403 0.914248 0.027493
v 7.678011 0.912822 0.030082
v 7.680531 0.918076 0.031451
v 7.675556 0.911720 0.019382
v 7.675870 0.912832 0.016962
v 7.735388 0.889620 0.009528
v 7.735295 0.886027 0.004881
v 7.735857 0.899604 0.017279
v 7.735499 0.904157 0.021543
v 7.675571 0.909111 0.024971
v 7.681765 0.916831 0.033508
v 7.684682 0.921818 0.033668
v 7.735742 0.891862 0.007722
v 7.735747 0.905567 0.019085
v 7.734656 0.910469 0.022208
v 7.675333 0.910469 0.022208
v 7.686380 0.920729 0.035277
v 7.689235 0.924504 0.034659
v 7.735819 0.895586 0.013126
v 7.734434 0.911720 0.019382
v 7.732570 0.916845 0.021763
v 7.674242 0.905567 0.019085
v 7.689909 0.922879 0.035976
v 7.691990 0.923266 0.035434
v 7.735935 0.897067 0.010451
v 7.736068 0.901262 0.015254
v 7.732470 0.917527 0.018860
v 7.730120 0.922279 0.020742
v 7.688066 0.919458 0.036494
v 7.690382 0.918653 0.036629
v 7.735744 0.890655 0.003773
v 7.735861 0.894404 0.003518
v 7.735956 0.903288 0.014495
v 7.735535 0.907005 0.016900
v 7.730666 0.921492 0.017876
v 7.728581 0.925255 0.016691
v 7.685805 0.914308 0.035900
v 7.688369 0.913156 0.035950
v 7.734723 0.886058 -0.002510
v 7.733806 0.876941 -0.001824
v 7.735338 0.907707 0.013777
v 7.735897 0.902005 0.011626
v 7.734118 0.912832 0.016962
v 7.729925 0.923400 0.011418
v 7.727709 0.927065 0.010088
v 7.686194 0.907519 0.033843
v 7.732496 0.877447 -0.009632
v 7.730162 0.868014 -0.008660
v 7.735899 0.900966 0.009534
v 7.734460 0.911743 0.013434
v 7.733329 0.915486 0.012825
v 7.731827 0.919420 0.012149
v 7.728828 0.925945 0.005385
v 7.726515 0.929289 0.004281
v 7.733997 0.913703 0.007984
v 7.734976 0.909432 0.008509
v 7.735661 0.905206 0.009012
v 7.732688 0.917951 0.007315
v 7.727003 0.928470 -0.000250
v 7.724760 0.931147 -0.000735
v 7.734208 0.912004 0.002400
v 7.735003 0.907488 0.002811
v 7.735530 0.902991 0.003055
v 7.730984 0.922072 0.006460
v 7.734262 0.905858 -0.003818
v 7.733607 0.910261 -0.004132
v 7.732562 0.914987 -0.004515
v 7.733060 0.916540 0.001860
v 7.734652 0.901675 -0.003545
v 7.735873 0.898566 0.003265
v 7.731466 0.920933 0.001203
v 7.729340 0.924993 0.000448
v 7.726783 0.927523 -0.005264
v 7.732110 0.908747 -0.010950
v 7.732915 0.900805 -0.010554
v 7.734902 0.897601 -0.003282
v 7.735035 0.893670 -0.003019
v 7.729039 0.923912 -0.005148
v 7.731059 0.919670 -0.004883
v 7.727935 0.922856 -0.010824
v 7.732639 0.904588 -0.010762
v 7.733096 0.897120 -0.010336
v 7.733218 0.893507 -0.010110
v 7.734835 0.889929 -0.002705
v 7.729788 0.918450 -0.011107
v 7.731170 0.913553 -0.011107
v 7.727671 0.917437 -0.016810
v 7.730017 0.903728 -0.017417
v 7.730278 0.896672 -0.017193
v 7.733315 0.889938 -0.009880
v 7.733277 0.886155 -0.009736
v 7.728855 0.912493 -0.017238
v 7.729624 0.907734 -0.017411
v 7.725597 0.911783 -0.022664
v 7.730184 0.900151 -0.017322
v 7.730392 0.889809 -0.016896
v 7.730369 0.886176 -0.016693
v 7.729818 0.877810 -0.016009
v 7.726178 0.907114 -0.023133
v 7.721803 0.906768 -0.027722
v 7.726528 0.899723 -0.023310
v 7.730334 0.893243 -0.017045
v 7.726130 0.878264 -0.022167
v 7.726473 0.886219 -0.022919
v 7.727278 0.863990 -0.012232
v 7.728460 0.868660 -0.014307
v 7.725217 0.868787 -0.020490
v 7.726447 0.903200 -0.023310
v 7.721983 0.902921 -0.027953
v 7.716769 0.902826 -0.031179
v 7.726533 0.893027 -0.023163
v 7.724307 0.864178 -0.018547
v 7.723784 0.860406 -0.015628
v 7.720911 0.868988 -0.024681
v 7.721534 0.878539 -0.026703
v 7.716782 0.899483 -0.031163
v 7.722016 0.899525 -0.027963
v 7.726520 0.889701 -0.023075
v 7.720571 0.864440 -0.022920
v 7.719810 0.857370 -0.018506
v 7.719820 0.860801 -0.021317
v 7.715877 0.869209 -0.027716
v 7.721851 0.886382 -0.027529
v 7.726546 0.896349 -0.023252
v 7.722001 0.896240 -0.027900
v 7.721920 0.889778 -0.027699
v 7.715718 0.864603 -0.026225
v 7.715532 0.860549 -0.024663
v 7.715137 0.857459 -0.023098
v 7.715302 0.855028 -0.020724
v 7.716617 0.886547 -0.030588
v 7.716723 0.893083 -0.030930
v 7.721960 0.893010 -0.027799
v 7.716685 0.889909 -0.030793
v 7.710447 0.864618 -0.028037
v 7.710418 0.860307 -0.026443
v 7.710371 0.856773 -0.024479
v 7.710279 0.853572 -0.022110
v 7.716309 0.878681 -0.029698
v 7.710906 0.886599 -0.032183
v 7.710945 0.889962 -0.032398
v 7.710727 0.878730 -0.031284
v 7.710508 0.869310 -0.029402
v 7.704995 0.860169 -0.026978
v 7.704995 0.853065 -0.022594
v 7.704995 0.856470 -0.024997
v 7.704995 0.878732 -0.031724
v 7.704995 0.886597 -0.032614
v 7.716761 0.896254 -0.031067
v 7.704995 0.869328 -0.029906
v 7.699619 0.856773 -0.024479
v 7.699710 0.853572 -0.022110
v 7.699262 0.878730 -0.031284
v 7.699084 0.886599 -0.032183
v 7.704995 0.889970 -0.032827
v 7.699044 0.889962 -0.032398
v 7.710987 0.896305 -0.032690
v 7.710999 0.899528 -0.032796
v 7.704995 0.864589 -0.028566
v 7.694687 0.855028 -0.020724
v 7.693681 0.878681 -0.029698
v 7.693373 0.886547 -0.030588
v 7.704995 0.893156 -0.032971
v 7.710966 0.893135 -0.032544
v 7.704995 0.899572 -0.033218
v 7.704995 0.902903 -0.033243
v 7.699542 0.864618 -0.028037
v 7.694852 0.857459 -0.023098
v 7.690179 0.857370 -0.018506
v 7.698994 0.902856 -0.032821
v 7.699049 0.906612 -0.032607
v 7.699481 0.869310 -0.029402
v 7.694458 0.860549 -0.024663
v 7.699571 0.860307 -0.026443
v 7.690170 0.860801 -0.021317
v 7.686205 0.860406 -0.015628
v 7.704995 0.896340 -0.033114
v 7.693334 0.906623 -0.030956
v 7.693615 0.911207 -0.030338
v 7.694113 0.869209 -0.027716
v 7.699002 0.896305 -0.032690
v 7.698990 0.899528 -0.032796
v 7.699023 0.893135 -0.032544
v 7.688610 0.911393 -0.027126
v 7.689327 0.916262 -0.026089
v 7.694271 0.864603 -0.026225
v 7.689418 0.864440 -0.022920
v 7.693208 0.899483 -0.031163
v 7.693220 0.902826 -0.031179
v 7.693266 0.893083 -0.030930
v 7.693304 0.889909 -0.030793
v 7.685341 0.916689 -0.021853
v 7.686711 0.921291 -0.020654
v 7.688006 0.902921 -0.027953
v 7.688187 0.906768 -0.027722
v 7.693229 0.896254 -0.031067
v 7.688070 0.889778 -0.027699
v 7.683953 0.921977 -0.016035
v 7.685829 0.925879 -0.015041
v 7.685683 0.864178 -0.018547
v 7.682711 0.863990 -0.012232
v 7.683811 0.907114 -0.023133
v 7.684392 0.911783 -0.022664
v 7.687989 0.896240 -0.027900
v 7.688029 0.893010 -0.027799
v 7.689078 0.868988 -0.024681
v 7.681529 0.868660 -0.014307
v 7.679827 0.868014 -0.008660
v 7.681134 0.912493 -0.017238
v 7.682318 0.917437 -0.016810
v 7.683456 0.893027 -0.023163
v 7.682054 0.922856 -0.010824
v 7.688455 0.878539 -0.026703
v 7.676184 0.876941 -0.001824
v 7.677493 0.877447 -0.009632
v 7.680171 0.877810 -0.016009
v 7.680202 0.918450 -0.011107
v 7.678930 0.919670 -0.004883
v 7.684772 0.868787 -0.020490
v 7.683859 0.878264 -0.022167
v 7.688138 0.886382 -0.027529
v 7.674695 0.886027 0.004881
v 7.675266 0.886058 -0.002510
v 7.678819 0.913553 -0.011107
v 7.677427 0.914987 -0.004515
v 7.676929 0.916540 0.001860
v 7.683517 0.886219 -0.022919
v 7.680366 0.907734 -0.017411
v 7.677880 0.908747 -0.010950
v 7.676382 0.910261 -0.004132
v 7.675781 0.912004 0.002400
v 7.675992 0.913703 0.007984
v 7.683469 0.889701 -0.023075
v 7.679973 0.903728 -0.017417
v 7.683542 0.903200 -0.023310
v 7.675728 0.905858 -0.003818
v 7.675013 0.909432 0.008509
v 7.675529 0.911743 0.013434
v 7.679598 0.889809 -0.016896
v 7.687973 0.899525 -0.027963
v 7.683461 0.899723 -0.023310
v 7.674652 0.907707 0.013777
v 7.674329 0.905206 0.009012
v 7.679620 0.886176 -0.016693
v 7.679805 0.900151 -0.017322
v 7.683443 0.896349 -0.023252
v 7.679712 0.896672 -0.017193
v 7.674090 0.900966 0.009534
v 7.674459 0.902991 0.003055
v 7.674455 0.907005 0.016900
v 7.676712 0.886155 -0.009736
v 7.677074 0.900805 -0.010554
v 7.677351 0.904588 -0.010762
v 7.674986 0.907488 0.002811
v 7.674033 0.903288 0.014495
v 7.676673 0.889938 -0.009880
v 7.679655 0.893243 -0.017045
v 7.674092 0.902005 0.011626
v 7.676771 0.893507 -0.010110
v 7.675154 0.889929 -0.002705
v 7.676893 0.897120 -0.010336
v 7.675338 0.901675 -0.003545
v 7.674116 0.898566 0.003265
v 7.674055 0.897067 0.010451
v 7.674129 0.894404 0.003518
v 7.675087 0.897601 -0.003282
v 7.674954 0.893670 -0.003019
v 7.674245 0.890655 0.003773
v 7.673921 0.901262 0.015254
v 7.674247 0.891862 0.007722
v 7.674131 0.899604 0.017279
v 7.674170 0.895586 0.013126
v 7.674601 0.889620 0.009528
v 7.676306 0.888520 0.010811
v 7.674490 0.904157 0.021543
v 7.674588 0.893983 0.015045
v 7.674656 0.898069 0.019580
v 7.675098 0.902685 0.023861
v 7.675591 0.892587 0.016613
v 7.678004 0.891066 0.016648
v 7.676207 0.907643 0.027456
v 7.675702 0.896415 0.021140
v 7.677321 0.906050 0.029391
v 7.676119 0.901060 0.025588
v 7.678803 0.895593 0.024076
v 7.677227 0.895356 0.022434
v 7.679954 0.894257 0.022010
v 7.679234 0.911339 0.032160
v 7.677742 0.899666 0.026759
v 7.679143 0.904531 0.030590
v 7.681179 0.909871 0.033473
v 7.679790 0.898838 0.027551
v 7.682027 0.898047 0.026768
v 7.683647 0.915554 0.034964
v 7.681414 0.903273 0.031123
v 7.683481 0.908553 0.034129
v 7.684092 0.902475 0.030748
vn 0.2723 -0.4747 0.8370
vn 0.1895 -0.4638 0.8654
vn 0.2409 -0.4762 0.8457
vn 0.3079 -0.4877 0.8169
vn 0.3160 -0.4904 0.8122
vn -0.0488 0.5649 0.8237
vn 0.2852 0.5248 0.8020
vn 0.4096 0.5656 0.7158
vn 0.3092 0.7090 0.6338
vn -0.1895 -0.4638 0.8654
vn -0.2409 -0.4762 0.8457
vn -0.0000 -0.4627 0.8865
vn -0.1310 -0.4571 0.8797
vn 0.3360 -0.4800 0.8104
vn 0.3128 -0.4796 0.8198
vn 0.7386 -0.5796 0.3444
vn 0.6325 -0.5265 0.5681
vn 0.1310 -0.4571 0.8797
vn 0.0741 -0.4497 0.8901
vn -0.1343 0.7902 0.5979
vn -0.1576 0.6854 0.7109
vn 0.2705 0.8439 0.4633
vn 0.2243 0.9017 0.3696
vn -0.0000 -0.4453 0.8954
vn -0.0741 -0.4497 0.8901
vn 0.6105 -0.3764 -0.6969
vn 0.6335 -0.4435 -0.6340
vn 0.4455 -0.4175 -0.7919
vn 0.4175 -0.3309 -0.8463
vn 0.8577 0.4028 0.3196
vn 0.8704 0.4517 0.1959
vn 0.7475 0.6084 0.2666
vn 0.7468 0.5545 0.3672
vn -0.2723 -0.4747 0.8370
vn -0.3079 -0.4877 0.8169
vn -0.3160 -0.4904 0.8122
vn 0.0045 -0.7011 0.7131
vn 0.2568 -0.6105 0.7492
vn 0.2438 -0.4905 0.8367
vn 0.0439 -0.5670 0.8226
vn -0.3360 -0.4800 0.8104
vn -0.7386 -0.5796 0.3444
vn -0.3128 -0.4796 0.8198
vn -0.6325 -0.5265 0.5681
vn -0.8493 -0.5273 0.0246
vn -0.8658 -0.4973 0.0551
vn -0.8628 -0.5032 0.0498
vn -0.8477 -0.5300 0.0211
vn 0.8376 -0.5463 -0.0024
vn 0.8377 -0.5461 -0.0012
vn -0.8838 -0.4601 0.0855
vn -0.8812 -0.4656 0.0814
vn 0.8401 -0.5425 0.0025
vn 0.8405 -0.5418 0.0036
vn 0.9918 0.0858 -0.0950
vn 0.9854 0.1417 -0.0945
vn 0.9814 0.1903 -0.0241
vn 0.9943 0.1059 -0.0143
vn 0.8477 -0.5300 0.0211
vn 0.8493 -0.5273 0.0246
vn 0.8953 -0.4337 0.1015
vn 0.9077 -0.4030 0.1165
vn 0.9019 -0.4177 0.1097
vn -0.9183 -0.3751 0.1268
vn -0.9260 -0.3547 0.1294
vn -0.9077 -0.4030 0.1165
vn -0.9019 -0.4177 0.1097
vn -0.4083 0.8907 0.2000
vn -0.4757 0.8526 0.2165
vn -0.1915 0.9270 0.3225
vn -0.1640 0.9473 0.2752
vn 0.9183 -0.3751 0.1268
vn 0.9260 -0.3547 0.1294
vn 0.9325 -0.3354 0.1339
vn -0.5629 0.7447 0.3586
vn -0.7475 0.6084 0.2666
vn -0.7468 0.5545 0.3672
vn -0.5483 0.6682 0.5028
vn -0.2720 0.8959 -0.3512
vn -0.3256 0.8993 -0.2918
vn -0.2563 0.9326 -0.2541
vn -0.2165 0.9290 -0.3001
vn 0.8838 -0.4601 0.0855
vn 0.8812 -0.4656 0.0814
vn -0.4240 0.6508 -0.6299
vn -0.4962 0.5406 -0.6794
vn -0.6371 0.5304 -0.5593
vn -0.5589 0.6438 -0.5225
vn -0.8953 -0.4337 0.1015
vn 0.9367 -0.2783 0.2123
vn 0.9939 -0.0895 0.0638
vn 0.9915 -0.0716 0.1086
vn 0.9517 -0.1921 0.2397
vn 0.4859 -0.7664 0.4202
vn -0.0000 -0.8821 0.4711
vn 0.6834 -0.6445 0.3431
vn -0.0000 -0.8859 0.4638
vn -0.9325 -0.3354 0.1339
vn -0.6834 -0.6445 0.3431
vn -0.4859 -0.7664 0.4202
vn 0.9454 -0.2953 0.1380
vn 0.9458 -0.2939 0.1382
vn -0.0328 0.9669 -0.2531
vn -0.0642 0.9686 -0.2402
vn -0.0000 0.9945 -0.1048
vn -0.0000 0.9672 -0.2539
vn 0.1909 0.9579 -0.2145
vn 0.2089 0.9614 -0.1792
vn 0.2829 0.9366 -0.2067
vn 0.2563 0.9326 -0.2541
vn -0.1645 0.8513 -0.4982
vn -0.2470 0.8547 -0.4565
vn -0.2086 0.8913 -0.4025
vn -0.1414 0.8866 -0.4405
vn 0.0952 0.9694 -0.2263
vn 0.1293 0.9519 -0.2779
vn 0.0885 0.9497 -0.3003
vn 0.0642 0.9686 -0.2402
vn -0.0952 0.9694 -0.2263
vn 0.0328 0.9669 -0.2531
vn -0.0000 0.9474 -0.3200
vn -0.0440 0.9479 -0.3155
vn -0.3403 0.7576 -0.5569
vn -0.2239 0.7591 -0.6112
vn -0.2801 0.6578 -0.6992
vn 0.0440 0.9479 -0.3155
vn 0.0572 0.9191 -0.3899
vn -0.0000 0.9180 -0.3966
vn 0.1686 0.9253 -0.3397
vn 0.1151 0.9218 -0.3702
vn 0.5037 -0.1393 0.8526
vn 0.7192 0.0286 0.6942
vn 0.6428 0.2162 0.7349
vn 0.4802 0.0805 0.8735
vn -0.1181 0.9718 -0.2043
vn 0.3601 0.9033 -0.2330
vn 0.4496 0.8557 -0.2561
vn 0.4039 0.8552 -0.3247
vn 0.3256 0.8993 -0.2918
vn -0.0885 0.9497 -0.3003
vn 0.1414 0.8866 -0.4405
vn 0.0704 0.8829 -0.4643
vn -0.0000 0.8814 -0.4724
vn 0.7313 0.6752 -0.0969
vn 0.7267 0.6572 -0.1999
vn 0.6306 0.7497 -0.2007
vn 0.6355 0.7642 -0.1102
vn -0.0819 0.8483 -0.5232
vn -0.0704 0.8829 -0.4643
vn -0.4551 0.8894 -0.0420
vn -0.5376 0.8426 -0.0305
vn -0.4970 0.8669 0.0383
vn -0.4197 0.9074 0.0238
vn -0.0572 0.9191 -0.3899
vn -0.1151 0.9218 -0.3702
vn -0.0000 0.9776 0.2105
vn -0.0377 0.9793 0.1987
vn -0.0256 0.9724 0.2321
vn -0.0000 0.9691 0.2465
vn -0.3610 0.9310 -0.0547
vn -0.3342 0.9425 0.0027
vn -0.2631 0.9647 -0.0153
vn -0.2841 0.9568 -0.0627
vn 0.0695 -0.3954 0.9159
vn 0.2370 -0.3089 0.9211
vn 0.2452 -0.0930 0.9650
vn 0.0766 -0.1960 0.9776
vn 0.1235 0.9618 0.2445
vn 0.2860 0.9392 0.1898
vn 0.2377 0.9567 0.1677
vn 0.1109 0.9697 0.2175
vn -0.8852 -0.1508 -0.4402
vn -0.8870 -0.0607 -0.4577
vn -0.7799 -0.0687 -0.6222
vn -0.7761 -0.1447 -0.6137
vn 0.1645 0.8513 -0.4982
vn 0.0819 0.8483 -0.5232
vn 0.2086 0.8913 -0.4025
vn 0.2470 0.8547 -0.4565
vn 0.2165 0.9290 -0.3001
vn 0.2720 0.8959 -0.3512
vn 0.1181 0.9718 -0.2043
vn -0.1293 0.9519 -0.2779
vn -0.1633 0.9549 -0.2481
vn -0.1686 0.9253 -0.3397
vn 0.3314 0.8564 -0.3960
vn 0.2829 0.8190 -0.4993
vn 0.1866 0.8172 -0.5453
vn 0.8638 0.4978 -0.0776
vn 0.8639 0.4637 -0.1966
vn 0.8032 0.5619 -0.1976
vn 0.8051 0.5870 -0.0850
vn 0.7501 0.6578 0.0679
vn 0.7864 0.6174 0.0186
vn 0.7142 0.6999 0.0047
vn 0.6740 0.7355 0.0685
vn -0.0000 0.8470 -0.5315
vn -0.7663 -0.2783 -0.5791
vn -0.5956 -0.1534 -0.7885
vn -0.5905 -0.2661 -0.7619
vn 0.3856 0.8169 -0.4289
vn -0.6553 0.6420 -0.3979
vn -0.7045 0.6465 -0.2927
vn -0.6066 0.7440 -0.2803
vn -0.5542 0.7471 -0.3671
vn 0.7823 0.5439 -0.3037
vn 0.7045 0.6465 -0.2927
vn -0.3751 0.9102 -0.1757
vn -0.3601 0.9033 -0.2330
vn -0.4496 0.8557 -0.2561
vn -0.4698 0.8623 -0.1892
vn 0.9853 -0.0483 -0.1637
vn 0.9537 -0.0215 -0.3001
vn 0.9501 -0.0025 -0.3118
vn 0.9826 -0.0156 -0.1849
vn -0.3314 0.8564 -0.3960
vn 0.2070 -0.4077 -0.8893
vn 0.1997 -0.3126 -0.9286
vn 0.9977 -0.0214 -0.0649
vn 0.9802 0.0298 -0.1958
vn 0.9962 0.0308 -0.0819
vn -0.0000 0.8143 -0.5805
vn -0.0933 0.8151 -0.5718
vn -0.2946 0.9422 -0.1598
vn -0.2188 0.9650 -0.1444
vn -0.2089 0.9614 -0.1792
vn -0.2829 0.9366 -0.2067
vn 0.2188 0.9650 -0.1444
vn 0.2946 0.9422 -0.1598
vn -0.1397 0.9733 -0.1820
vn -0.6027 0.7905 0.1086
vn -0.6832 0.7239 0.0959
vn -0.5675 0.8098 0.1491
vn -0.4915 0.8572 0.1539
vn -0.0000 0.7584 -0.6518
vn -0.0000 0.6594 -0.7518
vn -0.1382 0.6598 -0.7386
vn -0.1121 0.7589 -0.6415
vn -0.1866 0.8172 -0.5453
vn 0.2239 0.7591 -0.6112
vn 0.1121 0.7589 -0.6415
vn 0.0933 0.8151 -0.5718
vn -0.0396 0.9952 0.0897
vn -0.0413 0.9896 0.1378
vn -0.0000 0.9892 0.1467
vn -0.0000 0.9956 0.0937
vn 0.9494 0.0405 -0.3115
vn 0.9477 0.0801 -0.3089
vn 0.9757 0.1068 -0.1915
vn 0.9785 0.0649 -0.1958
vn -0.1509 0.9760 -0.1568
vn -0.0300 0.9990 0.0334
vn -0.0000 0.9994 0.0343
vn 0.9999 0.0085 0.0142
vn 0.9927 0.0975 0.0704
vn 0.9842 0.0103 0.1767
vn -0.1601 0.9782 -0.1321
vn -0.2410 0.9661 0.0925
vn -0.2939 0.9545 0.0506
vn -0.3640 0.9285 0.0738
vn -0.2906 0.9499 0.1153
vn -0.4039 0.8552 -0.3247
vn 0.0256 0.9724 0.2321
vn 0.0101 0.9650 0.2619
vn 0.1074 0.9751 0.1942
vn -0.1909 0.9579 -0.2145
vn -0.8606 0.5053 0.0629
vn -0.8656 0.4822 0.1349
vn -0.7466 0.6311 0.2107
vn -0.7308 0.6644 0.1564
vn 0.1382 0.6598 -0.7386
vn 0.2801 0.6578 -0.6992
vn 0.6027 0.7905 0.1086
vn 0.5794 0.8134 0.0523
vn 0.5111 0.8537 0.1000
vn -0.8714 -0.2877 -0.3973
vn -0.9915 -0.0716 0.1086
vn -0.9517 -0.1921 0.2397
vn -0.9451 -0.1011 0.3106
vn -0.9842 0.0103 0.1767
vn 0.6066 0.7440 -0.2803
vn 0.6553 0.6420 -0.3979
vn 0.5542 0.7471 -0.3671
vn 0.5282 0.8048 -0.2708
vn 0.4740 0.8096 -0.3463
vn -0.8439 0.5360 0.0246
vn -0.8971 0.4410 0.0253
vn -0.8706 0.4895 0.0498
vn -0.8132 0.5791 0.0581
vn -0.2829 0.8190 -0.4993
vn -0.4601 0.7535 -0.4696
vn -0.3856 0.8169 -0.4289
vn 0.1397 0.9733 -0.1820
vn 0.7553 0.6513 0.0731
vn 0.8132 0.5791 0.0581
vn 0.6832 0.7239 0.0959
vn 0.9405 0.1402 -0.3097
vn 0.9248 0.2164 -0.3129
vn 0.9505 0.2438 -0.1928
vn 0.9674 0.1663 -0.1908
vn -0.0819 0.9938 0.0757
vn -0.0931 0.9889 0.1157
vn 0.7900 0.4244 -0.4425
vn 0.8374 0.3079 -0.4516
vn 0.7402 0.3064 -0.5985
vn 0.6942 0.4225 -0.5827
vn 0.1509 0.9760 -0.1568
vn 0.3751 0.9102 -0.1757
vn 0.4698 0.8623 -0.1892
vn -0.4740 0.8096 -0.3463
vn 0.8914 0.0604 -0.4491
vn 0.8844 0.1243 -0.4498
vn 0.2196 0.9695 -0.1086
vn 0.2944 0.9491 -0.1123
vn 0.3745 0.9198 -0.1166
vn -0.0000 0.5513 -0.8343
vn -0.1562 0.5535 -0.8180
vn 0.7837 0.1180 -0.6098
vn 0.6250 0.1138 -0.7723
vn 0.6169 0.2005 -0.7611
vn 0.7696 0.2000 -0.6064
vn 0.1601 0.9782 -0.1321
vn 0.1594 0.9815 -0.1060
vn -0.6395 0.7544 0.1480
vn -0.3280 0.5522 -0.7665
vn -0.7837 0.1180 -0.6098
vn -0.7898 0.0492 -0.6114
vn -0.8914 0.0604 -0.4491
vn -0.8844 0.1243 -0.4498
vn -0.3745 0.9198 -0.1166
vn -0.2944 0.9491 -0.1123
vn 0.9548 0.2870 -0.0774
vn 0.9167 0.3925 -0.0747
vn 0.8971 0.4410 0.0253
vn 0.9392 0.3431 0.0156
vn -0.1594 0.9815 -0.1060
vn -0.5282 0.8048 -0.2708
vn -0.5526 0.8097 -0.1977
vn -0.2321 0.9724 0.0252
vn -0.4709 0.8743 -0.1176
vn -0.2142 0.9742 -0.0714
vn -0.2196 0.9695 -0.1086
vn -0.5037 -0.1393 0.8526
vn -0.2370 -0.3089 0.9211
vn -0.2452 -0.0930 0.9650
vn -0.4802 0.0805 0.8735
vn -0.6306 0.7497 -0.2007
vn 0.5589 0.6438 -0.5225
vn 0.4601 0.7535 -0.4696
vn 0.3935 -0.2522 -0.8841
vn 0.1867 -0.2398 -0.9527
vn 0.1760 -0.1567 -0.9718
vn 0.3851 -0.1600 -0.9089
vn 0.9459 -0.1686 -0.2773
vn 0.8852 -0.1508 -0.4402
vn 0.8870 -0.0607 -0.4577
vn 0.9552 -0.0613 -0.2895
vn 0.1633 0.9549 -0.2481
vn -0.2008 0.9790 -0.0346
vn 0.1572 0.9844 -0.0793
vn -0.9458 -0.2939 0.1382
vn -0.9454 -0.2953 0.1380
vn -0.6193 0.7849 -0.0166
vn -0.5794 0.8134 0.0523
vn -0.1820 0.9833 -0.0006
vn -0.8688 0.2025 -0.4519
vn -0.9248 0.2164 -0.3129
vn -0.8924 0.3225 -0.3156
vn -0.8374 0.3079 -0.4516
vn 0.3439 0.9177 0.1989
vn 0.4915 0.8572 0.1539
vn 0.4117 0.8997 0.1450
vn -0.7330 0.5321 -0.4239
vn 0.1459 0.9878 -0.0539
vn -0.1459 0.9878 -0.0539
vn -0.1337 0.9906 -0.0297
vn -0.5553 0.8235 -0.1160
vn -0.3635 0.4455 -0.8182
vn -0.5515 0.4337 -0.7126
vn -0.7267 0.6572 -0.1999
vn 0.1337 0.9906 -0.0297
vn -0.1997 -0.3126 -0.9286
vn -0.4175 -0.3309 -0.8463
vn -0.3935 -0.2522 -0.8841
vn -0.1867 -0.2398 -0.9527
vn -0.0000 0.9607 0.2776
vn -0.0000 0.9511 0.3090
vn -0.0054 0.9564 0.2921
vn -0.6355 0.7642 -0.1102
vn -0.7902 0.0057 -0.6129
vn -0.8925 0.0200 -0.4506
vn 0.5937 0.3133 -0.7412
vn -0.0000 0.3112 -0.9504
vn -0.1727 0.3148 -0.9333
vn -0.1656 0.4451 -0.8800
vn -0.0000 0.4416 -0.8972
vn 0.1127 0.9936 -0.0098
vn 0.1406 0.9554 0.2598
vn -0.4651 -0.5813 -0.6677
vn -0.4486 -0.5266 -0.7221
vn -0.2189 -0.5358 -0.8155
vn -0.2251 -0.5968 -0.7702
vn -0.0000 0.1865 -0.9825
vn -0.1761 0.1900 -0.9659
vn -0.4035 0.1971 -0.8935
vn -0.3902 0.3184 -0.8639
vn 0.1656 0.4451 -0.8800
vn 0.1562 0.5535 -0.8180
vn 0.8026 -0.4256 0.4180
vn 0.9451 -0.1011 0.3106
vn 0.8263 -0.2759 0.4911
vn 0.0903 0.9959 0.0094
vn -0.8704 0.4517 0.1959
vn 0.9614 0.1392 0.2373
vn 0.9192 0.0292 0.3927
vn -0.7823 0.5439 -0.3037
vn -0.8032 0.5619 -0.1976
vn 0.3280 0.5522 -0.7665
vn 0.3635 0.4455 -0.8182
vn 0.0601 0.9980 0.0219
vn 0.0819 0.9938 0.0757
vn 0.1221 0.9910 0.0557
vn -0.4315 0.8979 0.0870
vn 0.7330 0.5321 -0.4239
vn 0.6371 0.5304 -0.5593
vn -0.7900 0.4244 -0.4425
vn -0.8423 0.4392 -0.3124
vn 0.4240 0.6508 -0.6299
vn 0.3403 0.7576 -0.5569
vn -0.1048 0.9803 0.1675
vn 0.1455 0.9853 0.0891
vn 0.1779 0.9754 0.1303
vn 0.2410 0.9661 0.0925
vn 0.1922 0.9796 0.0595
vn -0.1779 0.9754 0.1303
vn -0.1455 0.9853 0.0891
vn -0.1922 0.9796 0.0595
vn -0.5111 0.8537 0.1000
vn -0.2055 0.9666 0.1528
vn -0.1074 0.9751 0.1942
vn -0.7402 0.3064 -0.5985
vn -0.6942 0.4225 -0.5827
vn -0.5937 0.3133 -0.7412
vn -0.7313 0.6752 -0.0969
vn -0.6169 0.2005 -0.7611
vn -0.7696 0.2000 -0.6064
vn 0.4083 0.8907 0.2000
vn 0.5675 0.8098 0.1491
vn 0.0931 0.9889 0.1157
vn 0.1048 0.9803 0.1675
vn 0.8884 -0.0185 -0.4587
vn 0.7828 -0.0301 -0.6216
vn 0.7855 -0.0196 -0.6185
vn 0.8895 -0.0058 -0.4568
vn -0.4054 0.1065 -0.9079
vn -0.6250 0.1138 -0.7723
vn 0.4962 0.5406 -0.6794
vn -0.8405 -0.5418 0.0036
vn -0.8401 -0.5425 0.0025
vn 0.9687 0.2211 0.1127
vn -0.0903 0.9959 0.0094
vn -0.1221 0.9910 0.0557
vn -0.0601 0.9980 0.0219
vn 0.4523 0.3142 0.8347
vn 0.5499 0.4064 0.7297
vn 0.5515 0.4337 -0.7126
vn -0.9244 0.3466 0.1591
vn -0.9155 0.2839 0.2849
vn -0.8577 0.4028 0.3196
vn -0.6740 0.7355 0.0685
vn 0.3902 0.3184 -0.8639
vn 0.1727 0.3148 -0.9333
vn 0.8706 0.4895 0.0498
vn 0.8333 0.5482 0.0709
vn -0.3427 0.9307 0.1282
vn -0.2377 0.9567 0.1677
vn -0.7501 0.6578 0.0679
vn -0.7142 0.6999 0.0047
vn -0.7864 0.6174 0.0186
vn 0.0300 0.9990 0.0334
vn 0.2008 0.9790 -0.0346
vn 0.1820 0.9833 -0.0006
vn 0.2321 0.9724 0.0252
vn 0.2631 0.9647 -0.0153
vn 0.9489 0.0188 -0.3150
vn 0.6126 -0.0422 -0.7893
vn 0.3913 -0.0518 -0.9188
vn 0.3943 -0.0421 -0.9180
vn 0.6170 -0.0323 -0.7863
vn 0.8688 0.2025 -0.4519
vn -0.1572 0.9844 -0.0793
vn -0.0000 0.0959 -0.9954
vn -0.1752 0.0989 -0.9796
vn -0.0000 -0.2346 -0.9721
vn -0.0000 -0.1536 -0.9881
vn 0.9160 0.3505 -0.1953
vn 0.8924 0.3225 -0.3156
vn 0.8423 0.4392 -0.3124
vn 0.0396 0.9952 0.0897
vn 0.0413 0.9896 0.1378
vn -0.1109 0.9697 0.2175
vn -0.0101 0.9650 0.2619
vn -0.1733 0.0266 -0.9845
vn -0.4035 0.0325 -0.9144
vn -0.9624 0.2701 0.0293
vn -0.9687 0.2211 0.1127
vn -0.9227 0.3759 0.0851
vn -0.2860 0.9392 0.1898
vn -0.1235 0.9618 0.2445
vn -0.9505 0.2438 -0.1928
vn -0.9548 0.2870 -0.0774
vn -0.9167 0.3925 -0.0747
vn -0.9160 0.3505 -0.1953
vn 0.2142 0.9742 -0.0714
vn 0.2841 0.9568 -0.0627
vn 0.0054 0.9564 0.2921
vn -0.4117 0.8997 0.1450
vn -0.3439 0.9177 0.1989
vn -0.1406 0.9554 0.2598
vn 0.5956 -0.1534 -0.7885
vn 0.5905 -0.2661 -0.7619
vn 0.0377 0.9793 0.1987
vn 0.1553 0.9874 0.0293
vn -0.1127 0.9936 -0.0098
vn 0.2055 0.9666 0.1528
vn 0.4709 0.8743 -0.1176
vn 0.5553 0.8235 -0.1160
vn 0.5526 0.8097 -0.1977
vn -0.0000 0.9260 0.3774
vn -0.0350 0.9397 0.3403
vn 0.9624 0.2701 0.0293
vn 0.9590 0.2829 0.0152
vn 0.9262 0.3741 0.0461
vn 0.9227 0.3759 0.0851
vn -0.1553 0.9874 0.0293
vn 0.0350 0.9397 0.3403
vn 0.3610 0.9310 -0.0547
vn 0.2939 0.9545 0.0506
vn 0.2906 0.9499 0.1153
vn 0.3640 0.9285 0.0738
vn 0.0683 0.8999 0.4308
vn 0.3427 0.9307 0.1282
vn 0.4315 0.8979 0.0870
vn 0.8458 -0.3786 -0.3760
vn 0.7544 -0.4067 -0.5152
vn 0.7663 -0.2783 -0.5791
vn 0.8714 -0.2877 -0.3973
vn 0.1640 0.9473 0.2752
vn -0.0683 0.8999 0.4308
vn 0.1915 0.9270 0.3225
vn 0.3342 0.9425 0.0027
vn -0.0000 0.7941 0.6078
vn -0.9849 0.1732 -0.0030
vn -0.9927 0.0975 0.0704
vn 0.4197 0.9074 0.0238
vn 0.4551 0.8894 -0.0420
vn 0.9467 0.3212 0.0220
vn 0.9653 0.2612 -0.0048
vn 0.9156 0.4002 0.0388
vn -0.0999 0.8692 0.4843
vn -0.0000 0.6491 0.7607
vn 0.0999 0.8692 0.4843
vn 0.4970 0.8669 0.0383
vn 0.5376 0.8426 -0.0305
vn -0.2243 0.9017 0.3696
vn 0.1343 0.7902 0.5979
vn 0.6193 0.7849 -0.0166
vn 0.1576 0.6854 0.7109
vn -0.0000 0.5740 0.8189
vn -0.2705 0.8439 0.4633
vn -0.5225 0.8192 0.2364
vn -0.2814 0.7746 0.5664
vn 0.1723 0.5922 0.7872
vn 0.2814 0.7746 0.5664
vn 0.5501 0.7815 0.2944
vn 0.9711 0.2383 0.0104
vn 0.9851 0.1714 -0.0132
vn 0.1140 0.3548 0.9279
vn 0.2113 0.1421 0.9670
vn 0.5225 0.8192 0.2364
vn 0.4757 0.8526 0.2165
vn 0.7308 0.6644 0.1564
vn -0.5501 0.7815 0.2944
vn -0.1140 0.3548 0.9279
vn -0.2113 0.1421 0.9670
vn 0.0169 0.0380 0.9991
vn 0.1400 0.3394 0.9302
vn -0.7553 0.6513 0.0731
vn -0.8333 0.5482 0.0709
vn 0.7466 0.6311 0.2107
vn 0.5629 0.7447 0.3586
vn -0.0000 0.4598 0.8880
vn -0.1723 0.5922 0.7872
vn 0.8658 0.1846 0.4651
vn 0.9155 0.2839 0.2849
vn 0.7878 0.3283 0.5211
vn 0.6395 0.7544 0.1480
vn -0.9951 0.0913 -0.0374
vn -0.9999 0.0085 0.0142
vn -0.8026 -0.4256 0.4180
vn -0.9367 -0.2783 0.2123
vn -0.7258 -0.5597 0.4000
vn -0.9143 -0.2751 -0.2972
vn -0.9459 -0.1686 -0.2773
vn 0.9964 -0.0764 0.0373
vn 0.9106 -0.3415 0.2329
vn 0.9992 0.0383 -0.0147
vn 0.9997 -0.0227 0.0032
vn 0.5483 0.6682 0.5028
vn -0.6534 -0.4733 -0.5908
vn -0.6335 -0.4435 -0.6340
vn -0.4455 -0.4175 -0.7919
vn 0.6730 0.4893 0.5546
vn -0.9749 0.2056 -0.0854
vn -0.9653 0.2612 -0.0048
vn -0.9392 0.3431 0.0156
vn -0.4096 0.5656 0.7158
vn -0.2852 0.5248 0.8020
vn 0.0488 0.5649 0.8237
vn -0.3092 0.7090 0.6338
vn 0.8439 0.5360 0.0246
vn -0.8639 0.4637 -0.1966
vn 0.6058 -0.0798 -0.7916
vn 0.7799 -0.0687 -0.6222
vn 0.7761 -0.1447 -0.6137
vn -0.4523 0.3142 0.8347
vn -0.5499 0.4064 0.7297
vn -0.6428 0.2162 0.7349
vn -0.6730 0.4893 0.5546
vn -0.7878 0.3283 0.5211
vn -0.1400 0.3394 0.9302
vn -0.8884 0.4569 0.0447
vn 0.8884 0.4569 0.0447
vn -0.0000 0.4014 0.9159
vn -0.8658 0.1846 0.4651
vn -0.7192 0.0286 0.6942
vn -0.9156 0.4002 0.0388
vn -0.9614 0.1392 0.2373
vn -0.9192 0.0292 0.3927
vn -0.8884 -0.0185 -0.4587
vn -0.9537 -0.0215 -0.3001
vn -0.9501 -0.0025 -0.3118
vn -0.8895 -0.0058 -0.4568
vn -0.0695 -0.3954 0.9159
vn -0.0766 -0.1960 0.9776
vn -0.7858 -0.1416 0.6021
vn -0.5577 -0.3189 0.7663
vn -0.0000 -0.5867 -0.8098
vn -0.0000 -0.5339 -0.8455
vn -0.9997 -0.0227 0.0032
vn -0.9939 -0.0895 0.0638
vn -0.9262 0.3741 0.0461
vn -0.2438 -0.4905 0.8367
vn -0.0439 -0.5670 0.8226
vn 0.8656 0.4822 0.1349
vn 0.8606 0.5053 0.0629
vn -0.0045 -0.7011 0.7130
vn -0.2568 -0.6105 0.7492
vn 0.9749 0.2056 -0.0854
vn -0.8263 -0.2759 0.4911
vn 0.0068 -0.8413 0.5405
vn 0.2417 -0.7388 0.6291
vn -0.6119 -0.4483 0.6516
vn 0.6119 -0.4483 0.6516
vn 0.4901 -0.7272 0.4806
vn 0.5753 -0.6252 0.5274
vn 0.7565 -0.4397 -0.4841
vn 0.9244 0.3466 0.1591
vn 0.7316 -0.5649 0.3817
vn 0.7258 -0.5597 0.4000
vn -0.9467 0.3212 0.0220
vn -0.9590 0.2829 0.0152
vn 0.9896 -0.1437 -0.0000
vn 0.1761 0.1900 -0.9659
vn -0.9896 -0.1437 -0.0000
vn -0.9106 -0.3415 0.2329
vn -0.9964 -0.0764 0.0373
vn -0.9967 -0.0671 -0.0464
vn 0.6209 -0.0254 -0.7835
vn 0.3972 -0.0351 -0.9170
vn 0.4004 -0.0146 -0.9162
vn 0.6246 -0.0052 -0.7809
vn 0.9849 0.1732 -0.0030
vn -0.8377 -0.5461 -0.0012
vn -0.8376 -0.5463 -0.0024
vn -0.9977 -0.0214 -0.0649
vn -0.0169 0.0380 0.9991
vn 0.9967 -0.0671 -0.0464
vn 0.9951 0.0913 -0.0374
vn -0.9757 0.1068 -0.1915
vn -0.9854 0.1417 -0.0945
vn -0.9674 0.1663 -0.1909
vn 0.9761 -0.1497 -0.1575
vn 0.9867 -0.0796 -0.1416
vn 0.9968 0.0675 -0.0420
vn 0.8658 -0.4973 0.0551
vn 0.8628 -0.5032 0.0498
vn 0.9143 -0.2751 -0.2972
vn -0.9992 0.0383 -0.0147
vn -0.9962 0.0308 -0.0819
vn -0.7316 -0.5649 0.3817
vn -0.9943 0.1059 -0.0143
vn -0.9851 0.1714 -0.0132
vn -0.9711 0.2383 0.0104
vn -0.9814 0.1903 -0.0241
vn -0.2070 -0.4077 -0.8893
vn -0.8051 0.5870 -0.0850
vn -0.9918 0.0858 -0.0950
vn -0.9785 0.0649 -0.1958
vn -0.9802 0.0298 -0.1958
vn -0.8638 0.4978 -0.0776
vn -0.9477 0.0801 -0.3089
vn -0.9405 0.1402 -0.3097
vn -0.9494 0.0405 -0.3115
vn -0.9826 -0.0156 -0.1849
vn -0.9489 0.0188 -0.3150
vn -0.9853 -0.0483 -0.1637
vn -0.5753 -0.6252 0.5274
vn -0.8911 0.0016 -0.4538
vn -0.9867 -0.0796 -0.1416
vn -0.9552 -0.0613 -0.2895
vn -0.7828 -0.0301 -0.6216
vn -0.6126 -0.0422 -0.7893
vn -0.6058 -0.0798 -0.7916
vn 0.3872 -0.0886 -0.9177
vn -0.7855 -0.0196 -0.6185
vn -0.6170 -0.0323 -0.7863
vn 0.7858 -0.1416 0.6021
vn 0.1752 0.0989 -0.9796
vn -0.7544 -0.4067 -0.5152
vn -0.8458 -0.3786 -0.3760
vn -0.6105 -0.3764 -0.6969
vn -0.4004 -0.0146 -0.9162
vn -0.1718 -0.0192 -0.9849
vn -0.6246 -0.0052 -0.7809
vn -0.6267 0.0411 -0.7782
vn -0.7565 -0.4397 -0.4841
vn 0.6534 -0.4733 -0.5908
vn -0.3851 -0.1600 -0.9089
vn -0.6209 -0.0254 -0.7835
vn -0.3972 -0.0351 -0.9170
vn -0.7881 -0.0131 -0.6154
vn 0.5577 -0.3189 0.7663
vn -0.0000 -0.3092 -0.9510
vn 0.4651 -0.5813 -0.6677
vn 0.4486 -0.5266 -0.7221
vn -0.3872 -0.0886 -0.9177
vn -0.3943 -0.0421 -0.9180
vn -0.3913 -0.0518 -0.9188
vn -0.1716 -0.0899 -0.9811
vn -0.1760 -0.1567 -0.9718
vn -0.1711 -0.0550 -0.9837
vn -0.0000 -0.0888 -0.9961
vn 0.8911 0.0016 -0.4538
vn 0.7902 0.0057 -0.6129
vn 0.7881 -0.0131 -0.6154
vn 0.1712 -0.0390 -0.9845
vn -0.0000 -0.0391 -0.9992
vn -0.0000 -0.0199 -0.9998
vn 0.1718 -0.0192 -0.9849
vn 0.2189 -0.5358 -0.8155
vn 0.2251 -0.5968 -0.7702
vn -0.0000 -0.4114 -0.9115
vn 0.1716 -0.0899 -0.9811
vn -0.0000 -0.0548 -0.9985
vn 0.1711 -0.0550 -0.9837
vn -0.1712 -0.0390 -0.9845
vn -0.1711 -0.0457 -0.9842
vn -0.0000 0.0250 -0.9997
vn -0.0000 -0.0457 -0.9990
vn 0.1711 -0.0457 -0.9842
vn 0.1733 0.0266 -0.9845
vn 0.6267 0.0411 -0.7782
vn 0.4035 0.0325 -0.9144
vn 0.4054 0.1065 -0.9079
vn 0.4035 0.1971 -0.8935
vn 0.7898 0.0492 -0.6114
vn -0.9761 -0.1497 -0.1575
vn 0.8925 0.0200 -0.4506
vn -0.4901 -0.7272 0.4806
vn -0.9968 0.0675 -0.0420
vn -0.2417 -0.7388 0.6291
vn -0.0068 -0.8413 0.5405
vt 0.000000 0.000000
s 1
f 1/1/1 2/1/2 3/1/3
f 1/1/1 3/1/3 4/1/4
f 4/1/4 3/1/3 5/1/5
f 412/1/6 425/1/7 418/1/8 406/1/9
f 18/1/10 19/1/11 8/1/12 17/1/13
f 6/1/14 7/1/15 10/1/16
f 6/1/14 10/1/16 11/1/17
f 9/1/18 12/1/19 8/1/12
f 359/1/20 365/1/21 366/1/22 358/1/23
f 12/1/19 15/1/24 8/1/12
f 8/1/12 15/1/24 16/1/25
f 8/1/12 16/1/25 17/1/13
f 605/1/26 607/1/27 614/1/28 613/1/29
f 415/1/30 417/1/31 383/1/32 410/1/33
f 18/1/10 22/1/34 19/1/11
f 3/1/3 7/1/15 6/1/14 5/1/5
f 19/1/11 26/1/35 25/1/36
f 19/1/11 22/1/34 26/1/35
f 467/1/37 474/1/38 461/1/39 462/1/40
f 23/1/41 29/1/42 24/1/43
f 23/1/41 30/1/44 29/1/42
f 42/1/45 46/1/46 45/1/47 41/1/48
f 10/1/16 14/1/49 13/1/50 11/1/17
f 46/1/46 50/1/51 49/1/52 45/1/47
f 20/1/53 21/1/54 13/1/50 14/1/49
f 549/1/55 548/1/56 542/1/57 543/1/58
f 27/1/59 28/1/60 21/1/54 20/1/53
f 39/1/61 43/1/62 40/1/63
f 58/1/64 61/1/65 57/1/66 54/1/67
f 388/1/68 396/1/69 395/1/70 351/1/71
f 44/1/72 47/1/73 48/1/74
f 390/1/75 469/1/76 464/1/77 456/1/78
f 100/1/79 109/1/80 92/1/81 90/1/82
f 39/1/61 40/1/63 36/1/83 35/1/84
f 235/1/85 253/1/86 252/1/87 248/1/88
f 53/1/89 54/1/67 57/1/66
f 486/1/90 505/1/91 494/1/92 485/1/93
f 56/1/94 59/1/95 55/1/96
f 55/1/96 59/1/95 60/1/97
f 58/1/64 62/1/98 61/1/65
f 59/1/95 63/1/99 60/1/97
f 59/1/95 64/1/100 63/1/99
f 51/1/101 56/1/94 55/1/96 52/1/102
f 51/1/101 52/1/102 48/1/74 47/1/73
f 67/1/103 68/1/104 69/1/105
f 67/1/103 69/1/105 70/1/106
f 144/1/107 158/1/108 164/1/109 138/1/110
f 98/1/111 105/1/112 96/1/113 88/1/114
f 94/1/115 95/1/116 84/1/117 83/1/118
f 68/1/104 74/1/119 69/1/105
f 70/1/106 69/1/105 75/1/120
f 67/1/103 70/1/106 73/1/121 71/1/122
f 235/1/85 132/1/123 127/1/124 229/1/125
f 80/1/126 89/1/127 78/1/128 73/1/121
f 95/1/116 104/1/129 91/1/130 84/1/117
f 448/1/131 449/1/132 430/1/133 446/1/134
f 74/1/119 81/1/135 69/1/105
f 170/1/136 172/1/137 166/1/138 137/1/139
f 75/1/120 69/1/105 83/1/118
f 72/1/140 68/1/104 67/1/103 71/1/122
f 91/1/130 111/1/141 99/1/142 89/1/127
f 89/1/127 99/1/142 86/1/143 78/1/128
f 546/1/144 219/1/145 211/1/146 244/1/147
f 97/1/148 98/1/111 88/1/114 85/1/149
f 350/1/150 357/1/151 356/1/152 355/1/153
f 71/1/122 77/1/154 76/1/155 72/1/140
f 284/1/156 297/1/157 300/1/158 292/1/159
f 342/1/160 349/1/161 328/1/162 335/1/163
f 453/1/164 454/1/165 445/1/166 447/1/167
f 83/1/118 69/1/105 94/1/115
f 288/1/168 266/1/169 267/1/170 281/1/171
f 702/1/172 730/1/173 713/1/174 706/1/175
f 111/1/141 119/1/176 118/1/177 99/1/142
f 110/1/178 125/1/179 119/1/176 111/1/141
f 103/1/180 131/1/181 110/1/178 104/1/129
f 131/1/181 103/1/180 138/1/110 137/1/139
f 94/1/115 69/1/105 101/1/182
f 74/1/119 79/1/183 82/1/184 81/1/135
f 79/1/183 87/1/185 90/1/82 82/1/184
f 131/1/181 136/1/186 125/1/179 110/1/178
f 125/1/179 143/1/187 126/1/188 119/1/176
f 558/1/189 564/1/190 559/1/191 545/1/192
f 268/1/193 540/1/194 245/1/195 262/1/196
f 99/1/142 118/1/177 107/1/197 86/1/143
f 705/1/198 706/1/175 699/1/199 692/1/200
f 96/1/113 100/1/79 90/1/82 87/1/185
f 88/1/114 96/1/113 87/1/185 76/1/155
f 142/1/201 143/1/187 125/1/179 136/1/186
f 145/1/202 419/1/203 146/1/204 140/1/205
f 219/1/145 559/1/191 226/1/206 218/1/207
f 159/1/208 116/1/209 153/1/210 152/1/211
f 570/1/212 576/1/213 569/1/214 563/1/215
f 105/1/112 108/1/216 100/1/79 96/1/113
f 614/1/28 622/1/217 621/1/218 613/1/29
f 518/1/219 563/1/215 562/1/220 556/1/221
f 121/1/222 120/1/223 97/1/148 107/1/197
f 123/1/224 135/1/225 122/1/226 117/1/227
f 158/1/108 175/1/228 169/1/229 164/1/109
f 81/1/135 124/1/230 69/1/105
f 376/1/231 394/1/232 387/1/233 382/1/234
f 129/1/235 163/1/236 141/1/237 133/1/238
f 97/1/148 120/1/223 106/1/239 98/1/111
f 148/1/240 156/1/241 128/1/242 126/1/188
f 283/1/243 290/1/244 276/1/245 275/1/246
f 129/1/235 133/1/238 120/1/223 121/1/222
f 561/1/247 567/1/248 551/1/249 555/1/250
f 124/1/230 130/1/251 69/1/105
f 282/1/252 283/1/243 275/1/246 274/1/253
f 494/1/92 512/1/254 500/1/255 495/1/256
f 130/1/251 134/1/257 69/1/105
f 325/1/258 330/1/259 332/1/260 331/1/261
f 108/1/216 114/1/262 109/1/80 100/1/79
f 285/1/263 287/1/264 281/1/171 280/1/265
f 92/1/81 93/1/266 82/1/184 90/1/82
f 460/1/267 466/1/268 409/1/269 405/1/270
f 162/1/271 163/1/236 129/1/235 156/1/241
f 148/1/240 167/1/272 162/1/271 156/1/241
f 261/1/273 262/1/196 238/1/274 254/1/275
f 93/1/266 124/1/230 81/1/135 82/1/184
f 702/1/172 706/1/175 705/1/198 693/1/276
f 757/1/277 763/1/278 764/1/279 761/1/280
f 180/1/281 218/1/207 188/1/282 160/1/283
f 173/1/284 161/1/285 166/1/138 172/1/137
f 420/1/286 444/1/287 428/1/288 421/1/289
f 127/1/124 132/1/123 112/1/290 106/1/239
f 132/1/123 139/1/291 113/1/292 112/1/290
f 101/1/182 69/1/105 150/1/293
f 380/1/294 531/1/295 268/1/193 381/1/296
f 560/1/297 572/1/298 553/1/299 552/1/300
f 291/1/301 298/1/302 290/1/244 283/1/243
f 233/1/303 573/1/304 240/1/305 234/1/306
f 150/1/293 69/1/105 157/1/307
f 122/1/226 130/1/251 124/1/230 93/1/266
f 176/1/308 179/1/309 172/1/137 170/1/136
f 113/1/292 139/1/291 140/1/205 115/1/310
f 108/1/216 113/1/292 115/1/310 114/1/262
f 120/1/223 133/1/238 127/1/124 106/1/239
f 574/1/311 579/1/312 560/1/297 567/1/248
f 117/1/227 122/1/226 93/1/266 92/1/81
f 109/1/80 116/1/209 117/1/227 92/1/81
f 175/1/228 183/1/313 177/1/314 169/1/229
f 177/1/314 184/1/315 176/1/308 169/1/229
f 168/1/316 222/1/317 141/1/237 163/1/236
f 585/1/318 586/1/319 246/1/320 580/1/321
f 164/1/109 170/1/136 137/1/139 138/1/110
f 116/1/209 159/1/208 123/1/224 117/1/227
f 114/1/262 153/1/210 116/1/209 109/1/80
f 182/1/322 190/1/323 183/1/313 175/1/228
f 387/1/233 403/1/324 396/1/69 388/1/68
f 228/1/325 253/1/86 235/1/85 229/1/125
f 688/1/326 721/1/327 720/1/328 714/1/329
f 135/1/225 134/1/257 130/1/251 122/1/226
f 159/1/208 341/1/330 165/1/331 123/1/224
f 554/1/332 557/1/333 550/1/334 544/1/335
f 157/1/307 182/1/322 175/1/228 158/1/108
f 134/1/257 178/1/336 69/1/105
f 152/1/211 153/1/210 147/1/337 151/1/338
f 146/1/204 147/1/337 115/1/310 140/1/205
f 157/1/307 69/1/105 182/1/322
f 349/1/161 330/1/259 329/1/339 328/1/162
f 152/1/211 348/1/340 341/1/330 159/1/208
f 341/1/330 342/1/160 335/1/163 165/1/331
f 335/1/163 327/1/341 171/1/342 165/1/331
f 777/1/343 782/1/344 523/1/345 780/1/346
f 146/1/204 369/1/347 151/1/338 147/1/337
f 188/1/282 194/1/348 155/1/349 160/1/283
f 139/1/291 248/1/88 145/1/202 140/1/205
f 608/1/350 629/1/351 628/1/352 625/1/353
f 533/1/354 584/1/355 583/1/356 577/1/357
f 182/1/322 69/1/105 190/1/323
f 355/1/153 332/1/260 330/1/259 349/1/161
f 348/1/340 350/1/150 342/1/160 341/1/330
f 103/1/180 104/1/129 95/1/116 102/1/358
f 327/1/341 335/1/163 328/1/162 324/1/359
f 190/1/323 69/1/105 195/1/360
f 62/1/98 66/1/361 65/1/362 61/1/65
f 357/1/151 401/1/363 362/1/364 356/1/152
f 324/1/359 328/1/162 329/1/339 313/1/365
f 695/1/366 710/1/367 703/1/368 696/1/369
f 295/1/370 301/1/371 260/1/372 266/1/169
f 252/1/87 685/1/373 145/1/202 248/1/88
f 195/1/360 69/1/105 202/1/374
f 318/1/375 324/1/359 313/1/365 310/1/376
f 348/1/340 364/1/377 357/1/151 350/1/150
f 228/1/325 259/1/378 258/1/379 253/1/86
f 146/1/204 419/1/203 407/1/380 369/1/347
f 202/1/374 69/1/105 208/1/381
f 653/1/382 672/1/383 666/1/384 658/1/385
f 293/1/386 316/1/387 294/1/388 287/1/264
f 369/1/347 404/1/389 364/1/377 151/1/338
f 727/1/390 731/1/391 720/1/328 721/1/327
f 240/1/305 580/1/321 246/1/320 241/1/392
f 215/1/393 265/1/394 221/1/395 214/1/396
f 208/1/381 69/1/105 216/1/397
f 288/1/168 326/1/398 295/1/370 266/1/169
f 646/1/399 654/1/400 637/1/401 638/1/402
f 215/1/393 273/1/403 272/1/404 265/1/394
f 272/1/404 665/1/405 264/1/406 265/1/394
f 189/1/407 214/1/396 168/1/316 181/1/408
f 480/1/409 485/1/93 471/1/410 476/1/411
f 216/1/397 69/1/105 223/1/412
f 466/1/268 477/1/413 469/1/76 409/1/269
f 471/1/410 495/1/256 450/1/414 465/1/415
f 426/1/416 427/1/417 407/1/380 419/1/203
f 549/1/55 555/1/250 551/1/249 548/1/56
f 174/1/418 207/1/419 189/1/407 181/1/408
f 174/1/418 181/1/408 162/1/271 167/1/272
f 72/1/140 79/1/183 74/1/119 68/1/104
f 223/1/412 263/1/420 255/1/421 224/1/422
f 356/1/152 363/1/423 332/1/260 355/1/153
f 188/1/282 227/1/424 200/1/425 194/1/348
f 684/1/426 698/1/427 426/1/416 685/1/373
f 154/1/428 167/1/272 148/1/240 149/1/429
f 297/1/157 290/1/244 298/1/302 303/1/430
f 155/1/349 194/1/348 154/1/428 149/1/429
f 230/1/431 242/1/432 236/1/433 209/1/434
f 325/1/258 319/1/435 305/1/436 312/1/437
f 362/1/364 368/1/438 363/1/423 356/1/152
f 303/1/430 319/1/435 311/1/439 304/1/440
f 364/1/377 404/1/389 401/1/363 357/1/151
f 678/1/441 679/1/442 258/1/379 671/1/443
f 678/1/441 696/1/369 684/1/426 679/1/442
f 325/1/258 331/1/261 311/1/439 319/1/435
f 407/1/380 408/1/444 404/1/389 369/1/347
f 107/1/197 97/1/148 85/1/149 86/1/143
f 111/1/141 91/1/130 104/1/129 110/1/178
f 670/1/445 689/1/446 678/1/441 671/1/443
f 670/1/445 671/1/443 264/1/406 665/1/405
f 295/1/370 334/1/447 309/1/448 301/1/371
f 298/1/302 305/1/436 319/1/435 303/1/430
f 250/1/449 257/1/450 242/1/432 230/1/431
f 582/1/451 604/1/452 597/1/453 588/1/454
f 664/1/455 681/1/456 670/1/445 665/1/405
f 200/1/425 201/1/457 154/1/428 194/1/348
f 38/1/458 42/1/45 41/1/48 37/1/459
f 500/1/255 501/1/460 450/1/414 495/1/256
f 296/1/461 299/1/462 291/1/301 289/1/463
f 424/1/464 446/1/134 430/1/133 423/1/465
f 200/1/425 234/1/306 206/1/466 201/1/457
f 481/1/467 487/1/468 470/1/469 477/1/413
f 362/1/364 392/1/470 376/1/231 368/1/438
f 102/1/358 95/1/116 94/1/115 101/1/182
f 223/1/412 69/1/105 263/1/420
f 206/1/466 241/1/392 212/1/471 207/1/419
f 212/1/471 213/1/472 189/1/407 207/1/419
f 530/1/473 531/1/295 380/1/294 522/1/474
f 331/1/261 336/1/475 317/1/476 311/1/439
f 393/1/477 394/1/232 376/1/231 392/1/470
f 399/1/478 414/1/479 393/1/477 392/1/470
f 263/1/420 69/1/105 269/1/480
f 289/1/463 291/1/301 283/1/243 282/1/252
f 196/1/481 203/1/482 199/1/483 193/1/484
f 85/1/149 88/1/114 76/1/155 77/1/154
f 569/1/214 568/1/485 562/1/220 563/1/215
f 612/1/486 620/1/487 618/1/488 619/1/489
f 269/1/480 69/1/105 274/1/253
f 585/1/318 580/1/321 578/1/490 579/1/312
f 545/1/192 559/1/191 219/1/145 546/1/144
f 323/1/491 327/1/341 324/1/359 318/1/375
f 278/1/492 657/1/493 272/1/404 273/1/403
f 636/1/494 633/1/495 628/1/352 629/1/351
f 304/1/440 300/1/158 297/1/157 303/1/430
f 564/1/190 565/1/496 571/1/497 566/1/498
f 275/1/246 270/1/499 269/1/480 274/1/253
f 274/1/253 69/1/105 282/1/252
f 276/1/245 271/1/500 270/1/499 275/1/246
f 76/1/155 87/1/185 79/1/183 72/1/140
f 300/1/158 304/1/440 308/1/501 307/1/502
f 656/1/503 675/1/504 664/1/455 657/1/493
f 490/1/505 502/1/506 481/1/467 482/1/507
f 317/1/476 337/1/508 314/1/509 308/1/501
f 711/1/510 712/1/511 443/1/512 704/1/513
f 183/1/313 191/1/514 185/1/515 177/1/314
f 282/1/252 69/1/105 289/1/463
f 271/1/500 250/1/449 255/1/421 270/1/499
f 711/1/510 704/1/513 703/1/368 710/1/367
f 315/1/516 316/1/387 293/1/386 307/1/502
f 343/1/517 382/1/234 344/1/518 337/1/508
f 344/1/518 345/1/519 314/1/509 337/1/508
f 608/1/350 625/1/353 601/1/520 600/1/521
f 289/1/463 69/1/105 296/1/461
f 276/1/245 284/1/156 277/1/522 271/1/500
f 224/1/422 255/1/421 250/1/449 230/1/431
f 284/1/156 292/1/159 285/1/263 277/1/522
f 293/1/386 287/1/264 285/1/263 292/1/159
f 216/1/397 223/1/412 224/1/422 210/1/523
f 296/1/461 69/1/105 302/1/524
f 271/1/500 277/1/522 257/1/450 250/1/449
f 314/1/509 315/1/516 307/1/502 308/1/501
f 210/1/523 224/1/422 230/1/431 209/1/434
f 311/1/439 317/1/476 308/1/501 304/1/440
f 696/1/369 703/1/368 698/1/427 684/1/426
f 387/1/233 388/1/68 344/1/518 382/1/234
f 302/1/524 69/1/105 310/1/376
f 208/1/381 216/1/397 210/1/523 203/1/482
f 281/1/171 267/1/170 256/1/525 280/1/265
f 257/1/450 280/1/265 256/1/525 242/1/432
f 203/1/482 210/1/523 209/1/434 199/1/483
f 287/1/264 294/1/388 288/1/168 281/1/171
f 184/1/315 186/1/526 179/1/309 176/1/308
f 299/1/462 305/1/436 298/1/302 291/1/301
f 310/1/376 69/1/105 318/1/375
f 178/1/336 171/1/342 327/1/341 323/1/491
f 204/1/527 244/1/147 211/1/146 187/1/528
f 320/1/529 322/1/530 294/1/388 316/1/387
f 506/1/531 529/1/532 513/1/533 507/1/534
f 310/1/376 313/1/365 306/1/535 302/1/524
f 314/1/509 345/1/519 321/1/536 315/1/516
f 69/1/105 178/1/336 323/1/491
f 69/1/105 323/1/491 318/1/375
f 195/1/360 202/1/374 196/1/481 191/1/514
f 171/1/342 178/1/336 134/1/257 135/1/225
f 190/1/323 195/1/360 191/1/514 183/1/313
f 185/1/515 192/1/537 184/1/315 177/1/314
f 270/1/499 255/1/421 263/1/420 269/1/480
f 209/1/434 236/1/433 217/1/538 199/1/483
f 376/1/231 382/1/234 343/1/517 368/1/438
f 300/1/158 307/1/502 293/1/386 292/1/159
f 236/1/433 243/1/539 231/1/540 217/1/538
f 344/1/518 388/1/68 351/1/71 345/1/519
f 345/1/519 351/1/71 347/1/541 321/1/536
f 313/1/365 329/1/339 312/1/437 306/1/535
f 231/1/540 243/1/539 249/1/542 237/1/543
f 249/1/542 267/1/170 266/1/169 260/1/372
f 19/1/11 25/1/36 23/1/41 24/1/43
f 591/1/544 598/1/545 593/1/546 592/1/547
f 333/1/548 338/1/549 339/1/550
f 136/1/186 166/1/138 161/1/285 142/1/201
f 306/1/535 312/1/437 305/1/436 299/1/462
f 84/1/117 80/1/126 75/1/120 83/1/118
f 193/1/484 197/1/551 192/1/537 185/1/515
f 258/1/379 679/1/442 252/1/87 253/1/86
f 137/1/139 166/1/138 136/1/186 131/1/181
f 320/1/529 346/1/552 338/1/549 322/1/530
f 490/1/505 736/1/553 508/1/554 502/1/506
f 186/1/526 204/1/527 187/1/528 179/1/309
f 199/1/483 217/1/538 197/1/551 193/1/484
f 197/1/551 225/1/555 198/1/556 192/1/537
f 537/1/557 541/1/558 544/1/335 538/1/559
f 336/1/475 343/1/517 337/1/508 317/1/476
f 346/1/552 352/1/560 338/1/549
f 346/1/552 353/1/561 352/1/560
f 346/1/552 347/1/541 354/1/562
f 346/1/552 354/1/562 353/1/561
f 217/1/538 231/1/540 225/1/555 197/1/551
f 302/1/524 306/1/535 299/1/462 296/1/461
f 232/1/563 205/1/564 198/1/556 225/1/555
f 560/1/297 579/1/312 578/1/490 572/1/298
f 352/1/560 358/1/23 338/1/549
f 338/1/549 358/1/23 339/1/550
f 352/1/560 359/1/20 358/1/23
f 352/1/560 353/1/561 359/1/20
f 354/1/562 347/1/541 360/1/565
f 354/1/562 361/1/566 353/1/561
f 354/1/562 360/1/565 361/1/566
f 238/1/274 239/1/567 205/1/564 232/1/563
f 695/1/366 696/1/369 678/1/441 689/1/446
f 373/1/568 372/1/569 353/1/561 361/1/566
f 379/1/570 373/1/568 361/1/566 360/1/565
f 395/1/70 396/1/69 402/1/571 360/1/565
f 249/1/542 260/1/372 254/1/275 237/1/543
f 277/1/522 285/1/263 280/1/265 257/1/450
f 386/1/572 389/1/573 373/1/568 379/1/570
f 366/1/22 370/1/574 371/1/575
f 543/1/58 542/1/57 536/1/576 527/1/577
f 431/1/578 438/1/579 424/1/464 425/1/7
f 367/1/580 340/1/581 339/1/550 358/1/23
f 367/1/580 371/1/575 374/1/582
f 237/1/543 254/1/275 238/1/274 232/1/563
f 260/1/372 301/1/371 261/1/273 254/1/275
f 2/1/2 9/1/18 8/1/12 3/1/3
f 385/1/583 405/1/270 409/1/269 390/1/75
f 509/1/584 515/1/585 516/1/586 510/1/587
f 187/1/528 211/1/146 180/1/281 173/1/284
f 400/1/588 429/1/589 405/1/270 403/1/324
f 393/1/477 421/1/289 400/1/588 394/1/232
f 378/1/590 377/1/591 383/1/32
f 605/1/26 613/1/29 608/1/350 600/1/521
f 333/1/548 334/1/447 295/1/370 326/1/398
f 366/1/22 371/1/575 367/1/580 358/1/23
f 389/1/573 398/1/592 372/1/569 373/1/568
f 379/1/570 385/1/583 386/1/572
f 150/1/293 157/1/307 158/1/108 144/1/107
f 309/1/448 381/1/296 261/1/273 301/1/371
f 372/1/569 398/1/592 397/1/593 365/1/21
f 370/1/574 406/1/9 377/1/591 371/1/575
f 397/1/593 412/1/6 406/1/9 370/1/574
f 441/1/594 442/1/595 415/1/30 434/1/596
f 339/1/550 340/1/581 334/1/447 333/1/548
f 351/1/71 395/1/70 347/1/541
f 347/1/541 395/1/70 360/1/565
f 340/1/581 375/1/597 309/1/448 334/1/447
f 741/1/598 755/1/599 508/1/554 736/1/553
f 238/1/274 262/1/196 245/1/195 239/1/567
f 143/1/187 149/1/429 148/1/240 126/1/188
f 142/1/201 155/1/349 149/1/429 143/1/187
f 380/1/294 381/1/296 309/1/448 375/1/597
f 768/1/600 763/1/278 762/1/601 765/1/602
f 360/1/565 402/1/571 385/1/583 379/1/570
f 245/1/195 546/1/144 244/1/147 239/1/567
f 374/1/582 375/1/597 340/1/581 367/1/580
f 694/1/603 701/1/604 702/1/172 693/1/276
f 402/1/571 405/1/270 385/1/583
f 320/1/529 321/1/536 347/1/541 346/1/552
f 186/1/526 198/1/556 205/1/564 204/1/527
f 180/1/281 211/1/146 219/1/145 218/1/207
f 499/1/605 505/1/91 486/1/90 492/1/606
f 518/1/219 556/1/221 535/1/607 511/1/608
f 377/1/591 406/1/9 411/1/609
f 655/1/610 661/1/611 659/1/612 654/1/400
f 141/1/237 229/1/125 127/1/124 133/1/238
f 71/1/122 73/1/121 78/1/128 77/1/154
f 469/1/76 477/1/413 470/1/469 464/1/77
f 410/1/33 411/1/609 416/1/613
f 717/1/614 718/1/615 451/1/616 712/1/511
f 142/1/201 161/1/285 160/1/283 155/1/349
f 411/1/609 406/1/9 418/1/8
f 455/1/617 504/1/618 440/1/619 391/1/620
f 539/1/621 558/1/189 545/1/192 540/1/194
f 539/1/621 540/1/194 268/1/193 531/1/295
f 426/1/416 698/1/427 435/1/622 427/1/417
f 609/1/623 590/1/624 589/1/625 601/1/520
f 503/1/626 504/1/618 455/1/617 498/1/627
f 226/1/206 227/1/424 188/1/282 218/1/207
f 332/1/260 363/1/423 336/1/475 331/1/261
f 530/1/473 550/1/334 539/1/621 531/1/295
f 368/1/438 343/1/517 336/1/475 363/1/423
f 497/1/628 498/1/627 463/1/629 489/1/630
f 497/1/628 780/1/346 503/1/626 498/1/627
f 425/1/7 412/1/6 431/1/578
f 503/1/626 515/1/585 509/1/584 504/1/618
f 412/1/6 432/1/631 431/1/578
f 564/1/190 566/1/498 226/1/206 559/1/191
f 128/1/242 156/1/241 129/1/235 121/1/222
f 429/1/589 437/1/632 405/1/270
f 538/1/559 530/1/473 522/1/474 521/1/633
f 499/1/605 518/1/219 511/1/608 505/1/91
f 398/1/592 433/1/634 412/1/6 397/1/593
f 488/1/635 489/1/630 470/1/469 487/1/468
f 488/1/635 774/1/636 497/1/628 489/1/630
f 221/1/395 222/1/317 168/1/316 214/1/396
f 557/1/333 565/1/496 564/1/190 558/1/189
f 228/1/325 229/1/125 141/1/237 222/1/317
f 451/1/616 452/1/637 428/1/288 444/1/287
f 777/1/343 780/1/346 497/1/628 774/1/636
f 154/1/428 201/1/457 174/1/418 167/1/272
f 496/1/638 767/1/639 488/1/635 487/1/468
f 725/1/640 742/1/641 745/1/642 743/1/643
f 206/1/466 207/1/419 174/1/418 201/1/457
f 544/1/335 550/1/334 530/1/473 538/1/559
f 782/1/344 532/1/644 524/1/645 523/1/345
f 50/1/51 54/1/67 53/1/89 49/1/52
f 391/1/620 456/1/78 455/1/617
f 391/1/620 390/1/75 456/1/78
f 769/1/646 776/1/647 777/1/343 774/1/636
f 631/1/648 638/1/402 637/1/401 632/1/649
f 750/1/650 758/1/651 757/1/277 755/1/599
f 428/1/288 452/1/637 437/1/632 429/1/589
f 437/1/632 459/1/652 460/1/267
f 437/1/632 460/1/267 405/1/270
f 781/1/653 783/1/654 532/1/644 782/1/344
f 781/1/653 782/1/344 777/1/343 776/1/647
f 418/1/8 423/1/465 416/1/613 411/1/609
f 377/1/591 411/1/609 410/1/33 383/1/32
f 456/1/78 464/1/77 463/1/629
f 538/1/559 521/1/633 513/1/533 537/1/557
f 384/1/655 514/1/656 374/1/582 378/1/590
f 779/1/657 783/1/654 781/1/653 778/1/658
f 409/1/269 469/1/76 390/1/75
f 383/1/32 417/1/31 384/1/655 378/1/590
f 416/1/613 434/1/596 415/1/30 410/1/33
f 542/1/57 548/1/56 547/1/659 541/1/558
f 764/1/279 770/1/660 769/1/646 767/1/639
f 764/1/279 767/1/639 496/1/638 761/1/280
f 467/1/37 472/1/661 473/1/662
f 467/1/37 473/1/662 474/1/38
f 113/1/292 108/1/216 105/1/112 112/1/290
f 775/1/663 776/1/647 769/1/646 770/1/660
f 473/1/662 475/1/664 474/1/38
f 472/1/661 478/1/665 473/1/662
f 473/1/662 478/1/665 479/1/666
f 473/1/662 479/1/666 475/1/664
f 545/1/192 546/1/144 245/1/195 540/1/194
f 768/1/600 770/1/660 764/1/279 763/1/278
f 599/1/667 607/1/27 605/1/26 598/1/545
f 422/1/668 507/1/534 384/1/655 417/1/31
f 415/1/30 442/1/595 422/1/668 417/1/31
f 478/1/665 484/1/669 483/1/670
f 430/1/133 449/1/132 441/1/594 434/1/596
f 430/1/133 434/1/596 416/1/613 423/1/465
f 179/1/309 187/1/528 173/1/284 172/1/137
f 506/1/531 507/1/534 422/1/668 501/1/460
f 459/1/652 458/1/671 491/1/672
f 365/1/21 397/1/593 370/1/574 366/1/22
f 484/1/669 493/1/673 492/1/606
f 374/1/582 522/1/474 380/1/294 375/1/597
f 762/1/601 763/1/278 757/1/277 758/1/651
f 220/1/674 273/1/403 215/1/393 213/1/472
f 450/1/414 501/1/460 422/1/668 442/1/595
f 91/1/130 89/1/127 80/1/126 84/1/117
f 243/1/539 256/1/525 267/1/170 249/1/542
f 708/1/675 759/1/676 756/1/677 754/1/678
f 756/1/677 759/1/676 762/1/601 758/1/651
f 508/1/554 761/1/280 496/1/638 502/1/506
f 757/1/277 761/1/280 508/1/554 755/1/599
f 192/1/537 198/1/556 186/1/526 184/1/315
f 162/1/271 181/1/408 168/1/316 163/1/236
f 102/1/358 144/1/107 138/1/110 103/1/180
f 611/1/679 635/1/680 602/1/681 603/1/682
f 500/1/255 520/1/683 506/1/531 501/1/460
f 381/1/296 268/1/193 262/1/196 261/1/273
f 504/1/618 509/1/584 440/1/619
f 33/1/684 34/1/685 29/1/42 30/1/44
f 440/1/619 509/1/584 510/1/587
f 756/1/677 758/1/651 750/1/650 751/1/686
f 391/1/620 440/1/619 389/1/573 386/1/572
f 459/1/652 482/1/507 466/1/268 460/1/267
f 459/1/652 491/1/672 490/1/505 482/1/507
f 431/1/578 432/1/631 439/1/687 438/1/579
f 499/1/605 517/1/688 518/1/219
f 512/1/254 511/1/608 519/1/689
f 440/1/619 433/1/634 398/1/592 389/1/573
f 514/1/656 521/1/633 374/1/582
f 514/1/656 513/1/533 521/1/633
f 374/1/582 521/1/633 522/1/474
f 445/1/166 446/1/134 424/1/464 438/1/579
f 439/1/687 447/1/167 445/1/166 438/1/579
f 722/1/690 740/1/691 717/1/614 716/1/692
f 493/1/673 526/1/693 525/1/694
f 470/1/469 489/1/630 463/1/629 464/1/77
f 519/1/689 527/1/577 520/1/683
f 519/1/689 511/1/608 528/1/695
f 519/1/689 528/1/695 527/1/577
f 35/1/84 36/1/83 32/1/696 31/1/697
f 428/1/288 429/1/589 400/1/588 421/1/289
f 297/1/157 284/1/156 276/1/245 290/1/244
f 118/1/177 128/1/242 121/1/222 107/1/197
f 526/1/693 534/1/698 533/1/354
f 528/1/695 535/1/607 527/1/577
f 528/1/695 511/1/608 535/1/607
f 734/1/699 749/1/700 751/1/686 750/1/650
f 529/1/532 527/1/577 536/1/576
f 529/1/532 537/1/557 513/1/533
f 529/1/532 536/1/576 537/1/557
f 452/1/637 458/1/671 459/1/652 437/1/632
f 420/1/286 421/1/289 393/1/477 414/1/479
f 466/1/268 482/1/507 481/1/467 477/1/413
f 765/1/602 762/1/601 759/1/676 760/1/701
f 729/1/702 728/1/703 724/1/704 723/1/705
f 527/1/577 535/1/607 543/1/58
f 451/1/616 718/1/615 458/1/671 452/1/637
f 43/1/62 47/1/73 44/1/72 40/1/63
f 659/1/612 660/1/706 637/1/401 654/1/400
f 413/1/707 414/1/479 399/1/478 408/1/444
f 407/1/380 427/1/417 413/1/707 408/1/444
f 780/1/346 523/1/345 515/1/585 503/1/626
f 717/1/614 740/1/691 723/1/705 718/1/615
f 723/1/705 740/1/691 735/1/708 729/1/702
f 598/1/545 605/1/26 600/1/521 593/1/546
f 722/1/690 748/1/709 735/1/708 740/1/691
f 147/1/337 153/1/210 114/1/262 115/1/310
f 717/1/614 712/1/511 711/1/510 716/1/692
f 748/1/709 752/1/710 749/1/700 735/1/708
f 443/1/512 444/1/287 420/1/286 436/1/711
f 443/1/512 712/1/511 451/1/616 444/1/287
f 101/1/182 150/1/293 144/1/107 102/1/358
f 739/1/712 722/1/690 716/1/692 715/1/713
f 715/1/713 716/1/692 711/1/510 710/1/367
f 738/1/714 748/1/709 722/1/690 739/1/712
f 752/1/710 753/1/715 751/1/686 749/1/700
f 752/1/710 748/1/709 738/1/714 747/1/716
f 751/1/686 753/1/715 746/1/717 754/1/678
f 775/1/663 770/1/660 768/1/600 772/1/718
f 165/1/331 171/1/342 135/1/225 123/1/224
f 435/1/622 436/1/711 413/1/707 427/1/417
f 745/1/642 753/1/715 752/1/710 747/1/716
f 746/1/717 753/1/715 745/1/642 742/1/641
f 703/1/368 704/1/513 435/1/622 698/1/427
f 169/1/229 176/1/308 170/1/136 164/1/109
f 235/1/85 248/1/88 139/1/291 132/1/123
f 720/1/328 739/1/712 715/1/713 714/1/329
f 221/1/395 259/1/378 228/1/325 222/1/317
f 745/1/642 747/1/716 733/1/719 743/1/643
f 733/1/719 747/1/716 738/1/714 731/1/391
f 709/1/720 746/1/717 742/1/641 737/1/721
f 775/1/663 778/1/658 781/1/653 776/1/647
f 715/1/713 710/1/367 695/1/366 714/1/329
f 551/1/249 567/1/248 560/1/297 552/1/300
f 713/1/174 730/1/173 725/1/640 719/1/722
f 769/1/646 774/1/636 488/1/635 767/1/639
f 701/1/604 737/1/721 730/1/173 702/1/172
f 463/1/629 498/1/627 455/1/617 456/1/78
f 688/1/326 714/1/329 695/1/366 689/1/446
f 418/1/8 425/1/7 424/1/464 423/1/465
f 688/1/326 689/1/446 670/1/445 681/1/456
f 713/1/174 719/1/722 683/1/723 707/1/724
f 441/1/594 465/1/415 450/1/414 442/1/595
f 362/1/364 401/1/363 399/1/478 392/1/470
f 562/1/220 568/1/485 561/1/247 555/1/250
f 534/1/698 591/1/544 592/1/547
f 728/1/703 736/1/553 490/1/505 491/1/672
f 601/1/520 625/1/353 617/1/725 609/1/623
f 683/1/723 719/1/722 697/1/726 691/1/727
f 457/1/728 476/1/411 471/1/410 465/1/415
f 220/1/674 279/1/729 278/1/492 273/1/403
f 725/1/640 743/1/643 697/1/726 719/1/722
f 693/1/276 705/1/198 686/1/730 687/1/731
f 591/1/544 599/1/667 598/1/545
f 686/1/730 705/1/198 692/1/200 673/1/732
f 315/1/516 321/1/536 320/1/529 316/1/387
f 674/1/733 675/1/504 656/1/503 668/1/734
f 674/1/733 726/1/735 680/1/736 675/1/504
f 662/1/737 686/1/730 673/1/732 661/1/611
f 599/1/667 606/1/738 607/1/27
f 699/1/199 647/1/739 666/1/384 692/1/200
f 673/1/732 692/1/200 666/1/384 672/1/383
f 706/1/175 713/1/174 707/1/724 699/1/199
f 690/1/740 726/1/735 674/1/733 682/1/741
f 690/1/740 732/1/742 727/1/390 726/1/735
f 697/1/726 732/1/742 690/1/740 691/1/727
f 461/1/39 468/1/743 448/1/131 454/1/165
f 621/1/218 645/1/744 636/1/494 629/1/351
f 659/1/612 661/1/611 673/1/732 672/1/383
f 403/1/324 405/1/270 402/1/571 396/1/69
f 606/1/738 616/1/745 615/1/746
f 189/1/407 213/1/472 215/1/393 214/1/396
f 707/1/724 648/1/747 647/1/739 699/1/199
f 683/1/723 691/1/727 676/1/748 677/1/749
f 676/1/748 691/1/727 690/1/740 682/1/741
f 659/1/612 672/1/383 653/1/382 660/1/706
f 322/1/530 326/1/398 288/1/168 294/1/388
f 525/1/694 577/1/357 576/1/213 570/1/212
f 400/1/588 403/1/324 387/1/233 394/1/232
f 647/1/739 648/1/747 640/1/750 639/1/751
f 648/1/747 677/1/749 642/1/752 640/1/750
f 640/1/750 634/1/753 633/1/495 639/1/751
f 666/1/384 647/1/739 639/1/751 658/1/385
f 733/1/719 731/1/391 727/1/390 732/1/742
f 569/1/214 588/1/454 575/1/754 568/1/485
f 448/1/131 468/1/743 457/1/728 449/1/132
f 611/1/679 603/1/682 587/1/755 610/1/756
f 643/1/757 663/1/758 651/1/759 644/1/760
f 636/1/494 658/1/385 639/1/751 633/1/495
f 653/1/382 658/1/385 636/1/494 645/1/744
f 631/1/648 632/1/649 623/1/761 624/1/762
f 623/1/761 632/1/649 630/1/763 622/1/217
f 664/1/455 665/1/405 272/1/404 657/1/493
f 633/1/495 634/1/753 626/1/764 628/1/352
f 634/1/753 641/1/765 627/1/766 626/1/764
f 667/1/767 682/1/741 674/1/733 668/1/734
f 643/1/757 644/1/760 602/1/681 635/1/680
f 616/1/745 624/1/762 623/1/761 615/1/746
f 676/1/748 682/1/741 667/1/767 669/1/768
f 656/1/503 657/1/493 278/1/492 652/1/769
f 649/1/770 650/1/771 627/1/766 641/1/765
f 649/1/770 669/1/768 667/1/767 663/1/758
f 634/1/753 640/1/750 642/1/752 641/1/765
f 651/1/759 668/1/734 656/1/503 652/1/769
f 667/1/767 668/1/734 651/1/759 663/1/758
f 630/1/763 645/1/744 621/1/218 622/1/217
f 637/1/401 660/1/706 630/1/763 632/1/649
f 646/1/399 655/1/610 654/1/400
f 286/1/772 652/1/769 278/1/492 279/1/729
f 595/1/773 603/1/682 602/1/681 596/1/774
f 606/1/738 615/1/746 614/1/28 607/1/27
f 623/1/761 622/1/217 614/1/28 615/1/746
f 239/1/567 244/1/147 204/1/527 205/1/564
f 655/1/610 662/1/737 661/1/611
f 597/1/453 619/1/489 611/1/679 610/1/756
f 251/1/775 279/1/729 220/1/674 247/1/776
f 557/1/333 558/1/189 539/1/621 550/1/334
f 621/1/218 629/1/351 608/1/350 613/1/29
f 651/1/759 652/1/769 286/1/772 644/1/760
f 649/1/770 663/1/758 643/1/757 650/1/771
f 413/1/707 436/1/711 420/1/286 414/1/479
f 707/1/724 683/1/723 677/1/749 648/1/747
f 161/1/285 173/1/284 180/1/281 160/1/283
f 353/1/561 372/1/569 365/1/21 359/1/20
f 513/1/533 514/1/656 384/1/655 507/1/534
f 251/1/775 596/1/774 286/1/772 279/1/729
f 642/1/752 677/1/749 676/1/748 669/1/768
f 627/1/766 650/1/771 618/1/488 620/1/487
f 650/1/771 643/1/757 635/1/680 618/1/488
f 77/1/154 78/1/128 86/1/143 85/1/149
f 556/1/221 562/1/220 555/1/250 549/1/55
f 595/1/773 596/1/774 251/1/775 586/1/319
f 617/1/725 626/1/764 627/1/766 620/1/487
f 617/1/725 620/1/487 612/1/486 609/1/623
f 680/1/736 726/1/735 727/1/390 721/1/327
f 233/1/303 234/1/306 200/1/425 227/1/424
f 65/1/362 66/1/361 63/1/99 64/1/100
f 226/1/206 566/1/498 233/1/303 227/1/424
f 662/1/737 687/1/731 686/1/730
f 435/1/622 704/1/513 443/1/512 436/1/711
f 585/1/318 594/1/777 595/1/773 586/1/319
f 602/1/681 644/1/760 286/1/772 596/1/774
f 630/1/763 660/1/706 653/1/382 645/1/744
f 31/1/697 32/1/696 28/1/60 27/1/59
f 724/1/704 458/1/671 718/1/615 723/1/705
f 687/1/731 694/1/603 693/1/276
f 578/1/490 580/1/321 240/1/305 573/1/304
f 75/1/120 80/1/126 73/1/121 70/1/106
f 625/1/353 628/1/352 626/1/764 617/1/725
f 612/1/486 619/1/489 597/1/453 604/1/452
f 191/1/514 196/1/481 193/1/484 185/1/515
f 694/1/603 700/1/778 701/1/604
f 534/1/698 592/1/547 584/1/355 533/1/354
f 571/1/497 573/1/304 233/1/303 566/1/498
f 151/1/338 364/1/377 348/1/340 152/1/211
f 578/1/490 573/1/304 571/1/497 572/1/298
f 593/1/546 589/1/625 584/1/355 592/1/547
f 601/1/520 589/1/625 593/1/546 600/1/521
f 126/1/188 128/1/242 118/1/177 119/1/176
f 738/1/714 739/1/712 720/1/328 731/1/391
f 700/1/778 708/1/675 709/1/720
f 533/1/354 577/1/357 525/1/694 526/1/693
f 553/1/299 572/1/298 571/1/497 565/1/496
f 553/1/299 565/1/496 557/1/333 554/1/332
f 604/1/452 590/1/624 609/1/623 612/1/486
f 231/1/540 237/1/543 232/1/563 225/1/555
f 350/1/150 355/1/153 349/1/161 342/1/160
f 684/1/426 685/1/373 252/1/87 679/1/442
f 547/1/659 554/1/332 544/1/335 541/1/558
f 574/1/311 594/1/777 585/1/318 579/1/312
f 106/1/239 112/1/290 105/1/112 98/1/111
f 240/1/305 241/1/392 206/1/466 234/1/306
f 551/1/249 552/1/300 547/1/659 548/1/56
f 493/1/673 517/1/688 499/1/605 492/1/606
f 536/1/576 542/1/57 541/1/558 537/1/557
f 458/1/671 724/1/704 491/1/672
f 590/1/624 604/1/452 582/1/451 583/1/356
f 618/1/488 635/1/680 611/1/679 619/1/489
f 587/1/755 603/1/682 595/1/773 594/1/777
f 697/1/726 743/1/643 733/1/719 732/1/742
f 587/1/755 594/1/777 574/1/311 581/1/779
f 724/1/704 728/1/703 491/1/672
f 527/1/577 529/1/532 506/1/531 520/1/683
f 766/1/780 772/1/718 768/1/600 765/1/602
f 589/1/625 590/1/624 583/1/356 584/1/355
f 517/1/688 570/1/212 563/1/215 518/1/219
f 575/1/754 610/1/756 587/1/755 581/1/779
f 610/1/756 575/1/754 588/1/454 597/1/453
f 729/1/702 734/1/699 728/1/703
f 735/1/708 749/1/700 734/1/699 729/1/702
f 535/1/607 556/1/221 549/1/55 543/1/58
f 577/1/357 583/1/356 582/1/451 576/1/213
f 212/1/471 247/1/776 220/1/674 213/1/472
f 561/1/247 581/1/779 574/1/311 567/1/248
f 709/1/720 737/1/721 701/1/604 700/1/778
f 378/1/590 374/1/582 371/1/575 377/1/591
f 736/1/553 728/1/703 741/1/598
f 519/1/689 520/1/683 500/1/255 512/1/254
f 453/1/164 462/1/40 461/1/39 454/1/165
f 728/1/703 744/1/781 741/1/598
f 728/1/703 734/1/699 744/1/781
f 582/1/451 588/1/454 569/1/214 576/1/213
f 680/1/736 681/1/456 664/1/455 675/1/504
f 202/1/374 208/1/381 203/1/482 196/1/481
f 330/1/259 325/1/258 312/1/437 329/1/339
f 744/1/781 734/1/699 750/1/650
f 744/1/781 750/1/650 741/1/598
f 33/1/684 38/1/458 37/1/459 34/1/685
f 737/1/721 742/1/641 725/1/640 730/1/173
f 404/1/389 408/1/444 399/1/478 401/1/363
f 575/1/754 581/1/779 561/1/247 568/1/485
f 246/1/320 247/1/776 212/1/471 241/1/392
f 525/1/694 570/1/212 517/1/688 493/1/673
f 741/1/598 750/1/650 755/1/599
f 751/1/686 754/1/678 756/1/677
f 322/1/530 338/1/549 333/1/548 326/1/398
f 511/1/608 512/1/254 494/1/92 505/1/91
f 553/1/299 554/1/332 547/1/659 552/1/300
f 708/1/675 760/1/701 759/1/676
f 709/1/720 708/1/675 754/1/678 746/1/717
f 390/1/75 391/1/620 386/1/572 385/1/583
f 494/1/92 495/1/256 471/1/410 485/1/93
f 242/1/432 256/1/525 243/1/539 236/1/433
f 492/1/606 486/1/90 483/1/670 484/1/669
f 760/1/701 766/1/780 765/1/602
f 486/1/90 485/1/93 480/1/409 483/1/670
f 475/1/664 476/1/411 457/1/728 468/1/743
f 478/1/665 483/1/670 480/1/409 479/1/666
f 481/1/467 502/1/506 496/1/638 487/1/468
f 457/1/728 465/1/415 441/1/594 449/1/132
f 766/1/780 771/1/782 772/1/718
f 766/1/780 773/1/783 771/1/782
f 480/1/409 476/1/411 475/1/664 479/1/666
f 221/1/395 265/1/394 264/1/406 259/1/378
f 771/1/782 775/1/663 772/1/718
f 264/1/406 671/1/443 258/1/379 259/1/378
f 246/1/320 586/1/319 251/1/775 247/1/776
f 771/1/782 778/1/658 775/1/663
f 771/1/782 779/1/657 778/1/658
f 771/1/782 773/1/783 779/1/657
f 445/1/166 454/1/165 448/1/131 446/1/134
f 680/1/736 721/1/327 688/1/326 681/1/456
f 474/1/38 475/1/664 468/1/743 461/1/39
f 685/1/373 426/1/416 419/1/203 145/1/202
f 523/1/345 524/1/645 516/1/586 515/1/585
f 642/1/752 669/1/768 649/1/770 641/1/765
