# Blender 4.3.2
# www.blender.org
o hair.037
v 7.844915 0.937949 -0.002104
v 7.849789 0.936726 -0.005935
v 7.848975 0.936639 -0.006903
v 7.848169 0.936523 -0.007879
v 7.847110 0.936481 -0.008398
v 7.846056 0.936381 -0.008919
v 7.844915 0.936411 -0.008916
v 7.844915 0.937861 0.004883
v 7.846058 0.937851 0.004894
v 7.848177 0.937755 0.003843
v 7.848987 0.937672 0.002864
v 7.847114 0.937818 0.004360
v 7.849803 0.937560 0.001897
v 7.850673 0.937291 -0.000625
v 7.850661 0.937158 -0.001991
v 7.850236 0.937441 0.000626
v 7.850665 0.936996 -0.003375
v 7.850222 0.936875 -0.004659
v 7.840855 0.936639 -0.006903
v 7.840041 0.936726 -0.005935
v 7.841660 0.936523 -0.007879
v 7.843774 0.936381 -0.008919
v 7.842720 0.936481 -0.008398
v 7.843771 0.937851 0.004894
v 7.840843 0.937672 0.002864
v 7.841653 0.937755 0.003843
v 7.842716 0.937818 0.004360
v 7.840027 0.937560 0.001897
v 7.839169 0.937158 -0.001991
v 7.839157 0.937291 -0.000625
v 7.839594 0.937441 0.000626
v 7.839165 0.936996 -0.003375
v 7.839608 0.936875 -0.004659
v 7.838273 0.937073 0.006010
v 7.841350 0.937263 0.008413
v 7.835549 0.936204 -0.001769
v 7.835694 0.936460 0.000362
v 7.836198 0.936700 0.002392
v 7.836277 0.935703 -0.006168
v 7.835743 0.935947 -0.003996
v 7.838318 0.935296 -0.009836
v 7.837150 0.935483 -0.008133
v 7.843103 0.937288 0.009035
v 7.844915 0.937288 0.009247
v 7.832105 0.935161 0.001428
v 7.831946 0.934789 -0.001497
v 7.833028 0.934005 -0.007569
v 7.834253 0.933662 -0.010356
v 7.832257 0.934392 -0.004556
v 7.835875 0.933377 -0.012785
v 7.828629 0.933110 -0.001266
v 7.828785 0.933595 0.002398
v 7.830098 0.931999 -0.008693
v 7.829066 0.932571 -0.005006
v 7.831651 0.931529 -0.012236
v 7.841357 0.935027 -0.012255
v 7.839740 0.935149 -0.011228
v 7.848480 0.937263 0.008413
v 7.846727 0.937288 0.009035
v 7.825922 0.930139 -0.005261
v 7.825395 0.930762 -0.000892
v 7.837835 0.933165 -0.014729
v 7.840052 0.932996 -0.016141
v 7.847348 0.936158 0.013198
v 7.849713 0.936176 0.012384
v 7.822853 0.928430 -0.000495
v 7.825563 0.931366 0.003530
v 7.844915 0.934923 -0.013093
v 7.843103 0.934943 -0.012877
v 7.833685 0.931146 -0.015369
v 7.826713 0.931963 0.007879
v 7.829702 0.934039 0.005948
v 7.846727 0.934943 -0.012877
v 7.844915 0.932813 -0.017270
v 7.842440 0.932863 -0.016985
v 7.828992 0.928989 -0.013720
v 7.827126 0.929535 -0.009548
v 7.836133 0.930875 -0.017827
v 7.832805 0.935499 0.004222
v 7.848473 0.935027 -0.012255
v 7.838892 0.930676 -0.019588
v 7.841856 0.930508 -0.020629
v 7.824745 0.927218 -0.009988
v 7.834379 0.928211 -0.020382
v 7.831438 0.928536 -0.017446
v 7.837079 0.936907 0.004309
v 7.837690 0.927984 -0.022499
v 7.844915 0.930431 -0.020969
v 7.841244 0.927822 -0.023773
v 7.823413 0.927809 -0.005311
v 7.829616 0.926197 -0.018692
v 7.826844 0.926669 -0.014566
v 7.836732 0.925592 -0.024399
v 7.847390 0.932863 -0.016985
v 7.821097 0.924994 -0.005191
v 7.824878 0.923950 -0.015185
v 7.822556 0.924458 -0.010217
v 7.839718 0.937192 0.007392
v 7.835871 0.936015 0.009230
v 7.834118 0.935794 0.006886
v 7.832965 0.925841 -0.021991
v 7.820545 0.921109 -0.010401
v 7.837892 0.936136 0.011062
v 7.833924 0.934756 0.012234
v 7.836487 0.934885 0.014337
v 7.831539 0.934450 0.009333
v 7.831725 0.923122 -0.023366
v 7.827967 0.923495 -0.019706
v 7.840117 0.936176 0.012384
v 7.839196 0.934895 0.015772
v 7.835265 0.933299 0.017623
v 7.838411 0.933403 0.018972
v 7.826413 0.920194 -0.020610
v 7.823049 0.920636 -0.015722
v 7.842482 0.936158 0.013198
v 7.842025 0.934847 0.016672
v 7.841639 0.933447 0.019831
v 7.837945 0.931768 0.021462
v 7.829117 0.932560 0.012010
v 7.821457 0.916397 -0.016221
v 7.844915 0.936134 0.013478
v 7.844915 0.934809 0.016988
v 7.844915 0.933455 0.020139
v 7.841394 0.932002 0.022170
v 7.844915 0.932101 0.022428
v 7.824499 0.929716 0.009536
v 7.832170 0.933045 0.015421
v 7.847805 0.934847 0.016672
v 7.848191 0.933447 0.019831
v 7.850634 0.934895 0.015772
v 7.841223 0.929809 0.024384
v 7.823053 0.929090 0.004512
v 7.831145 0.930994 0.018205
v 7.851419 0.933403 0.018972
v 7.853343 0.934885 0.014337
v 7.851938 0.936136 0.011062
v 7.820528 0.925549 0.000003
v 7.820888 0.926120 0.005486
v 7.834586 0.931451 0.020362
v 7.827483 0.930390 0.014358
v 7.854565 0.933299 0.017623
v 7.855906 0.934756 0.012234
v 7.850112 0.937192 0.007392
v 7.818424 0.922082 0.000436
v 7.818981 0.921589 -0.005075
v 7.834373 0.928632 0.023193
v 7.837679 0.929306 0.023942
v 7.826411 0.927299 0.016789
v 7.851557 0.937073 0.006010
v 7.818851 0.916889 -0.010629
v 7.817245 0.917356 -0.005083
v 7.830751 0.927932 0.021180
v 7.837699 0.925914 0.025812
v 7.822688 0.926703 0.011145
v 7.817675 0.911994 -0.010832
v 7.816003 0.912480 -0.005162
v 7.816718 0.917853 0.000669
v 7.815416 0.913017 0.000752
v 7.831794 0.923185 0.025257
v 7.841197 0.926727 0.025910
v 7.834641 0.924928 0.025620
v 7.815367 0.907153 -0.005257
v 7.817355 0.918442 0.006871
v 7.818947 0.922602 0.006317
v 7.825288 0.923676 0.018619
v 7.823502 0.919756 0.019224
v 7.828932 0.920097 0.024645
v 7.821075 0.923135 0.012446
v 7.844915 0.927091 0.025936
v 7.844915 0.930032 0.024543
v 7.826291 0.915872 0.023885
v 7.821517 0.915281 0.019139
v 7.818047 0.914470 0.013539
v 7.819513 0.919089 0.013193
v 7.848607 0.929809 0.024384
v 7.848633 0.926727 0.025910
v 7.848435 0.932002 0.022170
v 7.819792 0.910027 0.018876
v 7.824105 0.910718 0.023081
v 7.816049 0.913698 0.007185
v 7.852131 0.925914 0.025812
v 7.852151 0.929306 0.023942
v 7.851884 0.931768 0.021462
v 7.822499 0.904855 0.022525
v 7.814521 0.907719 0.000742
v 7.814962 0.908418 0.007301
v 7.855457 0.928632 0.023193
v 7.855189 0.924928 0.025620
v 7.855244 0.931451 0.020362
v 7.818362 0.904170 0.018619
v 7.817258 0.897874 0.018555
v 7.821595 0.898505 0.022508
v 7.813826 0.902117 0.000667
v 7.816721 0.909201 0.013631
v 7.858036 0.923185 0.025257
v 7.858685 0.930994 0.018205
v 7.859079 0.927932 0.021180
v 7.857660 0.933045 0.015421
v 7.815489 0.903418 0.013568
v 7.821210 0.892265 0.022854
v 7.866328 0.919756 0.019224
v 7.864542 0.923676 0.018619
v 7.860898 0.920097 0.024645
v 7.863419 0.927299 0.016789
v 7.860713 0.932560 0.012010
v 7.858291 0.934450 0.009333
v 7.853959 0.936015 0.009230
v 7.816368 0.891715 0.018710
v 7.815576 0.886240 0.019108
v 7.821159 0.886735 0.023387
v 7.868754 0.923135 0.012446
v 7.863539 0.915872 0.023885
v 7.860127 0.934039 0.005948
v 7.855712 0.935794 0.006886
v 7.812959 0.891246 0.013492
v 7.814303 0.897251 0.013449
v 7.821360 0.881668 0.024055
v 7.868313 0.915281 0.019139
v 7.870038 0.910027 0.018876
v 7.865725 0.910718 0.023081
v 7.852751 0.936907 0.004309
v 7.812996 0.896773 0.007152
v 7.813982 0.902736 0.007272
v 7.814662 0.881349 0.020080
v 7.814118 0.876658 0.021256
v 7.821733 0.876817 0.024808
v 7.867331 0.904855 0.022525
v 7.853632 0.936700 0.002392
v 7.857025 0.935499 0.004222
v 7.809851 0.881028 0.014507
v 7.811294 0.885892 0.013910
v 7.822260 0.872239 0.025610
v 7.872572 0.897874 0.018555
v 7.871468 0.904170 0.018619
v 7.868235 0.898505 0.022508
v 7.810818 0.885529 0.007354
v 7.811959 0.890916 0.007120
v 7.814144 0.872300 0.022347
v 7.814746 0.868047 0.023384
v 7.822926 0.867992 0.026425
v 7.874341 0.903418 0.013568
v 7.868620 0.892265 0.022854
v 7.812377 0.890653 0.000552
v 7.813124 0.896342 0.000559
v 7.807857 0.872214 0.015908
v 7.808602 0.876552 0.015190
v 7.823788 0.863928 0.027007
v 7.873462 0.891715 0.018710
v 7.874254 0.886240 0.019108
v 7.868671 0.886735 0.023387
v 7.814434 0.895884 -0.005546
v 7.814968 0.901573 -0.005382
v 7.808825 0.876740 0.008078
v 7.809832 0.880739 0.007735
v 7.815924 0.863730 0.024338
v 7.817779 0.859327 0.025097
v 7.824906 0.859900 0.027110
v 7.868470 0.881668 0.024055
v 7.817001 0.901068 -0.011091
v 7.817213 0.906647 -0.010948
v 7.810803 0.880595 0.001127
v 7.811544 0.885308 0.000780
v 7.809042 0.863493 0.018166
v 7.807957 0.868035 0.016998
v 7.820181 0.855234 0.025680
v 7.826278 0.855882 0.026755
v 7.819782 0.906118 -0.016637
v 7.820302 0.911468 -0.016564
v 7.812950 0.885000 -0.005561
v 7.813761 0.890286 -0.005640
v 7.808492 0.868772 0.009635
v 7.808374 0.873209 0.008411
v 7.824313 0.851053 0.025475
v 7.827899 0.851846 0.025964
v 7.823916 0.910969 -0.021913
v 7.825007 0.915924 -0.021402
v 7.815924 0.889856 -0.011649
v 7.816575 0.895407 -0.011369
v 7.810334 0.876823 0.001474
v 7.820583 0.851551 0.022458
v 7.829647 0.847800 0.024955
v 7.829435 0.915515 -0.025682
v 7.830548 0.919805 -0.024612
v 7.819227 0.894910 -0.017174
v 7.819543 0.900554 -0.016741
v 7.823597 0.849685 0.021365
v 7.825256 0.849061 0.020885
v 7.815368 0.854927 0.020886
v 7.835172 0.919495 -0.027550
v 7.835931 0.922844 -0.026053
v 7.823008 0.900108 -0.022046
v 7.823312 0.905641 -0.021977
v 7.819323 0.851278 0.018587
v 7.821176 0.850795 0.017119
v 7.811306 0.859152 0.019346
v 7.840366 0.922669 -0.027662
v 7.840759 0.925434 -0.025860
v 7.828013 0.905293 -0.026559
v 7.828538 0.910564 -0.026392
v 7.817749 0.853333 0.013769
v 7.814685 0.854538 0.015912
v 7.809494 0.863928 0.011369
v 7.811295 0.859323 0.013373
v 7.844915 0.925378 -0.026353
v 7.844915 0.927757 -0.024198
v 7.833799 0.910248 -0.029652
v 7.834419 0.915184 -0.028803
v 7.815009 0.856540 0.010517
v 7.810930 0.865101 0.004695
v 7.810428 0.868960 0.003145
v 7.812710 0.860118 0.007604
v 7.848586 0.927822 -0.023773
v 7.847974 0.930508 -0.020629
v 7.839624 0.914946 -0.030506
v 7.839998 0.919288 -0.029251
v 7.810567 0.874371 0.001937
v 7.852140 0.927984 -0.022499
v 7.853097 0.925592 -0.024399
v 7.849071 0.925434 -0.025860
v 7.849778 0.932996 -0.016141
v 7.844915 0.919210 -0.029789
v 7.844915 0.922607 -0.028196
v 7.811591 0.872211 -0.004665
v 7.814408 0.868060 -0.002783
v 7.811491 0.876009 -0.005092
v 7.849463 0.922669 -0.027662
v 7.850090 0.935149 -0.011228
v 7.851995 0.933165 -0.014729
v 7.850937 0.930676 -0.019588
v 7.814998 0.865834 -0.010119
v 7.813330 0.870503 -0.011168
v 7.818496 0.862053 -0.007548
v 7.812145 0.880191 -0.005361
v 7.851512 0.935296 -0.009836
v 7.853955 0.933377 -0.012785
v 7.853697 0.930875 -0.017827
v 7.855451 0.928211 -0.020382
v 7.820158 0.859456 -0.014827
v 7.823662 0.856653 -0.012403
v 7.814100 0.879680 -0.011805
v 7.815040 0.884628 -0.011803
v 7.852680 0.935483 -0.008133
v 7.826166 0.854029 -0.018781
v 7.828529 0.852535 -0.016398
v 7.817831 0.884202 -0.018052
v 7.818701 0.889390 -0.017690
v 7.813281 0.874940 -0.011621
v 7.853553 0.935703 -0.006168
v 7.855577 0.933661 -0.010356
v 7.832499 0.850492 -0.018579
v 7.822471 0.888938 -0.023233
v 7.822817 0.894466 -0.022569
v 7.816249 0.874297 -0.018072
v 7.854087 0.935947 -0.003996
v 7.856802 0.934005 -0.007569
v 7.858179 0.931529 -0.012236
v 7.856145 0.931146 -0.015369
v 7.830228 0.852756 -0.021777
v 7.836739 0.849353 -0.019732
v 7.816913 0.879216 -0.018202
v 7.854281 0.936204 -0.001769
v 7.857573 0.934392 -0.004556
v 7.859732 0.931999 -0.008693
v 7.858392 0.928536 -0.017446
v 7.834849 0.852033 -0.024040
v 7.839787 0.851560 -0.025531
v 7.840760 0.848661 -0.020642
v 7.823577 0.857647 -0.020197
v 7.860838 0.928989 -0.013720
v 7.860214 0.926197 -0.018692
v 7.856865 0.925841 -0.021991
v 7.833438 0.856130 -0.027504
v 7.844915 0.848396 -0.021036
v 7.817829 0.863999 -0.016671
v 7.828147 0.856636 -0.024438
v 7.854136 0.936460 0.000362
v 7.858105 0.923122 -0.023366
v 7.853899 0.922844 -0.026053
v 7.816378 0.869339 -0.017732
v 7.821712 0.862893 -0.021868
v 7.857883 0.934789 -0.001497
v 7.857725 0.935161 0.001428
v 7.862704 0.929535 -0.009548
v 7.820648 0.868657 -0.023277
v 7.826764 0.862165 -0.026604
v 7.860764 0.932571 -0.005006
v 7.861044 0.933595 0.002398
v 7.865085 0.927218 -0.009988
v 7.863907 0.930139 -0.005261
v 7.862986 0.926669 -0.014566
v 7.864435 0.930762 -0.000892
v 7.861201 0.933110 -0.001266
v 7.863117 0.931963 0.007879
v 7.866416 0.927809 -0.005311
v 7.866977 0.928430 -0.000495
v 7.864952 0.923950 -0.015185
v 7.861863 0.923495 -0.019706
v 7.864266 0.931366 0.003530
v 7.865331 0.929716 0.009536
v 7.862347 0.930390 0.014358
v 7.868733 0.924994 -0.005191
v 7.863417 0.920194 -0.020610
v 7.866777 0.929090 0.004512
v 7.867142 0.926703 0.011145
v 7.868942 0.926120 0.005486
v 7.867273 0.924458 -0.010217
v 7.869302 0.925549 0.000003
v 7.870883 0.922602 0.006317
v 7.871406 0.922082 0.000436
v 7.869285 0.921109 -0.010401
v 7.866781 0.920636 -0.015722
v 7.870317 0.919089 0.013193
v 7.872475 0.918442 0.006871
v 7.873112 0.917853 0.000669
v 7.872585 0.917356 -0.005083
v 7.870849 0.921589 -0.005075
v 7.868373 0.916397 -0.016221
v 7.864823 0.915924 -0.021402
v 7.860395 0.915515 -0.025682
v 7.859282 0.919805 -0.024612
v 7.871783 0.914470 0.013539
v 7.874413 0.913017 0.000752
v 7.873781 0.913698 0.007185
v 7.865913 0.910969 -0.021913
v 7.854658 0.919495 -0.027550
v 7.873109 0.909201 0.013631
v 7.874867 0.908418 0.007301
v 7.870979 0.916889 -0.010629
v 7.875847 0.902736 0.007272
v 7.876004 0.902117 0.000667
v 7.875309 0.907719 0.000742
v 7.872155 0.911994 -0.010832
v 7.869528 0.911468 -0.016564
v 7.873827 0.912480 -0.005162
v 7.849832 0.919288 -0.029251
v 7.876833 0.896773 0.007152
v 7.874463 0.907153 -0.005257
v 7.870048 0.906118 -0.016637
v 7.872617 0.906647 -0.010948
v 7.855411 0.915184 -0.028803
v 7.850206 0.914946 -0.030506
v 7.844915 0.914852 -0.030998
v 7.874862 0.901573 -0.005382
v 7.872829 0.901068 -0.011091
v 7.861292 0.910564 -0.026392
v 7.856030 0.910248 -0.029652
v 7.850517 0.910012 -0.031337
v 7.844915 0.909915 -0.031781
v 7.839313 0.910012 -0.031337
v 7.875396 0.895884 -0.005546
v 7.876706 0.896342 0.000559
v 7.861817 0.905293 -0.026559
v 7.856389 0.905044 -0.029935
v 7.850697 0.904859 -0.031656
v 7.866518 0.905641 -0.021977
v 7.839133 0.904859 -0.031656
v 7.844915 0.904783 -0.032098
v 7.833441 0.905044 -0.029935
v 7.877453 0.890653 0.000552
v 7.856526 0.899614 -0.030055
v 7.850764 0.899478 -0.031866
v 7.844915 0.899425 -0.032365
v 7.870287 0.900554 -0.016741
v 7.866822 0.900108 -0.022046
v 7.833303 0.899614 -0.030055
v 7.827773 0.899809 -0.026636
v 7.850732 0.893794 -0.032367
v 7.844915 0.893742 -0.032995
v 7.839066 0.899478 -0.031866
v 7.870603 0.894910 -0.017174
v 7.873255 0.895407 -0.011369
v 7.862057 0.899809 -0.026636
v 7.827727 0.894149 -0.027071
v 7.839097 0.893794 -0.032367
v 7.873906 0.889856 -0.011649
v 7.876069 0.890286 -0.005640
v 7.862103 0.894149 -0.027071
v 7.856484 0.893934 -0.030415
v 7.867013 0.894466 -0.022569
v 7.833346 0.893934 -0.030415
v 7.876880 0.885000 -0.005561
v 7.862268 0.888559 -0.027650
v 7.856529 0.888272 -0.030899
v 7.867359 0.888938 -0.023233
v 7.850746 0.888087 -0.032991
v 7.844915 0.888020 -0.033749
v 7.871129 0.889390 -0.017690
v 7.833301 0.888272 -0.030899
v 7.862870 0.883288 -0.028153
v 7.871999 0.884202 -0.018052
v 7.868133 0.883744 -0.023726
v 7.850953 0.882668 -0.033566
v 7.874790 0.884628 -0.011803
v 7.827562 0.888559 -0.027650
v 7.839084 0.888087 -0.032991
v 7.868940 0.878749 -0.023976
v 7.875730 0.879680 -0.011805
v 7.872917 0.879216 -0.018202
v 7.878285 0.885308 0.000780
v 7.879026 0.880595 0.001127
v 7.877685 0.880191 -0.005361
v 7.826960 0.883288 -0.028153
v 7.821697 0.883744 -0.023726
v 7.873580 0.874297 -0.018072
v 7.877871 0.890916 0.007120
v 7.879012 0.885529 0.007354
v 7.878338 0.876009 -0.005092
v 7.832899 0.882907 -0.031394
v 7.838877 0.882668 -0.033566
v 7.820890 0.878749 -0.023976
v 7.875526 0.897251 0.013449
v 7.876871 0.891246 0.013492
v 7.876549 0.874940 -0.011621
v 7.832413 0.877793 -0.031794
v 7.878536 0.885892 0.013910
v 7.876500 0.870503 -0.011168
v 7.826292 0.878238 -0.028492
v 7.844915 0.882583 -0.034389
v 7.875168 0.881349 0.020080
v 7.879979 0.881028 0.014507
v 7.879998 0.880739 0.007735
v 7.825939 0.873330 -0.028570
v 7.820457 0.873837 -0.023906
v 7.844915 0.877421 -0.034799
v 7.838624 0.877517 -0.033981
v 7.875711 0.876658 0.021256
v 7.868097 0.876817 0.024808
v 7.881004 0.876740 0.008078
v 7.881228 0.876552 0.015190
v 7.879496 0.876823 0.001474
v 7.838466 0.872604 -0.034120
v 7.867569 0.872239 0.025610
v 7.875686 0.872300 0.022347
v 7.881973 0.872214 0.015908
v 7.881455 0.873209 0.008411
v 7.878239 0.872211 -0.004665
v 7.879263 0.874371 0.001937
v 7.826047 0.868115 -0.028049
v 7.875083 0.868047 0.023384
v 7.866904 0.867992 0.026425
v 7.881873 0.868035 0.016998
v 7.881338 0.868772 0.009635
v 7.879402 0.868960 0.003145
v 7.875422 0.868060 -0.002783
v 7.874832 0.865834 -0.010119
v 7.832125 0.867688 -0.031543
v 7.832119 0.872883 -0.031988
v 7.832544 0.861741 -0.030035
v 7.866042 0.863928 0.027007
v 7.880787 0.863493 0.018166
v 7.878900 0.865101 0.004695
v 7.880335 0.863928 0.011369
v 7.871334 0.862053 -0.007548
v 7.838647 0.861487 -0.032079
v 7.838455 0.867423 -0.033610
v 7.839082 0.855823 -0.029408
v 7.873906 0.863730 0.024338
v 7.872051 0.859327 0.025097
v 7.864924 0.859900 0.027110
v 7.878535 0.859323 0.013373
v 7.877120 0.860118 0.007604
v 7.844915 0.867332 -0.034286
v 7.844915 0.855720 -0.030072
v 7.844915 0.851387 -0.026092
v 7.863552 0.855882 0.026755
v 7.869649 0.855234 0.025680
v 7.874821 0.856540 0.010517
v 7.878524 0.859152 0.019346
v 7.875145 0.854538 0.015912
v 7.850042 0.851560 -0.025531
v 7.849070 0.848661 -0.020642
v 7.865517 0.851053 0.025475
v 7.861930 0.851846 0.025964
v 7.869247 0.851551 0.022458
v 7.874462 0.854927 0.020886
v 7.872081 0.853333 0.013769
v 7.870507 0.851278 0.018587
v 7.853091 0.849353 -0.019732
v 7.860183 0.847800 0.024955
v 7.866053 0.849692 0.021363
v 7.868654 0.850795 0.017119
v 7.859601 0.852756 -0.021777
v 7.857331 0.850492 -0.018579
v 7.854981 0.852033 -0.024040
v 7.864574 0.849061 0.020885
v 7.856391 0.856130 -0.027504
v 7.861683 0.856636 -0.024438
v 7.866253 0.857647 -0.020197
v 7.863664 0.854029 -0.018781
v 7.861300 0.852535 -0.016398
v 7.850748 0.855823 -0.029408
v 7.863066 0.862165 -0.026604
v 7.857285 0.861741 -0.030035
v 7.851183 0.861487 -0.032079
v 7.868118 0.862893 -0.021868
v 7.872001 0.863999 -0.016671
v 7.869672 0.859456 -0.014827
v 7.866168 0.856653 -0.012403
v 7.844915 0.861404 -0.032756
v 7.857705 0.867688 -0.031543
v 7.863782 0.868115 -0.028049
v 7.869182 0.868657 -0.023277
v 7.851375 0.867423 -0.033610
v 7.873452 0.869339 -0.017732
v 7.863891 0.873330 -0.028570
v 7.857711 0.872883 -0.031988
v 7.851364 0.872604 -0.034120
v 7.869373 0.873837 -0.023906
v 7.844915 0.872506 -0.034866
v 7.857417 0.877793 -0.031794
v 7.863538 0.878238 -0.028492
v 7.851206 0.877517 -0.033981
v 7.856931 0.882907 -0.031394
v 7.821176 0.850795 0.017119
v 7.824665 0.852816 0.015289
v 7.825256 0.849061 0.020885
v 7.817749 0.853333 0.013769
v 7.827962 0.855323 0.014153
v 7.829077 0.851333 0.018830
v 7.821151 0.855769 0.011403
v 7.829647 0.847800 0.024955
v 7.815009 0.856540 0.010517
v 7.830991 0.852969 0.020921
v 7.819413 0.859193 0.008237
v 7.825065 0.859473 0.009529
v 7.831751 0.856387 0.018650
v 7.828307 0.859573 0.011523
v 7.830044 0.852510 0.024025
v 7.827899 0.851846 0.025964
v 7.812710 0.860118 0.007604
v 7.810930 0.865101 0.004695
v 7.817520 0.863547 0.005051
v 7.823365 0.863558 0.006461
v 7.832098 0.859688 0.016629
v 7.829535 0.860529 0.022448
v 7.829926 0.856821 0.023344
v 7.828123 0.864011 0.009250
v 7.826278 0.855882 0.026755
v 7.816568 0.868473 0.003063
v 7.810428 0.868960 0.003145
v 7.822214 0.868243 0.004626
v 7.827600 0.868131 0.007669
v 7.832139 0.863812 0.014450
v 7.824906 0.859900 0.027110
v 7.823788 0.863928 0.027007
v 7.829191 0.864565 0.021571
v 7.810567 0.874371 0.001937
v 7.822360 0.873307 0.003695
v 7.817122 0.872815 0.002214
v 7.831720 0.868676 0.012490
v 7.830828 0.872597 0.011391
v 7.827262 0.872167 0.006729
v 7.828607 0.868602 0.020532
v 7.822926 0.867992 0.026425
v 7.826320 0.880641 0.004626
v 7.826219 0.876807 0.005346
v 7.827862 0.872730 0.019373
v 7.829814 0.876353 0.010222
v 7.826852 0.876986 0.018033
v 7.828427 0.880641 0.008470
v 7.822260 0.872239 0.025610
v 7.821733 0.876817 0.024808
v 7.821360 0.881668 0.024055
v 7.825586 0.881029 0.017499
v 7.829786 0.885509 0.008293
v 7.821159 0.886735 0.023387
v 7.831145 0.890377 0.008117
v 7.821210 0.892265 0.022854
v 7.833863 0.900112 0.007763
v 7.821595 0.898505 0.022508
v 7.839300 0.919583 0.007055
v 7.822499 0.904855 0.022525
v 7.824105 0.910718 0.023081
v 7.826291 0.915872 0.023885
v 7.828932 0.920097 0.024645
v 7.831794 0.923185 0.025257
v 7.837699 0.925914 0.025812
v 7.834641 0.924928 0.025620
v 7.841197 0.926727 0.025910
v 7.844915 0.927091 0.025936
v 7.844915 0.919583 0.007055
v 7.850530 0.919583 0.007055
v 7.848633 0.926727 0.025910
v 7.852131 0.925914 0.025812
v 7.855189 0.924928 0.025620
v 7.865725 0.910718 0.023081
v 7.863539 0.915872 0.023885
v 7.855967 0.900112 0.007763
v 7.867331 0.904855 0.022525
v 7.860898 0.920097 0.024645
v 7.858036 0.923185 0.025257
v 7.868620 0.892265 0.022854
v 7.868235 0.898505 0.022508
v 7.858685 0.890377 0.008117
v 7.868671 0.886735 0.023387
v 7.860044 0.885509 0.008293
v 7.864244 0.881029 0.017499
v 7.868470 0.881668 0.024055
v 7.861403 0.880641 0.008470
v 7.862978 0.876986 0.018033
v 7.868097 0.876817 0.024808
v 7.860015 0.876353 0.010222
v 7.863611 0.876807 0.005346
v 7.862568 0.872167 0.006729
v 7.863510 0.880641 0.004626
v 7.867569 0.872239 0.025610
v 7.861968 0.872730 0.019373
v 7.859002 0.872597 0.011391
v 7.867470 0.873307 0.003695
v 7.862230 0.868131 0.007669
v 7.872708 0.872815 0.002214
v 7.879263 0.874371 0.001937
v 7.861223 0.868602 0.020532
v 7.866904 0.867992 0.026425
v 7.858110 0.868676 0.012490
v 7.873261 0.868473 0.003063
v 7.867616 0.868243 0.004626
v 7.866465 0.863558 0.006461
v 7.861707 0.864011 0.009250
v 7.857690 0.863812 0.014450
v 7.879402 0.868960 0.003145
v 7.866042 0.863928 0.027007
v 7.860639 0.864565 0.021571
v 7.878900 0.865101 0.004695
v 7.872310 0.863547 0.005051
v 7.870417 0.859193 0.008237
v 7.864765 0.859473 0.009529
v 7.861523 0.859573 0.011523
v 7.857731 0.859688 0.016629
v 7.860294 0.860529 0.022448
v 7.864924 0.859900 0.027110
v 7.877120 0.860118 0.007604
v 7.874821 0.856540 0.010517
v 7.868679 0.855769 0.011403
v 7.861868 0.855323 0.014153
v 7.858078 0.856387 0.018650
v 7.859904 0.856821 0.023344
v 7.863552 0.855882 0.026755
v 7.872081 0.853333 0.013769
v 7.865165 0.852816 0.015289
v 7.860753 0.851333 0.018830
v 7.858839 0.852969 0.020921
v 7.859786 0.852510 0.024025
v 7.861930 0.851846 0.025964
v 7.868654 0.850795 0.017119
v 7.864574 0.849061 0.020885
v 7.860183 0.847800 0.024955
v 7.814408 0.868060 -0.002783
v 7.818496 0.862053 -0.007548
v 7.823662 0.856653 -0.012403
v 7.828529 0.852535 -0.016398
v 7.832499 0.850492 -0.018579
v 7.836739 0.849353 -0.019732
v 7.844915 0.880641 0.004626
v 7.840760 0.848661 -0.020642
v 7.844915 0.848396 -0.021036
v 7.849070 0.848661 -0.020642
v 7.853091 0.849353 -0.019732
v 7.857331 0.850492 -0.018579
v 7.875422 0.868060 -0.002783
v 7.871334 0.862053 -0.007548
v 7.861300 0.852535 -0.016398
v 7.866168 0.856653 -0.012403
vn -0.0000 0.9944 -0.1052
vn 0.1785 0.9630 -0.2020
vn 0.1479 0.9631 -0.2247
vn 0.1212 0.9597 -0.2535
vn 0.0688 0.9610 -0.2679
vn 0.0383 0.9575 -0.2857
vn -0.0000 0.9604 -0.2785
vn -0.0000 0.9974 0.0718
vn 0.0332 0.9965 0.0762
vn 0.1064 0.9934 0.0434
vn 0.1328 0.9910 0.0144
vn 0.0677 0.9961 0.0560
vn 0.1633 0.9865 -0.0104
vn 0.1990 0.9769 -0.0783
vn 0.1999 0.9737 -0.1089
vn 0.1786 0.9829 -0.0452
vn 0.2053 0.9688 -0.1390
vn 0.1897 0.9673 -0.1686
vn -0.1479 0.9631 -0.2247
vn -0.1785 0.9630 -0.2020
vn -0.1212 0.9597 -0.2535
vn -0.0383 0.9575 -0.2857
vn -0.0688 0.9610 -0.2679
vn -0.0332 0.9965 0.0762
vn -0.1328 0.9910 0.0144
vn -0.1064 0.9934 0.0434
vn -0.0677 0.9961 0.0560
vn -0.1633 0.9865 -0.0104
vn -0.1999 0.9737 -0.1089
vn -0.1990 0.9769 -0.0783
vn -0.1786 0.9829 -0.0452
vn -0.2053 0.9688 -0.1390
vn -0.1897 0.9673 -0.1686
vn -0.1934 0.9193 -0.3429
vn -0.2484 0.9194 -0.3050
vn -0.9769 0.2117 -0.0280
vn -0.9882 0.1439 -0.0526
vn -0.9723 0.1843 0.1438
vn -0.9564 0.2411 0.1647
vn 0.1258 0.9188 -0.3740
vn 0.1722 0.8685 -0.4647
vn 0.0817 0.8679 -0.4899
vn 0.0624 0.9180 -0.3916
vn -0.3283 0.9388 0.1045
vn -0.4096 0.8966 0.1687
vn -0.3301 0.9117 0.2446
vn -0.2720 0.9471 0.1700
vn 0.3712 0.9281 0.0285
vn 0.2838 0.9588 -0.0083
vn 0.2510 0.9669 0.0466
vn 0.3283 0.9388 0.1045
vn 0.3201 0.9402 -0.1166
vn 0.3225 0.9323 -0.1639
vn 0.3067 0.9495 -0.0656
vn 0.8286 0.5505 0.1019
vn 0.7409 0.6703 0.0416
vn 0.7018 0.6744 0.2293
vn 0.7780 0.5422 0.3175
vn 0.3132 0.9254 -0.2135
vn 0.2868 0.9213 -0.2625
vn 0.1762 -0.7761 -0.6055
vn 0.3175 -0.7734 -0.5488
vn 0.2740 -0.8634 -0.4236
vn 0.1589 -0.8637 -0.4783
vn 0.2484 0.9194 -0.3050
vn 0.1934 0.9193 -0.3429
vn -0.0000 0.9795 0.2012
vn 0.0490 0.9799 0.1933
vn 0.2205 0.7719 0.5962
vn 0.3529 0.7466 0.5639
vn 0.2875 0.8631 0.4151
vn 0.1787 0.8754 0.4491
vn 0.4715 0.8788 0.0733
vn 0.5125 0.8579 -0.0363
vn 0.4008 0.9146 -0.0537
vn -0.9670 0.1015 -0.2336
vn -0.9275 0.0749 -0.3662
vn -0.9237 0.0709 -0.3766
vn -0.9605 0.0902 -0.2632
vn 0.9028 0.2779 0.3282
vn 0.9155 0.2295 0.3303
vn 0.9813 0.1417 -0.1302
vn 0.9746 0.2100 -0.0774
vn 0.2092 0.4795 0.8523
vn 0.2224 0.5940 0.7731
vn 0.1193 0.5876 0.8003
vn 0.1094 0.4490 0.8868
vn 0.4235 0.8849 -0.1939
vn 0.5271 0.8208 -0.2201
vn 0.5121 0.8069 -0.2944
vn 0.4175 0.8713 -0.2578
vn 0.3701 0.5846 0.7220
vn 0.5573 0.5454 0.6260
vn 0.5084 0.7073 0.4912
vn 0.4168 0.9001 -0.1270
vn -0.6831 0.5311 0.5013
vn -0.7780 0.5422 0.3175
vn -0.8176 0.4435 0.3672
vn -0.6990 0.4427 0.5616
vn 0.3374 0.8642 -0.3732
vn 0.4194 0.7974 -0.4339
vn 0.3317 0.7986 -0.5023
vn 0.2630 0.8667 -0.4240
vn 0.1277 -0.8194 -0.5587
vn 0.1307 -0.0445 -0.9904
vn 0.0980 -0.2801 -0.9549
vn -0.0286 -0.2864 -0.9577
vn -0.5891 0.2083 0.7807
vn -0.4249 0.1749 0.8882
vn -0.5081 0.1792 0.8425
vn -0.6330 0.2309 0.7389
vn -0.1062 0.9794 0.1714
vn -0.0490 0.9799 0.1933
vn -0.1612 0.9774 0.1371
vn 0.5954 0.7386 -0.3162
vn 0.6238 0.7473 -0.2289
vn 0.5285 0.8383 -0.1338
vn 0.6379 0.7592 -0.1292
vn 0.9719 0.1693 -0.1638
vn 0.8187 0.2924 0.4941
vn 0.8109 0.2620 0.5233
vn 0.9812 0.0784 -0.1763
vn -0.0603 0.9517 0.3009
vn -0.0000 0.9508 0.3097
vn -0.1299 0.9530 0.2736
vn -0.5644 0.6264 -0.5377
vn -0.6271 0.5205 -0.5795
vn -0.7096 0.5349 -0.4586
vn -0.6354 0.6408 -0.4308
vn 0.6287 0.7776 -0.0077
vn 0.9295 0.3283 0.1680
vn 0.9564 0.2411 0.1647
vn 0.9769 0.2117 -0.0280
vn 0.9487 0.3152 -0.0264
vn -0.0000 0.9176 -0.3974
vn -0.0624 0.9180 -0.3916
vn 0.7370 0.6670 -0.1092
vn 0.3897 0.8647 -0.3170
vn -0.0817 0.8679 -0.4899
vn -0.1054 0.8034 -0.5860
vn -0.2214 0.8014 -0.5556
vn -0.1722 0.8685 -0.4647
vn -0.4194 0.7974 -0.4339
vn -0.4932 0.7199 -0.4884
vn -0.5564 0.7295 -0.3978
vn -0.4793 0.7997 -0.3617
vn -0.0000 0.8671 -0.4981
vn 0.8259 0.5587 -0.0762
vn 0.8003 0.5586 -0.2179
vn 0.7141 0.6626 -0.2259
vn -0.9601 0.1845 -0.2103
vn 0.4793 0.7997 -0.3617
vn 0.5564 0.7295 -0.3978
vn 0.4932 0.7199 -0.4884
vn -0.1258 0.9188 -0.3740
vn -0.2630 0.8667 -0.4240
vn 0.2214 0.8014 -0.5556
vn 0.1054 0.8034 -0.5860
vn -0.0000 0.8040 -0.5946
vn -0.0000 -0.5571 -0.8304
vn -0.0000 -0.7766 -0.6301
vn -0.1762 -0.7761 -0.6055
vn -0.1985 -0.5564 -0.8068
vn 0.3983 0.7134 -0.5765
vn 0.2755 0.7126 -0.6452
vn 0.7655 0.0641 -0.6403
vn 0.7517 0.1006 -0.6518
vn 0.5905 0.0858 -0.8025
vn 0.6090 0.0540 -0.7913
vn 0.3758 -0.5510 -0.7451
vn 0.5467 -0.5413 -0.6389
vn 0.4620 -0.7722 -0.4362
vn 0.1374 0.7155 -0.6850
vn -0.0000 0.7174 -0.6967
vn 0.9237 0.0709 -0.3766
vn 0.8721 0.0667 -0.4848
vn 0.8706 0.0699 -0.4870
vn 0.9275 0.0749 -0.3662
vn -0.1374 0.7155 -0.6850
vn -0.2755 0.7126 -0.6452
vn 0.3249 0.6095 -0.7232
vn 0.1672 0.6097 -0.7748
vn -0.5954 0.7386 -0.3162
vn -0.6238 0.7473 -0.2289
vn -0.5271 0.8208 -0.2201
vn -0.5121 0.8069 -0.2944
vn -0.3758 -0.5510 -0.7451
vn -0.3175 -0.7734 -0.5488
vn 0.9832 0.1659 0.0762
vn 0.9801 0.1964 0.0278
vn 0.9778 0.1491 -0.1475
vn 0.9836 0.1326 -0.1223
vn 0.7624 0.5481 -0.3439
vn 0.6807 0.6532 -0.3317
vn 0.7096 0.5349 -0.4586
vn 0.6271 0.5205 -0.5795
vn 0.5644 0.6264 -0.5377
vn 0.6354 0.6408 -0.4308
vn 0.1612 0.9774 0.1371
vn 0.2028 0.9522 0.2284
vn 0.2720 0.9471 0.1700
vn 0.2114 0.9728 0.0946
vn 0.4137 0.8409 0.3489
vn 0.5131 0.8181 0.2595
vn 0.4096 0.8966 0.1687
vn 0.3301 0.9117 0.2446
vn -0.1857 0.4935 -0.8497
vn -0.1932 0.3610 -0.9123
vn -0.3850 0.3792 -0.8414
vn -0.3607 0.4996 -0.7876
vn -0.1904 0.2319 -0.9539
vn -0.3981 0.2564 -0.8808
vn 0.1062 0.9794 0.1714
vn 0.1299 0.9530 0.2736
vn 0.9238 0.1721 0.3420
vn 0.7766 0.1311 0.6162
vn 0.7439 0.1511 0.6510
vn 0.9146 0.2163 0.3418
vn -0.6895 0.2007 0.6959
vn -0.5948 0.1438 0.7909
vn -0.6492 0.1055 0.7533
vn -0.7439 0.1511 0.6510
vn 0.9045 0.2632 0.3356
vn 0.9768 0.2123 -0.0271
vn 0.8652 0.1055 -0.4901
vn 0.5081 0.1792 0.8425
vn 0.6330 0.2309 0.7389
vn 0.6895 0.2007 0.6959
vn 0.5948 0.1438 0.7909
vn 0.2347 0.9218 0.3085
vn -0.8133 0.1893 0.5502
vn -0.6731 0.2056 0.7104
vn -0.6785 0.2343 0.6962
vn -0.8123 0.2207 0.5399
vn 0.6788 0.4067 -0.6115
vn 0.5492 0.3936 -0.7372
vn 0.5093 0.5076 -0.6949
vn -0.0000 0.8875 0.4609
vn 0.0918 0.8834 0.4596
vn 0.0698 0.9258 0.3714
vn -0.0000 0.9264 0.3765
vn -0.6807 0.6532 -0.3317
vn -0.7624 0.5481 -0.3439
vn -0.8003 0.5586 -0.2179
vn -0.7141 0.6626 -0.2259
vn -0.0980 -0.2801 -0.9549
vn -0.3600 -0.2345 -0.9030
vn -0.3675 -0.1237 -0.9218
vn -0.1307 -0.0445 -0.9904
vn 0.1191 0.7837 0.6096
vn -0.9178 0.1661 -0.3606
vn 0.5858 0.7987 0.1372
vn -0.8197 0.2931 -0.4921
vn -0.8545 0.1614 -0.4938
vn -0.8845 0.2994 -0.3577
vn 0.8197 0.2931 -0.4921
vn 0.7195 0.2854 -0.6331
vn 0.7712 0.4192 -0.4792
vn 0.0603 0.9517 0.3009
vn 0.8741 0.4384 -0.2091
vn 0.8312 0.4299 -0.3525
vn -0.8741 0.4384 -0.2091
vn -0.8970 0.4397 -0.0449
vn -0.8259 0.5587 -0.0762
vn 0.6225 0.6819 0.3841
vn -0.0698 0.9258 0.3714
vn -0.0918 0.8834 0.4596
vn 0.5837 -0.3441 -0.7355
vn 0.5849 -0.1788 -0.7912
vn 0.7350 -0.1898 -0.6509
vn 0.7310 -0.3724 -0.5718
vn -0.0000 0.7891 0.6143
vn -0.1191 0.7837 0.6096
vn -0.1463 0.9248 0.3512
vn -0.1787 0.8754 0.4491
vn -0.0000 0.5859 0.8104
vn 0.9516 -0.2914 -0.0980
vn 0.8507 -0.5246 0.0343
vn 0.8565 -0.5090 -0.0852
vn 0.9378 -0.2361 -0.2544
vn -0.2028 0.9522 0.2284
vn -0.2347 0.9218 0.3085
vn -0.2875 0.8631 0.4151
vn 0.6492 0.1055 0.7533
vn 0.6762 0.1016 0.7297
vn -0.4715 0.8788 0.0733
vn -0.5858 0.7987 0.1372
vn -0.5131 0.8181 0.2595
vn 0.9723 0.1843 0.1438
vn 0.8878 0.2690 0.3734
vn 0.9098 0.2070 0.3598
vn 0.8970 0.4397 -0.0449
vn -0.2205 0.7719 0.5962
vn 0.8133 0.1893 0.5502
vn 0.8139 0.1484 0.5617
vn 0.9806 -0.1720 -0.0940
vn 0.9860 -0.1171 -0.1185
vn 0.6831 0.5311 0.5013
vn -0.2114 0.9728 0.0946
vn -0.2510 0.9669 0.0466
vn 0.9294 0.3076 -0.2040
vn 0.8845 0.2994 -0.3577
vn 0.4097 -0.1701 -0.8962
vn 0.4053 -0.3404 -0.8485
vn 0.9178 0.1661 -0.3606
vn 0.8545 0.1614 -0.4938
vn 0.4057 0.1373 -0.9036
vn 0.1852 0.1209 -0.9752
vn 0.1904 0.2319 -0.9539
vn 0.3981 0.2564 -0.8808
vn -0.5093 0.5076 -0.6949
vn -0.5492 0.3936 -0.7372
vn -0.7576 -0.6399 -0.1283
vn -0.7057 -0.5816 -0.4046
vn -0.6097 -0.7639 -0.2115
vn -0.6749 -0.7378 0.0108
vn 0.5675 0.4635 0.6805
vn 0.6990 0.4427 0.5616
vn 0.9670 0.1015 -0.2336
vn 0.9601 0.1845 -0.2103
vn 0.9882 0.1439 -0.0526
vn 0.4596 0.6144 -0.6413
vn 0.8866 0.4384 0.1476
vn 0.6566 0.3861 0.6479
vn 0.7329 0.3645 0.5745
vn 0.8176 0.4435 0.3672
vn 0.8548 0.3532 0.3802
vn -0.9173 0.1065 -0.3837
vn -0.9531 0.1121 -0.2810
vn 0.4155 0.0499 -0.9082
vn 0.4139 0.0791 -0.9069
vn 0.2129 0.0958 -0.9724
vn 0.1964 0.0623 -0.9785
vn -0.0000 0.4363 0.8998
vn -0.8187 -0.4161 0.3957
vn -0.8152 -0.5605 -0.1461
vn -0.6682 -0.7390 -0.0854
vn -0.6874 -0.5891 0.4247
vn 0.2304 -0.0723 0.9704
vn 0.4307 -0.3219 0.8431
vn 0.4876 -0.1687 0.8566
vn 0.3078 0.0305 0.9510
vn -0.3701 0.5846 0.7220
vn -0.2224 0.5940 0.7731
vn -0.3529 0.7466 0.5639
vn 0.7693 0.2646 0.5816
vn 0.7857 0.1885 0.5892
vn -0.7329 0.3645 0.5745
vn -0.6566 0.3861 0.6479
vn -0.5675 0.4635 0.6805
vn -0.2092 0.4795 0.8523
vn -0.1094 0.4490 0.8868
vn -0.1193 0.5876 0.8003
vn 0.8585 -0.1988 -0.4727
vn 0.8644 0.0170 -0.5026
vn 0.9378 0.0406 -0.3449
vn 0.4009 -0.9083 0.1196
vn 0.4206 -0.9057 -0.0536
vn 0.4970 -0.8674 0.0258
vn 0.5409 -0.7489 0.3828
vn 0.8169 -0.1041 0.5672
vn 0.8178 -0.1033 0.5661
vn 0.8506 0.0278 0.5250
vn 0.8846 -0.0942 0.4566
vn -0.3729 0.4984 0.7826
vn 0.6925 0.1206 0.7113
vn 0.7882 0.1454 0.5980
vn 0.9881 0.1249 -0.0893
vn 0.9805 0.1608 0.1129
vn -0.9295 0.3283 0.1680
vn -0.8878 0.2690 0.3734
vn -0.8548 0.3532 0.3802
vn -0.5573 0.5454 0.6260
vn -0.5084 0.7073 0.4912
vn 0.9216 0.1729 0.3475
vn 0.5320 0.0887 0.8421
vn 0.9359 -0.0545 0.3481
vn 0.9399 0.1019 0.3258
vn 0.5567 0.1598 0.8152
vn -0.8441 0.3042 0.4416
vn -0.7669 0.2547 0.5891
vn -0.8225 0.1663 0.5439
vn -0.8700 0.2005 0.4505
vn -0.9707 -0.1535 -0.1847
vn -0.9443 -0.1498 -0.2930
vn -0.9074 -0.3248 -0.2666
vn -0.9200 -0.3520 -0.1724
vn 0.5359 -0.8050 -0.2545
vn 0.6682 -0.7390 -0.0854
vn -0.6225 0.6819 0.3841
vn -0.4137 0.8409 0.3489
vn 0.1463 0.9248 0.3512
vn 0.3722 0.1565 0.9149
vn 0.5891 0.2083 0.7807
vn 0.4249 0.1749 0.8882
vn -0.7693 0.2646 0.5816
vn -0.6929 0.2650 0.6706
vn -0.3712 0.9281 0.0285
vn -0.9146 0.2163 0.3418
vn -0.9045 0.2632 0.3356
vn 0.8295 -0.4398 -0.3442
vn -0.7857 0.1885 0.5892
vn -0.7008 0.1709 0.6925
vn -0.7882 0.1454 0.5980
vn -0.6925 0.1206 0.7113
vn -0.9805 0.1608 0.1129
vn -0.9216 0.1729 0.3475
vn -0.9098 0.2070 0.3598
vn -0.7310 -0.3724 -0.5718
vn -0.5837 -0.3441 -0.7355
vn -0.5467 -0.5413 -0.6389
vn -0.2838 0.9588 -0.0083
vn -0.8652 0.1055 -0.4901
vn -0.7517 0.1006 -0.6518
vn -0.7333 0.1434 -0.6646
vn -0.8566 0.1496 -0.4938
vn 0.9720 0.1503 -0.1808
vn 0.9735 0.1580 -0.1654
vn -0.5320 0.0887 0.8421
vn -0.3439 0.1151 0.9319
vn -0.3722 0.1565 0.9149
vn -0.5567 0.1598 0.8152
vn -0.3983 0.7134 -0.5765
vn -0.3317 0.7986 -0.5023
vn -0.1672 0.6097 -0.7748
vn -0.3249 0.6095 -0.7232
vn 0.3439 0.1151 0.9319
vn -0.7766 0.1311 0.6162
vn -0.6762 0.1016 0.7297
vn 0.3607 0.4996 -0.7876
vn 0.5140 -0.0127 0.8577
vn -0.9832 0.1659 0.0762
vn -0.9801 0.1964 0.0278
vn -0.9238 0.1721 0.3420
vn 0.9498 0.1355 -0.2822
vn 0.9531 0.1121 -0.2810
vn 0.9833 0.0097 -0.1818
vn 0.9605 0.0902 -0.2632
vn -0.3078 0.0305 0.9510
vn -0.5140 -0.0127 0.8577
vn -0.4876 -0.1687 0.8566
vn -0.0032 -0.6664 -0.7456
vn -0.0568 -0.7249 -0.6865
vn -0.1488 -0.6652 -0.7317
vn -0.1032 -0.6009 -0.7927
vn 0.9173 0.1065 -0.3837
vn -0.1989 -0.8209 -0.5353
vn -0.5306 -0.6592 -0.5329
vn -0.1978 -0.7349 -0.6487
vn -0.1298 -0.7802 -0.6119
vn -0.6287 0.7776 -0.0077
vn -0.5125 0.8579 -0.0363
vn -0.5285 0.8383 -0.1338
vn -0.6379 0.7592 -0.1292
vn 0.8187 -0.4161 0.3957
vn 0.9015 -0.2302 0.3664
vn 0.6387 -0.1538 -0.7539
vn 0.9878 -0.0300 -0.1526
vn 0.6410 -0.2679 -0.7193
vn -0.2304 -0.0723 0.9704
vn -0.4307 -0.3219 0.8431
vn -0.1397 -0.1776 0.9741
vn 0.9567 0.1426 -0.2538
vn 0.9508 0.1505 -0.2709
vn 0.9707 -0.1535 -0.1847
vn -0.6617 -0.0819 -0.7453
vn -0.9648 0.2102 -0.1583
vn -0.9984 0.0012 -0.0567
vn -0.6738 -0.1026 -0.7318
vn -0.3421 -0.5283 -0.7771
vn -0.3523 -0.3760 -0.8570
vn -0.0843 -0.4541 -0.8870
vn 0.1862 0.0534 -0.9811
vn 0.4119 0.0552 -0.9096
vn -0.5537 0.1345 -0.8218
vn -0.7249 0.1585 -0.6704
vn -0.5670 0.1222 -0.8146
vn 0.9150 0.1649 -0.3682
vn 0.9136 0.1430 -0.3806
vn 0.9200 -0.3520 -0.1724
vn -0.3326 -0.5384 0.7743
vn -0.5443 -0.7449 0.3858
vn -0.3073 -0.6940 0.6511
vn -0.0961 -0.2412 0.9657
vn 0.7500 0.1586 -0.6422
vn 0.6017 0.1504 -0.7844
vn 0.5795 0.2741 -0.7675
vn 0.8566 0.1496 -0.4938
vn -0.3948 -0.9112 0.1177
vn -0.3428 -0.9387 0.0359
vn 0.6874 -0.5891 0.4247
vn -0.4053 -0.3404 -0.8485
vn 0.3850 0.3792 -0.8414
vn -0.9399 0.1019 0.3258
vn -0.9833 0.0097 -0.1818
vn -0.9359 -0.0545 0.3481
vn -0.4240 -0.9037 -0.0593
vn 0.1932 0.3610 -0.9123
vn 0.1857 0.4935 -0.8497
vn 0.6127 0.0620 -0.7879
vn 0.7655 0.0692 -0.6396
vn -0.6410 -0.2679 -0.7193
vn -0.6290 -0.3941 -0.6701
vn -0.9860 -0.1171 -0.1185
vn -0.9878 -0.0300 -0.1526
vn 0.8152 -0.5605 -0.1461
vn -0.0000 0.4904 -0.8715
vn -0.0000 0.6104 -0.7921
vn -0.4052 -0.0181 -0.9141
vn -0.4012 0.0794 -0.9126
vn -0.2280 0.0626 -0.9717
vn -0.2196 -0.0309 -0.9751
vn 0.6628 -0.6917 -0.2868
vn 0.8072 -0.5262 -0.2675
vn 0.9074 -0.3248 -0.2666
vn 0.9443 -0.1498 -0.2930
vn 0.9724 -0.1080 -0.2066
vn -0.8072 -0.5262 -0.2675
vn -0.6628 -0.6917 -0.2868
vn 0.1985 -0.5564 -0.8068
vn 0.2099 -0.3412 -0.9163
vn 0.6836 0.2660 0.6796
vn 0.6785 0.2343 0.6962
vn 0.8123 0.2207 0.5399
vn 0.9785 0.0571 -0.1983
vn 0.9740 0.0376 -0.2234
vn -0.9724 -0.1080 -0.2066
vn -0.9516 -0.2914 -0.0980
vn -0.8507 -0.5246 0.0343
vn -0.0000 0.3513 -0.9363
vn 0.3729 0.4984 0.7826
vn -0.8565 -0.5090 -0.0852
vn -0.7698 -0.6375 0.0313
vn -0.3374 0.8642 -0.3732
vn -0.2868 0.9213 -0.2625
vn -0.9813 0.1417 -0.1302
vn -0.9155 0.2295 0.3303
vn -0.9136 0.1430 -0.3806
vn -0.4596 0.6144 -0.6413
vn 0.7576 -0.6399 -0.1283
vn 0.7698 -0.6375 0.0313
vn -0.2099 -0.3412 -0.9163
vn -0.0000 -0.3410 -0.9401
vn -0.3897 0.8647 -0.3170
vn 0.6749 -0.7378 0.0108
vn 0.6097 -0.7639 -0.2115
vn 0.7057 -0.5816 -0.4046
vn -0.5289 -0.8452 -0.0773
vn 0.8537 0.1710 -0.4920
vn 0.9217 0.1504 -0.3577
vn 0.8579 0.1351 -0.4957
vn -0.3132 0.9254 -0.2135
vn -0.3225 0.9323 -0.1639
vn -0.4175 0.8713 -0.2578
vn 0.7008 0.1709 0.6925
vn -0.9508 0.1505 -0.2709
vn -0.9567 0.1426 -0.2538
vn -0.9720 0.1503 -0.1808
vn -0.9735 0.1580 -0.1654
vn 0.7333 0.1434 -0.6646
vn 0.7359 -0.0129 -0.6770
vn 0.7295 0.1083 -0.6754
vn -0.4235 0.8849 -0.1939
vn -0.8139 0.1484 0.5617
vn -0.6600 0.1684 0.7322
vn -0.3201 0.9402 -0.1166
vn -0.3067 0.9495 -0.0656
vn -0.4168 0.9001 -0.1270
vn -0.0000 -0.8644 -0.5029
vn -0.4008 0.9146 -0.0537
vn -0.8706 0.0699 -0.4870
vn 0.4088 0.1062 -0.9064
vn 0.5670 0.1222 -0.8146
vn -0.7370 0.6670 -0.1092
vn -0.6788 0.4067 -0.6115
vn -0.7409 0.6703 0.0416
vn -0.7712 0.4192 -0.4792
vn -0.8866 0.4384 0.1476
vn -0.8286 0.5505 0.1019
vn -0.7018 0.6744 0.2293
vn -0.7359 -0.0129 -0.6770
vn -0.7350 -0.1898 -0.6509
vn -0.8585 -0.1988 -0.4727
vn -0.8644 0.0170 -0.5026
vn -0.8312 0.4299 -0.3525
vn -0.9294 0.3076 -0.2040
vn -0.9487 0.3152 -0.0264
vn -0.5795 0.2741 -0.7675
vn -0.6017 0.1504 -0.7844
vn -0.7500 0.1586 -0.6422
vn -0.7195 0.2854 -0.6331
vn -0.5718 -0.0202 -0.8202
vn -0.4097 -0.1701 -0.8962
vn -0.5849 -0.1788 -0.7912
vn 0.7249 0.1585 -0.6704
vn 0.2324 0.1017 -0.9673
vn 0.2280 0.0626 -0.9717
vn -0.0000 0.0526 -0.9986
vn -0.0000 0.0981 -0.9952
vn -0.2129 0.0958 -0.9724
vn -0.2273 0.1101 -0.9676
vn -0.4088 0.1062 -0.9064
vn -0.4139 0.0791 -0.9069
vn -0.9881 0.1249 -0.0893
vn -0.9836 0.1326 -0.1223
vn -0.7655 0.0692 -0.6396
vn -0.0000 0.2190 -0.9757
vn -0.8721 0.0667 -0.4848
vn -0.1852 0.1209 -0.9752
vn -0.4057 0.1373 -0.9036
vn -0.0000 0.1128 -0.9936
vn -0.0000 0.0721 -0.9974
vn -0.1964 0.0623 -0.9785
vn -0.1862 0.0534 -0.9811
vn -0.0000 0.0539 -0.9985
vn -0.4119 0.0552 -0.9096
vn -0.6127 0.0620 -0.7879
vn 0.5570 0.0906 -0.8256
vn 0.5537 0.1345 -0.8218
vn -0.9778 0.1491 -0.1475
vn -0.4155 0.0499 -0.9082
vn -0.0000 -0.1783 -0.9840
vn 0.2134 -0.1740 -0.9613
vn -0.9498 0.1355 -0.2822
vn 0.4012 0.0794 -0.9126
vn 0.5718 -0.0202 -0.8202
vn 0.4052 -0.0181 -0.9141
vn -0.7655 0.0641 -0.6403
vn 0.2196 -0.0309 -0.9751
vn -0.0000 -0.0414 -0.9991
vn -0.9150 0.1649 -0.3682
vn -0.0000 0.1094 -0.9940
vn -0.1589 -0.8637 -0.4783
vn -0.5905 0.0858 -0.8025
vn -0.6090 0.0540 -0.7913
vn -0.0000 0.1167 -0.9932
vn 0.2273 0.1101 -0.9676
vn -0.8537 0.1710 -0.4920
vn -0.2324 0.1017 -0.9673
vn -0.4032 0.1136 -0.9080
vn -0.5570 0.0906 -0.8256
vn -0.7295 0.1083 -0.6754
vn -0.8579 0.1351 -0.4957
vn -0.9217 0.1504 -0.3577
vn 0.4032 0.1136 -0.9080
vn -0.9378 0.0406 -0.3449
vn -0.9768 0.2123 -0.0271
vn -0.9746 0.2100 -0.0774
vn -0.9740 0.0376 -0.2234
vn -0.9785 0.0571 -0.1983
vn -0.9378 -0.2361 -0.2544
vn -0.9028 0.2779 0.3282
vn -0.8109 0.2620 0.5233
vn -0.6836 0.2660 0.6796
vn -0.7120 0.2760 0.6456
vn -0.8187 0.2924 0.4941
vn -0.7722 -0.1639 0.6139
vn -0.8169 -0.1041 0.5672
vn -0.8178 -0.1033 0.5661
vn -0.7821 -0.1203 0.6114
vn 0.6617 -0.0819 -0.7453
vn 0.5174 -0.5548 -0.6515
vn 0.9602 -0.2661 -0.0848
vn 0.5306 -0.6592 -0.5329
vn -0.5011 -0.8650 0.0250
vn 0.0415 -0.4440 -0.8950
vn 0.0286 -0.2864 -0.9577
vn -0.9015 -0.2302 0.3664
vn 0.1397 -0.1776 0.9741
vn 0.0961 -0.2412 0.9657
vn 0.3326 -0.5384 0.7743
vn -0.5359 -0.8050 -0.2545
vn -0.2134 -0.1740 -0.9613
vn -0.0415 -0.4440 -0.8950
vn 0.0843 -0.4541 -0.8870
vn 0.1032 -0.6009 -0.7927
vn -0.0338 -0.5835 -0.8114
vn -0.2740 -0.8634 -0.4236
vn 0.3110 -0.6936 0.6498
vn -0.7622 -0.1636 0.6263
vn -0.7626 -0.2746 0.5857
vn -0.4445 -0.7414 0.5028
vn -0.4620 -0.7722 -0.4362
vn -0.3888 -0.8677 -0.3097
vn 0.3718 -0.9256 0.0707
vn 0.0412 -0.6189 0.7844
vn -0.0000 -0.6139 0.7894
vn 0.6971 -0.7022 0.1446
vn 0.0440 -0.6063 0.7940
vn -0.8295 -0.4398 -0.3442
vn 0.3600 -0.2345 -0.9030
vn 0.3523 -0.3760 -0.8570
vn 0.5289 -0.8452 -0.0773
vn 0.1978 -0.7349 -0.6487
vn 0.1488 -0.6652 -0.7317
vn 0.1989 -0.8209 -0.5353
vn 0.8701 -0.4905 0.0484
vn -0.5174 -0.5548 -0.6515
vn -0.9602 -0.2661 -0.0848
vn -0.9806 -0.1720 -0.0940
vn 0.3421 -0.5283 -0.7771
vn 0.6290 -0.3941 -0.6701
vn 0.8385 0.0596 0.5417
vn 0.6529 0.1123 0.7491
vn 0.0032 -0.6664 -0.7456
vn 0.0338 -0.5835 -0.8114
vn 0.6929 0.2650 0.6706
vn 0.8441 0.3042 0.4416
vn 0.7669 0.2547 0.5891
vn 0.7120 0.2760 0.6456
vn -0.9812 0.0784 -0.1763
vn -0.6387 -0.1538 -0.7539
vn 0.3675 -0.1237 -0.9218
vn -0.1277 -0.8194 -0.5587
vn -0.9719 0.1693 -0.1638
vn 0.6738 -0.1026 -0.7318
vn 0.9648 0.2102 -0.1583
vn 0.9984 0.0012 -0.0567
vn 0.8700 0.2005 0.4505
vn 0.8225 0.1663 0.5439
vn -0.8846 -0.0942 0.4566
vn -0.8506 0.0278 0.5250
vn 0.3888 -0.8677 -0.3097
vn 0.7722 -0.1639 0.6139
vn 0.7622 -0.1636 0.6263
vn 0.7821 -0.1203 0.6114
vn 0.7626 -0.2746 0.5857
vn 0.4445 -0.7414 0.5028
vn 0.7503 -0.4551 0.4796
vn 0.6855 -0.5937 0.4214
vn 0.5527 -0.7441 0.3752
vn 0.2371 -0.9142 0.3288
vn 0.3670 -0.8654 0.3413
vn 0.1114 -0.9311 0.3474
vn -0.0000 -0.9328 0.3604
vn -0.1114 -0.9311 0.3474
vn -0.2371 -0.9142 0.3288
vn -0.3670 -0.8654 0.3413
vn -0.7503 -0.4551 0.4796
vn -0.6855 -0.5937 0.4214
vn -0.5527 -0.7441 0.3752
vn -0.6971 -0.7022 0.1446
vn -0.8385 0.0596 0.5417
vn -0.6529 0.1123 0.7491
vn 0.6731 0.2056 0.7104
vn 0.0568 -0.7249 -0.6865
vn 0.6600 0.1684 0.7322
vn 0.1298 -0.7802 -0.6119
vn -0.8701 -0.4905 0.0484
vn 0.0954 -0.5706 0.8156
vn 0.1308 -0.5811 0.8032
vn 0.1559 -0.5832 0.7972
vn 0.1422 -0.5857 0.7980
vn -0.0412 -0.6189 0.7844
vn -0.0440 -0.6063 0.7940
vn 0.0505 -0.6232 0.7804
vn -0.0000 -0.6227 0.7825
vn -0.0505 -0.6232 0.7804
vn -0.0954 -0.5706 0.8156
vn -0.1308 -0.5811 0.8032
vn -0.1422 -0.5857 0.7980
vn -0.1559 -0.5832 0.7972
vt 0.000000 0.000000
s 1
f 1/1/1 2/1/2 3/1/3
f 1/1/1 3/1/3 4/1/4
f 1/1/1 4/1/4 5/1/5
f 1/1/1 5/1/5 6/1/6
f 1/1/1 6/1/6 7/1/7
f 1/1/1 8/1/8 9/1/9
f 1/1/1 10/1/10 11/1/11
f 1/1/1 12/1/12 10/1/10
f 1/1/1 9/1/9 12/1/12
f 1/1/1 11/1/11 13/1/13
f 1/1/1 14/1/14 15/1/15
f 1/1/1 13/1/13 16/1/16
f 1/1/1 16/1/16 14/1/14
f 1/1/1 15/1/15 17/1/17
f 1/1/1 18/1/18 2/1/2
f 1/1/1 17/1/17 18/1/18
f 1/1/1 19/1/19 20/1/20
f 1/1/1 21/1/21 19/1/19
f 1/1/1 7/1/7 22/1/22
f 1/1/1 23/1/23 21/1/21
f 1/1/1 22/1/22 23/1/23
f 1/1/1 24/1/24 8/1/8
f 1/1/1 25/1/25 26/1/26
f 1/1/1 26/1/26 27/1/27
f 1/1/1 27/1/27 24/1/24
f 1/1/1 28/1/28 25/1/25
f 1/1/1 29/1/29 30/1/30
f 1/1/1 31/1/31 28/1/28
f 1/1/1 30/1/30 31/1/31
f 1/1/1 32/1/32 29/1/29
f 1/1/1 20/1/20 33/1/33
f 1/1/1 33/1/33 32/1/32
f 21/1/21 57/1/34 41/1/35 19/1/19
f 158/1/36 185/1/37 186/1/38 180/1/39
f 80/1/40 320/1/41 94/1/42 73/1/43
f 100/1/44 106/1/45 104/1/46 99/1/47
f 229/1/48 228/1/49 221/1/50 214/1/51
f 361/1/52 354/1/53 17/1/17 15/1/15
f 228/1/49 376/1/54 14/1/14 16/1/16
f 221/1/50 228/1/49 16/1/16 13/1/13
f 405/1/55 403/1/56 399/1/57 404/1/58
f 348/1/59 342/1/60 2/1/2 18/1/18
f 570/1/61 584/1/62 578/1/63 571/1/64
f 334/1/65 327/1/66 4/1/4 3/1/3
f 44/1/67 59/1/68 9/1/9 8/1/8
f 183/1/69 189/1/70 141/1/71 134/1/72
f 229/1/48 213/1/73 387/1/74 382/1/75
f 162/1/76 260/1/77 259/1/78 252/1/79
f 520/1/80 529/1/81 528/1/82 521/1/83
f 181/1/84 182/1/85 175/1/86 176/1/87
f 362/1/88 386/1/89 363/1/90 355/1/91
f 187/1/92 197/1/93 196/1/94 189/1/70
f 376/1/54 382/1/75 381/1/95 361/1/52
f 148/1/96 154/1/97 168/1/98 165/1/99
f 2/1/2 342/1/60 334/1/65 3/1/3
f 17/1/17 354/1/53 348/1/59 18/1/18
f 335/1/100 357/1/101 336/1/102 328/1/103
f 647/1/104 649/1/105 639/1/106 640/1/107
f 225/1/108 226/1/109 217/1/110 224/1/111
f 35/1/112 43/1/113 24/1/24 27/1/27
f 98/1/114 35/1/112 27/1/27 26/1/26
f 383/1/115 363/1/90 386/1/89 389/1/116
f 386/1/89 392/1/117 391/1/118 389/1/116
f 651/1/119 657/1/120 653/1/121 650/1/122
f 327/1/66 328/1/103 320/1/41 80/1/40
f 115/1/123 121/1/124 44/1/67 43/1/113
f 109/1/125 115/1/123 43/1/113 35/1/112
f 91/1/126 108/1/127 96/1/128 92/1/129
f 391/1/118 392/1/117 387/1/74 398/1/130
f 413/1/131 423/1/132 422/1/133 414/1/134
f 68/1/135 69/1/136 22/1/22 7/1/7
f 398/1/130 403/1/56 395/1/137 391/1/118
f 342/1/60 349/1/138 335/1/100 334/1/65
f 75/1/139 82/1/140 81/1/141 63/1/142
f 70/1/143 85/1/144 76/1/145 55/1/146
f 74/1/147 75/1/139 69/1/136 68/1/135
f 395/1/137 407/1/148 401/1/149 394/1/150
f 162/1/76 185/1/37 158/1/36 156/1/151
f 357/1/101 356/1/152 369/1/153 364/1/154
f 356/1/152 363/1/90 383/1/115 369/1/153
f 57/1/34 56/1/155 63/1/142 62/1/156
f 22/1/22 69/1/136 56/1/155 23/1/23
f 56/1/155 57/1/34 21/1/21 23/1/23
f 320/1/41 329/1/157 313/1/158 94/1/42
f 94/1/42 313/1/158 88/1/159 74/1/147
f 563/1/160 564/1/161 366/1/162 556/1/163
f 74/1/147 88/1/159 82/1/140 75/1/139
f 337/1/164 317/1/165 329/1/157 336/1/102
f 464/1/166 479/1/167 477/1/168 472/1/169
f 586/1/170 587/1/171 582/1/172 584/1/62
f 313/1/158 329/1/157 317/1/165 312/1/173
f 88/1/159 313/1/158 312/1/173 305/1/174
f 444/1/175 463/1/176 438/1/177 439/1/178
f 82/1/140 89/1/179 87/1/180 81/1/141
f 318/1/181 319/1/182 312/1/173 317/1/165
f 77/1/183 60/1/184 54/1/185 53/1/186
f 372/1/187 556/1/163 366/1/162 365/1/188
f 69/1/136 75/1/139 63/1/142 56/1/155
f 436/1/189 505/1/190 459/1/191 451/1/192
f 401/1/149 406/1/193 388/1/194 394/1/150
f 396/1/195 397/1/196 370/1/197 390/1/198
f 388/1/194 406/1/193 396/1/195 390/1/198
f 143/1/199 136/1/200 207/1/201 149/1/202
f 198/1/203 205/1/204 206/1/205 142/1/206
f 296/1/207 315/1/208 289/1/209 290/1/210
f 289/1/209 315/1/208 314/1/211 307/1/212
f 136/1/200 143/1/199 58/1/213 65/1/214
f 206/1/205 214/1/51 207/1/201 142/1/206
f 511/1/215 233/1/216 248/1/217 512/1/218
f 209/1/219 210/1/220 200/1/221 208/1/222
f 512/1/218 515/1/223 506/1/224 505/1/190
f 88/1/159 305/1/174 89/1/179 82/1/140
f 470/1/225 479/1/167 464/1/166 463/1/176
f 258/1/226 519/1/227 249/1/228 250/1/229
f 141/1/71 198/1/203 142/1/206 135/1/230
f 730/1/231 731/1/232 722/1/233 723/1/234
f 402/1/235 420/1/236 377/1/237 397/1/196
f 123/1/238 129/1/239 128/1/240 122/1/241
f 83/1/242 97/1/243 95/1/244 90/1/245
f 14/1/14 376/1/54 361/1/52 15/1/15
f 716/1/246 717/1/247 709/1/248 711/1/249
f 183/1/69 134/1/72 129/1/239 177/1/250
f 155/1/251 260/1/77 162/1/76 156/1/151
f 205/1/204 393/1/252 213/1/73 206/1/205
f 120/1/253 268/1/254 155/1/251 150/1/255
f 417/1/256 418/1/257 402/1/235 411/1/258
f 121/1/124 122/1/241 128/1/240 64/1/259
f 401/1/149 416/1/260 410/1/261 406/1/193
f 95/1/244 145/1/262 144/1/263 137/1/264
f 205/1/204 400/1/265 399/1/57 393/1/252
f 399/1/57 403/1/56 398/1/130 393/1/252
f 9/1/9 59/1/68 58/1/213 12/1/12
f 116/1/266 117/1/267 123/1/238 122/1/241
f 592/1/268 601/1/269 602/1/270 595/1/271
f 125/1/272 123/1/238 117/1/267 124/1/273
f 116/1/266 115/1/123 109/1/125 110/1/274
f 110/1/274 112/1/275 117/1/267 116/1/266
f 183/1/69 177/1/250 175/1/86 182/1/85
f 175/1/86 177/1/250 125/1/272 170/1/276
f 536/1/277 544/1/278 545/1/279 516/1/280
f 196/1/94 198/1/203 141/1/71 189/1/70
f 103/1/281 105/1/282 110/1/274 109/1/125
f 112/1/275 110/1/274 105/1/282 111/1/283
f 242/1/284 248/1/217 233/1/216 235/1/285
f 382/1/75 376/1/54 228/1/49 229/1/48
f 72/1/286 71/1/287 119/1/288 106/1/45
f 99/1/47 104/1/46 105/1/282 103/1/281
f 427/1/289 423/1/132 421/1/290 426/1/291
f 409/1/292 416/1/260 401/1/149 407/1/148
f 118/1/293 124/1/273 117/1/267 112/1/275
f 334/1/65 335/1/100 328/1/103 327/1/66
f 187/1/92 189/1/70 183/1/69 182/1/85
f 635/1/294 636/1/295 626/1/296 634/1/297
f 204/1/298 404/1/58 399/1/57 400/1/265
f 34/1/299 98/1/114 26/1/26 25/1/25
f 28/1/28 86/1/300 34/1/299 25/1/25
f 415/1/301 428/1/302 410/1/261 416/1/260
f 600/1/303 601/1/269 592/1/268 593/1/304
f 6/1/6 5/1/5 80/1/40 73/1/43
f 103/1/281 109/1/125 35/1/112 98/1/114
f 432/1/305 433/1/306 417/1/256 428/1/302
f 446/1/307 447/1/308 441/1/309 440/1/310
f 107/1/311 290/1/210 289/1/209 283/1/312
f 338/1/313 368/1/314 343/1/315 339/1/316
f 195/1/317 202/1/318 204/1/298 197/1/93
f 437/1/319 434/1/320 422/1/133 431/1/321
f 437/1/319 439/1/178 432/1/305 434/1/320
f 370/1/197 371/1/322 337/1/164 364/1/154
f 413/1/131 414/1/134 409/1/292 408/1/323
f 195/1/317 203/1/324 201/1/325 202/1/318
f 211/1/326 404/1/58 204/1/298 202/1/318
f 201/1/325 412/1/327 211/1/326 202/1/318
f 259/1/78 278/1/328 251/1/329 252/1/79
f 460/1/330 478/1/331 467/1/332 461/1/333
f 169/1/334 176/1/87 175/1/86 170/1/276
f 295/1/335 303/1/336 301/1/337 288/1/338
f 559/1/339 566/1/340 558/1/341 549/1/342
f 421/1/290 423/1/132 413/1/131 412/1/327
f 146/1/343 147/1/344 118/1/293 139/1/345
f 410/1/261 428/1/302 417/1/256 411/1/258
f 426/1/291 421/1/290 218/1/346 219/1/347
f 166/1/348 167/1/349 159/1/350 165/1/99
f 153/1/351 160/1/352 131/1/353 147/1/344
f 604/1/354 504/1/355 513/1/356 516/1/280
f 389/1/116 391/1/118 395/1/137 394/1/150
f 111/1/283 139/1/345 118/1/293 112/1/275
f 580/1/357 581/1/358 577/1/359 574/1/360
f 427/1/289 431/1/321 422/1/133 423/1/132
f 667/1/361 668/1/362 666/1/363 665/1/364
f 44/1/67 121/1/124 64/1/259 59/1/68
f 146/1/343 161/1/365 153/1/351 147/1/344
f 227/1/366 235/1/285 233/1/216 234/1/367
f 436/1/189 451/1/192 430/1/368 429/1/369
f 163/1/370 180/1/39 173/1/371 174/1/372
f 159/1/350 161/1/365 146/1/343 152/1/373
f 133/1/374 152/1/373 146/1/343 139/1/345
f 99/1/47 103/1/281 98/1/114 34/1/299
f 233/1/216 511/1/215 241/1/375 234/1/367
f 539/1/376 541/1/377 534/1/378 533/1/379
f 241/1/375 429/1/369 427/1/289 426/1/291
f 700/1/380 701/1/381 698/1/382 697/1/383
f 271/1/384 310/1/385 309/1/386 302/1/387
f 577/1/359 581/1/358 576/1/388 569/1/389
f 148/1/96 152/1/373 133/1/374 140/1/390
f 119/1/288 140/1/390 133/1/374 127/1/391
f 106/1/45 119/1/288 127/1/391 104/1/46
f 135/1/230 136/1/200 65/1/214 130/1/392
f 532/1/393 533/1/379 526/1/394 527/1/395
f 242/1/284 250/1/229 249/1/228 248/1/217
f 364/1/154 337/1/164 336/1/102 357/1/101
f 127/1/391 111/1/283 105/1/282 104/1/46
f 166/1/348 172/1/396 171/1/397 167/1/349
f 4/1/4 327/1/66 80/1/40 5/1/5
f 79/1/398 72/1/286 106/1/45 100/1/44
f 100/1/44 99/1/47 34/1/299 86/1/300
f 249/1/228 515/1/223 512/1/218 248/1/217
f 215/1/399 231/1/400 209/1/219 208/1/222
f 604/1/354 516/1/280 545/1/279 596/1/401
f 178/1/402 179/1/403 171/1/397 172/1/396
f 436/1/189 511/1/215 512/1/218 505/1/190
f 328/1/103 336/1/102 329/1/157 320/1/41
f 213/1/73 229/1/48 214/1/51 206/1/205
f 258/1/226 527/1/395 526/1/394 519/1/227
f 178/1/402 190/1/404 184/1/405 179/1/403
f 186/1/38 223/1/406 199/1/407 194/1/408
f 380/1/409 385/1/410 375/1/411 368/1/314
f 79/1/398 100/1/44 86/1/300 38/1/412
f 284/1/413 352/1/414 351/1/415 346/1/416
f 506/1/224 521/1/83 500/1/417 499/1/418
f 356/1/152 357/1/101 335/1/100 349/1/138
f 239/1/419 240/1/420 232/1/421 238/1/422
f 81/1/141 87/1/180 84/1/423 78/1/424
f 89/1/179 297/1/425 93/1/426 87/1/180
f 532/1/393 540/1/427 539/1/376 533/1/379
f 178/1/402 194/1/408 199/1/407 190/1/404
f 10/1/10 143/1/199 149/1/202 11/1/11
f 191/1/428 208/1/222 200/1/221 192/1/429
f 377/1/237 378/1/430 318/1/181 371/1/322
f 410/1/261 411/1/258 396/1/195 406/1/193
f 526/1/394 533/1/379 534/1/378 529/1/81
f 400/1/265 196/1/94 197/1/93 204/1/298
f 549/1/342 557/1/431 539/1/376 540/1/427
f 222/1/432 237/1/433 215/1/399 216/1/434
f 129/1/239 134/1/72 130/1/392 128/1/240
f 459/1/191 476/1/435 450/1/436 451/1/192
f 534/1/378 535/1/437 528/1/82 529/1/81
f 430/1/368 443/1/438 437/1/319 431/1/321
f 247/1/439 255/1/440 256/1/441
f 733/1/442 739/1/443 734/1/444 726/1/445
f 209/1/219 224/1/111 217/1/110 210/1/220
f 450/1/436 471/1/446 444/1/175 443/1/438
f 437/1/319 443/1/438 444/1/175 439/1/178
f 746/1/447 741/1/448 740/1/449 745/1/450
f 67/1/451 52/1/452 51/1/453 61/1/454
f 558/1/341 568/1/455 550/1/456 557/1/431
f 642/1/457 650/1/122 643/1/458 637/1/459
f 257/1/460 265/1/461 266/1/462
f 44/1/67 8/1/8 24/1/24 43/1/113
f 432/1/305 439/1/178 438/1/177 433/1/306
f 500/1/417 501/1/463 481/1/464 499/1/418
f 459/1/191 499/1/418 481/1/464 476/1/435
f 542/1/465 535/1/437 534/1/378 541/1/377
f 704/1/466 702/1/467 699/1/468 703/1/469
f 726/1/445 727/1/470 718/1/471 725/1/472
f 460/1/330 461/1/333 454/1/473 453/1/474
f 502/1/475 503/1/476 351/1/415 494/1/477
f 211/1/326 412/1/327 413/1/131 408/1/323
f 481/1/464 493/1/478 475/1/479 476/1/435
f 550/1/456 552/1/480 542/1/465 541/1/377
f 273/1/481 265/1/461 280/1/482
f 273/1/481 281/1/483 274/1/484
f 273/1/481 280/1/482 281/1/483
f 424/1/485 445/1/486 419/1/487 418/1/257
f 419/1/487 420/1/236 402/1/235 418/1/257
f 475/1/479 487/1/488 470/1/225 471/1/446
f 444/1/175 471/1/446 470/1/225 463/1/176
f 281/1/483 280/1/482 286/1/489
f 281/1/483 286/1/489 287/1/490
f 566/1/340 574/1/360 575/1/491 558/1/341
f 385/1/410 548/1/492 372/1/187 375/1/411
f 425/1/493 378/1/430 377/1/237 420/1/236
f 122/1/241 121/1/124 115/1/123 116/1/266
f 361/1/52 381/1/95 362/1/88 354/1/53
f 245/1/494 272/1/495 271/1/384 264/1/496
f 288/1/338 280/1/482 265/1/461 256/1/441
f 286/1/489 294/1/497 287/1/490
f 256/1/441 295/1/335 288/1/338
f 425/1/493 435/1/498 326/1/499 378/1/430
f 389/1/116 394/1/150 388/1/194 383/1/115
f 464/1/166 472/1/169 452/1/500 455/1/501
f 424/1/485 455/1/501 452/1/500 445/1/486
f 719/1/502 728/1/503 729/1/504 720/1/505
f 568/1/455 575/1/491 569/1/389 560/1/506
f 148/1/96 165/1/99 159/1/350 152/1/373
f 326/1/499 322/1/507 304/1/508 319/1/182
f 477/1/168 478/1/331 460/1/330 472/1/169
f 419/1/487 445/1/486 446/1/307 440/1/310
f 547/1/509 514/1/510 525/1/511 531/1/512
f 569/1/389 576/1/388 567/1/513 560/1/506
f 560/1/506 561/1/514 551/1/515 552/1/480
f 542/1/465 552/1/480 551/1/515 543/1/516
f 535/1/437 542/1/465 543/1/516 537/1/517
f 303/1/336 311/1/518 308/1/519
f 312/1/173 319/1/182 304/1/508 305/1/174
f 89/1/179 305/1/174 304/1/508 297/1/425
f 425/1/493 440/1/310 441/1/309 435/1/498
f 586/1/170 591/1/520 594/1/521 593/1/304
f 370/1/197 397/1/196 377/1/237 371/1/322
f 337/1/164 371/1/322 318/1/181 317/1/165
f 653/1/121 654/1/522 645/1/523 646/1/524
f 118/1/293 147/1/344 131/1/353 124/1/273
f 500/1/417 530/1/525 507/1/526 501/1/463
f 430/1/368 431/1/321 427/1/289 429/1/369
f 316/1/527 323/1/528 324/1/529
f 125/1/272 177/1/250 129/1/239 123/1/238
f 396/1/195 411/1/258 402/1/235 397/1/196
f 93/1/426 297/1/425 296/1/207 290/1/210
f 296/1/207 322/1/507 321/1/530 315/1/208
f 181/1/84 188/1/531 187/1/92 182/1/85
f 63/1/142 81/1/141 78/1/424 62/1/156
f 199/1/407 216/1/434 191/1/428 190/1/404
f 58/1/213 143/1/199 10/1/10 12/1/12
f 324/1/529 330/1/532 332/1/533
f 57/1/34 62/1/156 50/1/534 41/1/35
f 41/1/35 42/1/535 20/1/20 19/1/19
f 253/1/536 272/1/495 245/1/494 246/1/537
f 62/1/156 78/1/424 70/1/143 50/1/534
f 284/1/413 346/1/416 277/1/538 278/1/328
f 93/1/426 101/1/539 84/1/423 87/1/180
f 597/1/540 596/1/401 545/1/279 553/1/541
f 332/1/533 338/1/313 339/1/316
f 506/1/224 499/1/418 459/1/191 505/1/190
f 554/1/542 599/1/543 563/1/160 556/1/163
f 50/1/534 48/1/544 42/1/535 41/1/35
f 597/1/540 598/1/545 589/1/546 588/1/547
f 339/1/316 343/1/315 344/1/548
f 475/1/479 493/1/478 490/1/549 487/1/488
f 497/1/550 498/1/551 490/1/549 493/1/478
f 653/1/121 646/1/524 643/1/458 650/1/122
f 39/1/552 40/1/553 32/1/32 33/1/33
f 48/1/544 47/1/554 39/1/552 42/1/535
f 227/1/366 234/1/367 219/1/347 220/1/555
f 269/1/556 333/1/557 261/1/558 262/1/559
f 470/1/225 487/1/488 484/1/560 479/1/167
f 504/1/355 608/1/561 496/1/562 498/1/551
f 507/1/526 513/1/356 497/1/550 501/1/463
f 47/1/554 49/1/563 40/1/553 39/1/552
f 48/1/544 55/1/146 53/1/186 47/1/554
f 50/1/534 70/1/143 55/1/146 48/1/544
f 737/1/564 738/1/565 731/1/232 730/1/231
f 32/1/32 40/1/553 36/1/566 29/1/29
f 36/1/566 37/1/567 30/1/30 29/1/29
f 40/1/553 49/1/563 46/1/568 36/1/566
f 47/1/554 53/1/186 54/1/185 49/1/563
f 78/1/424 84/1/423 85/1/144 70/1/143
f 530/1/525 537/1/517 536/1/277 507/1/526
f 588/1/547 589/1/546 582/1/172 587/1/171
f 382/1/75 387/1/74 392/1/117 381/1/95
f 84/1/423 101/1/539 91/1/126 85/1/144
f 91/1/126 92/1/129 76/1/145 85/1/144
f 149/1/202 221/1/50 13/1/13 11/1/11
f 570/1/61 591/1/520 586/1/170 584/1/62
f 570/1/61 571/1/64 373/1/569 564/1/161
f 596/1/401 597/1/540 588/1/547 595/1/271
f 168/1/98 174/1/372 166/1/348 165/1/99
f 107/1/311 108/1/127 91/1/126 101/1/539
f 93/1/426 290/1/210 107/1/311 101/1/539
f 587/1/171 592/1/268 595/1/271 588/1/547
f 526/1/394 529/1/81 520/1/80 519/1/227
f 37/1/567 36/1/566 46/1/568 45/1/570
f 45/1/570 79/1/398 38/1/412 37/1/567
f 211/1/326 408/1/323 405/1/55 404/1/58
f 602/1/270 608/1/561 504/1/355 604/1/354
f 155/1/251 268/1/254 267/1/571 260/1/77
f 586/1/170 593/1/304 592/1/268 587/1/171
f 49/1/563 54/1/185 51/1/453 46/1/568
f 72/1/286 79/1/398 45/1/570 52/1/452
f 76/1/145 92/1/129 83/1/242 77/1/183
f 83/1/242 90/1/245 60/1/184 77/1/183
f 483/1/572 478/1/331 477/1/168 482/1/573
f 739/1/443 745/1/450 740/1/449 734/1/444
f 46/1/568 51/1/453 52/1/452 45/1/570
f 71/1/287 72/1/286 52/1/452 67/1/451
f 60/1/184 90/1/245 66/1/574 61/1/454
f 169/1/334 170/1/276 131/1/353 160/1/352
f 107/1/311 283/1/312 113/1/575 108/1/127
f 430/1/368 451/1/192 450/1/436 443/1/438
f 66/1/574 132/1/576 67/1/451 61/1/454
f 354/1/53 362/1/88 355/1/91 348/1/59
f 348/1/59 355/1/91 349/1/138 342/1/60
f 133/1/374 139/1/345 111/1/283 127/1/391
f 73/1/43 94/1/42 74/1/147 68/1/135
f 95/1/244 137/1/264 66/1/574 90/1/245
f 388/1/194 390/1/198 369/1/153 383/1/115
f 113/1/575 114/1/577 96/1/128 108/1/127
f 164/1/578 168/1/98 154/1/97 138/1/579
f 138/1/579 154/1/97 126/1/580 132/1/576
f 66/1/574 137/1/264 138/1/579 132/1/576
f 144/1/263 164/1/578 138/1/579 137/1/264
f 523/1/581 384/1/582 379/1/583 353/1/584
f 102/1/585 145/1/262 95/1/244 97/1/243
f 96/1/128 114/1/577 102/1/585 97/1/243
f 163/1/370 174/1/372 168/1/98 164/1/578
f 419/1/487 440/1/310 425/1/493 420/1/236
f 151/1/586 157/1/587 144/1/263 145/1/262
f 282/1/588 299/1/589 275/1/590 276/1/591
f 120/1/253 150/1/255 102/1/585 114/1/577
f 522/1/592 547/1/509 546/1/593 538/1/594
f 490/1/549 491/1/595 484/1/560 487/1/488
f 126/1/580 140/1/390 119/1/288 71/1/287
f 166/1/348 174/1/372 173/1/371 172/1/396
f 158/1/36 157/1/587 151/1/586 156/1/151
f 158/1/36 180/1/39 163/1/370 157/1/587
f 492/1/596 612/1/597 524/1/598 518/1/599
f 120/1/253 276/1/591 275/1/590 268/1/254
f 289/1/209 307/1/212 282/1/588 283/1/312
f 474/1/600 495/1/601 488/1/602 480/1/603
f 464/1/166 455/1/501 438/1/177 463/1/176
f 421/1/290 412/1/327 201/1/325 218/1/346
f 126/1/580 154/1/97 148/1/96 140/1/390
f 134/1/72 141/1/71 135/1/230 130/1/392
f 186/1/38 194/1/408 173/1/371 180/1/39
f 223/1/406 186/1/38 185/1/37 193/1/604
f 155/1/251 156/1/151 151/1/586 150/1/255
f 438/1/177 455/1/501 424/1/485 433/1/306
f 199/1/407 223/1/406 222/1/432 216/1/434
f 193/1/604 244/1/605 222/1/432 223/1/406
f 38/1/412 31/1/31 30/1/30 37/1/567
f 162/1/76 252/1/79 193/1/604 185/1/37
f 77/1/183 53/1/186 55/1/146 76/1/145
f 318/1/181 378/1/430 326/1/499 319/1/182
f 275/1/590 292/1/606 267/1/571 268/1/254
f 304/1/508 322/1/507 296/1/207 297/1/425
f 321/1/530 442/1/607 314/1/211 315/1/208
f 393/1/252 398/1/130 387/1/74 213/1/73
f 267/1/571 285/1/608 259/1/78 260/1/77
f 415/1/301 416/1/260 409/1/292 414/1/134
f 314/1/211 449/1/609 306/1/610 307/1/212
f 448/1/611 449/1/609 314/1/211 442/1/607
f 415/1/301 434/1/320 432/1/305 428/1/302
f 193/1/604 252/1/79 251/1/329 244/1/605
f 520/1/80 521/1/83 506/1/224 515/1/223
f 462/1/612 469/1/613 456/1/614 457/1/615
f 306/1/610 458/1/616 298/1/617 299/1/589
f 456/1/614 458/1/616 306/1/610 449/1/609
f 611/1/618 489/1/619 491/1/595 496/1/562
f 448/1/611 457/1/615 456/1/614 449/1/609
f 454/1/473 457/1/615 448/1/611 447/1/308
f 441/1/309 442/1/607 321/1/530 435/1/498
f 222/1/432 244/1/605 243/1/620 237/1/433
f 469/1/613 465/1/621 458/1/616 456/1/614
f 562/1/622 603/1/623 594/1/521 599/1/543
f 243/1/620 270/1/624 269/1/556 262/1/559
f 454/1/473 461/1/333 462/1/612 457/1/615
f 610/1/625 611/1/618 605/1/626 606/1/627
f 267/1/571 292/1/606 291/1/628 285/1/608
f 524/1/598 612/1/597 607/1/629 609/1/630
f 452/1/500 472/1/169 460/1/330 453/1/474
f 474/1/600 480/1/603 465/1/621 469/1/613
f 277/1/538 341/1/631 269/1/556 270/1/624
f 467/1/332 468/1/632 462/1/612 461/1/333
f 507/1/526 536/1/277 516/1/280 513/1/356
f 291/1/628 352/1/414 284/1/413 285/1/608
f 381/1/95 392/1/117 386/1/89 362/1/88
f 484/1/560 482/1/573 477/1/168 479/1/167
f 54/1/185 60/1/184 61/1/454 51/1/453
f 96/1/128 97/1/243 83/1/242 92/1/129
f 251/1/329 278/1/328 277/1/538 270/1/624
f 366/1/162 564/1/161 373/1/569 367/1/633
f 465/1/621 480/1/603 473/1/634 466/1/635
f 466/1/635 473/1/634 352/1/414 291/1/628
f 486/1/636 495/1/601 474/1/600 468/1/632
f 465/1/621 466/1/635 298/1/617 458/1/616
f 488/1/602 494/1/477 473/1/634 480/1/603
f 450/1/436 476/1/435 475/1/479 471/1/446
f 259/1/78 285/1/608 284/1/413 278/1/328
f 59/1/68 64/1/259 65/1/214 58/1/213
f 522/1/592 538/1/594 384/1/582 523/1/581
f 467/1/332 485/1/637 486/1/636 468/1/632
f 6/1/6 73/1/43 68/1/135 7/1/7
f 483/1/572 485/1/637 467/1/332 478/1/331
f 282/1/588 307/1/212 306/1/610 299/1/589
f 497/1/550 513/1/356 504/1/355 498/1/551
f 251/1/329 270/1/624 243/1/620 244/1/605
f 351/1/415 503/1/476 345/1/638 346/1/416
f 417/1/256 433/1/306 424/1/485 418/1/257
f 488/1/602 495/1/601 509/1/639 508/1/640
f 502/1/475 517/1/641 510/1/642 503/1/476
f 345/1/638 360/1/643 340/1/644 341/1/631
f 269/1/556 341/1/631 340/1/644 333/1/557
f 446/1/307 453/1/474 454/1/473 447/1/308
f 163/1/370 164/1/578 144/1/263 157/1/587
f 484/1/560 491/1/595 489/1/619 482/1/573
f 489/1/619 613/1/645 483/1/572 482/1/573
f 340/1/644 360/1/643 353/1/584 347/1/646
f 510/1/642 523/1/581 353/1/584 360/1/643
f 243/1/620 262/1/559 236/1/647 237/1/433
f 236/1/647 262/1/559 261/1/558 254/1/648
f 261/1/558 333/1/557 325/1/649 279/1/650
f 340/1/644 347/1/646 325/1/649 333/1/557
f 452/1/500 453/1/474 446/1/307 445/1/486
f 492/1/596 518/1/599 486/1/636 485/1/637
f 490/1/549 498/1/551 496/1/562 491/1/595
f 613/1/645 492/1/596 485/1/637 483/1/572
f 468/1/632 474/1/600 469/1/613 462/1/612
f 191/1/428 216/1/434 215/1/399 208/1/222
f 196/1/94 400/1/265 205/1/204 198/1/203
f 215/1/399 237/1/433 236/1/647 231/1/400
f 225/1/108 246/1/537 245/1/494 238/1/422
f 610/1/625 613/1/645 489/1/619 611/1/618
f 492/1/596 613/1/645 610/1/625 612/1/597
f 325/1/649 347/1/646 331/1/651 323/1/528
f 353/1/584 379/1/583 331/1/651 347/1/646
f 209/1/219 231/1/400 230/1/652 224/1/111
f 236/1/647 254/1/648 230/1/652 231/1/400
f 151/1/586 145/1/262 102/1/585 150/1/255
f 514/1/510 517/1/641 502/1/475 508/1/640
f 605/1/626 608/1/561 602/1/270 601/1/269
f 509/1/639 525/1/511 514/1/510 508/1/640
f 524/1/598 525/1/511 509/1/639 518/1/599
f 713/1/653 714/1/654 706/1/655 707/1/656
f 230/1/652 246/1/537 225/1/108 224/1/111
f 261/1/558 279/1/650 253/1/536 254/1/648
f 230/1/652 254/1/648 253/1/536 246/1/537
f 298/1/617 466/1/635 291/1/628 292/1/606
f 607/1/629 612/1/597 610/1/625 606/1/627
f 225/1/108 238/1/422 232/1/421 226/1/109
f 64/1/259 128/1/240 130/1/392 65/1/214
f 688/1/657 694/1/658 692/1/659 693/1/660
f 279/1/650 316/1/527 272/1/495 253/1/536
f 279/1/650 325/1/649 323/1/528 316/1/527
f 245/1/494 264/1/496 239/1/419 238/1/422
f 642/1/457 652/1/661 651/1/119 650/1/122
f 618/1/662 626/1/296 623/1/663 619/1/664
f 293/1/665 294/1/497 286/1/489 280/1/482
f 537/1/517 544/1/278 536/1/277
f 323/1/528 331/1/651 330/1/532 324/1/529
f 131/1/353 170/1/276 125/1/272 124/1/273
f 600/1/303 606/1/627 605/1/626 601/1/269
f 607/1/629 606/1/627 600/1/303 603/1/623
f 724/1/666 725/1/472 716/1/246 721/1/667
f 271/1/384 302/1/387 263/1/668 264/1/496
f 239/1/419 264/1/496 263/1/668 255/1/440
f 263/1/668 295/1/335 256/1/441 255/1/440
f 544/1/278 553/1/541 545/1/279
f 594/1/521 603/1/623 600/1/303 593/1/304
f 113/1/575 283/1/312 282/1/588 276/1/591
f 549/1/342 558/1/341 557/1/431
f 565/1/669 573/1/670 572/1/671 566/1/340
f 256/1/441 265/1/461 257/1/460 247/1/439
f 263/1/668 302/1/387 303/1/336 295/1/335
f 300/1/672 301/1/337 303/1/336 308/1/519
f 531/1/512 555/1/673 546/1/593 547/1/509
f 275/1/590 299/1/589 298/1/617 292/1/606
f 563/1/160 591/1/520 570/1/61 564/1/161
f 563/1/160 599/1/543 594/1/521 591/1/520
f 559/1/339 565/1/669 566/1/340
f 561/1/514 560/1/506 567/1/513
f 309/1/386 311/1/518 303/1/336 302/1/387
f 569/1/389 575/1/491 574/1/360 577/1/359
f 249/1/228 519/1/227 520/1/80 515/1/223
f 422/1/133 434/1/320 415/1/301 414/1/134
f 273/1/481 274/1/484 266/1/462 265/1/461
f 566/1/340 572/1/671 574/1/360
f 631/1/674 632/1/675 624/1/676 630/1/677
f 568/1/455 558/1/341 575/1/491
f 293/1/665 301/1/337 300/1/672 294/1/497
f 288/1/338 301/1/337 293/1/665 280/1/482
f 366/1/162 367/1/633 359/1/678 365/1/188
f 572/1/671 573/1/670 579/1/679
f 572/1/671 579/1/679 574/1/360
f 574/1/360 579/1/679 580/1/357
f 689/1/680 686/1/681 682/1/682 688/1/657
f 358/1/683 365/1/188 359/1/678 350/1/684
f 580/1/357 585/1/685 581/1/358
f 579/1/679 585/1/685 580/1/357
f 358/1/683 375/1/411 372/1/187 365/1/188
f 409/1/292 407/1/148 405/1/55 408/1/323
f 753/1/686 754/1/687 655/1/688 752/1/689
f 343/1/315 358/1/683 350/1/684 344/1/548
f 277/1/538 346/1/416 345/1/638 341/1/631
f 554/1/542 556/1/163 372/1/187 548/1/492
f 113/1/575 276/1/591 120/1/253 114/1/577
f 604/1/354 596/1/401 595/1/271 602/1/270
f 191/1/428 192/1/429 184/1/405 190/1/404
f 331/1/651 379/1/583 374/1/690 330/1/532
f 142/1/206 207/1/201 136/1/200 135/1/230
f 639/1/106 641/1/691 633/1/692 632/1/675
f 597/1/540 553/1/541 598/1/545
f 589/1/546 598/1/545 590/1/693
f 599/1/543 554/1/542 555/1/673 562/1/622
f 546/1/593 548/1/492 385/1/410 538/1/594
f 605/1/626 611/1/618 496/1/562 608/1/561
f 384/1/582 538/1/594 385/1/410 380/1/409
f 379/1/583 384/1/582 380/1/409 374/1/690
f 326/1/499 435/1/498 321/1/530 322/1/507
f 481/1/464 501/1/463 497/1/550 493/1/478
f 448/1/611 442/1/607 441/1/309 447/1/308
f 531/1/512 609/1/630 562/1/622 555/1/673
f 503/1/476 510/1/642 360/1/643 345/1/638
f 522/1/592 523/1/581 510/1/642 517/1/641
f 609/1/630 531/1/512 525/1/511 524/1/598
f 546/1/593 555/1/673 554/1/542 548/1/492
f 514/1/510 547/1/509 522/1/592 517/1/641
f 486/1/636 518/1/599 509/1/639 495/1/601
f 488/1/602 508/1/640 502/1/475 494/1/477
f 38/1/412 86/1/300 28/1/28 31/1/31
f 369/1/153 390/1/198 370/1/197 364/1/154
f 615/1/694 618/1/662 619/1/664
f 615/1/694 620/1/695 618/1/662
f 616/1/696 619/1/664 621/1/697
f 195/1/317 197/1/93 187/1/92 188/1/531
f 735/1/698 741/1/448 742/1/699 736/1/700
f 619/1/664 623/1/663 621/1/697
f 618/1/662 620/1/695 624/1/676
f 618/1/662 624/1/676 625/1/701
f 736/1/700 729/1/504 728/1/503 735/1/698
f 618/1/662 625/1/701 627/1/702
f 623/1/663 626/1/296 628/1/703
f 621/1/697 623/1/663 628/1/703
f 621/1/697 628/1/703 629/1/704
f 622/1/705 630/1/677 624/1/676
f 724/1/666 732/1/706 726/1/445 725/1/472
f 212/1/707 218/1/346 201/1/325 203/1/324
f 718/1/471 727/1/470 728/1/503 719/1/502
f 736/1/700 737/1/564 730/1/231 729/1/504
f 626/1/296 636/1/295 628/1/703
f 212/1/707 220/1/555 219/1/347 218/1/346
f 426/1/291 219/1/347 234/1/367 241/1/375
f 173/1/371 194/1/408 178/1/402 172/1/396
f 716/1/246 725/1/472 718/1/471 717/1/247
f 557/1/431 550/1/456 541/1/377 539/1/376
f 659/1/708 662/1/709 661/1/710 657/1/120
f 720/1/505 715/1/711 710/1/712 719/1/502
f 648/1/713 652/1/661 642/1/457 641/1/691
f 355/1/91 363/1/90 356/1/152 349/1/138
f 712/1/714 721/1/667 716/1/246 711/1/249
f 405/1/55 407/1/148 395/1/137 403/1/56
f 709/1/248 717/1/247 710/1/712 704/1/466
f 710/1/712 715/1/711 708/1/715 704/1/466
f 720/1/505 723/1/234 713/1/653 715/1/711
f 713/1/653 723/1/234 722/1/233 714/1/654
f 708/1/715 715/1/711 713/1/653 707/1/656
f 647/1/104 655/1/688 649/1/105
f 648/1/713 649/1/105 655/1/688
f 648/1/713 656/1/716 652/1/661
f 648/1/713 655/1/688 656/1/716
f 651/1/119 652/1/661 658/1/717
f 241/1/375 511/1/215 436/1/189 429/1/369
f 272/1/495 316/1/527 310/1/385 271/1/384
f 699/1/468 702/1/467 700/1/380 697/1/383
f 655/1/688 660/1/718 656/1/716
f 700/1/380 707/1/656 706/1/655 701/1/381
f 660/1/718 664/1/719 659/1/708 658/1/717
f 214/1/51 221/1/50 149/1/202 207/1/201
f 660/1/718 665/1/364 664/1/719
f 664/1/719 665/1/364 666/1/363
f 663/1/720 664/1/719 666/1/363
f 694/1/658 696/1/721 695/1/722 692/1/659
f 578/1/63 584/1/62 582/1/172 583/1/723
f 535/1/437 537/1/517 530/1/525 528/1/82
f 669/1/724 672/1/725 670/1/726
f 673/1/727 671/1/728 674/1/729
f 674/1/729 671/1/728 675/1/730
f 675/1/730 671/1/728 676/1/731
f 671/1/728 677/1/732 678/1/733
f 671/1/728 678/1/733 676/1/731
f 671/1/728 679/1/734 677/1/732
f 473/1/634 494/1/477 351/1/415 352/1/414
f 671/1/728 681/1/735 680/1/735 679/1/734
f 683/1/736 682/1/682 684/1/737
f 684/1/737 682/1/682 685/1/738
f 682/1/682 686/1/681 687/1/739
f 671/1/728 673/1/727 672/1/725 669/1/724
f 682/1/682 687/1/739 690/1/740
f 682/1/682 690/1/740 691/1/741
f 682/1/682 691/1/741 685/1/738
f 669/1/724 670/1/726 668/1/362 667/1/361
f 688/1/657 693/1/660 689/1/680
f 528/1/82 530/1/525 500/1/417 521/1/83
f 695/1/722 696/1/721 697/1/383
f 695/1/722 697/1/383 698/1/382
f 696/1/721 699/1/468 697/1/383
f 700/1/380 702/1/467 708/1/715 707/1/656
f 659/1/708 664/1/719 663/1/720 662/1/709
f 660/1/718 658/1/717 652/1/661 656/1/716
f 699/1/468 705/1/742 703/1/469
f 330/1/532 374/1/690 338/1/313 332/1/533
f 651/1/119 658/1/717 659/1/708 657/1/120
f 702/1/467 704/1/466 708/1/715
f 703/1/469 705/1/742 709/1/248
f 703/1/469 709/1/248 704/1/466
f 743/1/743 744/1/744 738/1/565 737/1/564
f 374/1/690 380/1/409 368/1/314 338/1/313
f 705/1/742 711/1/249 709/1/248
f 705/1/742 712/1/714 711/1/249
f 20/1/20 42/1/535 39/1/552 33/1/33
f 653/1/121 657/1/120 661/1/710 654/1/522
f 639/1/106 649/1/105 648/1/713 641/1/691
f 67/1/451 132/1/576 126/1/580 71/1/287
f 718/1/471 719/1/502 710/1/712 717/1/247
f 633/1/692 641/1/691 642/1/457 637/1/459
f 589/1/546 590/1/693 583/1/723 582/1/172
f 730/1/231 723/1/234 720/1/505 729/1/504
f 682/1/682 683/1/736 680/1/735 681/1/735
f 631/1/674 640/1/107 639/1/106 632/1/675
f 633/1/692 625/1/701 624/1/676 632/1/675
f 550/1/456 568/1/455 560/1/506 552/1/480
f 637/1/459 643/1/458 634/1/297 627/1/702
f 643/1/458 646/1/524 635/1/294 634/1/297
f 635/1/294 646/1/524 645/1/523 644/1/745
f 726/1/445 732/1/706 733/1/442
f 622/1/705 624/1/676 620/1/695 617/1/746
f 726/1/445 735/1/698 727/1/470
f 727/1/470 735/1/698 728/1/503
f 726/1/445 734/1/444 735/1/698
f 368/1/314 375/1/411 358/1/683 343/1/315
f 627/1/702 634/1/297 626/1/296 618/1/662
f 644/1/745 638/1/747 636/1/295 635/1/294
f 617/1/746 620/1/695 615/1/694 614/1/748
f 734/1/444 740/1/449 735/1/698
f 735/1/698 740/1/449 741/1/448
f 633/1/692 637/1/459 627/1/702 625/1/701
f 736/1/700 742/1/699 743/1/743
f 628/1/703 636/1/295 638/1/747 629/1/704
f 736/1/700 743/1/743 737/1/564
f 615/1/694 619/1/664 616/1/696 614/1/748
f 741/1/448 746/1/447 747/1/749
f 741/1/448 747/1/749 742/1/699
f 742/1/699 747/1/749 743/1/743
f 743/1/743 747/1/749 744/1/744
f 647/1/104 748/1/750 655/1/688
f 748/1/750 749/1/751 655/1/688
f 655/1/688 749/1/751 750/1/752
f 655/1/688 750/1/752 751/1/753
f 655/1/688 751/1/753 752/1/689
f 758/1/754 759/1/755 705/1/742 754/1/687
f 753/1/686 755/1/756 754/1/687
f 754/1/687 755/1/756 756/1/757
f 754/1/687 756/1/757 757/1/758
f 754/1/687 757/1/758 758/1/754
f 239/1/419 255/1/440 247/1/439 240/1/420
f 705/1/742 760/1/759 712/1/714
f 705/1/742 761/1/760 760/1/759
f 705/1/742 759/1/755 762/1/761
f 705/1/742 763/1/762 761/1/760
f 705/1/742 762/1/761 763/1/762
f 562/1/622 609/1/630 607/1/629 603/1/623
