# Blender 4.3.2
# www.blender.org
o hair.053
v 7.565077 0.643388 0.014213
v 7.593990 0.609082 0.001569
v 7.595977 0.618576 0.004733
v 7.579937 0.607721 -0.004677
v 7.534176 0.618576 0.004733
v 7.536163 0.609082 0.001569
v 7.550217 0.607721 -0.004677
v 7.593669 0.608650 0.010812
v 7.592984 0.614483 0.014838
v 7.595223 0.615248 0.006730
v 7.594453 0.611939 0.008756
v 7.590675 0.626227 0.020867
v 7.589420 0.629936 0.022315
v 7.587880 0.633421 0.023405
v 7.585999 0.637002 0.024276
v 7.583901 0.640633 0.024976
v 7.583123 0.637582 0.026910
v 7.574308 0.625119 0.031803
v 7.572761 0.628774 0.032602
v 7.571220 0.632414 0.033425
v 7.568268 0.629359 0.033974
v 7.556392 0.622230 0.033947
v 7.556015 0.626286 0.034267
v 7.552588 0.629180 0.033191
v 7.549485 0.628171 0.031641
v 7.539280 0.626389 0.019992
v 7.538105 0.620760 0.017906
v 7.541358 0.626637 0.023719
v 7.543640 0.626964 0.027165
v 7.546431 0.627454 0.029725
v 7.559087 0.623566 0.034143
v 7.534930 0.615248 0.006730
v 7.535701 0.611939 0.008756
v 7.555639 0.630304 0.034650
v 7.561762 0.624875 0.034293
v 7.564322 0.626286 0.034289
v 7.577709 0.628644 0.030713
v 7.580184 0.631781 0.029678
v 7.581676 0.634349 0.028605
v 7.537168 0.614839 0.014801
v 7.536485 0.608650 0.010812
v 7.592020 0.620438 0.018260
v 7.594406 0.604153 -0.000846
v 7.584890 0.595833 -0.010974
v 7.574764 0.594762 -0.015488
v 7.565077 0.605922 -0.008638
v 7.595275 0.599294 -0.003685
v 7.598188 0.591668 -0.010698
v 7.592078 0.594920 -0.014062
v 7.585450 0.594654 -0.021798
v 7.585968 0.598173 -0.017426
v 7.584904 0.591135 -0.026166
v 7.555389 0.594762 -0.015488
v 7.579055 0.594019 -0.026861
v 7.545263 0.595833 -0.010974
v 7.535747 0.604153 -0.000846
v 7.573214 0.596918 -0.027538
v 7.534879 0.599294 -0.003685
v 7.531965 0.591668 -0.010698
v 7.538075 0.594920 -0.014062
v 7.544186 0.598173 -0.017426
v 7.544703 0.594654 -0.021798
v 7.545250 0.591135 -0.026166
v 7.551099 0.594019 -0.026861
v 7.556939 0.596918 -0.027538
v 7.561009 0.592814 -0.030416
v 7.565077 0.588708 -0.033298
v 7.569145 0.592814 -0.030416
v 7.562098 0.652278 -0.017473
v 7.558913 0.651071 -0.018385
v 7.561935 0.652604 -0.016960
v 7.565077 0.653227 -0.016509
v 7.562385 0.651991 -0.017942
v 7.558549 0.651762 -0.017291
v 7.555516 0.649297 -0.019040
v 7.559509 0.650441 -0.019380
v 7.561794 0.652928 -0.016440
v 7.558263 0.652375 -0.016216
v 7.562690 0.651712 -0.018404
v 7.560121 0.649820 -0.020284
v 7.554741 0.650347 -0.017226
v 7.552343 0.647108 -0.019291
v 7.556340 0.648185 -0.020781
v 7.554471 0.651337 -0.015541
v 7.557411 0.647314 -0.022122
v 7.561827 0.653370 -0.015758
v 7.558347 0.653272 -0.014774
v 7.554720 0.652655 -0.013395
v 7.561260 0.649168 -0.021283
v 7.563243 0.651417 -0.018890
v 7.551546 0.648557 -0.016846
v 7.551166 0.649884 -0.014654
v 7.551504 0.651666 -0.011868
v 7.562050 0.653755 -0.015164
v 7.558837 0.654040 -0.013566
v 7.555500 0.653857 -0.011601
v 7.552498 0.653262 -0.009510
v 7.562704 0.648787 -0.021879
v 7.559129 0.646395 -0.023611
v 7.563935 0.651239 -0.019184
v 7.548172 0.649915 -0.009778
v 7.547720 0.647693 -0.013275
v 7.559762 0.654801 -0.012388
v 7.556842 0.655071 -0.009786
v 7.561252 0.645799 -0.024562
v 7.559962 0.642704 -0.026845
v 7.557162 0.643497 -0.025523
v 7.554893 0.644673 -0.023505
v 7.564505 0.651188 -0.019269
v 7.548123 0.645994 -0.016019
v 7.545050 0.645438 -0.011830
v 7.563015 0.645535 -0.024997
v 7.563857 0.648682 -0.022045
v 7.558501 0.638658 -0.029053
v 7.554950 0.639682 -0.027284
v 7.553558 0.645766 -0.021605
v 7.545415 0.643424 -0.015017
v 7.542407 0.642673 -0.010031
v 7.545578 0.647969 -0.007741
v 7.565077 0.648595 -0.022180
v 7.565077 0.645413 -0.025138
v 7.550471 0.642483 -0.022123
v 7.552088 0.641144 -0.024636
v 7.549033 0.644149 -0.019112
v 7.549355 0.651893 -0.006795
v 7.565077 0.651148 -0.019334
v 7.549736 0.637707 -0.025251
v 7.553087 0.635969 -0.028416
v 7.546347 0.641228 -0.018634
v 7.551428 0.654085 -0.003842
v 7.554216 0.654936 -0.007153
v 7.565649 0.651188 -0.019269
v 7.557268 0.634736 -0.030561
v 7.551229 0.631438 -0.029019
v 7.547353 0.633542 -0.025429
v 7.558872 0.656279 -0.007946
v 7.561075 0.655526 -0.011198
v 7.542673 0.640338 -0.013677
v 7.566297 0.648682 -0.022045
v 7.561535 0.638225 -0.029793
v 7.563156 0.654491 -0.014046
v 7.562729 0.656055 -0.010380
v 7.562520 0.654138 -0.014608
v 7.547914 0.639273 -0.022226
v 7.543520 0.637777 -0.017855
v 7.567138 0.645535 -0.024997
v 7.565077 0.642192 -0.027638
v 7.562328 0.642358 -0.027385
v 7.563960 0.654733 -0.013649
v 7.545273 0.635431 -0.021966
v 7.541266 0.634078 -0.016625
v 7.540467 0.636984 -0.012005
v 7.567825 0.642358 -0.027385
v 7.565077 0.638023 -0.030143
v 7.564518 0.654799 -0.013575
v 7.543294 0.631305 -0.021101
v 7.539630 0.630351 -0.015183
v 7.540297 0.639577 -0.007985
v 7.568619 0.638225 -0.029793
v 7.570191 0.642704 -0.026845
v 7.565077 0.633965 -0.031868
v 7.560864 0.634214 -0.031461
v 7.545673 0.629060 -0.024842
v 7.538473 0.636441 -0.005912
v 7.540366 0.641401 -0.005123
v 7.542929 0.645555 -0.005341
v 7.568902 0.645799 -0.024562
v 7.556073 0.629977 -0.031445
v 7.560220 0.629353 -0.032468
v 7.549938 0.626673 -0.028664
v 7.538723 0.633581 -0.010228
v 7.546867 0.650225 -0.004237
v 7.571024 0.646395 -0.023611
v 7.567450 0.648787 -0.021879
v 7.555228 0.625089 -0.031243
v 7.538669 0.626567 -0.013847
v 7.537430 0.630081 -0.008637
v 7.549198 0.652838 -0.000773
v 7.571652 0.638658 -0.029053
v 7.572991 0.643497 -0.025523
v 7.566218 0.651239 -0.019184
v 7.538442 0.638476 -0.002849
v 7.536882 0.633339 -0.003910
v 7.552993 0.655686 0.002623
v 7.554752 0.656343 -0.000945
v 7.572885 0.634736 -0.030561
v 7.569289 0.634214 -0.031461
v 7.566910 0.651417 -0.018890
v 7.538661 0.640091 -0.000413
v 7.540689 0.642827 -0.002846
v 7.556901 0.656570 -0.004800
v 7.574080 0.629977 -0.031445
v 7.569933 0.629353 -0.032468
v 7.565077 0.629057 -0.032938
v 7.568893 0.649168 -0.021283
v 7.541164 0.644274 -0.000621
v 7.544234 0.648159 -0.001317
v 7.560225 0.657590 -0.003211
v 7.561398 0.657069 -0.006767
v 7.559765 0.624400 -0.032333
v 7.572742 0.647314 -0.022122
v 7.546821 0.651231 0.002710
v 7.563107 0.657395 -0.006221
v 7.563879 0.656191 -0.010191
v 7.554681 0.620481 -0.030528
v 7.551458 0.621249 -0.029283
v 7.575261 0.644673 -0.023505
v 7.575204 0.639682 -0.027284
v 7.551167 0.654587 0.006719
v 7.565077 0.657468 -0.006222
v 7.565077 0.656286 -0.010044
v 7.565077 0.654851 -0.013495
v 7.546893 0.623127 -0.026318
v 7.549129 0.622120 -0.027853
v 7.556928 0.656711 0.009445
v 7.557980 0.657382 0.004886
v 7.566274 0.656191 -0.010191
v 7.565636 0.654799 -0.013575
v 7.544579 0.624695 -0.023887
v 7.551278 0.617026 -0.028344
v 7.548770 0.617971 -0.026879
v 7.558998 0.657678 0.000973
v 7.567423 0.656035 -0.010372
v 7.566194 0.654733 -0.013649
v 7.541951 0.627227 -0.019930
v 7.543887 0.620775 -0.022701
v 7.554657 0.616253 -0.029599
v 7.566998 0.654491 -0.014046
v 7.541143 0.623349 -0.018709
v 7.546390 0.619095 -0.025228
v 7.546253 0.615154 -0.024092
v 7.543620 0.616825 -0.021559
v 7.559470 0.619778 -0.031637
v 7.559473 0.615663 -0.030653
v 7.562524 0.657958 -0.002753
v 7.540699 0.619331 -0.017595
v 7.548722 0.613999 -0.025791
v 7.543591 0.612427 -0.020448
v 7.546267 0.610932 -0.023020
v 7.538037 0.622581 -0.012595
v 7.565077 0.658117 -0.002578
v 7.561889 0.658106 0.001522
v 7.540537 0.614726 -0.016612
v 7.537709 0.617962 -0.011493
v 7.543666 0.608260 -0.019562
v 7.546240 0.607127 -0.022323
v 7.536491 0.626403 -0.007023
v 7.567047 0.657395 -0.006221
v 7.561362 0.657862 0.005557
v 7.540586 0.610178 -0.015967
v 7.546077 0.604194 -0.022034
v 7.543629 0.604950 -0.018885
v 7.548882 0.606326 -0.024405
v 7.548742 0.603708 -0.024592
v 7.568756 0.657069 -0.006767
v 7.560818 0.657237 0.010286
v 7.565077 0.658014 0.005815
v 7.545928 0.601249 -0.021799
v 7.543733 0.601478 -0.018190
v 7.548835 0.609898 -0.024826
v 7.552052 0.602956 -0.026451
v 7.548540 0.601147 -0.024848
v 7.569079 0.655526 -0.011198
v 7.565077 0.658270 0.001730
v 7.545712 0.598808 -0.022024
v 7.548093 0.598816 -0.025126
v 7.551327 0.613027 -0.027285
v 7.552234 0.600366 -0.026640
v 7.551753 0.598151 -0.026764
v 7.570392 0.654801 -0.012388
v 7.571281 0.656279 -0.007946
v 7.567634 0.654138 -0.014608
v 7.554762 0.612283 -0.028560
v 7.551594 0.609010 -0.026449
v 7.571316 0.654040 -0.013566
v 7.573312 0.655071 -0.009786
v 7.570130 0.657549 -0.003209
v 7.568104 0.653755 -0.015164
v 7.559544 0.611824 -0.029617
v 7.555106 0.608352 -0.027818
v 7.551848 0.605533 -0.026185
v 7.555492 0.604886 -0.027487
v 7.575938 0.654936 -0.007153
v 7.574654 0.653857 -0.011601
v 7.567765 0.657931 -0.002751
v 7.559769 0.608035 -0.028926
v 7.555953 0.602263 -0.027557
v 7.577655 0.653262 -0.009510
v 7.575434 0.652655 -0.013395
v 7.571806 0.653272 -0.014774
v 7.573287 0.656563 -0.004800
v 7.568538 0.658035 0.001522
v 7.568326 0.653370 -0.015758
v 7.571891 0.652375 -0.016216
v 7.571562 0.657573 0.000971
v 7.575470 0.656325 -0.000946
v 7.578725 0.654085 -0.003842
v 7.580799 0.651893 -0.006795
v 7.556427 0.599683 -0.027617
v 7.577279 0.655645 0.002605
v 7.580959 0.652837 -0.000776
v 7.583286 0.650225 -0.004237
v 7.578650 0.651666 -0.011868
v 7.581982 0.649915 -0.009778
v 7.560345 0.602284 -0.028700
v 7.569188 0.657734 0.005546
v 7.572765 0.657190 0.004866
v 7.583354 0.651220 0.002696
v 7.585919 0.648159 -0.001317
v 7.575682 0.651337 -0.015541
v 7.560032 0.604730 -0.028660
v 7.565077 0.657362 0.010612
v 7.569837 0.657019 0.010240
v 7.578988 0.649884 -0.014654
v 7.575412 0.650347 -0.017226
v 7.571604 0.651762 -0.017291
v 7.565077 0.607949 -0.029551
v 7.565077 0.656051 0.015479
v 7.573984 0.656375 0.009364
v 7.570280 0.655562 0.014994
v 7.579235 0.654467 0.006632
v 7.565077 0.611640 -0.030216
v 7.560400 0.655904 0.015116
v 7.565077 0.654395 0.020138
v 7.574855 0.654762 0.013956
v 7.578247 0.653835 0.012604
v 7.570541 0.653724 0.019546
v 7.575403 0.652717 0.018390
v 7.565077 0.615369 -0.031296
v 7.552633 0.654326 0.012776
v 7.556121 0.655306 0.014149
v 7.579230 0.651706 0.016957
v 7.582352 0.650473 0.015077
v 7.580929 0.652628 0.010864
v 7.575693 0.650442 0.022291
v 7.579821 0.649335 0.020732
v 7.565077 0.619434 -0.032199
v 7.555568 0.653462 0.018741
v 7.583307 0.648057 0.018738
v 7.583386 0.651024 0.008684
v 7.580009 0.646301 0.024180
v 7.565077 0.624067 -0.032865
v 7.570388 0.624400 -0.032333
v 7.570684 0.619778 -0.031637
v 7.560120 0.654179 0.019774
v 7.585480 0.649236 0.006299
v 7.587075 0.647473 0.003937
v 7.574925 0.625089 -0.031243
v 7.575473 0.620481 -0.030528
v 7.570681 0.615663 -0.030653
v 7.565077 0.652363 0.024282
v 7.570674 0.651590 0.023577
v 7.587409 0.647115 0.009916
v 7.580215 0.626673 -0.028664
v 7.578696 0.621249 -0.029283
v 7.575497 0.616253 -0.029599
v 7.570610 0.611824 -0.029617
v 7.570601 0.648621 0.027473
v 7.585115 0.648901 0.012643
v 7.578924 0.631438 -0.029019
v 7.578876 0.617026 -0.028344
v 7.581025 0.622120 -0.027853
v 7.575391 0.612283 -0.028560
v 7.575669 0.647434 0.025973
v 7.586426 0.646525 0.016246
v 7.589024 0.644793 0.013397
v 7.577066 0.635969 -0.028416
v 7.581384 0.617971 -0.026879
v 7.583261 0.623127 -0.026318
v 7.575283 0.644176 0.028825
v 7.587203 0.643559 0.019643
v 7.589147 0.645260 0.007153
v 7.591000 0.642942 0.010327
v 7.583781 0.645026 0.022041
v 7.578065 0.641144 -0.024636
v 7.584480 0.629060 -0.024842
v 7.590355 0.643420 0.004468
v 7.592302 0.641012 0.007272
v 7.588224 0.645797 0.001622
v 7.583860 0.642219 0.024183
v 7.579803 0.643269 0.026648
v 7.582801 0.633542 -0.025429
v 7.588990 0.644274 -0.000621
v 7.587224 0.645555 -0.005341
v 7.587214 0.640860 0.021904
v 7.590091 0.639163 0.019399
v 7.590084 0.641884 0.016885
v 7.570233 0.645165 0.030642
v 7.574542 0.640877 0.030868
v 7.580417 0.637707 -0.025251
v 7.584575 0.647969 -0.007741
v 7.585999 0.637002 0.024276
v 7.592319 0.640033 0.013675
v 7.564947 0.645790 0.031683
v 7.569547 0.641393 0.033001
v 7.579682 0.642483 -0.022123
v 7.576595 0.645766 -0.021605
v 7.588963 0.635275 0.022205
v 7.583901 0.640633 0.024976
v 7.587880 0.633421 0.023405
v 7.593791 0.638054 0.010349
v 7.573813 0.648185 -0.020781
v 7.577810 0.647108 -0.019291
v 7.585104 0.645438 -0.011830
v 7.582434 0.647693 -0.013275
v 7.592552 0.637202 0.016391
v 7.589420 0.629936 0.022315
v 7.574637 0.649297 -0.019040
v 7.570645 0.650441 -0.019380
v 7.582030 0.645994 -0.016019
v 7.587746 0.642673 -0.010031
v 7.594324 0.635088 0.013140
v 7.591396 0.633410 0.019655
v 7.590675 0.626227 0.020867
v 7.578608 0.648557 -0.016846
v 7.589465 0.642827 -0.002846
v 7.589788 0.641401 -0.005123
v 7.595226 0.633033 0.010084
v 7.594396 0.636079 0.007379
v 7.593431 0.631359 0.016587
v 7.593983 0.624959 0.015923
v 7.592020 0.620438 0.018260
v 7.591493 0.640091 -0.000413
v 7.591109 0.641726 0.001981
v 7.592941 0.639140 0.004536
v 7.594689 0.634350 0.004494
v 7.594921 0.629322 0.013293
v 7.594059 0.620009 0.015438
v 7.594124 0.614729 0.013571
v 7.592984 0.614483 0.014838
v 7.593261 0.637368 0.001957
v 7.595595 0.631001 0.007209
v 7.594726 0.632582 0.001641
v 7.593415 0.635596 -0.000637
v 7.595817 0.627364 0.010126
v 7.595315 0.618806 0.012640
v 7.595534 0.623339 0.012524
v 7.593669 0.608650 0.010812
v 7.594823 0.614252 0.011963
v 7.595701 0.628910 0.004334
v 7.596075 0.625136 0.006787
v 7.595977 0.621160 0.008760
v 7.595598 0.617205 0.009706
v 7.594918 0.613173 0.010282
v 7.594453 0.611939 0.008756
v 7.591712 0.638476 -0.002849
v 7.595294 0.626148 0.000522
v 7.595781 0.622277 0.002608
v 7.595977 0.618576 0.004733
v 7.595223 0.615248 0.006730
v 7.591681 0.636441 -0.005912
v 7.593271 0.633339 -0.003910
v 7.589856 0.639577 -0.007985
v 7.594452 0.630097 -0.001854
v 7.594368 0.617761 -0.004036
v 7.593990 0.609082 0.001569
v 7.594251 0.613703 -0.003658
v 7.589686 0.636984 -0.012005
v 7.591431 0.633581 -0.010228
v 7.592723 0.630081 -0.008637
v 7.593662 0.626403 -0.007023
v 7.587481 0.640338 -0.013677
v 7.584739 0.643424 -0.015017
v 7.594117 0.607413 -0.004365
v 7.594406 0.604153 -0.000846
v 7.592572 0.609321 -0.010570
v 7.590524 0.630351 -0.015183
v 7.591485 0.626567 -0.013847
v 7.592117 0.622581 -0.012595
v 7.583807 0.641228 -0.018634
v 7.586634 0.637777 -0.017855
v 7.594215 0.622091 -0.005322
v 7.589010 0.623349 -0.018709
v 7.589455 0.619331 -0.017595
v 7.592445 0.617962 -0.011493
v 7.588887 0.634078 -0.016625
v 7.582240 0.639273 -0.022226
v 7.584880 0.635431 -0.021966
v 7.581120 0.644149 -0.019112
v 7.592543 0.613339 -0.010836
v 7.589616 0.614726 -0.016612
v 7.589567 0.610178 -0.015967
v 7.586860 0.631305 -0.021101
v 7.589525 0.606435 -0.015434
v 7.586487 0.608260 -0.019562
v 7.586525 0.604950 -0.018885
v 7.588202 0.627227 -0.019930
v 7.589397 0.602358 -0.014815
v 7.586421 0.601478 -0.018190
v 7.584076 0.604194 -0.022034
v 7.585575 0.624695 -0.023887
v 7.586266 0.620775 -0.022701
v 7.586533 0.616825 -0.021559
v 7.571240 0.651071 -0.018385
v 7.592442 0.604713 -0.010450
v 7.583764 0.619095 -0.025228
v 7.583901 0.615154 -0.024092
v 7.586563 0.612427 -0.020448
v 7.570033 0.649820 -0.020284
v 7.567768 0.651991 -0.017942
v 7.593110 0.600784 -0.010548
v 7.594580 0.602532 -0.005528
v 7.581431 0.613999 -0.025791
v 7.583887 0.610932 -0.023020
v 7.578827 0.613027 -0.027285
v 7.585968 0.598173 -0.017426
v 7.590070 0.599104 -0.014121
v 7.595402 0.598356 -0.007212
v 7.595275 0.599294 -0.003685
v 7.581318 0.609898 -0.024826
v 7.583914 0.607127 -0.022323
v 7.567463 0.651712 -0.018404
v 7.593201 0.595749 -0.012759
v 7.598188 0.591668 -0.010698
v 7.584226 0.601249 -0.021799
v 7.581411 0.603708 -0.024592
v 7.594630 0.596951 -0.010271
v 7.592078 0.594920 -0.014062
v 7.584442 0.598808 -0.022024
v 7.585450 0.594654 -0.021798
v 7.581271 0.606326 -0.024405
v 7.568056 0.652278 -0.017473
v 7.568360 0.652928 -0.016440
v 7.568218 0.652604 -0.016960
v 7.584654 0.595970 -0.023480
v 7.582061 0.598816 -0.025126
v 7.584904 0.591135 -0.026166
v 7.578559 0.609010 -0.026449
v 7.578305 0.605533 -0.026185
v 7.582899 0.596273 -0.025406
v 7.581614 0.601147 -0.024848
v 7.580802 0.595601 -0.026635
v 7.579055 0.594019 -0.026861
v 7.578400 0.598151 -0.026764
v 7.577919 0.600366 -0.026640
v 7.578102 0.602956 -0.026451
v 7.573214 0.596918 -0.027538
v 7.575047 0.608352 -0.027818
v 7.573727 0.599683 -0.027617
v 7.574201 0.602263 -0.027557
v 7.569145 0.592814 -0.030416
v 7.567433 0.594126 -0.030694
v 7.568943 0.597868 -0.029077
v 7.569486 0.599988 -0.028713
v 7.570385 0.608035 -0.028926
v 7.574662 0.604886 -0.027487
v 7.569808 0.602284 -0.028700
v 7.565077 0.588708 -0.033298
v 7.565077 0.598180 -0.029620
v 7.565077 0.594589 -0.030848
v 7.565077 0.600399 -0.029260
v 7.565077 0.602465 -0.029298
v 7.570122 0.604730 -0.028660
v 7.565077 0.604763 -0.029317
v 7.562720 0.594126 -0.030694
v 7.561009 0.592814 -0.030416
v 7.561211 0.597868 -0.029077
v 7.560667 0.599988 -0.028713
v 7.556939 0.596918 -0.027538
v 7.551099 0.594019 -0.026861
v 7.549351 0.595601 -0.026635
v 7.545250 0.591135 -0.026166
v 7.547255 0.596273 -0.025406
v 7.545499 0.595970 -0.023480
v 7.544703 0.594654 -0.021798
v 7.544186 0.598173 -0.017426
v 7.540756 0.602358 -0.014815
v 7.540084 0.599104 -0.014121
v 7.536952 0.595749 -0.012759
v 7.538075 0.594920 -0.014062
v 7.540629 0.606435 -0.015434
v 7.537044 0.600784 -0.010548
v 7.537712 0.604713 -0.010450
v 7.537581 0.609321 -0.010570
v 7.531965 0.591668 -0.010698
v 7.535524 0.596951 -0.010271
v 7.537610 0.613339 -0.010836
v 7.534751 0.598356 -0.007212
v 7.535573 0.602532 -0.005528
v 7.536036 0.607413 -0.004365
v 7.535903 0.613703 -0.003658
v 7.535786 0.617761 -0.004036
v 7.534879 0.599294 -0.003685
v 7.535747 0.604153 -0.000846
v 7.536163 0.609082 0.001569
v 7.534176 0.618576 0.004733
v 7.534860 0.626148 0.000522
v 7.535938 0.622091 -0.005322
v 7.534373 0.622277 0.002608
v 7.534930 0.615248 0.006730
v 7.534555 0.617205 0.009706
v 7.534176 0.621160 0.008760
v 7.534079 0.625136 0.006787
v 7.535701 0.630097 -0.001854
v 7.534452 0.628910 0.004334
v 7.535428 0.632582 0.001641
v 7.535701 0.611939 0.008756
v 7.534619 0.623339 0.012524
v 7.534839 0.618806 0.012640
v 7.535235 0.613173 0.010282
v 7.534337 0.627364 0.010126
v 7.534559 0.631001 0.007209
v 7.536738 0.635596 -0.000637
v 7.535465 0.634350 0.004494
v 7.536485 0.608650 0.010812
v 7.536170 0.624959 0.015923
v 7.536094 0.620009 0.015438
v 7.535330 0.614252 0.011963
v 7.536030 0.614729 0.013571
v 7.535233 0.629322 0.013293
v 7.534927 0.633033 0.010084
v 7.536893 0.637368 0.001957
v 7.537168 0.614839 0.014801
v 7.538105 0.620760 0.017906
v 7.539280 0.626389 0.019992
v 7.536634 0.631231 0.016632
v 7.535871 0.635054 0.013300
v 7.535758 0.636079 0.007379
v 7.536503 0.638033 0.010418
v 7.537212 0.639140 0.004536
v 7.539044 0.641726 0.001981
v 7.541358 0.626637 0.023719
v 7.539915 0.630091 0.023442
v 7.538449 0.633372 0.020574
v 7.537598 0.637128 0.017197
v 7.537889 0.640165 0.013989
v 7.537917 0.640999 0.007297
v 7.539155 0.643052 0.010420
v 7.539763 0.643447 0.004470
v 7.541916 0.645807 0.001620
v 7.542733 0.629258 0.027592
v 7.543640 0.626964 0.027165
v 7.540149 0.639145 0.021091
v 7.540867 0.635508 0.024434
v 7.540150 0.642280 0.017610
v 7.541158 0.645154 0.013641
v 7.540955 0.645322 0.007170
v 7.543068 0.647483 0.003936
v 7.546431 0.627454 0.029725
v 7.543391 0.644199 0.020773
v 7.543453 0.640978 0.024299
v 7.544115 0.647135 0.016656
v 7.542774 0.647292 0.009968
v 7.544721 0.649285 0.006314
v 7.546982 0.651185 0.008740
v 7.545490 0.630409 0.030066
v 7.549485 0.628171 0.031641
v 7.547221 0.642492 0.026832
v 7.543976 0.637281 0.027456
v 7.545372 0.649278 0.012736
v 7.547607 0.648847 0.019263
v 7.548465 0.651064 0.015232
v 7.549678 0.652945 0.010975
v 7.541817 0.632158 0.026881
v 7.544631 0.633743 0.029533
v 7.547569 0.638659 0.029725
v 7.548029 0.634961 0.031467
v 7.551764 0.652464 0.017241
v 7.551239 0.650217 0.021335
v 7.551168 0.643655 0.028792
v 7.551418 0.639714 0.031481
v 7.551695 0.635987 0.032974
v 7.548720 0.631387 0.031895
v 7.555308 0.651219 0.022848
v 7.551065 0.647108 0.025401
v 7.555412 0.644538 0.030203
v 7.547171 0.645815 0.023374
v 7.555518 0.640548 0.032787
v 7.552116 0.632411 0.033359
v 7.555536 0.636883 0.034194
v 7.555310 0.648084 0.026855
v 7.560004 0.652053 0.023913
v 7.552588 0.629180 0.033191
v 7.559786 0.641361 0.033911
v 7.555573 0.633414 0.034663
v 7.555639 0.630304 0.034650
v 7.559468 0.637725 0.035317
v 7.560003 0.649000 0.027948
v 7.565077 0.649388 0.028322
v 7.559951 0.645401 0.031329
v 7.564491 0.641774 0.034224
v 7.559059 0.634322 0.035889
v 7.563860 0.638220 0.035623
v 7.568680 0.638098 0.034301
v 7.563046 0.634927 0.036288
v 7.558774 0.631035 0.035934
v 7.562363 0.631790 0.036401
v 7.567633 0.635046 0.034994
v 7.573524 0.637749 0.032191
v 7.558862 0.627363 0.035287
v 7.566593 0.632214 0.035321
v 7.565482 0.629269 0.035150
v 7.561990 0.628365 0.035704
v 7.556015 0.626286 0.034267
v 7.579283 0.640612 0.028345
v 7.578331 0.637630 0.029853
v 7.571220 0.632414 0.033425
v 7.572377 0.634951 0.032897
v 7.577086 0.634656 0.030843
v 7.568268 0.629359 0.033974
v 7.561762 0.624875 0.034293
v 7.564322 0.626286 0.034289
v 7.556392 0.622230 0.033947
v 7.583123 0.637582 0.026910
v 7.572761 0.628774 0.032602
v 7.575466 0.628789 0.031853
v 7.576307 0.632047 0.031405
v 7.559087 0.623566 0.034143
v 7.581676 0.634349 0.028605
v 7.574308 0.625119 0.031803
v 7.577709 0.628644 0.030713
v 7.580184 0.631781 0.029678
vn 0.0595 -0.9965 0.0586
vn -0.2309 -0.4513 0.8620
vn -0.5277 -0.7830 0.3294
vn -0.2784 -0.5474 0.7892
vn 0.5277 -0.7830 0.3294
vn 0.2309 -0.4513 0.8620
vn 0.2784 -0.5474 0.7892
vn -0.7571 -0.5973 -0.2646
vn -0.5428 -0.5096 0.6675
vn -0.5215 -0.3520 -0.7773
vn -0.5246 -0.3558 -0.7734
vn -0.4956 -0.4516 0.7419
vn -0.4973 -0.4550 0.7387
vn -0.4958 -0.4486 0.7436
vn -0.4947 -0.4386 0.7502
vn -0.2090 -0.9709 0.1169
vn 0.3501 -0.5577 -0.7526
vn -0.3143 -0.7361 -0.5995
vn -0.9139 -0.4009 0.0633
vn -0.3340 -0.8605 -0.3847
vn 0.5099 -0.6604 -0.5512
vn -0.3089 -0.5778 -0.7554
vn -0.8950 -0.0460 -0.4437
vn 0.4468 -0.8320 -0.3288
vn 0.4269 -0.8350 -0.3472
vn 0.5504 -0.6625 0.5081
vn 0.4776 -0.4457 0.7571
vn 0.4967 -0.8359 -0.2336
vn 0.4713 -0.8362 -0.2804
vn 0.4340 -0.8356 -0.3368
vn 0.3891 -0.7090 -0.5882
vn 0.5215 -0.3520 -0.7773
vn 0.5246 -0.3558 -0.7734
vn -0.4281 -0.6583 -0.6192
vn 0.3841 -0.7096 -0.5908
vn 0.4232 -0.6975 -0.5783
vn 0.3483 -0.5506 -0.7586
vn 0.3667 -0.5360 -0.7604
vn 0.3627 -0.5415 -0.7584
vn 0.5179 -0.4919 0.6999
vn 0.7578 -0.5982 -0.2606
vn -0.5137 -0.4773 0.7129
vn -0.3393 -0.4956 0.7996
vn 0.0742 0.0970 0.9925
vn 0.3308 0.0264 0.9433
vn 0.3335 0.1875 0.9239
vn 0.0836 0.2574 0.9627
vn 0.1704 -0.8766 0.4500
vn 0.0757 -0.8828 0.4636
vn -0.0000 -0.6808 0.7324
vn -0.1704 -0.8766 0.4500
vn -0.2804 -0.8681 0.4097
vn -0.3048 -0.6067 0.7342
vn -0.2710 -0.8895 -0.3679
vn 0.9669 -0.2436 0.0765
vn 0.7481 -0.6540 -0.1123
vn 0.0744 -0.9806 0.1816
vn -0.9271 -0.0376 -0.3730
vn -0.9857 -0.0506 -0.1604
vn -0.9771 -0.0291 -0.2109
vn -0.9336 -0.0430 -0.3556
vn -0.2311 0.1064 0.9671
vn -0.2123 0.2759 0.9374
vn 0.3393 -0.4956 0.7996
vn -0.2839 -0.9572 0.0564
vn -0.0757 -0.8828 0.4636
vn 0.3702 -0.9050 -0.2096
vn 0.3048 -0.6067 0.7342
vn 0.2804 -0.8681 0.4097
vn 0.2710 -0.8895 -0.3679
vn -0.7481 -0.6540 -0.1123
vn -0.9669 -0.2436 0.0765
vn -0.0744 -0.9806 0.1816
vn 0.2839 -0.9572 0.0564
vn -0.3702 -0.9050 -0.2096
vn -0.7639 -0.6110 -0.2078
vn -0.0000 -0.9783 0.2071
vn 0.7639 -0.6110 -0.2078
vn -0.5030 0.1884 -0.8435
vn -0.5471 0.0311 -0.8365
vn -0.7266 0.1184 -0.6768
vn -0.6616 0.2729 -0.6984
vn -0.1153 0.8169 -0.5651
vn -0.1202 0.8277 -0.5482
vn -0.0000 0.8446 -0.5353
vn -0.1087 0.8105 -0.5756
vn 0.1843 0.9745 -0.1278
vn 0.3058 0.9347 -0.1811
vn 0.2195 0.9338 -0.2826
vn 0.1376 0.9584 -0.2499
vn -0.8721 0.4880 -0.0347
vn -0.8999 0.4221 -0.1092
vn -0.9478 0.3174 -0.0296
vn -0.9233 0.3777 0.0700
vn 0.6572 0.7326 0.1772
vn 0.5691 0.7735 0.2789
vn 0.5794 0.6992 0.4189
vn 0.6717 0.6711 0.3137
vn -0.1287 0.8362 -0.5330
vn 0.1287 0.8362 -0.5330
vn 0.2446 0.8222 -0.5140
vn 0.2280 0.8036 -0.5498
vn 0.1202 0.8277 -0.5482
vn -0.1006 0.8000 -0.5915
vn 0.1715 0.7475 -0.6417
vn 0.1006 0.8000 -0.5915
vn 0.1087 0.8105 -0.5756
vn 0.1915 0.7655 -0.6142
vn 0.5252 0.6671 -0.5284
vn 0.4987 0.6411 -0.5834
vn 0.3545 0.7218 -0.5945
vn 0.3827 0.7452 -0.5462
vn -0.9632 0.0783 -0.2572
vn -0.9669 0.1426 -0.2116
vn -0.9384 0.2459 -0.2427
vn -0.9455 0.1688 -0.2786
vn 0.3909 0.7806 -0.4877
vn -0.3773 -0.0136 0.9260
vn -0.3534 0.0534 0.9339
vn -0.3378 0.2362 0.9111
vn -0.3901 0.1987 0.8990
vn -0.1287 0.8473 -0.5154
vn 0.1287 0.8473 -0.5154
vn 0.2444 0.8441 -0.4772
vn 0.3809 0.8195 -0.4282
vn 0.6822 0.5520 0.4795
vn 0.7802 0.5102 0.3620
vn 0.7479 0.6346 0.1950
vn 0.1302 0.7312 -0.6696
vn 0.0766 0.7874 -0.6117
vn -0.0766 0.7874 -0.6117
vn -0.3570 0.4896 -0.7955
vn -0.2144 0.4637 -0.8596
vn -0.2658 0.3256 -0.9074
vn -0.4285 0.3686 -0.8249
vn 0.5224 0.7708 -0.3647
vn 0.5362 0.7125 -0.4526
vn 0.1237 0.8613 -0.4928
vn 0.2271 0.8704 -0.4369
vn -0.1237 0.8613 -0.4928
vn 0.0326 0.7157 -0.6976
vn 0.0724 0.7186 -0.6916
vn 0.1141 0.6542 -0.7477
vn 0.0514 0.6474 -0.7604
vn 0.5382 0.8295 -0.1494
vn 0.6113 0.7860 -0.0921
vn 0.6833 0.7136 -0.1546
vn 0.6104 0.7646 -0.2069
vn 0.0407 0.7776 -0.6275
vn 0.3931 0.9159 -0.0808
vn 0.2228 0.9747 -0.0182
vn -0.0407 0.7776 -0.6275
vn 0.6482 0.7044 -0.2891
vn 0.4854 0.8225 -0.2965
vn 0.6592 0.6353 -0.4023
vn 0.4871 0.6082 0.6267
vn 0.4999 0.4642 0.7312
vn 0.5971 0.4227 0.6817
vn 0.5857 0.5776 0.5686
vn -0.2491 0.9667 0.0578
vn -0.2178 0.9757 -0.0235
vn -0.3909 0.9170 -0.0798
vn -0.4551 0.8904 -0.0085
vn -0.2280 0.8036 -0.5498
vn -0.3827 0.7452 -0.5462
vn -0.3909 0.7806 -0.4877
vn -0.2446 0.8222 -0.5140
vn -0.0000 0.6451 -0.7641
vn -0.0514 0.6474 -0.7604
vn -0.0326 0.7157 -0.6976
vn -0.0000 0.7124 -0.7018
vn 0.2690 0.6859 -0.6761
vn 0.3838 0.6114 -0.6920
vn 0.2771 0.5877 -0.7602
vn 0.1967 0.6688 -0.7170
vn 0.7718 -0.0602 -0.6330
vn 0.8069 -0.1055 -0.5812
vn 0.7862 -0.0978 -0.6102
vn 0.8180 -0.0906 -0.5680
vn -0.0198 0.7758 -0.6307
vn 0.0198 0.7758 -0.6307
vn -0.0988 0.9951 0.0016
vn 0.0087 0.9999 0.0135
vn 0.0044 0.9949 -0.1010
vn -0.0909 0.9898 -0.1101
vn -0.6141 0.5599 -0.5563
vn -0.6434 0.5846 -0.4943
vn -0.5252 0.6671 -0.5284
vn -0.4987 0.6411 -0.5834
vn 0.2486 0.8153 0.5229
vn 0.3589 0.7745 0.5209
vn 0.3264 0.8543 0.4046
vn 0.2149 0.8887 0.4049
vn -0.3157 0.1293 -0.9400
vn 0.8999 0.1623 -0.4047
vn 0.8466 0.0692 -0.5277
vn 0.8104 0.1893 -0.5545
vn 0.8550 0.2742 -0.4401
vn -0.3317 0.5810 0.7433
vn -0.3291 0.7002 0.6336
vn -0.4427 0.6754 0.5898
vn -0.4302 0.5630 0.7056
vn 0.3086 -0.1550 -0.9385
vn 0.1804 -0.1413 -0.9734
vn 0.1768 -0.2248 -0.9582
vn 0.3123 -0.2255 -0.9228
vn 0.7266 0.5186 -0.4506
vn 0.7437 0.5691 -0.3507
vn 0.8193 0.4896 -0.2984
vn 0.8098 0.4398 -0.3884
vn 0.7277 0.6442 -0.2354
vn 0.7933 0.5751 -0.1998
vn -0.8185 0.5670 -0.0929
vn -0.7723 0.6348 -0.0247
vn -0.7401 0.6703 -0.0552
vn -0.7800 0.6163 -0.1081
vn 0.6141 0.5599 -0.5563
vn 0.5686 0.5466 -0.6147
vn 0.4529 0.6266 -0.6343
vn 0.4194 0.8748 -0.2425
vn 0.6434 0.5846 -0.4943
vn -0.0000 0.7734 -0.6340
vn 0.6522 0.4692 -0.5954
vn 0.5727 0.4279 -0.6992
vn 0.4889 0.5254 -0.6963
vn -0.8524 0.5011 -0.1492
vn -0.8762 0.4451 -0.1850
vn -0.9155 0.3680 -0.1624
vn 0.6622 0.7479 -0.0464
vn 0.7394 0.6617 -0.1242
vn 0.6940 0.4933 -0.5243
vn -0.5362 0.7125 -0.4526
vn -0.5224 0.7708 -0.3647
vn -0.3809 0.8195 -0.4282
vn 0.3570 0.4896 -0.7955
vn 0.4285 0.3686 -0.8249
vn 0.2658 0.3256 -0.9074
vn 0.2144 0.4637 -0.8596
vn 0.5030 0.1884 -0.8435
vn 0.3157 0.1293 -0.9400
vn 0.6616 0.2729 -0.6984
vn 0.0940 0.9331 -0.3470
vn 0.1436 0.9193 -0.3664
vn 0.0751 0.8942 -0.4413
vn 0.0557 0.9012 -0.4297
vn 0.9835 0.0545 -0.1726
vn 0.9727 0.0091 -0.2320
vn 0.9632 0.0783 -0.2572
vn 0.9669 0.1426 -0.2116
vn 0.7786 0.3985 -0.4848
vn -0.5686 0.5466 -0.6147
vn -0.4529 0.6266 -0.6343
vn 0.1628 0.5685 -0.8064
vn 0.1037 0.4534 -0.8852
vn 0.0763 0.5612 -0.8241
vn 0.1304 0.3060 -0.9430
vn 0.1918 0.8963 -0.3999
vn 0.1039 0.8770 -0.4691
vn -0.2795 0.9477 0.1542
vn -0.5070 0.8598 0.0609
vn -0.5374 0.8303 -0.1479
vn -0.6100 0.7873 -0.0896
vn -0.1039 0.8770 -0.4691
vn -0.0765 0.8934 -0.4427
vn 0.9273 0.3122 -0.2065
vn 0.8950 0.3882 -0.2197
vn 0.8762 0.4451 -0.1850
vn 0.9155 0.3680 -0.1624
vn -0.0000 0.5589 -0.8293
vn 0.2772 0.6989 0.6593
vn 0.3913 0.6499 0.6516
vn -0.0537 0.9007 -0.4312
vn 0.7395 0.3438 -0.5787
vn 0.0358 0.9012 -0.4319
vn -0.0000 0.9051 -0.4251
vn -0.0000 0.9416 -0.3367
vn 0.0522 0.9379 -0.3429
vn 0.8799 0.3465 -0.3250
vn -0.0000 0.4501 -0.8930
vn -0.4228 -0.1737 0.8894
vn -0.4361 -0.0726 0.8970
vn -0.5572 -0.1365 0.8191
vn -0.5235 -0.2633 0.8103
vn 0.1109 0.9938 0.0073
vn 0.0971 0.9896 -0.1065
vn -0.0327 0.9014 -0.4318
vn -0.5304 0.3963 0.7494
vn -0.4128 0.4128 0.8119
vn -0.5534 0.5336 0.6396
vn 0.9196 0.2616 -0.2930
vn 0.4658 0.7353 0.4923
vn 0.8791 0.3986 -0.2613
vn -0.0763 0.5612 -0.8241
vn -0.1628 0.5685 -0.8064
vn -0.1141 0.6542 -0.7477
vn -0.2988 0.8758 0.3791
vn -0.1512 0.9062 0.3949
vn -0.1285 0.9458 0.2984
vn -0.2768 0.9197 0.2783
vn 0.8138 0.5742 -0.0893
vn 0.7811 0.6161 -0.1010
vn 0.7445 0.6658 -0.0488
vn 0.7696 0.6384 -0.0117
vn -0.0000 0.2993 -0.9542
vn -0.1304 0.3060 -0.9430
vn -0.1037 0.4534 -0.8852
vn 0.7266 0.1184 -0.6768
vn 0.5471 0.0311 -0.8365
vn 0.9102 0.3272 -0.2539
vn 0.8658 0.4502 -0.2182
vn -0.0724 0.7186 -0.6916
vn -0.9641 0.2084 -0.1643
vn -0.9273 0.3122 -0.2065
vn 0.1569 0.1024 -0.9823
vn -0.0000 0.0940 -0.9956
vn 0.3361 -0.0349 -0.9412
vn 0.0515 0.7409 0.6696
vn 0.0633 0.6027 0.7954
vn 0.3009 0.5485 0.7801
vn -0.2771 0.5877 -0.7602
vn -0.1967 0.6688 -0.7170
vn -0.1302 0.7312 -0.6696
vn -0.8999 0.1623 -0.4047
vn -0.9196 0.2616 -0.2930
vn -0.8799 0.3465 -0.3250
vn -0.8550 0.2742 -0.4401
vn 0.0410 0.9158 0.3995
vn 0.0454 0.8483 0.5276
vn 0.9206 0.0701 -0.3842
vn 0.9455 0.1688 -0.2786
vn -0.4849 0.1747 0.8570
vn -0.6700 0.3481 0.6557
vn -0.6265 0.1372 0.7673
vn 0.9384 0.2459 -0.2427
vn -0.1715 0.7475 -0.6417
vn 0.0144 0.9950 0.0986
vn -0.1010 0.9912 0.0855
vn 0.8425 0.5088 -0.1771
vn -0.8658 0.4502 -0.2182
vn -0.8425 0.5088 -0.1771
vn -0.7933 0.5751 -0.1998
vn -0.1569 0.1024 -0.9823
vn -0.7870 0.0443 0.6154
vn -0.7222 -0.2212 0.6553
vn 0.8169 0.5579 -0.1464
vn 0.3493 0.8584 -0.3756
vn -0.3188 0.8006 0.5074
vn -0.4475 0.7680 0.4581
vn 0.1731 -0.0728 -0.9822
vn -0.0000 -0.0816 -0.9967
vn -0.2690 0.6859 -0.6761
vn 0.4582 0.8888 -0.0075
vn 0.5129 0.8558 0.0677
vn -0.2007 0.6032 0.7720
vn -0.1938 0.7289 0.6566
vn 0.4684 -0.1123 -0.8764
vn 0.3271 -0.1467 -0.9335
vn -0.4889 0.5254 -0.6963
vn -0.3838 0.6114 -0.6920
vn 0.9896 0.1069 -0.0965
vn 0.9995 0.0312 -0.0109
vn 0.9916 -0.0033 -0.1295
vn 0.2584 0.9636 0.0684
vn 0.2955 0.9389 0.1763
vn 0.0012 0.9724 -0.2334
vn 0.0748 0.9702 -0.2306
vn -0.0719 0.9702 -0.2313
vn 0.7681 0.0099 -0.6402
vn 0.6630 -0.0474 -0.7471
vn -0.4684 -0.1123 -0.8764
vn -0.5688 -0.0965 -0.8168
vn -0.6630 -0.0474 -0.7471
vn -0.2072 0.0200 -0.9781
vn -0.2395 -0.0036 -0.9709
vn -0.2593 -0.0015 -0.9658
vn -0.1886 -0.0157 -0.9819
vn -0.6940 0.4933 -0.5243
vn -0.7786 0.3985 -0.4848
vn -0.8098 0.4398 -0.3884
vn -0.7266 0.5186 -0.4506
vn -0.0476 0.9385 -0.3419
vn 0.6803 -0.1419 -0.7190
vn 0.5817 -0.1765 -0.7940
vn 0.5688 -0.0965 -0.8168
vn -0.6522 0.4692 -0.5954
vn -0.5727 0.4279 -0.6992
vn -0.7470 0.6426 0.1702
vn -0.7095 0.7019 0.0621
vn -0.8253 0.5619 0.0559
vn 0.8625 -0.0142 -0.5058
vn 0.7915 -0.0801 -0.6059
vn 0.6421 0.7619 0.0845
vn 0.7192 0.6903 0.0789
vn 0.6955 0.7183 0.0154
vn -0.6519 0.7030 0.2841
vn -0.6386 0.7531 0.1580
vn -0.6803 -0.1559 -0.7161
vn -0.5803 -0.1571 -0.7991
vn -0.5806 -0.0343 -0.8134
vn -0.7009 -0.0782 -0.7089
vn -0.7862 -0.0978 -0.6102
vn -0.8180 -0.0906 -0.5680
vn -0.8348 -0.0840 -0.5441
vn -0.7703 -0.1089 -0.6283
vn 0.3133 -0.2271 -0.9221
vn 0.1783 -0.2414 -0.9539
vn 0.1794 -0.1777 -0.9676
vn 0.5798 0.2384 -0.7791
vn 0.5924 0.1164 -0.7972
vn 0.8187 0.0144 -0.5741
vn 0.8676 0.1549 -0.4724
vn 0.9295 0.0045 -0.3688
vn 0.8632 -0.0650 -0.5007
vn -0.3123 -0.2255 -0.9228
vn -0.3086 -0.1550 -0.9385
vn -0.4603 -0.1573 -0.8737
vn -0.4691 -0.2196 -0.8554
vn -0.8193 0.4896 -0.2984
vn -0.8791 0.3986 -0.2613
vn 0.7733 -0.1336 -0.6199
vn 0.6803 -0.1559 -0.7161
vn 0.6804 -0.1788 -0.7107
vn 0.7858 -0.1276 -0.6052
vn 0.5803 -0.1571 -0.7991
vn 0.5831 -0.2050 -0.7861
vn 0.7147 0.1678 0.6790
vn 0.8159 0.1121 0.5672
vn 0.8698 0.2766 0.4085
vn 0.7728 0.3307 0.5417
vn -0.8171 0.5566 -0.1499
vn -0.9024 0.0592 0.4269
vn -0.8162 0.2250 0.5322
vn -0.8108 0.3704 0.4531
vn -0.9031 0.2679 0.3356
vn -0.8632 -0.0650 -0.5007
vn -0.9295 0.0045 -0.3688
vn -0.9206 0.0701 -0.3842
vn -0.8625 -0.0142 -0.5058
vn 0.8271 0.2226 -0.5161
vn 0.6854 0.1261 -0.7171
vn 0.8964 0.0459 -0.4408
vn -0.2444 0.8441 -0.4772
vn -0.2271 0.8704 -0.4369
vn 0.2508 0.1015 -0.9627
vn 0.3102 0.0632 -0.9486
vn 0.8348 -0.0840 -0.5441
vn 0.8528 -0.0856 -0.5151
vn 0.9337 -0.0348 -0.3563
vn 0.9336 -0.0430 -0.3556
vn 0.8822 -0.0032 0.4709
vn 0.9634 -0.0024 0.2681
vn 0.9878 0.0627 0.1425
vn 0.9539 0.0766 0.2901
vn 0.7703 -0.1089 -0.6283
vn 0.5806 -0.0343 -0.8134
vn 0.7009 -0.0782 -0.7089
vn 0.5874 0.0558 -0.8074
vn 0.7500 -0.0199 -0.6611
vn 0.0225 0.9788 0.2034
vn 0.1451 0.9677 0.2062
vn 0.1221 0.9880 0.0950
vn 0.3723 0.0476 -0.9269
vn 0.4271 -0.0278 -0.9038
vn 0.2967 0.8964 -0.3293
vn -0.5386 0.8278 0.1573
vn -0.4239 0.8788 0.2191
vn -0.1765 0.8334 0.5238
vn -0.8775 0.4408 0.1889
vn -0.7889 0.5236 0.3218
vn -0.8950 0.3882 -0.2197
vn -0.9102 0.3272 -0.2539
vn -0.2034 0.4502 0.8694
vn -0.3325 0.4283 0.8402
vn -0.1462 0.9185 -0.3675
vn -0.1918 0.8963 -0.3999
vn -0.2967 0.8965 -0.3291
vn -0.2208 0.9336 -0.2823
vn 0.5454 0.8194 0.1761
vn 0.4603 -0.1573 -0.8737
vn 0.4691 -0.2196 -0.8554
vn -0.3493 0.8584 -0.3756
vn -0.9971 -0.0431 0.0620
vn -0.9634 -0.0024 0.2681
vn -0.9878 0.0627 0.1425
vn -0.9995 0.0312 -0.0109
vn 0.2072 0.0200 -0.9781
vn -0.0000 0.0619 -0.9981
vn -0.0000 -0.0093 -1.0000
vn 0.1886 -0.0157 -0.9819
vn -0.9587 0.2646 -0.1041
vn 0.8511 0.2835 -0.4418
vn 0.5758 0.3207 -0.7520
vn -0.4418 0.8350 0.3281
vn -0.4854 0.8225 -0.2965
vn -0.4192 0.8751 -0.2418
vn -0.3050 0.9351 -0.1803
vn 0.3961 0.0483 0.9169
vn 0.4129 0.1533 0.8978
vn 0.7640 0.0454 0.6436
vn 0.6880 0.1003 0.7188
vn -0.6590 0.7508 -0.0445
vn 0.2154 0.7818 -0.5851
vn 0.2893 -0.0498 -0.9559
vn 0.1883 -0.0524 -0.9807
vn -0.7437 0.5691 -0.3507
vn 0.1153 0.8169 -0.5651
vn -0.5595 0.7909 0.2480
vn -0.6320 0.7710 0.0779
vn -0.6104 0.7646 -0.2069
vn 0.2570 0.0613 -0.9645
vn 0.2395 -0.0036 -0.9709
vn -0.6965 -0.3302 0.6370
vn -0.6833 0.7137 -0.1542
vn 0.0754 0.4363 0.8966
vn 0.3213 0.3702 0.8716
vn 0.2593 -0.0015 -0.9658
vn 0.8112 0.5798 0.0759
vn 0.8654 0.4996 -0.0384
vn -0.1883 -0.0524 -0.9807
vn -0.0000 -0.0432 -0.9991
vn -0.0000 -0.1319 -0.9913
vn -0.0000 -0.2260 -0.9741
vn -0.1107 0.9754 0.1907
vn -0.9835 0.0545 -0.1726
vn -0.9896 0.1069 -0.0965
vn -0.0000 -0.2480 -0.9688
vn 0.1793 0.9312 0.3172
vn 0.0325 0.9510 0.3076
vn 0.2982 0.9019 0.3124
vn 0.4283 0.8676 0.2525
vn -0.6870 0.7266 0.0103
vn -0.2570 0.0613 -0.9645
vn -0.2472 0.1792 -0.9523
vn -0.2544 0.3094 -0.9163
vn -0.3621 0.2621 -0.8945
vn 0.9505 0.3083 -0.0391
vn 0.8994 0.4209 -0.1183
vn 0.9225 0.3784 0.0759
vn -0.0000 -0.1848 -0.9828
vn 0.6712 0.3713 0.6416
vn -0.3545 0.7218 -0.5945
vn -0.1794 -0.1777 -0.9676
vn -0.1783 -0.2414 -0.9539
vn 0.4230 0.3209 0.8474
vn 0.4994 0.3418 0.7961
vn 0.4137 0.4985 0.7618
vn -0.1731 -0.0728 -0.9822
vn -0.3361 -0.0349 -0.9412
vn -0.3271 -0.1467 -0.9335
vn -0.6482 0.7044 -0.2891
vn -0.1768 -0.2248 -0.9582
vn -0.1804 -0.1413 -0.9734
vn -0.7395 0.3438 -0.5787
vn 0.8508 0.5038 -0.1492
vn -0.9727 0.0091 -0.2320
vn -0.9337 -0.0348 -0.3563
vn -0.3133 -0.2271 -0.9221
vn -0.4701 -0.2023 -0.8591
vn -0.5817 -0.1765 -0.7940
vn -0.5618 0.6443 0.5188
vn -0.7681 0.0099 -0.6402
vn -0.8466 0.0692 -0.5277
vn -0.8104 0.1893 -0.5545
vn 0.8617 0.4542 0.2261
vn -0.1821 0.9746 -0.1307
vn -0.1373 0.9585 -0.2498
vn -0.7915 -0.0801 -0.6059
vn -0.7500 -0.0199 -0.6611
vn -0.8187 0.0144 -0.5741
vn -0.8069 -0.1055 -0.5812
vn 0.7422 0.4183 -0.5236
vn 0.6317 0.3521 -0.6907
vn -0.6592 0.6353 -0.4023
vn 0.4701 -0.2023 -0.8591
vn -0.0921 0.9333 -0.3471
vn -0.7388 0.6623 -0.1250
vn -0.7277 0.6442 -0.2354
vn 0.6591 0.2380 0.7134
vn -0.5625 0.7353 0.3780
vn 0.6377 0.3365 0.6930
vn 0.3199 0.7008 -0.6377
vn -0.3199 0.7008 -0.6377
vn 0.4464 0.8172 0.3646
vn 0.0641 -0.0763 0.9950
vn -0.2248 -0.0695 0.9719
vn -0.2154 0.7818 -0.5851
vn -0.1915 0.7655 -0.6142
vn -0.9760 0.1878 0.1101
vn -0.9885 0.1512 -0.0007
vn -0.9454 0.0692 0.3184
vn 0.8198 -0.0050 0.5726
vn -0.4271 -0.0278 -0.9038
vn -0.3723 0.0476 -0.9269
vn -0.5874 0.0558 -0.8074
vn -0.9492 0.2192 0.2258
vn 0.8250 0.0128 -0.5650
vn 0.4045 0.0404 0.9136
vn 0.3747 -0.0314 0.9266
vn 0.3710 -0.0711 0.9259
vn 0.4291 -0.0488 0.9020
vn 0.4268 0.0643 0.9021
vn 0.8935 0.0754 0.4427
vn -0.9156 0.0285 0.4010
vn -0.8679 -0.0101 0.4966
vn -0.8562 -0.1181 0.5030
vn -0.1301 -0.1913 0.9729
vn -0.0672 -0.2447 0.9673
vn -0.1300 -0.2190 0.9670
vn -0.2078 -0.1730 0.9627
vn -0.8234 -0.1216 0.5543
vn -0.9482 -0.0952 0.3032
vn 0.7548 -0.2581 0.6031
vn 0.9269 -0.2845 0.2449
vn 0.8153 -0.2341 0.5296
vn 0.9316 -0.1932 0.3080
vn -0.9873 -0.1337 0.0860
vn 0.9740 -0.2149 0.0711
vn 0.9482 -0.0952 0.3032
vn 0.9873 -0.1337 0.0860
vn 0.9683 -0.2435 -0.0558
vn 0.9971 -0.0431 0.0620
vn 0.9885 0.1512 -0.0007
vn 0.9641 0.2084 -0.1643
vn 0.9587 0.2646 -0.1041
vn -0.9916 -0.0033 -0.1295
vn -0.9949 -0.0790 -0.0632
vn -0.9848 -0.1739 -0.0009
vn 0.9949 -0.0790 -0.0632
vn 0.9981 -0.0541 -0.0305
vn 0.9857 -0.0506 -0.1604
vn -0.9981 -0.0541 -0.0305
vn -0.9908 0.0456 -0.1271
vn -0.9962 0.0876 0.0020
vn -0.7607 -0.1097 0.6398
vn 0.5169 0.2549 0.8172
vn 0.4743 0.2148 0.8537
vn -0.6707 0.6006 0.4354
vn -0.6791 0.4762 0.5587
vn -0.8528 -0.0856 -0.5151
vn 0.3173 -0.1067 0.9423
vn 0.3823 -0.2082 0.9003
vn -0.7733 -0.1336 -0.6199
vn -0.6804 -0.1788 -0.7107
vn -0.7858 -0.1276 -0.6052
vn -0.7718 -0.0602 -0.6330
vn -0.8964 0.0459 -0.4408
vn -0.8271 0.2226 -0.5161
vn -0.9641 0.1958 -0.1792
vn -0.6803 -0.1419 -0.7190
vn 0.4642 0.1414 0.8744
vn 0.4319 0.1179 0.8942
vn -0.6854 0.1261 -0.7171
vn 0.9908 0.0456 -0.1271
vn 0.9962 0.0876 0.0020
vn 0.9641 0.1958 -0.1792
vn -0.5831 -0.2050 -0.7861
vn -0.8250 0.0128 -0.5650
vn 0.8998 0.3728 -0.2268
vn 0.9722 0.2328 -0.0268
vn -0.6317 0.3521 -0.6907
vn -0.7422 0.4183 -0.5236
vn 0.7328 0.4764 -0.4858
vn 0.5879 0.3503 -0.7292
vn -0.8676 0.1549 -0.4724
vn 0.9366 0.2093 -0.2809
vn -0.5798 0.2384 -0.7791
vn -0.5924 0.1164 -0.7972
vn -0.5758 0.3207 -0.7520
vn -0.8511 0.2835 -0.4418
vn 0.6201 0.2524 -0.7428
vn 0.9410 0.2205 0.2567
vn -0.2549 0.1522 -0.9549
vn -0.2508 0.1015 -0.9627
vn 0.2549 0.1522 -0.9549
vn 0.1176 0.0287 -0.9927
vn -0.3102 0.0632 -0.9486
vn -0.3790 -0.1004 0.9199
vn -0.3507 -0.0676 0.9340
vn -0.8057 -0.3233 0.4962
vn -0.8660 -0.1412 0.4797
vn -0.2893 -0.0498 -0.9559
vn 0.3621 0.2621 -0.8945
vn -0.0000 0.3435 -0.9392
vn 0.2544 0.3094 -0.9163
vn -0.0000 0.3576 -0.9339
vn -0.0000 0.2397 -0.9709
vn 0.2472 0.1792 -0.9523
vn -0.1176 0.0287 -0.9927
vn -0.6201 0.2524 -0.7428
vn -0.9366 0.2093 -0.2809
vn 0.9773 0.1806 0.1110
vn -0.5879 0.3503 -0.7292
vn 0.9271 -0.0376 -0.3730
vn -0.7328 0.4764 -0.4858
vn 0.0990 -0.2712 0.9574
vn 0.3041 -0.2782 0.9111
vn -0.8998 0.3728 -0.2268
vn 0.9771 -0.0291 -0.2109
vn -0.9722 0.2328 -0.0268
vn -0.9316 -0.1932 0.3080
vn -0.7898 -0.2483 0.5608
vn 0.9848 -0.1739 -0.0009
vn -0.9740 -0.2149 0.0711
vn -0.9683 -0.2435 -0.0558
vn -0.9244 -0.2889 0.2490
vn 0.8456 -0.1128 0.5217
vn -0.7016 -0.2690 0.6598
vn 0.8035 -0.1059 0.5858
vn 0.1007 -0.3430 0.9339
vn 0.2265 -0.3505 0.9087
vn 0.2658 -0.1016 0.9586
vn 0.3398 -0.1199 0.9328
vt 0.000000 0.000000
s 1
f 1/1/1 2/1/2 3/1/3
f 1/1/1 4/1/4 2/1/2
f 1/1/1 5/1/5 6/1/6
f 1/1/1 6/1/6 7/1/7
f 1/1/1 8/1/8 9/1/9
f 1/1/1 3/1/3 10/1/10
f 1/1/1 10/1/10 11/1/11
f 1/1/1 11/1/11 8/1/8
f 1/1/1 12/1/12 13/1/13
f 1/1/1 13/1/13 14/1/14
f 1/1/1 14/1/14 15/1/15
f 1/1/1 15/1/15 16/1/16
f 1/1/1 16/1/16 17/1/17
f 1/1/1 18/1/18 19/1/19
f 1/1/1 19/1/19 20/1/20
f 1/1/1 20/1/20 21/1/21
f 1/1/1 22/1/22 23/1/23
f 1/1/1 24/1/24 25/1/25
f 1/1/1 26/1/26 27/1/27
f 1/1/1 28/1/28 26/1/26
f 1/1/1 29/1/29 28/1/28
f 1/1/1 30/1/30 29/1/29
f 1/1/1 25/1/25 30/1/30
f 1/1/1 31/1/31 22/1/22
f 1/1/1 32/1/32 5/1/5
f 1/1/1 33/1/33 32/1/32
f 1/1/1 34/1/34 24/1/24
f 1/1/1 23/1/23 34/1/34
f 1/1/1 35/1/35 31/1/31
f 1/1/1 36/1/36 35/1/35
f 1/1/1 21/1/21 36/1/36
f 1/1/1 37/1/37 18/1/18
f 1/1/1 38/1/38 37/1/37
f 1/1/1 17/1/17 39/1/39
f 1/1/1 39/1/39 38/1/38
f 1/1/1 27/1/27 40/1/40
f 1/1/1 40/1/40 41/1/41
f 1/1/1 41/1/41 33/1/33
f 1/1/1 42/1/42 12/1/12
f 1/1/1 9/1/9 42/1/42
f 4/1/4 43/1/43 2/1/2
f 685/1/44 688/1/45 684/1/46 683/1/47
f 7/1/7 55/1/48 53/1/49 46/1/50
f 44/1/51 48/1/52 47/1/53
f 44/1/51 49/1/54 48/1/52
f 44/1/51 50/1/55 51/1/56
f 44/1/51 51/1/56 49/1/54
f 44/1/51 52/1/57 50/1/55
f 574/1/58 581/1/59 582/1/60 577/1/61
f 682/1/62 685/1/44 683/1/47 677/1/63
f 44/1/51 47/1/53 43/1/43 4/1/4
f 7/1/7 6/1/6 56/1/64
f 54/1/65 45/1/66 57/1/67
f 58/1/68 59/1/69 55/1/48
f 55/1/48 59/1/69 60/1/70
f 55/1/48 60/1/70 61/1/71
f 55/1/48 61/1/71 62/1/72
f 45/1/66 54/1/65 52/1/57 44/1/51
f 55/1/48 62/1/72 63/1/73
f 64/1/74 65/1/75 53/1/49
f 53/1/49 65/1/75 66/1/76
f 53/1/49 66/1/76 67/1/77
f 45/1/66 68/1/78 57/1/67
f 67/1/77 68/1/78 45/1/66
f 134/1/79 170/1/80 163/1/81 135/1/82
f 69/1/83 71/1/84 72/1/85
f 69/1/83 72/1/85 73/1/86
f 277/1/87 291/1/88 271/1/89 255/1/90
f 627/1/91 620/1/92 618/1/93 619/1/94
f 359/1/95 333/1/96 339/1/97 365/1/98
f 71/1/84 77/1/99 72/1/85
f 523/1/100 294/1/101 316/1/102 524/1/103
f 73/1/86 72/1/85 79/1/104
f 499/1/105 512/1/106 500/1/107 409/1/108
f 415/1/109 403/1/110 408/1/111 315/1/112
f 247/1/113 594/1/114 183/1/115 177/1/116
f 316/1/102 294/1/101 310/1/117 315/1/112
f 669/1/118 675/1/119 670/1/120 662/1/121
f 77/1/99 86/1/122 72/1/85
f 523/1/100 293/1/123 290/1/124 294/1/101
f 289/1/125 310/1/117 294/1/101 290/1/124
f 371/1/126 387/1/127 366/1/128 365/1/98
f 195/1/129 188/1/130 512/1/106 499/1/105
f 79/1/104 72/1/85 90/1/131
f 115/1/132 114/1/133 133/1/134 128/1/135
f 303/1/136 314/1/137 310/1/117 289/1/125
f 290/1/124 293/1/123 278/1/138 275/1/139
f 86/1/122 94/1/140 72/1/85
f 139/1/141 174/1/142 167/1/143 146/1/144
f 297/1/145 301/1/146 302/1/147 298/1/148
f 188/1/130 195/1/129 174/1/142 181/1/149
f 296/1/150 291/1/88 277/1/87 295/1/151
f 90/1/131 72/1/85 100/1/152
f 304/1/153 303/1/136 288/1/154 298/1/148
f 405/1/155 314/1/137 303/1/136 304/1/153
f 341/1/156 381/1/157 380/1/158 374/1/159
f 216/1/160 222/1/161 185/1/162 184/1/163
f 74/1/164 81/1/165 84/1/166 78/1/167
f 121/1/168 112/1/169 113/1/170 120/1/171
f 201/1/172 207/1/173 180/1/174 173/1/175
f 488/1/176 489/1/177 486/1/178 484/1/179
f 100/1/152 72/1/85 109/1/180
f 132/1/181 181/1/149 174/1/142 139/1/141
f 242/1/182 264/1/183 241/1/184 235/1/185
f 124/1/186 110/1/187 91/1/188 82/1/189
f 352/1/190 335/1/191 328/1/192 327/1/193
f 133/1/134 168/1/194 134/1/79 128/1/135
f 467/1/195 487/1/196 483/1/197 476/1/198
f 666/1/199 671/1/200 665/1/201 660/1/202
f 538/1/203 545/1/204 357/1/205 363/1/206
f 463/1/207 404/1/208 411/1/209 462/1/210
f 411/1/209 404/1/208 391/1/211 384/1/212
f 629/1/213 637/1/214 638/1/215 630/1/216
f 139/1/141 146/1/144 121/1/168 120/1/171
f 403/1/110 479/1/217 396/1/218 397/1/219
f 291/1/88 296/1/150 297/1/145 283/1/220
f 479/1/217 403/1/110 415/1/109 410/1/221
f 410/1/221 415/1/109 314/1/137 405/1/155
f 109/1/180 72/1/85 126/1/222
f 477/1/223 390/1/224 375/1/225 396/1/218
f 621/1/226 189/1/227 612/1/228 620/1/92
f 301/1/146 308/1/229 309/1/230 302/1/147
f 470/1/231 479/1/217 410/1/221 463/1/207
f 84/1/166 92/1/232 93/1/233 88/1/234
f 109/1/180 126/1/222 120/1/171 113/1/170
f 126/1/222 72/1/85 132/1/181
f 208/1/235 367/1/236 186/1/237 179/1/238
f 186/1/237 367/1/236 360/1/239 192/1/240
f 367/1/236 390/1/224 382/1/241 360/1/239
f 223/1/242 263/1/243 228/1/244 224/1/245
f 447/1/246 472/1/247 461/1/248 454/1/249
f 462/1/210 471/1/250 470/1/231 463/1/207
f 122/1/251 124/1/186 82/1/189 116/1/252
f 160/1/253 179/1/238 159/1/254 153/1/255
f 186/1/237 187/1/256 159/1/254 179/1/238
f 270/1/257 272/1/258 228/1/244 263/1/243
f 215/1/259 216/1/160 184/1/163 209/1/260
f 184/1/163 185/1/162 130/1/261 178/1/262
f 143/1/263 141/1/264 72/1/85
f 143/1/263 72/1/85 94/1/140
f 434/1/265 446/1/266 423/1/267 431/1/268
f 146/1/144 153/1/255 147/1/269 121/1/168
f 358/1/270 364/1/271 335/1/191 352/1/190
f 141/1/264 149/1/272 72/1/85
f 478/1/273 382/1/241 390/1/224 477/1/223
f 218/1/274 212/1/275 211/1/276 217/1/277
f 458/1/278 476/1/198 471/1/250 462/1/210
f 153/1/255 159/1/254 154/1/279 147/1/269
f 647/1/280 663/1/281 646/1/282 639/1/283
f 241/1/184 264/1/183 292/1/284 285/1/285
f 149/1/272 155/1/286 72/1/85
f 656/1/287 661/1/288 660/1/202 648/1/289
f 467/1/195 476/1/198 458/1/278 459/1/290
f 335/1/191 364/1/271 341/1/156 336/1/291
f 462/1/210 411/1/209 453/1/292 458/1/278
f 112/1/169 148/1/293 106/1/294 105/1/295
f 338/1/296 345/1/297 323/1/298 331/1/299
f 377/1/300 379/1/301 347/1/302 372/1/303
f 161/1/304 162/1/305 140/1/306 154/1/279
f 360/1/239 382/1/241 376/1/307 354/1/308
f 451/1/309 459/1/290 458/1/278 453/1/292
f 417/1/310 453/1/292 411/1/209 384/1/212
f 451/1/309 453/1/292 417/1/310 446/1/266
f 113/1/170 112/1/169 105/1/295 98/1/311
f 594/1/114 596/1/312 603/1/313 183/1/115
f 193/1/314 194/1/315 161/1/304 187/1/256
f 192/1/240 360/1/239 354/1/308 348/1/316
f 679/1/317 394/1/318 388/1/319 358/1/270
f 106/1/294 107/1/320 99/1/321 105/1/295
f 98/1/311 105/1/295 99/1/321 89/1/322
f 157/1/323 171/1/324 152/1/325 151/1/326
f 324/1/327 351/1/328 352/1/190 327/1/193
f 468/1/329 467/1/195 459/1/290 460/1/330
f 90/1/131 100/1/152 98/1/311 89/1/322
f 657/1/331 656/1/287 649/1/332 655/1/333
f 114/1/133 115/1/132 107/1/320 106/1/294
f 132/1/181 72/1/85 181/1/149
f 446/1/266 434/1/265 452/1/334 451/1/309
f 375/1/225 207/1/173 397/1/219 396/1/218
f 79/1/104 90/1/131 89/1/322 80/1/335
f 257/1/336 264/1/183 242/1/182 249/1/337
f 207/1/173 375/1/225 208/1/235 180/1/174
f 181/1/149 72/1/85 188/1/130
f 423/1/267 446/1/266 417/1/310 416/1/338
f 165/1/339 190/1/340 166/1/341
f 162/1/305 169/1/342 168/1/194 133/1/134
f 655/1/333 654/1/343 631/1/344 646/1/282
f 383/1/345 416/1/338 384/1/212 309/1/230
f 288/1/154 303/1/136 289/1/125 284/1/346
f 665/1/201 671/1/200 664/1/347 659/1/348
f 194/1/315 193/1/314 343/1/349 342/1/350
f 275/1/139 278/1/138 272/1/258 270/1/257
f 89/1/322 99/1/321 85/1/351 80/1/335
f 300/1/352 321/1/353 308/1/229 301/1/146
f 384/1/212 391/1/211 302/1/147 309/1/230
f 314/1/137 415/1/109 315/1/112 310/1/117
f 666/1/199 680/1/354 678/1/355 671/1/200
f 355/1/356 349/1/357 348/1/316 354/1/308
f 115/1/132 123/1/358 108/1/359 107/1/320
f 440/1/360 441/1/361 448/1/362 447/1/246
f 307/1/363 319/1/364 321/1/353 300/1/352
f 210/1/365 248/1/366 217/1/277 211/1/276
f 235/1/185 241/1/184 210/1/365 203/1/367
f 155/1/286 212/1/275 72/1/85
f 376/1/307 491/1/368 369/1/369 354/1/308
f 170/1/80 206/1/370 214/1/371
f 170/1/80 214/1/371 213/1/372
f 558/1/373 299/1/374 287/1/375 305/1/376
f 339/1/97 374/1/159 371/1/126 365/1/98
f 129/1/377 145/1/378 138/1/379 117/1/380
f 211/1/276 212/1/275 155/1/286 204/1/381
f 212/1/275 218/1/274 72/1/85
f 376/1/307 483/1/197 487/1/196 491/1/368
f 195/1/129 499/1/105 201/1/172 173/1/175
f 369/1/369 496/1/382 368/1/383 362/1/384
f 144/1/385 122/1/251 123/1/358 127/1/386
f 129/1/377 117/1/380 110/1/187 124/1/186
f 218/1/274 224/1/245 72/1/85
f 636/1/387 643/1/388 637/1/214 628/1/389
f 487/1/196 473/1/390 492/1/391 491/1/368
f 340/1/392 359/1/95 353/1/393 346/1/394
f 301/1/146 297/1/145 296/1/150 300/1/352
f 224/1/245 228/1/244 72/1/85
f 642/1/395 650/1/396 643/1/388 636/1/387
f 239/1/397 260/1/398 253/1/399 246/1/400
f 252/1/401 571/1/402 250/1/403 245/1/404
f 349/1/357 356/1/405 350/1/406 344/1/407
f 526/1/408 531/1/409 515/1/410 519/1/411
f 468/1/329 469/1/412 474/1/413 473/1/390
f 273/1/414 280/1/415 274/1/416 267/1/417
f 165/1/339 166/1/341 118/1/418 158/1/419
f 498/1/420 504/1/421 497/1/422 493/1/423
f 504/1/421 510/1/424 503/1/425 497/1/422
f 398/1/426 413/1/427 406/1/428 386/1/429
f 629/1/213 630/1/216 196/1/430 621/1/226
f 277/1/87 285/1/285 292/1/284 295/1/151
f 158/1/419 118/1/418 138/1/379 152/1/325
f 624/1/431 634/1/432 633/1/433 625/1/434
f 347/1/302 379/1/301 309/1/230 308/1/229
f 236/1/435 240/1/436 176/1/437 229/1/438
f 461/1/248 460/1/330 452/1/334 454/1/249
f 501/1/439 507/1/440 488/1/176 495/1/441
f 87/1/442 95/1/443 94/1/140 86/1/122
f 534/1/444 535/1/445 531/1/409 526/1/408
f 482/1/446 481/1/447 475/1/448 480/1/449
f 421/1/450 437/1/451 435/1/452 427/1/453
f 486/1/178 485/1/454 482/1/446 484/1/179
f 521/1/455 510/1/424 504/1/421 511/1/456
f 516/1/457 521/1/455 511/1/456 490/1/458
f 109/1/180 113/1/170 98/1/311 100/1/152
f 312/1/459 313/1/460 306/1/461 257/1/336
f 161/1/304 194/1/315 169/1/342 162/1/305
f 515/1/410 531/1/409 516/1/457 490/1/458
f 489/1/177 515/1/410 490/1/458 486/1/178
f 536/1/462 529/1/463 521/1/455 516/1/457
f 531/1/409 535/1/445 536/1/462 516/1/457
f 271/1/89 291/1/88 283/1/220 276/1/464
f 209/1/260 653/1/465 330/1/466 215/1/259
f 672/1/467 664/1/347 671/1/200 678/1/355
f 636/1/387 628/1/389 626/1/468 635/1/469
f 628/1/389 627/1/91 619/1/94 626/1/468
f 183/1/115 603/1/313 182/1/470 164/1/471
f 670/1/120 677/1/63 674/1/472 668/1/473
f 137/1/474 103/1/475 104/1/476 136/1/477
f 228/1/244 272/1/258 72/1/85
f 333/1/96 359/1/95 340/1/392 334/1/478
f 528/1/479 538/1/203 363/1/206 505/1/480
f 103/1/475 143/1/263 94/1/140 95/1/443
f 104/1/476 103/1/475 95/1/443 96/1/481
f 295/1/151 307/1/363 300/1/352 296/1/150
f 592/1/482 598/1/483 601/1/484 593/1/485
f 272/1/258 278/1/138 72/1/85
f 544/1/486 551/1/487 552/1/488 547/1/489
f 604/1/490 618/1/93 620/1/92 612/1/228
f 510/1/424 521/1/455 529/1/463 528/1/479
f 525/1/491 530/1/492 526/1/408 519/1/411
f 664/1/347 338/1/296 658/1/493 659/1/348
f 97/1/494 131/1/495 104/1/476 96/1/481
f 131/1/495 191/1/496 136/1/477 104/1/476
f 688/1/45 698/1/497 689/1/498 684/1/46
f 407/1/499 413/1/427 398/1/426 400/1/500
f 88/1/234 93/1/233 97/1/494 96/1/481
f 87/1/442 88/1/234 96/1/481 95/1/443
f 209/1/260 184/1/163 178/1/262 202/1/501
f 106/1/294 148/1/293 140/1/306 114/1/133
f 664/1/347 672/1/467 345/1/297 338/1/296
f 278/1/138 293/1/123 72/1/85
f 408/1/111 494/1/502 316/1/102 315/1/112
f 546/1/503 553/1/504 545/1/204 538/1/203
f 117/1/380 138/1/379 118/1/418 111/1/505
f 522/1/506 524/1/103 316/1/102 494/1/502
f 652/1/507 653/1/465 645/1/508 650/1/396
f 130/1/261 131/1/495 97/1/494 125/1/509
f 534/1/444 537/1/510 539/1/511 535/1/445
f 341/1/156 374/1/159 339/1/97 336/1/291
f 639/1/283 646/1/282 631/1/344 632/1/512
f 178/1/262 130/1/261 125/1/509 172/1/513
f 663/1/281 669/1/118 662/1/121 657/1/331
f 394/1/318 681/1/514 395/1/515 388/1/319
f 539/1/511 544/1/486 547/1/489 540/1/516
f 140/1/306 162/1/305 133/1/134 114/1/133
f 174/1/142 195/1/129 173/1/175 167/1/143
f 674/1/472 681/1/514 394/1/318 680/1/354
f 372/1/303 373/1/517 378/1/518 377/1/300
f 356/1/405 363/1/206 357/1/205 350/1/406
f 311/1/519 554/1/520 552/1/488 305/1/376
f 81/1/165 91/1/188 92/1/232 84/1/166
f 276/1/464 284/1/346 275/1/139 270/1/257
f 553/1/504 554/1/520 317/1/521 545/1/204
f 357/1/205 545/1/204 317/1/521 322/1/522
f 193/1/314 192/1/240 348/1/316 343/1/349
f 256/1/523 312/1/459 257/1/336 249/1/337
f 596/1/312 594/1/114 587/1/524 595/1/525
f 451/1/309 452/1/334 460/1/330 459/1/290
f 350/1/406 357/1/205 322/1/522 329/1/526
f 324/1/327 327/1/193 320/1/527 318/1/528
f 662/1/121 661/1/288 656/1/287 657/1/331
f 345/1/297 672/1/467 351/1/328 324/1/327
f 319/1/364 325/1/529 326/1/530
f 645/1/508 209/1/260 202/1/501 644/1/531
f 471/1/250 478/1/273 477/1/223 470/1/231
f 145/1/378 151/1/326 152/1/325 138/1/379
f 256/1/523 323/1/298 318/1/528 312/1/459
f 559/1/532 557/1/533 555/1/534 556/1/535
f 215/1/259 330/1/466 331/1/299
f 419/1/536 425/1/537 378/1/518 401/1/538
f 391/1/211 304/1/153 298/1/148 302/1/147
f 257/1/336 306/1/461 292/1/284 264/1/183
f 343/1/349 344/1/407 337/1/539 342/1/350
f 255/1/90 223/1/242 217/1/277 248/1/366
f 241/1/184 285/1/285 248/1/366 210/1/365
f 284/1/346 289/1/125 290/1/124 275/1/139
f 386/1/429 387/1/127 371/1/126 385/1/540
f 334/1/478 340/1/392 321/1/353
f 475/1/448 481/1/447 474/1/413 469/1/412
f 173/1/175 180/1/174 160/1/253 167/1/143
f 82/1/189 91/1/188 81/1/165 75/1/541
f 343/1/349 348/1/316 349/1/357 344/1/407
f 661/1/288 668/1/473 666/1/199 660/1/202
f 233/1/542 337/1/539 329/1/526 234/1/543
f 389/1/544 695/1/545 381/1/157 370/1/546
f 308/1/229 346/1/394 347/1/302
f 169/1/342 200/1/547 175/1/548 168/1/194
f 200/1/547 233/1/542 205/1/549 175/1/548
f 200/1/547 342/1/350 337/1/539 233/1/542
f 101/1/550 125/1/509 97/1/494 93/1/233
f 279/1/551 322/1/522 317/1/521 286/1/552
f 351/1/328 679/1/317 358/1/270 352/1/190
f 127/1/386 135/1/82 150/1/553 144/1/385
f 425/1/537 424/1/554 377/1/300 378/1/518
f 215/1/259 256/1/523 249/1/337 216/1/160
f 582/1/60 588/1/555 244/1/556 577/1/61
f 227/1/557 220/1/558 206/1/370 205/1/549
f 646/1/282 663/1/281 657/1/331 655/1/333
f 227/1/557 234/1/543 279/1/551 273/1/414
f 194/1/315 342/1/350 200/1/547 169/1/342
f 396/1/218 479/1/217 470/1/231 477/1/223
f 377/1/300 424/1/554 383/1/345 379/1/301
f 355/1/356 354/1/308 362/1/384
f 220/1/558 221/1/559 214/1/371 206/1/370
f 220/1/558 227/1/557 273/1/414 267/1/417
f 141/1/264 143/1/263 103/1/475 137/1/474
f 665/1/201 667/1/560 648/1/289 660/1/202
f 362/1/384 354/1/308 369/1/369
f 219/1/561 225/1/562 156/1/563 163/1/81
f 387/1/127 393/1/564 373/1/517 366/1/128
f 492/1/391 496/1/382 369/1/369 491/1/368
f 198/1/565 199/1/566 136/1/477 191/1/496
f 226/1/567 229/1/438 225/1/562 219/1/561
f 251/1/568 258/1/569 259/1/570 252/1/401
f 123/1/358 115/1/132 128/1/135 127/1/386
f 501/1/439 517/1/571 513/1/572 507/1/440
f 93/1/233 92/1/232 102/1/573 101/1/550
f 463/1/207 410/1/221 405/1/155 404/1/208
f 88/1/234 87/1/442 78/1/167 84/1/166
f 132/1/181 139/1/141 120/1/171 126/1/222
f 361/1/574 505/1/480 363/1/206 356/1/405
f 204/1/381 142/1/575 199/1/566 203/1/367
f 379/1/301 383/1/345 309/1/230
f 248/1/366 285/1/285 277/1/87 255/1/90
f 498/1/420 493/1/423 474/1/413 481/1/447
f 166/1/341 197/1/576 172/1/513 119/1/577
f 255/1/90 271/1/89 263/1/243 223/1/242
f 326/1/530 334/1/478 321/1/353 319/1/364
f 528/1/479 529/1/463 546/1/503 538/1/203
f 119/1/577 172/1/513 125/1/509 101/1/550
f 385/1/540 380/1/158 392/1/578
f 386/1/429 406/1/428 393/1/564 387/1/127
f 651/1/579 652/1/507 650/1/396 642/1/395
f 677/1/63 683/1/47 681/1/514 674/1/472
f 234/1/543 227/1/557 205/1/549 233/1/542
f 490/1/458 511/1/456 485/1/454 486/1/178
f 136/1/477 199/1/566 142/1/575 137/1/474
f 123/1/358 122/1/251 116/1/252 108/1/359
f 392/1/578 380/1/158 399/1/580
f 392/1/578 400/1/500 398/1/426
f 207/1/173 201/1/172 402/1/581 397/1/219
f 108/1/359 116/1/252 83/1/582 85/1/351
f 332/1/583 336/1/291 339/1/97 333/1/96
f 83/1/582 116/1/252 82/1/189 75/1/541
f 111/1/505 119/1/577 101/1/550 102/1/573
f 629/1/213 621/1/226 620/1/92 627/1/91
f 511/1/456 504/1/421 498/1/420 485/1/454
f 687/1/584 685/1/44 682/1/62 686/1/585
f 330/1/466 658/1/493 338/1/296 331/1/299
f 75/1/541 81/1/165 74/1/164 70/1/586
f 76/1/587 83/1/582 75/1/541 70/1/586
f 76/1/587 80/1/335 85/1/351 83/1/582
f 110/1/187 117/1/380 111/1/505 102/1/573
f 92/1/232 91/1/188 110/1/187 102/1/573
f 198/1/565 235/1/185 203/1/367 199/1/566
f 611/1/588 602/1/589 601/1/484 610/1/590
f 407/1/499 414/1/591 413/1/427
f 384/1/212 416/1/338 417/1/310
f 281/1/592 261/1/593 254/1/594 253/1/399
f 611/1/588 617/1/595 619/1/94 618/1/93
f 355/1/356 361/1/574 356/1/405 349/1/357
f 506/1/596 519/1/411 515/1/410 489/1/177
f 707/1/597 698/1/497 697/1/598 706/1/599
f 711/1/600 712/1/601 707/1/597 706/1/599
f 189/1/227 621/1/226 196/1/430 190/1/340
f 135/1/82 127/1/386 128/1/135 134/1/79
f 222/1/161 198/1/565 191/1/496 185/1/162
f 611/1/588 618/1/93 604/1/490 602/1/589
f 298/1/148 288/1/154 283/1/220 297/1/145
f 626/1/468 619/1/94 617/1/595 625/1/434
f 420/1/602 421/1/450 427/1/453
f 616/1/603 610/1/590 606/1/604 615/1/605
f 147/1/269 148/1/293 112/1/169 121/1/168
f 602/1/589 604/1/490 596/1/312 595/1/525
f 603/1/313 612/1/228 189/1/227 182/1/470
f 604/1/490 612/1/228 603/1/313 596/1/312
f 606/1/604 610/1/590 601/1/484 598/1/483
f 392/1/578 398/1/426 386/1/429 385/1/540
f 703/1/606 708/1/607 690/1/608 694/1/609
f 607/1/610 606/1/604 598/1/483 599/1/611
f 430/1/612 438/1/613 429/1/614
f 429/1/614 438/1/613 439/1/615
f 602/1/589 595/1/525 593/1/485 601/1/484
f 147/1/269 154/1/279 140/1/306 148/1/293
f 591/1/616 599/1/611 598/1/483 592/1/482
f 438/1/613 444/1/617 439/1/615
f 436/1/618 439/1/615 444/1/617
f 436/1/618 444/1/617 443/1/619
f 438/1/613 445/1/620 444/1/617
f 443/1/619 442/1/621 437/1/451 436/1/618
f 432/1/622 440/1/360 433/1/623 426/1/624
f 587/1/524 589/1/625 593/1/485 595/1/525
f 593/1/485 589/1/625 586/1/626 592/1/482
f 591/1/616 592/1/482 586/1/626 590/1/627
f 152/1/325 171/1/324 164/1/471 158/1/419
f 164/1/471 182/1/470 165/1/339 158/1/419
f 320/1/527 325/1/529 319/1/364 313/1/460
f 681/1/514 683/1/47 684/1/46 395/1/515
f 582/1/60 589/1/625 587/1/524 588/1/555
f 449/1/628 456/1/629 457/1/630
f 192/1/240 193/1/314 187/1/256 186/1/237
f 177/1/116 183/1/115 164/1/471 171/1/324
f 478/1/273 483/1/197 376/1/307 382/1/241
f 587/1/524 594/1/114 247/1/113 588/1/555
f 313/1/460 319/1/364 307/1/363 306/1/461
f 328/1/192 335/1/191 336/1/291 332/1/583
f 585/1/631 581/1/59 580/1/632 584/1/633
f 614/1/634 615/1/605 606/1/604 607/1/610
f 704/1/635 399/1/580 695/1/545 696/1/636
f 146/1/144 167/1/143 160/1/253 153/1/255
f 648/1/289 667/1/560 640/1/637 641/1/638
f 240/1/436 247/1/113 177/1/116 176/1/437
f 643/1/388 644/1/531 638/1/215 637/1/214
f 404/1/208 405/1/155 304/1/153 391/1/211
f 159/1/254 187/1/256 161/1/304 154/1/279
f 229/1/438 176/1/437 157/1/323 225/1/562
f 473/1/390 474/1/413 493/1/423 492/1/391
f 244/1/556 588/1/555 247/1/113 240/1/436
f 236/1/435 243/1/639 244/1/556 240/1/436
f 540/1/516 546/1/503 529/1/463 536/1/462
f 144/1/385 150/1/553 145/1/378 129/1/377
f 122/1/251 144/1/385 129/1/377 124/1/186
f 172/1/513 197/1/576 202/1/501 178/1/262
f 150/1/553 156/1/563 151/1/326 145/1/378
f 375/1/225 390/1/224 367/1/236 208/1/235
f 691/1/640 700/1/641 697/1/598 688/1/45
f 135/1/82 163/1/81 156/1/563 150/1/553
f 156/1/563 225/1/562 157/1/323 151/1/326
f 577/1/61 250/1/403 571/1/402 574/1/58
f 245/1/404 250/1/403 243/1/639 238/1/642
f 231/1/643 239/1/397 238/1/642 232/1/644
f 567/1/645 571/1/402 252/1/401 259/1/570
f 580/1/632 573/1/646 572/1/647 579/1/648
f 251/1/568 252/1/401 245/1/404 246/1/400
f 366/1/128 353/1/393 359/1/95 365/1/98
f 409/1/108 494/1/502 408/1/111 402/1/581
f 213/1/372 230/1/649 226/1/567 219/1/561
f 271/1/89 276/1/464 270/1/257 263/1/243
f 232/1/644 236/1/435 229/1/438 226/1/567
f 231/1/643 232/1/644 226/1/567 230/1/649
f 634/1/432 649/1/332 641/1/638 633/1/433
f 238/1/642 243/1/639 236/1/435 232/1/644
f 510/1/424 528/1/479 505/1/480 503/1/425
f 73/1/86 76/1/587 70/1/586 69/1/83
f 709/1/650 699/1/651 707/1/597 712/1/601
f 572/1/647 573/1/646 567/1/645 568/1/652
f 464/1/653 465/1/654 502/1/655
f 230/1/649 221/1/559 237/1/656 231/1/643
f 246/1/400 253/1/399 254/1/594 251/1/568
f 221/1/559 220/1/558 267/1/417 237/1/656
f 566/1/657 568/1/652 567/1/645 259/1/570
f 502/1/655 465/1/654 508/1/658
f 502/1/655 508/1/658 501/1/439
f 465/1/654 509/1/659 508/1/658
f 267/1/417 274/1/416 260/1/398 237/1/656
f 246/1/400 245/1/404 238/1/642 239/1/397
f 512/1/106 72/1/85 500/1/107
f 188/1/130 72/1/85 512/1/106
f 358/1/270 388/1/319 370/1/546 364/1/271
f 569/1/660 576/1/661 572/1/647 568/1/652
f 507/1/440 513/1/572 506/1/596
f 509/1/659 514/1/662 508/1/658
f 497/1/422 496/1/382 492/1/391 493/1/423
f 473/1/390 487/1/196 467/1/195 468/1/329
f 501/1/439 508/1/658 517/1/571
f 514/1/662 513/1/572 517/1/571
f 514/1/662 517/1/571 508/1/658
f 514/1/662 518/1/663 513/1/572
f 513/1/572 518/1/663 506/1/596
f 265/1/664 566/1/657 259/1/570 258/1/569
f 506/1/596 520/1/665 519/1/411
f 73/1/86 79/1/104 80/1/335 76/1/587
f 500/1/107 72/1/85 522/1/506
f 72/1/85 293/1/123 523/1/100
f 72/1/85 524/1/103 522/1/506
f 72/1/85 523/1/100 524/1/103
f 70/1/586 74/1/164 71/1/84 69/1/83
f 107/1/320 108/1/359 85/1/351 99/1/321
f 519/1/411 520/1/665 525/1/491
f 266/1/666 265/1/664 258/1/569 262/1/667
f 266/1/666 563/1/668 564/1/669 265/1/664
f 520/1/665 527/1/670 525/1/491
f 393/1/564 406/1/428 412/1/671 401/1/538
f 633/1/433 641/1/638 640/1/637 635/1/469
f 525/1/491 527/1/670 530/1/492
f 561/1/672 563/1/668 266/1/666 269/1/673
f 527/1/670 532/1/674 530/1/492
f 527/1/670 533/1/675 532/1/674
f 269/1/673 266/1/666 262/1/667 268/1/676
f 532/1/674 533/1/675 534/1/444
f 669/1/118 673/1/677 676/1/678 675/1/119
f 622/1/679 632/1/512 631/1/344 623/1/680
f 533/1/675 537/1/510 534/1/444
f 279/1/551 286/1/552 280/1/415 273/1/414
f 633/1/433 635/1/469 626/1/468 625/1/434
f 287/1/375 261/1/593 281/1/592 282/1/681
f 287/1/375 299/1/374 268/1/676 261/1/593
f 535/1/445 539/1/511 540/1/516 536/1/462
f 237/1/656 260/1/398 239/1/397 231/1/643
f 286/1/552 311/1/519 282/1/681 280/1/415
f 274/1/416 280/1/415 282/1/681 281/1/592
f 282/1/681 311/1/519 305/1/376 287/1/375
f 283/1/220 288/1/154 284/1/346 276/1/464
f 541/1/682 548/1/683 542/1/684
f 449/1/628 448/1/362 441/1/361 442/1/621
f 559/1/532 299/1/374 558/1/373 557/1/533
f 542/1/684 548/1/683 550/1/685
f 558/1/373 305/1/376 552/1/488 551/1/487
f 552/1/488 554/1/520 553/1/504 547/1/489
f 662/1/121 670/1/120 668/1/473 661/1/288
f 307/1/363 295/1/151 292/1/284 306/1/461
f 542/1/684 550/1/685 549/1/686 543/1/687
f 548/1/683 555/1/534 550/1/685
f 548/1/683 556/1/535 555/1/534
f 432/1/622 435/1/452 441/1/361 440/1/360
f 549/1/686 551/1/487 544/1/486 543/1/687
f 537/1/510 543/1/687 544/1/486 539/1/511
f 542/1/684 543/1/687 537/1/510 541/1/682
f 559/1/532 560/1/688 269/1/673
f 269/1/673 560/1/688 561/1/672
f 56/1/64 58/1/68 55/1/48 7/1/7
f 560/1/688 562/1/689 561/1/672
f 561/1/672 562/1/689 563/1/668
f 695/1/545 399/1/580 380/1/158 381/1/157
f 562/1/689 564/1/669 563/1/668
f 564/1/669 565/1/690 265/1/664
f 562/1/689 565/1/690 564/1/669
f 265/1/664 565/1/690 566/1/657
f 427/1/453 418/1/691 412/1/671 420/1/602
f 418/1/691 419/1/536 401/1/538 412/1/671
f 566/1/657 569/1/660 568/1/652
f 566/1/657 570/1/692 569/1/660
f 340/1/392 346/1/394 308/1/229 321/1/353
f 420/1/602 412/1/671 406/1/428 413/1/427
f 466/1/693 495/1/441 488/1/176 484/1/179
f 570/1/692 575/1/694 569/1/660
f 569/1/660 575/1/694 576/1/661
f 687/1/584 693/1/695 692/1/696 691/1/640
f 575/1/694 578/1/697 576/1/661
f 572/1/647 576/1/661 578/1/697
f 572/1/647 578/1/697 579/1/648
f 464/1/653 502/1/655 501/1/439 495/1/441
f 464/1/653 495/1/441 466/1/693 457/1/630
f 455/1/698 480/1/449 475/1/448 472/1/247
f 466/1/693 480/1/449 455/1/698 457/1/630
f 575/1/694 583/1/699 578/1/697
f 578/1/697 584/1/633 579/1/648
f 579/1/648 584/1/633 580/1/632
f 578/1/697 583/1/699 584/1/633
f 599/1/611 608/1/700 609/1/701 607/1/610
f 449/1/628 457/1/630 455/1/698 448/1/362
f 581/1/59 585/1/631 586/1/626
f 469/1/412 468/1/329 460/1/330 461/1/248
f 353/1/393 366/1/128 373/1/517 372/1/303
f 675/1/119 682/1/62 677/1/63 670/1/120
f 221/1/559 230/1/649 213/1/372 214/1/371
f 434/1/265 431/1/268 426/1/624 433/1/623
f 447/1/246 454/1/249 433/1/623 440/1/360
f 445/1/620 450/1/702 443/1/619 444/1/617
f 250/1/403 577/1/61 244/1/556 243/1/639
f 591/1/616 600/1/703 599/1/611
f 435/1/452 437/1/451 442/1/621 441/1/361
f 320/1/527 327/1/193 328/1/192 325/1/529
f 318/1/528 320/1/527 313/1/460 312/1/459
f 454/1/249 452/1/334 434/1/265 433/1/623
f 222/1/161 242/1/182 235/1/185 198/1/565
f 210/1/365 211/1/276 204/1/381 203/1/367
f 597/1/704 605/1/705 600/1/703
f 651/1/579 667/1/560 665/1/201 659/1/348
f 484/1/179 482/1/446 480/1/449 466/1/693
f 600/1/703 605/1/705 608/1/700
f 599/1/611 600/1/703 608/1/700
f 429/1/614 439/1/615 436/1/618 428/1/706
f 605/1/705 609/1/701 608/1/700
f 500/1/107 522/1/506 494/1/502 409/1/108
f 427/1/453 435/1/452 432/1/622 418/1/691
f 605/1/705 613/1/707 609/1/701
f 609/1/701 613/1/707 614/1/634 607/1/610
f 456/1/629 465/1/654 464/1/653 457/1/630
f 437/1/451 421/1/450 428/1/706 436/1/618
f 472/1/247 475/1/448 469/1/412 461/1/248
f 254/1/594 262/1/667 258/1/569 251/1/568
f 426/1/624 431/1/268 425/1/537 419/1/536
f 431/1/268 423/1/267 424/1/554 425/1/537
f 615/1/605 622/1/679 623/1/680
f 261/1/593 268/1/676 262/1/667 254/1/594
f 623/1/680 624/1/431 616/1/603 615/1/605
f 617/1/595 611/1/588 610/1/590 616/1/603
f 643/1/388 650/1/396 645/1/508 644/1/531
f 201/1/172 499/1/105 409/1/108 402/1/581
f 383/1/345 424/1/554 423/1/267 416/1/338
f 142/1/575 204/1/381 155/1/286 149/1/272
f 78/1/167 87/1/442 86/1/122 77/1/99
f 196/1/430 630/1/216 197/1/576
f 196/1/430 197/1/576 166/1/341 190/1/340
f 676/1/678 686/1/585 682/1/62 675/1/119
f 689/1/498 699/1/651 696/1/636 389/1/544
f 213/1/372 219/1/561 163/1/81 170/1/80
f 455/1/698 472/1/247 447/1/246 448/1/362
f 362/1/384 368/1/383 361/1/574 355/1/356
f 118/1/418 166/1/341 119/1/577 111/1/505
f 684/1/46 689/1/498 389/1/544 395/1/515
f 558/1/373 551/1/487 549/1/686 557/1/533
f 388/1/319 395/1/515 389/1/544 370/1/546
f 555/1/534 557/1/533 549/1/686 550/1/685
f 274/1/416 281/1/592 253/1/399 260/1/398
f 476/1/198 483/1/197 478/1/273 471/1/250
f 547/1/489 553/1/504 546/1/503 540/1/516
f 638/1/215 644/1/531 202/1/501
f 638/1/215 202/1/501 197/1/576 630/1/216
f 402/1/581 408/1/111 403/1/110 397/1/219
f 380/1/158 385/1/540 371/1/126 374/1/159
f 496/1/382 497/1/422 503/1/425 368/1/383
f 370/1/546 381/1/157 341/1/156 364/1/271
f 368/1/383 503/1/425 505/1/480 361/1/574
f 176/1/437 177/1/116 171/1/324 157/1/323
f 652/1/507 658/1/493 330/1/466 653/1/465
f 185/1/162 191/1/496 131/1/495 130/1/261
f 645/1/508 653/1/465 209/1/260
f 631/1/344 654/1/343 623/1/680
f 649/1/332 656/1/287 648/1/289 641/1/638
f 216/1/160 249/1/337 242/1/182 222/1/161
f 180/1/174 208/1/235 179/1/238 160/1/253
f 344/1/407 350/1/406 329/1/526 337/1/539
f 647/1/280 673/1/677 669/1/118 663/1/281
f 333/1/96 334/1/478 326/1/530 332/1/583
f 168/1/194 175/1/548 170/1/80 134/1/79
f 223/1/242 224/1/245 218/1/274 217/1/277
f 628/1/389 637/1/214 629/1/213 627/1/91
f 189/1/227 190/1/340 165/1/339 182/1/470
f 71/1/84 74/1/164 78/1/167 77/1/99
f 652/1/507 651/1/579 659/1/348 658/1/493
f 401/1/538 378/1/518 373/1/517 393/1/564
f 317/1/521 554/1/520 311/1/519 286/1/552
f 418/1/691 432/1/622 426/1/624 419/1/536
f 215/1/259 331/1/299 323/1/298 256/1/523
f 634/1/432 654/1/343 655/1/333 649/1/332
f 640/1/637 667/1/560 651/1/579 642/1/395
f 142/1/575 149/1/272 141/1/264 137/1/474
f 323/1/298 345/1/297 324/1/327 318/1/528
f 559/1/532 269/1/673 268/1/676 299/1/374
f 616/1/603 624/1/431 625/1/434 617/1/595
f 328/1/192 332/1/583 326/1/530 325/1/529
f 234/1/543 329/1/526 322/1/522 279/1/551
f 674/1/472 680/1/354 666/1/199 668/1/473
f 678/1/355 679/1/317 351/1/328 672/1/467
f 353/1/393 372/1/303 347/1/302 346/1/394
f 640/1/637 642/1/395 636/1/387 635/1/469
f 623/1/680 654/1/343 634/1/432 624/1/431
f 532/1/674 534/1/444 526/1/408 530/1/492
f 698/1/497 707/1/597 699/1/651 689/1/498
f 4/1/4 46/1/50 45/1/66 44/1/51
f 690/1/608 693/1/695 687/1/584 686/1/585
f 206/1/370 170/1/80 175/1/548 205/1/549
f 597/1/704 600/1/703 591/1/616 590/1/627
f 687/1/584 691/1/640 688/1/45 685/1/44
f 414/1/591 421/1/450 420/1/602 413/1/427
f 485/1/454 498/1/420 481/1/447 482/1/446
f 567/1/645 573/1/646 574/1/58 571/1/402
f 586/1/626 589/1/625 582/1/60 581/1/59
f 676/1/678 694/1/609 690/1/608 686/1/585
f 389/1/544 696/1/636 695/1/545
f 422/1/708 430/1/612 429/1/614 428/1/706
f 688/1/45 697/1/598 698/1/497
f 488/1/176 507/1/440 506/1/596 489/1/177
f 691/1/640 692/1/696 700/1/641
f 693/1/695 701/1/709 692/1/696
f 63/1/73 64/1/74 53/1/49 55/1/48
f 692/1/696 702/1/710 700/1/641
f 692/1/696 701/1/709 702/1/710
f 580/1/632 581/1/59 574/1/58 573/1/646
f 699/1/651 709/1/650 704/1/635 696/1/636
f 53/1/49 67/1/77 45/1/66 46/1/50
f 697/1/598 705/1/711 706/1/599
f 443/1/619 450/1/702 449/1/628 442/1/621
f 705/1/711 710/1/712 706/1/599
f 690/1/608 708/1/607 701/1/709 693/1/695
f 706/1/599 710/1/712 711/1/600
f 422/1/708 428/1/706 421/1/450 414/1/591
f 678/1/355 680/1/354 394/1/318 679/1/317
