# Blender 4.3.2
# www.blender.org
o hair.071
v 7.403013 0.442917 -0.012208
v 7.404864 0.438090 -0.016768
v 7.408831 0.451605 -0.004840
v 7.401269 0.447898 -0.007975
v 7.409893 0.442917 -0.019711
v 7.403990 0.454950 -0.003276
v 7.399738 0.453187 -0.004398
v 7.414922 0.447744 -0.022655
v 7.398370 0.458475 -0.001632
v 7.420041 0.442654 -0.024762
v 7.402023 0.477071 0.003503
v 7.397114 0.463451 0.000166
v 7.412913 0.457976 -0.002097
v 7.407468 0.467524 0.000703
v 7.425159 0.437563 -0.026868
v 7.396014 0.468166 0.001295
v 7.395113 0.472668 0.002053
v 7.394311 0.477064 0.002626
v 7.425159 0.457976 -0.002097
v 7.425159 0.451605 -0.004840
v 7.430278 0.442654 -0.024762
v 7.441488 0.451605 -0.004840
v 7.437406 0.457976 -0.002097
v 7.435397 0.447744 -0.022655
v 7.446329 0.454950 -0.003276
v 7.440426 0.442917 -0.019711
v 7.449050 0.447898 -0.007975
v 7.447306 0.442917 -0.012208
v 7.445455 0.438090 -0.016768
v 7.442851 0.467524 0.000703
v 7.448295 0.477071 0.003503
v 7.451948 0.458475 -0.001632
v 7.450581 0.453187 -0.004398
v 7.453205 0.463451 0.000166
v 7.454305 0.468166 0.001295
v 7.455206 0.472668 0.002053
v 7.456007 0.477064 0.002626
v 7.425159 0.518001 -0.003660
v 7.424442 0.517956 -0.003797
v 7.423869 0.518539 -0.000255
v 7.425159 0.518587 -0.000155
v 7.425159 0.516967 -0.008187
v 7.425877 0.517956 -0.003797
v 7.426450 0.518539 -0.000255
v 7.423725 0.517910 -0.003934
v 7.423150 0.518818 0.003497
v 7.425159 0.518940 0.003717
v 7.422626 0.518393 -0.000640
v 7.421432 0.518580 0.003021
v 7.427693 0.518393 -0.000640
v 7.426594 0.517910 -0.003934
v 7.427170 0.518818 0.003498
v 7.428888 0.518580 0.003023
v 7.422904 0.517743 -0.004431
v 7.425163 0.519069 0.007787
v 7.422471 0.518881 0.007517
v 7.420171 0.518517 0.006943
v 7.421156 0.518136 -0.001358
v 7.419440 0.518130 0.001878
v 7.429163 0.518136 -0.001358
v 7.427414 0.517743 -0.004431
v 7.422248 0.517539 -0.005038
v 7.421787 0.518744 0.011609
v 7.418873 0.518249 0.011018
v 7.417492 0.517824 0.005573
v 7.415349 0.517152 0.009534
v 7.420049 0.517732 -0.002521
v 7.417593 0.517557 0.000338
v 7.430880 0.518130 0.001878
v 7.430270 0.517732 -0.002521
v 7.428071 0.517539 -0.005038
v 7.421868 0.517310 -0.005721
v 7.417625 0.517810 0.014983
v 7.415149 0.517047 0.014263
v 7.419255 0.517350 -0.003638
v 7.416506 0.517004 -0.001213
v 7.414953 0.516901 0.003509
v 7.430175 0.518517 0.006945
v 7.432882 0.517816 0.005583
v 7.428451 0.517310 -0.005721
v 7.431064 0.517350 -0.003638
v 7.421489 0.517081 -0.006404
v 7.418683 0.516916 -0.004914
v 7.415542 0.516337 -0.003141
v 7.427862 0.518881 0.007518
v 7.428583 0.518743 0.011610
v 7.431547 0.518249 0.011019
v 7.431636 0.516916 -0.004914
v 7.428830 0.517081 -0.006404
v 7.421338 0.516796 -0.007255
v 7.418287 0.516433 -0.006359
v 7.414952 0.515652 -0.005202
v 7.412107 0.515108 -0.001003
v 7.425172 0.518983 0.011884
v 7.434777 0.516337 -0.003141
v 7.432032 0.516433 -0.006359
v 7.428981 0.516796 -0.007255
v 7.421186 0.516511 -0.008106
v 7.413428 0.516055 0.001497
v 7.425177 0.518709 0.015834
v 7.421134 0.518432 0.015572
v 7.429133 0.516511 -0.008106
v 7.421337 0.516226 -0.008957
v 7.418149 0.515933 -0.007860
v 7.410148 0.514330 0.004583
v 7.412200 0.515650 0.006967
v 7.420544 0.517975 0.019206
v 7.418287 0.515420 -0.009388
v 7.421488 0.515940 -0.009809
v 7.414750 0.514938 -0.007371
v 7.409431 0.513931 0.010304
v 7.411421 0.515201 0.012124
v 7.414952 0.514183 -0.009622
v 7.418682 0.514927 -0.010859
v 7.415542 0.513445 -0.011810
v 7.421919 0.515698 -0.010530
v 7.419333 0.514477 -0.012203
v 7.411218 0.513420 -0.006592
v 7.411386 0.514259 -0.003713
v 7.413237 0.516168 0.013335
v 7.409137 0.513477 0.015169
v 7.416506 0.512784 -0.013788
v 7.412372 0.511592 -0.012522
v 7.422350 0.515457 -0.011252
v 7.407710 0.512056 -0.001823
v 7.408414 0.512990 0.001580
v 7.413692 0.516129 0.017676
v 7.411424 0.514867 0.016540
v 7.422995 0.515295 -0.011734
v 7.420202 0.514082 -0.013385
v 7.405033 0.510471 0.004048
v 7.406990 0.512147 0.007549
v 7.409434 0.512842 0.019507
v 7.416529 0.517197 0.018568
v 7.421267 0.513760 -0.014347
v 7.423639 0.515134 -0.012216
v 7.417799 0.512213 -0.015506
v 7.404319 0.509792 0.009899
v 7.406796 0.511823 0.013110
v 7.404518 0.509521 0.015227
v 7.406937 0.511259 0.017703
v 7.415105 0.515577 0.022446
v 7.419377 0.511745 -0.016914
v 7.415384 0.510050 -0.017416
v 7.413664 0.510768 -0.015144
v 7.404674 0.508566 0.019823
v 7.411956 0.514270 0.021147
v 7.417486 0.509455 -0.019290
v 7.421176 0.511396 -0.017962
v 7.419878 0.509008 -0.020690
v 7.411090 0.508589 -0.016095
v 7.409458 0.510716 0.025158
v 7.406781 0.509752 0.022593
v 7.415788 0.507118 -0.021270
v 7.422477 0.513519 -0.015068
v 7.423129 0.511183 -0.018605
v 7.423792 0.513372 -0.015506
v 7.404179 0.506476 0.025092
v 7.413201 0.507794 -0.018912
v 7.424399 0.515077 -0.012385
v 7.425159 0.511110 -0.018825
v 7.425159 0.508635 -0.021828
v 7.422469 0.508731 -0.021540
v 7.425159 0.513322 -0.015659
v 7.425159 0.515020 -0.012554
v 7.410910 0.504901 -0.020247
v 7.426526 0.513372 -0.015506
v 7.427190 0.511183 -0.018605
v 7.421886 0.506267 -0.024098
v 7.418725 0.506597 -0.023041
v 7.425920 0.515077 -0.012385
v 7.414004 0.504206 -0.023152
v 7.417509 0.503647 -0.025348
v 7.408849 0.501418 -0.021207
v 7.408381 0.505667 -0.016826
v 7.425159 0.506150 -0.024447
v 7.425159 0.503158 -0.027062
v 7.421270 0.503287 -0.026641
v 7.426680 0.515134 -0.012216
v 7.412412 0.500799 -0.024550
v 7.416391 0.500303 -0.027115
v 7.405972 0.501923 -0.017191
v 7.407453 0.498426 -0.021762
v 7.428433 0.506267 -0.024098
v 7.425154 0.499968 -0.029089
v 7.429049 0.503288 -0.026641
v 7.420694 0.500031 -0.028614
v 7.427850 0.508731 -0.021540
v 7.411275 0.497971 -0.025453
v 7.415625 0.497521 -0.028187
v 7.430440 0.509008 -0.020690
v 7.431594 0.506597 -0.023041
v 7.432810 0.503647 -0.025348
v 7.429602 0.500098 -0.028579
v 7.425159 0.497179 -0.030370
v 7.433885 0.500421 -0.027058
v 7.420301 0.497265 -0.029832
v 7.429142 0.511396 -0.017962
v 7.410172 0.494679 -0.026198
v 7.434531 0.507118 -0.021270
v 7.436315 0.504206 -0.023152
v 7.434688 0.497536 -0.028180
v 7.430015 0.497274 -0.029828
v 7.437845 0.500936 -0.024498
v 7.419914 0.494278 -0.030752
v 7.427842 0.513519 -0.015068
v 7.439425 0.504875 -0.020246
v 7.441423 0.501511 -0.021169
v 7.430405 0.494278 -0.030752
v 7.439035 0.497989 -0.025446
v 7.442858 0.498442 -0.021757
v 7.414855 0.494432 -0.029083
v 7.429052 0.513760 -0.014347
v 7.427324 0.515295 -0.011734
v 7.425159 0.494225 -0.031281
v 7.440147 0.494679 -0.026198
v 7.414142 0.490253 -0.029750
v 7.430941 0.511745 -0.016914
v 7.427969 0.515457 -0.011252
v 7.425159 0.490196 -0.031929
v 7.419550 0.490211 -0.031421
v 7.435463 0.494432 -0.029083
v 7.432833 0.509455 -0.019290
v 7.432520 0.512213 -0.015506
v 7.434935 0.510050 -0.017416
v 7.436176 0.490253 -0.029750
v 7.430768 0.490211 -0.031421
v 7.419291 0.485569 -0.031838
v 7.430117 0.514082 -0.013385
v 7.433813 0.512784 -0.013788
v 7.430985 0.514477 -0.012203
v 7.437118 0.507794 -0.018912
v 7.431028 0.485569 -0.031838
v 7.428400 0.515698 -0.010530
v 7.436655 0.510768 -0.015144
v 7.434777 0.513445 -0.011810
v 7.437947 0.511592 -0.012522
v 7.439229 0.508589 -0.016095
v 7.442004 0.505566 -0.016819
v 7.425159 0.485566 -0.032339
v 7.428830 0.515940 -0.009809
v 7.428982 0.516226 -0.008957
v 7.440846 0.509465 -0.012858
v 7.444051 0.506280 -0.012900
v 7.444379 0.501881 -0.017166
v 7.446846 0.502246 -0.012659
v 7.425159 0.480351 -0.032214
v 7.431637 0.514927 -0.010859
v 7.432032 0.515420 -0.009388
v 7.432170 0.515933 -0.007860
v 7.441950 0.510384 -0.009238
v 7.436660 0.485575 -0.030130
v 7.436810 0.480360 -0.029974
v 7.431117 0.480354 -0.031710
v 7.435367 0.514183 -0.009622
v 7.435569 0.514938 -0.007371
v 7.435367 0.515652 -0.005202
v 7.438768 0.512503 -0.009600
v 7.441820 0.485582 -0.027014
v 7.441184 0.490318 -0.026770
v 7.430980 0.474582 -0.030813
v 7.439101 0.513420 -0.006592
v 7.438932 0.514259 -0.003713
v 7.438230 0.515099 -0.000993
v 7.433813 0.517004 -0.001213
v 7.445579 0.490396 -0.022711
v 7.444280 0.494945 -0.022318
v 7.419202 0.480354 -0.031710
v 7.425159 0.474580 -0.031324
v 7.442609 0.512056 -0.001824
v 7.432726 0.517557 0.000337
v 7.447629 0.495135 -0.017631
v 7.446043 0.498783 -0.017411
v 7.413509 0.480360 -0.029974
v 7.419338 0.474582 -0.030813
v 7.413658 0.485575 -0.030130
v 7.425159 0.468789 -0.030105
v 7.435475 0.516850 0.003572
v 7.448652 0.499068 -0.012502
v 7.408499 0.485582 -0.027014
v 7.409135 0.490318 -0.026770
v 7.436960 0.516021 0.001539
v 7.445565 0.507024 -0.008516
v 7.448799 0.502685 -0.007658
v 7.404740 0.490396 -0.022711
v 7.406039 0.494945 -0.022318
v 7.435187 0.517118 0.009570
v 7.440448 0.514194 0.004750
v 7.441974 0.512955 0.001621
v 7.402689 0.495135 -0.017631
v 7.404271 0.498773 -0.017413
v 7.432849 0.517806 0.014980
v 7.435415 0.517031 0.014241
v 7.438556 0.515447 0.007218
v 7.445336 0.510486 0.004070
v 7.442540 0.511272 -0.005478
v 7.446530 0.507752 -0.003932
v 7.401665 0.499066 -0.012502
v 7.403594 0.502427 -0.012684
v 7.429259 0.518432 0.015574
v 7.446929 0.508420 0.000585
v 7.450165 0.503161 -0.002419
v 7.406388 0.506461 -0.012919
v 7.404906 0.507241 -0.008559
v 7.401687 0.502924 -0.007705
v 7.425167 0.518275 0.019459
v 7.429816 0.517975 0.019210
v 7.450747 0.499354 -0.007126
v 7.452296 0.499595 -0.001520
v 7.409473 0.509465 -0.012858
v 7.419560 0.516691 0.023175
v 7.424622 0.517247 0.023371
v 7.433928 0.517213 0.018562
v 7.436936 0.516130 0.017618
v 7.452303 0.495454 -0.006723
v 7.450315 0.495307 -0.012389
v 7.408369 0.510384 -0.009238
v 7.411551 0.512503 -0.009600
v 7.417766 0.513795 0.028070
v 7.434931 0.515826 0.023268
v 7.437462 0.516099 0.013364
v 7.451876 0.490476 -0.012229
v 7.449150 0.490473 -0.017800
v 7.429546 0.517061 0.023149
v 7.439494 0.515001 0.012353
v 7.449843 0.485615 -0.017777
v 7.446287 0.485594 -0.022794
v 7.400266 0.503318 -0.002445
v 7.403910 0.507918 -0.003970
v 7.407779 0.511273 -0.005478
v 7.427737 0.515376 0.028019
v 7.446391 0.480380 -0.022509
v 7.441972 0.480370 -0.026779
v 7.403374 0.508407 0.000622
v 7.423022 0.515194 0.028179
v 7.441598 0.474601 -0.025969
v 7.445924 0.474614 -0.021843
v 7.449309 0.474621 -0.017107
v 7.449850 0.480389 -0.017550
v 7.436545 0.474589 -0.029091
v 7.402531 0.508039 0.005841
v 7.421040 0.512280 0.032519
v 7.445204 0.468830 -0.021023
v 7.452449 0.480051 -0.011772
v 7.452520 0.485404 -0.012009
v 7.436094 0.468798 -0.027897
v 7.430742 0.468791 -0.029584
v 7.400201 0.505213 0.007441
v 7.454347 0.484719 -0.005538
v 7.453738 0.490332 -0.006190
v 7.440987 0.468814 -0.024920
v 7.430523 0.463519 -0.028465
v 7.425159 0.463517 -0.028994
v 7.419796 0.463519 -0.028465
v 7.419577 0.468791 -0.029584
v 7.399345 0.503517 0.002900
v 7.454963 0.490228 -0.000262
v 7.453696 0.495565 -0.000975
v 7.440429 0.463545 -0.023964
v 7.425159 0.458410 -0.027878
v 7.414225 0.468798 -0.027897
v 7.413774 0.474589 -0.029091
v 7.398020 0.499592 -0.001518
v 7.454601 0.495630 0.004512
v 7.435681 0.463528 -0.026811
v 7.408720 0.474601 -0.025969
v 7.408347 0.480370 -0.026779
v 7.399572 0.499353 -0.007126
v 7.435384 0.458419 -0.025639
v 7.430362 0.458413 -0.027298
v 7.403928 0.480380 -0.022509
v 7.404032 0.485594 -0.022794
v 7.398016 0.495454 -0.006723
v 7.400003 0.495307 -0.012389
v 7.430296 0.453118 -0.025924
v 7.400475 0.485615 -0.017777
v 7.401169 0.490473 -0.017800
v 7.396623 0.495565 -0.000975
v 7.395718 0.495630 0.004512
v 7.397034 0.499735 0.004087
v 7.398442 0.490476 -0.012229
v 7.397799 0.485404 -0.012009
v 7.397870 0.480051 -0.011772
v 7.400468 0.480389 -0.017550
v 7.394542 0.490356 0.004977
v 7.395356 0.490228 -0.000262
v 7.396895 0.499815 0.009378
v 7.398333 0.502651 0.008633
v 7.395972 0.484719 -0.005538
v 7.396580 0.490332 -0.006190
v 7.401010 0.474621 -0.017107
v 7.404395 0.474614 -0.021843
v 7.395617 0.495645 0.009670
v 7.398137 0.500307 0.013931
v 7.399005 0.502313 0.013541
v 7.402244 0.507555 0.011563
v 7.400874 0.505685 0.012478
v 7.405115 0.468830 -0.021023
v 7.409332 0.468814 -0.024920
v 7.394477 0.490527 0.009829
v 7.396639 0.495606 0.014429
v 7.394760 0.484257 0.000653
v 7.393930 0.484710 0.005580
v 7.409890 0.463545 -0.023964
v 7.414638 0.463528 -0.026811
v 7.398285 0.495512 0.018880
v 7.397070 0.490511 0.019313
v 7.395501 0.490554 0.014594
v 7.402753 0.507225 0.016533
v 7.394311 0.477064 0.002626
v 7.414935 0.458419 -0.025639
v 7.419956 0.458413 -0.027298
v 7.394785 0.485599 0.014431
v 7.396280 0.485575 0.018988
v 7.399807 0.500553 0.018267
v 7.400286 0.502771 0.017914
v 7.401317 0.505000 0.017345
v 7.402663 0.505807 0.021401
v 7.420022 0.453118 -0.025924
v 7.425159 0.453113 -0.026640
v 7.395818 0.480669 0.018046
v 7.393825 0.485388 0.009940
v 7.399899 0.503990 0.013017
v 7.425159 0.448012 -0.025808
v 7.435277 0.453115 -0.024191
v 7.435397 0.447744 -0.022655
v 7.429856 0.448229 -0.025018
v 7.393584 0.480336 0.009987
v 7.393713 0.479319 0.006228
v 7.394452 0.480673 0.013962
v 7.440042 0.458426 -0.022984
v 7.439946 0.453087 -0.021859
v 7.428572 0.444341 -0.025254
v 7.393720 0.474807 0.006832
v 7.394457 0.475713 0.013211
v 7.395643 0.475727 0.016534
v 7.444546 0.463563 -0.020276
v 7.444080 0.458466 -0.019558
v 7.395654 0.470754 0.014574
v 7.394694 0.471147 0.012335
v 7.394087 0.470872 0.009896
v 7.393680 0.475479 0.009955
v 7.447815 0.463573 -0.016098
v 7.448527 0.468839 -0.016579
v 7.395051 0.467409 0.011490
v 7.395750 0.465761 0.012285
v 7.401400 0.503103 0.022252
v 7.451048 0.468759 -0.011396
v 7.451867 0.474379 -0.011561
v 7.394779 0.466569 0.009861
v 7.395887 0.460757 0.009832
v 7.400518 0.499875 0.022576
v 7.399678 0.495668 0.018501
v 7.401579 0.499640 0.026470
v 7.402578 0.503294 0.026275
v 7.454286 0.479023 -0.005049
v 7.453714 0.473646 -0.005006
v 7.394522 0.467409 0.008220
v 7.394956 0.465761 0.007379
v 7.393981 0.470921 0.007470
v 7.400150 0.490726 0.019251
v 7.399924 0.495539 0.022440
v 7.404802 0.503157 0.029875
v 7.456007 0.477064 0.002626
v 7.455559 0.484257 0.000653
v 7.394294 0.470302 0.005252
v 7.394168 0.473915 0.003776
v 7.399799 0.491035 0.022122
v 7.402030 0.485716 0.020270
v 7.406791 0.506811 0.028476
v 7.456388 0.484710 0.005580
v 7.455777 0.490356 0.004977
v 7.396032 0.479023 -0.005049
v 7.396605 0.473646 -0.005006
v 7.395113 0.472668 0.002053
v 7.400982 0.487302 0.021879
v 7.404553 0.480688 0.021501
v 7.400240 0.490522 0.024996
v 7.455841 0.490527 0.009829
v 7.396014 0.468166 0.001295
v 7.401609 0.486243 0.023632
v 7.406100 0.484078 0.026635
v 7.404938 0.485508 0.028274
v 7.402027 0.486514 0.026048
v 7.403530 0.485266 0.026847
v 7.400547 0.495206 0.026001
v 7.398452 0.474379 -0.011561
v 7.407790 0.487658 0.031004
v 7.405499 0.488534 0.031208
v 7.403315 0.489037 0.030099
v 7.401414 0.490025 0.028016
v 7.402065 0.494546 0.029333
v 7.403348 0.499164 0.029958
v 7.399271 0.468759 -0.011396
v 7.397464 0.468505 -0.005283
v 7.401791 0.468839 -0.016579
v 7.406779 0.492679 0.033245
v 7.409774 0.491585 0.033841
v 7.404149 0.493680 0.031949
v 7.405650 0.498430 0.032775
v 7.407657 0.502711 0.032804
v 7.410739 0.507316 0.032009
v 7.398386 0.463515 -0.005754
v 7.397114 0.463451 0.000166
v 7.402503 0.463573 -0.016098
v 7.405773 0.463563 -0.020276
v 7.411944 0.495865 0.035371
v 7.410909 0.501733 0.034639
v 7.408638 0.497267 0.034351
v 7.398370 0.458475 -0.001632
v 7.400052 0.463562 -0.011300
v 7.406239 0.458466 -0.019558
v 7.410277 0.458426 -0.022984
v 7.414291 0.500426 0.036043
v 7.413418 0.505619 0.034535
v 7.416960 0.505042 0.036303
v 7.412992 0.511947 0.027165
v 7.400789 0.458648 -0.011194
v 7.410373 0.453087 -0.021859
v 7.415041 0.453115 -0.024191
v 7.416041 0.508452 0.034233
v 7.416264 0.510580 0.032231
v 7.403079 0.458573 -0.015589
v 7.399364 0.458594 -0.006490
v 7.414922 0.447744 -0.022655
v 7.420463 0.448229 -0.025018
v 7.419339 0.508814 0.035056
v 7.403449 0.453589 -0.014978
v 7.406386 0.453192 -0.018822
v 7.400387 0.453660 -0.007564
v 7.399738 0.453187 -0.004398
v 7.421747 0.444341 -0.025254
v 7.425159 0.443490 -0.025904
v 7.422934 0.508603 0.036300
v 7.425247 0.512652 0.032761
v 7.401477 0.453878 -0.011001
v 7.406187 0.448203 -0.017998
v 7.409882 0.448205 -0.020636
v 7.401269 0.447898 -0.007975
v 7.425159 0.437563 -0.026868
v 7.420041 0.442654 -0.024762
v 7.430278 0.442654 -0.024762
v 7.428783 0.511528 0.033418
v 7.431737 0.514111 0.028856
v 7.402174 0.450660 -0.011501
v 7.409893 0.442917 -0.019711
v 7.408504 0.444456 -0.019363
v 7.434853 0.510801 0.031685
v 7.438685 0.514474 0.021169
v 7.440943 0.511220 0.025473
v 7.438172 0.511642 0.028531
v 7.403561 0.449145 -0.014218
v 7.401655 0.449216 -0.009610
v 7.404864 0.438090 -0.016768
v 7.405615 0.443961 -0.017015
v 7.441352 0.513038 0.019399
v 7.440547 0.507213 0.032033
v 7.439409 0.514877 0.016493
v 7.403365 0.445765 -0.013262
v 7.403013 0.442917 -0.012208
v 7.441814 0.513450 0.015281
v 7.443421 0.510052 0.022422
v 7.445668 0.508771 0.019595
v 7.443831 0.511423 0.017638
v 7.444079 0.511805 0.013320
v 7.441561 0.513662 0.010669
v 7.446112 0.509769 0.015226
v 7.443254 0.507279 0.028981
v 7.445589 0.506728 0.024960
v 7.446184 0.509938 0.009950
v 7.443711 0.512005 0.007771
v 7.447693 0.507480 0.016447
v 7.448011 0.507979 0.011420
v 7.449340 0.506113 0.012312
v 7.445281 0.503397 0.030234
v 7.449780 0.505649 0.007185
v 7.447645 0.508270 0.005722
v 7.448977 0.505119 0.017245
v 7.450390 0.504301 0.012913
v 7.451793 0.502898 0.008493
v 7.450871 0.503638 0.002800
v 7.447412 0.505946 0.021124
v 7.450053 0.502829 0.017860
v 7.451375 0.502501 0.013507
v 7.453407 0.499837 0.009366
v 7.453273 0.499750 0.004079
v 7.447424 0.503346 0.026237
v 7.448869 0.503139 0.022088
v 7.450678 0.500593 0.018307
v 7.449876 0.499853 0.022515
v 7.452236 0.500356 0.013937
v 7.454701 0.495645 0.009670
v 7.448760 0.499618 0.026486
v 7.450579 0.495540 0.022443
v 7.450754 0.495678 0.018645
v 7.452075 0.495531 0.018952
v 7.453680 0.495606 0.014429
v 7.449876 0.495207 0.026024
v 7.448298 0.494549 0.029372
v 7.446958 0.499226 0.030112
v 7.450174 0.490721 0.019258
v 7.450090 0.490520 0.024997
v 7.450552 0.491029 0.022120
v 7.453250 0.490510 0.019316
v 7.454818 0.490554 0.014594
v 7.456494 0.485388 0.009940
v 7.455533 0.485599 0.014431
v 7.444598 0.498566 0.032767
v 7.442544 0.502994 0.032870
v 7.449337 0.487304 0.021879
v 7.448288 0.485716 0.020270
v 7.454039 0.485575 0.018988
v 7.456735 0.480336 0.009987
v 7.456606 0.479319 0.006228
v 7.454501 0.480669 0.018046
v 7.455867 0.480673 0.013962
v 7.439593 0.502018 0.034694
v 7.437366 0.506458 0.034247
v 7.445765 0.480688 0.021501
v 7.448709 0.486245 0.023632
v 7.456599 0.474807 0.006832
v 7.455206 0.472668 0.002053
v 7.456151 0.473915 0.003776
v 7.455862 0.475712 0.013211
v 7.454676 0.475727 0.016534
v 7.433417 0.505085 0.036378
v 7.431638 0.508583 0.034788
v 7.448295 0.486515 0.026049
v 7.454305 0.468166 0.001295
v 7.452855 0.468505 -0.005283
v 7.456025 0.470302 0.005252
v 7.454665 0.470754 0.014574
v 7.456639 0.475479 0.009955
v 7.426429 0.507445 0.037299
v 7.429421 0.505095 0.037559
v 7.451932 0.463515 -0.005754
v 7.453205 0.463451 0.000166
v 7.450267 0.463562 -0.011300
v 7.455625 0.471147 0.012335
v 7.455267 0.467409 0.011490
v 7.454569 0.465761 0.012285
v 7.424366 0.502496 0.039096
v 7.420815 0.503859 0.038193
v 7.451948 0.458475 -0.001632
v 7.449529 0.458648 -0.011194
v 7.447240 0.458573 -0.015589
v 7.456232 0.470872 0.009896
v 7.454432 0.460757 0.009832
v 7.455540 0.466569 0.009861
v 7.419545 0.498756 0.038155
v 7.417039 0.499885 0.035620
v 7.450955 0.458594 -0.006490
v 7.449932 0.453660 -0.007564
v 7.450581 0.453187 -0.004398
v 7.446870 0.453589 -0.014978
v 7.443933 0.453192 -0.018822
v 7.455797 0.467409 0.008220
v 7.455362 0.465761 0.007379
v 7.416986 0.494695 0.034430
v 7.449050 0.447898 -0.007975
v 7.444132 0.448203 -0.017998
v 7.440437 0.448205 -0.020636
v 7.456338 0.470921 0.007470
v 7.418609 0.494074 0.037020
v 7.418001 0.490623 0.035393
v 7.417092 0.489519 0.032698
v 7.448842 0.453878 -0.011001
v 7.441814 0.444456 -0.019363
v 7.440426 0.442917 -0.019711
v 7.420891 0.493018 0.037952
v 7.422580 0.497570 0.039233
v 7.417265 0.484353 0.030703
v 7.419286 0.489100 0.035434
v 7.448144 0.450660 -0.011501
v 7.446758 0.449145 -0.014218
v 7.448664 0.449216 -0.009610
v 7.445455 0.438090 -0.016768
v 7.425420 0.496259 0.039280
v 7.427571 0.500768 0.039246
v 7.421208 0.489184 0.036251
v 7.421136 0.487743 0.033929
v 7.446954 0.445765 -0.013262
v 7.444704 0.443961 -0.017015
v 7.447306 0.442917 -0.012208
v 7.430460 0.498960 0.037981
v 7.432081 0.502189 0.037442
v 7.424773 0.491300 0.036497
v 7.423152 0.492108 0.038125
v 7.427940 0.495188 0.037751
v 7.436062 0.500450 0.035986
v 7.438439 0.495941 0.035238
v 7.441682 0.497395 0.034223
v 7.443478 0.492744 0.033065
v 7.440619 0.491701 0.033691
v 7.446136 0.493700 0.031911
v 7.442547 0.487693 0.030976
v 7.444806 0.488562 0.031169
v 7.447007 0.489039 0.030100
v 7.448910 0.490025 0.028019
v 7.445381 0.485509 0.028274
v 7.444219 0.484078 0.026635
v 7.446790 0.485267 0.026847
v 7.433417 0.505085 0.036378
v 7.432081 0.502189 0.037442
v 7.425179 0.509267 0.021256
v 7.436062 0.500450 0.035986
v 7.430460 0.498960 0.037981
v 7.438439 0.495941 0.035238
v 7.427940 0.495188 0.037751
v 7.440619 0.491701 0.033691
v 7.424773 0.491300 0.036497
v 7.442547 0.487693 0.030976
v 7.421136 0.487743 0.033929
v 7.444219 0.484078 0.026635
v 7.417265 0.484353 0.030703
v 7.445765 0.480688 0.021501
v 7.417092 0.489519 0.032698
v 7.443901 0.490064 0.020507
v 7.446991 0.488964 0.020064
v 7.448288 0.485716 0.020270
v 7.416986 0.494695 0.034430
v 7.434793 0.502369 0.020471
v 7.444427 0.495482 0.019729
v 7.447410 0.489713 0.018656
v 7.450174 0.490721 0.019258
v 7.417039 0.499885 0.035620
v 7.447114 0.464841 0.008907
v 7.453250 0.490510 0.019316
v 7.450754 0.495678 0.018645
v 7.416960 0.505042 0.036303
v 7.452075 0.495531 0.018952
v 7.454039 0.485575 0.018988
v 7.450678 0.500593 0.018307
v 7.414291 0.500426 0.036043
v 7.454501 0.480669 0.018046
v 7.411944 0.495865 0.035371
v 7.454676 0.475727 0.016534
v 7.409774 0.491585 0.033841
v 7.407790 0.487658 0.031004
v 7.406100 0.484078 0.026635
v 7.404553 0.480688 0.021501
v 7.406420 0.490064 0.020509
v 7.405873 0.495497 0.019790
v 7.454665 0.470754 0.014574
v 7.403327 0.488964 0.020064
v 7.402030 0.485716 0.020270
v 7.402908 0.489714 0.018655
v 7.403205 0.464841 0.008907
v 7.456025 0.470302 0.005252
v 7.455362 0.465761 0.007379
v 7.454432 0.460757 0.009832
v 7.454569 0.465761 0.012285
v 7.400150 0.490726 0.019251
v 7.456151 0.473915 0.003776
v 7.397070 0.490511 0.019313
v 7.399678 0.495668 0.018501
v 7.396280 0.485575 0.018988
v 7.398285 0.495512 0.018880
v 7.399807 0.500553 0.018267
v 7.395818 0.480669 0.018046
v 7.395643 0.475727 0.016534
v 7.394294 0.470302 0.005252
v 7.394956 0.465761 0.007379
v 7.395887 0.460757 0.009832
v 7.395750 0.465761 0.012285
v 7.395654 0.470754 0.014574
v 7.394168 0.473915 0.003776
vn 0.0521 -0.6660 0.7441
vn 0.5885 -0.6252 0.5127
vn 0.0511 -0.6218 0.7815
vn -0.0204 -0.6060 0.7952
vn 0.7468 -0.5497 0.3744
vn 0.0204 -0.6060 0.7952
vn 0.0463 -0.5105 0.8586
vn 0.0121 -0.4228 0.9062
vn -0.0511 -0.6218 0.7815
vn -0.3408 -0.9362 0.0864
vn -0.0463 -0.5105 0.8586
vn -0.0121 -0.4228 0.9062
vn 0.0797 -0.3308 0.9403
vn -0.7218 -0.6851 -0.0983
vn 0.1275 -0.9261 0.3551
vn 0.1451 -0.2844 0.9477
vn -0.0062 -0.3636 0.9316
vn -0.0262 -0.2950 0.9551
vn -0.0000 -0.9572 0.2896
vn -0.0291 -0.2220 0.9746
vn -0.0974 -0.1699 0.9806
vn 0.0136 -0.9936 -0.1119
vn -0.9561 -0.1565 -0.2476
vn -0.9570 -0.1498 -0.2486
vn -0.9654 -0.1588 -0.2067
vn -0.9634 -0.1651 -0.2113
vn -0.0000 -0.6480 0.7617
vn 0.7218 -0.6851 -0.0983
vn -0.0000 -0.3954 0.9185
vn 0.3408 -0.9362 0.0864
vn 0.0062 -0.3636 0.9316
vn -0.7468 -0.5497 0.3744
vn -0.0453 0.9468 0.3187
vn -0.1213 0.8880 0.4435
vn 0.0842 0.8890 0.4500
vn 0.1313 0.9420 0.3089
vn -0.0521 -0.6660 0.7441
vn -0.5885 -0.6252 0.5127
vn 0.0262 -0.2950 0.9551
vn -0.1275 -0.9261 0.3551
vn -0.0797 -0.3308 0.9403
vn -0.1451 -0.2844 0.9477
vn 0.0291 -0.2220 0.9746
vn 0.0974 -0.1699 0.9806
vn -0.0136 -0.9936 -0.1119
vn 0.9570 -0.1498 -0.2486
vn 0.9173 -0.1415 -0.3722
vn 0.9179 -0.1480 -0.3682
vn 0.9561 -0.1565 -0.2476
vn -0.0000 0.9816 -0.1907
vn -0.0000 0.9485 -0.3169
vn -0.0298 0.9805 -0.1944
vn 0.0299 0.9805 -0.1944
vn -0.6700 0.3998 -0.6255
vn -0.7651 0.4019 -0.5031
vn -0.7226 0.4686 -0.5082
vn -0.6252 0.4705 -0.6227
vn -0.0560 0.9790 -0.1961
vn 0.1006 0.9866 -0.1281
vn 0.0560 0.9790 -0.1961
vn 0.0573 0.9906 -0.1241
vn -0.0000 0.9984 -0.0558
vn 0.0878 0.9944 -0.0584
vn -0.0000 0.9922 -0.1243
vn -0.9901 0.0583 0.1281
vn -0.9449 0.0901 0.3147
vn -0.9031 0.2243 0.3662
vn -0.9595 0.1917 0.2064
vn 0.1547 0.9860 -0.0627
vn -0.7187 -0.0861 -0.6900
vn -0.8729 -0.0828 -0.4808
vn -0.8488 -0.1132 -0.5165
vn -0.7071 -0.1218 -0.6966
vn 0.8306 0.4312 0.3523
vn 0.8962 0.2551 0.3630
vn 0.9486 0.2245 0.2232
vn 0.8736 0.4158 0.2529
vn 0.7228 0.6797 0.1251
vn 0.7682 0.6391 0.0384
vn 0.6967 0.7174 -0.0050
vn 0.6414 0.7663 0.0377
vn -0.0909 0.9732 -0.2113
vn -0.4245 0.5835 -0.6923
vn -0.4975 0.4721 -0.7277
vn -0.5401 0.5804 -0.6095
vn 0.1099 0.6907 -0.7147
vn 0.2251 0.6916 -0.6863
vn 0.2898 0.5882 -0.7550
vn 0.1418 0.5919 -0.7934
vn -0.1228 0.9917 0.0378
vn -0.1312 0.9878 0.0837
vn -0.0002 0.9957 0.0928
vn -0.0002 0.9990 0.0455
vn 0.2191 0.9728 -0.0753
vn 0.1523 0.9783 -0.1408
vn 0.9616 0.0849 0.2610
vn 0.9632 -0.0011 0.2688
vn 0.9955 0.0135 0.0939
vn 0.9925 0.0851 0.0877
vn -0.1523 0.9783 -0.1408
vn -0.1006 0.9866 -0.1282
vn -0.9009 0.3557 0.2489
vn -0.9371 0.2547 0.2386
vn -0.8966 0.3859 0.2172
vn -0.8752 0.4413 0.1983
vn 0.0909 0.9732 -0.2113
vn 0.1940 0.9659 -0.1717
vn 0.1216 0.9656 -0.2298
vn -0.1216 0.9656 -0.2298
vn -0.7347 0.1915 -0.6508
vn -0.7040 0.3155 -0.6363
vn -0.5679 0.2970 -0.7676
vn -0.5902 0.1784 -0.7873
vn 0.9628 -0.1578 -0.2192
vn 0.9557 -0.1527 -0.2516
vn 0.9580 -0.1315 -0.2549
vn 0.9638 -0.1369 -0.2288
vn 0.3635 -0.2100 0.9076
vn 0.3448 -0.4590 0.8188
vn 0.6292 -0.3516 0.6932
vn 0.6140 -0.0656 0.7866
vn 0.2838 0.9532 -0.1040
vn 0.2279 0.9736 0.0144
vn 0.3629 0.9318 -0.0103
vn 0.2940 0.9553 -0.0321
vn 0.1990 0.9798 -0.0190
vn 0.3765 -0.6008 0.7052
vn 0.3677 -0.3483 0.8623
vn 0.1513 -0.2328 0.9607
vn 0.0972 -0.4576 0.8838
vn -0.3108 -0.0331 0.9499
vn -0.3791 0.0208 0.9251
vn -0.3765 -0.2135 0.9015
vn -0.2703 -0.2757 0.9225
vn 0.5103 0.8600 0.0039
vn 0.4799 0.8769 -0.0287
vn 0.4553 0.8902 0.0174
vn -0.1357 0.9593 -0.2478
vn -0.0001 0.4727 -0.8812
vn -0.1742 0.4714 -0.8646
vn -0.1421 0.5916 -0.7936
vn -0.0001 0.5930 -0.8052
vn -0.9978 0.0260 0.0604
vn 0.3274 0.9345 -0.1399
vn 0.2229 0.9543 -0.1992
vn 0.1614 0.9357 -0.3136
vn 0.2568 0.9167 -0.3062
vn 0.2537 0.9024 -0.3483
vn 0.1559 0.9279 -0.3387
vn 0.5423 0.8389 -0.0467
vn 0.6187 0.7851 -0.0292
vn 0.6646 0.7443 -0.0657
vn 0.5890 0.8039 -0.0829
vn -0.1497 0.9194 -0.3638
vn -0.1329 0.9133 -0.3850
vn -0.2189 0.8781 -0.4255
vn -0.2403 0.8897 -0.3881
vn 0.1357 0.9593 -0.2478
vn -0.2229 0.9543 -0.1992
vn -0.1940 0.9659 -0.1717
vn -0.1510 0.9520 -0.2662
vn 0.2406 0.9432 -0.2293
vn 0.1510 0.9520 -0.2662
vn 0.5195 -0.1792 -0.8355
vn 0.3822 -0.2274 -0.8956
vn 0.3926 -0.2269 -0.8913
vn 0.5572 -0.1903 -0.8083
vn -0.0531 0.8495 -0.5249
vn -0.0000 0.8484 -0.5293
vn -0.0000 0.7948 -0.6068
vn -0.0729 0.7965 -0.6002
vn -0.0000 0.7476 -0.6642
vn -0.0000 0.6899 -0.7239
vn -0.1099 0.6907 -0.7147
vn -0.0894 0.7492 -0.6563
vn 0.6391 0.5758 -0.5099
vn 0.7227 0.4690 -0.5076
vn 0.6248 0.4724 -0.6217
vn 0.5418 0.5799 -0.6084
vn -0.7167 0.6156 0.3276
vn -0.6007 0.6332 0.4881
vn -0.5423 0.7499 0.3789
vn -0.6310 0.7274 0.2697
vn -0.1560 0.9447 -0.2884
vn 0.0631 0.8973 -0.4370
vn 0.1029 0.8536 -0.5107
vn 0.0531 0.8495 -0.5249
vn 0.0315 0.8967 -0.4415
vn -0.7642 0.0001 -0.6450
vn -0.9001 -0.0369 -0.4342
vn 0.3133 -0.0538 0.9481
vn 0.3786 -0.0011 0.9256
vn 0.3897 0.1795 0.9033
vn 0.3312 0.1148 0.9366
vn 0.7872 0.2236 0.5748
vn 0.8350 0.0449 0.5484
vn 0.9427 0.0866 0.3222
vn -0.2406 0.9432 -0.2292
vn -0.3539 0.9185 -0.1765
vn -0.3269 0.9345 -0.1409
vn -0.2526 0.9308 -0.2641
vn -0.3690 0.9015 -0.2260
vn 0.1560 0.9447 -0.2884
vn -0.1614 0.9357 -0.3136
vn -0.9966 -0.0468 -0.0678
vn -0.9898 -0.0485 -0.1342
vn -0.9858 -0.1273 -0.1092
vn -0.9924 -0.1174 -0.0361
vn -0.0001 1.0000 -0.0023
vn 0.1213 0.9919 0.0371
vn 0.1092 0.9940 -0.0078
vn -0.1101 0.9939 -0.0071
vn -0.2568 0.9167 -0.3062
vn -0.1559 0.9279 -0.3387
vn -0.9358 -0.0670 -0.3460
vn -0.9271 -0.1285 -0.3522
vn -0.9580 -0.1315 -0.2549
vn -0.9669 -0.0644 -0.2470
vn 0.8316 0.5160 0.2054
vn 0.8416 0.5240 0.1311
vn 0.8165 0.5704 0.0889
vn 0.7886 0.5866 0.1845
vn 0.1397 0.9745 0.1758
vn 0.2905 0.9445 0.1537
vn 0.2511 0.9662 0.0582
vn 0.1290 0.9881 0.0836
vn -0.4540 0.8802 0.1385
vn -0.3063 0.9361 0.1730
vn -0.2565 0.9647 0.0599
vn -0.3799 0.9242 0.0393
vn 0.2189 0.8781 -0.4255
vn 0.2403 0.8897 -0.3881
vn 0.3424 0.8466 -0.4076
vn 0.3082 0.8319 -0.4616
vn -0.9588 -0.1623 0.2331
vn -0.9867 -0.1578 0.0389
vn 0.1497 0.9194 -0.3638
vn -0.3380 0.7654 -0.5477
vn -0.4014 0.7761 -0.4864
vn -0.3082 0.8319 -0.4616
vn -0.2627 0.8192 -0.5098
vn -0.6655 0.7449 -0.0481
vn -0.7435 0.6680 -0.0324
vn -0.6905 0.7227 0.0286
vn -0.6195 0.7850 -0.0029
vn 0.9142 0.1843 -0.3609
vn 0.9367 0.0378 -0.3481
vn 0.8637 0.0478 -0.5017
vn 0.8409 0.1965 -0.5042
vn -0.4768 0.8789 -0.0172
vn -0.5769 0.8167 0.0121
vn -0.5174 0.8553 0.0266
vn -0.8298 0.5175 -0.2087
vn -0.7454 0.6335 -0.2076
vn -0.7352 0.6046 -0.3064
vn -0.8157 0.4916 -0.3049
vn 0.5030 0.8253 -0.2566
vn 0.4869 0.8053 -0.3382
vn 0.3640 0.8631 -0.3502
vn 0.3729 0.8820 -0.2881
vn 0.1329 0.9133 -0.3850
vn -0.5195 -0.1792 -0.8355
vn -0.7110 -0.1511 -0.6868
vn -0.5572 -0.1903 -0.8083
vn -0.6357 0.5783 -0.5113
vn -0.5109 0.6976 -0.5023
vn -0.4296 0.6923 -0.5797
vn -0.3620 0.9322 -0.0022
vn -0.4685 0.8829 0.0320
vn -0.6401 0.7657 0.0630
vn 0.2944 0.3862 0.8742
vn 0.3689 0.4488 0.8139
vn 0.4522 0.7896 -0.4148
vn 0.5782 0.7045 -0.4116
vn 0.5143 0.6953 -0.5020
vn 0.4014 0.7761 -0.4864
vn -0.1870 0.8681 -0.4598
vn 0.3388 0.8836 0.3232
vn 0.4419 0.7534 0.4869
vn 0.5864 0.7338 0.3430
vn 0.5121 0.8243 0.2413
vn -0.1155 0.9061 -0.4070
vn 0.8736 0.4504 0.1845
vn 0.9050 0.3549 0.2345
vn 0.9206 0.3835 0.0734
vn 0.8554 0.5175 0.0212
vn 0.4315 0.8940 0.1207
vn 0.3680 0.9292 0.0343
vn -0.9955 0.0135 0.0939
vn -0.9919 -0.0513 0.1160
vn -0.9551 -0.0764 0.2863
vn -0.9632 -0.0011 0.2688
vn -0.0894 0.9025 -0.4213
vn 0.1155 0.9061 -0.4070
vn 0.1870 0.8681 -0.4598
vn 0.1491 0.8596 -0.4887
vn 0.0894 0.9025 -0.4213
vn -0.2005 0.9795 -0.0171
vn -0.0880 0.9944 -0.0582
vn -0.1549 0.9860 -0.0623
vn 0.6766 0.6855 0.2689
vn 0.6029 0.7710 0.2053
vn 0.1916 -0.5540 0.8101
vn 0.2774 -0.2640 0.9238
vn 0.2612 0.0397 -0.9645
vn -0.0000 0.0990 -0.9951
vn -0.0000 -0.0812 -0.9967
vn 0.2757 -0.1249 -0.9531
vn -0.0631 0.8973 -0.4370
vn 0.2627 0.8192 -0.5098
vn -0.0573 0.9906 -0.1242
vn -0.5425 0.8393 -0.0364
vn -0.3812 0.9231 -0.0505
vn -0.4440 0.8923 -0.0817
vn -0.8553 0.5167 0.0386
vn -0.8367 0.5289 0.1422
vn -0.7997 0.5913 0.1043
vn -0.7958 0.6055 -0.0088
vn -0.7393 0.6623 -0.1214
vn -0.8339 0.5399 -0.1146
vn -0.3885 0.2100 0.8972
vn -0.3986 0.3853 0.8323
vn -0.4878 0.5928 0.6409
vn -0.5416 0.3511 0.7638
vn -0.7058 0.4153 0.5740
vn -0.5939 0.7766 0.2100
vn -0.5167 0.8107 0.2754
vn -0.5401 0.8338 0.1140
vn 0.3380 0.7654 -0.5477
vn 0.2526 0.9308 -0.2641
vn 0.3690 0.9015 -0.2259
vn -0.7043 0.6999 0.1183
vn -0.6493 0.7430 0.1623
vn -0.5896 0.8019 0.0969
vn 0.8333 0.5407 -0.1146
vn 0.9148 0.3914 -0.0996
vn 0.8984 0.3871 -0.2073
vn 0.8311 0.5154 -0.2088
vn -0.4793 0.8699 -0.1166
vn 0.2074 0.8090 -0.5500
vn 0.2639 0.7581 -0.5964
vn 0.1794 0.7531 -0.6330
vn 0.1432 0.8014 -0.5807
vn 0.7259 0.4047 0.5561
vn -0.1924 -0.5697 0.7990
vn -0.3583 -0.4711 0.8060
vn -0.7512 0.6568 0.0651
vn 0.3348 0.6912 -0.6405
vn 0.4315 0.6914 -0.5795
vn 0.0729 0.7965 -0.6002
vn 0.0894 0.7492 -0.6563
vn 0.9555 -0.1754 0.2372
vn 0.9854 -0.1640 0.0450
vn 0.9897 0.0522 0.1331
vn -0.7822 0.4746 -0.4035
vn -0.7007 0.5849 -0.4085
vn 0.8001 0.5992 -0.0287
vn 0.7463 0.6635 -0.0532
vn -0.0315 0.8967 -0.4415
vn 0.5803 0.1276 0.8043
vn -0.0000 0.8941 -0.4478
vn 0.8546 -0.2204 0.4702
vn 0.4247 0.5839 -0.6919
vn -0.5378 0.3932 -0.7458
vn 0.4966 0.4741 -0.7270
vn -0.8022 0.3225 -0.5024
vn -0.0061 0.9822 0.1875
vn -0.1029 0.8536 -0.5107
vn -0.2074 0.8090 -0.5500
vn -0.1432 0.8014 -0.5807
vn -0.1794 0.7531 -0.6330
vn -0.2639 0.7581 -0.5964
vn 0.4791 0.8699 -0.1173
vn 0.4446 0.8919 -0.0823
vn 0.9317 0.1798 0.3157
vn 0.9459 0.0847 0.3132
vn 0.9489 0.1770 0.2614
vn -0.1532 0.9700 0.1887
vn -0.8637 0.0478 -0.5017
vn -0.8409 0.1965 -0.5042
vn -0.7539 0.0507 -0.6550
vn 0.9810 0.1716 0.0909
vn 0.9929 0.0627 -0.1006
vn 0.9837 0.1538 -0.0933
vn 0.3760 0.3814 -0.8445
vn 0.3943 0.2725 -0.8777
vn 0.1960 0.2451 -0.9495
vn 0.1909 0.3647 -0.9113
vn -0.5933 0.1481 0.7913
vn -0.7903 0.2185 0.5724
vn -0.8417 0.0519 0.5374
vn -0.6366 -0.0570 0.7691
vn 0.3461 0.4735 -0.8099
vn 0.1738 0.4726 -0.8639
vn -0.3470 0.4717 -0.8106
vn -0.2902 0.5879 -0.7551
vn -0.2251 0.6916 -0.6863
vn -0.0000 0.2316 -0.9728
vn 0.0002 0.3569 -0.9342
vn -0.6053 0.0505 -0.7944
vn -0.4029 0.1599 -0.9012
vn -0.4080 0.0467 -0.9118
vn 0.8806 0.4127 0.2327
vn 0.6692 0.4015 -0.6253
vn 0.5371 0.3950 -0.7453
vn 0.5678 0.2974 -0.7675
vn -0.8332 0.4039 0.3777
vn -0.1204 0.5600 0.8197
vn 0.0872 0.4933 0.8655
vn 0.1816 0.7046 0.6860
vn -0.0014 0.7755 0.6313
vn 0.7039 0.3158 -0.6362
vn -0.3764 0.3796 -0.8451
vn -0.1907 0.3636 -0.9118
vn 0.3852 0.9213 -0.0534
vn -0.5895 0.8042 -0.0755
vn 0.9207 -0.1491 -0.3606
vn -0.1491 0.8596 -0.4887
vn -0.8382 -0.0884 0.5382
vn -0.6390 -0.1564 0.7532
vn -0.5151 -0.0215 0.8568
vn -0.6744 -0.0247 0.7379
vn 0.9358 -0.0670 -0.3460
vn 0.9271 -0.1285 -0.3522
vn 0.8540 -0.1403 -0.5010
vn 0.8648 -0.0699 -0.4972
vn -0.1959 0.2448 -0.9496
vn -0.3943 0.2721 -0.8778
vn 0.7452 0.5939 0.3033
vn 0.6556 0.6001 0.4583
vn 0.5034 0.5516 0.6650
vn 0.5481 0.3129 0.7756
vn -0.0000 0.1277 -0.9918
vn -0.1932 0.1380 -0.9714
vn 0.6053 0.0505 -0.7944
vn 0.6097 -0.0827 -0.7883
vn 0.4106 -0.0865 -0.9077
vn 0.4080 0.0467 -0.9118
vn 0.7645 0.4025 -0.5035
vn 0.4029 0.1599 -0.9012
vn 0.1902 0.0384 -0.9810
vn 0.1932 0.1380 -0.9714
vn -0.0000 0.0338 -0.9994
vn -0.3136 0.2453 0.9173
vn -0.0611 0.2099 0.9758
vn 0.9287 0.2625 0.2620
vn 0.9114 0.2624 0.3171
vn -0.3424 0.8466 -0.4076
vn -0.4522 0.7896 -0.4148
vn -0.5739 0.7079 -0.4118
vn -0.8589 -0.2136 0.4655
vn -0.9461 0.2581 -0.1958
vn -0.9727 0.1442 -0.1819
vn -0.9837 0.1538 -0.0933
vn -0.9630 0.2535 -0.0920
vn 0.4997 0.8479 -0.1769
vn 0.7955 0.5549 0.2434
vn 0.7326 0.6364 0.2413
vn 0.4070 -0.1832 -0.8949
vn 0.1900 -0.1831 -0.9646
vn 0.1897 -0.0883 -0.9779
vn -0.0000 -0.0887 -0.9961
vn -0.1897 -0.0883 -0.9779
vn -0.1902 0.0384 -0.9810
vn -0.9142 0.1843 -0.3609
vn -0.8709 0.3116 -0.3801
vn -0.2537 0.9024 -0.3483
vn -0.3640 0.8631 -0.3502
vn 0.4885 -0.1522 -0.8592
vn 0.3782 -0.1755 -0.9089
vn -0.6137 0.7228 -0.3177
vn -0.4869 0.8053 -0.3382
vn -0.3729 0.8820 -0.2881
vn -0.4106 -0.0865 -0.9077
vn -0.6097 -0.0827 -0.7883
vn -0.1900 -0.1831 -0.9646
vn -0.4070 -0.1832 -0.8949
vn -0.0000 -0.1811 -0.9835
vn -0.5030 0.8253 -0.2566
vn -0.4999 0.8479 -0.1767
vn -0.6293 0.7444 -0.2233
vn 0.5726 0.8197 -0.0140
vn -0.9810 0.1716 0.0909
vn -0.9481 0.1785 0.2630
vn -0.9245 0.2697 0.2693
vn -0.9604 0.2621 0.0946
vn -0.6221 0.7705 -0.1392
vn -0.9159 0.3883 -0.1012
vn -0.8979 0.3877 -0.2084
vn -0.3344 0.6913 -0.6405
vn -0.2822 0.9536 -0.1044
vn -0.0000 -0.2086 -0.9780
vn -0.1934 -0.2113 -0.9581
vn -0.1990 -0.2172 -0.9556
vn -0.0000 -0.2142 -0.9768
vn 0.6227 0.7693 -0.1428
vn 0.5902 0.1784 -0.7873
vn -0.8353 -0.1384 -0.5321
vn 0.9727 0.1442 -0.1819
vn 0.9820 0.0377 -0.1853
vn 0.9712 0.0299 -0.2365
vn 0.9558 0.1597 -0.2467
vn 0.9982 0.0178 0.0579
vn 0.9309 0.2730 0.2425
vn 0.7347 0.1915 -0.6508
vn 0.9477 -0.0059 0.3192
vn 0.3540 0.9185 -0.1760
vn 0.8021 0.3227 -0.5025
vn -0.2179 0.9731 -0.0747
vn -0.2920 0.9560 -0.0278
vn 0.6321 0.7416 -0.2248
vn 0.9966 -0.0468 -0.0678
vn 0.9898 -0.0485 -0.1342
vn 0.9812 -0.0384 -0.1892
vn 0.9954 0.0084 -0.0959
vn -0.8706 0.3910 -0.2986
vn 0.8276 0.3976 -0.3963
vn 0.8708 0.3116 -0.3801
vn 0.7046 0.5808 -0.4077
vn 0.7829 0.4735 -0.4036
vn 0.8714 0.3890 -0.2988
vn 0.8170 0.4891 -0.3053
vn -0.7663 0.6245 0.1508
vn -0.7097 0.6796 0.1856
vn -0.2178 0.9146 0.3408
vn 0.6177 0.7192 -0.3181
vn 0.7480 0.6296 -0.2100
vn 0.7388 0.6001 -0.3068
vn 0.6635 0.7247 0.1859
vn -0.9186 0.2837 -0.2753
vn 0.2457 0.8240 0.5105
vn 0.9001 -0.0369 -0.4342
vn 0.9046 0.0055 -0.4262
vn 0.7555 0.0128 -0.6551
vn 0.7642 0.0001 -0.6450
vn -0.3110 0.8353 0.4533
vn 0.9826 -0.1198 0.1423
vn 0.9924 -0.1174 -0.0361
vn 0.9919 -0.0513 0.1160
vn 0.7396 0.6609 -0.1272
vn -0.9558 0.1597 -0.2467
vn -0.9367 0.0378 -0.3481
vn 0.7539 0.0507 -0.6550
vn -0.9318 -0.3480 -0.1026
vn -0.8897 -0.4340 0.1418
vn -0.4489 0.7763 0.4426
vn -0.3817 0.8616 0.3345
vn 0.9383 -0.0858 0.3351
vn 0.9551 -0.0764 0.2863
vn -0.7564 -0.0767 -0.6496
vn -0.8648 -0.0699 -0.4972
vn -0.3427 0.1400 0.9289
vn -0.3808 0.2982 0.8753
vn 0.2360 -0.2247 -0.9454
vn -0.0000 -0.2098 -0.9778
vn -0.0000 -0.2298 -0.9732
vn 0.2092 -0.2339 -0.9495
vn -0.6011 -0.1743 -0.7799
vn 0.8424 -0.1618 -0.5141
vn 0.7309 -0.1829 -0.6575
vn 0.7448 -0.1583 -0.6483
vn -0.3559 0.7184 0.5977
vn -0.1950 0.7690 0.6088
vn -0.3382 0.5457 0.7667
vn -0.5906 -0.2018 -0.7813
vn -0.7309 -0.1829 -0.6575
vn -0.7448 -0.1583 -0.6483
vn -0.8424 -0.1618 -0.5141
vn -0.8540 -0.1403 -0.5010
vn 0.9609 0.2609 0.0929
vn 0.9628 0.2541 -0.0918
vn -0.4043 -0.2120 -0.8897
vn 0.4043 -0.2120 -0.8897
vn 0.4013 -0.2157 -0.8902
vn 0.1990 -0.2172 -0.9556
vn 0.1934 -0.2113 -0.9581
vn 0.9441 -0.1332 0.3017
vn 0.5969 -0.6173 0.5125
vn 0.8141 -0.4571 0.3582
vn 0.7187 -0.0861 -0.6900
vn 0.7071 -0.1218 -0.6966
vn 0.6011 -0.1743 -0.7799
vn 0.5906 -0.2018 -0.7813
vn -0.4013 -0.2157 -0.8902
vn -0.9712 0.0299 -0.2365
vn -0.9820 0.0377 -0.1853
vn -0.5791 -0.1987 -0.7906
vn -0.7196 -0.1750 -0.6720
vn -0.2092 -0.2339 -0.9495
vn -0.2306 0.9729 0.0168
vn -0.8344 -0.1560 -0.5287
vn -0.3926 -0.2269 -0.8913
vn 0.7564 -0.0767 -0.6496
vn -0.8987 0.3744 0.2283
vn 0.9186 0.2837 -0.2753
vn -0.2360 -0.2247 -0.9454
vn -0.3822 -0.2274 -0.8956
vn 0.9460 0.2584 -0.1957
vn 0.9773 -0.1967 -0.0789
vn 0.2039 0.0589 0.9772
vn -0.2008 -0.0536 0.9782
vn 0.9669 -0.0644 -0.2470
vn 0.2433 0.3465 0.9060
vn 0.3205 0.6955 0.6431
vn 0.5791 -0.1987 -0.7906
vn -0.9207 -0.1491 -0.3606
vn -0.9173 -0.1415 -0.3722
vn -0.9179 -0.1480 -0.3682
vn 0.5813 0.8100 0.0776
vn 0.5181 0.8498 0.0966
vn -0.9628 -0.1578 -0.2192
vn -0.9557 -0.1527 -0.2516
vn -0.9197 0.3839 0.0819
vn -0.9043 0.2735 0.3279
vn -0.3144 -0.2710 0.9098
vn -0.2757 -0.1249 -0.9531
vn -0.3782 -0.1755 -0.9089
vn -0.4885 -0.1522 -0.8592
vn -0.2612 0.0397 -0.9645
vn 0.9216 -0.1490 0.3583
vn -0.8319 0.5269 0.1741
vn 0.9534 -0.1370 -0.2687
vn 0.9200 -0.1300 -0.3698
vn -0.9216 -0.1490 0.3583
vn -0.9441 -0.1332 0.3017
vn -0.9323 -0.1773 0.3154
vn -0.9047 -0.2027 0.3748
vn -0.9668 -0.2008 0.1580
vn -0.9726 -0.1739 0.1545
vn 0.3493 -0.0518 0.9356
vn -0.9835 -0.1794 -0.0243
vn 0.9835 -0.1794 -0.0243
vn 0.9726 -0.1739 0.1545
vn -0.9734 -0.2119 -0.0873
vn -0.8273 0.3986 -0.3958
vn -0.6425 -0.3510 0.6811
vn -0.9812 -0.0384 -0.1892
vn 0.9858 -0.1273 -0.1092
vn -0.9789 -0.1994 -0.0443
vn -0.8945 -0.4261 -0.1352
vn -0.9929 0.0627 -0.1006
vn -0.9954 0.0084 -0.0959
vn -0.7334 -0.6271 0.2623
vn -0.9925 0.0851 0.0877
vn -0.1355 -0.7923 0.5948
vn -0.3012 -0.7008 0.6467
vn 0.3136 0.1579 0.9363
vn -0.8147 -0.4561 0.3580
vn -0.5973 -0.6170 0.5123
vn 0.8891 -0.4352 0.1419
vn 0.9230 -0.3828 -0.0403
vn -0.9638 -0.1369 -0.2288
vn -0.8010 0.5638 0.2013
vn 0.9634 -0.1651 -0.2113
vn 0.8344 -0.1560 -0.5287
vn 0.7196 -0.1750 -0.6720
vn 0.9654 -0.1588 -0.2067
vn 0.7110 -0.1511 -0.6868
vn 0.8353 -0.1384 -0.5321
vn -0.7258 -0.2679 0.6336
vn -0.4172 -0.4835 0.7695
vn -0.2430 0.5702 0.7847
vn 0.8488 -0.1132 -0.5165
vn 0.9640 -0.1408 -0.2253
vn -0.9046 0.0055 -0.4262
vn -0.9490 -0.0941 -0.3009
vn -0.9408 -0.1012 -0.3237
vn 0.2711 0.5833 0.7657
vn 0.8729 -0.0828 -0.4808
vn -0.9194 -0.1097 -0.3777
vn -0.9534 -0.1370 -0.2687
vn -0.9200 -0.1300 -0.3698
vn -0.0000 0.1214 -0.9926
vn -0.3297 0.0584 -0.9423
vn 0.3297 0.0584 -0.9423
vn 0.9408 -0.1012 -0.3237
vn 0.9194 -0.1097 -0.3777
vn -0.3907 -0.1471 -0.9087
vn -0.4980 -0.1015 -0.8612
vn -0.1276 -0.3877 -0.9129
vn -0.1271 -0.4039 -0.9059
vn -0.5391 -0.8422 -0.0033
vn -0.7555 0.0128 -0.6551
vn -0.9826 -0.1198 0.1423
vn 0.9490 -0.0941 -0.3009
vn 0.4980 -0.1015 -0.8612
vn -0.9640 -0.1408 -0.2253
vn -0.9383 -0.0858 0.3351
vn -0.9616 0.0849 0.2610
vn -0.9300 0.1827 0.3190
vn -0.9459 0.0848 0.3133
vn -0.1558 -0.1569 0.9752
vn -0.1301 0.0819 0.9881
vn -0.1510 0.0777 0.9855
vn -0.0597 -0.3809 0.9227
vn 0.8855 -0.4430 -0.1398
vn -0.9477 -0.0059 0.3192
vn 0.7334 -0.6271 0.2623
vn 0.9323 -0.1773 0.3154
vn 0.9047 -0.2027 0.3748
vn 0.9668 -0.2008 0.1580
vn 0.9734 -0.2119 -0.0873
vn -0.9116 -0.1669 0.3758
vn 0.3907 -0.1471 -0.9087
vn -0.4926 -0.5667 0.6605
vn 0.0422 -0.6698 0.7414
vn 0.3307 -0.8065 0.4901
vn 0.1797 0.0733 0.9810
vn 0.1528 0.0846 0.9846
vn 0.1630 -0.1500 0.9752
vn 0.0663 -0.3710 0.9263
vn 0.2968 -0.6994 0.6502
vn 0.1337 -0.7917 0.5960
vn -0.1554 -0.9706 -0.1837
vn 0.7165 -0.4733 -0.5125
vn 0.0455 -0.8352 -0.5480
vn -0.8165 -0.4854 0.3127
vn 0.7299 -0.4545 -0.5105
vn -0.8125 -0.5077 0.2866
vn 0.7374 -0.4479 -0.5057
vn -0.8075 -0.5369 0.2442
vn 0.7546 -0.4343 -0.4919
vn -0.8047 -0.5634 0.1874
vn 0.7667 -0.4265 -0.4799
vn -0.8039 -0.5759 0.1486
vn 0.1040 -0.3814 -0.9186
vn -0.6415 -0.4644 -0.6106
vn -0.9003 0.1275 -0.4162
vn -0.1812 -0.1328 -0.9744
vn -0.2533 -0.3051 -0.9180
vn -0.1905 -0.1375 -0.9720
vn -0.8966 0.1183 -0.4267
vn -0.1733 -0.1311 -0.9761
vn -0.3156 -0.2226 -0.9224
vn -0.3543 -0.7497 0.5590
vn -0.8898 0.0859 -0.4482
vn 0.1373 -0.9706 -0.1975
vn -0.6273 -0.1609 0.7620
vn -0.2192 0.0635 0.9736
vn 0.8196 -0.4759 0.3189
vn -0.5395 -0.2178 0.8133
vn 0.8159 -0.5002 0.2901
vn -0.4438 -0.2866 0.8491
vn 0.8085 -0.5432 0.2264
vn 0.8041 -0.5683 0.1746
vn 0.8033 -0.5772 0.1467
vn 0.6411 -0.4648 -0.6108
vn 0.1787 -0.1279 -0.9756
vn 0.3062 -0.2111 -0.9283
vn -0.3708 -0.3507 0.8600
vn 0.2552 -0.3024 -0.9184
vn 0.1909 -0.1377 -0.9719
vn 0.3469 -0.7493 0.5641
vn 0.5386 -0.8426 -0.0036
vn 0.1271 -0.4039 -0.9059
vn 0.1276 -0.3877 -0.9129
vn -0.4781 -0.8747 -0.0789
vn -0.3383 -0.3949 0.8542
vn -0.1132 -0.3619 -0.9253
vn 0.6276 -0.1607 0.7618
vn 0.2587 0.0392 0.9652
vn 0.5395 -0.2178 0.8133
vn 0.4438 -0.2866 0.8491
vn 0.4781 -0.8747 -0.0789
vn 0.3383 -0.3949 0.8542
vn 0.3708 -0.3507 0.8600
vn 0.1132 -0.3619 -0.9253
vt 0.000000 0.000000
s 1
f 1/1/1 2/1/2 3/1/3
f 1/1/1 3/1/3 4/1/4
f 2/1/2 5/1/5 3/1/3
f 27/1/6 33/1/7 25/1/8 22/1/9
f 5/1/5 8/1/10 3/1/3
f 7/1/11 6/1/12 9/1/13
f 8/1/10 10/1/14 3/1/3
f 9/1/13 6/1/12 11/1/15
f 9/1/13 11/1/15 12/1/16
f 6/1/12 3/1/3 13/1/17
f 6/1/12 14/1/18 11/1/15
f 6/1/12 13/1/17 14/1/18
f 10/1/14 15/1/19 3/1/3
f 11/1/15 16/1/20 12/1/16
f 11/1/15 17/1/21 16/1/20
f 11/1/15 18/1/22 17/1/21
f 503/1/23 524/1/24 510/1/25 504/1/26
f 15/1/19 20/1/27 3/1/3
f 15/1/19 21/1/28 22/1/9
f 3/1/3 20/1/27 19/1/29 13/1/17
f 15/1/19 22/1/9 20/1/27
f 21/1/28 24/1/30 22/1/9
f 22/1/9 25/1/8 23/1/31
f 22/1/9 24/1/30 26/1/32
f 312/1/33 335/1/34 331/1/35 324/1/36
f 22/1/9 28/1/37 27/1/6
f 22/1/9 26/1/32 29/1/38
f 22/1/9 29/1/38 28/1/37
f 23/1/31 25/1/8 30/1/39
f 25/1/8 31/1/40 30/1/39
f 25/1/8 32/1/41 31/1/40
f 25/1/8 33/1/7 32/1/41
f 32/1/41 34/1/42 31/1/40
f 31/1/40 34/1/42 35/1/43
f 31/1/40 35/1/43 36/1/44
f 31/1/40 36/1/44 37/1/45
f 652/1/46 645/1/47 638/1/48 636/1/49
f 38/1/50 42/1/51 39/1/52
f 38/1/50 43/1/53 42/1/51
f 183/1/54 291/1/55 182/1/56 174/1/57
f 39/1/52 42/1/51 45/1/58
f 50/1/59 51/1/60 43/1/53 44/1/61
f 47/1/62 52/1/63 44/1/61 41/1/64
f 462/1/65 486/1/66 454/1/67 452/1/68
f 44/1/61 52/1/63 53/1/69 50/1/59
f 537/1/70 552/1/71 528/1/72 529/1/73
f 43/1/53 51/1/60 42/1/51
f 587/1/74 593/1/75 590/1/76 588/1/77
f 567/1/78 573/1/79 570/1/80 565/1/81
f 45/1/58 42/1/51 54/1/82
f 172/1/83 180/1/84 174/1/57 166/1/85
f 184/1/86 192/1/87 193/1/88 186/1/89
f 63/1/90 101/1/91 100/1/92 94/1/93
f 53/1/69 69/1/94 60/1/95 50/1/59
f 607/1/96 616/1/97 613/1/98 606/1/99
f 54/1/82 58/1/100 48/1/101 45/1/58
f 394/1/102 415/1/103 416/1/104 395/1/105
f 51/1/60 61/1/106 42/1/51
f 70/1/107 71/1/108 61/1/106 60/1/95
f 54/1/82 42/1/51 62/1/109
f 285/1/110 286/1/111 199/1/112 281/1/113
f 629/1/114 630/1/115 457/1/116 622/1/117
f 693/1/118 697/1/119 698/1/120 695/1/121
f 69/1/94 271/1/122 70/1/107 60/1/95
f 87/1/123 287/1/124 79/1/125 78/1/126
f 687/1/127 689/1/128 678/1/129 688/1/130
f 507/1/131 509/1/132 497/1/133 498/1/134
f 61/1/106 71/1/108 42/1/51
f 325/1/135 294/1/136 287/1/124 321/1/137
f 62/1/109 42/1/51 72/1/138
f 185/1/139 187/1/140 178/1/141 177/1/142
f 453/1/143 462/1/65 452/1/68 415/1/103
f 271/1/122 265/1/144 81/1/145 70/1/107
f 102/1/146 250/1/147 249/1/148 242/1/149
f 288/1/150 571/1/151 295/1/152 289/1/153
f 109/1/154 116/1/155 117/1/156 114/1/157
f 71/1/108 80/1/158 42/1/51
f 72/1/138 75/1/159 67/1/160 62/1/109
f 72/1/138 42/1/51 82/1/161
f 88/1/162 89/1/163 80/1/158 81/1/145
f 432/1/164 425/1/165 369/1/166 431/1/167
f 157/1/168 164/1/169 161/1/170 156/1/171
f 162/1/172 176/1/173 169/1/174 163/1/175
f 239/1/176 245/1/177 208/1/178 207/1/179
f 158/1/180 470/1/181 152/1/182 153/1/183
f 80/1/158 89/1/163 42/1/51
f 82/1/161 42/1/51 90/1/184
f 179/1/185 206/1/186 167/1/187 171/1/188
f 537/1/70 555/1/189 559/1/190 552/1/71
f 691/1/191 692/1/192 617/1/193 690/1/194
f 593/1/75 600/1/195 599/1/196 598/1/197
f 75/1/159 83/1/198 84/1/199 76/1/200
f 91/1/201 83/1/198 82/1/161 90/1/184
f 91/1/201 92/1/202 84/1/199 83/1/198
f 89/1/163 97/1/203 42/1/51
f 90/1/184 42/1/51 98/1/204
f 434/1/205 467/1/206 466/1/207 460/1/208
f 55/1/209 94/1/93 86/1/210 85/1/211
f 63/1/90 94/1/93 55/1/209 56/1/212
f 97/1/203 102/1/146 42/1/51
f 98/1/204 104/1/213 91/1/201 90/1/184
f 98/1/204 42/1/51 103/1/214
f 383/1/215 487/1/216 474/1/217 473/1/218
f 578/1/219 579/1/220 574/1/221 572/1/222
f 307/1/223 313/1/224 292/1/225 300/1/226
f 127/1/227 134/1/228 73/1/229 74/1/230
f 231/1/231 248/1/232 236/1/233 230/1/234
f 478/1/235 486/1/66 462/1/65 468/1/236
f 242/1/149 249/1/148 248/1/232 241/1/237
f 103/1/214 42/1/51 109/1/154
f 144/1/238 145/1/239 122/1/240 137/1/241
f 131/1/242 341/1/243 138/1/244 132/1/245
f 322/1/246 345/1/247 326/1/248 323/1/249
f 106/1/250 111/1/251 112/1/252
f 328/1/253 329/1/254 304/1/255 305/1/256
f 262/1/257 258/1/258 255/1/259 256/1/260
f 109/1/154 42/1/51 116/1/155
f 241/1/237 248/1/232 231/1/231 234/1/261
f 38/1/50 41/1/64 44/1/61 43/1/53
f 519/1/262 529/1/73 512/1/263 513/1/264
f 166/1/85 175/1/265 151/1/266 159/1/267
f 66/1/268 120/1/269 74/1/230
f 138/1/244 139/1/270 111/1/251 132/1/245
f 626/1/271 690/1/194 617/1/193 618/1/272
f 237/1/273 243/1/274 238/1/275 235/1/276
f 137/1/241 122/1/240 117/1/156 130/1/277
f 320/1/278 551/1/279 550/1/280 549/1/281
f 116/1/155 42/1/51 124/1/282
f 584/1/283 591/1/284 585/1/285 580/1/286
f 307/1/223 324/1/36 320/1/278 313/1/224
f 314/1/287 293/1/288 292/1/225 313/1/224
f 428/1/289 442/1/290 435/1/291 430/1/292
f 124/1/282 42/1/51 129/1/293
f 219/1/294 229/1/295 213/1/296 214/1/297
f 57/1/298 56/1/212 46/1/299 49/1/300
f 550/1/280 562/1/301 556/1/302 549/1/281
f 696/1/303 697/1/119 693/1/118 694/1/304
f 433/1/305 533/1/306 424/1/307 427/1/308
f 129/1/293 42/1/51 136/1/309
f 214/1/297 213/1/296 206/1/186 179/1/185
f 231/1/231 230/1/234 224/1/310 229/1/295
f 47/1/62 41/1/64 40/1/311 46/1/299
f 105/1/312 106/1/250 77/1/313 99/1/314
f 388/1/315 423/1/316 397/1/317 348/1/318
f 334/1/319 356/1/320 348/1/318 341/1/243
f 508/1/321 515/1/322 502/1/323 501/1/324
f 463/1/325 501/1/324 502/1/323 470/1/181
f 133/1/326 147/1/327 127/1/227 128/1/328
f 230/1/234 235/1/276 225/1/329 224/1/310
f 96/1/330 257/1/331 256/1/260 250/1/147
f 140/1/332 141/1/333 121/1/334 139/1/270
f 581/1/335 586/1/336 309/1/337 302/1/338
f 93/1/339 99/1/314 76/1/200 84/1/199
f 218/1/340 223/1/341 191/1/342 198/1/343
f 105/1/312 132/1/245 111/1/251 106/1/250
f 575/1/344 600/1/195 593/1/75 587/1/74
f 488/1/345 498/1/134 497/1/133 489/1/346
f 396/1/347 140/1/332 139/1/270 138/1/244
f 191/1/342 223/1/341 200/1/348 192/1/87
f 225/1/329 232/1/349 200/1/348 223/1/341
f 168/1/350 198/1/343 191/1/342 188/1/351
f 167/1/187 206/1/186 198/1/343 168/1/350
f 602/1/352 603/1/353 594/1/354 598/1/197
f 299/1/355 305/1/256 304/1/255 303/1/356
f 576/1/357 577/1/358 570/1/80 573/1/79
f 136/1/309 42/1/51 160/1/359
f 167/1/187 168/1/350 161/1/170 164/1/169
f 693/1/118 695/1/121 608/1/360 692/1/192
f 165/1/361 171/1/188 167/1/187 164/1/169
f 160/1/359 42/1/51 165/1/361
f 255/1/259 258/1/258 237/1/273 236/1/233
f 96/1/330 250/1/147 102/1/146 97/1/203
f 60/1/95 61/1/106 51/1/60 50/1/59
f 698/1/120 699/1/362 599/1/196 695/1/121
f 162/1/172 163/1/175 156/1/171 161/1/170
f 162/1/172 188/1/351 184/1/86 176/1/173
f 191/1/342 192/1/87 184/1/86 188/1/351
f 165/1/361 42/1/51 171/1/188
f 200/1/348 201/1/363 193/1/88 192/1/87
f 180/1/84 189/1/364 183/1/54 174/1/57
f 201/1/363 207/1/179 208/1/178 204/1/365
f 290/1/366 291/1/55 183/1/54 286/1/111
f 100/1/92 306/1/367 307/1/223 300/1/226
f 136/1/309 160/1/359 157/1/168 155/1/368
f 171/1/188 42/1/51 179/1/185
f 143/1/369 149/1/370 150/1/371 148/1/372
f 288/1/150 289/1/153 264/1/373 282/1/374
f 40/1/311 41/1/64 38/1/50 39/1/52
f 604/1/375 612/1/376 607/1/96 605/1/377
f 177/1/142 178/1/141 169/1/174 176/1/173
f 107/1/378 306/1/367 100/1/92 101/1/91
f 376/1/379 377/1/380 285/1/110 372/1/381
f 479/1/382 606/1/99 471/1/383 472/1/384
f 202/1/385 222/1/386 209/1/387 203/1/388
f 500/1/389 493/1/390 492/1/391 499/1/392
f 196/1/393 194/1/394 186/1/89 193/1/88
f 178/1/141 187/1/140 181/1/395 173/1/396
f 169/1/174 178/1/141 173/1/396 170/1/397
f 209/1/387 215/1/398 195/1/399 203/1/388
f 280/1/400 281/1/113 217/1/401 276/1/402
f 583/1/403 584/1/283 579/1/220 578/1/219
f 204/1/365 208/1/178 211/1/404 210/1/405
f 204/1/365 210/1/405 202/1/385 196/1/393
f 216/1/406 222/1/386 202/1/385 210/1/405
f 608/1/360 695/1/121 599/1/196 600/1/195
f 230/1/234 236/1/233 237/1/273 235/1/276
f 463/1/325 470/1/181 158/1/180 455/1/407
f 534/1/408 634/1/409 543/1/410 535/1/411
f 211/1/404 267/1/412 216/1/406 210/1/405
f 180/1/84 181/1/395 190/1/413 189/1/364
f 195/1/399 197/1/414 187/1/140 185/1/139
f 278/1/415 282/1/374 265/1/144 271/1/122
f 93/1/339 126/1/416 105/1/312 99/1/314
f 202/1/385 203/1/388 194/1/394 196/1/393
f 636/1/49 638/1/48 448/1/417 630/1/115
f 156/1/171 163/1/175 150/1/371 149/1/370
f 135/1/418 155/1/368 149/1/370 143/1/369
f 659/1/419 664/1/420 650/1/421 651/1/422
f 179/1/185 42/1/51 214/1/297
f 344/1/423 449/1/424 338/1/425 339/1/426
f 205/1/427 212/1/428 190/1/413 197/1/414
f 194/1/394 203/1/388 195/1/399 185/1/139
f 575/1/344 587/1/74 569/1/429 568/1/430
f 201/1/363 204/1/365 196/1/393 193/1/88
f 214/1/297 42/1/51 219/1/294
f 557/1/431 618/1/272 617/1/193 609/1/432
f 220/1/433 221/1/434 205/1/427 215/1/398
f 259/1/435 333/1/436 253/1/437 252/1/438
f 135/1/418 143/1/369 137/1/241 130/1/277
f 143/1/369 148/1/372 144/1/238 137/1/241
f 245/1/177 273/1/439 211/1/404 208/1/178
f 205/1/427 221/1/434 217/1/401 212/1/428
f 217/1/401 281/1/113 199/1/112 212/1/428
f 226/1/440 252/1/438 233/1/441 227/1/442
f 233/1/441 240/1/443 220/1/433 227/1/442
f 278/1/415 294/1/136 288/1/150 282/1/374
f 256/1/260 255/1/259 249/1/148 250/1/147
f 124/1/282 130/1/277 117/1/156 116/1/155
f 534/1/408 643/1/444 642/1/445 634/1/409
f 604/1/375 605/1/377 597/1/446 596/1/447
f 219/1/294 42/1/51 234/1/261
f 117/1/156 122/1/240 115/1/448 114/1/157
f 122/1/240 145/1/239 123/1/449 115/1/448
f 200/1/348 232/1/349 207/1/179 201/1/363
f 144/1/238 159/1/267 151/1/266 145/1/239
f 151/1/266 310/1/450 123/1/449 145/1/239
f 478/1/235 491/1/451 492/1/391 486/1/66
f 234/1/261 42/1/51 241/1/237
f 238/1/275 239/1/176 207/1/179 232/1/349
f 42/1/51 102/1/146 242/1/149
f 42/1/51 242/1/149 241/1/237
f 378/1/452 386/1/453 385/1/454 379/1/455
f 257/1/331 263/1/456 262/1/257 256/1/260
f 569/1/429 582/1/457 563/1/458 562/1/301
f 253/1/437 340/1/459 261/1/460 254/1/461
f 247/1/462 268/1/463 228/1/464 240/1/443
f 290/1/366 377/1/380 381/1/465 374/1/466
f 103/1/214 108/1/467 104/1/213 98/1/204
f 108/1/467 114/1/157 115/1/448 113/1/468
f 432/1/164 662/1/469 426/1/470 425/1/165
f 317/1/471 318/1/472 123/1/449 310/1/450
f 220/1/433 240/1/443 228/1/464 221/1/434
f 123/1/449 318/1/472 113/1/468 115/1/448
f 108/1/467 113/1/468 110/1/473 104/1/213
f 104/1/213 110/1/473 92/1/202 91/1/201
f 195/1/399 215/1/398 205/1/427 197/1/414
f 274/1/474 367/1/475 280/1/400 276/1/402
f 275/1/476 362/1/477 274/1/474 268/1/463
f 269/1/478 275/1/476 268/1/463 247/1/462
f 318/1/472 118/1/479 110/1/473 113/1/468
f 118/1/479 119/1/480 92/1/202 110/1/473
f 317/1/471 330/1/481 118/1/479 318/1/472
f 569/1/429 587/1/74 588/1/77 582/1/457
f 566/1/482 571/1/151 288/1/150 294/1/136
f 492/1/391 493/1/390 454/1/67 486/1/66
f 280/1/400 372/1/381 285/1/110 281/1/113
f 400/1/483 408/1/484 401/1/485 393/1/486
f 312/1/33 324/1/36 307/1/223 306/1/367
f 118/1/479 330/1/481 125/1/487 119/1/480
f 379/1/455 380/1/488 363/1/489 378/1/452
f 150/1/371 170/1/397 154/1/490 148/1/372
f 76/1/200 99/1/314 77/1/313 68/1/491
f 253/1/437 254/1/461 233/1/441 252/1/438
f 261/1/460 269/1/478 247/1/462 254/1/461
f 277/1/492 355/1/493 275/1/476 269/1/478
f 354/1/494 355/1/493 277/1/492 353/1/495
f 174/1/57 182/1/56 175/1/265 166/1/85
f 125/1/487 126/1/416 93/1/339 119/1/480
f 136/1/309 155/1/368 135/1/418 129/1/293
f 264/1/373 289/1/153 270/1/496 263/1/456
f 226/1/440 260/1/497 259/1/435 252/1/438
f 512/1/263 529/1/73 528/1/72 523/1/498
f 357/1/499 465/1/500 349/1/501 350/1/502
f 594/1/354 595/1/503 589/1/504 590/1/76
f 216/1/406 267/1/412 266/1/505 260/1/497
f 86/1/210 87/1/123 78/1/126 85/1/211
f 615/1/506 616/1/97 607/1/96 612/1/376
f 257/1/331 95/1/507 264/1/373 263/1/456
f 86/1/210 300/1/226 292/1/225 87/1/123
f 272/1/508 323/1/249 266/1/505 267/1/412
f 59/1/509 65/1/510 57/1/298 49/1/300
f 169/1/174 170/1/397 150/1/371 163/1/175
f 287/1/124 294/1/136 278/1/415 79/1/125
f 168/1/350 188/1/351 162/1/172 161/1/170
f 270/1/496 296/1/511 262/1/257 263/1/456
f 621/1/512 623/1/513 464/1/514 614/1/515
f 305/1/256 368/1/516 363/1/489 328/1/253
f 279/1/517 316/1/518 272/1/508 273/1/439
f 239/1/176 244/1/519 246/1/520 245/1/177
f 599/1/196 699/1/362 602/1/352 598/1/197
f 309/1/337 308/1/521 284/1/522 302/1/338
f 140/1/332 409/1/523 146/1/524 141/1/333
f 154/1/490 172/1/83 166/1/85 159/1/267
f 312/1/33 306/1/367 107/1/378 311/1/525
f 251/1/526 296/1/511 297/1/527 283/1/528
f 265/1/144 282/1/374 264/1/373 95/1/507
f 186/1/89 194/1/394 185/1/139 177/1/142
f 563/1/458 564/1/529 556/1/302 562/1/301
f 557/1/431 568/1/430 550/1/280 551/1/279
f 557/1/431 609/1/432 575/1/344 568/1/430
f 590/1/76 589/1/504 583/1/403 588/1/77
f 373/1/530 378/1/452 363/1/489 368/1/516
f 125/1/487 334/1/319 131/1/242 126/1/416
f 79/1/125 69/1/94 53/1/69 78/1/126
f 293/1/288 287/1/124 87/1/123 292/1/225
f 543/1/410 544/1/531 331/1/35 535/1/411
f 682/1/532 684/1/533 677/1/534 683/1/535
f 319/1/536 335/1/34 312/1/33 311/1/525
f 647/1/537 663/1/538 621/1/512 633/1/539
f 303/1/356 304/1/255 317/1/471 310/1/450
f 293/1/288 321/1/137 287/1/124
f 295/1/152 301/1/540 270/1/496 289/1/153
f 381/1/465 390/1/541 373/1/530 374/1/466
f 500/1/389 501/1/324 463/1/325 493/1/390
f 133/1/326 153/1/183 152/1/182 147/1/327
f 376/1/379 382/1/542 381/1/465 377/1/380
f 266/1/505 327/1/543 259/1/435 260/1/497
f 563/1/458 572/1/222 567/1/78 564/1/529
f 471/1/383 614/1/515 464/1/514 465/1/500
f 476/1/544 481/1/545 478/1/235 468/1/236
f 517/1/546 319/1/536 311/1/525 142/1/547
f 615/1/506 625/1/548 624/1/549 616/1/97
f 371/1/550 384/1/551 376/1/379 372/1/381
f 371/1/550 372/1/381 280/1/400 367/1/475
f 508/1/321 514/1/552 516/1/553 515/1/322
f 375/1/554 420/1/555 360/1/556 370/1/557
f 366/1/558 367/1/475 274/1/474 362/1/477
f 338/1/425 444/1/559 343/1/560 337/1/561
f 131/1/242 334/1/319 341/1/243
f 319/1/536 522/1/562 342/1/563 335/1/34
f 521/1/564 522/1/562 502/1/323 515/1/322
f 366/1/558 399/1/565 398/1/566 392/1/567
f 398/1/566 496/1/568 391/1/569 392/1/567
f 585/1/285 592/1/570 364/1/571 586/1/336
f 391/1/569 487/1/216 383/1/215 384/1/551
f 361/1/572 399/1/565 366/1/558 362/1/477
f 346/1/573 365/1/574 352/1/575 347/1/576
f 647/1/537 633/1/539 624/1/549 639/1/577
f 698/1/120 702/1/578 628/1/579 699/1/362
f 661/1/580 662/1/469 432/1/164 656/1/581
f 219/1/294 234/1/261 231/1/231 229/1/295
f 336/1/582 351/1/583 346/1/573 340/1/459
f 354/1/494 405/1/584 361/1/572 355/1/493
f 352/1/575 353/1/495 277/1/492 347/1/576
f 373/1/530 390/1/541 386/1/453 378/1/452
f 389/1/585 402/1/586 386/1/453 390/1/541
f 404/1/587 506/1/588 398/1/566 399/1/565
f 352/1/575 370/1/557 360/1/556 353/1/495
f 360/1/556 412/1/589 354/1/494 353/1/495
f 261/1/460 347/1/576 277/1/492 269/1/478
f 346/1/573 347/1/576 261/1/460 340/1/459
f 361/1/572 405/1/584 404/1/587 399/1/565
f 576/1/357 581/1/335 301/1/540 577/1/358
f 22/1/9 23/1/31 19/1/29 20/1/27
f 75/1/159 76/1/200 68/1/491 67/1/160
f 57/1/298 65/1/510 66/1/268 64/1/590
f 512/1/263 523/1/498 505/1/591 506/1/588
f 336/1/582 340/1/459 253/1/437 333/1/436
f 354/1/494 412/1/589 411/1/592 405/1/584
f 190/1/413 212/1/428 199/1/112 189/1/364
f 332/1/593 337/1/561 336/1/582 333/1/436
f 454/1/67 455/1/407 447/1/594 452/1/68
f 563/1/458 582/1/457 578/1/219 572/1/222
f 315/1/595 316/1/518 279/1/517 308/1/521
f 360/1/556 420/1/555 419/1/596 412/1/589
f 419/1/596 520/1/597 411/1/592 412/1/589
f 457/1/116 630/1/115 448/1/417 449/1/424
f 326/1/248 327/1/543 266/1/505 323/1/249
f 415/1/103 452/1/68 447/1/594 416/1/104
f 575/1/344 609/1/432 608/1/360 600/1/195
f 322/1/246 323/1/249 272/1/508 316/1/518
f 303/1/356 310/1/450 151/1/266 175/1/265
f 326/1/248 345/1/247 344/1/423 339/1/426
f 364/1/571 472/1/384 357/1/499 358/1/598
f 594/1/354 603/1/353 601/1/599 595/1/503
f 6/1/12 7/1/11 4/1/4 3/1/3
f 678/1/129 679/1/600 642/1/445 671/1/601
f 356/1/320 388/1/315 348/1/318
f 349/1/501 456/1/602 344/1/423 345/1/247
f 322/1/246 350/1/502 349/1/501 345/1/247
f 642/1/445 679/1/600 635/1/603 634/1/409
f 332/1/593 339/1/426 338/1/425 337/1/561
f 591/1/284 597/1/446 592/1/570 585/1/285
f 216/1/406 260/1/497 226/1/440 222/1/386
f 691/1/191 694/1/304 693/1/118 692/1/192
f 309/1/337 358/1/598 315/1/595 308/1/521
f 348/1/318 397/1/317 396/1/347
f 548/1/604 618/1/272 557/1/431 551/1/279
f 371/1/550 392/1/567 391/1/569 384/1/551
f 398/1/566 506/1/588 505/1/591 496/1/568
f 596/1/447 597/1/446 591/1/284 589/1/504
f 597/1/446 605/1/377 479/1/382 592/1/570
f 218/1/340 224/1/310 225/1/329 223/1/341
f 73/1/229 101/1/91 63/1/90 64/1/590
f 359/1/605 365/1/574 346/1/573 351/1/583
f 369/1/166 370/1/557 352/1/575 365/1/574
f 391/1/569 496/1/568 494/1/606 487/1/216
f 505/1/591 523/1/498 518/1/607 511/1/608
f 142/1/547 311/1/525 107/1/378 134/1/228
f 556/1/302 564/1/529 561/1/609 558/1/610
f 343/1/560 351/1/583 336/1/582 337/1/561
f 359/1/605 431/1/167 369/1/166 365/1/574
f 607/1/96 606/1/99 479/1/382 605/1/377
f 55/1/209 85/1/211 52/1/63 47/1/62
f 244/1/519 239/1/176 238/1/275 243/1/274
f 315/1/595 350/1/502 322/1/246 316/1/518
f 503/1/23 504/1/26 480/1/611 495/1/612
f 393/1/486 401/1/485 394/1/102 387/1/613
f 497/1/133 509/1/132 500/1/389 499/1/392
f 406/1/614 415/1/103 394/1/102 401/1/485
f 120/1/269 128/1/328 127/1/227 74/1/230
f 670/1/615 688/1/130 678/1/129 671/1/601
f 395/1/105 423/1/316 388/1/315
f 424/1/307 526/1/616 419/1/596 420/1/555
f 40/1/311 48/1/101 49/1/300 46/1/299
f 419/1/596 526/1/616 525/1/617 520/1/597
f 211/1/404 273/1/439 272/1/508 267/1/412
f 106/1/250 66/1/268 65/1/510 77/1/313
f 525/1/617 538/1/618 519/1/262 520/1/597
f 411/1/592 520/1/597 519/1/262 513/1/264
f 427/1/308 426/1/470 433/1/305
f 424/1/307 533/1/306 532/1/619 526/1/616
f 556/1/302 558/1/610 314/1/287 549/1/281
f 613/1/98 633/1/539 621/1/512 614/1/515
f 329/1/254 330/1/481 317/1/471 304/1/255
f 624/1/549 633/1/539 613/1/98 616/1/97
f 332/1/593 333/1/436 259/1/435 327/1/543
f 225/1/329 235/1/276 238/1/275 232/1/349
f 632/1/620 639/1/577 624/1/549 625/1/548
f 397/1/317 423/1/316 417/1/621 409/1/523
f 653/1/622 667/1/623 645/1/47 652/1/46
f 274/1/474 276/1/402 228/1/464 268/1/463
f 366/1/558 392/1/567 371/1/550 367/1/475
f 585/1/285 586/1/336 581/1/335 580/1/286
f 439/1/624 440/1/625 445/1/626
f 439/1/624 445/1/626 446/1/627
f 262/1/257 296/1/511 251/1/526 258/1/258
f 285/1/110 377/1/380 290/1/366 286/1/111
f 364/1/571 592/1/570 479/1/382 472/1/384
f 505/1/591 511/1/608 494/1/606 496/1/568
f 445/1/626 451/1/628 446/1/627
f 445/1/626 450/1/629 451/1/628
f 678/1/129 689/1/128 685/1/630 679/1/600
f 411/1/592 513/1/264 404/1/587 405/1/584
f 165/1/361 164/1/169 157/1/168 160/1/359
f 494/1/606 495/1/612 474/1/217 487/1/216
f 450/1/629 458/1/631 451/1/628
f 657/1/632 663/1/538 647/1/537 649/1/633
f 451/1/628 458/1/631 459/1/634
f 298/1/635 368/1/516 305/1/256 299/1/355
f 490/1/636 499/1/392 492/1/391 491/1/451
f 670/1/615 671/1/601 650/1/421 664/1/420
f 570/1/80 577/1/358 295/1/152 571/1/151
f 389/1/585 473/1/218 410/1/637 402/1/586
f 497/1/133 499/1/392 490/1/636 489/1/346
f 458/1/631 466/1/207 459/1/634
f 458/1/631 460/1/208 466/1/207
f 621/1/512 663/1/538 631/1/638 623/1/513
f 461/1/639 469/1/640 468/1/236
f 386/1/453 402/1/586 403/1/641 385/1/454
f 410/1/637 429/1/642 403/1/641 402/1/586
f 344/1/423 456/1/602 457/1/116 449/1/424
f 464/1/514 622/1/117 457/1/116 456/1/602
f 469/1/640 476/1/544 468/1/236
f 469/1/640 477/1/643 476/1/544
f 131/1/242 132/1/245 105/1/312 126/1/416
f 363/1/489 380/1/488 356/1/320 328/1/253
f 400/1/483 393/1/486 379/1/455 385/1/454
f 403/1/641 422/1/644 400/1/483 385/1/454
f 184/1/86 186/1/89 177/1/142 176/1/173
f 476/1/544 477/1/643 481/1/545
f 477/1/643 482/1/645 483/1/646
f 685/1/630 686/1/647 635/1/603 679/1/600
f 477/1/643 484/1/648 481/1/545
f 477/1/643 483/1/646 485/1/649
f 477/1/643 485/1/649 484/1/648
f 482/1/645 488/1/345 483/1/646
f 483/1/646 488/1/345 489/1/346
f 483/1/646 489/1/346 490/1/636
f 483/1/646 490/1/636 485/1/649
f 602/1/352 620/1/650 610/1/651 603/1/353
f 52/1/63 85/1/211 78/1/126 53/1/69
f 474/1/217 475/1/652 410/1/637 473/1/218
f 154/1/490 170/1/397 173/1/396 172/1/83
f 228/1/464 276/1/402 217/1/401 221/1/434
f 338/1/425 449/1/424 448/1/417 444/1/559
f 426/1/470 427/1/308 375/1/554 425/1/165
f 127/1/227 147/1/327 142/1/547 134/1/228
f 416/1/104 447/1/594 418/1/653 417/1/621
f 299/1/355 303/1/356 175/1/265 182/1/56
f 57/1/298 64/1/590 63/1/90 56/1/212
f 566/1/482 325/1/135 561/1/609 565/1/81
f 251/1/526 283/1/528 244/1/519 243/1/274
f 226/1/440 227/1/442 209/1/387 222/1/386
f 629/1/114 637/1/654 636/1/49 630/1/115
f 343/1/560 444/1/559 443/1/655 437/1/656
f 326/1/248 339/1/426 332/1/593 327/1/543
f 507/1/131 514/1/552 508/1/321 509/1/132
f 96/1/330 97/1/203 89/1/163 88/1/162
f 397/1/317 409/1/523 140/1/332 396/1/347
f 64/1/590 66/1/268 74/1/230 73/1/229
f 644/1/657 652/1/46 636/1/49 637/1/654
f 438/1/658 431/1/167 359/1/605 437/1/656
f 443/1/655 646/1/659 438/1/658 437/1/656
f 665/1/660 673/1/661 670/1/615 664/1/420
f 645/1/47 646/1/659 443/1/655 638/1/48
f 447/1/594 455/1/407 158/1/180 418/1/653
f 68/1/491 77/1/313 65/1/510 59/1/509
f 438/1/658 656/1/581 432/1/164 431/1/167
f 515/1/322 516/1/553 521/1/564
f 502/1/323 522/1/562 319/1/536 517/1/546
f 328/1/253 356/1/320 334/1/319 329/1/254
f 574/1/221 573/1/79 567/1/78 572/1/222
f 58/1/100 67/1/160 68/1/491 59/1/509
f 521/1/564 516/1/553 527/1/662
f 655/1/663 656/1/581 438/1/658 646/1/659
f 187/1/140 197/1/414 190/1/413 181/1/395
f 109/1/154 114/1/157 108/1/467 103/1/214
f 644/1/657 654/1/664 653/1/622 652/1/46
f 526/1/616 532/1/619 525/1/617
f 559/1/190 560/1/665 539/1/666 553/1/667
f 62/1/109 67/1/160 58/1/100 54/1/82
f 543/1/410 634/1/409 635/1/603 627/1/668
f 417/1/621 418/1/653 146/1/524 409/1/523
f 655/1/663 675/1/669 661/1/580 656/1/581
f 545/1/670 553/1/667 530/1/671 536/1/672
f 533/1/306 433/1/305 540/1/673
f 533/1/306 540/1/673 532/1/619
f 532/1/619 541/1/674 525/1/617
f 532/1/619 540/1/673 541/1/674
f 433/1/305 542/1/675 540/1/673
f 433/1/305 426/1/470 542/1/675
f 320/1/278 549/1/281 314/1/287 313/1/224
f 645/1/47 667/1/623 655/1/663 646/1/659
f 653/1/622 676/1/676 674/1/677 667/1/623
f 548/1/604 551/1/279 320/1/278 544/1/531
f 525/1/617 546/1/678 547/1/679
f 525/1/617 547/1/679 538/1/618
f 749/1/680 750/1/681 727/1/682 31/1/40
f 534/1/408 535/1/411 342/1/563 527/1/662
f 682/1/532 675/1/669 674/1/677 676/1/676
f 315/1/595 358/1/598 357/1/499 350/1/502
f 546/1/678 554/1/683 547/1/679
f 547/1/679 554/1/683 555/1/189
f 284/1/522 308/1/521 279/1/517 246/1/520
f 389/1/585 390/1/541 381/1/465 382/1/542
f 461/1/639 468/1/236 462/1/65 453/1/143
f 298/1/635 374/1/466 373/1/530 368/1/516
f 682/1/532 683/1/535 661/1/580 675/1/669
f 441/1/684 460/1/208 458/1/631 450/1/629
f 660/1/685 684/1/533 682/1/532 676/1/676
f 661/1/580 683/1/535 668/1/686 662/1/469
f 660/1/685 676/1/676 653/1/622 654/1/664
f 484/1/648 491/1/451 478/1/235 481/1/545
f 112/1/252 120/1/269 66/1/268 106/1/250
f 302/1/338 284/1/522 283/1/528 297/1/527
f 416/1/104 417/1/621 423/1/316 395/1/105
f 325/1/135 566/1/482 294/1/136
f 270/1/496 301/1/540 297/1/527 296/1/511
f 301/1/540 581/1/335 302/1/338 297/1/527
f 650/1/421 671/1/601 642/1/445 643/1/444
f 348/1/318 396/1/347 138/1/244 341/1/243
f 129/1/293 135/1/418 130/1/277 124/1/282
f 154/1/490 159/1/267 144/1/238 148/1/372
f 213/1/296 218/1/340 198/1/343 206/1/186
f 69/1/94 79/1/125 278/1/415 271/1/122
f 586/1/336 364/1/571 358/1/598 309/1/337
f 375/1/554 427/1/308 424/1/307 420/1/555
f 81/1/145 265/1/144 95/1/507 88/1/162
f 573/1/79 574/1/221 576/1/357
f 530/1/671 531/1/687 510/1/25 524/1/24
f 577/1/358 301/1/540 295/1/152
f 314/1/287 558/1/610 321/1/137 293/1/288
f 249/1/148 255/1/259 236/1/233 248/1/232
f 71/1/108 70/1/107 81/1/145 80/1/158
f 576/1/357 580/1/286 581/1/335
f 548/1/604 627/1/668 626/1/271 618/1/272
f 570/1/80 571/1/151 566/1/482 565/1/81
f 379/1/455 393/1/486 387/1/613 380/1/488
f 579/1/220 584/1/283 580/1/286
f 435/1/291 440/1/625 439/1/624 436/1/688
f 387/1/613 388/1/315 356/1/320 380/1/488
f 46/1/299 56/1/212 55/1/209 47/1/62
f 593/1/75 598/1/197 594/1/354 590/1/76
f 369/1/166 425/1/165 375/1/554 370/1/557
f 617/1/193 692/1/192 608/1/360 609/1/432
f 400/1/483 422/1/644 413/1/689 408/1/484
f 589/1/504 591/1/284 584/1/283 583/1/403
f 582/1/457 588/1/77 583/1/403 578/1/219
f 73/1/229 134/1/228 107/1/378 101/1/91
f 152/1/182 517/1/546 142/1/547 147/1/327
f 401/1/485 408/1/484 407/1/690 406/1/614
f 361/1/572 362/1/477 275/1/476 355/1/493
f 357/1/499 472/1/384 471/1/383 465/1/500
f 111/1/251 139/1/270 121/1/334 112/1/252
f 500/1/389 509/1/132 508/1/321 501/1/324
f 45/1/58 48/1/101 40/1/311 39/1/52
f 343/1/560 437/1/656 359/1/605 351/1/583
f 199/1/112 286/1/111 183/1/54 189/1/364
f 413/1/689 414/1/691 407/1/690 408/1/484
f 454/1/67 493/1/390 463/1/325 455/1/407
f 146/1/524 418/1/653 158/1/180 153/1/183
f 728/1/692 731/1/693 729/1/694 725/1/695
f 601/1/599 603/1/353 610/1/651
f 601/1/599 610/1/651 611/1/696
f 428/1/289 430/1/292 413/1/689 422/1/644
f 403/1/641 429/1/642 428/1/289 422/1/644
f 413/1/689 430/1/292 421/1/697 414/1/691
f 290/1/366 374/1/466 298/1/635 291/1/55
f 569/1/429 562/1/301 550/1/280 568/1/430
f 611/1/696 610/1/651 619/1/698
f 610/1/651 620/1/650 619/1/698
f 383/1/215 473/1/218 389/1/585 382/1/542
f 410/1/637 467/1/206 434/1/205 429/1/642
f 435/1/291 436/1/688 421/1/697 430/1/292
f 502/1/323 517/1/546 152/1/182 470/1/181
f 561/1/609 564/1/529 567/1/78 565/1/81
f 283/1/528 284/1/522 246/1/520 244/1/519
f 620/1/650 628/1/579 619/1/698
f 516/1/553 651/1/422 650/1/421 643/1/444
f 474/1/217 495/1/612 480/1/611 475/1/652
f 237/1/273 258/1/258 251/1/526 243/1/274
f 121/1/334 128/1/328 120/1/269 112/1/252
f 349/1/501 465/1/500 464/1/514 456/1/602
f 627/1/668 635/1/603 626/1/271
f 494/1/606 511/1/608 503/1/23 495/1/612
f 273/1/439 245/1/177 246/1/520 279/1/517
f 632/1/620 640/1/699 639/1/577
f 632/1/620 641/1/700 640/1/699
f 574/1/221 579/1/220 580/1/286 576/1/357
f 209/1/387 227/1/442 220/1/433 215/1/398
f 146/1/524 153/1/183 133/1/326 141/1/333
f 448/1/417 638/1/48 443/1/655 444/1/559
f 518/1/607 524/1/24 503/1/23 511/1/608
f 435/1/291 442/1/290 441/1/684 440/1/625
f 441/1/684 450/1/629 445/1/626 440/1/625
f 434/1/205 460/1/208 441/1/684 442/1/290
f 641/1/700 648/1/701 640/1/699
f 640/1/699 648/1/701 649/1/633
f 48/1/101 58/1/100 59/1/509 49/1/300
f 674/1/677 675/1/669 655/1/663 667/1/623
f 561/1/609 325/1/135 321/1/137 558/1/610
f 518/1/607 536/1/672 530/1/671 524/1/24
f 404/1/587 513/1/264 512/1/263 506/1/588
f 528/1/72 536/1/672 518/1/607 523/1/498
f 640/1/699 649/1/633 647/1/537 639/1/577
f 648/1/701 657/1/632 649/1/633
f 658/1/702 631/1/638 657/1/632
f 648/1/701 658/1/702 657/1/632
f 516/1/553 643/1/444 534/1/408 527/1/662
f 530/1/671 553/1/667 539/1/666 531/1/687
f 519/1/262 538/1/618 537/1/70 529/1/73
f 92/1/202 119/1/480 93/1/339 84/1/199
f 657/1/632 631/1/638 663/1/538
f 659/1/419 665/1/660 664/1/420
f 659/1/419 666/1/703 665/1/660
f 547/1/679 555/1/189 537/1/70 538/1/618
f 662/1/469 668/1/686 426/1/470
f 426/1/470 668/1/686 669/1/704
f 543/1/410 627/1/668 548/1/604 544/1/531
f 213/1/296 229/1/295 224/1/310 218/1/340
f 665/1/660 666/1/703 672/1/705
f 665/1/660 672/1/705 673/1/661
f 121/1/334 141/1/333 133/1/326 128/1/328
f 528/1/72 552/1/71 545/1/670 536/1/672
f 669/1/704 668/1/686 677/1/534
f 181/1/395 180/1/84 172/1/83 173/1/396
f 376/1/379 384/1/551 383/1/215 382/1/542
f 673/1/661 680/1/706 670/1/615
f 672/1/705 680/1/706 673/1/661
f 672/1/705 681/1/707 680/1/706
f 552/1/71 559/1/190 553/1/667 545/1/670
f 395/1/105 388/1/315 387/1/613 394/1/102
f 756/1/708 758/1/709 755/1/710 753/1/711
f 554/1/683 560/1/665 559/1/190 555/1/189
f 683/1/535 677/1/534 668/1/686
f 298/1/635 299/1/355 182/1/56 291/1/55
f 699/1/362 628/1/579 620/1/650 602/1/352
f 635/1/603 686/1/647 626/1/271
f 680/1/706 681/1/707 687/1/127
f 680/1/706 687/1/127 688/1/130
f 680/1/706 688/1/130 670/1/615
f 442/1/290 428/1/289 429/1/642 434/1/205
f 95/1/507 257/1/331 96/1/330 88/1/162
f 100/1/92 300/1/226 86/1/210 94/1/93
f 613/1/98 614/1/515 471/1/383 606/1/99
f 331/1/35 544/1/531 320/1/278 324/1/36
f 82/1/161 83/1/198 75/1/159 72/1/138
f 149/1/370 155/1/368 157/1/168 156/1/171
f 490/1/636 491/1/451 484/1/648 485/1/649
f 697/1/119 700/1/712 698/1/120
f 696/1/303 700/1/712 697/1/119
f 696/1/303 701/1/713 700/1/712
f 700/1/712 701/1/713 619/1/698
f 700/1/712 619/1/698 702/1/578
f 698/1/120 700/1/712 702/1/578
f 702/1/578 619/1/698 628/1/579
f 703/1/714 704/1/715 705/1/716
f 703/1/714 705/1/716 706/1/717
f 704/1/715 707/1/718 705/1/716
f 706/1/717 705/1/716 708/1/719
f 707/1/718 709/1/720 705/1/716
f 708/1/719 705/1/716 710/1/721
f 709/1/720 711/1/722 705/1/716
f 710/1/721 705/1/716 712/1/723
f 711/1/722 713/1/724 705/1/716
f 712/1/723 705/1/716 714/1/725
f 713/1/724 715/1/726 705/1/716
f 714/1/725 705/1/716 716/1/727
f 715/1/726 717/1/728 705/1/716
f 716/1/727 705/1/716 718/1/729
f 716/1/727 718/1/729 719/1/730
f 716/1/727 719/1/730 720/1/731
f 717/1/728 721/1/732 705/1/716
f 718/1/729 705/1/716 722/1/733
f 718/1/729 723/1/734 719/1/730
f 718/1/729 722/1/733 723/1/734
f 719/1/730 723/1/734 724/1/735
f 719/1/730 725/1/695 720/1/731
f 719/1/730 724/1/735 725/1/695
f 721/1/732 726/1/736 705/1/716
f 724/1/735 727/1/682 725/1/695
f 723/1/734 727/1/682 724/1/735
f 725/1/695 727/1/682 728/1/692
f 329/1/254 334/1/319 125/1/487 330/1/481
f 726/1/736 730/1/737 705/1/716
f 728/1/692 727/1/682 732/1/738
f 729/1/694 731/1/693 733/1/739
f 730/1/737 734/1/740 705/1/716
f 732/1/738 727/1/682 735/1/741
f 734/1/740 736/1/742 705/1/716
f 735/1/741 727/1/682 737/1/743
f 736/1/742 738/1/744 705/1/716
f 705/1/716 738/1/744 739/1/745
f 705/1/716 739/1/745 740/1/746
f 705/1/716 740/1/746 741/1/747
f 705/1/716 741/1/747 742/1/748
f 705/1/716 742/1/748 743/1/749
f 737/1/743 727/1/682 744/1/750
f 741/1/747 745/1/751 742/1/748
f 742/1/748 745/1/751 743/1/749
f 741/1/747 746/1/752 745/1/751
f 743/1/749 745/1/751 747/1/753
f 743/1/749 747/1/753 748/1/754
f 748/1/754 763/1/755 762/1/756 11/1/15
f 727/1/682 750/1/681 751/1/757
f 727/1/682 752/1/758 744/1/750
f 727/1/682 751/1/757 752/1/758
f 745/1/751 746/1/752 753/1/711
f 745/1/751 753/1/711 747/1/753
f 747/1/753 753/1/711 748/1/754
f 31/1/40 754/1/759 749/1/680
f 31/1/40 37/1/45 754/1/759
f 753/1/711 755/1/710 748/1/754
f 521/1/564 527/1/662 342/1/563 522/1/562
f 755/1/710 757/1/760 748/1/754
f 756/1/708 759/1/761 758/1/709
f 757/1/760 760/1/762 748/1/754
f 760/1/762 761/1/763 748/1/754
f 342/1/563 535/1/411 331/1/35 335/1/34
f 748/1/754 764/1/764 763/1/755
f 748/1/754 765/1/765 764/1/764
f 748/1/754 766/1/766 765/1/765
f 748/1/754 761/1/763 766/1/766
f 11/1/15 767/1/767 18/1/22
f 762/1/756 767/1/767 11/1/15
f 233/1/441 254/1/461 247/1/462 240/1/443
