# Blender 4.3.2
# www.blender.org
o hair.047
v 8.127933 0.234341 -0.014360
v 8.127250 0.234653 -0.013903
v 8.130648 0.235437 -0.010837
v 8.124750 0.232549 -0.017999
v 8.128287 0.234065 -0.014766
v 8.127995 0.236565 -0.009183
v 8.129466 0.236034 -0.009962
v 8.126503 0.234950 -0.013468
v 8.131716 0.236893 -0.005546
v 8.129519 0.237668 -0.004410
v 8.125633 0.235092 -0.013260
v 8.127172 0.238144 -0.003713
v 8.126402 0.236891 -0.008706
v 8.133584 0.237257 -0.001641
v 8.135878 0.236145 -0.003308
v 8.133497 0.236005 -0.006848
v 8.130775 0.238216 -0.000209
v 8.124750 0.237003 -0.008543
v 8.124750 0.235187 -0.013121
v 8.124750 0.238307 -0.003474
v 8.135303 0.237301 0.002273
v 8.134598 0.235191 -0.008042
v 8.131376 0.234909 -0.011611
v 8.123867 0.235092 -0.013260
v 8.123098 0.236891 -0.008706
v 8.122329 0.238144 -0.003713
v 8.124750 0.239004 0.000970
v 8.131866 0.234413 -0.012339
v 8.128590 0.233795 -0.015161
v 8.122997 0.234950 -0.013468
v 8.121506 0.236565 -0.009183
v 8.121696 0.238803 0.000669
v 8.118725 0.238216 -0.000209
v 8.119982 0.237668 -0.004410
v 8.127804 0.238803 0.000669
v 8.128833 0.233500 -0.015593
v 8.122251 0.234653 -0.013903
v 8.120034 0.236034 -0.009962
v 8.121114 0.239117 0.004981
v 8.117785 0.236893 -0.005546
v 8.128386 0.239117 0.004981
v 8.131934 0.238429 0.003951
v 8.121568 0.234341 -0.014360
v 8.118853 0.235437 -0.010837
v 8.124750 0.239350 0.005334
v 8.115916 0.237257 -0.001641
v 8.113623 0.236145 -0.003308
v 8.116003 0.236005 -0.006848
v 8.128976 0.238813 0.009965
v 8.133103 0.238054 0.008808
v 8.121213 0.234065 -0.014766
v 8.118124 0.234909 -0.011611
v 8.124750 0.239066 0.010363
v 8.114198 0.237301 0.002273
v 8.114902 0.235191 -0.008042
v 8.117566 0.238429 0.003951
v 8.133965 0.236895 0.013227
v 8.137037 0.236787 0.006933
v 8.117635 0.234413 -0.012339
v 8.120911 0.233795 -0.015161
v 8.120524 0.238813 0.009965
v 8.116397 0.238054 0.008808
v 8.138070 0.235970 0.000279
v 8.114169 0.234412 -0.009184
v 8.117171 0.233909 -0.013077
v 8.120667 0.233500 -0.015593
v 8.115535 0.236895 0.013227
v 8.120091 0.237673 0.014461
v 8.124750 0.237924 0.014889
v 8.112463 0.236787 0.006933
v 8.139806 0.234674 -0.001698
v 8.137302 0.235096 -0.004893
v 8.120436 0.233174 -0.016072
v 8.116758 0.233257 -0.014033
v 8.119724 0.235982 0.018677
v 8.111430 0.235970 0.000279
v 8.138247 0.234067 -0.006430
v 8.135331 0.234412 -0.009184
v 8.120282 0.232635 -0.016861
v 8.129409 0.237673 0.014461
v 8.109197 0.235249 0.004653
v 8.109694 0.234674 -0.001698
v 8.112198 0.235096 -0.004893
v 8.132329 0.233909 -0.013077
v 8.129776 0.235982 0.018677
v 8.124750 0.236213 0.019131
v 8.107531 0.233887 0.008787
v 8.107085 0.233675 0.002283
v 8.111183 0.235562 0.011244
v 8.111253 0.234067 -0.006430
v 8.132742 0.233257 -0.014033
v 8.129065 0.233174 -0.016072
v 8.124750 0.233623 0.023684
v 8.110127 0.233871 0.015324
v 8.114811 0.235223 0.017383
v 8.113482 0.233625 -0.010337
v 8.129218 0.232635 -0.016861
v 8.104895 0.229498 0.016990
v 8.109139 0.231316 0.019697
v 8.106162 0.232107 0.012732
v 8.114117 0.232664 0.021828
v 8.133077 0.232316 -0.015413
v 8.133223 0.231213 -0.017030
v 8.129331 0.232061 -0.017703
v 8.108508 0.228264 0.023117
v 8.103427 0.230121 0.009849
v 8.105093 0.232089 0.006137
v 8.119365 0.233404 0.023193
v 8.137071 0.231305 -0.013737
v 8.136615 0.232648 -0.011769
v 8.129192 0.231458 -0.018587
v 8.103419 0.230176 0.003375
v 8.105666 0.232038 -0.000119
v 8.108547 0.233364 -0.003649
v 8.119123 0.230409 0.026765
v 8.139860 0.231721 -0.009797
v 8.136019 0.233625 -0.010337
v 8.104438 0.230282 -0.002526
v 8.107520 0.231975 -0.005585
v 8.113661 0.229612 0.025306
v 8.139119 0.233002 -0.007964
v 8.106659 0.230371 -0.007811
v 8.109640 0.231721 -0.009797
v 8.110381 0.233002 -0.007964
v 8.113319 0.226442 0.028220
v 8.140953 0.233364 -0.003649
v 8.141980 0.231975 -0.005585
v 8.106021 0.228429 -0.010621
v 8.103446 0.228304 -0.005221
v 8.112885 0.232648 -0.011769
v 8.142415 0.233675 0.002283
v 8.140304 0.235249 0.004653
v 8.143834 0.232038 -0.000119
v 8.102757 0.226017 -0.008467
v 8.100937 0.225837 -0.002553
v 8.102015 0.228123 0.000555
v 8.112430 0.231305 -0.013737
v 8.116424 0.232316 -0.015413
v 8.141970 0.233887 0.008787
v 8.100021 0.225637 0.003579
v 8.101526 0.227959 0.006774
v 8.109093 0.230050 -0.012214
v 8.116278 0.231213 -0.017030
v 8.120170 0.232061 -0.017703
v 8.138317 0.235562 0.011244
v 8.099761 0.224960 0.010555
v 8.101872 0.227356 0.013907
v 8.108898 0.228159 -0.014984
v 8.105792 0.226290 -0.013797
v 8.120308 0.231458 -0.018587
v 8.139373 0.233871 0.015324
v 8.134689 0.235223 0.017383
v 8.100923 0.224253 0.017237
v 8.104105 0.226448 0.020365
v 8.112255 0.229750 -0.016017
v 8.143338 0.232107 0.012732
v 8.146073 0.230121 0.009849
v 8.144407 0.232089 0.006137
v 8.135384 0.232664 0.021828
v 8.130136 0.233404 0.023193
v 8.103578 0.223256 0.023119
v 8.108063 0.225075 0.025936
v 8.116441 0.230080 -0.018691
v 8.144606 0.229498 0.016990
v 8.146081 0.230176 0.003375
v 8.130378 0.230409 0.026765
v 8.124750 0.230669 0.027312
v 8.107906 0.221215 0.028540
v 8.120515 0.230865 -0.019456
v 8.116913 0.228996 -0.020279
v 8.112504 0.228138 -0.018381
v 8.145062 0.230282 -0.002526
v 8.118935 0.227303 0.029773
v 8.124750 0.227608 0.030369
v 8.120982 0.230360 -0.020196
v 8.117698 0.228043 -0.021676
v 8.113168 0.226578 -0.020667
v 8.142841 0.230371 -0.007811
v 8.113156 0.222587 0.030973
v 8.118836 0.223436 0.032586
v 8.121509 0.229880 -0.020900
v 8.118752 0.227203 -0.022908
v 8.114236 0.225182 -0.022714
v 8.110038 0.224322 -0.020708
v 8.143479 0.228429 -0.010621
v 8.140408 0.230050 -0.012214
v 8.113135 0.218108 0.033208
v 8.122233 0.229511 -0.021441
v 8.115715 0.223936 -0.024541
v 8.120041 0.226457 -0.024001
v 8.113172 0.220964 -0.025631
v 8.111341 0.222561 -0.023309
v 8.109219 0.226219 -0.017875
v 8.140602 0.228159 -0.014984
v 8.137245 0.229750 -0.016017
v 8.122997 0.229179 -0.021927
v 8.121509 0.225880 -0.024847
v 8.117608 0.222827 -0.026167
v 8.108753 0.219881 -0.023484
v 8.106156 0.224098 -0.017118
v 8.136996 0.228138 -0.018381
v 8.133060 0.230080 -0.018691
v 8.123867 0.229037 -0.022136
v 8.107136 0.221934 -0.020406
v 8.102943 0.221115 -0.015758
v 8.102535 0.223571 -0.012052
v 8.132587 0.228996 -0.020279
v 8.128985 0.230865 -0.019456
v 8.123099 0.225548 -0.025334
v 8.124750 0.228944 -0.022272
v 8.124750 0.225443 -0.025488
v 8.104074 0.218685 -0.019469
v 8.100089 0.220512 -0.010031
v 8.100259 0.223241 -0.006155
v 8.128518 0.230360 -0.020196
v 8.119815 0.221969 -0.027424
v 8.125633 0.229037 -0.022136
v 8.124750 0.221327 -0.028365
v 8.126401 0.225548 -0.025334
v 8.106022 0.216318 -0.023068
v 8.101749 0.215159 -0.017934
v 8.098297 0.220240 -0.003762
v 8.098933 0.223082 0.000112
v 8.118401 0.218490 -0.029149
v 8.115574 0.219559 -0.027626
v 8.100533 0.217825 -0.013961
v 8.097167 0.219537 0.003228
v 8.098210 0.222362 0.007012
v 8.113912 0.216432 -0.028456
v 8.111012 0.218019 -0.026214
v 8.098635 0.214332 -0.011871
v 8.098177 0.217271 -0.007827
v 8.097119 0.218949 0.010104
v 8.098695 0.221737 0.013802
v 8.108739 0.214159 -0.026306
v 8.096500 0.213275 -0.004993
v 8.096586 0.216470 -0.000835
v 8.098065 0.218462 0.016536
v 8.100325 0.221045 0.019983
v 8.106908 0.210039 -0.025612
v 8.112172 0.212353 -0.028926
v 8.103890 0.212497 -0.021931
v 8.095538 0.212663 0.002117
v 8.096097 0.215915 0.006192
v 8.100277 0.217216 0.022443
v 8.103476 0.219396 0.025592
v 8.117277 0.215242 -0.030129
v 8.102114 0.208398 -0.020243
v 8.099879 0.211385 -0.015983
v 8.095381 0.212369 0.008882
v 8.096431 0.215545 0.012805
v 8.103676 0.215214 0.027514
v 8.107976 0.216860 0.030613
v 8.098183 0.206774 -0.013238
v 8.096944 0.210055 -0.009068
v 8.096250 0.211735 0.015501
v 8.097990 0.214652 0.019060
v 8.108274 0.212227 0.031704
v 8.118811 0.218855 0.034866
v 8.113267 0.213126 0.034402
v 8.118860 0.213667 0.036108
v 8.095858 0.205894 -0.006009
v 8.095453 0.209290 -0.001990
v 8.098342 0.211021 0.021065
v 8.100578 0.213275 0.024335
v 8.124750 0.219104 0.035460
v 8.124750 0.223730 0.033189
v 8.113624 0.207965 0.034724
v 8.094831 0.205614 0.000887
v 8.094863 0.209036 0.004885
v 8.101130 0.209709 0.025297
v 8.104144 0.211058 0.028509
v 8.130664 0.223436 0.032586
v 8.130566 0.227303 0.029773
v 8.119020 0.208239 0.036454
v 8.108894 0.207536 0.031988
v 8.104992 0.207007 0.028756
v 8.095035 0.205235 0.007633
v 8.095424 0.208422 0.011488
v 8.136344 0.222587 0.030973
v 8.136181 0.226442 0.028220
v 8.135839 0.229612 0.025306
v 8.124750 0.208337 0.037067
v 8.124750 0.213847 0.036711
v 8.102076 0.206436 0.025540
v 8.096841 0.208387 0.017447
v 8.095996 0.204125 0.013986
v 8.140992 0.228264 0.023117
v 8.140361 0.231316 0.019697
v 8.130640 0.213667 0.036108
v 8.130480 0.208239 0.036454
v 8.130690 0.218855 0.034866
v 8.099766 0.205779 0.022089
v 8.098989 0.208253 0.022035
v 8.097516 0.204993 0.018153
v 8.095601 0.201410 0.010361
v 8.135877 0.207965 0.034724
v 8.136365 0.218108 0.033208
v 8.136233 0.213126 0.034402
v 8.096009 0.198568 0.006681
v 8.145395 0.226448 0.020365
v 8.148578 0.224253 0.017237
v 8.147628 0.227356 0.013907
v 8.141227 0.212227 0.031704
v 8.140606 0.207536 0.031988
v 8.141594 0.221215 0.028540
v 8.095191 0.202014 0.003784
v 8.095716 0.198704 -0.000084
v 8.096701 0.195510 0.002868
v 8.145923 0.223256 0.023119
v 8.149739 0.224960 0.010555
v 8.147974 0.227959 0.006774
v 8.144508 0.207007 0.028756
v 8.141438 0.225075 0.025936
v 8.095324 0.202169 -0.003066
v 8.096887 0.195350 -0.003828
v 8.099682 0.189185 -0.004380
v 8.149479 0.225637 0.003579
v 8.147485 0.228123 0.000555
v 8.145356 0.211058 0.028509
v 8.148371 0.209709 0.025297
v 8.147425 0.206436 0.025540
v 8.099211 0.191544 -0.007948
v 8.103040 0.186976 -0.012472
v 8.103560 0.184224 -0.008254
v 8.148563 0.225837 -0.002553
v 8.146054 0.228304 -0.005221
v 8.145824 0.215214 0.027514
v 8.141524 0.216860 0.030613
v 8.149734 0.205779 0.022089
v 8.099119 0.194701 -0.011416
v 8.107431 0.183699 -0.015735
v 8.107420 0.180533 -0.011271
v 8.146743 0.226017 -0.008467
v 8.150511 0.208253 0.022035
v 8.151984 0.204993 0.018153
v 8.096539 0.198595 -0.006768
v 8.111031 0.178196 -0.013207
v 8.143708 0.226290 -0.013797
v 8.146025 0.219396 0.025592
v 8.148922 0.213275 0.024335
v 8.151158 0.211021 0.021065
v 8.152659 0.208387 0.017447
v 8.153504 0.204125 0.013986
v 8.113173 0.181151 -0.018499
v 8.115037 0.176881 -0.014444
v 8.149223 0.217216 0.022443
v 8.149176 0.221045 0.019983
v 8.153251 0.211735 0.015501
v 8.151510 0.214652 0.019060
v 8.154077 0.208422 0.011488
v 8.153899 0.201410 0.010361
v 8.118856 0.180028 -0.019608
v 8.119555 0.176100 -0.015236
v 8.151435 0.218462 0.016536
v 8.150805 0.221737 0.013802
v 8.154466 0.205235 0.007633
v 8.154119 0.212369 0.008882
v 8.153491 0.198568 0.006681
v 8.097094 0.202441 -0.010124
v 8.099499 0.198700 -0.014708
v 8.124750 0.175774 -0.015394
v 8.152381 0.218949 0.010104
v 8.153069 0.215545 0.012805
v 8.151290 0.222362 0.007012
v 8.100483 0.203401 -0.017675
v 8.102927 0.190732 -0.016165
v 8.124750 0.179718 -0.019872
v 8.130644 0.180028 -0.019608
v 8.129946 0.176100 -0.015236
v 8.152333 0.219537 0.003228
v 8.150567 0.223082 0.000112
v 8.103859 0.200217 -0.021918
v 8.124750 0.184161 -0.023662
v 8.134463 0.176881 -0.014444
v 8.151203 0.220240 -0.003762
v 8.149241 0.223241 -0.006155
v 8.103044 0.195205 -0.019058
v 8.113014 0.185604 -0.022104
v 8.107633 0.187761 -0.019619
v 8.136327 0.181151 -0.018499
v 8.138470 0.178196 -0.013207
v 8.149411 0.220512 -0.010031
v 8.146965 0.223571 -0.012052
v 8.107698 0.192278 -0.022679
v 8.130697 0.184470 -0.023351
v 8.136486 0.185604 -0.022104
v 8.142069 0.183699 -0.015735
v 8.142080 0.180533 -0.011271
v 8.146557 0.221115 -0.015758
v 8.143344 0.224098 -0.017118
v 8.118803 0.184470 -0.023351
v 8.130645 0.188952 -0.026566
v 8.145940 0.184224 -0.008254
v 8.142365 0.221934 -0.020406
v 8.139462 0.224322 -0.020708
v 8.140282 0.226219 -0.017875
v 8.118855 0.188952 -0.026566
v 8.113098 0.190125 -0.025279
v 8.146461 0.186976 -0.012472
v 8.149818 0.189185 -0.004380
v 8.136333 0.226578 -0.020667
v 8.124750 0.188613 -0.026878
v 8.113521 0.195469 -0.028084
v 8.108325 0.197508 -0.025493
v 8.141868 0.187761 -0.019619
v 8.146573 0.190732 -0.016165
v 8.135264 0.225182 -0.022714
v 8.131803 0.228043 -0.021676
v 8.124750 0.193933 -0.029689
v 8.109487 0.203245 -0.027587
v 8.105324 0.205605 -0.024250
v 8.141802 0.192278 -0.022679
v 8.140747 0.219881 -0.023484
v 8.138160 0.222561 -0.023309
v 8.130748 0.227203 -0.022908
v 8.127992 0.229880 -0.020900
v 8.119066 0.194299 -0.029373
v 8.136329 0.220964 -0.025631
v 8.145426 0.218685 -0.019469
v 8.127267 0.229511 -0.021441
v 8.126503 0.229179 -0.021927
v 8.119453 0.200415 -0.031318
v 8.114301 0.201466 -0.030022
v 8.110743 0.207985 -0.028625
v 8.133785 0.223936 -0.024541
v 8.127992 0.225880 -0.024847
v 8.129459 0.226457 -0.024001
v 8.115148 0.206445 -0.030830
v 8.116112 0.211006 -0.030849
v 8.131892 0.222827 -0.026167
v 8.129685 0.221969 -0.027424
v 8.127269 0.221480 -0.028141
v 8.119875 0.205531 -0.032089
v 8.120356 0.210218 -0.032009
v 8.120938 0.214572 -0.031157
v 8.133926 0.219559 -0.027626
v 8.131100 0.218490 -0.029149
v 8.127995 0.217901 -0.030052
v 8.124750 0.217726 -0.030348
v 8.122231 0.221480 -0.028141
v 8.124750 0.205231 -0.032480
v 8.124750 0.200073 -0.031679
v 8.124750 0.209965 -0.032398
v 8.135589 0.216432 -0.028456
v 8.128562 0.214572 -0.031157
v 8.132223 0.215242 -0.030129
v 8.130047 0.200415 -0.031318
v 8.129625 0.205531 -0.032089
v 8.129145 0.210218 -0.032009
v 8.130434 0.194299 -0.029373
v 8.138488 0.218019 -0.026214
v 8.137328 0.212353 -0.028926
v 8.133389 0.211006 -0.030849
v 8.134353 0.206445 -0.030830
v 8.135980 0.195469 -0.028084
v 8.136402 0.190125 -0.025279
v 8.121506 0.217901 -0.030052
v 8.124750 0.214367 -0.031509
v 8.135200 0.201466 -0.030022
v 8.141175 0.197508 -0.025493
v 8.140014 0.203245 -0.027587
v 8.145641 0.200217 -0.021918
v 8.146457 0.195205 -0.019058
v 8.138758 0.207985 -0.028625
v 8.142592 0.210039 -0.025612
v 8.144176 0.205605 -0.024250
v 8.150002 0.198700 -0.014708
v 8.149017 0.203401 -0.017675
v 8.147387 0.208398 -0.020243
v 8.150381 0.194701 -0.011416
v 8.145610 0.212497 -0.021931
v 8.143478 0.216318 -0.023068
v 8.140761 0.214159 -0.026306
v 8.151318 0.206774 -0.013238
v 8.152407 0.202441 -0.010124
v 8.152961 0.198595 -0.006768
v 8.147751 0.215159 -0.017934
v 8.149621 0.211385 -0.015983
v 8.150290 0.191544 -0.007948
v 8.153643 0.205894 -0.006009
v 8.152556 0.210055 -0.009068
v 8.150866 0.214332 -0.011871
v 8.148967 0.217825 -0.013961
v 8.152614 0.195350 -0.003828
v 8.152800 0.195510 0.002868
v 8.153000 0.213275 -0.004993
v 8.151323 0.217271 -0.007827
v 8.153785 0.198704 -0.000084
v 8.153962 0.212663 0.002117
v 8.154047 0.209290 -0.001990
v 8.152914 0.216470 -0.000835
v 8.154177 0.202169 -0.003066
v 8.154670 0.205614 0.000887
v 8.154309 0.202014 0.003784
v 8.154637 0.209036 0.004885
v 8.153403 0.215915 0.006192
v 8.153491 0.198568 0.006681
v 8.153899 0.201410 0.010361
v 8.134231 0.205594 0.000147
v 8.152800 0.195510 0.002868
v 8.153504 0.204125 0.013986
v 8.149734 0.205779 0.022089
v 8.124750 0.208035 0.000832
v 8.151984 0.204993 0.018153
v 8.149818 0.189185 -0.004380
v 8.147425 0.206436 0.025540
v 8.135877 0.207965 0.034724
v 8.124750 0.208337 0.037067
v 8.144508 0.207007 0.028756
v 8.140606 0.207536 0.031988
v 8.130480 0.208239 0.036454
v 8.128576 0.206982 -0.035016
v 8.128603 0.206786 -0.039819
v 8.124750 0.207483 -0.037765
v 8.131346 0.206117 -0.036683
v 8.133107 0.204552 -0.034154
v 8.129745 0.205628 -0.032109
v 8.124750 0.207237 -0.034039
v 8.133115 0.204795 -0.039261
v 8.130127 0.205061 -0.043197
v 8.124750 0.205985 -0.043661
v 8.120897 0.206786 -0.039819
v 8.120924 0.206982 -0.035016
v 8.124750 0.206171 -0.031134
v 8.130398 0.203736 -0.029679
v 8.119756 0.205628 -0.032109
v 8.135250 0.202902 -0.037362
v 8.135945 0.200977 -0.041139
v 8.133710 0.203245 -0.042284
v 8.132968 0.201704 -0.045310
v 8.128547 0.203336 -0.046580
v 8.118155 0.206117 -0.036683
v 8.116393 0.204552 -0.034154
v 8.119102 0.203736 -0.029679
v 8.123558 0.204349 -0.028745
v 8.125942 0.204349 -0.028745
v 8.136577 0.200670 -0.035591
v 8.124750 0.202621 -0.047983
v 8.128152 0.199519 -0.049598
v 8.131062 0.200382 -0.047897
v 8.116385 0.204795 -0.039261
v 8.123461 0.201349 -0.026271
v 8.126040 0.201349 -0.026271
v 8.134130 0.202528 -0.031961
v 8.120954 0.203336 -0.046580
v 8.119373 0.205061 -0.043197
v 8.132624 0.197413 -0.048138
v 8.118800 0.200819 -0.027355
v 8.118873 0.197484 -0.025701
v 8.123465 0.198100 -0.024683
v 8.130700 0.200819 -0.027355
v 8.134615 0.199560 -0.029779
v 8.116532 0.201704 -0.045310
v 8.115790 0.203245 -0.042284
v 8.135008 0.199055 -0.044912
v 8.119304 0.193827 -0.024712
v 8.114996 0.196246 -0.028111
v 8.123576 0.194547 -0.023778
v 8.137275 0.197588 -0.033646
v 8.134504 0.196246 -0.028111
v 8.113555 0.200977 -0.041139
v 8.114250 0.202902 -0.037362
v 8.137414 0.198499 -0.039876
v 8.136368 0.196328 -0.044155
v 8.120028 0.190568 -0.024574
v 8.124750 0.191207 -0.023608
v 8.112924 0.200670 -0.035591
v 8.115371 0.202528 -0.031961
v 8.138247 0.195271 -0.038224
v 8.133667 0.194470 -0.047810
v 8.129560 0.193245 -0.050217
v 8.128997 0.196330 -0.050263
v 8.124750 0.188215 -0.024271
v 8.129473 0.190568 -0.024574
v 8.125924 0.194547 -0.023778
v 8.114885 0.199560 -0.029779
v 8.138210 0.191968 -0.036531
v 8.137189 0.194285 -0.031963
v 8.134274 0.190967 -0.046706
v 8.124750 0.195967 -0.051323
v 8.124750 0.199195 -0.050227
v 8.130197 0.193827 -0.024712
v 8.126036 0.198100 -0.024683
v 8.136365 0.190850 -0.030569
v 8.137158 0.192951 -0.042800
v 8.121348 0.199519 -0.049598
v 8.130628 0.197484 -0.025701
v 8.134258 0.187661 -0.045004
v 8.137139 0.189646 -0.041104
v 8.120503 0.196330 -0.050263
v 8.116877 0.197413 -0.048138
v 8.118439 0.200382 -0.047897
v 8.129888 0.189658 -0.049276
v 8.136353 0.186496 -0.039130
v 8.119940 0.193245 -0.050217
v 8.124750 0.192761 -0.051380
v 8.114492 0.199055 -0.044912
v 8.133830 0.192682 -0.026967
v 8.132703 0.189547 -0.026564
v 8.124750 0.189078 -0.050483
v 8.113132 0.196328 -0.044155
v 8.112086 0.198499 -0.039876
v 8.128406 0.187433 -0.025142
v 8.134950 0.187936 -0.029733
v 8.137347 0.188675 -0.034846
v 8.135818 0.186022 -0.033492
v 8.115833 0.194470 -0.047810
v 8.111253 0.195271 -0.038224
v 8.112226 0.197588 -0.033646
v 8.121095 0.187433 -0.025142
v 8.124750 0.185000 -0.026254
v 8.132926 0.185296 -0.029322
v 8.115227 0.190967 -0.046706
v 8.120902 0.183740 -0.028030
v 8.124750 0.181075 -0.030968
v 8.128598 0.183740 -0.028030
v 8.116797 0.189547 -0.026564
v 8.112342 0.192951 -0.042800
v 8.131090 0.186599 -0.026769
v 8.130175 0.182002 -0.031443
v 8.115670 0.192682 -0.026967
v 8.118410 0.186599 -0.026769
v 8.111290 0.191968 -0.036531
v 8.132925 0.182222 -0.035357
v 8.133629 0.183763 -0.032340
v 8.128585 0.180260 -0.034864
v 8.113135 0.190850 -0.030569
v 8.116574 0.185296 -0.029322
v 8.119326 0.182002 -0.031443
v 8.112311 0.194285 -0.031963
v 8.120915 0.180260 -0.034864
v 8.124750 0.179538 -0.036280
v 8.128134 0.180046 -0.039627
v 8.131027 0.180911 -0.037937
v 8.134946 0.184105 -0.037257
v 8.114551 0.187936 -0.029733
v 8.115871 0.183763 -0.032340
v 8.116575 0.182222 -0.035357
v 8.132575 0.182469 -0.040468
v 8.133655 0.184635 -0.042784
v 8.113682 0.186022 -0.033492
v 8.114554 0.184105 -0.037257
v 8.116925 0.182469 -0.040468
v 8.118473 0.180911 -0.037937
v 8.112153 0.188675 -0.034846
v 8.128971 0.181393 -0.042581
v 8.129553 0.183412 -0.045188
v 8.129879 0.186355 -0.047571
v 8.113148 0.186496 -0.039130
v 8.121367 0.180046 -0.039627
v 8.124750 0.180845 -0.043680
v 8.124750 0.179730 -0.040255
v 8.124750 0.185719 -0.048748
v 8.124750 0.182757 -0.046264
v 8.120529 0.181393 -0.042581
v 8.112361 0.189646 -0.041104
v 8.119947 0.183412 -0.045188
v 8.119621 0.186355 -0.047571
v 8.119613 0.189658 -0.049276
v 8.115846 0.184635 -0.042784
v 8.115242 0.187661 -0.045004
v 8.096009 0.198568 0.006681
v 8.115270 0.205594 0.000147
v 8.095601 0.201410 0.010361
v 8.096701 0.195510 0.002868
v 8.099766 0.205779 0.022089
v 8.097516 0.204993 0.018153
v 8.095996 0.204125 0.013986
v 8.099682 0.189185 -0.004380
v 8.113624 0.207965 0.034724
v 8.104992 0.207007 0.028756
v 8.102076 0.206436 0.025540
v 8.108894 0.207536 0.031988
v 8.119020 0.208239 0.036454
vn -0.5909 0.5728 -0.5681
vn -0.7636 0.3526 -0.5410
vn -0.8279 0.4903 -0.2724
vn -0.6422 0.6755 -0.3622
vn 0.1320 0.8818 -0.4527
vn -0.0000 0.8261 -0.5635
vn 0.1048 0.8910 -0.4417
vn -0.1520 0.8691 -0.4708
vn -0.2636 0.8808 -0.3933
vn -0.2237 0.9037 -0.3650
vn -0.1320 0.8818 -0.4527
vn 0.1520 0.8691 -0.4708
vn -0.3521 0.9104 -0.2171
vn -0.4192 0.8672 -0.2686
vn -0.5040 0.8415 -0.1948
vn -0.4192 0.8982 -0.1323
vn 0.0761 0.9007 -0.4278
vn -0.6482 -0.5652 -0.5102
vn -0.6730 -0.5998 -0.4328
vn -0.7980 -0.5332 -0.2810
vn -0.7936 -0.4896 -0.3613
vn 0.3191 0.8287 -0.4598
vn 0.1885 0.8391 -0.5102
vn 0.1731 0.8532 -0.4921
vn 0.2988 0.8531 -0.4277
vn 0.0386 0.9050 -0.4237
vn -0.0386 0.9050 -0.4237
vn -0.0668 0.9484 -0.3100
vn -0.0000 0.9520 -0.3060
vn -0.0000 0.9087 -0.4175
vn -0.1289 0.9376 -0.3228
vn -0.1721 0.9594 -0.2235
vn -0.0893 0.9746 -0.2055
vn -0.2390 0.9383 -0.2500
vn -0.2971 0.9114 -0.2847
vn -0.2805 0.9437 -0.1751
vn -0.1805 0.9224 -0.3415
vn -0.3995 0.8369 -0.3741
vn -0.4892 0.8072 -0.3303
vn -0.4589 0.8350 -0.3036
vn -0.3780 0.8564 -0.3518
vn -0.0000 -0.8776 -0.4794
vn -0.0000 -0.7294 -0.6841
vn 0.3868 -0.6880 -0.6141
vn 0.3407 -0.8399 -0.4226
vn -0.0000 0.9799 -0.1993
vn 0.3290 0.9407 -0.0824
vn 0.4192 0.8982 -0.1323
vn 0.3521 0.9104 -0.2171
vn 0.2805 0.9437 -0.1751
vn -0.3290 0.9407 -0.0824
vn -0.3501 0.8781 -0.3260
vn 0.0668 0.9484 -0.3100
vn 0.9133 0.3008 0.2746
vn 0.8267 0.3849 0.4104
vn 0.8243 0.2602 0.5028
vn 0.9099 0.1838 0.3719
vn -0.0000 0.9934 -0.1151
vn 0.1047 0.9869 -0.1225
vn 0.0893 0.9746 -0.2055
vn -0.6186 -0.4819 -0.6206
vn -0.4086 -0.5568 -0.7232
vn -0.4105 -0.6469 -0.6427
vn 0.5040 0.8415 -0.1948
vn 0.5035 0.8639 -0.0093
vn 0.6063 0.7903 -0.0881
vn -0.6063 0.7903 -0.0881
vn -0.6652 0.7318 -0.1483
vn -0.7504 0.6586 -0.0562
vn -0.6841 0.7292 0.0156
vn 0.1645 0.8616 -0.4801
vn -0.0761 0.9007 -0.4278
vn 0.1289 0.9376 -0.3228
vn 0.0821 0.7247 -0.6841
vn 0.1390 0.6370 -0.7582
vn 0.0681 0.6264 -0.7766
vn 0.0394 0.7223 -0.6905
vn 0.2014 0.9689 -0.1440
vn 0.1721 0.9594 -0.2235
vn -0.2816 0.8670 -0.4111
vn -0.1645 0.8616 -0.4801
vn -0.1731 0.8532 -0.4921
vn -0.2988 0.8531 -0.4277
vn -0.1048 0.8910 -0.4417
vn 0.1805 0.9224 -0.3415
vn 0.2390 0.9383 -0.2500
vn 0.8277 0.5344 -0.1713
vn 0.8534 0.4657 -0.2340
vn 0.7594 0.5770 -0.3007
vn 0.7352 0.6321 -0.2447
vn 0.1218 0.9924 -0.0180
vn 0.2346 0.9711 -0.0448
vn -0.2324 0.4298 -0.8725
vn -0.2742 0.2970 -0.9147
vn -0.3885 0.3413 -0.8559
vn -0.3247 0.4706 -0.8204
vn -0.1218 0.9924 -0.0180
vn -0.0000 1.0000 -0.0084
vn -0.1047 0.9869 -0.1225
vn 0.2237 0.9037 -0.3650
vn 0.2971 0.9114 -0.2847
vn 0.8279 0.4903 -0.2724
vn 0.6422 0.6755 -0.3622
vn 0.5908 0.7908 -0.1599
vn 0.7764 0.6302 -0.0014
vn -0.2346 0.9711 -0.0448
vn -0.2764 0.9553 0.1047
vn -0.1429 0.9797 0.1407
vn -0.3909 0.9188 0.0551
vn -0.1160 0.7358 -0.6672
vn -0.0821 0.7247 -0.6841
vn -0.1390 0.6370 -0.7582
vn -0.2010 0.6525 -0.7307
vn 0.7348 0.6704 0.1030
vn 0.6841 0.7292 0.0156
vn 0.5676 0.8159 0.1097
vn 0.6088 0.7643 0.2127
vn -0.0000 0.9881 0.1538
vn 0.1429 0.9797 0.1407
vn -0.6458 0.6279 -0.4345
vn -0.7721 0.5167 -0.3699
vn -0.7594 0.5770 -0.3007
vn -0.6402 0.6735 -0.3696
vn 0.2764 0.9553 0.1047
vn 0.3909 0.9188 0.0551
vn 0.2636 0.8808 -0.3933
vn 0.3501 0.8781 -0.3260
vn -0.3048 0.9191 0.2497
vn -0.1561 0.9431 0.2935
vn -0.4366 0.8796 0.1890
vn 0.3780 0.8564 -0.3518
vn 0.2816 0.8670 -0.4111
vn 0.4434 0.7703 -0.4582
vn 0.4498 0.7353 -0.5069
vn 0.3390 0.7758 -0.5321
vn 0.3333 0.8029 -0.4942
vn -0.2014 0.9689 -0.1440
vn 0.3995 0.8369 -0.3741
vn -0.8723 -0.1473 0.4663
vn -0.7726 -0.3517 0.5285
vn -0.5992 -0.2356 0.7652
vn -0.6789 -0.0149 0.7341
vn -0.0000 0.9509 0.3096
vn 0.1561 0.9431 0.2935
vn 0.3555 -0.0170 -0.9345
vn 0.3827 -0.1679 -0.9085
vn 0.1786 -0.2125 -0.9607
vn 0.1731 -0.0524 -0.9835
vn -0.1942 0.7923 -0.5784
vn -0.3347 0.7467 -0.5749
vn -0.3390 0.7758 -0.5321
vn -0.2003 0.8085 -0.5534
vn -0.0000 0.1470 -0.9891
vn -0.0000 0.4089 -0.9126
vn 0.2501 0.4253 -0.8698
vn 0.3383 0.1623 -0.9270
vn -0.1885 0.8391 -0.5102
vn -0.2455 0.6698 -0.7008
vn -0.1451 0.7438 -0.6525
vn -0.0000 0.9005 0.4348
vn 0.1622 0.8937 0.4183
vn 0.3198 0.8714 0.3720
vn 0.3048 0.9191 0.2497
vn -0.1942 0.8247 -0.5311
vn 0.1942 0.8247 -0.5311
vn 0.4192 0.8672 -0.2686
vn 0.3775 0.6305 -0.6782
vn 0.3261 0.5999 -0.7306
vn 0.2455 0.6698 -0.7008
vn 0.2847 0.6905 -0.6649
vn 0.4595 0.1861 -0.8684
vn 0.3160 0.1464 -0.9374
vn 0.2742 0.2970 -0.9147
vn 0.3885 0.3413 -0.8559
vn -0.9745 0.0270 -0.2229
vn -0.9869 -0.0894 -0.1344
vn -0.9984 -0.0053 -0.0558
vn -0.9848 0.1096 -0.1347
vn -0.3371 -0.1486 0.9297
vn -0.0000 -0.1223 0.9925
vn -0.2246 0.1053 0.9687
vn -0.3873 0.0788 0.9186
vn -0.0000 0.9722 0.2342
vn -0.2385 0.9578 0.1606
vn -0.3362 0.8484 0.4088
vn -0.0000 0.8909 0.4542
vn 0.5554 0.7959 -0.2409
vn 0.4589 0.8350 -0.3036
vn -0.3191 0.8287 -0.4598
vn -0.0000 0.8228 0.5683
vn 0.1736 0.8135 0.5551
vn -0.1786 -0.2125 -0.9607
vn -0.0000 -0.2288 -0.9735
vn -0.0000 -0.3875 -0.9219
vn -0.1809 -0.3719 -0.9105
vn 0.4642 0.8318 0.3044
vn 0.4366 0.8796 0.1890
vn 0.4501 -0.4924 0.7449
vn 0.5951 -0.5754 0.5611
vn 0.7726 -0.3517 0.5286
vn 0.5992 -0.2356 0.7652
vn 0.4892 0.8072 -0.3303
vn 0.4260 0.8042 -0.4144
vn 0.1451 0.7438 -0.6525
vn 0.1646 0.7583 -0.6307
vn 0.4921 0.7483 0.4449
vn 0.6475 0.6816 0.3407
vn 0.1601 0.1183 -0.9800
vn -0.5017 0.6117 -0.6116
vn -0.6111 0.5210 -0.5959
vn -0.6365 0.5773 -0.5115
vn -0.5270 0.6537 -0.5431
vn -0.8631 0.4945 0.1030
vn -0.7821 0.5862 0.2112
vn -0.7348 0.6704 0.1030
vn -0.8086 0.5881 0.0168
vn 0.2003 0.8085 -0.5534
vn 0.9630 0.1918 -0.1894
vn 0.9848 0.1096 -0.1347
vn 0.9745 0.0270 -0.2229
vn 0.9523 0.1151 -0.2828
vn -0.1622 0.8937 0.4183
vn -0.1736 0.8135 0.5551
vn -0.8337 -0.4922 0.2502
vn -0.6485 -0.6783 0.3455
vn -0.5951 -0.5754 0.5611
vn -0.3333 0.8029 -0.4942
vn -0.4498 0.7353 -0.5069
vn -0.4434 0.7703 -0.4582
vn -0.4260 0.8042 -0.4144
vn -0.9872 0.1439 0.0690
vn -0.9882 0.0208 0.1517
vn -0.9629 0.0991 0.2511
vn -0.9617 0.2234 0.1585
vn 0.1942 0.7923 -0.5784
vn 0.7504 0.6586 -0.0562
vn 0.6652 0.7318 -0.1483
vn 0.8086 0.5881 0.0168
vn -0.0000 0.7377 0.6751
vn 0.1891 0.7240 0.6634
vn 0.9444 0.3171 0.0872
vn 0.9699 0.2433 0.0050
vn 0.9425 0.3308 -0.0485
vn 0.9112 0.4114 0.0229
vn 0.4879 0.3978 -0.7770
vn 0.5862 0.2400 -0.7738
vn -0.0000 -0.1120 -0.9937
vn -0.3845 -0.0810 -0.9196
vn -0.3383 0.1623 -0.9270
vn 0.4183 0.6640 -0.6197
vn 0.3161 0.7175 -0.6208
vn -0.5189 0.7695 -0.3725
vn 0.7915 0.6011 -0.1105
vn 0.7023 0.6852 -0.1931
vn -0.1646 0.7583 -0.6307
vn -0.2847 0.6905 -0.6649
vn -0.3161 0.7175 -0.6208
vn -0.1862 0.7735 -0.6059
vn 0.5913 0.7583 -0.2745
vn 0.6221 0.7153 -0.3182
vn 0.5189 0.7695 -0.3725
vn -0.4595 0.1861 -0.8684
vn -0.5239 0.0292 -0.8513
vn -0.6648 0.0883 -0.7418
vn -0.5862 0.2400 -0.7738
vn 0.1809 -0.3719 -0.9105
vn 0.1809 -0.5124 -0.8395
vn -0.0000 -0.5264 -0.8502
vn -0.3912 0.6922 0.6065
vn -0.4157 0.4977 0.7612
vn -0.2483 0.5255 0.8137
vn -0.2270 0.7312 0.6433
vn 0.1431 0.2695 -0.9523
vn -0.0000 0.2606 -0.9655
vn -0.0000 0.4007 -0.9162
vn 0.1204 0.4067 -0.9056
vn -0.5913 0.7583 -0.2745
vn -0.5554 0.7959 -0.2409
vn -0.8277 0.5344 -0.1713
vn -0.8920 0.4381 -0.1119
vn -0.8553 0.5160 -0.0467
vn -0.7915 0.6011 -0.1105
vn 0.6402 0.6735 -0.3696
vn -0.1703 -0.6902 -0.7032
vn -0.1550 -0.7433 -0.6507
vn -0.3182 -0.7272 -0.6082
vn -0.5035 0.8639 -0.0093
vn -0.7023 0.6852 -0.1931
vn -0.3160 0.1464 -0.9374
vn -0.3555 -0.0170 -0.9345
vn 0.5351 0.7323 -0.4213
vn 0.8337 -0.4922 0.2502
vn 0.7708 -0.6361 -0.0345
vn 0.8693 -0.4648 -0.1680
vn 0.9404 -0.3040 0.1526
vn -0.5676 0.8159 0.1097
vn -0.4501 -0.4924 0.7449
vn -0.2463 -0.4162 0.8753
vn 0.8553 0.5160 -0.0467
vn 0.8920 0.4381 -0.1119
vn -0.8830 0.4468 0.1437
vn -0.6891 0.5892 0.4219
vn -0.6039 0.7593 0.2423
vn -0.7764 0.6302 -0.0014
vn -0.4642 0.8318 0.3044
vn -0.6088 0.7643 0.2127
vn -0.6475 0.6816 0.3407
vn -0.4921 0.7483 0.4449
vn 0.8631 0.4945 0.1030
vn 0.7821 0.5862 0.2112
vn -0.5640 0.4598 -0.6859
vn -0.6812 0.3062 -0.6650
vn -0.7385 0.3782 -0.5582
vn 0.6458 0.6279 -0.4345
vn 0.5379 0.6940 -0.4786
vn 0.7721 0.5167 -0.3699
vn 0.3347 0.7467 -0.5749
vn -0.3992 0.5187 -0.7561
vn -0.4594 0.5665 -0.6842
vn -0.3775 0.6305 -0.6782
vn -0.3261 0.5999 -0.7306
vn 0.9144 0.3635 -0.1781
vn -0.7668 0.4504 -0.4574
vn -0.3386 0.7881 0.5140
vn -0.3198 0.8714 0.3720
vn 0.6854 0.4772 0.5499
vn 0.8118 0.4927 0.3133
vn 0.6709 0.5853 0.4553
vn 0.4143 0.2983 0.8598
vn 0.7195 0.1955 0.6664
vn 0.7245 0.3924 0.5667
vn 0.4157 0.4977 0.7612
vn 0.4423 0.6991 -0.5618
vn 0.7733 -0.0597 0.6312
vn 0.8056 0.1255 0.5790
vn 0.6902 0.1929 0.6975
vn 0.6764 0.0075 0.7365
vn 0.9184 0.0258 -0.3947
vn 0.9410 -0.0763 -0.3297
vn 0.8796 -0.1787 -0.4409
vn 0.8565 -0.0643 -0.5122
vn -0.3567 0.6919 0.6277
vn -0.1891 0.7240 0.6634
vn 0.5442 0.4209 0.7257
vn 0.5271 0.5491 0.6486
vn 0.3736 0.5996 0.7078
vn 0.3878 0.4769 0.7888
vn 0.2050 0.1409 0.9686
vn 0.3967 0.1147 0.9107
vn 0.3949 0.3064 0.8661
vn 0.2072 0.3329 0.9199
vn 0.1862 0.7735 -0.6059
vn 0.5270 0.6537 -0.5431
vn 0.6629 -0.0902 0.7433
vn 0.7474 -0.1646 0.6437
vn 0.4075 -0.4611 -0.7883
vn 0.4086 -0.5568 -0.7232
vn 0.1764 -0.6030 -0.7780
vn -0.0000 0.6469 0.7626
vn -0.2024 0.6337 0.7466
vn -0.6221 0.7153 -0.3182
vn -0.7352 0.6321 -0.2447
vn 0.2024 0.6337 0.7466
vn 0.2082 0.5082 0.8357
vn -0.0000 0.5177 0.8556
vn -0.0000 -0.3545 0.9350
vn 0.5017 0.6117 -0.6116
vn 0.4594 0.5665 -0.6842
vn -0.5351 0.7323 -0.4213
vn 0.8978 0.3991 0.1861
vn 0.7523 -0.1578 -0.6397
vn 0.7740 -0.2790 -0.5684
vn 0.2010 0.6525 -0.7307
vn 0.1160 0.7358 -0.6672
vn 0.2659 0.5710 -0.7767
vn 0.3992 0.5187 -0.7561
vn -0.5379 0.6940 -0.4786
vn 0.3247 0.4706 -0.8204
vn 0.1870 0.5449 -0.8174
vn -0.4183 0.6640 -0.6197
vn -0.9404 -0.3040 0.1526
vn 0.6365 0.5773 -0.5115
vn 0.6111 0.5210 -0.5959
vn 0.9807 -0.1909 0.0426
vn 0.9900 -0.1394 0.0223
vn 0.9956 -0.0538 0.0765
vn 0.9905 -0.1006 0.0938
vn -0.9099 0.1838 0.3719
vn -0.9133 0.3008 0.2746
vn -0.0394 0.7223 -0.6905
vn 0.7668 0.4504 -0.4574
vn 0.7385 0.3782 -0.5582
vn 0.9752 -0.2191 -0.0308
vn 0.9555 -0.2949 0.0100
vn -0.1870 0.5449 -0.8174
vn -0.2659 0.5710 -0.7767
vn -0.4423 0.6991 -0.5618
vn -0.0000 0.7175 -0.6965
vn -0.0000 0.6234 -0.7819
vn 0.6812 0.3062 -0.6650
vn 0.5640 0.4598 -0.6859
vn 0.8608 0.3189 -0.3967
vn 0.8663 0.3953 -0.3053
vn -0.5560 0.0675 0.8284
vn -0.5524 -0.0245 0.8332
vn -0.3955 0.0257 0.9181
vn -0.3967 0.1147 0.9107
vn 0.0933 0.5292 -0.8434
vn -0.4879 0.3978 -0.7770
vn -0.5898 -0.7592 -0.2752
vn -0.6654 -0.6033 -0.4397
vn -0.3868 -0.6880 -0.6141
vn -0.3407 -0.8399 -0.4226
vn -0.0000 0.5249 -0.8512
vn -0.0933 0.5292 -0.8434
vn -0.0681 0.6264 -0.7766
vn -0.9752 -0.2191 -0.0308
vn -0.9519 -0.1935 -0.2375
vn -0.9392 -0.3237 -0.1145
vn 0.8296 0.2372 -0.5054
vn 0.7675 0.1594 -0.6210
vn -0.6902 0.1929 0.6975
vn -0.5545 0.2567 0.7916
vn -0.5442 0.4209 0.7257
vn -0.6933 0.3446 0.6329
vn 0.9822 0.1763 -0.0656
vn 0.9872 0.1439 0.0690
vn 0.9976 0.0697 0.0048
vn 0.2324 0.4298 -0.8725
vn -0.8608 0.3189 -0.3967
vn -0.8663 0.3953 -0.3053
vn 0.9231 0.2917 -0.2507
vn 0.9147 0.2135 -0.3431
vn 0.8817 0.1287 -0.4539
vn 0.5109 0.6496 0.5630
vn 0.9589 0.2589 -0.1165
vn 0.9617 0.2234 0.1585
vn -0.1809 -0.5124 -0.8395
vn -0.0000 -0.6161 -0.7877
vn -0.1764 -0.6030 -0.7780
vn 0.6648 0.0883 -0.7418
vn 0.5239 0.0292 -0.8513
vn 0.6933 0.3446 0.6329
vn 0.8192 0.0466 -0.5716
vn 0.3386 0.7881 0.5140
vn -0.4005 -0.3219 -0.8579
vn -0.3827 -0.1679 -0.9085
vn 0.5545 0.2567 0.7916
vn 0.3567 0.6919 0.6277
vn 0.3912 0.6922 0.6065
vn 0.6891 0.5892 0.4219
vn 0.9629 0.0991 0.2511
vn 0.9882 0.0208 0.1517
vn 0.8895 -0.2922 -0.3512
vn 0.7816 -0.3903 -0.4865
vn 0.5560 0.0675 0.8284
vn 0.8890 0.0507 0.4552
vn -0.0000 0.3400 0.9404
vn -0.0000 0.1484 0.9889
vn 0.3955 0.0257 0.9181
vn 0.5524 -0.0245 0.8332
vn 0.2037 0.0541 0.9775
vn 0.9984 -0.0053 -0.0558
vn 0.9869 -0.0894 -0.1344
vn -0.6628 0.0088 -0.7487
vn -0.5854 0.2336 -0.7764
vn -0.2082 0.5082 0.8357
vn -0.2072 0.3329 0.9199
vn 0.2483 0.5255 0.8137
vn 0.2477 0.3312 0.9105
vn -0.4457 0.8950 0.0201
vn -0.0000 -0.7004 -0.7137
vn -0.3736 0.5996 0.7078
vn -0.9184 0.0258 -0.3947
vn -0.9410 -0.0763 -0.3297
vn -0.9523 0.1151 -0.2828
vn 0.9755 -0.0479 0.2149
vn 0.9356 -0.0401 0.3507
vn -0.5109 0.6496 0.5630
vn -0.5271 0.5491 0.6486
vn -0.6709 0.5853 0.4553
vn -0.2050 0.1409 0.9686
vn -0.0000 0.0625 0.9980
vn -0.2037 0.0541 0.9775
vn 0.8310 -0.1813 0.5259
vn 0.8497 -0.1102 0.5156
vn -0.8890 0.0507 0.4552
vn -0.9356 -0.0401 0.3507
vn -0.8497 -0.1102 0.5156
vn -0.9755 -0.0479 0.2149
vn -0.9000 -0.1340 0.4148
vn 0.9000 -0.1340 0.4148
vn -0.3949 0.3064 0.8661
vn -0.3878 0.4769 0.7888
vn -0.8118 0.4927 0.3133
vn 0.7159 -0.0340 -0.6974
vn 0.5693 -0.1069 -0.8151
vn -0.9630 0.1918 -0.1894
vn -0.9822 0.1763 -0.0656
vn -0.9589 0.2589 -0.1165
vn 0.9288 0.2465 0.2767
vn 0.8830 0.4468 0.1437
vn -0.6854 0.4772 0.5499
vn -0.8978 0.3991 0.1861
vn -0.6764 0.0075 0.7365
vn -0.6629 -0.0902 0.7433
vn -0.9555 -0.2949 0.0100
vn -0.8820 -0.4467 -0.1502
vn -0.9112 0.4114 0.0229
vn -0.7733 -0.0597 0.6312
vn -0.7474 -0.1646 0.6437
vn -0.8848 -0.3987 -0.2411
vn 0.7936 -0.4896 -0.3613
vn 0.8848 -0.3987 -0.2411
vn 0.8820 -0.4467 -0.1502
vn 0.7980 -0.5332 -0.2810
vn -0.8056 0.1255 0.5790
vn -0.0000 -0.3507 -0.9365
vn -0.4042 -0.3136 -0.8592
vn -0.4471 0.4870 -0.7503
vn -0.8895 -0.2922 -0.3512
vn -0.7816 -0.3903 -0.4865
vn 0.6482 -0.5652 -0.5102
vn 0.6730 -0.5998 -0.4328
vn -0.8534 0.4657 -0.2340
vn 0.9519 -0.1935 -0.2375
vn 0.9392 -0.3237 -0.1145
vn -0.8192 0.0466 -0.5716
vn -0.8817 0.1287 -0.4539
vn -0.8296 0.2372 -0.5054
vn -0.7675 0.1594 -0.6210
vn 0.5226 -0.6602 -0.5395
vn 0.4105 -0.6469 -0.6427
vn -0.5226 -0.6602 -0.5395
vn -0.8243 0.2602 0.5028
vn -0.4041 -0.5131 -0.7572
vn -0.0000 -0.5538 -0.8326
vn -0.0000 -0.8872 0.4614
vn 0.2323 -0.7209 0.6530
vn -0.0000 -0.6438 0.7652
vn -0.2323 -0.7209 0.6530
vn -0.9956 -0.0538 0.0765
vn -0.9905 -0.1006 0.0938
vn 0.1703 -0.6902 -0.7032
vn 0.3182 -0.7272 -0.6082
vn 0.1550 -0.7433 -0.6507
vn -0.8267 0.3849 0.4104
vn -0.9400 0.2956 -0.1704
vn -0.9976 0.0697 0.0048
vn -0.9900 -0.1394 0.0223
vn -0.9807 -0.1909 0.0426
vn -0.9147 0.2135 -0.3431
vn -0.9231 0.2917 -0.2507
vn -0.0000 -0.7498 -0.6616
vn -0.0000 -0.0665 -0.9978
vn -0.9444 0.3171 0.0872
vn -0.9699 0.2433 0.0050
vn 0.6186 -0.4819 -0.6206
vn -0.9425 0.3308 -0.0484
vn -0.7523 -0.1578 -0.6397
vn -0.6008 -0.2465 -0.7605
vn -0.6149 -0.3770 -0.6927
vn -0.7740 -0.2790 -0.5684
vn -0.9288 0.2465 0.2767
vn -0.9229 0.0534 0.3813
vn -0.7195 0.1955 0.6664
vn -0.7245 0.3924 0.5667
vn 0.2270 0.7312 0.6433
vn 0.3362 0.8484 0.4088
vn -0.9144 0.3635 -0.1781
vn 0.6149 -0.3770 -0.6927
vn 0.6008 -0.2465 -0.7605
vn 0.9946 0.0872 -0.0570
vn 0.9171 -0.0762 -0.3912
vn 0.8651 0.1432 -0.4808
vn 0.9400 0.2956 -0.1704
vn -0.1431 0.2695 -0.9523
vn -0.1601 0.1183 -0.9800
vn -0.2284 0.9514 -0.2067
vn -0.3559 0.8297 -0.4301
vn -0.5908 0.7908 -0.1599
vn -0.4075 -0.4611 -0.7883
vn 0.4005 -0.3219 -0.8579
vn -0.7159 -0.0340 -0.6974
vn -0.5693 -0.1069 -0.8151
vn -0.0000 0.1074 -0.9942
vn -0.1731 -0.0524 -0.9835
vn -0.1204 0.4067 -0.9056
vn -0.8651 0.1432 -0.4808
vn -0.8565 -0.0643 -0.5122
vn 0.6654 -0.6033 -0.4397
vn 0.7023 -0.4209 -0.5741
vn 0.9171 -0.2759 -0.2877
vn -0.8796 -0.1787 -0.4409
vn -0.4143 0.2983 0.8598
vn -0.2477 0.3312 0.9105
vn 0.7025 -0.2199 -0.6769
vn 0.4042 -0.3136 -0.8592
vn 0.3845 -0.0810 -0.9196
vn 0.6628 0.0088 -0.7487
vn -0.4458 -0.6719 0.5915
vn -0.4339 -0.7210 0.5402
vn -0.2832 -0.9115 0.2982
vn -0.4342 -0.6244 0.6493
vn -0.2828 -0.9120 0.2971
vn -0.0000 -0.9960 0.0892
vn 0.1650 -0.9818 0.0937
vn 0.1840 -0.9744 0.1291
vn 0.2832 -0.9115 0.2982
vn -0.1575 -0.9799 0.1226
vn -0.1840 -0.9744 0.1291
vn -0.4214 -0.5903 0.6885
vn -0.0517 -0.9985 0.0205
vn -0.0000 -0.9998 0.0186
vn -0.1650 -0.9818 0.0937
vn -0.1165 -0.9921 0.0459
vn -0.0893 -0.9956 0.0295
vn -0.0002 -0.9878 0.1556
vn 0.2385 0.9578 0.1606
vn -0.0000 0.9969 -0.0789
vn 0.5909 0.5728 -0.5681
vn 0.4471 0.4870 -0.7503
vn 0.2538 0.7162 -0.6501
vn 0.3559 0.8297 -0.4301
vn 0.2284 0.9514 -0.2067
vn -0.0000 0.8944 -0.4473
vn 0.4457 0.8950 0.0201
vn -0.2538 0.7162 -0.6501
vn 0.6039 0.7593 0.2423
vn -0.8310 -0.1813 0.5259
vn -0.0000 0.6687 -0.7436
vn -0.2501 0.4253 -0.8698
vn 0.3873 0.0788 0.9186
vn 0.2246 0.1053 0.9687
vn 0.6789 -0.0149 0.7341
vn 0.9229 0.0534 0.3813
vn 0.9928 -0.1089 0.0494
vn 0.7636 0.3526 -0.5410
vn 0.3371 -0.1486 0.9297
vn -0.9171 -0.0762 -0.3912
vn -0.9946 0.0872 -0.0570
vn 0.2463 -0.4162 0.8753
vn -0.2503 -0.9531 -0.1703
vn -0.0000 -0.9777 -0.2102
vn -0.9928 -0.1089 0.0494
vn -0.7025 -0.2199 -0.6769
vn -0.9171 -0.2759 -0.2877
vn -0.3587 -0.8321 0.4230
vn 0.5854 0.2336 -0.7764
vn -0.7023 -0.4209 -0.5741
vn -0.8693 -0.4648 -0.1680
vn -0.7708 -0.6361 -0.0345
vn -0.5945 -0.7934 0.1309
vn -0.4484 -0.8925 -0.0484
vn -0.0000 -0.9945 0.1043
vn -0.2532 -0.9469 0.1983
vn 0.3587 -0.8321 0.4230
vn 0.5945 -0.7934 0.1309
vn 0.6485 -0.6783 0.3455
vn 0.2532 -0.9469 0.1983
vn 0.8723 -0.1473 0.4663
vn 0.4484 -0.8925 -0.0484
vn 0.5898 -0.7592 -0.2752
vn 0.2503 -0.9531 -0.1703
vn 0.4041 -0.5131 -0.7572
vn 0.4458 -0.6719 0.5915
vn 0.4339 -0.7210 0.5402
vn 0.4342 -0.6244 0.6493
vn 0.1575 -0.9799 0.1226
vn 0.2828 -0.9120 0.2971
vn 0.4214 -0.5903 0.6885
vn 0.0517 -0.9985 0.0205
vn 0.1165 -0.9921 0.0459
vn 0.0893 -0.9956 0.0295
vn 0.0002 -0.9878 0.1556
vt 0.000000 0.000000
s 1
f 554/1/1 598/1/2 562/1/3 555/1/4
f 1/1/5 4/1/6 2/1/7
f 51/1/8 52/1/9 44/1/10 43/1/11
f 1/1/5 5/1/12 4/1/6
f 47/1/13 83/1/14 82/1/15 76/1/16
f 2/1/7 4/1/6 8/1/17
f 332/1/18 333/1/19 325/1/20 324/1/21
f 91/1/22 92/1/23 36/1/24 84/1/25
f 8/1/17 4/1/6 11/1/26
f 24/1/27 25/1/28 18/1/29 19/1/30
f 31/1/31 34/1/32 26/1/33 25/1/28
f 40/1/34 48/1/35 47/1/13 46/1/36
f 44/1/10 48/1/35 40/1/34 38/1/37
f 96/1/38 124/1/39 90/1/40 64/1/41
f 652/1/42 655/1/43 648/1/44 647/1/45
f 11/1/26 4/1/6 19/1/30
f 25/1/28 26/1/33 20/1/46 18/1/29
f 21/1/47 63/1/48 15/1/49 14/1/50
f 47/1/13 76/1/16 54/1/51 46/1/36
f 55/1/52 83/1/14 47/1/13 48/1/35
f 52/1/9 55/1/52 48/1/35 44/1/10
f 11/1/26 19/1/30 18/1/29 13/1/53
f 19/1/30 4/1/6 24/1/27
f 355/1/54 348/1/55 347/1/56 350/1/57
f 27/1/58 35/1/59 12/1/60 20/1/46
f 332/1/18 380/1/61 379/1/62 345/1/63
f 71/1/64 63/1/48 132/1/65 131/1/66
f 88/1/67 113/1/68 112/1/69 107/1/70
f 5/1/12 29/1/71 4/1/6
f 24/1/27 4/1/6 30/1/72
f 11/1/26 13/1/53 6/1/73 8/1/17
f 422/1/74 427/1/75 219/1/76 217/1/77
f 12/1/60 35/1/59 17/1/78 10/1/79
f 29/1/71 36/1/24 4/1/6
f 59/1/80 60/1/81 66/1/82 65/1/83
f 30/1/72 4/1/6 37/1/84
f 2/1/7 8/1/17 6/1/73 7/1/85
f 7/1/85 6/1/73 10/1/79 9/1/86
f 326/1/87 377/1/88 334/1/89 327/1/90
f 41/1/91 42/1/92 17/1/78 35/1/59
f 9/1/86 10/1/79 17/1/78 14/1/50
f 224/1/93 247/1/94 229/1/95 225/1/96
f 39/1/97 45/1/98 27/1/58 32/1/99
f 37/1/84 4/1/6 43/1/11
f 2/1/7 7/1/85 3/1/100 1/1/5
f 9/1/86 16/1/101 3/1/100 7/1/85
f 529/1/102 530/1/103 520/1/104 528/1/105
f 56/1/106 62/1/107 61/1/108 39/1/97
f 54/1/51 70/1/109 62/1/107 56/1/106
f 188/1/110 196/1/111 197/1/112 190/1/113
f 43/1/11 4/1/6 51/1/8
f 157/1/114 158/1/115 139/1/116 156/1/117
f 53/1/118 49/1/119 41/1/91 45/1/98
f 149/1/120 206/1/121 134/1/122 128/1/123
f 50/1/124 58/1/125 21/1/47 42/1/92
f 17/1/78 42/1/92 21/1/47 14/1/50
f 23/1/126 3/1/100 16/1/101 22/1/127
f 67/1/128 68/1/129 61/1/108 62/1/107
f 70/1/109 89/1/130 67/1/128 62/1/107
f 22/1/127 78/1/131 28/1/132 23/1/126
f 28/1/132 29/1/71 5/1/12 23/1/126
f 51/1/8 4/1/6 60/1/81
f 109/1/133 195/1/134 103/1/135 102/1/136
f 40/1/34 46/1/36 33/1/137 34/1/32
f 38/1/37 40/1/34 34/1/32 31/1/31
f 117/1/138 84/1/25 28/1/132 78/1/131
f 37/1/84 38/1/37 31/1/31 30/1/72
f 60/1/81 4/1/6 66/1/82
f 628/1/139 637/1/140 618/1/141 622/1/142
f 69/1/143 80/1/144 49/1/119 53/1/118
f 455/1/145 460/1/146 448/1/147 449/1/148
f 150/1/149 163/1/150 143/1/151 144/1/152
f 581/1/153 582/1/154 540/1/155 573/1/156
f 66/1/82 4/1/6 73/1/157
f 188/1/110 190/1/113 182/1/158 181/1/159
f 69/1/143 86/1/160 85/1/161 80/1/144
f 85/1/161 152/1/162 57/1/163 80/1/144
f 58/1/125 132/1/65 63/1/48 21/1/47
f 51/1/8 60/1/81 59/1/80 52/1/9
f 55/1/52 64/1/41 90/1/40 83/1/14
f 73/1/157 4/1/6 79/1/164
f 91/1/22 102/1/136 97/1/165 92/1/23
f 71/1/64 72/1/166 15/1/49 63/1/48
f 3/1/100 23/1/126 5/1/12 1/1/5
f 408/1/167 426/1/168 416/1/169 409/1/170
f 453/1/171 454/1/172 447/1/173 445/1/174
f 262/1/175 315/1/176 269/1/177 263/1/178
f 566/1/179 567/1/180 559/1/181 557/1/182
f 59/1/80 64/1/41 55/1/52 52/1/9
f 519/1/183 524/1/184 527/1/185 525/1/186
f 71/1/64 126/1/187 77/1/188 72/1/166
f 66/1/82 73/1/157 74/1/189 65/1/83
f 36/1/24 92/1/23 4/1/6
f 93/1/190 160/1/191 85/1/161 86/1/160
f 423/1/192 443/1/193 410/1/194 418/1/195
f 57/1/163 152/1/162 151/1/196 145/1/197
f 620/1/198 613/1/199 605/1/200 600/1/201
f 77/1/188 121/1/202 117/1/138 78/1/131
f 110/1/203 91/1/22 84/1/25 117/1/138
f 92/1/23 97/1/165 4/1/6
f 416/1/169 417/1/204 215/1/205 409/1/170
f 289/1/206 164/1/207 156/1/117 151/1/196
f 449/1/148 450/1/208 454/1/172 455/1/145
f 184/1/209 204/1/210 200/1/211 193/1/212
f 146/1/213 147/1/214 106/1/215 141/1/216
f 97/1/165 104/1/217 4/1/6
f 487/1/218 491/1/219 481/1/220 482/1/221
f 75/1/222 108/1/223 93/1/190 86/1/160
f 637/1/140 642/1/224 638/1/225 629/1/226
f 79/1/164 138/1/227 74/1/189 73/1/157
f 143/1/151 155/1/228 137/1/229 138/1/227
f 138/1/227 137/1/229 130/1/230 74/1/189
f 250/1/231 279/1/232 256/1/233 251/1/234
f 104/1/217 111/1/235 4/1/6
f 165/1/236 133/1/237 131/1/66 158/1/115
f 157/1/114 312/1/238 165/1/236 158/1/115
f 131/1/66 133/1/237 126/1/187 71/1/64
f 93/1/190 167/1/239 166/1/240 160/1/191
f 363/1/241 497/1/242 371/1/243 365/1/244
f 445/1/174 452/1/245 474/1/246 453/1/171
f 581/1/153 597/1/247 596/1/248 591/1/249
f 402/1/250 408/1/167 409/1/170 207/1/251
f 96/1/38 130/1/230 123/1/252 124/1/39
f 165/1/236 319/1/253 172/1/254 133/1/237
f 175/1/255 176/1/256 170/1/257 169/1/258
f 6/1/73 13/1/53 12/1/60 10/1/79
f 557/1/182 622/1/142 618/1/141 566/1/179
f 127/1/259 178/1/260 116/1/261 121/1/202
f 241/1/262 425/1/263 240/1/264 235/1/265
f 410/1/194 451/1/266 393/1/267 403/1/268
f 535/1/269 549/1/270 543/1/271 536/1/272
f 446/1/273 459/1/274 440/1/275 439/1/276
f 90/1/40 124/1/39 119/1/277 114/1/278
f 135/1/279 223/1/280 140/1/281 136/1/282
f 327/1/90 334/1/89 185/1/283 178/1/260
f 353/1/284 354/1/285 346/1/286 345/1/63
f 82/1/15 88/1/67 81/1/287 76/1/16
f 113/1/68 114/1/278 119/1/277 118/1/288
f 326/1/87 327/1/90 172/1/254 319/1/253
f 241/1/262 430/1/289 429/1/290 425/1/263
f 116/1/261 186/1/291 109/1/133 110/1/203
f 607/1/292 636/1/293 595/1/294 606/1/295
f 87/1/296 89/1/130 70/1/109 81/1/287
f 88/1/67 107/1/70 87/1/296 81/1/287
f 618/1/141 623/1/297 611/1/298 566/1/179
f 318/1/299 372/1/300 326/1/87 319/1/253
f 103/1/135 104/1/217 97/1/165 102/1/136
f 568/1/301 569/1/302 534/1/303 563/1/304
f 79/1/164 4/1/6 144/1/152
f 94/1/305 100/1/306 98/1/307 99/1/308
f 311/1/309 312/1/238 157/1/114 303/1/310
f 199/1/311 220/1/312 212/1/313 204/1/210
f 185/1/283 339/1/314 194/1/315 186/1/291
f 334/1/89 384/1/316 339/1/314 185/1/283
f 144/1/152 4/1/6 150/1/149
f 103/1/135 202/1/317 111/1/235 104/1/217
f 191/1/318 192/1/319 183/1/320 189/1/321
f 87/1/296 100/1/306 94/1/305 89/1/130
f 376/1/322 377/1/88 326/1/87 372/1/300
f 204/1/210 212/1/313 205/1/323 200/1/211
f 87/1/296 107/1/70 106/1/215 100/1/306
f 101/1/324 95/1/325 94/1/305 99/1/308
f 101/1/324 108/1/223 75/1/222 95/1/325
f 310/1/326 348/1/55 302/1/327 301/1/328
f 588/1/329 561/1/330 553/1/331 552/1/332
f 195/1/134 201/1/333 202/1/317 103/1/135
f 106/1/215 147/1/214 98/1/307 100/1/306
f 321/1/334 341/1/335 328/1/336 320/1/337
f 114/1/278 82/1/15 83/1/14 90/1/40
f 15/1/49 72/1/166 22/1/127 16/1/101
f 475/1/338 476/1/339 468/1/340 469/1/341
f 101/1/324 120/1/342 115/1/343 108/1/223
f 306/1/344 314/1/345 281/1/346 280/1/347
f 290/1/348 299/1/349 298/1/350 292/1/351
f 150/1/149 4/1/6 169/1/258
f 207/1/251 208/1/352 111/1/235 202/1/317
f 201/1/333 402/1/250 207/1/251 202/1/317
f 194/1/315 397/1/353 201/1/333 195/1/134
f 313/1/354 322/1/355 321/1/334 320/1/337
f 393/1/267 457/1/356 387/1/357 386/1/358
f 174/1/359 167/1/239 115/1/343 173/1/360
f 169/1/258 4/1/6 175/1/255
f 207/1/251 409/1/170 215/1/205 208/1/352
f 318/1/299 319/1/253 165/1/236 312/1/238
f 122/1/361 129/1/362 118/1/288 119/1/277
f 280/1/347 281/1/346 274/1/363 273/1/364
f 273/1/364 274/1/363 174/1/359 267/1/365
f 175/1/255 4/1/6 181/1/159
f 566/1/179 611/1/298 574/1/366 567/1/180
f 118/1/288 136/1/282 112/1/69 113/1/68
f 311/1/309 365/1/244 318/1/299 312/1/238
f 396/1/367 415/1/368 408/1/167 402/1/250
f 123/1/252 142/1/369 128/1/123 122/1/361
f 355/1/54 356/1/370 302/1/327 348/1/55
f 463/1/371 469/1/341 468/1/340 464/1/372
f 181/1/159 4/1/6 188/1/110
f 416/1/169 428/1/373 421/1/374 417/1/204
f 426/1/168 431/1/375 428/1/373 416/1/169
f 419/1/376 426/1/168 408/1/167 415/1/368
f 137/1/229 155/1/228 148/1/377 142/1/369
f 135/1/279 136/1/282 118/1/288 129/1/362
f 188/1/110 4/1/6 196/1/111
f 421/1/374 428/1/373 427/1/75 422/1/74
f 419/1/376 437/1/378 431/1/375 426/1/168
f 431/1/375 432/1/379 427/1/75 428/1/373
f 183/1/320 192/1/319 184/1/209 177/1/380
f 628/1/139 646/1/381 642/1/224 637/1/140
f 396/1/367 397/1/353 391/1/382 395/1/383
f 391/1/382 397/1/353 194/1/315 339/1/314
f 359/1/384 495/1/385 357/1/386 352/1/387
f 24/1/27 30/1/72 31/1/31 25/1/28
f 256/1/233 257/1/388 238/1/389 251/1/234
f 196/1/111 4/1/6 203/1/390
f 390/1/391 420/1/392 395/1/383 391/1/382
f 489/1/393 495/1/385 359/1/384 486/1/394
f 197/1/112 216/1/395 198/1/396 190/1/113
f 163/1/150 171/1/397 155/1/228 143/1/151
f 111/1/235 208/1/352 4/1/6
f 203/1/390 4/1/6 210/1/398
f 217/1/77 219/1/76 211/1/399 210/1/398
f 473/1/400 414/1/401 395/1/383 420/1/392
f 484/1/402 390/1/391 384/1/316 383/1/403
f 258/1/404 276/1/405 268/1/406 260/1/407
f 208/1/352 215/1/205 4/1/6
f 198/1/396 225/1/96 191/1/318 189/1/321
f 432/1/379 433/1/408 219/1/76 427/1/75
f 210/1/398 4/1/6 217/1/77
f 229/1/95 230/1/409 191/1/318 225/1/96
f 644/1/410 661/1/411 658/1/412 656/1/413
f 218/1/414 441/1/415 209/1/416 211/1/399
f 308/1/417 315/1/176 337/1/418 316/1/419
f 473/1/400 420/1/392 478/1/420 472/1/421
f 252/1/422 253/1/423 168/1/424 246/1/425
f 490/1/426 497/1/242 358/1/427 496/1/428
f 431/1/375 437/1/378 438/1/429 432/1/379
f 371/1/243 372/1/300 318/1/299 365/1/244
f 205/1/323 226/1/430 213/1/431 206/1/121
f 419/1/376 452/1/245 445/1/174 437/1/378
f 445/1/174 447/1/173 438/1/429 437/1/378
f 474/1/246 452/1/245 414/1/401 473/1/400
f 383/1/403 488/1/432 483/1/433 484/1/402
f 478/1/420 484/1/402 483/1/433 479/1/434
f 288/1/435 301/1/328 164/1/207 289/1/206
f 363/1/241 365/1/244 311/1/309 356/1/370
f 194/1/315 195/1/134 109/1/133 186/1/291
f 483/1/433 488/1/432 487/1/218 482/1/221
f 376/1/322 492/1/436 487/1/218 488/1/432
f 355/1/54 364/1/437 363/1/241 356/1/370
f 398/1/438 403/1/268 374/1/439 392/1/440
f 20/1/46 12/1/60 13/1/53 18/1/29
f 453/1/171 474/1/246 466/1/441 465/1/442
f 483/1/433 482/1/221 475/1/338 479/1/434
f 487/1/218 492/1/436 490/1/426 491/1/219
f 347/1/56 340/1/443 328/1/336 341/1/335
f 347/1/56 348/1/55 310/1/326 340/1/443
f 534/1/303 569/1/302 535/1/269 527/1/185
f 478/1/420 479/1/434 470/1/444 472/1/421
f 302/1/327 303/1/310 164/1/207 301/1/328
f 85/1/161 160/1/191 159/1/445 152/1/162
f 404/1/446 424/1/447 423/1/192 418/1/195
f 67/1/128 95/1/325 75/1/222 68/1/129
f 328/1/336 340/1/443 306/1/344 329/1/448
f 288/1/435 289/1/206 159/1/445 282/1/449
f 526/1/450 552/1/332 553/1/331 545/1/451
f 349/1/452 364/1/437 355/1/54 350/1/57
f 358/1/427 364/1/437 349/1/452 351/1/453
f 468/1/340 471/1/454 407/1/455 464/1/372
f 304/1/456 329/1/448 298/1/350 299/1/349
f 371/1/243 497/1/242 490/1/426 492/1/436
f 174/1/359 274/1/363 166/1/240 167/1/239
f 475/1/338 482/1/221 481/1/220 476/1/339
f 150/1/149 169/1/258 170/1/257 163/1/150
f 342/1/457 350/1/57 347/1/56 341/1/335
f 290/1/348 292/1/351 266/1/458 284/1/459
f 298/1/350 280/1/347 273/1/364 292/1/351
f 297/1/460 305/1/461 304/1/456 299/1/349
f 297/1/460 299/1/349 290/1/348 291/1/462
f 494/1/463 493/1/464 481/1/220 491/1/219
f 69/1/143 53/1/118 61/1/108 68/1/129
f 596/1/248 608/1/465 592/1/466 591/1/249
f 57/1/163 145/1/197 58/1/125 50/1/124
f 266/1/458 267/1/365 180/1/467 259/1/468
f 588/1/329 552/1/332 544/1/469 584/1/470
f 438/1/429 439/1/276 433/1/408 432/1/379
f 524/1/184 533/1/471 534/1/303 527/1/185
f 494/1/463 496/1/428 357/1/386 495/1/385
f 224/1/93 225/1/96 198/1/396 216/1/395
f 353/1/284 392/1/440 374/1/439 368/1/472
f 125/1/473 173/1/360 115/1/343 120/1/342
f 254/1/474 360/1/475 262/1/175 255/1/476
f 344/1/477 351/1/453 349/1/452 343/1/478
f 105/1/479 162/1/480 125/1/473 120/1/342
f 105/1/479 120/1/342 101/1/324 99/1/308
f 98/1/307 154/1/481 105/1/479 99/1/308
f 261/1/482 284/1/459 266/1/458 259/1/468
f 283/1/483 284/1/459 261/1/482 275/1/484
f 330/1/485 335/1/486 321/1/334 322/1/355
f 264/1/487 286/1/488 294/1/489
f 286/1/488 287/1/490 295/1/491
f 336/1/492 343/1/478 335/1/486 330/1/485
f 438/1/429 447/1/173 446/1/273 439/1/276
f 329/1/448 306/1/344 280/1/347 298/1/350
f 261/1/482 259/1/468 187/1/493 260/1/407
f 187/1/493 259/1/468 180/1/467 179/1/494
f 352/1/387 357/1/386 351/1/453 344/1/477
f 153/1/495 154/1/481 98/1/307 147/1/214
f 466/1/441 467/1/496 462/1/497 465/1/442
f 455/1/145 465/1/442 462/1/497 460/1/146
f 168/1/424 253/1/423 187/1/493 179/1/494
f 236/1/498 263/1/178 243/1/499 237/1/500
f 553/1/331 560/1/501 538/1/502 545/1/451
f 470/1/444 479/1/434 475/1/338 469/1/341
f 161/1/503 162/1/480 105/1/479 154/1/481
f 281/1/346 314/1/345 288/1/435 282/1/449
f 342/1/457 341/1/335 321/1/334 335/1/486
f 146/1/213 234/1/504 153/1/495 147/1/214
f 258/1/404 272/1/505 277/1/506 276/1/405
f 161/1/503 246/1/425 168/1/424 162/1/480
f 309/1/507 308/1/417 316/1/419
f 309/1/507 316/1/419 317/1/508
f 140/1/281 141/1/216 112/1/69 136/1/282
f 140/1/281 228/1/509 146/1/213 141/1/216
f 271/1/510 285/1/511 277/1/506 272/1/505
f 317/1/508 316/1/419 323/1/512
f 148/1/377 149/1/120 128/1/123 142/1/369
f 400/1/513 480/1/514 401/1/515 394/1/516
f 27/1/58 45/1/98 41/1/91 35/1/59
f 200/1/211 149/1/120 148/1/377 193/1/212
f 252/1/422 272/1/505 258/1/404 253/1/423
f 271/1/510 272/1/505 252/1/422 265/1/517
f 601/1/518 660/1/519 596/1/248 597/1/247
f 592/1/466 598/1/2 554/1/1 593/1/520
f 471/1/454 480/1/514 400/1/513 407/1/455
f 331/1/521 367/1/522 324/1/21 323/1/512
f 388/1/523 400/1/513 394/1/516 389/1/524
f 134/1/122 214/1/525 135/1/279 129/1/362
f 256/1/233 279/1/232 287/1/490 286/1/488
f 477/1/526 493/1/464 489/1/393 485/1/527
f 248/1/528 249/1/529 221/1/530 242/1/531
f 388/1/523 389/1/524 382/1/532 381/1/533
f 367/1/522 380/1/61 332/1/18 324/1/21
f 264/1/487 294/1/489 271/1/510 265/1/517
f 343/1/478 342/1/457 335/1/486
f 336/1/492 344/1/477 343/1/478
f 338/1/534 345/1/63 346/1/286
f 245/1/535 265/1/517 252/1/422 246/1/425
f 74/1/189 130/1/230 96/1/38 65/1/83
f 658/1/412 659/1/536 654/1/537 655/1/43
f 616/1/538 617/1/539 612/1/540 615/1/541
f 256/1/233 286/1/488 264/1/487 257/1/388
f 287/1/490 279/1/232 278/1/542 296/1/543
f 369/1/544 381/1/533 375/1/545 370/1/546
f 238/1/389 257/1/388 245/1/535 239/1/547
f 238/1/389 239/1/547 153/1/495 234/1/504
f 562/1/3 603/1/548 568/1/301 563/1/304
f 151/1/196 156/1/117 139/1/116 145/1/197
f 278/1/542 279/1/232 250/1/231 270/1/549
f 278/1/542 307/1/550 300/1/551 296/1/543
f 220/1/312 242/1/531 221/1/530 212/1/313
f 231/1/552 255/1/476 236/1/498 232/1/553
f 369/1/544 370/1/546 362/1/554 368/1/472
f 442/1/555 449/1/148 448/1/147 443/1/193
f 168/1/424 179/1/494 125/1/473 162/1/480
f 250/1/231 251/1/234 233/1/556 244/1/557
f 159/1/445 289/1/206 151/1/196 152/1/162
f 407/1/455 400/1/513 388/1/523 406/1/558
f 26/1/33 32/1/99 27/1/58 20/1/46
f 468/1/340 476/1/339 477/1/526 471/1/454
f 227/1/559 244/1/557 233/1/556 228/1/509
f 470/1/444 469/1/341 463/1/371 467/1/496
f 373/1/560 405/1/561 385/1/562 378/1/563
f 374/1/439 386/1/358 369/1/544 368/1/472
f 610/1/564 631/1/565 558/1/566 577/1/567
f 525/1/186 537/1/568 526/1/450 518/1/569
f 222/1/570 237/1/500 227/1/559 223/1/280
f 222/1/570 223/1/280 135/1/279 214/1/525
f 376/1/322 488/1/432 383/1/403 377/1/88
f 387/1/357 406/1/558 388/1/523 381/1/533
f 375/1/545 381/1/533 382/1/532
f 213/1/431 232/1/553 222/1/570 214/1/525
f 213/1/431 214/1/525 134/1/122 206/1/121
f 119/1/277 124/1/39 123/1/252 122/1/361
f 463/1/371 464/1/372 413/1/571 461/1/572
f 570/1/573 586/1/574 565/1/575 564/1/576
f 379/1/62 392/1/440 353/1/284 345/1/63
f 430/1/289 247/1/94 436/1/577 435/1/578
f 523/1/579 547/1/580 542/1/581 533/1/471
f 358/1/427 497/1/242 363/1/241 364/1/437
f 200/1/211 205/1/323 206/1/121 149/1/120
f 353/1/284 368/1/472 362/1/554 354/1/285
f 180/1/467 267/1/365 174/1/359 173/1/360
f 379/1/62 399/1/582 398/1/438 392/1/440
f 58/1/125 145/1/197 139/1/116 132/1/65
f 538/1/502 560/1/501 570/1/573 564/1/576
f 466/1/441 474/1/246 473/1/400 472/1/421
f 184/1/209 193/1/212 171/1/397 177/1/380
f 374/1/439 403/1/268 393/1/267 386/1/358
f 281/1/346 282/1/449 166/1/240 274/1/363
f 324/1/21 325/1/20 317/1/508 323/1/512
f 456/1/583 457/1/356 393/1/267 451/1/266
f 456/1/583 461/1/572 413/1/571 457/1/356
f 185/1/283 186/1/291 116/1/261 178/1/260
f 26/1/33 34/1/32 33/1/137 32/1/99
f 176/1/256 183/1/320 177/1/380 170/1/257
f 398/1/438 418/1/195 410/1/194 403/1/268
f 233/1/556 251/1/234 238/1/389 234/1/504
f 462/1/497 467/1/496 463/1/371 461/1/572
f 373/1/560 412/1/584 411/1/585 405/1/561
f 39/1/97 61/1/108 53/1/118 45/1/98
f 378/1/563 385/1/562 380/1/61 367/1/522
f 385/1/562 399/1/582 379/1/62 380/1/61
f 199/1/311 204/1/210 184/1/209 192/1/319
f 182/1/158 189/1/321 183/1/320 176/1/256
f 175/1/255 181/1/159 182/1/158 176/1/256
f 215/1/205 417/1/204 4/1/6
f 357/1/386 496/1/428 358/1/427 351/1/453
f 191/1/318 230/1/409 199/1/311 192/1/319
f 269/1/177 307/1/550 278/1/542 270/1/549
f 112/1/69 141/1/216 106/1/215 107/1/70
f 417/1/204 421/1/374 4/1/6
f 4/1/6 421/1/374 422/1/74
f 4/1/6 422/1/74 217/1/77
f 448/1/147 451/1/266 410/1/194 443/1/193
f 448/1/147 460/1/146 456/1/583 451/1/266
f 88/1/67 82/1/15 114/1/278 113/1/68
f 203/1/390 209/1/416 197/1/112 196/1/111
f 54/1/51 56/1/106 33/1/137 46/1/36
f 391/1/382 339/1/314 384/1/316 390/1/391
f 453/1/171 465/1/442 455/1/145 454/1/172
f 435/1/578 444/1/586 442/1/555 434/1/587
f 79/1/164 144/1/152 143/1/151 138/1/227
f 37/1/84 43/1/11 44/1/10 38/1/37
f 110/1/203 109/1/133 102/1/136 91/1/22
f 302/1/327 356/1/370 311/1/309 303/1/310
f 450/1/208 446/1/273 447/1/173 454/1/172
f 49/1/119 80/1/144 57/1/163 50/1/124
f 264/1/487 265/1/517 245/1/535 257/1/388
f 441/1/415 458/1/588 224/1/93 216/1/395
f 440/1/275 458/1/588 441/1/415 218/1/414
f 49/1/119 50/1/124 42/1/92 41/1/91
f 219/1/76 433/1/408 218/1/414 211/1/399
f 457/1/356 413/1/571 406/1/558 387/1/357
f 450/1/208 449/1/148 442/1/555 444/1/586
f 444/1/586 459/1/274 446/1/273 450/1/208
f 170/1/257 177/1/380 171/1/397 163/1/150
f 602/1/589 603/1/548 562/1/3 598/1/2
f 224/1/93 458/1/588 436/1/577 247/1/94
f 440/1/275 459/1/274 436/1/577 458/1/588
f 248/1/528 412/1/584 373/1/560 366/1/590
f 442/1/555 443/1/193 423/1/192 434/1/587
f 466/1/441 472/1/421 470/1/444 467/1/496
f 480/1/514 471/1/454 477/1/526 485/1/527
f 247/1/94 430/1/289 241/1/262 229/1/95
f 328/1/336 329/1/448 304/1/456 320/1/337
f 429/1/290 430/1/289 435/1/578 434/1/587
f 429/1/290 434/1/587 423/1/192 424/1/447
f 436/1/577 459/1/274 444/1/586 435/1/578
f 236/1/498 237/1/500 222/1/570 232/1/553
f 595/1/294 641/1/591 589/1/592 590/1/593
f 494/1/463 495/1/385 489/1/393 493/1/464
f 230/1/409 235/1/265 220/1/312 199/1/311
f 411/1/585 424/1/447 404/1/446 405/1/561
f 411/1/585 425/1/263 429/1/290 424/1/447
f 492/1/436 376/1/322 372/1/300 371/1/243
f 115/1/343 167/1/239 93/1/190 108/1/223
f 172/1/254 327/1/90 178/1/260 127/1/259
f 240/1/264 425/1/263 411/1/585 412/1/584
f 361/1/594 378/1/563 367/1/522 331/1/521
f 373/1/560 378/1/563 361/1/594 366/1/590
f 240/1/264 412/1/584 248/1/528 242/1/531
f 558/1/566 622/1/142 557/1/182 550/1/595
f 128/1/123 134/1/122 129/1/362 122/1/361
f 240/1/264 242/1/531 220/1/312 235/1/265
f 171/1/397 193/1/212 148/1/377 155/1/228
f 229/1/95 241/1/262 235/1/265 230/1/409
f 248/1/528 366/1/590 254/1/474 249/1/529
f 254/1/474 366/1/590 361/1/594 360/1/475
f 337/1/418 360/1/475 361/1/594 331/1/521
f 383/1/403 384/1/316 334/1/89 377/1/88
f 221/1/530 226/1/430 205/1/323 212/1/313
f 557/1/182 559/1/181 551/1/596 550/1/595
f 262/1/175 360/1/475 337/1/418 315/1/176
f 153/1/495 239/1/547 161/1/503 154/1/481
f 254/1/474 255/1/476 231/1/552 249/1/529
f 231/1/552 232/1/553 213/1/431 226/1/430
f 166/1/240 282/1/449 159/1/445 160/1/191
f 480/1/514 485/1/527 401/1/515
f 316/1/419 337/1/418 331/1/521 323/1/512
f 401/1/515 485/1/527 486/1/394
f 262/1/175 263/1/178 236/1/498 255/1/476
f 385/1/562 405/1/561 404/1/446 399/1/582
f 268/1/406 275/1/484 261/1/482 260/1/407
f 308/1/417 309/1/507 300/1/551 307/1/550
f 485/1/527 489/1/393 486/1/394
f 580/1/597 594/1/598 572/1/599 571/1/600
f 306/1/344 340/1/443 310/1/326 314/1/345
f 243/1/499 244/1/557 227/1/559 237/1/500
f 269/1/177 315/1/176 308/1/417 307/1/550
f 269/1/177 270/1/549 243/1/499 263/1/178
f 245/1/535 246/1/425 161/1/503 239/1/547
f 413/1/571 464/1/372 407/1/455 406/1/558
f 243/1/499 270/1/549 250/1/231 244/1/557
f 498/1/601 499/1/602 500/1/603
f 498/1/601 500/1/603 501/1/604
f 499/1/602 502/1/605 500/1/603
f 504/1/606 673/1/607 667/1/608 664/1/609
f 500/1/603 502/1/605 505/1/610
f 500/1/603 505/1/610 503/1/611
f 500/1/603 506/1/612 501/1/604
f 504/1/606 508/1/613 509/1/614
f 504/1/606 507/1/615 510/1/616
f 504/1/606 511/1/617 508/1/613
f 504/1/606 510/1/616 511/1/617
f 508/1/613 512/1/618 509/1/614
f 503/1/611 507/1/615 504/1/606 500/1/603
f 133/1/237 172/1/254 127/1/259 126/1/187
f 513/1/619 515/1/620 519/1/183
f 139/1/116 158/1/115 131/1/66 132/1/65
f 542/1/581 563/1/304 534/1/303 533/1/471
f 531/1/621 541/1/622 532/1/623 521/1/624
f 514/1/625 521/1/624 522/1/626
f 332/1/18 345/1/63 338/1/534 333/1/19
f 515/1/620 524/1/184 519/1/183
f 513/1/619 516/1/627 514/1/625 515/1/620
f 535/1/269 536/1/272 525/1/186 527/1/185
f 117/1/138 121/1/202 116/1/261 110/1/203
f 519/1/183 525/1/186 518/1/569 513/1/619
f 562/1/3 563/1/304 542/1/581 555/1/4
f 520/1/104 530/1/103 521/1/624
f 521/1/624 530/1/103 531/1/621
f 15/1/49 16/1/101 9/1/86 14/1/50
f 521/1/624 532/1/623 522/1/626
f 546/1/628 593/1/520 554/1/1 547/1/580
f 513/1/619 518/1/569 517/1/629 516/1/627
f 526/1/450 545/1/451 517/1/629 518/1/569
f 293/1/630 294/1/489 286/1/488 295/1/491
f 94/1/305 95/1/325 67/1/128 89/1/130
f 33/1/137 56/1/106 39/1/97 32/1/99
f 532/1/623 539/1/631 522/1/626
f 587/1/632 593/1/520 546/1/628 539/1/631
f 520/1/104 521/1/624 514/1/625 516/1/627
f 164/1/207 303/1/310 157/1/114 156/1/117
f 544/1/469 552/1/332 526/1/450 537/1/568
f 404/1/446 418/1/195 398/1/438 399/1/582
f 522/1/626 539/1/631 546/1/628
f 522/1/626 546/1/628 547/1/580
f 522/1/626 547/1/580 523/1/579
f 349/1/452 350/1/57 342/1/457 343/1/478
f 592/1/466 593/1/520 587/1/632 591/1/249
f 288/1/435 314/1/345 310/1/326 301/1/328
f 577/1/567 549/1/270 535/1/269 569/1/302
f 568/1/301 610/1/564 577/1/567 569/1/302
f 532/1/623 541/1/622 540/1/155 539/1/631
f 547/1/580 555/1/4 542/1/581
f 547/1/580 554/1/1 555/1/4
f 583/1/633 588/1/329 584/1/470 576/1/634
f 583/1/633 599/1/635 561/1/330 588/1/329
f 560/1/501 579/1/636 578/1/637 570/1/573
f 549/1/270 577/1/567 558/1/566 550/1/595
f 283/1/483 291/1/462 290/1/348 284/1/459
f 529/1/102 556/1/638 531/1/621 530/1/103
f 190/1/113 198/1/396 189/1/321 182/1/158
f 414/1/401 452/1/245 419/1/376 415/1/368
f 433/1/408 439/1/276 440/1/275 218/1/414
f 575/1/639 583/1/633 576/1/634 567/1/180
f 538/1/502 564/1/576 529/1/102 528/1/105
f 517/1/629 545/1/451 538/1/502 528/1/105
f 602/1/589 619/1/640 609/1/641 603/1/548
f 609/1/641 610/1/564 568/1/301 603/1/548
f 592/1/466 608/1/465 602/1/589 598/1/2
f 574/1/366 604/1/642 575/1/639 567/1/180
f 651/1/643 656/1/413 652/1/42 653/1/644
f 76/1/16 81/1/287 70/1/109 54/1/51
f 258/1/404 260/1/407 187/1/493 253/1/423
f 221/1/530 249/1/529 231/1/552 226/1/430
f 624/1/645 631/1/565 610/1/564 609/1/641
f 660/1/519 614/1/646 608/1/465 596/1/248
f 614/1/646 619/1/640 602/1/589 608/1/465
f 203/1/390 210/1/398 211/1/399 209/1/416
f 581/1/153 591/1/249 587/1/632 582/1/154
f 540/1/155 582/1/154 539/1/631
f 75/1/222 86/1/160 69/1/143 68/1/129
f 624/1/645 646/1/381 628/1/139 631/1/565
f 578/1/637 606/1/295 595/1/294 590/1/593
f 619/1/640 657/1/647 624/1/645 609/1/641
f 629/1/226 630/1/648 615/1/541 623/1/297
f 77/1/188 78/1/131 22/1/127 72/1/166
f 582/1/154 587/1/632 539/1/631
f 550/1/595 551/1/596 543/1/271 549/1/270
f 456/1/583 460/1/146 462/1/497 461/1/572
f 578/1/637 590/1/593 586/1/574 570/1/573
f 548/1/649 573/1/156 540/1/155 541/1/622
f 531/1/621 556/1/638 548/1/649 541/1/622
f 657/1/647 619/1/640 614/1/646 662/1/650
f 661/1/411 650/1/651 657/1/647 662/1/650
f 624/1/645 657/1/647 650/1/651 646/1/381
f 572/1/599 597/1/247 581/1/153 573/1/156
f 572/1/599 573/1/156 548/1/649 571/1/600
f 137/1/229 142/1/369 123/1/252 130/1/230
f 313/1/354 320/1/337 304/1/456 305/1/461
f 572/1/599 594/1/598 601/1/518 597/1/247
f 233/1/556 234/1/504 146/1/213 228/1/509
f 565/1/575 571/1/600 548/1/649 556/1/638
f 529/1/102 564/1/576 565/1/575 556/1/638
f 65/1/83 96/1/38 64/1/41 59/1/80
f 642/1/224 646/1/381 650/1/651 643/1/652
f 396/1/367 402/1/250 201/1/333 397/1/353
f 227/1/559 228/1/509 140/1/281 223/1/280
f 490/1/426 496/1/428 494/1/463 491/1/219
f 561/1/330 579/1/636 560/1/501 553/1/331
f 574/1/366 611/1/298 612/1/540
f 574/1/366 612/1/540 604/1/642
f 618/1/141 637/1/140 629/1/226 623/1/297
f 642/1/224 643/1/652 639/1/653 638/1/225
f 481/1/220 493/1/464 477/1/526 476/1/339
f 558/1/566 631/1/565 628/1/139 622/1/142
f 523/1/579 533/1/471 524/1/184 515/1/620
f 522/1/626 523/1/579 515/1/620 514/1/625
f 611/1/298 623/1/297 615/1/541 612/1/540
f 604/1/642 620/1/198 600/1/201 575/1/639
f 600/1/201 599/1/635 583/1/633 575/1/639
f 645/1/654 651/1/643 633/1/655 632/1/656
f 617/1/539 616/1/538 621/1/657
f 125/1/473 179/1/494 180/1/467 173/1/360
f 660/1/519 601/1/518 654/1/537 659/1/536
f 621/1/657 625/1/658 626/1/659
f 621/1/657 626/1/659 613/1/199
f 644/1/410 656/1/413 651/1/643 645/1/654
f 621/1/657 616/1/538 627/1/660
f 617/1/539 620/1/198 604/1/642 612/1/540
f 600/1/201 605/1/200 585/1/661 599/1/635
f 561/1/330 599/1/635 585/1/661 579/1/636
f 517/1/629 528/1/105 520/1/104 516/1/627
f 617/1/539 621/1/657 613/1/199 620/1/198
f 615/1/541 630/1/648 616/1/538
f 369/1/544 386/1/358 387/1/357 381/1/533
f 616/1/538 630/1/648 632/1/656
f 616/1/538 633/1/655 627/1/660
f 616/1/538 632/1/656 633/1/655
f 639/1/653 645/1/654 632/1/656 630/1/648
f 630/1/648 629/1/226 638/1/225
f 627/1/660 635/1/662 625/1/658 621/1/657
f 630/1/648 638/1/225 639/1/653
f 271/1/510 294/1/489 293/1/630 285/1/511
f 209/1/416 441/1/415 216/1/395 197/1/112
f 644/1/410 645/1/654 639/1/653 643/1/652
f 585/1/661 605/1/200 607/1/292 606/1/295
f 625/1/658 636/1/293 607/1/292 626/1/659
f 613/1/199 626/1/659 607/1/292 605/1/200
f 640/1/663 636/1/293 625/1/658 635/1/662
f 650/1/651 661/1/411 644/1/410 643/1/652
f 662/1/650 659/1/536 658/1/412 661/1/411
f 414/1/401 415/1/368 396/1/367 395/1/383
f 640/1/663 641/1/591 595/1/294 636/1/293
f 565/1/575 586/1/574 580/1/597 571/1/600
f 634/1/664 635/1/662 627/1/660 633/1/655
f 634/1/664 647/1/45 640/1/663 635/1/662
f 658/1/412 655/1/43 652/1/42 656/1/413
f 28/1/132 84/1/25 36/1/24 29/1/71
f 634/1/664 633/1/655 653/1/644
f 651/1/643 653/1/644 633/1/655
f 634/1/664 653/1/644 652/1/42 647/1/45
f 266/1/458 292/1/351 273/1/364 267/1/365
f 585/1/661 606/1/295 578/1/637 579/1/636
f 127/1/259 121/1/202 77/1/188 126/1/187
f 640/1/663 647/1/45 648/1/44 641/1/591
f 648/1/44 655/1/43 654/1/537 649/1/665
f 654/1/537 601/1/518 594/1/598 649/1/665
f 648/1/44 649/1/665 589/1/592 641/1/591
f 390/1/391 484/1/402 478/1/420 420/1/392
f 589/1/592 649/1/665 594/1/598 580/1/597
f 586/1/574 590/1/593 589/1/592 580/1/597
f 663/1/666 664/1/609 665/1/667
f 663/1/666 666/1/668 664/1/609
f 664/1/609 667/1/608 668/1/669
f 664/1/609 668/1/669 669/1/670
f 664/1/609 669/1/670 665/1/667
f 664/1/609 666/1/668 670/1/671
f 504/1/606 509/1/614 671/1/672
f 504/1/606 672/1/673 673/1/607
f 504/1/606 674/1/674 672/1/673
f 504/1/606 671/1/672 674/1/674
f 509/1/614 675/1/675 671/1/672
f 662/1/650 614/1/646 660/1/519 659/1/536
