# Blender 4.3.2
# www.blender.org
o hair.027
v 8.141136 0.852535 -0.016398
v 8.137167 0.850492 -0.018579
v 8.143499 0.854029 -0.018781
v 8.146003 0.856653 -0.012403
v 8.149507 0.859456 -0.014827
v 8.151169 0.862053 -0.007548
v 8.154667 0.865834 -0.010119
v 8.155256 0.868060 -0.002783
v 8.151835 0.863999 -0.016671
v 8.146088 0.857647 -0.020197
v 8.139437 0.852756 -0.021777
v 8.132926 0.849353 -0.019732
v 8.157915 0.872211 -0.004665
v 8.156335 0.870503 -0.011168
v 8.159098 0.874371 0.001937
v 8.153288 0.869339 -0.017732
v 8.147953 0.862893 -0.021868
v 8.141518 0.856636 -0.024438
v 8.134816 0.852033 -0.024040
v 8.136227 0.856130 -0.027504
v 8.129877 0.851560 -0.025531
v 8.128905 0.848661 -0.020642
v 8.158057 0.876009 -0.005092
v 8.159009 0.876823 0.001474
v 8.161174 0.868772 0.009635
v 8.159237 0.868960 0.003145
v 8.161115 0.873209 0.008411
v 8.142901 0.862165 -0.026604
v 8.149017 0.868657 -0.023277
v 8.124750 0.848396 -0.021036
v 8.158862 0.880595 0.001127
v 8.160638 0.876740 0.008078
v 8.158735 0.865101 0.004695
v 8.161808 0.872214 0.015908
v 8.137121 0.861741 -0.030035
v 8.137540 0.867688 -0.031543
v 8.143618 0.868115 -0.028049
v 8.120595 0.848661 -0.020642
v 8.119623 0.851560 -0.025531
v 8.124750 0.851387 -0.026092
v 8.160171 0.863928 0.011369
v 8.158370 0.859323 0.013373
v 8.156955 0.860118 0.007604
v 8.131019 0.861487 -0.032079
v 8.143726 0.873330 -0.028570
v 8.130584 0.855823 -0.029408
v 8.116574 0.849353 -0.019732
v 8.124750 0.855720 -0.030072
v 8.161708 0.868035 0.016998
v 8.160623 0.863493 0.018166
v 8.154655 0.856540 0.010517
v 8.153416 0.874297 -0.018072
v 8.149209 0.873837 -0.023906
v 8.112333 0.850492 -0.018579
v 8.110064 0.852756 -0.021777
v 8.114684 0.852033 -0.024040
v 8.154919 0.868047 0.023384
v 8.154980 0.854538 0.015912
v 8.151917 0.853333 0.013769
v 8.148775 0.878749 -0.023976
v 8.106001 0.854029 -0.018781
v 8.108364 0.852535 -0.016398
v 8.113274 0.856130 -0.027504
v 8.118917 0.855823 -0.029408
v 8.150342 0.851278 0.018587
v 8.148490 0.850795 0.017119
v 8.156384 0.874940 -0.011621
v 8.103498 0.856653 -0.012403
v 8.118482 0.861487 -0.032079
v 8.124750 0.861404 -0.032756
v 8.145887 0.849692 0.021363
v 8.144409 0.849061 0.020885
v 8.152752 0.879216 -0.018202
v 8.155564 0.879680 -0.011805
v 8.157520 0.880191 -0.005361
v 8.099994 0.859456 -0.014827
v 8.098331 0.862053 -0.007548
v 8.124750 0.867332 -0.034286
v 8.131210 0.867423 -0.033610
v 8.140018 0.847800 0.024955
v 8.151834 0.884202 -0.018052
v 8.156715 0.885000 -0.005561
v 8.154625 0.884628 -0.011803
v 8.103413 0.857647 -0.020197
v 8.094833 0.865834 -0.010119
v 8.094244 0.868060 -0.002783
v 8.131199 0.872604 -0.034120
v 8.137546 0.872883 -0.031988
v 8.153741 0.889856 -0.011649
v 8.097665 0.863999 -0.016671
v 8.101547 0.862893 -0.021868
v 8.107982 0.856636 -0.024438
v 8.091585 0.872211 -0.004665
v 8.090403 0.874371 0.001937
v 8.137252 0.877793 -0.031794
v 8.143373 0.878238 -0.028492
v 8.106599 0.862165 -0.026604
v 8.096212 0.869339 -0.017732
v 8.100483 0.868657 -0.023277
v 8.112379 0.861741 -0.030035
v 8.142706 0.883288 -0.028153
v 8.147968 0.883744 -0.023726
v 8.111960 0.867688 -0.031543
v 8.105883 0.868115 -0.028049
v 8.096085 0.874297 -0.018072
v 8.093165 0.870503 -0.011168
v 8.118290 0.867423 -0.033610
v 8.147194 0.888938 -0.023233
v 8.150965 0.889390 -0.017690
v 8.105774 0.873330 -0.028570
v 8.093116 0.874940 -0.011621
v 8.091443 0.876009 -0.005092
v 8.090491 0.876823 0.001474
v 8.118301 0.872604 -0.034120
v 8.124750 0.872506 -0.034866
v 8.150438 0.894910 -0.017174
v 8.100291 0.873837 -0.023906
v 8.093936 0.879680 -0.011805
v 8.090263 0.868960 0.003145
v 8.088326 0.868772 0.009635
v 8.088386 0.873209 0.008411
v 8.111955 0.872883 -0.031988
v 8.124750 0.877421 -0.034799
v 8.131042 0.877517 -0.033981
v 8.100725 0.878749 -0.023976
v 8.096748 0.879216 -0.018202
v 8.090765 0.865101 0.004695
v 8.087692 0.872214 0.015908
v 8.088862 0.876740 0.008078
v 8.112248 0.877793 -0.031794
v 8.130788 0.882668 -0.033566
v 8.136766 0.882907 -0.031394
v 8.097666 0.884202 -0.018052
v 8.090638 0.880595 0.001127
v 8.118459 0.877517 -0.033981
v 8.136364 0.888272 -0.030899
v 8.142103 0.888559 -0.027650
v 8.091980 0.880191 -0.005361
v 8.094875 0.884628 -0.011803
v 8.092785 0.885000 -0.005561
v 8.118712 0.882668 -0.033566
v 8.124750 0.882583 -0.034389
v 8.141938 0.894149 -0.027071
v 8.146848 0.894466 -0.022569
v 8.095759 0.889856 -0.011649
v 8.124750 0.888020 -0.033749
v 8.130581 0.888087 -0.032991
v 8.146657 0.900108 -0.022046
v 8.150122 0.900554 -0.016741
v 8.152664 0.901068 -0.011091
v 8.153090 0.895407 -0.011369
v 8.130568 0.893794 -0.032367
v 8.136319 0.893934 -0.030415
v 8.141892 0.899809 -0.026636
v 8.149883 0.906118 -0.016637
v 8.146354 0.905641 -0.021977
v 8.155231 0.895884 -0.005546
v 8.155904 0.890286 -0.005640
v 8.136362 0.899614 -0.030055
v 8.141652 0.905293 -0.026559
v 8.145749 0.910969 -0.021913
v 8.149364 0.911468 -0.016564
v 8.151991 0.911994 -0.010832
v 8.152452 0.906647 -0.010948
v 8.157288 0.890653 0.000552
v 8.158120 0.885308 0.000780
v 8.148208 0.916397 -0.016221
v 8.154298 0.907153 -0.005257
v 8.153662 0.912480 -0.005162
v 8.150814 0.916889 -0.010629
v 8.152420 0.917356 -0.005083
v 8.154697 0.901573 -0.005382
v 8.158847 0.885529 0.007354
v 8.159833 0.880739 0.007735
v 8.154210 0.912880 0.000756
v 8.155095 0.907638 0.000747
v 8.155790 0.902093 0.000673
v 8.149120 0.921109 -0.010401
v 8.156541 0.896342 0.000559
v 8.159814 0.881028 0.014507
v 8.161063 0.876552 0.015190
v 8.154655 0.908112 0.007293
v 8.155633 0.902655 0.007266
v 8.156669 0.896773 0.007152
v 8.157706 0.890916 0.007120
v 8.155547 0.876658 0.021256
v 8.155521 0.872300 0.022347
v 8.154159 0.903259 0.013538
v 8.155361 0.897251 0.013449
v 8.156706 0.891246 0.013492
v 8.158371 0.885892 0.013910
v 8.147405 0.872239 0.025610
v 8.146740 0.867992 0.026425
v 8.145878 0.863928 0.027007
v 8.153741 0.863730 0.024338
v 8.152408 0.897874 0.018555
v 8.153297 0.891715 0.018710
v 8.154089 0.886240 0.019108
v 8.155004 0.881349 0.020080
v 8.147932 0.876817 0.024808
v 8.151887 0.859327 0.025097
v 8.144759 0.859900 0.027110
v 8.158359 0.859152 0.019346
v 8.148455 0.892265 0.022854
v 8.148506 0.886735 0.023387
v 8.148305 0.881668 0.024055
v 8.149484 0.855234 0.025680
v 8.154297 0.854927 0.020886
v 8.143388 0.855882 0.026755
v 8.148069 0.898505 0.022508
v 8.145352 0.851053 0.025475
v 8.149082 0.851551 0.022458
v 8.141766 0.851846 0.025964
v 8.151365 0.903924 0.018567
v 8.147385 0.904551 0.022454
v 8.153014 0.908586 0.013565
v 8.150274 0.909083 0.018706
v 8.146435 0.909501 0.022797
v 8.151880 0.913424 0.013445
v 8.145230 0.913811 0.023461
v 8.149102 0.913675 0.018885
v 8.153610 0.913177 0.007174
v 8.150752 0.918004 0.013104
v 8.147863 0.918060 0.019025
v 8.152426 0.917903 0.006852
v 8.143784 0.917938 0.024368
v 8.152940 0.917707 0.000671
v 8.149362 0.922271 0.012351
v 8.146505 0.922303 0.018454
v 8.150866 0.922165 0.006287
v 8.151240 0.922082 0.000436
v 8.142216 0.921974 0.025398
v 8.150683 0.921589 -0.005075
v 8.147428 0.926073 0.010994
v 8.144951 0.926291 0.016488
v 8.148705 0.925762 0.005448
v 8.149137 0.925549 0.000003
v 8.148568 0.924994 -0.005191
v 8.146617 0.920636 -0.015722
v 8.144787 0.923950 -0.015185
v 8.147108 0.924458 -0.010217
v 8.145342 0.929337 0.009402
v 8.146408 0.928808 0.004493
v 8.146812 0.928430 -0.000495
v 8.144919 0.927218 -0.009988
v 8.146252 0.927809 -0.005311
v 8.144658 0.915924 -0.021402
v 8.143252 0.920194 -0.020610
v 8.144029 0.931216 0.003534
v 8.144261 0.930751 -0.000889
v 8.143755 0.930153 -0.005265
v 8.142821 0.926669 -0.014566
v 8.140684 0.929002 -0.013728
v 8.142550 0.929548 -0.009554
v 8.141128 0.910564 -0.026392
v 8.140230 0.915515 -0.025682
v 8.141688 0.932659 -0.001202
v 8.140184 0.931552 -0.008927
v 8.141240 0.932115 -0.005085
v 8.140049 0.926197 -0.018692
v 8.136224 0.905044 -0.029935
v 8.135866 0.910248 -0.029652
v 8.138721 0.933745 -0.004752
v 8.138561 0.931054 -0.012632
v 8.136484 0.932890 -0.011191
v 8.137848 0.933291 -0.008073
v 8.141698 0.923495 -0.019706
v 8.130600 0.899478 -0.031866
v 8.130532 0.904859 -0.031656
v 8.136439 0.930651 -0.015914
v 8.135481 0.934730 -0.007091
v 8.139117 0.919805 -0.024612
v 8.137940 0.923122 -0.023366
v 8.124750 0.893742 -0.032995
v 8.124750 0.899425 -0.032365
v 8.138237 0.928549 -0.017456
v 8.135246 0.915184 -0.028803
v 8.134493 0.919495 -0.027550
v 8.136701 0.925841 -0.021991
v 8.135295 0.928224 -0.020394
v 8.118919 0.888087 -0.032991
v 8.118933 0.893794 -0.032367
v 8.130352 0.910012 -0.031337
v 8.130041 0.914946 -0.030506
v 8.132899 0.925528 -0.024324
v 8.113136 0.888272 -0.030899
v 8.112734 0.882907 -0.031394
v 8.124750 0.904783 -0.032098
v 8.124750 0.909915 -0.031781
v 8.133735 0.922844 -0.026053
v 8.106127 0.878238 -0.028492
v 8.106794 0.883288 -0.028153
v 8.118900 0.899478 -0.031866
v 8.118968 0.904859 -0.031656
v 8.129667 0.919288 -0.029251
v 8.129298 0.922669 -0.027662
v 8.113181 0.893934 -0.030415
v 8.113138 0.899614 -0.030055
v 8.124750 0.914852 -0.030998
v 8.124750 0.919210 -0.029789
v 8.128888 0.925370 -0.025779
v 8.131965 0.927958 -0.022476
v 8.128413 0.927781 -0.023733
v 8.101532 0.883744 -0.023726
v 8.107562 0.894149 -0.027071
v 8.119459 0.914946 -0.030506
v 8.119148 0.910012 -0.031337
v 8.124750 0.925378 -0.026353
v 8.131016 0.930161 -0.020315
v 8.133889 0.930367 -0.018481
v 8.102306 0.888938 -0.023233
v 8.107397 0.888559 -0.027650
v 8.113276 0.905044 -0.029935
v 8.113634 0.910248 -0.029652
v 8.124750 0.922607 -0.028196
v 8.132529 0.932324 -0.016081
v 8.134691 0.932562 -0.013921
v 8.107608 0.899809 -0.026636
v 8.107848 0.905293 -0.026559
v 8.119833 0.919288 -0.029251
v 8.120202 0.922669 -0.027662
v 8.132931 0.934198 -0.011702
v 8.134388 0.934441 -0.009560
v 8.102843 0.900108 -0.022046
v 8.102653 0.894466 -0.022569
v 8.114254 0.915184 -0.028803
v 8.115007 0.919495 -0.027550
v 8.131747 0.935784 -0.007541
v 8.136155 0.935053 -0.004373
v 8.132530 0.935975 -0.005781
v 8.133008 0.936188 -0.003829
v 8.099062 0.894910 -0.017174
v 8.098536 0.889390 -0.017690
v 8.109270 0.915515 -0.025682
v 8.108373 0.910564 -0.026392
v 8.136412 0.935389 -0.001601
v 8.139087 0.934204 -0.001394
v 8.130118 0.936695 -0.004675
v 8.103751 0.910969 -0.021913
v 8.103147 0.905641 -0.021977
v 8.138930 0.934621 0.001832
v 8.141532 0.933164 0.002608
v 8.129595 0.936562 -0.005901
v 8.130466 0.936839 -0.003353
v 8.124750 0.937743 -0.002083
v 8.099617 0.906118 -0.016637
v 8.099379 0.900554 -0.016741
v 8.140683 0.933614 0.006278
v 8.143083 0.931758 0.007812
v 8.128857 0.936448 -0.006948
v 8.130696 0.935618 -0.009068
v 8.130563 0.936989 -0.001972
v 8.133178 0.936406 -0.001821
v 8.096836 0.901068 -0.011091
v 8.096410 0.895407 -0.011369
v 8.141301 0.932219 0.011789
v 8.143325 0.929762 0.014033
v 8.129416 0.935482 -0.010319
v 8.131163 0.934012 -0.013438
v 8.133040 0.936616 0.000109
v 8.136250 0.935719 0.001035
v 8.094269 0.895884 -0.005546
v 8.093596 0.890286 -0.005640
v 8.140346 0.930217 0.017953
v 8.141639 0.926796 0.021227
v 8.129157 0.933858 -0.014712
v 8.130090 0.932140 -0.017637
v 8.135628 0.936023 0.003542
v 8.138149 0.934994 0.004925
v 8.092213 0.890653 0.000552
v 8.091380 0.885308 0.000780
v 8.137548 0.927628 0.024281
v 8.127933 0.929990 -0.021400
v 8.127465 0.931971 -0.018552
v 8.136653 0.935355 0.007884
v 8.139084 0.934034 0.009743
v 8.090653 0.885529 0.007354
v 8.089667 0.880739 0.007735
v 8.124750 0.927716 -0.024158
v 8.124750 0.929914 -0.021755
v 8.136793 0.934335 0.012805
v 8.138674 0.932616 0.015216
v 8.089686 0.881028 0.014507
v 8.088437 0.876552 0.015190
v 8.120612 0.925370 -0.025779
v 8.121087 0.927781 -0.023733
v 8.135184 0.932936 0.017828
v 8.136412 0.930824 0.020727
v 8.093953 0.876658 0.021256
v 8.093979 0.872300 0.022347
v 8.087792 0.868035 0.016998
v 8.094582 0.868047 0.023384
v 8.116601 0.925528 -0.024324
v 8.115766 0.922844 -0.026053
v 8.132204 0.931378 0.022513
v 8.102096 0.872239 0.025610
v 8.088878 0.863493 0.018166
v 8.102760 0.867992 0.026425
v 8.103622 0.863928 0.027007
v 8.095759 0.863730 0.024338
v 8.089330 0.863928 0.011369
v 8.110383 0.919805 -0.024612
v 8.111560 0.923122 -0.023366
v 8.101568 0.876817 0.024808
v 8.097613 0.859327 0.025097
v 8.104741 0.859900 0.027110
v 8.091130 0.859323 0.013373
v 8.092546 0.860118 0.007604
v 8.106248 0.920194 -0.020610
v 8.104842 0.915924 -0.021402
v 8.101195 0.881668 0.024055
v 8.094497 0.881349 0.020080
v 8.100017 0.855234 0.025680
v 8.106112 0.855882 0.026755
v 8.094845 0.856540 0.010517
v 8.101293 0.916397 -0.016221
v 8.100137 0.911468 -0.016564
v 8.100994 0.886735 0.023387
v 8.095411 0.886240 0.019108
v 8.091129 0.885892 0.013910
v 8.104148 0.851053 0.025475
v 8.107735 0.851846 0.025964
v 8.094521 0.854538 0.015912
v 8.097584 0.853333 0.013769
v 8.097509 0.911994 -0.010832
v 8.097048 0.906647 -0.010948
v 8.101046 0.892265 0.022854
v 8.092794 0.891246 0.013492
v 8.091794 0.890916 0.007120
v 8.109482 0.847800 0.024955
v 8.099158 0.851278 0.018587
v 8.101010 0.850795 0.017119
v 8.095203 0.854927 0.020886
v 8.091142 0.859152 0.019346
v 8.095202 0.907153 -0.005257
v 8.094803 0.901573 -0.005382
v 8.092832 0.896773 0.007152
v 8.092959 0.896342 0.000559
v 8.105091 0.849061 0.020885
v 8.103433 0.849685 0.021365
v 8.100418 0.851551 0.022458
v 8.093710 0.902093 0.000673
v 8.093867 0.902655 0.007266
v 8.095342 0.903259 0.013538
v 8.094139 0.897251 0.013449
v 8.094846 0.908112 0.007293
v 8.094405 0.907638 0.000747
v 8.097093 0.897874 0.018555
v 8.096203 0.891715 0.018710
v 8.096486 0.908586 0.013565
v 8.097620 0.913424 0.013445
v 8.095890 0.913177 0.007174
v 8.095290 0.912880 0.000756
v 8.095839 0.912480 -0.005162
v 8.099226 0.909083 0.018706
v 8.097075 0.917903 0.006852
v 8.096560 0.917707 0.000671
v 8.097080 0.917356 -0.005083
v 8.098135 0.903924 0.018567
v 8.098686 0.916889 -0.010629
v 8.101431 0.898505 0.022508
v 8.098260 0.922082 0.000436
v 8.100380 0.921109 -0.010401
v 8.098817 0.921589 -0.005075
v 8.102116 0.904551 0.022454
v 8.102883 0.920636 -0.015722
v 8.098635 0.922165 0.006287
v 8.100795 0.925762 0.005448
v 8.100363 0.925549 0.000003
v 8.100932 0.924994 -0.005191
v 8.102392 0.924458 -0.010217
v 8.104713 0.923950 -0.015185
v 8.103065 0.909501 0.022797
v 8.107802 0.923495 -0.019706
v 8.100139 0.922271 0.012351
v 8.102688 0.928430 -0.000495
v 8.104581 0.927218 -0.009988
v 8.103249 0.927809 -0.005311
v 8.109451 0.926197 -0.018692
v 8.106679 0.926669 -0.014566
v 8.104270 0.913811 0.023461
v 8.100398 0.913675 0.018885
v 8.112800 0.925841 -0.021991
v 8.098748 0.918004 0.013104
v 8.105745 0.930153 -0.005265
v 8.108816 0.929002 -0.013728
v 8.106950 0.929548 -0.009554
v 8.101637 0.918060 0.019025
v 8.105717 0.917938 0.024368
v 8.114205 0.928224 -0.020394
v 8.117536 0.927958 -0.022476
v 8.109316 0.931552 -0.008927
v 8.102995 0.922303 0.018454
v 8.107285 0.921974 0.025398
v 8.118484 0.930161 -0.020315
v 8.115611 0.930367 -0.018481
v 8.113061 0.930651 -0.015914
v 8.111263 0.928549 -0.017456
v 8.121568 0.929990 -0.021400
v 8.104549 0.926291 0.016488
v 8.102073 0.926073 0.010994
v 8.116971 0.932324 -0.016081
v 8.122035 0.931971 -0.018552
v 8.124750 0.931890 -0.018849
v 8.104158 0.929337 0.009402
v 8.103092 0.928808 0.004493
v 8.110939 0.931054 -0.012632
v 8.124750 0.933638 -0.015707
v 8.126991 0.933710 -0.015463
v 8.105472 0.931216 0.003534
v 8.105239 0.930751 -0.000889
v 8.113016 0.932890 -0.011191
v 8.114809 0.932562 -0.013921
v 8.126384 0.935320 -0.011805
v 8.127960 0.935381 -0.011248
v 8.107812 0.932659 -0.001202
v 8.108260 0.932115 -0.005085
v 8.116570 0.934198 -0.011702
v 8.119411 0.932140 -0.017637
v 8.120343 0.933858 -0.014712
v 8.118338 0.934012 -0.013438
v 8.126971 0.936283 -0.008462
v 8.127985 0.936352 -0.007836
v 8.110780 0.933745 -0.004752
v 8.111652 0.933291 -0.008073
v 8.120084 0.935482 -0.010319
v 8.125886 0.936238 -0.008877
v 8.114019 0.934730 -0.007091
v 8.115112 0.934441 -0.009560
v 8.122509 0.933710 -0.015463
v 8.124750 0.935300 -0.011991
v 8.124750 0.936226 -0.008988
v 8.117753 0.935784 -0.007541
v 8.118804 0.935618 -0.009068
v 8.123116 0.935320 -0.011805
v 8.121540 0.935381 -0.011248
v 8.123614 0.936238 -0.008877
v 8.120644 0.936448 -0.006948
v 8.119905 0.936562 -0.005901
v 8.119382 0.936695 -0.004675
v 8.116970 0.935975 -0.005781
v 8.122529 0.936283 -0.008462
v 8.121515 0.936352 -0.007836
v 8.116492 0.936188 -0.003829
v 8.119034 0.936839 -0.003353
v 8.113345 0.935053 -0.004373
v 8.118937 0.936989 -0.001972
v 8.116323 0.936406 -0.001821
v 8.113089 0.935389 -0.001601
v 8.110414 0.934204 -0.001394
v 8.116460 0.936616 0.000109
v 8.119025 0.937137 -0.000613
v 8.110570 0.934621 0.001832
v 8.113251 0.935719 0.001035
v 8.107968 0.933164 0.002608
v 8.119367 0.937278 0.000680
v 8.116915 0.936815 0.001945
v 8.113873 0.936023 0.003542
v 8.111351 0.934994 0.004925
v 8.108817 0.933614 0.006278
v 8.106418 0.931758 0.007812
v 8.117695 0.937003 0.003672
v 8.119890 0.937410 0.001897
v 8.112847 0.935355 0.007884
v 8.114999 0.936284 0.005928
v 8.108199 0.932219 0.011789
v 8.110416 0.934034 0.009743
v 8.106175 0.929762 0.014033
v 8.120630 0.937524 0.002946
v 8.118756 0.937170 0.005204
v 8.116520 0.936486 0.008042
v 8.114735 0.935631 0.010327
v 8.112707 0.934335 0.012805
v 8.110826 0.932616 0.015216
v 8.109155 0.930217 0.017953
v 8.107862 0.926796 0.021227
v 8.120052 0.937306 0.006455
v 8.121507 0.937620 0.003833
v 8.116927 0.935763 0.012315
v 8.118330 0.936616 0.009736
v 8.114316 0.932936 0.017828
v 8.115596 0.934482 0.015263
v 8.111952 0.927628 0.024281
v 8.113089 0.930824 0.020727
v 8.110975 0.923707 0.027673
v 8.110289 0.919444 0.029931
v 8.106766 0.918165 0.026494
v 8.122524 0.937688 0.004460
v 8.120354 0.936681 0.010977
v 8.118728 0.934564 0.016961
v 8.119516 0.935783 0.013876
v 8.117296 0.931378 0.022513
v 8.118053 0.933210 0.019597
v 8.115306 0.924698 0.029663
v 8.116284 0.928475 0.026118
v 8.106322 0.914291 0.027414
v 8.121478 0.933416 0.020482
v 8.121760 0.934708 0.017767
v 8.122099 0.935794 0.014750
v 8.120540 0.928957 0.027190
v 8.121119 0.931688 0.023479
v 8.119600 0.920737 0.033787
v 8.119956 0.925274 0.030901
v 8.114693 0.920266 0.032272
v 8.109838 0.915022 0.031227
v 8.109529 0.910507 0.031879
v 8.106031 0.910288 0.027980
v 8.124750 0.934753 0.017931
v 8.124750 0.931781 0.023757
v 8.124750 0.925456 0.031328
v 8.124750 0.929105 0.027534
v 8.114322 0.915470 0.033909
v 8.105816 0.906221 0.028369
v 8.114040 0.910592 0.034640
v 8.109591 0.905925 0.031712
v 8.114040 0.905688 0.034384
v 8.128961 0.928957 0.027190
v 8.124750 0.920886 0.034331
v 8.129900 0.920737 0.033787
v 8.129544 0.925274 0.030901
v 8.119389 0.915729 0.035678
v 8.119221 0.910649 0.036503
v 8.119199 0.905507 0.036224
v 8.124750 0.915811 0.036330
v 8.134194 0.924698 0.029663
v 8.134808 0.920266 0.032272
v 8.135179 0.915470 0.033909
v 8.130112 0.915729 0.035678
v 8.124750 0.905507 0.037248
v 8.124750 0.910671 0.037205
v 8.130280 0.910649 0.036503
v 8.139212 0.919444 0.029931
v 8.138525 0.923707 0.027673
v 8.133216 0.928475 0.026118
v 8.130301 0.905507 0.036224
v 8.135460 0.910592 0.034640
v 8.135460 0.905688 0.034384
v 8.128381 0.931688 0.023479
v 8.139971 0.910507 0.031879
v 8.139909 0.905925 0.031712
v 8.142735 0.918165 0.026494
v 8.131447 0.933210 0.019597
v 8.128022 0.933416 0.020482
v 8.124750 0.933479 0.020692
v 8.139662 0.915022 0.031227
v 8.143684 0.906221 0.028369
v 8.143178 0.914291 0.027414
v 8.130773 0.934564 0.016961
v 8.127740 0.934708 0.017767
v 8.133904 0.934482 0.015263
v 8.143469 0.910288 0.027980
v 8.127401 0.935794 0.014750
v 8.129984 0.935783 0.013876
v 8.132573 0.935763 0.012315
v 8.124750 0.935810 0.015080
v 8.134766 0.935631 0.010327
v 8.129147 0.936681 0.010977
v 8.126983 0.936689 0.011735
v 8.124750 0.936679 0.011992
v 8.132980 0.936486 0.008042
v 8.131170 0.936616 0.009736
v 8.122518 0.936689 0.011735
v 8.134501 0.936284 0.005928
v 8.126391 0.937468 0.007947
v 8.127976 0.937407 0.007384
v 8.129448 0.937306 0.006455
v 8.124750 0.937488 0.008137
v 8.123109 0.937468 0.007947
v 8.121524 0.937407 0.007384
v 8.131805 0.937003 0.003672
v 8.132586 0.936815 0.001945
v 8.126976 0.937688 0.004460
v 8.124750 0.937746 0.004988
v 8.123612 0.937734 0.004876
v 8.130134 0.937278 0.000680
v 8.130475 0.937137 -0.000613
v 8.130744 0.937170 0.005204
v 8.125888 0.937734 0.004876
v 8.129610 0.937410 0.001897
v 8.128870 0.937524 0.002946
v 8.127994 0.937620 0.003833
v 8.148490 0.850795 0.017119
v 8.144409 0.849061 0.020885
v 8.145000 0.852816 0.015289
v 8.151917 0.853333 0.013769
v 8.140588 0.851333 0.018830
v 8.140018 0.847800 0.024955
v 8.141703 0.855323 0.014153
v 8.148514 0.855769 0.011403
v 8.154655 0.856540 0.010517
v 8.138675 0.852969 0.020921
v 8.139621 0.852510 0.024025
v 8.141766 0.851846 0.025964
v 8.150251 0.859193 0.008237
v 8.144600 0.859473 0.009529
v 8.137914 0.856387 0.018650
v 8.141358 0.859573 0.011523
v 8.156955 0.860118 0.007604
v 8.143388 0.855882 0.026755
v 8.139739 0.856821 0.023344
v 8.158735 0.865101 0.004695
v 8.152145 0.863547 0.005051
v 8.146299 0.863558 0.006461
v 8.140130 0.860529 0.022448
v 8.137567 0.859688 0.016629
v 8.141541 0.864011 0.009250
v 8.144759 0.859900 0.027110
v 8.153096 0.868473 0.003063
v 8.159237 0.868960 0.003145
v 8.147451 0.868243 0.004626
v 8.142065 0.868131 0.007669
v 8.145878 0.863928 0.027007
v 8.140474 0.864565 0.021571
v 8.137526 0.863812 0.014450
v 8.147305 0.873307 0.003695
v 8.152543 0.872815 0.002214
v 8.159098 0.874371 0.001937
v 8.137945 0.868676 0.012490
v 8.138837 0.872597 0.011391
v 8.142404 0.872167 0.006729
v 8.141058 0.868602 0.020532
v 8.146740 0.867992 0.026425
v 8.143446 0.876807 0.005346
v 8.143345 0.880641 0.004626
v 8.141803 0.872730 0.019373
v 8.142813 0.876986 0.018033
v 8.139851 0.876353 0.010222
v 8.141238 0.880641 0.008470
v 8.147405 0.872239 0.025610
v 8.147932 0.876817 0.024808
v 8.148305 0.881668 0.024055
v 8.144079 0.881029 0.017499
v 8.141005 0.890377 0.011134
v 8.148506 0.886735 0.023387
v 8.148455 0.892265 0.022854
v 8.140772 0.900112 0.013797
v 8.148069 0.898505 0.022508
v 8.147385 0.904551 0.022454
v 8.139254 0.921376 0.020812
v 8.146435 0.909501 0.022797
v 8.145230 0.913811 0.023461
v 8.143784 0.917938 0.024368
v 8.142216 0.921974 0.025398
v 8.155256 0.868060 -0.002783
v 8.151169 0.862053 -0.007548
v 8.141136 0.852535 -0.016398
v 8.146003 0.856653 -0.012403
v 8.137167 0.850492 -0.018579
v 8.132926 0.849353 -0.019732
v 8.124750 0.880641 0.004626
v 8.128905 0.848661 -0.020642
v 8.120595 0.848661 -0.020642
v 8.124750 0.848396 -0.021036
v 8.106155 0.880641 0.004626
v 8.116574 0.849353 -0.019732
v 8.094244 0.868060 -0.002783
v 8.098331 0.862053 -0.007548
v 8.103498 0.856653 -0.012403
v 8.108364 0.852535 -0.016398
v 8.112333 0.850492 -0.018579
v 8.090403 0.874371 0.001937
v 8.142735 0.918165 0.026494
v 8.143178 0.914291 0.027414
v 8.143469 0.910288 0.027980
v 8.140354 0.909562 0.023041
v 8.143684 0.906221 0.028369
v 8.124750 0.909562 0.023041
v 8.139909 0.905925 0.031712
v 8.124750 0.906221 0.028369
v 8.105816 0.906221 0.028369
v 8.109146 0.909562 0.023041
v 8.135460 0.905688 0.034384
v 8.124750 0.905688 0.034042
v 8.124750 0.905925 0.031411
v 8.109591 0.905925 0.031712
v 8.106031 0.910288 0.027980
v 8.110247 0.921376 0.020812
v 8.124750 0.905507 0.037248
v 8.130301 0.905507 0.036224
v 8.114040 0.905688 0.034384
v 8.106322 0.914291 0.027414
v 8.106766 0.918165 0.026494
v 8.107285 0.921974 0.025398
v 8.119199 0.905507 0.036224
v 8.101010 0.850795 0.017119
v 8.097584 0.853333 0.013769
v 8.104500 0.852816 0.015289
v 8.105091 0.849061 0.020885
v 8.100986 0.855769 0.011403
v 8.094845 0.856540 0.010517
v 8.107798 0.855323 0.014153
v 8.108912 0.851333 0.018830
v 8.109482 0.847800 0.024955
v 8.099249 0.859193 0.008237
v 8.092546 0.860118 0.007604
v 8.104900 0.859473 0.009529
v 8.111587 0.856387 0.018650
v 8.110826 0.852969 0.020921
v 8.108142 0.859573 0.011523
v 8.109879 0.852510 0.024025
v 8.107735 0.851846 0.025964
v 8.090765 0.865101 0.004695
v 8.097355 0.863547 0.005051
v 8.103201 0.863558 0.006461
v 8.111934 0.859688 0.016629
v 8.109370 0.860529 0.022448
v 8.109761 0.856821 0.023344
v 8.107959 0.864011 0.009250
v 8.106112 0.855882 0.026755
v 8.090263 0.868960 0.003145
v 8.096404 0.868473 0.003063
v 8.102049 0.868243 0.004626
v 8.107435 0.868131 0.007669
v 8.111975 0.863812 0.014450
v 8.104741 0.859900 0.027110
v 8.103622 0.863928 0.027007
v 8.109026 0.864565 0.021571
v 8.102195 0.873307 0.003695
v 8.096957 0.872815 0.002214
v 8.111555 0.868676 0.012490
v 8.110663 0.872597 0.011391
v 8.107097 0.872167 0.006729
v 8.108442 0.868602 0.020532
v 8.102760 0.867992 0.026425
v 8.106054 0.876807 0.005346
v 8.107697 0.872730 0.019373
v 8.109650 0.876353 0.010222
v 8.106688 0.876986 0.018033
v 8.108262 0.880641 0.008470
v 8.102096 0.872239 0.025610
v 8.101568 0.876817 0.024808
v 8.101195 0.881668 0.024055
v 8.105421 0.881029 0.017499
v 8.108496 0.890377 0.011134
v 8.100994 0.886735 0.023387
v 8.101046 0.892265 0.022854
v 8.108728 0.900112 0.013797
v 8.101431 0.898505 0.022508
v 8.102116 0.904551 0.022454
v 8.103065 0.909501 0.022797
v 8.104270 0.913811 0.023461
v 8.105717 0.917938 0.024368
vn -0.3888 -0.8677 -0.3097
vn -0.5289 -0.8452 -0.0773
vn -0.6097 -0.7639 -0.2115
vn -0.4620 -0.7722 -0.4362
vn 0.5289 -0.8452 -0.0773
vn 0.6097 -0.7639 -0.2115
vn 0.6749 -0.7378 0.0108
vn -0.3523 -0.3760 -0.8570
vn -0.3600 -0.2345 -0.9030
vn -0.0980 -0.2801 -0.9549
vn -0.0843 -0.4541 -0.8870
vn 0.7576 -0.6399 -0.1283
vn 0.7698 -0.6375 0.0313
vn -0.8586 -0.5057 -0.0840
vn -0.8295 -0.4398 -0.3442
vn -0.7576 -0.6399 -0.1283
vn -0.7698 -0.6375 0.0313
vn 0.8586 -0.5057 -0.0840
vn 0.8573 -0.5139 0.0289
vn -0.7310 -0.3724 -0.5718
vn -0.7057 -0.5816 -0.4046
vn -0.5467 -0.5413 -0.6389
vn -0.6731 0.2056 0.7104
vn -0.8133 0.1893 0.5502
vn -0.8139 0.1484 0.5617
vn -0.6600 0.1684 0.7322
vn -0.9562 -0.2756 -0.0988
vn -0.9404 -0.2324 -0.2485
vn -0.8573 -0.5139 0.0289
vn -0.8585 -0.1988 -0.4727
vn 0.9562 -0.2756 -0.0988
vn 0.9761 -0.0657 -0.2070
vn 0.1207 0.9698 0.2118
vn 0.0603 0.9701 0.2351
vn 0.0751 0.9489 0.3064
vn 0.1467 0.9451 0.2918
vn -0.1434 0.8972 -0.4176
vn -0.1049 0.9393 -0.3268
vn -0.0490 0.9367 -0.3466
vn -0.0611 0.8951 -0.4416
vn -0.8534 0.4283 0.2970
vn -0.7959 0.5546 0.2430
vn -0.8194 0.5648 0.0975
vn -0.8895 0.4375 0.1316
vn 0.1642 0.9851 -0.0509
vn 0.1485 0.9886 -0.0246
vn 0.2105 0.9775 0.0154
vn 0.2354 0.9715 -0.0261
vn -0.1095 0.8839 0.4547
vn -0.0915 0.9203 0.3803
vn -0.1834 0.9112 0.3689
vn -0.2223 0.8685 0.4430
vn -0.9765 0.0322 -0.2130
vn -0.9405 0.0370 -0.3378
vn -0.9796 0.0497 -0.1947
vn -0.9761 -0.0657 -0.2070
vn 0.3888 -0.8677 -0.3097
vn 0.4620 -0.7722 -0.4362
vn -0.9823 0.0311 -0.1847
vn -0.9809 0.1355 -0.1393
vn -0.7359 0.1956 0.6483
vn -0.7245 0.0887 0.6836
vn -0.6268 0.0736 0.7757
vn -0.6277 0.2161 0.7478
vn -0.1591 0.7593 0.6310
vn -0.1326 0.8359 0.5326
vn -0.2648 0.8142 0.5167
vn -0.3133 0.7338 0.6029
vn -0.1762 -0.7761 -0.6055
vn -0.0000 -0.7766 -0.6301
vn -0.0000 -0.8644 -0.5029
vn -0.1589 -0.8637 -0.4783
vn -0.9764 0.1217 -0.1785
vn -0.9606 0.1271 -0.2471
vn -0.9788 0.1872 -0.0834
vn -0.8187 -0.4161 0.3957
vn -0.4876 -0.1687 0.8566
vn -0.5140 -0.0127 0.8577
vn -0.9015 -0.2302 0.3664
vn -0.9419 0.1083 0.3178
vn -0.9202 0.2245 0.3206
vn -0.9722 -0.1438 -0.1848
vn -0.9368 -0.0505 0.3462
vn -0.5837 -0.3441 -0.7355
vn -0.5849 -0.1788 -0.7912
vn -0.4097 -0.1701 -0.8962
vn -0.4053 -0.3404 -0.8485
vn 0.3658 0.8919 0.2659
vn 0.2693 0.9022 0.3368
vn 0.3283 0.8485 0.4150
vn 0.4491 0.8236 0.3465
vn 0.6682 -0.7390 -0.0854
vn 0.5359 -0.8050 -0.2545
vn 0.6628 -0.6917 -0.2868
vn 0.8152 -0.5605 -0.1461
vn 0.5795 0.2741 -0.7675
vn 0.5492 0.3936 -0.7372
vn 0.6788 0.4067 -0.6115
vn 0.7195 0.2854 -0.6331
vn 0.5718 -0.0202 -0.8202
vn 0.5570 0.0906 -0.8256
vn 0.7295 0.1083 -0.6754
vn 0.7359 -0.0129 -0.6770
vn -0.7350 -0.1898 -0.6509
vn -0.7359 -0.0129 -0.6770
vn -0.5718 -0.0202 -0.8202
vn -0.4052 -0.0181 -0.9141
vn 0.2740 -0.8634 -0.4236
vn 0.1589 -0.8637 -0.4783
vn 0.1762 -0.7761 -0.6055
vn 0.3175 -0.7734 -0.5488
vn -0.0000 -0.5571 -0.8304
vn 0.1985 -0.5564 -0.8068
vn -0.0000 0.9236 0.3833
vn -0.0000 0.9504 0.3109
vn -0.0751 0.9489 0.3064
vn -0.8197 0.2931 -0.4921
vn -0.7712 0.4192 -0.4792
vn -0.6788 0.4067 -0.6115
vn -0.7195 0.2854 -0.6331
vn -0.8152 -0.5605 -0.1461
vn -0.9200 -0.3520 -0.1724
vn -0.6617 -0.0819 -0.7453
vn -0.9648 0.2102 -0.1583
vn -0.9941 0.0664 -0.0862
vn -0.6738 -0.1026 -0.7318
vn 0.8072 -0.5262 -0.2675
vn -0.8644 0.0170 -0.5026
vn 0.2061 0.4446 0.8717
vn 0.3963 0.4157 0.8186
vn 0.3601 0.5985 0.7156
vn 0.1845 0.6261 0.7576
vn -0.5320 0.0887 0.8421
vn -0.5567 0.1598 0.8152
vn -0.6628 -0.6917 -0.2868
vn -0.5359 -0.8050 -0.2545
vn -0.6682 -0.7390 -0.0854
vn -0.5570 0.0906 -0.8256
vn -0.7295 0.1083 -0.6754
vn -0.2129 0.0958 -0.9724
vn -0.1964 0.0623 -0.9785
vn -0.0000 0.0721 -0.9974
vn -0.0000 0.1094 -0.9940
vn 0.5409 -0.7489 0.3828
vn 0.4009 -0.9083 0.1196
vn 0.4206 -0.9057 -0.0536
vn 0.4970 -0.8674 0.0258
vn 0.3758 -0.5510 -0.7451
vn 0.5467 -0.5413 -0.6389
vn -0.4240 -0.9037 -0.0593
vn -0.5011 -0.8650 0.0250
vn -0.6749 -0.7378 0.0108
vn -0.0000 -0.3410 -0.9401
vn 0.2099 -0.3412 -0.9163
vn 0.4053 -0.3404 -0.8485
vn 0.3718 -0.9256 0.0707
vn -0.9229 0.1476 -0.3556
vn -0.8579 0.1351 -0.4957
vn -0.5951 0.3554 0.7208
vn -0.4194 0.2411 0.8752
vn -0.3963 0.4157 0.8186
vn 0.7057 -0.5816 -0.4046
vn 0.2196 -0.0309 -0.9751
vn 0.4052 -0.0181 -0.9141
vn 0.4097 -0.1701 -0.8962
vn 0.2134 -0.1740 -0.9613
vn -0.0000 -0.1783 -0.9840
vn 0.3110 -0.6936 0.6498
vn -0.8537 0.1710 -0.4920
vn -0.7249 0.1585 -0.6704
vn -0.9150 0.1649 -0.3682
vn -0.9508 0.1505 -0.2709
vn 0.3981 0.2564 -0.8808
vn 0.3850 0.3792 -0.8414
vn -0.6971 -0.7022 0.1446
vn -0.0000 -0.6139 0.7894
vn -0.0412 -0.6189 0.7844
vn -0.0440 -0.6063 0.7940
vn 0.9404 -0.2324 -0.2485
vn -0.2196 -0.0309 -0.9751
vn -0.2134 -0.1740 -0.9613
vn -0.0000 -0.0414 -0.9991
vn -0.9498 0.1355 -0.2822
vn -0.9136 0.1430 -0.3806
vn -0.8566 0.1496 -0.4938
vn -0.3785 -0.7573 -0.5322
vn -0.5508 -0.5116 -0.6594
vn -0.0000 -0.8473 -0.5311
vn -0.0000 -0.9467 -0.3221
vn 0.5837 -0.3441 -0.7355
vn 0.7310 -0.3724 -0.5718
vn -0.9146 0.2163 0.3418
vn -0.7439 0.1511 0.6510
vn -0.7780 0.1319 0.6143
vn -0.9237 0.1758 0.3405
vn 0.8312 0.4299 -0.3525
vn 0.8751 0.4371 -0.2077
vn 0.9307 0.3061 -0.2001
vn 0.8845 0.2994 -0.3577
vn -0.2099 -0.3412 -0.9163
vn 0.7350 -0.1898 -0.6509
vn 0.8585 -0.1988 -0.4727
vn 0.8295 -0.4398 -0.3442
vn 0.5849 -0.1788 -0.7912
vn 0.2324 0.1017 -0.9673
vn 0.2273 0.1101 -0.9676
vn 0.4088 0.1062 -0.9064
vn 0.4032 0.1136 -0.9080
vn -0.4012 0.0794 -0.9126
vn -0.5537 0.1345 -0.8218
vn -0.4032 0.1136 -0.9080
vn -0.8312 0.4299 -0.3525
vn -0.8845 0.2994 -0.3577
vn -0.0000 0.3513 -0.9363
vn -0.0000 0.4971 -0.8677
vn 0.1868 0.5030 -0.8439
vn 0.1932 0.3610 -0.9123
vn -0.1280 0.9689 -0.2116
vn -0.1014 0.9676 -0.2313
vn -0.1576 0.9408 -0.3001
vn -0.2006 0.9418 -0.2697
vn 0.8644 0.0170 -0.5026
vn 0.9405 0.0370 -0.3378
vn -0.7333 0.1434 -0.6646
vn -0.5670 0.1222 -0.8146
vn -0.9735 0.1580 -0.1654
vn 0.9229 0.1476 -0.3556
vn 0.9150 0.1649 -0.3682
vn 0.9508 0.1505 -0.2709
vn 0.9606 0.1271 -0.2471
vn -0.0000 0.1128 -0.9936
vn -0.1852 0.1209 -0.9752
vn -0.1904 0.2319 -0.9539
vn -0.0000 0.2190 -0.9757
vn -0.3632 0.9020 -0.2334
vn -0.3698 0.9122 -0.1763
vn -0.2671 0.9518 -0.1511
vn -0.2566 0.9471 -0.1930
vn -0.7281 0.6618 0.1788
vn -0.6283 0.7690 0.1175
vn -0.6563 0.7544 0.0077
vn -0.7468 0.6629 0.0537
vn -0.6127 0.0620 -0.7879
vn -0.7655 0.0692 -0.6396
vn -0.7500 0.1586 -0.6422
vn -0.6017 0.1504 -0.7844
vn 0.7249 0.1585 -0.6704
vn 0.8537 0.1710 -0.4920
vn 0.8579 0.1351 -0.4957
vn -0.9173 0.1065 -0.3837
vn -0.8652 0.1055 -0.4901
vn -0.7517 0.1006 -0.6518
vn 0.9765 0.0322 -0.2130
vn 0.9823 0.0311 -0.1847
vn 0.9722 -0.1438 -0.1848
vn 0.9485 -0.1376 -0.2852
vn -0.8409 0.0820 0.5349
vn -0.8262 -0.0251 0.5628
vn -0.8674 -0.0506 0.4950
vn -0.8766 0.1637 0.4525
vn 0.6090 0.0540 -0.7913
vn 0.6127 0.0620 -0.7879
vn 0.7655 0.0692 -0.6396
vn 0.7655 0.0641 -0.6403
vn -0.0000 0.0526 -0.9986
vn 0.2280 0.0626 -0.9717
vn 0.4012 0.0794 -0.9126
vn 0.5537 0.1345 -0.8218
vn 0.9200 -0.3520 -0.1724
vn 0.9074 -0.3248 -0.2666
vn 0.9015 -0.2302 0.3664
vn 0.8187 -0.4161 0.3957
vn -0.3175 -0.7734 -0.5488
vn -0.2740 -0.8634 -0.4236
vn -0.2324 0.1017 -0.9673
vn -0.0000 0.0981 -0.9952
vn -0.2280 0.0626 -0.9717
vn 0.1862 0.0534 -0.9811
vn 0.1852 0.1209 -0.9752
vn 0.4057 0.1373 -0.9036
vn 0.4119 0.0552 -0.9096
vn -0.0000 0.8936 -0.4489
vn -0.0000 0.9352 -0.3541
vn 0.0490 0.9367 -0.3466
vn 0.0611 0.8951 -0.4416
vn -0.8109 0.2620 0.5233
vn -0.8187 0.2924 0.4941
vn -0.9719 0.1693 -0.1638
vn -0.9812 0.0784 -0.1763
vn -0.4088 0.1062 -0.9064
vn -0.2273 0.1101 -0.9676
vn -0.4057 0.1373 -0.9036
vn -0.5795 0.2741 -0.7675
vn -0.3981 0.2564 -0.8808
vn -0.1985 -0.5564 -0.8068
vn 0.9735 0.1580 -0.1654
vn 0.9764 0.1217 -0.1785
vn -0.8250 0.2487 0.5074
vn -0.7963 0.4016 0.4523
vn -0.8964 0.2950 0.3309
vn -0.9403 0.3030 0.1550
vn -0.9515 0.3071 -0.0200
vn -0.9779 0.2080 -0.0201
vn -0.9610 0.2258 0.1598
vn -0.5905 0.0858 -0.8025
vn -0.4139 0.0791 -0.9069
vn -0.0000 0.1167 -0.9932
vn 0.2129 0.0958 -0.9724
vn 0.9533 0.1131 -0.2801
vn 0.9832 0.1360 -0.1213
vn 0.9778 0.1491 -0.1475
vn 0.9498 0.1355 -0.2822
vn -0.9109 0.2296 0.3427
vn -0.7655 0.0641 -0.6403
vn -0.6090 0.0540 -0.7913
vn -0.8721 0.0667 -0.4848
vn -0.2546 0.9645 -0.0696
vn -0.3448 0.9367 -0.0612
vn -0.3182 0.9480 0.0040
vn -0.2354 0.9715 -0.0261
vn -0.0810 0.8482 -0.5235
vn -0.0000 0.8487 -0.5288
vn -0.8706 0.0699 -0.4870
vn 0.2330 0.7768 -0.5851
vn 0.3483 0.7772 -0.5241
vn 0.4018 0.7003 -0.5901
vn 0.2779 0.6923 -0.6659
vn -0.9533 0.1131 -0.2801
vn -0.9612 0.0915 -0.2601
vn -0.9237 0.0709 -0.3766
vn -0.1868 0.5030 -0.8439
vn -0.3557 0.5093 -0.7836
vn -0.3165 0.6127 -0.7242
vn -0.1714 0.6162 -0.7687
vn -0.4155 0.0499 -0.9082
vn -0.4119 0.0552 -0.9096
vn -0.1862 0.0534 -0.9811
vn -0.0000 0.0539 -0.9985
vn 0.5670 0.1222 -0.8146
vn 0.7333 0.1434 -0.6646
vn -0.9275 0.0749 -0.3662
vn -0.9178 0.1661 -0.3606
vn -0.8545 0.1614 -0.4938
vn 0.4155 0.0499 -0.9082
vn -0.9778 0.1491 -0.1475
vn -0.9832 0.1360 -0.1213
vn -0.9681 0.1017 -0.2289
vn -0.9612 0.1843 -0.2053
vn 0.3606 0.9253 0.1173
vn 0.2952 0.9365 0.1895
vn 0.4532 0.8749 0.1710
vn -0.9307 0.3061 -0.2001
vn 0.3943 0.7771 0.4905
vn 0.5424 0.7238 0.4266
vn -0.9768 0.2123 -0.0271
vn -0.9801 0.1964 0.0278
vn -0.6895 0.2007 0.6959
vn -0.9045 0.2632 0.3356
vn -0.9059 0.2718 0.3248
vn -0.6330 0.2309 0.7389
vn 0.7381 0.6698 -0.0812
vn 0.6493 0.7527 -0.1084
vn 0.6563 0.7544 0.0077
vn 0.7468 0.6629 0.0537
vn 0.5348 0.7902 -0.2995
vn 0.4617 0.8441 -0.2726
vn 0.4706 0.8587 -0.2030
vn 0.5533 0.8033 -0.2203
vn -0.8751 0.4371 -0.2077
vn 0.4291 -0.0456 0.9021
vn 0.6140 -0.0064 0.7893
vn 0.6268 0.0736 0.7757
vn 0.4305 0.0568 0.9008
vn 0.8652 0.1055 -0.4901
vn 0.9173 0.1065 -0.3837
vn 0.9136 0.1430 -0.3806
vn 0.8566 0.1496 -0.4938
vn 0.4395 0.7785 -0.4481
vn 0.5012 0.7110 -0.4932
vn -0.3758 -0.5510 -0.7451
vn -0.3606 0.9253 0.1173
vn -0.2817 0.9574 0.0638
vn -0.4136 0.9096 0.0392
vn -0.9825 0.1705 0.0757
vn -0.9879 0.1295 -0.0854
vn -0.9884 0.1449 -0.0455
vn -0.5891 0.2083 0.7807
vn 0.9234 0.1765 0.3409
vn 0.9237 0.1758 0.3405
vn 0.9824 0.1705 0.0757
vn 0.9795 0.1675 0.1120
vn -0.9234 0.1765 0.3409
vn -0.9795 0.1675 0.1120
vn -0.3439 0.1151 0.9319
vn -0.3722 0.1565 0.9149
vn -0.4249 0.1749 0.8882
vn 0.0286 -0.2864 -0.9577
vn 0.0415 -0.4440 -0.8950
vn 0.8095 0.1616 0.5645
vn 0.7963 0.1397 0.5885
vn 0.9180 0.1986 0.3433
vn -0.4305 0.8372 -0.3374
vn -0.3361 0.8964 -0.2889
vn -0.2897 0.8955 -0.3378
vn -0.3727 0.8377 -0.3991
vn -0.7963 0.1397 0.5885
vn -0.6792 0.0999 0.7272
vn -0.7058 0.1073 0.7002
vn 0.3078 0.0305 0.9510
vn 0.4876 -0.1687 0.8566
vn 0.5140 -0.0127 0.8577
vn 0.1397 -0.1776 0.9741
vn 0.0961 -0.2412 0.9657
vn 0.3326 -0.5384 0.7743
vn 0.4307 -0.3219 0.8431
vn -0.4307 -0.3219 0.8431
vn -0.2304 -0.0723 0.9704
vn -0.3078 0.0305 0.9510
vn -0.5948 0.1438 0.7909
vn -0.6492 0.1055 0.7533
vn 0.8441 0.3042 0.4416
vn 0.8766 0.1637 0.4525
vn 0.8225 0.1663 0.5439
vn 0.7669 0.2547 0.5891
vn -0.5081 0.1792 0.8425
vn -0.7120 0.2760 0.6456
vn -0.6836 0.2660 0.6796
vn 0.6874 -0.5891 0.4247
vn -0.0415 -0.4440 -0.8950
vn 0.0843 -0.4541 -0.8870
vn 0.1032 -0.6009 -0.7927
vn -0.0338 -0.5835 -0.8114
vn -0.6874 -0.5891 0.4247
vn -0.5443 -0.7449 0.3858
vn 0.2304 -0.0723 0.9704
vn -0.3326 -0.5384 0.7743
vn -0.0961 -0.2412 0.9657
vn -0.1397 -0.1776 0.9741
vn -0.7354 0.5565 0.3866
vn -0.6619 0.6792 0.3171
vn -0.8095 0.1616 0.5645
vn -0.9180 0.1986 0.3433
vn -0.7335 0.1268 0.6678
vn -0.8202 0.1900 0.5396
vn -0.0493 0.9891 0.1385
vn -0.0354 0.9985 0.0411
vn -0.0692 0.9971 0.0314
vn -0.0987 0.9881 0.1177
vn -0.7599 0.1552 0.6312
vn 0.8202 0.1900 0.5396
vn 0.7599 0.1552 0.6312
vn 0.7335 0.1268 0.6678
vn 0.7500 0.1586 -0.6422
vn 0.8197 0.2931 -0.4921
vn 0.8545 0.1614 -0.4938
vn -0.8961 0.4424 -0.0352
vn 0.9515 0.3071 -0.0200
vn 0.9779 0.2080 -0.0201
vn 0.9612 0.1843 -0.2053
vn -0.6909 0.4325 0.5793
vn -0.6269 0.6039 0.4922
vn -0.5189 0.8517 0.0729
vn -0.5561 0.8307 -0.0268
vn -0.5629 0.8167 -0.1267
vn -0.4658 0.8754 -0.1292
vn -0.4706 0.8587 -0.2030
vn -0.5533 0.8033 -0.2203
vn -0.3850 0.3792 -0.8414
vn -0.1932 0.3610 -0.9123
vn -0.7624 0.5481 -0.3439
vn -0.7096 0.5349 -0.4586
vn -0.2209 0.9419 0.2529
vn -0.1467 0.9451 0.2918
vn -0.1207 0.9698 0.2118
vn -0.1798 0.9688 0.1703
vn 0.9809 0.1355 -0.1393
vn 0.9202 0.2245 0.3206
vn 0.9419 0.1083 0.3178
vn 0.5905 0.0858 -0.8025
vn 0.7517 0.1006 -0.6518
vn -0.7381 0.6698 -0.0812
vn -0.7152 0.6617 -0.2251
vn -0.8003 0.5586 -0.2179
vn -0.8206 0.5689 -0.0551
vn 0.8003 0.5586 -0.2179
vn 0.7152 0.6617 -0.2251
vn 0.8206 0.5689 -0.0551
vn 0.5060 0.5110 -0.6949
vn 0.6271 0.5205 -0.5795
vn -0.6271 0.5205 -0.5795
vn -0.2061 0.4446 0.8717
vn -0.0000 0.4551 0.8905
vn -0.0000 0.6347 0.7727
vn -0.1845 0.6261 0.7576
vn -0.6493 0.7527 -0.1084
vn -0.5568 0.7955 0.2390
vn -0.4532 0.8749 0.1710
vn -0.6289 0.7439 -0.2261
vn -0.6023 0.7326 -0.3169
vn -0.6824 0.6512 -0.3321
vn -0.5641 0.7219 -0.4008
vn -0.6371 0.6387 -0.4315
vn -0.5492 0.3936 -0.7372
vn -0.1451 0.6960 -0.7032
vn -0.1113 0.7782 -0.6181
vn -0.0000 0.7795 -0.6264
vn -0.0000 0.7019 -0.7123
vn 0.9796 0.0497 -0.1947
vn -0.5012 0.7110 -0.4932
vn -0.5658 0.6243 -0.5386
vn -0.5348 0.7902 -0.2995
vn 0.9237 0.0709 -0.3766
vn 0.9612 0.0915 -0.2601
vn -0.4617 0.8441 -0.2726
vn 0.6492 0.1055 0.7533
vn 0.5948 0.1438 0.7909
vn 0.6895 0.2007 0.6959
vn 0.7439 0.1511 0.6510
vn -0.4395 0.7785 -0.4481
vn -0.5005 0.7819 -0.3716
vn -0.5060 0.5110 -0.6949
vn 0.9146 0.2163 0.3418
vn 0.9045 0.2632 0.3356
vn 0.9768 0.2123 -0.0271
vn 0.9801 0.1964 0.0278
vn -0.2779 0.6923 -0.6659
vn -0.4018 0.7003 -0.5901
vn -0.3483 0.7772 -0.5241
vn 0.1964 0.0623 -0.9785
vn 0.9403 0.3030 0.1550
vn 0.8895 0.4375 0.1316
vn 0.8534 0.4283 0.2970
vn 0.8964 0.2950 0.3309
vn 0.5641 0.7219 -0.4008
vn 0.5005 0.7819 -0.3716
vn -0.4539 0.6140 -0.6457
vn 0.4139 0.0791 -0.9069
vn 0.6017 0.1504 -0.7844
vn 0.8706 0.0699 -0.4870
vn 0.8721 0.0667 -0.4848
vn 0.2648 0.8142 0.5167
vn 0.3133 0.7338 0.6029
vn 0.4661 0.6818 0.5638
vn -0.2330 0.7768 -0.5851
vn -0.9724 0.1848 0.1425
vn 0.1904 0.2319 -0.9539
vn -0.0000 0.6181 -0.7861
vn -0.1978 -0.7349 -0.6487
vn -0.1488 -0.6652 -0.7317
vn -0.0568 -0.7249 -0.6865
vn -0.1298 -0.7802 -0.6119
vn 0.2389 0.0639 0.9689
vn 0.2229 0.2576 0.9402
vn -0.0000 0.2643 0.9644
vn -0.0000 0.0718 0.9974
vn 0.1804 0.9821 0.0534
vn 0.1266 0.9920 -0.0020
vn -0.2902 0.8417 -0.4554
vn 0.2468 -0.0360 0.9684
vn -0.0000 0.9662 -0.2576
vn 0.0354 0.9662 -0.2552
vn -0.2254 0.8969 -0.3805
vn 0.2902 0.8417 -0.4554
vn 0.2254 0.8969 -0.3805
vn 0.2897 0.8955 -0.3378
vn 0.3727 0.8377 -0.3991
vn -0.2229 0.2576 0.9402
vn 0.3557 0.5093 -0.7836
vn -0.2350 0.9648 0.1183
vn -0.2952 0.9365 0.1895
vn -0.2335 0.9438 -0.2341
vn 0.1277 -0.8194 -0.5587
vn 0.1307 -0.0445 -0.9904
vn 0.0980 -0.2801 -0.9549
vn -0.0286 -0.2864 -0.9577
vn 0.1663 0.9726 -0.1623
vn 0.1764 0.9750 -0.1349
vn 0.2671 0.9518 -0.1511
vn 0.2566 0.9471 -0.1930
vn -0.0000 -0.0226 0.9997
vn -0.3618 0.9244 -0.1211
vn -0.2660 0.9576 -0.1110
vn -0.1663 0.9726 -0.1623
vn -0.1503 0.9704 -0.1888
vn -0.1764 0.9750 -0.1349
vn -0.0697 0.9669 -0.2454
vn -0.0354 0.9662 -0.2552
vn -0.4490 0.8923 -0.0471
vn 0.1503 0.9704 -0.1888
vn -0.0000 0.9941 -0.1082
vn 0.1591 0.7593 0.6310
vn -0.6785 0.2343 0.6962
vn -0.8123 0.2207 0.5399
vn 0.1280 0.9689 -0.2116
vn 0.1786 0.9781 -0.1073
vn -0.1786 0.9781 -0.1073
vn 0.9275 0.0749 -0.3662
vn -0.7050 0.0307 0.7085
vn -0.6140 -0.0064 0.7893
vn 0.5081 0.1792 0.8425
vn 0.6330 0.2309 0.7389
vn 0.2006 0.9418 -0.2697
vn 0.2335 0.9438 -0.2341
vn 0.3361 0.8964 -0.2889
vn -0.1750 0.9814 -0.0789
vn -0.5424 0.7238 0.4266
vn -0.4491 0.8236 0.3465
vn 0.9941 0.0664 -0.0862
vn 0.9648 0.2102 -0.1583
vn -0.1857 0.8460 -0.4999
vn -0.3675 -0.1237 -0.9218
vn -0.1307 -0.0445 -0.9904
vn -0.3658 0.8919 0.2659
vn 0.1095 0.8839 0.4547
vn 0.0915 0.9203 0.3803
vn -0.0000 0.8893 0.4574
vn -0.4661 0.6818 0.5638
vn -0.3943 0.7771 0.4905
vn -0.5350 0.5381 0.6513
vn 0.3632 0.9020 -0.2334
vn 0.3698 0.9122 -0.1763
vn 0.9788 0.1872 -0.0834
vn 0.7096 0.5349 -0.4586
vn 0.7624 0.5481 -0.3439
vn 0.7711 0.4192 -0.4792
vn -0.3283 0.8485 0.4150
vn -0.2693 0.9022 0.3368
vn 0.9059 0.2718 0.3248
vn 0.3165 0.6127 -0.7242
vn 0.4539 0.6140 -0.6457
vn 0.1113 0.7782 -0.6181
vn 0.1451 0.6960 -0.7032
vn 0.8250 0.2487 0.5074
vn 0.9109 0.2296 0.3427
vn 0.5891 0.2083 0.7807
vn 0.5951 0.3554 0.7208
vn 0.7022 0.3036 0.6440
vn 0.6909 0.4325 0.5793
vn 0.5350 0.5381 0.6513
vn 0.1714 0.6162 -0.7687
vn -0.3601 0.5985 0.7156
vn -0.6387 -0.1538 -0.7539
vn 0.9368 -0.0505 0.3462
vn -0.9878 -0.0300 -0.1526
vn -0.6410 -0.2679 -0.7193
vn 0.5320 0.0887 0.8421
vn 0.3439 0.1151 0.9319
vn 0.0032 -0.6664 -0.7456
vn 0.1488 -0.6652 -0.7317
vn 0.0568 -0.7249 -0.6865
vn 0.2223 0.8685 0.4430
vn 0.1326 0.8359 0.5326
vn 0.4249 0.1749 0.8882
vn -0.8072 -0.5262 -0.2675
vn -0.1032 -0.6009 -0.7927
vn -0.3421 -0.5283 -0.7771
vn -0.4305 0.0568 0.9008
vn -0.0000 0.9704 0.2414
vn -0.0000 0.9892 0.1463
vn -0.0603 0.9701 0.2351
vn -0.3073 -0.6940 0.6511
vn 0.6410 -0.2679 -0.7193
vn 0.9878 -0.0300 -0.1526
vn 0.9860 -0.1171 -0.1185
vn 0.6290 -0.3941 -0.6701
vn -0.9074 -0.3248 -0.2666
vn 0.9681 0.1017 -0.2289
vn 0.5567 0.1598 0.8152
vn -0.3428 -0.9387 0.0359
vn -0.3948 -0.9112 0.1177
vn -0.9602 -0.2661 -0.0848
vn -0.9806 -0.1720 -0.0940
vn -0.5174 -0.5548 -0.6515
vn -0.5306 -0.6592 -0.5329
vn 0.9879 0.1295 -0.0854
vn 0.9884 0.1449 -0.0455
vn 0.9724 0.1848 0.1425
vn 0.7780 0.1319 0.6143
vn 0.6792 0.0999 0.7272
vn 0.9610 0.2258 0.1598
vn 0.1576 0.9408 -0.3001
vn 0.9178 0.1661 -0.3606
vn 0.8961 0.4424 -0.0352
vn -0.2389 0.0639 0.9689
vn 0.7058 0.1073 0.7002
vn -0.7868 0.2188 0.5771
vn 0.8194 0.5648 0.0975
vn 0.7959 0.5546 0.2430
vn -0.0000 0.8430 0.5379
vn 0.6824 0.6512 -0.3321
vn 0.6371 0.6387 -0.4315
vn 0.5658 0.6243 -0.5386
vn -0.0000 0.7669 0.6418
vn 0.7868 0.2188 0.5771
vn 0.7963 0.4016 0.4523
vn 0.6023 0.7326 -0.3169
vn 0.6289 0.7439 -0.2261
vn 0.5189 0.8517 0.0729
vn 0.4136 0.9096 0.0392
vn -0.1428 0.9858 0.0881
vn -0.1804 0.9821 0.0534
vn 0.1857 0.8460 -0.4999
vn 0.0810 0.8482 -0.5235
vn 0.7281 0.6618 0.1788
vn 0.6619 0.6792 0.3171
vn 0.7354 0.5565 0.3866
vn 0.6283 0.7690 0.1175
vn 0.4305 0.8372 -0.3374
vn 0.0987 0.9881 0.1177
vn 0.0493 0.9891 0.1385
vn 0.5629 0.8167 -0.1267
vn 0.1434 0.8972 -0.4176
vn -0.1642 0.9851 -0.0509
vn 0.6269 0.6039 0.4922
vn 0.1014 0.9676 -0.2313
vn 0.0697 0.9669 -0.2454
vn 0.4658 0.8754 -0.1292
vn -0.1989 -0.8209 -0.5353
vn 0.1049 0.9393 -0.3268
vn 0.2660 0.9576 -0.1110
vn 0.3618 0.9244 -0.1211
vn 0.5561 0.8307 -0.0268
vn 0.3448 0.9367 -0.0612
vn 0.4490 0.8923 -0.0471
vn 0.2546 0.9645 -0.0696
vn 0.1750 0.9814 -0.0789
vn 0.3182 0.9480 0.0040
vn -0.1485 0.9886 -0.0246
vn 0.2817 0.9574 0.0638
vn 0.5568 0.7955 0.2390
vn -0.1266 0.9920 -0.0020
vn 0.2350 0.9648 0.1183
vn -0.7908 -0.1011 0.6037
vn -0.7677 -0.1593 0.6207
vn 0.1428 0.9858 0.0881
vn 0.1798 0.9688 0.1703
vn -0.2105 0.9775 0.0154
vn -0.1003 0.9948 0.0176
vn 0.2209 0.9419 0.2529
vn 0.6277 0.2161 0.7478
vn 0.7359 0.1956 0.6483
vn 0.8133 0.1893 0.5502
vn 0.8139 0.1484 0.5617
vn 0.9806 -0.1720 -0.0940
vn 0.1834 0.9112 0.3689
vn 0.7245 0.0887 0.6836
vn 0.4194 0.2411 0.8752
vn 0.7050 0.0307 0.7085
vn -0.2468 -0.0360 0.9684
vn 0.0354 0.9985 0.0411
vn -0.0000 0.9991 0.0434
vn -0.7022 0.3036 0.6440
vn -0.4291 -0.0456 0.9021
vn 0.0692 0.9971 0.0314
vn 0.1003 0.9948 0.0176
vn 0.1978 -0.7349 -0.6487
vn 0.5306 -0.6592 -0.5329
vn 0.1989 -0.8209 -0.5353
vn 0.1298 -0.7802 -0.6119
vn -0.8701 -0.4905 0.0484
vn 0.9602 -0.2661 -0.0848
vn 0.5174 -0.5548 -0.6515
vn -0.8385 0.0596 0.5417
vn -0.6529 0.1123 0.7491
vn -0.6290 -0.3941 -0.6701
vn -0.0032 -0.6664 -0.7456
vn 0.0338 -0.5835 -0.8114
vn 0.6600 0.1684 0.7322
vn 0.6529 0.1123 0.7491
vn 0.8385 0.0596 0.5417
vn 0.3523 -0.3760 -0.8570
vn 0.3421 -0.5283 -0.7771
vn -0.9485 -0.1376 -0.2852
vn 0.6731 0.2056 0.7104
vn 0.3600 -0.2345 -0.9030
vn 0.6387 -0.1538 -0.7539
vn 0.8123 0.2207 0.5399
vn 0.6785 0.2343 0.6962
vn -0.7669 0.2547 0.5891
vn -0.8441 0.3042 0.4416
vn 0.9812 0.0784 -0.1763
vn 0.3675 -0.1237 -0.9218
vn 0.6617 -0.0819 -0.7453
vn 0.9719 0.1693 -0.1638
vn 0.8109 0.2620 0.5233
vn 0.6836 0.2660 0.6796
vn 0.8187 0.2924 0.4941
vn -0.1277 -0.8194 -0.5587
vn 0.6738 -0.1026 -0.7318
vn 0.7120 0.2760 0.6456
vn -0.8225 0.1663 0.5439
vn 0.8674 -0.0506 0.4950
vn 0.8262 -0.0251 0.5628
vn 0.8409 0.0820 0.5349
vn 0.7677 -0.1593 0.6207
vn 0.7908 -0.1011 0.6037
vn -0.7115 -0.1855 0.6777
vn -0.1346 -0.8690 0.4762
vn -0.5166 -0.1722 0.8388
vn -0.6842 -0.3093 0.6605
vn -0.7335 -0.3931 0.5544
vn 0.4963 -0.8422 -0.2109
vn -0.0954 -0.5706 0.8156
vn -0.1308 -0.5811 0.8032
vn -0.1422 -0.5857 0.7980
vn -0.1559 -0.5832 0.7972
vn 0.6971 -0.7022 0.1446
vn 0.0440 -0.6063 0.7940
vn 0.0412 -0.6189 0.7844
vn -0.0505 -0.6232 0.7804
vn 0.0505 -0.6232 0.7804
vn -0.0000 -0.6227 0.7825
vn 0.0954 -0.5706 0.8156
vn 0.1308 -0.5811 0.8032
vn 0.1559 -0.5832 0.7972
vn 0.1422 -0.5857 0.7980
vn 0.8438 -0.0330 -0.5356
vn 0.8524 -0.0149 -0.5227
vn 0.8478 -0.0121 -0.5301
vn 0.5508 -0.5116 -0.6594
vn 0.3785 -0.7573 -0.5322
vn 0.3722 0.1565 0.9149
vn 0.0006 -0.9961 -0.0884
vn 0.0015 -0.9964 -0.0846
vn -0.0000 -0.9973 -0.0731
vn -0.0000 -0.9956 -0.0934
vn -0.0006 -0.9961 -0.0884
vn -0.8478 -0.0121 -0.5301
vn 0.1346 -0.8690 0.4762
vn -0.0000 -0.9979 -0.0646
vn -0.0367 -0.9793 -0.1991
vn -0.0015 -0.9964 -0.0846
vn -0.8524 -0.0149 -0.5227
vn -0.8438 -0.0330 -0.5356
vn -0.4963 -0.8422 -0.2109
vn 0.0367 -0.9793 -0.1991
vn 0.8701 -0.4905 0.0484
vn -0.9860 -0.1171 -0.1185
vn 0.7115 -0.1855 0.6777
vn 0.5166 -0.1722 0.8388
vn 0.6842 -0.3093 0.6605
vn 0.7335 -0.3931 0.5544
vt 0.000000 0.000000
s 1
f 54/1/1 62/1/2 61/1/3 55/1/4
f 1/1/5 3/1/6 4/1/7
f 703/1/8 710/1/9 708/1/10 702/1/11
f 4/1/7 5/1/12 6/1/13
f 85/1/14 90/1/15 76/1/16 77/1/17
f 6/1/13 7/1/18 8/1/19
f 90/1/15 91/1/20 84/1/21 76/1/16
f 84/1/21 92/1/22 55/1/4 61/1/3
f 707/1/23 704/1/24 700/1/25 699/1/26
f 93/1/27 106/1/28 85/1/14 86/1/29
f 85/1/14 106/1/28 98/1/30 90/1/15
f 8/1/19 13/1/31 15/1/32
f 657/1/33 658/1/34 652/1/35 653/1/36
f 520/1/37 536/1/38 535/1/39 530/1/40
f 475/1/41 501/1/42 468/1/43 467/1/44
f 675/1/45 679/1/46 670/1/47 671/1/48
f 597/1/49 598/1/50 590/1/51 593/1/52
f 106/1/28 93/1/27 112/1/53 111/1/54
f 113/1/55 112/1/53 93/1/27 94/1/56
f 2/1/57 11/1/58 3/1/6 1/1/5
f 121/1/59 129/1/60 113/1/55 94/1/56
f 596/1/61 607/1/62 606/1/63 605/1/64
f 600/1/65 601/1/66 592/1/67 595/1/68
f 39/1/69 40/1/70 30/1/71 38/1/72
f 134/1/73 138/1/74 112/1/53 113/1/55
f 129/1/60 378/1/75 134/1/73 113/1/55
f 434/1/76 405/1/77 400/1/78 397/1/79
f 128/1/80 384/1/81 129/1/60 121/1/59
f 120/1/82 391/1/83 128/1/80 121/1/59
f 97/1/84 104/1/85 103/1/86 100/1/87
f 381/1/88 650/1/89 387/1/90 382/1/91
f 58/1/92 59/1/93 51/1/94 42/1/95
f 256/1/96 272/1/97 248/1/98 247/1/99
f 45/1/100 96/1/101 60/1/102 53/1/103
f 99/1/104 117/1/105 110/1/106 104/1/85
f 110/1/106 122/1/107 103/1/86 104/1/85
f 12/1/108 22/1/109 21/1/110 19/1/111
f 48/1/112 46/1/113 21/1/110 40/1/70
f 608/1/114 655/1/115 599/1/116 598/1/50
f 416/1/117 466/1/118 409/1/119 410/1/120
f 407/1/121 434/1/76 397/1/79 401/1/122
f 720/1/123 727/1/124 728/1/125 723/1/126
f 43/1/127 42/1/95 51/1/94
f 105/1/128 117/1/105 99/1/104 98/1/30
f 619/1/129 626/1/130 625/1/131 620/1/132
f 12/1/108 19/1/111 11/1/58 2/1/57
f 128/1/80 391/1/83 392/1/133 390/1/134
f 397/1/79 400/1/78 392/1/133 391/1/83
f 415/1/135 424/1/136 423/1/137 407/1/121
f 291/1/138 110/1/106 117/1/105 125/1/139
f 282/1/140 293/1/141 275/1/142 274/1/143
f 212/1/144 71/1/145 66/1/146 65/1/147
f 21/1/110 46/1/113 20/1/148 19/1/111
f 11/1/58 19/1/111 20/1/148 18/1/149
f 424/1/136 432/1/150 431/1/151 423/1/137
f 62/1/2 68/1/152 61/1/3
f 48/1/112 70/1/153 44/1/154 46/1/113
f 20/1/148 46/1/113 44/1/154 35/1/155
f 120/1/82 401/1/122 397/1/79 391/1/83
f 66/1/146 71/1/145 72/1/156
f 118/1/157 126/1/158 105/1/128 111/1/54
f 586/1/159 605/1/64 612/1/160 604/1/161
f 3/1/6 10/1/162 5/1/12 4/1/7
f 68/1/152 77/1/17 76/1/16
f 87/1/163 88/1/164 36/1/165 79/1/166
f 78/1/167 79/1/166 44/1/154 70/1/153
f 72/1/156 71/1/145 80/1/168
f 133/1/169 304/1/170 125/1/139 126/1/158
f 118/1/157 139/1/171 133/1/169 126/1/158
f 140/1/172 139/1/171 118/1/157 138/1/74
f 256/1/96 277/1/173 278/1/174 272/1/97
f 724/1/175 750/1/176 749/1/177 748/1/178
f 7/1/18 14/1/179 13/1/31 8/1/19
f 77/1/17 86/1/29 85/1/14
f 103/1/86 122/1/107 114/1/180 107/1/181
f 114/1/180 115/1/182 78/1/167 107/1/181
f 140/1/172 363/1/183 145/1/184 139/1/171
f 333/1/185 133/1/169 139/1/171 145/1/184
f 770/1/186 771/1/187 767/1/188 769/1/189
f 18/1/149 28/1/190 17/1/191 10/1/162
f 428/1/192 449/1/193 448/1/194 445/1/195
f 86/1/29 94/1/56 93/1/27
f 178/1/196 233/1/197 171/1/198 170/1/199
f 103/1/86 107/1/181 69/1/200 100/1/87
f 20/1/148 35/1/155 28/1/190 18/1/149
f 17/1/191 29/1/201 16/1/202 9/1/203
f 28/1/190 37/1/204 29/1/201 17/1/191
f 131/1/205 147/1/206 136/1/207 132/1/208
f 130/1/209 291/1/138 292/1/210 287/1/211
f 44/1/154 79/1/166 36/1/165 35/1/155
f 463/1/212 466/1/118 416/1/117 460/1/213
f 300/1/214 315/1/215 296/1/216 295/1/217
f 538/1/218 543/1/219 526/1/220 534/1/221
f 52/1/222 67/1/223 14/1/179 16/1/202
f 311/1/224 312/1/225 292/1/210 304/1/170
f 134/1/73 371/1/226 140/1/172 138/1/74
f 74/1/227 83/1/228 82/1/229 75/1/230
f 289/1/231 307/1/232 306/1/233 299/1/234
f 528/1/235 546/1/236 544/1/237 541/1/238
f 505/1/239 561/1/240 510/1/241 506/1/242
f 319/1/243 340/1/244 339/1/245 335/1/246
f 60/1/102 102/1/247 81/1/248 73/1/249
f 145/1/184 355/1/250 332/1/251 333/1/185
f 311/1/224 333/1/185 332/1/251 325/1/252
f 105/1/128 126/1/158 125/1/139 117/1/105
f 74/1/227 75/1/230 23/1/253 67/1/223
f 15/1/32 27/1/254 25/1/255 26/1/256
f 734/1/257 735/1/258 733/1/259 732/1/260
f 154/1/261 160/1/262 156/1/263 148/1/264
f 123/1/265 124/1/266 87/1/163 115/1/182
f 60/1/102 73/1/249 52/1/222 53/1/103
f 95/1/267 132/1/208 101/1/268 96/1/101
f 25/1/255 41/1/269 33/1/270 26/1/256
f 50/1/271 203/1/272 42/1/95 41/1/269
f 55/1/4 56/1/273 47/1/274 54/1/1
f 87/1/163 124/1/266 95/1/267 88/1/164
f 95/1/267 96/1/101 45/1/100 88/1/164
f 141/1/275 142/1/276 123/1/265 135/1/277
f 130/1/209 287/1/211 141/1/275 135/1/277
f 81/1/248 83/1/228 74/1/227 73/1/249
f 269/1/278 283/1/279 262/1/280 261/1/281
f 508/1/282 531/1/283 514/1/284 509/1/285
f 721/1/286 725/1/287 719/1/288 718/1/289
f 141/1/275 287/1/211 286/1/290 281/1/291
f 314/1/292 335/1/246 334/1/293 326/1/294
f 69/1/200 70/1/153 48/1/112 64/1/295
f 82/1/229 166/1/296 31/1/297 75/1/230
f 488/1/298 493/1/299 475/1/41 484/1/300
f 456/1/301 457/1/302 453/1/303 452/1/304
f 312/1/225 305/1/305 297/1/306 286/1/290
f 311/1/224 325/1/252 305/1/305 312/1/225
f 146/1/307 274/1/143 152/1/308 147/1/206
f 157/1/309 179/1/310 165/1/311 158/1/312
f 451/1/313 484/1/300 456/1/301 452/1/304
f 146/1/307 147/1/206 131/1/205 142/1/276
f 305/1/305 325/1/252 324/1/314 318/1/315
f 332/1/251 347/1/316 324/1/314 325/1/252
f 551/1/317 554/1/318 558/1/319 557/1/320
f 282/1/140 274/1/143 146/1/307 281/1/291
f 503/1/321 530/1/40 508/1/282 504/1/322
f 324/1/314 347/1/316 346/1/323 340/1/244
f 309/1/324 310/1/325 280/1/326 302/1/327
f 324/1/314 340/1/244 319/1/243 318/1/315
f 362/1/328 436/1/329 354/1/330 355/1/250
f 321/1/331 394/1/332 393/1/333 385/1/334
f 282/1/140 297/1/306 298/1/335 293/1/141
f 305/1/305 318/1/315 298/1/335 297/1/306
f 298/1/335 318/1/315 319/1/243 313/1/336
f 275/1/142 293/1/141 294/1/337 288/1/338
f 101/1/268 137/1/339 108/1/340 102/1/247
f 346/1/323 426/1/341 425/1/342 417/1/343
f 159/1/344 261/1/281 160/1/262 154/1/261
f 370/1/345 438/1/346 362/1/328 363/1/183
f 339/1/245 417/1/343 416/1/117 410/1/120
f 425/1/342 460/1/213 416/1/117 417/1/343
f 435/1/347 454/1/348 425/1/342 426/1/341
f 375/1/349 656/1/350 381/1/88 376/1/351
f 458/1/352 460/1/213 425/1/342 454/1/348
f 387/1/90 388/1/353 364/1/354 382/1/91
f 377/1/355 429/1/356 370/1/345 371/1/226
f 453/1/303 457/1/302 458/1/352 454/1/348
f 419/1/357 420/1/358 383/1/359 412/1/360
f 244/1/361 250/1/362 249/1/363 243/1/364
f 258/1/365 266/1/366 263/1/367 259/1/368
f 458/1/352 464/1/369 463/1/212 460/1/213
f 637/1/370 640/1/371 639/1/372 636/1/373
f 129/1/60 384/1/81 383/1/359 378/1/75
f 116/1/374 151/1/375 89/1/376 109/1/377
f 280/1/326 310/1/325 270/1/378 276/1/379
f 55/1/4 92/1/22 63/1/380 56/1/273
f 564/1/381 565/1/382 558/1/319 559/1/383
f 437/1/384 438/1/346 370/1/345 429/1/356
f 442/1/385 447/1/386 435/1/347 436/1/329
f 128/1/80 390/1/134 389/1/387 384/1/81
f 188/1/388 189/1/389 184/1/390 183/1/391
f 437/1/384 445/1/195 444/1/392 443/1/393
f 428/1/192 445/1/195 437/1/384 429/1/356
f 428/1/192 429/1/356 377/1/355 420/1/358
f 392/1/133 398/1/394 396/1/395 390/1/134
f 396/1/395 404/1/396 389/1/387 390/1/134
f 708/1/10 709/1/397 701/1/398 702/1/11
f 217/1/399 214/1/400 188/1/388 216/1/401
f 512/1/402 529/1/403 518/1/404 513/1/405
f 459/1/406 448/1/194 461/1/407 465/1/408
f 134/1/73 378/1/75 377/1/355 371/1/226
f 194/1/409 201/1/410 195/1/411
f 209/1/412 213/1/413 211/1/414 207/1/415
f 405/1/77 413/1/416 406/1/417 399/1/418
f 449/1/193 419/1/357 418/1/419 427/1/420
f 828/1/421 833/1/422 832/1/423 831/1/424
f 419/1/357 412/1/360 411/1/425 418/1/419
f 729/1/426 725/1/287 721/1/286 722/1/427
f 201/1/410 208/1/428 203/1/272
f 802/1/429 803/1/430 794/1/431 795/1/432
f 433/1/433 434/1/76 407/1/121 423/1/137
f 431/1/151 441/1/434 433/1/433 423/1/137
f 202/1/435 209/1/412 207/1/415
f 421/1/436 422/1/437 414/1/438 413/1/416
f 207/1/415 211/1/414 212/1/144
f 212/1/144 80/1/168 71/1/145
f 211/1/414 80/1/168 212/1/144
f 211/1/414 213/1/413 80/1/168
f 500/1/439 568/1/440 505/1/239 501/1/42
f 444/1/392 459/1/406 455/1/441 450/1/442
f 465/1/408 473/1/443 455/1/441 459/1/406
f 455/1/441 482/1/444 451/1/313 450/1/442
f 668/1/445 674/1/446 588/1/447 669/1/448
f 481/1/449 482/1/444 455/1/441 473/1/443
f 488/1/298 484/1/300 451/1/313 482/1/444
f 217/1/399 221/1/450 220/1/451 218/1/452
f 161/1/453 247/1/99 167/1/454 162/1/455
f 292/1/210 312/1/225 286/1/290 287/1/211
f 131/1/205 132/1/208 95/1/267 124/1/266
f 456/1/301 484/1/300 475/1/41 467/1/44
f 392/1/133 400/1/78 399/1/418 398/1/394
f 456/1/301 467/1/44 462/1/456 457/1/302
f 171/1/198 227/1/457 175/1/458 169/1/459
f 500/1/439 501/1/42 475/1/41 493/1/299
f 494/1/460 576/1/461 500/1/439 493/1/299
f 510/1/241 561/1/240 560/1/462 555/1/463
f 516/1/464 550/1/465 524/1/466 517/1/467
f 29/1/201 53/1/103 52/1/222 16/1/202
f 327/1/468 394/1/332 321/1/331 320/1/469
f 463/1/212 471/1/470 472/1/471 466/1/118
f 579/1/472 591/1/473 589/1/474 580/1/475
f 32/1/476 181/1/477 34/1/478 27/1/254
f 143/1/479 144/1/480 108/1/340 137/1/339
f 476/1/481 478/1/482 470/1/483 469/1/484
f 238/1/485 246/1/486 244/1/361 237/1/487
f 273/1/488 267/1/489 248/1/98 272/1/97
f 472/1/471 474/1/490 409/1/119 466/1/118
f 602/1/491 618/1/492 610/1/493 603/1/494
f 510/1/241 511/1/495 476/1/481 506/1/242
f 566/1/496 567/1/497 560/1/462 561/1/240
f 476/1/481 511/1/495 485/1/498 478/1/482
f 485/1/498 487/1/499 477/1/500 478/1/482
f 477/1/500 487/1/499 486/1/501 480/1/502
f 123/1/265 142/1/276 131/1/205 124/1/266
f 334/1/293 410/1/120 409/1/119 402/1/503
f 510/1/241 555/1/463 516/1/464 511/1/495
f 386/1/504 499/1/505 380/1/506 379/1/507
f 23/1/253 75/1/230 31/1/297 24/1/508
f 470/1/483 478/1/482 477/1/500 471/1/470
f 498/1/509 479/1/510 480/1/502 486/1/501
f 485/1/498 517/1/467 492/1/511 487/1/499
f 319/1/243 335/1/246 314/1/292 313/1/336
f 36/1/165 37/1/204 28/1/190 35/1/155
f 150/1/512 172/1/513 157/1/309 151/1/375
f 524/1/466 525/1/514 492/1/511 517/1/467
f 204/1/515 205/1/516 198/1/517 197/1/518
f 298/1/335 313/1/336 294/1/337 293/1/141
f 314/1/292 307/1/232 294/1/337 313/1/336
f 512/1/402 513/1/405 497/1/519 507/1/520
f 486/1/501 507/1/520 497/1/519 498/1/509
f 505/1/239 506/1/242 468/1/43 501/1/42
f 524/1/466 546/1/236 528/1/235 525/1/514
f 409/1/119 474/1/490 403/1/521 402/1/503
f 190/1/522 191/1/523 173/1/524 185/1/525
f 89/1/376 158/1/312 82/1/229 83/1/228
f 140/1/172 371/1/226 370/1/345 363/1/183
f 334/1/293 402/1/503 327/1/468 326/1/294
f 403/1/521 394/1/332 327/1/468 402/1/503
f 393/1/333 491/1/526 386/1/504 385/1/334
f 490/1/527 498/1/509 497/1/519 496/1/528
f 152/1/308 274/1/143 275/1/142 268/1/529
f 45/1/100 53/1/103 29/1/201 37/1/204
f 314/1/292 326/1/294 306/1/233 307/1/232
f 225/1/530 230/1/531 228/1/532 223/1/533
f 253/1/534 276/1/379 270/1/378 264/1/535
f 403/1/521 483/1/536 393/1/333 394/1/332
f 152/1/308 153/1/537 136/1/207 147/1/206
f 160/1/262 261/1/281 262/1/280 255/1/538
f 294/1/337 307/1/232 289/1/231 288/1/338
f 462/1/456 464/1/369 458/1/352 457/1/302
f 141/1/275 281/1/291 146/1/307 142/1/276
f 136/1/207 137/1/339 101/1/268 132/1/208
f 101/1/268 102/1/247 60/1/102 96/1/101
f 275/1/142 288/1/338 269/1/278 268/1/529
f 125/1/139 304/1/170 292/1/210 291/1/138
f 148/1/264 156/1/263 155/1/539 149/1/540
f 152/1/308 268/1/529 159/1/344 153/1/537
f 477/1/500 480/1/502 472/1/471 471/1/470
f 114/1/180 135/1/277 123/1/265 115/1/182
f 395/1/541 634/1/542 372/1/543 388/1/353
f 300/1/214 320/1/469 321/1/331 315/1/215
f 354/1/330 426/1/341 346/1/323 347/1/316
f 495/1/544 499/1/505 386/1/504 491/1/526
f 446/1/545 452/1/304 453/1/303 447/1/386
f 289/1/231 299/1/234 284/1/546 283/1/279
f 284/1/546 299/1/234 300/1/214 295/1/217
f 386/1/504 379/1/507 308/1/547 385/1/334
f 321/1/331 385/1/334 308/1/547 315/1/215
f 684/1/548 689/1/549 685/1/550 682/1/551
f 490/1/527 496/1/528 495/1/544 491/1/526
f 108/1/340 109/1/377 81/1/248 102/1/247
f 52/1/222 73/1/249 74/1/227 67/1/223
f 332/1/251 355/1/250 354/1/330 347/1/316
f 63/1/380 100/1/87 69/1/200 64/1/295
f 631/1/552 628/1/553 624/1/554 630/1/555
f 677/1/556 670/1/47 679/1/46 680/1/557
f 497/1/519 513/1/405 502/1/558 496/1/528
f 69/1/200 107/1/181 78/1/167 70/1/153
f 631/1/552 635/1/559 637/1/370 636/1/373
f 106/1/28 111/1/54 105/1/128 98/1/30
f 532/1/560 527/1/561 514/1/284 531/1/283
f 518/1/404 521/1/562 502/1/558 513/1/405
f 316/1/563 359/1/564 322/1/565 317/1/566
f 602/1/491 621/1/567 624/1/554 618/1/492
f 354/1/330 436/1/329 435/1/347 426/1/341
f 284/1/546 295/1/217 278/1/174 277/1/173
f 296/1/216 290/1/568 278/1/174 295/1/217
f 579/1/472 580/1/475 571/1/569 572/1/570
f 533/1/571 534/1/221 518/1/404 529/1/403
f 761/1/572 819/1/573 811/1/574 810/1/575
f 14/1/179 67/1/223 23/1/253 13/1/31
f 338/1/576 344/1/577 331/1/578 330/1/579
f 30/1/71 40/1/70 21/1/110 22/1/109
f 629/1/580 635/1/559 631/1/552 630/1/555
f 262/1/280 277/1/173 256/1/96 255/1/538
f 549/1/581 548/1/582 544/1/237 546/1/236
f 389/1/387 412/1/360 383/1/359 384/1/81
f 533/1/571 541/1/238 540/1/583 539/1/584
f 544/1/237 545/1/585 540/1/583 541/1/238
f 256/1/96 247/1/99 161/1/453 255/1/538
f 160/1/262 255/1/538 161/1/453 156/1/263
f 542/1/586 537/1/587 535/1/39 536/1/38
f 553/1/588 559/1/383 558/1/319 554/1/318
f 338/1/576 343/1/589 345/1/590
f 338/1/576 345/1/590 344/1/577
f 161/1/453 162/1/455 155/1/539 156/1/263
f 625/1/131 634/1/542 617/1/591 620/1/132
f 516/1/464 555/1/463 553/1/588 550/1/465
f 712/1/592 713/1/593 704/1/24 707/1/23
f 533/1/571 539/1/584 538/1/218 534/1/221
f 343/1/589 350/1/594 345/1/590
f 344/1/577 345/1/590 352/1/595
f 544/1/237 548/1/582 547/1/596 545/1/585
f 155/1/539 164/1/597 150/1/512 149/1/540
f 150/1/512 151/1/375 116/1/374 149/1/540
f 613/1/598 615/1/599 606/1/63 607/1/62
f 206/1/600 199/1/601 198/1/517 205/1/516
f 518/1/404 534/1/221 526/1/220 521/1/562
f 322/1/565 351/1/602 328/1/603 323/1/604
f 551/1/317 552/1/605 547/1/596 548/1/582
f 549/1/581 554/1/318 551/1/317 548/1/582
f 157/1/309 158/1/312 89/1/376 151/1/375
f 383/1/359 420/1/358 377/1/355 378/1/75
f 566/1/496 568/1/440 575/1/606 574/1/607
f 500/1/439 576/1/461 575/1/606 568/1/440
f 829/1/608 833/1/422 828/1/421 827/1/609
f 502/1/558 521/1/562 520/1/37 519/1/610
f 715/1/611 716/1/612 708/1/10 710/1/9
f 566/1/496 574/1/607 573/1/613 567/1/497
f 165/1/311 166/1/296 82/1/229 158/1/312
f 643/1/614 649/1/615 608/1/114 644/1/616
f 583/1/617 584/1/618 575/1/606 576/1/461
f 494/1/460 585/1/619 583/1/617 576/1/461
f 712/1/592 722/1/427 721/1/286 713/1/593
f 437/1/384 443/1/393 442/1/385 438/1/346
f 271/1/620 329/1/621 263/1/367 266/1/366
f 560/1/462 567/1/497 564/1/381 559/1/383
f 173/1/524 174/1/622 31/1/297 166/1/296
f 240/1/623 241/1/624 178/1/196 239/1/625
f 153/1/537 159/1/344 154/1/261 143/1/479
f 503/1/321 504/1/322 380/1/506 499/1/505
f 564/1/381 567/1/497 573/1/613 572/1/570
f 581/1/626 593/1/52 590/1/51 582/1/627
f 173/1/524 191/1/523 180/1/628 174/1/622
f 528/1/235 529/1/403 512/1/402 525/1/514
f 273/1/488 290/1/568 285/1/629 279/1/630
f 380/1/506 373/1/631 303/1/632 379/1/507
f 575/1/606 584/1/618 581/1/626 574/1/607
f 581/1/626 582/1/627 573/1/613 574/1/607
f 224/1/633 221/1/450 219/1/634 223/1/533
f 180/1/628 199/1/601 186/1/635 181/1/477
f 632/1/636 641/1/637 232/1/638 633/1/639
f 296/1/216 301/1/640 285/1/629 290/1/568
f 285/1/629 301/1/640 303/1/632 302/1/327
f 586/1/159 604/1/161 594/1/641 585/1/619
f 583/1/617 595/1/68 592/1/67 584/1/618
f 31/1/297 174/1/622 32/1/476 24/1/508
f 719/1/288 720/1/123 711/1/642 718/1/289
f 25/1/255 49/1/643 50/1/271 41/1/269
f 714/1/644 718/1/289 711/1/642 706/1/645
f 194/1/409 195/1/411 57/1/646 193/1/647
f 286/1/290 297/1/306 282/1/140 281/1/291
f 553/1/588 555/1/463 560/1/462 559/1/383
f 201/1/410 203/1/272 50/1/271 195/1/411
f 399/1/418 400/1/78 405/1/77
f 790/1/648 794/1/431 789/1/649 786/1/650
f 42/1/95 43/1/127 33/1/270 41/1/269
f 65/1/147 66/1/146 59/1/93 58/1/92
f 395/1/541 642/1/651 643/1/614 638/1/652
f 612/1/160 621/1/567 602/1/491 604/1/161
f 206/1/600 200/1/653 186/1/635 199/1/601
f 406/1/417 413/1/416 414/1/438
f 408/1/654 415/1/135 407/1/121
f 167/1/454 247/1/99 248/1/98 239/1/625
f 269/1/278 261/1/281 159/1/344 268/1/529
f 9/1/203 16/1/202 14/1/179 7/1/18
f 198/1/517 199/1/601 180/1/628 191/1/523
f 703/1/8 702/1/11 694/1/655 695/1/656
f 208/1/428 212/1/144 65/1/147 58/1/92
f 606/1/63 614/1/657 612/1/160 605/1/64
f 39/1/69 64/1/295 48/1/112 40/1/70
f 184/1/390 189/1/389 190/1/522 185/1/525
f 659/1/658 667/1/659 668/1/445 662/1/660
f 190/1/522 197/1/518 198/1/517 191/1/523
f 422/1/437 421/1/436 430/1/661
f 808/1/662 814/1/663 805/1/664 799/1/665
f 127/1/666 408/1/654 407/1/121 401/1/122
f 207/1/415 212/1/144 208/1/428 201/1/410
f 433/1/433 441/1/434 413/1/416 405/1/77
f 434/1/76 433/1/433 405/1/77
f 168/1/667 172/1/513 150/1/512 164/1/597
f 468/1/43 469/1/484 462/1/456 467/1/44
f 186/1/635 187/1/668 34/1/478 181/1/477
f 516/1/464 517/1/467 485/1/498 511/1/495
f 432/1/150 439/1/669 440/1/670
f 439/1/669 430/1/661 440/1/670
f 691/1/671 696/1/672 688/1/673 686/1/674
f 441/1/434 421/1/436 413/1/416
f 441/1/434 430/1/661 421/1/436
f 440/1/670 430/1/661 441/1/434
f 177/1/675 179/1/310 157/1/309 172/1/513
f 184/1/390 179/1/310 177/1/675 183/1/391
f 177/1/675 172/1/513 168/1/667 176/1/676
f 502/1/558 519/1/610 495/1/544 496/1/528
f 182/1/677 183/1/391 177/1/675 176/1/676
f 182/1/677 216/1/401 188/1/388 183/1/391
f 196/1/678 197/1/518 190/1/522 189/1/389
f 188/1/388 214/1/400 196/1/678 189/1/389
f 196/1/678 210/1/679 204/1/515 197/1/518
f 182/1/677 222/1/680 219/1/634 216/1/401
f 175/1/458 176/1/676 168/1/667 169/1/459
f 175/1/458 222/1/680 182/1/677 176/1/676
f 322/1/565 359/1/564 358/1/681 351/1/602
f 419/1/357 449/1/193 428/1/192 420/1/358
f 225/1/530 223/1/533 219/1/634 222/1/680
f 175/1/458 227/1/457 225/1/530 222/1/680
f 171/1/198 169/1/459 163/1/682 170/1/199
f 262/1/280 283/1/279 284/1/546 277/1/173
f 470/1/483 464/1/369 462/1/456 469/1/484
f 171/1/198 233/1/197 231/1/683 227/1/457
f 612/1/160 614/1/657 622/1/684 621/1/567
f 167/1/454 239/1/625 178/1/196 170/1/199
f 215/1/685 210/1/679 196/1/678 214/1/400
f 489/1/686 494/1/460 493/1/299 488/1/298
f 231/1/683 237/1/487 236/1/687 230/1/531
f 231/1/683 233/1/197 238/1/485 237/1/487
f 178/1/196 241/1/624 238/1/485 233/1/197
f 327/1/468 320/1/469 306/1/233 326/1/294
f 470/1/483 471/1/470 463/1/212 464/1/369
f 236/1/687 234/1/688 228/1/532 230/1/531
f 609/1/689 644/1/616 597/1/49 601/1/66
f 184/1/390 185/1/525 165/1/311 179/1/310
f 244/1/361 243/1/364 236/1/687 237/1/487
f 245/1/690 246/1/486 238/1/485 241/1/624
f 240/1/623 252/1/691 245/1/690 241/1/624
f 240/1/623 267/1/489 260/1/692 252/1/691
f 273/1/488 279/1/630 260/1/692 267/1/489
f 703/1/8 706/1/645 711/1/642 710/1/9
f 145/1/184 363/1/183 362/1/328 355/1/250
f 163/1/682 164/1/597 155/1/539 162/1/455
f 600/1/65 611/1/693 609/1/689 601/1/66
f 296/1/216 315/1/215 308/1/547 301/1/640
f 224/1/633 226/1/694 220/1/451 221/1/450
f 228/1/532 229/1/695 224/1/633 223/1/533
f 446/1/545 447/1/386 442/1/385 443/1/393
f 260/1/692 279/1/630 280/1/326 276/1/379
f 285/1/629 302/1/327 280/1/326 279/1/630
f 253/1/534 264/1/535 258/1/365 254/1/696
f 258/1/365 259/1/368 251/1/697 254/1/696
f 229/1/695 232/1/638 226/1/694 224/1/633
f 375/1/349 376/1/351 348/1/698 369/1/699
f 303/1/632 373/1/631 309/1/324 302/1/327
f 479/1/510 498/1/509 490/1/527 483/1/536
f 163/1/682 169/1/459 168/1/667 164/1/597
f 57/1/646 195/1/411 50/1/271 49/1/643
f 505/1/239 568/1/440 566/1/496 561/1/240
f 571/1/569 580/1/475 577/1/700 570/1/701
f 309/1/324 367/1/702 316/1/563 310/1/325
f 594/1/641 595/1/68 583/1/617 585/1/619
f 309/1/324 373/1/631 374/1/703 367/1/702
f 236/1/687 243/1/364 242/1/704 234/1/688
f 242/1/704 357/1/705 235/1/706 234/1/688
f 251/1/697 250/1/362 244/1/361 246/1/486
f 508/1/282 509/1/285 374/1/703 504/1/322
f 108/1/340 144/1/480 116/1/374 109/1/377
f 249/1/363 349/1/707 242/1/704 243/1/364
f 265/1/708 266/1/366 258/1/365 264/1/535
f 316/1/563 317/1/566 270/1/378 310/1/325
f 535/1/39 531/1/283 508/1/282 530/1/40
f 657/1/33 665/1/709 664/1/710 658/1/34
f 251/1/697 259/1/368 257/1/711 250/1/362
f 91/1/20 97/1/84 92/1/22 84/1/21
f 322/1/565 323/1/604 265/1/708 317/1/566
f 448/1/194 459/1/406 444/1/392 445/1/195
f 219/1/634 221/1/450 217/1/399 216/1/401
f 374/1/703 509/1/285 366/1/712 367/1/702
f 551/1/317 557/1/320 556/1/713 552/1/605
f 364/1/354 388/1/353 372/1/543 365/1/714
f 523/1/715 345/1/590 350/1/594
f 522/1/716 345/1/590 523/1/715
f 263/1/367 337/1/717 257/1/711 259/1/368
f 451/1/313 452/1/304 446/1/545 450/1/442
f 683/1/718 686/1/674 684/1/548 682/1/551
f 366/1/712 515/1/719 358/1/681 359/1/564
f 522/1/716 527/1/561 345/1/590
f 492/1/511 525/1/514 512/1/402 507/1/520
f 265/1/708 323/1/604 271/1/620 266/1/366
f 535/1/39 537/1/587 532/1/560 531/1/283
f 527/1/561 532/1/560 345/1/590
f 328/1/603 330/1/579 271/1/620 323/1/604
f 270/1/378 317/1/566 265/1/708 264/1/535
f 514/1/284 515/1/719 366/1/712 509/1/285
f 136/1/207 153/1/537 143/1/479 137/1/339
f 592/1/67 593/1/52 581/1/626 584/1/618
f 532/1/560 537/1/587 345/1/590
f 358/1/681 523/1/715 350/1/594 351/1/602
f 590/1/51 591/1/473 579/1/472 582/1/627
f 538/1/218 539/1/584 345/1/590
f 444/1/392 450/1/442 446/1/545 443/1/393
f 539/1/584 540/1/583 345/1/590
f 514/1/284 527/1/561 522/1/716 515/1/719
f 537/1/587 542/1/586 345/1/590
f 522/1/716 523/1/715 358/1/681 515/1/719
f 538/1/218 345/1/590 543/1/219
f 542/1/586 543/1/219 345/1/590
f 352/1/595 353/1/720 331/1/578 344/1/577
f 331/1/578 329/1/621 271/1/620 330/1/579
f 540/1/583 545/1/585 345/1/590
f 148/1/264 149/1/540 116/1/374 144/1/480
f 545/1/585 547/1/596 345/1/590
f 520/1/37 530/1/40 503/1/321 519/1/610
f 336/1/721 337/1/717 263/1/367 329/1/621
f 257/1/711 342/1/722 249/1/363 250/1/362
f 143/1/479 154/1/261 148/1/264 144/1/480
f 547/1/596 552/1/605 345/1/590
f 336/1/721 361/1/723 341/1/724 337/1/717
f 341/1/724 342/1/722 257/1/711 337/1/717
f 552/1/605 556/1/713 345/1/590
f 360/1/725 676/1/726 675/1/45 671/1/48
f 360/1/725 671/1/48 368/1/727 361/1/723
f 368/1/727 369/1/699 341/1/724 361/1/723
f 341/1/724 369/1/699 348/1/698 342/1/722
f 348/1/698 349/1/707 249/1/363 342/1/722
f 564/1/381 572/1/570 571/1/569 565/1/382
f 13/1/31 23/1/253 24/1/508 15/1/32
f 556/1/713 563/1/728 345/1/590
f 490/1/527 491/1/526 393/1/333 483/1/536
f 368/1/727 663/1/729 375/1/349 369/1/699
f 356/1/730 357/1/705 242/1/704 349/1/707
f 348/1/698 376/1/351 356/1/730 349/1/707
f 633/1/639 232/1/638 365/1/714 372/1/543
f 563/1/728 569/1/731 345/1/590
f 670/1/47 677/1/556 660/1/732 663/1/729
f 375/1/349 663/1/729 660/1/732 656/1/350
f 590/1/51 598/1/50 599/1/116 591/1/473
f 381/1/88 382/1/91 356/1/730 376/1/351
f 589/1/474 669/1/448 577/1/700 580/1/475
f 735/1/258 737/1/733 736/1/734 733/1/259
f 660/1/732 677/1/556 666/1/735 661/1/736
f 571/1/569 570/1/701 562/1/737 565/1/382
f 569/1/731 578/1/738 345/1/590
f 381/1/88 656/1/350 654/1/739 650/1/89
f 660/1/732 661/1/736 654/1/739 656/1/350
f 453/1/303 454/1/348 435/1/347 447/1/386
f 632/1/636 645/1/740 647/1/741 641/1/637
f 47/1/274 56/1/273 39/1/69 38/1/72
f 180/1/628 181/1/477 32/1/476 174/1/622
f 806/1/742 807/1/743 797/1/744 805/1/664
f 578/1/738 588/1/447 345/1/590
f 368/1/727 671/1/48 670/1/47 663/1/729
f 654/1/739 661/1/736 657/1/33 653/1/36
f 666/1/735 665/1/709 657/1/33 661/1/736
f 654/1/739 653/1/36 648/1/745 650/1/89
f 387/1/90 650/1/89 648/1/745 642/1/651
f 387/1/90 642/1/651 395/1/541 388/1/353
f 225/1/530 227/1/457 231/1/683 230/1/531
f 632/1/636 633/1/639 625/1/131 626/1/130
f 372/1/543 634/1/542 625/1/131 633/1/639
f 308/1/547 379/1/507 303/1/632 301/1/640
f 253/1/534 254/1/696 245/1/690 252/1/691
f 648/1/745 649/1/615 643/1/614 642/1/651
f 524/1/466 550/1/465 549/1/581 546/1/236
f 648/1/745 653/1/36 652/1/35 649/1/615
f 99/1/104 104/1/85 97/1/84 91/1/20
f 395/1/541 638/1/652 617/1/591 634/1/542
f 165/1/311 185/1/525 173/1/524 166/1/296
f 639/1/372 651/1/746 647/1/741 645/1/740
f 652/1/35 655/1/115 608/1/114 649/1/615
f 306/1/233 320/1/469 300/1/214 299/1/234
f 617/1/591 638/1/652 609/1/689 611/1/693
f 643/1/614 644/1/616 609/1/689 638/1/652
f 248/1/98 267/1/489 240/1/623 239/1/625
f 619/1/129 620/1/132 610/1/493 618/1/492
f 619/1/129 628/1/553 627/1/747 626/1/130
f 627/1/747 645/1/740 632/1/636 626/1/130
f 639/1/372 645/1/740 627/1/747 636/1/373
f 646/1/748 651/1/746 639/1/372 640/1/371
f 167/1/454 170/1/199 163/1/682 162/1/455
f 610/1/493 611/1/693 600/1/65 603/1/494
f 380/1/506 504/1/322 374/1/703 373/1/631
f 36/1/165 88/1/164 45/1/100 37/1/204
f 631/1/552 636/1/373 627/1/747 628/1/553
f 130/1/209 135/1/277 114/1/180 122/1/107
f 624/1/554 628/1/553 619/1/129 618/1/492
f 110/1/106 291/1/138 130/1/209 122/1/107
f 269/1/278 288/1/338 289/1/231 283/1/279
f 594/1/641 604/1/161 602/1/491 603/1/494
f 594/1/641 603/1/494 600/1/65 595/1/68
f 133/1/169 333/1/185 311/1/224 304/1/170
f 97/1/84 100/1/87 63/1/380 92/1/22
f 622/1/684 630/1/555 624/1/554 621/1/567
f 339/1/245 410/1/120 334/1/293 335/1/246
f 629/1/580 630/1/555 622/1/684 623/1/749
f 659/1/658 662/1/660 599/1/116 655/1/115
f 664/1/710 678/1/750 673/1/751 667/1/659
f 494/1/460 587/1/752 586/1/159 585/1/619
f 63/1/380 64/1/295 39/1/69 56/1/273
f 245/1/690 254/1/696 251/1/697 246/1/486
f 616/1/753 623/1/749 622/1/684 614/1/657
f 346/1/323 417/1/343 339/1/245 340/1/244
f 606/1/63 615/1/599 616/1/753 614/1/657
f 592/1/67 601/1/66 597/1/49 593/1/52
f 610/1/493 620/1/132 617/1/591 611/1/693
f 644/1/616 608/1/114 598/1/50 597/1/49
f 526/1/220 543/1/219 542/1/586 536/1/38
f 81/1/248 109/1/377 89/1/376 83/1/228
f 596/1/61 605/1/64 586/1/159 587/1/752
f 360/1/725 361/1/723 336/1/721 353/1/720
f 112/1/53 138/1/74 118/1/157 111/1/54
f 519/1/610 503/1/321 499/1/505 495/1/544
f 278/1/174 290/1/568 273/1/488 272/1/97
f 528/1/235 541/1/238 533/1/571 529/1/403
f 427/1/420 461/1/407 448/1/194 449/1/193
f 411/1/425 412/1/360 389/1/387 404/1/396
f 599/1/116 662/1/660 589/1/474 591/1/473
f 472/1/471 480/1/502 479/1/510 474/1/490
f 652/1/35 658/1/34 659/1/658 655/1/115
f 328/1/603 343/1/589 338/1/576 330/1/579
f 573/1/613 582/1/627 579/1/472 572/1/570
f 668/1/445 669/1/448 589/1/474 662/1/660
f 492/1/511 507/1/520 486/1/501 487/1/499
f 328/1/603 351/1/602 350/1/594 343/1/589
f 316/1/563 367/1/702 366/1/712 359/1/564
f 664/1/710 667/1/659 659/1/658 658/1/34
f 98/1/30 99/1/104 91/1/20 90/1/15
f 672/1/754 678/1/750 664/1/710 665/1/709
f 235/1/706 229/1/695 228/1/532 234/1/688
f 558/1/319 565/1/382 562/1/737 557/1/320
f 669/1/448 588/1/447 578/1/738 577/1/700
f 553/1/588 554/1/318 549/1/581 550/1/465
f 479/1/510 483/1/536 403/1/521 474/1/490
f 673/1/751 674/1/446 668/1/445 667/1/659
f 673/1/751 345/1/590 674/1/446
f 588/1/447 674/1/446 345/1/590
f 562/1/737 563/1/728 556/1/713 557/1/320
f 352/1/595 676/1/726 360/1/725 353/1/720
f 675/1/45 676/1/726 345/1/590
f 352/1/595 345/1/590 676/1/726
f 673/1/751 678/1/750 345/1/590
f 345/1/590 678/1/750 672/1/754
f 675/1/45 345/1/590 679/1/46
f 562/1/737 570/1/701 569/1/731 563/1/728
f 577/1/700 578/1/738 569/1/731 570/1/701
f 345/1/590 680/1/557 679/1/46
f 345/1/590 681/1/755 680/1/557
f 345/1/590 672/1/754 681/1/755
f 787/1/756 792/1/757 788/1/758 785/1/759
f 786/1/650 789/1/649 787/1/756 785/1/759
f 683/1/718 687/1/760 686/1/674
f 684/1/548 686/1/674 688/1/673
f 684/1/548 688/1/673 689/1/549
f 24/1/508 32/1/476 27/1/254 15/1/32
f 798/1/761 792/1/757 791/1/762 797/1/744
f 687/1/760 691/1/671 686/1/674
f 687/1/760 692/1/763 691/1/671
f 687/1/760 693/1/764 692/1/763
f 688/1/673 694/1/655 689/1/549
f 688/1/673 695/1/656 694/1/655
f 691/1/671 692/1/763 696/1/672
f 688/1/673 697/1/765 695/1/656
f 11/1/58 18/1/149 10/1/162 3/1/6
f 690/1/766 694/1/655 698/1/767
f 809/1/768 801/1/769 800/1/770 807/1/743
f 692/1/763 700/1/25 696/1/672
f 804/1/771 796/1/772 794/1/431 803/1/430
f 34/1/478 49/1/643 25/1/255 27/1/254
f 799/1/665 805/1/664 797/1/744 791/1/762
f 127/1/666 401/1/122 120/1/82 119/1/773
f 815/1/774 809/1/768 807/1/743 806/1/742
f 811/1/574 812/1/775 804/1/771 803/1/430
f 811/1/574 803/1/430 802/1/429 810/1/575
f 804/1/771 812/1/775 813/1/776 808/1/662
f 806/1/742 817/1/777 816/1/778 815/1/774
f 729/1/426 730/1/779 726/1/780 725/1/287
f 813/1/776 820/1/781 814/1/663 808/1/662
f 818/1/782 822/1/783 813/1/776 812/1/775
f 811/1/574 819/1/573 818/1/782 812/1/775
f 331/1/578 353/1/720 336/1/721 329/1/621
f 813/1/776 822/1/783 821/1/784 820/1/781
f 823/1/785 824/1/786 816/1/778 817/1/777
f 821/1/784 826/1/787 823/1/785 820/1/781
f 814/1/663 817/1/777 806/1/742 805/1/664
f 715/1/611 720/1/123 723/1/126
f 716/1/612 724/1/175 717/1/788
f 715/1/611 724/1/175 716/1/612
f 715/1/611 723/1/126 724/1/175
f 821/1/784 827/1/609 828/1/421 826/1/787
f 719/1/288 727/1/124 720/1/123
f 829/1/608 827/1/609 822/1/783 825/1/789
f 726/1/780 727/1/124 719/1/288 725/1/287
f 723/1/126 728/1/125 724/1/175
f 828/1/421 831/1/424 830/1/790 826/1/787
f 823/1/785 826/1/787 830/1/790 824/1/786
f 680/1/557 681/1/755 666/1/735 677/1/556
f 728/1/125 732/1/260 733/1/259
f 731/1/791 734/1/257 732/1/260
f 834/1/792 836/1/793 835/1/794 833/1/422
f 837/1/795 838/1/796 836/1/793 834/1/792
f 736/1/734 737/1/733 738/1/797
f 736/1/734 738/1/797 739/1/798
f 738/1/797 740/1/799 739/1/798
f 739/1/798 740/1/799 741/1/800
f 739/1/798 741/1/800 742/1/801
f 739/1/798 742/1/801 743/1/802
f 717/1/788 724/1/175 744/1/803
f 724/1/175 745/1/804 744/1/803
f 724/1/175 746/1/805 747/1/806
f 724/1/175 747/1/806 745/1/804
f 724/1/175 748/1/178 746/1/805
f 754/1/807 760/1/808 755/1/809 750/1/176
f 749/1/177 750/1/176 751/1/810
f 750/1/176 752/1/811 753/1/812
f 750/1/176 753/1/812 751/1/810
f 217/1/399 218/1/452 215/1/685 214/1/400
f 750/1/176 755/1/809 752/1/811
f 754/1/807 756/1/813 757/1/814
f 754/1/807 757/1/814 758/1/815
f 754/1/807 758/1/815 759/1/816
f 754/1/807 759/1/816 760/1/808
f 754/1/807 761/1/572 756/1/813
f 743/1/802 762/1/817 739/1/798
f 762/1/817 763/1/818 739/1/798
f 739/1/798 763/1/818 764/1/819
f 739/1/798 764/1/819 765/1/820
f 764/1/819 766/1/821 765/1/820
f 192/1/822 193/1/647 57/1/646 187/1/668
f 766/1/821 768/1/823 769/1/189
f 766/1/821 769/1/189 767/1/188 765/1/820
f 768/1/823 772/1/824 773/1/825
f 768/1/823 773/1/825 774/1/826
f 768/1/823 774/1/826 769/1/189
f 769/1/189 774/1/826 775/1/827
f 773/1/825 775/1/827 774/1/826
f 769/1/189 775/1/827 770/1/186
f 770/1/186 776/1/828 771/1/187
f 771/1/187 776/1/828 777/1/829
f 772/1/824 778/1/830 773/1/825
f 772/1/824 779/1/831 778/1/830
f 773/1/825 778/1/830 780/1/832
f 773/1/825 780/1/832 775/1/827
f 776/1/828 781/1/833 777/1/829
f 777/1/829 781/1/833 782/1/834
f 777/1/829 782/1/834 783/1/835
f 778/1/830 784/1/836 780/1/832
f 260/1/692 276/1/379 253/1/534 252/1/691
f 186/1/635 200/1/653 192/1/822 187/1/668
f 689/1/549 694/1/655 690/1/766 685/1/550
f 787/1/756 789/1/649 791/1/762
f 787/1/756 791/1/762 792/1/757
f 788/1/758 792/1/757 793/1/837
f 789/1/649 794/1/431 791/1/762
f 790/1/648 795/1/432 794/1/431
f 791/1/762 794/1/431 796/1/772
f 804/1/771 808/1/662 799/1/665 796/1/772
f 792/1/757 798/1/761 793/1/837
f 791/1/762 796/1/772 799/1/665
f 696/1/672 705/1/838 697/1/765 688/1/673
f 798/1/761 797/1/744 800/1/770
f 793/1/837 798/1/761 800/1/770
f 793/1/837 800/1/770 801/1/769
f 694/1/655 702/1/11 701/1/398 698/1/767
f 697/1/765 706/1/645 703/1/8 695/1/656
f 203/1/272 208/1/428 58/1/92 42/1/95
f 704/1/24 705/1/838 696/1/672 700/1/25
f 797/1/744 807/1/743 800/1/770
f 705/1/838 714/1/644 706/1/645 697/1/765
f 364/1/354 365/1/714 235/1/706 357/1/705
f 202/1/435 207/1/415 201/1/410 194/1/409
f 481/1/449 489/1/686 488/1/298 482/1/444
f 717/1/788 709/1/397 708/1/10 716/1/612
f 235/1/706 365/1/714 232/1/638 229/1/695
f 120/1/82 121/1/59 94/1/56 119/1/773
f 714/1/644 705/1/838 704/1/24 713/1/593
f 711/1/642 720/1/123 715/1/611 710/1/9
f 666/1/735 681/1/755 672/1/754 665/1/709
f 10/1/162 17/1/191 9/1/203 5/1/12
f 362/1/328 438/1/346 442/1/385 436/1/329
f 761/1/572 754/1/807 819/1/573
f 818/1/782 819/1/573 754/1/807
f 699/1/26 700/1/25 692/1/763 693/1/764
f 814/1/663 820/1/781 823/1/785 817/1/777
f 468/1/43 506/1/242 476/1/481 469/1/484
f 721/1/286 718/1/289 714/1/644 713/1/593
f 818/1/782 825/1/789 822/1/783
f 818/1/782 754/1/807 825/1/789
f 821/1/784 822/1/783 827/1/609
f 356/1/730 382/1/91 364/1/354 357/1/705
f 440/1/670 441/1/434 431/1/151 432/1/150
f 726/1/780 732/1/260 728/1/125 727/1/124
f 754/1/807 829/1/608 825/1/789
f 5/1/12 9/1/203 7/1/18 6/1/13
f 526/1/220 536/1/38 520/1/37 521/1/562
f 731/1/791 732/1/260 726/1/780 730/1/779
f 829/1/608 834/1/792 833/1/422
f 832/1/423 833/1/422 835/1/794
f 76/1/16 84/1/21 61/1/3 68/1/152
f 34/1/478 187/1/668 57/1/646 49/1/643
f 837/1/795 777/1/829 839/1/839
f 837/1/795 839/1/839 838/1/796
f 777/1/829 840/1/840 839/1/839
f 777/1/829 841/1/841 840/1/840
f 777/1/829 783/1/835 842/1/842
f 777/1/829 842/1/842 841/1/841
f 78/1/167 115/1/182 87/1/163 79/1/166
