# Blender 4.3.2
# www.blender.org
o hair.017
v 8.110738 1.338296 -0.025211
v 8.107022 1.339152 -0.021319
v 8.108427 1.342120 -0.020791
v 8.111975 1.341298 -0.024377
v 8.116135 1.340989 -0.026451
v 8.115308 1.338179 -0.027573
v 8.109626 1.334696 -0.026088
v 8.113333 1.344123 -0.023238
v 8.105363 1.335297 -0.021998
v 8.103594 1.339944 -0.016469
v 8.105322 1.342974 -0.016442
v 8.103908 1.331001 -0.023071
v 8.101797 1.335966 -0.016499
v 8.108739 1.330969 -0.026635
v 8.113927 1.330778 -0.029660
v 8.114587 1.334654 -0.028725
v 8.101457 1.340599 -0.012340
v 8.103146 1.343788 -0.012629
v 8.107144 1.345730 -0.016267
v 8.100155 1.331629 -0.015182
v 8.099849 1.336292 -0.012129
v 8.108421 1.325946 -0.026974
v 8.113383 1.325483 -0.030118
v 8.119487 1.334530 -0.030319
v 8.119144 1.330393 -0.031232
v 8.099774 1.341049 -0.007982
v 8.109937 1.345015 -0.020151
v 8.097228 1.320782 -0.010014
v 8.097105 1.331765 -0.009196
v 8.098230 1.336519 -0.007652
v 8.124750 1.330369 -0.031690
v 8.118905 1.325468 -0.031669
v 8.119913 1.337977 -0.029094
v 8.120395 1.340845 -0.027754
v 8.103908 1.310456 -0.022006
v 8.097907 1.315322 -0.017064
v 8.099277 1.341384 -0.004764
v 8.097953 1.340751 0.001713
v 8.124750 1.337842 -0.029548
v 8.117017 1.343723 -0.025190
v 8.120930 1.343408 -0.026145
v 8.099469 1.308043 -0.004247
v 8.112840 1.320188 -0.030576
v 8.124750 1.334449 -0.030777
v 8.118280 1.346393 -0.023197
v 8.121512 1.345917 -0.024109
v 8.124750 1.343248 -0.026508
v 8.101853 1.299132 -0.011666
v 8.093889 1.314544 0.000261
v 8.096564 1.327102 -0.003694
v 8.130013 1.334530 -0.030319
v 8.124750 1.340689 -0.028168
v 8.112840 1.307139 -0.029112
v 8.113514 1.296440 -0.014100
v 8.096024 1.319764 0.004826
v 8.092909 1.333422 0.002626
v 8.129587 1.337977 -0.029094
v 8.129106 1.340845 -0.027754
v 8.124750 1.308103 -0.028421
v 8.124750 1.291596 -0.018303
v 8.119267 1.320459 -0.031560
v 8.096287 1.317588 0.006886
v 8.097239 1.328155 0.010000
v 8.097953 1.335529 0.015266
v 8.134192 1.338179 -0.027573
v 8.135986 1.296440 -0.014100
v 8.124750 1.320198 -0.031899
v 8.124750 1.325462 -0.032128
v 8.097803 1.324521 0.013351
v 8.097799 1.318173 0.012800
v 8.096807 1.315310 0.009485
v 8.098621 1.331824 0.017425
v 8.136661 1.307139 -0.029112
v 8.145593 1.310456 -0.022006
v 8.147647 1.299132 -0.011666
v 8.130595 1.325468 -0.031669
v 8.130234 1.320459 -0.031560
v 8.130356 1.330393 -0.031232
v 8.097639 1.312830 0.013160
v 8.098260 1.315480 0.014564
v 8.136661 1.320188 -0.030576
v 8.150031 1.308043 -0.004247
v 8.136117 1.325483 -0.030118
v 8.134913 1.334654 -0.028725
v 8.135573 1.330778 -0.029660
v 8.098737 1.310248 0.017373
v 8.098986 1.315515 0.017373
v 8.099035 1.320387 0.017636
v 8.141079 1.325946 -0.026974
v 8.140761 1.330969 -0.026635
v 8.139874 1.334696 -0.026088
v 8.133366 1.340989 -0.026451
v 8.138762 1.338296 -0.025211
v 8.099224 1.324468 0.018426
v 8.145593 1.331001 -0.023071
v 8.151593 1.315322 -0.017064
v 8.144137 1.335297 -0.021998
v 8.142478 1.339152 -0.021319
v 8.128571 1.343408 -0.026145
v 8.141073 1.342120 -0.020791
v 8.137526 1.341298 -0.024377
v 8.099483 1.328155 0.019480
v 8.152272 1.320782 -0.010014
v 8.155611 1.314544 0.000261
v 8.147703 1.335966 -0.016499
v 8.145906 1.339944 -0.016469
v 8.144178 1.342974 -0.016442
v 8.127988 1.345917 -0.024109
v 8.132483 1.343723 -0.025190
v 8.136168 1.344123 -0.023238
v 8.152936 1.327102 -0.003694
v 8.153477 1.319764 0.004826
v 8.146355 1.343788 -0.012629
v 8.148044 1.340599 -0.012340
v 8.142356 1.345730 -0.016267
v 8.131220 1.346393 -0.023197
v 8.134361 1.347073 -0.021550
v 8.137271 1.347705 -0.019077
v 8.139564 1.345015 -0.020151
v 8.152395 1.331765 -0.009196
v 8.156591 1.333422 0.002626
v 8.152262 1.328155 0.010000
v 8.153214 1.317588 0.006886
v 8.139941 1.348258 -0.015962
v 8.144646 1.346434 -0.012451
v 8.129956 1.348707 -0.020823
v 8.134750 1.349888 -0.017623
v 8.151547 1.340751 0.001713
v 8.151547 1.335529 0.015266
v 8.149345 1.331629 -0.015182
v 8.124750 1.345780 -0.024436
v 8.124750 1.348275 -0.021916
v 8.127369 1.348368 -0.021626
v 8.150320 1.338919 0.015815
v 8.150284 1.335381 0.019278
v 8.150879 1.331824 0.017425
v 8.149652 1.336292 -0.012129
v 8.151270 1.336519 -0.007652
v 8.126731 1.350800 -0.018691
v 8.151697 1.324521 0.013351
v 8.149726 1.341049 -0.007982
v 8.150223 1.341384 -0.004764
v 8.149302 1.344773 0.003903
v 8.148866 1.345241 -0.000905
v 8.151701 1.318173 0.012800
v 8.150276 1.324468 0.018426
v 8.150465 1.320387 0.017636
v 8.152694 1.315310 0.009485
v 8.148348 1.344717 -0.004671
v 8.147830 1.344192 -0.008438
v 8.151240 1.315480 0.014564
v 8.150008 1.332465 0.021253
v 8.150018 1.328155 0.019480
v 8.150515 1.315515 0.017373
v 8.151861 1.312830 0.013160
v 8.145674 1.347125 -0.008749
v 8.146127 1.347779 -0.004743
v 8.150764 1.310248 0.017373
v 8.148842 1.335105 0.023481
v 8.148768 1.332019 0.023933
v 8.148640 1.328809 0.024034
v 8.148967 1.325522 0.022128
v 8.148964 1.338867 0.021073
v 8.142604 1.349883 -0.009412
v 8.141936 1.348996 -0.012676
v 8.146765 1.336482 0.026841
v 8.147138 1.333313 0.026864
v 8.146904 1.330530 0.026921
v 8.148166 1.326284 0.024490
v 8.147916 1.322888 0.024775
v 8.147640 1.346011 0.011679
v 8.148508 1.342388 0.017488
v 8.146389 1.342315 0.022740
v 8.138180 1.351217 -0.012569
v 8.136751 1.350502 -0.015237
v 8.144229 1.330768 0.029858
v 8.146379 1.327641 0.027148
v 8.145879 1.324995 0.027113
v 8.146028 1.349613 0.004655
v 8.144943 1.348796 0.013350
v 8.145813 1.345627 0.019202
v 8.133589 1.352468 -0.013903
v 8.144006 1.328435 0.029655
v 8.143841 1.327102 0.029451
v 8.143267 1.351580 0.007304
v 8.146337 1.348632 -0.000899
v 8.141639 1.352848 0.001145
v 8.142586 1.348421 0.020781
v 8.141466 1.327688 0.031553
v 8.141250 1.324995 0.030937
v 8.140788 1.353003 0.008853
v 8.138615 1.354629 0.004622
v 8.142291 1.351861 -0.002182
v 8.137681 1.354716 -0.001365
v 8.142525 1.350855 -0.005973
v 8.138658 1.322888 0.032423
v 8.141969 1.350959 0.014934
v 8.138647 1.352970 -0.006901
v 8.138289 1.353893 -0.003927
v 8.138712 1.352059 -0.009787
v 8.134994 1.327817 0.034735
v 8.134838 1.324995 0.033931
v 8.138522 1.326953 0.033169
v 8.138885 1.352747 0.016273
v 8.134756 1.355227 -0.005309
v 8.135031 1.353755 -0.009745
v 8.134583 1.353067 -0.011894
v 8.131018 1.327102 0.035438
v 8.138555 1.330134 0.033754
v 8.141554 1.330434 0.031984
v 8.138286 1.354331 0.010337
v 8.135048 1.354490 -0.007527
v 8.131669 1.354989 -0.009437
v 8.132188 1.351933 -0.015657
v 8.130641 1.354064 -0.012266
v 8.141725 1.333177 0.032522
v 8.144413 1.333298 0.030260
v 8.135925 1.355830 0.001512
v 8.135043 1.356287 0.007345
v 8.132458 1.349269 -0.019502
v 8.130521 1.351430 -0.017044
v 8.134282 1.355860 -0.003414
v 8.131663 1.355976 -0.006472
v 8.144055 1.337513 0.029385
v 8.133191 1.356594 -0.001216
v 8.128672 1.351030 -0.018058
v 8.128662 1.353347 -0.014425
v 8.131277 1.356436 -0.005098
v 8.130666 1.356975 -0.003492
v 8.131742 1.355494 -0.007911
v 8.143516 1.342112 0.026632
v 8.127419 1.353104 -0.015117
v 8.126115 1.352947 -0.015582
v 8.129732 1.353687 -0.013443
v 8.128728 1.356060 -0.008118
v 8.128729 1.356336 -0.007294
v 8.143106 1.345353 0.024322
v 8.124750 1.350728 -0.018911
v 8.127560 1.355007 -0.011270
v 8.128094 1.355223 -0.010622
v 8.128695 1.355766 -0.008997
v 8.124750 1.356491 -0.008217
v 8.128489 1.356596 -0.006520
v 8.139660 1.347611 0.025861
v 8.126984 1.354808 -0.011867
v 8.128424 1.355490 -0.009823
v 8.131289 1.354506 -0.010896
v 8.128171 1.356918 -0.005563
v 8.140279 1.344082 0.028513
v 8.141280 1.338224 0.031527
v 8.126270 1.354684 -0.012237
v 8.127502 1.357152 -0.004868
v 8.129574 1.357394 -0.002249
v 8.137005 1.345468 0.030216
v 8.125534 1.354583 -0.012541
v 8.124750 1.352903 -0.015707
v 8.126955 1.357335 -0.004322
v 8.128578 1.357699 -0.001341
v 8.131795 1.357251 0.000741
v 8.138523 1.336638 0.034172
v 8.138727 1.333090 0.034366
v 8.124750 1.354571 -0.012576
v 8.126273 1.357441 -0.004008
v 8.130395 1.357646 0.001917
v 8.133757 1.356843 0.003981
v 8.137846 1.341030 0.032676
v 8.135196 1.333582 0.036048
v 8.135078 1.330683 0.035350
v 8.123966 1.354583 -0.012541
v 8.132731 1.356910 0.008425
v 8.131902 1.357359 0.005326
v 8.135719 1.355422 0.011537
v 8.134542 1.341653 0.034095
v 8.131461 1.331230 0.036601
v 8.131324 1.328678 0.036015
v 8.123385 1.352947 -0.015582
v 8.129652 1.357807 0.006496
v 8.135056 1.337072 0.035814
v 8.127983 1.327937 0.036665
v 8.127884 1.324995 0.035964
v 8.122769 1.350800 -0.018691
v 8.128638 1.358001 0.002971
v 8.131467 1.337448 0.037052
v 8.131516 1.334062 0.037356
v 8.124750 1.322888 0.036490
v 8.122131 1.348368 -0.021626
v 8.119544 1.348707 -0.020823
v 8.120829 1.351030 -0.018058
v 8.127414 1.357907 -0.000725
v 8.128086 1.334017 0.037836
v 8.128064 1.330939 0.037195
v 8.118979 1.351430 -0.017044
v 8.120838 1.353347 -0.014425
v 8.122082 1.353104 -0.015117
v 8.123230 1.354684 -0.012237
v 8.125536 1.357544 -0.003704
v 8.126112 1.358064 -0.000259
v 8.124750 1.330697 0.037386
v 8.124750 1.327274 0.036905
v 8.122517 1.354808 -0.011867
v 8.124750 1.357556 -0.003670
v 8.124750 1.358293 0.003837
v 8.126732 1.358218 0.003616
v 8.124750 1.358107 -0.000133
v 8.121517 1.327937 0.036665
v 8.121616 1.324995 0.035964
v 8.121941 1.355007 -0.011270
v 8.123388 1.358064 -0.000259
v 8.123964 1.357544 -0.003704
v 8.127241 1.358106 0.007227
v 8.124750 1.358220 0.007482
v 8.127474 1.357814 0.009819
v 8.130153 1.357406 0.009257
v 8.118483 1.327102 0.035438
v 8.119768 1.353687 -0.013443
v 8.121407 1.355223 -0.010622
v 8.122087 1.357907 -0.000725
v 8.123227 1.357441 -0.004008
v 8.130291 1.356697 0.013255
v 8.133057 1.356281 0.012554
v 8.118176 1.328678 0.036015
v 8.114507 1.327817 0.034735
v 8.114662 1.324995 0.033931
v 8.118859 1.354064 -0.012266
v 8.121077 1.355490 -0.009823
v 8.133003 1.354870 0.017755
v 8.135846 1.354079 0.017252
v 8.121436 1.330939 0.037195
v 8.118039 1.331230 0.036601
v 8.110843 1.322888 0.032423
v 8.118211 1.354506 -0.010896
v 8.120805 1.355766 -0.008997
v 8.135881 1.352044 0.022954
v 8.139182 1.350556 0.022044
v 8.124750 1.333926 0.037978
v 8.121414 1.334017 0.037836
v 8.110978 1.326953 0.033169
v 8.108034 1.327688 0.031553
v 8.108251 1.324995 0.030937
v 8.128062 1.337712 0.037418
v 8.124750 1.337743 0.037526
v 8.110946 1.330134 0.033754
v 8.114422 1.330683 0.035350
v 8.105659 1.327102 0.029451
v 8.136308 1.349155 0.027125
v 8.127954 1.342412 0.035432
v 8.131207 1.342097 0.035104
v 8.114305 1.333582 0.036048
v 8.117985 1.334062 0.037356
v 8.105494 1.328435 0.029655
v 8.103121 1.327641 0.027148
v 8.103621 1.324995 0.027113
v 8.133307 1.350050 0.027881
v 8.133883 1.346316 0.031310
v 8.130839 1.346864 0.032034
v 8.118033 1.337448 0.037052
v 8.121438 1.337712 0.037418
v 8.107946 1.330434 0.031984
v 8.105271 1.330768 0.029858
v 8.101335 1.326284 0.024490
v 8.101584 1.322888 0.024775
v 8.124750 1.342509 0.035522
v 8.121546 1.342412 0.035432
v 8.110773 1.333090 0.034366
v 8.107776 1.333177 0.032522
v 8.100861 1.328809 0.024034
v 8.100533 1.325522 0.022128
v 8.102596 1.330530 0.026921
v 8.127795 1.347117 0.032365
v 8.124750 1.347207 0.032462
v 8.110977 1.336638 0.034172
v 8.114445 1.337072 0.035814
v 8.100732 1.332019 0.023933
v 8.102363 1.333313 0.026864
v 8.127626 1.350864 0.028562
v 8.130472 1.350605 0.028363
v 8.114958 1.341653 0.034095
v 8.118294 1.342097 0.035104
v 8.099492 1.332465 0.021253
v 8.100658 1.335105 0.023481
v 8.105087 1.333298 0.030260
v 8.130235 1.353419 0.023793
v 8.132964 1.352893 0.023474
v 8.118661 1.346864 0.032034
v 8.121705 1.347117 0.032365
v 8.099216 1.335381 0.019278
v 8.108220 1.338224 0.031527
v 8.105445 1.337513 0.029385
v 8.121874 1.350864 0.028562
v 8.124750 1.350954 0.028628
v 8.099180 1.338919 0.015815
v 8.100536 1.338867 0.021073
v 8.111654 1.341030 0.032676
v 8.102736 1.336482 0.026841
v 8.130267 1.355357 0.018165
v 8.124750 1.353801 0.023950
v 8.103111 1.342315 0.022740
v 8.100992 1.342388 0.017488
v 8.100198 1.344773 0.003903
v 8.100635 1.345241 -0.000905
v 8.112495 1.345468 0.030216
v 8.105985 1.342112 0.026632
v 8.127516 1.355675 0.018419
v 8.127513 1.353698 0.023901
v 8.101860 1.346011 0.011679
v 8.103473 1.349613 0.004655
v 8.101152 1.344717 -0.004671
v 8.109221 1.344082 0.028513
v 8.104557 1.348796 0.013350
v 8.106234 1.351580 0.007304
v 8.107862 1.352848 0.001145
v 8.103164 1.348632 -0.000899
v 8.103374 1.347779 -0.004743
v 8.101670 1.344192 -0.008438
v 8.109840 1.347611 0.025861
v 8.103687 1.345627 0.019202
v 8.107209 1.351861 -0.002182
v 8.106976 1.350855 -0.005973
v 8.106896 1.349883 -0.009412
v 8.103827 1.347125 -0.008749
v 8.104855 1.346434 -0.012451
v 8.106395 1.345353 0.024322
v 8.106915 1.348421 0.020781
v 8.110853 1.352970 -0.006901
v 8.111211 1.353893 -0.003927
v 8.111819 1.354716 -0.001365
v 8.107564 1.348996 -0.012676
v 8.109559 1.348258 -0.015962
v 8.108712 1.353003 0.008853
v 8.107532 1.350959 0.014934
v 8.114744 1.355227 -0.005309
v 8.110886 1.354629 0.004622
v 8.111320 1.351217 -0.012569
v 8.112229 1.347705 -0.019077
v 8.110615 1.352747 0.016273
v 8.111215 1.354331 0.010337
v 8.114457 1.356287 0.007345
v 8.113575 1.355830 0.001512
v 8.110788 1.352059 -0.009787
v 8.114750 1.349888 -0.017623
v 8.115139 1.347073 -0.021550
v 8.113781 1.355422 0.011537
v 8.110318 1.350556 0.022044
v 8.114470 1.353755 -0.009745
v 8.114452 1.354490 -0.007527
v 8.112749 1.350502 -0.015237
v 8.117043 1.349269 -0.019502
v 8.113619 1.352044 0.022954
v 8.113193 1.349155 0.027125
v 8.113654 1.354079 0.017252
v 8.115218 1.355860 -0.003414
v 8.117837 1.355976 -0.006472
v 8.115911 1.352468 -0.013903
v 8.116193 1.350050 0.027881
v 8.115617 1.346316 0.031310
v 8.116497 1.354870 0.017755
v 8.116309 1.356594 -0.001216
v 8.117312 1.351933 -0.015657
v 8.114917 1.353067 -0.011894
v 8.116536 1.352893 0.023474
v 8.115744 1.356843 0.003981
v 8.117705 1.357251 0.000741
v 8.119926 1.357394 -0.002249
v 8.118834 1.356975 -0.003492
v 8.117831 1.354989 -0.009437
v 8.119028 1.350605 0.028363
v 8.116769 1.356910 0.008425
v 8.118223 1.356436 -0.005098
v 8.117759 1.355494 -0.007911
v 8.119266 1.353419 0.023793
v 8.121987 1.353698 0.023901
v 8.116444 1.356281 0.012554
v 8.121012 1.356596 -0.006520
v 8.120771 1.356336 -0.007294
v 8.120772 1.356060 -0.008118
v 8.121984 1.355675 0.018419
v 8.124750 1.355773 0.018532
v 8.121329 1.356918 -0.005563
v 8.127533 1.357078 0.013644
v 8.124750 1.357216 0.013815
v 8.119233 1.355357 0.018165
v 8.122545 1.357335 -0.004322
v 8.121998 1.357152 -0.004868
v 8.124750 1.357994 0.010033
v 8.122026 1.357814 0.009819
v 8.121967 1.357078 0.013644
v 8.119209 1.356697 0.013255
v 8.120922 1.357699 -0.001341
v 8.119348 1.357406 0.009257
v 8.119105 1.357646 0.001917
v 8.120862 1.358001 0.002971
v 8.122259 1.358106 0.007227
v 8.122768 1.358218 0.003616
v 8.119848 1.357807 0.006496
v 8.117599 1.357359 0.005326
v 8.099035 1.320387 0.017636
v 8.124750 1.315341 0.008079
v 8.099224 1.324468 0.018426
v 8.098986 1.315515 0.017373
v 8.099483 1.328155 0.019480
v 8.098737 1.310248 0.017373
v 8.113966 1.338504 0.017152
v 8.103419 1.328418 0.023725
v 8.097639 1.312830 0.013160
v 8.105659 1.327102 0.029451
v 8.096807 1.315310 0.009485
v 8.108251 1.324995 0.030937
v 8.096287 1.317588 0.006886
v 8.110843 1.322888 0.032423
v 8.096024 1.319764 0.004826
v 8.114662 1.324995 0.033931
v 8.093889 1.314544 0.000261
v 8.118483 1.327102 0.035438
v 8.099469 1.308043 -0.004247
v 8.121616 1.324995 0.035964
v 8.101853 1.299132 -0.011666
v 8.124750 1.322888 0.036490
v 8.113514 1.296440 -0.014100
v 8.124750 1.338080 0.016482
v 8.124750 1.335529 0.022341
v 8.135534 1.338504 0.017152
v 8.127884 1.324995 0.035964
v 8.124750 1.291596 -0.018303
v 8.131018 1.327102 0.035438
v 8.135986 1.296440 -0.014100
v 8.134838 1.324995 0.033931
v 8.147647 1.299132 -0.011666
v 8.138658 1.322888 0.032423
v 8.150031 1.308043 -0.004247
v 8.141250 1.324995 0.030937
v 8.155611 1.314544 0.000261
v 8.143841 1.327102 0.029451
v 8.153477 1.319764 0.004826
v 8.146081 1.328418 0.023725
v 8.153214 1.317588 0.006886
v 8.150018 1.328155 0.019480
v 8.152694 1.315310 0.009485
v 8.150276 1.324468 0.018426
v 8.151861 1.312830 0.013160
v 8.150465 1.320387 0.017636
v 8.150764 1.310248 0.017373
v 8.150515 1.315515 0.017373
v 8.102242 1.326048 0.024569
v 8.103621 1.324995 0.027113
v 8.101584 1.322888 0.024775
v 8.100533 1.325522 0.022128
v 8.147258 1.326048 0.024569
v 8.145879 1.324995 0.027113
v 8.148967 1.325522 0.022128
v 8.147916 1.322888 0.024775
vn 0.5193 0.3907 -0.7601
vn 0.4799 0.4535 -0.7510
vn 0.6315 0.4518 -0.6301
vn 0.6697 0.3995 -0.6260
vn -0.6867 -0.1286 0.7155
vn -0.6981 0.0221 0.7157
vn -0.8177 0.0299 0.5748
vn -0.7955 -0.0772 0.6010
vn 0.3439 0.3879 -0.8552
vn 0.5324 0.3261 -0.7812
vn 0.3657 0.3028 -0.8801
vn 0.7083 0.3418 -0.6176
vn -0.4095 0.5573 -0.7223
vn -0.2990 0.6941 -0.6549
vn -0.1727 0.6862 -0.7066
vn -0.2483 0.5663 -0.7859
vn -0.0000 0.7995 -0.6007
vn -0.0648 0.8018 -0.5940
vn -0.0490 0.8548 -0.5166
vn -0.0000 0.8538 -0.5205
vn -0.2234 0.9565 -0.1875
vn -0.1823 0.9712 -0.1536
vn -0.1052 0.9691 -0.2233
vn -0.1317 0.9605 -0.2451
vn 0.7131 0.4490 -0.5384
vn 0.7654 0.3842 -0.5163
vn 0.7533 0.1831 -0.6317
vn 0.5472 0.1982 -0.8132
vn 0.8252 0.3056 -0.4750
vn 0.8916 0.1898 -0.4111
vn 0.3860 0.1820 -0.9044
vn 0.8355 0.3678 -0.4083
vn 0.8721 0.2832 -0.3991
vn -0.0000 -0.1737 0.9848
vn -0.1295 -0.1950 0.9722
vn -0.1920 -0.2016 0.9605
vn -0.0000 -0.1545 0.9880
vn 0.5526 0.5595 -0.6178
vn 0.6375 0.5577 -0.5316
vn -0.6375 0.5577 -0.5316
vn -0.5526 0.5595 -0.6178
vn -0.6315 0.4518 -0.6301
vn -0.7131 0.4490 -0.5384
vn -0.8252 0.3056 -0.4750
vn -0.8916 0.1898 -0.4111
vn -0.8721 0.2832 -0.3991
vn -0.5472 0.1982 -0.8132
vn -0.6021 0.0357 -0.7976
vn -0.7533 0.1831 -0.6317
vn 0.0968 -0.0507 0.9940
vn -0.0000 -0.0414 0.9991
vn 0.1295 -0.1950 0.9722
vn 0.1806 0.2906 -0.9396
vn 0.1794 0.1649 -0.9699
vn -0.0000 0.1550 -0.9879
vn -0.0000 0.2801 -0.9600
vn -0.5986 -0.0054 0.8010
vn -0.5714 -0.1670 0.8035
vn 0.7762 0.4676 -0.4231
vn 0.8218 0.5053 -0.2632
vn 0.8854 0.3816 -0.2654
vn 0.1104 0.5807 -0.8066
vn 0.2483 0.5663 -0.7859
vn 0.3071 0.4622 -0.8319
vn 0.1488 0.4800 -0.8646
vn 0.9236 0.2859 -0.2555
vn 0.9325 0.1311 -0.3364
vn 0.8760 -0.0717 0.4770
vn 0.7514 -0.1036 0.6516
vn 0.7400 -0.1000 0.6651
vn 0.8504 -0.0590 0.5228
vn -0.9710 0.0051 -0.2391
vn -0.9325 0.1311 -0.3364
vn -0.0938 0.9469 0.3075
vn -0.1747 0.9393 0.2952
vn -0.1703 0.8903 0.4222
vn -0.0796 0.9000 0.4286
vn 0.1614 0.0501 -0.9856
vn -0.0000 0.0275 -0.9996
vn -0.4597 0.8565 -0.2346
vn -0.4462 0.8444 -0.2965
vn -0.5911 0.7604 -0.2690
vn -0.5898 0.7823 -0.2000
vn -0.5097 0.8284 0.2323
vn -0.3913 0.8828 0.2599
vn -0.3920 0.9050 0.1652
vn -0.4856 0.8639 0.1340
vn -0.9236 0.2859 -0.2555
vn -0.9033 0.3946 -0.1683
vn -0.8854 0.3816 -0.2654
vn -0.8845 0.4650 -0.0374
vn -0.6441 0.6808 0.3488
vn -0.6041 0.7675 0.2144
vn -0.7004 0.6856 0.1982
vn -0.7497 0.5860 0.3075
vn -0.0000 0.3870 -0.9221
vn 0.1736 0.3907 -0.9040
vn 0.5446 0.8312 0.1124
vn 0.6041 0.7675 0.2144
vn 0.7004 0.6856 0.1982
vn 0.6166 0.7812 0.0981
vn 0.4761 0.5537 0.6832
vn 0.4950 0.4276 0.7564
vn 0.6004 0.3269 0.7298
vn 0.5919 0.5047 0.6285
vn -0.3830 0.0947 -0.9189
vn -0.3806 -0.0464 -0.9236
vn 0.2234 0.9565 -0.1875
vn 0.3176 0.9396 -0.1274
vn 0.3522 0.9185 -0.1798
vn 0.2458 0.9412 -0.2318
vn -0.7083 -0.3181 -0.6302
vn 0.1727 0.6862 -0.7066
vn 0.2990 0.6941 -0.6549
vn 0.4095 0.5573 -0.7223
vn 0.0807 0.6774 -0.7312
vn -0.0000 0.5870 -0.8096
vn -0.0000 0.4868 -0.8735
vn -0.0000 0.6730 -0.7396
vn -0.9787 -0.0778 -0.1900
vn 0.9661 -0.0116 0.2579
vn 0.9653 0.0264 0.2597
vn 0.9639 0.0335 0.2642
vn 0.9665 0.0071 0.2567
vn -0.1806 0.2906 -0.9396
vn -0.1794 0.1649 -0.9699
vn 0.2070 0.6192 0.7574
vn 0.1841 0.7733 0.6067
vn 0.0790 0.7865 0.6125
vn 0.0859 0.6313 0.7708
vn -0.2627 -0.4909 -0.8307
vn 0.7083 -0.3181 -0.6302
vn 0.7275 -0.5116 -0.4573
vn 0.3816 -0.6396 -0.6673
vn 0.2627 -0.4909 -0.8307
vn -0.9970 0.0127 0.0765
vn -0.9857 0.1683 -0.0031
vn -0.1488 0.4800 -0.8646
vn -0.1736 0.3907 -0.9040
vn -0.4460 -0.1900 0.8746
vn -0.5744 -0.1705 0.8006
vn -0.4323 -0.1840 0.8828
vn 0.3806 -0.0464 -0.9236
vn -0.0000 -0.4772 -0.8788
vn 0.0855 -0.1056 -0.9907
vn -0.3816 -0.6396 -0.6673
vn -0.0000 -0.5225 -0.8526
vn 0.9488 -0.0827 0.3049
vn 0.9735 -0.0090 0.2286
vn 0.9760 0.0266 0.2162
vn 0.9970 0.0127 0.0765
vn -0.9488 -0.0827 0.3049
vn -0.9513 0.1822 0.2486
vn -0.3439 0.3879 -0.8552
vn -0.3071 0.4622 -0.8319
vn -0.3657 0.3028 -0.8801
vn -0.0000 -0.1599 -0.9871
vn -0.0855 -0.1056 -0.9907
vn -0.9760 0.0266 0.2162
vn -0.9665 0.0071 0.2567
vn -0.9735 -0.0090 0.2286
vn -0.9654 0.0520 0.2554
vn 0.8965 -0.0121 0.4429
vn 0.8177 0.0299 0.5748
vn 0.7955 -0.0772 0.6010
vn 0.8975 -0.0782 0.4341
vn 0.8932 -0.1246 -0.4320
vn 0.9244 -0.2892 -0.2486
vn -0.4862 -0.0548 0.8721
vn -0.5330 0.7571 0.3777
vn -0.8760 -0.0717 0.4770
vn -0.7514 -0.1036 0.6516
vn -0.8975 -0.0782 0.4341
vn 0.9461 -0.0646 0.3175
vn 0.9468 0.0039 0.3219
vn -0.1614 0.0501 -0.9856
vn -0.7275 -0.5116 -0.4573
vn -0.9244 -0.2892 -0.2486
vn -0.8932 -0.1246 -0.4320
vn -0.3860 0.1820 -0.9044
vn -0.0858 0.4698 0.8786
vn -0.0859 0.6313 0.7708
vn -0.2070 0.6192 0.7574
vn -0.2230 0.4603 0.8593
vn 0.9787 -0.0778 -0.1900
vn 0.9893 -0.0195 -0.1445
vn 0.9710 0.0051 -0.2391
vn -0.7678 0.4640 0.4418
vn -0.8620 0.4498 0.2338
vn -0.8812 0.3214 0.3467
vn 0.9608 -0.0294 0.2757
vn 0.3830 0.0947 -0.9189
vn 0.6021 0.0357 -0.7976
vn -0.3411 0.5934 0.7291
vn -0.3680 0.4419 0.8181
vn 0.7017 0.5837 -0.4084
vn -0.5193 0.3907 -0.7601
vn -0.4799 0.4535 -0.7510
vn -0.9608 -0.0294 0.2757
vn -0.9706 -0.0233 0.2398
vn 0.2096 0.7787 -0.5913
vn 0.3071 0.7914 -0.5285
vn 0.4223 0.7012 -0.5745
vn -0.1104 0.5807 -0.8066
vn -0.0968 -0.0507 0.9940
vn -0.2329 -0.0651 0.9703
vn -0.2363 -0.2243 0.9454
vn -0.9461 -0.0646 0.3175
vn -0.9893 -0.0195 -0.1445
vn 0.9440 -0.0733 0.3216
vn -0.7083 0.3418 -0.6176
vn -0.7654 0.3842 -0.5163
vn -0.6697 0.3995 -0.6260
vn 0.1852 0.9589 0.2149
vn 0.1125 0.9660 0.2328
vn 0.0938 0.9469 0.3075
vn 0.1747 0.9393 0.2952
vn -0.5324 0.3261 -0.7812
vn -0.1841 0.7733 0.6067
vn -0.3071 0.7446 0.5927
vn -0.8355 0.3678 -0.4083
vn -0.7762 0.4676 -0.4231
vn -0.4761 0.5537 0.6832
vn -0.4950 0.4276 0.7564
vn 0.4002 0.8237 0.4018
vn 0.5330 0.7571 0.3777
vn 0.5097 0.8284 0.2323
vn 0.3913 0.8828 0.2599
vn -0.7018 0.5837 -0.4084
vn 0.1238 0.8674 -0.4819
vn 0.1652 0.8795 -0.4462
vn 0.2300 0.8387 -0.4936
vn 0.1642 0.8225 -0.5445
vn -0.4223 0.7012 -0.5745
vn 0.9857 0.1683 -0.0031
vn -0.6166 0.7812 0.0981
vn -0.7285 0.6845 0.0274
vn -0.8255 0.5429 0.1546
vn -0.5641 0.7213 -0.4019
vn -0.5073 0.7019 -0.5000
vn -0.2470 0.9096 -0.3341
vn -0.1519 0.9299 -0.3351
vn -0.1409 0.9232 -0.3577
vn -0.2291 0.8997 -0.3716
vn -0.2096 0.7787 -0.5913
vn -0.1281 0.7622 -0.6345
vn -0.3071 0.7914 -0.5285
vn -0.3674 -0.0774 0.9268
vn -0.3335 -0.2178 0.9172
vn 0.8845 0.4650 -0.0374
vn 0.9513 0.1822 0.2486
vn -0.0807 0.6774 -0.7312
vn -0.0709 0.7483 -0.6595
vn -0.0000 0.7430 -0.6693
vn 0.0889 0.8595 -0.5034
vn 0.0572 0.9018 -0.4284
vn 0.0822 0.9049 -0.4176
vn -0.1852 0.9589 0.2149
vn -0.1927 0.9727 0.1294
vn -0.2694 0.9572 0.1053
vn -0.2731 0.9427 0.1918
vn 0.9178 0.3493 0.1887
vn 0.9453 0.1574 0.2857
vn -0.9468 0.0039 0.3219
vn -0.9453 0.1574 0.2857
vn -0.1128 0.8093 -0.5764
vn -0.5504 0.8323 -0.0663
vn -0.5823 0.7980 -0.1551
vn -0.7345 0.6680 -0.1196
vn 0.9033 0.3946 -0.1683
vn -0.8397 0.5318 -0.1102
vn -0.8322 0.5259 -0.1760
vn 0.8397 0.5318 -0.1102
vn 0.8687 0.4930 0.0480
vn 0.9706 -0.0233 0.2398
vn 0.8322 0.5259 -0.1760
vn 0.9654 0.0520 0.2554
vn -0.8218 0.5053 -0.2632
vn -0.9639 0.0335 0.2642
vn -0.9653 0.0264 0.2597
vn -0.9661 -0.0116 0.2579
vn -0.9609 0.0525 0.2718
vn -0.7380 0.6258 -0.2526
vn -0.7367 0.6509 -0.1836
vn -0.1432 0.9814 -0.1281
vn -0.1002 0.9887 -0.1117
vn -0.0578 0.9784 -0.1987
vn -0.0853 0.9745 -0.2075
vn -0.9610 0.0575 0.2704
vn 0.6635 -0.1463 0.7338
vn 0.6503 -0.1853 0.7367
vn -0.8965 -0.0121 0.4429
vn 0.8899 0.1683 0.4239
vn -0.9440 -0.0733 0.3216
vn -0.9178 0.3493 0.1887
vn -0.7892 0.2579 0.5574
vn -0.8899 0.1683 0.4239
vn -0.6630 0.5604 0.4964
vn 0.8255 0.5429 0.1546
vn 0.8620 0.4498 0.2338
vn -0.5029 0.2155 0.8370
vn -0.6004 0.3269 0.7298
vn -0.4197 0.8211 -0.3868
vn -0.0317 0.9813 -0.1898
vn -0.0526 0.9936 -0.0997
vn -0.6635 -0.1463 0.7338
vn -0.8504 -0.0590 0.5228
vn -0.7400 -0.1000 0.6651
vn -0.8687 0.4930 0.0480
vn 0.7285 0.6845 0.0274
vn 0.4010 0.9137 -0.0664
vn 0.3304 0.9437 -0.0158
vn 0.3826 0.9215 0.0668
vn 0.4759 0.8794 0.0133
vn -0.2861 0.8531 -0.4364
vn -0.2300 0.8387 -0.4936
vn -0.3778 0.8013 -0.4638
vn -0.3242 0.8667 -0.3791
vn -0.6503 -0.1853 0.7367
vn 0.5641 0.6295 0.5343
vn 0.4366 0.6968 0.5691
vn 0.5504 0.8323 -0.0663
vn 0.2752 0.8676 0.4141
vn 0.3071 0.7446 0.5927
vn 0.7892 0.2579 0.5574
vn 0.7678 0.4640 0.4418
vn 0.6662 0.4626 0.5849
vn 0.6807 0.3151 0.6613
vn -0.2003 0.9785 -0.0489
vn -0.2434 0.9695 0.0286
vn -0.1792 0.9823 0.0542
vn -0.1433 0.9893 -0.0263
vn -0.5707 -0.1853 0.8000
vn -0.5446 0.8312 0.1124
vn -0.4759 0.8794 0.0133
vn -0.4010 0.9137 -0.0664
vn -0.4428 0.8873 -0.1293
vn -0.4615 0.8661 -0.1921
vn -0.4338 -0.1920 0.8803
vn -0.2489 -0.2486 0.9361
vn -0.2577 -0.2981 0.9191
vn -0.2180 -0.1941 0.9565
vn -0.2671 0.9217 0.2814
vn -0.2752 0.8676 0.4141
vn -0.3651 0.9023 -0.2293
vn -0.3636 0.8913 -0.2707
vn -0.3522 0.9185 -0.1798
vn 0.4597 0.8565 -0.2346
vn 0.4615 0.8661 -0.1921
vn 0.5823 0.7980 -0.1551
vn 0.5898 0.7823 -0.2000
vn -0.2960 -0.2359 0.9256
vn -0.2758 -0.2456 0.9293
vn -0.3495 0.8805 -0.3203
vn 0.9609 0.0525 0.2718
vn -0.3826 0.9215 0.0668
vn -0.2557 0.9190 -0.3002
vn -0.1540 0.9367 -0.3146
vn -0.1009 0.9929 0.0627
vn -0.1187 0.9824 0.1442
vn -0.1456 0.9511 -0.2722
vn -0.1542 0.9438 -0.2924
vn -0.2565 0.9291 -0.2665
vn -0.2458 0.9412 -0.2318
vn -0.2024 0.8904 -0.4077
vn -0.0000 0.9701 0.2426
vn -0.0000 0.9492 0.3145
vn 0.7380 0.6258 -0.2526
vn 0.7367 0.6509 -0.1836
vn -0.3304 0.9437 -0.0158
vn -0.1652 0.8795 -0.4462
vn -0.1642 0.8225 -0.5445
vn 0.5029 0.2155 0.8370
vn 0.3867 0.2236 0.8947
vn 0.3674 -0.0774 0.9268
vn 0.4862 -0.0548 0.8721
vn -0.6807 0.3151 0.6613
vn -0.3176 0.9396 -0.1274
vn -0.1238 0.8674 -0.4819
vn -0.0889 0.8595 -0.5034
vn -0.6662 0.4626 0.5849
vn 0.6630 0.5604 0.4964
vn -0.0000 0.9819 -0.1895
vn -0.0000 0.9954 -0.0962
vn -0.1276 0.9166 -0.3788
vn -0.1057 0.9112 -0.3982
vn 0.1540 0.9367 -0.3146
vn 0.1519 0.9299 -0.3351
vn -0.0000 0.9484 -0.3172
vn 0.1542 0.9438 -0.2924
vn 0.1057 0.9112 -0.3982
vn 0.1276 0.9166 -0.3788
vn 0.2024 0.8904 -0.4077
vn 0.2291 0.8997 -0.3716
vn 0.3242 0.8667 -0.3791
vn 0.2861 0.8531 -0.4364
vn 0.1456 0.9511 -0.2722
vn -0.0822 0.9049 -0.4176
vn 0.9610 0.0575 0.2704
vn -0.0572 0.9018 -0.4284
vn 0.1409 0.9232 -0.3577
vn 0.1317 0.9605 -0.2451
vn -0.5919 0.5047 0.6285
vn -0.0303 0.8986 -0.4377
vn 0.1052 0.9691 -0.2233
vn -0.4366 0.6968 0.5691
vn -0.5641 0.6295 0.5343
vn 0.0303 0.8986 -0.4377
vn -0.0000 0.8988 -0.4384
vn 0.0853 0.9745 -0.2075
vn -0.2640 0.9609 -0.0836
vn 0.0578 0.9784 -0.1987
vn 0.3411 0.5934 0.7291
vn -0.3867 0.2236 0.8947
vn 0.3920 0.9050 0.1652
vn 0.4856 0.8639 0.1340
vn 0.2323 0.2391 0.9428
vn 0.2329 -0.0651 0.9703
vn 0.2671 0.9217 0.2814
vn 0.2731 0.9427 0.1918
vn 0.0490 0.8548 -0.5166
vn 0.0648 0.8018 -0.5940
vn 0.4428 0.8873 -0.1293
vn 0.2640 0.9609 -0.0836
vn -0.2323 0.2391 0.9428
vn -0.0000 -0.1529 0.9882
vn 0.0709 0.7483 -0.6595
vn 0.1281 0.7622 -0.6345
vn -0.0749 0.9971 -0.0134
vn -0.0000 0.9981 0.0622
vn -0.0000 0.9889 0.1483
vn 0.1187 0.9824 0.1442
vn 0.1009 0.9929 0.0627
vn 0.1128 0.8093 -0.5764
vn 0.4197 0.8211 -0.3868
vn 0.3778 0.8013 -0.4638
vn 0.1927 0.9727 0.1294
vn 0.0317 0.9813 -0.1898
vn -0.0000 1.0000 -0.0092
vn 0.1920 -0.2016 0.9605
vn 0.0526 0.9936 -0.0997
vn -0.4002 0.8237 0.4018
vn 0.2180 -0.1941 0.9565
vn 0.2577 -0.2981 0.9191
vn 0.2489 -0.2486 0.9361
vn 0.1002 0.9887 -0.1117
vn -0.1125 0.9660 0.2328
vn 0.8812 0.3214 0.3467
vn 0.6867 -0.1286 0.7155
vn 0.2363 -0.2243 0.9454
vn 0.2960 -0.2359 0.9256
vn 0.3335 -0.2178 0.9172
vn 0.4338 -0.1920 0.8803
vn 0.4323 -0.1840 0.8828
vn 0.2758 -0.2456 0.9293
vn 0.2470 0.9096 -0.3341
vn 0.2230 0.4603 0.8593
vn 0.0858 0.4698 0.8786
vn 0.0825 0.2536 0.9638
vn 0.5744 -0.1705 0.8006
vn 0.5707 -0.1853 0.8000
vn -0.0000 0.6343 0.7731
vn -0.0000 0.4701 0.8826
vn -0.0000 0.2545 0.9671
vn 0.5714 -0.1670 0.8035
vn 0.4460 -0.1900 0.8746
vn -0.0825 0.2536 0.9638
vn -0.0000 0.7896 0.6136
vn -0.0790 0.7865 0.6125
vn 0.7345 0.6680 -0.1196
vn 0.5986 -0.0054 0.8010
vn 0.6981 0.0221 0.7157
vn 0.0749 0.9971 -0.0134
vn 0.3680 0.4419 0.8181
vn 0.4462 0.8444 -0.2965
vn 0.5911 0.7604 -0.2690
vn 0.5641 0.7213 -0.4019
vn -0.0000 0.9018 0.4322
vn 0.7497 0.5860 0.3075
vn 0.1703 0.8903 0.4222
vn 0.0796 0.9000 0.4286
vn 0.6441 0.6808 0.3488
vn 0.1433 0.9893 -0.0263
vn 0.5073 0.7019 -0.5000
vn 0.2565 0.9291 -0.2665
vn 0.3651 0.9023 -0.2293
vn 0.2694 0.9572 0.1053
vn 0.3636 0.8913 -0.2707
vn 0.3495 0.8805 -0.3203
vn 0.2557 0.9190 -0.3002
vn 0.1792 0.9823 0.0542
vn 0.2434 0.9695 0.0286
vn 0.1823 0.9712 -0.1536
vn 0.1432 0.9814 -0.1281
vn 0.2003 0.9785 -0.0489
vn 0.3222 -0.1335 0.9372
vn -0.0000 -0.6322 0.7748
vn 0.2864 -0.2481 0.9254
vn 0.3389 -0.0350 0.9402
vn 0.6613 -0.6299 0.4073
vn 0.3073 -0.8712 0.3827
vn 0.2983 -0.9095 0.2895
vn 0.5908 -0.6752 -0.4418
vn -0.0225 -0.8432 -0.5371
vn 0.2800 -0.7100 -0.6461
vn -0.0298 -0.7915 -0.6104
vn -0.1375 -0.6783 -0.7218
vn -0.0276 -0.7182 -0.6953
vn 0.2934 -0.6978 -0.6535
vn -0.1734 -0.9580 0.2285
vn 0.5601 -0.6338 -0.5335
vn -0.1752 -0.6308 0.7559
vn -0.0861 -0.8548 -0.5118
vn -0.1690 -0.6563 0.7353
vn -0.4713 -0.7959 -0.3799
vn -0.0967 -0.7114 0.6961
vn -0.0000 -0.8497 -0.5272
vn -0.0534 -0.7465 0.6632
vn -0.0000 -0.9061 0.4231
vn -0.0000 -0.8135 -0.5816
vn -0.2983 -0.9095 0.2895
vn 0.4713 -0.7959 -0.3799
vn -0.0000 -0.7433 0.6690
vn 0.0861 -0.8548 -0.5118
vn 0.0534 -0.7465 0.6632
vn -0.5601 -0.6338 -0.5335
vn 0.0967 -0.7114 0.6961
vn -0.2934 -0.6978 -0.6535
vn 0.1690 -0.6563 0.7353
vn 0.1375 -0.6783 -0.7218
vn 0.1752 -0.6308 0.7559
vn -0.2800 -0.7100 -0.6461
vn 0.1734 -0.9580 0.2285
vn -0.5908 -0.6752 -0.4418
vn 0.0276 -0.7182 -0.6953
vn -0.6613 -0.6299 0.4073
vn 0.0298 -0.7915 -0.6104
vn -0.2864 -0.2481 0.9254
vn 0.0225 -0.8432 -0.5371
vn -0.3222 -0.1335 0.9372
vn -0.3073 -0.8712 0.3827
vn -0.3389 -0.0350 0.9402
vn 0.7836 -0.3422 -0.5186
vn 0.8220 -0.2058 -0.5310
vn -0.7836 -0.3422 -0.5186
vn -0.8220 -0.2058 -0.5310
vt 0.000000 0.000000
s 1
f 93/1/1 101/1/2 100/1/3 98/1/4
f 359/1/5 381/1/6 374/1/7 368/1/8
f 65/1/9 93/1/1 91/1/10 84/1/11
f 91/1/10 93/1/1 98/1/4 97/1/12
f 8/1/13 441/1/14 45/1/15 40/1/16
f 238/1/17 281/1/18 276/1/19 256/1/20
f 464/1/21 463/1/22 483/1/23 478/1/24
f 98/1/4 100/1/3 107/1/25 106/1/26
f 91/1/10 97/1/12 95/1/27 90/1/28
f 105/1/29 130/1/30 95/1/27 97/1/12
f 84/1/11 91/1/10 90/1/28 85/1/31
f 114/1/32 137/1/33 105/1/29 106/1/26
f 298/1/34 328/1/35 305/1/36 299/1/37
f 100/1/3 119/1/38 115/1/39 107/1/25
f 19/1/40 27/1/41 3/1/42 11/1/43
f 13/1/44 20/1/45 21/1/46
f 14/1/47 22/1/48 12/1/49
f 290/1/50 335/1/51 298/1/34 291/1/52
f 51/1/53 84/1/11 85/1/31 78/1/54
f 51/1/53 78/1/54 31/1/55 44/1/56
f 365/1/57 381/1/6 359/1/5 358/1/58
f 113/1/59 150/1/60 141/1/61 114/1/32
f 99/1/62 109/1/63 92/1/64 58/1/65
f 137/1/33 138/1/66 120/1/67 130/1/30
f 169/1/68 177/1/69 178/1/70 170/1/71
f 20/1/45 28/1/72 29/1/73
f 476/1/74 481/1/75 470/1/76 471/1/77
f 31/1/55 78/1/54 76/1/78 68/1/79
f 424/1/80 439/1/81 419/1/82 418/1/83
f 435/1/84 450/1/85 442/1/86 436/1/87
f 30/1/88 37/1/89 26/1/90
f 30/1/88 38/1/91 37/1/89
f 30/1/88 29/1/73 38/1/91
f 423/1/92 430/1/93 409/1/94 416/1/95
f 39/1/96 57/1/97 51/1/53 44/1/56
f 191/1/98 197/1/99 180/1/100 185/1/101
f 254/1/102 266/1/103 250/1/104 249/1/105
f 22/1/48 23/1/106 43/1/107
f 229/1/108 225/1/109 222/1/110 228/1/111
f 22/1/48 43/1/107 35/1/112
f 116/1/113 117/1/114 110/1/115 109/1/63
f 108/1/116 116/1/113 109/1/63 99/1/62
f 47/1/117 99/1/62 58/1/65 52/1/118
f 47/1/117 131/1/119 108/1/116 99/1/62
f 28/1/72 50/1/120 29/1/73
f 147/1/121 154/1/122 151/1/123 145/1/124
f 24/1/125 44/1/56 31/1/55 25/1/126
f 355/1/127 376/1/128 375/1/129 369/1/130
f 35/1/112 43/1/107 53/1/131
f 74/1/132 75/1/133 66/1/134 73/1/135
f 50/1/120 55/1/136 56/1/137
f 29/1/73 56/1/137 38/1/91
f 50/1/120 56/1/137 29/1/73
f 34/1/138 52/1/118 39/1/96 33/1/139
f 342/1/140 358/1/58 338/1/141 337/1/142
f 81/1/143 73/1/135 59/1/144 77/1/145
f 53/1/131 59/1/144 54/1/146
f 54/1/146 59/1/144 60/1/147
f 122/1/148 140/1/149 123/1/150 112/1/151
f 55/1/136 63/1/152 56/1/137
f 56/1/137 64/1/153 38/1/91
f 56/1/137 63/1/152 64/1/153
f 34/1/138 33/1/139 6/1/154 5/1/155
f 6/1/154 33/1/139 24/1/125 16/1/156
f 60/1/147 59/1/144 66/1/134
f 76/1/78 77/1/145 67/1/157 68/1/79
f 61/1/158 67/1/157 59/1/144
f 62/1/159 70/1/160 69/1/161
f 62/1/159 71/1/162 70/1/160
f 160/1/163 167/1/164 168/1/165 161/1/166
f 66/1/134 59/1/144 73/1/135
f 74/1/132 96/1/167 82/1/168 75/1/133
f 342/1/140 364/1/169 365/1/57 358/1/58
f 423/1/92 443/1/170 435/1/84 430/1/93
f 67/1/157 77/1/145 59/1/144
f 360/1/171 351/1/172 368/1/8 366/1/173
f 160/1/163 161/1/166 153/1/174 152/1/175
f 73/1/135 81/1/143 74/1/132
f 32/1/176 61/1/158 43/1/107 23/1/106
f 35/1/112 48/1/177 42/1/178 36/1/179
f 25/1/126 32/1/176 23/1/106 15/1/180
f 363/1/181 385/1/182 384/1/183 378/1/184
f 111/1/185 112/1/151 104/1/186 103/1/187
f 397/1/188 416/1/95 398/1/189 392/1/190
f 140/1/149 146/1/191 147/1/121 145/1/124
f 81/1/143 83/1/192 89/1/193
f 81/1/143 89/1/193 74/1/132
f 23/1/106 22/1/48 14/1/47 15/1/180
f 384/1/183 455/1/194 377/1/195 378/1/184
f 115/1/39 125/1/196 113/1/59 107/1/25
f 5/1/155 6/1/154 1/1/197 4/1/198
f 69/1/161 94/1/199 72/1/200
f 117/1/114 220/1/201 127/1/202 118/1/203
f 35/1/112 36/1/179 12/1/49 22/1/48
f 89/1/193 90/1/28 95/1/27
f 58/1/65 92/1/64 65/1/9 57/1/97
f 41/1/204 34/1/138 5/1/155 40/1/16
f 336/1/205 349/1/206 329/1/207 328/1/35
f 94/1/199 102/1/208 72/1/200
f 12/1/49 36/1/179 28/1/72 20/1/45
f 42/1/178 49/1/209 28/1/72 36/1/179
f 161/1/166 169/1/68 162/1/210 153/1/174
f 9/1/211 13/1/44 10/1/212 2/1/213
f 319/1/214 479/1/215 403/1/216 395/1/217
f 7/1/218 16/1/156 15/1/180 14/1/47
f 384/1/183 466/1/219 454/1/220 455/1/194
f 3/1/42 27/1/41 8/1/13 4/1/198
f 8/1/13 40/1/16 5/1/155 4/1/198
f 49/1/209 55/1/136 50/1/120 28/1/72
f 10/1/212 17/1/221 18/1/222 11/1/43
f 377/1/195 455/1/194 401/1/223 393/1/224
f 333/1/225 334/1/226 204/1/227 327/1/228
f 18/1/222 421/1/229 19/1/40 11/1/43
f 227/1/230 234/1/231 214/1/232 221/1/233
f 434/1/234 441/1/14 8/1/13 27/1/41
f 111/1/185 103/1/187 120/1/67
f 111/1/185 121/1/235 112/1/151
f 111/1/185 120/1/67 121/1/235
f 112/1/151 121/1/235 122/1/148
f 76/1/78 83/1/192 81/1/143 77/1/145
f 409/1/94 410/1/236 406/1/237 405/1/238
f 421/1/229 427/1/239 428/1/240 19/1/40
f 465/1/241 332/1/242 325/1/243 331/1/244
f 441/1/14 447/1/245 287/1/246 45/1/15
f 440/1/247 447/1/245 441/1/14 434/1/234
f 348/1/248 364/1/169 342/1/140 343/1/249
f 121/1/235 120/1/67 128/1/250
f 121/1/235 129/1/251 122/1/148
f 121/1/235 128/1/250 129/1/251
f 103/1/187 130/1/30 120/1/67
f 46/1/252 286/1/253 132/1/254 131/1/119
f 232/1/255 251/1/256 245/1/257 227/1/230
f 487/1/258 489/1/259 467/1/260 472/1/261
f 129/1/251 134/1/262 135/1/263
f 379/1/264 386/1/265 64/1/153 72/1/200
f 72/1/200 64/1/153 63/1/152 69/1/161
f 29/1/73 30/1/88 21/1/46 20/1/45
f 130/1/30 105/1/29 137/1/33
f 120/1/67 138/1/66 128/1/250
f 132/1/254 286/1/253 281/1/18 238/1/17
f 287/1/246 288/1/266 281/1/18 286/1/253
f 21/1/46 30/1/88 26/1/90 17/1/221
f 411/1/267 417/1/268 412/1/269 406/1/237
f 138/1/66 141/1/61 142/1/270
f 138/1/66 142/1/270 128/1/250
f 400/1/271 407/1/272 37/1/89 38/1/91
f 128/1/250 144/1/273 143/1/274
f 140/1/149 145/1/124 123/1/150
f 140/1/149 136/1/275 146/1/191
f 142/1/270 149/1/276 144/1/273 128/1/250
f 123/1/150 145/1/124 148/1/277
f 407/1/272 414/1/278 26/1/90 37/1/89
f 80/1/279 87/1/280 88/1/281 70/1/160
f 80/1/279 70/1/160 71/1/162 79/1/282
f 136/1/275 153/1/174 146/1/191
f 136/1/275 152/1/175 153/1/174
f 420/1/283 421/1/229 18/1/222 414/1/278
f 413/1/284 420/1/283 414/1/278 407/1/272
f 488/1/285 317/1/286 318/1/287 482/1/288
f 86/1/289 87/1/280 80/1/279 79/1/282
f 177/1/69 183/1/290 184/1/291 178/1/70
f 373/1/292 379/1/264 102/1/208 366/1/173
f 152/1/175 159/1/293 160/1/163
f 366/1/173 102/1/208 367/1/294 360/1/171
f 392/1/190 398/1/189 391/1/295 386/1/265
f 419/1/82 427/1/239 421/1/229 420/1/283
f 110/1/115 119/1/38 100/1/3 101/1/2
f 394/1/296 397/1/188 392/1/190 380/1/297
f 88/1/281 94/1/199 69/1/161 70/1/160
f 368/1/8 374/1/7 373/1/292 366/1/173
f 397/1/188 422/1/298 423/1/92 416/1/95
f 162/1/210 169/1/68 170/1/71
f 134/1/262 143/1/274 171/1/299
f 134/1/262 171/1/299 172/1/300
f 371/1/301 387/1/302 365/1/57 364/1/169
f 26/1/90 414/1/278 18/1/222 17/1/221
f 419/1/82 439/1/81 433/1/303 427/1/239
f 309/1/304 318/1/287 317/1/286 308/1/305
f 359/1/5 368/1/8 351/1/172 350/1/306
f 360/1/171 361/1/307 352/1/308 351/1/172
f 406/1/237 412/1/269 400/1/271 399/1/309
f 143/1/274 179/1/310 171/1/299
f 218/1/311 265/1/312 219/1/313 192/1/314
f 398/1/189 416/1/95 409/1/94 405/1/238
f 453/1/315 458/1/316 440/1/247 446/1/317
f 433/1/303 459/1/318 453/1/315 446/1/317
f 351/1/172 352/1/308 344/1/319 350/1/306
f 244/1/320 345/1/321 254/1/102 249/1/105
f 179/1/310 187/1/322 185/1/101
f 333/1/225 383/1/323 353/1/324 345/1/321
f 166/1/325 173/1/326 231/1/327 224/1/328
f 490/1/329 495/1/330 494/1/331 491/1/332
f 338/1/141 350/1/306 344/1/319 339/1/333
f 409/1/94 430/1/93 429/1/334 410/1/236
f 410/1/236 429/1/334 432/1/335 411/1/267
f 432/1/335 438/1/336 426/1/337 411/1/267
f 426/1/337 425/1/338 417/1/268 411/1/267
f 418/1/83 413/1/284 412/1/269 417/1/268
f 338/1/141 339/1/333 330/1/339 337/1/142
f 417/1/268 425/1/338 424/1/80 418/1/83
f 39/1/96 52/1/118 58/1/65 57/1/97
f 305/1/36 321/1/340 314/1/341 306/1/342
f 435/1/84 436/1/87 429/1/334 430/1/93
f 470/1/76 481/1/75 456/1/343 460/1/344
f 431/1/345 445/1/346 424/1/80 425/1/338
f 426/1/337 451/1/347 431/1/345 425/1/338
f 198/1/348 199/1/349 193/1/350 195/1/351
f 131/1/119 47/1/117 41/1/204 46/1/252
f 322/1/352 323/1/353 314/1/341 321/1/340
f 444/1/354 459/1/318 433/1/303 439/1/81
f 151/1/123 155/1/355 148/1/277 145/1/124
f 436/1/87 437/1/356 432/1/335 429/1/334
f 469/1/357 475/1/358 332/1/242 465/1/241
f 492/1/359 494/1/331 489/1/259 485/1/360
f 473/1/361 474/1/362 452/1/363 468/1/364
f 459/1/318 331/1/244 324/1/365 453/1/315
f 403/1/216 479/1/215 480/1/366 477/1/367
f 150/1/60 156/1/368 157/1/369 149/1/276
f 437/1/356 461/1/370 438/1/336 432/1/335
f 458/1/316 453/1/315 324/1/365 315/1/371
f 440/1/247 458/1/316 292/1/372 447/1/245
f 260/1/373 278/1/374 267/1/375 261/1/376
f 451/1/347 468/1/364 452/1/363 431/1/345
f 388/1/377 394/1/296 374/1/7 381/1/6
f 388/1/377 381/1/6 365/1/57 387/1/302
f 426/1/337 438/1/336 457/1/378 451/1/347
f 293/1/379 294/1/380 288/1/266 292/1/372
f 292/1/372 458/1/316 315/1/371 293/1/379
f 464/1/21 468/1/364 451/1/347 457/1/378
f 394/1/296 388/1/377 402/1/381 397/1/188
f 288/1/266 294/1/380 276/1/19 281/1/18
f 97/1/12 98/1/4 106/1/26 105/1/29
f 474/1/362 475/1/358 469/1/357 452/1/363
f 173/1/326 237/1/382 231/1/327
f 301/1/383 309/1/304 308/1/305 304/1/384
f 305/1/36 328/1/35 329/1/207 321/1/340
f 315/1/371 324/1/365 316/1/385 307/1/386
f 235/1/387 241/1/388 242/1/389
f 235/1/387 242/1/389 236/1/390
f 239/1/391 242/1/389 240/1/392
f 215/1/393 247/1/394 207/1/395 182/1/396
f 236/1/390 242/1/389 243/1/397
f 293/1/379 315/1/371 307/1/386 300/1/398
f 158/1/399 155/1/355 151/1/123 154/1/122
f 239/1/391 245/1/257 242/1/389
f 294/1/380 293/1/379 300/1/398 295/1/400
f 240/1/392 242/1/389 246/1/401
f 241/1/388 246/1/401 242/1/389
f 324/1/365 331/1/244 325/1/243 316/1/385
f 240/1/392 215/1/393 234/1/231 239/1/391
f 468/1/364 464/1/21 478/1/24 473/1/361
f 243/1/397 242/1/389 248/1/402
f 387/1/302 408/1/403 402/1/381 388/1/377
f 276/1/19 294/1/380 295/1/400 269/1/404
f 245/1/257 251/1/256 242/1/389
f 248/1/402 242/1/389 252/1/405
f 118/1/203 119/1/38 110/1/115 117/1/114
f 113/1/59 114/1/32 106/1/26 107/1/25
f 401/1/223 408/1/403 387/1/302 393/1/224
f 401/1/223 449/1/406 415/1/407 408/1/403
f 251/1/256 255/1/408 242/1/389
f 256/1/20 276/1/19 269/1/404 262/1/409
f 252/1/405 242/1/389 257/1/410
f 428/1/240 434/1/234 27/1/41 19/1/40
f 462/1/411 457/1/378 438/1/336 461/1/370
f 13/1/44 21/1/46 17/1/221 10/1/212
f 43/1/107 61/1/158 59/1/144 53/1/131
f 255/1/408 262/1/409 242/1/389
f 257/1/410 242/1/389 263/1/412
f 47/1/117 52/1/118 34/1/138 41/1/204
f 353/1/324 354/1/413 254/1/102 345/1/321
f 250/1/104 266/1/103 260/1/373
f 95/1/27 96/1/167 74/1/132 89/1/193
f 348/1/248 372/1/414 371/1/301 364/1/169
f 6/1/154 16/1/156 7/1/218 1/1/197
f 262/1/409 269/1/404 242/1/389
f 467/1/260 495/1/330 461/1/370 437/1/356
f 219/1/313 272/1/415 211/1/416
f 463/1/22 488/1/285 482/1/288 483/1/23
f 442/1/86 472/1/261 467/1/260 437/1/356
f 7/1/218 14/1/47 12/1/49 9/1/211
f 283/1/417 284/1/418 267/1/375 278/1/374
f 326/1/419 327/1/228 272/1/415 320/1/420
f 329/1/207 349/1/206 348/1/248 343/1/249
f 238/1/17 256/1/20 233/1/421 139/1/422
f 194/1/423 218/1/311 192/1/314 187/1/322
f 494/1/331 495/1/330 467/1/260 489/1/259
f 259/1/424 265/1/312 218/1/311 225/1/109
f 135/1/263 152/1/175 136/1/275 129/1/251
f 109/1/63 110/1/115 101/1/2 92/1/64
f 419/1/82 420/1/283 413/1/284 418/1/83
f 356/1/425 378/1/184 377/1/195 372/1/414
f 356/1/425 372/1/414 348/1/248 349/1/206
f 305/1/36 306/1/342 285/1/426 299/1/37
f 11/1/43 3/1/42 2/1/213 10/1/212
f 108/1/116 133/1/427 126/1/428 116/1/113
f 492/1/359 493/1/429 491/1/332 494/1/331
f 311/1/430 484/1/431 312/1/432 310/1/433
f 32/1/176 68/1/79 67/1/157 61/1/158
f 126/1/428 226/1/434 221/1/233 220/1/201
f 182/1/396 207/1/395 174/1/435 175/1/436
f 312/1/432 479/1/215 319/1/214 313/1/437
f 295/1/400 242/1/389 269/1/404
f 263/1/412 242/1/389 296/1/438
f 452/1/363 469/1/357 445/1/346 431/1/345
f 491/1/332 493/1/429 308/1/305 317/1/286
f 62/1/159 69/1/161 63/1/152 55/1/136
f 298/1/34 335/1/51 336/1/205 328/1/35
f 139/1/422 226/1/434 126/1/428 133/1/427
f 295/1/400 300/1/398 242/1/389
f 296/1/438 242/1/389 301/1/383
f 256/1/20 262/1/409 255/1/408 233/1/421
f 308/1/305 493/1/429 302/1/439 304/1/384
f 424/1/80 445/1/346 444/1/354 439/1/81
f 322/1/352 337/1/142 330/1/339 323/1/353
f 298/1/34 299/1/37 279/1/440 291/1/52
f 227/1/230 245/1/257 239/1/391 234/1/231
f 300/1/398 307/1/386 242/1/389
f 132/1/254 238/1/17 139/1/422 133/1/427
f 301/1/383 304/1/384 297/1/441 296/1/438
f 301/1/383 242/1/389 309/1/304
f 448/1/442 460/1/344 456/1/343 450/1/85
f 113/1/59 125/1/196 156/1/368 150/1/60
f 311/1/430 492/1/359 485/1/360 484/1/431
f 279/1/440 280/1/443 208/1/444 275/1/445
f 221/1/233 214/1/232 127/1/202 220/1/201
f 307/1/386 316/1/385 242/1/389
f 296/1/438 297/1/441 289/1/446 263/1/412
f 309/1/304 242/1/389 318/1/287
f 485/1/360 489/1/259 487/1/258 486/1/447
f 329/1/207 343/1/249 322/1/352 321/1/340
f 163/1/448 173/1/326 166/1/325 159/1/293
f 176/1/449 183/1/290 177/1/69 168/1/165
f 316/1/385 325/1/243 242/1/389
f 191/1/98 211/1/416 204/1/227 197/1/99
f 456/1/343 472/1/261 442/1/86 450/1/85
f 274/1/450 291/1/52 279/1/440 275/1/445
f 274/1/450 275/1/445 201/1/451 268/1/452
f 196/1/453 203/1/454 201/1/451 202/1/455
f 325/1/243 332/1/242 242/1/389
f 213/1/456 247/1/394 246/1/401 241/1/388
f 283/1/417 347/1/457 346/1/458 340/1/459
f 448/1/442 450/1/85 435/1/84 443/1/170
f 415/1/407 449/1/406 448/1/442 443/1/170
f 290/1/50 291/1/52 274/1/450 284/1/418
f 39/1/96 44/1/56 24/1/125 33/1/139
f 189/1/460 190/1/461 184/1/291 183/1/290
f 346/1/458 369/1/130 370/1/462 362/1/463
f 290/1/50 340/1/459 341/1/464 335/1/51
f 189/1/460 210/1/465 209/1/466 203/1/454
f 209/1/466 268/1/452 201/1/451 203/1/454
f 35/1/112 53/1/131 54/1/146 48/1/177
f 363/1/181 378/1/184 356/1/425 357/1/467
f 370/1/462 390/1/468 389/1/469 385/1/182
f 428/1/240 446/1/317 440/1/247 434/1/234
f 267/1/375 268/1/452 209/1/466 261/1/376
f 136/1/275 140/1/149 122/1/148 129/1/251
f 401/1/223 455/1/194 454/1/220 449/1/406
f 454/1/220 460/1/344 448/1/442 449/1/406
f 132/1/254 133/1/427 108/1/116 131/1/119
f 3/1/42 4/1/198 1/1/197 2/1/213
f 126/1/428 220/1/201 117/1/114 116/1/113
f 193/1/350 186/1/470 157/1/369 195/1/351
f 283/1/417 340/1/459 290/1/50 284/1/418
f 462/1/411 490/1/329 488/1/285 463/1/22
f 176/1/449 210/1/465 189/1/460 183/1/290
f 279/1/440 299/1/37 285/1/426 280/1/443
f 346/1/458 362/1/463 341/1/464 340/1/459
f 141/1/61 150/1/60 149/1/276 142/1/270
f 216/1/471 261/1/376 209/1/466 210/1/465
f 176/1/449 217/1/472 216/1/471 210/1/465
f 201/1/451 275/1/445 208/1/444 202/1/455
f 360/1/171 367/1/294 361/1/307
f 168/1/165 177/1/69 169/1/68 161/1/166
f 31/1/55 68/1/79 32/1/176 25/1/126
f 370/1/462 385/1/182 363/1/181 362/1/463
f 246/1/401 247/1/394 215/1/393 240/1/392
f 260/1/373 261/1/376 216/1/471 250/1/104
f 134/1/262 172/1/300 163/1/448 135/1/263
f 374/1/7 394/1/296 380/1/297 373/1/292
f 167/1/164 217/1/472 176/1/449 168/1/165
f 341/1/464 357/1/467 336/1/205 335/1/51
f 389/1/469 466/1/219 384/1/183 385/1/182
f 297/1/441 304/1/384 302/1/439 303/1/473
f 273/1/474 278/1/374 260/1/373 266/1/103
f 102/1/208 379/1/264 72/1/200
f 373/1/292 380/1/297 379/1/264
f 167/1/164 160/1/163 159/1/293 166/1/325
f 466/1/219 470/1/76 460/1/344 454/1/220
f 389/1/469 471/1/77 470/1/76 466/1/219
f 174/1/435 200/1/475 164/1/476 165/1/477
f 355/1/127 347/1/457 273/1/474 354/1/413
f 355/1/127 369/1/130 346/1/458 347/1/457
f 103/1/187 104/1/186 82/1/168 96/1/167
f 135/1/263 163/1/448 159/1/293 152/1/175
f 127/1/202 214/1/232 182/1/396 175/1/436
f 322/1/352 343/1/249 342/1/140 337/1/142
f 375/1/129 390/1/468 370/1/462 369/1/130
f 312/1/432 484/1/431 480/1/366 479/1/215
f 128/1/250 143/1/274 134/1/262 129/1/251
f 386/1/265 391/1/295 64/1/153
f 189/1/460 203/1/454 196/1/453 190/1/461
f 371/1/301 393/1/224 387/1/302
f 380/1/297 392/1/190 386/1/265 379/1/264
f 396/1/478 477/1/367 476/1/74 471/1/77
f 396/1/478 471/1/77 389/1/469 390/1/468
f 172/1/300 181/1/479 173/1/326 163/1/448
f 12/1/49 20/1/45 13/1/44 9/1/211
f 38/1/91 399/1/309 400/1/271
f 95/1/27 130/1/30 103/1/187 96/1/167
f 254/1/102 354/1/413 273/1/474 266/1/103
f 415/1/407 422/1/298 402/1/381 408/1/403
f 144/1/273 186/1/470 179/1/310 143/1/274
f 486/1/447 487/1/258 481/1/75 476/1/74
f 78/1/54 85/1/31 83/1/192 76/1/78
f 363/1/181 357/1/467 341/1/464 362/1/463
f 399/1/309 391/1/295 405/1/238
f 405/1/238 391/1/295 398/1/189
f 399/1/309 405/1/238 406/1/237
f 415/1/407 443/1/170 423/1/92 422/1/298
f 7/1/218 9/1/211 2/1/213 1/1/197
f 179/1/310 185/1/101 180/1/100 171/1/299
f 194/1/423 222/1/110 225/1/109 218/1/311
f 406/1/237 410/1/236 411/1/267
f 186/1/470 193/1/350 187/1/322 179/1/310
f 157/1/369 186/1/470 144/1/273 149/1/276
f 382/1/480 404/1/481 375/1/129 376/1/128
f 391/1/295 399/1/309 38/1/91 64/1/153
f 244/1/320 249/1/105 231/1/327 237/1/382
f 491/1/332 317/1/286 488/1/285 490/1/329
f 164/1/476 195/1/351 157/1/369 156/1/368
f 444/1/354 465/1/241 331/1/244 459/1/318
f 233/1/421 255/1/408 251/1/256 232/1/255
f 402/1/381 422/1/298 397/1/188
f 180/1/100 197/1/99 188/1/482 181/1/479
f 334/1/226 244/1/320 237/1/382 188/1/482
f 188/1/482 237/1/382 173/1/326 181/1/479
f 297/1/441 303/1/473 282/1/483 289/1/446
f 164/1/476 200/1/475 198/1/348 195/1/351
f 180/1/100 181/1/479 172/1/300 171/1/299
f 119/1/38 118/1/203 124/1/484 115/1/39
f 217/1/472 167/1/164 166/1/325 224/1/328
f 125/1/196 165/1/477 164/1/476 156/1/368
f 223/1/485 228/1/111 222/1/110 205/1/486
f 287/1/246 447/1/245 292/1/372 288/1/266
f 487/1/258 472/1/261 456/1/343 481/1/75
f 124/1/484 165/1/477 125/1/196 115/1/39
f 311/1/430 302/1/439 493/1/429 492/1/359
f 124/1/484 175/1/436 174/1/435 165/1/477
f 287/1/246 286/1/253 46/1/252 45/1/15
f 461/1/370 495/1/330 490/1/329 462/1/411
f 204/1/227 334/1/226 188/1/482 197/1/99
f 270/1/487 320/1/420 272/1/415 219/1/313
f 433/1/303 446/1/317 428/1/240 427/1/239
f 127/1/202 175/1/436 124/1/484 118/1/203
f 359/1/5 350/1/306 338/1/141 358/1/58
f 198/1/348 212/1/488 205/1/486 199/1/349
f 436/1/87 442/1/86 437/1/356
f 272/1/415 327/1/228 204/1/227 211/1/416
f 206/1/489 212/1/488 198/1/348 200/1/475
f 174/1/435 207/1/395 206/1/489 200/1/475
f 333/1/225 345/1/321 244/1/320 334/1/226
f 236/1/390 223/1/485 230/1/490 235/1/387
f 407/1/272 400/1/271 412/1/269 413/1/284
f 212/1/488 230/1/490 223/1/485 205/1/486
f 445/1/346 469/1/357 465/1/241 444/1/354
f 40/1/16 45/1/15 46/1/252 41/1/204
f 193/1/350 199/1/349 194/1/423 187/1/322
f 273/1/474 347/1/457 283/1/417 278/1/374
f 277/1/491 313/1/437 270/1/487 271/1/492
f 353/1/324 376/1/128 355/1/127 354/1/413
f 383/1/323 333/1/225 327/1/228 326/1/419
f 248/1/402 229/1/108 228/1/111 243/1/397
f 141/1/61 138/1/66 137/1/33 114/1/32
f 224/1/328 250/1/104 216/1/471 217/1/472
f 214/1/232 234/1/231 215/1/393 182/1/396
f 205/1/486 222/1/110 194/1/423 199/1/349
f 265/1/312 271/1/492 270/1/487 219/1/313
f 253/1/493 259/1/424 225/1/109 229/1/108
f 231/1/327 249/1/105 250/1/104 224/1/328
f 207/1/395 247/1/394 213/1/456 206/1/489
f 213/1/456 230/1/490 212/1/488 206/1/489
f 267/1/375 284/1/418 274/1/450 268/1/452
f 185/1/101 187/1/322 192/1/314 191/1/98
f 65/1/9 84/1/11 51/1/53 57/1/97
f 326/1/419 395/1/217 382/1/480 383/1/323
f 90/1/28 89/1/193 83/1/192 85/1/31
f 236/1/390 243/1/397 228/1/111 223/1/485
f 474/1/362 473/1/361 242/1/389
f 377/1/195 393/1/224 371/1/301 372/1/414
f 474/1/362 242/1/389 475/1/358
f 213/1/456 241/1/388 235/1/387 230/1/490
f 475/1/358 242/1/389 332/1/242
f 403/1/216 477/1/367 396/1/478 404/1/481
f 403/1/216 404/1/481 382/1/480 395/1/217
f 192/1/314 219/1/313 211/1/416 191/1/98
f 473/1/361 478/1/24 242/1/389
f 480/1/366 486/1/447 476/1/74 477/1/367
f 485/1/360 486/1/447 480/1/366 484/1/431
f 353/1/324 383/1/323 382/1/480 376/1/128
f 242/1/389 482/1/288 318/1/287
f 242/1/389 478/1/24 483/1/23
f 252/1/405 253/1/493 229/1/108 248/1/402
f 242/1/389 483/1/23 482/1/288
f 257/1/410 258/1/494 253/1/493 252/1/405
f 336/1/205 357/1/467 356/1/425 349/1/206
f 24/1/125 25/1/126 15/1/180 16/1/156
f 233/1/421 232/1/255 226/1/434 139/1/422
f 92/1/64 101/1/2 93/1/1 65/1/9
f 319/1/214 320/1/420 270/1/487 313/1/437
f 319/1/214 395/1/217 326/1/419 320/1/420
f 263/1/412 289/1/446 258/1/494 257/1/410
f 258/1/494 264/1/495 259/1/424 253/1/493
f 264/1/495 271/1/492 265/1/312 259/1/424
f 226/1/434 232/1/255 227/1/230 221/1/233
f 258/1/494 289/1/446 282/1/483 264/1/495
f 303/1/473 302/1/439 311/1/430 310/1/433
f 303/1/473 310/1/433 277/1/491 282/1/483
f 264/1/495 282/1/483 277/1/491 271/1/492
f 312/1/432 313/1/437 277/1/491 310/1/433
f 463/1/22 464/1/21 457/1/378 462/1/411
f 496/1/496 497/1/497 498/1/498
f 496/1/496 499/1/499 497/1/497
f 498/1/498 497/1/497 500/1/500
f 499/1/499 501/1/501 497/1/497
f 500/1/500 497/1/497 502/1/502
f 500/1/500 502/1/502 503/1/503
f 501/1/501 504/1/504 497/1/497
f 503/1/503 502/1/502 505/1/505
f 504/1/504 506/1/506 497/1/497
f 505/1/505 502/1/502 507/1/507
f 506/1/506 508/1/508 497/1/497
f 507/1/507 502/1/502 509/1/509
f 508/1/508 510/1/510 497/1/497
f 509/1/509 502/1/502 511/1/511
f 510/1/510 512/1/512 497/1/497
f 511/1/511 502/1/502 513/1/513
f 512/1/512 514/1/514 497/1/497
f 513/1/513 502/1/502 515/1/515
f 514/1/514 516/1/516 497/1/497
f 515/1/515 502/1/502 517/1/517
f 516/1/516 518/1/518 497/1/497
f 502/1/502 497/1/497 519/1/519
f 502/1/502 520/1/520 517/1/517
f 502/1/502 519/1/519 520/1/520
f 519/1/519 497/1/497 521/1/521
f 519/1/519 521/1/521 520/1/520
f 517/1/517 520/1/520 521/1/521
f 517/1/517 521/1/521 522/1/522
f 518/1/518 523/1/523 497/1/497
f 522/1/522 521/1/521 524/1/524
f 523/1/523 525/1/525 497/1/497
f 524/1/524 521/1/521 526/1/526
f 525/1/525 527/1/527 497/1/497
f 526/1/526 521/1/521 528/1/528
f 527/1/527 529/1/529 497/1/497
f 528/1/528 521/1/521 530/1/530
f 529/1/529 531/1/531 497/1/497
f 530/1/530 521/1/521 532/1/532
f 531/1/531 533/1/533 497/1/497
f 532/1/532 521/1/521 534/1/534
f 533/1/533 535/1/535 497/1/497
f 521/1/521 497/1/497 536/1/536
f 534/1/534 521/1/521 536/1/536
f 535/1/535 537/1/537 497/1/497
f 536/1/536 497/1/497 538/1/538
f 537/1/537 539/1/539 497/1/497
f 538/1/538 497/1/497 540/1/540
f 539/1/539 541/1/541 497/1/497
f 497/1/497 542/1/542 540/1/540
f 497/1/497 541/1/541 542/1/542
f 505/1/505 543/1/543 503/1/503
f 543/1/543 500/1/500 503/1/503
f 505/1/505 544/1/544 543/1/543
f 544/1/544 545/1/544 543/1/543
f 543/1/543 546/1/544 500/1/500
f 543/1/543 545/1/544 546/1/544
f 532/1/532 534/1/534 547/1/545
f 547/1/545 534/1/534 536/1/536
f 532/1/532 547/1/545 548/1/546
f 547/1/545 536/1/536 549/1/546
f 547/1/545 550/1/546 548/1/546
f 547/1/545 549/1/546 550/1/546
f 404/1/481 396/1/478 390/1/468 375/1/129
