# Blender 4.3.2
# www.blender.org
o hair.096
v 6.759729 0.318082 0.011644
v 6.742878 0.322400 0.005892
v 6.757455 0.311866 0.013160
v 6.760014 0.322805 0.012302
v 6.741514 0.318187 0.006945
v 6.758647 0.304863 0.013417
v 6.743572 0.325225 0.007645
v 6.758729 0.328401 0.014811
v 6.758877 0.302701 0.012095
v 6.725573 0.324507 0.000731
v 6.744265 0.328050 0.009398
v 6.744818 0.329922 0.009459
v 6.757915 0.331451 0.015377
v 6.757050 0.298284 0.003269
v 6.745370 0.331794 0.009521
v 6.756901 0.334752 0.014788
v 6.756491 0.298397 0.001514
v 6.750578 0.338253 0.012445
v 6.746476 0.335537 0.009643
v 6.755711 0.340349 0.013160
v 6.754116 0.303688 -0.006822
v 6.750090 0.343535 0.013315
v 6.746841 0.341253 0.011219
v 6.753652 0.346122 0.014213
v 6.749382 0.303688 -0.015453
v 6.750315 0.298755 -0.014890
v 6.747207 0.346968 0.012795
v 6.749037 0.348892 0.014878
v 6.751902 0.351668 0.015947
v 6.748563 0.298771 -0.018093
v 6.749540 0.298210 -0.016726
v 6.744647 0.303688 -0.024083
v 6.747082 0.353646 0.017069
v 6.744284 0.352508 0.015626
v 6.753688 0.349726 0.014195
v 6.752045 0.353882 0.015763
v 6.750407 0.355008 0.017380
v 6.750663 0.356325 0.016959
v 6.738457 0.303688 -0.028531
v 6.739664 0.298783 -0.028386
v 6.741361 0.358049 0.018458
v 6.753246 0.353202 0.013629
v 6.751296 0.357695 0.016021
v 6.748394 0.358224 0.019182
v 6.749498 0.358494 0.018157
v 6.754889 0.345827 0.012478
v 6.755711 0.340349 0.013160
v 6.738544 0.298211 -0.029494
v 6.754608 0.350918 0.011247
v 6.754084 0.354968 0.009931
v 6.752885 0.356803 0.012730
v 6.747645 0.361384 0.020035
v 6.756901 0.334752 0.014788
v 6.759581 0.332477 0.002227
v 6.756815 0.339330 0.002840
v 6.755276 0.349705 0.007156
v 6.737241 0.298803 -0.030080
v 6.751246 0.360377 0.014951
v 6.753172 0.359051 0.008595
v 6.752326 0.360436 0.011485
v 6.757915 0.331451 0.015377
v 6.754612 0.353334 0.006102
v 6.755455 0.348459 0.002149
v 6.732266 0.303688 -0.032979
v 6.749167 0.361800 0.018259
v 6.753654 0.357710 0.004663
v 6.751815 0.362669 0.006844
v 6.750373 0.364490 0.012639
v 6.758729 0.328401 0.014811
v 6.725573 0.302743 -0.031437
v 6.726861 0.298904 -0.033765
v 6.747228 0.365002 0.020330
v 6.749404 0.363559 0.017047
v 6.754105 0.355103 0.001323
v 6.752599 0.360284 0.000591
v 6.750175 0.365680 0.005475
v 6.758806 0.322227 0.002133
v 6.760014 0.322805 0.012302
v 6.725573 0.298210 -0.033978
v 6.747352 0.366663 0.019181
v 6.746639 0.368861 0.017689
v 6.748732 0.366582 0.015650
v 6.753875 0.352100 -0.004492
v 6.759047 0.316328 0.002101
v 6.754162 0.328969 -0.006843
v 6.759729 0.318082 0.011644
v 6.724285 0.298904 -0.033765
v 6.745081 0.368979 0.020819
v 6.747589 0.369067 0.014380
v 6.749032 0.367494 0.010853
v 6.757455 0.311866 0.013160
v 6.753194 0.334868 -0.006392
v 6.754375 0.340848 -0.007126
v 6.718879 0.303688 -0.032979
v 6.747024 0.370134 0.009136
v 6.752406 0.331918 -0.018365
v 6.748864 0.340345 -0.019500
v 6.753865 0.344031 -0.008785
v 6.755335 0.346051 -0.002999
v 6.712689 0.303688 -0.028531
v 6.713905 0.298803 -0.030080
v 6.751009 0.322227 -0.018148
v 6.758018 0.319278 -0.011071
v 6.744678 0.328969 -0.024133
v 6.744030 0.334868 -0.023097
v 6.712602 0.298211 -0.029494
v 6.706500 0.303688 -0.024083
v 6.711483 0.298783 -0.028386
v 6.751193 0.316328 -0.018326
v 6.754814 0.309587 -0.007147
v 6.740095 0.331918 -0.034159
v 6.738178 0.340345 -0.029849
v 6.701765 0.303688 -0.015453
v 6.702583 0.298771 -0.018093
v 6.761633 0.306637 0.004261
v 6.754116 0.303688 -0.006822
v 6.750759 0.347574 -0.016108
v 6.742736 0.346753 -0.026440
v 6.747385 0.347086 -0.021640
v 6.739339 0.322227 -0.031699
v 6.749658 0.319278 -0.028945
v 6.701606 0.298210 -0.016726
v 6.758647 0.304863 0.013417
v 6.756491 0.298397 0.001514
v 6.752900 0.349242 -0.010528
v 6.746202 0.351337 -0.022522
v 6.732277 0.328969 -0.033043
v 6.739439 0.316328 -0.031976
v 6.745113 0.309587 -0.024830
v 6.700831 0.298755 -0.014890
v 6.758877 0.302701 0.012095
v 6.757050 0.298284 0.003269
v 6.732050 0.334868 -0.031705
v 6.753172 0.306637 -0.017745
v 6.744647 0.303688 -0.024083
v 6.697030 0.303688 -0.006822
v 6.725573 0.340345 -0.033484
v 6.725573 0.331918 -0.040134
v 6.731516 0.346325 -0.032430
v 6.737288 0.346519 -0.030155
v 6.748563 0.298771 -0.018093
v 6.694655 0.298397 0.001514
v 6.725573 0.322227 -0.036457
v 6.733182 0.319278 -0.039261
v 6.718868 0.328969 -0.033043
v 6.719095 0.334868 -0.031705
v 6.736561 0.350392 -0.030163
v 6.741739 0.350798 -0.026869
v 6.750315 0.298755 -0.014890
v 6.749540 0.298210 -0.016726
v 6.694096 0.298284 0.003269
v 6.717964 0.319278 -0.039261
v 6.711807 0.322227 -0.031699
v 6.740368 0.354916 -0.026685
v 6.692269 0.302701 0.012095
v 6.709632 0.318187 0.006945
v 6.732430 0.309587 -0.033944
v 6.740510 0.306637 -0.035320
v 6.711708 0.316328 -0.031976
v 6.692499 0.304863 0.013417
v 6.693690 0.311866 0.013160
v 6.708268 0.322400 0.005892
v 6.728227 0.317803 -0.036672
v 6.732266 0.303688 -0.032979
v 6.738544 0.298211 -0.029494
v 6.737241 0.298803 -0.030080
v 6.739664 0.298783 -0.028386
v 6.718716 0.309587 -0.033944
v 6.710636 0.306637 -0.035320
v 6.706033 0.309587 -0.024830
v 6.691417 0.318082 0.011644
v 6.691133 0.322805 0.012302
v 6.707574 0.325225 0.007645
v 6.722919 0.317803 -0.036672
v 6.718879 0.303688 -0.032979
v 6.706500 0.303688 -0.024083
v 6.692417 0.328401 0.014811
v 6.706881 0.328050 0.009398
v 6.725573 0.306637 -0.041465
v 6.725573 0.317803 -0.036672
v 6.713905 0.298803 -0.030080
v 6.711483 0.298783 -0.028386
v 6.706328 0.329922 0.009459
v 6.693231 0.331451 0.015377
v 6.712602 0.298211 -0.029494
v 6.705776 0.331794 0.009521
v 6.694245 0.334752 0.014788
v 6.724285 0.298904 -0.033765
v 6.700568 0.338253 0.012445
v 6.704670 0.335537 0.009643
v 6.695436 0.340349 0.013160
v 6.725573 0.298210 -0.033978
v 6.726861 0.298904 -0.033765
v 6.701056 0.343535 0.013315
v 6.704305 0.341253 0.011219
v 6.697494 0.346122 0.014213
v 6.703939 0.346968 0.012795
v 6.702109 0.348892 0.014878
v 6.699244 0.351668 0.015947
v 6.704064 0.353646 0.017069
v 6.706862 0.352508 0.015626
v 6.697458 0.349726 0.014195
v 6.699101 0.353882 0.015763
v 6.700739 0.355008 0.017380
v 6.700483 0.356325 0.016959
v 6.709785 0.358049 0.018458
v 6.706067 0.357511 0.019104
v 6.702751 0.358224 0.019182
v 6.699850 0.357695 0.016021
v 6.697900 0.353202 0.013629
v 6.696538 0.350918 0.011247
v 6.696257 0.345827 0.012478
v 6.701648 0.358494 0.018157
v 6.695436 0.340349 0.013160
v 6.707150 0.360215 0.020982
v 6.712448 0.361516 0.024168
v 6.709397 0.360967 0.022135
v 6.713476 0.358216 0.021050
v 6.698261 0.356803 0.012730
v 6.697062 0.354968 0.009931
v 6.695870 0.349705 0.007156
v 6.703501 0.361384 0.020035
v 6.691566 0.332477 0.002227
v 6.694245 0.334752 0.014788
v 6.694331 0.339330 0.002840
v 6.704849 0.361198 0.021286
v 6.708170 0.364083 0.023770
v 6.717166 0.358383 0.023641
v 6.696534 0.353334 0.006102
v 6.695691 0.348459 0.002149
v 6.693231 0.331451 0.015377
v 6.695811 0.346051 -0.002999
v 6.696771 0.340848 -0.007126
v 6.705340 0.364140 0.021866
v 6.716305 0.361856 0.026316
v 6.720786 0.362024 0.027720
v 6.721370 0.358247 0.024399
v 6.697042 0.355103 0.001323
v 6.697493 0.357710 0.004663
v 6.697271 0.352100 -0.004492
v 6.692417 0.328401 0.014811
v 6.715668 0.365402 0.028293
v 6.725573 0.358111 0.025156
v 6.711806 0.364896 0.026151
v 6.698547 0.360284 0.000591
v 6.697974 0.359051 0.008595
v 6.699331 0.362669 0.006844
v 6.692340 0.322227 0.002133
v 6.691133 0.322805 0.012302
v 6.725573 0.362065 0.028234
v 6.730360 0.362024 0.027720
v 6.729776 0.358247 0.024399
v 6.711496 0.367535 0.026623
v 6.698820 0.360436 0.011485
v 6.699900 0.360377 0.014951
v 6.692099 0.316328 0.002101
v 6.696983 0.328969 -0.006843
v 6.691417 0.318082 0.011644
v 6.733980 0.358383 0.023641
v 6.700773 0.364490 0.012639
v 6.701979 0.361800 0.018259
v 6.701741 0.363559 0.017047
v 6.693690 0.311866 0.013160
v 6.697951 0.334868 -0.006392
v 6.734841 0.361856 0.026316
v 6.737670 0.358216 0.021050
v 6.738698 0.361516 0.024168
v 6.700971 0.365680 0.005475
v 6.703918 0.365002 0.020330
v 6.702282 0.340345 -0.019500
v 6.698740 0.331918 -0.018365
v 6.697280 0.344031 -0.008785
v 6.706470 0.365823 0.022822
v 6.707115 0.334868 -0.023097
v 6.706469 0.328969 -0.024133
v 6.700137 0.322227 -0.018148
v 6.693127 0.319278 -0.011071
v 6.700387 0.347574 -0.016108
v 6.698246 0.349242 -0.010528
v 6.708549 0.366842 0.024410
v 6.699953 0.316328 -0.018326
v 6.696332 0.309587 -0.007147
v 6.698674 0.356753 -0.005928
v 6.699595 0.353869 -0.011866
v 6.708419 0.368661 0.023778
v 6.689513 0.306637 0.004261
v 6.697030 0.303688 -0.006822
v 6.700376 0.363779 -0.000993
v 6.700522 0.360991 -0.007118
v 6.705906 0.367325 0.021845
v 6.692499 0.304863 0.013417
v 6.694655 0.298397 0.001514
v 6.694096 0.298284 0.003269
v 6.692269 0.302701 0.012095
v 6.702619 0.367028 -0.002241
v 6.702960 0.365008 -0.008092
v 6.704120 0.363045 -0.013518
v 6.701549 0.358307 -0.012838
v 6.706065 0.368979 0.020819
v 6.703794 0.366663 0.019181
v 6.705435 0.368044 -0.008681
v 6.703596 0.356693 -0.018123
v 6.701676 0.352036 -0.017365
v 6.708674 0.370525 0.022936
v 6.711753 0.371650 0.025402
v 6.711504 0.369652 0.026168
v 6.704507 0.368861 0.017689
v 6.702414 0.366582 0.015650
v 6.704944 0.351337 -0.022522
v 6.703762 0.347086 -0.021640
v 6.709457 0.372525 0.021118
v 6.715386 0.370294 0.028450
v 6.715385 0.368125 0.028833
v 6.703557 0.369067 0.014380
v 6.702115 0.367494 0.010853
v 6.708410 0.346753 -0.026440
v 6.712968 0.340345 -0.029849
v 6.706829 0.370967 0.019166
v 6.720404 0.365751 0.029820
v 6.720238 0.368578 0.030412
v 6.704123 0.370134 0.009136
v 6.703094 0.368746 0.003805
v 6.711051 0.331918 -0.034159
v 6.708066 0.373049 0.016386
v 6.705595 0.370960 0.015580
v 6.725573 0.365884 0.030426
v 6.705501 0.371286 0.001980
v 6.705090 0.369688 -0.003407
v 6.701488 0.319278 -0.028945
v 6.706627 0.372413 0.013748
v 6.705379 0.371228 0.012862
v 6.707708 0.371878 -0.004500
v 6.708862 0.374235 0.014272
v 6.707832 0.373812 0.010780
v 6.706500 0.372682 0.006901
v 6.697974 0.306637 -0.017745
v 6.710874 0.375153 0.017281
v 6.710583 0.375848 0.008260
v 6.709050 0.374716 0.004475
v 6.708078 0.373346 0.000108
v 6.702583 0.298771 -0.018093
v 6.712469 0.373727 0.023441
v 6.713838 0.376009 0.019502
v 6.712781 0.377005 0.012391
v 6.710830 0.374857 -0.001679
v 6.719630 0.346325 -0.032430
v 6.725573 0.346239 -0.033207
v 6.700831 0.298755 -0.014890
v 6.701606 0.298210 -0.016726
v 6.716111 0.374503 0.025695
v 6.713859 0.346519 -0.030155
v 6.725573 0.349948 -0.032863
v 6.731133 0.350081 -0.032177
v 6.713079 0.377080 0.005264
v 6.714585 0.350392 -0.030163
v 6.709406 0.350798 -0.026869
v 6.730669 0.353914 -0.031365
v 6.735640 0.354322 -0.029589
v 6.711686 0.376052 0.001993
v 6.720014 0.350081 -0.032177
v 6.706676 0.355706 -0.022806
v 6.710778 0.354916 -0.026685
v 6.734508 0.358504 -0.028325
v 6.714167 0.377064 -0.000326
v 6.720477 0.353914 -0.031365
v 6.725573 0.353757 -0.031970
v 6.706108 0.361488 -0.018309
v 6.708913 0.360249 -0.022424
v 6.715506 0.354322 -0.029589
v 6.716639 0.358504 -0.028325
v 6.721037 0.358038 -0.029870
v 6.725573 0.357875 -0.030398
v 6.730109 0.358038 -0.029870
v 6.706530 0.366460 -0.013584
v 6.708369 0.365042 -0.017859
v 6.721547 0.361642 -0.028035
v 6.725573 0.361488 -0.028500
v 6.729599 0.361642 -0.028035
v 6.738635 0.359247 -0.025804
v 6.733485 0.362092 -0.026676
v 6.737093 0.362828 -0.024461
v 6.708917 0.369071 -0.013258
v 6.707978 0.370434 -0.009025
v 6.712512 0.359247 -0.025804
v 6.725573 0.364749 -0.026299
v 6.742233 0.360249 -0.022424
v 6.744471 0.355706 -0.022806
v 6.732493 0.365277 -0.024701
v 6.710741 0.372418 -0.009209
v 6.710515 0.373609 -0.005494
v 6.714053 0.362828 -0.024461
v 6.717661 0.362092 -0.026676
v 6.747550 0.356693 -0.018123
v 6.749470 0.352036 -0.017365
v 6.729099 0.364883 -0.025891
v 6.713509 0.376012 -0.003251
v 6.713283 0.374967 -0.006289
v 6.718653 0.365277 -0.024701
v 6.722046 0.364883 -0.025891
v 6.751550 0.353869 -0.011866
v 6.728544 0.367825 -0.023333
v 6.722601 0.367825 -0.023333
v 6.725573 0.367713 -0.023677
v 6.716362 0.376941 -0.004573
v 6.752472 0.356753 -0.005928
v 6.749598 0.358307 -0.012838
v 6.750624 0.360991 -0.007118
v 6.725573 0.370284 -0.020923
v 6.747026 0.363045 -0.013518
v 6.745038 0.361488 -0.018309
v 6.748527 0.367028 -0.002241
v 6.750770 0.363779 -0.000993
v 6.748187 0.365008 -0.008092
v 6.745711 0.368044 -0.008681
v 6.744617 0.366460 -0.013584
v 6.742777 0.365042 -0.017859
v 6.740249 0.363821 -0.021489
v 6.748052 0.368746 0.003805
v 6.742229 0.369071 -0.013258
v 6.743168 0.370434 -0.009025
v 6.746056 0.369688 -0.003407
v 6.743438 0.371878 -0.004500
v 6.738366 0.366787 -0.020159
v 6.740598 0.367845 -0.016982
v 6.735623 0.365921 -0.022761
v 6.745645 0.371286 0.001980
v 6.740405 0.372418 -0.009209
v 6.743068 0.373346 0.000108
v 6.740631 0.373609 -0.005494
v 6.740316 0.374857 -0.001679
v 6.738226 0.370293 -0.015807
v 6.731401 0.368154 -0.022328
v 6.734031 0.368691 -0.020689
v 6.742096 0.374716 0.004475
v 6.744646 0.372682 0.006901
v 6.737863 0.374967 -0.006289
v 6.739612 0.371305 -0.012693
v 6.730316 0.370639 -0.019822
v 6.727991 0.370374 -0.020643
v 6.736337 0.369412 -0.018491
v 6.743314 0.373812 0.010780
v 6.745767 0.371228 0.012862
v 6.737006 0.373161 -0.011983
v 6.737666 0.374033 -0.009225
v 6.727416 0.372752 -0.017692
v 6.734335 0.371649 -0.016688
v 6.735874 0.372356 -0.014496
v 6.744519 0.372413 0.013748
v 6.740563 0.375848 0.008260
v 6.742284 0.374235 0.014272
v 6.745551 0.370960 0.015580
v 6.734809 0.375513 -0.009025
v 6.732457 0.371070 -0.018484
v 6.733426 0.374251 -0.013004
v 6.743080 0.373049 0.016386
v 6.739460 0.376052 0.001993
v 6.738067 0.377080 0.005264
v 6.744317 0.370967 0.019166
v 6.729189 0.372951 -0.017067
v 6.730821 0.373278 -0.016046
v 6.734294 0.374858 -0.011097
v 6.736979 0.377064 -0.000326
v 6.737637 0.376012 -0.003251
v 6.741688 0.372525 0.021118
v 6.728016 0.374906 -0.014048
v 6.732254 0.373716 -0.014676
v 6.731469 0.376196 -0.010017
v 6.734972 0.376209 -0.006835
v 6.734784 0.376941 -0.004573
v 6.740273 0.375153 0.017281
v 6.730087 0.375423 -0.012434
v 6.730990 0.375741 -0.011386
v 6.731945 0.377109 -0.007156
v 6.731951 0.377580 -0.005641
v 6.734251 0.377648 -0.002395
v 6.731458 0.378046 -0.004252
v 6.738365 0.377005 0.012391
v 6.729193 0.375070 -0.013484
v 6.728555 0.376869 -0.009654
v 6.731957 0.376616 -0.008644
v 6.729091 0.377877 -0.006514
v 6.733380 0.378266 -0.000457
v 6.735834 0.377888 0.002274
v 6.727566 0.376499 -0.010808
v 6.728951 0.377091 -0.008962
v 6.729091 0.377352 -0.008146
v 6.734309 0.378603 0.004485
v 6.736220 0.377984 0.008043
v 6.725573 0.377967 -0.007443
v 6.728159 0.376648 -0.010346
v 6.726973 0.376351 -0.011271
v 6.729229 0.377614 -0.007330
v 6.733986 0.378814 0.010254
v 6.735647 0.377950 0.014731
v 6.737308 0.376009 0.019502
v 6.726844 0.374707 -0.014619
v 6.726273 0.376299 -0.011433
v 6.728951 0.378140 -0.005698
v 6.732594 0.378597 0.016606
v 6.725573 0.374725 -0.014616
v 6.725573 0.372683 -0.017906
v 6.725573 0.376247 -0.011596
v 6.728555 0.378363 -0.005006
v 6.730979 0.378475 -0.002865
v 6.738677 0.373727 0.023441
v 6.739393 0.371650 0.025402
v 6.742472 0.370525 0.022936
v 6.723730 0.372752 -0.017692
v 6.723155 0.370374 -0.020643
v 6.724873 0.376299 -0.011433
v 6.735034 0.374503 0.025695
v 6.742726 0.368661 0.023778
v 6.733935 0.376819 0.021614
v 6.745240 0.367325 0.021845
v 6.720829 0.370639 -0.019822
v 6.719744 0.368154 -0.022328
v 6.724302 0.374707 -0.014619
v 6.729917 0.377382 0.022955
v 6.744676 0.365823 0.022822
v 6.745806 0.364140 0.021866
v 6.717115 0.368691 -0.020689
v 6.715523 0.365921 -0.022761
v 6.721957 0.372952 -0.017067
v 6.723130 0.374906 -0.014048
v 6.742597 0.366842 0.024410
v 6.742976 0.364083 0.023770
v 6.746297 0.361198 0.021286
v 6.710897 0.363821 -0.021489
v 6.712780 0.366787 -0.020159
v 6.720325 0.373278 -0.016046
v 6.724174 0.376351 -0.011271
v 6.739649 0.367535 0.026623
v 6.739642 0.369652 0.026168
v 6.718689 0.371070 -0.018484
v 6.723580 0.376499 -0.010808
v 6.735760 0.370294 0.028450
v 6.735586 0.372359 0.027710
v 6.710548 0.367845 -0.016982
v 6.714809 0.369412 -0.018491
v 6.716811 0.371649 -0.016688
v 6.721953 0.375070 -0.013484
v 6.730821 0.372958 0.029260
v 6.730525 0.375135 0.027167
v 6.712920 0.370293 -0.015807
v 6.711535 0.371305 -0.012693
v 6.718893 0.373716 -0.014676
v 6.721059 0.375423 -0.012434
v 6.725573 0.375415 0.027707
v 6.729179 0.379030 0.017781
v 6.725573 0.377601 0.023431
v 6.725573 0.379171 0.018187
v 6.713480 0.374033 -0.009225
v 6.714140 0.373161 -0.011983
v 6.717720 0.374251 -0.013004
v 6.722987 0.376648 -0.010346
v 6.728555 0.379816 0.012875
v 6.731408 0.379463 0.011877
v 6.721229 0.377382 0.022955
v 6.716337 0.375513 -0.009025
v 6.716174 0.376209 -0.006835
v 6.715272 0.372356 -0.014496
v 6.722591 0.376869 -0.009654
v 6.730335 0.379729 0.007611
v 6.732459 0.379238 0.006280
v 6.719201 0.377109 -0.007156
v 6.720155 0.375741 -0.011386
v 6.719677 0.376196 -0.010017
v 6.722195 0.377091 -0.008962
v 6.732217 0.378800 0.001206
v 6.730801 0.379259 0.002567
v 6.716852 0.374858 -0.011097
v 6.719189 0.376616 -0.008644
v 6.722055 0.377352 -0.008146
v 6.730078 0.378826 -0.001830
v 6.729188 0.379152 -0.000773
v 6.729182 0.379607 0.003583
v 6.728014 0.379350 -0.000220
v 6.721916 0.377614 -0.007330
v 6.727565 0.378733 -0.003851
v 6.728158 0.378586 -0.004314
v 6.727414 0.379810 0.004206
v 6.728003 0.380005 0.008429
v 6.719195 0.377580 -0.005641
v 6.722055 0.377877 -0.006514
v 6.726972 0.378879 -0.003389
v 6.725573 0.380089 0.008709
v 6.725573 0.379918 0.013217
v 6.716896 0.377648 -0.002395
v 6.719688 0.378046 -0.004252
v 6.722195 0.378140 -0.005698
v 6.726273 0.378931 -0.003227
v 6.726843 0.379518 0.000360
v 6.722591 0.379816 0.012875
v 6.721967 0.379030 0.017781
v 6.717766 0.378266 -0.000457
v 6.715312 0.377888 0.002274
v 6.722591 0.378363 -0.005006
v 6.725573 0.378982 -0.003065
v 6.725573 0.379530 0.000346
v 6.725573 0.379875 0.004419
v 6.718553 0.378597 0.016606
v 6.714926 0.377984 0.008043
v 6.716837 0.378603 0.004485
v 6.724874 0.378931 -0.003227
v 6.723732 0.379810 0.004206
v 6.724303 0.379518 0.000360
v 6.723143 0.380005 0.008429
v 6.715499 0.377950 0.014731
v 6.717160 0.378814 0.010254
v 6.724174 0.378879 -0.003389
v 6.723132 0.379350 -0.000220
v 6.722988 0.378586 -0.004314
v 6.723581 0.378733 -0.003851
v 6.720811 0.379729 0.007611
v 6.719738 0.379463 0.011877
v 6.717211 0.376819 0.021614
v 6.721068 0.378826 -0.001830
v 6.721958 0.379152 -0.000773
v 6.720167 0.378475 -0.002865
v 6.720622 0.375135 0.027167
v 6.720325 0.372958 0.029260
v 6.715560 0.372359 0.027710
v 6.720345 0.379259 0.002567
v 6.718688 0.379238 0.006280
v 6.721964 0.379607 0.003583
v 6.718928 0.378800 0.001206
v 6.725573 0.373230 0.029845
v 6.720237 0.370816 0.030029
v 6.725573 0.371047 0.030642
v 6.730909 0.370816 0.030029
v 6.725573 0.368770 0.031041
v 6.730908 0.368578 0.030412
v 6.735761 0.368125 0.028833
v 6.730742 0.365751 0.029820
v 6.735478 0.365402 0.028293
v 6.739340 0.364896 0.026151
v 6.741748 0.360967 0.022135
v 6.743996 0.360215 0.020982
v 6.745080 0.357511 0.019104
vn -0.0000 0.9743 0.2252
vn -0.0000 0.9251 0.3796
vn 0.1644 0.9158 0.3665
vn 0.1303 0.9675 0.2168
vn -0.7835 0.1740 0.5965
vn -0.8221 0.3823 0.4218
vn -0.8796 0.2905 0.3766
vn -0.8179 0.1264 0.5613
vn -0.3218 0.1121 0.9402
vn -0.3654 0.0017 0.9308
vn -0.5580 -0.3527 0.7512
vn 0.1858 0.9776 -0.0993
vn 0.1247 0.9889 -0.0812
vn 0.1626 0.9864 -0.0224
vn 0.2464 0.9682 -0.0430
vn -0.5969 -0.5649 0.5697
vn -0.0000 -0.8946 0.4469
vn -0.0827 -0.4771 0.8749
vn -0.2434 -0.5285 0.8133
vn -0.4321 -0.3672 0.8237
vn -0.1774 -0.4053 0.8968
vn -0.6210 -0.7141 0.3232
vn 0.4511 0.0427 0.8915
vn 0.3686 0.0658 0.9273
vn 0.3943 -0.0506 0.9176
vn 0.3904 -0.0644 0.9184
vn -0.6452 -0.7640 -0.0018
vn -0.4511 0.0427 0.8915
vn -0.3686 0.0658 0.9273
vn -0.3532 -0.0878 0.9314
vn -0.5876 0.0626 0.8067
vn -0.1514 0.0061 0.9885
vn -0.6703 -0.7417 0.0233
vn -0.2611 -0.2358 0.9361
vn -0.4423 0.8956 -0.0483
vn -0.3816 0.9243 -0.0075
vn -0.3082 0.9491 -0.0654
vn -0.3607 0.9273 -0.0998
vn -0.4174 -0.2167 0.8825
vn -0.7570 -0.5051 0.4145
vn -0.8886 -0.1176 0.4433
vn -0.4624 -0.1142 -0.8793
vn -0.8008 -0.4055 -0.4408
vn -0.7635 -0.2855 -0.5793
vn -0.7663 -0.2398 -0.5960
vn -0.8529 -0.1296 0.5057
vn -0.8644 -0.1374 0.4837
vn -0.5549 -0.6610 0.5051
vn 0.0827 -0.4771 0.8749
vn -0.4641 -0.1896 0.8652
vn -0.4715 -0.1475 0.8694
vn 0.1774 -0.4053 0.8968
vn 0.4321 -0.3672 0.8237
vn 0.2434 -0.5285 0.8133
vn 0.4715 -0.1475 0.8694
vn 0.4721 -0.0856 0.8774
vn 0.8330 0.0760 0.5480
vn -0.7962 0.0962 0.5973
vn -0.8968 0.1654 0.4104
vn -0.8330 0.0760 0.5480
vn 0.7403 0.0623 0.6694
vn 0.4641 -0.1896 0.8652
vn 0.7962 0.0962 0.5973
vn -0.4958 -0.5252 0.6916
vn -0.6284 -0.1320 0.7666
vn 0.9708 0.2378 -0.0325
vn 0.9859 0.1618 -0.0421
vn 0.9865 0.1494 0.0665
vn 0.9622 0.2258 0.1520
vn 0.8512 0.1475 0.5037
vn 0.9759 0.1103 -0.1883
vn 0.9611 0.1958 -0.1950
vn 0.9702 0.2234 -0.0943
vn 0.0672 -0.5369 0.8410
vn -0.4319 -0.2606 0.8634
vn -0.7437 0.0511 0.6666
vn -0.7403 0.0623 0.6694
vn 0.7437 0.0511 0.6666
vn -0.6520 0.7253 0.2210
vn -0.7168 0.6682 0.1994
vn -0.7780 0.5508 0.3022
vn -0.6933 0.6474 0.3167
vn 0.9259 0.1472 0.3479
vn -0.5604 -0.1521 0.8141
vn 0.8968 0.1654 0.4104
vn 0.9597 0.1457 0.2404
vn -0.9272 0.2092 0.3108
vn -0.9637 0.2120 0.1621
vn -0.9597 0.1457 0.2404
vn -0.4442 -0.2999 0.8443
vn -0.7206 0.0049 0.6933
vn 0.7206 0.0049 0.6933
vn -0.9622 0.2258 0.1520
vn -0.9708 0.2378 -0.0325
vn -0.9690 0.1472 -0.1982
vn -0.9416 0.3116 0.1276
vn -0.9801 0.1973 0.0200
vn -0.9865 0.1494 0.0665
vn -0.9859 0.1618 -0.0421
vn -0.5154 -0.1397 0.8455
vn -0.8512 0.1475 0.5037
vn -0.8980 0.2548 0.3588
vn -0.9251 0.3192 0.2059
vn 0.2256 0.9474 -0.2272
vn 0.2068 0.9593 -0.1924
vn 0.2727 0.9502 -0.1511
vn 0.3166 0.9275 -0.1989
vn 0.9416 0.3116 0.1276
vn 0.9519 0.2718 0.1418
vn 0.9690 0.1472 -0.1982
vn -0.9702 0.2234 -0.0943
vn -0.0936 -0.7069 0.7011
vn 0.8179 0.1264 0.5613
vn -0.4634 -0.3028 0.8328
vn -0.6049 -0.0781 0.7924
vn -0.2946 -0.6272 0.7210
vn -0.9496 0.3023 0.0830
vn -0.9611 0.2759 -0.0158
vn -0.9084 0.4176 0.0183
vn -0.9305 0.3493 -0.1105
vn 0.9496 0.3023 0.0830
vn 0.9084 0.4176 0.0183
vn 0.9251 0.3192 0.2059
vn 0.8959 0.4109 0.1692
vn 0.8980 0.2548 0.3588
vn 0.9888 0.1339 0.0656
vn -0.0000 -0.6694 0.7429
vn 0.1749 -0.4670 0.8668
vn 0.7835 0.1740 0.5965
vn -0.6426 0.0560 0.7642
vn -0.7239 0.2847 0.6284
vn -0.8616 0.4416 0.2502
vn -0.8959 0.4109 0.1692
vn 0.9611 0.2759 -0.0158
vn 0.9801 0.1973 0.0200
vn 0.9305 0.3493 -0.1105
vn -0.8596 0.5104 -0.0231
vn -0.8762 0.4600 -0.1439
vn -0.8391 0.5406 0.0608
vn -0.0033 -0.6806 0.7327
vn 0.2946 -0.6272 0.7210
vn 0.3702 -0.6074 0.7029
vn 0.3475 -0.7012 0.6226
vn -0.0000 -0.4889 0.8723
vn -0.9611 0.1958 -0.1951
vn -0.9759 0.1103 -0.1883
vn -0.9317 0.2828 -0.2281
vn -0.5835 0.8091 -0.0692
vn -0.6182 0.7718 -0.1490
vn -0.7135 0.6932 -0.1015
vn -0.6844 0.7288 -0.0194
vn -0.9095 -0.0312 -0.4144
vn -0.9249 0.1569 -0.3464
vn -0.9815 0.0346 -0.1882
vn -0.1749 -0.4670 0.8668
vn -0.7356 0.4876 0.4704
vn 0.4423 0.8956 -0.0483
vn 0.3816 0.9243 -0.0075
vn 0.4574 0.8860 0.0757
vn 0.5282 0.8491 -0.0005
vn 0.9249 0.1569 -0.3464
vn 0.9095 -0.0312 -0.4144
vn 0.9815 0.0346 -0.1882
vn -0.7940 0.5869 0.1586
vn 0.9921 -0.0401 -0.1190
vn 0.9857 -0.1592 -0.0544
vn 0.9774 0.0605 0.2024
vn 0.9427 0.0269 -0.3325
vn 0.0936 -0.7069 0.7011
vn 0.8791 0.3940 -0.2682
vn 0.8102 0.5084 -0.2916
vn 0.8077 0.5645 -0.1703
vn 0.8762 0.4600 -0.1439
vn -0.7605 0.6493 0.0119
vn -0.7907 0.6090 -0.0625
vn -0.8559 0.0458 -0.5150
vn -0.8759 0.2142 -0.4324
vn -0.8051 0.0077 -0.5931
vn -0.9427 0.0269 -0.3325
vn 0.8051 0.0077 -0.5931
vn 0.9436 0.0218 -0.3303
vn -0.9389 0.1325 -0.3177
vn -0.9436 0.0218 -0.3303
vn 0.4958 -0.5252 0.6916
vn 0.5154 -0.1397 0.8455
vn -0.9194 0.0310 -0.3920
vn 0.8759 0.2142 -0.4324
vn 0.8559 0.0458 -0.5150
vn 0.8778 -0.0206 -0.4787
vn 0.7535 0.0192 -0.6571
vn 0.7601 0.1748 -0.6259
vn 0.7317 0.0861 -0.6762
vn 0.5604 -0.1521 0.8141
vn 0.5549 -0.6610 0.5051
vn 0.6284 -0.1320 0.7666
vn 0.9194 0.0310 -0.3920
vn 0.9263 -0.1835 -0.3291
vn -0.7317 0.0861 -0.6762
vn -0.5143 0.1031 -0.8514
vn -0.4653 0.1248 -0.8763
vn -0.7601 0.1748 -0.6259
vn -0.6545 0.0013 -0.7561
vn 0.7570 -0.5051 0.4145
vn 0.8529 -0.1296 0.5057
vn 0.9925 -0.0738 -0.0978
vn 0.9021 -0.2736 -0.3338
vn 0.9113 -0.3541 -0.2101
vn 0.8773 -0.1088 -0.4674
vn 0.8928 0.0583 -0.4466
vn 0.7841 0.0319 -0.6198
vn 0.6545 0.0013 -0.7561
vn 0.5584 0.1817 -0.8094
vn 0.4653 0.1248 -0.8763
vn -0.7535 0.0192 -0.6571
vn -0.8778 -0.0206 -0.4787
vn -0.5584 0.1817 -0.8094
vn -0.5774 0.0163 -0.8163
vn 0.8644 -0.1374 0.4837
vn 0.9389 0.1325 -0.3177
vn -0.7539 0.1662 -0.6356
vn -0.6058 0.1497 -0.7814
vn -0.7841 0.0319 -0.6198
vn -0.8928 0.0583 -0.4466
vn -0.8559 0.1957 -0.4787
vn 0.3107 0.1942 -0.9304
vn 0.7663 -0.2398 -0.5960
vn 0.5774 0.0163 -0.8163
vn 0.8886 -0.1176 0.4433
vn 0.9503 0.1002 0.2947
vn 0.9470 -0.2413 0.2119
vn 0.8720 -0.4580 -0.1728
vn 0.8467 -0.3384 -0.4106
vn 0.2792 0.2608 -0.9241
vn 0.5143 0.1031 -0.8514
vn -0.8773 -0.1088 -0.4674
vn -0.9113 -0.3541 -0.2101
vn -0.9021 -0.2736 -0.3338
vn -0.9263 -0.1835 -0.3291
vn -0.6021 0.7886 0.1246
vn -0.6817 0.7219 0.1192
vn 0.6703 -0.7417 0.0233
vn 0.0937 0.8756 -0.4739
vn 0.0577 0.9100 -0.4105
vn 0.0817 0.9146 -0.3961
vn 0.1408 0.8770 -0.4594
vn -0.0000 0.1377 -0.9905
vn -0.3107 0.1942 -0.9304
vn -0.2792 0.2608 -0.9241
vn -0.0000 0.1367 -0.9906
vn 0.4603 0.0496 -0.8864
vn 0.2540 0.0354 -0.9666
vn 0.6452 -0.7640 -0.0018
vn -0.0000 0.0986 -0.9951
vn 0.2206 0.0028 -0.9754
vn 0.4319 -0.2606 0.8634
vn -0.4331 0.1496 -0.8889
vn -0.4603 0.0496 -0.8864
vn -0.2288 0.1527 -0.9614
vn -0.2540 0.0354 -0.9666
vn 0.7920 -0.3975 -0.4635
vn 0.6587 -0.3167 -0.6825
vn 0.6210 -0.7141 0.3232
vn -0.2206 0.0028 -0.9754
vn -0.4500 0.7423 -0.4965
vn -0.3822 0.7940 -0.4728
vn -0.3275 0.7799 -0.5333
vn -0.3861 0.7252 -0.5701
vn -0.4300 0.5270 -0.7331
vn -0.3677 0.6287 -0.6852
vn -0.2580 0.6173 -0.7432
vn -0.3015 0.5166 -0.8014
vn 0.5969 -0.5649 0.5697
vn 0.3654 0.0017 0.9308
vn 0.3641 -0.0842 -0.9275
vn 0.4624 -0.1142 -0.8793
vn 0.8796 0.2905 0.3766
vn 0.8616 0.4416 0.2502
vn 0.7780 0.5508 0.3022
vn 0.8221 0.3823 0.4218
vn 0.5580 -0.3527 0.7512
vn 0.3218 0.1121 0.9402
vn -0.2948 0.0459 0.9545
vn -0.2953 0.0433 0.9544
vn -0.0895 -0.0556 -0.9944
vn 0.2978 -0.3894 -0.8716
vn 0.4818 -0.5716 -0.6642
vn 0.0459 -0.5685 -0.8214
vn 0.8008 -0.4055 -0.4408
vn -0.3641 -0.0842 -0.9275
vn -0.3224 -0.3404 0.8833
vn -0.3231 -0.3352 0.8850
vn 0.0895 -0.0556 -0.9944
vn -0.2978 -0.3894 -0.8716
vn 0.7635 -0.2855 -0.5793
vn -0.3389 -0.3056 0.8898
vn -0.3336 -0.3299 0.8831
vn -0.0000 -0.1834 -0.9830
vn -0.0000 0.2250 -0.9744
vn -0.0459 -0.5685 -0.8214
vn -0.3943 -0.0506 0.9176
vn -0.3904 -0.0644 0.9184
vn -0.4818 -0.5716 -0.6642
vn -0.4907 -0.5724 -0.6570
vn 0.3532 -0.0878 0.9314
vn 0.5876 0.0626 0.8067
vn 0.1514 0.0061 0.9885
vn -0.0000 -0.6642 -0.7476
vn 0.4907 -0.5724 -0.6570
vn 0.2611 -0.2358 0.9361
vn 0.4174 -0.2167 0.8825
vn 0.6058 0.1497 -0.7814
vn 0.7539 0.1662 -0.6356
vn -0.9988 0.0210 -0.0450
vn -0.9888 0.1339 0.0656
vn -0.4721 -0.0856 0.8774
vn -0.0672 -0.5369 0.8410
vn -0.9921 -0.0401 -0.1190
vn 0.9272 0.2092 0.3108
vn -0.9259 0.1472 0.3479
vn 0.0033 -0.6806 0.7327
vn -0.0657 -0.6497 0.7573
vn 0.8004 0.3262 -0.5030
vn 0.8559 0.1957 -0.4787
vn 0.6953 0.3082 -0.6492
vn -0.8467 -0.3384 -0.4106
vn -0.9925 -0.0738 -0.0978
vn 0.5941 0.6877 -0.4173
vn 0.6235 0.7148 -0.3166
vn 0.7235 0.6196 -0.3044
vn 0.6966 0.5836 -0.4174
vn -0.3037 0.9523 0.0306
vn -0.2464 0.9682 -0.0430
vn 0.4634 -0.3028 0.8328
vn 0.4501 -0.3542 0.8198
vn 0.4442 -0.2999 0.8443
vn 0.6049 -0.0781 0.7924
vn 0.3037 0.9523 0.0306
vn 0.3590 0.9224 0.1426
vn -0.9519 0.2718 0.1418
vn 0.9637 0.2120 0.1621
vn -0.0000 0.7557 -0.6550
vn -0.0932 0.7571 -0.6466
vn -0.0726 0.8156 -0.5740
vn -0.0000 0.8141 -0.5807
vn 0.3436 -0.3599 0.8674
vn 0.1825 -0.3549 0.9169
vn 0.1569 -0.5706 0.8061
vn 0.2919 -0.5814 0.7594
vn -0.6646 0.2970 0.6856
vn -0.6667 0.5172 0.5367
vn -0.0000 -0.6428 0.7660
vn 0.1477 -0.6436 0.7510
vn -0.0000 -0.5693 0.8221
vn -0.5444 -0.0034 0.8388
vn -0.6101 0.0377 0.7914
vn -0.4501 -0.3542 0.8198
vn 0.9988 0.0210 -0.0450
vn -0.6293 0.7425 -0.2293
vn -0.6235 0.7148 -0.3166
vn -0.7235 0.6196 -0.3044
vn -0.7255 0.6589 -0.1988
vn 0.3595 0.8715 -0.3336
vn 0.3650 0.8860 -0.2860
vn 0.4557 0.8467 -0.2748
vn 0.4495 0.8293 -0.3318
vn 0.5444 -0.0034 0.8388
vn 0.6101 0.0377 0.7914
vn 0.9317 0.2828 -0.2281
vn -0.2784 -0.6584 0.6993
vn -0.1477 -0.6436 0.7510
vn -0.1569 -0.5706 0.8061
vn -0.2919 -0.5814 0.7594
vn -0.9774 0.0605 0.2024
vn -0.9857 -0.1592 -0.0544
vn -0.3702 -0.6074 0.7029
vn -0.3475 -0.7012 0.6226
vn 0.2784 -0.6584 0.6993
vn -0.3694 0.7743 0.5138
vn -0.1979 0.7932 0.5759
vn -0.1644 0.9158 0.3665
vn -0.3131 0.8915 0.3273
vn -0.9503 0.1002 0.2947
vn 0.8596 0.5104 -0.0231
vn 0.7907 0.6090 -0.0625
vn 0.7605 0.6493 0.0119
vn 0.8391 0.5406 0.0608
vn 0.6426 0.0560 0.7642
vn 0.7239 0.2847 0.6284
vn -0.3595 0.8715 -0.3336
vn -0.3385 0.8569 -0.3886
vn -0.4245 0.8110 -0.4027
vn -0.4495 0.8293 -0.3318
vn 0.9090 0.2379 -0.3422
vn 0.6646 0.2970 0.6856
vn 0.5843 0.2691 0.7656
vn -0.1428 0.8188 -0.5560
vn -0.0937 0.8756 -0.4739
vn -0.0499 0.8697 -0.4911
vn 0.8568 0.3508 -0.3779
vn -0.8720 -0.4580 -0.1728
vn -0.9470 -0.2413 0.2119
vn -0.5843 0.2691 0.7656
vn 0.6214 0.4305 -0.6546
vn 0.5525 0.2942 -0.7799
vn 0.4911 0.4188 -0.7638
vn 0.7356 0.4876 0.4704
vn 0.6667 0.5172 0.5367
vn 0.7880 0.4640 -0.4048
vn 0.7255 0.6589 -0.1988
vn 0.7258 0.4428 -0.5264
vn 0.5755 0.5198 0.6314
vn -0.6587 -0.3167 -0.6825
vn -0.2598 0.8330 -0.4884
vn -0.2047 0.8250 -0.5268
vn -0.2607 0.7692 -0.5834
vn 0.3082 0.9491 -0.0654
vn 0.2343 0.9647 -0.1206
vn -0.5274 0.8276 -0.1920
vn -0.5325 0.8065 -0.2569
vn -0.0000 -0.3521 0.9360
vn -0.0000 -0.0155 0.9999
vn -0.2128 -0.0196 0.9769
vn -0.1825 -0.3549 0.9169
vn 0.0584 0.9959 -0.0691
vn -0.0000 0.9979 -0.0645
vn -0.0000 1.0000 -0.0029
vn 0.0747 0.9972 -0.0077
vn -0.0000 0.1537 -0.9881
vn 0.2288 0.1527 -0.9614
vn -0.0000 0.0662 -0.9978
vn 0.7940 0.5869 0.1586
vn 0.7168 0.6682 0.1994
vn 0.0992 0.9908 0.0916
vn 0.2056 0.9762 0.0686
vn 0.2047 0.8250 -0.5268
vn 0.1725 0.8856 -0.4312
vn 0.2598 0.8330 -0.4884
vn -0.2727 0.9502 -0.1511
vn -0.2343 0.9647 -0.1206
vn -0.1708 0.9707 -0.1687
vn -0.2068 0.9593 -0.1924
vn 0.2128 -0.0196 0.9769
vn 0.4018 -0.0224 0.9155
vn 0.4257 0.2542 0.8684
vn 0.2244 0.2548 0.9406
vn 0.7282 0.6816 0.0720
vn -0.5755 0.5198 0.6314
vn 0.3389 -0.3056 0.8898
vn 0.3336 -0.3299 0.8831
vn 0.6520 0.7253 0.2210
vn 0.6933 0.6474 0.3167
vn 0.3231 -0.3352 0.8850
vn 0.3224 -0.3404 0.8833
vn -0.0000 0.8019 0.5975
vn -0.0000 0.5318 0.8469
vn 0.2226 0.5266 0.8205
vn 0.1979 0.7932 0.5759
vn 0.7135 0.6932 -0.1015
vn 0.6844 0.7288 -0.0194
vn 0.6817 0.7219 0.1192
vn 0.6021 0.7886 0.1246
vn 0.6293 0.7425 -0.2293
vn 0.6182 0.7718 -0.1490
vn 0.6353 0.7709 0.0451
vn -0.6353 0.7709 0.0451
vn -0.7282 0.6816 0.0720
vn -0.5350 0.8156 0.2205
vn -0.3030 0.8440 -0.4425
vn -0.2264 0.9022 -0.3670
vn -0.2087 0.8911 -0.4029
vn 0.5835 0.8091 -0.0692
vn 0.4300 0.8592 0.2773
vn 0.5068 0.7481 0.4284
vn 0.6094 0.7049 0.3629
vn 0.5350 0.8156 0.2205
vn -0.4574 0.8860 0.0757
vn 0.5325 0.8065 -0.2569
vn 0.5274 0.8276 -0.1920
vn 0.3607 0.9273 -0.0998
vn 0.4125 0.8964 -0.1619
vn -0.7920 -0.3975 -0.4635
vn 0.3694 0.7743 0.5138
vn 0.4185 0.5195 0.7450
vn 0.3131 0.8915 0.3273
vn -0.0000 0.9952 0.0980
vn 0.4970 0.8601 -0.1150
vn -0.4185 0.5195 0.7450
vn -0.5068 0.7481 0.4284
vn 0.2044 0.2877 -0.9357
vn 0.1792 0.4082 -0.8951
vn 0.3447 0.4114 -0.8438
vn 0.3905 0.2887 -0.8742
vn 0.4331 0.1496 -0.8889
vn -0.3447 0.4114 -0.8438
vn -0.1792 0.4082 -0.8951
vn -0.2044 0.2877 -0.9357
vn -0.3905 0.2887 -0.8742
vn 0.4457 0.8661 -0.2261
vn -0.0000 0.2875 -0.9578
vn -0.0000 0.8722 -0.4891
vn 0.1111 0.6971 -0.7083
vn 0.2157 0.7026 -0.6782
vn 0.2580 0.6173 -0.7432
vn 0.1334 0.6110 -0.7803
vn 0.3015 0.5166 -0.8014
vn 0.4300 0.5270 -0.7331
vn -0.0000 0.4074 -0.9132
vn -0.5525 0.2942 -0.7799
vn -0.4911 0.4188 -0.7638
vn -0.2571 0.9475 0.1899
vn -0.1303 0.9675 0.2168
vn -0.0000 0.5099 -0.8603
vn 0.1563 0.5113 -0.8450
vn -0.1111 0.6971 -0.7083
vn -0.0000 0.6953 -0.7187
vn -0.0000 0.6090 -0.7931
vn -0.1334 0.6110 -0.7803
vn 0.6340 0.5589 -0.5346
vn 0.5369 0.6640 -0.5204
vn -0.1815 0.7616 -0.6221
vn -0.1563 0.5113 -0.8450
vn -0.6214 0.4305 -0.6546
vn -0.6953 0.3082 -0.6492
vn -0.5415 0.5415 -0.6430
vn -0.5258 0.7853 -0.3267
vn -0.4989 0.7629 -0.4111
vn -0.0992 0.9908 0.0916
vn -0.2056 0.9762 0.0686
vn 0.5415 0.5415 -0.6430
vn -0.8004 0.3262 -0.5030
vn -0.7258 0.4428 -0.5264
vn -0.2256 0.9474 -0.2272
vn -0.1377 0.9558 -0.2596
vn -0.1432 0.9487 -0.2818
vn -0.2472 0.9331 -0.2613
vn -0.5941 0.6877 -0.4173
vn -0.5369 0.6640 -0.5204
vn -0.3436 -0.3599 0.8674
vn 0.3677 0.6287 -0.6852
vn -0.2244 0.2548 0.9406
vn -0.4257 0.2542 0.8684
vn -0.4018 -0.0224 0.9155
vn -0.9090 0.2379 -0.3422
vn -0.2157 0.7026 -0.6782
vn 0.2948 0.0459 0.9545
vn 0.2953 0.0433 0.9544
vn -0.1626 0.9864 -0.0224
vn 0.3498 0.9041 -0.2454
vn -0.0288 0.9100 -0.4137
vn -0.0000 0.9075 -0.4200
vn 0.0932 0.7571 -0.6466
vn -0.7880 0.4640 -0.4048
vn -0.8568 0.3508 -0.3779
vn -0.8791 0.3940 -0.2682
vn -0.8102 0.5084 -0.2916
vn -0.8077 0.5645 -0.1703
vn -0.0000 0.9925 -0.1220
vn -0.0462 0.9918 -0.1195
vn -0.0584 0.9959 -0.0691
vn -0.6340 0.5589 -0.5346
vn -0.6966 0.5836 -0.4174
vn -0.2472 0.9109 -0.3305
vn -0.3498 0.9041 -0.2454
vn -0.2468 0.9229 -0.2957
vn -0.3650 0.8860 -0.2860
vn -0.4601 0.6446 -0.6106
vn 0.1428 0.8188 -0.5560
vn -0.3085 0.7120 -0.6308
vn -0.4970 0.8601 -0.1150
vn -0.4557 0.8467 -0.2748
vn -0.4457 0.8661 -0.2261
vn -0.1493 0.9414 -0.3023
vn -0.1432 0.9354 -0.3233
vn -0.5282 0.8491 -0.0005
vn 0.0288 0.9100 -0.4137
vn 0.0499 0.8697 -0.4911
vn 0.4989 0.7629 -0.4111
vn 0.5258 0.7853 -0.3267
vn 0.4601 0.6446 -0.6106
vn 0.3861 0.7252 -0.5701
vn 0.4500 0.7423 -0.4965
vn 0.1432 0.9354 -0.3233
vn 0.2472 0.9109 -0.3305
vn 0.2264 0.9022 -0.3670
vn 0.1377 0.9282 -0.3457
vn 0.3275 0.7799 -0.5333
vn 0.3030 0.8440 -0.4425
vn 0.3822 0.7940 -0.4728
vn -0.6094 0.7049 0.3629
vn 0.0657 -0.6497 0.7573
vn -0.1408 0.8770 -0.4594
vn -0.4300 0.8592 0.2773
vn -0.4125 0.8964 -0.1619
vn -0.3166 0.9275 -0.1989
vn -0.1725 0.8856 -0.4312
vn -0.1377 0.9282 -0.3457
vn -0.1215 0.9234 -0.3641
vn -0.1057 0.9172 -0.3842
vn -0.0817 0.9146 -0.3961
vn -0.0577 0.9100 -0.4105
vn -0.1247 0.9889 -0.0812
vn -0.0747 0.9972 -0.0077
vn 0.1215 0.9234 -0.3641
vn -0.0000 0.9522 -0.3056
vn 0.1057 0.9172 -0.3842
vn 0.1493 0.9414 -0.3023
vn 0.1432 0.9487 -0.2818
vn -0.3590 0.9224 0.1426
vn 0.1377 0.9558 -0.2596
vn 0.3085 0.7120 -0.6308
vn -0.1213 0.9627 -0.2420
vn 0.1213 0.9627 -0.2420
vn 0.0726 0.8156 -0.5740
vn 0.1815 0.7616 -0.6221
vn 0.2468 0.9229 -0.2957
vn 0.2472 0.9331 -0.2613
vn 0.2607 0.7692 -0.5834
vn -0.0908 0.9867 -0.1348
vn -0.0274 0.9804 -0.1950
vn -0.0558 0.9787 -0.1976
vn -0.0798 0.9742 -0.2109
vn -0.1399 0.9794 -0.1456
vn -0.2226 0.5266 0.8205
vn 0.4245 0.8110 -0.4027
vn 0.2571 0.9475 0.1899
vn 0.3385 0.8569 -0.3886
vn 0.2087 0.8911 -0.4029
vn -0.1858 0.9776 -0.0993
vn -0.1047 0.9694 -0.2220
vn 0.0798 0.9742 -0.2109
vn 0.1047 0.9694 -0.2220
vn -0.0000 0.9820 -0.1890
vn 0.0558 0.9787 -0.1976
vn 0.0274 0.9804 -0.1950
vn 0.0462 0.9918 -0.1195
vn 0.0908 0.9867 -0.1348
vn 0.1399 0.9794 -0.1456
vn 0.1708 0.9707 -0.1687
vn -0.0000 0.2583 0.9661
vt 0.000000 0.000000
s 1
f 551/1/1 550/1/2 518/1/3 549/1/4
f 269/1/5 300/1/6 262/1/7 261/1/8
f 3/1/9 5/1/10 6/1/11
f 570/1/12 576/1/13 563/1/14 564/1/15
f 5/1/10 9/1/16 6/1/11
f 5/1/10 10/1/17 9/1/16
f 33/1/18 34/1/19 27/1/20 28/1/21
f 9/1/16 10/1/17 14/1/22
f 186/1/23 187/1/24 184/1/25 183/1/26
f 14/1/22 10/1/17 17/1/27
f 15/1/28 16/1/29 18/1/30
f 15/1/28 18/1/30 19/1/31
f 16/1/29 20/1/32 18/1/30
f 17/1/27 10/1/17 21/1/33
f 18/1/30 22/1/34 19/1/31
f 354/1/35 602/1/36 603/1/37 596/1/38
f 19/1/31 22/1/34 23/1/39
f 21/1/33 10/1/17 25/1/40
f 21/1/33 25/1/40 26/1/41
f 22/1/34 27/1/20 23/1/39
f 22/1/34 28/1/21 27/1/20
f 169/1/42 182/1/43 176/1/44 170/1/45
f 25/1/40 30/1/46 31/1/47
f 25/1/40 31/1/47 26/1/41
f 25/1/40 10/1/17 32/1/48
f 25/1/40 32/1/48 30/1/46
f 200/1/49 204/1/50 199/1/51 198/1/52
f 197/1/53 201/1/54 200/1/49 198/1/52
f 29/1/55 24/1/56 35/1/57
f 203/1/58 210/1/59 202/1/60 199/1/51
f 29/1/55 38/1/61 37/1/62
f 29/1/55 36/1/63 38/1/61
f 32/1/48 10/1/17 39/1/64
f 32/1/48 39/1/64 40/1/65
f 55/1/66 63/1/67 56/1/68 47/1/69
f 36/1/63 43/1/70 38/1/61
f 99/1/71 83/1/72 74/1/73 63/1/67
f 200/1/49 207/1/74 208/1/75 204/1/50
f 208/1/75 213/1/76 205/1/77 204/1/50
f 38/1/61 43/1/70 45/1/78
f 324/1/79 325/1/80 307/1/81 318/1/82
f 24/1/56 47/1/69 46/1/83
f 40/1/65 39/1/64 48/1/84
f 42/1/85 35/1/57 49/1/86
f 210/1/59 219/1/87 220/1/88 211/1/89
f 208/1/75 226/1/90 222/1/91 213/1/76
f 45/1/78 43/1/70 52/1/92
f 214/1/93 225/1/94 223/1/95 224/1/96
f 46/1/83 56/1/68 49/1/86
f 47/1/69 56/1/68 46/1/83
f 220/1/88 229/1/97 221/1/98 211/1/89
f 221/1/98 230/1/99 225/1/94 214/1/93
f 48/1/84 39/1/64 57/1/100
f 219/1/87 209/1/101 255/1/102 254/1/103
f 476/1/104 504/1/105 482/1/106 475/1/107
f 53/1/108 61/1/109 54/1/110
f 229/1/97 238/1/111 230/1/99 221/1/98
f 39/1/64 64/1/112 57/1/100
f 39/1/64 10/1/17 64/1/112
f 43/1/70 65/1/113 52/1/92
f 227/1/114 234/1/115 226/1/90 217/1/116
f 220/1/88 246/1/117 239/1/118 229/1/97
f 247/1/119 245/1/120 239/1/118 246/1/117
f 59/1/121 67/1/122 60/1/123
f 60/1/123 68/1/124 58/1/125
f 60/1/123 67/1/122 68/1/124
f 61/1/109 69/1/126 54/1/110
f 64/1/112 10/1/17 70/1/127
f 64/1/112 70/1/127 71/1/128
f 65/1/113 72/1/129 52/1/92
f 273/1/130 290/1/131 269/1/5 234/1/115
f 262/1/7 308/1/132 260/1/133 255/1/102
f 66/1/134 62/1/135 74/1/73
f 66/1/134 74/1/73 75/1/136
f 268/1/137 288/1/138 245/1/120 247/1/119
f 260/1/133 315/1/139 268/1/137 247/1/119
f 41/1/140 637/1/141 267/1/142 266/1/143
f 71/1/128 70/1/127 79/1/144
f 307/1/81 308/1/132 262/1/7 300/1/6
f 240/1/145 232/1/146 230/1/99 238/1/111
f 245/1/120 283/1/147 240/1/145 238/1/111
f 339/1/148 340/1/149 327/1/150 335/1/151
f 223/1/95 264/1/152 257/1/153 248/1/154
f 79/1/144 70/1/127 87/1/155
f 299/1/156 318/1/82 307/1/81 300/1/6
f 457/1/157 488/1/158 477/1/159 449/1/160
f 85/1/161 92/1/162 54/1/110 77/1/163
f 314/1/164 315/1/139 260/1/133 308/1/132
f 84/1/165 86/1/166 91/1/167
f 54/1/110 93/1/168 55/1/66
f 54/1/110 92/1/162 93/1/168
f 70/1/127 94/1/169 87/1/155
f 70/1/127 10/1/17 94/1/169
f 407/1/170 413/1/171 411/1/172 412/1/173
f 321/1/174 322/1/175 268/1/137 315/1/139
f 271/1/176 276/1/177 257/1/153 264/1/152
f 270/1/178 271/1/176 264/1/152 233/1/179
f 93/1/168 97/1/180 98/1/181
f 93/1/168 98/1/181 99/1/71
f 93/1/168 99/1/71 55/1/66
f 55/1/66 99/1/71 63/1/67
f 240/1/145 279/1/182 272/1/183 232/1/146
f 94/1/169 10/1/17 100/1/184
f 94/1/169 100/1/184 101/1/185
f 277/1/186 248/1/154 257/1/153 276/1/177
f 85/1/161 102/1/187 96/1/188 92/1/162
f 102/1/187 109/1/189 121/1/190 104/1/191
f 96/1/188 105/1/192 97/1/180
f 100/1/184 106/1/193 101/1/185
f 100/1/184 10/1/17 107/1/194
f 100/1/184 107/1/194 108/1/195
f 100/1/184 108/1/195 106/1/193
f 102/1/187 103/1/196 109/1/189
f 103/1/196 110/1/197 109/1/189
f 274/1/198 317/1/199 323/1/200 275/1/201
f 270/1/178 316/1/202 317/1/199 274/1/198
f 107/1/194 10/1/17 113/1/203
f 107/1/194 113/1/203 114/1/204
f 84/1/165 115/1/205 110/1/197
f 116/1/206 149/1/207 134/1/208 110/1/197
f 97/1/180 93/1/168 92/1/162 96/1/188
f 97/1/180 117/1/209 98/1/181
f 97/1/180 119/1/210 117/1/209
f 97/1/180 118/1/211 119/1/210
f 104/1/191 120/1/212 111/1/213
f 275/1/201 329/1/214 281/1/215 276/1/177
f 153/1/216 159/1/217 329/1/214 275/1/201
f 114/1/204 113/1/203 122/1/218
f 98/1/181 117/1/209 125/1/219
f 309/1/220 356/1/221 316/1/202 310/1/222
f 309/1/220 310/1/222 278/1/223 303/1/224
f 120/1/212 127/1/225 111/1/213
f 121/1/190 109/1/189 129/1/226
f 121/1/190 129/1/226 128/1/227
f 122/1/218 113/1/203 130/1/228
f 123/1/229 131/1/230 115/1/205
f 131/1/230 132/1/231 115/1/205
f 124/1/232 115/1/205 132/1/231
f 111/1/213 133/1/233 112/1/234
f 127/1/225 133/1/233 111/1/213
f 109/1/189 134/1/208 129/1/226
f 336/1/235 348/1/236 287/1/237 282/1/238
f 109/1/189 110/1/197 134/1/208
f 324/1/79 333/1/239 330/1/240 325/1/80
f 113/1/203 10/1/17 136/1/241
f 113/1/203 136/1/241 130/1/228
f 465/1/242 491/1/243 484/1/244 478/1/245
f 138/1/246 145/1/247 146/1/248 137/1/249
f 112/1/234 140/1/250 118/1/211
f 112/1/234 139/1/251 140/1/250
f 136/1/241 10/1/17 142/1/252
f 127/1/225 143/1/253 138/1/246
f 127/1/225 120/1/212 144/1/254
f 127/1/225 144/1/254 143/1/253
f 120/1/212 128/1/227 144/1/254
f 138/1/246 143/1/253 145/1/247
f 38/1/61 45/1/78 44/1/255 37/1/62
f 316/1/202 356/1/221 355/1/256 351/1/257
f 355/1/256 360/1/258 346/1/259 351/1/257
f 149/1/207 150/1/260 134/1/208
f 141/1/261 134/1/208 150/1/260
f 142/1/252 10/1/17 151/1/262
f 145/1/247 143/1/253 152/1/263
f 145/1/247 152/1/263 153/1/216
f 544/1/264 561/1/265 540/1/266 539/1/267
f 391/1/268 522/1/269 398/1/270 392/1/271
f 10/1/17 155/1/272 151/1/262
f 10/1/17 156/1/273 155/1/272
f 128/1/227 157/1/274 144/1/254
f 128/1/227 129/1/226 158/1/275
f 128/1/227 158/1/275 157/1/274
f 73/1/276 82/1/277 81/1/278 80/1/279
f 153/1/216 152/1/263 159/1/217
f 156/1/273 160/1/280 155/1/272
f 156/1/273 161/1/281 160/1/280
f 2/1/282 5/1/10 3/1/9 1/1/283
f 144/1/254 163/1/284 143/1/253
f 157/1/274 163/1/284 144/1/254
f 157/1/274 158/1/275 164/1/285
f 158/1/275 165/1/286 166/1/287
f 158/1/275 166/1/287 164/1/285
f 158/1/275 167/1/288 165/1/286
f 159/1/217 152/1/263 168/1/289
f 159/1/217 168/1/289 169/1/42
f 159/1/217 169/1/42 170/1/45
f 4/1/290 7/1/291 2/1/282 1/1/283
f 152/1/263 143/1/253 174/1/292
f 152/1/263 174/1/292 168/1/289
f 168/1/289 175/1/293 169/1/42
f 135/1/294 167/1/288 158/1/275 129/1/226
f 8/1/295 11/1/296 7/1/291 4/1/290
f 174/1/292 179/1/297 168/1/289
f 157/1/274 164/1/285 179/1/297
f 163/1/284 157/1/274 179/1/297
f 168/1/289 179/1/297 175/1/293
f 180/1/298 163/1/284 179/1/297
f 174/1/292 143/1/253 180/1/298
f 174/1/292 180/1/298 179/1/297
f 143/1/253 163/1/284 180/1/298
f 175/1/293 181/1/299 169/1/42
f 8/1/295 13/1/300 12/1/301 11/1/296
f 169/1/42 185/1/302 182/1/43
f 181/1/299 185/1/302 169/1/42
f 63/1/67 74/1/73 62/1/135 56/1/68
f 175/1/293 179/1/297 188/1/303
f 186/1/23 189/1/304 187/1/24
f 186/1/23 190/1/305 189/1/304
f 187/1/24 189/1/304 191/1/306
f 188/1/303 179/1/297 192/1/307
f 179/1/297 193/1/308 192/1/307
f 164/1/285 193/1/308 179/1/297
f 190/1/305 194/1/309 189/1/304
f 20/1/32 24/1/56 22/1/34 18/1/30
f 190/1/305 195/1/310 194/1/309
f 194/1/309 195/1/310 197/1/53
f 194/1/309 197/1/53 198/1/52
f 29/1/55 28/1/21 22/1/34 24/1/56
f 118/1/211 148/1/311 126/1/312 119/1/210
f 248/1/154 249/1/313 241/1/314 223/1/95
f 199/1/51 202/1/60 196/1/315
f 307/1/81 325/1/80 314/1/164 308/1/132
f 199/1/51 204/1/50 205/1/77
f 199/1/51 205/1/77 203/1/58
f 33/1/18 639/1/316 41/1/140 34/1/19
f 234/1/115 269/1/5 222/1/91 226/1/90
f 277/1/186 282/1/238 256/1/317 248/1/154
f 203/1/58 205/1/77 209/1/101
f 42/1/85 51/1/318 43/1/70 36/1/63
f 202/1/60 210/1/59 211/1/89
f 46/1/83 49/1/86 35/1/57 24/1/56
f 205/1/77 213/1/76 209/1/101
f 196/1/315 212/1/319 214/1/93
f 207/1/74 206/1/320 215/1/321
f 393/1/322 394/1/323 126/1/312 387/1/324
f 287/1/237 292/1/325 286/1/326 282/1/238
f 206/1/320 217/1/116 215/1/321
f 202/1/60 211/1/89 212/1/319 196/1/315
f 419/1/327 420/1/328 414/1/329 415/1/330
f 212/1/319 221/1/98 214/1/93
f 211/1/89 221/1/98 212/1/319
f 213/1/76 222/1/91 209/1/101
f 275/1/201 276/1/177 271/1/176 274/1/198
f 126/1/312 394/1/323 117/1/209 119/1/210
f 609/1/331 624/1/332 603/1/37 602/1/36
f 215/1/321 217/1/116 226/1/90
f 267/1/142 637/1/141 526/1/333 636/1/334
f 526/1/333 637/1/141 527/1/335 520/1/336
f 493/1/337 494/1/338 477/1/159 488/1/158
f 194/1/309 196/1/315 191/1/306 189/1/304
f 224/1/96 223/1/95 231/1/339
f 225/1/94 230/1/99 232/1/146
f 225/1/94 233/1/179 223/1/95
f 225/1/94 232/1/146 233/1/179
f 520/1/336 527/1/335 52/1/92 72/1/129
f 56/1/68 62/1/135 50/1/340 49/1/86
f 229/1/97 239/1/118 238/1/111
f 408/1/341 509/1/342 508/1/343 501/1/344
f 219/1/87 254/1/103 246/1/117 220/1/88
f 231/1/339 223/1/95 241/1/314
f 635/1/345 634/1/346 251/1/347 265/1/348
f 285/1/349 304/1/350 299/1/156 290/1/131
f 243/1/351 252/1/352 251/1/347 250/1/353
f 238/1/111 239/1/118 245/1/120
f 54/1/110 55/1/66 47/1/69 53/1/108
f 59/1/121 60/1/123 51/1/318 50/1/340
f 253/1/354 280/1/355 227/1/114 244/1/356
f 69/1/126 78/1/357 77/1/163 54/1/110
f 332/1/358 383/1/359 301/1/360 328/1/361
f 452/1/362 468/1/363 436/1/364 444/1/365
f 532/1/366 636/1/334 526/1/333 525/1/367
f 246/1/117 254/1/103 247/1/119
f 83/1/72 405/1/368 75/1/136 74/1/73
f 78/1/357 86/1/166 84/1/165 77/1/163
f 133/1/233 127/1/225 138/1/246 137/1/249
f 228/1/369 237/1/370 236/1/371 235/1/372
f 254/1/103 260/1/133 247/1/119
f 254/1/103 255/1/102 260/1/133
f 58/1/125 73/1/276 65/1/113 43/1/70
f 209/1/101 222/1/91 261/1/8
f 111/1/213 112/1/234 105/1/192 104/1/191
f 256/1/317 263/1/373 258/1/374
f 223/1/95 233/1/179 264/1/152
f 228/1/369 235/1/372 216/1/375 218/1/376
f 206/1/320 218/1/376 216/1/375 217/1/116
f 259/1/377 265/1/348 251/1/347 252/1/352
f 350/1/378 620/1/379 558/1/380 616/1/381
f 73/1/276 80/1/279 72/1/129 65/1/113
f 222/1/91 269/1/5 261/1/8
f 286/1/326 291/1/382 263/1/373 256/1/317
f 52/1/92 527/1/335 44/1/255 45/1/78
f 233/1/179 272/1/183 270/1/178
f 233/1/179 232/1/146 272/1/183
f 76/1/383 418/1/384 95/1/385 90/1/386
f 519/1/387 520/1/336 72/1/129 514/1/388
f 234/1/115 227/1/114 273/1/130
f 271/1/176 270/1/178 274/1/198
f 104/1/191 105/1/192 96/1/188 102/1/187
f 84/1/165 110/1/197 103/1/196 77/1/163
f 272/1/183 278/1/223 270/1/178
f 272/1/183 279/1/182 278/1/223
f 227/1/114 280/1/355 273/1/130
f 276/1/177 281/1/215 277/1/186
f 277/1/186 281/1/215 282/1/238
f 559/1/389 571/1/390 553/1/391 552/1/392
f 400/1/393 125/1/219 117/1/209 394/1/323
f 512/1/394 533/1/395 532/1/366 525/1/367
f 508/1/343 523/1/396 524/1/397 517/1/398
f 256/1/317 282/1/238 286/1/326
f 91/1/167 123/1/229 115/1/205 84/1/165
f 115/1/205 124/1/232 116/1/206 110/1/197
f 407/1/170 412/1/173 75/1/136 405/1/368
f 400/1/393 406/1/399 407/1/170 405/1/368
f 286/1/326 292/1/325 293/1/400
f 286/1/326 294/1/401 291/1/382
f 286/1/326 293/1/400 294/1/401
f 253/1/354 306/1/402 285/1/349 280/1/355
f 386/1/403 387/1/324 154/1/404 379/1/405
f 76/1/383 90/1/386 68/1/124 67/1/122
f 512/1/394 514/1/388 88/1/406 507/1/407
f 88/1/406 514/1/388 72/1/129 80/1/279
f 409/1/408 415/1/330 414/1/329 413/1/171
f 414/1/329 421/1/409 411/1/172 413/1/171
f 393/1/322 410/1/410 409/1/408 406/1/399
f 393/1/322 406/1/399 400/1/393 394/1/323
f 506/1/411 533/1/395 512/1/394 507/1/407
f 35/1/57 42/1/85 36/1/63 29/1/55
f 176/1/44 341/1/412 336/1/235 170/1/45
f 540/1/266 546/1/413 530/1/414 534/1/415
f 570/1/12 564/1/15 487/1/416 569/1/417
f 278/1/223 310/1/222 270/1/178
f 345/1/418 390/1/419 332/1/358 340/1/149
f 326/1/420 631/1/421 320/1/422 319/1/423
f 581/1/424 600/1/425 586/1/426 582/1/427
f 352/1/428 353/1/429 139/1/251 347/1/430
f 89/1/431 451/1/432 81/1/278 82/1/277
f 563/1/14 582/1/427 556/1/433 557/1/434
f 310/1/222 316/1/202 270/1/178
f 460/1/435 478/1/245 471/1/436 466/1/437
f 595/1/438 626/1/439 617/1/440 619/1/441
f 137/1/249 139/1/251 112/1/234 133/1/233
f 632/1/442 633/1/443 536/1/444 630/1/445
f 635/1/345 633/1/443 632/1/442 634/1/346
f 95/1/385 442/1/446 89/1/431 90/1/386
f 285/1/349 306/1/402 305/1/447 304/1/350
f 323/1/200 146/1/248 145/1/247
f 183/1/26 184/1/25 177/1/448 178/1/449
f 153/1/216 323/1/200 145/1/247
f 323/1/200 317/1/199 146/1/248
f 275/1/201 323/1/200 153/1/216
f 455/1/450 458/1/451 81/1/278 451/1/432
f 173/1/452 178/1/449 177/1/448 172/1/453
f 548/1/454 627/1/455 542/1/456 543/1/457
f 326/1/420 634/1/346 632/1/442 631/1/421
f 251/1/347 634/1/346 326/1/420 250/1/353
f 426/1/458 435/1/459 95/1/385 418/1/384
f 421/1/409 426/1/458 418/1/384 411/1/172
f 121/1/190 128/1/227 120/1/212 104/1/191
f 329/1/214 170/1/45 281/1/215
f 329/1/214 159/1/217 170/1/45
f 85/1/161 77/1/163 103/1/196 102/1/187
f 199/1/51 196/1/315 194/1/309 198/1/52
f 448/1/460 450/1/461 455/1/450 451/1/432
f 422/1/462 428/1/463 426/1/458 421/1/409
f 414/1/329 420/1/328 422/1/462 421/1/409
f 441/1/464 442/1/446 95/1/385 435/1/459
f 330/1/240 334/1/465 331/1/466
f 330/1/240 333/1/239 334/1/465
f 134/1/208 141/1/261 135/1/294 129/1/226
f 50/1/340 51/1/318 42/1/85 49/1/86
f 281/1/215 336/1/235 282/1/238
f 281/1/215 170/1/45 336/1/235
f 324/1/79 337/1/467 333/1/239
f 449/1/160 477/1/159 450/1/461 441/1/464
f 554/1/468 571/1/390 567/1/469 566/1/470
f 434/1/471 435/1/459 426/1/458 428/1/463
f 495/1/472 505/1/473 464/1/474 470/1/475
f 337/1/467 344/1/476 333/1/239
f 256/1/317 258/1/374 249/1/313 248/1/154
f 422/1/462 429/1/477 430/1/478 428/1/463
f 482/1/106 483/1/479 462/1/480 475/1/107
f 137/1/249 346/1/259 347/1/430
f 137/1/249 347/1/430 139/1/251
f 341/1/412 349/1/481 336/1/235
f 336/1/235 349/1/481 348/1/236
f 511/1/482 537/1/483 506/1/411 505/1/473
f 495/1/472 513/1/484 511/1/482 505/1/473
f 317/1/199 316/1/202 351/1/257
f 317/1/199 351/1/257 346/1/259
f 346/1/259 360/1/258 352/1/428 347/1/430
f 586/1/426 587/1/485 556/1/433 582/1/427
f 68/1/124 82/1/277 73/1/276 58/1/125
f 434/1/471 456/1/486 457/1/157 449/1/160
f 409/1/408 413/1/171 407/1/170 406/1/399
f 317/1/199 346/1/259 137/1/249 146/1/248
f 305/1/447 622/1/487 350/1/378 342/1/488
f 357/1/489 373/1/490 363/1/491 358/1/492
f 154/1/404 387/1/324 126/1/312 148/1/311
f 147/1/493 358/1/492 154/1/404 148/1/311
f 370/1/494 371/1/495 365/1/496 369/1/497
f 411/1/172 418/1/384 76/1/383 412/1/173
f 430/1/478 463/1/498 462/1/480 456/1/486
f 462/1/480 483/1/479 457/1/157 456/1/486
f 352/1/428 366/1/499 357/1/489 353/1/429
f 357/1/489 358/1/492 147/1/493 353/1/429
f 508/1/343 517/1/398 500/1/500 501/1/344
f 401/1/501 432/1/502 388/1/503 395/1/504
f 363/1/491 380/1/505 381/1/506 379/1/405
f 363/1/491 379/1/405 154/1/404 358/1/492
f 518/1/3 550/1/2 548/1/454 543/1/457
f 365/1/496 371/1/495 372/1/507 366/1/499
f 362/1/508 384/1/509 370/1/494 369/1/497
f 601/1/510 616/1/381 558/1/380 594/1/511
f 372/1/507 377/1/512 378/1/513 373/1/490
f 378/1/513 380/1/505 363/1/491 373/1/490
f 365/1/496 366/1/499 352/1/428 360/1/258
f 402/1/514 403/1/515 385/1/516 399/1/517
f 391/1/268 392/1/271 370/1/494 384/1/509
f 416/1/518 424/1/519 419/1/327 415/1/330
f 515/1/520 523/1/396 508/1/343 509/1/342
f 376/1/521 377/1/512 372/1/507 371/1/495
f 385/1/516 395/1/504 378/1/513 377/1/512
f 368/1/522 384/1/509 362/1/508 361/1/523
f 368/1/522 528/1/524 391/1/268 384/1/509
f 398/1/270 399/1/517 376/1/521 392/1/271
f 389/1/525 552/1/392 553/1/391 545/1/526
f 593/1/527 615/1/528 601/1/510 594/1/511
f 362/1/508 369/1/497 355/1/256 356/1/221
f 416/1/518 415/1/330 409/1/408 410/1/410
f 381/1/506 417/1/529 386/1/403 379/1/405
f 302/1/530 361/1/523 309/1/220 303/1/224
f 302/1/530 367/1/531 368/1/522 361/1/523
f 589/1/532 590/1/533 584/1/534 583/1/535
f 382/1/536 545/1/526 544/1/264 538/1/537
f 236/1/371 319/1/423 242/1/538 235/1/372
f 388/1/503 425/1/539 381/1/506 380/1/505
f 372/1/507 373/1/490 357/1/489 366/1/499
f 320/1/422 628/1/540 312/1/541 313/1/542
f 240/1/145 283/1/147 284/1/543 279/1/182
f 398/1/270 516/1/544 402/1/514 399/1/517
f 162/1/545 171/1/546 161/1/281 156/1/273
f 386/1/403 410/1/410 393/1/322 387/1/324
f 385/1/516 403/1/515 401/1/501 395/1/504
f 614/1/547 624/1/332 609/1/331 615/1/528
f 436/1/364 468/1/363 469/1/548 463/1/498
f 635/1/345 636/1/334 532/1/366 633/1/443
f 500/1/500 517/1/398 510/1/549 502/1/550
f 408/1/341 439/1/551 401/1/501 403/1/515
f 59/1/121 50/1/340 62/1/135 66/1/134
f 297/1/552 298/1/553 289/1/554 296/1/555
f 376/1/521 399/1/517 385/1/516 377/1/512
f 295/1/556 296/1/555 289/1/554 288/1/138
f 268/1/137 322/1/175 295/1/556 288/1/138
f 599/1/557 606/1/558 605/1/559 600/1/425
f 139/1/251 353/1/429 147/1/493 140/1/250
f 375/1/560 528/1/524 368/1/522 367/1/531
f 375/1/560 367/1/531 297/1/552 374/1/561
f 559/1/389 572/1/562 567/1/469 571/1/390
f 301/1/360 383/1/359 382/1/536 374/1/561
f 400/1/393 405/1/368 83/1/72 125/1/219
f 553/1/391 561/1/265 544/1/264 545/1/526
f 289/1/554 298/1/553 284/1/543 283/1/147
f 404/1/563 583/1/535 565/1/564 560/1/565
f 434/1/471 449/1/160 441/1/464 435/1/459
f 436/1/364 463/1/498 430/1/478 429/1/477
f 389/1/525 545/1/526 382/1/536 383/1/359
f 332/1/358 390/1/419 389/1/525 383/1/359
f 512/1/394 525/1/367 519/1/387 514/1/388
f 544/1/264 539/1/267 529/1/566 538/1/537
f 465/1/242 478/1/245 460/1/435 459/1/567
f 398/1/270 522/1/269 521/1/568 516/1/544
f 529/1/566 539/1/267 521/1/568 522/1/269
f 339/1/148 359/1/569 345/1/418 340/1/149
f 29/1/55 37/1/62 33/1/18 28/1/21
f 397/1/570 552/1/392 389/1/525 390/1/419
f 345/1/418 396/1/571 397/1/570 390/1/419
f 402/1/514 516/1/544 515/1/520 509/1/342
f 68/1/124 90/1/386 89/1/431 82/1/277
f 565/1/564 578/1/572 573/1/573 572/1/562
f 334/1/465 338/1/574 339/1/148 335/1/151
f 289/1/554 283/1/147 245/1/120 288/1/138
f 404/1/563 560/1/565 397/1/570 396/1/571
f 243/1/351 250/1/353 236/1/371 237/1/370
f 355/1/256 369/1/497 365/1/496 360/1/258
f 497/1/575 491/1/243 465/1/242 496/1/576
f 540/1/266 534/1/415 521/1/568 539/1/267
f 330/1/240 331/1/466 314/1/164 325/1/80
f 442/1/446 441/1/464 448/1/460
f 441/1/464 450/1/461 448/1/460
f 362/1/508 356/1/221 309/1/220 361/1/523
f 397/1/570 560/1/565 559/1/389 552/1/392
f 419/1/327 437/1/577 427/1/578 420/1/328
f 423/1/579 440/1/580 431/1/581 424/1/519
f 540/1/266 561/1/265 554/1/468 546/1/413
f 448/1/460 451/1/432 89/1/431 442/1/446
f 261/1/8 262/1/7 255/1/102 209/1/101
f 206/1/320 207/1/74 200/1/49 201/1/54
f 486/1/582 480/1/583 467/1/584 485/1/585
f 446/1/586 466/1/437 454/1/587 447/1/588
f 354/1/35 359/1/569 339/1/148 338/1/574
f 13/1/300 16/1/29 15/1/28 12/1/301
f 311/1/589 318/1/82 299/1/156 304/1/350
f 311/1/589 337/1/467 324/1/79 318/1/82
f 638/1/590 639/1/316 44/1/255 527/1/335
f 530/1/414 541/1/591 524/1/397 523/1/396
f 216/1/375 244/1/356 227/1/114 217/1/116
f 427/1/578 429/1/477 422/1/462 420/1/328
f 350/1/378 616/1/381 343/1/592 342/1/488
f 364/1/593 588/1/594 404/1/563 396/1/571
f 455/1/450 450/1/461 470/1/475
f 530/1/414 546/1/413 547/1/595 541/1/591
f 554/1/468 566/1/470 547/1/595 546/1/413
f 98/1/181 125/1/219 83/1/72 99/1/71
f 521/1/568 534/1/415 515/1/520 516/1/544
f 589/1/532 583/1/535 404/1/563 588/1/594
f 450/1/461 477/1/159 470/1/475
f 344/1/476 602/1/36 354/1/35 338/1/574
f 567/1/469 568/1/596 562/1/597 566/1/470
f 547/1/595 566/1/470 562/1/597 555/1/598
f 464/1/474 507/1/407 88/1/406 458/1/451
f 565/1/564 583/1/535 584/1/534 578/1/572
f 619/1/441 589/1/532 588/1/594 595/1/438
f 364/1/593 596/1/38 595/1/438 588/1/594
f 321/1/174 335/1/151 327/1/150 322/1/175
f 524/1/397 541/1/591 535/1/599 531/1/600
f 567/1/469 572/1/562 573/1/573 568/1/596
f 605/1/559 625/1/601 614/1/547 607/1/602
f 603/1/37 626/1/439 595/1/438 596/1/38
f 66/1/134 75/1/136 67/1/122 59/1/121
f 485/1/585 479/1/603 489/1/604
f 485/1/585 489/1/604 486/1/582
f 484/1/244 489/1/604 490/1/605
f 490/1/605 489/1/604 479/1/603
f 484/1/244 491/1/243 489/1/604
f 492/1/606 489/1/604 481/1/607
f 486/1/582 489/1/604 492/1/606
f 344/1/476 608/1/608 609/1/331 602/1/36
f 162/1/545 173/1/452 172/1/453 171/1/546
f 343/1/592 608/1/608 344/1/476 337/1/467
f 333/1/239 344/1/476 338/1/574 334/1/465
f 491/1/243 497/1/575 489/1/604
f 524/1/397 531/1/600 510/1/549 517/1/398
f 481/1/607 489/1/604 498/1/609
f 343/1/592 616/1/381 601/1/510 608/1/608
f 469/1/548 475/1/107 462/1/480 463/1/498
f 388/1/503 432/1/502 433/1/610 425/1/539
f 314/1/164 331/1/466 321/1/174 315/1/139
f 497/1/575 502/1/550 489/1/604
f 589/1/532 619/1/441 597/1/611 590/1/533
f 498/1/609 489/1/604 503/1/612
f 305/1/447 342/1/488 311/1/589 304/1/350
f 408/1/341 501/1/344 445/1/613 439/1/551
f 445/1/613 501/1/344 500/1/500 496/1/576
f 502/1/550 510/1/549 489/1/604
f 500/1/500 502/1/550 497/1/575 496/1/576
f 327/1/150 328/1/361 295/1/556 322/1/175
f 320/1/422 313/1/542 242/1/538 319/1/423
f 112/1/234 118/1/211 97/1/180 105/1/192
f 427/1/578 444/1/365 436/1/364 429/1/477
f 295/1/556 328/1/361 301/1/360 296/1/555
f 445/1/613 459/1/567 438/1/614 439/1/551
f 536/1/444 633/1/443 532/1/366 533/1/395
f 378/1/513 395/1/504 388/1/503 380/1/505
f 354/1/35 596/1/38 364/1/593 359/1/569
f 285/1/349 290/1/131 273/1/130 280/1/355
f 147/1/493 148/1/311 118/1/211 140/1/250
f 473/1/615 492/1/606 481/1/607 474/1/616
f 438/1/614 453/1/617 433/1/610 432/1/502
f 445/1/613 496/1/576 465/1/242 459/1/567
f 611/1/618 606/1/558 604/1/619 610/1/620
f 519/1/387 526/1/333 520/1/336
f 519/1/387 525/1/367 526/1/333
f 81/1/278 458/1/451 88/1/406 80/1/279
f 476/1/104 475/1/107 469/1/548 474/1/616
f 423/1/579 424/1/519 416/1/518 417/1/529
f 381/1/506 425/1/539 423/1/579 417/1/529
f 438/1/614 459/1/567 460/1/435 453/1/617
f 334/1/465 335/1/151 321/1/174 331/1/466
f 510/1/549 531/1/600 489/1/604
f 299/1/156 300/1/6 269/1/5 290/1/131
f 401/1/501 439/1/551 438/1/614 432/1/502
f 613/1/621 618/1/622 611/1/618 610/1/620
f 531/1/600 535/1/599 489/1/604
f 253/1/354 313/1/542 312/1/541 306/1/402
f 622/1/487 305/1/447 306/1/402 312/1/541
f 433/1/610 453/1/617 446/1/586 440/1/580
f 460/1/435 466/1/437 446/1/586 453/1/617
f 312/1/541 628/1/540 621/1/623 622/1/487
f 350/1/378 622/1/487 621/1/623 620/1/379
f 433/1/610 440/1/580 423/1/579 425/1/539
f 431/1/581 437/1/577 419/1/327 424/1/519
f 446/1/586 447/1/588 431/1/581 440/1/580
f 51/1/318 60/1/123 58/1/125 43/1/70
f 484/1/244 490/1/605 471/1/436 478/1/245
f 621/1/623 627/1/455 548/1/454 620/1/379
f 558/1/380 620/1/379 548/1/454 550/1/2
f 551/1/1 594/1/511 558/1/380 550/1/2
f 443/1/624 444/1/365 427/1/578 437/1/577
f 431/1/581 447/1/588 443/1/624 437/1/577
f 499/1/625 513/1/484 495/1/472 494/1/338
f 553/1/391 571/1/390 554/1/468 561/1/265
f 535/1/599 555/1/598 489/1/604
f 565/1/564 572/1/562 559/1/389 560/1/565
f 593/1/527 594/1/511 551/1/1 587/1/485
f 402/1/514 509/1/342 408/1/341 403/1/515
f 506/1/411 537/1/483 536/1/444 533/1/395
f 443/1/624 461/1/626 452/1/362 444/1/365
f 382/1/536 538/1/537 375/1/560 374/1/561
f 454/1/587 461/1/626 443/1/624 447/1/588
f 503/1/612 504/1/105 476/1/104 498/1/609
f 555/1/598 562/1/597 489/1/604
f 477/1/159 494/1/338 495/1/472 470/1/475
f 614/1/547 615/1/528 593/1/527 607/1/602
f 452/1/362 480/1/583 473/1/615 468/1/363
f 473/1/615 474/1/616 469/1/548 468/1/363
f 454/1/587 472/1/627 467/1/584 461/1/626
f 267/1/142 636/1/334 635/1/345 265/1/348
f 562/1/597 568/1/596 489/1/604
f 623/1/628 626/1/439 603/1/37 624/1/332
f 614/1/547 625/1/601 623/1/628 624/1/332
f 467/1/584 480/1/583 452/1/362 461/1/626
f 568/1/596 573/1/573 489/1/604
f 311/1/589 342/1/488 343/1/592 337/1/467
f 486/1/582 492/1/606 473/1/615 480/1/583
f 471/1/436 490/1/605 479/1/603 472/1/627
f 364/1/593 396/1/571 345/1/418 359/1/569
f 597/1/611 619/1/441 617/1/440 612/1/629
f 471/1/436 472/1/627 454/1/587 466/1/437
f 573/1/573 578/1/572 489/1/604
f 611/1/618 625/1/601 605/1/559 606/1/558
f 617/1/440 618/1/622 613/1/621 612/1/629
f 579/1/630 580/1/631 489/1/604
f 503/1/612 489/1/604 580/1/631
f 604/1/619 606/1/558 599/1/557 598/1/632
f 479/1/603 485/1/585 467/1/584 472/1/627
f 578/1/572 584/1/534 489/1/604
f 375/1/560 538/1/537 529/1/566 528/1/524
f 579/1/630 489/1/604 585/1/633
f 605/1/559 607/1/602 586/1/426 600/1/425
f 586/1/426 607/1/602 593/1/527 587/1/485
f 515/1/520 534/1/415 530/1/414 523/1/396
f 481/1/607 498/1/609 476/1/104 474/1/616
f 584/1/534 590/1/533 489/1/604
f 585/1/633 489/1/604 591/1/634
f 327/1/150 340/1/149 332/1/358 328/1/361
f 542/1/456 630/1/445 536/1/444 537/1/483
f 284/1/543 303/1/224 278/1/223 279/1/182
f 209/1/101 219/1/87 210/1/59 203/1/58
f 267/1/142 265/1/348 259/1/377 266/1/143
f 547/1/595 555/1/598 535/1/599 541/1/591
f 590/1/533 597/1/611 489/1/604
f 591/1/634 489/1/604 598/1/632
f 391/1/268 528/1/524 529/1/566 522/1/269
f 386/1/403 417/1/529 416/1/518 410/1/410
f 499/1/625 557/1/434 556/1/433 549/1/4
f 499/1/625 549/1/4 518/1/3 513/1/484
f 487/1/416 488/1/158 457/1/157 483/1/479
f 617/1/440 626/1/439 623/1/628 618/1/622
f 599/1/557 592/1/635 591/1/634 598/1/632
f 598/1/632 489/1/604 604/1/619
f 370/1/494 392/1/271 376/1/521 371/1/495
f 599/1/557 600/1/425 581/1/424 592/1/635
f 44/1/255 639/1/316 33/1/18 37/1/62
f 487/1/416 564/1/15 493/1/337 488/1/158
f 493/1/337 557/1/434 499/1/625 494/1/338
f 482/1/106 569/1/417 487/1/416 483/1/479
f 604/1/619 489/1/604 610/1/620
f 591/1/634 592/1/635 577/1/636 585/1/633
f 577/1/636 592/1/635 581/1/424 576/1/13
f 489/1/604 597/1/611 612/1/629
f 489/1/604 612/1/629 613/1/621
f 579/1/630 585/1/633 577/1/636 575/1/637
f 489/1/604 613/1/621 610/1/620
f 581/1/424 582/1/427 563/1/14 576/1/13
f 623/1/628 625/1/601 611/1/618 618/1/622
f 493/1/337 564/1/15 563/1/14 557/1/434
f 518/1/3 543/1/457 511/1/482 513/1/484
f 615/1/528 609/1/331 608/1/608 601/1/510
f 574/1/638 580/1/631 579/1/630 575/1/637
f 482/1/106 504/1/105 574/1/638 569/1/417
f 75/1/136 412/1/173 76/1/383 67/1/122
f 511/1/482 543/1/457 542/1/456 537/1/483
f 297/1/552 367/1/531 302/1/530 298/1/553
f 577/1/636 576/1/13 570/1/12 575/1/637
f 574/1/638 575/1/637 570/1/12 569/1/417
f 430/1/478 456/1/486 434/1/471 428/1/463
f 503/1/612 580/1/631 574/1/638 504/1/105
f 506/1/411 507/1/407 464/1/474 505/1/473
f 629/1/639 627/1/455 621/1/623 628/1/540
f 629/1/639 630/1/445 542/1/456 627/1/455
f 320/1/422 631/1/421 629/1/639 628/1/540
f 326/1/420 319/1/423 236/1/371 250/1/353
f 302/1/530 303/1/224 284/1/543 298/1/553
f 556/1/433 587/1/485 551/1/1 549/1/4
f 242/1/538 313/1/542 253/1/354 244/1/356
f 242/1/538 244/1/356 216/1/375 235/1/372
f 301/1/360 374/1/561 297/1/552 296/1/555
f 455/1/450 470/1/475 464/1/474 458/1/451
f 637/1/141 41/1/140 638/1/590
f 637/1/141 638/1/590 527/1/335
f 215/1/321 226/1/90 208/1/75 207/1/74
f 41/1/140 639/1/316 638/1/590
f 632/1/442 630/1/445 629/1/639 631/1/421
