# Blender 4.3.2
# www.blender.org
o hair.097
v 7.292666 0.517402 0.005966
v 7.291281 0.517643 0.000254
v 7.290191 0.517864 0.000988
v 7.294312 0.517082 0.004861
v 7.290595 0.517665 0.006998
v 7.294711 0.516258 0.010295
v 7.292065 0.516580 0.011602
v 7.295806 0.516571 0.003637
v 7.292253 0.517349 -0.000600
v 7.288778 0.517400 -0.004454
v 7.288240 0.517529 -0.004066
v 7.296800 0.515818 0.008882
v 7.296728 0.514191 0.014889
v 7.299273 0.513619 0.013157
v 7.293485 0.514602 0.016468
v 7.289666 0.514754 0.017380
v 7.288912 0.516744 0.012384
v 7.289123 0.517248 -0.004992
v 7.293079 0.516990 -0.001584
v 7.285245 0.517017 -0.008155
v 7.287694 0.517641 -0.003718
v 7.298678 0.515143 0.007302
v 7.290120 0.512686 0.021185
v 7.294370 0.512493 0.020177
v 7.285245 0.516811 0.012731
v 7.288124 0.517836 0.007631
v 7.289473 0.517074 -0.005539
v 7.287022 0.517760 -0.003335
v 7.288786 0.518066 0.001602
v 7.296947 0.515979 0.002092
v 7.287170 0.518219 0.002103
v 7.285245 0.517917 0.007916
v 7.289786 0.516906 -0.006029
v 7.293774 0.516586 -0.002671
v 7.286134 0.517830 -0.003187
v 7.297920 0.515270 0.000462
v 7.300089 0.514353 0.005325
v 7.285245 0.518261 0.002165
v 7.282367 0.517836 0.007631
v 7.283321 0.518219 0.002103
v 7.294270 0.516166 -0.003844
v 7.289986 0.516589 -0.007019
v 7.285245 0.517882 -0.003036
v 7.298663 0.514520 -0.001235
v 7.301262 0.513407 0.003238
v 7.303198 0.511843 0.008793
v 7.301527 0.512804 0.011208
v 7.284357 0.517830 -0.003187
v 7.299311 0.513475 -0.003955
v 7.294822 0.515536 -0.005673
v 7.290183 0.516260 -0.008006
v 7.302125 0.512404 0.001079
v 7.304559 0.510706 0.006237
v 7.305527 0.509493 0.003598
v 7.303555 0.510453 0.014198
v 7.305425 0.509409 0.011468
v 7.283469 0.517760 -0.003335
v 7.299614 0.512527 -0.006746
v 7.294983 0.514909 -0.007571
v 7.289996 0.515966 -0.008960
v 7.306300 0.507802 -0.000536
v 7.302832 0.511003 -0.002342
v 7.306935 0.508187 0.008568
v 7.307369 0.506641 0.013991
v 7.281704 0.518066 0.001602
v 7.282797 0.517641 -0.003718
v 7.279896 0.517665 0.006998
v 7.294838 0.514341 -0.009517
v 7.289810 0.515673 -0.009913
v 7.303170 0.509807 -0.005864
v 7.280300 0.517864 0.000988
v 7.282250 0.517529 -0.004066
v 7.281579 0.516744 0.012384
v 7.278426 0.516580 0.011602
v 7.277824 0.517402 0.005966
v 7.289276 0.515429 -0.010726
v 7.294281 0.513815 -0.011378
v 7.299407 0.511813 -0.009673
v 7.279210 0.517643 0.000254
v 7.281713 0.517400 -0.004454
v 7.280825 0.514754 0.017380
v 7.275780 0.516258 0.010295
v 7.276179 0.517082 0.004861
v 7.285245 0.514798 0.017776
v 7.298720 0.511132 -0.012513
v 7.293437 0.513338 -0.013147
v 7.278238 0.517349 -0.000600
v 7.281368 0.517248 -0.004992
v 7.280371 0.512686 0.021185
v 7.277006 0.514602 0.016468
v 7.285245 0.512750 0.021618
v 7.277411 0.516990 -0.001584
v 7.274685 0.516571 0.003637
v 7.281018 0.517074 -0.005539
v 7.276121 0.512493 0.020177
v 7.273763 0.514191 0.014889
v 7.285245 0.510279 0.025131
v 7.302996 0.508936 -0.009549
v 7.280704 0.516906 -0.006029
v 7.276717 0.516586 -0.002671
v 7.272381 0.512019 0.018398
v 7.271218 0.513619 0.013157
v 7.273691 0.515818 0.008882
v 7.306634 0.506397 -0.004806
v 7.306482 0.505262 -0.009186
v 7.302211 0.508121 -0.013155
v 7.297446 0.510461 -0.015153
v 7.273544 0.515979 0.002092
v 7.271813 0.515143 0.007302
v 7.308946 0.502086 -0.008749
v 7.305590 0.504275 -0.013521
v 7.308802 0.505003 0.000916
v 7.303702 0.503271 -0.017543
v 7.300630 0.507271 -0.016502
v 7.295671 0.509853 -0.017482
v 7.270401 0.514353 0.005325
v 7.272571 0.515270 0.000462
v 7.307947 0.500969 -0.013571
v 7.305788 0.499924 -0.018021
v 7.307977 0.506861 0.005573
v 7.301083 0.502429 -0.021181
v 7.298418 0.506514 -0.019483
v 7.267292 0.511843 0.008793
v 7.269229 0.513407 0.003238
v 7.276221 0.516166 -0.003844
v 7.309883 0.497748 -0.013488
v 7.309021 0.505384 0.010797
v 7.310130 0.504015 0.007474
v 7.268964 0.512804 0.011208
v 7.280505 0.516589 -0.007019
v 7.310731 0.502276 0.012885
v 7.308956 0.503517 0.016304
v 7.310999 0.502100 0.002337
v 7.312828 0.499160 0.003697
v 7.311903 0.500952 0.009272
v 7.266936 0.510453 0.014198
v 7.269454 0.511362 0.016425
v 7.306749 0.504614 0.019496
v 7.310149 0.500002 0.018434
v 7.311283 0.500553 -0.002980
v 7.314265 0.496152 0.004930
v 7.313264 0.497784 0.010922
v 7.267931 0.508708 0.019491
v 7.271227 0.509433 0.021680
v 7.305315 0.507728 0.016986
v 7.309104 0.503477 -0.003904
v 7.314742 0.494851 -0.001221
v 7.315290 0.493061 0.005961
v 7.312040 0.498939 0.014805
v 7.275437 0.509956 0.023599
v 7.302559 0.508708 0.019491
v 7.313205 0.497769 -0.002058
v 7.312989 0.495482 0.016557
v 7.280032 0.510192 0.024673
v 7.303781 0.505631 0.022295
v 7.304621 0.501868 0.024845
v 7.307781 0.500961 0.021803
v 7.311031 0.498958 -0.008246
v 7.312634 0.496084 -0.007727
v 7.314147 0.494619 0.012372
v 7.279788 0.507196 0.027689
v 7.308368 0.496644 0.024001
v 7.310960 0.496086 0.020428
v 7.315873 0.491625 -0.000576
v 7.314762 0.490096 -0.006843
v 7.313850 0.493211 -0.007243
v 7.316650 0.488614 -0.000162
v 7.316034 0.490074 0.006627
v 7.274934 0.506959 0.026618
v 7.311186 0.491802 0.022085
v 7.313262 0.491772 0.018004
v 7.312223 0.491997 -0.013128
v 7.314814 0.491758 0.013782
v 7.315619 0.487045 0.013470
v 7.316817 0.485635 0.006740
v 7.270331 0.506406 0.024666
v 7.308342 0.491858 0.025794
v 7.311259 0.494841 -0.013331
v 7.316266 0.482331 0.013307
v 7.317272 0.480859 0.006696
v 7.317253 0.484364 0.000023
v 7.269728 0.502582 0.027354
v 7.266710 0.505631 0.022295
v 7.304996 0.491905 0.029034
v 7.305022 0.497187 0.027159
v 7.308583 0.493827 -0.018378
v 7.317266 0.477139 0.006911
v 7.316403 0.478118 0.013502
v 7.274625 0.503050 0.029240
v 7.263742 0.504614 0.019496
v 7.265870 0.501868 0.024845
v 7.300934 0.491877 0.031459
v 7.300999 0.497583 0.029671
v 7.316270 0.473904 0.013910
v 7.279644 0.503242 0.030267
v 7.285245 0.503305 0.030700
v 7.285245 0.507280 0.028143
v 7.265175 0.507728 0.016986
v 7.274519 0.497806 0.031475
v 7.269492 0.497583 0.029671
v 7.295971 0.497806 0.031475
v 7.295869 0.491791 0.033074
v 7.279597 0.497901 0.032450
v 7.290702 0.507196 0.027689
v 7.290459 0.510192 0.024673
v 7.263122 0.506641 0.013991
v 7.265066 0.509409 0.011468
v 7.290894 0.497901 0.032450
v 7.290835 0.491766 0.033990
v 7.295053 0.509956 0.023599
v 7.261535 0.503517 0.016304
v 7.261469 0.505384 0.010797
v 7.263556 0.508187 0.008568
v 7.262710 0.500961 0.021803
v 7.260342 0.500002 0.018434
v 7.265932 0.510706 0.006237
v 7.285245 0.491766 0.034378
v 7.299264 0.509433 0.021680
v 7.298110 0.512019 0.018398
v 7.259759 0.502276 0.012885
v 7.260361 0.504015 0.007474
v 7.262123 0.496644 0.024001
v 7.265469 0.497187 0.027159
v 7.264964 0.509493 0.003598
v 7.301036 0.511362 0.016425
v 7.265495 0.491905 0.029034
v 7.269557 0.491877 0.031459
v 7.262514 0.506861 0.005573
v 7.261689 0.505003 0.000916
v 7.264191 0.507802 -0.000536
v 7.268366 0.512404 0.001079
v 7.262149 0.491858 0.025794
v 7.274622 0.491791 0.033074
v 7.259492 0.502100 0.002337
v 7.271828 0.514520 -0.001235
v 7.300160 0.506406 0.024666
v 7.295557 0.506959 0.026618
v 7.259305 0.491802 0.022085
v 7.279655 0.491766 0.033990
v 7.259208 0.500553 -0.002980
v 7.257663 0.499160 0.003697
v 7.258588 0.500952 0.009272
v 7.300763 0.502582 0.027354
v 7.295866 0.503050 0.029240
v 7.259531 0.496086 0.020428
v 7.257229 0.491772 0.018004
v 7.275669 0.515536 -0.005673
v 7.271180 0.513475 -0.003955
v 7.290847 0.503242 0.030267
v 7.285245 0.497934 0.032862
v 7.280308 0.516260 -0.008006
v 7.257502 0.495482 0.016557
v 7.258451 0.498939 0.014805
v 7.280495 0.515966 -0.008960
v 7.275508 0.514909 -0.007571
v 7.267659 0.511003 -0.002342
v 7.257226 0.497784 0.010922
v 7.256344 0.494619 0.012372
v 7.280681 0.515673 -0.009913
v 7.275652 0.514341 -0.009517
v 7.270876 0.512527 -0.006746
v 7.267321 0.509807 -0.005864
v 7.263856 0.506397 -0.004806
v 7.255677 0.491758 0.013782
v 7.255201 0.493061 0.005961
v 7.254457 0.490074 0.006627
v 7.256226 0.496152 0.004930
v 7.271084 0.511813 -0.009673
v 7.264009 0.505262 -0.009186
v 7.267495 0.508936 -0.009549
v 7.261387 0.503477 -0.003904
v 7.254871 0.487045 0.013470
v 7.253840 0.488614 -0.000162
v 7.253674 0.485635 0.006740
v 7.255749 0.494851 -0.001221
v 7.257286 0.497769 -0.002058
v 7.271770 0.511132 -0.012513
v 7.268280 0.508121 -0.013155
v 7.261545 0.502086 -0.008749
v 7.253219 0.480859 0.006696
v 7.254225 0.482331 0.013307
v 7.253238 0.484364 0.000023
v 7.257857 0.496084 -0.007727
v 7.276210 0.513815 -0.011378
v 7.253012 0.479902 0.000147
v 7.253224 0.477139 0.006911
v 7.254088 0.478118 0.013502
v 7.254627 0.479082 -0.006124
v 7.254697 0.483246 -0.006335
v 7.259460 0.498958 -0.008246
v 7.281215 0.515429 -0.010726
v 7.277054 0.513338 -0.013147
v 7.254220 0.473904 0.013910
v 7.255729 0.490096 -0.006843
v 7.255114 0.487221 -0.006559
v 7.254618 0.491625 -0.000576
v 7.260608 0.497748 -0.013488
v 7.281748 0.515185 -0.011539
v 7.273045 0.510461 -0.015153
v 7.253820 0.468454 0.007953
v 7.254569 0.469691 0.014449
v 7.253421 0.472846 0.007324
v 7.257130 0.486187 -0.012708
v 7.274819 0.509853 -0.017482
v 7.269861 0.507271 -0.016502
v 7.255134 0.465609 0.015186
v 7.253368 0.471968 0.000746
v 7.253105 0.476260 0.000352
v 7.256917 0.482395 -0.012439
v 7.256641 0.493211 -0.007243
v 7.272073 0.506514 -0.019483
v 7.266789 0.503271 -0.017543
v 7.278290 0.512913 -0.014654
v 7.254806 0.475636 -0.005948
v 7.257006 0.478447 -0.012148
v 7.258268 0.491997 -0.013128
v 7.259232 0.494841 -0.013331
v 7.264901 0.504275 -0.013521
v 7.282550 0.515021 -0.012082
v 7.279752 0.512551 -0.015943
v 7.277000 0.509401 -0.019445
v 7.257568 0.488965 -0.012908
v 7.261908 0.493827 -0.018378
v 7.283352 0.514856 -0.012625
v 7.281473 0.512285 -0.016839
v 7.279532 0.509075 -0.020934
v 7.274719 0.506080 -0.022160
v 7.272530 0.501939 -0.024503
v 7.269408 0.502429 -0.021181
v 7.260625 0.488102 -0.018288
v 7.262544 0.500969 -0.013571
v 7.284298 0.514798 -0.012815
v 7.277876 0.505778 -0.024224
v 7.264703 0.499924 -0.018021
v 7.261155 0.491038 -0.018366
v 7.263039 0.496709 -0.018278
v 7.285245 0.514739 -0.013006
v 7.283314 0.512120 -0.017461
v 7.267645 0.499098 -0.022066
v 7.266279 0.495932 -0.022618
v 7.264797 0.490367 -0.023036
v 7.265377 0.493096 -0.022914
v 7.271128 0.498568 -0.025739
v 7.270072 0.495397 -0.026528
v 7.269408 0.492593 -0.026960
v 7.264392 0.487520 -0.023070
v 7.264152 0.484952 -0.023046
v 7.260308 0.485436 -0.018179
v 7.282329 0.508849 -0.021827
v 7.276264 0.501638 -0.027151
v 7.274483 0.495062 -0.029727
v 7.268715 0.487164 -0.027260
v 7.260195 0.481837 -0.017960
v 7.285245 0.508757 -0.022122
v 7.281473 0.505484 -0.025381
v 7.280651 0.501245 -0.028499
v 7.285245 0.512075 -0.017620
v 7.269001 0.489927 -0.027161
v 7.260321 0.478067 -0.017673
v 7.264072 0.481514 -0.022913
v 7.285245 0.505321 -0.025708
v 7.280136 0.497821 -0.030131
v 7.285245 0.501093 -0.028938
v 7.287177 0.512120 -0.017461
v 7.273772 0.489682 -0.030535
v 7.268541 0.484679 -0.027284
v 7.268470 0.481360 -0.027197
v 7.289840 0.501245 -0.028499
v 7.289018 0.505484 -0.025381
v 7.275239 0.498243 -0.028720
v 7.288162 0.508849 -0.021827
v 7.273586 0.486987 -0.030675
v 7.273467 0.484556 -0.030726
v 7.273402 0.481295 -0.030656
v 7.268552 0.477769 -0.026945
v 7.292615 0.505778 -0.024224
v 7.290959 0.509075 -0.020934
v 7.279335 0.486890 -0.032084
v 7.264178 0.477861 -0.022660
v 7.285245 0.497691 -0.030654
v 7.285245 0.494567 -0.031735
v 7.279761 0.494673 -0.031157
v 7.286192 0.514798 -0.012815
v 7.289018 0.512285 -0.016839
v 7.260504 0.474844 -0.017501
v 7.290355 0.497821 -0.030131
v 7.279545 0.491998 -0.031705
v 7.287139 0.514856 -0.012625
v 7.290739 0.512551 -0.015943
v 7.257234 0.475169 -0.011988
v 7.274033 0.492288 -0.030276
v 7.294227 0.501638 -0.027151
v 7.287941 0.515021 -0.012082
v 7.288743 0.515185 -0.011539
v 7.293490 0.509401 -0.019445
v 7.295772 0.506080 -0.022160
v 7.257586 0.471232 -0.011711
v 7.255141 0.471517 -0.005618
v 7.297961 0.501939 -0.024503
v 7.292201 0.512913 -0.014654
v 7.255625 0.467145 -0.005036
v 7.253815 0.467488 0.001407
v 7.279424 0.489504 -0.031953
v 7.299363 0.498568 -0.025739
v 7.254521 0.462910 0.002259
v 7.254477 0.464058 0.008779
v 7.285245 0.489473 -0.032566
v 7.302845 0.499098 -0.022066
v 7.295252 0.498243 -0.028720
v 7.255442 0.459754 0.009788
v 7.255919 0.461791 0.016187
v 7.285245 0.491929 -0.032308
v 7.304212 0.495932 -0.022618
v 7.307452 0.496709 -0.018278
v 7.296008 0.495062 -0.029727
v 7.290730 0.494673 -0.031157
v 7.256926 0.458235 0.017365
v 7.290946 0.491998 -0.031705
v 7.300419 0.495397 -0.026528
v 7.301083 0.492593 -0.026960
v 7.296458 0.492288 -0.030276
v 7.256606 0.455604 0.011182
v 7.258117 0.452276 0.012186
v 7.258156 0.454944 0.018636
v 7.296719 0.489682 -0.030535
v 7.291067 0.489504 -0.031953
v 7.255560 0.458333 0.003226
v 7.257524 0.453063 0.004609
v 7.259498 0.451784 0.019952
v 7.291156 0.486890 -0.032084
v 7.305114 0.493096 -0.022914
v 7.256300 0.462677 -0.004294
v 7.257223 0.458281 -0.003478
v 7.258467 0.453986 -0.002578
v 7.285245 0.486885 -0.032701
v 7.309336 0.491038 -0.018366
v 7.305694 0.490367 -0.023036
v 7.301489 0.489927 -0.027161
v 7.258619 0.462782 -0.010576
v 7.258048 0.467023 -0.011210
v 7.260372 0.454911 -0.009069
v 7.285245 0.484522 -0.032745
v 7.279277 0.484517 -0.032128
v 7.309865 0.488102 -0.018288
v 7.301776 0.487164 -0.027260
v 7.296905 0.486987 -0.030675
v 7.261120 0.466911 -0.016677
v 7.260773 0.470980 -0.017204
v 7.291214 0.484517 -0.032128
v 7.297024 0.484556 -0.030726
v 7.279240 0.481293 -0.032051
v 7.264497 0.470737 -0.022081
v 7.264744 0.466795 -0.021453
v 7.265010 0.463020 -0.020715
v 7.261533 0.462905 -0.016025
v 7.264307 0.474605 -0.022451
v 7.291251 0.481293 -0.032051
v 7.273461 0.477719 -0.030386
v 7.279269 0.477738 -0.031773
v 7.269170 0.466726 -0.025410
v 7.262010 0.459227 -0.015342
v 7.259368 0.458761 -0.009872
v 7.268694 0.474431 -0.026680
v 7.285245 0.481287 -0.032664
v 7.262697 0.455770 -0.014538
v 7.265310 0.459664 -0.019960
v 7.265783 0.456578 -0.019046
v 7.268927 0.470528 -0.026173
v 7.273613 0.474303 -0.030070
v 7.273843 0.470352 -0.029478
v 7.269632 0.460127 -0.023679
v 7.269413 0.463204 -0.024523
v 7.269973 0.457355 -0.022653
v 7.279359 0.474335 -0.031459
v 7.274065 0.466641 -0.028619
v 7.279593 0.466762 -0.030086
v 7.279478 0.470410 -0.030923
v 7.285245 0.477725 -0.032378
v 7.274313 0.463330 -0.027555
v 7.274844 0.458031 -0.025285
v 7.274571 0.460532 -0.026450
v 7.285245 0.474340 -0.032062
v 7.285245 0.470432 -0.031533
v 7.291222 0.477738 -0.031773
v 7.291131 0.474335 -0.031459
v 7.279840 0.460880 -0.028017
v 7.279719 0.463549 -0.029047
v 7.279979 0.458542 -0.026868
v 7.285245 0.466790 -0.030709
v 7.291013 0.470410 -0.030923
v 7.290897 0.466762 -0.030086
v 7.297030 0.477719 -0.030386
v 7.297089 0.481295 -0.030656
v 7.285245 0.463605 -0.029655
v 7.285245 0.458759 -0.027395
v 7.285245 0.461007 -0.028578
v 7.296648 0.470352 -0.029478
v 7.301939 0.477769 -0.026945
v 7.301797 0.474431 -0.026680
v 7.296877 0.474303 -0.030070
v 7.302021 0.481360 -0.027197
v 7.301950 0.484679 -0.027284
v 7.290650 0.460880 -0.028017
v 7.290512 0.458542 -0.026868
v 7.306418 0.481514 -0.022913
v 7.306313 0.477861 -0.022660
v 7.306339 0.484952 -0.023046
v 7.306099 0.487520 -0.023070
v 7.295647 0.458031 -0.025285
v 7.295919 0.460532 -0.026450
v 7.296177 0.463330 -0.027555
v 7.290771 0.463549 -0.029047
v 7.310170 0.478067 -0.017673
v 7.310296 0.481837 -0.017960
v 7.310183 0.485436 -0.018179
v 7.300858 0.460127 -0.023679
v 7.300518 0.457355 -0.022653
v 7.313573 0.482395 -0.012439
v 7.313485 0.478447 -0.012148
v 7.309987 0.474844 -0.017501
v 7.313361 0.486187 -0.012708
v 7.312922 0.488965 -0.012908
v 7.304708 0.456578 -0.019046
v 7.296426 0.466641 -0.028619
v 7.306184 0.474605 -0.022451
v 7.315377 0.487221 -0.006559
v 7.315794 0.483246 -0.006335
v 7.305181 0.459664 -0.019960
v 7.308481 0.459227 -0.015342
v 7.307794 0.455770 -0.014538
v 7.305994 0.470737 -0.022081
v 7.301564 0.470528 -0.026173
v 7.315864 0.479082 -0.006124
v 7.305481 0.463020 -0.020715
v 7.310119 0.454911 -0.009069
v 7.301078 0.463204 -0.024523
v 7.301321 0.466726 -0.025410
v 7.317479 0.479902 0.000147
v 7.315685 0.475636 -0.005948
v 7.313257 0.475169 -0.011988
v 7.311123 0.458761 -0.009872
v 7.313268 0.458281 -0.003478
v 7.312024 0.453986 -0.002578
v 7.317386 0.476260 0.000352
v 7.312905 0.471232 -0.011711
v 7.309718 0.470980 -0.017204
v 7.311872 0.462782 -0.010576
v 7.308958 0.462905 -0.016025
v 7.312966 0.453063 0.004609
v 7.305747 0.466795 -0.021453
v 7.309371 0.466911 -0.016677
v 7.317123 0.471968 0.000746
v 7.312443 0.467023 -0.011210
v 7.314866 0.467145 -0.005036
v 7.314190 0.462677 -0.004294
v 7.314931 0.458333 0.003226
v 7.313885 0.455604 0.011182
v 7.312374 0.452276 0.012186
v 7.315350 0.471517 -0.005618
v 7.315969 0.462910 0.002259
v 7.315049 0.459754 0.009788
v 7.313565 0.458235 0.017365
v 7.312335 0.454944 0.018636
v 7.310993 0.451784 0.019952
v 7.316676 0.467488 0.001407
v 7.316670 0.468454 0.007953
v 7.316014 0.464058 0.008779
v 7.314572 0.461791 0.016187
v 7.315357 0.465609 0.015186
v 7.317070 0.472846 0.007324
v 7.315922 0.469691 0.014449
v 7.313262 0.491772 0.018004
v 7.285245 0.493578 0.011005
v 7.314814 0.491758 0.013782
v 7.311186 0.491802 0.022085
v 7.309259 0.491786 0.008688
v 7.308342 0.491858 0.025794
v 7.303708 0.491814 0.003596
v 7.304996 0.491905 0.029034
v 7.298156 0.491842 -0.001495
v 7.300934 0.491877 0.031459
v 7.292604 0.491870 -0.006587
v 7.295869 0.491791 0.033074
v 7.290835 0.491766 0.033990
v 7.285245 0.491766 0.034378
v 7.279655 0.491766 0.033990
v 7.274622 0.491791 0.033074
v 7.269557 0.491877 0.031459
v 7.265495 0.491905 0.029034
v 7.262149 0.491858 0.025794
v 7.259305 0.491802 0.022085
v 7.257229 0.491772 0.018004
v 7.261231 0.491786 0.008688
v 7.266783 0.491814 0.003596
v 7.272335 0.491842 -0.001495
v 7.277886 0.491870 -0.006587
v 7.255677 0.491758 0.013782
v 7.299994 0.487380 -0.001228
v 7.294780 0.487491 -0.006130
v 7.305207 0.487269 0.003673
v 7.306590 0.482784 0.003825
v 7.301773 0.482948 -0.000924
v 7.296956 0.483112 -0.005673
v 7.310414 0.487157 0.008572
v 7.311405 0.482620 0.008574
v 7.307767 0.478425 0.004143
v 7.312085 0.478271 0.008822
v 7.303449 0.478579 -0.000537
v 7.299131 0.478733 -0.005216
v 7.315619 0.487045 0.013470
v 7.316266 0.482331 0.013307
v 7.308788 0.474129 0.004575
v 7.312530 0.474017 0.009242
v 7.316270 0.473904 0.013910
v 7.316403 0.478118 0.013502
v 7.305048 0.474241 -0.000092
v 7.301307 0.474354 -0.004759
v 7.309701 0.469833 0.005074
v 7.312812 0.469762 0.009761
v 7.306592 0.469904 0.000386
v 7.315922 0.469691 0.014449
v 7.303482 0.469975 -0.004302
v 7.310052 0.465861 0.005864
v 7.315357 0.465609 0.015186
v 7.312712 0.465682 0.010482
v 7.307681 0.466080 0.001092
v 7.305658 0.465596 -0.003845
v 7.309470 0.462190 0.006982
v 7.312000 0.462145 0.011481
v 7.314572 0.461791 0.016187
v 7.306907 0.462258 0.001975
v 7.305020 0.460676 -0.009188
v 7.307620 0.459816 -0.005711
v 7.302256 0.465596 -0.003845
v 7.308409 0.458666 0.008352
v 7.310774 0.458526 0.012802
v 7.313565 0.458235 0.017365
v 7.309393 0.458033 -0.000230
v 7.310119 0.454911 -0.009069
v 7.298853 0.465596 -0.003845
v 7.310474 0.455862 0.006047
v 7.309659 0.455237 0.014003
v 7.312335 0.454944 0.018636
v 7.312024 0.453986 -0.002578
v 7.307794 0.455770 -0.014538
v 7.301781 0.461087 -0.011445
v 7.292049 0.465596 -0.003845
v 7.312374 0.452276 0.012186
v 7.312966 0.453063 0.004609
v 7.310993 0.451784 0.019952
v 7.304708 0.456578 -0.019046
v 7.300518 0.457355 -0.022653
v 7.285245 0.465596 -0.003845
v 7.290512 0.458542 -0.026868
v 7.295647 0.458031 -0.025285
v 7.278441 0.465596 -0.003845
v 7.279979 0.458542 -0.026868
v 7.285245 0.458759 -0.027395
v 7.271637 0.465596 -0.003845
v 7.268710 0.461087 -0.011445
v 7.269973 0.457355 -0.022653
v 7.274844 0.458031 -0.025285
v 7.265471 0.460676 -0.009188
v 7.268235 0.465596 -0.003845
v 7.265783 0.456578 -0.019046
v 7.262871 0.459816 -0.005711
v 7.260372 0.454911 -0.009069
v 7.262697 0.455770 -0.014538
v 7.264833 0.465596 -0.003845
v 7.261097 0.458033 -0.000230
v 7.263584 0.462258 0.001975
v 7.258467 0.453986 -0.002578
v 7.262810 0.466080 0.001092
v 7.263898 0.469904 0.000386
v 7.267009 0.469975 -0.004302
v 7.262082 0.458666 0.008352
v 7.260016 0.455862 0.006047
v 7.261021 0.462190 0.006982
v 7.257524 0.453063 0.004609
v 7.260439 0.465861 0.005864
v 7.269184 0.474354 -0.004759
v 7.260831 0.455237 0.014003
v 7.259717 0.458526 0.012802
v 7.258117 0.452276 0.012186
v 7.257779 0.465682 0.010482
v 7.258491 0.462145 0.011481
v 7.257679 0.469762 0.009761
v 7.260790 0.469833 0.005074
v 7.265443 0.474241 -0.000092
v 7.267042 0.478579 -0.000537
v 7.271360 0.478733 -0.005216
v 7.259498 0.451784 0.019952
v 7.258156 0.454944 0.018636
v 7.255134 0.465609 0.015186
v 7.255919 0.461791 0.016187
v 7.261703 0.474129 0.004575
v 7.273535 0.483112 -0.005673
v 7.262724 0.478425 0.004143
v 7.268718 0.482948 -0.000924
v 7.263901 0.482784 0.003825
v 7.256926 0.458235 0.017365
v 7.254569 0.469691 0.014449
v 7.257961 0.474017 0.009242
v 7.258406 0.478271 0.008822
v 7.270496 0.487380 -0.001228
v 7.275711 0.487491 -0.006130
v 7.254220 0.473904 0.013910
v 7.254088 0.478118 0.013502
v 7.259086 0.482620 0.008574
v 7.254225 0.482331 0.013307
v 7.265284 0.487269 0.003673
v 7.260077 0.487157 0.008572
v 7.254871 0.487045 0.013470
vn -0.1891 0.9790 -0.0758
vn -0.2807 0.9592 0.0332
vn -0.2053 0.9755 0.0789
vn -0.1430 0.9887 -0.0459
vn 0.6503 0.5547 -0.5190
vn 0.5616 0.6583 -0.5013
vn 0.6271 0.6814 -0.3775
vn 0.7167 0.5847 -0.3800
vn 0.2053 0.9755 0.0789
vn 0.2807 0.9592 0.0332
vn 0.1891 0.9790 -0.0758
vn 0.1430 0.9887 -0.0459
vn 0.7272 0.6802 -0.0927
vn 0.7836 0.6189 -0.0533
vn 0.7959 0.5944 -0.1149
vn 0.7437 0.6533 -0.1416
vn -0.3655 0.9306 -0.0220
vn -0.2444 0.9631 -0.1125
vn -0.1478 0.9738 -0.1730
vn -0.1173 0.9807 -0.1562
vn 0.8372 0.5251 -0.1531
vn 0.8010 0.5763 -0.1620
vn 0.8381 0.5398 -0.0794
vn -0.4747 0.8765 0.0796
vn -0.3734 0.9147 0.1549
vn 0.6870 0.3418 -0.6413
vn 0.6003 0.3192 -0.7333
vn 0.5660 0.4286 -0.7042
vn 0.6485 0.4415 -0.6201
vn -0.2783 0.9370 0.2110
vn -0.4478 0.8543 0.2639
vn -0.3415 0.8802 0.3297
vn 0.2431 0.8361 0.4917
vn 0.3855 0.8158 0.4310
vn 0.3415 0.8802 0.3297
vn 0.2131 0.8984 0.3841
vn 0.8338 0.5520 -0.0043
vn 0.8794 0.4730 0.0536
vn 0.8817 0.4707 -0.0305
vn -0.1680 0.9659 -0.1973
vn -0.2907 0.9453 -0.1478
vn 0.5548 0.8009 -0.2255
vn 0.5366 0.7965 -0.2787
vn 0.3700 0.8770 -0.3066
vn 0.3831 0.8842 -0.2671
vn 0.1478 0.9738 -0.1730
vn 0.1680 0.9659 -0.1973
vn -0.0000 0.9545 -0.2983
vn 0.1173 0.9807 -0.1562
vn 0.0971 0.9849 -0.1436
vn 0.7875 0.2693 -0.5544
vn 0.7148 0.2351 -0.6586
vn 0.7527 0.3725 -0.5428
vn 0.5015 0.7889 0.3552
vn 0.4478 0.8543 0.2639
vn -0.3855 0.8158 0.4310
vn -0.2431 0.8361 0.4917
vn -0.2131 0.8984 0.3841
vn -0.0000 0.5224 -0.8527
vn 0.1344 0.5275 -0.8389
vn 0.1540 0.3882 -0.9086
vn -0.0000 0.3826 -0.9239
vn 0.2907 0.9453 -0.1478
vn 0.3291 0.9272 -0.1791
vn 0.1873 0.9579 -0.2176
vn -0.1873 0.9579 -0.2176
vn -0.3291 0.9272 -0.1791
vn 0.0748 0.9888 -0.1291
vn 0.4286 0.8999 -0.0801
vn 0.4807 0.8672 -0.1298
vn -0.1957 0.7718 -0.6049
vn -0.3032 0.7666 -0.5661
vn -0.1950 0.8418 -0.5034
vn -0.1303 0.8396 -0.5274
vn -0.0549 0.9985 -0.0071
vn -0.1027 0.9944 -0.0267
vn -0.1379 0.9839 0.1135
vn -0.0691 0.9882 0.1367
vn -0.0748 0.9888 -0.1291
vn -0.0431 0.9913 -0.1246
vn 0.8272 -0.1603 -0.5385
vn 0.8930 -0.1640 -0.4190
vn 0.8918 -0.2060 -0.4027
vn 0.8274 -0.1943 -0.5269
vn 0.2100 0.9476 -0.2405
vn -0.4807 0.8672 -0.1298
vn -0.4286 0.8999 -0.0801
vn -0.2100 0.9476 -0.2405
vn -0.3570 0.9109 -0.2072
vn 0.0431 0.9913 -0.1246
vn -0.6738 0.7135 -0.1922
vn -0.6647 0.7024 -0.2544
vn -0.7496 0.6159 -0.2427
vn -0.7506 0.6377 -0.1730
vn -0.0000 1.0000 -0.0056
vn -0.0000 0.9932 -0.1162
vn 0.0691 0.9882 0.1367
vn -0.0000 0.9892 0.1464
vn -0.0000 0.9543 0.2987
vn 0.0817 0.9543 0.2875
vn 0.0549 0.9985 -0.0071
vn -0.5218 0.8359 -0.1701
vn 0.5089 0.5460 -0.6656
vn 0.3299 0.5430 -0.7722
vn 0.2665 0.6759 -0.6871
vn 0.4167 0.6675 -0.6171
vn 0.2143 0.9393 -0.2680
vn 0.6052 0.7929 -0.0708
vn 0.6912 0.7226 -0.0133
vn 0.6451 0.7526 -0.1317
vn -0.6393 0.7656 0.0721
vn -0.5569 0.8124 0.1727
vn -0.5512 0.8344 -0.0023
vn -0.2044 0.9143 -0.3498
vn -0.3391 0.8678 -0.3633
vn -0.3700 0.8770 -0.3066
vn -0.2129 0.9237 -0.3185
vn -0.9176 -0.2908 -0.2710
vn -0.9530 -0.2872 -0.0967
vn -0.9727 -0.2034 -0.1118
vn -0.9307 -0.2179 -0.2936
vn -0.2239 0.9293 -0.2938
vn -0.3831 0.8842 -0.2671
vn -0.3796 0.8943 -0.2369
vn -0.2143 0.9393 -0.2680
vn 0.2239 0.9293 -0.2938
vn -0.9375 -0.1653 -0.3063
vn -0.8930 -0.1640 -0.4190
vn -0.8918 -0.2060 -0.4027
vn -0.6052 0.7929 -0.0708
vn -0.6451 0.7526 -0.1317
vn -0.7272 0.6802 -0.0927
vn -0.6912 0.7226 -0.0133
vn -0.6666 0.7260 -0.1692
vn -0.7437 0.6533 -0.1416
vn 0.8993 -0.0605 -0.4331
vn 0.8956 -0.0919 -0.4352
vn 0.8270 -0.0897 -0.5550
vn 0.8264 -0.0714 -0.5585
vn -0.6995 0.7006 0.1408
vn -0.7501 0.6600 0.0416
vn 0.5000 0.6537 -0.5680
vn 0.5904 0.5439 -0.5963
vn 0.7144 -0.2072 -0.6683
vn 0.7248 -0.1760 -0.6661
vn -0.9910 0.0918 -0.0970
vn -0.9565 0.0406 -0.2888
vn -0.9530 -0.0316 -0.3015
vn -0.9940 0.0084 -0.1088
vn 0.2129 0.9237 -0.3185
vn -0.9044 -0.0069 -0.4266
vn -0.8993 -0.0605 -0.4331
vn -0.8830 0.3932 -0.2563
vn -0.9200 0.2904 -0.2633
vn -0.9279 0.3547 -0.1151
vn -0.8793 0.4559 -0.1377
vn 0.8019 0.5882 0.1048
vn 0.7504 0.6252 0.2145
vn 0.7939 0.5310 0.2963
vn 0.8469 0.5020 0.1755
vn 0.4416 0.6251 0.6436
vn 0.4469 0.4758 0.7576
vn 0.6084 0.4644 0.6436
vn 0.5871 0.6009 0.5424
vn 0.4176 0.7381 0.5300
vn 0.2661 0.7552 0.5991
vn 0.1027 0.9944 -0.0267
vn -0.0971 0.9849 -0.1436
vn -0.3802 0.7592 -0.5283
vn -0.5000 0.6537 -0.5680
vn -0.5616 0.6583 -0.5013
vn -0.4401 0.7662 -0.4682
vn -0.5366 0.7965 -0.2787
vn -0.5548 0.8009 -0.2255
vn -0.0404 0.8871 -0.4599
vn -0.0651 0.8363 -0.5443
vn -0.0802 0.8877 -0.4533
vn 0.2044 0.9143 -0.3498
vn -0.1762 0.9502 0.2570
vn -0.0817 0.9543 0.2875
vn 0.1379 0.9839 0.1135
vn 0.1762 0.9502 0.2570
vn 0.2783 0.9370 0.2110
vn 0.1780 0.9078 -0.3797
vn 0.1592 -0.4075 -0.8992
vn 0.3405 -0.3779 -0.8610
vn 0.3303 -0.4126 -0.8489
vn 0.1566 -0.4456 -0.8814
vn -0.0000 0.7643 -0.6448
vn -0.0000 0.6634 -0.7483
vn -0.1082 0.6687 -0.7356
vn -0.0861 0.7684 -0.6341
vn -0.1540 0.3882 -0.9086
vn -0.1651 0.2708 -0.9484
vn -0.3945 0.2961 -0.8699
vn -0.3706 0.4122 -0.8323
vn 0.3706 0.4122 -0.8323
vn 0.0938 0.9053 0.4144
vn -0.0000 0.9063 0.4227
vn 0.3734 0.9147 0.1549
vn 0.5464 0.7105 0.4435
vn -0.5944 -0.2159 -0.7746
vn -0.5659 -0.2576 -0.7832
vn -0.7144 -0.2072 -0.6683
vn -0.7248 -0.1760 -0.6661
vn 0.6647 0.7024 -0.2544
vn 0.4976 0.7832 -0.3727
vn 0.9878 0.0734 0.1375
vn 0.9912 -0.0001 0.1327
vn 0.9969 -0.0169 0.0773
vn 0.9954 0.0477 0.0832
vn -0.0000 0.8497 0.5273
vn 0.1094 0.8466 0.5209
vn 0.3655 0.9306 -0.0220
vn 0.2444 0.9631 -0.1125
vn -0.8582 0.3251 -0.3973
vn -0.8859 0.2270 -0.4046
vn 0.4401 0.7662 -0.4682
vn -0.8469 0.5020 0.1755
vn -0.8785 0.4116 0.2425
vn -0.8178 0.4318 0.3805
vn -0.7939 0.5310 0.2963
vn 0.7295 0.1464 -0.6681
vn 0.6309 0.1244 -0.7658
vn 0.6220 0.2087 -0.7547
vn -0.1094 0.8466 0.5209
vn -0.1248 0.7625 0.6348
vn -0.0000 0.7645 0.6446
vn -0.4976 0.7832 -0.3727
vn -0.6271 0.6814 -0.3775
vn 0.2496 0.8472 -0.4690
vn 0.3802 0.7592 -0.5283
vn 0.3032 0.7666 -0.5661
vn 0.1950 0.8418 -0.5034
vn 0.6667 0.6671 0.3324
vn 0.7116 0.5629 0.4205
vn -0.0938 0.9053 0.4144
vn 0.8185 0.4224 -0.3894
vn 0.8582 0.3251 -0.3973
vn -0.7167 0.5847 -0.3800
vn 0.4747 0.8765 0.0796
vn 0.5512 0.8344 -0.0023
vn 0.5569 0.8124 0.1727
vn -0.9408 0.2057 -0.2696
vn -0.9598 0.2624 -0.0996
vn -0.7959 0.5944 -0.1149
vn -0.7836 0.6189 -0.0533
vn -0.8010 0.5763 -0.1620
vn -0.6503 0.5547 -0.5190
vn 0.3796 0.8943 -0.2369
vn -0.7098 0.4634 -0.5305
vn -0.7745 0.5034 -0.3831
vn -0.5904 0.5439 -0.5963
vn 0.9490 -0.2752 0.1542
vn 0.9306 -0.3320 0.1543
vn 0.9265 -0.3597 0.1110
vn 0.9439 -0.3178 0.0901
vn 0.6393 0.7656 0.0721
vn -0.5468 0.8128 -0.2009
vn -0.7527 0.3725 -0.5428
vn -0.8185 0.4224 -0.3894
vn -0.5660 0.4286 -0.7042
vn -0.6485 0.4415 -0.6201
vn -0.5089 0.5460 -0.6656
vn -0.8338 0.5520 -0.0043
vn -0.8019 0.5882 0.1048
vn 0.3570 0.9109 -0.2072
vn -0.8794 0.4730 0.0536
vn -0.7504 0.6252 0.2145
vn -0.8034 0.5448 -0.2401
vn -0.8817 0.4707 -0.0305
vn -0.8381 0.5398 -0.0794
vn 0.6159 0.7462 0.2527
vn 0.6995 0.7006 0.1408
vn -0.7116 0.5629 0.4205
vn -0.6667 0.6671 0.3324
vn 0.8785 0.4116 0.2425
vn 0.9178 0.3818 0.1089
vn -0.8372 0.5251 -0.1531
vn -0.8427 0.4788 -0.2463
vn -0.9178 0.3818 0.1089
vn -0.6220 0.2087 -0.7547
vn -0.7148 0.2351 -0.6586
vn -0.6870 0.3418 -0.6413
vn -0.6003 0.3192 -0.7333
vn 0.8830 0.3932 -0.2563
vn 0.8427 0.4788 -0.2463
vn 0.9917 -0.0519 -0.1173
vn 0.9940 0.0084 -0.1088
vn 0.2788 0.6324 0.7227
vn -0.9264 0.3758 0.0212
vn 0.1248 0.7625 0.6348
vn -0.2753 0.4722 0.8374
vn -0.1342 0.4639 0.8757
vn -0.1340 0.6304 0.7646
vn -0.2788 0.6324 0.7227
vn -0.2661 0.7552 0.5991
vn 0.9307 -0.2179 -0.2936
vn 0.9176 -0.2908 -0.2710
vn 0.8849 -0.2667 -0.3818
vn -0.9822 -0.1434 -0.1211
vn -0.9879 -0.0944 -0.1229
vn -0.9426 -0.1206 -0.3114
vn -0.6084 0.4644 0.6436
vn -0.6060 0.3256 0.7257
vn -0.4287 0.3302 0.8410
vn -0.4469 0.4758 0.7576
vn 0.1340 0.6304 0.7646
vn -0.0000 0.6290 0.7774
vn -0.8314 0.3059 0.4638
vn -0.7398 0.3128 0.5957
vn -0.7354 0.4445 0.5115
vn -0.9475 -0.0808 -0.3094
vn -0.9917 -0.0519 -0.1173
vn -0.8956 -0.0919 -0.4352
vn -0.8582 0.1497 0.4910
vn -0.8398 0.2086 0.5012
vn -0.8269 0.0688 0.5581
vn -0.8332 -0.0496 0.5507
vn 0.5333 -0.7271 0.4323
vn 0.6017 -0.7321 0.3195
vn 0.4691 -0.8175 0.3340
vn 0.2903 -0.8717 0.3948
vn -0.8261 0.2299 0.5145
vn -0.7281 0.2426 0.6411
vn -0.7875 0.2693 -0.5544
vn -0.8087 0.1754 -0.5614
vn -0.9741 0.2112 0.0812
vn -0.9877 0.1285 0.0890
vn -0.9803 0.1438 0.1353
vn -0.9548 0.2340 0.1834
vn 0.3704 -0.3176 -0.8729
vn 0.5659 -0.2576 -0.7832
vn 0.5268 -0.3169 -0.7887
vn -0.9954 0.0477 0.0832
vn -0.9878 0.0734 0.1375
vn -0.8237 0.3488 0.4470
vn -0.9757 -0.0722 0.2068
vn -0.7804 0.4255 0.4582
vn -0.8096 0.3542 0.4682
vn -0.9550 0.2910 0.0575
vn 0.7501 0.6600 0.0416
vn 0.8398 0.2086 0.5012
vn 0.8096 0.3542 0.4682
vn 0.8237 0.3488 0.4470
vn 0.8582 0.1497 0.4910
vn 0.5944 -0.2159 -0.7746
vn 0.3904 -0.2574 -0.8840
vn 0.4009 -0.1858 -0.8971
vn 0.6150 -0.1624 -0.7716
vn -0.9969 -0.0169 0.0773
vn -0.9912 -0.0001 0.1327
vn 0.1342 0.4639 0.8757
vn 0.2753 0.4722 0.8374
vn 0.7354 0.4445 0.5115
vn -0.4053 0.2649 0.8750
vn -0.5879 0.2605 0.7658
vn 0.5218 0.8359 -0.1701
vn 0.1651 0.2708 -0.9484
vn -0.0000 0.2657 -0.9641
vn -0.0000 0.4611 0.8874
vn 0.2580 0.3199 0.9117
vn 0.4287 0.3302 0.8410
vn 0.6060 0.3256 0.7257
vn -0.2433 0.2518 0.9367
vn -0.2580 0.3199 0.9117
vn 0.7412 0.0263 -0.6708
vn 0.8246 0.0377 -0.5645
vn 0.8267 -0.0343 -0.5617
vn 0.7448 -0.0388 -0.6662
vn 0.9800 -0.1469 0.1342
vn 0.9697 -0.2000 0.1400
vn 0.9690 -0.2336 0.0805
vn 0.9832 -0.1645 0.0791
vn -0.8184 0.1069 -0.5646
vn -0.8246 0.0377 -0.5645
vn -0.9052 0.0742 -0.4185
vn -0.8988 0.1502 -0.4118
vn -0.1686 -0.1188 -0.9785
vn -0.1718 -0.1838 -0.9678
vn -0.4009 -0.1858 -0.8971
vn -0.4060 -0.1239 -0.9054
vn -0.9792 0.1812 -0.0907
vn -0.1235 0.2423 0.9623
vn -0.1286 0.3107 0.9418
vn -0.6159 0.7462 0.2527
vn -0.5464 0.7105 0.4435
vn -0.5015 0.7889 0.3552
vn -0.9955 -0.0600 0.0732
vn 0.8178 0.4318 0.3805
vn -0.0000 0.2408 0.9706
vn -0.0000 0.3085 0.9512
vn -0.4176 0.7381 0.5300
vn -0.4083 0.1837 -0.8942
vn 0.2433 0.2518 0.9367
vn 0.4053 0.2649 0.8750
vn -0.8986 0.3047 0.3157
vn 0.1722 -0.2683 -0.9478
vn 0.1684 -0.3405 -0.9250
vn 0.7398 0.3128 0.5957
vn 0.5879 0.2605 0.7658
vn 0.7281 0.2426 0.6411
vn -0.5268 -0.3169 -0.7887
vn -0.6966 -0.2655 -0.6665
vn -0.9413 0.2980 0.1586
vn -0.7352 -0.1342 -0.6644
vn -0.6150 -0.1624 -0.7716
vn 0.6666 0.7260 -0.1692
vn 0.8940 -0.1261 -0.4299
vn 0.9426 -0.1206 -0.3114
vn 0.9375 -0.1653 -0.3063
vn -0.4416 0.6251 0.6436
vn 0.8261 0.2299 0.5145
vn 0.8314 0.3059 0.4638
vn -0.8940 -0.1261 -0.4299
vn -0.9524 0.1273 -0.2769
vn 0.8793 0.4559 -0.1377
vn -0.5871 0.6009 0.5424
vn -0.0000 -0.3423 -0.9396
vn -0.0000 -0.4130 -0.9107
vn -0.1592 -0.4075 -0.8992
vn -0.1684 -0.3405 -0.9250
vn 0.8988 0.2351 0.3701
vn 0.8986 0.3047 0.3157
vn 0.5468 0.8128 -0.2009
vn -0.0000 -0.9580 0.2867
vn -0.0957 -0.9514 0.2928
vn -0.0743 -0.9345 0.3480
vn 0.9413 0.2980 0.1586
vn 0.7496 0.6159 -0.2427
vn 0.9548 0.2340 0.1834
vn 0.3391 0.8678 -0.3633
vn 0.6738 0.7135 -0.1922
vn -0.1146 0.8938 -0.4335
vn -0.2496 0.8472 -0.4690
vn -0.1515 0.8986 -0.4118
vn 0.7506 0.6377 -0.1730
vn 0.9550 0.2910 0.0575
vn 0.9264 0.3758 0.0212
vn 0.9741 0.2112 0.0812
vn 0.9877 0.1285 0.0890
vn 0.9803 0.1438 0.1353
vn 0.9792 0.1812 -0.0907
vn 0.9598 0.2624 -0.0996
vn 0.9910 0.0918 -0.0970
vn 0.9279 0.3547 -0.1151
vn 0.8034 0.5448 -0.2401
vn -0.6754 -0.1981 0.7103
vn -0.4550 -0.7466 0.4854
vn -0.4488 -0.7546 0.4787
vn -0.6711 -0.2284 0.7053
vn 0.9200 0.2904 -0.2633
vn -0.8215 -0.2517 -0.5117
vn -0.8274 -0.1943 -0.5269
vn -0.3704 -0.3176 -0.8729
vn -0.3405 -0.3779 -0.8610
vn 0.9530 -0.0316 -0.3015
vn 0.9565 0.0406 -0.2888
vn -0.8143 -0.5749 -0.0802
vn -0.7904 -0.5953 -0.1447
vn -0.9769 -0.0895 0.1942
vn 0.2996 0.8557 -0.4220
vn -0.1780 0.9078 -0.3797
vn 0.9955 -0.0600 0.0732
vn 0.9905 -0.0466 0.1291
vn 0.9524 0.1273 -0.2769
vn 0.9408 0.2057 -0.2696
vn 0.7745 0.5034 -0.3831
vn -0.2996 0.8557 -0.4220
vn 0.9871 -0.0926 0.1308
vn 0.9915 -0.1067 0.0742
vn 0.9044 -0.0069 -0.4266
vn 0.9052 0.0742 -0.4185
vn -0.1712 0.1612 -0.9720
vn -0.1724 0.0829 -0.9815
vn -0.4123 0.1023 -0.9053
vn 0.9879 -0.0944 -0.1229
vn 0.9822 -0.1434 -0.1211
vn 0.9727 -0.2034 -0.1118
vn 0.9475 -0.0808 -0.3094
vn -0.7295 0.1464 -0.6681
vn -0.7358 0.0864 -0.6717
vn 0.8988 0.1502 -0.4118
vn 0.8859 0.2270 -0.4046
vn 0.1146 0.8938 -0.4335
vn 0.1515 0.8986 -0.4118
vn 0.8087 0.1754 -0.5614
vn 0.1957 0.7718 -0.6049
vn 0.1303 0.8396 -0.5274
vn 0.1712 0.1612 -0.9720
vn -0.0000 0.1565 -0.9877
vn 0.8184 0.1069 -0.5646
vn 0.0404 0.8871 -0.4599
vn 0.0802 0.8877 -0.4533
vn 0.0651 0.8363 -0.5443
vn 0.7098 0.4634 -0.5305
vn -0.0000 0.8846 -0.4663
vn -0.0000 0.8358 -0.5491
vn 0.0861 0.7684 -0.6341
vn 0.7358 0.0864 -0.6717
vn 0.1082 0.6687 -0.7356
vn 0.3945 0.2961 -0.8699
vn 0.4083 0.1837 -0.8942
vn -0.6292 -0.1105 -0.7694
vn -0.7430 -0.0931 -0.6628
vn 0.8274 -0.1235 -0.5479
vn 0.7352 -0.1342 -0.6644
vn 0.7430 -0.0931 -0.6628
vn 0.1286 0.3107 0.9418
vn 0.1235 0.2423 0.9623
vn 0.7457 -0.0728 -0.6623
vn -0.1344 0.5275 -0.8389
vn -0.3299 0.5430 -0.7722
vn -0.2665 0.6759 -0.6871
vn 0.4123 0.1023 -0.9053
vn 0.6378 -0.0387 -0.7692
vn 0.6360 0.0217 -0.7714
vn 0.6334 0.0726 -0.7704
vn 0.4114 0.0121 -0.9114
vn 0.4118 0.0562 -0.9095
vn 0.4110 -0.0443 -0.9106
vn 0.6365 -0.0786 -0.7673
vn 0.4097 -0.0866 -0.9081
vn -0.4167 0.6675 -0.6171
vn 0.1724 0.0829 -0.9815
vn -0.0000 0.0783 -0.9969
vn -0.0000 -0.4551 -0.8904
vn -0.0000 -0.2676 -0.9635
vn -0.1722 -0.2683 -0.9478
vn 0.1710 0.0406 -0.9844
vn -0.0000 0.0364 -0.9993
vn 0.9530 -0.2872 -0.0967
vn -0.6786 -0.1686 0.7149
vn -0.6802 -0.1529 0.7169
vn -0.4351 -0.7923 0.4276
vn -0.4609 -0.7387 0.4918
vn -0.9439 -0.3178 0.0901
vn -0.9365 -0.3448 -0.0638
vn -0.9265 -0.3597 0.1110
vn -0.9310 -0.3352 0.1442
vn -0.9306 -0.3320 0.1543
vn -0.0000 -0.1795 -0.9837
vn -0.1710 0.0406 -0.9844
vn -0.4118 0.0562 -0.9095
vn -0.7793 -0.1087 0.6171
vn -0.7827 0.0017 0.6224
vn -0.7376 -0.0430 0.6739
vn -0.7339 -0.1293 0.6668
vn -0.6309 0.1244 -0.7658
vn 0.9757 -0.0722 0.2068
vn 0.8143 -0.5749 -0.0802
vn 0.8509 -0.5247 0.0255
vn 0.9692 -0.0965 0.2267
vn 0.9089 -0.3372 -0.2452
vn 0.8808 -0.3046 -0.3626
vn -0.4097 -0.0866 -0.9081
vn -0.6365 -0.0786 -0.7673
vn -0.0000 -0.0020 -1.0000
vn -0.1693 0.0013 -0.9856
vn -0.6334 0.0726 -0.7704
vn -0.4114 0.0121 -0.9114
vn -0.0000 -0.1149 -0.9934
vn -0.7412 0.0263 -0.6708
vn 0.1677 -0.0497 -0.9846
vn -0.0000 -0.0516 -0.9987
vn 0.1693 0.0013 -0.9856
vn -0.4110 -0.0443 -0.9106
vn -0.6378 -0.0387 -0.7692
vn -0.6360 0.0217 -0.7714
vn -0.1677 -0.0497 -0.9846
vn 0.4060 -0.1239 -0.9054
vn 0.1686 -0.1188 -0.9785
vn 0.1671 -0.0869 -0.9821
vn 0.8215 -0.2517 -0.5117
vn 0.6966 -0.2655 -0.6665
vn 0.6786 -0.1686 0.7149
vn 0.6802 -0.1529 0.7169
vn 0.7040 -0.0798 0.7056
vn 0.7024 -0.1122 0.7029
vn 0.8216 -0.2908 -0.4902
vn 0.6292 -0.1105 -0.7694
vn -0.0000 -0.0865 -0.9963
vn -0.3303 -0.4126 -0.8489
vn -0.5148 -0.3560 -0.7799
vn -0.8216 -0.2908 -0.4902
vn -0.8808 -0.3046 -0.3626
vn -0.8849 -0.2667 -0.3818
vn -0.7457 -0.0728 -0.6623
vn -0.7448 -0.0388 -0.6662
vn 0.1718 -0.1838 -0.9678
vn -0.7684 -0.6028 0.2152
vn -0.8176 -0.5719 0.0670
vn -0.8509 -0.5247 0.0255
vn -0.8251 -0.5174 0.2270
vn -0.9905 -0.0466 0.1291
vn 0.5148 -0.3560 -0.7799
vn -0.1671 -0.0869 -0.9821
vn -0.8264 -0.0714 -0.5585
vn -0.8267 -0.0343 -0.5617
vn -0.1566 -0.4456 -0.8814
vn -0.9915 -0.1067 0.0742
vn -0.3904 -0.2574 -0.8840
vn -0.7654 0.4308 0.4780
vn -0.8016 0.3606 0.4769
vn -0.8270 -0.0897 -0.5550
vn -0.9871 -0.0926 0.1308
vn -0.6962 -0.3061 -0.6494
vn -0.9690 -0.2336 0.0805
vn -0.9832 -0.1645 0.0791
vn -0.8274 -0.1235 -0.5479
vn -0.8366 0.2348 0.4949
vn -0.6987 -0.1662 0.6958
vn -0.7024 -0.1122 0.7029
vn 0.4550 -0.7466 0.4854
vn 0.4609 -0.7387 0.4918
vn 0.6754 -0.1981 0.7103
vn -0.9089 -0.3372 -0.2452
vn -0.8272 -0.1603 -0.5385
vn 0.9365 -0.3448 -0.0638
vn -0.9490 -0.2752 0.1542
vn -0.9697 -0.2000 0.1400
vn 0.9310 -0.3352 0.1442
vn -0.9800 -0.1469 0.1342
vn -0.0593 -0.9980 -0.0203
vn -0.0000 -1.0000 0.0030
vn -0.0577 -0.9980 -0.0249
vn -0.0536 -0.9980 -0.0323
vn -0.0410 -0.9980 -0.0477
vn -0.0202 -0.9975 -0.0675
vn -0.4374 -0.7689 0.4663
vn -0.0083 -0.9970 -0.0768
vn -0.0073 -0.9970 -0.0768
vn -0.0000 -0.9970 -0.0773
vn 0.0073 -0.9970 -0.0768
vn 0.0083 -0.9970 -0.0768
vn 0.0202 -0.9975 -0.0675
vn 0.0410 -0.9980 -0.0477
vn 0.0536 -0.9980 -0.0323
vn 0.0577 -0.9980 -0.0249
vn 0.0593 -0.9980 -0.0203
vn 0.4488 -0.7546 0.4787
vn 0.4374 -0.7689 0.4663
vn 0.4351 -0.7923 0.4276
vn 0.6711 -0.2284 0.7053
vn 0.6670 -0.2427 0.7044
vn 0.6987 -0.1662 0.6958
vn 0.6921 -0.2191 0.6877
vn 0.7530 -0.2609 0.6042
vn 0.7670 -0.2137 0.6050
vn 0.8256 -0.1982 0.5283
vn 0.8061 -0.2718 0.5257
vn 0.7926 -0.6067 -0.0607
vn 0.8176 -0.5719 0.0670
vn 0.6851 -0.2434 0.6865
vn 0.7247 -0.2108 0.6560
vn 0.7141 -0.2476 0.6548
vn -0.8256 -0.1982 0.5283
vn -0.7670 -0.2137 0.6050
vn 0.7376 -0.0430 0.6739
vn 0.7381 0.0035 0.6747
vn -0.8988 0.2351 0.3701
vn 0.7793 -0.1087 0.6171
vn 0.7339 -0.1293 0.6668
vn 0.7827 0.0017 0.6224
vn 0.8269 0.0688 0.5581
vn 0.8242 0.1227 0.5528
vn 0.8366 0.2348 0.4949
vn -0.6851 -0.2434 0.6865
vn -0.7141 -0.2476 0.6548
vn -0.7247 -0.2108 0.6560
vn -0.6921 -0.2191 0.6877
vn 0.8332 -0.0496 0.5507
vn 0.7818 0.0590 0.6208
vn 0.8916 0.0508 0.4499
vn -0.7381 0.0035 0.6747
vn -0.7041 -0.0798 0.7056
vn 0.7517 -0.4485 0.4836
vn -0.7443 0.4785 0.4659
vn 0.8016 0.3606 0.4769
vn -0.8916 0.0508 0.4499
vn -0.7517 -0.4485 0.4836
vn -0.9692 -0.0965 0.2267
vn -0.5333 -0.7271 0.4323
vn -0.1394 -0.8034 0.5789
vn 0.7804 0.4255 0.4582
vn 0.7654 0.4308 0.4780
vn 0.7684 -0.6028 0.2152
vn 0.8251 -0.5174 0.2270
vn 0.9769 -0.0895 0.1942
vn 0.7904 -0.5953 -0.1447
vn 0.7443 0.4785 0.4659
vn 0.6962 -0.3061 -0.6494
vn -0.0897 -0.8541 0.5123
vn -0.2903 -0.8717 0.3948
vn -0.7926 -0.6067 -0.0607
vn -0.9651 0.0645 0.2538
vn -0.6670 -0.2427 0.7044
vn -0.3085 -0.9017 0.3028
vn -0.4691 -0.8175 0.3340
vn 0.0957 -0.9514 0.2928
vn 0.0743 -0.9345 0.3480
vn -0.2262 -0.9299 0.2901
vn 0.0897 -0.8541 0.5123
vn 0.3085 -0.9017 0.3028
vn 0.2262 -0.9299 0.2901
vn -0.6017 -0.7321 0.3195
vn 0.1394 -0.8034 0.5789
vn -0.7530 -0.2609 0.6042
vn -0.8061 -0.2718 0.5257
vn -0.8242 0.1227 0.5528
vn -0.7818 0.0590 0.6208
vn 0.9651 0.0645 0.2538
vt 0.000000 0.000000
s 1
f 79/1/1 83/1/2 75/1/3 71/1/4
f 113/1/5 114/1/6 106/1/7 111/1/8
f 1/1/9 4/1/10 2/1/11 3/1/12
f 54/1/13 120/1/14 112/1/15 61/1/16
f 93/1/17 83/1/2 79/1/1 87/1/18
f 80/1/19 87/1/18 79/1/1 72/1/20
f 140/1/21 146/1/22 112/1/15 133/1/23
f 93/1/17 109/1/24 103/1/25 83/1/2
f 413/1/26 419/1/27 404/1/28 408/1/29
f 82/1/30 103/1/25 102/1/31 96/1/32
f 24/1/33 219/1/34 13/1/35 15/1/36
f 128/1/37 135/1/38 134/1/39 133/1/23
f 88/1/40 92/1/41 87/1/18 80/1/19
f 58/1/42 78/1/43 68/1/44 59/1/45
f 10/1/46 18/1/47 20/1/48
f 10/1/46 20/1/48 11/1/49
f 11/1/49 20/1/48 21/1/50
f 186/1/51 431/1/52 413/1/26 414/1/53
f 219/1/34 225/1/54 14/1/55 13/1/35
f 96/1/32 101/1/56 95/1/57 90/1/58
f 363/1/59 368/1/60 386/1/61 380/1/62
f 19/1/63 34/1/64 27/1/65 18/1/47
f 18/1/47 27/1/65 20/1/48
f 94/1/66 100/1/67 92/1/41 88/1/40
f 21/1/50 20/1/48 28/1/68
f 30/1/69 36/1/70 34/1/64 19/1/63
f 326/1/71 321/1/72 320/1/73 325/1/74
f 40/1/75 65/1/76 67/1/77 39/1/78
f 57/1/79 65/1/76 40/1/75 48/1/80
f 551/1/81 553/1/82 547/1/83 548/1/84
f 27/1/65 33/1/85 20/1/48
f 100/1/67 117/1/86 108/1/87 92/1/41
f 99/1/88 125/1/89 100/1/67 94/1/66
f 28/1/68 20/1/48 35/1/90
f 262/1/91 270/1/92 269/1/93 263/1/94
f 38/1/95 43/1/96 48/1/80 40/1/75
f 26/1/97 32/1/98 25/1/99 17/1/100
f 31/1/101 38/1/95 32/1/98 26/1/97
f 125/1/89 235/1/102 117/1/86 100/1/67
f 399/1/103 392/1/104 376/1/105 396/1/106
f 33/1/85 42/1/107 20/1/48
f 35/1/90 20/1/48 43/1/96
f 71/1/4 75/1/3 67/1/77 65/1/76
f 45/1/108 53/1/109 54/1/13 52/1/110
f 123/1/111 129/1/112 109/1/24 116/1/113
f 259/1/114 284/1/115 260/1/116 254/1/117
f 43/1/96 20/1/48 48/1/80
f 433/1/118 427/1/119 405/1/120 432/1/121
f 251/1/122 255/1/123 247/1/124 130/1/125
f 42/1/107 51/1/126 20/1/48
f 401/1/127 440/1/128 439/1/129 432/1/121
f 124/1/130 231/1/131 224/1/132 216/1/133
f 231/1/131 256/1/134 230/1/135 224/1/132
f 519/1/136 540/1/137 520/1/138 513/1/139
f 207/1/140 123/1/111 216/1/133 213/1/141
f 122/1/142 114/1/6 113/1/5 121/1/143
f 48/1/80 20/1/48 57/1/79
f 534/1/144 550/1/145 551/1/81 548/1/84
f 282/1/146 289/1/147 288/1/148 285/1/149
f 51/1/126 60/1/150 20/1/48
f 309/1/151 315/1/152 288/1/148 289/1/147
f 283/1/153 310/1/154 275/1/155 276/1/156
f 127/1/157 64/1/158 132/1/159 131/1/160
f 236/1/161 243/1/162 156/1/163 155/1/164
f 218/1/165 219/1/34 24/1/33 210/1/166
f 21/1/50 28/1/68 29/1/167 3/1/12
f 57/1/79 20/1/48 66/1/168
f 304/1/169 311/1/170 305/1/171 299/1/172
f 260/1/116 268/1/173 261/1/174 255/1/123
f 332/1/175 338/1/176 325/1/74 324/1/177
f 60/1/150 69/1/178 20/1/48
f 67/1/77 74/1/179 73/1/180 39/1/78
f 3/1/12 29/1/167 5/1/181 1/1/9
f 66/1/168 20/1/48 72/1/20
f 11/1/49 21/1/50 3/1/12 2/1/11
f 5/1/181 26/1/97 17/1/100 7/1/182
f 7/1/182 6/1/183 1/1/9 5/1/181
f 69/1/178 76/1/184 20/1/48
f 503/1/185 510/1/186 509/1/187 504/1/188
f 354/1/189 361/1/190 355/1/191 349/1/192
f 362/1/193 382/1/194 351/1/195 370/1/196
f 392/1/104 409/1/197 386/1/61 368/1/60
f 72/1/20 20/1/48 80/1/19
f 7/1/182 17/1/100 16/1/198 15/1/36
f 25/1/99 84/1/199 16/1/198 17/1/100
f 6/1/183 12/1/200 4/1/10 1/1/9
f 218/1/165 151/1/201 225/1/54 219/1/34
f 460/1/202 472/1/203 454/1/204 453/1/205
f 98/1/206 106/1/7 85/1/207 78/1/43
f 80/1/19 20/1/48 88/1/40
f 179/1/208 188/1/209 187/1/210 180/1/211
f 84/1/199 91/1/212 23/1/213 16/1/198
f 23/1/213 24/1/33 15/1/36 16/1/198
f 8/1/214 30/1/69 19/1/63 9/1/215
f 283/1/153 317/1/216 316/1/217 310/1/154
f 88/1/40 20/1/48 94/1/66
f 106/1/7 114/1/6 107/1/218 85/1/207
f 7/1/182 15/1/36 13/1/35 6/1/183
f 220/1/219 253/1/220 215/1/221 211/1/222
f 437/1/223 438/1/224 420/1/225 431/1/52
f 89/1/226 154/1/227 97/1/228 91/1/212
f 277/1/229 278/1/230 270/1/92 268/1/173
f 94/1/66 20/1/48 99/1/88
f 400/1/231 115/1/232 395/1/233 389/1/234
f 64/1/158 145/1/235 138/1/236 132/1/159
f 89/1/226 91/1/212 84/1/199 81/1/237
f 414/1/53 126/1/238 178/1/239 186/1/51
f 10/1/46 11/1/49 2/1/11 9/1/215
f 278/1/230 318/1/240 269/1/93 270/1/92
f 299/1/172 305/1/171 278/1/230 277/1/229
f 130/1/125 247/1/124 125/1/89 99/1/88
f 22/1/241 37/1/242 30/1/69 8/1/214
f 14/1/55 47/1/243 22/1/241 12/1/200
f 81/1/237 84/1/199 25/1/99 73/1/180
f 275/1/155 310/1/154 294/1/244 296/1/245
f 224/1/132 230/1/135 229/1/246 228/1/247
f 263/1/94 271/1/248 229/1/246 230/1/135
f 312/1/249 318/1/240 278/1/230 305/1/171
f 32/1/98 38/1/95 40/1/75 39/1/78
f 50/1/250 59/1/45 51/1/126 42/1/107
f 37/1/242 45/1/108 36/1/70 30/1/69
f 312/1/249 334/1/251 331/1/252 318/1/240
f 74/1/179 90/1/58 81/1/237 73/1/180
f 311/1/170 329/1/253 312/1/249 305/1/171
f 562/1/254 563/1/255 558/1/256 557/1/257
f 46/1/258 53/1/109 45/1/108 37/1/242
f 248/1/259 256/1/134 231/1/131 235/1/102
f 334/1/251 336/1/260 297/1/261 331/1/252
f 343/1/262 339/1/263 329/1/253 328/1/264
f 213/1/141 228/1/247 221/1/265 212/1/266
f 99/1/88 20/1/48 130/1/125
f 41/1/267 50/1/250 42/1/107 33/1/85
f 221/1/265 242/1/268 220/1/219 212/1/266
f 212/1/266 220/1/219 211/1/222 206/1/269
f 318/1/240 331/1/252 279/1/270 269/1/93
f 241/1/271 242/1/268 221/1/265 234/1/272
f 55/1/273 56/1/274 46/1/258 47/1/243
f 225/1/54 55/1/273 47/1/243 14/1/55
f 206/1/269 211/1/222 190/1/275 198/1/276
f 131/1/160 149/1/277 142/1/278 135/1/38
f 404/1/28 409/1/197 392/1/104 399/1/103
f 240/1/279 290/1/280 283/1/153 276/1/156
f 229/1/246 271/1/248 240/1/279 234/1/272
f 261/1/174 248/1/259 247/1/124 255/1/123
f 253/1/220 220/1/219 242/1/268 257/1/281
f 225/1/54 151/1/201 145/1/235 55/1/273
f 345/1/282 342/1/283 340/1/284 344/1/285
f 263/1/94 269/1/93 279/1/270 271/1/248
f 159/1/286 178/1/239 126/1/238 158/1/287
f 187/1/210 544/1/288 538/1/289 180/1/211
f 218/1/165 210/1/166 237/1/290 236/1/161
f 242/1/268 241/1/271 267/1/291 257/1/281
f 210/1/166 24/1/33 23/1/213 205/1/292
f 189/1/293 195/1/294 161/1/295 169/1/296
f 150/1/297 154/1/227 89/1/226 95/1/57
f 260/1/116 284/1/115 277/1/229 268/1/173
f 547/1/83 555/1/298 542/1/299 541/1/300
f 401/1/127 402/1/301 307/1/302 398/1/303
f 191/1/304 223/1/305 200/1/306 182/1/307
f 31/1/101 26/1/97 5/1/181 29/1/167
f 297/1/261 317/1/216 283/1/153 290/1/280
f 204/1/308 205/1/292 97/1/228 197/1/309
f 204/1/308 237/1/290 210/1/166 205/1/292
f 215/1/221 245/1/310 222/1/311 214/1/312
f 222/1/311 223/1/305 191/1/304 214/1/312
f 72/1/20 79/1/1 71/1/4 66/1/168
f 124/1/130 216/1/133 123/1/111 116/1/113
f 314/1/313 308/1/314 285/1/149 288/1/148
f 248/1/259 235/1/102 125/1/89 247/1/124
f 315/1/152 390/1/315 314/1/313 288/1/148
f 623/1/316 625/1/317 619/1/318 618/1/319
f 663/1/320 668/1/321 665/1/322 660/1/323
f 222/1/311 245/1/310 238/1/324 232/1/325
f 117/1/86 124/1/130 116/1/113 108/1/87
f 323/1/326 335/1/327 316/1/217 317/1/216
f 266/1/328 274/1/329 272/1/330 264/1/331
f 511/1/332 536/1/333 516/1/334 510/1/186
f 151/1/201 218/1/165 236/1/161 155/1/164
f 280/1/335 281/1/336 272/1/330 274/1/329
f 628/1/337 635/1/338 636/1/339 629/1/340
f 275/1/155 296/1/245 265/1/341 267/1/291
f 56/1/274 63/1/342 53/1/109 46/1/258
f 685/1/343 686/1/344 678/1/345 680/1/346
f 297/1/261 336/1/260 323/1/326 317/1/216
f 537/1/347 524/1/348 497/1/349 532/1/350
f 286/1/351 287/1/352 281/1/336 280/1/335
f 204/1/308 249/1/353 244/1/354 237/1/290
f 151/1/201 155/1/164 138/1/236 145/1/235
f 156/1/163 157/1/355 138/1/236 155/1/164
f 227/1/356 200/1/306 223/1/305 226/1/357
f 36/1/70 44/1/358 41/1/267 34/1/64
f 386/1/61 416/1/359 381/1/360 380/1/62
f 196/1/361 249/1/353 204/1/308 197/1/309
f 243/1/162 244/1/354 201/1/362 193/1/363
f 156/1/163 243/1/162 193/1/363 185/1/364
f 227/1/356 233/1/365 199/1/366 200/1/306
f 507/1/367 515/1/368 514/1/369 505/1/370
f 569/1/371 568/1/372 561/1/373 567/1/374
f 330/1/375 348/1/376 303/1/377 322/1/378
f 474/1/379 477/1/380 470/1/381 469/1/382
f 265/1/341 296/1/245 273/1/383 266/1/328
f 55/1/273 145/1/235 64/1/158 56/1/274
f 233/1/365 239/1/384 203/1/385 199/1/366
f 63/1/342 127/1/157 128/1/37 120/1/14
f 136/1/386 198/1/276 143/1/387 137/1/388
f 286/1/351 308/1/314 307/1/302 302/1/389
f 64/1/158 127/1/157 63/1/342 56/1/274
f 138/1/236 157/1/355 139/1/390 132/1/159
f 131/1/160 135/1/38 128/1/37 127/1/157
f 217/1/391 250/1/392 203/1/385 239/1/384
f 144/1/393 150/1/297 95/1/57 101/1/56
f 102/1/31 137/1/388 101/1/56 96/1/32
f 139/1/390 149/1/277 131/1/160 132/1/159
f 351/1/195 391/1/394 345/1/282 344/1/285
f 109/1/24 129/1/112 102/1/31 103/1/25
f 201/1/362 202/1/395 192/1/396 193/1/363
f 215/1/221 253/1/220 252/1/397 245/1/310
f 63/1/342 120/1/14 54/1/13 53/1/109
f 491/1/398 524/1/348 511/1/332 512/1/399
f 144/1/393 101/1/56 137/1/388 143/1/387
f 162/1/400 185/1/364 184/1/401 177/1/402
f 454/1/204 472/1/203 471/1/403 466/1/404
f 266/1/328 264/1/331 258/1/405 265/1/341
f 452/1/406 468/1/407 460/1/202 453/1/205
f 61/1/16 62/1/408 52/1/110 54/1/13
f 90/1/58 74/1/179 82/1/30 96/1/32
f 133/1/23 112/1/15 120/1/14 128/1/37
f 45/1/108 52/1/110 44/1/358 36/1/70
f 545/1/409 559/1/410 554/1/411 553/1/82
f 144/1/393 176/1/412 169/1/296 150/1/297
f 162/1/400 177/1/402 170/1/413 163/1/414
f 397/1/415 398/1/303 314/1/313 390/1/315
f 279/1/270 331/1/252 297/1/261 290/1/280
f 273/1/383 296/1/245 294/1/244 295/1/416
f 134/1/39 152/1/417 140/1/21 133/1/23
f 182/1/307 189/1/293 169/1/296 176/1/412
f 262/1/91 263/1/94 230/1/135 256/1/134
f 183/1/418 191/1/304 182/1/307 176/1/412
f 189/1/293 199/1/366 203/1/385 195/1/294
f 494/1/419 496/1/420 486/1/421 487/1/422
f 171/1/423 153/1/424 163/1/414 170/1/413
f 49/1/425 50/1/250 41/1/267 44/1/358
f 52/1/110 62/1/408 49/1/425 44/1/358
f 203/1/385 250/1/392 196/1/361 195/1/294
f 130/1/125 20/1/48 251/1/122
f 653/1/426 658/1/426 654/1/427 647/1/428
f 139/1/390 163/1/414 153/1/424 149/1/277
f 251/1/122 20/1/48 254/1/117
f 59/1/45 68/1/44 60/1/150 51/1/126
f 153/1/424 160/1/429 142/1/278 149/1/277
f 105/1/430 111/1/8 106/1/7 98/1/206
f 171/1/423 173/1/431 160/1/429 153/1/424
f 254/1/117 20/1/48 259/1/114
f 68/1/44 77/1/432 69/1/178 60/1/150
f 58/1/42 59/1/45 50/1/250 49/1/425
f 62/1/408 70/1/433 58/1/42 49/1/425
f 319/1/434 320/1/73 313/1/435 298/1/436
f 61/1/16 104/1/437 70/1/433 62/1/408
f 136/1/386 207/1/140 206/1/269 198/1/276
f 142/1/278 160/1/429 148/1/438 141/1/439
f 160/1/429 173/1/431 168/1/440 148/1/438
f 135/1/38 142/1/278 141/1/439 134/1/39
f 70/1/433 98/1/206 78/1/43 58/1/42
f 105/1/430 98/1/206 70/1/433 104/1/437
f 180/1/211 175/1/441 174/1/442 179/1/208
f 148/1/438 168/1/440 167/1/443 164/1/444
f 175/1/441 181/1/445 167/1/443 168/1/440
f 147/1/446 152/1/417 134/1/39 141/1/439
f 148/1/438 164/1/444 147/1/446 141/1/439
f 66/1/168 71/1/4 65/1/76 57/1/79
f 77/1/432 68/1/44 78/1/43 85/1/207
f 279/1/270 290/1/280 240/1/279 271/1/248
f 146/1/22 110/1/447 105/1/430 104/1/437
f 140/1/21 158/1/287 110/1/447 146/1/22
f 600/1/448 578/1/449 580/1/450 598/1/451
f 180/1/211 538/1/289 181/1/445 175/1/441
f 147/1/446 166/1/452 159/1/286 152/1/417
f 159/1/286 158/1/287 140/1/21 152/1/417
f 454/1/204 466/1/404 461/1/453 455/1/454
f 479/1/455 487/1/422 486/1/421 481/1/456
f 181/1/445 538/1/289 533/1/457 527/1/458
f 641/1/459 648/1/460 642/1/461 635/1/338
f 77/1/432 86/1/462 76/1/184 69/1/178
f 259/1/114 20/1/48 291/1/463
f 85/1/207 107/1/218 86/1/462 77/1/432
f 570/1/464 187/1/210 188/1/209 194/1/465
f 167/1/443 526/1/466 165/1/467 164/1/444
f 165/1/467 166/1/452 147/1/446 164/1/444
f 182/1/307 200/1/306 199/1/366 189/1/293
f 110/1/447 158/1/287 126/1/238 118/1/468
f 291/1/463 292/1/469 284/1/115 259/1/114
f 291/1/463 20/1/48 298/1/436
f 303/1/377 309/1/151 289/1/147 295/1/416
f 194/1/465 571/1/470 566/1/471 570/1/464
f 370/1/196 351/1/195 344/1/285 343/1/262
f 527/1/458 518/1/472 521/1/473 526/1/466
f 400/1/231 86/1/462 107/1/218 115/1/232
f 114/1/6 122/1/142 115/1/232 107/1/218
f 387/1/474 403/1/475 365/1/476 391/1/394
f 187/1/210 570/1/464 552/1/477 544/1/288
f 552/1/477 570/1/464 566/1/471 565/1/478
f 533/1/457 519/1/136 518/1/472 527/1/458
f 8/1/214 9/1/215 2/1/11 4/1/10
f 554/1/411 565/1/478 560/1/479 555/1/298
f 538/1/289 544/1/288 539/1/480 533/1/457
f 341/1/481 346/1/482 330/1/375 335/1/327
f 539/1/480 540/1/137 519/1/136 533/1/457
f 522/1/483 172/1/484 166/1/452 165/1/467
f 172/1/484 178/1/239 159/1/286 166/1/452
f 110/1/447 118/1/468 111/1/8 105/1/430
f 298/1/436 20/1/48 319/1/434
f 400/1/231 389/1/234 393/1/485 394/1/486
f 292/1/469 313/1/435 304/1/169 299/1/172
f 536/1/333 511/1/332 524/1/348 537/1/347
f 83/1/2 103/1/25 82/1/30 75/1/3
f 172/1/484 436/1/487 186/1/51 178/1/239
f 526/1/466 167/1/443 181/1/445 527/1/458
f 319/1/434 20/1/48 324/1/177
f 389/1/234 395/1/233 377/1/488 384/1/489
f 396/1/106 376/1/105 377/1/488 395/1/233
f 122/1/142 121/1/143 399/1/103 396/1/106
f 381/1/360 416/1/359 418/1/490 412/1/491
f 444/1/492 522/1/483 521/1/473 515/1/368
f 324/1/177 20/1/48 332/1/175
f 383/1/493 388/1/494 384/1/489 364/1/495
f 240/1/279 276/1/156 241/1/271 234/1/272
f 119/1/496 408/1/29 121/1/143 113/1/5
f 12/1/200 22/1/241 8/1/214 4/1/10
f 228/1/247 229/1/246 234/1/272 221/1/265
f 332/1/175 20/1/48 337/1/497
f 337/1/497 383/1/493 364/1/495 357/1/498
f 364/1/495 384/1/489 377/1/488 371/1/499
f 14/1/55 12/1/200 6/1/183 13/1/35
f 90/1/58 95/1/57 89/1/226 81/1/237
f 508/1/500 437/1/223 436/1/487 444/1/492
f 143/1/387 198/1/276 190/1/275 183/1/418
f 121/1/143 408/1/29 404/1/28 399/1/103
f 126/1/238 414/1/53 119/1/496 118/1/468
f 413/1/26 431/1/52 420/1/225 419/1/27
f 172/1/484 522/1/483 444/1/492 436/1/487
f 444/1/492 515/1/368 507/1/367 508/1/500
f 371/1/499 377/1/488 376/1/105 369/1/501
f 112/1/15 146/1/22 104/1/437 61/1/16
f 404/1/28 419/1/27 415/1/502 409/1/197
f 420/1/225 421/1/503 415/1/502 419/1/27
f 463/1/504 468/1/407 452/1/406 456/1/505
f 520/1/138 546/1/506 531/1/507 525/1/508
f 208/1/509 250/1/392 217/1/391 209/1/510
f 546/1/506 551/1/81 550/1/145 531/1/507
f 338/1/176 349/1/192 326/1/71 325/1/74
f 354/1/189 371/1/499 369/1/501 361/1/190
f 376/1/105 392/1/104 368/1/60 369/1/501
f 552/1/477 559/1/410 539/1/480 544/1/288
f 505/1/370 514/1/369 513/1/139 506/1/511
f 356/1/512 350/1/513 333/1/514 355/1/191
f 190/1/275 211/1/222 215/1/221 214/1/312
f 235/1/102 231/1/131 124/1/130 117/1/86
f 92/1/41 108/1/87 93/1/17 87/1/18
f 338/1/176 357/1/498 354/1/189 349/1/192
f 520/1/138 525/1/508 506/1/511 513/1/139
f 420/1/225 438/1/224 425/1/515 421/1/503
f 501/1/516 502/1/517 507/1/367 505/1/370
f 361/1/190 363/1/59 356/1/512 355/1/191
f 292/1/469 299/1/172 277/1/229 284/1/115
f 415/1/502 416/1/359 386/1/61 409/1/197
f 445/1/518 502/1/517 450/1/519 446/1/520
f 450/1/519 502/1/517 501/1/516 493/1/521
f 493/1/521 501/1/516 498/1/522 492/1/523
f 505/1/370 506/1/511 498/1/522 501/1/516
f 39/1/78 73/1/180 25/1/99 32/1/98
f 361/1/190 369/1/501 368/1/60 363/1/59
f 328/1/264 329/1/253 311/1/170 327/1/524
f 566/1/471 567/1/374 560/1/479 565/1/478
f 418/1/490 426/1/525 407/1/526 412/1/491
f 503/1/185 504/1/188 495/1/527 496/1/420
f 337/1/497 20/1/48 383/1/493
f 337/1/497 357/1/498 338/1/176 332/1/175
f 143/1/387 183/1/418 176/1/412 144/1/393
f 196/1/361 197/1/309 161/1/295 195/1/294
f 363/1/59 380/1/62 362/1/193 356/1/512
f 381/1/360 382/1/194 362/1/193 380/1/62
f 224/1/132 228/1/247 213/1/141 216/1/133
f 437/1/223 431/1/52 186/1/51 436/1/487
f 383/1/493 20/1/48 388/1/494
f 324/1/177 325/1/74 320/1/73 319/1/434
f 156/1/163 185/1/364 162/1/400 157/1/355
f 425/1/515 426/1/525 418/1/490 421/1/503
f 362/1/193 370/1/196 350/1/513 356/1/512
f 20/1/48 393/1/485 388/1/494
f 20/1/48 394/1/486 393/1/485
f 20/1/48 76/1/184 394/1/486
f 298/1/436 313/1/435 292/1/469 291/1/463
f 321/1/72 327/1/524 311/1/170 304/1/169
f 320/1/73 321/1/72 304/1/169 313/1/435
f 108/1/87 116/1/113 109/1/24 93/1/17
f 539/1/480 559/1/410 545/1/409 540/1/137
f 566/1/471 571/1/470 569/1/371 567/1/374
f 333/1/514 350/1/513 328/1/264 327/1/524
f 267/1/291 265/1/341 258/1/405 257/1/281
f 326/1/71 333/1/514 327/1/524 321/1/72
f 249/1/353 208/1/509 201/1/362 244/1/354
f 552/1/477 565/1/478 554/1/411 559/1/410
f 75/1/3 82/1/30 74/1/179 67/1/77
f 350/1/513 370/1/196 343/1/262 328/1/264
f 437/1/223 508/1/500 445/1/518 438/1/224
f 261/1/174 262/1/91 256/1/134 248/1/259
f 489/1/528 494/1/419 487/1/422 476/1/529
f 430/1/530 435/1/531 407/1/526 426/1/525
f 560/1/479 567/1/374 561/1/373 556/1/532
f 190/1/275 214/1/312 191/1/304 183/1/418
f 334/1/251 339/1/263 340/1/284 336/1/260
f 343/1/262 344/1/285 340/1/284 339/1/263
f 340/1/284 342/1/283 323/1/326 336/1/260
f 316/1/217 322/1/378 294/1/244 310/1/154
f 119/1/496 113/1/5 111/1/8 118/1/468
f 206/1/269 207/1/140 213/1/141 212/1/266
f 387/1/474 412/1/491 407/1/526 403/1/475
f 387/1/474 391/1/394 351/1/195 382/1/194
f 381/1/360 412/1/491 387/1/474 382/1/194
f 165/1/467 526/1/466 521/1/473 522/1/483
f 150/1/297 169/1/296 161/1/295 154/1/227
f 268/1/173 270/1/92 262/1/91 261/1/174
f 161/1/295 197/1/309 97/1/228 154/1/227
f 514/1/369 515/1/368 521/1/473 518/1/472
f 604/1/533 610/1/534 574/1/535 576/1/536
f 422/1/537 428/1/538 423/1/539
f 423/1/539 429/1/540 424/1/541
f 483/1/542 489/1/528 476/1/529 477/1/380
f 365/1/476 403/1/475 378/1/543 372/1/544
f 555/1/298 560/1/479 556/1/532 542/1/299
f 612/1/545 613/1/546 607/1/547 606/1/548
f 323/1/326 342/1/283 341/1/481 335/1/327
f 345/1/282 358/1/549 341/1/481 342/1/283
f 554/1/411 555/1/298 547/1/83 553/1/82
f 676/1/550 677/1/551 670/1/552 671/1/553
f 542/1/299 543/1/554 535/1/555 541/1/300
f 458/1/556 469/1/382 463/1/504 375/1/557
f 442/1/558 443/1/559 378/1/543 435/1/531
f 316/1/217 335/1/327 330/1/375 322/1/378
f 545/1/409 546/1/506 520/1/138 540/1/137
f 365/1/476 372/1/544 352/1/560 358/1/549
f 341/1/481 358/1/549 352/1/560 346/1/482
f 364/1/495 371/1/499 354/1/189 357/1/498
f 97/1/228 205/1/292 23/1/213 91/1/212
f 378/1/543 443/1/559 373/1/561 372/1/544
f 474/1/379 482/1/562 483/1/542 477/1/380
f 347/1/563 348/1/376 330/1/375 346/1/482
f 457/1/564 464/1/565 442/1/558 449/1/566
f 373/1/561 374/1/567 367/1/568 366/1/569
f 545/1/409 553/1/82 551/1/81 546/1/506
f 241/1/271 276/1/156 275/1/155 267/1/291
f 443/1/559 451/1/570 374/1/567 373/1/561
f 492/1/523 500/1/571 485/1/572 484/1/573
f 493/1/521 492/1/523 484/1/573 457/1/564
f 531/1/507 550/1/145 537/1/347 532/1/350
f 537/1/347 550/1/145 534/1/144 536/1/333
f 534/1/144 548/1/84 529/1/574 528/1/575
f 712/1/576 713/1/577 710/1/578 709/1/579
f 529/1/574 541/1/300 535/1/555 530/1/580
f 374/1/567 458/1/556 375/1/557 367/1/568
f 499/1/581 500/1/571 492/1/523 498/1/522
f 531/1/507 532/1/350 499/1/581 525/1/508
f 464/1/565 457/1/564 484/1/573 478/1/582
f 471/1/403 481/1/456 480/1/583 473/1/584
f 499/1/581 532/1/350 497/1/349 500/1/571
f 119/1/496 414/1/53 413/1/26 408/1/29
f 516/1/334 536/1/333 534/1/144 528/1/575
f 461/1/453 465/1/585 441/1/586 462/1/587
f 375/1/557 379/1/588 360/1/589 367/1/568
f 485/1/572 500/1/571 497/1/349 490/1/590
f 497/1/349 524/1/348 491/1/398 490/1/590
f 478/1/582 484/1/573 485/1/572 482/1/562
f 639/1/591 644/1/592 638/1/593 633/1/594
f 86/1/462 400/1/231 394/1/486 76/1/184
f 286/1/351 302/1/389 293/1/595 287/1/352
f 516/1/334 517/1/596 509/1/187 510/1/186
f 485/1/572 490/1/590 483/1/542 482/1/562
f 483/1/542 490/1/590 491/1/398 489/1/528
f 374/1/567 451/1/570 459/1/597 458/1/556
f 367/1/568 360/1/589 347/1/563 366/1/569
f 407/1/526 435/1/531 378/1/543 403/1/475
f 388/1/494 393/1/485 389/1/234 384/1/489
f 503/1/185 512/1/399 511/1/332 510/1/186
f 450/1/519 493/1/521 457/1/564 449/1/566
f 474/1/379 469/1/382 458/1/556 459/1/597
f 442/1/558 464/1/565 451/1/570 443/1/559
f 494/1/419 512/1/399 503/1/185 496/1/420
f 512/1/399 494/1/419 489/1/528 491/1/398
f 425/1/515 446/1/520 430/1/530 426/1/525
f 208/1/509 209/1/510 202/1/395 201/1/362
f 450/1/519 449/1/566 430/1/530 446/1/520
f 345/1/282 391/1/394 365/1/476 358/1/549
f 445/1/518 508/1/500 507/1/367 502/1/517
f 360/1/589 379/1/588 359/1/598 353/1/599
f 373/1/561 366/1/569 352/1/560 372/1/544
f 463/1/504 469/1/382 470/1/381 468/1/407
f 415/1/502 421/1/503 418/1/490 416/1/359
f 486/1/421 496/1/420 495/1/527 488/1/600
f 307/1/302 402/1/301 300/1/601 302/1/389
f 379/1/588 375/1/557 463/1/504 456/1/505
f 506/1/511 525/1/508 499/1/581 498/1/522
f 352/1/560 366/1/569 347/1/563 346/1/482
f 196/1/361 250/1/392 208/1/509 249/1/353
f 486/1/421 488/1/600 480/1/583 481/1/456
f 22/1/241 47/1/243 46/1/258 37/1/242
f 476/1/529 487/1/422 479/1/455 475/1/602
f 478/1/582 482/1/562 474/1/379 459/1/597
f 347/1/563 360/1/589 353/1/599 348/1/376
f 479/1/455 481/1/456 471/1/403 472/1/203
f 636/1/339 637/1/603 630/1/604 629/1/340
f 353/1/599 359/1/598 315/1/152 309/1/151
f 385/1/605 390/1/315 315/1/152 359/1/598
f 379/1/588 456/1/505 385/1/605 359/1/598
f 348/1/376 353/1/599 309/1/151 303/1/377
f 293/1/595 302/1/389 300/1/601 301/1/606
f 294/1/244 322/1/378 303/1/377 295/1/416
f 471/1/403 473/1/584 467/1/607 466/1/404
f 273/1/383 295/1/416 289/1/147 282/1/146
f 28/1/68 35/1/90 31/1/101 29/1/167
f 461/1/453 466/1/404 467/1/607 465/1/585
f 405/1/120 427/1/119 410/1/608 406/1/609
f 385/1/605 456/1/505 452/1/406 448/1/610
f 257/1/281 258/1/405 252/1/397 253/1/220
f 349/1/192 355/1/191 333/1/514 326/1/71
f 629/1/340 630/1/604 624/1/611 625/1/317
f 162/1/400 163/1/414 139/1/390 157/1/355
f 601/1/612 605/1/613 604/1/533 600/1/448
f 470/1/381 475/1/602 460/1/202 468/1/407
f 237/1/290 244/1/354 243/1/162 236/1/161
f 460/1/202 475/1/602 479/1/455 472/1/203
f 396/1/106 395/1/233 115/1/232 122/1/142
f 285/1/149 308/1/314 286/1/351 280/1/335
f 329/1/253 339/1/263 334/1/251 312/1/249
f 123/1/111 207/1/140 136/1/386 129/1/112
f 594/1/614 593/1/615 712/1/576 711/1/616
f 445/1/518 446/1/520 425/1/515 438/1/224
f 385/1/605 448/1/610 397/1/415 390/1/315
f 439/1/129 462/1/587 433/1/118 432/1/121
f 461/1/453 462/1/587 439/1/129 455/1/454
f 433/1/118 434/1/617 428/1/538 427/1/119
f 452/1/406 453/1/205 447/1/618 448/1/610
f 454/1/204 455/1/454 447/1/618 453/1/205
f 397/1/415 448/1/610 447/1/618 440/1/128
f 447/1/618 455/1/454 439/1/129 440/1/128
f 314/1/313 398/1/303 307/1/302 308/1/314
f 136/1/386 137/1/388 102/1/31 129/1/112
f 34/1/64 41/1/267 33/1/85 27/1/65
f 397/1/415 440/1/128 401/1/127 398/1/303
f 427/1/119 428/1/538 422/1/537 410/1/608
f 549/1/619 557/1/257 558/1/256
f 561/1/373 568/1/372 562/1/254 557/1/257
f 254/1/117 260/1/116 255/1/123 251/1/122
f 401/1/127 432/1/121 405/1/120 402/1/301
f 518/1/472 519/1/136 513/1/139 514/1/369
f 423/1/539 424/1/541 417/1/620 422/1/537
f 410/1/608 422/1/537 417/1/620 411/1/621
f 558/1/256 563/1/255 564/1/622
f 405/1/120 406/1/609 300/1/601 402/1/301
f 430/1/530 449/1/566 442/1/558 435/1/531
f 300/1/601 406/1/609 306/1/623 301/1/606
f 410/1/608 411/1/621 306/1/623 406/1/609
f 470/1/381 477/1/380 476/1/529 475/1/602
f 572/1/624 573/1/625 574/1/535
f 572/1/624 575/1/626 573/1/625
f 574/1/535 573/1/625 576/1/536
f 575/1/626 577/1/627 573/1/625
f 576/1/536 573/1/625 578/1/449
f 577/1/627 579/1/628 573/1/625
f 578/1/449 573/1/625 580/1/450
f 579/1/628 581/1/629 573/1/625
f 580/1/450 573/1/625 582/1/630
f 581/1/629 583/1/631 573/1/625
f 583/1/631 584/1/632 573/1/625
f 584/1/632 585/1/633 573/1/625
f 585/1/633 586/1/634 573/1/625
f 586/1/634 587/1/635 573/1/625
f 587/1/635 588/1/636 573/1/625
f 588/1/636 589/1/637 573/1/625
f 589/1/637 590/1/638 573/1/625
f 590/1/638 591/1/639 573/1/625
f 591/1/639 592/1/640 573/1/625
f 573/1/625 593/1/615 594/1/614
f 573/1/625 594/1/614 595/1/641
f 573/1/625 595/1/641 596/1/642
f 573/1/625 597/1/643 593/1/615
f 573/1/625 592/1/640 597/1/643
f 705/1/644 706/1/645 596/1/642 595/1/641
f 595/1/641 594/1/614 711/1/616 705/1/644
f 705/1/644 711/1/616 700/1/646 699/1/647
f 681/1/648 689/1/649 674/1/650 675/1/651
f 709/1/579 700/1/646 711/1/616 712/1/576
f 677/1/551 679/1/652 672/1/653 670/1/552
f 597/1/643 713/1/577 712/1/576 593/1/615
f 542/1/299 556/1/532 549/1/619 543/1/554
f 697/1/654 699/1/647 690/1/655 691/1/656
f 620/1/657 618/1/319 612/1/545 616/1/658
f 185/1/364 193/1/363 192/1/396 184/1/401
f 704/1/659 709/1/579 710/1/578 708/1/660
f 258/1/405 264/1/331 246/1/661 252/1/397
f 696/1/662 698/1/663 704/1/659 703/1/664
f 687/1/665 702/1/666 694/1/667 685/1/343
f 603/1/668 609/1/669 608/1/670 602/1/671
f 696/1/662 703/1/664 687/1/665 688/1/672
f 687/1/665 703/1/664 707/1/673 702/1/666
f 674/1/650 689/1/649 696/1/662 688/1/672
f 681/1/648 691/1/656 690/1/655 689/1/649
f 674/1/650 688/1/672 680/1/346 673/1/674
f 680/1/346 688/1/672 687/1/665 685/1/343
f 607/1/547 615/1/675 611/1/676 605/1/613
f 669/1/677 675/1/651 674/1/650 673/1/674
f 673/1/674 680/1/346 678/1/345 671/1/553
f 643/1/678 637/1/603 636/1/339 642/1/461
f 694/1/667 695/1/679 686/1/344 685/1/343
f 626/1/680 627/1/681 631/1/682
f 627/1/681 632/1/683 633/1/594
f 700/1/646 709/1/579 704/1/659 698/1/663
f 627/1/681 634/1/684 632/1/683
f 628/1/337 631/1/682 635/1/338
f 678/1/345 686/1/344 683/1/685 676/1/550
f 695/1/679 701/1/686 683/1/685 686/1/344
f 529/1/574 548/1/84 547/1/83 541/1/300
f 670/1/552 672/1/653 667/1/687 666/1/688
f 598/1/451 602/1/671 601/1/612 600/1/448
f 635/1/338 642/1/461 636/1/339
f 682/1/689 684/1/690 677/1/551 676/1/550
f 683/1/685 701/1/686 693/1/691 682/1/689
f 516/1/334 528/1/575 523/1/692 517/1/596
f 640/1/693 647/1/428 646/1/694
f 641/1/459 649/1/695 648/1/460
f 642/1/461 648/1/460 650/1/696
f 642/1/461 650/1/696 643/1/678
f 582/1/630 599/1/697 598/1/451 580/1/450
f 646/1/694 647/1/428 652/1/698
f 646/1/694 652/1/698 651/1/699
f 657/1/700 658/1/426 653/1/426 656/1/701
f 647/1/428 654/1/427 655/1/702
f 647/1/428 655/1/702 652/1/698
f 35/1/90 43/1/96 38/1/95 31/1/101
f 656/1/701 659/1/703 660/1/323
f 656/1/701 660/1/323 661/1/704
f 656/1/701 662/1/705 657/1/700
f 656/1/701 661/1/704 662/1/705
f 640/1/693 646/1/694 632/1/683 634/1/684
f 660/1/323 665/1/322 661/1/704
f 645/1/706 632/1/683 646/1/694 651/1/699
f 632/1/683 645/1/706 639/1/591 633/1/594
f 663/1/320 664/1/707 669/1/677
f 663/1/320 669/1/677 666/1/688
f 529/1/574 530/1/580 523/1/692 528/1/575
f 633/1/594 638/1/593 631/1/682 627/1/681
f 669/1/677 673/1/674 671/1/553
f 620/1/657 626/1/680 623/1/316 618/1/319
f 638/1/593 641/1/459 635/1/338 631/1/682
f 644/1/592 649/1/695 641/1/459 638/1/593
f 671/1/553 678/1/345 676/1/550
f 704/1/659 708/1/660 707/1/673 703/1/664
f 697/1/654 706/1/645 705/1/644 699/1/647
f 617/1/708 622/1/709 620/1/657 616/1/658
f 556/1/532 561/1/373 557/1/257 549/1/619
f 676/1/550 683/1/685 682/1/689
f 619/1/318 621/1/710 614/1/711 613/1/546
f 677/1/551 684/1/690 679/1/652
f 628/1/337 629/1/340 625/1/317 623/1/316
f 666/1/688 669/1/677 671/1/553 670/1/552
f 617/1/708 616/1/658 608/1/670 609/1/669
f 684/1/690 682/1/689 692/1/712
f 682/1/689 693/1/691 692/1/712
f 273/1/383 282/1/146 274/1/329 266/1/328
f 626/1/680 631/1/682 628/1/337 623/1/316
f 619/1/318 625/1/317 624/1/611 621/1/710
f 462/1/587 441/1/586 434/1/617 433/1/118
f 174/1/442 175/1/441 168/1/440 173/1/431
f 690/1/655 698/1/663 696/1/662 689/1/649
f 608/1/670 616/1/658 612/1/545 606/1/548
f 659/1/703 664/1/707 663/1/320 660/1/323
f 601/1/612 602/1/671 608/1/670 606/1/548
f 619/1/318 613/1/546 612/1/545 618/1/319
f 607/1/547 605/1/613 601/1/612 606/1/548
f 603/1/668 602/1/671 598/1/451 599/1/697
f 700/1/646 698/1/663 690/1/655 699/1/647
f 627/1/681 626/1/680 620/1/657 622/1/709
f 614/1/711 615/1/675 607/1/547 613/1/546
f 222/1/311 232/1/325 226/1/357 223/1/305
f 282/1/146 285/1/149 280/1/335 274/1/329
f 667/1/687 668/1/321 663/1/320 666/1/688
f 9/1/215 19/1/63 18/1/47 10/1/46
f 245/1/310 252/1/397 246/1/661 238/1/324
f 604/1/533 576/1/536 578/1/449 600/1/448
f 604/1/533 605/1/613 611/1/676 610/1/534
f 464/1/565 478/1/582 459/1/597 451/1/570
