# Blender 4.3.2
# www.blender.org
o hair.019
v 7.014587 1.156475 -0.014201
v 7.005411 1.156919 -0.013818
v 7.005411 1.147835 -0.021130
v 7.005411 1.164657 -0.007300
v 7.012901 1.164657 -0.007300
v 7.016646 1.156276 -0.014302
v 7.017079 1.166629 -0.005524
v 6.997920 1.164657 -0.007300
v 7.021878 1.158948 -0.010602
v 7.020386 1.169112 -0.003336
v 6.993742 1.166629 -0.005524
v 6.994175 1.156276 -0.014302
v 6.996217 1.156473 -0.014202
v 7.024212 1.155208 -0.011590
v 7.028367 1.160164 -0.007095
v 7.022398 1.171793 -0.000842
v 6.988943 1.158948 -0.010602
v 6.990436 1.169112 -0.003336
v 7.019243 1.149941 -0.016335
v 7.030892 1.164496 -0.003103
v 7.023770 1.175658 0.002777
v 6.982455 1.160164 -0.007095
v 6.988423 1.171793 -0.000842
v 6.986609 1.155208 -0.011590
v 6.999712 1.152903 -0.020511
v 7.000241 1.153376 -0.023351
v 7.011109 1.152903 -0.020511
v 7.010581 1.153376 -0.023351
v 7.017070 1.154681 -0.020746
v 7.032950 1.170295 0.002325
v 7.024694 1.180397 0.007273
v 6.979929 1.164496 -0.003103
v 6.987051 1.175658 0.002777
v 6.991578 1.149941 -0.016335
v 6.995924 1.159422 -0.025157
v 7.015772 1.157972 -0.019892
v 7.014898 1.159422 -0.025157
v 7.034335 1.177403 0.009069
v 7.024184 1.177109 0.009338
v 6.977871 1.170295 0.002325
v 6.976486 1.177403 0.009069
v 6.986127 1.180397 0.007273
v 6.995049 1.157972 -0.019892
v 6.993751 1.154681 -0.020746
v 7.033570 1.172471 0.012168
v 7.032805 1.167539 0.015266
v 7.023674 1.173821 0.011404
v 6.986638 1.177109 0.009338
v 6.977251 1.172471 0.012168
v 7.023470 1.176859 0.012458
v 7.032500 1.172095 0.016846
v 6.987147 1.173821 0.011404
v 6.978016 1.167539 0.015266
v 7.032061 1.176697 0.018295
v 7.023266 1.179896 0.013511
v 6.978322 1.172095 0.016846
v 6.987351 1.176859 0.012458
v 7.022709 1.183056 0.014213
v 7.031358 1.181391 0.019480
v 6.978760 1.176697 0.018295
v 6.987556 1.179896 0.013511
v 7.030446 1.186017 0.020401
v 7.022152 1.186216 0.014916
v 6.988112 1.183056 0.014213
v 6.979463 1.181391 0.019480
v 7.021389 1.192229 0.017033
v 7.029379 1.190415 0.021060
v 6.988669 1.186216 0.014916
v 6.980375 1.186017 0.020401
v 7.028234 1.194699 0.021587
v 7.020627 1.198242 0.019149
v 6.989432 1.192229 0.017033
v 6.981442 1.190415 0.021060
v 7.019342 1.194057 0.019997
v 7.026308 1.188421 0.022857
v 6.982587 1.194699 0.021587
v 6.990195 1.198242 0.019149
v 7.024382 1.182144 0.024128
v 7.018058 1.189872 0.020844
v 6.991479 1.194057 0.019997
v 6.984513 1.188421 0.022857
v 7.015889 1.192757 0.021304
v 7.023206 1.184049 0.026690
v 6.992763 1.189872 0.020844
v 6.986440 1.182144 0.024128
v 7.021959 1.186092 0.029153
v 7.013720 1.195642 0.021764
v 6.988175 1.185338 0.027641
v 6.995212 1.193401 0.021779
v 7.012991 1.196870 0.022846
v 7.020572 1.188411 0.031416
v 6.989901 1.188357 0.030825
v 6.997661 1.196931 0.022715
v 7.019166 1.190814 0.033301
v 7.012263 1.198098 0.023928
v 6.998507 1.198176 0.023812
v 6.991604 1.191024 0.033349
v 7.011635 1.199220 0.024451
v 7.017859 1.193112 0.034627
v 6.999354 1.199422 0.024910
v 6.993297 1.193516 0.035544
v 7.016571 1.195486 0.035461
v 7.011007 1.200342 0.024975
v 7.000210 1.197971 0.024685
v 6.995008 1.190614 0.035094
v 7.010315 1.201723 0.025072
v 7.015220 1.198117 0.035870
v 6.996687 1.187845 0.034515
v 7.001066 1.196520 0.024460
v 7.013838 1.200879 0.036065
v 7.009624 1.203103 0.025170
v 7.001855 1.195335 0.023976
v 6.998301 1.185341 0.033677
v 7.008618 1.201328 0.025721
v 7.011826 1.197328 0.037166
v 7.002645 1.194150 0.023493
v 6.999880 1.182971 0.032711
v 7.009711 1.193940 0.037827
v 7.007612 1.199553 0.026272
v 7.003919 1.195401 0.024551
v 7.002426 1.185474 0.034826
v 7.006402 1.198102 0.025940
v 7.007393 1.190877 0.037605
v 7.005191 1.196652 0.025608
v 7.004941 1.188076 0.036579
v 7.008001 1.211532 0.030606
v 7.010813 1.210951 0.030124
v 7.011391 1.212789 0.026713
v 7.008451 1.213410 0.027244
v 7.005411 1.213779 0.027527
v 7.005410 1.211752 0.030770
v 7.005365 1.209436 0.034292
v 7.007970 1.209293 0.034107
v 7.010848 1.208827 0.033571
v 7.014067 1.210088 0.029336
v 7.014329 1.211895 0.025942
v 7.017358 1.217981 0.022640
v 7.002819 1.211533 0.030605
v 7.008544 1.205746 0.036146
v 7.002771 1.209315 0.034173
v 7.001962 1.205827 0.036414
v 7.005230 1.205964 0.036594
v 7.017107 1.210862 0.024794
v 7.002370 1.213410 0.027244
v 6.999430 1.212789 0.026713
v 7.000007 1.210952 0.030123
v 6.999921 1.208858 0.033664
v 7.004684 1.201991 0.038030
v 7.017653 1.208839 0.027910
v 7.021457 1.207102 0.025512
v 7.021792 1.209030 0.021648
v 6.993464 1.217981 0.022640
v 6.996753 1.210088 0.029335
v 6.996492 1.211895 0.025942
v 7.005411 1.215725 0.023538
v 7.014258 1.207976 0.032638
v 7.017808 1.206725 0.031155
v 7.026478 1.207199 0.018502
v 6.993715 1.210862 0.024794
v 6.993162 1.208843 0.027913
v 6.993016 1.206728 0.031146
v 6.996548 1.207992 0.032683
v 7.005411 1.216679 0.020533
v 7.015060 1.204694 0.034512
v 7.011842 1.205284 0.035358
v 6.989336 1.207119 0.025527
v 6.989029 1.209030 0.021648
v 6.995705 1.204754 0.034697
v 6.998775 1.205402 0.035739
v 7.013838 1.200879 0.036065
v 7.008752 1.201679 0.037372
v 6.984344 1.207199 0.018502
v 6.999849 1.216447 0.015679
v 6.994452 1.215018 0.010359
v 6.989106 1.211834 0.014662
v 6.997105 1.201449 0.036582
v 7.000669 1.201785 0.037605
v 7.007624 1.197886 0.038431
v 6.999170 1.197902 0.038019
v 7.003409 1.198169 0.038960
v 7.005411 1.220893 0.011053
v 7.010972 1.216447 0.015679
v 6.981834 1.212943 0.009006
v 6.995443 1.197867 0.036430
v 6.993297 1.193516 0.035544
v 6.998095 1.194289 0.037860
v 7.002024 1.194582 0.039249
v 7.016370 1.215018 0.010359
v 7.021715 1.211834 0.014662
v 6.992762 1.198846 0.035018
v 6.998070 1.191058 0.037330
v 7.001148 1.191314 0.038762
v 7.004262 1.191190 0.038586
v 7.005885 1.194384 0.038958
v 7.028987 1.212943 0.009006
v 6.994389 1.201373 0.035451
v 7.000618 1.188434 0.037553
v 7.009711 1.193940 0.037827
v 7.002853 1.188479 0.037549
v 7.004941 1.188076 0.036579
v 7.007393 1.190877 0.037605
v 7.011826 1.197328 0.037166
v 6.992804 1.203879 0.033298
v 6.992697 1.201880 0.034187
v 7.001758 1.186424 0.036080
v 7.002426 1.185474 0.034826
v 7.016292 1.201398 0.035180
v 7.017774 1.199246 0.034863
v 7.015220 1.198117 0.035870
v 6.989687 1.205076 0.028971
v 6.990124 1.202770 0.031549
v 6.991024 1.200570 0.033488
v 7.000267 1.186014 0.035673
v 6.999880 1.182971 0.032711
v 7.018114 1.201911 0.034147
v 7.018065 1.203887 0.033351
v 7.016571 1.195486 0.035461
v 6.986743 1.202624 0.026448
v 6.985713 1.204461 0.022649
v 6.989035 1.198922 0.031933
v 6.999008 1.186336 0.035314
v 6.998301 1.185341 0.033677
v 7.020724 1.202775 0.031616
v 7.019788 1.200693 0.033548
v 7.021106 1.205056 0.028971
v 6.982724 1.200418 0.019752
v 6.980932 1.201932 0.015304
v 6.990993 1.196505 0.033719
v 6.996687 1.187845 0.034515
v 7.021686 1.199126 0.031996
v 7.019364 1.197325 0.033876
v 7.024020 1.202588 0.026422
v 7.025067 1.204437 0.022628
v 6.989248 1.193683 0.031879
v 6.991604 1.191024 0.033349
v 6.995008 1.190614 0.035094
v 7.020923 1.194720 0.032534
v 7.017859 1.193112 0.034627
v 7.023066 1.200849 0.029528
v 7.028069 1.200402 0.019738
v 7.029889 1.201932 0.015304
v 6.989901 1.188357 0.030825
v 6.998555 1.188358 0.036469
v 7.019166 1.190814 0.033301
v 7.025118 1.197600 0.027306
v 7.023504 1.196244 0.030180
v 6.987157 1.187795 0.027888
v 6.988175 1.185338 0.027641
v 6.987859 1.190680 0.029825
v 7.022836 1.187912 0.028852
v 7.022173 1.191545 0.030854
v 7.020572 1.188411 0.031416
v 7.026421 1.198936 0.023847
v 7.024715 1.192450 0.028295
v 6.986440 1.182144 0.024128
v 6.985962 1.192248 0.028007
v 6.987185 1.195997 0.030000
v 7.021959 1.186092 0.029153
v 7.028234 1.194699 0.021587
v 7.030406 1.195716 0.017436
v 7.026329 1.193705 0.025516
v 6.984716 1.189850 0.024698
v 6.984513 1.188421 0.022857
v 6.985858 1.188124 0.026274
v 6.985704 1.197623 0.027305
v 6.987735 1.200870 0.029526
v 7.023206 1.184049 0.026690
v 7.033300 1.196665 0.012106
v 7.026145 1.189841 0.024721
v 6.982587 1.194699 0.021587
v 7.024382 1.182144 0.024128
v 7.024795 1.188144 0.026538
v 7.032021 1.191099 0.016313
v 7.029379 1.190415 0.021060
v 7.026308 1.188421 0.022857
v 6.984532 1.193720 0.025492
v 6.984365 1.198962 0.023865
v 7.030446 1.186017 0.020401
v 6.980408 1.195720 0.017440
v 7.032959 1.186476 0.015660
v 7.033269 1.181772 0.014764
v 7.031358 1.181391 0.019480
v 6.978801 1.191099 0.016313
v 6.981442 1.190415 0.021060
v 6.977521 1.196665 0.012106
v 7.034333 1.186893 0.011038
v 7.034062 1.190452 0.011823
v 7.032061 1.176697 0.018295
v 6.980375 1.186017 0.020401
v 6.988914 1.212262 0.004000
v 6.983985 1.207892 -0.002141
v 6.980204 1.202827 0.005034
v 7.035080 1.187221 0.006399
v 7.034633 1.183305 0.010676
v 7.033227 1.177422 0.014128
v 7.033112 1.173864 0.014254
v 7.032500 1.172095 0.016846
v 6.999806 1.217110 0.004098
v 6.992955 1.219653 -0.002097
v 6.973086 1.198194 0.001573
v 7.034335 1.177403 0.009069
v 7.034682 1.179974 0.006740
v 7.035028 1.182545 0.004412
v 7.032805 1.167539 0.015266
v 7.033570 1.172471 0.012168
v 7.005411 1.217937 -0.002314
v 7.011015 1.217110 0.004098
v 7.032950 1.170295 0.002325
v 7.034853 1.174439 -0.000158
v 7.036756 1.178584 -0.002641
v 7.035960 1.187607 -0.000826
v 7.017866 1.219653 -0.002097
v 7.021907 1.212262 0.004000
v 7.033129 1.169230 -0.005425
v 7.030892 1.164496 -0.003103
v 7.035365 1.173963 -0.007747
v 7.034375 1.183088 -0.006928
v 7.032208 1.193505 -0.010014
v 7.037735 1.198194 0.001573
v 7.026836 1.207892 -0.002141
v 7.030617 1.202827 0.005034
v 7.028367 1.160164 -0.007095
v 7.030910 1.164751 -0.009868
v 7.032855 1.169456 -0.012883
v 7.032933 1.179258 -0.012122
v 7.030181 1.201231 -0.006061
v 7.022117 1.210915 -0.008089
v 7.029221 1.209593 -0.013531
v 7.027354 1.159959 -0.014350
v 7.024212 1.155208 -0.011590
v 7.029263 1.164048 -0.017406
v 7.028706 1.166813 -0.021057
v 7.029567 1.171162 -0.020497
v 7.027130 1.180543 -0.022760
v 7.027253 1.191263 -0.025467
v 7.016827 1.212456 -0.014146
v 7.011205 1.215691 -0.008482
v 7.019243 1.149941 -0.016335
v 7.026038 1.160741 -0.020571
v 7.025891 1.165056 -0.024069
v 7.024286 1.169416 -0.026024
v 7.017275 1.180335 -0.030620
v 7.016827 1.193145 -0.030350
v 7.029235 1.196875 -0.014829
v 7.005411 1.216679 -0.017388
v 6.999616 1.215691 -0.008482
v 7.020418 1.164332 -0.026051
v 7.015962 1.168830 -0.029877
v 7.005411 1.168224 -0.034251
v 7.005411 1.180487 -0.032899
v 7.026662 1.198825 -0.017775
v 7.022056 1.206012 -0.016667
v 6.993995 1.212456 -0.014146
v 6.988705 1.210915 -0.008089
v 7.012997 1.163810 -0.028850
v 7.015425 1.164074 -0.027692
v 7.021892 1.196438 -0.024413
v 7.018009 1.206146 -0.026868
v 7.011217 1.209362 -0.020504
v 6.981601 1.209593 -0.013531
v 6.980640 1.201231 -0.006061
v 7.014898 1.159422 -0.025157
v 7.011217 1.199430 -0.028689
v 7.005411 1.205448 -0.026213
v 7.005411 1.194044 -0.034584
v 6.999604 1.209362 -0.020504
v 6.978613 1.193505 -0.010014
v 6.974862 1.187607 -0.000826
v 7.020680 1.160078 -0.023381
v 6.999604 1.199430 -0.028689
v 6.992813 1.206146 -0.026868
v 6.993995 1.193145 -0.030350
v 6.993546 1.180335 -0.030620
v 6.988765 1.206012 -0.016667
v 6.975741 1.187221 0.006399
v 6.976759 1.190452 0.011823
v 7.020100 1.154845 -0.019798
v 6.983691 1.180543 -0.022760
v 6.986535 1.169416 -0.026024
v 6.994860 1.168830 -0.029877
v 6.984159 1.198825 -0.017775
v 6.981586 1.196875 -0.014829
v 6.976488 1.186893 0.011038
v 6.975793 1.182545 0.004412
v 6.977862 1.186476 0.015660
v 6.988929 1.196438 -0.024413
v 6.983569 1.191263 -0.025467
v 6.977888 1.179258 -0.012122
v 6.976447 1.183088 -0.006928
v 6.976188 1.183305 0.010676
v 6.977552 1.181772 0.014764
v 6.974065 1.178584 -0.002641
v 6.976140 1.179974 0.006740
v 6.979463 1.181391 0.019480
v 6.975456 1.173963 -0.007747
v 6.981254 1.171162 -0.020497
v 6.977966 1.169456 -0.012883
v 6.976486 1.177403 0.009069
v 6.977594 1.177422 0.014128
v 6.978760 1.176697 0.018295
v 6.975968 1.174439 -0.000158
v 6.977693 1.169230 -0.005425
v 6.984930 1.165056 -0.024069
v 6.982116 1.166813 -0.021057
v 6.977871 1.170295 0.002325
v 6.977710 1.173864 0.014254
v 6.977251 1.172471 0.012168
v 6.978322 1.172095 0.016846
v 6.979929 1.164496 -0.003103
v 6.990403 1.164332 -0.026051
v 6.979912 1.164751 -0.009868
v 6.982455 1.160164 -0.007095
v 6.984783 1.160741 -0.020571
v 6.981559 1.164048 -0.017406
v 6.978016 1.167539 0.015266
v 6.997824 1.163809 -0.028849
v 6.995397 1.164074 -0.027692
v 6.990141 1.160078 -0.023381
v 6.995924 1.159422 -0.025157
v 6.983468 1.159959 -0.014350
v 6.986609 1.155208 -0.011590
v 6.990721 1.154845 -0.019798
v 6.987691 1.155009 -0.018850
v 7.005411 1.163225 -0.031995
v 7.000509 1.158700 -0.027605
v 7.000241 1.153376 -0.023351
v 6.993751 1.154681 -0.020746
v 6.991578 1.149941 -0.016335
v 7.010309 1.158697 -0.027604
v 7.005411 1.158368 -0.029446
v 7.005411 1.153001 -0.025416
v 7.005411 1.147835 -0.021130
v 7.010581 1.153376 -0.023351
v 7.017070 1.154681 -0.020746
v 7.023130 1.155009 -0.018850
vn -0.0139 -0.6318 0.7750
vn -0.0000 -0.6361 0.7716
vn -0.0000 -0.9152 0.4029
vn 0.0240 0.2699 0.9626
vn 0.2253 0.2362 0.9452
vn 0.2054 0.4080 0.8896
vn 0.0356 0.4344 0.9000
vn -0.2562 -0.7265 0.6376
vn -0.0629 -0.6429 0.7633
vn 0.1839 -0.6114 0.7696
vn 0.2626 -0.5361 0.8022
vn 0.2562 -0.7265 0.6376
vn 0.0629 -0.6429 0.7634
vn -0.9542 0.1089 -0.2786
vn -0.9159 0.0700 -0.3952
vn -0.9656 -0.1693 -0.1975
vn -0.9975 -0.0637 -0.0293
vn -0.0417 0.1562 0.9868
vn 0.2150 0.1079 0.9706
vn -0.1374 -0.9796 -0.1469
vn 0.7408 -0.5417 -0.3971
vn 0.7406 -0.5421 -0.3971
vn -0.0944 -0.9819 -0.1640
vn 0.0139 -0.6318 0.7750
vn 0.3592 -0.4313 0.8276
vn 0.7229 -0.4640 0.5119
vn -0.2626 -0.5361 0.8022
vn -0.3592 -0.4313 0.8276
vn -0.2686 -0.5494 0.7913
vn 0.2892 -0.5769 0.7639
vn 0.2803 -0.5707 0.7719
vn 0.2686 -0.5494 0.7913
vn 0.2478 -0.5715 0.7823
vn -0.2478 -0.5715 0.7823
vn -0.1839 -0.6114 0.7696
vn -0.8135 0.3815 0.4390
vn -0.8767 0.2092 0.4332
vn -0.8682 0.1398 0.4762
vn -0.8024 0.2825 0.5256
vn 0.2929 0.2074 0.9334
vn 0.3620 0.2162 0.9068
vn 0.3678 0.4223 0.8285
vn 0.2879 0.3990 0.8706
vn 0.8119 -0.1136 0.5727
vn 0.8144 -0.2348 0.5308
vn 0.9074 -0.1953 0.3722
vn 0.8922 -0.0244 0.4510
vn -0.6890 -0.6834 -0.2414
vn -0.7040 -0.6605 -0.2610
vn 0.6890 -0.6834 -0.2414
vn 0.7040 -0.6605 -0.2610
vn 0.8426 -0.0308 -0.5377
vn 0.7659 0.0005 -0.6429
vn 0.9159 0.0700 -0.3952
vn 0.9323 -0.2348 -0.2752
vn 0.3177 -0.6052 0.7299
vn 0.2974 -0.9547 0.0047
vn 0.2544 -0.9443 -0.2085
vn 0.3153 -0.6014 0.7341
vn -0.2803 -0.5707 0.7719
vn -0.3153 -0.6014 0.7341
vn -0.3177 -0.6052 0.7299
vn -0.2892 -0.5769 0.7639
vn 0.3474 -0.8941 -0.2828
vn -0.1887 -0.9539 -0.2334
vn -0.3047 0.6269 0.7170
vn -0.4175 0.5752 0.7034
vn -0.3988 0.7904 0.4650
vn -0.2950 0.8213 0.4882
vn -0.9234 -0.3819 0.0388
vn 0.4825 0.2886 0.8270
vn 0.6079 0.1905 0.7709
vn 0.6924 0.4000 0.6005
vn 0.5221 0.4477 0.7259
vn -0.5445 0.6324 0.5510
vn -0.6853 0.5418 0.4866
vn -0.6868 0.3983 0.6080
vn -0.5531 0.4533 0.6990
vn 0.1887 -0.9539 -0.2334
vn -0.7229 -0.4640 0.5119
vn -0.3474 -0.8941 -0.2828
vn 0.9234 -0.3819 0.0388
vn -0.3078 0.1418 0.9408
vn -0.3897 -0.0443 0.9199
vn -0.1253 -0.0133 0.9920
vn 0.0071 -0.5312 -0.8472
vn 0.0446 -0.8839 -0.4655
vn 0.7822 -0.6142 0.1044
vn 0.7817 -0.6149 0.1037
vn 0.0543 -0.8857 -0.4610
vn 0.1794 -0.0826 0.9803
vn 0.5366 -0.8383 -0.0967
vn 0.5669 -0.8238 0.0005
vn 0.5417 -0.3051 0.7833
vn 0.3604 -0.4218 -0.8319
vn 0.3493 -0.5218 -0.7783
vn 0.3790 -0.5068 -0.7743
vn 0.3924 -0.4287 -0.8138
vn 0.6428 -0.0760 0.7623
vn 0.7794 0.0219 0.6262
vn 0.7220 0.1132 0.6826
vn 0.5664 -0.0166 0.8240
vn 0.5399 -0.3051 0.7845
vn 0.5375 -0.2904 0.7917
vn 0.5390 -0.2928 0.7898
vn 0.5238 -0.2850 0.8027
vn 0.5368 -0.2734 0.7982
vn 0.5368 -0.2723 0.7985
vn 0.5229 -0.2861 0.8029
vn -0.5383 -0.2923 0.7904
vn -0.5368 -0.2734 0.7982
vn -0.5368 -0.2723 0.7985
vn -0.5378 -0.2881 0.7923
vn -0.8266 -0.1116 0.5516
vn -0.8381 -0.2264 0.4964
vn -0.7223 -0.2862 0.6296
vn -0.7123 -0.2092 0.6700
vn 0.8843 0.0834 0.4594
vn 0.9178 0.0640 0.3919
vn 0.8842 0.1286 0.4491
vn 0.8588 0.1491 0.4901
vn 0.4774 -0.3017 0.8252
vn 0.3264 -0.8519 -0.4095
vn 0.5108 -0.8491 0.1345
vn 0.4866 -0.3025 0.8196
vn -0.5238 -0.2850 0.8027
vn -0.4866 -0.3025 0.8196
vn -0.4774 -0.3017 0.8252
vn -0.5229 -0.2861 0.8029
vn 0.8681 0.1484 0.4737
vn 0.8890 0.1014 0.4466
vn 0.8757 0.2173 0.4311
vn 0.9933 0.0528 -0.1024
vn 0.9358 0.3515 -0.0281
vn 0.9199 0.2193 0.3251
vn 0.9847 -0.0390 0.1696
vn -0.0000 0.8785 -0.4777
vn -0.0589 0.9544 -0.2927
vn -0.0000 0.9914 -0.1310
vn 0.0589 0.9544 -0.2927
vn -0.1878 -0.2500 -0.9499
vn 0.5364 0.6352 0.5557
vn 0.3934 0.6668 0.6329
vn -0.5146 -0.6558 -0.5524
vn -0.7889 -0.6074 0.0935
vn -0.5157 -0.6561 -0.5509
vn -0.7900 -0.6058 0.0937
vn 0.5229 -0.6588 -0.5409
vn 0.5127 -0.6553 -0.5548
vn -0.7936 -0.5987 0.1089
vn -0.7950 -0.5955 0.1155
vn 0.7943 -0.5911 0.1405
vn -0.5554 -0.4702 0.6859
vn -0.4688 -0.4396 0.7662
vn -0.4449 -0.2735 0.8528
vn -0.4951 -0.3261 0.8053
vn -0.8879 0.0960 0.4499
vn -0.8931 -0.0260 0.4492
vn 0.7952 -0.5904 0.1385
vn 0.7881 -0.6043 0.1172
vn 0.7901 -0.6000 0.1251
vn 0.3779 0.0504 0.9245
vn 0.4507 0.0687 0.8900
vn 0.2914 0.6764 0.6764
vn 0.1782 0.6906 0.7010
vn -0.7138 0.2298 -0.6616
vn -0.4076 0.1671 -0.8978
vn -0.4132 -0.0316 -0.9101
vn -0.7659 0.0005 -0.6429
vn -0.0000 0.8355 0.5496
vn 0.0029 0.8489 0.5286
vn 0.1800 0.8364 0.5177
vn 0.1890 0.6994 0.6893
vn -0.7989 -0.5876 0.1283
vn -0.7997 -0.5861 0.1306
vn -0.6920 -0.1225 0.7115
vn -0.6639 -0.1724 0.7277
vn -0.5393 -0.0895 0.8373
vn -0.6346 -0.0186 0.7727
vn -0.4022 -0.1916 -0.8953
vn -0.3925 -0.4287 -0.8138
vn -0.3604 -0.4218 -0.8319
vn -0.5677 -0.1098 -0.8159
vn 0.9233 0.0213 0.3835
vn 0.9462 -0.0100 0.3233
vn -0.9731 0.0346 0.2279
vn -0.9178 0.0640 0.3919
vn -0.8843 0.1282 0.4491
vn -0.9583 0.0990 0.2680
vn -0.7326 0.1185 0.6703
vn -0.7909 0.0132 0.6118
vn 0.7138 0.2298 -0.6616
vn 0.9221 0.1354 -0.3626
vn 0.7305 -0.2421 0.6385
vn 0.6862 -0.1861 0.7032
vn -0.3477 0.2464 0.9046
vn -0.2163 0.2707 0.9381
vn -0.1635 0.4486 0.8787
vn -0.3097 0.4517 0.8367
vn -0.5311 0.0997 0.8414
vn -0.6351 0.2163 0.7415
vn -0.0000 -0.6444 0.7647
vn -0.0000 -0.0201 -0.9998
vn -0.0000 0.2662 -0.9639
vn -0.1889 0.6994 0.6893
vn -0.1762 0.8406 0.5122
vn 0.3969 0.7885 0.4699
vn 0.2946 0.8169 0.4958
vn -0.7290 -0.3311 -0.5991
vn -0.7457 -0.3097 -0.5899
vn -0.7493 -0.3053 -0.5877
vn -0.7296 -0.3302 -0.5989
vn -0.2939 0.7050 0.6455
vn -0.1543 0.7126 0.6844
vn 0.3047 0.6269 0.7171
vn 0.4182 0.8221 0.3864
vn 0.4178 0.5749 0.7035
vn 0.0174 0.7068 0.7072
vn 0.5232 0.7333 0.4342
vn 0.5533 0.5286 0.6437
vn 0.7504 -0.5310 -0.3937
vn 0.7516 -0.5296 -0.3932
vn 0.7708 -0.5112 -0.3801
vn 0.7681 -0.5138 -0.3822
vn -0.8587 0.1485 0.4904
vn -0.8646 0.1822 0.4683
vn 0.8083 0.2859 0.5147
vn 0.6370 0.4380 0.6343
vn -0.4182 0.8221 0.3864
vn 0.4940 -0.0219 0.8692
vn 0.5846 -0.0839 0.8070
vn -0.0000 0.9683 0.2499
vn -0.7541 0.4831 0.4448
vn -0.9011 0.2724 0.3375
vn -0.8593 0.2434 0.4499
vn -0.7845 0.4284 0.4484
vn 0.7540 0.4805 0.4479
vn 0.6227 -0.6069 -0.4939
vn 0.8266 -0.5420 -0.1514
vn 0.7967 -0.5960 -0.0996
vn 0.5794 -0.6612 -0.4765
vn -0.5524 0.5305 0.6430
vn 0.8636 0.1837 0.4696
vn -0.6613 -0.2681 0.7005
vn -0.6522 0.7572 0.0368
vn -0.8554 0.5180 0.0045
vn -0.9202 0.2192 0.3243
vn -0.0000 0.9920 0.1265
vn -0.2913 0.9558 0.0405
vn -0.8381 -0.5041 0.2086
vn -0.8439 -0.4901 0.2182
vn -0.8228 -0.5382 0.1826
vn -0.8206 -0.5431 0.1782
vn -0.3945 -0.4953 -0.7740
vn -0.0000 -0.5223 -0.8528
vn -0.0000 -0.6211 -0.7838
vn -0.3636 -0.5753 -0.7327
vn 0.6503 0.6262 0.4301
vn -0.6363 0.4422 0.6322
vn -0.5215 0.7351 0.4332
vn -0.6465 0.6312 0.4284
vn -0.8076 -0.5705 0.1496
vn -0.8101 -0.5654 0.1553
vn 0.7844 0.4239 0.4528
vn -0.8285 -0.5388 -0.1524
vn -0.8076 -0.5762 -0.1259
vn -0.8479 -0.5257 -0.0688
vn -0.8742 -0.4794 -0.0768
vn -0.4477 0.8789 0.1646
vn 0.1494 -0.3178 0.9363
vn 0.2548 -0.3344 0.9073
vn 0.2781 -0.0841 0.9569
vn -0.5406 -0.3046 0.7842
vn -0.5412 -0.3057 0.7834
vn 0.2419 -0.5606 0.7919
vn 0.1256 -0.5165 0.8470
vn -0.4266 0.0910 0.8999
vn 0.3638 0.9282 -0.0780
vn 0.1768 0.9840 0.0229
vn -0.0000 0.9957 0.0931
vn 0.3626 0.9305 0.0526
vn 0.2913 0.9558 0.0405
vn -0.3626 0.9305 0.0526
vn 0.4477 0.8789 0.1646
vn -0.0842 0.8194 -0.5670
vn -0.3656 0.8192 -0.4418
vn 0.6824 0.3876 -0.6198
vn 0.6408 0.4407 -0.6286
vn 0.3934 0.5790 -0.7141
vn 0.5815 0.4691 -0.6647
vn -0.8248 -0.2110 -0.5246
vn -0.8608 -0.4072 -0.3053
vn -0.9323 -0.2348 -0.2752
vn -0.8426 -0.0308 -0.5377
vn 0.6770 -0.5100 -0.5306
vn 0.3079 -0.5611 -0.7684
vn -0.9102 -0.4137 0.0220
vn -0.9475 -0.2919 0.1304
vn -0.6073 -0.3214 -0.7266
vn 0.6522 0.7572 0.0368
vn -0.5426 0.3138 0.7791
vn -0.3638 0.9282 -0.0780
vn -0.5449 0.8363 -0.0603
vn -0.7507 0.6566 -0.0727
vn -0.5125 0.8482 -0.1335
vn 0.9558 0.0004 0.2939
vn 0.9719 -0.0079 0.2352
vn 0.9727 -0.0109 0.2316
vn 0.9647 -0.0281 0.2617
vn -0.9929 -0.0471 0.1089
vn -0.9814 -0.0267 0.1901
vn -0.9848 -0.0359 0.1701
vn 0.1031 -0.6675 0.7375
vn -0.1963 -0.4599 0.8660
vn 0.2077 -0.7231 0.6588
vn -0.1773 -0.2350 0.9557
vn 0.6908 0.5436 0.4768
vn 0.9808 -0.0222 0.1940
vn 0.9838 -0.1277 0.1255
vn 0.9933 -0.0531 0.1027
vn -0.1956 -0.6324 0.7496
vn -0.2304 -0.6883 0.6879
vn 0.8154 0.3836 0.4335
vn 0.2836 -0.5757 -0.7669
vn -0.9788 -0.1182 0.1671
vn -0.9647 -0.0281 0.2617
vn -0.9462 -0.0100 0.3233
vn -0.4638 -0.5661 0.6815
vn -0.5486 -0.5881 0.5943
vn 0.8571 0.2440 0.4537
vn 0.9003 0.2715 0.3401
vn -0.4461 0.2507 0.8592
vn 0.7445 -0.5375 -0.3960
vn 0.7435 -0.5386 -0.3964
vn -0.4272 0.4567 0.7803
vn 0.8742 -0.4794 -0.0768
vn 0.8642 -0.4002 -0.3050
vn 0.7863 -0.4971 -0.3669
vn 0.7858 -0.4974 -0.3675
vn 0.9402 -0.3267 0.0963
vn 0.8994 -0.4367 0.0169
vn 0.9102 -0.4137 0.0220
vn 0.9475 -0.2919 0.1304
vn -0.1768 0.9840 0.0229
vn -0.4138 0.6812 0.6039
vn -0.6699 -0.3437 0.6581
vn 0.6442 -0.1587 0.7482
vn 0.7326 -0.1197 0.6701
vn 0.9690 0.0505 0.2419
vn -0.6768 -0.5235 -0.5176
vn -0.8245 -0.2788 0.4924
vn 0.7358 -0.2508 0.6290
vn -0.0625 0.4321 -0.8996
vn -0.0000 0.6191 -0.7853
vn 0.0625 0.4321 -0.8996
vn -0.9100 -0.1890 0.3691
vn -0.9321 -0.2292 0.2805
vn -0.0000 -0.2044 -0.9789
vn -0.0000 -0.4308 -0.9025
vn -0.4088 -0.4174 -0.8116
vn 0.8036 -0.2304 0.5489
vn -0.6824 0.3876 -0.6198
vn -0.8242 0.2460 -0.5101
vn -0.6907 0.6274 -0.3597
vn -0.5815 0.4691 -0.6647
vn 0.9754 -0.0151 0.2199
vn 0.9788 -0.1182 0.1671
vn 0.8424 -0.2527 0.4760
vn 0.9364 -0.2346 0.2609
vn -0.2544 -0.9443 -0.2085
vn -0.0071 -0.5312 -0.8472
vn -0.2974 -0.9547 0.0047
vn -0.8843 0.0834 0.4594
vn -0.9233 0.0213 0.3835
vn 0.9583 0.0991 0.2682
vn 0.8554 0.5180 0.0045
vn -0.9558 0.0004 0.2939
vn -0.9727 -0.0109 0.2316
vn -0.9719 -0.0079 0.2352
vn 0.7507 0.6566 -0.0727
vn 0.5449 0.8363 -0.0603
vn 0.5125 0.8482 -0.1335
vn -0.9358 0.3515 -0.0281
vn -0.9754 -0.0151 0.2199
vn 0.0379 -0.6413 -0.7664
vn -0.7671 -0.2844 -0.5750
vn -0.7659 -0.2855 -0.5760
vn -0.0012 -0.6360 -0.7717
vn -0.9749 -0.0116 0.2222
vn -0.9221 0.1354 -0.3626
vn -0.9933 0.0528 -0.1024
vn -0.9197 0.3857 -0.0738
vn 0.9975 -0.0637 -0.0293
vn -0.9832 -0.1323 0.1260
vn -0.8994 -0.4367 0.0169
vn -0.9402 -0.3267 0.0963
vn -0.8582 -0.4542 0.2392
vn -0.8565 -0.4581 0.2377
vn 0.9542 0.1089 -0.2786
vn 0.5677 -0.1098 -0.8159
vn 0.4022 -0.1916 -0.8953
vn 0.4132 -0.0316 -0.9101
vn -0.5108 -0.8491 0.1344
vn -0.3264 -0.8519 -0.4095
vn 0.9656 -0.1693 -0.1975
vn 0.6907 0.6274 -0.3597
vn 0.9197 0.3857 -0.0738
vn 0.1878 -0.2500 -0.9499
vn 0.3656 0.8192 -0.4418
vn 0.9749 -0.0116 0.2222
vn 0.8242 0.2460 -0.5101
vn 0.0842 0.8194 -0.5670
vn 0.6073 -0.3214 -0.7266
vn -0.3493 -0.5218 -0.7783
vn 0.4088 -0.4174 -0.8116
vn 0.4076 0.1671 -0.8978
vn -0.3934 0.5790 -0.7141
vn -0.6408 0.4407 -0.6286
vn -0.3790 -0.5068 -0.7743
vn -0.5669 -0.8238 0.0005
vn -0.5354 -0.8388 -0.0985
vn -0.3079 -0.5611 -0.7684
vn -0.6242 -0.6060 -0.4931
vn -0.2836 -0.5757 -0.7669
vn 0.8248 -0.2110 -0.5246
vn 0.8479 -0.5257 -0.0688
vn 0.3945 -0.4954 -0.7739
vn 0.2861 0.1025 0.9527
vn -0.5692 -0.6718 -0.4740
vn 0.3636 -0.5753 -0.7327
vn -0.0000 -0.6385 -0.7696
vt 0.000000 0.000000
s 1
f 1/1/1 2/1/2 3/1/3
f 148/1/4 171/1/5 139/1/6 142/1/7
f 1/1/1 6/1/8 5/1/9
f 1/1/1 3/1/3 6/1/8
f 11/1/10 17/1/11 12/1/12 8/1/13
f 389/1/14 388/1/15 395/1/16 392/1/17
f 148/1/4 180/1/18 178/1/19 171/1/5
f 110/1/20 115/1/21 114/1/22 111/1/23
f 8/1/13 12/1/12 13/1/24
f 2/1/2 13/1/24 3/1/3
f 13/1/24 12/1/12 3/1/3
f 24/1/25 34/1/26 12/1/12 17/1/11
f 9/1/27 14/1/28 15/1/29
f 23/1/30 32/1/31 22/1/32 18/1/33
f 9/1/27 15/1/29 10/1/34 7/1/35
f 218/1/36 277/1/37 265/1/38 266/1/39
f 170/1/40 207/1/41 164/1/42 165/1/43
f 254/1/44 272/1/45 269/1/46 261/1/47
f 17/1/11 22/1/32 24/1/25
f 3/1/3 12/1/12 25/1/48
f 3/1/3 25/1/48 26/1/49
f 3/1/3 27/1/50 6/1/8
f 3/1/3 28/1/51 27/1/50
f 333/1/52 334/1/53 325/1/54 324/1/55
f 33/1/56 42/1/57 41/1/58 40/1/59
f 20/1/60 30/1/61 21/1/62 16/1/63
f 28/1/51 37/1/64 36/1/65 27/1/50
f 27/1/50 36/1/65 6/1/8
f 145/1/66 154/1/67 153/1/68 146/1/69
f 29/1/70 36/1/65 37/1/64
f 215/1/71 224/1/72 223/1/73 216/1/74
f 161/1/75 210/1/76 211/1/77 203/1/78
f 12/1/12 43/1/79 25/1/48
f 6/1/8 36/1/65 29/1/70 19/1/80
f 35/1/81 43/1/79 44/1/82
f 179/1/83 186/1/84 187/1/85 180/1/18
f 42/1/57 48/1/86 41/1/58
f 101/1/87 97/1/88 96/1/89 100/1/90
f 187/1/85 194/1/91 178/1/19 180/1/18
f 49/1/86 52/1/92 53/1/93
f 33/1/56 40/1/59 32/1/31 23/1/30
f 52/1/92 56/1/94 53/1/93
f 347/1/95 369/1/96 362/1/97 356/1/98
f 237/1/99 246/1/100 230/1/101 231/1/102
f 57/1/103 61/1/104 60/1/105
f 69/1/106 65/1/107 64/1/108 68/1/109
f 54/1/110 59/1/111 58/1/112 55/1/113
f 256/1/114 264/1/115 247/1/116 249/1/117
f 278/1/118 280/1/119 273/1/120 274/1/121
f 72/1/122 77/1/123 76/1/124 73/1/125
f 62/1/126 67/1/127 66/1/128 63/1/129
f 245/1/130 261/1/47 259/1/131 253/1/132
f 311/1/133 319/1/134 268/1/135 293/1/136
f 345/1/137 346/1/138 306/1/139 337/1/140
f 77/1/123 80/1/141 76/1/124
f 164/1/42 216/1/74 157/1/142 156/1/143
f 78/1/144 82/1/145 79/1/146
f 78/1/144 83/1/147 82/1/145
f 81/1/141 84/1/148 85/1/149
f 82/1/145 83/1/147 86/1/150
f 82/1/145 86/1/150 87/1/151
f 84/1/148 88/1/152 85/1/149
f 229/1/153 243/1/154 191/1/155 236/1/156
f 265/1/38 277/1/37 270/1/157 276/1/158
f 89/1/159 93/1/160 92/1/161
f 170/1/40 209/1/162 208/1/163 207/1/41
f 139/1/6 165/1/43 134/1/164 133/1/165
f 387/1/166 372/1/167 373/1/168 378/1/169
f 130/1/170 131/1/171 126/1/172 129/1/173
f 86/1/150 91/1/174 90/1/175 87/1/151
f 234/1/176 235/1/177 185/1/178 228/1/179
f 380/1/180 417/1/181 410/1/182 379/1/183
f 278/1/118 282/1/184 281/1/185 280/1/119
f 383/1/186 385/1/187 283/1/188 376/1/189
f 220/1/190 266/1/39 265/1/38 257/1/191
f 335/1/192 318/1/193 325/1/54 334/1/53
f 250/1/194 272/1/45 254/1/44 251/1/195
f 176/1/196 177/1/197 141/1/198 169/1/199
f 220/1/190 228/1/179 190/1/200 212/1/201
f 25/1/48 43/1/79 35/1/81 26/1/49
f 1/1/1 5/1/9 4/1/202 2/1/2
f 237/1/99 251/1/195 254/1/44 246/1/100
f 350/1/203 373/1/168 372/1/167 365/1/204
f 130/1/170 144/1/205 138/1/206 131/1/171
f 134/1/164 156/1/143 135/1/207 127/1/208
f 234/1/176 257/1/191 256/1/114 249/1/117
f 104/1/209 109/1/210 108/1/211 105/1/212
f 138/1/206 146/1/69 147/1/213 140/1/214
f 128/1/215 137/1/216 129/1/173
f 129/1/173 137/1/216 130/1/170
f 128/1/215 136/1/217 137/1/216
f 132/1/218 133/1/165 126/1/172 131/1/171
f 135/1/207 156/1/143 157/1/142 149/1/219
f 135/1/207 149/1/219 143/1/220 136/1/217
f 122/1/221 123/1/222 125/1/223 124/1/224
f 132/1/218 142/1/7 139/1/6 133/1/165
f 283/1/188 284/1/225 270/1/157 279/1/226
f 136/1/217 143/1/220 137/1/216
f 128/1/215 129/1/173 126/1/172 127/1/208
f 265/1/38 276/1/158 256/1/114 257/1/191
f 211/1/77 266/1/39 220/1/190 212/1/201
f 8/1/13 13/1/24 2/1/2 4/1/202
f 230/1/101 246/1/100 245/1/130 239/1/227
f 266/1/39 211/1/77 210/1/76 218/1/36
f 143/1/220 151/1/228 137/1/216
f 144/1/205 130/1/170 152/1/229
f 144/1/205 152/1/229 145/1/66
f 217/1/230 238/1/231 237/1/99 231/1/102
f 126/1/172 133/1/165 134/1/164 127/1/208
f 145/1/66 152/1/229 154/1/67
f 130/1/170 155/1/232 152/1/229
f 130/1/170 137/1/216 155/1/232
f 104/1/209 105/1/212 101/1/87 100/1/90
f 172/1/233 227/1/234 226/1/235 219/1/236
f 151/1/228 158/1/237 137/1/216
f 435/1/238 329/1/239 330/1/240 338/1/241
f 154/1/67 152/1/229 159/1/242
f 259/1/131 274/1/121 273/1/120 260/1/243
f 234/1/176 249/1/117 242/1/244 235/1/177
f 183/1/245 292/1/246 285/1/247 227/1/234
f 163/1/248 173/1/249 152/1/229 155/1/232
f 102/1/250 103/1/251 98/1/252 99/1/253
f 425/1/254 430/1/255 431/1/256 426/1/257
f 89/1/159 92/1/161 88/1/152 84/1/148
f 150/1/258 151/1/228 143/1/220 149/1/219
f 159/1/242 152/1/229 167/1/259
f 159/1/242 160/1/260 153/1/68 154/1/67
f 159/1/242 167/1/259 166/1/261 160/1/260
f 285/1/247 376/1/189 283/1/188 279/1/226
f 94/1/262 99/1/253 98/1/252 95/1/263
f 150/1/258 233/1/264 158/1/237 151/1/228
f 167/1/259 152/1/229 172/1/233
f 420/1/265 421/1/266 412/1/267 411/1/268
f 152/1/229 175/1/269 172/1/233
f 166/1/261 219/1/236 218/1/36 210/1/76
f 193/1/270 201/1/271 198/1/272 194/1/91
f 54/1/110 55/1/113 50/1/273 51/1/274
f 200/1/275 201/1/271 193/1/270 199/1/276
f 185/1/178 186/1/84 179/1/83 184/1/277
f 312/1/278 337/1/140 306/1/139 307/1/279
f 173/1/249 163/1/248 181/1/280
f 188/1/281 307/1/279 181/1/280 182/1/282
f 163/1/248 182/1/282 181/1/280
f 175/1/269 174/1/283 183/1/245
f 175/1/269 183/1/245 172/1/233
f 137/1/216 189/1/284 188/1/281 182/1/282
f 345/1/137 366/1/285 353/1/286 346/1/138
f 351/1/287 357/1/288 358/1/289 352/1/290
f 174/1/283 175/1/269 152/1/229 173/1/249
f 217/1/230 231/1/102 208/1/163 209/1/162
f 137/1/216 158/1/237 189/1/284
f 404/1/291 414/1/292 397/1/293 396/1/294
f 339/1/295 435/1/238 377/1/296 369/1/96
f 395/1/16 402/1/297 401/1/298 392/1/17
f 403/1/299 404/1/291 396/1/294 379/1/183
f 230/1/101 239/1/227 223/1/73 224/1/72
f 189/1/284 158/1/237 195/1/300
f 189/1/284 195/1/300 188/1/281
f 211/1/77 212/1/201 204/1/301 203/1/78
f 6/1/8 9/1/27 7/1/35 5/1/9
f 208/1/163 231/1/102 230/1/101 224/1/72
f 299/1/302 354/1/303 291/1/304 290/1/305
f 288/1/306 297/1/307 296/1/308 295/1/309
f 166/1/261 210/1/76 161/1/75 160/1/260
f 384/1/310 390/1/311 383/1/186 375/1/312
f 199/1/276 205/1/313 200/1/275
f 199/1/276 197/1/314 205/1/313
f 200/1/275 205/1/313 206/1/315
f 191/1/155 243/1/154 197/1/314 192/1/316
f 223/1/73 225/1/317 157/1/142 216/1/74
f 294/1/318 302/1/319 303/1/320 293/1/136
f 205/1/313 197/1/314 213/1/321
f 205/1/313 214/1/322 206/1/315
f 205/1/313 213/1/321 214/1/322
f 207/1/41 208/1/163 215/1/71
f 223/1/73 239/1/227 232/1/323 225/1/317
f 6/1/8 19/1/80 14/1/28 9/1/27
f 157/1/142 225/1/317 150/1/258 149/1/219
f 185/1/178 236/1/156 191/1/155 186/1/84
f 80/1/141 84/1/148 81/1/141 76/1/124
f 377/1/296 434/1/324 362/1/97 369/1/96
f 398/1/325 399/1/326 391/1/327 390/1/311
f 213/1/321 221/1/328 214/1/322
f 214/1/322 221/1/328 222/1/329
f 197/1/314 199/1/276 193/1/270 192/1/316
f 288/1/306 295/1/309 281/1/185 282/1/184
f 215/1/71 208/1/163 224/1/72
f 240/1/330 241/1/331 158/1/237 233/1/264
f 176/1/196 196/1/332 190/1/200 184/1/277
f 172/1/233 183/1/245 227/1/234
f 222/1/329 221/1/328 229/1/153
f 118/1/333 119/1/334 114/1/22 115/1/21
f 139/1/6 171/1/5 170/1/40 165/1/43
f 204/1/301 196/1/332 168/1/335 203/1/78
f 323/1/336 329/1/239 331/1/337 324/1/55
f 125/1/223 121/1/338 120/1/339 124/1/224
f 138/1/206 140/1/214 132/1/218 131/1/171
f 215/1/71 216/1/74 164/1/42 207/1/41
f 135/1/207 136/1/217 128/1/215 127/1/208
f 147/1/213 169/1/199 141/1/198 140/1/214
f 18/1/33 22/1/32 17/1/11 11/1/10
f 308/1/340 315/1/341 314/1/342 309/1/343
f 158/1/237 241/1/331 195/1/300
f 141/1/198 142/1/7 132/1/218 140/1/214
f 229/1/153 221/1/328 243/1/154
f 204/1/301 212/1/201 190/1/200 196/1/332
f 181/1/280 298/1/344 174/1/283 173/1/249
f 168/1/335 169/1/199 147/1/213 162/1/345
f 242/1/244 247/1/116 248/1/346
f 242/1/244 249/1/117 247/1/116
f 244/1/347 250/1/194 251/1/195
f 244/1/347 252/1/348 250/1/194
f 281/1/185 294/1/318 286/1/349 280/1/119
f 413/1/350 414/1/292 404/1/291 403/1/299
f 64/1/108 65/1/107 60/1/105 61/1/104
f 248/1/346 247/1/116 255/1/351
f 57/1/103 60/1/105 56/1/94 52/1/92
f 96/1/89 97/1/88 92/1/161 93/1/160
f 252/1/348 258/1/352 250/1/194
f 134/1/164 165/1/43 164/1/42 156/1/143
f 226/1/235 279/1/226 270/1/157 277/1/37
f 365/1/204 370/1/353 364/1/354 363/1/355
f 255/1/351 262/1/356 263/1/357
f 255/1/351 264/1/115 262/1/356
f 255/1/351 247/1/116 264/1/115
f 232/1/323 253/1/132 240/1/330 233/1/264
f 153/1/68 162/1/345 147/1/213 146/1/69
f 145/1/66 146/1/69 138/1/206 144/1/205
f 349/1/358 424/1/359 416/1/360 380/1/180
f 258/1/352 267/1/361 250/1/194
f 381/1/362 382/1/363 360/1/364 374/1/365
f 261/1/47 269/1/46 259/1/131
f 296/1/308 305/1/366 301/1/367 295/1/309
f 263/1/357 262/1/356 270/1/157
f 267/1/361 271/1/368 250/1/194
f 250/1/194 271/1/368 272/1/45
f 271/1/368 269/1/46 272/1/45
f 62/1/126 63/1/129 58/1/112 59/1/111
f 193/1/270 194/1/91 187/1/85 192/1/316
f 259/1/131 269/1/46 275/1/369
f 271/1/368 275/1/369 269/1/46
f 38/1/370 45/1/371 39/1/371 31/1/372
f 262/1/356 276/1/158 270/1/157
f 256/1/114 276/1/158 262/1/356 264/1/115
f 283/1/188 385/1/187 289/1/373 284/1/225
f 179/1/83 180/1/18 148/1/4 177/1/197
f 391/1/327 394/1/374 289/1/373 385/1/187
f 161/1/75 203/1/78 168/1/335 162/1/345
f 273/1/120 287/1/375 268/1/135 260/1/243
f 268/1/135 321/1/376 195/1/300 241/1/331
f 383/1/186 390/1/311 391/1/327 385/1/187
f 190/1/200 228/1/179 185/1/178 184/1/277
f 391/1/327 399/1/326 400/1/377 394/1/374
f 254/1/44 261/1/47 245/1/130 246/1/100
f 183/1/245 174/1/283 290/1/305
f 183/1/245 290/1/305 291/1/304
f 183/1/245 291/1/304 292/1/246
f 287/1/375 293/1/136 268/1/135
f 286/1/349 293/1/136 287/1/375
f 286/1/349 294/1/318 293/1/136
f 406/1/378 408/1/379 400/1/377 399/1/326
f 174/1/283 299/1/302 290/1/305
f 320/1/380 327/1/381 312/1/278 313/1/382
f 174/1/283 298/1/344 299/1/302
f 292/1/246 300/1/383 285/1/247
f 137/1/216 182/1/282 163/1/248 155/1/232
f 72/1/122 73/1/125 69/1/106 68/1/109
f 398/1/325 407/1/384 406/1/378 399/1/326
f 294/1/318 301/1/367 302/1/319
f 117/1/385 113/1/386 112/1/387 116/1/388
f 406/1/378 407/1/384 415/1/389 408/1/379
f 367/1/390 368/1/391 300/1/383 361/1/392
f 181/1/280 306/1/139 298/1/344
f 181/1/280 307/1/279 306/1/139
f 310/1/393 303/1/320 302/1/319 309/1/343
f 392/1/17 401/1/298 393/1/394 384/1/310
f 368/1/391 389/1/14 392/1/17 384/1/310
f 303/1/320 311/1/133 293/1/136
f 368/1/391 375/1/312 285/1/247 300/1/383
f 307/1/279 188/1/281 312/1/278
f 306/1/139 346/1/138 299/1/302 298/1/344
f 188/1/281 195/1/300 313/1/382
f 188/1/281 313/1/382 312/1/278
f 401/1/298 402/1/297 409/1/395 405/1/396
f 110/1/20 111/1/23 106/1/397 107/1/398
f 161/1/75 162/1/345 153/1/68 160/1/260
f 311/1/133 317/1/399 318/1/193
f 402/1/297 411/1/268 412/1/267 409/1/395
f 341/1/400 348/1/401 342/1/402 334/1/53
f 313/1/382 195/1/300 320/1/380
f 195/1/300 321/1/376 320/1/380
f 268/1/135 319/1/134 321/1/376
f 291/1/304 361/1/392 300/1/383 292/1/246
f 70/1/403 71/1/404 66/1/128 67/1/127
f 397/1/293 411/1/268 402/1/297 395/1/16
f 317/1/399 325/1/54 318/1/193
f 316/1/405 324/1/55 325/1/54
f 320/1/380 328/1/406 327/1/381
f 320/1/380 326/1/407 328/1/406
f 326/1/407 318/1/193 328/1/406
f 78/1/144 79/1/146 74/1/408 75/1/408
f 397/1/293 414/1/292 420/1/265 411/1/268
f 168/1/335 196/1/332 176/1/196 169/1/199
f 396/1/294 397/1/293 388/1/15 378/1/169
f 367/1/390 387/1/166 378/1/169 388/1/15
f 327/1/381 328/1/406 336/1/409
f 327/1/381 336/1/409 312/1/278
f 312/1/278 336/1/409 337/1/140
f 319/1/134 326/1/407 320/1/380 321/1/376
f 94/1/262 95/1/263 90/1/175 91/1/174
f 310/1/393 317/1/399 311/1/133 303/1/320
f 232/1/323 233/1/264 150/1/258 225/1/317
f 333/1/52 341/1/400 334/1/53
f 373/1/168 380/1/180 379/1/183 378/1/169
f 304/1/410 305/1/366 296/1/308 297/1/307
f 318/1/193 335/1/192 344/1/411
f 318/1/193 344/1/411 328/1/406
f 176/1/196 184/1/277 179/1/83 177/1/197
f 364/1/354 366/1/285 345/1/137 359/1/412
f 340/1/413 347/1/95 341/1/400
f 410/1/182 418/1/414 413/1/350 403/1/299
f 260/1/243 268/1/135 241/1/331 240/1/330
f 349/1/358 380/1/180 373/1/168 350/1/203
f 120/1/339 121/1/338 117/1/385 116/1/388
f 344/1/411 335/1/192 351/1/287
f 328/1/406 352/1/290 336/1/409
f 336/1/409 359/1/412 345/1/137 337/1/140
f 346/1/138 353/1/286 299/1/302
f 299/1/302 353/1/286 354/1/303
f 245/1/130 253/1/132 232/1/323 239/1/227
f 348/1/401 356/1/98 355/1/415
f 351/1/287 335/1/192 357/1/288
f 335/1/192 343/1/416 357/1/288
f 371/1/417 386/1/418 381/1/362 374/1/365
f 352/1/290 358/1/289 336/1/409
f 357/1/288 343/1/416 358/1/289
f 336/1/409 358/1/289 359/1/412
f 354/1/303 353/1/286 360/1/364
f 354/1/303 360/1/364 291/1/304
f 291/1/304 360/1/364 361/1/392
f 416/1/360 425/1/254 419/1/419 417/1/181
f 419/1/419 418/1/414 410/1/182 417/1/181
f 358/1/289 343/1/416 363/1/355
f 358/1/289 364/1/354 359/1/412
f 435/1/238 339/1/295 331/1/337 329/1/239
f 358/1/289 363/1/355 364/1/354
f 343/1/416 365/1/204 363/1/355
f 227/1/234 285/1/247 279/1/226 226/1/235
f 318/1/193 326/1/407 319/1/134 311/1/133
f 361/1/392 360/1/364 367/1/390
f 46/1/420 47/1/421 39/1/371 45/1/371
f 364/1/354 370/1/353 371/1/417
f 366/1/285 371/1/417 353/1/286
f 364/1/354 371/1/417 366/1/285
f 370/1/353 372/1/167 371/1/417
f 365/1/204 372/1/167 370/1/353
f 350/1/203 365/1/204 343/1/416 342/1/402
f 243/1/154 221/1/328 213/1/321 197/1/314
f 353/1/286 374/1/365 360/1/364
f 353/1/286 371/1/417 374/1/365
f 285/1/247 375/1/312 376/1/189
f 422/1/422 423/1/423 413/1/350 418/1/414
f 419/1/419 427/1/424 422/1/422 418/1/414
f 343/1/416 335/1/192 334/1/53 342/1/402
f 102/1/250 107/1/398 106/1/397 103/1/251
f 351/1/287 352/1/290 328/1/406 344/1/411
f 423/1/423 421/1/266 420/1/265 413/1/350
f 360/1/364 382/1/363 367/1/390
f 376/1/189 375/1/312 383/1/186
f 286/1/349 287/1/375 273/1/120 280/1/119
f 314/1/342 323/1/336 324/1/55 316/1/405
f 375/1/312 368/1/391 384/1/310
f 371/1/417 372/1/167 386/1/418
f 382/1/363 387/1/166 367/1/390
f 386/1/418 372/1/167 387/1/166
f 381/1/362 387/1/166 382/1/363
f 381/1/362 386/1/418 387/1/166
f 15/1/29 20/1/60 16/1/63 10/1/34
f 367/1/390 388/1/15 389/1/14
f 367/1/390 389/1/14 368/1/391
f 30/1/61 38/1/370 31/1/372 21/1/62
f 349/1/358 350/1/203 342/1/402 348/1/401
f 172/1/233 219/1/236 166/1/261 167/1/259
f 384/1/310 393/1/394 390/1/311
f 70/1/403 75/1/408 74/1/408 71/1/404
f 316/1/405 325/1/54 317/1/399 310/1/393
f 244/1/347 251/1/195 237/1/99 238/1/231
f 378/1/169 379/1/183 396/1/294
f 388/1/15 397/1/293 395/1/16
f 281/1/185 295/1/309 301/1/367 294/1/318
f 390/1/311 393/1/394 398/1/325
f 112/1/387 113/1/386 108/1/211 109/1/210
f 309/1/343 302/1/319 301/1/367 308/1/340
f 316/1/405 310/1/393 309/1/343 314/1/342
f 259/1/131 260/1/243 240/1/330 253/1/132
f 340/1/413 341/1/400 333/1/52 332/1/425
f 332/1/425 333/1/52 324/1/55 331/1/337
f 34/1/26 44/1/82 43/1/79 12/1/12
f 401/1/298 405/1/396 398/1/325 393/1/394
f 226/1/235 277/1/37 218/1/36 219/1/236
f 379/1/183 410/1/182 403/1/299
f 347/1/95 356/1/98 348/1/401 341/1/400
f 322/1/426 323/1/336 314/1/342 315/1/341
f 339/1/295 340/1/413 332/1/425 331/1/337
f 362/1/97 429/1/427 355/1/415 356/1/98
f 191/1/155 192/1/316 187/1/85 186/1/84
f 429/1/427 430/1/255 424/1/359 355/1/415
f 380/1/180 416/1/360 417/1/181
f 48/1/86 52/1/92 49/1/86 41/1/58
f 141/1/198 177/1/197 148/1/4 142/1/7
f 322/1/426 330/1/240 329/1/239 323/1/336
f 46/1/420 51/1/274 50/1/273 47/1/421
f 414/1/292 413/1/350 420/1/265
f 339/1/295 369/1/96 347/1/95 340/1/413
f 178/1/19 202/1/428 170/1/40 171/1/5
f 198/1/272 202/1/428 178/1/19 194/1/91
f 355/1/415 424/1/359 349/1/358 348/1/401
f 419/1/419 425/1/254 426/1/257
f 421/1/266 423/1/423 428/1/429
f 422/1/422 427/1/424 428/1/429
f 422/1/422 428/1/429 423/1/423
f 424/1/359 430/1/255 425/1/254 416/1/360
f 429/1/427 433/1/430 431/1/256 430/1/255
f 118/1/333 123/1/222 122/1/221 119/1/334
f 426/1/257 431/1/256 432/1/431
f 429/1/427 362/1/97 433/1/430
f 431/1/256 433/1/430 432/1/431
f 377/1/296 338/1/241 434/1/324
f 377/1/296 435/1/238 338/1/241
f 220/1/190 257/1/191 234/1/176 228/1/179
