# Blender 4.3.2
# www.blender.org
o hair.083
v 7.041198 0.611463 0.000642
v 7.029723 0.609966 0.000746
v 7.040075 0.605402 -0.000905
v 7.039073 0.599687 -0.002671
v 7.037196 0.594664 -0.004876
v 7.034653 0.590329 -0.007615
v 7.031655 0.586677 -0.010986
v 7.028621 0.583920 -0.014228
v 7.025969 0.582267 -0.016578
v 7.023182 0.581179 -0.018586
v 7.019742 0.580118 -0.020799
v 7.015943 0.579258 -0.022777
v 7.010146 0.578542 -0.024815
v 7.005411 0.610083 0.000783
v 7.005411 0.578462 -0.025115
v 7.000676 0.578542 -0.024815
v 6.981098 0.609966 0.000746
v 6.994878 0.579258 -0.022777
v 6.991079 0.580118 -0.020799
v 6.987639 0.581179 -0.018586
v 6.984852 0.582267 -0.016578
v 6.982200 0.583920 -0.014228
v 6.979166 0.586677 -0.010986
v 6.976168 0.590329 -0.007615
v 6.969623 0.611463 0.000642
v 6.970747 0.605402 -0.000905
v 6.973625 0.594664 -0.004876
v 6.971748 0.599687 -0.002671
v 7.001958 0.657457 -0.004989
v 6.997531 0.655270 -0.010477
v 7.001434 0.657562 -0.003923
v 7.005411 0.658166 -0.000743
v 7.002749 0.657430 -0.005553
v 6.996143 0.655545 -0.008117
v 6.994162 0.652391 -0.014429
v 6.999200 0.655114 -0.012048
v 6.995059 0.655873 -0.005077
v 7.000912 0.657657 -0.002853
v 7.003543 0.657377 -0.006110
v 7.001102 0.655060 -0.013043
v 6.992105 0.652875 -0.011068
v 6.990576 0.648324 -0.018293
v 6.996555 0.652065 -0.016638
v 6.990623 0.653342 -0.007127
v 6.999259 0.651883 -0.018043
v 6.994694 0.656143 -0.002634
v 7.000752 0.657775 -0.001648
v 7.004477 0.657378 -0.006274
v 7.003207 0.655002 -0.013625
v 6.987750 0.648916 -0.014003
v 6.997299 0.647482 -0.022949
v 6.993766 0.647828 -0.021120
v 7.002257 0.651760 -0.018943
v 7.000596 0.657893 -0.000444
v 6.994617 0.656410 0.000052
v 7.005411 0.657362 -0.006430
v 7.005411 0.654983 -0.013821
v 7.005411 0.651731 -0.019281
v 6.995800 0.643050 -0.026321
v 7.001252 0.647163 -0.024103
v 6.991680 0.643458 -0.024212
v 6.987995 0.643944 -0.020895
v 7.005411 0.647023 -0.024528
v 7.000787 0.658009 0.000735
v 7.006345 0.657378 -0.006274
v 7.007615 0.655002 -0.013625
v 7.008564 0.651760 -0.018943
v 7.000467 0.642705 -0.027663
v 7.005411 0.642548 -0.028146
v 7.009569 0.647163 -0.024103
v 7.009719 0.655060 -0.013043
v 7.007278 0.657377 -0.006110
v 7.011563 0.651883 -0.018043
v 7.013522 0.647482 -0.022949
v 6.994602 0.638733 -0.028805
v 6.999838 0.638384 -0.030206
v 7.005411 0.638225 -0.030660
v 7.010354 0.642705 -0.027663
v 7.015022 0.643050 -0.026321
v 7.011621 0.655114 -0.012048
v 7.008072 0.657430 -0.005553
v 7.014266 0.652065 -0.016638
v 7.017055 0.647828 -0.021120
v 6.999352 0.634025 -0.031969
v 7.016220 0.638733 -0.028805
v 7.010983 0.638384 -0.030206
v 7.019142 0.643458 -0.024212
v 7.013290 0.655270 -0.010477
v 7.016659 0.652391 -0.014429
v 7.008863 0.657457 -0.004989
v 7.020246 0.648324 -0.018293
v 7.022827 0.643944 -0.020895
v 6.990056 0.639138 -0.026410
v 6.986014 0.639631 -0.022687
v 7.011469 0.634025 -0.031969
v 7.018716 0.652875 -0.011068
v 7.014678 0.655545 -0.008117
v 7.009387 0.657562 -0.003923
v 7.023071 0.648916 -0.014003
v 6.988759 0.634762 -0.027957
v 6.993665 0.634349 -0.030529
v 6.984645 0.644528 -0.015956
v 7.005411 0.633886 -0.032408
v 7.020198 0.653342 -0.007127
v 7.026176 0.644528 -0.015956
v 7.025146 0.649448 -0.008963
v 6.992798 0.629362 -0.031899
v 6.998896 0.629083 -0.033386
v 7.005411 0.628973 -0.033825
v 6.985675 0.649448 -0.008963
v 7.024807 0.639631 -0.022687
v 6.998459 0.623777 -0.034482
v 7.005411 0.623702 -0.034983
v 7.012362 0.623777 -0.034482
v 7.011926 0.629083 -0.033386
v 6.984604 0.649906 -0.003957
v 6.989903 0.653726 -0.003242
v 7.017157 0.634349 -0.030529
v 7.018023 0.629362 -0.031899
v 7.020765 0.639138 -0.026410
v 7.005411 0.618251 -0.035711
v 6.980811 0.645583 -0.004443
v 6.980447 0.646054 0.001309
v 6.984302 0.650346 0.001035
v 6.989747 0.654102 0.000592
v 7.022063 0.634762 -0.027957
v 6.982095 0.645109 -0.010202
v 6.977608 0.641745 0.001354
v 6.980648 0.646634 0.007108
v 6.984528 0.650830 0.006088
v 6.990003 0.654449 0.004420
v 6.994860 0.656577 0.002695
v 6.982281 0.640251 -0.017316
v 6.979419 0.640858 -0.011100
v 6.981719 0.647328 0.013022
v 6.985703 0.651319 0.011113
v 6.990909 0.654822 0.008195
v 6.995490 0.656834 0.005285
v 7.000981 0.658124 0.001914
v 6.984445 0.635286 -0.023982
v 6.980506 0.635947 -0.018346
v 6.978012 0.641310 -0.004857
v 6.988238 0.651757 0.015937
v 6.992735 0.655202 0.011848
v 6.996646 0.657086 0.007827
v 7.001549 0.658218 0.002874
v 6.983049 0.630289 -0.025046
v 6.987583 0.629758 -0.029195
v 6.976158 0.637045 -0.005246
v 6.991440 0.652114 0.019966
v 6.995043 0.655478 0.014925
v 6.998125 0.657300 0.009983
v 7.002122 0.658295 0.003831
v 6.991995 0.623998 -0.032936
v 6.986561 0.624326 -0.030113
v 6.977529 0.636589 -0.011830
v 6.997358 0.655633 0.016994
v 6.999696 0.657444 0.011426
v 7.002856 0.658370 0.004347
v 6.991391 0.618484 -0.033648
v 6.985789 0.618762 -0.030734
v 6.981886 0.624805 -0.025838
v 6.980997 0.619197 -0.026382
v 6.998131 0.618311 -0.035243
v 6.975925 0.631657 -0.012514
v 7.001415 0.657584 0.012338
v 7.003592 0.658413 0.004862
v 6.985345 0.613357 -0.031105
v 6.977660 0.625479 -0.019939
v 6.978963 0.630978 -0.019234
v 6.997993 0.612889 -0.035681
v 7.004502 0.658432 0.005050
v 6.999815 0.655723 0.018261
v 7.003356 0.657672 0.012882
v 6.991107 0.613049 -0.034071
v 7.005411 0.658450 0.005240
v 7.005411 0.657724 0.013066
v 6.997993 0.652520 0.024252
v 7.002545 0.655805 0.018937
v 7.005411 0.655843 0.019128
v 6.974529 0.626171 -0.013126
v 6.973179 0.626706 -0.006169
v 6.974566 0.632165 -0.005685
v 6.991082 0.607611 -0.034109
v 7.001631 0.652666 0.025107
v 6.994644 0.652353 0.022640
v 6.973394 0.620531 -0.013637
v 6.973804 0.632770 0.000997
v 6.975575 0.637565 0.001241
v 7.005411 0.652734 0.025347
v 7.000917 0.649195 0.029483
v 6.996566 0.648971 0.028460
v 6.988531 0.648472 0.023644
v 6.992512 0.648670 0.026649
v 6.975806 0.638050 0.007645
v 6.977744 0.642301 0.007566
v 6.995340 0.644554 0.031751
v 7.009190 0.652666 0.025107
v 7.008276 0.655805 0.018937
v 7.007465 0.657672 0.012882
v 6.984795 0.647880 0.019123
v 6.990789 0.644186 0.029645
v 6.978868 0.642946 0.013942
v 7.009904 0.649195 0.029483
v 7.014256 0.648971 0.028460
v 7.012828 0.652520 0.024252
v 7.011006 0.655723 0.018261
v 7.006320 0.658432 0.005050
v 6.986495 0.643621 0.026811
v 6.981982 0.643301 0.020357
v 7.005411 0.649287 0.029798
v 7.016178 0.652353 0.022640
v 7.013463 0.655633 0.016994
v 7.009406 0.657584 0.012338
v 7.011126 0.657444 0.011426
v 6.979979 0.639329 0.020500
v 6.984453 0.639753 0.026505
v 7.019382 0.652114 0.019966
v 7.015779 0.655478 0.014925
v 7.012697 0.657300 0.009983
v 7.007966 0.658370 0.004347
v 6.990015 0.641168 0.030873
v 6.976724 0.638791 0.014135
v 6.982620 0.635612 0.025709
v 6.985932 0.640590 0.027626
v 7.018086 0.655202 0.011848
v 7.014175 0.657086 0.007827
v 7.007229 0.658413 0.004862
v 6.973946 0.633293 0.007521
v 6.974823 0.634070 0.013974
v 6.985485 0.637933 0.027958
v 6.989612 0.638390 0.031429
v 6.972376 0.627342 0.000614
v 6.972299 0.627953 0.007205
v 6.978079 0.634845 0.020095
v 6.985250 0.635235 0.028108
v 6.994338 0.638726 0.033994
v 6.989355 0.635577 0.031740
v 6.994712 0.641555 0.033225
v 7.008699 0.658295 0.003831
v 6.976130 0.629504 0.019568
v 6.980679 0.630227 0.024862
v 6.985081 0.632614 0.028143
v 6.999940 0.641801 0.034529
v 7.000285 0.644811 0.032942
v 7.009272 0.658218 0.002874
v 6.972759 0.628823 0.013684
v 6.978891 0.624415 0.024177
v 6.989219 0.632828 0.031848
v 6.984938 0.630159 0.028090
v 6.989183 0.630266 0.031790
v 7.005411 0.644911 0.033306
v 7.015331 0.656834 0.005285
v 7.009840 0.658124 0.001914
v 6.971083 0.623399 0.013265
v 6.994010 0.632980 0.034597
v 6.994106 0.635826 0.034434
v 6.984809 0.627786 0.027993
v 7.010035 0.658009 0.000735
v 6.974083 0.623996 0.019218
v 6.999591 0.635953 0.035871
v 6.999724 0.638928 0.035380
v 6.989417 0.627805 0.031294
v 7.010536 0.644811 0.032942
v 7.015481 0.644554 0.031751
v 6.972520 0.618844 0.018913
v 6.977522 0.618995 0.023866
v 7.005411 0.638997 0.035774
v 7.005411 0.641892 0.034913
v 6.994295 0.627824 0.033954
v 6.994044 0.630342 0.034528
v 7.010881 0.641801 0.034529
v 7.018310 0.648670 0.026649
v 6.970758 0.622552 0.006859
v 6.969381 0.618415 0.012976
v 6.976632 0.613813 0.023883
v 6.999577 0.630368 0.035966
v 6.999717 0.627845 0.035335
v 6.999543 0.633037 0.036051
v 7.020032 0.644186 0.029645
v 7.022290 0.648472 0.023644
v 6.971106 0.621828 0.000257
v 7.005411 0.627856 0.035705
v 7.005411 0.633041 0.036450
v 7.005411 0.630369 0.036355
v 7.005411 0.635987 0.036271
v 7.020806 0.641168 0.030873
v 7.024327 0.643621 0.026811
v 7.022583 0.651757 0.015937
v 7.011245 0.630368 0.035966
v 7.011104 0.627845 0.035335
v 7.011230 0.635953 0.035871
v 7.011279 0.633037 0.036051
v 7.011097 0.638928 0.035380
v 7.025119 0.651319 0.011113
v 7.019912 0.654822 0.008195
v 6.972003 0.621115 -0.006591
v 7.016526 0.627824 0.033954
v 7.016811 0.632980 0.034597
v 7.016483 0.638726 0.033994
v 7.016109 0.641555 0.033225
v 6.971042 0.615813 -0.006835
v 6.970144 0.616624 0.000132
v 6.969442 0.617520 0.006653
v 7.016777 0.630342 0.034528
v 7.021638 0.630266 0.031790
v 7.021405 0.627805 0.031294
v 7.015962 0.656577 0.002695
v 6.968338 0.612558 0.006799
v 7.026012 0.627786 0.027993
v 7.021210 0.638390 0.031429
v 7.024889 0.640590 0.027626
v 7.016204 0.656410 0.000052
v 7.010226 0.657893 -0.000444
v 7.020818 0.654449 0.004420
v 7.025883 0.630159 0.028090
v 7.025337 0.637933 0.027958
v 7.026026 0.647880 0.019123
v 7.028839 0.643301 0.020357
v 7.026368 0.639753 0.026505
v 7.010069 0.657775 -0.001648
v 7.009909 0.657657 -0.002853
v 7.021075 0.654102 0.000592
v 7.025741 0.632614 0.028143
v 7.021602 0.632828 0.031848
v 7.025571 0.635235 0.028108
v 7.030842 0.639329 0.020500
v 7.028202 0.635612 0.025709
v 7.015762 0.655873 -0.005077
v 7.016127 0.656143 -0.002634
v 7.021467 0.635577 0.031740
v 7.016715 0.635826 0.034434
v 7.029102 0.647328 0.013022
v 7.020918 0.653726 -0.003242
v 7.031953 0.642946 0.013942
v 7.030173 0.646634 0.007108
v 7.026294 0.650830 0.006088
v 7.026217 0.649906 -0.003957
v 7.026520 0.650346 0.001035
v 7.033077 0.642301 0.007566
v 7.035016 0.638050 0.007645
v 7.034098 0.638791 0.014135
v 7.033214 0.641745 0.001354
v 7.030375 0.646054 0.001309
v 7.030010 0.645583 -0.004443
v 7.028726 0.645109 -0.010202
v 7.035999 0.634070 0.013974
v 7.035246 0.637565 0.001241
v 7.034663 0.637045 -0.005246
v 7.032810 0.641310 -0.004857
v 7.032742 0.634845 0.020095
v 7.031403 0.640858 -0.011100
v 7.028541 0.640251 -0.017316
v 7.037017 0.632770 0.000997
v 7.034691 0.629504 0.019568
v 7.030143 0.630227 0.024862
v 7.030315 0.635947 -0.018346
v 7.033292 0.636589 -0.011830
v 7.026376 0.635286 -0.023982
v 7.036875 0.633293 0.007521
v 7.031930 0.624415 0.024177
v 7.031858 0.630978 -0.019234
v 7.027772 0.630289 -0.025046
v 7.034896 0.631657 -0.012514
v 7.023238 0.629758 -0.029195
v 7.038523 0.627953 0.007205
v 7.038063 0.628823 0.013684
v 7.033162 0.625479 -0.019939
v 7.028935 0.624805 -0.025838
v 7.024261 0.624326 -0.030113
v 7.036255 0.632165 -0.005685
v 7.018826 0.623998 -0.032936
v 7.038445 0.627342 0.000614
v 7.037642 0.626706 -0.006169
v 7.036738 0.623996 0.019218
v 7.039739 0.623399 0.013265
v 7.029825 0.619197 -0.026382
v 7.019430 0.618484 -0.033648
v 7.012691 0.618311 -0.035243
v 7.039716 0.621828 0.000257
v 7.038301 0.618844 0.018913
v 7.040063 0.622552 0.006859
v 7.041440 0.618415 0.012976
v 7.033299 0.618995 0.023866
v 7.036292 0.626171 -0.013126
v 7.012828 0.612889 -0.035681
v 7.005411 0.612846 -0.036148
v 7.034190 0.613813 0.023883
v 7.039605 0.613785 0.019068
v 7.041379 0.617520 0.006653
v 7.037426 0.620530 -0.013637
v 7.034185 0.619840 -0.020470
v 7.038819 0.621115 -0.006591
v 7.005411 0.607413 -0.036190
v 6.997993 0.607448 -0.035723
v 7.040442 0.608578 0.019784
v 7.034538 0.608716 0.024178
v 7.042708 0.613414 0.013008
v 7.034921 0.614437 -0.020852
v 7.039779 0.615813 -0.006835
v 7.040678 0.616624 0.000132
v 6.998075 0.601933 -0.035292
v 7.034219 0.603687 0.024688
v 7.042483 0.612558 0.006799
v 7.043912 0.608139 0.013744
v 7.041198 0.611463 0.000642
v 7.040268 0.610456 -0.007154
v 7.038656 0.609735 -0.014317
v 7.038281 0.615127 -0.014020
v 7.040595 0.603271 0.020933
v 7.039600 0.598042 0.022099
v 7.033105 0.598706 0.025349
v 7.043566 0.607410 0.007552
v 7.044399 0.602659 0.014967
v 7.040075 0.605402 -0.000905
v 7.041252 0.606681 0.002034
v 7.040021 0.604758 -0.007813
v 7.031013 0.593723 0.026149
v 7.037578 0.593198 0.023308
v 7.043546 0.597258 0.016449
v 7.043992 0.602090 0.008880
v 7.039073 0.599687 -0.002671
v 7.041387 0.601850 0.003778
v 7.039060 0.599186 -0.008736
v 7.037451 0.598774 -0.014769
v 7.038348 0.604166 -0.014568
v 7.034505 0.589027 0.024412
v 7.027761 0.588688 0.027080
v 7.041459 0.592552 0.018122
v 7.043408 0.596638 0.010660
v 7.037401 0.594190 -0.009832
v 7.037196 0.594664 -0.004876
v 7.040494 0.596939 0.006225
v 7.034853 0.603525 -0.020956
v 7.035200 0.609058 -0.021031
v 7.028210 0.584350 0.026501
v 7.032309 0.585445 0.024650
v 7.023928 0.583626 0.028073
v 7.041491 0.591787 0.013090
v 7.038668 0.588874 0.020130
v 7.034653 0.590329 -0.007615
v 7.038634 0.592465 0.009502
v 7.030616 0.608456 -0.026781
v 7.030425 0.613819 -0.026722
v 7.028294 0.584786 0.023271
v 7.031555 0.585197 0.022624
v 7.038742 0.588670 0.016154
v 7.035655 0.586987 0.022494
v 7.034186 0.586190 0.020412
v 7.035868 0.588946 0.013739
v 7.025476 0.613357 -0.031105
v 7.025032 0.618762 -0.030734
v 7.032367 0.586389 0.018486
v 7.025575 0.607959 -0.031132
v 7.019740 0.607611 -0.034109
v 7.019714 0.613049 -0.034071
v 7.025305 0.602437 -0.030718
v 7.012829 0.607448 -0.035723
v 7.019569 0.602100 -0.033664
v 7.012746 0.601933 -0.035292
v 7.030274 0.602921 -0.026480
v 7.029586 0.597551 -0.025814
v 7.024784 0.597057 -0.029857
v 7.019232 0.596707 -0.032727
v 7.005411 0.601891 -0.035777
v 7.012583 0.596505 -0.034362
v 7.005411 0.596440 -0.034870
v 7.034042 0.598176 -0.020636
v 7.024125 0.592062 -0.028536
v 7.028732 0.592646 -0.024770
v 7.032929 0.593315 -0.020073
v 7.012340 0.591314 -0.032900
v 7.018760 0.591605 -0.031284
v 7.036058 0.593890 -0.014916
v 7.027495 0.588209 -0.023257
v 7.023161 0.587489 -0.026637
v 7.018014 0.586836 -0.029181
v 7.034119 0.589637 -0.015005
v 7.031315 0.588964 -0.019237
v 6.991252 0.602100 -0.033664
v 6.991589 0.596707 -0.032727
v 6.998238 0.596505 -0.034362
v 7.035342 0.590093 -0.011018
v 7.021735 0.583417 -0.024061
v 7.029017 0.585196 -0.018096
v 6.985516 0.602437 -0.030718
v 6.985247 0.607959 -0.031132
v 6.998481 0.591314 -0.032900
v 7.005411 0.591209 -0.033425
v 7.033200 0.587238 -0.012242
v 7.031655 0.586677 -0.010986
v 6.980206 0.608456 -0.026781
v 6.980397 0.613819 -0.026722
v 7.011815 0.586289 -0.030661
v 7.005411 0.586254 -0.031251
v 7.028621 0.583920 -0.014228
v 7.031591 0.586148 -0.014993
v 6.975901 0.614437 -0.020852
v 6.976636 0.619840 -0.020470
v 7.017216 0.582480 -0.026282
v 7.011206 0.581757 -0.027434
v 7.025969 0.582267 -0.016578
v 7.023182 0.581179 -0.018586
v 7.025671 0.584299 -0.021207
v 7.015943 0.579258 -0.022777
v 7.010146 0.578542 -0.024815
v 7.005411 0.581464 -0.028201
v 7.019742 0.580118 -0.020799
v 6.972540 0.615127 -0.014020
v 7.005411 0.578462 -0.025115
v 7.000676 0.578542 -0.024815
v 6.999616 0.581757 -0.027434
v 6.999007 0.586289 -0.030661
v 6.972165 0.609735 -0.014317
v 6.975621 0.609058 -0.021031
v 6.970553 0.610456 -0.007154
v 6.969623 0.611463 0.000642
v 6.993606 0.582480 -0.026282
v 6.994878 0.579258 -0.022777
v 6.992807 0.586836 -0.029181
v 6.992062 0.591605 -0.031284
v 6.975969 0.603525 -0.020956
v 6.980547 0.602921 -0.026480
v 6.989087 0.583417 -0.024061
v 6.991079 0.580118 -0.020799
v 6.987660 0.587489 -0.026637
v 6.986696 0.592062 -0.028536
v 6.986038 0.597057 -0.029857
v 6.981235 0.597551 -0.025814
v 6.968113 0.613414 0.013008
v 6.967256 0.607410 0.007552
v 6.966909 0.608139 0.013744
v 6.987639 0.581179 -0.018586
v 6.983326 0.588209 -0.023257
v 6.985151 0.584299 -0.021207
v 6.982089 0.592646 -0.024770
v 6.976779 0.598176 -0.020636
v 6.977892 0.593315 -0.020073
v 6.971216 0.613785 0.019068
v 6.970747 0.605402 -0.000905
v 6.969569 0.606681 0.002034
v 6.981804 0.585196 -0.018096
v 6.984852 0.582267 -0.016578
v 6.973371 0.598774 -0.014769
v 6.972474 0.604166 -0.014568
v 6.970379 0.608578 0.019784
v 6.970800 0.604758 -0.007813
v 6.971748 0.599687 -0.002671
v 6.966830 0.602090 0.008880
v 6.969434 0.601851 0.003778
v 6.982200 0.583920 -0.014228
v 6.976283 0.608716 0.024178
v 6.976603 0.603687 0.024688
v 6.970227 0.603271 0.020933
v 6.966423 0.602659 0.014967
v 6.971762 0.599186 -0.008736
v 6.973420 0.594190 -0.009832
v 6.973625 0.594664 -0.004876
v 6.967413 0.596638 0.010660
v 6.970327 0.596939 0.006225
v 6.971221 0.598042 0.022099
v 6.977716 0.598706 0.025349
v 6.967275 0.597258 0.016449
v 6.974763 0.593890 -0.014916
v 6.976168 0.590329 -0.007615
v 6.969331 0.591787 0.013090
v 6.972188 0.592465 0.009502
v 6.979808 0.593723 0.026149
v 6.973243 0.593198 0.023308
v 6.969362 0.592552 0.018122
v 6.976702 0.589637 -0.015005
v 6.979506 0.588964 -0.019237
v 6.975479 0.590093 -0.011018
v 6.977621 0.587238 -0.012242
v 6.979166 0.586677 -0.010986
v 6.974953 0.588946 0.013739
v 6.972079 0.588670 0.016154
v 6.976316 0.589027 0.024412
v 6.983060 0.588688 0.027080
v 6.979230 0.586148 -0.014993
v 6.978455 0.586389 0.018486
v 6.972154 0.588874 0.020130
v 6.976635 0.586190 0.020412
v 6.978513 0.585445 0.024650
v 6.982611 0.584350 0.026501
v 6.986893 0.583626 0.028073
v 6.982527 0.584786 0.023271
v 6.979266 0.585197 0.022624
v 6.975166 0.586987 0.022494
v 6.984809 0.627786 0.027993
v 6.984938 0.630159 0.028090
v 6.987702 0.630852 0.012282
v 6.985081 0.632614 0.028143
v 6.985932 0.640590 0.027626
v 6.986495 0.643621 0.026811
v 6.985250 0.635235 0.028108
v 6.985485 0.637933 0.027958
v 6.982527 0.584786 0.023271
v 6.978455 0.586389 0.018486
v 6.983055 0.585888 0.020400
v 6.986893 0.583626 0.028073
v 6.974953 0.588946 0.013739
v 6.978997 0.590240 0.012807
v 6.980992 0.587504 0.016714
v 6.985024 0.586289 0.021243
v 6.983807 0.588564 0.016545
v 6.985186 0.588229 0.024057
v 6.983747 0.589777 0.025268
v 6.983060 0.588688 0.027080
v 6.985224 0.587923 0.021591
v 6.972188 0.592465 0.009502
v 6.982563 0.591697 0.012833
v 6.984199 0.590395 0.018504
v 6.983286 0.593694 0.015624
v 6.983837 0.591580 0.021375
v 6.979808 0.593723 0.026149
v 6.982123 0.593061 0.023796
v 6.977300 0.593806 0.009135
v 6.976178 0.598025 0.006106
v 6.970327 0.596939 0.006225
v 6.981656 0.595371 0.009708
v 6.982728 0.595390 0.018957
v 6.980769 0.597125 0.022273
v 6.977716 0.598706 0.025349
v 6.969434 0.601851 0.003778
v 6.981111 0.599498 0.006966
v 6.980865 0.603709 0.004675
v 6.975608 0.602428 0.003681
v 6.982605 0.597634 0.012959
v 6.982275 0.602062 0.010531
v 6.981958 0.599705 0.016768
v 6.976603 0.603687 0.024688
v 6.979853 0.601752 0.020792
v 6.975528 0.606506 0.001828
v 6.969569 0.606681 0.002034
v 6.982307 0.606759 0.008580
v 6.981650 0.604536 0.014760
v 6.981877 0.609798 0.013276
v 6.979551 0.606713 0.019464
v 6.976283 0.608716 0.024178
v 6.980920 0.607462 0.003098
v 6.982712 0.611476 0.007406
v 6.979865 0.611992 0.018548
v 6.982713 0.615416 0.012665
v 6.980806 0.617591 0.018294
v 6.976632 0.613813 0.023883
v 6.983563 0.616116 0.006279
v 6.984418 0.621097 0.005711
v 6.983980 0.620876 0.012142
v 6.977522 0.618995 0.023866
v 6.978891 0.624415 0.024177
v 6.982193 0.623158 0.018453
v 6.985477 0.625635 0.012342
v 6.983838 0.628334 0.018784
v 6.980679 0.630227 0.024862
v 6.985247 0.632876 0.019790
v 6.982620 0.635612 0.025709
v 6.984453 0.639753 0.026505
v 6.999717 0.627845 0.035335
v 7.005411 0.634485 0.016380
v 7.005411 0.627856 0.035705
v 6.994295 0.627824 0.033954
v 7.023119 0.630852 0.012282
v 7.016526 0.627824 0.033954
v 7.011104 0.627845 0.035335
v 6.989417 0.627805 0.031294
v 7.026012 0.627786 0.027993
v 7.021405 0.627805 0.031294
v 7.025883 0.630159 0.028090
v 7.025741 0.632614 0.028143
v 7.024327 0.643621 0.026811
v 7.024889 0.640590 0.027626
v 7.025337 0.637933 0.027958
v 7.025571 0.635235 0.028108
v 7.028294 0.584786 0.023271
v 7.027767 0.585888 0.020400
v 7.032367 0.586389 0.018486
v 7.023928 0.583626 0.028073
v 7.029830 0.587504 0.016714
v 7.025797 0.586289 0.021243
v 7.027015 0.588564 0.016545
v 7.031824 0.590240 0.012807
v 7.035868 0.588946 0.013739
v 7.027074 0.589777 0.025268
v 7.025636 0.588229 0.024057
v 7.027761 0.588688 0.027080
v 7.025598 0.587923 0.021591
v 7.028258 0.591697 0.012833
v 7.026622 0.590395 0.018504
v 7.027535 0.593694 0.015624
v 7.038634 0.592465 0.009502
v 7.029166 0.595371 0.009708
v 7.033522 0.593806 0.009135
v 7.026984 0.591580 0.021375
v 7.031013 0.593723 0.026149
v 7.028698 0.593061 0.023796
v 7.028093 0.595390 0.018957
v 7.028863 0.599705 0.016768
v 7.028216 0.597634 0.012959
v 7.034643 0.598025 0.006106
v 7.040494 0.596939 0.006225
v 7.029711 0.599498 0.006966
v 7.028546 0.602062 0.010531
v 7.030053 0.597125 0.022273
v 7.033105 0.598706 0.025349
v 7.030968 0.601752 0.020792
v 7.031271 0.606713 0.019464
v 7.029171 0.604536 0.014760
v 7.041387 0.601850 0.003778
v 7.029957 0.603709 0.004675
v 7.035213 0.602428 0.003681
v 7.028514 0.606759 0.008580
v 7.028944 0.609798 0.013276
v 7.034219 0.603687 0.024688
v 7.034538 0.608716 0.024178
v 7.034190 0.613813 0.023883
v 7.030957 0.611992 0.018548
v 7.035294 0.606506 0.001828
v 7.041252 0.606681 0.002034
v 7.029902 0.607462 0.003098
v 7.028109 0.611476 0.007406
v 7.028108 0.615416 0.012665
v 7.030015 0.617591 0.018294
v 7.033299 0.618995 0.023866
v 7.026842 0.620876 0.012142
v 7.027258 0.616116 0.006279
v 7.031930 0.624415 0.024177
v 7.028627 0.623158 0.018453
v 7.026403 0.621097 0.005711
v 7.026984 0.628334 0.018784
v 7.025344 0.625635 0.012342
v 7.030143 0.630227 0.024862
v 7.025574 0.632876 0.019790
v 7.028202 0.635612 0.025709
v 7.026368 0.639753 0.026505
vn 0.1396 -0.9630 -0.2307
vn -0.6329 -0.7199 0.2849
vn 0.0295 -0.2802 0.9595
vn -0.0479 -0.3541 0.9340
vn -0.1809 -0.4158 0.8913
vn -0.3407 -0.4394 0.8311
vn -0.4304 -0.4343 0.7913
vn -0.4324 -0.4356 0.7895
vn -0.4086 -0.4435 0.7977
vn -0.3845 -0.4528 0.8044
vn -0.3318 -0.4767 0.8141
vn -0.2478 -0.5166 0.8196
vn -0.0697 -0.6050 0.7931
vn 0.9462 -0.2441 0.2124
vn 0.8573 -0.2627 0.4428
vn 0.8752 -0.1731 0.4517
vn 0.9571 -0.1586 0.2424
vn -0.0000 -0.6309 0.7759
vn 0.0697 -0.6050 0.7931
vn 0.6329 -0.7199 0.2849
vn 0.2478 -0.5166 0.8196
vn 0.3318 -0.4767 0.8141
vn 0.3845 -0.4528 0.8044
vn 0.4086 -0.4435 0.7977
vn 0.4324 -0.4356 0.7895
vn 0.4304 -0.4343 0.7913
vn 0.3407 -0.4394 0.8311
vn -0.1396 -0.9630 -0.2307
vn -0.0295 -0.2802 0.9595
vn 0.1809 -0.4158 0.8913
vn 0.0479 -0.3541 0.9340
vn 0.1331 0.9781 -0.1599
vn 0.2986 0.9221 -0.2462
vn 0.2531 0.9167 -0.3091
vn 0.1255 0.9741 -0.1881
vn -0.1255 0.9741 -0.1881
vn -0.1331 0.9781 -0.1599
vn -0.0000 0.9955 -0.0949
vn 0.0894 0.9761 -0.1981
vn 0.1935 0.9123 -0.3609
vn -0.0894 0.9761 -0.1981
vn 0.4372 0.8401 -0.3210
vn 0.3641 0.8320 -0.4186
vn -0.9045 0.4042 0.1358
vn -0.9346 0.3082 0.1778
vn -0.9838 0.1307 -0.1228
vn -0.9755 0.1655 -0.1452
vn 0.2696 0.8223 -0.5011
vn -0.1542 0.9783 -0.1384
vn -0.0625 0.9729 -0.2228
vn 0.1256 0.9103 -0.3945
vn 0.0625 0.9729 -0.2228
vn 0.0862 0.9963 0.0052
vn 0.0586 0.9980 0.0252
vn 0.1187 0.9769 0.1776
vn 0.1796 0.9721 0.1507
vn -0.5712 0.7228 -0.3890
vn -0.6285 0.7307 -0.2667
vn -0.4820 0.8464 -0.2264
vn -0.4372 0.8401 -0.3210
vn 0.3291 0.9262 -0.1840
vn 0.4820 0.8464 -0.2264
vn 0.1751 0.8136 -0.5544
vn 0.8259 -0.1822 0.5336
vn 0.8392 -0.0681 0.5395
vn 0.8877 -0.0526 0.4573
vn 0.1530 0.9815 -0.1147
vn 0.3423 0.9306 -0.1295
vn 0.1542 0.9783 -0.1384
vn -0.1530 0.9815 -0.1147
vn -0.1725 -0.4963 -0.8509
vn -0.0671 -0.5093 -0.8580
vn -0.0968 -0.6326 -0.7684
vn -0.1901 -0.6014 -0.7760
vn -0.0277 0.9749 -0.2210
vn -0.7238 0.1540 -0.6726
vn -0.8363 0.1747 -0.5197
vn -0.8300 0.2294 -0.5084
vn -0.7173 0.2154 -0.6627
vn 0.6285 0.7307 -0.2667
vn 0.5712 0.7228 -0.3890
vn 0.0277 0.9749 -0.2210
vn 0.0610 0.9086 -0.4132
vn -0.4152 0.5877 -0.6945
vn -0.4718 0.4735 -0.7438
vn -0.6319 0.4769 -0.6110
vn -0.5699 0.5869 -0.5751
vn -0.1629 0.9829 -0.0864
vn 0.9173 0.3960 0.0430
vn 0.9428 0.3320 0.0302
vn 0.9494 0.3061 -0.0696
vn 0.9212 0.3846 -0.0580
vn -0.0000 0.9727 -0.2320
vn -0.6622 0.7458 -0.0726
vn -0.5025 0.8614 -0.0735
vn -0.5036 0.8523 -0.1411
vn -0.6571 0.7379 -0.1538
vn 0.3653 0.2197 0.9046
vn 0.3763 0.1128 0.9196
vn 0.5794 0.0992 0.8090
vn 0.5632 0.1909 0.8040
vn 0.3421 0.7113 -0.6141
vn 0.4152 0.5877 -0.6945
vn 0.2556 0.5833 -0.7710
vn 0.2149 0.7023 -0.6787
vn -0.9561 0.2028 0.2113
vn -0.9930 0.0624 -0.1005
vn 0.4740 0.7171 -0.5109
vn 0.5699 0.5869 -0.5751
vn 0.4386 0.8242 0.3583
vn 0.5248 0.8104 0.2604
vn 0.4049 0.8992 0.1660
vn 0.3425 0.9087 0.2386
vn 0.0884 0.8061 -0.5851
vn 0.1056 0.6919 -0.7142
vn -0.0000 0.6875 -0.7262
vn -0.0000 0.8034 -0.5954
vn -0.3410 -0.7331 -0.5884
vn -0.4563 -0.7484 -0.4813
vn -0.4840 -0.6628 -0.5713
vn -0.3415 -0.6569 -0.6722
vn -0.1555 0.9857 -0.0652
vn -0.0000 0.9087 -0.4175
vn -0.0610 0.9086 -0.4132
vn -0.0884 0.8061 -0.5851
vn -0.1187 0.9769 0.1776
vn -0.0618 0.9791 0.1940
vn -0.0294 0.9993 0.0218
vn -0.0586 0.9980 0.0252
vn 0.6349 -0.4841 -0.6021
vn 0.5158 -0.4945 -0.6996
vn 0.5382 -0.3465 -0.7683
vn 0.6765 -0.3298 -0.6584
vn -0.1056 0.6919 -0.7142
vn -0.0000 0.5673 -0.8235
vn -0.1211 0.5731 -0.8105
vn -0.1256 0.9103 -0.3945
vn -0.1751 0.8136 -0.5544
vn -0.2149 0.7023 -0.6787
vn 0.1211 0.5731 -0.8105
vn 0.8337 0.5012 0.2317
vn 0.8687 0.4940 0.0373
vn 0.7823 0.6224 0.0245
vn 0.7386 0.6459 0.1930
vn -0.7905 0.6090 -0.0652
vn -0.7823 0.6224 0.0245
vn -0.6472 0.7623 0.0093
vn -0.0000 0.4414 -0.8973
vn -0.1321 0.4498 -0.8833
vn -0.2556 0.5833 -0.7710
vn -0.3421 0.7113 -0.6141
vn -0.2696 0.8223 -0.5011
vn 0.4718 0.4735 -0.7438
vn 0.2899 0.4648 -0.8366
vn -0.0000 0.5496 0.8355
vn 0.1461 0.5493 0.8228
vn 0.1290 0.7083 0.6940
vn -0.0000 0.7104 0.7038
vn -0.5584 -0.1338 -0.8187
vn -0.5611 -0.0350 -0.8270
vn -0.3460 -0.0385 -0.9374
vn -0.3489 -0.1328 -0.9277
vn -0.2899 0.4648 -0.8366
vn 0.9407 0.2940 -0.1692
vn 0.9126 0.3740 -0.1650
vn -0.1935 0.9123 -0.3609
vn -0.3641 0.8320 -0.4186
vn -0.2531 0.9167 -0.3091
vn -0.4740 0.7171 -0.5109
vn 0.8091 -0.2657 0.5241
vn 0.6319 0.4769 -0.6110
vn -0.1377 0.3343 -0.9324
vn -0.3129 0.3505 -0.8827
vn -0.0000 0.3271 -0.9450
vn 0.1818 -0.7187 -0.6711
vn 0.1730 -0.8145 -0.5537
vn 0.0743 -0.8726 -0.4827
vn 0.0927 -0.7662 -0.6359
vn -0.8350 -0.3307 0.4397
vn -0.9082 -0.3453 0.2364
vn -0.9462 -0.2441 0.2124
vn -0.8573 -0.2627 0.4428
vn -0.6758 0.5909 -0.4405
vn 0.5654 -0.0889 0.8200
vn 0.5829 0.0264 0.8121
vn 0.3783 0.0188 0.9255
vn 0.3697 -0.1315 0.9198
vn -0.3309 0.8311 0.4470
vn -0.4004 0.6967 0.5952
vn -0.2671 0.7027 0.6594
vn -0.2159 0.8365 0.5037
vn 0.6758 0.5909 -0.4405
vn 0.7386 0.4826 -0.4707
vn -0.8392 -0.0681 0.5395
vn -0.8877 -0.0526 0.4573
vn -0.8843 0.0939 0.4573
vn -0.8347 0.0687 0.5464
vn -0.6349 -0.4841 -0.6021
vn -0.7284 -0.4690 -0.4994
vn -0.7817 -0.3128 -0.5396
vn -0.6765 -0.3298 -0.6584
vn -0.9126 0.3740 -0.1650
vn -0.9212 0.3846 -0.0580
vn -0.8711 0.4876 -0.0579
vn -0.8596 0.4852 -0.1603
vn -0.0000 0.2444 -0.9697
vn -0.0000 0.1736 -0.9848
vn -0.1451 0.1780 -0.9733
vn -0.1416 0.2490 -0.9581
vn 0.3256 0.2623 -0.9084
vn 0.3355 0.1899 -0.9227
vn 0.1451 0.1780 -0.9733
vn 0.1416 0.2490 -0.9581
vn -0.5612 0.0606 -0.8255
vn -0.7251 0.0806 -0.6839
vn -0.5588 0.1366 -0.8180
vn 0.7418 0.6010 -0.2976
vn 0.1792 -0.6388 -0.7482
vn -0.0000 -0.6245 -0.7810
vn -0.0000 -0.4856 -0.8742
vn 0.1649 -0.4941 -0.8536
vn -0.9264 0.1908 -0.3248
vn -0.9178 0.2379 -0.3179
vn 0.1461 0.1131 -0.9828
vn -0.0000 0.1090 -0.9940
vn 0.3460 -0.0385 -0.9374
vn 0.3442 0.0498 -0.9376
vn 0.5612 0.0606 -0.8255
vn 0.5611 -0.0350 -0.8270
vn -0.5269 0.3288 0.7837
vn -0.3427 0.3710 0.8631
vn -0.3087 0.5425 0.7813
vn -0.4680 0.5170 0.7167
vn -0.3256 0.2623 -0.9084
vn -0.3355 0.1899 -0.9227
vn 0.9642 0.1706 0.2029
vn 0.9731 0.0593 -0.2224
vn 0.9758 0.1554 -0.1538
vn 0.9545 0.2317 0.1876
vn -0.1461 0.1131 -0.9828
vn 0.1670 0.9234 0.3456
vn 0.0618 0.9791 0.1940
vn 0.0821 0.9262 0.3681
vn 0.7905 0.6090 -0.0652
vn 0.7796 0.6058 -0.1589
vn 0.6571 0.7379 -0.1538
vn 0.6622 0.7458 -0.0726
vn 0.5036 0.8523 -0.1411
vn 0.5025 0.8614 -0.0735
vn 0.3422 0.9367 -0.0746
vn -0.5102 0.3662 -0.7782
vn -0.5333 0.2776 -0.7990
vn -0.6739 0.3764 -0.6358
vn -0.1039 0.8420 0.5294
vn -0.0821 0.9262 0.3681
vn -0.1670 0.9234 0.3456
vn 0.1610 0.2274 0.9604
vn 0.1624 0.1146 0.9801
vn 0.6472 0.7623 0.0093
vn 0.4870 0.8733 -0.0083
vn 0.1629 0.9829 -0.0864
vn 0.8596 0.4852 -0.1603
vn 0.8161 0.4861 -0.3125
vn 0.5981 0.7894 0.1379
vn -0.5426 0.6867 0.4838
vn -0.4386 0.8242 0.3583
vn 0.4542 0.8875 0.0777
vn 0.3351 0.9417 -0.0300
vn 0.3128 0.9497 0.0149
vn 0.1555 0.9857 -0.0652
vn 0.1566 0.9867 -0.0438
vn -0.1566 0.9867 -0.0438
vn 0.9961 -0.0108 -0.0871
vn 0.9694 0.0841 0.2307
vn 0.9561 0.2028 0.2113
vn 0.9930 0.0624 -0.1005
vn 0.6559 0.6632 0.3605
vn 0.2772 0.9584 0.0676
vn -0.1261 0.9918 -0.0202
vn -0.9690 0.2193 -0.1139
vn -0.9642 0.2622 -0.0406
vn -0.9588 0.2842 -0.0001
vn -0.9634 0.2527 -0.0892
vn 0.7010 0.2888 -0.6520
vn 0.6739 0.3764 -0.6358
vn 0.7846 0.3814 -0.4888
vn 0.8141 0.2971 -0.4990
vn 0.5333 0.2776 -0.7990
vn 0.5102 0.3662 -0.7782
vn -0.3653 0.2197 0.9046
vn -0.5632 0.1909 0.8040
vn 0.8711 0.4876 -0.0579
vn -0.9731 0.0593 -0.2224
vn -0.9578 -0.1208 -0.2608
vn -0.9700 0.0184 0.2422
vn -0.9642 0.1706 0.2029
vn 0.2325 0.9661 0.1127
vn -0.9861 -0.1116 -0.1230
vn -0.9669 -0.2347 -0.1002
vn -0.9712 -0.2370 0.0236
vn -0.9908 -0.1317 -0.0298
vn -0.1188 0.9929 -0.0005
vn 0.5496 0.2032 -0.8103
vn 0.7173 0.2154 -0.6627
vn 0.2593 0.9176 0.3014
vn -0.9694 0.0841 0.2307
vn -0.8588 0.2336 0.4560
vn -0.0862 0.9963 0.0052
vn 0.1612 -0.3452 -0.9246
vn -0.0000 -0.3395 -0.9406
vn -0.0000 -0.2190 -0.9757
vn 0.1558 -0.2238 -0.9621
vn 0.5588 0.1366 -0.8180
vn 0.3421 0.1233 -0.9315
vn 0.3129 0.3505 -0.8827
vn -0.8398 0.1055 -0.5325
vn -0.8395 0.0018 -0.5434
vn -0.9389 0.0225 -0.3434
vn -0.9341 0.1260 -0.3341
vn 0.9009 0.2975 -0.3160
vn 0.8701 0.3776 -0.3166
vn 0.9132 -0.1966 -0.3570
vn 0.8816 -0.3171 -0.3497
vn 0.7817 -0.3128 -0.5396
vn 0.8096 -0.1998 -0.5519
vn 0.7238 0.1540 -0.6726
vn 0.7251 0.0806 -0.6839
vn 0.8300 0.2294 -0.5084
vn 0.8363 0.1747 -0.5197
vn -0.1457 0.0455 -0.9883
vn -0.3442 0.0498 -0.9376
vn -0.3421 0.1233 -0.9315
vn 0.1457 0.0455 -0.9883
vn 0.0294 0.9993 0.0218
vn -0.3291 0.9262 -0.1840
vn -0.3423 0.9306 -0.1295
vn -0.0000 0.9995 0.0314
vn -0.3400 -0.4991 -0.7971
vn -0.1649 -0.4941 -0.8536
vn -0.1792 -0.6388 -0.7482
vn 0.2159 0.8365 0.5037
vn 0.1039 0.8420 0.5294
vn -0.5517 -0.2292 -0.8019
vn -0.6991 -0.2166 -0.6815
vn -0.7135 -0.1246 -0.6895
vn -0.7386 0.6459 0.1930
vn -0.6559 0.6632 0.3605
vn -0.5248 0.8104 0.2604
vn -0.5981 0.7894 0.1379
vn 0.1377 0.3343 -0.9324
vn 0.7227 -0.0209 -0.6908
vn 0.9557 0.2388 -0.1720
vn 0.9641 0.1985 -0.1763
vn 0.9264 0.1908 -0.3248
vn 0.9178 0.2379 -0.3179
vn -0.6102 0.2917 0.7366
vn -0.6463 0.1669 0.7446
vn -0.0000 0.8444 0.5357
vn 0.1321 0.4498 -0.8833
vn 0.2671 0.7027 0.6594
vn 0.4004 0.6967 0.5952
vn 0.3309 0.8311 0.4470
vn 0.5426 0.6867 0.4838
vn 0.9712 0.2208 -0.0894
vn 0.9450 0.2596 0.1988
vn 0.3087 0.5425 0.7813
vn 0.4680 0.5170 0.7167
vn -0.0000 0.9272 0.3745
vn -0.0000 0.9800 0.1988
vn 0.6315 0.4869 0.6034
vn 0.3400 -0.4991 -0.7971
vn 0.3488 -0.3523 -0.8685
vn 0.1188 0.9929 -0.0005
vn 0.0798 -0.3656 -0.9273
vn 0.7300 -0.3939 -0.5585
vn 0.6896 -0.3069 -0.6560
vn 0.1419 -0.4189 -0.8969
vn -0.7796 0.6058 -0.1589
vn -0.1290 0.7083 0.6940
vn -0.1419 -0.4189 -0.8969
vn -0.0188 -0.4170 -0.9087
vn 0.5188 -0.7508 -0.4089
vn 0.4563 -0.7484 -0.4813
vn 0.4840 -0.6628 -0.5713
vn 0.5684 -0.6639 -0.4860
vn -0.2593 0.9176 0.3014
vn -0.7010 0.2888 -0.6520
vn -0.8141 0.2971 -0.4990
vn -0.7846 0.3814 -0.4888
vn -0.1796 0.9721 0.1507
vn 0.7646 0.4721 0.4387
vn 0.8047 0.3465 0.4821
vn 0.8850 0.3933 0.2493
vn -0.7646 0.4721 0.4387
vn -0.7711 0.3402 0.5382
vn -0.6315 0.4869 0.6034
vn 0.9045 0.4042 0.1358
vn 0.7706 0.4797 0.4196
vn 0.7327 0.5446 0.4081
vn 0.8901 0.4398 0.1199
vn -0.3425 0.9087 0.2386
vn -0.1721 -0.6989 -0.6942
vn -0.2325 0.9661 0.1127
vn 0.3427 0.3710 0.8631
vn 0.5269 0.3288 0.7837
vn -0.8091 -0.2657 0.5241
vn -0.7890 -0.3331 0.5163
vn -0.4049 0.8992 0.1660
vn 0.8199 -0.4674 -0.3306
vn 0.7284 -0.4690 -0.4994
vn 0.8145 0.2713 0.5129
vn 0.9083 0.3321 0.2542
vn 0.6463 0.1669 0.7446
vn 0.6102 0.2917 0.7366
vn -0.2772 0.9584 0.0676
vn -0.9132 -0.1966 -0.3570
vn -0.9314 -0.0899 -0.3527
vn -0.8282 -0.1059 -0.5503
vn -0.8096 -0.1998 -0.5519
vn -0.8047 0.3465 0.4821
vn -0.8145 0.2713 0.5129
vn -0.7693 0.2672 0.5803
vn -0.7227 -0.0209 -0.6908
vn -0.7023 0.4629 0.5408
vn -0.7706 0.4797 0.4196
vn -0.7327 0.5446 0.4081
vn -0.6220 0.5549 0.5525
vn 0.8080 0.2383 0.5388
vn 0.9233 0.2972 0.2433
vn 0.1562 0.3811 0.9113
vn 0.1261 0.9918 -0.0202
vn 0.7693 0.2672 0.5803
vn 0.7550 0.1960 0.6258
vn 0.6642 0.0309 0.7469
vn 0.6390 -0.0542 0.7673
vn 0.1725 -0.4963 -0.8509
vn 0.7016 -0.3213 -0.6360
vn 0.7085 -0.3472 -0.6145
vn 0.1901 -0.6014 -0.7760
vn -0.1461 0.5493 0.8228
vn -0.3128 0.9497 0.0149
vn 0.7711 0.3402 0.5382
vn 0.3506 -0.2311 -0.9076
vn -0.0000 -0.6851 -0.7284
vn -0.8871 -0.3728 -0.2723
vn -0.9383 -0.1828 0.2937
vn 0.1619 0.0152 0.9867
vn 0.7935 0.2046 0.5732
vn 0.9346 0.2788 0.2210
vn 0.8009 0.2173 0.5579
vn 0.7242 0.1761 0.6667
vn 0.6936 0.1564 0.7032
vn -0.5496 0.2032 -0.8103
vn -0.0000 0.2260 0.9741
vn -0.0000 0.3804 0.9248
vn 0.5517 -0.2292 -0.8019
vn -0.1562 0.3811 0.9113
vn 0.9642 0.2622 -0.0406
vn 0.9930 -0.0819 -0.0849
vn 0.1578 -0.1394 0.9776
vn 0.3578 -0.2379 0.9030
vn 0.1520 -0.2465 0.9572
vn -0.9009 0.2975 -0.3160
vn -0.8701 0.3776 -0.3166
vn 0.9588 0.2842 -0.0001
vn 0.9690 0.2193 -0.1139
vn 0.9634 0.2527 -0.0892
vn -0.1508 -0.1260 -0.9805
vn -0.1471 -0.0362 -0.9885
vn -0.0000 0.0138 0.9999
vn -0.0000 0.1131 0.9936
vn -0.1624 0.1146 0.9801
vn -0.1619 0.0152 0.9867
vn -0.1578 -0.1394 0.9776
vn -0.0000 -0.1413 0.9900
vn -0.0000 -0.2482 0.9687
vn -0.1520 -0.2465 0.9572
vn -0.1610 0.2274 0.9604
vn 0.1508 -0.1260 -0.9805
vn -0.0000 -0.1221 -0.9925
vn -0.0000 -0.0346 -0.9994
vn 0.1471 -0.0362 -0.9885
vn -0.7418 0.6010 -0.2976
vn -0.9879 0.0083 -0.1552
vn -0.3763 0.1128 0.9196
vn -0.3422 0.9367 -0.0746
vn -0.7260 -0.4546 -0.5160
vn -0.7126 -0.3894 -0.5836
vn -0.1818 -0.7187 -0.6711
vn -0.1730 -0.8145 -0.5537
vn 0.8588 0.2336 0.4560
vn 0.8196 0.3630 0.4433
vn 0.9346 0.3082 0.1778
vn -0.3578 -0.2379 0.9030
vn -0.3697 -0.1315 0.9198
vn -0.5654 -0.0889 0.8200
vn -0.5471 -0.1688 0.8199
vn -0.3783 0.0188 0.9255
vn -0.5829 0.0264 0.8121
vn 0.9836 0.0538 -0.1722
vn 0.9771 0.1592 -0.1412
vn -0.6156 -0.1091 0.7804
vn -0.6390 -0.0542 0.7673
vn -0.3351 0.9417 -0.0300
vn -0.4542 0.8875 0.0777
vn -0.4870 0.8733 -0.0083
vn -0.6612 0.0874 0.7451
vn -0.5794 0.0992 0.8090
vn -0.2986 0.9221 -0.2462
vn 0.5149 0.0879 0.8527
vn 0.7079 0.0834 0.7014
vn 0.7458 0.1702 0.6441
vn 0.5892 0.1352 0.7966
vn -0.5684 -0.6639 -0.4860
vn -0.5158 -0.4945 -0.6996
vn -0.6642 0.0309 0.7469
vn -0.8337 0.5012 0.2317
vn -0.8687 0.4940 0.0373
vn -0.7386 0.4826 -0.4707
vn -0.9173 0.3960 0.0430
vn -0.8850 0.3933 0.2493
vn 0.9360 -0.0087 -0.3518
vn -0.9083 0.3321 0.2542
vn -0.9428 0.3320 0.0302
vn 0.9794 -0.1918 -0.0627
vn 0.9848 -0.1665 -0.0494
vn -0.8161 0.4861 -0.3125
vn -0.9494 0.3061 -0.0696
vn -0.9407 0.2940 -0.1692
vn -0.8794 -0.1735 -0.4433
vn -0.7561 -0.4203 -0.5017
vn -0.8080 0.2383 0.5388
vn -0.7550 0.1960 0.6258
vn -0.8009 0.2173 0.5579
vn -0.7242 0.1761 0.6667
vn -0.7085 -0.3472 -0.6145
vn -0.9233 0.2972 0.2433
vn 0.6612 0.0874 0.7451
vn 0.5471 -0.1688 0.8199
vn -0.9557 0.2388 -0.1720
vn -0.9346 0.2788 0.2210
vn -0.1558 -0.2238 -0.9621
vn 0.8282 -0.1059 -0.5503
vn 0.8395 0.0018 -0.5434
vn 0.9389 0.0225 -0.3434
vn 0.9314 -0.0899 -0.3527
vn 0.6156 -0.1091 0.7804
vn 0.8843 0.0939 0.4573
vn 0.8347 0.0687 0.5464
vn 0.8061 0.2052 0.5551
vn -0.7935 0.2046 0.5732
vn -0.6936 0.1564 0.7032
vn -0.0000 0.0444 -0.9990
vn -0.7765 0.1964 0.5988
vn -0.6528 0.1524 0.7421
vn -0.9712 0.2208 -0.0894
vn -0.9771 0.1592 -0.1412
vn -0.7458 0.1702 0.6441
vn -0.5892 0.1352 0.7966
vn -0.9545 0.2317 0.1876
vn -0.9749 0.1350 -0.1771
vn -0.9641 0.1985 -0.1763
vn 0.3489 -0.1328 -0.9277
vn -0.7079 0.0834 0.7014
vn -0.5149 0.0879 0.8527
vn -0.9758 0.1554 -0.1538
vn -0.9450 0.2596 0.1988
vn -0.9836 0.0538 -0.1722
vn -0.6628 -0.0333 0.7481
vn -0.4482 0.0290 0.8934
vn -0.9360 -0.0087 -0.3518
vn 0.6528 0.1524 0.7421
vn 0.7765 0.1964 0.5988
vn 0.6759 -0.7116 -0.1917
vn 0.6374 -0.6721 -0.3768
vn 0.7615 0.3350 0.5548
vn 0.5378 -0.8234 -0.1811
vn 0.2895 -0.8671 -0.4053
vn 0.5313 -0.6769 -0.5095
vn 0.7291 -0.6375 -0.2492
vn 0.6628 -0.0333 0.7481
vn 0.9383 -0.1828 0.2937
vn 0.9700 0.0184 0.2422
vn 0.3962 -0.0507 0.9168
vn 0.5307 -0.1901 0.8260
vn 0.6142 -0.1664 0.7714
vn -0.5307 -0.1901 0.8260
vn -0.4641 -0.7004 0.5422
vn -0.3822 -0.0948 0.9192
vn -0.3962 -0.0507 0.9168
vn 0.8616 -0.3785 0.3381
vn -0.7291 -0.6375 -0.2492
vn -0.8616 -0.3785 0.3381
vn -0.6142 -0.1664 0.7714
vn -0.9700 -0.0453 0.2387
vn -0.9930 -0.0819 -0.0849
vn -0.9961 -0.0108 -0.0871
vn 0.3822 -0.0948 0.9192
vn 0.3689 -0.7392 0.5635
vn 0.4641 -0.7004 0.5422
vn 0.3634 -0.5963 0.7158
vn -0.5313 -0.6769 -0.5095
vn -0.7134 -0.7002 0.0289
vn -0.6030 -0.7787 0.1732
vn -0.7867 -0.5903 0.1807
vn -0.8310 -0.5562 0.0050
vn 0.7382 -0.5585 0.3783
vn -0.9187 -0.3899 -0.0625
vn -0.9103 -0.4068 0.0764
vn 0.1442 -0.9825 -0.1180
vn -0.5378 -0.8234 -0.1811
vn -0.2895 -0.8671 -0.4053
vn 0.6348 -0.6587 0.4039
vn -0.3294 -0.9345 -0.1347
vn -0.6348 -0.6587 0.4039
vn -0.7382 -0.5585 0.3783
vn -0.2119 -0.9696 -0.1227
vn 0.5584 -0.1338 -0.8187
vn 0.2119 -0.9696 -0.1227
vn 0.1721 -0.9402 -0.2940
vn 0.3294 -0.9345 -0.1347
vn 0.8398 0.1055 -0.5325
vn -0.3506 -0.2311 -0.9076
vn -0.5382 -0.3465 -0.7683
vn -0.3488 -0.3523 -0.8685
vn -0.8816 -0.3171 -0.3497
vn -0.1612 -0.3452 -0.9246
vn -0.8199 -0.4674 -0.3306
vn 0.9749 0.1350 -0.1771
vn 0.0188 -0.4170 -0.9087
vn -0.0261 -0.3271 -0.9446
vn -0.6374 -0.6721 -0.3768
vn -0.6759 -0.7116 -0.1917
vn -0.9794 -0.1918 -0.0627
vn -0.9848 -0.1665 -0.0494
vn -0.9571 -0.1586 0.2424
vn 0.8310 -0.5562 0.0050
vn 0.7134 -0.7002 0.0289
vn 0.7135 -0.1246 -0.6895
vn 0.5887 -0.8001 -0.1155
vn 0.9341 0.1260 -0.3341
vn 0.5778 -0.7556 -0.3084
vn -0.5188 -0.7508 -0.4089
vn -0.5778 -0.7556 -0.3084
vn 0.4482 0.0290 0.8934
vn 0.1721 -0.6989 -0.6942
vn 0.9879 0.0083 -0.1552
vn 0.3415 -0.6569 -0.6722
vn 0.3410 -0.7331 -0.5884
vn 0.6991 -0.2166 -0.6815
vn -0.7615 0.3350 0.5548
vn -0.8196 0.3630 0.4433
vn 0.9861 -0.1116 -0.1230
vn 0.9669 -0.2347 -0.1002
vn 0.9712 -0.2370 0.0236
vn 0.9908 -0.1317 -0.0298
vn -0.5887 -0.8001 -0.1155
vn 0.7126 -0.3894 -0.5836
vn 0.9578 -0.1208 -0.2608
vn 0.9187 -0.3899 -0.0625
vn 0.9103 -0.4068 0.0764
vn 0.8871 -0.3728 -0.2723
vn 0.7561 -0.4203 -0.5017
vn 0.8794 -0.1735 -0.4433
vn -0.7535 -0.4011 0.5208
vn -0.8457 -0.3201 0.4270
vn -0.8752 -0.1731 0.4517
vn 0.7867 -0.5903 0.1807
vn 0.6030 -0.7787 0.1732
vn 0.1569 -0.9562 -0.2472
vn 0.1884 -0.9635 -0.1901
vn 0.5960 -0.7905 0.1409
vn -0.0000 -0.9709 -0.2394
vn -0.3689 -0.7392 0.5635
vn -0.3634 -0.5963 0.7158
vn -0.1442 -0.9825 -0.1180
vn -0.1721 -0.9402 -0.2940
vn -0.5032 -0.8261 -0.2538
vn -0.9837 0.0606 -0.1693
vn -0.9837 0.0610 -0.1693
vn -0.9716 0.1323 -0.1960
vn -0.7636 -0.5151 0.3893
vn -0.9827 0.0695 -0.1715
vn -0.9753 0.1135 -0.1892
vn 0.1003 -0.9349 -0.3404
vn 0.2092 -0.8804 -0.4256
vn 0.9994 -0.0340 -0.0036
vn -0.0927 -0.7662 -0.6359
vn -0.0743 -0.8726 -0.4827
vn 0.7569 -0.5012 -0.4193
vn 0.7260 -0.4546 -0.5160
vn 0.6220 0.5549 0.5525
vn 0.9733 0.1661 -0.1586
vn -0.8901 0.4398 0.1199
vn 0.9755 0.1655 -0.1452
vn -0.7016 -0.3213 -0.6360
vn -0.9733 0.1661 -0.1586
vn -0.7569 -0.5012 -0.4193
vn -0.6896 -0.3069 -0.6560
vn -0.8061 0.2052 0.5551
vn -0.7300 -0.3939 -0.5585
vn -0.0798 -0.3656 -0.9273
vn 0.0261 -0.3271 -0.9446
vn -0.8259 -0.1822 0.5336
vn 0.9730 -0.2298 0.0189
vn 0.9082 -0.3453 0.2364
vn 0.0968 -0.6326 -0.7684
vn -0.5960 -0.7905 0.1409
vn 0.8457 -0.3201 0.4270
vn 0.7770 -0.4242 0.4651
vn 0.7535 -0.4011 0.5208
vn 0.0551 -0.9474 -0.3153
vn -0.0000 -0.9459 -0.3245
vn -0.1884 -0.9635 -0.1901
vn -0.1569 -0.9562 -0.2472
vn -0.0551 -0.9474 -0.3153
vn 0.5032 -0.8261 -0.2538
vn 0.9837 0.0606 -0.1693
vn 0.9837 0.0610 -0.1693
vn 0.7636 -0.5151 0.3893
vn 0.9716 0.1323 -0.1960
vn 0.9753 0.1135 -0.1892
vn 0.9827 0.0695 -0.1715
vn -0.1003 -0.9349 -0.3404
vn -0.2092 -0.8804 -0.4256
vn -0.9994 -0.0340 -0.0036
vn 0.9838 0.1307 -0.1228
vn 0.7023 0.4629 0.5408
vn 0.0671 -0.5093 -0.8580
vn 0.9700 -0.0453 0.2387
vn 0.8350 -0.3307 0.4397
vn -0.9730 -0.2298 0.0189
vn 0.7890 -0.3331 0.5163
vn -0.7770 -0.4242 0.4651
vt 0.000000 0.000000
s 1
f 1/1/1 2/1/2 3/1/3
f 3/1/3 2/1/2 4/1/4
f 4/1/4 2/1/2 5/1/5
f 5/1/5 2/1/2 6/1/6
f 6/1/6 2/1/2 7/1/7
f 7/1/7 2/1/2 8/1/8
f 8/1/8 2/1/2 9/1/9
f 9/1/9 2/1/2 10/1/10
f 10/1/10 2/1/2 11/1/11
f 11/1/11 2/1/2 12/1/12
f 12/1/12 2/1/2 13/1/13
f 649/1/14 652/1/15 645/1/16 644/1/17
f 14/1/18 15/1/18 13/1/13 2/1/2
f 16/1/19 17/1/20 18/1/21
f 18/1/21 17/1/20 19/1/22
f 19/1/22 17/1/20 20/1/23
f 20/1/23 17/1/20 21/1/24
f 21/1/24 17/1/20 22/1/25
f 22/1/25 17/1/20 23/1/26
f 23/1/26 17/1/20 24/1/27
f 17/1/20 25/1/28 26/1/29
f 17/1/20 27/1/30 24/1/27
f 17/1/20 26/1/29 28/1/31
f 17/1/20 28/1/31 27/1/30
f 98/1/32 97/1/33 88/1/34 90/1/35
f 29/1/36 31/1/37 32/1/38
f 81/1/39 90/1/35 88/1/34 80/1/40
f 29/1/36 32/1/38 33/1/41
f 97/1/33 96/1/42 89/1/43 88/1/34
f 694/1/44 697/1/45 690/1/46 689/1/47
f 80/1/40 88/1/34 89/1/43 82/1/48
f 31/1/37 38/1/49 32/1/38
f 33/1/41 32/1/38 39/1/50
f 71/1/51 72/1/52 81/1/39 80/1/40
f 221/1/53 228/1/54 214/1/55 215/1/56
f 50/1/57 110/1/58 44/1/59 41/1/60
f 97/1/33 329/1/61 104/1/62 96/1/42
f 80/1/40 82/1/48 73/1/63 71/1/51
f 645/1/16 650/1/64 646/1/65 643/1/66
f 321/1/67 330/1/68 329/1/61 322/1/69
f 38/1/49 47/1/70 32/1/38
f 700/1/71 701/1/72 691/1/73 693/1/74
f 39/1/50 32/1/38 48/1/75
f 163/1/76 499/1/77 169/1/78 162/1/79
f 104/1/62 106/1/80 99/1/81 96/1/42
f 65/1/82 72/1/52 71/1/51 66/1/83
f 61/1/84 93/1/85 94/1/86 62/1/87
f 47/1/70 54/1/88 32/1/38
f 341/1/89 360/1/90 354/1/91 348/1/92
f 48/1/75 32/1/38 56/1/93
f 124/1/94 125/1/95 117/1/96 116/1/97
f 300/1/98 332/1/99 331/1/100 311/1/101
f 83/1/102 87/1/103 79/1/104 74/1/105
f 698/1/106 699/1/107 690/1/46 697/1/45
f 83/1/102 91/1/108 92/1/109 87/1/103
f 218/1/110 289/1/111 226/1/112 219/1/113
f 67/1/114 70/1/115 63/1/116 58/1/117
f 519/1/118 525/1/119 524/1/120 518/1/121
f 54/1/88 64/1/122 32/1/38
f 56/1/93 32/1/38 65/1/82
f 48/1/75 56/1/93 57/1/123 49/1/124
f 49/1/124 57/1/123 58/1/117 53/1/125
f 166/1/126 174/1/127 172/1/128 167/1/129
f 475/1/130 476/1/131 469/1/132 470/1/133
f 60/1/134 63/1/116 69/1/135 68/1/136
f 48/1/75 49/1/124 40/1/137 39/1/50
f 65/1/82 32/1/38 72/1/52
f 49/1/124 53/1/125 45/1/138 40/1/137
f 53/1/125 60/1/134 51/1/139 45/1/138
f 70/1/115 74/1/105 79/1/104 78/1/140
f 335/1/141 340/1/142 336/1/143 333/1/144
f 123/1/145 129/1/146 130/1/147 124/1/94
f 77/1/148 76/1/149 68/1/136 69/1/135
f 60/1/134 68/1/136 59/1/150 51/1/139
f 65/1/82 66/1/83 57/1/123 56/1/93
f 72/1/52 32/1/38 81/1/39
f 82/1/48 89/1/43 91/1/108 83/1/102
f 51/1/139 52/1/151 43/1/152 45/1/138
f 87/1/103 120/1/153 85/1/154 79/1/104
f 252/1/155 264/1/156 204/1/157 211/1/158
f 486/1/159 487/1/160 184/1/161 480/1/162
f 68/1/136 76/1/149 75/1/163 59/1/150
f 75/1/163 93/1/85 61/1/84 59/1/150
f 354/1/91 371/1/164 349/1/165 348/1/92
f 36/1/166 43/1/152 35/1/167 30/1/168
f 81/1/39 32/1/38 90/1/35
f 43/1/152 52/1/151 42/1/169 35/1/167
f 645/1/16 652/1/15 651/1/170 650/1/64
f 111/1/171 120/1/153 87/1/103 92/1/109
f 84/1/172 101/1/173 75/1/163 76/1/149
f 77/1/148 103/1/174 84/1/172 76/1/149
f 42/1/169 50/1/57 41/1/60 35/1/167
f 603/1/175 604/1/176 599/1/177 602/1/178
f 730/1/179 731/1/180 725/1/181 728/1/182
f 90/1/35 32/1/38 98/1/32
f 62/1/87 102/1/183 50/1/57 42/1/169
f 306/1/184 325/1/185 299/1/186 305/1/187
f 186/1/188 194/1/189 192/1/190 178/1/191
f 105/1/192 353/1/193 111/1/171 92/1/109
f 716/1/194 717/1/195 707/1/196 715/1/197
f 534/1/198 572/1/199 538/1/200 536/1/201
f 149/1/202 189/1/203 128/1/204 142/1/205
f 109/1/206 113/1/207 112/1/208 108/1/209
f 119/1/210 372/1/211 114/1/212 115/1/213
f 168/1/214 493/1/215 163/1/76 161/1/216
f 109/1/206 108/1/209 84/1/172 103/1/174
f 106/1/80 346/1/217 105/1/192 99/1/81
f 501/1/218 507/1/219 495/1/220 494/1/221
f 499/1/77 187/1/222 181/1/223 169/1/78
f 114/1/212 379/1/224 121/1/225 113/1/207
f 109/1/206 115/1/213 114/1/212 113/1/207
f 455/1/226 456/1/227 451/1/228 454/1/229
f 222/1/230 239/1/231 197/1/232 202/1/233
f 84/1/172 108/1/209 107/1/234 101/1/173
f 112/1/208 154/1/235 107/1/234 108/1/209
f 405/1/236 413/1/237 404/1/238 398/1/239
f 121/1/225 164/1/240 112/1/208 113/1/207
f 207/1/241 214/1/55 200/1/242 199/1/243
f 344/1/244 345/1/245 338/1/246 339/1/247
f 339/1/247 338/1/246 334/1/248 323/1/249
f 323/1/249 334/1/248 330/1/68 313/1/250
f 75/1/163 101/1/173 100/1/251 93/1/85
f 107/1/234 148/1/252 100/1/251 101/1/173
f 100/1/251 140/1/253 94/1/86 93/1/85
f 178/1/191 185/1/254 179/1/255 173/1/256
f 332/1/99 300/1/98 294/1/257 292/1/258
f 336/1/143 344/1/244 339/1/247 337/1/259
f 337/1/259 339/1/247 323/1/249 315/1/260
f 313/1/250 330/1/68 321/1/67 314/1/261
f 345/1/245 350/1/262 352/1/263 346/1/217
f 352/1/263 353/1/193 105/1/192 346/1/217
f 337/1/259 295/1/264 333/1/144 336/1/143
f 193/1/265 194/1/189 186/1/188 150/1/266
f 296/1/267 315/1/260 308/1/268 253/1/269
f 253/1/269 308/1/268 259/1/270 254/1/271
f 64/1/122 139/1/272 32/1/38
f 630/1/273 637/1/274 631/1/275 629/1/276
f 45/1/138 43/1/152 36/1/166 40/1/137
f 333/1/144 295/1/264 289/1/111 318/1/277
f 295/1/264 296/1/267 226/1/112 289/1/111
f 226/1/112 296/1/267 253/1/269 227/1/278
f 139/1/272 146/1/279 32/1/38
f 282/1/280 274/1/281 234/1/282 233/1/283
f 363/1/284 359/1/285 357/1/286 362/1/287
f 363/1/284 365/1/288 126/1/289 359/1/285
f 237/1/290 239/1/231 222/1/230 232/1/291
f 349/1/165 350/1/262 343/1/292 348/1/92
f 531/1/293 549/1/294 555/1/295 532/1/296
f 219/1/113 226/1/112 227/1/278 220/1/297
f 547/1/298 556/1/299 548/1/300 540/1/301
f 146/1/279 153/1/302 32/1/38
f 370/1/303 372/1/211 119/1/210 365/1/288
f 370/1/303 365/1/288 363/1/284 369/1/304
f 99/1/81 105/1/192 92/1/109 91/1/108
f 219/1/113 220/1/297 215/1/56 213/1/305
f 707/1/196 708/1/306 698/1/106 706/1/307
f 153/1/302 159/1/308 32/1/38
f 472/1/309 489/1/310 467/1/311 466/1/312
f 452/1/313 378/1/314 372/1/211 370/1/303
f 126/1/289 365/1/288 119/1/210 118/1/315
f 498/1/316 515/1/317 514/1/318 509/1/319
f 364/1/320 362/1/287 357/1/286 358/1/321
f 425/1/322 474/1/323 471/1/324 468/1/325
f 159/1/308 167/1/129 32/1/38
f 451/1/228 456/1/227 378/1/314 452/1/313
f 451/1/228 452/1/313 377/1/326 444/1/327
f 368/1/328 369/1/304 363/1/284 362/1/287
f 368/1/328 392/1/329 377/1/326 369/1/304
f 498/1/316 509/1/319 187/1/222 499/1/77
f 171/1/330 175/1/331 160/1/332 164/1/240
f 456/1/227 386/1/333 379/1/224 378/1/314
f 167/1/129 172/1/128 32/1/38
f 214/1/55 228/1/54 208/1/334 200/1/242
f 47/1/70 38/1/49 37/1/335 46/1/336
f 66/1/83 71/1/51 73/1/63 67/1/114
f 172/1/128 176/1/337 32/1/38
f 520/1/338 513/1/339 512/1/340 518/1/121
f 345/1/245 346/1/217 106/1/80 338/1/246
f 206/1/341 207/1/241 199/1/243 198/1/342
f 486/1/159 528/1/343 529/1/344 523/1/345
f 135/1/346 201/1/347 143/1/348 136/1/349
f 160/1/332 175/1/331 168/1/214 161/1/216
f 95/1/350 115/1/213 109/1/206 103/1/174
f 443/1/351 454/1/229 451/1/228 444/1/327
f 374/1/352 393/1/353 391/1/354 385/1/355
f 391/1/354 392/1/329 368/1/328 385/1/355
f 33/1/41 39/1/50 40/1/137 36/1/166
f 232/1/291 222/1/230 225/1/356 231/1/357
f 190/1/358 211/1/158 204/1/157 198/1/342
f 78/1/140 86/1/359 77/1/148 69/1/135
f 205/1/360 273/1/361 212/1/362 206/1/341
f 273/1/361 281/1/363 218/1/110 212/1/362
f 281/1/363 318/1/277 289/1/111 218/1/110
f 135/1/346 136/1/349 130/1/147 129/1/146
f 398/1/239 404/1/238 390/1/364 383/1/365
f 265/1/366 280/1/367 273/1/361 205/1/360
f 85/1/154 86/1/359 78/1/140 79/1/104
f 185/1/254 190/1/358 180/1/368 179/1/255
f 180/1/368 177/1/369 174/1/127 179/1/255
f 280/1/367 288/1/370 281/1/363 273/1/361
f 469/1/132 476/1/131 477/1/371 473/1/372
f 220/1/297 240/1/373 221/1/53 215/1/56
f 634/1/374 641/1/375 627/1/376 628/1/377
f 123/1/145 124/1/94 116/1/97 122/1/378
f 192/1/190 191/1/379 185/1/254 178/1/191
f 700/1/71 711/1/380 709/1/381 701/1/72
f 173/1/256 179/1/255 174/1/127 166/1/126
f 172/1/128 174/1/127 177/1/369 176/1/337
f 176/1/337 208/1/334 32/1/38
f 503/1/382 508/1/383 484/1/384 504/1/385
f 204/1/157 264/1/156 265/1/366 205/1/360
f 157/1/386 186/1/188 178/1/191 173/1/256
f 147/1/387 170/1/388 141/1/389 140/1/253
f 166/1/126 158/1/390 157/1/386 173/1/256
f 335/1/141 319/1/391 327/1/392 342/1/393
f 210/1/394 217/1/395 209/1/396
f 615/1/397 617/1/398 608/1/399 607/1/400
f 150/1/266 186/1/188 157/1/386 151/1/401
f 511/1/402 519/1/118 518/1/121 512/1/340
f 159/1/308 153/1/302 152/1/403 158/1/390
f 166/1/126 167/1/129 159/1/308 158/1/390
f 301/1/404 287/1/405 280/1/367 265/1/366
f 727/1/406 732/1/407 730/1/179 728/1/182
f 150/1/266 151/1/401 144/1/408 143/1/348
f 478/1/409 479/1/410 471/1/324 474/1/323
f 228/1/54 221/1/53 32/1/38
f 208/1/334 228/1/54 32/1/38
f 96/1/42 99/1/81 91/1/108 89/1/43
f 327/1/392 351/1/411 347/1/412 342/1/393
f 311/1/101 317/1/413 312/1/414 287/1/405
f 151/1/401 152/1/403 145/1/415 144/1/408
f 544/1/416 545/1/417 522/1/418 537/1/419
f 216/1/420 235/1/421 224/1/422
f 492/1/423 523/1/345 522/1/418 515/1/317
f 300/1/98 311/1/101 287/1/405 301/1/404
f 82/1/48 83/1/102 74/1/105 73/1/63
f 221/1/53 240/1/373 32/1/38
f 695/1/424 696/1/425 684/1/426 686/1/427
f 355/1/428 367/1/429 347/1/412 351/1/411
f 66/1/83 67/1/114 58/1/117 57/1/123
f 169/1/78 170/1/388 147/1/387 162/1/79
f 300/1/98 301/1/404 272/1/430 294/1/257
f 240/1/373 246/1/431 32/1/38
f 152/1/403 153/1/302 146/1/279 145/1/415
f 328/1/432 356/1/433 355/1/428 351/1/411
f 324/1/434 325/1/185 306/1/184 316/1/435
f 619/1/436 626/1/437 621/1/438 618/1/439
f 100/1/251 148/1/252 147/1/387 140/1/253
f 245/1/440 252/1/155 211/1/158 191/1/379
f 146/1/279 139/1/272 138/1/441 145/1/415
f 246/1/431 254/1/271 32/1/38
f 544/1/416 556/1/299 547/1/298 545/1/417
f 320/1/442 328/1/432 327/1/392 319/1/391
f 464/1/443 473/1/372 472/1/309 466/1/312
f 85/1/154 118/1/315 95/1/350 86/1/359
f 511/1/402 512/1/340 507/1/219 510/1/444
f 254/1/271 259/1/270 32/1/38
f 555/1/295 549/1/294 559/1/445 563/1/446
f 299/1/186 332/1/99 292/1/258 293/1/447
f 193/1/265 209/1/396 202/1/233 194/1/189
f 197/1/232 245/1/440 191/1/379 192/1/190
f 381/1/448 383/1/365 376/1/449 375/1/450
f 361/1/451 384/1/452 381/1/448 375/1/450
f 107/1/234 154/1/235 155/1/453 148/1/252
f 268/1/454 294/1/257 272/1/430 269/1/455
f 469/1/132 473/1/372 464/1/443 463/1/456
f 244/1/457 245/1/440 197/1/232 239/1/231
f 244/1/457 269/1/455 252/1/155 245/1/440
f 155/1/453 162/1/79 147/1/387 148/1/252
f 619/1/436 628/1/377 627/1/376 626/1/437
f 383/1/365 390/1/364 382/1/458 376/1/449
f 627/1/376 636/1/459 630/1/273 626/1/437
f 305/1/187 299/1/186 293/1/447 290/1/460
f 298/1/461 305/1/187 290/1/460 291/1/462
f 170/1/388 165/1/463 156/1/464 141/1/389
f 272/1/430 264/1/156 252/1/155 269/1/455
f 366/1/465 382/1/458 380/1/466 373/1/467
f 380/1/466 393/1/353 374/1/352 373/1/467
f 402/1/468 480/1/162 184/1/161 395/1/469
f 284/1/470 293/1/447 292/1/258 286/1/471
f 284/1/470 286/1/471 261/1/472 279/1/473
f 208/1/334 176/1/337 177/1/369 200/1/242
f 209/1/396 225/1/356 222/1/230 202/1/233
f 486/1/159 523/1/345 492/1/423 487/1/160
f 277/1/474 285/1/475 284/1/470 279/1/473
f 283/1/476 285/1/475 277/1/474 278/1/477
f 261/1/472 286/1/471 268/1/454 262/1/478
f 460/1/479 465/1/480 394/1/481 458/1/482
f 102/1/183 127/1/483 110/1/58 50/1/57
f 545/1/417 547/1/298 516/1/484 514/1/318
f 283/1/476 291/1/462 290/1/460 285/1/475
f 290/1/460 293/1/447 284/1/470 285/1/475
f 378/1/314 379/1/224 114/1/212 372/1/211
f 261/1/472 262/1/478 237/1/290 257/1/485
f 206/1/341 212/1/362 213/1/305 207/1/241
f 117/1/96 125/1/95 55/1/486 46/1/336
f 681/1/487 688/1/488 682/1/489 679/1/490
f 529/1/344 537/1/419 522/1/418 523/1/345
f 631/1/275 633/1/491 623/1/492 622/1/493
f 270/1/494 271/1/495 251/1/496 263/1/497
f 251/1/496 271/1/495 256/1/498 249/1/499
f 335/1/141 342/1/393 341/1/89 340/1/142
f 33/1/41 36/1/166 30/1/168 29/1/36
f 404/1/238 406/1/500 401/1/501 390/1/364
f 258/1/502 263/1/497 251/1/496 250/1/503
f 218/1/110 219/1/113 213/1/305 212/1/362
f 55/1/486 132/1/504 64/1/122 54/1/88
f 259/1/270 314/1/261 32/1/38
f 136/1/349 137/1/505 131/1/506 130/1/147
f 201/1/347 210/1/394 209/1/396 193/1/265
f 288/1/370 320/1/442 319/1/391
f 47/1/70 46/1/336 55/1/486 54/1/88
f 314/1/261 321/1/67 32/1/38
f 32/1/38 321/1/67 322/1/69
f 32/1/38 322/1/69 98/1/32
f 125/1/95 131/1/506 132/1/504 55/1/486
f 357/1/286 359/1/285 111/1/171 353/1/193
f 236/1/507 238/1/508 232/1/291 231/1/357
f 216/1/420 224/1/422 217/1/395 210/1/394
f 37/1/335 38/1/49 31/1/37 34/1/509
f 403/1/510 410/1/511 396/1/512 397/1/513
f 524/1/120 535/1/514 534/1/198 526/1/515
f 44/1/59 117/1/96 46/1/336 37/1/335
f 243/1/516 249/1/499 238/1/508 236/1/507
f 238/1/508 257/1/485 237/1/290 232/1/291
f 256/1/498 257/1/485 238/1/508 249/1/499
f 313/1/250 314/1/261 259/1/270 308/1/268
f 203/1/517 210/1/394 201/1/347 135/1/346
f 196/1/518 203/1/517 135/1/346 129/1/146
f 349/1/165 358/1/321 352/1/263 350/1/262
f 116/1/97 117/1/96 44/1/59 110/1/58
f 67/1/114 73/1/63 74/1/105 70/1/115
f 94/1/86 133/1/519 102/1/183 62/1/87
f 195/1/520 223/1/521 203/1/517 196/1/518
f 413/1/237 416/1/522 406/1/500 404/1/238
f 128/1/204 196/1/518 129/1/146 123/1/145
f 195/1/520 196/1/518 128/1/204 189/1/203
f 194/1/189 202/1/233 197/1/232 192/1/190
f 343/1/292 350/1/262 345/1/245 344/1/244
f 122/1/378 142/1/205 128/1/204 123/1/145
f 110/1/58 127/1/483 122/1/378 116/1/97
f 230/1/523 223/1/521 195/1/520 229/1/524
f 17/1/20 647/1/525 642/1/526 641/1/375
f 318/1/277 319/1/391 335/1/141 333/1/144
f 327/1/392 328/1/432 351/1/411
f 237/1/290 262/1/478 244/1/457 239/1/231
f 477/1/371 494/1/221 472/1/309 473/1/372
f 134/1/527 156/1/464 149/1/202 142/1/205
f 188/1/528 229/1/524 195/1/520 189/1/203
f 188/1/528 189/1/203 149/1/202 183/1/529
f 550/1/530 560/1/531 559/1/445 549/1/294
f 241/1/532 242/1/533 224/1/422 235/1/421
f 141/1/389 156/1/464 134/1/527 133/1/519
f 94/1/86 140/1/253 141/1/389 133/1/519
f 241/1/532 260/1/534 248/1/535 242/1/533
f 690/1/46 699/1/107 692/1/536 688/1/488
f 331/1/100 332/1/99 299/1/186 325/1/185
f 165/1/463 183/1/529 149/1/202 156/1/464
f 364/1/320 385/1/355 368/1/328 362/1/287
f 234/1/282 247/1/537 230/1/523 229/1/524
f 188/1/528 233/1/283 234/1/282 229/1/524
f 169/1/78 181/1/223 165/1/463 170/1/388
f 324/1/434 326/1/538 331/1/100 325/1/185
f 298/1/461 307/1/539 306/1/184 305/1/187
f 256/1/498 279/1/473 261/1/472 257/1/485
f 182/1/540 233/1/283 188/1/528 183/1/529
f 182/1/540 183/1/529 165/1/463 181/1/223
f 234/1/282 274/1/281 255/1/541 247/1/537
f 255/1/541 260/1/534 241/1/532 247/1/537
f 163/1/76 162/1/79 155/1/453 161/1/216
f 143/1/348 201/1/347 193/1/265 150/1/266
f 467/1/311 482/1/542 402/1/468 465/1/480
f 112/1/208 164/1/240 160/1/332 154/1/235
f 434/1/543 435/1/544 408/1/545 426/1/546
f 310/1/547 316/1/435 306/1/184 307/1/539
f 639/1/548 640/1/549 632/1/550 633/1/491
f 266/1/551 267/1/552 248/1/535 260/1/534
f 203/1/517 223/1/521 216/1/420 210/1/394
f 160/1/332 161/1/216 155/1/453 154/1/235
f 121/1/225 387/1/553 171/1/330 164/1/240
f 266/1/551 539/1/554 276/1/555 267/1/552
f 137/1/505 138/1/441 132/1/504 131/1/506
f 304/1/556 274/1/281 282/1/280 303/1/557
f 374/1/352 385/1/355 364/1/320 371/1/164
f 104/1/62 334/1/248 338/1/246 106/1/80
f 386/1/333 458/1/482 394/1/481 387/1/553
f 277/1/474 279/1/473 256/1/498 271/1/495
f 546/1/558 552/1/559 276/1/555 539/1/554
f 530/1/560 532/1/296 546/1/558 539/1/554
f 498/1/316 499/1/77 163/1/76 493/1/215
f 131/1/506 125/1/95 124/1/94 130/1/147
f 187/1/222 509/1/319 302/1/561 297/1/562
f 302/1/561 303/1/557 282/1/280 297/1/562
f 460/1/479 458/1/482 455/1/226 459/1/563
f 386/1/333 387/1/553 121/1/225 379/1/224
f 546/1/558 554/1/564 553/1/565 552/1/559
f 514/1/318 516/1/484 302/1/561 509/1/319
f 309/1/566 530/1/560 275/1/567 304/1/556
f 309/1/566 531/1/293 532/1/296 530/1/560
f 302/1/561 516/1/484 517/1/568 303/1/557
f 182/1/540 297/1/562 282/1/280 233/1/283
f 524/1/120 526/1/515 520/1/338 518/1/121
f 561/1/569 562/1/570 553/1/565 554/1/564
f 517/1/568 541/1/571 531/1/293 309/1/566
f 546/1/558 532/1/296 555/1/295 554/1/564
f 555/1/295 563/1/446 561/1/569 554/1/564
f 354/1/91 373/1/467 374/1/352 371/1/164
f 516/1/484 547/1/298 540/1/301 517/1/568
f 388/1/572 389/1/573 381/1/448 384/1/452
f 478/1/409 497/1/574 485/1/575 479/1/410
f 623/1/492 633/1/491 632/1/550 624/1/576
f 541/1/571 550/1/530 549/1/294 531/1/293
f 447/1/577 450/1/578 442/1/579 439/1/580
f 30/1/168 34/1/509 31/1/37 29/1/36
f 411/1/581 420/1/582 414/1/583 410/1/511
f 418/1/584 427/1/585 419/1/586
f 578/1/587 584/1/588 579/1/589 568/1/590
f 419/1/586 427/1/585 429/1/591
f 566/1/592 570/1/593 563/1/446 559/1/445
f 563/1/446 570/1/593 569/1/594 561/1/569
f 713/1/595 712/1/596 703/1/597 708/1/306
f 361/1/451 375/1/450 355/1/428 356/1/433
f 322/1/69 329/1/61 97/1/33 98/1/32
f 522/1/418 545/1/417 514/1/318 515/1/317
f 428/1/598 436/1/599 437/1/600
f 428/1/598 438/1/601 436/1/599
f 560/1/531 567/1/602 566/1/592 559/1/445
f 574/1/603 575/1/604 565/1/605 573/1/606
f 429/1/591 427/1/585 440/1/607
f 557/1/608 573/1/606 565/1/605 558/1/609
f 136/1/349 143/1/348 144/1/408 137/1/505
f 492/1/423 515/1/317 498/1/316 493/1/215
f 438/1/601 445/1/610 436/1/599
f 376/1/449 367/1/429 355/1/428 375/1/450
f 577/1/611 566/1/592 567/1/602 576/1/612
f 440/1/607 427/1/585 448/1/613
f 427/1/585 437/1/600 448/1/613
f 583/1/614 589/1/615 582/1/616 577/1/611
f 584/1/588 589/1/615 583/1/614 588/1/617
f 464/1/443 459/1/563 457/1/618 463/1/456
f 492/1/423 493/1/215 168/1/214 487/1/160
f 292/1/258 294/1/257 268/1/454 286/1/471
f 446/1/619 453/1/620 449/1/621
f 187/1/222 297/1/562 182/1/540 181/1/223
f 445/1/610 453/1/620 446/1/619
f 184/1/161 487/1/160 168/1/214 175/1/331
f 171/1/330 395/1/469 184/1/161 175/1/331
f 399/1/622 444/1/327 377/1/326 392/1/329
f 472/1/309 494/1/221 495/1/220 489/1/310
f 394/1/481 465/1/480 402/1/468 395/1/469
f 377/1/326 452/1/313 370/1/303 369/1/304
f 134/1/527 142/1/205 122/1/378 127/1/483
f 52/1/151 61/1/84 62/1/87 42/1/169
f 402/1/468 482/1/542 481/1/623 480/1/162
f 481/1/623 528/1/343 486/1/159 480/1/162
f 455/1/226 458/1/482 386/1/333 456/1/227
f 467/1/311 465/1/480 460/1/479 466/1/312
f 527/1/624 528/1/343 481/1/623 521/1/625
f 527/1/624 536/1/201 529/1/344 528/1/343
f 538/1/200 564/1/626 544/1/416 537/1/419
f 349/1/165 371/1/164 364/1/320 358/1/321
f 467/1/311 489/1/310 488/1/627 482/1/542
f 488/1/627 521/1/625 481/1/623 482/1/542
f 534/1/198 536/1/201 527/1/624 526/1/515
f 303/1/557 517/1/568 309/1/566 304/1/556
f 527/1/624 521/1/625 520/1/338 526/1/515
f 520/1/338 521/1/625 488/1/627 513/1/339
f 571/1/628 573/1/606 557/1/608 564/1/626
f 538/1/200 572/1/199 571/1/628 564/1/626
f 268/1/454 269/1/455 244/1/457 262/1/478
f 380/1/466 401/1/501 400/1/629 393/1/353
f 625/1/630 635/1/631 634/1/374 628/1/377
f 542/1/632 580/1/633 571/1/628 572/1/199
f 376/1/449 382/1/458 366/1/465 367/1/429
f 457/1/618 459/1/563 455/1/226 454/1/229
f 343/1/292 344/1/244 336/1/143 340/1/142
f 119/1/210 115/1/213 95/1/350 118/1/315
f 270/1/494 278/1/477 277/1/474 271/1/495
f 725/1/181 726/1/634 721/1/635 722/1/636
f 483/1/637 490/1/638 478/1/409
f 443/1/351 461/1/639 457/1/618 454/1/229
f 191/1/379 211/1/158 190/1/358 185/1/254
f 495/1/220 513/1/339 488/1/627 489/1/310
f 95/1/350 103/1/174 77/1/148 86/1/359
f 713/1/595 722/1/636 721/1/635 712/1/596
f 490/1/638 497/1/574 478/1/409
f 496/1/640 485/1/575 497/1/574
f 272/1/430 301/1/404 265/1/366 264/1/156
f 352/1/263 358/1/321 357/1/286 353/1/193
f 409/1/641 399/1/622 392/1/329 391/1/354
f 341/1/89 348/1/92 343/1/292 340/1/142
f 512/1/340 513/1/339 495/1/220 507/1/219
f 496/1/640 502/1/642 485/1/575
f 533/1/643 543/1/644 542/1/632 535/1/514
f 533/1/643 535/1/514 524/1/120 525/1/119
f 323/1/249 313/1/250 308/1/268 315/1/260
f 403/1/510 412/1/645 411/1/581 410/1/511
f 347/1/412 360/1/90 341/1/89 342/1/393
f 506/1/646 510/1/444 507/1/219 501/1/218
f 406/1/500 407/1/647 400/1/629 401/1/501
f 408/1/545 409/1/641 400/1/629 407/1/647
f 408/1/545 435/1/544 399/1/622 409/1/641
f 295/1/264 337/1/259 315/1/260 296/1/267
f 506/1/646 501/1/218 500/1/648 505/1/649
f 53/1/125 58/1/117 63/1/116 60/1/134
f 501/1/218 494/1/221 477/1/371 500/1/648
f 215/1/56 214/1/55 207/1/241 213/1/305
f 434/1/543 461/1/639 443/1/351 435/1/544
f 484/1/384 508/1/383 505/1/649 500/1/648
f 484/1/384 500/1/648 477/1/371 476/1/131
f 111/1/171 359/1/285 126/1/289 120/1/153
f 85/1/154 120/1/153 126/1/289 118/1/315
f 434/1/543 468/1/325 462/1/650 461/1/639
f 462/1/650 463/1/456 457/1/618 461/1/639
f 59/1/150 61/1/84 52/1/151 51/1/139
f 151/1/401 157/1/386 158/1/390 152/1/403
f 464/1/443 466/1/312 460/1/479 459/1/563
f 137/1/505 144/1/408 145/1/415 138/1/441
f 205/1/360 206/1/341 198/1/342 204/1/157
f 504/1/385 484/1/384 476/1/131 475/1/130
f 471/1/324 470/1/133 462/1/650 468/1/325
f 471/1/324 479/1/410 475/1/130 470/1/133
f 389/1/573 398/1/239 383/1/365 381/1/448
f 440/1/607 448/1/613 449/1/621 447/1/577
f 485/1/575 504/1/385 475/1/130 479/1/410
f 695/1/424 705/1/651 704/1/652 696/1/425
f 425/1/322 468/1/325 434/1/543 426/1/546
f 707/1/196 717/1/195 713/1/595 708/1/306
f 630/1/273 629/1/276 621/1/438 626/1/437
f 311/1/101 331/1/100 326/1/538 317/1/413
f 417/1/653 426/1/546 408/1/545 407/1/647
f 425/1/322 426/1/546 417/1/653 424/1/654
f 422/1/655 424/1/654 417/1/653 415/1/656
f 14/1/18 17/1/20 16/1/19 15/1/18
f 543/1/644 551/1/657 542/1/632
f 330/1/68 334/1/248 104/1/62 329/1/61
f 618/1/439 621/1/438 612/1/658 603/1/175
f 414/1/583 421/1/659 413/1/237 405/1/236
f 431/1/660 474/1/323 425/1/322 424/1/654
f 422/1/655 432/1/661 431/1/660 424/1/654
f 430/1/662 433/1/663 423/1/664 421/1/659
f 428/1/598 437/1/600 427/1/585 418/1/584
f 544/1/416 564/1/626 557/1/608 556/1/299
f 420/1/582 430/1/662 421/1/659 414/1/583
f 574/1/603 580/1/633 551/1/657 575/1/604
f 415/1/656 417/1/653 407/1/647 406/1/500
f 418/1/584 419/1/586 411/1/581 412/1/645
f 419/1/586 429/1/591 420/1/582 411/1/581
f 255/1/541 275/1/567 266/1/551 260/1/534
f 730/1/179 732/1/407 734/1/665 733/1/666
f 713/1/595 717/1/195 723/1/667 722/1/636
f 557/1/608 558/1/609 548/1/300 556/1/299
f 441/1/668 491/1/669 490/1/638 483/1/637
f 573/1/606 571/1/628 574/1/603
f 496/1/640 497/1/574 490/1/638 491/1/669
f 44/1/59 37/1/335 34/1/509 41/1/60
f 568/1/590 569/1/594 578/1/587
f 569/1/594 570/1/593 578/1/587
f 304/1/556 275/1/567 255/1/541 274/1/281
f 571/1/628 580/1/633 574/1/603
f 542/1/632 551/1/657 580/1/633
f 453/1/620 450/1/578 447/1/577 449/1/621
f 440/1/607 447/1/577 439/1/580 429/1/591
f 582/1/616 578/1/587 570/1/593
f 662/1/670 666/1/671 592/1/672 660/1/673
f 579/1/589 584/1/588 585/1/674
f 579/1/589 585/1/674 586/1/675
f 585/1/674 587/1/676 586/1/675
f 581/1/677 587/1/676 588/1/617
f 436/1/599 445/1/610 446/1/619 437/1/600
f 581/1/677 588/1/617 583/1/614
f 694/1/44 696/1/425 704/1/652 697/1/45
f 584/1/588 578/1/587 589/1/615
f 582/1/616 589/1/615 578/1/587
f 590/1/678 591/1/679 592/1/672
f 591/1/679 593/1/680 592/1/672
f 592/1/672 594/1/681 595/1/682
f 592/1/672 593/1/680 596/1/683
f 592/1/672 597/1/684 594/1/681
f 592/1/672 596/1/683 597/1/684
f 598/1/685 599/1/177 600/1/686
f 598/1/685 600/1/686 601/1/687
f 682/1/489 683/1/688 677/1/689 679/1/490
f 599/1/177 604/1/176 600/1/686
f 600/1/686 605/1/690 601/1/687
f 600/1/686 606/1/691 605/1/690
f 600/1/686 604/1/176 606/1/691
f 400/1/629 409/1/641 391/1/354 393/1/353
f 601/1/687 607/1/400 608/1/399
f 601/1/687 608/1/399 609/1/692
f 230/1/523 247/1/537 241/1/532 235/1/421
f 601/1/687 605/1/690 610/1/693
f 601/1/687 610/1/693 607/1/400
f 682/1/489 693/1/74 691/1/73 683/1/688
f 681/1/487 689/1/47 690/1/46 688/1/488
f 684/1/426 696/1/425 694/1/44 685/1/694
f 607/1/400 610/1/693 615/1/397
f 610/1/693 613/1/695 615/1/397
f 390/1/364 401/1/501 380/1/466 382/1/458
f 441/1/668 483/1/637 431/1/660 432/1/661
f 134/1/527 127/1/483 102/1/183 133/1/519
f 251/1/496 249/1/499 243/1/516 250/1/503
f 692/1/536 693/1/74 682/1/489 688/1/488
f 692/1/536 702/1/696 700/1/71 693/1/74
f 138/1/441 139/1/272 64/1/122 132/1/504
f 687/1/697 689/1/47 681/1/487 680/1/698
f 70/1/115 78/1/140 69/1/135 63/1/116
f 710/1/699 711/1/380 700/1/71 702/1/696
f 692/1/536 699/1/107 703/1/597 702/1/696
f 703/1/597 712/1/596 710/1/699 702/1/696
f 698/1/106 708/1/306 703/1/597 699/1/107
f 396/1/512 405/1/236 398/1/239 389/1/573
f 704/1/652 706/1/307 698/1/106 697/1/45
f 714/1/700 706/1/307 704/1/652 705/1/651
f 710/1/699 720/1/701 718/1/702 711/1/380
f 718/1/702 719/1/703 709/1/381 711/1/380
f 635/1/631 25/1/28 634/1/374
f 634/1/374 25/1/28 17/1/20
f 35/1/167 41/1/60 34/1/509 30/1/168
f 714/1/700 715/1/197 707/1/196 706/1/307
f 366/1/465 373/1/467 354/1/91 360/1/90
f 288/1/370 319/1/391 318/1/277 281/1/363
f 634/1/374 17/1/20 641/1/375
f 577/1/611 582/1/616 570/1/593 566/1/592
f 561/1/569 569/1/594 568/1/590 562/1/570
f 721/1/635 726/1/634 2/1/2 720/1/701
f 421/1/659 423/1/664 416/1/522 413/1/237
f 572/1/199 534/1/198 535/1/514 542/1/632
f 716/1/194 724/1/704 723/1/667 717/1/195
f 17/1/20 648/1/705 647/1/525
f 723/1/667 728/1/182 725/1/181 722/1/636
f 647/1/525 648/1/705 649/1/14
f 727/1/406 728/1/182 723/1/667 724/1/704
f 648/1/705 592/1/672 653/1/706
f 648/1/705 653/1/706 649/1/14
f 230/1/523 235/1/421 216/1/420 223/1/521
f 611/1/707 618/1/439 603/1/175 602/1/178
f 730/1/179 733/1/666 663/1/708 731/1/180
f 584/1/588 588/1/617 587/1/676 585/1/674
f 656/1/709 658/1/710 657/1/711
f 592/1/672 595/1/682 658/1/710
f 656/1/709 592/1/672 658/1/710
f 659/1/712 660/1/673 661/1/713
f 659/1/712 662/1/670 660/1/673
f 663/1/708 668/1/714 664/1/715 660/1/673
f 721/1/635 720/1/701 710/1/699 712/1/596
f 660/1/673 664/1/715 665/1/716
f 660/1/673 665/1/716 661/1/713
f 592/1/672 666/1/671 590/1/678
f 663/1/708 667/1/717 668/1/714
f 667/1/717 663/1/708 669/1/718
f 663/1/708 670/1/719 669/1/718
f 663/1/708 671/1/720 672/1/721
f 663/1/708 672/1/721 673/1/722
f 663/1/708 674/1/723 670/1/719
f 663/1/708 673/1/722 674/1/723
f 675/1/724 676/1/725 677/1/689
f 675/1/724 678/1/726 676/1/725
f 676/1/725 679/1/490 677/1/689
f 676/1/725 678/1/726 680/1/698
f 676/1/725 680/1/698 681/1/487
f 676/1/725 681/1/487 679/1/490
f 347/1/412 367/1/429 366/1/465 360/1/90
f 603/1/175 612/1/658 606/1/691 604/1/176
f 678/1/726 684/1/426 685/1/694
f 678/1/726 686/1/427 684/1/426
f 678/1/726 687/1/697 680/1/698
f 606/1/691 613/1/695 610/1/693 605/1/690
f 678/1/726 685/1/694 687/1/697
f 539/1/554 266/1/551 275/1/567 530/1/560
f 606/1/691 612/1/658 614/1/727 613/1/695
f 621/1/438 629/1/276 614/1/727 612/1/658
f 538/1/200 537/1/419 529/1/344 536/1/201
f 687/1/697 694/1/44 689/1/47
f 614/1/727 622/1/493 615/1/397 613/1/695
f 503/1/382 504/1/385 485/1/575 502/1/642
f 685/1/694 694/1/44 687/1/697
f 608/1/399 617/1/398 616/1/728 609/1/692
f 622/1/493 614/1/727 629/1/276 631/1/275
f 611/1/707 620/1/729 619/1/436 618/1/439
f 462/1/650 470/1/133 469/1/132 463/1/456
f 198/1/342 199/1/243 180/1/368 190/1/358
f 443/1/351 444/1/327 399/1/622 435/1/544
f 623/1/492 624/1/576 616/1/728 617/1/398
f 615/1/397 622/1/493 623/1/492 617/1/398
f 253/1/269 254/1/271 246/1/431 227/1/278
f 639/1/548 633/1/491 631/1/275 637/1/274
f 625/1/630 628/1/377 619/1/436 620/1/729
f 446/1/619 449/1/621 448/1/613 437/1/600
f 200/1/242 177/1/369 180/1/368 199/1/243
f 638/1/730 637/1/274 630/1/273 636/1/459
f 638/1/730 643/1/66 639/1/548 637/1/274
f 592/1/672 656/1/709 654/1/731 653/1/706
f 439/1/580 442/1/579 433/1/663 430/1/662
f 639/1/548 643/1/66 646/1/65 640/1/549
f 718/1/702 2/1/2 1/1/1
f 388/1/572 397/1/513 396/1/512 389/1/573
f 405/1/236 396/1/512 410/1/511 414/1/583
f 718/1/702 1/1/1 719/1/703
f 718/1/702 720/1/701 2/1/2
f 642/1/526 644/1/17 638/1/730 636/1/459
f 431/1/660 483/1/637 478/1/409 474/1/323
f 641/1/375 642/1/526 636/1/459 627/1/376
f 638/1/730 644/1/17 645/1/16 643/1/66
f 287/1/405 312/1/414 288/1/370 280/1/367
f 429/1/591 439/1/580 430/1/662 420/1/582
f 642/1/526 647/1/525 649/1/14 644/1/17
f 581/1/677 583/1/614 577/1/611 576/1/612
f 725/1/181 729/1/732 726/1/634
f 2/1/2 726/1/634 729/1/732
f 654/1/731 652/1/15 649/1/14 653/1/706
f 654/1/731 655/1/733 651/1/170 652/1/15
f 725/1/181 731/1/180 729/1/732
f 729/1/732 731/1/180 663/1/708
f 246/1/431 240/1/373 220/1/297 227/1/278
f 657/1/711 655/1/733 654/1/731 656/1/709
f 663/1/708 733/1/666 735/1/734
f 733/1/666 734/1/665 735/1/734
f 663/1/708 735/1/734 671/1/720
f 394/1/481 395/1/469 171/1/330 387/1/553
