# Blender 4.3.2
# www.blender.org
o hair.109
v 7.984832 1.072653 -0.012768
v 7.984832 1.070017 -0.016647
v 7.983197 1.070179 -0.016333
v 7.981810 1.070642 -0.015436
v 7.980882 1.071334 -0.014093
v 7.980556 1.072151 -0.012508
v 7.980886 1.072954 -0.010918
v 7.981825 1.073576 -0.009555
v 7.983207 1.074022 -0.008658
v 7.984832 1.074183 -0.008345
v 7.986456 1.074022 -0.008659
v 7.987838 1.073576 -0.009556
v 7.988778 1.072954 -0.010917
v 7.989106 1.072151 -0.012508
v 7.988781 1.071334 -0.014093
v 7.987855 1.070641 -0.015436
v 7.986468 1.070179 -0.016333
v 7.984822 1.075023 -0.005489
v 7.987430 1.074747 -0.005996
v 7.989678 1.074026 -0.007421
v 7.991238 1.073019 -0.009667
v 7.991786 1.071711 -0.012373
v 7.991239 1.070377 -0.014881
v 7.989748 1.069256 -0.017041
v 7.987495 1.068491 -0.018516
v 7.984832 1.068187 -0.019069
v 7.982169 1.068491 -0.018516
v 7.992940 1.072935 -0.008654
v 7.993493 1.072135 -0.010545
v 7.992043 1.073624 -0.007038
v 7.993677 1.071274 -0.012424
v 7.993468 1.070400 -0.014000
v 7.983101 1.066799 -0.020604
v 7.984832 1.066651 -0.020834
v 7.986563 1.066799 -0.020604
v 7.979916 1.069256 -0.017041
v 7.994179 1.073187 -0.005960
v 7.994948 1.071845 -0.010201
v 7.990876 1.074213 -0.005718
v 7.995257 1.070475 -0.012667
v 7.984832 1.065283 -0.022231
v 7.978419 1.070374 -0.014861
v 7.995191 1.071450 -0.009986
v 7.989514 1.074714 -0.004715
v 7.992126 1.074331 -0.003313
v 7.977525 1.068811 -0.016815
v 7.976711 1.069550 -0.015339
v 7.976120 1.070346 -0.013695
v 7.977850 1.071691 -0.012262
v 7.988016 1.075113 -0.003997
v 7.990274 1.074892 -0.002500
v 7.986443 1.075394 -0.003533
v 7.975336 1.068752 -0.015685
v 7.975880 1.071196 -0.011980
v 7.976120 1.072093 -0.010293
v 7.978420 1.073020 -0.009674
v 7.979910 1.067598 -0.019176
v 7.978584 1.068153 -0.018101
v 7.974318 1.070684 -0.011682
v 7.976700 1.072939 -0.008682
v 7.977479 1.073631 -0.007198
v 7.979914 1.074024 -0.007463
v 7.977481 1.067132 -0.018920
v 7.976270 1.067897 -0.017416
v 7.981438 1.067147 -0.020018
v 7.974620 1.069681 -0.013729
v 7.975309 1.072771 -0.007772
v 7.973296 1.065510 -0.018652
v 7.972135 1.066673 -0.016329
v 7.971345 1.067985 -0.013702
v 7.982789 1.065478 -0.021940
v 7.980827 1.065922 -0.021213
v 7.979029 1.066473 -0.020196
v 7.982162 1.074744 -0.005998
v 7.968952 1.066436 -0.013325
v 7.971011 1.069351 -0.010964
v 7.982026 1.062449 -0.024647
v 7.976931 1.063588 -0.022447
v 7.979349 1.062886 -0.023810
v 7.974878 1.064485 -0.020686
v 7.974622 1.071759 -0.009675
v 7.971216 1.070677 -0.008312
v 7.968433 1.067891 -0.010283
v 7.968432 1.069134 -0.007554
v 7.975529 1.061329 -0.023616
v 7.981472 1.060063 -0.026209
v 7.978306 1.060537 -0.025237
v 7.971337 1.063578 -0.019097
v 7.971796 1.071874 -0.005837
v 7.965479 1.066113 -0.009473
v 7.977146 1.057866 -0.026708
v 7.969937 1.064941 -0.016366
v 7.976157 1.073583 -0.006038
v 7.972585 1.072856 -0.003629
v 7.969207 1.071096 -0.002907
v 7.968755 1.070193 -0.005106
v 7.966255 1.064610 -0.012800
v 7.967509 1.062940 -0.016287
v 7.977294 1.074243 -0.004530
v 7.978503 1.074207 -0.005891
v 7.973993 1.074054 -0.000753
v 7.965209 1.068022 -0.004480
v 7.965215 1.067192 -0.006770
v 7.964252 1.060893 -0.011834
v 7.979822 1.074701 -0.004813
v 7.978853 1.074799 -0.003309
v 7.977064 1.075122 0.000608
v 7.963466 1.062543 -0.008318
v 7.963120 1.063696 -0.005627
v 7.980706 1.075255 -0.002406
v 7.981364 1.075099 -0.004008
v 7.979578 1.075628 0.001355
v 7.976707 1.075763 0.004842
v 7.983060 1.075385 -0.003523
v 7.961729 1.059138 -0.007291
v 7.963001 1.064563 -0.003444
v 7.961316 1.060316 -0.004612
v 7.961102 1.061180 -0.002518
v 7.982727 1.075618 -0.001855
v 7.984754 1.075780 -0.001673
v 7.984792 1.075503 -0.003362
v 7.962892 1.065354 -0.001451
v 7.965205 1.068780 -0.002390
v 7.959647 1.055706 -0.003546
v 7.982183 1.076083 0.001867
v 7.986622 1.075634 -0.001875
v 7.988440 1.075320 -0.002062
v 7.965117 1.069538 0.000400
v 7.969546 1.071949 0.000001
v 7.979295 1.076168 0.005261
v 7.982028 1.076555 0.005554
v 7.984684 1.076307 0.002056
v 7.989962 1.075452 0.000920
v 7.969527 1.072859 0.004577
v 7.973654 1.074830 0.004535
v 7.979023 1.076686 0.010129
v 7.973286 1.075429 0.009836
v 7.976362 1.076324 0.009961
v 7.986887 1.076126 0.001836
v 7.969185 1.073502 0.009856
v 7.964864 1.070369 0.004793
v 7.964572 1.071059 0.009947
v 7.975605 1.076334 0.015029
v 7.968552 1.073556 0.014873
v 7.972405 1.075333 0.014838
v 7.986895 1.076642 0.005535
v 7.993355 1.074476 -0.000768
v 7.962553 1.067251 0.005377
v 7.962756 1.066205 0.001205
v 7.971490 1.074891 0.019141
v 7.984647 1.076766 0.005665
v 7.989908 1.076155 0.005001
v 7.994811 1.072298 -0.005433
v 7.960741 1.062857 0.001933
v 7.960907 1.061968 -0.000605
v 7.981879 1.077018 0.010240
v 7.984597 1.077209 0.010283
v 7.995461 1.071359 -0.005145
v 7.995434 1.071056 -0.009771
v 7.959114 1.057067 0.000330
v 7.959368 1.056418 -0.001521
v 7.981655 1.077264 0.015433
v 7.978554 1.076874 0.015281
v 7.986846 1.077149 0.010246
v 7.989704 1.076865 0.010094
v 7.995481 1.071620 0.000010
v 7.960105 1.054670 -0.006206
v 7.958424 1.051536 -0.002681
v 7.978030 1.076697 0.020167
v 7.974752 1.075961 0.019626
v 7.986781 1.077414 0.015479
v 7.994419 1.073048 -0.000379
v 7.994136 1.073663 0.004503
v 7.995450 1.071716 0.004728
v 7.974120 1.075371 0.023336
v 7.984525 1.077460 0.015495
v 7.992823 1.075609 0.004278
v 7.992363 1.076574 0.009898
v 7.993894 1.074131 0.010007
v 7.995425 1.071688 0.010115
v 7.981406 1.077162 0.020494
v 7.984456 1.077365 0.020629
v 7.993742 1.074212 0.015535
v 7.992032 1.076952 0.015334
v 7.989519 1.077177 0.015402
v 7.995452 1.071473 0.015735
v 7.977593 1.076121 0.024236
v 7.981184 1.076581 0.024784
v 7.986754 1.077314 0.020594
v 7.989453 1.077059 0.020427
v 7.991929 1.076820 0.020276
v 7.993709 1.073793 0.020341
v 7.995489 1.070766 0.020406
v 7.977200 1.075346 0.027897
v 7.980973 1.075762 0.028689
v 7.984394 1.075938 0.029021
v 7.984417 1.076776 0.025012
v 7.986822 1.076725 0.024953
v 7.989609 1.076481 0.024670
v 7.993825 1.072757 0.023678
v 7.992157 1.076255 0.024413
v 7.995493 1.069260 0.022943
v 7.973598 1.074672 0.026601
v 7.986937 1.075892 0.028935
v 7.989875 1.075673 0.028523
v 7.992550 1.075474 0.028148
v 7.994016 1.071414 0.026280
v 7.995482 1.067354 0.024413
v 7.971018 1.074456 0.022345
v 7.970227 1.073780 0.024817
v 7.968160 1.073422 0.018980
v 7.968543 1.073501 0.021526
v 7.967149 1.072710 0.022556
v 7.964372 1.071393 0.015022
v 7.964217 1.071550 0.020057
v 7.962869 1.068633 0.015339
v 7.962513 1.068168 0.010333
v 7.963422 1.068872 0.020371
v 7.960802 1.065062 0.010668
v 7.961572 1.065570 0.015584
v 7.962634 1.065811 0.020577
v 7.960615 1.064023 0.005904
v 7.960355 1.059895 0.015682
v 7.959457 1.059650 0.010987
v 7.959043 1.058815 0.006491
v 7.961496 1.059845 0.020477
v 7.958975 1.057813 0.002752
v 7.959404 1.053817 0.015601
v 7.957983 1.053612 0.006992
v 7.958510 1.054029 0.011220
v 7.960482 1.053289 0.020057
v 7.957787 1.052957 0.003446
v 7.957885 1.052459 0.001112
v 7.958108 1.049808 0.011338
v 7.958958 1.049318 0.015392
v 7.959957 1.048548 0.019474
v 7.957311 1.049407 0.003929
v 7.957558 1.049738 0.007339
v 7.957368 1.049114 0.001642
v 7.958142 1.052019 -0.000700
v 7.957592 1.048825 -0.000168
v 7.958820 1.044039 0.014994
v 7.958108 1.044634 0.011420
v 7.957543 1.044930 0.007745
v 7.959605 1.043295 0.018517
v 7.957193 1.044937 0.002256
v 7.957209 1.045005 0.004510
v 7.957356 1.044792 0.000406
v 7.957843 1.048510 -0.002148
v 7.957557 1.044636 -0.001618
v 7.958881 1.050717 -0.005326
v 7.958251 1.047843 -0.004764
v 7.958310 1.038982 0.011484
v 7.959340 1.037787 0.017373
v 7.957246 1.041193 0.002664
v 7.957129 1.040353 0.004733
v 7.957545 1.040773 -0.000995
v 7.957852 1.044108 -0.004164
v 7.957758 1.040168 -0.003344
v 7.959666 1.049266 -0.009127
v 7.960900 1.053047 -0.009959
v 7.958837 1.038370 0.014500
v 7.957732 1.039653 0.008180
v 7.958041 1.036679 -0.002122
v 7.958264 1.034521 0.000176
v 7.958296 1.042850 -0.007585
v 7.962521 1.057407 -0.010956
v 7.958343 1.034865 -0.004584
v 7.959764 1.028688 -0.004380
v 7.958944 1.046498 -0.008485
v 7.965483 1.059027 -0.015705
v 7.963747 1.055428 -0.015134
v 7.958002 1.038810 -0.006319
v 7.958892 1.036730 -0.009898
v 7.959291 1.032416 -0.007535
v 7.961486 1.029403 -0.010944
v 7.963642 1.023728 -0.008254
v 7.960193 1.044683 -0.012877
v 7.967165 1.057228 -0.019462
v 7.962170 1.051168 -0.014327
v 7.964745 1.026523 -0.014376
v 7.961042 1.033957 -0.014058
v 7.964326 1.031368 -0.018179
v 7.967502 1.020037 -0.011271
v 7.959346 1.040960 -0.011662
v 7.960974 1.047473 -0.013588
v 7.962997 1.045625 -0.018213
v 7.964053 1.049363 -0.018828
v 7.968880 1.024473 -0.017397
v 7.961459 1.038536 -0.016182
v 7.971113 1.017700 -0.013207
v 7.966720 1.047866 -0.022921
v 7.965457 1.053506 -0.019353
v 7.967870 1.051899 -0.023149
v 7.962267 1.042605 -0.017504
v 7.965263 1.040782 -0.021827
v 7.964623 1.036337 -0.020529
v 7.973733 1.023129 -0.019651
v 7.975119 1.016385 -0.014444
v 7.969202 1.061361 -0.019468
v 7.971357 1.059944 -0.022313
v 7.969440 1.055681 -0.022831
v 7.968829 1.035121 -0.024092
v 7.968616 1.029840 -0.021639
v 7.979143 1.022368 -0.020782
v 7.973638 1.029015 -0.024166
v 7.979636 1.015604 -0.015236
v 7.965870 1.044054 -0.022469
v 7.972451 1.054572 -0.025538
v 7.979120 1.028535 -0.025490
v 7.979194 1.034181 -0.028070
v 7.973783 1.034524 -0.026671
v 7.984832 1.015277 -0.015394
v 7.969725 1.043094 -0.025823
v 7.970344 1.046911 -0.026064
v 7.969279 1.039733 -0.025304
v 7.973190 1.062367 -0.021514
v 7.971202 1.050862 -0.026060
v 7.984832 1.028381 -0.025852
v 7.974052 1.039193 -0.027807
v 7.974719 1.046346 -0.028279
v 7.975276 1.050238 -0.028123
v 7.974329 1.042558 -0.028216
v 7.973993 1.058758 -0.024794
v 7.984832 1.022134 -0.021067
v 7.979319 1.038894 -0.029207
v 7.979451 1.042261 -0.029587
v 7.979639 1.046020 -0.029589
v 7.976110 1.053830 -0.027522
v 7.990521 1.022368 -0.020782
v 7.990028 1.015604 -0.015236
v 7.984832 1.038805 -0.029632
v 7.984832 1.034073 -0.028475
v 7.984832 1.045916 -0.030017
v 7.984832 1.042171 -0.030017
v 7.979913 1.049866 -0.029372
v 7.984832 1.049743 -0.029793
v 7.980331 1.053385 -0.028722
v 7.994545 1.016385 -0.014444
v 7.990471 1.034181 -0.028070
v 7.990345 1.038894 -0.029207
v 7.990214 1.042261 -0.029587
v 7.990026 1.046020 -0.029589
v 7.984832 1.053236 -0.029127
v 7.989333 1.053385 -0.028722
v 7.989751 1.049866 -0.029372
v 7.980851 1.057329 -0.027856
v 7.984832 1.057149 -0.028238
v 7.995932 1.023129 -0.019651
v 7.998552 1.017700 -0.013207
v 7.995612 1.039193 -0.027807
v 7.994389 1.050238 -0.028123
v 7.994946 1.046346 -0.028279
v 7.988813 1.057329 -0.027856
v 7.984832 1.059905 -0.026533
v 7.988193 1.060063 -0.026209
v 7.996027 1.029015 -0.024166
v 8.000785 1.024473 -0.017397
v 8.002163 1.020037 -0.011271
v 7.990544 1.028535 -0.025490
v 7.984832 1.062297 -0.024935
v 7.992519 1.057866 -0.026708
v 8.001049 1.029840 -0.021639
v 8.005339 1.031368 -0.018179
v 8.004920 1.026523 -0.014376
v 8.006022 1.023728 -0.008254
v 7.987638 1.062449 -0.024647
v 7.993554 1.053830 -0.027522
v 8.000835 1.035121 -0.024092
v 8.008178 1.029403 -0.010944
v 8.009901 1.028688 -0.004380
v 7.995881 1.034524 -0.026671
v 7.986876 1.065478 -0.021940
v 7.997214 1.054572 -0.025537
v 8.008622 1.033957 -0.014058
v 8.010773 1.036730 -0.009898
v 8.010374 1.032416 -0.007535
v 8.011473 1.035772 -0.003353
v 8.011400 1.034521 0.000176
v 7.988837 1.065922 -0.021213
v 8.008205 1.038536 -0.016182
v 8.005041 1.036337 -0.020529
v 8.011785 1.039489 -0.004832
v 8.012221 1.040768 -0.001002
v 8.012457 1.041087 0.001795
v 8.012536 1.040353 0.004733
v 8.000385 1.039733 -0.025304
v 8.004402 1.040782 -0.021827
v 7.990316 1.062886 -0.023810
v 8.012108 1.044636 -0.001618
v 8.011591 1.043479 -0.005874
v 8.012390 1.044865 0.001331
v 8.012172 1.044988 0.007458
v 8.012033 1.039770 0.007605
v 8.012468 1.045019 0.004438
v 7.999940 1.043094 -0.025823
v 7.995336 1.042558 -0.028216
v 7.991359 1.060537 -0.025236
v 8.010319 1.040960 -0.011662
v 8.011506 1.039157 0.010622
v 8.012357 1.049411 0.003911
v 7.994137 1.061330 -0.023615
v 7.995673 1.058759 -0.024792
v 8.007398 1.042605 -0.017504
v 8.009471 1.044683 -0.012877
v 7.999321 1.046911 -0.026064
v 7.992735 1.063588 -0.022447
v 7.998310 1.059945 -0.022311
v 8.006667 1.045625 -0.018213
v 8.003794 1.044054 -0.022469
v 8.011067 1.047171 -0.006625
v 8.002944 1.047866 -0.022921
v 7.998463 1.050862 -0.026060
v 8.005612 1.049363 -0.018828
v 8.007495 1.051168 -0.014327
v 8.008691 1.047473 -0.013588
v 8.011822 1.048510 -0.002148
v 8.012184 1.048970 0.000737
v 8.001795 1.051899 -0.023149
v 8.000225 1.055681 -0.022830
v 8.010390 1.049991 -0.007227
v 8.011241 1.051536 -0.002681
v 8.011651 1.052239 0.000206
v 8.002501 1.057228 -0.019461
v 8.004208 1.053506 -0.019352
v 8.009162 1.053859 -0.008082
v 8.010017 1.055706 -0.003546
v 8.010424 1.056742 -0.000596
v 8.010690 1.057813 0.002752
v 8.011877 1.052957 0.003445
v 8.012118 1.049753 0.007267
v 8.011682 1.053611 0.006991
v 8.005919 1.055428 -0.015134
v 8.007540 1.058273 -0.009123
v 8.008349 1.060316 -0.004612
v 8.008660 1.061574 -0.001561
v 8.008924 1.062857 0.001933
v 8.010622 1.058815 0.006490
v 8.011578 1.049824 0.011233
v 8.011631 1.044721 0.010989
v 8.010238 1.059619 0.011002
v 8.011166 1.054004 0.011232
v 8.006543 1.063697 -0.005627
v 8.005806 1.061718 -0.010076
v 8.006718 1.064959 -0.002448
v 8.009049 1.064023 0.005903
v 8.008903 1.065060 0.010669
v 8.010893 1.044097 0.014706
v 8.010928 1.038487 0.013926
v 8.010306 1.053718 0.015652
v 8.009430 1.059772 0.015745
v 8.008253 1.065559 0.015596
v 8.004457 1.068402 -0.003436
v 8.004545 1.069539 0.000399
v 8.006908 1.066206 0.001204
v 8.007111 1.067252 0.005376
v 8.010324 1.037787 0.017373
v 8.008410 1.059599 0.020605
v 8.007351 1.065789 0.020603
v 8.006899 1.068688 0.015338
v 8.004797 1.070370 0.004791
v 8.005092 1.071087 0.009945
v 8.007175 1.068182 0.010331
v 8.010056 1.043295 0.018517
v 8.009274 1.053093 0.020160
v 8.006453 1.068980 0.020371
v 8.001299 1.072108 0.004632
v 8.010728 1.049308 0.015333
v 8.009726 1.048499 0.019499
v 8.005478 1.071766 0.020057
v 8.001045 1.071391 0.000085
v 8.000824 1.070514 -0.003984
v 8.005305 1.071502 0.015021
v 8.001100 1.073574 0.021529
v 8.002531 1.072818 0.022556
v 8.001632 1.073397 0.018984
v 8.001712 1.073158 0.014876
v 7.997546 1.073242 -0.000229
v 8.000683 1.069501 -0.007754
v 7.996936 1.072602 -0.004611
v 8.004448 1.067193 -0.006770
v 8.001535 1.072761 0.009870
v 7.999584 1.073870 0.025055
v 7.998377 1.074867 0.018986
v 7.997980 1.074436 0.009795
v 7.998119 1.074814 0.014731
v 7.997801 1.073845 0.004473
v 8.000012 1.068088 -0.011675
v 7.996089 1.071676 -0.009219
v 8.003797 1.065363 -0.011136
v 7.998911 1.074478 0.022265
v 7.997202 1.071869 0.022604
v 7.997533 1.070612 0.024734
v 7.996786 1.073144 0.015233
v 7.996626 1.072780 0.004601
v 7.995762 1.071366 -0.009495
v 8.002156 1.062941 -0.016287
v 7.996514 1.072431 -0.000110
v 7.996212 1.072002 -0.004737
v 7.998656 1.065845 -0.016387
v 7.994317 1.068804 -0.015827
v 7.996933 1.072816 0.019696
v 7.998329 1.063578 -0.019096
v 7.996371 1.065509 -0.018652
v 7.992934 1.069562 -0.015417
v 7.996703 1.073062 0.009955
v 8.004182 1.059027 -0.015705
v 8.000463 1.061362 -0.019466
v 7.992139 1.068810 -0.016816
v 7.993395 1.067895 -0.017418
v 7.992184 1.067131 -0.018920
v 7.991081 1.068153 -0.018102
v 7.989755 1.067598 -0.019176
v 7.996477 1.062368 -0.021512
v 7.994789 1.064485 -0.020685
v 7.990636 1.066473 -0.020196
v 7.988226 1.067147 -0.020018
v 7.984832 1.040353 0.018503
v 7.965322 1.058015 0.020620
v 7.966188 1.060151 0.021196
v 7.964813 1.062865 0.021298
v 7.967134 1.063743 0.022535
v 7.968054 1.060722 0.021990
v 7.966575 1.066762 0.022845
v 7.969874 1.061260 0.022894
v 7.970079 1.064303 0.024079
v 7.969944 1.067353 0.024860
v 7.966692 1.069745 0.022791
v 7.973464 1.064845 0.025519
v 7.973505 1.062015 0.024144
v 7.973501 1.071157 0.026783
v 7.970030 1.070534 0.024999
v 7.973444 1.067822 0.026557
v 7.977171 1.062837 0.025254
v 7.977138 1.065299 0.026683
v 7.977096 1.068165 0.027846
v 7.977129 1.071611 0.028099
v 7.980950 1.065594 0.027402
v 7.981002 1.063163 0.025683
v 7.980936 1.071893 0.028905
v 7.980921 1.068384 0.028637
v 7.984405 1.068478 0.028968
v 7.984459 1.065720 0.027699
v 7.984832 1.063489 0.026112
v 7.984389 1.072013 0.029244
v 7.987222 1.065668 0.027597
v 7.986958 1.071982 0.029156
v 7.987034 1.068449 0.028876
v 7.987466 1.063265 0.025817
v 7.990320 1.065492 0.027204
v 7.990047 1.068327 0.028459
v 7.990818 1.062979 0.025442
v 7.989924 1.071833 0.028736
v 7.992756 1.065331 0.026656
v 7.992594 1.068102 0.027738
v 7.992916 1.062777 0.025112
v 7.992420 1.071357 0.028088
v 7.994287 1.065094 0.026080
v 7.993972 1.067672 0.026447
v 7.994098 1.062754 0.024903
v 7.995266 1.062686 0.024649
v 7.995841 1.064875 0.025406
v 7.997518 1.061873 0.023678
v 7.997694 1.064585 0.024720
v 7.997803 1.067223 0.024782
v 7.999790 1.061260 0.022894
v 7.999963 1.064253 0.023800
v 8.000154 1.067207 0.024416
v 8.000194 1.070141 0.024540
v 8.002628 1.063743 0.022535
v 8.001634 1.060706 0.022045
v 8.003239 1.066775 0.022845
v 8.003078 1.069799 0.022791
v 8.005022 1.062832 0.021315
v 8.003477 1.060151 0.021196
v 8.004455 1.057851 0.020705
v 7.998684 1.040353 0.011618
vn -0.0000 0.8940 -0.4481
vn -0.0000 0.8111 -0.5849
vn -0.0610 0.8163 -0.5743
vn -0.1137 0.8308 -0.5449
vn -0.1496 0.8521 -0.5015
vn -0.1625 0.8790 -0.4484
vn -0.1423 0.9135 -0.3812
vn -0.1088 0.9374 -0.3308
vn -0.0673 0.9483 -0.3101
vn -0.0000 0.9538 -0.3006
vn 0.0690 0.9484 -0.3095
vn 0.1108 0.9379 -0.3287
vn 0.1391 0.9157 -0.3771
vn 0.1545 0.8806 -0.4479
vn 0.1440 0.8515 -0.5042
vn 0.1127 0.8307 -0.5452
vn 0.0610 0.8163 -0.5743
vn 0.4939 0.6827 -0.5385
vn 0.3605 0.7554 -0.5472
vn 0.4106 0.7975 -0.4421
vn 0.5197 0.7356 -0.4345
vn -0.9040 0.4251 0.0465
vn -0.8333 0.2817 0.4757
vn -0.7429 0.6012 0.2942
vn -0.7018 0.7118 -0.0292
vn 0.1740 -0.2308 0.9573
vn 0.0748 -0.2443 0.9668
vn 0.0546 -0.4960 0.8666
vn 0.1216 -0.4717 0.8733
vn -0.2300 0.8663 -0.4434
vn -0.2007 0.9110 -0.3601
vn 0.2507 0.9394 -0.2338
vn 0.2975 0.9146 -0.2740
vn 0.1889 0.9215 -0.3393
vn 0.1614 0.9472 -0.2771
vn -0.0045 -0.5832 0.8123
vn 0.0445 -0.5810 0.8127
vn -0.0159 -0.4983 0.8669
vn 0.2580 -0.3912 0.8834
vn 0.4184 -0.0522 0.9068
vn 0.4391 -0.2232 0.8703
vn 0.2289 -0.4458 0.8654
vn -0.0833 0.7858 -0.6128
vn -0.1566 0.8055 -0.5715
vn -0.2042 0.9690 -0.1390
vn -0.1311 0.9831 -0.1278
vn -0.1434 0.9788 -0.1459
vn -0.2079 0.9650 -0.1599
vn 0.0833 0.7858 -0.6128
vn -0.0000 0.7773 -0.6292
vn 0.2587 0.9004 -0.3499
vn -0.5887 0.1152 0.8001
vn -0.6042 0.6159 0.5056
vn 0.1400 0.9888 -0.0526
vn 0.1553 0.9787 -0.1340
vn 0.8575 0.5066 -0.0893
vn 0.8230 0.5673 -0.0279
vn 0.1376 0.9791 -0.1500
vn 0.1064 0.9899 -0.0936
vn 0.5219 0.8509 -0.0604
vn 0.5307 0.8407 -0.1073
vn 0.1062 0.7444 -0.6592
vn 0.0543 0.7376 -0.6731
vn -0.0000 0.7329 -0.6804
vn -0.0543 0.7376 -0.6731
vn 0.1657 -0.5016 0.8491
vn 0.2748 -0.3885 0.8795
vn 0.3211 -0.2962 0.8995
vn 0.3532 -0.2640 0.8975
vn 0.3889 -0.2154 0.8957
vn 0.3260 -0.2345 0.9158
vn 0.5878 0.7992 -0.1258
vn 0.6075 0.7611 -0.2272
vn 0.0894 0.9881 -0.1256
vn 0.1721 0.9724 -0.1574
vn 0.1104 0.9839 -0.1402
vn -0.2549 0.9637 0.0789
vn -0.7840 0.5988 0.1637
vn -0.7737 0.5391 0.3329
vn -0.2535 0.9398 0.2290
vn 0.2225 0.9532 -0.2049
vn 0.2630 0.8563 -0.4445
vn 0.2660 0.8128 -0.5182
vn -0.0000 0.6912 -0.7227
vn -0.0708 0.6947 -0.7158
vn -0.8398 0.5262 -0.1334
vn -0.9180 0.3877 -0.0835
vn -0.9315 0.3622 0.0328
vn -0.8588 0.5105 -0.0432
vn -0.7743 0.6318 0.0357
vn -0.7333 0.6798 -0.0129
vn 0.0934 0.9956 0.0079
vn 0.0686 0.9941 0.0840
vn -0.2081 0.8330 -0.5126
vn 0.1838 0.8772 -0.4436
vn -0.9700 0.2429 -0.0049
vn -0.9715 0.2121 0.1060
vn 0.9951 -0.0552 -0.0822
vn 0.9969 -0.0559 -0.0548
vn 0.9843 -0.1663 -0.0593
vn 0.9835 -0.1607 -0.0833
vn -0.8535 -0.3927 -0.3425
vn -0.8164 -0.4685 -0.3376
vn -0.9223 -0.3359 -0.1909
vn -0.9353 -0.2751 -0.2224
vn 0.2680 -0.3421 0.9007
vn 0.2400 -0.1626 0.9571
vn 0.1881 0.9638 -0.1891
vn 0.1026 0.9617 -0.2540
vn 0.1422 0.9729 -0.1821
vn -0.9488 0.2647 -0.1723
vn -0.9602 0.2635 -0.0925
vn -0.9072 0.3909 -0.1556
vn -0.9025 0.3772 -0.2077
vn -0.1621 0.9645 -0.2085
vn -0.0943 0.9616 -0.2577
vn -0.1502 0.9450 -0.2904
vn -0.1923 0.9525 -0.2360
vn -0.9748 0.0568 -0.2155
vn -0.9373 0.0172 -0.3481
vn -0.9501 -0.1328 -0.2822
vn -0.9878 -0.0603 -0.1439
vn -0.4924 0.6121 -0.6188
vn -0.6278 0.4771 -0.6150
vn -0.6871 0.4988 -0.5283
vn -0.5289 0.6511 -0.5444
vn -0.3071 0.8224 -0.4788
vn -0.3149 0.8462 -0.4298
vn -0.2815 0.8042 -0.5235
vn -0.4226 0.9062 0.0158
vn -0.4370 0.8985 -0.0406
vn 0.1541 0.8049 -0.5731
vn 0.2062 0.7684 -0.6058
vn 0.1611 0.7554 -0.6351
vn -0.2062 0.7684 -0.6058
vn -0.2506 0.7854 -0.5660
vn -0.9278 0.2494 -0.2775
vn -0.9114 0.2416 -0.3332
vn -0.9302 0.1988 -0.3084
vn -0.9481 0.2000 -0.2473
vn -0.9839 0.0558 0.1697
vn -0.9851 -0.0092 0.1718
vn -0.9792 -0.0026 0.2027
vn -0.9737 0.0493 0.2227
vn -0.3043 0.8715 -0.3846
vn -0.2718 0.9052 -0.3268
vn -0.2280 0.9732 -0.0283
vn 0.5732 0.1142 0.8114
vn 0.3428 -0.0069 0.9394
vn 0.3217 -0.0792 0.9435
vn 0.4760 -0.0464 0.8782
vn -0.0000 0.6116 -0.7912
vn -0.0944 0.6160 -0.7821
vn -0.1479 0.9772 -0.1521
vn -0.1012 0.9839 -0.1472
vn -0.0806 0.9789 -0.1876
vn -0.1254 0.9737 -0.1904
vn -0.1062 0.7444 -0.6592
vn -0.1611 0.7555 -0.6351
vn -0.3993 0.0061 0.9168
vn -0.2729 -0.0042 0.9620
vn -0.2920 0.6322 0.7177
vn -0.4210 0.6148 0.6669
vn 0.8897 0.3062 -0.3385
vn 0.9036 0.3365 -0.2649
vn 0.9359 0.2551 -0.2427
vn 0.9188 0.2444 -0.3099
vn 0.1394 0.7029 -0.6975
vn 0.2044 0.7142 -0.6694
vn -0.9042 0.3588 -0.2316
vn -0.8512 0.4802 -0.2118
vn -0.8632 0.4529 -0.2231
vn -0.9747 0.1813 -0.1304
vn -0.9836 0.1772 -0.0333
vn -0.9380 0.2565 -0.2330
vn -0.9421 0.2600 -0.2119
vn -0.9066 0.3384 -0.2523
vn 0.2637 0.7297 -0.6309
vn 0.2360 0.7825 -0.5763
vn 0.3138 0.7440 -0.5900
vn 0.9596 0.2618 -0.1032
vn 0.9702 0.2421 -0.0073
vn 0.9854 0.1607 0.0562
vn 0.9830 0.1772 -0.0473
vn -0.4680 0.8201 -0.3294
vn -0.3771 0.8533 -0.3600
vn -0.3873 0.8207 -0.4202
vn -0.4769 0.7811 -0.4031
vn -0.0261 -0.2462 0.9689
vn -0.4722 0.7429 -0.4745
vn -0.3783 0.7928 -0.4779
vn -0.3537 0.7701 -0.5309
vn -0.4526 0.7101 -0.5393
vn 0.0708 0.6947 -0.7158
vn 0.0945 0.6160 -0.7821
vn 0.8713 -0.0664 -0.4862
vn 0.9431 0.0194 -0.3321
vn 0.9557 -0.1257 -0.2662
vn 0.8754 -0.2385 -0.4205
vn -0.3150 0.7491 -0.5827
vn -0.1130 0.5452 -0.8307
vn -0.1445 0.3803 -0.9135
vn -0.2957 0.4044 -0.8655
vn -0.2312 0.5575 -0.7973
vn -0.8355 0.1826 -0.5182
vn -0.7968 0.2720 -0.5396
vn -0.6852 0.2384 -0.6882
vn -0.7238 0.1259 -0.6784
vn 0.0630 0.9838 0.1680
vn 0.1022 0.9812 0.1639
vn 0.0970 0.9923 0.0774
vn 0.0592 0.9952 0.0774
vn 0.4929 0.6087 -0.6217
vn 0.4300 0.5850 -0.6877
vn 0.3541 0.6552 -0.6673
vn 0.4104 0.6801 -0.6075
vn 0.1886 0.6264 -0.7564
vn 0.2775 0.6390 -0.7174
vn 0.3425 0.5702 -0.7467
vn 0.2312 0.5575 -0.7973
vn 0.1130 0.5452 -0.8307
vn -0.8852 0.2225 -0.4085
vn -0.9011 0.1734 -0.3975
vn -0.3425 0.5702 -0.7467
vn -0.4300 0.5850 -0.6877
vn -0.3541 0.6553 -0.6673
vn -0.2775 0.6390 -0.7174
vn -0.0890 -0.4806 0.8724
vn -0.1310 -0.2379 0.9624
vn -0.2405 -0.2170 0.9461
vn -0.1739 -0.4349 0.8835
vn 0.9580 0.1933 -0.2120
vn 0.9720 0.1848 -0.1454
vn 0.9909 0.0894 -0.1009
vn 0.9799 0.1096 -0.1668
vn 0.0930 0.9955 -0.0156
vn 0.5181 0.8553 0.0049
vn 0.4335 0.4367 -0.7883
vn 0.2957 0.4044 -0.8654
vn -0.5424 0.4604 -0.7027
vn -0.4334 0.4367 -0.7883
vn -0.4936 0.2978 -0.8171
vn -0.6340 0.3330 -0.6980
vn -0.4522 -0.1308 0.8823
vn -0.5125 0.0379 0.8578
vn -0.5064 -0.0525 0.8607
vn -0.3586 0.9326 0.0403
vn -0.3568 0.9282 0.1057
vn -0.2808 0.9508 0.1311
vn -0.2663 0.9618 0.0638
vn 0.6492 0.7536 -0.1028
vn 0.6800 0.7315 -0.0491
vn 0.8992 0.4369 0.0260
vn 0.8569 0.5126 -0.0547
vn 0.1836 0.8301 -0.5265
vn 0.9230 0.1116 -0.3683
vn 0.9612 0.1296 -0.2433
vn 0.9796 0.0528 -0.1941
vn -0.2308 0.9329 -0.2764
vn 0.3525 -0.5927 -0.7242
vn 0.5632 -0.5469 -0.6194
vn 0.5242 -0.5746 -0.6286
vn 0.3310 -0.6125 -0.7178
vn 0.5463 0.8310 -0.1053
vn 0.8296 0.5581 -0.0170
vn 0.8158 0.5778 -0.0246
vn -0.2486 0.9473 -0.2022
vn -0.3463 0.9213 -0.1769
vn -0.1912 0.9666 -0.1704
vn 0.9056 0.1744 -0.3867
vn 0.9386 0.1968 -0.2834
vn -0.6684 0.7182 -0.1935
vn -0.6588 0.7361 -0.1555
vn -0.4511 0.8788 -0.1555
vn -0.4665 0.8655 -0.1823
vn 0.2379 0.7909 -0.5639
vn 0.1791 -0.0181 0.9837
vn 0.0864 -0.0090 0.9962
vn -0.4664 0.2627 0.8447
vn 0.0192 -0.0399 0.9990
vn -0.0313 -0.0094 0.9995
vn -0.1513 -0.0081 0.9884
vn -0.9679 0.1187 0.2217
vn -0.9789 0.1386 0.1499
vn 0.1445 0.3803 -0.9135
vn -0.0000 0.3722 -0.9282
vn -0.0000 0.5402 -0.8416
vn -0.1393 0.7029 -0.6975
vn -0.1886 0.6264 -0.7564
vn -0.2044 0.7143 -0.6694
vn -0.9949 0.0118 -0.1003
vn -0.9952 -0.0547 -0.0816
vn -0.9969 -0.0557 -0.0554
vn -0.9984 0.0115 -0.0555
vn -0.9817 -0.1706 -0.0840
vn -0.5308 0.5995 0.5990
vn -0.6785 0.7338 -0.0341
vn 0.1171 0.9929 -0.0228
vn 0.4936 0.2978 -0.8171
vn 0.5195 0.1952 -0.8318
vn 0.3406 0.1576 -0.9269
vn 0.3327 0.2510 -0.9090
vn 0.9802 0.1350 0.1447
vn 0.9844 0.0543 0.1674
vn 0.9928 0.0688 0.0977
vn -0.8489 0.1184 -0.5152
vn -0.3327 0.2510 -0.9090
vn -0.0018 0.9826 -0.1858
vn 0.0003 0.9688 -0.2479
vn 0.0851 0.9792 -0.1843
vn 0.7490 -0.3495 -0.5628
vn 0.7400 -0.4815 -0.4696
vn 0.5656 -0.4316 -0.7027
vn 0.9472 0.2630 -0.1833
vn -0.6634 -0.7480 -0.0206
vn -0.5026 -0.7230 0.4741
vn -0.6364 -0.1182 0.7622
vn -0.4141 0.6799 -0.6052
vn -0.4943 0.8423 -0.2147
vn -0.6873 0.6904 -0.2256
vn -0.8732 0.4189 -0.2490
vn -0.7106 0.6596 -0.2449
vn -0.7269 0.6259 -0.2828
vn -0.9527 0.1374 -0.2712
vn -0.9716 0.1262 -0.2003
vn 0.8569 0.2891 -0.4268
vn 0.8164 0.3425 -0.4650
vn 0.8587 0.3638 -0.3610
vn 0.1548 -0.6169 -0.7717
vn 0.1581 -0.5068 -0.8475
vn 0.3570 -0.4799 -0.8014
vn 0.9048 0.3686 -0.2132
vn 0.9073 0.3879 -0.1624
vn -0.3677 -0.1433 -0.9188
vn -0.1701 -0.1661 -0.9713
vn -0.1653 -0.3185 -0.9334
vn -0.3647 -0.2911 -0.8844
vn 0.1728 0.9747 -0.1415
vn 0.2071 0.9670 -0.1484
vn -0.3506 0.9323 -0.0895
vn -0.2109 0.9743 -0.0794
vn -0.3516 0.9244 -0.1476
vn 0.6929 0.5033 -0.5164
vn 0.7280 0.5513 -0.4076
vn 0.8505 0.5250 0.0330
vn 0.8435 0.5372 0.0030
vn -0.1070 0.9849 -0.1365
vn -0.0071 0.9910 -0.1337
vn -0.0030 0.9893 -0.1461
vn -0.0000 0.1235 -0.9923
vn 0.1662 0.1322 -0.9772
vn 0.1693 0.0365 -0.9849
vn -0.0000 0.0307 -0.9995
vn -0.1705 -0.0494 -0.9841
vn -0.0000 -0.0553 -0.9985
vn -0.0000 -0.1737 -0.9848
vn -0.5425 0.6946 -0.4726
vn 0.5707 0.8119 0.1229
vn 0.5293 0.8454 0.0716
vn -0.9968 0.0786 0.0159
vn -0.9928 0.0673 0.0995
vn -0.9853 0.1606 0.0577
vn -0.3464 0.8890 -0.2994
vn -0.3012 0.9218 -0.2441
vn 0.9256 -0.3277 -0.1896
vn 0.9421 -0.2664 -0.2037
vn 0.2502 0.9530 -0.1708
vn 0.6644 0.7205 -0.1988
vn 0.6475 0.7459 -0.1559
vn 0.8393 0.5263 -0.1362
vn 0.8433 0.5045 -0.1856
vn -0.1003 0.9880 -0.1176
vn -0.0137 0.9933 -0.1144
vn -0.7421 0.3422 -0.5763
vn -0.8530 0.2871 -0.4358
vn -0.8119 0.3389 -0.4754
vn 0.6026 0.6223 0.4997
vn -0.0138 0.6340 0.7732
vn 0.8535 -0.3927 -0.3425
vn 0.4985 0.8340 -0.2364
vn 0.4734 0.8601 -0.1901
vn 0.6959 0.6800 -0.2307
vn 0.9179 0.3873 -0.0867
vn -0.6668 0.7394 -0.0934
vn -0.4447 0.8899 -0.1014
vn -0.0865 0.9873 -0.1334
vn -0.6384 0.7688 -0.0364
vn -0.1369 0.9843 -0.1114
vn -0.4464 0.8548 -0.2647
vn -0.5204 0.8136 -0.2594
vn -0.4099 0.8875 -0.2106
vn -0.0000 -0.3271 -0.9450
vn -0.0000 -0.5147 -0.8573
vn -0.1581 -0.5068 -0.8475
vn -0.0201 0.9970 -0.0742
vn -0.0229 0.9996 -0.0153
vn 0.0565 0.9983 -0.0147
vn 0.0663 0.9946 -0.0800
vn -0.3576 0.9337 -0.0187
vn 0.5711 -0.2430 -0.7841
vn 0.7520 -0.1648 -0.6383
vn 0.9853 -0.0096 0.1705
vn 0.9916 0.0019 0.1295
vn 0.3677 -0.1433 -0.9188
vn 0.5700 -0.1034 -0.8151
vn 0.3647 -0.2911 -0.8844
vn -0.7304 0.5776 -0.3646
vn -0.8705 0.3750 -0.3187
vn 0.5742 0.5481 0.6082
vn 0.1717 0.6410 0.7481
vn 0.9968 0.0800 -0.0005
vn -0.0813 0.9836 -0.1609
vn 0.9797 -0.0044 0.2002
vn 0.6634 -0.7480 -0.0221
vn 0.6603 -0.7502 -0.0349
vn 0.1085 0.9837 -0.1436
vn -0.5609 -0.0059 -0.8279
vn -0.3623 -0.0339 -0.9314
vn -0.5700 -0.1034 -0.8151
vn -0.3407 -0.3269 0.8815
vn -0.3656 -0.2928 0.8835
vn -0.4126 -0.2206 0.8838
vn -0.3674 -0.2684 0.8905
vn 0.5424 0.4604 -0.7027
vn -0.2385 0.9711 -0.0061
vn -0.1525 0.9883 -0.0103
vn -0.1310 0.9884 -0.0770
vn -0.0232 0.9968 0.0764
vn -0.9597 0.1942 -0.2031
vn -0.9814 0.1079 -0.1588
vn -0.9864 0.0918 -0.1364
vn -0.9660 0.1852 -0.1803
vn 0.4291 0.8967 -0.1087
vn 0.4182 0.9059 -0.0669
vn 0.4471 0.8823 -0.1473
vn -0.1870 0.9790 -0.0808
vn -0.9927 0.0258 -0.1175
vn 0.9714 0.1085 0.2112
vn 0.9751 0.0430 0.2176
vn -0.6603 -0.7503 -0.0340
vn 0.9915 0.0382 -0.1243
vn 0.7238 0.1259 -0.6784
vn 0.5466 0.0779 -0.8338
vn 0.6852 0.2383 -0.6882
vn -0.0965 0.9952 -0.0158
vn -0.0943 0.9927 -0.0758
vn -0.1042 0.9918 0.0735
vn -0.1548 -0.6169 -0.7717
vn -0.0000 -0.6225 -0.7827
vn -0.0000 -0.6372 -0.7707
vn -0.1485 -0.6331 -0.7597
vn -0.1693 0.0365 -0.9849
vn -0.2373 -0.4128 0.8794
vn -0.2742 -0.3669 0.8889
vn 0.4437 -0.1639 0.8810
vn 0.6769 -0.0193 0.7358
vn 0.8900 0.1756 0.4209
vn 0.4945 -0.0297 0.8687
vn 0.3868 0.2432 0.8895
vn -0.9922 -0.1154 -0.0469
vn -0.9862 -0.1589 -0.0454
vn -0.9665 -0.2562 -0.0146
vn 0.0948 0.9448 0.3136
vn -0.7847 0.1489 0.6018
vn -0.8829 0.2965 -0.3642
vn 0.1291 0.9909 -0.0393
vn -0.9956 -0.0440 -0.0823
vn 0.8697 0.4153 -0.2667
vn 0.7232 0.6294 0.2844
vn 0.4071 0.9134 -0.0067
vn 0.8892 0.2239 -0.3991
vn 0.0946 0.6471 0.7565
vn 0.6380 -0.1216 0.7604
vn 0.5033 -0.7233 0.4727
vn 0.8592 0.0452 -0.5096
vn 0.6340 0.3330 -0.6979
vn -0.5195 0.1952 -0.8318
vn 0.8579 0.4674 -0.2132
vn 0.9974 0.0252 -0.0682
vn 0.9324 0.3609 0.0199
vn -0.5345 0.7846 -0.3141
vn -0.5418 0.7423 -0.3943
vn -0.6218 -0.0625 0.7807
vn -0.9912 0.0008 0.1323
vn 0.9734 0.2079 0.0960
vn -0.3538 -0.1824 0.9173
vn 0.7279 0.6191 -0.2946
vn 0.5198 0.7935 -0.3163
vn 0.9084 0.4020 0.1151
vn 0.8693 0.4880 0.0789
vn -0.8997 0.3130 -0.3044
vn -0.1026 0.9668 -0.2341
vn 0.7422 0.3422 -0.5763
vn 0.6278 0.4771 -0.6150
vn -0.3310 -0.6125 -0.7178
vn -0.3525 -0.5927 -0.7242
vn -0.9432 0.3017 0.1392
vn 0.8164 -0.4685 -0.3376
vn -0.9888 0.0469 -0.1417
vn -0.9987 0.0132 0.0483
vn 0.7968 0.2720 -0.5396
vn -0.9176 0.1112 -0.3817
vn 0.2273 0.7519 0.6189
vn 0.8489 0.1184 -0.5152
vn 0.8355 0.1826 -0.5182
vn 0.9991 0.0174 0.0379
vn 0.6976 -0.5276 -0.4848
vn -0.9930 0.0838 -0.0836
vn 0.8300 0.3037 0.4678
vn 0.7873 0.1553 0.5967
vn 0.9464 0.3013 0.1164
vn -0.8419 0.5082 -0.1815
vn -0.1947 0.9692 0.1509
vn -0.1800 0.9811 0.0713
vn 0.1653 -0.3185 -0.9334
vn 0.7460 -0.0369 -0.6649
vn 0.7374 0.0484 -0.6737
vn -0.6304 0.7753 -0.0372
vn -0.9634 0.1811 0.1977
vn 0.1485 -0.6331 -0.7597
vn -0.5466 0.0779 -0.8338
vn -0.7374 0.0484 -0.6737
vn 0.5609 -0.0059 -0.8279
vn -0.0342 0.6478 0.7611
vn -0.1645 0.6435 0.7476
vn 0.3623 -0.0339 -0.9314
vn 0.1701 -0.1661 -0.9713
vn 0.1637 0.2167 -0.9624
vn 0.1705 -0.0494 -0.9841
vn 0.3534 0.0516 -0.9341
vn -0.0232 0.9853 0.1691
vn -0.1662 0.1322 -0.9772
vn -0.1637 0.2167 -0.9624
vn -0.0000 0.2056 -0.9786
vn -0.5242 -0.5746 -0.6286
vn -0.5632 -0.5469 -0.6194
vn -0.8513 0.3459 -0.3947
vn -0.7184 0.5314 -0.4489
vn -0.7460 -0.0369 -0.6649
vn -0.8592 0.0452 -0.5096
vn -0.3406 0.1576 -0.9269
vn -0.3534 0.0516 -0.9341
vn -0.3570 -0.4799 -0.8014
vn -0.2637 0.7297 -0.6309
vn -0.4071 0.9097 0.0816
vn -0.7490 -0.3495 -0.5628
vn -0.5656 -0.4316 -0.7027
vn -0.7400 -0.4815 -0.4696
vn -0.6976 -0.5276 -0.4848
vn -0.5711 -0.2430 -0.7841
vn -0.7520 -0.1648 -0.6383
vn -0.8754 -0.2385 -0.4205
vn 0.4028 0.9132 0.0619
vn -0.8713 -0.0664 -0.4862
vn 0.9890 -0.0566 -0.1368
vn 0.9675 -0.2525 -0.0148
vn 0.9687 0.1710 0.1798
vn 0.1803 -0.1878 0.9655
vn 0.2996 -0.1222 0.9462
vn 0.6665 0.0535 0.7436
vn -0.6690 0.0580 0.7410
vn 0.6261 -0.0765 0.7760
vn 0.6220 -0.0130 0.7829
vn -0.1096 0.9804 0.1636
vn -0.0646 -0.5592 0.8265
vn 0.0511 -0.1318 0.9900
vn -0.3220 -0.1161 0.9396
vn -0.2033 -0.2019 0.9581
vn -0.6649 -0.7453 -0.0496
vn -0.6478 0.7578 -0.0779
vn 0.0288 -0.5668 0.8233
vn -0.0319 -0.5682 0.8223
vn -0.6194 0.0023 0.7850
vn 0.6654 -0.7447 -0.0515
vn -0.0744 -0.1597 0.9844
vn 0.0940 -0.5508 0.8293
vn -0.1423 -0.4972 0.8559
vn -0.1073 -0.9705 -0.2158
vt 0.000000 0.000000
s 1
f 1/1/1 2/1/2 3/1/3
f 1/1/1 3/1/3 4/1/4
f 1/1/1 4/1/4 5/1/5
f 1/1/1 5/1/5 6/1/6
f 1/1/1 6/1/6 7/1/7
f 1/1/1 7/1/7 8/1/8
f 1/1/1 8/1/8 9/1/9
f 1/1/1 9/1/9 10/1/10
f 1/1/1 10/1/10 11/1/11
f 1/1/1 11/1/11 12/1/12
f 1/1/1 12/1/12 13/1/13
f 1/1/1 13/1/13 14/1/14
f 1/1/1 14/1/14 15/1/15
f 1/1/1 15/1/15 16/1/16
f 1/1/1 17/1/17 2/1/2
f 1/1/1 16/1/16 17/1/17
f 500/1/18 501/1/19 40/1/20 488/1/21
f 216/1/22 218/1/23 215/1/24 214/1/25
f 551/1/26 548/1/27 546/1/28 550/1/29
f 49/1/30 56/1/31 7/1/7 6/1/6
f 30/1/32 28/1/33 21/1/34 20/1/35
f 544/1/36 549/1/37 546/1/28 543/1/38
f 561/1/39 562/1/40 558/1/41 560/1/42
f 3/1/3 27/1/43 36/1/44 4/1/4
f 113/1/45 130/1/46 112/1/47 107/1/48
f 17/1/17 25/1/49 26/1/50 2/1/2
f 21/1/34 28/1/33 29/1/51
f 215/1/24 218/1/23 528/1/52 213/1/53
f 158/1/54 159/1/55 43/1/56 153/1/57
f 152/1/58 165/1/59 178/1/60 177/1/61
f 25/1/49 517/1/62 35/1/63 26/1/50
f 26/1/50 34/1/64 33/1/65
f 26/1/50 35/1/63 34/1/64
f 556/1/66 560/1/42 558/1/41 554/1/67
f 566/1/68 571/1/69 570/1/70 567/1/71
f 28/1/33 30/1/32 37/1/72
f 28/1/33 37/1/72 29/1/51
f 29/1/51 37/1/72 38/1/73
f 146/1/74 152/1/58 133/1/75 139/1/76
f 484/1/77 502/1/78 492/1/79 491/1/80
f 30/1/32 20/1/35 39/1/81
f 31/1/82 40/1/20 32/1/83
f 41/1/84 71/1/85 33/1/65 34/1/64
f 148/1/86 222/1/87 219/1/88 217/1/89
f 494/1/90 506/1/91 180/1/92 186/1/93
f 4/1/4 36/1/44 42/1/94 5/1/5
f 38/1/73 43/1/56 40/1/20
f 13/1/13 21/1/34 22/1/95 14/1/14
f 225/1/96 224/1/97 219/1/88 222/1/87
f 384/1/98 385/1/99 379/1/100 378/1/101
f 276/1/102 277/1/103 269/1/104 275/1/105
f 563/1/106 564/1/107 562/1/40 561/1/39
f 44/1/108 19/1/109 50/1/110
f 160/1/111 227/1/112 154/1/113 155/1/114
f 105/1/115 74/1/116 62/1/117 100/1/118
f 266/1/119 285/1/120 274/1/121 273/1/122
f 88/1/123 300/1/124 98/1/125 92/1/126
f 49/1/30 48/1/127 54/1/128
f 48/1/127 49/1/30 42/1/94 47/1/129
f 215/1/24 211/1/130 144/1/131 214/1/25
f 24/1/132 512/1/133 513/1/134 25/1/49
f 36/1/44 58/1/135 46/1/136
f 167/1/137 261/1/138 260/1/139 251/1/140
f 234/1/141 243/1/142 242/1/143 235/1/144
f 56/1/31 55/1/145 60/1/146
f 494/1/90 502/1/78 484/1/77 486/1/147
f 573/1/148 569/1/149 568/1/150 572/1/151
f 41/1/84 361/1/152 77/1/153 71/1/85
f 110/1/154 119/1/155 114/1/156 111/1/157
f 27/1/43 65/1/158 57/1/159
f 531/1/160 537/1/161 194/1/162 203/1/163
f 434/1/164 435/1/165 427/1/166 426/1/167
f 380/1/168 517/1/62 513/1/134 516/1/169
f 118/1/170 155/1/114 122/1/171 116/1/172
f 233/1/173 232/1/174 227/1/112 160/1/111
f 124/1/175 161/1/176 118/1/170 117/1/177
f 511/1/178 512/1/133 509/1/179 510/1/180
f 429/1/181 438/1/182 432/1/183 430/1/184
f 16/1/16 24/1/132 25/1/49 17/1/17
f 82/1/185 81/1/186 59/1/187 76/1/188
f 546/1/28 548/1/27 542/1/189 543/1/38
f 70/1/190 66/1/191 53/1/192 69/1/193
f 41/1/84 373/1/194 367/1/195 361/1/152
f 381/1/196 399/1/197 376/1/198 375/1/199
f 46/1/136 64/1/200 53/1/192 47/1/129
f 86/1/201 347/1/202 91/1/203 87/1/204
f 288/1/205 293/1/206 294/1/207 292/1/208
f 198/1/209 199/1/210 190/1/211 189/1/212
f 503/1/213 514/1/214 515/1/215 504/1/216
f 389/1/217 407/1/218 402/1/219 398/1/220
f 389/1/217 398/1/220 356/1/221 367/1/195
f 280/1/222 286/1/223 260/1/139 261/1/138
f 85/1/224 317/1/225 80/1/226 78/1/227
f 538/1/228 541/1/229 536/1/230 535/1/231
f 422/1/232 423/1/233 418/1/234 417/1/235
f 185/1/236 184/1/237 178/1/60 165/1/59
f 402/1/219 403/1/238 362/1/239 398/1/220
f 301/1/240 324/1/241 309/1/242 302/1/243
f 511/1/178 516/1/169 513/1/134 512/1/133
f 527/1/244 532/1/245 528/1/52 524/1/246
f 150/1/247 209/1/248 175/1/249 170/1/250
f 462/1/251 473/1/252 460/1/253 463/1/254
f 14/1/14 22/1/95 23/1/255 15/1/15
f 405/1/256 411/1/257 391/1/258 399/1/197
f 61/1/259 100/1/118 62/1/117
f 349/1/260 358/1/261 350/1/262 339/1/263
f 147/1/264 177/1/61 173/1/265 172/1/266
f 99/1/267 101/1/268 107/1/48 106/1/269
f 416/1/270 421/1/271 411/1/257 405/1/256
f 128/1/272 141/1/273 134/1/274 129/1/275
f 509/1/179 24/1/132 23/1/255 505/1/276
f 551/1/26 553/1/277 547/1/278 548/1/27
f 568/1/150 569/1/149 493/1/279 565/1/280
f 542/1/189 545/1/281 540/1/282 541/1/229
f 234/1/141 235/1/144 228/1/283 230/1/284
f 356/1/221 354/1/285 348/1/286 355/1/287
f 105/1/115 111/1/157 74/1/116
f 72/1/288 79/1/289 78/1/227 73/1/290
f 248/1/291 257/1/292 255/1/293 246/1/294
f 274/1/121 275/1/105 268/1/295 273/1/122
f 528/1/52 532/1/245 210/1/296 213/1/53
f 180/1/92 506/1/91 495/1/297 174/1/298
f 374/1/299 413/1/300 352/1/301 368/1/302
f 432/1/183 442/1/303 439/1/304 431/1/305
f 280/1/222 288/1/205 287/1/306 286/1/223
f 91/1/203 329/1/307 309/1/242 324/1/241
f 110/1/154 111/1/157 105/1/115 106/1/269
f 114/1/156 121/1/308 18/1/309
f 18/1/309 121/1/308 52/1/310
f 364/1/311 365/1/312 358/1/261 363/1/313
f 429/1/181 430/1/184 423/1/233 428/1/314
f 242/1/143 262/1/315 254/1/316 245/1/317
f 68/1/318 69/1/193 53/1/192 64/1/200
f 128/1/272 129/1/275 95/1/319 123/1/320
f 109/1/321 116/1/172 102/1/322 103/1/323
f 260/1/139 270/1/324 252/1/325 251/1/140
f 433/1/326 507/1/327 444/1/328 434/1/164
f 330/1/329 360/1/330 357/1/331 349/1/260
f 428/1/314 436/1/332 437/1/333 429/1/181
f 320/1/334 326/1/335 311/1/336 312/1/337
f 127/1/338 133/1/75 51/1/339
f 46/1/136 47/1/129 42/1/94 36/1/44
f 567/1/71 568/1/150 565/1/280 564/1/107
f 137/1/340 138/1/341 113/1/45 135/1/342
f 444/1/328 507/1/327 497/1/343 490/1/344
f 183/1/345 186/1/93 180/1/92 179/1/346
f 125/1/347 132/1/348 120/1/349 119/1/155
f 337/1/350 346/1/351 343/1/352 334/1/353
f 327/1/354 335/1/355 332/1/356 326/1/335
f 69/1/193 92/1/126 75/1/357 70/1/190
f 199/1/210 201/1/358 191/1/359 190/1/211
f 237/1/360 238/1/361 229/1/362 232/1/174
f 229/1/362 230/1/284 224/1/97 225/1/96
f 67/1/363 93/1/364 61/1/259 60/1/146
f 91/1/203 324/1/241 85/1/224 87/1/204
f 378/1/101 379/1/100 371/1/365 377/1/366
f 380/1/168 389/1/217 367/1/195 373/1/194
f 45/1/367 147/1/264 37/1/72
f 454/1/368 461/1/369 456/1/370 455/1/371
f 131/1/372 151/1/373 132/1/348 125/1/347
f 118/1/170 161/1/176 160/1/111 155/1/114
f 279/1/374 293/1/206 272/1/375 271/1/376
f 569/1/149 573/1/148 475/1/377 483/1/378
f 376/1/198 377/1/366 370/1/379 375/1/199
f 472/1/380 471/1/381 454/1/368 453/1/382
f 455/1/371 456/1/370 446/1/383 437/1/333
f 134/1/274 141/1/273 142/1/384 140/1/385
f 478/1/386 498/1/387 495/1/297 487/1/388
f 89/1/389 96/1/390 95/1/319 94/1/391
f 43/1/56 159/1/55 40/1/20
f 567/1/71 570/1/70 572/1/151 568/1/150
f 127/1/338 51/1/339 44/1/108 50/1/110
f 311/1/336 333/1/392 319/1/393 310/1/394
f 157/1/395 176/1/396 171/1/397 164/1/398
f 2/1/2 26/1/50 27/1/43 3/1/3
f 144/1/131 145/1/399 137/1/340 140/1/385
f 369/1/400 382/1/401 364/1/311 363/1/313
f 439/1/304 440/1/402 393/1/403 431/1/305
f 351/1/404 387/1/405 369/1/400 372/1/406
f 109/1/321 103/1/323 90/1/407 108/1/408
f 206/1/409 201/1/358 199/1/210 205/1/410
f 401/1/411 430/1/184 432/1/183 431/1/305
f 472/1/380 480/1/412 478/1/386 471/1/381
f 448/1/413 449/1/414 400/1/415 440/1/402
f 120/1/349 132/1/348 139/1/76 126/1/416
f 314/1/417 323/1/418 320/1/334 316/1/419
f 525/1/420 526/1/421 522/1/422 523/1/423
f 402/1/219 514/1/214 408/1/424 403/1/238
f 143/1/425 163/1/426 136/1/427 138/1/341
f 182/1/428 189/1/212 171/1/397 176/1/396
f 134/1/274 140/1/385 137/1/340 135/1/342
f 168/1/429 249/1/430 241/1/431 240/1/432
f 462/1/251 482/1/433 477/1/434 473/1/252
f 48/1/127 66/1/191 59/1/187 54/1/128
f 467/1/435 487/1/388 485/1/436 482/1/433
f 462/1/251 463/1/254 456/1/370 461/1/369
f 250/1/437 248/1/291 241/1/431 249/1/430
f 417/1/235 411/1/257 421/1/271 422/1/232
f 450/1/438 468/1/439 439/1/304 442/1/303
f 253/1/440 262/1/315 242/1/143 243/1/142
f 112/1/47 125/1/347 119/1/155 110/1/154
f 411/1/257 417/1/235 390/1/441 391/1/258
f 412/1/442 406/1/443 413/1/300 419/1/444
f 162/1/445 176/1/396 157/1/395 156/1/446
f 162/1/445 181/1/447 182/1/428 176/1/396
f 305/1/448 325/1/449 313/1/450 307/1/451
f 334/1/353 335/1/355 327/1/354 328/1/452
f 532/1/245 531/1/160 203/1/163 210/1/296
f 525/1/420 530/1/453 529/1/454 526/1/421
f 364/1/311 382/1/401 381/1/196 375/1/199
f 178/1/60 184/1/237 183/1/345 179/1/346
f 555/1/455 559/1/456 207/1/457 557/1/458
f 558/1/41 562/1/40 208/1/459 559/1/456
f 35/1/63 517/1/62 380/1/168 373/1/194
f 264/1/460 265/1/461 256/1/462 255/1/293
f 502/1/78 494/1/90 186/1/93 193/1/463
f 49/1/30 6/1/6 5/1/5 42/1/94
f 221/1/464 524/1/246 528/1/52 218/1/23
f 102/1/322 123/1/320 95/1/319 96/1/390
f 427/1/166 435/1/165 436/1/332 428/1/314
f 118/1/170 116/1/172 109/1/321 117/1/177
f 272/1/375 280/1/222 261/1/138 267/1/465
f 52/1/310 126/1/416 127/1/338 50/1/110
f 504/1/216 515/1/215 511/1/178 510/1/180
f 498/1/387 166/1/466 174/1/298 495/1/297
f 259/1/467 273/1/122 268/1/295 264/1/460
f 98/1/125 300/1/124 279/1/374 271/1/376
f 185/1/236 190/1/211 191/1/359 184/1/237
f 434/1/164 444/1/328 443/1/468 435/1/165
f 99/1/267 100/1/118 61/1/259 93/1/364
f 470/1/469 473/1/252 477/1/434 476/1/470
f 415/1/471 426/1/167 421/1/271 416/1/270
f 364/1/311 375/1/199 370/1/379 365/1/312
f 428/1/314 423/1/233 422/1/232 427/1/166
f 198/1/209 204/1/472 205/1/410 199/1/210
f 448/1/413 464/1/473 457/1/474 449/1/414
f 381/1/196 404/1/475 405/1/256 399/1/197
f 423/1/233 430/1/184 401/1/411 418/1/234
f 374/1/299 420/1/476 419/1/444 413/1/300
f 309/1/242 318/1/477 294/1/207 302/1/243
f 53/1/192 66/1/191 48/1/127 47/1/129
f 171/1/397 185/1/236 165/1/59 164/1/398
f 120/1/349 121/1/308 114/1/156 119/1/155
f 443/1/468 445/1/478 436/1/332 435/1/165
f 418/1/234 392/1/479 390/1/441 417/1/235
f 456/1/370 463/1/254 447/1/480 446/1/383
f 90/1/407 103/1/323 84/1/481 83/1/482
f 242/1/143 245/1/317 236/1/483 235/1/144
f 244/1/484 243/1/142 234/1/141 238/1/361
f 438/1/182 446/1/383 447/1/480 441/1/485
f 527/1/244 533/1/486 531/1/160 532/1/245
f 453/1/382 481/1/487 479/1/488 472/1/380
f 529/1/454 535/1/231 536/1/230 533/1/486
f 191/1/359 201/1/358 200/1/489 192/1/490
f 504/1/216 510/1/180 501/1/19 500/1/18
f 248/1/291 250/1/437 257/1/292
f 115/1/491 117/1/177 109/1/321 108/1/408
f 142/1/384 217/1/89 216/1/22 214/1/25
f 441/1/485 442/1/303 432/1/183 438/1/182
f 131/1/372 125/1/347 112/1/47 130/1/46
f 255/1/293 257/1/292 264/1/460
f 488/1/21 40/1/20 489/1/492 479/1/488
f 257/1/292 259/1/467 264/1/460
f 424/1/493 508/1/494 497/1/343 507/1/327
f 144/1/131 211/1/130 150/1/247 145/1/399
f 264/1/460 268/1/295 265/1/461
f 301/1/240 302/1/243 279/1/374 300/1/124
f 265/1/461 268/1/295 269/1/104
f 305/1/448 307/1/451 299/1/495 298/1/496
f 501/1/19 510/1/180 509/1/179 505/1/276
f 221/1/464 218/1/23 216/1/22 220/1/497
f 9/1/9 74/1/116 18/1/309 10/1/10
f 268/1/295 275/1/105 269/1/104
f 370/1/379 377/1/366 371/1/365 366/1/498
f 266/1/119 273/1/122 259/1/467 258/1/499
f 82/1/185 89/1/389 67/1/363 81/1/186
f 237/1/360 247/1/500 244/1/484 238/1/361
f 252/1/325 270/1/324 266/1/119 258/1/499
f 507/1/327 433/1/326 425/1/501 424/1/493
f 278/1/502 285/1/120 266/1/119 270/1/324
f 208/1/459 202/1/503 200/1/489 207/1/457
f 35/1/63 373/1/194 41/1/84 34/1/64
f 415/1/471 416/1/270 409/1/504 414/1/505
f 409/1/504 416/1/270 405/1/256 404/1/475
f 433/1/326 415/1/471 414/1/505 425/1/501
f 401/1/411 431/1/305 393/1/403 395/1/506
f 358/1/261 365/1/312 359/1/507 350/1/262
f 233/1/173 239/1/508 237/1/360 232/1/174
f 460/1/253 466/1/509 459/1/510 452/1/511
f 122/1/171 155/1/114 154/1/113 149/1/512
f 175/1/249 187/1/513 169/1/514 170/1/250
f 419/1/444 425/1/501 414/1/505 412/1/442
f 424/1/493 425/1/501 419/1/444 420/1/476
f 340/1/515 372/1/406 357/1/331 360/1/330
f 388/1/516 410/1/517 409/1/504 404/1/475
f 498/1/387 499/1/518 158/1/54 166/1/466
f 408/1/424 508/1/494 424/1/493 420/1/476
f 408/1/424 514/1/214 503/1/213 508/1/494
f 224/1/97 230/1/284 228/1/283 223/1/519
f 161/1/176 240/1/432 233/1/173 160/1/111
f 330/1/329 349/1/260 339/1/263 331/1/520
f 357/1/331 363/1/313 358/1/261 349/1/260
f 292/1/208 315/1/521 314/1/417 308/1/522
f 132/1/348 151/1/373 146/1/74 139/1/76
f 356/1/221 398/1/220 362/1/239 354/1/285
f 233/1/173 240/1/432 241/1/431 239/1/508
f 454/1/368 455/1/371 445/1/478 453/1/382
f 330/1/329 331/1/520 313/1/450 325/1/449
f 412/1/442 410/1/517 396/1/523 406/1/443
f 540/1/282 545/1/281 196/1/524 195/1/525
f 76/1/188 83/1/482 84/1/481 82/1/185
f 80/1/226 317/1/225 88/1/123 68/1/318
f 340/1/515 360/1/330 319/1/393 333/1/392
f 319/1/393 360/1/330 330/1/329 325/1/449
f 351/1/404 397/1/526 396/1/523 387/1/405
f 120/1/349 126/1/416 52/1/310 121/1/308
f 351/1/404 372/1/406 340/1/515 341/1/527
f 148/1/86 217/1/89 142/1/384 141/1/273
f 345/1/528 368/1/302 352/1/301 346/1/351
f 396/1/523 410/1/517 388/1/516 387/1/405
f 362/1/239 403/1/238 374/1/299 368/1/302
f 342/1/529 397/1/526 351/1/404 341/1/527
f 353/1/530 397/1/526 342/1/529 343/1/352
f 169/1/514 181/1/447 162/1/445 163/1/426
f 353/1/530 406/1/443 396/1/523 397/1/526
f 545/1/281 547/1/278 204/1/472 196/1/524
f 342/1/529 341/1/527 332/1/356 335/1/355
f 196/1/524 204/1/472 198/1/209 197/1/531
f 334/1/353 343/1/352 342/1/529 335/1/355
f 352/1/301 353/1/530 343/1/352 346/1/351
f 538/1/228 543/1/38 542/1/189 541/1/229
f 75/1/357 83/1/482 76/1/188 70/1/190
f 250/1/437 258/1/499 259/1/467 257/1/292
f 59/1/187 81/1/186 55/1/145 54/1/128
f 332/1/356 333/1/392 311/1/336 326/1/335
f 332/1/356 341/1/527 340/1/515 333/1/392
f 542/1/189 548/1/27 547/1/278 545/1/281
f 131/1/372 156/1/446 157/1/395 151/1/373
f 337/1/350 334/1/353 328/1/452 336/1/532
f 338/1/533 344/1/534 337/1/350 336/1/532
f 348/1/286 354/1/285 345/1/528 344/1/534
f 361/1/152 367/1/195 356/1/221 355/1/287
f 497/1/343 500/1/18 488/1/21 490/1/344
f 298/1/496 299/1/495 291/1/535 289/1/536
f 104/1/537 108/1/408 90/1/407 97/1/538
f 287/1/306 308/1/522 296/1/539 295/1/540
f 336/1/532 322/1/541 329/1/307 338/1/533
f 322/1/541 336/1/532 328/1/452 321/1/542
f 136/1/427 163/1/426 162/1/445 156/1/446
f 86/1/201 355/1/287 348/1/286 347/1/202
f 306/1/543 310/1/394 305/1/448 298/1/496
f 63/1/544 80/1/226 68/1/318 64/1/200
f 215/1/24 213/1/53 212/1/545 211/1/130
f 306/1/543 312/1/337 311/1/336 310/1/394
f 516/1/169 407/1/218 389/1/217 380/1/168
f 361/1/152 355/1/287 86/1/201 77/1/153
f 91/1/203 347/1/202 338/1/533 329/1/307
f 408/1/424 420/1/476 374/1/299 403/1/238
f 283/1/546 304/1/547 289/1/536 281/1/548
f 281/1/548 284/1/549 277/1/103 276/1/102
f 84/1/481 103/1/323 102/1/322 96/1/390
f 303/1/550 304/1/547 283/1/546 297/1/551
f 303/1/550 312/1/337 306/1/543 304/1/547
f 276/1/102 282/1/552 283/1/546 281/1/548
f 470/1/469 476/1/470 474/1/553 475/1/377
f 303/1/550 316/1/419 320/1/334 312/1/337
f 260/1/139 286/1/223 278/1/502 270/1/324
f 309/1/242 329/1/307 322/1/541 318/1/477
f 274/1/121 282/1/552 276/1/102 275/1/105
f 246/1/294 255/1/293 256/1/462 247/1/500
f 19/1/109 11/1/11 10/1/10 18/1/309
f 77/1/153 79/1/289 72/1/288 71/1/85
f 72/1/288 65/1/158 33/1/65 71/1/85
f 285/1/120 290/1/554 282/1/552 274/1/121
f 290/1/554 297/1/551 283/1/546 282/1/552
f 492/1/79 493/1/279 483/1/378 491/1/80
f 378/1/101 383/1/555 384/1/98
f 379/1/100 385/1/99 386/1/556
f 296/1/539 316/1/419 303/1/550 297/1/551
f 296/1/539 297/1/551 290/1/554 295/1/540
f 441/1/485 447/1/480 452/1/511 451/1/557
f 136/1/427 156/1/446 131/1/372 130/1/46
f 134/1/274 135/1/342 101/1/268 129/1/275
f 575/1/558 574/1/559 570/1/70 571/1/69
f 62/1/117 8/1/8 7/1/7 56/1/31
f 24/1/132 16/1/16 15/1/15 23/1/255
f 241/1/431 248/1/291 246/1/294 239/1/508
f 314/1/417 316/1/419 296/1/539 308/1/522
f 321/1/542 323/1/418 314/1/417 315/1/521
f 175/1/249 209/1/248 210/1/296 203/1/163
f 104/1/537 267/1/465 115/1/491 108/1/408
f 445/1/478 455/1/371 437/1/333 436/1/332
f 536/1/230 541/1/229 540/1/282 537/1/161
f 383/1/555 391/1/258 390/1/441 384/1/98
f 278/1/502 295/1/540 290/1/554 285/1/120
f 173/1/265 174/1/298 166/1/466 172/1/266
f 322/1/541 321/1/542 315/1/521 318/1/477
f 112/1/47 110/1/154 106/1/269 107/1/48
f 85/1/224 324/1/241 301/1/240 317/1/225
f 252/1/325 258/1/499 250/1/437 249/1/430
f 154/1/113 222/1/87 148/1/86 149/1/512
f 451/1/557 452/1/511 459/1/510 458/1/560
f 376/1/198 399/1/197 391/1/258 383/1/555
f 490/1/344 481/1/487 443/1/468 444/1/328
f 292/1/208 308/1/522 287/1/306 288/1/205
f 223/1/519 226/1/561 221/1/464 220/1/497
f 345/1/528 346/1/351 337/1/350 344/1/534
f 443/1/468 481/1/487 453/1/382 445/1/478
f 388/1/516 404/1/475 381/1/196 382/1/401
f 294/1/207 318/1/477 315/1/521 292/1/208
f 67/1/363 89/1/389 94/1/391 93/1/364
f 447/1/480 463/1/254 460/1/253 452/1/511
f 407/1/218 516/1/169 511/1/178 515/1/215
f 469/1/562 468/1/439 450/1/438 465/1/563
f 171/1/397 189/1/212 190/1/211 185/1/236
f 376/1/198 383/1/555 378/1/101 377/1/366
f 147/1/264 172/1/266 153/1/57 37/1/72
f 78/1/227 80/1/226 63/1/544 73/1/290
f 495/1/297 506/1/91 485/1/436 487/1/388
f 481/1/487 490/1/344 488/1/21 479/1/488
f 194/1/162 195/1/525 188/1/564 187/1/513
f 227/1/112 232/1/174 229/1/362 225/1/96
f 115/1/491 167/1/137 124/1/175 117/1/177
f 183/1/345 192/1/490 193/1/463 186/1/93
f 150/1/247 170/1/250 143/1/425 145/1/399
f 104/1/537 271/1/376 272/1/375 267/1/465
f 75/1/357 97/1/538 90/1/407 83/1/482
f 433/1/326 434/1/164 426/1/167 415/1/471
f 154/1/113 227/1/112 225/1/96 222/1/87
f 173/1/265 179/1/346 180/1/92 174/1/298
f 458/1/560 465/1/563 450/1/438 451/1/557
f 219/1/88 220/1/497 216/1/22 217/1/89
f 537/1/161 540/1/282 195/1/525 194/1/162
f 338/1/533 347/1/202 348/1/286 344/1/534
f 81/1/186 67/1/363 60/1/146 55/1/145
f 167/1/137 251/1/140 168/1/429 124/1/175
f 437/1/333 446/1/383 438/1/182 429/1/181
f 547/1/278 553/1/277 205/1/410 204/1/472
f 88/1/123 92/1/126 69/1/193 68/1/318
f 478/1/386 487/1/388 467/1/435 471/1/381
f 113/1/45 138/1/341 136/1/427 130/1/46
f 98/1/125 97/1/538 75/1/357 92/1/126
f 246/1/294 247/1/500 237/1/360 239/1/508
f 128/1/272 149/1/512 148/1/86 141/1/273
f 454/1/368 471/1/381 467/1/435 461/1/369
f 143/1/425 170/1/250 169/1/514 163/1/426
f 229/1/362 238/1/361 234/1/141 230/1/284
f 439/1/304 468/1/439 448/1/413 440/1/402
f 418/1/234 401/1/411 395/1/506 392/1/479
f 157/1/395 164/1/398 146/1/74 151/1/373
f 219/1/88 224/1/97 223/1/519 220/1/497
f 272/1/375 293/1/206 288/1/205 280/1/222
f 352/1/301 413/1/300 406/1/443 353/1/530
f 191/1/359 192/1/490 183/1/345 184/1/237
f 320/1/334 323/1/418 327/1/354 326/1/335
f 477/1/434 486/1/147 484/1/77 476/1/470
f 412/1/442 414/1/505 409/1/504 410/1/517
f 390/1/441 392/1/479 385/1/99 384/1/98
f 153/1/57 172/1/266 166/1/466 158/1/54
f 362/1/239 368/1/302 345/1/528 354/1/285
f 200/1/489 202/1/503 193/1/463 192/1/490
f 536/1/230 537/1/161 531/1/160 533/1/486
f 467/1/435 482/1/433 462/1/251 461/1/369
f 544/1/36 543/1/38 538/1/228 539/1/565
f 115/1/491 267/1/465 261/1/138 167/1/137
f 86/1/201 87/1/204 79/1/289 77/1/153
f 94/1/391 101/1/268 99/1/267 93/1/364
f 475/1/377 474/1/553 483/1/378
f 61/1/259 62/1/117 56/1/31 60/1/146
f 448/1/413 468/1/439 469/1/562 464/1/473
f 321/1/542 328/1/452 327/1/354 323/1/418
f 188/1/564 197/1/531 182/1/428 181/1/447
f 357/1/331 372/1/406 369/1/400 363/1/313
f 497/1/343 508/1/494 503/1/213 500/1/18
f 188/1/564 181/1/447 169/1/514 187/1/513
f 483/1/378 474/1/553 491/1/80
f 575/1/558 576/1/566 458/1/560 574/1/559
f 208/1/459 492/1/79 202/1/503
f 559/1/456 555/1/455 554/1/67 558/1/41
f 522/1/422 524/1/246 221/1/464 521/1/567
f 493/1/279 492/1/79 208/1/459
f 55/1/145 56/1/31 49/1/30 54/1/128
f 38/1/73 40/1/20 31/1/82 29/1/51
f 520/1/568 523/1/423 522/1/422 521/1/567
f 244/1/484 263/1/569 253/1/440 243/1/142
f 70/1/190 76/1/188 59/1/187 66/1/191
f 99/1/267 106/1/269 105/1/115 100/1/118
f 252/1/325 249/1/430 168/1/429 251/1/140
f 369/1/400 387/1/405 388/1/516 382/1/401
f 489/1/492 40/1/20 496/1/570
f 489/1/492 496/1/570 480/1/412
f 496/1/570 40/1/20 159/1/55
f 496/1/570 159/1/55 158/1/54
f 168/1/429 240/1/432 161/1/176 124/1/175
f 79/1/289 87/1/204 85/1/224 78/1/227
f 557/1/458 206/1/409 205/1/410 553/1/277
f 550/1/29 554/1/67 555/1/455 551/1/26
f 496/1/570 158/1/54 499/1/518
f 496/1/570 499/1/518 480/1/412
f 11/1/11 19/1/109 20/1/35 12/1/12
f 40/1/20 501/1/19 32/1/83
f 95/1/319 129/1/275 101/1/268 94/1/391
f 566/1/68 567/1/71 564/1/107 563/1/106
f 500/1/18 503/1/213 504/1/216
f 32/1/83 505/1/276 23/1/255
f 32/1/83 501/1/19 505/1/276
f 44/1/108 51/1/339 45/1/367 39/1/81
f 98/1/125 271/1/376 104/1/537 97/1/538
f 137/1/340 145/1/399 143/1/425 138/1/341
f 57/1/159 58/1/135 36/1/44 27/1/43
f 298/1/496 289/1/536 304/1/547 306/1/543
f 63/1/544 64/1/200 46/1/136 58/1/135
f 509/1/179 512/1/133 24/1/132
f 484/1/77 491/1/80 474/1/553 476/1/470
f 57/1/159 73/1/290 63/1/544 58/1/135
f 514/1/214 402/1/219 407/1/218 515/1/215
f 88/1/123 317/1/225 301/1/240 300/1/124
f 426/1/167 427/1/166 422/1/232 421/1/271
f 72/1/288 73/1/290 57/1/159 65/1/158
f 513/1/134 517/1/62 25/1/49
f 256/1/462 518/1/571 263/1/569
f 263/1/569 518/1/571 253/1/440
f 253/1/440 518/1/571 262/1/315
f 518/1/572 449/1/414 457/1/474
f 518/1/571 254/1/316 262/1/315
f 518/1/571 236/1/483 245/1/317
f 518/1/572 464/1/473 469/1/562
f 518/1/571 245/1/317 254/1/316
f 518/1/571 231/1/573 236/1/483
f 518/1/572 400/1/415 449/1/414
f 518/1/572 469/1/562 465/1/563
f 518/1/572 457/1/474 464/1/473
f 518/1/572 394/1/574 400/1/415
f 519/1/575 226/1/561 231/1/573
f 518/1/571 519/1/575 231/1/573
f 518/1/571 520/1/568 519/1/575
f 519/1/575 520/1/568 226/1/561
f 520/1/568 521/1/567 226/1/561
f 226/1/561 521/1/567 221/1/464
f 570/1/70 574/1/559 459/1/510 572/1/151
f 279/1/374 302/1/243 294/1/207 293/1/206
f 546/1/28 549/1/37 552/1/576 550/1/29
f 534/1/577 539/1/565 538/1/228 535/1/231
f 33/1/65 65/1/158 27/1/43 26/1/50
f 459/1/510 466/1/509 573/1/148 572/1/151
f 39/1/81 45/1/367 37/1/72 30/1/32
f 470/1/469 475/1/377 573/1/148 466/1/509
f 289/1/536 291/1/535 284/1/549 281/1/548
f 52/1/310 50/1/110 19/1/109 18/1/309
f 506/1/91 494/1/90 486/1/147 485/1/436
f 206/1/409 207/1/457 200/1/489 201/1/358
f 479/1/488 489/1/492 480/1/412 472/1/380
f 552/1/576 556/1/66 554/1/67 550/1/29
f 20/1/35 19/1/109 44/1/108 39/1/81
f 84/1/481 96/1/390 89/1/389 82/1/185
f 392/1/479 395/1/506 386/1/556 385/1/99
f 460/1/253 473/1/252 470/1/469 466/1/509
f 178/1/60 179/1/346 173/1/265 177/1/61
f 122/1/171 123/1/320 102/1/322 116/1/172
f 196/1/524 197/1/531 188/1/564 195/1/525
f 122/1/171 149/1/512 128/1/272 123/1/320
f 228/1/283 235/1/144 236/1/483 231/1/573
f 287/1/306 295/1/540 278/1/502 286/1/223
f 12/1/12 20/1/35 21/1/34 13/1/13
f 441/1/485 451/1/557 450/1/438 442/1/303
f 485/1/436 486/1/147 477/1/434 482/1/433
f 197/1/531 198/1/209 189/1/212 182/1/428
f 228/1/283 231/1/573 226/1/561 223/1/519
f 478/1/386 480/1/412 499/1/518 498/1/387
f 142/1/384 214/1/25 144/1/131 140/1/385
f 529/1/454 533/1/486 527/1/244 526/1/421
f 74/1/116 111/1/157 114/1/156 18/1/309
f 22/1/95 31/1/82 32/1/83 23/1/255
f 256/1/462 263/1/569 244/1/484 247/1/500
f 101/1/268 135/1/342 113/1/45 107/1/48
f 8/1/8 62/1/117 74/1/116 9/1/9
f 557/1/458 207/1/457 206/1/409
f 212/1/545 209/1/248 150/1/247 211/1/130
f 559/1/456 208/1/459 207/1/457
f 502/1/78 193/1/463 202/1/503 492/1/79
f 37/1/72 153/1/57 43/1/56 38/1/73
f 139/1/76 133/1/75 127/1/338 126/1/416
f 562/1/40 564/1/107 208/1/459
f 208/1/459 565/1/280 493/1/279
f 208/1/459 564/1/107 565/1/280
f 133/1/75 147/1/264 45/1/367 51/1/339
f 555/1/455 557/1/458 553/1/277 551/1/26
f 146/1/74 164/1/398 165/1/59 152/1/58
f 493/1/279 569/1/149 483/1/378
f 527/1/244 524/1/246 522/1/422 526/1/421
f 175/1/249 203/1/163 194/1/162 187/1/513
f 534/1/577 535/1/231 529/1/454 530/1/453
f 29/1/51 31/1/82 22/1/95 21/1/34
f 365/1/312 370/1/379 366/1/498 359/1/507
f 152/1/58 177/1/61 147/1/264 133/1/75
f 386/1/556 395/1/506 393/1/403 394/1/574
f 574/1/559 458/1/560 459/1/510
f 212/1/545 213/1/53 210/1/296 209/1/248
f 393/1/403 440/1/402 400/1/415 394/1/574
f 575/1/558 518/1/572 576/1/566
f 458/1/560 576/1/566 465/1/563
f 576/1/566 518/1/572 465/1/563
f 394/1/574 577/1/578 386/1/556
f 518/1/572 577/1/578 394/1/574
f 319/1/393 325/1/449 305/1/448 310/1/394
