# Blender 4.3.2
# www.blender.org
o hair.102
v 7.274712 1.342427 0.024932
v 7.260215 1.347384 0.024687
v 7.270656 1.339532 0.024344
v 7.266601 1.337204 0.022849
v 7.285245 1.336879 0.001863
v 7.263837 1.335257 0.020735
v 7.260617 1.333422 0.017373
v 7.260177 1.323941 0.016320
v 7.259736 1.314461 0.015266
v 7.257542 1.320187 0.004733
v 7.251164 1.327102 0.011558
v 7.260177 1.323941 0.016320
v 7.259428 1.334849 0.013673
v 7.259736 1.314461 0.015266
v 7.258239 1.336275 0.009974
v 7.256267 1.332189 0.005905
v 7.254295 1.328102 0.001836
v 7.255919 1.324145 0.003284
v 7.257542 1.320187 0.004733
v 7.260210 1.341473 0.007845
v 7.248784 1.341748 -0.001739
v 7.254294 1.329213 -0.004362
v 7.252425 1.317932 -0.006720
v 7.258677 1.314355 0.000176
v 7.262181 1.346670 0.005717
v 7.254293 1.330324 -0.010559
v 7.260177 1.308523 -0.004380
v 7.262180 1.347781 -0.000480
v 7.261847 1.363295 0.002764
v 7.267340 1.351106 0.008638
v 7.256264 1.335522 -0.012687
v 7.251156 1.332884 -0.024836
v 7.256261 1.326237 -0.014629
v 7.260316 1.309898 -0.009609
v 7.261831 1.300768 -0.012332
v 7.264055 1.303563 -0.008254
v 7.262178 1.348893 -0.006678
v 7.272500 1.355542 0.011558
v 7.258235 1.340719 -0.014816
v 7.258230 1.322150 -0.018699
v 7.261418 1.324821 -0.023343
v 7.264606 1.327493 -0.027986
v 7.260668 1.311753 -0.014444
v 7.267915 1.299871 -0.011271
v 7.260207 1.344806 -0.010747
v 7.260206 1.356110 -0.023988
v 7.261421 1.339845 -0.020201
v 7.260195 1.311041 -0.033413
v 7.259449 1.316952 -0.016571
v 7.265060 1.309520 -0.022150
v 7.271526 1.297534 -0.013207
v 7.267337 1.352104 -0.007994
v 7.272496 1.355316 -0.009310
v 7.264608 1.338970 -0.025586
v 7.264607 1.333231 -0.026786
v 7.269453 1.307288 -0.029855
v 7.278420 1.311301 -0.032809
v 7.273936 1.309294 -0.031332
v 7.271731 1.301864 -0.022241
v 7.285245 1.296554 -0.031672
v 7.275532 1.296219 -0.014444
v 7.269767 1.342181 -0.026903
v 7.271310 1.335564 -0.039806
v 7.269763 1.324966 -0.030502
v 7.280049 1.295438 -0.015236
v 7.275686 1.358063 -0.003426
v 7.275760 1.358176 0.007038
v 7.278875 1.360809 0.002457
v 7.274926 1.345393 -0.028219
v 7.274920 1.322440 -0.033019
v 7.276670 1.316870 -0.032914
v 7.285245 1.295112 -0.015394
v 7.285245 1.368183 -0.011785
v 7.275683 1.354441 -0.014695
v 7.285245 1.365023 0.017247
v 7.285245 1.360809 0.002457
v 7.285245 1.317220 -0.045074
v 7.280079 1.325652 -0.034335
v 7.285245 1.311301 -0.032809
v 7.290442 1.295438 -0.015236
v 7.278870 1.353566 -0.020081
v 7.276897 1.349480 -0.024150
v 7.291616 1.360809 0.002457
v 7.285245 1.328863 -0.035651
v 7.292071 1.311301 -0.032809
v 7.294959 1.296219 -0.014444
v 7.285245 1.355119 -0.018964
v 7.285245 1.354395 -0.037282
v 7.280083 1.342866 -0.030735
v 7.290411 1.325652 -0.034335
v 7.295570 1.322440 -0.033019
v 7.293821 1.316870 -0.032914
v 7.298965 1.297534 -0.013207
v 7.291621 1.353566 -0.020081
v 7.285245 1.340340 -0.033251
v 7.285245 1.334602 -0.034451
v 7.299181 1.335564 -0.039806
v 7.300728 1.324966 -0.030502
v 7.310296 1.311041 -0.033413
v 7.290408 1.342866 -0.030735
v 7.293593 1.349480 -0.024150
v 7.295565 1.345393 -0.028219
v 7.305885 1.327493 -0.027986
v 7.300724 1.342181 -0.026903
v 7.305883 1.338970 -0.025586
v 7.305884 1.333231 -0.026786
v 7.309073 1.324821 -0.023343
v 7.312261 1.322150 -0.018699
v 7.296555 1.309294 -0.031332
v 7.310285 1.356110 -0.023988
v 7.319335 1.332884 -0.024836
v 7.309070 1.339844 -0.020201
v 7.301038 1.307288 -0.029855
v 7.298759 1.301864 -0.022241
v 7.294808 1.354441 -0.014695
v 7.297995 1.355316 -0.009310
v 7.312256 1.340719 -0.014816
v 7.308660 1.300768 -0.012332
v 7.305430 1.309520 -0.022150
v 7.302576 1.299871 -0.011271
v 7.294805 1.358063 -0.003426
v 7.308644 1.363295 0.002764
v 7.303154 1.352104 -0.007994
v 7.311042 1.316952 -0.016571
v 7.309823 1.311753 -0.014444
v 7.306436 1.303563 -0.008254
v 7.294803 1.358176 0.007008
v 7.297991 1.355542 0.011558
v 7.308312 1.348893 -0.006678
v 7.310284 1.344806 -0.010747
v 7.318066 1.317932 -0.006720
v 7.314229 1.326237 -0.014629
v 7.310174 1.309898 -0.009609
v 7.310314 1.308523 -0.004380
v 7.321707 1.341748 -0.001739
v 7.308311 1.347781 -0.000480
v 7.314227 1.335522 -0.012687
v 7.316198 1.330324 -0.010559
v 7.311813 1.314355 0.000176
v 7.308310 1.346670 0.005717
v 7.310281 1.341473 0.007845
v 7.312252 1.336275 0.009974
v 7.303151 1.351106 0.008638
v 7.316197 1.329213 -0.004362
v 7.312949 1.320187 0.004733
v 7.310276 1.347384 0.024687
v 7.294802 1.354489 0.017247
v 7.316195 1.328102 0.001836
v 7.314224 1.332189 0.005905
v 7.314572 1.324145 0.003284
v 7.319327 1.327102 0.011558
v 7.310755 1.314461 0.015266
v 7.291614 1.353436 0.022935
v 7.293696 1.347931 0.023933
v 7.295779 1.342427 0.024932
v 7.285245 1.353436 0.022935
v 7.311063 1.334849 0.013673
v 7.309874 1.333422 0.017373
v 7.310314 1.323941 0.016320
v 7.285245 1.353436 0.032120
v 7.290512 1.342994 0.026683
v 7.278877 1.353436 0.022935
v 7.310314 1.323941 0.016320
v 7.306654 1.335257 0.020735
v 7.285245 1.343324 0.027369
v 7.275689 1.354489 0.017247
v 7.276794 1.347931 0.023933
v 7.299835 1.339532 0.024344
v 7.303890 1.337204 0.022849
v 7.310755 1.314461 0.015266
v 7.312949 1.320187 0.004733
v 7.279979 1.342994 0.026683
vn -0.2001 0.0566 0.9781
vn -0.6721 0.3546 0.6500
vn 0.0747 -0.4968 0.8647
vn 0.0244 -0.6810 0.7319
vn 0.5657 -0.7138 0.4129
vn -0.1025 -0.7677 0.6325
vn -0.4187 -0.3079 0.8544
vn 0.5410 -0.1177 0.8328
vn 0.7004 -0.6918 0.1759
vn 0.4083 -0.7636 -0.5002
vn -0.9651 0.0213 0.2611
vn -0.4860 -0.0742 0.8708
vn -0.8934 0.2400 0.3797
vn -0.8072 -0.4283 0.4062
vn -0.8878 0.3238 0.3270
vn -0.9461 0.2376 0.2199
vn -0.9896 -0.1147 0.0865
vn -0.9137 -0.4011 0.0654
vn -0.8686 -0.4866 0.0934
vn -0.8370 0.4468 0.3160
vn -0.9331 0.3532 0.0680
vn -0.9868 -0.1397 -0.0823
vn -0.9514 -0.3047 -0.0449
vn 0.9514 -0.3047 -0.0449
vn 0.9137 -0.4011 0.0654
vn 0.8686 -0.4866 0.0934
vn 0.8151 -0.4953 0.3006
vn -0.8156 0.5141 0.2653
vn 0.9894 -0.0404 -0.1395
vn 0.9868 -0.1397 -0.0823
vn 0.9598 -0.2516 -0.1244
vn -0.9894 -0.0404 -0.1395
vn 0.8409 -0.5185 0.1548
vn 0.9178 -0.3866 -0.0907
vn -0.8476 0.5223 0.0938
vn -0.6200 0.7772 0.1077
vn -0.7161 0.5492 0.4308
vn -0.9419 0.2828 -0.1814
vn -0.8510 0.0990 -0.5157
vn -0.9598 -0.2516 -0.1244
vn -0.8409 -0.5185 0.1548
vn -0.9178 -0.3866 -0.0907
vn -0.7042 -0.7093 0.0311
vn -0.2562 -0.7265 0.6377
vn -0.7640 0.6386 -0.0921
vn -0.4741 0.7811 0.4063
vn -0.8724 0.4109 -0.2646
vn -0.9038 -0.2665 -0.3349
vn -0.7628 -0.1729 -0.6231
vn -0.6205 0.0027 -0.7842
vn -0.8850 -0.3811 -0.2676
vn -0.2169 -0.7845 0.5809
vn -0.8341 0.5353 -0.1333
vn -0.5826 0.6699 -0.4602
vn -0.7593 0.3989 -0.5141
vn -0.6486 -0.3842 -0.6571
vn -0.9149 -0.3168 -0.2500
vn -0.7343 -0.6372 -0.2339
vn -0.3921 -0.8818 -0.2622
vn -0.5551 0.8034 -0.2155
vn -0.3927 0.8829 -0.2575
vn -0.6099 0.3141 -0.7276
vn -0.5842 0.1663 -0.7944
vn -0.3500 -0.7225 -0.5962
vn -0.2218 -0.3391 -0.9142
vn -0.1036 -0.4289 -0.8974
vn -0.4673 -0.7845 -0.4077
vn -0.0000 -0.7248 -0.6889
vn -0.3183 -0.9272 -0.1975
vn -0.4584 0.4140 -0.7864
vn -0.3565 0.1790 -0.9170
vn -0.4666 -0.0749 -0.8813
vn -0.1432 -0.9833 -0.1120
vn -0.3369 0.9099 -0.2421
vn -0.2722 0.9032 0.3317
vn -0.2143 0.9747 0.0630
vn -0.3613 0.5338 -0.7646
vn -0.3816 -0.0746 -0.9213
vn -0.4294 -0.1516 -0.8903
vn -0.0000 -0.9961 -0.0883
vn -0.0000 0.9587 -0.2845
vn -0.2987 0.8981 -0.3227
vn -0.0003 0.9160 0.4011
vn -0.0000 0.9950 0.0999
vn -0.0000 -0.1509 -0.9885
vn -0.2802 0.0576 -0.9582
vn -0.0000 -0.5639 -0.8258
vn 0.1432 -0.9833 -0.1120
vn -0.2416 0.8573 -0.4547
vn -0.3069 0.7418 -0.5963
vn 0.2146 0.9747 0.0620
vn -0.0000 0.1476 -0.9891
vn 0.2218 -0.3391 -0.9142
vn 0.3183 -0.9272 -0.1975
vn -0.0000 0.8008 -0.5989
vn -0.0000 0.5635 -0.8261
vn -0.2858 0.3170 -0.9043
vn 0.2802 0.0576 -0.9582
vn 0.3816 -0.0746 -0.9213
vn 0.4294 -0.1516 -0.8903
vn 0.3921 -0.8818 -0.2622
vn 0.2416 0.8573 -0.4547
vn -0.0000 0.2586 -0.9660
vn -0.0000 0.2047 -0.9788
vn 0.3565 0.1790 -0.9170
vn 0.4666 -0.0749 -0.8813
vn 0.6486 -0.3842 -0.6571
vn 0.2858 0.3170 -0.9043
vn 0.3069 0.7418 -0.5963
vn 0.3613 0.5338 -0.7646
vn 0.6205 0.0027 -0.7842
vn 0.4584 0.4140 -0.7864
vn 0.6099 0.3141 -0.7276
vn 0.5842 0.1663 -0.7944
vn 0.7628 -0.1729 -0.6231
vn 0.9038 -0.2665 -0.3349
vn 0.1036 -0.4289 -0.8974
vn 0.5826 0.6699 -0.4602
vn 0.8510 0.0990 -0.5157
vn 0.7593 0.3989 -0.5141
vn 0.3500 -0.7225 -0.5962
vn 0.4673 -0.7845 -0.4077
vn 0.2987 0.8981 -0.3227
vn 0.3927 0.8829 -0.2575
vn 0.8724 0.4109 -0.2646
vn 0.7042 -0.7093 0.0311
vn 0.7343 -0.6372 -0.2339
vn 0.2169 -0.7845 0.5809
vn 0.3369 0.9099 -0.2421
vn 0.6197 0.7774 0.1079
vn 0.5551 0.8034 -0.2155
vn 0.9149 -0.3168 -0.2500
vn 0.8850 -0.3811 -0.2676
vn 0.2562 -0.7265 0.6377
vn 0.2676 0.9033 0.3353
vn 0.4750 0.7808 0.4060
vn 0.7640 0.6386 -0.0921
vn 0.8341 0.5353 -0.1333
vn 0.9331 0.3532 0.0680
vn 0.8476 0.5223 0.0938
vn 0.9419 0.2828 -0.1814
vn 0.8156 0.5141 0.2653
vn 0.8370 0.4468 0.3160
vn 0.8878 0.3238 0.3270
vn 0.7161 0.5492 0.4308
vn -0.8151 -0.4953 0.3006
vn 0.6721 0.3546 0.6500
vn 0.4753 0.7782 0.4105
vn 0.9896 -0.1147 0.0865
vn 0.9461 0.2376 0.2199
vn 0.9651 0.0213 0.2611
vn 0.8072 -0.4283 0.4062
vn 0.3936 0.6801 0.6185
vn 0.4086 0.3103 0.8583
vn 0.2001 0.0566 0.9781
vn -0.0000 0.8487 0.5288
vn 0.8934 0.2400 0.3797
vn 0.4187 -0.3079 0.8544
vn 0.4860 -0.0742 0.8708
vn -0.0000 0.5239 0.8518
vn 0.2097 -0.3663 0.9066
vn -0.3936 0.6801 0.6185
vn -0.5657 -0.7138 0.4129
vn -0.5410 -0.1177 0.8328
vn 0.1025 -0.7677 0.6325
vn -0.0000 -0.4253 0.9051
vn -0.4753 0.7782 0.4105
vn -0.4086 0.3103 0.8583
vn -0.0747 -0.4968 0.8647
vn -0.0244 -0.6810 0.7319
vn -0.7004 -0.6918 0.1759
vn -0.4083 -0.7636 -0.5002
vn -0.2097 -0.3663 0.9066
vt 0.000000 0.000000
s 1
f 1/1/1 2/1/2 3/1/3
f 3/1/3 2/1/2 4/1/4
f 3/1/3 4/1/4 5/1/5
f 4/1/4 2/1/2 6/1/6
f 4/1/4 6/1/6 5/1/5
f 6/1/6 2/1/2 7/1/7
f 6/1/6 7/1/7 5/1/5
f 5/1/5 7/1/7 8/1/8
f 5/1/5 8/1/8 9/1/9
f 5/1/5 9/1/9 10/1/10
f 7/1/7 11/1/11 12/1/12
f 7/1/7 2/1/2 13/1/13
f 7/1/7 13/1/13 11/1/11
f 12/1/12 11/1/11 14/1/14
f 13/1/13 2/1/2 15/1/15
f 11/1/11 13/1/13 15/1/15
f 11/1/11 15/1/15 16/1/16
f 11/1/11 16/1/16 17/1/17
f 11/1/11 17/1/17 18/1/18
f 11/1/11 18/1/18 19/1/19
f 11/1/11 19/1/19 14/1/14
f 15/1/15 2/1/2 20/1/20
f 15/1/15 20/1/20 21/1/21
f 15/1/15 21/1/21 16/1/16
f 16/1/16 21/1/21 17/1/17
f 17/1/17 21/1/21 22/1/22
f 17/1/17 23/1/23 18/1/18
f 17/1/17 22/1/22 23/1/23
f 131/1/24 150/1/25 145/1/26 139/1/27
f 20/1/20 25/1/28 21/1/21
f 2/1/2 25/1/28 20/1/20
f 138/1/29 144/1/30 131/1/24 132/1/31
f 21/1/21 26/1/32 22/1/22
f 131/1/24 139/1/27 134/1/33 133/1/34
f 25/1/28 28/1/35 21/1/21
f 25/1/28 29/1/36 28/1/35
f 25/1/28 30/1/37 29/1/36
f 25/1/28 2/1/2 30/1/37
f 26/1/32 21/1/21 31/1/38
f 26/1/32 31/1/38 32/1/39
f 26/1/32 32/1/39 33/1/40
f 27/1/41 34/1/42 35/1/43
f 27/1/41 35/1/43 36/1/44
f 28/1/35 37/1/45 21/1/21
f 29/1/36 37/1/45 28/1/35
f 29/1/36 30/1/37 38/1/46
f 30/1/37 2/1/2 38/1/46
f 31/1/38 39/1/47 32/1/39
f 31/1/38 21/1/21 39/1/47
f 33/1/40 40/1/48 23/1/23
f 32/1/39 40/1/48 33/1/40
f 32/1/39 41/1/49 40/1/48
f 32/1/39 42/1/50 41/1/49
f 34/1/42 23/1/23 43/1/51
f 34/1/42 43/1/51 35/1/43
f 36/1/44 35/1/43 44/1/52
f 21/1/21 45/1/53 39/1/47
f 21/1/21 37/1/45 45/1/53
f 39/1/47 45/1/53 46/1/54
f 45/1/53 37/1/45 46/1/54
f 39/1/47 47/1/55 32/1/39
f 39/1/47 46/1/54 47/1/55
f 41/1/49 42/1/50 48/1/56
f 41/1/49 48/1/56 40/1/48
f 40/1/48 49/1/57 23/1/23
f 23/1/23 49/1/57 43/1/51
f 43/1/51 49/1/57 48/1/56
f 40/1/48 48/1/56 49/1/57
f 43/1/51 50/1/58 35/1/43
f 43/1/51 48/1/56 50/1/58
f 44/1/52 35/1/43 51/1/59
f 37/1/45 29/1/36 52/1/60
f 46/1/54 37/1/45 52/1/60
f 46/1/54 52/1/60 53/1/61
f 52/1/60 29/1/36 53/1/61
f 47/1/55 54/1/62 32/1/39
f 46/1/54 54/1/62 47/1/55
f 32/1/39 54/1/62 55/1/63
f 32/1/39 55/1/63 42/1/50
f 50/1/58 56/1/64 35/1/43
f 50/1/58 48/1/56 56/1/64
f 48/1/56 57/1/65 58/1/66
f 48/1/56 58/1/66 56/1/64
f 35/1/43 59/1/67 51/1/59
f 35/1/43 56/1/64 59/1/67
f 51/1/59 59/1/67 60/1/68
f 56/1/64 58/1/66 60/1/68
f 56/1/64 60/1/68 59/1/67
f 58/1/66 57/1/65 60/1/68
f 51/1/59 60/1/68 61/1/69
f 54/1/62 46/1/54 62/1/70
f 55/1/63 63/1/71 42/1/50
f 54/1/62 63/1/71 55/1/63
f 54/1/62 62/1/70 63/1/71
f 42/1/50 63/1/71 64/1/72
f 42/1/50 64/1/72 48/1/56
f 61/1/69 60/1/68 65/1/73
f 29/1/36 66/1/74 53/1/61
f 29/1/36 38/1/46 67/1/75
f 29/1/36 68/1/76 66/1/74
f 29/1/36 67/1/75 68/1/76
f 62/1/70 69/1/77 63/1/71
f 62/1/70 46/1/54 69/1/77
f 63/1/71 70/1/78 64/1/72
f 64/1/72 70/1/78 48/1/56
f 48/1/56 71/1/79 57/1/65
f 48/1/56 70/1/78 71/1/79
f 65/1/73 60/1/68 72/1/80
f 66/1/74 68/1/76 73/1/81
f 66/1/74 73/1/81 53/1/61
f 53/1/61 73/1/81 74/1/82
f 53/1/61 74/1/82 46/1/54
f 67/1/75 38/1/46 75/1/83
f 67/1/75 75/1/83 68/1/76
f 68/1/76 76/1/84 73/1/81
f 68/1/76 75/1/83 76/1/84
f 71/1/79 77/1/85 57/1/65
f 71/1/79 70/1/78 77/1/85
f 70/1/78 78/1/86 77/1/85
f 70/1/78 63/1/71 78/1/86
f 57/1/65 79/1/87 60/1/68
f 57/1/65 77/1/85 79/1/87
f 72/1/80 60/1/68 80/1/88
f 74/1/82 81/1/89 46/1/54
f 73/1/81 81/1/89 74/1/82
f 46/1/54 81/1/89 82/1/90
f 46/1/54 82/1/90 69/1/77
f 76/1/84 83/1/91 73/1/81
f 75/1/83 83/1/91 76/1/84
f 77/1/85 78/1/86 84/1/92
f 78/1/86 63/1/71 84/1/92
f 79/1/87 77/1/85 85/1/93
f 79/1/87 85/1/93 60/1/68
f 80/1/88 60/1/68 86/1/94
f 81/1/89 73/1/81 87/1/95
f 81/1/89 87/1/95 88/1/96
f 81/1/89 88/1/96 82/1/90
f 82/1/90 88/1/96 69/1/77
f 69/1/77 88/1/96 89/1/97
f 69/1/77 89/1/97 63/1/71
f 77/1/85 84/1/92 90/1/98
f 77/1/85 90/1/98 91/1/99
f 77/1/85 92/1/100 85/1/93
f 77/1/85 91/1/99 92/1/100
f 86/1/94 60/1/68 93/1/101
f 87/1/95 94/1/102 88/1/96
f 73/1/81 94/1/102 87/1/95
f 89/1/97 95/1/103 63/1/71
f 88/1/96 95/1/103 89/1/97
f 63/1/71 95/1/103 96/1/104
f 63/1/71 96/1/104 84/1/92
f 90/1/98 97/1/105 91/1/99
f 90/1/98 84/1/92 97/1/105
f 96/1/104 97/1/105 84/1/92
f 95/1/103 97/1/105 96/1/104
f 91/1/99 97/1/105 98/1/106
f 92/1/100 99/1/107 85/1/93
f 91/1/99 99/1/107 92/1/100
f 91/1/99 98/1/106 99/1/107
f 95/1/103 100/1/108 97/1/105
f 95/1/103 88/1/96 100/1/108
f 88/1/96 94/1/102 101/1/109
f 88/1/96 101/1/109 102/1/110
f 97/1/105 100/1/108 102/1/110
f 88/1/96 102/1/110 100/1/108
f 98/1/106 97/1/105 103/1/111
f 98/1/106 103/1/111 99/1/107
f 97/1/105 102/1/110 104/1/112
f 97/1/105 104/1/112 105/1/113
f 97/1/105 106/1/114 103/1/111
f 97/1/105 105/1/113 106/1/114
f 99/1/107 103/1/111 107/1/115
f 99/1/107 107/1/115 108/1/116
f 85/1/93 99/1/107 109/1/117
f 85/1/93 109/1/117 60/1/68
f 101/1/109 94/1/102 110/1/118
f 102/1/110 110/1/118 104/1/112
f 104/1/112 110/1/118 105/1/113
f 101/1/109 110/1/118 102/1/110
f 103/1/111 111/1/119 107/1/115
f 103/1/111 106/1/114 111/1/119
f 106/1/114 105/1/113 111/1/119
f 107/1/115 111/1/119 108/1/116
f 105/1/113 110/1/118 112/1/120
f 105/1/113 112/1/120 111/1/119
f 109/1/117 99/1/107 113/1/121
f 109/1/117 113/1/121 60/1/68
f 60/1/68 113/1/121 114/1/122
f 60/1/68 114/1/122 93/1/101
f 94/1/102 73/1/81 115/1/123
f 110/1/118 94/1/102 115/1/123
f 115/1/123 73/1/81 116/1/124
f 110/1/118 115/1/123 116/1/124
f 112/1/120 110/1/118 117/1/125
f 111/1/119 112/1/120 117/1/125
f 113/1/121 118/1/126 114/1/122
f 114/1/122 118/1/126 93/1/101
f 113/1/121 99/1/107 119/1/127
f 113/1/121 119/1/127 118/1/126
f 93/1/101 118/1/126 120/1/128
f 116/1/124 73/1/81 121/1/129
f 73/1/81 83/1/91 121/1/129
f 121/1/129 83/1/91 122/1/130
f 116/1/124 121/1/129 122/1/130
f 116/1/124 122/1/130 123/1/131
f 116/1/124 123/1/131 110/1/118
f 99/1/107 108/1/116 124/1/132
f 119/1/127 125/1/133 118/1/126
f 99/1/107 124/1/132 125/1/133
f 99/1/107 125/1/133 119/1/127
f 120/1/128 118/1/126 126/1/134
f 122/1/130 83/1/91 127/1/135
f 83/1/91 75/1/83 127/1/135
f 122/1/130 127/1/135 128/1/136
f 127/1/135 75/1/83 128/1/136
f 122/1/130 129/1/137 123/1/131
f 123/1/131 129/1/137 110/1/118
f 110/1/118 129/1/137 130/1/138
f 110/1/118 130/1/138 117/1/125
f 124/1/132 131/1/24 125/1/133
f 108/1/116 131/1/24 124/1/132
f 108/1/116 111/1/119 132/1/31
f 108/1/116 132/1/31 131/1/24
f 125/1/133 133/1/34 118/1/126
f 125/1/133 131/1/24 133/1/34
f 133/1/34 134/1/33 118/1/126
f 26/1/32 33/1/40 23/1/23 22/1/22
f 126/1/134 118/1/126 134/1/33
f 130/1/138 135/1/139 117/1/125
f 129/1/137 135/1/139 130/1/138
f 129/1/137 136/1/140 135/1/139
f 129/1/137 122/1/130 136/1/140
f 117/1/125 137/1/141 111/1/119
f 117/1/125 135/1/139 137/1/141
f 111/1/119 138/1/29 132/1/31
f 135/1/139 138/1/29 137/1/141
f 111/1/119 137/1/141 138/1/29
f 135/1/139 136/1/140 140/1/142
f 122/1/130 140/1/142 136/1/140
f 135/1/139 140/1/142 141/1/143
f 135/1/139 141/1/143 142/1/144
f 122/1/130 128/1/136 143/1/145
f 122/1/130 143/1/145 140/1/142
f 138/1/29 135/1/139 144/1/30
f 23/1/23 34/1/42 27/1/41 24/1/146
f 140/1/142 146/1/147 141/1/143
f 141/1/143 146/1/147 142/1/144
f 143/1/145 128/1/136 146/1/147
f 140/1/142 143/1/145 146/1/147
f 128/1/136 75/1/83 147/1/148
f 128/1/136 147/1/148 146/1/147
f 144/1/30 148/1/149 131/1/24
f 135/1/139 148/1/149 144/1/30
f 135/1/139 142/1/144 149/1/150
f 135/1/139 149/1/150 148/1/149
f 131/1/24 148/1/149 150/1/25
f 149/1/150 142/1/144 151/1/151
f 145/1/26 150/1/25 151/1/151
f 148/1/149 151/1/151 150/1/25
f 148/1/149 149/1/150 151/1/151
f 145/1/26 151/1/151 152/1/152
f 75/1/83 153/1/153 147/1/148
f 146/1/147 147/1/148 153/1/153
f 146/1/147 153/1/153 154/1/154
f 146/1/147 154/1/154 155/1/155
f 75/1/83 156/1/156 153/1/153
f 142/1/144 146/1/147 157/1/157
f 151/1/151 142/1/144 157/1/157
f 157/1/157 146/1/147 158/1/158
f 151/1/151 157/1/157 158/1/158
f 151/1/151 159/1/159 152/1/152
f 151/1/151 158/1/158 159/1/159
f 154/1/154 160/1/160 155/1/155
f 153/1/153 160/1/160 154/1/154
f 153/1/153 156/1/156 160/1/160
f 155/1/155 160/1/160 161/1/161
f 156/1/156 162/1/162 160/1/160
f 156/1/156 75/1/83 162/1/162
f 158/1/158 5/1/163 163/1/164
f 158/1/158 146/1/147 164/1/165
f 158/1/158 164/1/165 5/1/163
f 161/1/161 160/1/160 165/1/166
f 75/1/83 166/1/167 162/1/162
f 75/1/83 38/1/46 166/1/167
f 162/1/162 166/1/167 2/1/2
f 166/1/167 38/1/46 2/1/2
f 2/1/2 1/1/1 167/1/168
f 162/1/162 2/1/2 167/1/168
f 167/1/168 1/1/1 160/1/160
f 162/1/162 167/1/168 160/1/160
f 146/1/147 155/1/155 168/1/169
f 164/1/165 169/1/170 5/1/163
f 146/1/147 169/1/170 164/1/165
f 5/1/163 169/1/170 168/1/169
f 146/1/147 168/1/169 169/1/170
f 163/1/164 5/1/163 170/1/171
f 5/1/163 171/1/172 170/1/171
f 160/1/160 1/1/1 172/1/173
f 165/1/166 160/1/160 172/1/173
f 23/1/23 24/1/146 19/1/19 18/1/18
