# Blender 4.3.2
# www.blender.org
o hair.086
v 6.555952 0.755510 0.016908
v 6.556221 0.752451 0.017561
v 6.566053 0.747751 0.011572
v 6.555806 0.758596 0.016460
v 6.556737 0.749346 0.018346
v 6.557376 0.746033 0.019322
v 6.556533 0.744809 0.015893
v 6.566226 0.746384 0.006933
v 6.564856 0.756199 0.012734
v 6.563658 0.764646 0.013895
v 6.557515 0.758916 0.019617
v 6.556091 0.743585 0.012463
v 6.556341 0.742686 0.009318
v 6.566400 0.745018 0.002294
v 6.559448 0.759436 0.022833
v 6.556992 0.741786 0.006173
v 6.585659 0.735533 -0.010026
v 6.561833 0.760356 0.026169
v 6.557255 0.736850 0.006102
v 6.564629 0.761678 0.029309
v 6.557155 0.732098 0.005779
v 6.567796 0.763404 0.031940
v 6.556326 0.727716 0.004952
v 6.571245 0.765487 0.033951
v 6.555527 0.723960 0.003786
v 6.574883 0.767883 0.035232
v 6.555519 0.721087 0.002444
v 6.578591 0.770512 0.035737
v 6.591838 0.782890 0.022144
v 6.556041 0.718777 0.000848
v 6.582245 0.773292 0.035418
v 6.607659 0.764646 0.013895
v 6.595889 0.776128 0.033904
v 6.591954 0.781727 0.031290
v 6.588913 0.778937 0.032988
v 6.585726 0.776131 0.034445
v 6.593903 0.778937 0.032792
v 6.556831 0.716710 -0.001085
v 6.597947 0.773279 0.034235
v 6.558323 0.714604 -0.003994
v 6.600197 0.770492 0.033912
v 6.560948 0.712178 -0.008518
v 6.602760 0.767870 0.033064
v 6.564600 0.709975 -0.013319
v 6.605347 0.765484 0.031668
v 6.569171 0.708539 -0.017057
v 6.607672 0.763404 0.029703
v 6.574377 0.707677 -0.019785
v 6.609743 0.761678 0.027211
v 6.611571 0.760356 0.024236
v 6.615511 0.758596 0.016460
v 6.606461 0.756199 0.012734
v 6.579930 0.707195 -0.021557
v 6.613130 0.759436 0.021254
v 6.614394 0.758916 0.018740
v 6.605264 0.747751 0.011572
v 6.615365 0.755510 0.016908
v 6.585659 0.707049 -0.022205
v 6.605091 0.746384 0.006933
v 6.614784 0.744809 0.015893
v 6.613941 0.746033 0.019322
v 6.614580 0.749347 0.018361
v 6.615096 0.752451 0.017561
v 6.591387 0.707195 -0.021557
v 6.615226 0.743585 0.012463
v 6.614976 0.742686 0.009318
v 6.604918 0.745018 0.002294
v 6.596941 0.707677 -0.019785
v 6.614326 0.741786 0.006173
v 6.602146 0.708539 -0.017057
v 6.614062 0.736850 0.006102
v 6.606717 0.709975 -0.013319
v 6.614162 0.732098 0.005779
v 6.610369 0.712178 -0.008518
v 6.614991 0.727716 0.004952
v 6.615438 0.718777 0.000848
v 6.615906 0.721087 0.002444
v 6.615817 0.723960 0.003786
v 6.614594 0.716710 -0.001085
v 6.613021 0.714604 -0.003994
v 6.585659 0.788492 -0.022901
v 6.586546 0.788618 -0.022715
v 6.585659 0.785351 -0.025734
v 6.585659 0.792424 -0.018151
v 6.584771 0.788618 -0.022715
v 6.587318 0.785461 -0.025569
v 6.588944 0.785783 -0.025085
v 6.587434 0.788745 -0.022529
v 6.585659 0.781304 -0.028306
v 6.583999 0.785461 -0.025569
v 6.582373 0.785783 -0.025085
v 6.583883 0.788745 -0.022529
v 6.590380 0.781925 -0.027386
v 6.590508 0.786308 -0.024296
v 6.588222 0.789105 -0.021996
v 6.588042 0.781463 -0.028074
v 6.585659 0.777191 -0.030402
v 6.583275 0.781463 -0.028074
v 6.580937 0.781925 -0.027386
v 6.580809 0.786308 -0.024296
v 6.583095 0.789105 -0.021996
v 6.592627 0.782678 -0.026251
v 6.591723 0.777999 -0.029251
v 6.591905 0.787012 -0.023238
v 6.589010 0.789464 -0.021463
v 6.588728 0.777398 -0.030119
v 6.582589 0.777398 -0.030119
v 6.579594 0.777999 -0.029251
v 6.578690 0.782678 -0.026251
v 6.579412 0.787012 -0.023238
v 6.582307 0.789464 -0.021463
v 6.594564 0.778968 -0.027778
v 6.593537 0.772488 -0.030922
v 6.589534 0.790006 -0.020657
v 6.585659 0.771425 -0.032255
v 6.589651 0.771699 -0.031967
v 6.577780 0.772488 -0.030922
v 6.576753 0.778968 -0.027778
v 6.581783 0.790006 -0.020657
v 6.593844 0.788860 -0.020461
v 6.593025 0.787874 -0.021945
v 6.590058 0.790547 -0.019851
v 6.590420 0.766388 -0.032912
v 6.597400 0.786351 -0.020690
v 6.594337 0.789942 -0.018830
v 6.590242 0.791196 -0.018880
v 6.596233 0.784935 -0.022833
v 6.594630 0.783691 -0.024717
v 6.581666 0.771699 -0.031967
v 6.598100 0.787877 -0.018381
v 6.594507 0.791059 -0.017149
v 6.598349 0.789454 -0.016007
v 6.590426 0.791845 -0.017909
v 6.597075 0.780271 -0.025774
v 6.585659 0.766093 -0.033209
v 6.580897 0.766388 -0.032912
v 6.601415 0.785571 -0.017667
v 6.601732 0.787547 -0.014687
v 6.590250 0.792482 -0.016951
v 6.599083 0.781870 -0.023314
v 6.600342 0.775413 -0.026238
v 6.585659 0.761789 -0.033430
v 6.600543 0.783670 -0.020559
v 6.605617 0.781800 -0.015989
v 6.605970 0.784208 -0.012279
v 6.601525 0.789570 -0.011663
v 6.598164 0.791021 -0.013670
v 6.597176 0.773753 -0.028942
v 6.602819 0.777388 -0.023016
v 6.604584 0.779557 -0.019520
v 6.609192 0.777836 -0.013853
v 6.605696 0.786875 -0.008246
v 6.600718 0.791569 -0.008755
v 6.604668 0.789610 -0.004253
v 6.594355 0.792154 -0.015515
v 6.597506 0.792542 -0.011436
v 6.599397 0.768756 -0.029270
v 6.595057 0.767275 -0.031702
v 6.609194 0.783582 -0.004621
v 6.593874 0.793202 -0.013954
v 6.596335 0.793979 -0.009381
v 6.593054 0.794179 -0.012496
v 6.606037 0.772971 -0.022105
v 6.603147 0.770698 -0.025960
v 6.596038 0.762992 -0.031736
v 6.590916 0.762078 -0.033097
v 6.609540 0.780483 -0.009484
v 6.590073 0.793119 -0.015993
v 6.605000 0.766673 -0.025273
v 6.591257 0.757762 -0.032862
v 6.612038 0.777161 -0.006952
v 6.589549 0.793655 -0.015183
v 6.600841 0.764574 -0.028996
v 6.608056 0.775407 -0.017979
v 6.591952 0.795041 -0.011206
v 6.589025 0.794191 -0.014373
v 6.601815 0.760305 -0.028364
v 6.596707 0.758690 -0.031330
v 6.610455 0.771737 -0.016361
v 6.608216 0.769138 -0.020958
v 6.611681 0.774236 -0.011797
v 6.594753 0.795236 -0.007588
v 6.588251 0.794545 -0.013837
v 6.597088 0.754320 -0.030495
v 6.609814 0.765067 -0.019569
v 6.612319 0.767782 -0.014531
v 6.613688 0.770311 -0.009646
v 6.597240 0.795116 -0.003932
v 6.592863 0.796227 -0.006135
v 6.590621 0.795747 -0.010149
v 6.599242 0.793481 -0.006145
v 6.613622 0.763544 -0.012666
v 6.615153 0.766067 -0.007535
v 6.614111 0.773440 -0.004187
v 6.615694 0.768831 -0.001734
v 6.594882 0.796362 -0.002165
v 6.600254 0.794415 0.001653
v 6.589096 0.796274 -0.009359
v 6.590685 0.796949 -0.005027
v 6.613785 0.776995 0.002171
v 6.611719 0.780752 -0.001346
v 6.587477 0.794898 -0.013301
v 6.587416 0.796597 -0.008875
v 6.586572 0.795020 -0.013116
v 6.588239 0.797400 -0.004270
v 6.592146 0.797247 -0.000780
v 6.613193 0.780236 0.007608
v 6.615488 0.771954 0.004960
v 6.610716 0.784468 0.003721
v 6.608130 0.787132 0.000423
v 6.585682 0.796708 -0.008708
v 6.585667 0.795142 -0.012930
v 6.589005 0.797810 0.000268
v 6.594110 0.797100 0.005329
v 6.597430 0.795994 0.003642
v 6.606411 0.790293 0.004465
v 6.608897 0.787488 0.008340
v 6.602809 0.792335 -0.000887
v 6.584773 0.795019 -0.013119
v 6.599223 0.795334 0.007868
v 6.602457 0.793467 0.006367
v 6.603273 0.792843 0.007987
v 6.604323 0.792057 0.010278
v 6.605665 0.790487 0.013666
v 6.583996 0.796598 -0.008873
v 6.583879 0.794895 -0.013308
v 6.582366 0.796275 -0.009355
v 6.600296 0.794513 0.010641
v 6.595512 0.796602 0.009651
v 6.596266 0.795501 0.013047
v 6.601273 0.793398 0.013614
v 6.585708 0.797557 -0.003949
v 6.583088 0.794541 -0.013844
v 6.580793 0.795749 -0.010144
v 6.580928 0.796936 -0.004843
v 6.590831 0.797405 0.011377
v 6.590067 0.797807 0.006733
v 6.582296 0.794187 -0.014381
v 6.579389 0.795042 -0.011201
v 6.578651 0.796183 -0.005968
v 6.576612 0.795171 -0.007481
v 6.579612 0.797203 -0.000275
v 6.583276 0.797398 -0.004155
v 6.585835 0.798025 0.007664
v 6.585736 0.798009 0.000793
v 6.581770 0.793653 -0.015187
v 6.578262 0.794180 -0.012493
v 6.576722 0.796238 -0.001717
v 6.574144 0.794942 -0.003654
v 6.574982 0.793936 -0.009331
v 6.582622 0.797796 0.000587
v 6.578029 0.796891 0.006773
v 6.581244 0.793119 -0.015994
v 6.577443 0.793203 -0.013953
v 6.573812 0.792533 -0.011422
v 6.574347 0.795658 0.004913
v 6.571109 0.793997 0.002413
v 6.572076 0.793361 -0.006045
v 6.570599 0.791543 -0.008727
v 6.581961 0.797665 0.007678
v 6.581068 0.792482 -0.016951
v 6.576962 0.792154 -0.015514
v 6.573153 0.791022 -0.013669
v 6.572369 0.794289 0.011782
v 6.568502 0.791993 -0.000889
v 6.566636 0.789542 -0.004254
v 6.569792 0.789571 -0.011662
v 6.581533 0.796723 0.015571
v 6.586036 0.797523 0.013269
v 6.576810 0.791059 -0.017149
v 6.572968 0.789454 -0.016007
v 6.569585 0.787547 -0.014687
v 6.576863 0.795747 0.014065
v 6.565217 0.789702 0.005121
v 6.565621 0.786875 -0.008246
v 6.565347 0.784208 -0.012279
v 6.586110 0.797109 0.015516
v 6.590803 0.796843 0.014559
v 6.573217 0.787877 -0.018381
v 6.576981 0.789942 -0.018830
v 6.569902 0.785571 -0.017667
v 6.575808 0.794144 0.019577
v 6.568564 0.792307 0.008702
v 6.562122 0.783581 -0.004619
v 6.589759 0.796179 0.018301
v 6.573917 0.786351 -0.020690
v 6.570774 0.783670 -0.020559
v 6.565700 0.781800 -0.015989
v 6.566733 0.779557 -0.019520
v 6.566875 0.790609 0.013278
v 6.563234 0.786843 0.000282
v 6.575084 0.784935 -0.022833
v 6.578292 0.787874 -0.021945
v 6.577473 0.788860 -0.020461
v 6.572234 0.781870 -0.023314
v 6.562125 0.777836 -0.013853
v 6.561776 0.780483 -0.009484
v 6.560894 0.784300 0.003864
v 6.563510 0.787933 0.008768
v 6.576687 0.783691 -0.024717
v 6.574242 0.780271 -0.025774
v 6.581075 0.791196 -0.018880
v 6.568498 0.777388 -0.023016
v 6.570975 0.775413 -0.026238
v 6.559292 0.777154 -0.006948
v 6.559594 0.780752 -0.001344
v 6.558709 0.780388 0.008328
v 6.580891 0.791845 -0.017909
v 6.565280 0.772971 -0.022105
v 6.563262 0.775407 -0.017979
v 6.557384 0.776984 0.002050
v 6.574141 0.773753 -0.028942
v 6.560865 0.771736 -0.016362
v 6.559635 0.774236 -0.011797
v 6.571919 0.768755 -0.029270
v 6.576259 0.767275 -0.031702
v 6.581259 0.790547 -0.019851
v 6.557629 0.770310 -0.009645
v 6.557247 0.773424 -0.004184
v 6.568170 0.770697 -0.025960
v 6.575282 0.762992 -0.031736
v 6.555677 0.768817 -0.001738
v 6.556163 0.766066 -0.007534
v 6.559011 0.767780 -0.014533
v 6.557714 0.763542 -0.012669
v 6.555705 0.771985 0.004925
v 6.566336 0.766672 -0.025273
v 6.563114 0.769137 -0.020958
v 6.570489 0.764574 -0.028995
v 6.555290 0.761504 -0.005599
v 6.561556 0.765068 -0.019571
v 6.556985 0.759016 -0.010944
v 6.559945 0.756368 -0.016528
v 6.560528 0.760805 -0.018058
v 6.569556 0.760309 -0.028363
v 6.565119 0.762479 -0.024326
v 6.564372 0.758172 -0.023150
v 6.556794 0.754359 -0.009302
v 6.559786 0.751840 -0.014958
v 6.563940 0.753793 -0.021773
v 6.563804 0.749379 -0.020229
v 6.569012 0.755962 -0.027392
v 6.574625 0.758691 -0.031329
v 6.574251 0.754323 -0.030494
v 6.580061 0.757763 -0.032861
v 6.580402 0.762078 -0.033097
v 6.568744 0.751528 -0.026100
v 6.560151 0.746249 -0.012922
v 6.579821 0.748968 -0.030930
v 6.574122 0.749832 -0.029244
v 6.579870 0.753404 -0.032155
v 6.585659 0.757472 -0.033266
v 6.585659 0.753126 -0.032622
v 6.568669 0.747130 -0.024520
v 6.574107 0.745432 -0.027606
v 6.585659 0.748745 -0.031406
v 6.585659 0.744457 -0.029717
v 6.579823 0.744632 -0.029254
v 6.591498 0.748967 -0.030930
v 6.591449 0.753404 -0.032156
v 6.568748 0.741925 -0.022267
v 6.564015 0.743950 -0.018140
v 6.579797 0.739676 -0.026780
v 6.574096 0.740418 -0.025184
v 6.597209 0.749829 -0.029244
v 6.597213 0.745431 -0.027606
v 6.591494 0.744631 -0.029254
v 6.564399 0.737911 -0.015878
v 6.568984 0.736160 -0.019879
v 6.560757 0.740241 -0.010684
v 6.558103 0.742829 -0.005221
v 6.557269 0.748637 -0.007299
v 6.602627 0.751520 -0.026100
v 6.602387 0.755953 -0.027393
v 6.591520 0.739676 -0.026780
v 6.564643 0.734105 -0.014804
v 6.561136 0.735972 -0.009517
v 6.558689 0.737926 -0.003961
v 6.556468 0.745026 -0.000062
v 6.555480 0.750932 -0.001937
v 6.555002 0.756784 -0.003847
v 6.607068 0.758161 -0.023149
v 6.606278 0.762474 -0.024326
v 6.585659 0.739498 -0.027246
v 6.561152 0.731670 -0.009686
v 6.554290 0.759295 0.002006
v 6.555229 0.750404 0.004468
v 6.554726 0.753395 0.003666
v 6.554671 0.764158 0.000376
v 6.585659 0.733802 -0.024742
v 6.579854 0.733956 -0.024242
v 6.554903 0.756145 0.010077
v 6.555161 0.753022 0.010812
v 6.555733 0.747414 0.005271
v 6.554666 0.767165 0.006941
v 6.610869 0.760799 -0.018055
v 6.574229 0.734741 -0.022610
v 6.556201 0.744569 0.005717
v 6.555464 0.749908 0.011536
v 6.557274 0.739742 0.001096
v 6.554444 0.762062 0.008631
v 6.611426 0.756362 -0.016524
v 6.607459 0.753783 -0.021771
v 6.614345 0.759016 -0.010942
v 6.558806 0.733460 -0.003953
v 6.557545 0.735170 0.001202
v 6.556992 0.741786 0.006173
v 6.555806 0.758596 0.016460
v 6.607534 0.749375 -0.020228
v 6.602661 0.747127 -0.024520
v 6.616026 0.761504 -0.005599
v 6.558573 0.728861 -0.004274
v 6.557255 0.736850 0.006102
v 6.556341 0.742686 0.009318
v 6.555791 0.746877 0.012174
v 6.602569 0.741925 -0.022267
v 6.597221 0.740418 -0.025184
v 6.616507 0.767296 0.006965
v 6.616675 0.764155 0.000394
v 6.557155 0.732098 0.005779
v 6.556091 0.743585 0.012463
v 6.556737 0.749346 0.018346
v 6.556221 0.752451 0.017561
v 6.591464 0.733956 -0.024242
v 6.617042 0.759280 0.002041
v 6.557374 0.730515 0.000898
v 6.556661 0.726278 0.000456
v 6.556326 0.727716 0.004952
v 6.556533 0.744809 0.015893
v 6.555952 0.755510 0.016908
v 6.585659 0.730888 -0.024366
v 6.555527 0.723960 0.003786
v 6.557376 0.746033 0.019322
v 6.556338 0.760636 0.019395
v 6.555479 0.762847 0.018701
v 6.554900 0.764576 0.014616
v 6.557515 0.758916 0.019617
v 6.580007 0.730990 -0.023815
v 6.574485 0.731483 -0.022067
v 6.557994 0.763410 0.024297
v 6.556797 0.765084 0.022892
v 6.559111 0.761734 0.024796
v 6.555160 0.765890 0.017471
v 6.555997 0.766091 0.020914
v 6.554867 0.768730 0.013475
v 6.559448 0.759436 0.022833
v 6.580153 0.727268 -0.024549
v 6.561049 0.762893 0.027562
v 6.560293 0.765228 0.027949
v 6.556071 0.768953 0.020317
v 6.555453 0.769141 0.017652
v 6.556816 0.768668 0.022813
v 6.555573 0.772417 0.012694
v 6.561833 0.760356 0.026169
v 6.569231 0.732564 -0.019029
v 6.562210 0.767470 0.030309
v 6.559067 0.766763 0.026876
v 6.557199 0.772087 0.021568
v 6.556183 0.772297 0.017899
v 6.556568 0.775539 0.011686
v 6.564629 0.761678 0.029309
v 6.569355 0.728648 -0.019535
v 6.564650 0.729999 -0.015164
v 6.557034 0.774768 0.018040
v 6.560908 0.783844 0.014560
v 6.558432 0.779847 0.013139
v 6.563380 0.764694 0.030300
v 6.564425 0.725643 -0.015794
v 6.560887 0.727175 -0.010147
v 6.557782 0.767794 0.024962
v 6.565664 0.788591 0.017244
v 6.558288 0.778620 0.017506
v 6.560316 0.723069 -0.010212
v 6.557945 0.724702 -0.004412
v 6.559359 0.770721 0.026911
v 6.558228 0.771795 0.024526
v 6.560771 0.769388 0.029005
v 6.557421 0.720944 -0.004407
v 6.556007 0.722530 -0.000070
v 6.560527 0.775751 0.026472
v 6.561745 0.774233 0.028998
v 6.563202 0.772408 0.031149
v 6.559090 0.776207 0.023074
v 6.566218 0.766819 0.032718
v 6.564754 0.770004 0.032530
v 6.556042 0.719420 -0.000638
v 6.555519 0.721087 0.002444
v 6.564816 0.777829 0.030900
v 6.567847 0.772745 0.034337
v 6.566289 0.775612 0.032981
v 6.562103 0.781300 0.025055
v 6.561085 0.782302 0.020393
v 6.556041 0.718777 0.000848
v 6.569950 0.778782 0.034161
v 6.571390 0.775600 0.035446
v 6.573060 0.771843 0.035787
v 6.569477 0.769218 0.034615
v 6.567796 0.763404 0.031940
v 6.563335 0.784436 0.022795
v 6.564598 0.786623 0.020193
v 6.556831 0.716710 -0.001085
v 6.575045 0.778342 0.035869
v 6.571245 0.765487 0.033951
v 6.568272 0.786414 0.027132
v 6.570096 0.790805 0.021104
v 6.569154 0.788884 0.024384
v 6.557519 0.717615 -0.004306
v 6.558323 0.714604 -0.003994
v 6.574883 0.767883 0.035232
v 6.574411 0.790154 0.027015
v 6.571053 0.792644 0.017068
v 6.559893 0.719232 -0.009941
v 6.560082 0.715591 -0.009395
v 6.560948 0.712178 -0.008518
v 6.578591 0.770512 0.035737
v 6.576754 0.774541 0.036222
v 6.563920 0.721589 -0.015889
v 6.563563 0.717671 -0.015491
v 6.563778 0.713750 -0.014645
v 6.564600 0.709975 -0.013319
v 6.580344 0.777162 0.035914
v 6.582245 0.773292 0.035418
v 6.575111 0.792287 0.023757
v 6.580317 0.793103 0.025259
v 6.580866 0.795028 0.021099
v 6.568881 0.720473 -0.020355
v 6.568633 0.712494 -0.018749
v 6.568548 0.716545 -0.019837
v 6.569171 0.708539 -0.017057
v 6.585726 0.776131 0.034445
v 6.584975 0.795279 0.021879
v 6.585760 0.796524 0.018266
v 6.574199 0.715759 -0.022979
v 6.574144 0.711673 -0.021724
v 6.574377 0.707677 -0.019785
v 6.583686 0.779277 0.035104
v 6.586634 0.780448 0.034041
v 6.588913 0.778937 0.032988
v 6.579846 0.711142 -0.023622
v 6.579930 0.707195 -0.021557
v 6.582285 0.783265 0.034577
v 6.578475 0.780758 0.035616
v 6.591954 0.781727 0.031290
v 6.587283 0.783018 0.033010
v 6.593020 0.795686 0.017630
v 6.588379 0.795305 0.021939
v 6.590889 0.794787 0.021633
v 6.585659 0.707049 -0.022205
v 6.576828 0.783792 0.034573
v 6.573638 0.781608 0.034689
v 6.588585 0.786445 0.030980
v 6.593184 0.785358 0.029117
v 6.583976 0.793599 0.025761
v 6.586938 0.793444 0.025430
v 6.591471 0.711142 -0.023622
v 6.591387 0.707195 -0.021557
v 6.585659 0.710948 -0.024304
v 6.572221 0.784553 0.032486
v 6.568426 0.780976 0.032281
v 6.594296 0.788618 0.026661
v 6.582715 0.791275 0.029028
v 6.579527 0.791016 0.028404
v 6.596941 0.707677 -0.019785
v 6.585659 0.715008 -0.025650
v 6.579907 0.715217 -0.024953
v 6.567855 0.782524 0.030639
v 6.563314 0.779511 0.028488
v 6.577688 0.788816 0.030924
v 6.573346 0.787711 0.029792
v 6.602684 0.712494 -0.018749
v 6.602146 0.708539 -0.017057
v 6.597173 0.711673 -0.021724
v 6.580074 0.719190 -0.025575
v 6.567226 0.784058 0.029269
v 6.606717 0.709975 -0.013319
v 6.597118 0.715759 -0.022979
v 6.591410 0.715217 -0.024953
v 6.576272 0.786428 0.032941
v 6.611234 0.715591 -0.009395
v 6.610369 0.712178 -0.008518
v 6.607539 0.713750 -0.014645
v 6.591243 0.719190 -0.025575
v 6.585659 0.719015 -0.026263
v 6.581732 0.787594 0.032618
v 6.613021 0.714604 -0.003994
v 6.607754 0.717671 -0.015491
v 6.602769 0.716545 -0.019837
v 6.585659 0.723052 -0.026104
v 6.585269 0.791099 0.029113
v 6.587852 0.790694 0.028827
v 6.585790 0.787188 0.032148
v 6.613810 0.717618 -0.004310
v 6.615325 0.719430 -0.000650
v 6.614594 0.716710 -0.001085
v 6.602436 0.720473 -0.020355
v 6.596827 0.719686 -0.023582
v 6.589396 0.793286 0.025274
v 6.590203 0.789859 0.028176
v 6.613899 0.720946 -0.004408
v 6.615438 0.718777 0.000848
v 6.596567 0.723619 -0.023495
v 6.591112 0.723177 -0.025447
v 6.591818 0.792375 0.024822
v 6.593325 0.794071 0.021349
v 6.595172 0.791135 0.023637
v 6.615906 0.721087 0.002444
v 6.591164 0.727268 -0.024549
v 6.595853 0.793068 0.020129
v 6.596377 0.794577 0.016218
v 6.615322 0.722535 -0.000074
v 6.615817 0.723960 0.003786
v 6.598688 0.794307 0.015478
v 6.611001 0.723069 -0.010212
v 6.613372 0.724702 -0.004413
v 6.611424 0.719232 -0.009941
v 6.614656 0.726279 0.000456
v 6.614991 0.727716 0.004952
v 6.597480 0.793267 0.019870
v 6.599413 0.793005 0.018513
v 6.602180 0.792138 0.016619
v 6.612744 0.728861 -0.004274
v 6.613944 0.730515 0.000898
v 6.614162 0.732098 0.005779
v 6.597466 0.791817 0.022851
v 6.600000 0.791716 0.021488
v 6.603020 0.790801 0.019507
v 6.605923 0.789467 0.017572
v 6.607497 0.788484 0.015723
v 6.607397 0.721589 -0.015889
v 6.613772 0.735170 0.001202
v 6.614062 0.736850 0.006102
v 6.600327 0.790060 0.024442
v 6.606763 0.787612 0.019970
v 6.611959 0.782854 0.012107
v 6.610486 0.784623 0.014638
v 6.606893 0.725643 -0.015794
v 6.610430 0.727175 -0.010147
v 6.602045 0.724449 -0.020264
v 6.614326 0.741786 0.006173
v 6.612545 0.779468 0.018577
v 6.613997 0.777703 0.015496
v 6.614993 0.775059 0.011025
v 6.609029 0.785983 0.017548
v 6.609852 0.783707 0.019623
v 6.610166 0.731670 -0.009686
v 6.601962 0.728648 -0.019535
v 6.614626 0.774972 0.016923
v 6.615668 0.772548 0.012207
v 6.612511 0.733460 -0.003953
v 6.606667 0.729999 -0.015164
v 6.616077 0.769925 0.013407
v 6.613240 0.777162 0.020244
v 6.613482 0.774695 0.022440
v 6.615099 0.772006 0.017954
v 6.616385 0.767370 0.014199
v 6.616851 0.762007 0.008776
v 6.612628 0.737926 -0.003961
v 6.614043 0.739742 0.001096
v 6.615484 0.769093 0.018498
v 6.610953 0.779964 0.022971
v 6.616347 0.764503 0.015122
v 6.616424 0.756113 0.010150
v 6.610181 0.735972 -0.009517
v 6.606674 0.734105 -0.014804
v 6.614850 0.745026 -0.000062
v 6.615116 0.744570 0.005718
v 6.614976 0.742686 0.009318
v 6.615609 0.765903 0.018682
v 6.615511 0.758596 0.016460
v 6.610560 0.740241 -0.010684
v 6.615527 0.746873 0.012180
v 6.615584 0.747413 0.005273
v 6.615853 0.749895 0.011552
v 6.615226 0.743585 0.012463
v 6.615365 0.755510 0.016908
v 6.616161 0.753003 0.010855
v 6.614394 0.758916 0.018740
v 6.613214 0.742829 -0.005221
v 6.614580 0.749347 0.018361
v 6.614784 0.744809 0.015893
v 6.615096 0.752451 0.017561
v 6.616089 0.750399 0.004478
v 6.616594 0.753386 0.003683
v 6.614254 0.762915 0.021481
v 6.613130 0.759436 0.021254
v 6.615838 0.750932 -0.001937
v 6.614048 0.748637 -0.007298
v 6.613941 0.746033 0.019322
v 6.616314 0.756784 -0.003847
v 6.614418 0.766950 0.022423
v 6.613335 0.763637 0.023454
v 6.611571 0.760356 0.024236
v 6.614527 0.754358 -0.009301
v 6.611166 0.746249 -0.012922
v 6.606918 0.737911 -0.015878
v 6.614483 0.770696 0.021975
v 6.612235 0.764406 0.025302
v 6.609743 0.761678 0.027211
v 6.611544 0.751837 -0.014956
v 6.607302 0.743950 -0.018140
v 6.602333 0.736160 -0.019879
v 6.602087 0.732564 -0.019029
v 6.613795 0.769777 0.023767
v 6.610708 0.766151 0.027545
v 6.607672 0.763404 0.029703
v 6.597088 0.734741 -0.022610
v 6.596832 0.731483 -0.022067
v 6.596614 0.727708 -0.022691
v 6.612799 0.768775 0.025508
v 6.612435 0.773212 0.025505
v 6.611180 0.770702 0.027623
v 6.605347 0.765484 0.031668
v 6.591311 0.730990 -0.023815
v 6.610559 0.776097 0.026786
v 6.611083 0.778590 0.024644
v 6.606489 0.770447 0.031437
v 6.602760 0.767870 0.033064
v 6.608688 0.768100 0.029809
v 6.585659 0.727172 -0.025154
v 6.608354 0.782301 0.025112
v 6.610691 0.781403 0.021563
v 6.600197 0.770492 0.033912
v 6.580205 0.723177 -0.025447
v 6.609287 0.773153 0.029260
v 6.604247 0.773048 0.032469
v 6.602086 0.775777 0.032956
v 6.597947 0.773279 0.034235
v 6.574750 0.723619 -0.023495
v 6.574703 0.727708 -0.022691
v 6.574490 0.719686 -0.023582
v 6.607181 0.775810 0.030462
v 6.607689 0.785361 0.022457
v 6.595889 0.776128 0.033904
v 6.569273 0.724449 -0.020264
v 6.608103 0.779022 0.028170
v 6.605109 0.781323 0.029841
v 6.604901 0.778382 0.031281
v 6.604259 0.786903 0.025144
v 6.599982 0.778533 0.032881
v 6.597933 0.781198 0.032228
v 6.593903 0.778937 0.032792
v 6.602378 0.779824 0.031809
v 6.596604 0.783955 0.030861
v 6.601786 0.782286 0.031104
v 6.600522 0.784949 0.029768
v 6.604907 0.784264 0.027780
v 6.596654 0.786994 0.028649
v 6.600270 0.787670 0.027377
v 6.597226 0.789794 0.025878
v 6.603662 0.789119 0.022353
vn 0.5588 0.1692 0.8119
vn 0.5872 0.2455 0.7713
vn 0.5366 -0.5763 0.6163
vn 0.6495 -0.4118 0.6392
vn 0.5934 0.3082 0.7436
vn 0.6665 -0.3123 0.6770
vn 0.3856 -0.8892 0.2463
vn 0.5474 0.4337 0.7157
vn 0.4759 0.2690 0.8373
vn 0.5860 0.2015 0.7849
vn 0.6878 0.3679 0.6257
vn 0.3623 -0.0764 0.9289
vn 0.6474 -0.7407 0.1798
vn 0.5548 -0.8050 -0.2105
vn 0.4001 -0.8712 0.2844
vn 0.3931 -0.8777 0.2739
vn 0.3998 -0.8705 0.2870
vn -0.4673 -0.4950 0.7325
vn -0.5102 -0.5541 0.6578
vn -0.3998 -0.8705 0.2870
vn -0.4001 -0.8712 0.2844
vn 0.5691 -0.7983 -0.1972
vn 0.4673 -0.4950 0.7325
vn 0.5102 -0.5541 0.6578
vn 0.0002 -0.4158 0.9094
vn 0.5820 -0.7907 -0.1898
vn 0.4927 -0.0258 0.8698
vn 0.5857 -0.7883 -0.1887
vn 0.4935 -0.1681 0.8534
vn 0.5861 -0.7880 -0.1887
vn 0.4967 -0.3110 0.8103
vn 0.5857 -0.7883 -0.1885
vn 0.4996 -0.3611 0.7874
vn 0.5851 -0.7888 -0.1881
vn 0.5053 -0.3895 0.7700
vn 0.5788 -0.7969 -0.1730
vn -0.1396 -0.9768 -0.1622
vn 0.5174 -0.4370 0.7358
vn 0.5933 -0.7920 -0.1439
vn -0.7179 -0.6429 0.2670
vn -0.7882 -0.6073 -0.0997
vn -0.1325 -0.9835 -0.1235
vn 0.6305 -0.7683 -0.1100
vn 0.6090 -0.7829 -0.1276
vn -0.8023 -0.5934 -0.0647
vn 0.5344 -0.4919 0.6874
vn -0.7914 -0.5987 -0.1238
vn 0.5509 -0.5349 0.6406
vn -0.7636 -0.6381 -0.0983
vn 0.5505 -0.5415 0.6354
vn -0.7152 -0.6958 -0.0658
vn 0.5056 -0.5066 0.6984
vn -0.6927 -0.7191 -0.0562
vn 0.4168 -0.4589 0.7846
vn -0.6879 -0.7236 -0.0563
vn 0.3077 -0.4232 0.8522
vn -0.6709 -0.7391 -0.0598
vn -0.6400 -0.7631 -0.0898
vn -0.6523 -0.3854 0.6527
vn -0.3623 -0.0764 0.9289
vn 0.1726 -0.4010 0.8997
vn -0.8936 -0.1756 -0.4131
vn -0.8936 -0.1755 -0.4131
vn -0.5368 -0.5763 0.6162
vn -0.5588 0.1692 0.8119
vn -0.0000 -0.3931 0.9195
vn -0.3856 -0.8892 0.2463
vn -0.6664 -0.3132 0.6767
vn -0.5941 0.3085 0.7428
vn -0.5874 0.2468 0.7707
vn -0.1726 -0.4010 0.8997
vn -0.3931 -0.8777 0.2739
vn 0.7785 -0.0838 -0.6220
vn 0.8911 -0.0942 -0.4439
vn 0.8786 0.0570 -0.4741
vn 0.7507 0.0914 -0.6543
vn -0.3077 -0.4232 0.8522
vn -0.4168 -0.4589 0.7846
vn -0.4927 -0.0258 0.8698
vn -0.5056 -0.5066 0.6984
vn -0.4935 -0.1681 0.8534
vn -0.5500 -0.5408 0.6365
vn -0.4968 -0.3130 0.8095
vn -0.5155 -0.4382 0.7364
vn -0.5060 -0.3996 0.7644
vn -0.5003 -0.3691 0.7832
vn -0.5305 -0.4853 0.6951
vn -0.5483 -0.5306 0.6464
vn -0.4177 0.8629 -0.2845
vn -0.4699 0.8104 -0.3500
vn -0.5837 0.7608 -0.2836
vn -0.5123 0.8333 -0.2079
vn -0.0000 0.7158 -0.6983
vn -0.0000 0.8333 -0.5528
vn 0.0409 0.7241 -0.6885
vn 0.0767 0.6053 -0.7923
vn -0.0000 0.6021 -0.7984
vn -0.0409 0.7241 -0.6885
vn -0.9745 -0.1671 -0.1495
vn -0.9803 -0.0728 -0.1834
vn -0.9329 -0.1337 -0.3344
vn -0.9319 -0.2066 -0.2981
vn 0.0806 0.7244 -0.6846
vn -0.0000 0.4939 -0.8695
vn -0.1003 0.4990 -0.8608
vn -0.0767 0.6053 -0.7923
vn 0.1003 0.4990 -0.8608
vn 0.1153 0.3897 -0.9137
vn -0.0000 0.3800 -0.9250
vn 0.1453 0.6161 -0.7741
vn -0.0806 0.7244 -0.6846
vn -0.1964 0.5122 -0.8361
vn -0.1453 0.6161 -0.7741
vn -0.2845 0.5305 -0.7985
vn -0.2074 0.6315 -0.7471
vn -0.4830 0.8495 0.2120
vn -0.3315 0.9016 0.2778
vn -0.3054 0.9389 0.1586
vn -0.4403 0.8909 0.1113
vn 0.1107 0.7385 -0.6651
vn -0.1153 0.3897 -0.9137
vn -0.9990 -0.0200 -0.0406
vn -0.9910 0.0981 -0.0907
vn -0.9753 0.0373 -0.2179
vn 0.7741 -0.2451 -0.5837
vn 0.6112 -0.2741 -0.7425
vn 0.6147 -0.3254 -0.7185
vn 0.7684 -0.2695 -0.5805
vn -0.2006 0.9322 -0.3012
vn -0.2528 0.9075 -0.3353
vn -0.3508 0.9083 -0.2276
vn -0.2750 0.9436 -0.1845
vn 0.2074 0.6315 -0.7471
vn -0.1107 0.7385 -0.6651
vn -0.0754 0.9620 -0.2624
vn -0.1032 0.9852 -0.1371
vn -0.0050 0.9911 -0.1327
vn -0.0022 0.9660 -0.2586
vn -0.6347 0.6390 -0.4345
vn -0.6235 0.6940 -0.3601
vn -0.5022 0.7573 -0.4175
vn -0.5135 0.7106 -0.4809
vn -0.2619 0.6540 -0.7097
vn -0.1429 0.7474 -0.6488
vn 0.1429 0.7474 -0.6488
vn 0.2395 0.4120 -0.8791
vn 0.1964 0.5122 -0.8361
vn 0.2845 0.5305 -0.7985
vn 0.3562 0.4366 -0.8261
vn 0.1625 0.7661 -0.6219
vn 0.1832 0.7805 -0.5977
vn 0.3392 0.7124 -0.6144
vn 0.3082 0.6813 -0.6639
vn -0.1287 0.2548 -0.9584
vn -0.2882 0.2860 -0.9139
vn -0.2395 0.4120 -0.8791
vn -0.4375 0.3215 -0.8398
vn -0.3562 0.4366 -0.8261
vn -0.7793 0.4725 0.4116
vn -0.5923 0.5688 0.5707
vn -0.5472 0.6900 0.4738
vn -0.7134 0.6253 0.3163
vn -0.0000 0.2423 -0.9702
vn 0.2882 0.2860 -0.9139
vn 0.1287 0.2548 -0.9584
vn 0.0891 0.9856 -0.1437
vn 0.1026 0.9930 -0.0591
vn 0.2078 0.9742 -0.0882
vn 0.1782 0.9692 -0.1699
vn 0.0689 0.9616 -0.2655
vn 0.1354 0.9489 -0.2850
vn 0.2619 0.6540 -0.7097
vn -0.1625 0.7661 -0.6219
vn -0.3392 0.7124 -0.6144
vn -0.1832 0.7805 -0.5977
vn -0.3082 0.6813 -0.6639
vn -0.1439 0.1224 -0.9820
vn -0.3349 0.1531 -0.9297
vn -0.7208 0.3026 -0.6236
vn -0.7784 0.3630 -0.5122
vn -0.6953 0.4533 -0.5578
vn -0.6382 0.4051 -0.6547
vn 0.9522 0.2682 0.1461
vn 0.9752 0.2195 0.0293
vn 0.9570 0.2900 -0.0041
vn 0.9248 0.3641 0.1103
vn 0.8704 -0.2335 -0.4334
vn 0.8665 -0.1830 -0.4644
vn 0.9334 -0.1349 -0.3324
vn 0.9320 -0.2068 -0.2977
vn -0.1965 0.9265 0.3210
vn -0.1725 0.9664 0.1905
vn 0.1894 0.7997 -0.5698
vn 0.1960 0.8152 -0.5449
vn 0.3605 0.7748 -0.5194
vn 0.3571 0.7439 -0.5649
vn 0.3528 0.8065 -0.4744
vn 0.1880 0.8330 -0.5203
vn -0.3605 0.7748 -0.5194
vn -0.1960 0.8152 -0.5450
vn -0.1894 0.7997 -0.5698
vn -0.3571 0.7439 -0.5649
vn 0.4219 0.9054 0.0469
vn 0.5504 0.8345 -0.0256
vn 0.4979 0.8606 -0.1070
vn 0.3738 0.9259 -0.0553
vn 0.5826 0.0086 -0.8127
vn 0.5715 0.1146 -0.8125
vn 0.7425 0.1192 -0.6592
vn 0.7517 0.0542 -0.6572
vn -0.4339 0.5877 -0.6829
vn -0.3660 0.5554 -0.7467
vn -0.4577 0.4649 -0.7579
vn -0.5384 0.5004 -0.6780
vn -0.8141 0.4217 -0.3992
vn -0.8797 0.3309 -0.3415
vn -0.8868 0.3898 -0.2483
vn -0.8258 0.4742 -0.3052
vn 0.1439 0.1224 -0.9820
vn -0.0000 0.1124 -0.9937
vn -0.5068 0.6681 -0.5448
vn -0.6243 0.5900 -0.5120
vn -0.1880 0.8330 -0.5203
vn -0.3530 0.8068 -0.4738
vn -0.5930 0.5423 -0.5953
vn -0.4809 0.6260 -0.6138
vn -0.5532 0.3601 -0.7512
vn 0.5135 0.7106 -0.4809
vn 0.5022 0.7561 -0.4196
vn 0.5785 -0.3073 -0.7556
vn 0.5867 -0.1401 -0.7976
vn 0.7611 -0.0855 -0.6430
vn 0.7544 -0.2664 -0.5999
vn -0.1628 0.0064 -0.9866
vn -0.0000 0.0020 -1.0000
vn -0.7313 0.5042 -0.4594
vn -0.7467 0.5537 -0.3685
vn -0.6329 -0.1393 0.7616
vn -0.7442 0.0363 0.6670
vn -0.7948 -0.0791 0.6017
vn -0.7009 -0.2246 0.6769
vn 0.8138 0.4219 -0.3996
vn 0.8789 0.3313 -0.3430
vn 0.8463 0.2597 -0.4652
vn 0.7782 0.3635 -0.5121
vn -0.8695 0.0992 -0.4839
vn -0.7517 0.0542 -0.6572
vn -0.7611 -0.0855 -0.6430
vn -0.8782 -0.0219 -0.4778
vn 0.1600 0.8680 -0.4702
vn 0.1407 0.8842 -0.4454
vn 0.2514 0.9032 -0.3479
vn 0.2967 0.8736 -0.3857
vn 0.9650 0.2000 0.1697
vn 0.9839 0.1666 0.0642
vn -0.5099 0.1955 -0.8377
vn 0.4375 0.3215 -0.8398
vn -0.1598 0.8682 -0.4697
vn -0.1810 0.8513 -0.4924
vn -0.3309 0.8425 -0.4251
vn -0.2981 0.8766 -0.3777
vn 0.6984 0.6751 -0.2378
vn 0.6111 0.7724 -0.1731
vn 0.7028 0.7065 -0.0830
vn 0.7780 0.6007 -0.1842
vn 0.8764 0.4358 0.2051
vn 0.9042 0.3534 0.2397
vn 0.8135 0.5283 -0.2433
vn 0.8254 0.4747 -0.3055
vn 0.7467 0.5537 -0.3685
vn 0.7378 0.6077 -0.2938
vn 0.9268 0.2344 -0.2935
vn 0.8921 0.1533 -0.4251
vn -0.1938 0.9687 -0.1551
vn -0.1414 0.9501 -0.2779
vn -0.6985 0.1186 -0.7057
vn -0.7382 0.0036 -0.6745
vn -0.8306 0.0677 -0.5528
vn -0.7883 0.1826 -0.5876
vn -0.8604 -0.1016 -0.4994
vn -0.8656 -0.1795 -0.4675
vn -0.9287 -0.0400 -0.3686
vn 0.1810 0.8513 -0.4925
vn -0.5660 0.0680 -0.8216
vn -0.6344 0.2449 -0.7332
vn -0.3753 0.0286 -0.9265
vn -0.7575 -0.0866 -0.6470
vn -0.8510 -0.0243 -0.5245
vn -0.0000 -0.0991 -0.9951
vn -0.1823 -0.0977 -0.9784
vn -0.4244 0.8944 -0.1412
vn -0.6023 -0.0451 -0.7970
vn -0.6216 -0.1400 -0.7707
vn 0.4173 0.8558 -0.3059
vn 0.4701 0.8059 -0.3599
vn 0.3303 0.8411 -0.4283
vn 0.8805 -0.2205 -0.4195
vn 0.9371 -0.2082 -0.2801
vn 0.9497 -0.1081 -0.2940
vn -0.3947 0.7272 0.5615
vn -0.3594 0.7985 0.4830
vn -0.5278 0.7555 0.3881
vn 0.0428 0.3923 0.9189
vn 0.2940 0.4559 0.8400
vn 0.2532 0.5907 0.7661
vn -0.0438 0.5304 0.8466
vn -0.2725 0.9610 0.0466
vn -0.1547 0.9862 0.0584
vn -0.1263 0.9910 -0.0448
vn -0.2318 0.9708 -0.0623
vn -0.4239 0.0254 0.9054
vn -0.5582 0.2089 0.8030
vn -0.6709 0.1246 0.7310
vn -0.5458 -0.0576 0.8359
vn 0.1093 0.8955 -0.4314
vn 0.4160 -0.3840 -0.8243
vn 0.4231 -0.3540 -0.8341
vn 0.6231 -0.2920 -0.7256
vn -0.1970 -0.2056 -0.9586
vn -0.4254 -0.1828 -0.8864
vn -0.4059 -0.0813 -0.9103
vn -0.7672 -0.2275 -0.5997
vn -0.7649 -0.1592 -0.6241
vn 0.7313 0.5042 -0.4594
vn 0.6952 0.4533 -0.5578
vn 0.5930 0.5423 -0.5953
vn 0.6243 0.5900 -0.5120
vn 0.5181 0.8207 -0.2409
vn 0.5876 0.7519 -0.2991
vn 0.9918 0.1267 -0.0140
vn 0.9701 0.2344 -0.0634
vn 0.3742 0.0296 -0.9269
vn 0.4038 -0.0802 -0.9113
vn 0.1819 -0.0976 -0.9785
vn 0.1626 0.0066 -0.9867
vn 0.8311 0.0745 -0.5511
vn 0.8538 -0.0222 -0.5200
vn 0.7580 -0.0864 -0.6465
vn 0.7368 0.0101 -0.6760
vn 0.9183 0.3929 -0.0486
vn 0.9364 0.3318 -0.1141
vn 0.9927 -0.0686 0.0997
vn 0.9935 -0.1132 -0.0081
vn 0.9991 -0.0173 -0.0387
vn 0.9983 -0.0039 0.0580
vn -0.8757 0.4542 -0.1642
vn -0.9293 0.3563 -0.0969
vn -0.8931 0.4496 -0.0139
vn -0.8399 0.5391 -0.0632
vn 0.5093 0.1962 -0.8379
vn 0.3347 0.1533 -0.9298
vn -0.9705 0.1990 -0.1364
vn -0.9660 0.2509 -0.0624
vn -0.9374 0.2940 -0.1869
vn -0.8145 0.5332 -0.2289
vn 0.0780 0.9079 -0.4118
vn -0.4228 0.2854 0.8601
vn -0.5314 0.4165 0.7376
vn -0.6507 0.3244 0.6866
vn 0.0388 0.9119 -0.4087
vn -0.4109 0.5552 0.7231
vn -0.2884 0.3452 0.8931
vn -0.9275 0.2346 -0.2910
vn -0.9585 0.1372 -0.2497
vn -0.9736 0.1429 0.1782
vn -0.9453 0.2654 0.1898
vn -0.9646 0.2595 0.0461
vn -0.9902 0.1259 0.0603
vn -0.9936 -0.1127 -0.0078
vn -0.0003 0.9170 -0.3988
vn 0.8751 0.4805 0.0577
vn 0.8333 0.5377 0.1288
vn 0.7674 -0.2325 -0.5975
vn -0.4092 -0.0252 -0.9121
vn -0.6045 -0.0642 -0.7940
vn -0.6112 -0.2741 -0.7425
vn -0.4165 -0.2843 -0.8635
vn 0.1984 0.9287 -0.3134
vn 0.2662 0.9409 -0.2092
vn -0.4040 0.1138 -0.9076
vn -0.3943 0.1559 -0.9057
vn -0.2035 0.1923 -0.9600
vn -0.2171 0.1213 -0.9686
vn -0.0396 0.9120 -0.4084
vn -0.0518 0.3616 0.9309
vn 0.0811 0.2527 0.9641
vn 0.1667 0.2720 0.9478
vn -0.5785 -0.3073 -0.7556
vn -0.5660 -0.3905 -0.7261
vn -0.7334 -0.3586 -0.5775
vn -0.7544 -0.2664 -0.5999
vn 0.5990 -0.0415 -0.7997
vn 0.6188 -0.1410 -0.7728
vn 0.5746 0.8179 0.0312
vn 0.6133 0.7859 0.0794
vn 0.5366 -0.1023 0.8376
vn 0.6178 -0.0763 0.7826
vn 0.5063 0.0041 0.8623
vn 0.4147 -0.0277 0.9095
vn -0.0781 0.9084 -0.4108
vn 0.6347 0.6390 -0.4345
vn 0.6241 0.6920 -0.3629
vn 0.8211 0.4877 0.2967
vn 0.8236 0.4637 0.3267
vn -0.9841 -0.0743 0.1616
vn -0.9878 -0.0457 0.1492
vn -0.9920 -0.0826 0.0954
vn -0.9906 -0.1038 0.0890
vn 0.9725 -0.1955 -0.1264
vn 0.9826 -0.1816 -0.0391
vn 0.9802 -0.1902 -0.0552
vn 0.9851 -0.1208 -0.1227
vn 0.9071 0.2617 0.3296
vn 0.8052 0.3992 0.4384
vn 0.7616 0.2859 0.5816
vn 0.8333 0.1842 0.5212
vn 0.8718 -0.2148 -0.4402
vn 0.8779 -0.0214 -0.4783
vn 0.9242 0.0517 -0.3785
vn 0.9264 -0.1642 -0.3389
vn 0.7659 -0.1656 -0.6212
vn 0.6257 -0.2234 -0.7474
vn -0.1081 0.8966 -0.4295
vn 0.9873 -0.0466 0.1516
vn 0.9838 -0.0748 0.1626
vn 0.9905 -0.1045 0.0894
vn 0.9918 -0.0838 0.0963
vn -0.0104 0.9990 -0.0442
vn -0.1514 -0.0958 0.9838
vn -0.0046 -0.0192 0.9998
vn -0.1398 0.1574 0.9776
vn -0.2850 0.0993 0.9534
vn 0.5068 0.6681 -0.5448
vn -0.1397 0.8852 -0.4438
vn -0.0187 0.9986 0.0494
vn 0.1183 0.9926 0.0268
vn 0.3479 0.9019 -0.2560
vn 0.4231 -0.1832 -0.8874
vn 0.4286 -0.2740 -0.8609
vn -0.2032 0.0161 -0.9790
vn -0.4239 -0.3527 -0.8342
vn -0.6240 -0.2885 -0.7263
vn -0.6274 -0.2184 -0.7474
vn -0.4302 -0.2722 -0.8607
vn 0.9745 -0.1675 -0.1496
vn 0.9802 -0.0737 -0.1837
vn -0.9704 -0.1396 0.1970
vn -0.9952 -0.0222 0.0958
vn -0.9983 -0.0120 0.0563
vn -0.9927 -0.0687 0.0987
vn -0.0000 0.0332 -0.9994
vn -0.0000 0.2090 -0.9779
vn -0.7684 -0.2684 -0.5810
vn -0.8703 -0.2327 -0.4340
vn 0.4242 0.8870 -0.1824
vn -0.7379 0.6105 -0.2877
vn -0.1212 0.4030 0.9072
vn -0.2206 0.5924 0.7748
vn 0.1555 0.3238 0.9332
vn 0.0257 0.5842 0.8112
vn 0.4466 0.8857 0.1266
vn -0.2443 -0.2829 0.9275
vn -0.1044 -0.1910 0.9760
vn -0.2926 -0.1824 0.9387
vn -0.8662 0.0234 0.4992
vn -0.8946 -0.1117 0.4328
vn -0.8056 -0.2729 0.5259
vn -0.8086 0.5782 0.1086
vn -0.7546 0.6551 0.0395
vn 0.7920 0.5713 0.2152
vn 0.7319 0.6660 0.1442
vn 0.6223 0.7441 0.2429
vn 0.6771 0.6633 0.3188
vn 0.8516 0.5114 -0.1152
vn 0.8793 0.4387 -0.1852
vn -0.8205 0.1496 0.5517
vn -0.8758 0.2286 0.4252
vn -0.9195 0.1216 0.3737
vn -0.8949 0.4080 0.1809
vn -0.8274 0.5135 0.2276
vn -0.8917 0.4487 0.0592
vn -0.5715 0.1146 -0.8125
vn -0.5740 0.1219 -0.8097
vn -0.0088 0.9907 0.1360
vn 0.0097 0.9812 0.1925
vn 0.5508 0.6627 0.5074
vn 0.5422 0.7346 0.4079
vn 0.3472 0.7774 0.5245
vn 0.2947 0.6908 0.6603
vn -0.8465 0.2575 -0.4659
vn 0.1721 0.3868 0.9060
vn 0.2876 0.9510 0.1138
vn 0.3122 0.9286 0.2006
vn 0.5134 0.8054 0.2962
vn 0.8374 -0.2050 0.5066
vn 0.7844 -0.2905 0.5481
vn 0.8182 -0.3008 0.4900
vn 0.8923 -0.2063 0.4015
vn 0.1963 0.9573 0.2123
vn 0.1586 0.9526 0.2595
vn -0.9863 0.0181 0.1640
vn 0.4809 0.6260 -0.6138
vn 0.7124 0.5929 0.3755
vn 0.9886 -0.1504 -0.0080
vn 0.9879 -0.1533 -0.0222
vn 0.3706 0.8456 0.3842
vn 0.4339 0.5877 -0.6829
vn -0.8805 -0.2205 -0.4195
vn -0.7741 -0.2451 -0.5837
vn 0.6382 0.4051 -0.6547
vn 0.5384 0.5004 -0.6780
vn 0.4040 0.1138 -0.9076
vn 0.4178 -0.0278 -0.9081
vn 0.8631 -0.1053 -0.4940
vn 0.9302 -0.0408 -0.3648
vn 0.9920 -0.0988 0.0790
vn 0.2968 0.1594 0.9415
vn 0.2120 0.1366 0.9677
vn 0.3132 0.0442 0.9487
vn 0.4039 0.0744 0.9118
vn 0.3660 0.5554 -0.7467
vn 0.4577 0.4649 -0.7579
vn 0.3162 -0.0028 0.9487
vn 0.2577 0.1084 0.9601
vn 0.1367 0.0488 0.9894
vn 0.1887 -0.0397 0.9812
vn -0.2134 0.8710 0.4425
vn -0.0489 0.8714 0.4881
vn -0.0494 0.9331 0.3561
vn 0.5532 0.3601 -0.7512
vn 0.4165 -0.2843 -0.8635
vn 0.9761 -0.0869 0.1993
vn 0.7204 0.3037 -0.6236
vn 0.6338 0.2460 -0.7334
vn 0.8136 0.5204 0.2593
vn 0.5639 0.0711 -0.8228
vn 0.2298 -0.0504 -0.9719
vn 0.2171 0.1213 -0.9686
vn -0.9167 0.0508 -0.3964
vn 0.6966 0.1235 -0.7068
vn 0.7874 0.1872 -0.5873
vn 0.9913 0.1012 -0.0842
vn 0.9708 0.2029 -0.1283
vn -0.9926 0.1196 -0.0200
vn -0.2022 -0.2777 -0.9391
vn -0.0000 -0.2735 -0.9619
vn 0.2407 0.9706 -0.0067
vn 0.1997 -0.3063 -0.9307
vn 0.1965 -0.2056 -0.9587
vn 0.9752 0.0355 -0.2186
vn 0.5572 0.5724 0.6016
vn 0.7242 0.5049 0.4696
vn -0.0000 0.1267 -0.9919
vn 0.9583 0.1357 -0.2516
vn 0.9182 0.0527 -0.3925
vn -0.4074 -0.3429 -0.8464
vn -0.3988 -0.4216 -0.8144
vn 0.7890 0.6144 -0.0030
vn -0.8916 0.1497 -0.4273
vn 0.2022 -0.2777 -0.9391
vn 0.1949 -0.4179 -0.8874
vn -0.0000 -0.2104 -0.9776
vn 0.1955 -0.3942 -0.8980
vn -0.6149 -0.3246 -0.7187
vn -0.2298 -0.0504 -0.9719
vn -0.0000 -0.0580 -0.9983
vn -0.1949 -0.4178 -0.8874
vn -0.0000 -0.4254 -0.9050
vn -0.0000 -0.3157 -0.9488
vn -0.2001 -0.3061 -0.9307
vn -0.0000 -0.4052 -0.9142
vn -0.1956 -0.3940 -0.8981
vn -0.5826 0.0086 -0.8127
vn -0.5867 -0.1401 -0.7976
vn 0.3193 0.9385 -0.1313
vn -0.3426 0.8534 0.3929
vn -0.2230 -0.3763 -0.8993
vn -0.2316 -0.2182 -0.9480
vn -0.0000 -0.2322 -0.9727
vn -0.0000 -0.3914 -0.9202
vn 0.6045 -0.0642 -0.7940
vn 0.9726 0.1056 0.2073
vn 0.9913 0.0903 0.0957
vn 0.1587 0.9784 0.1323
vn -0.9497 -0.1081 -0.2940
vn -0.9477 0.0240 -0.3182
vn -0.9892 -0.0029 -0.1463
vn -0.9851 -0.1208 -0.1227
vn 0.9477 0.0240 -0.3182
vn 0.9340 0.1173 -0.3374
vn 0.8689 0.1175 -0.4809
vn 0.4726 0.8644 0.1719
vn 0.4952 0.8400 0.2219
vn 0.6338 0.7644 0.1184
vn -0.9887 -0.1495 -0.0077
vn 0.4187 -0.1842 -0.8893
vn 0.0124 0.2205 0.9753
vn -0.4187 -0.1842 -0.8893
vn -0.4178 -0.0278 -0.9081
vn -0.9880 -0.1529 -0.0221
vn -0.9725 -0.1955 -0.1264
vn -0.9826 -0.1815 -0.0390
vn 0.8694 0.0993 -0.4840
vn 0.9205 0.1466 -0.3622
vn 0.1577 0.6612 0.7335
vn 0.4183 0.5454 0.7263
vn 0.4079 0.3938 0.8237
vn 0.1373 0.5124 0.8477
vn 0.9892 -0.0029 -0.1463
vn 0.9987 -0.0223 -0.0464
vn 0.8872 0.3905 -0.2458
vn 0.9377 0.2972 -0.1798
vn -0.3919 0.9200 0.0105
vn -0.9403 0.3393 0.0265
vn -0.0000 -0.4698 -0.8828
vn -0.2175 -0.4541 -0.8640
vn 0.9762 0.1178 -0.1819
vn -0.9802 -0.1902 -0.0552
vn -0.9866 -0.1548 -0.0517
vn -0.9920 -0.0986 0.0790
vn 0.9924 0.0902 -0.0833
vn -0.9955 -0.0876 0.0369
vn -0.7425 0.1192 -0.6592
vn -0.8689 0.1175 -0.4809
vn -0.4162 -0.3837 -0.8244
vn 0.0861 0.8685 0.4882
vn 0.3649 0.8839 0.2927
vn 0.1245 0.9184 0.3756
vn 0.9539 0.1940 -0.2291
vn -0.9793 -0.0688 0.1902
vn -0.9762 -0.0865 0.1990
vn 0.2032 0.0161 -0.9790
vn 0.9692 0.2043 -0.1372
vn 0.9652 0.1906 -0.1791
vn 0.9641 0.1069 -0.2433
vn -0.9565 -0.1043 0.2723
vn -0.8404 -0.3382 0.4236
vn -0.9556 -0.1412 0.2586
vn -0.6837 0.6879 0.2437
vn -0.7563 -0.4506 0.4743
vn 0.4092 -0.0253 -0.9121
vn 0.3376 0.9112 0.2360
vn 0.3046 0.9071 0.2904
vn -0.3316 0.9387 -0.0946
vn -0.9516 0.0085 0.3071
vn -0.2208 0.7411 0.6341
vn -0.0547 0.7787 0.6250
vn -0.2072 0.8023 0.5599
vn -0.6560 -0.5373 0.5301
vn -0.6634 -0.4728 0.5800
vn 0.2035 0.1923 -0.9600
vn 0.3943 0.1559 -0.9057
vn -0.6100 -0.4139 0.6757
vn 0.3522 0.2995 0.8867
vn -0.9510 0.1499 0.2705
vn -0.7507 0.0914 -0.6543
vn -0.7785 -0.0838 -0.6220
vn -0.5842 -0.5081 0.6329
vn 0.4053 0.1036 0.9083
vn 0.3555 0.1406 0.9240
vn 0.9592 -0.0409 0.2799
vn 0.9839 -0.0230 0.1771
vn -0.4197 -0.2684 0.8671
vn -0.5195 -0.3489 0.7800
vn -0.5813 0.4658 0.6671
vn -0.7226 0.3868 0.5729
vn 0.5740 0.1219 -0.8097
vn -0.9148 0.2623 0.3071
vn -0.9248 0.3268 0.1949
vn 0.6624 0.1324 0.7374
vn -0.8752 0.3423 0.3419
vn -0.8231 0.2949 0.4853
vn 0.9147 -0.1752 0.3641
vn 0.9741 -0.0777 0.2125
vn -0.9208 0.1459 -0.3617
vn -0.9340 0.1173 -0.3374
vn -0.6296 0.7653 0.1335
vn -0.5682 0.8215 0.0477
vn -0.6666 0.7188 0.1972
vn 0.7431 0.0385 0.6681
vn 0.7193 -0.1444 0.6795
vn 0.8156 -0.0421 0.5770
vn -0.0212 0.9670 0.2539
vn -0.7566 0.2274 0.6131
vn 0.2039 0.8782 0.4326
vn 0.3957 0.8069 0.4386
vn 0.4100 0.6967 0.5886
vn 0.1901 0.7863 0.5879
vn -0.5049 0.8622 -0.0407
vn 0.2920 0.9269 0.2360
vn 0.9643 -0.0860 -0.2503
vn -0.9662 0.0990 -0.2379
vn -0.9691 -0.1101 -0.2210
vn -0.9688 0.1794 -0.1707
vn -0.9778 0.0631 -0.1999
vn 0.3091 0.3159 0.8970
vn 0.7802 -0.1909 0.5957
vn 0.7264 -0.2313 0.6472
vn -0.9739 -0.2079 -0.0906
vn -0.6894 0.7236 -0.0347
vn -0.7731 0.6189 -0.1388
vn -0.9334 -0.2259 -0.2788
vn -0.8724 -0.2155 -0.4388
vn -0.3706 -0.3718 0.8511
vn -0.5113 0.8052 0.3005
vn -0.9048 -0.2826 -0.3185
vn -0.9280 -0.1676 -0.3327
vn 0.9030 -0.2778 -0.3278
vn 0.8502 -0.3190 -0.4187
vn 0.7334 -0.3586 -0.5775
vn 0.5660 -0.3905 -0.7261
vn 0.4074 -0.3429 -0.8464
vn 0.3988 -0.4216 -0.8144
vn -0.0242 0.6523 0.7576
vn 0.2230 -0.3763 -0.8993
vn 0.2175 -0.4541 -0.8640
vn 0.2316 -0.2182 -0.9480
vn 0.8902 0.0588 0.4518
vn 0.9427 0.1275 0.3084
vn 0.2585 0.8748 0.4099
vn 0.2624 0.7825 0.5647
vn 0.2838 0.6426 0.7117
vn 0.1003 0.8454 0.5246
vn 0.1104 0.7280 0.6766
vn 0.1122 0.9167 0.3835
vn -0.9762 0.1178 -0.1819
vn -0.9924 0.0902 -0.0833
vn -0.9987 -0.0223 -0.0464
vn -0.4742 -0.4570 0.7525
vn 0.0431 -0.1062 0.9934
vn -0.9256 0.0484 -0.3754
vn -0.9546 0.1919 -0.2278
vn 0.0457 0.7775 0.6272
vn 0.3036 0.4199 0.8553
vn -0.8507 -0.3197 -0.4172
vn -0.6099 0.7837 -0.1179
vn 0.6491 -0.1705 0.7414
vn 0.9256 -0.1971 -0.3231
vn 0.9763 -0.1615 -0.1442
vn 0.9647 0.1094 -0.2396
vn 0.9094 -0.0584 0.4119
vn -0.9698 0.2025 -0.1361
vn -0.6957 0.6885 -0.2047
vn -0.8786 0.0570 -0.4741
vn -0.9371 -0.2082 -0.2802
vn -0.8911 -0.0942 -0.4439
vn 0.9866 -0.1550 -0.0516
vn 0.9954 -0.0879 0.0369
vn 0.9793 -0.0695 0.1904
vn 0.9563 -0.1054 0.2727
vt 0.000000 0.000000
s 1
f 1/1/1 2/1/2 3/1/3
f 1/1/1 3/1/3 4/1/4
f 2/1/2 5/1/5 3/1/3
f 5/1/5 6/1/6 3/1/3
f 6/1/6 7/1/7 3/1/3
f 736/1/8 737/1/9 731/1/10 735/1/11
f 3/1/3 9/1/12 4/1/4
f 4/1/4 9/1/12 10/1/13
f 4/1/4 10/1/13 11/1/14
f 8/1/15 12/1/16 13/1/17
f 67/1/18 69/1/19 66/1/20 59/1/21
f 11/1/14 10/1/13 15/1/22
f 14/1/23 16/1/24 17/1/25
f 15/1/22 10/1/13 18/1/26
f 16/1/24 19/1/27 17/1/25
f 18/1/26 10/1/13 20/1/28
f 19/1/27 21/1/29 17/1/25
f 20/1/28 10/1/13 22/1/30
f 21/1/29 23/1/31 17/1/25
f 22/1/30 10/1/13 24/1/32
f 23/1/31 25/1/33 17/1/25
f 24/1/32 10/1/13 26/1/34
f 25/1/33 27/1/35 17/1/25
f 10/1/13 28/1/36 26/1/34
f 10/1/13 29/1/37 28/1/36
f 27/1/35 30/1/38 17/1/25
f 28/1/36 29/1/37 31/1/39
f 29/1/37 32/1/40 33/1/41
f 29/1/37 34/1/42 35/1/43
f 29/1/37 35/1/43 36/1/44
f 29/1/37 36/1/44 31/1/39
f 29/1/37 33/1/41 37/1/45
f 29/1/37 37/1/45 34/1/42
f 30/1/38 38/1/46 17/1/25
f 33/1/41 32/1/40 39/1/47
f 38/1/46 40/1/48 17/1/25
f 39/1/47 32/1/40 41/1/49
f 40/1/48 42/1/50 17/1/25
f 41/1/49 32/1/40 43/1/51
f 42/1/50 44/1/52 17/1/25
f 43/1/51 32/1/40 45/1/53
f 44/1/52 46/1/54 17/1/25
f 45/1/53 32/1/40 47/1/55
f 46/1/54 48/1/56 17/1/25
f 32/1/40 49/1/57 47/1/55
f 32/1/40 50/1/58 49/1/57
f 32/1/40 51/1/59 50/1/58
f 32/1/40 52/1/60 51/1/59
f 48/1/56 53/1/61 17/1/25
f 51/1/59 54/1/62 50/1/58
f 51/1/59 55/1/63 54/1/62
f 51/1/59 52/1/60 56/1/64
f 51/1/59 56/1/64 57/1/65
f 53/1/61 58/1/66 17/1/25
f 7/1/7 12/1/16 8/1/15 3/1/3
f 56/1/64 60/1/67 61/1/68
f 56/1/64 61/1/68 62/1/69
f 56/1/64 63/1/70 57/1/65
f 56/1/64 62/1/69 63/1/70
f 58/1/66 64/1/71 17/1/25
f 59/1/21 66/1/20 65/1/72
f 664/1/73 663/1/74 645/1/75 650/1/76
f 64/1/71 68/1/77 17/1/25
f 67/1/18 17/1/25 69/1/19
f 68/1/77 70/1/78 17/1/25
f 69/1/19 17/1/25 71/1/79
f 70/1/78 72/1/80 17/1/25
f 71/1/79 17/1/25 73/1/81
f 72/1/80 74/1/82 17/1/25
f 73/1/81 17/1/25 75/1/83
f 17/1/25 76/1/84 77/1/85
f 17/1/25 77/1/85 78/1/86
f 17/1/25 78/1/86 75/1/83
f 17/1/25 79/1/87 76/1/84
f 17/1/25 80/1/88 79/1/87
f 17/1/25 74/1/82 80/1/88
f 250/1/89 255/1/90 259/1/91 258/1/92
f 81/1/93 84/1/94 82/1/95
f 82/1/95 86/1/96 83/1/97 81/1/93
f 81/1/93 85/1/98 84/1/94
f 380/1/99 381/1/100 338/1/101 372/1/102
f 82/1/95 84/1/94 88/1/103
f 89/1/104 98/1/105 90/1/106 83/1/97
f 96/1/107 106/1/108 97/1/109 89/1/104
f 82/1/95 88/1/103 87/1/110 86/1/96
f 85/1/98 92/1/111 84/1/94
f 90/1/106 98/1/105 99/1/112 91/1/113
f 99/1/112 109/1/114 100/1/115 91/1/113
f 511/1/116 282/1/117 273/1/118 264/1/119
f 88/1/103 84/1/94 95/1/120
f 97/1/109 107/1/121 98/1/105 89/1/104
f 386/1/122 389/1/123 330/1/124 381/1/100
f 695/1/125 701/1/126 416/1/127 700/1/128
f 234/1/129 239/1/130 241/1/131 240/1/132
f 95/1/120 94/1/133 87/1/110 88/1/103
f 92/1/111 101/1/134 84/1/94
f 225/1/135 243/1/136 232/1/137 211/1/138
f 272/1/139 267/1/140 263/1/141 271/1/142
f 110/1/143 111/1/144 101/1/134 100/1/115
f 95/1/120 84/1/94 105/1/145
f 103/1/146 106/1/108 96/1/107 93/1/147
f 102/1/148 112/1/149 103/1/146 93/1/147
f 114/1/150 122/1/151 120/1/152 121/1/153
f 101/1/134 111/1/144 84/1/94
f 107/1/121 129/1/154 117/1/155 108/1/156
f 117/1/155 312/1/157 118/1/158 108/1/156
f 491/1/159 574/1/160 504/1/161 499/1/162
f 105/1/145 84/1/94 114/1/150
f 115/1/163 129/1/154 107/1/121 97/1/109
f 113/1/164 116/1/165 106/1/108 103/1/146
f 205/1/166 213/1/167 206/1/168 199/1/169
f 203/1/170 205/1/166 199/1/169 198/1/171
f 114/1/150 121/1/153 104/1/172 105/1/145
f 111/1/144 119/1/173 84/1/94
f 294/1/174 317/1/175 119/1/173 293/1/176
f 114/1/150 84/1/94 122/1/151
f 136/1/177 316/1/178 117/1/155 129/1/154
f 309/1/179 310/1/180 289/1/181 303/1/182
f 647/1/183 648/1/184 642/1/185 641/1/186
f 694/1/187 699/1/188 693/1/189 687/1/190
f 282/1/117 525/1/191 268/1/192 273/1/118
f 122/1/151 84/1/94 126/1/193
f 126/1/193 133/1/194 131/1/195 125/1/196
f 155/1/197 131/1/195 133/1/194 139/1/198
f 270/1/199 308/1/200 302/1/201 280/1/202
f 220/1/203 221/1/204 197/1/205 215/1/206
f 126/1/193 84/1/94 133/1/194
f 595/1/207 638/1/208 636/1/209 629/1/210
f 292/1/211 300/1/212 301/1/213 295/1/214
f 296/1/215 314/1/216 305/1/217 297/1/218
f 123/1/219 135/1/220 115/1/163 116/1/165
f 232/1/137 205/1/166 203/1/170 211/1/138
f 279/1/221 281/1/222 272/1/139 271/1/142
f 133/1/194 84/1/94 139/1/198
f 261/1/223 308/1/200 270/1/199 262/1/224
f 292/1/211 295/1/214 287/1/225 286/1/226
f 118/1/158 312/1/157 304/1/227 301/1/213
f 132/1/228 131/1/195 155/1/197 147/1/229
f 570/1/230 587/1/231 586/1/232 581/1/233
f 346/1/234 136/1/177 135/1/220 142/1/235
f 289/1/181 288/1/236 281/1/222 287/1/225
f 281/1/222 288/1/236 276/1/237 272/1/139
f 456/1/238 477/1/239 457/1/240 449/1/241
f 108/1/156 118/1/158 109/1/114 99/1/112
f 151/1/242 181/1/243 179/1/244 174/1/245
f 296/1/215 297/1/218 276/1/237 288/1/236
f 289/1/181 310/1/180 296/1/215 288/1/236
f 473/1/246 517/1/247 518/1/248 512/1/249
f 172/1/250 176/1/251 175/1/252 162/1/253
f 262/1/224 270/1/199 271/1/142 263/1/141
f 647/1/183 654/1/254 651/1/255 648/1/184
f 117/1/155 316/1/178 315/1/256 312/1/157
f 112/1/149 148/1/257 113/1/164 103/1/146
f 246/1/258 253/1/259 254/1/260 247/1/261
f 154/1/262 218/1/263 216/1/264 210/1/265
f 261/1/223 262/1/224 254/1/260 253/1/259
f 640/1/266 652/1/267 647/1/183 641/1/186
f 159/1/268 167/1/269 145/1/270 152/1/271
f 179/1/244 181/1/243 187/1/272 186/1/273
f 235/1/274 243/1/136 225/1/135 227/1/275
f 327/1/276 336/1/277 331/1/278 328/1/279
f 333/1/280 339/1/281 338/1/101 332/1/282
f 139/1/198 84/1/94 168/1/283
f 315/1/256 329/1/284 327/1/276 320/1/285
f 321/1/286 329/1/284 315/1/256 316/1/178
f 331/1/278 336/1/277 337/1/287 334/1/288
f 142/1/235 352/1/289 345/1/290 346/1/234
f 250/1/89 258/1/92 249/1/291 241/1/131
f 335/1/292 342/1/293 337/1/287 336/1/277
f 162/1/253 161/1/294 156/1/295 160/1/296
f 168/1/283 84/1/94 172/1/250
f 670/1/297 678/1/298 657/1/299 663/1/74
f 172/1/250 84/1/94 176/1/251
f 504/1/161 569/1/300 510/1/301 506/1/302
f 740/1/303 744/1/304 745/1/305 743/1/306
f 252/1/307 260/1/308 251/1/309 242/1/310
f 489/1/311 490/1/312 482/1/313 485/1/314
f 109/1/114 118/1/158 301/1/213 300/1/212
f 176/1/251 84/1/94 183/1/315
f 91/1/113 92/1/111 85/1/98 90/1/106
f 327/1/276 328/1/279 309/1/179 320/1/285
f 416/1/127 417/1/316 366/1/317 410/1/318
f 345/1/290 351/1/319 344/1/320 343/1/321
f 321/1/286 343/1/321 335/1/292 329/1/284
f 341/1/322 339/1/281 333/1/280 340/1/323
f 144/1/324 150/1/325 143/1/326 137/1/327
f 161/1/294 191/1/328 153/1/329 156/1/295
f 247/1/261 250/1/89 241/1/131 239/1/130
f 234/1/129 240/1/132 235/1/274 227/1/275
f 648/1/184 651/1/255 418/1/330 208/1/331
f 165/1/332 178/1/333 170/1/334 166/1/335
f 185/1/336 396/1/337 382/1/338 383/1/339
f 207/1/340 642/1/185 208/1/331 200/1/341
f 101/1/134 92/1/111 91/1/113 100/1/115
f 662/1/342 683/1/343 425/1/344 656/1/345
f 306/1/346 311/1/347 307/1/348 298/1/349
f 157/1/350 158/1/351 113/1/164 148/1/257
f 322/1/352 326/1/353 311/1/347 319/1/354
f 305/1/217 306/1/346 284/1/355 297/1/218
f 183/1/315 84/1/94 202/1/356
f 494/1/357 559/1/358 488/1/359 490/1/312
f 300/1/212 110/1/143 100/1/115 109/1/114
f 202/1/356 84/1/94 204/1/360
f 304/1/227 320/1/285 309/1/179 303/1/182
f 279/1/221 286/1/226 287/1/225 281/1/222
f 558/1/361 559/1/358 494/1/357 550/1/362
f 318/1/363 323/1/364 322/1/352 319/1/354
f 451/1/365 459/1/366 453/1/367 445/1/368
f 380/1/99 388/1/369 386/1/122 381/1/100
f 204/1/360 84/1/94 212/1/370
f 640/1/266 641/1/186 634/1/371 635/1/372
f 694/1/187 700/1/128 409/1/373 699/1/188
f 263/1/141 267/1/140 259/1/91 255/1/90
f 439/1/374 455/1/375 369/1/376 397/1/377
f 190/1/378 198/1/171 199/1/169 189/1/379
f 728/1/380 729/1/381 447/1/382 723/1/383
f 212/1/370 84/1/94 219/1/384
f 740/1/303 741/1/385 733/1/386 739/1/387
f 527/1/388 529/1/389 520/1/390 519/1/391
f 177/1/392 383/1/339 382/1/338 374/1/393
f 216/1/264 221/1/204 222/1/394
f 216/1/264 222/1/394 223/1/395
f 712/1/396 718/1/397 716/1/398 717/1/399
f 219/1/384 84/1/94 226/1/400
f 138/1/401 132/1/228 147/1/229 146/1/402
f 640/1/266 721/1/403 660/1/404 652/1/267
f 423/1/405 430/1/406 393/1/407 399/1/408
f 665/1/409 666/1/410 639/1/411 658/1/412
f 653/1/413 715/1/414 714/1/415 710/1/416
f 579/1/417 615/1/418 599/1/419 592/1/420
f 382/1/338 403/1/421 373/1/422 374/1/393
f 137/1/327 138/1/401 145/1/270 144/1/324
f 226/1/400 84/1/94 233/1/423
f 675/1/424 681/1/425 673/1/426 676/1/427
f 94/1/133 102/1/148 93/1/147 87/1/110
f 205/1/166 232/1/137 245/1/428 213/1/167
f 496/1/429 516/1/430 502/1/431 495/1/432
f 130/1/433 132/1/228 138/1/401 137/1/327
f 233/1/423 84/1/94 238/1/434
f 213/1/167 245/1/428 244/1/435 237/1/436
f 219/1/384 226/1/400 227/1/275 225/1/135
f 162/1/253 175/1/252 182/1/437 161/1/294
f 184/1/438 374/1/393 373/1/422 365/1/439
f 183/1/315 190/1/378 175/1/252 176/1/251
f 447/1/382 729/1/381 439/1/374 438/1/440
f 355/1/441 354/1/442 347/1/443 350/1/444
f 318/1/363 319/1/354 305/1/217 314/1/216
f 238/1/434 84/1/94 246/1/258
f 146/1/402 153/1/329 154/1/262 152/1/271
f 293/1/176 110/1/143 300/1/212 292/1/211
f 686/1/445 689/1/446 425/1/344 683/1/343
f 408/1/447 436/1/448 401/1/449 392/1/450
f 431/1/451 719/1/452 447/1/382 438/1/440
f 341/1/322 362/1/453 348/1/454 339/1/281
f 197/1/205 218/1/263 191/1/328 188/1/455
f 246/1/258 84/1/94 253/1/259
f 276/1/237 297/1/218 284/1/355 275/1/456
f 190/1/378 189/1/379 182/1/437 175/1/252
f 549/1/457 578/1/458 558/1/361 550/1/362
f 549/1/457 541/1/459 584/1/460 578/1/458
f 489/1/311 495/1/432 494/1/357 490/1/312
f 253/1/259 84/1/94 261/1/223
f 228/1/461 222/1/394 221/1/204 220/1/203
f 409/1/373 410/1/318 373/1/422 403/1/421
f 305/1/217 319/1/354 311/1/347 306/1/346
f 503/1/462 509/1/463 496/1/429 497/1/464
f 457/1/240 470/1/465 441/1/466 440/1/467
f 307/1/348 465/1/468 299/1/469 298/1/349
f 643/1/470 628/1/471 627/1/472 633/1/473
f 159/1/268 210/1/265 209/1/474 201/1/475
f 475/1/476 476/1/477 452/1/478 470/1/465
f 233/1/423 238/1/434 239/1/130 234/1/129
f 155/1/197 160/1/296 156/1/295 147/1/229
f 276/1/237 275/1/456 267/1/140 272/1/139
f 472/1/479 492/1/480 465/1/468 466/1/481
f 728/1/380 734/1/482 462/1/483 729/1/381
f 146/1/402 152/1/271 145/1/270 138/1/401
f 269/1/484 268/1/192 277/1/485
f 738/1/486 750/1/487 632/1/488 748/1/489
f 313/1/490 314/1/216 296/1/215 310/1/180
f 125/1/196 131/1/195 132/1/228 130/1/433
f 740/1/303 743/1/306 543/1/491 741/1/385
f 220/1/203 229/1/492 230/1/493 228/1/461
f 626/1/494 750/1/487 633/1/473 627/1/472
f 204/1/360 203/1/170 198/1/171 202/1/356
f 691/1/495 692/1/496 685/1/497 684/1/498
f 278/1/499 285/1/500 230/1/493
f 443/1/501 451/1/365 445/1/368 436/1/448
f 125/1/196 130/1/433 124/1/502 120/1/152
f 137/1/327 143/1/326 124/1/502 130/1/433
f 633/1/473 750/1/487 738/1/486 732/1/503
f 665/1/409 686/1/445 682/1/504 672/1/505
f 632/1/488 750/1/487 626/1/494 625/1/506
f 286/1/226 294/1/174 293/1/176 292/1/211
f 124/1/502 127/1/507 121/1/153 120/1/152
f 370/1/508 348/1/454 362/1/453 368/1/509
f 143/1/326 150/1/325 149/1/510 140/1/511
f 601/1/512 638/1/208 595/1/207 596/1/513
f 693/1/189 699/1/188 402/1/514 404/1/515
f 673/1/426 671/1/516 666/1/410 672/1/505
f 726/1/517 727/1/518 722/1/519 725/1/520
f 121/1/153 127/1/507 128/1/521 104/1/172
f 128/1/521 102/1/148 94/1/133 104/1/172
f 134/1/522 112/1/149 102/1/148 128/1/521
f 530/1/523 536/1/524 521/1/525 522/1/526
f 126/1/193 125/1/196 120/1/152 122/1/151
f 524/1/527 553/1/528 531/1/529 525/1/191
f 172/1/250 162/1/253 160/1/296 168/1/283
f 140/1/511 149/1/510 141/1/530 134/1/522
f 252/1/307 273/1/118 268/1/192 260/1/308
f 706/1/531 417/1/316 416/1/127 701/1/126
f 154/1/262 210/1/265 159/1/268 152/1/271
f 673/1/426 681/1/425 679/1/532 671/1/516
f 308/1/200 261/1/223 84/1/94
f 308/1/200 84/1/94 302/1/201
f 163/1/533 164/1/534 141/1/530 149/1/510
f 150/1/325 174/1/245 163/1/533 149/1/510
f 127/1/507 140/1/511 134/1/522 128/1/521
f 633/1/473 732/1/503 644/1/535 643/1/470
f 337/1/287 340/1/323 333/1/280 334/1/288
f 106/1/108 116/1/165 115/1/163 97/1/109
f 141/1/530 164/1/534 157/1/350 148/1/257
f 84/1/94 317/1/175 302/1/201
f 84/1/94 119/1/173 317/1/175
f 145/1/270 167/1/269 151/1/242 144/1/324
f 113/1/164 158/1/351 123/1/219 116/1/165
f 157/1/350 173/1/536 165/1/332 158/1/351
f 165/1/332 166/1/335 123/1/219 158/1/351
f 582/1/537 602/1/538 601/1/512 596/1/513
f 325/1/539 334/1/288 333/1/280 332/1/282
f 169/1/540 383/1/339 177/1/392 173/1/536
f 347/1/443 340/1/323 337/1/287 342/1/293
f 163/1/533 180/1/541 169/1/540 164/1/534
f 243/1/136 251/1/309 245/1/428 232/1/137
f 418/1/330 419/1/542 195/1/543 208/1/331
f 389/1/123 395/1/544 326/1/353 322/1/352
f 136/1/177 346/1/234 321/1/286 316/1/178
f 321/1/286 346/1/234 345/1/290 343/1/321
f 185/1/336 383/1/339 169/1/540 180/1/541
f 431/1/451 438/1/440 391/1/545 390/1/546
f 123/1/219 166/1/335 142/1/235 135/1/220
f 214/1/547 229/1/492 220/1/203 215/1/206
f 184/1/438 365/1/439 359/1/548 360/1/549
f 689/1/446 693/1/189 404/1/515 411/1/550
f 179/1/244 180/1/541 163/1/533 174/1/245
f 425/1/344 689/1/446 411/1/550 419/1/542
f 738/1/486 746/1/551 720/1/552 732/1/503
f 86/1/96 96/1/107 89/1/104 83/1/97
f 136/1/177 129/1/154 115/1/163 135/1/220
f 588/1/553 723/1/383 447/1/382 719/1/452
f 187/1/272 193/1/554 192/1/555 186/1/273
f 527/1/388 534/1/556 535/1/557 529/1/389
f 418/1/330 656/1/345 425/1/344 419/1/542
f 699/1/188 409/1/373 403/1/421 402/1/514
f 217/1/558 634/1/371 207/1/340 209/1/474
f 213/1/167 237/1/436 214/1/547 206/1/168
f 280/1/202 279/1/221 271/1/142 270/1/199
f 318/1/363 324/1/559 325/1/539 323/1/364
f 706/1/531 424/1/560 375/1/561 417/1/316
f 353/1/562 351/1/319 345/1/290 352/1/289
f 366/1/317 367/1/563 359/1/548 365/1/439
f 361/1/564 362/1/453 341/1/322 354/1/442
f 573/1/565 723/1/383 588/1/553 583/1/566
f 391/1/545 363/1/567 384/1/568 390/1/546
f 351/1/319 353/1/562 356/1/569 349/1/570
f 357/1/571 358/1/572 349/1/570 356/1/569
f 344/1/320 351/1/319 349/1/570 350/1/444
f 373/1/422 410/1/318 366/1/317 365/1/439
f 184/1/438 360/1/549 170/1/334 178/1/333
f 366/1/317 417/1/316 375/1/561 367/1/563
f 353/1/562 360/1/549 359/1/548 356/1/569
f 526/1/573 528/1/574 518/1/248 517/1/247
f 206/1/168 196/1/575 189/1/379 199/1/169
f 524/1/527 525/1/191 282/1/117 523/1/576
f 695/1/125 700/1/128 694/1/187 670/1/297
f 670/1/297 694/1/187 687/1/190 678/1/298
f 700/1/128 416/1/127 410/1/318 409/1/373
f 242/1/310 251/1/309 243/1/136 235/1/274
f 539/1/577 565/1/578 564/1/579 557/1/580
f 357/1/571 384/1/568 363/1/567 358/1/572
f 391/1/545 438/1/440 439/1/374 397/1/377
f 664/1/73 702/1/581 701/1/126 695/1/125
f 233/1/423 234/1/129 227/1/275 226/1/400
f 659/1/582 655/1/583 651/1/255 654/1/254
f 678/1/298 687/1/190 686/1/445 665/1/409
f 693/1/189 689/1/446 686/1/445 687/1/190
f 309/1/179 328/1/279 313/1/490 310/1/180
f 214/1/547 237/1/436 236/1/584 229/1/492
f 192/1/555 404/1/515 402/1/514 396/1/337
f 378/1/585 405/1/586 406/1/587 400/1/588
f 645/1/75 649/1/589 621/1/590 637/1/591
f 313/1/490 324/1/559 318/1/363 314/1/216
f 188/1/455 191/1/328 161/1/294 182/1/437
f 231/1/592 620/1/593 224/1/594 223/1/395
f 380/1/99 387/1/595 388/1/369
f 375/1/561 384/1/568 357/1/571 367/1/563
f 375/1/561 424/1/560 390/1/546 384/1/568
f 576/1/596 596/1/513 595/1/207 587/1/231
f 139/1/198 168/1/283 160/1/296 155/1/197
f 541/1/459 542/1/597 521/1/525 536/1/524
f 453/1/367 326/1/353 395/1/544 445/1/368
f 95/1/120 105/1/145 104/1/172 94/1/133
f 533/1/598 730/1/599 573/1/565 565/1/578
f 394/1/600 379/1/601 398/1/602
f 599/1/419 615/1/418 613/1/603 614/1/604
f 560/1/605 598/1/606 551/1/607 552/1/608
f 169/1/540 173/1/536 157/1/350 164/1/534
f 331/1/278 334/1/288 325/1/539 324/1/559
f 349/1/570 358/1/572 355/1/441 350/1/444
f 657/1/299 658/1/412 630/1/609 649/1/589
f 630/1/609 658/1/412 639/1/411 631/1/610
f 171/1/611 201/1/475 200/1/341 194/1/612
f 264/1/119 273/1/118 252/1/307 256/1/613
f 326/1/353 460/1/614 307/1/348 311/1/347
f 124/1/502 143/1/326 140/1/511 127/1/507
f 539/1/577 557/1/580 548/1/615 540/1/616
f 621/1/590 649/1/589 630/1/609 622/1/617
f 645/1/75 663/1/74 657/1/299 649/1/589
f 407/1/618 414/1/619 398/1/602
f 398/1/602 414/1/619 415/1/620
f 731/1/10 737/1/9 726/1/517 725/1/520
f 177/1/392 178/1/333 165/1/332 173/1/536
f 533/1/598 565/1/578 539/1/577 534/1/556
f 630/1/609 631/1/610 623/1/621 622/1/617
f 414/1/619 421/1/622 415/1/620
f 468/1/623 517/1/247 473/1/246 469/1/624
f 197/1/205 221/1/204 216/1/264 218/1/263
f 391/1/545 397/1/377 364/1/625 363/1/567
f 171/1/611 194/1/612 187/1/272 181/1/243
f 214/1/547 215/1/206 196/1/575 206/1/168
f 624/1/626 625/1/506 619/1/627 618/1/628
f 621/1/590 622/1/617 616/1/629 614/1/604
f 429/1/630 422/1/631 415/1/620
f 421/1/622 429/1/630 415/1/620
f 424/1/560 713/1/632 431/1/451 390/1/546
f 352/1/289 142/1/235 166/1/335 170/1/334
f 616/1/629 617/1/633 611/1/634 610/1/635
f 429/1/630 433/1/636 422/1/631
f 408/1/447 434/1/637 435/1/638
f 408/1/447 435/1/638 436/1/448
f 504/1/161 506/1/302 500/1/639 499/1/162
f 408/1/447 437/1/640 434/1/637
f 707/1/641 713/1/632 424/1/560 706/1/531
f 701/1/126 702/1/581 707/1/641 706/1/531
f 618/1/628 619/1/627 612/1/642 609/1/643
f 240/1/132 241/1/131 249/1/291 248/1/644
f 435/1/638 443/1/501 436/1/448
f 435/1/638 444/1/645 443/1/501
f 435/1/638 441/1/466 444/1/645
f 568/1/646 584/1/460 561/1/647 562/1/648
f 437/1/640 446/1/649 442/1/650
f 607/1/651 719/1/452 431/1/451 713/1/632
f 607/1/651 713/1/632 707/1/641 708/1/652
f 442/1/650 446/1/649 448/1/653
f 543/1/491 552/1/608 551/1/607 544/1/654
f 83/1/97 90/1/106 85/1/98 81/1/93
f 444/1/645 452/1/478 450/1/655
f 462/1/483 463/1/656 376/1/657 455/1/375
f 549/1/457 550/1/362 502/1/431 542/1/597
f 392/1/450 401/1/449 386/1/122 388/1/369
f 446/1/649 454/1/658 448/1/653
f 530/1/523 538/1/659 537/1/660 536/1/524
f 141/1/530 148/1/257 112/1/149 134/1/522
f 449/1/241 457/1/240 440/1/467
f 659/1/582 668/1/661 661/1/662 655/1/583
f 720/1/552 735/1/11 714/1/415 715/1/414
f 484/1/663 485/1/314 456/1/238 467/1/664
f 326/1/353 453/1/367 460/1/614
f 566/1/665 574/1/160 491/1/159 567/1/666
f 230/1/493 612/1/642 231/1/592 228/1/461
f 646/1/667 702/1/581 664/1/73 650/1/76
f 459/1/366 458/1/668 464/1/669
f 714/1/415 735/1/11 731/1/10 724/1/670
f 307/1/348 466/1/481 465/1/468
f 307/1/348 460/1/614 466/1/481
f 567/1/666 491/1/159 483/1/671 480/1/672
f 668/1/661 677/1/673 669/1/674 661/1/662
f 473/1/246 474/1/675 412/1/676 469/1/624
f 290/1/677 511/1/116 264/1/119 283/1/678
f 299/1/469 465/1/468 471/1/679 290/1/677
f 636/1/209 637/1/591 613/1/603 629/1/210
f 613/1/603 637/1/591 621/1/590 614/1/604
f 711/1/680 718/1/397 704/1/681 709/1/682
f 532/1/683 285/1/500 278/1/499 277/1/485
f 599/1/419 614/1/604 616/1/629 610/1/635
f 398/1/602 415/1/620 399/1/408 394/1/600
f 475/1/476 477/1/239 482/1/313 481/1/684
f 608/1/685 604/1/686 603/1/687 605/1/688
f 257/1/689 283/1/678 264/1/119 256/1/613
f 98/1/105 107/1/121 108/1/156 99/1/112
f 464/1/669 483/1/671 472/1/479
f 458/1/668 483/1/671 464/1/669
f 460/1/614 464/1/669 472/1/479 466/1/481
f 609/1/643 545/1/690 604/1/686 608/1/685
f 599/1/419 610/1/635 593/1/691 592/1/420
f 479/1/692 486/1/693 432/1/694
f 432/1/694 486/1/693 487/1/695
f 204/1/360 212/1/370 211/1/138 203/1/170
f 742/1/696 744/1/304 740/1/303 739/1/387
f 251/1/309 260/1/308 244/1/435 245/1/428
f 191/1/328 218/1/263 154/1/262 153/1/329
f 691/1/495 697/1/697 698/1/698 692/1/496
f 13/1/17 16/1/24 14/1/23 8/1/15
f 487/1/695 486/1/693 493/1/699
f 219/1/384 225/1/135 211/1/138 212/1/370
f 347/1/443 354/1/442 341/1/322 340/1/323
f 298/1/349 299/1/469 274/1/700 291/1/701
f 492/1/480 491/1/159 499/1/162
f 492/1/480 499/1/162 465/1/468
f 465/1/468 499/1/162 500/1/639
f 465/1/468 500/1/639 471/1/679
f 493/1/699 486/1/693 501/1/702
f 676/1/427 662/1/342 669/1/674 675/1/424
f 566/1/665 567/1/666 488/1/359 559/1/358
f 653/1/413 654/1/254 647/1/183 652/1/267
f 488/1/359 567/1/666 480/1/672 481/1/684
f 518/1/248 519/1/391 513/1/703 512/1/249
f 240/1/132 248/1/644 242/1/310 235/1/274
f 484/1/663 498/1/704 503/1/462 497/1/464
f 505/1/705 523/1/576 282/1/117 511/1/116
f 486/1/693 508/1/706 501/1/702
f 486/1/693 507/1/707 508/1/706
f 179/1/244 186/1/273 185/1/336 180/1/541
f 436/1/448 445/1/368 395/1/544 401/1/449
f 248/1/644 256/1/613 252/1/307 242/1/310
f 579/1/417 592/1/420 585/1/708 580/1/709
f 646/1/667 708/1/652 707/1/641 702/1/581
f 626/1/494 620/1/593 619/1/627 625/1/506
f 586/1/232 629/1/210 613/1/603 615/1/418
f 615/1/418 579/1/417 581/1/233 586/1/232
f 464/1/669 460/1/614 453/1/367 459/1/366
f 661/1/662 669/1/674 662/1/342 656/1/345
f 393/1/407 430/1/406 408/1/447 392/1/450
f 192/1/555 396/1/337 185/1/336 186/1/273
f 151/1/242 174/1/245 150/1/325 144/1/324
f 147/1/229 156/1/295 153/1/329 146/1/402
f 595/1/207 629/1/210 586/1/232 587/1/231
f 570/1/230 581/1/233 575/1/710 571/1/711
f 313/1/490 328/1/279 331/1/278 324/1/559
f 726/1/517 739/1/387 733/1/386 727/1/518
f 504/1/161 574/1/160 558/1/361 569/1/300
f 505/1/705 511/1/116 290/1/677 471/1/679
f 268/1/192 532/1/683 277/1/485
f 626/1/494 627/1/472 224/1/594 620/1/593
f 533/1/598 534/1/556 527/1/388 528/1/574
f 576/1/596 587/1/231 570/1/230 572/1/712
f 563/1/713 572/1/712 570/1/230 571/1/711
f 745/1/305 748/1/489 747/1/714 743/1/306
f 555/1/715 572/1/712 563/1/713 556/1/716
f 555/1/715 577/1/717 576/1/596 572/1/712
f 653/1/413 710/1/416 703/1/718 696/1/719
f 603/1/687 604/1/686 547/1/720 597/1/721
f 590/1/722 597/1/721 554/1/723 589/1/724
f 285/1/500 545/1/690 230/1/493
f 489/1/311 497/1/464 496/1/429 495/1/432
f 285/1/500 546/1/725 547/1/720
f 548/1/615 557/1/580 555/1/715 556/1/716
f 542/1/597 541/1/459 549/1/457
f 672/1/505 682/1/504 676/1/427 673/1/426
f 544/1/654 551/1/607 541/1/459
f 711/1/680 709/1/682 703/1/718 710/1/416
f 406/1/587 426/1/726 420/1/727 413/1/728
f 461/1/729 467/1/664 448/1/653 454/1/658
f 330/1/124 389/1/123 322/1/352 323/1/364
f 515/1/730 522/1/526 521/1/525 516/1/430
f 216/1/264 217/1/558 209/1/474 210/1/265
f 457/1/240 477/1/239 475/1/476 470/1/465
f 478/1/731 479/1/692 427/1/732 474/1/675
f 257/1/689 256/1/613 248/1/644 249/1/291
f 641/1/186 642/1/185 207/1/340 634/1/371
f 363/1/567 364/1/625 355/1/441 358/1/572
f 564/1/579 577/1/717 555/1/715 557/1/580
f 559/1/358 558/1/361 566/1/665
f 484/1/663 497/1/464 489/1/311 485/1/314
f 624/1/626 749/1/733 632/1/488 625/1/506
f 222/1/394 228/1/461 231/1/592 223/1/395
f 736/1/8 744/1/304 742/1/696 737/1/9
f 584/1/460 591/1/734 590/1/722 589/1/724
f 302/1/201 317/1/175 294/1/174 280/1/202
f 510/1/301 562/1/648 524/1/527 523/1/576
f 582/1/537 596/1/513 576/1/596 577/1/717
f 195/1/543 419/1/542 411/1/550 193/1/554
f 566/1/665 558/1/361 574/1/160
f 262/1/224 263/1/141 255/1/90 254/1/260
f 193/1/554 411/1/550 404/1/515 192/1/555
f 325/1/539 332/1/282 330/1/124 323/1/364
f 520/1/390 514/1/735 513/1/703 519/1/391
f 170/1/334 360/1/549 353/1/562 352/1/289
f 573/1/565 583/1/566 564/1/579 565/1/578
f 274/1/700 283/1/678 257/1/689 265/1/736
f 578/1/458 584/1/460 568/1/646
f 510/1/301 569/1/300 568/1/646 562/1/648
f 518/1/248 528/1/574 527/1/388 519/1/391
f 500/1/639 506/1/302 505/1/705 471/1/679
f 564/1/579 583/1/566 582/1/537 577/1/717
f 588/1/553 602/1/538 582/1/537 583/1/566
f 584/1/460 589/1/724 561/1/647
f 704/1/681 718/1/397 712/1/396 705/1/737
f 653/1/413 696/1/719 659/1/582 654/1/254
f 541/1/459 551/1/607 591/1/734
f 704/1/681 705/1/737 698/1/698 697/1/697
f 584/1/460 541/1/459 591/1/734
f 585/1/708 592/1/420 593/1/691
f 585/1/708 593/1/691 594/1/738
f 526/1/573 730/1/599 533/1/598 528/1/574
f 539/1/577 540/1/616 535/1/557 534/1/556
f 632/1/488 749/1/733 747/1/714 748/1/489
f 268/1/192 269/1/484 244/1/435 260/1/308
f 594/1/738 593/1/691 600/1/739
f 573/1/565 730/1/599 728/1/380 723/1/383
f 526/1/573 734/1/482 728/1/380 730/1/599
f 531/1/529 546/1/725 285/1/500 532/1/683
f 543/1/491 544/1/654 537/1/660 538/1/659
f 412/1/676 474/1/675 427/1/732 426/1/726
f 600/1/739 593/1/691 606/1/740
f 335/1/292 336/1/277 327/1/276 329/1/284
f 183/1/315 202/1/356 198/1/171 190/1/378
f 616/1/629 622/1/617 623/1/621 617/1/633
f 441/1/466 470/1/465 452/1/478 444/1/645
f 545/1/690 609/1/643 230/1/493
f 593/1/691 610/1/635 611/1/634
f 593/1/691 611/1/634 606/1/740
f 230/1/493 609/1/643 612/1/642
f 515/1/730 516/1/430 496/1/429 509/1/463
f 201/1/475 209/1/474 207/1/340 200/1/341
f 749/1/733 624/1/626 605/1/688 560/1/605
f 690/1/741 691/1/495 684/1/498 668/1/661
f 609/1/643 608/1/685 618/1/628
f 475/1/476 481/1/684 480/1/672 476/1/477
f 274/1/700 299/1/469 290/1/677 283/1/678
f 216/1/264 223/1/395 224/1/594 217/1/558
f 736/1/8 746/1/551 745/1/305 744/1/304
f 427/1/732 428/1/742 420/1/727 426/1/726
f 554/1/723 597/1/721 547/1/720 546/1/725
f 690/1/741 709/1/682 704/1/681 697/1/697
f 636/1/209 650/1/76 645/1/75 637/1/591
f 441/1/466 435/1/638 434/1/637 440/1/467
f 224/1/594 628/1/471 217/1/558
f 224/1/594 627/1/472 628/1/471
f 551/1/607 598/1/606 590/1/722 591/1/734
f 537/1/660 544/1/654 541/1/459 536/1/524
f 266/1/743 291/1/701 274/1/700 265/1/736
f 558/1/361 578/1/458 568/1/646 569/1/300
f 386/1/122 401/1/449 395/1/544 389/1/123
f 284/1/355 291/1/701 266/1/743 275/1/456
f 217/1/558 635/1/372 634/1/371
f 217/1/558 628/1/471 635/1/372
f 468/1/623 734/1/482 526/1/573 517/1/247
f 246/1/258 247/1/261 239/1/130 238/1/434
f 513/1/703 514/1/735 508/1/706 507/1/707
f 280/1/202 294/1/174 286/1/226 279/1/221
f 200/1/341 208/1/331 195/1/543 194/1/612
f 635/1/372 628/1/471 643/1/470
f 635/1/372 643/1/470 644/1/535
f 295/1/214 303/1/182 289/1/181 287/1/225
f 635/1/372 644/1/535 640/1/266
f 385/1/744 469/1/624 412/1/676 405/1/586
f 468/1/623 469/1/624 385/1/744 463/1/656
f 619/1/627 620/1/593 231/1/592 612/1/642
f 462/1/483 734/1/482 468/1/623 463/1/656
f 295/1/214 301/1/213 304/1/227 303/1/182
f 371/1/745 372/1/102 348/1/454 370/1/508
f 547/1/720 604/1/686 545/1/690 285/1/500
f 642/1/185 648/1/184 208/1/331
f 247/1/261 254/1/260 255/1/90 250/1/89
f 655/1/583 661/1/662 656/1/345 418/1/330
f 418/1/330 651/1/255 655/1/583
f 258/1/92 265/1/736 257/1/689 249/1/291
f 385/1/744 405/1/586 378/1/585 377/1/746
f 560/1/605 605/1/688 603/1/687 598/1/606
f 524/1/527 562/1/648 561/1/647 553/1/528
f 478/1/731 507/1/707 486/1/693 479/1/692
f 738/1/486 748/1/489 745/1/305 746/1/551
f 266/1/743 265/1/736 258/1/92 259/1/91
f 682/1/504 683/1/343 662/1/342 676/1/427
f 657/1/299 678/1/298 665/1/409 658/1/412
f 664/1/73 695/1/125 670/1/297 663/1/74
f 376/1/657 463/1/656 385/1/744 377/1/746
f 737/1/9 742/1/696 739/1/387 726/1/517
f 400/1/588 407/1/618 398/1/602 379/1/601
f 378/1/585 400/1/588 379/1/601 371/1/745
f 639/1/411 666/1/410 667/1/747
f 716/1/398 725/1/520 722/1/519 717/1/399
f 378/1/585 371/1/745 370/1/508 377/1/746
f 376/1/657 377/1/746 370/1/508 368/1/509
f 666/1/410 671/1/516 667/1/747
f 666/1/410 665/1/409 672/1/505
f 473/1/246 512/1/249 478/1/731 474/1/675
f 667/1/747 671/1/516 674/1/748
f 575/1/710 581/1/233 579/1/417 580/1/709
f 521/1/525 542/1/597 502/1/431 516/1/430
f 267/1/140 275/1/456 266/1/743 259/1/91
f 422/1/631 423/1/405 399/1/408 415/1/620
f 671/1/516 680/1/749 674/1/748
f 671/1/516 679/1/532 680/1/749
f 379/1/601 394/1/600 387/1/595 380/1/99
f 387/1/595 393/1/407 392/1/450 388/1/369
f 677/1/673 668/1/661 684/1/498
f 677/1/673 684/1/498 685/1/497
f 731/1/10 725/1/520 716/1/398 724/1/670
f 682/1/504 686/1/445 683/1/343
f 482/1/313 490/1/312 488/1/359 481/1/684
f 450/1/655 451/1/365 443/1/501 444/1/645
f 679/1/532 688/1/750 680/1/749
f 448/1/653 467/1/664 456/1/238 449/1/241
f 513/1/703 507/1/707 478/1/731 512/1/249
f 284/1/355 306/1/346 298/1/349 291/1/701
f 189/1/379 196/1/575 188/1/455 182/1/437
f 402/1/514 403/1/421 382/1/338 396/1/337
f 456/1/238 485/1/314 482/1/313 477/1/239
f 348/1/454 372/1/102 338/1/101 339/1/281
f 510/1/301 523/1/576 505/1/705 506/1/302
f 691/1/495 690/1/741 697/1/697
f 659/1/582 696/1/719 690/1/741 668/1/661
f 315/1/256 320/1/285 304/1/227 312/1/157
f 720/1/552 746/1/551 736/1/8 735/1/11
f 361/1/564 369/1/376 368/1/509 362/1/453
f 644/1/535 732/1/503 720/1/552 721/1/403
f 696/1/719 703/1/718 690/1/741
f 561/1/647 589/1/724 554/1/723 553/1/528
f 452/1/478 476/1/477 458/1/668 450/1/655
f 364/1/625 397/1/377 369/1/376 361/1/564
f 244/1/435 269/1/484 236/1/584 237/1/436
f 159/1/268 201/1/475 171/1/611 167/1/269
f 729/1/381 462/1/483 455/1/375 439/1/374
f 502/1/431 550/1/362 494/1/357 495/1/432
f 690/1/741 703/1/718 709/1/682
f 59/1/21 65/1/72 60/1/67 56/1/64
f 277/1/485 278/1/499 236/1/584 269/1/484
f 608/1/685 605/1/688 624/1/626 618/1/628
f 177/1/392 374/1/393 184/1/438 178/1/333
f 196/1/575 215/1/206 197/1/205 188/1/455
f 449/1/241 440/1/467 442/1/650 448/1/653
f 406/1/587 413/1/728 407/1/618 400/1/588
f 236/1/584 278/1/499 230/1/493 229/1/492
f 588/1/553 719/1/452 607/1/651 602/1/538
f 715/1/414 660/1/404 720/1/552
f 480/1/672 483/1/671 458/1/668 476/1/477
f 640/1/266 644/1/535 721/1/403
f 660/1/404 721/1/403 720/1/552
f 660/1/404 715/1/414 653/1/413 652/1/267
f 491/1/159 492/1/480 472/1/479 483/1/671
f 394/1/600 399/1/408 393/1/407 387/1/595
f 607/1/651 708/1/652 601/1/512 602/1/538
f 195/1/543 193/1/554 187/1/272 194/1/612
f 601/1/512 708/1/652 646/1/667 638/1/208
f 344/1/320 342/1/293 335/1/292 343/1/321
f 344/1/320 350/1/444 347/1/443 342/1/293
f 434/1/637 437/1/640 442/1/650 440/1/467
f 711/1/680 724/1/670 716/1/398 718/1/397
f 379/1/601 380/1/99 372/1/102 371/1/745
f 461/1/729 498/1/704 484/1/663 467/1/664
f 110/1/143 293/1/176 119/1/173 111/1/144
f 171/1/611 181/1/243 151/1/242 167/1/269
f 338/1/101 381/1/100 330/1/124 332/1/282
f 714/1/415 724/1/670 711/1/680 710/1/416
f 93/1/147 96/1/107 86/1/96 87/1/110
f 598/1/606 603/1/687 597/1/721 590/1/722
f 458/1/668 459/1/366 451/1/365 450/1/655
f 412/1/676 426/1/726 406/1/587 405/1/586
f 531/1/529 532/1/683 268/1/192 525/1/191
f 355/1/441 364/1/625 361/1/564 354/1/442
f 369/1/376 455/1/375 376/1/657 368/1/509
f 543/1/491 747/1/714 552/1/608
f 747/1/714 560/1/605 552/1/608
f 554/1/723 546/1/725 531/1/529 553/1/528
f 743/1/306 747/1/714 543/1/491
f 427/1/732 479/1/692 432/1/694 428/1/742
f 646/1/667 650/1/76 636/1/209 638/1/208
f 747/1/714 749/1/733 560/1/605
f 359/1/548 367/1/563 357/1/571 356/1/569
