# Blender 4.3.2
# www.blender.org
o hair.020
v 8.007372 0.489718 0.025128
v 8.004441 0.488720 0.028718
v 8.004890 0.490119 0.021017
v 8.000566 0.488300 0.031477
v 7.984832 0.491799 0.016307
v 7.996873 0.488717 0.032584
v 7.993167 0.489705 0.032671
v 7.989130 0.488705 0.034750
v 7.984832 0.488300 0.035736
v 7.980534 0.488705 0.034750
v 7.976497 0.489705 0.032671
v 7.969100 0.488300 0.031477
v 7.964774 0.490119 0.021017
v 7.972791 0.488717 0.032584
v 7.965223 0.488720 0.028718
v 7.962293 0.489718 0.025128
v 7.990072 0.511170 0.026244
v 7.991262 0.507530 0.028832
v 7.993094 0.512124 0.025671
v 7.991663 0.515137 0.022027
v 7.988941 0.514465 0.022725
v 7.992324 0.503070 0.030851
v 7.995450 0.503624 0.030536
v 7.994250 0.508404 0.028340
v 7.995133 0.515962 0.020124
v 7.995134 0.512602 0.024728
v 7.997158 0.508784 0.027388
v 7.988925 0.516338 0.019669
v 7.984832 0.515092 0.023326
v 7.987624 0.512086 0.027174
v 7.993067 0.498354 0.032213
v 7.996778 0.512521 0.023841
v 7.998542 0.503934 0.029599
v 8.001207 0.503853 0.027839
v 7.999301 0.508408 0.026025
v 7.988206 0.508527 0.029940
v 7.984832 0.512277 0.027416
v 7.984832 0.508972 0.030437
v 7.993298 0.493949 0.032829
v 7.996836 0.493694 0.032558
v 7.996409 0.498529 0.031955
v 7.999756 0.498673 0.030952
v 8.000986 0.507954 0.024349
v 7.988718 0.503889 0.032249
v 7.982040 0.512086 0.027174
v 7.993167 0.489705 0.032671
v 8.000449 0.493623 0.031478
v 8.003630 0.493841 0.028928
v 8.002648 0.498756 0.028742
v 8.003201 0.503412 0.025412
v 7.998211 0.512102 0.022459
v 7.996873 0.488717 0.032584
v 8.000566 0.488300 0.031477
v 8.004930 0.498737 0.025784
v 7.989079 0.498785 0.033878
v 7.989202 0.493848 0.034581
v 8.004441 0.488720 0.028718
v 8.006253 0.494195 0.025596
v 7.984832 0.499023 0.034825
v 7.984832 0.493823 0.035583
v 7.989130 0.488705 0.034750
v 7.984832 0.488300 0.035736
v 7.984832 0.504324 0.033030
v 8.007372 0.489718 0.025128
v 7.980463 0.493848 0.034581
v 7.980585 0.498785 0.033878
v 7.980947 0.503889 0.032249
v 7.980534 0.488705 0.034750
v 7.981458 0.508527 0.029940
v 7.976598 0.498354 0.032213
v 7.976367 0.493949 0.032829
v 7.976497 0.489705 0.032671
v 7.978402 0.507530 0.028832
v 7.977341 0.503070 0.030851
v 7.979592 0.511170 0.026244
v 7.980724 0.514465 0.022725
v 7.980740 0.516338 0.019669
v 7.984832 0.516757 0.019988
v 7.978002 0.515137 0.022027
v 7.974531 0.515962 0.020124
v 7.980555 0.517925 0.014948
v 7.984832 0.518075 0.015194
v 7.989110 0.517925 0.014948
v 7.976571 0.512124 0.025671
v 7.984832 0.519307 0.009174
v 7.975523 0.517327 0.013940
v 7.976950 0.518460 0.007781
v 7.980876 0.519118 0.008861
v 7.994142 0.517327 0.013940
v 7.992714 0.518460 0.007781
v 7.988788 0.519118 0.008861
v 7.974215 0.503624 0.030536
v 7.975414 0.508404 0.028340
v 7.971131 0.515860 0.011928
v 7.978392 0.518881 0.002482
v 7.981563 0.519482 0.003438
v 7.998534 0.515860 0.011928
v 7.991273 0.518881 0.002482
v 7.988101 0.519482 0.003438
v 7.972507 0.508784 0.027388
v 7.984832 0.519677 0.003736
v 7.982406 0.518937 -0.002403
v 7.987258 0.518937 -0.002403
v 7.972829 0.493694 0.032558
v 7.973255 0.498529 0.031955
v 7.974530 0.512602 0.024728
v 7.984832 0.519079 -0.002183
v 7.983229 0.517505 -0.007725
v 7.980045 0.518478 -0.003110
v 7.969908 0.498673 0.030952
v 7.971122 0.503934 0.029599
v 7.972887 0.512521 0.023841
v 7.984832 0.517607 -0.007612
v 7.986435 0.517505 -0.007725
v 7.981649 0.517200 -0.008155
v 7.977822 0.517667 -0.004352
v 7.972791 0.488717 0.032584
v 7.968457 0.503853 0.027839
v 7.970364 0.508408 0.026025
v 7.971453 0.512102 0.022459
v 7.968678 0.507954 0.024349
v 7.989620 0.518478 -0.003110
v 7.969215 0.493623 0.031478
v 7.969100 0.488300 0.031477
v 7.966464 0.503412 0.025412
v 7.991843 0.517667 -0.004352
v 7.988015 0.517200 -0.008155
v 7.996350 0.517231 0.005795
v 7.994242 0.517863 0.000814
v 7.966035 0.493841 0.028928
v 7.967016 0.498756 0.028742
v 7.965223 0.488720 0.028718
v 7.964734 0.498737 0.025784
v 7.985788 0.515647 -0.011851
v 7.996864 0.516504 -0.001416
v 7.963411 0.494195 0.025596
v 7.962293 0.489718 0.025128
v 7.984832 0.515740 -0.011705
v 7.984832 0.512437 -0.018031
v 7.986743 0.515536 -0.011988
v 7.983877 0.515647 -0.011851
v 7.993803 0.516567 -0.006053
v 7.989545 0.516656 -0.008981
v 7.987652 0.515160 -0.012596
v 7.982922 0.515536 -0.011988
v 7.995381 0.515235 -0.008138
v 7.990897 0.515853 -0.010124
v 7.988557 0.514740 -0.013181
v 7.982012 0.515160 -0.012596
v 7.980120 0.516656 -0.008981
v 7.991963 0.514894 -0.011556
v 7.989142 0.514118 -0.014156
v 7.999550 0.515615 0.003171
v 8.002135 0.513769 0.000170
v 7.999001 0.514880 -0.004059
v 7.981108 0.514740 -0.013181
v 7.978768 0.515853 -0.010124
v 7.975862 0.516567 -0.006053
v 7.975423 0.517863 0.000814
v 7.972800 0.516504 -0.001416
v 8.002195 0.513918 0.008919
v 8.005397 0.511573 0.005466
v 8.004063 0.511768 -0.003034
v 8.000620 0.513061 -0.006909
v 7.980522 0.514118 -0.014156
v 7.974283 0.515235 -0.008138
v 7.973314 0.517231 0.005795
v 8.007558 0.509352 0.001706
v 8.007760 0.508840 0.009957
v 7.996630 0.513568 -0.010621
v 8.003795 0.512153 0.014997
v 7.970115 0.515615 0.003171
v 7.967469 0.513918 0.008919
v 7.992733 0.513755 -0.013301
v 7.997601 0.511465 -0.013514
v 7.965870 0.512153 0.014997
v 7.967529 0.513769 0.000170
v 7.970664 0.514880 -0.004059
v 7.964268 0.511573 0.005466
v 7.961905 0.508840 0.009957
v 8.001691 0.511118 -0.009756
v 7.989719 0.513449 -0.015105
v 7.965601 0.511768 -0.003034
v 7.969045 0.513061 -0.006909
v 7.977702 0.514894 -0.011556
v 7.973034 0.513568 -0.010621
v 7.962106 0.509352 0.001706
v 8.009153 0.506998 -0.002263
v 8.005281 0.509687 -0.006266
v 8.001905 0.510038 -0.011435
v 7.967974 0.511118 -0.009756
v 7.972064 0.511465 -0.013514
v 7.976932 0.513755 -0.013301
v 7.960512 0.506998 -0.002263
v 7.959539 0.506369 0.005973
v 8.005997 0.507859 -0.009040
v 8.010125 0.506369 0.005973
v 7.979945 0.513449 -0.015105
v 7.964383 0.509687 -0.006266
v 7.957582 0.503616 0.001462
v 7.957927 0.503491 0.009151
v 7.960574 0.505897 0.014045
v 8.009091 0.505897 0.014045
v 8.011738 0.503491 0.009151
v 7.979775 0.512577 -0.016440
v 7.967760 0.510038 -0.011435
v 7.955634 0.500465 0.004492
v 7.957550 0.500817 0.013282
v 7.965923 0.512110 0.018721
v 7.961695 0.508733 0.018024
v 8.012115 0.500817 0.013282
v 7.976480 0.512390 -0.015367
v 7.954042 0.496812 0.006918
v 7.952559 0.492416 0.008204
v 7.955149 0.495477 0.012425
v 7.966588 0.511888 0.021027
v 7.961321 0.507857 0.021347
v 7.968577 0.511749 0.022464
v 7.958684 0.504814 0.017547
v 7.976365 0.510923 -0.017450
v 7.952507 0.493217 0.001508
v 7.953611 0.489466 0.011460
v 7.964113 0.507610 0.023438
v 7.953699 0.495309 0.015869
v 7.955840 0.500253 0.016873
v 7.979622 0.511634 -0.017728
v 7.954113 0.497104 -0.000794
v 7.956517 0.500608 -0.003235
v 7.961567 0.503588 0.023795
v 7.955385 0.499696 0.020792
v 7.979826 0.510911 -0.018782
v 7.953922 0.494066 -0.005581
v 7.958114 0.504144 0.021251
v 7.952983 0.482487 0.010653
v 7.951734 0.484514 0.013471
v 7.952317 0.490053 0.014666
v 7.952004 0.490067 -0.003453
v 7.951016 0.485916 -0.001217
v 7.951374 0.489123 0.003488
v 7.953180 0.474971 0.009999
v 7.951936 0.490321 0.018960
v 7.953283 0.494950 0.020146
v 7.952638 0.487123 -0.008001
v 7.950953 0.484682 0.005299
v 7.951735 0.487677 0.008794
v 7.959479 0.499132 0.023687
v 7.957876 0.494552 0.023014
v 7.956272 0.497940 -0.007631
v 7.956908 0.495383 -0.011683
v 7.954580 0.491309 -0.009932
v 7.951783 0.483429 0.009093
v 7.956664 0.490202 0.021807
v 7.959669 0.502161 -0.009837
v 7.955669 0.488732 -0.014001
v 7.959681 0.504494 -0.006132
v 7.951421 0.479883 0.007370
v 7.955752 0.486493 0.020096
v 7.960895 0.486729 0.022994
v 7.953794 0.484357 -0.012236
v 7.952727 0.479862 -0.010156
v 7.951632 0.482811 -0.005801
v 7.963668 0.507859 -0.009040
v 7.951857 0.476594 0.003672
v 7.954318 0.471811 0.006313
v 7.959476 0.483888 0.020766
v 7.955562 0.481631 -0.016432
v 7.951520 0.478295 -0.003337
v 7.950940 0.481493 0.001160
v 7.963737 0.506087 -0.011864
v 7.955671 0.468782 0.002758
v 7.955117 0.483152 0.018019
v 7.954743 0.479880 0.015719
v 7.958014 0.481343 0.018351
v 7.967605 0.508878 -0.013068
v 7.964083 0.504119 -0.014944
v 7.967900 0.507077 -0.015924
v 7.951728 0.483269 0.015500
v 7.956484 0.479048 0.015738
v 7.951538 0.486021 0.017088
v 7.952857 0.473409 -0.000382
v 7.972294 0.509444 -0.016814
v 7.960160 0.499888 -0.013406
v 7.954857 0.476958 0.012920
v 7.954292 0.470339 -0.004256
v 7.957459 0.466017 -0.000534
v 7.952838 0.475241 -0.007565
v 7.972716 0.508022 -0.018975
v 7.976554 0.509800 -0.019014
v 7.952028 0.480361 0.013640
v 7.959774 0.463384 -0.003826
v 7.954616 0.476978 -0.014437
v 7.954862 0.472277 -0.011756
v 7.973457 0.506653 -0.020970
v 7.977036 0.508803 -0.020459
v 7.980034 0.510173 -0.019823
v 7.956486 0.467462 -0.008090
v 7.958976 0.464251 -0.012210
v 7.962712 0.460750 -0.007381
v 7.957277 0.474071 -0.018896
v 7.957323 0.469182 -0.016236
v 7.974643 0.505301 -0.022953
v 7.969531 0.503639 -0.021152
v 7.980621 0.509730 -0.020523
v 7.977818 0.507877 -0.021845
v 7.966171 0.458249 -0.010936
v 7.962709 0.461507 -0.016268
v 7.961126 0.466316 -0.020595
v 7.976206 0.504068 -0.024772
v 7.971138 0.501891 -0.023762
v 7.973250 0.500266 -0.026167
v 7.968499 0.505345 -0.018575
v 7.981212 0.509265 -0.021206
v 7.978868 0.507052 -0.023098
v 7.967272 0.458962 -0.020143
v 7.970052 0.456010 -0.014228
v 7.978076 0.503058 -0.026270
v 7.967940 0.498238 -0.024206
v 7.964830 0.502183 -0.017986
v 7.981989 0.508922 -0.021746
v 7.980150 0.506362 -0.024138
v 7.974456 0.454297 -0.016861
v 7.980186 0.502305 -0.027392
v 7.975794 0.498931 -0.028126
v 7.978649 0.497935 -0.029583
v 7.966081 0.500237 -0.021052
v 7.961060 0.497708 -0.016898
v 7.982767 0.508580 -0.022286
v 7.981609 0.505840 -0.024921
v 7.982466 0.501845 -0.028080
v 7.977238 0.493566 -0.031164
v 7.973637 0.494769 -0.029447
v 7.970448 0.496357 -0.027117
v 7.981692 0.497327 -0.030486
v 7.983799 0.508439 -0.022495
v 7.983190 0.505521 -0.025400
v 7.984832 0.497121 -0.030798
v 7.984832 0.501689 -0.028316
v 7.971097 0.489137 -0.030580
v 7.967265 0.491097 -0.027719
v 7.964383 0.493321 -0.024254
v 7.980994 0.492833 -0.032243
v 7.957922 0.492987 -0.015534
v 7.984832 0.505411 -0.025565
v 7.964688 0.485556 -0.027447
v 7.962402 0.495567 -0.020488
v 7.959441 0.490602 -0.019400
v 7.961600 0.488075 -0.023493
v 7.984832 0.492584 -0.032623
v 7.980108 0.486710 -0.034049
v 7.975493 0.487624 -0.032742
v 7.957302 0.486177 -0.018055
v 7.959602 0.483490 -0.022361
v 7.984832 0.486406 -0.034498
v 7.989556 0.486710 -0.034049
v 7.988671 0.492833 -0.032243
v 7.987972 0.497327 -0.030486
v 7.987198 0.501845 -0.028080
v 7.973981 0.481339 -0.033452
v 7.968961 0.483211 -0.030854
v 7.958038 0.478816 -0.020864
v 7.984832 0.479864 -0.035655
v 7.992427 0.493566 -0.031164
v 7.991016 0.497935 -0.029583
v 7.986475 0.505521 -0.025400
v 7.967463 0.478150 -0.030451
v 7.962891 0.480773 -0.026610
v 7.961537 0.475967 -0.025299
v 7.960960 0.471182 -0.023358
v 7.979324 0.480222 -0.034996
v 7.988056 0.505840 -0.024921
v 7.985865 0.508439 -0.022495
v 7.984832 0.508298 -0.022705
v 7.966345 0.473162 -0.029463
v 7.965902 0.468361 -0.027626
v 7.966045 0.463588 -0.024788
v 7.978758 0.474680 -0.035247
v 7.989479 0.502305 -0.027392
v 7.972077 0.470818 -0.032814
v 7.971760 0.466004 -0.031102
v 7.971835 0.461335 -0.028219
v 7.972893 0.475997 -0.033467
v 7.972612 0.456901 -0.023307
v 7.989515 0.506362 -0.024138
v 7.991588 0.503058 -0.026270
v 7.993870 0.498931 -0.028126
v 7.978165 0.464518 -0.033159
v 7.978331 0.469349 -0.034796
v 7.978580 0.455672 -0.025187
v 7.979487 0.453372 -0.018442
v 7.986897 0.508580 -0.022286
v 7.987675 0.508922 -0.021746
v 7.984832 0.468835 -0.035439
v 7.984832 0.474230 -0.035825
v 7.984832 0.452828 -0.019495
v 7.990797 0.507052 -0.023098
v 7.988452 0.509265 -0.021206
v 7.990907 0.474680 -0.035247
v 7.990340 0.480222 -0.034996
v 7.984832 0.455115 -0.026042
v 7.991084 0.455672 -0.025187
v 7.990177 0.453372 -0.018442
v 7.989044 0.509730 -0.020523
v 7.995684 0.481339 -0.033452
v 7.994172 0.487624 -0.032742
v 7.984832 0.459238 -0.031188
v 7.978207 0.459926 -0.030248
v 7.995208 0.454297 -0.016861
v 7.993459 0.504068 -0.024772
v 7.996414 0.500266 -0.026167
v 7.998568 0.489137 -0.030580
v 7.996028 0.494769 -0.029447
v 8.002393 0.458962 -0.020143
v 7.999613 0.456010 -0.014228
v 7.997052 0.456901 -0.023307
v 7.991846 0.507877 -0.021845
v 7.995021 0.505301 -0.022953
v 7.999217 0.496357 -0.027117
v 7.984832 0.463995 -0.033826
v 8.003493 0.458249 -0.010936
v 7.997830 0.461335 -0.028219
v 7.991458 0.459926 -0.030248
v 7.992629 0.508803 -0.020459
v 7.989630 0.510173 -0.019823
v 7.991499 0.464518 -0.033159
v 7.991333 0.469349 -0.034796
v 8.010689 0.464251 -0.012210
v 8.006952 0.460750 -0.007381
v 8.006955 0.461507 -0.016268
v 7.989838 0.510911 -0.018782
v 7.989890 0.512577 -0.016440
v 7.990043 0.511634 -0.017728
v 7.997588 0.470818 -0.032814
v 7.997905 0.466004 -0.031102
v 7.996772 0.475997 -0.033467
v 8.009890 0.463384 -0.003826
v 8.008538 0.466316 -0.020595
v 7.993300 0.510923 -0.017450
v 8.003763 0.468361 -0.027626
v 8.003619 0.463588 -0.024788
v 8.002201 0.478150 -0.030451
v 8.000704 0.483211 -0.030854
v 7.993184 0.512390 -0.015367
v 8.006774 0.480773 -0.026610
v 8.008128 0.475967 -0.025299
v 8.003319 0.473162 -0.029463
v 8.004976 0.485556 -0.027447
v 8.002399 0.491097 -0.027719
v 8.010062 0.483490 -0.022361
v 8.008064 0.488075 -0.023493
v 8.005282 0.493321 -0.024254
v 8.001725 0.498238 -0.024206
v 7.997370 0.509444 -0.016814
v 7.996948 0.508022 -0.018975
v 7.993111 0.509800 -0.019014
v 8.008704 0.471182 -0.023358
v 8.010224 0.490602 -0.019400
v 7.998527 0.501891 -0.023762
v 8.001764 0.507077 -0.015924
v 8.002059 0.508878 -0.013068
v 8.012387 0.474071 -0.018896
v 8.011626 0.478816 -0.020864
v 8.012341 0.469182 -0.016236
v 8.000134 0.503639 -0.021152
v 7.996208 0.506653 -0.020970
v 8.005928 0.506087 -0.011864
v 8.014103 0.481631 -0.016432
v 8.014803 0.472277 -0.011756
v 8.013179 0.467462 -0.008090
v 8.003584 0.500237 -0.021052
v 8.009996 0.502161 -0.009837
v 8.005581 0.504119 -0.014944
v 8.012362 0.486177 -0.018055
v 8.015373 0.470339 -0.004256
v 8.012205 0.466017 -0.000534
v 8.007262 0.495567 -0.020488
v 8.001166 0.505345 -0.018575
v 8.004834 0.502183 -0.017986
v 8.008605 0.497708 -0.016898
v 8.009504 0.499888 -0.013406
v 8.013996 0.488732 -0.014001
v 8.013993 0.468782 0.002758
v 8.012756 0.495383 -0.011683
v 8.011743 0.492987 -0.015534
v 8.015049 0.476978 -0.014437
v 8.016938 0.479862 -0.010156
v 8.015870 0.484357 -0.012236
v 8.016808 0.473409 -0.000382
v 8.017808 0.476594 0.003672
v 8.015347 0.471811 0.006313
v 8.017027 0.487123 -0.008001
v 8.016826 0.475241 -0.007565
v 8.018145 0.478295 -0.003337
v 8.016484 0.474971 0.009999
v 8.018724 0.481493 0.001160
v 8.018712 0.484682 0.005299
v 8.018244 0.479883 0.007370
v 8.015085 0.491309 -0.009932
v 8.018032 0.482811 -0.005801
v 8.018648 0.485916 -0.001217
v 8.017882 0.483429 0.009093
v 8.016682 0.482487 0.010653
v 8.015743 0.494066 -0.005581
v 8.013393 0.497940 -0.007631
v 8.017660 0.490067 -0.003453
v 8.017158 0.493217 0.001508
v 8.018291 0.489123 0.003488
v 8.017930 0.487677 0.008794
v 8.016053 0.489466 0.011460
v 8.013147 0.500608 -0.003235
v 8.009984 0.504494 -0.006132
v 8.017105 0.492416 0.008204
v 8.014516 0.495477 0.012425
v 8.015552 0.497104 -0.000794
v 8.014030 0.500465 0.004492
v 8.012083 0.503616 0.001462
v 8.015622 0.496812 0.006918
v 8.001088 0.511749 0.022464
v 8.003077 0.511888 0.021027
v 8.003741 0.512110 0.018721
v 8.005551 0.507610 0.023438
v 8.008344 0.507857 0.021347
v 8.007970 0.508733 0.018024
v 8.008098 0.503588 0.023795
v 8.011550 0.504144 0.021251
v 8.010981 0.504814 0.017547
v 8.010186 0.499132 0.023687
v 8.014280 0.499696 0.020792
v 8.013824 0.500253 0.016873
v 8.015965 0.495309 0.015869
v 8.011788 0.494552 0.023014
v 8.016381 0.494950 0.020146
v 8.017729 0.490321 0.018960
v 8.017347 0.490053 0.014666
v 8.013000 0.490202 0.021807
v 8.017931 0.484514 0.013471
v 8.018126 0.486021 0.017088
v 8.013912 0.486493 0.020096
v 8.008770 0.486729 0.022994
v 8.017937 0.483269 0.015500
v 8.017636 0.480361 0.013640
v 8.010189 0.483888 0.020766
v 8.014548 0.483152 0.018019
v 8.014921 0.479880 0.015719
v 8.014808 0.476958 0.012920
v 8.011650 0.481343 0.018351
v 8.013180 0.479048 0.015738
v 8.015347 0.471811 0.006313
v 8.016484 0.474971 0.009999
v 8.010154 0.480738 0.008419
v 8.007080 0.475324 0.002828
v 8.013993 0.468782 0.002758
v 8.014808 0.476958 0.012920
v 8.013180 0.479048 0.015738
v 8.007523 0.485428 0.014718
v 8.012205 0.466017 -0.000534
v 8.004006 0.469910 -0.002763
v 8.011650 0.481343 0.018351
v 8.010189 0.483888 0.020766
v 8.009890 0.463384 -0.003826
v 8.000198 0.464914 -0.008121
v 8.006952 0.460750 -0.007381
v 8.008770 0.486729 0.022994
v 7.992966 0.460955 -0.013226
v 7.999613 0.456010 -0.014228
v 8.003493 0.458249 -0.010936
v 7.984832 0.458577 -0.017065
v 7.990177 0.453372 -0.018442
v 7.995208 0.454297 -0.016861
v 7.984832 0.452828 -0.019495
v 7.979487 0.453372 -0.018442
v 7.976698 0.460955 -0.013226
v 7.974456 0.454297 -0.016861
v 7.970052 0.456010 -0.014228
v 7.969466 0.464914 -0.008121
v 7.965658 0.469910 -0.002763
v 7.962712 0.460750 -0.007381
v 7.966171 0.458249 -0.010936
v 7.959774 0.463384 -0.003826
v 7.957459 0.466017 -0.000534
v 7.962584 0.475324 0.002828
v 7.955671 0.468782 0.002758
v 7.954318 0.471811 0.006313
v 7.959511 0.480738 0.008419
v 7.954857 0.476958 0.012920
v 7.953180 0.474971 0.009999
v 7.956484 0.479048 0.015738
v 7.962142 0.485428 0.014718
v 7.958014 0.481343 0.018351
v 7.959476 0.483888 0.020766
v 7.960895 0.486729 0.022994
vn -0.2591 -0.9638 0.0623
vn 0.0097 -0.9839 -0.1783
vn -0.3799 -0.9244 0.0324
vn -0.0724 -0.9864 -0.1476
vn -0.0000 -0.9885 -0.1513
vn -0.1771 -0.9827 -0.0551
vn -0.0845 -0.9929 -0.0840
vn 0.0917 -0.9784 -0.1855
vn -0.0000 -0.9842 -0.1773
vn -0.0917 -0.9784 -0.1855
vn 0.0845 -0.9929 -0.0840
vn 0.0724 -0.9864 -0.1476
vn 0.3799 -0.9244 0.0324
vn 0.1771 -0.9827 -0.0551
vn -0.0097 -0.9839 -0.1783
vn 0.2591 -0.9638 0.0623
vn -0.8584 -0.1747 -0.4824
vn -0.7667 -0.2472 -0.5925
vn -0.7573 -0.4566 -0.4669
vn -0.8551 -0.3823 -0.3503
vn 0.1822 0.6727 -0.7172
vn 0.2571 0.5705 -0.7800
vn 0.1820 0.5497 -0.8153
vn 0.1260 0.6588 -0.7417
vn -0.2217 0.5174 0.8265
vn -0.0999 0.5233 0.8463
vn -0.1395 0.3668 0.9198
vn -0.2258 0.3662 0.9027
vn -0.2582 0.8901 0.3757
vn -0.2573 0.7192 0.6454
vn -0.0569 0.6876 0.7239
vn -0.0129 0.8298 0.5579
vn -0.3489 0.5604 0.7512
vn -0.3894 0.3936 0.8327
vn 0.0129 0.8298 0.5579
vn 0.2582 0.8901 0.3757
vn 0.0808 0.9232 0.3758
vn 0.0850 0.8229 0.5618
vn -0.0000 0.8589 0.5121
vn -0.0000 0.9197 0.3925
vn -0.0808 0.9232 0.3758
vn -0.0850 0.8229 0.5618
vn -0.2918 0.7194 0.6303
vn -0.0000 0.7544 0.6564
vn 0.2918 0.7194 0.6303
vn 0.2213 0.6778 0.7012
vn -0.1710 0.2154 0.9614
vn -0.2307 0.2186 0.9482
vn 0.2573 0.7192 0.6454
vn 0.4968 0.6920 0.5238
vn -0.8800 0.4733 0.0387
vn -0.9125 0.3877 0.1304
vn -0.8760 0.4800 -0.0472
vn -0.8459 0.5136 0.1435
vn -0.2804 0.8397 -0.4650
vn -0.2965 0.8075 -0.5100
vn -0.4233 0.7762 -0.4673
vn -0.3943 0.8271 -0.4007
vn 0.5078 0.8076 -0.2999
vn 0.3943 0.8271 -0.4007
vn 0.3585 0.8705 -0.3371
vn 0.4647 0.8568 -0.2232
vn -0.3143 0.5483 0.7750
vn -0.0000 0.5690 0.8223
vn -0.7410 -0.0714 -0.6676
vn -0.6136 -0.1265 -0.7794
vn -0.6464 -0.3135 -0.6956
vn -0.9797 -0.1741 -0.0994
vn -0.9964 -0.0829 -0.0177
vn -0.9915 0.0897 -0.0945
vn -0.9787 0.0128 -0.2048
vn -0.4326 0.2294 0.8719
vn -0.8636 0.2415 -0.4427
vn -0.9112 0.1249 -0.3925
vn -0.9365 0.1755 -0.3036
vn -0.8840 0.2889 -0.3675
vn 0.6366 0.4040 0.6568
vn 0.5357 0.3312 0.7767
vn 0.4796 0.5094 0.7145
vn 0.5801 0.5630 0.5886
vn -0.4796 0.5094 0.7145
vn -0.5357 0.3312 0.7767
vn -0.6366 0.4040 0.6568
vn -0.5801 0.5630 0.5886
vn -0.3149 0.3871 0.8666
vn -0.3105 0.2281 0.9228
vn 0.9915 0.0897 -0.0945
vn 0.9817 0.1888 0.0259
vn 0.9951 0.0237 0.0960
vn 0.9964 -0.0829 -0.0177
vn -0.0000 0.4004 0.9163
vn 0.2804 0.8397 -0.4650
vn 0.2965 0.8075 -0.5100
vn 0.1851 0.8204 -0.5410
vn 0.1774 0.8439 -0.5063
vn 0.2602 0.9630 0.0705
vn 0.1188 0.9860 0.1170
vn 0.1008 0.9687 0.2268
vn 0.2537 0.9535 0.1628
vn -0.1765 0.0660 0.9821
vn -0.1837 -0.0027 0.9830
vn -0.2414 -0.0117 0.9703
vn -0.2381 0.0679 0.9689
vn -0.6777 0.2453 0.6932
vn -0.6897 0.1222 0.7137
vn -0.4541 0.0849 0.8869
vn 0.3595 0.6332 0.6854
vn -0.6332 0.1825 -0.7522
vn -0.7390 0.2364 -0.6308
vn -0.6554 0.3589 -0.6646
vn -0.5485 0.3107 -0.7763
vn -0.7883 0.1344 -0.6004
vn -0.8295 0.0003 -0.5584
vn -0.8782 0.0670 -0.4735
vn -0.8363 0.1911 -0.5139
vn -0.5850 0.1863 0.7894
vn -0.6150 0.0767 0.7848
vn -0.3180 0.0758 0.9451
vn -0.3143 0.0120 0.9492
vn -0.0000 0.2336 0.9723
vn -0.2581 -0.6348 -0.7283
vn -0.4685 -0.5885 -0.6589
vn -0.4705 -0.3725 -0.7999
vn -0.2485 -0.4087 -0.8782
vn -0.8349 0.3713 -0.4063
vn -0.8177 0.3301 -0.4716
vn -0.5949 -0.0520 0.8021
vn -0.6864 0.0734 0.7235
vn -0.0000 0.0286 0.9996
vn 0.3143 0.0120 0.9492
vn 0.3180 0.0758 0.9451
vn -0.0000 0.0862 0.9963
vn 0.3105 0.2281 0.9228
vn -0.7793 0.5078 -0.3672
vn -0.7669 0.4638 -0.4436
vn -0.8487 0.4263 -0.3130
vn 0.3101 0.4765 -0.8227
vn 0.3546 0.3876 -0.8509
vn 0.2508 0.3565 -0.9000
vn 0.2219 0.4460 -0.8671
vn -0.9817 0.1888 0.0259
vn -0.9478 0.3166 -0.0375
vn -0.9540 0.2384 -0.1817
vn -0.0000 0.1012 -0.9949
vn -0.0000 -0.0181 -0.9998
vn -0.1982 -0.0101 -0.9801
vn -0.1788 0.1076 -0.9780
vn 0.2414 -0.0117 0.9703
vn 0.1837 -0.0027 0.9830
vn 0.1765 0.0660 0.9821
vn 0.2381 0.0679 0.9689
vn 0.3143 0.5483 0.7750
vn 0.3149 0.3871 0.8666
vn 0.2258 0.3662 0.9027
vn 0.2217 0.5174 0.8265
vn -0.2213 0.6778 0.7012
vn -0.0000 0.9419 -0.3358
vn -0.0000 0.8999 -0.4362
vn -0.0340 0.8975 -0.4396
vn -0.0581 0.9394 -0.3380
vn 0.0569 0.6876 0.7239
vn -0.0401 0.7281 -0.6843
vn -0.0649 0.6503 -0.7569
vn -0.1260 0.6588 -0.7417
vn -0.0837 0.7324 -0.6757
vn -0.0000 0.9693 0.2460
vn -0.1008 0.9687 0.2268
vn -0.9235 -0.3835 0.0110
vn -0.9554 -0.2898 0.0570
vn 0.0999 0.5233 0.8463
vn 0.2305 0.6008 0.7655
vn 0.3684 0.4511 0.8129
vn 0.4485 0.7602 0.4700
vn -0.9020 0.3462 -0.2579
vn -0.0000 0.9912 0.1327
vn -0.1188 0.9860 0.1170
vn 0.6897 0.1222 0.7137
vn 0.6150 0.0767 0.7848
vn 0.5850 0.1863 0.7894
vn 0.6777 0.2453 0.6932
vn -0.2602 0.9630 0.0705
vn -0.2537 0.9535 0.1628
vn 0.4326 0.2294 0.8719
vn 0.4541 0.0849 0.8869
vn 0.8514 0.4894 -0.1886
vn 0.9037 0.4135 -0.1116
vn 0.9020 0.3462 -0.2579
vn 0.8487 0.4263 -0.3130
vn -0.4409 0.8925 0.0949
vn -0.2966 0.7773 -0.5547
vn -0.2886 0.7530 -0.5913
vn -0.4138 0.6966 -0.5862
vn -0.4246 0.7338 -0.5304
vn 0.1128 0.9933 -0.0243
vn -0.0000 0.9999 -0.0135
vn 0.4409 0.8925 0.0949
vn -0.3949 0.9186 0.0127
vn -0.1128 0.9933 -0.0243
vn -0.2299 0.9716 -0.0557
vn -0.0000 0.3303 -0.9439
vn 0.1341 0.3372 -0.9318
vn 0.1550 0.2295 -0.9609
vn -0.0000 0.2254 -0.9743
vn -0.0000 -0.2012 -0.9796
vn 0.2239 -0.1919 -0.9555
vn 0.2485 -0.4087 -0.8782
vn -0.0000 -0.4179 -0.9085
vn 0.2299 0.9716 -0.0557
vn 0.1759 0.9631 -0.2037
vn 0.0881 0.9791 -0.1835
vn -0.0000 0.9842 -0.1773
vn 0.7173 0.3966 -0.5728
vn 0.6124 0.5009 -0.6116
vn 0.6519 0.5290 -0.5433
vn 0.7496 0.4279 -0.5050
vn 0.8349 0.3713 -0.4063
vn 0.8177 0.3301 -0.4716
vn 0.7669 0.4638 -0.4436
vn 0.1710 0.2154 0.9614
vn 0.2307 0.2186 0.9482
vn -0.4927 0.8692 -0.0415
vn -0.5705 0.8200 0.0468
vn 0.0581 0.9394 -0.3380
vn 0.1114 0.9310 -0.3475
vn -0.5470 0.6631 -0.5110
vn -0.6705 0.5650 -0.4809
vn -0.6762 0.6022 -0.4243
vn -0.5496 0.6923 -0.4675
vn -0.4968 0.6920 0.5238
vn 0.3489 0.5604 0.7512
vn 0.1186 0.4283 -0.8958
vn 0.3314 0.9381 -0.1012
vn 0.2542 0.9374 -0.2381
vn 0.1684 0.9145 -0.3680
vn 0.3894 0.3936 0.8327
vn -0.3595 0.6332 0.6854
vn 0.6437 0.6269 0.4388
vn 0.7536 0.4897 0.4384
vn 0.8062 0.5778 -0.1271
vn 0.7188 0.6947 0.0260
vn 0.7410 -0.0714 -0.6676
vn 0.6136 -0.1265 -0.7794
vn 0.5557 0.0294 -0.8309
vn 0.6924 0.0722 -0.7179
vn 0.4530 0.0225 0.8912
vn 0.7699 -0.6200 -0.1509
vn 0.8344 -0.5428 -0.0958
vn 0.7572 -0.6531 -0.0082
vn 0.6815 -0.7309 -0.0351
vn 0.5660 0.8178 -0.1042
vn 0.4074 0.8998 -0.1562
vn 0.4927 0.8692 -0.0415
vn 0.2966 0.7773 -0.5547
vn 0.1928 0.7969 -0.5724
vn 0.6864 0.0734 0.7235
vn -0.1882 0.7860 -0.5889
vn -0.1846 0.7716 -0.6087
vn -0.2763 0.7305 -0.6245
vn -0.1114 0.9310 -0.3475
vn -0.1684 0.9145 -0.3680
vn -0.2542 0.9374 -0.2381
vn -0.1759 0.9631 -0.2037
vn -0.0616 0.8962 -0.4393
vn 0.6554 0.3589 -0.6646
vn 0.7920 0.2862 -0.5393
vn 0.7390 0.2364 -0.6308
vn -0.5406 0.7267 -0.4237
vn -0.6748 0.6516 -0.3465
vn -0.6536 0.7103 -0.2611
vn -0.5334 0.7634 -0.3643
vn -0.4074 0.8998 -0.1562
vn -0.3314 0.9381 -0.1012
vn 0.4233 0.7762 -0.4673
vn 0.5496 0.6923 -0.4675
vn 0.5470 0.6631 -0.5110
vn 0.4246 0.7338 -0.5304
vn 0.0340 0.8975 -0.4396
vn -0.0000 0.8217 -0.5699
vn 0.0616 0.8962 -0.4393
vn 0.5949 -0.0520 0.8021
vn -0.6198 0.7637 -0.1808
vn -0.5078 0.8076 -0.2999
vn 0.0952 0.8861 -0.4536
vn -0.3585 0.8705 -0.3371
vn -0.4647 0.8568 -0.2232
vn -0.3145 0.9062 -0.2827
vn -0.0952 0.8861 -0.4536
vn -0.1342 0.8755 -0.4643
vn -0.2165 0.8931 -0.3944
vn 0.6792 -0.6223 0.3891
vn 0.6291 -0.6025 0.4911
vn 0.5308 -0.5081 0.6783
vn 0.5016 -0.5065 0.7013
vn 0.1342 0.8755 -0.4643
vn -0.2510 0.8694 -0.4256
vn -0.1530 0.8617 -0.4838
vn 0.1530 0.8617 -0.4838
vn -0.5660 0.8178 -0.1042
vn -0.7179 0.6930 -0.0660
vn -0.6605 0.7508 0.0006
vn 0.3145 0.9062 -0.2827
vn 0.2165 0.8931 -0.3944
vn 0.4380 -0.5147 0.7371
vn 0.4285 -0.5160 0.7417
vn 0.4093 -0.5145 0.7534
vn 0.3711 -0.5189 0.7701
vn -0.8206 0.3575 0.4458
vn -0.4613 0.1374 0.8766
vn -0.4214 0.2793 0.8628
vn -0.7536 0.4897 0.4384
vn 0.2510 0.8694 -0.4256
vn -0.9779 0.2018 0.0546
vn -0.9442 0.2245 -0.2411
vn -0.9088 0.3590 -0.2126
vn -0.9328 0.3599 -0.0182
vn 0.3949 0.9186 0.0127
vn 0.5411 0.8300 0.1356
vn -0.6045 0.7937 0.0680
vn -0.5411 0.8300 0.1356
vn 0.6045 0.7937 0.0680
vn 0.5705 0.8200 0.0468
vn -0.8921 0.0134 0.4516
vn -0.8628 0.1995 0.4645
vn -0.7945 0.6058 0.0419
vn -0.7471 0.6621 0.0598
vn 0.7507 -0.6358 0.1793
vn 0.7585 -0.6306 0.1647
vn 0.7308 -0.6678 0.1417
vn 0.4214 0.2793 0.8628
vn 0.6605 0.7508 0.0006
vn 0.7471 0.6621 0.0598
vn 0.7179 0.6930 -0.0660
vn 0.6198 0.7637 -0.1808
vn -0.5016 -0.5065 0.7013
vn -0.4380 -0.5147 0.7371
vn -0.4533 -0.5166 0.7264
vn -0.4825 -0.5297 0.6976
vn 0.7945 0.6058 0.0419
vn 0.5334 0.7634 -0.3643
vn 0.5406 0.7267 -0.4237
vn -0.8052 0.5916 -0.0404
vn 0.6536 0.7103 -0.2611
vn 0.7595 0.6312 -0.1574
vn 0.1228 0.7437 -0.6571
vn 0.1420 0.7493 -0.6468
vn 0.2226 0.6898 -0.6889
vn -0.7595 0.6312 -0.1574
vn -0.7826 0.5636 -0.2643
vn -0.8320 0.5513 -0.0627
vn -0.1774 0.8439 -0.5063
vn 0.8800 0.4733 0.0387
vn 0.8320 0.5513 -0.0627
vn 0.8459 0.5136 0.1435
vn 0.8052 0.5916 -0.0404
vn 0.8921 0.0134 0.4516
vn 0.5028 -0.1783 0.8458
vn 0.4869 -0.3493 0.8005
vn 0.8988 -0.1585 0.4088
vn -0.1851 0.8204 -0.5410
vn 0.6748 0.6516 -0.3465
vn 0.8760 0.4800 -0.0472
vn 0.9125 0.3877 0.1304
vn -0.7188 0.6947 0.0260
vn -0.9378 0.2555 0.2350
vn -0.4485 0.7602 0.4700
vn 0.9554 -0.2898 0.0570
vn 0.9089 -0.4061 0.0953
vn 0.8670 -0.4939 0.0658
vn 0.9235 -0.3835 0.0110
vn -0.2305 0.6008 0.7655
vn -0.1228 0.7437 -0.6571
vn -0.1822 0.6727 -0.7172
vn 0.8616 0.4770 -0.1736
vn -0.8062 0.5778 -0.1271
vn 0.3186 0.5980 -0.7355
vn 0.9478 0.3166 -0.0375
vn -0.8616 0.4770 -0.1736
vn -0.6437 0.6269 0.4388
vn -0.3684 0.4511 0.8129
vn -0.1928 0.7969 -0.5724
vn 0.9088 0.3590 -0.2126
vn 0.9442 0.2245 -0.2411
vn 0.9779 0.2018 0.0546
vn 0.9328 0.3599 -0.0182
vn 0.7826 0.5636 -0.2643
vn 0.8295 0.0003 -0.5584
vn 0.8584 -0.1747 -0.4824
vn 0.7667 -0.2472 -0.5925
vn 0.4613 0.1374 0.8766
vn 0.4682 -0.3366 0.8170
vn 0.8206 0.3575 0.4458
vn -0.2340 -0.8522 -0.4680
vn -0.0000 -0.6524 -0.7579
vn -0.0000 -0.8721 -0.4893
vn 0.2886 0.7530 -0.5913
vn 0.1882 0.7860 -0.5889
vn 0.9540 0.2384 -0.1817
vn -0.9956 0.0053 0.0939
vn -0.9648 0.0533 -0.2574
vn -0.9149 -0.3315 0.2303
vn 0.8628 0.1995 0.4645
vn -0.4203 0.2708 -0.8661
vn -0.4578 0.4311 -0.7776
vn -0.3546 0.3876 -0.8509
vn -0.9303 0.1014 0.3526
vn -0.9071 -0.0165 0.4205
vn -0.8788 -0.4738 -0.0573
vn -0.8139 -0.5808 0.0119
vn -0.8670 -0.4939 0.0658
vn 0.4895 0.0086 0.8720
vn -0.5028 -0.1783 0.8458
vn -0.4895 0.0086 0.8720
vn 0.3456 -0.5224 0.7795
vn 0.2944 -0.5268 0.7974
vn 0.2647 -0.5143 0.8157
vn 0.8840 0.2889 -0.3675
vn 0.9071 -0.0165 0.4205
vn 0.9303 0.1014 0.3526
vn 0.9956 0.0053 0.0939
vn -0.9951 0.0237 0.0960
vn 0.7793 0.5078 -0.3672
vn 0.8636 0.2415 -0.4427
vn 0.9365 0.1755 -0.3036
vn 0.9112 0.1249 -0.3925
vn -0.9661 -0.1500 0.2100
vn 0.4775 -0.4497 0.7548
vn 0.8771 -0.2853 0.3864
vn 0.9787 0.0128 -0.2048
vn 0.9518 -0.0540 -0.3021
vn 0.3899 0.5150 -0.7634
vn 0.9661 -0.1500 0.2100
vn 0.9149 -0.3315 0.2303
vn -0.4682 -0.3366 0.8170
vn -0.4869 -0.3493 0.8005
vn -0.4256 -0.4335 0.7943
vn -0.1550 0.2295 -0.9609
vn 0.8782 0.0670 -0.4735
vn 0.9142 -0.1158 -0.3883
vn 0.9797 -0.1741 -0.0994
vn 0.9465 -0.2623 -0.1878
vn 0.6762 0.6022 -0.4243
vn -0.4775 -0.4497 0.7548
vn -0.4506 -0.5568 0.6978
vn -0.3806 -0.5218 0.7634
vn 0.6705 0.5650 -0.4809
vn -0.9142 -0.1158 -0.3883
vn -0.9518 -0.0540 -0.3021
vn -0.7523 -0.6280 0.1994
vn -0.7330 -0.6266 0.2648
vn -0.7507 -0.6358 0.1793
vn -0.3130 -0.6394 0.7023
vn -0.8988 -0.1585 0.4088
vn -0.8771 -0.2853 0.3864
vn -0.3732 -0.6494 0.6626
vn 0.8788 -0.4738 -0.0573
vn 0.8139 -0.5808 0.0119
vn 0.4138 0.6966 -0.5862
vn -0.6431 -0.5212 -0.5610
vn -0.9000 -0.3343 0.2796
vn 0.9110 -0.3231 -0.2564
vn 0.0950 0.5372 -0.8381
vn 0.0649 0.6503 -0.7569
vn 0.2763 0.7305 -0.6245
vn 0.1846 0.7716 -0.6087
vn -0.2239 -0.1919 -0.9555
vn -0.4396 -0.1655 -0.8828
vn -0.3880 0.0070 -0.9216
vn -0.8344 -0.5428 -0.0958
vn -0.7572 -0.6531 -0.0082
vn -0.5557 0.0294 -0.8309
vn -0.6924 0.0722 -0.7179
vn -0.4931 0.1441 -0.8579
vn 0.3939 0.6613 -0.6384
vn 0.3638 0.6289 -0.6872
vn 0.2552 0.7090 -0.6574
vn 0.6332 0.1825 -0.7522
vn 0.7883 0.1344 -0.6004
vn 0.1621 0.7603 -0.6290
vn -0.1621 0.7603 -0.6290
vn -0.7496 0.4279 -0.5050
vn -0.6519 0.5290 -0.5433
vn 0.7573 -0.4566 -0.4669
vn 0.8551 -0.3823 -0.3503
vn 0.6793 -0.6926 -0.2427
vn 0.4561 0.5511 -0.6987
vn -0.1420 0.7493 -0.6468
vn -0.2914 0.2449 -0.9247
vn -0.2508 0.3565 -0.9000
vn -0.1341 0.3372 -0.9318
vn 0.4203 0.2708 -0.8661
vn 0.4931 0.1441 -0.8579
vn 0.3399 0.1228 -0.9324
vn 0.2914 0.2449 -0.9247
vn 0.5039 0.5843 -0.6362
vn 0.5486 0.4726 -0.6897
vn 0.5346 0.6220 -0.5722
vn 0.3697 -0.8947 -0.2507
vn 0.4187 -0.8073 -0.4159
vn 0.5812 -0.7450 -0.3273
vn 0.5173 -0.8381 -0.1732
vn -0.9465 -0.2623 -0.1878
vn 0.3880 0.0070 -0.9216
vn 0.6011 -0.7930 -0.0995
vn 0.0837 0.7324 -0.6757
vn -0.5812 -0.7450 -0.3273
vn -0.4187 -0.8073 -0.4159
vn -0.3697 -0.8947 -0.2507
vn -0.5173 -0.8381 -0.1732
vn 0.4578 0.4311 -0.7776
vn 0.0401 0.7281 -0.6843
vn 0.8363 0.1911 -0.5139
vn -0.0000 0.5332 -0.8460
vn -0.0000 0.6480 -0.7616
vn 0.5485 0.3107 -0.7763
vn -0.0881 0.9791 -0.1835
vn -0.0000 0.7247 -0.6891
vn -0.8514 0.4894 -0.1886
vn -0.5039 0.5843 -0.6362
vn -0.6124 0.5009 -0.6116
vn -0.5346 0.6220 -0.5722
vn -0.0000 0.4227 -0.9063
vn 0.1982 -0.0101 -0.9801
vn 0.1788 0.1076 -0.9780
vn -0.1186 0.4283 -0.8958
vn -0.0950 0.5372 -0.8381
vn -0.7920 0.2862 -0.5393
vn -0.2219 0.4460 -0.8671
vn -0.1820 0.5497 -0.8153
vn 0.2340 -0.8522 -0.4680
vn 0.2085 -0.9309 -0.3001
vn -0.0000 -0.9482 -0.3176
vn 0.6464 -0.3135 -0.6956
vn 0.6431 -0.5212 -0.5610
vn 0.4396 -0.1655 -0.8828
vn 0.4705 -0.3725 -0.7999
vn 0.4685 -0.5885 -0.6589
vn -0.2571 0.5705 -0.7800
vn -0.3101 0.4765 -0.8227
vn 0.1395 0.3668 0.9198
vn 0.2581 -0.6348 -0.7283
vn -0.2226 0.6898 -0.6889
vn -0.3186 0.5980 -0.7355
vn -0.2085 -0.9309 -0.3001
vn -0.2552 0.7090 -0.6574
vn -0.3399 0.1228 -0.9324
vn -0.3899 0.5150 -0.7634
vn -0.9037 0.4135 -0.1116
vn -0.4530 0.0225 0.8912
vn -0.6011 -0.7930 -0.0995
vn -0.6793 -0.6926 -0.2427
vn -0.7699 -0.6200 -0.1509
vn -0.6815 -0.7309 -0.0351
vn -0.3638 0.6289 -0.6872
vn -0.9110 -0.3231 -0.2564
vn -0.4561 0.5511 -0.6987
vn -0.5486 0.4726 -0.6897
vn -0.7173 0.3966 -0.5728
vn -0.3939 0.6613 -0.6384
vn -0.9089 -0.4061 0.0953
vn 0.9378 0.2555 0.2350
vn 0.9648 0.0533 -0.2574
vn 0.9000 -0.3343 0.2796
vn 0.4256 -0.4335 0.7943
vn 0.4506 -0.5568 0.6978
vn 0.3732 -0.6494 0.6626
vn 0.3806 -0.5218 0.7634
vn 0.3130 -0.6394 0.7023
vn -0.5308 -0.5081 0.6783
vn -0.6291 -0.6025 0.4911
vn -0.6890 -0.7161 0.1111
vn -0.6792 -0.6223 0.3891
vn -0.7308 -0.6678 0.1417
vn -0.1965 -0.4627 0.8644
vn -0.2450 -0.5119 0.8233
vn -0.2647 -0.5143 0.8157
vn -0.0000 -0.4617 0.8870
vn 0.4825 -0.5297 0.6976
vn 0.4533 -0.5166 0.7264
vn 0.7330 -0.6266 0.2648
vn 0.7523 -0.6280 0.1994
vn -0.7585 -0.6306 0.1647
vn -0.4285 -0.5160 0.7417
vn -0.3711 -0.5189 0.7701
vn -0.3456 -0.5224 0.7795
vn -0.4093 -0.5145 0.7534
vn 0.2450 -0.5119 0.8233
vn 0.1965 -0.4627 0.8644
vn -0.2944 -0.5268 0.7974
vn -0.0000 -0.3893 0.9211
vn 0.6890 -0.7161 0.1111
vt 0.000000 0.000000
s 1
f 1/1/1 2/1/2 3/1/3
f 2/1/2 4/1/4 3/1/3
f 3/1/3 4/1/4 5/1/5
f 4/1/4 6/1/6 5/1/5
f 6/1/6 7/1/7 5/1/5
f 7/1/7 8/1/8 5/1/5
f 8/1/8 9/1/9 5/1/5
f 9/1/9 10/1/10 5/1/5
f 10/1/10 11/1/11 5/1/5
f 5/1/5 12/1/12 13/1/13
f 5/1/5 14/1/14 12/1/12
f 5/1/5 11/1/11 14/1/14
f 12/1/12 15/1/15 13/1/13
f 13/1/13 15/1/15 16/1/16
f 299/1/17 368/1/18 307/1/19 300/1/20
f 383/1/21 384/1/22 377/1/23 370/1/24
f 73/1/25 93/1/26 92/1/27 74/1/28
f 80/1/29 106/1/30 84/1/31 79/1/32
f 84/1/31 106/1/30 100/1/33 93/1/26
f 100/1/33 111/1/34 92/1/27 93/1/26
f 20/1/35 25/1/36 28/1/37
f 20/1/35 28/1/37 21/1/38
f 29/1/39 78/1/40 77/1/41 76/1/42
f 29/1/39 76/1/42 45/1/43 37/1/44
f 21/1/38 30/1/45 17/1/46
f 92/1/27 105/1/47 70/1/48 74/1/28
f 26/1/49 32/1/50 25/1/36
f 207/1/51 213/1/52 208/1/53 201/1/54
f 193/1/55 212/1/56 192/1/57 186/1/58
f 164/1/59 170/1/60 146/1/61 155/1/62
f 45/1/43 69/1/63 38/1/64 37/1/44
f 367/1/65 373/1/66 374/1/67 368/1/18
f 267/1/68 268/1/69 238/1/70 261/1/71
f 92/1/27 111/1/34 110/1/72 105/1/47
f 254/1/73 259/1/74 243/1/75 250/1/76
f 34/1/77 50/1/78 43/1/79 35/1/80
f 121/1/81 125/1/82 118/1/83 119/1/84
f 67/1/85 74/1/28 70/1/48 66/1/86
f 499/1/87 506/1/88 495/1/89 494/1/90
f 38/1/64 69/1/63 67/1/85 63/1/91
f 174/1/92 442/1/93 430/1/94 182/1/95
f 90/1/96 91/1/97 83/1/98 89/1/99
f 104/1/100 117/1/101 72/1/102 71/1/103
f 110/1/72 131/1/104 130/1/105 123/1/106
f 51/1/107 25/1/36 32/1/50
f 344/1/108 347/1/109 340/1/110 339/1/111
f 352/1/112 360/1/113 266/1/114 351/1/115
f 133/1/116 136/1/117 130/1/105 131/1/104
f 125/1/82 133/1/116 131/1/104 118/1/83
f 70/1/48 71/1/103 65/1/118 66/1/86
f 65/1/118 71/1/103 72/1/102 68/1/119
f 67/1/85 66/1/86 59/1/120 63/1/91
f 406/1/121 380/1/122 379/1/123 386/1/124
f 249/1/125 342/1/126 254/1/73 250/1/76
f 137/1/127 132/1/128 130/1/105 136/1/117
f 62/1/129 61/1/130 56/1/131 60/1/132
f 59/1/120 60/1/132 56/1/131 55/1/133
f 253/1/134 282/1/135 249/1/125 248/1/136
f 385/1/137 411/1/138 362/1/139 363/1/140
f 238/1/70 239/1/141 221/1/142 237/1/143
f 361/1/144 393/1/145 376/1/146 369/1/147
f 46/1/148 52/1/149 40/1/150 39/1/151
f 36/1/152 44/1/153 22/1/154 18/1/155
f 30/1/45 36/1/152 18/1/155 17/1/46
f 45/1/43 76/1/42 75/1/156
f 113/1/157 138/1/158 141/1/159 108/1/160
f 20/1/35 21/1/38 17/1/46 19/1/161
f 76/1/42 77/1/41 79/1/32
f 77/1/41 80/1/29 79/1/32
f 25/1/36 89/1/99 83/1/98 28/1/37
f 334/1/162 335/1/163 328/1/164 327/1/165
f 82/1/166 81/1/167 77/1/41 78/1/40
f 267/1/68 280/1/168 263/1/169 268/1/69
f 18/1/155 24/1/170 19/1/161 17/1/46
f 517/1/171 43/1/79 520/1/172 518/1/173
f 249/1/125 250/1/76 232/1/174 248/1/136
f 85/1/175 88/1/176 81/1/167 82/1/166
f 48/1/177 58/1/178 54/1/179 49/1/180
f 81/1/167 88/1/176 87/1/181 86/1/182
f 48/1/177 49/1/180 42/1/183 47/1/184
f 509/1/185 513/1/186 502/1/187 503/1/188
f 30/1/45 37/1/44 38/1/64 36/1/152
f 86/1/182 94/1/189 80/1/29
f 220/1/190 288/1/191 287/1/192 281/1/193
f 99/1/194 101/1/195 85/1/175 91/1/97
f 89/1/99 25/1/36 97/1/196
f 87/1/181 167/1/197 94/1/189 86/1/182
f 88/1/176 96/1/198 95/1/199 87/1/181
f 348/1/200 355/1/201 354/1/202 353/1/203
f 118/1/83 131/1/104 110/1/72 111/1/34
f 392/1/204 425/1/205 424/1/206 418/1/207
f 98/1/208 122/1/209 103/1/210 99/1/194
f 103/1/210 107/1/211 101/1/195 99/1/194
f 475/1/212 469/1/213 477/1/214 478/1/215
f 482/1/216 483/1/217 478/1/215 479/1/218
f 40/1/150 41/1/219 31/1/220 39/1/151
f 167/1/197 172/1/221 173/1/222 94/1/189
f 107/1/211 103/1/210 114/1/223 113/1/157
f 122/1/209 127/1/224 114/1/223 103/1/210
f 276/1/225 275/1/226 269/1/227 274/1/228
f 40/1/150 47/1/184 42/1/183 41/1/219
f 106/1/30 80/1/29 112/1/229
f 27/1/230 35/1/80 32/1/50 26/1/49
f 356/1/231 363/1/140 362/1/139 355/1/201
f 98/1/208 129/1/232 126/1/233 122/1/209
f 126/1/233 143/1/234 127/1/224 122/1/209
f 34/1/77 35/1/80 27/1/230 33/1/235
f 42/1/183 49/1/180 34/1/77 33/1/235
f 112/1/229 80/1/29 120/1/236
f 43/1/79 51/1/107 32/1/50 35/1/80
f 521/1/237 524/1/238 525/1/239 522/1/240
f 444/1/241 445/1/242 440/1/243 443/1/244
f 52/1/149 53/1/245 47/1/184 40/1/150
f 426/1/246 468/1/247 435/1/248 427/1/249
f 154/1/250 155/1/62 135/1/251 153/1/252
f 442/1/93 437/1/253 431/1/254 430/1/94
f 53/1/245 57/1/255 48/1/177 47/1/184
f 31/1/220 55/1/133 56/1/131 39/1/151
f 231/1/256 295/1/257 294/1/258 288/1/191
f 115/1/259 150/1/260 116/1/261 109/1/262
f 141/1/159 145/1/263 115/1/259 108/1/160
f 450/1/264 475/1/212 456/1/265 449/1/266
f 206/1/267 262/1/268 199/1/269 191/1/270
f 160/1/271 172/1/221 167/1/197 159/1/272
f 175/1/273 459/1/274 458/1/275 452/1/276
f 134/1/277 139/1/278 138/1/158
f 134/1/277 140/1/279 139/1/278
f 134/1/277 138/1/158 113/1/157 114/1/223
f 64/1/280 58/1/178 48/1/177 57/1/255
f 138/1/158 139/1/278 141/1/159
f 191/1/270 199/1/269 183/1/281 184/1/282
f 140/1/279 144/1/283 139/1/278
f 112/1/229 120/1/236 121/1/81 119/1/84
f 141/1/159 139/1/278 145/1/263
f 166/1/284 178/1/285 160/1/271 158/1/286
f 149/1/287 156/1/288 157/1/289 150/1/260
f 583/1/290 585/1/291 582/1/292 580/1/293
f 144/1/283 148/1/294 139/1/278
f 145/1/263 139/1/278 149/1/287
f 144/1/283 140/1/279 127/1/224 143/1/234
f 185/1/295 157/1/289 156/1/288 165/1/296
f 148/1/294 152/1/297 139/1/278
f 160/1/271 178/1/285 177/1/298 172/1/221
f 149/1/287 139/1/278 156/1/288
f 183/1/281 187/1/299 179/1/300 177/1/298
f 142/1/301 147/1/302 143/1/234 126/1/233
f 135/1/251 142/1/301 126/1/233 129/1/232
f 49/1/180 54/1/179 50/1/78 34/1/77
f 147/1/302 148/1/294 144/1/283 143/1/234
f 178/1/285 184/1/282 183/1/281 177/1/298
f 575/1/303 578/1/304 576/1/305 574/1/306
f 166/1/284 186/1/58 184/1/282 178/1/285
f 230/1/307 246/1/308 229/1/309 233/1/310
f 156/1/288 139/1/278 165/1/296
f 146/1/61 151/1/311 147/1/302 142/1/301
f 170/1/60 174/1/92 151/1/311 146/1/61
f 222/1/312 236/1/313 224/1/314 215/1/315
f 128/1/316 129/1/232 98/1/208 90/1/96
f 128/1/316 153/1/252 135/1/251 129/1/232
f 521/1/237 522/1/240 519/1/317 518/1/173
f 185/1/295 193/1/55 186/1/58 166/1/284
f 176/1/318 209/1/319 80/1/29 94/1/189
f 97/1/196 171/1/320 161/1/321
f 128/1/316 97/1/196 161/1/321 153/1/252
f 241/1/322 242/1/323 224/1/314 236/1/313
f 187/1/299 195/1/324 180/1/325 179/1/300
f 587/1/326 588/1/327 586/1/328 583/1/290
f 523/1/329 524/1/238 521/1/237 520/1/172
f 94/1/189 173/1/222 176/1/318
f 161/1/321 162/1/330 154/1/250 153/1/252
f 56/1/131 61/1/130 46/1/148 39/1/151
f 161/1/321 171/1/320 169/1/331 162/1/330
f 73/1/25 74/1/28 67/1/85 69/1/63
f 152/1/297 182/1/95 139/1/278
f 162/1/330 168/1/332 163/1/333 154/1/250
f 81/1/167 86/1/182 80/1/29 77/1/41
f 157/1/289 185/1/295 166/1/284 158/1/286
f 550/1/334 556/1/335 555/1/336 551/1/337
f 169/1/331 197/1/338 168/1/332 162/1/330
f 160/1/271 159/1/272 116/1/261 158/1/286
f 181/1/339 190/1/340 175/1/273
f 201/1/54 202/1/341 180/1/325 195/1/324
f 163/1/333 189/1/342 181/1/339 164/1/59
f 164/1/59 181/1/339 175/1/273 170/1/60
f 175/1/273 442/1/93 174/1/92 170/1/60
f 174/1/92 182/1/95 152/1/297 151/1/311
f 188/1/343 189/1/342 163/1/333 168/1/332
f 391/1/344 396/1/345 395/1/346 383/1/21
f 194/1/347 199/1/269 262/1/268 255/1/348
f 194/1/347 200/1/349 195/1/324 187/1/299
f 165/1/296 139/1/278 198/1/350
f 514/1/351 515/1/352 197/1/338 204/1/353
f 169/1/331 203/1/354 204/1/353 197/1/338
f 171/1/320 522/1/240 203/1/354 169/1/331
f 532/1/355 534/1/356 537/1/357 536/1/358
f 163/1/333 164/1/59 155/1/62 154/1/250
f 198/1/350 139/1/278 205/1/359
f 150/1/260 157/1/289 158/1/286 116/1/261
f 189/1/342 196/1/360 190/1/340 181/1/339
f 191/1/270 192/1/57 206/1/267
f 201/1/54 208/1/53 202/1/341
f 211/1/361 516/1/362 514/1/351 204/1/353
f 176/1/318 210/1/363 209/1/319
f 203/1/354 211/1/361 204/1/353
f 208/1/53 213/1/52 214/1/364
f 208/1/53 214/1/364 215/1/315
f 209/1/319 216/1/365 80/1/29
f 488/1/366 489/1/367 481/1/368 487/1/369
f 80/1/29 218/1/370 120/1/236
f 80/1/29 216/1/365 218/1/370
f 218/1/370 121/1/81 120/1/236
f 319/1/371 327/1/165 328/1/164 320/1/372
f 525/1/239 528/1/373 211/1/361 203/1/354
f 202/1/341 219/1/374 210/1/363
f 395/1/346 408/1/375 384/1/22 383/1/21
f 175/1/273 452/1/276 437/1/253 442/1/93
f 514/1/351 516/1/362 505/1/376 513/1/186
f 208/1/53 225/1/377 219/1/374 202/1/341
f 215/1/315 214/1/364 222/1/312
f 25/1/36 519/1/317 171/1/320 97/1/196
f 216/1/365 217/1/378 223/1/379
f 231/1/256 288/1/191 220/1/190 226/1/380
f 529/1/381 533/1/382 508/1/383 512/1/384
f 205/1/359 139/1/278 226/1/380
f 188/1/343 510/1/385 196/1/360 189/1/342
f 444/1/241 461/1/386 460/1/387 455/1/388
f 202/1/341 210/1/363 176/1/318 180/1/325
f 54/1/179 526/1/389 523/1/329 50/1/78
f 64/1/280 538/1/390 537/1/357 534/1/356
f 527/1/391 528/1/373 525/1/239 524/1/238
f 388/1/392 406/1/121 405/1/393 399/1/394
f 226/1/380 139/1/278 231/1/256
f 437/1/253 454/1/395 429/1/396 431/1/254
f 85/1/175 101/1/195 96/1/198 88/1/176
f 513/1/186 505/1/376 504/1/397 502/1/187
f 523/1/329 526/1/389 527/1/391 524/1/238
f 222/1/312 234/1/398 235/1/399
f 222/1/312 235/1/399 236/1/313
f 505/1/376 506/1/88 499/1/87 504/1/397
f 234/1/398 240/1/400 235/1/399
f 532/1/355 533/1/382 529/1/381 531/1/401
f 236/1/313 235/1/399 241/1/322
f 338/1/402 339/1/111 332/1/403 331/1/404
f 44/1/153 63/1/91 59/1/120 55/1/133
f 245/1/405 251/1/406 234/1/398 222/1/312
f 284/1/407 285/1/408 270/1/409 280/1/168
f 214/1/364 245/1/405 222/1/312
f 229/1/309 246/1/308 133/1/116 125/1/82
f 530/1/410 534/1/356 532/1/355 531/1/401
f 241/1/322 252/1/411 247/1/412 242/1/323
f 574/1/306 577/1/413 573/1/414 571/1/415
f 482/1/216 503/1/188 502/1/187 497/1/416
f 234/1/398 251/1/406 240/1/400
f 500/1/417 507/1/418 508/1/383 501/1/419
f 245/1/405 244/1/420 251/1/406
f 470/1/421 503/1/188 482/1/216 479/1/218
f 470/1/421 510/1/385 509/1/185 503/1/188
f 482/1/216 497/1/416 480/1/422 483/1/217
f 480/1/422 497/1/416 490/1/423 486/1/424
f 251/1/406 244/1/420 256/1/425
f 251/1/406 256/1/425 240/1/400
f 537/1/357 542/1/426 539/1/427 536/1/358
f 490/1/423 498/1/428 485/1/429 486/1/424
f 529/1/381 512/1/384 211/1/361 528/1/373
f 384/1/22 408/1/375 409/1/430 385/1/137
f 488/1/366 496/1/431 493/1/432 489/1/367
f 495/1/89 496/1/431 488/1/366 494/1/90
f 258/1/433 257/1/434 265/1/435
f 361/1/144 369/1/147 349/1/436 353/1/203
f 466/1/437 486/1/424 485/1/429 484/1/438
f 485/1/429 498/1/428 492/1/439 491/1/440
f 492/1/439 498/1/428 499/1/87 494/1/90
f 492/1/439 494/1/90 488/1/366 487/1/369
f 190/1/340 196/1/360 465/1/441 459/1/274
f 112/1/229 119/1/84 100/1/33 106/1/30
f 265/1/435 257/1/434 271/1/442
f 265/1/435 271/1/442 272/1/443
f 265/1/435 272/1/443 273/1/444
f 206/1/267 192/1/57 274/1/228
f 470/1/421 479/1/218 471/1/445 465/1/441
f 465/1/441 471/1/445 458/1/275 459/1/274
f 266/1/114 291/1/446 260/1/447 259/1/74
f 152/1/297 148/1/294 147/1/302 151/1/311
f 558/1/448 562/1/449 3/1/3 554/1/450
f 273/1/444 272/1/443 278/1/451
f 241/1/322 235/1/399 279/1/452
f 279/1/452 235/1/399 277/1/453
f 278/1/451 272/1/443 283/1/454
f 283/1/454 272/1/443 240/1/400
f 473/1/455 487/1/369 481/1/368 474/1/456
f 220/1/190 281/1/193 192/1/57 212/1/56
f 453/1/457 454/1/395 437/1/253 452/1/276
f 374/1/67 375/1/458 307/1/19 368/1/18
f 272/1/443 289/1/459 240/1/400
f 235/1/399 289/1/459 277/1/453
f 235/1/399 240/1/400 289/1/459
f 473/1/455 474/1/456 435/1/248 468/1/247
f 485/1/429 491/1/440 467/1/460 484/1/438
f 467/1/460 491/1/440 473/1/455 468/1/247
f 370/1/24 377/1/23 357/1/461 364/1/462
f 429/1/396 454/1/395 422/1/463 423/1/464
f 231/1/256 139/1/278 295/1/257
f 387/1/465 378/1/466 381/1/467 376/1/146
f 284/1/407 296/1/468 290/1/469 285/1/408
f 509/1/185 515/1/352 514/1/351 513/1/186
f 365/1/470 366/1/471 344/1/108 359/1/472
f 422/1/463 464/1/473 416/1/474 415/1/475
f 478/1/215 483/1/217 456/1/265 475/1/212
f 446/1/476 449/1/266 448/1/477 443/1/244
f 402/1/478 423/1/464 422/1/463 415/1/475
f 295/1/257 139/1/278 303/1/479
f 326/1/480 282/1/135 275/1/226 318/1/481
f 436/1/482 462/1/483 426/1/246 428/1/484
f 460/1/387 462/1/483 436/1/482 455/1/388
f 415/1/475 416/1/474 408/1/375 395/1/346
f 416/1/474 457/1/485 409/1/430 408/1/375
f 303/1/479 139/1/278 312/1/486
f 473/1/455 491/1/440 492/1/439 487/1/369
f 527/1/391 531/1/401 529/1/381 528/1/373
f 349/1/436 350/1/487 330/1/488 341/1/489
f 97/1/196 128/1/316 90/1/96 89/1/99
f 44/1/153 55/1/133 31/1/220 22/1/154
f 410/1/490 441/1/491 403/1/492 404/1/493
f 463/1/494 469/1/213 451/1/495 457/1/485
f 458/1/275 471/1/445 477/1/214 476/1/496
f 477/1/214 469/1/213 463/1/494 476/1/496
f 312/1/486 139/1/278 319/1/371
f 206/1/267 274/1/228 269/1/227 262/1/268
f 407/1/497 414/1/498 412/1/499 413/1/500
f 260/1/447 286/1/501 267/1/68 261/1/71
f 403/1/492 441/1/491 440/1/243 434/1/502
f 471/1/445 479/1/218 478/1/215 477/1/214
f 188/1/343 515/1/352 509/1/185 510/1/385
f 412/1/499 428/1/484 419/1/503 413/1/500
f 319/1/371 139/1/278 327/1/165
f 370/1/24 390/1/504 391/1/344 383/1/21
f 314/1/505 382/1/506 321/1/507 315/1/508
f 409/1/430 417/1/509 411/1/138 385/1/137
f 196/1/360 510/1/385 470/1/421 465/1/441
f 28/1/37 78/1/40 29/1/39 21/1/38
f 357/1/461 377/1/23 363/1/140 356/1/231
f 327/1/165 139/1/278 334/1/162
f 371/1/510 390/1/504 370/1/24 364/1/462
f 480/1/422 486/1/424 466/1/437 472/1/511
f 364/1/462 357/1/461 337/1/512 343/1/513
f 467/1/460 468/1/247 426/1/246 462/1/483
f 417/1/509 447/1/514 410/1/490 411/1/138
f 102/1/515 109/1/262 95/1/199 96/1/198
f 384/1/22 385/1/137 363/1/140 377/1/23
f 101/1/195 107/1/211 102/1/515 96/1/198
f 343/1/513 372/1/516 371/1/510 364/1/462
f 228/1/517 255/1/348 253/1/134 248/1/136
f 446/1/476 447/1/514 450/1/264 449/1/266
f 409/1/430 457/1/485 451/1/495 417/1/509
f 302/1/518 325/1/519 318/1/481 311/1/520
f 378/1/466 379/1/123 374/1/67 373/1/66
f 362/1/139 404/1/493 354/1/202 355/1/201
f 336/1/521 356/1/231 355/1/201 348/1/200
f 456/1/265 472/1/511 448/1/477 449/1/266
f 403/1/492 434/1/502 397/1/522 398/1/523
f 448/1/477 472/1/511 466/1/437 461/1/386
f 348/1/200 353/1/203 349/1/436 341/1/489
f 336/1/521 348/1/200 341/1/489 333/1/524
f 329/1/525 337/1/512 336/1/521 333/1/524
f 417/1/509 451/1/495 450/1/264 447/1/514
f 354/1/202 404/1/493 403/1/492 398/1/523
f 490/1/423 504/1/397 499/1/87 498/1/428
f 354/1/202 398/1/523 361/1/144 353/1/203
f 352/1/112 351/1/115 346/1/526 347/1/109
f 333/1/524 341/1/489 330/1/488 324/1/527
f 329/1/525 333/1/524 324/1/527 322/1/528
f 107/1/211 113/1/157 108/1/160 102/1/515
f 446/1/476 443/1/244 440/1/243 441/1/491
f 484/1/438 467/1/460 462/1/483 460/1/387
f 108/1/160 115/1/259 109/1/262 102/1/515
f 448/1/477 461/1/386 444/1/241 443/1/244
f 400/1/529 401/1/530 394/1/531 399/1/394
f 328/1/164 335/1/163 329/1/525 322/1/528
f 27/1/230 26/1/49 19/1/161 24/1/170
f 79/1/32 84/1/31 75/1/156 76/1/42
f 372/1/516 139/1/278 371/1/510
f 334/1/162 139/1/278 372/1/516
f 438/1/532 455/1/388 436/1/482 439/1/533
f 444/1/241 455/1/388 438/1/532 445/1/242
f 336/1/521 337/1/512 357/1/461 356/1/231
f 361/1/144 398/1/523 397/1/522 393/1/145
f 440/1/243 445/1/242 432/1/534 434/1/502
f 445/1/242 438/1/532 433/1/535 432/1/534
f 318/1/481 275/1/226 276/1/225 311/1/520
f 420/1/536 439/1/533 412/1/499 414/1/498
f 320/1/372 328/1/164 322/1/528 316/1/537
f 324/1/527 323/1/538 316/1/537 322/1/528
f 330/1/488 331/1/404 323/1/538 324/1/527
f 23/1/539 24/1/170 18/1/155 22/1/154
f 424/1/206 433/1/535 420/1/536 421/1/540
f 397/1/522 434/1/502 432/1/534 425/1/205
f 70/1/48 105/1/47 104/1/100 71/1/103
f 400/1/529 421/1/540 420/1/536 414/1/498
f 390/1/504 371/1/510 139/1/278
f 69/1/63 45/1/43 75/1/156 73/1/25
f 390/1/504 139/1/278 391/1/344
f 397/1/522 425/1/205 392/1/204 393/1/145
f 59/1/120 66/1/86 65/1/118 60/1/132
f 260/1/447 261/1/71 243/1/75 259/1/74
f 319/1/371 320/1/372 313/1/541 312/1/486
f 313/1/541 320/1/372 316/1/537 308/1/542
f 391/1/344 139/1/278 396/1/345
f 110/1/72 123/1/106 104/1/100 105/1/47
f 83/1/98 91/1/97 85/1/175 82/1/166
f 388/1/392 399/1/394 394/1/531 389/1/543
f 396/1/345 139/1/278 402/1/478
f 313/1/541 304/1/544 303/1/479 312/1/486
f 381/1/467 358/1/545 369/1/147 376/1/146
f 65/1/118 68/1/119 62/1/129 60/1/132
f 380/1/122 382/1/506 314/1/505 375/1/458
f 405/1/393 421/1/540 400/1/529 399/1/394
f 424/1/206 421/1/540 405/1/393 418/1/207
f 388/1/392 389/1/543 321/1/507 382/1/506
f 316/1/537 323/1/538 310/1/546 308/1/542
f 330/1/488 350/1/487 338/1/402 331/1/404
f 358/1/545 359/1/472 338/1/402 350/1/487
f 331/1/404 332/1/403 310/1/546 323/1/538
f 362/1/139 411/1/138 410/1/490 404/1/493
f 303/1/479 304/1/544 294/1/258 295/1/257
f 207/1/51 227/1/547 221/1/142 213/1/52
f 104/1/100 123/1/106 124/1/548 117/1/101
f 314/1/505 315/1/508 305/1/549 306/1/550
f 376/1/146 393/1/145 392/1/204 387/1/465
f 380/1/122 406/1/121 388/1/392 382/1/506
f 334/1/162 372/1/516 343/1/513 335/1/163
f 232/1/174 237/1/143 221/1/142 227/1/547
f 402/1/478 139/1/278 423/1/464
f 275/1/226 282/1/135 253/1/134 269/1/227
f 392/1/204 418/1/207 386/1/124 387/1/465
f 439/1/533 436/1/482 428/1/484 412/1/499
f 297/1/551 306/1/550 305/1/549 298/1/552
f 423/1/464 139/1/278 429/1/396
f 304/1/544 313/1/541 308/1/542 301/1/553
f 139/1/278 182/1/95 430/1/94
f 205/1/359 212/1/56 193/1/55 198/1/350
f 139/1/278 431/1/254 429/1/396
f 139/1/278 430/1/94 431/1/254
f 387/1/465 386/1/124 379/1/123 378/1/466
f 200/1/349 207/1/51 201/1/54 195/1/324
f 297/1/551 298/1/552 290/1/469 296/1/468
f 307/1/19 375/1/458 314/1/505 306/1/550
f 458/1/275 476/1/496 453/1/457 452/1/276
f 205/1/359 226/1/380 220/1/190 212/1/56
f 466/1/437 484/1/438 460/1/387 461/1/386
f 374/1/67 379/1/123 380/1/122 375/1/458
f 84/1/31 93/1/26 73/1/25 75/1/156
f 419/1/503 428/1/484 426/1/246 427/1/249
f 292/1/554 286/1/501 260/1/447 291/1/446
f 358/1/545 381/1/467 365/1/470 359/1/472
f 100/1/33 119/1/84 118/1/83 111/1/34
f 365/1/470 373/1/66 367/1/65 366/1/471
f 416/1/474 464/1/473 463/1/494 457/1/485
f 310/1/546 309/1/555 301/1/553 308/1/542
f 338/1/402 359/1/472 344/1/108 339/1/111
f 453/1/457 476/1/496 463/1/494 464/1/473
f 344/1/108 366/1/471 352/1/112 347/1/109
f 230/1/307 233/1/310 219/1/374 225/1/377
f 332/1/403 339/1/111 340/1/110 317/1/556
f 310/1/546 332/1/403 317/1/556 309/1/555
f 422/1/463 454/1/395 453/1/457 464/1/473
f 340/1/110 347/1/109 346/1/526 345/1/557
f 366/1/471 367/1/65 360/1/113 352/1/112
f 192/1/57 281/1/193 276/1/225 274/1/228
f 287/1/192 311/1/520 276/1/225 281/1/193
f 175/1/273 190/1/340 459/1/274
f 367/1/65 368/1/18 299/1/17 360/1/113
f 317/1/556 325/1/519 302/1/518 309/1/555
f 301/1/553 309/1/555 302/1/518 293/1/558
f 98/1/208 99/1/194 91/1/97 90/1/96
f 302/1/518 311/1/520 287/1/192 293/1/558
f 288/1/191 294/1/258 293/1/558 287/1/192
f 349/1/436 369/1/147 358/1/545 350/1/487
f 167/1/197 87/1/181 95/1/199 159/1/272
f 335/1/163 343/1/513 337/1/512 329/1/525
f 266/1/114 360/1/113 299/1/17 291/1/446
f 292/1/554 300/1/20 297/1/551 296/1/468
f 299/1/17 300/1/20 292/1/554 291/1/446
f 340/1/110 345/1/557 325/1/519 317/1/556
f 262/1/268 269/1/227 253/1/134 255/1/348
f 41/1/219 42/1/183 33/1/235 23/1/539
f 515/1/352 188/1/343 168/1/332 197/1/338
f 177/1/298 179/1/300 173/1/222 172/1/221
f 502/1/187 504/1/397 490/1/423 497/1/416
f 31/1/220 41/1/219 23/1/539 22/1/154
f 325/1/519 345/1/557 326/1/480 318/1/481
f 432/1/534 433/1/535 424/1/206 425/1/205
f 346/1/526 342/1/126 326/1/480 345/1/557
f 254/1/73 351/1/115 266/1/114 259/1/74
f 346/1/526 351/1/115 254/1/73 342/1/126
f 149/1/287 150/1/260 115/1/259 145/1/263
f 326/1/480 342/1/126 249/1/125 282/1/135
f 386/1/124 418/1/207 405/1/393 406/1/121
f 307/1/19 306/1/550 297/1/551 300/1/20
f 469/1/213 475/1/212 450/1/264 451/1/495
f 410/1/490 447/1/514 446/1/476 441/1/491
f 263/1/169 280/1/168 270/1/409 264/1/559
f 483/1/217 480/1/422 472/1/511 456/1/265
f 127/1/224 140/1/279 134/1/277 114/1/223
f 267/1/68 286/1/501 284/1/407 280/1/168
f 165/1/296 198/1/350 193/1/55 185/1/295
f 292/1/554 296/1/468 284/1/407 286/1/501
f 19/1/161 26/1/49 25/1/36 20/1/35
f 184/1/282 186/1/58 192/1/57 191/1/270
f 365/1/470 381/1/467 378/1/466 373/1/66
f 243/1/75 261/1/71 238/1/70 237/1/143
f 238/1/70 268/1/69 244/1/420 239/1/141
f 496/1/431 495/1/89 500/1/417
f 493/1/432 496/1/431 500/1/417
f 493/1/432 500/1/417 501/1/419
f 438/1/532 439/1/533 420/1/536 433/1/535
f 232/1/174 250/1/76 243/1/75 237/1/143
f 402/1/478 415/1/475 395/1/346 396/1/345
f 28/1/37 83/1/98 82/1/166 78/1/40
f 500/1/417 495/1/89 507/1/418
f 43/1/79 50/1/78 523/1/329 520/1/172
f 38/1/64 63/1/91 44/1/153 36/1/152
f 228/1/517 248/1/136 232/1/174 227/1/547
f 194/1/347 255/1/348 228/1/517 200/1/349
f 507/1/418 511/1/560 508/1/383
f 244/1/420 245/1/405 214/1/364 239/1/141
f 221/1/142 239/1/141 214/1/364 213/1/52
f 508/1/383 511/1/560 512/1/384
f 511/1/560 211/1/361 512/1/384
f 530/1/410 526/1/389 54/1/179 58/1/178
f 130/1/105 132/1/128 124/1/548 123/1/106
f 228/1/517 227/1/547 207/1/51 200/1/349
f 400/1/529 414/1/498 407/1/497 401/1/530
f 511/1/560 516/1/362 211/1/361
f 25/1/36 51/1/107 517/1/171
f 51/1/107 43/1/79 517/1/171
f 25/1/36 517/1/171 518/1/173
f 25/1/36 518/1/173 519/1/317
f 216/1/365 223/1/379 121/1/81 218/1/370
f 518/1/173 520/1/172 521/1/237
f 209/1/319 210/1/363 217/1/378 216/1/365
f 519/1/317 522/1/240 171/1/320
f 223/1/379 229/1/309 125/1/82 121/1/81
f 217/1/378 233/1/310 229/1/309 223/1/379
f 263/1/169 264/1/559 240/1/400 256/1/425
f 219/1/374 233/1/310 217/1/378 210/1/363
f 522/1/240 525/1/239 203/1/354
f 268/1/69 263/1/169 256/1/425 244/1/420
f 64/1/280 534/1/356 530/1/410 58/1/178
f 294/1/258 304/1/544 301/1/553 293/1/558
f 224/1/314 225/1/377 208/1/53 215/1/315
f 116/1/261 159/1/272 95/1/199 109/1/262
f 224/1/314 242/1/323 230/1/307 225/1/377
f 247/1/412 252/1/411 137/1/127 136/1/117
f 230/1/307 242/1/323 247/1/412 246/1/308
f 246/1/308 247/1/412 136/1/117 133/1/116
f 530/1/410 531/1/401 527/1/391 526/1/389
f 135/1/251 155/1/62 146/1/61 142/1/301
f 532/1/355 535/1/561 533/1/382
f 535/1/561 493/1/432 501/1/419
f 508/1/383 535/1/561 501/1/419
f 533/1/382 535/1/561 508/1/383
f 532/1/355 536/1/358 535/1/561
f 241/1/322 279/1/452 257/1/434 252/1/411
f 257/1/434 258/1/433 137/1/127 252/1/411
f 257/1/434 279/1/452 277/1/453 271/1/442
f 535/1/561 536/1/358 539/1/427
f 535/1/561 540/1/562 493/1/432
f 535/1/561 539/1/427 540/1/562
f 537/1/357 538/1/390 541/1/563
f 537/1/357 541/1/563 542/1/426
f 541/1/563 543/1/564 542/1/426
f 493/1/432 540/1/562 543/1/564
f 277/1/453 289/1/459 272/1/443 271/1/442
f 493/1/432 543/1/564 544/1/565
f 541/1/563 545/1/566 543/1/564
f 543/1/564 546/1/567 544/1/565
f 543/1/564 545/1/566 546/1/567
f 173/1/222 179/1/300 180/1/325 176/1/318
f 547/1/568 550/1/334 551/1/337
f 548/1/569 552/1/570 549/1/571
f 549/1/571 552/1/570 553/1/572
f 567/1/573 568/1/574 563/1/575 566/1/576
f 580/1/293 581/1/577 579/1/578 575/1/303
f 13/1/13 590/1/579 589/1/580 587/1/326
f 554/1/450 557/1/581 558/1/448
f 555/1/336 556/1/335 559/1/582
f 183/1/281 199/1/269 194/1/347 187/1/299
f 3/1/3 562/1/449 1/1/1
f 505/1/376 516/1/362 511/1/560 506/1/88
f 560/1/583 565/1/584 561/1/585
f 571/1/415 572/1/586 570/1/587 566/1/576
f 563/1/575 568/1/574 564/1/588
f 566/1/576 569/1/589 567/1/573
f 566/1/576 570/1/587 569/1/589
f 539/1/427 542/1/426 543/1/564 540/1/562
f 571/1/415 573/1/414 572/1/586
f 564/1/588 565/1/584 560/1/583 563/1/575
f 561/1/585 559/1/582 556/1/335 560/1/583
f 574/1/306 576/1/305 577/1/413
f 575/1/303 579/1/578 578/1/304
f 29/1/39 37/1/44 30/1/45 21/1/38
f 580/1/293 582/1/292 581/1/577
f 549/1/571 550/1/334 547/1/568 548/1/569
f 583/1/290 584/1/590 585/1/291
f 583/1/290 586/1/328 584/1/590
f 553/1/572 557/1/581 554/1/450 549/1/571
f 506/1/88 511/1/560 507/1/418 495/1/89
f 587/1/326 589/1/580 588/1/327
f 13/1/13 16/1/16 590/1/579
f 23/1/539 33/1/235 27/1/230 24/1/170
