# Blender 4.3.2
# www.blender.org
o hair.004
v 6.843642 0.589075 -0.017270
v 6.840965 0.593653 -0.018436
v 6.846265 0.588652 -0.021430
v 6.839726 0.591247 -0.013409
v 6.841937 0.589572 -0.013061
v 6.838380 0.591905 -0.008365
v 6.840715 0.590156 -0.008852
v 6.837803 0.593879 -0.013509
v 6.839796 0.591067 -0.004327
v 6.836427 0.594134 -0.007844
v 6.834809 0.596731 -0.007242
v 6.836476 0.596702 -0.013437
v 6.837554 0.592335 -0.003883
v 6.835787 0.594411 -0.002540
v 6.837453 0.592849 -0.000167
v 6.838995 0.592533 0.000832
v 6.834476 0.596989 -0.000644
v 6.833683 0.600301 0.001491
v 6.833711 0.600046 -0.006509
v 6.835410 0.599852 -0.013389
v 6.838771 0.599312 -0.019244
v 6.835415 0.596988 0.005075
v 6.836439 0.594501 0.002266
v 6.838121 0.594518 0.006094
v 6.832668 0.604268 -0.005707
v 6.834833 0.604107 -0.013416
v 6.838193 0.603920 -0.019782
v 6.843384 0.598739 -0.024372
v 6.844645 0.593470 -0.023335
v 6.837356 0.597087 0.010884
v 6.837031 0.600454 0.014867
v 6.834641 0.600299 0.007910
v 6.834403 0.609349 -0.013440
v 6.849044 0.593257 -0.027353
v 6.850241 0.588289 -0.025492
v 6.834371 0.604445 0.010390
v 6.837167 0.604583 0.017908
v 6.833208 0.604458 0.003250
v 6.848014 0.598471 -0.028607
v 6.853563 0.598436 -0.032069
v 6.854222 0.593129 -0.030734
v 6.855055 0.588022 -0.028720
v 6.837503 0.608699 0.019941
v 6.834503 0.609139 0.012602
v 6.832765 0.609697 0.005857
v 6.832265 0.609368 -0.005118
v 6.847840 0.603755 -0.029387
v 6.859779 0.593063 -0.032491
v 6.860193 0.587882 -0.030378
v 6.842958 0.603821 -0.024863
v 6.834406 0.614739 0.014861
v 6.832927 0.615235 0.008076
v 6.832447 0.615160 0.000860
v 6.832801 0.615132 -0.005034
v 6.865493 0.587844 -0.030815
v 6.838066 0.609296 -0.019950
v 6.842757 0.609249 -0.024927
v 6.833812 0.621762 0.009080
v 6.833333 0.621286 0.002016
v 6.833587 0.621350 -0.005199
v 6.835705 0.621285 -0.012948
v 6.834930 0.615126 -0.013190
v 6.865493 0.593045 -0.032958
v 6.871208 0.593063 -0.032491
v 6.870793 0.587882 -0.030378
v 6.838262 0.615104 -0.019789
v 6.834895 0.627965 -0.005413
v 6.859515 0.598420 -0.033876
v 6.865493 0.598417 -0.034360
v 6.875931 0.588022 -0.028720
v 6.871472 0.598420 -0.033876
v 6.877424 0.598436 -0.032069
v 6.876765 0.593129 -0.030734
v 6.853390 0.603753 -0.032921
v 6.859354 0.603753 -0.034766
v 6.865493 0.603754 -0.035262
v 6.871633 0.603753 -0.034766
v 6.881943 0.593257 -0.027353
v 6.880745 0.588289 -0.025492
v 6.847663 0.609231 -0.029693
v 6.853269 0.609230 -0.033264
v 6.859292 0.609230 -0.035126
v 6.865493 0.609230 -0.035627
v 6.877596 0.603753 -0.032921
v 6.871695 0.609230 -0.035126
v 6.877717 0.609230 -0.033264
v 6.884722 0.588652 -0.021430
v 6.847762 0.615013 -0.029521
v 6.853337 0.615014 -0.033072
v 6.859326 0.615014 -0.034924
v 6.842882 0.615019 -0.024782
v 6.883146 0.603755 -0.029387
v 6.882972 0.598471 -0.028607
v 6.871660 0.615014 -0.034924
v 6.853539 0.621040 -0.032411
v 6.838796 0.621219 -0.019390
v 6.843325 0.621044 -0.024281
v 6.887602 0.598739 -0.024372
v 6.886342 0.593470 -0.023335
v 6.865493 0.615014 -0.035422
v 6.839766 0.627542 -0.018749
v 6.848607 0.627225 -0.027948
v 6.848091 0.621032 -0.028922
v 6.844078 0.627239 -0.023463
v 6.836975 0.627716 -0.012586
v 6.890017 0.593640 -0.018433
v 6.887345 0.589075 -0.017270
v 6.865493 0.621029 -0.034741
v 6.845016 0.632764 -0.022553
v 6.838676 0.633429 -0.012168
v 6.834400 0.627973 0.002472
v 6.836054 0.634303 0.001831
v 6.836741 0.633896 -0.005573
v 6.891260 0.591247 -0.013409
v 6.889050 0.589572 -0.013061
v 6.834923 0.628901 0.007720
v 6.838351 0.638247 -0.005753
v 6.837667 0.639009 0.001243
v 6.838444 0.640095 0.008751
v 6.837004 0.635951 0.010440
v 6.893183 0.593879 -0.013509
v 6.892607 0.591905 -0.008365
v 6.890271 0.590156 -0.008852
v 6.834995 0.622964 0.015605
v 6.835512 0.630004 0.012945
v 6.839224 0.642606 0.000606
v 6.840477 0.642083 0.015439
v 6.840003 0.643910 0.007019
v 6.892216 0.599312 -0.019244
v 6.894510 0.596702 -0.013437
v 6.891191 0.591067 -0.004327
v 6.835620 0.614662 0.018180
v 6.834947 0.618593 0.017106
v 6.837231 0.631768 0.019129
v 6.841841 0.645630 0.011592
v 6.842489 0.647444 0.005733
v 6.896177 0.596730 -0.007243
v 6.895577 0.599852 -0.013389
v 6.836285 0.615269 0.020245
v 6.837743 0.612007 0.020994
v 6.835563 0.619465 0.020078
v 6.837145 0.626785 0.022261
v 6.839864 0.638522 0.019330
v 6.894560 0.594133 -0.007844
v 6.838047 0.614911 0.021485
v 6.836821 0.621014 0.022221
v 6.837597 0.617247 0.022252
v 6.842772 0.640986 0.023163
v 6.839679 0.634808 0.023141
v 6.843969 0.647316 0.015015
v 6.843108 0.644256 0.019038
v 6.895200 0.594410 -0.002540
v 6.893432 0.592335 -0.003883
v 6.840362 0.619485 0.026525
v 6.843098 0.616620 0.025845
v 6.843071 0.647517 0.010674
v 6.846154 0.646352 0.022402
v 6.893536 0.592847 -0.000167
v 6.891991 0.592533 0.000832
v 6.847758 0.618427 0.029743
v 6.838447 0.622932 0.024824
v 6.841924 0.626456 0.029309
v 6.840122 0.630399 0.026517
v 6.845854 0.650894 0.008839
v 6.894543 0.594505 0.002265
v 6.892865 0.594518 0.006094
v 6.843727 0.633799 0.030108
v 6.843017 0.637506 0.026955
v 6.846747 0.649115 0.018074
v 6.848365 0.652337 0.013723
v 6.895572 0.596990 0.005074
v 6.893631 0.597087 0.010884
v 6.896539 0.596979 -0.000970
v 6.844492 0.622146 0.030489
v 6.846873 0.639878 0.029659
v 6.846370 0.643172 0.026241
v 6.850820 0.650829 0.020881
v 6.893956 0.600454 0.014867
v 6.897349 0.600293 0.000729
v 6.896347 0.600301 0.007908
v 6.897275 0.600046 -0.006511
v 6.848170 0.624827 0.033365
v 6.851646 0.620551 0.032529
v 6.845339 0.629532 0.032486
v 6.850605 0.645224 0.028561
v 6.896616 0.604444 0.010388
v 6.893819 0.604582 0.017908
v 6.898317 0.604267 -0.005711
v 6.896153 0.604107 -0.013416
v 6.892793 0.603920 -0.019782
v 6.855165 0.623025 0.034449
v 6.848819 0.632438 0.034765
v 6.847504 0.636497 0.032444
v 6.850517 0.648504 0.024586
v 6.893483 0.608699 0.019941
v 6.896584 0.609349 -0.013441
v 6.855434 0.630648 0.036910
v 6.851707 0.627619 0.035409
v 6.858716 0.625882 0.035755
v 6.851430 0.639309 0.034302
v 6.850960 0.642311 0.031686
v 6.855331 0.649749 0.026215
v 6.888028 0.603821 -0.024863
v 6.862197 0.629033 0.036523
v 6.855561 0.644431 0.032807
v 6.855365 0.646942 0.030083
v 6.888230 0.609249 -0.024927
v 6.892920 0.609296 -0.019950
v 6.883324 0.609231 -0.029693
v 6.852656 0.635487 0.036468
v 6.860401 0.648755 0.030427
v 6.892725 0.615104 -0.019789
v 6.877650 0.615014 -0.033072
v 6.883225 0.615013 -0.029521
v 6.859383 0.633792 0.037590
v 6.857085 0.638358 0.036913
v 6.855998 0.641756 0.035007
v 6.871564 0.621035 -0.034243
v 6.877447 0.621040 -0.032411
v 6.863528 0.636865 0.037519
v 6.861829 0.640919 0.036547
v 6.860949 0.643789 0.034813
v 6.865502 0.632390 0.036827
v 6.860545 0.646141 0.033090
v 6.871440 0.627232 -0.033167
v 6.865493 0.627210 -0.033680
v 6.868823 0.636256 0.036140
v 6.867320 0.639499 0.035933
v 6.866481 0.642752 0.034895
v 6.865670 0.645082 0.033891
v 6.865692 0.646962 0.032483
v 6.865670 0.649334 0.030262
v 6.865630 0.651118 0.027716
v 6.860388 0.650831 0.027454
v 6.865493 0.632663 -0.032436
v 6.859546 0.627232 -0.033167
v 6.872351 0.640936 0.033930
v 6.871728 0.642812 0.033794
v 6.871304 0.644538 0.033221
v 6.871036 0.645805 0.032609
v 6.871075 0.649310 0.029473
v 6.860524 0.652871 0.024380
v 6.855628 0.652144 0.022955
v 6.859423 0.621035 -0.034243
v 6.876065 0.646097 0.031162
v 6.870968 0.647125 0.031823
v 6.856089 0.654490 0.018105
v 6.851812 0.653476 0.016401
v 6.860730 0.655239 0.019591
v 6.853078 0.654341 0.014301
v 6.857759 0.656338 0.012563
v 6.859958 0.656404 0.014133
v 6.851314 0.654128 0.010786
v 6.853824 0.627252 -0.031346
v 6.859680 0.632705 -0.031906
v 6.854147 0.632750 -0.030103
v 6.855935 0.656198 0.010502
v 6.854408 0.655983 0.007845
v 6.849987 0.653743 0.006827
v 6.845676 0.650419 0.004279
v 6.849230 0.632724 -0.026830
v 6.859807 0.636547 -0.030666
v 6.854471 0.636631 -0.028903
v 6.849886 0.636665 -0.025797
v 6.858659 0.657351 0.006875
v 6.857425 0.657211 0.005059
v 6.845266 0.649867 -0.000647
v 6.842082 0.646574 -0.000105
v 6.854854 0.639639 -0.027609
v 6.846016 0.636782 -0.021777
v 6.847148 0.639990 -0.020971
v 6.850641 0.639767 -0.024704
v 6.860163 0.657426 0.008312
v 6.842644 0.645790 -0.005886
v 6.839925 0.641753 -0.005914
v 6.842775 0.637108 -0.017241
v 6.851921 0.643551 -0.022910
v 6.841042 0.633175 -0.018034
v 6.862606 0.656485 0.015342
v 6.861849 0.657465 0.009379
v 6.863015 0.658081 0.002884
v 6.841700 0.640987 -0.011804
v 6.840201 0.637605 -0.011968
v 6.863641 0.657497 0.010090
v 6.865494 0.656530 0.015858
v 6.865572 0.655443 0.020048
v 6.864652 0.658128 0.003698
v 6.863811 0.658115 0.003486
v 6.862219 0.658046 0.002281
v 6.861696 0.657983 0.001368
v 6.865493 0.657511 0.010357
v 6.865493 0.658141 0.003911
v 6.865493 0.658252 -0.001796
v 6.865603 0.653036 0.024772
v 6.861174 0.657919 0.000454
v 6.856519 0.657035 0.002983
v 6.844141 0.640398 -0.016750
v 6.866334 0.658128 0.003698
v 6.870875 0.652786 0.024128
v 6.871094 0.651021 0.027109
v 6.860998 0.657843 -0.000628
v 6.853271 0.655715 0.004853
v 6.846292 0.644395 -0.015725
v 6.848946 0.643897 -0.019561
v 6.870539 0.655122 0.019443
v 6.868381 0.656484 0.015342
v 6.876429 0.648567 0.028213
v 6.855992 0.656852 0.000760
v 6.852600 0.655447 0.001788
v 6.849166 0.653379 0.002899
v 6.850971 0.647455 -0.017781
v 6.867345 0.657497 0.010090
v 6.855836 0.656653 -0.001552
v 6.852413 0.655162 -0.001357
v 6.848928 0.652997 -0.001086
v 6.853487 0.647048 -0.020767
v 6.848730 0.647981 -0.014350
v 6.853424 0.651115 -0.015414
v 6.860822 0.657766 -0.001710
v 6.845723 0.649237 -0.005648
v 6.856663 0.646745 -0.023098
v 6.855597 0.643311 -0.025523
v 6.846920 0.648588 -0.010341
v 6.851682 0.651589 -0.012494
v 6.869137 0.657465 0.009379
v 6.867176 0.658115 0.003486
v 6.861000 0.657686 -0.002792
v 6.860300 0.643122 -0.027112
v 6.859962 0.639508 -0.029311
v 6.850313 0.652089 -0.009123
v 6.854603 0.654196 -0.010224
v 6.867972 0.658081 0.002884
v 6.856046 0.656432 -0.003889
v 6.865493 0.639440 -0.029860
v 6.865493 0.636492 -0.031209
v 6.871029 0.656410 0.014135
v 6.852733 0.654839 -0.004578
v 6.856596 0.656220 -0.006091
v 6.871179 0.636547 -0.030666
v 6.871306 0.632705 -0.031906
v 6.875311 0.654439 0.017951
v 6.870823 0.657426 0.008312
v 6.861177 0.657606 -0.003873
v 6.849352 0.652563 -0.005207
v 6.876839 0.632750 -0.030103
v 6.877163 0.627252 -0.031346
v 6.873228 0.656338 0.012563
v 6.872328 0.657351 0.006875
v 6.868768 0.658046 0.002281
v 6.861661 0.657545 -0.004761
v 6.882380 0.627225 -0.027948
v 6.882895 0.621032 -0.028922
v 6.869290 0.657983 0.001368
v 6.857460 0.656046 -0.007991
v 6.853487 0.654508 -0.007619
v 6.844128 0.645031 -0.011219
v 6.887662 0.621044 -0.024281
v 6.888105 0.615019 -0.024782
v 6.858573 0.655905 -0.009613
v 6.856043 0.653916 -0.012457
v 6.862145 0.657485 -0.005650
v 6.896057 0.615126 -0.013190
v 6.892191 0.621219 -0.019390
v 6.895282 0.621285 -0.012948
v 6.859874 0.655790 -0.010982
v 6.857777 0.653683 -0.014396
v 6.855516 0.650721 -0.018000
v 6.862816 0.657446 -0.006244
v 6.898185 0.615132 -0.005034
v 6.898721 0.609368 -0.005124
v 6.891221 0.627542 -0.018749
v 6.861455 0.655705 -0.012008
v 6.859926 0.653508 -0.015880
v 6.858195 0.650422 -0.020021
v 6.863486 0.657408 -0.006838
v 6.898541 0.615155 0.000849
v 6.898273 0.609692 0.004879
v 6.897847 0.604448 0.002491
v 6.863389 0.655655 -0.012592
v 6.864490 0.657394 -0.007030
v 6.862586 0.653403 -0.016737
v 6.860838 0.646535 -0.024531
v 6.897657 0.621276 0.001999
v 6.898154 0.615131 0.007407
v 6.896562 0.609131 0.012477
v 6.865493 0.655639 -0.012775
v 6.865493 0.653369 -0.017008
v 6.865493 0.657381 -0.007222
v 6.865493 0.646453 -0.025021
v 6.865493 0.643041 -0.027649
v 6.897399 0.621350 -0.005198
v 6.896903 0.614704 0.014359
v 6.866497 0.657394 -0.007030
v 6.867597 0.655655 -0.012592
v 6.870687 0.643122 -0.027112
v 6.871025 0.639508 -0.029311
v 6.894011 0.627716 -0.012586
v 6.896092 0.627963 -0.005415
v 6.897021 0.618548 0.015816
v 6.895753 0.614645 0.017609
v 6.876133 0.639639 -0.027609
v 6.876515 0.636631 -0.028903
v 6.892310 0.633429 -0.012168
v 6.896589 0.627773 0.002454
v 6.897616 0.620356 0.009469
v 6.896407 0.628023 0.013346
v 6.895327 0.616120 0.019758
v 6.881101 0.636665 -0.025797
v 6.881757 0.632724 -0.026830
v 6.895941 0.631084 0.002131
v 6.893240 0.612021 0.020957
v 6.885970 0.632764 -0.022553
v 6.880345 0.639767 -0.024704
v 6.883839 0.639990 -0.020971
v 6.884970 0.636782 -0.021777
v 6.886909 0.627239 -0.023463
v 6.894245 0.633896 -0.005575
v 6.892931 0.614939 0.021464
v 6.879066 0.643551 -0.022910
v 6.888211 0.637108 -0.017241
v 6.875390 0.643311 -0.025523
v 6.892635 0.638247 -0.005753
v 6.895068 0.634343 0.001820
v 6.893672 0.619876 0.023508
v 6.891442 0.616620 0.024213
v 6.894739 0.618110 0.021326
v 6.870148 0.646535 -0.024531
v 6.874323 0.646745 -0.023098
v 6.889945 0.633175 -0.018034
v 6.895331 0.632011 0.011640
v 6.889884 0.618427 0.026886
v 6.895557 0.620391 0.020524
v 6.869330 0.650237 -0.021223
v 6.890785 0.637605 -0.011968
v 6.886846 0.640398 -0.016750
v 6.889287 0.640987 -0.011804
v 6.890711 0.624146 0.028494
v 6.888193 0.620551 0.029263
v 6.892323 0.621764 0.026038
v 6.896399 0.620106 0.018583
v 6.884694 0.644395 -0.015725
v 6.882041 0.643897 -0.019561
v 6.886422 0.623025 0.031289
v 6.894090 0.624807 0.023765
v 6.895121 0.622587 0.021632
v 6.896043 0.623580 0.018439
v 6.880015 0.647455 -0.017781
v 6.877500 0.647048 -0.020767
v 6.886876 0.630154 0.032284
v 6.884619 0.625882 0.032911
v 6.888859 0.626965 0.030628
v 6.895322 0.626843 0.019653
v 6.893733 0.633423 0.018893
v 6.893593 0.630832 0.022844
v 6.875471 0.650721 -0.018000
v 6.872792 0.650422 -0.020021
v 6.882851 0.629033 0.033995
v 6.890705 0.630770 0.028856
v 6.892552 0.627586 0.026361
v 6.894083 0.635920 0.009926
v 6.893023 0.637589 0.013829
v 6.891708 0.636759 0.021799
v 6.865493 0.650173 -0.021618
v 6.868400 0.653403 -0.016737
v 6.892490 0.640021 0.008581
v 6.893348 0.639021 0.001241
v 6.891283 0.640090 0.017611
v 6.889351 0.644305 0.013496
v 6.861657 0.650237 -0.021223
v 6.891603 0.633996 0.025573
v 6.891763 0.642606 0.000606
v 6.891061 0.641753 -0.005914
v 6.888783 0.642477 0.021093
v 6.889154 0.637309 0.027861
v 6.888554 0.634170 0.030677
v 6.889115 0.639819 0.024701
v 6.886858 0.645031 -0.011219
v 6.888343 0.645790 -0.005886
v 6.869532 0.655705 -0.012008
v 6.871061 0.653508 -0.015880
v 6.885537 0.637785 0.032097
v 6.884847 0.632896 0.033377
v 6.886065 0.642398 0.027016
v 6.884067 0.648588 -0.010341
v 6.867500 0.657408 -0.006838
v 6.873209 0.653683 -0.014396
v 6.883029 0.634367 0.034101
v 6.881178 0.632388 0.034409
v 6.886049 0.640222 0.029416
v 6.882257 0.647981 -0.014350
v 6.885263 0.649237 -0.005648
v 6.880674 0.652089 -0.009123
v 6.868171 0.657446 -0.006244
v 6.877563 0.651115 -0.015414
v 6.879489 0.636249 0.034053
v 6.879304 0.651589 -0.012494
v 6.885720 0.649867 -0.000647
v 6.881634 0.652563 -0.005207
v 6.888905 0.646574 -0.000105
v 6.871112 0.655790 -0.010982
v 6.876384 0.654196 -0.010224
v 6.874944 0.653916 -0.012457
v 6.882473 0.637243 0.033721
v 6.879822 0.641608 0.032867
v 6.877553 0.640921 0.032933
v 6.888303 0.647284 0.005729
v 6.890984 0.643454 0.007410
v 6.872413 0.655905 -0.009613
v 6.881144 0.642625 0.032041
v 6.877500 0.654508 -0.007619
v 6.878254 0.654839 -0.004578
v 6.868842 0.657485 -0.005650
v 6.881811 0.643789 0.030857
v 6.881977 0.644948 0.029286
v 6.873526 0.656046 -0.007991
v 6.874390 0.656220 -0.006091
v 6.882059 0.652997 -0.001086
v 6.869325 0.657545 -0.004761
v 6.881609 0.647157 0.026338
v 6.876541 0.650302 0.025685
v 6.869809 0.657606 -0.003873
v 6.874940 0.656432 -0.003889
v 6.869987 0.657686 -0.002792
v 6.885311 0.650419 0.004279
v 6.881821 0.653379 0.002899
v 6.885754 0.644828 0.023734
v 6.875151 0.656653 -0.001552
v 6.878573 0.655162 -0.001357
v 6.870164 0.657766 -0.001710
v 6.884178 0.651266 0.009011
v 6.886884 0.647948 0.011179
v 6.887498 0.645249 0.017861
v 6.885458 0.646815 0.020750
v 6.876073 0.652205 0.022631
v 6.878387 0.655447 0.001788
v 6.869988 0.657843 -0.000628
v 6.885008 0.649012 0.015762
v 6.881217 0.648834 0.023750
v 6.880700 0.650930 0.020157
v 6.879352 0.653221 0.015930
v 6.877915 0.654360 0.014307
v 6.881000 0.653743 0.006827
v 6.874995 0.656852 0.000760
v 6.869813 0.657919 0.000454
v 6.882781 0.651754 0.013135
v 6.879673 0.654128 0.010786
v 6.875052 0.656199 0.010502
v 6.876578 0.655983 0.007845
v 6.877716 0.655715 0.004853
v 6.874468 0.657035 0.002983
v 6.873561 0.657211 0.005059
v 6.881178 0.632388 0.034409
v 6.879489 0.636249 0.034053
v 6.882851 0.629033 0.033995
v 6.876098 0.648217 0.006848
v 6.876065 0.646097 0.031162
v 6.877553 0.640921 0.032933
v 6.884619 0.625882 0.032911
v 6.872351 0.640936 0.033930
v 6.886422 0.623025 0.031289
v 6.868823 0.636256 0.036140
v 6.888193 0.620551 0.029263
v 6.865502 0.632390 0.036827
v 6.884517 0.631440 0.014399
v 6.889884 0.618427 0.026886
v 6.862197 0.629033 0.036523
v 6.892931 0.614939 0.021464
v 6.885937 0.619686 0.014169
v 6.891442 0.616620 0.024213
v 6.858716 0.625882 0.035755
v 6.886302 0.616428 0.013892
v 6.893240 0.612021 0.020957
v 6.855165 0.623025 0.034449
v 6.847758 0.618427 0.029743
v 6.843098 0.616620 0.025845
v 6.851646 0.620551 0.032529
v 6.838047 0.614911 0.021485
v 6.847563 0.623208 0.017894
v 6.886480 0.613931 0.013147
v 6.893483 0.608699 0.019941
v 6.845188 0.618656 0.014607
v 6.844687 0.616427 0.013894
v 6.837743 0.612007 0.020994
v 6.886560 0.610860 0.011596
v 6.893819 0.604582 0.017908
v 6.837503 0.608699 0.019941
v 6.844506 0.613931 0.013147
v 6.886499 0.607796 0.009289
v 6.893956 0.600454 0.014867
v 6.844427 0.610860 0.011596
v 6.837167 0.604583 0.017908
v 6.886258 0.605318 0.006278
v 6.893631 0.597087 0.010884
v 6.837031 0.600454 0.014867
v 6.844487 0.607796 0.009289
v 6.892865 0.594518 0.006094
v 6.883455 0.604072 0.001154
v 6.844728 0.605318 0.006278
v 6.837356 0.597087 0.010884
v 6.891991 0.592533 0.000832
v 6.891191 0.591067 -0.004327
v 6.890271 0.590156 -0.008852
v 6.889050 0.589572 -0.013061
v 6.887345 0.589075 -0.017270
v 6.865493 0.606346 -0.017964
v 6.838121 0.594518 0.006094
v 6.847532 0.604072 0.001154
v 6.884722 0.588652 -0.021430
v 6.838995 0.592533 0.000832
v 6.839796 0.591067 -0.004327
v 6.843642 0.589075 -0.017270
v 6.840715 0.590156 -0.008852
v 6.841937 0.589572 -0.013061
v 6.880745 0.588289 -0.025492
v 6.846265 0.588652 -0.021430
v 6.875931 0.588022 -0.028720
v 6.850241 0.588289 -0.025492
v 6.870793 0.587882 -0.030378
v 6.855055 0.588022 -0.028720
v 6.865493 0.587844 -0.030815
v 6.860193 0.587882 -0.030378
vn 0.7468 -0.4534 -0.4866
vn 0.7171 -0.5565 -0.4197
vn 0.6902 -0.4620 -0.5569
vn 0.6953 -0.3871 -0.6056
vn -0.9493 -0.1695 0.2649
vn -0.9497 -0.1229 0.2880
vn -0.9881 -0.0750 0.1345
vn -0.9842 -0.1410 0.1072
vn -0.9938 -0.0077 -0.1108
vn -0.9864 -0.1286 -0.1027
vn -0.7051 -0.6644 -0.2477
vn -0.8050 -0.4959 -0.3257
vn -0.7468 -0.4531 -0.4868
vn 0.7949 0.1102 0.5966
vn 0.7088 0.2112 0.6730
vn 0.5393 -0.0210 0.8418
vn 0.6290 -0.0997 0.7710
vn 0.8200 -0.5719 0.0218
vn 0.6283 -0.7771 0.0384
vn 0.6831 -0.7273 -0.0661
vn 0.8295 -0.5441 -0.1260
vn -0.7766 0.4752 0.4136
vn -0.6575 0.5441 0.5212
vn -0.6630 0.6217 0.4171
vn -0.7780 0.5436 0.3150
vn 0.7964 -0.2426 -0.5540
vn 0.8666 -0.3554 -0.3504
vn 0.8051 -0.4958 -0.3257
vn 0.5670 0.3366 0.7518
vn 0.4413 0.0497 0.8960
vn -0.8281 -0.1727 0.5332
vn -0.6871 -0.2964 0.6634
vn -0.8358 -0.0500 0.5468
vn -0.9280 -0.0075 0.3724
vn 0.5743 -0.8013 0.1676
vn 0.3765 -0.8971 0.2311
vn 0.4971 -0.8649 0.0701
vn -0.6285 -0.7769 0.0387
vn -0.5738 -0.8017 0.1672
vn -0.8213 -0.5701 0.0207
vn 0.9179 -0.3736 -0.1338
vn 0.9159 -0.3978 0.0538
vn 0.7027 -0.1577 0.6938
vn 0.5436 -0.1966 0.8160
vn 0.6108 -0.2631 0.7468
vn -0.8666 -0.3554 -0.3504
vn -0.9102 -0.2158 -0.3536
vn -0.7964 -0.2426 -0.5540
vn -0.8404 -0.4958 0.2188
vn -0.9146 -0.4002 0.0584
vn -0.7425 -0.6373 0.2061
vn -0.3776 -0.8967 0.2309
vn -0.6635 -0.6958 0.2748
vn 0.9862 -0.1283 -0.1042
vn 0.9852 -0.1385 0.1011
vn 0.9673 -0.2411 0.0786
vn 0.9668 -0.2250 -0.1210
vn 0.8552 0.0538 0.5155
vn -0.2857 -0.2229 0.9320
vn -0.5023 0.0631 0.8624
vn -0.6068 0.0067 0.7948
vn -0.4007 -0.2791 0.8727
vn -0.0833 0.5333 0.8418
vn -0.2913 0.4947 0.8188
vn -0.1866 0.2638 0.9464
vn 0.0055 0.3644 0.9312
vn -0.9548 0.2964 -0.0238
vn -0.9315 0.3613 -0.0429
vn -0.9088 0.3581 -0.2139
vn -0.9330 0.3034 -0.1935
vn -0.8273 -0.4844 0.2846
vn -0.9003 -0.2906 0.3239
vn -0.9227 -0.3051 0.2358
vn 0.8095 0.4547 -0.3715
vn 0.8546 0.4664 -0.2286
vn 0.9067 0.3612 -0.2176
vn 0.8554 0.3738 -0.3586
vn 0.4567 0.8894 -0.0169
vn 0.5815 0.8136 -0.0046
vn 0.5973 0.7966 -0.0931
vn 0.4707 0.8774 -0.0933
vn 0.7050 -0.2279 -0.6717
vn 0.5857 -0.3518 -0.7302
vn 0.5994 -0.2142 -0.7712
vn 0.8805 0.3957 0.2612
vn 0.7981 0.4928 0.3468
vn 0.7901 0.4082 0.4572
vn 0.8747 0.3013 0.3796
vn 0.7051 -0.6645 -0.2475
vn 0.6642 -0.7118 -0.2282
vn 0.9511 -0.1675 0.2593
vn 0.9220 -0.1623 0.3515
vn 0.9003 -0.2906 0.3239
vn 0.9242 -0.3032 0.2324
vn 0.4118 -0.2140 -0.8858
vn 0.4062 -0.3329 -0.8510
vn -0.4118 -0.2140 -0.8858
vn -0.4062 -0.3329 -0.8510
vn -0.5857 -0.3518 -0.7302
vn -0.5994 -0.2142 -0.7712
vn 0.6011 -0.6784 0.4224
vn 0.5425 -0.6830 0.4891
vn -0.0000 -0.7590 0.6511
vn 0.6943 -0.5975 0.4012
vn -0.9607 -0.0581 0.2715
vn -0.9894 0.0285 0.1427
vn 0.8853 0.3174 -0.3399
vn 0.9296 0.3075 -0.2033
vn 0.9578 0.2282 -0.1746
vn 0.9109 0.2337 -0.3401
vn 0.6085 -0.0974 -0.7876
vn 0.7071 -0.0902 -0.7014
vn -0.1800 -0.3351 0.9248
vn -0.2845 -0.4065 0.8682
vn 0.1843 -0.3212 -0.9289
vn 0.4050 -0.3945 -0.8248
vn 0.1825 -0.3858 -0.9044
vn -0.9656 -0.2450 0.0869
vn -0.9673 -0.2244 -0.1181
vn -0.9971 0.0745 0.0136
vn -0.8093 -0.0959 -0.5795
vn -0.8113 0.0045 -0.5845
vn -0.7116 -0.0035 -0.7026
vn -0.7071 -0.0902 -0.7014
vn -0.9819 0.1130 -0.1523
vn -0.0000 -0.3819 -0.9242
vn -0.0000 -0.3174 -0.9483
vn 0.7116 -0.0035 -0.7026
vn 0.8113 0.0045 -0.5846
vn 0.8093 -0.0959 -0.5795
vn 0.9205 0.2292 0.3164
vn 0.9102 -0.2158 -0.3536
vn 0.6754 0.5018 0.5404
vn 0.3204 0.6449 -0.6939
vn 0.2620 0.7520 -0.6049
vn 0.3980 0.7517 -0.5258
vn 0.4799 0.6428 -0.5970
vn -0.9248 0.1551 -0.3473
vn -0.9109 0.2337 -0.3401
vn -0.8119 0.2208 -0.5404
vn -0.8164 0.1497 -0.5577
vn 0.4188 0.2624 -0.8693
vn 0.4196 0.1984 -0.8857
vn 0.1910 0.1984 -0.9613
vn 0.1915 0.2655 -0.9449
vn 0.8152 0.0849 -0.5729
vn 0.9290 0.1026 -0.3555
vn 0.9303 0.0124 -0.3666
vn 0.6176 -0.0114 -0.7864
vn 0.7125 0.0723 -0.6979
vn 0.9248 0.1551 -0.3473
vn 0.9753 0.1578 -0.1548
vn -0.6753 0.4465 -0.5870
vn -0.5719 0.4478 -0.6873
vn -0.6007 0.3436 -0.7219
vn -0.6984 0.3604 -0.6183
vn -0.0000 -0.2098 -0.9777
vn 0.1851 -0.2113 -0.9597
vn -0.4183 0.1426 -0.8971
vn -0.4196 0.1984 -0.8857
vn -0.1910 0.1984 -0.9613
vn -0.1891 0.1426 -0.9715
vn 0.6137 0.2589 -0.7459
vn 0.6159 0.1977 -0.7626
vn -0.1851 -0.2113 -0.9597
vn -0.1843 -0.3212 -0.9289
vn -0.6162 0.1413 -0.7748
vn -0.4190 0.0739 -0.9050
vn -0.6185 0.0723 -0.7824
vn -0.0000 -0.1165 -0.9932
vn 0.1873 -0.1159 -0.9754
vn -0.0000 0.2654 -0.9641
vn -0.0000 0.1974 -0.9803
vn -0.1873 -0.1159 -0.9754
vn -0.4149 -0.1108 -0.9031
vn -0.7049 -0.2279 -0.6717
vn -0.6953 -0.3871 -0.6055
vn -0.4050 -0.3945 -0.8248
vn -0.5821 -0.4143 -0.6997
vn 0.4196 -0.0153 -0.9076
vn 0.4149 -0.1108 -0.9031
vn -0.7125 0.0723 -0.6979
vn -0.6176 -0.0114 -0.7864
vn -0.0000 -0.0155 -0.9999
vn 0.1890 -0.0155 -0.9818
vn -0.4196 -0.0153 -0.9076
vn -0.1890 -0.0155 -0.9818
vn -0.6903 -0.4620 -0.5568
vn 0.6185 0.0723 -0.7824
vn 0.4190 0.0739 -0.9050
vn -0.0000 0.0742 -0.9972
vn 0.1888 0.0743 -0.9792
vn -0.6085 -0.0974 -0.7876
vn -0.0000 0.1418 -0.9899
vn 0.1891 0.1426 -0.9715
vn -0.1888 0.0743 -0.9792
vn 0.4183 0.1426 -0.8971
vn 0.6162 0.1413 -0.7748
vn 0.7082 0.1418 -0.6916
vn 0.8164 0.1497 -0.5577
vn 0.8119 0.2208 -0.5404
vn 0.7037 0.2025 -0.6811
vn -0.1825 -0.3858 -0.9044
vn 0.6563 -0.2312 0.7182
vn 0.7973 -0.2309 0.5577
vn 0.7838 -0.2277 0.5778
vn 0.6982 -0.3518 0.6235
vn 0.0068 0.8301 0.5576
vn -0.1878 0.8095 0.5562
vn -0.1787 0.7527 0.6337
vn 0.0138 0.7630 0.6463
vn -0.9290 0.1025 -0.3555
vn -0.8152 0.0849 -0.5729
vn -0.9303 0.0124 -0.3666
vn -0.4188 0.2624 -0.8693
vn -0.6137 0.2589 -0.7459
vn -0.4090 0.3524 -0.8418
vn 0.7902 0.5487 0.2729
vn 0.6887 0.6313 0.3565
vn 0.6927 0.5796 0.4293
vn -0.6627 0.6728 -0.3289
vn -0.7357 0.5758 -0.3565
vn -0.7677 0.5997 -0.2258
vn -0.6877 0.6944 -0.2116
vn -0.7172 -0.5562 -0.4198
vn -0.6644 -0.7116 -0.2285
vn -0.2070 0.9233 -0.3236
vn -0.2502 0.9258 -0.2834
vn -0.1341 0.9748 -0.1784
vn -0.1074 0.9753 -0.1930
vn 0.1491 0.4016 0.9036
vn 0.2411 0.2316 0.9424
vn 0.2920 0.2747 0.9161
vn 0.2060 0.4038 0.8914
vn -0.1870 0.3602 -0.9139
vn -0.1915 0.2655 -0.9449
vn -0.3665 -0.4850 0.7940
vn -0.5073 -0.3267 0.7975
vn -0.6149 -0.3354 0.7137
vn -0.4499 -0.5194 0.7265
vn -0.5831 -0.8118 -0.0322
vn -0.6831 -0.7273 -0.0661
vn -0.8303 -0.5430 -0.1253
vn -0.1570 0.9863 -0.0501
vn -0.1670 0.9828 -0.0789
vn -0.3157 0.9447 -0.0887
vn -0.3046 0.9518 -0.0357
vn -0.9756 0.2071 0.0727
vn -0.9632 0.2250 0.1470
vn -0.9388 0.3247 0.1148
vn 0.4671 0.8674 -0.1714
vn 0.3164 0.9379 -0.1421
vn 0.3157 0.9447 -0.0887
vn 0.6854 0.6951 0.2170
vn 0.7718 0.6000 0.2104
vn 0.8127 0.5614 0.1561
vn 0.7483 0.6497 0.1339
vn 0.1168 0.1021 0.9879
vn -0.2967 0.8522 -0.4309
vn -0.3980 0.7517 -0.5258
vn -0.4769 0.7518 -0.4554
vn -0.3632 0.8518 -0.3776
vn -0.1940 0.9773 0.0856
vn -0.1045 0.9942 0.0238
vn -0.1278 0.9918 -0.0020
vn -0.2461 0.9680 0.0481
vn -0.4973 -0.8647 0.0702
vn -0.9325 -0.1422 0.3320
vn -0.9754 0.0149 0.2200
vn -0.9738 0.1145 0.1967
vn -0.9855 0.1239 0.1161
vn -0.8590 0.4626 0.2194
vn -0.8217 0.5461 0.1628
vn -0.8626 0.5018 0.0638
vn -0.9148 0.3907 0.1023
vn -0.8574 0.3244 0.3995
vn -0.7561 0.3974 0.5199
vn -0.8718 0.4009 0.2814
vn 0.7677 0.5997 -0.2258
vn 0.7760 0.6258 -0.0783
vn 0.8715 0.4869 -0.0583
vn -0.9190 -0.3717 -0.1313
vn 0.1922 0.8531 -0.4851
vn 0.2967 0.8522 -0.4309
vn -0.9042 -0.1554 0.3978
vn -0.6909 -0.1462 0.7080
vn -0.9098 0.1306 0.3940
vn -0.5733 -0.3028 0.7614
vn 0.8430 -0.4924 0.2166
vn 0.0941 0.9870 0.1304
vn 0.1380 0.9837 0.1150
vn 0.0731 0.9965 0.0409
vn 0.0526 0.9971 0.0546
vn -0.9287 0.2585 0.2659
vn 0.9245 -0.1059 -0.3661
vn -0.2811 0.9596 0.0096
vn -0.4262 0.9035 0.0441
vn -0.3762 0.9215 0.0968
vn 0.6565 0.7490 0.0896
vn 0.6038 0.7774 0.1764
vn -0.7502 0.6191 0.2321
vn -0.7590 0.6396 0.1218
vn -0.1573 0.9266 0.3414
vn -0.0988 0.9721 0.2126
vn -0.1769 0.9632 0.2025
vn -0.2900 0.9036 0.3152
vn 0.6831 0.6689 0.2933
vn 0.5831 -0.8118 -0.0322
vn 0.7769 0.3842 -0.4988
vn 0.7970 0.3160 -0.5147
vn 0.7013 0.2793 -0.6558
vn 0.6984 0.3604 -0.6183
vn -0.7991 -0.0454 0.5994
vn 0.0359 0.6445 0.7637
vn -0.1425 0.6456 0.7503
vn 0.0754 0.5266 0.8467
vn 0.0895 0.9717 0.2187
vn 0.1553 0.9648 0.2120
vn 0.0556 0.9889 0.1380
vn 0.4043 0.8922 0.2014
vn 0.3054 0.9404 0.1495
vn 0.2255 0.9550 0.1925
vn 0.3079 0.9009 0.3060
vn 0.7429 -0.6368 0.2064
vn 0.6640 -0.6956 0.2744
vn 0.1658 0.8252 0.5399
vn 0.1658 0.8684 0.4673
vn 0.0122 0.8691 0.4946
vn -0.6231 0.5531 -0.5531
vn -0.5290 0.5534 -0.6434
vn -0.6457 0.6933 0.3201
vn -0.5699 0.7993 0.1906
vn 0.8273 -0.4844 0.2846
vn 0.7567 -0.2039 0.6212
vn 0.6692 -0.3187 0.6713
vn -0.7127 -0.0298 0.7008
vn 0.1340 0.9219 -0.3635
vn 0.2070 0.9233 -0.3236
vn -0.0731 0.9965 0.0409
vn -0.1378 0.9837 0.1153
vn 0.2786 0.1042 0.9547
vn 0.1539 -0.0684 0.9857
vn -0.9228 -0.1596 0.3506
vn -0.1740 0.8535 0.4911
vn -0.3308 0.8243 0.4595
vn -0.3520 0.7658 0.5382
vn 0.3873 0.4586 -0.7998
vn 0.4090 0.3524 -0.8418
vn 0.1870 0.3602 -0.9139
vn 0.1765 0.4678 -0.8660
vn -0.6821 0.5605 -0.4697
vn -0.6181 0.6543 -0.4357
vn -0.5669 0.6438 -0.5139
vn -0.3557 0.5608 -0.7476
vn -0.3873 0.4586 -0.7998
vn -0.9245 -0.1059 -0.3661
vn 0.9088 0.0050 0.4171
vn 0.8993 -0.0501 0.4344
vn 0.9547 -0.0124 0.2973
vn 0.9666 0.1052 0.2336
vn -0.4878 0.4146 0.7682
vn -0.5197 0.5468 0.6564
vn -0.6475 0.4669 0.6023
vn -0.6234 0.3282 0.7097
vn 0.0293 0.9736 -0.2265
vn 0.0731 0.9722 -0.2224
vn 0.0589 0.9206 -0.3861
vn -0.7604 -0.1926 0.6203
vn -0.7613 -0.2077 0.6143
vn -0.8653 -0.2945 0.4056
vn -0.7536 -0.1244 0.6454
vn 0.9270 0.3188 0.1976
vn 0.3314 0.8479 0.4139
vn 0.1605 0.9249 0.3447
vn 0.2680 0.6210 0.7366
vn 0.3172 0.7555 0.5733
vn 0.1654 0.7614 0.6268
vn 0.1595 0.6346 0.7562
vn -0.3434 0.6153 0.7096
vn -0.3612 0.7044 0.6110
vn -0.5109 0.6308 0.5840
vn -0.0656 -0.2677 0.9613
vn -0.1554 -0.1482 0.9767
vn -0.6888 0.7187 -0.0952
vn -0.7727 0.6276 -0.0949
vn -0.7658 0.6430 0.0104
vn -0.6721 0.7403 -0.0163
vn 0.3046 0.9518 -0.0357
vn 0.1570 0.9863 -0.0501
vn 0.1490 0.9885 -0.0240
vn 0.2811 0.9596 0.0096
vn 0.0001 0.9900 0.1408
vn -0.0000 0.9980 0.0636
vn -0.0294 0.9980 0.0566
vn -0.0560 0.9888 0.1380
vn -0.7082 0.1418 -0.6916
vn -0.3601 0.1515 0.9205
vn -0.0321 -0.0436 0.9985
vn 0.1278 0.9918 -0.0020
vn 0.2461 0.9680 0.0481
vn -0.4799 0.6428 -0.5970
vn 0.9494 0.1684 0.2652
vn 0.8912 0.0204 0.4531
vn 0.5669 0.6438 -0.5139
vn 0.4769 0.7518 -0.4554
vn 0.5261 0.7582 -0.3853
vn 0.6181 0.6543 -0.4357
vn -0.0000 0.4699 -0.8827
vn -0.0000 0.3618 -0.9323
vn 0.9519 -0.1317 0.2765
vn 0.8979 -0.1677 0.4070
vn -0.3488 0.9200 0.1788
vn -0.4512 0.8863 0.1040
vn -0.4199 0.8638 0.2786
vn 0.1679 0.4972 0.8512
vn 0.4262 0.9035 0.0441
vn 0.5821 -0.4143 -0.6997
vn 0.9860 0.0960 -0.1361
vn 0.9941 -0.0105 -0.1079
vn 0.9912 -0.0687 0.1129
vn 0.9778 -0.0258 0.2082
vn 0.8427 -0.2023 0.4988
vn 0.9247 -0.1873 0.3313
vn 0.9940 0.0030 0.1097
vn 0.9615 -0.1106 0.2515
vn 0.4085 0.8546 -0.3205
vn 0.4460 0.8601 -0.2477
vn 0.5675 0.7698 -0.2923
vn 0.5115 0.7183 0.4716
vn 0.5188 0.7545 0.4019
vn 0.3378 0.8038 0.4898
vn -0.8756 0.4778 -0.0711
vn 0.3404 0.1940 0.9200
vn -0.4913 0.7132 0.5000
vn -0.4567 0.8894 -0.0169
vn -0.5780 0.8159 -0.0136
vn -0.5281 0.8483 0.0392
vn 0.1464 0.9773 -0.1534
vn 0.1619 0.9778 -0.1332
vn 0.3043 0.9327 -0.1935
vn 0.2817 0.9285 -0.2419
vn 0.4821 0.8666 0.1288
vn 0.4833 0.8364 0.2586
vn -0.6577 0.7507 0.0627
vn 0.3737 0.4884 0.7886
vn 0.1325 0.3406 0.9308
vn 0.2340 0.2376 0.9428
vn 0.9728 0.2027 0.1119
vn 0.9927 0.0908 0.0799
vn 0.1618 0.5654 -0.8088
vn -0.0000 0.5661 -0.8243
vn -0.2338 0.9531 0.1923
vn -0.3055 0.9400 0.1522
vn 0.4802 0.6113 0.6290
vn 0.5427 0.8378 0.0603
vn 0.3763 0.9215 0.0960
vn 0.6007 0.3436 -0.7219
vn -0.9577 0.2313 -0.1712
vn -0.9753 0.1571 -0.1553
vn 0.1940 0.9773 0.0855
vn -0.1618 0.5654 -0.8088
vn -0.1765 0.4678 -0.8660
vn -0.1180 0.7498 -0.6510
vn -0.2620 0.7520 -0.6049
vn -0.1922 0.8531 -0.4851
vn -0.0853 0.8519 -0.5167
vn 0.6753 0.4465 -0.5870
vn 0.5719 0.4478 -0.6873
vn -0.5675 0.7698 -0.2923
vn -0.5261 0.7582 -0.3853
vn -0.0000 0.7487 -0.6629
vn -0.0000 0.6414 -0.7672
vn -0.1459 0.6427 -0.7521
vn -0.8255 0.1760 0.5362
vn -0.7456 0.4494 -0.4921
vn 0.5290 0.5534 -0.6434
vn 0.6231 0.5531 -0.5531
vn 0.3557 0.5608 -0.7476
vn 0.9892 0.1463 -0.0077
vn 0.9974 0.0719 0.0062
vn 0.0135 0.9331 0.3595
vn 0.0050 0.9748 0.2228
vn 0.1045 0.9942 0.0238
vn 0.7357 0.5758 -0.3565
vn -0.7209 0.2534 0.6451
vn 0.7456 0.4494 -0.4921
vn -0.0731 0.9722 -0.2224
vn -0.1340 0.9219 -0.3635
vn -0.8095 0.4547 -0.3715
vn 0.0294 0.9980 0.0566
vn -0.0000 0.9975 -0.0700
vn -0.0526 0.9971 0.0546
vn -0.1490 0.9885 -0.0240
vn 0.7654 0.6414 0.0528
vn 0.6840 0.7292 0.0165
vn 0.8530 0.5134 0.0937
vn 0.9053 0.4154 0.0886
vn 0.9258 0.3759 -0.0407
vn -0.7642 -0.4834 0.4269
vn -0.7805 -0.4691 0.4131
vn -0.7738 -0.4221 0.4722
vn -0.7733 -0.4176 0.4771
vn 0.6821 0.5605 -0.4697
vn -0.7691 -0.3504 0.5344
vn -0.7693 -0.3587 0.5288
vn -0.7666 -0.2866 0.5746
vn -0.7657 -0.2732 0.5822
vn 0.1670 0.9828 -0.0789
vn 0.5146 0.7917 0.3291
vn 0.2502 0.9258 -0.2834
vn 0.3632 0.8518 -0.3776
vn 0.5092 0.6801 0.5274
vn 0.5917 0.7826 -0.1936
vn 0.6932 0.7153 -0.0885
vn 0.6877 0.6944 -0.2116
vn -0.0942 0.9869 0.1307
vn 0.6627 0.6728 -0.3289
vn -0.4762 0.7792 0.4076
vn -0.1629 0.9809 -0.1066
vn 0.1629 0.9809 -0.1066
vn 0.1459 0.6427 -0.7521
vn 0.8612 0.4705 0.1922
vn 0.9480 0.3164 -0.0348
vn 0.9670 0.2534 -0.0271
vn -0.4460 0.8601 -0.2477
vn -0.5917 0.7826 -0.1936
vn -0.4672 0.8674 -0.1714
vn 0.0392 -0.1906 0.9809
vn -0.1619 0.9778 -0.1332
vn -0.1464 0.9773 -0.1534
vn -0.6159 0.1977 -0.7626
vn 0.1074 0.9753 -0.1930
vn 0.1341 0.9748 -0.1784
vn -0.7037 0.2025 -0.6811
vn 0.0853 0.8519 -0.5167
vn -0.0293 0.9736 -0.2265
vn -0.5973 0.7966 -0.0931
vn 0.1180 0.7498 -0.6510
vn -0.3164 0.9379 -0.1421
vn 0.9819 0.1890 -0.0135
vn 0.2706 0.1047 0.9570
vn 0.0284 0.1731 0.9845
vn 0.1927 0.0302 0.9808
vn -0.0000 0.8513 -0.5248
vn -0.0000 0.9205 -0.3908
vn -0.0000 0.9717 -0.2363
vn -0.0589 0.9206 -0.3861
vn -0.8853 0.3174 -0.3399
vn -0.7970 0.3160 -0.5147
vn -0.6943 -0.5975 0.4012
vn -0.7598 -0.5504 0.3460
vn -0.7612 -0.5034 0.4088
vn -0.7769 0.3842 -0.4988
vn -0.8554 0.3738 -0.3586
vn 0.6853 -0.1396 0.7148
vn -0.7013 0.2793 -0.6558
vn -0.8551 0.4656 -0.2280
vn 0.7738 -0.4221 0.4722
vn 0.7733 -0.4176 0.4771
vn 0.7691 -0.3504 0.5344
vn 0.7693 -0.3587 0.5288
vn -0.3204 0.6449 -0.6939
vn -0.0308 0.2625 0.9644
vn 0.7787 -0.5336 0.3301
vn 0.7590 -0.2486 0.6018
vn 0.7568 -0.2522 0.6031
vn 0.7314 -0.4821 0.4824
vn -0.9770 0.2134 0.0002
vn -0.4707 0.8774 -0.0933
vn 0.4672 -0.1239 0.8754
vn 0.7670 -0.2879 0.5734
vn 0.7663 -0.2753 0.5805
vn 0.9521 0.2939 0.0848
vn 0.3658 -0.0593 0.9288
vn 0.9365 0.3420 0.0772
vn 0.9079 0.3984 0.1306
vn -0.9886 0.1500 0.0095
vn -0.4085 0.8546 -0.3205
vn -0.2817 0.9285 -0.2419
vn -0.3043 0.9327 -0.1935
vn -0.8786 -0.4073 -0.2493
vn -0.9132 -0.3989 -0.0828
vn -0.8898 -0.4453 -0.0999
vn -0.1040 -0.9706 -0.2169
vn -0.1107 -0.9877 -0.1108
vn -0.5737 -0.4080 -0.7103
vn -0.8745 -0.4707 -0.1174
vn 0.7877 -0.6135 -0.0560
vn -0.8622 -0.4873 -0.1381
vn 0.7582 -0.6476 -0.0762
vn -0.8537 -0.4979 -0.1524
vn 0.7239 -0.6820 -0.1042
vn -0.8836 -0.4663 -0.0430
vn -0.8509 -0.5015 -0.1563
vn 0.6918 -0.7095 -0.1346
vn -0.8345 -0.5370 -0.1235
vn 0.6638 -0.7295 -0.1645
vn 0.6414 -0.7429 -0.1916
vn 0.5727 -0.7671 -0.2892
vn 0.5505 -0.7695 -0.3237
vn 0.6103 -0.7568 -0.2342
vn -0.4025 0.7112 0.5764
vn 0.7805 -0.4691 0.4131
vn 0.7642 -0.4834 0.4269
vn 0.7612 -0.5034 0.4088
vn 0.7598 -0.5504 0.3460
vn -0.7704 -0.5746 0.2761
vn -0.7595 -0.5816 0.2915
vn -0.7151 -0.6102 0.3410
vn -0.6011 -0.6784 0.4224
vn 0.7704 -0.5747 0.2761
vn -0.5425 -0.6830 0.4891
vn 0.7595 -0.5816 0.2915
vn 0.7151 -0.6102 0.3410
vn -0.4679 -0.6465 0.6026
vn -0.3344 -0.6114 0.7171
vn 0.4679 -0.6465 0.6026
vn -0.1554 -0.5815 0.7986
vn 0.3344 -0.6114 0.7171
vn -0.0000 -0.5704 0.8213
vn 0.1554 -0.5815 0.7986
vt 0.000000 0.000000
s 1
f 106/1/1 107/1/2 87/1/3 99/1/4
f 36/1/5 44/1/6 45/1/7 38/1/8
f 45/1/7 46/1/9 25/1/10 38/1/8
f 4/1/11 8/1/12 2/1/13
f 458/1/14 475/1/15 449/1/16 451/1/17
f 152/1/18 153/1/19 122/1/20 144/1/21
f 148/1/22 176/1/23 157/1/24 151/1/25
f 106/1/1 129/1/26 130/1/27 121/1/28
f 481/1/29 482/1/30 449/1/16 475/1/15
f 139/1/31 147/1/32 146/1/33 141/1/34
f 158/1/35 159/1/36 131/1/37 153/1/19
f 13/1/38 15/1/39 14/1/40
f 137/1/41 173/1/42 152/1/18 144/1/21
f 437/1/43 451/1/17 443/1/44 438/1/45
f 12/1/46 20/1/47 21/1/48
f 14/1/40 22/1/49 17/1/50
f 14/1/40 15/1/39 23/1/51
f 14/1/40 23/1/51 22/1/49
f 15/1/39 16/1/52 24/1/53
f 23/1/51 24/1/53 22/1/49
f 15/1/39 24/1/53 23/1/51
f 188/1/54 378/1/55 179/1/56 181/1/57
f 437/1/43 459/1/58 458/1/14 451/1/17
f 198/1/59 192/1/60 184/1/61 182/1/62
f 222/1/63 217/1/64 216/1/65 221/1/66
f 112/1/67 118/1/68 117/1/69 113/1/70
f 24/1/53 30/1/71 22/1/49
f 22/1/49 30/1/71 31/1/72
f 22/1/49 31/1/72 32/1/73
f 436/1/74 472/1/75 422/1/76 434/1/77
f 535/1/78 525/1/79 517/1/80 528/1/81
f 98/1/82 99/1/4 78/1/83 93/1/84
f 462/1/85 476/1/86 474/1/87 470/1/88
f 114/1/89 115/1/90 107/1/2 106/1/1
f 186/1/91 187/1/92 178/1/93 180/1/94
f 72/1/95 93/1/84 78/1/83 73/1/96
f 40/1/97 41/1/98 34/1/99 39/1/100
f 611/1/101 615/1/102 605/1/103 607/1/104
f 378/1/55 186/1/91 180/1/94 179/1/56
f 44/1/6 51/1/105 52/1/106 45/1/7
f 403/1/107 417/1/108 398/1/109 397/1/110
f 92/1/111 203/1/112 98/1/82 93/1/84
f 191/1/113 198/1/59 182/1/62 183/1/114
f 64/1/115 73/1/96 70/1/116 65/1/117
f 18/1/118 38/1/8 25/1/10 19/1/119
f 121/1/28 144/1/21 122/1/20 114/1/89
f 45/1/7 52/1/106 53/1/120
f 45/1/7 53/1/120 46/1/9
f 27/1/121 56/1/122 57/1/123 50/1/124
f 46/1/9 53/1/120 54/1/125
f 64/1/115 65/1/117 55/1/126 63/1/127
f 207/1/128 208/1/129 190/1/130 203/1/112
f 454/1/131 470/1/88 458/1/14 459/1/58
f 138/1/132 181/1/57 137/1/41 130/1/27
f 474/1/87 489/1/133 481/1/29 475/1/15
f 428/1/134 456/1/135 455/1/136 448/1/137
f 61/1/138 105/1/139 101/1/140 96/1/141
f 345/1/142 346/1/143 225/1/144 340/1/145
f 212/1/146 362/1/147 196/1/148 208/1/129
f 92/1/111 209/1/149 207/1/128 203/1/112
f 358/1/150 212/1/146 208/1/129 207/1/128
f 364/1/151 397/1/110 398/1/109 391/1/152
f 271/1/153 272/1/154 264/1/155 270/1/156
f 69/1/157 71/1/158 64/1/115 63/1/127
f 95/1/159 254/1/160 236/1/161 244/1/162
f 345/1/142 409/1/163 351/1/164 346/1/143
f 40/1/97 68/1/165 48/1/166 41/1/98
f 103/1/167 95/1/159 89/1/168 88/1/169
f 69/1/157 76/1/170 77/1/171 71/1/158
f 235/1/172 340/1/145 225/1/144 226/1/173
f 75/1/174 68/1/165 40/1/97 74/1/175
f 28/1/176 39/1/100 34/1/99 29/1/177
f 34/1/99 41/1/98 42/1/178 35/1/179
f 86/1/180 209/1/149 92/1/111 84/1/181
f 57/1/123 91/1/182 88/1/169 80/1/183
f 83/1/184 85/1/185 77/1/171 76/1/170
f 77/1/171 85/1/185 86/1/180 84/1/181
f 81/1/186 82/1/187 75/1/174 74/1/175
f 34/1/99 35/1/179 3/1/188 29/1/177
f 214/1/189 358/1/150 207/1/128 209/1/149
f 83/1/184 76/1/170 75/1/174 82/1/187
f 214/1/189 209/1/149 86/1/180 213/1/190
f 83/1/184 100/1/191 94/1/192 85/1/185
f 47/1/193 74/1/175 40/1/97 39/1/100
f 108/1/194 218/1/195 94/1/192 100/1/191
f 81/1/186 89/1/168 90/1/196 82/1/187
f 94/1/192 213/1/190 86/1/180 85/1/185
f 108/1/194 244/1/162 236/1/161 226/1/173
f 219/1/197 352/1/198 214/1/189 213/1/190
f 357/1/199 363/1/200 212/1/146 358/1/150
f 357/1/199 358/1/150 214/1/189 352/1/198
f 403/1/107 434/1/77 422/1/76 417/1/108
f 351/1/164 352/1/198 219/1/197 346/1/143
f 371/1/201 397/1/110 364/1/151 363/1/200
f 364/1/151 362/1/147 212/1/146 363/1/200
f 351/1/164 416/1/202 357/1/199 352/1/198
f 48/1/166 63/1/127 55/1/126 49/1/203
f 418/1/204 426/1/205 424/1/206 425/1/207
f 28/1/176 29/1/177 2/1/13 21/1/48
f 90/1/196 244/1/162 108/1/194 100/1/191
f 94/1/192 218/1/195 219/1/197 213/1/190
f 233/1/208 234/1/209 211/1/210 232/1/211
f 62/1/212 66/1/213 56/1/122 33/1/214
f 256/1/215 261/1/216 264/1/155 263/1/217
f 473/1/218 526/1/219 483/1/220 476/1/86
f 323/1/221 356/1/222 274/1/223 320/1/224
f 1/1/225 5/1/226 4/1/11 2/1/13
f 365/1/227 359/1/228 361/1/229 368/1/230
f 229/1/231 228/1/232 238/1/233 239/1/234
f 256/1/215 263/1/217 262/1/235 255/1/236
f 160/1/237 183/1/114 182/1/62 174/1/238
f 160/1/237 174/1/238 154/1/239 155/1/240
f 114/1/89 106/1/1 121/1/28
f 5/1/226 7/1/241 6/1/242 4/1/11
f 6/1/242 10/1/243 8/1/12 4/1/11
f 301/1/244 319/1/245 313/1/246 308/1/247
f 116/1/248 125/1/249 120/1/250
f 528/1/81 511/1/251 522/1/252 527/1/253
f 537/1/254 532/1/255 468/1/256 531/1/257
f 228/1/232 229/1/231 221/1/66 220/1/258
f 366/1/259 367/1/260 318/1/261 360/1/262
f 265/1/263 289/1/264 290/1/265 266/1/266
f 9/1/267 13/1/38 6/1/242 7/1/241
f 51/1/105 132/1/268 133/1/269
f 51/1/105 133/1/269 124/1/270
f 125/1/249 116/1/248 58/1/271 124/1/270
f 127/1/272 135/1/273 128/1/274 119/1/275
f 149/1/276 168/1/277 148/1/22 143/1/278
f 478/1/279 499/1/280 471/1/281 472/1/75
f 11/1/282 12/1/46 8/1/12 10/1/243
f 130/1/27 129/1/26 138/1/132
f 20/1/47 12/1/46 11/1/282 19/1/119
f 480/1/283 486/1/284 455/1/136 456/1/135
f 43/1/285 139/1/31 132/1/268
f 43/1/285 140/1/286 139/1/31
f 133/1/269 141/1/34 142/1/287
f 133/1/269 142/1/287 124/1/270
f 140/1/286 145/1/288 139/1/31
f 179/1/56 180/1/94 171/1/289 173/1/42
f 141/1/34 146/1/33 142/1/287
f 139/1/31 145/1/288 147/1/32
f 325/1/290 342/1/291 332/1/292 326/1/293
f 143/1/278 134/1/294 149/1/276
f 138/1/132 129/1/26 190/1/130 189/1/295
f 296/1/296 302/1/297 258/1/298 266/1/266
f 530/1/299 545/1/300 537/1/254 531/1/257
f 9/1/267 16/1/52 15/1/39 13/1/38
f 6/1/242 13/1/38 14/1/40 10/1/243
f 120/1/250 143/1/278 127/1/272 119/1/275
f 36/1/5 38/1/8 18/1/118 32/1/73
f 135/1/273 150/1/301 156/1/302
f 249/1/303 279/1/304 252/1/305 247/1/306
f 473/1/218 532/1/255 533/1/307 526/1/219
f 153/1/19 152/1/18 158/1/35
f 122/1/20 153/1/19 131/1/37 123/1/308
f 420/1/309 429/1/310 412/1/311 415/1/312
f 142/1/287 146/1/33 161/1/313
f 231/1/314 224/1/315 222/1/63 230/1/316
f 306/1/317 336/1/318 325/1/290 312/1/319
f 541/1/320 547/1/321 347/1/322 341/1/323
f 148/1/22 151/1/25 127/1/272 143/1/278
f 158/1/35 152/1/18 165/1/324
f 158/1/35 165/1/324 166/1/325
f 158/1/35 166/1/325 159/1/36
f 233/1/208 300/1/326 299/1/327 294/1/328
f 271/1/153 304/1/329 277/1/330 272/1/154
f 150/1/301 169/1/331 170/1/332
f 165/1/324 152/1/18 171/1/289
f 165/1/324 171/1/289 166/1/325
f 166/1/325 171/1/289 172/1/333
f 152/1/18 173/1/42 171/1/289
f 424/1/206 439/1/334 431/1/335 425/1/207
f 154/1/239 174/1/238 162/1/336 161/1/313
f 479/1/337 500/1/338 486/1/284 480/1/283
f 281/1/339 289/1/264 265/1/263 273/1/340
f 172/1/333 171/1/289 178/1/93
f 227/1/341 228/1/232 220/1/258 223/1/342
f 31/1/72 37/1/343 36/1/5 32/1/73
f 171/1/289 180/1/94 178/1/93
f 242/1/344 243/1/345 202/1/346 234/1/209
f 401/1/347 402/1/348 339/1/349 396/1/350
f 303/1/351 317/1/352 311/1/353 304/1/329
f 277/1/330 322/1/354 269/1/355 272/1/154
f 18/1/118 19/1/119 11/1/282 17/1/50
f 22/1/49 32/1/73 18/1/118 17/1/50
f 25/1/10 26/1/356 20/1/47 19/1/119
f 445/1/357 432/1/358 440/1/359 446/1/360
f 20/1/47 26/1/356 27/1/121 21/1/48
f 27/1/121 50/1/124 28/1/176 21/1/48
f 48/1/166 49/1/203 42/1/178 41/1/98
f 200/1/361 201/1/362 175/1/363 193/1/364
f 393/1/365 485/1/366 479/1/337 394/1/367
f 571/1/368 572/1/369 567/1/370 568/1/371
f 33/1/214 56/1/122 27/1/121 26/1/356
f 25/1/10 46/1/9 33/1/214 26/1/356
f 462/1/85 470/1/88 454/1/131 453/1/372
f 299/1/327 534/1/373 341/1/323 305/1/374
f 245/1/375 307/1/376 241/1/377 246/1/378
f 205/1/379 206/1/380 185/1/381 201/1/362
f 191/1/113 199/1/382 197/1/383 198/1/59
f 267/1/384 268/1/385 136/1/386 260/1/387
f 543/1/388 536/1/389 544/1/390 550/1/391
f 291/1/392 292/1/393 287/1/394 284/1/395
f 98/1/82 203/1/112 190/1/130 129/1/26
f 97/1/396 103/1/167 88/1/169 91/1/182
f 57/1/123 80/1/183 47/1/193 50/1/124
f 216/1/65 210/1/397 197/1/383 215/1/398
f 420/1/309 434/1/77 403/1/107 429/1/310
f 54/1/125 62/1/212 33/1/214 46/1/9
f 72/1/95 73/1/96 64/1/115 71/1/158
f 88/1/169 89/1/168 81/1/186 80/1/183
f 47/1/193 80/1/183 81/1/186 74/1/175
f 353/1/399 551/1/400 550/1/391 544/1/390
f 311/1/353 316/1/401 277/1/330 304/1/329
f 244/1/162 90/1/196 89/1/168 95/1/159
f 66/1/213 96/1/141 97/1/396 91/1/182
f 446/1/360 452/1/402 444/1/403 445/1/357
f 175/1/363 176/1/23 148/1/22 168/1/277
f 139/1/31 141/1/34 133/1/269 132/1/268
f 447/1/404 494/1/405 496/1/406 490/1/407
f 334/1/408 396/1/350 339/1/349 335/1/409
f 75/1/174 76/1/170 69/1/157 68/1/165
f 186/1/91 385/1/410 195/1/411 187/1/92
f 250/1/412 253/1/413 170/1/332 248/1/414
f 138/1/132 189/1/295 188/1/54 181/1/57
f 240/1/415 246/1/378 231/1/314 230/1/316
f 543/1/388 550/1/391 549/1/416 535/1/78
f 78/1/83 79/1/417 70/1/116 73/1/96
f 236/1/161 255/1/236 235/1/172 226/1/173
f 218/1/195 108/1/194 226/1/173 225/1/144
f 369/1/418 370/1/419 196/1/148 362/1/147
f 377/1/420 385/1/410 186/1/91 378/1/55
f 399/1/421 440/1/359 407/1/422 400/1/423
f 384/1/424 392/1/425 385/1/410 377/1/420
f 501/1/426 510/1/427 492/1/428 496/1/406
f 519/1/429 538/1/430 520/1/431 307/1/376
f 196/1/148 370/1/419 188/1/54 189/1/295
f 136/1/386 268/1/385 126/1/432 128/1/274
f 416/1/202 371/1/201 363/1/200 357/1/199
f 225/1/144 346/1/143 219/1/197 218/1/195
f 239/1/234 245/1/375 240/1/415
f 237/1/433 245/1/375 238/1/233
f 238/1/233 245/1/375 239/1/234
f 240/1/415 245/1/375 246/1/378
f 185/1/381 194/1/434 157/1/24 176/1/23
f 309/1/435 310/1/436 259/1/437 302/1/297
f 518/1/438 521/1/439 516/1/440 515/1/441
f 546/1/442 541/1/320 540/1/443 545/1/300
f 247/1/306 250/1/412 248/1/414
f 164/1/444 260/1/387 136/1/386 156/1/302
f 509/1/445 504/1/446 503/1/447 481/1/29
f 406/1/448 446/1/360 399/1/421 405/1/449
f 395/1/450 396/1/350 334/1/408 390/1/451
f 412/1/311 429/1/310 371/1/201 416/1/202
f 250/1/412 251/1/452 257/1/453
f 489/1/133 513/1/454 509/1/445 481/1/29
f 542/1/455 549/1/416 548/1/456 546/1/442
f 154/1/239 161/1/313 146/1/33 147/1/32
f 339/1/349 402/1/348 345/1/142 340/1/145
f 339/1/349 340/1/145 235/1/172 335/1/409
f 408/1/457 409/1/163 345/1/142 402/1/348
f 67/1/458 105/1/139 61/1/138 60/1/459
f 51/1/105 124/1/270 58/1/271 52/1/106
f 551/1/400 348/1/460 547/1/321 548/1/456
f 200/1/361 217/1/64 205/1/379 201/1/362
f 328/1/461 329/1/462 269/1/355 322/1/354
f 469/1/463 374/1/464 373/1/465 381/1/466
f 414/1/467 415/1/312 408/1/457 413/1/468
f 323/1/221 330/1/469 324/1/470 317/1/352
f 469/1/463 463/1/471 389/1/472 382/1/473
f 142/1/287 163/1/474 149/1/276 134/1/294
f 303/1/351 304/1/329 271/1/153 297/1/475
f 124/1/270 142/1/287 134/1/294 125/1/249
f 419/1/476 442/1/477 414/1/467 413/1/468
f 401/1/347 421/1/478 419/1/476 413/1/468
f 162/1/336 163/1/474 142/1/287 161/1/313
f 369/1/418 391/1/152 383/1/479 376/1/480
f 279/1/304 249/1/303 286/1/481 285/1/482
f 348/1/460 349/1/483 332/1/292 342/1/291
f 478/1/279 472/1/75 436/1/74 477/1/484
f 167/1/485 193/1/364 175/1/363 168/1/277
f 436/1/74 434/1/77 420/1/309 435/1/486
f 285/1/482 306/1/317 312/1/319 291/1/392
f 368/1/230 375/1/487 372/1/488 365/1/227
f 356/1/222 303/1/351 297/1/475 282/1/489
f 325/1/290 326/1/293 298/1/490 312/1/319
f 348/1/460 551/1/400 353/1/399 349/1/483
f 291/1/392 312/1/319 298/1/490 292/1/393
f 287/1/394 292/1/393 293/1/491
f 287/1/394 293/1/491 288/1/492
f 288/1/492 293/1/491 281/1/339
f 289/1/264 293/1/491 290/1/265
f 289/1/264 281/1/339 293/1/491
f 290/1/265 293/1/491 295/1/493
f 530/1/299 531/1/257 506/1/494 524/1/495
f 550/1/391 551/1/400 548/1/456 549/1/416
f 112/1/67 120/1/250 119/1/275 118/1/68
f 292/1/393 298/1/490 293/1/491
f 471/1/281 507/1/496 465/1/497 466/1/498
f 592/1/499 593/1/500 589/1/501 588/1/502
f 295/1/493 293/1/491 301/1/244
f 525/1/79 542/1/455 530/1/299 524/1/495
f 441/1/503 477/1/484 436/1/74 435/1/486
f 414/1/467 442/1/477 441/1/503 435/1/486
f 584/1/504 585/1/505 580/1/506 579/1/507
f 242/1/344 249/1/303 247/1/306 243/1/345
f 533/1/307 538/1/430 519/1/429 526/1/219
f 535/1/78 549/1/416 542/1/455 525/1/79
f 447/1/404 490/1/407 441/1/503 442/1/477
f 419/1/476 448/1/137 447/1/404 442/1/477
f 241/1/377 300/1/326 233/1/208 232/1/211
f 527/1/253 543/1/388 535/1/78 528/1/81
f 536/1/389 543/1/388 527/1/253 529/1/508
f 539/1/509 540/1/443 341/1/323 534/1/373
f 285/1/482 291/1/392 284/1/395 279/1/304
f 508/1/510 515/1/441 501/1/426 502/1/511
f 514/1/512 519/1/429 307/1/376 245/1/375
f 301/1/244 293/1/491 319/1/245
f 498/1/513 517/1/80 497/1/514 491/1/515
f 287/1/394 288/1/492 280/1/516 284/1/395
f 492/1/428 498/1/513 491/1/515 484/1/517
f 484/1/517 491/1/515 478/1/279 477/1/484
f 490/1/407 496/1/406 492/1/428 484/1/517
f 185/1/381 206/1/380 202/1/346 194/1/434
f 247/1/306 248/1/414 177/1/518 243/1/345
f 298/1/490 326/1/293 293/1/491
f 319/1/245 293/1/491 327/1/519
f 523/1/520 529/1/508 527/1/253 522/1/252
f 395/1/450 421/1/478 401/1/347 396/1/350
f 395/1/450 427/1/521 428/1/134 421/1/478
f 468/1/256 532/1/255 473/1/218 467/1/522
f 417/1/108 423/1/523 410/1/524 398/1/109
f 280/1/516 288/1/492 281/1/339 273/1/340
f 326/1/293 332/1/292 293/1/491
f 355/1/525 330/1/469 344/1/526 337/1/527
f 364/1/151 391/1/152 369/1/418 362/1/147
f 233/1/208 294/1/328 242/1/344 234/1/209
f 306/1/317 305/1/374 336/1/318
f 511/1/251 528/1/81 517/1/80 498/1/513
f 204/1/528 215/1/398 197/1/383 199/1/382
f 516/1/440 522/1/252 511/1/251 510/1/427
f 334/1/408 335/1/409 262/1/235 329/1/462
f 48/1/166 68/1/165 69/1/157 63/1/127
f 247/1/306 252/1/305 251/1/452 250/1/412
f 483/1/220 514/1/512 513/1/454 489/1/133
f 231/1/314 232/1/211 211/1/210 224/1/315
f 327/1/519 293/1/491 343/1/529
f 492/1/428 510/1/427 511/1/251 498/1/513
f 497/1/514 499/1/280 478/1/279 491/1/515
f 236/1/161 254/1/160 256/1/215 255/1/236
f 190/1/130 208/1/129 196/1/148 189/1/295
f 251/1/452 273/1/340 265/1/263 257/1/453
f 216/1/65 217/1/64 200/1/361 210/1/397
f 332/1/292 349/1/483 293/1/491
f 483/1/220 489/1/133 474/1/87 476/1/86
f 343/1/529 293/1/491 350/1/530
f 102/1/531 254/1/160 95/1/159 103/1/167
f 102/1/531 261/1/216 256/1/215 254/1/160
f 349/1/483 353/1/399 293/1/491
f 383/1/479 405/1/449 384/1/424 376/1/480
f 515/1/441 516/1/440 510/1/427 501/1/426
f 77/1/171 84/1/181 72/1/95 71/1/158
f 28/1/176 50/1/124 47/1/193 39/1/100
f 262/1/235 335/1/409 235/1/172 255/1/236
f 347/1/322 547/1/321 348/1/460 342/1/291
f 220/1/258 221/1/66 216/1/65 215/1/398
f 350/1/530 293/1/491 361/1/229
f 61/1/138 96/1/141 66/1/213 62/1/212
f 500/1/338 508/1/510 502/1/511 486/1/284
f 486/1/284 502/1/511 494/1/405 455/1/136
f 493/1/532 512/1/533 508/1/510 500/1/338
f 361/1/229 293/1/491 368/1/230
f 66/1/213 91/1/182 57/1/123 56/1/122
f 61/1/138 62/1/212 54/1/125 60/1/459
f 101/1/140 104/1/534 97/1/396 96/1/141
f 483/1/220 526/1/219 519/1/429 514/1/512
f 239/1/234 240/1/415 230/1/316 229/1/231
f 493/1/532 500/1/338 479/1/337 485/1/366
f 516/1/440 521/1/439 523/1/520 522/1/252
f 119/1/275 128/1/274 126/1/432 118/1/68
f 368/1/230 293/1/491 375/1/487
f 238/1/233 228/1/232 227/1/341 237/1/433
f 548/1/456 547/1/321 541/1/320 546/1/442
f 137/1/41 181/1/57 179/1/56 173/1/42
f 480/1/283 464/1/535 394/1/367 479/1/337
f 375/1/487 293/1/491 380/1/536
f 315/1/537 344/1/526 320/1/224 267/1/384
f 464/1/535 480/1/283 456/1/135 433/1/538
f 433/1/538 456/1/135 428/1/134 427/1/521
f 327/1/519 333/1/539 313/1/246 319/1/245
f 376/1/480 384/1/424 377/1/420
f 406/1/448 405/1/449 383/1/479 404/1/540
f 487/1/541 503/1/447 495/1/542 488/1/543
f 506/1/494 507/1/496 471/1/281 499/1/280
f 394/1/367 464/1/535 387/1/544 386/1/545
f 380/1/536 293/1/491 388/1/546
f 389/1/472 427/1/521 395/1/450 390/1/451
f 407/1/422 440/1/359 432/1/358 426/1/205
f 380/1/536 388/1/546 386/1/545 379/1/547
f 388/1/546 293/1/491 393/1/365
f 463/1/471 469/1/463 381/1/466 387/1/544
f 371/1/201 429/1/310 403/1/107 397/1/110
f 328/1/461 390/1/451 334/1/408 329/1/462
f 444/1/403 459/1/58 437/1/43 439/1/334
f 78/1/83 99/1/4 87/1/3 79/1/417
f 204/1/528 223/1/342 220/1/258 215/1/398
f 392/1/425 399/1/421 400/1/423
f 269/1/355 329/1/462 262/1/235 263/1/217
f 398/1/109 404/1/540 383/1/479 391/1/152
f 110/1/548 278/1/549 101/1/140 105/1/139
f 67/1/458 113/1/70 110/1/548 105/1/139
f 157/1/24 169/1/331 150/1/301 151/1/25
f 597/1/550 600/1/551 596/1/552 592/1/499
f 474/1/87 475/1/15 458/1/14 470/1/88
f 400/1/423 407/1/422 195/1/411
f 264/1/155 272/1/154 269/1/355 263/1/217
f 282/1/489 297/1/475 276/1/553 283/1/554
f 404/1/540 398/1/109 410/1/524
f 540/1/443 539/1/509 537/1/254 545/1/300
f 195/1/411 407/1/422 411/1/555
f 109/1/556 270/1/156 264/1/155 261/1/216
f 109/1/556 261/1/216 102/1/531 104/1/534
f 274/1/223 356/1/222 282/1/489 275/1/557
f 101/1/140 278/1/549 109/1/556 104/1/534
f 530/1/299 542/1/455 546/1/442 545/1/300
f 411/1/555 407/1/422 418/1/204
f 497/1/514 517/1/80 525/1/79 524/1/495
f 441/1/503 490/1/407 484/1/517 477/1/484
f 109/1/556 278/1/549 276/1/553 270/1/156
f 276/1/553 297/1/475 271/1/153 270/1/156
f 117/1/69 283/1/554 110/1/548 113/1/70
f 408/1/457 415/1/312 412/1/311 409/1/163
f 594/1/558 595/1/559 590/1/560 591/1/561
f 418/1/204 407/1/422 426/1/205
f 192/1/60 193/1/364 167/1/485 184/1/61
f 321/1/562 322/1/354 277/1/330 316/1/401
f 283/1/554 276/1/553 278/1/549 110/1/548
f 504/1/446 505/1/563 495/1/542 503/1/447
f 242/1/344 294/1/328 286/1/481 249/1/303
f 577/1/564 583/1/565 582/1/566 581/1/567
f 116/1/248 120/1/250 112/1/67 111/1/568
f 520/1/431 534/1/373 299/1/327 300/1/326
f 379/1/547 381/1/466 373/1/465 372/1/488
f 299/1/327 305/1/374 286/1/481 294/1/328
f 282/1/489 283/1/554 117/1/69 275/1/557
f 337/1/527 344/1/526 315/1/537 314/1/569
f 422/1/76 466/1/498 423/1/523 417/1/108
f 389/1/472 390/1/451 328/1/461 382/1/473
f 494/1/405 502/1/511 501/1/426 496/1/406
f 167/1/485 168/1/277 149/1/276 163/1/474
f 92/1/111 93/1/84 72/1/95 84/1/181
f 443/1/44 451/1/17 449/1/16 450/1/570
f 440/1/359 399/1/421 446/1/360
f 586/1/571 587/1/572 582/1/566 583/1/565
f 431/1/335 439/1/334 437/1/43 438/1/45
f 252/1/305 280/1/516 273/1/340 251/1/452
f 392/1/425 400/1/423 195/1/411 385/1/410
f 446/1/360 406/1/448 452/1/402
f 406/1/448 430/1/573 453/1/372
f 487/1/541 488/1/543 457/1/574 482/1/30
f 127/1/272 151/1/25 150/1/301 135/1/273
f 374/1/464 321/1/562 316/1/401 367/1/260
f 318/1/261 367/1/260 316/1/401 311/1/353
f 145/1/288 155/1/240 154/1/239 147/1/32
f 432/1/358 445/1/357 424/1/206 426/1/205
f 455/1/136 494/1/405 447/1/404 448/1/137
f 97/1/396 104/1/534 102/1/531 103/1/167
f 341/1/323 347/1/322 336/1/318 305/1/374
f 336/1/318 347/1/322 342/1/291 325/1/290
f 211/1/210 234/1/209 202/1/346 206/1/380
f 463/1/471 387/1/544 464/1/535 433/1/538
f 112/1/67 113/1/70 67/1/458 111/1/568
f 182/1/62 184/1/61 162/1/336 174/1/238
f 393/1/365 394/1/367 386/1/545 388/1/546
f 460/1/575 465/1/497 461/1/576
f 384/1/424 405/1/449 399/1/421 392/1/425
f 389/1/472 463/1/471 433/1/538 427/1/521
f 59/1/577 111/1/568 67/1/458 60/1/459
f 469/1/463 382/1/473 321/1/562 374/1/464
f 253/1/413 259/1/437 164/1/444 170/1/332
f 307/1/376 520/1/431 300/1/326 241/1/377
f 422/1/76 472/1/75 471/1/281 466/1/498
f 157/1/24 194/1/434 177/1/518 169/1/331
f 162/1/336 184/1/61 167/1/485 163/1/474
f 274/1/223 275/1/557 126/1/432 268/1/385
f 372/1/488 375/1/487 380/1/536 379/1/547
f 379/1/547 386/1/545 387/1/544 381/1/466
f 135/1/273 156/1/302 136/1/386 128/1/274
f 14/1/40 17/1/50 11/1/282 10/1/243
f 279/1/304 284/1/395 280/1/516 252/1/305
f 321/1/562 382/1/473 328/1/461 322/1/354
f 424/1/206 445/1/357 444/1/403 439/1/334
f 356/1/222 323/1/221 317/1/352 303/1/351
f 393/1/365 293/1/491 485/1/366
f 372/1/488 373/1/465 366/1/259 365/1/227
f 366/1/259 373/1/465 374/1/464 367/1/260
f 482/1/30 481/1/29 487/1/541
f 43/1/285 132/1/268 51/1/105 44/1/6
f 320/1/224 344/1/526 330/1/469 323/1/221
f 461/1/576 467/1/522 462/1/85 453/1/372
f 485/1/366 293/1/491 493/1/532
f 454/1/131 459/1/58 444/1/403 452/1/402
f 306/1/317 285/1/482 286/1/481 305/1/374
f 430/1/573 460/1/575 461/1/576 453/1/372
f 317/1/352 324/1/470 318/1/261 311/1/353
f 267/1/384 320/1/224 274/1/223 268/1/385
f 175/1/363 201/1/362 185/1/381 176/1/23
f 355/1/525 331/1/578 324/1/470 330/1/469
f 331/1/578 360/1/262 318/1/261 324/1/470
f 150/1/301 170/1/332 164/1/444 156/1/302
f 487/1/541 481/1/29 503/1/447
f 229/1/231 230/1/316 222/1/63 221/1/66
f 504/1/446 245/1/375 505/1/563
f 192/1/60 210/1/397 200/1/361 193/1/364
f 497/1/514 524/1/495 506/1/494 499/1/280
f 507/1/496 468/1/256 465/1/497
f 98/1/82 129/1/26 106/1/1 99/1/4
f 177/1/518 248/1/414 170/1/332 169/1/331
f 359/1/228 360/1/262 331/1/578 354/1/579
f 377/1/420 378/1/55 188/1/54 370/1/419
f 250/1/412 257/1/453 258/1/298 253/1/413
f 504/1/446 509/1/445 245/1/375
f 338/1/580 355/1/525 337/1/527 333/1/539
f 493/1/532 293/1/491 512/1/533
f 509/1/445 513/1/454 245/1/375
f 202/1/346 243/1/345 177/1/518 194/1/434
f 423/1/523 460/1/575 430/1/573 410/1/524
f 245/1/375 513/1/454 514/1/512
f 2/1/13 29/1/177 3/1/188 1/1/225
f 197/1/383 210/1/397 192/1/60 198/1/59
f 313/1/246 314/1/569 309/1/435 308/1/247
f 512/1/533 293/1/491 518/1/438
f 350/1/530 361/1/229 359/1/228 354/1/579
f 350/1/530 354/1/579 338/1/580 343/1/529
f 412/1/311 416/1/202 351/1/164 409/1/163
f 205/1/379 224/1/315 211/1/210 206/1/380
f 126/1/432 275/1/557 117/1/69 118/1/68
f 518/1/438 293/1/491 521/1/439
f 327/1/519 343/1/529 338/1/580 333/1/539
f 521/1/439 293/1/491 523/1/520
f 310/1/436 315/1/537 267/1/384 260/1/387
f 520/1/431 538/1/430 539/1/509 534/1/373
f 333/1/539 337/1/527 314/1/569 313/1/246
f 523/1/520 293/1/491 529/1/508
f 338/1/580 354/1/579 331/1/578 355/1/525
f 506/1/494 531/1/257 468/1/256 507/1/496
f 134/1/294 143/1/278 120/1/250 125/1/249
f 473/1/218 476/1/86 462/1/85 467/1/522
f 309/1/435 314/1/569 315/1/537 310/1/436
f 428/1/134 448/1/137 419/1/476 421/1/478
f 529/1/508 293/1/491 536/1/389
f 59/1/577 58/1/271 116/1/248 111/1/568
f 401/1/347 413/1/468 408/1/457 402/1/348
f 52/1/106 58/1/271 59/1/577 53/1/120
f 532/1/255 537/1/254 533/1/307
f 59/1/577 60/1/459 54/1/125 53/1/120
f 423/1/523 466/1/498 465/1/497 460/1/575
f 406/1/448 453/1/372 454/1/131 452/1/402
f 538/1/430 533/1/307 537/1/254 539/1/509
f 341/1/323 540/1/443 541/1/320
f 246/1/378 241/1/377 232/1/211 231/1/314
f 293/1/491 353/1/399 544/1/390
f 293/1/491 544/1/390 536/1/389
f 518/1/438 515/1/441 508/1/510 512/1/533
f 266/1/266 258/1/298 257/1/453 265/1/263
f 365/1/227 366/1/259 360/1/262 359/1/228
f 122/1/20 123/1/308 115/1/90 114/1/89
f 259/1/437 310/1/436 260/1/387 164/1/444
f 308/1/247 309/1/435 302/1/297 296/1/296
f 308/1/247 296/1/296 295/1/493 301/1/244
f 290/1/265 295/1/493 296/1/296 266/1/266
f 410/1/524 430/1/573 406/1/448 404/1/540
f 468/1/256 467/1/522 461/1/576 465/1/497
f 552/1/581 553/1/582 554/1/583
f 553/1/582 555/1/584 554/1/583
f 553/1/582 556/1/585 555/1/584
f 553/1/582 557/1/586 556/1/585
f 554/1/583 555/1/584 558/1/587
f 556/1/585 559/1/588 555/1/584
f 558/1/587 555/1/584 560/1/589
f 559/1/588 561/1/590 555/1/584
f 560/1/589 555/1/584 562/1/591
f 561/1/590 563/1/592 555/1/584
f 562/1/591 555/1/584 564/1/593
f 562/1/591 564/1/593 565/1/594
f 563/1/592 566/1/595 555/1/584
f 564/1/593 567/1/370 565/1/594
f 564/1/593 568/1/371 567/1/370
f 565/1/594 567/1/370 569/1/596
f 566/1/595 570/1/597 555/1/584
f 43/1/285 44/1/6 36/1/5 37/1/343
f 570/1/597 573/1/598 555/1/584
f 555/1/584 574/1/599 575/1/600
f 555/1/584 576/1/601 574/1/599
f 555/1/584 573/1/598 576/1/601
f 555/1/584 575/1/600 577/1/564
f 555/1/584 577/1/564 578/1/602
f 137/1/41 144/1/21 121/1/28 130/1/27
f 577/1/564 581/1/567 578/1/602
f 376/1/480 377/1/420 370/1/419 369/1/418
f 586/1/571 591/1/561 590/1/560 587/1/572
f 580/1/506 572/1/369 571/1/368 579/1/507
f 222/1/63 224/1/315 205/1/379 217/1/64
f 12/1/46 21/1/48 2/1/13 8/1/12
f 594/1/558 599/1/603 598/1/604 595/1/559
f 589/1/501 585/1/505 584/1/504 588/1/502
f 592/1/499 596/1/552 593/1/500
f 606/1/605 609/1/606 607/1/104 598/1/604
f 414/1/467 435/1/486 420/1/309 415/1/312
f 597/1/550 601/1/607 600/1/551
f 597/1/550 602/1/608 601/1/607
f 597/1/550 603/1/609 602/1/608
f 597/1/550 604/1/610 603/1/609
f 449/1/16 482/1/30 457/1/574 450/1/570
f 598/1/604 599/1/603 606/1/605
f 258/1/298 302/1/297 259/1/437 253/1/413
f 607/1/104 609/1/606 610/1/611
f 605/1/103 608/1/612 604/1/610 597/1/550
f 607/1/104 610/1/611 612/1/613
f 607/1/104 613/1/614 611/1/101
f 607/1/104 612/1/613 613/1/614
f 608/1/612 605/1/103 614/1/615
f 614/1/615 605/1/103 616/1/616
f 615/1/102 617/1/617 605/1/103
f 616/1/616 605/1/103 618/1/618
f 617/1/617 619/1/619 605/1/103
f 618/1/618 605/1/103 620/1/620
f 605/1/103 621/1/621 620/1/620
f 619/1/619 621/1/621 605/1/103
f 90/1/196 100/1/191 83/1/184 82/1/187
