# Blender 4.3.2
# www.blender.org
o hair.044
v 6.754971 1.046050 -0.020907
v 6.752392 1.046166 -0.023208
v 6.754980 1.049332 -0.019980
v 6.754684 1.042122 -0.021148
v 6.752557 1.052499 -0.021118
v 6.754989 1.052484 -0.018472
v 6.751898 1.040410 -0.023340
v 6.754398 1.038840 -0.020808
v 6.752450 1.054337 -0.020188
v 6.754748 1.056043 -0.015724
v 6.749186 1.052585 -0.022784
v 6.749033 1.046765 -0.024266
v 6.751606 1.037927 -0.023093
v 6.753333 1.032257 -0.019890
v 6.748767 1.042048 -0.024592
v 6.748394 1.037341 -0.024017
v 6.752269 1.057992 -0.017475
v 6.749074 1.056074 -0.020943
v 6.748949 1.059153 -0.018393
v 6.752232 1.060039 -0.015084
v 6.754507 1.058741 -0.012463
v 6.750739 1.031845 -0.021984
v 6.752110 1.025673 -0.018668
v 6.749543 1.025467 -0.020475
v 6.747508 1.031790 -0.022858
v 6.746695 1.037728 -0.027774
v 6.748850 1.061871 -0.015435
v 6.752063 1.061980 -0.012392
v 6.748767 1.064224 -0.011765
v 6.751695 1.064147 -0.008521
v 6.754144 1.061387 -0.008303
v 6.746449 1.025708 -0.021039
v 6.750729 1.019090 -0.016834
v 6.748223 1.019158 -0.018462
v 6.745323 1.019731 -0.018818
v 6.746733 1.066442 -0.016599
v 6.746563 1.068684 -0.012670
v 6.748393 1.065833 -0.008363
v 6.746323 1.070128 -0.008903
v 6.751314 1.065436 -0.004319
v 6.753781 1.062899 -0.004144
v 6.744859 1.025397 -0.024374
v 6.749189 1.012506 -0.014695
v 6.743740 1.014818 -0.015513
v 6.743787 1.019025 -0.022119
v 6.744167 1.070892 -0.013296
v 6.744064 1.072129 -0.009288
v 6.748048 1.066811 -0.004308
v 6.746128 1.070927 -0.004395
v 6.750901 1.066062 0.000163
v 6.753335 1.063848 0.000239
v 6.745871 1.031752 -0.026453
v 6.740953 1.010823 -0.020993
v 6.744410 1.068841 -0.017374
v 6.744020 1.072734 -0.004445
v 6.747752 1.067048 0.000097
v 6.750375 1.066045 0.004634
v 6.752888 1.064041 0.004623
v 6.744742 1.036808 -0.030900
v 6.747087 1.043026 -0.028232
v 6.742006 1.017389 -0.024223
v 6.746917 1.063563 -0.019993
v 6.744674 1.065862 -0.021127
v 6.743907 1.072850 -0.000126
v 6.749845 1.065424 0.008488
v 6.752196 1.063533 0.008583
v 6.743028 1.023955 -0.027147
v 6.747002 1.061842 -0.021769
v 6.744836 1.062494 -0.024620
v 6.746045 1.070861 0.000027
v 6.749024 1.064038 0.012319
v 6.751155 1.062621 0.012382
v 6.747252 1.066774 0.004494
v 6.743987 1.030521 -0.029460
v 6.747132 1.058205 -0.024358
v 6.744975 1.058399 -0.027159
v 6.748526 1.062909 0.015277
v 6.750155 1.061670 0.015255
v 6.746351 1.066188 0.008342
v 6.745840 1.070461 0.004763
v 6.746274 1.064547 0.012580
v 6.745171 1.053444 -0.029260
v 6.747289 1.053911 -0.026360
v 6.745519 1.069701 0.008629
v 6.745810 1.065393 0.012710
v 6.743636 1.072583 0.004893
v 6.743330 1.071980 0.008662
v 6.746151 1.063325 0.015588
v 6.745155 1.042539 -0.031203
v 6.745085 1.068619 0.012778
v 6.744791 1.064049 0.017342
v 6.742984 1.071112 0.012617
v 6.746068 1.061738 0.017984
v 6.747275 1.048191 -0.027771
v 6.745279 1.047991 -0.030585
v 6.744318 1.067505 0.017212
v 6.743057 1.066065 0.021045
v 6.742712 1.062044 0.021446
v 6.742609 1.069823 0.016518
v 6.748285 1.061842 0.017340
v 6.746257 1.059509 0.019262
v 6.742260 1.068234 0.020535
v 6.741801 1.066690 0.021974
v 6.740986 1.064816 0.022674
v 6.738318 1.063845 0.023421
v 6.749090 1.060196 0.017277
v 6.750179 1.059079 0.015603
v 6.751155 1.062621 0.012382
v 6.749316 1.056223 0.016317
v 6.739741 1.070274 0.017235
v 6.739436 1.068993 0.019990
v 6.739724 1.066979 0.022212
v 6.737579 1.066867 0.021211
v 6.751168 1.059702 0.012488
v 6.752196 1.063533 0.008583
v 6.750495 1.057339 0.012774
v 6.740098 1.071725 0.013140
v 6.737575 1.069708 0.017491
v 6.737607 1.071344 0.013261
v 6.752109 1.060364 0.008975
v 6.752542 1.060752 0.005255
v 6.752888 1.064041 0.004623
v 6.750981 1.057755 0.009232
v 6.740467 1.072694 0.009701
v 6.737461 1.072290 0.010517
v 6.751283 1.057883 0.005690
v 6.752998 1.060716 0.001289
v 6.751257 1.057783 0.002274
v 6.753335 1.063848 0.000239
v 6.740642 1.073218 0.005704
v 6.737572 1.072643 0.005404
v 6.735167 1.074606 0.010718
v 6.736808 1.070841 0.015082
v 6.753276 1.059758 -0.002549
v 6.751372 1.057084 -0.001189
v 6.753781 1.062899 -0.004144
v 6.740787 1.073526 0.000321
v 6.737682 1.072831 0.000102
v 6.735313 1.075406 0.005413
v 6.734797 1.073301 0.015287
v 6.736394 1.069509 0.018506
v 6.754144 1.061387 -0.008303
v 6.753541 1.058616 -0.006355
v 6.751486 1.055731 -0.004527
v 6.740811 1.073244 -0.004271
v 6.737679 1.072363 -0.003963
v 6.735368 1.075335 -0.004359
v 6.735400 1.075733 -0.000043
v 6.731813 1.074997 0.015129
v 6.734469 1.071861 0.018919
v 6.735807 1.067917 0.021192
v 6.753615 1.057443 -0.008814
v 6.754507 1.058741 -0.012463
v 6.740843 1.072715 -0.008391
v 6.737723 1.071916 -0.007313
v 6.735374 1.074868 -0.007652
v 6.731958 1.076225 0.010783
v 6.731694 1.073604 0.018971
v 6.734220 1.070342 0.021821
v 6.733569 1.067709 0.023880
v 6.735118 1.066066 0.023198
v 6.753719 1.056041 -0.011261
v 6.754748 1.056043 -0.015724
v 6.740903 1.072161 -0.011169
v 6.732100 1.077191 0.005203
v 6.731576 1.071869 0.022193
v 6.731308 1.069426 0.024490
v 6.733565 1.064849 0.024534
v 6.731108 1.067235 0.025471
v 6.753743 1.054328 -0.012385
v 6.754225 1.054466 -0.005859
v 6.752110 1.055586 -0.000027
v 6.754989 1.052484 -0.018472
v 6.732102 1.077447 -0.000176
v 6.728793 1.071186 0.022175
v 6.728977 1.068753 0.024311
v 6.728253 1.065499 0.025170
v 6.755539 1.051878 -0.008007
v 6.754420 1.054216 -0.001659
v 6.753657 1.054551 0.003919
v 6.752669 1.055275 0.004474
v 6.732028 1.077223 -0.004612
v 6.728707 1.074400 0.015524
v 6.728765 1.072836 0.019254
v 6.727130 1.067488 0.023666
v 6.726666 1.069750 0.021545
v 6.755932 1.051658 -0.003263
v 6.754644 1.053787 0.003365
v 6.754039 1.054108 0.008423
v 6.753097 1.054632 0.008974
v 6.732013 1.076784 -0.007806
v 6.726393 1.071432 0.019266
v 6.726001 1.073415 0.015491
v 6.728621 1.076152 0.010505
v 6.756099 1.051211 0.002220
v 6.756061 1.050579 0.007039
v 6.754981 1.053045 0.007873
v 6.753379 1.053999 0.012488
v 6.732053 1.076044 -0.011112
v 6.725573 1.074714 0.011206
v 6.728680 1.076661 0.007546
v 6.755300 1.051810 0.012519
v 6.755911 1.049901 0.011053
v 6.754291 1.053506 0.012503
v 6.753428 1.053587 0.013195
v 6.735409 1.074269 -0.011005
v 6.735456 1.073170 -0.014261
v 6.732143 1.074915 -0.014681
v 6.728667 1.077067 0.003845
v 6.725573 1.075656 0.003469
v 6.755213 1.048144 0.012417
v 6.756061 1.050579 0.007039
v 6.753432 1.052817 0.013474
v 6.737767 1.071470 -0.010663
v 6.732231 1.073358 -0.018215
v 6.728644 1.077319 0.001189
v 6.728624 1.077294 -0.001317
v 6.755318 1.048594 0.007040
v 6.756099 1.051211 0.002220
v 6.753278 1.046814 0.013474
v 6.737773 1.070379 -0.013422
v 6.740924 1.071285 -0.013616
v 6.735507 1.071877 -0.017463
v 6.732263 1.071503 -0.021188
v 6.755424 1.048825 0.002000
v 6.755932 1.051658 -0.003263
v 6.753282 1.046040 0.013118
v 6.740944 1.070728 -0.015026
v 6.735584 1.070114 -0.020425
v 6.737780 1.069289 -0.016182
v 6.732265 1.069378 -0.023826
v 6.754723 1.047957 0.001915
v 6.755395 1.049136 -0.003576
v 6.755539 1.051878 -0.008007
v 6.754224 1.046465 0.012434
v 6.753332 1.045807 0.012301
v 6.735590 1.068098 -0.023019
v 6.737926 1.067689 -0.018971
v 6.741076 1.069681 -0.017110
v 6.735588 1.066007 -0.025459
v 6.732263 1.067122 -0.026354
v 6.754510 1.047384 0.007089
v 6.755177 1.049178 -0.009261
v 6.753702 1.046612 0.007139
v 6.737963 1.065835 -0.021412
v 6.737979 1.063967 -0.023681
v 6.741162 1.068845 -0.018563
v 6.741340 1.066384 -0.021719
v 6.735551 1.063700 -0.027648
v 6.732268 1.064537 -0.028728
v 6.754023 1.047128 0.001830
v 6.754931 1.049307 -0.013929
v 6.741441 1.063734 -0.024635
v 6.732292 1.061422 -0.030904
v 6.735615 1.061069 -0.029440
v 6.737904 1.062054 -0.025573
v 6.754075 1.047265 -0.003827
v 6.753993 1.047016 -0.009419
v 6.755014 1.045579 -0.015294
v 6.741462 1.061655 -0.026298
v 6.732303 1.057805 -0.032802
v 6.737998 1.060064 -0.026881
v 6.753993 1.045815 -0.009724
v 6.753993 1.044614 -0.010030
v 6.755030 1.041877 -0.015433
v 6.741543 1.059579 -0.027625
v 6.741484 1.058163 -0.028331
v 6.741627 1.053664 -0.030301
v 6.735570 1.057840 -0.031092
v 6.735583 1.053765 -0.032786
v 6.732267 1.053717 -0.034342
v 6.755400 1.042502 -0.010177
v 6.754191 1.044788 -0.006014
v 6.737881 1.057345 -0.028235
v 6.737942 1.053424 -0.030028
v 6.735529 1.048838 -0.033990
v 6.732207 1.048957 -0.035474
v 6.755612 1.042708 -0.006103
v 6.755519 1.039871 -0.010165
v 6.754282 1.044846 -0.002276
v 6.741372 1.042758 -0.031805
v 6.741617 1.048374 -0.031624
v 6.737857 1.048567 -0.031280
v 6.732147 1.043326 -0.036146
v 6.735433 1.043142 -0.034154
v 6.755737 1.042792 -0.002289
v 6.755746 1.040096 -0.006105
v 6.754294 1.044755 0.001524
v 6.737633 1.043044 -0.031010
v 6.740926 1.036846 -0.031013
v 6.731986 1.037066 -0.035887
v 6.735227 1.036966 -0.033347
v 6.755737 1.042660 0.001639
v 6.755906 1.040197 -0.002280
v 6.755540 1.042327 0.005376
v 6.753975 1.044413 0.005203
v 6.737305 1.037127 -0.029762
v 6.740310 1.030624 -0.029431
v 6.736909 1.031093 -0.028080
v 6.734855 1.030562 -0.031647
v 6.731622 1.030418 -0.034229
v 6.755901 1.040003 0.001674
v 6.755855 1.039621 0.005381
v 6.753501 1.043831 0.009604
v 6.754358 1.042990 0.009568
v 6.739600 1.024245 -0.027197
v 6.736475 1.024999 -0.025962
v 6.734394 1.024050 -0.029252
v 6.731157 1.023575 -0.031567
v 6.755714 1.039149 0.009235
v 6.754013 1.042557 0.012563
v 6.753121 1.043371 0.012530
v 6.755214 1.041740 0.009533
v 6.754904 1.041194 0.012596
v 6.736032 1.018906 -0.023406
v 6.733922 1.017568 -0.026653
v 6.730692 1.016732 -0.028293
v 6.755648 1.038840 0.011053
v 6.753033 1.042991 0.013206
v 6.754644 1.037033 0.012646
v 6.752997 1.042259 0.013474
v 6.738870 1.017897 -0.024451
v 6.735587 1.012812 -0.020631
v 6.730227 1.009889 -0.024714
v 6.755021 1.036832 0.009247
v 6.752986 1.035737 0.013474
v 6.753003 1.035000 0.013143
v 6.753850 1.035545 0.012503
v 6.755204 1.037171 0.005390
v 6.754116 1.035775 0.009282
v 6.753044 1.034759 0.012373
v 6.753510 1.035845 0.001712
v 6.755275 1.037494 0.001664
v 6.753421 1.035593 0.005444
v 6.753210 1.035127 0.009316
v 6.753288 1.035842 -0.002135
v 6.755163 1.037583 -0.002239
v 6.752980 1.035672 -0.005917
v 6.754921 1.037435 -0.006039
v 6.752594 1.035422 -0.010014
v 6.754607 1.037187 -0.010116
v 6.752166 1.032549 -0.010601
v 6.753506 1.032339 -0.015170
v 6.754267 1.036787 -0.015359
v 6.752381 1.025911 -0.014978
v 6.751222 1.026191 -0.011900
v 6.750185 1.019215 -0.013325
v 6.751213 1.019222 -0.014780
v 6.722466 1.076661 0.007546
v 6.722479 1.077067 0.003845
v 6.722502 1.077319 0.001189
v 6.725573 1.075617 -0.001411
v 6.722522 1.077294 -0.001317
v 6.719045 1.077191 0.005203
v 6.722526 1.076152 0.010505
v 6.722439 1.074400 0.015524
v 6.725145 1.073415 0.015491
v 6.719044 1.077447 -0.000176
v 6.722551 1.077125 -0.003083
v 6.725573 1.075309 -0.005547
v 6.728595 1.077125 -0.003083
v 6.719118 1.077223 -0.004612
v 6.719188 1.076225 0.010783
v 6.719333 1.074997 0.015129
v 6.719451 1.073604 0.018971
v 6.722381 1.072836 0.019254
v 6.724753 1.071432 0.019266
v 6.722555 1.076719 -0.006792
v 6.725573 1.074715 -0.009187
v 6.728591 1.076719 -0.006792
v 6.719133 1.076784 -0.007806
v 6.722353 1.071186 0.022175
v 6.719570 1.071869 0.022193
v 6.724480 1.069750 0.021545
v 6.722528 1.076041 -0.010301
v 6.725573 1.073819 -0.012581
v 6.728618 1.076041 -0.010301
v 6.719093 1.076044 -0.011112
v 6.719837 1.069426 0.024490
v 6.716926 1.070342 0.021821
v 6.722169 1.068753 0.024311
v 6.724016 1.067488 0.023666
v 6.719003 1.074915 -0.014681
v 6.722489 1.075029 -0.013897
v 6.732143 1.074915 -0.014681
v 6.728657 1.075029 -0.013897
v 6.720038 1.067235 0.025471
v 6.717577 1.067709 0.023880
v 6.716677 1.071861 0.018919
v 6.715339 1.067917 0.021192
v 6.722893 1.065499 0.025170
v 6.718915 1.073358 -0.018215
v 6.722721 1.073563 -0.016698
v 6.725573 1.072525 -0.015742
v 6.732231 1.073358 -0.018215
v 6.717580 1.064849 0.024534
v 6.716027 1.066066 0.023198
v 6.714751 1.069509 0.018506
v 6.716349 1.073301 0.015287
v 6.715979 1.074606 0.010718
v 6.722455 1.071378 -0.020728
v 6.718883 1.071503 -0.021188
v 6.725573 1.070737 -0.018684
v 6.714338 1.070841 0.015082
v 6.715832 1.075406 0.005413
v 6.713685 1.072290 0.010517
v 6.713574 1.072643 0.005404
v 6.721918 1.069304 -0.023745
v 6.725573 1.068007 -0.022628
v 6.718881 1.069378 -0.023826
v 6.728425 1.073563 -0.016698
v 6.728691 1.071378 -0.020728
v 6.715746 1.075733 -0.000043
v 6.722456 1.066670 -0.026280
v 6.718883 1.067122 -0.026354
v 6.732263 1.071503 -0.021188
v 6.729228 1.069304 -0.023745
v 6.715778 1.075335 -0.004359
v 6.713464 1.072831 0.000102
v 6.725573 1.064545 -0.025985
v 6.722706 1.063088 -0.029142
v 6.718878 1.064537 -0.028728
v 6.732265 1.069378 -0.023826
v 6.732263 1.067122 -0.026354
v 6.728690 1.066670 -0.026280
v 6.715772 1.074868 -0.007652
v 6.722417 1.060350 -0.031031
v 6.725573 1.061977 -0.028261
v 6.728440 1.063088 -0.029142
v 6.718854 1.061422 -0.030904
v 6.732268 1.064537 -0.028728
v 6.710504 1.073218 0.005704
v 6.710679 1.072694 0.009701
v 6.725573 1.059232 -0.030104
v 6.728728 1.060350 -0.031031
v 6.718843 1.057805 -0.032802
v 6.732292 1.061422 -0.030904
v 6.707817 1.071980 0.008662
v 6.711049 1.071725 0.013140
v 6.713540 1.071344 0.013261
v 6.710360 1.073526 0.000321
v 6.713467 1.072363 -0.003963
v 6.725573 1.056193 -0.031644
v 6.722416 1.053280 -0.034192
v 6.718879 1.053717 -0.034342
v 6.722399 1.057045 -0.032731
v 6.711405 1.070274 0.017235
v 6.713572 1.069708 0.017491
v 6.718938 1.048957 -0.035474
v 6.728730 1.053280 -0.034192
v 6.728747 1.057045 -0.032731
v 6.708886 1.068234 0.020535
v 6.711710 1.068993 0.019990
v 6.708537 1.069823 0.016518
v 6.713567 1.066867 0.021211
v 6.715737 1.074269 -0.011005
v 6.713423 1.071916 -0.007313
v 6.711422 1.066979 0.022212
v 6.708162 1.071112 0.012617
v 6.712843 1.063829 0.023439
v 6.719003 1.074915 -0.014681
v 6.715690 1.073170 -0.014261
v 6.713379 1.071470 -0.010663
v 6.710335 1.073244 -0.004271
v 6.725573 1.052741 -0.033009
v 6.707510 1.072583 0.004893
v 6.710160 1.064816 0.022674
v 6.708435 1.062044 0.021446
v 6.718915 1.073358 -0.018215
v 6.710302 1.072715 -0.008391
v 6.707126 1.072734 -0.004445
v 6.725573 1.048517 -0.033681
v 6.722486 1.048734 -0.035034
v 6.728659 1.048734 -0.035034
v 6.707239 1.072850 -0.000126
v 6.708089 1.066065 0.021045
v 6.706356 1.064049 0.017342
v 6.707082 1.072129 -0.009288
v 6.710243 1.072161 -0.011169
v 6.722605 1.043163 -0.034868
v 6.718998 1.043326 -0.036146
v 6.728541 1.043163 -0.034868
v 6.706828 1.067505 0.017212
v 6.706060 1.068619 0.012778
v 6.705337 1.065393 0.012710
v 6.706979 1.070892 -0.013296
v 6.713373 1.070379 -0.013422
v 6.719160 1.037066 -0.035887
v 6.725573 1.043164 -0.033144
v 6.705627 1.069701 0.008629
v 6.704795 1.066188 0.008342
v 6.715639 1.071877 -0.017463
v 6.722764 1.037017 -0.033812
v 6.722985 1.030702 -0.031992
v 6.719524 1.030418 -0.034229
v 6.709345 1.066690 0.021974
v 6.718883 1.071503 -0.021188
v 6.725573 1.037196 -0.031767
v 6.719989 1.023575 -0.031567
v 6.715562 1.070114 -0.020425
v 6.718881 1.069378 -0.023826
v 6.723233 1.024305 -0.029548
v 6.723478 1.017943 -0.026923
v 6.720454 1.016732 -0.028293
v 6.705306 1.070461 0.004763
v 6.713367 1.069289 -0.016182
v 6.725573 1.031132 -0.029923
v 6.725573 1.025019 -0.027627
v 6.720919 1.009889 -0.024714
v 6.728382 1.037017 -0.033812
v 6.705101 1.070861 0.000027
v 6.703894 1.066774 0.004494
v 6.701301 1.065424 0.008488
v 6.704872 1.064547 0.012580
v 6.728161 1.030702 -0.031992
v 6.725573 1.012793 -0.021940
v 6.705018 1.070927 -0.004395
v 6.703393 1.067048 0.000097
v 6.700771 1.066045 0.004634
v 6.700245 1.066062 0.000163
v 6.702122 1.064038 0.012319
v 6.704994 1.063325 0.015588
v 6.725573 1.018906 -0.024893
v 6.727668 1.017943 -0.026923
v 6.702621 1.062909 0.015277
v 6.705079 1.061738 0.017984
v 6.727912 1.024305 -0.029548
v 6.704823 1.070128 -0.008903
v 6.704583 1.068684 -0.012670
v 6.699991 1.062621 0.012382
v 6.700991 1.061670 0.015255
v 6.702861 1.061842 0.017340
v 6.704919 1.059567 0.019273
v 6.703098 1.066811 -0.004308
v 6.704413 1.066442 -0.016599
v 6.706737 1.068841 -0.017374
v 6.698950 1.063533 0.008583
v 6.702056 1.060196 0.017277
v 6.699991 1.062621 0.012382
v 6.700966 1.059079 0.015603
v 6.701829 1.056223 0.016317
v 6.699832 1.065436 -0.004319
v 6.704229 1.063563 -0.019993
v 6.706472 1.065862 -0.021127
v 6.698258 1.064041 0.004623
v 6.699978 1.059702 0.012488
v 6.698950 1.063533 0.008583
v 6.700651 1.057339 0.012774
v 6.697812 1.063848 0.000239
v 6.697365 1.062899 -0.004144
v 6.704144 1.061842 -0.021769
v 6.702197 1.059153 -0.018393
v 6.706310 1.062494 -0.024620
v 6.699037 1.060364 0.008975
v 6.698604 1.060752 0.005255
v 6.698258 1.064041 0.004623
v 6.700165 1.057755 0.009232
v 6.697002 1.061387 -0.008303
v 6.704014 1.058205 -0.024358
v 6.702072 1.056074 -0.020943
v 6.702296 1.061871 -0.015435
v 6.706171 1.058399 -0.027159
v 6.699863 1.057883 0.005690
v 6.698148 1.060716 0.001289
v 6.697812 1.063848 0.000239
v 6.699451 1.064147 -0.008521
v 6.696640 1.058741 -0.012463
v 6.702379 1.064224 -0.011765
v 6.705975 1.053444 -0.029260
v 6.699889 1.057783 0.002274
v 6.697870 1.059758 -0.002549
v 6.697365 1.062899 -0.004144
v 6.699083 1.061980 -0.012392
v 6.702753 1.065833 -0.008363
v 6.698914 1.060039 -0.015084
v 6.696398 1.056043 -0.015724
v 6.705867 1.047991 -0.030585
v 6.703871 1.048191 -0.027771
v 6.703857 1.053911 -0.026360
v 6.699774 1.057084 -0.001189
v 6.697002 1.061387 -0.008303
v 6.698877 1.057992 -0.017475
v 6.698696 1.054337 -0.020188
v 6.696157 1.052484 -0.018472
v 6.705991 1.042539 -0.031203
v 6.701960 1.052585 -0.022784
v 6.697605 1.058616 -0.006355
v 6.699660 1.055731 -0.004527
v 6.698589 1.052499 -0.021118
v 6.696166 1.049332 -0.019980
v 6.704059 1.043026 -0.028232
v 6.706404 1.036808 -0.030900
v 6.702113 1.046765 -0.024266
v 6.697531 1.057443 -0.008814
v 6.698754 1.046166 -0.023208
v 6.696175 1.046050 -0.020907
v 6.704451 1.037728 -0.027774
v 6.705275 1.031752 -0.026453
v 6.707160 1.030521 -0.029460
v 6.702379 1.042048 -0.024592
v 6.696640 1.058741 -0.012463
v 6.697427 1.056041 -0.011261
v 6.696462 1.042122 -0.021148
v 6.699248 1.040410 -0.023340
v 6.703639 1.031790 -0.022858
v 6.702752 1.037341 -0.024017
v 6.708118 1.023955 -0.027147
v 6.706287 1.025397 -0.024374
v 6.696398 1.056043 -0.015724
v 6.697403 1.054328 -0.012385
v 6.696921 1.054466 -0.005859
v 6.699036 1.055586 -0.000027
v 6.696748 1.038840 -0.020808
v 6.699541 1.037927 -0.023093
v 6.700407 1.031845 -0.021984
v 6.704697 1.025708 -0.021039
v 6.707359 1.019025 -0.022119
v 6.709140 1.017389 -0.024223
v 6.705823 1.019731 -0.018818
v 6.696157 1.052484 -0.018472
v 6.695606 1.051878 -0.008007
v 6.696726 1.054216 -0.001659
v 6.697489 1.054551 0.003919
v 6.698476 1.055275 0.004474
v 6.697813 1.032257 -0.019890
v 6.701603 1.025467 -0.020475
v 6.710193 1.010823 -0.020993
v 6.707406 1.014818 -0.015513
v 6.702923 1.019158 -0.018462
v 6.695213 1.051658 -0.003263
v 6.696502 1.053787 0.003365
v 6.696166 1.053045 0.007873
v 6.697107 1.054108 0.008423
v 6.698049 1.054632 0.008974
v 6.699036 1.025673 -0.018668
v 6.700417 1.019090 -0.016834
v 6.701957 1.012506 -0.014695
v 6.695047 1.051211 0.002220
v 6.695085 1.050579 0.007039
v 6.695847 1.051810 0.012519
v 6.696855 1.053506 0.012503
v 6.697767 1.053999 0.012488
v 6.695234 1.049901 0.011053
v 6.695933 1.048144 0.012417
v 6.697713 1.052817 0.013474
v 6.697718 1.053587 0.013195
v 6.695085 1.050579 0.007039
v 6.695828 1.048594 0.007040
v 6.696922 1.046465 0.012434
v 6.697864 1.046040 0.013118
v 6.697868 1.046814 0.013474
v 6.695047 1.051211 0.002220
v 6.696636 1.047384 0.007089
v 6.696423 1.047957 0.001915
v 6.695722 1.048825 0.002000
v 6.697814 1.045807 0.012301
v 6.695213 1.051658 -0.003263
v 6.695751 1.049136 -0.003576
v 6.697071 1.047265 -0.003827
v 6.697123 1.047128 0.001830
v 6.697443 1.046612 0.007139
v 6.695606 1.051878 -0.008007
v 6.697154 1.047016 -0.009419
v 6.695968 1.049178 -0.009261
v 6.696132 1.045579 -0.015294
v 6.697154 1.045815 -0.009724
v 6.696215 1.049307 -0.013929
v 6.697154 1.044615 -0.010030
v 6.696116 1.041877 -0.015433
v 6.695746 1.042502 -0.010177
v 6.696955 1.044788 -0.006014
v 6.695534 1.042708 -0.006103
v 6.695627 1.039871 -0.010165
v 6.696864 1.044846 -0.002276
v 6.695408 1.042792 -0.002289
v 6.695400 1.040096 -0.006105
v 6.696852 1.044755 0.001524
v 6.695409 1.042660 0.001639
v 6.695240 1.040197 -0.002280
v 6.695606 1.042327 0.005376
v 6.697171 1.044413 0.005203
v 6.695244 1.040003 0.001674
v 6.695291 1.039621 0.005381
v 6.696788 1.042990 0.009568
v 6.695932 1.041740 0.009533
v 6.695431 1.039149 0.009235
v 6.697644 1.043831 0.009604
v 6.695498 1.038840 0.011053
v 6.696242 1.041194 0.012596
v 6.697133 1.042557 0.012563
v 6.698025 1.043371 0.012530
v 6.696125 1.036832 0.009247
v 6.696502 1.037033 0.012646
v 6.698113 1.042991 0.013206
v 6.698149 1.042259 0.013474
v 6.695941 1.037171 0.005390
v 6.697031 1.035775 0.009282
v 6.697295 1.035545 0.012503
v 6.698143 1.035000 0.013143
v 6.698160 1.035737 0.013474
v 6.695871 1.037494 0.001664
v 6.697637 1.035845 0.001712
v 6.697725 1.035593 0.005444
v 6.698102 1.034759 0.012373
v 6.697936 1.035127 0.009316
v 6.697858 1.035842 -0.002135
v 6.695983 1.037583 -0.002239
v 6.698166 1.035672 -0.005917
v 6.696225 1.037435 -0.006039
v 6.698553 1.035422 -0.010014
v 6.696538 1.037187 -0.010116
v 6.697640 1.032339 -0.015170
v 6.698979 1.032549 -0.010601
v 6.696878 1.036787 -0.015359
v 6.698765 1.025911 -0.014978
v 6.699924 1.026191 -0.011900
v 6.699934 1.019222 -0.014780
v 6.700960 1.019215 -0.013325
v 6.710201 1.070728 -0.015026
v 6.710070 1.069681 -0.017110
v 6.713220 1.067689 -0.018971
v 6.710222 1.071285 -0.013616
v 6.709983 1.068845 -0.018563
v 6.709805 1.066384 -0.021719
v 6.713183 1.065835 -0.021412
v 6.715556 1.068098 -0.023019
v 6.713167 1.063967 -0.023681
v 6.709705 1.063734 -0.024635
v 6.715558 1.066007 -0.025459
v 6.718883 1.067122 -0.026354
v 6.715595 1.063700 -0.027648
v 6.713242 1.062054 -0.025573
v 6.709684 1.061655 -0.026298
v 6.718878 1.064537 -0.028728
v 6.718854 1.061422 -0.030904
v 6.715531 1.061069 -0.029440
v 6.713149 1.060064 -0.026881
v 6.709603 1.059579 -0.027625
v 6.709519 1.053664 -0.030301
v 6.709662 1.058163 -0.028331
v 6.715575 1.057840 -0.031092
v 6.713265 1.057345 -0.028235
v 6.709529 1.048374 -0.031624
v 6.713204 1.053424 -0.030028
v 6.715563 1.053765 -0.032786
v 6.709774 1.042758 -0.031805
v 6.713289 1.048567 -0.031280
v 6.713513 1.043044 -0.031010
v 6.715617 1.048838 -0.033990
v 6.710220 1.036846 -0.031013
v 6.715714 1.043142 -0.034154
v 6.713841 1.037127 -0.029762
v 6.715919 1.036966 -0.033347
v 6.710836 1.030624 -0.029431
v 6.714237 1.031093 -0.028080
v 6.716291 1.030562 -0.031647
v 6.711546 1.024245 -0.027197
v 6.714671 1.024999 -0.025962
v 6.716753 1.024050 -0.029252
v 6.712276 1.017897 -0.024451
v 6.715113 1.018906 -0.023406
v 6.717224 1.017568 -0.026653
v 6.715559 1.012812 -0.020631
v 6.754075 1.047265 -0.003827
v 6.754023 1.047128 0.001830
v 6.725573 1.045866 -0.006865
v 6.753993 1.047016 -0.009419
v 6.753702 1.046612 0.007139
v 6.753993 1.045815 -0.009724
v 6.753332 1.045807 0.012301
v 6.753993 1.044614 -0.010030
v 6.753282 1.046040 0.013118
v 6.754191 1.044788 -0.006014
v 6.753278 1.046814 0.013474
v 6.754282 1.044846 -0.002276
v 6.753432 1.052817 0.013474
v 6.754294 1.044755 0.001524
v 6.753428 1.053587 0.013195
v 6.753975 1.044413 0.005203
v 6.753379 1.053999 0.012488
v 6.753501 1.043831 0.009604
v 6.753097 1.054632 0.008974
v 6.753121 1.043371 0.012530
v 6.752669 1.055275 0.004474
v 6.753033 1.042991 0.013206
v 6.752110 1.055586 -0.000027
v 6.752997 1.042259 0.013474
v 6.751486 1.055731 -0.004527
v 6.752986 1.035737 0.013474
v 6.753003 1.035000 0.013143
v 6.753044 1.034759 0.012373
v 6.753210 1.035127 0.009316
v 6.753421 1.035593 0.005444
v 6.753510 1.035845 0.001712
v 6.753288 1.035842 -0.002135
v 6.752980 1.035672 -0.005917
v 6.752594 1.035422 -0.010014
v 6.752166 1.032549 -0.010601
v 6.750185 1.019215 -0.013325
v 6.751222 1.026191 -0.011900
v 6.749189 1.012506 -0.014695
v 6.743740 1.014818 -0.015513
v 6.736809 1.018207 -0.014518
v 6.740953 1.010823 -0.020993
v 6.735587 1.012812 -0.020631
v 6.730227 1.009889 -0.024714
v 6.725573 1.015277 -0.015394
v 6.725573 1.012793 -0.021940
v 6.720919 1.009889 -0.024714
v 6.714337 1.018207 -0.014518
v 6.715559 1.012812 -0.020631
v 6.707406 1.014818 -0.015513
v 6.710193 1.010823 -0.020993
v 6.701957 1.012506 -0.014695
v 6.700960 1.019215 -0.013325
v 6.699924 1.026191 -0.011900
v 6.698979 1.032549 -0.010601
v 6.698553 1.035422 -0.010014
v 6.698166 1.035672 -0.005917
v 6.697858 1.035842 -0.002135
v 6.697637 1.035845 0.001712
v 6.697725 1.035593 0.005444
v 6.697936 1.035127 0.009316
v 6.698102 1.034759 0.012373
v 6.698143 1.035000 0.013143
v 6.698160 1.035737 0.013474
v 6.698149 1.042259 0.013474
v 6.698113 1.042991 0.013206
v 6.698025 1.043371 0.012530
v 6.697644 1.043831 0.009604
v 6.697171 1.044413 0.005203
v 6.696852 1.044755 0.001524
v 6.696864 1.044846 -0.002276
v 6.696955 1.044788 -0.006014
v 6.697154 1.044615 -0.010030
v 6.697154 1.045815 -0.009724
v 6.697154 1.047016 -0.009419
v 6.697071 1.047265 -0.003827
v 6.697123 1.047128 0.001830
v 6.697443 1.046612 0.007139
v 6.697814 1.045807 0.012301
v 6.697864 1.046040 0.013118
v 6.697868 1.046814 0.013474
v 6.697713 1.052817 0.013474
v 6.698049 1.054632 0.008974
v 6.697767 1.053999 0.012488
v 6.697718 1.053587 0.013195
v 6.698476 1.055275 0.004474
v 6.699036 1.055586 -0.000027
v 6.699660 1.055731 -0.004527
vn 0.8968 0.0468 -0.4400
vn 0.5111 0.1107 -0.8524
vn 0.9032 0.1460 -0.4036
vn -0.5111 0.1107 -0.8524
vn -0.4944 -0.0913 -0.8644
vn -0.8885 -0.0686 -0.4537
vn -0.8968 0.0468 -0.4400
vn 0.5474 0.3301 -0.7690
vn -0.9281 0.1435 0.3435
vn -0.7963 0.1557 0.5846
vn -0.5116 0.6575 0.5531
vn -0.8651 0.3926 0.3123
vn -0.4826 -0.1828 -0.8565
vn -0.8882 -0.1663 -0.4284
vn 0.1759 0.9284 0.3274
vn 0.2017 0.9515 0.2321
vn -0.2210 0.9487 0.2262
vn -0.2499 0.9034 0.3483
vn 0.7968 0.5932 -0.1148
vn 0.7172 0.6728 -0.1813
vn 0.7135 0.6303 -0.3059
vn 0.8088 0.5497 -0.2091
vn 0.3683 -0.3192 -0.8732
vn 0.4456 -0.2553 -0.8580
vn 0.8749 -0.2259 -0.4284
vn 0.8417 -0.2729 -0.4659
vn 0.8537 -0.4875 0.1828
vn 0.9426 -0.2968 0.1532
vn 0.9565 -0.2683 0.1146
vn 0.8781 -0.4672 0.1035
vn -0.6738 -0.0588 -0.7365
vn -0.6895 0.0943 -0.7181
vn -0.6430 -0.1960 -0.7403
vn -0.0246 0.9272 0.3739
vn 0.2386 0.8809 0.4088
vn 0.1256 0.9406 0.3156
vn -0.0698 0.9475 0.3120
vn -0.5950 0.6428 -0.4824
vn -0.5790 0.5738 -0.5793
vn -0.7281 0.4900 -0.4794
vn -0.7431 0.5649 -0.3587
vn -0.3683 -0.3192 -0.8732
vn -0.8417 -0.2729 -0.4659
vn -0.8749 -0.2259 -0.4284
vn -0.4456 -0.2553 -0.8580
vn -0.4454 0.8350 -0.3230
vn -0.4752 0.7550 -0.4518
vn -0.8196 0.4881 -0.3000
vn -0.8088 0.5497 -0.2091
vn -0.0472 0.9118 -0.4078
vn 0.3306 0.8493 -0.4116
vn 0.3027 0.8906 -0.3394
vn -0.0593 0.9353 -0.3489
vn -0.6219 -0.2779 -0.7321
vn -0.8742 -0.1553 -0.4600
vn -0.8715 -0.2424 -0.4262
vn 0.6091 -0.7893 0.0768
vn 0.6825 -0.7283 -0.0622
vn 0.7675 -0.6396 -0.0431
vn 0.7406 -0.6120 0.2775
vn 0.5950 0.6428 -0.4824
vn 0.6010 0.6962 -0.3925
vn 0.7431 0.5649 -0.3587
vn 0.3673 0.4808 0.7962
vn -0.1000 0.1447 0.9844
vn 0.2536 0.1374 0.9575
vn 0.4742 0.4200 0.7738
vn -0.5706 0.3318 0.7512
vn -0.6292 0.2758 0.7267
vn -0.4267 0.0650 0.9021
vn 0.3140 0.9191 -0.2380
vn 0.6318 0.7278 -0.2667
vn 0.6319 0.7520 -0.1878
vn -0.8430 -0.5370 -0.0302
vn -0.8366 -0.5471 -0.0285
vn -0.8220 -0.5588 0.1099
vn -0.6703 -0.7419 -0.0147
vn -0.5455 -0.4561 -0.7032
vn -0.2452 -0.4185 -0.8745
vn -0.5833 -0.3359 -0.7395
vn -0.6717 0.7401 -0.0321
vn -0.7053 0.7089 0.0008
vn -0.5244 0.8514 0.0112
vn -0.9426 0.2931 0.1599
vn 0.8885 -0.0686 -0.4537
vn 0.4944 -0.0913 -0.8644
vn -0.7172 0.6728 -0.1813
vn -0.7135 0.6303 -0.3059
vn -0.6010 0.6962 -0.3925
vn -0.5885 0.7628 -0.2679
vn -0.7968 0.5932 -0.1148
vn -0.5537 0.8230 -0.1267
vn -0.7406 0.6279 -0.2392
vn -0.7163 0.6881 -0.1155
vn -0.8678 -0.2855 -0.4066
vn -0.8706 -0.3322 -0.3628
vn 0.7978 -0.3245 -0.5082
vn 0.4109 -0.5453 -0.7306
vn 0.2452 -0.4185 -0.8745
vn -0.5060 -0.5485 -0.6657
vn -0.4109 -0.5453 -0.7306
vn 0.8882 -0.1663 -0.4284
vn 0.4826 -0.1828 -0.8565
vn -0.4206 0.8878 -0.1866
vn -0.7015 0.7094 -0.0687
vn -0.7958 0.6051 -0.0231
vn 0.0745 0.5824 -0.8095
vn 0.0836 0.4909 -0.8672
vn 0.3584 0.4729 -0.8049
vn 0.3760 0.5762 -0.7257
vn -0.4282 0.9013 -0.0652
vn -0.6755 0.7373 -0.0067
vn -0.4978 0.8673 -0.0015
vn 0.6491 0.7559 -0.0851
vn 0.2212 0.9700 -0.1012
vn 0.2261 0.9741 -0.0066
vn 0.6399 0.7684 -0.0099
vn -0.6731 0.7386 0.0370
vn 0.5455 -0.4561 -0.7032
vn 0.8706 -0.3322 -0.3628
vn 0.8678 -0.2855 -0.4066
vn 0.5833 -0.3359 -0.7395
vn -0.1610 0.4066 -0.8993
vn -0.5985 0.3349 -0.7278
vn -0.5896 0.4145 -0.6932
vn -0.4000 0.4697 -0.7870
vn -0.3304 0.7823 -0.5281
vn 0.0065 0.8302 -0.5575
vn 0.0253 0.8798 -0.4747
vn -0.3306 0.8493 -0.4116
vn -0.2967 0.0927 -0.9505
vn 0.1423 0.1382 -0.9801
vn 0.1064 -0.0168 -0.9942
vn -0.4161 -0.0627 -0.9071
vn 0.4389 -0.5254 -0.7289
vn 0.4399 -0.4497 -0.7773
vn 0.2172 0.9623 -0.1638
vn 0.2144 0.9463 -0.2421
vn -0.2602 0.9386 -0.2264
vn -0.2658 0.9527 -0.1471
vn 0.5980 0.6206 -0.5072
vn 0.3388 0.7292 -0.5945
vn 0.3488 0.6744 -0.6507
vn 0.5847 0.5843 -0.5627
vn 0.3361 0.9416 -0.0210
vn 0.3186 0.9419 -0.1063
vn 0.5537 0.8230 -0.1267
vn 0.7163 0.6881 -0.1155
vn 0.7406 0.6279 -0.2392
vn 0.5885 0.7628 -0.2679
vn -0.0975 0.8272 -0.5534
vn -0.0733 0.7605 -0.6452
vn -0.2484 0.7388 -0.6264
vn -0.2842 0.7970 -0.5329
vn -0.5051 0.6653 -0.5498
vn -0.5193 0.5512 -0.6531
vn -0.8340 0.3843 -0.3958
vn -0.8301 0.4332 -0.3511
vn 0.8340 0.3843 -0.3958
vn 0.8301 0.4332 -0.3511
vn 0.7147 0.4947 -0.4944
vn -0.7126 0.4018 -0.5751
vn -0.7147 0.4947 -0.4944
vn -0.8357 0.3009 -0.4594
vn 0.5092 -0.1863 -0.8403
vn -0.1350 -0.1775 -0.9748
vn -0.0276 -0.0468 -0.9985
vn 0.5410 -0.0324 -0.8404
vn -0.6578 0.7366 0.1572
vn -0.4407 0.8879 0.1317
vn -0.3991 0.8719 0.2838
vn -0.6950 0.6693 0.2627
vn -0.7243 -0.3000 -0.6208
vn -0.3009 -0.3571 -0.8843
vn -0.3185 -0.2963 -0.9004
vn -0.7391 -0.2469 -0.6267
vn -0.5526 0.2712 -0.7881
vn -0.8401 0.2005 -0.5041
vn -0.5354 0.4046 -0.7414
vn -0.5360 0.7534 0.3809
vn -0.7987 0.3890 0.4590
vn -0.3919 0.7930 0.4665
vn -0.3711 0.8465 0.3818
vn -0.1991 0.9072 0.3706
vn -0.2670 0.9602 -0.0824
vn -0.7020 0.2601 -0.6630
vn -0.6053 0.7707 0.1993
vn -0.3614 0.9060 0.2203
vn -0.7425 0.6035 0.2907
vn -0.6104 0.7325 0.3013
vn -0.4816 0.8681 0.1203
vn -0.4532 0.8910 0.0265
vn -0.8114 0.5817 0.0573
vn -0.8309 0.5376 0.1433
vn 0.3009 -0.3571 -0.8843
vn 0.3185 -0.2963 -0.9004
vn -0.1935 -0.2675 -0.9439
vn -0.2143 -0.3381 -0.9164
vn -0.8558 0.4778 0.1984
vn -0.9607 0.1920 0.2007
vn -0.8731 0.4292 0.2312
vn -0.5101 0.8129 0.2813
vn -0.5074 0.8369 0.2054
vn -0.8567 0.0761 -0.5102
vn -0.5639 0.1225 -0.8167
vn 0.1991 0.9072 0.3706
vn 0.3711 0.8465 0.3818
vn 0.3991 0.8719 0.2838
vn 0.6950 0.6693 0.2627
vn 0.5985 0.3349 -0.7278
vn 0.3759 0.3914 -0.8399
vn 0.3818 0.3020 -0.8735
vn 0.5972 0.2467 -0.7632
vn -0.6763 0.1628 0.7184
vn -0.4207 0.6126 0.6691
vn 0.9281 0.1435 0.3435
vn 0.7963 0.1557 0.5846
vn 0.7031 -0.0577 0.7087
vn -0.4928 0.8006 0.3408
vn 0.4924 0.1485 0.8576
vn 0.6763 0.1635 0.7183
vn 0.4204 0.6114 0.6704
vn 0.3039 0.6009 0.7393
vn -0.9608 -0.1338 0.2429
vn -0.9416 -0.2669 0.2055
vn -0.8298 -0.1804 0.5281
vn -0.9066 -0.0837 0.4136
vn 0.8651 0.3926 0.3123
vn 0.4928 0.8006 0.3408
vn 0.5116 0.6575 0.5531
vn 0.4079 0.3912 0.8250
vn 0.3038 0.0944 0.9480
vn 0.0255 0.2126 0.9768
vn 0.7987 0.3890 0.4590
vn 0.9066 -0.0837 0.4136
vn 0.7540 0.6558 0.0373
vn 0.8811 0.4726 0.0202
vn 0.8671 0.4979 -0.0160
vn 0.7053 0.7089 0.0008
vn 0.8303 -0.1799 0.5274
vn -0.4813 -0.3814 -0.7892
vn -0.4399 -0.4497 -0.7773
vn -0.4079 0.3912 0.8250
vn 0.0657 0.5516 0.8315
vn 0.1197 0.8225 0.5560
vn -0.0664 0.5507 0.8320
vn -0.3053 0.0964 0.9474
vn -0.0291 0.2150 0.9762
vn 0.2989 0.5990 0.7429
vn -0.1197 0.8225 0.5560
vn -0.2999 0.5982 0.7431
vn -0.4908 0.1529 0.8577
vn -0.3051 0.6021 0.7378
vn -0.0000 0.9766 -0.2153
vn -0.0000 0.9918 -0.1276
vn -0.0803 0.9770 0.1975
vn -0.8693 -0.0385 -0.4928
vn -0.2386 0.8809 0.4088
vn 0.0246 0.9272 0.3739
vn -0.3155 0.8420 0.4376
vn 0.1594 0.8946 0.4176
vn -0.9696 -0.1864 0.1585
vn -0.9291 -0.3539 0.1073
vn 0.6430 -0.1960 -0.7403
vn 0.6738 -0.0588 -0.7365
vn -0.5410 -0.0324 -0.8404
vn -0.9905 -0.0631 0.1220
vn -0.9907 -0.0828 0.1083
vn -0.9565 -0.2683 0.1146
vn -0.9661 -0.2389 0.0975
vn 0.5526 0.2712 -0.7881
vn 0.8401 0.2005 -0.5041
vn 0.8567 0.0761 -0.5102
vn 0.5639 0.1225 -0.8167
vn 0.0094 1.0000 -0.0019
vn -0.0379 0.9949 0.0937
vn -0.3377 0.9381 0.0765
vn -0.6232 0.7771 0.0882
vn -0.0000 -0.1253 -0.9921
vn -0.0000 0.0558 -0.9984
vn -0.9883 -0.1032 0.1124
vn -0.9426 -0.2968 0.1532
vn -0.8781 -0.4672 0.1035
vn -0.8537 -0.4875 0.1828
vn 0.1610 0.4066 -0.8993
vn -0.2443 0.3957 -0.8853
vn -0.2594 0.4881 -0.8334
vn -0.1231 0.5190 -0.8459
vn -0.8284 -0.5600 -0.0155
vn -0.7662 -0.6420 -0.0263
vn -0.7816 -0.6231 -0.0275
vn -0.9228 -0.3838 -0.0338
vn -0.3361 0.9416 -0.0210
vn -0.6319 0.7520 -0.1878
vn -0.3140 0.9191 -0.2380
vn -0.3039 0.9432 -0.1344
vn -0.6458 0.7546 -0.1165
vn -0.7705 0.5316 0.3517
vn -0.6351 0.6759 0.3739
vn 0.9428 -0.3284 0.0564
vn 0.9822 -0.0456 0.1820
vn 0.9982 0.0362 0.0479
vn 0.9962 -0.0859 0.0175
vn -0.9404 -0.2949 0.1697
vn -0.3186 0.9419 -0.1063
vn 0.0516 0.9941 -0.0957
vn -0.6491 0.7559 -0.0851
vn -0.6399 0.7684 -0.0099
vn -0.1759 0.9284 0.3274
vn -0.2017 0.9515 0.2321
vn -0.1594 0.8946 0.4176
vn 0.9907 -0.0828 0.1083
vn 0.9905 -0.0631 0.1220
vn 0.9661 -0.2389 0.0975
vn 0.9404 -0.2949 0.1697
vn 0.9426 0.2931 0.1599
vn 0.9329 -0.2939 0.2081
vn 0.9815 -0.1408 0.1299
vn -0.7181 0.5663 -0.4046
vn 0.0701 0.9859 -0.1518
vn 0.0717 0.1376 -0.9879
vn 0.0972 0.3244 -0.9409
vn -0.5750 0.5153 -0.6354
vn -0.3875 0.5789 -0.7175
vn 0.0576 -0.5509 0.8326
vn 0.2481 -0.5114 0.8228
vn 0.2388 -0.7126 0.6597
vn 0.1629 -0.7269 0.6671
vn -0.7466 0.4135 0.5211
vn -0.6292 0.5522 0.5470
vn 0.9497 -0.1976 0.2429
vn -0.0701 0.9859 -0.1518
vn 0.4206 0.8878 -0.1866
vn -0.0576 0.9617 -0.2681
vn -0.1136 0.8740 -0.4725
vn -0.2881 0.8506 -0.4399
vn -0.2573 0.9059 -0.3363
vn -0.0767 0.9264 -0.3687
vn 0.0576 0.9617 -0.2681
vn 0.0593 0.9353 -0.3489
vn -0.5474 0.3301 -0.7690
vn -0.9032 0.1460 -0.4036
vn -0.8804 0.2463 -0.4052
vn -0.5653 0.4531 -0.6893
vn 0.5706 0.3318 0.7512
vn 0.1454 0.5391 0.8296
vn 0.1000 0.1447 0.9844
vn 0.9418 0.3186 0.1072
vn 0.6717 0.7401 -0.0321
vn -0.9996 -0.0101 -0.0248
vn -0.9745 0.2211 -0.0374
vn -0.9635 0.2600 0.0629
vn -0.9982 0.0362 0.0479
vn 0.9645 -0.1333 0.2281
vn 0.9752 0.1782 0.1310
vn -0.2261 0.9741 -0.0066
vn -0.2212 0.9700 -0.1012
vn -0.1564 0.7721 0.6160
vn 0.3726 0.7077 0.6002
vn 0.3155 0.8420 0.4376
vn -0.1454 0.5391 0.8296
vn -0.3673 0.4808 0.7962
vn -0.0281 -0.5310 -0.8469
vn -0.2675 -0.4853 -0.8324
vn -0.7100 -0.3596 -0.6055
vn -0.0140 -0.4722 -0.8814
vn 0.4267 0.0650 0.9021
vn -0.2536 0.1374 0.9575
vn 0.8790 0.4763 -0.0232
vn -0.8790 0.4763 -0.0232
vn -0.8671 0.4979 -0.0160
vn -0.9068 -0.4168 0.0629
vn 0.5244 0.8514 0.0112
vn 0.6309 0.7759 0.0064
vn 0.6172 0.7864 0.0252
vn 0.6780 -0.7346 -0.0276
vn 0.8550 -0.5177 -0.0310
vn 0.8599 -0.5096 -0.0285
vn 0.6758 -0.7360 -0.0401
vn 0.2499 0.9034 0.3483
vn -0.0000 0.8912 -0.4535
vn -0.0000 0.9456 -0.3253
vn -0.8811 0.4726 0.0202
vn -0.7540 0.6558 0.0373
vn -0.6549 0.7531 0.0627
vn -0.6309 0.7759 0.0064
vn -0.6172 0.7864 0.0252
vn -0.8436 0.5351 0.0454
vn 0.5076 0.8567 0.0918
vn 0.6549 0.7531 0.0627
vn 0.2602 0.9386 -0.2264
vn 0.2573 0.9059 -0.3363
vn 0.0767 0.9264 -0.3687
vn -0.2144 0.9463 -0.2421
vn 0.9551 -0.2372 0.1777
vn 0.9695 -0.1917 0.1529
vn 0.9121 -0.1799 0.3684
vn 0.8431 -0.2064 0.4966
vn 0.2210 0.9487 0.2262
vn -0.9576 0.0191 0.2876
vn 0.8436 0.5351 0.0454
vn -0.4752 0.8447 0.2463
vn -0.5076 0.8567 0.0918
vn -0.6679 0.6459 0.3699
vn 0.3649 0.8573 0.3631
vn -0.0000 0.9678 0.2519
vn -0.2378 0.9617 0.1361
vn -0.9187 0.3924 0.0446
vn -0.9896 -0.0514 0.1340
vn -0.8098 0.2540 0.5289
vn 0.4752 0.8447 0.2463
vn 0.5388 0.5285 0.6560
vn 0.6678 0.6459 0.3699
vn 0.8098 0.2540 0.5289
vn 0.9944 -0.1031 -0.0249
vn 0.9962 -0.0869 0.0041
vn -0.6318 0.7278 -0.2667
vn -0.4644 0.8332 -0.3002
vn 0.2158 0.9704 0.1084
vn -0.2416 0.9662 0.0895
vn -0.2158 0.9704 0.1084
vn 0.2416 0.9662 0.0895
vn 0.2552 0.9664 0.0301
vn -0.0000 0.9972 0.0745
vn 0.9896 -0.0514 0.1340
vn 0.8245 -0.2872 0.4875
vn 0.9435 -0.3311 -0.0140
vn -0.7734 -0.2778 0.5699
vn -0.5600 -0.2156 0.8000
vn -0.4942 0.1682 0.8529
vn -0.7900 0.2319 0.5675
vn 0.5285 0.1706 0.8316
vn -0.3027 0.8906 -0.3394
vn 0.8430 -0.5370 -0.0302
vn 0.8366 -0.5471 -0.0285
vn 0.9884 -0.1342 -0.0714
vn 0.9914 -0.1225 -0.0462
vn -0.2552 0.9664 0.0301
vn 0.2641 0.9637 -0.0400
vn -0.0000 0.9990 -0.0437
vn -0.2641 0.9637 -0.0400
vn 0.2670 0.9602 -0.0824
vn 0.8940 -0.4476 -0.0202
vn -0.9620 -0.2722 -0.0233
vn -0.8944 -0.4464 -0.0270
vn -0.8940 -0.4476 -0.0202
vn -0.9435 -0.3311 -0.0140
vn 0.8357 0.3009 -0.4594
vn 0.7126 0.4018 -0.5751
vn 0.0379 0.9949 0.0937
vn -0.0094 1.0000 -0.0019
vn 0.3377 0.9381 0.0765
vn -0.2372 -0.3994 -0.8855
vn 0.2903 -0.3982 -0.8701
vn 0.4282 0.9013 -0.0652
vn 0.7958 0.6051 -0.0231
vn 0.5740 -0.2231 0.7879
vn 0.6260 -0.5600 0.5428
vn 0.4454 0.8350 -0.3230
vn 0.0472 0.9118 -0.4078
vn -0.9816 -0.0226 0.1897
vn -0.6128 0.6565 -0.4399
vn -0.6257 0.7020 -0.3400
vn -0.4524 0.7973 -0.3994
vn -0.7288 -0.1618 -0.6654
vn -0.0739 -0.1730 -0.9822
vn -0.0433 -0.3077 -0.9505
vn 0.8944 -0.4464 -0.0270
vn 0.7816 -0.6231 -0.0275
vn 0.9228 -0.3838 -0.0338
vn -0.9891 -0.1343 -0.0603
vn -0.9463 -0.3198 -0.0481
vn -0.9795 -0.1960 -0.0469
vn -0.7675 -0.6396 -0.0431
vn -0.7406 -0.6120 0.2775
vn -0.8245 -0.2872 0.4875
vn -0.5980 0.6206 -0.5072
vn -0.3388 0.7292 -0.5945
vn -0.3726 0.7077 0.6002
vn 0.1564 0.7721 0.6160
vn -0.0253 0.8798 -0.4747
vn -0.4111 0.7012 -0.5825
vn -0.3954 0.6598 -0.6390
vn -0.5847 0.5843 -0.5627
vn -0.6825 -0.7283 -0.0622
vn -0.6091 -0.7893 0.0768
vn 0.9891 -0.1343 -0.0603
vn 0.9463 -0.3198 -0.0481
vn 0.8804 0.2463 -0.4052
vn -0.3488 0.6744 -0.6507
vn 0.4752 0.7550 -0.4518
vn -0.0065 0.8302 -0.5575
vn -0.0516 0.9941 -0.0957
vn -0.0327 0.7670 -0.6408
vn -0.0539 0.6962 -0.7158
vn -0.2903 -0.3982 -0.8701
vn -0.3760 0.5762 -0.7257
vn -0.9962 -0.0859 0.0175
vn -0.0717 0.1376 -0.9879
vn -0.3913 0.1057 -0.9142
vn -0.3700 -0.0931 -0.9244
vn 0.0276 -0.0468 -0.9985
vn -0.3584 0.4729 -0.8049
vn 0.7015 0.7094 -0.0687
vn -0.9428 -0.3284 0.0564
vn -0.9822 -0.0456 0.1820
vn -0.0745 0.5824 -0.8095
vn 0.0539 0.6962 -0.7158
vn 0.5193 0.5512 -0.6531
vn -0.0836 0.4909 -0.8672
vn 0.0327 0.7670 -0.6408
vn 0.9635 0.2600 0.0629
vn 0.9996 -0.0101 -0.0248
vn 0.5354 0.4046 -0.7414
vn 0.0743 0.4238 -0.9027
vn -0.0972 0.3244 -0.9409
vn 0.3415 -0.2161 -0.9147
vn -0.3759 0.3914 -0.8399
vn -0.5972 0.2467 -0.7632
vn -0.1634 0.2870 -0.9439
vn 0.9745 0.2211 -0.0374
vn -0.3818 0.3020 -0.8735
vn 0.7009 -0.7131 -0.0173
vn 0.6754 -0.7355 -0.0530
vn 0.8580 -0.5129 -0.0253
vn 0.8709 -0.4911 0.0210
vn -0.0743 0.4238 -0.9027
vn -0.6167 0.1010 -0.7807
vn 0.8127 0.5795 0.0603
vn 0.9382 0.3433 0.0449
vn 0.9431 0.3322 -0.0140
vn 0.8199 0.5724 -0.0095
vn -0.6314 0.7649 0.1274
vn -0.5802 0.7637 0.2831
vn -0.8599 -0.5096 -0.0284
vn -0.8580 -0.5130 -0.0253
vn -0.9971 -0.0696 0.0314
vn -0.9962 -0.0869 0.0041
vn 0.1350 -0.1775 -0.9748
vn -0.5092 -0.1863 -0.8403
vn 0.4913 -0.3063 -0.8153
vn 0.4813 -0.3814 -0.7892
vn 0.9760 -0.1764 0.1280
vn -0.6776 -0.0465 -0.7340
vn -0.9449 0.3233 -0.0515
vn -0.9431 0.3322 -0.0140
vn -0.8199 0.5724 -0.0095
vn -0.8226 0.5663 -0.0508
vn -0.9382 0.3433 0.0449
vn -0.8127 0.5795 0.0603
vn -0.1064 -0.0168 -0.9942
vn -0.1423 0.1382 -0.9801
vn 0.1935 -0.2675 -0.9439
vn -0.4913 -0.3063 -0.8153
vn -0.9884 -0.1342 -0.0714
vn -0.9914 -0.1225 -0.0462
vn -0.9259 0.3660 0.0933
vn -0.7936 0.5958 0.1233
vn 0.9620 -0.2722 -0.0233
vn -0.3415 -0.2161 -0.9147
vn -0.6280 -0.3250 -0.7071
vn -0.6038 -0.2844 -0.7446
vn 0.0176 -0.3860 -0.9223
vn 0.0140 -0.4722 -0.8814
vn 0.7936 0.5958 0.1233
vn 0.6849 0.7064 0.1789
vn 0.7547 0.6348 0.1659
vn -0.9157 0.3811 0.1278
vn -0.7547 0.6348 0.1659
vn 0.2143 -0.3381 -0.9164
vn -0.4311 0.7434 -0.5113
vn -0.0000 -0.3589 -0.9334
vn -0.0000 -0.4061 -0.9138
vn 0.6280 -0.3250 -0.7071
vn 0.6038 -0.2844 -0.7446
vn 0.7020 0.2601 -0.6630
vn -0.9944 -0.1031 -0.0249
vn 0.2372 -0.3994 -0.8855
vn -0.0176 -0.3860 -0.9223
vn -0.9736 -0.0898 0.2098
vn -0.9976 -0.0492 0.0492
vn 0.7098 0.5738 0.4086
vn 0.5886 0.4891 0.6437
vn 0.7900 0.2319 0.5675
vn 0.6443 0.6990 0.3103
vn 0.7734 -0.2778 0.5699
vn 0.9736 -0.0898 0.2098
vn -0.0000 -0.8516 0.5242
vn -0.0271 -0.8298 0.5573
vn 0.4942 0.1682 0.8529
vn -0.4389 -0.5254 -0.7289
vn 0.2675 -0.4853 -0.8324
vn 0.7100 -0.3596 -0.6055
vn 0.9416 -0.2669 0.2055
vn 0.9291 -0.3539 0.1073
vn 0.9696 -0.1864 0.1585
vn 0.9608 -0.1338 0.2429
vn 0.9976 -0.0492 0.0492
vn 0.5600 -0.2156 0.8000
vn 0.6741 -0.5374 0.5068
vn -0.7477 -0.6072 0.2687
vn -0.8709 -0.4911 0.0210
vn -0.7009 -0.7131 -0.0173
vn 0.7477 -0.6072 0.2687
vn -0.1843 0.8740 0.4496
vn -0.6754 -0.7355 -0.0530
vn -0.6142 -0.7878 -0.0459
vn -0.6540 -0.7496 0.1019
vn 0.6540 -0.7496 0.1019
vn 0.3913 0.1057 -0.9142
vn 0.3700 -0.0931 -0.9244
vn 0.6776 -0.0465 -0.7340
vn 0.6167 0.1010 -0.7807
vn -0.6758 -0.7360 -0.0401
vn -0.8550 -0.5177 -0.0310
vn 0.6142 -0.7878 -0.0459
vn -0.6780 -0.7346 -0.0276
vn -0.2413 0.2688 -0.9325
vn -0.0000 0.2673 -0.9636
vn -0.0000 0.4074 -0.9133
vn -0.9760 -0.1764 0.1280
vn -0.9736 -0.2271 0.0220
vn 0.9736 -0.2271 0.0220
vn 0.8220 -0.5588 0.1099
vn 0.5074 0.8369 0.2054
vn 0.5101 0.8129 0.2813
vn 0.8731 0.4292 0.2312
vn 0.8558 0.4778 0.1984
vn -0.9695 -0.1917 0.1529
vn -0.9551 -0.2372 0.1777
vn -0.8431 -0.2064 0.4966
vn -0.9121 -0.1799 0.3684
vn -0.7978 -0.3245 -0.5082
vn 0.2378 0.9617 0.1361
vn 0.6292 0.2758 0.7267
vn 0.7466 0.4135 0.5211
vn 0.6292 0.5522 0.5470
vn -0.9661 -0.1689 0.1955
vn -0.9497 -0.1976 0.2429
vn -0.9329 -0.2939 0.2081
vn -0.9815 -0.1408 0.1299
vn 0.6219 -0.2779 -0.7321
vn 0.8715 -0.2424 -0.4262
vn 0.8742 -0.1553 -0.4600
vn 0.9157 0.3811 0.1278
vn 0.9259 0.3660 0.0933
vn -0.3649 0.8573 0.3631
vn -0.4608 0.7624 0.4543
vn 0.2658 0.9527 -0.1471
vn -0.2172 0.9623 -0.1638
vn -0.5417 0.6113 0.5769
vn -0.0000 0.8400 -0.5426
vn 0.6351 0.6759 0.3739
vn -0.4742 0.4200 0.7738
vn -0.0000 -0.4655 -0.8850
vn -0.9415 -0.1728 0.2895
vn -0.2868 0.6603 -0.6941
vn -0.0000 0.6785 -0.7346
vn -0.0000 0.7628 -0.6466
vn 0.7705 0.5316 0.3517
vn 0.2881 0.8506 -0.4399
vn 0.1136 0.8740 -0.4725
vn 0.6053 0.7707 0.1993
vn 0.6104 0.7325 0.3013
vn 0.7425 0.6035 0.2907
vn 0.3614 0.9060 0.2203
vn 0.6232 0.7771 0.0882
vn -0.0000 0.5969 -0.8023
vn -0.2912 0.5755 -0.7642
vn -0.0000 0.4964 -0.8681
vn 0.5417 0.6113 0.5769
vn 0.2842 0.7970 -0.5329
vn 0.9795 -0.1960 -0.0469
vn 0.2484 0.7388 -0.6264
vn -0.1010 0.6859 -0.7207
vn 0.0733 0.7605 -0.6452
vn 0.0975 0.8272 -0.5534
vn 0.3954 0.6598 -0.6390
vn 0.4111 0.7012 -0.5825
vn -0.1313 0.6126 -0.7794
vn 0.2868 0.6603 -0.6941
vn 0.6458 0.7546 -0.1165
vn 0.0698 0.9475 0.3120
vn 0.0803 0.9770 0.1975
vn -0.1256 0.9406 0.3156
vn 0.5750 0.5153 -0.6354
vn 0.2594 0.4881 -0.8334
vn 0.2912 0.5755 -0.7642
vn 0.1231 0.5190 -0.8459
vn 0.1313 0.6126 -0.7794
vn 0.4608 0.7624 0.4543
vn 0.2443 0.3957 -0.8853
vn 0.4816 0.8681 0.1203
vn 0.9607 0.1920 0.2007
vn 0.5051 0.6653 -0.5498
vn 0.3039 0.9432 -0.1344
vn 0.6731 0.7386 0.0370
vn 0.4978 0.8673 -0.0015
vn 0.3304 0.7823 -0.5281
vn 0.6128 0.6565 -0.4399
vn 0.7288 -0.1618 -0.6654
vn 0.0739 -0.1730 -0.9822
vn 0.2413 0.2688 -0.9325
vn 0.2967 0.0927 -0.9505
vn 0.5896 0.4145 -0.6932
vn 0.4532 0.8910 0.0265
vn -0.7033 -0.0571 0.7086
vn 0.6257 0.7020 -0.3400
vn 0.4524 0.7973 -0.3994
vn 0.4644 0.8332 -0.3002
vn -0.7098 0.5738 0.4086
vn 0.4161 -0.0627 -0.9071
vn 0.1634 0.2870 -0.9439
vn -0.5233 -0.1669 -0.8356
vn 0.0433 -0.3077 -0.9505
vn -0.5783 -0.2396 -0.7799
vn 0.4311 0.7434 -0.5113
vn -0.0000 -0.2317 -0.9728
vn -0.0000 -0.3067 -0.9518
vn 0.3919 0.7930 0.4665
vn 0.5360 0.7534 0.3809
vn 0.8309 0.5376 0.1433
vn 0.6578 0.7366 0.1572
vn 0.0281 -0.5310 -0.8469
vn 0.8114 0.5817 0.0573
vn 0.7243 -0.3000 -0.6208
vn 0.5783 -0.2396 -0.7799
vn 0.1843 0.8740 0.4495
vn 0.8196 0.4881 -0.3000
vn 0.5802 0.7637 0.2831
vn 0.9576 0.0191 0.2876
vn 0.1010 0.6859 -0.7207
vn 0.6314 0.7649 0.1274
vn 0.4407 0.8879 0.1317
vn 0.9816 -0.0226 0.1897
vn 0.6755 0.7373 -0.0067
vn 0.9883 -0.1032 0.1124
vn 0.7181 0.5663 -0.4046
vn 0.9068 -0.4168 0.0629
vn 0.5790 0.5738 -0.5793
vn 0.5653 0.4531 -0.6893
vn 0.7281 0.4900 -0.4794
vn 0.8693 -0.0385 -0.4928
vn 0.6895 0.0943 -0.7181
vn 0.9661 -0.1689 0.1955
vn 0.9187 0.3924 0.0446
vn 0.5233 -0.1669 -0.8356
vn 0.5060 -0.5485 -0.6657
vn -0.9418 0.3186 0.1072
vn 0.7391 -0.2469 -0.6267
vn -0.9752 0.1782 0.1310
vn -0.9645 -0.1333 0.2281
vn -0.5740 -0.2231 0.7879
vn -0.5285 0.1706 0.8316
vn -0.5388 0.5285 0.6560
vn -0.6260 -0.5600 0.5428
vn 0.7662 -0.6420 -0.0263
vn 0.8284 -0.5600 -0.0155
vn 0.8226 0.5663 -0.0508
vn 0.9449 0.3233 -0.0515
vn 0.9971 -0.0696 0.0314
vn -0.6849 0.7064 0.1789
vn -0.5886 0.4891 0.6437
vn -0.6443 0.6990 0.3103
vn -0.6741 -0.5374 0.5068
vn 0.6703 -0.7419 -0.0147
vn 0.9415 -0.1728 0.2895
vn 0.3875 0.5789 -0.7175
vn 0.4000 0.4697 -0.7870
vn 0.0482 -0.9988 0.0076
vn 0.0636 -0.9959 -0.0636
vn -0.4302 -0.2449 0.8689
vn 0.0883 -0.7651 0.6378
vn 0.0890 -0.9880 -0.1261
vn 0.0966 -0.2455 0.9646
vn -0.0903 -0.9877 0.1277
vn 0.1132 0.6316 0.7670
vn -0.4548 -0.6234 0.6360
vn 0.0385 0.9988 -0.0301
vn -0.5816 -0.1510 0.7993
vn 0.0346 0.9994 0.0060
vn -0.6072 0.1512 0.7800
vn 0.0198 0.9977 0.0642
vn -0.5974 0.4733 0.6474
vn 0.0016 0.9933 0.1157
vn -0.4907 0.7869 0.3743
vn -0.0133 0.9894 0.1449
vn -0.3931 0.9008 0.1845
vn -0.1660 0.9203 0.3541
vn -0.3785 0.9140 0.1461
vn -0.4539 0.5514 0.7000
vn -0.3645 0.9261 0.0980
vn -0.5780 0.1393 0.8041
vn -0.3610 0.9291 0.0800
vn -0.6287 -0.1846 0.7554
vn -0.6168 -0.5830 0.5289
vn -0.4396 -0.8910 0.1133
vn -0.2921 -0.9475 -0.1299
vn -0.3017 -0.9473 -0.1079
vn -0.3280 -0.9440 -0.0346
vn -0.3462 -0.9372 0.0421
vn -0.3499 -0.9334 0.0795
vn -0.1774 -0.6749 0.7162
vn 0.0348 -0.2049 0.9782
vn -0.1249 -0.3096 0.9426
vn -0.2481 -0.5114 0.8228
vn -0.0576 -0.5509 0.8326
vn 0.0271 -0.8298 0.5573
vn -0.1629 -0.7269 0.6671
vn 0.4302 -0.2449 0.8689
vn -0.2388 -0.7126 0.6597
vn 0.1249 -0.3096 0.9426
vn -0.0348 -0.2049 0.9782
vn 0.1774 -0.6749 0.7162
vn 0.3499 -0.9334 0.0795
vn 0.3462 -0.9372 0.0421
vn 0.3280 -0.9440 -0.0346
vn 0.3017 -0.9473 -0.1079
vn 0.2921 -0.9475 -0.1299
vn 0.4396 -0.8910 0.1133
vn 0.6168 -0.5829 0.5289
vn 0.6287 -0.1846 0.7554
vn 0.5780 0.1393 0.8041
vn 0.4539 0.5514 0.7000
vn 0.1660 0.9203 0.3541
vn 0.0133 0.9894 0.1449
vn -0.0016 0.9933 0.1157
vn -0.0198 0.9977 0.0642
vn -0.0346 0.9994 0.0060
vn -0.0385 0.9988 -0.0301
vn -0.1132 0.6316 0.7670
vn -0.0966 -0.2455 0.9646
vn -0.0883 -0.7651 0.6378
vn -0.0482 -0.9988 0.0076
vn -0.0636 -0.9959 -0.0636
vn -0.0890 -0.9880 -0.1261
vn 0.0903 -0.9877 0.1277
vn 0.4548 -0.6234 0.6360
vn 0.5816 -0.1510 0.7993
vn 0.6072 0.1512 0.7800
vn 0.3931 0.9008 0.1845
vn 0.4907 0.7869 0.3743
vn 0.5974 0.4733 0.6474
vn 0.3785 0.9140 0.1461
vn 0.3645 0.9261 0.0980
vn 0.3610 0.9291 0.0800
vt 0.000000 0.000000
s 1
f 1/1/1 2/1/2 3/1/3
f 595/1/4 604/1/5 603/1/6 596/1/7
f 3/1/3 2/1/2 5/1/8
f 477/1/9 476/1/10 452/1/11 483/1/12
f 604/1/5 614/1/13 613/1/14 603/1/6
f 149/1/15 157/1/16 194/1/17 183/1/18
f 39/1/19 38/1/20 29/1/21 37/1/22
f 24/1/23 22/1/24 14/1/25 23/1/26
f 135/1/27 134/1/28 127/1/29 128/1/30
f 600/1/31 604/1/5 595/1/4 593/1/32
f 606/1/33 614/1/13 604/1/5 600/1/31
f 447/1/34 448/1/35 440/1/36 439/1/37
f 575/1/38 582/1/39 576/1/40 567/1/41
f 626/1/42 635/1/43 625/1/44 615/1/45
f 486/1/46 536/1/47 535/1/48 529/1/49
f 228/1/50 230/1/51 221/1/52 222/1/53
f 605/1/54 606/1/33 597/1/55 598/1/56
f 236/1/57 244/1/58 242/1/59 235/1/60
f 20/1/61 28/1/62 21/1/63
f 381/1/64 387/1/65 391/1/66 382/1/67
f 388/1/68 397/1/69 396/1/70 387/1/65
f 214/1/71 221/1/52 207/1/72 206/1/73
f 709/1/74 711/1/75 710/1/76 708/1/77
f 619/1/78 629/1/79 626/1/42 616/1/80
f 611/1/81 622/1/82 612/1/83 588/1/84
f 4/1/85 7/1/86 2/1/2 1/1/1
f 574/1/87 568/1/88 573/1/89 566/1/90
f 568/1/88 574/1/87 528/1/91 529/1/49
f 542/1/92 566/1/90 558/1/93 550/1/94
f 608/1/95 616/1/80 605/1/54 598/1/56
f 608/1/95 617/1/96 619/1/78 616/1/80
f 33/1/97 43/1/98 34/1/99
f 628/1/100 637/1/101 629/1/79 619/1/78
f 8/1/102 13/1/103 7/1/86 4/1/85
f 613/1/14 614/1/13 615/1/45 625/1/44
f 529/1/49 528/1/91 478/1/104 486/1/46
f 528/1/91 574/1/87 534/1/105 517/1/106
f 260/1/107 266/1/108 262/1/109 256/1/110
f 478/1/104 528/1/91 517/1/106 471/1/111
f 550/1/94 549/1/112 520/1/113 542/1/92
f 147/1/114 182/1/115 174/1/116 148/1/117
f 542/1/92 520/1/113 518/1/118 534/1/105
f 35/1/119 45/1/120 42/1/121 32/1/122
f 436/1/123 741/1/124 736/1/125 735/1/126
f 721/1/127 723/1/128 720/1/129 506/1/130
f 474/1/131 277/1/132 284/1/133 482/1/134
f 53/1/135 61/1/136 45/1/120
f 191/1/137 199/1/138 377/1/139 370/1/140
f 237/1/141 245/1/142 246/1/143 240/1/144
f 147/1/114 148/1/117 138/1/145 146/1/146
f 40/1/147 41/1/148 31/1/149 30/1/150
f 416/1/151 423/1/152 417/1/153 412/1/154
f 544/1/155 553/1/156 551/1/157 543/1/158
f 68/1/159 62/1/160 19/1/161
f 560/1/162 552/1/163 551/1/157 559/1/164
f 59/1/165 290/1/166 281/1/167 89/1/168
f 512/1/169 519/1/170 513/1/171 491/1/172
f 759/1/173 758/1/174 755/1/175 756/1/176
f 512/1/169 518/1/118 520/1/113 519/1/170
f 569/1/177 579/1/178 559/1/164 562/1/179
f 530/1/180 531/1/181 525/1/182 521/1/183
f 616/1/80 626/1/42 615/1/45 605/1/54
f 513/1/171 521/1/183 514/1/184 491/1/172
f 182/1/115 191/1/137 370/1/140 361/1/185
f 579/1/178 586/1/186 560/1/162 559/1/164
f 400/1/187 406/1/188 404/1/189 399/1/190
f 466/1/191 475/1/192 511/1/193 505/1/194
f 307/1/195 299/1/196 298/1/197 306/1/198
f 490/1/199 491/1/172 485/1/200 484/1/201
f 484/1/201 485/1/200 477/1/9 483/1/12
f 459/1/202 438/1/203 490/1/199 484/1/201
f 536/1/47 544/1/155 543/1/158 535/1/48
f 578/1/204 579/1/178 569/1/177 577/1/205
f 81/1/206 71/1/207 65/1/208 79/1/209
f 269/1/210 274/1/211 275/1/212 270/1/213
f 531/1/181 538/1/214 532/1/215 525/1/182
f 91/1/216 97/1/217 98/1/218
f 483/1/12 454/1/219 459/1/202 484/1/201
f 101/1/220 106/1/221 100/1/222 93/1/223
f 546/1/224 548/1/225 541/1/226 540/1/227
f 96/1/228 99/1/229 102/1/230
f 97/1/217 102/1/230 103/1/231
f 97/1/217 103/1/231 104/1/232
f 97/1/217 104/1/232 98/1/218
f 98/1/218 104/1/232 105/1/233
f 78/1/234 106/1/221 107/1/235
f 188/1/236 195/1/237 187/1/238 179/1/239
f 106/1/221 109/1/240 107/1/235
f 101/1/220 109/1/240 106/1/221
f 607/1/241 618/1/242 617/1/96 608/1/95
f 452/1/11 496/1/243 458/1/244 453/1/245
f 103/1/231 112/1/246 104/1/232
f 458/1/244 467/1/247 460/1/248 455/1/249
f 111/1/250 113/1/251 112/1/246
f 532/1/215 538/1/214 533/1/252 526/1/253
f 370/1/140 377/1/139 369/1/254 360/1/255
f 438/1/203 459/1/202 439/1/37 433/1/256
f 597/1/55 606/1/33 600/1/31 591/1/257
f 111/1/250 118/1/258 113/1/251
f 110/1/259 118/1/258 111/1/250
f 183/1/18 184/1/260 158/1/261 149/1/15
f 554/1/262 557/1/263 548/1/225 546/1/224
f 7/1/86 13/1/103 16/1/264 15/1/265
f 439/1/37 440/1/36 406/1/188 433/1/256
f 585/1/266 591/1/257 578/1/204 577/1/205
f 556/1/267 565/1/268 564/1/269 555/1/270
f 82/1/271 83/1/272 94/1/273 95/1/274
f 553/1/156 562/1/179 559/1/164 551/1/157
f 441/1/275 475/1/192 466/1/191 432/1/276
f 407/1/277 406/1/188 400/1/187 405/1/278
f 482/1/134 489/1/279 472/1/280 474/1/131
f 565/1/268 572/1/281 571/1/282 564/1/269
f 570/1/283 564/1/269 571/1/282 580/1/284
f 261/1/285 451/1/286 435/1/287 437/1/288
f 659/1/289 660/1/290 654/1/291 658/1/292
f 419/1/293 441/1/275 432/1/276 407/1/277
f 456/1/294 463/1/295 457/1/296 426/1/297
f 399/1/190 404/1/189 398/1/298 389/1/299
f 258/1/300 263/1/301 259/1/302 252/1/303
f 587/1/304 588/1/84 580/1/284 571/1/282
f 442/1/305 464/1/306 441/1/275 419/1/293
f 418/1/307 442/1/305 419/1/293 413/1/308
f 364/1/309 363/1/310 400/1/187 399/1/190
f 364/1/309 399/1/190 389/1/299 365/1/311
f 127/1/29 129/1/312 122/1/313 121/1/314
f 143/1/315 144/1/316 152/1/317
f 142/1/318 143/1/315 152/1/317
f 552/1/163 561/1/319 535/1/48 543/1/158
f 470/1/320 478/1/104 471/1/111 464/1/306
f 457/1/296 470/1/320 464/1/306 442/1/305
f 95/1/274 282/1/321 268/1/322 82/1/271
f 735/1/126 736/1/125 731/1/323 734/1/324
f 810/1/325 812/1/326 813/1/327 811/1/328
f 390/1/329 397/1/69 388/1/68 380/1/330
f 152/1/317 144/1/316 162/1/331
f 432/1/276 466/1/191 438/1/203 433/1/256
f 154/1/332 47/1/333 164/1/334
f 395/1/335 411/1/336 386/1/337 385/1/338
f 457/1/296 463/1/295 479/1/339 470/1/320
f 511/1/193 518/1/118 512/1/169 505/1/194
f 479/1/339 722/1/340 486/1/46 478/1/104
f 589/1/341 590/1/342 584/1/343 583/1/344
f 160/1/345 167/1/346 169/1/347
f 162/1/331 144/1/316 170/1/348
f 144/1/316 171/1/349 170/1/348
f 669/1/350 670/1/351 668/1/352 665/1/353
f 163/1/354 170/1/348 173/1/355
f 170/1/348 171/1/349 173/1/355
f 413/1/308 358/1/356 362/1/357 418/1/307
f 365/1/311 373/1/358 372/1/359 366/1/360
f 379/1/361 381/1/64 372/1/359 373/1/358
f 167/1/346 176/1/362 169/1/347
f 509/1/363 763/1/364 762/1/365 504/1/366
f 168/1/367 169/1/347 177/1/368
f 171/1/349 178/1/369 173/1/355
f 621/1/370 630/1/371 622/1/82 611/1/81
f 555/1/270 564/1/269 570/1/283 563/1/372
f 172/1/373 181/1/374 180/1/375
f 336/1/376 337/1/377 333/1/378 332/1/379
f 365/1/311 366/1/360 356/1/380 364/1/309
f 386/1/337 411/1/336 394/1/381 376/1/382
f 630/1/371 638/1/383 631/1/384 622/1/82
f 633/1/385 624/1/386 623/1/387 632/1/388
f 181/1/374 190/1/389 189/1/390
f 375/1/391 384/1/392 383/1/393 378/1/394
f 348/1/395 345/1/396 346/1/397 347/1/398
f 355/1/399 363/1/310 364/1/309 356/1/380
f 539/1/400 546/1/224 540/1/227 531/1/181
f 389/1/299 398/1/298 390/1/329 380/1/330
f 188/1/236 180/1/375 197/1/401
f 642/1/402 634/1/403 633/1/385 641/1/404
f 24/1/23 34/1/99 35/1/119 32/1/122
f 356/1/380 357/1/405 200/1/406 355/1/399
f 194/1/17 201/1/407 200/1/406
f 639/1/408 643/1/409 640/1/410 632/1/388
f 632/1/388 640/1/410 641/1/404 633/1/385
f 198/1/411 205/1/412 204/1/413
f 204/1/413 205/1/412 202/1/414
f 333/1/378 337/1/377 294/1/415 302/1/416
f 462/1/417 456/1/294 378/1/394 461/1/418
f 165/1/419 209/1/420 201/1/407
f 358/1/356 354/1/421 350/1/422 351/1/423
f 201/1/407 209/1/420 210/1/424
f 201/1/407 210/1/424 200/1/406
f 203/1/425 202/1/414 211/1/426
f 203/1/425 211/1/426 212/1/427
f 693/1/428 700/1/429 695/1/430 689/1/431
f 205/1/412 213/1/432 202/1/414
f 462/1/417 487/1/433 463/1/295 456/1/294
f 339/1/434 341/1/435 279/1/436 287/1/437
f 209/1/420 216/1/438 210/1/424
f 353/1/439 351/1/423 210/1/424 352/1/440
f 174/1/116 217/1/441 216/1/438
f 353/1/439 359/1/442 362/1/357 358/1/356
f 212/1/427 211/1/426 218/1/443
f 652/1/444 655/1/445 648/1/446 647/1/447
f 75/1/448 68/1/159 19/1/161 18/1/449
f 130/1/450 137/1/451 138/1/145 131/1/452
f 306/1/198 322/1/453 315/1/454 307/1/195
f 47/1/333 55/1/455 49/1/456 39/1/19
f 220/1/457 227/1/458 211/1/426
f 46/1/459 228/1/50 222/1/53
f 719/1/460 722/1/340 487/1/433 506/1/130
f 547/1/461 556/1/267 555/1/270 554/1/262
f 500/1/462 721/1/127 506/1/130 492/1/463
f 469/1/464 492/1/463 462/1/417 461/1/418
f 753/1/465 488/1/466 495/1/467 756/1/176
f 225/1/468 232/1/469 233/1/470
f 662/1/471 664/1/472 658/1/292 657/1/473
f 227/1/458 235/1/60 211/1/426
f 648/1/446 653/1/474 649/1/475 644/1/476
f 227/1/458 236/1/57 235/1/60
f 726/1/477 725/1/478 721/1/127 500/1/462
f 175/1/479 176/1/362 167/1/346 166/1/480
f 230/1/51 228/1/50 239/1/481
f 501/1/482 730/1/483 729/1/484 726/1/477
f 653/1/474 661/1/485 656/1/486 649/1/475
f 234/1/487 243/1/488 6/1/489
f 726/1/477 729/1/484 727/1/490 725/1/478
f 239/1/481 54/1/491 247/1/492
f 137/1/451 145/1/493 146/1/146 138/1/145
f 721/1/127 725/1/478 724/1/494 723/1/128
f 727/1/490 728/1/495 724/1/494 725/1/478
f 759/1/173 762/1/365 761/1/496 758/1/174
f 731/1/323 732/1/497 727/1/490 729/1/484
f 660/1/290 661/1/485 653/1/474 654/1/291
f 6/1/489 243/1/488 252/1/303
f 665/1/353 667/1/498 584/1/343 590/1/342
f 728/1/495 553/1/156 544/1/155 724/1/494
f 743/1/499 747/1/500 748/1/501 746/1/502
f 736/1/125 737/1/503 732/1/497 731/1/323
f 39/1/19 49/1/456 48/1/504 38/1/20
f 252/1/303 243/1/488 258/1/300
f 235/1/60 242/1/59 218/1/443 211/1/426
f 3/1/3 259/1/302 1/1/1
f 603/1/6 669/1/350 665/1/353 596/1/7
f 663/1/505 667/1/498 665/1/353 666/1/506
f 727/1/490 732/1/497 733/1/507 728/1/495
f 253/1/508 69/1/509 260/1/107
f 733/1/507 738/1/510 562/1/179 553/1/156
f 248/1/511 253/1/508 246/1/143 245/1/142
f 737/1/503 738/1/510 733/1/507 732/1/497
f 259/1/302 263/1/301 264/1/512
f 28/1/62 29/1/21 38/1/20 30/1/150
f 265/1/513 8/1/102 4/1/85
f 76/1/514 267/1/515 266/1/108
f 739/1/516 743/1/499 577/1/205 569/1/177
f 299/1/196 297/1/517 290/1/166 298/1/197
f 741/1/124 742/1/518 737/1/503 736/1/125
f 745/1/519 741/1/124 436/1/123 445/1/520
f 265/1/513 272/1/521 8/1/102
f 744/1/522 747/1/500 743/1/499 739/1/516
f 330/1/523 334/1/524 329/1/525 325/1/526
f 742/1/518 744/1/522 739/1/516 740/1/527
f 741/1/124 745/1/519 744/1/522 742/1/518
f 749/1/528 747/1/500 744/1/522 745/1/519
f 743/1/499 746/1/502 585/1/266 577/1/205
f 288/1/529 293/1/530 286/1/531 280/1/532
f 272/1/521 279/1/436 8/1/102
f 545/1/533 537/1/534 513/1/171 519/1/170
f 701/1/535 696/1/536 683/1/537 682/1/538
f 746/1/502 750/1/539 592/1/540 585/1/266
f 74/1/541 67/1/542 306/1/198 298/1/197
f 345/1/396 23/1/26 14/1/25 343/1/543
f 747/1/500 749/1/528 751/1/544 748/1/501
f 672/1/545 675/1/546 674/1/547 671/1/548
f 675/1/546 678/1/549 677/1/550 674/1/547
f 481/1/551 751/1/544 749/1/528 449/1/552
f 750/1/539 754/1/553 599/1/554 592/1/540
f 488/1/466 753/1/465 751/1/544 481/1/551
f 575/1/38 561/1/319 552/1/163 582/1/39
f 673/1/555 676/1/556 672/1/545 670/1/351
f 680/1/557 681/1/558 677/1/550 678/1/549
f 218/1/443 225/1/468 219/1/559 212/1/427
f 750/1/539 752/1/560 755/1/175 754/1/553
f 753/1/465 756/1/176 755/1/175 752/1/560
f 723/1/128 724/1/494 544/1/155 536/1/47
f 524/1/561 527/1/562 309/1/563 317/1/564
f 296/1/565 304/1/566 305/1/567
f 680/1/557 685/1/568 684/1/569 681/1/558
f 757/1/570 607/1/241 599/1/554 754/1/553
f 497/1/571 500/1/462 492/1/463 469/1/464
f 758/1/174 757/1/570 754/1/553 755/1/175
f 508/1/572 523/1/573 503/1/574 502/1/575
f 75/1/448 18/1/449 11/1/576 83/1/272
f 521/1/183 513/1/171 537/1/534 530/1/180
f 679/1/577 682/1/538 678/1/549 675/1/546
f 657/1/473 658/1/292 655/1/445 652/1/444
f 419/1/293 407/1/277 405/1/278 413/1/308
f 761/1/496 760/1/578 757/1/570 758/1/174
f 759/1/173 499/1/579 504/1/366 762/1/365
f 688/1/580 689/1/431 685/1/568 686/1/581
f 311/1/582 319/1/583 314/1/584
f 312/1/585 319/1/583 311/1/582
f 314/1/584 320/1/586 318/1/587
f 807/1/588 810/1/325 809/1/589 808/1/588
f 314/1/584 319/1/583 321/1/590
f 760/1/578 763/1/364 627/1/591 618/1/242
f 315/1/454 323/1/592 316/1/593
f 315/1/454 322/1/453 323/1/592
f 116/1/594 123/1/595 120/1/596 114/1/597
f 318/1/587 320/1/586 325/1/526
f 318/1/587 325/1/526 310/1/598
f 320/1/586 326/1/599 327/1/600
f 698/1/601 693/1/428 692/1/602 697/1/603
f 320/1/586 327/1/600 328/1/604
f 521/1/183 525/1/182 522/1/605 514/1/184
f 696/1/536 703/1/606 697/1/603 692/1/602
f 697/1/603 705/1/607 704/1/608 698/1/601
f 327/1/600 331/1/609 328/1/604
f 283/1/610 289/1/611 285/1/612 276/1/613
f 702/1/614 703/1/606 696/1/536 701/1/535
f 679/1/577 707/1/615 701/1/535 682/1/538
f 330/1/523 335/1/616 334/1/524
f 701/1/535 707/1/615 706/1/617 702/1/614
f 676/1/556 709/1/74 707/1/615 679/1/577
f 707/1/615 709/1/74 708/1/77 706/1/617
f 673/1/555 711/1/75 709/1/74 676/1/556
f 450/1/618 465/1/619 443/1/620 451/1/286
f 341/1/435 8/1/102 279/1/436
f 158/1/261 184/1/260 175/1/479 166/1/480
f 712/1/621 714/1/622 613/1/14 625/1/44
f 341/1/435 344/1/623 8/1/102
f 340/1/624 344/1/623 341/1/435
f 87/1/625 92/1/626 90/1/627 84/1/628
f 712/1/621 625/1/44 635/1/43 715/1/629
f 717/1/630 718/1/631 716/1/632 715/1/629
f 715/1/629 635/1/43 636/1/633 717/1/630
f 347/1/398 43/1/98 348/1/395
f 348/1/395 43/1/98 33/1/97
f 210/1/424 349/1/634 200/1/406
f 210/1/424 350/1/422 349/1/634
f 210/1/424 351/1/423 350/1/422
f 160/1/345 161/1/635 151/1/636 159/1/637
f 349/1/634 350/1/422 354/1/421
f 349/1/634 355/1/399 200/1/406
f 165/1/419 201/1/407 194/1/17 157/1/16
f 592/1/540 599/1/554 598/1/56 597/1/55
f 601/1/638 602/1/639 594/1/640 581/1/641
f 351/1/423 353/1/439 358/1/356
f 361/1/185 360/1/255 352/1/440 217/1/441
f 568/1/88 561/1/319 575/1/38 573/1/89
f 174/1/116 216/1/438 209/1/420 165/1/419
f 25/1/642 52/1/643 26/1/644 16/1/264
f 305/1/567 313/1/645 295/1/646 296/1/565
f 184/1/260 183/1/18 193/1/647 192/1/648
f 359/1/442 360/1/255 368/1/649
f 628/1/100 619/1/78 617/1/96 627/1/591
f 622/1/82 631/1/384 623/1/387 612/1/83
f 360/1/255 361/1/185 370/1/140
f 369/1/254 375/1/391 368/1/649 360/1/255
f 368/1/649 371/1/650 362/1/357 359/1/442
f 55/1/455 47/1/333 154/1/332 145/1/493
f 186/1/651 175/1/479 184/1/260 192/1/648
f 411/1/336 412/1/154 403/1/652 394/1/381
f 252/1/303 259/1/302 3/1/3 6/1/489
f 376/1/382 384/1/392 375/1/391 369/1/254
f 375/1/391 378/1/394 371/1/650 368/1/649
f 407/1/277 432/1/276 433/1/256 406/1/188
f 158/1/261 166/1/480 159/1/637 150/1/653
f 159/1/637 166/1/480 167/1/346 160/1/345
f 176/1/362 175/1/479 186/1/651 185/1/654
f 385/1/338 386/1/337 377/1/139 199/1/138
f 503/1/574 516/1/655 509/1/363 504/1/366
f 379/1/361 387/1/65 381/1/64
f 379/1/361 388/1/68 387/1/65
f 710/1/76 714/1/622 712/1/621 713/1/656
f 417/1/153 425/1/657 420/1/658 409/1/659
f 150/1/653 159/1/637 151/1/636 141/1/660
f 176/1/362 185/1/654 177/1/368 169/1/347
f 53/1/135 323/1/592 322/1/453 61/1/136
f 748/1/501 751/1/544 753/1/465 752/1/560
f 384/1/392 376/1/382 394/1/381 393/1/661
f 384/1/392 393/1/661 392/1/662 383/1/393
f 387/1/65 396/1/70 391/1/66
f 160/1/345 169/1/347 168/1/367 161/1/635
f 505/1/194 512/1/169 491/1/172 490/1/199
f 288/1/529 296/1/565 295/1/646 293/1/530
f 395/1/335 416/1/151 412/1/154 411/1/336
f 112/1/246 103/1/231 102/1/230 111/1/250
f 132/1/663 140/1/664 133/1/665 125/1/666
f 139/1/667 165/1/419 157/1/16 132/1/663
f 428/1/668 429/1/669 435/1/287 434/1/670
f 381/1/64 382/1/67 374/1/671 372/1/359
f 412/1/154 417/1/153 409/1/659 403/1/652
f 403/1/652 401/1/672 393/1/661 394/1/381
f 233/1/470 243/1/488 234/1/487 226/1/673
f 380/1/330 388/1/68 379/1/361 373/1/358
f 148/1/117 174/1/116 165/1/419 139/1/667
f 409/1/659 408/1/674 401/1/672 403/1/652
f 424/1/675 425/1/657 417/1/153 423/1/152
f 408/1/674 410/1/676 402/1/677 401/1/672
f 240/1/144 241/1/678 231/1/679 237/1/141
f 138/1/145 148/1/117 139/1/667 131/1/452
f 337/1/377 339/1/434 287/1/437 294/1/415
f 429/1/669 428/1/668 420/1/658 425/1/657
f 431/1/680 429/1/669 425/1/657 424/1/675
f 42/1/121 52/1/643 25/1/642 32/1/122
f 409/1/659 420/1/658 414/1/681 408/1/674
f 156/1/682 191/1/137 182/1/115 147/1/114
f 156/1/682 206/1/73 199/1/138 191/1/137
f 117/1/683 124/1/684 125/1/666 119/1/685
f 499/1/579 759/1/173 756/1/176 495/1/467
f 92/1/626 99/1/229 96/1/228 90/1/627
f 525/1/182 532/1/215 526/1/253 522/1/605
f 246/1/143 256/1/110 249/1/686 240/1/144
f 131/1/452 125/1/666 124/1/684 130/1/450
f 428/1/668 434/1/670 427/1/687 421/1/688
f 427/1/687 430/1/689 422/1/690 421/1/688
f 366/1/360 367/1/691 357/1/405 356/1/380
f 427/1/687 446/1/692 436/1/123 430/1/689
f 87/1/625 86/1/693 130/1/450 124/1/684
f 90/1/627 96/1/228 91/1/216 85/1/694
f 68/1/159 69/1/509 63/1/695 62/1/160
f 435/1/287 451/1/286 443/1/620 434/1/670
f 146/1/146 155/1/696 156/1/682 147/1/114
f 578/1/204 593/1/32 586/1/186 579/1/178
f 443/1/620 446/1/692 427/1/687 434/1/670
f 56/1/697 50/1/698 40/1/147 48/1/504
f 238/1/699 245/1/142 237/1/141 229/1/700
f 119/1/685 118/1/258 110/1/259 117/1/683
f 285/1/612 292/1/701 291/1/702 284/1/133
f 436/1/123 446/1/692 444/1/703 445/1/520
f 444/1/703 473/1/704 449/1/552 445/1/520
f 443/1/620 465/1/619 444/1/703 446/1/692
f 110/1/259 111/1/250 102/1/230 99/1/229
f 447/1/34 453/1/245 448/1/35
f 110/1/259 99/1/229 92/1/626 117/1/683
f 448/1/35 453/1/245 455/1/249
f 155/1/696 214/1/71 206/1/73 156/1/682
f 453/1/245 458/1/244 455/1/249
f 547/1/461 554/1/262 546/1/224 539/1/400
f 256/1/110 262/1/109 255/1/705 249/1/686
f 365/1/311 389/1/299 380/1/330 373/1/358
f 149/1/15 158/1/261 150/1/653 140/1/664
f 86/1/693 64/1/706 137/1/451 130/1/450
f 460/1/248 467/1/247 468/1/707
f 207/1/72 223/1/708 215/1/709 208/1/710
f 55/1/455 145/1/493 137/1/451 64/1/706
f 135/1/27 144/1/316 143/1/315 134/1/28
f 689/1/431 690/1/711 684/1/569 685/1/568
f 472/1/280 473/1/704 444/1/703 465/1/619
f 468/1/707 467/1/247 476/1/10
f 468/1/707 476/1/10 477/1/9
f 8/1/102 344/1/623 343/1/543 14/1/25
f 478/1/104 470/1/320 479/1/339
f 140/1/664 150/1/653 141/1/660 133/1/665
f 145/1/493 154/1/332 155/1/696 146/1/146
f 480/1/712 481/1/551 449/1/552 473/1/704
f 472/1/280 489/1/279 480/1/712 473/1/704
f 270/1/213 271/1/713 261/1/285 269/1/210
f 96/1/228 102/1/230 97/1/217 91/1/216
f 483/1/12 452/1/11 454/1/219
f 198/1/411 204/1/413 189/1/390 190/1/389
f 253/1/508 260/1/107 256/1/110 246/1/143
f 46/1/459 222/1/53 164/1/334 47/1/333
f 164/1/334 222/1/53 221/1/52 214/1/71
f 291/1/702 510/1/714 482/1/134 284/1/133
f 607/1/241 608/1/95 598/1/56 599/1/554
f 84/1/628 90/1/627 85/1/694 79/1/209
f 221/1/52 230/1/51 223/1/708 207/1/72
f 291/1/702 301/1/715 515/1/716 510/1/714
f 496/1/243 467/1/247 458/1/244
f 476/1/10 467/1/247 496/1/243
f 452/1/11 476/1/10 496/1/243
f 223/1/708 229/1/700 224/1/717 215/1/709
f 482/1/134 510/1/714 498/1/718 489/1/279
f 515/1/716 507/1/719 498/1/718 510/1/714
f 331/1/609 335/1/616 330/1/523 328/1/604
f 77/1/720 78/1/234 72/1/721 71/1/207
f 229/1/700 237/1/141 231/1/679 224/1/717
f 686/1/581 683/1/537 696/1/536 692/1/602
f 80/1/722 86/1/693 87/1/625 84/1/628
f 80/1/722 84/1/628 79/1/209 73/1/723
f 670/1/351 672/1/545 671/1/548 668/1/352
f 515/1/716 527/1/562 508/1/572 507/1/719
f 508/1/572 527/1/562 524/1/561 523/1/573
f 524/1/561 317/1/564 324/1/724 516/1/655
f 505/1/194 490/1/199 438/1/203 466/1/191
f 70/1/725 80/1/722 73/1/723 56/1/697
f 207/1/72 208/1/710 199/1/138 206/1/73
f 309/1/563 527/1/562 515/1/716 301/1/715
f 316/1/593 317/1/564 309/1/563 308/1/726
f 363/1/310 354/1/421 405/1/278 400/1/187
f 494/1/727 502/1/575 499/1/579 495/1/467
f 262/1/109 274/1/211 269/1/210 255/1/705
f 354/1/421 358/1/356 413/1/308 405/1/278
f 64/1/706 70/1/725 49/1/456 55/1/455
f 49/1/456 70/1/725 56/1/697 48/1/504
f 47/1/333 39/1/19 37/1/22 46/1/459
f 88/1/728 77/1/720 71/1/207 81/1/206
f 503/1/574 523/1/573 516/1/655
f 447/1/34 454/1/219 452/1/11 453/1/245
f 516/1/655 523/1/573 524/1/561
f 508/1/572 502/1/575 494/1/727 507/1/719
f 503/1/574 504/1/366 499/1/579 502/1/575
f 93/1/223 100/1/222 77/1/720 88/1/728
f 648/1/446 655/1/445 654/1/291 653/1/474
f 545/1/533 519/1/170 520/1/113 549/1/112
f 100/1/222 106/1/221 78/1/234 77/1/720
f 179/1/239 187/1/238 178/1/369 171/1/349
f 593/1/32 595/1/4 589/1/341 586/1/186
f 36/1/729 54/1/491 46/1/459 37/1/22
f 71/1/207 72/1/721 66/1/730 65/1/208
f 107/1/235 114/1/597 108/1/731 78/1/234
f 531/1/181 540/1/227 538/1/214
f 533/1/252 538/1/214 541/1/226
f 538/1/214 540/1/227 541/1/226
f 408/1/674 414/1/681 415/1/732 410/1/676
f 62/1/160 63/1/695 54/1/491 36/1/729
f 65/1/208 66/1/730 58/1/733 57/1/734
f 109/1/240 116/1/594 114/1/597 107/1/235
f 114/1/597 120/1/596 115/1/735 108/1/731
f 57/1/734 58/1/733 51/1/736 50/1/698
f 134/1/28 136/1/737 129/1/312 127/1/29
f 354/1/421 363/1/310 355/1/399 349/1/634
f 19/1/161 62/1/160 36/1/729 27/1/738
f 543/1/158 551/1/157 552/1/163
f 182/1/115 361/1/185 217/1/441 174/1/116
f 121/1/314 122/1/313 115/1/735 120/1/596
f 310/1/598 313/1/645 314/1/584 318/1/587
f 75/1/448 76/1/514 69/1/509 68/1/159
f 450/1/618 474/1/131 472/1/280 465/1/619
f 27/1/738 36/1/729 37/1/22 29/1/21
f 120/1/596 123/1/595 126/1/739 121/1/314
f 581/1/641 587/1/304 571/1/282 572/1/281
f 48/1/504 40/1/147 30/1/150 38/1/20
f 30/1/150 31/1/149 21/1/63 28/1/62
f 534/1/105 574/1/87 566/1/90 542/1/92
f 75/1/448 83/1/272 82/1/271 76/1/514
f 121/1/314 126/1/739 128/1/30 127/1/29
f 348/1/395 33/1/97 23/1/26 345/1/396
f 566/1/90 573/1/89 567/1/41 558/1/93
f 29/1/21 28/1/62 20/1/61 27/1/738
f 567/1/41 573/1/89 575/1/38
f 328/1/604 330/1/523 325/1/526 320/1/586
f 401/1/672 402/1/677 392/1/662 393/1/661
f 268/1/322 275/1/212 274/1/211 267/1/515
f 563/1/372 557/1/263 554/1/262 555/1/270
f 134/1/28 143/1/315 142/1/318 136/1/737
f 17/1/740 19/1/161 27/1/738 20/1/61
f 9/1/741 18/1/449 19/1/161 17/1/740
f 9/1/741 17/1/740 10/1/742 6/1/489
f 94/1/273 60/1/743 89/1/168 95/1/274
f 11/1/576 18/1/449 9/1/741 5/1/8
f 94/1/273 83/1/272 11/1/576 12/1/744
f 50/1/698 51/1/736 41/1/148 40/1/147
f 5/1/8 9/1/741 6/1/489 3/1/3
f 59/1/165 89/1/168 60/1/743 26/1/644
f 5/1/8 2/1/2 12/1/744 11/1/576
f 60/1/743 94/1/273 12/1/744 15/1/265
f 587/1/304 581/1/641 594/1/640
f 587/1/304 594/1/640 588/1/84
f 589/1/341 595/1/4 590/1/342
f 590/1/342 595/1/4 596/1/7
f 52/1/643 74/1/541 59/1/165 26/1/644
f 26/1/644 60/1/743 15/1/265 16/1/264
f 204/1/413 202/1/414 197/1/401 189/1/390
f 152/1/317 162/1/331 153/1/745 142/1/318
f 594/1/640 602/1/639 588/1/84
f 202/1/414 203/1/425 196/1/746 197/1/401
f 494/1/727 495/1/467 488/1/466 493/1/747
f 34/1/99 43/1/98 44/1/748 35/1/119
f 67/1/542 74/1/541 52/1/643 42/1/121
f 715/1/629 716/1/632 713/1/656 712/1/621
f 162/1/331 170/1/348 163/1/354 153/1/745
f 602/1/639 610/1/749 588/1/84
f 588/1/84 610/1/749 611/1/81
f 172/1/373 179/1/239 171/1/349 144/1/316
f 352/1/440 360/1/255 359/1/442 353/1/439
f 25/1/642 16/1/264 13/1/103 22/1/24
f 32/1/122 25/1/642 22/1/24 24/1/23
f 67/1/542 42/1/121 45/1/120 61/1/136
f 299/1/196 300/1/750 292/1/701 297/1/517
f 610/1/749 620/1/751 611/1/81
f 609/1/752 620/1/751 610/1/749
f 611/1/81 620/1/751 621/1/370
f 644/1/476 651/1/753 645/1/754 640/1/410
f 180/1/375 188/1/236 179/1/239 172/1/373
f 612/1/83 623/1/387 624/1/386
f 14/1/25 22/1/24 13/1/103 8/1/102
f 248/1/511 63/1/695 69/1/509 253/1/508
f 562/1/179 740/1/527 739/1/516 569/1/177
f 617/1/96 618/1/242 627/1/591
f 44/1/748 53/1/135 45/1/120 35/1/119
f 76/1/514 266/1/108 260/1/107 69/1/509
f 609/1/752 610/1/749 602/1/639 601/1/638
f 623/1/387 631/1/384 632/1/388
f 471/1/111 475/1/192 441/1/275 464/1/306
f 624/1/386 633/1/385 634/1/403
f 33/1/97 34/1/99 24/1/23 23/1/26
f 629/1/79 637/1/101 636/1/633
f 188/1/236 197/1/401 196/1/746 195/1/237
f 87/1/625 124/1/684 117/1/683 92/1/626
f 420/1/658 428/1/668 421/1/688 414/1/681
f 15/1/265 12/1/744 2/1/2 7/1/86
f 640/1/410 643/1/409 644/1/476
f 213/1/432 220/1/457 211/1/426 202/1/414
f 640/1/410 646/1/755 641/1/404
f 641/1/404 646/1/755 642/1/402
f 640/1/410 645/1/754 646/1/755
f 643/1/409 647/1/447 644/1/476
f 644/1/476 647/1/447 648/1/446
f 583/1/344 584/1/343 576/1/40 582/1/39
f 644/1/476 649/1/475 650/1/756
f 644/1/476 650/1/756 651/1/753
f 73/1/723 79/1/209 65/1/208 57/1/734
f 218/1/443 242/1/59 232/1/469 225/1/468
f 649/1/475 656/1/486 650/1/756
f 183/1/18 194/1/17 200/1/406 193/1/647
f 225/1/468 233/1/470 226/1/673 219/1/559
f 654/1/291 655/1/445 658/1/292
f 251/1/757 257/1/758 233/1/470 232/1/469
f 197/1/401 180/1/375 181/1/374 189/1/390
f 719/1/460 720/1/129 536/1/47 486/1/46
f 257/1/758 258/1/300 243/1/488 233/1/470
f 662/1/471 584/1/343 664/1/472
f 501/1/482 726/1/477 500/1/462 497/1/571
f 665/1/353 590/1/342 596/1/7
f 586/1/186 589/1/341 583/1/344 560/1/162
f 164/1/334 214/1/71 155/1/696 154/1/332
f 663/1/505 664/1/472 667/1/498
f 664/1/472 584/1/343 667/1/498
f 665/1/353 668/1/352 666/1/506
f 264/1/512 272/1/521 265/1/513 259/1/302
f 603/1/6 613/1/14 669/1/350
f 669/1/350 613/1/14 670/1/351
f 273/1/759 278/1/760 272/1/521 264/1/512
f 670/1/351 613/1/14 673/1/555
f 278/1/760 287/1/437 279/1/436 272/1/521
f 280/1/532 286/1/531 278/1/760 273/1/759
f 286/1/531 294/1/415 287/1/437 278/1/760
f 517/1/106 534/1/105 518/1/118 511/1/193
f 293/1/530 302/1/416 294/1/415 286/1/531
f 275/1/212 283/1/610 276/1/613 270/1/213
f 303/1/761 302/1/416 293/1/530 295/1/646
f 439/1/37 459/1/202 454/1/219 447/1/34
f 295/1/646 313/1/645 310/1/598 303/1/761
f 681/1/558 684/1/569 687/1/762
f 431/1/680 437/1/288 435/1/287 429/1/669
f 305/1/567 311/1/582 314/1/584 313/1/645
f 304/1/566 312/1/585 311/1/582 305/1/567
f 688/1/580 686/1/581 692/1/602
f 688/1/580 693/1/428 689/1/431
f 688/1/580 692/1/602 693/1/428
f 690/1/711 694/1/763 691/1/764
f 689/1/431 694/1/763 690/1/711
f 321/1/590 326/1/599 320/1/586 314/1/584
f 689/1/431 695/1/430 694/1/763
f 329/1/525 303/1/761 310/1/598 325/1/526
f 480/1/712 493/1/747 488/1/466 481/1/551
f 592/1/540 597/1/55 591/1/257 585/1/266
f 693/1/428 698/1/601 699/1/765
f 693/1/428 699/1/765 700/1/429
f 329/1/525 333/1/378 302/1/416 303/1/761
f 757/1/570 760/1/578 618/1/242 607/1/241
f 329/1/525 334/1/524 332/1/379 333/1/378
f 698/1/601 704/1/608 699/1/765
f 248/1/511 245/1/142 238/1/699 247/1/492
f 697/1/603 703/1/606 705/1/607
f 426/1/297 457/1/296 442/1/305 418/1/307
f 338/1/766 339/1/434 337/1/377 336/1/376
f 475/1/192 471/1/111 517/1/106 511/1/193
f 636/1/633 635/1/43 626/1/42 629/1/79
f 340/1/624 341/1/435 339/1/434 338/1/766
f 673/1/555 613/1/14 711/1/75
f 372/1/359 374/1/671 367/1/691 366/1/360
f 343/1/543 344/1/623 340/1/624 342/1/767
f 711/1/75 613/1/14 714/1/622
f 710/1/76 711/1/75 714/1/622
f 342/1/767 346/1/397 345/1/396 343/1/543
f 378/1/394 456/1/294 426/1/297 371/1/650
f 582/1/39 552/1/163 560/1/162 583/1/344
f 717/1/630 636/1/633 637/1/101
f 737/1/503 742/1/518 740/1/527 738/1/510
f 717/1/630 637/1/101 718/1/631
f 54/1/491 239/1/481 228/1/50 46/1/459
f 631/1/384 638/1/383 639/1/408 632/1/388
f 506/1/130 720/1/129 719/1/460
f 239/1/481 247/1/492 238/1/699 230/1/51
f 719/1/460 486/1/46 722/1/340
f 63/1/695 248/1/511 247/1/492 54/1/491
f 720/1/129 723/1/128 536/1/47
f 450/1/618 451/1/286 261/1/285 271/1/713
f 487/1/433 722/1/340 479/1/339 463/1/295
f 690/1/711 691/1/764 687/1/762 684/1/569
f 658/1/292 664/1/472 663/1/505 659/1/289
f 493/1/747 480/1/712 489/1/279 498/1/718
f 730/1/483 734/1/324 731/1/323 729/1/484
f 249/1/686 250/1/768 241/1/678 240/1/144
f 259/1/302 265/1/513 4/1/85 1/1/1
f 728/1/495 733/1/507 553/1/156
f 422/1/690 415/1/732 414/1/681 421/1/688
f 561/1/319 568/1/88 529/1/49 535/1/48
f 249/1/686 255/1/705 254/1/769 250/1/768
f 132/1/663 157/1/16 149/1/15 140/1/664
f 255/1/705 269/1/210 261/1/285 254/1/769
f 377/1/139 386/1/337 376/1/382 369/1/254
f 76/1/514 82/1/271 268/1/322 267/1/515
f 676/1/556 679/1/577 675/1/546 672/1/545
f 562/1/179 738/1/510 740/1/527
f 20/1/61 21/1/63 10/1/742 17/1/740
f 266/1/108 267/1/515 274/1/211 262/1/109
f 445/1/520 449/1/552 749/1/528 745/1/519
f 282/1/321 283/1/610 275/1/212 268/1/322
f 591/1/257 600/1/31 593/1/32 578/1/204
f 605/1/54 615/1/45 614/1/13 606/1/33
f 281/1/167 282/1/321 95/1/274 89/1/168
f 748/1/501 752/1/560 750/1/539 746/1/502
f 289/1/611 283/1/610 282/1/321 281/1/167
f 276/1/613 277/1/132 271/1/713 270/1/213
f 276/1/613 285/1/612 284/1/133 277/1/132
f 57/1/734 50/1/698 56/1/697 73/1/723
f 290/1/166 297/1/517 289/1/611 281/1/167
f 680/1/557 683/1/537 686/1/581 685/1/568
f 498/1/718 507/1/719 494/1/727 493/1/747
f 289/1/611 297/1/517 292/1/701 285/1/612
f 298/1/197 290/1/166 59/1/165 74/1/541
f 131/1/452 139/1/667 132/1/663 125/1/666
f 277/1/132 474/1/131 450/1/618 271/1/713
f 300/1/750 301/1/715 291/1/702 292/1/701
f 300/1/750 308/1/726 309/1/563 301/1/715
f 492/1/463 506/1/130 487/1/433 462/1/417
f 61/1/136 322/1/453 306/1/198 67/1/542
f 230/1/51 238/1/699 229/1/700 223/1/708
f 299/1/196 307/1/195 308/1/726 300/1/750
f 217/1/441 352/1/440 210/1/424 216/1/438
f 80/1/722 70/1/725 64/1/706 86/1/693
f 315/1/454 316/1/593 308/1/726 307/1/195
f 683/1/537 680/1/557 678/1/549 682/1/538
f 316/1/593 323/1/592 324/1/724 317/1/564
f 761/1/496 762/1/365 763/1/364
f 760/1/578 761/1/496 763/1/364
f 764/1/770 765/1/771 766/1/772
f 764/1/770 766/1/772 767/1/773
f 765/1/771 768/1/774 766/1/772
f 767/1/773 766/1/772 769/1/775
f 768/1/774 770/1/776 766/1/772
f 769/1/775 766/1/772 771/1/777
f 770/1/776 772/1/778 766/1/772
f 771/1/777 766/1/772 773/1/779
f 772/1/778 774/1/780 766/1/772
f 773/1/779 766/1/772 775/1/781
f 774/1/780 776/1/782 766/1/772
f 775/1/781 766/1/772 777/1/783
f 776/1/782 778/1/784 766/1/772
f 777/1/783 766/1/772 779/1/785
f 778/1/784 780/1/786 766/1/772
f 779/1/785 766/1/772 781/1/787
f 780/1/786 782/1/788 766/1/772
f 781/1/787 766/1/772 783/1/789
f 782/1/788 784/1/790 766/1/772
f 783/1/789 766/1/772 785/1/791
f 784/1/790 786/1/792 766/1/772
f 785/1/791 766/1/772 787/1/793
f 786/1/792 788/1/794 766/1/772
f 787/1/793 766/1/772 789/1/795
f 789/1/795 766/1/772 790/1/796
f 790/1/796 766/1/772 791/1/797
f 791/1/797 766/1/772 792/1/798
f 792/1/798 766/1/772 793/1/799
f 793/1/799 766/1/772 794/1/800
f 794/1/800 766/1/772 795/1/801
f 795/1/801 766/1/772 796/1/802
f 796/1/802 766/1/772 797/1/803
f 766/1/772 798/1/804 797/1/803
f 766/1/772 799/1/804 800/1/804
f 766/1/772 800/1/804 798/1/804
f 766/1/772 801/1/805 799/1/804
f 766/1/772 802/1/806 801/1/805
f 766/1/772 803/1/807 802/1/806
f 242/1/59 244/1/58 251/1/757 232/1/469
f 803/1/807 806/1/808 805/1/809
f 112/1/246 113/1/251 105/1/233 104/1/232
f 807/1/588 808/1/588 806/1/808 803/1/807
f 809/1/589 810/1/325 811/1/328
f 810/1/325 766/1/810 812/1/326
f 803/1/807 805/1/809 804/1/811 802/1/806
f 812/1/326 766/1/810 814/1/812
f 814/1/812 766/1/810 815/1/813
f 815/1/813 766/1/810 816/1/813
f 816/1/813 766/1/810 817/1/813
f 817/1/813 766/1/810 818/1/814
f 818/1/814 766/1/810 819/1/815
f 819/1/815 766/1/810 820/1/816
f 820/1/816 766/1/810 821/1/817
f 821/1/817 766/1/810 822/1/818
f 822/1/818 766/1/810 823/1/819
f 823/1/819 766/1/810 824/1/820
f 824/1/820 766/1/810 825/1/821
f 825/1/821 766/1/810 826/1/822
f 826/1/822 766/1/810 827/1/823
f 827/1/823 766/1/810 828/1/824
f 828/1/824 766/1/810 829/1/825
f 829/1/825 766/1/810 830/1/826
f 830/1/826 766/1/810 831/1/827
f 831/1/827 766/1/810 832/1/828
f 832/1/828 766/1/810 833/1/829
f 833/1/829 766/1/810 834/1/830
f 834/1/830 766/1/810 835/1/831
f 835/1/831 766/1/810 836/1/832
f 836/1/832 766/1/810 837/1/833
f 837/1/833 766/1/810 838/1/834
f 838/1/834 766/1/810 839/1/835
f 839/1/835 766/1/810 840/1/836
f 840/1/836 766/1/810 841/1/837
f 841/1/837 766/1/810 842/1/838
f 842/1/838 766/1/810 843/1/839
f 843/1/839 766/1/810 844/1/840
f 766/1/810 845/1/841 846/1/842
f 766/1/810 846/1/842 847/1/843
f 766/1/810 847/1/843 844/1/840
f 766/1/810 848/1/844 845/1/841
f 766/1/810 849/1/845 848/1/844
f 766/1/810 850/1/846 849/1/845
f 362/1/357 371/1/650 426/1/297 418/1/307
