# Blender 4.3.2
# www.blender.org
o hair.103
v 7.149012 1.422778 -0.015743
v 7.152699 1.424884 -0.015942
v 7.145325 1.420671 -0.015544
v 7.150996 1.427045 -0.011150
v 7.156251 1.431668 -0.008168
v 7.160072 1.420671 -0.012121
v 7.156385 1.422778 -0.014032
v 7.145325 1.426985 -0.011050
v 7.150559 1.432576 -0.006970
v 7.163564 1.427518 -0.009478
v 7.166880 1.434203 -0.006815
v 7.155977 1.439691 -0.003764
v 7.145325 1.432383 -0.007354
v 7.139654 1.427045 -0.011150
v 7.140091 1.432576 -0.006970
v 7.150523 1.439465 -0.003964
v 7.169739 1.440653 -0.004179
v 7.155720 1.446559 -0.000600
v 7.140127 1.439465 -0.003964
v 7.137951 1.424884 -0.015942
v 7.134399 1.431668 -0.008168
v 7.134674 1.439691 -0.003764
v 7.172029 1.446973 -0.001469
v 7.173661 1.453257 0.001445
v 7.166101 1.455936 0.003909
v 7.134930 1.446559 -0.000600
v 7.141638 1.422778 -0.015743
v 7.130578 1.420671 -0.012121
v 7.134265 1.422778 -0.014032
v 7.123770 1.434203 -0.006815
v 7.120912 1.440653 -0.004179
v 7.175067 1.459367 0.004733
v 7.174072 1.454897 0.007888
v 7.173010 1.450336 0.010656
v 7.173780 1.472981 0.014561
v 7.165416 1.471461 0.013746
v 7.127086 1.427518 -0.009478
v 7.118621 1.446973 -0.001469
v 7.169760 1.478302 0.014561
v 7.116989 1.453257 0.001445
v 7.124549 1.455936 0.003909
v 7.115583 1.459367 0.004733
v 7.125234 1.471461 0.013746
v 7.116869 1.472981 0.014561
v 7.154048 1.496350 -0.003512
v 7.148972 1.497332 -0.003989
v 7.151876 1.497250 -0.000135
v 7.150159 1.496812 -0.005872
v 7.154823 1.494907 -0.007322
v 7.154654 1.496578 0.003732
v 7.157737 1.495328 -0.001047
v 7.145325 1.496639 -0.008343
v 7.148171 1.497508 -0.003280
v 7.150421 1.497533 0.001113
v 7.152575 1.496962 0.005494
v 7.150538 1.496048 -0.008001
v 7.154630 1.494208 -0.009457
v 7.158874 1.493240 -0.006458
v 7.158598 1.492241 -0.009558
v 7.162162 1.491360 -0.005112
v 7.160173 1.494186 0.001531
v 7.147275 1.497635 -0.002758
v 7.148804 1.497731 0.002016
v 7.150266 1.497227 0.006764
v 7.153883 1.496233 0.009223
v 7.150431 1.495654 -0.009154
v 7.161837 1.490266 -0.009042
v 7.165673 1.488899 -0.002423
v 7.165142 1.490417 0.002097
v 7.146317 1.497714 -0.002441
v 7.147090 1.497856 0.002562
v 7.147828 1.497397 0.007532
v 7.156392 1.495793 0.007259
v 7.150135 1.495278 -0.010290
v 7.168979 1.485705 0.005295
v 7.166253 1.489234 0.008729
v 7.164008 1.491461 0.006267
v 7.145325 1.497741 -0.002333
v 7.145325 1.497901 0.002747
v 7.161750 1.492601 0.011303
v 7.159090 1.493275 0.014814
v 7.154077 1.493557 -0.011573
v 7.163559 1.490271 0.014918
v 7.168109 1.486155 0.011237
v 7.144333 1.497714 -0.002441
v 7.143560 1.497856 0.002562
v 7.142822 1.497397 0.007532
v 7.145325 1.497458 0.007790
v 7.157803 1.491323 -0.012621
v 7.161122 1.490849 0.018357
v 7.165449 1.487386 0.018143
v 7.143375 1.497635 -0.002758
v 7.141847 1.497731 0.002016
v 7.142406 1.496714 0.011380
v 7.140384 1.497227 0.006764
v 7.148245 1.496714 0.011380
v 7.142479 1.497508 -0.003280
v 7.140230 1.497533 0.001113
v 7.141685 1.494230 0.019780
v 7.145325 1.496786 0.011652
v 7.139536 1.496522 0.010569
v 7.138114 1.494040 0.018732
v 7.136766 1.496233 0.009223
v 7.138076 1.496962 0.005494
v 7.151114 1.496522 0.010569
v 7.138774 1.497250 -0.000135
v 7.141678 1.497332 -0.003989
v 7.134686 1.493739 0.017184
v 7.136856 1.491647 0.023240
v 7.133289 1.491469 0.021207
v 7.135997 1.496578 0.003732
v 7.155965 1.493739 0.017184
v 7.140491 1.496812 -0.005872
v 7.136602 1.496350 -0.003512
v 7.148966 1.494230 0.019780
v 7.152536 1.494040 0.018732
v 7.157362 1.491469 0.021207
v 7.140112 1.496048 -0.008001
v 7.135827 1.494907 -0.007322
v 7.132913 1.495328 -0.001047
v 7.145325 1.494297 0.020179
v 7.153794 1.491647 0.023240
v 7.154917 1.488648 0.027009
v 7.158724 1.488524 0.025100
v 7.162813 1.488032 0.021911
v 7.140219 1.495654 -0.009154
v 7.130477 1.494186 0.001531
v 7.134258 1.495793 0.007259
v 7.141059 1.491955 0.024179
v 7.149974 1.488876 0.028454
v 7.155838 1.485222 0.030620
v 7.165898 1.483804 0.022742
v 7.164494 1.484121 0.025036
v 7.128900 1.492601 0.011303
v 7.131561 1.493275 0.014814
v 7.135733 1.488648 0.027009
v 7.140676 1.488876 0.028454
v 7.166399 1.479223 0.024370
v 7.166975 1.483523 0.021116
v 7.127090 1.490271 0.014918
v 7.126642 1.491461 0.006267
v 7.129528 1.490849 0.018357
v 7.131926 1.488524 0.025100
v 7.134812 1.485222 0.030620
v 7.167097 1.478902 0.022538
v 7.168136 1.483208 0.018709
v 7.168524 1.478600 0.021656
v 7.169367 1.482827 0.016070
v 7.128488 1.491360 -0.005112
v 7.125509 1.490417 0.002097
v 7.124397 1.489234 0.008729
v 7.166512 1.474624 0.025186
v 7.166863 1.474376 0.023834
v 7.169811 1.478370 0.020006
v 7.131776 1.493240 -0.006458
v 7.128813 1.490266 -0.009042
v 7.124978 1.488899 -0.002423
v 7.121671 1.485705 0.005295
v 7.122541 1.486155 0.011237
v 7.125201 1.487386 0.018143
v 7.166372 1.469976 0.024902
v 7.165507 1.479521 0.026346
v 7.136021 1.494208 -0.009457
v 7.127837 1.488032 0.021911
v 7.165563 1.470334 0.026566
v 7.164828 1.465873 0.025887
v 7.162682 1.484117 0.026805
v 7.163499 1.479587 0.027374
v 7.165747 1.474854 0.026695
v 7.164092 1.474898 0.027477
v 7.136574 1.493557 -0.011573
v 7.132052 1.492241 -0.009558
v 7.163843 1.470217 0.027228
v 7.159811 1.484714 0.028483
v 7.161440 1.479739 0.028155
v 7.158022 1.485124 0.029521
v 7.162827 1.474860 0.027816
v 7.132848 1.491323 -0.012621
v 7.157799 1.480201 0.030792
v 7.159111 1.479928 0.029475
v 7.152894 1.484958 0.031628
v 7.156161 1.480367 0.032091
v 7.125657 1.487672 -0.008090
v 7.129882 1.489339 -0.012941
v 7.127026 1.486834 -0.012829
v 7.156238 1.475624 0.032418
v 7.157509 1.475486 0.031426
v 7.158405 1.475238 0.030374
v 7.153813 1.480269 0.032374
v 7.150238 1.484884 0.031577
v 7.154367 1.475585 0.032643
v 7.122645 1.484227 -0.006683
v 7.121632 1.484982 -0.000752
v 7.131473 1.488377 -0.016293
v 7.156146 1.471033 0.032319
v 7.157424 1.470778 0.031052
v 7.151788 1.480137 0.032167
v 7.148519 1.484943 0.031841
v 7.147808 1.480346 0.033023
v 7.149131 1.480202 0.032439
v 7.118871 1.480920 0.001057
v 7.119104 1.481581 0.006955
v 7.155708 1.466610 0.031424
v 7.154317 1.470903 0.032422
v 7.153149 1.475450 0.032578
v 7.148104 1.475580 0.033189
v 7.149590 1.491955 0.024179
v 7.145325 1.488934 0.029014
v 7.147174 1.475779 0.033658
v 7.146995 1.471100 0.033561
v 7.145325 1.492084 0.024762
v 7.145325 1.484999 0.032297
v 7.145325 1.480494 0.033876
v 7.145325 1.475832 0.034316
v 7.145325 1.471275 0.034230
v 7.145325 1.466862 0.033344
v 7.142132 1.484943 0.031841
v 7.142843 1.480346 0.033023
v 7.143476 1.475779 0.033658
v 7.143655 1.471100 0.033561
v 7.140413 1.484884 0.031577
v 7.141519 1.480202 0.032439
v 7.142547 1.475580 0.033189
v 7.137755 1.484958 0.031628
v 7.136837 1.480269 0.032374
v 7.138862 1.480137 0.032167
v 7.134489 1.480367 0.032091
v 7.132852 1.480201 0.030792
v 7.132628 1.485124 0.029521
v 7.136283 1.475585 0.032643
v 7.137501 1.475450 0.032578
v 7.134412 1.475624 0.032418
v 7.133142 1.475486 0.031426
v 7.131539 1.479928 0.029475
v 7.130840 1.484714 0.028483
v 7.127968 1.484117 0.026805
v 7.126156 1.484121 0.025036
v 7.134504 1.471033 0.032319
v 7.136333 1.470903 0.032422
v 7.132245 1.475238 0.030374
v 7.133226 1.470778 0.031052
v 7.127151 1.479587 0.027374
v 7.129210 1.479739 0.028155
v 7.125143 1.479521 0.026346
v 7.124251 1.479223 0.024370
v 7.124752 1.483804 0.022742
v 7.134942 1.466610 0.031424
v 7.126558 1.474898 0.027477
v 7.127823 1.474860 0.027816
v 7.124137 1.474624 0.025186
v 7.124903 1.474854 0.026695
v 7.123675 1.483523 0.021116
v 7.123554 1.478902 0.022538
v 7.121283 1.482827 0.016070
v 7.122515 1.483208 0.018709
v 7.125087 1.470334 0.026566
v 7.126808 1.470217 0.027228
v 7.123787 1.474376 0.023834
v 7.124279 1.469976 0.024902
v 7.122127 1.478600 0.021656
v 7.120839 1.478370 0.020006
v 7.120480 1.482494 0.014030
v 7.119719 1.481997 0.011150
v 7.125823 1.465873 0.025887
v 7.119785 1.473706 0.020925
v 7.120858 1.473744 0.021687
v 7.119724 1.478131 0.018167
v 7.118800 1.473579 0.019587
v 7.118919 1.477904 0.015979
v 7.117395 1.477069 0.008156
v 7.118215 1.477589 0.012845
v 7.120088 1.469040 0.020901
v 7.117757 1.473341 0.017483
v 7.118942 1.469028 0.019894
v 7.117078 1.476491 0.002310
v 7.117903 1.475993 -0.004202
v 7.119957 1.480252 -0.005252
v 7.116869 1.472981 0.014561
v 7.116112 1.471470 0.003165
v 7.116407 1.471908 0.008804
v 7.119589 1.464479 0.019730
v 7.118277 1.468746 0.017219
v 7.121814 1.479671 -0.011485
v 7.124298 1.483523 -0.012258
v 7.116291 1.465766 0.008791
v 7.117050 1.466035 0.013313
v 7.119484 1.475628 -0.010854
v 7.122307 1.475188 -0.017047
v 7.124382 1.479048 -0.017161
v 7.126641 1.482658 -0.017122
v 7.128979 1.485857 -0.016885
v 7.117368 1.459738 0.012147
v 7.117774 1.471041 -0.009966
v 7.127604 1.478489 -0.021984
v 7.116563 1.471203 -0.003245
v 7.131459 1.484903 -0.020241
v 7.129504 1.481853 -0.021195
v 7.134110 1.490469 -0.015304
v 7.135789 1.489716 -0.017586
v 7.133556 1.487465 -0.019085
v 7.116238 1.465573 -0.002053
v 7.115957 1.465583 0.003789
v 7.133024 1.481107 -0.024150
v 7.134491 1.484066 -0.022846
v 7.136104 1.486694 -0.021331
v 7.137459 1.492956 -0.013444
v 7.138637 1.492429 -0.015041
v 7.115583 1.459367 0.004733
v 7.116656 1.460073 0.008676
v 7.137907 1.483436 -0.024749
v 7.137840 1.489094 -0.019445
v 7.140174 1.488627 -0.020825
v 7.138999 1.486107 -0.022986
v 7.140998 1.494940 -0.011309
v 7.140515 1.495278 -0.010290
v 7.116963 1.456205 0.009138
v 7.117551 1.454695 0.011291
v 7.140074 1.491996 -0.016343
v 7.141710 1.491670 -0.017311
v 7.142108 1.485764 -0.024018
v 7.142702 1.488344 -0.021675
v 7.143483 1.491473 -0.017906
v 7.141645 1.494649 -0.012189
v 7.116578 1.454897 0.007888
v 7.117640 1.450336 0.010656
v 7.142435 1.494410 -0.012909
v 7.145325 1.488249 -0.021968
v 7.144310 1.494123 -0.013775
v 7.145325 1.491407 -0.018111
v 7.116487 1.460026 -0.001135
v 7.117026 1.455413 -0.001011
v 7.116989 1.453257 0.001445
v 7.143333 1.494232 -0.013446
v 7.145325 1.494085 -0.013887
v 7.146341 1.494123 -0.013775
v 7.147167 1.491473 -0.017906
v 7.117074 1.465612 -0.008462
v 7.117100 1.459758 -0.006670
v 7.118621 1.446973 -0.001469
v 7.117794 1.453942 -0.004835
v 7.147317 1.494232 -0.013446
v 7.148940 1.491670 -0.017311
v 7.147949 1.488344 -0.021675
v 7.119429 1.465520 -0.014987
v 7.118397 1.459645 -0.013064
v 7.118705 1.453418 -0.010485
v 7.120605 1.470773 -0.016440
v 7.148216 1.494410 -0.012909
v 7.150576 1.491996 -0.016343
v 7.150476 1.488627 -0.020825
v 7.148542 1.485764 -0.024018
v 7.145325 1.485653 -0.024377
v 7.120989 1.459541 -0.018286
v 7.125825 1.474882 -0.022505
v 7.124187 1.469953 -0.022697
v 7.149004 1.494649 -0.012189
v 7.145325 1.482963 -0.026393
v 7.141555 1.483078 -0.025963
v 7.130278 1.474596 -0.026273
v 7.131627 1.477934 -0.025304
v 7.122111 1.464869 -0.019919
v 7.152013 1.492429 -0.015041
v 7.149652 1.494940 -0.011309
v 7.153191 1.492956 -0.013444
v 7.141047 1.480254 -0.027645
v 7.136919 1.480553 -0.026238
v 7.135992 1.477530 -0.027550
v 7.123175 1.463398 -0.021954
v 7.152811 1.489094 -0.019445
v 7.156540 1.490469 -0.015304
v 7.120361 1.453502 -0.016064
v 7.122338 1.453688 -0.019701
v 7.122751 1.459201 -0.021066
v 7.159177 1.488377 -0.016293
v 7.154861 1.489716 -0.017586
v 7.120836 1.447240 -0.013388
v 7.124864 1.459580 -0.023354
v 7.119547 1.447583 -0.008350
v 7.151651 1.486107 -0.022986
v 7.154546 1.486694 -0.021331
v 7.160768 1.489339 -0.012941
v 7.124953 1.464759 -0.023882
v 7.120686 1.442796 -0.007457
v 7.120912 1.440653 -0.004179
v 7.152744 1.483436 -0.024749
v 7.149096 1.483078 -0.025963
v 7.163624 1.486834 -0.012829
v 7.164993 1.487672 -0.008090
v 7.128730 1.465350 -0.027178
v 7.123770 1.434203 -0.006815
v 7.149604 1.480254 -0.027645
v 7.145325 1.480157 -0.028158
v 7.157094 1.487465 -0.019085
v 7.169019 1.484982 -0.000752
v 7.168005 1.484227 -0.006683
v 7.145325 1.477244 -0.029641
v 7.140575 1.477313 -0.029070
v 7.159191 1.484903 -0.020241
v 7.156159 1.484066 -0.022846
v 7.171779 1.480920 0.001057
v 7.171546 1.481581 0.006955
v 7.140123 1.474285 -0.030284
v 7.135080 1.474407 -0.028769
v 7.161671 1.485857 -0.016885
v 7.157626 1.481107 -0.024150
v 7.153731 1.480553 -0.026238
v 7.173255 1.477069 0.008156
v 7.170931 1.481997 0.011150
v 7.170170 1.482494 0.014030
v 7.134300 1.470567 -0.029740
v 7.129204 1.470535 -0.026960
v 7.164009 1.482658 -0.017122
v 7.154658 1.477530 -0.027550
v 7.150075 1.477313 -0.029070
v 7.171731 1.477904 0.015979
v 7.170926 1.478131 0.018167
v 7.166353 1.483523 -0.012258
v 7.161147 1.481853 -0.021195
v 7.150527 1.474285 -0.030284
v 7.145325 1.474241 -0.030811
v 7.170865 1.473706 0.020925
v 7.171850 1.473579 0.019587
v 7.168837 1.479670 -0.011485
v 7.170693 1.480252 -0.005252
v 7.163046 1.478489 -0.021984
v 7.159023 1.477934 -0.025304
v 7.145325 1.470558 -0.031649
v 7.139720 1.470563 -0.031208
v 7.169792 1.473744 0.021687
v 7.166269 1.479048 -0.017161
v 7.173573 1.476491 0.002310
v 7.172748 1.475993 -0.004202
v 7.160372 1.474596 -0.026273
v 7.155570 1.474407 -0.028769
v 7.139404 1.465581 -0.031717
v 7.133807 1.465495 -0.030232
v 7.170562 1.469040 0.020901
v 7.174538 1.471470 0.003165
v 7.171166 1.475628 -0.010854
v 7.168343 1.475188 -0.017047
v 7.156350 1.470567 -0.029740
v 7.150930 1.470563 -0.031208
v 7.133587 1.459943 -0.029884
v 7.128625 1.459796 -0.026825
v 7.172876 1.471041 -0.009966
v 7.174087 1.471203 -0.003245
v 7.151246 1.465581 -0.031717
v 7.145325 1.465608 -0.032148
v 7.128703 1.454162 -0.025701
v 7.124821 1.453906 -0.022553
v 7.172894 1.473341 0.017483
v 7.171708 1.469028 0.019894
v 7.164825 1.474882 -0.022505
v 7.145325 1.459947 -0.031852
v 7.139218 1.459973 -0.031420
v 7.125278 1.447518 -0.020907
v 7.122619 1.447276 -0.017536
v 7.172435 1.477589 0.012845
v 7.171061 1.464479 0.019730
v 7.166464 1.469953 -0.022697
v 7.161446 1.470535 -0.026960
v 7.139235 1.454234 -0.029818
v 7.133608 1.454324 -0.028386
v 7.123822 1.440558 -0.014565
v 7.122046 1.441175 -0.010708
v 7.172374 1.468746 0.017219
v 7.161921 1.465350 -0.027178
v 7.156843 1.465495 -0.030232
v 7.133989 1.447877 -0.025877
v 7.129176 1.447769 -0.023724
v 7.174243 1.471908 0.008804
v 7.173780 1.472981 0.014561
v 7.157063 1.459943 -0.029884
v 7.151433 1.459973 -0.031420
v 7.130209 1.440310 -0.020773
v 7.126427 1.440439 -0.018200
v 7.174360 1.465766 0.008791
v 7.173600 1.466035 0.013313
v 7.151414 1.454234 -0.029818
v 7.145325 1.454098 -0.030304
v 7.127997 1.433594 -0.015419
v 7.125496 1.434357 -0.012124
v 7.173283 1.459738 0.012147
v 7.145325 1.447508 -0.027719
v 7.151179 1.447706 -0.027177
v 7.156661 1.447877 -0.025877
v 7.157042 1.454324 -0.028386
v 7.139471 1.447706 -0.027177
v 7.127223 1.429402 -0.011496
v 7.127086 1.427518 -0.009478
v 7.173994 1.460073 0.008676
v 7.173099 1.454695 0.011291
v 7.173687 1.456205 0.009138
v 7.150720 1.439849 -0.023755
v 7.161947 1.454162 -0.025701
v 7.162025 1.459796 -0.026825
v 7.139931 1.439849 -0.023755
v 7.130578 1.420671 -0.012121
v 7.175067 1.459367 0.004733
v 7.174693 1.465583 0.003789
v 7.173010 1.450336 0.010656
v 7.174072 1.454897 0.007888
v 7.165786 1.459580 -0.023354
v 7.165698 1.464759 -0.023882
v 7.145325 1.439663 -0.024283
v 7.174412 1.465573 -0.002053
v 7.167475 1.463398 -0.021954
v 7.167900 1.459201 -0.021066
v 7.168312 1.453688 -0.019701
v 7.165830 1.453906 -0.022553
v 7.145325 1.432148 -0.020745
v 7.169662 1.459541 -0.018286
v 7.168540 1.464869 -0.019919
v 7.165372 1.447518 -0.020907
v 7.161474 1.447769 -0.023724
v 7.140512 1.432424 -0.020309
v 7.135878 1.432898 -0.019207
v 7.134809 1.440128 -0.022534
v 7.171221 1.465520 -0.014987
v 7.170045 1.470773 -0.016440
v 7.160441 1.440310 -0.020773
v 7.155841 1.440128 -0.022534
v 7.141081 1.427087 -0.017780
v 7.154772 1.432898 -0.019207
v 7.159062 1.433197 -0.017681
v 7.162653 1.433594 -0.015419
v 7.164223 1.440439 -0.018200
v 7.150139 1.432424 -0.020309
v 7.149570 1.427087 -0.017780
v 7.145325 1.426476 -0.017995
v 7.131588 1.433197 -0.017681
v 7.173576 1.465612 -0.008462
v 7.157707 1.427617 -0.015585
v 7.145325 1.420671 -0.015544
v 7.132944 1.427617 -0.015585
v 7.129570 1.427719 -0.013679
v 7.136924 1.427830 -0.017016
v 7.173550 1.459758 -0.006670
v 7.174163 1.460026 -0.001135
v 7.172254 1.459645 -0.013064
v 7.153726 1.427830 -0.017016
v 7.137951 1.424884 -0.015942
v 7.173625 1.455413 -0.001011
v 7.173661 1.453257 0.001445
v 7.171946 1.453418 -0.010485
v 7.170289 1.453502 -0.016064
v 7.152699 1.424884 -0.015942
v 7.149012 1.422778 -0.015743
v 7.134265 1.422778 -0.014032
v 7.141638 1.422778 -0.015743
v 7.172029 1.446973 -0.001469
v 7.169814 1.447240 -0.013388
v 7.168031 1.447276 -0.017536
v 7.156385 1.422778 -0.014032
v 7.169739 1.440653 -0.004179
v 7.169964 1.442796 -0.007457
v 7.171103 1.447583 -0.008350
v 7.172856 1.453942 -0.004835
v 7.166828 1.440558 -0.014565
v 7.160072 1.420671 -0.012121
v 7.161081 1.427719 -0.013679
v 7.166880 1.434203 -0.006815
v 7.168604 1.441175 -0.010708
v 7.163427 1.429402 -0.011496
v 7.163564 1.427518 -0.009478
v 7.165154 1.434357 -0.012124
v 7.117551 1.454695 0.011291
v 7.117640 1.450336 0.010656
v 7.117368 1.459738 0.012147
v 7.116578 1.454897 0.007888
v 7.117050 1.466035 0.013313
v 7.143655 1.471100 0.033561
v 7.142547 1.475580 0.033189
v 7.145325 1.466862 0.033344
v 7.140413 1.484884 0.031577
v 7.145325 1.481434 -0.004238
v 7.141519 1.480202 0.032439
v 7.148104 1.475580 0.033189
v 7.146995 1.471100 0.033561
v 7.137501 1.475450 0.032578
v 7.138862 1.480137 0.032167
v 7.150238 1.484884 0.031577
v 7.149131 1.480202 0.032439
v 7.153149 1.475450 0.032578
v 7.151788 1.480137 0.032167
v 7.155708 1.466610 0.031424
v 7.158405 1.475238 0.030374
v 7.159811 1.484714 0.028483
v 7.168524 1.478600 0.021656
v 7.166975 1.483523 0.021116
v 7.169792 1.473744 0.021687
v 7.167097 1.478902 0.022538
v 7.166863 1.474376 0.023834
v 7.166372 1.469976 0.024902
v 7.164828 1.465873 0.025887
v 7.163843 1.470217 0.027228
v 7.162827 1.474860 0.027816
v 7.172374 1.468746 0.017219
v 7.171061 1.464479 0.019730
v 7.159632 1.477202 0.005169
v 7.170562 1.469040 0.020901
v 7.134942 1.466610 0.031424
v 7.132245 1.475238 0.030374
v 7.130840 1.484714 0.028483
v 7.123675 1.483523 0.021116
v 7.122127 1.478600 0.021656
v 7.120858 1.473744 0.021687
v 7.123554 1.478902 0.022538
v 7.123787 1.474376 0.023834
v 7.124279 1.469976 0.024902
v 7.125823 1.465873 0.025887
v 7.127823 1.474860 0.027816
v 7.126808 1.470217 0.027228
v 7.119589 1.464479 0.019730
v 7.118277 1.468746 0.017219
v 7.131019 1.477202 0.005169
v 7.120088 1.469040 0.020901
v 7.129210 1.479739 0.028155
v 7.136333 1.470903 0.032422
v 7.133226 1.470778 0.031052
v 7.131539 1.479928 0.029475
v 7.157424 1.470778 0.031052
v 7.159111 1.479928 0.029475
v 7.154317 1.470903 0.032422
v 7.161440 1.479739 0.028155
v 7.173099 1.454695 0.011291
v 7.173283 1.459738 0.012147
v 7.173600 1.466035 0.013313
vn 0.0995 0.7960 0.5970
vn -0.0416 -0.6963 0.7165
vn -0.0000 -0.7144 0.6998
vn -0.2172 -0.6958 0.6846
vn 0.0416 -0.6962 0.7166
vn -0.0000 -0.6509 0.7592
vn -0.0263 -0.4936 0.8693
vn 0.2172 -0.6958 0.6846
vn -0.3762 -0.4283 0.8216
vn -0.0000 0.2290 0.9734
vn -0.2697 0.5602 -0.7832
vn -0.3030 0.4873 -0.8190
vn -0.4267 0.4963 -0.7560
vn -0.3807 0.5719 -0.7266
vn 0.0145 -0.5015 0.8650
vn 0.5592 -0.5310 0.6367
vn 0.0120 -0.4165 0.9091
vn 0.8284 0.4377 -0.3494
vn 0.7610 0.4398 -0.4770
vn 0.7050 0.5011 -0.5018
vn 0.7778 0.5059 -0.3729
vn 0.1763 -0.4259 -0.8874
vn 0.1610 -0.4180 -0.8941
vn -0.0000 -0.4121 -0.9112
vn -0.0000 -0.4237 -0.9058
vn -0.0000 -0.5213 0.8534
vn 0.0128 -0.4284 0.9035
vn -0.0478 -0.4322 0.9005
vn -0.0584 -0.4248 0.9034
vn -0.0471 -0.4239 0.9045
vn -0.0306 -0.4295 0.9025
vn 0.0306 -0.4295 0.9025
vn 0.0478 -0.4322 0.9005
vn -0.0128 -0.4284 0.9035
vn -0.0145 -0.5015 0.8650
vn 0.0263 -0.4936 0.8693
vn 0.0584 -0.4248 0.9034
vn 0.0895 -0.4791 0.8732
vn -0.1199 -0.6385 0.7602
vn -0.2216 0.5910 0.7757
vn 0.3762 -0.4282 0.8217
vn -0.0000 0.3714 0.9285
vn 0.0471 -0.4239 0.9045
vn -0.0120 -0.4165 0.9091
vn 0.6282 0.1171 0.7692
vn 0.6750 0.0806 0.7334
vn 0.5379 0.4342 0.7226
vn 0.5017 0.4683 0.7273
vn 0.3567 -0.9342 0.0077
vn 0.3075 -0.5670 -0.7642
vn -0.6797 -0.7277 0.0920
vn -0.1820 -0.2721 0.9449
vn -0.0178 -0.3947 0.9186
vn -0.5592 -0.5310 0.6367
vn -0.0852 -0.0644 0.9943
vn -0.0895 -0.4791 0.8732
vn 0.1199 -0.6385 0.7602
vn -0.3567 -0.9342 0.0077
vn -0.0148 -0.5347 0.8449
vn 0.2526 -0.4284 0.8676
vn -0.1827 0.9539 -0.2381
vn -0.3090 0.9338 -0.1805
vn -0.2163 0.9746 -0.0573
vn -0.1203 0.9809 -0.1531
vn -0.2144 0.9246 -0.3148
vn -0.3572 0.8867 -0.2936
vn -0.4335 0.8927 -0.1234
vn -0.3000 0.9537 0.0209
vn -0.4902 0.8323 -0.2587
vn 0.1203 0.9809 -0.1531
vn 0.1827 0.9539 -0.2381
vn -0.0000 0.9515 -0.3078
vn 0.0799 0.9890 -0.1241
vn -0.0799 0.9890 -0.1241
vn -0.1491 0.9888 -0.0090
vn -0.1982 0.9769 0.0798
vn 0.2144 0.9246 -0.3148
vn -0.2096 0.9169 -0.3397
vn -0.3512 0.8726 -0.3395
vn -0.4735 0.8179 -0.3269
vn -0.6072 0.7642 -0.2175
vn -0.5250 0.8493 -0.0545
vn -0.3783 0.9208 0.0949
vn -0.1030 0.9946 0.0139
vn -0.0556 0.9922 -0.1112
vn 0.0556 0.9922 -0.1112
vn -0.4891 0.7103 -0.5062
vn -0.6118 0.5988 -0.5169
vn -0.6844 0.6165 -0.3893
vn -0.5548 0.7313 -0.3967
vn -0.9435 0.1622 -0.2890
vn -0.9814 0.1387 -0.1328
vn -0.9320 0.3108 -0.1866
vn -0.8830 0.3391 -0.3244
vn 0.2096 0.9169 -0.3397
vn 0.6983 -0.1323 0.7035
vn 0.7288 -0.0154 0.6846
vn 0.6790 0.0004 0.7341
vn 0.4072 -0.1278 0.9043
vn -0.5982 0.7435 -0.2991
vn -0.7214 0.6363 -0.2734
vn -0.7229 0.6695 -0.1710
vn -0.7018 0.7081 -0.0785
vn 0.0301 0.9941 -0.1038
vn -0.0547 0.9981 0.0271
vn -0.0301 0.9941 -0.1038
vn -0.1351 0.9848 0.1093
vn -0.0719 0.9894 0.1261
vn -0.1974 0.9090 -0.3671
vn -0.3299 0.8596 -0.3901
vn 0.1974 0.9090 -0.3671
vn -0.8153 0.5791 -0.0043
vn -0.7405 0.6645 0.1005
vn -0.6332 0.7730 0.0390
vn 0.7018 0.7081 -0.0785
vn 0.5250 0.8493 -0.0545
vn 0.6332 0.7730 0.0390
vn -0.0000 0.9949 -0.1012
vn -0.0000 0.8534 0.5213
vn -0.0000 0.9300 0.3676
vn -0.1071 0.9265 0.3606
vn -0.1339 0.8501 0.5093
vn 0.4335 0.8927 -0.1234
vn 0.4902 0.8323 -0.2587
vn 0.3572 0.8867 -0.2936
vn 0.3090 0.9338 -0.1805
vn -0.4135 0.8762 0.2475
vn -0.2544 0.9526 0.1669
vn -0.5281 0.8358 0.1505
vn -0.1171 0.8847 -0.4512
vn -0.0813 0.8798 -0.4683
vn -0.1350 0.8136 -0.5655
vn -0.1945 0.8210 -0.5368
vn -0.8109 -0.1566 -0.5639
vn -0.8162 -0.2859 -0.5021
vn -0.9114 -0.2597 -0.3192
vn -0.9065 -0.1584 -0.3913
vn -0.6427 0.7322 0.2253
vn -0.5020 0.7976 0.3344
vn 0.7405 0.6645 0.1005
vn 0.7939 0.5910 0.1427
vn 0.8153 0.5791 -0.0043
vn 0.6427 0.7322 0.2253
vn -0.0000 0.9995 0.0317
vn 0.0547 0.9981 0.0271
vn -0.0000 0.9913 0.1318
vn 0.0719 0.9894 0.1261
vn -0.4382 0.8050 -0.3999
vn -0.7939 0.5910 0.1427
vn -0.8177 0.5065 0.2734
vn -0.7140 0.6406 0.2827
vn -0.5758 0.6999 0.4227
vn 0.1830 0.7348 -0.6531
vn 0.2278 0.6465 -0.7281
vn 0.1226 0.6389 -0.7595
vn 0.0968 0.7275 -0.6793
vn 0.0701 0.8094 -0.5830
vn -0.0000 0.7254 -0.6884
vn -0.0000 0.8081 -0.5891
vn 0.3758 0.0200 0.9265
vn 0.3793 0.1598 0.9114
vn 0.0854 0.9711 0.2230
vn 0.1591 0.9656 0.2059
vn 0.1351 0.9848 0.1093
vn -0.0854 0.9711 0.2230
vn -0.0000 0.9735 0.2288
vn 0.3546 0.8326 0.4255
vn 0.5020 0.7976 0.3344
vn 0.4135 0.8762 0.2475
vn 0.2949 0.9046 0.3079
vn 0.1030 0.9946 0.0139
vn 0.1982 0.9769 0.0798
vn 0.1491 0.9888 -0.0090
vn 0.1071 0.9265 0.3606
vn 0.2544 0.9526 0.1669
vn 0.8165 0.3405 -0.4663
vn 0.8758 0.1689 -0.4523
vn 0.7598 0.1632 -0.6293
vn 0.6974 0.3394 -0.6313
vn 0.6920 -0.0619 0.7192
vn 0.8482 -0.0872 0.5224
vn 0.8655 0.1370 0.4817
vn 0.7257 0.1247 0.6766
vn 0.5643 0.1862 -0.8043
vn 0.5145 0.3428 -0.7859
vn 0.1339 0.8501 0.5093
vn 0.2360 0.8413 0.4863
vn 0.1933 0.9200 0.3409
vn 0.3512 0.8726 -0.3395
vn 0.3299 0.8596 -0.3901
vn 0.3783 0.9208 0.0949
vn 0.3000 0.9537 0.0209
vn -0.2949 0.9046 0.3079
vn -0.1933 0.9200 0.3409
vn -0.1591 0.9656 0.2059
vn -0.9337 0.3294 0.1402
vn -0.9739 0.1424 0.1767
vn -0.9438 0.1155 0.3096
vn -0.8989 0.3591 0.2512
vn 0.0501 0.1281 0.9905
vn 0.0210 0.0124 0.9997
vn -0.3546 0.8326 0.4255
vn -0.2360 0.8413 0.4863
vn 0.8830 0.3391 -0.3244
vn 0.2163 0.9746 -0.0573
vn -0.1621 -0.3144 -0.9353
vn -0.3502 -0.2879 -0.8913
vn -0.3828 -0.1368 -0.9137
vn -0.1653 -0.1540 -0.9742
vn -0.8922 0.4405 -0.0998
vn -0.9576 0.2827 -0.0560
vn -0.9538 0.2946 0.0597
vn -0.8882 0.4577 0.0389
vn 0.8989 0.3591 0.2512
vn 0.9337 0.3294 0.1402
vn 0.8784 0.4633 0.1172
vn 0.8496 0.4890 0.1977
vn -0.9129 0.0394 -0.4062
vn -0.8686 0.0478 -0.4932
vn -0.8845 -0.0375 -0.4650
vn -0.9455 -0.0606 -0.3201
vn 0.5877 0.0272 -0.8086
vn 0.3871 0.0345 -0.9214
vn 0.3702 0.1957 -0.9081
vn -0.0000 0.4594 0.8882
vn -0.0000 0.7237 0.6901
vn -0.1346 0.7359 0.6636
vn -0.1923 0.4284 0.8829
vn 0.5281 0.8358 0.1505
vn 0.8103 0.5271 -0.2560
vn 0.7214 0.6363 -0.2734
vn 0.7229 0.6695 -0.1710
vn 0.8204 0.5547 -0.1385
vn 0.9114 -0.2597 -0.3192
vn 0.8996 -0.3346 -0.2808
vn 0.8206 -0.3660 -0.4390
vn 0.8162 -0.2859 -0.5021
vn 0.5758 0.6999 0.4227
vn 0.6870 0.4724 0.5521
vn 0.8095 0.4237 0.4064
vn -0.5036 0.5879 -0.6330
vn -0.5786 0.5063 -0.6395
vn -0.7050 0.5011 -0.5018
vn 0.2616 0.7613 0.5932
vn 0.4091 0.7407 0.5328
vn 0.1346 0.7359 0.6636
vn 0.5982 0.7434 -0.2991
vn 0.5548 0.7313 -0.3967
vn 0.4382 0.8050 -0.3999
vn 0.4735 0.8179 -0.3269
vn -0.8083 0.4329 0.3990
vn -0.9204 0.1340 0.3672
vn -0.9057 0.1582 0.3933
vn -0.8095 0.4237 0.4064
vn -0.8010 -0.0598 -0.5956
vn 0.3356 0.5074 0.7937
vn 0.0956 0.4380 0.8939
vn 0.8084 0.4329 0.3990
vn 0.8091 0.4674 0.3562
vn 0.7140 0.6406 0.2827
vn -0.8091 0.4674 0.3562
vn -0.7978 0.3301 0.5046
vn -0.7796 0.3086 0.5450
vn 0.8177 0.5065 0.2734
vn 0.7796 0.3086 0.5450
vn 0.7978 0.3301 0.5046
vn 0.6469 -0.3921 -0.6541
vn 0.6528 -0.3078 -0.6921
vn 0.3670 -0.3722 -0.8525
vn 0.6118 -0.3227 -0.7222
vn 0.5603 -0.3057 -0.7698
vn 0.3411 -0.3341 -0.8787
vn -0.3863 0.7859 -0.4827
vn 0.2476 0.8311 -0.4979
vn 0.3267 0.7664 -0.5530
vn 0.2592 0.7485 -0.6104
vn 0.1945 0.8210 -0.5368
vn 0.6072 0.7642 -0.2175
vn 0.6621 0.1223 0.7394
vn 0.9983 -0.0344 0.0461
vn 0.9894 -0.0752 -0.1245
vn 0.9943 0.0051 -0.1061
vn 0.9998 0.0154 0.0091
vn 0.8922 0.4405 -0.0998
vn 0.8699 0.4353 -0.2320
vn 0.9593 0.0093 0.2823
vn 0.9307 0.0124 0.3657
vn 0.8891 -0.1257 0.4402
vn -0.9307 0.0124 0.3657
vn -0.7008 0.0187 0.7131
vn -0.7259 0.1880 0.6616
vn -0.9468 -0.1053 0.3040
vn -0.8482 -0.0872 0.5224
vn -0.8655 0.1370 0.4817
vn 0.6711 -0.1290 0.7300
vn 0.6542 -0.2179 0.7242
vn -0.6870 0.4724 0.5521
vn -0.4519 0.1376 0.8814
vn -0.5261 0.4283 0.7347
vn -0.3205 0.6641 -0.6754
vn -0.2278 0.6465 -0.7281
vn -0.3595 0.0029 0.9331
vn -0.9916 -0.0143 0.1282
vn -0.9790 -0.0352 0.2010
vn -0.9792 -0.0683 0.1909
vn -0.9884 -0.0415 0.1458
vn 0.3703 -0.1186 0.9213
vn 0.5261 0.4283 0.7347
vn -0.4073 0.1034 0.9074
vn -0.5379 0.4342 0.7226
vn -0.7996 -0.0019 -0.6005
vn 0.3595 0.0029 0.9331
vn 0.2950 -0.0032 0.9555
vn 0.8522 0.3611 0.3785
vn -0.6282 0.1171 0.7692
vn -0.5017 0.4683 0.7273
vn -0.6750 0.0806 0.7334
vn -0.3356 0.5074 0.7937
vn -0.3793 0.1598 0.9114
vn 0.2827 -0.4270 -0.8589
vn 0.2663 -0.4085 -0.8730
vn 0.1748 -0.4310 -0.8853
vn -0.8204 0.5547 -0.1385
vn -0.6790 0.0004 0.7341
vn -0.3758 0.0200 0.9265
vn -0.7288 -0.0153 0.6846
vn 0.0833 0.4183 0.9045
vn -0.0501 0.1281 0.9905
vn 0.0720 0.0948 0.9929
vn -0.0833 0.4183 0.9045
vn -0.0956 0.4380 0.8939
vn -0.0210 0.0124 0.9997
vn 0.6844 0.6165 -0.3893
vn -0.2950 -0.0032 0.9555
vn 0.4891 0.7103 -0.5062
vn 0.3863 0.7859 -0.4827
vn 0.6118 0.5988 -0.5169
vn -0.4072 -0.1278 0.9043
vn -0.0697 -0.1096 0.9915
vn -0.6983 -0.1323 0.7035
vn 0.0702 0.0088 0.9975
vn 0.1923 0.4284 0.8829
vn 0.9435 0.1622 -0.2890
vn 0.8882 0.4577 0.0389
vn 0.3896 -0.2195 0.8944
vn 0.0697 -0.1096 0.9915
vn -0.0702 0.0088 0.9975
vn 0.2931 0.8441 -0.4490
vn 0.1757 0.8994 -0.4002
vn -0.3876 0.0241 0.9215
vn -0.0000 0.0332 0.9994
vn -0.0000 0.1841 0.9829
vn -0.3174 0.1456 0.9371
vn 0.3229 0.4336 -0.8412
vn 0.1800 0.4201 -0.8894
vn 0.1703 0.4868 -0.8568
vn 0.3030 0.4873 -0.8190
vn 0.4372 0.0133 0.8993
vn 0.3876 0.0241 0.9215
vn 0.3585 -0.0959 0.9286
vn -0.0000 -0.1049 0.9945
vn -0.0000 -0.1970 0.9804
vn 0.9822 -0.0874 -0.1665
vn 0.9736 0.0168 -0.2277
vn 0.3174 0.1456 0.9371
vn -0.3585 -0.0959 0.9286
vn 0.3454 0.1124 0.9317
vn -0.4372 0.0133 0.8993
vn 0.9739 0.1424 0.1767
vn 0.9884 -0.0415 0.1458
vn 0.9916 -0.0143 0.1282
vn 0.9912 0.1090 0.0756
vn -0.5354 -0.2300 -0.8127
vn -0.4726 -0.3387 -0.8136
vn -0.6528 -0.3078 -0.6921
vn -0.6769 -0.1810 -0.7135
vn -0.2827 -0.4270 -0.8589
vn -0.4181 -0.4160 -0.8075
vn -0.4371 -0.4074 -0.8018
vn -0.2902 -0.4150 -0.8623
vn -0.1703 0.4868 -0.8568
vn -0.1477 0.5596 -0.8155
vn -0.4091 0.7407 0.5328
vn 0.9933 0.1139 -0.0172
vn 0.9814 0.1387 -0.1328
vn 0.9320 0.3108 -0.1866
vn 0.9576 0.2827 -0.0560
vn 0.6338 0.4449 -0.6327
vn 0.4630 0.4401 -0.7693
vn 0.4267 0.4963 -0.7560
vn 0.5786 0.5063 -0.6395
vn -0.8784 0.4633 0.1172
vn 0.7996 -0.0019 -0.6005
vn 0.8010 -0.0598 -0.5956
vn 0.6912 -0.0867 -0.7175
vn 0.6973 0.0099 -0.7167
vn 0.7259 0.1880 0.6616
vn 0.9057 0.1582 0.3933
vn -0.3896 -0.2195 0.8944
vn 0.4073 0.1034 0.9074
vn 0.4519 0.1376 0.8814
vn -0.2616 0.7613 0.5932
vn 0.9204 0.1340 0.3672
vn 0.7008 0.0187 0.7131
vn -0.3703 -0.1186 0.9213
vn -0.9593 0.0093 0.2823
vn -0.8891 -0.1257 0.4402
vn -0.8496 0.4890 0.1977
vn -0.6711 -0.1290 0.7300
vn -0.6542 -0.2179 0.7242
vn 0.9129 0.0394 -0.4062
vn 0.9438 0.1155 0.3096
vn 0.9538 0.2946 0.0597
vn -0.7257 0.1247 0.6766
vn -0.6920 -0.0619 0.7192
vn -0.6621 0.1223 0.7394
vn 0.9468 -0.1053 0.3040
vn -0.8810 -0.1416 0.4514
vn -0.8996 -0.3346 -0.2808
vn -0.9367 -0.2984 -0.1829
vn -0.9540 -0.2299 -0.1926
vn 0.9792 -0.0683 0.1909
vn 0.9790 -0.0352 0.2010
vn 0.5036 0.5879 -0.6330
vn 0.4090 0.6875 -0.6001
vn 0.3807 0.5719 -0.7266
vn -0.2663 -0.4085 -0.8730
vn -0.3670 -0.3722 -0.8525
vn -0.7778 0.5059 -0.3729
vn -0.8103 0.5271 -0.2560
vn 0.3205 0.6641 -0.6754
vn 0.2697 0.5602 -0.7832
vn -0.4090 0.6875 -0.6001
vn 0.1488 0.8913 -0.4284
vn -0.1757 0.8994 -0.4002
vn 0.9659 -0.0445 0.2550
vn 0.9529 -0.0274 0.3021
vn -0.9659 -0.0445 0.2550
vn -0.9727 -0.0599 0.2240
vn -0.2476 0.8311 -0.4979
vn -0.1488 0.8913 -0.4284
vn 0.1477 0.5596 -0.8155
vn 0.1350 0.8136 -0.5655
vn -0.9626 -0.0419 0.2675
vn -0.9529 -0.0274 0.3021
vn 0.1171 0.8847 -0.4512
vn 0.0813 0.8798 -0.4683
vn 0.3443 0.3447 -0.8733
vn 0.1777 0.3217 -0.9300
vn 0.0420 0.8770 -0.4787
vn -0.0000 0.5614 -0.8276
vn -0.1226 0.6389 -0.7595
vn -0.0000 0.6373 -0.7707
vn -0.9983 -0.0344 0.0461
vn -0.9894 -0.0752 -0.1245
vn -0.9788 -0.1497 -0.1397
vn -0.9759 -0.1642 -0.1441
vn -0.0420 0.8770 -0.4787
vn -0.0000 0.8760 -0.4823
vn -0.0701 0.8094 -0.5830
vn -0.0968 0.7275 -0.6793
vn -0.0000 0.3041 -0.9527
vn -0.0000 0.4114 -0.9114
vn 0.9540 -0.2299 -0.1926
vn 0.9065 -0.1584 -0.3913
vn 0.9590 -0.1674 -0.2285
vn 0.9455 -0.0606 -0.3201
vn 0.9759 -0.1640 -0.1441
vn 0.9657 -0.2172 -0.1424
vn -0.1830 0.7348 -0.6531
vn 0.8845 -0.0375 -0.4650
vn 0.8686 0.0478 -0.4932
vn 0.3828 -0.1368 -0.9137
vn 0.5814 -0.1068 -0.8066
vn 0.5354 -0.2300 -0.8127
vn 0.3502 -0.2879 -0.8913
vn 0.9788 -0.1497 -0.1397
vn -0.2931 0.8441 -0.4490
vn -0.3267 0.7664 -0.5530
vn -0.0000 0.4881 -0.8728
vn -0.6469 -0.3921 -0.6541
vn -0.7598 0.1632 -0.6293
vn -0.2592 0.7485 -0.6104
vn -0.8522 0.3611 0.3785
vn 0.8109 -0.1566 -0.5639
vn -0.9590 -0.1674 -0.2285
vn -0.9736 0.0168 -0.2277
vn -0.9943 0.0051 -0.1061
vn 0.8342 -0.3714 -0.4077
vn 0.6521 -0.3950 -0.6471
vn -0.6973 0.0099 -0.7167
vn 0.9367 -0.2984 -0.1829
vn -0.9657 -0.2172 -0.1424
vn -0.9360 -0.3207 -0.1453
vn 0.4726 -0.3387 -0.8136
vn 0.3099 -0.3727 -0.8747
vn -0.8931 -0.3528 -0.2790
vn -0.8284 0.4377 -0.3494
vn -0.8699 0.4353 -0.2320
vn -0.9912 0.1090 0.0756
vn 0.1689 -0.4152 -0.8939
vn 0.2902 -0.4150 -0.8623
vn -0.1800 0.4201 -0.8894
vn -0.5814 -0.1068 -0.8066
vn -0.5877 0.0272 -0.8086
vn -0.3871 0.0345 -0.9214
vn 0.1715 0.1826 -0.9681
vn -0.6118 -0.3227 -0.7222
vn -0.6521 -0.3950 -0.6471
vn -0.3229 0.4336 -0.8412
vn -0.1777 0.3217 -0.9300
vn -0.3443 0.3447 -0.8733
vn -0.7610 0.4398 -0.4770
vn -0.6338 0.4449 -0.6327
vn -0.4630 0.4401 -0.7693
vn -0.0000 0.1694 -0.9855
vn -0.1715 0.1826 -0.9681
vn -0.5145 0.3428 -0.7859
vn -0.6974 0.3394 -0.6313
vn 0.4371 -0.4074 -0.8018
vn 0.4181 -0.4160 -0.8075
vn -0.9933 0.1139 -0.0172
vn -0.8165 0.3405 -0.4663
vn -0.3702 0.1957 -0.9081
vn -0.5643 0.1862 -0.8043
vn 0.1653 -0.1540 -0.9742
vn 0.1673 0.0308 -0.9854
vn -0.0720 0.0948 0.9929
vn -0.8758 0.1689 -0.4523
vn -0.1673 0.0308 -0.9854
vn -0.0000 0.0262 -0.9997
vn 0.6769 -0.1810 -0.7135
vn -0.6912 -0.0867 -0.7175
vn -0.0000 -0.1573 -0.9875
vn -0.0000 -0.3871 -0.9220
vn -0.1628 -0.3862 -0.9079
vn -0.0000 -0.3173 -0.9483
vn 0.8810 -0.1416 0.4514
vn 0.1621 -0.3144 -0.9353
vn -0.2420 -0.4038 -0.8823
vn -0.3411 -0.3341 -0.8787
vn 0.8931 -0.3528 -0.2790
vn 0.1628 -0.3862 -0.9079
vn -0.9998 0.0154 0.0091
vn -0.0000 -0.4319 -0.9019
vn -0.1748 -0.4310 -0.8853
vn -0.1689 -0.4152 -0.8939
vn -0.0000 -0.4147 -0.9099
vn -0.3099 -0.3727 -0.8747
vn -0.8342 -0.3714 -0.4077
vn -0.8375 -0.3228 -0.4410
vn -0.8845 -0.3097 -0.3490
vn 0.9727 -0.0599 0.2240
vn -0.5603 -0.3057 -0.7698
vn 0.9626 -0.0419 0.2675
vn -0.8206 -0.3660 -0.4390
vn -0.9759 -0.1640 -0.1441
vn -0.9822 -0.0874 -0.1665
vn -0.3454 0.1124 0.9317
vn -0.1763 -0.4259 -0.8874
vn -0.1610 -0.4180 -0.8941
vn 0.2420 -0.4038 -0.8823
vn 0.9759 -0.1642 -0.1441
vn 0.9360 -0.3207 -0.1453
vn 0.8375 -0.3228 -0.4410
vn 0.8845 -0.3097 -0.3490
vn 0.7302 -0.0861 0.6778
vn 0.6797 -0.7277 0.0920
vn 0.7302 -0.0885 0.6775
vn -0.3075 -0.5670 -0.7641
vn 0.7221 -0.1010 0.6844
vn -0.6589 -0.2228 -0.7185
vn -0.9521 -0.2764 -0.1304
vn -0.0000 -0.8799 -0.4752
vn -0.0172 -0.9928 0.1185
vn -0.0000 -0.9917 -0.1289
vn -0.8413 -0.1010 0.5310
vn 0.9521 -0.2764 -0.1304
vn 0.6589 -0.2228 -0.7185
vn 0.9478 -0.2842 0.1447
vn 0.7040 -0.1435 0.6955
vn 0.0172 -0.9928 0.1185
vn 0.8413 -0.1010 0.5310
vn -0.9478 -0.2842 0.1447
vn -0.7040 -0.1435 0.6955
vn -0.2413 -0.8729 -0.4240
vn 0.8742 -0.2725 -0.4019
vn 0.1467 -0.9874 0.0586
vn -0.7424 -0.1789 0.6456
vn -0.0066 -0.9961 0.0877
vn -0.7413 -0.2119 0.6368
vn 0.7508 -0.2006 -0.6294
vn 0.7437 -0.2288 -0.6281
vn 0.6946 -0.3386 -0.6348
vn -0.3416 -0.9067 -0.2472
vn -0.8669 -0.2864 0.4081
vn -0.8657 -0.2648 0.4248
vn 0.3361 -0.5624 -0.7555
vn -0.5293 -0.8478 -0.0314
vn 0.3185 -0.5841 -0.7466
vn 0.3247 -0.5778 -0.7488
vn -0.7415 -0.2356 0.6282
vn 0.2413 -0.8729 -0.4240
vn -0.8742 -0.2725 -0.4019
vn -0.1467 -0.9874 0.0586
vn 0.0066 -0.9961 0.0877
vn 0.7424 -0.1789 0.6456
vn 0.7413 -0.2119 0.6368
vn -0.7508 -0.2006 -0.6294
vn -0.7437 -0.2288 -0.6281
vn -0.6946 -0.3386 -0.6348
vn 0.3416 -0.9067 -0.2472
vn 0.8657 -0.2648 0.4248
vn 0.8669 -0.2864 0.4081
vn 0.5293 -0.8478 -0.0314
vn -0.3361 -0.5624 -0.7555
vn -0.3185 -0.5841 -0.7466
vn -0.3247 -0.5778 -0.7488
vn 0.7415 -0.2356 0.6282
vn 0.0761 -0.0906 0.9930
vn 0.9226 -0.2264 -0.3122
vn -0.3045 -0.2083 -0.9295
vn -0.9432 -0.1937 -0.2701
vn 0.3045 -0.2083 -0.9295
vn 0.9432 -0.1937 -0.2700
vn -0.9227 -0.2264 -0.3122
vn -0.0761 -0.0906 0.9930
vn -0.7302 -0.0861 0.6778
vn -0.7302 -0.0885 0.6775
vn -0.7221 -0.1010 0.6844
vt 0.000000 0.000000
s 1
f 1/1/1 2/1/2 3/1/3
f 14/1/4 20/1/5 3/1/3 8/1/6
f 2/1/2 5/1/7 4/1/8
f 2/1/2 6/1/9 5/1/7
f 2/1/2 7/1/10 6/1/9
f 310/1/11 366/1/12 303/1/13 304/1/14
f 4/1/8 5/1/7 9/1/15
f 6/1/9 10/1/16 11/1/17
f 6/1/9 11/1/17 5/1/7
f 423/1/18 430/1/19 412/1/20 417/1/21
f 529/1/22 548/1/23 534/1/24 530/1/25
f 9/1/15 13/1/26 8/1/6 4/1/8
f 9/1/15 16/1/27 13/1/26
f 26/1/28 38/1/29 31/1/30 22/1/31
f 12/1/32 18/1/33 16/1/27
f 13/1/26 19/1/34 15/1/35
f 14/1/4 21/1/36 20/1/5
f 14/1/4 15/1/35 21/1/36
f 12/1/32 16/1/27 9/1/15 5/1/7
f 18/1/33 23/1/37 24/1/38
f 18/1/33 24/1/38 25/1/39
f 19/1/34 26/1/28 22/1/31
f 20/1/5 27/1/40 3/1/3
f 20/1/5 21/1/36 28/1/41
f 20/1/5 28/1/41 29/1/42
f 11/1/17 17/1/43 12/1/32 5/1/7
f 21/1/36 30/1/44 28/1/41
f 179/1/45 180/1/46 174/1/47 176/1/48
f 24/1/38 32/1/49 25/1/39
f 25/1/39 32/1/49 33/1/50
f 25/1/39 33/1/50 34/1/51
f 25/1/39 35/1/52 36/1/53
f 28/1/41 30/1/44 37/1/54
f 35/1/52 39/1/55 36/1/53
f 38/1/29 26/1/28 40/1/56
f 40/1/56 26/1/28 41/1/57
f 40/1/56 41/1/57 42/1/58
f 41/1/57 43/1/59 44/1/60
f 113/1/61 114/1/62 106/1/63 107/1/64
f 118/1/65 119/1/66 114/1/62 113/1/61
f 114/1/62 120/1/67 111/1/68 106/1/63
f 119/1/66 155/1/69 120/1/67 114/1/62
f 46/1/70 48/1/71 52/1/72
f 46/1/70 52/1/72 53/1/73
f 97/1/74 107/1/64 106/1/63 98/1/75
f 106/1/63 111/1/68 104/1/76 98/1/75
f 48/1/71 56/1/77 52/1/72
f 126/1/78 163/1/79 119/1/66 118/1/65
f 163/1/79 172/1/80 155/1/69 119/1/66
f 120/1/67 155/1/69 149/1/81 127/1/82
f 127/1/82 128/1/83 111/1/68 120/1/67
f 97/1/74 98/1/75 93/1/84 92/1/85
f 53/1/73 52/1/72 62/1/86
f 194/1/87 291/1/88 185/1/89 184/1/90
f 17/1/43 23/1/37 18/1/33 12/1/32
f 293/1/91 295/1/92 276/1/93 287/1/94
f 56/1/77 66/1/95 52/1/72
f 196/1/96 188/1/97 187/1/98 195/1/99
f 156/1/100 183/1/101 157/1/102 149/1/81
f 149/1/81 157/1/102 150/1/103 127/1/82
f 62/1/86 52/1/72 70/1/104
f 93/1/84 86/1/105 85/1/106 92/1/85
f 93/1/84 95/1/107 87/1/108 86/1/105
f 126/1/78 315/1/109 171/1/110 163/1/79
f 66/1/95 74/1/111 52/1/72
f 15/1/35 19/1/34 22/1/31 21/1/36
f 150/1/103 158/1/112 151/1/113 141/1/114
f 69/1/115 61/1/116 77/1/117
f 70/1/104 52/1/72 78/1/118
f 211/1/119 121/1/120 99/1/121 129/1/122
f 8/1/6 13/1/26 15/1/35 14/1/4
f 51/1/123 58/1/124 49/1/125 45/1/126
f 135/1/127 103/1/128 128/1/83 134/1/129
f 326/1/130 333/1/131 319/1/132 318/1/133
f 372/1/134 457/1/135 376/1/136 371/1/137
f 140/1/138 142/1/139 135/1/127 134/1/129
f 76/1/140 84/1/141 75/1/142
f 76/1/140 83/1/143 84/1/141
f 78/1/118 52/1/72 85/1/106
f 78/1/118 79/1/144 71/1/145 70/1/104
f 79/1/144 88/1/146 72/1/147 71/1/145
f 178/1/148 184/1/90 156/1/100 172/1/80
f 159/1/149 254/1/150 160/1/151 140/1/138
f 160/1/151 164/1/152 142/1/139 140/1/138
f 85/1/106 52/1/72 92/1/85
f 350/1/153 379/1/154 351/1/155 343/1/156
f 336/1/157 343/1/156 327/1/158 329/1/159
f 186/1/160 187/1/98 179/1/45 182/1/161
f 96/1/162 105/1/163 64/1/164 72/1/147
f 171/1/110 178/1/148 172/1/80 163/1/79
f 94/1/165 100/1/166 88/1/146 87/1/108
f 117/1/167 90/1/168 81/1/169 112/1/170
f 92/1/85 52/1/72 97/1/74
f 63/1/171 64/1/164 55/1/172 54/1/173
f 100/1/166 121/1/120 115/1/174 96/1/162
f 62/1/86 63/1/171 54/1/173 53/1/73
f 64/1/164 105/1/163 65/1/175 55/1/172
f 440/1/176 520/1/177 460/1/178 453/1/179
f 437/1/180 452/1/181 422/1/182 421/1/183
f 97/1/74 52/1/72 107/1/64
f 460/1/178 461/1/184 433/1/185 453/1/179
f 207/1/186 122/1/187 116/1/188 115/1/174
f 57/1/189 82/1/190 74/1/111 66/1/95
f 65/1/175 73/1/191 50/1/192 55/1/172
f 108/1/193 102/1/194 101/1/195 103/1/128
f 65/1/175 112/1/170 81/1/169
f 105/1/163 116/1/188 112/1/170 65/1/175
f 107/1/64 52/1/72 113/1/61
f 271/1/196 278/1/197 273/1/198 269/1/199
f 182/1/161 189/1/200 191/1/201 186/1/160
f 94/1/165 101/1/195 102/1/194 99/1/121
f 135/1/127 142/1/139 110/1/202 108/1/193
f 110/1/202 109/1/203 102/1/194 108/1/193
f 423/1/18 439/1/204 440/1/176 430/1/19
f 113/1/61 52/1/72 118/1/65
f 45/1/126 48/1/71 46/1/70 47/1/205
f 462/1/206 463/1/207 443/1/208 455/1/209
f 201/1/210 275/1/211 270/1/212 202/1/213
f 415/1/214 458/1/215 408/1/216 409/1/217
f 118/1/65 52/1/72 126/1/78
f 116/1/188 122/1/187 117/1/167 112/1/170
f 344/1/218 361/1/219 353/1/220 345/1/221
f 121/1/120 211/1/119 207/1/186 115/1/174
f 467/1/222 468/1/223 441/1/224 461/1/184
f 212/1/225 208/1/226 137/1/227 217/1/228
f 81/1/169 90/1/168 83/1/143 80/1/229
f 395/1/230 388/1/231 68/1/232 394/1/233
f 552/1/234 563/1/235 559/1/236 553/1/237
f 125/1/238 133/1/239 132/1/240
f 73/1/191 80/1/229 77/1/117 61/1/116
f 103/1/128 135/1/127 108/1/193
f 49/1/125 56/1/77 48/1/71 45/1/126
f 296/1/241 297/1/242 290/1/243 291/1/88
f 123/1/244 124/1/245 117/1/167 122/1/187
f 122/1/187 207/1/186 130/1/246 123/1/244
f 67/1/247 381/1/248 89/1/249 59/1/250
f 252/1/251 253/1/252 245/1/253 246/1/254
f 353/1/220 373/1/255 372/1/134 371/1/137
f 77/1/117 80/1/229 83/1/143 76/1/140
f 124/1/245 125/1/238 90/1/168 117/1/167
f 131/1/256 176/1/48 124/1/245 123/1/244
f 130/1/246 181/1/257 131/1/256 123/1/244
f 139/1/258 146/1/259 91/1/260
f 255/1/261 261/1/262 260/1/263 252/1/251
f 91/1/260 146/1/259 148/1/264
f 147/1/265 154/1/266 146/1/259 139/1/258
f 553/1/237 559/1/236 527/1/267 514/1/268
f 127/1/82 150/1/103 141/1/114
f 533/1/269 561/1/270 560/1/271 554/1/272
f 178/1/148 298/1/273 194/1/87 184/1/90
f 362/1/274 375/1/275 369/1/276 349/1/277
f 67/1/247 59/1/250 58/1/124 60/1/278
f 147/1/265 429/1/279 421/1/183 154/1/266
f 75/1/142 394/1/233 68/1/232 69/1/115
f 151/1/113 159/1/149 140/1/138
f 151/1/113 158/1/112 159/1/149
f 499/1/280 539/1/281 506/1/282 500/1/283
f 400/1/284 424/1/285 395/1/230 394/1/233
f 153/1/286 152/1/287 161/1/288
f 250/1/289 251/1/290 244/1/291 245/1/253
f 95/1/107 101/1/195 94/1/165 87/1/108
f 273/1/198 282/1/292 274/1/293 268/1/294
f 161/1/288 165/1/295 166/1/296
f 237/1/297 244/1/291 242/1/298 236/1/299
f 305/1/300 313/1/301 310/1/11 304/1/14
f 244/1/291 251/1/290 248/1/302 242/1/298
f 285/1/303 309/1/304 292/1/305 286/1/306
f 59/1/250 89/1/249 82/1/190 57/1/189
f 165/1/295 173/1/307 166/1/296
f 167/1/308 124/1/245 174/1/47
f 242/1/298 243/1/309 235/1/310 236/1/299
f 368/1/311 373/1/255 353/1/220 361/1/219
f 124/1/245 176/1/48 174/1/47
f 170/1/312 177/1/313 173/1/307
f 148/1/264 416/1/314 415/1/214 409/1/217
f 228/1/315 229/1/316 235/1/310 234/1/317
f 144/1/318 229/1/316 228/1/315 227/1/319
f 524/1/320 541/1/321 529/1/22 528/1/322
f 157/1/102 193/1/323 158/1/112 150/1/103
f 228/1/315 233/1/324 232/1/325 227/1/319
f 234/1/317 240/1/326 233/1/324 228/1/315
f 181/1/257 130/1/246 190/1/327
f 225/1/328 226/1/329 221/1/330 224/1/331
f 227/1/319 232/1/325 230/1/332 225/1/328
f 395/1/230 417/1/21 387/1/333 388/1/231
f 248/1/302 249/1/334 243/1/309 242/1/298
f 89/1/249 381/1/248 374/1/335 370/1/336
f 387/1/333 404/1/337 374/1/335 381/1/248
f 186/1/160 195/1/99 187/1/98
f 238/1/338 239/1/339 230/1/332 232/1/325
f 233/1/324 240/1/326 241/1/340 238/1/338
f 230/1/332 231/1/341 226/1/329 225/1/328
f 190/1/327 130/1/246 198/1/342
f 91/1/260 148/1/264 84/1/141 83/1/143
f 68/1/232 388/1/231 67/1/247 60/1/278
f 445/1/343 520/1/177 440/1/176 439/1/204
f 84/1/141 408/1/216 401/1/344 75/1/142
f 195/1/99 203/1/345 196/1/96
f 195/1/99 204/1/346 203/1/345
f 204/1/346 191/1/201 205/1/347
f 74/1/111 82/1/190 364/1/348 363/1/349
f 219/1/350 214/1/351 213/1/352 218/1/353
f 413/1/354 414/1/355 391/1/356 406/1/357
f 67/1/247 388/1/231 387/1/333 381/1/248
f 211/1/119 129/1/122 137/1/227 208/1/226
f 206/1/358 209/1/359 210/1/360
f 217/1/228 218/1/353 213/1/352 212/1/225
f 72/1/147 64/1/164 63/1/171 71/1/145
f 87/1/108 88/1/146 79/1/144 86/1/105
f 210/1/360 215/1/361 216/1/362
f 208/1/226 212/1/225 198/1/342 130/1/246
f 506/1/282 539/1/281 538/1/363 532/1/364
f 213/1/352 214/1/351 209/1/359 199/1/365
f 215/1/361 210/1/360 209/1/359 214/1/351
f 215/1/361 220/1/366 216/1/362
f 217/1/228 137/1/227 221/1/330
f 199/1/365 200/1/367 190/1/327 198/1/342
f 219/1/350 223/1/368 220/1/366
f 199/1/365 209/1/359 206/1/358 200/1/367
f 137/1/227 224/1/331 221/1/330
f 472/1/369 478/1/370 477/1/371 471/1/372
f 181/1/257 189/1/200 182/1/161 131/1/256
f 449/1/373 470/1/374 456/1/375 450/1/376
f 237/1/297 246/1/254 245/1/253 244/1/291
f 88/1/146 100/1/166 96/1/162 72/1/147
f 517/1/377 531/1/378 475/1/379 518/1/380
f 365/1/381 366/1/12 310/1/11 358/1/382
f 229/1/316 143/1/383 235/1/310
f 438/1/384 446/1/385 432/1/386 431/1/387
f 143/1/383 236/1/299 235/1/310
f 124/1/245 167/1/308 133/1/239 125/1/238
f 232/1/325 233/1/324 238/1/338
f 425/1/388 426/1/389 405/1/390 418/1/391
f 230/1/332 239/1/339 231/1/341
f 202/1/213 263/1/392 159/1/149 158/1/112
f 237/1/297 236/1/299 143/1/383 164/1/152
f 507/1/393 508/1/394 503/1/395 504/1/396
f 133/1/239 162/1/397 138/1/398 132/1/240
f 237/1/297 164/1/152 246/1/254
f 132/1/240 139/1/258 91/1/260 125/1/238
f 238/1/338 241/1/340 247/1/399
f 238/1/338 247/1/399 239/1/339
f 82/1/190 89/1/249 370/1/336 364/1/348
f 175/1/400 177/1/313 170/1/312 168/1/401
f 86/1/105 79/1/144 78/1/118 85/1/106
f 144/1/318 224/1/331 137/1/227 136/1/402
f 152/1/287 153/1/286 145/1/403 138/1/398
f 160/1/151 255/1/261 252/1/251
f 160/1/151 254/1/150 255/1/261
f 170/1/312 173/1/307 165/1/295 169/1/404
f 152/1/287 169/1/404 165/1/295 161/1/288
f 248/1/302 257/1/405 249/1/334
f 250/1/289 258/1/406 259/1/407
f 168/1/401 162/1/397 133/1/239 167/1/308
f 154/1/266 416/1/314 148/1/264 146/1/259
f 159/1/149 262/1/408 254/1/150
f 159/1/149 263/1/392 262/1/408
f 256/1/409 264/1/410 257/1/405
f 256/1/409 259/1/407 264/1/410
f 445/1/343 532/1/364 519/1/411 520/1/177
f 162/1/397 168/1/401 170/1/312 169/1/404
f 425/1/388 453/1/179 433/1/185 426/1/389
f 54/1/173 47/1/205 46/1/70 53/1/73
f 422/1/182 451/1/412 415/1/214 416/1/314
f 408/1/216 458/1/215 407/1/413 401/1/344
f 407/1/413 431/1/387 400/1/284 401/1/344
f 110/1/202 143/1/383 136/1/402 109/1/203
f 265/1/414 272/1/415 266/1/416
f 472/1/369 458/1/215 415/1/214 451/1/412
f 452/1/181 466/1/417 451/1/412 422/1/182
f 75/1/142 401/1/344 400/1/284 394/1/233
f 407/1/413 458/1/215 472/1/369 471/1/372
f 131/1/256 182/1/161 179/1/45 176/1/48
f 99/1/121 121/1/120 100/1/166 94/1/165
f 272/1/415 274/1/293 281/1/418
f 274/1/293 282/1/292 281/1/418
f 273/1/198 278/1/197 282/1/292
f 395/1/230 424/1/285 423/1/18 417/1/21
f 432/1/386 439/1/204 423/1/18 424/1/285
f 60/1/278 61/1/116 69/1/115 68/1/232
f 477/1/371 500/1/283 438/1/384 471/1/372
f 376/1/136 465/1/419 383/1/420 378/1/421
f 51/1/123 61/1/116 60/1/278 58/1/124
f 440/1/176 453/1/179 425/1/388 430/1/19
f 483/1/422 491/1/423 477/1/371 478/1/370
f 432/1/386 446/1/385 445/1/343 439/1/204
f 111/1/68 128/1/83 103/1/128 104/1/76
f 172/1/80 156/1/100 149/1/81 155/1/69
f 55/1/172 50/1/192 47/1/205 54/1/173
f 412/1/20 418/1/391 398/1/424 404/1/337
f 374/1/335 404/1/337 398/1/424 393/1/425
f 374/1/335 393/1/425 375/1/275 370/1/336
f 506/1/282 532/1/364 445/1/343 446/1/385
f 270/1/212 271/1/196 263/1/392 202/1/213
f 398/1/424 418/1/391 405/1/390 399/1/426
f 109/1/203 136/1/402 137/1/227 129/1/122
f 422/1/182 416/1/314 154/1/266 421/1/183
f 71/1/145 63/1/171 62/1/86 70/1/104
f 517/1/377 537/1/427 535/1/428 531/1/378
f 370/1/336 375/1/275 362/1/274 364/1/348
f 499/1/280 500/1/283 477/1/371 491/1/423
f 185/1/89 284/1/429 192/1/430 183/1/101
f 380/1/431 399/1/426 385/1/432 379/1/154
f 405/1/390 406/1/357 385/1/432 399/1/426
f 350/1/153 369/1/276 380/1/431 379/1/154
f 194/1/87 300/1/433 296/1/241 291/1/88
f 356/1/434 363/1/349 364/1/348 362/1/274
f 126/1/78 52/1/72 315/1/109
f 314/1/435 315/1/109 52/1/72
f 493/1/436 502/1/437 499/1/280 491/1/423
f 309/1/304 316/1/438 292/1/305
f 292/1/305 316/1/438 317/1/439
f 318/1/133 307/1/440 323/1/441 326/1/130
f 49/1/125 58/1/124 59/1/250 57/1/189
f 296/1/241 304/1/14 303/1/13 297/1/242
f 385/1/432 386/1/442 351/1/155 379/1/154
f 342/1/443 350/1/153 343/1/156 336/1/157
f 314/1/435 52/1/72 323/1/441
f 316/1/438 325/1/444 317/1/439
f 316/1/438 324/1/445 325/1/444
f 323/1/441 52/1/72 326/1/130
f 356/1/434 362/1/274 349/1/277 348/1/446
f 349/1/277 342/1/443 341/1/447 348/1/446
f 413/1/354 434/1/448 419/1/449 414/1/355
f 341/1/447 342/1/443 336/1/157 335/1/450
f 357/1/451 358/1/382 320/1/452 352/1/453
f 256/1/409 257/1/405 248/1/302 251/1/290
f 308/1/454 330/1/455 331/1/456
f 308/1/454 331/1/456 332/1/457
f 328/1/458 333/1/131 52/1/72
f 326/1/130 52/1/72 333/1/131
f 328/1/458 52/1/72 334/1/459
f 328/1/458 334/1/459 329/1/159 322/1/460
f 334/1/459 52/1/72 335/1/450
f 322/1/460 329/1/159 327/1/158 321/1/461
f 73/1/191 65/1/175 81/1/169 80/1/229
f 138/1/398 145/1/403 139/1/258 132/1/240
f 22/1/31 31/1/30 30/1/44 21/1/36
f 335/1/450 52/1/72 341/1/447
f 319/1/132 333/1/131 328/1/458 322/1/460
f 419/1/449 420/1/462 396/1/463 414/1/355
f 557/1/464 552/1/234 546/1/465 545/1/466
f 538/1/363 540/1/467 519/1/411 532/1/364
f 558/1/468 545/1/466 540/1/467 538/1/363
f 545/1/466 558/1/468 551/1/469 557/1/464
f 341/1/447 52/1/72 348/1/446
f 253/1/252 258/1/406 250/1/289 245/1/253
f 312/1/470 321/1/461 320/1/452 313/1/301
f 327/1/158 352/1/453 320/1/452 321/1/461
f 519/1/411 540/1/467 512/1/471 513/1/472
f 545/1/466 546/1/465 512/1/471 540/1/467
f 473/1/473 496/1/474 495/1/475 487/1/476
f 460/1/178 520/1/177 519/1/411 513/1/472
f 96/1/162 115/1/174 116/1/188 105/1/163
f 348/1/446 52/1/72 356/1/434
f 351/1/155 386/1/442 357/1/451 352/1/453
f 398/1/424 399/1/426 380/1/431 393/1/425
f 558/1/468 538/1/363 539/1/281 543/1/477
f 412/1/20 430/1/19 425/1/388 418/1/391
f 356/1/434 52/1/72 363/1/349
f 52/1/72 74/1/111 363/1/349
f 298/1/273 306/1/478 307/1/440 299/1/479
f 171/1/110 315/1/109 314/1/435 306/1/478
f 391/1/356 392/1/480 357/1/451 386/1/442
f 385/1/432 406/1/357 391/1/356 386/1/442
f 475/1/379 476/1/481 456/1/375 470/1/374
f 219/1/350 220/1/366 215/1/361 214/1/351
f 405/1/390 426/1/389 413/1/354 406/1/357
f 361/1/219 355/1/482 368/1/311
f 507/1/393 513/1/472 512/1/471 508/1/394
f 319/1/132 312/1/470 311/1/483 318/1/133
f 299/1/479 307/1/440 318/1/133 311/1/483
f 178/1/148 171/1/110 306/1/478 298/1/273
f 254/1/150 267/1/484 261/1/262 255/1/261
f 512/1/471 546/1/465 509/1/485 508/1/394
f 98/1/75 104/1/76 95/1/107 93/1/84
f 312/1/470 313/1/301 305/1/300 311/1/483
f 69/1/115 77/1/117 76/1/140 75/1/142
f 552/1/234 553/1/237 509/1/485 546/1/465
f 353/1/220 371/1/137 346/1/486 345/1/221
f 293/1/91 337/1/487 301/1/488 295/1/92
f 559/1/236 566/1/489 526/1/490 527/1/267
f 299/1/479 311/1/483 305/1/300 300/1/433
f 368/1/311 355/1/482 382/1/491
f 556/1/492 563/1/235 552/1/234 557/1/464
f 378/1/421 383/1/420 339/1/493
f 339/1/493 383/1/420 384/1/494
f 320/1/452 358/1/382 310/1/11 313/1/301
f 357/1/451 392/1/480 365/1/381 358/1/382
f 156/1/100 184/1/90 185/1/89 183/1/101
f 57/1/189 66/1/95 56/1/77 49/1/125
f 387/1/333 417/1/21 412/1/20 404/1/337
f 495/1/475 515/1/495 486/1/496 487/1/476
f 384/1/494 383/1/420 390/1/497
f 351/1/155 352/1/453 327/1/158 343/1/156
f 191/1/201 204/1/346 195/1/99 186/1/160
f 192/1/430 193/1/323 157/1/102 183/1/101
f 192/1/430 284/1/429 283/1/498 277/1/499
f 162/1/397 169/1/404 152/1/287 138/1/398
f 391/1/356 414/1/355 396/1/463 392/1/480
f 433/1/185 461/1/184 441/1/224 434/1/448
f 305/1/300 304/1/14 296/1/241 300/1/433
f 201/1/210 202/1/213 158/1/112 193/1/323
f 192/1/430 277/1/499 201/1/210 193/1/323
f 270/1/212 280/1/500 278/1/197 271/1/196
f 524/1/320 528/1/322 494/1/501 522/1/502
f 312/1/470 319/1/132 322/1/460 321/1/461
f 396/1/463 397/1/503 365/1/381 392/1/480
f 443/1/208 444/1/504 389/1/505 436/1/506
f 269/1/199 273/1/198 268/1/294 267/1/484
f 460/1/178 504/1/396 467/1/222 461/1/184
f 84/1/141 148/1/264 409/1/217
f 84/1/141 409/1/217 408/1/216
f 369/1/276 350/1/153 342/1/443 349/1/277
f 441/1/224 442/1/507 419/1/449 434/1/448
f 299/1/479 300/1/433 194/1/87 298/1/273
f 185/1/89 291/1/88 290/1/243 284/1/429
f 535/1/428 536/1/508 481/1/509 531/1/378
f 365/1/381 397/1/503 367/1/510 366/1/12
f 207/1/186 211/1/119 208/1/226 130/1/246
f 269/1/199 267/1/484 254/1/150 262/1/408
f 263/1/392 271/1/196 269/1/199 262/1/408
f 402/1/511 403/1/512 367/1/510 397/1/503
f 396/1/463 420/1/462 402/1/511 397/1/503
f 265/1/414 266/1/416 260/1/263 261/1/262
f 268/1/294 265/1/414 261/1/262 267/1/484
f 506/1/282 446/1/385 438/1/384 500/1/283
f 290/1/243 289/1/513 283/1/498 284/1/429
f 143/1/383 229/1/316 144/1/318 136/1/402
f 290/1/243 297/1/242 294/1/514 289/1/513
f 303/1/13 360/1/515 294/1/514 297/1/242
f 427/1/516 428/1/517 402/1/511 420/1/462
f 360/1/515 303/1/13 366/1/12 367/1/510
f 201/1/210 277/1/499 276/1/93 275/1/211
f 90/1/168 125/1/238 91/1/260 83/1/143
f 367/1/510 403/1/512 359/1/518 360/1/515
f 294/1/514 360/1/515 359/1/518 354/1/519
f 521/1/520 527/1/267 526/1/490 525/1/521
f 521/1/520 522/1/502 486/1/496 515/1/495
f 268/1/294 274/1/293 272/1/415 265/1/414
f 429/1/279 437/1/180 421/1/183
f 279/1/522 280/1/500 270/1/212 275/1/211
f 276/1/93 295/1/92 279/1/522 275/1/211
f 294/1/514 354/1/519 288/1/523 289/1/513
f 283/1/498 289/1/513 288/1/523 287/1/94
f 410/1/524 411/1/525 359/1/518 403/1/512
f 335/1/450 336/1/157 329/1/159 334/1/459
f 467/1/222 496/1/474 473/1/473 468/1/223
f 473/1/473 474/1/526 447/1/527 468/1/223
f 190/1/327 197/1/528 189/1/200 181/1/257
f 288/1/523 347/1/529 293/1/91 287/1/94
f 435/1/530 436/1/506 410/1/524 428/1/517
f 427/1/516 448/1/531 435/1/530 428/1/517
f 467/1/222 504/1/396 503/1/395 496/1/474
f 503/1/395 510/1/532 495/1/475 496/1/474
f 449/1/373 450/1/376 377/1/533 444/1/504
f 447/1/527 474/1/526 454/1/534 448/1/531
f 484/1/535 488/1/536 462/1/206 480/1/537
f 514/1/268 515/1/495 495/1/475 510/1/532
f 509/1/485 553/1/237 514/1/268 510/1/532
f 224/1/331 144/1/318 227/1/319 225/1/328
f 437/1/180 459/1/538 452/1/181
f 359/1/518 411/1/525 355/1/482 354/1/519
f 288/1/523 354/1/519 355/1/482 347/1/529
f 454/1/534 455/1/209 435/1/530 448/1/531
f 473/1/473 487/1/476 479/1/539 474/1/526
f 456/1/375 457/1/135 372/1/134 450/1/376
f 542/1/540 549/1/541 535/1/428 537/1/427
f 562/1/542 566/1/489 559/1/236 563/1/235
f 465/1/419 390/1/497 383/1/420
f 459/1/538 466/1/417 452/1/181
f 410/1/524 436/1/506 389/1/505 411/1/525
f 411/1/525 389/1/505 382/1/491 355/1/482
f 486/1/496 522/1/502 494/1/501 485/1/543
f 142/1/139 164/1/152 143/1/383 110/1/202
f 50/1/192 51/1/123 45/1/126 47/1/205
f 466/1/417 472/1/369 451/1/412
f 187/1/98 188/1/97 180/1/46 179/1/45
f 109/1/203 129/1/122 99/1/121 102/1/194
f 279/1/522 302/1/544 285/1/303 280/1/500
f 514/1/268 527/1/267 521/1/520 515/1/495
f 435/1/530 455/1/209 443/1/208 436/1/506
f 285/1/303 286/1/306 278/1/197 280/1/500
f 454/1/534 480/1/537 462/1/206 455/1/209
f 419/1/449 442/1/507 427/1/516 420/1/462
f 375/1/275 393/1/425 380/1/431 369/1/276
f 511/1/545 516/1/546 497/1/547 505/1/548
f 314/1/435 323/1/441 307/1/440 306/1/478
f 494/1/501 505/1/548 484/1/535 485/1/543
f 479/1/539 485/1/543 484/1/535 480/1/537
f 462/1/206 488/1/536 469/1/549 463/1/207
f 482/1/550 489/1/551 390/1/497
f 141/1/114 151/1/113 140/1/138 134/1/129
f 390/1/497 489/1/551 490/1/552
f 483/1/422 492/1/553 493/1/436
f 483/1/422 493/1/436 491/1/423
f 484/1/535 505/1/548 497/1/547 488/1/536
f 497/1/547 518/1/380 469/1/549 488/1/536
f 443/1/208 463/1/207 449/1/373 444/1/504
f 469/1/549 470/1/374 449/1/373 463/1/207
f 479/1/539 487/1/476 486/1/496 485/1/543
f 447/1/527 448/1/531 427/1/516 442/1/507
f 490/1/552 489/1/551 498/1/554
f 355/1/482 361/1/219 344/1/218 347/1/529
f 198/1/342 212/1/225 213/1/352 199/1/365
f 492/1/553 501/1/555 493/1/436
f 493/1/436 501/1/555 502/1/437
f 127/1/82 141/1/114 134/1/129 128/1/83
f 389/1/505 444/1/504 377/1/533 382/1/491
f 301/1/488 302/1/544 279/1/522 295/1/92
f 464/1/556 482/1/550 390/1/497 465/1/419
f 301/1/488 330/1/455 308/1/454 302/1/544
f 368/1/311 382/1/491 377/1/533 373/1/255
f 504/1/396 460/1/178 507/1/393
f 377/1/533 450/1/376 372/1/134 373/1/255
f 494/1/501 528/1/322 511/1/545 505/1/548
f 407/1/413 471/1/372 438/1/384 431/1/387
f 346/1/486 340/1/557 338/1/558 345/1/221
f 509/1/485 510/1/532 503/1/395 508/1/394
f 507/1/393 460/1/178 513/1/472
f 250/1/289 259/1/407 256/1/409 251/1/290
f 160/1/151 252/1/251 246/1/254 164/1/152
f 402/1/511 428/1/517 410/1/524 403/1/512
f 521/1/520 525/1/521 524/1/320 522/1/502
f 346/1/486 378/1/421 339/1/493 340/1/557
f 221/1/330 222/1/559 218/1/353 217/1/228
f 293/1/91 347/1/529 344/1/218 337/1/487
f 529/1/22 530/1/25 511/1/545 528/1/322
f 518/1/380 475/1/379 470/1/374 469/1/549
f 95/1/107 104/1/76 103/1/128 101/1/195
f 218/1/353 222/1/559 223/1/368 219/1/350
f 517/1/377 518/1/380 497/1/547 516/1/546
f 441/1/224 468/1/223 447/1/527 442/1/507
f 475/1/379 531/1/378 481/1/509 476/1/481
f 511/1/545 530/1/25 523/1/560 516/1/546
f 523/1/560 537/1/427 517/1/377 516/1/546
f 433/1/185 434/1/448 413/1/354 426/1/389
f 197/1/528 205/1/347 191/1/201 189/1/200
f 534/1/24 550/1/561 523/1/560 530/1/25
f 344/1/218 345/1/221 338/1/558 337/1/487
f 533/1/269 541/1/321 524/1/320 525/1/521
f 526/1/490 561/1/270 533/1/269 525/1/521
f 536/1/508 498/1/554 489/1/551
f 308/1/454 324/1/445 316/1/438 309/1/304
f 174/1/47 175/1/400 168/1/401 167/1/308
f 301/1/488 337/1/487 338/1/558 330/1/455
f 537/1/427 523/1/560 542/1/540
f 533/1/269 554/1/272 547/1/562 541/1/321
f 338/1/558 340/1/557 331/1/456 330/1/455
f 539/1/281 499/1/280 543/1/477
f 499/1/280 544/1/563 543/1/477
f 4/1/8 8/1/6 3/1/3 2/1/2
f 50/1/192 73/1/191 61/1/116 51/1/123
f 541/1/321 547/1/562 529/1/22
f 400/1/284 431/1/387 432/1/386 424/1/285
f 529/1/22 547/1/562 548/1/23
f 542/1/540 523/1/560 550/1/561
f 331/1/456 340/1/557 339/1/493 332/1/457
f 551/1/469 558/1/468 543/1/477 544/1/563
f 376/1/136 378/1/421 346/1/486 371/1/137
f 551/1/469 555/1/564 556/1/492
f 526/1/490 566/1/489 564/1/565 561/1/270
f 551/1/469 556/1/492 557/1/464
f 308/1/454 309/1/304 285/1/303 302/1/544
f 456/1/375 476/1/481 464/1/556 457/1/135
f 464/1/556 465/1/419 376/1/136 457/1/135
f 481/1/509 482/1/550 464/1/556 476/1/481
f 535/1/428 549/1/541 498/1/554 536/1/508
f 555/1/564 562/1/542 556/1/492
f 283/1/498 287/1/94 276/1/93 277/1/499
f 556/1/492 562/1/542 563/1/235
f 560/1/271 561/1/270 564/1/565
f 481/1/509 536/1/508 489/1/551 482/1/550
f 562/1/542 565/1/566 564/1/565
f 560/1/271 564/1/565 565/1/566
f 562/1/542 564/1/565 566/1/489
f 567/1/567 568/1/568 41/1/57
f 567/1/567 41/1/57 569/1/569
f 41/1/57 570/1/570 42/1/58
f 568/1/568 570/1/570 41/1/57
f 41/1/57 571/1/571 569/1/569
f 41/1/57 44/1/60 571/1/571
f 572/1/572 573/1/573 574/1/574
f 573/1/573 575/1/575 576/1/576
f 573/1/573 576/1/576 574/1/574
f 573/1/573 577/1/577 575/1/575
f 574/1/574 576/1/576 578/1/578
f 574/1/574 578/1/578 579/1/579
f 575/1/575 580/1/580 576/1/576
f 575/1/575 581/1/581 580/1/580
f 578/1/578 576/1/576 582/1/582
f 578/1/578 582/1/582 583/1/583
f 582/1/582 576/1/576 584/1/584
f 582/1/582 584/1/584 585/1/585
f 576/1/576 586/1/586 584/1/584
f 576/1/576 587/1/587 586/1/586
f 576/1/576 588/1/588 587/1/587
f 576/1/576 589/1/589 590/1/590
f 576/1/576 591/1/591 589/1/589
f 576/1/576 590/1/590 592/1/592
f 576/1/576 592/1/592 593/1/593
f 576/1/576 593/1/593 594/1/594
f 576/1/576 594/1/594 595/1/595
f 576/1/576 595/1/595 596/1/596
f 576/1/576 596/1/596 597/1/597
f 576/1/576 597/1/597 588/1/588
f 576/1/576 598/1/598 599/1/599
f 598/1/598 600/1/600 35/1/601
f 576/1/576 600/1/600 598/1/598
f 576/1/576 599/1/599 601/1/602
f 576/1/576 601/1/602 591/1/591
f 576/1/576 580/1/580 602/1/603
f 576/1/576 602/1/603 603/1/604
f 576/1/576 603/1/604 604/1/605
f 576/1/576 605/1/606 606/1/607
f 576/1/576 606/1/607 607/1/608
f 576/1/576 608/1/609 605/1/606
f 576/1/576 609/1/610 608/1/609
f 576/1/576 610/1/611 609/1/610
f 576/1/576 611/1/612 610/1/611
f 576/1/576 604/1/605 612/1/613
f 576/1/576 613/1/614 611/1/612
f 576/1/576 612/1/613 613/1/614
f 576/1/576 614/1/615 615/1/616
f 576/1/576 615/1/616 616/1/617
f 615/1/616 44/1/618 616/1/617
f 576/1/576 617/1/619 614/1/615
f 576/1/576 607/1/608 617/1/619
f 612/1/613 604/1/605 618/1/620
f 580/1/580 619/1/621 602/1/603
f 602/1/603 620/1/622 603/1/604
f 604/1/605 603/1/604 621/1/623
f 587/1/587 622/1/624 586/1/586
f 587/1/587 588/1/588 623/1/625
f 586/1/586 624/1/626 584/1/584
f 588/1/588 597/1/597 625/1/627
f 626/1/628 25/1/39 34/1/51
f 626/1/628 627/1/629 25/1/39
f 25/1/39 628/1/630 35/1/52
f 25/1/39 627/1/629 628/1/630
f 479/1/539 480/1/537 454/1/534 474/1/526
