# Blender 4.3.2
# www.blender.org
o hair.011
v 8.123201 0.508248 -0.023085
v 8.122504 0.508522 -0.022720
v 8.124750 0.511541 -0.019787
v 8.123960 0.508082 -0.023306
v 8.122223 0.506052 -0.025069
v 8.121046 0.506462 -0.024524
v 8.123447 0.505730 -0.025497
v 8.120991 0.503098 -0.027236
v 8.124750 0.508026 -0.023380
v 8.122831 0.502698 -0.027771
v 8.124750 0.505693 -0.025546
v 8.124750 0.502572 -0.027941
v 8.119762 0.500152 -0.029032
v 8.117536 0.501048 -0.027841
v 8.119301 0.503776 -0.026335
v 8.117822 0.504681 -0.025126
v 8.120088 0.507113 -0.023658
v 8.125540 0.508082 -0.023306
v 8.126053 0.505730 -0.025497
v 8.122203 0.499649 -0.029731
v 8.115624 0.497781 -0.028894
v 8.115584 0.502219 -0.026250
v 8.121892 0.508890 -0.022232
v 8.119205 0.507813 -0.022727
v 8.126299 0.508248 -0.023085
v 8.127277 0.506052 -0.025069
v 8.126669 0.502698 -0.027771
v 8.128510 0.503098 -0.027236
v 8.124750 0.499496 -0.029958
v 8.121532 0.496059 -0.031206
v 8.121388 0.509336 -0.021638
v 8.126996 0.508522 -0.022720
v 8.128454 0.506462 -0.024524
v 8.127297 0.499649 -0.029731
v 8.129738 0.500152 -0.029032
v 8.130199 0.503776 -0.026335
v 8.131965 0.501048 -0.027841
v 8.118446 0.496668 -0.030339
v 8.121009 0.509845 -0.020961
v 8.118642 0.508672 -0.021585
v 8.129413 0.507113 -0.023658
v 8.131679 0.504681 -0.025126
v 8.127968 0.496059 -0.031206
v 8.133916 0.502219 -0.026250
v 8.133876 0.497781 -0.028894
v 8.114182 0.494989 -0.029462
v 8.113153 0.499230 -0.026950
v 8.115672 0.506959 -0.022069
v 8.116597 0.505750 -0.023693
v 8.124750 0.495880 -0.031494
v 8.111279 0.496580 -0.027255
v 8.108921 0.498407 -0.024522
v 8.111121 0.500846 -0.024592
v 8.113972 0.503548 -0.024350
v 8.112758 0.505033 -0.022215
v 8.121054 0.493105 -0.032068
v 8.124750 0.492900 -0.032400
v 8.128447 0.493105 -0.032068
v 8.109546 0.493723 -0.027315
v 8.109614 0.502615 -0.021950
v 8.108713 0.504520 -0.019154
v 8.112000 0.506673 -0.019919
v 8.124750 0.489725 -0.033024
v 8.131054 0.496668 -0.030339
v 8.117489 0.493782 -0.031085
v 8.112856 0.491997 -0.029770
v 8.116607 0.490707 -0.031562
v 8.107195 0.500406 -0.021473
v 8.106179 0.502513 -0.018314
v 8.115074 0.508281 -0.020298
v 8.118171 0.509570 -0.020391
v 8.111669 0.488782 -0.029799
v 8.106864 0.495770 -0.024243
v 8.104906 0.498013 -0.020828
v 8.111673 0.508396 -0.017570
v 8.114811 0.509653 -0.018467
v 8.136347 0.499230 -0.026950
v 8.135318 0.494989 -0.029462
v 8.104972 0.493004 -0.023803
v 8.108018 0.490696 -0.027114
v 8.120766 0.510399 -0.020224
v 8.132011 0.493782 -0.031085
v 8.138379 0.500846 -0.024592
v 8.135529 0.503548 -0.024350
v 8.106614 0.487357 -0.026627
v 8.108347 0.506511 -0.016322
v 8.118071 0.510524 -0.019123
v 8.136743 0.505033 -0.022215
v 8.132903 0.505750 -0.023693
v 8.130295 0.507813 -0.022727
v 8.108447 0.508539 -0.013566
v 8.111750 0.510133 -0.015275
v 8.114867 0.511004 -0.016671
v 8.118070 0.511462 -0.017874
v 8.120668 0.510975 -0.019459
v 8.133828 0.506959 -0.022069
v 8.127608 0.508890 -0.022232
v 8.128112 0.509336 -0.021638
v 8.130858 0.508672 -0.021585
v 8.112137 0.511679 -0.013276
v 8.115169 0.512184 -0.015108
v 8.120702 0.511531 -0.018720
v 8.131330 0.509570 -0.020391
v 8.134426 0.508281 -0.020298
v 8.137500 0.506673 -0.019919
v 8.128491 0.509845 -0.020961
v 8.108919 0.510393 -0.011133
v 8.109671 0.511858 -0.009271
v 8.112742 0.512834 -0.011815
v 8.120846 0.512041 -0.018041
v 8.137827 0.508396 -0.017570
v 8.140787 0.504520 -0.019154
v 8.139886 0.502615 -0.021950
v 8.128735 0.510399 -0.020224
v 8.113497 0.513760 -0.010604
v 8.115624 0.513052 -0.013960
v 8.118343 0.512263 -0.016809
v 8.141153 0.506511 -0.016322
v 8.143321 0.502513 -0.018314
v 8.142305 0.500406 -0.021473
v 8.140579 0.498407 -0.024522
v 8.131430 0.510524 -0.019123
v 8.134689 0.509653 -0.018467
v 8.118623 0.512851 -0.016026
v 8.116188 0.513747 -0.013036
v 8.121037 0.512357 -0.017621
v 8.144594 0.498013 -0.020828
v 8.138222 0.496580 -0.027255
v 8.131431 0.511462 -0.017874
v 8.128832 0.510975 -0.019459
v 8.119006 0.513301 -0.015428
v 8.121230 0.512673 -0.017200
v 8.139955 0.493723 -0.027315
v 8.136644 0.491997 -0.029770
v 8.132894 0.490707 -0.031562
v 8.128801 0.511527 -0.018725
v 8.141053 0.508539 -0.013566
v 8.137751 0.510133 -0.015275
v 8.142636 0.495770 -0.024243
v 8.137832 0.488782 -0.029799
v 8.128661 0.512032 -0.018053
v 8.143727 0.504700 -0.015146
v 8.143630 0.506945 -0.012067
v 8.134633 0.511004 -0.016671
v 8.144528 0.493004 -0.023803
v 8.128886 0.489961 -0.032654
v 8.131159 0.512263 -0.016809
v 8.134332 0.512184 -0.015108
v 8.146147 0.502674 -0.013841
v 8.145708 0.500307 -0.017326
v 8.137363 0.511679 -0.013276
v 8.141482 0.490696 -0.027114
v 8.129307 0.486518 -0.032967
v 8.133717 0.487354 -0.031768
v 8.147946 0.497971 -0.016263
v 8.146768 0.495509 -0.020106
v 8.142886 0.487357 -0.026627
v 8.138947 0.485262 -0.029528
v 8.134517 0.483700 -0.031672
v 8.148766 0.492671 -0.019163
v 8.150013 0.495362 -0.015021
v 8.150339 0.498045 -0.010868
v 8.148346 0.500479 -0.012437
v 8.146285 0.489912 -0.023128
v 8.140581 0.510393 -0.011133
v 8.140061 0.481356 -0.028938
v 8.151833 0.492337 -0.013481
v 8.148229 0.503132 -0.008724
v 8.146050 0.505126 -0.010450
v 8.147886 0.486302 -0.022109
v 8.145492 0.507444 -0.007349
v 8.143113 0.509035 -0.009299
v 8.139830 0.511858 -0.009271
v 8.136758 0.512834 -0.011815
v 8.144243 0.483558 -0.025827
v 8.147605 0.505667 -0.005289
v 8.144539 0.509403 -0.004744
v 8.146523 0.507833 -0.002330
v 8.142263 0.510754 -0.007070
v 8.136003 0.513760 -0.010604
v 8.133876 0.513052 -0.013960
v 8.130875 0.512851 -0.016027
v 8.145398 0.479657 -0.024796
v 8.149500 0.503594 -0.003098
v 8.133312 0.513747 -0.013036
v 8.128482 0.512382 -0.017587
v 8.130494 0.513301 -0.015428
v 8.141006 0.477375 -0.028078
v 8.135330 0.479719 -0.031244
v 8.136011 0.475690 -0.030507
v 8.150187 0.500880 -0.006849
v 8.138865 0.513093 -0.007661
v 8.128263 0.512685 -0.017184
v 8.130095 0.513747 -0.014835
v 8.130152 0.478687 -0.032633
v 8.129724 0.482764 -0.032971
v 8.151946 0.498285 -0.004784
v 8.137747 0.514266 -0.005975
v 8.135168 0.514630 -0.009347
v 8.127977 0.512960 -0.016818
v 8.132683 0.514420 -0.012132
v 8.124750 0.482453 -0.033409
v 8.124750 0.486248 -0.033373
v 8.139812 0.513635 -0.002987
v 8.136181 0.515435 -0.004260
v 8.133965 0.515516 -0.008039
v 8.127616 0.513229 -0.016461
v 8.131772 0.515114 -0.011195
v 8.120193 0.486518 -0.032967
v 8.120614 0.489961 -0.032654
v 8.141143 0.512240 -0.005071
v 8.133875 0.516655 -0.002570
v 8.132115 0.516484 -0.006674
v 8.127034 0.513539 -0.016049
v 8.129478 0.514191 -0.014245
v 8.128572 0.514733 -0.013524
v 8.130374 0.515867 -0.010184
v 8.143264 0.511121 -0.002358
v 8.129833 0.517325 -0.005499
v 8.126345 0.513794 -0.015710
v 8.127370 0.515146 -0.012975
v 8.128635 0.516524 -0.009304
v 8.115784 0.487354 -0.031768
v 8.125564 0.513966 -0.015480
v 8.126102 0.515481 -0.012529
v 8.126733 0.516934 -0.008751
v 8.127342 0.517825 -0.004764
v 8.119777 0.482764 -0.032971
v 8.114984 0.483700 -0.031672
v 8.110553 0.485262 -0.029528
v 8.124750 0.514026 -0.015400
v 8.124750 0.515525 -0.012470
v 8.124750 0.517072 -0.008564
v 8.124750 0.517990 -0.004507
v 8.127971 0.518279 -0.000255
v 8.119349 0.478687 -0.032633
v 8.109439 0.481356 -0.028938
v 8.114170 0.479719 -0.031244
v 8.123937 0.513966 -0.015480
v 8.123398 0.515481 -0.012529
v 8.122767 0.516934 -0.008751
v 8.124750 0.518468 0.000061
v 8.128464 0.518216 0.003679
v 8.131060 0.517684 -0.001151
v 8.113489 0.475690 -0.030507
v 8.123156 0.513794 -0.015710
v 8.122130 0.515146 -0.012975
v 8.120865 0.516524 -0.009304
v 8.122158 0.517825 -0.004764
v 8.132028 0.517572 0.002667
v 8.135280 0.516408 0.001054
v 8.122466 0.513539 -0.016049
v 8.121518 0.512957 -0.016822
v 8.121882 0.513229 -0.016461
v 8.120929 0.514733 -0.013524
v 8.121530 0.518279 -0.000255
v 8.119667 0.517325 -0.005499
v 8.132903 0.517104 0.006477
v 8.137959 0.515004 -0.000912
v 8.120024 0.514190 -0.014246
v 8.119404 0.513748 -0.014834
v 8.121037 0.518216 0.003679
v 8.118441 0.517684 -0.001151
v 8.124750 0.518408 0.004034
v 8.124750 0.517985 0.007970
v 8.128905 0.517790 0.007585
v 8.139615 0.514268 0.002486
v 8.141735 0.512719 0.000092
v 8.117728 0.515114 -0.011195
v 8.129252 0.517023 0.011137
v 8.136574 0.515829 0.004695
v 8.143373 0.511536 0.003090
v 8.137646 0.514931 0.008061
v 8.141019 0.513250 0.005689
v 8.145082 0.509748 0.000382
v 8.119126 0.515867 -0.010184
v 8.133605 0.516288 0.009961
v 8.146705 0.508032 0.003206
v 8.144831 0.510024 0.006118
v 8.142261 0.511913 0.008862
v 8.134218 0.515096 0.013345
v 8.138588 0.513691 0.011355
v 8.148299 0.505935 0.000196
v 8.117385 0.516484 -0.006674
v 8.146216 0.508117 0.009290
v 8.139497 0.512079 0.014784
v 8.143437 0.510215 0.012176
v 8.149952 0.503597 0.002864
v 8.151224 0.501110 -0.000756
v 8.115625 0.516655 -0.002570
v 8.115535 0.515516 -0.008039
v 8.116817 0.514420 -0.012132
v 8.144449 0.508113 0.015426
v 8.148246 0.505882 0.006174
v 8.152655 0.498331 0.001667
v 8.114221 0.516408 0.001054
v 8.113319 0.515435 -0.004260
v 8.117473 0.517572 0.002667
v 8.111753 0.514266 -0.005975
v 8.114332 0.514630 -0.009347
v 8.149547 0.503361 0.009097
v 8.111541 0.515004 -0.000912
v 8.109689 0.513635 -0.002987
v 8.116597 0.517104 0.006477
v 8.120595 0.517790 0.007585
v 8.110636 0.513093 -0.007661
v 8.151333 0.500921 0.005544
v 8.147395 0.505820 0.012399
v 8.109885 0.514268 0.002486
v 8.120248 0.517023 0.011137
v 8.124750 0.517235 0.011544
v 8.152289 0.498016 0.008100
v 8.148226 0.503145 0.015229
v 8.112926 0.515829 0.004695
v 8.124750 0.516092 0.015012
v 8.129555 0.515866 0.014582
v 8.107237 0.510754 -0.007070
v 8.150441 0.500539 0.011776
v 8.111855 0.514931 0.008061
v 8.115895 0.516288 0.009961
v 8.129863 0.514267 0.018175
v 8.134830 0.513498 0.016865
v 8.108357 0.512240 -0.005071
v 8.150986 0.497649 0.014159
v 8.115282 0.515096 0.013345
v 8.119946 0.515866 0.014582
v 8.135386 0.511446 0.020286
v 8.140297 0.510036 0.018132
v 8.106236 0.511121 -0.002358
v 8.107765 0.512719 0.000092
v 8.119637 0.514267 0.018175
v 8.124750 0.514489 0.018636
v 8.140911 0.507508 0.021170
v 8.145192 0.505565 0.018392
v 8.106127 0.511536 0.003090
v 8.108481 0.513250 0.005689
v 8.124750 0.512420 0.022156
v 8.130149 0.512204 0.021662
v 8.145633 0.502745 0.020998
v 8.148724 0.500296 0.017721
v 8.107240 0.511913 0.008862
v 8.110912 0.513691 0.011355
v 8.130383 0.509661 0.024782
v 8.135831 0.508897 0.023364
v 8.148908 0.497473 0.019819
v 8.151237 0.494921 0.016200
v 8.152870 0.495111 0.010438
v 8.153128 0.492434 0.012467
v 8.110003 0.512079 0.014784
v 8.114671 0.513498 0.016865
v 8.136108 0.506026 0.026066
v 8.141282 0.504667 0.023839
v 8.151270 0.492321 0.017978
v 8.154288 0.492454 0.006382
v 8.153667 0.495374 0.004095
v 8.114115 0.511446 0.020286
v 8.119351 0.512204 0.021662
v 8.141356 0.501682 0.026085
v 8.145741 0.499822 0.023172
v 8.154463 0.492425 -0.000331
v 8.153405 0.495436 -0.002591
v 8.119118 0.509661 0.024782
v 8.124750 0.509887 0.025296
v 8.145653 0.496834 0.024984
v 8.148883 0.494678 0.021608
v 8.153583 0.492327 -0.007091
v 8.152118 0.495296 -0.009060
v 8.124750 0.507025 0.028043
v 8.130531 0.506791 0.027514
v 8.148753 0.491901 0.023180
v 8.151161 0.489809 0.019577
v 8.153001 0.487571 0.015843
v 8.153143 0.489938 0.014246
v 8.130561 0.503743 0.029848
v 8.136164 0.503003 0.028369
v 8.150787 0.487104 0.020967
v 8.154536 0.487327 0.010139
v 8.154547 0.489785 0.008385
v 8.150551 0.489330 -0.017898
v 8.152014 0.485821 -0.016437
v 8.153304 0.489112 -0.011756
v 8.136106 0.499899 0.030257
v 8.141268 0.498606 0.027934
v 8.155455 0.486756 0.003733
v 8.155138 0.489463 0.001830
v 8.154435 0.485918 -0.009990
v 8.154666 0.489243 -0.005049
v 8.141155 0.495484 0.029422
v 8.145503 0.493807 0.026512
v 8.155383 0.486232 -0.003076
v 8.149210 0.482560 -0.020869
v 8.145281 0.490575 0.027683
v 8.136047 0.496778 0.031719
v 8.140996 0.492142 0.030536
v 8.135943 0.493419 0.032807
v 8.148457 0.488919 0.024465
v 8.153217 0.482485 -0.014990
v 8.150211 0.479058 -0.019583
v 8.130532 0.500623 0.031757
v 8.130508 0.497537 0.033216
v 8.140769 0.488421 0.031259
v 8.147936 0.485528 0.025386
v 8.154023 0.479364 -0.013500
v 8.146204 0.476016 -0.023622
v 8.146696 0.472771 -0.022319
v 8.150869 0.475870 -0.018225
v 8.155223 0.482866 -0.008258
v 8.124750 0.500843 0.032302
v 8.151158 0.473090 -0.016774
v 8.154387 0.476536 -0.011980
v 8.155612 0.480070 -0.006629
v 8.141618 0.473634 -0.027000
v 8.155754 0.483478 -0.001314
v 8.154339 0.474043 -0.010456
v 8.146914 0.470058 -0.020903
v 8.146887 0.467829 -0.019418
v 8.151114 0.470724 -0.015269
v 8.155625 0.477566 -0.005117
v 8.155816 0.480999 0.000234
v 8.155481 0.484295 0.005390
v 8.142097 0.467678 -0.024339
v 8.150775 0.468777 -0.013746
v 8.155303 0.475395 -0.003737
v 8.155287 0.482063 0.006819
v 8.155609 0.478812 0.001569
v 8.154350 0.485037 0.011687
v 8.141959 0.470335 -0.025742
v 8.155081 0.476740 0.002786
v 8.154768 0.479855 0.008094
v 8.153842 0.482681 0.013076
v 8.152549 0.485061 0.017269
v 8.136607 0.468572 -0.028233
v 8.136413 0.471894 -0.029483
v 8.153828 0.477476 0.009284
v 8.151638 0.482162 0.018525
v 8.152868 0.480049 0.014345
v 8.150029 0.483946 0.022110
v 8.136670 0.465966 -0.026819
v 8.136619 0.463904 -0.025294
v 8.142055 0.465545 -0.022842
v 8.130705 0.470770 -0.030940
v 8.130507 0.474588 -0.031954
v 8.151420 0.477367 0.015454
v 8.148844 0.480609 0.022987
v 8.130815 0.464878 -0.028200
v 8.141861 0.463812 -0.021296
v 8.146650 0.466028 -0.017904
v 8.124750 0.474183 -0.032433
v 8.124750 0.478322 -0.033097
v 8.150255 0.479138 0.019578
v 8.152431 0.475115 0.010347
v 8.130793 0.467457 -0.029663
v 8.146177 0.464489 -0.016198
v 8.154183 0.474615 0.003976
v 8.152859 0.472515 0.005093
v 8.124750 0.467062 -0.030112
v 8.124750 0.470362 -0.031411
v 8.118993 0.474588 -0.031954
v 8.147089 0.481958 0.025951
v 8.153634 0.471622 -0.000930
v 8.152272 0.469980 0.000535
v 8.154634 0.473452 -0.002379
v 8.118795 0.470770 -0.030940
v 8.113088 0.471894 -0.029483
v 8.107882 0.473634 -0.027000
v 8.108494 0.477375 -0.028078
v 8.144445 0.483239 0.028721
v 8.144973 0.486992 0.028418
v 8.150661 0.467265 -0.003686
v 8.153154 0.470127 -0.007372
v 8.153925 0.471925 -0.008959
v 8.112893 0.468572 -0.028233
v 8.104102 0.479657 -0.024796
v 8.105257 0.483558 -0.025827
v 8.140368 0.484506 0.031548
v 8.147986 0.464482 -0.007964
v 8.149220 0.465674 -0.010093
v 8.152069 0.468564 -0.005576
v 8.101614 0.486302 -0.022109
v 8.103215 0.489912 -0.023128
v 8.135753 0.489609 0.033573
v 8.135420 0.485560 0.033920
v 8.144420 0.461865 -0.011866
v 8.150140 0.467136 -0.012067
v 8.100706 0.492682 -0.019182
v 8.102733 0.495509 -0.020106
v 8.130457 0.494202 0.034286
v 8.130348 0.490343 0.035025
v 8.130162 0.486204 0.035327
v 8.101554 0.497971 -0.016263
v 8.103792 0.500307 -0.017326
v 8.124750 0.494470 0.034827
v 8.124750 0.497783 0.033765
v 8.124750 0.486424 0.035789
v 8.124750 0.490597 0.035535
v 8.145447 0.463045 -0.014141
v 8.103354 0.502674 -0.013841
v 8.105773 0.504700 -0.015146
v 8.118992 0.497537 0.033216
v 8.119152 0.490343 0.035025
v 8.119338 0.486204 0.035327
v 8.140918 0.460882 -0.017396
v 8.141489 0.462313 -0.019534
v 8.140110 0.459716 -0.014995
v 8.105870 0.506945 -0.012067
v 8.114080 0.485560 0.033920
v 8.136213 0.460718 -0.021902
v 8.135818 0.459298 -0.019709
v 8.135263 0.458151 -0.017223
v 8.136474 0.462205 -0.023711
v 8.113748 0.489609 0.033573
v 8.108731 0.488421 0.031259
v 8.109132 0.484506 0.031548
v 8.130368 0.458379 -0.020932
v 8.130089 0.457281 -0.018419
v 8.130705 0.461199 -0.024990
v 8.130782 0.462855 -0.026621
v 8.106387 0.509035 -0.009299
v 8.113557 0.493419 0.032807
v 8.105055 0.483239 0.028721
v 8.124750 0.457020 -0.018759
v 8.124750 0.462479 -0.027002
v 8.124750 0.464490 -0.028616
v 8.103450 0.505126 -0.010450
v 8.104009 0.507444 -0.007349
v 8.104961 0.509403 -0.004744
v 8.101564 0.485528 0.025386
v 8.102411 0.481958 0.025951
v 8.104527 0.486992 0.028418
v 8.118685 0.464878 -0.028200
v 8.118708 0.467457 -0.029663
v 8.101272 0.503132 -0.008724
v 8.101154 0.500479 -0.012437
v 8.102977 0.507833 -0.002330
v 8.100657 0.480609 0.022987
v 8.104219 0.490575 0.027683
v 8.108504 0.492142 0.030536
v 8.099487 0.495362 -0.015021
v 8.099161 0.498045 -0.010868
v 8.101895 0.505667 -0.005289
v 8.099471 0.483946 0.022110
v 8.097862 0.482162 0.018525
v 8.099245 0.479138 0.019578
v 8.108345 0.495484 0.029422
v 8.097668 0.492337 -0.013481
v 8.098919 0.489337 -0.017916
v 8.100000 0.503594 -0.003098
v 8.098713 0.487104 0.020967
v 8.101044 0.488919 0.024465
v 8.098081 0.477367 0.015454
v 8.100290 0.482560 -0.020869
v 8.097455 0.485826 -0.016454
v 8.099314 0.500880 -0.006849
v 8.103997 0.493807 0.026512
v 8.100747 0.491901 0.023180
v 8.096632 0.480049 0.014345
v 8.095673 0.477476 0.009284
v 8.097070 0.475115 0.010347
v 8.099289 0.479058 -0.019583
v 8.103296 0.476016 -0.023622
v 8.097554 0.498285 -0.004784
v 8.103848 0.496834 0.024984
v 8.096951 0.485061 0.017269
v 8.095658 0.482681 0.013076
v 8.095317 0.474615 0.003976
v 8.096642 0.472515 0.005093
v 8.107541 0.470335 -0.025742
v 8.102804 0.472771 -0.022319
v 8.096499 0.487571 0.015843
v 8.098339 0.489809 0.019577
v 8.094419 0.476740 0.002786
v 8.095866 0.471622 -0.000930
v 8.097228 0.469980 0.000535
v 8.112830 0.465966 -0.026819
v 8.107404 0.467678 -0.024339
v 8.098230 0.492321 0.017978
v 8.100617 0.494678 0.021608
v 8.094732 0.479855 0.008094
v 8.098840 0.467265 -0.003686
v 8.118718 0.462855 -0.026621
v 8.112882 0.463904 -0.025294
v 8.100593 0.497473 0.019819
v 8.094213 0.482063 0.006819
v 8.095150 0.485037 0.011687
v 8.100281 0.465674 -0.010093
v 8.101514 0.464482 -0.007964
v 8.097431 0.468564 -0.005576
v 8.118795 0.461199 -0.024990
v 8.124750 0.460847 -0.025346
v 8.094964 0.487327 0.010139
v 8.096357 0.489938 0.014246
v 8.105080 0.461865 -0.011866
v 8.096346 0.470127 -0.007372
v 8.094867 0.473452 -0.002379
v 8.124750 0.459435 -0.023487
v 8.130570 0.459757 -0.023146
v 8.098264 0.494921 0.016200
v 8.096373 0.492434 0.012467
v 8.108582 0.460882 -0.017396
v 8.109390 0.459716 -0.014995
v 8.104053 0.463045 -0.014141
v 8.094197 0.475395 -0.003737
v 8.098515 0.497649 0.014159
v 8.114237 0.458151 -0.017223
v 8.103323 0.464489 -0.016198
v 8.099360 0.467136 -0.012067
v 8.093891 0.478812 0.001569
v 8.124750 0.458086 -0.021271
v 8.113682 0.459298 -0.019709
v 8.119132 0.458379 -0.020932
v 8.119411 0.457281 -0.018419
v 8.098725 0.468777 -0.013746
v 8.095575 0.471925 -0.008959
v 8.093684 0.480999 0.000234
v 8.118930 0.459757 -0.023146
v 8.108011 0.462313 -0.019534
v 8.113287 0.460718 -0.021902
v 8.093875 0.477566 -0.005117
v 8.095161 0.474043 -0.010456
v 8.113027 0.462205 -0.023711
v 8.102850 0.466028 -0.017904
v 8.107639 0.463812 -0.021296
v 8.093888 0.480070 -0.006629
v 8.098387 0.470724 -0.015269
v 8.098342 0.473090 -0.016774
v 8.095114 0.476536 -0.011980
v 8.107446 0.465545 -0.022842
v 8.102613 0.467829 -0.019418
v 8.098631 0.475870 -0.018225
v 8.102587 0.470058 -0.020903
v 8.095477 0.479364 -0.013500
v 8.094277 0.482866 -0.008258
v 8.096283 0.482485 -0.014990
v 8.095065 0.485918 -0.009990
v 8.094117 0.486232 -0.003076
v 8.094834 0.489243 -0.005049
v 8.095918 0.492327 -0.007091
v 8.096196 0.489112 -0.011756
v 8.093746 0.483478 -0.001314
v 8.095037 0.492425 -0.000331
v 8.094362 0.489463 0.001830
v 8.094046 0.486756 0.003733
v 8.097383 0.495296 -0.009060
v 8.096094 0.495436 -0.002591
v 8.094019 0.484295 0.005390
v 8.095212 0.492454 0.006382
v 8.095833 0.495374 0.004095
v 8.096846 0.498331 0.001667
v 8.094954 0.489785 0.008385
v 8.098276 0.501110 -0.000756
v 8.097211 0.498016 0.008100
v 8.096630 0.495111 0.010438
v 8.099548 0.503597 0.002864
v 8.098167 0.500921 0.005544
v 8.101201 0.505935 0.000196
v 8.099059 0.500539 0.011776
v 8.099954 0.503361 0.009097
v 8.101254 0.505882 0.006174
v 8.102796 0.508032 0.003206
v 8.104419 0.509748 0.000382
v 8.101274 0.503145 0.015229
v 8.100777 0.500296 0.017721
v 8.103284 0.508117 0.009290
v 8.102105 0.505820 0.012399
v 8.104670 0.510024 0.006118
v 8.103868 0.502745 0.020998
v 8.104308 0.505565 0.018392
v 8.105051 0.508113 0.015426
v 8.103759 0.499822 0.023172
v 8.106063 0.510215 0.012176
v 8.108589 0.507508 0.021170
v 8.108218 0.504667 0.023839
v 8.108145 0.501682 0.026085
v 8.109203 0.510036 0.018132
v 8.108232 0.498606 0.027934
v 8.113392 0.506026 0.026066
v 8.113669 0.508897 0.023364
v 8.113394 0.499899 0.030257
v 8.113337 0.503003 0.028369
v 8.113453 0.496778 0.031719
v 8.118939 0.503743 0.029848
v 8.118969 0.506791 0.027514
v 8.118968 0.500623 0.031757
v 8.119043 0.494202 0.034286
v 8.124750 0.503966 0.030386
v 8.144445 0.483239 0.028721
v 8.124750 0.488651 0.004733
v 8.147089 0.481958 0.025951
v 8.140368 0.484506 0.031548
v 8.148844 0.480609 0.022987
v 8.135420 0.485560 0.033920
v 8.150255 0.479138 0.019578
v 8.130162 0.486204 0.035327
v 8.151420 0.477367 0.015454
v 8.124750 0.486424 0.035789
v 8.152431 0.475115 0.010347
v 8.119338 0.486204 0.035327
v 8.152859 0.472515 0.005093
v 8.114080 0.485560 0.033920
v 8.152272 0.469980 0.000535
v 8.109132 0.484506 0.031548
v 8.150661 0.467265 -0.003686
v 8.105055 0.483239 0.028721
v 8.147986 0.464482 -0.007964
v 8.102411 0.481958 0.025951
v 8.144420 0.461865 -0.011866
v 8.100657 0.480609 0.022987
v 8.140110 0.459716 -0.014995
v 8.099245 0.479138 0.019578
v 8.135263 0.458151 -0.017223
v 8.098081 0.477367 0.015454
v 8.130089 0.457281 -0.018419
v 8.097070 0.475115 0.010347
v 8.124750 0.457020 -0.018759
v 8.096642 0.472515 0.005093
v 8.119411 0.457281 -0.018419
v 8.097228 0.469980 0.000535
v 8.101514 0.464482 -0.007964
v 8.105080 0.461865 -0.011866
v 8.109390 0.459716 -0.014995
v 8.114237 0.458151 -0.017223
v 8.098840 0.467265 -0.003686
vn -0.0715 0.7038 -0.7068
vn -0.1046 0.7122 -0.6941
vn -0.0000 0.7986 -0.6019
vn -0.0360 0.6994 -0.7139
vn 0.0360 0.6994 -0.7139
vn 0.0715 0.7038 -0.7068
vn 0.1054 0.6531 -0.7499
vn 0.0529 0.6437 -0.7634
vn 0.1046 0.7122 -0.6941
vn 0.1551 0.6631 -0.7323
vn 0.1445 0.5881 -0.7958
vn 0.0720 0.5785 -0.8125
vn 0.2091 0.6049 -0.7683
vn 0.5748 0.4322 -0.6949
vn 0.4940 0.3719 -0.7859
vn 0.4331 0.4566 -0.7772
vn 0.5044 0.5066 -0.6992
vn -0.0000 0.6972 -0.7168
vn -0.0000 0.5751 -0.8181
vn -0.0000 0.6436 -0.7654
vn 0.1953 0.4864 -0.8516
vn 0.1001 0.4704 -0.8768
vn 0.2782 0.5154 -0.8105
vn -0.1547 0.8336 -0.5303
vn -0.2182 0.8429 -0.4918
vn -0.2014 0.8575 -0.4733
vn -0.1383 0.8452 -0.5162
vn -0.0529 0.6437 -0.7634
vn 0.3828 0.7295 -0.5668
vn 0.3773 0.7588 -0.5309
vn 0.5041 0.7149 -0.4845
vn 0.5032 0.6825 -0.5301
vn -0.5044 0.5066 -0.6992
vn -0.5547 0.5537 -0.6210
vn -0.4557 0.6189 -0.6397
vn -0.4096 0.5856 -0.6995
vn 0.3494 0.5507 -0.7580
vn 0.3449 0.4069 -0.8459
vn 0.2663 0.6252 -0.7336
vn 0.6680 0.1552 0.7278
vn 0.6493 0.0363 0.7597
vn 0.7781 -0.0210 0.6278
vn 0.7977 0.1031 0.5941
vn -0.1322 0.7220 -0.6792
vn 0.1322 0.7220 -0.6792
vn 0.1546 0.7354 -0.6598
vn 0.2269 0.6965 -0.6807
vn 0.1935 0.6795 -0.7077
vn 0.3132 0.6478 -0.6944
vn 0.1947 0.9616 -0.1933
vn 0.2326 0.9690 -0.0835
vn 0.3372 0.9336 -0.1215
vn 0.2777 0.9340 -0.2246
vn 0.1408 0.8889 -0.4359
vn 0.1005 0.9003 -0.4236
vn 0.1486 0.9374 -0.3149
vn 0.2063 0.9177 -0.3394
vn -0.0000 0.4660 -0.8848
vn -0.0000 0.3384 -0.9410
vn -0.1267 0.3451 -0.9300
vn -0.1001 0.4704 -0.8768
vn 0.1267 0.3451 -0.9300
vn -0.1546 0.7354 -0.6598
vn -0.2633 0.7858 -0.5597
vn -0.2495 0.8084 -0.5331
vn -0.1735 0.8131 -0.5556
vn -0.1818 0.7966 -0.5765
vn 0.3809 0.9240 -0.0338
vn 0.2607 0.9653 0.0135
vn -0.0720 0.5785 -0.8125
vn -0.3494 0.5507 -0.7580
vn -0.4331 0.4566 -0.7772
vn -0.1848 0.7818 -0.5955
vn -0.2665 0.7645 -0.5870
vn -0.1713 0.7495 -0.6395
vn 0.1644 0.8239 -0.5424
vn 0.1524 0.8355 -0.5279
vn 0.2179 0.8436 -0.4909
vn 0.2352 0.8284 -0.5084
vn -0.1935 0.6795 -0.7077
vn -0.1551 0.6631 -0.7323
vn -0.2663 0.6252 -0.7336
vn -0.2091 0.6049 -0.7683
vn 0.7500 0.6486 0.1297
vn 0.7943 0.5697 0.2108
vn 0.8565 0.4973 0.1383
vn 0.8128 0.5788 0.0652
vn -0.2434 0.3676 -0.8976
vn -0.1953 0.4864 -0.8516
vn 0.3100 0.8481 -0.4296
vn 0.3343 0.8236 -0.4582
vn -0.3449 0.4069 -0.8459
vn -0.2782 0.5154 -0.8105
vn 0.3903 0.3156 -0.8649
vn 0.2487 0.7186 -0.6495
vn 0.3509 0.6729 -0.6512
vn 0.0521 0.9101 -0.4111
vn -0.0000 0.9120 -0.4102
vn -0.0000 0.9571 -0.2898
vn 0.0748 0.9520 -0.2968
vn 0.4096 0.5856 -0.6995
vn -0.3132 0.6478 -0.6944
vn 0.4557 0.6189 -0.6397
vn 0.5547 0.5537 -0.6210
vn 0.1429 0.2479 -0.9582
vn -0.0000 0.2399 -0.9708
vn -0.5866 0.5967 -0.5476
vn -0.6025 0.6329 -0.4863
vn -0.5032 0.6825 -0.5301
vn -0.4871 0.6513 -0.5819
vn -0.0000 0.9871 -0.1603
vn 0.0956 0.9810 -0.1691
vn -0.7864 0.2860 -0.5475
vn -0.7250 0.3787 -0.5753
vn -0.6636 0.2799 -0.6938
vn -0.7063 0.1825 -0.6840
vn 0.6237 0.3615 -0.6931
vn 0.5436 0.2845 -0.7897
vn -0.6165 0.1054 -0.7803
vn -0.5831 0.1926 -0.7892
vn 0.4871 0.6513 -0.5819
vn 0.3737 0.7005 -0.6080
vn -0.0000 0.1448 -0.9895
vn -0.1562 0.1534 -0.9757
vn -0.1429 0.2479 -0.9582
vn -0.8721 0.1233 -0.4736
vn -0.9299 0.2170 -0.2969
vn -0.8923 0.2889 -0.3469
vn -0.8389 0.1911 -0.5096
vn -0.2740 0.2729 -0.9222
vn 0.3011 0.1790 -0.9366
vn 0.2740 0.2729 -0.9222
vn 0.4315 0.2218 -0.8744
vn -0.6051 0.6680 -0.4332
vn -0.5041 0.7149 -0.4845
vn 0.6602 0.5448 -0.5170
vn 0.6284 0.4915 -0.6030
vn 0.5866 0.5967 -0.5476
vn 0.3610 0.7901 -0.4954
vn 0.4599 0.8004 -0.3845
vn 0.4903 0.7542 -0.4368
vn -0.1445 0.5881 -0.7958
vn 0.5831 0.1926 -0.7892
vn 0.4680 0.1302 -0.8741
vn 0.1636 0.8823 0.4414
vn 0.3314 0.8575 0.3935
vn 0.3212 0.8974 0.3026
vn 0.1566 0.9249 0.3466
vn 0.7138 0.5022 -0.4881
vn 0.6770 0.4404 -0.5897
vn -0.1947 0.9616 -0.1933
vn -0.2326 0.9690 -0.0835
vn -0.1115 0.9923 -0.0538
vn -0.0956 0.9810 -0.1691
vn 0.6025 0.6329 -0.4863
vn 0.2642 0.7405 -0.6179
vn -0.6304 0.7322 -0.2578
vn -0.6942 0.6925 -0.1963
vn -0.6543 0.7446 -0.1320
vn -0.5909 0.7820 -0.1981
vn -0.3903 0.3156 -0.8649
vn 0.1230 0.9912 0.0489
vn 0.1115 0.9923 -0.0538
vn -0.1808 0.7658 -0.6171
vn 0.2434 0.3676 -0.8976
vn 0.5938 -0.7925 -0.1390
vn 0.6191 -0.7569 -0.2091
vn 0.7068 -0.7011 -0.0948
vn 0.6733 -0.7388 -0.0294
vn 0.6648 0.2793 -0.6929
vn 0.7082 0.1828 -0.6820
vn 0.6165 0.1054 -0.7803
vn 0.4988 0.0505 -0.8653
vn 0.4859 0.8135 0.3196
vn 0.5065 0.7485 0.4281
vn 0.6669 0.6717 0.3226
vn 0.6312 0.7419 0.2263
vn 0.1808 0.7658 -0.6171
vn 0.1848 0.7818 -0.5956
vn 0.2665 0.7645 -0.5870
vn 0.7615 -0.6133 -0.2098
vn 0.8589 -0.5078 -0.0669
vn 0.7902 -0.6125 0.0215
vn -0.3509 0.6729 -0.6512
vn -0.5174 0.8557 -0.0059
vn -0.5630 0.8229 0.0770
vn -0.4483 0.8812 0.1499
vn -0.4170 0.9072 0.0551
vn 0.6051 0.6680 -0.4332
vn 0.7688 -0.0886 0.6333
vn 0.8408 -0.1648 0.5157
vn 0.8560 -0.0963 0.5079
vn -0.8116 -0.1439 -0.5662
vn -0.7923 -0.0484 -0.6082
vn -0.6910 -0.1276 -0.7115
vn -0.7051 -0.2277 -0.6715
vn -0.2642 0.7405 -0.6179
vn -0.3809 0.9240 -0.0338
vn -0.4691 0.8791 -0.0841
vn 0.4249 0.8380 -0.3424
vn 0.3894 0.8707 -0.3005
vn 0.4790 0.8523 -0.2099
vn 0.5257 0.8104 -0.2585
vn -0.2487 0.7186 -0.6495
vn -0.2269 0.6965 -0.6807
vn 0.5937 0.7117 -0.3755
vn 0.2634 0.7857 -0.5598
vn 0.2503 0.8079 -0.5335
vn -0.3737 0.7005 -0.6080
vn -0.1486 0.9374 -0.3149
vn -0.0748 0.9520 -0.2968
vn 0.1713 0.7495 -0.6395
vn 0.5642 0.7646 -0.3116
vn -0.4903 0.7542 -0.4368
vn -0.3610 0.7900 -0.4955
vn -0.3773 0.7588 -0.5309
vn -0.3828 0.7295 -0.5668
vn 0.1467 0.9569 0.2506
vn 0.3069 0.9279 0.2119
vn 0.2846 0.9524 0.1097
vn 0.1339 0.9801 0.1464
vn -0.5937 0.7117 -0.3755
vn -0.6602 0.5448 -0.5170
vn -0.6736 0.5870 -0.4491
vn -0.5748 0.4322 -0.6949
vn -0.6284 0.4915 -0.6030
vn -0.4940 0.3719 -0.7859
vn 0.1819 0.7964 -0.5768
vn 0.0958 0.8655 -0.4917
vn 0.1729 0.8736 -0.4549
vn 0.1194 0.8560 -0.5031
vn -0.1642 0.8233 -0.5433
vn 0.5174 0.8557 -0.0059
vn 0.5630 0.8229 0.0770
vn 0.6578 0.7532 0.0013
vn 0.5994 0.7972 -0.0720
vn -0.5642 0.7646 -0.3116
vn -0.4599 0.8004 -0.3845
vn -0.6237 0.3615 -0.6931
vn -0.6770 0.4404 -0.5897
vn 0.6438 -0.0287 0.7646
vn -0.5613 -0.1952 -0.8042
vn -0.5703 -0.3025 -0.7637
vn -0.4315 0.2218 -0.8744
vn -0.5436 0.2845 -0.7897
vn -0.3011 0.1790 -0.9366
vn -0.8913 -0.1773 0.4172
vn -0.9049 -0.2503 0.3442
vn -0.8762 -0.3173 0.3629
vn -0.8691 -0.2456 0.4293
vn -0.3256 0.0890 -0.9413
vn -0.4680 0.1302 -0.8741
vn 0.4691 0.8791 -0.0841
vn 0.4147 0.8955 -0.1613
vn 0.1746 0.8114 -0.5578
vn -0.6735 0.6267 -0.3919
vn 0.4170 0.9072 0.0551
vn -0.7445 0.0936 -0.6610
vn 0.4962 -0.8087 -0.3159
vn 0.4780 -0.8432 -0.2462
vn 0.3232 -0.8863 -0.3315
vn 0.3352 -0.8528 -0.4005
vn 0.0687 0.8733 -0.4822
vn -0.5938 -0.7925 -0.1390
vn -0.6191 -0.7569 -0.2091
vn -0.4962 -0.8087 -0.3159
vn -0.4780 -0.8432 -0.2462
vn -0.1676 0.0629 -0.9839
vn -0.0000 0.0535 -0.9986
vn 0.3256 0.0890 -0.9413
vn 0.8712 0.1251 -0.4746
vn 0.7723 0.0264 -0.6347
vn 0.7462 0.0951 -0.6589
vn 0.8390 0.1907 -0.5097
vn -0.7693 0.4531 -0.4503
vn -0.7138 0.5022 -0.4881
vn -0.6680 0.1552 0.7278
vn -0.6859 0.2572 0.6807
vn -0.8150 0.2062 0.5415
vn -0.7977 0.1031 0.5941
vn -0.3466 0.0074 -0.9380
vn -0.4988 0.0505 -0.8653
vn -0.7330 0.5415 -0.4116
vn -0.7361 0.5802 -0.3486
vn 0.3466 0.0074 -0.9380
vn 0.1562 0.1534 -0.9757
vn -0.8357 0.3763 -0.3999
vn -0.8523 0.4236 -0.3067
vn -0.7921 0.4901 -0.3638
vn -0.6604 0.6753 -0.3284
vn 0.6999 0.3302 0.6333
vn 0.6859 0.2572 0.6807
vn 0.8150 0.2062 0.5415
vn 0.8292 0.2703 0.4892
vn -0.5246 -0.0214 -0.8511
vn -0.6464 0.0298 -0.7624
vn -0.1844 -0.1045 -0.9773
vn -0.3640 -0.0696 -0.9288
vn -0.1768 -0.0226 -0.9840
vn -0.9403 0.0874 0.3290
vn -0.9700 0.0112 0.2429
vn -0.9476 -0.1136 0.2985
vn -0.9238 -0.0377 0.3811
vn -0.8542 0.4628 -0.2372
vn -0.7977 0.5255 -0.2960
vn -0.0000 -0.0336 -0.9994
vn 0.7330 0.5415 -0.4116
vn 0.7361 0.5802 -0.3486
vn 0.7977 0.5255 -0.2960
vn 0.7921 0.4901 -0.3638
vn 0.6736 0.5870 -0.4491
vn 0.3440 0.7910 0.5059
vn 0.7699 0.4517 -0.4508
vn 0.7265 0.3766 -0.5747
vn -0.3344 0.8235 -0.4582
vn -0.7238 0.6325 -0.2757
vn 0.3896 -0.3697 -0.8435
vn 0.3862 -0.2548 -0.8865
vn 0.5613 -0.1952 -0.8042
vn 0.5703 -0.3025 -0.7637
vn 0.5986 0.7867 0.1508
vn 0.7062 0.7050 0.0658
vn -0.6719 -0.0439 -0.7393
vn -0.5464 -0.1020 -0.8313
vn 0.5464 -0.1020 -0.8313
vn 0.6719 -0.0439 -0.7393
vn 0.6910 -0.1276 -0.7115
vn -0.8397 0.5229 -0.1468
vn -0.7856 0.5811 -0.2125
vn -0.1054 0.6531 -0.7499
vn 0.2506 0.8958 -0.3671
vn -0.3780 -0.1561 -0.9126
vn -0.3212 0.8974 0.3026
vn -0.1566 0.9249 0.3466
vn -0.1467 0.9569 0.2506
vn -0.3069 0.9279 0.2119
vn -0.5405 0.8293 -0.1420
vn -0.5994 0.7972 -0.0720
vn -0.2856 0.8708 -0.4002
vn -0.3101 0.8482 -0.4295
vn -0.1903 -0.1942 -0.9623
vn -0.9434 0.2699 -0.1928
vn -0.9571 0.1564 -0.2440
vn -0.9705 0.1997 -0.1353
vn -0.9247 0.3803 -0.0168
vn -0.8923 0.4451 0.0755
vn -0.8514 0.5245 0.0062
vn -0.8853 0.4574 -0.0836
vn -0.9020 0.3937 -0.1774
vn -0.4249 0.8380 -0.3424
vn -0.5257 0.8104 -0.2585
vn -0.4790 0.8523 -0.2099
vn -0.3894 0.8707 -0.3004
vn 0.1379 0.8455 -0.5159
vn -0.0000 -0.1172 -0.9931
vn 0.8397 0.5229 -0.1468
vn 0.8542 0.4628 -0.2372
vn 0.7856 0.5811 -0.2125
vn 0.7161 0.6954 -0.0600
vn 0.6543 0.7446 -0.1320
vn -0.3387 0.9048 -0.2581
vn -0.4147 0.8955 -0.1613
vn -0.1728 0.8736 -0.4549
vn -0.1193 0.8560 -0.5030
vn -0.2352 0.8281 -0.5089
vn 0.5245 -0.7341 -0.4313
vn 0.6597 -0.6764 -0.3274
vn 0.1676 0.0629 -0.9839
vn 0.1768 -0.0226 -0.9840
vn -0.2506 0.8958 -0.3671
vn -0.2777 0.9340 -0.2246
vn -0.2064 0.9177 -0.3394
vn -0.0958 0.8655 -0.4917
vn -0.1409 0.8889 -0.4359
vn 0.7483 -0.6596 0.0702
vn -0.3372 0.9336 -0.1215
vn -0.1005 0.9003 -0.4236
vn -0.0687 0.8733 -0.4822
vn 0.0359 0.8784 -0.4765
vn -0.0521 0.9101 -0.4111
vn -0.0000 0.8807 -0.4736
vn 0.8975 0.0635 -0.4364
vn 0.7924 -0.0472 -0.6082
vn -0.0000 0.9991 -0.0431
vn 0.1844 -0.1045 -0.9773
vn 0.3640 -0.0696 -0.9288
vn 0.8359 0.3741 -0.4017
vn 0.7877 0.2837 -0.5469
vn 0.5246 -0.0214 -0.8511
vn -0.0359 0.8784 -0.4765
vn -0.7675 0.6411 0.0046
vn -0.8067 0.5882 -0.0567
vn -0.8128 0.5788 0.0652
vn -0.2607 0.9653 0.0135
vn -0.1230 0.9912 0.0489
vn -0.3525 -0.7830 -0.5125
vn -0.1687 -0.8139 -0.5559
vn -0.1595 -0.8800 -0.4474
vn -0.3352 -0.8528 -0.4005
vn 0.1903 -0.5441 -0.8172
vn 0.1930 -0.4157 -0.8888
vn 0.3877 -0.4946 -0.7779
vn 0.2013 0.8576 -0.4733
vn 0.4483 0.8812 0.1499
vn 0.4688 0.8518 0.2339
vn -0.2846 0.9524 0.1097
vn -0.1339 0.9801 0.1464
vn 0.2856 0.8708 -0.4002
vn 0.3388 0.9048 -0.2581
vn -0.0000 0.9981 0.0610
vn -0.1930 -0.4157 -0.8888
vn -0.3896 -0.3697 -0.8435
vn -0.3862 -0.2548 -0.8865
vn -0.1930 -0.2956 -0.9356
vn -0.0000 0.9875 0.1576
vn 0.9880 0.1330 -0.0790
vn 0.9789 0.0854 -0.1856
vn 0.9566 0.1570 -0.2453
vn 0.9705 0.1997 -0.1353
vn -0.6578 0.7532 0.0013
vn -0.7161 0.6954 -0.0600
vn 0.8661 -0.4450 0.2275
vn 0.8230 -0.5479 0.1499
vn 0.8656 -0.4864 0.1187
vn 0.9040 -0.3782 0.1996
vn -0.7062 0.7050 0.0658
vn -0.7552 0.6435 -0.1250
vn -0.5986 0.7867 0.1508
vn -0.4688 0.8518 0.2339
vn -0.7500 0.6486 0.1297
vn 0.5065 0.0757 0.8589
vn 0.5030 0.0127 0.8642
vn 0.3654 0.2212 0.9042
vn 0.3557 0.1060 0.9286
vn 0.5194 0.1928 0.8325
vn 0.1720 0.8142 0.5545
vn -0.6669 0.6717 0.3226
vn -0.5065 0.7485 0.4281
vn -0.4859 0.8135 0.3196
vn -0.6312 0.7419 0.2263
vn -0.7943 0.5697 0.2108
vn -0.1903 -0.5441 -0.8172
vn -0.1844 -0.6495 -0.7376
vn -0.3794 -0.6034 -0.7014
vn -0.3877 -0.4946 -0.7779
vn -0.5245 -0.7341 -0.4313
vn 0.7675 0.6411 0.0046
vn 0.5405 0.8293 -0.1420
vn 0.5909 0.7820 -0.1981
vn -0.8565 0.4973 0.1383
vn -0.0000 0.9651 0.2619
vn -0.8245 -0.2562 -0.5046
vn -0.9382 -0.1310 -0.3203
vn -0.9229 -0.0237 -0.3842
vn -0.9040 -0.3782 0.1996
vn -0.8661 -0.4450 0.2275
vn -0.8756 -0.3746 0.3049
vn -0.9096 -0.3085 0.2782
vn -0.9203 0.3637 0.1441
vn -0.9520 0.3022 0.0483
vn -0.9417 0.3165 -0.1145
vn -0.8268 0.4797 0.2937
vn -0.8867 0.4110 0.2119
vn -0.0000 0.9329 0.3601
vn 0.9992 -0.0261 0.0288
vn 0.9875 -0.1324 0.0852
vn 0.9717 -0.2362 -0.0019
vn 0.9916 -0.1111 -0.0662
vn 0.6304 0.7322 -0.2578
vn 0.6604 0.6753 -0.3284
vn -0.3314 0.8575 0.3935
vn -0.1636 0.8823 0.4414
vn -0.9670 0.2320 0.1053
vn -0.9692 0.2406 -0.0529
vn -0.9851 0.1721 0.0035
vn -0.9002 0.3382 0.2742
vn -0.9346 0.2935 0.2011
vn 0.5721 -0.4212 -0.7038
vn 0.5642 -0.5340 -0.6297
vn 0.3794 -0.6034 -0.7014
vn -0.3440 0.7910 0.5059
vn -0.1720 0.8142 0.5545
vn 0.6942 0.6925 -0.1963
vn -0.0000 0.8895 0.4569
vn -0.9921 -0.0047 -0.1257
vn -0.9980 0.0589 -0.0239
vn -0.9880 0.1330 -0.0790
vn -0.9789 0.0854 -0.1856
vn 0.3630 0.6143 0.7007
vn 0.3684 0.5232 0.7685
vn 0.5380 0.4720 0.6984
vn 0.5337 0.5675 0.6270
vn -0.0000 0.8215 0.5703
vn -0.7090 0.4892 0.5079
vn -0.6950 0.5829 0.4209
vn -0.8412 0.3962 0.3680
vn -0.9851 -0.0594 0.1611
vn -0.9937 0.0330 0.1073
vn -0.9992 -0.0261 0.0288
vn -0.9875 -0.1324 0.0852
vn 0.9293 -0.3642 0.0609
vn -0.9930 0.1034 0.0579
vn 0.1769 -0.7387 -0.6505
vn 0.1844 -0.6495 -0.7376
vn 0.3669 -0.7003 -0.6123
vn -0.8399 0.3236 0.4357
vn -0.9030 0.2754 0.3298
vn -0.8996 0.2242 0.3748
vn -0.9412 0.2280 0.2492
vn -0.9431 0.1691 0.2862
vn 0.9002 0.3382 0.2742
vn 0.9346 0.2935 0.2011
vn 0.9203 0.3637 0.1441
vn 0.8867 0.4110 0.2119
vn -0.5235 0.6619 0.5364
vn -0.3630 0.6143 0.7007
vn -0.3553 0.7043 0.6147
vn -0.5337 0.5675 0.6270
vn 0.9692 0.2406 -0.0529
vn 0.9417 0.3165 -0.1145
vn 0.9247 0.3803 -0.0168
vn 0.9520 0.3022 0.0483
vn 0.1846 0.1219 0.9752
vn -0.0000 0.1252 0.9921
vn -0.0000 0.0648 0.9979
vn 0.1801 0.0621 0.9817
vn -0.8787 0.0381 0.4758
vn -0.8929 0.1535 0.4232
vn -0.9361 -0.2510 -0.2463
vn -0.9916 -0.1111 -0.0662
vn -0.5380 0.4720 0.6984
vn -0.3684 0.5232 0.7685
vn -0.7089 0.3996 0.5812
vn 0.1805 0.7277 0.6617
vn 0.3553 0.7043 0.6147
vn -0.0000 0.7357 0.6773
vn -0.6999 0.3302 0.6333
vn -0.5374 0.3884 0.7485
vn -0.9040 0.3471 -0.2496
vn -0.8589 -0.5078 -0.0669
vn -0.9098 -0.3835 -0.1586
vn -0.8027 -0.5014 -0.3228
vn -0.7615 -0.6133 -0.2098
vn 0.7089 0.3996 0.5812
vn 0.7090 0.4892 0.5079
vn -0.1865 0.6413 0.7443
vn -0.0000 0.6505 0.7595
vn -0.1805 0.7277 0.6617
vn 0.3780 -0.1561 -0.9126
vn 0.1903 -0.1942 -0.9623
vn -0.8292 0.2703 0.4892
vn 0.9930 0.1034 0.0579
vn 0.9851 0.1721 0.0035
vn 0.9670 0.2320 0.1053
vn 0.9741 0.1633 0.1562
vn -0.3720 0.4339 0.8206
vn -0.1938 0.4647 0.8640
vn -0.1903 0.5547 0.8100
vn -0.0000 0.5654 0.8248
vn -0.9741 0.1633 0.1562
vn -0.9754 0.0985 0.1972
vn 0.9361 -0.2510 -0.2463
vn 0.8238 -0.3753 -0.4248
vn 0.8245 -0.2562 -0.5046
vn 0.9382 -0.1310 -0.3203
vn 0.7051 -0.2277 -0.6715
vn 0.7128 -0.3408 -0.6130
vn -0.5313 0.3002 0.7922
vn -0.3718 0.3339 0.8661
vn -0.5194 0.1928 0.8325
vn 0.5313 0.3002 0.7922
vn 0.3718 0.3339 0.8661
vn -0.3654 0.2212 0.9042
vn -0.7715 0.0243 -0.6357
vn 0.9291 0.2169 -0.2994
vn -0.1960 0.3584 0.9128
vn -0.5065 0.0757 0.8589
vn -0.6493 0.0363 0.7597
vn -0.3557 0.1060 0.9286
vn -0.7781 -0.0210 0.6278
vn -0.8560 -0.0963 0.5079
vn -0.8981 0.0616 -0.4354
vn -0.7068 -0.7011 -0.0948
vn -0.6597 -0.6764 -0.3274
vn 0.9566 -0.2533 0.1439
vn -0.0000 0.4760 0.8794
vn 0.5374 0.3884 0.7485
vn -0.7128 -0.3408 -0.6130
vn -0.8238 -0.3753 -0.4248
vn -0.7092 -0.4565 -0.5373
vn -0.6910 -0.5745 -0.4388
vn -0.0000 -0.9199 -0.3921
vn -0.1527 -0.9125 -0.3796
vn -0.0000 -0.8883 -0.4593
vn -0.9717 -0.2362 -0.0019
vn -0.9293 -0.3642 0.0609
vn -0.0000 -0.2079 -0.9781
vn -0.0000 -0.3104 -0.9506
vn -0.5721 -0.4212 -0.7038
vn -0.0000 -0.4322 -0.9018
vn 0.7092 -0.4565 -0.5373
vn 0.1595 -0.8800 -0.4474
vn -0.0000 -0.8241 -0.5664
vn 0.1687 -0.8139 -0.5559
vn -0.9566 -0.2533 0.1439
vn -0.9584 -0.1792 0.2220
vn 0.9754 0.0985 0.1972
vn 0.9412 0.2280 0.2492
vn 0.9431 0.1691 0.2862
vn -0.3669 -0.7003 -0.6123
vn -0.1769 -0.7387 -0.6505
vn -0.5642 -0.5340 -0.6297
vn -0.8408 -0.1648 0.5157
vn -0.7688 -0.0886 0.6333
vn -0.5475 -0.6420 -0.5367
vn -0.0000 -0.5615 -0.8274
vn 0.9096 -0.3085 0.2782
vn 0.9584 -0.1792 0.2220
vn -0.8656 -0.4864 0.1187
vn -0.8230 -0.5479 0.1499
vn 0.1930 -0.2956 -0.9356
vn -0.6438 -0.0287 0.7646
vn -0.5030 0.0127 0.8642
vn -0.7902 -0.6125 0.0215
vn -0.7483 -0.6596 0.0702
vn 0.8787 0.0381 0.4758
vn 0.8691 -0.2456 0.4293
vn 0.8913 -0.1773 0.4172
vn 0.6464 0.0298 -0.7624
vn -0.6733 -0.7388 -0.0294
vn -0.3524 0.0455 0.9348
vn 0.9229 -0.0237 -0.3842
vn -0.1846 0.1219 0.9752
vn -0.1801 0.0621 0.9817
vn 0.7238 0.6325 -0.2757
vn -0.1930 0.2391 0.9516
vn -0.0000 0.2449 0.9695
vn -0.0000 0.3679 0.9299
vn 0.1960 0.3584 0.9128
vn 0.1938 0.4647 0.8640
vn 0.3720 0.4339 0.8206
vn 0.1865 0.6413 0.7443
vn 0.6735 0.6267 -0.3919
vn 0.3524 0.0455 0.9348
vn -0.3232 -0.8863 -0.3315
vn 0.9434 0.2699 -0.1928
vn 0.1930 0.2391 0.9516
vn -0.0000 -0.6657 -0.7462
vn 0.5235 0.6619 0.5364
vn 0.7552 0.6435 -0.1250
vn 0.9238 -0.0377 0.3811
vn 0.8917 0.2873 -0.3497
vn 0.9040 0.3471 -0.2496
vn 0.8523 0.4236 -0.3067
vn 0.8067 0.5882 -0.0567
vn 0.8762 -0.3173 0.3629
vn 0.9049 -0.2503 0.3442
vn 0.8929 0.1535 0.4232
vn 0.8756 -0.3746 0.3049
vn 0.9020 0.3937 -0.1774
vn -0.0000 -0.7521 -0.6590
vn 0.9476 -0.1136 0.2985
vn 0.8116 -0.1439 -0.5662
vn 0.9403 0.0874 0.3290
vn 0.9700 0.0112 0.2429
vn 0.8399 0.3236 0.4357
vn 0.9030 0.2754 0.3298
vn 0.8412 0.3962 0.3680
vn 0.8996 0.2242 0.3748
vn 0.8268 0.4797 0.2937
vn 0.6950 0.5829 0.4209
vn 0.1903 0.5547 0.8100
vn 0.5475 -0.6420 -0.5367
vn 0.6910 -0.5745 -0.4388
vn 0.9851 -0.0594 0.1611
vn 0.9937 0.0330 0.1073
vn 0.9098 -0.3835 -0.1586
vn 0.3525 -0.7830 -0.5125
vn 0.1527 -0.9125 -0.3796
vn 0.8027 -0.5014 -0.3228
vn 0.8853 0.4574 -0.0836
vn 0.9921 -0.0047 -0.1257
vn 0.9980 0.0589 -0.0239
vn 0.8923 0.4451 0.0755
vn 0.8514 0.5245 0.0062
vn -0.3239 -0.9446 0.0528
vn -0.0000 -0.9113 0.4117
vn -0.3894 -0.9130 0.1220
vn -0.2529 -0.9675 -0.0023
vn -0.4293 -0.8858 0.1764
vn -0.1780 -0.9833 -0.0391
vn -0.4492 -0.8669 0.2163
vn -0.0917 -0.9938 -0.0633
vn -0.4627 -0.8480 0.2584
vn -0.0000 -0.9974 -0.0715
vn -0.4678 -0.8226 0.3233
vn 0.0917 -0.9938 -0.0633
vn -0.4539 -0.7810 0.4289
vn 0.1780 -0.9833 -0.0391
vn -0.4104 -0.7283 0.5487
vn 0.2529 -0.9675 -0.0023
vn -0.3619 -0.6867 0.6305
vn 0.3239 -0.9446 0.0528
vn -0.3144 -0.6604 0.6819
vn 0.3894 -0.9130 0.1220
vn -0.2552 -0.6377 0.7267
vn 0.4293 -0.8858 0.1764
vn -0.1890 -0.6197 0.7618
vn 0.4492 -0.8669 0.2163
vn -0.1180 -0.6066 0.7862
vn 0.4627 -0.8480 0.2584
vn -0.0517 -0.5987 0.7993
vn 0.4678 -0.8226 0.3233
vn -0.0000 -0.5962 0.8028
vn 0.4539 -0.7810 0.4289
vn 0.0517 -0.5987 0.7993
vn 0.4104 -0.7283 0.5487
vn 0.3144 -0.6604 0.6819
vn 0.2552 -0.6377 0.7267
vn 0.1890 -0.6197 0.7618
vn 0.1180 -0.6066 0.7862
vn 0.3619 -0.6867 0.6305
vt 0.000000 0.000000
s 1
f 1/1/1 2/1/2 3/1/3
f 1/1/1 3/1/3 4/1/4
f 18/1/5 25/1/6 26/1/7 19/1/8
f 25/1/6 32/1/9 33/1/10 26/1/7
f 19/1/8 26/1/7 28/1/11 27/1/12
f 33/1/10 36/1/13 28/1/11 26/1/7
f 121/1/14 128/1/15 77/1/16 83/1/17
f 4/1/4 3/1/3 9/1/18
f 19/1/8 27/1/12 12/1/19 11/1/20
f 35/1/21 34/1/22 27/1/12 28/1/11
f 37/1/23 35/1/21 28/1/11 36/1/13
f 132/1/24 131/1/25 261/1/26 253/1/27
f 9/1/18 3/1/3 18/1/5
f 9/1/18 11/1/20 7/1/28 4/1/4
f 123/1/29 144/1/30 138/1/31 111/1/32
f 53/1/33 60/1/34 55/1/35 54/1/36
f 44/1/37 77/1/16 45/1/38 37/1/23
f 44/1/37 37/1/23 36/1/13 42/1/39
f 392/1/40 468/1/41 402/1/42 396/1/43
f 2/1/2 23/1/44 3/1/3
f 97/1/45 98/1/46 90/1/47 41/1/48
f 42/1/39 41/1/48 90/1/47 89/1/49
f 18/1/5 3/1/3 25/1/6
f 219/1/50 244/1/51 212/1/52 213/1/53
f 216/1/54 221/1/55 222/1/56 217/1/57
f 29/1/58 50/1/59 30/1/60 20/1/61
f 43/1/62 50/1/59 29/1/58 34/1/22
f 23/1/44 31/1/63 3/1/3
f 25/1/6 3/1/3 32/1/9
f 94/1/64 117/1/65 110/1/66 102/1/67
f 251/1/68 212/1/52 244/1/51 250/1/69
f 12/1/19 29/1/58 20/1/61 10/1/70
f 53/1/33 54/1/36 22/1/71 47/1/72
f 94/1/64 102/1/67 95/1/73 87/1/74
f 31/1/63 39/1/75 3/1/3
f 186/1/76 193/1/77 187/1/78 182/1/79
f 17/1/80 23/1/44 2/1/2 6/1/81
f 16/1/82 17/1/80 6/1/81 15/1/83
f 285/1/84 308/1/85 301/1/86 294/1/87
f 30/1/60 38/1/88 13/1/89 20/1/61
f 182/1/79 187/1/78 185/1/90 181/1/91
f 13/1/89 38/1/88 21/1/92 14/1/93
f 21/1/92 47/1/72 22/1/71 14/1/93
f 34/1/22 29/1/58 12/1/19 27/1/12
f 77/1/16 128/1/15 78/1/94 45/1/38
f 90/1/47 99/1/95 96/1/96 89/1/49
f 225/1/97 232/1/98 233/1/99 226/1/100
f 44/1/37 84/1/101 83/1/17 77/1/16
f 42/1/39 89/1/49 84/1/101 44/1/37
f 49/1/102 16/1/82 22/1/71 54/1/36
f 88/1/103 113/1/104 83/1/17 84/1/101
f 58/1/105 57/1/106 50/1/59 43/1/62
f 61/1/107 86/1/108 75/1/109 62/1/110
f 226/1/100 233/1/99 234/1/111 227/1/112
f 485/1/113 486/1/114 79/1/115 480/1/116
f 121/1/14 139/1/117 133/1/118 128/1/15
f 85/1/119 480/1/116 79/1/115 80/1/120
f 19/1/8 11/1/20 9/1/18 18/1/5
f 105/1/121 88/1/103 96/1/96 104/1/122
f 63/1/123 210/1/124 56/1/125 57/1/106
f 552/1/126 638/1/127 545/1/128 546/1/129
f 56/1/125 65/1/130 38/1/88 30/1/60
f 135/1/131 82/1/132 78/1/94 134/1/133
f 91/1/134 92/1/135 75/1/109 86/1/108
f 119/1/136 120/1/137 113/1/104 112/1/138
f 148/1/139 181/1/91 174/1/140 151/1/141
f 14/1/93 15/1/83 8/1/142 13/1/89
f 133/1/118 152/1/143 140/1/144 134/1/133
f 321/1/145 322/1/146 281/1/147 316/1/148
f 119/1/136 150/1/149 127/1/150 120/1/137
f 50/1/59 57/1/106 56/1/125 30/1/60
f 257/1/151 263/1/152 256/1/153 249/1/154
f 111/1/32 118/1/155 112/1/138 105/1/121
f 103/1/156 104/1/122 96/1/96 99/1/95
f 317/1/157 526/1/158 329/1/159 323/1/160
f 38/1/88 65/1/130 46/1/161 21/1/92
f 10/1/70 20/1/61 13/1/89 8/1/142
f 243/1/162 250/1/69 244/1/51 235/1/163
f 39/1/75 81/1/164 3/1/3
f 78/1/94 82/1/132 64/1/165 45/1/38
f 483/1/166 496/1/167 477/1/168 476/1/169
f 145/1/170 164/1/171 157/1/172 152/1/143
f 157/1/172 158/1/173 140/1/144 152/1/143
f 286/1/174 328/1/175 293/1/176 287/1/177
f 114/1/178 130/1/179 122/1/180 103/1/156
f 477/1/168 484/1/181 470/1/182 478/1/183
f 55/1/35 48/1/184 49/1/102 54/1/36
f 309/1/185 336/1/186 319/1/187 314/1/188
f 111/1/32 138/1/31 137/1/189 118/1/155
f 402/1/42 459/1/190 444/1/191 437/1/192
f 629/1/193 559/1/194 560/1/195 568/1/196
f 87/1/74 95/1/73 81/1/164 71/1/197
f 81/1/164 95/1/73 3/1/3
f 309/1/185 314/1/188 296/1/198 302/1/199
f 180/1/200 199/1/201 198/1/202 192/1/203
f 32/1/9 3/1/3 97/1/45
f 97/1/45 3/1/3 98/1/46
f 40/1/204 39/1/75 31/1/63 24/1/205
f 151/1/141 165/1/206 137/1/189 138/1/31
f 151/1/141 138/1/31 144/1/30 148/1/139
f 148/1/139 144/1/30 129/1/207 147/1/208
f 95/1/73 102/1/67 3/1/3
f 71/1/197 40/1/204 48/1/184 70/1/209
f 248/1/210 257/1/151 249/1/154 241/1/211
f 71/1/197 81/1/164 39/1/75 40/1/204
f 98/1/46 3/1/3 106/1/212
f 151/1/141 174/1/140 173/1/213 165/1/206
f 100/1/214 101/1/215 93/1/216 92/1/135
f 217/1/57 222/1/56 219/1/50 213/1/53
f 102/1/67 110/1/66 3/1/3
f 75/1/109 76/1/217 70/1/209 62/1/110
f 270/1/218 277/1/219 258/1/220 266/1/221
f 61/1/107 62/1/110 55/1/35 60/1/34
f 106/1/212 3/1/3 114/1/178
f 180/1/200 192/1/203 173/1/213 174/1/140
f 181/1/91 185/1/90 180/1/200 174/1/140
f 91/1/134 107/1/222 100/1/214 92/1/135
f 69/1/223 498/1/224 86/1/108 61/1/107
f 52/1/225 68/1/226 60/1/34 53/1/33
f 52/1/225 53/1/33 47/1/72 51/1/227
f 130/1/179 136/1/228 129/1/207 122/1/180
f 76/1/217 87/1/74 71/1/197 70/1/209
f 214/1/229 216/1/54 215/1/230 207/1/231
f 22/1/71 16/1/82 15/1/83 14/1/93
f 126/1/232 3/1/3 110/1/66
f 267/1/233 274/1/234 272/1/235 268/1/236
f 108/1/237 109/1/238 100/1/214 107/1/222
f 52/1/225 73/1/239 74/1/240 68/1/226
f 94/1/64 87/1/74 76/1/217 93/1/216
f 114/1/178 3/1/3 130/1/179
f 402/1/42 468/1/41 467/1/241 459/1/190
f 32/1/9 97/1/45 41/1/48 33/1/10
f 126/1/232 132/1/24 3/1/3
f 568/1/196 560/1/195 465/1/242 567/1/243
f 46/1/161 66/1/244 59/1/245 51/1/227
f 133/1/118 134/1/133 78/1/94 128/1/15
f 210/1/124 67/1/246 65/1/130 56/1/125
f 130/1/179 3/1/3 136/1/228
f 542/1/247 556/1/248 550/1/249 543/1/250
f 92/1/135 93/1/216 76/1/217 75/1/109
f 67/1/246 223/1/251 72/1/252 66/1/244
f 69/1/223 61/1/107 60/1/34 68/1/226
f 251/1/68 259/1/253 205/1/254 212/1/52
f 136/1/228 3/1/3 141/1/255
f 498/1/224 505/1/256 91/1/134 86/1/108
f 59/1/245 80/1/120 79/1/115 73/1/239
f 79/1/115 486/1/114 74/1/240 73/1/239
f 258/1/220 271/1/257 251/1/68 250/1/69
f 479/1/258 546/1/129 485/1/113 480/1/116
f 502/1/259 504/1/260 509/1/261 508/1/262
f 221/1/55 216/1/54 214/1/229 220/1/263
f 592/1/264 601/1/265 599/1/266 600/1/267
f 209/1/268 210/1/124 63/1/123 203/1/269
f 140/1/144 154/1/270 135/1/131 134/1/133
f 380/1/271 391/1/272 170/1/273 379/1/274
f 490/1/275 491/1/276 74/1/240 486/1/114
f 46/1/161 51/1/227 47/1/72 21/1/92
f 536/1/277 554/1/278 555/1/279 549/1/280
f 229/1/281 230/1/282 72/1/252 223/1/251
f 497/1/283 524/1/284 505/1/256 498/1/224
f 140/1/144 158/1/173 159/1/285 154/1/270
f 135/1/131 146/1/286 58/1/105 82/1/132
f 490/1/275 538/1/287 539/1/288 533/1/289
f 505/1/256 518/1/290 107/1/222 91/1/134
f 364/1/291 389/1/292 370/1/293 365/1/294
f 237/1/295 474/1/296 85/1/119 230/1/282
f 236/1/297 238/1/298 229/1/281 228/1/299
f 569/1/300 584/1/301 564/1/302 563/1/303
f 539/1/288 553/1/304 532/1/305 533/1/289
f 497/1/283 533/1/289 532/1/305 524/1/284
f 202/1/306 228/1/299 209/1/268 203/1/269
f 149/1/307 169/1/308 168/1/309 163/1/310
f 118/1/155 142/1/311 119/1/136 112/1/138
f 327/1/312 328/1/175 286/1/174 322/1/146
f 155/1/313 156/1/314 127/1/150 150/1/149
f 109/1/238 116/1/315 101/1/215 100/1/214
f 58/1/105 146/1/286 63/1/123 57/1/106
f 525/1/316 526/1/158 317/1/157 518/1/290
f 432/1/317 433/1/318 412/1/319 427/1/320
f 490/1/275 533/1/289 497/1/283 491/1/276
f 62/1/110 70/1/209 48/1/184 55/1/35
f 280/1/321 279/1/322 272/1/235 274/1/234
f 473/1/323 474/1/296 237/1/295 466/1/324
f 412/1/319 188/1/325 183/1/326 404/1/327
f 532/1/305 553/1/304 547/1/328 540/1/329
f 74/1/240 491/1/276 69/1/223 68/1/226
f 7/1/28 10/1/70 8/1/142 5/1/330
f 33/1/10 41/1/48 42/1/39 36/1/13
f 141/1/255 3/1/3 186/1/76
f 216/1/54 217/1/57 208/1/331 215/1/230
f 245/1/332 466/1/324 237/1/295 238/1/298
f 325/1/333 326/1/334 310/1/335 320/1/336
f 186/1/76 3/1/3 193/1/77
f 303/1/337 330/1/338 309/1/185 302/1/199
f 292/1/339 261/1/26 131/1/25 125/1/340
f 236/1/297 458/1/341 245/1/332 238/1/298
f 637/1/342 638/1/127 634/1/343 636/1/344
f 648/1/345 654/1/346 653/1/347 650/1/348
f 561/1/349 650/1/348 547/1/328 553/1/304
f 115/1/350 306/1/351 299/1/352 300/1/353
f 125/1/340 115/1/350 300/1/353 292/1/339
f 193/1/77 3/1/3 200/1/354
f 449/1/355 236/1/297 228/1/299 202/1/306
f 184/1/356 191/1/357 168/1/309 176/1/358
f 306/1/351 323/1/160 303/1/337 299/1/352
f 272/1/235 275/1/359 218/1/360 268/1/236
f 291/1/361 300/1/353 299/1/352 297/1/362
f 98/1/46 106/1/212 99/1/95 90/1/47
f 200/1/354 3/1/3 207/1/231
f 261/1/26 260/1/363 254/1/364 253/1/27
f 101/1/215 116/1/315 124/1/365 117/1/65
f 502/1/259 503/1/366 453/1/367 496/1/167
f 202/1/306 203/1/269 153/1/368 196/1/369
f 135/1/131 154/1/270 153/1/368 146/1/286
f 148/1/139 147/1/208 182/1/79 181/1/91
f 269/1/370 291/1/361 284/1/371 276/1/372
f 207/1/231 3/1/3 214/1/229
f 252/1/373 254/1/364 260/1/363 255/1/374
f 269/1/370 276/1/372 255/1/374 260/1/363
f 112/1/138 113/1/104 88/1/103 105/1/121
f 329/1/159 330/1/338 303/1/337 323/1/160
f 477/1/168 478/1/183 469/1/375 476/1/169
f 257/1/151 284/1/371 290/1/376 263/1/152
f 276/1/372 284/1/371 257/1/151 248/1/210
f 214/1/229 3/1/3 220/1/263
f 252/1/373 255/1/374 247/1/377 246/1/378
f 255/1/374 276/1/372 248/1/210 247/1/377
f 220/1/263 3/1/3 224/1/379
f 4/1/4 7/1/28 5/1/330 1/1/1
f 248/1/210 241/1/211 240/1/380 247/1/377
f 129/1/207 144/1/30 123/1/29 122/1/180
f 159/1/285 196/1/369 153/1/368 154/1/270
f 229/1/281 223/1/251 209/1/268 228/1/299
f 224/1/379 3/1/3 231/1/381
f 35/1/21 64/1/165 43/1/62 34/1/22
f 240/1/380 241/1/211 233/1/99 232/1/98
f 241/1/211 249/1/154 234/1/111 233/1/99
f 380/1/271 397/1/382 398/1/383 391/1/272
f 249/1/154 256/1/153 242/1/384 234/1/111
f 195/1/385 196/1/369 159/1/285 189/1/386
f 155/1/313 161/1/387 160/1/388 156/1/314
f 166/1/389 189/1/386 159/1/285 158/1/173
f 379/1/274 170/1/273 164/1/171 160/1/388
f 224/1/379 231/1/381 232/1/98 225/1/97
f 231/1/381 3/1/3 239/1/390
f 659/1/391 655/1/392 653/1/347 658/1/393
f 46/1/161 65/1/130 67/1/246 66/1/244
f 107/1/222 518/1/290 317/1/157 108/1/237
f 263/1/152 298/1/394 262/1/395 256/1/153
f 617/1/396 615/1/397 610/1/398 609/1/399
f 445/1/400 452/1/401 432/1/317 438/1/402
f 225/1/97 221/1/55 220/1/263 224/1/379
f 239/1/390 3/1/3 246/1/378
f 207/1/231 215/1/230 194/1/403 200/1/354
f 222/1/56 226/1/100 227/1/112 219/1/50
f 296/1/198 298/1/394 263/1/152 290/1/376
f 297/1/362 302/1/199 296/1/198 290/1/376
f 273/1/404 282/1/405 280/1/321 274/1/234
f 246/1/378 3/1/3 252/1/373
f 3/1/3 132/1/24 253/1/27
f 3/1/3 254/1/364 252/1/373
f 3/1/3 253/1/27 254/1/364
f 8/1/142 15/1/83 6/1/81 5/1/330
f 317/1/157 323/1/160 306/1/351 108/1/237
f 235/1/163 244/1/51 219/1/50 227/1/112
f 304/1/406 305/1/407 262/1/395 298/1/394
f 296/1/198 314/1/188 304/1/406 298/1/394
f 24/1/205 31/1/63 23/1/44 17/1/80
f 194/1/403 201/1/408 185/1/90 187/1/78
f 208/1/331 217/1/57 213/1/53 206/1/409
f 131/1/25 132/1/24 126/1/232 124/1/365
f 242/1/384 264/1/410 243/1/162 235/1/163
f 45/1/38 64/1/165 35/1/21 37/1/23
f 531/1/411 472/1/412 464/1/413 463/1/414
f 265/1/415 266/1/221 243/1/162 264/1/410
f 141/1/255 147/1/208 129/1/207 136/1/228
f 186/1/76 182/1/79 147/1/208 141/1/255
f 126/1/232 110/1/66 117/1/65 124/1/365
f 194/1/403 215/1/230 208/1/331 201/1/408
f 390/1/416 407/1/417 386/1/418 387/1/419
f 304/1/406 320/1/336 310/1/335 305/1/407
f 335/1/420 336/1/186 309/1/185 330/1/338
f 660/1/421 335/1/420 330/1/338 329/1/159
f 455/1/422 461/1/423 460/1/424 454/1/425
f 319/1/187 320/1/336 304/1/406 314/1/188
f 225/1/97 226/1/100 222/1/56 221/1/55
f 659/1/391 665/1/426 335/1/420 660/1/421
f 659/1/391 660/1/421 534/1/427 655/1/392
f 665/1/426 341/1/428 336/1/186 335/1/420
f 341/1/428 342/1/429 319/1/187 336/1/186
f 319/1/187 342/1/429 325/1/333 320/1/336
f 160/1/388 164/1/171 145/1/170 156/1/314
f 24/1/205 49/1/102 48/1/184 40/1/204
f 663/1/430 665/1/426 659/1/391 658/1/393
f 401/1/431 475/1/432 467/1/241 468/1/41
f 395/1/433 481/1/434 401/1/431 394/1/435
f 64/1/165 82/1/132 58/1/105 43/1/62
f 239/1/390 240/1/380 232/1/98 231/1/381
f 321/1/145 338/1/436 327/1/312 322/1/146
f 6/1/81 2/1/2 1/1/1 5/1/330
f 206/1/409 213/1/53 212/1/52 205/1/254
f 201/1/408 208/1/331 206/1/409 199/1/201
f 668/1/437 674/1/438 349/1/439 670/1/440
f 668/1/437 670/1/440 663/1/430 664/1/441
f 530/1/442 580/1/443 581/1/444 574/1/445
f 617/1/396 609/1/399 599/1/266 616/1/446
f 285/1/84 294/1/87 278/1/447 279/1/322
f 291/1/361 297/1/362 290/1/376 284/1/371
f 204/1/448 268/1/236 218/1/360 211/1/449
f 303/1/337 302/1/199 297/1/362 299/1/352
f 272/1/235 279/1/322 278/1/447 275/1/359
f 657/1/450 664/1/441 663/1/430 658/1/393
f 262/1/395 264/1/410 242/1/384 256/1/153
f 205/1/254 259/1/253 204/1/448 198/1/202
f 7/1/28 11/1/20 12/1/19 10/1/70
f 663/1/430 670/1/440 341/1/428 665/1/426
f 292/1/339 300/1/353 291/1/361 269/1/370
f 267/1/233 268/1/236 204/1/448 259/1/253
f 251/1/68 271/1/257 267/1/233 259/1/253
f 265/1/415 311/1/451 270/1/218 266/1/221
f 625/1/452 626/1/453 631/1/454 629/1/193
f 565/1/455 566/1/456 558/1/457 557/1/458
f 651/1/459 654/1/346 648/1/345 647/1/460
f 648/1/345 650/1/348 561/1/349 644/1/461
f 661/1/462 664/1/441 657/1/450 656/1/463
f 310/1/335 326/1/334 315/1/464 311/1/451
f 419/1/465 425/1/466 423/1/467 418/1/468
f 165/1/206 173/1/213 179/1/469 172/1/470
f 192/1/203 211/1/449 179/1/469 173/1/213
f 273/1/404 274/1/234 267/1/233 271/1/257
f 401/1/431 468/1/41 392/1/40 394/1/435
f 325/1/333 350/1/471 331/1/472 326/1/334
f 646/1/473 647/1/460 640/1/474 641/1/475
f 603/1/476 656/1/463 651/1/459 652/1/477
f 421/1/478 440/1/479 439/1/480 438/1/402
f 270/1/218 316/1/148 281/1/147 277/1/219
f 115/1/350 125/1/340 116/1/315 109/1/238
f 356/1/481 357/1/482 331/1/472 350/1/471
f 674/1/438 356/1/481 350/1/471 349/1/439
f 185/1/90 201/1/408 199/1/201 180/1/200
f 211/1/449 218/1/360 177/1/483 179/1/469
f 315/1/464 332/1/484 321/1/145 316/1/148
f 532/1/305 540/1/329 525/1/316 524/1/284
f 623/1/485 639/1/486 635/1/487 632/1/488
f 635/1/487 641/1/475 640/1/474 636/1/344
f 206/1/409 205/1/254 198/1/202 199/1/201
f 193/1/77 200/1/354 194/1/403 187/1/78
f 351/1/489 375/1/490 358/1/491 352/1/492
f 337/1/493 338/1/436 321/1/145 332/1/484
f 666/1/494 667/1/495 661/1/462 662/1/496
f 583/1/497 645/1/498 614/1/499 607/1/500
f 478/1/183 470/1/182 462/1/501 460/1/424
f 261/1/26 292/1/339 269/1/370 260/1/363
f 642/1/502 641/1/475 635/1/487 639/1/486
f 516/1/503 517/1/504 439/1/480 510/1/505
f 582/1/506 662/1/496 603/1/476 597/1/507
f 576/1/508 597/1/507 598/1/509 591/1/510
f 324/1/511 347/1/512 312/1/513 318/1/514
f 286/1/174 287/1/177 280/1/321 282/1/405
f 281/1/147 322/1/146 286/1/174 282/1/405
f 671/1/515 674/1/438 668/1/437 667/1/495
f 676/1/516 677/1/517 671/1/515 672/1/518
f 360/1/519 361/1/520 295/1/521 355/1/522
f 488/1/523 495/1/524 494/1/525 489/1/526
f 548/1/527 570/1/528 569/1/300 563/1/303
f 646/1/473 652/1/477 651/1/459 647/1/460
f 623/1/485 626/1/453 619/1/529 618/1/530
f 262/1/395 305/1/407 265/1/415 264/1/410
f 673/1/531 679/1/532 676/1/516 672/1/518
f 673/1/531 672/1/518 666/1/494 669/1/533
f 640/1/474 647/1/460 648/1/345 644/1/461
f 576/1/508 591/1/510 569/1/300 570/1/528
f 343/1/534 344/1/535 327/1/312 338/1/436
f 337/1/493 363/1/536 343/1/534 338/1/436
f 651/1/459 656/1/463 657/1/450 654/1/346
f 562/1/537 675/1/538 673/1/531 669/1/533
f 640/1/474 644/1/461 637/1/342 636/1/344
f 637/1/342 644/1/461 561/1/349 643/1/539
f 593/1/540 613/1/541 612/1/542 606/1/543
f 358/1/491 359/1/544 339/1/545 352/1/492
f 682/1/546 368/1/547 363/1/536 362/1/548
f 190/1/549 442/1/550 195/1/385 189/1/386
f 562/1/537 577/1/551 555/1/279 554/1/278
f 384/1/552 385/1/553 354/1/554 378/1/555
f 678/1/556 683/1/557 681/1/558 679/1/532
f 681/1/558 685/1/559 368/1/547 682/1/546
f 555/1/279 577/1/551 576/1/508 570/1/528
f 331/1/472 332/1/484 315/1/464 326/1/334
f 598/1/509 649/1/560 590/1/561 591/1/510
f 414/1/562 417/1/563 409/1/564 410/1/565
f 234/1/111 242/1/384 235/1/163 227/1/112
f 72/1/252 80/1/120 59/1/245 66/1/244
f 562/1/537 669/1/533 582/1/506 577/1/551
f 590/1/561 645/1/498 583/1/497 584/1/301
f 331/1/472 357/1/482 337/1/493 332/1/484
f 642/1/502 649/1/560 646/1/473 641/1/475
f 421/1/478 427/1/320 405/1/566 415/1/567
f 281/1/147 282/1/405 273/1/404 277/1/219
f 544/1/568 675/1/538 562/1/537 554/1/278
f 544/1/568 680/1/569 678/1/556 675/1/538
f 661/1/462 667/1/495 668/1/437 664/1/441
f 671/1/515 677/1/517 356/1/481 674/1/438
f 635/1/487 636/1/344 634/1/343 632/1/488
f 544/1/568 554/1/278 536/1/277 537/1/570
f 395/1/433 394/1/435 388/1/571 393/1/572
f 519/1/573 680/1/569 544/1/568 537/1/570
f 473/1/323 560/1/195 559/1/194 551/1/574
f 386/1/418 397/1/382 380/1/271 381/1/575
f 499/1/576 683/1/557 678/1/556 680/1/569
f 614/1/499 639/1/486 623/1/485 618/1/530
f 512/1/577 537/1/570 536/1/277 529/1/578
f 519/1/573 537/1/570 512/1/577 511/1/579
f 527/1/580 549/1/280 548/1/527 541/1/581
f 536/1/277 549/1/280 527/1/580 529/1/578
f 634/1/343 633/1/582 631/1/454 632/1/488
f 585/1/583 606/1/543 605/1/584 601/1/265
f 460/1/424 462/1/501 428/1/585 454/1/425
f 408/1/586 685/1/559 681/1/558 683/1/557
f 358/1/491 383/1/587 364/1/291 359/1/544
f 293/1/176 308/1/85 285/1/84 287/1/177
f 568/1/196 630/1/588 625/1/452 629/1/193
f 624/1/589 628/1/590 621/1/591 612/1/542
f 521/1/592 611/1/593 610/1/398 608/1/594
f 465/1/242 560/1/195 473/1/323 466/1/324
f 602/1/595 613/1/541 593/1/540 594/1/596
f 209/1/268 223/1/251 67/1/246 210/1/124
f 619/1/529 626/1/453 625/1/452 624/1/589
f 485/1/113 546/1/129 545/1/128 538/1/287
f 625/1/452 630/1/588 628/1/590 624/1/589
f 463/1/414 458/1/341 448/1/597 457/1/598
f 388/1/571 389/1/292 364/1/291 383/1/587
f 575/1/599 630/1/588 568/1/196 567/1/243
f 652/1/477 598/1/509 597/1/507 603/1/476
f 456/1/600 531/1/411 463/1/414 457/1/598
f 678/1/556 679/1/532 673/1/531 675/1/538
f 409/1/564 417/1/563 416/1/601 415/1/567
f 614/1/499 618/1/530 602/1/595 607/1/500
f 514/1/602 608/1/594 595/1/603 596/1/604
f 603/1/476 662/1/496 661/1/462 656/1/463
f 583/1/497 607/1/500 571/1/605 578/1/606
f 552/1/126 546/1/129 479/1/258 551/1/574
f 564/1/302 584/1/301 583/1/497 578/1/606
f 377/1/607 378/1/555 348/1/608 373/1/609
f 555/1/279 570/1/528 548/1/527 549/1/280
f 472/1/412 567/1/243 465/1/242 464/1/413
f 617/1/396 620/1/610 588/1/611 615/1/397
f 557/1/458 578/1/606 571/1/605 565/1/455
f 548/1/527 563/1/303 542/1/247 541/1/581
f 542/1/247 563/1/303 564/1/302 556/1/248
f 581/1/444 627/1/612 575/1/599 574/1/445
f 463/1/414 464/1/413 245/1/332 458/1/341
f 485/1/113 538/1/287 490/1/275 486/1/114
f 547/1/328 655/1/392 534/1/427 540/1/329
f 473/1/323 551/1/574 479/1/258 474/1/296
f 542/1/247 543/1/250 535/1/613 541/1/581
f 527/1/580 541/1/581 535/1/613 528/1/614
f 564/1/302 578/1/606 557/1/458 556/1/248
f 530/1/442 574/1/445 472/1/412 531/1/411
f 622/1/615 627/1/612 581/1/444 620/1/610
f 530/1/442 531/1/411 456/1/600 523/1/616
f 434/1/617 454/1/425 428/1/585 429/1/618
f 448/1/597 458/1/341 236/1/297 449/1/355
f 229/1/281 238/1/298 237/1/295 230/1/282
f 310/1/335 311/1/451 265/1/415 305/1/407
f 605/1/584 621/1/591 622/1/615 616/1/446
f 582/1/506 597/1/507 576/1/508 577/1/551
f 582/1/506 669/1/533 666/1/494 662/1/496
f 614/1/499 645/1/498 642/1/502 639/1/486
f 571/1/605 594/1/596 572/1/619 565/1/455
f 572/1/619 573/1/620 566/1/456 565/1/455
f 456/1/600 457/1/598 441/1/621 452/1/401
f 441/1/621 457/1/598 448/1/597 442/1/550
f 195/1/385 449/1/355 202/1/306 196/1/369
f 412/1/319 433/1/318 190/1/549 188/1/325
f 520/1/622 529/1/578 527/1/580 528/1/614
f 512/1/577 529/1/578 520/1/622 513/1/623
f 572/1/619 587/1/624 579/1/625 573/1/620
f 572/1/619 594/1/596 593/1/540 587/1/624
f 349/1/439 350/1/471 325/1/333 342/1/429
f 354/1/554 355/1/522 312/1/513 347/1/512
f 432/1/317 452/1/401 441/1/621 433/1/318
f 402/1/42 437/1/192 376/1/626 396/1/43
f 444/1/191 450/1/627 435/1/628 437/1/192
f 157/1/172 175/1/629 166/1/389 158/1/173
f 579/1/625 587/1/624 585/1/583 586/1/630
f 593/1/540 606/1/543 585/1/583 587/1/624
f 170/1/273 175/1/629 157/1/172 164/1/171
f 170/1/273 391/1/272 183/1/326 175/1/629
f 512/1/577 513/1/623 506/1/631 511/1/579
f 585/1/583 601/1/265 592/1/264 586/1/630
f 104/1/122 123/1/29 111/1/32 105/1/121
f 386/1/418 407/1/417 403/1/632 397/1/382
f 72/1/252 230/1/282 85/1/119 80/1/120
f 500/1/633 511/1/579 506/1/631 501/1/634
f 619/1/529 613/1/541 602/1/595 618/1/530
f 479/1/258 480/1/116 85/1/119 474/1/296
f 179/1/469 177/1/483 171/1/635 172/1/470
f 684/1/636 500/1/633 495/1/524 492/1/637
f 499/1/576 684/1/636 492/1/637 493/1/638
f 500/1/633 501/1/634 494/1/525 495/1/524
f 149/1/307 163/1/310 155/1/313 150/1/149
f 149/1/307 150/1/149 119/1/136 142/1/311
f 408/1/586 493/1/638 400/1/639 399/1/640
f 400/1/639 393/1/572 382/1/641 399/1/640
f 519/1/573 684/1/636 499/1/576 680/1/569
f 368/1/547 369/1/642 343/1/534 363/1/536
f 605/1/584 616/1/446 599/1/266 601/1/265
f 571/1/605 607/1/500 602/1/595 594/1/596
f 143/1/643 169/1/308 149/1/307 142/1/311
f 497/1/283 498/1/224 69/1/223 491/1/276
f 569/1/300 591/1/510 590/1/561 584/1/301
f 598/1/509 652/1/477 646/1/473 649/1/560
f 488/1/523 489/1/526 482/1/644 481/1/434
f 622/1/615 620/1/610 617/1/396 616/1/446
f 599/1/266 609/1/399 604/1/645 600/1/267
f 631/1/454 633/1/582 559/1/194 629/1/193
f 681/1/558 682/1/546 676/1/516 679/1/532
f 623/1/485 632/1/488 631/1/454 626/1/453
f 588/1/611 620/1/610 581/1/444 580/1/443
f 360/1/519 387/1/419 366/1/646 361/1/520
f 559/1/194 633/1/582 552/1/126 551/1/574
f 395/1/433 487/1/647 488/1/523 481/1/434
f 125/1/340 131/1/25 124/1/365 116/1/315
f 441/1/621 442/1/550 190/1/549 433/1/318
f 676/1/516 682/1/546 362/1/548 677/1/517
f 522/1/648 580/1/443 530/1/442 523/1/616
f 143/1/643 172/1/470 171/1/635 169/1/308
f 657/1/450 658/1/393 653/1/347 654/1/346
f 101/1/215 117/1/65 94/1/64 93/1/216
f 445/1/400 523/1/616 456/1/600 452/1/401
f 351/1/489 352/1/492 333/1/649 344/1/535
f 448/1/597 449/1/355 195/1/385 442/1/550
f 165/1/206 172/1/470 143/1/643 137/1/189
f 171/1/635 176/1/358 168/1/309 169/1/308
f 178/1/650 176/1/358 171/1/635 177/1/483
f 218/1/360 275/1/359 178/1/650 177/1/483
f 670/1/440 349/1/439 342/1/429 341/1/428
f 482/1/644 475/1/432 401/1/431 481/1/434
f 106/1/212 114/1/178 103/1/156 99/1/95
f 388/1/571 394/1/435 392/1/40 389/1/292
f 376/1/626 437/1/192 435/1/628 431/1/651
f 127/1/150 139/1/117 121/1/14 120/1/137
f 183/1/326 188/1/325 166/1/389 175/1/629
f 167/1/652 381/1/575 380/1/271 379/1/274
f 167/1/652 379/1/274 160/1/388 161/1/387
f 367/1/653 167/1/652 161/1/387 162/1/654
f 178/1/650 283/1/655 184/1/356 176/1/358
f 168/1/309 191/1/357 162/1/654 163/1/310
f 525/1/316 540/1/329 534/1/427 526/1/158
f 143/1/643 142/1/311 118/1/155 137/1/189
f 435/1/628 450/1/627 443/1/656 436/1/657
f 108/1/237 306/1/351 115/1/350 109/1/238
f 155/1/313 163/1/310 162/1/654 161/1/387
f 392/1/40 396/1/43 370/1/293 389/1/292
f 370/1/293 396/1/43 376/1/626 371/1/658
f 443/1/656 451/1/659 434/1/617 436/1/657
f 634/1/343 638/1/127 552/1/126 633/1/582
f 398/1/383 404/1/327 183/1/326 391/1/272
f 197/1/660 367/1/653 162/1/654 191/1/357
f 643/1/539 561/1/349 553/1/304 539/1/288
f 522/1/648 589/1/661 588/1/611 580/1/443
f 637/1/342 643/1/539 545/1/128 638/1/127
f 653/1/347 655/1/392 547/1/328 650/1/348
f 430/1/662 436/1/657 434/1/617 429/1/618
f 451/1/659 455/1/422 454/1/425 434/1/617
f 405/1/566 427/1/320 412/1/319 404/1/327
f 398/1/383 406/1/663 405/1/566 404/1/327
f 372/1/664 431/1/651 430/1/662 426/1/665
f 376/1/626 431/1/651 372/1/664 371/1/658
f 345/1/666 346/1/667 324/1/511 340/1/668
f 246/1/378 247/1/377 240/1/380 239/1/390
f 278/1/447 283/1/655 178/1/650 275/1/359
f 421/1/478 438/1/402 432/1/317 427/1/320
f 610/1/398 611/1/593 604/1/645 609/1/399
f 372/1/664 373/1/609 353/1/669 371/1/658
f 370/1/293 371/1/658 353/1/669 365/1/294
f 16/1/82 49/1/102 24/1/205 17/1/80
f 439/1/480 517/1/504 445/1/400 438/1/402
f 339/1/545 340/1/668 313/1/670 334/1/671
f 364/1/291 365/1/294 345/1/666 359/1/544
f 345/1/666 365/1/294 353/1/669 346/1/667
f 374/1/672 685/1/559 408/1/586 399/1/640
f 453/1/367 503/1/366 446/1/673 447/1/674
f 123/1/29 104/1/122 103/1/156 122/1/180
f 677/1/517 362/1/548 357/1/482 356/1/481
f 516/1/503 589/1/661 522/1/648 517/1/504
f 372/1/664 426/1/665 377/1/607 373/1/609
f 377/1/607 426/1/665 424/1/675 420/1/676
f 534/1/427 660/1/421 329/1/159 526/1/158
f 258/1/220 277/1/219 273/1/404 271/1/257
f 243/1/162 266/1/221 258/1/220 250/1/69
f 516/1/503 596/1/604 595/1/603 589/1/661
f 366/1/646 367/1/653 197/1/660 361/1/520
f 610/1/398 615/1/397 595/1/603 608/1/594
f 353/1/669 373/1/609 348/1/608 346/1/667
f 545/1/128 643/1/539 539/1/288 538/1/287
f 483/1/166 504/1/260 502/1/259 496/1/167
f 428/1/585 462/1/501 423/1/467 425/1/466
f 470/1/182 471/1/677 423/1/467 462/1/501
f 348/1/608 347/1/512 324/1/511 346/1/667
f 507/1/678 510/1/505 446/1/673 503/1/366
f 505/1/256 524/1/284 525/1/316 518/1/290
f 477/1/168 496/1/167 453/1/367 484/1/181
f 465/1/242 466/1/324 245/1/332 464/1/413
f 575/1/599 567/1/243 472/1/412 574/1/445
f 509/1/261 515/1/679 514/1/602 508/1/262
f 521/1/592 608/1/594 514/1/602 515/1/679
f 422/1/680 484/1/181 453/1/367 447/1/674
f 470/1/182 484/1/181 422/1/680 471/1/677
f 424/1/675 425/1/466 419/1/465 420/1/676
f 184/1/356 289/1/681 197/1/660 191/1/357
f 502/1/259 508/1/262 507/1/678 503/1/366
f 596/1/604 507/1/678 508/1/262 514/1/602
f 507/1/678 596/1/604 516/1/503 510/1/505
f 471/1/677 422/1/680 417/1/563 414/1/562
f 423/1/467 471/1/677 414/1/562 418/1/468
f 590/1/561 649/1/560 642/1/502 645/1/498
f 362/1/548 363/1/536 337/1/493 357/1/482
f 424/1/675 429/1/618 428/1/585 425/1/466
f 411/1/682 418/1/468 414/1/562 410/1/565
f 419/1/465 418/1/468 411/1/682 413/1/683
f 153/1/368 203/1/269 63/1/123 146/1/286
f 422/1/680 447/1/674 416/1/601 417/1/563
f 416/1/601 447/1/674 446/1/673 440/1/479
f 612/1/542 621/1/591 605/1/584 606/1/543
f 416/1/601 440/1/479 421/1/478 415/1/567
f 59/1/245 73/1/239 52/1/225 51/1/227
f 403/1/632 410/1/565 409/1/564 406/1/663
f 403/1/632 406/1/663 398/1/383 397/1/382
f 403/1/632 407/1/417 411/1/682 410/1/565
f 409/1/564 415/1/567 405/1/566 406/1/663
f 145/1/170 152/1/143 133/1/118 139/1/117
f 390/1/416 413/1/683 411/1/682 407/1/417
f 435/1/628 436/1/657 430/1/662 431/1/651
f 366/1/646 387/1/419 386/1/418 381/1/575
f 366/1/646 381/1/575 167/1/652 367/1/653
f 595/1/603 615/1/397 588/1/611 589/1/661
f 390/1/416 387/1/419 360/1/519 385/1/553
f 384/1/552 413/1/683 390/1/416 385/1/553
f 384/1/552 420/1/676 419/1/465 413/1/683
f 313/1/670 318/1/514 301/1/86 308/1/85
f 377/1/607 420/1/676 384/1/552 378/1/555
f 354/1/554 385/1/553 360/1/519 355/1/522
f 315/1/464 316/1/148 270/1/218 311/1/451
f 295/1/521 361/1/520 197/1/660 289/1/681
f 430/1/662 429/1/618 424/1/675 426/1/665
f 348/1/608 378/1/555 354/1/554 347/1/512
f 500/1/633 684/1/636 519/1/573 511/1/579
f 312/1/513 355/1/522 295/1/521 307/1/684
f 628/1/590 627/1/612 622/1/615 621/1/591
f 288/1/685 289/1/681 184/1/356 283/1/655
f 288/1/685 307/1/684 295/1/521 289/1/681
f 301/1/86 318/1/514 312/1/513 307/1/684
f 301/1/86 307/1/684 288/1/685 294/1/87
f 278/1/447 294/1/87 288/1/685 283/1/655
f 89/1/49 96/1/96 88/1/103 84/1/101
f 204/1/448 211/1/449 192/1/203 198/1/202
f 619/1/529 624/1/589 612/1/542 613/1/541
f 313/1/670 340/1/668 324/1/511 318/1/514
f 127/1/150 156/1/314 145/1/170 139/1/117
f 469/1/375 478/1/183 460/1/424 461/1/423
f 280/1/321 287/1/177 285/1/84 279/1/322
f 339/1/545 359/1/544 345/1/666 340/1/668
f 492/1/637 495/1/524 488/1/523 487/1/647
f 293/1/176 334/1/671 313/1/670 308/1/85
f 113/1/104 120/1/137 121/1/14 83/1/17
f 557/1/458 558/1/457 550/1/249 556/1/248
f 333/1/649 334/1/671 293/1/176 328/1/175
f 333/1/649 352/1/492 339/1/545 334/1/671
f 446/1/673 510/1/505 439/1/480 440/1/479
f 666/1/494 672/1/518 671/1/515 667/1/495
f 327/1/312 344/1/535 333/1/649 328/1/175
f 628/1/590 630/1/588 575/1/599 627/1/612
f 190/1/549 189/1/386 166/1/389 188/1/325
f 343/1/534 369/1/642 351/1/489 344/1/535
f 683/1/557 499/1/576 493/1/638 408/1/586
f 382/1/641 383/1/587 358/1/491 375/1/490
f 400/1/639 487/1/647 395/1/433 393/1/572
f 382/1/641 393/1/572 388/1/571 383/1/587
f 374/1/672 375/1/490 351/1/489 369/1/642
f 374/1/672 399/1/640 382/1/641 375/1/490
f 522/1/648 523/1/616 445/1/400 517/1/504
f 685/1/559 374/1/672 369/1/642 368/1/547
f 686/1/686 687/1/687 688/1/688
f 686/1/686 689/1/689 687/1/687
f 688/1/688 687/1/687 690/1/690
f 689/1/689 691/1/691 687/1/687
f 690/1/690 687/1/687 692/1/692
f 691/1/691 693/1/693 687/1/687
f 692/1/692 687/1/687 694/1/694
f 693/1/693 695/1/695 687/1/687
f 694/1/694 687/1/687 696/1/696
f 695/1/695 697/1/697 687/1/687
f 696/1/696 687/1/687 698/1/698
f 697/1/697 699/1/699 687/1/687
f 698/1/698 687/1/687 700/1/700
f 699/1/699 701/1/701 687/1/687
f 700/1/700 687/1/687 702/1/702
f 701/1/701 703/1/703 687/1/687
f 702/1/702 687/1/687 704/1/704
f 703/1/703 705/1/705 687/1/687
f 704/1/704 687/1/687 706/1/706
f 705/1/705 707/1/707 687/1/687
f 706/1/706 687/1/687 708/1/708
f 707/1/707 709/1/709 687/1/687
f 708/1/708 687/1/687 710/1/710
f 709/1/709 711/1/711 687/1/687
f 710/1/710 687/1/687 712/1/712
f 711/1/711 713/1/713 687/1/687
f 712/1/712 687/1/687 714/1/714
f 713/1/713 715/1/715 687/1/687
f 714/1/714 687/1/687 716/1/716
f 715/1/715 717/1/717 687/1/687
f 687/1/687 718/1/718 719/1/719
f 687/1/687 719/1/719 720/1/720
f 687/1/687 720/1/720 721/1/721
f 687/1/687 721/1/721 716/1/716
f 687/1/687 717/1/717 722/1/722
f 687/1/687 722/1/722 718/1/718
f 400/1/639 493/1/638 492/1/637 487/1/647
