# Blender 4.3.2
# www.blender.org
o hair.021
v 6.606837 0.636653 0.018724
v 6.608726 0.629934 0.019372
v 6.609886 0.636215 0.025709
v 6.606064 0.632466 0.014500
v 6.600740 0.637530 0.004756
v 6.611571 0.630214 0.025089
v 6.605290 0.628278 0.010275
v 6.605573 0.626235 0.003197
v 6.607565 0.623652 0.013035
v 6.612656 0.624415 0.024177
v 6.606953 0.623007 0.002751
v 6.610385 0.617609 0.018238
v 6.609582 0.623944 0.018856
v 6.608058 0.616347 0.007065
v 6.608785 0.616643 0.012593
v 6.613547 0.618995 0.023866
v 6.608462 0.616486 0.001749
v 6.614438 0.613813 0.023883
v 6.611205 0.611992 0.018548
v 6.609170 0.609972 0.012205
v 6.608879 0.610978 0.006441
v 6.609971 0.609966 0.000746
v 6.611518 0.606713 0.019464
v 6.614786 0.608716 0.024178
v 6.609444 0.604541 0.014752
v 6.608982 0.605839 0.008158
v 6.608819 0.602065 0.010536
v 6.610551 0.606539 0.002674
v 6.615569 0.606409 0.001497
v 6.621446 0.611463 0.000642
v 6.609136 0.599701 0.016766
v 6.611216 0.601752 0.020792
v 6.614467 0.603687 0.024688
v 6.610389 0.603474 0.004657
v 6.610082 0.599526 0.007048
v 6.609537 0.595412 0.009782
v 6.608490 0.597633 0.012963
v 6.621463 0.606692 0.002033
v 6.621598 0.601867 0.003775
v 6.615463 0.602264 0.003377
v 6.610301 0.597125 0.022273
v 6.613353 0.598706 0.025349
v 6.614867 0.597844 0.005816
v 6.607808 0.593692 0.015628
v 6.620706 0.596961 0.006219
v 6.608366 0.595383 0.018955
v 6.607257 0.591572 0.021375
v 6.608946 0.593061 0.023796
v 6.611261 0.593723 0.026149
v 6.618848 0.592491 0.009492
v 6.613739 0.593589 0.008871
v 6.607322 0.589777 0.025268
v 6.605926 0.588251 0.024079
v 6.605870 0.587902 0.021585
v 6.606895 0.590392 0.018509
v 6.608009 0.588688 0.027080
v 6.612047 0.589982 0.012583
v 6.616089 0.588950 0.013708
v 6.608633 0.591741 0.012902
v 6.604157 0.583662 0.028045
v 6.607397 0.588609 0.016602
v 6.605875 0.586120 0.021048
v 6.612586 0.586276 0.018397
v 6.610050 0.587203 0.016547
v 6.608023 0.585427 0.020353
v 6.608513 0.584656 0.023241
v 6.585607 0.629592 0.029730
v 6.570577 0.637530 0.004756
v 6.593777 0.631521 0.028806
v 6.598498 0.632966 0.026883
v 6.601101 0.633972 0.024748
v 6.602995 0.634906 0.022739
v 6.604987 0.635737 0.020594
v 6.590587 0.627613 0.037247
v 6.580509 0.629476 0.026710
v 6.597528 0.630611 0.034810
v 6.600972 0.632133 0.032768
v 6.604187 0.633581 0.030438
v 6.607110 0.634924 0.028080
v 6.585477 0.625450 0.037688
v 6.576553 0.627935 0.026437
v 6.579543 0.623139 0.037280
v 6.571768 0.626206 0.024849
v 6.563088 0.623894 0.018795
v 6.561483 0.623523 0.017358
v 6.565223 0.624418 0.020510
v 6.568417 0.625251 0.022782
v 6.572365 0.620546 0.034898
v 6.559346 0.617077 0.025816
v 6.556938 0.616521 0.023660
v 6.567338 0.619113 0.031797
v 6.562548 0.617864 0.028389
v 6.564372 0.616866 0.003414
v 6.565181 0.619153 0.002081
v 6.565283 0.619791 0.009347
v 6.562637 0.610922 0.011645
v 6.560766 0.606539 0.002674
v 6.561346 0.609966 0.000746
v 6.559799 0.606713 0.019464
v 6.562335 0.605839 0.008158
v 6.562498 0.602065 0.010536
v 6.561873 0.604541 0.014752
v 6.560928 0.603474 0.004657
v 6.555748 0.606409 0.001497
v 6.549871 0.611463 0.000642
v 6.556531 0.608716 0.024178
v 6.556850 0.603687 0.024688
v 6.560101 0.601752 0.020792
v 6.562181 0.599701 0.016766
v 6.555854 0.602264 0.003377
v 6.556450 0.597844 0.005816
v 6.561235 0.599526 0.007048
v 6.549719 0.601867 0.003775
v 6.549854 0.606692 0.002033
v 6.561017 0.597125 0.022273
v 6.557964 0.598706 0.025349
v 6.562951 0.595383 0.018955
v 6.563509 0.593692 0.015628
v 6.562828 0.597632 0.012963
v 6.561780 0.595412 0.009782
v 6.550611 0.596961 0.006219
v 6.560056 0.593723 0.026149
v 6.562371 0.593061 0.023796
v 6.564060 0.591572 0.021375
v 6.564422 0.590392 0.018509
v 6.563920 0.588609 0.016602
v 6.562685 0.591741 0.012902
v 6.557578 0.593589 0.008871
v 6.559270 0.589982 0.012583
v 6.552469 0.592491 0.009492
v 6.563995 0.589777 0.025268
v 6.563308 0.588688 0.027080
v 6.565391 0.588251 0.024079
v 6.565447 0.587902 0.021585
v 6.561267 0.587203 0.016547
v 6.558731 0.586277 0.018397
v 6.555228 0.588950 0.013708
v 6.567160 0.583662 0.028045
v 6.565442 0.586120 0.021048
v 6.563294 0.585427 0.020353
v 6.562804 0.584656 0.023241
v 6.582505 0.651760 -0.018943
v 6.581350 0.655060 -0.013043
v 6.583455 0.655002 -0.013625
v 6.579506 0.651883 -0.018043
v 6.585659 0.651731 -0.019281
v 6.581488 0.646972 -0.024137
v 6.585659 0.646826 -0.024596
v 6.582997 0.657430 -0.005553
v 6.583791 0.657377 -0.006110
v 6.579448 0.655114 -0.012048
v 6.584724 0.657378 -0.006274
v 6.585659 0.654983 -0.013821
v 6.576803 0.652065 -0.016638
v 6.577541 0.647279 -0.022913
v 6.588812 0.651760 -0.018943
v 6.587862 0.655002 -0.013625
v 6.580682 0.642462 -0.027522
v 6.585659 0.658166 -0.000743
v 6.577779 0.655270 -0.010477
v 6.574410 0.652391 -0.014429
v 6.585659 0.657362 -0.006430
v 6.586593 0.657378 -0.006274
v 6.574055 0.647583 -0.021050
v 6.576008 0.642808 -0.026189
v 6.571934 0.643218 -0.024091
v 6.589967 0.655060 -0.013043
v 6.582206 0.657457 -0.004989
v 6.581682 0.657562 -0.003923
v 6.576391 0.655545 -0.008117
v 6.587526 0.657377 -0.006110
v 6.570937 0.648048 -0.018239
v 6.574772 0.638561 -0.028587
v 6.580025 0.638217 -0.029980
v 6.591811 0.651883 -0.018043
v 6.591869 0.655114 -0.012048
v 6.588320 0.657430 -0.005553
v 6.585659 0.642305 -0.028000
v 6.585659 0.638062 -0.030434
v 6.579463 0.633970 -0.031811
v 6.589829 0.646972 -0.024137
v 6.594514 0.652065 -0.016638
v 6.593776 0.647279 -0.022913
v 6.593538 0.655270 -0.010477
v 6.589111 0.657457 -0.004989
v 6.590635 0.642462 -0.027522
v 6.585659 0.633831 -0.032247
v 6.591854 0.633970 -0.031811
v 6.591292 0.638217 -0.029980
v 6.597262 0.647583 -0.021050
v 6.596907 0.652391 -0.014429
v 6.595309 0.642808 -0.026189
v 6.599383 0.643218 -0.024091
v 6.594926 0.655545 -0.008117
v 6.589635 0.657562 -0.003923
v 6.585659 0.628935 -0.033695
v 6.596545 0.638561 -0.028587
v 6.600380 0.648048 -0.018239
v 6.598964 0.652875 -0.011068
v 6.603008 0.643705 -0.020791
v 6.601018 0.638967 -0.026217
v 6.596010 0.655873 -0.005077
v 6.590157 0.657657 -0.002853
v 6.578968 0.629044 -0.033257
v 6.572792 0.629322 -0.031776
v 6.573722 0.634293 -0.030377
v 6.606322 0.644290 -0.015878
v 6.603162 0.648625 -0.013960
v 6.600446 0.653342 -0.007127
v 6.604957 0.639463 -0.022532
v 6.602393 0.634704 -0.027818
v 6.590317 0.657775 -0.001648
v 6.578605 0.623753 -0.034350
v 6.568924 0.634704 -0.027818
v 6.570299 0.638967 -0.026217
v 6.605232 0.649167 -0.008920
v 6.597595 0.634293 -0.030377
v 6.585659 0.623672 -0.034803
v 6.592712 0.623753 -0.034350
v 6.592350 0.629044 -0.033257
v 6.566360 0.639463 -0.022532
v 6.568309 0.643705 -0.020791
v 6.598525 0.629322 -0.031776
v 6.585659 0.618244 -0.035575
v 6.564995 0.644290 -0.015878
v 6.562696 0.640082 -0.017209
v 6.560883 0.635882 -0.018259
v 6.564759 0.635224 -0.023866
v 6.568155 0.648625 -0.013960
v 6.572353 0.652875 -0.011068
v 6.562464 0.644871 -0.010154
v 6.566085 0.649167 -0.008920
v 6.559878 0.640690 -0.011039
v 6.563333 0.630246 -0.024949
v 6.567696 0.629716 -0.029080
v 6.570871 0.653342 -0.007127
v 6.561189 0.645343 -0.004422
v 6.565011 0.649639 -0.003898
v 6.570151 0.653726 -0.003242
v 6.566751 0.624297 -0.029998
v 6.572101 0.623970 -0.032811
v 6.574942 0.656143 -0.002634
v 6.575307 0.655873 -0.005077
v 6.581160 0.657657 -0.002853
v 6.564697 0.650105 0.001138
v 6.569994 0.654102 0.000592
v 6.571641 0.618473 -0.033520
v 6.578372 0.618302 -0.035108
v 6.574863 0.656413 0.000051
v 6.580999 0.657783 -0.001648
v 6.575075 0.656670 0.002691
v 6.570251 0.654449 0.004420
v 6.578266 0.612897 -0.035546
v 6.592945 0.618302 -0.035108
v 6.593051 0.612897 -0.035546
v 6.585659 0.612854 -0.036011
v 6.581033 0.658019 0.000734
v 6.580844 0.657887 -0.000443
v 6.575628 0.656897 0.005120
v 6.581229 0.658124 0.001914
v 6.571099 0.654857 0.007830
v 6.564922 0.650615 0.006237
v 6.599676 0.618473 -0.033520
v 6.599216 0.623970 -0.032811
v 6.585659 0.607437 -0.036052
v 6.581462 0.658178 0.002367
v 6.576236 0.657045 0.006573
v 6.561018 0.646377 0.007059
v 6.565600 0.651086 0.010722
v 6.560824 0.645809 0.001307
v 6.604566 0.624297 -0.029998
v 6.603621 0.629716 -0.029080
v 6.576850 0.657149 0.007916
v 6.581795 0.658233 0.002873
v 6.572017 0.655115 0.010015
v 6.572938 0.655296 0.011837
v 6.558106 0.641590 0.001327
v 6.558499 0.641148 -0.004840
v 6.607984 0.630246 -0.024949
v 6.606558 0.635224 -0.023866
v 6.582118 0.658282 0.003432
v 6.566669 0.651411 0.013902
v 6.556527 0.636993 -0.005225
v 6.557921 0.636523 -0.011774
v 6.610435 0.635882 -0.018259
v 6.608622 0.640082 -0.017209
v 6.561737 0.646942 0.012203
v 6.562989 0.647372 0.016064
v 6.568102 0.651733 0.016349
v 6.559316 0.630933 -0.019162
v 6.556290 0.631611 -0.012468
v 6.611439 0.640690 -0.011039
v 6.608853 0.644871 -0.010154
v 6.558232 0.642147 0.007458
v 6.574169 0.655470 0.013555
v 6.558016 0.625449 -0.019865
v 6.562192 0.624775 -0.025740
v 6.610128 0.645343 -0.004422
v 6.606307 0.649639 -0.003898
v 6.601166 0.653726 -0.003242
v 6.556054 0.638050 0.007629
v 6.555823 0.637565 0.001241
v 6.577641 0.657258 0.009152
v 6.561331 0.619184 -0.026284
v 6.566079 0.618749 -0.030618
v 6.596375 0.656143 -0.002634
v 6.554052 0.632770 0.000997
v 6.554937 0.632118 -0.005663
v 6.578583 0.657384 0.010321
v 6.582369 0.658311 0.003832
v 6.565669 0.613362 -0.030989
v 6.571406 0.613056 -0.033942
v 6.596452 0.656410 0.000052
v 6.553553 0.626674 -0.006147
v 6.583103 0.658377 0.004347
v 6.571381 0.607635 -0.033980
v 6.578265 0.607472 -0.035587
v 6.590474 0.657893 -0.000444
v 6.601323 0.654102 0.000592
v 6.596210 0.656577 0.002695
v 6.583840 0.658413 0.004862
v 6.579936 0.657491 0.011434
v 6.581663 0.657584 0.012338
v 6.578347 0.601974 -0.035158
v 6.590282 0.658009 0.000735
v 6.601066 0.654449 0.004420
v 6.606620 0.650105 0.001138
v 6.595579 0.656834 0.005285
v 6.584749 0.658447 0.005051
v 6.583604 0.657672 0.012882
v 6.580063 0.655723 0.018261
v 6.575644 0.655544 0.015404
v 6.590088 0.658124 0.001914
v 6.610493 0.645809 0.001306
v 6.612818 0.641148 -0.004840
v 6.585659 0.658450 0.005240
v 6.577704 0.655641 0.017005
v 6.572355 0.652303 0.020758
v 6.569997 0.652027 0.018606
v 6.589520 0.658218 0.002874
v 6.614790 0.636993 -0.005225
v 6.613211 0.641590 0.001327
v 6.613396 0.636523 -0.011774
v 6.575202 0.652551 0.022883
v 6.566804 0.648220 0.022140
v 6.564649 0.647813 0.019204
v 6.594423 0.657086 0.007827
v 6.600160 0.654822 0.008195
v 6.615027 0.631611 -0.012468
v 6.612001 0.630933 -0.019162
v 6.573040 0.649107 0.027618
v 6.578446 0.652764 0.024589
v 6.562038 0.643791 0.021092
v 6.560229 0.643250 0.017387
v 6.606377 0.650596 0.006244
v 6.613301 0.625449 -0.019865
v 6.609125 0.624775 -0.025740
v 6.569547 0.648653 0.024937
v 6.558907 0.642739 0.013012
v 6.558040 0.639214 0.018168
v 6.605317 0.651160 0.011264
v 6.610298 0.646378 0.007071
v 6.609986 0.619184 -0.026284
v 6.605238 0.618749 -0.030618
v 6.564427 0.644300 0.024585
v 6.598334 0.655202 0.011848
v 6.605648 0.613362 -0.030989
v 6.599911 0.613056 -0.033942
v 6.562586 0.640498 0.026286
v 6.567463 0.644884 0.027954
v 6.559977 0.639843 0.022324
v 6.592945 0.657300 0.009983
v 6.599936 0.607635 -0.033980
v 6.593052 0.607472 -0.035587
v 6.558303 0.635228 0.023118
v 6.556721 0.638628 0.013405
v 6.588947 0.658295 0.003831
v 6.592970 0.601974 -0.035158
v 6.585659 0.601932 -0.035641
v 6.577040 0.649511 0.029774
v 6.571437 0.645460 0.031138
v 6.555071 0.633833 0.013492
v 6.588213 0.658370 0.004347
v 6.591373 0.657444 0.011426
v 6.585659 0.596498 -0.034737
v 6.581293 0.649782 0.030983
v 6.575989 0.645960 0.033695
v 6.570262 0.641878 0.033694
v 6.565926 0.641211 0.030109
v 6.556225 0.634495 0.018511
v 6.596026 0.655478 0.014925
v 6.580396 0.642758 0.038124
v 6.580777 0.646280 0.035149
v 6.575210 0.642427 0.036545
v 6.564832 0.637429 0.031565
v 6.561250 0.636344 0.027730
v 6.554542 0.629256 0.018674
v 6.560277 0.630989 0.028590
v 6.557120 0.630003 0.023714
v 6.603086 0.651730 0.016020
v 6.585676 0.646386 0.035541
v 6.585662 0.649882 0.031344
v 6.574629 0.638826 0.038456
v 6.556450 0.624725 0.024011
v 6.600067 0.652222 0.020032
v 6.606750 0.647772 0.018488
v 6.609174 0.647037 0.012829
v 6.581983 0.652929 0.025477
v 6.585659 0.653000 0.025715
v 6.569412 0.638297 0.035403
v 6.593711 0.655633 0.016994
v 6.612032 0.642855 0.013631
v 6.613084 0.642147 0.007473
v 6.585659 0.655843 0.019128
v 6.582793 0.655805 0.018937
v 6.568842 0.635283 0.036325
v 6.564154 0.634682 0.032444
v 6.589654 0.657584 0.012338
v 6.615263 0.638050 0.007645
v 6.615494 0.637565 0.001241
v 6.563816 0.631702 0.032735
v 6.587477 0.658413 0.004862
v 6.617265 0.632770 0.000997
v 6.616380 0.632118 -0.005663
v 6.585659 0.657724 0.013066
v 6.559389 0.625552 0.028430
v 6.563427 0.628913 0.032668
v 6.586567 0.658432 0.005050
v 6.617764 0.626674 -0.006147
v 6.616419 0.626140 -0.013079
v 6.589334 0.652929 0.025477
v 6.588524 0.655805 0.018937
v 6.562862 0.626050 0.032375
v 6.567995 0.629479 0.036635
v 6.587713 0.657672 0.012882
v 6.591254 0.655723 0.018261
v 6.617551 0.620514 -0.013588
v 6.614322 0.619825 -0.020394
v 6.590034 0.649775 0.030963
v 6.568415 0.632460 0.036665
v 6.596638 0.652547 0.022824
v 6.615056 0.614438 -0.020775
v 6.610576 0.613823 -0.026624
v 6.590579 0.646249 0.034919
v 6.592998 0.652763 0.024577
v 6.573921 0.632802 0.039877
v 6.574229 0.635709 0.039510
v 6.610766 0.608477 -0.026682
v 6.605746 0.607982 -0.031016
v 6.590997 0.642699 0.037448
v 6.585697 0.642852 0.038425
v 6.579927 0.635884 0.040973
v 6.580117 0.639108 0.040025
v 6.605477 0.602478 -0.030603
v 6.599766 0.602141 -0.033536
v 6.585729 0.639171 0.040101
v 6.579779 0.632898 0.041180
v 6.585752 0.632927 0.040784
v 6.585756 0.635917 0.040800
v 6.599038 0.649051 0.027161
v 6.599430 0.596765 -0.032602
v 6.592806 0.596563 -0.034231
v 6.585692 0.630058 0.040324
v 6.579624 0.629982 0.040863
v 6.591544 0.635937 0.039114
v 6.573621 0.629848 0.039732
v 6.594472 0.649487 0.029637
v 6.603284 0.648478 0.023462
v 6.592564 0.591392 -0.032775
v 6.585624 0.627728 0.039549
v 6.591533 0.630200 0.038435
v 6.579498 0.627276 0.040131
v 6.573194 0.627097 0.039216
v 6.567645 0.626641 0.036306
v 6.595610 0.645881 0.033088
v 6.609537 0.643698 0.019754
v 6.591626 0.633048 0.038947
v 6.579434 0.625009 0.039111
v 6.567420 0.624282 0.035730
v 6.572843 0.624814 0.038468
v 6.562715 0.623898 0.031939
v 6.605748 0.644539 0.025314
v 6.611835 0.639745 0.020242
v 6.614340 0.638803 0.013972
v 6.572466 0.622738 0.037319
v 6.562666 0.621489 0.031089
v 6.559297 0.621052 0.027905
v 6.600913 0.645302 0.029854
v 6.616247 0.634070 0.013974
v 6.617123 0.633293 0.007521
v 6.556498 0.620349 0.024069
v 6.556938 0.616521 0.023660
v 6.559346 0.617077 0.025816
v 6.553317 0.624039 0.018652
v 6.552531 0.619512 0.018561
v 6.618771 0.627953 0.007205
v 6.618693 0.627342 0.000614
v 6.551817 0.614898 0.018777
v 6.550627 0.608578 0.019784
v 6.556531 0.608716 0.024178
v 6.562548 0.617864 0.028389
v 6.551105 0.623417 0.013077
v 6.619964 0.621828 0.000257
v 6.618937 0.621097 -0.006568
v 6.556850 0.603687 0.024688
v 6.567338 0.619113 0.031797
v 6.567347 0.622117 0.034753
v 6.596494 0.642291 0.035091
v 6.602469 0.641640 0.031268
v 6.619894 0.615813 -0.006813
v 6.618403 0.615125 -0.013970
v 6.572365 0.620546 0.034898
v 6.591321 0.639063 0.038696
v 6.597183 0.638797 0.036163
v 6.607695 0.640655 0.026008
v 6.618777 0.609751 -0.014265
v 6.615335 0.609077 -0.020953
v 6.579543 0.623139 0.037280
v 6.602853 0.638219 0.032237
v 6.597585 0.635798 0.036386
v 6.609886 0.636215 0.025709
v 6.613597 0.634901 0.019943
v 6.614988 0.603562 -0.020878
v 6.610426 0.602960 -0.026382
v 6.585477 0.625450 0.037688
v 6.597592 0.633220 0.036217
v 6.602507 0.635615 0.032926
v 6.611571 0.630214 0.025089
v 6.607110 0.634924 0.028080
v 6.615465 0.629470 0.019577
v 6.618310 0.628823 0.013684
v 6.609741 0.597607 -0.025718
v 6.604957 0.597115 -0.029745
v 6.590587 0.627613 0.037247
v 6.601677 0.633458 0.033255
v 6.612656 0.624415 0.024177
v 6.604187 0.633581 0.030438
v 6.619987 0.623399 0.013265
v 6.617126 0.623908 0.019159
v 6.620311 0.622552 0.006859
v 6.604301 0.592137 -0.028429
v 6.598959 0.591683 -0.031165
v 6.597528 0.630611 0.034810
v 6.618549 0.618844 0.018913
v 6.613547 0.618995 0.023866
v 6.600972 0.632133 0.032768
v 6.621627 0.617520 0.006653
v 6.620925 0.616624 0.000132
v 6.598256 0.586984 -0.029098
v 6.614438 0.613813 0.023883
v 6.621688 0.618415 0.012976
v 6.622956 0.613414 0.013008
v 6.622731 0.612558 0.006799
v 6.621446 0.611463 0.000642
v 6.620382 0.610473 -0.007137
v 6.619873 0.613795 0.019060
v 6.620690 0.608578 0.019784
v 6.614786 0.608716 0.024178
v 6.623814 0.607410 0.007552
v 6.620136 0.604794 -0.007797
v 6.620253 0.605428 -0.000903
v 6.621463 0.606692 0.002033
v 6.618470 0.604200 -0.014515
v 6.614467 0.603687 0.024688
v 6.624160 0.608139 0.013744
v 6.624647 0.602659 0.014967
v 6.624239 0.602090 0.008880
v 6.619253 0.599725 -0.002665
v 6.621598 0.601867 0.003775
v 6.617576 0.598826 -0.014716
v 6.614180 0.598230 -0.020558
v 6.620842 0.603271 0.020933
v 6.619848 0.598042 0.022099
v 6.613353 0.598706 0.025349
v 6.623794 0.597258 0.016449
v 6.623656 0.596638 0.010660
v 6.620706 0.596961 0.006219
v 6.613072 0.593385 -0.019998
v 6.608890 0.592719 -0.024677
v 6.611261 0.593723 0.026149
v 6.621707 0.592552 0.018122
v 6.617826 0.593198 0.023308
v 6.621759 0.591785 0.013050
v 6.618848 0.592491 0.009492
v 6.607658 0.588301 -0.023171
v 6.603339 0.587581 -0.026538
v 6.614573 0.589027 0.024412
v 6.611552 0.587219 0.025561
v 6.608009 0.588688 0.027080
v 6.618916 0.588874 0.020130
v 6.618990 0.588670 0.016154
v 6.616089 0.588950 0.013708
v 6.601915 0.583534 -0.023984
v 6.597229 0.582804 -0.026303
v 6.591660 0.582359 -0.027782
v 6.592196 0.586597 -0.030660
v 6.615911 0.586980 0.022475
v 6.607954 0.585399 0.027037
v 6.604157 0.583662 0.028045
v 6.615256 0.586226 0.019597
v 6.612586 0.586276 0.018397
v 6.595825 0.579336 -0.022742
v 6.585659 0.586455 -0.031189
v 6.585659 0.591286 -0.033297
v 6.611879 0.584896 0.022597
v 6.612556 0.585445 0.024650
v 6.608513 0.584656 0.023241
v 6.608458 0.584377 0.026505
v 6.599961 0.580196 -0.020756
v 6.590931 0.578846 -0.024077
v 6.578753 0.591392 -0.032775
v 6.578511 0.596563 -0.034231
v 6.605844 0.584418 -0.021139
v 6.603394 0.581254 -0.018547
v 6.585659 0.578694 -0.024582
v 6.585659 0.582206 -0.028309
v 6.571887 0.596765 -0.032602
v 6.571551 0.602141 -0.033536
v 6.609181 0.585315 -0.018043
v 6.611465 0.589053 -0.019166
v 6.606175 0.582340 -0.016544
v 6.579657 0.582359 -0.027782
v 6.580386 0.578846 -0.024077
v 6.579122 0.586597 -0.030660
v 6.565840 0.602478 -0.030603
v 6.565571 0.607982 -0.031016
v 6.614256 0.589724 -0.014953
v 6.616188 0.593960 -0.014863
v 6.608822 0.583990 -0.014198
v 6.575492 0.579336 -0.022742
v 6.573061 0.586984 -0.029098
v 6.572358 0.591683 -0.031165
v 6.560551 0.608477 -0.026682
v 6.560741 0.613823 -0.026624
v 6.619177 0.599243 -0.008720
v 6.617526 0.594268 -0.009819
v 6.574089 0.582804 -0.026303
v 6.569402 0.583534 -0.023984
v 6.571356 0.580196 -0.020756
v 6.567016 0.592137 -0.028429
v 6.566360 0.597115 -0.029745
v 6.556995 0.619825 -0.020394
v 6.567924 0.581254 -0.018547
v 6.561576 0.597607 -0.025718
v 6.560891 0.602960 -0.026382
v 6.553766 0.620514 -0.013588
v 6.556262 0.614438 -0.020775
v 6.554898 0.626140 -0.013079
v 6.617379 0.594712 -0.004865
v 6.567978 0.587581 -0.026538
v 6.556329 0.603562 -0.020878
v 6.555983 0.609077 -0.020953
v 6.614842 0.590385 -0.007599
v 6.615480 0.590193 -0.011011
v 6.565473 0.584418 -0.021139
v 6.563659 0.588301 -0.023171
v 6.562427 0.592719 -0.024677
v 6.552540 0.609751 -0.014265
v 6.613355 0.587356 -0.012237
v 6.611850 0.586741 -0.010963
v 6.611749 0.586269 -0.014962
v 6.562136 0.585315 -0.018043
v 6.565142 0.582340 -0.016544
v 6.558245 0.593385 -0.019998
v 6.559853 0.589053 -0.019166
v 6.557137 0.598230 -0.020558
v 6.552914 0.615125 -0.013970
v 6.562495 0.583990 -0.014198
v 6.559568 0.586269 -0.014962
v 6.557061 0.589724 -0.014953
v 6.555130 0.593960 -0.014863
v 6.553741 0.598826 -0.014716
v 6.552847 0.604200 -0.014515
v 6.551423 0.615813 -0.006813
v 6.552380 0.621096 -0.006567
v 6.557962 0.587356 -0.012237
v 6.559467 0.586741 -0.010963
v 6.553791 0.594268 -0.009819
v 6.555837 0.590193 -0.011011
v 6.551181 0.604794 -0.007797
v 6.552140 0.599243 -0.008720
v 6.550935 0.610474 -0.007136
v 6.551353 0.621828 0.000257
v 6.552624 0.627342 0.000614
v 6.556475 0.590385 -0.007599
v 6.553938 0.594712 -0.004865
v 6.552064 0.599725 -0.002665
v 6.551064 0.605428 -0.000903
v 6.549871 0.611463 0.000642
v 6.552536 0.627954 0.007191
v 6.554194 0.633293 0.007506
v 6.550392 0.616624 0.000132
v 6.549854 0.606692 0.002033
v 6.547614 0.607527 0.007549
v 6.549036 0.612708 0.006844
v 6.550041 0.617581 0.006675
v 6.547092 0.602194 0.008883
v 6.549719 0.601867 0.003775
v 6.547157 0.608139 0.013744
v 6.546670 0.602662 0.014966
v 6.548361 0.613414 0.013008
v 6.551027 0.622573 0.006846
v 6.552771 0.628731 0.013373
v 6.549687 0.618712 0.012868
v 6.547661 0.596638 0.010660
v 6.550611 0.596961 0.006219
v 6.552469 0.592491 0.009492
v 6.549558 0.591785 0.013050
v 6.549610 0.592552 0.018122
v 6.547523 0.597258 0.016449
v 6.552327 0.588670 0.016154
v 6.555228 0.588950 0.013708
v 6.552402 0.588874 0.020130
v 6.551469 0.598042 0.022099
v 6.553491 0.593198 0.023308
v 6.550475 0.603271 0.020933
v 6.558731 0.586277 0.018397
v 6.556061 0.586226 0.019597
v 6.555406 0.586980 0.022475
v 6.556745 0.589027 0.024412
v 6.560056 0.593723 0.026149
v 6.557964 0.598706 0.025349
v 6.559438 0.584896 0.022597
v 6.562804 0.584656 0.023241
v 6.558761 0.585445 0.024650
v 6.559765 0.587219 0.025561
v 6.563308 0.588688 0.027080
v 6.567160 0.583662 0.028045
v 6.562859 0.584380 0.026508
v 6.563364 0.585399 0.027037
v 6.551064 0.605428 -0.000903
v 6.552064 0.599725 -0.002665
v 6.553938 0.594712 -0.004865
v 6.556475 0.590385 -0.007599
v 6.559467 0.586741 -0.010963
v 6.562495 0.583990 -0.014198
v 6.565142 0.582340 -0.016544
v 6.567924 0.581254 -0.018547
v 6.571356 0.580196 -0.020756
v 6.575492 0.579336 -0.022742
v 6.585659 0.609961 0.000667
v 6.580386 0.578846 -0.024077
v 6.585659 0.578694 -0.024582
v 6.590931 0.578846 -0.024077
v 6.595825 0.579336 -0.022742
v 6.599961 0.580196 -0.020756
v 6.603394 0.581254 -0.018547
v 6.606175 0.582340 -0.016544
v 6.608822 0.583990 -0.014198
v 6.611850 0.586741 -0.010963
v 6.620253 0.605428 -0.000903
v 6.619253 0.599725 -0.002665
v 6.614842 0.590385 -0.007599
v 6.617379 0.594712 -0.004865
vn -0.9883 -0.1518 0.0130
vn -0.9894 -0.1280 -0.0690
vn -0.9835 -0.0259 0.1789
vn -0.9712 -0.1266 0.2017
vn -0.4560 -0.8763 0.1556
vn -0.8997 -0.2163 0.3791
vn -0.8886 -0.2138 0.4057
vn -0.4333 -0.9004 -0.0387
vn -0.9205 -0.3137 0.2329
vn -0.9125 -0.4013 0.0794
vn -0.7909 0.0216 0.6115
vn -0.6969 -0.0204 0.7169
vn -0.7070 0.0696 0.7037
vn -0.8067 0.1670 0.5669
vn 0.4669 0.8815 0.0703
vn 0.6222 0.7736 0.1203
vn 0.6638 0.7479 0.0097
vn 0.5051 0.8630 -0.0087
vn 0.6110 0.3941 0.6866
vn 0.6371 0.2118 0.7411
vn 0.7887 0.2418 0.5652
vn 0.7336 0.3860 0.5593
vn -0.5107 0.8595 -0.0190
vn -0.4762 0.8782 0.0452
vn -0.3181 0.9480 0.0029
vn -0.3374 0.9405 -0.0415
vn -0.3564 0.6986 -0.6204
vn -0.4876 0.7047 -0.5154
vn -0.3819 0.8192 -0.4279
vn -0.2829 0.8118 -0.5109
vn -0.9464 -0.2152 0.2408
vn -0.8958 -0.1725 0.4097
vn 0.9762 -0.0975 0.1935
vn 0.9700 0.0845 0.2280
vn 0.9947 -0.0244 -0.0999
vn 0.9856 -0.0123 -0.1686
vn -0.9601 -0.2755 0.0481
vn -0.9761 -0.1925 -0.1011
vn 0.9588 0.2842 -0.0001
vn 0.9624 0.2532 -0.0989
vn 0.9485 0.3066 -0.0794
vn 0.9427 0.3323 0.0304
vn -0.8467 0.0837 0.5254
vn -0.8622 0.2011 0.4649
vn 0.0657 -0.5450 0.8359
vn 0.2394 -0.5856 0.7744
vn 0.2332 -0.4580 0.8578
vn 0.0037 -0.3513 0.9363
vn -0.5691 0.0151 0.8221
vn -0.5461 -0.0917 0.8327
vn -0.2946 -0.2090 0.9325
vn -0.3305 -0.0784 0.9405
vn 0.0862 0.9963 0.0052
vn 0.0586 0.9980 0.0252
vn 0.1187 0.9769 0.1776
vn 0.1796 0.9721 0.1507
vn -0.8866 -0.3712 -0.2759
vn -0.9386 -0.1816 0.2934
vn -0.9707 0.0200 0.2395
vn -0.9580 -0.1140 -0.2631
vn -0.9904 -0.0580 -0.1254
vn 0.4000 -0.3526 0.8460
vn 0.5117 -0.3951 0.7629
vn 0.5101 -0.2168 0.8323
vn 0.3696 -0.1383 0.9188
vn -0.7171 -0.6415 0.2726
vn -0.6687 -0.3814 -0.6383
vn -0.8515 0.1204 0.5103
vn -0.9606 0.2232 0.1657
vn -0.9577 0.2339 0.1675
vn -0.7944 0.1599 0.5859
vn -0.0524 -0.3443 -0.9374
vn 0.2086 -0.9420 -0.2630
vn 0.8867 0.1160 0.4476
vn 0.8600 0.2330 0.4539
vn 0.9568 0.2021 0.2091
vn 0.9922 0.0538 -0.1126
vn 0.8061 0.2052 0.5551
vn 0.8231 0.0603 0.5646
vn 0.7050 -0.3206 -0.6327
vn 0.1293 -0.4386 -0.8893
vn 0.0524 -0.3443 -0.9374
vn 0.6758 -0.3942 -0.6229
vn 0.0005 0.8957 0.4448
vn 0.0059 0.8205 0.5716
vn 0.1498 0.8061 0.5724
vn 0.1036 0.8906 0.4429
vn 0.7328 -0.3240 -0.5984
vn 0.7250 -0.3106 -0.6147
vn 0.0844 -0.3261 -0.9416
vn 0.6417 0.7179 -0.2701
vn 0.5031 0.8326 -0.2315
vn 0.5243 0.8393 -0.1435
vn 0.6710 0.7249 -0.1557
vn 0.8212 0.3623 0.4409
vn 0.9353 0.3073 0.1752
vn -0.5252 -0.6767 -0.5160
vn -0.7276 -0.6377 -0.2528
vn -0.7543 -0.4178 -0.5065
vn 0.1807 -0.5007 -0.8466
vn 0.2029 -0.6012 -0.7729
vn -0.7214 0.6559 0.2224
vn -0.7663 0.6336 0.1062
vn -0.8428 0.5245 0.1202
vn -0.8023 0.5445 0.2446
vn 0.9836 0.1186 -0.1358
vn 0.7401 -0.3564 -0.5703
vn -0.9553 0.2481 0.1609
vn -0.9396 0.3087 0.1479
vn -0.9569 0.2901 -0.0115
vn -0.9689 0.2420 -0.0522
vn -0.8665 0.4259 0.2603
vn -0.8996 0.3303 0.2856
vn -0.8535 0.3136 0.4161
vn -0.8092 0.4488 0.3792
vn 0.3989 -0.0381 0.9162
vn 0.3591 -0.0383 0.9325
vn 0.4434 -0.1441 0.8846
vn 0.5170 -0.1857 0.8356
vn 0.7414 0.6018 -0.2969
vn 0.8118 0.4937 -0.3117
vn 0.7362 0.4892 -0.4675
vn 0.6760 0.5923 -0.4384
vn 0.7346 0.5448 0.4045
vn 0.8887 0.4436 0.1158
vn 0.9058 0.4025 0.1326
vn 0.7726 0.4790 0.4167
vn 0.7943 -0.5854 0.1626
vn 0.8341 -0.5516 -0.0056
vn 0.9194 -0.3871 -0.0699
vn 0.9130 -0.4030 0.0631
vn -0.9058 0.4025 0.1326
vn -0.9676 0.2038 -0.1488
vn -0.8887 0.4436 0.1158
vn -0.9729 0.1713 -0.1556
vn 0.2012 -0.7141 -0.6704
vn 0.0260 -0.7845 -0.6196
vn 0.0341 -0.6508 -0.7585
vn 0.5845 0.7099 -0.3930
vn -0.7346 0.5448 0.4045
vn -0.9993 -0.0332 0.0187
vn -0.6209 0.5559 0.5527
vn 0.9676 0.2038 -0.1488
vn 0.7935 -0.4455 -0.4146
vn 0.7572 -0.3935 -0.5213
vn 0.9728 0.1713 -0.1556
vn 0.2012 -0.8002 -0.5650
vn -0.7935 -0.4455 -0.4146
vn 0.0002 -0.8883 -0.4592
vn -0.0002 -0.8883 -0.4592
vn -0.1931 -0.8894 -0.4143
vn -0.2012 -0.8002 -0.5650
vn 0.1931 -0.8894 -0.4143
vn -0.0219 -0.9668 -0.2544
vn -0.6504 -0.3253 0.6864
vn -0.5001 -0.4932 0.7118
vn -0.5709 -0.3731 0.7313
vn -0.7036 -0.2240 0.6743
vn 0.2263 -0.9520 -0.2059
vn 0.1650 -0.9460 -0.2791
vn 0.2462 -0.9501 -0.1915
vn 0.2620 -0.9481 -0.1799
vn 0.2550 -0.9508 -0.1759
vn -0.3985 -0.9065 0.1395
vn -0.2204 0.9685 0.1155
vn -0.1063 0.9943 0.0014
vn -0.1103 0.9938 -0.0122
vn -0.2497 0.9645 0.0862
vn 0.1892 -0.9138 -0.3593
vn 0.3163 -0.8362 -0.4480
vn 0.5299 -0.8182 -0.2230
vn 0.2580 -0.8871 -0.3828
vn -0.6760 0.5923 -0.4384
vn -0.5845 0.7099 -0.3930
vn -0.5729 0.5872 -0.5719
vn 0.6732 0.5469 0.4977
vn 0.5390 0.5733 0.6172
vn -0.8703 -0.2236 0.4388
vn -0.3617 0.0636 0.9301
vn -0.0774 -0.0135 0.9969
vn -0.1108 0.1772 0.9779
vn -0.3783 0.2345 0.8955
vn 0.3297 -0.8283 -0.4529
vn 0.9387 0.2712 0.2130
vn 0.9642 0.2622 -0.0406
vn 0.9313 0.2907 0.2194
vn 0.3918 -0.7965 -0.4604
vn 0.4618 -0.7607 -0.4560
vn -0.9269 0.3486 0.1393
vn -0.9420 0.3343 0.0288
vn 0.5346 -0.7307 -0.4245
vn 0.8523 -0.5219 0.0348
vn 0.5171 -0.7361 -0.4368
vn 0.4989 -0.7429 -0.4462
vn -0.7572 -0.3935 -0.5213
vn -0.1135 0.6755 -0.7285
vn -0.2279 0.6883 -0.6887
vn -0.1840 0.8059 -0.5627
vn -0.0929 0.8005 -0.5921
vn -0.8577 0.5139 0.0153
vn -0.7881 0.6155 0.0040
vn -0.9568 0.2021 0.2091
vn -0.9353 0.3073 0.1753
vn -0.8212 0.3623 0.4409
vn -0.8600 0.2330 0.4539
vn 0.9496 -0.3134 0.0006
vn 0.9527 -0.3005 0.0450
vn 0.9446 -0.2246 0.2393
vn -0.2012 -0.7141 -0.6705
vn -0.0260 -0.7845 -0.6196
vn 0.8126 0.1761 0.5556
vn 0.8485 0.2172 0.4827
vn 0.8572 0.2855 0.4286
vn 0.6735 -0.7209 0.1637
vn 0.9138 -0.3755 0.1545
vn 0.8861 -0.3727 -0.2755
vn 0.7517 -0.4206 -0.5079
vn 0.8766 -0.1750 -0.4483
vn 0.9569 -0.1218 -0.2635
vn -0.7063 -0.3170 -0.6330
vn -0.7250 -0.3106 -0.6147
vn -0.9952 -0.0109 -0.0973
vn -0.8895 0.0991 0.4460
vn -0.9716 0.0935 0.2172
vn -0.2086 -0.9420 -0.2630
vn -0.5170 -0.1857 0.8356
vn -0.6046 -0.1353 0.7850
vn -0.7392 -0.5696 0.3592
vn -0.6289 -0.6325 0.4521
vn -0.9003 -0.1365 0.4133
vn -0.9029 -0.0380 0.4282
vn -0.8436 -0.0620 0.5334
vn -0.8443 -0.1419 0.5168
vn 0.4763 -0.6624 -0.5782
vn 0.3303 -0.6612 -0.6736
vn 0.3438 -0.4992 -0.7954
vn 0.5138 -0.4971 -0.6992
vn 0.4815 0.2320 0.8452
vn 0.4479 0.4270 0.7856
vn 0.0386 -0.4204 -0.9065
vn -0.1293 -0.4386 -0.8893
vn -0.0087 -0.5209 -0.8536
vn -0.1807 -0.5007 -0.8466
vn -0.0844 -0.3261 -0.9416
vn -0.7883 0.3260 0.5218
vn -0.7615 0.3350 0.5548
vn -0.8061 0.2052 0.5551
vn 0.2610 0.5756 -0.7750
vn 0.2872 0.4755 -0.8315
vn 0.1294 0.4586 -0.8792
vn 0.1245 0.5601 -0.8190
vn -0.0809 0.9362 0.3421
vn -0.1661 0.9310 0.3250
vn -0.2182 0.8781 0.4258
vn -0.1025 0.8914 0.4415
vn -0.9101 0.4130 0.0338
vn -0.9021 0.4109 0.1317
vn -0.7726 0.4790 0.4167
vn -0.7023 0.4629 0.5408
vn -0.9836 0.1186 -0.1358
vn -0.0341 -0.6508 -0.7585
vn -0.2029 -0.6012 -0.7729
vn -0.7401 -0.3564 -0.5703
vn -0.7328 -0.3240 -0.5984
vn 0.1012 0.9766 -0.1899
vn 0.2487 0.9166 -0.3130
vn 0.1918 0.9123 -0.3619
vn 0.0684 0.9732 -0.2194
vn 0.3128 0.9497 0.0149
vn 0.3351 0.9417 -0.0300
vn -0.5236 -0.7420 -0.4187
vn -0.5836 -0.7464 -0.3197
vn -0.6402 -0.6663 -0.3824
vn -0.5704 -0.6588 -0.4905
vn -0.8347 0.0687 0.5464
vn 0.6327 -0.3138 0.7080
vn 0.6470 -0.0097 0.7624
vn 0.4986 0.0383 0.8660
vn 0.9993 -0.0332 0.0187
vn 0.6209 0.5559 0.5527
vn 0.0218 -0.9668 -0.2544
vn 0.1250 0.9102 -0.3949
vn 0.1840 0.8059 -0.5627
vn 0.0929 0.8005 -0.5921
vn 0.0610 0.9086 -0.4132
vn 0.1135 0.6755 -0.7285
vn -0.0000 0.6696 -0.7427
vn -0.0000 0.7986 -0.6019
vn 0.2279 0.6883 -0.6887
vn -0.0455 -0.1737 0.9837
vn 0.2045 -0.2517 0.9460
vn -0.8523 -0.1813 0.4907
vn 0.2829 0.8118 -0.5109
vn 0.5163 -0.7364 -0.4372
vn 0.5344 -0.7308 -0.4247
vn -0.9922 0.0538 -0.1126
vn -0.6350 0.7685 0.0789
vn -0.5905 0.7886 0.1717
vn -0.0610 0.9086 -0.4132
vn -0.0000 0.9087 -0.4175
vn 0.3168 0.2567 0.9131
vn 0.1098 0.3114 0.9439
vn 0.1520 0.1079 0.9825
vn 0.3437 0.0603 0.9372
vn -0.0000 0.5521 -0.8338
vn -0.0625 0.9729 -0.2228
vn -0.0894 0.9761 -0.1981
vn 0.0005 0.9954 -0.0954
vn -0.0277 0.9749 -0.2210
vn 0.9385 0.2950 -0.1796
vn 0.9036 0.3914 -0.1739
vn 0.9098 0.4095 -0.0672
vn 0.2594 -0.9470 -0.1897
vn 0.2476 -0.9461 -0.2089
vn -0.0000 0.9727 -0.2320
vn 0.0277 0.9749 -0.2210
vn 0.3819 0.8192 -0.4279
vn 0.4876 0.7047 -0.5154
vn 0.3564 0.6986 -0.6204
vn -0.1256 0.9103 -0.3945
vn -0.3303 -0.6612 -0.6736
vn -0.3438 -0.4992 -0.7954
vn -0.1645 -0.4908 -0.8556
vn -0.1633 -0.6539 -0.7388
vn -0.1255 0.9741 -0.1881
vn -0.1331 0.9781 -0.1599
vn 0.8267 0.4071 0.3885
vn 0.9172 0.3342 0.2168
vn 0.8865 0.4200 0.1944
vn 0.2947 0.9223 -0.2502
vn 0.4574 0.8264 -0.3285
vn 0.5729 0.5872 -0.5719
vn 0.4206 0.5850 -0.6934
vn 0.4718 0.4845 -0.7367
vn -0.0000 0.4493 -0.8934
vn 0.1343 0.3490 -0.9274
vn -0.0000 0.3408 -0.9401
vn 0.6316 0.4853 -0.6046
vn 0.7811 0.3931 -0.4852
vn 0.6745 0.3897 -0.6271
vn 0.6765 0.7329 -0.0716
vn 0.5222 0.8497 -0.0730
vn 0.0087 -0.5209 -0.8536
vn -0.0386 -0.4204 -0.9065
vn 0.3110 0.3674 -0.8765
vn -0.6571 0.6831 0.3188
vn -0.5322 0.8086 0.2509
vn -0.1935 0.9123 -0.3609
vn -0.2531 0.9167 -0.3091
vn 0.5149 0.0879 0.8527
vn 0.4482 0.0290 0.8934
vn 0.6628 -0.0333 0.7481
vn 0.7079 0.0834 0.7014
vn 0.1373 0.9749 -0.1753
vn 0.7801 0.6050 -0.1592
vn -0.4749 0.6597 0.5824
vn -0.3325 0.6876 0.6454
vn -0.2803 0.7973 0.5345
vn -0.4051 0.7709 0.4916
vn -0.1245 0.5601 -0.8190
vn -0.2610 0.5756 -0.7750
vn -0.1343 0.3490 -0.9274
vn -0.1294 0.4586 -0.8792
vn 0.5771 0.6999 0.4209
vn 0.7658 0.5433 0.3442
vn 0.6818 0.6696 0.2946
vn -0.2872 0.4755 -0.8315
vn -0.4206 0.5850 -0.6934
vn 0.8815 -0.3168 -0.3500
vn 0.9131 -0.1966 -0.3571
vn 0.9667 -0.2329 -0.1059
vn 0.1368 0.9784 -0.1550
vn -0.3509 0.9123 0.2110
vn -0.4674 0.8262 0.3146
vn -0.3997 0.8429 0.3602
vn -0.3027 0.9158 0.2639
vn -0.5747 0.2582 0.7765
vn -0.3812 0.4003 0.8333
vn -0.5591 0.4017 0.7253
vn -0.1422 0.3706 0.9178
vn -0.1604 0.5518 0.8184
vn -0.3667 0.5528 0.7483
vn 0.1645 -0.4908 -0.8556
vn 0.1610 -0.3428 -0.9255
vn 0.3498 -0.3505 -0.8688
vn -0.8590 0.5081 -0.0625
vn -0.7923 0.6065 -0.0662
vn -0.0618 0.9790 0.1943
vn 0.0012 0.9800 0.1991
vn 0.0052 0.9995 0.0318
vn -0.0290 0.9994 0.0208
vn -0.4574 0.8264 -0.3285
vn 0.7507 0.6424 0.1545
vn 0.8270 0.5356 0.1709
vn 0.8545 0.5185 0.0312
vn 0.7852 0.6189 0.0235
vn 0.5470 -0.8153 -0.1900
vn 0.3662 -0.9197 -0.1418
vn 0.1345 -0.9316 -0.3377
vn 0.2817 -0.8553 -0.4348
vn 0.1538 0.9781 -0.1403
vn 0.3285 0.9263 -0.1846
vn 0.5615 0.0592 -0.8253
vn 0.5611 -0.0350 -0.8270
vn 0.3460 -0.0385 -0.9374
vn 0.3440 0.0485 -0.9377
vn 0.1530 0.9815 -0.1147
vn 0.1629 0.9829 -0.0864
vn 0.3422 0.9367 -0.0746
vn 0.3423 0.9306 -0.1295
vn -0.9641 0.1826 0.1926
vn -0.9709 0.0795 -0.2258
vn -0.6316 0.4853 -0.6046
vn -0.7362 0.4892 -0.4675
vn 0.0623 0.5191 0.8524
vn 0.1809 -0.0752 0.9806
vn -0.7485 0.1755 0.6395
vn -0.7079 0.0834 0.7014
vn -0.5149 0.0879 0.8527
vn -0.6018 0.1386 0.7865
vn 0.9546 0.2317 0.1871
vn 0.9643 0.1702 0.2026
vn 0.9728 0.0579 -0.2244
vn 0.9759 0.1544 -0.1544
vn 0.3424 0.1185 -0.9321
vn 0.5614 0.1312 -0.8171
vn -0.0000 0.2452 -0.9695
vn 0.1388 0.2504 -0.9582
vn 0.1421 0.1756 -0.9742
vn -0.0000 0.1730 -0.9849
vn 0.5127 0.3828 -0.7685
vn -0.7414 0.6018 -0.2969
vn -0.6417 0.7179 -0.2701
vn -0.1421 0.1756 -0.9742
vn -0.1388 0.2504 -0.9582
vn -0.3280 0.2641 -0.9070
vn -0.5418 0.2795 -0.7927
vn -0.5127 0.3828 -0.7685
vn -0.3110 0.3674 -0.8765
vn -0.3376 0.1838 -0.9232
vn 0.1444 0.1123 -0.9831
vn -0.0000 0.1107 -0.9939
vn 0.5567 0.1964 -0.8072
vn 0.3376 0.1838 -0.9232
vn -0.5785 0.1124 0.8079
vn 0.8144 0.2999 -0.4968
vn 0.7067 0.2913 -0.6448
vn -0.3997 0.9033 0.1558
vn 0.8646 0.3903 -0.3165
vn -0.7811 0.3931 -0.4852
vn -0.8646 0.3903 -0.3165
vn -0.8118 0.4937 -0.3117
vn 0.5418 0.2795 -0.7927
vn -0.7431 0.5692 0.3520
vn -0.6723 0.5968 0.4379
vn -0.5820 0.7125 0.3918
vn -0.9741 0.1672 -0.1522
vn 0.6523 0.1525 0.7424
vn 0.5890 0.1349 0.7968
vn 0.7458 0.1697 0.6442
vn 0.7769 0.1966 0.5981
vn -0.1610 -0.3428 -0.9255
vn -0.1558 -0.2237 -0.9621
vn -0.0000 -0.2190 -0.9757
vn -0.0000 -0.3376 -0.9413
vn -0.1537 0.9781 -0.1402
vn 0.7920 0.6070 -0.0656
vn 0.1471 -0.0362 -0.9885
vn 0.1455 0.0450 -0.9883
vn 0.9389 0.0226 -0.3434
vn 0.9314 -0.0898 -0.3528
vn 0.8282 -0.1059 -0.5503
vn 0.8394 0.0018 -0.5434
vn -0.1525 0.9818 -0.1133
vn -0.5244 0.8480 -0.0772
vn -0.3445 0.9350 -0.0847
vn -0.3424 0.9306 -0.1295
vn -0.5244 0.8393 -0.1436
vn -0.6767 0.3964 0.6204
vn -0.7054 0.2618 0.6587
vn -0.0000 0.0443 -0.9990
vn -0.1455 0.0450 -0.9883
vn -0.3440 0.0485 -0.9377
vn -0.3424 0.1185 -0.9321
vn -0.1444 0.1123 -0.9831
vn 0.4077 0.9004 0.1521
vn 0.5493 0.8035 0.2294
vn -0.1628 0.9821 -0.0944
vn -0.1505 0.9858 -0.0740
vn 0.5252 -0.6767 -0.5160
vn 0.7276 -0.6377 -0.2529
vn -0.1521 0.9870 -0.0521
vn 0.1508 -0.1260 -0.9805
vn -0.0000 -0.1221 -0.9925
vn -0.0000 -0.0346 -0.9994
vn -0.1354 0.9901 -0.0366
vn -0.5567 0.1964 -0.8072
vn -0.5614 0.1312 -0.8171
vn -0.9020 0.2593 0.3451
vn -0.1185 0.9927 -0.0235
vn 0.9058 0.4220 0.0389
vn -0.7862 -0.0573 0.6153
vn -0.8892 0.1698 0.4249
vn 0.1633 -0.6539 -0.7388
vn -0.0000 -0.6498 -0.7601
vn -0.0000 -0.4856 -0.8742
vn -0.5584 -0.1338 -0.8187
vn -0.5611 -0.0350 -0.8270
vn -0.3460 -0.0385 -0.9374
vn -0.3489 -0.1328 -0.9277
vn -0.7224 0.2119 -0.6582
vn -0.7067 0.2913 -0.6448
vn 0.7598 0.1207 0.6389
vn 0.7027 0.1391 0.6977
vn 0.7975 0.1962 0.5705
vn 0.8234 0.1846 0.5365
vn -0.9178 0.2379 -0.3179
vn -0.9539 0.2391 -0.1815
vn -0.9385 0.2950 -0.1796
vn -0.9000 0.2999 -0.3164
vn -0.4365 0.8938 0.1028
vn 0.8515 0.4983 -0.1634
vn -0.8144 0.2999 -0.4968
vn -0.6745 0.3897 -0.6271
vn -0.5279 0.5312 0.6626
vn -0.6456 0.5039 0.5738
vn -0.8311 0.2287 -0.5070
vn 0.2116 0.6633 0.7178
vn 0.3839 0.6162 0.6877
vn 0.2967 0.7752 0.5577
vn 0.9000 0.2999 -0.3164
vn 0.1555 0.9857 -0.0652
vn 0.1566 0.9867 -0.0438
vn 0.9178 0.2379 -0.3179
vn 0.8311 0.2287 -0.5070
vn 0.7224 0.2119 -0.6582
vn -0.7802 0.6050 -0.1592
vn -0.6710 0.7249 -0.1557
vn -0.8515 0.4983 -0.1634
vn -0.5031 0.8326 -0.2315
vn 0.2721 0.4694 0.8400
vn 0.7260 0.1512 -0.6709
vn 0.9712 0.2208 -0.0894
vn 0.9456 0.2587 0.1975
vn 0.4404 0.7366 0.5133
vn -0.8200 -0.4669 -0.3312
vn -0.8341 -0.5516 -0.0056
vn -0.9194 -0.3871 -0.0699
vn -0.8815 -0.3168 -0.3500
vn 0.3489 -0.1328 -0.9277
vn -0.5138 -0.4971 -0.6992
vn -0.5386 -0.3460 -0.7682
vn -0.3498 -0.3505 -0.8688
vn -0.8282 -0.1059 -0.5503
vn -0.8394 0.0018 -0.5434
vn -0.7227 -0.0209 -0.6908
vn -0.7135 -0.1246 -0.6895
vn 0.9539 0.2391 -0.1815
vn -0.0731 0.9973 0.0080
vn 0.3280 0.2641 -0.9070
vn -0.1574 0.7036 0.6930
vn -0.7385 0.4754 0.4781
vn -0.0564 0.9981 0.0258
vn 0.0618 0.9791 0.1940
vn 0.0294 0.9993 0.0218
vn -0.6646 0.7471 -0.0066
vn -0.1693 0.9736 0.1531
vn 0.9383 -0.1820 0.2940
vn 0.9700 0.0184 0.2422
vn -0.3291 0.9261 -0.1845
vn 0.2503 0.9259 0.2830
vn 0.3320 0.8566 0.3949
vn 0.4514 0.8319 0.3227
vn 0.3358 0.9153 0.2223
vn -0.2412 0.9236 0.2981
vn -0.2892 0.9565 0.0388
vn -0.7159 0.1363 0.6848
vn 0.1261 0.9918 -0.0202
vn 0.9677 0.2196 -0.1235
vn -0.9036 0.3914 -0.1739
vn -0.9098 0.4095 -0.0673
vn -0.9624 0.2528 -0.0989
vn -0.9484 0.3069 -0.0796
vn -0.5002 0.7429 0.4450
vn -0.3218 0.8599 0.3962
vn -0.5846 0.6288 0.5126
vn 0.9854 -0.1116 -0.1288
vn 0.9866 0.0073 -0.1630
vn 0.8590 0.5081 -0.0624
vn 0.9264 0.1908 -0.3247
vn 0.9341 0.1260 -0.3341
vn 0.8399 0.1054 -0.5324
vn 0.8367 0.1742 -0.5192
vn 0.0247 0.6966 0.7170
vn 0.2138 0.8766 0.4311
vn -0.4718 0.4845 -0.7367
vn -0.1343 0.8165 0.5615
vn -0.7260 0.1512 -0.6709
vn -0.8367 0.1742 -0.5192
vn -0.3135 -0.7396 -0.5955
vn -0.1574 -0.7337 -0.6610
vn -0.9732 0.1349 -0.1862
vn -0.9623 0.1986 -0.1856
vn -0.9264 0.1908 -0.3247
vn -0.9341 0.1260 -0.3341
vn -0.5615 0.0592 -0.8253
vn -0.7255 0.0799 -0.6836
vn -0.1140 0.9770 0.1804
vn -0.7816 -0.3128 -0.5396
vn -0.7284 -0.4687 -0.4997
vn -0.1471 -0.0362 -0.9885
vn -0.9759 0.1979 -0.0918
vn -0.9801 0.1512 -0.1290
vn -0.9858 0.0615 -0.1559
vn 0.4975 -0.7436 -0.4467
vn 0.1188 0.9929 -0.0005
vn -0.1508 -0.1260 -0.9805
vn 0.1558 -0.2237 -0.9621
vn -0.8399 0.1054 -0.5324
vn -0.6767 0.7326 -0.0730
vn 0.9822 0.0519 -0.1805
vn 0.9732 0.1349 -0.1863
vn 0.9757 0.1591 -0.1507
vn -0.9429 0.0164 -0.3326
vn -0.2366 -0.3963 0.8871
vn -0.9706 0.2110 -0.1155
vn 0.6991 -0.2166 -0.6814
vn 0.6765 -0.3298 -0.6584
vn 0.5386 -0.3460 -0.7682
vn 0.5517 -0.2292 -0.8019
vn -0.3506 -0.2311 -0.9076
vn -0.5517 -0.2292 -0.8019
vn 0.3506 -0.2311 -0.9076
vn 0.6349 -0.4840 -0.6022
vn 0.7284 -0.4687 -0.4997
vn 0.6402 -0.6663 -0.3824
vn 0.5704 -0.6588 -0.4905
vn -0.0000 0.9377 0.3476
vn 0.0804 0.9362 0.3420
vn -0.9131 -0.1966 -0.3571
vn -0.8096 -0.1998 -0.5520
vn 0.3846 -0.8003 -0.4600
vn 0.4566 -0.7633 -0.4571
vn 0.5584 -0.1338 -0.8187
vn 0.7135 -0.1246 -0.6895
vn -0.2986 0.9221 -0.2462
vn -0.6349 -0.4840 -0.6022
vn -0.6765 -0.3298 -0.6584
vn 0.1624 0.9324 0.3228
vn -0.0000 -0.7308 -0.6826
vn 0.1574 -0.7337 -0.6610
vn 0.7255 0.0799 -0.6836
vn 0.2266 -0.9449 -0.2362
vn 0.2212 -0.9297 -0.2945
vn -0.2692 0.9608 0.0667
vn 0.6289 -0.6325 0.4521
vn 0.5130 -0.6610 0.5476
vn 0.2260 -0.9706 -0.0828
vn -0.6636 -0.1647 0.7297
vn -0.4963 -0.3022 0.8138
vn -0.1718 -0.5949 0.7852
vn -0.8664 -0.3737 0.3313
vn -0.6628 -0.0333 0.7481
vn 0.2325 0.9661 0.1127
vn 0.2772 0.9584 0.0676
vn -0.3516 -0.6213 0.7002
vn -0.4016 -0.5232 0.7517
vn 0.8096 -0.1998 -0.5520
vn -0.5129 -0.6611 0.5476
vn -0.4434 -0.1439 0.8847
vn 0.7816 -0.3128 -0.5396
vn -0.8810 -0.1675 -0.4426
vn -0.1760 -0.6667 0.7242
vn -0.9389 0.0226 -0.3434
vn -0.9866 0.0073 -0.1630
vn 0.0875 -0.6549 0.7506
vn -0.9721 -0.2343 0.0128
vn -0.9902 -0.1331 -0.0418
vn -0.9854 -0.1116 -0.1288
vn -0.9667 -0.2329 -0.1059
vn -0.5470 -0.8153 -0.1900
vn -0.9314 -0.0898 -0.3528
vn 0.9347 -0.0116 -0.3552
vn 0.7023 0.4629 0.5408
vn 0.6927 -0.2287 0.6841
vn -0.6991 -0.2166 -0.6814
vn 0.3781 -0.4764 0.7938
vn 0.6729 -0.4592 0.5799
vn 0.8664 -0.3737 0.3313
vn 0.7615 0.3350 0.5548
vn -0.3736 -0.7393 0.5602
vn -0.3601 -0.1328 0.9234
vn 0.5933 -0.4797 0.6465
vn 0.4458 -0.7413 -0.5018
vn 0.3135 -0.7396 -0.5955
vn -0.7179 -0.0309 0.6955
vn -0.4482 0.0290 0.8934
vn 0.5236 -0.7420 -0.4187
vn -0.3989 -0.0381 0.9162
vn -0.1009 -0.5852 0.8046
vn -0.0000 -0.6144 0.7890
vn -0.0423 -0.6203 0.7832
vn 0.6046 -0.1353 0.7850
vn -0.3591 -0.0383 0.9325
vn 0.7392 -0.5696 0.3592
vn 0.6179 -0.7712 0.1531
vn 0.7203 -0.6935 0.0156
vn -0.2817 -0.8553 -0.4348
vn -0.4763 -0.6624 -0.5782
vn -0.3662 -0.9197 -0.1418
vn 0.3602 -0.1334 0.9233
vn 0.3038 -0.6099 0.7319
vn -0.1345 -0.9316 -0.3377
vn 0.7227 -0.0209 -0.6908
vn -0.4458 -0.7413 -0.5018
vn -0.2260 -0.9706 -0.0828
vn 0.0314 -0.9791 -0.2008
vn 0.3731 -0.7406 0.5588
vn 0.5836 -0.7464 -0.3197
vn 0.5992 -0.7900 -0.1299
vn -0.6811 -0.7044 -0.2000
vn 0.9623 0.1986 -0.1856
vn -0.7943 -0.5854 0.1626
vn -0.9130 -0.4030 0.0631
vn 0.8200 -0.4669 -0.3312
vn -0.7203 -0.6935 0.0156
vn -0.6179 -0.7712 0.1531
vn -0.5992 -0.7900 -0.1299
vn 0.6811 -0.7044 -0.2000
vn 0.9721 -0.2343 0.0128
vn 0.9902 -0.1331 -0.0418
vn -0.0314 -0.9791 -0.2008
vn -0.3039 -0.6099 0.7319
vn -0.0300 -0.2807 0.9593
vn 0.0476 -0.3543 0.9339
vn 0.1810 -0.4158 0.8913
vn 0.3412 -0.4391 0.8311
vn 0.4309 -0.4338 0.7913
vn 0.4328 -0.4351 0.7895
vn 0.4089 -0.4431 0.7978
vn 0.3847 -0.4525 0.8045
vn 0.3138 -0.4844 0.8167
vn 0.1009 -0.5852 0.8046
vn 0.0423 -0.6203 0.7832
vn -0.0000 -0.6283 0.7780
vn -0.3138 -0.4844 0.8167
vn -0.3847 -0.4525 0.8045
vn -0.4089 -0.4431 0.7978
vn -0.4328 -0.4351 0.7895
vn -0.4309 -0.4338 0.7913
vn 0.0300 -0.2807 0.9593
vn -0.0476 -0.3543 0.9339
vn -0.3412 -0.4391 0.8311
vn -0.1810 -0.4158 0.8913
vt 0.000000 0.000000
s 1
f 14/1/1 21/1/2 20/1/3 15/1/4
f 1/1/5 4/1/6 2/1/7
f 1/1/5 5/1/8 4/1/6
f 5/1/8 7/1/9 4/1/6
f 5/1/8 8/1/10 7/1/9
f 426/1/11 433/1/12 427/1/13 398/1/14
f 348/1/15 361/1/16 355/1/17 326/1/18
f 509/1/19 519/1/20 521/1/21 515/1/22
f 252/1/23 261/1/24 259/1/25 251/1/26
f 164/1/27 172/1/28 161/1/29 154/1/30
f 9/1/31 13/1/32 2/1/7
f 96/1/33 102/1/34 101/1/35 100/1/36
f 11/1/37 17/1/38 14/1/1
f 496/1/39 497/1/40 423/1/41 490/1/42
f 404/1/43 426/1/11 398/1/14 399/1/44
f 478/1/45 525/1/46 470/1/47 472/1/48
f 434/1/49 474/1/50 473/1/51 466/1/52
f 383/1/53 422/1/54 418/1/55 384/1/56
f 705/1/57 710/1/58 700/1/59 697/1/60
f 20/1/3 21/1/2 26/1/61
f 471/1/62 543/1/63 526/1/64 477/1/65
f 21/1/2 22/1/66 28/1/67
f 495/1/68 704/1/69 701/1/70 498/1/71
f 22/1/66 29/1/72 28/1/67
f 22/1/66 30/1/73 29/1/72
f 99/1/74 108/1/75 109/1/76 102/1/34
f 109/1/76 119/1/77 101/1/35 102/1/34
f 107/1/78 108/1/75 99/1/74 106/1/79
f 103/1/80 110/1/81 104/1/82 97/1/83
f 409/1/84 402/1/85 439/1/86 431/1/87
f 119/1/77 120/1/88 112/1/89 101/1/35
f 30/1/73 38/1/90 29/1/72
f 216/1/91 209/1/92 300/1/93 299/1/94
f 115/1/95 117/1/96 109/1/76 108/1/75
f 707/1/97 708/1/98 705/1/57 706/1/99
f 103/1/80 112/1/89 111/1/100 110/1/81
f 120/1/88 128/1/101 111/1/100 112/1/89
f 288/1/102 287/1/103 359/1/104 354/1/105
f 118/1/106 119/1/77 109/1/76 117/1/96
f 118/1/106 127/1/107 120/1/88 119/1/77
f 502/1/108 703/1/109 690/1/110 702/1/111
f 360/1/112 390/1/113 375/1/114 371/1/115
f 580/1/116 589/1/117 588/1/118 587/1/119
f 293/1/120 292/1/121 286/1/122 207/1/123
f 131/1/124 133/1/125 124/1/126 123/1/127
f 653/1/128 654/1/129 636/1/130 649/1/131
f 47/1/132 54/1/133 53/1/134
f 47/1/132 55/1/135 54/1/133
f 129/1/136 137/1/137 130/1/138 128/1/101
f 216/1/91 293/1/120 207/1/123 208/1/139
f 52/1/140 60/1/141 56/1/142
f 53/1/134 54/1/133 60/1/141
f 52/1/140 53/1/134 60/1/141
f 134/1/143 139/1/144 126/1/145 125/1/146
f 126/1/145 127/1/107 118/1/106 125/1/146
f 126/1/145 135/1/147 129/1/136 127/1/107
f 54/1/133 62/1/148 60/1/141
f 136/1/149 137/1/137 129/1/136 135/1/147
f 63/1/150 65/1/151 64/1/152
f 135/1/147 126/1/145 139/1/144 140/1/153
f 60/1/141 62/1/148 65/1/151
f 63/1/150 66/1/154 65/1/151
f 60/1/141 65/1/151 66/1/154
f 493/1/155 501/1/156 486/1/157 487/1/158
f 5/1/8 70/1/159 69/1/160
f 5/1/8 71/1/161 70/1/159
f 5/1/8 72/1/162 71/1/161
f 5/1/8 73/1/163 72/1/162
f 5/1/8 1/1/5 73/1/163
f 73/1/163 1/1/5 3/1/164
f 309/1/165 310/1/166 281/1/167 303/1/168
f 67/1/169 75/1/170 68/1/171
f 67/1/169 74/1/172 75/1/170
f 225/1/173 229/1/174 172/1/28 222/1/175
f 509/1/19 515/1/22 482/1/176 488/1/177
f 2/1/7 6/1/178 3/1/164 1/1/5
f 446/1/179 457/1/180 452/1/181 447/1/182
f 74/1/172 80/1/183 75/1/170
f 538/1/184 540/1/185 496/1/39 531/1/186
f 75/1/170 81/1/187 68/1/171
f 81/1/187 83/1/188 68/1/171
f 690/1/110 703/1/109 382/1/189 691/1/190
f 68/1/171 84/1/191 85/1/192
f 68/1/171 86/1/193 84/1/191
f 68/1/171 87/1/194 86/1/193
f 68/1/171 83/1/188 87/1/194
f 61/1/195 62/1/148 54/1/133 55/1/135
f 147/1/196 155/1/197 145/1/198 142/1/199
f 294/1/200 359/1/104 287/1/103 268/1/201
f 31/1/202 46/1/203 41/1/204 32/1/205
f 68/1/171 93/1/206 94/1/207
f 68/1/171 95/1/208 93/1/206
f 68/1/171 85/1/192 95/1/208
f 63/1/150 64/1/152 57/1/209 58/1/210
f 528/1/211 530/1/212 522/1/213 521/1/21
f 93/1/206 97/1/83 94/1/207
f 94/1/207 97/1/83 98/1/214
f 96/1/33 90/1/215 99/1/74
f 96/1/33 100/1/36 97/1/83
f 576/1/216 577/1/217 569/1/218 567/1/219
f 96/1/33 99/1/74 102/1/34
f 97/1/83 100/1/36 103/1/80
f 34/1/220 35/1/221 27/1/222 26/1/61
f 97/1/83 104/1/82 98/1/214
f 31/1/202 32/1/205 23/1/223 25/1/224
f 98/1/214 104/1/82 105/1/225
f 90/1/215 106/1/79 99/1/74
f 720/1/226 715/1/227 713/1/228 719/1/229
f 12/1/230 19/1/231 18/1/232 16/1/233
f 593/1/234 594/1/235 549/1/236 586/1/237
f 514/1/238 519/1/20 509/1/19 508/1/239
f 39/1/240 40/1/241 29/1/72 38/1/90
f 39/1/240 45/1/242 43/1/243 40/1/241
f 104/1/82 114/1/244 105/1/225
f 375/1/114 399/1/44 398/1/14 396/1/245
f 41/1/204 42/1/246 33/1/247 32/1/205
f 192/1/248 197/1/249 189/1/250 186/1/251
f 415/1/252 331/1/253 352/1/254 408/1/255
f 301/1/256 376/1/257 359/1/104 294/1/200
f 101/1/35 112/1/89 103/1/80 100/1/36
f 41/1/204 48/1/258 49/1/259 42/1/246
f 47/1/132 48/1/258 41/1/204 46/1/203
f 44/1/260 55/1/135 47/1/132 46/1/203
f 50/1/261 58/1/210 57/1/209 51/1/262
f 57/1/209 59/1/263 36/1/264 51/1/262
f 177/1/265 184/1/266 176/1/267 171/1/268
f 50/1/261 51/1/262 43/1/243 45/1/242
f 328/1/269 348/1/15 326/1/18 320/1/270
f 52/1/140 56/1/142 49/1/259 48/1/258
f 643/1/271 663/1/272 662/1/273 655/1/274
f 124/1/126 133/1/125 134/1/143
f 124/1/126 134/1/143 125/1/146
f 23/1/223 32/1/205 33/1/247 24/1/275
f 526/1/64 535/1/276 527/1/277 520/1/278
f 131/1/124 138/1/279 133/1/125
f 131/1/124 132/1/280 138/1/279
f 133/1/125 138/1/279 134/1/143
f 134/1/143 138/1/279 139/1/144
f 135/1/147 140/1/153 136/1/149
f 11/1/37 9/1/31 7/1/9 8/1/10
f 138/1/279 140/1/153 139/1/144
f 138/1/279 141/1/281 140/1/153
f 136/1/149 140/1/153 141/1/281
f 167/1/282 175/1/283 156/1/284 157/1/285
f 156/1/284 181/1/286 148/1/287 146/1/288
f 175/1/283 183/1/289 181/1/286 156/1/284
f 464/1/290 472/1/48 470/1/47 463/1/291
f 12/1/230 16/1/233 10/1/292 13/1/32
f 176/1/267 182/1/293 175/1/283 167/1/282
f 86/1/193 92/1/294 89/1/295 84/1/191
f 27/1/222 37/1/296 31/1/202 25/1/224
f 269/1/297 287/1/103 288/1/102 282/1/298
f 142/1/199 146/1/288 148/1/287 147/1/196
f 144/1/299 153/1/300 146/1/288 142/1/199
f 513/1/301 456/1/302 459/1/303 465/1/304
f 148/1/287 181/1/286 186/1/251 178/1/305
f 150/1/306 149/1/307 159/1/308
f 150/1/306 159/1/308 152/1/309
f 423/1/41 424/1/310 341/1/311 420/1/312
f 72/1/162 79/1/313 78/1/314 71/1/161
f 152/1/309 159/1/308 162/1/315
f 152/1/309 162/1/315 153/1/300 144/1/299
f 162/1/315 159/1/308 163/1/316
f 191/1/317 198/1/318 190/1/319 182/1/293
f 182/1/293 190/1/319 183/1/289 175/1/283
f 152/1/309 144/1/299 143/1/320 150/1/306
f 637/1/321 631/1/322 624/1/323 622/1/324
f 168/1/325 169/1/326 159/1/308
f 168/1/325 159/1/308 149/1/307
f 483/1/327 522/1/213 489/1/328 484/1/329
f 194/1/330 199/1/331 191/1/317 184/1/266
f 163/1/316 159/1/308 171/1/268
f 198/1/318 200/1/332 193/1/333 190/1/319
f 193/1/333 201/1/334 197/1/249 192/1/248
f 179/1/335 189/1/250 188/1/336 187/1/337
f 210/1/338 286/1/122 285/1/339 280/1/340
f 167/1/282 171/1/268 176/1/267
f 326/1/18 355/1/17 327/1/341 319/1/342
f 171/1/268 159/1/308 177/1/265
f 186/1/251 189/1/250 179/1/335 178/1/305
f 111/1/100 121/1/343 113/1/344 110/1/81
f 197/1/249 217/1/345 188/1/336 189/1/250
f 288/1/102 346/1/346 289/1/347 282/1/298
f 155/1/197 164/1/27 154/1/30 145/1/198
f 151/1/348 154/1/30 161/1/29 160/1/349
f 564/1/350 574/1/351 573/1/352 572/1/353
f 177/1/265 159/1/308 185/1/354
f 216/1/91 299/1/94 298/1/355 293/1/120
f 381/1/356 387/1/357 380/1/358 351/1/359
f 158/1/360 165/1/361 155/1/197 147/1/196
f 179/1/335 187/1/337 180/1/362 174/1/363
f 468/1/364 482/1/176 476/1/365 406/1/366
f 174/1/363 173/1/367 165/1/361 158/1/360
f 155/1/197 165/1/361 166/1/368 164/1/27
f 636/1/130 628/1/369 570/1/370 635/1/371
f 185/1/354 159/1/308 195/1/372
f 295/1/373 339/1/374 338/1/375 332/1/376
f 416/1/377 447/1/182 403/1/378 410/1/379
f 403/1/378 453/1/380 392/1/381 394/1/382
f 549/1/236 596/1/383 469/1/384 542/1/385
f 277/1/386 294/1/200 268/1/201 270/1/387
f 330/1/388 425/1/389 336/1/390 329/1/391
f 230/1/392 161/1/29 172/1/28 229/1/174
f 407/1/393 412/1/394 413/1/395 362/1/396
f 591/1/397 600/1/398 601/1/399 592/1/400
f 195/1/372 159/1/308 203/1/401
f 195/1/372 203/1/401 202/1/402
f 367/1/403 449/1/404 373/1/405 368/1/406
f 212/1/407 318/1/408 313/1/409 306/1/410
f 700/1/59 699/1/411 694/1/412 697/1/60
f 221/1/413 226/1/414 225/1/173 222/1/175
f 392/1/381 453/1/380 456/1/302 451/1/415
f 458/1/416 477/1/65 465/1/304 459/1/303
f 203/1/401 159/1/308 212/1/407
f 499/1/417 716/1/418 505/1/419 500/1/420
f 552/1/421 565/1/422 559/1/423 553/1/424
f 367/1/403 368/1/406 263/1/425 364/1/426
f 196/1/427 220/1/428 219/1/429 218/1/430
f 211/1/431 217/1/345 197/1/249 201/1/334
f 225/1/173 231/1/432 232/1/433 229/1/174
f 196/1/427 218/1/430 213/1/434 204/1/435
f 210/1/338 280/1/340 211/1/431 201/1/334
f 200/1/332 210/1/338 201/1/334 193/1/333
f 205/1/436 235/1/437 214/1/438 206/1/439
f 205/1/436 206/1/439 180/1/362 204/1/435
f 213/1/434 241/1/440 205/1/436 204/1/435
f 219/1/429 254/1/441 224/1/442 218/1/430
f 271/1/443 364/1/426 263/1/425 264/1/444
f 198/1/318 208/1/139 207/1/123 200/1/332
f 57/1/209 64/1/152 61/1/195 59/1/263
f 153/1/300 162/1/315 163/1/316 157/1/285
f 434/1/49 466/1/52 446/1/179 440/1/445
f 285/1/339 350/1/446 279/1/447 280/1/340
f 289/1/347 339/1/374 295/1/373 276/1/448
f 292/1/121 343/1/449 285/1/339 286/1/122
f 227/1/450 284/1/451 233/1/452 226/1/414
f 211/1/431 280/1/340 279/1/447 272/1/453
f 202/1/402 209/1/92 199/1/331 194/1/330
f 209/1/92 216/1/91 208/1/139 199/1/331
f 353/1/454 365/1/455 345/1/456 346/1/346
f 699/1/411 701/1/70 695/1/457 694/1/412
f 550/1/458 558/1/459 557/1/460 556/1/461
f 89/1/295 90/1/215 85/1/192 84/1/191
f 611/1/462 612/1/463 385/1/464 604/1/465
f 306/1/410 300/1/93 209/1/92 202/1/402
f 184/1/266 191/1/317 182/1/293 176/1/267
f 244/1/466 159/1/308 169/1/326
f 327/1/341 334/1/467 298/1/355 299/1/94
f 313/1/409 319/1/342 300/1/93 306/1/410
f 319/1/342 327/1/341 299/1/94 300/1/93
f 219/1/429 264/1/444 263/1/425 254/1/441
f 373/1/405 374/1/468 255/1/469 368/1/406
f 516/1/470 563/1/471 523/1/472 517/1/473
f 244/1/466 250/1/474 159/1/308
f 359/1/104 376/1/257 360/1/112 354/1/105
f 246/1/475 249/1/476 242/1/477 239/1/478
f 395/1/479 417/1/480 416/1/377 410/1/379
f 263/1/425 368/1/406 255/1/469 254/1/441
f 255/1/469 256/1/481 224/1/442 254/1/441
f 253/1/482 312/1/483 247/1/484 248/1/485
f 366/1/486 400/1/487 361/1/16 348/1/15
f 250/1/474 258/1/488 159/1/308
f 257/1/489 159/1/308 258/1/488
f 691/1/190 382/1/189 376/1/257 301/1/256
f 591/1/397 592/1/400 584/1/490 583/1/491
f 257/1/489 260/1/492 159/1/308
f 406/1/366 476/1/365 412/1/394 407/1/393
f 224/1/442 248/1/485 213/1/434 218/1/430
f 471/1/62 477/1/65 458/1/416 463/1/291
f 378/1/493 379/1/494 265/1/495 374/1/468
f 255/1/469 374/1/468 265/1/495 256/1/481
f 260/1/492 266/1/496 159/1/308
f 143/1/320 151/1/348 149/1/307 150/1/306
f 29/1/72 40/1/241 34/1/220 28/1/67
f 457/1/180 464/1/290 463/1/291 458/1/416
f 355/1/17 362/1/396 334/1/467 327/1/341
f 205/1/436 241/1/440 240/1/497 235/1/437
f 247/1/484 305/1/498 240/1/497 241/1/440
f 397/1/499 399/1/44 375/1/114 390/1/113
f 266/1/496 274/1/500 159/1/308
f 419/1/501 490/1/42 423/1/41 420/1/312
f 495/1/68 491/1/502 404/1/43 494/1/503
f 595/1/504 616/1/505 603/1/506 596/1/383
f 183/1/289 192/1/248 186/1/251 181/1/286
f 625/1/507 626/1/508 316/1/509 618/1/510
f 240/1/497 297/1/511 234/1/512 235/1/437
f 536/1/513 545/1/514 544/1/515 539/1/516
f 274/1/500 281/1/167 159/1/308
f 648/1/517 314/1/518 308/1/519 291/1/520
f 282/1/298 289/1/347 276/1/448 275/1/521
f 341/1/311 343/1/449 292/1/121 335/1/522
f 234/1/512 290/1/523 227/1/450 228/1/524
f 221/1/413 228/1/524 227/1/450 226/1/414
f 395/1/479 410/1/379 388/1/525 389/1/526
f 234/1/512 297/1/511 296/1/527 290/1/523
f 439/1/86 444/1/528 475/1/529 467/1/530
f 341/1/311 424/1/310 349/1/531 343/1/449
f 36/1/264 59/1/263 44/1/260 37/1/296
f 226/1/414 233/1/452 231/1/432 225/1/173
f 214/1/438 235/1/437 234/1/512 228/1/524
f 113/1/344 114/1/244 104/1/82 110/1/81
f 325/1/532 333/1/533 328/1/269 320/1/270
f 349/1/531 430/1/534 356/1/535 350/1/446
f 356/1/535 357/1/536 279/1/447 350/1/446
f 237/1/537 238/1/538 232/1/433 231/1/432
f 233/1/452 278/1/539 237/1/537 231/1/432
f 239/1/478 236/1/540 232/1/433 238/1/538
f 456/1/302 513/1/301 450/1/541 451/1/415
f 363/1/542 364/1/426 271/1/443 357/1/536
f 146/1/288 153/1/300 157/1/285 156/1/284
f 236/1/540 230/1/392 229/1/174 232/1/433
f 552/1/421 553/1/424 547/1/543 551/1/544
f 468/1/364 460/1/545 488/1/177 482/1/176
f 670/1/546 679/1/547 678/1/548 671/1/549
f 303/1/168 295/1/373 309/1/165
f 281/1/167 310/1/166 159/1/308
f 373/1/405 455/1/550 378/1/493 374/1/468
f 631/1/322 650/1/551 640/1/552 632/1/553
f 269/1/297 282/1/298 275/1/521 261/1/24
f 651/1/554 652/1/555 633/1/556 645/1/557
f 423/1/41 497/1/40 429/1/558 424/1/310
f 429/1/558 430/1/534 349/1/531 424/1/310
f 556/1/461 552/1/421 551/1/544 544/1/515
f 310/1/166 315/1/559 159/1/308
f 223/1/560 272/1/453 271/1/443 264/1/444
f 387/1/357 394/1/382 392/1/381 393/1/561
f 212/1/407 159/1/308 318/1/408
f 353/1/454 371/1/115 369/1/562 365/1/455
f 701/1/70 699/1/411 499/1/417 498/1/71
f 249/1/476 258/1/488 250/1/474 242/1/477
f 315/1/559 321/1/563 159/1/308
f 20/1/3 25/1/224 23/1/223 19/1/231
f 211/1/431 272/1/453 223/1/560 217/1/345
f 224/1/442 256/1/481 253/1/482 248/1/485
f 318/1/408 159/1/308 325/1/532
f 425/1/389 435/1/564 428/1/565 336/1/390
f 268/1/201 287/1/103 269/1/297 262/1/566
f 309/1/165 322/1/567 315/1/559 310/1/166
f 575/1/568 576/1/216 567/1/219 566/1/569
f 142/1/199 145/1/198 143/1/320 144/1/299
f 321/1/563 329/1/391 159/1/308
f 212/1/407 306/1/410 202/1/402 203/1/401
f 158/1/360 178/1/305 179/1/335 174/1/363
f 242/1/477 250/1/474 244/1/466 243/1/570
f 325/1/532 159/1/308 333/1/533
f 278/1/539 277/1/386 270/1/387 237/1/537
f 411/1/571 441/1/572 405/1/573 391/1/574
f 329/1/391 336/1/390 159/1/308
f 332/1/376 337/1/575 322/1/567
f 259/1/25 267/1/576 266/1/496 260/1/492
f 421/1/577 440/1/445 416/1/377 417/1/480
f 333/1/533 159/1/308 340/1/578
f 496/1/39 540/1/185 503/1/579 497/1/40
f 406/1/366 407/1/393 361/1/16 400/1/487
f 283/1/580 302/1/581 277/1/386 278/1/539
f 314/1/518 684/1/582 307/1/583 308/1/519
f 338/1/375 358/1/584 351/1/359 344/1/585
f 365/1/455 370/1/586 358/1/584 345/1/456
f 560/1/587 563/1/471 516/1/470 555/1/588
f 227/1/450 290/1/523 291/1/520 284/1/451
f 342/1/589 420/1/312 341/1/311 335/1/522
f 145/1/198 154/1/30 151/1/348 143/1/320
f 349/1/531 350/1/446 285/1/339 343/1/449
f 452/1/181 459/1/303 456/1/302 453/1/380
f 298/1/355 335/1/522 292/1/121 293/1/120
f 566/1/569 567/1/219 559/1/423 565/1/422
f 437/1/590 511/1/591 442/1/592 438/1/593
f 401/1/594 451/1/415 450/1/541 444/1/528
f 289/1/347 346/1/346 345/1/456 339/1/374
f 557/1/460 565/1/422 552/1/421 556/1/461
f 320/1/270 326/1/18 319/1/342 313/1/409
f 445/1/595 467/1/530 460/1/545 441/1/572
f 46/1/203 31/1/202 37/1/296 44/1/260
f 173/1/367 215/1/596 166/1/368 165/1/361
f 458/1/416 459/1/303 452/1/181 457/1/180
f 402/1/85 386/1/597 393/1/561 401/1/594
f 304/1/598 642/1/599 296/1/527 297/1/511
f 630/1/600 637/1/321 622/1/324 623/1/601
f 674/1/602 675/1/603 646/1/604 667/1/605
f 247/1/484 312/1/483 311/1/606 305/1/498
f 311/1/606 634/1/607 304/1/598 305/1/498
f 465/1/304 520/1/278 514/1/238 513/1/301
f 323/1/608 330/1/388 329/1/391 321/1/563
f 356/1/535 438/1/593 363/1/542 357/1/536
f 670/1/546 671/1/549 664/1/609 665/1/610
f 61/1/195 64/1/152 65/1/151 62/1/148
f 253/1/482 317/1/611 316/1/509 312/1/483
f 316/1/509 626/1/508 311/1/606 312/1/483
f 695/1/457 696/1/612 692/1/613 689/1/614
f 91/1/615 92/1/294 86/1/193 87/1/194
f 340/1/578 159/1/308 377/1/616
f 265/1/495 379/1/494 324/1/617 317/1/611
f 324/1/617 618/1/510 316/1/509 317/1/611
f 369/1/562 389/1/526 370/1/586 365/1/455
f 315/1/559 322/1/567 323/1/608 321/1/563
f 195/1/372 202/1/402 194/1/330 185/1/354
f 377/1/616 159/1/308 383/1/53
f 261/1/24 275/1/521 267/1/576 259/1/25
f 213/1/434 248/1/485 247/1/484 241/1/440
f 378/1/493 462/1/618 385/1/464 379/1/494
f 634/1/607 647/1/619 642/1/599 304/1/598
f 43/1/243 51/1/262 36/1/264 35/1/221
f 245/1/620 270/1/387 268/1/201 262/1/566
f 361/1/16 407/1/393 362/1/396 355/1/17
f 20/1/3 26/1/61 27/1/222 25/1/224
f 465/1/304 477/1/65 526/1/64 520/1/278
f 554/1/621 555/1/588 510/1/622 548/1/623
f 444/1/528 439/1/86 402/1/85 401/1/594
f 694/1/412 695/1/457 689/1/614 693/1/624
f 473/1/51 480/1/625 478/1/45 472/1/48
f 683/1/626 702/1/111 690/1/110 684/1/582
f 646/1/604 675/1/603 314/1/518 648/1/517
f 532/1/627 579/1/628 541/1/629 533/1/630
f 617/1/631 641/1/632 625/1/507 618/1/510
f 461/1/633 542/1/385 469/1/384 462/1/618
f 279/1/447 357/1/536 271/1/443 272/1/453
f 90/1/215 96/1/33 95/1/208 85/1/192
f 585/1/634 620/1/635 619/1/636 613/1/637
f 351/1/359 380/1/358 352/1/254 344/1/585
f 557/1/460 572/1/353 566/1/569 565/1/422
f 387/1/357 393/1/561 386/1/597 380/1/358
f 246/1/475 252/1/23 251/1/26 249/1/476
f 412/1/394 484/1/329 419/1/501 413/1/395
f 439/1/86 467/1/530 445/1/595 431/1/87
f 388/1/525 394/1/382 387/1/357 381/1/356
f 633/1/556 634/1/607 311/1/606 626/1/508
f 435/1/564 425/1/389 414/1/638 432/1/639
f 188/1/336 220/1/428 196/1/427 187/1/337
f 166/1/368 222/1/175 172/1/28 164/1/27
f 28/1/67 34/1/220 26/1/61 21/1/2
f 395/1/479 396/1/245 417/1/480
f 672/1/640 666/1/641 664/1/609 671/1/549
f 322/1/567 337/1/575 331/1/253 323/1/608
f 277/1/386 302/1/581 301/1/256 294/1/200
f 338/1/375 344/1/585 337/1/575 332/1/376
f 55/1/135 44/1/260 59/1/263 61/1/195
f 383/1/53 159/1/308 422/1/54
f 283/1/580 308/1/519 307/1/583 302/1/581
f 307/1/583 691/1/190 301/1/256 302/1/581
f 82/1/642 88/1/643 83/1/188 81/1/187
f 398/1/14 427/1/13 421/1/577
f 159/1/308 428/1/565 422/1/54
f 159/1/308 336/1/390 428/1/565
f 34/1/220 40/1/241 43/1/243 35/1/221
f 129/1/136 128/1/101 120/1/88 127/1/107
f 701/1/70 704/1/69 696/1/612 695/1/457
f 262/1/566 269/1/297 261/1/24 252/1/23
f 414/1/638 415/1/252 408/1/255 409/1/84
f 532/1/627 533/1/630 454/1/644 524/1/645
f 538/1/184 551/1/544 547/1/543 540/1/185
f 160/1/349 170/1/646 169/1/326 168/1/325
f 415/1/252 330/1/388 323/1/608 331/1/253
f 207/1/123 286/1/122 210/1/338 200/1/332
f 291/1/520 308/1/519 283/1/580 284/1/451
f 237/1/537 270/1/387 245/1/620 238/1/538
f 419/1/501 420/1/312 342/1/589 413/1/395
f 346/1/346 288/1/102 354/1/105 353/1/454
f 647/1/619 667/1/605 646/1/604 642/1/599
f 656/1/647 657/1/648 640/1/552 650/1/551
f 436/1/649 445/1/595 441/1/572 411/1/571
f 435/1/564 432/1/639 436/1/649 418/1/55
f 550/1/458 556/1/461 544/1/515 545/1/514
f 257/1/489 258/1/488 249/1/476 251/1/26
f 633/1/556 652/1/555 647/1/619 634/1/607
f 193/1/333 192/1/248 183/1/289 190/1/319
f 428/1/565 435/1/564 418/1/55 422/1/54
f 615/1/650 616/1/505 595/1/504 610/1/651
f 405/1/573 468/1/364 406/1/366 400/1/487
f 363/1/542 443/1/652 367/1/403 364/1/426
f 386/1/597 408/1/255 352/1/254 380/1/358
f 369/1/562 396/1/245 395/1/479 389/1/526
f 370/1/586 389/1/526 388/1/525 381/1/356
f 625/1/507 645/1/557 633/1/556 626/1/508
f 414/1/638 425/1/389 330/1/388 415/1/252
f 70/1/159 77/1/653 76/1/654 69/1/160
f 475/1/529 508/1/239 509/1/19 488/1/177
f 617/1/631 618/1/510 324/1/617 612/1/463
f 196/1/427 204/1/435 180/1/362 187/1/337
f 386/1/597 402/1/85 409/1/84 408/1/255
f 510/1/622 555/1/588 516/1/470 511/1/591
f 223/1/560 220/1/428 188/1/336 217/1/345
f 445/1/595 436/1/649 432/1/639 431/1/87
f 223/1/560 264/1/444 219/1/429 220/1/428
f 611/1/462 632/1/553 617/1/631 612/1/463
f 163/1/316 171/1/268 167/1/282 157/1/285
f 434/1/49 440/1/445 421/1/577 427/1/13
f 385/1/464 612/1/463 324/1/617 379/1/494
f 295/1/373 303/1/168 273/1/655 276/1/448
f 530/1/212 539/1/516 538/1/184 531/1/186
f 296/1/527 648/1/517 291/1/520 290/1/523
f 72/1/162 73/1/163 3/1/164 79/1/313
f 683/1/626 684/1/582 314/1/518 675/1/603
f 23/1/223 24/1/275 18/1/232 19/1/231
f 489/1/328 490/1/42 419/1/501 484/1/329
f 597/1/656 606/1/657 605/1/658 600/1/398
f 530/1/212 531/1/186 489/1/328 522/1/213
f 433/1/12 426/1/11 481/1/659
f 404/1/43 491/1/502 487/1/158 426/1/11
f 273/1/655 303/1/168 281/1/167 274/1/500
f 382/1/189 703/1/109 397/1/499 390/1/113
f 480/1/625 479/1/660 485/1/661
f 709/1/662 715/1/227 714/1/663 710/1/58
f 340/1/578 377/1/616 372/1/664 347/1/665
f 575/1/568 566/1/569 572/1/353 573/1/352
f 467/1/530 475/1/529 488/1/177 460/1/545
f 2/1/7 13/1/32 10/1/292 6/1/178
f 479/1/660 480/1/625 473/1/51 474/1/50
f 547/1/543 548/1/623 503/1/579 540/1/185
f 521/1/21 522/1/213 483/1/327 515/1/22
f 506/1/666 507/1/667 486/1/157 501/1/156
f 696/1/612 704/1/69 502/1/108 702/1/111
f 372/1/664 391/1/574 366/1/486 347/1/665
f 570/1/370 571/1/668 523/1/472 563/1/471
f 719/1/229 725/1/669 726/1/670 720/1/226
f 230/1/392 170/1/646 160/1/349 161/1/29
f 481/1/659 426/1/11 487/1/158 486/1/157
f 9/1/31 2/1/7 4/1/6 7/1/9
f 382/1/189 390/1/113 360/1/112 376/1/257
f 578/1/671 620/1/635 585/1/634 579/1/628
f 564/1/350 572/1/353 557/1/460 558/1/459
f 698/1/672 706/1/99 705/1/57 697/1/60
f 693/1/624 698/1/672 697/1/60 694/1/412
f 360/1/112 371/1/115 353/1/454 354/1/105
f 674/1/602 692/1/613 683/1/626 675/1/603
f 391/1/574 405/1/573 400/1/487 366/1/486
f 506/1/666 512/1/673 507/1/667
f 121/1/343 111/1/100 128/1/101 130/1/138
f 233/1/452 284/1/451 283/1/580 278/1/539
f 36/1/264 37/1/296 27/1/222 35/1/221
f 658/1/674 682/1/675 674/1/602 667/1/605
f 658/1/674 667/1/605 647/1/619 652/1/555
f 512/1/673 518/1/676 485/1/661
f 9/1/31 15/1/4 12/1/230 13/1/32
f 687/1/677 688/1/678 680/1/679 681/1/680
f 713/1/228 709/1/662 708/1/98 711/1/681
f 585/1/634 613/1/637 593/1/234 586/1/237
f 651/1/554 673/1/682 658/1/674 652/1/555
f 518/1/676 525/1/46 478/1/45
f 240/1/497 305/1/498 304/1/598 297/1/511
f 559/1/423 562/1/683 554/1/621 553/1/424
f 519/1/20 527/1/277 521/1/21
f 384/1/56 411/1/571 391/1/574 372/1/664
f 122/1/684 132/1/280 131/1/124 123/1/127
f 521/1/21 527/1/277 529/1/685
f 69/1/160 76/1/654 74/1/172 67/1/169
f 644/1/686 666/1/641 651/1/554 645/1/557
f 644/1/686 645/1/557 625/1/507 641/1/632
f 525/1/46 534/1/687 470/1/47
f 527/1/277 535/1/276 529/1/685
f 96/1/33 97/1/83 93/1/206 95/1/208
f 529/1/685 535/1/276 537/1/688
f 397/1/499 494/1/503 404/1/43 399/1/44
f 581/1/689 583/1/491 576/1/216 575/1/568
f 603/1/506 624/1/323 611/1/462 604/1/465
f 640/1/552 657/1/648 644/1/686 641/1/632
f 122/1/684 123/1/127 115/1/95 116/1/690
f 534/1/687 543/1/63 471/1/62
f 729/1/691 730/1/692 726/1/670 725/1/669
f 88/1/643 91/1/615 87/1/194 83/1/188
f 537/1/688 535/1/276 546/1/693
f 124/1/126 125/1/146 118/1/106 117/1/96
f 20/1/3 19/1/231 12/1/230 15/1/4
f 362/1/396 413/1/395 342/1/589 334/1/467
f 631/1/322 632/1/553 611/1/462 624/1/323
f 260/1/492 257/1/489 251/1/26 259/1/25
f 593/1/234 609/1/694 602/1/695 594/1/235
f 377/1/616 383/1/53 384/1/56 372/1/664
f 689/1/614 692/1/613 674/1/602 682/1/675
f 446/1/179 466/1/52 464/1/290 457/1/180
f 450/1/541 513/1/301 514/1/238 508/1/239
f 245/1/620 262/1/566 252/1/23 246/1/475
f 185/1/354 194/1/330 184/1/266 177/1/265
f 461/1/633 462/1/618 378/1/493 455/1/550
f 680/1/679 682/1/675 658/1/674 673/1/682
f 498/1/71 492/1/696 491/1/502 495/1/68
f 696/1/612 702/1/111 683/1/626 692/1/613
f 344/1/585 352/1/254 331/1/253 337/1/575
f 700/1/59 716/1/418 499/1/417 699/1/411
f 398/1/14 421/1/577 417/1/480 396/1/245
f 433/1/12 474/1/50 434/1/49 427/1/13
f 470/1/47 534/1/687 471/1/62 463/1/291
f 672/1/640 673/1/682 651/1/554 666/1/641
f 714/1/663 722/1/697 505/1/419 716/1/418
f 714/1/663 716/1/418 700/1/59 710/1/58
f 236/1/540 243/1/570 170/1/646 230/1/392
f 486/1/157 507/1/667 479/1/660 481/1/659
f 516/1/470 517/1/473 442/1/592 511/1/591
f 593/1/234 613/1/637 614/1/698 609/1/694
f 721/1/699 722/1/697 714/1/663 715/1/227
f 709/1/662 710/1/58 705/1/57 708/1/98
f 745/1/700 22/1/66 741/1/701 744/1/702
f 680/1/679 688/1/678 689/1/614 682/1/675
f 656/1/647 665/1/610 664/1/609 657/1/648
f 214/1/438 228/1/524 221/1/413 215/1/596
f 580/1/116 587/1/119 582/1/703
f 726/1/670 727/1/704 721/1/699 720/1/226
f 581/1/689 582/1/703 590/1/705
f 704/1/69 495/1/68 494/1/503 502/1/108
f 653/1/128 660/1/706 659/1/707 654/1/129
f 707/1/97 712/1/708 711/1/681 708/1/98
f 638/1/709 650/1/551 631/1/322 637/1/321
f 638/1/709 655/1/274 656/1/647 650/1/551
f 452/1/181 453/1/380 403/1/378 447/1/182
f 711/1/681 718/1/710 719/1/229 713/1/228
f 580/1/116 582/1/703 573/1/352 574/1/351
f 589/1/117 598/1/711 588/1/118
f 589/1/117 599/1/712 598/1/711
f 717/1/713 718/1/710 711/1/681 712/1/708
f 442/1/592 517/1/473 448/1/714 443/1/652
f 630/1/600 639/1/715 638/1/709 637/1/321
f 388/1/525 410/1/379 403/1/378 394/1/382
f 622/1/324 624/1/323 603/1/506 616/1/505
f 600/1/398 605/1/658 601/1/399
f 723/1/716 725/1/669 719/1/229 718/1/710
f 14/1/1 17/1/38 22/1/66 21/1/2
f 601/1/399 605/1/658 607/1/717
f 599/1/712 607/1/717 605/1/658
f 599/1/712 608/1/718 598/1/711
f 605/1/658 606/1/657 608/1/718
f 599/1/712 605/1/658 608/1/718
f 603/1/506 604/1/465 469/1/384 596/1/383
f 469/1/384 604/1/465 385/1/464 462/1/618
f 643/1/271 655/1/274 638/1/709 639/1/715
f 615/1/650 623/1/601 622/1/324 616/1/505
f 214/1/438 215/1/596 173/1/367 206/1/439
f 640/1/552 641/1/632 617/1/631 632/1/553
f 543/1/63 546/1/693 535/1/276 526/1/64
f 662/1/273 665/1/610 656/1/647 655/1/274
f 148/1/287 178/1/305 158/1/360 147/1/196
f 392/1/381 451/1/415 401/1/594 393/1/561
f 454/1/644 533/1/630 461/1/633 455/1/550
f 454/1/644 455/1/550 373/1/405 449/1/404
f 71/1/161 78/1/314 77/1/653 70/1/159
f 536/1/513 539/1/516 530/1/212 528/1/211
f 621/1/719 619/1/636 629/1/720
f 602/1/695 610/1/651 595/1/504 594/1/235
f 431/1/87 432/1/639 414/1/638 409/1/84
f 595/1/504 596/1/383 549/1/236 594/1/235
f 448/1/714 524/1/645 454/1/644 449/1/404
f 448/1/714 449/1/404 367/1/403 443/1/652
f 678/1/548 681/1/680 672/1/640 671/1/549
f 47/1/132 53/1/134 52/1/140 48/1/258
f 662/1/273 669/1/721 670/1/546 665/1/610
f 222/1/175 166/1/368 215/1/596 221/1/413
f 160/1/349 168/1/325 149/1/307 151/1/348
f 541/1/629 586/1/237 549/1/236 542/1/385
f 541/1/629 542/1/385 461/1/633 533/1/630
f 442/1/592 443/1/652 363/1/542 438/1/593
f 347/1/665 366/1/486 348/1/15 328/1/269
f 334/1/467 342/1/589 335/1/522 298/1/355
f 180/1/362 206/1/439 173/1/367 174/1/363
f 437/1/590 438/1/593 356/1/535 430/1/534
f 646/1/604 648/1/517 296/1/527 642/1/599
f 345/1/456 358/1/584 338/1/375 339/1/374
f 429/1/558 504/1/722 437/1/590 430/1/534
f 523/1/472 524/1/645 448/1/714 517/1/473
f 510/1/622 511/1/591 437/1/590 504/1/722
f 685/1/723 686/1/724 678/1/548 679/1/547
f 450/1/541 508/1/239 475/1/529 444/1/528
f 585/1/634 586/1/237 541/1/629 579/1/628
f 418/1/55 436/1/649 411/1/571 384/1/56
f 446/1/179 447/1/182 416/1/377 440/1/445
f 654/1/129 659/1/707 627/1/725
f 676/1/726 677/1/727 685/1/723 679/1/547
f 668/1/728 677/1/727 676/1/726 669/1/721
f 627/1/725 659/1/707 661/1/729
f 661/1/729 629/1/720 619/1/636
f 483/1/327 484/1/329 412/1/394 476/1/365
f 619/1/636 621/1/719 614/1/698 613/1/637
f 578/1/671 579/1/628 532/1/627 571/1/668
f 554/1/621 548/1/623 547/1/543 553/1/424
f 663/1/272 668/1/728 662/1/273
f 662/1/273 668/1/728 669/1/721
f 627/1/725 661/1/729 619/1/636 620/1/635
f 578/1/671 628/1/369 627/1/725 620/1/635
f 570/1/370 628/1/369 578/1/671 571/1/668
f 690/1/110 691/1/190 307/1/583 684/1/582
f 309/1/165 295/1/373 332/1/376 322/1/567
f 523/1/472 571/1/668 532/1/627 524/1/645
f 597/1/656 600/1/398 591/1/397 590/1/705
f 669/1/721 676/1/726 670/1/546
f 703/1/109 502/1/108 494/1/503 397/1/499
f 636/1/130 654/1/129 627/1/725 628/1/369
f 670/1/546 676/1/726 679/1/547
f 199/1/331 208/1/139 198/1/318 191/1/317
f 560/1/587 635/1/371 570/1/370 563/1/471
f 664/1/609 666/1/641 644/1/686 657/1/648
f 503/1/579 504/1/722 429/1/558 497/1/40
f 5/1/8 69/1/160 67/1/169 68/1/171
f 629/1/720 661/1/729 659/1/707 660/1/706
f 568/1/730 649/1/131 636/1/130 635/1/371
f 568/1/730 635/1/371 560/1/587 561/1/731
f 554/1/621 561/1/731 560/1/587 555/1/588
f 246/1/475 239/1/478 238/1/538 245/1/620
f 170/1/646 243/1/570 244/1/466 169/1/326
f 340/1/578 347/1/665 328/1/269 333/1/533
f 489/1/328 531/1/186 496/1/39 490/1/42
f 567/1/219 569/1/218 562/1/683 559/1/423
f 520/1/278 527/1/277 519/1/20 514/1/238
f 242/1/477 243/1/570 236/1/540 239/1/478
f 485/1/661 518/1/676 478/1/45 480/1/625
f 460/1/545 468/1/364 405/1/573 441/1/572
f 370/1/586 381/1/356 351/1/359 358/1/584
f 503/1/579 548/1/623 510/1/622 504/1/722
f 375/1/114 396/1/245 369/1/562 371/1/115
f 318/1/408 325/1/532 320/1/270 313/1/409
f 544/1/515 551/1/544 538/1/184 539/1/516
f 466/1/52 473/1/51 472/1/48 464/1/290
f 499/1/417 500/1/420 492/1/696 498/1/71
f 14/1/1 15/1/4 9/1/31 11/1/37
f 576/1/216 583/1/491 584/1/490 577/1/217
f 433/1/12 481/1/659 479/1/660 474/1/50
f 80/1/183 82/1/642 81/1/187 75/1/170
f 124/1/126 117/1/96 115/1/95 123/1/127
f 590/1/705 591/1/397 583/1/491 581/1/689
f 672/1/640 681/1/680 680/1/679 673/1/682
f 573/1/352 582/1/703 581/1/689 575/1/568
f 709/1/662 713/1/228 715/1/227
f 267/1/576 275/1/521 276/1/448 273/1/655
f 273/1/655 274/1/500 266/1/496 267/1/576
f 492/1/696 493/1/155 487/1/158 491/1/502
f 587/1/119 597/1/656 590/1/705 582/1/703
f 687/1/677 681/1/680 678/1/548 686/1/724
f 715/1/227 720/1/226 721/1/699
f 482/1/176 515/1/22 483/1/327 476/1/365
f 717/1/713 723/1/716 718/1/710
f 717/1/713 724/1/732 723/1/716
f 588/1/118 606/1/657 597/1/656 587/1/119
f 507/1/667 512/1/673 485/1/661 479/1/660
f 723/1/716 724/1/732 728/1/733
f 723/1/716 729/1/691 725/1/669
f 598/1/711 608/1/718 606/1/657 588/1/118
f 723/1/716 728/1/733 729/1/691
f 726/1/670 730/1/692 727/1/704
f 727/1/704 730/1/692 728/1/733
f 728/1/733 730/1/692 729/1/691
f 105/1/225 731/1/734 98/1/214
f 731/1/734 732/1/735 98/1/214
f 732/1/735 733/1/736 98/1/214
f 733/1/736 734/1/737 98/1/214
f 734/1/737 735/1/738 98/1/214
f 735/1/738 736/1/739 98/1/214
f 98/1/214 736/1/739 737/1/740
f 98/1/214 737/1/740 738/1/741
f 98/1/214 738/1/741 739/1/742
f 98/1/214 739/1/742 740/1/743
f 107/1/78 116/1/690 115/1/95 108/1/75
f 741/1/701 742/1/744 743/1/745
f 741/1/701 743/1/745 744/1/702
f 740/1/743 742/1/744 741/1/701 98/1/214
f 745/1/700 746/1/746 22/1/66
f 746/1/746 747/1/747 22/1/66
f 747/1/747 748/1/748 22/1/66
f 748/1/748 749/1/749 22/1/66
f 749/1/749 750/1/750 22/1/66
f 22/1/66 751/1/751 30/1/73
f 22/1/66 752/1/752 751/1/751
f 22/1/66 750/1/750 753/1/753
f 22/1/66 754/1/754 752/1/752
f 22/1/66 753/1/753 754/1/754
f 265/1/495 317/1/611 253/1/482 256/1/481
