# Blender 4.3.2
# www.blender.org
o hair.045
v 7.822574 0.627297 0.023987
v 7.844915 0.633352 0.011976
v 7.824516 0.622872 0.026397
v 7.820621 0.631715 0.021586
v 7.826815 0.629154 0.027696
v 7.832146 0.616636 0.001069
v 7.819751 0.624044 0.019098
v 7.829086 0.635419 0.029062
v 7.818869 0.616368 0.016619
v 7.831748 0.630949 0.030031
v 7.816963 0.619773 0.014747
v 7.834381 0.626462 0.031067
v 7.815057 0.623179 0.012875
v 7.837015 0.632129 0.032120
v 7.815703 0.617097 0.012723
v 7.839626 0.637784 0.033276
v 7.816124 0.611569 0.012823
v 7.842281 0.632129 0.033353
v 7.816098 0.607148 0.013427
v 7.844915 0.626462 0.033174
v 7.815588 0.603392 0.014405
v 7.826931 0.601530 0.007508
v 7.830312 0.602011 0.002912
v 7.847548 0.632129 0.033353
v 7.822309 0.589484 0.013152
v 7.814562 0.599860 0.015631
v 7.828478 0.587385 0.004754
v 7.838311 0.585488 -0.002664
v 7.841613 0.601062 -0.002565
v 7.850204 0.637784 0.033276
v 7.813045 0.596670 0.017006
v 7.812148 0.584473 0.004150
v 7.814749 0.583098 -0.002069
v 7.818542 0.582372 -0.009231
v 7.844915 0.601062 -0.002565
v 7.852815 0.632129 0.032120
v 7.811061 0.593939 0.018435
v 7.810431 0.586391 0.009728
v 7.813448 0.583785 0.001040
v 7.816645 0.582735 -0.005650
v 7.823013 0.582312 -0.016162
v 7.851519 0.585488 -0.002664
v 7.848217 0.601062 -0.002565
v 7.844915 0.585488 -0.002664
v 7.855449 0.626462 0.031067
v 7.808845 0.591438 0.019890
v 7.809289 0.588735 0.014957
v 7.827658 0.582717 -0.021618
v 7.859518 0.602011 0.002912
v 7.844915 0.584638 -0.030401
v 7.858082 0.630949 0.030031
v 7.832775 0.583339 -0.025969
v 7.862899 0.601530 0.007508
v 7.857684 0.616636 0.001069
v 7.861352 0.587385 0.004754
v 7.851170 0.583982 -0.029198
v 7.838660 0.583982 -0.029198
v 7.860744 0.635419 0.029062
v 7.873732 0.607148 0.013427
v 7.874241 0.603392 0.014405
v 7.867521 0.589484 0.013152
v 7.857055 0.583339 -0.025969
v 7.863015 0.629154 0.027696
v 7.875268 0.599860 0.015631
v 7.873705 0.611569 0.012823
v 7.862172 0.582717 -0.021618
v 7.869209 0.631715 0.021586
v 7.865314 0.622872 0.026397
v 7.867256 0.627297 0.023987
v 7.876785 0.596670 0.017006
v 7.874127 0.617097 0.012723
v 7.866817 0.582312 -0.016162
v 7.871288 0.582372 -0.009231
v 7.870079 0.624044 0.019098
v 7.878768 0.593939 0.018435
v 7.874773 0.623179 0.012875
v 7.875081 0.583098 -0.002069
v 7.873185 0.582735 -0.005650
v 7.877682 0.584473 0.004150
v 7.870961 0.616368 0.016619
v 7.879399 0.586391 0.009728
v 7.880540 0.588735 0.014957
v 7.880985 0.591438 0.019890
v 7.872867 0.619773 0.014747
v 7.876381 0.583785 0.001040
v 7.838258 0.658228 0.000221
v 7.841623 0.658239 -0.004596
v 7.837470 0.657903 -0.001144
v 7.841955 0.658363 -0.003940
v 7.839116 0.658486 0.001551
v 7.842381 0.658463 -0.003358
v 7.834680 0.657546 0.004560
v 7.837014 0.657631 -0.002480
v 7.841443 0.658147 -0.005112
v 7.844915 0.658226 -0.006201
v 7.832730 0.656583 0.000357
v 7.833452 0.657027 0.002499
v 7.840378 0.658732 0.002524
v 7.835948 0.657955 0.006626
v 7.837905 0.658347 0.008145
v 7.842929 0.658560 -0.002940
v 7.831272 0.655956 0.009195
v 7.832773 0.656436 0.011324
v 7.841373 0.658042 -0.005664
v 7.836766 0.657358 -0.003841
v 7.829924 0.655424 0.006640
v 7.841736 0.658920 0.003223
v 7.843539 0.658635 -0.002629
v 7.835894 0.656925 0.013249
v 7.839994 0.658645 0.009226
v 7.828657 0.653981 0.013877
v 7.830663 0.654313 0.015991
v 7.834328 0.655309 0.017810
v 7.828782 0.654806 0.003069
v 7.826987 0.653134 0.011625
v 7.843279 0.659073 0.003643
v 7.844216 0.658699 -0.002444
v 7.838459 0.657282 0.014401
v 7.827040 0.650931 0.018828
v 7.825027 0.649623 0.017309
v 7.829431 0.651789 0.020120
v 7.824839 0.652026 0.007003
v 7.822963 0.649954 0.011107
v 7.832314 0.656147 -0.001798
v 7.844915 0.658699 -0.002377
v 7.840327 0.655989 0.019590
v 7.841177 0.657585 0.015272
v 7.823736 0.650911 0.002464
v 7.828299 0.654041 0.000127
v 7.832158 0.655702 -0.003908
v 7.836642 0.657080 -0.005193
v 7.842377 0.658884 0.009876
v 7.839477 0.653974 0.023181
v 7.833560 0.653059 0.021912
v 7.828095 0.653414 -0.002713
v 7.832257 0.655261 -0.005986
v 7.836706 0.656798 -0.006529
v 7.841287 0.657940 -0.006239
v 7.838730 0.651087 0.026539
v 7.844915 0.654215 0.023744
v 7.832856 0.650225 0.025346
v 7.828336 0.648744 0.023372
v 7.841318 0.657825 -0.006813
v 7.844915 0.659126 0.003787
v 7.844915 0.656182 0.020056
v 7.832320 0.646047 0.028290
v 7.826179 0.647948 0.022125
v 7.827417 0.644918 0.026063
v 7.824420 0.646772 0.020571
v 7.841407 0.657693 -0.007444
v 7.844915 0.657731 0.015647
v 7.844915 0.658988 0.010095
v 7.825465 0.644288 0.024980
v 7.823917 0.643388 0.023496
v 7.821517 0.645140 0.017593
v 7.822282 0.647788 0.014692
v 7.836926 0.656516 -0.007890
v 7.848652 0.657585 0.015272
v 7.847453 0.658884 0.009876
v 7.846551 0.659073 0.003643
v 7.820276 0.646100 0.011517
v 7.821286 0.648410 0.007095
v 7.837382 0.656250 -0.009224
v 7.832609 0.654838 -0.008058
v 7.828233 0.652846 -0.005484
v 7.849836 0.658645 0.009226
v 7.845614 0.658699 -0.002444
v 7.819851 0.646326 0.001150
v 7.818887 0.644758 0.007297
v 7.841608 0.657569 -0.008039
v 7.833312 0.654439 -0.010107
v 7.828730 0.652330 -0.008219
v 7.824272 0.649414 -0.005775
v 7.823971 0.650006 -0.002366
v 7.848094 0.658920 0.003223
v 7.846291 0.658635 -0.002629
v 7.841939 0.657438 -0.008628
v 7.824978 0.649002 -0.008820
v 7.821146 0.645343 -0.007633
v 7.821859 0.644942 -0.010786
v 7.820434 0.645744 -0.004480
v 7.846901 0.658560 -0.002940
v 7.842365 0.657321 -0.009142
v 7.838129 0.655999 -0.010528
v 7.818881 0.641250 -0.009486
v 7.818075 0.641503 -0.006420
v 7.817429 0.641998 -0.000016
v 7.851370 0.657282 0.014401
v 7.853936 0.656925 0.013249
v 7.851924 0.658347 0.008145
v 7.834461 0.654075 -0.012103
v 7.829698 0.651832 -0.011082
v 7.816397 0.636960 -0.006477
v 7.849503 0.655989 0.019590
v 7.855502 0.655309 0.017810
v 7.857057 0.656436 0.011324
v 7.853882 0.657955 0.006626
v 7.849452 0.658732 0.002524
v 7.831240 0.651449 -0.013675
v 7.826116 0.648270 -0.012374
v 7.850353 0.653974 0.023181
v 7.855150 0.657546 0.004560
v 7.850714 0.658486 0.001551
v 7.847449 0.658463 -0.003358
v 7.827838 0.647929 -0.015403
v 7.823288 0.644470 -0.013840
v 7.851099 0.651087 0.026539
v 7.844915 0.651443 0.027247
v 7.856270 0.653059 0.021912
v 7.847875 0.658363 -0.003940
v 7.851572 0.658228 0.000221
v 7.830302 0.647574 -0.018541
v 7.824718 0.643998 -0.016894
v 7.844915 0.647376 0.030820
v 7.838059 0.646811 0.029760
v 7.856974 0.650225 0.025346
v 7.860399 0.651789 0.020120
v 7.859167 0.654313 0.015991
v 7.851770 0.646811 0.029760
v 7.844915 0.642936 0.033243
v 7.837451 0.642269 0.032001
v 7.831542 0.641404 0.030237
v 7.826865 0.640185 0.027381
v 7.861005 0.653723 0.013808
v 7.858558 0.655956 0.009195
v 7.852378 0.642269 0.032001
v 7.857510 0.646047 0.028290
v 7.839626 0.637784 0.033276
v 7.834369 0.637356 0.032183
v 7.829086 0.635419 0.029062
v 7.825228 0.639595 0.026316
v 7.823659 0.634849 0.025925
v 7.856378 0.657027 0.002499
v 7.861494 0.648744 0.023372
v 7.834222 0.631739 0.031910
v 7.831748 0.630949 0.030031
v 7.823803 0.628862 0.025903
v 7.826815 0.629154 0.027696
v 7.823591 0.639005 0.025252
v 7.852360 0.657903 -0.001144
v 7.862601 0.650706 0.018715
v 7.837015 0.632129 0.032120
v 7.834381 0.626462 0.031067
v 7.824516 0.622872 0.026397
v 7.820647 0.641490 0.019814
v 7.820749 0.637163 0.022283
v 7.848207 0.658239 -0.004596
v 7.844915 0.637870 0.034486
v 7.842281 0.632129 0.033353
v 7.822574 0.627297 0.023987
v 7.817677 0.639826 0.014723
v 7.818579 0.635248 0.018819
v 7.820621 0.631715 0.021586
v 7.848387 0.658147 -0.005112
v 7.850204 0.637784 0.033276
v 7.844915 0.632112 0.034243
v 7.844915 0.626462 0.033174
v 7.816628 0.631939 0.015717
v 7.817086 0.627500 0.017054
v 7.817741 0.623158 0.017274
v 7.819751 0.624044 0.019098
v 7.852816 0.657631 -0.002480
v 7.857100 0.656583 0.000357
v 7.855461 0.637356 0.032183
v 7.858288 0.641404 0.030237
v 7.847548 0.632129 0.033353
v 7.815057 0.623179 0.012875
v 7.818869 0.616368 0.016619
v 7.816963 0.619773 0.014747
v 7.859906 0.655424 0.006640
v 7.855608 0.631739 0.031910
v 7.860744 0.635419 0.029062
v 7.862965 0.640185 0.027381
v 7.862413 0.644918 0.026063
v 7.862843 0.653134 0.011625
v 7.861048 0.654806 0.003069
v 7.852815 0.632129 0.032120
v 7.855449 0.626462 0.031067
v 7.858082 0.630949 0.030031
v 7.863451 0.647758 0.021972
v 7.864162 0.644153 0.024780
v 7.857516 0.656147 -0.001798
v 7.864803 0.649623 0.017309
v 7.865409 0.646772 0.020571
v 7.866239 0.639005 0.025252
v 7.865912 0.643388 0.023496
v 7.864602 0.639595 0.026316
v 7.861531 0.654041 0.000127
v 7.857672 0.655702 -0.003908
v 7.853064 0.657358 -0.003841
v 7.868313 0.645140 0.017593
v 7.869183 0.641490 0.019814
v 7.866171 0.634849 0.025925
v 7.869081 0.637163 0.022283
v 7.864991 0.652026 0.007003
v 7.866094 0.650911 0.002464
v 7.861735 0.653414 -0.002713
v 7.848456 0.658042 -0.005664
v 7.872153 0.639826 0.014723
v 7.871251 0.635248 0.018819
v 7.869209 0.631715 0.021586
v 7.866027 0.628862 0.025903
v 7.863015 0.629154 0.027696
v 7.866867 0.649954 0.011107
v 7.865859 0.650006 -0.002366
v 7.861418 0.652872 -0.005466
v 7.848543 0.657940 -0.006239
v 7.873202 0.631939 0.015717
v 7.865314 0.622872 0.026397
v 7.867256 0.627297 0.023987
v 7.867548 0.647788 0.014692
v 7.853188 0.657080 -0.005193
v 7.857573 0.655261 -0.005986
v 7.853124 0.656798 -0.006529
v 7.848512 0.657825 -0.006813
v 7.870329 0.644069 0.013840
v 7.869554 0.646100 0.011517
v 7.857221 0.654838 -0.008058
v 7.852903 0.656516 -0.007890
v 7.848423 0.657693 -0.007444
v 7.870943 0.644758 0.007297
v 7.868544 0.648410 0.007095
v 7.865355 0.649504 -0.005593
v 7.861100 0.652330 -0.008219
v 7.852448 0.656250 -0.009224
v 7.848222 0.657569 -0.008039
v 7.869978 0.646326 0.001150
v 7.872642 0.641186 0.007108
v 7.872401 0.641998 -0.000016
v 7.869396 0.645744 -0.004480
v 7.864852 0.649002 -0.008820
v 7.859845 0.651890 -0.010947
v 7.868683 0.645343 -0.007633
v 7.874338 0.636575 0.006619
v 7.873734 0.634885 0.012648
v 7.871755 0.641503 -0.006420
v 7.867970 0.644942 -0.010786
v 7.863421 0.648465 -0.012111
v 7.856518 0.654439 -0.010107
v 7.870949 0.641250 -0.009486
v 7.875143 0.631978 0.006892
v 7.874834 0.628304 0.012002
v 7.874773 0.623179 0.012875
v 7.872744 0.627500 0.017054
v 7.873433 0.636960 -0.006477
v 7.855369 0.654075 -0.012103
v 7.851701 0.655999 -0.010528
v 7.875631 0.627411 0.007044
v 7.875253 0.632266 0.000414
v 7.872089 0.623158 0.017274
v 7.870079 0.624044 0.019098
v 7.874348 0.637089 -0.000016
v 7.858590 0.651449 -0.013675
v 7.853880 0.653751 -0.013922
v 7.847890 0.657438 -0.008628
v 7.870961 0.616368 0.016619
v 7.872867 0.619773 0.014747
v 7.861991 0.647929 -0.015403
v 7.859528 0.647574 -0.018541
v 7.856616 0.651097 -0.016132
v 7.852127 0.653464 -0.015797
v 7.850738 0.655776 -0.011701
v 7.875698 0.622811 0.006829
v 7.875266 0.617542 0.006723
v 7.874127 0.617097 0.012723
v 7.865112 0.643998 -0.016894
v 7.854297 0.650811 -0.018546
v 7.875864 0.622863 0.000518
v 7.875808 0.627514 0.000705
v 7.873705 0.611569 0.012823
v 7.866541 0.644470 -0.013840
v 7.856614 0.647319 -0.021367
v 7.853178 0.647165 -0.023180
v 7.851557 0.650594 -0.020039
v 7.847465 0.657321 -0.009142
v 7.870143 0.640996 -0.012553
v 7.858633 0.643504 -0.023790
v 7.862150 0.643679 -0.020610
v 7.850038 0.653222 -0.017028
v 7.849585 0.655581 -0.012868
v 7.846939 0.657220 -0.009583
v 7.872635 0.636801 -0.009576
v 7.871839 0.636643 -0.012676
v 7.868765 0.640682 -0.015217
v 7.864025 0.640080 -0.022014
v 7.867386 0.640368 -0.017881
v 7.847573 0.653044 -0.017842
v 7.848224 0.655417 -0.013663
v 7.846348 0.657141 -0.009920
v 7.872978 0.631547 -0.012555
v 7.870412 0.636480 -0.015594
v 7.868985 0.636317 -0.018512
v 7.848354 0.650453 -0.020988
v 7.844915 0.652970 -0.018145
v 7.846622 0.655295 -0.014176
v 7.845643 0.657078 -0.010124
v 7.871598 0.631636 -0.015609
v 7.865421 0.636174 -0.023026
v 7.870219 0.631726 -0.018662
v 7.866385 0.631876 -0.023663
v 7.844915 0.655240 -0.014371
v 7.844915 0.657042 -0.010207
v 7.870470 0.627081 -0.018790
v 7.871830 0.627152 -0.015748
v 7.873189 0.627223 -0.012706
v 7.861069 0.636187 -0.026625
v 7.860050 0.639994 -0.025306
v 7.844187 0.657078 -0.010124
v 7.842891 0.657220 -0.009583
v 7.843482 0.657141 -0.009920
v 7.871924 0.622307 -0.015544
v 7.873281 0.622409 -0.012651
v 7.874084 0.627310 -0.009397
v 7.873796 0.631633 -0.009468
v 7.855462 0.640019 -0.027640
v 7.854468 0.643325 -0.025753
v 7.843208 0.655295 -0.014176
v 7.874166 0.622544 -0.009404
v 7.874978 0.627396 -0.006087
v 7.874613 0.631720 -0.006381
v 7.849828 0.643336 -0.026919
v 7.849185 0.647114 -0.024226
v 7.842257 0.653044 -0.017842
v 7.841606 0.655417 -0.013663
v 7.844915 0.647114 -0.024560
v 7.844915 0.650402 -0.021330
v 7.841475 0.650453 -0.020988
v 7.838273 0.650594 -0.020039
v 7.839792 0.653222 -0.017028
v 7.840245 0.655581 -0.012868
v 7.837703 0.653464 -0.015797
v 7.836652 0.647165 -0.023180
v 7.840645 0.647114 -0.024226
v 7.835533 0.650811 -0.018546
v 7.839092 0.655776 -0.011701
v 7.833214 0.651097 -0.016132
v 7.835950 0.653751 -0.013922
v 7.875052 0.622679 -0.006157
v 7.840002 0.643336 -0.026919
v 7.833216 0.647319 -0.021367
v 7.874721 0.617739 -0.006021
v 7.875443 0.617836 0.000502
v 7.873884 0.617591 -0.009184
v 7.844915 0.643358 -0.027268
v 7.831197 0.643504 -0.023790
v 7.874935 0.612755 0.000645
v 7.874250 0.612742 -0.005752
v 7.873441 0.612600 -0.008835
v 7.874785 0.612277 0.006823
v 7.873048 0.617444 -0.012348
v 7.844915 0.640110 -0.029280
v 7.835362 0.643325 -0.025753
v 7.873899 0.607822 -0.005423
v 7.872632 0.612459 -0.011918
v 7.873036 0.607693 -0.008453
v 7.874695 0.607632 0.007228
v 7.873732 0.607148 0.013427
v 7.834368 0.640019 -0.027640
v 7.839511 0.640075 -0.028911
v 7.872733 0.602852 -0.007944
v 7.871764 0.602709 -0.010995
v 7.872173 0.607564 -0.011483
v 7.874720 0.607900 0.000935
v 7.874241 0.603392 0.014405
v 7.839228 0.636342 -0.030586
v 7.871711 0.617294 -0.015169
v 7.870826 0.607430 -0.014184
v 7.871307 0.612293 -0.014661
v 7.874781 0.603273 0.001555
v 7.873701 0.602995 -0.004892
v 7.870374 0.617144 -0.017990
v 7.870567 0.622205 -0.018437
v 7.869479 0.607295 -0.016884
v 7.870373 0.602620 -0.013709
v 7.869982 0.612128 -0.017403
v 7.874984 0.603421 0.008000
v 7.873688 0.598306 -0.004016
v 7.872593 0.598081 -0.007214
v 7.866863 0.622051 -0.023383
v 7.866878 0.627229 -0.023606
v 7.871499 0.597855 -0.010412
v 7.866314 0.611807 -0.022104
v 7.875644 0.599477 0.009207
v 7.875268 0.599860 0.015631
v 7.873052 0.593387 -0.005677
v 7.871849 0.593025 -0.008993
v 7.862044 0.627380 -0.027556
v 7.861748 0.631936 -0.027510
v 7.870052 0.597786 -0.013212
v 7.866687 0.616854 -0.022824
v 7.875096 0.598903 0.002689
v 7.876785 0.596670 0.017006
v 7.856431 0.632027 -0.030258
v 7.856071 0.636270 -0.029185
v 7.868982 0.602530 -0.016423
v 7.868606 0.597716 -0.016013
v 7.861985 0.616595 -0.026722
v 7.875924 0.594752 0.004411
v 7.874255 0.593748 -0.002362
v 7.876789 0.595815 0.010781
v 7.850602 0.636342 -0.030586
v 7.850319 0.640075 -0.028911
v 7.865347 0.602486 -0.021058
v 7.865831 0.607079 -0.021514
v 7.875801 0.589279 0.000502
v 7.878543 0.592417 0.012660
v 7.877526 0.590740 0.006794
v 7.874542 0.588752 -0.002749
v 7.861250 0.606974 -0.025254
v 7.879399 0.586391 0.009728
v 7.877682 0.584473 0.004150
v 7.876381 0.583785 0.001040
v 7.875081 0.583098 -0.002069
v 7.873283 0.588225 -0.006000
v 7.870308 0.592918 -0.011968
v 7.878768 0.593939 0.018435
v 7.844915 0.636376 -0.030996
v 7.880540 0.588735 0.014957
v 7.871584 0.588001 -0.009254
v 7.873185 0.582735 -0.005650
v 7.880985 0.591438 0.019890
v 7.850755 0.632092 -0.031761
v 7.844915 0.632118 -0.032200
v 7.869885 0.587778 -0.012508
v 7.871288 0.582372 -0.009231
v 7.864967 0.597837 -0.020740
v 7.868768 0.592810 -0.014944
v 7.865018 0.592991 -0.020030
v 7.856557 0.627559 -0.030380
v 7.850800 0.627699 -0.031965
v 7.866817 0.582312 -0.016162
v 7.860548 0.598167 -0.024503
v 7.860857 0.602600 -0.024774
v 7.860607 0.593450 -0.024057
v 7.861521 0.588214 -0.023299
v 7.865824 0.587827 -0.018402
v 7.856702 0.621852 -0.030189
v 7.862133 0.621928 -0.027347
v 7.855795 0.602780 -0.027487
v 7.855685 0.593992 -0.026994
v 7.855592 0.598556 -0.027238
v 7.862172 0.582717 -0.021618
v 7.850842 0.616317 -0.031149
v 7.850897 0.621841 -0.031774
v 7.856595 0.616404 -0.029543
v 7.850330 0.598854 -0.028889
v 7.857055 0.583339 -0.025969
v 7.861651 0.611553 -0.025913
v 7.856335 0.611379 -0.028699
v 7.844915 0.621851 -0.032252
v 7.844915 0.627759 -0.032448
v 7.856463 0.588806 -0.026787
v 7.850844 0.589348 -0.029107
v 7.851170 0.583982 -0.029198
v 7.839030 0.627699 -0.031965
v 7.839075 0.632092 -0.031761
v 7.844915 0.584638 -0.030401
v 7.850396 0.594422 -0.028821
v 7.856056 0.606944 -0.027993
v 7.833398 0.632027 -0.030258
v 7.833759 0.636270 -0.029185
v 7.844915 0.589606 -0.029976
v 7.838986 0.589348 -0.029107
v 7.838660 0.583982 -0.029198
v 7.844915 0.594608 -0.029456
v 7.850560 0.606957 -0.029625
v 7.850702 0.611296 -0.030329
v 7.850430 0.602934 -0.029118
v 7.828761 0.636187 -0.026625
v 7.829780 0.639994 -0.025306
v 7.832775 0.583339 -0.025969
v 7.844915 0.611278 -0.030856
v 7.844915 0.603004 -0.029663
v 7.844915 0.606973 -0.030164
v 7.844915 0.616300 -0.031648
v 7.844915 0.598980 -0.029443
v 7.825805 0.640080 -0.022014
v 7.827680 0.643679 -0.020610
v 7.839270 0.606957 -0.029625
v 7.839399 0.602934 -0.029118
v 7.839499 0.598854 -0.028889
v 7.838988 0.616317 -0.031149
v 7.838933 0.621841 -0.031774
v 7.839434 0.594422 -0.028821
v 7.834035 0.602780 -0.027487
v 7.834238 0.598556 -0.027238
v 7.834145 0.593992 -0.026994
v 7.833127 0.621852 -0.030189
v 7.833272 0.627559 -0.030380
v 7.833367 0.588806 -0.026787
v 7.822443 0.640368 -0.017881
v 7.829281 0.598167 -0.024503
v 7.828309 0.588214 -0.023299
v 7.829223 0.593450 -0.024057
v 7.827786 0.627380 -0.027556
v 7.828082 0.631936 -0.027510
v 7.827658 0.582717 -0.021618
v 7.824409 0.636174 -0.023026
v 7.820845 0.636317 -0.018512
v 7.821065 0.640682 -0.015217
v 7.824812 0.592991 -0.020030
v 7.823445 0.631876 -0.023663
v 7.823013 0.582312 -0.016162
v 7.819611 0.631726 -0.018662
v 7.819418 0.636480 -0.015594
v 7.819686 0.640996 -0.012553
v 7.822952 0.627229 -0.023606
v 7.819360 0.627081 -0.018790
v 7.824006 0.587827 -0.018402
v 7.819944 0.587778 -0.012508
v 7.818542 0.582372 -0.009231
v 7.818232 0.631636 -0.015609
v 7.817991 0.636643 -0.012676
v 7.817194 0.636801 -0.009576
v 7.822967 0.622051 -0.023383
v 7.827697 0.621928 -0.027347
v 7.816645 0.582735 -0.005650
v 7.818246 0.588001 -0.009254
v 7.818000 0.627152 -0.015748
v 7.816852 0.631547 -0.012555
v 7.827845 0.616595 -0.026722
v 7.833235 0.616404 -0.029543
v 7.814749 0.583098 -0.002069
v 7.819263 0.622205 -0.018437
v 7.833495 0.611379 -0.028699
v 7.839128 0.611296 -0.030329
v 7.816547 0.588225 -0.006000
v 7.813448 0.583785 0.001040
v 7.815288 0.588752 -0.002749
v 7.819456 0.617144 -0.017990
v 7.817906 0.622307 -0.015544
v 7.817981 0.593025 -0.008993
v 7.819521 0.592918 -0.011968
v 7.814029 0.589279 0.000502
v 7.812148 0.584473 0.004150
v 7.816778 0.593387 -0.005677
v 7.816034 0.631633 -0.009468
v 7.816640 0.627223 -0.012706
v 7.816549 0.622409 -0.012651
v 7.833774 0.606944 -0.027993
v 7.821062 0.592810 -0.014944
v 7.810431 0.586391 0.009728
v 7.815746 0.627310 -0.009397
v 7.828972 0.602600 -0.024774
v 7.828580 0.606974 -0.025254
v 7.828179 0.611553 -0.025913
v 7.821224 0.597716 -0.016013
v 7.819777 0.597786 -0.013212
v 7.824863 0.597837 -0.020740
v 7.815663 0.622544 -0.009404
v 7.814852 0.627396 -0.006087
v 7.824483 0.602486 -0.021058
v 7.823516 0.611807 -0.022104
v 7.823143 0.616854 -0.022824
v 7.818331 0.597855 -0.010412
v 7.817236 0.598081 -0.007214
v 7.815217 0.631720 -0.006381
v 7.818066 0.602709 -0.010995
v 7.815575 0.593748 -0.002362
v 7.816142 0.598306 -0.004016
v 7.817097 0.602852 -0.007944
v 7.814577 0.632266 0.000414
v 7.815482 0.637089 -0.000016
v 7.819457 0.602620 -0.013709
v 7.812304 0.590740 0.006794
v 7.813906 0.594752 0.004411
v 7.815492 0.636575 0.006619
v 7.817188 0.641186 0.007108
v 7.819004 0.607430 -0.014184
v 7.820848 0.602530 -0.016423
v 7.811287 0.592417 0.012660
v 7.809289 0.588735 0.014957
v 7.816095 0.634885 0.012648
v 7.814687 0.631978 0.006892
v 7.819501 0.644069 0.013840
v 7.820351 0.607295 -0.016884
v 7.823999 0.607079 -0.021514
v 7.808845 0.591438 0.019890
v 7.814996 0.628304 0.012002
v 7.814198 0.627411 0.007044
v 7.814022 0.627514 0.000705
v 7.811061 0.593939 0.018435
v 7.814132 0.622811 0.006829
v 7.813966 0.622863 0.000518
v 7.814778 0.622679 -0.006157
v 7.819848 0.612128 -0.017403
v 7.813045 0.596670 0.017006
v 7.813041 0.595815 0.010781
v 7.814564 0.617542 0.006723
v 7.815703 0.617097 0.012723
v 7.815109 0.617739 -0.006021
v 7.814386 0.617836 0.000502
v 7.815946 0.617591 -0.009184
v 7.818523 0.612293 -0.014661
v 7.818119 0.617294 -0.015169
v 7.816124 0.611569 0.012823
v 7.814895 0.612755 0.000645
v 7.816782 0.617444 -0.012348
v 7.816389 0.612600 -0.008835
v 7.817198 0.612459 -0.011918
v 7.817657 0.607564 -0.011483
v 7.815044 0.612277 0.006823
v 7.815135 0.607632 0.007228
v 7.816098 0.607148 0.013427
v 7.815580 0.612742 -0.005752
v 7.816793 0.607693 -0.008453
v 7.815930 0.607822 -0.005423
v 7.815588 0.603392 0.014405
v 7.815110 0.607900 0.000935
v 7.815049 0.603273 0.001555
v 7.816129 0.602995 -0.004892
v 7.814846 0.603421 0.008000
v 7.814186 0.599477 0.009207
v 7.814562 0.599860 0.015631
v 7.814734 0.598903 0.002689
vn -0.2749 -0.5501 -0.7886
vn -0.0000 -0.9413 0.3375
vn 0.2749 -0.9199 -0.2796
vn 0.1525 -0.9880 -0.0254
vn 0.6556 -0.3773 0.6541
vn -0.5496 -0.3369 0.7645
vn -0.5355 -0.5083 0.6744
vn -0.1525 -0.9880 -0.0254
vn 0.1372 -0.9602 0.2433
vn 0.5355 -0.5083 0.6744
vn 0.2395 -0.9525 0.1880
vn 0.5496 -0.3369 0.7645
vn -0.6597 -0.5129 -0.5493
vn -0.5935 -0.6165 -0.5174
vn 0.1022 -0.9524 -0.2873
vn -0.0619 -0.9083 0.4138
vn 0.8410 -0.4486 0.3026
vn 0.5785 0.0494 0.8142
vn -0.0512 -0.9802 0.1913
vn 0.5711 0.0875 0.8162
vn -0.8982 -0.4184 -0.1346
vn 0.5441 0.1393 0.8273
vn -0.0000 -0.9510 -0.3091
vn 0.5270 0.1634 0.8340
vn 0.6846 0.0709 0.7254
vn 0.7180 -0.0316 0.6953
vn 0.8982 -0.4184 -0.1346
vn -0.5023 -0.4724 0.7243
vn -0.5061 0.1669 0.8462
vn -0.5270 0.1634 0.8340
vn -0.6846 0.0709 0.7254
vn -0.8536 0.4672 0.2303
vn -0.7828 0.5068 0.3611
vn -0.7423 0.6130 0.2705
vn -0.8286 0.5361 0.1611
vn -0.5297 0.8227 0.2061
vn -0.5946 0.7920 0.1384
vn -0.6865 0.6585 0.3085
vn -0.5970 0.7155 0.3628
vn 0.0512 -0.9802 0.1913
vn 0.5061 0.1669 0.8462
vn 0.4686 0.1359 0.8729
vn 0.5023 -0.4724 0.7243
vn 0.9851 -0.0282 0.1698
vn 0.9854 0.0796 0.1502
vn 0.9967 0.0340 0.0742
vn 0.9945 -0.0500 0.0921
vn 0.4752 -0.6467 0.5967
vn 0.1782 -0.9497 0.2574
vn 0.1246 -0.9696 0.2105
vn -0.2262 -0.7544 0.6162
vn -0.1203 -0.9838 0.1326
vn -0.1246 -0.9696 0.2105
vn -0.4752 -0.6467 0.5967
vn -0.0000 -0.0064 1.0000
vn -0.0000 -0.6933 0.7207
vn -0.2417 -0.0217 0.9701
vn -0.8410 -0.4486 0.3026
vn 0.4590 0.1140 0.8811
vn 0.1487 -0.9317 0.3313
vn 0.1248 -0.9119 0.3910
vn 0.9736 0.1369 0.1826
vn 0.9806 -0.1226 0.1532
vn -0.0000 0.8311 0.5561
vn -0.0000 0.9135 0.4069
vn -0.1460 0.9089 0.3905
vn -0.1670 0.8276 0.5359
vn -0.1022 -0.9524 -0.2873
vn 0.3303 -0.4952 0.8036
vn 0.1145 -0.8801 0.4608
vn 0.1203 -0.9838 0.1326
vn 0.1598 -0.9857 0.0543
vn 0.2262 -0.7544 0.6162
vn 0.2417 -0.0217 0.9701
vn -0.0000 -0.9990 0.0437
vn -0.0870 -0.9950 0.0491
vn -0.4255 -0.0052 -0.9049
vn -0.6002 -0.0413 -0.7988
vn -0.5652 -0.0796 -0.8211
vn -0.3923 -0.0576 -0.9180
vn 0.6597 -0.5129 -0.5493
vn 0.1490 -0.9873 0.0557
vn -0.7180 -0.0316 0.6953
vn 0.0870 -0.9950 0.0491
vn -0.1372 -0.9602 0.2433
vn -0.5441 0.1393 0.8273
vn -0.7772 -0.0890 -0.6229
vn -0.7446 -0.0723 -0.6636
vn -0.6541 -0.0696 -0.7532
vn -0.1490 -0.9873 0.0557
vn -0.6556 -0.3773 0.6541
vn -0.5711 0.0875 0.8162
vn -0.1598 -0.9857 0.0543
vn -0.9141 0.0194 -0.4050
vn -0.9102 0.0083 -0.4141
vn -0.8865 -0.0353 -0.4613
vn -0.8857 -0.0463 -0.4619
vn -0.2749 -0.9199 -0.2796
vn 0.2749 -0.5501 -0.7886
vn -0.4686 0.1359 0.8729
vn -0.5785 0.0494 0.8142
vn -0.8537 0.4530 -0.2570
vn -0.8720 0.4465 -0.2007
vn -0.7534 0.6110 -0.2430
vn -0.7223 0.6112 -0.3237
vn -0.4590 0.1140 0.8811
vn 0.0619 -0.9083 0.4138
vn -0.1782 -0.9497 0.2574
vn -0.9806 -0.1226 0.1532
vn -0.2395 -0.9525 0.1880
vn -0.1487 -0.9317 0.3313
vn -0.1248 -0.9119 0.3910
vn -0.1145 -0.8801 0.4608
vn -0.3303 -0.4952 0.8036
vn 0.5935 -0.6165 -0.5174
vn -0.9726 0.1444 0.1824
vn -0.9943 0.0211 -0.1045
vn -0.9844 0.0839 -0.1547
vn -0.9747 0.2211 -0.0325
vn -0.9918 0.1238 0.0329
vn -0.1242 0.9553 0.2683
vn -0.2028 0.9492 0.2405
vn -0.3026 0.8911 0.3380
vn -0.4814 0.8760 0.0307
vn -0.4349 0.8971 0.0776
vn -0.3807 0.4920 0.7829
vn -0.5239 0.4473 0.7249
vn -0.5332 0.1888 0.8247
vn -0.4326 0.2481 0.8668
vn 0.2418 0.9640 -0.1106
vn 0.2582 0.9564 -0.1365
vn 0.1402 0.9781 -0.1539
vn 0.1286 0.9821 -0.1377
vn -0.1286 0.9821 -0.1377
vn -0.1130 0.9858 -0.1240
vn -0.0000 0.9804 -0.1968
vn -0.1402 0.9781 -0.1539
vn -0.0984 0.9889 -0.1111
vn -0.6392 0.4121 0.6493
vn -0.7422 0.3878 0.5466
vn -0.6988 0.2011 0.6864
vn -0.5847 0.1838 0.7901
vn 0.6053 0.6974 -0.3836
vn 0.6714 0.6180 -0.4089
vn 0.6408 0.6043 -0.4734
vn 0.5714 0.6912 -0.4425
vn 0.2724 0.9614 0.0391
vn 0.1815 0.9815 -0.0615
vn 0.1375 0.9897 -0.0408
vn 0.2066 0.9748 0.0846
vn -0.0854 0.9905 -0.1081
vn 0.4404 0.8932 0.0907
vn 0.4775 0.8778 0.0396
vn 0.3524 0.9350 -0.0401
vn 0.3196 0.9475 -0.0128
vn 0.3746 0.9142 0.1547
vn 0.2674 0.9413 0.2061
vn -0.1430 0.9757 -0.1663
vn 0.2703 0.9495 -0.1596
vn 0.1430 0.9757 -0.1663
vn -0.2173 0.0904 0.9719
vn -0.0000 0.0692 0.9976
vn -0.0000 0.3467 0.9380
vn -0.2430 0.3288 0.9126
vn 0.5332 0.8173 0.2184
vn 0.4627 0.8423 0.2764
vn 0.1059 0.9939 -0.0295
vn 0.1608 0.9811 0.1074
vn -0.4374 0.8702 -0.2268
vn -0.5788 0.7854 -0.2195
vn -0.5777 0.7984 -0.1701
vn -0.4334 0.8829 -0.1807
vn -0.0717 0.9921 -0.1026
vn -0.0000 0.6441 -0.7650
vn -0.1232 0.6471 -0.7524
vn -0.1068 0.7421 -0.6617
vn -0.0000 0.7394 -0.6732
vn 0.6456 0.7033 -0.2975
vn 0.6665 0.7113 -0.2232
vn 0.7506 0.6152 -0.2409
vn 0.7171 0.6165 -0.3251
vn -0.7764 0.6030 -0.1833
vn -0.6780 0.7146 -0.1723
vn -0.6725 0.7059 -0.2225
vn -0.2496 0.9040 -0.3472
vn -0.3729 0.8365 -0.4015
vn -0.4097 0.8463 -0.3406
vn -0.2726 0.9129 -0.3037
vn -0.7795 0.6256 0.0314
vn -0.8620 0.5034 0.0594
vn -0.7169 0.6806 0.1509
vn 0.0717 0.9921 -0.1026
vn 0.0357 0.9946 -0.0977
vn 0.0601 0.9979 -0.0227
vn -0.0357 0.9946 -0.0977
vn -0.2674 0.9413 0.2061
vn 0.8131 0.4597 -0.3571
vn 0.7683 0.4679 -0.4368
vn 0.6458 0.6840 0.3392
vn 0.5717 0.8039 0.1640
vn 0.5981 0.7154 0.3611
vn -0.4818 0.7583 -0.4392
vn -0.5648 0.6866 -0.4578
vn -0.6139 0.6885 -0.3862
vn -0.5328 0.7625 -0.3670
vn -0.9657 0.0702 0.2500
vn -0.9118 0.0951 0.3994
vn -0.9533 0.1946 0.2308
vn -0.9847 0.1454 0.0961
vn -0.6348 0.7724 0.0222
vn 0.5243 0.8503 -0.0449
vn 0.5615 0.8181 -0.1240
vn 0.4156 0.8995 -0.1351
vn 0.3862 0.9180 -0.0897
vn -0.9961 -0.0741 -0.0484
vn -0.9945 -0.0500 0.0921
vn -0.9914 -0.0889 0.0959
vn -0.9951 -0.0886 -0.0445
vn -0.0000 0.9957 -0.0929
vn 0.1460 0.9089 0.3905
vn 0.3026 0.8911 0.3380
vn 0.2028 0.9492 0.2405
vn 0.1242 0.9553 0.2683
vn 0.0917 0.9884 0.1213
vn 0.6892 0.7199 -0.0824
vn 0.6348 0.7724 0.0222
vn 0.3410 0.0412 0.9391
vn 0.4326 0.2481 0.8668
vn 0.2430 0.3288 0.9126
vn 0.2173 0.0904 0.9719
vn -0.1519 0.9706 -0.1865
vn -0.2804 0.9411 -0.1888
vn -0.2686 0.9505 -0.1563
vn 0.9118 0.0951 0.3994
vn 0.9533 0.1946 0.2308
vn 0.9085 0.3101 0.2800
vn 0.8701 0.1052 0.4815
vn 0.2806 0.9414 -0.1872
vn 0.1519 0.9706 -0.1865
vn 0.3108 0.4646 -0.8292
vn 0.1428 0.4713 -0.8704
vn 0.1327 0.5593 -0.8182
vn 0.2779 0.5637 -0.7778
vn 0.1670 0.8276 0.5359
vn 0.3365 0.8048 0.4888
vn -0.9085 0.3101 0.2800
vn -0.8224 0.3490 0.4493
vn -0.0498 0.8876 -0.4578
vn -0.1092 0.8910 -0.4407
vn -0.0457 0.9410 -0.3354
vn -0.0111 0.9391 -0.3435
vn 0.4345 0.8821 -0.1820
vn 0.4417 0.8681 -0.2264
vn 0.2862 0.9315 -0.2244
vn 0.1516 0.9648 -0.2148
vn -0.0000 0.9599 0.2805
vn -0.0000 0.9918 0.1278
vn -0.0917 0.9884 0.1213
vn -0.0000 0.7096 0.7046
vn 0.1904 0.6973 0.6910
vn 0.3572 0.6712 0.6496
vn 0.5484 0.6289 0.5511
vn 0.5178 0.7518 0.4083
vn -0.5219 0.3258 -0.7883
vn -0.4863 0.4599 -0.7429
vn -0.3108 0.4646 -0.8292
vn -0.3387 0.3315 -0.8806
vn -0.1516 0.9648 -0.2148
vn -0.3475 0.7567 -0.5537
vn -0.3985 0.6747 -0.6212
vn -0.5041 0.6845 -0.5266
vn -0.4357 0.7587 -0.4843
vn 0.5813 0.7832 -0.2205
vn 0.5670 0.7700 -0.2927
vn 0.4352 0.8551 -0.2819
vn 0.3807 0.4920 0.7829
vn 0.5652 0.4449 0.6948
vn 0.2212 0.5333 0.8165
vn 0.4255 -0.0052 -0.9049
vn 0.2271 0.0257 -0.9735
vn 0.2026 -0.0390 -0.9785
vn 0.3923 -0.0576 -0.9180
vn 0.6411 0.4283 0.6369
vn 0.7056 0.4124 0.5763
vn 0.6887 0.5676 0.4512
vn 0.6336 0.6021 0.4858
vn 0.2846 0.9230 -0.2592
vn 0.1508 0.9600 -0.2361
vn -0.1508 0.9600 -0.2361
vn 0.1545 0.3395 -0.9278
vn 0.3387 0.3315 -0.8806
vn 0.8224 0.3490 0.4493
vn 0.7828 0.5068 0.3611
vn -0.9768 -0.0682 -0.2028
vn -0.9712 -0.0482 -0.2332
vn -0.9974 -0.0245 -0.0675
vn -0.1826 0.8976 -0.4012
vn -0.0846 0.9449 -0.3163
vn -0.0000 0.9998 -0.0191
vn -0.0601 0.9979 -0.0227
vn 0.8536 0.4672 0.2303
vn 0.8286 0.5361 0.1611
vn 0.7423 0.6130 0.2705
vn 0.8620 0.5034 0.0594
vn 0.7795 0.6256 0.0314
vn 0.7169 0.6806 0.1509
vn 0.0854 0.9905 -0.1081
vn 0.9483 -0.0620 0.3113
vn 0.9814 -0.0874 0.1709
vn 0.9914 -0.0889 0.0959
vn 0.9948 -0.0404 0.0931
vn -0.1608 0.9811 0.1074
vn -0.1059 0.9939 -0.0295
vn -0.0000 0.0393 -0.9992
vn -0.2271 0.0257 -0.9735
vn -0.2026 -0.0390 -0.9785
vn -0.0000 -0.0314 -0.9995
vn 0.8137 0.5762 -0.0770
vn -0.1408 0.9544 -0.2631
vn 0.9637 0.2552 0.0783
vn 0.9597 0.2754 -0.0558
vn 0.9001 0.4306 -0.0658
vn 0.9209 0.3827 0.0741
vn -0.6316 0.6007 0.4902
vn -0.4993 0.6428 0.5810
vn -0.4716 0.7674 0.4343
vn 0.2496 0.9040 -0.3472
vn 0.1247 0.9493 -0.2886
vn 0.1408 0.9544 -0.2631
vn 0.2726 0.9129 -0.3037
vn -0.1247 0.9493 -0.2886
vn 0.7722 0.6067 -0.1888
vn 0.6749 0.7148 -0.1833
vn -0.1375 0.9897 -0.0408
vn -0.1096 0.9468 -0.3025
vn -0.4414 0.5747 -0.6892
vn -0.2779 0.5637 -0.7778
vn 0.3793 0.8357 -0.3970
vn 0.4176 0.8413 -0.3432
vn 0.8537 0.4530 -0.2570
vn 0.8720 0.4465 -0.2007
vn 0.5794 0.7947 -0.1809
vn -0.2066 0.9748 0.0846
vn -0.5518 0.0108 -0.8339
vn -0.7246 0.0171 -0.6890
vn -0.7108 0.1545 -0.6862
vn -0.5449 0.1491 -0.8251
vn 0.9415 0.2766 -0.1926
vn -0.9788 -0.0909 -0.1836
vn -0.9794 -0.0873 -0.1823
vn 0.9752 0.1960 0.1031
vn 0.9496 0.3121 0.0281
vn 0.9747 0.2211 -0.0325
vn 0.9918 0.1238 0.0329
vn -0.3412 0.8346 -0.4325
vn -0.3529 0.9221 0.1587
vn -0.4198 0.8585 0.2947
vn -0.0000 0.4715 -0.8818
vn -0.0000 0.5563 -0.8310
vn 0.7108 0.1545 -0.6862
vn 0.5449 0.1491 -0.8251
vn 0.5219 0.3258 -0.7883
vn 0.6753 0.3200 -0.6645
vn -0.8635 0.4484 -0.2310
vn -0.8696 0.4601 -0.1793
vn -0.9047 0.3726 -0.2068
vn -0.8951 0.3675 -0.2525
vn -0.1754 0.9829 -0.0567
vn 0.0984 0.9889 -0.1111
vn 0.1691 0.8234 -0.5417
vn 0.1092 0.8910 -0.4407
vn 0.1826 0.8976 -0.4012
vn 0.2756 0.8317 -0.4820
vn -0.4183 0.8975 -0.1399
vn -0.5615 0.8181 -0.1240
vn -0.5243 0.8503 -0.0449
vn -0.3894 0.9162 -0.0942
vn -0.8484 0.1513 -0.5074
vn -0.7989 0.3099 -0.5154
vn -0.6753 0.3200 -0.6645
vn -0.3365 0.8048 0.4888
vn -0.3572 0.6712 0.6496
vn -0.1904 0.6973 0.6910
vn 0.1130 0.9858 -0.1240
vn -0.2067 0.9749 -0.0827
vn -0.0000 0.8166 -0.5772
vn -0.0000 0.8864 -0.4628
vn 0.0498 0.8876 -0.4578
vn 0.0839 0.8184 -0.5685
vn -0.2514 0.6567 -0.7110
vn 0.5646 0.5890 -0.5782
vn 0.5041 0.6845 -0.5266
vn -0.5641 0.7740 -0.2877
vn -0.4312 0.8585 -0.2775
vn -0.0000 0.5566 0.8308
vn -0.2212 0.5333 0.8165
vn 0.7446 -0.0723 -0.6636
vn 0.6002 -0.0413 -0.7988
vn 0.5652 -0.0796 -0.8211
vn 0.7191 -0.0961 -0.6882
vn -0.5646 0.5890 -0.5782
vn 0.5521 0.1957 0.8105
vn -0.9967 0.0340 0.0742
vn -0.9001 0.4306 -0.0658
vn -0.8137 0.5762 -0.0770
vn 0.5198 0.0136 0.8542
vn -0.2369 0.9660 -0.1040
vn -0.3572 0.9330 -0.0443
vn -0.3213 0.9469 -0.0137
vn 0.6642 0.0213 0.7473
vn 0.5837 0.2006 0.7868
vn -0.6502 0.6994 -0.2967
vn 0.9302 0.2215 -0.2927
vn 0.9306 0.1220 -0.3450
vn 0.9347 0.1154 -0.3362
vn 0.9360 0.2252 -0.2705
vn 0.5066 -0.0034 0.8622
vn 0.6839 -0.0204 0.7293
vn 0.8062 -0.0330 0.5907
vn 0.8434 -0.0231 0.5368
vn -0.6642 0.0213 0.7473
vn -0.8876 -0.0472 -0.4582
vn -0.8560 -0.0624 -0.5131
vn -0.9132 -0.0181 -0.4071
vn 0.9768 -0.0682 -0.2028
vn 0.9712 -0.0482 -0.2332
vn 0.9516 -0.0824 -0.2961
vn 0.9579 -0.0947 -0.2710
vn -0.3296 -0.1177 0.9368
vn -0.5417 -0.1022 0.8343
vn -0.3602 -0.1578 0.9194
vn -0.1195 -0.1107 0.9866
vn -0.5066 -0.0034 0.8622
vn -0.6839 -0.0204 0.7293
vn -0.6721 -0.0189 0.7402
vn 0.6874 0.2112 0.6949
vn 0.8226 0.1225 0.5553
vn -0.8226 0.1225 0.5553
vn 0.2779 -0.1115 0.9541
vn -0.0000 -0.1295 0.9916
vn -0.8179 -0.0413 0.5738
vn 0.8179 -0.0413 0.5738
vn 0.9635 -0.0073 -0.2676
vn 0.9498 0.0753 -0.3036
vn 0.9381 0.0273 -0.3453
vn 0.9463 -0.0459 -0.3201
vn -0.2539 0.9588 -0.1275
vn -0.2779 -0.1115 0.9541
vn -0.0000 -0.1860 0.9826
vn -0.2720 0.9615 0.0397
vn -0.8062 -0.0330 0.5907
vn -0.8434 -0.0231 0.5368
vn -0.7514 -0.1542 0.6416
vn -0.6171 -0.1780 0.7665
vn 0.9880 0.1468 -0.0471
vn 0.9847 0.1454 0.0961
vn -0.3410 0.0412 0.9391
vn -0.5321 -0.0765 -0.8433
vn -0.4862 -0.0170 -0.8737
vn -0.2761 0.0428 -0.9602
vn -0.3176 0.0117 -0.9482
vn -0.9483 -0.0620 0.3113
vn 0.9103 0.0083 -0.4139
vn 0.8867 -0.0354 -0.4611
vn 0.8875 -0.0471 -0.4585
vn 0.9132 -0.0179 -0.4070
vn -0.7709 -0.1867 0.6090
vn -0.8387 -0.1885 0.5109
vn 0.9047 0.3726 -0.2068
vn 0.9596 0.1824 -0.2141
vn 0.9363 0.3314 -0.1162
vn 0.9015 0.4275 -0.0675
vn -0.5198 0.0136 0.8542
vn 0.3296 -0.1177 0.9368
vn 0.1195 -0.1107 0.9866
vn 0.3602 -0.1578 0.9194
vn 0.5417 -0.1022 0.8343
vn -0.6757 0.6118 -0.4113
vn -0.9637 0.2552 0.0783
vn -0.9209 0.3827 0.0741
vn 0.9069 -0.0349 -0.4198
vn 0.8580 -0.0481 -0.5114
vn 0.8590 0.0229 -0.5115
vn 0.9103 0.0299 -0.4128
vn -0.8540 0.2906 -0.4316
vn -0.7683 0.4679 -0.4368
vn -0.7245 0.4683 -0.5058
vn 0.2130 0.9730 -0.0883
vn -0.6892 0.7199 -0.0824
vn -0.7314 0.5415 0.4146
vn -0.9944 0.0583 0.0883
vn -0.9948 -0.0404 0.0931
vn 0.4357 0.7587 -0.4843
vn 0.3475 0.7567 -0.5537
vn 0.3412 0.8346 -0.4325
vn 0.8560 -0.0626 -0.5132
vn 0.8449 -0.0696 -0.5303
vn 0.9284 0.0615 -0.3666
vn -0.9811 0.0480 -0.1872
vn -0.9815 -0.0274 -0.1896
vn -0.9984 -0.0319 -0.0466
vn -0.9973 0.0594 -0.0428
vn -0.2862 0.9315 -0.2244
vn -0.8701 0.1052 0.4815
vn 0.6721 -0.0189 0.7402
vn 0.9974 -0.0245 -0.0675
vn 0.9961 -0.0741 -0.0484
vn 0.2761 0.0428 -0.9602
vn -0.0000 0.0709 -0.9975
vn 0.4942 0.7587 -0.4245
vn 0.5357 0.7595 -0.3691
vn -0.8007 -0.1059 -0.5897
vn -0.6927 -0.1189 -0.7114
vn -0.2846 0.9230 -0.2592
vn 0.0846 0.9449 -0.3163
vn 0.1096 0.9468 -0.3025
vn 0.2277 0.9010 -0.3691
vn -0.6230 0.4634 -0.6302
vn -0.6400 0.6009 -0.4787
vn -0.9597 0.2754 -0.0558
vn 0.9943 0.0211 -0.1045
vn 0.9844 0.0839 -0.1547
vn -0.9257 0.2776 -0.2569
vn -0.9415 0.2766 -0.1926
vn -0.0000 0.0553 -0.9985
vn 0.3176 0.0117 -0.9482
vn 0.9657 0.0702 0.2500
vn 0.9944 0.0583 0.0883
vn -0.2756 0.8317 -0.4820
vn -0.2277 0.9010 -0.3691
vn 0.2514 0.6567 -0.7110
vn 0.1232 0.6471 -0.7524
vn 0.1068 0.7421 -0.6617
vn 0.2160 0.7482 -0.6273
vn -0.9880 0.1468 -0.0471
vn 0.7514 -0.1542 0.6416
vn 0.6171 -0.1780 0.7665
vn 0.7709 -0.1867 0.6090
vn 0.8387 -0.1885 0.5109
vn -0.0000 0.9381 -0.3464
vn 0.0111 0.9391 -0.3435
vn -0.9814 -0.0874 0.1709
vn -0.8590 0.0229 -0.5115
vn -0.1714 0.0086 -0.9852
vn -0.3627 0.0075 -0.9319
vn -0.3565 0.1490 -0.9223
vn -0.1660 0.1569 -0.9736
vn 0.5486 -0.1525 -0.8220
vn 0.5494 -0.1653 -0.8190
vn 0.7130 -0.1533 -0.6842
vn 0.7095 -0.1498 -0.6886
vn -0.9851 -0.0282 0.1698
vn -0.2160 0.7482 -0.6273
vn -0.1691 0.8234 -0.5417
vn -0.8131 0.4597 -0.3571
vn -0.9722 0.1384 -0.1889
vn -0.8961 0.2780 -0.3459
vn -0.1327 0.5593 -0.8182
vn 0.7989 0.3099 -0.5154
vn 0.6230 0.4634 -0.6302
vn 0.7245 0.4683 -0.5058
vn 0.9332 0.1306 -0.3346
vn 0.8994 0.1386 -0.4145
vn 0.8540 0.2906 -0.4316
vn 0.8961 0.2780 -0.3459
vn 0.8484 0.1513 -0.5074
vn 0.0457 0.9410 -0.3354
vn 0.3659 -0.0699 -0.9280
vn 0.1741 -0.0711 -0.9822
vn 0.1714 0.0086 -0.9852
vn 0.3627 0.0075 -0.9319
vn -0.9332 0.1306 -0.3346
vn -0.8994 0.1386 -0.4145
vn -0.9199 0.0545 -0.3883
vn -0.9347 0.1154 -0.3362
vn -0.9284 0.0615 -0.3666
vn -0.0839 0.8184 -0.5685
vn -0.9103 0.0299 -0.4128
vn -0.9402 0.0351 -0.3389
vn 0.9402 0.0351 -0.3389
vn 0.9394 -0.0278 -0.3416
vn -0.8580 -0.0481 -0.5114
vn -0.9069 -0.0349 -0.4198
vn -0.9394 -0.0278 -0.3416
vn -0.9645 0.0386 -0.2611
vn -0.9569 0.1337 -0.2579
vn -0.9654 -0.0246 -0.2595
vn 0.5518 0.0108 -0.8339
vn 0.5534 -0.0676 -0.8302
vn -0.1428 0.4713 -0.8704
vn -0.9635 -0.0073 -0.2676
vn -0.9516 -0.0824 -0.2961
vn -0.9463 -0.0459 -0.3201
vn 0.3985 0.6747 -0.6212
vn 0.9171 -0.0713 -0.3922
vn 0.9218 -0.1026 -0.3738
vn -0.3801 -0.1043 -0.9191
vn -0.1934 -0.0956 -0.9764
vn -0.9365 -0.0874 -0.3397
vn -0.9639 -0.0846 -0.2525
vn 0.4414 0.5747 -0.6892
vn -0.9620 -0.1012 -0.2537
vn -0.9013 -0.0928 -0.4232
vn -0.0000 0.1617 -0.9868
vn -0.1545 0.3395 -0.9278
vn -0.0000 0.3432 -0.9392
vn -0.9330 -0.1126 -0.3419
vn 0.9984 -0.0319 -0.0466
vn 0.9951 -0.0886 -0.0445
vn 0.9794 -0.0873 -0.1823
vn 0.9815 -0.0274 -0.1896
vn -0.9854 0.0796 0.1502
vn 0.4863 0.4599 -0.7429
vn -0.9579 -0.0947 -0.2710
vn 0.7232 -0.0622 -0.6879
vn 0.7246 0.0171 -0.6890
vn -0.9752 0.1960 0.1031
vn -0.9218 -0.1026 -0.3738
vn -0.9275 -0.1143 -0.3558
vn 0.8399 -0.1403 -0.5244
vn 0.8453 -0.1359 -0.5167
vn 0.8957 -0.1231 -0.4272
vn 0.8901 -0.1290 -0.4372
vn 0.5526 -0.1379 -0.8220
vn 0.7192 -0.1230 -0.6839
vn 0.7120 -0.1233 -0.6913
vn 0.8381 -0.1228 -0.5315
vn -0.8957 -0.1231 -0.4272
vn -0.8515 -0.1038 -0.5139
vn -0.8453 -0.1359 -0.5167
vn -0.8399 -0.1403 -0.5244
vn -0.8901 -0.1290 -0.4372
vn -0.9171 -0.0713 -0.3922
vn 0.8388 -0.0956 -0.5360
vn 0.8864 -0.1163 -0.4480
vn 0.8864 -0.0877 -0.4546
vn -0.7232 -0.0622 -0.6879
vn -0.8864 -0.1163 -0.4480
vn -0.8864 -0.0877 -0.4546
vn -0.7130 -0.1533 -0.6842
vn -0.7192 -0.1230 -0.6839
vn 0.9257 0.2776 -0.2569
vn -0.9496 0.3121 0.0281
vn -0.9381 0.0273 -0.3453
vn -0.9498 0.0753 -0.3036
vn -0.9015 0.4275 -0.0675
vn -0.9363 0.3314 -0.1162
vn -0.8381 -0.1228 -0.5315
vn -0.8388 -0.0956 -0.5360
vn -0.5526 -0.1379 -0.8220
vn -0.5494 -0.1653 -0.8190
vn -0.5534 -0.0676 -0.8302
vn -0.9596 0.1824 -0.2141
vn 0.9722 0.1384 -0.1889
vn 0.9569 0.1337 -0.2579
vn -0.7095 -0.1498 -0.6886
vn -0.7120 -0.1233 -0.6913
vn -0.7191 -0.0961 -0.6882
vn -0.8683 -0.0643 -0.4918
vn -0.9360 0.2252 -0.2705
vn -0.5486 -0.1525 -0.8220
vn -0.3705 -0.1684 -0.9134
vn -0.3738 -0.1508 -0.9152
vn -0.9302 0.2215 -0.2927
vn -0.9306 0.1220 -0.3450
vn 0.9199 0.0545 -0.3883
vn 0.9141 0.0194 -0.4050
vn 0.8857 -0.0463 -0.4619
vn 0.8683 -0.0643 -0.4918
vn -0.8451 -0.0696 -0.5301
vn -0.5536 -0.1148 -0.8248
vn 0.1660 0.1569 -0.9736
vn -0.0000 0.0101 -0.9999
vn 0.3801 -0.1043 -0.9191
vn 0.5536 -0.1148 -0.8248
vn 0.9645 0.0386 -0.2611
vn -0.3659 -0.0699 -0.9280
vn -0.1741 -0.0711 -0.9822
vn -0.3679 -0.1425 -0.9189
vn 0.8951 0.3675 -0.2525
vn 0.9639 -0.0846 -0.2525
vn 0.9365 -0.0874 -0.3397
vn 0.9654 -0.0246 -0.2595
vn -0.1773 -0.1385 -0.9743
vn -0.0000 -0.0713 -0.9975
vn -0.0000 -0.1351 -0.9908
vn -0.1831 -0.1639 -0.9693
vn 0.9620 -0.1012 -0.2537
vn 0.9788 -0.0909 -0.1836
vn -0.0000 -0.1603 -0.9871
vn 0.1773 -0.1385 -0.9743
vn 0.1831 -0.1639 -0.9693
vn 0.3565 0.1490 -0.9223
vn 0.5321 -0.0765 -0.8433
vn 0.4862 -0.0170 -0.8737
vn -0.0000 -0.1440 -0.9896
vn -0.1881 -0.1466 -0.9711
vn 0.8515 -0.1038 -0.5139
vn 0.9013 -0.0928 -0.4232
vn -0.0000 -0.0921 -0.9957
vn 0.3705 -0.1684 -0.9134
vn 0.3679 -0.1425 -0.9189
vn 0.1934 -0.0956 -0.9764
vn 0.1881 -0.1466 -0.9711
vn 0.3738 -0.1508 -0.9152
vn 0.9811 0.0480 -0.1872
vn 0.6541 -0.0696 -0.7532
vn 0.6927 -0.1189 -0.7114
vn 0.7772 -0.0890 -0.6229
vn 0.8007 -0.1059 -0.5897
vn 0.9973 0.0594 -0.0428
vn 0.9275 -0.1143 -0.3558
vn 0.8696 0.4601 -0.1793
vn 0.8635 0.4484 -0.2310
vn 0.9330 -0.1126 -0.3419
vt 0.000000 0.000000
s 1
f 1/1/1 2/1/2 3/1/3
f 1/1/1 4/1/4 2/1/2
f 3/1/3 2/1/2 5/1/5
f 54/1/6 74/1/7 67/1/8 2/1/2
f 5/1/5 2/1/2 8/1/9
f 7/1/10 9/1/11 6/1/12
f 8/1/9 2/1/2 10/1/13
f 9/1/11 11/1/14 6/1/12
f 10/1/13 2/1/2 12/1/15
f 11/1/14 13/1/16 6/1/12
f 12/1/15 2/1/2 14/1/17
f 13/1/16 15/1/18 6/1/12
f 14/1/17 2/1/2 16/1/19
f 15/1/18 17/1/20 6/1/12
f 16/1/19 2/1/2 18/1/21
f 17/1/20 19/1/22 6/1/12
f 18/1/21 2/1/2 20/1/23
f 19/1/22 21/1/24 22/1/25
f 19/1/22 22/1/25 6/1/12
f 6/1/12 22/1/25 23/1/26
f 20/1/23 2/1/2 24/1/27
f 61/1/28 64/1/29 60/1/30 53/1/31
f 675/1/32 155/1/33 156/1/34 161/1/35
f 111/1/36 115/1/37 120/1/38 119/1/39
f 24/1/27 2/1/2 30/1/40
f 26/1/41 31/1/42 25/1/43
f 370/1/44 457/1/45 456/1/46 449/1/47
f 27/1/48 33/1/49 34/1/50
f 42/1/51 72/1/52 73/1/53 55/1/54
f 35/1/55 44/1/56 42/1/51 43/1/57
f 30/1/40 2/1/2 36/1/58
f 31/1/42 37/1/59 25/1/43
f 32/1/60 25/1/43 38/1/61
f 32/1/60 39/1/62 33/1/49
f 33/1/49 40/1/63 34/1/50
f 140/1/64 145/1/65 126/1/66 133/1/67
f 36/1/58 2/1/2 45/1/68
f 37/1/59 46/1/69 25/1/43
f 38/1/61 25/1/43 47/1/70
f 46/1/69 47/1/70 25/1/43
f 41/1/71 48/1/72 28/1/73
f 28/1/73 29/1/74 23/1/26 27/1/48
f 50/1/75 56/1/76 42/1/51 44/1/56
f 587/1/77 594/1/78 592/1/79 586/1/80
f 45/1/68 2/1/2 51/1/81
f 48/1/72 52/1/82 28/1/73
f 49/1/83 53/1/31 54/1/6
f 22/1/25 25/1/43 27/1/48 23/1/26
f 52/1/82 57/1/84 28/1/73
f 51/1/81 2/1/2 58/1/85
f 53/1/31 59/1/86 54/1/6
f 53/1/31 60/1/30 59/1/86
f 609/1/87 601/1/88 594/1/78 593/1/89
f 56/1/76 62/1/90 42/1/51
f 58/1/85 2/1/2 63/1/91
f 59/1/86 65/1/92 54/1/6
f 62/1/90 66/1/93 42/1/51
f 623/1/94 627/1/95 618/1/96 617/1/97
f 2/1/2 68/1/98 63/1/91
f 2/1/2 67/1/8 69/1/99
f 2/1/2 69/1/99 68/1/98
f 64/1/29 61/1/28 70/1/100
f 65/1/92 71/1/101 54/1/6
f 66/1/93 72/1/52 42/1/51
f 185/1/102 186/1/103 179/1/104 180/1/105
f 70/1/100 61/1/28 75/1/106
f 71/1/101 76/1/107 54/1/6
f 73/1/53 77/1/108 55/1/54
f 73/1/53 78/1/109 77/1/108
f 32/1/60 33/1/49 27/1/48 25/1/43
f 74/1/7 54/1/6 80/1/110
f 61/1/28 79/1/111 81/1/112
f 61/1/28 81/1/112 82/1/113
f 61/1/28 83/1/114 75/1/106
f 61/1/28 82/1/113 83/1/114
f 54/1/6 84/1/115 80/1/110
f 76/1/107 84/1/115 54/1/6
f 77/1/108 85/1/116 79/1/111
f 710/1/117 715/1/118 713/1/119 712/1/120
f 126/1/66 127/1/121 118/1/122 113/1/123
f 106/1/124 115/1/37 111/1/36 102/1/125
f 146/1/126 148/1/127 223/1/128 222/1/129
f 240/1/130 262/1/131 254/1/132 247/1/133
f 87/1/134 89/1/135 95/1/136
f 87/1/134 95/1/136 94/1/137
f 89/1/135 91/1/138 95/1/136
f 153/1/139 154/1/140 239/1/141 231/1/142
f 338/1/143 371/1/144 366/1/145 358/1/146
f 197/1/147 203/1/148 198/1/149 190/1/150
f 91/1/138 101/1/151 95/1/136
f 225/1/152 270/1/153 233/1/154 202/1/155
f 196/1/156 225/1/152 202/1/155 197/1/147
f 196/1/156 197/1/147 190/1/150 189/1/157
f 94/1/137 95/1/136 104/1/158
f 290/1/159 298/1/160 254/1/132 262/1/131
f 228/1/161 248/1/162 220/1/163 221/1/164
f 224/1/165 225/1/152 196/1/156 218/1/166
f 190/1/150 198/1/149 175/1/167 166/1/168
f 136/1/169 165/1/170 135/1/171 130/1/172
f 101/1/151 108/1/173 95/1/136
f 425/1/174 433/1/175 427/1/176 426/1/177
f 331/1/178 323/1/179 333/1/180 337/1/181
f 179/1/104 181/1/182 174/1/183 173/1/184
f 184/1/185 191/1/186 171/1/187 163/1/188
f 162/1/189 169/1/190 161/1/35 123/1/191
f 175/1/167 176/1/192 167/1/193 160/1/194
f 108/1/173 117/1/195 95/1/136
f 109/1/196 113/1/123 118/1/122
f 376/1/197 384/1/198 371/1/144 337/1/181
f 283/1/199 275/1/200 224/1/165 241/1/201
f 199/1/202 205/1/203 200/1/204 192/1/205
f 679/1/206 258/1/207 673/1/208 674/1/209
f 115/1/37 122/1/210 123/1/191
f 276/1/211 288/1/212 282/1/213 263/1/214
f 697/1/215 702/1/216 689/1/217 692/1/218
f 117/1/195 125/1/219 95/1/136
f 194/1/220 195/1/221 188/1/222 158/1/223
f 158/1/223 188/1/222 166/1/168 159/1/224
f 296/1/225 288/1/212 276/1/211 295/1/226
f 264/1/227 265/1/228 226/1/229 255/1/230
f 104/1/158 138/1/231 131/1/232 105/1/233
f 308/1/234 335/1/235 299/1/236 300/1/237
f 290/1/159 312/1/238 307/1/239 298/1/160
f 415/1/240 502/1/241 421/1/242 416/1/243
f 201/1/244 209/1/245 195/1/221 194/1/220
f 155/1/33 675/1/32 251/1/246 245/1/247
f 417/1/248 424/1/249 410/1/250 408/1/251
f 289/1/252 313/1/253 314/1/254 312/1/238
f 307/1/239 312/1/238 314/1/254 315/1/255
f 104/1/158 95/1/136 138/1/231
f 151/1/256 152/1/257 132/1/258 127/1/121
f 140/1/64 201/1/244 194/1/220 145/1/65
f 140/1/64 208/1/259 207/1/260 201/1/244
f 216/1/261 234/1/262 217/1/263 209/1/245
f 569/1/264 570/1/265 458/1/266 561/1/267
f 138/1/231 95/1/136 143/1/268
f 434/1/269 440/1/270 212/1/271 436/1/272
f 306/1/273 324/1/274 318/1/275 313/1/253
f 227/1/276 274/1/277 234/1/262 216/1/261
f 219/1/278 227/1/276 216/1/261 207/1/260
f 540/1/279 558/1/280 546/1/281 541/1/282
f 281/1/283 286/1/284 284/1/285 280/1/286
f 319/1/287 320/1/288 315/1/255 314/1/254
f 143/1/268 95/1/136 150/1/289
f 151/1/256 158/1/223 159/1/224 152/1/257
f 501/1/290 502/1/241 415/1/240 494/1/291
f 286/1/284 292/1/292 291/1/293 284/1/285
f 707/1/294 711/1/295 710/1/117 709/1/296
f 318/1/275 319/1/287 314/1/254 313/1/253
f 145/1/65 151/1/256 127/1/121 126/1/66
f 430/1/297 409/1/298 410/1/250 424/1/249
f 132/1/258 152/1/257 144/1/299 116/1/300
f 116/1/300 144/1/299 125/1/219 117/1/195
f 156/1/34 123/1/191 161/1/35
f 291/1/293 316/1/301 317/1/302 311/1/303
f 317/1/302 321/1/304 322/1/305 304/1/306
f 189/1/157 190/1/150 166/1/168 188/1/222
f 175/1/167 198/1/149 182/1/307 176/1/192
f 343/1/308 365/1/309 364/1/310 363/1/311
f 110/1/312 132/1/258 116/1/300 107/1/313
f 565/1/314 584/1/315 581/1/316 576/1/317
f 125/1/219 167/1/193 95/1/136
f 327/1/318 296/1/225 322/1/305 321/1/304
f 150/1/289 95/1/136 170/1/319
f 28/1/73 44/1/56 35/1/55 29/1/74
f 334/1/320 352/1/321 329/1/322 328/1/323
f 119/1/39 147/1/324 142/1/325 121/1/326
f 173/1/184 174/1/183 135/1/171 165/1/170
f 167/1/193 176/1/192 95/1/136
f 347/1/327 355/1/328 326/1/329 325/1/330
f 170/1/319 95/1/136 177/1/331
f 275/1/200 295/1/226 276/1/211 270/1/153
f 34/1/50 41/1/71 28/1/73 27/1/48
f 296/1/225 327/1/318 330/1/332 305/1/333
f 176/1/192 182/1/307 95/1/136
f 108/1/173 101/1/151 98/1/334 107/1/313
f 177/1/331 95/1/136 183/1/335
f 458/1/266 570/1/265 445/1/336 452/1/337
f 346/1/338 347/1/327 325/1/330 339/1/339
f 340/1/340 337/1/181 333/1/180 336/1/341
f 179/1/104 186/1/103 181/1/182
f 329/1/322 336/1/341 330/1/332 327/1/318
f 288/1/212 297/1/342 289/1/252 282/1/213
f 109/1/196 118/1/122 110/1/312 100/1/343
f 195/1/221 218/1/166 196/1/156 189/1/157
f 595/1/344 607/1/345 602/1/346 596/1/347
f 329/1/322 352/1/321 345/1/348 336/1/341
f 705/1/349 697/1/215 692/1/218 691/1/350
f 464/1/351 484/1/352 483/1/353 476/1/354
f 199/1/202 191/1/186 437/1/355 436/1/272
f 188/1/222 195/1/221 189/1/157
f 103/1/356 112/1/357 113/1/123 109/1/196
f 290/1/159 262/1/131 282/1/213 289/1/252
f 321/1/304 328/1/323 329/1/322 327/1/318
f 323/1/179 331/1/178 324/1/274 306/1/273
f 502/1/241 451/1/358 444/1/359 421/1/242
f 400/1/360 488/1/361 406/1/362 398/1/363
f 678/1/364 682/1/365 671/1/366 672/1/367
f 197/1/147 202/1/155 203/1/148
f 98/1/334 101/1/151 91/1/138 90/1/368
f 182/1/307 204/1/369 95/1/136
f 379/1/370 388/1/371 380/1/372 361/1/373
f 124/1/374 129/1/375 114/1/376 96/1/377
f 602/1/346 604/1/378 599/1/379 598/1/380
f 134/1/381 141/1/382 139/1/383 133/1/67
f 204/1/369 210/1/384 95/1/136
f 91/1/138 89/1/135 86/1/385 90/1/368
f 394/1/386 401/1/387 395/1/388 387/1/389
f 432/1/390 452/1/337 445/1/336 440/1/270
f 366/1/145 378/1/391 359/1/392 358/1/146
f 171/1/187 192/1/205 172/1/393 164/1/394
f 214/1/395 219/1/278 207/1/260 208/1/259
f 121/1/326 134/1/381 113/1/123 112/1/357
f 164/1/394 172/1/393 165/1/170 136/1/169
f 147/1/324 153/1/139 148/1/127 142/1/325
f 214/1/395 215/1/396 221/1/164 220/1/163
f 528/1/397 534/1/398 532/1/399 526/1/400
f 445/1/336 578/1/401 212/1/271 440/1/270
f 273/1/402 274/1/277 227/1/276 265/1/228
f 710/1/117 712/1/120 703/1/403 709/1/296
f 181/1/182 186/1/103 187/1/404 168/1/405
f 146/1/126 222/1/129 221/1/164 215/1/396
f 220/1/163 248/1/162 255/1/230 226/1/229
f 4/1/4 7/1/10 6/1/12 2/1/2
f 272/1/406 273/1/402 265/1/228 264/1/227
f 88/1/407 97/1/408 92/1/409 86/1/385
f 273/1/402 272/1/406 293/1/410 287/1/411
f 173/1/184 178/1/412 180/1/105 179/1/104
f 370/1/44 449/1/47 364/1/310 365/1/309
f 224/1/165 275/1/200 270/1/153 225/1/152
f 510/1/413 511/1/414 505/1/415 507/1/416
f 272/1/406 303/1/417 302/1/418 293/1/410
f 301/1/419 344/1/420 308/1/234 300/1/237
f 231/1/142 239/1/141 232/1/421
f 633/1/422 610/1/423 618/1/96 632/1/424
f 86/1/385 89/1/135 87/1/134 88/1/407
f 453/1/425 470/1/426 460/1/427 455/1/428
f 235/1/429 236/1/430 243/1/431
f 235/1/429 243/1/431 242/1/432
f 238/1/433 237/1/434 244/1/435
f 285/1/436 294/1/437 292/1/292 286/1/284
f 239/1/141 246/1/438 232/1/421
f 210/1/384 247/1/133 95/1/136
f 266/1/439 255/1/230 248/1/162 256/1/440
f 244/1/435 237/1/434 250/1/441
f 299/1/236 316/1/301 291/1/293 292/1/292
f 292/1/292 294/1/437 300/1/237 299/1/236
f 294/1/437 293/1/410 301/1/419 300/1/237
f 302/1/418 310/1/442 301/1/419 293/1/410
f 247/1/133 254/1/132 95/1/136
f 477/1/443 499/1/444 485/1/445 478/1/446
f 104/1/158 105/1/233 93/1/447 94/1/137
f 249/1/448 257/1/449 256/1/440
f 92/1/409 102/1/125 103/1/356 99/1/450
f 79/1/111 61/1/28 55/1/54 77/1/108
f 253/1/451 259/1/452 260/1/453
f 253/1/451 260/1/453 261/1/454
f 349/1/455 352/1/321 334/1/320 341/1/456
f 229/1/457 228/1/161 221/1/164 222/1/129
f 571/1/458 590/1/459 563/1/460 564/1/461
f 256/1/440 257/1/449 266/1/439
f 259/1/452 267/1/462 260/1/453
f 514/1/463 519/1/464 515/1/465 486/1/466
f 261/1/454 260/1/453 268/1/467
f 260/1/453 267/1/462 269/1/468
f 260/1/453 269/1/468 268/1/467
f 506/1/469 507/1/416 498/1/470 500/1/471
f 96/1/377 114/1/376 106/1/124 97/1/408
f 235/1/429 242/1/432 228/1/161 229/1/457
f 492/1/472 500/1/471 483/1/353 484/1/352
f 230/1/473 236/1/430 235/1/429 229/1/457
f 273/1/402 287/1/411 281/1/283 274/1/277
f 114/1/376 122/1/210 115/1/37 106/1/124
f 271/1/474 277/1/475 278/1/476
f 271/1/474 278/1/476 279/1/477
f 177/1/331 184/1/185 163/1/188 170/1/319
f 200/1/204 206/1/478 180/1/105 178/1/412
f 105/1/233 124/1/374 96/1/377 93/1/447
f 667/1/479 673/1/208 251/1/246 668/1/480
f 411/1/481 472/1/482 403/1/483 404/1/484
f 599/1/379 605/1/485 600/1/486 591/1/487
f 105/1/233 131/1/232 130/1/172 124/1/374
f 130/1/172 135/1/171 129/1/375 124/1/374
f 233/1/154 263/1/214 240/1/130 211/1/488
f 114/1/376 129/1/375 128/1/489 122/1/210
f 120/1/38 156/1/34 155/1/33 149/1/490
f 680/1/491 683/1/492 267/1/462 679/1/206
f 360/1/493 367/1/494 361/1/373 354/1/495
f 524/1/496 527/1/497 515/1/465 519/1/464
f 287/1/411 293/1/410 285/1/436
f 285/1/436 293/1/410 294/1/437
f 87/1/134 94/1/137 93/1/447 88/1/407
f 135/1/171 174/1/183 128/1/489 129/1/375
f 254/1/132 298/1/160 95/1/136
f 281/1/283 287/1/411 285/1/436 286/1/284
f 563/1/460 590/1/459 587/1/77 584/1/315
f 508/1/498 514/1/463 486/1/466 485/1/445
f 203/1/148 211/1/488 210/1/384 204/1/369
f 464/1/351 476/1/354 456/1/46 457/1/45
f 128/1/489 162/1/189 123/1/191 122/1/210
f 295/1/226 275/1/200 304/1/306
f 123/1/191 156/1/34 120/1/38 115/1/37
f 651/1/499 685/1/500 684/1/501 681/1/502
f 90/1/368 99/1/450 100/1/343 98/1/334
f 137/1/503 136/1/169 130/1/172 131/1/232
f 298/1/160 307/1/239 95/1/136
f 258/1/207 259/1/452 253/1/451 252/1/504
f 251/1/246 673/1/208 258/1/207 252/1/504
f 302/1/418 303/1/417 309/1/505
f 302/1/418 309/1/505 310/1/442
f 289/1/252 312/1/238 290/1/159
f 251/1/246 675/1/32 169/1/190 668/1/480
f 307/1/239 315/1/255 95/1/136
f 456/1/46 463/1/506 446/1/507 449/1/47
f 311/1/303 317/1/302 304/1/306
f 253/1/451 250/1/441 237/1/434 232/1/421
f 553/1/508 562/1/509 565/1/314 558/1/280
f 291/1/293 311/1/303 283/1/199 284/1/285
f 338/1/143 358/1/146 353/1/510 332/1/511
f 315/1/255 320/1/288 95/1/136
f 316/1/301 321/1/304 317/1/302
f 226/1/229 265/1/228 227/1/276 219/1/278
f 603/1/512 609/1/87 593/1/89 597/1/513
f 191/1/186 199/1/202 192/1/205 171/1/187
f 163/1/188 171/1/187 164/1/394 157/1/514
f 150/1/289 170/1/319 163/1/188 157/1/514
f 320/1/288 326/1/329 95/1/136
f 253/1/451 232/1/421 246/1/438 252/1/504
f 187/1/404 668/1/480 169/1/190 168/1/405
f 222/1/129 223/1/128 230/1/473 229/1/457
f 283/1/199 311/1/303 304/1/306 275/1/200
f 381/1/515 375/1/516 362/1/517 380/1/372
f 577/1/518 591/1/487 213/1/519 578/1/401
f 92/1/409 99/1/450 90/1/368 86/1/385
f 667/1/479 668/1/480 187/1/404 663/1/520
f 337/1/181 371/1/144 338/1/143 331/1/178
f 330/1/332 336/1/341 333/1/180
f 271/1/474 279/1/477 272/1/406 264/1/227
f 469/1/521 491/1/522 477/1/443 470/1/426
f 55/1/54 61/1/28 53/1/31 49/1/83
f 335/1/235 341/1/456 334/1/320
f 483/1/353 500/1/471 498/1/470 491/1/522
f 258/1/207 679/1/206 267/1/462 259/1/452
f 305/1/333 323/1/179 306/1/273 297/1/342
f 185/1/102 614/1/523 193/1/524 186/1/103
f 557/1/525 562/1/509 553/1/508 554/1/526
f 157/1/514 164/1/394 136/1/169 137/1/503
f 139/1/383 215/1/396 214/1/395 208/1/259
f 342/1/527 348/1/528 341/1/456
f 431/1/529 437/1/355 435/1/530 430/1/297
f 373/1/531 422/1/532 393/1/533 374/1/534
f 662/1/535 674/1/209 667/1/479 663/1/520
f 344/1/420 350/1/536 343/1/308
f 301/1/419 350/1/536 344/1/420
f 301/1/419 351/1/537 350/1/536
f 116/1/300 117/1/195 108/1/173 107/1/313
f 192/1/205 200/1/204 178/1/412 172/1/393
f 435/1/530 437/1/355 191/1/186 184/1/185
f 207/1/260 216/1/261 209/1/245 201/1/244
f 326/1/329 355/1/328 95/1/136
f 350/1/536 351/1/537 356/1/538
f 350/1/536 356/1/538 357/1/539
f 350/1/536 357/1/539 343/1/308
f 436/1/272 212/1/271 205/1/203 199/1/202
f 436/1/272 437/1/355 431/1/529 434/1/269
f 401/1/387 402/1/540 396/1/541 395/1/388
f 183/1/335 435/1/530 184/1/185 177/1/331
f 689/1/217 690/1/542 267/1/462 683/1/492
f 662/1/535 681/1/502 680/1/491 674/1/209
f 28/1/73 57/1/84 50/1/75 44/1/56
f 602/1/346 607/1/345 608/1/543 604/1/378
f 555/1/544 589/1/545 560/1/546 556/1/547
f 509/1/548 548/1/549 482/1/550 504/1/551
f 689/1/217 702/1/216 696/1/552 690/1/542
f 432/1/390 440/1/270 434/1/269 428/1/553
f 428/1/553 434/1/269 431/1/529 429/1/554
f 355/1/328 375/1/516 95/1/136
f 600/1/486 606/1/555 180/1/105 206/1/478
f 337/1/181 340/1/340 376/1/197
f 662/1/535 663/1/520 193/1/524 657/1/556
f 139/1/383 208/1/259 140/1/64 133/1/67
f 431/1/529 430/1/297 424/1/249 429/1/554
f 430/1/297 435/1/530 183/1/335 409/1/298
f 375/1/516 381/1/515 95/1/136
f 606/1/555 613/1/557 614/1/523 185/1/102
f 439/1/558 452/1/337 432/1/390 433/1/175
f 392/1/559 398/1/363 385/1/560 386/1/561
f 578/1/401 213/1/519 205/1/203 212/1/271
f 390/1/562 397/1/563 391/1/564 383/1/565
f 319/1/287 325/1/330 326/1/329 320/1/288
f 397/1/563 399/1/566 392/1/559 391/1/564
f 362/1/517 375/1/516 355/1/328 347/1/327
f 381/1/515 389/1/567 95/1/136
f 537/1/568 544/1/569 530/1/570 529/1/571
f 620/1/572 613/1/557 605/1/485 612/1/573
f 628/1/574 634/1/575 629/1/576 623/1/94
f 577/1/518 598/1/380 599/1/379 591/1/487
f 427/1/176 433/1/175 432/1/390 428/1/553
f 423/1/577 394/1/386 426/1/177 427/1/176
f 401/1/387 394/1/386 423/1/577 417/1/248
f 155/1/33 245/1/247 154/1/140 149/1/490
f 389/1/567 396/1/541 95/1/136
f 604/1/378 612/1/573 605/1/485 599/1/379
f 205/1/203 213/1/519 206/1/478 200/1/204
f 401/1/387 417/1/248 408/1/251 402/1/540
f 396/1/541 402/1/540 95/1/136
f 619/1/578 638/1/579 620/1/572 612/1/573
f 577/1/518 578/1/401 445/1/336 570/1/265
f 404/1/484 405/1/580 412/1/581 411/1/481
f 602/1/346 598/1/380 569/1/264 596/1/347
f 217/1/263 218/1/166 195/1/221 209/1/245
f 402/1/540 408/1/251 95/1/136
f 332/1/511 353/1/510 346/1/338 339/1/339
f 95/1/136 409/1/298 183/1/335
f 95/1/136 410/1/250 409/1/298
f 95/1/136 408/1/251 410/1/250
f 624/1/582 631/1/583 619/1/578 608/1/543
f 639/1/584 638/1/579 619/1/578 631/1/583
f 643/1/585 637/1/586 620/1/572 638/1/579
f 639/1/584 650/1/587 643/1/585 638/1/579
f 637/1/586 657/1/556 193/1/524 614/1/523
f 234/1/262 280/1/286 241/1/201 217/1/263
f 202/1/155 233/1/154 211/1/488 203/1/148
f 396/1/541 389/1/567 388/1/371 395/1/388
f 650/1/587 685/1/500 651/1/499 643/1/585
f 149/1/490 147/1/324 119/1/39 120/1/38
f 651/1/499 657/1/556 637/1/586 643/1/585
f 487/1/588 538/1/589 537/1/568 529/1/571
f 439/1/558 459/1/590 458/1/266 452/1/337
f 166/1/168 175/1/167 160/1/194 159/1/224
f 660/1/591 711/1/295 661/1/592 656/1/593
f 387/1/389 395/1/388 388/1/371 379/1/370
f 160/1/194 167/1/193 125/1/219 144/1/299
f 425/1/174 444/1/359 439/1/558 433/1/175
f 425/1/174 426/1/177 393/1/533 422/1/532
f 359/1/392 360/1/493 353/1/510 358/1/146
f 374/1/534 393/1/533 387/1/389 379/1/370
f 388/1/371 389/1/567 381/1/515 380/1/372
f 263/1/214 282/1/213 262/1/131 240/1/130
f 373/1/531 374/1/534 367/1/494 372/1/594
f 354/1/495 362/1/517 347/1/327 346/1/338
f 374/1/534 379/1/370 361/1/373 367/1/494
f 121/1/326 142/1/325 141/1/382 134/1/381
f 245/1/247 246/1/438 239/1/141 154/1/140
f 361/1/373 380/1/372 362/1/517 354/1/495
f 274/1/277 281/1/283 280/1/286 234/1/262
f 359/1/392 372/1/594 367/1/494 360/1/493
f 353/1/510 360/1/493 354/1/495 346/1/338
f 478/1/446 481/1/595 461/1/596 460/1/427
f 421/1/242 422/1/532 373/1/531 416/1/243
f 581/1/316 586/1/80 585/1/597 580/1/598
f 691/1/350 692/1/218 684/1/501 685/1/500
f 639/1/584 698/1/599 693/1/600 650/1/587
f 359/1/392 378/1/391 377/1/601 372/1/594
f 377/1/601 416/1/243 373/1/531 372/1/594
f 145/1/65 194/1/220 158/1/223 151/1/256
f 684/1/501 692/1/218 689/1/217 683/1/492
f 699/1/602 705/1/349 691/1/350 693/1/600
f 695/1/603 698/1/599 639/1/584 631/1/583
f 707/1/294 709/1/296 697/1/215 705/1/349
f 451/1/358 459/1/590 439/1/558 444/1/359
f 331/1/178 338/1/143 332/1/511 324/1/274
f 523/1/604 556/1/547 465/1/605 517/1/606
f 700/1/607 699/1/602 693/1/600 698/1/599
f 368/1/608 442/1/609 441/1/610 438/1/611
f 703/1/403 704/1/612 696/1/552 702/1/216
f 697/1/215 709/1/296 703/1/403 702/1/216
f 415/1/240 416/1/243 377/1/601 407/1/613
f 421/1/242 444/1/359 425/1/174 422/1/532
f 661/1/592 711/1/295 707/1/294 706/1/614
f 479/1/615 480/1/616 403/1/483 472/1/482
f 703/1/403 712/1/120 708/1/617 704/1/612
f 658/1/618 661/1/592 706/1/614 701/1/619
f 501/1/290 517/1/606 451/1/358 502/1/241
f 473/1/620 475/1/621 468/1/622 467/1/623
f 497/1/624 538/1/589 479/1/615 490/1/625
f 503/1/626 504/1/551 473/1/620 495/1/627
f 296/1/225 305/1/333 297/1/342 288/1/212
f 591/1/487 600/1/486 206/1/478 213/1/519
f 694/1/628 695/1/603 630/1/629 686/1/630
f 630/1/629 695/1/603 631/1/583 624/1/582
f 694/1/628 686/1/630 676/1/631 669/1/632
f 669/1/632 701/1/619 700/1/607 694/1/628
f 660/1/591 715/1/118 710/1/117 711/1/295
f 146/1/126 215/1/396 139/1/383 141/1/382
f 656/1/593 661/1/592 658/1/618 655/1/633
f 496/1/634 495/1/627 474/1/635 489/1/636
f 615/1/637 624/1/582 608/1/543 607/1/345
f 658/1/618 664/1/638 648/1/639 655/1/633
f 653/1/640 686/1/630 630/1/629 654/1/641
f 345/1/348 382/1/642 340/1/340 336/1/341
f 713/1/119 714/1/643 708/1/617 712/1/120
f 249/1/448 256/1/440 248/1/162 228/1/161
f 636/1/644 659/1/645 660/1/591 656/1/593
f 486/1/466 515/1/465 489/1/636 481/1/595
f 428/1/553 429/1/554 423/1/577 427/1/176
f 280/1/286 284/1/285 283/1/199 241/1/201
f 632/1/424 655/1/633 648/1/639 633/1/422
f 687/1/646 714/1/643 713/1/119 688/1/647
f 560/1/546 596/1/347 569/1/264 561/1/267
f 172/1/393 178/1/412 173/1/184 165/1/170
f 664/1/638 670/1/648 647/1/649 648/1/639
f 653/1/640 654/1/641 621/1/650 646/1/651
f 621/1/650 654/1/641 615/1/637 616/1/652
f 97/1/408 106/1/124 102/1/125 92/1/409
f 713/1/119 715/1/118 666/1/653 688/1/647
f 560/1/546 561/1/267 465/1/605 556/1/547
f 465/1/605 561/1/267 458/1/266 459/1/590
f 345/1/348 420/1/654 414/1/655 382/1/642
f 676/1/631 677/1/656 652/1/657 670/1/648
f 647/1/649 670/1/648 652/1/657 649/1/658
f 603/1/512 611/1/659 610/1/423 609/1/87
f 634/1/575 665/1/660 666/1/653 659/1/645
f 671/1/366 688/1/647 666/1/653 665/1/660
f 687/1/646 688/1/647 671/1/366 682/1/365
f 629/1/576 636/1/644 632/1/424 627/1/95
f 645/1/661 646/1/651 625/1/662 640/1/663
f 677/1/656 653/1/640 646/1/651 645/1/661
f 642/1/664 665/1/660 634/1/575 635/1/665
f 642/1/664 672/1/367 671/1/366 665/1/660
f 595/1/344 596/1/347 560/1/546 589/1/545
f 505/1/415 511/1/414 512/1/666
f 508/1/498 513/1/667 514/1/463
f 520/1/668 525/1/669 524/1/496 519/1/464
f 641/1/670 633/1/422 648/1/639 647/1/649
f 666/1/653 715/1/118 660/1/591 659/1/645
f 585/1/597 644/1/671 645/1/661 640/1/663
f 501/1/290 522/1/672 523/1/604 517/1/606
f 168/1/405 169/1/190 162/1/189 128/1/489
f 618/1/96 610/1/423 611/1/659 617/1/97
f 647/1/649 649/1/658 601/1/88 641/1/670
f 610/1/423 641/1/670 601/1/88 609/1/87
f 555/1/544 556/1/547 523/1/604 551/1/673
f 532/1/399 541/1/282 539/1/674 533/1/675
f 308/1/234 344/1/420 343/1/308 342/1/527
f 390/1/562 414/1/655 413/1/676 405/1/580
f 601/1/88 649/1/658 592/1/79 594/1/78
f 255/1/230 277/1/475 271/1/474 264/1/227
f 21/1/24 26/1/41 25/1/43 22/1/25
f 588/1/677 616/1/652 595/1/344 589/1/545
f 588/1/677 589/1/545 555/1/544 583/1/678
f 588/1/677 622/1/679 621/1/650 616/1/652
f 592/1/79 644/1/671 585/1/597 586/1/80
f 652/1/657 677/1/656 645/1/661 644/1/671
f 306/1/273 313/1/253 289/1/252 297/1/342
f 506/1/469 518/1/680 510/1/413 507/1/416
f 443/1/681 450/1/682 412/1/581 418/1/683
f 581/1/316 584/1/315 587/1/77 586/1/80
f 592/1/79 649/1/658 652/1/657 644/1/671
f 102/1/125 111/1/36 112/1/357 103/1/356
f 582/1/684 583/1/678 550/1/685 575/1/686
f 382/1/642 383/1/565 376/1/197 340/1/340
f 582/1/684 626/1/687 625/1/662 622/1/679
f 448/1/688 443/1/681 441/1/610 447/1/689
f 572/1/690 575/1/686 543/1/691 567/1/692
f 656/1/593 655/1/633 632/1/424 636/1/644
f 237/1/434 238/1/433 230/1/473 232/1/421
f 582/1/684 622/1/679 588/1/677 583/1/678
f 550/1/685 551/1/673 530/1/570 544/1/569
f 557/1/525 564/1/461 563/1/460 562/1/509
f 684/1/501 683/1/492 680/1/491 681/1/502
f 493/1/693 529/1/571 530/1/570 522/1/672
f 142/1/325 148/1/127 146/1/126 141/1/382
f 563/1/460 584/1/315 565/1/314 562/1/509
f 481/1/595 489/1/636 474/1/635 461/1/596
f 393/1/533 426/1/177 394/1/386 387/1/389
f 707/1/294 705/1/349 699/1/602 706/1/614
f 550/1/685 583/1/678 555/1/544 551/1/673
f 406/1/362 494/1/291 415/1/240 407/1/613
f 113/1/123 134/1/381 133/1/67 126/1/66
f 547/1/694 554/1/526 553/1/508 552/1/695
f 626/1/687 572/1/690 574/1/696 579/1/697
f 572/1/690 626/1/687 582/1/684 575/1/686
f 468/1/622 475/1/621 471/1/698 466/1/699
f 573/1/700 580/1/598 579/1/697 574/1/696
f 385/1/560 407/1/613 377/1/601 378/1/391
f 406/1/362 407/1/613 385/1/560 398/1/363
f 366/1/145 386/1/561 385/1/560 378/1/391
f 549/1/701 567/1/692 543/1/691 545/1/702
f 658/1/618 701/1/619 669/1/632 664/1/638
f 546/1/281 576/1/317 573/1/700 568/1/703
f 565/1/314 576/1/317 546/1/281 558/1/280
f 543/1/691 575/1/686 550/1/685 544/1/569
f 566/1/704 574/1/696 572/1/690 567/1/692
f 546/1/281 568/1/703 539/1/674 541/1/282
f 539/1/674 568/1/703 566/1/704 559/1/705
f 318/1/275 339/1/339 325/1/330 319/1/287
f 553/1/508 558/1/280 540/1/279 552/1/695
f 537/1/568 545/1/702 543/1/691 544/1/569
f 595/1/344 616/1/652 615/1/637 607/1/345
f 371/1/144 384/1/198 386/1/561 366/1/145
f 540/1/279 541/1/282 532/1/399 534/1/398
f 414/1/655 420/1/654 419/1/706 413/1/676
f 535/1/707 552/1/695 540/1/279 534/1/398
f 547/1/694 552/1/695 535/1/707 542/1/708
f 154/1/140 153/1/139 147/1/324 149/1/490
f 487/1/588 529/1/571 493/1/693 488/1/361
f 605/1/485 613/1/557 606/1/555 600/1/486
f 392/1/559 386/1/561 384/1/198 391/1/564
f 217/1/263 241/1/201 224/1/165 218/1/166
f 528/1/397 536/1/709 535/1/707 534/1/398
f 42/1/51 55/1/54 49/1/83 43/1/57
f 127/1/121 132/1/258 110/1/312 118/1/122
f 392/1/559 399/1/566 400/1/360 398/1/363
f 487/1/588 488/1/361 400/1/360 480/1/616
f 531/1/710 542/1/708 535/1/707 536/1/709
f 423/1/577 429/1/554 424/1/249 417/1/248
f 383/1/565 391/1/564 384/1/198 376/1/197
f 180/1/105 606/1/555 185/1/102
f 403/1/483 480/1/616 400/1/360 399/1/566
f 536/1/709 524/1/496 525/1/669 531/1/710
f 232/1/421 230/1/473 223/1/128 231/1/142
f 397/1/563 404/1/484 403/1/483 399/1/566
f 676/1/631 686/1/630 653/1/640 677/1/656
f 479/1/615 538/1/589 487/1/588 480/1/616
f 651/1/499 681/1/502 662/1/535 657/1/556
f 304/1/306 322/1/305 296/1/225 295/1/226
f 100/1/343 110/1/312 107/1/313 98/1/334
f 405/1/580 404/1/484 397/1/563 390/1/562
f 382/1/642 414/1/655 390/1/562 383/1/565
f 482/1/550 490/1/625 471/1/698 475/1/621
f 530/1/570 551/1/673 523/1/604 522/1/672
f 513/1/667 520/1/668 519/1/464 514/1/463
f 493/1/693 494/1/291 406/1/362 488/1/361
f 471/1/698 472/1/482 411/1/481 466/1/699
f 497/1/624 548/1/549 549/1/701 545/1/702
f 566/1/704 567/1/692 549/1/701 559/1/705
f 512/1/666 513/1/667 508/1/498 505/1/415
f 623/1/94 629/1/576 627/1/95
f 471/1/698 490/1/625 479/1/615 472/1/482
f 579/1/697 640/1/663 625/1/662 626/1/687
f 634/1/575 659/1/645 636/1/644 629/1/576
f 627/1/95 632/1/424 618/1/96
f 138/1/231 143/1/268 137/1/503 131/1/232
f 628/1/574 635/1/665 634/1/575
f 505/1/415 508/1/498 485/1/445 499/1/444
f 419/1/706 438/1/611 418/1/683 413/1/676
f 654/1/641 630/1/629 624/1/582 615/1/637
f 610/1/423 633/1/422 641/1/670
f 498/1/470 507/1/416 505/1/415 499/1/444
f 493/1/693 522/1/672 501/1/290 494/1/291
f 608/1/543 619/1/578 612/1/573 604/1/378
f 539/1/674 559/1/705 509/1/548 533/1/675
f 509/1/548 559/1/705 549/1/701 548/1/549
f 515/1/465 527/1/497 496/1/634 489/1/636
f 119/1/39 121/1/326 112/1/357 111/1/36
f 148/1/127 153/1/139 231/1/142 223/1/128
f 451/1/358 517/1/606 465/1/605 459/1/590
f 620/1/572 637/1/586 614/1/523 613/1/557
f 532/1/399 533/1/675 503/1/626 526/1/400
f 503/1/626 533/1/675 509/1/548 504/1/551
f 413/1/676 418/1/683 412/1/581 405/1/580
f 496/1/634 526/1/400 503/1/626 495/1/627
f 497/1/624 545/1/702 537/1/568 538/1/589
f 585/1/597 640/1/663 579/1/697 580/1/598
f 478/1/446 485/1/445 486/1/466 481/1/595
f 220/1/163 226/1/229 219/1/278 214/1/395
f 193/1/524 663/1/520 187/1/404 186/1/103
f 240/1/130 247/1/133 210/1/384 211/1/488
f 477/1/443 478/1/446 460/1/427 470/1/426
f 349/1/455 420/1/654 345/1/348 352/1/321
f 420/1/654 349/1/455 369/1/711 419/1/706
f 700/1/607 701/1/619 706/1/614 699/1/602
f 524/1/496 536/1/709 528/1/397 527/1/497
f 498/1/470 499/1/444 477/1/443 491/1/522
f 103/1/356 109/1/196 100/1/343 99/1/450
f 159/1/224 160/1/194 144/1/299 152/1/257
f 299/1/236 328/1/323 321/1/304 316/1/301
f 299/1/236 335/1/235 334/1/320 328/1/323
f 461/1/596 474/1/635 467/1/623 462/1/712
f 474/1/635 495/1/627 473/1/620 467/1/623
f 270/1/153 276/1/211 263/1/214 233/1/154
f 571/1/458 597/1/513 593/1/89 590/1/459
f 667/1/479 674/1/209 673/1/208
f 169/1/190 675/1/32 161/1/35
f 573/1/700 576/1/317 581/1/316 580/1/598
f 473/1/620 504/1/551 482/1/550 475/1/621
f 516/1/713 521/1/714 518/1/680 506/1/469
f 335/1/235 308/1/234 342/1/527 341/1/456
f 343/1/308 363/1/311 348/1/528 342/1/527
f 674/1/209 680/1/491 679/1/206
f 348/1/528 369/1/711 349/1/455 341/1/456
f 368/1/608 369/1/711 348/1/528 363/1/311
f 368/1/608 438/1/611 419/1/706 369/1/711
f 174/1/183 181/1/182 168/1/405 128/1/489
f 364/1/310 442/1/609 368/1/608 363/1/311
f 150/1/289 157/1/514 137/1/503 143/1/268
f 441/1/610 443/1/681 418/1/683 438/1/611
f 650/1/587 693/1/600 691/1/350 685/1/500
f 669/1/632 676/1/631 670/1/648 664/1/638
f 482/1/550 548/1/549 497/1/624 490/1/625
f 573/1/700 574/1/696 566/1/704 568/1/703
f 700/1/607 698/1/599 695/1/603 694/1/628
f 332/1/511 339/1/339 318/1/275 324/1/274
f 446/1/507 447/1/689 441/1/610 442/1/609
f 364/1/310 449/1/47 446/1/507 442/1/609
f 454/1/715 450/1/682 443/1/681 448/1/688
f 462/1/712 467/1/623 468/1/622 454/1/715
f 454/1/715 468/1/622 466/1/699 450/1/682
f 450/1/682 466/1/699 411/1/481 412/1/581
f 252/1/504 246/1/438 245/1/247 251/1/246
f 203/1/148 204/1/369 182/1/307 198/1/149
f 461/1/596 462/1/712 455/1/428 460/1/427
f 455/1/428 462/1/712 454/1/715 448/1/688
f 569/1/264 598/1/380 577/1/518 570/1/265
f 453/1/425 455/1/428 448/1/688 447/1/689
f 446/1/507 463/1/506 453/1/425 447/1/689
f 96/1/377 97/1/408 88/1/407 93/1/447
f 456/1/46 476/1/354 469/1/521 463/1/506
f 469/1/521 470/1/426 453/1/425 463/1/506
f 496/1/634 527/1/497 528/1/397 526/1/400
f 593/1/89 594/1/78 587/1/77 590/1/459
f 305/1/333 330/1/332 333/1/180 323/1/179
f 483/1/353 491/1/522 469/1/521 476/1/354
f 492/1/472 516/1/713 506/1/469 500/1/471
f 625/1/662 646/1/651 621/1/650 622/1/679
