# Blender 4.3.2
# www.blender.org
o hair.118
v 7.704995 0.232679 -0.018100
v 7.702208 0.231160 -0.019740
v 7.701921 0.231573 -0.019147
v 7.702602 0.230783 -0.020265
v 7.703113 0.230469 -0.020682
v 7.702558 0.233909 -0.015546
v 7.703102 0.234177 -0.015116
v 7.702123 0.233571 -0.016089
v 7.701636 0.232418 -0.017890
v 7.701662 0.232821 -0.017274
v 7.701726 0.231997 -0.018523
v 7.704995 0.230100 -0.021195
v 7.704337 0.230129 -0.021145
v 7.707781 0.231160 -0.019740
v 7.707387 0.230783 -0.020265
v 7.706876 0.230469 -0.020682
v 7.705641 0.234499 -0.014608
v 7.706275 0.234375 -0.014799
v 7.706887 0.234177 -0.015116
v 7.707432 0.233909 -0.015546
v 7.707866 0.233571 -0.016089
v 7.708328 0.232821 -0.017274
v 7.708353 0.232418 -0.017890
v 7.708263 0.231997 -0.018523
v 7.706286 0.230243 -0.020979
v 7.705652 0.230129 -0.021145
v 7.703703 0.230243 -0.020979
v 7.703714 0.234375 -0.014799
v 7.704348 0.234499 -0.014608
v 7.701818 0.233201 -0.016680
v 7.708069 0.231573 -0.019147
v 7.708171 0.233201 -0.016680
v 7.704995 0.234542 -0.014544
v 7.711079 0.233480 -0.015251
v 7.711380 0.232752 -0.016388
v 7.711429 0.231980 -0.017569
v 7.710495 0.234190 -0.014119
v 7.708620 0.235350 -0.012253
v 7.709664 0.234837 -0.013077
v 7.706234 0.235966 -0.011281
v 7.707448 0.235730 -0.011647
v 7.713848 0.233404 -0.013665
v 7.714281 0.232343 -0.015312
v 7.711794 0.235382 -0.010539
v 7.713004 0.234440 -0.012034
v 7.710269 0.236134 -0.009348
v 7.704995 0.236049 -0.011158
v 7.706793 0.237035 -0.007940
v 7.708560 0.236691 -0.008470
v 7.711256 0.231174 -0.018780
v 7.710884 0.230361 -0.019977
v 7.713821 0.235555 -0.008006
v 7.709594 0.237283 -0.005365
v 7.714347 0.231156 -0.016973
v 7.714094 0.230063 -0.018777
v 7.710333 0.229571 -0.021113
v 7.716462 0.232984 -0.011935
v 7.703756 0.235966 -0.011281
v 7.717077 0.230181 -0.016219
v 7.717005 0.231604 -0.014045
v 7.712760 0.227705 -0.022258
v 7.709578 0.228849 -0.022118
v 7.715384 0.234334 -0.009872
v 7.703197 0.237035 -0.007940
v 7.704995 0.237154 -0.007760
v 7.702541 0.235730 -0.011647
v 7.713554 0.228894 -0.020516
v 7.708600 0.228248 -0.022917
v 7.718126 0.233944 -0.006974
v 7.704995 0.237881 -0.004452
v 7.707308 0.237730 -0.004683
v 7.701369 0.235350 -0.012253
v 7.716050 0.227233 -0.020724
v 7.707469 0.227814 -0.023486
v 7.707942 0.238176 -0.000391
v 7.701430 0.236691 -0.008470
v 7.700396 0.237283 -0.005365
v 7.702681 0.237730 -0.004683
v 7.700325 0.234837 -0.013077
v 7.706254 0.227596 -0.023804
v 7.699720 0.236134 -0.009348
v 7.702048 0.238176 -0.000391
v 7.699494 0.234190 -0.014119
v 7.708595 0.225203 -0.025757
v 7.706826 0.224889 -0.026221
v 7.704995 0.227540 -0.023900
v 7.704995 0.238372 -0.000099
v 7.698910 0.233480 -0.015251
v 7.696986 0.234440 -0.012034
v 7.710244 0.225820 -0.024912
v 7.703735 0.227596 -0.023804
v 7.704995 0.238377 0.004235
v 7.698195 0.235382 -0.010539
v 7.698609 0.232752 -0.016388
v 7.711668 0.226675 -0.023730
v 7.703163 0.224889 -0.026221
v 7.702520 0.227814 -0.023486
v 7.696168 0.235555 -0.008006
v 7.698162 0.236549 -0.006488
v 7.698560 0.231980 -0.017569
v 7.704995 0.224808 -0.026358
v 7.701389 0.228248 -0.022917
v 7.696322 0.236673 -0.002714
v 7.699144 0.237605 -0.001263
v 7.698733 0.231174 -0.018780
v 7.713654 0.224558 -0.024813
v 7.715046 0.225826 -0.022875
v 7.704995 0.221833 -0.028341
v 7.701460 0.238143 0.003887
v 7.699105 0.230361 -0.019977
v 7.717849 0.223226 -0.023432
v 7.702564 0.221943 -0.028169
v 7.700203 0.222277 -0.027753
v 7.701394 0.225203 -0.025757
v 7.704995 0.237814 0.009023
v 7.708529 0.238143 0.003887
v 7.699656 0.229571 -0.021113
v 7.701983 0.218465 -0.030004
v 7.699745 0.225820 -0.024912
v 7.710845 0.237605 -0.001263
v 7.700411 0.228849 -0.022118
v 7.697229 0.227705 -0.022258
v 7.698038 0.223204 -0.026547
v 7.696336 0.224558 -0.024813
v 7.698321 0.226675 -0.023730
v 7.711997 0.237459 0.002830
v 7.713667 0.236673 -0.002714
v 7.711827 0.236549 -0.006488
v 7.696305 0.220115 -0.027763
v 7.699056 0.219016 -0.029209
v 7.713027 0.236798 0.007367
v 7.709049 0.237559 0.008616
v 7.715335 0.236342 0.001050
v 7.716174 0.235435 -0.004650
v 7.704995 0.218326 -0.030239
v 7.701424 0.214877 -0.031380
v 7.704995 0.214702 -0.031664
v 7.709511 0.236284 0.013358
v 7.718300 0.234870 -0.001278
v 7.720282 0.233868 0.002525
v 7.716858 0.235538 0.005254
v 7.707425 0.221943 -0.028169
v 7.708006 0.218465 -0.030004
v 7.704995 0.210581 -0.032453
v 7.708566 0.214877 -0.031380
v 7.720645 0.233121 -0.003975
v 7.718404 0.234232 0.009789
v 7.719485 0.232294 -0.009558
v 7.709786 0.222277 -0.027753
v 7.710933 0.219016 -0.029209
v 7.722301 0.231170 -0.006971
v 7.724993 0.229616 -0.003995
v 7.723041 0.231876 -0.000572
v 7.713993 0.235551 0.012020
v 7.720211 0.230574 -0.012277
v 7.723196 0.229091 -0.010196
v 7.725518 0.230117 0.003364
v 7.722371 0.232398 0.006846
v 7.709881 0.234638 0.017950
v 7.714777 0.233977 0.016641
v 7.720358 0.228776 -0.015094
v 7.711951 0.223204 -0.026547
v 7.719675 0.232665 0.014399
v 7.724119 0.230707 0.011318
v 7.715292 0.232113 0.021171
v 7.723410 0.226914 -0.013567
v 7.719981 0.226889 -0.017972
v 7.716742 0.228705 -0.018475
v 7.713685 0.220115 -0.027763
v 7.716059 0.221580 -0.025794
v 7.725554 0.229013 0.015888
v 7.727642 0.228114 0.007485
v 7.718303 0.218503 -0.026323
v 7.715399 0.216813 -0.028681
v 7.712063 0.215536 -0.030421
v 7.720500 0.220394 -0.023512
v 7.727677 0.227488 -0.000516
v 7.719129 0.225008 -0.020790
v 7.720396 0.214798 -0.026459
v 7.713045 0.211504 -0.031079
v 7.716959 0.212907 -0.029191
v 7.709038 0.210776 -0.032147
v 7.730014 0.225086 0.003183
v 7.728672 0.224618 -0.004638
v 7.725987 0.227152 -0.007691
v 7.723024 0.224665 -0.017007
v 7.718565 0.208072 -0.028840
v 7.709536 0.205701 -0.032229
v 7.732264 0.222602 0.007098
v 7.729601 0.226043 0.011868
v 7.731006 0.221838 -0.001292
v 7.726196 0.224574 -0.011562
v 7.728799 0.221632 -0.008913
v 7.733286 0.218851 0.002374
v 7.730957 0.223683 0.016375
v 7.734027 0.219657 0.011376
v 7.735250 0.215678 0.006446
v 7.720554 0.230879 0.018982
v 7.720964 0.228838 0.023381
v 7.726303 0.226943 0.020635
v 7.728364 0.218624 -0.013284
v 7.725801 0.221957 -0.015525
v 7.731049 0.218472 -0.005892
v 7.733049 0.215142 -0.002556
v 7.729569 0.223254 0.022114
v 7.726165 0.225233 0.024344
v 7.724746 0.219395 -0.019436
v 7.722051 0.222456 -0.020370
v 7.730585 0.215051 -0.010611
v 7.710318 0.232562 0.022361
v 7.710730 0.230182 0.026262
v 7.715404 0.229913 0.025397
v 7.704995 0.232730 0.022630
v 7.704995 0.230254 0.026407
v 7.711017 0.228272 0.029251
v 7.715172 0.227966 0.028680
v 7.720926 0.226947 0.026871
v 7.704995 0.234805 0.018370
v 7.722970 0.216986 -0.023141
v 7.720568 0.225265 0.029706
v 7.714980 0.226540 0.030657
v 7.725905 0.223071 0.027887
v 7.729640 0.221097 0.025630
v 7.704995 0.236503 0.013804
v 7.725346 0.212815 -0.021872
v 7.722496 0.210234 -0.025701
v 7.727252 0.215660 -0.017643
v 7.725412 0.220969 0.030633
v 7.731754 0.221344 0.019784
v 7.700479 0.236284 0.013358
v 7.700940 0.237559 0.008616
v 7.729428 0.211642 -0.015348
v 7.732278 0.218882 0.023225
v 7.734422 0.216533 0.020607
v 7.733540 0.219205 0.017275
v 7.700108 0.234638 0.017950
v 7.696961 0.236798 0.007367
v 7.697992 0.237459 0.002830
v 7.732052 0.216301 0.026514
v 7.729195 0.218699 0.028788
v 7.735165 0.217108 0.014581
v 7.736132 0.214874 0.011889
v 7.699672 0.232562 0.022361
v 7.699259 0.230182 0.026262
v 7.694654 0.236342 0.001050
v 7.724554 0.219094 0.032724
v 7.727904 0.216741 0.031222
v 7.720062 0.223322 0.032141
v 7.694697 0.232113 0.021171
v 7.693815 0.235435 -0.004650
v 7.723153 0.217647 0.034374
v 7.719556 0.222066 0.033694
v 7.725972 0.215049 0.033118
v 7.730867 0.214062 0.029224
v 7.714406 0.225213 0.032455
v 7.695996 0.235551 0.012020
v 7.695212 0.233977 0.016641
v 7.721287 0.216348 0.035449
v 7.718894 0.220562 0.034891
v 7.713421 0.223564 0.034674
v 7.734376 0.213726 0.023894
v 7.711193 0.226428 0.031845
v 7.691585 0.234232 0.009789
v 7.690314 0.232665 0.014399
v 7.716111 0.219307 0.035841
v 7.717409 0.217215 0.036164
v 7.704995 0.225995 0.029258
v 7.704995 0.219351 0.028875
v 7.708006 0.228241 0.029318
v 7.704995 0.228210 0.029386
v 7.693131 0.235538 0.005254
v 7.718906 0.214835 0.036125
v 7.698796 0.226428 0.031845
v 7.696568 0.223564 0.034674
v 7.701983 0.228241 0.029318
v 7.698972 0.228272 0.029251
v 7.689708 0.233868 0.002525
v 7.691689 0.234870 -0.001278
v 7.720840 0.211852 0.035573
v 7.723616 0.213433 0.034684
v 7.694586 0.229913 0.025397
v 7.694817 0.227966 0.028680
v 7.695009 0.226540 0.030657
v 7.687618 0.232398 0.006846
v 7.691863 0.233944 -0.006974
v 7.723041 0.208559 0.034400
v 7.728872 0.212075 0.031440
v 7.689025 0.228838 0.023381
v 7.695583 0.225213 0.032455
v 7.685870 0.230707 0.011318
v 7.684471 0.230117 0.003364
v 7.694605 0.234334 -0.009872
v 7.733325 0.211258 0.026771
v 7.689927 0.223322 0.032141
v 7.690434 0.222066 0.033694
v 7.691095 0.220562 0.034891
v 7.693879 0.219307 0.035841
v 7.686948 0.231876 -0.000572
v 7.689344 0.233121 -0.003975
v 7.693527 0.232984 -0.011935
v 7.736075 0.211145 0.021143
v 7.689422 0.225265 0.029706
v 7.692581 0.217215 0.036164
v 7.684996 0.229616 -0.003995
v 7.690505 0.232294 -0.009558
v 7.687689 0.231170 -0.006971
v 7.736001 0.214160 0.017910
v 7.689063 0.226947 0.026871
v 7.684084 0.223071 0.027887
v 7.684577 0.220969 0.030633
v 7.688702 0.216348 0.035449
v 7.691083 0.214835 0.036125
v 7.689778 0.230574 -0.012277
v 7.736918 0.211894 0.015287
v 7.683825 0.225233 0.024344
v 7.680349 0.221097 0.025630
v 7.685435 0.219094 0.032724
v 7.689149 0.211852 0.035573
v 7.686836 0.217647 0.034374
v 7.736495 0.212775 0.009435
v 7.680420 0.223254 0.022114
v 7.683686 0.226943 0.020635
v 7.682085 0.216741 0.031222
v 7.680795 0.218699 0.028788
v 7.686374 0.213433 0.034684
v 7.686948 0.208559 0.034400
v 7.684018 0.215049 0.033118
v 7.678235 0.221344 0.019784
v 7.679033 0.223683 0.016375
v 7.684436 0.229013 0.015888
v 7.677937 0.216301 0.026514
v 7.679122 0.214062 0.029224
v 7.681309 0.207032 0.031205
v 7.684650 0.205248 0.032499
v 7.683756 0.210241 0.033267
v 7.681117 0.212075 0.031440
v 7.677711 0.218882 0.023225
v 7.675613 0.213726 0.023894
v 7.675567 0.216533 0.020607
v 7.676664 0.211258 0.026771
v 7.682495 0.202180 0.029984
v 7.678607 0.209052 0.029213
v 7.679205 0.204014 0.028623
v 7.676604 0.206165 0.026588
v 7.673914 0.211145 0.021143
v 7.676450 0.219205 0.017275
v 7.674824 0.217108 0.014581
v 7.673988 0.214160 0.017910
v 7.674809 0.208513 0.024066
v 7.677619 0.201410 0.025649
v 7.680726 0.199611 0.026966
v 7.673662 0.206022 0.021311
v 7.675231 0.203606 0.023720
v 7.675962 0.219657 0.011376
v 7.673071 0.211894 0.015287
v 7.673857 0.214874 0.011889
v 7.676498 0.199157 0.022380
v 7.679332 0.197469 0.023592
v 7.674387 0.201311 0.020643
v 7.680388 0.226043 0.011868
v 7.677726 0.222602 0.007098
v 7.674739 0.215678 0.006446
v 7.673494 0.212775 0.009435
v 7.675785 0.197177 0.018899
v 7.678305 0.195681 0.020006
v 7.673079 0.203713 0.018481
v 7.673974 0.199195 0.017380
v 7.672912 0.201497 0.015537
v 7.682347 0.228114 0.007485
v 7.672688 0.209673 0.012694
v 7.673441 0.210649 0.006909
v 7.672704 0.207419 0.010068
v 7.677624 0.194365 0.016365
v 7.672941 0.208747 0.018484
v 7.672534 0.206457 0.015852
v 7.674111 0.197187 0.013623
v 7.673908 0.208117 0.003692
v 7.675080 0.211451 0.000945
v 7.675899 0.194031 0.010632
v 7.677268 0.193638 0.012823
v 7.675558 0.195465 0.015030
v 7.672524 0.204187 0.013171
v 7.676940 0.215142 -0.002556
v 7.675879 0.207499 -0.004074
v 7.676702 0.218851 0.002374
v 7.677073 0.193205 0.009330
v 7.673077 0.201521 0.010118
v 7.673223 0.199319 0.012439
v 7.673274 0.204605 0.006953
v 7.679975 0.225086 0.003183
v 7.678983 0.221838 -0.001292
v 7.676934 0.193111 0.005978
v 7.674693 0.196311 0.008104
v 7.674925 0.195232 0.009116
v 7.674962 0.204179 -0.000759
v 7.674546 0.200724 0.002912
v 7.682312 0.227488 -0.000516
v 7.681317 0.224618 -0.004638
v 7.681190 0.221632 -0.008913
v 7.678940 0.218472 -0.005892
v 7.676795 0.193016 0.002626
v 7.674346 0.198075 0.006397
v 7.676669 0.199846 -0.006227
v 7.681625 0.218624 -0.013284
v 7.683793 0.224574 -0.011562
v 7.679405 0.215051 -0.010611
v 7.677481 0.211336 -0.007559
v 7.684002 0.227152 -0.007691
v 7.686793 0.229091 -0.010196
v 7.678736 0.207467 -0.012570
v 7.677382 0.203227 -0.009163
v 7.676021 0.196598 -0.002308
v 7.689435 0.230879 0.018982
v 7.679837 0.198913 -0.014408
v 7.679355 0.195397 -0.011648
v 7.677487 0.194045 -0.005356
v 7.678254 0.190861 -0.001074
v 7.684188 0.221957 -0.015525
v 7.686579 0.226914 -0.013567
v 7.686965 0.224665 -0.017007
v 7.679176 0.191602 -0.008093
v 7.683263 0.190237 -0.017510
v 7.681733 0.188327 -0.011566
v 7.679926 0.189185 -0.004380
v 7.685244 0.219395 -0.019436
v 7.682737 0.215660 -0.017643
v 7.689631 0.228776 -0.015094
v 7.690008 0.226889 -0.017972
v 7.683805 0.184224 -0.008254
v 7.684591 0.185372 -0.014569
v 7.687664 0.180533 -0.011271
v 7.684643 0.212815 -0.021872
v 7.680561 0.211642 -0.015348
v 7.692913 0.230181 -0.016219
v 7.692984 0.231604 -0.014045
v 7.689037 0.182773 -0.017049
v 7.691275 0.178196 -0.013207
v 7.682599 0.208323 -0.019986
v 7.680956 0.203656 -0.017528
v 7.696141 0.233404 -0.013665
v 7.695708 0.232343 -0.015312
v 7.687961 0.187204 -0.020467
v 7.694034 0.181037 -0.018560
v 7.695282 0.176881 -0.014444
v 7.684278 0.200155 -0.022058
v 7.687494 0.210234 -0.025701
v 7.685689 0.205292 -0.024213
v 7.683363 0.194665 -0.019574
v 7.693344 0.185299 -0.022277
v 7.688066 0.191493 -0.023265
v 7.699130 0.179971 -0.019553
v 7.699799 0.176100 -0.015236
v 7.691424 0.208072 -0.028840
v 7.689593 0.214798 -0.026459
v 7.689986 0.202752 -0.027694
v 7.687019 0.216986 -0.023141
v 7.704995 0.175774 -0.015394
v 7.694932 0.200932 -0.030155
v 7.694084 0.195149 -0.028329
v 7.688826 0.197224 -0.025759
v 7.689489 0.220394 -0.023512
v 7.687939 0.222456 -0.020370
v 7.695642 0.231156 -0.016973
v 7.695915 0.206504 -0.031082
v 7.699960 0.200062 -0.031326
v 7.692140 0.223226 -0.023432
v 7.690860 0.225008 -0.020790
v 7.693501 0.189611 -0.025477
v 7.695896 0.230063 -0.018777
v 7.693247 0.228705 -0.018475
v 7.693939 0.227233 -0.020724
v 7.699519 0.194227 -0.029473
v 7.699206 0.188641 -0.026576
v 7.699101 0.184284 -0.023327
v 7.696435 0.228894 -0.020516
v 7.694943 0.225826 -0.022875
v 7.704995 0.194057 -0.029687
v 7.704995 0.188459 -0.026771
v 7.704995 0.184060 -0.023524
v 7.704995 0.179697 -0.019753
v 7.693931 0.221580 -0.025794
v 7.700453 0.205701 -0.032229
v 7.704995 0.199867 -0.031586
v 7.710783 0.188641 -0.026576
v 7.710887 0.184284 -0.023327
v 7.710860 0.179971 -0.019553
v 7.710191 0.176100 -0.015236
v 7.691687 0.218503 -0.026323
v 7.696944 0.211504 -0.031079
v 7.716645 0.185299 -0.022277
v 7.714708 0.176881 -0.014444
v 7.715955 0.181037 -0.018560
v 7.694590 0.216813 -0.028681
v 7.693031 0.212907 -0.029191
v 7.720953 0.182773 -0.017049
v 7.722029 0.187204 -0.020467
v 7.716488 0.189611 -0.025477
v 7.721923 0.191493 -0.023265
v 7.718714 0.178196 -0.013207
v 7.697926 0.215536 -0.030421
v 7.726726 0.190237 -0.017510
v 7.725399 0.185372 -0.014569
v 7.722325 0.180533 -0.011271
v 7.715905 0.195149 -0.028329
v 7.710470 0.194227 -0.029473
v 7.700952 0.210776 -0.032147
v 7.728256 0.188327 -0.011566
v 7.726185 0.184224 -0.008254
v 7.710029 0.200062 -0.031326
v 7.704995 0.205492 -0.032527
v 7.730813 0.191602 -0.008093
v 7.730635 0.195397 -0.011648
v 7.730063 0.189185 -0.004380
v 7.714074 0.206504 -0.031082
v 7.715057 0.200932 -0.030155
v 7.732502 0.194045 -0.005356
v 7.731735 0.190861 -0.001074
v 7.730152 0.198913 -0.014408
v 7.733320 0.199846 -0.006227
v 7.726625 0.194665 -0.019574
v 7.720003 0.202752 -0.027694
v 7.721163 0.197224 -0.025759
v 7.733968 0.196598 -0.002308
v 7.733195 0.193016 0.002626
v 7.725710 0.200155 -0.022058
v 7.724300 0.205292 -0.024213
v 7.735443 0.200724 0.002912
v 7.735065 0.195232 0.009116
v 7.734090 0.194031 0.010632
v 7.733055 0.193111 0.005978
v 7.735643 0.198075 0.006397
v 7.735296 0.196311 0.008104
v 7.729033 0.203656 -0.017528
v 7.727390 0.208323 -0.019986
v 7.735878 0.197187 0.013623
v 7.732915 0.193205 0.009330
v 7.736913 0.201521 0.010118
v 7.736766 0.199319 0.012439
v 7.731254 0.207467 -0.012570
v 7.732607 0.203227 -0.009163
v 7.732721 0.193638 0.012823
v 7.737077 0.201497 0.015537
v 7.732508 0.211336 -0.007559
v 7.734110 0.207499 -0.004074
v 7.735028 0.204179 -0.000759
v 7.732365 0.194365 0.016365
v 7.734432 0.195465 0.015030
v 7.736081 0.208117 0.003692
v 7.734909 0.211451 0.000945
v 7.736716 0.204605 0.006953
v 7.734205 0.197177 0.018899
v 7.731684 0.195681 0.020006
v 7.736016 0.199195 0.017380
v 7.736548 0.210649 0.006909
v 7.737285 0.207419 0.010068
v 7.737464 0.204187 0.013171
v 7.730658 0.197469 0.023592
v 7.733491 0.199157 0.022380
v 7.735601 0.201311 0.020643
v 7.736911 0.203713 0.018481
v 7.737455 0.206457 0.015852
v 7.737301 0.209673 0.012694
v 7.732370 0.201410 0.025649
v 7.729264 0.199611 0.026966
v 7.736328 0.206022 0.021311
v 7.734759 0.203606 0.023720
v 7.737048 0.208747 0.018484
v 7.727494 0.202180 0.029984
v 7.730784 0.204014 0.028623
v 7.733385 0.206165 0.026588
v 7.735180 0.208513 0.024066
v 7.728680 0.207032 0.031205
v 7.725339 0.205248 0.032499
v 7.731383 0.209052 0.029213
v 7.726233 0.210241 0.033267
v 7.679926 0.189185 -0.004380
v 7.682506 0.194834 -0.003648
v 7.678254 0.190861 -0.001074
v 7.680749 0.198283 0.002271
v 7.676795 0.193016 0.002626
v 7.696697 0.216717 0.001031
v 7.677073 0.193205 0.009330
v 7.676934 0.193111 0.005978
v 7.677268 0.193638 0.012823
v 7.677624 0.194365 0.016365
v 7.678305 0.195681 0.020006
v 7.679332 0.197469 0.023592
v 7.680726 0.199611 0.026966
v 7.689596 0.209448 0.015508
v 7.682495 0.202180 0.029984
v 7.684650 0.205248 0.032499
v 7.686948 0.208559 0.034400
v 7.689149 0.211852 0.035573
v 7.691083 0.214835 0.036125
v 7.692581 0.217215 0.036164
v 7.693879 0.219307 0.035841
v 7.704995 0.216717 0.001031
v 7.704995 0.219351 0.028875
v 7.696568 0.223564 0.034674
v 7.713292 0.216717 0.001031
v 7.713421 0.223564 0.034674
v 7.716111 0.219307 0.035841
v 7.717409 0.217215 0.036164
v 7.718906 0.214835 0.036125
v 7.720840 0.211852 0.035573
v 7.723041 0.208559 0.034400
v 7.725339 0.205248 0.032499
v 7.727494 0.202180 0.029984
v 7.729264 0.199611 0.026966
v 7.730658 0.197469 0.023592
v 7.731684 0.195681 0.020006
v 7.732365 0.194365 0.016365
v 7.732721 0.193638 0.012823
v 7.732915 0.193205 0.009330
v 7.729240 0.198283 0.002271
v 7.733055 0.193111 0.005978
v 7.733195 0.193016 0.002626
v 7.731735 0.190861 -0.001074
v 7.727484 0.194834 -0.003648
v 7.730063 0.189185 -0.004380
v 7.708821 0.206982 -0.035016
v 7.708847 0.206786 -0.039819
v 7.704995 0.207483 -0.037765
v 7.711591 0.206117 -0.036683
v 7.713352 0.204552 -0.034154
v 7.709989 0.205628 -0.032109
v 7.704995 0.207237 -0.034039
v 7.713359 0.204795 -0.039261
v 7.710371 0.205061 -0.043197
v 7.704995 0.205985 -0.043661
v 7.701142 0.206786 -0.039819
v 7.701168 0.206982 -0.035016
v 7.704995 0.206171 -0.031134
v 7.710642 0.203736 -0.029679
v 7.700000 0.205628 -0.032109
v 7.715495 0.202902 -0.037362
v 7.716189 0.200977 -0.041139
v 7.713955 0.203245 -0.042284
v 7.713212 0.201704 -0.045310
v 7.708791 0.203336 -0.046580
v 7.698399 0.206117 -0.036683
v 7.696637 0.204552 -0.034154
v 7.699347 0.203736 -0.029679
v 7.703803 0.204349 -0.028745
v 7.706187 0.204349 -0.028745
v 7.716821 0.200670 -0.035591
v 7.708396 0.199519 -0.049598
v 7.704995 0.202621 -0.047983
v 7.711306 0.200382 -0.047897
v 7.696630 0.204795 -0.039261
v 7.703705 0.201349 -0.026271
v 7.706284 0.201349 -0.026271
v 7.714374 0.202528 -0.031961
v 7.701198 0.203336 -0.046580
v 7.699618 0.205061 -0.043197
v 7.712869 0.197413 -0.048138
v 7.699045 0.200819 -0.027355
v 7.699118 0.197484 -0.025701
v 7.703710 0.198100 -0.024683
v 7.710945 0.200819 -0.027355
v 7.714860 0.199560 -0.029779
v 7.696777 0.201704 -0.045310
v 7.696034 0.203245 -0.042284
v 7.715253 0.199055 -0.044912
v 7.699548 0.193827 -0.024712
v 7.695240 0.196246 -0.028111
v 7.703820 0.194547 -0.023778
v 7.717520 0.197588 -0.033646
v 7.714748 0.196246 -0.028111
v 7.693799 0.200977 -0.041139
v 7.694494 0.202902 -0.037362
v 7.717658 0.198499 -0.039876
v 7.716613 0.196328 -0.044155
v 7.700272 0.190568 -0.024574
v 7.704995 0.191266 -0.023490
v 7.693168 0.200670 -0.035591
v 7.695616 0.202528 -0.031961
v 7.718493 0.195271 -0.038224
v 7.713912 0.194470 -0.047810
v 7.709805 0.193245 -0.050217
v 7.709241 0.196330 -0.050263
v 7.704995 0.188215 -0.024271
v 7.709717 0.190568 -0.024574
v 7.706169 0.194547 -0.023778
v 7.695129 0.199560 -0.029779
v 7.718454 0.191968 -0.036531
v 7.717433 0.194285 -0.031963
v 7.714518 0.190967 -0.046706
v 7.704995 0.195932 -0.051046
v 7.704995 0.199195 -0.050227
v 7.710441 0.193827 -0.024712
v 7.706280 0.198100 -0.024683
v 7.716609 0.190850 -0.030569
v 7.717403 0.192951 -0.042800
v 7.701593 0.199519 -0.049598
v 7.710872 0.197484 -0.025701
v 7.714503 0.187662 -0.045004
v 7.717383 0.189646 -0.041104
v 7.700747 0.196330 -0.050263
v 7.697121 0.197413 -0.048138
v 7.698684 0.200382 -0.047897
v 7.710132 0.189658 -0.049276
v 7.716597 0.186496 -0.039130
v 7.700185 0.193245 -0.050217
v 7.704995 0.192794 -0.051102
v 7.694736 0.199055 -0.044912
v 7.714074 0.192682 -0.026967
v 7.712947 0.189547 -0.026564
v 7.704995 0.189177 -0.050221
v 7.693377 0.196328 -0.044155
v 7.692331 0.198499 -0.039876
v 7.708650 0.187433 -0.025142
v 7.715194 0.187936 -0.029733
v 7.717591 0.188675 -0.034846
v 7.716063 0.186022 -0.033492
v 7.696077 0.194470 -0.047810
v 7.691497 0.195271 -0.038224
v 7.692470 0.197588 -0.033646
v 7.701340 0.187433 -0.025142
v 7.704995 0.185000 -0.026254
v 7.713170 0.185296 -0.029322
v 7.695471 0.190967 -0.046706
v 7.701147 0.183740 -0.028030
v 7.704995 0.181075 -0.030968
v 7.708842 0.183740 -0.028030
v 7.697042 0.189547 -0.026564
v 7.692586 0.192951 -0.042800
v 7.711335 0.186599 -0.026769
v 7.710419 0.182002 -0.031443
v 7.695915 0.192682 -0.026967
v 7.698654 0.186599 -0.026769
v 7.691535 0.191968 -0.036531
v 7.713874 0.183763 -0.032340
v 7.713170 0.182222 -0.035357
v 7.708829 0.180260 -0.034864
v 7.693380 0.190850 -0.030569
v 7.696819 0.185296 -0.029322
v 7.699570 0.182002 -0.031443
v 7.692555 0.194285 -0.031963
v 7.701160 0.180260 -0.034864
v 7.704995 0.179538 -0.036280
v 7.708378 0.180046 -0.039627
v 7.711272 0.180911 -0.037937
v 7.715191 0.184105 -0.037257
v 7.694795 0.187936 -0.029733
v 7.696115 0.183763 -0.032340
v 7.696819 0.182222 -0.035357
v 7.712820 0.182469 -0.040468
v 7.713899 0.184635 -0.042784
v 7.693926 0.186022 -0.033492
v 7.694798 0.184105 -0.037257
v 7.697169 0.182469 -0.040468
v 7.698718 0.180911 -0.037937
v 7.692398 0.188675 -0.034846
v 7.709215 0.181393 -0.042581
v 7.709798 0.183412 -0.045188
v 7.710124 0.186355 -0.047571
v 7.693393 0.186496 -0.039130
v 7.701611 0.180046 -0.039627
v 7.704995 0.180996 -0.043358
v 7.704995 0.179730 -0.040255
v 7.704995 0.185874 -0.048515
v 7.704995 0.182961 -0.046072
v 7.700774 0.181393 -0.042581
v 7.692605 0.189646 -0.041104
v 7.700191 0.183412 -0.045188
v 7.699865 0.186355 -0.047571
v 7.699858 0.189658 -0.049276
v 7.696090 0.184635 -0.042784
v 7.695486 0.187662 -0.045004
vn -0.0000 0.8325 -0.5540
vn -0.1099 0.7794 -0.6169
vn -0.1260 0.7937 -0.5951
vn -0.0886 0.7664 -0.6362
vn -0.0624 0.7556 -0.6520
vn -0.0908 0.8839 -0.4587
vn -0.0711 0.8917 -0.4470
vn -0.1085 0.8732 -0.4752
vn -0.1382 0.8235 -0.5502
vn -0.1346 0.8410 -0.5240
vn -0.1351 0.8080 -0.5735
vn -0.0000 0.7465 -0.6654
vn -0.0287 0.7471 -0.6641
vn 0.1099 0.7794 -0.6169
vn 0.0836 0.7641 -0.6397
vn 0.0565 0.7527 -0.6560
vn 0.0302 0.8998 -0.4353
vn 0.0526 0.8965 -0.4399
vn 0.0711 0.8917 -0.4470
vn 0.0908 0.8839 -0.4587
vn 0.1085 0.8732 -0.4752
vn 0.1346 0.8410 -0.5240
vn 0.1382 0.8235 -0.5502
vn 0.1351 0.8080 -0.5735
vn 0.0427 0.7484 -0.6619
vn 0.0287 0.7471 -0.6641
vn -0.0427 0.7484 -0.6619
vn -0.0526 0.8965 -0.4399
vn -0.0302 0.8998 -0.4353
vn -0.1237 0.8588 -0.4971
vn 0.1260 0.7937 -0.5951
vn 0.1238 0.8588 -0.4971
vn -0.0000 0.9012 -0.4334
vn -0.2412 0.8269 -0.5080
vn -0.2195 0.8592 -0.4622
vn -0.1939 0.8828 -0.4279
vn -0.2502 0.8025 -0.5417
vn -0.2413 0.7836 -0.5724
vn -0.1623 0.9020 -0.4001
vn -0.1018 0.4171 -0.9032
vn -0.2172 0.4252 -0.8786
vn -0.1653 0.5224 -0.8365
vn -0.0726 0.5149 -0.8542
vn 0.9297 0.2554 -0.2652
vn 0.9359 0.1710 -0.3081
vn 0.9066 0.2505 -0.3397
vn 0.9027 0.3248 -0.2821
vn -0.0498 0.9323 -0.3582
vn -0.0000 0.9349 -0.3549
vn -0.0905 0.9260 -0.3665
vn -0.3372 0.8453 -0.4143
vn -0.3639 0.7992 -0.4783
vn -0.2478 0.9122 -0.3263
vn -0.1914 0.9359 -0.2958
vn -0.1260 0.9166 -0.3795
vn 0.6144 0.7515 -0.2403
vn 0.6616 0.6734 -0.3299
vn 0.5461 0.7413 -0.3901
vn 0.5160 0.7985 -0.3100
vn -0.2977 0.8815 -0.3665
vn -0.9572 0.0781 -0.2788
vn -0.9710 -0.0250 -0.2379
vn -0.9734 0.0582 -0.2216
vn -0.9520 0.1762 -0.2503
vn -0.1351 0.9515 -0.2763
vn -0.0000 0.6966 -0.7174
vn -0.0427 0.6978 -0.7151
vn -0.1318 0.2811 -0.9506
vn -0.2675 0.3037 -0.9144
vn -0.0723 0.9619 -0.2638
vn -0.2233 0.7618 -0.6081
vn -0.3838 0.8708 -0.3071
vn -0.3235 0.9119 -0.2526
vn -0.2525 0.9445 -0.2103
vn -0.1782 0.9668 -0.1830
vn -0.0944 0.9816 -0.1661
vn -0.9819 -0.1489 -0.1171
vn -0.9649 -0.2626 -0.0099
vn -0.9730 -0.1987 0.1174
vn -0.9978 -0.0630 -0.0203
vn -0.2385 0.9578 0.1606
vn -0.4457 0.8950 0.0201
vn -0.6039 0.7593 0.2423
vn -0.3362 0.8484 0.4088
vn -0.1947 0.7421 -0.6414
vn 0.3917 0.3442 -0.8533
vn 0.4636 0.1876 -0.8660
vn 0.3129 0.1411 -0.9393
vn 0.2675 0.3037 -0.9144
vn 0.4501 -0.4924 0.7449
vn 0.5951 -0.5754 0.5611
vn 0.7726 -0.3517 0.5285
vn 0.5992 -0.2356 0.7652
vn -0.8651 0.1432 -0.4808
vn -0.9400 0.2956 -0.1704
vn -0.8279 0.4903 -0.2724
vn -0.7636 0.3526 -0.5410
vn -0.3742 0.7652 -0.5239
vn -0.4538 0.7349 -0.5039
vn -0.4506 0.7765 -0.4406
vn -0.3657 0.7407 -0.5636
vn -0.4478 0.6997 -0.5568
vn 0.6989 0.7152 0.0111
vn 0.7366 0.6727 0.0703
vn 0.8481 0.5254 -0.0677
vn 0.8088 0.5779 -0.1091
vn -0.2662 0.8810 0.3911
vn -0.4143 0.8573 0.3057
vn -0.4024 0.8236 0.3998
vn -0.2416 0.8484 0.4710
vn -0.9714 -0.1489 -0.1850
vn -0.9527 -0.2330 -0.1953
vn -0.9188 -0.3756 -0.1213
vn -0.9576 -0.2448 -0.1517
vn -0.0000 0.9659 -0.2591
vn 0.0723 0.9619 -0.2638
vn 0.0498 0.9323 -0.3582
vn 0.0905 0.9260 -0.3665
vn 0.1260 0.9166 -0.3795
vn -0.3589 -0.0839 -0.9296
vn -0.6628 0.0088 -0.7487
vn -0.5854 0.2336 -0.7764
vn -0.3171 0.1514 -0.9362
vn -0.7956 0.5634 0.2225
vn -0.8134 0.4803 0.3282
vn -0.7027 0.5678 0.4287
vn -0.7050 0.6386 0.3084
vn -0.1107 0.7083 -0.6971
vn -0.0762 0.7010 -0.7091
vn -0.4273 0.8255 -0.3688
vn -0.5160 0.7985 -0.3100
vn -0.4653 0.8534 -0.2349
vn 0.3474 -0.0194 -0.9375
vn 0.5247 0.0336 -0.8506
vn -0.0000 0.9871 -0.1600
vn 0.1623 0.9020 -0.4001
vn -0.3451 0.7119 -0.6117
vn -0.4319 0.6655 -0.6087
vn 0.9819 -0.1489 -0.1171
vn 0.9649 -0.2626 -0.0099
vn 0.9403 -0.3184 -0.1204
vn 0.9576 -0.2448 -0.1517
vn 0.7877 0.5022 -0.3569
vn 0.6807 0.6047 -0.4136
vn 0.7597 0.5878 -0.2779
vn 0.9212 0.0720 -0.3823
vn 0.8878 0.1692 -0.4280
vn 0.9730 -0.1987 0.1174
vn 0.8834 -0.3846 0.2676
vn 0.8880 -0.4454 0.1141
vn -0.0000 0.5135 -0.8581
vn -0.0549 0.6155 -0.7862
vn -0.0000 0.6109 -0.7917
vn 0.2860 0.9092 0.3025
vn 0.4241 0.8785 0.2197
vn 0.4274 0.8911 0.1523
vn 0.2985 0.9272 0.2261
vn -0.6727 0.5499 -0.4951
vn -0.7873 0.4359 -0.4361
vn -0.7877 0.5022 -0.3569
vn -0.6807 0.6047 -0.4136
vn 0.0901 0.8494 0.5200
vn 0.0776 0.8271 0.5567
vn 0.2227 0.8173 0.5315
vn 0.2416 0.8484 0.4710
vn 0.1914 0.9359 -0.2958
vn 0.2478 0.9122 -0.3263
vn 0.1170 0.9913 -0.0607
vn 0.2212 0.9718 -0.0819
vn 0.1782 0.9668 -0.1830
vn 0.0944 0.9816 -0.1661
vn -0.0000 0.9986 -0.0530
vn 0.9572 0.0781 -0.2788
vn 0.9421 -0.0271 -0.3342
vn 0.2977 0.8815 -0.3665
vn 0.1939 0.8828 -0.4279
vn 0.9965 0.0060 0.0834
vn 0.9788 0.0846 0.1866
vn 0.9353 -0.0691 0.3470
vn 0.9623 -0.1387 0.2341
vn -0.1797 0.6466 -0.7414
vn -0.1137 0.6297 -0.7685
vn 0.0427 0.6978 -0.7151
vn 0.9935 0.0314 -0.1098
vn 0.9924 0.1202 -0.0271
vn 0.9978 -0.0630 -0.0203
vn -0.1170 0.9913 -0.0607
vn -0.1383 0.9891 0.0511
vn -0.0000 0.9982 0.0608
vn 0.4478 0.6997 -0.5568
vn 0.4319 0.6655 -0.6087
vn 0.3451 0.7119 -0.6117
vn 0.3657 0.7407 -0.5636
vn -0.2486 0.6667 -0.7026
vn -0.1543 0.7225 -0.6739
vn 0.0549 0.6155 -0.7862
vn 0.0762 0.7010 -0.7091
vn 0.1137 0.6297 -0.7685
vn 0.3372 0.8453 -0.4143
vn 0.3639 0.7992 -0.4783
vn 0.2412 0.8269 -0.5080
vn 0.2195 0.8592 -0.4622
vn 0.1107 0.7083 -0.6971
vn 0.3118 0.9430 -0.1159
vn 0.2525 0.9445 -0.2103
vn 0.3952 0.9032 -0.1675
vn 0.3235 0.9119 -0.2526
vn -0.3996 0.6334 -0.6626
vn -0.4843 0.5585 -0.6734
vn -0.5208 0.6036 -0.6036
vn -0.3088 0.6902 -0.6544
vn -0.3395 0.5950 -0.7285
vn 0.1561 0.7233 -0.6726
vn 0.2486 0.6667 -0.7026
vn 0.1797 0.6466 -0.7414
vn 0.0726 0.5149 -0.8542
vn 0.5902 0.4521 -0.6688
vn 0.7012 0.3151 -0.6396
vn 0.5992 0.2491 -0.7609
vn 0.5035 0.3963 -0.7677
vn 0.1383 0.9891 0.0511
vn 0.2630 0.9645 0.0244
vn -0.6989 0.7152 0.0111
vn -0.6648 0.7466 -0.0246
vn -0.7670 0.6275 -0.1338
vn -0.8088 0.5779 -0.1091
vn -0.4197 0.5042 -0.7547
vn -0.9421 -0.0271 -0.3342
vn -0.9503 -0.1111 -0.2908
vn 0.1653 0.5224 -0.8365
vn -0.1363 0.9214 0.3640
vn -0.1145 0.8816 0.4580
vn -0.0000 0.8756 0.4830
vn -0.0000 0.9220 0.3873
vn -0.1525 0.9725 0.1759
vn -0.0000 0.9815 0.1914
vn 0.2172 0.4252 -0.8786
vn 0.1018 0.4171 -0.9032
vn -0.0000 0.4182 -0.9084
vn 0.4506 0.7765 -0.4406
vn 0.4273 0.8255 -0.3688
vn 0.2641 0.5522 -0.7908
vn -0.6431 0.5022 -0.5781
vn -0.5902 0.4521 -0.6688
vn -0.8005 -0.5703 -0.1840
vn -0.8556 -0.4932 -0.1569
vn -0.8912 -0.3805 -0.2469
vn -0.8507 -0.4551 -0.2629
vn -0.1582 0.5715 0.8052
vn 0.2233 0.7736 0.5931
vn 0.3088 0.6902 -0.6544
vn 0.1978 0.7433 -0.6390
vn 0.2233 0.7618 -0.6081
vn 0.3395 0.5950 -0.7285
vn 0.5646 0.8167 0.1192
vn 0.5484 0.8334 0.0686
vn 0.8769 0.4127 0.2465
vn 0.9325 0.3226 0.1624
vn 0.9018 0.4246 0.0799
vn 0.8559 0.4946 0.1510
vn -0.3118 0.9430 -0.1159
vn -0.3698 0.9290 -0.0163
vn -0.2630 0.9645 0.0244
vn -0.2212 0.9718 -0.0819
vn 0.4538 0.7349 -0.5039
vn 0.3742 0.7652 -0.5239
vn 0.4197 0.5042 -0.7547
vn 0.3298 0.4544 -0.8275
vn 0.5136 0.8580 0.0049
vn 0.6648 0.7466 -0.0246
vn 0.6108 0.7877 -0.0805
vn -0.2922 0.9469 0.1340
vn -0.4097 0.9091 0.0758
vn 0.1318 0.2811 -0.9506
vn -0.3952 0.9032 -0.1675
vn 0.1525 0.9725 0.1759
vn 0.3996 0.6334 -0.6626
vn -0.0000 0.2751 -0.9614
vn 0.1508 0.1117 -0.9822
vn -0.0000 0.1016 -0.9948
vn 0.8830 0.4468 0.1437
vn 0.9288 0.2465 0.2767
vn 0.9946 0.0872 -0.0570
vn 0.9400 0.2956 -0.1704
vn -0.5136 0.8580 0.0049
vn -0.5484 0.8334 0.0686
vn -0.4274 0.8911 0.1523
vn -0.2985 0.9272 0.2261
vn -0.6144 0.7515 -0.2403
vn -0.5470 0.8233 -0.1518
vn -0.7646 -0.1154 -0.6340
vn -0.7902 -0.2147 -0.5740
vn -0.8988 -0.1174 -0.4222
vn -0.8725 -0.0227 -0.4881
vn 0.7956 0.5634 0.2225
vn 0.8134 0.4803 0.3282
vn 0.3724 -0.3105 -0.8746
vn 0.5903 -0.2142 -0.7782
vn 0.5840 -0.3507 -0.7321
vn 0.3611 -0.4640 -0.8089
vn 0.9520 0.1762 -0.2503
vn -0.5461 0.7413 -0.3901
vn -0.6616 0.6734 -0.3299
vn -0.7726 -0.3517 0.5285
vn -0.8337 -0.4922 0.2502
vn -0.6485 -0.6783 0.3455
vn -0.5950 -0.5754 0.5611
vn -0.7597 0.5878 -0.2779
vn -0.6980 0.6930 -0.1805
vn -0.6108 0.7877 -0.0805
vn -0.4646 0.8824 -0.0747
vn -0.4241 0.8785 0.2197
vn -0.2860 0.9092 0.3025
vn -0.8634 0.3311 -0.3806
vn -0.9066 0.2505 -0.3397
vn -0.9027 0.3248 -0.2821
vn -0.8609 0.4031 -0.3105
vn -0.5646 0.8167 0.1192
vn -0.1618 -0.6987 -0.6968
vn -0.1535 -0.7408 -0.6539
vn -0.3272 -0.7176 -0.6149
vn -0.3429 -0.6777 -0.6505
vn 0.7027 0.5678 0.4287
vn 0.6877 0.4519 0.5683
vn 0.7996 0.3535 0.4855
vn -0.5427 0.6437 -0.5395
vn -0.5534 0.6886 -0.4686
vn -0.2641 0.5522 -0.7908
vn -0.3298 0.4544 -0.8275
vn -0.7366 0.6727 0.0703
vn -0.5789 0.7916 0.1955
vn -0.3917 0.3442 -0.8533
vn -0.5035 0.3963 -0.7677
vn 0.5411 0.5645 0.6233
vn 0.5488 0.6577 0.5161
vn -0.5992 0.2491 -0.7609
vn -0.7012 0.3151 -0.6396
vn -0.3511 -0.5911 -0.7261
vn -0.1528 -0.6219 -0.7680
vn -0.7603 0.3759 -0.5298
vn -0.8412 0.2602 -0.4740
vn -0.3129 0.1411 -0.9393
vn -0.4636 0.1876 -0.8660
vn -0.8334 0.4989 -0.2380
vn -0.8765 0.4285 -0.2195
vn 0.1351 0.9515 -0.2763
vn -0.5247 0.0336 -0.8506
vn -0.3474 -0.0194 -0.9375
vn -0.6762 0.1043 -0.7293
vn -0.1508 0.1117 -0.9822
vn -0.1585 -0.0582 -0.9856
vn -0.1516 0.9476 0.2812
vn -0.0000 0.9534 0.3018
vn -0.8481 0.5254 -0.0677
vn -0.9097 0.3641 -0.1995
vn 0.6980 0.6930 -0.1805
vn -0.7715 0.6181 0.1508
vn -0.5846 0.7546 0.2981
vn -0.8826 0.4702 -0.0003
vn -0.5513 0.7232 0.4160
vn -0.5488 0.6577 0.5161
vn -0.9403 -0.3184 -0.1204
vn -0.8731 -0.4871 -0.0227
vn -0.8880 -0.4454 0.1141
vn 0.3914 0.7845 0.4811
vn 0.3783 0.7295 0.5699
vn 0.5513 0.7232 0.4160
vn -0.3914 0.7845 0.4811
vn 0.5846 0.7546 0.2981
vn 0.7050 0.6386 0.3084
vn -0.0000 0.8388 0.5444
vn 0.1145 0.8816 0.4580
vn -0.9359 0.1710 -0.3081
vn -0.9297 0.2554 -0.2652
vn -0.0901 0.8494 0.5200
vn 0.9469 0.3201 -0.0310
vn 0.9663 0.2352 -0.1043
vn 0.9369 0.3086 -0.1642
vn 0.8826 0.4702 -0.0003
vn -0.2227 0.8173 0.5315
vn -0.0776 0.8271 0.5567
vn -0.3783 0.7295 0.5699
vn -0.2233 0.7736 0.5931
vn 0.1582 0.5715 0.8052
vn -0.7844 0.1855 -0.5918
vn -0.9091 -0.2090 -0.3603
vn -0.6877 0.4519 0.5683
vn -0.5411 0.5645 0.6233
vn -0.3731 0.6681 0.6438
vn -0.9369 0.3086 -0.1642
vn 0.1516 0.9476 0.2812
vn 0.8351 0.0799 -0.5442
vn 0.8725 -0.0227 -0.4881
vn 0.7646 -0.1154 -0.6340
vn 0.7269 -0.0151 -0.6866
vn 0.9825 -0.0612 -0.1757
vn -0.8559 0.4946 0.1510
vn -0.8769 0.4127 0.2465
vn 0.7715 0.6181 0.1508
vn -0.9018 0.4246 0.0799
vn 0.1363 0.9214 0.3640
vn 0.2922 0.9469 0.1340
vn -0.7996 0.3535 0.4855
vn 0.8644 -0.3175 0.3898
vn -0.9325 0.3226 0.1624
vn -0.9663 0.2352 -0.1043
vn -0.9469 0.3201 -0.0310
vn 0.4653 0.8534 -0.2349
vn 0.3838 0.8708 -0.3071
vn -0.5226 0.4366 0.7323
vn -0.6377 0.3033 0.7081
vn -0.7356 0.1980 0.6478
vn 0.3426 -0.1493 0.9275
vn 0.3905 0.0820 0.9170
vn 0.2317 0.1117 0.9663
vn -0.0000 -0.1237 0.9923
vn -0.2236 0.7383 0.6363
vn 0.2662 0.8810 0.3911
vn 0.2437 -0.9527 -0.1819
vn 0.3194 -0.8409 -0.4369
vn 0.5898 -0.7592 -0.2752
vn 0.4484 -0.8925 -0.0484
vn 0.3698 0.9290 -0.0163
vn 0.4646 0.8824 -0.0747
vn -0.5555 0.1557 0.8168
vn -0.4520 0.2875 0.8444
vn -0.3571 0.5817 0.7308
vn -0.2816 0.3932 0.8753
vn 0.9091 -0.2090 -0.3603
vn 0.8912 -0.3805 -0.2469
vn 0.8507 -0.4551 -0.2629
vn 0.7868 -0.3639 -0.4985
vn -0.0234 0.5484 0.8359
vn -0.4178 0.0152 0.9084
vn -0.3220 0.1503 0.9347
vn 0.4520 0.2875 0.8444
vn 0.2816 0.3932 0.8753
vn 0.3220 0.1503 0.9347
vn 0.3571 0.5817 0.7308
vn 0.0234 0.5484 0.8359
vn -0.8766 0.2715 0.3974
vn -0.8194 0.1112 0.5623
vn 0.2236 0.7383 0.6363
vn 0.7670 0.6275 -0.1338
vn 0.4143 0.8573 0.3057
vn 0.1774 0.3129 0.9331
vn 0.2151 0.2258 0.9501
vn -0.2284 0.9514 -0.2067
vn -0.0000 0.9969 -0.0789
vn -0.0000 0.0295 0.9996
vn -0.0000 0.1136 0.9935
vn 0.0090 0.8244 0.5659
vn -0.0000 0.5565 0.8309
vn -0.0090 0.8244 0.5659
vn 0.4097 0.9091 0.0758
vn -0.3270 -0.0464 0.9439
vn -0.2579 0.1037 0.9606
vn -0.0000 0.9722 0.2342
vn -0.0000 0.8909 0.4542
vn -0.0000 -0.3640 0.9314
vn 0.2482 -0.4202 0.8728
vn 0.5470 0.8233 -0.1518
vn 0.8868 0.0209 0.4618
vn 0.7784 -0.1440 0.6111
vn 0.8306 -0.2419 0.5016
vn -0.6312 0.0569 0.7735
vn -0.4917 -0.0806 0.8670
vn -0.7139 -0.5856 0.3839
vn -0.5960 -0.6730 0.4380
vn -0.5866 -0.5944 0.5501
vn -0.6966 -0.5108 0.5038
vn 0.4024 0.8236 0.3998
vn 0.7902 -0.2147 -0.5740
vn 0.8988 -0.1174 -0.4222
vn -0.7104 -0.0430 0.7025
vn 0.8765 0.4285 -0.2195
vn 0.8334 0.4989 -0.2380
vn -0.1774 0.3129 0.9331
vn 0.5226 0.4366 0.7323
vn -0.9376 0.1800 0.2975
vn -0.8868 0.0209 0.4618
vn -0.5650 -0.5083 -0.6499
vn -0.5409 -0.6390 -0.5470
vn -0.2151 0.2258 0.9501
vn 0.2579 0.1037 0.9606
vn 0.9376 0.1800 0.2975
vn -0.5004 -0.6910 -0.5217
vn 0.8609 0.4031 -0.3105
vn 0.3731 0.6681 0.6438
vn -0.9924 0.1202 -0.0271
vn -0.9750 0.2133 0.0625
vn -0.3912 0.6922 0.6065
vn -0.2270 0.7312 0.6433
vn 0.3982 -0.1476 0.9054
vn 0.4917 -0.0806 0.8670
vn 0.4178 0.0152 0.9084
vn 0.3270 -0.0464 0.9439
vn 0.7104 -0.0430 0.7025
vn 0.5606 -0.1935 0.8052
vn 0.6219 -0.3104 0.7190
vn -0.7323 -0.5664 -0.3780
vn -0.6828 -0.6458 -0.3416
vn 0.5789 0.7916 0.1955
vn -0.5645 -0.4983 0.6580
vn -0.6683 -0.4227 0.6122
vn 0.5555 0.1557 0.8168
vn 0.6312 0.0569 0.7735
vn 0.7356 0.1980 0.6478
vn 0.6377 0.3033 0.7081
vn 0.4641 -0.2598 0.8468
vn 0.8194 0.1112 0.5623
vn -0.7800 -0.6147 0.1169
vn -0.7173 -0.4499 0.5320
vn -0.7176 -0.4445 0.5361
vn -0.7861 -0.5556 0.2707
vn 0.8766 0.2715 0.3974
vn -0.5219 -0.3784 0.7645
vn -0.6219 -0.3104 0.7190
vn -0.5606 -0.1935 0.8052
vn -0.8644 -0.3175 0.3898
vn -0.8834 -0.3846 0.2676
vn 0.2502 0.8025 -0.5417
vn 0.6683 -0.4227 0.6122
vn 0.5219 -0.3784 0.7645
vn 0.5645 -0.4983 0.6580
vn 0.6966 -0.5108 0.5038
vn 0.9503 -0.1111 -0.2908
vn 0.9192 -0.3167 -0.2342
vn 0.9750 0.2133 0.0625
vn 0.5866 -0.5944 0.5501
vn 0.2323 -0.7209 0.6530
vn -0.0000 -0.6438 0.7652
vn 0.9097 0.3641 -0.1995
vn -0.8830 0.4468 0.1437
vn -0.7764 0.6302 -0.0014
vn 0.7139 -0.5856 0.3839
vn 0.5960 -0.6730 0.4380
vn -0.9735 0.1392 -0.1816
vn 0.9735 0.1392 -0.1816
vn 0.5888 -0.7455 0.3123
vn 0.7113 -0.6609 0.2394
vn 0.6762 0.1043 -0.7293
vn 0.8279 0.4903 -0.2724
vn 0.7636 0.3526 -0.5410
vn 0.5909 0.5728 -0.5681
vn 0.6422 0.6755 -0.3622
vn -0.9825 -0.0612 -0.1757
vn 0.9734 0.0582 -0.2216
vn -0.5888 -0.7455 0.3123
vn -0.6653 -0.7388 0.1078
vn -0.5583 -0.8041 0.2044
vn 0.6653 -0.7388 0.1078
vn 0.8731 -0.4871 -0.0227
vn -0.7113 -0.6609 0.2394
vn 0.4843 0.5585 -0.6734
vn 0.9710 -0.0250 -0.2379
vn -0.5212 -0.8506 0.0694
vn -0.7269 -0.0151 -0.6866
vn -0.8351 0.0799 -0.5442
vn -0.5398 -0.8405 0.0461
vn 0.9714 -0.1489 -0.1850
vn -0.4471 0.4870 -0.7503
vn -0.2428 0.4148 -0.8769
vn 0.9188 -0.3756 -0.1213
vn 0.9527 -0.2330 -0.1953
vn 0.8634 0.3311 -0.3806
vn 0.7873 0.4359 -0.4361
vn -0.6891 0.5892 0.4219
vn -0.8878 0.1692 -0.4280
vn -0.9192 -0.3167 -0.2342
vn 0.4471 0.4870 -0.7503
vn 0.2538 0.7162 -0.6501
vn 0.3559 0.8297 -0.4301
vn 0.6727 0.5499 -0.4951
vn 0.8975 -0.4174 -0.1425
vn 0.8556 -0.4932 -0.1569
vn -0.0000 -0.8872 0.4614
vn -0.2323 -0.7209 0.6530
vn 0.8412 0.2602 -0.4740
vn 0.7603 0.3759 -0.5298
vn 0.5534 0.6886 -0.4686
vn 0.8005 -0.5703 -0.1840
vn -0.7868 -0.3639 -0.4985
vn 0.6828 -0.6458 -0.3416
vn 0.7323 -0.5664 -0.3780
vn 0.7844 0.1855 -0.5918
vn 0.5427 0.6437 -0.5395
vn -0.0000 -0.9884 0.1520
vn 0.5651 -0.8119 0.1466
vn 0.3743 -0.9192 0.1223
vn 0.5409 -0.6390 -0.5470
vn 0.5650 -0.5083 -0.6499
vn 0.2413 0.7836 -0.5724
vn 0.3511 -0.5911 -0.7261
vn 0.3429 -0.6777 -0.6505
vn 0.5004 -0.6910 -0.5217
vn 0.3272 -0.7176 -0.6149
vn -0.0000 -0.0726 -0.9974
vn -0.0000 -0.2337 -0.9723
vn -0.1566 -0.2169 -0.9635
vn -0.5992 -0.2356 0.7652
vn -0.4501 -0.4924 0.7449
vn -0.2482 -0.4202 0.8728
vn -0.3426 -0.1493 0.9275
vn 0.1618 -0.6987 -0.6968
vn 0.1535 -0.7408 -0.6539
vn 0.1528 -0.6219 -0.7680
vn -0.9788 0.0846 0.1866
vn 0.3688 -0.1667 -0.9144
vn 0.1566 -0.2169 -0.9635
vn 0.1585 -0.0582 -0.9856
vn -0.0000 -0.7462 -0.6657
vn -0.0000 -0.7029 -0.7113
vn 0.5679 -0.0980 -0.8172
vn -0.8723 -0.1473 0.4663
vn -0.6789 -0.0149 0.7341
vn 0.8723 -0.1473 0.4663
vn 0.9404 -0.3040 0.1526
vn 0.9928 -0.1089 0.0494
vn 0.9229 0.0534 0.3813
vn 0.6431 0.5022 -0.5781
vn 0.5208 0.6036 -0.6036
vn -0.9935 0.0314 -0.1098
vn 0.1484 -0.5194 -0.8415
vn 0.1510 -0.3698 -0.9168
vn -0.1484 -0.5194 -0.8415
vn -0.3611 -0.4640 -0.8089
vn -0.3724 -0.3105 -0.8746
vn -0.1510 -0.3698 -0.9168
vn -0.0000 -0.3846 -0.9231
vn -0.0000 -0.6265 -0.7794
vn -0.0000 -0.5299 -0.8481
vn -0.9288 0.2465 0.2767
vn -0.9229 0.0534 0.3813
vn -0.7195 0.1955 0.6664
vn -0.7245 0.3924 0.5667
vn -0.5898 -0.7592 -0.2752
vn -0.6654 -0.6033 -0.4397
vn -0.3603 -0.6954 -0.6218
vn -0.3194 -0.8409 -0.4369
vn 0.4143 0.2983 0.8598
vn 0.7195 0.1955 0.6664
vn 0.7245 0.3924 0.5667
vn 0.4157 0.4977 0.7612
vn -0.3905 0.0820 0.9170
vn 0.2483 0.5255 0.8137
vn 0.2477 0.3312 0.9105
vn -0.5840 -0.3507 -0.7321
vn -0.5903 -0.2142 -0.7782
vn -0.4157 0.4977 0.7612
vn -0.2483 0.5255 0.8137
vn 0.8651 0.1432 -0.4808
vn 0.9171 -0.0762 -0.3912
vn 0.7025 -0.2199 -0.6769
vn 0.6628 0.0088 -0.7487
vn -0.3688 -0.1667 -0.9144
vn 0.6891 0.5892 0.4219
vn -0.4143 0.2983 0.8598
vn -0.8975 -0.4174 -0.1425
vn -0.5679 -0.0980 -0.8172
vn 0.5398 -0.8405 0.0461
vn -0.3982 -0.1476 0.9054
vn 0.5212 -0.8506 0.0694
vn -0.9212 0.0720 -0.3823
vn 0.5583 -0.8041 0.2044
vn -0.3559 0.8297 -0.4301
vn -0.5908 0.7908 -0.1599
vn -0.7784 -0.1440 0.6111
vn -0.9623 -0.1387 0.2341
vn -0.9965 0.0060 0.0834
vn -0.4641 -0.2598 0.8468
vn -0.8306 -0.2419 0.5016
vn -0.9353 -0.0691 0.3470
vn 0.7189 -0.4017 0.5672
vn 0.7173 -0.4499 0.5320
vn 0.7176 -0.4445 0.5361
vn 0.7800 -0.6147 0.1169
vn 0.7766 -0.6300 0.0003
vn 0.7990 -0.6011 -0.0163
vn 0.7861 -0.5556 0.2707
vn 0.7752 -0.6301 0.0440
vn 0.7807 -0.6215 0.0651
vn 0.7847 -0.6148 0.0790
vn 0.7829 -0.6175 0.0758
vn 0.7806 -0.6209 0.0712
vn 0.7829 -0.6177 0.0739
vn 0.7830 -0.6176 0.0740
vn 0.7902 -0.6074 0.0811
vn 0.8033 -0.5886 0.0908
vn 0.8187 -0.5655 0.0993
vn 0.8332 -0.5430 0.1042
vn 0.8461 -0.5223 0.1065
vn 0.8528 -0.5112 0.1071
vn -0.3743 -0.9192 0.1223
vn -0.5651 -0.8119 0.1466
vn -0.8528 -0.5112 0.1071
vn -0.8461 -0.5223 0.1065
vn -0.8332 -0.5430 0.1042
vn -0.8187 -0.5655 0.0993
vn -0.8033 -0.5886 0.0908
vn -0.7902 -0.6074 0.0811
vn -0.7830 -0.6176 0.0740
vn -0.7806 -0.6209 0.0712
vn -0.7829 -0.6175 0.0758
vn -0.7847 -0.6148 0.0790
vn -0.7807 -0.6215 0.0651
vn -0.7752 -0.6301 0.0440
vn -0.7766 -0.6300 0.0003
vn -0.7990 -0.6011 -0.0163
vn -0.7189 -0.4017 0.5672
vn 0.2385 0.9578 0.1606
vn 0.2284 0.9514 -0.2067
vn -0.0000 0.8944 -0.4473
vn 0.4457 0.8950 0.0201
vn 0.3362 0.8484 0.4088
vn -0.6422 0.6755 -0.3622
vn 0.5908 0.7908 -0.1599
vn -0.5909 0.5728 -0.5681
vn -0.2538 0.7162 -0.6501
vn 0.6039 0.7593 0.2423
vn 0.3912 0.6922 0.6065
vn 0.2270 0.7312 0.6433
vn -0.0000 0.6687 -0.7436
vn -0.0000 0.1235 -0.9923
vn -0.0000 0.3861 -0.9224
vn 0.2428 0.4148 -0.8769
vn 0.6789 -0.0149 0.7341
vn 0.7764 0.6302 -0.0014
vn -0.0000 -0.1158 -0.9933
vn -0.9946 0.0872 -0.0570
vn -0.9171 -0.0762 -0.3912
vn -0.2317 0.1117 0.9663
vn -0.9928 -0.1089 0.0494
vn -0.7025 -0.2199 -0.6769
vn -0.3803 -0.3177 -0.8686
vn -0.9404 -0.3040 0.1526
vn 0.8693 -0.4648 -0.1680
vn 0.9171 -0.2759 -0.2877
vn -0.3587 -0.8321 0.4230
vn 0.3171 0.1514 -0.9362
vn -0.2477 0.3312 0.9105
vn 0.6654 -0.6033 -0.4397
vn 0.7023 -0.4209 -0.5741
vn -0.9171 -0.2759 -0.2877
vn 0.5854 0.2336 -0.7764
vn -0.7023 -0.4209 -0.5741
vn -0.8693 -0.4648 -0.1680
vn 0.3589 -0.0839 -0.9296
vn 0.3803 -0.3177 -0.8686
vn -0.0000 -0.3518 -0.9361
vn -0.7708 -0.6361 -0.0345
vn -0.5945 -0.7934 0.1309
vn -0.4484 -0.8925 -0.0484
vn -0.2437 -0.9527 -0.1819
vn -0.0000 -0.9945 0.1043
vn -0.2532 -0.9469 0.1983
vn 0.3587 -0.8321 0.4230
vn 0.6485 -0.6783 0.3455
vn 0.5945 -0.7934 0.1309
vn 0.2532 -0.9469 0.1983
vn -0.0000 -0.8701 -0.4929
vn -0.0000 -0.9726 -0.2324
vn 0.7708 -0.6361 -0.0345
vn 0.8337 -0.4922 0.2502
vn -0.3802 -0.5183 -0.7660
vn -0.0000 -0.7283 -0.6853
vn 0.3603 -0.6954 -0.6218
vn -0.0000 -0.5528 -0.8333
vn 0.3802 -0.5183 -0.7660
vt 0.000000 0.000000
s 1
f 1/1/1 2/1/2 3/1/3
f 1/1/1 4/1/4 2/1/2
f 1/1/1 5/1/5 4/1/4
f 1/1/1 6/1/6 7/1/7
f 1/1/1 8/1/8 6/1/6
f 1/1/1 9/1/9 10/1/10
f 1/1/1 11/1/11 9/1/9
f 1/1/1 3/1/3 11/1/11
f 1/1/1 12/1/12 13/1/13
f 1/1/1 14/1/14 15/1/15
f 1/1/1 15/1/15 16/1/16
f 1/1/1 17/1/17 18/1/18
f 1/1/1 18/1/18 19/1/19
f 1/1/1 19/1/19 20/1/20
f 1/1/1 20/1/20 21/1/21
f 1/1/1 22/1/22 23/1/23
f 1/1/1 23/1/23 24/1/24
f 1/1/1 16/1/16 25/1/25
f 1/1/1 26/1/26 12/1/12
f 1/1/1 25/1/25 26/1/26
f 1/1/1 27/1/27 5/1/5
f 1/1/1 13/1/13 27/1/27
f 1/1/1 7/1/7 28/1/28
f 1/1/1 28/1/28 29/1/29
f 1/1/1 30/1/30 8/1/8
f 1/1/1 10/1/10 30/1/30
f 1/1/1 24/1/24 31/1/31
f 1/1/1 31/1/31 14/1/14
f 1/1/1 32/1/32 22/1/22
f 1/1/1 21/1/21 32/1/32
f 1/1/1 29/1/29 33/1/33
f 1/1/1 33/1/33 17/1/17
f 10/1/10 94/1/34 88/1/35 30/1/30
f 30/1/30 88/1/35 83/1/36 8/1/8
f 9/1/9 100/1/37 94/1/34 10/1/10
f 11/1/11 105/1/38 100/1/37 9/1/9
f 8/1/8 83/1/36 79/1/39 6/1/6
f 118/1/40 130/1/41 113/1/42 112/1/43
f 204/1/44 543/1/45 209/1/46 203/1/47
f 29/1/29 58/1/48 47/1/49 33/1/33
f 28/1/28 66/1/50 58/1/48 29/1/29
f 440/1/51 88/1/35 94/1/34 441/1/52
f 79/1/39 93/1/53 81/1/54 72/1/55
f 151/1/56 156/1/57 155/1/58 148/1/59
f 88/1/35 440/1/51 89/1/60 83/1/36
f 384/1/61 395/1/62 377/1/63 378/1/64
f 66/1/50 72/1/55 81/1/54 76/1/65
f 12/1/12 86/1/66 91/1/67 13/1/13
f 136/1/68 500/1/69 130/1/41 118/1/40
f 66/1/50 76/1/65 64/1/70 58/1/48
f 3/1/3 110/1/71 105/1/38 11/1/11
f 89/1/60 292/1/72 98/1/73 93/1/53
f 98/1/73 99/1/74 81/1/54 93/1/53
f 77/1/75 78/1/76 64/1/70 76/1/65
f 81/1/54 99/1/74 77/1/75 76/1/65
f 387/1/77 388/1/78 368/1/79 382/1/80
f 632/1/81 641/1/82 642/1/83 635/1/84
f 2/1/2 117/1/85 110/1/71 3/1/3
f 174/1/86 181/1/87 180/1/88 175/1/89
f 728/1/90 721/1/91 713/1/92 708/1/93
f 710/1/94 711/1/95 670/1/96 706/1/97
f 441/1/52 463/1/98 434/1/99 435/1/100
f 469/1/101 470/1/102 434/1/99 463/1/98
f 172/1/103 190/1/104 189/1/105 183/1/106
f 249/1/107 413/1/108 288/1/109 281/1/110
f 396/1/111 412/1/112 401/1/113 402/1/114
f 47/1/49 65/1/115 48/1/116 40/1/117
f 18/1/18 41/1/118 38/1/119 19/1/19
f 704/1/120 716/1/121 700/1/122 699/1/123
f 328/1/124 337/1/125 316/1/126 321/1/127
f 102/1/128 5/1/5 27/1/27 97/1/129
f 300/1/130 305/1/131 285/1/132 292/1/72
f 514/1/133 180/1/88 181/1/87 187/1/134
f 64/1/70 78/1/76 70/1/135 65/1/115
f 39/1/136 20/1/20 19/1/19 38/1/119
f 469/1/101 475/1/137 471/1/138 470/1/102
f 537/1/139 538/1/140 532/1/141 531/1/142
f 192/1/143 166/1/144 156/1/57 185/1/145
f 209/1/46 543/1/45 539/1/146 232/1/147
f 542/1/148 553/1/149 535/1/150 538/1/140
f 108/1/151 112/1/43 96/1/152 101/1/153
f 160/1/154 163/1/155 147/1/156 154/1/157
f 420/1/158 418/1/159 405/1/160 419/1/161
f 211/1/162 215/1/163 216/1/164 212/1/165
f 441/1/52 435/1/100 300/1/130 440/1/51
f 46/1/166 44/1/167 39/1/136 38/1/119
f 75/1/168 120/1/169 53/1/170 71/1/171
f 70/1/135 87/1/172 75/1/168 71/1/171
f 100/1/37 105/1/38 469/1/101 463/1/98
f 33/1/33 47/1/49 40/1/117 17/1/17
f 91/1/67 97/1/129 27/1/27 13/1/13
f 64/1/70 65/1/115 47/1/49 58/1/48
f 539/1/146 543/1/45 544/1/173 540/1/174
f 44/1/167 45/1/175 37/1/176 39/1/136
f 561/1/177 567/1/178 565/1/179 560/1/180
f 119/1/181 102/1/128 97/1/129 114/1/182
f 86/1/66 12/1/12 26/1/26 80/1/183
f 555/1/184 562/1/185 561/1/177 556/1/186
f 82/1/187 109/1/188 92/1/189 87/1/172
f 168/1/190 73/1/191 67/1/192 55/1/193
f 119/1/181 125/1/194 121/1/195 102/1/128
f 85/1/196 101/1/153 86/1/66 80/1/183
f 25/1/25 74/1/197 80/1/183 26/1/26
f 84/1/198 85/1/196 80/1/183 74/1/197
f 113/1/42 114/1/182 96/1/152 112/1/43
f 100/1/37 463/1/98 441/1/52 94/1/34
f 42/1/199 43/1/200 35/1/201 34/1/202
f 16/1/16 68/1/203 74/1/197 25/1/25
f 127/1/204 128/1/205 53/1/170 120/1/169
f 127/1/204 134/1/206 52/1/207 128/1/205
f 471/1/138 476/1/208 466/1/209 467/1/210
f 476/1/208 122/1/211 125/1/194 124/1/212
f 68/1/203 62/1/213 95/1/214 90/1/215
f 85/1/196 142/1/216 108/1/151 101/1/153
f 176/1/217 219/1/218 179/1/219 173/1/220
f 116/1/221 126/1/222 120/1/169 75/1/168
f 369/1/223 291/1/224 397/1/225 390/1/226
f 124/1/212 481/1/227 466/1/209 476/1/208
f 384/1/61 411/1/228 403/1/229 395/1/62
f 149/1/230 142/1/216 85/1/196 84/1/198
f 236/1/231 243/1/232 213/1/233 218/1/234
f 109/1/188 231/1/235 115/1/236 92/1/189
f 2/1/2 4/1/4 117/1/85
f 149/1/230 150/1/237 143/1/238 142/1/216
f 108/1/151 142/1/216 143/1/238 135/1/239
f 148/1/59 155/1/58 60/1/240 57/1/241
f 90/1/215 162/1/242 149/1/230 84/1/198
f 462/1/243 467/1/210 466/1/209 461/1/244
f 102/1/128 121/1/195 5/1/5
f 429/1/245 424/1/246 421/1/247 423/1/248
f 215/1/163 262/1/249 221/1/250 216/1/164
f 61/1/251 95/1/214 62/1/213 56/1/252
f 51/1/253 67/1/192 61/1/251 56/1/252
f 106/1/254 162/1/242 90/1/215 95/1/214
f 163/1/155 164/1/255 158/1/256 147/1/156
f 234/1/257 307/1/258 241/1/259 235/1/260
f 103/1/261 245/1/262 238/1/263 104/1/264
f 43/1/200 60/1/240 59/1/265 54/1/266
f 106/1/254 170/1/267 169/1/268 162/1/242
f 140/1/269 158/1/256 157/1/270 153/1/271
f 109/1/188 238/1/263 237/1/272 231/1/235
f 245/1/262 271/1/273 237/1/272 238/1/263
f 59/1/265 168/1/190 55/1/193 54/1/266
f 150/1/237 175/1/89 145/1/274 143/1/238
f 82/1/187 87/1/172 70/1/135 78/1/76
f 98/1/73 250/1/275 103/1/261 99/1/74
f 115/1/236 132/1/276 116/1/221 92/1/189
f 6/1/6 79/1/39 72/1/55 7/1/7
f 61/1/251 107/1/277 106/1/254 95/1/214
f 70/1/135 71/1/171 48/1/116 65/1/115
f 118/1/40 135/1/239 137/1/278 136/1/68
f 145/1/274 182/1/279 144/1/280 137/1/278
f 646/1/281 668/1/282 678/1/283 672/1/284
f 20/1/20 39/1/136 37/1/176 21/1/21
f 277/1/285 284/1/286 263/1/287 271/1/273
f 237/1/272 271/1/273 263/1/287 256/1/288
f 305/1/131 306/1/289 299/1/290 285/1/132
f 445/1/291 448/1/292 414/1/293 439/1/294
f 234/1/257 235/1/260 229/1/295 233/1/296
f 98/1/73 292/1/72 285/1/132 250/1/275
f 504/1/297 522/1/298 498/1/299 497/1/300
f 204/1/44 549/1/301 544/1/173 543/1/45
f 300/1/130 435/1/100 313/1/302 305/1/131
f 313/1/302 409/1/303 306/1/289 305/1/131
f 745/1/304 750/1/305 746/1/306 737/1/307
f 409/1/303 408/1/308 304/1/309 306/1/289
f 277/1/285 298/1/310 291/1/224 284/1/286
f 397/1/225 291/1/224 298/1/310 304/1/309
f 250/1/275 278/1/311 245/1/262 103/1/261
f 263/1/287 264/1/312 257/1/313 256/1/288
f 404/1/314 406/1/315 400/1/316 399/1/317
f 284/1/286 290/1/318 264/1/312 263/1/287
f 451/1/319 452/1/320 444/1/321 443/1/322
f 7/1/7 72/1/55 66/1/50 28/1/28
f 223/1/323 240/1/324 239/1/325 233/1/296
f 128/1/205 52/1/207 44/1/167 46/1/166
f 428/1/326 420/1/158 419/1/161 427/1/327
f 467/1/210 428/1/326 470/1/102 471/1/138
f 124/1/212 125/1/194 119/1/181 123/1/328
f 113/1/42 130/1/41 129/1/329 123/1/328
f 62/1/213 15/1/15 14/1/14 56/1/252
f 360/1/330 330/1/331 290/1/318 369/1/223
f 129/1/329 493/1/332 488/1/333 481/1/227
f 130/1/41 500/1/69 493/1/332 129/1/329
f 481/1/227 488/1/333 461/1/244 466/1/209
f 228/1/334 240/1/324 223/1/323 222/1/335
f 461/1/244 488/1/333 454/1/336 456/1/337
f 449/1/338 474/1/339 451/1/319 443/1/322
f 425/1/340 426/1/341 404/1/314 418/1/159
f 493/1/332 500/1/69 489/1/342 494/1/343
f 304/1/309 408/1/308 398/1/344 397/1/225
f 398/1/344 391/1/345 390/1/226 397/1/225
f 48/1/116 49/1/346 41/1/118 40/1/117
f 453/1/347 494/1/343 489/1/342 464/1/348
f 454/1/336 494/1/343 453/1/347 446/1/349
f 489/1/342 506/1/350 482/1/351 464/1/348
f 115/1/236 231/1/235 230/1/352 224/1/353
f 369/1/223 390/1/226 361/1/354 360/1/330
f 391/1/345 385/1/355 361/1/354 390/1/226
f 409/1/303 419/1/161 405/1/160 408/1/308
f 104/1/264 238/1/263 109/1/188 82/1/187
f 152/1/356 185/1/145 156/1/57 151/1/56
f 399/1/317 400/1/316 391/1/345 398/1/344
f 330/1/331 360/1/330 329/1/357 322/1/358
f 361/1/354 354/1/359 329/1/357 360/1/330
f 68/1/203 16/1/16 15/1/15 62/1/213
f 315/1/360 321/1/127 316/1/126 309/1/361
f 393/1/362 394/1/363 376/1/364 388/1/78
f 34/1/202 35/1/201 22/1/22 32/1/32
f 236/1/231 257/1/313 249/1/107 243/1/232
f 475/1/137 110/1/71 117/1/85 122/1/211
f 217/1/365 220/1/366 222/1/335 206/1/367
f 329/1/357 328/1/124 321/1/127 322/1/358
f 288/1/109 322/1/358 315/1/360 308/1/368
f 200/1/369 206/1/367 205/1/370
f 420/1/158 462/1/243 425/1/340 418/1/159
f 213/1/233 214/1/371 211/1/162 210/1/372
f 77/1/75 104/1/264 82/1/187 78/1/76
f 425/1/340 462/1/243 461/1/244 456/1/337
f 406/1/315 407/1/373 383/1/374 400/1/316
f 249/1/107 281/1/110 244/1/375 243/1/232
f 244/1/375 214/1/371 213/1/233 243/1/232
f 144/1/280 506/1/350 136/1/68 137/1/278
f 242/1/376 320/1/377 197/1/378 196/1/379
f 244/1/375 281/1/110 282/1/380 276/1/381
f 288/1/109 308/1/368 282/1/380 281/1/110
f 230/1/352 236/1/231 218/1/234 224/1/353
f 282/1/380 308/1/368 302/1/382 283/1/383
f 276/1/381 282/1/380 283/1/383 273/1/384
f 308/1/368 315/1/360 309/1/361 302/1/382
f 121/1/195 125/1/194 122/1/211 117/1/85
f 425/1/340 456/1/337 432/1/385 426/1/341
f 432/1/385 456/1/337 454/1/336 446/1/349
f 414/1/293 415/1/386 403/1/229 411/1/228
f 316/1/126 324/1/387 310/1/388 309/1/361
f 310/1/388 294/1/389 302/1/382 309/1/361
f 362/1/390 385/1/355 383/1/374 378/1/64
f 115/1/236 224/1/353 138/1/391 132/1/276
f 534/1/392 533/1/393 525/1/394 526/1/395
f 555/1/184 556/1/186 537/1/139 550/1/396
f 328/1/124 346/1/397 339/1/398 337/1/125
f 229/1/295 235/1/260 195/1/399
f 346/1/397 329/1/357 354/1/359 347/1/400
f 159/1/401 218/1/234 213/1/233 210/1/372
f 405/1/160 418/1/159 404/1/314 399/1/317
f 138/1/391 154/1/157 131/1/402 132/1/276
f 41/1/118 49/1/346 46/1/166 38/1/119
f 316/1/126 337/1/125 331/1/403 324/1/387
f 542/1/148 560/1/180 559/1/404 553/1/149
f 347/1/400 348/1/405 339/1/398 346/1/397
f 196/1/379 241/1/259 242/1/376
f 362/1/390 363/1/406 356/1/407 354/1/359
f 92/1/189 116/1/221 75/1/168 87/1/172
f 69/1/408 148/1/59 57/1/241 63/1/409
f 317/1/410 310/1/388 324/1/387 323/1/411
f 331/1/403 332/1/412 323/1/411 324/1/387
f 683/1/413 691/1/414 684/1/415 675/1/416
f 283/1/383 302/1/382 294/1/389 289/1/417
f 159/1/401 210/1/372 165/1/418 160/1/154
f 742/1/419 755/1/420 748/1/421 743/1/422
f 133/1/423 139/1/424 134/1/206 127/1/204
f 323/1/411 327/1/425 319/1/426 317/1/410
f 295/1/427 317/1/410 319/1/426 296/1/428
f 512/1/429 511/1/430 507/1/431 501/1/432
f 289/1/417 294/1/389 295/1/427 274/1/433
f 159/1/401 160/1/154 154/1/157 138/1/391
f 327/1/425 325/1/434 311/1/435 319/1/426
f 251/1/436 259/1/437 258/1/438
f 252/1/439 260/1/440 259/1/437
f 338/1/441 340/1/442 332/1/412 331/1/403
f 255/1/443 262/1/249 260/1/440
f 221/1/250 262/1/249 255/1/443
f 277/1/285 278/1/311 299/1/290 298/1/310
f 157/1/270 177/1/444 152/1/356 153/1/271
f 198/1/445 163/1/155 160/1/154 165/1/418
f 259/1/437 260/1/440 265/1/446
f 259/1/437 265/1/446 266/1/447
f 631/1/448 641/1/82 632/1/81 623/1/449
f 267/1/450 273/1/384 274/1/433 268/1/451
f 262/1/249 215/1/163 269/1/452
f 262/1/249 269/1/452 270/1/453
f 262/1/249 270/1/453 267/1/450
f 269/1/452 214/1/371 270/1/453
f 267/1/450 270/1/453 273/1/384
f 270/1/453 214/1/371 275/1/454
f 270/1/453 275/1/454 273/1/384
f 214/1/371 269/1/452 215/1/163 211/1/162
f 275/1/454 276/1/381 273/1/384
f 131/1/402 154/1/157 147/1/156 141/1/455
f 133/1/423 141/1/455 140/1/269 139/1/424
f 311/1/435 325/1/434 318/1/456 312/1/457
f 174/1/86 175/1/89 150/1/237 169/1/268
f 627/1/458 632/1/81 635/1/84 633/1/459
f 682/1/460 712/1/461 683/1/413 675/1/416
f 139/1/424 146/1/462 69/1/408 134/1/206
f 52/1/207 134/1/206 69/1/408 63/1/409
f 565/1/179 571/1/463 570/1/464 566/1/465
f 327/1/425 336/1/466 335/1/467 325/1/434
f 364/1/468 365/1/469 358/1/470 357/1/471
f 165/1/418 212/1/165 199/1/472 198/1/445
f 273/1/384 283/1/383 289/1/417
f 273/1/384 289/1/417 274/1/433
f 501/1/432 520/1/473 518/1/474 512/1/429
f 164/1/255 172/1/103 157/1/270 158/1/256
f 340/1/442 342/1/475 336/1/466 332/1/412
f 313/1/302 435/1/100 434/1/99 427/1/327
f 183/1/106 191/1/476 184/1/477 177/1/444
f 274/1/433 295/1/427 296/1/428
f 274/1/433 296/1/428 297/1/478
f 140/1/269 153/1/271 146/1/462 139/1/424
f 252/1/439 259/1/437 251/1/436 246/1/479
f 45/1/175 63/1/409 57/1/241 42/1/199
f 339/1/398 348/1/405 345/1/480 338/1/441
f 345/1/480 349/1/481 340/1/442 338/1/441
f 442/1/482 449/1/338 443/1/322 436/1/483
f 297/1/478 296/1/428 303/1/484
f 131/1/402 141/1/455 133/1/423 126/1/222
f 146/1/462 153/1/271 152/1/356 151/1/56
f 294/1/389 310/1/388 317/1/410 295/1/427
f 330/1/331 413/1/108 264/1/312 290/1/318
f 122/1/211 476/1/208 471/1/138 475/1/137
f 266/1/447 272/1/485 258/1/438 259/1/437
f 299/1/290 306/1/289 304/1/309 298/1/310
f 301/1/486 571/1/463 565/1/179 567/1/178
f 493/1/332 494/1/343 454/1/336 488/1/333
f 444/1/321 437/1/487 436/1/483 443/1/322
f 206/1/367 222/1/335 223/1/323 205/1/370
f 191/1/476 203/1/47 193/1/488 184/1/477
f 248/1/489 252/1/439 246/1/479 228/1/334
f 146/1/462 151/1/56 148/1/59 69/1/408
f 296/1/428 319/1/426 311/1/435
f 90/1/215 84/1/198 74/1/197 68/1/203
f 363/1/406 370/1/490 355/1/491 356/1/407
f 315/1/360 322/1/358 321/1/127
f 235/1/260 241/1/259 196/1/379 195/1/399
f 643/1/492 644/1/493 633/1/459 635/1/84
f 286/1/494 575/1/495 280/1/496 279/1/497
f 570/1/464 574/1/498 572/1/499 569/1/500
f 223/1/323 233/1/296 229/1/295 205/1/370
f 423/1/248 430/1/501 431/1/502 429/1/245
f 163/1/155 198/1/445 171/1/503 164/1/255
f 199/1/472 200/1/369 171/1/503 198/1/445
f 288/1/109 413/1/108 330/1/331 322/1/358
f 358/1/470 351/1/504 350/1/505 357/1/471
f 31/1/31 51/1/253 56/1/252 14/1/14
f 253/1/506 287/1/507 254/1/508 247/1/509
f 572/1/499 575/1/495 286/1/494 573/1/510
f 574/1/498 293/1/511 254/1/508 287/1/507
f 287/1/507 575/1/495 572/1/499 574/1/498
f 615/1/512 619/1/513 618/1/514 617/1/515
f 89/1/60 440/1/51 300/1/130 292/1/72
f 239/1/325 261/1/516 234/1/257 233/1/296
f 350/1/505 351/1/504 341/1/517 343/1/518
f 336/1/466 342/1/475 333/1/519 335/1/467
f 575/1/495 287/1/507 253/1/506 280/1/496
f 173/1/220 174/1/86 169/1/268 170/1/267
f 359/1/520 367/1/521 364/1/468 357/1/471
f 328/1/124 329/1/357 346/1/397
f 22/1/22 35/1/201 36/1/522 23/1/23
f 570/1/464 571/1/463 293/1/511 574/1/498
f 563/1/523 569/1/500 568/1/524 564/1/525
f 563/1/523 566/1/465 570/1/464 569/1/500
f 559/1/404 566/1/465 563/1/523 558/1/526
f 245/1/262 278/1/311 277/1/285 271/1/273
f 512/1/429 519/1/527 516/1/528 511/1/430
f 314/1/529 307/1/258 301/1/486 567/1/178
f 241/1/259 307/1/258 314/1/529 242/1/376
f 347/1/400 354/1/359 356/1/407
f 563/1/523 564/1/525 557/1/530 558/1/526
f 184/1/477 185/1/145 152/1/356 177/1/444
f 246/1/479 247/1/509 240/1/324 228/1/334
f 255/1/443 260/1/440 252/1/439 248/1/489
f 725/1/531 728/1/90 712/1/461 720/1/532
f 189/1/105 196/1/379 197/1/378 194/1/533
f 670/1/96 711/1/95 676/1/534 671/1/535
f 559/1/404 558/1/526 551/1/536 553/1/149
f 551/1/536 558/1/526 557/1/530 552/1/537
f 169/1/268 150/1/237 149/1/230 162/1/242
f 361/1/354 385/1/355 362/1/390 354/1/359
f 195/1/399 196/1/379 189/1/105 190/1/104
f 363/1/406 362/1/390 371/1/538
f 320/1/377 562/1/185 555/1/184 554/1/539
f 551/1/536 552/1/537 546/1/540 547/1/541
f 143/1/238 145/1/274 137/1/278 135/1/239
f 179/1/219 226/1/542 187/1/134 181/1/87
f 637/1/543 664/1/544 639/1/545 638/1/546
f 542/1/148 556/1/186 561/1/177 560/1/180
f 48/1/116 71/1/171 53/1/170 49/1/346
f 189/1/105 194/1/533 191/1/476 183/1/106
f 395/1/62 396/1/111 389/1/547 377/1/63
f 548/1/548 549/1/301 197/1/378 554/1/539
f 373/1/549 379/1/550 380/1/551
f 535/1/150 547/1/541 529/1/552 528/1/553
f 373/1/549 381/1/554 379/1/550
f 197/1/378 549/1/301 204/1/44 194/1/533
f 111/1/555 170/1/267 106/1/254 107/1/277
f 544/1/173 549/1/301 548/1/548 545/1/556
f 380/1/551 379/1/550 386/1/557
f 446/1/349 447/1/558 438/1/559 432/1/385
f 537/1/139 556/1/186 542/1/148 538/1/140
f 203/1/47 191/1/476 194/1/533 204/1/44
f 129/1/329 481/1/227 124/1/212 123/1/328
f 386/1/557 379/1/550 392/1/560
f 331/1/403 337/1/125 339/1/398 338/1/441
f 532/1/141 538/1/140 535/1/150 528/1/553
f 548/1/548 550/1/396 527/1/561 545/1/556
f 700/1/122 701/1/562 695/1/563 699/1/123
f 172/1/103 183/1/106 177/1/444 157/1/270
f 4/1/4 5/1/5 121/1/195 117/1/85
f 535/1/150 553/1/149 551/1/536 547/1/541
f 565/1/179 566/1/465 559/1/404 560/1/180
f 379/1/550 401/1/113 392/1/560
f 379/1/550 394/1/363 401/1/113
f 394/1/363 393/1/362 401/1/113
f 527/1/561 531/1/142 524/1/564 523/1/565
f 393/1/362 402/1/114 401/1/113
f 544/1/173 545/1/556 519/1/527 540/1/174
f 216/1/164 221/1/250 220/1/366 217/1/365
f 203/1/47 209/1/46 201/1/566 193/1/488
f 184/1/477 193/1/488 192/1/143 185/1/145
f 201/1/566 202/1/567 192/1/143 193/1/488
f 220/1/366 248/1/489 228/1/334 222/1/335
f 89/1/60 93/1/53 79/1/39 83/1/36
f 369/1/223 290/1/318 284/1/286 291/1/224
f 642/1/83 677/1/568 643/1/492 635/1/84
f 110/1/71 475/1/137 469/1/101 105/1/38
f 426/1/341 433/1/569 406/1/315 404/1/314
f 518/1/474 540/1/174 519/1/527 512/1/429
f 403/1/229 416/1/570 412/1/112
f 639/1/545 649/1/571 640/1/572 629/1/573
f 247/1/509 254/1/508 239/1/325 240/1/324
f 192/1/143 202/1/567 186/1/574 166/1/144
f 517/1/575 513/1/576 511/1/430 516/1/528
f 279/1/497 280/1/496 258/1/438 272/1/485
f 724/1/577 725/1/531 720/1/532 723/1/578
f 170/1/267 111/1/555 176/1/217 173/1/220
f 201/1/566 227/1/579 207/1/580 202/1/567
f 209/1/46 232/1/147 227/1/579 201/1/566
f 156/1/57 166/1/144 161/1/581 155/1/58
f 17/1/17 40/1/117 41/1/118 18/1/18
f 511/1/430 513/1/576 508/1/582 507/1/431
f 423/1/248 422/1/583 430/1/501
f 507/1/431 508/1/582 503/1/584 502/1/585
f 86/1/66 101/1/153 96/1/152 91/1/67
f 534/1/392 225/1/586 227/1/579 232/1/147
f 167/1/587 168/1/190 59/1/265 161/1/581
f 155/1/58 161/1/581 59/1/265 60/1/240
f 598/1/588 599/1/589 581/1/590 597/1/588
f 501/1/432 502/1/585 495/1/591 496/1/592
f 432/1/385 438/1/559 433/1/569 426/1/341
f 126/1/222 133/1/423 127/1/204 120/1/169
f 43/1/200 54/1/266 36/1/522 35/1/201
f 24/1/24 50/1/593 51/1/253 31/1/31
f 57/1/241 60/1/240 43/1/200 42/1/199
f 490/1/594 496/1/592 495/1/591 492/1/595
f 495/1/591 499/1/596 491/1/597 492/1/595
f 525/1/394 533/1/393 518/1/474 520/1/473
f 482/1/351 510/1/598 483/1/599 465/1/600
f 226/1/542 225/1/586 534/1/392 526/1/395
f 726/1/601 731/1/602 719/1/603 674/1/604
f 225/1/586 226/1/542 179/1/219 219/1/218
f 391/1/345 400/1/316 383/1/374 385/1/355
f 486/1/605 492/1/595 491/1/597 487/1/606
f 490/1/594 492/1/595 486/1/605 485/1/607
f 533/1/393 534/1/392 232/1/147 539/1/146
f 355/1/491 374/1/608 345/1/480 348/1/405
f 314/1/529 567/1/178 561/1/177 562/1/185
f 514/1/133 515/1/609 509/1/610 188/1/611
f 486/1/605 487/1/606 457/1/612 480/1/613
f 521/1/614 515/1/609 514/1/133 187/1/134
f 521/1/614 522/1/298 504/1/297 515/1/609
f 96/1/152 114/1/182 97/1/129 91/1/67
f 420/1/158 428/1/326 467/1/210 462/1/243
f 736/1/615 745/1/304 726/1/601 730/1/616
f 144/1/280 510/1/598 482/1/351 506/1/350
f 693/1/617 714/1/618 686/1/619 687/1/620
f 208/1/621 176/1/217 111/1/555 178/1/622
f 186/1/574 208/1/621 178/1/622 167/1/587
f 54/1/266 55/1/193 50/1/593 36/1/522
f 427/1/327 419/1/161 409/1/303 313/1/302
f 55/1/193 67/1/192 51/1/253 50/1/593
f 372/1/623 370/1/490 363/1/406 371/1/538
f 73/1/191 178/1/622 111/1/555 107/1/277
f 116/1/221 132/1/276 131/1/402 126/1/222
f 484/1/624 497/1/300 490/1/594 485/1/607
f 484/1/624 505/1/625 504/1/297 497/1/300
f 73/1/191 107/1/277 61/1/251 67/1/192
f 147/1/156 158/1/256 140/1/269 141/1/455
f 473/1/626 468/1/627 459/1/628 472/1/629
f 505/1/625 477/1/630 483/1/599 509/1/610
f 484/1/624 485/1/607 479/1/631 478/1/632
f 718/1/633 739/1/634 666/1/635 685/1/636
f 752/1/637 769/1/638 766/1/639 764/1/640
f 483/1/599 510/1/598 188/1/611 509/1/610
f 477/1/630 478/1/632 473/1/626 472/1/629
f 696/1/641 669/1/642 661/1/643 660/1/644
f 665/1/645 730/1/616 726/1/601 674/1/604
f 479/1/631 480/1/613 451/1/319 474/1/339
f 314/1/529 562/1/185 320/1/377 242/1/376
f 498/1/299 496/1/592 490/1/594 497/1/300
f 539/1/146 540/1/174 518/1/474 533/1/393
f 53/1/170 128/1/205 46/1/166 49/1/346
f 696/1/641 660/1/644 652/1/646 692/1/647
f 264/1/312 413/1/108 249/1/107 257/1/313
f 434/1/99 470/1/102 428/1/326 427/1/327
f 179/1/219 181/1/87 174/1/86 173/1/220
f 256/1/288 257/1/313 236/1/231 230/1/352
f 498/1/299 520/1/473 501/1/432 496/1/592
f 332/1/412 336/1/466 327/1/425 323/1/411
f 450/1/648 468/1/627 449/1/338 442/1/482
f 180/1/88 182/1/279 145/1/274 175/1/89
f 448/1/292 450/1/648 442/1/482 422/1/583
f 376/1/364 394/1/363 379/1/550 381/1/554
f 436/1/483 437/1/487 431/1/502 430/1/501
f 459/1/628 468/1/627 450/1/648 460/1/649
f 643/1/492 657/1/650 651/1/651 644/1/493
f 188/1/611 510/1/598 144/1/280 182/1/279
f 502/1/585 501/1/432 507/1/431
f 503/1/584 499/1/596 495/1/591 502/1/585
f 673/1/652 694/1/653 688/1/654 679/1/655
f 465/1/600 472/1/629 459/1/628 458/1/656
f 661/1/643 668/1/282 646/1/281 653/1/657
f 519/1/527 545/1/556 527/1/561 523/1/565
f 423/1/248 421/1/247 415/1/386 422/1/583
f 464/1/348 482/1/351 465/1/600 458/1/656
f 415/1/386 421/1/247 416/1/570 403/1/229
f 199/1/472 217/1/365 206/1/367 200/1/369
f 414/1/293 448/1/292 422/1/583 415/1/386
f 136/1/68 506/1/350 489/1/342 500/1/69
f 678/1/283 694/1/653 673/1/652 672/1/284
f 666/1/635 730/1/616 665/1/645 658/1/658
f 516/1/528 519/1/527 523/1/565
f 416/1/570 417/1/659 401/1/113 412/1/112
f 445/1/291 460/1/649 450/1/648 448/1/292
f 455/1/660 460/1/649 445/1/291 447/1/558
f 498/1/299 522/1/298 525/1/394 520/1/473
f 453/1/347 455/1/660 447/1/558 446/1/349
f 403/1/229 412/1/112 396/1/111 395/1/62
f 216/1/164 217/1/365 199/1/472 212/1/165
f 524/1/564 528/1/553 529/1/552
f 524/1/564 529/1/552 530/1/661
f 524/1/564 531/1/142 532/1/141
f 524/1/564 532/1/141 528/1/553
f 438/1/559 447/1/558 445/1/291 439/1/294
f 180/1/88 514/1/133 188/1/611 182/1/279
f 378/1/64 377/1/63 371/1/538 362/1/390
f 325/1/434 335/1/467 326/1/662 318/1/456
f 530/1/661 529/1/552 536/1/663
f 387/1/77 402/1/114 393/1/362 388/1/78
f 396/1/111 402/1/114 387/1/77 389/1/547
f 406/1/315 433/1/569 410/1/664 407/1/373
f 438/1/559 439/1/294 410/1/664 433/1/569
f 410/1/664 439/1/294 414/1/293 411/1/228
f 536/1/663 529/1/552 541/1/665
f 285/1/132 299/1/290 278/1/311 250/1/275
f 368/1/79 388/1/78 376/1/364 367/1/521
f 256/1/288 230/1/352 231/1/235 237/1/272
f 410/1/664 411/1/228 384/1/61 407/1/373
f 383/1/374 407/1/373 384/1/61 378/1/64
f 529/1/552 546/1/540 541/1/665
f 529/1/552 547/1/541 546/1/540
f 221/1/250 255/1/443 248/1/489 220/1/366
f 167/1/587 178/1/622 73/1/191 168/1/190
f 376/1/364 381/1/554 364/1/468 367/1/521
f 631/1/448 655/1/666 650/1/667 641/1/82
f 364/1/468 381/1/554 373/1/549 365/1/469
f 197/1/378 320/1/377 554/1/539
f 377/1/63 389/1/547 372/1/623 371/1/538
f 372/1/623 389/1/547 387/1/77 382/1/80
f 301/1/486 307/1/258 234/1/257 261/1/516
f 349/1/481 344/1/668 342/1/475 340/1/442
f 368/1/79 367/1/521 359/1/520 366/1/669
f 171/1/503 190/1/104 172/1/103 164/1/255
f 555/1/184 550/1/396 548/1/548 554/1/539
f 372/1/623 382/1/80 375/1/670 370/1/490
f 375/1/670 374/1/608 355/1/491 370/1/490
f 326/1/662 335/1/467 333/1/519 334/1/671
f 350/1/505 353/1/672 359/1/520 357/1/471
f 375/1/670 366/1/669 352/1/673 374/1/608
f 352/1/673 366/1/669 359/1/520 353/1/672
f 345/1/480 374/1/608 352/1/673 349/1/481
f 207/1/580 227/1/579 225/1/586 219/1/218
f 572/1/499 573/1/510 568/1/524 569/1/500
f 352/1/673 353/1/672 344/1/668 349/1/481
f 516/1/528 523/1/565 524/1/564 517/1/575
f 333/1/519 342/1/475 344/1/668 343/1/518
f 333/1/519 343/1/518 341/1/517 334/1/671
f 258/1/438 280/1/496 253/1/506 251/1/436
f 344/1/668 353/1/672 350/1/505 343/1/518
f 421/1/247 424/1/246 417/1/659 416/1/570
f 576/1/674 577/1/675 578/1/676
f 171/1/503 200/1/369 195/1/399 190/1/104
f 579/1/677 581/1/590 582/1/678
f 579/1/677 583/1/679 580/1/680
f 579/1/677 582/1/678 583/1/679
f 582/1/678 581/1/590 584/1/681
f 584/1/681 581/1/590 585/1/682
f 585/1/682 581/1/590 586/1/683
f 586/1/683 581/1/590 587/1/684
f 587/1/684 581/1/590 588/1/685
f 588/1/685 581/1/590 589/1/686
f 588/1/685 589/1/686 590/1/687
f 589/1/686 581/1/590 591/1/688
f 589/1/686 591/1/688 590/1/687
f 591/1/688 581/1/590 592/1/689
f 592/1/689 581/1/590 593/1/690
f 593/1/690 581/1/590 594/1/691
f 594/1/691 581/1/590 595/1/692
f 595/1/692 581/1/590 596/1/693
f 600/1/694 601/1/695 598/1/588 597/1/588
f 581/1/590 599/1/589 596/1/693
f 267/1/450 268/1/451 260/1/440 262/1/249
f 601/1/695 600/1/694 602/1/696
f 602/1/696 600/1/694 603/1/697
f 603/1/697 600/1/694 604/1/698
f 604/1/698 600/1/694 605/1/699
f 605/1/699 600/1/694 606/1/700
f 606/1/700 600/1/694 607/1/701
f 607/1/701 600/1/694 608/1/702
f 608/1/702 600/1/694 609/1/703
f 609/1/703 600/1/694 610/1/704
f 610/1/704 600/1/694 611/1/705
f 611/1/705 600/1/694 612/1/706
f 612/1/706 600/1/694 613/1/707
f 613/1/707 600/1/694 614/1/708
f 614/1/708 600/1/694 615/1/512
f 614/1/708 615/1/512 616/1/709
f 615/1/512 617/1/515 616/1/709
f 579/1/677 580/1/680 578/1/676 577/1/675
f 619/1/513 620/1/710 618/1/514
f 205/1/370 229/1/295 195/1/399 200/1/369
f 36/1/522 50/1/593 24/1/24 23/1/23
f 621/1/711 623/1/449 627/1/458
f 571/1/463 301/1/486 261/1/516 293/1/511
f 650/1/667 671/1/535 642/1/83 641/1/82
f 251/1/436 253/1/506 247/1/509 246/1/479
f 622/1/712 629/1/573 630/1/713
f 422/1/583 442/1/482 436/1/483 430/1/501
f 623/1/449 632/1/81 627/1/458
f 621/1/711 624/1/714 622/1/712 623/1/449
f 254/1/508 293/1/511 261/1/516 239/1/325
f 451/1/319 480/1/613 457/1/612 452/1/320
f 627/1/458 633/1/459 626/1/715 621/1/711
f 670/1/96 671/1/535 650/1/667 663/1/716
f 628/1/717 638/1/546 629/1/573
f 629/1/573 638/1/546 639/1/545
f 662/1/718 706/1/97 670/1/96 663/1/716
f 629/1/573 640/1/572 630/1/713
f 654/1/719 701/1/562 662/1/718 655/1/666
f 621/1/711 626/1/715 625/1/720 624/1/714
f 634/1/721 653/1/657 625/1/720 626/1/715
f 633/1/459 645/1/722 634/1/721 626/1/715
f 347/1/400 356/1/407 355/1/491 348/1/405
f 166/1/144 186/1/574 167/1/587 161/1/581
f 695/1/563 701/1/562 654/1/719 648/1/723
f 640/1/572 648/1/723 630/1/713
f 628/1/717 629/1/573 622/1/712 624/1/714
f 52/1/207 63/1/409 45/1/175 44/1/167
f 652/1/646 660/1/644 634/1/721 645/1/722
f 661/1/643 653/1/657 634/1/721 660/1/644
f 630/1/713 648/1/723 654/1/719
f 630/1/713 654/1/719 655/1/666
f 630/1/713 655/1/666 631/1/448
f 689/1/724 699/1/123 695/1/563 690/1/725
f 527/1/561 550/1/396 537/1/139 531/1/142
f 479/1/631 474/1/339 473/1/626 478/1/632
f 685/1/636 657/1/650 643/1/492 677/1/568
f 676/1/534 718/1/633 685/1/636 677/1/568
f 640/1/572 649/1/571 647/1/726 648/1/723
f 655/1/666 663/1/716 650/1/667
f 655/1/666 662/1/718 663/1/716
f 691/1/414 696/1/641 692/1/647 684/1/415
f 668/1/282 687/1/620 686/1/619 678/1/283
f 691/1/414 707/1/727 669/1/642 696/1/641
f 477/1/630 505/1/625 484/1/624 478/1/632
f 657/1/650 685/1/636 666/1/635 658/1/658
f 21/1/21 37/1/176 34/1/202 32/1/32
f 637/1/543 638/1/546 628/1/717 636/1/728
f 375/1/670 382/1/80 368/1/79 366/1/669
f 689/1/724 705/1/729 704/1/120 699/1/123
f 113/1/42 123/1/328 119/1/181 114/1/182
f 625/1/720 653/1/657 646/1/281 636/1/728
f 646/1/281 672/1/284 637/1/543 636/1/728
f 717/1/730 718/1/633 676/1/534 711/1/95
f 710/1/94 727/1/731 717/1/730 711/1/95
f 700/1/122 716/1/121 710/1/94 706/1/97
f 408/1/308 405/1/160 399/1/317 398/1/344
f 674/1/604 719/1/603 682/1/460 675/1/416
f 674/1/604 675/1/416 667/1/732 665/1/645
f 521/1/614 526/1/395 525/1/394 522/1/298
f 459/1/628 460/1/649 455/1/660 458/1/656
f 732/1/733 739/1/634 718/1/633 717/1/730
f 722/1/734 727/1/731 710/1/94 716/1/121
f 768/1/735 722/1/734 716/1/121 704/1/120
f 676/1/534 677/1/568 642/1/83 671/1/535
f 37/1/176 45/1/175 42/1/199 34/1/202
f 647/1/726 690/1/725 648/1/723
f 509/1/610 515/1/609 504/1/297 505/1/625
f 732/1/733 754/1/736 736/1/615 739/1/634
f 686/1/619 714/1/618 703/1/737 698/1/738
f 473/1/626 474/1/339 449/1/338 468/1/627
f 737/1/307 738/1/739 723/1/578 731/1/602
f 689/1/724 690/1/725 647/1/726 681/1/740
f 690/1/725 695/1/563 648/1/723
f 658/1/658 659/1/741 651/1/651 657/1/650
f 703/1/737 749/1/742 697/1/743 698/1/738
f 727/1/731 765/1/744 732/1/733 717/1/730
f 656/1/745 681/1/740 647/1/726 649/1/571
f 639/1/545 664/1/544 656/1/745 649/1/571
f 765/1/744 727/1/731 722/1/734 770/1/746
f 769/1/638 758/1/747 765/1/744 770/1/746
f 732/1/733 765/1/744 758/1/747 754/1/736
f 680/1/748 705/1/729 689/1/724 681/1/740
f 680/1/748 681/1/740 656/1/745 679/1/655
f 108/1/151 135/1/239 118/1/40 112/1/43
f 207/1/580 208/1/621 186/1/574 202/1/567
f 688/1/654 702/1/749 680/1/748 679/1/655
f 709/1/750 768/1/735 704/1/120 705/1/729
f 673/1/652 679/1/655 656/1/745 664/1/544
f 637/1/543 672/1/284 673/1/652 664/1/544
f 103/1/261 104/1/264 77/1/75 99/1/74
f 758/1/747 751/1/751 750/1/305 754/1/736
f 736/1/615 754/1/736 750/1/305 745/1/304
f 138/1/391 224/1/353 218/1/234 159/1/401
f 187/1/134 226/1/542 526/1/395 521/1/614
f 669/1/642 687/1/620 668/1/282 661/1/643
f 682/1/460 720/1/532 712/1/461
f 682/1/460 719/1/603 720/1/532
f 750/1/305 751/1/751 747/1/752 746/1/306
f 726/1/601 745/1/304 737/1/307 731/1/602
f 665/1/645 667/1/732 659/1/741 658/1/658
f 666/1/635 739/1/634 736/1/615 730/1/616
f 311/1/435 312/1/457 303/1/484 296/1/428
f 630/1/713 631/1/448 623/1/449 622/1/712
f 719/1/603 731/1/602 723/1/578 720/1/532
f 712/1/461 728/1/90 708/1/93 683/1/413
f 708/1/93 707/1/727 691/1/414 683/1/413
f 753/1/753 759/1/754 741/1/755 740/1/756
f 725/1/531 724/1/577 729/1/757
f 479/1/631 485/1/607 486/1/605 480/1/613
f 686/1/619 698/1/738 694/1/653 678/1/283
f 729/1/757 733/1/758 721/1/91
f 211/1/162 212/1/165 165/1/418 210/1/372
f 729/1/757 734/1/759 733/1/758
f 747/1/752 753/1/753 740/1/756 738/1/739
f 729/1/757 724/1/577 735/1/760
f 669/1/642 707/1/727 693/1/617 687/1/620
f 708/1/93 713/1/92 693/1/617 707/1/727
f 725/1/531 729/1/757 721/1/91 728/1/90
f 625/1/720 636/1/728 628/1/717 624/1/714
f 723/1/578 738/1/739 724/1/577
f 453/1/347 464/1/348 458/1/656 455/1/660
f 724/1/577 738/1/739 740/1/756
f 724/1/577 741/1/755 735/1/760
f 724/1/577 740/1/756 741/1/755
f 735/1/760 743/1/422 734/1/759 729/1/757
f 738/1/739 737/1/307 746/1/306
f 276/1/381 275/1/454 214/1/371 244/1/375
f 738/1/739 746/1/306 747/1/752
f 752/1/637 764/1/640 759/1/754 753/1/753
f 759/1/754 764/1/640 760/1/761 761/1/762
f 758/1/747 769/1/638 752/1/637 751/1/751
f 207/1/580 219/1/218 176/1/217 208/1/621
f 734/1/759 744/1/763 715/1/764 733/1/758
f 721/1/91 733/1/758 715/1/764 713/1/92
f 748/1/421 744/1/763 734/1/759 743/1/422
f 748/1/421 749/1/742 703/1/737 744/1/763
f 770/1/746 767/1/765 766/1/639 769/1/638
f 715/1/764 714/1/618 693/1/617 713/1/92
f 760/1/761 763/1/766 756/1/767 755/1/420
f 465/1/600 483/1/599 477/1/630 472/1/629
f 742/1/419 743/1/422 735/1/760 741/1/755
f 752/1/637 753/1/753 747/1/752 751/1/751
f 700/1/122 706/1/97 662/1/718 701/1/562
f 766/1/639 763/1/766 760/1/761 764/1/640
f 742/1/419 741/1/755 761/1/762
f 742/1/419 761/1/762 760/1/761 755/1/420
f 759/1/754 761/1/762 741/1/755
f 770/1/746 722/1/734 768/1/735 767/1/765
f 709/1/750 705/1/729 680/1/748 702/1/749
f 715/1/764 744/1/763 703/1/737 714/1/618
f 748/1/421 755/1/420 756/1/767 749/1/742
f 756/1/767 763/1/766 762/1/768 757/1/769
f 762/1/768 709/1/750 702/1/749 757/1/769
f 694/1/653 698/1/738 697/1/743 688/1/654
f 766/1/639 767/1/765 762/1/768 763/1/766
f 697/1/743 757/1/769 702/1/749 688/1/654
f 756/1/767 757/1/769 697/1/743 749/1/742
f 768/1/735 709/1/750 762/1/768 767/1/765
