# Blender 4.3.2
# www.blender.org
o hair.123
v 7.843238 0.375725 0.021838
v 7.844915 0.373675 0.024570
v 7.844915 0.375546 0.022140
v 7.842994 0.374251 0.024661
v 7.843562 0.376970 0.017595
v 7.841726 0.375819 0.021419
v 7.847029 0.371784 0.027288
v 7.846836 0.374251 0.024661
v 7.844915 0.370248 0.026864
v 7.846592 0.375725 0.021838
v 7.842801 0.371784 0.027288
v 7.847424 0.367439 0.029881
v 7.849058 0.373001 0.027259
v 7.848603 0.374646 0.024444
v 7.848104 0.375819 0.021419
v 7.844915 0.364535 0.030013
v 7.842406 0.367439 0.029881
v 7.846268 0.376970 0.017595
v 7.840772 0.373001 0.027259
v 7.849719 0.370095 0.029760
v 7.851435 0.374036 0.026846
v 7.850595 0.374938 0.023944
v 7.849779 0.375860 0.020836
v 7.840111 0.370095 0.029760
v 7.844915 0.376993 0.017906
v 7.841227 0.374646 0.024444
v 7.852283 0.372764 0.029873
v 7.852945 0.374827 0.022545
v 7.853586 0.372696 0.030087
v 7.854368 0.373873 0.025088
v 7.851758 0.375731 0.019793
v 7.848569 0.376908 0.016952
v 7.838395 0.374036 0.026846
v 7.837547 0.372764 0.029873
v 7.856154 0.372620 0.027656
v 7.858763 0.370377 0.030565
v 7.856992 0.370574 0.032416
v 7.857239 0.373450 0.022731
v 7.847480 0.376941 0.017272
v 7.836244 0.372696 0.030087
v 7.839235 0.374938 0.023944
v 7.858798 0.372170 0.024899
v 7.861186 0.369951 0.027750
v 7.859588 0.369244 0.031677
v 7.857544 0.369609 0.033238
v 7.846833 0.377872 0.013170
v 7.844915 0.377952 0.013442
v 7.840051 0.375860 0.020836
v 7.836885 0.374827 0.022545
v 7.861405 0.371483 0.021930
v 7.860852 0.367176 0.033460
v 7.857389 0.365788 0.035459
v 7.841260 0.376908 0.016952
v 7.838072 0.375731 0.019793
v 7.835462 0.373873 0.025088
v 7.842350 0.376941 0.017272
v 7.859761 0.372869 0.020116
v 7.855696 0.374548 0.020534
v 7.861945 0.363191 0.035071
v 7.857548 0.361375 0.037979
v 7.842997 0.377872 0.013170
v 7.832591 0.373450 0.022731
v 7.833675 0.372620 0.027656
v 7.831067 0.370377 0.030565
v 7.832838 0.370574 0.032416
v 7.854222 0.375460 0.018184
v 7.859219 0.359186 0.037962
v 7.844915 0.378530 0.010098
v 7.831032 0.372170 0.024899
v 7.828644 0.369951 0.027750
v 7.830242 0.369244 0.031677
v 7.832285 0.369609 0.033238
v 7.840669 0.377693 0.012674
v 7.839372 0.376751 0.016268
v 7.863210 0.356025 0.037334
v 7.828424 0.371483 0.021930
v 7.830069 0.372869 0.020116
v 7.828978 0.367176 0.033460
v 7.832440 0.365788 0.035459
v 7.841696 0.378415 0.009512
v 7.838888 0.377478 0.012069
v 7.837294 0.376504 0.015228
v 7.835608 0.375460 0.018184
v 7.866325 0.353355 0.036782
v 7.867589 0.356647 0.034515
v 7.834134 0.374548 0.020534
v 7.827885 0.363191 0.035071
v 7.832282 0.361375 0.037979
v 7.835048 0.376117 0.013648
v 7.833179 0.374983 0.016227
v 7.831662 0.373950 0.018230
v 7.868615 0.350806 0.035981
v 7.865378 0.363700 0.032315
v 7.867960 0.362833 0.028567
v 7.870474 0.355957 0.031347
v 7.830611 0.359186 0.037962
v 7.829317 0.373262 0.015106
v 7.832896 0.375685 0.011380
v 7.830894 0.374417 0.013463
v 7.870349 0.349877 0.032347
v 7.869343 0.348523 0.034398
v 7.863391 0.367249 0.030103
v 7.872456 0.354953 0.027382
v 7.825903 0.370607 0.018416
v 7.827654 0.372084 0.016728
v 7.826620 0.356025 0.037334
v 7.869433 0.346458 0.032522
v 7.871609 0.348593 0.028170
v 7.824029 0.369372 0.014762
v 7.823642 0.368456 0.020452
v 7.826077 0.369288 0.024232
v 7.825777 0.370969 0.013392
v 7.827453 0.372291 0.012070
v 7.822241 0.356647 0.034515
v 7.823505 0.353355 0.036782
v 7.869016 0.342414 0.028676
v 7.875964 0.346626 0.024173
v 7.826439 0.367249 0.030103
v 7.829051 0.373605 0.010713
v 7.826109 0.371313 0.008572
v 7.821215 0.350806 0.035981
v 7.871277 0.339744 0.022264
v 7.865881 0.366649 0.026385
v 7.863752 0.369288 0.024232
v 7.831125 0.375080 0.008982
v 7.827720 0.372763 0.007508
v 7.819481 0.349877 0.032347
v 7.820487 0.348523 0.034398
v 7.819355 0.355957 0.031347
v 7.866188 0.368456 0.020452
v 7.868351 0.365697 0.022431
v 7.863926 0.370607 0.018416
v 7.824452 0.363700 0.032315
v 7.820396 0.346458 0.032522
v 7.821870 0.362833 0.028567
v 7.817374 0.354953 0.027382
v 7.870423 0.361781 0.024599
v 7.870433 0.364263 0.018170
v 7.823949 0.366649 0.026385
v 7.818221 0.348593 0.028170
v 7.820814 0.342414 0.028676
v 7.821479 0.365697 0.022431
v 7.819407 0.361781 0.024599
v 7.872597 0.360328 0.020202
v 7.813866 0.346626 0.024173
v 7.818552 0.339744 0.022264
v 7.819396 0.364263 0.018170
v 7.817233 0.360328 0.020202
v 7.875248 0.353642 0.022709
v 7.821713 0.367111 0.016441
v 7.812199 0.345084 0.019716
v 7.814582 0.353642 0.022709
v 7.816288 0.337059 0.015860
v 7.817521 0.362294 0.013509
v 7.820048 0.365205 0.012072
v 7.814902 0.358343 0.015286
v 7.813046 0.351691 0.017709
v 7.877631 0.345084 0.019716
v 7.822570 0.367728 0.010697
v 7.814321 0.339786 0.004280
v 7.810591 0.329098 0.006869
v 7.812984 0.342227 0.012070
v 7.816632 0.359630 0.007142
v 7.813686 0.348761 0.009468
v 7.814756 0.354877 0.008120
v 7.873541 0.337059 0.015860
v 7.824406 0.369827 0.009586
v 7.821406 0.366638 0.005661
v 7.814745 0.346327 0.002611
v 7.816533 0.357428 0.000543
v 7.815632 0.351914 0.001189
v 7.879239 0.329098 0.006869
v 7.875509 0.339786 0.004280
v 7.876846 0.342227 0.012070
v 7.826752 0.371994 0.003614
v 7.825089 0.370467 0.004279
v 7.818769 0.363552 0.006501
v 7.873383 0.334659 -0.001512
v 7.870507 0.328994 -0.007372
v 7.878628 0.326256 0.006690
v 7.876143 0.348761 0.009468
v 7.875085 0.346327 0.002611
v 7.876784 0.351691 0.017709
v 7.818531 0.362112 0.000352
v 7.871956 0.334794 -0.009561
v 7.874429 0.340202 -0.003416
v 7.874655 0.320572 0.008295
v 7.874928 0.358343 0.015286
v 7.823321 0.368842 0.004918
v 7.820873 0.365750 0.000036
v 7.817764 0.356144 -0.005632
v 7.873509 0.318440 0.008652
v 7.878857 0.314501 -0.006854
v 7.877989 0.316852 -0.007036
v 7.872309 0.362294 0.013509
v 7.816646 0.350998 -0.005403
v 7.815909 0.345670 -0.004609
v 7.872885 0.316208 0.007946
v 7.878570 0.312758 -0.007009
v 7.873198 0.359630 0.007142
v 7.869781 0.365205 0.012072
v 7.868116 0.367111 0.016441
v 7.818342 0.350941 -0.011592
v 7.815401 0.340202 -0.003416
v 7.871013 0.309510 0.006430
v 7.876011 0.307914 -0.007278
v 7.875073 0.354877 0.008120
v 7.865801 0.369372 0.014762
v 7.816447 0.334659 -0.001512
v 7.817304 0.340598 -0.010930
v 7.817873 0.334794 -0.009561
v 7.870479 0.307574 0.006108
v 7.875620 0.306428 -0.007370
v 7.862176 0.372084 0.016728
v 7.819323 0.328994 -0.007372
v 7.820334 0.334856 -0.016149
v 7.817677 0.345841 -0.011234
v 7.811202 0.326256 0.006690
v 7.876379 0.304603 -0.007330
v 7.871227 0.305245 0.006430
v 7.873921 0.345670 -0.004609
v 7.874198 0.351914 0.001189
v 7.820074 0.345897 -0.017465
v 7.815175 0.320572 0.008295
v 7.873970 0.299452 0.009210
v 7.880047 0.298740 -0.007096
v 7.872526 0.340598 -0.010930
v 7.873297 0.357428 0.000543
v 7.819896 0.340607 -0.017037
v 7.810973 0.314501 -0.006854
v 7.816320 0.318440 0.008652
v 7.811841 0.316852 -0.007036
v 7.874579 0.297115 0.009680
v 7.880636 0.296675 -0.006839
v 7.869496 0.334856 -0.016149
v 7.823219 0.340627 -0.022617
v 7.811260 0.312758 -0.007009
v 7.816945 0.316208 0.007946
v 7.823932 0.328956 -0.022232
v 7.822833 0.319822 -0.021965
v 7.874499 0.294598 0.006649
v 7.879714 0.294386 -0.007163
v 7.813819 0.307914 -0.007278
v 7.818817 0.309510 0.006430
v 7.834070 0.328659 -0.029207
v 7.828160 0.334820 -0.026590
v 7.823611 0.334898 -0.022117
v 7.822558 0.317539 -0.021898
v 7.872824 0.289364 -0.004427
v 7.872252 0.288517 -0.007372
v 7.814209 0.306428 -0.007370
v 7.819351 0.307574 0.006108
v 7.830389 0.314145 -0.035262
v 7.830971 0.317176 -0.034598
v 7.821828 0.315179 -0.022125
v 7.813450 0.304603 -0.007330
v 7.818603 0.305245 0.006430
v 7.830747 0.312231 -0.034738
v 7.819178 0.308057 -0.023160
v 7.815860 0.299452 0.009210
v 7.809783 0.298740 -0.007096
v 7.832608 0.306382 -0.030972
v 7.818910 0.305736 -0.023035
v 7.815251 0.297115 0.009680
v 7.809194 0.296675 -0.006839
v 7.832805 0.304401 -0.030571
v 7.819782 0.303445 -0.022763
v 7.815331 0.294598 0.006649
v 7.810115 0.294386 -0.007163
v 7.832601 0.302476 -0.030876
v 7.824195 0.296743 -0.020477
v 7.817006 0.289364 -0.004427
v 7.817578 0.288517 -0.007372
v 7.830671 0.296452 -0.034316
v 7.825516 0.294495 -0.019838
v 7.830352 0.294617 -0.034778
v 7.823752 0.293166 -0.017068
v 7.827672 0.292737 -0.020676
v 7.830882 0.292581 -0.033420
v 7.818792 0.289080 -0.009500
v 7.833451 0.287492 -0.023002
v 7.835216 0.286586 -0.023610
v 7.845884 0.378925 0.006866
v 7.844915 0.378924 0.007005
v 7.846320 0.378505 0.009900
v 7.843946 0.378925 0.006866
v 7.843510 0.378505 0.009900
v 7.847188 0.378873 0.006559
v 7.845499 0.379106 0.003628
v 7.844915 0.379113 0.003716
v 7.848134 0.378415 0.009512
v 7.849161 0.377693 0.012674
v 7.842641 0.378873 0.006559
v 7.844331 0.379106 0.003628
v 7.848175 0.378790 0.006189
v 7.846232 0.379079 0.003419
v 7.844915 0.379002 -0.001635
v 7.849489 0.378271 0.009040
v 7.850942 0.377478 0.012069
v 7.850458 0.376751 0.016268
v 7.841655 0.378790 0.006189
v 7.843597 0.379079 0.003419
v 7.840341 0.378271 0.009040
v 7.846869 0.379031 0.003161
v 7.850979 0.378049 0.008286
v 7.852921 0.377165 0.011046
v 7.852536 0.376504 0.015228
v 7.854782 0.376117 0.013648
v 7.842961 0.379031 0.003161
v 7.838851 0.378049 0.008286
v 7.836909 0.377165 0.011046
v 7.852638 0.377756 0.006974
v 7.849195 0.378653 0.005663
v 7.855003 0.376787 0.009379
v 7.856651 0.374983 0.016227
v 7.856934 0.375685 0.011380
v 7.858168 0.373950 0.018230
v 7.837192 0.377756 0.006974
v 7.834827 0.376787 0.009379
v 7.853931 0.377465 0.005293
v 7.856615 0.376353 0.007302
v 7.858936 0.374417 0.013463
v 7.860513 0.373262 0.015106
v 7.858705 0.375080 0.008982
v 7.835898 0.377465 0.005293
v 7.833215 0.376353 0.007302
v 7.847451 0.378974 0.002753
v 7.860779 0.373605 0.010713
v 7.862377 0.372291 0.012070
v 7.838524 0.378247 0.003377
v 7.834960 0.377149 0.003300
v 7.832039 0.375870 0.004826
v 7.829833 0.374433 0.006138
v 7.848097 0.378877 0.002155
v 7.850359 0.378455 0.004631
v 7.864053 0.370969 0.013392
v 7.840635 0.378653 0.005663
v 7.839470 0.378455 0.004631
v 7.828940 0.373747 0.002771
v 7.831273 0.375323 0.001959
v 7.848618 0.378761 0.001339
v 7.851305 0.378247 0.003377
v 7.867260 0.367728 0.010697
v 7.828539 0.373074 -0.000945
v 7.830960 0.374781 -0.001159
v 7.826294 0.371299 -0.000704
v 7.849031 0.378649 0.000438
v 7.854869 0.377149 0.003300
v 7.851941 0.378057 0.001865
v 7.871061 0.363552 0.006501
v 7.868423 0.366638 0.005661
v 7.824605 0.369721 -0.000488
v 7.849271 0.378524 -0.000549
v 7.852417 0.377828 0.000248
v 7.857791 0.375870 0.004826
v 7.871299 0.362112 0.000352
v 7.842379 0.378974 0.002753
v 7.841733 0.378877 0.002155
v 7.822815 0.367966 -0.000255
v 7.849365 0.378412 -0.001573
v 7.862110 0.372763 0.007508
v 7.859997 0.374433 0.006138
v 7.872066 0.356144 -0.005632
v 7.841212 0.378761 0.001339
v 7.821406 0.364701 -0.005600
v 7.863720 0.371313 0.008572
v 7.860889 0.373747 0.002771
v 7.858557 0.375323 0.001959
v 7.873184 0.350998 -0.005403
v 7.840798 0.378649 0.000438
v 7.837889 0.378057 0.001865
v 7.819254 0.360844 -0.005617
v 7.855456 0.376778 0.001054
v 7.871488 0.350941 -0.011592
v 7.872153 0.345841 -0.011234
v 7.840559 0.378524 -0.000549
v 7.820906 0.359825 -0.011316
v 7.819427 0.355572 -0.011561
v 7.869756 0.345897 -0.017465
v 7.869934 0.340607 -0.017037
v 7.840465 0.378412 -0.001573
v 7.837413 0.377828 0.000248
v 7.823191 0.367161 -0.005538
v 7.822783 0.363749 -0.010966
v 7.821758 0.355048 -0.017155
v 7.866611 0.340627 -0.022617
v 7.840559 0.378304 -0.002601
v 7.837309 0.377643 -0.001488
v 7.824780 0.362938 -0.015749
v 7.824341 0.366393 -0.010577
v 7.823095 0.359071 -0.016557
v 7.840797 0.378224 -0.003599
v 7.837397 0.377422 -0.003245
v 7.834142 0.376448 -0.001353
v 7.834373 0.376778 0.001054
v 7.824882 0.369048 -0.005384
v 7.825959 0.358519 -0.021160
v 7.834317 0.376150 -0.003825
v 7.828687 0.372509 -0.004816
v 7.826499 0.370678 -0.005168
v 7.825864 0.368387 -0.010079
v 7.834866 0.375954 -0.006210
v 7.831110 0.374359 -0.004404
v 7.829393 0.372000 -0.008620
v 7.831750 0.374010 -0.007573
v 7.827344 0.370082 -0.009499
v 7.828803 0.369462 -0.013413
v 7.827498 0.367681 -0.014246
v 7.826158 0.365625 -0.015022
v 7.837864 0.377285 -0.004913
v 7.830657 0.371522 -0.012130
v 7.832894 0.373712 -0.010453
v 7.835818 0.375800 -0.008326
v 7.829734 0.367039 -0.017857
v 7.832462 0.371121 -0.015184
v 7.830843 0.368908 -0.016814
v 7.827414 0.362288 -0.019908
v 7.828596 0.364951 -0.018874
v 7.841211 0.378152 -0.004506
v 7.834500 0.373478 -0.012933
v 7.837117 0.375682 -0.010132
v 7.838510 0.377164 -0.006457
v 7.834792 0.370842 -0.017624
v 7.833441 0.368509 -0.019614
v 7.830679 0.361832 -0.023418
v 7.841751 0.378101 -0.005314
v 7.838710 0.375595 -0.011590
v 7.836530 0.373316 -0.014907
v 7.839488 0.377095 -0.007721
v 7.840594 0.377017 -0.008835
v 7.842430 0.378047 -0.005963
v 7.840576 0.375521 -0.012678
v 7.838981 0.373190 -0.016375
v 7.841937 0.376975 -0.009572
v 7.843194 0.378015 -0.006465
v 7.843381 0.376912 -0.010130
v 7.842686 0.375444 -0.013370
v 7.841846 0.373066 -0.017337
v 7.837681 0.370636 -0.019449
v 7.844039 0.377982 -0.006756
v 7.844915 0.375404 -0.013616
v 7.844915 0.376902 -0.010237
v 7.844915 0.377975 -0.006872
v 7.844915 0.373005 -0.017691
v 7.841154 0.370457 -0.020657
v 7.836678 0.368215 -0.021743
v 7.846448 0.376912 -0.010130
v 7.847144 0.375444 -0.013370
v 7.847984 0.373066 -0.017337
v 7.845790 0.377982 -0.006756
v 7.848676 0.370457 -0.020657
v 7.844915 0.370374 -0.021107
v 7.840622 0.367978 -0.023125
v 7.836010 0.366221 -0.023230
v 7.832531 0.366569 -0.020896
v 7.847893 0.376975 -0.009572
v 7.849254 0.375521 -0.012678
v 7.850849 0.373190 -0.016375
v 7.852149 0.370636 -0.019449
v 7.846636 0.378015 -0.006465
v 7.831617 0.364462 -0.022145
v 7.849236 0.377017 -0.008835
v 7.851120 0.375595 -0.011590
v 7.853300 0.373316 -0.014907
v 7.855038 0.370842 -0.017624
v 7.853152 0.368215 -0.021743
v 7.856389 0.368509 -0.019614
v 7.847400 0.378047 -0.005963
v 7.850342 0.377095 -0.007721
v 7.852713 0.375682 -0.010132
v 7.855330 0.373478 -0.012933
v 7.857368 0.371121 -0.015184
v 7.858986 0.368908 -0.016814
v 7.849208 0.367978 -0.023125
v 7.853819 0.366221 -0.023230
v 7.848079 0.378101 -0.005314
v 7.851320 0.377164 -0.006457
v 7.854012 0.375800 -0.008326
v 7.856936 0.373712 -0.010453
v 7.859172 0.371522 -0.012130
v 7.861027 0.369462 -0.013413
v 7.860095 0.367039 -0.017857
v 7.844915 0.367874 -0.023629
v 7.848619 0.378152 -0.004506
v 7.851965 0.377285 -0.004913
v 7.854964 0.375954 -0.006210
v 7.858079 0.374010 -0.007573
v 7.860436 0.372000 -0.008620
v 7.862486 0.370082 -0.009499
v 7.857298 0.366569 -0.020896
v 7.844915 0.365829 -0.025251
v 7.840271 0.365947 -0.024719
v 7.849033 0.378224 -0.003599
v 7.861143 0.372509 -0.004816
v 7.863330 0.370678 -0.005168
v 7.863966 0.368387 -0.010079
v 7.849559 0.365947 -0.024719
v 7.839933 0.363807 -0.026252
v 7.835359 0.364099 -0.024665
v 7.849271 0.378304 -0.002601
v 7.852433 0.377422 -0.003245
v 7.862332 0.367681 -0.014246
v 7.849896 0.363807 -0.026252
v 7.854471 0.364099 -0.024665
v 7.834703 0.361496 -0.026105
v 7.852521 0.377643 -0.001488
v 7.861234 0.364951 -0.018874
v 7.863672 0.365625 -0.015022
v 7.844915 0.363680 -0.026811
v 7.858213 0.364462 -0.022145
v 7.833951 0.357866 -0.027817
v 7.829551 0.358146 -0.024961
v 7.855688 0.376448 -0.001353
v 7.844915 0.361073 -0.028375
v 7.839597 0.361206 -0.027787
v 7.828716 0.354246 -0.026159
v 7.824831 0.354596 -0.022123
v 7.855513 0.376150 -0.003825
v 7.850233 0.361206 -0.027787
v 7.844915 0.357463 -0.030197
v 7.823991 0.350389 -0.022713
v 7.820756 0.350710 -0.017480
v 7.858720 0.374359 -0.004404
v 7.858870 0.374781 -0.001159
v 7.855126 0.361496 -0.026105
v 7.861290 0.373074 -0.000945
v 7.863078 0.371994 0.003614
v 7.855879 0.357866 -0.027817
v 7.859151 0.361832 -0.023418
v 7.839220 0.357595 -0.029585
v 7.823400 0.345765 -0.022847
v 7.863536 0.371299 -0.000704
v 7.850610 0.357595 -0.029585
v 7.862416 0.362288 -0.019908
v 7.838970 0.353691 -0.030912
v 7.827800 0.345552 -0.027161
v 7.828143 0.350068 -0.026923
v 7.827778 0.340523 -0.027007
v 7.864948 0.369048 -0.005384
v 7.833429 0.353957 -0.029133
v 7.833125 0.349781 -0.029970
v 7.833028 0.345350 -0.030254
v 7.833155 0.340406 -0.030090
v 7.833514 0.334704 -0.029586
v 7.865225 0.369721 -0.000488
v 7.866639 0.367161 -0.005538
v 7.865489 0.366393 -0.010577
v 7.838833 0.345248 -0.031982
v 7.838842 0.349555 -0.031724
v 7.838939 0.340391 -0.031773
v 7.839153 0.334617 -0.031189
v 7.844915 0.328109 -0.030808
v 7.867046 0.363749 -0.010966
v 7.865049 0.362938 -0.015749
v 7.844915 0.353564 -0.031503
v 7.844915 0.349457 -0.032276
v 7.844915 0.340409 -0.032265
v 7.844915 0.334581 -0.031640
v 7.844915 0.317915 -0.028910
v 7.868924 0.359825 -0.011316
v 7.868424 0.364701 -0.005600
v 7.850860 0.353691 -0.030912
v 7.850677 0.334617 -0.031189
v 7.844915 0.315431 -0.028944
v 7.863871 0.358519 -0.021160
v 7.867015 0.367966 -0.000255
v 7.855760 0.328659 -0.029207
v 7.858859 0.317176 -0.034598
v 7.844915 0.312883 -0.030186
v 7.860279 0.358146 -0.024961
v 7.866735 0.359071 -0.016557
v 7.864741 0.370467 0.004279
v 7.866508 0.368842 0.004918
v 7.859441 0.314145 -0.035262
v 7.844915 0.305502 -0.036017
v 7.844915 0.302949 -0.036762
v 7.861114 0.354246 -0.026159
v 7.868072 0.355048 -0.017155
v 7.859083 0.312231 -0.034738
v 7.844915 0.300578 -0.035784
v 7.856401 0.353957 -0.029133
v 7.864999 0.354596 -0.022123
v 7.857222 0.306382 -0.030972
v 7.844915 0.293922 -0.029281
v 7.856705 0.349781 -0.029970
v 7.850987 0.349555 -0.031724
v 7.865839 0.350389 -0.022713
v 7.865424 0.369827 0.009586
v 7.857025 0.304401 -0.030571
v 7.844915 0.291666 -0.027304
v 7.861687 0.350068 -0.026923
v 7.850996 0.345248 -0.031982
v 7.844915 0.345222 -0.032504
v 7.868957 0.365750 0.000036
v 7.857229 0.302476 -0.030876
v 7.842760 0.290537 -0.026483
v 7.862030 0.345552 -0.027161
v 7.859159 0.296452 -0.034316
v 7.836887 0.287005 -0.024270
v 7.856802 0.345350 -0.030254
v 7.850891 0.340391 -0.031773
v 7.856675 0.340406 -0.030090
v 7.870575 0.360844 -0.005617
v 7.859478 0.294617 -0.034778
v 7.856316 0.334704 -0.029586
v 7.862052 0.340523 -0.027007
v 7.861670 0.334820 -0.026590
v 7.870402 0.355572 -0.011561
v 7.847070 0.290537 -0.026483
v 7.858948 0.292581 -0.033420
v 7.866430 0.345765 -0.022847
v 7.866219 0.334898 -0.022117
v 7.865898 0.328956 -0.022232
v 7.869073 0.350710 -0.017480
v 7.852943 0.287005 -0.024270
v 7.854614 0.286586 -0.023610
v 7.866997 0.319822 -0.021965
v 7.867272 0.317539 -0.021898
v 7.868001 0.315179 -0.022125
v 7.870652 0.308057 -0.023160
v 7.870920 0.305736 -0.023035
v 7.870048 0.303445 -0.022763
v 7.865635 0.296743 -0.020477
v 7.864314 0.294495 -0.019838
v 7.862158 0.292737 -0.020676
v 7.866078 0.293166 -0.017068
v 7.856379 0.287492 -0.023002
v 7.871038 0.289080 -0.009500
v 7.840111 0.370095 0.029760
v 7.837547 0.372764 0.029873
v 7.836154 0.356339 0.005369
v 7.842406 0.367439 0.029881
v 7.836244 0.372696 0.030087
v 7.844915 0.364535 0.030013
v 7.832838 0.370574 0.032416
v 7.853676 0.356339 0.005369
v 7.847424 0.367439 0.029881
v 7.832285 0.369609 0.033238
v 7.849719 0.370095 0.029760
v 7.832440 0.365788 0.035459
v 7.852283 0.372764 0.029873
v 7.832282 0.361375 0.037979
v 7.853586 0.372696 0.030087
v 7.830611 0.359186 0.037962
v 7.856992 0.370574 0.032416
v 7.826620 0.356025 0.037334
v 7.857544 0.369609 0.033238
v 7.823505 0.353355 0.036782
v 7.857389 0.365788 0.035459
v 7.821215 0.350806 0.035981
v 7.857548 0.361375 0.037979
v 7.820487 0.348523 0.034398
v 7.859219 0.359186 0.037962
v 7.820396 0.346458 0.032522
v 7.863210 0.356025 0.037334
v 7.820814 0.342414 0.028676
v 7.866325 0.353355 0.036782
v 7.818552 0.339744 0.022264
v 7.868615 0.350806 0.035981
v 7.816288 0.337059 0.015860
v 7.869343 0.348523 0.034398
v 7.829532 0.328786 -0.008894
v 7.810591 0.329098 0.006869
v 7.869433 0.346458 0.032522
v 7.811202 0.326256 0.006690
v 7.816320 0.318440 0.008652
v 7.832083 0.317037 -0.010986
v 7.815175 0.320572 0.008295
v 7.869016 0.342414 0.028676
v 7.871277 0.339744 0.022264
v 7.860298 0.328786 -0.008894
v 7.873541 0.337059 0.015860
v 7.816945 0.316208 0.007946
v 7.879239 0.329098 0.006869
v 7.878628 0.326256 0.006690
v 7.857747 0.317037 -0.010986
v 7.873509 0.318440 0.008652
v 7.874655 0.320572 0.008295
v 7.818817 0.309510 0.006430
v 7.872885 0.316208 0.007946
v 7.819351 0.307574 0.006108
v 7.871013 0.309510 0.006430
v 7.824543 0.295666 0.008231
v 7.818603 0.305245 0.006430
v 7.831062 0.294740 -0.007372
v 7.844915 0.294036 -0.017419
v 7.844915 0.316698 -0.013937
v 7.870479 0.307574 0.006108
v 7.815860 0.299452 0.009210
v 7.817578 0.288517 -0.007372
v 7.815251 0.297115 0.009680
v 7.815331 0.294598 0.006649
v 7.817006 0.289364 -0.004427
v 7.865287 0.295666 0.008231
v 7.871227 0.305245 0.006430
v 7.818792 0.289080 -0.009500
v 7.858768 0.294740 -0.007372
v 7.872252 0.288517 -0.007372
v 7.874499 0.294598 0.006649
v 7.874579 0.297115 0.009680
v 7.872824 0.289364 -0.004427
v 7.873970 0.299452 0.009210
v 7.823752 0.293166 -0.017068
v 7.871038 0.289080 -0.009500
v 7.825516 0.294495 -0.019838
v 7.835216 0.286586 -0.023610
v 7.827672 0.292737 -0.020676
v 7.833451 0.287492 -0.023002
v 7.866078 0.293166 -0.017068
v 7.836887 0.287005 -0.024270
v 7.854614 0.286586 -0.023610
v 7.864314 0.294495 -0.019838
v 7.856379 0.287492 -0.023002
v 7.862158 0.292737 -0.020676
v 7.842760 0.290537 -0.026483
v 7.852943 0.287005 -0.024270
v 7.844915 0.291666 -0.027304
v 7.847070 0.290537 -0.026483
vn -0.0345 0.9227 0.3840
vn -0.0000 0.8976 0.4408
vn -0.0000 0.7378 0.6750
vn -0.2244 0.7835 0.5795
vn 0.0508 0.9679 0.2462
vn -0.0000 0.9649 0.2627
vn -0.0508 0.9679 0.2462
vn 0.0345 0.9227 0.3840
vn 0.0203 0.9497 0.3125
vn 0.0725 0.9702 0.2311
vn 0.3931 0.5597 0.7295
vn -0.0000 0.5386 0.8426
vn 0.2244 0.7835 0.5795
vn -0.7949 0.2319 -0.5607
vn -0.8160 0.0320 -0.5771
vn -0.9627 -0.2413 -0.1226
vn -0.9908 0.0252 -0.1330
vn 0.3437 0.4934 0.7990
vn 0.3866 0.3800 0.8403
vn 0.4555 0.4325 0.7782
vn 0.4680 0.5804 0.6664
vn -0.3931 0.5597 0.7295
vn -0.4435 0.4446 0.7782
vn 0.1290 0.8840 0.4494
vn 0.3412 0.7085 0.6177
vn -0.8020 0.0467 -0.5954
vn -0.9780 -0.2051 -0.0375
vn -0.0203 0.9497 0.3125
vn -0.0000 0.4828 0.8757
vn 0.4435 0.4446 0.7782
vn 0.8641 0.4009 0.3044
vn 0.9337 0.2464 -0.2598
vn 0.9217 0.3673 -0.1249
vn 0.8485 0.4389 0.2956
vn 0.9781 -0.0844 -0.1901
vn 0.9755 0.0738 -0.2074
vn 0.9832 0.0725 -0.1673
vn 0.9897 0.0410 -0.1368
vn -0.0000 -0.0438 -0.9990
vn -0.4619 -0.0576 -0.8850
vn -0.3930 -0.1349 -0.9096
vn -0.0000 0.3172 -0.9484
vn -0.4251 0.5472 0.7210
vn -0.3412 0.7085 0.6177
vn 0.0589 0.9077 0.4154
vn 0.2206 0.8304 0.5116
vn 0.4251 0.5472 0.7210
vn -0.7795 -0.1457 -0.6092
vn -0.9928 0.1189 0.0167
vn -0.7626 0.1434 -0.6307
vn -0.9495 -0.0671 -0.3064
vn -0.8955 -0.0629 -0.4407
vn -0.9041 -0.1857 -0.3849
vn -0.9280 -0.2522 -0.2744
vn 0.9724 0.1538 -0.1752
vn 0.9609 0.2387 -0.1402
vn 0.9838 0.1024 -0.1473
vn 0.5244 0.8351 -0.1663
vn 0.5993 0.7812 -0.1751
vn 0.5784 0.7721 -0.2633
vn 0.5055 0.8292 -0.2385
vn -0.0589 0.9077 0.4154
vn -0.2206 0.8304 0.5116
vn 0.2284 0.9217 0.3135
vn -0.2696 0.9327 0.2396
vn -0.3503 0.8969 0.2700
vn -0.2284 0.9217 0.3135
vn -0.0725 0.9702 0.2311
vn -0.1174 0.9695 0.2151
vn -0.1118 0.9609 0.2533
vn -0.6785 0.7339 0.0321
vn -0.7279 0.6857 -0.0001
vn -0.7637 0.6454 -0.0151
vn -0.7181 0.6942 0.0490
vn 0.9454 0.0261 -0.3248
vn 0.9036 0.3718 -0.2127
vn 0.7949 0.2319 -0.5607
vn 0.7982 0.0989 -0.5942
vn -0.3075 0.8296 -0.4660
vn -0.3714 0.7552 -0.5401
vn -0.4703 0.7563 -0.4548
vn -0.3964 0.8279 -0.3968
vn -0.3734 0.9026 0.2141
vn -0.4416 0.8645 0.2400
vn -0.2283 0.9465 0.2280
vn -0.3191 0.9271 0.1967
vn 0.0535 0.9481 0.3135
vn -0.1290 0.8840 0.4494
vn -0.9688 -0.2435 -0.0466
vn -0.9481 -0.2212 0.2284
vn -0.9762 0.2075 0.0624
vn -0.9838 0.1024 -0.1473
vn -0.5003 0.7077 0.4989
vn -0.4418 0.6618 0.6057
vn -0.4362 0.8161 0.3792
vn -0.4692 0.8114 0.3484
vn -0.5298 0.7962 0.2923
vn -0.6170 0.6683 0.4157
vn -0.0000 0.9810 0.1938
vn -0.0895 0.9775 0.1912
vn 0.1174 0.9695 0.2151
vn 0.0895 0.9775 0.1912
vn 0.1118 0.9609 0.2533
vn 0.2696 0.9327 0.2396
vn 0.2283 0.9465 0.2280
vn 0.2052 0.9550 0.2142
vn 0.2626 0.9405 -0.2154
vn 0.3569 0.8951 -0.2671
vn 0.3064 0.8944 -0.3258
vn 0.2245 0.9402 -0.2563
vn -0.5140 0.8323 0.2075
vn -0.5869 0.7714 0.2460
vn -0.4680 0.5804 0.6664
vn -0.3437 0.4934 0.7990
vn 0.3001 0.9431 -0.1429
vn 0.4096 0.8990 -0.1549
vn 0.3926 0.8967 -0.2044
vn 0.2862 0.9425 -0.1725
vn 0.1805 0.9631 0.1998
vn -0.4688 0.6111 -0.6378
vn -0.5026 0.5524 -0.6650
vn -0.6196 0.5484 -0.5616
vn -0.5773 0.6135 -0.5388
vn -0.4107 0.8973 0.1617
vn -0.4578 0.8709 0.1789
vn -0.4555 0.4325 0.7782
vn -0.3866 0.3800 0.8403
vn 0.6933 0.7205 0.0144
vn 0.7187 0.6952 -0.0112
vn 0.6788 0.7341 -0.0180
vn 0.6506 0.7592 0.0184
vn 0.2690 0.9623 -0.0398
vn 0.2917 0.9536 -0.0746
vn 0.1857 0.9788 -0.0861
vn 0.1766 0.9822 -0.0641
vn 0.3626 0.9316 -0.0232
vn 0.3948 0.9160 -0.0717
vn 0.4362 0.8161 0.3792
vn 0.4692 0.8114 0.3484
vn 0.3503 0.8969 0.2700
vn 0.9635 0.1445 -0.2252
vn 0.9355 0.2520 -0.2477
vn 0.9431 0.2867 -0.1684
vn 0.4138 0.3307 0.8482
vn -0.0000 0.8873 -0.4612
vn 0.0748 0.8888 -0.4522
vn 0.0981 0.8271 -0.5534
vn -0.0000 0.8261 -0.5636
vn -0.0000 0.9879 0.1548
vn -0.0653 0.9859 0.1544
vn 0.5298 0.7962 0.2923
vn 0.4416 0.8645 0.2400
vn -0.2870 0.2289 -0.9302
vn -0.3295 0.0798 -0.9408
vn -0.1142 0.9699 -0.2148
vn -0.1775 0.9382 -0.2972
vn -0.2245 0.9402 -0.2563
vn -0.1459 0.9707 -0.1911
vn 0.7637 0.6454 -0.0151
vn 0.7181 0.6942 0.0490
vn 0.7830 0.6098 0.1226
vn 0.8354 0.5496 -0.0026
vn 0.4666 0.3631 0.8065
vn -0.1816 0.9820 0.0523
vn -0.2156 0.9761 0.0271
vn -0.2725 0.9592 0.0757
vn -0.2277 0.9675 0.1097
vn 0.5140 0.8323 0.2075
vn 0.4578 0.8709 0.1789
vn 0.3734 0.9026 0.2141
vn 0.9701 -0.1579 -0.1844
vn 0.7431 -0.4706 -0.4757
vn 0.7251 -0.3843 -0.5715
vn 0.1503 0.9713 0.1846
vn 0.1208 0.9814 0.1492
vn 0.0653 0.9859 0.1544
vn 0.2139 0.9618 0.1708
vn 0.1799 0.9747 0.1325
vn 0.5648 0.8219 0.0735
vn 0.5964 0.8010 0.0529
vn 0.6267 0.7788 0.0280
vn 0.2816 0.9408 0.1887
vn 0.2478 0.9511 0.1845
vn 0.3191 0.9271 0.1967
vn 0.5370 0.3288 0.7769
vn 0.6689 0.3416 0.6603
vn 0.9471 0.0696 -0.3133
vn 0.9327 0.1613 -0.3225
vn -0.6562 0.7363 0.1653
vn -0.5949 0.7930 0.1312
vn -0.9454 0.0261 -0.3248
vn -0.7891 -0.3051 -0.5332
vn -0.9318 0.1623 -0.3246
vn -0.9330 -0.0787 -0.3513
vn 0.3211 0.9323 0.1662
vn 0.2727 0.9499 0.1524
vn 0.3705 0.9142 0.1643
vn 0.4107 0.8973 0.1617
vn 0.8061 0.1617 0.5693
vn -0.6689 0.3416 0.6603
vn -0.6469 0.5013 0.5747
vn -0.7650 0.5142 0.3877
vn -0.8558 0.2582 0.4484
vn -0.9431 0.2867 -0.1684
vn -0.9724 0.1538 -0.1752
vn -0.9609 0.2387 -0.1402
vn -0.9057 0.4102 -0.1066
vn 0.9184 0.3947 0.0268
vn 0.9057 0.4102 -0.1066
vn -0.4138 0.3307 0.8482
vn 0.5045 0.8559 0.1139
vn 0.4662 0.8752 0.1287
vn 0.4073 0.9035 0.1338
vn 0.9197 -0.1142 0.3756
vn 0.9121 -0.0505 0.4068
vn 0.8742 0.1728 -0.4537
vn 0.8421 0.2836 -0.4588
vn 0.9018 0.2678 -0.3391
vn 0.6170 0.6683 0.4157
vn 0.5003 0.7077 0.4989
vn -0.5441 0.8315 0.1118
vn -0.6367 0.7701 0.0388
vn 0.5962 0.6968 -0.3988
vn 0.6468 0.6289 -0.4314
vn 0.5773 0.6135 -0.5388
vn 0.5331 0.6791 -0.5046
vn 0.5949 0.7930 0.1312
vn 0.5441 0.8315 0.1118
vn -0.4666 0.3631 0.8065
vn 0.9100 -0.2817 0.3041
vn 0.8497 -0.1709 0.4988
vn 0.6785 0.7339 0.0321
vn 0.6367 0.7701 0.0388
vn -0.4012 0.1383 -0.9055
vn -0.3998 0.0152 -0.9165
vn -0.6084 0.0325 -0.7930
vn -0.6060 0.1544 -0.7803
vn 0.6562 0.7363 0.1653
vn -0.1161 0.9373 -0.3285
vn -0.1577 0.8915 -0.4248
vn -0.2390 0.8937 -0.3797
vn 0.6469 0.5013 0.5747
vn -0.5370 0.3288 0.7769
vn 0.7542 -0.4149 0.5090
vn -0.8722 0.2372 0.4278
vn -0.8898 0.2740 0.3649
vn -0.8369 -0.1840 0.5155
vn -0.8497 -0.1709 0.4988
vn -0.1721 -0.1259 -0.9770
vn -0.0000 -0.1379 -0.9904
vn -0.0000 -0.0231 -0.9997
vn -0.3960 0.1334 -0.9085
vn -0.9355 0.2520 -0.2477
vn -0.9018 0.2678 -0.3391
vn -0.9327 0.1613 -0.3225
vn -0.9635 0.1445 -0.2252
vn 0.8554 0.3788 -0.3533
vn 0.8812 0.3976 -0.2557
vn 0.2277 0.9675 0.1097
vn -0.7858 -0.0605 -0.6155
vn -0.7939 -0.0735 -0.6036
vn -0.8061 0.1617 0.5693
vn -0.6815 0.6639 0.3078
vn -0.5682 0.8226 0.0224
vn -0.4743 0.8804 0.0018
vn -0.5100 0.8581 -0.0605
vn -0.5993 0.7995 -0.0401
vn 0.5682 0.8226 0.0224
vn 0.5021 0.8612 0.0796
vn -0.9121 -0.0505 0.4068
vn -0.9197 -0.1142 0.3756
vn 0.8558 0.2582 0.4484
vn 0.7397 0.6324 0.2298
vn -0.1865 0.0071 -0.9824
vn -0.1816 -0.0751 -0.9805
vn -0.3919 -0.0711 -0.9173
vn -0.3369 0.5553 -0.7604
vn -0.3143 0.6120 -0.7257
vn -0.1518 0.6081 -0.7792
vn -0.1613 0.5527 -0.8176
vn -0.9100 -0.2817 0.3041
vn 0.7650 0.5142 0.3877
vn 0.6815 0.6639 0.3078
vn 0.7626 0.1434 -0.6307
vn 0.7795 -0.1457 -0.6092
vn 0.4619 -0.0576 -0.8850
vn 0.3930 -0.1349 -0.9096
vn 0.8722 0.2372 0.4278
vn 0.8121 0.4964 0.3068
vn -0.7830 0.6098 0.1226
vn -0.7397 0.6324 0.2298
vn -0.8471 0.4830 0.2218
vn -0.8121 0.4964 0.3068
vn 0.5869 0.7714 0.2460
vn -0.7542 -0.4149 0.5090
vn -0.0000 -0.4259 -0.9047
vn -0.4411 0.0216 -0.8972
vn 0.6702 -0.5222 0.5274
vn 0.8369 -0.1840 0.5155
vn -0.3861 -0.0986 -0.9172
vn -0.5895 -0.1166 -0.7993
vn -0.6030 -0.0633 -0.7952
vn 0.7676 0.1707 -0.6178
vn 0.7427 0.2891 -0.6040
vn -0.3705 0.9142 0.1643
vn -0.4662 0.8752 0.1287
vn -0.5045 0.8559 0.1139
vn 0.9102 -0.3330 0.2461
vn 0.9481 -0.2212 0.2284
vn 0.9762 0.2075 0.0624
vn 0.8898 0.2740 0.3649
vn 0.8471 0.4830 0.2218
vn 0.6540 0.7345 -0.1814
vn 0.7050 0.6826 -0.1924
vn 0.6904 0.6542 -0.3089
vn 0.6346 0.7182 -0.2853
vn 0.7279 0.6857 -0.0001
vn -0.5784 0.7721 -0.2633
vn -0.5055 0.8292 -0.2385
vn -0.4626 0.8268 -0.3200
vn -0.5366 0.7628 -0.3607
vn 0.2870 0.2289 -0.9302
vn 0.3960 0.1334 -0.9085
vn -0.5355 0.4854 -0.6911
vn -0.6633 0.4772 -0.5765
vn -0.9102 -0.3330 0.2461
vn -0.9897 0.0410 -0.1368
vn 0.8255 0.5617 -0.0544
vn -0.0535 0.9481 0.3135
vn 0.9688 -0.2435 -0.0466
vn 0.7631 0.6460 -0.0180
vn 0.1407 0.6688 -0.7300
vn -0.0000 0.6660 -0.7460
vn -0.0000 0.7505 -0.6609
vn 0.1211 0.7522 -0.6477
vn -0.7516 0.4695 -0.4634
vn -0.7042 0.3979 -0.5880
vn -0.7981 0.3868 -0.4619
vn 0.9318 0.1623 -0.3246
vn 0.6533 0.7568 -0.0222
vn 0.0345 0.9683 -0.2474
vn 0.0746 0.9691 -0.2349
vn 0.1161 0.9373 -0.3285
vn 0.0549 0.9343 -0.3523
vn 0.9330 -0.0787 -0.3513
vn -0.1876 0.2611 -0.9469
vn -0.1888 0.1273 -0.9737
vn -0.3944 0.2734 -0.8773
vn -0.9832 0.0725 -0.1673
vn -0.9184 0.3947 0.0268
vn 0.5366 0.7628 -0.3607
vn 0.8747 0.4631 -0.1428
vn 0.8000 0.5891 -0.1141
vn 0.9280 -0.2522 -0.2744
vn -0.9755 0.0738 -0.2074
vn -0.9781 -0.0844 -0.1901
vn 0.7891 -0.3051 -0.5332
vn 0.9667 -0.2534 0.0346
vn 0.0414 0.9949 0.0920
vn -0.0000 0.9954 0.0962
vn -0.0549 0.9343 -0.3523
vn -0.0000 0.9342 -0.3568
vn -0.0748 0.8888 -0.4522
vn 0.8561 -0.3421 0.3874
vn 0.9908 0.0252 -0.1330
vn -0.6702 -0.5222 0.5274
vn -0.8354 0.5496 -0.0026
vn -0.8255 0.5617 -0.0544
vn 0.4688 0.6111 -0.6378
vn 0.4300 0.6738 -0.6010
vn -0.8639 -0.3392 0.3724
vn -0.8644 -0.3235 0.3850
vn -0.9346 0.0142 0.3554
vn 0.7392 0.6662 -0.0988
vn 0.9041 -0.1857 -0.3849
vn 0.8955 -0.0629 -0.4407
vn 0.9495 -0.0671 -0.3064
vn -0.9217 0.3673 -0.1249
vn -0.8485 0.4389 0.2956
vn -0.7392 0.6662 -0.0988
vn -0.7551 0.6199 -0.2133
vn -0.8166 0.5255 -0.2386
vn -0.8000 0.5891 -0.1141
vn -0.3926 0.8967 -0.2044
vn -0.2862 0.9425 -0.1725
vn -0.2626 0.9405 -0.2154
vn -0.3569 0.8951 -0.2671
vn 0.8911 0.0630 -0.4494
vn -0.9667 -0.2534 0.0346
vn -0.9337 0.2464 -0.2598
vn -0.8641 0.4009 0.3044
vn -0.9471 0.0696 -0.3133
vn -0.0000 -0.6560 0.7547
vn -0.5597 -0.6027 0.5687
vn -0.6823 0.0665 0.7281
vn -0.0000 -0.0081 1.0000
vn -0.8561 -0.3421 0.3874
vn -0.9036 0.3718 -0.2127
vn -0.9701 -0.1579 -0.1844
vn -0.9375 0.0633 0.3422
vn -0.2816 0.9408 0.1887
vn -0.2478 0.9511 0.1845
vn -0.3211 0.9323 0.1662
vn 0.7939 -0.0735 -0.6036
vn 0.7858 -0.0605 -0.6155
vn 0.8644 -0.3235 0.3850
vn 0.9627 -0.2413 -0.1226
vn -0.7982 0.0989 -0.5942
vn -0.5328 -0.3846 0.7538
vn -0.6958 0.1650 0.6990
vn 0.9375 0.0633 0.3422
vn 0.8147 -0.4889 0.3117
vn 0.8177 -0.5029 -0.2802
vn 0.3295 0.0798 -0.9408
vn 0.2908 -0.2820 -0.9143
vn -0.0000 0.1447 -0.9895
vn -0.0000 -0.1172 -0.9931
vn 0.7036 -0.4000 -0.5873
vn 0.4411 0.0216 -0.8972
vn 0.5895 -0.1166 -0.7993
vn 0.6030 -0.0633 -0.7952
vn 0.8160 0.0320 -0.5771
vn 0.6246 -0.7606 0.1771
vn 0.6009 -0.7547 -0.2632
vn 0.9780 -0.2051 -0.0375
vn 0.8020 0.0467 -0.5954
vn -0.1707 0.9715 -0.1643
vn -0.1845 0.9726 -0.1412
vn -0.2908 -0.2820 -0.9143
vn 0.9928 0.1189 0.0167
vn -0.8747 0.4631 -0.1428
vn -0.8812 0.3976 -0.2557
vn -0.7036 -0.4000 -0.5873
vn -0.8147 -0.4889 0.3117
vn -0.8177 -0.5029 -0.2802
vn -0.7251 -0.3843 -0.5715
vn -0.6246 -0.7606 0.1771
vn -0.6009 -0.7547 -0.2632
vn -0.3619 0.3810 -0.8508
vn -0.7431 -0.4706 -0.4757
vn -0.4289 -0.2526 -0.8673
vn -0.5606 -0.5320 -0.6346
vn 0.4289 -0.2526 -0.8673
vn 0.3003 -0.7816 -0.5468
vn -0.2577 -0.6806 -0.6858
vn -0.0000 -0.6603 -0.7510
vn -0.5305 -0.6065 -0.5922
vn -0.7538 -0.6238 -0.2063
vn -0.3003 -0.7816 -0.5468
vn -0.6009 -0.7666 -0.2263
vn -0.2436 -0.8717 -0.4251
vn -0.0414 0.9949 0.0920
vn -0.1211 0.7522 -0.6477
vn -0.0981 0.8271 -0.5534
vn -0.0258 0.9995 0.0170
vn -0.0596 0.9982 0.0095
vn -0.0893 0.9925 0.0837
vn -0.0000 0.9998 0.0212
vn 0.0258 0.9995 0.0170
vn 0.8166 0.5255 -0.2386
vn 0.8031 0.4814 -0.3512
vn -0.1503 0.9713 0.1846
vn -0.1805 0.9631 0.1998
vn 0.0893 0.9925 0.0837
vn -0.3196 0.9471 0.0299
vn -0.4156 0.9072 0.0645
vn -0.3406 0.9327 0.1187
vn -0.1390 0.9879 0.0687
vn -0.1799 0.9747 0.1325
vn -0.1208 0.9814 0.1492
vn -0.0935 0.9956 0.0008
vn 0.0596 0.9982 0.0095
vn -0.0000 0.9944 -0.1057
vn -0.2139 0.9618 0.1708
vn -0.0000 0.6053 -0.7960
vn -0.1407 0.6688 -0.7300
vn 0.0935 0.9956 0.0008
vn -0.2727 0.9499 0.1524
vn 0.1142 0.9699 -0.2148
vn 0.1775 0.9382 -0.2972
vn 0.4743 0.8803 0.0018
vn 0.4156 0.9072 0.0645
vn -0.5244 0.8351 -0.1663
vn -0.5993 0.7812 -0.1751
vn -0.6056 0.7889 -0.1047
vn -0.5250 0.8436 -0.1128
vn -0.2024 0.8293 -0.5209
vn 0.6595 0.7457 -0.0945
vn 0.6977 0.7103 -0.0930
vn 0.5100 0.8581 -0.0605
vn 0.5250 0.8436 -0.1128
vn 0.4103 0.9048 -0.1139
vn 0.7981 0.3868 -0.4619
vn 0.3406 0.9327 0.1187
vn -0.6533 0.7568 -0.0222
vn -0.6267 0.7788 0.0280
vn 0.4626 0.8268 -0.3200
vn 0.3964 0.8279 -0.3968
vn -0.4073 0.9035 0.1338
vn -0.5021 0.8612 0.0796
vn -0.5648 0.8219 0.0735
vn 0.3196 0.9471 0.0299
vn 0.2725 0.9592 0.0757
vn 0.1210 0.9926 -0.0119
vn -0.5964 0.8010 0.0529
vn 0.3714 0.7552 -0.5401
vn 0.2467 0.7550 -0.6075
vn 0.2024 0.8293 -0.5209
vn 0.3075 0.8296 -0.4660
vn 0.2445 0.9697 -0.0024
vn 0.1495 0.9884 -0.0282
vn -0.1495 0.9884 -0.0282
vn -0.1210 0.9926 -0.0119
vn 0.1816 0.9820 0.0523
vn 0.1390 0.9879 0.0687
vn 0.2156 0.9761 0.0271
vn 0.5993 0.7995 -0.0401
vn 0.1639 0.9855 -0.0440
vn -0.1766 0.9822 -0.0641
vn -0.2690 0.9623 -0.0398
vn -0.2445 0.9697 -0.0024
vn -0.1639 0.9855 -0.0440
vn -0.6933 0.7205 0.0144
vn 0.6056 0.7889 -0.1047
vn -0.2052 0.9550 0.2142
vn -0.3593 0.4874 -0.7958
vn -0.1857 0.9788 -0.0861
vn -0.2917 0.9536 -0.0746
vn -0.3948 0.9160 -0.0717
vn -0.3626 0.9316 -0.0232
vn -0.3001 0.9431 -0.1429
vn -0.4096 0.8990 -0.1549
vn -0.4103 0.9048 -0.1139
vn -0.2982 0.9481 -0.1102
vn 0.1887 0.9761 -0.1074
vn -0.5653 0.4021 -0.7203
vn 0.7551 0.6199 -0.2133
vn -0.6506 0.7592 0.0184
vn 0.6060 0.1544 -0.7803
vn 0.5918 0.2841 -0.7544
vn -0.6540 0.7345 -0.1814
vn -0.6595 0.7457 -0.0945
vn -0.8911 0.0630 -0.4494
vn -0.6788 0.7341 -0.0180
vn -0.1887 0.9761 -0.1074
vn 0.2982 0.9481 -0.1102
vn -0.0000 0.3854 -0.9228
vn -0.1815 0.3898 -0.9028
vn -0.1720 0.4843 -0.8579
vn -0.0000 0.4823 -0.8760
vn 0.3944 0.2734 -0.8773
vn 0.3789 0.3981 -0.8355
vn 0.5653 0.4021 -0.7203
vn -0.7805 0.0516 -0.6230
vn -0.1894 0.9739 -0.1248
vn 0.1894 0.9739 -0.1248
vn -0.6977 0.7103 -0.0930
vn -0.7050 0.6826 -0.1924
vn 0.7469 0.5760 -0.3322
vn 0.7516 0.4695 -0.4634
vn 0.6989 0.5529 -0.4536
vn -0.7469 0.5760 -0.3322
vn -0.6989 0.5529 -0.4536
vn -0.8031 0.4814 -0.3512
vn -0.3064 0.8944 -0.3258
vn 0.7042 0.3979 -0.5880
vn 0.6633 0.4772 -0.5765
vn -0.7631 0.6460 -0.0180
vn -0.4300 0.6738 -0.6010
vn -0.5331 0.6791 -0.5046
vn 0.8639 -0.3392 0.3724
vn 0.6196 0.5484 -0.5616
vn 0.4703 0.7563 -0.4548
vn 0.1707 0.9715 -0.1643
vn 0.1845 0.9726 -0.1412
vn -0.5962 0.6968 -0.3988
vn -0.8742 0.1728 -0.4537
vn 0.5355 0.4854 -0.6911
vn 0.5026 0.5524 -0.6650
vn 0.1459 0.9707 -0.1911
vn 0.2390 0.8937 -0.3797
vn 0.1577 0.8915 -0.4248
vn -0.0746 0.9691 -0.2349
vn -0.0345 0.9683 -0.2474
vn -0.0000 0.9678 -0.2517
vn 0.2879 0.6731 -0.6813
vn 0.3143 0.6120 -0.7257
vn 0.1518 0.6081 -0.7792
vn -0.2467 0.7550 -0.6075
vn 0.7805 0.0516 -0.6230
vn -0.2879 0.6731 -0.6813
vn -0.6468 0.6289 -0.4314
vn -0.6904 0.6542 -0.3089
vn -0.7187 0.6952 -0.0112
vn 0.7067 0.2291 0.6694
vn 0.7793 0.0618 0.6236
vn 0.6823 0.0665 0.7281
vn 0.7430 -0.1702 0.6473
vn 0.4418 0.6618 0.6057
vn -0.6346 0.7182 -0.2853
vn 0.4012 0.1383 -0.9055
vn 0.3369 0.5553 -0.7604
vn 0.1613 0.5527 -0.8176
vn -0.0000 0.5507 -0.8347
vn -0.3789 0.3981 -0.8355
vn 0.3593 0.4874 -0.7958
vn 0.1815 0.3898 -0.9028
vn 0.1720 0.4843 -0.8579
vn 0.1876 0.2611 -0.9469
vn -0.0000 0.2549 -0.9670
vn 0.3998 0.0152 -0.9165
vn 0.1865 0.0071 -0.9824
vn 0.1888 0.1273 -0.9737
vn -0.0000 0.1227 -0.9924
vn 0.6084 0.0325 -0.7930
vn -0.7676 0.1707 -0.6178
vn 0.3861 -0.0986 -0.9172
vn 0.3919 -0.0711 -0.9173
vn 0.1816 -0.0751 -0.9805
vn 0.1721 -0.1259 -0.9770
vn 0.9346 0.0142 0.3554
vn -0.0000 -0.0760 -0.9971
vn -0.8554 0.3788 -0.3533
vn -0.0000 0.3938 -0.9192
vn -0.5918 0.2841 -0.7544
vn -0.7427 0.2891 -0.6040
vn -0.8421 0.2836 -0.4588
vn -0.0000 -0.5450 -0.8384
vn -0.0000 0.0047 -1.0000
vn 0.3619 0.3810 -0.8508
vn 0.1183 -0.8116 -0.5722
vn 0.2577 -0.6806 -0.6858
vn -0.1183 -0.8116 -0.5722
vn 0.2436 -0.8717 -0.4251
vn 0.6863 -0.6437 0.3386
vn 0.6774 -0.2913 0.6755
vn 0.4719 -0.7887 0.3939
vn 0.5606 -0.5320 -0.6346
vn 0.6009 -0.7666 -0.2263
vn 0.7538 -0.6238 -0.2063
vn 0.5305 -0.6065 -0.5922
vn -0.6569 -0.6062 0.4485
vn -0.2023 -0.8081 0.5532
vn -0.6903 -0.5765 0.4372
vn 0.4421 -0.7488 0.4939
vn -0.0000 -0.8387 0.5446
vn 0.8340 -0.4396 0.3336
vn -0.4719 -0.7887 0.3939
vn 0.6903 -0.5765 0.4372
vn 0.9817 -0.0786 0.1737
vn 0.6569 -0.6062 0.4485
vn 0.9929 0.0571 0.1046
vn 0.2023 -0.8081 0.5532
vn 0.9267 -0.3390 0.1624
vn -0.4421 -0.7488 0.4939
vn 0.6945 -0.6969 0.1790
vn -0.8340 -0.4396 0.3336
vn 0.6097 -0.7733 0.1742
vn -0.9817 -0.0786 0.1737
vn 0.6618 -0.7231 0.1978
vn -0.9929 0.0571 0.1046
vn 0.7616 -0.5915 0.2647
vn -0.9267 -0.3390 0.1624
vn 0.8361 -0.4350 0.3341
vn -0.6945 -0.6969 0.1790
vn 0.8622 -0.3380 0.3773
vn -0.6097 -0.7733 0.1742
vn 0.8376 -0.4770 0.2663
vn -0.6618 -0.7231 0.1978
vn 0.7077 -0.7051 0.0447
vn -0.7616 -0.5915 0.2647
vn -0.8361 -0.4350 0.3341
vn -0.7430 -0.1702 0.6473
vn -0.6774 -0.2913 0.6755
vn -0.6863 -0.6437 0.3386
vn -0.8622 -0.3380 0.3773
vn 0.5929 0.3020 0.7465
vn -0.7793 0.0618 0.6236
vn -0.7067 0.2291 0.6694
vn 0.5454 0.4818 0.6858
vn -0.8376 -0.4770 0.2663
vn -0.7077 -0.7051 0.0447
vn -0.5929 0.3020 0.7465
vn -0.5454 0.4818 0.6858
vn 0.7727 0.0916 0.6281
vn 0.6958 0.1650 0.6990
vn -0.7727 0.0916 0.6281
vn 0.0374 0.2070 0.9776
vn 0.5328 -0.3846 0.7538
vn 0.5597 -0.6027 0.5687
vn 0.2114 0.2397 0.9476
vn 0.3801 -0.9112 0.1589
vn 0.0938 -0.3362 0.9371
vn 0.0073 -0.8478 0.5302
vn 0.2019 -0.9194 0.3375
vn -0.0374 0.2070 0.9776
vn 0.4274 -0.9017 -0.0660
vn -0.3801 -0.9112 0.1589
vn -0.0073 -0.8478 0.5302
vn -0.0938 -0.3362 0.9371
vn -0.2019 -0.9194 0.3375
vn -0.2114 0.2397 0.9476
vn 0.4236 -0.8888 -0.1751
vn -0.4274 -0.9017 -0.0660
vn -0.1878 -0.9768 0.1028
vn 0.1438 -0.8827 0.4475
vn -0.5701 -0.7785 0.2625
vn -0.4069 -0.8509 0.3324
vn -0.4236 -0.8888 -0.1751
vn 0.4314 -0.8321 0.3485
vn -0.1438 -0.8827 0.4475
vn 0.1878 -0.9768 0.1028
vn 0.4069 -0.8509 0.3324
vn 0.5701 -0.7785 0.2625
vn 0.5356 -0.8227 0.1903
vn -0.4314 -0.8321 0.3485
vn -0.0000 -0.9724 0.2332
vn -0.5356 -0.8227 0.1903
vt 0.000000 0.000000
s 1
f 10/1/1 3/1/2 2/1/3 8/1/4
f 18/1/5 25/1/6 3/1/2 10/1/1
f 3/1/2 25/1/6 5/1/7 1/1/8
f 15/1/9 39/1/10 18/1/5 10/1/1
f 11/1/11 9/1/12 2/1/3 4/1/13
f 240/1/14 248/1/15 237/1/16 230/1/17
f 52/1/18 60/1/19 59/1/20 51/1/21
f 7/1/22 9/1/12 12/1/23
f 4/1/13 26/1/24 19/1/25 11/1/11
f 255/1/26 243/1/27 237/1/16 248/1/15
f 6/1/28 26/1/24 4/1/13 1/1/8
f 9/1/12 16/1/29 12/1/23
f 9/1/12 17/1/30 16/1/29
f 9/1/12 11/1/11 17/1/30
f 225/1/31 226/1/32 219/1/33 220/1/34
f 186/1/35 221/1/36 182/1/37 173/1/38
f 576/1/39 266/1/40 262/1/41 575/1/42
f 12/1/23 20/1/43 13/1/44 7/1/22
f 33/1/45 34/1/46 24/1/47 19/1/25
f 263/1/48 251/1/49 243/1/27 259/1/50
f 210/1/51 229/1/52 216/1/53 211/1/54
f 182/1/37 222/1/55 207/1/56 181/1/57
f 523/1/58 494/1/59 488/1/60 487/1/61
f 21/1/62 27/1/63 29/1/64
f 55/1/65 63/1/66 40/1/67 33/1/45
f 6/1/28 56/1/68 53/1/69 48/1/70
f 109/1/71 159/1/72 155/1/73 150/1/74
f 179/1/75 194/1/76 617/1/77 613/1/78
f 428/1/79 423/1/80 415/1/81 420/1/82
f 62/1/83 69/1/84 63/1/66 55/1/65
f 49/1/85 86/1/86 62/1/83 55/1/65
f 34/1/46 33/1/45 40/1/67
f 13/1/44 21/1/62 22/1/87 14/1/88
f 162/1/89 151/1/90 157/1/91 164/1/92
f 71/1/93 72/1/94 65/1/95 64/1/96
f 70/1/97 118/1/98 71/1/93 64/1/96
f 5/1/7 47/1/99 61/1/100 56/1/68
f 39/1/10 32/1/101 46/1/102
f 18/1/5 47/1/99 25/1/6
f 25/1/6 47/1/99 5/1/7
f 23/1/103 15/1/9 14/1/88 22/1/87
f 21/1/62 30/1/104 28/1/105 22/1/87
f 28/1/105 31/1/106 23/1/103 22/1/87
f 477/1/107 478/1/108 470/1/109 469/1/110
f 76/1/111 111/1/112 70/1/97 69/1/84
f 78/1/113 79/1/114 72/1/94 71/1/93
f 501/1/115 518/1/116 486/1/117 485/1/118
f 31/1/106 300/1/119 32/1/101 23/1/103
f 455/1/120 461/1/121 418/1/122 414/1/123
f 86/1/86 91/1/124 77/1/125 62/1/83
f 87/1/126 88/1/127 79/1/114 78/1/113
f 588/1/128 573/1/129 572/1/130 366/1/131
f 56/1/68 61/1/100 53/1/69
f 349/1/132 354/1/133 353/1/134 347/1/135
f 348/1/136 373/1/137 354/1/133 349/1/132
f 29/1/64 37/1/138 36/1/139 35/1/140
f 222/1/55 369/1/141 363/1/142 228/1/143
f 60/1/19 67/1/144 59/1/20
f 441/1/145 448/1/146 449/1/147 444/1/148
f 68/1/149 287/1/150 61/1/100 47/1/99
f 35/1/140 36/1/139 43/1/151 42/1/152
f 240/1/14 254/1/153 253/1/154 248/1/15
f 431/1/155 430/1/156 429/1/157 426/1/158
f 201/1/159 202/1/160 138/1/161 195/1/162
f 67/1/144 75/1/163 59/1/20
f 337/1/164 338/1/165 318/1/166 310/1/167
f 50/1/168 57/1/169 38/1/170 42/1/152
f 234/1/171 624/1/172 623/1/173 226/1/32
f 46/1/102 292/1/174 291/1/175 285/1/176
f 299/1/177 298/1/178 291/1/175 292/1/174
f 328/1/179 329/1/180 366/1/131 361/1/181
f 300/1/119 31/1/106 66/1/182 307/1/183
f 66/1/182 31/1/106 28/1/105 58/1/184
f 75/1/163 84/1/185 85/1/186
f 221/1/36 375/1/187 374/1/188 369/1/141
f 109/1/71 150/1/74 110/1/189 104/1/190
f 215/1/191 218/1/192 161/1/193 209/1/194
f 299/1/177 307/1/183 308/1/195 306/1/196
f 315/1/197 308/1/195 307/1/183 66/1/182
f 66/1/182 58/1/184 317/1/198 315/1/197
f 84/1/185 92/1/199 85/1/186
f 114/1/200 133/1/201 135/1/202 129/1/203
f 170/1/204 171/1/205 165/1/206 163/1/207
f 188/1/208 207/1/56 200/1/209 195/1/162
f 88/1/127 87/1/126 96/1/210
f 32/1/101 39/1/10 15/1/9 23/1/103
f 315/1/197 317/1/198 323/1/211 322/1/212
f 315/1/197 322/1/212 316/1/213 308/1/195
f 92/1/199 101/1/214 100/1/215
f 374/1/188 614/1/216 578/1/217 608/1/218
f 51/1/21 102/1/219 44/1/220
f 105/1/221 112/1/222 109/1/71 104/1/190
f 481/1/223 502/1/224 482/1/225 473/1/226
f 132/1/227 214/1/228 57/1/169 50/1/168
f 96/1/210 87/1/126 106/1/229
f 101/1/214 107/1/230 100/1/215
f 100/1/215 107/1/230 108/1/231
f 208/1/232 336/1/233 214/1/228 132/1/227
f 541/1/234 542/1/235 536/1/236 537/1/237
f 202/1/160 208/1/232 132/1/227 130/1/238
f 430/1/156 434/1/239 432/1/240 427/1/241
f 85/1/186 93/1/242 59/1/20 75/1/163
f 106/1/229 114/1/200 115/1/243
f 107/1/230 116/1/244 108/1/231
f 136/1/245 152/1/246 145/1/247 140/1/248
f 551/1/249 558/1/250 552/1/251 245/1/252
f 71/1/93 118/1/98 78/1/113
f 191/1/253 378/1/254 203/1/255 196/1/256
f 363/1/142 608/1/218 560/1/257 603/1/258
f 306/1/196 305/1/259 298/1/178 299/1/177
f 236/1/260 247/1/261 216/1/53 229/1/52
f 115/1/243 114/1/200 121/1/262
f 111/1/112 139/1/263 118/1/98 70/1/97
f 333/1/264 332/1/265 340/1/266 339/1/267
f 361/1/181 362/1/268 324/1/269 328/1/179
f 121/1/262 127/1/270 128/1/271
f 92/1/199 100/1/215 95/1/272 85/1/186
f 110/1/189 111/1/112 76/1/111 104/1/190
f 138/1/161 202/1/160 130/1/238 131/1/273
f 548/1/274 550/1/275 543/1/276 542/1/235
f 499/1/277 454/1/278 492/1/279 498/1/280
f 93/1/242 102/1/219 51/1/21 59/1/20
f 128/1/271 127/1/270 134/1/281
f 94/1/282 123/1/283 102/1/219 93/1/242
f 620/1/284 621/1/285 589/1/286 583/1/287
f 103/1/288 137/1/289 94/1/282 95/1/272
f 100/1/215 108/1/231 103/1/288 95/1/272
f 110/1/189 150/1/74 147/1/290 142/1/291
f 147/1/290 148/1/292 143/1/293 142/1/291
f 123/1/283 131/1/273 130/1/238 124/1/294
f 134/1/281 127/1/270 140/1/248
f 134/1/281 140/1/248 141/1/295
f 94/1/282 137/1/289 131/1/273 123/1/283
f 148/1/292 152/1/246 136/1/245 143/1/293
f 576/1/39 580/1/296 270/1/297 266/1/40
f 116/1/244 122/1/298 117/1/299 108/1/231
f 543/1/276 544/1/300 246/1/301 538/1/302
f 578/1/217 614/1/216 587/1/303 582/1/304
f 90/1/305 99/1/306 97/1/307 91/1/124
f 122/1/298 166/1/308 158/1/309 117/1/299
f 158/1/309 183/1/310 149/1/311 117/1/299
f 144/1/312 188/1/208 195/1/162 138/1/161
f 495/1/313 539/1/314 496/1/315 489/1/316
f 201/1/159 343/1/317 208/1/232 202/1/160
f 404/1/318 405/1/319 412/1/320 411/1/321
f 617/1/77 568/1/322 567/1/323 613/1/78
f 85/1/186 95/1/272 94/1/282 93/1/242
f 418/1/122 461/1/121 425/1/324 417/1/325
f 153/1/326 160/1/327 161/1/193
f 153/1/326 162/1/89 160/1/327
f 153/1/326 151/1/90 162/1/89
f 200/1/209 350/1/328 201/1/159 195/1/162
f 41/1/329 33/1/45 19/1/25 26/1/24
f 181/1/57 207/1/56 188/1/208 183/1/310
f 181/1/57 183/1/310 158/1/309 174/1/330
f 588/1/128 343/1/317 351/1/331 573/1/129
f 201/1/159 350/1/328 351/1/331 343/1/317
f 474/1/332 483/1/333 452/1/334 451/1/335
f 389/1/336 417/1/325 397/1/337 391/1/338
f 228/1/143 200/1/209 207/1/56 222/1/55
f 166/1/308 172/1/339 173/1/38
f 166/1/308 173/1/38 174/1/330
f 166/1/308 174/1/330 158/1/309
f 366/1/131 572/1/130 527/1/340 361/1/181
f 450/1/341 460/1/342 456/1/343 447/1/344
f 172/1/339 178/1/345 173/1/38
f 20/1/43 27/1/63 21/1/62 13/1/44
f 535/1/346 549/1/347 541/1/234 540/1/348
f 162/1/89 164/1/92 169/1/349 160/1/327
f 157/1/91 152/1/246 148/1/292 156/1/350
f 480/1/351 488/1/60 489/1/316 481/1/223
f 356/1/352 594/1/353 351/1/331 350/1/328
f 178/1/345 179/1/75 185/1/354
f 169/1/349 197/1/355 204/1/356 160/1/327
f 204/1/356 210/1/51 211/1/54 209/1/194
f 178/1/345 186/1/35 173/1/38
f 180/1/357 187/1/358 179/1/75
f 152/1/246 157/1/91 151/1/90 145/1/247
f 68/1/149 285/1/176 283/1/359 284/1/360
f 363/1/142 603/1/258 356/1/352 228/1/143
f 436/1/361 442/1/362 441/1/145 437/1/363
f 187/1/358 192/1/364 193/1/365
f 187/1/358 194/1/76 179/1/75
f 187/1/358 193/1/365 194/1/76
f 41/1/329 26/1/24 6/1/28 48/1/70
f 221/1/36 369/1/141 222/1/55 182/1/37
f 151/1/90 153/1/326 146/1/366 145/1/247
f 163/1/207 165/1/206 156/1/350 154/1/367
f 147/1/290 150/1/74 155/1/73 154/1/367
f 155/1/73 177/1/368 163/1/207 154/1/367
f 482/1/225 490/1/369 467/1/370 473/1/226
f 374/1/188 608/1/218 363/1/142 369/1/141
f 129/1/203 127/1/270 121/1/262 114/1/200
f 243/1/27 244/1/371 238/1/372 237/1/16
f 165/1/206 171/1/205 169/1/349 164/1/92
f 102/1/219 123/1/283 124/1/294 43/1/151
f 69/1/84 62/1/83 77/1/125 76/1/111
f 204/1/356 209/1/194 160/1/327
f 160/1/327 209/1/194 161/1/193
f 496/1/315 502/1/224 481/1/223 489/1/316
f 13/1/44 14/1/88 8/1/4 7/1/22
f 251/1/49 252/1/373 244/1/371 243/1/27
f 594/1/353 566/1/374 573/1/129 351/1/331
f 172/1/339 180/1/357 179/1/75 178/1/345
f 209/1/194 211/1/54 215/1/191
f 235/1/375 380/1/376 227/1/377 185/1/354
f 211/1/54 216/1/53 215/1/191
f 256/1/378 257/1/379 252/1/373 251/1/49
f 359/1/380 383/1/381 365/1/382 190/1/383
f 402/1/384 410/1/385 422/1/386 413/1/387
f 379/1/388 614/1/216 374/1/188 375/1/187
f 218/1/192 215/1/191 224/1/389
f 256/1/378 261/1/390 260/1/391 257/1/379
f 197/1/355 217/1/392 210/1/51 204/1/356
f 686/1/393 697/1/394 676/1/395 687/1/396
f 224/1/389 230/1/17 231/1/397
f 224/1/389 215/1/191 232/1/398
f 224/1/389 232/1/398 230/1/17
f 261/1/390 265/1/399 264/1/400 260/1/391
f 185/1/354 179/1/75 235/1/375
f 5/1/7 56/1/68 6/1/28 1/1/8
f 90/1/305 83/1/401 82/1/402 89/1/403
f 235/1/375 612/1/404 386/1/405 380/1/376
f 198/1/406 199/1/407 193/1/365 192/1/364
f 215/1/191 216/1/53 239/1/408
f 676/1/395 697/1/394 694/1/409 688/1/410
f 240/1/14 230/1/17 232/1/398
f 233/1/411 241/1/412 234/1/171
f 234/1/171 241/1/412 242/1/413
f 574/1/414 579/1/415 564/1/416 559/1/417
f 621/1/285 622/1/418 595/1/419 589/1/286
f 239/1/408 246/1/301 245/1/252
f 239/1/408 247/1/261 246/1/301
f 239/1/408 216/1/53 247/1/261
f 386/1/405 612/1/404 607/1/420 606/1/421
f 193/1/365 199/1/407 618/1/422 617/1/77
f 241/1/412 249/1/423 242/1/413
f 242/1/413 249/1/423 250/1/424
f 523/1/58 487/1/61 486/1/117 518/1/116
f 617/1/77 618/1/422 574/1/414 568/1/322
f 199/1/407 206/1/425 619/1/426 618/1/422
f 145/1/247 146/1/366 141/1/295 140/1/248
f 419/1/427 422/1/386 410/1/385 392/1/428
f 255/1/26 259/1/50 243/1/27
f 140/1/248 127/1/270 129/1/203 136/1/245
f 255/1/26 262/1/41 259/1/50
f 258/1/429 262/1/41 255/1/26
f 206/1/425 213/1/430 621/1/285 620/1/284
f 263/1/48 256/1/378 251/1/49
f 110/1/189 142/1/291 139/1/263 111/1/112
f 184/1/431 372/1/432 191/1/253 170/1/204
f 263/1/48 267/1/433 256/1/378
f 264/1/400 265/1/399 268/1/434
f 265/1/399 269/1/435 268/1/434
f 2/1/3 9/1/12 7/1/22 8/1/4
f 256/1/378 271/1/436 261/1/390
f 270/1/297 271/1/436 267/1/433
f 19/1/25 24/1/47 17/1/30 11/1/11
f 256/1/378 267/1/433 271/1/436
f 268/1/434 269/1/435 272/1/437
f 269/1/435 273/1/438 272/1/437
f 270/1/297 274/1/439 271/1/436
f 271/1/436 274/1/439 275/1/440
f 274/1/439 276/1/441 275/1/440
f 265/1/399 275/1/440 277/1/442
f 265/1/399 277/1/442 269/1/435
f 604/1/443 610/1/444 609/1/445 590/1/446
f 269/1/435 280/1/447 273/1/438
f 277/1/442 280/1/447 269/1/435
f 278/1/448 279/1/449 281/1/450
f 279/1/449 282/1/451 281/1/450
f 286/1/452 287/1/150 68/1/149 284/1/360
f 444/1/148 452/1/334 445/1/453 438/1/454
f 214/1/228 336/1/233 329/1/180 323/1/211
f 294/1/455 302/1/456 293/1/457 286/1/452
f 290/1/458 284/1/360 283/1/359 289/1/459
f 46/1/102 47/1/99 18/1/5 39/1/10
f 561/1/460 603/1/258 560/1/257 553/1/461
f 73/1/462 74/1/463 53/1/69 61/1/100
f 285/1/176 291/1/175 288/1/464 283/1/359
f 325/1/465 326/1/466 319/1/467 318/1/166
f 301/1/468 303/1/469 80/1/470 293/1/457
f 302/1/456 309/1/471 301/1/468 293/1/457
f 289/1/459 296/1/472 297/1/473
f 289/1/459 297/1/473 290/1/458
f 290/1/458 297/1/473 294/1/455
f 135/1/202 143/1/293 136/1/245 129/1/203
f 81/1/474 82/1/402 74/1/463 73/1/462
f 491/1/475 492/1/279 453/1/476 483/1/333
f 63/1/66 69/1/84 70/1/97 64/1/96
f 294/1/455 297/1/473 302/1/456
f 296/1/472 304/1/477 297/1/473
f 301/1/468 337/1/164 310/1/167 303/1/469
f 311/1/478 81/1/474 303/1/469 310/1/167
f 460/1/342 468/1/479 462/1/480 456/1/343
f 35/1/140 42/1/152 38/1/170 30/1/104
f 302/1/456 297/1/473 309/1/471
f 288/1/464 296/1/472 289/1/459 283/1/359
f 324/1/269 362/1/268 355/1/481 321/1/482
f 318/1/166 319/1/467 311/1/478 310/1/167
f 403/1/483 399/1/484 344/1/485 345/1/486
f 437/1/363 438/1/454 433/1/487 432/1/240
f 532/1/488 545/1/489 539/1/314 495/1/313
f 432/1/240 433/1/487 428/1/79 427/1/241
f 368/1/490 524/1/491 513/1/492 373/1/137
f 545/1/489 572/1/130 573/1/129 566/1/374
f 560/1/257 608/1/218 578/1/217 571/1/493
f 308/1/195 316/1/213 314/1/494 306/1/196
f 46/1/102 285/1/176 68/1/149 47/1/99
f 333/1/264 339/1/267 175/1/495 126/1/496
f 97/1/307 105/1/221 77/1/125 91/1/124
f 479/1/497 471/1/498 470/1/109 478/1/108
f 99/1/306 98/1/499 125/1/500 119/1/501
f 314/1/494 321/1/482 320/1/502 312/1/503
f 316/1/213 324/1/269 321/1/482 314/1/494
f 304/1/477 327/1/504 297/1/473
f 97/1/307 99/1/306 119/1/501 113/1/505
f 113/1/505 112/1/222 105/1/221 97/1/307
f 465/1/506 459/1/507 458/1/508 464/1/509
f 321/1/482 355/1/481 348/1/136 320/1/502
f 348/1/136 349/1/132 342/1/510 320/1/502
f 326/1/466 125/1/500 98/1/499 319/1/467
f 327/1/504 334/1/511 297/1/473
f 358/1/512 338/1/165 337/1/164 357/1/513
f 313/1/514 327/1/504 304/1/477 295/1/515
f 312/1/503 335/1/516 313/1/514 305/1/259
f 361/1/181 527/1/340 367/1/517 362/1/268
f 362/1/268 367/1/517 368/1/490 355/1/481
f 334/1/511 341/1/518 297/1/473
f 370/1/519 371/1/520 330/1/521 364/1/522
f 318/1/166 338/1/165 330/1/521 325/1/465
f 112/1/222 167/1/523 159/1/72 109/1/71
f 532/1/488 526/1/524 367/1/517 527/1/340
f 367/1/517 526/1/524 524/1/491 368/1/490
f 532/1/488 527/1/340 572/1/130 545/1/489
f 426/1/158 429/1/157 422/1/386 419/1/427
f 341/1/518 347/1/135 297/1/473
f 82/1/402 83/1/401 54/1/525 74/1/463
f 505/1/526 425/1/324 461/1/121 499/1/277
f 49/1/85 55/1/65 33/1/45 41/1/329
f 300/1/119 307/1/183 299/1/177 292/1/174
f 347/1/135 353/1/134 297/1/473
f 376/1/527 382/1/528 371/1/520 370/1/519
f 382/1/528 395/1/529 331/1/530 371/1/520
f 332/1/265 333/1/264 125/1/500 326/1/466
f 64/1/96 65/1/95 40/1/67 63/1/66
f 177/1/368 184/1/431 170/1/204 163/1/207
f 309/1/471 297/1/473 357/1/513
f 393/1/531 398/1/532 394/1/533 388/1/534
f 357/1/513 297/1/473 358/1/512
f 309/1/471 357/1/513 337/1/164 301/1/468
f 353/1/134 360/1/535 297/1/473
f 425/1/324 512/1/536 397/1/337 417/1/325
f 191/1/253 196/1/256 171/1/205 170/1/204
f 154/1/367 156/1/350 148/1/292 147/1/290
f 335/1/516 342/1/510 341/1/518 334/1/511
f 358/1/512 297/1/473 364/1/522
f 313/1/514 335/1/516 334/1/511 327/1/504
f 594/1/353 561/1/460 546/1/537 566/1/374
f 119/1/501 126/1/496 120/1/538 113/1/505
f 120/1/538 167/1/523 112/1/222 113/1/505
f 287/1/150 80/1/470 73/1/462 61/1/100
f 83/1/401 86/1/86 49/1/85 54/1/525
f 342/1/510 349/1/132 347/1/135 341/1/518
f 364/1/522 297/1/473 370/1/519
f 331/1/530 395/1/529 340/1/266 332/1/265
f 587/1/303 591/1/539 577/1/540 582/1/304
f 203/1/255 217/1/392 197/1/355 196/1/256
f 399/1/484 400/1/541 346/1/542 344/1/485
f 370/1/519 297/1/473 376/1/527
f 336/1/233 588/1/128 366/1/131 329/1/180
f 290/1/458 294/1/455 286/1/452 284/1/360
f 223/1/543 229/1/52 210/1/51 217/1/392
f 175/1/495 176/1/544 120/1/538 126/1/496
f 376/1/527 297/1/473 381/1/545
f 354/1/133 506/1/546 360/1/535 353/1/134
f 344/1/485 346/1/542 175/1/495 339/1/267
f 545/1/489 566/1/374 546/1/537 539/1/314
f 381/1/545 388/1/534 382/1/528 376/1/527
f 520/1/547 530/1/548 515/1/549 514/1/550
f 577/1/540 581/1/551 528/1/552 570/1/553
f 223/1/543 531/1/554 236/1/260 229/1/52
f 322/1/212 328/1/179 324/1/269 316/1/213
f 381/1/545 297/1/473 387/1/555
f 506/1/546 501/1/115 500/1/556 360/1/535
f 352/1/557 396/1/558 383/1/381 359/1/380
f 547/1/559 553/1/461 554/1/560 508/1/561
f 387/1/555 297/1/473 392/1/428
f 81/1/474 311/1/478 89/1/403 82/1/402
f 513/1/492 518/1/116 501/1/115 506/1/546
f 506/1/546 354/1/133 373/1/137 513/1/492
f 390/1/562 409/1/563 389/1/336 384/1/564
f 330/1/521 371/1/520 331/1/530 325/1/465
f 427/1/241 428/1/79 420/1/82 421/1/565
f 346/1/542 352/1/557 176/1/544 175/1/495
f 554/1/560 571/1/493 565/1/566 534/1/567
f 356/1/352 603/1/258 561/1/460 594/1/353
f 494/1/59 526/1/524 532/1/488 495/1/313
f 487/1/61 479/1/497 478/1/108 486/1/117
f 364/1/522 330/1/521 338/1/165 358/1/512
f 394/1/533 395/1/529 382/1/528 388/1/534
f 526/1/524 494/1/59 523/1/58 524/1/491
f 168/1/568 177/1/368 155/1/73 159/1/72
f 488/1/60 494/1/59 495/1/313 489/1/316
f 423/1/80 424/1/569 416/1/570 415/1/81
f 183/1/310 188/1/208 144/1/312 149/1/311
f 496/1/315 547/1/559 508/1/561 502/1/224
f 206/1/425 199/1/407 198/1/406 205/1/571
f 488/1/60 480/1/351 479/1/497 487/1/61
f 409/1/563 418/1/122 417/1/325 389/1/336
f 482/1/225 502/1/224 508/1/561 507/1/572
f 227/1/377 375/1/187 221/1/36 186/1/35
f 472/1/573 480/1/351 481/1/223 473/1/226
f 508/1/561 554/1/560 534/1/567 507/1/572
f 484/1/574 493/1/575 485/1/118 477/1/107
f 392/1/428 297/1/473 419/1/427
f 415/1/81 416/1/570 407/1/576 411/1/321
f 29/1/64 35/1/140 30/1/104 21/1/62
f 477/1/107 485/1/118 486/1/117 478/1/108
f 522/1/577 223/1/543 217/1/392 203/1/255
f 473/1/226 467/1/370 465/1/506 472/1/573
f 48/1/70 54/1/525 49/1/85 41/1/329
f 507/1/572 534/1/567 529/1/578 510/1/579
f 565/1/566 570/1/553 529/1/578 534/1/567
f 419/1/427 297/1/473 426/1/158
f 476/1/580 484/1/574 477/1/107 469/1/110
f 463/1/581 470/1/109 471/1/498 464/1/509
f 472/1/573 465/1/506 464/1/509 471/1/498
f 462/1/480 469/1/110 470/1/109 463/1/581
f 468/1/479 476/1/580 469/1/110 462/1/480
f 426/1/158 297/1/473 431/1/155
f 457/1/582 463/1/581 464/1/509 458/1/508
f 462/1/480 463/1/581 457/1/582 456/1/343
f 43/1/151 124/1/294 50/1/168 42/1/152
f 518/1/116 513/1/492 524/1/491 523/1/58
f 431/1/155 297/1/473 435/1/583
f 457/1/582 448/1/146 447/1/344 456/1/343
f 458/1/508 449/1/147 448/1/146 457/1/582
f 174/1/330 173/1/38 182/1/37 181/1/57
f 83/1/401 90/1/305 91/1/124 86/1/86
f 435/1/583 297/1/473 440/1/584
f 578/1/217 582/1/304 565/1/566 571/1/493
f 447/1/344 448/1/146 441/1/145 442/1/362
f 53/1/69 74/1/463 54/1/525 48/1/70
f 440/1/584 297/1/473 443/1/585
f 443/1/585 450/1/341 447/1/344 442/1/362
f 451/1/335 452/1/334 444/1/148 449/1/147
f 466/1/586 474/1/332 451/1/335 459/1/507
f 443/1/585 442/1/362 436/1/361 440/1/584
f 436/1/361 437/1/363 432/1/240 434/1/239
f 441/1/145 444/1/148 438/1/454 437/1/363
f 443/1/585 297/1/473 450/1/341
f 306/1/196 314/1/494 312/1/503 305/1/259
f 80/1/470 303/1/469 81/1/474 73/1/462
f 475/1/587 497/1/588 474/1/332 466/1/586
f 355/1/481 368/1/490 373/1/137 348/1/136
f 507/1/572 510/1/579 490/1/369 482/1/225
f 434/1/239 435/1/583 440/1/584 436/1/361
f 311/1/478 319/1/467 98/1/499 89/1/403
f 286/1/452 293/1/457 80/1/470 287/1/150
f 438/1/454 445/1/453 439/1/589 433/1/487
f 450/1/341 297/1/473 460/1/342
f 345/1/486 344/1/485 339/1/267 340/1/266
f 435/1/583 434/1/239 430/1/156 431/1/155
f 305/1/259 313/1/514 295/1/515 298/1/178
f 459/1/507 451/1/335 449/1/147 458/1/508
f 433/1/487 439/1/589 423/1/80 428/1/79
f 611/1/590 379/1/388 380/1/376 386/1/405
f 439/1/589 446/1/591 424/1/569 423/1/80
f 460/1/342 297/1/473 468/1/479
f 343/1/317 588/1/128 336/1/233 208/1/232
f 560/1/257 571/1/493 554/1/560 553/1/461
f 430/1/156 427/1/241 421/1/565 429/1/157
f 87/1/126 133/1/201 114/1/200 106/1/229
f 408/1/592 409/1/563 390/1/562 401/1/593
f 452/1/334 483/1/333 453/1/476 445/1/453
f 167/1/523 189/1/594 168/1/568 159/1/72
f 454/1/278 455/1/120 424/1/569 446/1/591
f 468/1/479 297/1/473 476/1/580
f 98/1/499 99/1/306 90/1/305 89/1/403
f 422/1/386 429/1/157 421/1/565 413/1/387
f 421/1/565 420/1/82 412/1/320 413/1/387
f 420/1/82 415/1/81 411/1/321 412/1/320
f 666/1/595 673/1/596 667/1/597 662/1/598
f 424/1/569 455/1/120 414/1/123 416/1/570
f 407/1/576 416/1/570 414/1/123 408/1/592
f 476/1/580 297/1/473 484/1/574
f 37/1/138 45/1/599 44/1/220 36/1/139
f 546/1/537 547/1/559 496/1/315 539/1/314
f 405/1/319 402/1/384 413/1/387 412/1/320
f 480/1/351 472/1/573 471/1/498 479/1/497
f 411/1/321 407/1/576 406/1/600 404/1/318
f 474/1/332 497/1/588 491/1/475 483/1/333
f 577/1/540 591/1/539 585/1/601 581/1/551
f 484/1/574 297/1/473 493/1/575
f 399/1/484 403/1/483 405/1/319 404/1/318
f 414/1/123 418/1/122 409/1/563 408/1/592
f 400/1/541 406/1/600 401/1/593 396/1/558
f 407/1/576 408/1/592 401/1/593 406/1/600
f 453/1/476 492/1/279 454/1/278 446/1/591
f 497/1/588 475/1/587 504/1/602 503/1/603
f 297/1/473 360/1/535 500/1/556
f 297/1/473 500/1/556 493/1/575
f 392/1/428 410/1/385 393/1/531 387/1/555
f 393/1/531 410/1/385 402/1/384 398/1/532
f 491/1/475 509/1/604 498/1/280 492/1/279
f 535/1/346 540/1/348 511/1/605 530/1/548
f 510/1/579 529/1/578 525/1/606 504/1/602
f 227/1/377 380/1/376 379/1/388 375/1/187
f 32/1/101 300/1/119 292/1/174 46/1/102
f 156/1/350 165/1/206 164/1/92 157/1/91
f 454/1/278 499/1/277 461/1/121 455/1/120
f 529/1/578 570/1/553 528/1/552 525/1/606
f 501/1/115 485/1/118 493/1/575 500/1/556
f 125/1/500 333/1/264 126/1/496 119/1/501
f 395/1/529 394/1/533 345/1/486 340/1/266
f 515/1/549 530/1/548 511/1/605 505/1/526
f 514/1/550 515/1/549 498/1/280 509/1/604
f 528/1/552 533/1/607 519/1/608 525/1/606
f 504/1/602 525/1/606 519/1/608 503/1/603
f 323/1/211 329/1/180 328/1/179 322/1/212
f 511/1/605 512/1/536 425/1/324 505/1/526
f 503/1/603 519/1/608 514/1/550 509/1/604
f 137/1/289 144/1/312 138/1/161 131/1/273
f 519/1/608 533/1/607 520/1/547 514/1/550
f 77/1/125 105/1/221 104/1/190 76/1/111
f 515/1/549 505/1/526 499/1/277 498/1/280
f 587/1/303 614/1/216 379/1/388 611/1/590
f 402/1/384 405/1/319 403/1/483 398/1/532
f 398/1/532 403/1/483 345/1/486 394/1/533
f 197/1/355 169/1/349 171/1/205 196/1/256
f 467/1/370 466/1/586 459/1/507 465/1/506
f 317/1/198 57/1/169 214/1/228 323/1/211
f 387/1/555 393/1/531 388/1/534 381/1/545
f 565/1/566 582/1/304 577/1/540 570/1/553
f 295/1/515 304/1/477 296/1/472 288/1/464
f 103/1/288 149/1/311 144/1/312 137/1/289
f 342/1/510 335/1/516 312/1/503 320/1/502
f 510/1/579 504/1/602 475/1/587 490/1/369
f 168/1/568 190/1/383 184/1/431 177/1/368
f 520/1/547 533/1/607 562/1/609 555/1/610
f 528/1/552 581/1/551 562/1/609 533/1/607
f 585/1/601 600/1/611 592/1/612 586/1/613
f 556/1/614 549/1/347 535/1/346 555/1/610
f 346/1/542 400/1/541 396/1/558 352/1/557
f 597/1/615 600/1/611 585/1/601 591/1/539
f 445/1/453 453/1/476 446/1/591 439/1/589
f 585/1/601 586/1/613 562/1/609 581/1/551
f 521/1/616 531/1/554 223/1/543 522/1/577
f 607/1/420 605/1/617 602/1/618 606/1/421
f 246/1/301 544/1/300 245/1/252
f 401/1/593 390/1/562 383/1/381 396/1/558
f 38/1/170 58/1/184 28/1/105 30/1/104
f 404/1/318 406/1/600 400/1/541 399/1/484
f 233/1/411 234/1/171 226/1/32 225/1/31
f 592/1/612 600/1/611 602/1/618 601/1/619
f 602/1/618 605/1/617 563/1/620 601/1/619
f 544/1/300 551/1/249 245/1/252
f 563/1/620 567/1/323 552/1/251 558/1/250
f 245/1/252 552/1/251 254/1/153
f 383/1/381 390/1/562 384/1/564 365/1/382
f 213/1/430 206/1/425 205/1/571 212/1/621
f 557/1/622 558/1/250 551/1/249 550/1/275
f 562/1/609 586/1/613 556/1/614 555/1/610
f 557/1/622 601/1/619 563/1/620 558/1/250
f 236/1/260 538/1/302 246/1/301 247/1/261
f 254/1/153 552/1/251 559/1/417
f 254/1/153 559/1/417 253/1/154
f 389/1/336 391/1/338 377/1/623 384/1/564
f 365/1/382 384/1/564 377/1/623 372/1/432
f 597/1/615 606/1/421 602/1/618 600/1/611
f 587/1/303 611/1/590 597/1/615 591/1/539
f 503/1/603 509/1/604 491/1/475 497/1/588
f 142/1/291 143/1/293 135/1/202 139/1/263
f 238/1/372 231/1/397 230/1/17 237/1/16
f 15/1/9 10/1/1 8/1/4 14/1/88
f 546/1/537 561/1/460 553/1/461 547/1/559
f 212/1/621 220/1/34 219/1/33 213/1/430
f 467/1/370 490/1/369 475/1/587 466/1/586
f 552/1/251 567/1/323 568/1/322
f 552/1/251 568/1/322 559/1/417
f 258/1/429 569/1/624 262/1/41
f 564/1/416 569/1/624 258/1/429
f 331/1/530 332/1/265 326/1/466 325/1/465
f 352/1/557 359/1/380 189/1/594 176/1/544
f 568/1/322 574/1/414 559/1/417
f 559/1/417 564/1/416 258/1/429 253/1/154
f 569/1/624 575/1/42 262/1/41
f 583/1/287 589/1/286 576/1/39 575/1/42
f 595/1/419 580/1/296 576/1/39 589/1/286
f 516/1/625 517/1/626 397/1/337 512/1/536
f 511/1/605 540/1/348 516/1/625 512/1/536
f 377/1/623 391/1/338 385/1/627 378/1/254
f 397/1/337 517/1/626 385/1/627 391/1/338
f 564/1/416 579/1/415 569/1/624
f 569/1/624 583/1/287 575/1/42
f 618/1/422 619/1/426 579/1/415 574/1/414
f 579/1/415 583/1/287 569/1/624
f 270/1/297 584/1/628 274/1/439
f 270/1/297 580/1/296 584/1/628
f 274/1/439 584/1/628 276/1/441
f 516/1/625 540/1/348 541/1/234 537/1/237
f 57/1/169 317/1/198 58/1/184 38/1/170
f 521/1/616 522/1/577 385/1/627 517/1/626
f 516/1/625 537/1/237 521/1/616 517/1/626
f 176/1/544 189/1/594 167/1/523 120/1/538
f 291/1/175 298/1/178 295/1/515 288/1/464
f 584/1/628 590/1/446 276/1/441
f 556/1/614 593/1/629 548/1/274 549/1/347
f 541/1/234 549/1/347 548/1/274 542/1/235
f 548/1/274 593/1/629 557/1/622 550/1/275
f 189/1/594 359/1/380 190/1/383 168/1/568
f 365/1/382 372/1/432 184/1/431 190/1/383
f 185/1/354 227/1/377 186/1/35 178/1/345
f 595/1/419 584/1/628 580/1/296
f 521/1/616 537/1/237 536/1/236 531/1/554
f 118/1/98 139/1/263 135/1/202 133/1/201
f 595/1/419 598/1/630 584/1/628
f 279/1/449 599/1/631 282/1/451
f 596/1/632 599/1/631 279/1/449
f 597/1/615 611/1/590 386/1/405 606/1/421
f 520/1/547 555/1/610 535/1/346 530/1/548
f 543/1/276 538/1/302 536/1/236 542/1/235
f 377/1/623 378/1/254 191/1/253 372/1/432
f 584/1/628 598/1/630 604/1/443
f 584/1/628 604/1/443 590/1/446
f 563/1/620 605/1/617 567/1/323
f 536/1/236 538/1/302 236/1/260 531/1/554
f 130/1/238 132/1/227 50/1/168 124/1/294
f 592/1/612 593/1/629 556/1/614 586/1/613
f 605/1/617 607/1/420 567/1/323
f 385/1/627 522/1/577 203/1/255 378/1/254
f 596/1/632 279/1/449 276/1/441 590/1/446
f 543/1/276 550/1/275 551/1/249 544/1/300
f 612/1/404 235/1/375 613/1/78
f 613/1/78 235/1/375 179/1/75
f 607/1/420 613/1/78 567/1/323
f 607/1/420 612/1/404 613/1/78
f 609/1/445 610/1/444 615/1/633
f 610/1/444 616/1/634 615/1/633
f 215/1/191 239/1/408 240/1/14 232/1/398
f 245/1/252 254/1/153 240/1/14 239/1/408
f 617/1/77 194/1/76 193/1/365
f 1/1/8 4/1/13 2/1/3 3/1/2
f 78/1/113 118/1/98 133/1/201 87/1/126
f 253/1/154 258/1/429 255/1/26 248/1/15
f 660/1/635 663/1/636 662/1/598 631/1/637
f 619/1/426 583/1/287 579/1/415
f 619/1/426 206/1/425 620/1/284
f 262/1/41 266/1/40 263/1/48 259/1/50
f 619/1/426 620/1/284 583/1/287
f 44/1/220 102/1/219 43/1/151 36/1/139
f 270/1/297 267/1/433 263/1/48 266/1/40
f 621/1/285 213/1/430 219/1/33
f 621/1/285 219/1/33 622/1/418
f 595/1/419 623/1/173 598/1/630
f 219/1/33 623/1/173 622/1/418
f 219/1/33 226/1/32 623/1/173
f 271/1/436 275/1/440 265/1/399 261/1/390
f 595/1/419 622/1/418 623/1/173
f 598/1/630 624/1/172 604/1/443
f 623/1/173 624/1/172 598/1/630
f 276/1/441 279/1/449 278/1/448 275/1/440
f 234/1/171 626/1/638 624/1/172
f 234/1/171 242/1/413 626/1/638
f 610/1/444 627/1/639 616/1/634
f 625/1/640 627/1/639 610/1/444
f 242/1/413 250/1/424 628/1/641
f 242/1/413 628/1/641 626/1/638
f 629/1/642 630/1/643 631/1/637
f 629/1/642 631/1/637 632/1/644
f 630/1/643 633/1/645 631/1/637
f 632/1/644 631/1/637 634/1/646
f 633/1/645 635/1/647 631/1/637
f 634/1/646 631/1/637 636/1/648
f 634/1/646 636/1/648 637/1/649
f 635/1/647 638/1/650 631/1/637
f 637/1/649 636/1/648 639/1/651
f 638/1/650 640/1/652 631/1/637
f 639/1/651 636/1/648 641/1/653
f 640/1/652 642/1/654 631/1/637
f 641/1/653 636/1/648 643/1/655
f 642/1/654 644/1/656 631/1/637
f 643/1/655 636/1/648 645/1/657
f 644/1/656 646/1/658 631/1/637
f 645/1/657 636/1/648 647/1/659
f 646/1/658 648/1/660 631/1/637
f 647/1/659 636/1/648 649/1/661
f 648/1/660 650/1/662 631/1/637
f 649/1/661 636/1/648 651/1/663
f 650/1/662 652/1/664 631/1/637
f 651/1/663 636/1/648 653/1/665
f 652/1/664 654/1/666 631/1/637
f 653/1/665 636/1/648 655/1/667
f 654/1/666 656/1/668 631/1/637
f 655/1/667 636/1/648 657/1/669
f 656/1/668 658/1/670 631/1/637
f 657/1/669 636/1/648 659/1/671
f 658/1/670 660/1/635 631/1/637
f 659/1/671 636/1/648 661/1/672
f 671/1/673 674/1/674 672/1/675 636/1/648
f 661/1/672 636/1/648 664/1/676
f 662/1/598 663/1/636 665/1/677
f 676/1/395 680/1/678 677/1/679 671/1/673
f 662/1/598 668/1/680 666/1/595
f 662/1/598 665/1/677 668/1/680
f 636/1/648 669/1/681 664/1/676
f 636/1/648 670/1/682 669/1/681
f 625/1/640 610/1/444 604/1/443 624/1/172
f 636/1/648 672/1/675 670/1/682
f 671/1/673 675/1/683 674/1/674
f 200/1/209 228/1/143 356/1/352 350/1/328
f 671/1/673 678/1/684 675/1/683
f 671/1/673 677/1/679 678/1/684
f 673/1/596 679/1/685 667/1/597
f 679/1/685 681/1/686 667/1/597
f 680/1/678 676/1/395 682/1/687
f 45/1/599 52/1/18 51/1/21 44/1/220
f 681/1/686 684/1/688 683/1/689
f 117/1/299 149/1/311 103/1/288 108/1/231
f 686/1/393 687/1/396 667/1/597 685/1/690
f 682/1/687 676/1/395 688/1/410
f 684/1/688 689/1/691 683/1/689
f 683/1/689 690/1/692 685/1/690
f 683/1/689 689/1/691 691/1/693
f 683/1/689 691/1/693 692/1/694
f 683/1/689 693/1/695 690/1/692
f 683/1/689 692/1/694 693/1/695
f 683/1/689 685/1/690 667/1/597 681/1/686
f 688/1/410 694/1/409 695/1/696
f 690/1/692 696/1/697 685/1/690
f 694/1/409 697/1/394 698/1/698
f 694/1/409 699/1/699 700/1/700
f 694/1/409 698/1/698 701/1/701
f 694/1/409 701/1/701 699/1/699
f 694/1/409 700/1/700 702/1/702
f 694/1/409 702/1/702 695/1/696
f 696/1/697 703/1/703 685/1/690
f 698/1/698 697/1/394 704/1/704
f 703/1/703 705/1/705 685/1/690
f 685/1/690 706/1/706 686/1/393
f 685/1/690 705/1/705 707/1/707
f 685/1/690 708/1/708 706/1/706
f 685/1/690 707/1/707 708/1/708
f 704/1/704 697/1/394 709/1/709
f 706/1/706 710/1/710 686/1/393
f 697/1/394 686/1/393 711/1/711
f 697/1/394 712/1/712 709/1/709
f 697/1/394 711/1/711 713/1/713
f 697/1/394 714/1/714 712/1/712
f 697/1/394 713/1/713 714/1/714
f 710/1/710 715/1/715 686/1/393
f 711/1/711 686/1/393 716/1/716
f 715/1/715 717/1/717 686/1/393
f 686/1/393 717/1/717 718/1/718
f 716/1/716 686/1/393 718/1/718
f 592/1/612 601/1/619 557/1/622 593/1/629
