# Blender 4.3.2
# www.blender.org
o hair.029
v 7.270684 0.363316 0.032577
v 7.267601 0.354753 0.010382
v 7.276289 0.367954 0.031291
v 7.266265 0.358364 0.033011
v 7.280807 0.365886 0.028834
v 7.264171 0.354327 0.033166
v 7.285245 0.363903 0.026653
v 7.262894 0.349077 0.033425
v 7.285245 0.360661 0.010382
v 7.302890 0.354753 0.010382
v 7.289684 0.365886 0.028834
v 7.261559 0.343209 0.033731
v 7.265781 0.340378 0.008380
v 7.294201 0.367954 0.031291
v 7.263155 0.335034 0.018089
v 7.261464 0.341157 0.032953
v 7.263902 0.326012 0.006367
v 7.299807 0.363316 0.032577
v 7.263893 0.332951 0.029840
v 7.264354 0.330382 0.029205
v 7.304226 0.358364 0.033011
v 7.264150 0.327733 0.029150
v 7.306320 0.354327 0.033166
v 7.263631 0.318443 0.015938
v 7.262849 0.319267 0.030227
v 7.307597 0.349077 0.033425
v 7.263219 0.314939 0.029363
v 7.265785 0.306556 0.022641
v 7.258179 0.315682 0.015187
v 7.256278 0.317963 0.013323
v 7.262842 0.317133 0.030177
v 7.308932 0.343209 0.033731
v 7.304709 0.340378 0.008380
v 7.256685 0.315957 0.013499
v 7.276318 0.312411 -0.005365
v 7.285245 0.326012 0.006367
v 7.261816 0.309613 0.005732
v 7.258911 0.310280 -0.006665
v 7.257831 0.309543 0.014204
v 7.307336 0.335034 0.018089
v 7.309027 0.341157 0.032953
v 7.306589 0.326012 0.006367
v 7.294173 0.312411 -0.005365
v 7.285245 0.312411 -0.005365
v 7.261051 0.307515 -0.007395
v 7.258842 0.308783 -0.005140
v 7.258313 0.307931 0.014200
v 7.306598 0.332951 0.029840
v 7.306137 0.330382 0.029205
v 7.285245 0.294599 -0.012171
v 7.269610 0.296454 -0.010315
v 7.258566 0.302797 0.000960
v 7.258352 0.303900 -0.000367
v 7.259636 0.306193 0.013899
v 7.306341 0.327733 0.029150
v 7.292412 0.302985 -0.018284
v 7.278079 0.302985 -0.018284
v 7.274952 0.303356 -0.017913
v 7.276288 0.305081 -0.019812
v 7.259727 0.301973 0.003092
v 7.265490 0.299238 0.011995
v 7.306860 0.318443 0.015938
v 7.307642 0.319267 0.030227
v 7.294203 0.305081 -0.019812
v 7.304706 0.306556 0.022641
v 7.307272 0.314939 0.029363
v 7.312312 0.315682 0.015187
v 7.314213 0.317963 0.013323
v 7.307649 0.317133 0.030177
v 7.295539 0.303356 -0.017913
v 7.311580 0.310280 -0.006665
v 7.308675 0.309613 0.005732
v 7.313806 0.315957 0.013499
v 7.312660 0.309543 0.014204
v 7.300880 0.296454 -0.010315
v 7.309440 0.307515 -0.007395
v 7.311649 0.308783 -0.005140
v 7.312178 0.307931 0.014200
v 7.311925 0.302797 0.000960
v 7.312139 0.303900 -0.000367
v 7.310854 0.306193 0.013899
v 7.310764 0.301973 0.003092
v 7.305001 0.299238 0.011995
v 7.270684 0.363316 0.032577
v 7.266395 0.362242 0.031349
v 7.266265 0.358364 0.033011
v 7.276289 0.367954 0.031291
v 7.270024 0.367608 0.030428
v 7.266429 0.366593 0.028623
v 7.261590 0.360049 0.027157
v 7.260808 0.356907 0.028006
v 7.260149 0.354290 0.028583
v 7.264171 0.354327 0.033166
v 7.275714 0.371303 0.028131
v 7.280744 0.369830 0.027383
v 7.280807 0.365886 0.028834
v 7.270671 0.371066 0.027184
v 7.256762 0.353874 0.023570
v 7.258906 0.349569 0.029200
v 7.262894 0.349077 0.033425
v 7.280287 0.372565 0.024072
v 7.275084 0.373902 0.024704
v 7.285245 0.368343 0.025939
v 7.285245 0.363903 0.026653
v 7.285245 0.371658 0.023616
v 7.267172 0.370018 0.025248
v 7.271658 0.373553 0.023304
v 7.261559 0.343209 0.033731
v 7.285245 0.374894 0.019960
v 7.280839 0.375342 0.020116
v 7.276654 0.375924 0.020026
v 7.289684 0.365886 0.028834
v 7.289747 0.369830 0.027383
v 7.290204 0.372565 0.024072
v 7.268382 0.372478 0.021321
v 7.264052 0.367939 0.022220
v 7.262727 0.364184 0.025293
v 7.273079 0.375373 0.018967
v 7.254072 0.345125 0.024663
v 7.261464 0.341157 0.032953
v 7.278100 0.377352 0.015405
v 7.294201 0.367954 0.031291
v 7.294776 0.371303 0.028131
v 7.259638 0.361845 0.020892
v 7.258125 0.357943 0.022584
v 7.255381 0.349696 0.024237
v 7.253952 0.342820 0.024380
v 7.257164 0.333600 0.023247
v 7.263893 0.332951 0.029840
v 7.300467 0.367608 0.030428
v 7.299807 0.363316 0.032577
v 7.299819 0.371066 0.027184
v 7.295407 0.373902 0.024704
v 7.256255 0.355704 0.016196
v 7.254088 0.348305 0.017546
v 7.264354 0.330382 0.029205
v 7.257645 0.330511 0.022959
v 7.304062 0.366593 0.028623
v 7.304096 0.362242 0.031349
v 7.304226 0.358364 0.033011
v 7.289652 0.375342 0.020116
v 7.252795 0.342395 0.011114
v 7.264150 0.327733 0.029150
v 7.257338 0.327807 0.023093
v 7.308901 0.360049 0.027157
v 7.309683 0.356907 0.028006
v 7.310341 0.354290 0.028583
v 7.306320 0.354327 0.033166
v 7.285245 0.377538 0.015652
v 7.253093 0.333085 0.011606
v 7.254944 0.319317 0.024326
v 7.262849 0.319267 0.030227
v 7.313729 0.353874 0.023570
v 7.311585 0.349569 0.029200
v 7.307597 0.349077 0.033425
v 7.281631 0.377571 0.015682
v 7.254987 0.317133 0.024312
v 7.262842 0.317133 0.030177
v 7.308932 0.343209 0.033731
v 7.316419 0.345125 0.024663
v 7.315110 0.349696 0.024237
v 7.282236 0.378589 0.011251
v 7.253169 0.330506 0.011797
v 7.253791 0.327997 0.012102
v 7.256807 0.314648 0.024124
v 7.263219 0.314939 0.029363
v 7.309027 0.341157 0.032953
v 7.316402 0.348305 0.017546
v 7.248704 0.325926 -0.000248
v 7.248910 0.328705 -0.000507
v 7.252403 0.338606 -0.001171
v 7.255781 0.319970 0.013079
v 7.265785 0.306556 0.022641
v 7.316539 0.342820 0.024380
v 7.313327 0.333600 0.023247
v 7.306598 0.332951 0.029840
v 7.249146 0.323396 0.000509
v 7.256278 0.317963 0.013323
v 7.306137 0.330382 0.029205
v 7.312846 0.330511 0.022959
v 7.317696 0.342395 0.011114
v 7.252633 0.316031 0.002905
v 7.258179 0.315682 0.015187
v 7.306341 0.327733 0.029150
v 7.313153 0.327807 0.023093
v 7.315365 0.352029 0.016983
v 7.316488 0.349986 0.010188
v 7.317243 0.346572 0.010711
v 7.317398 0.333085 0.011606
v 7.253381 0.314146 0.003505
v 7.307642 0.319267 0.030227
v 7.315547 0.319317 0.024326
v 7.314236 0.355704 0.016196
v 7.312366 0.357943 0.022584
v 7.317570 0.344720 0.004398
v 7.256685 0.315957 0.013499
v 7.253303 0.312403 0.004391
v 7.307649 0.317133 0.030177
v 7.315504 0.317133 0.024312
v 7.310853 0.361845 0.020892
v 7.307764 0.364184 0.025293
v 7.318088 0.338606 -0.001171
v 7.317322 0.330506 0.011797
v 7.316700 0.327997 0.012102
v 7.257831 0.309543 0.014204
v 7.252533 0.306749 0.007238
v 7.313684 0.314648 0.024124
v 7.307272 0.314939 0.029363
v 7.306438 0.367939 0.022220
v 7.303319 0.370018 0.025248
v 7.321786 0.325926 -0.000248
v 7.314710 0.319970 0.013079
v 7.321345 0.323396 0.000509
v 7.258313 0.307931 0.014200
v 7.252988 0.305429 0.007932
v 7.304706 0.306556 0.022641
v 7.302109 0.372478 0.021321
v 7.298832 0.373553 0.023304
v 7.321581 0.328705 -0.000507
v 7.314213 0.317963 0.013323
v 7.317858 0.316031 0.002905
v 7.255225 0.303776 0.008924
v 7.259636 0.306193 0.013899
v 7.297411 0.375373 0.018967
v 7.293837 0.375924 0.020026
v 7.312312 0.315682 0.015187
v 7.313806 0.315957 0.013499
v 7.317110 0.314146 0.003505
v 7.265490 0.299238 0.011995
v 7.292390 0.377352 0.015405
v 7.288860 0.377571 0.015682
v 7.317188 0.312403 0.004391
v 7.312660 0.309543 0.014204
v 7.291219 0.378267 0.010884
v 7.288255 0.378589 0.011251
v 7.295672 0.376736 0.014528
v 7.294071 0.377652 0.010074
v 7.285245 0.378672 0.011321
v 7.317957 0.306749 0.007238
v 7.312178 0.307931 0.014200
v 7.290205 0.378553 0.006520
v 7.285245 0.378888 0.007123
v 7.287745 0.378809 0.006972
v 7.298738 0.375863 0.013093
v 7.300518 0.374360 0.017249
v 7.317503 0.305429 0.007932
v 7.310854 0.306193 0.013899
v 7.315266 0.303776 0.008924
v 7.289207 0.378471 0.002074
v 7.292582 0.378083 0.005766
v 7.287242 0.378678 0.002489
v 7.285245 0.378748 0.002641
v 7.303300 0.372941 0.014861
v 7.304971 0.370885 0.018591
v 7.305001 0.299238 0.011995
v 7.296791 0.376862 0.008846
v 7.294854 0.377468 0.004719
v 7.292922 0.377667 0.000578
v 7.291108 0.378132 0.001434
v 7.307501 0.368924 0.014987
v 7.309198 0.365634 0.018201
v 7.301583 0.374666 0.011096
v 7.299369 0.375926 0.007209
v 7.297001 0.376727 0.003388
v 7.294627 0.377080 -0.000488
v 7.290919 0.377466 -0.003664
v 7.289585 0.377815 -0.003019
v 7.288182 0.378069 -0.002540
v 7.311255 0.363151 0.012851
v 7.312882 0.359390 0.014905
v 7.304149 0.373188 0.008397
v 7.296360 0.376300 -0.001946
v 7.292168 0.377028 -0.004467
v 7.287185 0.377321 -0.006888
v 7.288108 0.377161 -0.007217
v 7.286727 0.378226 -0.002231
v 7.314319 0.357174 0.008468
v 7.315531 0.353545 0.009472
v 7.305941 0.371361 0.011728
v 7.293467 0.376450 -0.005557
v 7.289806 0.376638 -0.008174
v 7.285245 0.378280 -0.002119
v 7.286223 0.377432 -0.006692
v 7.315969 0.351246 0.003259
v 7.316834 0.347953 0.003894
v 7.308072 0.369224 0.007654
v 7.288990 0.376921 -0.007634
v 7.283248 0.378678 0.002489
v 7.282746 0.378809 0.006972
v 7.316408 0.345845 -0.002073
v 7.317191 0.342686 -0.001607
v 7.287829 0.375848 -0.011128
v 7.287355 0.376032 -0.010787
v 7.286850 0.376150 -0.010568
v 7.286338 0.376259 -0.010367
v 7.315965 0.340419 -0.007479
v 7.314708 0.334097 -0.013049
v 7.285245 0.374590 -0.014747
v 7.288315 0.375646 -0.011502
v 7.290683 0.376278 -0.008900
v 7.285793 0.376307 -0.010278
v 7.280285 0.378553 0.006520
v 7.279272 0.378267 0.010884
v 7.314167 0.324069 -0.012001
v 7.288866 0.375316 -0.012112
v 7.291683 0.375733 -0.009898
v 7.294939 0.375634 -0.007054
v 7.285245 0.377460 -0.006607
v 7.281283 0.378471 0.002074
v 7.276420 0.377652 0.010074
v 7.274818 0.376736 0.014528
v 7.292594 0.375044 -0.011123
v 7.296270 0.374649 -0.008922
v 7.298254 0.375235 -0.003975
v 7.283764 0.378226 -0.002231
v 7.284267 0.377432 -0.006692
v 7.271753 0.375863 0.013093
v 7.269973 0.374360 0.017249
v 7.289657 0.374514 -0.013596
v 7.289402 0.374963 -0.012765
v 7.293169 0.374282 -0.012572
v 7.299913 0.373936 -0.006490
v 7.301293 0.374491 -0.000992
v 7.267190 0.372941 0.014861
v 7.265520 0.370885 0.018591
v 7.289847 0.374054 -0.014448
v 7.299118 0.375773 0.001556
v 7.304029 0.373208 0.001905
v 7.303114 0.372931 -0.004108
v 7.262990 0.368924 0.014987
v 7.261293 0.365634 0.018201
v 7.293398 0.373440 -0.014123
v 7.289707 0.373577 -0.015331
v 7.301783 0.374736 0.004962
v 7.259236 0.363151 0.012851
v 7.257609 0.359390 0.014905
v 7.297459 0.372255 -0.013451
v 7.293258 0.372602 -0.015713
v 7.289508 0.373105 -0.016206
v 7.297121 0.373499 -0.011101
v 7.256172 0.357174 0.008468
v 7.292798 0.371770 -0.017247
v 7.297250 0.370986 -0.015828
v 7.296544 0.369758 -0.018122
v 7.289031 0.372692 -0.016970
v 7.300933 0.372452 -0.009400
v 7.306363 0.371369 0.004835
v 7.292038 0.371025 -0.018666
v 7.301293 0.370853 -0.012508
v 7.300970 0.369195 -0.015615
v 7.299990 0.367603 -0.018573
v 7.295391 0.368639 -0.020223
v 7.288508 0.372296 -0.017703
v 7.304203 0.371140 -0.007658
v 7.307919 0.369223 0.000717
v 7.304531 0.369240 -0.011409
v 7.304095 0.367275 -0.015135
v 7.298382 0.366202 -0.021234
v 7.293854 0.367663 -0.022063
v 7.305742 0.371341 -0.001736
v 7.306836 0.369226 -0.005819
v 7.307136 0.367058 -0.010084
v 7.306636 0.364880 -0.014338
v 7.302885 0.365406 -0.018654
v 7.296295 0.365000 -0.023541
v 7.300895 0.363797 -0.021788
v 7.291027 0.370349 -0.019905
v 7.309239 0.364458 -0.008614
v 7.308974 0.366837 -0.003900
v 7.305305 0.362833 -0.018382
v 7.303129 0.361070 -0.022038
v 7.298360 0.362446 -0.024518
v 7.289785 0.369817 -0.020925
v 7.287775 0.372013 -0.018227
v 7.309646 0.366864 0.003133
v 7.310643 0.364321 -0.002097
v 7.307335 0.359997 -0.017782
v 7.291999 0.366861 -0.023571
v 7.287011 0.371755 -0.018704
v 7.311184 0.364104 0.005320
v 7.309578 0.366569 0.010335
v 7.308697 0.362151 -0.013286
v 7.293873 0.364009 -0.025441
v 7.295451 0.361276 -0.026724
v 7.289896 0.366262 -0.024697
v 7.310266 0.359479 -0.012156
v 7.310858 0.361828 -0.007220
v 7.291177 0.363264 -0.026866
v 7.300356 0.359589 -0.025303
v 7.296996 0.358172 -0.027791
v 7.292258 0.360400 -0.028401
v 7.288374 0.369400 -0.021682
v 7.312806 0.360785 0.007090
v 7.312201 0.358952 -0.005874
v 7.302171 0.356366 -0.025688
v 7.305140 0.358078 -0.021982
v 7.286134 0.371646 -0.018907
v 7.286839 0.369164 -0.022148
v 7.313556 0.358161 0.001100
v 7.312088 0.361493 -0.000426
v 7.306870 0.355168 -0.021684
v 7.308931 0.357266 -0.016955
v 7.285245 0.371565 -0.019055
v 7.287616 0.365895 -0.025388
v 7.303876 0.353250 -0.025919
v 7.305414 0.350077 -0.026022
v 7.308357 0.352101 -0.021276
v 7.310244 0.354324 -0.016072
v 7.288265 0.362804 -0.027745
v 7.288815 0.359863 -0.029444
v 7.285245 0.365769 -0.025624
v 7.299885 0.351596 -0.029184
v 7.298499 0.354806 -0.028610
v 7.309669 0.348651 -0.020925
v 7.311539 0.356581 -0.011017
v 7.285245 0.362645 -0.028048
v 7.289370 0.356496 -0.030947
v 7.285245 0.359679 -0.029808
v 7.285245 0.369067 -0.022306
v 7.294355 0.353589 -0.030743
v 7.293326 0.357111 -0.029708
v 7.312712 0.353171 -0.009937
v 7.313480 0.355614 -0.004548
v 7.283651 0.369164 -0.022148
v 7.284357 0.371646 -0.018907
v 7.311424 0.350853 -0.015307
v 7.314630 0.352164 -0.003410
v 7.314899 0.354638 0.002368
v 7.282226 0.362804 -0.027745
v 7.282875 0.365895 -0.025388
v 7.312413 0.347310 -0.014660
v 7.281676 0.359863 -0.029444
v 7.279314 0.363264 -0.026866
v 7.280594 0.366262 -0.024697
v 7.313738 0.349678 -0.009015
v 7.315579 0.348956 -0.002629
v 7.285245 0.356293 -0.031384
v 7.281121 0.356496 -0.030947
v 7.278233 0.360400 -0.028401
v 7.282116 0.369400 -0.021682
v 7.314575 0.346527 -0.008351
v 7.315293 0.343512 -0.007865
v 7.285245 0.352689 -0.032714
v 7.289907 0.352909 -0.032198
v 7.280706 0.369817 -0.020925
v 7.283480 0.371755 -0.018704
v 7.313820 0.341179 -0.013746
v 7.314360 0.338130 -0.013437
v 7.290380 0.349613 -0.033098
v 7.295268 0.350326 -0.031461
v 7.282716 0.372013 -0.018227
v 7.276618 0.364009 -0.025441
v 7.278491 0.366861 -0.023571
v 7.312735 0.335976 -0.019778
v 7.309818 0.329813 -0.024795
v 7.296068 0.347207 -0.031926
v 7.301119 0.348434 -0.029556
v 7.279464 0.370349 -0.019905
v 7.281983 0.372296 -0.017703
v 7.312242 0.339045 -0.020062
v 7.309717 0.333977 -0.025542
v 7.302185 0.345223 -0.029809
v 7.306748 0.346714 -0.026079
v 7.276637 0.367663 -0.022063
v 7.278452 0.371025 -0.018666
v 7.281460 0.372692 -0.016970
v 7.309284 0.337124 -0.025846
v 7.311601 0.342036 -0.020331
v 7.313191 0.344160 -0.014147
v 7.307843 0.343354 -0.026075
v 7.310761 0.345176 -0.020613
v 7.277693 0.371770 -0.017247
v 7.280983 0.373105 -0.016206
v 7.274196 0.365000 -0.023541
v 7.308677 0.340196 -0.026010
v 7.303719 0.338790 -0.029881
v 7.303058 0.341995 -0.029922
v 7.277233 0.372602 -0.015713
v 7.273947 0.369758 -0.018122
v 7.280784 0.373577 -0.015331
v 7.275040 0.361276 -0.026724
v 7.297343 0.341000 -0.032333
v 7.296765 0.344122 -0.032219
v 7.275100 0.368639 -0.020223
v 7.277093 0.373440 -0.014123
v 7.280643 0.374054 -0.014448
v 7.304173 0.335591 -0.029662
v 7.291163 0.343366 -0.034171
v 7.290793 0.346475 -0.033719
v 7.272109 0.366202 -0.021234
v 7.273495 0.358172 -0.027791
v 7.277164 0.357111 -0.029708
v 7.304434 0.332348 -0.029230
v 7.285245 0.346210 -0.034382
v 7.285245 0.349375 -0.033685
v 7.270501 0.367603 -0.018573
v 7.269596 0.363797 -0.021788
v 7.272131 0.362446 -0.024518
v 7.280583 0.352909 -0.032198
v 7.307922 0.320071 -0.021087
v 7.298034 0.327107 -0.030456
v 7.280111 0.349613 -0.033098
v 7.276136 0.353589 -0.030743
v 7.307630 0.317265 -0.020267
v 7.296569 0.315238 -0.025894
v 7.296888 0.317748 -0.026827
v 7.314090 0.321345 -0.011766
v 7.269521 0.369195 -0.015615
v 7.273241 0.370986 -0.015828
v 7.296096 0.313207 -0.024678
v 7.307716 0.315027 -0.019919
v 7.285245 0.316886 -0.029184
v 7.313588 0.319132 -0.010746
v 7.269198 0.370853 -0.012508
v 7.273032 0.372255 -0.013451
v 7.309080 0.307479 -0.019963
v 7.285245 0.314314 -0.027876
v 7.285245 0.325849 -0.035066
v 7.311981 0.312050 -0.007481
v 7.277322 0.374282 -0.012572
v 7.294582 0.306706 -0.020785
v 7.308946 0.305772 -0.019464
v 7.285245 0.311977 -0.027485
v 7.311580 0.310280 -0.006665
v 7.280834 0.374514 -0.013596
v 7.307589 0.303496 -0.017829
v 7.295539 0.303356 -0.017913
v 7.294203 0.305081 -0.019812
v 7.285245 0.303967 -0.027776
v 7.311649 0.308783 -0.005140
v 7.309440 0.307515 -0.007395
v 7.277896 0.375044 -0.011123
v 7.281089 0.374963 -0.012765
v 7.300880 0.296454 -0.010315
v 7.285245 0.302218 -0.027175
v 7.292412 0.302985 -0.018284
v 7.312139 0.303900 -0.000367
v 7.281625 0.375316 -0.012112
v 7.274220 0.374649 -0.008922
v 7.273370 0.373499 -0.011101
v 7.285245 0.300228 -0.024411
v 7.285245 0.294599 -0.012171
v 7.311925 0.302797 0.000960
v 7.269558 0.372452 -0.009400
v 7.270578 0.373936 -0.006490
v 7.310764 0.301973 0.003092
v 7.266288 0.371140 -0.007658
v 7.272237 0.375235 -0.003975
v 7.267376 0.372931 -0.004108
v 7.269198 0.374491 -0.000992
v 7.265960 0.369240 -0.011409
v 7.266396 0.367275 -0.015135
v 7.263655 0.369226 -0.005819
v 7.274131 0.376300 -0.001946
v 7.275552 0.375634 -0.007054
v 7.266461 0.373208 0.001905
v 7.264749 0.371341 -0.001736
v 7.271373 0.375773 0.001556
v 7.277024 0.376450 -0.005557
v 7.278808 0.375733 -0.009898
v 7.262572 0.369223 0.000717
v 7.268708 0.374736 0.004962
v 7.264128 0.371369 0.004835
v 7.266342 0.373188 0.008397
v 7.273490 0.376727 0.003388
v 7.271122 0.375926 0.007209
v 7.267606 0.365406 -0.018654
v 7.262419 0.369224 0.007654
v 7.275864 0.377080 -0.000488
v 7.275637 0.377468 0.004719
v 7.277569 0.377667 0.000578
v 7.278323 0.377028 -0.004467
v 7.263855 0.364880 -0.014338
v 7.267362 0.361070 -0.022038
v 7.279572 0.377466 -0.003664
v 7.277909 0.378083 0.005766
v 7.279383 0.378132 0.001434
v 7.280906 0.377815 -0.003019
v 7.280684 0.376638 -0.008174
v 7.279808 0.376278 -0.008900
v 7.263355 0.367058 -0.010084
v 7.270134 0.359589 -0.025303
v 7.282309 0.378069 -0.002540
v 7.283306 0.377321 -0.006888
v 7.282382 0.377161 -0.007217
v 7.282176 0.375646 -0.011502
v 7.261251 0.364458 -0.008614
v 7.261517 0.366837 -0.003900
v 7.281501 0.376921 -0.007634
v 7.282661 0.375848 -0.011128
v 7.259848 0.364321 -0.002097
v 7.260845 0.366864 0.003133
v 7.283136 0.376032 -0.010787
v 7.259306 0.364104 0.005320
v 7.264550 0.371361 0.011728
v 7.260912 0.366569 0.010335
v 7.284153 0.376259 -0.010367
v 7.284698 0.376307 -0.010278
v 7.273700 0.376862 0.008846
v 7.283641 0.376150 -0.010568
v 7.268908 0.374666 0.011096
v 7.285245 0.376343 -0.010211
v 7.257685 0.360785 0.007090
v 7.256935 0.358161 0.001100
v 7.258403 0.361493 -0.000426
v 7.254960 0.353545 0.009472
v 7.255591 0.354638 0.002368
v 7.254522 0.351246 0.003259
v 7.257010 0.355614 -0.004548
v 7.255861 0.352164 -0.003410
v 7.258290 0.358952 -0.005874
v 7.259633 0.361828 -0.007220
v 7.254003 0.349986 0.010188
v 7.255126 0.352029 0.016983
v 7.257779 0.353171 -0.009937
v 7.254911 0.348956 -0.002629
v 7.255916 0.346527 -0.008351
v 7.256752 0.349678 -0.009015
v 7.260225 0.359479 -0.012156
v 7.258952 0.356581 -0.011017
v 7.261794 0.362151 -0.013286
v 7.254083 0.345845 -0.002073
v 7.258078 0.347310 -0.014660
v 7.263155 0.359997 -0.017782
v 7.261559 0.357266 -0.016955
v 7.260247 0.354324 -0.016072
v 7.265186 0.362833 -0.018382
v 7.253248 0.346572 0.010711
v 7.253657 0.347953 0.003894
v 7.263621 0.355168 -0.021684
v 7.259067 0.350853 -0.015307
v 7.260822 0.348651 -0.020925
v 7.262134 0.352101 -0.021276
v 7.252921 0.344720 0.004398
v 7.265077 0.350077 -0.026022
v 7.268320 0.356366 -0.025688
v 7.265351 0.358078 -0.021982
v 7.253300 0.342686 -0.001607
v 7.255783 0.334097 -0.013049
v 7.254526 0.340419 -0.007479
v 7.255198 0.343512 -0.007865
v 7.256324 0.324069 -0.012001
v 7.256670 0.341179 -0.013746
v 7.256131 0.338130 -0.013437
v 7.257300 0.344160 -0.014147
v 7.271992 0.354806 -0.028610
v 7.266615 0.353250 -0.025919
v 7.256401 0.321345 -0.011766
v 7.257756 0.335976 -0.019778
v 7.258890 0.342036 -0.020331
v 7.259730 0.345176 -0.020613
v 7.270606 0.351596 -0.029184
v 7.262861 0.317265 -0.020267
v 7.256903 0.319132 -0.010746
v 7.260673 0.329813 -0.024795
v 7.263743 0.346714 -0.026079
v 7.262648 0.343354 -0.026075
v 7.275223 0.350326 -0.031461
v 7.274423 0.347207 -0.031926
v 7.269372 0.348434 -0.029556
v 7.262775 0.315027 -0.019919
v 7.262568 0.320071 -0.021087
v 7.268306 0.345223 -0.029809
v 7.279697 0.346475 -0.033719
v 7.279328 0.343366 -0.034171
v 7.273726 0.344122 -0.032219
v 7.258510 0.312050 -0.007481
v 7.261411 0.307479 -0.019963
v 7.273148 0.341000 -0.032333
v 7.267433 0.341995 -0.029922
v 7.258911 0.310280 -0.006665
v 7.261545 0.305772 -0.019464
v 7.266772 0.338790 -0.029881
v 7.279012 0.340215 -0.034452
v 7.278760 0.336959 -0.034570
v 7.272705 0.337773 -0.032255
v 7.261814 0.340196 -0.026010
v 7.285245 0.343054 -0.034921
v 7.261051 0.307515 -0.007395
v 7.262902 0.303496 -0.017829
v 7.285245 0.339863 -0.035313
v 7.272416 0.334493 -0.031983
v 7.261207 0.337124 -0.025846
v 7.258249 0.339045 -0.020062
v 7.291479 0.340215 -0.034452
v 7.258842 0.308783 -0.005140
v 7.269610 0.296454 -0.010315
v 7.260774 0.333977 -0.025542
v 7.266318 0.335591 -0.029662
v 7.291730 0.336959 -0.034570
v 7.297786 0.337773 -0.032255
v 7.258352 0.303900 -0.000367
v 7.266057 0.332348 -0.029230
v 7.285245 0.336604 -0.035581
v 7.298075 0.334493 -0.031983
v 7.258566 0.302797 0.000960
v 7.272457 0.327107 -0.030456
v 7.272296 0.331192 -0.031514
v 7.278518 0.330285 -0.034292
v 7.278588 0.333652 -0.034522
v 7.285245 0.333312 -0.035707
v 7.259727 0.301973 0.003092
v 7.273922 0.315238 -0.025894
v 7.273603 0.317748 -0.026827
v 7.285245 0.329944 -0.035689
v 7.291903 0.333652 -0.034522
v 7.298195 0.331192 -0.031514
v 7.274395 0.313207 -0.024678
v 7.291973 0.330285 -0.034292
v 7.275909 0.306706 -0.020785
v 7.276288 0.305081 -0.019812
v 7.274952 0.303356 -0.017913
v 7.278079 0.302985 -0.018284
vn 0.6923 -0.7003 0.1740
vn 0.7713 -0.5811 0.2596
vn 0.2868 -0.8594 0.4234
vn 0.8174 -0.5593 0.1375
vn 0.0566 -0.8941 0.4443
vn 0.9327 -0.3348 0.1342
vn 0.9689 -0.1902 0.1582
vn -0.0000 -0.9485 0.3166
vn -0.7713 -0.5811 0.2596
vn -0.9718 -0.1581 0.1750
vn -0.9750 -0.1471 0.1668
vn -0.9689 -0.1902 0.1582
vn -0.0566 -0.8941 0.4443
vn -0.2868 -0.8594 0.4234
vn 0.9750 -0.1471 0.1668
vn 0.9967 -0.0014 0.0808
vn 0.9718 -0.1581 0.1750
vn 0.9935 -0.0019 0.1138
vn 0.8353 -0.4240 0.3499
vn -0.6923 -0.7003 0.1740
vn 0.9708 0.2392 -0.0186
vn 0.9972 0.0715 -0.0227
vn -0.8174 -0.5593 0.1375
vn 0.9954 -0.0938 0.0168
vn -0.9327 -0.3348 0.1342
vn 0.8431 -0.3315 -0.4234
vn 0.9955 -0.0745 0.0588
vn 0.9811 0.1778 0.0765
vn 0.9761 0.0588 -0.2094
vn 0.3285 -0.4181 -0.8469
vn 0.8888 -0.4290 0.1609
vn 0.9960 0.0648 0.0611
vn 0.7799 0.6112 0.1347
vn 0.8507 0.5212 0.0687
vn 0.7988 0.6004 0.0371
vn 0.7037 0.7037 0.0984
vn 0.5472 0.1861 0.8161
vn 0.6727 -0.2747 -0.6870
vn 0.6692 -0.2459 -0.7012
vn 0.3436 -0.3244 -0.8813
vn 0.3400 -0.3625 -0.8678
vn 0.9996 -0.0215 -0.0195
vn 0.6039 -0.5312 0.5943
vn 0.0092 -0.5905 0.8070
vn 0.8500 0.1195 0.5130
vn -0.9967 -0.0014 0.0808
vn -0.9935 -0.0019 0.1138
vn -0.8353 -0.4240 0.3499
vn -0.0000 -0.5127 0.8585
vn -0.0000 -0.6532 0.7572
vn -0.0371 -0.2818 0.9587
vn 0.9277 -0.2867 -0.2393
vn 0.8257 0.3799 0.4170
vn -0.9708 0.2392 -0.0186
vn -0.9972 0.0715 -0.0227
vn -0.0000 -0.6861 0.7275
vn -0.0092 -0.5905 0.8070
vn 0.5183 -0.4445 0.7306
vn 0.8987 -0.2167 -0.3813
vn 0.4663 -0.6419 -0.6088
vn 0.7532 0.5106 0.4148
vn -0.9954 -0.0938 0.0168
vn 0.8195 -0.5103 0.2607
vn -0.8195 -0.5103 0.2607
vn 0.8734 -0.4350 0.2189
vn -0.0600 -0.8901 0.4518
vn 0.8513 -0.0524 -0.5220
vn 0.9499 0.3091 -0.0453
vn -0.8431 -0.3315 -0.4234
vn -0.9955 -0.0745 0.0588
vn 0.0600 -0.8901 0.4518
vn -0.9761 0.0588 -0.2094
vn -0.9811 0.1778 0.0765
vn -0.3285 -0.4181 -0.8469
vn -0.8888 -0.4290 0.1609
vn -0.9960 0.0648 0.0611
vn -0.8734 -0.4350 0.2189
vn -0.6039 -0.5312 0.5943
vn -0.9996 -0.0215 -0.0195
vn -0.5472 0.1861 0.8161
vn -0.8500 0.1195 0.5130
vn -0.5183 -0.4445 0.7306
vn 0.0371 -0.2818 0.9587
vn -0.9277 -0.2867 -0.2393
vn -0.8257 0.3799 0.4170
vn -0.8987 -0.2167 -0.3813
vn -0.4663 -0.6419 -0.6088
vn -0.7532 0.5106 0.4148
vn -0.8513 -0.0524 -0.5220
vn -0.9499 0.3091 -0.0453
vn -0.3205 0.4176 0.8502
vn -0.5489 0.3907 0.7389
vn -0.6227 0.3507 0.6994
vn 0.1139 0.5851 0.8029
vn -0.3187 0.5586 0.7658
vn -0.9324 0.3438 0.1112
vn -0.9486 0.2977 0.1076
vn -0.8817 0.3313 0.3358
vn -0.8741 0.3849 0.2963
vn -0.8441 -0.2363 0.4813
vn -0.6942 -0.3013 0.6537
vn -0.7437 -0.2431 0.6227
vn -0.9093 -0.1514 0.3875
vn 0.9301 -0.0051 -0.3673
vn 0.9116 0.1326 -0.3890
vn 0.9426 0.1550 -0.2959
vn 0.9539 0.0982 -0.2837
vn 0.6227 0.3507 0.6994
vn 0.7022 0.3046 0.6436
vn 0.7493 0.3044 0.5882
vn 0.7511 0.3432 0.5639
vn -0.7490 0.0636 -0.6595
vn -0.7599 -0.0350 -0.6491
vn -0.9301 -0.0051 -0.3673
vn -0.9116 0.1326 -0.3890
vn -0.1139 0.5851 0.8029
vn -0.0942 0.7298 0.6772
vn -0.3800 0.5611 0.7353
vn -0.4444 0.3524 0.8236
vn 0.6058 0.5245 0.5982
vn 0.6000 0.6879 0.4084
vn 0.3365 0.7486 0.5712
vn 0.3187 0.5586 0.7658
vn -0.7511 0.3432 0.5639
vn -0.7493 0.3044 0.5882
vn -0.5846 -0.7139 -0.3855
vn -0.3812 -0.5606 -0.7351
vn -0.0000 -0.6821 -0.7313
vn -0.0000 -0.8780 -0.4787
vn 0.7075 0.2173 0.6725
vn 0.7486 0.2323 0.6210
vn 0.8863 0.3024 0.3508
vn 0.8817 0.3313 0.3358
vn 0.0187 0.8631 0.5046
vn -0.2383 0.7675 0.5951
vn 0.3384 0.8631 0.3749
vn -0.0000 0.4737 0.8807
vn -0.0000 0.2535 0.9673
vn -0.7022 0.3046 0.6436
vn 0.5426 0.7982 0.2616
vn -0.7075 0.2173 0.6725
vn -0.7486 0.2323 0.6210
vn -0.7536 0.0340 0.6565
vn -0.1115 0.8559 0.5049
vn -0.0000 0.8272 0.5619
vn -0.0000 0.7371 0.6757
vn 0.0507 0.9280 0.3692
vn 0.2162 0.1354 -0.9669
vn 0.2344 0.0802 -0.9688
vn -0.0000 0.0872 -0.9962
vn -0.0000 0.1362 -0.9907
vn 0.8123 -0.5354 0.2314
vn 0.5580 -0.7582 0.3372
vn 0.4689 -0.8800 -0.0760
vn 0.6753 -0.6808 -0.2837
vn 0.3800 0.5611 0.7353
vn 0.2383 0.7675 0.5951
vn 0.6101 0.1127 0.7843
vn 0.8974 0.0292 0.4403
vn 0.8509 0.0885 0.5178
vn 0.6442 0.1540 0.7492
vn 0.8310 -0.0727 0.5515
vn 0.6831 -0.0809 0.7258
vn -0.2525 0.8319 -0.4942
vn -0.1581 0.8565 -0.4913
vn -0.1492 0.8437 -0.5157
vn -0.2382 0.8116 -0.5335
vn 0.0626 0.9892 0.1327
vn 0.0676 0.9977 0.0055
vn -0.0000 0.9999 0.0103
vn -0.0000 0.9894 0.1455
vn -0.9167 0.1080 0.3847
vn 0.7437 -0.2431 0.6227
vn 0.9093 -0.1514 0.3875
vn 0.9167 0.1080 0.3847
vn 0.7536 0.0340 0.6565
vn -0.4855 -0.0285 -0.8738
vn -0.4829 -0.1965 -0.8534
vn 0.1271 0.9632 0.2370
vn 0.0049 0.9433 0.3319
vn 0.6598 -0.2939 -0.6915
vn 0.3952 -0.4160 -0.8190
vn 0.9489 0.1293 -0.2880
vn 0.9440 0.1751 -0.2796
vn 0.8576 0.4568 0.2362
vn 0.8305 0.5286 0.1757
vn 0.7489 0.5989 0.2836
vn 0.7720 0.4819 0.4145
vn 0.7621 0.3820 0.5227
vn 0.8741 0.3849 0.2963
vn -0.8863 0.3024 0.3508
vn 0.6942 -0.3013 0.6537
vn 0.8441 -0.2363 0.4813
vn 0.0942 0.7298 0.6772
vn -0.3365 0.7486 0.5712
vn 0.3205 0.4176 0.8502
vn 0.9882 -0.1161 -0.0997
vn 0.9868 0.1112 -0.1174
vn 0.9710 -0.0184 0.2382
vn 0.9356 -0.0422 0.3505
vn 0.9324 0.3438 0.1112
vn 0.9486 0.2977 0.1076
vn 0.0511 0.7521 -0.6570
vn -0.0000 0.7499 -0.6616
vn -0.0000 0.8052 -0.5930
vn 0.0312 0.8071 -0.5896
vn -0.9700 0.2259 0.0899
vn 0.9700 0.2259 0.0899
vn 0.7221 0.1888 -0.6655
vn 0.4869 0.1202 -0.8652
vn 0.4787 0.1837 -0.8585
vn 0.6955 0.2380 -0.6780
vn -0.6058 0.5245 0.5982
vn 0.5489 0.3907 0.7389
vn 0.9419 -0.0812 0.3260
vn -0.9962 0.0055 0.0866
vn 0.1619 0.9470 -0.2774
vn 0.1853 0.9374 -0.2947
vn 0.1160 0.9231 -0.3668
vn 0.1019 0.9291 -0.3554
vn -0.7720 0.4819 0.4145
vn -0.7621 0.3820 0.5227
vn 0.1115 0.8559 0.5049
vn -0.0049 0.9433 0.3319
vn -0.1271 0.9632 0.2370
vn -0.0507 0.9280 0.3692
vn -0.9265 0.2008 -0.3183
vn -0.9362 0.1794 -0.3024
vn -0.9427 0.1894 -0.2748
vn -0.9399 0.2041 -0.2738
vn -0.0000 0.9300 0.3676
vn 0.9962 0.0055 0.0866
vn 0.9492 0.2432 -0.1998
vn 0.9541 0.2213 -0.2019
vn 0.9427 0.1894 -0.2748
vn 0.9399 0.2041 -0.2738
vn -0.9388 -0.3438 0.0212
vn -0.9696 -0.2423 -0.0343
vn -0.9657 -0.2267 0.1268
vn -0.9691 -0.1326 0.2082
vn -0.7529 0.3331 -0.5676
vn -0.6082 0.3324 -0.7208
vn -0.6575 0.2850 -0.6975
vn -0.8101 0.2859 -0.5118
vn -0.3594 0.7905 -0.4959
vn -0.3637 0.8260 -0.4307
vn -0.2590 0.8549 -0.4495
vn 0.9287 0.3139 -0.1977
vn 0.9179 0.2642 -0.2961
vn 0.8857 0.3278 -0.3289
vn 0.8996 0.3784 -0.2182
vn 0.1621 0.9819 0.0980
vn -0.3800 0.4132 -0.8275
vn -0.4166 0.3467 -0.8404
vn -0.5577 0.3756 -0.7402
vn -0.4950 0.4449 -0.7463
vn 0.8436 -0.1930 -0.5011
vn 0.8730 -0.0827 -0.4806
vn -0.0187 0.8631 0.5046
vn -0.3384 0.8631 0.3749
vn -0.9581 0.2044 -0.2007
vn -0.9608 0.1938 -0.1983
vn -0.9898 0.1367 -0.0406
vn -0.9706 0.2263 -0.0817
vn -0.9108 -0.3477 -0.2225
vn -0.9122 -0.2851 -0.2943
vn 0.9275 0.0480 0.3707
vn 0.9934 -0.1089 -0.0356
vn 0.9696 -0.2423 -0.0343
vn 0.9657 -0.2267 0.1268
vn 0.6799 0.7076 0.1927
vn 0.5906 0.7950 0.1381
vn 0.4687 0.8663 0.1729
vn -0.9710 -0.0184 0.2382
vn -0.9760 0.1527 -0.1555
vn -0.9868 0.1112 -0.1174
vn 0.9108 -0.3477 -0.2225
vn 0.8095 -0.5834 0.0652
vn 0.5007 -0.7705 -0.3945
vn 0.6129 -0.5605 -0.5569
vn 0.0259 -0.6882 -0.7250
vn 0.3812 -0.5606 -0.7351
vn -0.6968 -0.6568 0.2880
vn -0.6271 -0.7402 0.2424
vn -0.5217 -0.5160 0.6794
vn 0.9581 0.2044 -0.2007
vn 0.9388 -0.3438 0.0212
vn 0.9122 -0.2851 -0.2943
vn 0.8687 -0.2760 -0.4113
vn 0.9545 -0.2982 -0.0019
vn 0.2381 0.9041 -0.3549
vn 0.1505 0.9016 -0.4055
vn 0.1327 0.9139 -0.3837
vn 0.2143 0.9226 -0.3207
vn 0.9691 -0.1326 0.2082
vn 0.9724 -0.2252 0.0608
vn 0.8212 -0.3575 -0.4449
vn 0.8695 -0.2500 -0.4259
vn -0.7262 -0.6664 -0.1690
vn -0.8310 -0.0727 0.5515
vn -0.8509 0.0885 0.5178
vn -0.6442 0.1540 0.7492
vn -0.6831 -0.0809 0.7258
vn -0.3952 -0.4160 -0.8190
vn -0.0000 -0.3578 -0.9338
vn 0.9838 0.1743 0.0418
vn -0.8212 -0.3575 -0.4449
vn -0.6753 -0.6808 -0.2837
vn -0.8123 -0.5354 0.2314
vn -0.9724 -0.2252 0.0608
vn -0.9356 -0.0422 0.3505
vn -0.6101 0.1127 0.7843
vn -0.8974 0.0292 0.4403
vn -0.8436 -0.1930 -0.5011
vn -0.8687 -0.2760 -0.4113
vn -0.9545 -0.2982 -0.0019
vn -0.9882 -0.1161 -0.0997
vn 0.9265 0.2008 -0.3183
vn 0.8783 0.2140 -0.4275
vn 0.8507 0.2477 -0.4637
vn 0.9110 0.2247 -0.3458
vn 0.9898 0.1367 -0.0406
vn -0.9669 0.2538 0.0270
vn -0.9538 0.2996 0.0238
vn -0.0000 -0.1578 -0.9875
vn -0.0000 -0.3909 -0.9204
vn -0.5890 -0.2141 0.7793
vn -0.8708 -0.3449 0.3504
vn -0.8576 0.4568 0.2362
vn -0.9082 0.4061 0.1007
vn 0.7103 0.7038 -0.0122
vn 0.6050 0.7950 0.0434
vn -0.9419 -0.0812 0.3260
vn 0.8404 0.0135 0.5418
vn 0.8413 0.3153 -0.4391
vn 0.7770 0.3878 -0.4958
vn 0.8312 0.4116 -0.3737
vn -0.7489 0.5989 0.2836
vn -0.6000 0.6879 0.4084
vn 0.6973 -0.2775 -0.6609
vn 0.5217 -0.5160 0.6794
vn 0.6271 -0.7402 0.2424
vn 0.6968 -0.6568 0.2880
vn -0.5426 0.7982 0.2616
vn -0.6799 0.7076 0.1927
vn 0.6026 0.6431 -0.4726
vn 0.5627 0.5960 -0.5728
vn 0.4382 0.6941 -0.5712
vn 0.4587 0.7386 -0.4940
vn 0.9760 0.1527 -0.1555
vn -0.6598 -0.2939 -0.6915
vn -0.6129 -0.5605 -0.5569
vn 0.6787 -0.2746 0.6812
vn 0.5128 -0.5141 0.6876
vn -0.3122 0.9207 0.2342
vn -0.4687 0.8663 0.1729
vn 0.7262 -0.6664 -0.1690
vn -0.9934 -0.1089 -0.0356
vn -0.9275 0.0480 0.3707
vn -0.5580 -0.7582 0.3372
vn -0.4643 -0.8136 0.3499
vn -0.5128 -0.5141 0.6876
vn -0.2807 0.9483 0.1483
vn 0.4444 0.3524 0.8236
vn -0.0626 0.9892 0.1327
vn -0.2560 0.9647 0.0613
vn -0.1621 0.9819 0.0980
vn -0.6787 -0.2746 0.6812
vn -0.8404 0.0135 0.5418
vn -0.2209 0.9751 -0.0204
vn -0.1472 0.9891 -0.0066
vn -0.0676 0.9977 0.0055
vn 0.3122 0.9207 0.2342
vn 0.1221 0.9895 -0.0769
vn 0.0599 0.9959 -0.0672
vn 0.1472 0.9891 -0.0066
vn -0.3284 0.9439 0.0342
vn -0.3947 0.9125 0.1076
vn 0.8708 -0.3449 0.3504
vn -0.1221 0.9895 -0.0769
vn -0.0599 0.9959 -0.0672
vn -0.1812 0.9793 -0.0900
vn -0.2573 0.0252 -0.9660
vn -0.3639 0.0101 -0.9314
vn -0.3535 0.0780 -0.9322
vn -0.2344 0.0802 -0.9688
vn -0.5906 0.7950 0.1381
vn -0.4993 0.8626 0.0811
vn 0.4643 -0.8136 0.3499
vn -0.2780 0.9599 -0.0362
vn 0.0464 0.9419 -0.3327
vn 0.0238 0.9435 -0.3304
vn 0.0361 0.9704 -0.2387
vn 0.0725 0.9670 -0.2441
vn -0.7037 0.7037 0.0984
vn -0.7799 0.6112 0.1347
vn -0.8305 0.5286 0.1757
vn -0.3180 0.9344 -0.1606
vn -0.2619 0.9400 -0.2184
vn -0.2950 0.9224 -0.2492
vn -0.3581 0.9128 -0.1964
vn -0.4064 0.9137 0.0080
vn -0.3336 0.9407 -0.0610
vn 0.3535 0.0780 -0.9322
vn 0.3434 0.1426 -0.9283
vn -0.2786 0.9513 -0.1322
vn -0.2328 0.9665 -0.1080
vn -0.1931 0.9647 -0.1790
vn -0.2290 0.9533 -0.1970
vn 0.1876 0.2466 -0.9508
vn -0.0000 0.2436 -0.9699
vn -0.0000 0.3095 -0.9509
vn 0.1712 0.3114 -0.9347
vn -0.1002 0.9840 -0.1476
vn -0.1480 0.9758 -0.1610
vn -0.8815 0.4644 0.0854
vn -0.1836 0.7787 -0.5999
vn -0.1135 0.8231 -0.5564
vn -0.0888 0.8162 -0.5710
vn -0.1446 0.7667 -0.6254
vn -0.6050 0.7950 0.0434
vn -0.4917 0.8705 -0.0234
vn 0.1002 0.9840 -0.1476
vn 0.1812 0.9793 -0.0900
vn 0.1480 0.9758 -0.1610
vn 0.7381 0.6422 -0.2066
vn 0.8324 0.5327 -0.1529
vn 0.8480 0.4637 -0.2567
vn 0.7597 0.5721 -0.3089
vn -0.0725 0.9670 -0.2441
vn -0.1078 0.9610 -0.2548
vn -0.1420 0.9532 -0.2670
vn -0.0504 0.9889 -0.1395
vn -0.0361 0.9704 -0.2387
vn -0.9338 0.3575 0.0152
vn -0.1712 0.3114 -0.9347
vn -0.1517 0.3814 -0.9119
vn -0.0000 0.3799 -0.9250
vn -0.1619 0.9470 -0.2774
vn -0.1853 0.9374 -0.2947
vn -0.8857 0.3278 -0.3289
vn -0.8413 0.3153 -0.4391
vn -0.8850 0.2601 -0.3862
vn -0.9179 0.2642 -0.2961
vn -0.0000 0.9907 -0.1364
vn -0.0000 0.9719 -0.2354
vn 0.7875 0.6118 -0.0746
vn 0.8550 0.5177 -0.0300
vn 0.8874 0.4465 -0.1147
vn -0.9618 0.2580 -0.0920
vn -0.7988 0.6004 0.0371
vn -0.7103 0.7038 -0.0122
vn -0.8507 0.5212 0.0687
vn 0.0504 0.9889 -0.1395
vn -0.0000 0.9980 -0.0634
vn -0.9541 0.2213 -0.2019
vn -0.9838 0.1743 0.0418
vn 0.9608 0.1938 -0.1983
vn -0.5321 0.8241 -0.1943
vn -0.6780 0.7238 -0.1280
vn -0.5874 0.8064 -0.0683
vn -0.4567 0.8796 -0.1333
vn -0.4884 0.0491 -0.8712
vn -0.7397 0.1310 -0.6601
vn -0.0464 0.9419 -0.3327
vn -0.0686 0.9377 -0.3406
vn -0.0238 0.9435 -0.3304
vn -0.9440 0.1751 -0.2796
vn -0.9489 0.1293 -0.2880
vn 0.9328 -0.0088 -0.3602
vn 0.0686 0.9377 -0.3406
vn -0.0000 0.8823 -0.4707
vn 0.0901 0.9336 -0.3469
vn -0.1019 0.9291 -0.3554
vn -0.1160 0.9231 -0.3668
vn -0.8730 -0.0827 -0.4806
vn -0.0000 0.6588 -0.7524
vn -0.0788 0.6617 -0.7456
vn -0.0511 0.7521 -0.6570
vn -0.3018 0.3219 -0.8974
vn -0.2775 0.3910 -0.8776
vn -0.0000 0.9451 -0.3268
vn -0.1293 0.4655 -0.8755
vn -0.2441 0.4773 -0.8442
vn -0.2023 0.5737 -0.7937
vn -0.1050 0.5625 -0.8201
vn -0.2381 0.9041 -0.3549
vn -0.2143 0.9226 -0.3207
vn -0.1327 0.9139 -0.3837
vn -0.1505 0.9016 -0.4055
vn -0.3277 0.8965 -0.2982
vn -0.4054 0.8781 -0.2543
vn -0.8899 0.4562 -0.0033
vn -0.9175 0.3855 -0.0975
vn -0.9344 0.3424 -0.0983
vn -0.9115 0.4112 0.0063
vn 0.3947 0.9125 0.1076
vn 0.2807 0.9483 0.1483
vn -0.1592 0.8864 -0.4347
vn -0.2537 0.8799 -0.4018
vn 0.1592 0.8864 -0.4347
vn 0.3907 0.9158 -0.0930
vn 0.4917 0.8705 -0.0234
vn 0.5874 0.8064 -0.0683
vn 0.4567 0.8796 -0.1333
vn 0.2023 0.5737 -0.7937
vn 0.1050 0.5625 -0.8201
vn 0.0788 0.6617 -0.7456
vn 0.1535 0.6700 -0.7263
vn -0.0612 0.8098 -0.5835
vn -0.1001 0.7573 -0.6454
vn -0.0901 0.9336 -0.3469
vn 0.1635 0.8708 -0.4636
vn -0.1635 0.8708 -0.4636
vn -0.1876 0.2466 -0.9508
vn -0.3197 0.2598 -0.9112
vn -0.3907 0.9158 -0.0930
vn 0.6575 0.2850 -0.6975
vn 0.8101 0.2859 -0.5118
vn 0.3433 0.7581 -0.5544
vn 0.2382 0.8116 -0.5335
vn 0.2525 0.8319 -0.4942
vn 0.3594 0.7905 -0.4959
vn 0.1581 0.8565 -0.4913
vn 0.8815 0.4644 0.0854
vn 0.7433 0.5166 -0.4249
vn -0.2197 0.6842 -0.6954
vn -0.2741 0.7038 -0.6554
vn 0.2741 0.7038 -0.6554
vn 0.1836 0.7787 -0.5999
vn 0.2146 0.7942 -0.5685
vn 0.3148 0.7290 -0.6078
vn 0.1492 0.8437 -0.5157
vn 0.9618 0.2580 -0.0920
vn 0.9492 0.2990 -0.0981
vn -0.4197 0.5375 -0.7314
vn -0.3349 0.5026 -0.7970
vn 0.9338 0.3575 0.0152
vn 0.9115 0.4112 0.0063
vn 0.9082 0.4061 0.1007
vn -0.0312 0.8071 -0.5896
vn -0.3433 0.7581 -0.5544
vn -0.1331 0.8332 -0.5367
vn -0.2146 0.7942 -0.5685
vn 0.1331 0.8332 -0.5367
vn -0.4612 0.7864 -0.4110
vn -0.4437 0.8335 -0.3292
vn -0.3534 0.8621 -0.3632
vn -0.4587 0.7386 -0.4940
vn -0.4382 0.6941 -0.5712
vn 0.1135 0.8231 -0.5564
vn -0.8980 0.1768 -0.4030
vn -0.9426 0.1550 -0.2959
vn -0.3148 0.7290 -0.6078
vn -0.6117 0.6993 -0.3699
vn -0.5883 0.7605 -0.2749
vn -0.7875 0.6118 -0.0746
vn -0.3766 -0.0600 -0.9244
vn -0.2850 -0.0314 -0.9580
vn -0.3207 -0.1905 -0.9278
vn -0.3924 -0.1715 -0.9037
vn -0.5627 0.5960 -0.5728
vn -0.6026 0.6431 -0.4726
vn -0.4020 0.6548 -0.6400
vn -0.9492 0.2432 -0.1998
vn -0.9492 0.2990 -0.0981
vn -0.9421 0.2722 -0.1957
vn -0.7770 0.3878 -0.4958
vn -0.6863 0.3865 -0.6161
vn -0.7433 0.5166 -0.4249
vn -0.7597 0.5721 -0.3089
vn -0.6878 0.4801 -0.5444
vn 0.2619 0.9400 -0.2184
vn 0.2290 0.9533 -0.1970
vn -0.3506 0.6216 -0.7005
vn -0.5002 0.5649 -0.6563
vn -0.8480 0.4637 -0.2567
vn -0.8324 0.5327 -0.1529
vn -0.7381 0.6422 -0.2066
vn -0.8312 0.4116 -0.3737
vn 0.4064 0.9137 0.0080
vn 0.4993 0.8626 0.0811
vn 0.0888 0.8162 -0.5710
vn -0.8874 0.4465 -0.1147
vn -0.8550 0.5177 -0.0300
vn 0.3336 0.9407 -0.0610
vn 0.2780 0.9599 -0.0362
vn 0.3284 0.9439 0.0342
vn -0.6048 0.4637 -0.6474
vn -0.2847 0.5936 -0.7527
vn -0.8507 0.2477 -0.4637
vn -0.9110 0.2247 -0.3458
vn 0.0612 0.8098 -0.5835
vn 0.1420 0.9532 -0.2670
vn 0.1931 0.9647 -0.1790
vn -0.1535 0.6700 -0.7263
vn -0.8996 0.3784 -0.2182
vn 0.6117 0.6993 -0.3699
vn 0.3506 0.6216 -0.7005
vn 0.2847 0.5936 -0.7527
vn 0.2197 0.6842 -0.6954
vn -0.9287 0.3139 -0.1977
vn 0.4197 0.5375 -0.7314
vn 0.3349 0.5026 -0.7970
vn 0.9333 0.2258 -0.2793
vn 0.9421 0.2722 -0.1957
vn 0.9175 0.3855 -0.0975
vn 0.6863 0.3865 -0.6161
vn 0.6048 0.4637 -0.6474
vn 0.6878 0.4801 -0.5444
vn 0.1078 0.9610 -0.2548
vn -0.0000 0.5589 -0.8292
vn 0.2850 -0.0314 -0.9580
vn 0.3207 -0.1905 -0.9278
vn -0.0000 -0.0939 -0.9956
vn -0.0000 -0.0101 -0.9999
vn 0.9706 0.2263 -0.0817
vn -0.6955 0.2380 -0.6780
vn -0.0000 0.4627 -0.8865
vn -0.4428 0.2954 -0.8466
vn 0.4428 0.2954 -0.8466
vn 0.3197 0.2598 -0.9112
vn 0.3018 0.3219 -0.8974
vn 0.4166 0.3467 -0.8404
vn -0.9333 0.2258 -0.2793
vn 0.3581 0.9128 -0.1964
vn 0.4054 0.8781 -0.2543
vn 0.3277 0.8965 -0.2982
vn 0.2950 0.9224 -0.2492
vn -0.8783 0.2140 -0.4275
vn 0.1293 0.4655 -0.8755
vn 0.2441 0.4773 -0.8442
vn 0.5577 0.3756 -0.7402
vn 0.4950 0.4449 -0.7463
vn 0.1001 0.7573 -0.6454
vn 0.1517 0.3814 -0.9119
vn 0.1446 0.7667 -0.6254
vn -0.9539 0.0982 -0.2837
vn 0.2775 0.3910 -0.8776
vn 0.3800 0.4132 -0.8275
vn 0.7433 -0.2355 -0.6261
vn -0.8695 -0.2500 -0.4259
vn -0.2017 0.1884 -0.9612
vn -0.3330 0.2006 -0.9214
vn 0.2786 0.9513 -0.1322
vn 0.2328 0.9665 -0.1080
vn 0.7599 -0.0350 -0.6491
vn -0.6973 -0.2775 -0.6609
vn -0.3658 -0.3949 -0.8427
vn -0.3400 -0.3625 -0.8678
vn -0.6727 -0.2747 -0.6870
vn -0.3434 0.1426 -0.9283
vn -0.4787 0.1837 -0.8585
vn -0.4641 0.2403 -0.8526
vn -0.4869 0.1202 -0.8652
vn -0.7221 0.1888 -0.6655
vn 0.7490 0.0636 -0.6595
vn 0.7397 0.1310 -0.6601
vn 0.8980 0.1768 -0.4030
vn 0.8850 0.2601 -0.3862
vn 0.7529 0.3331 -0.5676
vn 0.2560 0.9647 0.0613
vn 0.9538 0.2996 0.0238
vn 0.2573 0.0252 -0.9660
vn -0.0000 0.0395 -0.9992
vn -0.2162 0.1354 -0.9669
vn 0.4020 0.6548 -0.6400
vn 0.4829 -0.1965 -0.8534
vn 0.2209 0.9751 -0.0204
vn -0.0000 0.1861 -0.9825
vn 0.5002 0.5649 -0.6563
vn 0.3971 -0.3581 -0.8450
vn 0.3330 0.2006 -0.9214
vn 0.2017 0.1884 -0.9612
vn 0.9362 0.1794 -0.3024
vn -0.3436 -0.3244 -0.8813
vn -0.6692 -0.2459 -0.7012
vn -0.3971 -0.3581 -0.8450
vn -0.0000 -0.3553 -0.9348
vn -0.0000 -0.4453 -0.8954
vn 0.3637 0.8260 -0.4307
vn 0.2590 0.8549 -0.4495
vn 0.2537 0.8799 -0.4018
vn 0.3534 0.8621 -0.3632
vn -0.7433 -0.2355 -0.6261
vn -0.0259 -0.6882 -0.7250
vn -0.5007 -0.7705 -0.3945
vn -0.8095 -0.5834 0.0652
vn 0.4247 -0.8182 -0.3876
vn -0.9328 -0.0088 -0.3602
vn 0.5846 -0.7139 -0.3855
vn -0.0000 -0.9085 -0.4178
vn 0.4437 0.8335 -0.3292
vn -0.4689 -0.8800 -0.0760
vn 0.5321 0.8241 -0.1943
vn 0.5883 0.7605 -0.2749
vn 0.4612 0.7864 -0.4110
vn 0.6780 0.7238 -0.1280
vn 0.3180 0.9344 -0.1606
vn 0.3658 -0.3949 -0.8427
vn 0.4641 0.2403 -0.8526
vn 0.8899 0.4562 -0.0033
vn 0.9344 0.3424 -0.0983
vn 0.9669 0.2538 0.0270
vn 0.4884 0.0491 -0.8712
vn 0.3639 0.0101 -0.9314
vn 0.6082 0.3324 -0.7208
vn 0.3924 -0.1715 -0.9037
vn 0.3766 -0.0600 -0.9244
vn 0.4855 -0.0285 -0.8738
vn -0.4247 -0.8182 -0.3876
vn 0.5890 -0.2141 0.7793
vt 0.000000 0.000000
s 1
f 1/1/1 2/1/2 3/1/3
f 1/1/1 4/1/4 2/1/2
f 3/1/3 2/1/2 5/1/5
f 4/1/4 6/1/6 2/1/2
f 6/1/6 8/1/7 2/1/2
f 2/1/2 9/1/8 7/1/8 5/1/5
f 10/1/9 33/1/10 32/1/11 26/1/12
f 11/1/13 10/1/9 14/1/14
f 12/1/15 15/1/16 13/1/17
f 12/1/15 16/1/18 15/1/16
f 13/1/17 15/1/16 17/1/19
f 14/1/14 10/1/9 18/1/20
f 16/1/18 19/1/21 15/1/16
f 15/1/16 19/1/21 20/1/22
f 15/1/16 20/1/22 17/1/19
f 18/1/20 10/1/9 21/1/23
f 20/1/22 22/1/24 17/1/19
f 21/1/23 10/1/9 23/1/25
f 22/1/24 24/1/26 17/1/19
f 22/1/24 25/1/27 24/1/26
f 23/1/25 10/1/9 26/1/12
f 24/1/26 27/1/28 28/1/29
f 24/1/26 28/1/29 29/1/30
f 24/1/26 29/1/30 30/1/31
f 24/1/26 30/1/31 17/1/19
f 24/1/26 25/1/27 31/1/32
f 24/1/26 31/1/32 27/1/28
f 260/1/33 381/1/34 286/1/35 279/1/36
f 30/1/31 34/1/37 17/1/19
f 504/1/38 511/1/39 510/1/40 505/1/41
f 17/1/19 37/1/42 38/1/43
f 17/1/19 38/1/43 35/1/44
f 17/1/19 34/1/37 39/1/45
f 17/1/19 39/1/45 37/1/42
f 32/1/11 33/1/10 40/1/46
f 32/1/11 40/1/46 41/1/47
f 33/1/10 42/1/48 40/1/46
f 35/1/44 44/1/49 36/1/50 17/1/19
f 38/1/43 45/1/51 35/1/44
f 38/1/43 37/1/42 46/1/52
f 39/1/45 47/1/53 37/1/42
f 40/1/46 48/1/54 41/1/47
f 40/1/46 42/1/48 49/1/55
f 40/1/46 49/1/55 48/1/54
f 44/1/49 35/1/44 50/1/56
f 44/1/49 50/1/56 43/1/57
f 45/1/51 51/1/58 35/1/44
f 46/1/52 37/1/42 52/1/59
f 46/1/52 52/1/59 53/1/60
f 47/1/53 54/1/61 37/1/42
f 49/1/55 42/1/48 55/1/62
f 50/1/56 56/1/63 43/1/57
f 50/1/56 35/1/44 57/1/64
f 51/1/58 58/1/65 35/1/44
f 35/1/44 58/1/65 59/1/66
f 35/1/44 59/1/66 57/1/64
f 52/1/59 37/1/42 60/1/67
f 37/1/42 61/1/68 60/1/67
f 37/1/42 54/1/61 61/1/68
f 55/1/62 42/1/48 62/1/69
f 55/1/62 62/1/69 63/1/70
f 56/1/63 64/1/71 43/1/57
f 62/1/69 65/1/72 66/1/73
f 62/1/69 67/1/74 65/1/72
f 62/1/69 68/1/75 67/1/74
f 62/1/69 42/1/48 68/1/75
f 62/1/69 69/1/76 63/1/70
f 62/1/69 66/1/73 69/1/76
f 64/1/71 70/1/77 43/1/57
f 42/1/48 43/1/57 71/1/78
f 42/1/48 71/1/78 72/1/79
f 42/1/48 73/1/80 68/1/75
f 42/1/48 72/1/79 74/1/81
f 42/1/48 74/1/81 73/1/80
f 70/1/77 75/1/82 43/1/57
f 43/1/57 75/1/82 76/1/83
f 43/1/57 76/1/83 71/1/78
f 71/1/78 77/1/84 72/1/79
f 74/1/81 72/1/79 78/1/85
f 77/1/84 79/1/86 72/1/79
f 77/1/84 80/1/87 79/1/86
f 78/1/85 72/1/79 81/1/88
f 72/1/79 79/1/86 82/1/89
f 72/1/79 83/1/90 81/1/88
f 72/1/79 82/1/89 83/1/90
f 84/1/91 85/1/92 86/1/93
f 84/1/91 87/1/94 88/1/95
f 134/1/96 614/1/97 98/1/98 125/1/99
f 128/1/100 129/1/101 120/1/102 127/1/103
f 454/1/104 460/1/105 447/1/106 448/1/107
f 140/1/108 148/1/109 147/1/110 146/1/111
f 683/1/112 688/1/113 649/1/114 684/1/115
f 122/1/116 123/1/117 113/1/118 112/1/119
f 138/1/120 210/1/121 132/1/122 130/1/123
f 91/1/124 98/1/98 92/1/125
f 713/1/126 711/1/127 535/1/128 541/1/129
f 148/1/109 155/1/130 154/1/131 147/1/110
f 154/1/131 161/1/132 153/1/133 147/1/110
f 123/1/117 133/1/134 114/1/135 113/1/118
f 132/1/122 218/1/136 133/1/134 123/1/117
f 112/1/119 113/1/118 103/1/137 104/1/138
f 92/1/125 93/1/139 86/1/93 91/1/124
f 210/1/121 217/1/140 218/1/136 132/1/122
f 100/1/141 99/1/142 108/1/143
f 114/1/135 141/1/144 109/1/145 105/1/146
f 133/1/134 225/1/147 141/1/144 114/1/135
f 488/1/148 685/1/149 681/1/150 678/1/151
f 246/1/152 248/1/153 546/1/154 543/1/155
f 95/1/156 103/1/137 105/1/146 101/1/157
f 191/1/158 192/1/159 185/1/160 184/1/161
f 184/1/161 185/1/160 180/1/162 179/1/163
f 478/1/164 480/1/165 473/1/166 472/1/167
f 235/1/168 243/1/169 242/1/170 238/1/171
f 108/1/143 99/1/142 119/1/172
f 167/1/173 174/1/174 160/1/175 159/1/176
f 689/1/177 693/1/178 688/1/113 683/1/112
f 230/1/179 231/1/180 141/1/144 225/1/147
f 516/1/181 521/1/182 510/1/40 511/1/39
f 296/1/183 448/1/107 447/1/106 442/1/184
f 200/1/185 261/1/186 209/1/187 201/1/188
f 200/1/185 201/1/188 145/1/189 194/1/190
f 99/1/142 126/1/191 119/1/172
f 167/1/173 176/1/192 175/1/193 174/1/174
f 94/1/194 97/1/195 88/1/95 87/1/94
f 122/1/116 131/1/196 130/1/123
f 211/1/197 219/1/198 189/1/199 203/1/200
f 193/1/201 194/1/190 153/1/133 186/1/202
f 398/1/203 419/1/204 403/1/205 397/1/206
f 126/1/191 135/1/207 119/1/172
f 168/1/208 186/1/202 153/1/133 161/1/132
f 179/1/163 180/1/162 175/1/193 176/1/192
f 470/1/209 477/1/210 462/1/211 463/1/212
f 88/1/95 89/1/213 85/1/92 84/1/91
f 131/1/196 140/1/108 139/1/214
f 204/1/215 203/1/200 180/1/162 185/1/160
f 119/1/172 142/1/216 127/1/103
f 119/1/172 135/1/207 142/1/216
f 281/1/217 300/1/218 299/1/219 292/1/220
f 89/1/213 117/1/221 90/1/222 85/1/92
f 91/1/124 86/1/93 85/1/92 90/1/222
f 110/1/223 156/1/224 121/1/225 111/1/226
f 623/1/227 645/1/228 617/1/229 618/1/230
f 149/1/231 156/1/224 110/1/223 109/1/145
f 189/1/199 181/1/232 174/1/174 175/1/193
f 427/1/233 436/1/234 441/1/235 435/1/236
f 182/1/237 190/1/238 178/1/239 172/1/240
f 146/1/111 147/1/110 153/1/133
f 90/1/222 125/1/99 98/1/98 91/1/124
f 630/1/241 647/1/242 635/1/243 633/1/244
f 509/1/245 515/1/246 485/1/247 478/1/164
f 394/1/248 415/1/249 386/1/250 387/1/251
f 155/1/130 159/1/176 154/1/131
f 154/1/131 159/1/176 160/1/175
f 154/1/131 160/1/175 161/1/132
f 235/1/168 231/1/180 230/1/179 234/1/252
f 491/1/253 646/1/254 636/1/255 582/1/256
f 211/1/197 507/1/257 304/1/258 219/1/198
f 102/1/259 107/1/260 97/1/195 94/1/194
f 622/1/261 638/1/262 634/1/263 629/1/264
f 161/1/132 160/1/175 168/1/208
f 671/1/265 190/1/238 182/1/237 667/1/266
f 227/1/267 232/1/268 228/1/269 220/1/270
f 217/1/140 254/1/271 253/1/272 245/1/273
f 150/1/274 171/1/275 170/1/276
f 524/1/277 531/1/278 526/1/279 522/1/280
f 527/1/281 528/1/282 522/1/280 526/1/279
f 165/1/283 173/1/284 166/1/285
f 101/1/157 102/1/259 94/1/194 95/1/156
f 290/1/286 442/1/184 441/1/235 436/1/234
f 221/1/287 519/1/288 513/1/289 213/1/290
f 312/1/291 320/1/292 305/1/293 306/1/294
f 160/1/175 174/1/174 181/1/232
f 160/1/175 181/1/232 168/1/208
f 220/1/270 228/1/269 221/1/287 212/1/295
f 239/1/296 537/1/297 530/1/298 232/1/268
f 183/1/299 173/1/284 165/1/283
f 137/1/300 144/1/301 143/1/302 136/1/303
f 711/1/127 710/1/304 529/1/305 535/1/128
f 168/1/208 181/1/232 188/1/306
f 692/1/307 696/1/308 215/1/309 206/1/310
f 150/1/274 163/1/311 137/1/300 128/1/100
f 152/1/312 143/1/302 144/1/301 151/1/313
f 648/1/314 654/1/315 177/1/316 169/1/317
f 431/1/318 471/1/319 414/1/320 426/1/321
f 188/1/306 181/1/232 195/1/322
f 613/1/323 614/1/97 134/1/96 606/1/324
f 510/1/40 523/1/325 517/1/326 505/1/41
f 158/1/327 152/1/312 151/1/313 157/1/328
f 124/1/329 336/1/330 134/1/96 125/1/99
f 286/1/35 347/1/331 271/1/332 279/1/36
f 142/1/216 634/1/263 171/1/275 150/1/274
f 137/1/300 163/1/311 164/1/333 144/1/301
f 233/1/334 239/1/296 232/1/268 227/1/267
f 165/1/283 166/1/285 158/1/327 157/1/328
f 386/1/250 402/1/335 377/1/336 382/1/337
f 116/1/338 117/1/221 89/1/213 106/1/339
f 150/1/274 170/1/276 169/1/317 163/1/311
f 169/1/317 177/1/316 164/1/333 163/1/311
f 172/1/240 151/1/313 144/1/301 164/1/333
f 177/1/316 182/1/237 172/1/240 164/1/333
f 304/1/258 507/1/257 504/1/38 500/1/340
f 208/1/341 216/1/342 207/1/343
f 115/1/344 325/1/345 116/1/338 106/1/339
f 357/1/346 364/1/347 351/1/348 350/1/349
f 219/1/198 202/1/350 189/1/199
f 178/1/239 157/1/328 151/1/313 172/1/240
f 668/1/351 672/1/352 671/1/265 667/1/266
f 248/1/153 246/1/152 240/1/353 247/1/354
f 118/1/355 318/1/356 115/1/344 107/1/260
f 111/1/226 118/1/355 107/1/260 102/1/259
f 157/1/328 178/1/239 183/1/299 165/1/283
f 226/1/357 207/1/343 216/1/342
f 190/1/238 197/1/358 196/1/359 178/1/239
f 222/1/360 229/1/361 223/1/362
f 121/1/225 311/1/363 118/1/355 111/1/226
f 522/1/280 528/1/282 521/1/182 516/1/181
f 96/1/364 104/1/138 103/1/137 95/1/156
f 141/1/144 231/1/180 149/1/231 109/1/145
f 149/1/231 238/1/171 162/1/365 156/1/224
f 310/1/366 311/1/363 121/1/225 303/1/367
f 206/1/310 215/1/309 214/1/368 205/1/369
f 576/1/370 310/1/366 303/1/367 302/1/371
f 302/1/371 303/1/367 162/1/365 289/1/372
f 242/1/170 289/1/372 162/1/365 238/1/171
f 225/1/147 133/1/134 218/1/136 224/1/373
f 249/1/374 251/1/375 243/1/169 241/1/376
f 310/1/366 599/1/377 317/1/378 311/1/363
f 199/1/379 207/1/343 226/1/357 220/1/270
f 309/1/380 302/1/371 289/1/372 288/1/381
f 577/1/382 576/1/370 302/1/371 309/1/380
f 675/1/383 676/1/384 669/1/385 674/1/386
f 324/1/387 325/1/345 115/1/344 318/1/356
f 317/1/378 601/1/388 324/1/387 318/1/356
f 247/1/354 255/1/389 248/1/153
f 570/1/390 599/1/377 310/1/366 576/1/370
f 295/1/391 301/1/392 283/1/393 274/1/394
f 595/1/395 330/1/396 325/1/345 324/1/387
f 330/1/396 331/1/397 116/1/338 325/1/345
f 554/1/398 559/1/399 555/1/400 548/1/401
f 566/1/402 599/1/377 570/1/390 565/1/403
f 482/1/404 685/1/149 488/1/148 483/1/405
f 569/1/406 571/1/407 575/1/408 572/1/409
f 449/1/410 495/1/411 443/1/412 444/1/413
f 583/1/414 578/1/415 577/1/382 309/1/380
f 335/1/416 336/1/330 124/1/329 331/1/397
f 458/1/417 459/1/418 451/1/419 445/1/420
f 212/1/295 221/1/287 213/1/290 204/1/215
f 564/1/421 601/1/388 566/1/402 562/1/422
f 268/1/423 249/1/374 259/1/424 267/1/425
f 361/1/426 369/1/427 368/1/428 362/1/429
f 584/1/430 585/1/431 578/1/415 583/1/414
f 585/1/431 589/1/432 575/1/408 578/1/415
f 241/1/376 243/1/169 235/1/168 234/1/252
f 315/1/433 316/1/434 584/1/430 583/1/414
f 341/1/435 606/1/324 134/1/96 336/1/330
f 443/1/412 499/1/436 438/1/437 437/1/438
f 575/1/408 589/1/432 579/1/439 572/1/409
f 579/1/439 580/1/440 559/1/399 572/1/409
f 619/1/441 625/1/442 626/1/443 620/1/444
f 282/1/445 308/1/446 316/1/434 315/1/433
f 355/1/447 375/1/448 376/1/449 369/1/427
f 608/1/450 629/1/264 613/1/323 606/1/324
f 568/1/451 595/1/395 564/1/421 563/1/452
f 568/1/451 596/1/453 330/1/396 595/1/395
f 276/1/454 282/1/445 252/1/455 251/1/375
f 252/1/455 242/1/170 243/1/169 251/1/375
f 622/1/261 629/1/264 608/1/450 616/1/456
f 613/1/323 628/1/457 135/1/207 614/1/97
f 195/1/322 202/1/350 291/1/458
f 549/1/459 557/1/460 556/1/461 550/1/462
f 673/1/463 689/1/177 683/1/112 677/1/464
f 597/1/465 600/1/466 585/1/431 584/1/430
f 316/1/434 598/1/467 597/1/465 584/1/430
f 622/1/261 641/1/468 640/1/469 638/1/262
f 291/1/458 202/1/350 296/1/183
f 202/1/350 297/1/470 296/1/183
f 181/1/232 189/1/199 202/1/350 195/1/322
f 294/1/471 298/1/472 295/1/391
f 293/1/473 298/1/472 294/1/471
f 292/1/220 298/1/472 293/1/473
f 292/1/220 299/1/219 298/1/472
f 579/1/439 590/1/474 586/1/475 580/1/440
f 295/1/391 298/1/472 301/1/392
f 252/1/455 288/1/381 289/1/372 242/1/170
f 642/1/476 648/1/314 169/1/317 170/1/276
f 299/1/219 305/1/293 298/1/472
f 107/1/260 115/1/344 106/1/339 97/1/195
f 411/1/477 430/1/478 424/1/479 419/1/204
f 499/1/436 503/1/480 492/1/481 438/1/437
f 308/1/446 602/1/482 598/1/467 316/1/434
f 282/1/445 315/1/433 288/1/381 252/1/455
f 576/1/370 577/1/382 571/1/407 570/1/390
f 432/1/483 439/1/484 433/1/485 429/1/486
f 532/1/487 560/1/488 538/1/489 533/1/490
f 99/1/142 100/1/141 93/1/139 92/1/125
f 548/1/401 555/1/400 539/1/491 545/1/492
f 276/1/454 251/1/375 249/1/374 268/1/423
f 274/1/394 283/1/393 276/1/454 268/1/423
f 594/1/493 605/1/494 604/1/495 603/1/496
f 224/1/373 245/1/273 244/1/497 236/1/498
f 532/1/487 533/1/490 525/1/499 520/1/500
f 319/1/501 298/1/472 320/1/292
f 320/1/292 298/1/472 305/1/293
f 327/1/502 334/1/503 328/1/504 323/1/505
f 388/1/506 409/1/507 404/1/508 385/1/509
f 335/1/416 603/1/496 341/1/435 336/1/330
f 445/1/420 451/1/419 446/1/510 440/1/511
f 589/1/432 593/1/512 590/1/474 579/1/439
f 319/1/501 326/1/513 298/1/472
f 520/1/500 525/1/499 486/1/514 485/1/247
f 502/1/515 658/1/516 503/1/480 499/1/436
f 556/1/461 562/1/422 558/1/517 550/1/462
f 414/1/320 463/1/212 406/1/518 407/1/519
f 344/1/520 342/1/521 338/1/522 343/1/523
f 124/1/329 125/1/99 90/1/222 117/1/221
f 326/1/513 333/1/524 298/1/472
f 485/1/247 486/1/514 480/1/165 478/1/164
f 119/1/172 127/1/103 120/1/102 108/1/143
f 381/1/34 260/1/33 261/1/186 269/1/525
f 368/1/428 382/1/337 363/1/526 362/1/429
f 458/1/417 445/1/420 453/1/527 464/1/528
f 359/1/529 367/1/530 348/1/531 352/1/532
f 333/1/524 339/1/533 298/1/472
f 284/1/534 436/1/234 427/1/233 428/1/535
f 491/1/253 582/1/256 498/1/536 481/1/537
f 277/1/538 393/1/539 269/1/525 270/1/540
f 440/1/511 446/1/510 425/1/541 424/1/479
f 479/1/542 509/1/245 478/1/164 472/1/167
f 472/1/167 473/1/166 466/1/543 465/1/544
f 339/1/533 345/1/545 298/1/472
f 515/1/246 514/1/546 544/1/547 540/1/548
f 350/1/349 351/1/348 344/1/520 343/1/523
f 514/1/546 515/1/246 509/1/245 508/1/549
f 508/1/549 509/1/245 479/1/542 496/1/550
f 520/1/500 540/1/548 539/1/491 532/1/487
f 345/1/545 353/1/551 298/1/472
f 650/1/552 684/1/115 643/1/553 645/1/228
f 465/1/544 484/1/554 479/1/542 472/1/167
f 514/1/546 551/1/555 547/1/556 544/1/547
f 561/1/557 563/1/452 556/1/461 557/1/460
f 296/1/183 442/1/184 290/1/286 291/1/458
f 682/1/558 700/1/559 699/1/560 698/1/561
f 496/1/550 567/1/562 552/1/563 508/1/549
f 496/1/550 479/1/542 484/1/554 490/1/564
f 464/1/528 484/1/554 465/1/544 458/1/417
f 610/1/565 607/1/566 604/1/495 609/1/567
f 624/1/568 637/1/569 630/1/241 625/1/442
f 109/1/145 110/1/223 101/1/157 105/1/146
f 573/1/570 581/1/571 551/1/555 552/1/563
f 567/1/562 627/1/572 573/1/570 552/1/563
f 280/1/573 300/1/218 281/1/217 273/1/574
f 474/1/575 498/1/536 497/1/576 490/1/564
f 587/1/577 588/1/578 553/1/579 581/1/571
f 573/1/570 621/1/580 587/1/577 581/1/571
f 547/1/556 549/1/459 545/1/492 544/1/547
f 342/1/521 348/1/531 345/1/545 339/1/533
f 98/1/98 126/1/191 99/1/142 92/1/125
f 334/1/503 263/1/581 262/1/582 271/1/332
f 353/1/551 374/1/583 298/1/472
f 591/1/584 592/1/585 561/1/557 588/1/578
f 263/1/581 264/1/586 257/1/587 256/1/588
f 574/1/589 637/1/569 624/1/568 627/1/572
f 559/1/399 580/1/440 560/1/488 555/1/400
f 474/1/575 464/1/528 453/1/527 452/1/590
f 626/1/443 633/1/244 632/1/591 631/1/592
f 374/1/583 379/1/593 298/1/472
f 281/1/217 287/1/594 266/1/595 273/1/574
f 553/1/579 557/1/460 549/1/459 547/1/556
f 550/1/462 558/1/517 554/1/398 548/1/401
f 481/1/537 498/1/536 474/1/575 452/1/590
f 464/1/528 474/1/575 490/1/564 484/1/554
f 452/1/590 453/1/527 434/1/596 433/1/485
f 624/1/568 625/1/442 619/1/441 621/1/580
f 587/1/577 621/1/580 619/1/441 612/1/597
f 356/1/598 362/1/429 363/1/526 357/1/346
f 365/1/599 383/1/600 378/1/601 359/1/529
f 439/1/484 492/1/481 491/1/253 481/1/537
f 591/1/584 612/1/597 611/1/602 605/1/494
f 619/1/441 620/1/444 611/1/602 612/1/597
f 365/1/599 372/1/603 384/1/604 383/1/600
f 636/1/255 637/1/569 574/1/589 582/1/256
f 379/1/593 397/1/206 298/1/472
f 591/1/584 605/1/494 594/1/493 592/1/585
f 434/1/596 440/1/511 424/1/479 430/1/478
f 427/1/233 435/1/236 422/1/605 423/1/606
f 682/1/558 689/1/177 673/1/463 676/1/384
f 400/1/607 394/1/248 387/1/251 376/1/449
f 636/1/255 647/1/242 630/1/241 637/1/569
f 209/1/187 254/1/271 217/1/140 210/1/121
f 397/1/206 403/1/205 298/1/472
f 424/1/479 425/1/541 403/1/205 419/1/204
f 433/1/485 434/1/596 430/1/478 429/1/486
f 377/1/336 396/1/608 371/1/609 370/1/610
f 630/1/241 633/1/244 626/1/443 625/1/442
f 315/1/433 583/1/414 309/1/380 288/1/381
f 267/1/425 275/1/611 274/1/394 268/1/423
f 383/1/600 388/1/506 385/1/509 378/1/601
f 429/1/486 430/1/478 411/1/477 416/1/612
f 706/1/613 709/1/614 705/1/615 701/1/616
f 301/1/392 602/1/482 308/1/446 283/1/393
f 290/1/286 436/1/234 284/1/534 285/1/617
f 635/1/243 656/1/618 632/1/591 633/1/244
f 585/1/431 600/1/466 593/1/512 589/1/432
f 438/1/437 492/1/481 439/1/484 432/1/483
f 438/1/437 432/1/483 418/1/619 437/1/438
f 503/1/480 646/1/254 491/1/253 492/1/481
f 503/1/480 658/1/516 652/1/620 646/1/254
f 412/1/621 450/1/622 420/1/623 413/1/624
f 604/1/495 605/1/494 611/1/602 609/1/567
f 626/1/443 631/1/592 615/1/625 620/1/444
f 411/1/477 419/1/204 398/1/203 404/1/508
f 434/1/596 453/1/527 445/1/420 440/1/511
f 403/1/205 425/1/541 298/1/472
f 615/1/625 618/1/230 610/1/565 609/1/567
f 314/1/626 322/1/627 313/1/628 307/1/629
f 610/1/565 616/1/456 608/1/450 607/1/566
f 452/1/590 433/1/485 439/1/484 481/1/537
f 615/1/625 631/1/592 623/1/227 618/1/230
f 632/1/591 651/1/630 623/1/227 631/1/592
f 410/1/631 418/1/619 416/1/612 409/1/507
f 410/1/631 409/1/507 388/1/506 391/1/632
f 371/1/609 396/1/608 395/1/633 389/1/634
f 209/1/187 210/1/121 138/1/120 201/1/188
f 566/1/402 601/1/388 317/1/378 599/1/377
f 416/1/612 418/1/619 432/1/483 429/1/486
f 392/1/635 398/1/203 397/1/206 379/1/593
f 610/1/565 618/1/230 617/1/229 616/1/456
f 180/1/162 203/1/200 189/1/199 175/1/193
f 617/1/229 641/1/468 622/1/261 616/1/456
f 417/1/636 444/1/413 443/1/412 437/1/438
f 566/1/402 565/1/403 558/1/517 562/1/422
f 385/1/509 392/1/635 373/1/637 378/1/601
f 373/1/637 392/1/635 379/1/593 374/1/583
f 425/1/541 446/1/510 298/1/472
f 617/1/229 645/1/228 643/1/553 641/1/468
f 643/1/553 644/1/638 640/1/469 641/1/468
f 296/1/183 297/1/470 448/1/107
f 502/1/515 499/1/436 443/1/412 495/1/411
f 420/1/623 421/1/639 390/1/640 413/1/624
f 446/1/510 451/1/419 298/1/472
f 385/1/509 404/1/508 398/1/203 392/1/635
f 684/1/115 649/1/114 644/1/638 643/1/553
f 448/1/107 297/1/470 454/1/104
f 297/1/470 455/1/641 454/1/104
f 686/1/642 197/1/358 190/1/238 671/1/265
f 502/1/515 664/1/643 659/1/644 658/1/516
f 265/1/645 273/1/574 266/1/595 258/1/646
f 367/1/530 373/1/637 374/1/583 353/1/551
f 451/1/419 459/1/418 298/1/472
f 454/1/104 455/1/641 461/1/647
f 662/1/648 704/1/649 703/1/650 653/1/651
f 659/1/644 666/1/652 663/1/653 660/1/654
f 660/1/654 663/1/653 656/1/618 635/1/243
f 359/1/529 378/1/601 373/1/637 367/1/530
f 515/1/246 540/1/548 520/1/500 485/1/247
f 348/1/531 367/1/530 353/1/551 345/1/545
f 459/1/418 466/1/543 298/1/472
f 683/1/112 684/1/115 650/1/552 677/1/464
f 139/1/214 138/1/120 130/1/123 131/1/196
f 623/1/227 651/1/630 650/1/552 645/1/228
f 663/1/653 670/1/655 657/1/656 656/1/618
f 632/1/591 656/1/618 657/1/656 651/1/630
f 467/1/657 475/1/658 468/1/659 460/1/105
f 408/1/660 407/1/519 401/1/661 402/1/335
f 466/1/543 473/1/166 298/1/472
f 363/1/526 370/1/610 364/1/347 357/1/346
f 244/1/497 256/1/588 237/1/662 236/1/498
f 390/1/640 421/1/639 391/1/632 384/1/604
f 338/1/522 342/1/521 339/1/533 333/1/524
f 560/1/488 532/1/487 539/1/491 555/1/400
f 344/1/520 352/1/532 348/1/531 342/1/521
f 473/1/166 480/1/165 298/1/472
f 193/1/201 278/1/663 277/1/538 270/1/540
f 384/1/604 391/1/632 388/1/506 383/1/600
f 690/1/664 706/1/613 701/1/616 694/1/665
f 669/1/385 676/1/384 673/1/463 670/1/655
f 422/1/605 435/1/236 431/1/318 426/1/321
f 480/1/165 486/1/514 298/1/472
f 594/1/493 596/1/453 568/1/451 592/1/585
f 665/1/666 666/1/652 659/1/644 664/1/643
f 665/1/666 674/1/386 669/1/385 666/1/652
f 358/1/667 365/1/599 359/1/529 352/1/532
f 237/1/662 234/1/252 230/1/179 236/1/498
f 461/1/647 455/1/641 493/1/668
f 250/1/669 259/1/424 249/1/374 241/1/376
f 494/1/670 664/1/643 502/1/515 495/1/411
f 351/1/348 358/1/667 352/1/532 344/1/520
f 540/1/548 544/1/547 545/1/492 539/1/491
f 358/1/667 351/1/348 364/1/347 366/1/671
f 372/1/603 389/1/634 390/1/640 384/1/604
f 420/1/623 444/1/413 417/1/636 421/1/639
f 455/1/641 501/1/672 493/1/668
f 556/1/461 563/1/452 564/1/421 562/1/422
f 456/1/673 489/1/674 449/1/410 450/1/622
f 659/1/644 660/1/654 652/1/620 658/1/516
f 554/1/398 569/1/406 572/1/409 559/1/399
f 420/1/623 450/1/622 449/1/410 444/1/413
f 642/1/476 662/1/648 653/1/651 648/1/314
f 634/1/263 628/1/457 613/1/323 629/1/264
f 471/1/319 431/1/318 469/1/675 468/1/659
f 209/1/187 261/1/186 260/1/33 254/1/271
f 708/1/676 661/1/677 653/1/651 703/1/650
f 704/1/649 697/1/678 518/1/679 512/1/680
f 704/1/649 512/1/680 517/1/326 703/1/650
f 197/1/358 206/1/310 205/1/369 196/1/359
f 667/1/266 182/1/237 177/1/316 654/1/315
f 574/1/589 627/1/572 567/1/562 497/1/576
f 337/1/681 343/1/523 338/1/522 332/1/682
f 708/1/676 710/1/304 668/1/351 661/1/677
f 517/1/326 523/1/325 708/1/676 703/1/650
f 212/1/295 204/1/215 185/1/160 192/1/159
f 321/1/683 340/1/684 337/1/681 332/1/682
f 295/1/391 274/1/394 275/1/611 294/1/471
f 710/1/304 711/1/127 672/1/352 668/1/351
f 697/1/678 704/1/649 662/1/648 655/1/685
f 414/1/320 471/1/319 470/1/209 463/1/212
f 486/1/514 525/1/499 298/1/472
f 712/1/686 680/1/687 672/1/352 711/1/127
f 521/1/182 529/1/305 510/1/40
f 510/1/40 529/1/305 523/1/325
f 324/1/387 601/1/388 564/1/421 595/1/395
f 653/1/651 661/1/677 654/1/315 648/1/314
f 686/1/642 692/1/307 206/1/310 197/1/358
f 672/1/352 680/1/687 679/1/688 671/1/265
f 128/1/100 137/1/300 136/1/303 129/1/101
f 525/1/499 533/1/490 298/1/472
f 531/1/278 534/1/689 526/1/279
f 526/1/279 534/1/689 527/1/281
f 639/1/690 642/1/476 170/1/276 171/1/275
f 332/1/682 338/1/522 333/1/524 326/1/513
f 533/1/490 538/1/489 298/1/472
f 313/1/628 340/1/684 321/1/683 312/1/291
f 536/1/691 542/1/692 541/1/129
f 110/1/223 111/1/226 102/1/259 101/1/157
f 193/1/201 270/1/540 200/1/185 194/1/190
f 322/1/627 346/1/693 340/1/684 313/1/628
f 696/1/308 702/1/694 222/1/360 215/1/309
f 546/1/154 248/1/153 255/1/389
f 235/1/168 238/1/171 149/1/231 231/1/180
f 322/1/627 329/1/695 354/1/696 346/1/693
f 580/1/440 586/1/475 538/1/489 560/1/488
f 323/1/505 329/1/695 322/1/627 314/1/626
f 349/1/697 356/1/598 357/1/346 350/1/349
f 497/1/576 567/1/562 496/1/550 490/1/564
f 329/1/695 360/1/698 361/1/426 354/1/696
f 361/1/426 362/1/429 356/1/598 354/1/696
f 272/1/699 327/1/502 323/1/505 314/1/626
f 272/1/699 314/1/626 307/1/629 280/1/573
f 328/1/504 360/1/698 329/1/695 323/1/505
f 349/1/697 350/1/349 343/1/523 337/1/681
f 280/1/573 307/1/629 306/1/294 300/1/218
f 313/1/628 312/1/291 306/1/294 307/1/629
f 355/1/447 369/1/427 361/1/426 360/1/698
f 512/1/680 518/1/679 501/1/672 506/1/700
f 271/1/332 347/1/331 328/1/504 334/1/503
f 264/1/586 327/1/502 272/1/699 265/1/645
f 263/1/581 334/1/503 327/1/502 264/1/586
f 321/1/683 332/1/682 326/1/513 319/1/501
f 150/1/274 128/1/100 127/1/103 142/1/216
f 286/1/35 375/1/448 355/1/447 347/1/331
f 494/1/670 495/1/411 449/1/410 489/1/674
f 264/1/586 265/1/645 258/1/646 257/1/587
f 272/1/699 280/1/573 273/1/574 265/1/645
f 550/1/462 548/1/401 545/1/492 549/1/459
f 552/1/563 551/1/555 514/1/546 508/1/549
f 371/1/609 389/1/634 372/1/603 366/1/671
f 364/1/347 370/1/610 371/1/609 366/1/671
f 594/1/493 603/1/496 335/1/416 596/1/453
f 258/1/646 259/1/424 250/1/669 257/1/587
f 200/1/185 270/1/540 269/1/525 261/1/186
f 488/1/148 489/1/674 456/1/673 483/1/405
f 267/1/425 259/1/424 258/1/646 266/1/595
f 366/1/671 372/1/603 365/1/599 358/1/667
f 604/1/495 607/1/566 341/1/435 603/1/496
f 300/1/218 306/1/294 305/1/293 299/1/219
f 494/1/670 678/1/151 665/1/666 664/1/643
f 409/1/507 416/1/612 411/1/477 404/1/508
f 462/1/211 483/1/405 456/1/673 457/1/701
f 573/1/570 627/1/572 624/1/568 621/1/580
f 538/1/489 586/1/475 298/1/472
f 551/1/555 581/1/571 553/1/579 547/1/556
f 116/1/338 331/1/397 124/1/329 117/1/221
f 417/1/636 437/1/438 418/1/619 410/1/631
f 586/1/475 590/1/474 298/1/472
f 292/1/220 293/1/473 287/1/594 281/1/217
f 376/1/449 387/1/251 368/1/428 369/1/427
f 253/1/272 262/1/582 244/1/497 245/1/273
f 293/1/473 294/1/471 275/1/611 287/1/594
f 590/1/474 593/1/512 298/1/472
f 380/1/702 400/1/607 376/1/449 375/1/448
f 286/1/35 381/1/34 380/1/702 375/1/448
f 253/1/272 279/1/36 271/1/332 262/1/582
f 145/1/189 201/1/188 138/1/120 139/1/214
f 269/1/525 393/1/539 380/1/702 381/1/34
f 312/1/291 321/1/683 319/1/501 320/1/292
f 652/1/620 660/1/654 635/1/243 647/1/242
f 421/1/639 417/1/636 410/1/631 391/1/632
f 597/1/465 598/1/467 298/1/472
f 244/1/497 262/1/582 263/1/581 256/1/588
f 593/1/512 600/1/466 298/1/472
f 597/1/465 298/1/472 600/1/466
f 598/1/467 602/1/482 298/1/472
f 298/1/472 602/1/482 301/1/392
f 277/1/538 428/1/535 399/1/703 393/1/539
f 399/1/703 400/1/607 380/1/702 393/1/539
f 428/1/535 277/1/538 278/1/663 284/1/534
f 399/1/703 428/1/535 427/1/233 423/1/606
f 657/1/656 677/1/464 650/1/552 651/1/630
f 669/1/385 670/1/655 663/1/653 666/1/652
f 399/1/703 423/1/606 394/1/248 400/1/607
f 187/1/704 278/1/663 193/1/201 186/1/202
f 130/1/123 132/1/122 123/1/117 122/1/116
f 168/1/208 188/1/306 187/1/704 186/1/202
f 346/1/693 349/1/697 337/1/681 340/1/684
f 394/1/248 423/1/606 422/1/605 415/1/249
f 204/1/215 213/1/290 211/1/197 203/1/200
f 476/1/705 691/1/706 482/1/404 477/1/210
f 97/1/195 106/1/339 89/1/213 88/1/95
f 447/1/106 469/1/675 441/1/235 442/1/184
f 187/1/704 285/1/617 284/1/534 278/1/663
f 469/1/675 431/1/318 435/1/236 441/1/235
f 224/1/373 236/1/498 230/1/179 225/1/147
f 363/1/526 382/1/337 377/1/336 370/1/610
f 587/1/577 612/1/597 591/1/584 588/1/578
f 266/1/595 287/1/594 275/1/611 267/1/425
f 386/1/250 415/1/249 408/1/660 402/1/335
f 401/1/661 405/1/707 395/1/633 396/1/608
f 135/1/207 628/1/457 142/1/216
f 505/1/41 517/1/326 512/1/680 506/1/700
f 377/1/336 402/1/335 401/1/661 396/1/608
f 614/1/97 135/1/207 126/1/191 98/1/98
f 408/1/660 426/1/321 414/1/320 407/1/519
f 628/1/457 634/1/263 142/1/216
f 195/1/322 291/1/458 290/1/286 285/1/617
f 195/1/322 285/1/617 187/1/704 188/1/306
f 401/1/661 407/1/519 406/1/518 405/1/707
f 162/1/365 303/1/367 121/1/225 156/1/224
f 422/1/605 426/1/321 408/1/660 415/1/249
f 395/1/633 413/1/624 390/1/640 389/1/634
f 498/1/536 582/1/256 574/1/589 497/1/576
f 634/1/263 638/1/262 171/1/275
f 219/1/198 304/1/258 297/1/470 202/1/350
f 12/1/15 13/1/17 2/1/2 8/1/7
f 171/1/275 638/1/262 640/1/469
f 171/1/275 640/1/469 639/1/690
f 113/1/118 114/1/135 105/1/146 103/1/137
f 192/1/159 199/1/379 220/1/270 212/1/295
f 146/1/111 145/1/189 139/1/214 140/1/108
f 640/1/469 644/1/638 639/1/690
f 213/1/290 513/1/289 507/1/257 211/1/197
f 644/1/638 649/1/114 639/1/690
f 355/1/447 360/1/698 328/1/504 347/1/331
f 465/1/544 466/1/543 459/1/418 458/1/417
f 468/1/659 469/1/675 447/1/106 460/1/105
f 412/1/621 413/1/624 395/1/633 405/1/707
f 493/1/668 707/1/708 695/1/709 487/1/710
f 406/1/518 457/1/701 412/1/621 405/1/707
f 655/1/685 662/1/648 642/1/476 639/1/690
f 513/1/289 511/1/39 504/1/38 507/1/257
f 260/1/33 279/1/36 253/1/272 254/1/271
f 639/1/690 649/1/114 655/1/685
f 304/1/258 500/1/340 455/1/641 297/1/470
f 608/1/450 606/1/324 341/1/435 607/1/566
f 468/1/659 475/1/658 470/1/209 471/1/319
f 695/1/709 706/1/613 690/1/664 691/1/706
f 412/1/621 457/1/701 456/1/673 450/1/622
f 368/1/428 387/1/251 386/1/250 382/1/337
f 673/1/463 677/1/464 657/1/656 670/1/655
f 217/1/140 245/1/273 224/1/373 218/1/136
f 488/1/148 678/1/151 494/1/670 489/1/674
f 565/1/403 569/1/406 554/1/398 558/1/517
f 513/1/289 519/1/288 516/1/181 511/1/39
f 690/1/664 694/1/665 681/1/150 685/1/149
f 482/1/404 483/1/405 462/1/211 477/1/210
f 221/1/287 228/1/269 524/1/277 519/1/288
f 524/1/277 522/1/280 516/1/181 519/1/288
f 476/1/705 477/1/210 470/1/209 475/1/658
f 611/1/602 620/1/444 615/1/625 609/1/567
f 482/1/404 691/1/706 690/1/664 685/1/149
f 87/1/94 96/1/364 95/1/156 94/1/194
f 283/1/393 308/1/446 282/1/445 276/1/454
f 674/1/386 665/1/666 678/1/151 681/1/150
f 237/1/662 250/1/669 241/1/376 234/1/252
f 476/1/705 487/1/710 695/1/709 691/1/706
f 578/1/415 575/1/408 571/1/407 577/1/382
f 467/1/657 487/1/710 476/1/705 475/1/658
f 553/1/579 588/1/578 561/1/557 557/1/460
f 228/1/269 232/1/268 530/1/298 524/1/277
f 153/1/133 194/1/190 145/1/189 146/1/111
f 679/1/688 680/1/687 687/1/711
f 461/1/647 467/1/657 460/1/105 454/1/104
f 688/1/113 655/1/685 649/1/114
f 461/1/647 493/1/668 487/1/710 467/1/657
f 565/1/403 570/1/390 571/1/407 569/1/406
f 681/1/150 694/1/665 675/1/383 674/1/386
f 688/1/113 693/1/178 655/1/685
f 652/1/620 647/1/242 636/1/255 646/1/254
f 675/1/383 700/1/559 682/1/558 676/1/384
f 406/1/518 463/1/212 462/1/211 457/1/701
f 682/1/558 698/1/561 693/1/178 689/1/177
f 239/1/296 246/1/152 543/1/155 537/1/297
f 561/1/557 592/1/585 568/1/451 563/1/452
f 500/1/340 506/1/700 501/1/672 455/1/641
f 655/1/685 693/1/178 697/1/678
f 693/1/178 698/1/561 697/1/678
f 698/1/561 699/1/560 697/1/678
f 699/1/560 518/1/679 697/1/678
f 695/1/709 707/1/708 709/1/614 706/1/613
f 701/1/616 700/1/559 675/1/383 694/1/665
f 317/1/378 318/1/356 118/1/355 311/1/363
f 702/1/694 229/1/361 222/1/360
f 222/1/360 223/1/362 214/1/368 215/1/309
f 505/1/41 506/1/700 500/1/340 504/1/38
f 596/1/453 335/1/416 331/1/397 330/1/396
f 257/1/587 250/1/669 237/1/662 256/1/588
f 699/1/560 705/1/615 518/1/679
f 700/1/559 701/1/616 705/1/615 699/1/560
f 493/1/668 501/1/672 707/1/708
f 708/1/676 523/1/325 529/1/305
f 661/1/677 668/1/351 667/1/266 654/1/315
f 198/1/712 208/1/341 207/1/343 199/1/379
f 240/1/353 246/1/152 239/1/296 233/1/334
f 501/1/672 709/1/614 707/1/708
f 354/1/696 356/1/598 349/1/697 346/1/693
f 518/1/679 709/1/614 501/1/672
f 705/1/615 709/1/614 518/1/679
f 708/1/676 529/1/305 710/1/304
f 36/1/50 44/1/49 43/1/57 42/1/48
f 528/1/282 535/1/128 529/1/305 521/1/182
f 10/1/9 11/1/13 7/1/8 9/1/8
f 712/1/686 687/1/711 680/1/687
f 536/1/691 541/1/129 535/1/128 528/1/282
f 713/1/126 541/1/129 542/1/692
f 198/1/712 199/1/379 192/1/159 191/1/158
