# Blender 4.3.2
# www.blender.org
o hair.060
v 7.403969 1.443480 -0.008254
v 7.402887 1.446682 -0.010390
v 7.407829 1.439788 -0.011271
v 7.400091 1.448440 -0.004380
v 7.399256 1.453331 -0.007395
v 7.398592 1.454273 0.000176
v 7.398094 1.454788 -0.003198
v 7.397456 1.460105 0.004733
v 7.397644 1.458667 -0.002783
v 7.398747 1.456860 -0.009023
v 7.401266 1.455516 -0.015093
v 7.401814 1.451260 -0.013014
v 7.396966 1.463198 -0.003162
v 7.400856 1.460216 -0.016341
v 7.398277 1.461493 -0.010022
v 7.404753 1.454634 -0.020672
v 7.405276 1.449835 -0.018262
v 7.406127 1.445457 -0.015383
v 7.398094 1.466325 -0.010609
v 7.400675 1.465160 -0.016954
v 7.404220 1.464521 -0.022585
v 7.404402 1.459419 -0.021951
v 7.408620 1.459154 -0.026688
v 7.408761 1.454218 -0.025447
v 7.409019 1.449066 -0.022717
v 7.410758 1.440146 -0.015555
v 7.409700 1.444607 -0.019294
v 7.400817 1.470146 -0.017129
v 7.413481 1.454075 -0.028930
v 7.413563 1.448580 -0.026100
v 7.411440 1.437452 -0.013207
v 7.414581 1.440271 -0.018780
v 7.413898 1.444114 -0.022456
v 7.419098 1.454014 -0.030628
v 7.419169 1.459235 -0.031807
v 7.413535 1.459174 -0.030119
v 7.419112 1.448267 -0.027717
v 7.415446 1.436136 -0.014444
v 7.419528 1.440237 -0.020503
v 7.419255 1.443773 -0.024054
v 7.425159 1.454004 -0.031030
v 7.413646 1.464555 -0.030574
v 7.408587 1.464405 -0.027242
v 7.425159 1.448230 -0.028144
v 7.419963 1.435356 -0.015236
v 7.425159 1.440170 -0.020949
v 7.425159 1.435029 -0.015394
v 7.425159 1.443753 -0.024536
v 7.408785 1.469633 -0.027240
v 7.404408 1.469662 -0.022781
v 7.431211 1.448367 -0.027800
v 7.430788 1.440141 -0.020399
v 7.430356 1.435356 -0.015236
v 7.431069 1.443830 -0.024109
v 7.405259 1.474863 -0.022211
v 7.409404 1.474797 -0.026413
v 7.414170 1.474949 -0.029278
v 7.413815 1.469846 -0.030339
v 7.431221 1.454014 -0.030628
v 7.436765 1.448659 -0.026169
v 7.434873 1.436136 -0.014444
v 7.435683 1.440036 -0.018535
v 7.436452 1.444305 -0.022635
v 7.410633 1.479848 -0.024493
v 7.419360 1.470084 -0.031911
v 7.419264 1.464717 -0.032227
v 7.425159 1.459276 -0.032215
v 7.431149 1.459235 -0.031807
v 7.436838 1.454075 -0.028930
v 7.438879 1.437452 -0.013207
v 7.439456 1.439811 -0.015281
v 7.440649 1.445040 -0.019719
v 7.441334 1.449319 -0.022924
v 7.425159 1.464800 -0.032633
v 7.431054 1.464717 -0.032227
v 7.436673 1.464555 -0.030574
v 7.436784 1.459174 -0.030119
v 7.441699 1.459154 -0.026688
v 7.441558 1.454218 -0.025447
v 7.442490 1.439788 -0.011271
v 7.444226 1.445928 -0.015884
v 7.425159 1.470209 -0.032315
v 7.430959 1.470084 -0.031911
v 7.445566 1.454634 -0.020672
v 7.446350 1.443480 -0.008254
v 7.447594 1.447161 -0.010710
v 7.448570 1.451768 -0.013262
v 7.445074 1.450422 -0.018764
v 7.419520 1.475184 -0.030767
v 7.425159 1.475322 -0.031167
v 7.450228 1.448440 -0.004380
v 7.449053 1.455516 -0.015093
v 7.451026 1.453343 -0.007489
v 7.419807 1.479861 -0.028700
v 7.430799 1.475184 -0.030767
v 7.430511 1.479861 -0.028700
v 7.425159 1.479956 -0.029093
v 7.414837 1.479763 -0.027255
v 7.451727 1.454273 0.000176
v 7.451572 1.456860 -0.009023
v 7.449463 1.460216 -0.016341
v 7.451958 1.454859 -0.003191
v 7.436149 1.474949 -0.029278
v 7.425159 1.483841 -0.026633
v 7.436503 1.469846 -0.030339
v 7.415615 1.483893 -0.024805
v 7.452863 1.460105 0.004733
v 7.445916 1.459419 -0.021951
v 7.452674 1.458668 -0.002783
v 7.441534 1.469634 -0.027240
v 7.441732 1.464405 -0.027242
v 7.420148 1.483818 -0.026226
v 7.446099 1.464521 -0.022585
v 7.453352 1.463198 -0.003162
v 7.445911 1.469662 -0.022781
v 7.440914 1.474797 -0.026413
v 7.445060 1.474864 -0.022206
v 7.420465 1.486758 -0.023857
v 7.452042 1.461493 -0.010022
v 7.449501 1.470147 -0.017128
v 7.435482 1.479763 -0.027255
v 7.439686 1.479848 -0.024492
v 7.430171 1.483818 -0.026226
v 7.429853 1.486758 -0.023857
v 7.425159 1.486710 -0.024328
v 7.452225 1.466325 -0.010610
v 7.434704 1.483893 -0.024805
v 7.438275 1.484210 -0.022173
v 7.441172 1.484722 -0.018530
v 7.443254 1.480143 -0.020528
v 7.425159 1.489118 -0.021719
v 7.449644 1.465160 -0.016954
v 7.437108 1.487312 -0.020149
v 7.434015 1.486945 -0.022460
v 7.446319 1.480677 -0.015480
v 7.448553 1.475285 -0.016694
v 7.433130 1.489432 -0.019898
v 7.435804 1.489748 -0.017999
v 7.437796 1.490162 -0.015409
v 7.439493 1.487829 -0.016993
v 7.429407 1.489208 -0.021210
v 7.451040 1.476128 -0.010551
v 7.452081 1.471144 -0.010776
v 7.453700 1.468022 -0.003813
v 7.453427 1.472712 -0.004217
v 7.433986 1.492106 -0.015306
v 7.441532 1.488462 -0.013062
v 7.443684 1.485381 -0.014073
v 7.428679 1.491692 -0.017900
v 7.454258 1.469943 0.002944
v 7.453854 1.465271 0.003704
v 7.445549 1.486117 -0.009292
v 7.448535 1.481452 -0.009965
v 7.431765 1.491867 -0.016802
v 7.454006 1.467645 0.010035
v 7.454091 1.471779 0.009169
v 7.453339 1.475908 0.008286
v 7.453770 1.474437 0.002240
v 7.453606 1.464363 0.011657
v 7.452606 1.462988 0.014733
v 7.451652 1.460105 0.009488
v 7.449555 1.482472 -0.004604
v 7.452167 1.477463 -0.004453
v 7.430214 1.494046 -0.013599
v 7.453564 1.473410 0.014518
v 7.452273 1.478916 0.001520
v 7.453732 1.467422 0.017139
v 7.450440 1.460105 0.014243
v 7.431988 1.494209 -0.012458
v 7.433394 1.494427 -0.010914
v 7.435664 1.492418 -0.013271
v 7.449127 1.484482 0.006089
v 7.451701 1.480113 0.007291
v 7.449659 1.483546 0.000712
v 7.453807 1.470036 0.015514
v 7.430143 1.495875 -0.009844
v 7.437122 1.492809 -0.010561
v 7.439473 1.490684 -0.012029
v 7.450765 1.481168 0.012893
v 7.446701 1.487603 -0.000013
v 7.452560 1.477146 0.013757
v 7.446505 1.486859 -0.004674
v 7.453494 1.472176 0.019869
v 7.440742 1.491251 -0.008276
v 7.443063 1.489129 -0.008804
v 7.451860 1.478174 0.018493
v 7.453048 1.474715 0.018651
v 7.443925 1.489746 -0.004671
v 7.453399 1.470381 0.021861
v 7.453282 1.465937 0.019804
v 7.452790 1.469097 0.024378
v 7.452470 1.475997 0.021480
v 7.449782 1.482195 0.018364
v 7.451166 1.478592 0.022408
v 7.449611 1.481209 0.023401
v 7.452241 1.473572 0.025634
v 7.452021 1.464855 0.022224
v 7.451832 1.462319 0.018051
v 7.450644 1.478085 0.025498
v 7.452438 1.474665 0.023167
v 7.446905 1.486443 0.017274
v 7.448575 1.482953 0.024062
v 7.448776 1.481290 0.027219
v 7.447508 1.483030 0.027707
v 7.450795 1.461842 0.020087
v 7.449418 1.460630 0.018447
v 7.450219 1.477127 0.028217
v 7.445139 1.487449 0.022441
v 7.445868 1.484860 0.027644
v 7.446198 1.482993 0.030847
v 7.448184 1.480488 0.029960
v 7.444099 1.485554 0.030533
v 7.450442 1.463216 0.023247
v 7.448288 1.461510 0.022581
v 7.449225 1.475926 0.030834
v 7.441812 1.491104 0.020403
v 7.442636 1.488327 0.026400
v 7.440633 1.488913 0.029522
v 7.446904 1.479398 0.032559
v 7.449724 1.464989 0.027203
v 7.446928 1.462701 0.026613
v 7.451669 1.467502 0.026551
v 7.451642 1.472432 0.028285
v 7.438920 1.491827 0.024241
v 7.436821 1.492202 0.026767
v 7.439075 1.488908 0.031217
v 7.435277 1.492002 0.028231
v 7.445146 1.464352 0.030154
v 7.450303 1.470559 0.030366
v 7.448132 1.467452 0.030982
v 7.436384 1.493914 0.020645
v 7.435060 1.493331 0.025091
v 7.433083 1.493071 0.026168
v 7.444519 1.482508 0.033187
v 7.442187 1.485422 0.032923
v 7.445743 1.470447 0.033818
v 7.442772 1.466759 0.032779
v 7.448094 1.473935 0.033196
v 7.445368 1.477459 0.034913
v 7.433718 1.494041 0.023107
v 7.432311 1.492123 0.027929
v 7.430825 1.493977 0.023181
v 7.439609 1.484606 0.034603
v 7.440106 1.469794 0.034332
v 7.442875 1.473841 0.035506
v 7.439876 1.477514 0.035873
v 7.442456 1.481002 0.035392
v 7.434199 1.490793 0.029751
v 7.431579 1.495404 0.019101
v 7.430465 1.492036 0.027197
v 7.437076 1.488275 0.032565
v 7.437444 1.473327 0.034663
v 7.437036 1.481382 0.035091
v 7.434905 1.477141 0.034175
v 7.432813 1.488499 0.031066
v 7.431531 1.490344 0.028999
v 7.430465 1.488570 0.029889
v 7.434622 1.485366 0.033345
v 7.432606 1.481018 0.033271
v 7.430435 1.484913 0.032218
v 7.434586 1.495248 0.016608
v 7.430503 1.496565 0.014665
v 7.427873 1.496716 0.015637
v 7.428606 1.495448 0.019995
v 7.432984 1.496319 0.013074
v 7.427940 1.494256 0.023904
v 7.437187 1.494809 0.013943
v 7.429484 1.497351 0.011159
v 7.427359 1.497455 0.011926
v 7.425160 1.497491 0.012188
v 7.425164 1.496769 0.015966
v 7.425460 1.495668 0.020591
v 7.427898 1.493639 0.026139
v 7.429142 1.492929 0.027018
v 7.439278 1.493368 0.017331
v 7.426826 1.498071 0.008482
v 7.422449 1.496717 0.015633
v 7.424689 1.494437 0.025144
v 7.421159 1.494537 0.024305
v 7.421876 1.495771 0.019720
v 7.429041 1.491208 0.029637
v 7.443904 1.490162 0.015451
v 7.441458 1.492599 0.013123
v 7.424655 1.493813 0.027696
v 7.418686 1.495567 0.018529
v 7.427700 1.488838 0.032163
v 7.426389 1.490780 0.031700
v 7.428812 1.486761 0.032648
v 7.445339 1.489168 0.010055
v 7.448147 1.485406 0.011589
v 7.424595 1.493044 0.030167
v 7.425505 1.491984 0.030974
v 7.423609 1.488218 0.034910
v 7.422035 1.490057 0.034423
v 7.426301 1.483443 0.035549
v 7.427318 1.480897 0.035163
v 7.421115 1.491266 0.033324
v 7.420367 1.492028 0.032152
v 7.420235 1.492575 0.030517
v 7.418398 1.487043 0.037146
v 7.417073 1.488818 0.035598
v 7.423909 1.476891 0.037479
v 7.446292 1.488344 0.004899
v 7.416229 1.490392 0.033207
v 7.420264 1.493294 0.028279
v 7.412908 1.485923 0.036431
v 7.412170 1.487948 0.033772
v 7.418622 1.475509 0.039510
v 7.420005 1.472895 0.038469
v 7.422803 1.479546 0.038278
v 7.443866 1.491027 0.003935
v 7.442971 1.491765 0.008499
v 7.415401 1.492640 0.027374
v 7.407906 1.484837 0.033424
v 7.411867 1.489314 0.030727
v 7.415854 1.469203 0.038079
v 7.421424 1.482163 0.038360
v 7.425007 1.485844 0.035347
v 7.440722 1.493626 0.006959
v 7.439252 1.494251 0.010653
v 7.415759 1.491344 0.030707
v 7.409814 1.468182 0.037284
v 7.411699 1.466105 0.036255
v 7.414165 1.471628 0.039189
v 7.436974 1.495622 0.008402
v 7.435184 1.495998 0.010956
v 7.407907 1.463725 0.033155
v 7.412488 1.474279 0.039528
v 7.417084 1.478217 0.039769
v 7.419909 1.484738 0.038024
v 7.433216 1.496966 0.008255
v 7.431466 1.497181 0.009906
v 7.406065 1.465406 0.033879
v 7.403136 1.463231 0.029560
v 7.404877 1.462089 0.028987
v 7.415465 1.480952 0.039532
v 7.413981 1.483585 0.038507
v 7.429921 1.497888 0.006966
v 7.428434 1.498001 0.007906
v 7.408113 1.470604 0.037618
v 7.404356 1.467369 0.034303
v 7.402593 1.461059 0.024202
v 7.410831 1.477049 0.039372
v 7.409402 1.479832 0.038367
v 7.408463 1.482450 0.036206
v 7.427403 1.498443 0.004886
v 7.406531 1.473220 0.037497
v 7.401615 1.464758 0.029859
v 7.402946 1.469687 0.034196
v 7.400464 1.466673 0.029769
v 7.404448 1.478756 0.034530
v 7.405241 1.475975 0.036568
v 7.401855 1.472248 0.033411
v 7.400022 1.462811 0.024954
v 7.401255 1.461805 0.024985
v 7.399594 1.468881 0.029201
v 7.398454 1.465848 0.024477
v 7.399089 1.464266 0.025144
v 7.398947 1.471417 0.027999
v 7.401175 1.475021 0.031693
v 7.399051 1.462157 0.020126
v 7.399591 1.461499 0.020360
v 7.400405 1.461017 0.019874
v 7.401035 1.460528 0.019261
v 7.397769 1.467936 0.023724
v 7.397692 1.464603 0.019148
v 7.398376 1.463061 0.019815
v 7.400860 1.477816 0.029466
v 7.399879 1.460105 0.014243
v 7.397267 1.470340 0.022833
v 7.397045 1.466717 0.018764
v 7.397304 1.463793 0.014497
v 7.398067 1.462205 0.014750
v 7.404053 1.481429 0.031894
v 7.398161 1.461208 0.011149
v 7.398666 1.460106 0.009484
v 7.396735 1.468875 0.018283
v 7.397582 1.462077 0.010397
v 7.396741 1.465571 0.014589
v 7.397160 1.463465 0.011209
v 7.407902 1.486640 0.030255
v 7.404317 1.483624 0.028899
v 7.396409 1.467435 0.014162
v 7.396889 1.464224 0.010310
v 7.411380 1.490574 0.027993
v 7.407844 1.488397 0.027017
v 7.404356 1.485615 0.025059
v 7.401237 1.482057 0.023698
v 7.401291 1.480267 0.026920
v 7.398803 1.474057 0.026341
v 7.399010 1.476570 0.024581
v 7.396463 1.465277 0.003533
v 7.410799 1.491188 0.025493
v 7.404457 1.486885 0.019179
v 7.408079 1.489669 0.023246
v 7.398927 1.478239 0.022191
v 7.397416 1.474380 0.020270
v 7.397470 1.472720 0.021754
v 7.396060 1.469944 0.002903
v 7.396307 1.467671 0.009364
v 7.396618 1.468022 -0.003812
v 7.409723 1.491562 0.020221
v 7.398460 1.478181 0.018484
v 7.396386 1.469985 0.013943
v 7.396723 1.473400 0.014121
v 7.396227 1.471785 0.009000
v 7.396892 1.472711 -0.004216
v 7.398238 1.471144 -0.010776
v 7.396693 1.470702 0.017666
v 7.400800 1.482313 0.018836
v 7.396586 1.471840 0.016884
v 7.396981 1.475911 0.008285
v 7.399282 1.476124 -0.010578
v 7.401768 1.475282 -0.016712
v 7.397151 1.474639 0.017907
v 7.399622 1.481203 0.013014
v 7.396550 1.474438 0.002240
v 7.404009 1.480666 -0.015553
v 7.407068 1.480141 -0.020547
v 7.397760 1.477152 0.013754
v 7.398046 1.478916 0.001516
v 7.398154 1.477460 -0.004471
v 7.409151 1.484718 -0.018558
v 7.412044 1.484210 -0.022174
v 7.398621 1.480117 0.007293
v 7.400773 1.482462 -0.004676
v 7.400663 1.483544 0.000695
v 7.401194 1.484486 0.006094
v 7.401797 1.481436 -0.010074
v 7.413211 1.487312 -0.020149
v 7.416304 1.486945 -0.022460
v 7.402435 1.485521 0.012072
v 7.403621 1.487599 -0.000039
v 7.404029 1.488346 0.004905
v 7.405133 1.489182 0.010123
v 7.404789 1.486094 -0.009456
v 7.406648 1.485366 -0.014183
v 7.417189 1.489432 -0.019898
v 7.420912 1.489208 -0.021210
v 7.407019 1.490206 0.015687
v 7.406453 1.491027 0.003941
v 7.407416 1.491751 0.008460
v 7.409132 1.492543 0.012936
v 7.408797 1.488453 -0.013135
v 7.410829 1.487827 -0.017012
v 7.421640 1.491692 -0.017900
v 7.425159 1.491621 -0.018348
v 7.409612 1.493620 0.006955
v 7.411427 1.493287 0.017029
v 7.413220 1.494785 0.013873
v 7.411129 1.494234 0.010613
v 7.412524 1.490162 -0.015414
v 7.414515 1.489748 -0.017999
v 7.425159 1.493912 -0.014776
v 7.427837 1.493947 -0.014434
v 7.414127 1.493868 0.020400
v 7.413341 1.495619 0.008407
v 7.416333 1.492107 -0.015306
v 7.418554 1.491867 -0.016802
v 7.427050 1.495706 -0.011321
v 7.428769 1.495767 -0.010715
v 7.412452 1.492445 0.023696
v 7.420105 1.494046 -0.013599
v 7.422482 1.493947 -0.014434
v 7.427492 1.497029 -0.008008
v 7.428548 1.497071 -0.007497
v 7.429330 1.497193 -0.006526
v 7.431283 1.496023 -0.008671
v 7.423269 1.495706 -0.011321
v 7.425159 1.495687 -0.011558
v 7.426994 1.497876 -0.004905
v 7.432295 1.496204 -0.007155
v 7.434666 1.494697 -0.008867
v 7.417336 1.494284 0.022882
v 7.415771 1.495234 0.016546
v 7.425159 1.496974 -0.008561
v 7.426385 1.496957 -0.008557
v 7.435671 1.495002 -0.006492
v 7.438251 1.493245 -0.007479
v 7.417327 1.496317 0.013074
v 7.419810 1.496564 0.014660
v 7.415128 1.495995 0.010960
v 7.425804 1.497815 -0.005497
v 7.426448 1.497831 -0.005343
v 7.438941 1.493687 -0.004327
v 7.441507 1.491799 -0.004565
v 7.420833 1.497351 0.011158
v 7.422961 1.497455 0.011926
v 7.417101 1.496965 0.008256
v 7.425159 1.498555 -0.001658
v 7.425159 1.497799 -0.005651
v 7.427538 1.497921 -0.004468
v 7.441771 1.492365 -0.000807
v 7.444173 1.490362 -0.000484
v 7.423492 1.498071 0.008482
v 7.418851 1.497180 0.009906
v 7.424515 1.497815 -0.005497
v 7.423934 1.496957 -0.008557
v 7.427902 1.497988 -0.003815
v 7.430147 1.497285 -0.005550
v 7.420398 1.497888 0.006966
v 7.423871 1.497831 -0.005343
v 7.422827 1.497029 -0.008008
v 7.421550 1.495767 -0.010715
v 7.430587 1.497439 -0.004259
v 7.433086 1.496410 -0.005394
v 7.441535 1.492986 0.003087
v 7.423325 1.497876 -0.004905
v 7.420176 1.495875 -0.009844
v 7.421770 1.497071 -0.007497
v 7.418331 1.494209 -0.012459
v 7.433562 1.496635 -0.003484
v 7.436276 1.495327 -0.003964
v 7.438985 1.494674 0.002244
v 7.439188 1.494156 -0.001091
v 7.438269 1.495183 0.005476
v 7.420989 1.497193 -0.006526
v 7.414655 1.492418 -0.013271
v 7.416924 1.494427 -0.010914
v 7.436485 1.495680 -0.001319
v 7.436302 1.496069 0.001407
v 7.435699 1.496437 0.004012
v 7.434649 1.496727 0.006292
v 7.413198 1.492810 -0.010561
v 7.410849 1.490682 -0.012048
v 7.419036 1.496023 -0.008671
v 7.433571 1.497144 0.000575
v 7.433723 1.496880 -0.001477
v 7.432305 1.497585 0.004248
v 7.433101 1.497391 0.002531
v 7.431231 1.497744 0.005726
v 7.409581 1.491247 -0.008303
v 7.407269 1.489114 -0.008914
v 7.418024 1.496204 -0.007155
v 7.431026 1.497733 -0.001576
v 7.431036 1.497564 -0.002973
v 7.430583 1.498038 0.001131
v 7.406403 1.489736 -0.004744
v 7.403828 1.486844 -0.004783
v 7.415652 1.494697 -0.008867
v 7.428265 1.498055 -0.003163
v 7.428391 1.498135 -0.002394
v 7.431035 1.497877 -0.000164
v 7.412069 1.493245 -0.007479
v 7.414648 1.495002 -0.006492
v 7.428518 1.498215 -0.001627
v 7.428389 1.498295 -0.000858
v 7.406147 1.490359 -0.000501
v 7.411378 1.493687 -0.004327
v 7.428259 1.498375 -0.000090
v 7.430141 1.498161 0.002413
v 7.427895 1.498443 0.000562
v 7.408548 1.492365 -0.000811
v 7.408814 1.491797 -0.004583
v 7.408783 1.492985 0.003091
v 7.429308 1.498278 0.003376
v 7.427531 1.498511 0.001213
v 7.411131 1.494156 -0.001090
v 7.411333 1.494674 0.002246
v 7.412048 1.495181 0.005480
v 7.428485 1.498369 0.004362
v 7.426987 1.498556 0.001648
v 7.413834 1.495680 -0.001319
v 7.414043 1.495327 -0.003964
v 7.414619 1.496437 0.004013
v 7.414017 1.496069 0.001407
v 7.415669 1.496727 0.006294
v 7.426444 1.498602 0.002083
v 7.416757 1.496635 -0.003484
v 7.417232 1.496410 -0.005394
v 7.416747 1.497144 0.000575
v 7.418014 1.497585 0.004248
v 7.419088 1.497744 0.005726
v 7.426327 1.498487 0.005427
v 7.425802 1.498618 0.002236
v 7.419732 1.497439 -0.004259
v 7.420171 1.497285 -0.005550
v 7.421011 1.498278 0.003376
v 7.421885 1.498001 0.007906
v 7.422916 1.498443 0.004886
v 7.421834 1.498369 0.004362
v 7.425159 1.498501 0.005418
v 7.425159 1.498095 0.008679
v 7.425159 1.498634 0.002388
v 7.422417 1.497988 -0.003815
v 7.422780 1.497921 -0.004468
v 7.423332 1.498556 0.001648
v 7.424517 1.498618 0.002236
v 7.423992 1.498487 0.005427
v 7.422054 1.498055 -0.003163
v 7.423875 1.498602 0.002083
v 7.422788 1.498511 0.001213
v 7.420178 1.498161 0.002413
v 7.422424 1.498443 0.000562
v 7.421927 1.498135 -0.002394
v 7.419283 1.497564 -0.002973
v 7.421801 1.498215 -0.001627
v 7.421930 1.498295 -0.000858
v 7.422060 1.498375 -0.000090
v 7.419735 1.498038 0.001131
v 7.417218 1.497391 0.002531
v 7.419292 1.497733 -0.001576
v 7.416595 1.496880 -0.001477
v 7.419284 1.497877 -0.000164
v 7.398666 1.460106 0.009484
v 7.397456 1.460105 0.004733
v 7.400192 1.460692 0.007697
v 7.399879 1.460105 0.014243
v 7.403242 1.461868 0.004115
v 7.401269 1.461683 0.008401
v 7.412519 1.479742 0.011053
v 7.401035 1.460528 0.019261
v 7.402593 1.461059 0.024202
v 7.404877 1.462089 0.028987
v 7.407907 1.463725 0.033155
v 7.411699 1.466105 0.036255
v 7.430426 1.492397 0.011053
v 7.427318 1.480897 0.035163
v 7.423909 1.476891 0.037479
v 7.420005 1.472895 0.038469
v 7.415854 1.469203 0.038079
v 7.430435 1.484913 0.032218
v 7.447176 1.462083 0.004133
v 7.448978 1.461866 0.008479
v 7.437800 1.479742 0.011053
v 7.452863 1.460105 0.004733
v 7.450160 1.460764 0.007703
v 7.450440 1.460105 0.014243
v 7.451652 1.460105 0.009488
v 7.449418 1.460630 0.018447
v 7.448288 1.461510 0.022581
v 7.446928 1.462701 0.026613
v 7.445146 1.464352 0.030154
v 7.442772 1.466759 0.032779
v 7.440106 1.469794 0.034332
v 7.437444 1.473327 0.034663
v 7.434905 1.477141 0.034175
v 7.432606 1.481018 0.033271
v 7.421692 1.442008 -0.010371
v 7.425172 1.441766 -0.010514
v 7.418212 1.442250 -0.010228
v 7.414821 1.443732 -0.009245
v 7.428651 1.442021 -0.010370
v 7.411430 1.445214 -0.008263
v 7.432131 1.442277 -0.010226
v 7.409387 1.447163 -0.006759
v 7.435520 1.443776 -0.009248
v 7.406610 1.451570 -0.003687
v 7.438910 1.445276 -0.008270
v 7.405292 1.455490 -0.000571
v 7.440969 1.447248 -0.006758
v 7.403242 1.461868 0.004115
v 7.443752 1.451694 -0.003695
v 7.445102 1.455652 -0.000557
v 7.447176 1.462083 0.004133
vn -0.9967 -0.0760 0.0272
vn -0.9954 0.0899 0.0324
vn -0.9994 0.0184 -0.0284
vn -0.9924 -0.1228 -0.0022
vn -0.5198 -0.7721 0.3655
vn -0.6243 -0.6517 0.4308
vn -0.8328 -0.4387 -0.3376
vn -0.6075 0.6166 0.5007
vn -0.6204 0.6836 0.3843
vn -0.7373 0.5853 0.3375
vn -0.7445 0.4925 0.4507
vn -0.5319 -0.6020 0.5955
vn -0.9392 -0.2703 -0.2117
vn -0.9252 -0.3776 -0.0374
vn -0.8453 -0.4146 0.3372
vn -0.9869 -0.1436 -0.0732
vn -0.4084 0.8993 0.1565
vn -0.5035 0.8567 0.1124
vn -0.5981 0.7907 0.1304
vn -0.4918 0.8545 0.1674
vn -0.9161 0.3968 -0.0582
vn -0.8449 0.5302 -0.0704
vn -0.8424 0.5046 -0.1890
vn -0.9193 0.3506 -0.1789
vn -0.8604 -0.3478 -0.3724
vn 0.1855 0.9482 -0.2580
vn 0.2217 0.9483 -0.2270
vn 0.3116 0.9088 -0.2776
vn 0.2702 0.9063 -0.3249
vn -0.1645 0.4696 -0.8674
vn -0.0000 0.4720 -0.8816
vn -0.0000 0.3158 -0.9488
vn -0.1721 0.3134 -0.9339
vn 0.7774 0.6211 0.0992
vn 0.6960 0.7101 0.1066
vn 0.5958 0.7790 0.1955
vn 0.7068 0.6810 0.1916
vn 0.2663 0.9628 0.0450
vn 0.2250 0.9707 0.0840
vn 0.2750 0.9547 0.1140
vn 0.3347 0.9396 0.0712
vn 0.9507 -0.1974 -0.2390
vn 0.9581 -0.1185 -0.2607
vn 0.9882 -0.1210 -0.0937
vn 0.9833 -0.1712 -0.0625
vn 0.8888 -0.1380 -0.4369
vn 0.8905 -0.0394 -0.4532
vn 0.9576 -0.0297 -0.2867
vn 0.9908 -0.0175 -0.1345
vn 0.7921 -0.0428 -0.6089
vn 0.7966 -0.1492 -0.5857
vn 0.1482 0.9754 0.1631
vn 0.0753 0.9815 0.1759
vn 0.0893 0.9721 0.2167
vn 0.1627 0.9669 0.1967
vn 0.4179 -0.0132 -0.9084
vn 0.4277 -0.1403 -0.8930
vn 0.1749 -0.1448 -0.9739
vn 0.1753 -0.0076 -0.9845
vn -0.9337 -0.3277 0.1442
vn -0.9026 -0.4142 0.1169
vn -0.9240 -0.2597 0.2807
vn -0.9550 -0.1459 0.2584
vn -0.8261 0.5277 0.1977
vn -0.8327 0.5458 0.0928
vn -0.9137 0.3970 0.0869
vn -0.9082 0.3759 0.1840
vn 0.6990 0.6683 0.2545
vn 0.6255 0.7373 0.2554
vn 0.5274 0.7664 0.3668
vn 0.6357 0.6601 0.4002
vn 0.8792 0.1028 -0.4652
vn 0.7782 0.1007 -0.6199
vn 0.9444 0.1149 -0.3080
vn 0.6580 -0.1430 -0.7393
vn 0.6585 -0.2870 -0.6957
vn 0.4261 -0.3127 -0.8489
vn 0.8636 -0.3386 -0.3737
vn 0.9410 -0.2681 -0.2063
vn 0.6233 -0.6498 0.4350
vn 0.8357 -0.4307 -0.3407
vn -0.6403 -0.4551 -0.6188
vn -0.6049 -0.5647 -0.5614
vn -0.7393 -0.4985 -0.4526
vn -0.7696 -0.4038 -0.4947
vn -0.4893 -0.8291 0.2704
vn -0.5643 -0.6200 -0.5451
vn -0.3827 -0.9072 0.1750
vn 0.3393 0.9185 0.2033
vn 0.4727 0.8667 0.1594
vn 0.3855 0.9123 0.1380
vn 0.2755 0.9441 0.1813
vn 0.3691 0.4543 0.8108
vn 0.1995 0.3500 0.9153
vn 0.3017 0.2194 0.9278
vn 0.4328 0.3590 0.8269
vn -0.8781 -0.2458 -0.4106
vn -0.9501 -0.1894 -0.2478
vn 0.1707 -0.3302 -0.9284
vn -0.7420 0.6650 0.0850
vn -0.6665 0.7423 0.0694
vn -0.6962 0.7177 -0.0141
vn -0.7718 0.6357 0.0117
vn 0.8423 0.5048 -0.1890
vn 0.8451 0.5301 -0.0699
vn 0.9162 0.3966 -0.0580
vn 0.9192 0.3508 -0.1791
vn 0.1349 -0.5291 0.8377
vn 0.1684 -0.5481 0.8192
vn -0.1574 -0.6654 -0.7297
vn -0.0001 -0.6695 -0.7428
vn 0.0001 -0.7218 -0.6921
vn -0.1520 -0.7172 -0.6801
vn -0.1753 -0.0076 -0.9845
vn -0.0000 -0.0074 -1.0000
vn -0.0000 -0.1469 -0.9891
vn -0.1749 -0.1448 -0.9739
vn -0.7601 0.4771 -0.4412
vn -0.6849 0.4717 -0.5554
vn -0.7396 0.3039 -0.6006
vn -0.8316 0.3088 -0.4615
vn -0.2213 -0.4446 0.8680
vn -0.3769 -0.5950 0.7099
vn -0.3064 -0.6683 0.6779
vn -0.1478 -0.5347 0.8320
vn -0.3894 0.3076 -0.8682
vn -0.3697 0.4657 -0.8040
vn 0.3894 0.3076 -0.8682
vn 0.4051 0.1289 -0.9052
vn 0.1748 0.1388 -0.9748
vn 0.1721 0.3134 -0.9339
vn 0.6241 0.1111 -0.7734
vn 0.6436 -0.0295 -0.7648
vn 0.5822 0.7647 -0.2761
vn 0.6020 0.7737 -0.1975
vn 0.6862 0.7005 -0.1961
vn 0.6669 0.6845 -0.2943
vn -0.1370 0.6818 -0.7186
vn -0.0000 0.6824 -0.7310
vn -0.0000 0.5816 -0.8135
vn -0.1534 0.5796 -0.8003
vn -0.7921 -0.0428 -0.6089
vn -0.7966 -0.1492 -0.5857
vn -0.8888 -0.1380 -0.4369
vn -0.8906 -0.0394 -0.4532
vn 0.1631 -0.5353 -0.8288
vn 0.1571 -0.6655 -0.7297
vn -0.0008 -0.5412 -0.8409
vn 0.5959 0.3026 -0.7439
vn 0.1534 0.5796 -0.8003
vn 0.1645 0.4696 -0.8674
vn 0.7399 0.3048 -0.5998
vn 0.8315 0.3104 -0.4608
vn 0.0003 -0.9966 0.0823
vn -0.1094 -0.9912 0.0741
vn -0.6317 0.7138 0.3024
vn -0.7353 0.6388 0.2263
vn 0.4498 0.8842 -0.1259
vn 0.5361 0.8344 -0.1280
vn 0.5330 0.8234 -0.1950
vn 0.4499 0.8736 -0.1855
vn -0.9882 -0.1210 -0.0939
vn -0.3565 0.9188 -0.1693
vn -0.2527 0.9561 -0.1482
vn -0.2357 0.9538 -0.1863
vn -0.3424 0.9124 -0.2243
vn 0.5620 0.4662 -0.6832
vn 0.3698 0.4657 -0.8040
vn -0.8921 0.3196 -0.3195
vn -0.8136 0.4857 -0.3196
vn 0.7799 0.6203 -0.0830
vn 0.7726 0.6348 0.0030
vn 0.8319 0.5547 0.0168
vn -0.0006 -0.3349 -0.9422
vn -0.1712 -0.3317 -0.9277
vn 0.3332 0.7438 0.5794
vn -0.0048 0.6001 0.7999
vn 0.1089 0.4219 0.9001
vn 0.4718 0.5927 0.6527
vn 0.7193 0.5290 0.4504
vn 0.8163 0.3952 0.4213
vn 0.8545 0.4510 0.2579
vn 0.7735 0.5761 0.2643
vn -0.7937 -0.3178 0.5187
vn -0.8463 -0.4129 0.3365
vn -0.6847 -0.6417 0.3455
vn -0.6351 -0.5375 0.5547
vn 0.0473 -0.5490 0.8345
vn 0.0951 -0.5369 0.8383
vn -0.0000 0.1407 -0.9900
vn 0.8125 0.5801 0.0581
vn 0.8749 0.4807 0.0588
vn 0.8967 0.4417 0.0267
vn -0.4179 -0.0132 -0.9084
vn -0.4277 -0.1403 -0.8930
vn -0.5615 0.4660 -0.6838
vn -0.5313 0.5615 -0.6344
vn -0.3461 0.5720 -0.7437
vn -0.6580 -0.1430 -0.7393
vn -0.6436 -0.0295 -0.7648
vn -0.2532 0.9532 0.1651
vn -0.2152 0.9662 0.1421
vn -0.2751 0.9546 0.1140
vn -0.3340 0.9327 0.1361
vn 0.3823 -0.9071 0.1764
vn 0.5617 -0.6216 -0.5460
vn 0.4893 -0.8286 0.2721
vn -0.3912 -0.6319 -0.6691
vn -0.3609 -0.6860 -0.6318
vn 0.2091 -0.1166 0.9709
vn 0.0867 0.0487 0.9950
vn -0.1384 -0.1160 0.9835
vn -0.0107 -0.2806 0.9598
vn -0.1747 0.1388 -0.9748
vn -0.4051 0.1289 -0.9052
vn -0.1033 0.9437 -0.3144
vn -0.1525 0.9430 -0.2958
vn -0.0838 0.9750 -0.2059
vn -0.0599 0.9729 -0.2231
vn -0.6592 -0.2918 -0.6930
vn -0.7911 -0.2738 -0.5470
vn 0.2469 0.9549 0.1648
vn 0.1574 0.9554 0.2498
vn 0.5607 -0.5842 0.5867
vn -0.2182 -0.5575 0.8010
vn -0.1782 -0.5432 0.8205
vn 0.6328 -0.5896 0.5019
vn 0.5391 -0.4642 0.7027
vn 0.4116 -0.5973 0.6884
vn 0.4916 -0.7139 0.4987
vn 0.5180 -0.7722 0.3678
vn 0.3921 0.9199 0.0054
vn 0.4091 0.9084 0.0862
vn 0.4788 0.8778 0.0182
vn -0.0000 0.9420 -0.3355
vn -0.0582 0.9392 -0.3384
vn -0.0306 0.9736 -0.2262
vn -0.0000 0.9722 -0.2341
vn -0.1640 -0.5379 -0.8269
vn -0.9581 -0.1185 -0.2607
vn 0.9486 -0.3129 -0.0467
vn 0.3903 -0.6313 -0.6701
vn 0.6039 -0.5626 -0.5646
vn 0.3601 -0.6869 -0.6313
vn -0.8793 0.1024 -0.4652
vn -0.7782 0.1004 -0.6200
vn 0.3461 0.5720 -0.7437
vn 0.5321 0.5615 -0.6337
vn 0.8419 -0.4233 0.3347
vn -0.6241 0.1110 -0.7734
vn -0.5957 0.3024 -0.7441
vn -0.8862 -0.1259 0.4459
vn 0.1370 0.6818 -0.7186
vn 0.3045 0.6735 -0.6735
vn 0.1526 -0.7174 -0.6797
vn 0.7923 -0.2679 -0.5481
vn 0.8790 -0.2435 -0.4100
vn -0.6859 0.7007 -0.1961
vn -0.6018 0.7739 -0.1972
vn -0.5811 0.7657 -0.2757
vn -0.6655 0.6858 -0.2945
vn 0.0812 0.8969 -0.4347
vn 0.1479 0.8995 -0.4111
vn 0.1734 0.8653 -0.4703
vn 0.0935 0.8605 -0.5008
vn -0.8294 0.5582 0.0242
vn -0.7799 0.6202 -0.0837
vn 0.0471 0.9644 0.2602
vn -0.0893 0.9685 0.2323
vn -0.1028 0.9609 0.2573
vn 0.0487 0.9630 0.2651
vn 0.9836 0.1725 0.0519
vn 0.9694 0.2355 0.0692
vn 0.9882 0.1183 0.0973
vn 0.9985 0.0254 0.0492
vn 0.7495 0.6596 0.0556
vn -0.4846 -0.0920 0.8699
vn -0.6674 -0.2188 0.7119
vn -0.5218 -0.4221 0.7413
vn -0.3502 -0.2756 0.8952
vn 0.0117 0.9767 0.2144
vn 0.1219 0.9516 0.2823
vn 0.8916 0.3208 -0.3195
vn 0.9755 0.1492 -0.1617
vn -0.0000 0.7695 -0.6387
vn 0.1164 0.7708 -0.6263
vn 0.6977 0.7091 -0.1024
vn 0.7727 0.6048 -0.1931
vn 0.6399 0.6641 -0.3867
vn 0.5509 0.7570 -0.3514
vn 0.3281 0.9355 0.1313
vn -0.4758 0.6575 -0.5843
vn -0.3045 0.6735 -0.6735
vn 0.7474 0.5872 -0.3107
vn 0.8131 0.4870 -0.3190
vn 0.7603 0.4788 -0.4390
vn 0.7071 0.5710 -0.4171
vn -0.2452 0.7698 -0.5894
vn -0.1164 0.7708 -0.6263
vn -0.3873 0.7620 -0.5191
vn -0.1840 0.6897 0.7003
vn 0.0177 0.5254 0.8507
vn 0.2131 0.6112 0.7622
vn 0.0607 0.7529 0.6554
vn 0.2040 -0.5631 0.8008
vn 0.2197 -0.5517 0.8046
vn -0.2944 0.9041 0.3098
vn -0.4793 0.8043 0.3511
vn -0.4820 0.7765 0.4058
vn -0.3237 0.8668 0.3794
vn -0.0354 0.2070 0.9777
vn -0.2178 0.4194 0.8813
vn -0.4392 0.2915 0.8498
vn -0.2678 0.0539 0.9620
vn -0.4926 0.7558 -0.4314
vn -0.4046 0.8260 -0.3925
vn -0.3092 0.8305 -0.4632
vn -0.1996 0.8294 -0.5217
vn 0.3345 0.8691 -0.3643
vn 0.4049 0.8258 -0.3925
vn 0.3093 0.8305 -0.4632
vn 0.2575 0.8694 -0.4218
vn 0.9994 0.0184 -0.0285
vn 0.9954 0.0889 0.0347
vn 0.9975 -0.0636 0.0292
vn 0.9929 -0.1186 -0.0079
vn -0.1017 0.8250 -0.5560
vn -0.0000 0.8227 -0.5685
vn -0.7726 0.6047 -0.1933
vn -0.7470 0.5872 -0.3116
vn -0.1544 0.9301 0.3332
vn -0.3008 0.8127 0.4990
vn -0.0943 0.8692 0.4854
vn -0.7192 0.3457 0.6027
vn -0.5565 0.4847 0.6748
vn -0.4756 -0.8112 0.3403
vn -0.4567 -0.7200 0.5226
vn 0.9705 -0.2302 0.0718
vn 0.8815 -0.4559 0.1230
vn 0.7679 -0.6099 0.1956
vn -0.6372 0.6658 -0.3883
vn -0.5491 0.7582 -0.3516
vn -0.7968 0.5987 0.0819
vn 0.6858 0.4726 -0.5534
vn -0.2574 0.8694 -0.4218
vn -0.1734 0.8653 -0.4703
vn -0.4626 0.7208 0.5163
vn 0.6953 0.7185 -0.0203
vn 0.6059 0.7943 -0.0449
vn 0.5682 0.8223 0.0298
vn 0.6642 0.7462 0.0445
vn -0.9593 0.2806 0.0329
vn -0.8947 0.4457 0.0301
vn -0.9768 0.2095 -0.0453
vn -0.7409 0.6603 0.1226
vn -0.0477 -0.5459 0.8365
vn -0.0269 -0.5720 0.8198
vn 0.2342 -0.9651 0.1175
vn 0.1792 0.9775 0.1112
vn 0.1336 0.9893 0.0580
vn 0.0895 0.9935 0.0701
vn 0.1253 0.9832 0.1325
vn 0.7395 -0.6535 0.1614
vn -0.3345 0.8691 -0.3643
vn 0.8497 0.5194 0.0907
vn -0.2702 0.9063 -0.3249
vn -0.2113 0.9038 -0.3721
vn -0.1479 0.8995 -0.4111
vn -0.4688 0.8200 -0.3283
vn -0.3911 0.8668 -0.3093
vn 0.2113 0.9038 -0.3721
vn -0.1855 0.9482 -0.2580
vn -0.1085 0.9752 -0.1928
vn 0.6471 0.5602 -0.5171
vn 0.2151 0.9662 0.1421
vn -0.5732 0.8183 0.0423
vn -0.6070 0.7936 -0.0421
vn 0.3694 0.8696 0.3277
vn 0.2102 0.9350 0.2857
vn -0.0300 0.9157 0.4008
vn 0.1486 0.8569 0.4936
vn 0.4301 0.8675 -0.2498
vn 0.5108 0.8181 -0.2642
vn 0.4691 0.8198 -0.3283
vn 0.3911 0.8668 -0.3093
vn -0.0000 0.9836 0.1801
vn -0.9931 -0.0352 0.1116
vn -0.9914 0.0272 0.1281
vn -0.9937 -0.0960 0.0580
vn -0.9615 -0.2369 0.1394
vn 0.9151 0.3961 0.0759
vn 0.9397 0.3095 0.1457
vn 0.4593 -0.0662 0.8858
vn 0.4093 0.0561 0.9107
vn 0.2693 -0.2277 0.9358
vn 0.8950 0.4131 0.1681
vn 0.8733 0.4599 0.1604
vn 0.8052 0.5662 0.1762
vn -0.9918 0.0902 0.0909
vn -0.9989 0.0043 0.0466
vn -0.9812 -0.1877 0.0448
vn 0.9314 -0.3150 0.1826
vn 0.8439 -0.4453 0.2993
vn 0.8261 -0.5374 0.1697
vn -0.9675 0.2324 0.0995
vn -0.9643 0.2018 0.1713
vn 0.9477 0.2530 0.1948
vn 0.1658 0.9398 0.2987
vn 0.6251 -0.7228 0.2946
vn 0.4594 -0.8538 0.2451
vn 0.4905 0.8668 0.0905
vn 0.8976 0.3717 0.2371
vn -0.2250 0.9458 0.2341
vn -0.3594 0.9120 0.1977
vn -0.4217 0.8809 0.2147
vn 0.6515 -0.6542 0.3842
vn 0.4843 -0.7860 0.3843
vn -0.9210 0.3020 0.2462
vn -0.9727 0.1399 0.1854
vn -0.9779 0.0159 0.2087
vn -0.9374 0.1920 0.2906
vn -0.8397 -0.5163 -0.1683
vn -0.0727 -0.9411 -0.3301
vn -0.1669 -0.9251 -0.3411
vn -0.8345 -0.5385 -0.1167
vn 0.5165 0.4371 0.7363
vn 0.4215 0.5893 0.6892
vn 0.3682 -0.3174 0.8739
vn 0.2465 -0.4495 0.8586
vn 0.9598 0.2788 0.0324
vn 0.9380 0.3418 0.0573
vn 0.6402 -0.4481 -0.6240
vn 0.7725 -0.3915 -0.5000
vn 0.7400 -0.4935 -0.4570
vn -0.1406 -0.5239 0.8401
vn -0.0982 -0.5329 0.8405
vn -0.4265 -0.3154 -0.8477
vn 0.1101 -0.9911 0.0746
vn 0.5900 0.4547 0.6673
vn 0.7228 0.3243 0.6103
vn 0.1104 0.9595 0.2592
vn 0.0807 0.9363 0.3419
vn -0.4128 0.9062 0.0911
vn -0.5860 0.6521 -0.4810
vn -0.6451 0.5603 -0.5196
vn -0.7054 0.5710 -0.4199
vn -0.9907 -0.0173 -0.1348
vn -0.9576 -0.0297 -0.2867
vn -0.6121 0.7816 -0.1206
vn -0.6978 0.7088 -0.1028
vn -0.9265 0.0325 0.3748
vn 0.2247 0.9176 0.3280
vn 0.3644 0.8200 0.4413
vn -0.1908 0.7727 0.6055
vn -0.3754 0.5970 0.7090
vn 0.5003 0.8313 0.2423
vn 0.1415 -0.1656 0.9760
vn 0.0239 -0.2979 0.9543
vn 0.8807 0.3164 0.3525
vn 0.9440 0.1983 0.2637
vn 0.1557 0.8026 0.5759
vn 0.1632 0.3435 0.9249
vn -0.2723 0.3212 0.9070
vn -0.3001 0.5256 0.7960
vn 0.1651 0.5597 0.8121
vn 0.9515 -0.1259 0.2808
vn 0.8393 -0.3323 0.4302
vn -0.1171 0.7056 0.6988
vn -0.3275 0.5862 0.7411
vn 0.8222 0.2254 0.5227
vn 0.9054 0.0795 0.4170
vn 0.9884 -0.1273 0.0828
vn -0.4455 -0.8713 0.2059
vn -0.6636 -0.7200 0.2031
vn 0.5127 0.2177 0.8305
vn 0.5644 0.3620 0.7419
vn -0.3493 0.0887 0.9328
vn -0.8643 0.4981 0.0691
vn -0.9830 0.1788 0.0422
vn 0.4940 0.7551 -0.4310
vn -0.2346 -0.9651 0.1166
vn 0.3399 0.9379 -0.0689
vn 0.3091 0.9510 -0.0110
vn 0.4317 0.8996 -0.0659
vn 0.1017 0.8250 -0.5560
vn 0.9873 0.0250 0.1571
vn -0.0000 0.9886 0.1503
vn -0.0635 0.9873 0.1454
vn -0.0753 0.9815 0.1760
vn 0.1033 0.9437 -0.3144
vn 0.1525 0.9430 -0.2958
vn 0.5050 0.6124 0.6082
vn 0.4889 0.1298 0.8626
vn 0.2820 0.2668 0.9216
vn -0.0849 -0.0165 0.9963
vn -0.3024 0.9349 0.1856
vn -0.8287 -0.5365 0.1591
vn -0.0834 0.9757 0.2024
vn -0.1482 0.9754 0.1632
vn -0.1707 0.9676 0.1863
vn 0.4766 0.6573 -0.5838
vn 0.0576 0.9576 0.2824
vn 0.1295 0.8906 0.4359
vn 0.3073 0.7527 0.5822
vn -0.5078 0.8261 0.2443
vn -0.5712 0.8043 0.1635
vn -0.6324 0.7536 0.1792
vn -0.8620 0.3459 0.3705
vn -0.8398 0.4586 0.2906
vn 0.0036 -0.5861 0.8102
vn 0.0273 -0.5739 0.8185
vn -0.9791 -0.1659 0.1176
vn 0.7753 -0.1641 0.6100
vn 0.5899 0.8016 0.0975
vn 0.5884 0.6510 -0.4795
vn -0.8482 0.1940 0.4929
vn -0.1342 0.9454 0.2971
vn -0.9344 -0.3358 0.1186
vn -0.9055 -0.4005 0.1402
vn -0.8193 -0.5501 0.1617
vn -0.8121 -0.5494 0.1969
vn -0.4498 0.8842 -0.1258
vn -0.4499 0.8736 -0.1854
vn -0.5329 0.8234 -0.1949
vn -0.5361 0.8344 -0.1279
vn 0.6119 0.7817 -0.1205
vn -0.9755 0.1492 -0.1617
vn -0.9445 0.1145 -0.3078
vn 0.0604 -0.3843 0.9212
vn -0.2464 0.9629 -0.1103
vn -0.2419 0.9674 -0.0744
vn -0.1404 0.9866 -0.0826
vn -0.1478 0.9835 -0.1048
vn -0.1432 0.9815 -0.1268
vn 0.4112 -0.5069 -0.7577
vn 0.5207 0.8516 -0.0594
vn -0.9348 0.3507 0.0568
vn -0.3348 0.9396 0.0712
vn -0.3851 -0.8766 0.2884
vn -0.3616 -0.7944 0.4881
vn -0.4803 0.8769 0.0207
vn -0.5211 0.8515 -0.0589
vn -0.0895 0.9935 0.0701
vn -0.0556 0.9984 0.0060
vn -0.0790 0.9968 -0.0077
vn -0.1336 0.9893 0.0580
vn 0.2158 0.9758 -0.0347
vn 0.1947 0.9809 0.0052
vn -0.1793 0.9775 0.1112
vn -0.1254 0.9832 0.1325
vn -0.0476 0.9951 0.0865
vn -0.7880 0.0048 0.6156
vn -0.2157 0.9758 -0.0347
vn -0.1333 0.9893 -0.0590
vn -0.0030 -0.5853 0.8108
vn 0.0004 -0.5874 0.8093
vn -0.3399 0.9379 -0.0689
vn -0.3092 0.9509 -0.0109
vn -0.6356 0.1478 0.7577
vn 0.6566 -0.0046 0.7542
vn -0.4122 -0.5096 -0.7552
vn -0.7274 -0.6628 0.1780
vn -0.4575 -0.8677 0.1944
vn -0.9575 -0.2799 0.0703
vn -0.7502 -0.6330 0.1912
vn -0.3418 -0.0165 0.9396
vn -0.2354 0.1336 0.9627
vn 0.1169 0.9924 -0.0393
vn 0.1014 0.9947 -0.0192
vn 0.1611 0.9864 0.0320
vn -0.4301 0.8675 -0.2498
vn -0.5106 0.8183 -0.2641
vn 0.3565 0.9188 -0.1693
vn 0.2527 0.9561 -0.1482
vn 0.2464 0.9629 -0.1103
vn 0.3564 0.9268 -0.1186
vn 0.2452 0.7698 -0.5894
vn 0.3878 0.7618 -0.5189
vn -0.2021 -0.1501 0.9678
vn -0.1169 0.9924 -0.0393
vn -0.1947 0.9809 0.0052
vn 0.5659 0.0995 0.8185
vn -0.0000 0.9965 0.0838
vn 0.0635 0.9873 0.1454
vn 0.0476 0.9951 0.0865
vn -0.3921 0.9199 0.0054
vn 0.1996 0.8294 -0.5217
vn -0.3116 0.9088 -0.2776
vn -0.6807 0.7206 0.1316
vn -0.0935 0.8605 -0.5008
vn -0.0000 0.8586 -0.5126
vn -0.1965 0.9577 0.2105
vn 0.3424 0.9124 -0.2243
vn -0.0812 0.8969 -0.4347
vn 0.9768 0.2092 -0.0453
vn -0.0000 0.8956 -0.4449
vn -0.1236 0.9776 -0.1703
vn -0.2217 0.9483 -0.2270
vn 0.0582 0.9392 -0.3384
vn -0.0279 0.9996 0.0094
vn -0.0000 0.9999 0.0151
vn 0.0600 0.9729 -0.2231
vn -0.0000 0.9947 -0.1031
vn 0.0838 0.9750 -0.2059
vn 0.0306 0.9736 -0.2262
vn 0.1085 0.9752 -0.1928
vn -0.1014 0.9947 -0.0192
vn -0.1611 0.9864 0.0320
vn 0.1236 0.9776 -0.1703
vn -0.2358 -0.5450 0.8046
vn -0.4317 0.8996 -0.0658
vn -0.3564 0.9268 -0.1186
vn -0.2250 0.9707 0.0840
vn -0.2663 0.9628 0.0450
vn 0.1392 0.9787 -0.1509
vn 0.1432 0.9815 -0.1268
vn 0.1478 0.9835 -0.1048
vn 0.1404 0.9866 -0.0826
vn 0.1333 0.9893 -0.0590
vn 0.0790 0.9968 -0.0077
vn -0.1392 0.9787 -0.1509
vn 0.0556 0.9984 0.0060
vn 0.0279 0.9996 0.0094
vn 0.2357 0.9538 -0.1863
vn 0.2419 0.9674 -0.0744
vn 0.2831 -0.9564 -0.0722
vn 0.2835 -0.9562 -0.0721
vn 0.4333 -0.9013 -0.0016
vn 0.7864 -0.6148 -0.0599
vn 0.6471 -0.7308 0.2172
vn 0.7411 -0.6569 0.1389
vn 0.6902 -0.6866 -0.2285
vn 0.8122 -0.5581 -0.1701
vn 0.7873 -0.5750 -0.2226
vn 0.7507 -0.6019 -0.2725
vn 0.7035 -0.6371 -0.3149
vn 0.6661 -0.6649 -0.3381
vn 0.6075 -0.7310 -0.3107
vn 0.6190 -0.7065 -0.3430
vn 0.6344 -0.6913 -0.3459
vn 0.6473 -0.6797 -0.3449
vn -0.6618 -0.7257 0.1882
vn -0.7499 -0.6504 0.1210
vn -0.3198 -0.9440 -0.0815
vn -0.4599 -0.8878 -0.0147
vn -0.7876 -0.6135 -0.0582
vn -0.8269 -0.5493 -0.1205
vn -0.8284 -0.5485 -0.1138
vn -0.8185 -0.5591 -0.1322
vn -0.7994 -0.5793 -0.1593
vn -0.7857 -0.5934 -0.1748
vn -0.7880 -0.5905 -0.1743
vn -0.8017 -0.5736 -0.1679
vn -0.8202 -0.5480 -0.1643
vt 0.000000 0.000000
s 1
f 400/1/1 406/1/2 399/1/3 392/1/4
f 1/1/5 4/1/6 2/1/7
f 314/1/8 381/1/9 382/1/10 374/1/11
f 4/1/6 6/1/12 5/1/13
f 6/1/12 7/1/14 5/1/13
f 6/1/12 8/1/15 7/1/14
f 7/1/14 8/1/15 9/1/16
f 450/1/17 451/1/18 443/1/19 449/1/20
f 421/1/21 427/1/22 426/1/23 422/1/24
f 5/1/13 12/1/25 2/1/7 4/1/6
f 467/1/26 500/1/27 472/1/28 468/1/29
f 94/1/30 97/1/31 90/1/32 89/1/33
f 201/1/34 282/1/35 216/1/36 208/1/37
f 529/1/38 531/1/39 331/1/40 523/1/41
f 100/1/42 119/1/43 114/1/44 109/1/45
f 101/1/46 132/1/47 126/1/48 119/1/43
f 126/1/48 144/1/49 114/1/44 119/1/43
f 113/1/50 132/1/47 101/1/46 108/1/51
f 268/1/52 269/1/53 263/1/54 262/1/55
f 76/1/56 77/1/57 68/1/58 75/1/59
f 366/1/60 367/1/61 357/1/62 365/1/63
f 388/1/64 410/1/65 403/1/66 396/1/67
f 209/1/68 217/1/69 218/1/70 212/1/71
f 120/1/72 132/1/47 113/1/50 115/1/73
f 120/1/72 143/1/74 126/1/48 132/1/47
f 78/1/75 79/1/76 69/1/77 77/1/57
f 87/1/78 93/1/79 91/1/80 86/1/81
f 25/1/82 27/1/83 18/1/84 17/1/85
f 3/1/86 26/1/87 31/1/88
f 231/1/89 275/1/90 267/1/91 261/1/92
f 293/1/93 330/1/94 317/1/95 318/1/96
f 11/1/97 12/1/25 5/1/13 10/1/98
f 68/1/58 77/1/57 69/1/77 59/1/99
f 435/1/100 442/1/101 441/1/102 434/1/103
f 162/1/104 174/1/105 166/1/106 163/1/107
f 646/1/108 648/1/109 4/1/6 1/1/5
f 40/1/110 48/1/111 46/1/112 39/1/113
f 66/1/114 74/1/115 67/1/116 35/1/117
f 418/1/118 419/1/119 55/1/120 414/1/121
f 322/1/122 333/1/123 327/1/124 323/1/125
f 57/1/126 98/1/127 94/1/30 89/1/33
f 103/1/128 105/1/129 83/1/130 95/1/131
f 110/1/132 115/1/73 113/1/50 111/1/133
f 184/1/134 486/1/135 188/1/136 185/1/137
f 118/1/138 125/1/139 104/1/140 112/1/141
f 21/1/142 22/1/143 14/1/144 20/1/145
f 51/1/146 54/1/147 48/1/111 44/1/148
f 103/1/128 116/1/149 110/1/132 105/1/129
f 83/1/130 105/1/129 76/1/56 75/1/59
f 104/1/140 123/1/150 96/1/151 97/1/31
f 117/1/152 136/1/153 120/1/72 115/1/73
f 39/1/113 46/1/112 47/1/154 45/1/155
f 386/1/156 387/1/157 382/1/10 381/1/9
f 520/1/158 515/1/159 485/1/160 513/1/161
f 8/1/15 392/1/4 13/1/162 9/1/16
f 569/1/163 596/1/164 576/1/165 570/1/166
f 122/1/167 116/1/149 103/1/128 121/1/168
f 413/1/169 429/1/170 418/1/118 414/1/121
f 117/1/152 115/1/73 110/1/132 116/1/149
f 180/1/171 303/1/172 172/1/173 174/1/105
f 35/1/117 67/1/116 41/1/174 34/1/175
f 226/1/176 251/1/177 243/1/178 235/1/179
f 210/1/180 211/1/181 203/1/182 204/1/183
f 350/1/184 358/1/185 354/1/186 348/1/187
f 642/1/188 644/1/189 3/1/86 31/1/88
f 90/1/32 95/1/131 83/1/130 82/1/190
f 74/1/115 75/1/59 68/1/58 67/1/116
f 172/1/173 290/1/191 179/1/192 173/1/193
f 42/1/194 66/1/114 35/1/117 36/1/195
f 64/1/196 424/1/197 106/1/198 98/1/127
f 23/1/199 43/1/200 42/1/194 36/1/195
f 480/1/201 496/1/202 489/1/203 482/1/204
f 70/1/205 71/1/206 80/1/207
f 27/1/83 33/1/208 32/1/209 26/1/87
f 308/1/210 329/1/211 328/1/212 324/1/213
f 65/1/214 66/1/114 42/1/194 58/1/215
f 65/1/214 82/1/190 74/1/115 66/1/114
f 503/1/216 510/1/217 508/1/218 502/1/219
f 23/1/199 24/1/220 16/1/221 22/1/143
f 265/1/222 262/1/55 249/1/223 261/1/92
f 99/1/224 654/1/225 653/1/226 91/1/80
f 65/1/214 89/1/33 90/1/32 82/1/190
f 67/1/116 68/1/58 59/1/99 41/1/174
f 220/1/227 230/1/228 228/1/229 221/1/230
f 85/1/231 86/1/81 91/1/80
f 522/1/232 523/1/41 325/1/233 516/1/234
f 476/1/235 498/1/236 497/1/237 491/1/238
f 96/1/151 121/1/168 103/1/128 95/1/131
f 90/1/32 97/1/31 96/1/151 95/1/131
f 41/1/174 44/1/148 37/1/239 34/1/175
f 91/1/80 93/1/79 99/1/224
f 14/1/144 22/1/143 16/1/221 11/1/97
f 10/1/98 15/1/240 14/1/144 11/1/97
f 93/1/79 102/1/241 99/1/224
f 63/1/242 72/1/243 71/1/206 62/1/244
f 28/1/245 50/1/246 21/1/142 20/1/145
f 57/1/126 89/1/33 65/1/214 58/1/215
f 44/1/148 48/1/111 40/1/110 37/1/239
f 94/1/30 112/1/141 104/1/140 97/1/31
f 96/1/151 123/1/150 127/1/247 121/1/168
f 127/1/247 128/1/248 122/1/167 121/1/168
f 99/1/224 102/1/241 107/1/249
f 102/1/241 109/1/45 107/1/249
f 57/1/126 58/1/215 49/1/250 56/1/251
f 49/1/250 58/1/215 42/1/194 43/1/200
f 74/1/115 82/1/190 83/1/130 75/1/59
f 21/1/142 43/1/200 23/1/199 22/1/143
f 21/1/142 50/1/246 49/1/250 43/1/200
f 357/1/62 358/1/185 350/1/184 356/1/252
f 13/1/162 15/1/240 10/1/98 9/1/16
f 55/1/120 56/1/251 49/1/250 50/1/246
f 124/1/253 134/1/254 127/1/247 123/1/150
f 104/1/140 125/1/139 124/1/253 123/1/150
f 48/1/111 54/1/147 52/1/255 46/1/112
f 84/1/256 108/1/51 101/1/46 92/1/257
f 538/1/258 554/1/259 532/1/260 533/1/261
f 460/1/262 461/1/263 164/1/264 455/1/265
f 428/1/266 434/1/103 433/1/267 427/1/22
f 272/1/268 280/1/269 279/1/270 278/1/271
f 165/1/272 187/1/273 183/1/274 175/1/275
f 172/1/173 303/1/172 289/1/276 290/1/191
f 347/1/277 349/1/278 341/1/279 340/1/280
f 271/1/281 272/1/268 264/1/282 263/1/54
f 142/1/283 163/1/107 145/1/284 143/1/74
f 131/1/285 141/1/286 124/1/253 125/1/139
f 188/1/136 494/1/287 180/1/171 182/1/288
f 184/1/134 185/1/137 147/1/289 178/1/290
f 267/1/91 326/1/291 265/1/222 261/1/92
f 430/1/292 431/1/293 106/1/198 424/1/197
f 12/1/25 17/1/85 18/1/84 2/1/7
f 152/1/294 153/1/295 135/1/296 148/1/297
f 438/1/298 439/1/299 118/1/138 431/1/293
f 430/1/292 453/1/300 438/1/298 431/1/293
f 301/1/301 300/1/302 294/1/303 297/1/304
f 33/1/208 40/1/110 39/1/113 32/1/209
f 650/1/305 652/1/306 8/1/15 6/1/12
f 313/1/307 385/1/308 315/1/309 321/1/310
f 336/1/311 337/1/312 344/1/313 343/1/314
f 452/1/315 518/1/316 458/1/317 453/1/300
f 458/1/317 459/1/318 438/1/298 453/1/300
f 170/1/319 171/1/320 146/1/321 169/1/322
f 150/1/323 156/1/324 155/1/325 151/1/326
f 446/1/327 447/1/328 131/1/285 439/1/299
f 426/1/23 539/1/329 436/1/330 429/1/170
f 299/1/331 321/1/310 304/1/332 298/1/333
f 314/1/8 374/1/11 351/1/334 345/1/335
f 354/1/186 355/1/336 334/1/337 348/1/187
f 341/1/279 348/1/187 334/1/337 333/1/123
f 226/1/176 235/1/179 212/1/71 218/1/70
f 336/1/311 343/1/314 328/1/212 329/1/211
f 92/1/257 100/1/42 93/1/79 87/1/78
f 107/1/249 159/1/338 160/1/339
f 107/1/249 160/1/339 161/1/340
f 444/1/341 533/1/261 532/1/260 525/1/342
f 435/1/100 434/1/103 428/1/266 432/1/343
f 122/1/167 130/1/344 117/1/152 116/1/149
f 458/1/317 511/1/345 463/1/346 459/1/318
f 315/1/309 381/1/9 314/1/8 307/1/347
f 311/1/348 507/1/349 319/1/350 312/1/351
f 412/1/352 425/1/353 421/1/21 417/1/354
f 394/1/355 410/1/65 388/1/64 387/1/157
f 70/1/205 647/1/356 645/1/357 61/1/358
f 338/1/359 561/1/360 346/1/361 339/1/362
f 161/1/340 160/1/339 168/1/363
f 458/1/317 518/1/316 519/1/364 511/1/345
f 179/1/192 290/1/191 201/1/34 193/1/365
f 519/1/364 526/1/366 509/1/367 511/1/345
f 463/1/346 511/1/345 509/1/367 504/1/368
f 524/1/369 540/1/370 519/1/364 518/1/316
f 452/1/315 525/1/342 524/1/369 518/1/316
f 164/1/264 461/1/263 176/1/371 169/1/322
f 101/1/46 119/1/43 100/1/42 92/1/257
f 64/1/196 98/1/127 57/1/126 56/1/251
f 428/1/266 427/1/22 421/1/21 425/1/353
f 517/1/372 586/1/373 508/1/218 510/1/217
f 129/1/374 148/1/297 135/1/296 130/1/344
f 331/1/40 531/1/39 338/1/359 332/1/375
f 448/1/376 555/1/377 441/1/102 442/1/101
f 225/1/378 232/1/379 233/1/380 227/1/381
f 478/1/382 479/1/383 177/1/384 473/1/385
f 270/1/386 271/1/281 263/1/54 269/1/53
f 152/1/294 185/1/137 188/1/136 182/1/288
f 436/1/330 539/1/329 538/1/258 533/1/261
f 377/1/387 409/1/388 383/1/389 379/1/390
f 187/1/273 186/1/391 192/1/392
f 302/1/393 310/1/394 308/1/210 309/1/395
f 186/1/391 194/1/396 192/1/392
f 317/1/95 329/1/211 308/1/210 310/1/394
f 195/1/397 202/1/398 204/1/183 203/1/182
f 383/1/389 409/1/388 411/1/399 404/1/400
f 400/1/1 384/1/401 383/1/389 404/1/400
f 190/1/402 197/1/403 160/1/339
f 160/1/339 197/1/403 198/1/404
f 160/1/339 198/1/404 168/1/363
f 403/1/66 415/1/405 397/1/406 396/1/67
f 192/1/392 200/1/407 183/1/274 187/1/273
f 28/1/245 414/1/121 55/1/120 50/1/246
f 54/1/147 63/1/242 62/1/244 52/1/255
f 193/1/365 202/1/398 195/1/397
f 272/1/268 278/1/271 266/1/408 264/1/282
f 397/1/406 415/1/405 411/1/399 409/1/388
f 198/1/404 197/1/403 205/1/409
f 198/1/404 205/1/409 168/1/363
f 168/1/363 205/1/409 206/1/410
f 325/1/233 326/1/291 267/1/91 320/1/411
f 202/1/398 209/1/68 204/1/183
f 203/1/182 199/1/412 194/1/396 195/1/397
f 313/1/307 474/1/413 456/1/414 462/1/415
f 7/1/14 9/1/16 10/1/98 5/1/13
f 205/1/409 197/1/403 213/1/416
f 205/1/409 214/1/417 206/1/410
f 205/1/409 213/1/416 214/1/417
f 391/1/418 398/1/419 370/1/420 390/1/421
f 638/1/422 622/1/423 617/1/424 625/1/425
f 78/1/75 111/1/133 113/1/50 108/1/51
f 300/1/302 330/1/94 293/1/93 294/1/303
f 293/1/93 318/1/96 286/1/426 287/1/427
f 18/1/84 27/1/83 26/1/87 3/1/86
f 236/1/428 237/1/429 228/1/229 230/1/228
f 157/1/430 181/1/431 165/1/272 156/1/324
f 73/1/432 88/1/433 81/1/434 72/1/243
f 651/1/435 649/1/436 80/1/207 85/1/231
f 23/1/199 36/1/195 29/1/437 24/1/220
f 336/1/311 329/1/211 317/1/95 330/1/94
f 52/1/255 62/1/244 61/1/358 53/1/438
f 210/1/180 234/1/439 219/1/440 211/1/181
f 331/1/40 332/1/375 265/1/222 326/1/291
f 265/1/222 332/1/375 268/1/52 262/1/55
f 240/1/441 242/1/442 233/1/380 232/1/379
f 300/1/302 337/1/312 336/1/311 330/1/94
f 450/1/17 482/1/204 457/1/443 451/1/18
f 444/1/341 445/1/444 423/1/445 437/1/446
f 423/1/445 445/1/444 430/1/292 424/1/197
f 13/1/162 401/1/447 19/1/448 15/1/240
f 24/1/220 25/1/82 17/1/85 16/1/221
f 441/1/102 555/1/377 553/1/449 548/1/450
f 232/1/379 231/1/89 240/1/441
f 390/1/421 370/1/420 365/1/63 359/1/451
f 273/1/452 274/1/453 242/1/442 266/1/408
f 233/1/380 242/1/442 241/1/454
f 306/1/455 345/1/335 344/1/313 337/1/312
f 553/1/449 554/1/259 538/1/258 548/1/450
f 72/1/243 81/1/434 80/1/207 71/1/206
f 2/1/7 18/1/84 3/1/86 1/1/5
f 224/1/456 231/1/89 232/1/379 225/1/378
f 236/1/428 245/1/457 244/1/458 237/1/429
f 199/1/412 207/1/459 196/1/460 200/1/407
f 242/1/442 240/1/441 249/1/223
f 242/1/442 250/1/461 241/1/454
f 260/1/462 258/1/463 255/1/464 257/1/465
f 191/1/466 222/1/467 197/1/403 190/1/402
f 248/1/468 241/1/454 256/1/469
f 250/1/461 256/1/469 241/1/454
f 215/1/470 223/1/471 196/1/460 207/1/459
f 250/1/461 257/1/465 256/1/469
f 167/1/472 190/1/402 160/1/339 159/1/338
f 363/1/473 355/1/336 354/1/186 362/1/474
f 286/1/426 318/1/96 295/1/475 288/1/476
f 258/1/463 260/1/462 259/1/477
f 212/1/71 235/1/179 234/1/439 210/1/180
f 418/1/118 437/1/446 423/1/445 419/1/119
f 394/1/355 432/1/343 416/1/478 410/1/65
f 405/1/479 406/1/2 400/1/1 404/1/400
f 177/1/384 178/1/290 139/1/480 171/1/320
f 32/1/209 38/1/481 31/1/88 26/1/87
f 527/1/482 530/1/483 522/1/232 521/1/484
f 129/1/374 130/1/344 122/1/167 128/1/248
f 539/1/329 426/1/23 427/1/22 433/1/267
f 131/1/285 447/1/328 149/1/485 141/1/286
f 249/1/223 264/1/282 266/1/408 242/1/442
f 191/1/466 190/1/402 167/1/472 189/1/486
f 242/1/442 274/1/453 250/1/461
f 583/1/487 495/1/488 488/1/489 270/1/386
f 135/1/296 153/1/295 142/1/283 136/1/153
f 433/1/267 548/1/450 538/1/258 539/1/329
f 176/1/371 468/1/29 170/1/319 169/1/322
f 465/1/490 466/1/491 176/1/371 461/1/263
f 250/1/461 281/1/492 257/1/465
f 250/1/461 274/1/453 281/1/492
f 239/1/493 247/1/494 246/1/495 245/1/457
f 456/1/414 475/1/496 450/1/17 449/1/20
f 361/1/497 362/1/474 354/1/186 358/1/185
f 208/1/37 217/1/69 209/1/68 202/1/398
f 277/1/498 488/1/489 487/1/499 481/1/500
f 436/1/330 533/1/261 444/1/341 437/1/446
f 397/1/406 409/1/388 377/1/387 398/1/419
f 281/1/492 274/1/453 287/1/427
f 257/1/465 286/1/426 288/1/476
f 257/1/465 288/1/476 260/1/462
f 29/1/437 36/1/195 35/1/117 34/1/175
f 127/1/247 134/1/254 133/1/501 128/1/248
f 166/1/106 174/1/105 172/1/173 173/1/193
f 273/1/452 284/1/502 291/1/503
f 274/1/453 292/1/504 287/1/427
f 393/1/505 462/1/415 402/1/506 395/1/507
f 391/1/418 390/1/421 368/1/508 389/1/509
f 287/1/427 294/1/303 293/1/93
f 639/1/510 641/1/511 38/1/481 45/1/155
f 370/1/420 371/1/512 366/1/60 365/1/63
f 191/1/466 223/1/471 229/1/513 222/1/467
f 306/1/455 337/1/312 300/1/302 301/1/301
f 17/1/85 12/1/25 11/1/97 16/1/221
f 291/1/503 299/1/331 298/1/333
f 467/1/26 468/1/29 176/1/371 466/1/491
f 216/1/36 282/1/35 283/1/514 275/1/90
f 256/1/469 257/1/465 255/1/464 248/1/468
f 139/1/480 178/1/290 147/1/289 140/1/515
f 368/1/508 390/1/421 359/1/451 360/1/516
f 170/1/319 473/1/385 177/1/384 171/1/320
f 279/1/270 305/1/517 284/1/502 278/1/271
f 372/1/518 378/1/519 375/1/520 373/1/521
f 563/1/522 564/1/523 549/1/524 558/1/525
f 493/1/526 494/1/287 188/1/136 486/1/135
f 407/1/527 408/1/528 19/1/448 401/1/447
f 304/1/332 321/1/310 315/1/309 307/1/347
f 308/1/210 324/1/213 316/1/529 309/1/395
f 179/1/192 193/1/365 186/1/391 181/1/431
f 602/1/530 604/1/531 598/1/532 597/1/533
f 319/1/350 516/1/234 325/1/233 320/1/411
f 402/1/506 462/1/415 456/1/414 449/1/20
f 452/1/315 453/1/300 430/1/292 445/1/444
f 199/1/412 200/1/407 192/1/392 194/1/396
f 602/1/530 597/1/533 595/1/534 596/1/164
f 211/1/181 219/1/440 215/1/470 207/1/459
f 73/1/432 72/1/243 63/1/242 60/1/535
f 514/1/536 516/1/234 319/1/350 507/1/349
f 416/1/478 420/1/537 403/1/66 410/1/65
f 79/1/76 73/1/432 60/1/535 69/1/77
f 118/1/138 439/1/299 131/1/285 125/1/139
f 325/1/233 523/1/41 331/1/40 326/1/291
f 229/1/513 230/1/228 220/1/227 222/1/467
f 489/1/203 567/1/538 457/1/443 482/1/204
f 334/1/337 355/1/336 342/1/539 335/1/540
f 448/1/376 560/1/541 559/1/542 555/1/377
f 291/1/503 298/1/333 297/1/304 292/1/504
f 580/1/543 591/1/544 587/1/545 581/1/546
f 297/1/304 298/1/333 304/1/332 301/1/301
f 522/1/232 530/1/483 529/1/38 523/1/41
f 292/1/504 297/1/304 294/1/303 287/1/427
f 218/1/70 225/1/378 227/1/381 226/1/176
f 59/1/99 69/1/77 60/1/535 51/1/146
f 537/1/547 551/1/548 529/1/38 530/1/483
f 217/1/69 224/1/456 225/1/378 218/1/70
f 186/1/391 187/1/273 165/1/272 181/1/431
f 580/1/543 581/1/546 501/1/549 579/1/550
f 495/1/488 589/1/551 580/1/543 579/1/550
f 353/1/552 356/1/252 350/1/184 349/1/278
f 234/1/439 247/1/494 239/1/493 219/1/440
f 277/1/498 280/1/269 272/1/268 271/1/281
f 338/1/359 339/1/362 268/1/52 332/1/375
f 598/1/532 604/1/531 600/1/553 599/1/554
f 487/1/499 579/1/550 501/1/549 496/1/202
f 351/1/334 374/1/11 368/1/508 360/1/516
f 114/1/44 151/1/326 107/1/249 109/1/45
f 353/1/552 360/1/516 359/1/451 356/1/252
f 248/1/468 251/1/177 226/1/176 227/1/381
f 53/1/438 643/1/555 640/1/556 47/1/154
f 600/1/553 604/1/531 571/1/557 601/1/558
f 155/1/325 159/1/338 107/1/249 151/1/326
f 351/1/334 352/1/559 344/1/313 345/1/335
f 239/1/493 245/1/457 236/1/428 238/1/560
f 646/1/108 1/1/5 3/1/86 644/1/189
f 393/1/505 395/1/507 386/1/156 385/1/308
f 196/1/460 223/1/471 191/1/466 189/1/486
f 30/1/561 33/1/208 27/1/83 25/1/82
f 328/1/212 343/1/314 347/1/277 340/1/280
f 399/1/3 401/1/447 13/1/162 392/1/4
f 361/1/497 367/1/61 369/1/562
f 361/1/497 369/1/562 362/1/474
f 362/1/474 369/1/562 363/1/473
f 363/1/473 369/1/562 364/1/563
f 366/1/60 369/1/562 367/1/61
f 383/1/389 384/1/401 380/1/564 379/1/390
f 372/1/518 373/1/521 366/1/60 371/1/512
f 363/1/473 364/1/563 342/1/539 355/1/336
f 366/1/60 373/1/521 369/1/562
f 369/1/562 373/1/521 375/1/520
f 384/1/401 400/1/1 392/1/4 8/1/15
f 375/1/520 8/1/15 376/1/565
f 369/1/562 375/1/520 376/1/565
f 371/1/512 377/1/387 372/1/518
f 258/1/463 259/1/477 254/1/566 253/1/567
f 375/1/520 378/1/519 8/1/15
f 372/1/518 377/1/387 379/1/390
f 378/1/519 380/1/564 8/1/15
f 372/1/518 379/1/390 380/1/564
f 372/1/518 380/1/564 378/1/519
f 150/1/323 151/1/326 114/1/44 144/1/49
f 552/1/568 557/1/569 556/1/570 551/1/548
f 403/1/66 420/1/537 405/1/479 415/1/405
f 370/1/420 398/1/419 377/1/387 371/1/512
f 380/1/564 384/1/401 8/1/15
f 549/1/524 564/1/523 545/1/571 544/1/572
f 553/1/449 558/1/525 549/1/524 554/1/259
f 152/1/294 182/1/288 162/1/104 153/1/295
f 281/1/492 287/1/427 286/1/426 257/1/465
f 204/1/183 209/1/68 212/1/71 210/1/180
f 512/1/573 536/1/574 535/1/575 528/1/576
f 243/1/178 253/1/567 246/1/495 247/1/494
f 183/1/274 200/1/407 196/1/460 189/1/486
f 284/1/502 273/1/452 266/1/408 278/1/271
f 251/1/177 258/1/463 253/1/567 243/1/178
f 645/1/357 643/1/555 53/1/438 61/1/358
f 137/1/577 138/1/578 133/1/501 134/1/254
f 386/1/156 395/1/507 394/1/355 387/1/157
f 532/1/260 544/1/572 524/1/369 525/1/342
f 319/1/350 320/1/411 283/1/514 312/1/351
f 243/1/178 247/1/494 234/1/439 235/1/179
f 556/1/570 561/1/360 338/1/359 531/1/39
f 62/1/244 71/1/206 70/1/205 61/1/358
f 220/1/227 221/1/230 214/1/417 213/1/416
f 241/1/454 248/1/468 227/1/381 233/1/380
f 254/1/566 252/1/579 246/1/495 253/1/567
f 145/1/284 144/1/49 126/1/48 143/1/74
f 313/1/307 321/1/310 299/1/331 305/1/517
f 404/1/400 411/1/399 405/1/479
f 283/1/514 320/1/411 267/1/91 275/1/90
f 255/1/464 258/1/463 251/1/177 248/1/468
f 284/1/502 305/1/517 299/1/331 291/1/503
f 292/1/504 274/1/453 273/1/452 291/1/503
f 594/1/580 599/1/554 600/1/553 593/1/581
f 39/1/113 45/1/155 38/1/481 32/1/209
f 295/1/475 310/1/394 302/1/393 296/1/582
f 411/1/399 415/1/405 405/1/479
f 100/1/42 109/1/45 102/1/241 93/1/79
f 480/1/201 482/1/204 450/1/17 475/1/496
f 239/1/493 238/1/560 215/1/470 219/1/440
f 582/1/583 583/1/487 276/1/584 574/1/585
f 559/1/542 558/1/525 553/1/449 555/1/377
f 457/1/443 567/1/538 565/1/586 560/1/541
f 438/1/298 459/1/318 446/1/327 439/1/299
f 137/1/577 154/1/587 146/1/321 138/1/578
f 457/1/443 560/1/541 448/1/376 451/1/18
f 197/1/403 222/1/467 220/1/227 213/1/416
f 37/1/239 40/1/110 33/1/208 30/1/561
f 106/1/198 112/1/141 94/1/30 98/1/127
f 110/1/132 111/1/133 76/1/56 105/1/129
f 133/1/501 140/1/515 129/1/374 128/1/248
f 397/1/406 398/1/419 391/1/418 396/1/67
f 52/1/255 53/1/438 47/1/154 46/1/112
f 179/1/192 181/1/431 157/1/430 173/1/193
f 106/1/198 431/1/293 118/1/138 112/1/141
f 195/1/397 194/1/396 186/1/391 193/1/365
f 124/1/253 141/1/286 137/1/577 134/1/254
f 485/1/160 515/1/159 493/1/526 486/1/135
f 493/1/526 507/1/349 311/1/348 494/1/287
f 444/1/341 525/1/342 452/1/315 445/1/444
f 276/1/584 583/1/487 270/1/386 269/1/53
f 147/1/289 185/1/137 152/1/294 148/1/297
f 203/1/182 211/1/181 207/1/459 199/1/412
f 462/1/415 393/1/505 385/1/308 313/1/307
f 519/1/364 540/1/370 534/1/588 526/1/366
f 520/1/158 521/1/484 514/1/536 515/1/159
f 554/1/259 549/1/524 544/1/572 532/1/260
f 149/1/485 154/1/587 137/1/577 141/1/286
f 301/1/301 304/1/332 307/1/347 306/1/455
f 316/1/529 324/1/213 322/1/122 323/1/125
f 402/1/506 449/1/20 443/1/19 440/1/589
f 359/1/451 365/1/63 357/1/62 356/1/252
f 139/1/480 140/1/515 133/1/501 138/1/578
f 45/1/155 47/1/154 640/1/556 639/1/510
f 446/1/327 464/1/590 454/1/591 447/1/328
f 246/1/495 252/1/579 244/1/458 245/1/457
f 295/1/475 318/1/96 317/1/95 310/1/394
f 216/1/36 275/1/90 231/1/89 224/1/456
f 285/1/592 475/1/496 456/1/414 474/1/413
f 472/1/28 506/1/593 478/1/382 473/1/385
f 240/1/441 231/1/89 261/1/92 249/1/223
f 201/1/34 208/1/37 202/1/398 193/1/365
f 463/1/346 504/1/368 469/1/594 464/1/590
f 295/1/475 296/1/582 260/1/462 288/1/476
f 485/1/160 486/1/135 184/1/134 479/1/383
f 149/1/485 455/1/265 164/1/264 154/1/587
f 150/1/323 158/1/595 157/1/430 156/1/324
f 509/1/367 510/1/217 503/1/216 504/1/368
f 509/1/367 526/1/366 517/1/372 510/1/217
f 454/1/591 470/1/596 460/1/262 455/1/265
f 315/1/309 385/1/308 386/1/156 381/1/9
f 399/1/3 417/1/354 407/1/527 401/1/447
f 585/1/597 586/1/373 517/1/372 577/1/598
f 534/1/588 577/1/598 517/1/372 526/1/366
f 229/1/513 238/1/560 236/1/428 230/1/228
f 435/1/100 440/1/589 443/1/19 442/1/101
f 476/1/235 477/1/599 460/1/262 470/1/596
f 556/1/570 531/1/39 529/1/38 551/1/548
f 524/1/369 544/1/572 545/1/571 540/1/370
f 545/1/571 570/1/166 534/1/588 540/1/370
f 394/1/355 440/1/589 435/1/100 432/1/343
f 402/1/506 440/1/589 394/1/355 395/1/507
f 277/1/498 481/1/500 285/1/592 280/1/269
f 353/1/552 349/1/278 347/1/277 352/1/559
f 34/1/175 37/1/239 30/1/561 29/1/437
f 388/1/64 389/1/509 382/1/10 387/1/157
f 588/1/600 589/1/551 582/1/583 584/1/601
f 407/1/527 422/1/24 413/1/169 408/1/528
f 215/1/470 238/1/560 229/1/513 223/1/471
f 382/1/10 389/1/509 368/1/508 374/1/11
f 484/1/602 490/1/603 471/1/604
f 484/1/602 483/1/605 490/1/603
f 483/1/605 491/1/238 490/1/603
f 471/1/604 490/1/603 492/1/606
f 441/1/102 548/1/450 433/1/267 434/1/103
f 60/1/535 63/1/242 54/1/147 51/1/146
f 76/1/56 111/1/133 78/1/75 77/1/57
f 569/1/163 570/1/166 545/1/571 564/1/523
f 19/1/448 20/1/145 14/1/144 15/1/240
f 491/1/238 497/1/237 490/1/603
f 476/1/235 491/1/238 483/1/605 477/1/599
f 587/1/545 592/1/607 578/1/608 581/1/546
f 492/1/606 490/1/603 499/1/609
f 177/1/384 479/1/383 184/1/134 178/1/290
f 350/1/184 348/1/187 341/1/279 349/1/278
f 497/1/237 502/1/219 490/1/603
f 483/1/605 484/1/602 465/1/490 477/1/599
f 460/1/262 477/1/599 465/1/490 461/1/263
f 487/1/499 496/1/202 480/1/201 481/1/500
f 405/1/479 420/1/537 412/1/352 406/1/2
f 502/1/219 508/1/218 490/1/603
f 465/1/490 484/1/602 471/1/604 466/1/491
f 201/1/34 290/1/191 289/1/276 282/1/35
f 270/1/386 488/1/489 277/1/498 271/1/281
f 512/1/573 528/1/576 520/1/158 513/1/161
f 268/1/52 339/1/362 276/1/584 269/1/53
f 99/1/224 107/1/249 655/1/610 654/1/225
f 416/1/478 425/1/353 412/1/352 420/1/537
f 471/1/604 492/1/606 467/1/26 466/1/491
f 289/1/276 312/1/351 283/1/514 282/1/35
f 285/1/592 481/1/500 480/1/201 475/1/496
f 145/1/284 163/1/107 166/1/106 158/1/595
f 311/1/348 312/1/351 289/1/276 303/1/172
f 559/1/542 566/1/611 563/1/522 558/1/525
f 563/1/522 603/1/612 569/1/163 564/1/523
f 651/1/435 85/1/231 91/1/80 653/1/226
f 346/1/361 574/1/585 276/1/584 339/1/362
f 443/1/19 451/1/18 448/1/376 442/1/101
f 146/1/321 171/1/320 139/1/480 138/1/578
f 571/1/557 603/1/612 563/1/522 566/1/611
f 601/1/558 571/1/557 566/1/611 565/1/586
f 489/1/203 573/1/613 572/1/614 567/1/538
f 572/1/614 601/1/558 565/1/586 567/1/538
f 328/1/212 340/1/280 322/1/122 324/1/213
f 648/1/109 650/1/305 6/1/12 4/1/6
f 80/1/207 649/1/436 647/1/356 70/1/205
f 263/1/54 264/1/282 249/1/223 262/1/55
f 469/1/594 498/1/236 476/1/235 470/1/596
f 569/1/163 603/1/612 602/1/530 596/1/164
f 279/1/270 474/1/413 313/1/307 305/1/517
f 600/1/553 601/1/558 572/1/614 593/1/581
f 494/1/287 311/1/348 303/1/172 180/1/171
f 162/1/104 182/1/288 180/1/171 174/1/105
f 416/1/478 432/1/343 428/1/266 425/1/353
f 499/1/609 490/1/603 541/1/615
f 541/1/615 490/1/603 542/1/616
f 469/1/594 504/1/368 503/1/216 498/1/236
f 344/1/313 352/1/559 347/1/277 343/1/314
f 322/1/122 340/1/280 341/1/279 333/1/123
f 81/1/434 88/1/433 87/1/78 86/1/81
f 542/1/616 490/1/603 546/1/617
f 162/1/104 163/1/107 142/1/283 153/1/295
f 546/1/617 490/1/603 547/1/618
f 412/1/352 417/1/354 399/1/3 406/1/2
f 478/1/382 513/1/161 485/1/160 479/1/383
f 493/1/526 515/1/159 514/1/536 507/1/349
f 547/1/618 490/1/603 550/1/619
f 423/1/445 424/1/197 64/1/196 419/1/119
f 550/1/619 490/1/603 552/1/568
f 463/1/346 464/1/590 446/1/327 459/1/318
f 166/1/106 173/1/193 157/1/430 158/1/595
f 164/1/264 169/1/322 146/1/321 154/1/587
f 501/1/549 581/1/546 578/1/608 573/1/613
f 578/1/608 593/1/581 572/1/614 573/1/613
f 578/1/608 592/1/607 594/1/580 593/1/581
f 552/1/568 490/1/603 557/1/569
f 19/1/448 408/1/528 28/1/245 20/1/145
f 436/1/330 437/1/446 418/1/118 429/1/170
f 557/1/569 490/1/603 562/1/620
f 472/1/28 473/1/385 170/1/319 468/1/29
f 314/1/8 345/1/335 306/1/455 307/1/347
f 469/1/594 470/1/596 454/1/591 464/1/590
f 38/1/481 641/1/511 642/1/188 31/1/88
f 576/1/165 596/1/164 595/1/534 590/1/621
f 155/1/325 175/1/275 167/1/472 159/1/338
f 562/1/620 490/1/603 568/1/622
f 512/1/573 513/1/161 478/1/382 506/1/593
f 334/1/337 335/1/540 327/1/124 333/1/123
f 388/1/64 396/1/67 391/1/418 389/1/509
f 142/1/283 143/1/74 120/1/72 136/1/153
f 503/1/216 502/1/219 497/1/237 498/1/236
f 88/1/433 84/1/256 92/1/257 87/1/78
f 501/1/549 573/1/613 489/1/203 496/1/202
f 568/1/622 490/1/603 575/1/623
f 505/1/624 536/1/574 512/1/573 506/1/593
f 505/1/624 506/1/593 472/1/28 500/1/27
f 216/1/36 224/1/456 217/1/69 208/1/37
f 426/1/23 429/1/170 413/1/169 422/1/24
f 520/1/158 528/1/576 527/1/482 521/1/484
f 421/1/21 422/1/24 407/1/527 417/1/354
f 78/1/75 108/1/51 84/1/256 79/1/76
f 582/1/583 589/1/551 495/1/488 583/1/487
f 55/1/120 419/1/119 64/1/196 56/1/251
f 575/1/623 490/1/603 584/1/601
f 499/1/609 541/1/615 505/1/624 500/1/27
f 499/1/609 500/1/27 467/1/26 492/1/606
f 586/1/373 490/1/603 508/1/218
f 585/1/597 490/1/603 586/1/373
f 562/1/620 568/1/622 346/1/361 561/1/360
f 556/1/570 557/1/569 562/1/620 561/1/360
f 584/1/601 490/1/603 588/1/600
f 575/1/623 584/1/601 582/1/583 574/1/585
f 575/1/623 574/1/585 346/1/361 568/1/622
f 585/1/597 590/1/621 490/1/603
f 588/1/600 490/1/603 591/1/544
f 587/1/545 591/1/544 490/1/603
f 587/1/545 490/1/603 592/1/607
f 183/1/274 189/1/486 167/1/472 175/1/275
f 592/1/607 490/1/603 594/1/580
f 505/1/624 541/1/615 542/1/616 536/1/574
f 590/1/621 595/1/534 490/1/603
f 490/1/603 595/1/534 597/1/533
f 490/1/603 597/1/533 598/1/532
f 490/1/603 599/1/554 594/1/580
f 490/1/603 598/1/532 599/1/554
f 576/1/165 577/1/598 534/1/588 570/1/166
f 552/1/568 551/1/548 537/1/547 550/1/619
f 547/1/618 550/1/619 537/1/547 543/1/625
f 527/1/482 543/1/625 537/1/547 530/1/483
f 351/1/334 360/1/516 353/1/552 352/1/559
f 546/1/617 547/1/618 543/1/625 535/1/575
f 542/1/616 546/1/617 535/1/575 536/1/574
f 535/1/575 543/1/625 527/1/482 528/1/576
f 605/1/626 606/1/627 607/1/628
f 605/1/626 607/1/628 608/1/629
f 606/1/627 609/1/630 607/1/628
f 607/1/628 609/1/630 610/1/631
f 607/1/628 610/1/631 608/1/629
f 608/1/629 610/1/631 611/1/632
f 609/1/630 611/1/632 610/1/631
f 608/1/629 611/1/632 612/1/633
f 612/1/633 611/1/632 613/1/634
f 613/1/634 611/1/632 614/1/635
f 614/1/635 611/1/632 615/1/636
f 615/1/636 611/1/632 616/1/637
f 611/1/632 617/1/424 618/1/638
f 611/1/632 618/1/638 619/1/639
f 611/1/632 619/1/639 620/1/640
f 611/1/632 620/1/640 621/1/641
f 611/1/632 621/1/641 616/1/637
f 617/1/424 622/1/423 618/1/638
f 623/1/642 624/1/643 625/1/425
f 623/1/642 626/1/644 627/1/645
f 623/1/642 627/1/645 624/1/643
f 624/1/643 627/1/645 628/1/646
f 624/1/643 628/1/646 625/1/425
f 627/1/645 629/1/644 628/1/646
f 626/1/644 629/1/644 627/1/645
f 628/1/646 630/1/647 625/1/425
f 630/1/647 631/1/648 625/1/425
f 631/1/648 632/1/649 625/1/425
f 632/1/649 633/1/650 625/1/425
f 633/1/650 634/1/651 625/1/425
f 634/1/651 635/1/652 625/1/425
f 635/1/652 636/1/653 625/1/425
f 636/1/653 637/1/654 625/1/425
f 81/1/434 86/1/81 85/1/231 80/1/207
f 637/1/654 638/1/422 625/1/425
f 165/1/272 175/1/275 155/1/325 156/1/324
f 495/1/488 579/1/550 487/1/499 488/1/489
f 454/1/591 455/1/265 149/1/485 447/1/328
f 135/1/296 136/1/153 117/1/152 130/1/344
f 147/1/289 148/1/297 129/1/374 140/1/515
f 588/1/600 591/1/544 580/1/543 589/1/551
f 474/1/413 279/1/270 280/1/269 285/1/592
f 30/1/561 25/1/82 24/1/220 29/1/437
f 522/1/232 516/1/234 514/1/536 521/1/484
f 576/1/165 590/1/621 585/1/597 577/1/598
f 88/1/433 73/1/432 79/1/76 84/1/256
f 571/1/557 604/1/531 602/1/530 603/1/612
f 357/1/62 367/1/61 361/1/497 358/1/185
f 565/1/586 566/1/611 559/1/542 560/1/541
f 145/1/284 158/1/595 150/1/323 144/1/49
f 413/1/169 414/1/121 28/1/245 408/1/528
f 41/1/174 59/1/99 51/1/146 44/1/148
