# Blender 4.3.2
# www.blender.org
o hair.098
v 7.285245 0.212432 0.016813
v 7.307154 0.224403 0.021579
v 7.307713 0.220230 0.022574
v 7.301894 0.211139 0.030953
v 7.297915 0.211488 0.033636
v 7.312390 0.193494 -0.000021
v 7.313216 0.198283 0.004733
v 7.310007 0.217251 0.019199
v 7.311524 0.210099 0.017143
v 7.312854 0.196177 0.009473
v 7.293860 0.211763 0.035600
v 7.289607 0.211937 0.036792
v 7.285245 0.211999 0.037195
v 7.305484 0.210744 0.027601
v 7.308294 0.210326 0.023914
v 7.311296 0.194070 0.014213
v 7.311892 0.202084 0.015516
v 7.308099 0.215820 0.023345
v 7.310314 0.189185 -0.004380
v 7.262778 0.220230 0.022574
v 7.263337 0.224403 0.021579
v 7.272576 0.211488 0.033636
v 7.268597 0.211139 0.030953
v 7.257275 0.198283 0.004733
v 7.258101 0.193494 -0.000021
v 7.260484 0.217251 0.019199
v 7.258967 0.210099 0.017143
v 7.257637 0.196177 0.009473
v 7.280884 0.211937 0.036792
v 7.276631 0.211763 0.035600
v 7.265007 0.210744 0.027601
v 7.262197 0.210326 0.023914
v 7.258599 0.202084 0.015516
v 7.259195 0.194070 0.014213
v 7.262392 0.215820 0.023345
v 7.260177 0.189185 -0.004380
v 7.260484 0.217251 0.019199
v 7.258300 0.213800 0.015483
v 7.258967 0.210099 0.017143
v 7.258175 0.216788 0.013926
v 7.260455 0.220431 0.017609
v 7.263337 0.224403 0.021579
v 7.257125 0.210544 0.012297
v 7.257391 0.207329 0.014110
v 7.257561 0.199040 0.012139
v 7.258599 0.202084 0.015516
v 7.260677 0.222941 0.016087
v 7.257000 0.213676 0.010410
v 7.258565 0.219615 0.012214
v 7.257210 0.216713 0.008524
v 7.256695 0.203996 0.010654
v 7.256239 0.207404 0.008837
v 7.256126 0.210742 0.006883
v 7.259195 0.194070 0.014213
v 7.259191 0.222726 0.009931
v 7.256416 0.213921 0.004817
v 7.257277 0.217486 0.002356
v 7.257962 0.220067 0.006158
v 7.256032 0.204327 0.005430
v 7.256625 0.201189 0.007589
v 7.255812 0.207617 0.003145
v 7.255997 0.210921 0.000854
v 7.257637 0.196177 0.009473
v 7.259008 0.223194 0.003755
v 7.257275 0.198283 0.004733
v 7.256442 0.200935 0.001652
v 7.256073 0.204262 -0.000923
v 7.256793 0.214746 -0.001709
v 7.256100 0.207723 -0.003383
v 7.256763 0.211830 -0.005993
v 7.257401 0.196984 -0.002801
v 7.258101 0.193494 -0.000021
v 7.256926 0.200640 -0.005459
v 7.256877 0.204351 -0.007903
v 7.257923 0.218335 -0.003983
v 7.257442 0.208745 -0.010431
v 7.257847 0.215707 -0.008197
v 7.258404 0.212929 -0.012540
v 7.260177 0.189185 -0.004380
v 7.259079 0.192590 -0.007515
v 7.258399 0.197011 -0.010011
v 7.258332 0.201020 -0.012454
v 7.258857 0.205715 -0.014891
v 7.258388 0.220820 0.000018
v 7.259813 0.219812 -0.010311
v 7.261672 0.188586 -0.011363
v 7.264055 0.184224 -0.008254
v 7.260601 0.193393 -0.014296
v 7.260538 0.197927 -0.016789
v 7.261101 0.202943 -0.019249
v 7.259722 0.210194 -0.016883
v 7.261987 0.207669 -0.021092
v 7.260289 0.224328 -0.002636
v 7.265348 0.185154 -0.014718
v 7.263970 0.190263 -0.017988
v 7.267915 0.180533 -0.011271
v 7.263939 0.195168 -0.020653
v 7.264505 0.200488 -0.023176
v 7.261463 0.215010 -0.018459
v 7.259883 0.222125 -0.006369
v 7.269362 0.182846 -0.017313
v 7.268576 0.187762 -0.021132
v 7.268590 0.192789 -0.024047
v 7.271526 0.178196 -0.013207
v 7.260269 0.217398 -0.014388
v 7.262344 0.225693 -0.008648
v 7.262299 0.223675 -0.012155
v 7.262715 0.221601 -0.015788
v 7.273929 0.186013 -0.023093
v 7.275532 0.176881 -0.014444
v 7.274481 0.181263 -0.019106
v 7.260858 0.226439 0.000844
v 7.263208 0.229444 -0.002244
v 7.262695 0.227620 -0.005331
v 7.265595 0.225037 -0.016588
v 7.265193 0.226800 -0.013494
v 7.279619 0.180200 -0.020190
v 7.280049 0.176100 -0.015236
v 7.261988 0.228615 0.004343
v 7.260190 0.225644 0.007485
v 7.265534 0.230158 -0.007624
v 7.265226 0.228518 -0.010481
v 7.268906 0.229540 -0.014461
v 7.285245 0.175774 -0.015394
v 7.262321 0.228318 0.011411
v 7.261138 0.225757 0.013906
v 7.265965 0.231702 -0.004977
v 7.269204 0.232153 -0.009811
v 7.268939 0.230877 -0.012095
v 7.269269 0.228127 -0.016866
v 7.272689 0.231710 -0.015142
v 7.263562 0.228378 0.017408
v 7.263275 0.226074 0.020080
v 7.264248 0.231309 0.000875
v 7.272713 0.232687 -0.013441
v 7.270157 0.226660 -0.019280
v 7.272974 0.230648 -0.016880
v 7.266640 0.223257 -0.019663
v 7.265576 0.227498 0.022871
v 7.265402 0.225042 0.025196
v 7.265128 0.220787 0.026525
v 7.262778 0.220230 0.022574
v 7.266163 0.233317 0.004235
v 7.266872 0.233249 -0.002321
v 7.273662 0.229511 -0.018672
v 7.275936 0.232198 -0.016667
v 7.263813 0.219549 -0.019435
v 7.262392 0.215820 0.023345
v 7.268590 0.234870 0.000526
v 7.270279 0.234635 -0.005455
v 7.269542 0.233401 -0.007626
v 7.275724 0.232985 -0.015313
v 7.275745 0.233678 -0.014049
v 7.265851 0.217582 -0.022945
v 7.268523 0.221493 -0.022601
v 7.263662 0.212757 -0.022352
v 7.273208 0.234584 -0.009947
v 7.272926 0.233627 -0.011730
v 7.278722 0.233903 -0.015312
v 7.275913 0.234346 -0.012793
v 7.278855 0.234753 -0.013615
v 7.266891 0.210678 -0.025797
v 7.265373 0.205399 -0.024862
v 7.273791 0.235526 -0.008166
v 7.276145 0.235067 -0.011449
v 7.276453 0.231322 -0.018078
v 7.279214 0.232767 -0.017343
v 7.271691 0.225167 -0.021670
v 7.274840 0.228309 -0.020540
v 7.269707 0.203437 -0.028113
v 7.269028 0.198386 -0.026517
v 7.276599 0.235790 -0.010092
v 7.279348 0.235745 -0.011839
v 7.277348 0.230367 -0.019506
v 7.273748 0.223784 -0.023887
v 7.271063 0.219862 -0.025277
v 7.276421 0.227189 -0.022303
v 7.274286 0.196826 -0.029050
v 7.273969 0.190972 -0.026375
v 7.277427 0.236454 -0.008814
v 7.285245 0.234549 -0.015019
v 7.268785 0.215721 -0.026029
v 7.274088 0.218472 -0.027582
v 7.279558 0.189892 -0.027742
v 7.279536 0.184910 -0.024340
v 7.274900 0.236409 -0.006477
v 7.272310 0.214109 -0.028694
v 7.270871 0.208866 -0.028793
v 7.285245 0.184580 -0.024696
v 7.285245 0.179875 -0.020467
v 7.271729 0.235853 -0.003243
v 7.273751 0.236997 -0.001134
v 7.276440 0.237238 -0.004913
v 7.280686 0.231345 -0.019132
v 7.290872 0.180200 -0.020190
v 7.290442 0.176100 -0.015236
v 7.271017 0.236409 0.003268
v 7.268899 0.235250 0.007498
v 7.278573 0.237076 -0.007633
v 7.280677 0.236632 -0.010157
v 7.278549 0.229474 -0.020838
v 7.294959 0.176881 -0.014444
v 7.272410 0.236894 0.010348
v 7.274058 0.237720 0.005620
v 7.267017 0.233373 0.012116
v 7.264061 0.230976 0.008078
v 7.279993 0.237675 -0.006560
v 7.278315 0.226301 -0.023786
v 7.276216 0.238021 0.000744
v 7.278322 0.238025 -0.003492
v 7.281625 0.238170 -0.005703
v 7.282764 0.237381 -0.008835
v 7.280474 0.238669 -0.002360
v 7.276206 0.222649 -0.025784
v 7.278925 0.221547 -0.027402
v 7.279024 0.238833 0.002220
v 7.264708 0.230613 0.014928
v 7.283400 0.238473 -0.005178
v 7.282813 0.239066 -0.001667
v 7.277122 0.217200 -0.029470
v 7.277550 0.238723 0.007416
v 7.276452 0.238121 0.012519
v 7.265915 0.231530 0.016120
v 7.265600 0.229642 0.019555
v 7.282074 0.239340 0.003117
v 7.285245 0.239203 -0.001430
v 7.275999 0.212774 -0.030790
v 7.279487 0.212066 -0.031465
v 7.275212 0.207468 -0.031110
v 7.267138 0.232159 0.017486
v 7.267445 0.230568 0.021406
v 7.267690 0.228197 0.024823
v 7.281327 0.239341 0.008484
v 7.279543 0.206797 -0.032026
v 7.270125 0.233601 0.019914
v 7.270991 0.235472 0.015347
v 7.269246 0.228631 0.026103
v 7.269797 0.231421 0.023249
v 7.268734 0.225487 0.028346
v 7.280782 0.238811 0.013731
v 7.280316 0.201399 -0.032171
v 7.285245 0.201050 -0.032828
v 7.275612 0.236803 0.017969
v 7.270998 0.228937 0.027273
v 7.272298 0.232151 0.025041
v 7.280493 0.237436 0.019227
v 7.285245 0.237618 0.019578
v 7.285245 0.239021 0.014095
v 7.274766 0.202070 -0.030643
v 7.273793 0.229241 0.028873
v 7.273512 0.234528 0.022102
v 7.280749 0.235560 0.024113
v 7.289709 0.238811 0.013731
v 7.289164 0.239341 0.008484
v 7.285245 0.239553 0.008837
v 7.285245 0.239517 0.003420
v 7.275106 0.234924 0.022789
v 7.288416 0.239340 0.003117
v 7.279890 0.195991 -0.030549
v 7.285245 0.195729 -0.030911
v 7.274738 0.232590 0.026207
v 7.276848 0.235161 0.023397
v 7.277520 0.232896 0.027095
v 7.285245 0.189537 -0.028155
v 7.290175 0.201399 -0.032171
v 7.290947 0.206797 -0.032026
v 7.277321 0.229427 0.030284
v 7.281203 0.229609 0.031116
v 7.281199 0.233078 0.027769
v 7.285245 0.235687 0.024415
v 7.285245 0.233154 0.028028
v 7.290933 0.189892 -0.027742
v 7.290955 0.184910 -0.024340
v 7.295279 0.207468 -0.031110
v 7.291004 0.212066 -0.031465
v 7.276681 0.226058 0.032554
v 7.289742 0.235560 0.024113
v 7.289998 0.237436 0.019227
v 7.290601 0.195991 -0.030549
v 7.296562 0.186013 -0.023093
v 7.296010 0.181263 -0.019106
v 7.294492 0.212774 -0.030790
v 7.293368 0.217200 -0.029470
v 7.272691 0.225773 0.030837
v 7.294879 0.236803 0.017969
v 7.296205 0.196826 -0.029050
v 7.295724 0.202070 -0.030643
v 7.301128 0.182846 -0.017313
v 7.298965 0.178196 -0.013207
v 7.298181 0.214109 -0.028694
v 7.296402 0.218472 -0.027582
v 7.291565 0.221547 -0.027402
v 7.272198 0.221543 0.032374
v 7.296522 0.190972 -0.026375
v 7.300784 0.203437 -0.028113
v 7.299620 0.208866 -0.028793
v 7.302576 0.180533 -0.011271
v 7.301706 0.215721 -0.026029
v 7.303600 0.210678 -0.025797
v 7.294284 0.222649 -0.025784
v 7.292176 0.226301 -0.023786
v 7.301900 0.192789 -0.024047
v 7.301915 0.187762 -0.021132
v 7.305143 0.185154 -0.014718
v 7.306436 0.184224 -0.008254
v 7.304639 0.217582 -0.022945
v 7.299428 0.219862 -0.025277
v 7.296742 0.223784 -0.023887
v 7.294070 0.227189 -0.022303
v 7.291942 0.229474 -0.020838
v 7.301463 0.198386 -0.026517
v 7.306520 0.190263 -0.017988
v 7.308818 0.188586 -0.011363
v 7.310314 0.189185 -0.004380
v 7.301968 0.221493 -0.022601
v 7.298800 0.225167 -0.021670
v 7.295650 0.228309 -0.020540
v 7.293143 0.230367 -0.019506
v 7.289805 0.231345 -0.019132
v 7.305986 0.200488 -0.023176
v 7.305118 0.205399 -0.024862
v 7.306551 0.195168 -0.020653
v 7.313089 0.196984 -0.002801
v 7.312390 0.193494 -0.000021
v 7.311411 0.192590 -0.007515
v 7.300334 0.226660 -0.019280
v 7.296829 0.229511 -0.018672
v 7.291276 0.232767 -0.017343
v 7.308504 0.207669 -0.021092
v 7.306829 0.212757 -0.022352
v 7.309953 0.197927 -0.016789
v 7.313216 0.198283 0.004733
v 7.312091 0.197011 -0.010011
v 7.309028 0.215010 -0.018459
v 7.306677 0.219549 -0.019435
v 7.309890 0.193393 -0.014296
v 7.309390 0.202943 -0.019249
v 7.313565 0.200640 -0.005459
v 7.314417 0.204262 -0.000923
v 7.314049 0.200935 0.001652
v 7.307775 0.221601 -0.015788
v 7.303851 0.223257 -0.019663
v 7.311634 0.205715 -0.014891
v 7.310769 0.210194 -0.016883
v 7.313613 0.204351 -0.007903
v 7.314458 0.204327 0.005430
v 7.304896 0.225037 -0.016588
v 7.301222 0.228127 -0.016866
v 7.297516 0.230648 -0.016880
v 7.312159 0.201020 -0.012454
v 7.312087 0.212929 -0.012540
v 7.310222 0.217398 -0.014388
v 7.313866 0.201189 0.007589
v 7.312930 0.199040 0.012139
v 7.312854 0.196177 0.009473
v 7.301585 0.229540 -0.014461
v 7.297802 0.231710 -0.015142
v 7.294555 0.232198 -0.016667
v 7.294038 0.231322 -0.018078
v 7.310678 0.219812 -0.010311
v 7.308192 0.223675 -0.012155
v 7.311296 0.194070 0.014213
v 7.291769 0.233903 -0.015312
v 7.294766 0.232985 -0.015313
v 7.313048 0.208745 -0.010431
v 7.313728 0.211830 -0.005993
v 7.314391 0.207723 -0.003383
v 7.305297 0.226800 -0.013494
v 7.311892 0.202084 0.015516
v 7.294746 0.233678 -0.014049
v 7.312644 0.215707 -0.008197
v 7.314494 0.210921 0.000854
v 7.314679 0.207617 0.003145
v 7.311524 0.210099 0.017143
v 7.301552 0.230877 -0.012095
v 7.297778 0.232687 -0.013441
v 7.312568 0.218335 -0.003983
v 7.310608 0.222125 -0.006369
v 7.308146 0.225693 -0.008648
v 7.314365 0.210742 0.006883
v 7.314252 0.207404 0.008837
v 7.313796 0.203996 0.010654
v 7.297565 0.233627 -0.011730
v 7.301287 0.232153 -0.009811
v 7.310202 0.224328 -0.002636
v 7.313697 0.214746 -0.001709
v 7.313366 0.210544 0.012297
v 7.313100 0.207329 0.014110
v 7.294578 0.234346 -0.012793
v 7.291636 0.234753 -0.013615
v 7.305264 0.228518 -0.010481
v 7.314075 0.213921 0.004817
v 7.312191 0.213800 0.015483
v 7.294345 0.235067 -0.011449
v 7.291142 0.235745 -0.011839
v 7.307796 0.227620 -0.005331
v 7.313491 0.213676 0.010410
v 7.313281 0.216713 0.008524
v 7.310007 0.217251 0.019199
v 7.312315 0.216788 0.013926
v 7.297283 0.234584 -0.009947
v 7.307283 0.229444 -0.002244
v 7.304956 0.230158 -0.007624
v 7.310036 0.220431 0.017609
v 7.307154 0.224403 0.021579
v 7.309813 0.222941 0.016087
v 7.311926 0.219615 0.012214
v 7.304525 0.231702 -0.004977
v 7.300949 0.233401 -0.007626
v 7.304915 0.227498 0.022871
v 7.305089 0.225042 0.025196
v 7.307216 0.226074 0.020080
v 7.305363 0.220787 0.026525
v 7.307713 0.220230 0.022574
v 7.311300 0.222726 0.009931
v 7.300211 0.234635 -0.005455
v 7.302801 0.228197 0.024823
v 7.301757 0.225487 0.028346
v 7.306929 0.228378 0.017408
v 7.308099 0.215820 0.023345
v 7.313214 0.217486 0.002356
v 7.312529 0.220067 0.006158
v 7.296700 0.235526 -0.008166
v 7.303046 0.230568 0.021406
v 7.301245 0.228631 0.026103
v 7.309353 0.225757 0.013906
v 7.311482 0.223194 0.003755
v 7.293891 0.235790 -0.010092
v 7.304891 0.229642 0.019555
v 7.308169 0.228318 0.011411
v 7.310300 0.225644 0.007485
v 7.293064 0.236454 -0.008814
v 7.289814 0.236632 -0.010157
v 7.305783 0.230613 0.014928
v 7.304575 0.231530 0.016120
v 7.308503 0.228615 0.004343
v 7.312103 0.220820 0.000018
v 7.285245 0.237660 -0.008352
v 7.287726 0.237381 -0.008835
v 7.295590 0.236409 -0.006477
v 7.309633 0.226439 0.000844
v 7.285245 0.238577 -0.004998
v 7.287091 0.238473 -0.005178
v 7.288866 0.238170 -0.005703
v 7.290498 0.237675 -0.006560
v 7.291918 0.237076 -0.007633
v 7.294051 0.237238 -0.004913
v 7.306242 0.231309 0.000875
v 7.290017 0.238669 -0.002360
v 7.287678 0.239066 -0.001667
v 7.292169 0.238025 -0.003492
v 7.296740 0.236997 -0.001134
v 7.306429 0.230976 0.008078
v 7.304328 0.233317 0.004235
v 7.303619 0.233249 -0.002321
v 7.291467 0.238833 0.002220
v 7.294275 0.238021 0.000744
v 7.298761 0.235853 -0.003243
v 7.303474 0.233373 0.012116
v 7.301591 0.235250 0.007498
v 7.301901 0.234870 0.000526
v 7.292941 0.238723 0.007416
v 7.296432 0.237720 0.005620
v 7.298080 0.236894 0.010348
v 7.299474 0.236409 0.003268
v 7.294039 0.238121 0.012519
v 7.303353 0.232159 0.017486
v 7.299500 0.235472 0.015347
v 7.300366 0.233601 0.019914
v 7.300694 0.231421 0.023249
v 7.293643 0.235161 0.023397
v 7.295385 0.234924 0.022789
v 7.296978 0.234528 0.022102
v 7.298193 0.232151 0.025041
v 7.299493 0.228937 0.027273
v 7.292971 0.232896 0.027095
v 7.295753 0.232590 0.026207
v 7.289292 0.233078 0.027769
v 7.296698 0.229241 0.028873
v 7.302099 0.221185 0.029772
v 7.298293 0.221543 0.032374
v 7.297800 0.225773 0.030837
v 7.289288 0.229609 0.031116
v 7.293170 0.229427 0.030284
v 7.285245 0.229665 0.031408
v 7.293809 0.226058 0.032554
v 7.302059 0.216678 0.030536
v 7.305374 0.216283 0.027224
v 7.289588 0.226235 0.033604
v 7.285245 0.226297 0.033962
v 7.280902 0.226235 0.033604
v 7.289739 0.222003 0.035436
v 7.294119 0.221825 0.034278
v 7.305484 0.210744 0.027601
v 7.308294 0.210326 0.023914
v 7.285245 0.222066 0.035829
v 7.280752 0.222003 0.035436
v 7.276372 0.221825 0.034278
v 7.294087 0.217314 0.035147
v 7.285245 0.217556 0.036733
v 7.289722 0.217493 0.036332
v 7.298246 0.217033 0.033198
v 7.301894 0.211139 0.030953
v 7.280768 0.217493 0.036332
v 7.276404 0.217314 0.035147
v 7.293860 0.211763 0.035600
v 7.297915 0.211488 0.033636
v 7.289607 0.211937 0.036792
v 7.285245 0.211999 0.037195
v 7.280884 0.211937 0.036792
v 7.272245 0.217033 0.033198
v 7.272576 0.211488 0.033636
v 7.276631 0.211763 0.035600
v 7.268432 0.216678 0.030536
v 7.268597 0.211139 0.030953
v 7.268392 0.221185 0.029772
v 7.265117 0.216283 0.027224
v 7.265007 0.210744 0.027601
v 7.262197 0.210326 0.023914
v 7.279238 0.198175 -0.037814
v 7.276306 0.202987 -0.036667
v 7.277851 0.199424 -0.039410
v 7.278028 0.201585 -0.034589
v 7.280338 0.200523 -0.033008
v 7.281125 0.197235 -0.036541
v 7.281723 0.195865 -0.039092
v 7.280795 0.195873 -0.041005
v 7.279741 0.196792 -0.042588
v 7.277364 0.200901 -0.041190
v 7.277272 0.206497 -0.032372
v 7.283146 0.196667 -0.035716
v 7.282753 0.200035 -0.031951
v 7.279832 0.205500 -0.030496
v 7.282867 0.194450 -0.043300
v 7.283286 0.194915 -0.039634
v 7.279175 0.198022 -0.043710
v 7.281057 0.196096 -0.046240
v 7.282032 0.194954 -0.045796
v 7.285245 0.199630 -0.031703
v 7.285245 0.196478 -0.035414
v 7.285245 0.194679 -0.039649
v 7.279999 0.211921 -0.027542
v 7.285245 0.193956 -0.044203
v 7.285245 0.193162 -0.051486
v 7.279647 0.199095 -0.045050
v 7.281939 0.196733 -0.047580
v 7.287344 0.196667 -0.035716
v 7.287738 0.200035 -0.031951
v 7.287623 0.194450 -0.043300
v 7.287205 0.194915 -0.039634
v 7.279145 0.215108 -0.026650
v 7.276585 0.216319 -0.029290
v 7.276812 0.211679 -0.030768
v 7.282747 0.198439 -0.047733
v 7.290153 0.200523 -0.033008
v 7.290659 0.205500 -0.030496
v 7.288768 0.195865 -0.039092
v 7.279040 0.218642 -0.025246
v 7.274821 0.212849 -0.033542
v 7.275368 0.207783 -0.034848
v 7.293219 0.206497 -0.032372
v 7.290492 0.211921 -0.027542
v 7.289696 0.195873 -0.041005
v 7.289366 0.197235 -0.036541
v 7.291253 0.198175 -0.037814
v 7.274723 0.209294 -0.037746
v 7.275727 0.204652 -0.039083
v 7.293906 0.216319 -0.029290
v 7.291346 0.215108 -0.026650
v 7.293679 0.211679 -0.030768
v 7.290750 0.196792 -0.042588
v 7.288458 0.194954 -0.045796
v 7.276272 0.206232 -0.041451
v 7.277787 0.202317 -0.042938
v 7.291451 0.218642 -0.025246
v 7.295670 0.212849 -0.033542
v 7.289433 0.196096 -0.046240
v 7.292463 0.201585 -0.034589
v 7.279077 0.203388 -0.044436
v 7.280636 0.200230 -0.045968
v 7.293860 0.223249 -0.026367
v 7.291616 0.221444 -0.023896
v 7.293923 0.220123 -0.027911
v 7.294185 0.202987 -0.036667
v 7.295123 0.207783 -0.034848
v 7.292640 0.199424 -0.039410
v 7.281550 0.201705 -0.046267
v 7.293618 0.226028 -0.024764
v 7.291793 0.223968 -0.022703
v 7.295895 0.221677 -0.030862
v 7.295927 0.217598 -0.032236
v 7.295768 0.209294 -0.037746
v 7.293127 0.200901 -0.041190
v 7.294764 0.204652 -0.039083
v 7.291316 0.198022 -0.043710
v 7.291991 0.226443 -0.021487
v 7.296751 0.218963 -0.035691
v 7.296386 0.214170 -0.036787
v 7.295166 0.210721 -0.040572
v 7.295793 0.215405 -0.039944
v 7.294219 0.206232 -0.041451
v 7.290844 0.199095 -0.045050
v 7.292704 0.202317 -0.042938
v 7.288552 0.196733 -0.047580
v 7.293262 0.228611 -0.022963
v 7.292750 0.230428 -0.021106
v 7.291985 0.228379 -0.020268
v 7.293387 0.211762 -0.042830
v 7.292623 0.207395 -0.043395
v 7.291414 0.203388 -0.044436
v 7.285245 0.197928 -0.048672
v 7.287744 0.198439 -0.047733
v 7.295055 0.228258 -0.026987
v 7.294245 0.230959 -0.024524
v 7.291565 0.229685 -0.019160
v 7.290400 0.208162 -0.044853
v 7.285245 0.201040 -0.047586
v 7.289855 0.200230 -0.045968
v 7.287329 0.201072 -0.047165
v 7.288940 0.201705 -0.046267
v 7.283162 0.201072 -0.047165
v 7.295645 0.225184 -0.029076
v 7.291916 0.231552 -0.019413
v 7.290590 0.230140 -0.017222
v 7.287495 0.204551 -0.046359
v 7.289586 0.204121 -0.045594
v 7.282996 0.204551 -0.046359
v 7.280905 0.204121 -0.045594
v 7.296412 0.227291 -0.032183
v 7.290841 0.233383 -0.017324
v 7.285245 0.231724 -0.007894
v 7.285245 0.204692 -0.046647
v 7.280091 0.208162 -0.044853
v 7.277868 0.207395 -0.043395
v 7.295644 0.230738 -0.029481
v 7.290923 0.212446 -0.044510
v 7.288177 0.212817 -0.045682
v 7.287905 0.208576 -0.045823
v 7.285245 0.208696 -0.046191
v 7.277104 0.211762 -0.042830
v 7.275325 0.210721 -0.040572
v 7.291293 0.216931 -0.044273
v 7.293915 0.216316 -0.042427
v 7.285245 0.212925 -0.046148
v 7.282586 0.208576 -0.045823
v 7.282314 0.212817 -0.045682
v 7.274698 0.215405 -0.039944
v 7.274105 0.214170 -0.036787
v 7.294528 0.221200 -0.041894
v 7.296510 0.220231 -0.039163
v 7.285245 0.217414 -0.046160
v 7.279568 0.212446 -0.044510
v 7.273739 0.218963 -0.035691
v 7.274564 0.217598 -0.032236
v 7.296594 0.224878 -0.037742
v 7.296763 0.223316 -0.034300
v 7.288371 0.217294 -0.045610
v 7.276576 0.216316 -0.042427
v 7.279198 0.216931 -0.044273
v 7.274596 0.221677 -0.030862
v 7.276567 0.220123 -0.027911
v 7.288612 0.222323 -0.045334
v 7.291732 0.221877 -0.043891
v 7.275963 0.221200 -0.041894
v 7.282120 0.217294 -0.045610
v 7.276630 0.223249 -0.026367
v 7.278874 0.221444 -0.023896
v 7.296228 0.229372 -0.035277
v 7.291818 0.226944 -0.042476
v 7.294634 0.226082 -0.040475
v 7.281879 0.222323 -0.045334
v 7.278698 0.223968 -0.022703
v 7.276873 0.226028 -0.024764
v 7.294343 0.230996 -0.037777
v 7.295448 0.233234 -0.031924
v 7.294393 0.236265 -0.027837
v 7.294609 0.233585 -0.026224
v 7.278759 0.221877 -0.043891
v 7.278500 0.226443 -0.021487
v 7.293715 0.235212 -0.033922
v 7.291677 0.232214 -0.039664
v 7.293412 0.235084 -0.022917
v 7.293308 0.232632 -0.021986
v 7.278673 0.226944 -0.042476
v 7.277229 0.228611 -0.022963
v 7.277740 0.230428 -0.021106
v 7.278506 0.228379 -0.020268
v 7.292105 0.233523 -0.019674
v 7.291948 0.235653 -0.019936
v 7.292994 0.237553 -0.023771
v 7.276246 0.230959 -0.024524
v 7.275436 0.228258 -0.026987
v 7.278925 0.229685 -0.019160
v 7.291344 0.237745 -0.020199
v 7.289986 0.236841 -0.017263
v 7.291622 0.239588 -0.024509
v 7.292836 0.238413 -0.029176
v 7.274846 0.225184 -0.029076
v 7.278574 0.231552 -0.019413
v 7.279901 0.230140 -0.017222
v 7.290202 0.239554 -0.020447
v 7.287904 0.239595 -0.017346
v 7.291270 0.236717 -0.035441
v 7.290610 0.239983 -0.030168
v 7.274078 0.227291 -0.032183
v 7.273727 0.223316 -0.034300
v 7.289724 0.241105 -0.025080
v 7.288695 0.240943 -0.020675
v 7.288443 0.237819 -0.036599
v 7.288659 0.233144 -0.041120
v 7.274847 0.230738 -0.029481
v 7.273897 0.224878 -0.037742
v 7.274263 0.229372 -0.035277
v 7.273981 0.220231 -0.039163
v 7.288658 0.227544 -0.043903
v 7.275882 0.233585 -0.026224
v 7.277183 0.232632 -0.021986
v 7.277079 0.235084 -0.022917
v 7.275043 0.233234 -0.031924
v 7.276148 0.230996 -0.037777
v 7.288038 0.240991 -0.030888
v 7.287562 0.242063 -0.025505
v 7.276098 0.236265 -0.027837
v 7.278386 0.233523 -0.019674
v 7.275857 0.226082 -0.040475
v 7.285245 0.241360 -0.031184
v 7.285245 0.238194 -0.037031
v 7.279650 0.233383 -0.017324
v 7.278543 0.235653 -0.019936
v 7.285245 0.227782 -0.044486
v 7.285245 0.233472 -0.041656
v 7.287013 0.241758 -0.020860
v 7.276776 0.235212 -0.033922
v 7.277497 0.237553 -0.023771
v 7.278814 0.232214 -0.039664
v 7.281832 0.233144 -0.041120
v 7.285245 0.240397 -0.017510
v 7.277655 0.238413 -0.029176
v 7.278869 0.239588 -0.024509
v 7.279147 0.237745 -0.020199
v 7.280505 0.236841 -0.017263
v 7.281833 0.227544 -0.043903
v 7.285245 0.222492 -0.045931
v 7.282048 0.237819 -0.036599
v 7.280289 0.239554 -0.020447
v 7.282587 0.239595 -0.017346
v 7.282453 0.240991 -0.030888
v 7.279881 0.239983 -0.030168
v 7.279221 0.236717 -0.035441
v 7.285245 0.242405 -0.025680
v 7.282929 0.242063 -0.025505
v 7.281796 0.240943 -0.020675
v 7.280766 0.241105 -0.025080
v 7.283478 0.241758 -0.020860
v 7.285245 0.242023 -0.020950
vn -0.0000 -0.9556 0.2948
vn 0.4413 -0.8792 0.1797
vn 0.2979 -0.1635 -0.9405
vn -0.0884 -0.9960 0.0131
vn -0.0768 -0.9970 0.0019
vn -0.0458 -0.6995 0.7131
vn -0.3017 -0.8895 0.3433
vn -0.0327 -0.3036 0.9523
vn -0.0332 -0.2363 0.9711
vn -0.5405 -0.7262 -0.4247
vn -0.0578 -0.9983 -0.0090
vn -0.0309 -0.9994 -0.0180
vn -0.0000 -0.9998 -0.0212
vn -0.0979 -0.9948 0.0281
vn 0.1495 -0.7043 -0.6940
vn -0.5621 -0.8163 0.1328
vn -0.0200 -0.1750 0.9844
vn 0.2887 -0.1151 -0.9505
vn -0.0457 -0.6995 0.7132
vn -0.2979 -0.1635 -0.9405
vn -0.4413 -0.8792 0.1797
vn 0.0768 -0.9970 0.0019
vn 0.0884 -0.9960 0.0131
vn 0.3017 -0.8895 0.3433
vn 0.0458 -0.6995 0.7131
vn 0.0327 -0.3036 0.9523
vn 0.0332 -0.2363 0.9711
vn 0.5405 -0.7262 -0.4247
vn 0.0309 -0.9994 -0.0180
vn 0.0578 -0.9983 -0.0090
vn 0.0979 -0.9948 0.0281
vn -0.1495 -0.7043 -0.6940
vn 0.0200 -0.1750 0.9844
vn 0.5621 -0.8163 0.1328
vn -0.2887 -0.1151 -0.9505
vn 0.0457 -0.6995 0.7132
vn -0.8973 0.1612 0.4109
vn -0.9269 0.0926 0.3638
vn -0.9104 0.0199 0.4133
vn 0.9436 0.1877 0.2726
vn 0.9013 0.2379 0.3621
vn 0.8973 0.1612 0.4109
vn 0.9269 0.0926 0.3638
vn -0.8552 0.3077 0.4170
vn -0.9013 0.2379 0.3621
vn 0.9651 0.0597 0.2549
vn 0.9755 0.1298 0.1775
vn 0.9174 -0.0525 0.3946
vn 0.9104 0.0199 0.4133
vn -0.9174 -0.0525 0.3946
vn -0.9559 -0.1487 0.2533
vn -0.9428 -0.0450 0.3303
vn 0.9412 0.2746 0.1968
vn 0.9031 0.3228 0.2831
vn 0.8628 0.4417 0.2461
vn 0.7967 0.4403 0.4139
vn 0.8674 0.2173 0.4478
vn 0.9232 0.1845 0.3371
vn 0.7437 -0.3159 0.5892
vn 0.9194 -0.2395 0.3120
vn 0.9245 -0.1721 0.3400
vn 0.7630 -0.2527 0.5949
vn 0.6858 -0.2918 0.6667
vn 0.7957 -0.2243 0.5626
vn 0.7323 -0.2696 0.6253
vn -0.9783 -0.0733 0.1936
vn 0.9920 0.0780 0.0992
vn 0.9890 0.0001 0.1482
vn 0.9700 0.2199 0.1040
vn 0.9850 0.1696 0.0310
vn -0.9368 -0.1837 0.2979
vn -0.8503 0.1693 0.4983
vn -0.7790 0.1814 0.6003
vn -0.7527 0.3666 0.5469
vn 0.2292 0.7141 -0.6614
vn 0.2722 0.7347 -0.6215
vn 0.3806 0.6844 -0.6218
vn 0.3364 0.6554 -0.6762
vn -0.5612 0.5013 -0.6586
vn -0.5606 0.6727 -0.4829
vn -0.3252 0.7572 -0.5665
vn -0.3327 0.5516 -0.7649
vn 0.9937 -0.0960 0.0572
vn 0.9999 -0.0016 0.0125
vn 0.2470 0.9312 0.2681
vn -0.0000 0.8319 0.5549
vn 0.4463 0.6993 0.5583
vn 0.4713 0.8301 0.2978
vn -0.9844 -0.1555 0.0820
vn 0.9947 -0.0854 -0.0567
vn 0.9850 -0.1726 -0.0022
vn 0.9766 0.2000 -0.0789
vn 0.9675 0.2514 -0.0258
vn 0.9941 0.1019 -0.0368
vn -0.9732 -0.1965 0.1192
vn -0.0000 0.0248 -0.9997
vn -0.0000 0.1568 -0.9876
vn 0.3068 0.1459 -0.9405
vn 0.2939 0.0218 -0.9556
vn 0.9206 0.3895 -0.0272
vn 0.8793 0.4732 0.0542
vn 0.9247 0.3588 0.1276
vn 0.9543 0.2960 0.0410
vn -0.2652 0.9553 0.1307
vn -0.2275 0.9736 0.0171
vn -0.3343 0.9424 -0.0133
vn -0.4084 0.9084 0.0897
vn 0.9559 -0.1487 0.2533
vn 0.9732 -0.1965 0.1192
vn 0.9784 -0.2034 0.0378
vn 0.9844 -0.1555 0.0820
vn -0.2754 0.6089 -0.7439
vn -0.2992 0.5443 -0.7837
vn -0.3618 0.5644 -0.7420
vn -0.2950 0.6364 -0.7127
vn -0.4713 0.8301 0.2978
vn -0.2470 0.9312 0.2681
vn -0.2787 0.9597 -0.0350
vn -0.5133 0.8578 0.0272
vn 0.9800 0.1223 -0.1572
vn 0.9938 0.0168 -0.1100
vn -0.8931 0.3655 -0.2621
vn -0.8136 0.4848 -0.3211
vn -0.7943 0.4396 -0.4194
vn -0.8813 0.3035 -0.3624
vn 0.6087 0.7755 -0.1676
vn 0.4809 0.8431 -0.2408
vn 0.4110 0.8952 -0.1724
vn 0.5266 0.8445 -0.0971
vn -0.8141 0.5225 -0.2535
vn -0.6868 0.6482 -0.3288
vn -0.6852 0.6143 -0.3914
vn 0.9789 -0.0585 -0.1960
vn 0.9667 0.0409 -0.2528
vn -0.7141 0.0879 -0.6945
vn -0.5149 0.1244 -0.8482
vn -0.4962 0.0133 -0.8681
vn -0.6913 -0.0106 -0.7225
vn 0.9436 0.3050 -0.1290
vn 0.9356 0.3431 -0.0832
vn -0.9376 0.1635 -0.3068
vn -0.9481 0.2415 -0.2069
vn -0.4100 0.8392 -0.3572
vn -0.4257 0.8178 -0.3873
vn -0.5495 0.7577 -0.3521
vn -0.5300 0.7872 -0.3154
vn 0.9493 -0.2193 -0.2252
vn 0.9797 -0.1537 -0.1289
vn 0.9705 -0.2323 -0.0648
vn 0.9268 -0.3412 -0.1569
vn 0.9457 -0.1208 -0.3018
vn 0.9301 -0.0290 -0.3663
vn 0.9376 0.1635 -0.3068
vn 0.8982 0.0891 -0.4305
vn 0.8931 0.3655 -0.2621
vn 0.9481 0.2415 -0.2069
vn 0.8813 0.3035 -0.3624
vn -0.0000 0.9407 -0.3394
vn -0.0000 0.9983 -0.0576
vn 0.2787 0.9597 -0.0350
vn 0.2986 0.9019 -0.3120
vn 0.8448 -0.4684 -0.2587
vn 0.8753 -0.3123 -0.3692
vn 0.9000 -0.4199 -0.1166
vn 0.8008 -0.5629 -0.2047
vn 0.8704 -0.1947 -0.4522
vn 0.0646 0.9729 -0.2218
vn 0.0866 0.9887 -0.1221
vn 0.1672 0.9756 -0.1421
vn 0.1253 0.9636 -0.2363
vn -0.0000 0.2649 -0.9643
vn -0.0000 0.1735 -0.9848
vn 0.2667 0.1521 -0.9517
vn 0.3194 0.2308 -0.9191
vn 0.8837 0.4446 -0.1464
vn 0.8907 0.4134 -0.1891
vn -0.1135 0.9927 0.0395
vn -0.1011 0.9940 -0.0418
vn -0.1956 0.9786 -0.0640
vn 0.6190 0.7374 0.2705
vn 0.6267 0.7694 0.1237
vn 0.4692 0.8624 0.1903
vn 0.5213 0.7904 0.3216
vn -0.9493 -0.2193 -0.2252
vn -0.8753 -0.3123 -0.3692
vn -0.8448 -0.4684 -0.2587
vn -0.9268 -0.3412 -0.1569
vn -0.6611 0.7078 -0.2489
vn -0.6791 0.6717 -0.2960
vn 0.4707 0.0380 -0.8815
vn 0.2629 0.0589 -0.9630
vn 0.2782 0.0107 -0.9605
vn 0.4821 0.0071 -0.8761
vn 0.8106 0.0221 -0.5852
vn 0.8494 -0.1010 -0.5180
vn 0.7191 -0.1758 -0.6723
vn 0.6844 -0.0376 -0.7281
vn 0.8373 0.2353 -0.4934
vn 0.7453 0.1696 -0.6447
vn 0.5476 -0.6294 -0.5514
vn 0.7254 -0.5629 -0.3961
vn 0.6879 -0.6375 -0.3469
vn 0.5069 -0.6926 -0.5132
vn -0.9399 -0.0247 0.3407
vn -0.9379 -0.0539 0.3427
vn -0.8674 -0.1979 0.4566
vn -0.8943 -0.1700 0.4138
vn 0.5662 -0.3620 -0.7406
vn 0.7372 -0.2794 -0.6152
vn 0.7436 -0.4104 -0.5278
vn 0.5590 -0.4966 -0.6641
vn 0.5368 0.3144 -0.7829
vn 0.7340 0.2685 -0.6238
vn 0.7141 0.0879 -0.6945
vn 0.5149 0.1244 -0.8482
vn 0.8141 0.5225 -0.2535
vn 0.8136 0.4848 -0.3211
vn 0.7943 0.4396 -0.4194
vn 0.7396 0.3896 -0.5489
vn 0.9972 -0.0629 0.0407
vn 0.9963 0.0002 0.0861
vn 0.9319 -0.1149 0.3440
vn 0.9271 -0.1363 0.3492
vn 0.5979 0.5369 -0.5951
vn 0.6589 0.5765 -0.4832
vn 0.6506 0.7594 -0.0037
vn 0.5413 0.8395 0.0468
vn 0.7400 0.6697 0.0625
vn 0.7882 0.5942 -0.1602
vn 0.8654 0.4923 -0.0933
vn 0.8075 0.5499 -0.2133
vn -0.1275 0.6403 0.7575
vn -0.1128 0.7558 0.6450
vn -0.2267 0.7419 0.6310
vn -0.2577 0.6184 0.7424
vn 0.6852 0.6143 -0.3914
vn 0.6868 0.6482 -0.3288
vn -0.0000 0.9685 0.2491
vn -0.8127 0.5714 0.1141
vn -0.7418 0.6481 0.1725
vn -0.6267 0.7694 0.1237
vn -0.7400 0.6697 0.0625
vn 0.7350 0.6738 -0.0760
vn 0.8168 0.5769 -0.0076
vn -0.2894 0.8717 -0.3954
vn -0.2957 0.8603 -0.4151
vn 0.6791 0.6717 -0.2960
vn -0.6457 0.3384 -0.6846
vn -0.5441 0.2938 -0.7859
vn -0.6286 0.1165 -0.7690
vn -0.7453 0.1696 -0.6447
vn -0.9623 0.1388 0.2339
vn -0.9792 0.1042 0.1742
vn 0.1764 -0.7094 -0.6824
vn 0.1638 -0.7626 -0.6257
vn -0.0000 -0.7756 -0.6312
vn -0.0000 -0.7229 -0.6910
vn 0.8127 0.5714 0.1141
vn 0.8770 0.4385 0.1962
vn 0.5495 0.7577 -0.3521
vn 0.5300 0.7872 -0.3154
vn 0.6611 0.7078 -0.2489
vn 0.4355 0.7643 -0.4756
vn 0.4354 0.7986 -0.4155
vn 0.5582 0.7373 -0.3805
vn 0.5549 0.7040 -0.4432
vn 0.5271 0.6658 -0.5281
vn 0.4172 0.7231 -0.5505
vn 0.7418 0.6481 0.1725
vn 0.7983 0.5381 0.2705
vn 0.8352 0.4178 0.3575
vn -0.9920 0.0780 0.0992
vn -0.9999 -0.0016 0.0125
vn -0.9937 -0.0960 0.0572
vn -0.9890 0.0001 0.1482
vn 0.4257 0.8178 -0.3873
vn 0.9177 -0.3237 -0.2302
vn 0.9608 -0.2403 -0.1384
vn 0.8987 -0.3824 0.2146
vn 0.8480 -0.5257 0.0679
vn 0.3510 -0.6751 -0.6489
vn 0.3321 -0.7287 -0.5990
vn -0.9031 0.3228 0.2831
vn -0.8352 0.4178 0.3575
vn -0.7983 0.5381 0.2705
vn -0.8770 0.4385 0.1962
vn -0.8681 -0.0608 0.4926
vn -0.8591 0.0706 0.5069
vn -0.8772 -0.0577 0.4766
vn -0.8696 -0.0945 0.4847
vn -0.9784 -0.2034 0.0378
vn 0.7790 0.1814 0.6003
vn 0.8503 0.1693 0.4983
vn 0.8552 0.3077 0.4170
vn 0.7527 0.3666 0.5469
vn 0.9941 -0.1071 -0.0172
vn 0.3008 0.4051 -0.8633
vn 0.3656 0.4427 -0.8188
vn 0.4544 0.2598 -0.8521
vn 0.2864 0.2206 -0.9324
vn -0.1770 0.9503 -0.2563
vn -0.2315 0.9578 -0.1704
vn -0.1672 0.9756 -0.1421
vn -0.1253 0.9636 -0.2363
vn 0.3053 0.7786 -0.5483
vn 0.3109 0.8151 -0.4888
vn -0.4656 0.7046 0.5355
vn -0.3473 0.7221 0.5982
vn -0.3136 0.8531 0.4170
vn -0.4158 0.8265 0.3795
vn 0.3058 0.8464 -0.4360
vn -0.5342 0.8087 -0.2460
vn -0.7321 0.6669 -0.1387
vn -0.7054 0.6981 0.1228
vn 0.4755 0.6268 -0.6173
vn 0.5146 0.4993 -0.6970
vn 0.4166 0.5917 -0.6902
vn 0.4100 0.8392 -0.3572
vn 0.2957 0.8603 -0.4151
vn -0.3109 0.8151 -0.4888
vn -0.3058 0.8464 -0.4360
vn -0.1657 0.8643 -0.4749
vn 0.1657 0.8643 -0.4749
vn 0.1305 0.8002 -0.5853
vn -0.9705 -0.2323 -0.0648
vn -0.9797 -0.1537 -0.1289
vn 0.6286 0.1165 -0.7690
vn 0.6457 0.3384 -0.6846
vn 0.5441 0.2938 -0.7859
vn 0.2894 0.8717 -0.3954
vn 0.9194 0.0194 0.3929
vn 0.9399 -0.0247 0.3407
vn 0.9623 0.1388 0.2339
vn -0.3053 0.7786 -0.5483
vn -0.1305 0.8002 -0.5853
vn -0.2722 0.7347 -0.6215
vn 0.5466 -0.0937 -0.8321
vn 0.5143 0.0726 -0.8545
vn 0.5640 -0.2430 -0.7892
vn -0.2644 0.9008 -0.3445
vn -0.1496 0.8983 -0.4130
vn 0.7276 -0.4909 0.4791
vn -0.9177 -0.3237 -0.2302
vn -0.8384 -0.1241 -0.5307
vn -0.7921 -0.0808 -0.6050
vn -0.8714 -0.3849 -0.3040
vn 0.3618 0.5644 -0.7420
vn 0.4366 0.4666 -0.7692
vn 0.3852 -0.2997 -0.8728
vn 0.3697 -0.1363 -0.9191
vn 0.3809 -0.4340 -0.8164
vn 0.2312 0.9257 -0.2993
vn 0.3186 0.9187 -0.2333
vn 0.3710 0.8810 -0.2937
vn 0.2644 0.9008 -0.3445
vn -0.7567 -0.6524 -0.0422
vn -0.8480 -0.5257 0.0679
vn -0.1614 0.8827 -0.4413
vn -0.0000 0.8771 -0.4803
vn -0.8373 0.2353 -0.4934
vn -0.8982 0.0891 -0.4305
vn 0.2992 0.5443 -0.7837
vn 0.1911 -0.4783 -0.8572
vn 0.1946 -0.3418 -0.9194
vn 0.3691 -0.5633 -0.7393
vn 0.1868 -0.6041 -0.7747
vn -0.5582 0.7373 -0.3805
vn -0.4354 0.7986 -0.4155
vn -0.4355 0.7643 -0.4756
vn -0.5549 0.7040 -0.4432
vn -0.0000 0.5029 0.8644
vn -0.0000 0.2995 0.9541
vn 0.1712 0.2933 0.9406
vn 0.1533 0.4953 0.8551
vn 0.1800 0.0765 0.9807
vn 0.3506 0.0610 0.9345
vn 0.3479 0.1179 0.9301
vn 0.1784 0.1335 0.9749
vn 0.4962 0.0133 -0.8681
vn 0.6913 -0.0106 -0.7225
vn 0.6803 -0.0171 -0.7327
vn -0.4809 0.8431 -0.2408
vn -0.6087 0.7755 -0.1676
vn -0.7457 0.4324 -0.5070
vn -0.7470 0.5621 -0.3550
vn -0.0940 0.7600 -0.6431
vn -0.0000 -0.6180 -0.7862
vn -0.1764 -0.7094 -0.6824
vn -0.1868 -0.6041 -0.7747
vn 0.4337 0.8997 -0.0500
vn -0.2312 0.9257 -0.2993
vn -0.2039 0.9400 -0.2735
vn -0.1191 0.9210 -0.3709
vn -0.2205 0.7066 -0.6724
vn -0.2292 0.7141 -0.6614
vn -0.1638 -0.7626 -0.6257
vn -0.3321 -0.7287 -0.5990
vn -0.3510 -0.6751 -0.6489
vn 0.3343 0.9424 -0.0133
vn 0.4084 0.9084 0.0897
vn -0.5898 0.4160 0.6921
vn -0.4452 0.4460 0.7764
vn -0.3885 0.5950 0.7036
vn -0.4917 0.5887 0.6416
vn 0.1770 0.9503 -0.2563
vn 0.2315 0.9578 -0.1704
vn 0.2756 0.9406 -0.1982
vn 0.2039 0.9400 -0.2735
vn 0.2754 0.6089 -0.7439
vn 0.2950 0.6364 -0.7127
vn 0.4656 0.7046 0.5355
vn 0.3473 0.7221 0.5982
vn 0.3885 0.5950 0.7036
vn 0.4917 0.5887 0.6416
vn -0.0767 0.9338 -0.3496
vn -0.2724 0.5251 -0.8063
vn 0.2724 0.5251 -0.8063
vn 0.1956 0.9786 -0.0640
vn 0.2764 0.9562 -0.0959
vn 0.2275 0.9736 0.0171
vn -0.5591 0.6881 0.4625
vn -0.5745 0.5854 0.5721
vn -0.6803 -0.0171 -0.7327
vn -0.4821 0.0071 -0.8761
vn -0.4707 0.0380 -0.8815
vn -0.6696 -0.0125 -0.7426
vn 0.2652 0.9553 0.1307
vn -0.6699 0.7068 0.2273
vn -0.5266 0.8445 -0.0971
vn -0.6506 0.7594 -0.0037
vn -0.5413 0.8395 0.0468
vn -0.4337 0.8997 -0.0500
vn -0.0000 0.9933 -0.1154
vn -0.0000 0.9765 -0.2155
vn 0.3187 0.3408 -0.8844
vn 0.3327 0.5516 -0.7649
vn 0.5612 0.5013 -0.6586
vn -0.3008 0.4051 -0.8633
vn -0.1621 0.1685 -0.9723
vn -0.2864 0.2206 -0.9324
vn 0.2922 0.9218 0.2549
vn 0.1251 0.9787 0.1630
vn 0.1263 0.9471 0.2950
vn -0.4366 0.4666 -0.7692
vn -0.5146 0.4993 -0.6970
vn -0.4166 0.5917 -0.6902
vn -0.6190 0.7374 0.2705
vn 0.7260 0.5304 0.4377
vn 0.7062 0.6178 0.3459
vn 0.6337 0.6596 0.4041
vn 0.6309 0.5768 0.5188
vn -0.7383 0.0261 -0.6739
vn -0.8259 -0.4253 -0.3701
vn -0.7260 0.5304 0.4377
vn -0.6309 0.5768 0.5188
vn 0.1135 0.9927 0.0395
vn 0.1011 0.9940 -0.0418
vn -0.6337 0.6596 0.4041
vn -0.5213 0.7904 0.3216
vn 0.5591 0.6881 0.4625
vn 0.5745 0.5854 0.5721
vn -0.8691 -0.2317 0.4370
vn -0.8336 -0.2543 0.4904
vn 0.5898 0.4160 0.6921
vn 0.6310 0.2108 0.7466
vn -0.2044 0.0174 -0.9787
vn -0.0000 -0.2136 -0.9769
vn -0.1903 -0.1493 -0.9703
vn 0.3380 0.0374 -0.9404
vn 0.4158 0.8265 0.3795
vn -0.0000 0.9515 0.3077
vn -0.0000 0.9847 0.1745
vn -0.9675 0.2514 -0.0258
vn -0.9766 0.2000 -0.0789
vn -0.9941 0.1019 -0.0368
vn -0.9850 0.1696 0.0310
vn -0.3697 -0.1363 -0.9191
vn -0.3852 -0.2997 -0.8728
vn -0.5640 -0.2430 -0.7892
vn -0.5466 -0.0937 -0.8321
vn 0.4452 0.4460 0.7764
vn -0.9469 0.1460 -0.2864
vn -0.9344 0.0128 -0.3560
vn -0.9972 -0.0629 0.0407
vn -0.9963 0.0002 0.0861
vn 0.1165 0.8785 0.4633
vn -0.0000 0.8804 0.4742
vn -0.0000 0.9988 0.0481
vn -0.1251 0.9787 0.1630
vn -0.2743 -0.8163 0.5083
vn -0.3371 -0.6621 0.6693
vn -0.5317 -0.5611 0.6344
vn -0.5017 -0.7515 0.4284
vn -0.0000 0.9994 -0.0341
vn 0.3136 0.8531 0.4170
vn -0.2922 0.9218 0.2549
vn -0.0866 0.9887 -0.1221
vn -0.4875 0.2476 0.8372
vn -0.5008 0.0978 0.8600
vn -0.3479 0.1179 0.9301
vn -0.3351 0.2758 0.9009
vn -0.2184 0.8681 0.4457
vn 0.2267 0.7419 0.6310
vn 0.2184 0.8681 0.4457
vn -0.9348 0.3427 -0.0933
vn -0.9442 0.2622 -0.1992
vn 0.1128 0.7558 0.6450
vn -0.0000 -0.3610 -0.9325
vn -0.1946 -0.3418 -0.9194
vn 0.2044 0.0174 -0.9787
vn 0.1903 -0.1493 -0.9703
vn 0.1275 0.6403 0.7575
vn 0.2577 0.6184 0.7424
vn 0.3036 0.4746 0.8261
vn 0.3351 0.2758 0.9009
vn 0.4875 0.2476 0.8372
vn -0.0000 -0.4921 -0.8705
vn -0.1911 -0.4783 -0.8572
vn -0.3380 0.0374 -0.9404
vn 0.4681 0.1046 -0.8775
vn -0.1165 0.8785 0.4633
vn -0.0000 0.7604 0.6494
vn 0.5008 0.0978 0.8600
vn 0.6380 0.0838 0.7654
vn -0.3691 -0.5633 -0.7393
vn 0.1621 0.1685 -0.9723
vn -0.1263 0.9471 0.2950
vn -0.5004 0.0446 0.8646
vn -0.3506 0.0610 0.9345
vn -0.5476 -0.6294 -0.5514
vn -0.5590 -0.4966 -0.6641
vn -0.5069 -0.6926 -0.5132
vn -0.4544 0.2598 -0.8521
vn -0.3656 0.4427 -0.8188
vn -0.5143 0.0726 -0.8545
vn 0.1614 0.8827 -0.4413
vn -0.9800 0.1223 -0.1572
vn -0.9938 0.0168 -0.1100
vn -0.0000 0.6482 0.7615
vn -0.2986 0.9019 -0.3120
vn -0.0000 0.7963 -0.6049
vn 0.8937 -0.1106 0.4348
vn 0.8772 -0.0577 0.4766
vn 0.8696 -0.0945 0.4847
vn 0.8838 -0.1740 0.4343
vn -0.2756 0.9406 -0.1982
vn -0.5662 -0.3620 -0.7406
vn -0.3809 -0.4340 -0.8164
vn -0.7254 -0.5629 -0.3961
vn -0.6879 -0.6375 -0.3469
vn -0.8008 -0.5629 -0.2047
vn -0.9789 -0.0585 -0.1960
vn -0.9667 0.0409 -0.2528
vn -0.9301 -0.0290 -0.3663
vn -0.9457 -0.1208 -0.3018
vn -0.8106 0.0221 -0.5852
vn -0.9090 -0.0575 -0.4127
vn 0.2205 0.7066 -0.6724
vn -0.7436 -0.4104 -0.5278
vn 0.8691 -0.2317 0.4370
vn 0.8943 -0.1700 0.4138
vn -0.3364 0.6554 -0.6762
vn 0.0940 0.7600 -0.6431
vn -0.0000 0.0653 -0.9979
vn -0.0000 0.0099 -1.0000
vn -0.7191 -0.1758 -0.6723
vn -0.7372 -0.2794 -0.6152
vn -0.9000 -0.4199 -0.1166
vn -0.9606 -0.2755 -0.0363
vn 0.8222 -0.2201 0.5249
vn -0.4172 0.7231 -0.5505
vn -0.3806 0.6844 -0.6218
vn -0.0646 0.9729 -0.2218
vn 0.2743 -0.8163 0.5083
vn 0.3371 -0.6621 0.6693
vn -0.0000 -0.7582 0.6520
vn -0.0000 -0.8440 0.5364
vn -0.8704 -0.1947 -0.4522
vn -0.8494 -0.1010 -0.5180
vn -0.9850 -0.1726 -0.0022
vn 0.9090 -0.0575 -0.4127
vn 0.8910 -0.0746 -0.4478
vn -0.9651 0.0597 0.2549
vn -0.7396 0.3896 -0.5489
vn -0.8429 -0.2208 0.4907
vn -0.9355 -0.0883 0.3422
vn -0.9319 -0.1149 0.3440
vn -0.8222 -0.2201 0.5249
vn -0.5979 0.5369 -0.5951
vn -0.8168 0.5769 -0.0076
vn -0.7350 0.6738 -0.0760
vn -0.7882 0.5942 -0.1602
vn -0.8654 0.4923 -0.0933
vn -0.9947 -0.0854 -0.0567
vn -0.5271 0.6658 -0.5281
vn -0.6589 0.5765 -0.4832
vn -0.9206 0.3895 -0.0272
vn -0.8793 0.4732 0.0542
vn -0.4755 0.6268 -0.6173
vn -0.6310 0.2108 0.7466
vn -0.6891 -0.6649 0.2882
vn -0.7276 -0.4909 0.4791
vn -0.8987 -0.3824 0.2146
vn 0.9469 0.1460 -0.2864
vn 0.9442 0.2622 -0.1992
vn 0.9901 0.0603 0.1270
vn 0.7567 -0.6524 -0.0422
vn 0.6891 -0.6649 0.2882
vn 0.5830 -0.8006 0.1384
vn 0.9368 -0.1837 0.2979
vn 0.5317 -0.5611 0.6344
vn 0.6240 -0.3585 0.6943
vn 0.3252 0.7572 -0.5665
vn 0.5342 0.8087 -0.2460
vn 0.5606 0.6727 -0.4829
vn 0.9428 -0.0450 0.3303
vn 0.7573 0.0607 0.6502
vn 0.8089 0.0724 0.5835
vn 0.8249 0.0982 0.5566
vn 0.7662 0.0891 0.6364
vn -0.9436 0.3050 -0.1290
vn -0.8907 0.4134 -0.1891
vn -0.6844 -0.0376 -0.7281
vn 0.6074 0.1105 -0.7867
vn 0.6560 0.0238 -0.7544
vn 0.8384 -0.1241 -0.5307
vn 0.7921 -0.0808 -0.6050
vn 0.9783 -0.0733 0.1936
vn -0.8837 0.4446 -0.1464
vn -0.8075 0.5499 -0.2133
vn -0.9700 0.2199 0.1040
vn -0.9755 0.1298 0.1775
vn 0.1496 0.8983 -0.4130
vn -0.7967 0.4403 0.4139
vn -0.6752 0.6467 0.3549
vn -0.8628 0.4417 0.2461
vn -0.9436 0.1877 0.2726
vn -0.9412 0.2746 0.1968
vn -0.9862 -0.1515 -0.0662
vn -0.9941 -0.1071 -0.0172
vn -0.8910 -0.0746 -0.4478
vn -0.6372 -0.7656 -0.0883
vn -0.3749 -0.9231 0.0850
vn -0.5830 -0.8006 0.1384
vn 0.9113 0.4083 0.0539
vn 0.7321 0.6669 -0.1387
vn 0.7054 0.6981 0.1228
vn 0.9344 0.0128 -0.3560
vn -0.9247 0.3588 0.1276
vn -0.9543 0.2960 0.0410
vn 0.1191 0.9210 -0.3709
vn -0.3710 0.8810 -0.2937
vn -0.2789 -0.9242 0.2609
vn -0.0000 -0.9621 0.2728
vn -0.7062 0.6178 0.3459
vn -0.8249 0.0982 0.5566
vn -0.7662 0.0891 0.6364
vn -0.3068 0.1459 -0.9405
vn -0.2939 0.0218 -0.9556
vn 0.6699 0.7068 0.2273
vn -0.9356 0.3431 -0.0832
vn -0.3036 0.4746 0.8261
vn -0.1712 0.2933 0.9406
vn -0.1533 0.4953 0.8551
vn 0.7457 0.4324 -0.5070
vn -0.7573 0.0607 0.6502
vn -0.6345 0.0431 0.7717
vn -0.6380 0.0838 0.7654
vn -0.0000 0.9411 -0.3382
vn 0.0767 0.9338 -0.3496
vn -0.4110 0.8952 -0.1724
vn -0.3186 0.9187 -0.2333
vn 0.3440 0.9299 -0.1303
vn -0.3440 0.9299 -0.1303
vn -0.2764 0.9562 -0.0959
vn 0.8684 -0.1107 -0.4833
vn 0.6696 -0.0125 -0.7426
vn -0.9232 0.1845 0.3371
vn -0.9113 0.4083 0.0539
vn -0.4604 0.2522 -0.8511
vn -0.3194 0.2308 -0.9191
vn -0.0000 0.4256 -0.9049
vn -0.4692 0.8624 0.1903
vn -0.8684 -0.1107 -0.4833
vn -0.9608 -0.2403 -0.1384
vn -0.9245 -0.1721 0.3400
vn -0.9194 -0.2395 0.3120
vn -0.8089 0.0724 0.5835
vn -0.1784 0.1335 0.9749
vn -0.0000 0.3561 -0.9344
vn -0.3187 0.3408 -0.8844
vn -0.0000 0.1390 0.9903
vn -0.0000 0.5785 -0.8157
vn -0.1800 0.0765 0.9807
vn -0.0000 0.0818 0.9966
vn 0.5004 0.0446 0.8646
vn 0.6345 0.0431 0.7717
vn 0.5133 0.8578 0.0272
vn 0.5017 -0.7515 0.4284
vn -0.4740 -0.8336 0.2837
vn 0.8714 -0.3849 -0.3040
vn 0.4740 -0.8336 0.2837
vn 0.2789 -0.9242 0.2609
vn -0.6240 -0.3585 0.6943
vn 0.3749 -0.9231 0.0850
vn 0.6372 -0.7656 -0.0883
vn 0.8259 -0.4253 -0.3701
vn -0.0000 -0.9923 0.1241
vn -0.0000 -0.5401 -0.8416
vn 0.7383 0.0261 -0.6739
vn 0.4604 0.2522 -0.8511
vn 0.4703 0.1640 -0.8672
vn 0.6752 0.6467 0.3549
vn -0.9194 0.0194 0.3929
vn -0.8937 -0.1106 0.4348
vn -0.8815 0.0698 0.4671
vn -0.7437 -0.3159 0.5892
vn 0.9862 -0.1515 -0.0662
vn -0.7957 -0.2243 0.5626
vn -0.7630 -0.2527 0.5949
vn -0.6858 -0.2918 0.6667
vn -0.7323 -0.2696 0.6253
vn 0.7568 0.3734 0.5364
vn 0.8591 0.0706 0.5069
vn 0.8815 0.0698 0.4671
vn -0.8674 0.2173 0.4478
vn -0.7755 -0.2594 0.5756
vn -0.9271 -0.1363 0.3492
vn -0.8024 -0.2714 0.5315
vn -0.8838 -0.1740 0.4343
vn -0.6560 0.0238 -0.7544
vn -0.6074 0.1105 -0.7867
vn 0.9606 -0.2755 -0.0363
vn -0.4681 0.1046 -0.8775
vn -0.4703 0.1640 -0.8672
vn -0.2667 0.1521 -0.9517
vn -0.2629 0.0589 -0.9630
vn -0.9901 0.0603 0.1270
vn 0.8681 -0.0608 0.4926
vn -0.0000 0.4827 0.8758
vn -0.2782 0.0107 -0.9605
vn -0.7340 0.2685 -0.6238
vn 0.9355 -0.0883 0.3422
vn 0.8429 -0.2208 0.4907
vn 0.7755 -0.2594 0.5756
vn 0.8024 -0.2714 0.5315
vn -0.5368 0.3144 -0.7829
vn 0.8674 -0.1979 0.4566
vn 0.8336 -0.2543 0.4904
vn -0.7568 0.3734 0.5364
vn 0.9379 -0.0539 0.3427
vn -0.4463 0.6993 0.5583
vn 0.9792 0.1042 0.1742
vn 0.9348 0.3427 -0.0933
vn 0.7470 0.5621 -0.3550
vt 0.000000 0.000000
s 1
f 1/1/1 2/1/2 3/1/3
f 1/1/1 4/1/4 5/1/5
f 1/1/1 6/1/6 7/1/7
f 1/1/1 8/1/8 2/1/2
f 1/1/1 9/1/9 8/1/8
f 1/1/1 7/1/7 10/1/10
f 1/1/1 5/1/5 11/1/11
f 1/1/1 11/1/11 12/1/12
f 1/1/1 12/1/12 13/1/13
f 1/1/1 14/1/14 4/1/4
f 1/1/1 15/1/15 14/1/14
f 1/1/1 10/1/10 16/1/16
f 1/1/1 17/1/17 9/1/9
f 1/1/1 16/1/16 17/1/17
f 1/1/1 18/1/18 15/1/15
f 1/1/1 3/1/3 18/1/18
f 1/1/1 19/1/19 6/1/6
f 1/1/1 20/1/20 21/1/21
f 1/1/1 22/1/22 23/1/23
f 1/1/1 24/1/24 25/1/25
f 1/1/1 21/1/21 26/1/26
f 1/1/1 26/1/26 27/1/27
f 1/1/1 28/1/28 24/1/24
f 1/1/1 13/1/13 29/1/29
f 1/1/1 29/1/29 30/1/30
f 1/1/1 30/1/30 22/1/22
f 1/1/1 23/1/23 31/1/31
f 1/1/1 31/1/31 32/1/32
f 1/1/1 27/1/27 33/1/33
f 1/1/1 33/1/33 34/1/34
f 1/1/1 34/1/34 28/1/28
f 1/1/1 35/1/35 20/1/20
f 1/1/1 32/1/32 35/1/35
f 1/1/1 25/1/25 36/1/36
f 37/1/37 38/1/38 39/1/39
f 400/1/40 404/1/41 399/1/42 393/1/43
f 37/1/37 42/1/44 41/1/45
f 393/1/43 387/1/46 397/1/47 400/1/40
f 388/1/48 387/1/46 393/1/43 374/1/49
f 39/1/39 44/1/50 45/1/51
f 39/1/39 45/1/51 46/1/52
f 400/1/40 407/1/53 406/1/54 404/1/41
f 690/1/55 694/1/56 689/1/57 682/1/58
f 561/1/59 585/1/60 576/1/61 570/1/62
f 562/1/63 570/1/62 568/1/64 569/1/65
f 44/1/50 51/1/66 45/1/51
f 380/1/67 397/1/47 387/1/46 381/1/68
f 398/1/69 397/1/47 380/1/67 392/1/70
f 46/1/52 45/1/51 54/1/71
f 42/1/44 142/1/72 141/1/73 140/1/74
f 318/1/75 359/1/76 327/1/77 317/1/78
f 735/1/79 749/1/80 744/1/81 736/1/82
f 380/1/67 381/1/68 346/1/83 373/1/84
f 732/1/85 737/1/86 702/1/87 708/1/88
f 51/1/66 60/1/89 45/1/51
f 339/1/90 373/1/84 346/1/83 340/1/91
f 386/1/92 421/1/93 392/1/70 372/1/94
f 54/1/71 45/1/51 63/1/95
f 651/1/96 743/1/97 662/1/98 657/1/99
f 427/1/100 431/1/101 415/1/102 422/1/103
f 222/1/104 221/1/105 204/1/106 203/1/107
f 354/1/108 355/1/109 332/1/110 353/1/111
f 208/1/112 214/1/113 175/1/114 177/1/115
f 752/1/116 754/1/117 751/1/118 753/1/119
f 366/1/120 386/1/92 372/1/94 367/1/121
f 85/1/122 107/1/123 108/1/124 105/1/125
f 455/1/126 416/1/127 458/1/128 461/1/129
f 106/1/130 122/1/131 116/1/132 107/1/123
f 366/1/120 367/1/121 345/1/133 365/1/134
f 664/1/135 678/1/136 659/1/137 658/1/138
f 377/1/139 437/1/140 421/1/93 386/1/92
f 85/1/122 105/1/125 78/1/141 77/1/142
f 157/1/143 158/1/144 128/1/145 151/1/146
f 333/1/147 338/1/148 323/1/149 325/1/150
f 333/1/147 350/1/151 345/1/133 338/1/148
f 343/1/152 365/1/134 345/1/133 350/1/151
f 351/1/153 365/1/134 343/1/152 344/1/154
f 360/1/155 371/1/156 351/1/153 352/1/157
f 726/1/158 750/1/159 722/1/160 721/1/161
f 313/1/162 336/1/163 333/1/147 325/1/150
f 313/1/162 325/1/150 314/1/164 305/1/165
f 331/1/166 350/1/151 333/1/147 336/1/163
f 443/1/167 450/1/168 449/1/169 444/1/170
f 617/1/171 632/1/172 625/1/173 619/1/174
f 385/1/175 437/1/140 377/1/139 378/1/176
f 233/1/177 225/1/178 216/1/179 221/1/105
f 467/1/180 459/1/181 468/1/182 469/1/183
f 81/1/184 88/1/185 86/1/186 80/1/187
f 127/1/188 151/1/146 128/1/145 121/1/189
f 616/1/190 638/1/191 637/1/192 636/1/193
f 329/1/194 337/1/195 320/1/196 321/1/197
f 334/1/198 344/1/154 329/1/194 330/1/199
f 334/1/198 352/1/157 351/1/153 344/1/154
f 288/1/200 304/1/201 297/1/202 289/1/203
f 691/1/204 692/1/205 673/1/206 685/1/207
f 302/1/208 322/1/209 312/1/210 303/1/211
f 669/1/212 670/1/213 649/1/214 663/1/215
f 377/1/139 386/1/92 366/1/120 371/1/156
f 379/1/216 378/1/176 360/1/155 361/1/217
f 341/1/218 361/1/217 360/1/155 352/1/157
f 341/1/218 352/1/157 334/1/198 335/1/219
f 597/1/220 656/1/221 590/1/222 591/1/223
f 342/1/224 347/1/225 341/1/218 335/1/219
f 454/1/226 460/1/227 459/1/181 453/1/228
f 402/1/229 441/1/230 385/1/175 396/1/231
f 268/1/232 269/1/233 263/1/234 267/1/235
f 368/1/236 391/1/237 379/1/216 361/1/217
f 754/1/117 755/1/238 750/1/159 751/1/118
f 125/1/239 217/1/240 205/1/241 206/1/242
f 402/1/229 448/1/243 436/1/244 441/1/230
f 427/1/100 441/1/230 436/1/244 431/1/101
f 165/1/245 160/1/246 158/1/144 157/1/143
f 391/1/237 403/1/247 396/1/231 379/1/216
f 154/1/248 182/1/249 162/1/250 156/1/251
f 691/1/204 716/1/252 711/1/253 692/1/205
f 195/1/254 196/1/255 124/1/256 190/1/257
f 436/1/244 453/1/228 430/1/258 431/1/101
f 415/1/102 431/1/101 430/1/258 426/1/259
f 372/1/94 373/1/84 339/1/90 367/1/121
f 384/1/260 409/1/261 408/1/262 403/1/247
f 357/1/263 376/1/264 375/1/265 356/1/266
f 348/1/267 349/1/268 357/1/263 356/1/266
f 430/1/258 434/1/269 419/1/270 426/1/259
f 406/1/54 426/1/259 419/1/270 412/1/271
f 53/1/272 61/1/273 59/1/274 52/1/275
f 384/1/260 375/1/265 376/1/264 383/1/276
f 593/1/277 594/1/278 584/1/279 586/1/280
f 195/1/254 281/1/281 202/1/282 196/1/255
f 47/1/283 133/1/284 132/1/285 126/1/286
f 700/1/287 728/1/288 699/1/289 693/1/290
f 60/1/89 65/1/291 63/1/95 45/1/51
f 413/1/292 414/1/293 405/1/294 411/1/295
f 576/1/61 598/1/296 597/1/220 591/1/223
f 283/1/297 291/1/298 290/1/299 282/1/300
f 207/1/301 210/1/302 213/1/303 211/1/304
f 358/1/305 364/1/306 357/1/263 349/1/268
f 398/1/69 422/1/103 415/1/102 407/1/53
f 245/1/307 261/1/308 257/1/309 251/1/310
f 416/1/127 455/1/126 408/1/262 409/1/261
f 370/1/311 376/1/264 357/1/263 364/1/306
f 753/1/119 748/1/312 738/1/313 739/1/314
f 403/1/247 408/1/262 402/1/229 396/1/231
f 326/1/315 342/1/224 315/1/316 316/1/317
f 454/1/226 453/1/228 436/1/244 448/1/243
f 401/1/318 409/1/261 384/1/260 383/1/276
f 370/1/311 389/1/319 383/1/276 376/1/264
f 152/1/320 153/1/321 159/1/322
f 363/1/323 364/1/306 358/1/305 328/1/324
f 81/1/184 80/1/187 71/1/325 73/1/326
f 299/1/327 330/1/199 329/1/194 321/1/197
f 306/1/328 330/1/199 299/1/327 298/1/329
f 394/1/330 401/1/318 383/1/276 389/1/319
f 331/1/166 336/1/163 312/1/210 322/1/209
f 682/1/58 683/1/331 614/1/332 677/1/333
f 146/1/334 167/1/335 166/1/336
f 317/1/78 327/1/77 326/1/315 316/1/317
f 299/1/327 321/1/197 295/1/337 296/1/338
f 295/1/337 321/1/197 320/1/196 311/1/339
f 165/1/245 172/1/340 173/1/341
f 327/1/77 359/1/76 358/1/305 349/1/268
f 584/1/279 585/1/60 561/1/59 578/1/342
f 529/1/343 574/1/344 545/1/345 536/1/346
f 308/1/347 316/1/317 315/1/316 307/1/348
f 307/1/348 315/1/316 306/1/328 298/1/329
f 315/1/316 342/1/224 335/1/219 306/1/328
f 295/1/337 311/1/339 286/1/349 287/1/350
f 286/1/349 311/1/339 302/1/208 294/1/351
f 432/1/352 440/1/353 423/1/354 428/1/355
f 529/1/343 536/1/346 528/1/356 522/1/357
f 161/1/358 173/1/341 181/1/359
f 161/1/358 181/1/359 159/1/322
f 159/1/322 181/1/359 167/1/335
f 78/1/141 105/1/125 99/1/360 91/1/361
f 308/1/347 307/1/348 291/1/298 300/1/362
f 286/1/349 294/1/351 272/1/363 279/1/364
f 272/1/363 294/1/351 280/1/365 273/1/366
f 129/1/367 135/1/368 131/1/369 123/1/370
f 290/1/299 298/1/329 299/1/327 296/1/338
f 490/1/371 496/1/372 492/1/373 489/1/374
f 508/1/375 506/1/376 499/1/377 501/1/378
f 642/1/379 643/1/380 608/1/381 636/1/193
f 150/1/382 151/1/146 127/1/188 144/1/383
f 749/1/80 735/1/79 720/1/384 733/1/385
f 167/1/335 181/1/359 194/1/386
f 189/1/387 190/1/257 117/1/388 185/1/389
f 360/1/155 378/1/176 377/1/139 371/1/156
f 461/1/129 465/1/390 460/1/227 454/1/226
f 180/1/391 199/1/392 200/1/393
f 173/1/341 200/1/393 181/1/359
f 194/1/386 201/1/394 174/1/395
f 117/1/388 118/1/396 110/1/397 111/1/398
f 463/1/399 464/1/400 460/1/227 465/1/390
f 576/1/61 591/1/223 568/1/64 570/1/62
f 239/1/401 284/1/402 250/1/403 244/1/404
f 464/1/400 468/1/182 459/1/181 460/1/227
f 453/1/228 459/1/181 434/1/269 430/1/258
f 401/1/318 423/1/354 416/1/127 409/1/261
f 445/1/405 451/1/406 447/1/407 446/1/408
f 301/1/409 309/1/410 308/1/347 300/1/362
f 201/1/394 208/1/112 177/1/115
f 474/1/411 477/1/412 479/1/413 475/1/414
f 207/1/301 211/1/304 212/1/415
f 200/1/393 212/1/415 181/1/359
f 449/1/169 451/1/406 445/1/405 444/1/170
f 208/1/112 215/1/416 214/1/113
f 292/1/417 300/1/362 291/1/298 283/1/297
f 456/1/418 457/1/419 451/1/406 449/1/169
f 463/1/399 457/1/419 456/1/418 462/1/420
f 245/1/307 238/1/421 237/1/422 244/1/404
f 640/1/423 652/1/424 633/1/425 634/1/426
f 384/1/260 403/1/247 391/1/237 375/1/265
f 303/1/211 312/1/210 304/1/201 288/1/200
f 466/1/427 464/1/400 463/1/399 462/1/420
f 217/1/240 223/1/428 205/1/241
f 149/1/429 143/1/430 198/1/431 197/1/432
f 226/1/433 450/1/168 443/1/167 442/1/434
f 669/1/212 715/1/435 710/1/436 681/1/437
f 220/1/438 228/1/439 227/1/440
f 285/1/441 466/1/427 253/1/442 278/1/443
f 175/1/114 176/1/444 155/1/445 168/1/446
f 326/1/315 348/1/267 347/1/225 342/1/224
f 223/1/428 230/1/447 205/1/241
f 410/1/448 429/1/449 424/1/450 417/1/451
f 545/1/345 546/1/452 537/1/453 536/1/346
f 139/1/454 140/1/74 232/1/455
f 254/1/456 462/1/420 456/1/418 258/1/457
f 231/1/458 238/1/421 235/1/459 230/1/447
f 469/1/183 470/1/460 424/1/450 467/1/180
f 424/1/450 470/1/460 425/1/461 417/1/451
f 679/1/462 685/1/207 673/1/206 672/1/463
f 418/1/464 480/1/465 413/1/292 411/1/295
f 253/1/442 466/1/427 462/1/420 254/1/456
f 398/1/69 407/1/53 400/1/40 397/1/47
f 234/1/466 242/1/467 241/1/468
f 290/1/299 296/1/338 274/1/469 282/1/300
f 285/1/441 468/1/182 464/1/400 466/1/427
f 394/1/330 428/1/355 423/1/354 401/1/318
f 237/1/422 239/1/401 244/1/404
f 474/1/411 470/1/460 469/1/183 473/1/470
f 474/1/411 475/1/414 425/1/461 470/1/460
f 247/1/471 278/1/443 253/1/442 248/1/472
f 57/1/473 68/1/474 62/1/475 56/1/476
f 249/1/477 178/1/478 171/1/479 170/1/480
f 479/1/413 482/1/481 418/1/464 475/1/414
f 712/1/482 714/1/483 653/1/484 706/1/485
f 277/1/486 278/1/443 247/1/471 270/1/487
f 419/1/270 429/1/449 410/1/448 412/1/271
f 117/1/388 190/1/257 124/1/256 118/1/396
f 248/1/472 255/1/488 233/1/177 240/1/489
f 531/1/490 532/1/491 524/1/492 525/1/493
f 256/1/494 225/1/178 233/1/177 255/1/488
f 472/1/495 477/1/412 474/1/411 473/1/470
f 251/1/310 257/1/309 243/1/496
f 256/1/494 226/1/433 219/1/497 225/1/178
f 128/1/145 158/1/144 135/1/368 129/1/367
f 293/1/498 511/1/499 505/1/500 498/1/501
f 257/1/309 262/1/502 243/1/496
f 476/1/503 477/1/412 472/1/495 471/1/504
f 719/1/505 733/1/385 720/1/384 713/1/506
f 277/1/486 478/1/507 476/1/503 471/1/504
f 260/1/508 259/1/509 241/1/468 242/1/467
f 242/1/467 266/1/510 265/1/511
f 483/1/512 484/1/513 476/1/503 478/1/507
f 415/1/102 426/1/259 406/1/54 407/1/53
f 486/1/514 493/1/515 481/1/516 482/1/481
f 260/1/508 264/1/517 184/1/518 259/1/509
f 184/1/518 264/1/517 189/1/387 185/1/389
f 241/1/468 249/1/477 229/1/519 234/1/466
f 228/1/439 234/1/466 229/1/519 227/1/440
f 486/1/514 482/1/481 479/1/413 484/1/513
f 625/1/173 638/1/191 616/1/190 626/1/520
f 351/1/153 371/1/156 366/1/120 365/1/134
f 252/1/521 269/1/233 271/1/522 270/1/487
f 481/1/516 502/1/523 487/1/524 480/1/465
f 109/1/525 185/1/389 117/1/388 111/1/398
f 275/1/526 283/1/297 282/1/300
f 243/1/496 262/1/502 252/1/521 246/1/527
f 243/1/496 246/1/527 240/1/489 222/1/104
f 512/1/528 513/1/529 505/1/500 511/1/499
f 241/1/468 259/1/509 178/1/478 249/1/477
f 109/1/525 111/1/398 101/1/530 102/1/531
f 101/1/530 111/1/398 110/1/397 104/1/532
f 220/1/438 227/1/440 187/1/533 183/1/534
f 187/1/533 227/1/440 229/1/519 188/1/535
f 390/1/536 389/1/319 370/1/311 363/1/323
f 70/1/537 69/1/538 62/1/475 68/1/474
f 483/1/512 485/1/539 490/1/371 489/1/374
f 229/1/519 249/1/477 170/1/480 188/1/535
f 744/1/81 747/1/540 726/1/158 727/1/541
f 606/1/542 623/1/543 615/1/544 607/1/545
f 183/1/534 187/1/533 182/1/249 176/1/444
f 193/1/546 210/1/302 207/1/301 199/1/392
f 418/1/464 482/1/481 481/1/516 480/1/465
f 292/1/417 301/1/409 300/1/362
f 103/1/547 179/1/548 109/1/525 102/1/531
f 379/1/216 396/1/231 385/1/175 378/1/176
f 94/1/549 96/1/550 87/1/551 86/1/186
f 74/1/552 76/1/553 83/1/554 82/1/555
f 99/1/360 156/1/251 92/1/556 91/1/361
f 714/1/483 664/1/135 658/1/138 647/1/557
f 476/1/503 484/1/513 479/1/413 477/1/412
f 301/1/409 310/1/558 309/1/410
f 95/1/559 102/1/531 101/1/530 94/1/549
f 271/1/522 478/1/507 277/1/486 270/1/487
f 95/1/559 94/1/549 86/1/186 88/1/185
f 606/1/542 607/1/545 596/1/560 605/1/561
f 372/1/94 392/1/70 380/1/67 373/1/84
f 169/1/562 177/1/115 175/1/114 168/1/446
f 174/1/395 201/1/394 177/1/115 169/1/562
f 310/1/558 319/1/563 318/1/75
f 639/1/564 644/1/565 637/1/192 638/1/191
f 98/1/566 171/1/479 103/1/547 97/1/567
f 71/1/325 80/1/187 79/1/568 72/1/569
f 568/1/64 591/1/223 590/1/222 583/1/570
f 131/1/369 152/1/320 146/1/334 137/1/571
f 174/1/395 169/1/562 145/1/572 166/1/336
f 167/1/335 194/1/386 174/1/395 166/1/336
f 319/1/563 181/1/359 328/1/324
f 442/1/434 218/1/573 219/1/497 226/1/433
f 547/1/574 548/1/575 539/1/576 540/1/577
f 89/1/578 90/1/579 98/1/566 97/1/567
f 89/1/578 97/1/567 95/1/559 88/1/185
f 71/1/325 72/1/569 65/1/291 66/1/580
f 608/1/381 643/1/380 600/1/581 599/1/582
f 38/1/38 43/1/583 44/1/50 39/1/39
f 154/1/248 156/1/251 99/1/360 147/1/584
f 666/1/585 698/1/586 660/1/587 661/1/588
f 147/1/584 138/1/589 155/1/445 154/1/248
f 119/1/590 134/1/591 113/1/592 112/1/593
f 67/1/594 73/1/326 71/1/325 66/1/580
f 131/1/369 137/1/571 130/1/595 123/1/370
f 138/1/589 147/1/584 108/1/124 115/1/596
f 83/1/554 90/1/579 89/1/578 82/1/555
f 92/1/556 90/1/579 83/1/554 91/1/361
f 74/1/552 73/1/326 67/1/594 69/1/538
f 64/1/597 120/1/598 119/1/590 112/1/593
f 59/1/274 61/1/273 67/1/594 66/1/580
f 59/1/274 66/1/580 65/1/291 60/1/89
f 136/1/599 138/1/589 115/1/596 130/1/595
f 137/1/571 145/1/572 136/1/599 130/1/595
f 329/1/194 344/1/154 343/1/152 337/1/195
f 141/1/73 516/1/600 239/1/401 140/1/74
f 108/1/124 147/1/584 99/1/360 105/1/125
f 304/1/201 313/1/162 305/1/165 297/1/202
f 123/1/370 130/1/595 115/1/596 116/1/132
f 240/1/489 233/1/177 221/1/105 222/1/104
f 520/1/601 523/1/602 521/1/603 522/1/357
f 146/1/334 166/1/336 145/1/572 137/1/571
f 359/1/76 328/1/324 358/1/305
f 655/1/604 668/1/605 629/1/606 656/1/221
f 571/1/607 586/1/280 565/1/608 563/1/609
f 107/1/123 116/1/132 115/1/596 108/1/124
f 355/1/109 354/1/108 362/1/610
f 555/1/611 578/1/342 561/1/59 556/1/612
f 328/1/324 181/1/359 363/1/323
f 70/1/537 77/1/142 78/1/141 76/1/553
f 709/1/613 721/1/161 704/1/614 703/1/615
f 362/1/610 354/1/108 369/1/616
f 364/1/306 363/1/323 370/1/311
f 74/1/552 82/1/555 81/1/184 73/1/326
f 62/1/475 69/1/538 67/1/594 61/1/273
f 494/1/617 495/1/618 420/1/619 488/1/620
f 369/1/616 354/1/108 374/1/49
f 306/1/328 335/1/219 334/1/198 330/1/199
f 75/1/621 100/1/622 85/1/122 77/1/142
f 75/1/621 77/1/142 70/1/537 68/1/474
f 106/1/130 107/1/123 85/1/122 100/1/622
f 162/1/250 188/1/535 170/1/480 163/1/623
f 618/1/624 610/1/625 603/1/626 602/1/627
f 53/1/272 56/1/476 62/1/475 61/1/273
f 59/1/274 60/1/89 51/1/66 52/1/275
f 353/1/111 382/1/628 354/1/108
f 125/1/239 206/1/242 119/1/590 120/1/598
f 162/1/250 163/1/623 92/1/556 156/1/251
f 320/1/196 322/1/209 302/1/208 311/1/339
f 93/1/629 114/1/630 106/1/130 100/1/622
f 346/1/83 353/1/111 332/1/110 340/1/91
f 43/1/583 52/1/275 51/1/66 44/1/50
f 382/1/628 388/1/48 354/1/108
f 354/1/108 388/1/48 374/1/49
f 153/1/321 160/1/246 161/1/358 159/1/322
f 363/1/323 181/1/359 390/1/536
f 122/1/131 129/1/367 123/1/370 116/1/132
f 128/1/145 129/1/367 122/1/131 121/1/189
f 320/1/196 337/1/195 331/1/166 322/1/209
f 277/1/486 471/1/504 285/1/441 278/1/443
f 50/1/631 56/1/476 53/1/272 48/1/632
f 165/1/245 173/1/341 161/1/358 160/1/246
f 390/1/536 181/1/359 395/1/633
f 345/1/133 367/1/121 339/1/90 338/1/148
f 740/1/634 745/1/635 739/1/314 734/1/636
f 374/1/49 393/1/43 399/1/42
f 40/1/637 49/1/638 50/1/631 48/1/632
f 566/1/639 648/1/640 647/1/557 641/1/641
f 528/1/356 538/1/642 534/1/643 527/1/644
f 245/1/307 251/1/310 235/1/459 238/1/421
f 676/1/645 697/1/646 696/1/647 690/1/55
f 113/1/592 127/1/188 121/1/189 114/1/630
f 399/1/42 404/1/41 405/1/294
f 42/1/44 133/1/284 47/1/283 41/1/45
f 40/1/637 48/1/632 43/1/583 38/1/38
f 89/1/578 88/1/185 81/1/184 82/1/555
f 42/1/44 140/1/74 139/1/454 133/1/284
f 649/1/214 670/1/213 655/1/604 650/1/648
f 55/1/649 58/1/650 50/1/631 49/1/638
f 47/1/283 126/1/286 55/1/649 49/1/638
f 395/1/633 433/1/651 432/1/352 428/1/355
f 150/1/382 164/1/652 157/1/143 151/1/146
f 411/1/295 410/1/448 417/1/451
f 239/1/401 237/1/422 232/1/455 140/1/74
f 531/1/490 535/1/653 541/1/654 540/1/577
f 692/1/205 698/1/586 666/1/585 673/1/206
f 139/1/454 224/1/655 132/1/285 133/1/284
f 148/1/656 517/1/657 141/1/73 142/1/72
f 50/1/631 58/1/650 57/1/473 56/1/476
f 659/1/137 678/1/136 671/1/658 665/1/659
f 164/1/652 172/1/340 165/1/245 157/1/143
f 435/1/660 467/1/180 424/1/450 429/1/449
f 312/1/210 336/1/163 313/1/162 304/1/201
f 64/1/597 84/1/661 57/1/473 58/1/650
f 276/1/662 498/1/501 497/1/663 491/1/664
f 394/1/330 395/1/633 428/1/355
f 669/1/212 681/1/437 674/1/665 670/1/213
f 518/1/666 515/1/667 514/1/668 517/1/657
f 450/1/168 258/1/457 456/1/418 449/1/169
f 180/1/391 200/1/393 173/1/341 172/1/340
f 395/1/633 181/1/359 433/1/651
f 132/1/285 224/1/655 223/1/428 217/1/240
f 223/1/428 224/1/655 231/1/458 230/1/447
f 131/1/369 135/1/368 153/1/321 152/1/320
f 347/1/225 368/1/236 361/1/217 341/1/218
f 64/1/597 112/1/593 93/1/629 84/1/661
f 181/1/359 212/1/415 438/1/669
f 181/1/359 438/1/669 439/1/670
f 181/1/359 439/1/670 433/1/651
f 150/1/382 191/1/671 186/1/672 164/1/652
f 452/1/673 465/1/390 461/1/129 458/1/128
f 438/1/669 218/1/573 442/1/434
f 674/1/665 668/1/605 655/1/604 670/1/213
f 438/1/669 442/1/434 443/1/167
f 438/1/669 212/1/415 211/1/304 218/1/573
f 439/1/670 444/1/170 445/1/405
f 207/1/301 212/1/415 200/1/393 199/1/392
f 432/1/352 433/1/651 446/1/408
f 193/1/546 199/1/392 180/1/391 186/1/672
f 440/1/353 458/1/128 416/1/127 423/1/354
f 134/1/591 144/1/383 127/1/188 113/1/592
f 291/1/298 307/1/348 298/1/329 290/1/299
f 213/1/303 219/1/497 218/1/573 211/1/304
f 192/1/674 209/1/675 210/1/302 193/1/546
f 192/1/674 193/1/546 186/1/672 191/1/671
f 119/1/590 206/1/242 143/1/430 134/1/591
f 143/1/430 149/1/429 144/1/383 134/1/591
f 216/1/179 225/1/178 219/1/497 213/1/303
f 136/1/599 145/1/572 169/1/562 168/1/446
f 601/1/676 603/1/626 610/1/625 609/1/677
f 718/1/678 734/1/636 723/1/679 716/1/252
f 434/1/269 459/1/181 435/1/660
f 143/1/430 206/1/242 205/1/241 198/1/431
f 149/1/429 191/1/671 150/1/382 144/1/383
f 346/1/83 381/1/68 382/1/628 353/1/111
f 149/1/429 197/1/432 192/1/674 191/1/671
f 274/1/469 296/1/338 295/1/337 287/1/350
f 326/1/315 327/1/77 349/1/268 348/1/267
f 204/1/106 209/1/675 192/1/674 197/1/432
f 653/1/484 714/1/483 647/1/557 648/1/640
f 419/1/270 434/1/269 435/1/660 429/1/449
f 443/1/167 444/1/170 439/1/670 438/1/669
f 554/1/680 621/1/681 617/1/171 611/1/682
f 435/1/660 459/1/181 467/1/180
f 139/1/454 232/1/455 231/1/458 224/1/655
f 235/1/459 251/1/310 243/1/496 236/1/683
f 235/1/459 236/1/683 205/1/241 230/1/447
f 285/1/441 471/1/504 472/1/495
f 285/1/441 472/1/495 473/1/470
f 53/1/272 52/1/275 43/1/583 48/1/632
f 455/1/126 461/1/129 454/1/226 448/1/243
f 593/1/277 603/1/626 601/1/676 594/1/278
f 425/1/461 475/1/414 418/1/464
f 37/1/37 41/1/45 40/1/637 38/1/38
f 566/1/639 641/1/641 573/1/684 567/1/685
f 250/1/403 261/1/308 245/1/307 244/1/404
f 559/1/686 648/1/640 566/1/639 560/1/687
f 250/1/403 267/1/235 263/1/234 261/1/308
f 239/1/401 516/1/600 293/1/498 284/1/402
f 78/1/141 91/1/361 83/1/554 76/1/553
f 268/1/232 485/1/539 271/1/522 269/1/233
f 187/1/533 188/1/535 162/1/250 182/1/249
f 293/1/498 498/1/501 276/1/662 284/1/402
f 276/1/662 491/1/664 268/1/232 267/1/235
f 141/1/73 517/1/657 514/1/668 516/1/600
f 293/1/498 516/1/600 514/1/668 511/1/499
f 268/1/232 491/1/664 490/1/371 485/1/539
f 93/1/629 100/1/622 75/1/621 84/1/661
f 490/1/371 491/1/664 497/1/663 496/1/372
f 265/1/511 287/1/350 286/1/349 279/1/364
f 178/1/478 179/1/548 103/1/547 171/1/479
f 148/1/656 519/1/688 518/1/666 517/1/657
f 492/1/373 501/1/378 499/1/377 493/1/515
f 492/1/373 493/1/515 486/1/514 489/1/374
f 487/1/524 488/1/620 413/1/292 480/1/465
f 505/1/500 504/1/689 497/1/663 498/1/501
f 730/1/690 743/1/97 671/1/658 742/1/691
f 500/1/692 501/1/378 492/1/373 496/1/372
f 736/1/82 744/1/81 727/1/541 731/1/693
f 499/1/377 502/1/523 481/1/516 493/1/515
f 55/1/649 120/1/598 64/1/597 58/1/650
f 514/1/668 515/1/667 512/1/528 511/1/499
f 505/1/500 513/1/529 510/1/694 504/1/689
f 504/1/689 510/1/694 509/1/695 500/1/692
f 730/1/690 731/1/693 710/1/436 715/1/435
f 189/1/387 273/1/366 195/1/254 190/1/257
f 507/1/696 502/1/523 499/1/377 506/1/376
f 421/1/93 437/1/140 427/1/100 422/1/103
f 271/1/522 485/1/539 483/1/512 478/1/507
f 651/1/96 657/1/99 637/1/192 644/1/565
f 487/1/524 503/1/697 494/1/617 488/1/620
f 704/1/614 721/1/161 722/1/160 707/1/698
f 565/1/608 586/1/280 584/1/279 578/1/342
f 565/1/608 578/1/342 555/1/611 564/1/699
f 520/1/601 526/1/700 525/1/493
f 520/1/601 527/1/644 526/1/700
f 164/1/652 186/1/672 180/1/391 172/1/340
f 571/1/607 595/1/701 593/1/277 586/1/280
f 723/1/679 719/1/505 711/1/253 716/1/252
f 445/1/405 446/1/408 433/1/651 439/1/670
f 243/1/496 222/1/104 203/1/107 236/1/683
f 557/1/702 564/1/699 547/1/574 550/1/703
f 564/1/699 555/1/611 548/1/575 547/1/574
f 524/1/492 532/1/491 533/1/704
f 526/1/700 527/1/644 534/1/643
f 549/1/705 572/1/706 571/1/607 563/1/609
f 526/1/700 534/1/643 535/1/653
f 577/1/707 595/1/701 571/1/607 572/1/706
f 254/1/456 258/1/457 256/1/494 255/1/488
f 541/1/654 550/1/703 547/1/574 540/1/577
f 549/1/705 550/1/703 541/1/654 543/1/708
f 561/1/59 570/1/62 562/1/63 556/1/612
f 534/1/643 544/1/709 543/1/708
f 534/1/643 538/1/642 544/1/709
f 537/1/453 544/1/709 538/1/642
f 602/1/627 603/1/626 593/1/277 595/1/701
f 577/1/707 604/1/710 602/1/627 595/1/701
f 537/1/453 546/1/452 544/1/709
f 452/1/673 458/1/128 440/1/353 447/1/407
f 531/1/490 540/1/577 539/1/576 532/1/491
f 359/1/76 318/1/75 319/1/563 328/1/324
f 543/1/708 544/1/709 549/1/705
f 263/1/234 269/1/233 252/1/521 262/1/502
f 546/1/452 554/1/680 544/1/709
f 612/1/711 619/1/174 620/1/712 618/1/624
f 413/1/292 488/1/620 420/1/619 414/1/293
f 548/1/575 555/1/611 556/1/612
f 550/1/703 549/1/705 557/1/702
f 537/1/453 538/1/642 528/1/356 536/1/346
f 707/1/698 708/1/88 701/1/713 696/1/647
f 717/1/714 686/1/715 699/1/289 724/1/716
f 285/1/441 473/1/470 469/1/183 468/1/182
f 524/1/492 533/1/704 530/1/717 523/1/602
f 205/1/241 236/1/683 203/1/107 198/1/431
f 557/1/702 549/1/705 563/1/609
f 557/1/702 563/1/609 565/1/608
f 557/1/702 565/1/608 564/1/699
f 92/1/556 163/1/623 98/1/566 90/1/579
f 592/1/718 598/1/296 576/1/61 585/1/60
f 584/1/279 594/1/278 592/1/718 585/1/60
f 552/1/719 553/1/720 542/1/721 551/1/722
f 689/1/57 695/1/723 630/1/724 688/1/725
f 528/1/356 527/1/644 520/1/601 522/1/357
f 549/1/705 544/1/709 572/1/706
f 724/1/716 729/1/726 718/1/678 717/1/714
f 601/1/676 599/1/582 592/1/718 594/1/278
f 558/1/727 661/1/588 552/1/719 551/1/722
f 559/1/686 560/1/687 530/1/717 553/1/720
f 552/1/719 654/1/728 559/1/686 553/1/720
f 572/1/706 544/1/709 577/1/707
f 101/1/530 104/1/532 96/1/550 94/1/549
f 749/1/80 733/1/385 738/1/313 748/1/312
f 573/1/684 641/1/641 640/1/423 634/1/426
f 275/1/526 282/1/300 274/1/469 266/1/510
f 530/1/717 560/1/687 521/1/603 523/1/602
f 356/1/266 368/1/236 347/1/225 348/1/267
f 405/1/294 412/1/271 410/1/448 411/1/295
f 86/1/186 87/1/551 79/1/568 80/1/187
f 288/1/200 289/1/203 202/1/282 281/1/281
f 552/1/719 661/1/588 660/1/587 654/1/728
f 158/1/144 160/1/246 153/1/321 135/1/368
f 387/1/46 388/1/48 382/1/628 381/1/68
f 47/1/283 49/1/638 40/1/637 41/1/45
f 159/1/322 167/1/335 146/1/334 152/1/320
f 521/1/603 567/1/685 529/1/343 522/1/357
f 526/1/700 535/1/653 531/1/490 525/1/493
f 660/1/587 706/1/485 653/1/484 654/1/728
f 559/1/686 654/1/728 653/1/484 648/1/640
f 263/1/234 262/1/502 257/1/309 261/1/308
f 673/1/206 666/1/585 667/1/729 672/1/463
f 573/1/684 574/1/344 529/1/343 567/1/685
f 566/1/639 567/1/685 521/1/603 560/1/687
f 390/1/536 395/1/633 394/1/330 389/1/319
f 577/1/707 544/1/709 604/1/710
f 679/1/462 687/1/730 686/1/715 685/1/207
f 215/1/416 220/1/438 183/1/534 214/1/113
f 647/1/557 658/1/138 640/1/423 641/1/641
f 573/1/684 634/1/426 579/1/731 574/1/344
f 579/1/731 580/1/732 545/1/345 574/1/344
f 544/1/709 554/1/680 611/1/682
f 544/1/709 612/1/711 604/1/710
f 545/1/345 580/1/732 554/1/680 546/1/452
f 544/1/709 611/1/682 612/1/711
f 323/1/149 340/1/91 332/1/110 324/1/733
f 614/1/332 683/1/331 606/1/542 605/1/561
f 686/1/715 717/1/714 691/1/204 685/1/207
f 693/1/290 699/1/289 686/1/715 687/1/730
f 579/1/731 634/1/426 633/1/425 628/1/734
f 432/1/352 446/1/408 447/1/407 440/1/353
f 542/1/721 553/1/720 530/1/717 533/1/704
f 617/1/171 619/1/174 612/1/711 611/1/682
f 579/1/731 628/1/734 587/1/735 580/1/732
f 587/1/735 621/1/681 554/1/680 580/1/732
f 417/1/451 425/1/461 418/1/464 411/1/295
f 627/1/736 632/1/172 617/1/171 621/1/681
f 587/1/735 628/1/734 627/1/736 621/1/681
f 633/1/425 645/1/737 627/1/736 628/1/734
f 343/1/152 350/1/151 331/1/166 337/1/195
f 620/1/712 626/1/520 610/1/625 618/1/624
f 705/1/738 706/1/485 660/1/587 698/1/586
f 451/1/406 457/1/419 452/1/673 447/1/407
f 624/1/739 630/1/724 631/1/740
f 610/1/625 626/1/520 616/1/190 609/1/677
f 114/1/630 121/1/189 122/1/131 106/1/130
f 113/1/592 114/1/630 93/1/629 112/1/593
f 633/1/425 652/1/424 646/1/741 645/1/737
f 627/1/736 645/1/737 639/1/564 632/1/172
f 254/1/456 255/1/488 248/1/472 253/1/442
f 639/1/564 645/1/737 646/1/741 644/1/565
f 601/1/676 609/1/677 608/1/381 599/1/582
f 616/1/190 636/1/193 608/1/381 609/1/677
f 659/1/137 665/1/659 646/1/741 652/1/424
f 659/1/137 652/1/424 640/1/423 658/1/138
f 247/1/471 248/1/472 240/1/489 246/1/527
f 280/1/365 281/1/281 195/1/254 273/1/366
f 314/1/164 325/1/150 323/1/149 324/1/733
f 600/1/581 598/1/296 592/1/718 599/1/582
f 216/1/179 213/1/303 210/1/302 209/1/675
f 638/1/191 625/1/173 632/1/172 639/1/564
f 57/1/473 84/1/661 75/1/621 68/1/474
f 646/1/741 665/1/659 651/1/96 644/1/565
f 600/1/581 650/1/648 597/1/220 598/1/296
f 408/1/262 455/1/126 448/1/243 402/1/229
f 712/1/482 725/1/742 664/1/135 714/1/483
f 103/1/547 102/1/531 95/1/559 97/1/567
f 705/1/738 713/1/506 712/1/482 706/1/485
f 302/1/208 303/1/211 280/1/365 294/1/351
f 483/1/512 489/1/374 486/1/514 484/1/513
f 136/1/599 168/1/446 155/1/445 138/1/589
f 692/1/205 711/1/253 705/1/738 698/1/586
f 671/1/658 743/1/97 651/1/96 665/1/659
f 184/1/518 185/1/389 109/1/525 179/1/548
f 649/1/214 650/1/648 600/1/581 643/1/380
f 642/1/379 663/1/215 649/1/214 643/1/380
f 590/1/222 622/1/743 581/1/744 583/1/570
f 575/1/745 583/1/570 581/1/744 582/1/746
f 711/1/253 719/1/505 713/1/506 705/1/738
f 664/1/135 725/1/742 684/1/747 678/1/136
f 178/1/478 259/1/509 184/1/518 179/1/548
f 662/1/98 663/1/215 642/1/379 657/1/99
f 684/1/747 742/1/691 671/1/658 678/1/136
f 588/1/748 589/1/749 582/1/746 581/1/744
f 725/1/742 712/1/482 713/1/506 720/1/384
f 720/1/384 735/1/79 684/1/747 725/1/742
f 175/1/114 214/1/113 183/1/534 176/1/444
f 463/1/399 465/1/390 452/1/673 457/1/419
f 588/1/748 605/1/561 596/1/560 589/1/749
f 204/1/106 221/1/105 216/1/179 209/1/675
f 252/1/521 270/1/487 247/1/471 246/1/527
f 691/1/204 717/1/714 718/1/678 716/1/252
f 318/1/75 317/1/78 309/1/410 310/1/558
f 662/1/98 715/1/435 669/1/212 663/1/215
f 170/1/480 171/1/479 98/1/566 163/1/623
f 625/1/173 626/1/520 620/1/712 619/1/174
f 203/1/107 204/1/106 197/1/432 198/1/431
f 688/1/725 630/1/724 623/1/543
f 558/1/727 667/1/729 666/1/585 661/1/588
f 728/1/288 741/1/750 729/1/726 724/1/716
f 729/1/726 740/1/634 734/1/636 718/1/678
f 701/1/713 702/1/87 695/1/723 694/1/56
f 588/1/748 613/1/751 614/1/332 605/1/561
f 581/1/744 622/1/743 613/1/751 588/1/748
f 612/1/711 618/1/624 602/1/627 604/1/710
f 689/1/57 694/1/56 695/1/723
f 630/1/724 695/1/723 631/1/740
f 739/1/314 738/1/313 723/1/679 734/1/636
f 406/1/54 412/1/271 405/1/294 404/1/41
f 623/1/543 630/1/724 624/1/739 615/1/544
f 741/1/750 746/1/752 745/1/635 740/1/634
f 695/1/723 702/1/87 631/1/740
f 70/1/537 76/1/553 74/1/552 69/1/538
f 176/1/444 182/1/249 154/1/248 155/1/445
f 368/1/236 356/1/266 375/1/265 391/1/237
f 629/1/606 635/1/753 613/1/751 622/1/743
f 753/1/119 739/1/314 745/1/635 752/1/116
f 701/1/713 708/1/88 702/1/87
f 744/1/81 749/1/80 748/1/312 747/1/540
f 132/1/285 217/1/240 125/1/239 126/1/286
f 736/1/82 742/1/691 684/1/747 735/1/79
f 635/1/753 677/1/333 614/1/332 613/1/751
f 250/1/403 284/1/402 276/1/662 267/1/235
f 655/1/604 656/1/221 597/1/220 650/1/648
f 568/1/64 583/1/570 575/1/745 569/1/65
f 385/1/175 441/1/230 427/1/100 437/1/140
f 668/1/605 675/1/754 635/1/753 629/1/606
f 674/1/665 680/1/755 675/1/754 668/1/605
f 656/1/221 629/1/606 622/1/743 590/1/222
f 748/1/312 753/1/119 751/1/118 747/1/540
f 265/1/511 279/1/364 260/1/508 242/1/467
f 676/1/645 677/1/333 635/1/753 675/1/754
f 676/1/645 690/1/55 682/1/58 677/1/333
f 688/1/725 623/1/543 606/1/542 683/1/331
f 682/1/58 689/1/57 688/1/725 683/1/331
f 339/1/90 340/1/91 323/1/149 338/1/148
f 726/1/158 747/1/540 751/1/118 750/1/159
f 260/1/508 279/1/364 272/1/363 264/1/517
f 502/1/523 507/1/696 503/1/697 487/1/524
f 724/1/716 699/1/289 728/1/288
f 700/1/287 631/1/740 728/1/288
f 237/1/422 238/1/421 231/1/458 232/1/455
f 742/1/691 736/1/82 731/1/693 730/1/690
f 500/1/692 509/1/695 508/1/375 501/1/378
f 746/1/752 737/1/86 754/1/117 752/1/116
f 680/1/755 697/1/646 676/1/645 675/1/754
f 280/1/365 303/1/211 288/1/200 281/1/281
f 681/1/437 703/1/615 680/1/755 674/1/665
f 272/1/363 273/1/366 189/1/387 264/1/517
f 710/1/436 731/1/693 727/1/541 709/1/613
f 55/1/649 126/1/286 125/1/239 120/1/598
f 702/1/87 737/1/86 631/1/740
f 317/1/78 316/1/317 308/1/347 309/1/410
f 696/1/647 701/1/713 694/1/56 690/1/55
f 728/1/288 631/1/740 741/1/750
f 729/1/726 741/1/750 740/1/634
f 662/1/98 743/1/97 730/1/690 715/1/435
f 709/1/613 727/1/541 726/1/158 721/1/161
f 681/1/437 710/1/436 709/1/613 703/1/615
f 274/1/469 287/1/350 265/1/511 266/1/510
f 631/1/740 737/1/86 746/1/752
f 741/1/750 631/1/740 746/1/752
f 258/1/457 450/1/168 226/1/433 256/1/494
f 704/1/614 707/1/698 696/1/647 697/1/646
f 680/1/755 703/1/615 704/1/614 697/1/646
f 637/1/192 657/1/99 642/1/379 636/1/193
f 421/1/93 422/1/103 398/1/69 392/1/70
f 520/1/601 525/1/493 524/1/492 523/1/602
f 745/1/635 746/1/752 752/1/116
f 723/1/679 738/1/313 733/1/385 719/1/505
f 722/1/160 732/1/85 708/1/88 707/1/698
f 750/1/159 755/1/238 732/1/85 722/1/160
f 534/1/643 543/1/708 541/1/654 535/1/653
f 737/1/86 732/1/85 755/1/238
f 737/1/86 755/1/238 754/1/117
f 497/1/663 504/1/689 500/1/692 496/1/372
