# Blender 4.3.2
# www.blender.org
o hair.070
v 6.864028 0.922300 -0.024435
v 6.864031 0.925617 -0.021425
v 6.864741 0.925445 -0.021624
v 6.862633 0.922621 -0.024064
v 6.865493 0.922207 -0.024544
v 6.863350 0.918764 -0.026606
v 6.865493 0.918631 -0.026775
v 6.862714 0.915243 -0.028259
v 6.861303 0.919184 -0.026065
v 6.857659 0.916770 -0.026539
v 6.859422 0.919977 -0.025236
v 6.860061 0.915788 -0.027645
v 6.861357 0.923141 -0.023460
v 6.863383 0.925881 -0.021119
v 6.857767 0.921011 -0.023991
v 6.860232 0.923865 -0.022621
v 6.859048 0.912968 -0.028626
v 6.855530 0.918146 -0.024989
v 6.856161 0.913971 -0.027289
v 6.853537 0.915499 -0.025565
v 6.862819 0.926258 -0.020682
v 6.865493 0.928659 -0.018577
v 6.862313 0.926700 -0.020170
v 6.859251 0.924729 -0.021620
v 6.853697 0.919872 -0.023045
v 6.856335 0.922296 -0.022489
v 6.854708 0.910884 -0.027735
v 6.861930 0.927193 -0.019598
v 6.858489 0.925681 -0.020516
v 6.852246 0.921758 -0.020920
v 6.855204 0.923708 -0.020860
v 6.851422 0.917383 -0.023186
v 6.849760 0.919508 -0.020570
v 6.865493 0.925404 -0.021672
v 6.861658 0.927679 -0.019035
v 6.857957 0.926644 -0.019400
v 6.854436 0.925141 -0.019220
v 6.851264 0.923614 -0.018829
v 6.849513 0.914748 -0.023050
v 6.866245 0.925445 -0.021624
v 6.866958 0.922300 -0.024435
v 6.861527 0.928140 -0.018501
v 6.857668 0.927586 -0.018309
v 6.853988 0.926506 -0.017670
v 6.851823 0.912581 -0.025647
v 6.866956 0.925617 -0.021425
v 6.868354 0.922621 -0.024064
v 6.867637 0.918764 -0.026606
v 6.868272 0.915243 -0.028259
v 6.865493 0.915133 -0.028562
v 6.861467 0.928685 -0.017870
v 6.857558 0.928654 -0.017072
v 6.850257 0.909540 -0.025374
v 6.867603 0.925881 -0.021119
v 6.869683 0.919184 -0.026065
v 6.869630 0.923141 -0.023460
v 6.865493 0.912339 -0.029708
v 6.862203 0.912444 -0.029364
v 6.847673 0.917233 -0.020052
v 6.847817 0.911988 -0.022613
v 6.845925 0.914815 -0.019405
v 6.868167 0.926258 -0.020682
v 6.870755 0.923865 -0.022621
v 6.871564 0.919977 -0.025236
v 6.861688 0.909141 -0.030045
v 6.858040 0.909718 -0.029230
v 6.846438 0.919879 -0.017172
v 6.848563 0.921691 -0.017966
v 6.846247 0.909212 -0.021882
v 6.868673 0.926700 -0.020170
v 6.857130 0.906220 -0.029312
v 6.853419 0.907580 -0.027655
v 6.847803 0.923679 -0.015629
v 6.850678 0.925263 -0.016972
v 6.852184 0.904308 -0.027333
v 6.848765 0.906533 -0.024823
v 6.869056 0.927193 -0.019598
v 6.871735 0.924729 -0.021620
v 6.850307 0.927595 -0.014345
v 6.853799 0.928185 -0.015812
v 6.847340 0.903349 -0.023916
v 6.869329 0.927679 -0.019035
v 6.873030 0.926644 -0.019400
v 6.872498 0.925681 -0.020516
v 6.873219 0.921011 -0.023991
v 6.850235 0.929715 -0.011957
v 6.853886 0.929800 -0.014047
v 6.857667 0.929698 -0.015864
v 6.869460 0.928140 -0.018501
v 6.873319 0.927586 -0.018309
v 6.876551 0.925141 -0.019220
v 6.875783 0.923708 -0.020860
v 6.874652 0.922296 -0.022489
v 6.873328 0.916770 -0.026539
v 6.861526 0.929204 -0.017268
v 6.869519 0.928685 -0.017870
v 6.873428 0.928654 -0.017072
v 6.876998 0.926506 -0.017670
v 6.879722 0.923614 -0.018829
v 6.877289 0.919872 -0.023045
v 6.870926 0.915788 -0.027645
v 6.861722 0.929737 -0.016663
v 6.869461 0.929204 -0.017268
v 6.873319 0.929698 -0.015864
v 6.875456 0.918146 -0.024989
v 6.871938 0.912968 -0.028626
v 6.868784 0.912444 -0.029364
v 6.862047 0.930274 -0.016055
v 6.858056 0.930751 -0.014656
v 6.869264 0.929737 -0.016663
v 6.877450 0.915499 -0.025565
v 6.874826 0.913971 -0.027289
v 6.869299 0.909141 -0.030045
v 6.865493 0.909016 -0.030412
v 6.858673 0.931784 -0.013448
v 6.854484 0.931433 -0.012307
v 6.851105 0.931818 -0.009588
v 6.876278 0.910884 -0.027735
v 6.865493 0.905428 -0.030585
v 6.872947 0.909718 -0.029230
v 6.869769 0.905572 -0.030202
v 6.861217 0.905572 -0.030202
v 6.855384 0.933068 -0.010582
v 6.848271 0.932034 -0.006415
v 6.852238 0.933951 -0.007360
v 6.847158 0.929265 -0.009248
v 6.873857 0.906220 -0.029312
v 6.870213 0.901960 -0.030148
v 6.860774 0.901960 -0.030148
v 6.856266 0.902722 -0.029185
v 6.845369 0.928819 -0.007077
v 6.847298 0.926551 -0.012262
v 6.877568 0.907580 -0.027655
v 6.878802 0.904308 -0.027333
v 6.874720 0.902722 -0.029185
v 6.855476 0.899009 -0.028699
v 6.851021 0.900846 -0.026660
v 6.845330 0.925584 -0.010479
v 6.845644 0.922292 -0.014440
v 6.880730 0.909540 -0.025374
v 6.875510 0.899009 -0.028699
v 6.879164 0.912581 -0.025647
v 6.849914 0.896959 -0.025569
v 6.843855 0.924525 -0.008717
v 6.844185 0.928284 -0.005060
v 6.843876 0.920748 -0.013113
v 6.844651 0.917910 -0.016191
v 6.879564 0.917383 -0.023186
v 6.881474 0.914748 -0.023050
v 6.842254 0.918921 -0.011567
v 6.842411 0.923419 -0.006918
v 6.846741 0.932078 -0.004081
v 6.845825 0.931995 -0.002085
v 6.843042 0.915715 -0.014940
v 6.844412 0.912291 -0.018568
v 6.881227 0.919508 -0.020570
v 6.840763 0.916790 -0.009701
v 6.841061 0.922070 -0.004851
v 6.843008 0.927745 -0.003032
v 6.847769 0.933939 -0.002416
v 6.849157 0.933678 -0.004797
v 6.842957 0.909504 -0.017283
v 6.841566 0.913224 -0.013351
v 6.844767 0.906224 -0.020798
v 6.850225 0.935466 -0.003087
v 6.853660 0.936185 -0.004986
v 6.851475 0.937326 -0.001371
v 6.840178 0.910366 -0.011360
v 6.845934 0.899772 -0.022617
v 6.843339 0.902825 -0.019304
v 6.848991 0.935923 -0.000655
v 6.850410 0.937959 0.001136
v 6.856462 0.934672 -0.008928
v 6.859410 0.932781 -0.012294
v 6.853216 0.939172 0.000320
v 6.844879 0.896286 -0.020990
v 6.846997 0.934060 -0.000441
v 6.848359 0.936206 0.001308
v 6.862885 0.931174 -0.015001
v 6.862413 0.930782 -0.015439
v 6.860329 0.933566 -0.011386
v 6.855083 0.937712 -0.003512
v 6.844913 0.931906 -0.000073
v 6.846228 0.934173 0.001548
v 6.863377 0.931535 -0.014567
v 6.861351 0.934275 -0.010565
v 6.857777 0.935902 -0.007694
v 6.857257 0.939271 -0.002023
v 6.842005 0.926996 -0.000677
v 6.844199 0.931560 0.002401
v 6.864053 0.931824 -0.014232
v 6.862658 0.934835 -0.009917
v 6.859295 0.937041 -0.006555
v 6.855007 0.941696 0.004590
v 6.855760 0.940917 0.001955
v 6.852318 0.939924 0.002903
v 6.841340 0.925831 0.002317
v 6.839874 0.920282 -0.002285
v 6.864761 0.932004 -0.014025
v 6.861264 0.937979 -0.005627
v 6.858817 0.942337 0.003308
v 6.851904 0.940317 0.004868
v 6.849905 0.938333 0.003097
v 6.839386 0.914333 -0.007414
v 6.865493 0.932043 -0.013979
v 6.864051 0.935176 -0.009522
v 6.859880 0.940563 -0.000783
v 6.847729 0.936480 0.003285
v 6.849400 0.938697 0.005073
v 6.838281 0.911770 -0.005098
v 6.865493 0.935273 -0.009410
v 6.863346 0.938512 -0.005083
v 6.862650 0.941289 -0.000060
v 6.845632 0.934017 0.003973
v 6.847240 0.936480 0.005640
v 6.839811 0.921384 0.002978
v 6.838902 0.918217 0.000359
v 6.865493 0.938672 -0.004913
v 6.858243 0.943106 0.005982
v 6.861790 0.943987 0.006863
v 6.862099 0.943206 0.004153
v 6.845379 0.933328 0.007250
v 6.843872 0.930708 0.005784
v 6.839386 0.919539 0.005574
v 6.841019 0.924394 0.005470
v 6.842505 0.926958 0.007555
v 6.854627 0.942036 0.006559
v 6.857913 0.943369 0.007952
v 6.865493 0.943503 0.004448
v 6.844086 0.929419 0.009236
v 6.841046 0.922834 0.008298
v 6.843072 0.925403 0.010396
v 6.854244 0.942368 0.008541
v 6.851488 0.940701 0.006847
v 6.865493 0.941510 0.000172
v 6.844995 0.927759 0.011916
v 6.846346 0.930411 0.012906
v 6.845581 0.932122 0.010516
v 6.841033 0.920717 0.010741
v 6.846849 0.925736 0.014509
v 6.851156 0.940805 0.009149
v 6.849007 0.938784 0.007394
v 6.868336 0.941289 -0.000060
v 6.847555 0.928805 0.014576
v 6.847133 0.934828 0.011734
v 6.847031 0.935936 0.008733
v 6.837691 0.913665 0.004697
v 6.838193 0.916039 0.002665
v 6.848840 0.938323 0.010389
v 6.865493 0.944296 0.007176
v 6.869196 0.943987 0.006863
v 6.868887 0.943206 0.004153
v 6.837569 0.912852 0.000009
v 6.848889 0.937297 0.013227
v 6.850983 0.939363 0.014851
v 6.850993 0.940361 0.012081
v 6.865493 0.944485 0.009133
v 6.872169 0.942337 0.003308
v 6.861603 0.944197 0.008826
v 6.849148 0.935689 0.015077
v 6.853680 0.941923 0.013674
v 6.853911 0.942420 0.010819
v 6.847578 0.933131 0.013811
v 6.861413 0.944402 0.010797
v 6.857582 0.943625 0.009932
v 6.857270 0.943609 0.012191
v 6.853549 0.940857 0.016465
v 6.856793 0.941909 0.017846
v 6.857002 0.943054 0.014995
v 6.848526 0.931193 0.015278
v 6.861063 0.943801 0.015869
v 6.861231 0.944353 0.013053
v 6.851110 0.937806 0.016668
v 6.853519 0.939204 0.018545
v 6.849088 0.927911 0.015683
v 6.847725 0.926313 0.014661
v 6.865493 0.944613 0.013356
v 6.849801 0.933698 0.016379
v 6.851491 0.935830 0.017962
v 6.856661 0.940120 0.020244
v 6.853705 0.937096 0.020108
v 6.856726 0.937836 0.022114
v 6.842868 0.920337 0.015137
v 6.865493 0.892603 0.002046
v 6.849646 0.926324 0.015276
v 6.865493 0.944670 0.011098
v 6.860823 0.940790 0.021297
v 6.860922 0.942647 0.018775
v 6.854221 0.934664 0.021344
v 6.840026 0.913905 0.015710
v 6.852478 0.926833 0.017334
v 6.850134 0.929358 0.016449
v 6.869573 0.944402 0.010797
v 6.865493 0.942937 0.019126
v 6.865493 0.944078 0.016195
v 6.852243 0.933573 0.019167
v 6.851034 0.931525 0.017572
v 6.852376 0.929724 0.018698
v 6.853358 0.928850 0.019798
v 6.853719 0.927853 0.019653
v 6.869924 0.943801 0.015869
v 6.869755 0.944353 0.013053
v 6.853243 0.931354 0.020246
v 6.854362 0.929493 0.021165
v 6.855095 0.927938 0.021756
v 6.870065 0.942647 0.018775
v 6.873716 0.943609 0.012191
v 6.873985 0.943054 0.014995
v 6.874193 0.941909 0.017846
v 6.855131 0.932051 0.022244
v 6.856497 0.929403 0.022801
v 6.857105 0.935206 0.023383
v 6.857925 0.932268 0.024090
v 6.858092 0.926737 0.023186
v 6.870164 0.940790 0.021297
v 6.877307 0.941923 0.013674
v 6.861245 0.925469 0.024344
v 6.859309 0.929063 0.024271
v 6.861038 0.935607 0.024564
v 6.860837 0.938391 0.023278
v 6.861511 0.932456 0.025176
v 6.862345 0.928954 0.025138
v 6.865493 0.941064 0.021662
v 6.863325 0.925263 0.024969
v 6.865493 0.935773 0.024939
v 6.865493 0.938621 0.023650
v 6.865493 0.932544 0.025530
v 6.865493 0.928957 0.025421
v 6.865493 0.925107 0.025150
v 6.869949 0.935607 0.024564
v 6.870150 0.938391 0.023278
v 6.869475 0.932456 0.025176
v 6.868642 0.928954 0.025138
v 6.867662 0.925263 0.024969
v 6.874261 0.937836 0.022114
v 6.874325 0.940120 0.020244
v 6.873881 0.935206 0.023383
v 6.873062 0.932268 0.024090
v 6.871678 0.929063 0.024271
v 6.869741 0.925469 0.024344
v 6.877282 0.937096 0.020108
v 6.877467 0.939204 0.018545
v 6.876766 0.934664 0.021344
v 6.877438 0.940857 0.016465
v 6.875856 0.932051 0.022244
v 6.874489 0.929403 0.022801
v 6.872895 0.926737 0.023186
v 6.879496 0.935830 0.017962
v 6.880003 0.939363 0.014851
v 6.879877 0.937806 0.016668
v 6.878743 0.933573 0.019167
v 6.877744 0.931354 0.020246
v 6.876624 0.929493 0.021165
v 6.875892 0.927938 0.021756
v 6.881186 0.933698 0.016379
v 6.881839 0.935689 0.015077
v 6.879953 0.931525 0.017572
v 6.877629 0.928850 0.019798
v 6.878611 0.929724 0.018698
v 6.877268 0.927853 0.019653
v 6.882461 0.931193 0.015278
v 6.882097 0.937297 0.013227
v 6.883854 0.934828 0.011734
v 6.883409 0.933131 0.013811
v 6.878509 0.926833 0.017334
v 6.880852 0.929358 0.016449
v 6.884641 0.930411 0.012906
v 6.883431 0.928805 0.014576
v 6.881898 0.927911 0.015683
v 6.882147 0.938323 0.010389
v 6.881341 0.926324 0.015276
v 6.885991 0.927759 0.011916
v 6.883261 0.926313 0.014661
v 6.884138 0.925736 0.014509
v 6.885406 0.932122 0.010516
v 6.886900 0.929419 0.009236
v 6.879993 0.940361 0.012081
v 6.887914 0.925403 0.010396
v 6.888119 0.920337 0.015137
v 6.889954 0.920717 0.010741
v 6.885607 0.933328 0.007250
v 6.888482 0.926958 0.007555
v 6.887115 0.930708 0.005784
v 6.879831 0.940805 0.009149
v 6.877076 0.942420 0.010819
v 6.889941 0.922834 0.008298
v 6.890961 0.913905 0.015710
v 6.883955 0.935936 0.008733
v 6.889647 0.925831 0.002317
v 6.889968 0.924394 0.005470
v 6.886788 0.931560 0.002401
v 6.881980 0.938784 0.007394
v 6.883746 0.936480 0.005640
v 6.876743 0.942368 0.008541
v 6.873405 0.943625 0.009932
v 6.891601 0.919539 0.005574
v 6.891176 0.921384 0.002978
v 6.881587 0.938697 0.005073
v 6.873074 0.943369 0.007952
v 6.869384 0.944197 0.008826
v 6.893296 0.913665 0.004697
v 6.885355 0.934017 0.003973
v 6.879499 0.940701 0.006847
v 6.892698 0.903267 0.015636
v 6.894393 0.905379 0.004610
v 6.884759 0.934173 0.001548
v 6.883257 0.936480 0.003285
v 6.879083 0.940317 0.004868
v 6.876360 0.942036 0.006559
v 6.872744 0.943106 0.005982
v 6.893264 0.890895 0.014614
v 6.893700 0.897092 0.004078
v 6.882628 0.936206 0.001308
v 6.881082 0.938333 0.003097
v 6.875979 0.941696 0.004590
v 6.878669 0.939924 0.002903
v 6.880577 0.937959 0.001136
v 6.875227 0.940917 0.001955
v 6.871106 0.940563 -0.000783
v 6.873729 0.939271 -0.002023
v 6.877771 0.939172 0.000320
v 6.879512 0.937326 -0.001371
v 6.880761 0.935466 -0.003087
v 6.881996 0.935923 -0.000655
v 6.869722 0.937979 -0.005627
v 6.867641 0.938512 -0.005083
v 6.871691 0.937041 -0.006555
v 6.875904 0.937712 -0.003512
v 6.873209 0.935902 -0.007694
v 6.877327 0.936185 -0.004986
v 6.878748 0.933951 -0.007360
v 6.883217 0.933939 -0.002416
v 6.868329 0.934835 -0.009917
v 6.866935 0.935176 -0.009522
v 6.869635 0.934275 -0.010565
v 6.874525 0.934672 -0.008928
v 6.870657 0.933566 -0.011386
v 6.875602 0.933068 -0.010582
v 6.883990 0.934060 -0.000441
v 6.866934 0.931824 -0.014232
v 6.866225 0.932004 -0.014025
v 6.867610 0.931535 -0.014567
v 6.871577 0.932781 -0.012294
v 6.868102 0.931174 -0.015001
v 6.885161 0.931995 -0.002085
v 6.886073 0.931906 -0.000073
v 6.868573 0.930782 -0.015439
v 6.872314 0.931784 -0.013448
v 6.882715 0.932034 -0.006415
v 6.881830 0.933678 -0.004797
v 6.884245 0.932078 -0.004081
v 6.888982 0.926996 -0.000677
v 6.887979 0.927745 -0.003032
v 6.868940 0.930274 -0.016055
v 6.885618 0.928819 -0.007077
v 6.889925 0.922070 -0.004851
v 6.891112 0.920282 -0.002285
v 6.888576 0.923419 -0.006918
v 6.886802 0.928284 -0.005060
v 6.872931 0.930751 -0.014656
v 6.879882 0.931818 -0.009588
v 6.890224 0.916790 -0.009701
v 6.892085 0.918217 0.000359
v 6.887131 0.924525 -0.008717
v 6.885657 0.925584 -0.010479
v 6.876503 0.931433 -0.012307
v 6.877100 0.929800 -0.014047
v 6.892794 0.916039 0.002665
v 6.892705 0.911770 -0.005098
v 6.893417 0.912852 0.000009
v 6.883828 0.929265 -0.009248
v 6.883689 0.926551 -0.012262
v 6.877188 0.928185 -0.015812
v 6.893916 0.910455 0.001847
v 6.891600 0.914333 -0.007414
v 6.880752 0.929715 -0.011957
v 6.880679 0.927595 -0.014345
v 6.883183 0.923679 -0.015629
v 6.880309 0.925263 -0.016972
v 6.894130 0.904461 0.000152
v 6.894220 0.901918 0.001564
v 6.890808 0.910366 -0.011360
v 6.885343 0.922292 -0.014440
v 6.893220 0.899843 -0.004301
v 6.893801 0.906912 -0.001432
v 6.890562 0.888772 -0.004380
v 6.893211 0.897433 -0.002798
v 6.887111 0.920748 -0.013113
v 6.888732 0.918921 -0.011567
v 6.884549 0.919879 -0.017172
v 6.891555 0.892853 -0.007233
v 6.888799 0.887051 -0.009115
v 6.886683 0.883811 -0.008254
v 6.887945 0.915715 -0.014940
v 6.886336 0.917910 -0.016191
v 6.882423 0.921691 -0.017966
v 6.893383 0.909322 -0.003144
v 6.882824 0.880120 -0.011271
v 6.886386 0.886253 -0.014017
v 6.885061 0.914815 -0.019405
v 6.889421 0.913224 -0.013351
v 6.878740 0.921758 -0.020920
v 6.892600 0.904793 -0.007541
v 6.891928 0.907451 -0.009310
v 6.882071 0.883512 -0.016917
v 6.879213 0.877783 -0.013207
v 6.883314 0.917233 -0.020052
v 6.888030 0.909504 -0.017283
v 6.890557 0.903065 -0.013799
v 6.876898 0.881454 -0.019105
v 6.875206 0.876468 -0.014444
v 6.882374 0.885712 -0.018929
v 6.886575 0.912291 -0.018568
v 6.883170 0.911988 -0.022613
v 6.889422 0.906296 -0.015599
v 6.871302 0.880510 -0.020102
v 6.870689 0.875687 -0.015236
v 6.884740 0.909212 -0.021882
v 6.882222 0.906533 -0.024823
v 6.887648 0.902825 -0.019304
v 6.886220 0.906224 -0.020798
v 6.865493 0.880227 -0.020396
v 6.865493 0.875361 -0.015394
v 6.871339 0.882710 -0.022238
v 6.883647 0.903349 -0.023916
v 6.879966 0.900846 -0.026660
v 6.860297 0.875687 -0.015236
v 6.865493 0.882464 -0.022521
v 6.859647 0.882710 -0.022238
v 6.859685 0.880510 -0.020102
v 6.877021 0.883640 -0.021237
v 6.885052 0.899772 -0.022617
v 6.881073 0.896959 -0.025569
v 6.855780 0.876468 -0.014444
v 6.865493 0.884701 -0.024380
v 6.854088 0.881454 -0.019105
v 6.877043 0.885867 -0.023138
v 6.886107 0.896286 -0.020990
v 6.876219 0.894852 -0.027755
v 6.876710 0.891011 -0.026364
v 6.881879 0.893282 -0.024080
v 6.888809 0.899445 -0.017628
v 6.851774 0.877783 -0.013207
v 6.871339 0.884925 -0.024114
v 6.870957 0.893913 -0.028737
v 6.870612 0.898135 -0.029703
v 6.882328 0.890397 -0.022488
v 6.889491 0.896513 -0.015995
v 6.891244 0.900209 -0.012165
v 6.848163 0.880120 -0.011271
v 6.848916 0.883512 -0.016917
v 6.871305 0.887210 -0.025794
v 6.865493 0.897915 -0.030075
v 6.865493 0.901776 -0.030538
v 6.891591 0.897614 -0.010570
v 6.892980 0.902290 -0.005918
v 6.844303 0.883811 -0.008254
v 6.844600 0.886253 -0.014017
v 6.889776 0.893908 -0.014350
v 6.891705 0.895169 -0.008886
v 6.889745 0.891509 -0.012635
v 6.842188 0.887051 -0.009115
v 6.840425 0.888772 -0.004380
v 6.860374 0.898135 -0.029703
v 6.886935 0.890816 -0.017625
v 6.886724 0.893359 -0.019335
v 6.839432 0.892853 -0.007233
v 6.841573 0.889247 -0.010881
v 6.865493 0.893697 -0.029052
v 6.860030 0.893913 -0.028737
v 6.854767 0.894852 -0.027755
v 6.889414 0.889247 -0.010881
v 6.841241 0.891509 -0.012635
v 6.865493 0.889849 -0.027567
v 6.871190 0.890050 -0.027307
v 6.854276 0.891011 -0.026364
v 6.859797 0.890050 -0.027307
v 6.849108 0.893282 -0.024080
v 6.886812 0.888484 -0.015875
v 6.876966 0.888168 -0.024844
v 6.859682 0.887210 -0.025794
v 6.848659 0.890397 -0.022488
v 6.854021 0.888168 -0.024844
v 6.882466 0.887983 -0.020765
v 6.865493 0.887003 -0.026044
v 6.853943 0.885867 -0.023138
v 6.859648 0.884925 -0.024114
v 6.848520 0.887983 -0.020765
v 6.848612 0.885712 -0.018929
v 6.853966 0.883640 -0.021237
v 6.844052 0.890816 -0.017625
v 6.844175 0.888484 -0.015875
v 6.844262 0.893359 -0.019335
v 6.841496 0.896513 -0.015995
v 6.841210 0.893908 -0.014350
v 6.839396 0.897614 -0.010570
v 6.839742 0.900209 -0.012165
v 6.840429 0.903065 -0.013799
v 6.842178 0.899445 -0.017628
v 6.839282 0.895169 -0.008886
v 6.838387 0.904793 -0.007541
v 6.838007 0.902290 -0.005918
v 6.837767 0.899843 -0.004301
v 6.841565 0.906296 -0.015599
v 6.839059 0.907451 -0.009310
v 6.837776 0.897433 -0.002798
v 6.837185 0.906912 -0.001432
v 6.837604 0.909322 -0.003144
v 6.836856 0.904461 0.000152
v 6.836766 0.901918 0.001564
v 6.837287 0.897092 0.004078
v 6.837070 0.910455 0.001847
v 6.836593 0.905379 0.004610
v 6.837722 0.890895 0.014614
v 6.838289 0.903267 0.015636
vn 0.9608 0.1563 -0.2291
vn 0.9386 0.2075 -0.2756
vn 0.9423 0.2947 -0.1587
vn 0.9563 0.2788 -0.0886
vn 0.1049 0.4106 -0.9057
vn 0.1260 0.2965 -0.9467
vn -0.0000 0.2937 -0.9559
vn -0.0000 0.4111 -0.9116
vn -0.5967 -0.5515 -0.5830
vn -0.7635 -0.4490 -0.4642
vn -0.7703 -0.3595 -0.5267
vn -0.6011 -0.4783 -0.6403
vn -0.5555 -0.1426 -0.8192
vn -0.5832 -0.2580 -0.7703
vn -0.7449 -0.1454 -0.6511
vn -0.7122 -0.0474 -0.7004
vn -0.0000 0.4847 -0.8747
vn 0.0831 0.4864 -0.8698
vn 0.4776 0.5610 -0.6762
vn 0.4528 0.5316 -0.7158
vn 0.3368 0.6041 -0.7223
vn 0.3485 0.6347 -0.6897
vn 0.8016 0.2806 0.5279
vn 0.8157 0.2171 0.5361
vn 0.8661 0.3877 0.3155
vn 0.8176 0.4747 0.3260
vn 0.1401 0.6205 -0.7716
vn 0.2164 0.5203 -0.8261
vn 0.1461 0.4960 -0.8559
vn 0.0952 0.6048 -0.7907
vn 0.0750 0.6907 -0.7192
vn 0.0511 0.6838 -0.7279
vn 0.2787 0.5493 -0.7878
vn 0.3466 0.4773 -0.8075
vn 0.2699 0.4410 -0.8560
vn 0.1790 0.6379 -0.7490
vn 0.1250 0.7403 -0.6606
vn 0.2308 0.7117 -0.6635
vn 0.2297 0.6912 -0.6852
vn 0.1223 0.7289 -0.6736
vn 0.2287 0.3151 -0.9211
vn 0.1839 0.4185 -0.8894
vn 0.4355 0.3800 -0.8161
vn 0.3358 0.3419 -0.8777
vn 0.0935 0.6990 -0.7090
vn -0.0750 0.6907 -0.7192
vn -0.0935 0.6990 -0.7090
vn -0.0000 0.7501 -0.6613
vn -0.0511 0.6838 -0.7279
vn -0.0249 0.6794 -0.7334
vn -0.1066 0.7078 -0.6983
vn -0.8462 0.1542 -0.5101
vn -0.8813 0.1893 -0.4330
vn -0.8308 0.2553 -0.4946
vn -0.7923 0.2183 -0.5698
vn 0.3133 0.5753 -0.7555
vn 0.2034 0.6528 -0.7297
vn 0.4087 0.5075 -0.7585
vn 0.5213 0.4192 -0.7433
vn 0.0825 0.7940 -0.6023
vn 0.0664 0.8014 -0.5944
vn 0.1179 0.7966 -0.5928
vn 0.1474 0.7893 -0.5960
vn 0.4066 0.2149 -0.8880
vn 0.2709 0.1704 -0.9474
vn 0.1162 0.7179 -0.6864
vn 0.2200 0.6712 -0.7078
vn 0.1066 0.7078 -0.6983
vn -0.1162 0.7179 -0.6864
vn -0.9027 0.2625 -0.3408
vn -0.9386 0.2075 -0.2756
vn -0.9423 0.2947 -0.1587
vn -0.9081 0.3390 -0.2459
vn -0.8600 -0.0288 -0.5094
vn -0.8249 0.0458 -0.5634
vn -0.0000 0.6781 -0.7350
vn -0.1223 0.7289 -0.6736
vn -0.1049 0.4106 -0.9057
vn -0.0831 0.4864 -0.8698
vn 0.1553 0.9497 0.2719
vn 0.3133 0.9169 0.2473
vn 0.2791 0.9579 0.0677
vn 0.1375 0.9857 0.0974
vn -0.9563 0.2788 -0.0886
vn -0.9679 0.2513 0.0049
vn -0.9485 0.2874 0.1333
vn -0.9491 0.3146 0.0141
vn 0.4577 0.1243 0.8804
vn 0.4928 -0.0186 0.8700
vn 0.9968 0.0510 0.0614
vn 0.9732 0.2017 0.1102
vn -0.0000 0.5964 -0.8027
vn -0.0509 0.5976 -0.8002
vn 0.0249 0.6794 -0.7334
vn -0.1250 0.7403 -0.6606
vn 0.5704 0.4461 -0.6897
vn 0.6549 0.3685 -0.6598
vn 0.6095 0.3244 -0.7234
vn -0.1260 0.2965 -0.9467
vn -0.2287 0.3151 -0.9211
vn -0.1839 0.4185 -0.8894
vn 0.3500 0.6650 -0.6597
vn 0.4895 0.5964 -0.6361
vn -0.0952 0.6048 -0.7907
vn -0.1461 0.4960 -0.8559
vn -0.2034 0.6528 -0.7297
vn -0.2200 0.6712 -0.7078
vn 0.0495 0.8056 -0.5904
vn 0.0239 0.8099 -0.5861
vn 0.0579 0.8039 -0.5919
vn 0.0901 0.8011 -0.5917
vn -0.1243 0.7511 -0.6484
vn 0.6706 0.2444 -0.7004
vn 0.5779 0.1808 -0.7959
vn 0.5224 0.2668 -0.8099
vn 0.4518 0.1174 -0.8844
vn 0.7703 -0.3595 -0.5267
vn 0.7651 -0.2543 -0.5916
vn 0.8850 -0.1205 -0.4497
vn 0.8952 -0.2177 -0.3889
vn -0.8903 -0.3111 -0.3325
vn -0.8952 -0.2177 -0.3889
vn 0.0509 0.5976 -0.8002
vn 0.2412 0.9560 -0.1672
vn 0.1253 0.9847 -0.1214
vn 0.1240 0.9909 -0.0530
vn 0.2464 0.9646 -0.0936
vn -0.9561 -0.1752 -0.2349
vn -0.9551 -0.0982 -0.2797
vn -0.7509 0.1824 0.6348
vn -0.6560 0.3195 0.6838
vn -0.6076 0.5383 0.5840
vn -0.7427 0.3957 0.5402
vn 0.1424 0.1383 -0.9801
vn -0.0000 0.1298 -0.9915
vn -0.3521 0.8222 0.4471
vn -0.1738 0.8629 0.4745
vn -0.1553 0.9497 0.2719
vn -0.3133 0.9169 0.2473
vn 0.1032 0.7814 -0.6155
vn 0.1853 0.7773 -0.6012
vn 0.2093 0.7519 -0.6251
vn 0.1164 0.7681 -0.6297
vn 0.7274 0.1739 -0.6638
vn 0.7289 0.2895 -0.6204
vn 0.7923 0.2183 -0.5698
vn -0.1790 0.6379 -0.7490
vn 0.5555 -0.1426 -0.8192
vn 0.3481 -0.2224 -0.9107
vn 0.3328 -0.1103 -0.9365
vn 0.5222 -0.0429 -0.8518
vn 0.2949 0.0651 -0.9533
vn 0.6798 0.4098 -0.6082
vn 0.5980 0.4780 -0.6433
vn 0.6206 0.5217 -0.5854
vn 0.7118 0.4645 -0.5269
vn -0.4862 0.0427 -0.8728
vn -0.5222 -0.0429 -0.8518
vn -0.6707 0.0348 -0.7410
vn -0.6239 0.1090 -0.7738
vn -0.4377 0.4463 0.7805
vn -0.1971 0.5129 0.8355
vn -0.1886 0.7118 0.6765
vn -0.3991 0.6558 0.6408
vn -0.3133 0.5753 -0.7555
vn -0.3368 0.6041 -0.7223
vn 0.7427 0.3957 0.5402
vn 0.7509 0.1824 0.6348
vn 0.7467 0.0850 0.6598
vn 0.4879 0.6319 -0.6022
vn 0.3411 0.6934 -0.6347
vn 0.6707 0.0348 -0.7410
vn 0.4862 0.0427 -0.8728
vn 0.6239 0.1090 -0.7738
vn -0.2297 0.6912 -0.6852
vn 0.7641 0.3288 -0.5551
vn 0.7867 0.6023 0.1353
vn 0.6600 0.7327 0.1658
vn 0.7103 0.6053 0.3593
vn 0.9081 0.3390 -0.2459
vn 0.8509 0.4020 -0.3382
vn 0.8295 0.4812 -0.2834
vn 0.8944 0.4226 -0.1466
vn -0.1401 0.6205 -0.7716
vn -0.2308 0.7117 -0.6635
vn -0.3485 0.6347 -0.6897
vn -0.3500 0.6650 -0.6597
vn -0.6798 0.4098 -0.6082
vn -0.7118 0.4645 -0.5269
vn -0.6206 0.5217 -0.5854
vn -0.5980 0.4780 -0.6433
vn 0.8462 0.1542 -0.5101
vn 0.7814 0.1076 -0.6147
vn -0.2699 0.4410 -0.8560
vn -0.2164 0.5203 -0.8261
vn -0.1213 0.7605 -0.6380
vn 0.1243 0.7511 -0.6484
vn -0.2239 0.7310 -0.6446
vn -0.3411 0.6934 -0.6347
vn -0.4776 0.5610 -0.6762
vn -0.4528 0.5316 -0.7158
vn -0.4087 0.5075 -0.7585
vn -0.2787 0.5493 -0.7878
vn -0.3466 0.4773 -0.8075
vn -0.2093 0.7519 -0.6251
vn -0.1164 0.7681 -0.6297
vn 0.1213 0.7605 -0.6380
vn -0.3358 0.3419 -0.8777
vn -0.1032 0.7814 -0.6155
vn 0.9758 -0.0219 -0.2177
vn 0.9882 0.0428 -0.1471
vn 0.9928 0.0030 -0.1196
vn 0.9800 -0.0769 -0.1837
vn 0.5967 -0.5515 -0.5830
vn 0.7635 -0.4490 -0.4642
vn 0.7516 -0.5318 -0.3903
vn 0.6042 -0.6074 -0.5157
vn -0.8748 0.3549 0.3299
vn -0.8802 0.3431 0.3280
vn -0.8787 0.4618 0.1208
vn -0.8928 0.4384 0.1034
vn -0.7924 0.3990 -0.4615
vn -0.7641 0.3288 -0.5551
vn -0.8511 0.3334 -0.4055
vn -0.1424 0.1383 -0.9801
vn -0.2709 0.1704 -0.9474
vn 0.1650 0.7878 -0.5934
vn 0.0970 0.7881 -0.6079
vn -0.1853 0.7773 -0.6012
vn -0.2942 0.7647 -0.5733
vn -0.1650 0.7878 -0.5934
vn 0.9254 0.3790 -0.0029
vn 0.8576 0.5089 -0.0742
vn 0.8928 0.4384 0.1035
vn -0.4066 0.2149 -0.8880
vn -0.5224 0.2668 -0.8099
vn -0.4355 0.3800 -0.8161
vn -0.4895 0.5964 -0.6361
vn 0.1475 0.0313 -0.9886
vn -0.0000 0.0210 -0.9998
vn -0.1475 0.0313 -0.9886
vn -0.2949 0.0651 -0.9533
vn 0.2708 0.7768 -0.5685
vn 0.2942 0.7647 -0.5733
vn 0.4245 0.7440 -0.5160
vn 0.4002 0.7606 -0.5111
vn 0.5542 0.7039 -0.4443
vn 0.6175 0.6199 -0.4842
vn 0.4673 0.6873 -0.5560
vn 0.5246 0.7254 -0.4456
vn -0.7840 -0.2276 0.5776
vn -0.7138 -0.1350 0.6872
vn -0.7415 -0.0875 0.6652
vn -0.7524 -0.1947 0.6293
vn -0.0452 0.8387 -0.5427
vn -0.0000 0.8403 -0.5421
vn -0.0000 0.8069 -0.5906
vn -0.0233 0.8063 -0.5911
vn -0.1492 -0.0504 -0.9875
vn -0.3135 -0.0133 -0.9495
vn 0.1492 -0.0504 -0.9875
vn -0.0000 -0.0620 -0.9981
vn -0.8069 0.1983 0.5564
vn -0.7963 0.2251 0.5615
vn 0.7363 0.5481 -0.3969
vn 0.6729 0.6483 -0.3562
vn 0.8778 -0.4786 0.0193
vn 0.4295 -0.7290 0.5330
vn -0.4518 0.1174 -0.8844
vn -0.3612 -0.3493 -0.8646
vn -0.3706 -0.4775 -0.7966
vn -0.5993 -0.3783 -0.7055
vn 0.3135 -0.0133 -0.9495
vn 0.7463 0.4861 -0.4547
vn 0.6387 0.5527 -0.5354
vn -0.9165 0.1369 -0.3758
vn -0.9449 0.0844 -0.3164
vn -0.9608 0.1563 -0.2291
vn -0.5779 0.1808 -0.7959
vn -0.1490 -0.1562 -0.9764
vn -0.3328 -0.1103 -0.9365
vn 0.7122 -0.0474 -0.7004
vn 0.2410 0.7907 -0.5627
vn 0.7889 0.5106 -0.3420
vn 0.8093 0.4401 -0.3891
vn 0.7924 0.3990 -0.4615
vn -0.6095 0.3244 -0.7234
vn -0.5213 0.4192 -0.7433
vn -0.0970 0.7881 -0.6079
vn -0.1474 0.7893 -0.5960
vn -0.0825 0.7940 -0.6023
vn -0.1954 0.9080 -0.3707
vn -0.1558 0.8732 -0.4618
vn -0.2313 0.8481 -0.4766
vn -0.2822 0.8734 -0.3969
vn -0.7463 0.4861 -0.4547
vn -0.8093 0.4401 -0.3891
vn -0.7889 0.5106 -0.3420
vn -0.7363 0.5481 -0.3969
vn 0.8308 0.2553 -0.4946
vn 0.8511 0.3334 -0.4055
vn -0.6549 0.3685 -0.6598
vn -0.5704 0.4461 -0.6897
vn 0.9027 0.2625 -0.3408
vn 0.8813 0.1893 -0.4330
vn 0.3219 0.7296 -0.6033
vn 0.7314 0.6105 -0.3039
vn 0.7813 0.5773 -0.2372
vn -0.9732 0.2017 0.1102
vn -0.4577 0.1243 0.8804
vn -0.8704 0.3656 0.3299
vn 0.6314 0.6876 -0.3584
vn 0.3357 -0.6906 -0.6406
vn 0.1486 -0.7124 -0.6859
vn 0.1549 -0.7006 -0.6965
vn 0.3698 -0.6710 -0.6426
vn -0.5246 0.7254 -0.4456
vn -0.4976 0.7425 -0.4485
vn -0.4002 0.7606 -0.5111
vn 0.6360 0.7417 -0.2130
vn 0.5125 0.8386 -0.1846
vn 0.5941 0.8042 -0.0136
vn 0.7248 0.6877 -0.0413
vn 0.3591 0.7850 -0.5048
vn -0.3165 -0.0566 0.9469
vn -0.4804 -0.2031 0.8532
vn -0.5153 -0.1413 0.8453
vn -0.6485 0.0495 0.7596
vn 0.9165 0.1369 -0.3758
vn 0.8854 0.1020 -0.4534
vn 0.8249 0.0458 -0.5634
vn 0.5493 0.7598 -0.3478
vn 0.6027 0.7124 -0.3595
vn 0.4976 0.7425 -0.4485
vn 0.4537 0.7731 -0.4433
vn 0.9473 -0.2728 -0.1681
vn 0.8753 -0.3946 -0.2797
vn 0.8903 -0.3111 -0.3325
vn 0.9561 -0.1752 -0.2349
vn 0.3722 0.8259 -0.4235
vn 0.3008 0.8161 -0.4934
vn 0.4481 0.8343 -0.3211
vn 0.7449 -0.1454 -0.6511
vn 0.5832 -0.2580 -0.7703
vn 0.8600 -0.0288 -0.5094
vn -0.6360 0.7417 -0.2130
vn -0.5125 0.8386 -0.1846
vn -0.4749 0.8402 -0.2619
vn -0.5889 0.7544 -0.2900
vn 0.6533 0.6937 -0.3031
vn 0.5889 0.7544 -0.2900
vn -0.6706 0.2444 -0.7004
vn 0.8704 0.3656 0.3299
vn 0.8170 0.3772 0.4361
vn 0.4602 0.1649 0.8724
vn 0.3172 0.2341 0.9190
vn 0.7442 0.6268 -0.2307
vn 0.6884 0.6582 -0.3046
vn 0.7957 0.6031 -0.0559
vn 0.7062 0.6705 -0.2274
vn -0.0664 0.8014 -0.5944
vn 0.2313 0.8481 -0.4766
vn 0.1957 0.8060 -0.5587
vn 0.1581 0.8176 -0.5536
vn 0.9921 0.1215 -0.0327
vn 0.8308 0.5533 -0.0598
vn -0.0495 0.8056 -0.5904
vn -0.0000 -0.0504 0.9987
vn -0.0000 0.0752 0.9972
vn -0.1923 0.0548 0.9798
vn -0.1876 -0.0763 0.9793
vn -0.5439 0.7350 0.4049
vn -0.7442 0.6268 -0.2307
vn -0.6884 0.6582 -0.3046
vn -0.7314 0.6105 -0.3039
vn -0.7813 0.5773 -0.2372
vn 0.8787 0.4618 0.1208
vn -0.0239 0.8099 -0.5861
vn -0.2791 0.9579 0.0677
vn -0.2464 0.9646 -0.0936
vn -0.3726 0.9169 -0.1430
vn -0.4328 0.9012 0.0252
vn -0.1581 0.8176 -0.5536
vn -0.1040 0.8301 -0.5478
vn -0.0579 0.8039 -0.5919
vn 0.1954 0.9080 -0.3707
vn 0.2822 0.8734 -0.3969
vn 0.1558 0.8732 -0.4618
vn 0.3370 0.8977 -0.2837
vn 0.2353 0.9419 -0.2399
vn 0.4749 0.8402 -0.2619
vn 0.3517 0.9101 -0.2192
vn -0.0000 0.8114 -0.5845
vn 0.1040 0.8301 -0.5478
vn 0.0233 0.8063 -0.5911
vn 0.0452 0.8387 -0.5427
vn 0.9449 0.0844 -0.3164
vn 0.0738 0.8882 -0.4536
vn 0.0991 0.9305 -0.3527
vn -0.3591 0.7850 -0.5048
vn -0.2410 0.7907 -0.5627
vn -0.2708 0.7768 -0.5685
vn -0.9254 0.3790 -0.0029
vn -0.0000 0.8921 -0.4518
vn -0.0991 0.9305 -0.3527
vn -0.0738 0.8882 -0.4536
vn -0.4245 0.7440 -0.5160
vn -0.9473 -0.2728 -0.1681
vn -0.9757 -0.1812 -0.1228
vn -0.9800 -0.0769 -0.1837
vn 0.9485 0.2874 0.1333
vn 0.9679 0.2513 0.0049
vn 0.9491 0.3146 0.0141
vn -0.9222 0.3576 0.1473
vn 0.9222 0.3576 0.1473
vn 0.9042 0.3423 0.2555
vn 0.1232 0.9714 -0.2029
vn -0.0000 -0.7157 -0.6984
vn -0.0000 -0.7043 -0.7099
vn -0.0000 0.9379 -0.3468
vn -0.8889 0.3829 0.2515
vn 0.8748 0.3549 0.3299
vn 0.8802 0.3431 0.3280
vn -0.8576 0.5089 -0.0742
vn -0.8308 0.5533 -0.0598
vn -0.7467 0.0850 0.6598
vn -0.7187 -0.0861 0.6900
vn -0.7530 0.0198 0.6577
vn 0.6485 0.0495 0.7596
vn 0.7963 0.2251 0.5615
vn 0.8069 0.1983 0.5564
vn -0.3517 0.9101 -0.2192
vn -0.3370 0.8977 -0.2837
vn -0.4481 0.8343 -0.3211
vn -0.9042 0.3423 0.2555
vn -0.8170 0.3772 0.4361
vn -0.4602 0.1649 0.8724
vn 0.8507 0.5114 0.1213
vn -0.5493 0.7598 -0.3478
vn -0.3722 0.8259 -0.4235
vn -0.4537 0.7731 -0.4433
vn 0.3726 0.9169 -0.1430
vn 0.4328 0.9012 0.0252
vn 0.9955 -0.0759 -0.0571
vn 0.9757 -0.1812 -0.1228
vn 0.9178 0.0451 -0.3945
vn -0.9758 -0.0219 -0.2177
vn -0.9659 0.0268 -0.2574
vn -0.9429 -0.0253 -0.3322
vn 0.7656 -0.2975 0.5704
vn 0.7840 -0.2276 0.5776
vn 0.7138 -0.1350 0.6872
vn 0.6334 -0.1146 0.7653
vn -0.5941 0.8042 -0.0136
vn -0.5542 0.7039 -0.4443
vn -0.1232 0.9714 -0.2029
vn -0.0000 0.9821 -0.1882
vn -0.9760 0.1889 -0.1080
vn 0.9760 0.1889 -0.1080
vn 0.4875 0.8482 0.2071
vn 0.5439 0.7350 0.4049
vn -0.1253 0.9847 -0.1214
vn -0.0000 0.9947 -0.1030
vn -0.8854 0.1020 -0.4534
vn -0.7814 0.1076 -0.6147
vn -0.2353 0.9419 -0.2399
vn 0.3730 -0.5708 -0.7315
vn 0.6011 -0.4783 -0.6403
vn 0.3726 -0.6300 -0.6814
vn -0.0000 0.9993 -0.0374
vn 0.8398 -0.4998 -0.2120
vn 0.7913 -0.5892 0.1636
vn -0.8850 -0.1205 -0.4497
vn -0.7651 -0.2543 -0.5916
vn 0.3521 0.8222 0.4471
vn 0.7033 0.0544 0.7088
vn 0.1738 0.8629 0.4745
vn 0.6076 0.5383 0.5840
vn 0.3991 0.6558 0.6408
vn 0.9659 0.0268 -0.2574
vn 0.9792 0.0827 -0.1851
vn 0.6119 -0.1387 0.7787
vn 0.5153 -0.1413 0.8453
vn 0.4804 -0.2031 0.8532
vn 0.3165 -0.0566 0.9469
vn -0.0000 0.9942 0.1075
vn -0.0000 0.5280 0.8493
vn -0.1983 0.2814 0.9389
vn -0.0000 0.2990 0.9543
vn 0.6560 0.3195 0.6838
vn 0.4377 0.4463 0.7805
vn -0.3172 0.2341 0.9190
vn 0.2404 -0.5769 0.7806
vn 0.1446 -0.2745 -0.9507
vn 0.1490 -0.1562 -0.9764
vn 0.1886 0.7118 0.6765
vn 0.1971 0.5129 0.8355
vn 0.6660 0.1240 0.7356
vn 0.7530 0.0198 0.6577
vn 0.4468 0.2186 0.8675
vn 0.6532 -0.2653 0.7091
vn -0.3726 -0.6300 -0.6814
vn -0.3698 -0.6710 -0.6426
vn -0.6042 -0.6074 -0.5157
vn -0.0000 -0.2907 -0.9568
vn -0.0000 -0.1713 -0.9852
vn -0.0000 0.8745 0.4850
vn -0.0000 0.7246 0.6892
vn -0.1425 -0.5241 -0.8397
vn -0.1411 -0.4001 -0.9056
vn 0.7187 -0.0861 0.6900
vn -0.6532 -0.2653 0.7091
vn -0.7656 -0.2975 0.5704
vn -0.0000 0.9601 0.2795
vn -0.1375 0.9857 0.0974
vn -0.4875 0.8482 0.2071
vn 0.7524 -0.1947 0.6293
vn 0.7415 -0.0875 0.6652
vn 0.6234 -0.0412 0.7808
vn -0.1240 0.9909 -0.0530
vn 0.5294 -0.1265 0.8389
vn -0.6334 -0.1145 0.7653
vn -0.5294 -0.1265 0.8389
vn 0.4197 0.0009 0.9077
vn -0.3980 -0.1065 0.9112
vn -0.1499 -0.6643 -0.7323
vn -0.3730 -0.5708 -0.7315
vn -0.1458 -0.6116 -0.7776
vn -0.3246 -0.1404 0.9354
vn -0.3889 -0.1487 0.9092
vn 0.1983 0.2814 0.9389
vn 0.1923 0.0548 0.9798
vn -0.7033 0.0544 0.7088
vn -0.8016 0.2806 0.5279
vn -0.8157 0.2171 0.5361
vn 0.1876 -0.0763 0.9793
vn 0.1411 -0.4001 -0.9056
vn -0.0000 -0.4124 -0.9110
vn -0.0000 -0.0699 0.9976
vn -0.1672 -0.0927 0.9816
vn -0.4197 0.0009 0.9077
vn -0.6234 -0.0412 0.7808
vn -0.6660 0.1240 0.7356
vn 0.3889 -0.1487 0.9092
vn 0.3246 -0.1404 0.9354
vn 0.3980 -0.1065 0.9112
vn 0.1672 -0.0927 0.9816
vn -0.7103 0.6053 0.3593
vn -0.6600 0.7327 0.1658
vn -0.8176 0.4747 0.3260
vn -0.4673 0.6873 -0.5560
vn -0.6175 0.6199 -0.4842
vn -0.6119 -0.1387 0.7787
vn -0.8661 0.3877 0.3155
vn -0.6027 0.7124 -0.3595
vn -0.7867 0.6023 0.1353
vn -0.8507 0.5114 0.1213
vn -0.2404 -0.5769 0.7806
vn 0.8889 0.3829 0.2515
vn -0.7248 0.6877 -0.0413
vn -0.6729 0.6483 -0.3562
vn -0.8944 0.4226 -0.1466
vn -0.7957 0.6031 -0.0559
vn -0.7062 0.6705 -0.2274
vn -0.2412 0.9560 -0.1672
vn -0.9968 0.0510 0.0614
vn -0.4928 -0.0186 0.8700
vn -0.6533 0.6937 -0.3031
vn -0.8778 -0.4786 0.0193
vn -0.4295 -0.7290 0.5330
vn -0.8295 0.4812 -0.2834
vn -0.3008 0.8161 -0.4934
vn -0.6314 0.6876 -0.3584
vn 0.2239 0.7310 -0.6446
vn -0.0901 0.8011 -0.5917
vn -0.1957 0.8060 -0.5587
vn -0.1179 0.7966 -0.5928
vn 0.5287 -0.6481 -0.5481
vn 0.6897 -0.5994 -0.4061
vn 0.7670 -0.5798 -0.2748
vn -0.7289 0.2895 -0.6204
vn -0.8509 0.4020 -0.3382
vn -0.4468 0.2186 0.8675
vn -0.3219 0.7296 -0.6033
vn -0.9882 0.0428 -0.1471
vn -0.9921 0.1215 -0.0327
vn -0.9792 0.0827 -0.1851
vn -0.6387 0.5527 -0.5354
vn -0.4879 0.6319 -0.6022
vn -0.9928 0.0030 -0.1196
vn -0.9955 -0.0759 -0.0571
vn -0.8753 -0.3946 -0.2797
vn -0.8398 -0.4998 -0.2120
vn -0.7913 -0.5892 0.1636
vn -0.7516 -0.5318 -0.3903
vn -0.6897 -0.5994 -0.4061
vn -0.7670 -0.5798 -0.2748
vn -0.9178 0.0451 -0.3945
vn -0.5287 -0.6481 -0.5481
vn -0.3357 -0.6906 -0.6406
vn -0.1549 -0.7006 -0.6965
vn -0.1486 -0.7124 -0.6859
vn -0.7274 0.1739 -0.6638
vn -0.0000 -0.6682 -0.7440
vn 0.1425 -0.5241 -0.8397
vn 0.3706 -0.4775 -0.7966
vn 0.1458 -0.6116 -0.7776
vn 0.3612 -0.3493 -0.8646
vn -0.3481 -0.2224 -0.9107
vn -0.0000 -0.6162 -0.7876
vn 0.1499 -0.6643 -0.7323
vn -0.0000 -0.5311 -0.8473
vn -0.1446 -0.2745 -0.9507
vn 0.5993 -0.3783 -0.7055
vn 0.9551 -0.0982 -0.2797
vn 0.9429 -0.0253 -0.3322
vt 0.000000 0.000000
s 1
f 469/1/1 475/1/2 457/1/3 463/1/4
f 49/1/5 107/1/6 57/1/7 50/1/8
f 589/1/9 592/1/10 591/1/11 588/1/12
f 143/1/13 578/1/14 176/1/15 169/1/16
f 49/1/5 50/1/8 7/1/17 48/1/18
f 99/1/19 502/1/20 92/1/21 91/1/22
f 356/1/23 364/1/24 363/1/25 362/1/26
f 56/1/27 64/1/28 55/1/29 47/1/30
f 54/1/31 56/1/27 47/1/30 46/1/32
f 85/1/33 105/1/34 94/1/35 64/1/28
f 63/1/36 85/1/33 64/1/28 56/1/27
f 89/1/37 90/1/38 83/1/39 82/1/40
f 106/1/41 107/1/6 49/1/5 101/1/42
f 111/1/43 112/1/44 94/1/35 105/1/34
f 62/1/45 63/1/36 56/1/27 54/1/31
f 14/1/46 21/1/47 22/1/48
f 14/1/46 22/1/48 2/1/49
f 2/1/49 22/1/48 3/1/50
f 21/1/47 23/1/51 22/1/48
f 162/1/52 163/1/53 154/1/54 155/1/55
f 93/1/56 85/1/33 63/1/36 78/1/57
f 100/1/58 148/1/59 111/1/43 105/1/34
f 444/1/60 442/1/61 437/1/62 443/1/63
f 118/1/64 120/1/65 106/1/41 112/1/44
f 502/1/20 100/1/58 93/1/56 92/1/21
f 77/1/66 84/1/67 78/1/57 70/1/68
f 23/1/51 28/1/69 22/1/48
f 93/1/56 78/1/57 84/1/67 92/1/21
f 157/1/70 204/1/71 198/1/72 158/1/73
f 176/1/15 599/1/74 170/1/75 169/1/16
f 3/1/50 22/1/48 34/1/76
f 28/1/69 35/1/77 22/1/48
f 7/1/17 50/1/8 8/1/78 6/1/79
f 301/1/80 308/1/81 307/1/82 302/1/83
f 94/1/35 112/1/44 106/1/41 101/1/42
f 217/1/84 248/1/85 224/1/86 216/1/87
f 387/1/88 404/1/89 405/1/90 401/1/91
f 91/1/22 92/1/21 84/1/67 83/1/39
f 3/1/50 34/1/76 5/1/92 1/1/93
f 34/1/76 22/1/48 40/1/94
f 7/1/17 6/1/79 1/1/93 5/1/92
f 35/1/77 42/1/95 22/1/48
f 156/1/96 507/1/97 149/1/98 148/1/59
f 8/1/78 58/1/99 17/1/100 12/1/101
f 98/1/102 479/1/103 99/1/19 91/1/22
f 40/1/94 22/1/48 46/1/32
f 1/1/93 4/1/104 2/1/49 3/1/50
f 6/1/79 9/1/105 4/1/104 1/1/93
f 24/1/106 29/1/107 28/1/69 23/1/51
f 440/1/108 441/1/109 433/1/110 435/1/111
f 42/1/95 51/1/112 22/1/48
f 100/1/58 105/1/34 85/1/33 93/1/56
f 149/1/98 514/1/113 140/1/114 142/1/115
f 118/1/64 142/1/115 140/1/114 133/1/116
f 565/1/117 566/1/118 548/1/119 559/1/120
f 46/1/32 22/1/48 54/1/31
f 8/1/78 12/1/101 9/1/105 6/1/79
f 573/1/121 595/1/122 591/1/11 592/1/10
f 47/1/30 55/1/29 48/1/18 41/1/123
f 57/1/7 58/1/99 8/1/78 50/1/8
f 399/1/124 400/1/125 293/1/126 395/1/127
f 54/1/31 22/1/48 62/1/45
f 573/1/121 600/1/128 596/1/129 595/1/122
f 279/1/130 281/1/131 274/1/132 273/1/133
f 113/1/134 114/1/135 57/1/7 107/1/6
f 268/1/136 288/1/137 271/1/138 269/1/139
f 454/1/140 460/1/141 104/1/142 110/1/143
f 90/1/38 98/1/102 91/1/22 83/1/39
f 94/1/35 101/1/42 55/1/29 64/1/28
f 518/1/144 514/1/113 500/1/145 513/1/146
f 62/1/45 22/1/48 70/1/68
f 16/1/147 24/1/106 23/1/51 21/1/47
f 533/1/148 539/1/149 141/1/150 526/1/151
f 118/1/64 133/1/116 127/1/152 120/1/65
f 490/1/153 496/1/154 478/1/155 483/1/156
f 478/1/155 496/1/154 99/1/19 479/1/103
f 75/1/157 137/1/158 81/1/159 76/1/160
f 282/1/161 320/1/162 287/1/163 280/1/164
f 70/1/68 22/1/48 77/1/66
f 26/1/165 31/1/166 29/1/107 24/1/106
f 356/1/23 350/1/167 348/1/168 355/1/169
f 477/1/170 479/1/103 98/1/102 473/1/171
f 525/1/172 526/1/151 134/1/173 519/1/174
f 307/1/82 395/1/127 293/1/126 302/1/83
f 77/1/66 22/1/48 82/1/40
f 28/1/69 29/1/107 36/1/175 35/1/77
f 500/1/145 507/1/97 490/1/153 495/1/176
f 370/1/177 377/1/178 349/1/179 362/1/26
f 456/1/180 458/1/181 453/1/182 452/1/183
f 21/1/47 14/1/46 13/1/184 16/1/147
f 36/1/175 43/1/185 42/1/95 35/1/77
f 82/1/40 22/1/48 89/1/37
f 29/1/107 31/1/166 37/1/186 36/1/175
f 37/1/186 44/1/187 43/1/185 36/1/175
f 67/1/188 139/1/189 73/1/190 68/1/191
f 508/1/192 521/1/193 518/1/144 513/1/146
f 9/1/105 12/1/101 10/1/194 11/1/195
f 51/1/112 95/1/196 22/1/48
f 89/1/37 22/1/48 96/1/197
f 43/1/185 52/1/198 51/1/112 42/1/95
f 44/1/187 80/1/199 52/1/198 43/1/185
f 38/1/200 37/1/186 31/1/166 30/1/201
f 140/1/114 519/1/174 134/1/173 133/1/116
f 31/1/166 26/1/165 25/1/202 30/1/201
f 25/1/202 26/1/165 15/1/203 18/1/204
f 95/1/196 88/1/205 102/1/206
f 95/1/196 102/1/206 22/1/48
f 96/1/197 22/1/48 103/1/207
f 88/1/205 95/1/196 51/1/112 52/1/198
f 46/1/32 47/1/30 41/1/123 40/1/94
f 17/1/100 19/1/208 10/1/194 12/1/101
f 102/1/206 108/1/209 22/1/48
f 149/1/98 142/1/115 111/1/43 148/1/59
f 556/1/210 485/1/211 480/1/212 484/1/213
f 103/1/207 110/1/143 104/1/142
f 103/1/207 22/1/48 110/1/143
f 512/1/214 579/1/215 499/1/216 505/1/217
f 230/1/218 238/1/219 222/1/220 223/1/221
f 146/1/222 147/1/223 154/1/54 150/1/224
f 65/1/225 66/1/226 17/1/100 58/1/99
f 448/1/227 460/1/141 454/1/140 447/1/228
f 109/1/229 116/1/230 115/1/231
f 389/1/232 452/1/183 391/1/233 383/1/234
f 57/1/7 114/1/135 65/1/225 58/1/99
f 27/1/235 45/1/236 20/1/237 19/1/208
f 38/1/200 74/1/238 44/1/187 37/1/186
f 113/1/134 121/1/239 119/1/240 114/1/135
f 65/1/225 122/1/241 71/1/242 66/1/226
f 438/1/243 466/1/244 448/1/227 443/1/63
f 461/1/245 466/1/244 438/1/243 431/1/246
f 449/1/247 471/1/248 476/1/249 461/1/245
f 449/1/247 461/1/245 431/1/246 450/1/250
f 299/1/251 304/1/252 303/1/253 298/1/254
f 212/1/255 218/1/256 211/1/257 206/1/258
f 129/1/259 130/1/260 71/1/242 122/1/241
f 120/1/65 127/1/152 121/1/239 113/1/134
f 128/1/261 554/1/262 119/1/240 121/1/239
f 237/1/263 238/1/219 230/1/218 236/1/264
f 455/1/265 471/1/248 449/1/247 451/1/266
f 412/1/267 405/1/90 404/1/89 411/1/268
f 71/1/242 130/1/260 75/1/157 72/1/269
f 576/1/270 583/1/271 582/1/272 578/1/14
f 134/1/173 526/1/151 141/1/150 135/1/273
f 465/1/274 483/1/156 478/1/155 472/1/275
f 168/1/276 605/1/277 210/1/278 204/1/71
f 75/1/157 76/1/160 53/1/279 72/1/269
f 129/1/259 564/1/280 136/1/281 130/1/260
f 554/1/262 129/1/259 122/1/241 119/1/240
f 134/1/173 135/1/273 127/1/152 133/1/116
f 525/1/172 532/1/282 533/1/148 526/1/151
f 443/1/63 437/1/62 436/1/283 438/1/243
f 459/1/284 464/1/285 465/1/274 455/1/265
f 488/1/286 495/1/176 490/1/153 483/1/156
f 20/1/237 45/1/236 39/1/287 32/1/288
f 20/1/237 32/1/288 25/1/202 18/1/204
f 180/1/289 115/1/231 174/1/290 179/1/291
f 201/1/292 207/1/293 188/1/294 195/1/295
f 138/1/296 144/1/297 145/1/298 131/1/299
f 494/1/300 495/1/176 488/1/286 489/1/301
f 494/1/300 513/1/146 500/1/145 495/1/176
f 39/1/287 59/1/302 33/1/303 32/1/288
f 25/1/202 32/1/288 33/1/303 30/1/201
f 500/1/145 514/1/113 149/1/98 507/1/97
f 462/1/304 501/1/305 494/1/300 489/1/301
f 466/1/244 467/1/306 104/1/142 460/1/141
f 453/1/182 459/1/284 445/1/307 446/1/308
f 247/1/309 290/1/310 239/1/311 224/1/86
f 432/1/312 451/1/266 449/1/247 450/1/250
f 511/1/313 517/1/314 516/1/315 510/1/316
f 508/1/192 513/1/146 494/1/300 501/1/305
f 161/1/317 165/1/318 125/1/319
f 398/1/320 403/1/321 384/1/322 392/1/323
f 430/1/324 431/1/246 438/1/243 436/1/283
f 276/1/325 285/1/326 275/1/327 244/1/328
f 482/1/329 501/1/305 462/1/304 475/1/2
f 482/1/329 515/1/330 508/1/192 501/1/305
f 520/1/331 532/1/282 525/1/172 521/1/193
f 520/1/331 521/1/193 508/1/192 515/1/330
f 417/1/332 424/1/333 423/1/334 422/1/335
f 491/1/336 572/1/337 561/1/338 560/1/339
f 421/1/340 422/1/335 430/1/324 428/1/341
f 417/1/332 422/1/335 421/1/340 416/1/342
f 538/1/343 541/1/344 533/1/148 532/1/282
f 520/1/331 542/1/345 538/1/343 532/1/282
f 209/1/346 234/1/347 202/1/348 203/1/349
f 413/1/350 424/1/333 417/1/332 414/1/351
f 443/1/63 448/1/227 447/1/228 444/1/60
f 179/1/291 22/1/48 180/1/289
f 180/1/289 22/1/48 108/1/209
f 53/1/279 60/1/352 39/1/287 45/1/236
f 380/1/353 378/1/354 374/1/355 379/1/356
f 406/1/357 446/1/308 445/1/307 439/1/358
f 393/1/359 407/1/360 398/1/320 392/1/323
f 179/1/291 185/1/361 22/1/48
f 489/1/301 488/1/286 464/1/285 458/1/181
f 70/1/68 78/1/57 63/1/36 62/1/45
f 420/1/362 428/1/341 429/1/363 427/1/364
f 480/1/212 485/1/211 474/1/365 405/1/90
f 391/1/233 452/1/183 453/1/182 446/1/308
f 391/1/233 446/1/308 406/1/357 402/1/366
f 185/1/361 191/1/367 22/1/48
f 328/1/368 327/1/369 321/1/370 322/1/371
f 274/1/132 280/1/164 268/1/136 267/1/372
f 184/1/373 177/1/374 153/1/375 183/1/376
f 391/1/233 402/1/366 381/1/377 383/1/234
f 389/1/232 457/1/3 456/1/180 452/1/183
f 457/1/3 475/1/2 462/1/304 456/1/180
f 191/1/367 199/1/378 22/1/48
f 266/1/379 265/1/380 233/1/381 262/1/382
f 193/1/383 200/1/384 192/1/385
f 258/1/386 418/1/387 420/1/362 419/1/388
f 415/1/389 418/1/387 258/1/386 410/1/390
f 417/1/332 416/1/342 408/1/391 414/1/351
f 408/1/391 416/1/342 415/1/389 409/1/392
f 199/1/378 205/1/393 22/1/48
f 71/1/242 72/1/269 27/1/235 66/1/226
f 199/1/378 192/1/385 206/1/258
f 425/1/394 433/1/110 434/1/395 426/1/396
f 398/1/320 414/1/351 408/1/391 403/1/321
f 413/1/350 414/1/351 398/1/320 407/1/360
f 469/1/1 504/1/397 482/1/329 475/1/2
f 55/1/29 101/1/42 49/1/5 48/1/18
f 426/1/396 434/1/395 211/1/257 218/1/256
f 425/1/394 426/1/396 243/1/398 419/1/388
f 258/1/386 419/1/388 243/1/398 252/1/399
f 432/1/312 450/1/250 423/1/334 424/1/333
f 166/1/400 173/1/401 123/1/402 125/1/319
f 198/1/72 216/1/87 197/1/403
f 198/1/72 217/1/84 216/1/87
f 243/1/398 426/1/396 218/1/256 235/1/404
f 201/1/292 221/1/405 213/1/406 207/1/293
f 117/1/407 125/1/319 123/1/402 116/1/230
f 567/1/408 606/1/409 603/1/410 600/1/128
f 396/1/411 468/1/412 463/1/4 397/1/413
f 216/1/87 225/1/414 197/1/403
f 396/1/411 397/1/413 390/1/415 386/1/416
f 406/1/357 407/1/360 393/1/359 402/1/366
f 415/1/389 410/1/390 399/1/124 409/1/392
f 399/1/124 410/1/390 251/1/417 400/1/125
f 517/1/314 523/1/418 522/1/419 516/1/315
f 229/1/420 252/1/399 243/1/398 235/1/404
f 223/1/221 226/1/421 230/1/218
f 376/1/422 383/1/234 381/1/377 375/1/423
f 190/1/424 214/1/425 184/1/373 183/1/376
f 279/1/130 278/1/426 297/1/427 296/1/428
f 368/1/429 374/1/355 372/1/430 367/1/431
f 202/1/348 227/1/432 194/1/433 196/1/434
f 367/1/431 372/1/430 376/1/422 375/1/423
f 231/1/435 239/1/311 232/1/436
f 231/1/435 224/1/86 239/1/311
f 232/1/436 240/1/437 236/1/264
f 370/1/177 388/1/438 393/1/359 392/1/323
f 172/1/439 196/1/434 175/1/440 167/1/441
f 384/1/322 403/1/321 394/1/442 385/1/443
f 127/1/152 135/1/273 128/1/261 121/1/239
f 229/1/420 235/1/404 213/1/406 221/1/405
f 481/1/444 487/1/445 484/1/213 480/1/212
f 509/1/446 515/1/330 482/1/329 504/1/397
f 596/1/129 602/1/447 601/1/448 597/1/449
f 380/1/353 387/1/88 401/1/91 396/1/411
f 224/1/86 248/1/85 247/1/309
f 360/1/450 358/1/451 353/1/452 354/1/453
f 241/1/454 262/1/382 233/1/381 234/1/347
f 124/1/455 161/1/317 125/1/319 117/1/407
f 220/1/456 250/1/457 229/1/420 221/1/405
f 217/1/84 210/1/278 253/1/458
f 217/1/84 253/1/458 248/1/85
f 401/1/91 474/1/365 470/1/459 468/1/412
f 349/1/179 377/1/178 316/1/460 344/1/461
f 251/1/417 252/1/399 229/1/420 250/1/457
f 220/1/456 259/1/462 257/1/463 250/1/457
f 170/1/75 604/1/464 162/1/52 164/1/465
f 220/1/456 221/1/405 201/1/292 219/1/466
f 15/1/203 26/1/165 24/1/106 16/1/147
f 537/1/467 584/1/468 512/1/214 531/1/469
f 384/1/322 385/1/443 316/1/460 377/1/178
f 394/1/442 409/1/392 399/1/124 395/1/127
f 13/1/184 4/1/104 9/1/105 11/1/195
f 293/1/126 400/1/125 257/1/463 286/1/470
f 492/1/471 572/1/337 491/1/336 486/1/472
f 394/1/442 395/1/127 307/1/82 385/1/443
f 594/1/473 599/1/74 176/1/15 593/1/474
f 309/1/475 344/1/461 316/1/460 308/1/81
f 381/1/377 402/1/366 393/1/359 388/1/438
f 361/1/476 364/1/24 356/1/23 355/1/169
f 83/1/39 84/1/67 77/1/66 82/1/40
f 309/1/475 308/1/81 301/1/80 306/1/477
f 342/1/478 344/1/461 309/1/475 336/1/479
f 485/1/211 556/1/210 503/1/480 497/1/481
f 361/1/476 366/1/482 369/1/483 368/1/429
f 244/1/328 240/1/437 276/1/325
f 368/1/429 369/1/483 371/1/484 373/1/485
f 277/1/486 302/1/83 293/1/126 286/1/470
f 326/1/487 320/1/162 319/1/488 325/1/489
f 274/1/132 281/1/131 282/1/161 280/1/164
f 348/1/168 350/1/167 342/1/478 341/1/490
f 342/1/478 336/1/479 335/1/491 341/1/490
f 240/1/437 283/1/492 284/1/493
f 545/1/494 546/1/495 141/1/150 539/1/149
f 335/1/491 336/1/479 315/1/496 331/1/497
f 343/1/498 351/1/499 348/1/168 341/1/490
f 343/1/498 341/1/490 335/1/491 337/1/500
f 239/1/311 290/1/310 283/1/492
f 283/1/492 290/1/310 284/1/493
f 365/1/501 371/1/484 369/1/483 366/1/482
f 589/1/9 590/1/502 536/1/503 551/1/504
f 545/1/494 569/1/505 553/1/506 546/1/495
f 294/1/507 323/1/508 315/1/496 306/1/477
f 581/1/509 583/1/271 576/1/270 577/1/510
f 357/1/511 355/1/169 348/1/168 351/1/499
f 431/1/246 430/1/324 422/1/335 423/1/334
f 357/1/511 366/1/482 361/1/476 355/1/169
f 291/1/512 299/1/251 298/1/254
f 291/1/512 300/1/513 299/1/251
f 271/1/138 295/1/514 277/1/486 272/1/515
f 294/1/507 295/1/514 271/1/138 288/1/137
f 268/1/136 269/1/139 261/1/516 267/1/372
f 358/1/451 359/1/517 352/1/518 353/1/452
f 352/1/518 351/1/499 343/1/498 345/1/519
f 477/1/170 476/1/249 471/1/248 472/1/275
f 266/1/379 272/1/515 264/1/520 265/1/380
f 271/1/138 272/1/515 266/1/379 269/1/139
f 27/1/235 72/1/269 53/1/279 45/1/236
f 346/1/521 353/1/452 352/1/518 345/1/519
f 304/1/252 305/1/522 311/1/523
f 338/1/524 345/1/519 343/1/498 337/1/500
f 172/1/439 203/1/349 202/1/348 196/1/434
f 305/1/522 314/1/525 311/1/523
f 287/1/163 288/1/137 268/1/136 280/1/164
f 529/1/526 590/1/502 586/1/527 587/1/528
f 342/1/478 350/1/167 349/1/179 344/1/461
f 261/1/516 269/1/139 266/1/379 262/1/382
f 311/1/523 314/1/525 317/1/529
f 311/1/523 317/1/529 318/1/530
f 338/1/524 337/1/500 330/1/531 332/1/532
f 330/1/531 337/1/500 335/1/491 331/1/497
f 270/1/533 278/1/426 260/1/534 263/1/535
f 406/1/357 439/1/358 413/1/350 407/1/360
f 330/1/531 331/1/497 326/1/487 325/1/489
f 287/1/163 323/1/508 294/1/507 288/1/137
f 320/1/162 326/1/487 323/1/508 287/1/163
f 327/1/369 332/1/532 330/1/531 325/1/489
f 327/1/369 328/1/368 333/1/536 332/1/532
f 499/1/216 579/1/215 561/1/338 572/1/337
f 143/1/13 169/1/16 81/1/159 137/1/158
f 545/1/494 575/1/537 574/1/538 569/1/505
f 525/1/172 519/1/174 518/1/144 521/1/193
f 329/1/539 328/1/368 322/1/371 324/1/540
f 154/1/54 163/1/53 157/1/70 150/1/224
f 10/1/194 19/1/208 20/1/237 18/1/204
f 123/1/402 174/1/290 115/1/231 116/1/230
f 322/1/371 321/1/370 313/1/541 318/1/530
f 317/1/529 324/1/540 322/1/371 318/1/530
f 363/1/25 388/1/438 370/1/177 362/1/26
f 200/1/384 212/1/255 206/1/258 192/1/385
f 303/1/253 310/1/542 289/1/543 296/1/428
f 421/1/340 428/1/341 420/1/362 418/1/387
f 311/1/523 318/1/530 313/1/541 310/1/542
f 339/1/544 340/1/545 346/1/521
f 340/1/545 347/1/546 346/1/521
f 596/1/129 597/1/449 594/1/473 595/1/122
f 329/1/539 334/1/547 333/1/536 328/1/368
f 255/1/548 267/1/372 261/1/516 256/1/549
f 274/1/132 267/1/372 255/1/548 273/1/133
f 461/1/245 476/1/249 467/1/306 466/1/244
f 365/1/501 366/1/482 357/1/511 359/1/517
f 346/1/521 347/1/546 354/1/453
f 346/1/521 354/1/453 353/1/452
f 279/1/130 273/1/133 260/1/534 278/1/426
f 260/1/534 273/1/133 255/1/548 254/1/550
f 420/1/362 427/1/364 425/1/394 419/1/388
f 297/1/427 298/1/254 303/1/253 296/1/428
f 421/1/340 418/1/387 415/1/389 416/1/342
f 300/1/513 305/1/522 304/1/252 299/1/251
f 86/1/551 126/1/552 124/1/455 117/1/407
f 297/1/427 278/1/426 270/1/533 292/1/553
f 245/1/554 263/1/535 260/1/534 254/1/550
f 291/1/512 298/1/254 297/1/427 292/1/553
f 358/1/451 365/1/501 359/1/517
f 358/1/451 360/1/450 365/1/501
f 263/1/535 237/1/263 244/1/328 270/1/533
f 237/1/263 263/1/535 245/1/554 238/1/219
f 165/1/318 171/1/555 172/1/439 167/1/441
f 251/1/417 410/1/390 258/1/386 252/1/399
f 255/1/548 256/1/549 249/1/556 254/1/550
f 245/1/554 254/1/550 249/1/556 246/1/557
f 236/1/264 240/1/437 244/1/328 237/1/263
f 368/1/429 373/1/485 374/1/355
f 434/1/395 441/1/109 205/1/393 211/1/257
f 372/1/430 374/1/355 378/1/354
f 232/1/436 236/1/264 230/1/218 226/1/421
f 374/1/355 284/1/558 379/1/356
f 239/1/311 283/1/492 240/1/437 232/1/436
f 245/1/554 246/1/557 222/1/220 238/1/219
f 489/1/301 458/1/181 456/1/180 462/1/304
f 376/1/422 382/1/559 383/1/234
f 249/1/556 256/1/549 241/1/454 242/1/560
f 131/1/299 152/1/561 124/1/455 126/1/552
f 231/1/435 232/1/436 226/1/421 225/1/414
f 378/1/354 380/1/353 386/1/416
f 379/1/356 387/1/88 380/1/353
f 379/1/356 284/1/558 387/1/88
f 226/1/421 223/1/221 197/1/403 225/1/414
f 190/1/424 223/1/221 222/1/220 214/1/425
f 197/1/403 223/1/221 190/1/424 189/1/562
f 215/1/563 246/1/557 249/1/556 242/1/560
f 222/1/220 246/1/557 215/1/563 214/1/425
f 382/1/559 390/1/415 389/1/232 383/1/234
f 458/1/181 464/1/285 459/1/284 453/1/182
f 16/1/147 13/1/184 11/1/195 15/1/203
f 386/1/416 380/1/353 396/1/411
f 390/1/415 397/1/413 389/1/232
f 209/1/346 242/1/560 241/1/454 234/1/347
f 215/1/563 242/1/560 209/1/346 208/1/564
f 233/1/381 265/1/380 228/1/565 227/1/432
f 228/1/565 265/1/380 264/1/520 259/1/462
f 275/1/327 292/1/553 270/1/533 244/1/328
f 333/1/536 334/1/547 340/1/545 339/1/544
f 387/1/88 284/1/558 404/1/89
f 613/1/566 615/1/567 290/1/310 247/1/309
f 184/1/373 214/1/425 215/1/563 208/1/564
f 333/1/536 339/1/544 338/1/524 332/1/532
f 202/1/348 234/1/347 233/1/381 227/1/432
f 209/1/346 203/1/349 178/1/568 208/1/564
f 284/1/558 411/1/268 404/1/89
f 284/1/558 412/1/267 411/1/268
f 615/1/567 613/1/566 611/1/569 614/1/570
f 346/1/521 345/1/519 338/1/524 339/1/544
f 184/1/373 208/1/564 178/1/568 177/1/374
f 445/1/307 451/1/266 432/1/312 439/1/358
f 361/1/476 368/1/429 367/1/431 364/1/24
f 476/1/249 477/1/170 473/1/171 467/1/306
f 178/1/568 203/1/349 172/1/439 171/1/555
f 303/1/253 304/1/252 311/1/523 310/1/542
f 159/1/571 183/1/376 153/1/375 145/1/298
f 175/1/440 196/1/434 194/1/433 195/1/295
f 291/1/512 292/1/553 275/1/327 285/1/326
f 175/1/440 195/1/295 188/1/294 182/1/572
f 413/1/350 439/1/358 432/1/312 424/1/333
f 509/1/446 542/1/345 520/1/331 515/1/330
f 188/1/294 207/1/293 200/1/384 193/1/383
f 136/1/281 137/1/158 75/1/157 130/1/260
f 386/1/416 390/1/415 382/1/559 378/1/354
f 408/1/391 409/1/392 394/1/442 403/1/321
f 125/1/319 165/1/318 167/1/441 166/1/400
f 160/1/573 171/1/555 165/1/318 161/1/317
f 160/1/573 177/1/374 178/1/568 171/1/555
f 425/1/394 427/1/364 433/1/110
f 96/1/197 103/1/207 104/1/142 97/1/574
f 206/1/258 211/1/257 205/1/393 199/1/378
f 193/1/383 192/1/385 186/1/575 187/1/576
f 182/1/572 187/1/576 173/1/401 166/1/400
f 187/1/576 186/1/575 181/1/577 173/1/401
f 506/1/578 511/1/313 510/1/316 505/1/217
f 192/1/385 199/1/378 191/1/367 186/1/575
f 433/1/110 441/1/109 434/1/395
f 441/1/109 22/1/48 205/1/393
f 440/1/108 22/1/48 441/1/109
f 186/1/575 191/1/367 185/1/361 181/1/577
f 440/1/108 442/1/61 22/1/48
f 173/1/401 181/1/577 174/1/290 123/1/402
f 442/1/61 444/1/60 22/1/48
f 181/1/577 185/1/361 179/1/291 174/1/290
f 498/1/579 505/1/217 499/1/216 493/1/580
f 153/1/375 177/1/374 160/1/573 152/1/561
f 444/1/60 447/1/228 22/1/48
f 61/1/581 155/1/55 154/1/54 147/1/223
f 367/1/431 375/1/423 363/1/25 364/1/24
f 175/1/440 182/1/572 166/1/400 167/1/441
f 467/1/306 473/1/171 97/1/574 104/1/142
f 450/1/250 431/1/246 423/1/334
f 316/1/460 385/1/443 307/1/82 308/1/81
f 194/1/433 219/1/466 201/1/292 195/1/295
f 111/1/43 142/1/115 118/1/64 112/1/44
f 22/1/48 454/1/140 110/1/143
f 22/1/48 447/1/228 454/1/140
f 428/1/341 430/1/324 436/1/283 429/1/363
f 131/1/299 145/1/298 153/1/375 152/1/561
f 158/1/73 189/1/562 159/1/571 151/1/582
f 478/1/155 479/1/103 477/1/170 472/1/275
f 389/1/232 397/1/413 457/1/3
f 151/1/582 159/1/571 145/1/298 144/1/297
f 102/1/206 88/1/205 109/1/229 108/1/209
f 188/1/294 193/1/383 187/1/576 182/1/572
f 157/1/70 158/1/73 151/1/582 150/1/224
f 156/1/96 502/1/20 99/1/19 496/1/154
f 319/1/488 320/1/162 282/1/161 312/1/583
f 397/1/413 463/1/4 457/1/3
f 261/1/516 262/1/382 241/1/454 256/1/549
f 448/1/227 466/1/244 460/1/141
f 87/1/584 88/1/205 52/1/198 80/1/199
f 87/1/584 116/1/230 109/1/229 88/1/205
f 117/1/407 116/1/230 87/1/584 86/1/551
f 396/1/411 401/1/91 468/1/412
f 210/1/278 217/1/84 198/1/72 204/1/71
f 463/1/4 468/1/412 470/1/459
f 463/1/4 470/1/459 469/1/1
f 607/1/585 612/1/586 253/1/458 608/1/587
f 132/1/588 138/1/296 131/1/299 126/1/552
f 401/1/91 405/1/90 474/1/365
f 289/1/543 310/1/542 313/1/541 312/1/583
f 86/1/551 87/1/584 80/1/199 79/1/589
f 79/1/589 132/1/588 126/1/552 86/1/551
f 442/1/61 440/1/108 435/1/111 437/1/62
f 73/1/190 132/1/588 79/1/589 74/1/238
f 378/1/354 382/1/559 376/1/422 372/1/430
f 115/1/231 180/1/289 108/1/209 109/1/229
f 609/1/590 613/1/566 612/1/586 607/1/585
f 405/1/90 412/1/267 481/1/444
f 405/1/90 481/1/444 480/1/212
f 591/1/11 593/1/474 582/1/272 588/1/12
f 17/1/100 66/1/226 27/1/235 19/1/208
f 139/1/189 146/1/222 144/1/297 138/1/296
f 603/1/410 606/1/409 610/1/591 609/1/590
f 603/1/410 609/1/590 607/1/585 602/1/447
f 596/1/129 600/1/128 603/1/410 602/1/447
f 412/1/267 284/1/558 486/1/472
f 412/1/267 486/1/472 487/1/445
f 412/1/267 487/1/445 481/1/444
f 150/1/224 151/1/582 144/1/297 146/1/222
f 73/1/190 74/1/238 38/1/200 68/1/191
f 67/1/188 147/1/223 146/1/222 139/1/189
f 486/1/472 491/1/336 487/1/445
f 73/1/190 139/1/189 138/1/296 132/1/588
f 567/1/408 568/1/592 562/1/593 563/1/594
f 486/1/472 493/1/580 492/1/471
f 168/1/276 204/1/71 157/1/70 163/1/53
f 41/1/123 48/1/18 7/1/17 5/1/92
f 67/1/188 68/1/191 33/1/303 59/1/302
f 33/1/303 68/1/191 38/1/200 30/1/201
f 470/1/459 497/1/481 469/1/1
f 558/1/595 551/1/504 550/1/596 557/1/597
f 493/1/580 499/1/216 492/1/471
f 61/1/581 147/1/223 67/1/188 59/1/302
f 228/1/565 259/1/462 220/1/456 219/1/466
f 607/1/585 608/1/587 601/1/448 602/1/447
f 601/1/448 608/1/587 210/1/278 605/1/277
f 498/1/579 506/1/578 505/1/217
f 39/1/287 60/1/352 61/1/581 59/1/302
f 429/1/363 436/1/283 437/1/62 435/1/111
f 170/1/75 164/1/465 81/1/159 169/1/16
f 279/1/130 296/1/428 289/1/543 281/1/131
f 598/1/598 605/1/277 168/1/276 604/1/464
f 543/1/599 551/1/504 536/1/503 534/1/600
f 558/1/595 592/1/10 589/1/9 551/1/504
f 400/1/125 251/1/417 250/1/457 257/1/463
f 534/1/600 536/1/503 530/1/601 527/1/602
f 427/1/364 429/1/363 435/1/111 433/1/110
f 69/1/603 164/1/465 162/1/52 155/1/55
f 53/1/279 76/1/160 69/1/603 60/1/352
f 598/1/598 604/1/464 170/1/75 599/1/74
f 212/1/255 200/1/384 207/1/293 213/1/406
f 527/1/602 530/1/601 522/1/419 523/1/418
f 522/1/419 530/1/601 529/1/526 528/1/604
f 536/1/503 590/1/502 529/1/526 530/1/601
f 81/1/159 164/1/465 69/1/603 76/1/160
f 119/1/240 122/1/241 65/1/225 114/1/135
f 518/1/144 519/1/174 140/1/114 514/1/113
f 141/1/150 546/1/495 128/1/261 135/1/273
f 552/1/605 580/1/606 537/1/467 544/1/607
f 533/1/148 541/1/344 540/1/608 539/1/149
f 136/1/281 571/1/609 143/1/13 137/1/158
f 224/1/86 231/1/435 225/1/414 216/1/87
f 535/1/610 544/1/607 524/1/611 528/1/604
f 535/1/610 587/1/528 581/1/509 585/1/612
f 301/1/80 302/1/83 277/1/486 295/1/514
f 552/1/605 585/1/612 574/1/538 575/1/537
f 586/1/527 590/1/502 589/1/9 588/1/12
f 96/1/197 97/1/574 90/1/38 89/1/37
f 40/1/94 41/1/123 5/1/92 34/1/76
f 576/1/270 578/1/14 143/1/13 571/1/609
f 160/1/573 161/1/317 124/1/455 152/1/561
f 570/1/613 571/1/609 136/1/281 564/1/280
f 570/1/613 577/1/510 576/1/270 571/1/609
f 553/1/506 564/1/280 129/1/259 554/1/262
f 106/1/41 120/1/65 113/1/134 107/1/6
f 162/1/52 604/1/464 168/1/276 163/1/53
f 69/1/603 155/1/55 61/1/581 60/1/352
f 543/1/599 550/1/596 551/1/504
f 522/1/419 528/1/604 524/1/611 516/1/315
f 581/1/509 587/1/528 586/1/527 583/1/271
f 553/1/506 569/1/505 570/1/613 564/1/280
f 213/1/406 235/1/404 218/1/256 212/1/255
f 553/1/506 554/1/262 128/1/261 546/1/495
f 464/1/285 488/1/286 483/1/156 465/1/274
f 352/1/518 359/1/517 357/1/511 351/1/499
f 158/1/73 198/1/72 197/1/403 189/1/562
f 472/1/275 471/1/248 455/1/265 465/1/274
f 601/1/448 605/1/277 598/1/598 597/1/449
f 567/1/408 600/1/128 573/1/121 568/1/592
f 557/1/597 562/1/593 558/1/595
f 557/1/597 563/1/594 562/1/593
f 381/1/377 388/1/438 363/1/25 375/1/423
f 591/1/11 595/1/122 594/1/473 593/1/474
f 327/1/369 325/1/489 319/1/488 321/1/370
f 289/1/543 312/1/583 282/1/161 281/1/131
f 562/1/593 568/1/592 558/1/595
f 264/1/520 286/1/470 257/1/463 259/1/462
f 315/1/496 336/1/479 309/1/475 306/1/477
f 572/1/337 492/1/471 499/1/216
f 573/1/121 592/1/10 558/1/595 568/1/592
f 253/1/458 612/1/586 247/1/309 248/1/85
f 598/1/598 599/1/74 594/1/473 597/1/449
f 547/1/614 584/1/468 537/1/467 580/1/606
f 574/1/538 577/1/510 570/1/613 569/1/505
f 524/1/611 531/1/469 510/1/316 516/1/315
f 585/1/612 581/1/509 577/1/510 574/1/538
f 582/1/272 593/1/474 176/1/15 578/1/14
f 277/1/486 286/1/470 264/1/520 272/1/515
f 490/1/153 507/1/97 156/1/96 496/1/154
f 586/1/527 588/1/12 582/1/272 583/1/271
f 294/1/507 306/1/477 301/1/80 295/1/514
f 540/1/608 580/1/606 552/1/605 575/1/537
f 566/1/118 547/1/614 541/1/344 538/1/343
f 547/1/614 580/1/606 540/1/608 541/1/344
f 535/1/610 585/1/612 552/1/605 544/1/607
f 356/1/23 362/1/26 349/1/179 350/1/167
f 326/1/487 331/1/497 315/1/496 323/1/508
f 524/1/611 544/1/607 537/1/467 531/1/469
f 100/1/58 502/1/20 156/1/96 148/1/59
f 510/1/316 531/1/469 512/1/214 505/1/217
f 540/1/608 575/1/537 545/1/494 539/1/149
f 512/1/214 584/1/468 565/1/117 579/1/215
f 565/1/117 584/1/468 547/1/614 566/1/118
f 561/1/338 579/1/215 565/1/117 559/1/120
f 97/1/574 473/1/171 98/1/102 90/1/38
f 548/1/119 566/1/118 538/1/343 542/1/345
f 561/1/338 559/1/120 555/1/615 560/1/339
f 555/1/615 559/1/120 548/1/119 549/1/616
f 509/1/446 549/1/616 548/1/119 542/1/345
f 10/1/194 18/1/204 15/1/203 11/1/195
f 503/1/480 556/1/210 555/1/615 549/1/616
f 503/1/480 549/1/616 509/1/446 504/1/397
f 484/1/213 560/1/339 555/1/615 556/1/210
f 560/1/339 484/1/213 487/1/445 491/1/336
f 503/1/480 504/1/397 469/1/1 497/1/481
f 79/1/589 80/1/199 44/1/187 74/1/238
f 567/1/408 563/1/594 606/1/409
f 159/1/571 189/1/562 190/1/424 183/1/376
f 313/1/541 321/1/370 319/1/488 312/1/583
f 485/1/211 497/1/481 470/1/459 474/1/365
f 608/1/587 253/1/458 210/1/278
f 194/1/433 227/1/432 228/1/565 219/1/466
f 563/1/594 284/1/493 611/1/569
f 606/1/409 611/1/569 610/1/591
f 606/1/409 563/1/594 611/1/569
f 445/1/307 459/1/284 455/1/265 451/1/266
f 609/1/590 610/1/591 613/1/566
f 610/1/591 611/1/569 613/1/566
f 4/1/104 13/1/184 14/1/46 2/1/49
f 612/1/586 613/1/566 247/1/309
f 611/1/569 284/1/493 614/1/570
f 370/1/177 392/1/323 384/1/322 377/1/178
f 284/1/493 290/1/310 615/1/567
f 284/1/493 615/1/567 614/1/570
f 529/1/526 587/1/528 535/1/610 528/1/604
