# Blender 4.3.2
# www.blender.org
o hair.133
v 6.877258 1.058334 0.026243
v 6.874082 1.059350 0.026821
v 6.865493 1.059837 0.015620
v 6.875262 1.060932 0.033356
v 6.880424 1.056795 0.025651
v 6.880558 1.058524 0.030386
v 6.880405 1.059634 0.038296
v 6.885319 1.055818 0.027685
v 6.881171 1.054394 0.017632
v 6.886771 1.053343 0.022388
v 6.887191 1.050407 0.011494
v 6.892372 1.048454 0.017472
v 6.889643 1.051948 0.023062
v 6.884373 1.057451 0.035002
v 6.887578 1.055226 0.032511
v 6.888509 1.053685 0.026868
v 6.891742 1.049819 0.021847
v 6.893520 1.047443 0.013473
v 6.891222 1.051381 0.026271
v 6.883680 1.058662 0.043329
v 6.886749 1.056668 0.039071
v 6.890403 1.052980 0.030420
v 6.889005 1.054711 0.034588
v 6.894739 1.046589 0.009530
v 6.879842 1.060506 0.046826
v 6.895579 1.045699 0.005326
v 6.876041 1.061922 0.049300
v 6.875813 1.061458 0.041594
v 6.884027 1.051229 0.007422
v 6.895905 1.044796 0.001068
v 6.870731 1.062606 0.044096
v 6.873087 1.062632 0.050490
v 6.870470 1.062167 0.034983
v 6.871861 1.059888 0.027245
v 6.868671 1.060369 0.027520
v 6.887191 1.047768 -0.000834
v 6.895579 1.043908 -0.003036
v 6.870556 1.062990 0.051038
v 6.865493 1.062465 0.034374
v 6.865495 1.060493 0.027527
v 6.881543 1.049107 -0.002491
v 6.891830 1.041332 -0.015113
v 6.893520 1.042164 -0.011183
v 6.894739 1.043032 -0.007086
v 6.868024 1.063348 0.051586
v 6.862288 1.060338 0.027332
v 6.881377 1.045407 -0.011863
v 6.889577 1.040563 -0.018664
v 6.865493 1.063527 0.051860
v 6.865493 1.062914 0.043413
v 6.860517 1.062167 0.034983
v 6.855724 1.060932 0.033356
v 6.859175 1.060022 0.027169
v 6.886903 1.039850 -0.021952
v 6.874760 1.047493 -0.010031
v 6.880699 1.038640 -0.027693
v 6.883952 1.039186 -0.025094
v 6.860255 1.062606 0.044096
v 6.862962 1.063348 0.051586
v 6.856895 1.059365 0.026811
v 6.871307 1.044064 -0.018137
v 6.877121 1.038275 -0.029350
v 6.860431 1.062990 0.051038
v 6.857900 1.062632 0.050490
v 6.854945 1.061922 0.049300
v 6.855174 1.061458 0.041594
v 6.853724 1.058342 0.026238
v 6.873330 1.038040 -0.030408
v 6.850581 1.059634 0.038296
v 6.851145 1.060506 0.046826
v 6.850429 1.058524 0.030386
v 6.850562 1.056795 0.025651
v 6.869437 1.037877 -0.031211
v 6.847306 1.058662 0.043329
v 6.846613 1.057451 0.035002
v 6.845668 1.055818 0.027685
v 6.844216 1.053343 0.022388
v 6.849816 1.054394 0.017632
v 6.865493 1.037814 -0.031549
v 6.843408 1.055226 0.032511
v 6.844237 1.056668 0.039071
v 6.842477 1.053685 0.026868
v 6.841344 1.051948 0.023062
v 6.838615 1.048454 0.017472
v 6.843796 1.050407 0.011494
v 6.865493 1.046958 -0.012531
v 6.859679 1.044064 -0.018137
v 6.861550 1.037877 -0.031211
v 6.841982 1.054711 0.034588
v 6.839764 1.051381 0.026271
v 6.840583 1.052980 0.030420
v 6.839244 1.049819 0.021847
v 6.837466 1.047443 0.013473
v 6.857657 1.038040 -0.030408
v 6.856227 1.047493 -0.010032
v 6.850287 1.038640 -0.027693
v 6.853866 1.038275 -0.029350
v 6.836247 1.046589 0.009530
v 6.849609 1.045407 -0.011863
v 6.847035 1.039186 -0.025094
v 6.835407 1.045699 0.005326
v 6.835082 1.044796 0.001068
v 6.846960 1.051229 0.007422
v 6.849443 1.049107 -0.002491
v 6.839156 1.041332 -0.015113
v 6.841410 1.040563 -0.018664
v 6.844084 1.039850 -0.021952
v 6.843796 1.047768 -0.000834
v 6.835407 1.043908 -0.003036
v 6.837466 1.042164 -0.011183
v 6.836247 1.043032 -0.007086
v 6.863571 1.079624 -0.011353
v 6.864230 1.078052 -0.009380
v 6.861959 1.079845 -0.010286
v 6.865493 1.079538 -0.011765
v 6.865493 1.077739 -0.009140
v 6.865493 1.076791 -0.005914
v 6.863454 1.077920 -0.008294
v 6.862426 1.078425 -0.007619
v 6.860869 1.080183 -0.008710
v 6.866756 1.078052 -0.009380
v 6.867416 1.079624 -0.011353
v 6.862583 1.078341 -0.006298
v 6.860448 1.080581 -0.006829
v 6.869028 1.079845 -0.010286
v 6.867533 1.077920 -0.008294
v 6.862422 1.078951 -0.005144
v 6.860869 1.080979 -0.004948
v 6.868560 1.078425 -0.007619
v 6.870117 1.080183 -0.008710
v 6.863448 1.078767 -0.004298
v 6.861958 1.081307 -0.003369
v 6.870539 1.080581 -0.006829
v 6.868403 1.078341 -0.006298
v 6.864226 1.079326 -0.003375
v 6.863571 1.081537 -0.002305
v 6.865493 1.078946 -0.003446
v 6.866761 1.079326 -0.003375
v 6.867538 1.078767 -0.004298
v 6.868565 1.078951 -0.005144
v 6.870118 1.080979 -0.004948
v 6.865493 1.081625 -0.001893
v 6.869029 1.081307 -0.003369
v 6.867415 1.081537 -0.002305
v 6.893520 1.047443 0.013473
v 6.893356 1.050219 0.012816
v 6.892372 1.048454 0.017472
v 6.894739 1.046589 0.009530
v 6.894591 1.049354 0.008915
v 6.893362 1.053544 0.012254
v 6.891856 1.051208 0.016553
v 6.895579 1.045699 0.005326
v 6.895446 1.048409 0.004739
v 6.895432 1.051738 0.003993
v 6.894492 1.052665 0.008194
v 6.891964 1.054571 0.015841
v 6.894215 1.056173 0.007380
v 6.893180 1.057039 0.011528
v 6.891723 1.057920 0.015486
v 6.895905 1.044796 0.001068
v 6.895782 1.047458 0.000487
v 6.895858 1.050801 -0.000266
v 6.895689 1.054381 -0.001056
v 6.895202 1.055289 0.003194
v 6.892273 1.060896 0.010383
v 6.893229 1.060100 0.006295
v 6.894181 1.059305 0.002205
v 6.890853 1.061688 0.014314
v 6.895462 1.046572 -0.003640
v 6.895579 1.043908 -0.003036
v 6.895440 1.049904 -0.004465
v 6.891768 1.064153 0.004996
v 6.890877 1.064870 0.008888
v 6.889537 1.065603 0.012572
v 6.894663 1.058461 -0.001925
v 6.893104 1.062661 -0.002817
v 6.892655 1.063439 0.001103
v 6.894739 1.043032 -0.007086
v 6.894625 1.045707 -0.007723
v 6.888918 1.068682 0.007012
v 6.889750 1.068000 0.003463
v 6.890580 1.067321 -0.000087
v 6.887672 1.069371 0.010379
v 6.894181 1.057550 -0.005999
v 6.893411 1.044816 -0.011845
v 6.893520 1.042164 -0.011183
v 6.893387 1.048117 -0.012792
v 6.894508 1.049021 -0.008620
v 6.887285 1.071498 0.001823
v 6.885413 1.072801 0.007927
v 6.895204 1.053470 -0.005279
v 6.891830 1.041332 -0.015113
v 6.891727 1.043964 -0.015784
v 6.894218 1.052566 -0.009425
v 6.886537 1.072157 0.004940
v 6.883862 1.075136 0.002852
v 6.882903 1.075715 0.005400
v 6.891800 1.047258 -0.016757
v 6.893227 1.056620 -0.009975
v 6.892271 1.055692 -0.013949
v 6.893185 1.051652 -0.013576
v 6.880132 1.078005 0.002870
v 6.891767 1.060863 -0.010372
v 6.892654 1.061779 -0.006651
v 6.891679 1.050790 -0.017534
v 6.890848 1.054843 -0.017755
v 6.889537 1.059130 -0.017673
v 6.890876 1.059950 -0.014092
v 6.880916 1.077519 0.000797
v 6.877728 1.079195 -0.001164
v 6.877107 1.079548 0.000422
v 6.890581 1.065795 -0.007205
v 6.891000 1.066594 -0.003674
v 6.888920 1.064162 -0.014078
v 6.887677 1.063417 -0.017390
v 6.884470 1.074519 0.000201
v 6.881382 1.076984 -0.001363
v 6.873857 1.080459 -0.001887
v 6.888406 1.070171 -0.004459
v 6.888029 1.070842 -0.001292
v 6.885419 1.067517 -0.016793
v 6.889752 1.064977 -0.010642
v 6.885072 1.073906 -0.002443
v 6.878099 1.078811 -0.002819
v 6.881842 1.076453 -0.003511
v 6.878465 1.078429 -0.004467
v 6.874502 1.080230 -0.002907
v 6.871443 1.080698 -0.004315
v 6.870409 1.080861 -0.004008
v 6.886540 1.068151 -0.013810
v 6.883868 1.071750 -0.013196
v 6.882908 1.071243 -0.015766
v 6.874590 1.080022 -0.004137
v 6.882075 1.075957 -0.005701
v 6.870849 1.080635 -0.005296
v 6.865493 1.080981 -0.006801
v 6.887288 1.068820 -0.010712
v 6.880139 1.074425 -0.014403
v 6.871824 1.080440 -0.005845
v 6.875072 1.079779 -0.005261
v 6.888031 1.069491 -0.007616
v 6.885075 1.072766 -0.007844
v 6.884475 1.072258 -0.010515
v 6.880924 1.074813 -0.012301
v 6.877737 1.077181 -0.011194
v 6.877115 1.076882 -0.012803
v 6.875008 1.079574 -0.006465
v 6.871086 1.080398 -0.006651
v 6.878651 1.078066 -0.006145
v 6.881388 1.075179 -0.010099
v 6.873862 1.078670 -0.011066
v 6.871825 1.080142 -0.007409
v 6.875074 1.079313 -0.007659
v 6.878469 1.077752 -0.007837
v 6.881845 1.075544 -0.007910
v 6.885377 1.073310 -0.005137
v 6.874508 1.078848 -0.010024
v 6.871445 1.079818 -0.008935
v 6.870409 1.079851 -0.009294
v 6.874595 1.079117 -0.008799
v 6.870850 1.080119 -0.008003
v 6.878106 1.077467 -0.009510
v 6.869383 1.079359 -0.011427
v 6.868286 1.079505 -0.011249
v 6.869430 1.079664 -0.010341
v 6.870620 1.080963 -0.002975
v 6.870409 1.080861 -0.004008
v 6.869428 1.081092 -0.002980
v 6.863060 1.079210 -0.012208
v 6.862700 1.079505 -0.011249
v 6.864078 1.079406 -0.011693
v 6.864688 1.081404 -0.000657
v 6.865493 1.081367 -0.001362
v 6.864094 1.081351 -0.001619
v 6.859543 1.080698 -0.004315
v 6.860578 1.080861 -0.004008
v 6.860138 1.080635 -0.005296
v 6.867927 1.079210 -0.012208
v 6.866909 1.079406 -0.011693
v 6.860366 1.080963 -0.002975
v 6.861558 1.081092 -0.002980
v 6.860578 1.080861 -0.004008
v 6.861604 1.079359 -0.011427
v 6.861557 1.079664 -0.010341
v 6.866298 1.081404 -0.000657
v 6.866892 1.081351 -0.001619
v 6.859541 1.079818 -0.008935
v 6.860137 1.080119 -0.008003
v 6.860578 1.079851 -0.009294
v 6.860365 1.079554 -0.010291
v 6.869374 1.081229 -0.001858
v 6.868273 1.081297 -0.002080
v 6.867904 1.081379 -0.001069
v 6.864673 1.079114 -0.012599
v 6.865493 1.079346 -0.011938
v 6.866313 1.079114 -0.012599
v 6.865493 1.079346 -0.011938
v 6.863082 1.081379 -0.001069
v 6.862714 1.081297 -0.002080
v 6.861613 1.081229 -0.001858
v 6.870621 1.079554 -0.010291
v 6.870409 1.079851 -0.009294
v 6.859163 1.080440 -0.005845
v 6.859901 1.080398 -0.006651
v 6.859161 1.080142 -0.007409
v 6.863110 1.081273 0.002192
v 6.858827 1.080839 -0.000100
v 6.873862 1.078670 -0.011066
v 6.856397 1.080022 -0.004137
v 6.856392 1.079117 -0.008799
v 6.859631 1.081026 0.000905
v 6.860769 1.081169 0.001464
v 6.873251 1.078429 -0.012130
v 6.872168 1.078306 -0.012871
v 6.855979 1.079574 -0.006465
v 6.855915 1.079779 -0.005261
v 6.857547 1.080254 0.004217
v 6.876025 1.076570 -0.014166
v 6.852521 1.078429 -0.004467
v 6.856259 1.080036 0.003003
v 6.857742 1.080652 -0.000822
v 6.854969 1.079817 0.001785
v 6.861840 1.081250 0.002087
v 6.877115 1.076882 -0.012803
v 6.855912 1.079313 -0.007659
v 6.853847 1.078630 0.006269
v 6.857130 1.080459 -0.001887
v 6.860541 1.080557 0.005811
v 6.858953 1.080441 0.005232
v 6.880139 1.074425 -0.014403
v 6.852518 1.077752 -0.007837
v 6.852335 1.078066 -0.006145
v 6.855464 1.078902 0.007869
v 6.857235 1.079144 0.009195
v 6.853880 1.079548 0.000422
v 6.878767 1.074000 -0.016185
v 6.881298 1.070742 -0.017990
v 6.882908 1.071243 -0.015766
v 6.848912 1.075957 -0.005701
v 6.853478 1.076960 0.011674
v 6.850855 1.078005 0.002870
v 6.852224 1.078356 0.004661
v 6.877143 1.073567 -0.017760
v 6.885419 1.067517 -0.016793
v 6.851586 1.076569 0.009655
v 6.849693 1.076177 0.007631
v 6.848084 1.075715 0.005400
v 6.874736 1.076259 -0.015370
v 6.883599 1.066963 -0.019425
v 6.885658 1.062831 -0.020334
v 6.887677 1.063417 -0.017390
v 6.849524 1.073899 0.012931
v 6.845573 1.072801 0.007927
v 6.847394 1.073374 0.010546
v 6.873455 1.075951 -0.016565
v 6.871372 1.078077 -0.013869
v 6.881468 1.066460 -0.021832
v 6.879403 1.070254 -0.019992
v 6.889537 1.059130 -0.017673
v 6.845337 1.070036 0.013265
v 6.843314 1.069371 0.010379
v 6.877512 1.069769 -0.021986
v 6.875530 1.073137 -0.019324
v 6.870243 1.077989 -0.014444
v 6.887347 1.058513 -0.020845
v 6.888540 1.054173 -0.021087
v 6.890848 1.054843 -0.017755
v 6.841450 1.065603 0.012572
v 6.873773 1.072809 -0.020667
v 6.884774 1.058008 -0.023759
v 6.883290 1.062334 -0.023041
v 6.891679 1.050790 -0.017534
v 6.843644 1.066332 0.015712
v 6.842440 1.062446 0.017795
v 6.840133 1.061688 0.014314
v 6.872062 1.075712 -0.017591
v 6.880914 1.061838 -0.025753
v 6.879333 1.065958 -0.024239
v 6.889317 1.050068 -0.020977
v 6.889483 1.046517 -0.020246
v 6.891800 1.047258 -0.016757
v 6.839264 1.057920 0.015486
v 6.870486 1.075618 -0.018251
v 6.869181 1.077846 -0.015066
v 6.876951 1.065538 -0.026262
v 6.875427 1.069385 -0.023680
v 6.886552 1.049425 -0.024098
v 6.885835 1.053602 -0.024123
v 6.891727 1.043964 -0.015784
v 6.873038 1.069209 -0.024711
v 6.871786 1.072692 -0.021532
v 6.867908 1.077856 -0.015201
v 6.883121 1.053030 -0.027164
v 6.882193 1.057504 -0.026677
v 6.889482 1.043216 -0.019318
v 6.891830 1.041332 -0.015113
v 6.869716 1.072680 -0.022145
v 6.879310 1.057046 -0.029116
v 6.878256 1.061400 -0.028024
v 6.889577 1.040563 -0.018664
v 6.886818 1.042528 -0.022573
v 6.886748 1.045842 -0.023436
v 6.868844 1.075597 -0.018719
v 6.866742 1.077742 -0.015688
v 6.865493 1.077780 -0.015657
v 6.875169 1.061086 -0.029295
v 6.874188 1.065289 -0.027427
v 6.886903 1.039850 -0.021952
v 6.883871 1.045168 -0.026550
v 6.883744 1.048776 -0.027203
v 6.867192 1.075576 -0.019188
v 6.865493 1.075566 -0.019427
v 6.871306 1.065131 -0.028136
v 6.870548 1.069139 -0.025392
v 6.883952 1.039186 -0.025094
v 6.880603 1.048230 -0.029795
v 6.880088 1.052530 -0.029702
v 6.867635 1.072669 -0.022760
v 6.865493 1.072665 -0.023072
v 6.868052 1.069069 -0.026073
v 6.883879 1.041856 -0.025674
v 6.880699 1.038640 -0.027693
v 6.876559 1.052190 -0.031102
v 6.875964 1.056695 -0.030464
v 6.865493 1.069035 -0.026418
v 6.868431 1.064973 -0.028842
v 6.865493 1.064895 -0.029198
v 6.880640 1.041299 -0.028232
v 6.877076 1.040960 -0.029856
v 6.877121 1.038275 -0.029350
v 6.880684 1.044611 -0.029127
v 6.872484 1.056408 -0.031232
v 6.871955 1.060842 -0.030033
v 6.868756 1.060600 -0.030765
v 6.865493 1.060480 -0.031135
v 6.877071 1.044292 -0.030657
v 6.873330 1.038040 -0.030408
v 6.873299 1.040750 -0.030882
v 6.876963 1.047913 -0.031254
v 6.869021 1.056123 -0.031993
v 6.865493 1.055981 -0.032378
v 6.873257 1.044103 -0.031583
v 6.873159 1.047718 -0.032099
v 6.869421 1.040577 -0.031648
v 6.869437 1.037877 -0.031211
v 6.869400 1.043929 -0.032375
v 6.872881 1.051939 -0.031897
v 6.869220 1.051691 -0.032686
v 6.865493 1.051566 -0.033085
v 6.869360 1.047525 -0.032903
v 6.865493 1.037814 -0.031549
v 6.865493 1.040500 -0.031965
v 6.865493 1.043845 -0.032739
v 6.865493 1.047427 -0.033301
v 6.849141 1.075544 -0.007910
v 6.845912 1.072766 -0.007844
v 6.845610 1.073310 -0.005137
v 6.849144 1.076453 -0.003511
v 6.845914 1.073906 -0.002443
v 6.852880 1.077467 -0.009510
v 6.849598 1.075179 -0.010099
v 6.842581 1.070171 -0.004459
v 6.849605 1.076984 -0.001363
v 6.852887 1.078811 -0.002819
v 6.842957 1.070842 -0.001292
v 6.843701 1.071498 0.001823
v 6.846516 1.074519 0.000201
v 6.853250 1.077181 -0.011194
v 6.856479 1.078848 -0.010024
v 6.853258 1.079195 -0.001164
v 6.850071 1.077519 0.000797
v 6.847124 1.075136 0.002852
v 6.856484 1.080230 -0.002907
v 6.840407 1.067321 -0.000087
v 6.857124 1.078670 -0.011066
v 6.850855 1.078005 0.002870
v 6.853880 1.079548 0.000422
v 6.857130 1.080459 -0.001887
v 6.839987 1.066594 -0.003674
v 6.840406 1.065795 -0.007205
v 6.842956 1.069491 -0.007616
v 6.848084 1.075715 0.005400
v 6.837883 1.062661 -0.002817
v 6.843699 1.068820 -0.010712
v 6.846512 1.072258 -0.010515
v 6.858819 1.078306 -0.012871
v 6.857736 1.078429 -0.012130
v 6.845573 1.072801 0.007927
v 6.844450 1.072157 0.004940
v 6.847118 1.071750 -0.013196
v 6.850062 1.074813 -0.012301
v 6.854962 1.076570 -0.014166
v 6.853871 1.076882 -0.012803
v 6.842069 1.068682 0.007012
v 6.843314 1.069371 0.010379
v 6.841236 1.068000 0.003463
v 6.850847 1.074425 -0.014403
v 6.860744 1.077989 -0.014444
v 6.859615 1.078077 -0.013869
v 6.841450 1.065603 0.012572
v 6.839219 1.064153 0.004996
v 6.840109 1.064870 0.008888
v 6.838332 1.063439 0.001103
v 6.857532 1.075951 -0.016565
v 6.856250 1.076259 -0.015370
v 6.838713 1.060896 0.010383
v 6.840133 1.061688 0.014314
v 6.837758 1.060100 0.006295
v 6.836805 1.059305 0.002205
v 6.863079 1.077856 -0.015201
v 6.861806 1.077846 -0.015066
v 6.853843 1.073567 -0.017760
v 6.852220 1.074000 -0.016185
v 6.839264 1.057920 0.015486
v 6.836771 1.056173 0.007380
v 6.860500 1.075618 -0.018251
v 6.858925 1.075712 -0.017591
v 6.849689 1.070742 -0.017990
v 6.848078 1.071243 -0.015766
v 6.837807 1.057039 0.011528
v 6.837625 1.053544 0.012252
v 6.839023 1.054574 0.015840
v 6.857213 1.072809 -0.020667
v 6.855457 1.073137 -0.019324
v 6.845568 1.067517 -0.016793
v 6.844446 1.068151 -0.013810
v 6.838989 1.051107 0.016606
v 6.853475 1.069769 -0.021986
v 6.851584 1.070254 -0.019992
v 6.842066 1.064162 -0.014078
v 6.841235 1.064977 -0.010642
v 6.835785 1.055289 0.003194
v 6.836495 1.052664 0.008194
v 6.835555 1.051737 0.003993
v 6.837631 1.050219 0.012816
v 6.838615 1.048454 0.017472
v 6.849519 1.066460 -0.021832
v 6.847388 1.066963 -0.019425
v 6.839220 1.060863 -0.010372
v 6.838332 1.061779 -0.006651
v 6.835298 1.054381 -0.001056
v 6.836395 1.049353 0.008915
v 6.837466 1.047443 0.013473
v 6.845328 1.062831 -0.020334
v 6.843309 1.063417 -0.017390
v 6.836806 1.057550 -0.005999
v 6.836323 1.058461 -0.001925
v 6.836247 1.046589 0.009530
v 6.835541 1.048409 0.004739
v 6.835407 1.045699 0.005326
v 6.841449 1.059130 -0.017673
v 6.840110 1.059950 -0.014092
v 6.835128 1.050801 -0.000266
v 6.835205 1.047458 0.000487
v 6.835082 1.044796 0.001068
v 6.838716 1.055692 -0.013949
v 6.843639 1.058513 -0.020845
v 6.842446 1.054173 -0.021087
v 6.840138 1.054843 -0.017755
v 6.837759 1.056620 -0.009975
v 6.835547 1.049904 -0.004465
v 6.835783 1.053470 -0.005279
v 6.835525 1.046572 -0.003640
v 6.835407 1.043908 -0.003036
v 6.847696 1.062334 -0.023041
v 6.846212 1.058008 -0.023759
v 6.839972 1.054032 -0.017711
v 6.836768 1.052566 -0.009425
v 6.836479 1.049021 -0.008620
v 6.836362 1.045707 -0.007723
v 6.836247 1.043032 -0.007086
v 6.850073 1.061838 -0.025753
v 6.851654 1.065958 -0.024239
v 6.839308 1.050790 -0.017534
v 6.837801 1.051652 -0.013576
v 6.837599 1.048117 -0.012792
v 6.837466 1.042164 -0.011183
v 6.837576 1.044816 -0.011845
v 6.855559 1.069385 -0.023680
v 6.854035 1.065538 -0.026262
v 6.841670 1.050068 -0.020977
v 6.839187 1.047258 -0.016757
v 6.841503 1.046517 -0.020246
v 6.839259 1.043964 -0.015784
v 6.839156 1.041332 -0.015113
v 6.857948 1.069209 -0.024711
v 6.855817 1.061086 -0.029295
v 6.852730 1.061400 -0.028024
v 6.856798 1.065289 -0.027427
v 6.859201 1.072692 -0.021532
v 6.844435 1.049425 -0.024098
v 6.841504 1.043216 -0.019318
v 6.841410 1.040563 -0.018664
v 6.851677 1.057046 -0.029116
v 6.859680 1.065131 -0.028136
v 6.848794 1.057504 -0.026677
v 6.862143 1.075597 -0.018719
v 6.861270 1.072680 -0.022145
v 6.845152 1.053602 -0.024123
v 6.844168 1.042528 -0.022573
v 6.844084 1.039850 -0.021952
v 6.847865 1.053030 -0.027164
v 6.863794 1.075576 -0.019188
v 6.864244 1.077742 -0.015688
v 6.860439 1.069139 -0.025392
v 6.844239 1.045842 -0.023436
v 6.847035 1.039186 -0.025094
v 6.865493 1.077780 -0.015657
v 6.862935 1.069069 -0.026073
v 6.859031 1.060842 -0.030033
v 6.862556 1.064973 -0.028842
v 6.862231 1.060600 -0.030765
v 6.847116 1.045168 -0.026550
v 6.847107 1.041856 -0.025674
v 6.850287 1.038640 -0.027693
v 6.865493 1.075566 -0.019427
v 6.863351 1.072669 -0.022760
v 6.858503 1.056408 -0.031232
v 6.855023 1.056695 -0.030464
v 6.865493 1.064895 -0.029198
v 6.850347 1.041299 -0.028232
v 6.853911 1.040960 -0.029856
v 6.853866 1.038275 -0.029350
v 6.865493 1.072665 -0.023072
v 6.854427 1.052190 -0.031102
v 6.850898 1.052530 -0.029702
v 6.865493 1.069035 -0.026418
v 6.865493 1.060480 -0.031135
v 6.850302 1.044611 -0.029127
v 6.853916 1.044292 -0.030657
v 6.857687 1.040750 -0.030882
v 6.857657 1.038040 -0.030408
v 6.850384 1.048230 -0.029795
v 6.847242 1.048776 -0.027203
v 6.865493 1.055981 -0.032378
v 6.861966 1.056123 -0.031993
v 6.861550 1.037877 -0.031211
v 6.854024 1.047913 -0.031254
v 6.861767 1.051691 -0.032686
v 6.865493 1.051566 -0.033085
v 6.858106 1.051939 -0.031897
v 6.861565 1.040577 -0.031648
v 6.865493 1.037814 -0.031549
v 6.857828 1.047718 -0.032099
v 6.865493 1.047427 -0.033301
v 6.861627 1.047525 -0.032903
v 6.865493 1.040500 -0.031965
v 6.861587 1.043929 -0.032375
v 6.857730 1.044103 -0.031583
v 6.865493 1.043845 -0.032739
v 6.841485 1.058828 0.018972
v 6.844110 1.059250 0.023006
v 6.845198 1.063355 0.020752
v 6.846233 1.067088 0.018466
v 6.840752 1.055935 0.018588
v 6.839023 1.054574 0.015840
v 6.841393 1.055306 0.019910
v 6.848050 1.064622 0.023215
v 6.847703 1.062141 0.025351
v 6.848848 1.067932 0.021098
v 6.850081 1.071312 0.018457
v 6.847706 1.070673 0.015860
v 6.838989 1.051107 0.016606
v 6.851071 1.063813 0.026749
v 6.851181 1.065838 0.025068
v 6.851751 1.068693 0.023238
v 6.852735 1.071862 0.020624
v 6.854041 1.074876 0.017309
v 6.851658 1.074425 0.015316
v 6.854672 1.066582 0.026106
v 6.854637 1.064820 0.027561
v 6.855815 1.072196 0.021824
v 6.855082 1.069167 0.024408
v 6.856805 1.075141 0.018431
v 6.855571 1.077299 0.013354
v 6.857971 1.077512 0.014292
v 6.858537 1.069495 0.025060
v 6.858262 1.067088 0.026704
v 6.858237 1.065480 0.028070
v 6.859027 1.072417 0.022510
v 6.859688 1.075309 0.019092
v 6.860467 1.077656 0.014839
v 6.861312 1.079432 0.010347
v 6.859238 1.079309 0.009926
v 6.861842 1.067596 0.027294
v 6.861982 1.069824 0.025706
v 6.862229 1.072639 0.023190
v 6.861828 1.066136 0.028575
v 6.862563 1.075476 0.019749
v 6.862957 1.077799 0.015384
v 6.865493 1.067852 0.027594
v 6.865493 1.069991 0.026033
v 6.865493 1.066471 0.028828
v 6.865493 1.072751 0.023533
v 6.865493 1.075560 0.020081
v 6.865493 1.077872 0.015659
v 6.865493 1.079617 0.010976
v 6.863384 1.079555 0.010765
v 6.862185 1.080634 0.006161
v 6.869145 1.067596 0.027294
v 6.865493 1.067852 0.027594
v 6.869159 1.066136 0.028575
v 6.865493 1.069991 0.026033
v 6.868758 1.072639 0.023190
v 6.868029 1.077799 0.015384
v 6.863825 1.080711 0.006508
v 6.864267 1.081314 0.002671
v 6.872749 1.065480 0.028070
v 6.869005 1.069824 0.025706
v 6.865493 1.080750 0.006684
v 6.865493 1.081320 0.002617
v 6.872725 1.067088 0.026704
v 6.876315 1.066582 0.026106
v 6.876350 1.064820 0.027561
v 6.872449 1.069495 0.025060
v 6.867162 1.080711 0.006508
v 6.867603 1.079555 0.010765
v 6.866720 1.081314 0.002671
v 6.879916 1.063813 0.026749
v 6.871959 1.072417 0.022510
v 6.875905 1.069167 0.024408
v 6.875171 1.072196 0.021824
v 6.871298 1.075309 0.019092
v 6.868423 1.075476 0.019749
v 6.869674 1.079432 0.010347
v 6.867877 1.081273 0.002192
v 6.879235 1.068693 0.023238
v 6.868802 1.080634 0.006161
v 6.870446 1.080557 0.005811
v 6.869147 1.081250 0.002087
v 6.879806 1.065838 0.025068
v 6.870519 1.077656 0.014839
v 6.870218 1.081169 0.001464
v 6.882936 1.064622 0.023215
v 6.883284 1.062141 0.025351
v 6.874182 1.075141 0.018431
v 6.873015 1.077512 0.014292
v 6.871749 1.079309 0.009926
v 6.886877 1.059250 0.023006
v 6.878252 1.071862 0.020624
v 6.880905 1.071312 0.018457
v 6.882138 1.067932 0.021098
v 6.876946 1.074876 0.017309
v 6.875415 1.077299 0.013354
v 6.873752 1.079144 0.009195
v 6.872034 1.080441 0.005232
v 6.871356 1.081026 0.000905
v 6.872159 1.080839 -0.000100
v 6.884754 1.067088 0.018466
v 6.879328 1.074425 0.015316
v 6.877508 1.076960 0.011674
v 6.875523 1.078902 0.007869
v 6.873440 1.080254 0.004217
v 6.885789 1.063355 0.020752
v 6.881462 1.073899 0.012931
v 6.879400 1.076569 0.009655
v 6.877140 1.078630 0.006269
v 6.874728 1.080036 0.003003
v 6.873245 1.080652 -0.000822
v 6.873857 1.080459 -0.001887
v 6.888547 1.062446 0.017795
v 6.883280 1.070673 0.015860
v 6.881294 1.076177 0.007631
v 6.878762 1.078356 0.004661
v 6.876018 1.079817 0.001785
v 6.877107 1.079548 0.000422
v 6.887343 1.066332 0.015712
v 6.885650 1.070036 0.013265
v 6.880132 1.078005 0.002870
v 6.883592 1.073374 0.010546
v 6.885413 1.072801 0.007927
v 6.882903 1.075715 0.005400
v 6.889537 1.065603 0.012572
v 6.887672 1.069371 0.010379
v 6.890853 1.061688 0.014314
v 6.889503 1.058828 0.018972
v 6.891723 1.057920 0.015486
v 6.890235 1.055932 0.018588
v 6.889594 1.055305 0.019910
v 6.891964 1.054571 0.015841
v 6.891856 1.051208 0.016553
v 6.874472 1.065377 0.035490
v 6.875437 1.064908 0.030691
v 6.871495 1.065818 0.035687
v 6.877800 1.064620 0.035173
v 6.876350 1.064820 0.027561
v 6.872749 1.065480 0.028070
v 6.872141 1.065469 0.031001
v 6.878898 1.064009 0.030239
v 6.879916 1.063813 0.026749
v 6.868845 1.066030 0.031311
v 6.868517 1.066257 0.035886
v 6.882606 1.062453 0.029476
v 6.881761 1.063244 0.034603
v 6.869159 1.066136 0.028575
v 6.883284 1.062141 0.025351
v 6.865493 1.066471 0.028828
v 6.865493 1.066313 0.031465
v 6.865493 1.066479 0.035984
v 6.885411 1.061606 0.034019
v 6.886022 1.060610 0.028902
v 6.886877 1.059250 0.023006
v 6.862142 1.066030 0.031311
v 6.861828 1.066136 0.028575
v 6.862469 1.066257 0.035886
v 6.888436 1.058670 0.029070
v 6.887672 1.059942 0.033673
v 6.889152 1.057095 0.024619
v 6.890067 1.055255 0.021465
v 6.889594 1.055305 0.019910
v 6.859492 1.065818 0.035687
v 6.858846 1.065469 0.031001
v 6.858237 1.065480 0.028070
v 6.888903 1.058478 0.034232
v 6.890444 1.056760 0.029635
v 6.891297 1.054973 0.025122
v 6.891693 1.053036 0.020805
v 6.891856 1.051208 0.016553
v 6.855550 1.064908 0.030691
v 6.856515 1.065377 0.035490
v 6.854637 1.064820 0.027561
v 6.853186 1.064620 0.035173
v 6.852089 1.064009 0.030239
v 6.851071 1.063813 0.026749
v 6.848381 1.062453 0.029476
v 6.849226 1.063244 0.034603
v 6.847703 1.062141 0.025351
v 6.844110 1.059250 0.023006
v 6.844965 1.060610 0.028902
v 6.845575 1.061606 0.034019
v 6.842550 1.058670 0.029070
v 6.841835 1.057095 0.024619
v 6.840919 1.055255 0.021465
v 6.841393 1.055306 0.019910
v 6.843314 1.059942 0.033673
v 6.839690 1.054973 0.025122
v 6.840542 1.056760 0.029635
v 6.842083 1.058478 0.034232
v 6.839293 1.053036 0.020805
v 6.838989 1.051107 0.016606
v 6.874472 1.065377 0.035490
v 6.873707 1.065524 0.042392
v 6.877800 1.064620 0.035173
v 6.871495 1.065818 0.035687
v 6.870975 1.065902 0.042708
v 6.870556 1.066038 0.050900
v 6.873087 1.065691 0.050352
v 6.876041 1.065024 0.049160
v 6.876851 1.064834 0.041752
v 6.880788 1.063527 0.040455
v 6.881761 1.063244 0.034603
v 6.868244 1.066280 0.043022
v 6.868517 1.066257 0.035886
v 6.868024 1.066386 0.051448
v 6.879842 1.063720 0.046682
v 6.883680 1.062052 0.043177
v 6.884408 1.062058 0.038846
v 6.885411 1.061606 0.034019
v 6.865493 1.066479 0.035984
v 6.865493 1.066470 0.043179
v 6.865493 1.066560 0.051722
v 6.886606 1.060879 0.037283
v 6.886603 1.060237 0.038835
v 6.887672 1.059942 0.033673
v 6.862742 1.066280 0.043022
v 6.862469 1.066257 0.035886
v 6.862962 1.066386 0.051448
v 6.888903 1.058478 0.034232
v 6.859492 1.065818 0.035687
v 6.860011 1.065902 0.042708
v 6.860431 1.066038 0.050900
v 6.857279 1.065524 0.042392
v 6.856515 1.065377 0.035490
v 6.857900 1.065691 0.050352
v 6.853186 1.064620 0.035173
v 6.854136 1.064834 0.041752
v 6.854945 1.065024 0.049160
v 6.850199 1.063527 0.040455
v 6.849226 1.063244 0.034603
v 6.851145 1.063720 0.046682
v 6.845575 1.061606 0.034019
v 6.846579 1.062058 0.038846
v 6.847306 1.062052 0.043177
v 6.844381 1.060879 0.037283
v 6.843314 1.059942 0.033673
v 6.844384 1.060237 0.038835
v 6.842083 1.058478 0.034232
v 6.873087 1.062632 0.050490
v 6.870556 1.062990 0.051038
v 6.876041 1.061922 0.049300
v 6.868024 1.063348 0.051586
v 6.879842 1.060506 0.046826
v 6.865493 1.063527 0.051860
v 6.883680 1.058662 0.043329
v 6.862962 1.063348 0.051586
v 6.886749 1.056668 0.039071
v 6.860431 1.062990 0.051038
v 6.889005 1.054711 0.034588
v 6.857900 1.062632 0.050490
v 6.854945 1.061922 0.049300
v 6.851145 1.060506 0.046826
v 6.847306 1.058662 0.043329
v 6.844237 1.056668 0.039071
v 6.841982 1.054711 0.034588
v 6.838615 1.048454 0.017472
v 6.839244 1.049819 0.021847
v 6.839764 1.051381 0.026271
v 6.840583 1.052980 0.030420
v 6.841982 1.054711 0.034588
v 6.892372 1.048454 0.017472
v 6.891742 1.049819 0.021847
v 6.891222 1.051381 0.026271
v 6.890403 1.052980 0.030420
v 6.889005 1.054711 0.034588
v 6.867640 1.081111 -0.009134
v 6.865493 1.081319 -0.009385
v 6.865493 1.082182 -0.007165
v 6.867843 1.081803 -0.007085
v 6.863346 1.081111 -0.009134
v 6.863143 1.081803 -0.007085
v 6.863346 1.081996 -0.004931
v 6.865493 1.082287 -0.004786
v 6.867640 1.081996 -0.004931
vn -0.3226 -0.9067 0.2717
vn -0.2379 -0.9488 0.2077
vn -0.0004 -0.9701 0.2427
vn -0.2804 0.9598 0.0079
vn -0.2688 0.9632 0.0055
vn -0.1777 0.9841 -0.0035
vn -0.1848 0.9828 -0.0006
vn -0.3479 -0.8909 0.2920
vn -0.3568 -0.9108 0.2078
vn -0.2372 -0.9689 0.0703
vn -0.2641 -0.9617 0.0741
vn -0.3689 -0.9243 0.0979
vn -0.3330 -0.9403 0.0708
vn -0.4298 -0.8768 0.2155
vn -0.3720 -0.8959 0.2427
vn 0.2755 0.9594 -0.0608
vn 0.3141 0.9493 -0.0140
vn 0.2057 0.9785 -0.0131
vn 0.1843 0.9811 -0.0591
vn -0.4117 -0.8964 0.1645
vn 0.4800 -0.8597 0.1750
vn 0.4117 -0.8964 0.1645
vn 0.3720 -0.8959 0.2427
vn 0.4339 -0.8648 0.2528
vn -0.4339 -0.8648 0.2528
vn -0.4800 -0.8597 0.1750
vn -0.5567 -0.7992 0.2268
vn 0.4298 -0.8768 0.2155
vn 0.5599 -0.8101 0.1740
vn 0.5567 -0.7992 0.2268
vn -0.4516 -0.8845 0.1172
vn -0.5173 -0.8445 0.1385
vn -0.5599 -0.8101 0.1740
vn -0.6606 -0.7360 0.1478
vn -0.4425 -0.8935 0.0767
vn -0.6150 -0.7712 0.1643
vn -0.4044 -0.9107 0.0847
vn -0.3953 -0.9063 0.1492
vn -0.5070 -0.8354 0.2125
vn -0.5100 -0.8488 0.1397
vn -0.4308 -0.8980 0.0900
vn -0.3988 -0.9049 0.1485
vn 0.2372 -0.9689 0.0703
vn 0.3330 -0.9403 0.0708
vn 0.3689 -0.9243 0.0979
vn 0.2641 -0.9617 0.0741
vn -0.3543 -0.9143 0.1966
vn 0.8593 0.1273 0.4953
vn 0.8601 0.1005 0.5002
vn 0.8468 0.2327 0.4783
vn 0.8233 0.2681 0.5003
vn -0.3739 -0.9054 0.2011
vn 0.1333 -0.9891 0.0630
vn 0.2458 -0.9549 0.1664
vn 0.1249 -0.9822 0.1404
vn 0.7614 0.3949 0.5141
vn 0.7114 0.4807 0.5126
vn 0.6362 0.5253 0.5651
vn 0.6404 0.5298 0.5561
vn -0.2452 -0.9545 0.1700
vn -0.1720 -0.9675 0.1852
vn 0.8877 0.4464 0.1130
vn 0.9529 0.0528 0.2988
vn 0.9718 0.0409 0.2322
vn 0.9150 0.3950 0.0825
vn -0.1009 -0.9805 0.1687
vn -0.3257 -0.9074 0.2656
vn -0.3505 -0.9031 0.2480
vn -0.1629 -0.9848 0.0610
vn -0.1289 -0.9903 0.0516
vn -0.1333 -0.9891 0.0630
vn 0.2821 0.9388 -0.1979
vn 0.2464 0.9680 0.0475
vn 0.9053 0.2596 0.3363
vn 0.9820 0.1846 -0.0402
vn 0.5613 0.7489 -0.3522
vn 0.4179 0.8473 -0.3278
vn 0.4334 0.8552 -0.2842
vn 0.5726 0.7606 -0.3058
vn 0.0010 -0.9868 0.1618
vn -0.2519 -0.9106 0.3277
vn 0.4685 0.6523 0.5958
vn 0.2688 0.9632 0.0055
vn 0.1777 0.9841 -0.0035
vn 0.3122 0.6894 0.6536
vn -0.2618 -0.9041 0.3376
vn -0.2974 -0.9039 0.3075
vn -0.3326 -0.9004 0.2805
vn -0.0871 -0.9940 0.0662
vn 0.0862 -0.9837 0.1581
vn 0.5758 0.5248 -0.6270
vn 0.5299 0.5348 -0.6582
vn 0.4367 0.6512 -0.6207
vn 0.4766 0.6378 -0.6050
vn -0.2145 -0.9052 0.3669
vn -0.2313 -0.9023 0.3639
vn 0.1629 -0.9848 0.0610
vn 0.4835 0.0393 0.8744
vn 0.6320 0.0348 0.7742
vn 0.6099 0.5969 0.5213
vn 0.1827 -0.9648 0.1894
vn -0.2114 -0.9004 0.3802
vn -0.1271 -0.9091 0.3968
vn 0.4343 0.8997 -0.0434
vn 0.5788 0.8143 0.0440
vn 0.3737 0.9269 0.0349
vn -0.1822 -0.9025 0.3904
vn -0.0000 -0.9973 0.0735
vn -0.0000 -0.9982 0.0607
vn 0.2519 -0.9106 0.3277
vn 0.3257 -0.9074 0.2656
vn 0.2618 -0.9041 0.3376
vn 0.2145 -0.9052 0.3669
vn -0.0007 -0.9864 0.1643
vn -0.1281 -0.9812 0.1441
vn 0.2574 -0.9421 0.2150
vn -0.0612 -0.9031 0.4250
vn -0.1286 -0.9042 0.4073
vn -0.0833 -0.9024 0.4227
vn 0.0871 -0.9940 0.0662
vn 0.1289 -0.9903 0.0516
vn 0.6836 0.7238 -0.0935
vn 0.7089 0.6901 -0.1456
vn 0.6667 0.7366 -0.1141
vn 0.5425 0.8325 -0.1123
vn 0.3246 -0.9057 0.2726
vn -0.0577 -0.8999 0.4323
vn 0.3576 -0.9106 0.2074
vn 0.3487 -0.8905 0.2923
vn -0.0345 -0.9014 0.4315
vn 0.4044 -0.9107 0.0847
vn 0.4516 -0.8845 0.1172
vn -0.0000 -0.9023 0.4311
vn 0.5173 -0.8445 0.1385
vn 0.3953 -0.9063 0.1492
vn 0.2359 0.9712 0.0352
vn 0.2416 0.7095 0.6620
vn 0.1384 0.9904 -0.0054
vn -0.0000 -0.9075 0.4202
vn 0.0612 -0.9031 0.4250
vn 0.0345 -0.9014 0.4315
vn 0.5100 -0.8488 0.1397
vn 0.6150 -0.7712 0.1643
vn 0.5070 -0.8354 0.2125
vn 0.6606 -0.7360 0.1478
vn 0.4425 -0.8935 0.0767
vn 0.0577 -0.8999 0.4323
vn 0.1271 -0.9091 0.3968
vn 0.1286 -0.9042 0.4073
vn 0.0833 -0.9024 0.4227
vn 0.4308 -0.8980 0.0900
vn 0.3988 -0.9049 0.1485
vn 0.3739 -0.9054 0.2011
vn 0.3543 -0.9143 0.1966
vn 0.2313 -0.9023 0.3639
vn 0.2114 -0.9004 0.3802
vn 0.1822 -0.9025 0.3904
vn 0.3505 -0.9031 0.2480
vn 0.2974 -0.9039 0.3075
vn 0.3326 -0.9004 0.2805
vn 0.5002 0.8604 -0.0976
vn 0.6613 0.7466 -0.0733
vn -0.0000 -0.0248 -0.9997
vn 0.3841 -0.0155 -0.9232
vn 0.2611 -0.8570 -0.4444
vn -0.0000 -0.9117 -0.4110
vn -0.2611 -0.8570 -0.4444
vn -0.0000 -0.9766 0.2149
vn -0.4209 -0.8732 -0.2456
vn -0.6223 -0.6654 0.4123
vn -0.9053 0.2596 0.3363
vn -0.9820 0.1846 -0.0402
vn -0.5993 -0.7832 0.1658
vn -0.6164 -0.7807 -0.1030
vn 0.6971 0.0146 -0.7169
vn 0.4209 -0.8732 -0.2456
vn 0.5993 -0.7832 0.1658
vn 0.6164 -0.7807 -0.1030
vn 0.9051 0.0955 -0.4144
vn -0.6971 0.0146 -0.7169
vn -0.3841 -0.0155 -0.9232
vn 0.6223 -0.6654 0.4123
vn -0.9051 0.0955 -0.4144
vn -0.4296 -0.6881 0.5847
vn 0.6972 0.3125 0.6452
vn 0.4296 -0.6881 0.5847
vn 0.7754 0.0425 0.6300
vn 0.8760 0.0586 0.4787
vn 0.8577 0.3309 0.3934
vn 0.7173 0.5364 0.4446
vn -0.2670 -0.5865 0.7647
vn -0.0000 -0.6509 0.7592
vn 0.2670 -0.5865 0.7647
vn 0.3844 0.3709 0.8454
vn -0.0000 0.3943 0.9190
vn -0.6972 0.3125 0.6452
vn -0.3844 0.3709 0.8454
vn 0.4617 0.8567 -0.2300
vn 0.3182 0.9200 -0.2287
vn 0.3077 0.9338 -0.1825
vn 0.4688 0.8660 -0.1739
vn -0.9696 0.0832 0.2301
vn -0.9686 0.1031 0.2260
vn -0.9526 0.1422 0.2690
vn -0.9526 0.1054 0.2853
vn -0.1678 0.8058 -0.5679
vn -0.2042 0.7331 -0.6488
vn -0.2783 0.7357 -0.6175
vn -0.2238 0.8049 -0.5495
vn 0.8581 0.3278 -0.3953
vn 0.8073 0.4344 -0.3995
vn 0.8221 0.4458 -0.3542
vn 0.8750 0.3382 -0.3465
vn 0.1500 -0.1766 -0.9728
vn 0.0945 -0.1834 -0.9785
vn 0.1018 -0.0492 -0.9936
vn 0.1549 -0.0441 -0.9870
vn 0.1017 0.1043 -0.9893
vn 0.1520 0.1073 -0.9825
vn -0.9611 0.1983 0.1922
vn -0.9467 0.2000 0.2525
vn -0.9178 0.3386 0.2073
vn -0.9319 0.3283 0.1545
vn -0.9429 0.3178 0.1001
vn -0.9747 0.1830 0.1284
vn -0.9525 0.0895 0.2910
vn -0.9395 0.0910 0.3302
vn -0.9312 0.2076 0.2996
vn 0.2367 -0.1647 -0.9575
vn 0.1436 -0.1585 -0.9769
vn 0.1448 -0.1844 -0.9721
vn 0.2325 -0.1856 -0.9547
vn -0.9875 0.0654 0.1432
vn -0.9997 0.0223 -0.0048
vn -0.9998 0.0178 -0.0037
vn -0.9897 0.0555 0.1319
vn -0.9704 0.0889 0.2244
vn -0.9019 0.3475 0.2566
vn -0.3412 -0.1939 -0.9198
vn -0.3495 -0.1676 -0.9218
vn -0.5325 -0.1562 -0.8319
vn -0.5289 -0.1870 -0.8278
vn -0.7560 0.1823 -0.6287
vn -0.7193 0.1724 -0.6729
vn -0.7444 0.0157 -0.6675
vn -0.7873 0.0209 -0.6162
vn -0.9897 -0.0095 -0.1427
vn -0.9898 0.0113 -0.1421
vn -0.9990 0.0440 -0.0097
vn -0.9890 0.1443 -0.0314
vn -0.9744 0.1136 -0.1938
vn -0.9875 -0.0023 -0.1575
vn -0.4407 0.8837 0.1576
vn -0.4103 0.8928 0.1860
vn -0.3010 0.9492 0.0913
vn -0.3272 0.9429 0.0626
vn -0.8914 0.4360 0.1238
vn -0.9021 0.4254 0.0731
vn 0.6821 0.7297 -0.0477
vn 0.5821 0.8080 -0.0913
vn 0.5774 0.8136 -0.0679
vn 0.6830 0.7303 -0.0120
vn -0.9156 0.3931 -0.0847
vn -0.9568 0.2843 -0.0615
vn 0.7560 0.3015 -0.5810
vn 0.7895 0.1910 -0.5833
vn 0.7560 0.1823 -0.6287
vn 0.7257 0.2930 -0.6225
vn 0.6849 0.6843 -0.2503
vn 0.6874 0.7107 -0.1496
vn 0.7775 0.6150 -0.1313
vn 0.7704 0.5815 -0.2613
vn 0.6028 0.4003 -0.6902
vn 0.4422 0.3877 -0.8088
vn 0.3910 0.5328 -0.7504
vn -0.8183 0.5589 0.1341
vn -0.8762 0.4499 0.1729
vn -0.8603 0.4594 0.2211
vn -0.8032 0.5680 0.1798
vn -0.8421 0.5379 0.0398
vn -0.8328 0.5465 0.0883
vn -0.1447 0.7197 0.6791
vn -0.1275 0.8286 0.5451
vn -0.1695 0.8261 0.5374
vn -0.1923 0.7174 0.6696
vn -0.9419 0.2499 -0.2244
vn -0.9016 0.3572 -0.2440
vn -0.9714 -0.0290 -0.2357
vn -0.9452 -0.0624 -0.3204
vn -0.9432 -0.0430 -0.3294
vn -0.9709 -0.0156 -0.2391
vn -0.9500 -0.0479 -0.3086
vn -0.9715 -0.0137 -0.2368
vn -0.3069 0.8239 -0.4764
vn -0.3777 0.8416 -0.3861
vn -0.2461 0.9124 -0.3272
vn -0.2150 0.8943 -0.3925
vn -0.1850 0.9009 0.3926
vn -0.1503 0.9439 0.2940
vn -0.2489 0.9326 0.2613
vn -0.3133 0.8831 0.3494
vn -0.7409 0.6578 0.1358
vn -0.7540 0.6506 0.0904
vn -0.8891 -0.1071 -0.4451
vn -0.8898 -0.0785 -0.4496
vn 0.9500 -0.0479 -0.3086
vn 0.9715 -0.0137 -0.2368
vn 0.9714 -0.0290 -0.2357
vn 0.9452 -0.0624 -0.3204
vn -0.9608 0.1036 -0.2573
vn -0.9296 0.2397 -0.2799
vn -0.9441 0.0830 -0.3191
vn 0.8183 0.5589 0.1341
vn 0.7540 0.6506 0.0904
vn 0.7409 0.6578 0.1358
vn 0.8032 0.5680 0.1798
vn -0.6745 0.7375 0.0354
vn -0.6632 0.7439 0.0822
vn -0.5514 0.8341 0.0177
vn -0.5631 0.8260 -0.0262
vn -0.8901 0.3457 -0.2969
vn 0.1795 0.7308 -0.6586
vn 0.1844 0.6347 -0.7505
vn 0.1404 0.6230 -0.7695
vn 0.1360 0.7288 -0.6711
vn -0.8797 0.0451 -0.4734
vn -0.8890 -0.0977 -0.4473
vn -0.8120 0.3165 -0.4904
vn -0.8485 0.2051 -0.4879
vn -0.9137 0.2306 -0.3345
vn -0.8750 0.3382 -0.3465
vn -0.4063 0.9130 -0.0365
vn -0.4223 0.9033 -0.0750
vn -0.6907 -0.1443 -0.7086
vn -0.5227 -0.1770 -0.8339
vn -0.6861 -0.1601 -0.7097
vn 0.4748 0.2551 -0.8423
vn 0.2693 0.2308 -0.9350
vn 0.2541 0.3649 -0.8957
vn -0.8221 0.4458 -0.3542
vn -0.8346 0.4568 -0.3077
vn -0.7628 0.4238 -0.4884
vn -0.9929 0.0949 0.0717
vn -0.9947 0.0609 0.0827
vn -0.9299 0.3603 -0.0743
vn -0.9716 0.2366 -0.0036
vn -0.2709 0.8105 -0.5193
vn -0.3486 0.7355 -0.5810
vn -0.3736 0.7314 -0.5705
vn -0.2839 0.8155 -0.5044
vn -0.2532 0.9647 -0.0731
vn -0.2860 0.9523 -0.1067
vn -0.7574 -0.1425 -0.6372
vn -0.7543 -0.1241 -0.6447
vn 0.7444 0.0157 -0.6675
vn 0.6896 0.0002 -0.7242
vn 0.6704 0.1604 -0.7244
vn 0.7193 0.1724 -0.6729
vn -0.6999 0.5283 -0.4806
vn -0.7599 0.5479 -0.3496
vn -0.7647 0.6429 0.0443
vn -0.6830 0.7303 -0.0120
vn -0.6821 0.7297 -0.0477
vn -0.7684 0.6399 -0.0003
vn -0.5774 0.8136 -0.0679
vn -0.5821 0.8080 -0.0913
vn -0.7775 0.6150 -0.1313
vn -0.6874 0.7107 -0.1496
vn -0.4438 0.8902 -0.1033
vn -0.4573 0.8812 -0.1195
vn 0.2532 0.9647 -0.0731
vn 0.2860 0.9523 -0.1067
vn 0.1676 0.9780 -0.1245
vn 0.1187 0.9853 -0.1233
vn -0.6816 0.6525 -0.3313
vn -0.6170 0.6356 -0.4641
vn -0.2845 0.9509 -0.1222
vn -0.3148 0.9393 -0.1365
vn 0.2845 0.9509 -0.1222
vn -0.4620 0.5956 0.6572
vn -0.2729 0.6117 0.7426
vn -0.2569 0.7149 0.6504
vn -0.4359 0.6968 0.5696
vn 0.1258 0.9830 -0.1340
vn 0.1058 0.9767 -0.1867
vn 0.7477 0.5345 -0.3941
vn 0.7599 0.5479 -0.3496
vn -0.7686 0.5632 -0.3035
vn -0.6884 0.6678 -0.2832
vn -0.0941 0.4792 -0.8727
vn -0.0954 0.3328 -0.9382
vn -0.1414 0.3390 -0.9301
vn -0.1390 0.4871 -0.8622
vn 0.3716 0.9047 0.2084
vn 0.2781 0.9536 0.1152
vn 0.2586 0.9569 0.1321
vn 0.3404 0.9142 0.2198
vn 0.1781 0.9733 -0.1448
vn 0.3148 0.9393 -0.1365
vn -0.6849 0.6843 -0.2503
vn -0.7704 0.5815 -0.2613
vn -0.5063 0.7456 -0.4333
vn -0.5726 0.7606 -0.3058
vn -0.4334 0.8552 -0.2842
vn -0.3077 0.9338 -0.1825
vn -0.4688 0.8660 -0.1739
vn 0.1339 0.9735 -0.1852
vn -0.2781 0.9536 0.1152
vn -0.1930 0.9812 0.0043
vn -0.2118 0.9773 -0.0015
vn -0.5847 0.7686 -0.2595
vn -0.4523 0.8565 -0.2487
vn 0.5182 0.8141 0.2619
vn 0.5516 0.8011 0.2324
vn 0.4408 0.8837 0.1576
vn 0.4103 0.8928 0.1860
vn 0.5897 0.6621 0.4624
vn 0.6337 0.6483 0.4221
vn 0.5673 0.7447 0.3515
vn 0.5230 0.7639 0.3781
vn 0.1798 0.9575 -0.2255
vn -0.4617 0.8567 -0.2300
vn -0.3182 0.9200 -0.2287
vn -0.8044 -0.1216 -0.5815
vn -0.8136 -0.1340 -0.5657
vn -0.5884 0.7919 -0.1633
vn -0.5859 0.7754 -0.2356
vn 0.2603 0.9161 -0.3050
vn 0.1707 0.9533 -0.2491
vn 0.2941 0.9182 -0.2654
vn 0.1185 0.9597 -0.2548
vn 0.2907 0.9249 -0.2451
vn -0.2907 0.9249 -0.2451
vn -0.2941 0.9182 -0.2654
vn 0.1277 0.9632 -0.2365
vn 0.0530 0.9576 -0.2833
vn 0.1249 0.9374 -0.3252
vn 0.0688 0.9488 -0.3083
vn 0.1062 0.9546 -0.2782
vn -0.0000 0.9953 -0.0970
vn 0.1420 0.9863 -0.0844
vn 0.1190 0.9854 -0.1217
vn 0.1121 0.9875 -0.1110
vn -0.0786 0.9683 -0.2371
vn -0.0561 0.9296 -0.3644
vn -0.0688 0.9488 -0.3083
vn -0.0234 0.9450 -0.3262
vn -0.0127 0.9999 -0.0093
vn -0.0000 0.9988 -0.0484
vn -0.0033 0.9988 -0.0484
vn -0.1676 0.9780 -0.1245
vn -0.1187 0.9853 -0.1233
vn -0.1258 0.9830 -0.1340
vn 0.0561 0.9296 -0.3644
vn 0.0234 0.9450 -0.3262
vn -0.1420 0.9863 -0.0844
vn -0.1121 0.9875 -0.1110
vn -0.1190 0.9854 -0.1217
vn -0.1249 0.9374 -0.3252
vn -0.1062 0.9546 -0.2782
vn 0.0127 0.9999 -0.0093
vn 0.0033 0.9988 -0.0484
vn -0.1707 0.9533 -0.2491
vn -0.1277 0.9632 -0.2365
vn -0.1176 0.9590 -0.2577
vn -0.1395 0.9423 -0.3045
vn 0.1244 0.9901 -0.0653
vn 0.0620 0.9953 -0.0739
vn 0.0358 0.9992 -0.0150
vn -0.0302 0.9299 -0.3667
vn -0.0031 0.9451 -0.3269
vn 0.0302 0.9299 -0.3667
vn 0.0031 0.9451 -0.3269
vn -0.0358 0.9992 -0.0150
vn -0.0620 0.9953 -0.0739
vn -0.1244 0.9901 -0.0653
vn 0.1395 0.9423 -0.3045
vn 0.1166 0.9583 -0.2607
vn -0.1781 0.9733 -0.1448
vn -0.1339 0.9735 -0.1852
vn -0.1798 0.9575 -0.2255
vn -0.0488 0.9955 0.0809
vn 0.2313 0.9079 -0.3497
vn -0.1875 0.9817 0.0319
vn -0.1298 0.9900 0.0551
vn 0.2150 0.8943 -0.3925
vn 0.1955 0.8947 -0.4016
vn 0.1930 0.9812 0.0043
vn 0.1875 0.9817 0.0319
vn 0.6252 0.5652 0.5382
vn 0.4620 0.5956 0.6572
vn 0.4658 0.5690 0.6777
vn -0.2416 0.7095 0.6620
vn -0.2173 0.0442 0.9751
vn -0.1674 0.0448 0.9849
vn -0.1785 0.7131 0.6779
vn 0.9501 0.1082 0.2924
vn 0.9411 0.1222 0.3153
vn 0.9425 0.1935 0.2726
vn 0.9494 0.1548 0.2731
vn 0.1678 0.8058 -0.5679
vn 0.1458 0.8106 -0.5672
vn 0.0870 0.8854 -0.4565
vn 0.1138 0.8751 -0.4704
vn 0.3010 0.9492 0.0913
vn 0.2118 0.9773 -0.0015
vn -0.0764 0.9930 0.0903
vn 0.1827 0.5017 -0.8455
vn 0.1868 0.3499 -0.9180
vn 0.1414 0.3390 -0.9301
vn 0.1390 0.4871 -0.8622
vn -0.0658 0.9773 0.2012
vn -0.0406 0.9949 0.0924
vn -0.0877 0.9755 0.2016
vn -0.2259 0.9734 -0.0390
vn -0.2811 0.5903 0.7567
vn -0.4658 0.5690 0.6777
vn -0.8621 0.1517 -0.4836
vn 0.1158 0.9733 0.1981
vn 0.0764 0.9930 0.0903
vn 0.0488 0.9955 0.0809
vn 0.0877 0.9755 0.2016
vn 0.4573 0.8812 -0.1195
vn 0.4438 0.8902 -0.1033
vn 0.8603 0.4594 0.2211
vn 0.8762 0.4499 0.1729
vn 0.2489 0.9326 0.2613
vn 0.1921 0.9663 0.1713
vn -0.0871 0.9494 0.3018
vn -0.1159 0.9470 0.2995
vn -0.5225 0.6270 -0.5779
vn -0.4141 0.7308 -0.5427
vn 0.5884 0.7919 -0.1633
vn 0.5859 0.7754 -0.2356
vn 0.4320 0.8523 0.2948
vn 0.4745 0.8337 0.2825
vn 0.3315 0.6548 -0.6792
vn 0.2783 0.7357 -0.6175
vn 0.3486 0.7355 -0.5810
vn 0.3272 0.9429 0.0626
vn 0.0658 0.9773 0.2012
vn 0.0406 0.9949 0.0924
vn -0.0000 0.9965 0.0834
vn -0.0000 0.9788 0.2047
vn -0.1404 0.6230 -0.7695
vn -0.0952 0.6165 -0.7815
vn -0.1610 0.6150 0.7719
vn -0.1534 0.6232 0.7669
vn -0.2040 0.6166 0.7604
vn -0.2127 0.6014 0.7701
vn -0.1038 0.9946 -0.0048
vn -0.0000 0.7178 0.6962
vn -0.0000 1.0000 -0.0053
vn 0.4463 0.7349 -0.5106
vn 0.5576 0.6266 -0.5445
vn 0.5225 0.6270 -0.5779
vn 0.4141 0.7308 -0.5427
vn -0.1403 0.9054 0.4007
vn -0.2255 0.8213 0.5241
vn 0.6049 0.7274 0.3242
vn 0.2468 0.8660 -0.4350
vn 0.6361 0.7149 0.2905
vn -0.1955 0.8947 -0.4016
vn -0.1961 0.8821 -0.4284
vn 0.9291 0.3610 -0.0808
vn 0.9950 0.0688 0.0720
vn 0.9926 0.1104 0.0503
vn 0.9674 0.2520 -0.0240
vn 0.1961 0.8821 -0.4284
vn -0.5758 0.5248 -0.6270
vn -0.6489 0.4011 -0.6466
vn -0.6816 0.4037 -0.6102
vn -0.6147 0.5167 -0.5960
vn -0.4766 0.6378 -0.6050
vn -0.0986 0.2104 -0.9726
vn -0.1017 0.1043 -0.9893
vn -0.1520 0.1073 -0.9825
vn -0.1466 0.2142 -0.9657
vn 0.9220 -0.0594 -0.3825
vn 0.9247 -0.0864 -0.3706
vn 0.9432 -0.0430 -0.3294
vn -0.4748 0.2551 -0.8423
vn -0.4941 0.1369 -0.8586
vn -0.6704 0.1604 -0.7244
vn -0.6463 0.2749 -0.7118
vn -0.4367 0.6512 -0.6207
vn -0.5299 0.5348 -0.6582
vn 0.1512 0.8830 -0.4443
vn -0.1512 0.8830 -0.4443
vn -0.7257 0.2930 -0.6225
vn 0.7541 0.5201 0.4010
vn 0.6992 0.6255 0.3462
vn 0.6683 0.6363 0.3853
vn 0.7192 0.5348 0.4435
vn 0.6745 0.7375 0.0353
vn 0.5631 0.8260 -0.0262
vn 0.5514 0.8341 0.0177
vn 0.6632 0.7439 0.0822
vn -0.3315 0.6548 -0.6792
vn -0.6927 0.2835 -0.6631
vn 0.9308 -0.0729 -0.3582
vn 0.9267 0.0644 -0.3702
vn 0.9441 0.0830 -0.3191
vn 0.9875 -0.0023 -0.1575
vn 0.9744 0.1136 -0.1938
vn 0.9890 0.1443 -0.0314
vn 0.9997 0.0223 -0.0048
vn 0.7661 0.4331 0.4749
vn 0.8024 0.4036 0.4397
vn 0.8963 0.2187 -0.3857
vn 0.9137 0.2306 -0.3345
vn 0.2259 0.9734 -0.0390
vn 0.8044 -0.1216 -0.5815
vn 0.7543 -0.1241 -0.6447
vn 0.7873 0.0208 -0.6163
vn 0.2709 0.8105 -0.5193
vn 0.2238 0.8049 -0.5495
vn 0.2569 0.7149 0.6504
vn 0.2255 0.8213 0.5241
vn 0.1695 0.8261 0.5374
vn 0.1923 0.7174 0.6696
vn 0.3133 0.8831 0.3494
vn -0.3910 0.5328 -0.7504
vn -0.4422 0.3877 -0.8088
vn -0.6028 0.4003 -0.6902
vn -0.1095 0.6591 0.7441
vn -0.1073 0.6222 0.7755
vn -0.1646 0.6500 0.7419
vn -0.2202 0.6466 -0.7304
vn 0.1403 0.9054 0.4007
vn 0.1055 0.9083 0.4049
vn 0.1275 0.8286 0.5451
vn -0.0870 0.8854 -0.4565
vn -0.1458 0.8106 -0.5672
vn -0.1138 0.8751 -0.4704
vn -0.4593 0.5916 0.6626
vn -0.2813 0.6192 0.7331
vn -0.6896 0.0002 -0.7242
vn -0.8179 -0.1091 -0.5648
vn -0.1795 0.7308 -0.6586
vn -0.1844 0.6347 -0.7505
vn 0.6766 0.5517 0.4878
vn 0.1159 0.9470 0.2995
vn 0.1503 0.9439 0.2940
vn 0.0711 0.8826 -0.4648
vn 0.0253 0.8890 -0.4573
vn -0.2167 0.6341 0.7423
vn -0.2541 0.3649 -0.8957
vn -0.2693 0.2308 -0.9350
vn 0.0871 0.9494 0.3018
vn 0.1417 0.9899 -0.0017
vn 0.1085 0.9941 0.0004
vn 0.1038 0.9946 -0.0048
vn -0.1094 0.8159 -0.5677
vn -0.1360 0.7288 -0.6711
vn 0.7684 0.6399 -0.0003
vn -0.1827 0.5017 -0.8455
vn -0.1868 0.3499 -0.9180
vn -0.2358 0.5173 -0.8227
vn -0.6852 -0.1366 -0.7155
vn -0.7593 -0.1241 -0.6388
vn -0.5130 -0.0291 -0.8579
vn 0.7686 0.5632 -0.3035
vn 0.6884 0.6678 -0.2832
vn -0.0918 0.7266 -0.6809
vn -0.2824 0.1157 -0.9523
vn 0.6907 -0.1443 -0.7086
vn 0.2824 0.1157 -0.9523
vn 0.4941 0.1369 -0.8586
vn 0.9608 0.1036 -0.2573
vn 0.6816 0.4037 -0.6102
vn 0.6489 0.4011 -0.6466
vn 0.6147 0.5166 -0.5960
vn -0.3220 -0.1830 -0.9289
vn -0.1549 -0.0441 -0.9870
vn -0.2147 -0.0405 -0.9758
vn -0.2035 0.1101 -0.9729
vn -0.2325 -0.1856 -0.9547
vn -0.2367 -0.1647 -0.9575
vn 0.8901 0.3457 -0.2969
vn 0.9016 0.3572 -0.2440
vn 0.9419 0.2499 -0.2244
vn 0.9296 0.2397 -0.2799
vn 0.9709 -0.0156 -0.2391
vn -0.1448 -0.1844 -0.9721
vn -0.1436 -0.1585 -0.9769
vn -0.2239 -0.1727 -0.9592
vn -0.1500 -0.1766 -0.9728
vn 0.3412 -0.1939 -0.9198
vn 0.3495 -0.1676 -0.9218
vn 0.9156 0.3931 -0.0847
vn 0.9021 0.4254 0.0731
vn 0.9429 0.3178 0.1001
vn 0.9568 0.2843 -0.0615
vn -0.9897 0.0756 0.1214
vn -0.1018 -0.0492 -0.9936
vn -0.0945 -0.1834 -0.9785
vn 0.5847 0.7686 -0.2595
vn 0.4523 0.8565 -0.2487
vn -0.0669 0.8169 -0.5729
vn -0.1921 0.9663 0.1713
vn -0.2586 0.9569 0.1321
vn -0.3404 0.9142 0.2198
vn 0.1785 0.7131 0.6779
vn 0.2839 0.8155 -0.5044
vn 0.4223 0.9033 -0.0750
vn 0.7647 0.6429 0.0443
vn 0.8421 0.5379 0.0398
vn 0.8546 0.5076 -0.1091
vn 0.8328 0.5465 0.0883
vn -0.0711 0.8826 -0.4648
vn 0.8431 0.4716 -0.2586
vn 0.8346 0.4568 -0.3077
vn 0.6816 0.6525 -0.3313
vn 0.9312 0.2077 0.2996
vn 0.9367 0.0829 0.3403
vn 0.9511 0.0848 0.2969
vn 0.9467 0.2000 0.2525
vn 0.3350 0.8314 -0.4432
vn 0.3069 0.8239 -0.4764
vn 0.6708 0.6381 -0.3780
vn 0.2167 0.6341 0.7423
vn 0.2127 0.6014 0.7701
vn 0.1610 0.6150 0.7719
vn 0.1646 0.6500 0.7419
vn 0.8914 0.4360 0.1238
vn -0.5182 0.8141 0.2619
vn -0.6049 0.7274 0.3242
vn -0.5673 0.7447 0.3515
vn -0.4745 0.8337 0.2825
vn 0.9178 0.3386 0.2073
vn 0.9019 0.3475 0.2566
vn 0.9318 0.3283 0.1545
vn 0.6927 0.2835 -0.6631
vn 0.3736 0.7314 -0.5705
vn 0.9990 0.0440 -0.0097
vn 0.9898 0.0113 -0.1421
vn 0.9897 -0.0095 -0.1427
vn 0.9998 0.0178 -0.0037
vn 0.9611 0.1983 0.1922
vn 0.9747 0.1830 0.1284
vn -0.1158 0.9733 0.1981
vn -0.9467 0.1193 0.2992
vn 0.4593 0.5916 0.6626
vn 0.2042 0.7331 -0.6488
vn 0.4063 0.9130 -0.0365
vn 0.6469 0.5174 -0.5603
vn 0.1848 0.9828 -0.0006
vn -0.9905 0.0288 0.1347
vn -0.9247 0.3802 -0.0175
vn 0.9875 0.0654 0.1432
vn 0.9704 0.0889 0.2244
vn -0.3091 0.0429 0.9500
vn -0.3122 0.6894 0.6536
vn -0.4685 0.6523 0.5958
vn -0.4835 0.0393 0.8744
vn -0.6361 0.7149 0.2905
vn -0.5516 0.8011 0.2324
vn 0.9696 0.0832 0.2301
vn 0.9897 0.0555 0.1319
vn 0.2239 -0.1727 -0.9592
vn 0.3831 0.8005 0.4610
vn 0.1850 0.9009 0.3926
vn 0.7111 0.4091 -0.5718
vn -0.1029 0.6262 0.7728
vn -0.0000 0.7239 0.6899
vn -0.3012 -0.0429 -0.9526
vn 0.5325 -0.1562 -0.8319
vn 0.5289 -0.1870 -0.8278
vn 0.6861 -0.1601 -0.7097
vn 0.6852 -0.1366 -0.7155
vn 0.9897 0.0756 0.1214
vn 0.9686 0.1031 0.2260
vn -0.0000 0.8323 0.5543
vn -0.0869 -0.1865 -0.9786
vn 0.8236 0.0258 -0.5667
vn -0.8546 0.5076 -0.1091
vn 0.6463 0.2749 -0.7118
vn -0.0000 0.9785 -0.2060
vn -0.0000 0.8804 -0.4743
vn 0.2040 0.6166 0.7604
vn 0.1447 0.7197 0.6791
vn 0.1534 0.6232 0.7669
vn 0.8394 -0.1210 -0.5299
vn 0.8468 -0.1270 -0.5166
vn 0.8136 -0.1340 -0.5657
vn -0.7541 0.5201 0.4010
vn -0.8024 0.4036 0.4397
vn -0.7661 0.4331 0.4750
vn -0.7192 0.5348 0.4435
vn 0.2358 0.5173 -0.8227
vn 0.2202 0.6466 -0.7304
vn 0.4359 0.6968 0.5696
vn -0.8431 0.4716 -0.2586
vn 0.7574 -0.1425 -0.6372
vn 0.8179 -0.1091 -0.5648
vn 0.7593 -0.1241 -0.6388
vn -0.9496 0.1683 0.2645
vn 0.1094 0.8159 -0.5677
vn 0.0669 0.8169 -0.5729
vn -0.0253 0.8890 -0.4573
vn -0.0000 0.0455 0.9990
vn 0.1674 0.0448 0.9849
vn 0.1944 0.2198 -0.9560
vn 0.1466 0.2142 -0.9657
vn 0.0954 0.3328 -0.9382
vn 0.0941 0.4792 -0.8727
vn 0.0952 0.6165 -0.7815
vn 0.5227 -0.1770 -0.8339
vn 0.0918 0.7266 -0.6809
vn -0.0000 1.0000 0.0004
vn -0.1085 0.9941 0.0004
vn 0.2035 0.1101 -0.9729
vn 0.1029 0.6262 0.7728
vn 0.1073 0.6222 0.7755
vn 0.3220 -0.1830 -0.9289
vn 0.5130 -0.0291 -0.8579
vn 0.3012 -0.0429 -0.9526
vn 0.0986 0.2104 -0.9726
vn 0.0847 -0.1555 -0.9842
vn 0.0869 -0.1865 -0.9786
vn 0.2147 -0.0405 -0.9758
vn -0.1944 0.2198 -0.9560
vn -0.3831 0.8005 0.4610
vn -0.4320 0.8523 0.2948
vn -0.5230 0.7639 0.3781
vn -0.8233 0.2681 0.5003
vn -0.8577 0.1374 0.4955
vn -0.7615 0.3948 0.5141
vn -0.4343 0.8997 -0.0434
vn -0.3785 0.9225 -0.0762
vn -0.2755 0.9594 -0.0608
vn -0.3141 0.9493 -0.0140
vn -0.8551 0.1637 0.4920
vn -0.8626 0.1225 0.4908
vn -0.8667 0.1176 0.4847
vn 0.8495 -0.0983 -0.5183
vn 0.2811 0.5903 0.7567
vn 0.2813 0.6192 0.7331
vn 0.2729 0.6117 0.7426
vn -0.0000 0.9985 0.0544
vn -0.1411 0.9887 0.0516
vn -0.1247 0.9922 0.0039
vn -0.0000 1.0000 0.0056
vn -0.0000 0.9521 0.3058
vn 0.1095 0.6591 0.7441
vn -0.0000 0.9118 0.4107
vn -0.1055 0.9083 0.4049
vn -0.8468 0.2326 0.4783
vn -0.6683 0.6363 0.3853
vn -0.6992 0.6255 0.3462
vn 0.1298 0.9900 0.0551
vn -0.6362 0.5253 0.5651
vn -0.6252 0.5652 0.5382
vn -0.6404 0.5298 0.5561
vn -0.7114 0.4807 0.5126
vn -0.5897 0.6621 0.4624
vn -0.6337 0.6483 0.4221
vn -0.6766 0.5517 0.4878
vn -0.0000 0.9970 0.0777
vn -0.2464 0.9680 0.0475
vn -0.3716 0.9047 0.2084
vn -0.0000 0.9992 -0.0405
vn 0.1125 0.9927 -0.0426
vn 0.1247 0.9922 0.0039
vn 0.8581 0.1552 0.4894
vn 0.8655 0.0844 0.4938
vn -0.2057 0.9785 -0.0131
vn -0.1843 0.9811 -0.0591
vn -0.2359 0.9712 0.0352
vn -0.3737 0.9269 0.0349
vn -0.1785 0.9832 0.0389
vn -0.1662 0.9861 -0.0054
vn -0.1533 0.9869 -0.0512
vn -0.1125 0.9927 -0.0426
vn -0.5788 0.8143 0.0440
vn 0.9905 0.0288 0.1347
vn 0.9247 0.3802 -0.0175
vn -0.5002 0.8604 -0.0976
vn -0.5425 0.8325 -0.1123
vn 0.1411 0.9887 0.0516
vn -0.6667 0.7365 -0.1141
vn -0.7089 0.6901 -0.1456
vn -0.6836 0.7238 -0.0935
vn -0.6613 0.7466 -0.0733
vn 0.7430 0.6380 -0.2024
vn 0.7542 0.6224 -0.2091
vn 0.9024 0.0649 0.4260
vn 0.8989 0.3172 0.3022
vn -0.9150 0.3950 0.0825
vn -0.8877 0.4464 0.1130
vn 0.1785 0.9832 0.0389
vn 0.1662 0.9861 -0.0054
vn 0.1533 0.9869 -0.0512
vn 0.3662 0.9302 0.0261
vn 0.4533 0.8900 0.0491
vn 0.4957 0.8685 -0.0073
vn 0.3672 0.9301 0.0109
vn 0.3785 0.9225 -0.0762
vn -0.7427 0.6387 -0.2014
vn -0.7516 0.6260 -0.2082
vn -0.1417 0.9899 -0.0017
vn -0.1384 0.9904 -0.0054
vn -0.4957 0.8685 -0.0073
vn -0.4533 0.8900 0.0491
vn -0.3662 0.9302 0.0261
vn -0.3672 0.9301 0.0109
vn 0.6815 0.7228 0.1144
vn 0.6941 0.7196 0.0182
vn 0.2804 0.9598 0.0079
vn -0.6099 0.5969 0.5213
vn -0.7173 0.5364 0.4446
vn -0.6815 0.7228 0.1144
vn -0.6941 0.7196 0.0182
vn -0.8577 0.3309 0.3934
vn -0.8989 0.3172 0.3022
vn 0.2173 0.0442 0.9751
vn 0.3091 0.0429 0.9500
vn -0.6320 0.0348 0.7742
vn -0.7754 0.0425 0.6300
vn -0.8760 0.0586 0.4787
vn -0.9024 0.0649 0.4260
vn -0.9718 0.0409 0.2322
vn -0.9529 0.0528 0.2988
vn -0.2468 0.8660 -0.4350
vn -0.2821 0.9388 -0.1979
vn -0.0846 -0.1555 -0.9842
vt 0.545000 -1.050000
vt -0.300000 -0.800000
vt 1.733187 -0.343242
vt 2.238771 -0.314078
vt 2.260329 -0.377762
vt 1.783634 -0.397935
vt 1.250000 -0.100000
vt 1.400000 -0.150000
vt 1.400000 -0.300000
vt 1.186719 -0.167969
vt 0.950000 0.000000
vt 0.931250 -0.212500
vt 0.719864 -0.241827
vt 0.689389 -0.100000
vt 1.659238 -0.112325
vt 1.851350 -0.094124
vt 1.870053 -0.092664
vt 0.940972 -0.735417
vt 0.845486 -0.792708
vt 0.759115 -0.793142
vt 0.841797 -0.728950
vt 0.184201 -0.550651
vt 0.342101 -0.547201
vt 0.368403 -0.648177
vt 0.236806 -0.646354
vt 2.222615 -0.245866
vt 2.547925 -0.231204
vt 2.547925 -0.289441
vt 1.972642 -0.134027
vt 2.257007 -0.120946
vt 2.547925 -0.172968
vt 2.141832 -0.182669
vt 2.547925 -0.357589
vt 1.690930 -0.177814
vt 1.675084 -0.145069
vt 0.586372 -0.794010
vt 0.563260 -0.842947
vt 0.500000 -0.845432
vt 0.500000 -0.794227
vt 0.075000 -0.125830
vt 0.075000 0.000000
vt -0.137500 0.000000
vt -0.137500 -0.162642
vt 0.418403 -0.794010
vt 0.396354 -0.733724
vt 0.500000 -0.734918
vt 1.325000 -0.425000
vt 1.287500 -0.487500
vt 1.090625 -0.471875
vt 1.118750 -0.398438
vt 1.175000 -0.176786
vt 1.400000 -0.192857
vt 1.167969 -0.265290
vt 1.362500 -0.362500
vt 1.146875 -0.334375
vt 0.081250 -0.248576
vt -0.128125 -0.275799
vt -0.100000 -0.334375
vt 0.100000 -0.306250
vt 0.300000 -0.278125
vt 0.290625 -0.221558
vt -0.137500 -0.218821
vt -0.350000 -0.250000
vt -0.350000 -0.300000
vt 1.175000 0.000000
vt 1.175000 -0.078571
vt 0.950000 -0.084821
vt 0.287500 -0.158107
vt 0.500000 -0.139973
vt 0.500000 -0.077147
vt 0.287500 -0.091214
vt 0.075000 -0.188053
vt -0.300000 -0.362500
vt 0.287500 -0.085714
vt 0.287500 0.000000
vt 0.500000 0.000000
vt 0.500000 -0.101786
vt 1.146875 -0.346875
vt 0.931250 -0.331250
vt 0.945313 -0.281027
vt 1.167969 -0.284933
vt 0.725000 -0.064286
vt 0.725000 0.000000
vt 0.500000 -0.207259
vt 0.722656 -0.218192
vt 0.725000 -0.144643
vt 0.841797 -0.721137
vt 0.125000 -0.371875
vt 0.312500 -0.345312
vt 0.292708 -0.731337
vt 0.500000 -0.332031
vt 0.500000 -0.264063
vt -0.250000 -0.425000
vt -0.062500 -0.398438
vt 0.648872 -0.648177
vt 0.500000 -0.649089
vt 0.500000 -0.545475
vt 0.680187 -0.547201
vt 0.325000 -0.440625
vt 0.500000 -0.432812
vt -0.025000 -0.471875
vt -0.200000 -0.487500
vt 0.150000 -0.456250
vt -0.046645 -0.445575
vt -0.005789 -0.517220
vt 0.141667 -0.445833
vt 0.125664 -0.387906
vt 0.715625 -0.278125
vt 0.706250 -0.345312
vt 0.950000 -0.160714
vt 0.750000 -0.850000
vt 0.689779 -0.846434
vt 0.351042 -0.561914
vt 0.388790 -0.708854
vt 0.500000 -0.707216
vt 0.500000 -0.539475
vt -0.150000 -0.550000
vt 0.026302 -0.554102
vt 1.400000 -0.085714
vt 1.400000 0.000000
vt 0.945313 -0.241741
vt 0.931250 -0.306250
vt 0.105208 -0.644531
vt -0.026389 -0.642708
vt 0.097222 -0.735417
vt 0.189062 -0.728950
vt 0.912500 -0.371875
vt 0.727865 -0.731337
vt 0.797743 -0.646354
vt 0.946615 -0.644531
vt 0.173611 -0.792708
vt 0.255208 -0.793142
vt 0.725000 -0.192857
vt 0.500000 -0.192857
vt 0.725000 -0.085714
vt 0.696875 -0.440625
vt 0.893750 -0.456250
vt 2.559237 -1.062057
vt 2.301327 -1.055101
vt 2.320029 -1.054898
vt 2.547925 -1.058725
vt 0.613932 -0.733724
vt 0.672743 -0.793576
vt 0.250000 -0.850000
vt 0.313802 -0.846434
vt 0.950000 -0.101786
vt 0.950000 -0.192857
vt 0.081250 -0.241741
vt 0.290625 -0.218192
vt 1.250000 -0.550000
vt 1.040560 -0.554102
vt 0.342101 -0.547200
vt 0.336806 -0.793576
vt 0.375000 -0.898148
vt 0.375000 -0.925000
vt 1.095486 -0.642708
vt 0.378472 -0.847931
vt 0.437934 -0.842947
vt 0.500000 -0.278516
vt 0.280531 -0.295313
vt 0.295611 -0.355384
vt 0.500000 -0.322135
vt 0.427083 -0.909259
vt 0.500000 -1.000000
vt 0.860373 -0.550651
vt 0.727865 -0.707037
vt 0.613932 -0.709424
vt 0.458333 -0.894444
vt 0.680187 -0.547200
vt 0.500000 -0.906944
vt 0.623915 -0.847931
vt 0.670295 -0.406576
vt 0.860373 -0.456901
vt 0.797743 -0.583854
vt 0.638980 -0.554427
vt 0.541667 -0.894444
vt 1.175000 -0.192857
vt 1.175000 -0.085714
vt 0.625000 -0.898148
vt 0.625000 -0.925000
vt 0.572917 -0.909259
vt 0.376557 -0.847454
vt 0.500000 -0.845372
vt 0.696358 -0.329687
vt 0.490108 -0.326172
vt 0.490108 -0.249114
vt -0.137500 -0.162657
vt -0.350000 -0.200000
vt -0.350000 0.000000
vt 0.440055 -0.842708
vt 0.253481 -0.790278
vt 0.311955 -0.845718
vt 0.335127 -0.791667
vt 0.266158 -0.197917
vt 0.498022 -0.165885
vt 1.370000 -0.350000
vt 0.417048 -0.793056
vt 0.437500 -0.841667
vt 0.375000 -0.844444
vt 0.334683 -0.791667
vt 0.500000 -0.710259
vt 0.500000 -0.793989
vt 0.180648 -0.716840
vt 0.280741 -0.712847
vt 0.623766 -0.646246
vt 0.764913 -0.646354
vt 0.312500 -0.847222
vt 0.170900 -0.792708
vt -0.103355 -0.293750
vt -0.074392 -0.381513
vt 0.112500 -0.328125
vt 0.091667 -0.245833
vt 0.200564 -0.581944
vt 0.312836 -0.415082
vt 2.320052 -0.069197
vt 2.301350 -0.068990
vt 2.559237 -0.062057
vt 2.547925 -0.065391
vt -0.100000 -0.346875
vt -0.062500 -0.401563
vt 0.500000 -0.342969
vt 0.500000 -0.307813
vt 0.715625 -0.315625
vt 0.706250 -0.354688
vt 1.118750 -0.401563
vt 1.118750 -0.382813
vt 0.912500 -0.378125
vt 0.500000 -0.139975
vt 1.146875 -0.271875
vt -0.137500 -0.176786
vt 0.075000 -0.160714
vt -0.128125 -0.265290
vt 0.320750 -0.415082
vt 0.341497 -0.554000
vt 0.500000 -0.648850
vt -0.302950 -0.357670
vt -0.137500 -0.225000
vt 0.232570 -0.644444
vt 0.071422 -0.610417
vt 0.476259 0.000000
vt 0.244723 -0.001843
vt 0.722656 -0.277121
vt 0.912500 -0.348438
vt 0.290224 -0.704172
vt 0.396693 -0.707992
vt 0.075000 -0.006672
vt 0.312500 -0.354688
vt 0.500000 -0.275167
vt 0.300000 -0.315625
vt 0.287500 -0.144643
vt 0.287500 -0.192857
vt -0.128125 -0.284933
vt 0.081250 -0.281027
vt 0.100000 -0.331250
vt 0.075000 -0.101786
vt -0.137500 -0.085714
vt 0.075000 -0.192857
vt -0.137500 -0.192857
vt -0.350000 -0.192857
vt 0.613932 -0.710286
vt -0.137500 -0.218828
vt -0.128125 -0.275801
vt 0.057195 -0.006672
vt -0.112500 -0.318750
vt -0.137500 -0.275000
vt 0.946615 -0.613281
vt 1.040560 -0.507227
vt 0.500000 -0.077150
vt 0.081250 -0.248579
vt 0.290625 -0.221560
vt 0.462411 -0.097648
vt 2.043417 -1.048145
vt 2.128806 -1.035891
vt 0.287500 -0.158114
vt 0.075000 -0.188064
vt 0.075000 -0.125846
vt 0.287500 -0.091228
vt 0.490108 -0.545090
vt 0.374778 -0.647222
vt -0.261799 -0.405679
vt -0.216667 -0.466667
vt 0.290625 -0.277121
vt 0.500000 -0.072098
vt 0.287500 -0.064286
vt -0.350000 -0.085714
vt 0.112500 -0.356250
vt -0.081250 -0.375000
vt -0.137500 -0.078571
vt 1.118750 -0.375000
vt 0.490108 -0.431510
vt 0.075000 -0.084821
vt 0.500000 -0.136607
vt -0.283333 -0.383333
vt -0.316667 -0.341667
vt 0.500000 -0.206417
vt 0.125000 -0.378125
vt 0.501978 -0.389160
vt 0.640958 -0.554427
vt 2.220688 -0.878190
vt 1.712059 -0.863497
vt 1.733187 -0.780782
vt 2.240698 -0.809974
vt 0.285941 -0.274895
vt 0.253867 -0.097542
vt 0.296358 -0.337500
vt 2.547925 -0.562034
vt 2.547925 -0.630185
vt 2.287652 -0.623444
vt 2.284847 -0.562023
vt 0.096604 -0.734885
vt -0.021716 -0.645304
vt 1.090625 -0.440625
vt 0.500000 -0.838889
vt 0.699798 -0.165625
vt 0.692401 -0.293750
vt 0.681476 0.000000
vt 0.931250 -0.200000
vt 0.688445 -0.339579
vt 0.896673 -0.376135
vt 0.912500 -0.329688
vt 0.727865 -0.715712
vt 1.934974 -0.562012
vt 1.884527 -0.507319
vt 2.287652 -0.500602
vt 2.260329 -0.746288
vt 1.783634 -0.726090
vt 2.547925 -0.766487
vt 2.547925 -0.834637
vt 2.547925 -0.698336
vt 2.285553 -0.684866
vt 1.834081 -0.671397
vt 1.884527 -0.616704
vt 2.547925 -0.892882
vt 2.043463 -0.075923
vt 2.128836 -0.088183
vt 1.690930 -0.946212
vt 2.141829 -0.941389
vt 2.547925 -0.493886
vt 2.547925 -0.951127
vt 2.256989 -1.003133
vt 1.972630 -0.990027
vt 1.675084 -0.978956
vt 2.396010 -0.103787
vt 2.547925 -0.119179
vt 1.870030 -1.031385
vt 1.659238 -1.011700
vt 2.547925 -0.425737
vt 2.285553 -0.439182
vt 1.834081 -0.452627
vt 1.712059 -0.260528
vt 2.395995 -1.020308
vt 2.547925 -1.004926
vt 1.851328 -1.029922
s 1
f 1/1/1 2/1/2 3/1/3
f 875/2/4 876/2/5 872/2/6 873/2/7
f 1/1/1 3/1/3 5/1/8
f 1/1/1 5/1/8 6/1/9
f 27/1/10 28/1/11 7/1/12 25/1/13
f 6/1/9 8/1/14 7/1/12
f 6/1/9 5/1/8 8/1/14
f 5/1/8 3/1/3 9/1/15
f 785/3/16 789/4/17 783/5/18 782/6/19
f 9/1/15 3/1/3 11/1/20
f 84/1/21 85/1/22 78/1/23 77/1/24
f 10/1/25 12/1/26 13/1/27
f 76/1/28 82/1/29 83/1/30 77/1/24
f 8/1/14 14/1/31 7/1/12
f 8/1/14 15/1/32 14/1/31
f 8/1/14 16/1/33 15/1/32
f 12/1/26 17/1/34 13/1/27
f 12/1/26 11/1/20 18/1/35
f 13/1/27 19/1/36 16/1/33
f 15/1/32 16/1/33 19/1/36
f 13/1/27 17/1/34 19/1/36
f 14/1/31 15/1/32 20/1/37
f 14/1/31 20/1/37 7/1/12
f 15/1/32 21/1/38 20/1/37
f 15/1/32 19/1/36 22/1/39
f 15/1/32 23/1/40 21/1/38
f 15/1/32 22/1/39 23/1/40
f 18/1/35 11/1/20 24/1/41
f 20/1/37 25/1/13 7/1/12
f 24/1/41 11/1/20 26/1/42
f 65/1/43 70/1/44 69/1/45 66/1/46
f 11/1/20 3/1/3 29/1/47
f 778/7/48 780/8/49 777/9/50 776/10/51
f 11/1/20 30/1/52 26/1/42
f 58/1/53 66/1/46 52/1/54 51/1/55
f 739/11/56 754/12/57 734/13/58 735/14/59
f 4/1/60 34/1/61 2/1/2
f 34/1/61 3/1/3 2/1/2
f 814/15/62 914/15/63 913/16/64 815/17/65
f 34/1/61 35/1/66 3/1/3
f 29/1/47 3/1/3 36/1/67
f 30/1/52 36/1/67 37/1/68
f 32/1/69 38/1/70 31/1/71
f 918/2/72 923/2/73 141/2/74 133/2/75
f 238/18/76 246/19/77 245/20/78 244/21/79
f 35/1/66 40/1/80 3/1/3
f 36/1/67 3/1/3 41/1/81
f 848/2/82 849/2/83 842/2/84 847/2/85
f 36/1/67 42/1/86 43/1/87
f 36/1/67 44/1/88 37/1/68
f 36/1/67 43/1/87 44/1/88
f 38/1/70 45/1/89 31/1/71
f 40/1/80 46/1/90 3/1/3
f 357/22/91 378/23/92 362/24/93 358/25/94
f 41/1/81 3/1/3 47/1/95
f 42/1/86 47/1/95 48/1/96
f 65/1/43 66/1/46 58/1/53 64/1/97
f 890/2/98 892/2/99 855/2/100 848/2/82
f 46/1/90 53/1/101 3/1/3
f 48/1/96 47/1/95 54/1/102
f 47/1/95 3/1/3 55/1/103
f 793/26/104 796/27/105 790/28/106 789/4/17
f 47/1/95 57/1/107 54/1/102
f 49/1/108 50/1/109 31/1/71 45/1/89
f 104/1/110 108/1/111 105/1/112 99/1/113
f 31/1/71 50/1/109 39/1/114 33/1/115
f 53/1/101 52/1/54 60/1/116
f 53/1/101 60/1/116 3/1/3
f 55/1/103 3/1/3 61/1/117
f 55/1/103 61/1/117 56/1/118
f 56/1/118 61/1/117 62/1/119
f 58/1/53 59/1/120 63/1/121
f 58/1/53 63/1/121 64/1/97
f 27/1/10 32/1/69 31/1/71 28/1/11
f 806/29/122 808/30/123 802/31/124 801/32/125
f 60/1/116 67/1/126 3/1/3
f 62/1/119 61/1/117 68/1/127
f 7/1/12 28/1/11 4/1/60 6/1/9
f 67/1/126 71/1/128 72/1/129
f 67/1/126 72/1/129 3/1/3
f 68/1/127 61/1/117 73/1/130
f 69/1/45 70/1/44 74/1/131
f 69/1/45 74/1/131 75/1/132
f 69/1/45 75/1/132 76/1/28
f 69/1/45 76/1/28 71/1/128
f 71/1/128 76/1/28 72/1/129
f 5/1/8 9/1/15 10/1/25 8/1/14
f 72/1/129 78/1/23 3/1/3
f 73/1/130 61/1/117 79/1/133
f 75/1/132 80/1/134 76/1/28
f 74/1/131 80/1/134 75/1/132
f 74/1/131 81/1/135 80/1/134
f 76/1/28 80/1/134 82/1/29
f 783/5/18 789/4/17 790/28/106 786/33/136
f 77/1/24 83/1/30 84/1/21
f 846/2/137 847/2/85 842/2/84 845/2/138
f 78/1/23 85/1/22 3/1/3
f 61/1/117 3/1/3 86/1/139
f 61/1/117 86/1/139 79/1/133
f 79/1/133 86/1/139 87/1/140
f 86/1/139 3/1/3 87/1/140
f 79/1/133 87/1/140 88/1/141
f 81/1/135 89/1/142 80/1/134
f 82/1/29 90/1/143 83/1/30
f 82/1/29 80/1/134 90/1/143
f 80/1/134 89/1/142 91/1/144
f 80/1/134 91/1/144 90/1/143
f 83/1/30 90/1/143 92/1/145
f 83/1/30 92/1/145 84/1/21
f 84/1/21 93/1/146 85/1/22
f 88/1/141 87/1/140 94/1/147
f 87/1/140 3/1/3 95/1/148
f 87/1/140 95/1/148 96/1/149
f 87/1/140 96/1/149 97/1/150
f 87/1/140 97/1/150 94/1/147
f 93/1/146 98/1/151 85/1/22
f 56/1/118 57/1/107 47/1/95 55/1/103
f 95/1/148 3/1/3 99/1/113
f 98/1/151 101/1/152 85/1/22
f 85/1/22 101/1/152 102/1/153
f 85/1/22 103/1/154 3/1/3
f 29/1/47 36/1/67 30/1/52 11/1/20
f 99/1/113 3/1/3 104/1/110
f 41/1/81 47/1/95 42/1/86 36/1/67
f 99/1/113 105/1/112 106/1/155
f 99/1/113 107/1/156 100/1/157
f 99/1/113 106/1/155 107/1/156
f 3/1/3 108/1/111 104/1/110
f 3/1/3 103/1/154 108/1/111
f 102/1/153 109/1/158 108/1/111
f 105/1/112 108/1/111 110/1/159
f 108/1/111 111/1/160 110/1/159
f 108/1/111 109/1/158 111/1/160
f 800/34/161 807/35/162 806/29/122 801/32/125
f 115/2/163 122/2/164 121/2/165 116/2/166
f 113/2/167 116/2/166 117/2/168
f 113/2/167 117/2/168 118/2/169
f 127/2/170 128/2/171 124/2/172 123/2/173
f 118/2/169 117/2/168 119/2/174
f 116/2/166 121/2/165 117/2/168
f 125/2/175 126/2/176 121/2/165 122/2/164
f 119/2/174 117/2/168 123/2/173
f 133/2/75 134/2/177 129/2/178 130/2/179
f 113/2/167 118/2/169 114/2/180 112/2/181
f 121/2/165 126/2/176 117/2/168
f 123/2/173 117/2/168 127/2/170
f 133/2/75 141/2/74 140/2/182 134/2/177
f 126/2/176 129/2/178 117/2/168
f 119/2/174 120/2/183 114/2/180 118/2/169
f 127/2/170 117/2/168 131/2/184
f 140/2/182 141/2/74 143/2/185 139/2/186
f 894/2/187 896/2/188 863/2/189 856/2/190
f 129/2/178 134/2/177 117/2/168
f 131/2/184 117/2/168 135/2/191
f 125/2/175 130/2/179 129/2/178 126/2/176
f 117/2/168 137/2/192 135/2/191
f 117/2/168 138/2/193 137/2/192
f 117/2/168 139/2/186 138/2/193
f 117/2/168 140/2/182 139/2/186
f 117/2/168 134/2/177 140/2/182
f 138/2/193 144/2/194 142/2/195 137/2/192
f 127/2/170 131/2/184 132/2/196 128/2/171
f 135/2/191 137/2/192 142/2/195 136/2/197
f 115/2/163 116/2/166 113/2/167 112/2/181
f 135/2/191 136/2/197 132/2/196 131/2/184
f 254/36/198 253/37/199 247/38/200 249/39/201
f 542/40/202 548/41/203 543/42/204 535/43/205
f 516/44/206 590/45/207 523/46/208 517/39/209
f 207/47/210 215/48/211 214/49/212 208/50/213
f 446/51/214 453/52/215 454/9/216 450/53/217
f 454/9/216 449/54/218 448/55/219 450/53/217
f 515/56/220 520/57/221 506/58/222 508/59/223
f 509/60/224 532/61/225 515/56/220 508/59/223
f 521/62/226 522/63/227 514/64/228 520/57/221
f 437/11/229 445/65/230 444/66/231 438/67/232
f 534/68/233 553/69/234 554/70/235 549/71/236
f 534/68/233 533/72/237 515/56/220 532/61/225
f 506/58/222 520/57/221 514/64/228 507/73/238
f 515/56/220 533/72/237 521/62/226 520/57/221
f 622/74/239 623/75/240 615/76/241 621/77/242
f 558/78/243 599/79/244 591/80/245 581/81/246
f 563/82/247 564/83/248 555/76/249 554/70/235
f 541/84/250 562/85/251 561/86/252 553/69/234
f 561/86/252 563/82/247 554/70/235 553/69/234
f 341/18/253 342/87/254 322/20/255 335/19/256
f 501/88/257 503/89/258 509/60/224 508/59/223
f 223/24/259 225/45/260 217/90/261 216/25/262
f 483/91/263 547/92/264 509/60/224 503/89/258
f 359/93/265 367/73/266 366/58/267 365/94/268
f 242/95/269 256/96/270 219/97/271 241/98/272
f 377/99/273 399/100/274 385/97/275 378/23/92
f 494/101/276 502/94/277 500/93/278 495/102/279
f 474/99/280 503/89/258 501/88/257 496/103/281
f 687/104/282 689/105/283 681/106/284 680/107/285
f 546/108/286 547/92/264 483/91/263 540/109/287
f 546/108/286 562/85/251 541/84/250 547/92/264
f 570/67/288 578/66/289 577/65/290 571/11/291
f 576/51/292 578/66/289 570/67/288 569/110/293
f 492/20/294 493/19/295 475/111/296 487/112/297
f 676/113/298 684/114/299 334/115/300 675/116/301
f 494/101/276 495/102/279 488/117/302 489/118/303
f 578/66/289 584/119/304 585/120/305 577/65/290
f 187/51/306 188/110/307 179/67/308 185/66/309
f 568/121/310 569/110/293 561/86/252 562/85/251
f 560/122/311 568/121/310 562/85/251 546/108/286
f 568/121/310 575/53/312 576/51/292 569/110/293
f 180/101/313 195/118/314 190/117/315 183/102/316
f 472/123/317 489/118/303 488/117/302 482/124/318
f 533/72/237 542/40/202 535/43/205 521/62/226
f 472/123/317 482/124/318 476/125/319 471/126/320
f 539/127/321 560/122/311 546/108/286 540/109/287
f 397/128/322 414/129/323 420/130/324 418/21/325
f 574/9/326 582/52/327 576/51/292 575/53/312
f 570/67/288 563/82/247 561/86/252 569/110/293
f 551/47/328 559/54/329 556/55/330 552/50/331
f 476/125/319 477/131/332 470/132/333 471/126/320
f 613/133/334 629/134/335 621/77/242 614/135/336
f 398/91/337 424/109/338 406/136/339 399/100/274
f 530/49/340 552/50/331 539/127/321 531/137/341
f 551/47/328 552/50/331 530/49/340 545/48/342
f 905/138/343 906/139/344 839/140/345 840/141/346
f 504/36/347 524/142/348 512/128/349 505/143/350
f 470/132/333 477/131/332 478/144/351 473/145/352
f 613/133/334 614/135/336 600/146/353 606/147/354
f 387/148/355 410/149/356 393/60/357 388/59/358
f 525/150/359 545/48/342 530/49/340 526/151/360
f 466/22/361 467/25/362 459/24/363 465/152/364
f 459/24/363 467/25/362 463/90/365 458/45/366
f 462/97/367 465/152/364 459/24/363 457/96/368
f 463/90/365 464/153/369 319/44/370 458/45/366
f 218/144/371 227/145/372 228/154/373
f 218/144/371 228/154/373 229/155/374
f 525/150/359 526/151/360 490/130/375 519/156/376
f 470/132/333 473/145/352 309/157/377 464/153/369
f 319/44/370 464/153/369 309/157/377 316/158/378
f 227/145/372 233/157/379 228/154/373
f 666/159/380 673/160/381 672/161/382 667/162/383
f 506/58/222 507/73/238 500/93/278 502/94/277
f 228/154/373 233/157/379 235/163/384
f 228/154/373 236/164/385 229/155/374
f 228/154/373 235/163/384 236/164/385
f 221/150/386 230/151/387 214/49/212 215/48/211
f 490/130/375 526/151/360 484/165/388 485/129/389
f 620/117/390 628/102/391 612/101/392 611/118/393
f 757/166/394 758/143/395 753/36/396 752/167/397
f 233/157/379 239/168/398 235/163/384
f 235/163/384 239/168/398 236/164/385
f 233/157/379 240/158/399 239/168/398
f 456/95/400 485/129/389 484/165/388 481/169/401
f 456/95/400 481/169/401 462/97/367 457/96/368
f 497/18/402 491/21/403 468/20/404 493/19/295
f 240/158/399 247/38/200 239/168/398
f 315/38/405 332/39/406 319/44/370 316/158/378
f 239/168/398 247/38/200 248/170/407
f 239/168/398 248/170/407 236/164/385
f 322/20/255 320/143/408 307/171/409 321/112/410
f 468/20/404 491/21/403 461/128/411 460/143/412
f 763/130/413 772/156/414 769/18/415 764/21/416
f 741/172/417 762/173/418 755/174/419 750/175/420
f 247/38/200 252/176/421 248/170/407
f 248/170/407 252/176/421 236/164/385
f 247/38/200 253/37/199 252/176/421
f 331/36/422 332/39/406 315/38/405 325/37/423
f 501/88/257 508/59/223 506/58/222 502/94/277
f 583/177/424 592/178/425 584/119/304 582/52/327
f 456/95/400 457/96/368 339/46/426 455/142/427
f 251/111/428 258/179/429 257/112/430
f 258/179/429 259/180/431 236/164/385
f 251/111/428 259/180/431 258/179/429
f 257/112/430 258/179/429 260/171/432
f 310/171/433 460/143/412 331/36/422 325/37/423
f 310/171/433 469/112/434 468/20/404 460/143/412
f 253/37/199 260/171/432 252/176/421
f 258/179/429 236/164/385 261/181/435
f 252/176/421 261/181/435 236/164/385
f 252/176/421 260/171/432 261/181/435
f 258/179/429 261/181/435 260/171/432
f 236/164/436 263/168/437 264/170/438
f 236/164/436 265/163/439 263/168/437
f 236/164/440 266/179/441 267/180/442
f 236/164/440 268/181/443 266/179/441
f 236/164/444 269/168/445 270/170/446
f 236/164/444 271/163/447 269/168/445
f 236/164/440 272/154/448 273/155/449
f 236/164/440 274/163/450 272/154/448
f 236/164/444 275/154/451 276/155/452
f 236/164/444 277/163/453 275/154/451
f 236/164/436 264/170/438 278/176/454
f 236/164/436 278/176/454 279/181/455
f 236/164/440 280/179/456 281/181/457
f 236/164/440 282/180/458 280/179/456
f 236/164/444 270/170/446 283/176/459
f 236/164/444 283/176/459 284/181/460
f 236/164/440 273/155/449 285/154/461
f 236/164/440 285/154/461 286/163/462
f 236/164/444 287/179/463 288/181/464
f 236/164/444 289/180/465 287/179/463
f 236/164/444 284/181/460 290/179/466
f 236/164/444 290/179/466 289/180/465
f 236/164/440 291/176/467 268/181/443
f 236/164/440 292/170/468 291/176/467
f 236/164/440 286/163/462 293/168/469
f 236/164/440 293/168/469 292/170/468
f 236/164/444 294/154/470 271/163/447
f 236/164/444 295/155/471 294/154/470
f 236/164/436 279/181/455 296/179/472
f 236/164/436 296/179/472 297/180/473
f 236/164/440 298/168/474 274/163/450
f 236/164/440 299/170/475 298/168/474
f 236/164/440 281/181/457 300/176/476
f 236/164/440 300/176/476 299/170/475
f 236/164/436 301/154/477 265/163/439
f 236/164/436 302/155/478 301/154/477
f 236/164/444 303/168/479 277/163/453
f 236/164/444 304/170/480 303/168/479
f 236/164/444 288/181/464 305/176/481
f 236/164/444 305/176/481 304/170/480
f 274/163/450 306/182/482 272/154/448
f 274/163/450 298/168/474 306/182/482
f 281/181/457 307/171/409 300/176/476
f 281/181/457 280/179/456 307/171/409
f 302/155/478 308/144/483 301/154/477
f 277/163/453 303/168/479 309/157/377
f 277/163/453 309/157/377 275/154/451
f 288/181/464 287/179/463 310/171/433
f 288/181/464 310/171/433 305/176/481
f 300/176/476 307/171/409 311/37/484
f 300/176/476 311/37/484 312/183/485
f 300/176/476 312/183/485 299/170/475
f 299/170/475 312/183/485 298/168/474
f 301/154/477 308/144/483 313/145/486
f 301/154/477 314/157/487 265/163/439
f 265/163/439 314/157/487 263/168/437
f 301/154/477 313/145/486 314/157/487
f 303/168/479 304/170/480 315/38/405
f 304/170/480 305/176/481 315/38/405
f 303/168/479 316/158/378 309/157/377
f 303/168/479 315/38/405 316/158/378
f 753/36/396 758/143/395 748/171/488 747/37/489
f 734/13/58 742/184/490 727/185/491 731/186/492
f 871/2/493 897/2/494 895/2/495 867/2/496
f 466/22/361 489/118/303 472/123/317 467/25/362
f 146/187/497 151/188/498 147/189/499 145/42/500
f 383/36/501 403/143/502 392/171/503 384/37/504
f 307/171/409 280/179/456 321/112/410
f 765/20/505 759/112/506 748/171/488 758/143/395
f 298/168/474 312/183/485 323/190/507
f 298/168/474 323/190/507 306/182/482
f 305/176/481 325/37/423 315/38/405
f 305/176/481 310/171/433 325/37/423
f 413/165/508 433/137/509 434/49/510 426/151/511
f 706/191/512 707/192/513 306/182/482 699/193/514
f 280/179/456 282/180/458 327/111/515
f 280/179/456 327/111/515 321/112/410
f 670/194/516 673/160/381 666/159/380 665/195/517
f 558/78/243 581/81/246 574/9/326 567/196/518
f 729/197/519 730/198/520 726/199/521 728/200/522
f 765/20/505 758/143/395 757/166/394 764/21/416
f 226/44/523 240/158/399 233/157/379 224/153/524
f 180/101/313 183/102/316 174/93/525 173/94/526
f 745/201/527 752/167/397 753/36/396 746/202/528
f 698/203/529 706/191/512 699/193/514 683/204/530
f 518/130/531 519/156/376 497/18/402 513/21/532
f 234/46/533 249/39/201 226/44/523 225/45/260
f 234/46/533 255/142/534 254/36/198 249/39/201
f 757/166/394 752/167/397 751/205/535 756/206/536
f 362/24/93 386/96/537 369/46/538 363/45/539
f 769/18/415 766/19/540 765/20/505 764/21/416
f 716/191/541 718/207/542 711/144/543 710/208/544
f 609/123/545 627/124/546 620/117/390 611/118/393
f 685/209/547 686/210/548 677/211/549 678/212/550
f 865/2/551 867/2/496 861/2/552 860/2/553
f 330/125/554 338/124/555 337/123/556 336/126/557
f 681/106/284 682/213/558 676/113/298 674/214/559
f 755/174/419 770/151/560 763/130/413 756/206/536
f 915/2/561 918/2/72 133/2/75 130/2/179
f 771/150/562 772/156/414 763/130/413 770/151/560
f 504/36/347 505/143/350 486/171/563 499/37/564
f 817/215/565 911/216/566 910/217/567 818/218/568
f 314/157/487 356/158/569 263/168/437
f 537/165/570 565/137/571 544/49/572 538/151/573
f 512/128/349 529/129/574 518/130/531 513/21/532
f 635/93/575 640/73/576 639/219/577 636/220/578
f 192/120/579 193/119/580 185/66/309 186/65/581
f 594/221/582 626/222/583 602/223/584 596/224/585
f 528/95/586 573/169/587 537/165/570 529/129/574
f 528/95/586 529/129/574 512/128/349 524/142/348
f 263/168/437 364/38/588 264/170/438
f 498/38/589 517/39/209 504/36/347 499/37/564
f 356/158/569 364/38/588 263/168/437
f 264/170/438 364/38/588 278/176/454
f 558/78/243 559/54/329 551/47/328 557/225/590
f 773/47/591 774/48/592 768/49/593 767/226/594
f 196/123/595 209/126/596 202/125/597 197/124/598
f 523/46/208 579/96/599 528/95/586 524/142/348
f 566/227/600 599/79/244 558/78/243 557/225/590
f 198/52/601 205/9/602 201/53/603 187/51/306
f 171/86/604 191/85/605 163/84/606 162/228/607
f 761/229/608 775/54/609 773/47/591 767/226/594
f 205/9/602 206/54/610 200/55/611 201/53/603
f 765/20/505 766/19/540 760/111/612 759/112/506
f 380/230/613 402/231/614 387/148/355 379/232/615
f 761/229/608 776/10/51 777/9/50 775/54/609
f 355/44/616 376/39/617 364/38/588 356/158/569
f 722/233/618 736/234/619 723/213/620 720/106/621
f 364/38/588 384/37/504 278/176/454
f 751/205/535 752/167/397 745/201/527 744/235/622
f 580/97/623 588/100/624 572/136/625 573/169/587
f 591/80/245 606/147/354 583/177/424 581/81/246
f 693/64/626 691/236/627 685/209/547 688/237/628
f 339/46/426 458/45/366 319/44/370 332/39/406
f 523/46/208 590/45/207 586/24/629 579/96/599
f 723/213/620 732/238/630 705/239/631 724/105/632
f 278/176/454 392/171/503 279/181/455
f 510/157/633 597/153/634 516/44/206 511/158/635
f 384/37/504 392/171/503 278/176/454
f 279/181/455 392/171/503 296/179/472
f 664/240/636 671/241/637 670/194/516 665/195/517
f 602/223/584 634/242/638 591/80/245 599/79/244
f 592/178/425 593/65/639 585/120/305 584/119/304
f 516/44/206 597/153/634 598/90/640 590/45/207
f 598/90/640 605/25/641 586/24/629 590/45/207
f 749/243/642 762/173/418 741/172/417 742/184/490
f 583/177/424 606/147/354 600/146/353 592/178/425
f 725/244/643 738/245/644 729/197/519 728/200/522
f 761/229/608 767/226/594 749/243/642 754/12/57
f 296/179/472 392/171/503 404/112/645
f 296/179/472 405/111/646 297/180/473
f 296/179/472 404/112/645 405/111/646
f 670/194/516 671/241/637 679/246/647 678/212/550
f 587/99/648 619/247/649 594/221/582 588/100/624
f 591/80/245 634/242/638 613/133/334 606/147/354
f 705/239/631 732/238/630 725/244/643 717/203/650
f 844/2/651 853/2/652 852/2/653 845/2/138
f 603/132/654 617/126/655 598/90/640 597/153/634
f 501/88/257 502/94/277 494/101/276 496/103/281
f 219/97/271 256/96/270 223/24/259 220/23/656
f 595/22/657 610/103/658 587/99/648 589/152/659
f 600/146/353 614/135/336 607/83/660 601/11/661
f 613/133/334 634/242/638 633/248/662 629/134/335
f 633/248/662 634/242/638 602/223/584 626/222/583
f 237/165/663 243/129/664 242/95/269 241/98/272
f 598/90/640 617/126/655 609/123/545 605/25/641
f 609/123/545 611/118/393 595/22/657 605/25/641
f 624/125/665 627/124/546 609/123/545 617/126/655
f 614/135/336 621/77/242 615/76/241 607/83/660
f 625/249/666 626/222/583 594/221/582 619/247/649
f 547/92/264 541/84/250 532/61/225 509/60/224
f 602/223/584 599/79/244 566/227/600 596/224/585
f 583/177/424 582/52/327 574/9/326 581/81/246
f 409/250/667 410/149/356 387/148/355 402/231/614
f 423/108/668 424/109/338 398/91/337 417/92/669
f 187/51/306 201/53/603 194/121/670 188/110/307
f 350/101/671 371/103/672 357/22/91 349/118/673
f 595/22/657 611/118/393 612/101/392 610/103/658
f 745/201/527 746/202/528 729/197/519 738/245/644
f 630/251/674 622/74/239 621/77/242 629/134/335
f 639/219/577 646/252/675 644/253/676 641/254/677
f 631/255/678 632/41/679 623/75/240 622/74/239
f 203/127/680 204/109/681 184/108/682 199/122/683
f 178/11/684 186/65/581 185/66/309 179/67/308
f 570/67/288 571/11/291 564/83/248 563/82/247
f 534/68/233 549/71/236 542/40/202 533/72/237
f 631/255/678 642/256/685 637/42/686 632/41/679
f 631/255/678 649/257/687 648/258/688 642/256/685
f 437/11/229 438/67/232 429/82/689 430/83/690
f 635/93/575 636/220/578 612/101/392 628/102/391
f 544/49/572 565/137/571 566/227/600 557/225/590
f 176/91/691 177/89/692 167/60/693 175/92/694
f 549/71/236 554/70/235 555/76/249 550/75/695
f 550/75/695 548/41/203 542/40/202 549/71/236
f 645/64/696 650/259/697 648/258/688 646/252/675
f 645/64/696 646/252/675 639/219/577 640/73/576
f 234/46/533 256/96/270 242/95/269 255/142/534
f 223/24/259 256/96/270 234/46/533 225/45/260
f 250/128/698 262/143/699 254/36/198 255/142/534
f 250/128/698 255/142/534 242/95/269 243/129/664
f 572/136/625 596/224/585 566/227/600 565/137/571
f 492/20/294 513/21/532 497/18/402 493/19/295
f 518/130/531 538/151/573 525/150/359 519/156/376
f 461/128/411 485/129/389 456/95/400 455/142/427
f 624/125/665 617/126/655 603/132/654 616/131/700
f 334/115/300 329/202/701 317/36/702 333/260/703
f 852/2/653 854/2/704 846/2/137 845/2/138
f 310/171/433 287/179/463 469/112/434
f 355/44/616 356/158/569 314/157/487 348/153/705
f 217/90/261 224/153/524 210/132/706 209/126/596
f 217/90/261 209/126/596 196/123/595 216/25/262
f 189/22/707 216/25/262 196/123/595 195/118/314
f 309/157/377 473/145/352 275/154/451
f 219/97/271 220/23/656 182/99/708 213/100/709
f 182/99/708 220/23/656 189/22/707 181/103/710
f 287/179/463 289/180/465 475/111/296
f 287/179/463 475/111/296 469/112/434
f 251/111/428 257/112/430 245/20/78 246/19/77
f 289/180/465 290/179/466 475/111/296
f 463/90/365 471/126/320 470/132/333 464/153/369
f 510/157/633 604/145/711 603/132/654 597/153/634
f 486/171/563 505/143/350 492/20/294 487/112/297
f 473/145/352 478/144/351 275/154/451
f 275/154/451 478/144/351 276/155/452
f 212/136/712 241/98/272 219/97/271 213/100/709
f 212/136/712 213/100/709 176/91/691 204/109/681
f 176/91/691 213/100/709 182/99/708 177/89/692
f 331/36/422 460/143/412 461/128/411 455/142/427
f 237/165/663 241/98/272 212/136/712 222/137/713
f 284/181/460 283/176/459 486/171/563
f 290/179/466 284/181/460 486/171/563
f 290/179/466 487/112/297 475/111/296
f 290/179/466 486/171/563 487/112/297
f 497/18/402 519/156/376 490/130/375 491/21/403
f 231/130/714 244/21/79 250/128/698 243/129/664
f 159/64/715 156/63/716 150/261/717 158/262/718
f 308/144/483 324/131/719 318/132/720 313/145/486
f 318/132/720 348/153/705 314/157/487 313/145/486
f 245/20/78 262/143/699 250/128/698 244/21/79
f 189/22/707 195/118/314 180/101/313 181/103/710
f 196/123/595 197/124/598 190/117/315 195/118/314
f 238/18/76 244/21/79 231/130/714 232/156/721
f 330/125/554 336/126/557 318/132/720 324/131/719
f 283/176/459 270/170/446 498/38/589
f 270/170/446 269/168/445 498/38/589
f 283/176/459 499/37/564 486/171/563
f 283/176/459 498/38/589 499/37/564
f 537/165/570 573/169/587 572/136/625 565/137/571
f 708/263/722 712/212/723 700/264/724 702/265/725
f 172/88/726 181/103/710 180/101/313 173/94/526
f 346/266/727 354/267/728 352/173/729 345/174/730
f 35/1/66 34/1/61 4/1/60 33/1/115
f 165/58/731 173/94/526 174/93/525 168/73/732
f 172/88/726 173/94/526 165/58/731 166/59/733
f 366/58/267 388/59/358 370/88/734 365/94/268
f 167/60/693 177/89/692 172/88/726 166/59/733
f 271/163/447 294/154/470 510/157/633
f 269/168/445 271/163/447 510/157/633
f 269/168/445 511/158/635 498/38/589
f 269/168/445 510/157/633 511/158/635
f 343/90/735 363/45/539 355/44/616 348/153/705
f 343/90/735 348/153/705 318/132/720 336/126/557
f 160/76/736 170/83/737 169/82/738 161/268/739
f 167/60/693 166/59/733 157/269/740 164/270/741
f 157/269/740 166/59/733 165/58/731 158/262/718
f 328/197/742 699/193/514 306/182/482 323/190/507
f 383/36/501 384/37/504 364/38/588 376/39/617
f 521/62/226 535/43/205 527/188/743 522/63/227
f 337/123/556 358/25/94 343/90/735 336/126/557
f 719/271/744 735/14/59 734/13/58 731/186/492
f 544/49/572 557/225/590 551/47/328 545/48/342
f 369/46/538 376/39/617 355/44/616 363/45/539
f 369/46/538 391/142/745 383/36/501 376/39/617
f 210/132/706 227/145/372 218/144/371 211/131/746
f 344/117/747 349/118/673 337/123/556 338/124/555
f 150/261/717 156/63/716 151/188/498 146/187/497
f 844/2/651 845/2/138 842/2/84 841/2/748
f 233/157/379 227/145/372 210/132/706 224/153/524
f 906/139/344 907/272/749 836/273/750 839/140/345
f 237/165/663 222/137/713 214/49/212 230/151/387
f 154/274/751 164/270/741 157/269/740 155/275/752
f 556/55/330 560/122/311 539/127/321 552/50/331
f 357/22/91 358/25/94 337/123/556 349/118/673
f 899/2/753 874/2/754 877/2/755 900/2/756
f 353/150/757 354/267/728 346/266/727 347/156/758
f 203/127/680 222/137/713 212/136/712 204/109/681
f 163/84/606 175/92/694 167/60/693 164/270/741
f 163/84/606 164/270/741 154/274/751 162/228/607
f 154/274/751 155/275/752 149/276/759 153/277/760
f 149/276/759 155/275/752 150/261/717 146/187/497
f 446/51/214 442/110/761 438/67/232 444/66/231
f 743/278/762 744/235/622 737/279/763 736/234/619
f 344/117/747 351/102/764 350/101/671 349/118/673
f 692/280/765 694/281/766 687/104/282 686/210/548
f 644/253/676 649/257/687 630/251/674 638/282/767
f 422/76/768 428/283/769 421/284/770 415/75/771
f 152/75/772 153/277/760 149/276/759 148/41/773
f 584/119/304 578/66/289 576/51/292 582/52/327
f 359/93/265 365/94/268 350/101/671 351/102/764
f 163/84/606 191/85/605 184/108/682 175/92/694
f 160/76/736 161/268/739 153/277/760 152/75/772
f 530/49/340 531/137/341 484/165/388 526/151/360
f 200/55/611 208/50/213 203/127/680 199/122/683
f 768/49/593 762/173/418 749/243/642 767/226/594
f 695/117/774 689/105/283 687/104/282 694/281/766
f 184/108/682 204/109/681 176/91/691 175/92/694
f 648/258/688 650/259/697 647/285/775 642/256/685
f 370/88/734 371/103/672 350/101/671 365/94/268
f 372/64/776 379/232/615 366/58/267 367/73/266
f 559/54/329 558/78/243 567/196/518
f 559/54/329 567/196/518 556/55/330
f 194/121/670 201/53/603 200/55/611 199/122/683
f 633/248/662 638/282/767 630/251/674 629/134/335
f 483/91/263 503/89/258 474/99/280 479/100/777
f 179/67/308 188/110/307 171/86/604 169/82/738
f 178/11/684 179/67/308 169/82/738 170/83/737
f 377/99/273 378/23/92 357/22/91 371/103/672
f 370/88/734 394/89/778 377/99/273 371/103/672
f 917/2/779 918/2/72 915/2/561 916/2/780
f 254/36/198 262/143/699 260/171/432 253/37/199
f 715/286/781 720/106/621 704/104/782 709/287/783
f 413/165/508 426/151/511 420/130/324 414/129/323
f 630/251/674 649/257/687 631/255/678 622/74/239
f 600/146/353 601/11/661 593/65/639 592/178/425
f 226/44/523 249/39/201 247/38/200 240/158/399
f 385/97/275 386/96/537 362/24/93 378/23/92
f 372/64/776 381/259/784 380/230/613 379/232/615
f 193/119/580 198/52/601 187/51/306 185/66/309
f 389/285/785 395/288/786 380/230/613 381/259/784
f 368/47/787 375/54/788 374/229/789 373/289/790
f 385/97/275 407/98/791 390/95/792 386/96/537
f 737/279/763 738/245/644 725/244/643 732/238/630
f 406/136/339 407/98/791 385/97/275 399/100/274
f 743/278/762 736/234/619 722/233/618 740/290/793
f 387/148/355 388/59/358 366/58/267 379/232/615
f 462/97/367 479/100/777 474/99/280 465/152/364
f 398/91/337 399/100/274 377/99/273 394/89/778
f 480/136/794 540/109/287 483/91/263 479/100/777
f 727/185/491 742/184/490 741/172/417 740/290/793
f 413/165/508 414/129/323 390/95/792 407/98/791
f 768/49/593 774/48/592 771/150/562 770/151/560
f 586/24/629 605/25/641 595/22/657 589/152/659
f 401/291/795 402/231/614 380/230/613 395/288/786
f 400/42/796 408/41/797 401/291/795 395/288/786
f 393/60/357 394/89/778 370/88/734 388/59/358
f 393/60/357 417/92/669 398/91/337 394/89/778
f 484/165/388 531/137/341 480/136/794 481/169/401
f 535/43/205 543/42/204 536/189/798 527/188/743
f 411/20/799 404/112/645 392/171/503 403/143/502
f 510/157/633 294/154/470 604/145/711
f 157/269/740 158/262/718 150/261/717 155/275/752
f 411/20/799 412/19/800 405/111/646 404/112/645
f 604/145/711 294/154/470 608/144/801
f 294/154/470 295/155/471 608/144/801
f 207/47/210 208/50/213 200/55/611 206/54/610
f 214/49/212 222/137/713 203/127/680 208/50/213
f 861/2/552 893/2/802 891/2/803 854/2/704
f 625/249/666 638/282/767 633/248/662 626/222/583
f 401/291/795 421/284/770 409/250/667 402/231/614
f 644/253/676 638/282/767 625/249/666 641/254/677
f 432/127/804 440/50/805 434/49/510 433/137/509
f 432/127/804 433/137/509 406/136/339 424/109/338
f 434/49/510 435/48/806 427/150/807 426/151/511
f 420/130/324 426/151/511 427/150/807 425/156/808
f 428/283/769 431/292/809 409/250/667 421/284/770
f 422/76/768 430/83/690 429/82/689 428/283/769
f 419/18/810 412/19/800 411/20/799 418/21/325
f 859/2/811 866/2/812 865/2/551 860/2/553
f 423/108/668 447/122/813 432/127/804 424/109/338
f 194/121/670 199/122/683 184/108/682 191/85/605
f 700/264/724 709/287/783 703/293/814 701/294/815
f 149/276/759 146/187/497 145/42/500 148/41/773
f 438/67/232 442/110/761 436/86/816 429/82/689
f 416/295/817 439/85/818 423/108/668 417/92/669
f 544/49/572 545/48/342 525/150/359 538/151/573
f 436/86/816 439/85/818 416/295/817 431/292/809
f 165/58/731 168/73/732 159/64/715 158/262/718
f 434/49/510 440/50/805 441/47/819 435/48/806
f 409/250/667 431/292/809 416/295/817 410/149/356
f 448/55/219 449/54/218 441/47/819 440/50/805
f 447/122/813 448/55/219 440/50/805 432/127/804
f 451/120/820 452/119/821 444/66/231 445/65/230
f 443/121/822 447/122/813 423/108/668 439/85/818
f 436/86/816 442/110/761 443/121/822 439/85/818
f 443/121/822 450/53/217 448/55/219 447/122/813
f 618/296/823 641/254/677 625/249/666 619/247/649
f 452/119/821 453/52/215 446/51/214 444/66/231
f 541/84/250 553/69/234 534/68/233 532/61/225
f 648/258/688 649/257/687 644/253/676 646/252/675
f 446/51/214 450/53/217 443/121/822 442/110/761
f 668/297/824 675/116/301 340/298/825 669/172/826
f 416/295/817 417/92/669 393/60/357 410/149/356
f 415/75/771 421/284/770 401/291/795 408/41/797
f 651/10/827 655/7/828 652/11/829
f 825/299/830 826/300/831 822/301/832 823/302/833
f 652/11/829 655/7/828 657/65/834
f 189/22/707 220/23/656 223/24/259 216/25/262
f 52/1/54 53/1/101 46/1/90 51/1/55
f 512/128/349 513/21/532 492/20/294 505/143/350
f 466/22/361 496/103/281 494/101/276 489/118/303
f 655/7/828 656/8/835 663/120/836
f 655/7/828 663/120/836 657/65/834
f 475/111/296 493/19/295 468/20/404 469/112/434
f 396/189/837 400/42/796 395/288/786 389/285/785
f 537/165/570 538/151/573 518/130/531 529/129/574
f 741/172/417 750/175/420 743/278/762 740/290/793
f 751/205/535 744/235/622 743/278/762 750/175/420
f 719/271/744 731/186/492 713/303/838 714/304/839
f 713/303/838 731/186/492 727/185/491 721/305/840
f 618/296/823 619/247/649 587/99/648 610/103/658
f 727/185/491 740/290/793 722/233/618 721/305/840
f 737/279/763 744/235/622 745/201/527 738/245/644
f 406/136/339 433/137/509 413/165/508 407/98/791
f 797/306/841 804/307/842 803/308/843 798/309/844
f 722/233/618 720/106/621 715/286/781 721/305/840
f 708/263/722 714/304/839 713/303/838 712/212/723
f 723/213/620 736/234/619 737/279/763 732/238/630
f 397/128/322 403/143/502 383/36/501 391/142/745
f 697/310/845 710/208/544 706/191/512 698/203/529
f 734/13/58 754/12/57 749/243/642 742/184/490
f 709/287/783 700/264/724 712/212/723 715/286/781
f 639/219/577 641/254/677 618/296/823 636/220/578
f 723/213/620 724/105/632 704/104/782 720/106/621
f 194/121/670 191/85/605 171/86/604 188/110/307
f 586/24/629 589/152/659 580/97/623 579/96/599
f 768/49/593 770/151/560 755/174/419 762/173/418
f 539/127/321 540/109/287 480/136/794 531/137/341
f 703/293/814 709/287/783 704/104/782 694/281/766
f 693/64/846 702/265/725 700/264/724 701/294/815
f 704/104/782 724/105/632 695/117/774 694/281/766
f 724/105/632 705/239/631 696/311/847 695/117/774
f 705/239/631 717/203/650 697/310/845 696/311/847
f 161/268/739 162/228/607 154/274/751 153/277/760
f 692/280/765 686/210/548 685/209/547 691/236/627
f 436/86/816 431/292/809 428/283/769 429/82/689
f 182/99/708 181/103/710 172/88/726 177/89/692
f 462/97/367 481/169/401 480/136/794 479/100/777
f 697/310/845 698/203/529 690/239/848 696/311/847
f 725/244/643 728/200/522 716/191/541 717/203/650
f 716/191/541 728/200/522 726/199/521 718/207/542
f 697/310/845 717/203/650 716/191/541 710/208/544
f 306/182/482 707/192/513 272/154/448
f 679/246/647 688/237/628 685/209/547 678/212/550
f 516/44/206 517/39/209 498/38/589 511/158/635
f 707/192/513 711/144/543 272/154/448
f 272/154/448 711/144/543 273/155/449
f 273/155/449 711/144/543 285/154/461
f 695/117/774 696/311/847 690/239/848 689/105/283
f 226/44/523 224/153/524 217/90/261 225/45/260
f 687/104/282 680/107/285 677/211/549 686/210/548
f 670/194/516 678/212/550 677/211/549 673/160/381
f 711/144/543 707/192/513 706/191/512 710/208/544
f 474/99/280 496/103/281 466/22/361 465/152/364
f 711/144/543 718/207/542 285/154/461
f 390/95/792 414/129/323 397/128/322 391/142/745
f 382/9/849 651/10/827 374/229/789 375/54/788
f 368/47/787 373/289/790 360/312/850 361/48/851
f 681/106/284 674/214/559 672/161/382 680/107/285
f 681/106/284 689/105/283 690/239/848 682/213/558
f 690/239/848 698/203/529 683/204/530 682/213/558
f 556/55/330 575/53/312 568/121/310 560/122/311
f 523/46/208 524/142/348 504/36/347 517/39/209
f 285/154/461 718/207/542 726/199/521
f 285/154/461 726/199/521 286/163/462
f 726/199/521 293/168/469 286/163/462
f 713/303/838 721/305/840 715/286/781 712/212/723
f 420/130/324 425/156/808 419/18/810 418/21/325
f 739/11/56 776/10/51 761/229/608 754/12/57
f 683/204/530 699/193/514 328/197/742 684/114/299
f 726/199/521 730/198/520 293/168/469
f 312/183/485 329/202/701 328/197/742 323/190/507
f 730/198/520 733/313/852 293/168/469
f 293/168/469 733/313/852 292/170/468
f 292/170/468 733/313/852 291/176/467
f 658/314/853 665/195/517 666/159/380 660/315/854
f 664/240/636 665/195/517 658/314/853 659/316/855
f 683/204/530 684/114/299 676/113/298 682/213/558
f 580/97/623 589/152/659 587/99/648 588/100/624
f 652/11/829 659/316/855 658/314/853 653/317/856
f 666/159/380 667/162/383 661/318/857 660/315/854
f 672/161/382 674/214/559 668/297/824 667/162/383
f 676/113/298 675/116/301 668/297/824 674/214/559
f 729/197/519 746/202/528 733/313/852 730/198/520
f 334/115/300 684/114/299 328/197/742 329/202/701
f 612/101/392 636/220/578 618/296/823 610/103/658
f 291/176/467 733/313/852 747/37/489
f 291/176/467 748/171/488 268/181/443
f 291/176/467 747/37/489 748/171/488
f 268/181/443 748/171/488 266/179/441
f 661/318/857 662/319/858 654/320/859 660/315/854
f 658/314/853 660/315/854 654/320/859 653/317/856
f 528/95/586 579/96/599 580/97/623 573/169/587
f 340/298/825 675/116/301 334/115/300 333/260/703
f 317/36/702 329/202/701 312/183/485 311/37/484
f 922/2/860 921/2/861 136/2/197 142/2/195
f 461/128/411 491/21/403 490/130/375 485/129/389
f 352/173/729 669/172/826 340/298/825 345/174/730
f 661/318/857 669/172/826 352/173/729 662/319/858
f 260/171/432 262/143/699 245/20/78 257/112/430
f 326/321/862 333/260/703 317/36/702 320/143/408
f 266/179/441 748/171/488 759/112/506
f 266/179/441 760/111/612 267/180/442
f 266/179/441 759/112/506 760/111/612
f 652/11/829 653/317/856 374/229/789 651/10/827
f 654/320/859 373/289/790 374/229/789 653/317/856
f 668/297/824 669/172/826 661/318/857 667/162/383
f 326/321/862 342/87/254 346/266/727 345/174/730
f 322/20/255 342/87/254 326/321/862 320/143/408
f 463/90/365 467/25/362 472/123/317 471/126/320
f 327/111/515 335/19/256 322/20/255 321/112/410
f 654/320/859 662/319/858 360/312/850 373/289/790
f 360/312/850 662/319/858 352/173/729 354/267/728
f 341/18/253 347/156/758 346/266/727 342/87/254
f 594/221/582 596/224/585 572/136/625 588/100/624
f 677/211/549 680/107/285 672/161/382 673/160/381
f 353/150/757 361/48/851 360/312/850 354/267/728
f 161/268/739 169/82/738 171/86/604 162/228/607
f 390/95/792 391/142/745 369/46/538 386/96/537
f 799/322/863 792/323/864 791/324/865 798/309/844
f 382/9/849 656/8/835 655/7/828 651/10/827
f 739/11/56 778/7/48 776/10/51
f 739/11/56 779/65/866 778/7/48
f 778/7/48 781/120/867 780/8/49
f 778/7/48 779/65/866 781/120/867
f 52/1/54 71/1/128 67/1/126 60/1/116
f 819/325/868 823/302/833 822/301/832 820/326/869
f 31/1/71 33/1/115 4/1/60 28/1/11
f 819/325/868 821/327/870 824/328/871 823/302/833
f 813/329/872 812/330/873 803/308/843 804/307/842
f 803/308/843 812/330/873 811/331/874 805/332/875
f 824/328/871 827/333/876 825/299/830 823/302/833
f 13/1/27 16/1/33 8/1/14 10/1/25
f 815/17/65 913/16/64 912/334/877 816/335/878
f 803/308/843 805/332/875 799/322/863 798/309/844
f 830/336/879 826/300/831 825/299/830 829/337/880
f 793/26/104 802/31/124 796/27/105
f 793/26/104 801/32/125 802/31/124
f 797/306/841 798/309/844 791/324/865 795/338/881
f 397/128/322 418/21/325 411/20/799 403/143/502
f 828/339/882 832/340/883 831/341/884 829/337/880
f 831/341/884 835/342/885 830/336/879 829/337/880
f 802/31/124 808/30/123 809/343/886
f 802/31/124 809/343/886 810/344/887
f 814/15/62 815/17/65 806/29/122 807/35/162
f 896/2/188 898/2/888 868/2/889 863/2/189
f 831/341/884 837/345/890 838/346/891 835/342/885
f 755/174/419 756/206/536 751/205/535 750/175/420
f 808/30/123 816/335/878 809/343/886
f 809/343/886 816/335/878 817/215/565
f 809/343/886 818/218/568 810/344/887
f 809/343/886 817/215/565 818/218/568
f 787/347/892 788/348/893 783/5/18 786/33/136
f 783/5/18 788/348/893 784/349/894 782/6/19
f 813/329/872 821/327/870 819/325/868 812/330/873
f 850/2/895 857/2/896 858/2/897 851/2/898
f 785/3/16 794/350/899 793/26/104 789/4/17
f 69/1/45 71/1/128 52/1/54 66/1/46
f 825/299/830 827/333/876 828/339/882
f 825/299/830 828/339/882 829/337/880
f 102/1/153 108/1/111 103/1/154 85/1/22
f 119/2/174 123/2/173 124/2/172 120/2/183
f 1/1/1 6/1/9 4/1/60 2/1/2
f 828/339/882 833/351/900 832/340/883
f 828/339/882 834/352/901 833/351/900
f 832/340/883 833/351/900 836/273/750
f 806/29/122 815/17/65 816/335/878 808/30/123
f 362/24/93 363/45/539 343/90/735 358/25/94
f 833/351/900 839/140/345 836/273/750
f 833/351/900 840/141/346 839/140/345
f 833/351/900 834/352/901 840/141/346
f 787/347/892 795/338/881 791/324/865 788/348/893
f 869/2/902 873/2/7 872/2/6 870/2/903
f 872/2/6 874/2/754 871/2/493 870/2/903
f 877/2/755 874/2/754 872/2/6 876/2/5
f 848/2/82 850/2/895 849/2/83
f 800/34/161 801/32/125 793/26/104 794/350/899
f 865/2/551 870/2/903 871/2/493 867/2/496
f 869/2/902 870/2/903 865/2/551 866/2/812
f 848/2/82 855/2/100 850/2/895
f 850/2/895 855/2/100 856/2/190
f 850/2/895 856/2/190 857/2/896
f 881/2/904 882/2/905 878/2/906 879/2/907
f 331/36/422 455/142/427 339/46/426 332/39/406
f 753/36/396 747/37/489 733/313/852 746/202/528
f 857/2/896 862/2/908 858/2/897
f 856/2/190 862/2/908 857/2/896
f 856/2/190 863/2/189 862/2/908
f 858/2/897 862/2/908 864/2/909
f 852/2/653 860/2/553 861/2/552 854/2/704
f 859/2/811 860/2/553 852/2/653 853/2/652
f 862/2/908 863/2/189 868/2/889
f 862/2/908 868/2/889 864/2/909
f 574/9/326 575/53/312 556/55/330 567/196/518
f 791/324/865 792/323/864 784/349/894 788/348/893
f 49/1/108 59/1/120 58/1/53 50/1/109
f 836/273/750 837/345/890 831/341/884 832/340/883
f 842/2/84 849/2/83 843/2/910 841/2/748
f 875/2/4 879/2/907 878/2/906 876/2/5
f 876/2/5 878/2/906 877/2/755
f 850/2/895 851/2/898 843/2/910 849/2/83
f 877/2/755 878/2/906 880/2/911
f 99/1/113 100/1/157 96/1/149 95/1/148
f 878/2/906 883/2/912 880/2/911
f 878/2/906 882/2/905 883/2/912
f 882/2/905 884/2/913 883/2/912
f 881/2/904 884/2/913 882/2/905
f 881/2/904 885/2/914 884/2/913
f 883/2/912 884/2/913 886/2/915
f 884/2/913 887/2/916 886/2/915
f 884/2/913 885/2/914 887/2/916
f 115/2/163 916/2/780 915/2/561 122/2/164
f 847/2/85 846/2/137 889/2/917 888/2/918
f 871/2/493 874/2/754 899/2/753 897/2/494
f 895/2/495 893/2/802 861/2/552 867/2/496
f 880/2/911 901/2/919 900/2/756 877/2/755
f 883/2/912 902/2/920 901/2/919 880/2/911
f 903/2/921 902/2/920 883/2/912 886/2/915
f 339/46/426 457/96/368 459/24/363 458/45/366
f 854/2/704 891/2/803 889/2/917 846/2/137
f 903/2/921 886/2/915 887/2/916 904/2/922
f 221/150/386 232/156/721 231/130/714 230/151/387
f 888/2/918 890/2/98 848/2/82 847/2/85
f 819/325/868 820/326/869 811/331/874 812/330/873
f 143/2/185 144/2/194 138/2/193 139/2/186
f 77/1/24 78/1/23 72/1/129 76/1/28
f 892/2/99 894/2/187 856/2/190 855/2/100
f 51/1/55 39/1/114 50/1/109 58/1/53
f 817/215/565 816/335/878 912/334/877 911/216/566
f 231/130/714 243/129/664 237/165/663 230/151/387
f 12/1/26 10/1/25 9/1/15 11/1/20
f 210/132/706 211/131/746 202/125/597 209/126/596
f 763/130/413 764/21/416 757/166/394 756/206/536
f 836/273/750 907/272/749 908/353/923 837/345/890
f 908/353/923 909/346/924 838/346/891 837/345/890
f 125/2/175 915/2/561 130/2/179
f 125/2/175 122/2/164 915/2/561
f 115/2/163 112/2/181 919/2/925 916/2/780
f 124/2/172 920/2/926 919/2/925 120/2/183
f 919/2/925 920/2/926 917/2/779 916/2/780
f 307/171/409 320/143/408 317/36/702 311/37/484
f 921/2/861 922/2/860 917/2/779 920/2/926
f 919/2/925 114/2/180 120/2/183
f 919/2/925 112/2/181 114/2/180
f 39/1/114 51/1/55 46/1/90 40/1/80
f 326/321/862 345/174/730 340/298/825 333/260/703
f 923/2/73 918/2/72 917/2/779 922/2/860
f 921/2/861 128/2/171 132/2/196
f 921/2/861 132/2/196 136/2/197
f 142/2/195 144/2/194 923/2/73 922/2/860
f 920/2/926 124/2/172 128/2/171 921/2/861
f 608/144/801 616/131/700 603/132/654 604/145/711
f 39/1/114 40/1/80 35/1/66 33/1/115
f 923/2/73 144/2/194 143/2/185
f 923/2/73 143/2/185 141/2/74
f 642/256/685 647/285/775 643/189/927 637/42/686
