# Blender 4.3.2
# www.blender.org
o hair.052
v 7.147040 0.089105 -0.022128
v 7.147765 0.089457 -0.021625
v 7.149992 0.086626 -0.024057
v 7.148537 0.086043 -0.024846
v 7.145325 0.092501 -0.017955
v 7.146177 0.088977 -0.022276
v 7.146945 0.085745 -0.025342
v 7.145325 0.088881 -0.022452
v 7.149589 0.083536 -0.026775
v 7.145325 0.085631 -0.025484
v 7.147488 0.083075 -0.027374
v 7.145325 0.082945 -0.027601
v 7.144473 0.088977 -0.022276
v 7.143705 0.085745 -0.025342
v 7.153006 0.081744 -0.027065
v 7.150597 0.080792 -0.028326
v 7.151528 0.084328 -0.025729
v 7.148001 0.080218 -0.029059
v 7.145325 0.080071 -0.029389
v 7.142650 0.080218 -0.029059
v 7.143163 0.083075 -0.027374
v 7.142114 0.086043 -0.024846
v 7.143610 0.089105 -0.022128
v 7.141061 0.083536 -0.026775
v 7.151594 0.078007 -0.029560
v 7.153234 0.085360 -0.024327
v 7.151270 0.087389 -0.023003
v 7.145325 0.077188 -0.030862
v 7.140658 0.086626 -0.024057
v 7.142886 0.089457 -0.021625
v 7.140053 0.080792 -0.028326
v 7.137644 0.081744 -0.027065
v 7.139122 0.084328 -0.025729
v 7.148489 0.089808 -0.021123
v 7.152317 0.088274 -0.021758
v 7.137416 0.085360 -0.024327
v 7.139380 0.087389 -0.023003
v 7.142161 0.089808 -0.021123
v 7.139056 0.078007 -0.029560
v 7.142142 0.077344 -0.030395
v 7.149014 0.090338 -0.020344
v 7.138334 0.088274 -0.021758
v 7.141636 0.090338 -0.020344
v 7.138066 0.075247 -0.030363
v 7.134732 0.076394 -0.028780
v 7.136181 0.079077 -0.028120
v 7.141639 0.074541 -0.031245
v 7.149539 0.090867 -0.019566
v 7.153112 0.089262 -0.020362
v 7.137538 0.089262 -0.020362
v 7.141111 0.090867 -0.019566
v 7.137130 0.072102 -0.030797
v 7.133650 0.080496 -0.026079
v 7.135521 0.082991 -0.025330
v 7.149762 0.091474 -0.018672
v 7.153637 0.090344 -0.018850
v 7.155696 0.087853 -0.020816
v 7.154630 0.086544 -0.022662
v 7.140889 0.091474 -0.018672
v 7.133788 0.084453 -0.023179
v 7.136020 0.086544 -0.022662
v 7.149985 0.092081 -0.017777
v 7.153855 0.091418 -0.017336
v 7.156862 0.084453 -0.023179
v 7.155129 0.082991 -0.025330
v 7.134954 0.087853 -0.020816
v 7.149822 0.092594 -0.017026
v 7.153726 0.092385 -0.015937
v 7.156729 0.090694 -0.016867
v 7.157000 0.080496 -0.026079
v 7.154469 0.079077 -0.028120
v 7.137013 0.090344 -0.018850
v 7.149659 0.093106 -0.016274
v 7.153247 0.093349 -0.014468
v 7.156416 0.089267 -0.018864
v 7.155918 0.076394 -0.028780
v 7.134234 0.089267 -0.018864
v 7.133921 0.090694 -0.016867
v 7.136796 0.091418 -0.017336
v 7.140666 0.092081 -0.017777
v 7.149122 0.093709 -0.015324
v 7.152416 0.094412 -0.012750
v 7.155933 0.093376 -0.012832
v 7.159059 0.087709 -0.018461
v 7.131591 0.087709 -0.018461
v 7.132472 0.086049 -0.020823
v 7.136924 0.092385 -0.015937
v 7.140829 0.092594 -0.017026
v 7.156569 0.092041 -0.014890
v 7.159217 0.091208 -0.013317
v 7.159431 0.089432 -0.015989
v 7.131601 0.082201 -0.023449
v 7.130066 0.084046 -0.020594
v 7.137403 0.093349 -0.014468
v 7.140992 0.093106 -0.016274
v 7.161991 0.087876 -0.014919
v 7.131810 0.077939 -0.026484
v 7.129478 0.079837 -0.023469
v 7.134717 0.093376 -0.012832
v 7.138234 0.094412 -0.012750
v 7.141529 0.093709 -0.015324
v 7.130032 0.075021 -0.026537
v 7.127450 0.077123 -0.023206
v 7.127766 0.081881 -0.020202
v 7.125596 0.079381 -0.019596
v 7.133338 0.073328 -0.029073
v 7.134081 0.092041 -0.014890
v 7.125481 0.073883 -0.022708
v 7.128288 0.071486 -0.026322
v 7.131994 0.069547 -0.029126
v 7.126693 0.083884 -0.017119
v 7.129065 0.085895 -0.017852
v 7.131219 0.089432 -0.015989
v 7.131433 0.091208 -0.013317
v 7.126699 0.067523 -0.025693
v 7.135471 0.063769 -0.030843
v 7.130772 0.065317 -0.028743
v 7.136259 0.068179 -0.031040
v 7.128659 0.087876 -0.014919
v 7.128913 0.090109 -0.011512
v 7.132207 0.092982 -0.010596
v 7.129793 0.092352 -0.008104
v 7.133510 0.094699 -0.007965
v 7.135827 0.094771 -0.010585
v 7.129755 0.060911 -0.027729
v 7.140745 0.067484 -0.031994
v 7.141171 0.071393 -0.031706
v 7.126519 0.088776 -0.009653
v 7.126271 0.086100 -0.013752
v 7.137313 0.096025 -0.008471
v 7.139342 0.095394 -0.011101
v 7.145325 0.071191 -0.032169
v 7.145325 0.074343 -0.031720
v 7.124006 0.083945 -0.012509
v 7.124460 0.081555 -0.016197
v 7.140646 0.096109 -0.009847
v 7.142066 0.094311 -0.014374
v 7.149011 0.074541 -0.031245
v 7.148509 0.077344 -0.030395
v 7.123502 0.076433 -0.018798
v 7.122269 0.078853 -0.015081
v 7.142832 0.094665 -0.013807
v 7.152584 0.075247 -0.030363
v 7.153520 0.072102 -0.030797
v 7.149479 0.071393 -0.031706
v 7.121587 0.073048 -0.017689
v 7.123683 0.070204 -0.021848
v 7.142107 0.096599 -0.008974
v 7.143599 0.095018 -0.013240
v 7.149905 0.067484 -0.031994
v 7.145325 0.067310 -0.032444
v 7.122176 0.066182 -0.020506
v 7.125393 0.063323 -0.024508
v 7.144462 0.095137 -0.013055
v 7.139078 0.096932 -0.006816
v 7.141045 0.097553 -0.005641
v 7.145325 0.062884 -0.032282
v 7.140362 0.063055 -0.031844
v 7.124429 0.059051 -0.022708
v 7.135297 0.096183 -0.005605
v 7.137517 0.097253 -0.003709
v 7.143686 0.096907 -0.008465
v 7.140025 0.058367 -0.030987
v 7.134792 0.059183 -0.029957
v 7.133343 0.096020 -0.002639
v 7.136011 0.097235 -0.000567
v 7.140011 0.097986 -0.002332
v 7.139020 0.098082 0.000974
v 7.131269 0.094357 -0.005151
v 7.134265 0.054574 -0.028289
v 7.139757 0.053631 -0.029335
v 7.128990 0.056474 -0.025994
v 7.134651 0.096807 0.002638
v 7.142632 0.098468 -0.001519
v 7.143148 0.097953 -0.004962
v 7.127472 0.091454 -0.005585
v 7.129165 0.093671 -0.002307
v 7.128521 0.052156 -0.023457
v 7.133929 0.050103 -0.025754
v 7.145325 0.098097 -0.004746
v 7.145325 0.097016 -0.008301
v 7.124924 0.090097 -0.002679
v 7.124197 0.086841 -0.008042
v 7.131569 0.095447 0.000370
v 7.133821 0.045756 -0.022480
v 7.139582 0.049058 -0.026804
v 7.145325 0.095256 -0.012871
v 7.121725 0.081318 -0.011249
v 7.121736 0.083579 -0.007859
v 7.121947 0.086144 -0.003153
v 7.129882 0.094258 0.003437
v 7.146188 0.095137 -0.013055
v 7.120263 0.075759 -0.013668
v 7.119641 0.078332 -0.009734
v 7.119994 0.082632 -0.002835
v 7.119655 0.080656 -0.006028
v 7.127180 0.092474 0.000630
v 7.145325 0.053313 -0.029740
v 7.146965 0.096907 -0.008465
v 7.118592 0.072267 -0.011860
v 7.118043 0.077614 -0.003883
v 7.117982 0.075113 -0.007733
v 7.125387 0.090863 0.004228
v 7.123374 0.088416 0.000512
v 7.145325 0.058134 -0.031409
v 7.116870 0.071736 -0.005319
v 7.128144 0.092583 0.006649
v 7.131972 0.094495 0.009171
v 7.133343 0.095864 0.005866
v 7.122177 0.086592 0.003512
v 7.120786 0.084682 0.000806
v 7.150626 0.058367 -0.030987
v 7.150288 0.063055 -0.031844
v 7.126911 0.090877 0.010064
v 7.137280 0.097047 0.007737
v 7.138117 0.097790 0.004358
v 7.118640 0.079891 -0.000329
v 7.119694 0.082083 0.002800
v 7.155180 0.063769 -0.030843
v 7.154392 0.068179 -0.031040
v 7.124370 0.089008 0.007778
v 7.141689 0.098440 0.005410
v 7.142140 0.098646 0.001906
v 7.117750 0.076841 0.002140
v 7.117036 0.074424 -0.001400
v 7.158657 0.069547 -0.029126
v 7.157311 0.073328 -0.029073
v 7.122684 0.085877 0.008596
v 7.121218 0.084113 0.005986
v 7.145325 0.098857 0.002221
v 7.145325 0.098646 -0.001252
v 7.116698 0.071023 0.001325
v 7.160618 0.075021 -0.026537
v 7.158841 0.077939 -0.026484
v 7.120516 0.081479 0.008367
v 7.124468 0.083725 0.011128
v 7.148018 0.098468 -0.001519
v 7.147502 0.097953 -0.004962
v 7.161172 0.079837 -0.023469
v 7.159049 0.082201 -0.023449
v 7.118892 0.079173 0.005357
v 7.122825 0.081424 0.012293
v 7.120200 0.078040 0.011062
v 7.125379 0.086354 0.013890
v 7.126177 0.085586 0.015601
v 7.149606 0.097553 -0.005641
v 7.160584 0.084046 -0.020594
v 7.158178 0.086049 -0.020823
v 7.118484 0.075792 0.008087
v 7.117375 0.073429 0.004790
v 7.120983 0.077666 0.013591
v 7.120044 0.074401 0.014349
v 7.129792 0.086934 0.019446
v 7.128971 0.087575 0.018549
v 7.124602 0.087766 0.011022
v 7.117273 0.069987 0.007104
v 7.118471 0.072142 0.010266
v 7.118870 0.066902 0.012481
v 7.119950 0.067666 0.014243
v 7.132326 0.088534 0.020711
v 7.133690 0.086932 0.021942
v 7.128126 0.088347 0.016450
v 7.127054 0.089547 0.013449
v 7.161586 0.085895 -0.017852
v 7.118124 0.065802 0.010249
v 7.120044 0.060932 0.014243
v 7.137181 0.086649 0.023389
v 7.131282 0.089947 0.018732
v 7.130724 0.091413 0.015783
v 7.130921 0.093086 0.012458
v 7.163958 0.083884 -0.017119
v 7.162884 0.081881 -0.020202
v 7.117537 0.064214 0.006886
v 7.117621 0.060932 0.004733
v 7.135260 0.091087 0.020504
v 7.135745 0.094530 0.014318
v 7.135235 0.092985 0.017647
v 7.136473 0.095876 0.011031
v 7.165054 0.079381 -0.019596
v 7.163200 0.077123 -0.023206
v 7.116797 0.067823 0.003898
v 7.136025 0.088978 0.022431
v 7.140176 0.093875 0.018783
v 7.140913 0.096774 0.012276
v 7.141283 0.097803 0.008896
v 7.165170 0.073883 -0.022708
v 7.162362 0.071486 -0.026322
v 7.116535 0.065163 0.000402
v 7.116429 0.068281 -0.002570
v 7.140497 0.089197 0.023441
v 7.145325 0.098074 0.009298
v 7.145325 0.098681 0.005769
v 7.163951 0.067523 -0.025693
v 7.159878 0.065317 -0.028743
v 7.117057 0.062390 0.003026
v 7.116864 0.064871 -0.007205
v 7.140091 0.091721 0.021499
v 7.148961 0.098440 0.005410
v 7.148510 0.098646 0.001906
v 7.160895 0.060911 -0.027729
v 7.155858 0.059183 -0.029957
v 7.117521 0.057951 -0.002281
v 7.118757 0.055100 0.000176
v 7.116916 0.061286 -0.004649
v 7.145325 0.091913 0.021801
v 7.151630 0.098082 0.000974
v 7.150639 0.097986 -0.002332
v 7.156385 0.054574 -0.028289
v 7.150894 0.053631 -0.029335
v 7.120256 0.049267 -0.004380
v 7.118182 0.057290 -0.009533
v 7.153133 0.097253 -0.003709
v 7.151572 0.096932 -0.006816
v 7.148543 0.096599 -0.008974
v 7.150004 0.096109 -0.009847
v 7.151069 0.049058 -0.026804
v 7.145325 0.048674 -0.027195
v 7.153337 0.096025 -0.008471
v 7.147051 0.095018 -0.013240
v 7.147818 0.094665 -0.013807
v 7.151309 0.095394 -0.011101
v 7.148585 0.094311 -0.014374
v 7.145325 0.044213 -0.023888
v 7.139509 0.044646 -0.023511
v 7.145325 0.039826 -0.020009
v 7.139516 0.040274 -0.019678
v 7.151142 0.044646 -0.023511
v 7.151134 0.040274 -0.019678
v 7.154824 0.094771 -0.010585
v 7.145325 0.035856 -0.015394
v 7.140129 0.036183 -0.015236
v 7.133915 0.041406 -0.018698
v 7.135612 0.036964 -0.014444
v 7.156828 0.045756 -0.022480
v 7.156721 0.050103 -0.025754
v 7.157140 0.094699 -0.007965
v 7.158443 0.092982 -0.010596
v 7.155354 0.096183 -0.005605
v 7.150521 0.036183 -0.015236
v 7.131606 0.038279 -0.013207
v 7.129375 0.043048 -0.017198
v 7.162129 0.052156 -0.023457
v 7.160857 0.092352 -0.008104
v 7.161737 0.090109 -0.011512
v 7.157307 0.096020 -0.002639
v 7.155038 0.036964 -0.014444
v 7.156735 0.041406 -0.018698
v 7.127995 0.040616 -0.011271
v 7.164131 0.088776 -0.009653
v 7.164379 0.086100 -0.013752
v 7.159381 0.094357 -0.005151
v 7.161275 0.043048 -0.017198
v 7.159045 0.038279 -0.013207
v 7.162193 0.047587 -0.020557
v 7.124135 0.044307 -0.008254
v 7.121759 0.048684 -0.011289
v 7.125198 0.045473 -0.014696
v 7.166644 0.083945 -0.012509
v 7.166190 0.081555 -0.016197
v 7.161485 0.093671 -0.002307
v 7.162656 0.040616 -0.011271
v 7.166784 0.050201 -0.017686
v 7.123866 0.050201 -0.017686
v 7.128458 0.047587 -0.020557
v 7.168381 0.078853 -0.015081
v 7.167149 0.076433 -0.018798
v 7.163178 0.091454 -0.005585
v 7.165452 0.045473 -0.014696
v 7.118927 0.053300 -0.006928
v 7.169063 0.073048 -0.017689
v 7.166967 0.070204 -0.021848
v 7.165727 0.090097 -0.002679
v 7.166453 0.086841 -0.008042
v 7.168891 0.048684 -0.011289
v 7.168474 0.066182 -0.020506
v 7.165257 0.063323 -0.024508
v 7.168704 0.086144 -0.003153
v 7.168914 0.083579 -0.007859
v 7.168926 0.081318 -0.011249
v 7.166515 0.044307 -0.008254
v 7.166221 0.059051 -0.022708
v 7.161660 0.056474 -0.025994
v 7.170656 0.082632 -0.002835
v 7.170995 0.080656 -0.006028
v 7.171009 0.078332 -0.009734
v 7.170388 0.075759 -0.013668
v 7.170393 0.049267 -0.004380
v 7.120469 0.053359 -0.014102
v 7.172606 0.077614 -0.003883
v 7.172058 0.072267 -0.011860
v 7.172668 0.075113 -0.007733
v 7.170689 0.069240 -0.016152
v 7.171723 0.053300 -0.006928
v 7.173129 0.057951 -0.002281
v 7.171893 0.055100 0.000176
v 7.120445 0.057923 -0.016379
v 7.123865 0.054815 -0.020415
v 7.166785 0.054815 -0.020415
v 7.173780 0.071736 -0.005319
v 7.172468 0.057290 -0.009533
v 7.173028 0.060932 0.004733
v 7.170205 0.057923 -0.016379
v 7.169588 0.062019 -0.018683
v 7.170181 0.053359 -0.014102
v 7.173593 0.062390 0.003026
v 7.173113 0.064214 0.006886
v 7.170606 0.060932 0.014243
v 7.121063 0.062019 -0.018683
v 7.171883 0.065236 -0.014240
v 7.173735 0.061286 -0.004649
v 7.174116 0.065163 0.000402
v 7.172526 0.065802 0.010249
v 7.171781 0.066902 0.012481
v 7.170700 0.067666 0.014243
v 7.118767 0.065236 -0.014240
v 7.118151 0.061262 -0.012003
v 7.119961 0.069240 -0.016152
v 7.173787 0.064871 -0.007205
v 7.173377 0.069987 0.007104
v 7.170606 0.074400 0.014349
v 7.172180 0.072142 0.010266
v 7.173241 0.068573 -0.009692
v 7.173853 0.067823 0.003898
v 7.172167 0.075792 0.008087
v 7.170450 0.078040 0.011062
v 7.169668 0.077666 0.013591
v 7.117409 0.068573 -0.009692
v 7.172500 0.061262 -0.012003
v 7.173953 0.071023 0.001325
v 7.167825 0.081424 0.012293
v 7.174221 0.068281 -0.002570
v 7.173275 0.073429 0.004790
v 7.170134 0.081479 0.008367
v 7.166182 0.083725 0.011128
v 7.173614 0.074424 -0.001400
v 7.172900 0.076841 0.002140
v 7.171758 0.079173 0.005357
v 7.170957 0.082083 0.002800
v 7.169432 0.084113 0.005986
v 7.165271 0.086354 0.013890
v 7.164473 0.085586 0.015601
v 7.167966 0.085877 0.008596
v 7.172009 0.079891 -0.000329
v 7.169865 0.084682 0.000806
v 7.168473 0.086592 0.003512
v 7.161680 0.087575 0.018549
v 7.162524 0.088347 0.016450
v 7.166049 0.087766 0.011022
v 7.160858 0.086934 0.019446
v 7.166280 0.089008 0.007778
v 7.167277 0.088416 0.000512
v 7.165263 0.090863 0.004228
v 7.158325 0.088534 0.020711
v 7.163740 0.090877 0.010064
v 7.163596 0.089547 0.013449
v 7.156960 0.086932 0.021942
v 7.163470 0.092474 0.000630
v 7.160768 0.094258 0.003437
v 7.162506 0.092583 0.006649
v 7.159926 0.091413 0.015783
v 7.159729 0.093086 0.012458
v 7.158678 0.094495 0.009171
v 7.153470 0.086649 0.023389
v 7.157308 0.095864 0.005866
v 7.155999 0.096807 0.002638
v 7.159081 0.095447 0.000370
v 7.154905 0.094530 0.014318
v 7.153370 0.097047 0.007737
v 7.154178 0.095876 0.011031
v 7.159368 0.089947 0.018732
v 7.154625 0.088978 0.022431
v 7.150153 0.089197 0.023441
v 7.149463 0.086176 0.024676
v 7.150108 0.095508 0.015577
v 7.149737 0.096774 0.012276
v 7.155390 0.091087 0.020504
v 7.145325 0.085907 0.025127
v 7.150559 0.091721 0.021499
v 7.145325 0.089233 0.023776
v 7.154639 0.097235 -0.000567
v 7.150474 0.093875 0.018783
v 7.155415 0.092985 0.017647
v 7.141187 0.086176 0.024676
v 7.145325 0.094152 0.019163
v 7.152534 0.097790 0.004358
v 7.145325 0.095816 0.016033
v 7.140542 0.095508 0.015577
v 7.149368 0.097803 0.008896
v 7.145325 0.097074 0.012723
v 7.146597 0.020217 -0.048400
v 7.147410 0.023941 -0.047457
v 7.147768 0.019605 -0.047711
v 7.145325 0.020478 -0.048728
v 7.145325 0.014942 -0.049611
v 7.150445 0.026085 -0.044679
v 7.149220 0.022919 -0.046359
v 7.148111 0.027555 -0.046207
v 7.145325 0.028055 -0.046731
v 7.145325 0.024404 -0.047917
v 7.150175 0.021208 -0.044866
v 7.148253 0.018626 -0.046844
v 7.143240 0.023941 -0.047457
v 7.144053 0.020217 -0.048400
v 7.148573 0.031087 -0.044284
v 7.145325 0.031679 -0.044893
v 7.142077 0.031087 -0.044284
v 7.142539 0.027555 -0.046207
v 7.148274 0.017604 -0.045885
v 7.141431 0.022919 -0.046359
v 7.140205 0.026085 -0.044679
v 7.142882 0.019605 -0.047711
v 7.145325 0.034920 -0.042602
v 7.150245 0.019553 -0.043088
v 7.149172 0.018038 -0.041700
v 7.147653 0.016648 -0.044981
v 7.140475 0.021208 -0.044866
v 7.139335 0.029343 -0.042497
v 7.137705 0.026903 -0.040041
v 7.138815 0.024010 -0.042587
v 7.142397 0.018626 -0.046844
v 7.151769 0.021702 -0.040358
v 7.146631 0.016180 -0.044465
v 7.151834 0.024010 -0.042587
v 7.138871 0.032364 -0.040044
v 7.141829 0.034272 -0.041953
v 7.138881 0.021702 -0.040358
v 7.142376 0.017604 -0.045885
v 7.152946 0.026903 -0.040041
v 7.151315 0.029343 -0.042497
v 7.141809 0.037059 -0.039216
v 7.145325 0.037721 -0.039861
v 7.148822 0.034272 -0.041953
v 7.148842 0.037059 -0.039216
v 7.140405 0.019553 -0.043088
v 7.141478 0.018038 -0.041700
v 7.142997 0.016648 -0.044981
v 7.151779 0.032364 -0.040044
v 7.145325 0.040032 -0.036719
v 7.151816 0.035116 -0.037318
v 7.151435 0.037575 -0.034346
v 7.148639 0.039407 -0.036117
v 7.144019 0.016180 -0.044465
v 7.145325 0.015961 -0.044212
v 7.153585 0.032437 -0.034677
v 7.153538 0.029715 -0.037406
v 7.148221 0.041393 -0.032740
v 7.137804 0.024228 -0.037414
v 7.139360 0.021890 -0.035120
v 7.140199 0.019683 -0.038409
v 7.145325 0.016805 -0.040505
v 7.147474 0.017110 -0.040657
v 7.153421 0.026845 -0.034562
v 7.152846 0.024228 -0.037414
v 7.137229 0.026845 -0.034562
v 7.137112 0.029715 -0.037406
v 7.142525 0.018490 -0.037157
v 7.143177 0.017110 -0.040657
v 7.148125 0.018490 -0.037157
v 7.150452 0.019683 -0.038409
v 7.151290 0.021890 -0.035120
v 7.137065 0.032437 -0.034677
v 7.138834 0.035116 -0.037318
v 7.148583 0.020469 -0.033663
v 7.145325 0.019998 -0.033154
v 7.145325 0.018111 -0.036715
v 7.151738 0.024344 -0.032079
v 7.148829 0.022797 -0.030518
v 7.139215 0.037575 -0.034346
v 7.142011 0.039407 -0.036117
v 7.153467 0.029562 -0.031805
v 7.151775 0.027060 -0.029295
v 7.148849 0.025492 -0.027736
v 7.145325 0.024951 -0.027204
v 7.145325 0.022271 -0.029977
v 7.142429 0.041393 -0.032740
v 7.145325 0.041943 -0.033268
v 7.142067 0.020469 -0.033663
v 7.152995 0.032366 -0.029152
v 7.148649 0.028540 -0.025320
v 7.151408 0.030022 -0.026774
v 7.141821 0.022797 -0.030518
v 7.145325 0.043410 -0.029539
v 7.150669 0.039785 -0.031193
v 7.149444 0.041691 -0.027906
v 7.147530 0.042970 -0.029120
v 7.138912 0.024344 -0.032079
v 7.150736 0.033211 -0.024569
v 7.138875 0.027060 -0.029295
v 7.141800 0.025492 -0.027736
v 7.152145 0.037587 -0.029035
v 7.153098 0.035058 -0.031869
v 7.146555 0.044059 -0.025325
v 7.137183 0.029562 -0.031805
v 7.142001 0.028540 -0.025320
v 7.145325 0.028022 -0.024833
v 7.147766 0.043208 -0.024543
v 7.145325 0.044342 -0.025586
v 7.144094 0.044059 -0.025325
v 7.143120 0.042970 -0.029120
v 7.137655 0.032366 -0.029152
v 7.145325 0.031427 -0.022836
v 7.148292 0.031896 -0.023275
v 7.152102 0.035249 -0.026662
v 7.148644 0.042103 -0.023513
v 7.141207 0.041691 -0.027906
v 7.142885 0.043208 -0.024543
v 7.139981 0.039785 -0.031193
v 7.139243 0.030022 -0.026774
v 7.147802 0.035546 -0.021695
v 7.150661 0.039972 -0.026244
v 7.150750 0.038186 -0.024452
v 7.142006 0.042103 -0.023513
v 7.138505 0.037587 -0.029035
v 7.137552 0.035058 -0.031869
v 7.139914 0.033211 -0.024569
v 7.149749 0.036621 -0.022843
v 7.139989 0.039972 -0.026244
v 7.139901 0.038186 -0.024452
v 7.141771 0.041055 -0.022506
v 7.138548 0.035249 -0.026662
v 7.148880 0.041055 -0.022506
v 7.148385 0.040137 -0.021565
v 7.142265 0.040137 -0.021565
v 7.140902 0.036621 -0.022843
v 7.147088 0.039412 -0.020680
v 7.145325 0.039088 -0.020232
v 7.145325 0.035120 -0.021213
v 7.142848 0.035546 -0.021695
v 7.143562 0.039412 -0.020680
v 7.142359 0.031896 -0.023275
vn -0.4266 0.8577 -0.2869
vn -0.5012 0.8352 -0.2263
vn -0.4072 0.9025 -0.1402
vn -0.3404 0.9130 -0.2248
vn 0.0636 0.7312 -0.6791
vn -0.0000 0.8319 -0.5549
vn 0.0915 0.7450 -0.6607
vn -0.9279 0.3656 0.0732
vn -0.9298 0.0666 0.3621
vn -0.8860 0.1886 0.4236
vn -0.8697 0.4695 0.1525
vn 0.0360 0.7339 -0.6783
vn -0.0000 0.7283 -0.6853
vn -0.0000 0.6492 -0.7606
vn -0.0619 0.6520 -0.7557
vn -0.0360 0.7339 -0.6783
vn -0.0838 0.5682 -0.8186
vn -0.1497 0.5801 -0.8007
vn -0.1111 0.6613 -0.7418
vn 0.5677 0.8119 -0.1361
vn 0.6355 0.7716 -0.0285
vn 0.7210 0.6754 -0.1553
vn 0.6381 0.7284 -0.2494
vn -0.9939 0.0927 0.0597
vn -0.9991 0.0243 -0.0347
vn -0.9967 -0.0647 0.0498
vn -0.9921 -0.0034 0.1251
vn 0.8254 0.5330 0.1859
vn 0.8697 0.4695 0.1525
vn 0.7160 0.6956 -0.0584
vn 0.6832 0.7302 0.0019
vn 0.0619 0.6520 -0.7557
vn 0.0838 0.5682 -0.8186
vn -0.0000 0.5665 -0.8241
vn -0.2807 0.5190 -0.8074
vn -0.2173 0.6015 -0.7688
vn -0.1864 0.4920 -0.8504
vn -0.1105 0.4800 -0.8703
vn -0.6806 0.5291 -0.5068
vn -0.6994 0.5869 -0.4079
vn -0.6272 0.6390 -0.4452
vn -0.6056 0.5827 -0.5420
vn 0.1105 0.4800 -0.8703
vn -0.0000 0.4820 -0.8762
vn 0.1111 0.6613 -0.7418
vn -0.0636 0.7312 -0.6791
vn -0.6782 -0.7330 0.0522
vn -0.3550 -0.9075 0.2243
vn -0.3803 -0.8569 0.3481
vn -0.7240 -0.6695 0.1661
vn -0.0000 0.6903 0.7235
vn -0.0000 0.4866 0.8736
vn 0.1536 0.4664 0.8711
vn 0.1566 0.6936 0.7031
vn -0.1345 0.3733 -0.9179
vn -0.2191 0.3990 -0.8904
vn -0.3304 0.4402 -0.8349
vn -0.2820 0.6249 -0.7280
vn -0.1944 0.6956 -0.6916
vn -0.1548 0.6759 -0.7206
vn -0.3706 0.5491 -0.7491
vn -0.1203 0.7534 -0.6464
vn -0.0915 0.7450 -0.6607
vn -0.0000 0.3687 -0.9295
vn 0.1345 0.3733 -0.9179
vn 0.1486 0.2347 -0.9606
vn -0.0000 0.2217 -0.9751
vn 0.1548 0.6759 -0.7206
vn 0.2173 0.6015 -0.7688
vn 0.1497 0.5801 -0.8007
vn 0.2488 0.9543 -0.1653
vn 0.3027 0.9506 -0.0684
vn 0.4072 0.9025 -0.1402
vn 0.3404 0.9130 -0.2248
vn 0.1203 0.7534 -0.6464
vn 0.1944 0.6956 -0.6916
vn 0.2820 0.6249 -0.7280
vn 0.9758 0.0601 0.2101
vn 0.9436 0.1256 0.3062
vn 0.9173 0.0031 0.3982
vn 0.9591 -0.0641 0.2757
vn -0.9758 0.0601 0.2101
vn -0.9722 -0.1173 0.2026
vn -0.9591 -0.0641 0.2757
vn -0.2488 0.9543 -0.1653
vn -0.1758 0.9759 -0.1296
vn -0.1328 0.9622 -0.2376
vn -0.1861 0.9460 -0.2655
vn -0.2397 0.7371 -0.6318
vn -0.2465 0.7607 -0.6005
vn -0.1492 0.7965 -0.5859
vn -0.1486 0.7810 -0.6066
vn 0.9877 -0.0387 -0.1513
vn 0.9991 0.0243 -0.0347
vn 0.9967 -0.0647 0.0498
vn 0.9887 -0.1378 -0.0589
vn 0.1354 0.7704 -0.6230
vn 0.2249 0.7166 -0.6602
vn 0.3343 0.6478 -0.6846
vn -0.1354 0.7704 -0.6230
vn 0.3871 0.3312 -0.8605
vn 0.2543 0.2750 -0.9272
vn 0.2191 0.3990 -0.8904
vn 0.3304 0.4402 -0.8349
vn -0.5253 0.6291 -0.5730
vn -0.5455 0.6845 -0.4835
vn -0.3994 0.7469 -0.5316
vn -0.3875 0.7007 -0.5990
vn 0.1486 0.7810 -0.6066
vn -0.2472 0.7919 -0.5584
vn -0.1541 0.8125 -0.5622
vn 0.2397 0.7371 -0.6318
vn 0.1738 -0.6950 -0.6977
vn 0.1608 -0.7388 -0.6545
vn -0.0000 -0.7498 -0.6617
vn -0.0000 -0.7071 -0.7071
vn 0.4338 0.2199 -0.8738
vn 0.2787 0.1630 -0.9465
vn 0.4359 0.4856 -0.7578
vn 0.5078 0.3955 -0.7653
vn 0.1492 0.7965 -0.5859
vn 0.6782 -0.7330 0.0522
vn 0.6398 -0.7685 -0.0087
vn 0.8253 -0.5009 -0.2607
vn 0.8619 -0.4682 -0.1948
vn -0.3670 0.6698 -0.6455
vn 0.2465 0.7607 -0.6005
vn 0.3875 0.7007 -0.5990
vn 0.3670 0.6698 -0.6455
vn 0.9700 -0.2405 0.0360
vn 0.9793 -0.1604 0.1235
vn 0.9613 -0.2085 0.1799
vn 0.9512 -0.2959 0.0875
vn 0.4443 0.5745 -0.6874
vn 0.5174 0.5226 -0.6776
vn 0.3706 0.5491 -0.7491
vn 0.1541 0.8125 -0.5622
vn 0.8932 0.4347 -0.1147
vn 0.9356 0.3530 -0.0102
vn 0.9449 0.3069 -0.1139
vn 0.8898 0.4082 -0.2041
vn -0.4443 0.5745 -0.6874
vn -0.4915 0.5952 -0.6357
vn -0.3343 0.6478 -0.6846
vn 0.2407 0.8272 -0.5077
vn 0.3908 0.7984 -0.4580
vn 0.3994 0.7469 -0.5316
vn 0.2472 0.7919 -0.5584
vn 0.1453 0.8325 -0.5347
vn -0.2407 0.8272 -0.5077
vn -0.1453 0.8325 -0.5347
vn -0.0919 0.9368 -0.3376
vn -0.0545 0.9434 -0.3271
vn -0.0333 0.9064 -0.4212
vn -0.0599 0.9053 -0.4205
vn -0.3908 0.7984 -0.4580
vn -0.4359 0.4856 -0.7578
vn -0.0000 -0.2251 0.9743
vn -0.0000 -0.3128 0.9498
vn 0.4071 -0.2450 0.8799
vn 0.4167 -0.1579 0.8952
vn 0.8728 0.4879 0.0152
vn 0.9103 0.4036 0.0925
vn 0.1376 0.8536 -0.5024
vn -0.2228 0.8587 -0.4615
vn -0.1376 0.8536 -0.5024
vn 0.5329 0.8427 0.0772
vn 0.4774 0.8783 -0.0263
vn 0.3662 0.9293 0.0475
vn 0.4215 0.8945 0.1488
vn -0.7043 0.7062 0.0730
vn -0.5797 0.8012 0.1484
vn -0.5329 0.8427 0.0772
vn -0.6355 0.7716 -0.0285
vn 0.1212 0.8707 -0.4766
vn -0.1212 0.8707 -0.4766
vn -0.2014 0.8825 -0.4249
vn 0.4915 0.5952 -0.6357
vn -0.3591 0.8430 -0.4006
vn -0.3137 0.8797 -0.3574
vn -0.2249 0.7166 -0.6602
vn 0.5455 0.6845 -0.4835
vn 0.5253 0.6291 -0.5730
vn 0.5672 0.5472 -0.6155
vn 0.6429 0.4871 -0.5911
vn 0.5936 0.4507 -0.6667
vn 0.4214 0.1906 -0.8866
vn -0.0000 0.2513 -0.9679
vn -0.0000 0.3802 -0.9249
vn 0.4448 0.3106 -0.8401
vn 0.3489 0.6810 0.6438
vn 0.3491 0.8195 0.4546
vn 0.1723 0.8377 0.5183
vn -0.5470 -0.6248 -0.5571
vn -0.5574 -0.5092 -0.6557
vn -0.3563 -0.5802 -0.7324
vn -0.3515 -0.6665 -0.6574
vn 0.8565 0.2695 0.4402
vn 0.8860 0.1886 0.4236
vn 0.6056 0.5827 -0.5420
vn -0.0000 0.9543 -0.2988
vn -0.4378 0.8714 -0.2214
vn -0.4279 0.8918 -0.1467
vn -0.0000 0.9748 -0.2229
vn -0.5345 0.7460 -0.3973
vn 0.3591 0.8430 -0.4006
vn 0.2228 0.8587 -0.4615
vn -0.1280 0.9251 -0.3575
vn -0.0784 0.8954 -0.4383
vn -0.1061 0.8856 -0.4522
vn -0.1675 0.9057 -0.3895
vn -0.0000 0.9460 -0.3241
vn 0.0545 0.9434 -0.3271
vn 0.0333 0.9064 -0.4212
vn -0.0000 0.9116 -0.4112
vn 0.5712 0.2929 -0.7668
vn 0.7141 0.4130 -0.5653
vn 0.6647 0.3622 -0.6534
vn -0.8414 0.5337 0.0842
vn -0.8728 0.4879 0.0152
vn -0.9103 0.4036 0.0925
vn -0.8634 0.4434 0.2408
vn 0.7233 0.2686 -0.6362
vn 0.6206 0.1907 -0.7606
vn 0.9567 -0.0329 0.2891
vn 0.9298 0.0665 0.3621
vn 0.7404 -0.2014 0.6413
vn 0.7609 -0.3100 0.5700
vn 0.1000 0.9887 -0.1114
vn 0.0767 0.9717 -0.2236
vn -0.0000 0.9758 -0.2188
vn -0.0000 0.9945 -0.1049
vn 0.4691 0.1158 -0.8755
vn 0.2956 0.0631 -0.9532
vn 0.6806 0.5291 -0.5068
vn 0.7461 0.4673 -0.4743
vn 0.5345 0.7460 -0.3973
vn 0.4915 0.8030 -0.3371
vn 0.7509 0.1398 -0.6454
vn 0.7850 0.2539 -0.5651
vn 0.9552 -0.0104 -0.2957
vn 0.9160 -0.1072 -0.3866
vn 0.7784 0.1597 -0.6072
vn 0.6680 0.0731 -0.7405
vn -0.0000 0.9735 0.2288
vn 0.1650 0.9615 0.2196
vn 0.1425 0.9842 0.1052
vn -0.0000 0.9935 0.1134
vn 0.5666 -0.4048 -0.7177
vn 0.5574 -0.5092 -0.6557
vn 0.3563 -0.5802 -0.7324
vn 0.3642 -0.4906 -0.7916
vn 0.6138 0.7019 -0.3614
vn 0.6272 0.6390 -0.4452
vn 0.6994 0.5869 -0.4079
vn 0.5691 0.7665 -0.2977
vn 0.4266 0.8577 -0.2869
vn 0.3137 0.8797 -0.3574
vn 0.5012 0.8352 -0.2263
vn 0.7078 -0.0565 -0.7042
vn 0.5413 -0.1469 -0.8279
vn 0.5068 -0.0078 -0.8620
vn 0.3388 -0.2114 -0.9168
vn 0.3170 -0.0648 -0.9462
vn -0.0000 0.1130 -0.9936
vn -0.0000 0.0219 -0.9998
vn -0.1497 0.0316 -0.9882
vn -0.1507 0.1253 -0.9806
vn 0.1497 0.0316 -0.9882
vn 0.1520 -0.0967 -0.9836
vn 0.6842 0.6510 -0.3288
vn -0.3381 -0.9287 0.1523
vn -0.0000 -0.9799 0.1996
vn -0.0000 -0.9619 0.2735
vn 0.2531 0.9162 -0.3106
vn -0.8997 0.2398 0.3648
vn -0.7687 0.6128 0.1832
vn 0.1061 0.8856 -0.4522
vn 0.1675 0.9057 -0.3895
vn 0.2014 0.8825 -0.4249
vn 0.2138 0.9764 -0.0296
vn 0.1758 0.9759 -0.1296
vn 0.1201 0.9927 -0.0097
vn 0.1507 0.1253 -0.9806
vn -0.4448 0.3106 -0.8401
vn -0.4645 0.4409 -0.7680
vn -0.0000 0.5185 -0.8551
vn 0.7444 0.5952 -0.3027
vn 0.7570 0.5318 -0.3798
vn -0.4915 0.8030 -0.3371
vn 0.1280 0.9251 -0.3575
vn 0.0784 0.8954 -0.4383
vn -0.1486 0.2347 -0.9606
vn -0.4554 0.8188 -0.3495
vn -0.7624 0.6241 -0.1713
vn -0.7160 0.6956 -0.0584
vn -0.9831 0.1296 -0.1290
vn -0.9658 0.0687 -0.2499
vn -0.9877 -0.0387 -0.1513
vn -0.2787 0.1630 -0.9465
vn -0.2543 0.2750 -0.9272
vn 0.2582 0.9624 0.0849
vn 0.8046 0.3931 -0.4450
vn 0.8679 0.2925 -0.4015
vn 0.8355 0.2278 -0.5001
vn 0.7754 0.3297 -0.5386
vn 0.6419 0.7270 0.2439
vn 0.4915 0.8215 0.2890
vn 0.5312 0.7412 0.4104
vn 0.6909 0.6111 0.3863
vn -0.2956 0.0631 -0.9532
vn -0.7141 0.4130 -0.5653
vn -0.7461 0.4673 -0.4743
vn -0.6429 0.4871 -0.5911
vn -0.2983 0.9344 0.1946
vn -0.2582 0.9624 0.0849
vn -0.3662 0.9293 0.0475
vn -0.4215 0.8945 0.1488
vn 0.0599 0.9053 -0.4205
vn 0.0919 0.9368 -0.3376
vn -0.6842 0.6510 -0.3288
vn -0.6381 0.7284 -0.2494
vn -0.5691 0.7665 -0.2977
vn -0.6138 0.7019 -0.3614
vn -0.4067 -0.4999 0.7646
vn -0.4004 -0.3864 0.8309
vn -0.7404 -0.2014 0.6413
vn -0.7609 -0.3100 0.5700
vn -0.0000 -0.1056 -0.9944
vn 0.7332 -0.1871 -0.6537
vn 0.5640 -0.2902 -0.7731
vn 0.4561 0.8648 0.2101
vn 0.5797 0.8012 0.1484
vn 0.1861 0.9460 -0.2655
vn 0.1328 0.9622 -0.2376
vn 0.1566 -0.2449 -0.9568
vn 0.8634 0.4434 0.2407
vn 0.8168 0.4668 0.3391
vn 0.9304 0.3225 0.1741
vn 0.3550 -0.9075 0.2243
vn 0.3381 -0.9287 0.1523
vn 0.2807 0.5190 -0.8074
vn -0.7557 -0.5909 0.2823
vn -0.7716 -0.5060 0.3855
vn -0.9689 -0.2234 0.1067
vn -0.9506 -0.3104 0.0078
vn 0.3580 -0.3634 -0.8601
vn 0.1638 -0.3980 -0.9027
vn -0.6832 0.7302 0.0019
vn 0.8868 0.1185 -0.4467
vn 0.8235 0.0419 -0.5658
vn 0.7409 -0.2946 -0.6035
vn -0.1713 -0.5319 -0.8293
vn -0.1754 -0.6192 -0.7654
vn -0.3642 -0.4906 -0.7916
vn -0.9264 0.0053 -0.3765
vn -0.9512 -0.1036 -0.2905
vn -0.5672 0.5472 -0.6155
vn -0.9417 0.2377 0.2380
vn -0.9436 0.1256 0.3062
vn -0.9245 0.1857 0.3329
vn -0.8758 0.3558 0.3263
vn -0.0000 -0.6295 -0.7770
vn 0.1754 -0.6192 -0.7654
vn 0.1713 -0.5319 -0.8293
vn 0.8144 0.5087 -0.2791
vn 0.8157 0.4599 -0.3509
vn 0.8210 0.5495 -0.1546
vn -0.4561 0.8648 0.2101
vn -0.3198 0.9086 0.2687
vn 0.8842 0.3593 -0.2985
vn -0.0000 -0.8480 0.5300
vn -0.0000 -0.9137 0.4065
vn 0.3803 -0.8569 0.3481
vn 0.4017 -0.7856 0.4706
vn 0.7414 -0.4204 -0.5231
vn 0.7236 -0.5651 -0.3964
vn 0.5470 -0.6248 -0.5571
vn -0.0000 -0.4062 -0.9138
vn -0.0000 -0.2534 -0.9674
vn -0.0000 -0.5408 -0.8412
vn -0.0767 0.9717 -0.2236
vn 0.9427 0.2474 -0.2240
vn 0.9239 0.1814 -0.3370
vn -0.7733 -0.4084 0.4851
vn -0.4152 -0.6038 0.6804
vn 0.7043 0.7062 0.0730
vn 0.7874 0.6163 -0.0109
vn -0.7210 0.6754 -0.1553
vn -0.8210 0.5495 -0.1546
vn -0.7874 0.6163 -0.0109
vn -0.0000 0.8409 -0.5412
vn -0.0000 0.9041 -0.4273
vn 0.4554 0.8188 -0.3495
vn 0.4686 0.7531 -0.4618
vn 0.9809 0.1936 -0.0165
vn 0.9634 0.2561 0.0794
vn 0.9755 0.1631 0.1475
vn 0.9939 0.0927 0.0597
vn -0.7570 0.5318 -0.3798
vn -0.7444 0.5952 -0.3027
vn 0.7687 0.6128 0.1832
vn 0.8414 0.5337 0.0842
vn -0.8932 0.4347 -0.1147
vn -0.1638 -0.3980 -0.9027
vn -0.3580 -0.3634 -0.8601
vn -0.3388 -0.2114 -0.9168
vn -0.1566 -0.2449 -0.9568
vn -0.1520 -0.0967 -0.9836
vn 0.2983 0.9344 0.1946
vn 0.3198 0.9086 0.2687
vn 0.9279 0.3656 0.0732
vn 0.7624 0.6241 -0.1713
vn -0.3338 0.8806 0.3364
vn -0.4915 0.8215 0.2890
vn -0.3170 -0.0648 -0.9462
vn -0.7899 0.5487 -0.2738
vn -0.4686 0.7531 -0.4618
vn -0.4691 0.1158 -0.8755
vn -0.5068 -0.0078 -0.8620
vn 0.9506 -0.3104 0.0078
vn 0.7557 -0.5909 0.2823
vn 0.7240 -0.6695 0.1661
vn 0.9133 -0.3955 -0.0976
vn 0.8997 0.2398 0.3648
vn -0.0000 1.0000 -0.0021
vn -0.5413 -0.1469 -0.8279
vn -0.7078 -0.0565 -0.7042
vn -0.6680 0.0731 -0.7405
vn 0.8555 -0.0788 -0.5117
vn 0.9264 0.0053 -0.3765
vn 0.9831 0.1296 -0.1290
vn -0.5712 0.2929 -0.7668
vn -0.6206 0.1907 -0.7606
vn -0.7233 0.2686 -0.6362
vn -0.6647 0.3622 -0.6534
vn -0.4338 0.2199 -0.8738
vn -0.1723 0.8377 0.5183
vn -0.1811 0.9062 0.3820
vn -0.3491 0.8195 0.4546
vn -0.8444 0.2499 0.4739
vn 0.8444 0.2499 0.4739
vn 0.7271 0.5410 0.4227
vn -0.9755 0.1631 0.1475
vn -0.1000 0.9887 -0.1114
vn -0.5078 0.3955 -0.7653
vn -0.5936 0.4507 -0.6667
vn -0.5174 0.5226 -0.6776
vn 0.9612 0.2756 -0.0110
vn 0.9706 -0.1266 0.2047
vn 0.9772 0.1854 -0.1029
vn -0.8168 0.4668 0.3391
vn -0.7271 0.5410 0.4227
vn 0.8361 0.3996 0.3757
vn 0.8700 0.1967 0.4522
vn -0.8322 0.2201 0.5088
vn -0.8700 0.1967 0.4522
vn 0.1864 0.4920 -0.8504
vn -0.0000 -0.6676 0.7445
vn -0.0000 -0.5612 0.8277
vn -0.8555 0.4037 0.3243
vn 0.9417 0.2377 0.2380
vn 0.8758 0.3558 0.3263
vn 0.9245 0.1857 0.3329
vn -0.6098 0.2323 0.7578
vn -0.6748 0.3989 0.6209
vn -0.8361 0.3996 0.3757
vn 0.9921 -0.0034 0.1251
vn 0.8630 -0.1965 -0.4654
vn 0.8275 -0.2475 -0.5039
vn 0.8947 0.0237 0.4461
vn -0.5029 0.3943 0.7692
vn -0.3764 0.3414 0.8613
vn -0.6951 0.5384 0.4764
vn -0.9173 0.0031 0.3982
vn -0.9349 -0.1192 0.3343
vn -0.8947 0.0237 0.4461
vn -0.2916 0.2738 0.9165
vn -0.5617 0.5923 0.5777
vn -0.3419 0.4005 0.8501
vn -0.3489 0.6810 0.6438
vn -0.1536 0.4664 0.8711
vn -0.1566 0.6936 0.7031
vn 0.9571 -0.2178 -0.1913
vn 0.9512 -0.1036 -0.2905
vn 0.9722 -0.1173 0.2026
vn -0.9613 -0.2085 0.1799
vn 0.5617 0.5923 0.5777
vn 0.3419 0.4005 0.8501
vn 0.5029 0.3943 0.7692
vn 0.3338 0.8806 0.3364
vn 0.1811 0.9062 0.3820
vn 0.7044 0.0381 -0.7088
vn 0.6772 -0.0263 -0.7354
vn 0.4103 0.1274 -0.9030
vn 0.1796 0.9355 0.3043
vn -0.7754 0.3297 -0.5386
vn 0.8471 -0.4715 -0.2453
vn 0.9370 -0.3384 -0.0871
vn 0.9043 -0.4208 -0.0723
vn 0.8056 -0.5559 -0.2047
vn -0.8868 0.1185 -0.4467
vn -0.9239 0.1814 -0.3370
vn -0.8679 0.2925 -0.4015
vn -0.8355 0.2278 -0.5001
vn -0.0000 0.9480 0.3184
vn -0.4071 -0.2450 0.8799
vn -0.7160 -0.0680 0.6948
vn -0.9793 -0.1604 0.1235
vn 0.9658 0.0687 -0.2499
vn -0.1425 0.9842 0.1052
vn -0.1201 0.9927 -0.0097
vn -0.1650 0.9615 0.2196
vn -0.4017 -0.7856 0.4706
vn -0.8763 -0.1849 -0.4449
vn -0.8555 -0.0788 -0.5117
vn -0.7332 -0.1871 -0.6537
vn -0.7409 -0.2946 -0.6035
vn -0.4750 0.5579 -0.6805
vn -0.0000 0.6413 -0.7673
vn -0.2138 0.9764 -0.0296
vn -0.5640 -0.2902 -0.7731
vn -0.8157 0.4599 -0.3509
vn -0.8144 0.5087 -0.2791
vn -0.3027 0.9506 -0.0684
vn -0.2531 0.9162 -0.3106
vn 0.3515 -0.6665 -0.6574
vn 0.3242 -0.7158 -0.6185
vn -0.1738 -0.6950 -0.6977
vn -0.1608 -0.7388 -0.6545
vn 0.4759 0.6672 -0.5730
vn -0.0000 0.7544 -0.6564
vn 0.5100 -0.6857 -0.5193
vn -0.5666 -0.4048 -0.7177
vn -0.3242 -0.7158 -0.6185
vn -0.8471 -0.4715 -0.2453
vn -0.7236 -0.5651 -0.3964
vn -0.6856 -0.6357 -0.3548
vn -0.8056 -0.5559 -0.2047
vn 0.6856 -0.6357 -0.3548
vn -0.9887 -0.1378 -0.0589
vn -0.9700 -0.2405 0.0360
vn -0.7414 -0.4204 -0.5231
vn -0.8796 -0.3172 -0.3544
vn -0.5677 0.8119 -0.1361
vn -0.5100 -0.6857 -0.5193
vn -0.9571 -0.2178 -0.1913
vn -0.9370 -0.3384 -0.0871
vn -0.4774 0.8783 -0.0263
vn -0.8046 0.3931 -0.4450
vn 0.8796 -0.3172 -0.3544
vn -0.7784 0.1597 -0.6072
vn -0.6909 0.6111 0.3863
vn -0.6419 0.7270 0.2439
vn -0.8235 0.0419 -0.5658
vn 0.6951 0.5384 0.4764
vn -0.0000 0.9132 0.4074
vn -0.0000 0.8349 0.5504
vn -0.8898 0.4082 -0.2041
vn -0.8842 0.3593 -0.2985
vn -0.9043 -0.4208 -0.0723
vn -0.9427 0.2474 -0.2240
vn -0.9449 0.3069 -0.1139
vn -0.9356 0.3530 -0.0102
vn -0.9512 -0.2959 0.0875
vn 0.8763 -0.1849 -0.4449
vn -0.9809 0.1936 -0.0165
vn 0.9349 -0.1192 0.3343
vn -0.3871 0.3312 -0.8605
vn -0.1367 0.3430 0.9293
vn -0.0000 0.3707 0.9288
vn 0.8555 0.4037 0.3243
vn -0.9634 0.2561 0.0794
vn -0.9304 0.3225 0.1741
vn -0.9567 -0.0329 0.2891
vn -0.9706 -0.1266 0.2047
vn 0.8322 0.2201 0.5088
vn 0.4645 0.4409 -0.7680
vn 0.6748 0.3989 0.6209
vn 0.6098 0.2323 0.7578
vn 0.1367 0.3430 0.9293
vn 0.2916 0.2738 0.9165
vn 0.3764 0.3414 0.8613
vn -0.0000 0.1786 -0.9839
vn -0.0000 -0.4501 0.8930
vn 0.4004 -0.3864 0.8309
vn -0.5312 0.7412 0.4104
vn -0.1796 0.9355 0.3043
vn 0.4067 -0.4999 0.7646
vn 0.7899 0.5487 -0.2738
vn -0.4214 0.1906 -0.8866
vn -0.4103 0.1274 -0.9030
vn -0.6772 -0.0263 -0.7354
vn -0.7044 0.0381 -0.7088
vn -0.0000 -0.7084 -0.7059
vn -0.7509 0.1398 -0.6454
vn -0.8275 -0.2475 -0.5039
vn -0.8630 -0.1965 -0.4654
vn -0.9160 -0.1072 -0.3866
vn -0.8619 -0.4682 -0.1948
vn -0.9133 -0.3955 -0.0976
vn -0.7850 0.2539 -0.5651
vn -0.8253 -0.5009 -0.2607
vn 0.4750 0.5579 -0.6805
vn -0.6398 -0.7685 -0.0087
vn 0.8016 0.3601 -0.4772
vn 0.9755 0.0860 -0.2025
vn -0.9552 -0.0104 -0.2957
vn -0.9755 0.0860 -0.2025
vn -0.8016 0.3601 -0.4772
vn -0.9772 0.1854 -0.1029
vn -0.4759 0.6672 -0.5730
vn 0.9689 -0.2234 0.1067
vn -0.8031 0.4627 -0.3755
vn 0.7160 -0.0680 0.6948
vn 0.7061 0.0153 0.7080
vn -0.9612 0.2756 -0.0110
vn 0.7733 -0.4084 0.4851
vn 0.4152 -0.6038 0.6804
vn 0.4139 -0.7027 0.5786
vn 0.7716 -0.5060 0.3855
vn -0.4139 -0.7027 0.5786
vn -0.0000 -0.7671 0.6415
vn 0.8031 0.4627 -0.3755
vn 0.4279 0.8918 -0.1467
vn 0.4378 0.8714 -0.2214
vn -0.8254 0.5330 0.1859
vn -0.8565 0.2695 0.4402
vn -0.4167 -0.1579 0.8952
vn -0.7061 0.0153 0.7080
vt 0.000000 0.000000
s 1
f 123/1/1 169/1/2 165/1/3 160/1/4
f 1/1/5 5/1/6 2/1/7
f 613/1/8 620/1/9 618/1/10 617/1/11
f 1/1/5 6/1/12 5/1/6
f 6/1/12 8/1/13 5/1/6
f 8/1/13 10/1/14 14/1/15 13/1/16
f 14/1/15 21/1/17 24/1/18 22/1/19
f 360/1/20 457/1/21 372/1/22 367/1/23
f 232/1/24 289/1/25 288/1/26 281/1/27
f 8/1/13 13/1/16 5/1/6
f 604/1/28 610/1/29 584/1/30 596/1/31
f 7/1/32 11/1/33 12/1/34 10/1/14
f 32/1/35 33/1/36 24/1/18 31/1/37
f 20/1/38 31/1/37 24/1/18 21/1/17
f 111/1/39 129/1/40 119/1/41 112/1/42
f 18/1/43 19/1/44 12/1/34 11/1/33
f 4/1/45 7/1/32 6/1/12 1/1/5
f 13/1/16 23/1/46 5/1/6
f 535/1/47 557/1/48 556/1/49 549/1/50
f 305/1/51 479/1/52 472/1/53 478/1/54
f 20/1/38 40/1/55 39/1/56 31/1/37
f 39/1/56 46/1/57 32/1/35 31/1/37
f 36/1/58 37/1/59 29/1/60 33/1/36
f 32/1/35 54/1/61 36/1/58 33/1/36
f 37/1/59 38/1/62 30/1/63 29/1/60
f 28/1/64 139/1/65 138/1/66 133/1/67
f 28/1/64 40/1/55 20/1/38 19/1/44
f 3/1/68 17/1/69 9/1/70 4/1/45
f 3/1/68 4/1/45 1/1/5 2/1/7
f 23/1/46 30/1/63 5/1/6
f 312/1/71 480/1/72 345/1/73 338/1/74
f 2/1/7 5/1/6 34/1/75
f 3/1/68 27/1/76 26/1/77 17/1/69
f 419/1/78 421/1/79 413/1/80 412/1/81
f 256/1/82 281/1/27 273/1/83 265/1/84
f 161/1/85 167/1/86 156/1/87 155/1/88
f 50/1/89 72/1/90 59/1/91 51/1/92
f 30/1/63 38/1/62 5/1/6
f 9/1/70 11/1/33 7/1/32 4/1/45
f 418/1/93 431/1/94 411/1/95 410/1/96
f 34/1/75 5/1/6 41/1/97
f 35/1/98 58/1/99 26/1/77 27/1/76
f 34/1/75 41/1/97 35/1/98 27/1/76
f 38/1/62 43/1/100 5/1/6
f 76/1/101 143/1/102 25/1/103 71/1/104
f 25/1/103 143/1/102 138/1/66 139/1/65
f 85/1/105 113/1/106 78/1/107 77/1/108
f 41/1/97 5/1/6 48/1/109
f 79/1/110 80/1/111 59/1/91 72/1/90
f 41/1/97 48/1/109 49/1/112 35/1/98
f 43/1/100 51/1/92 5/1/6
f 328/1/113 339/1/114 330/1/115 325/1/116
f 76/1/101 227/1/117 144/1/118 143/1/102
f 70/1/119 234/1/120 76/1/101 71/1/104
f 2/1/7 34/1/75 27/1/76 3/1/68
f 48/1/109 5/1/6 55/1/121
f 514/1/122 515/1/123 508/1/124 513/1/125
f 66/1/126 77/1/108 72/1/90 50/1/89
f 56/1/127 75/1/128 57/1/129 49/1/112
f 48/1/109 55/1/121 56/1/127 49/1/112
f 51/1/92 59/1/91 5/1/6
f 394/1/130 405/1/131 401/1/132 395/1/133
f 64/1/134 240/1/135 70/1/119 65/1/136
f 55/1/121 5/1/6 62/1/137
f 383/1/138 443/1/139 389/1/140 384/1/141
f 60/1/142 86/1/143 66/1/126 61/1/144
f 60/1/142 61/1/144 36/1/58 54/1/61
f 57/1/129 58/1/99 35/1/98 49/1/112
f 68/1/145 89/1/146 69/1/147 63/1/148
f 62/1/137 5/1/6 67/1/149
f 87/1/150 88/1/151 80/1/111 79/1/110
f 148/1/152 162/1/153 154/1/154 149/1/155
f 78/1/107 107/1/156 87/1/150 79/1/110
f 53/1/157 54/1/61 32/1/35 46/1/57
f 626/1/158 627/1/159 609/1/160 625/1/161
f 383/1/138 444/1/162 438/1/163 443/1/139
f 67/1/149 5/1/6 73/1/164
f 94/1/165 95/1/166 88/1/151 87/1/150
f 458/1/167 466/1/168 465/1/169 464/1/170
f 203/1/171 207/1/172 191/1/173 197/1/174
f 69/1/147 75/1/128 56/1/127 63/1/148
f 63/1/148 56/1/127 55/1/121 62/1/137
f 59/1/91 80/1/111 5/1/6
f 73/1/164 5/1/6 81/1/175
f 101/1/176 95/1/166 94/1/165 100/1/177
f 57/1/129 248/1/178 64/1/134 58/1/99
f 99/1/179 124/1/180 100/1/177 94/1/165
f 66/1/126 86/1/143 85/1/105 77/1/108
f 50/1/89 51/1/92 43/1/100 42/1/181
f 69/1/147 91/1/182 84/1/183 75/1/128
f 247/1/184 272/1/185 239/1/186 240/1/135
f 491/1/187 499/1/188 498/1/189 497/1/190
f 476/1/191 482/1/192 481/1/193 478/1/54
f 80/1/111 88/1/151 5/1/6
f 341/1/194 364/1/195 185/1/196 332/1/197
f 604/1/28 621/1/198 611/1/199 610/1/29
f 84/1/183 264/1/200 247/1/184 248/1/178
f 64/1/134 248/1/178 247/1/184 240/1/135
f 582/1/201 599/1/202 598/1/203 597/1/204
f 88/1/151 95/1/166 5/1/6
f 119/1/41 113/1/106 85/1/105 112/1/42
f 78/1/107 113/1/106 114/1/205 107/1/156
f 84/1/183 248/1/178 57/1/129 75/1/128
f 20/1/38 21/1/17 12/1/34 19/1/44
f 83/1/206 89/1/146 68/1/145 74/1/207
f 136/1/208 142/1/209 137/1/210 131/1/211
f 181/1/212 199/1/213 192/1/214 187/1/215
f 95/1/166 101/1/176 5/1/6
f 76/1/101 234/1/120 233/1/216 227/1/117
f 279/1/217 280/1/218 239/1/186 272/1/185
f 210/1/219 211/1/220 218/1/221 229/1/222
f 286/1/223 287/1/224 233/1/216 280/1/218
f 578/1/225 603/1/226 587/1/227 580/1/228
f 237/1/229 238/1/230 180/1/231 231/1/232
f 144/1/118 227/1/117 226/1/233 220/1/234
f 271/1/235 272/1/185 247/1/184 264/1/200
f 271/1/235 359/1/236 279/1/217 272/1/185
f 90/1/237 91/1/182 69/1/147 89/1/146
f 83/1/206 337/1/238 90/1/237 89/1/146
f 495/1/239 529/1/240 528/1/241 523/1/242
f 286/1/223 371/1/243 293/1/244 287/1/224
f 291/1/245 488/1/246 298/1/247 292/1/248
f 342/1/249 354/1/250 334/1/251 335/1/252
f 90/1/237 344/1/253 96/1/254 91/1/182
f 96/1/254 350/1/255 271/1/235 264/1/200
f 343/1/256 344/1/253 90/1/237 337/1/238
f 336/1/257 337/1/238 83/1/206 329/1/258
f 336/1/257 351/1/259 343/1/256 337/1/238
f 293/1/244 376/1/260 300/1/261 294/1/262
f 300/1/261 301/1/263 219/1/264 294/1/262
f 132/1/265 151/1/266 126/1/267 127/1/268
f 150/1/269 220/1/234 219/1/264 213/1/270
f 343/1/256 367/1/23 349/1/271 344/1/253
f 557/1/48 542/1/272 543/1/273 550/1/274
f 318/1/275 338/1/74 336/1/257 329/1/258
f 210/1/219 229/1/222 228/1/276 221/1/277
f 81/1/175 322/1/278 321/1/279 82/1/280
f 306/1/281 307/1/282 237/1/229 299/1/283
f 150/1/269 151/1/266 132/1/265 145/1/284
f 498/1/189 507/1/285 506/1/286 505/1/287
f 349/1/271 373/1/288 358/1/289 350/1/255
f 123/1/1 124/1/180 99/1/179 121/1/290
f 315/1/291 321/1/279 322/1/278 320/1/292
f 101/1/176 137/1/210 5/1/6
f 47/1/293 133/1/67 132/1/265 127/1/268
f 28/1/64 133/1/67 47/1/293 40/1/55
f 575/1/294 607/1/295 605/1/296 599/1/202
f 144/1/118 220/1/234 150/1/269 145/1/284
f 206/1/297 427/1/298 296/1/299 289/1/25
f 137/1/210 142/1/209 5/1/6
f 47/1/293 127/1/268 52/1/300 44/1/301
f 298/1/247 485/1/302 306/1/281 299/1/283
f 365/1/303 386/1/304 370/1/305 366/1/306
f 138/1/66 145/1/284 132/1/265 133/1/67
f 454/1/307 461/1/308 460/1/309 455/1/310
f 142/1/209 149/1/155 5/1/6
f 52/1/300 127/1/268 126/1/267 118/1/311
f 105/1/312 135/1/313 111/1/39 104/1/314
f 70/1/119 240/1/135 239/1/186 234/1/120
f 215/1/315 216/1/316 173/1/317 209/1/318
f 319/1/319 192/1/214 199/1/213 314/1/320
f 149/1/155 154/1/154 5/1/6
f 128/1/321 176/1/322 122/1/323 120/1/324
f 594/1/325 630/1/326 615/1/327 608/1/328
f 150/1/269 213/1/270 157/1/329 151/1/266
f 381/1/330 382/1/331 300/1/261 376/1/260
f 458/1/167 464/1/170 462/1/332 459/1/333
f 312/1/71 338/1/74 318/1/275 313/1/334
f 312/1/71 313/1/334 246/1/335 307/1/282
f 349/1/271 350/1/255 96/1/254 344/1/253
f 219/1/264 301/1/263 212/1/336 213/1/270
f 438/1/163 439/1/337 433/1/338 437/1/339
f 345/1/73 351/1/259 336/1/257 338/1/74
f 514/1/122 551/1/340 522/1/341 515/1/123
f 70/1/119 71/1/104 15/1/342 65/1/136
f 548/1/343 586/1/344 554/1/345 547/1/346
f 308/1/347 309/1/348 212/1/336 301/1/263
f 306/1/281 485/1/302 465/1/169 480/1/72
f 605/1/296 606/1/349 598/1/203 599/1/202
f 370/1/305 392/1/350 375/1/351 371/1/243
f 237/1/229 307/1/282 246/1/335 238/1/230
f 122/1/323 121/1/290 114/1/205 120/1/324
f 345/1/73 466/1/168 360/1/20 351/1/259
f 381/1/330 398/1/352 342/1/249 382/1/331
f 186/1/353 324/1/354 185/1/196 179/1/355
f 296/1/299 427/1/298 415/1/356 416/1/357
f 111/1/39 112/1/42 93/1/358 104/1/314
f 119/1/41 120/1/324 114/1/205 113/1/106
f 372/1/22 373/1/288 349/1/271 367/1/23
f 249/1/359 257/1/360 252/1/361 243/1/362
f 18/1/43 139/1/65 28/1/64 19/1/44
f 328/1/113 325/1/116 323/1/363 327/1/364
f 316/1/365 335/1/252 334/1/251 327/1/364
f 154/1/154 187/1/215 5/1/6
f 378/1/366 379/1/367 358/1/289 373/1/288
f 377/1/368 378/1/366 373/1/288 372/1/22
f 208/1/369 278/1/370 215/1/315 209/1/318
f 360/1/20 466/1/168 458/1/167 457/1/21
f 187/1/215 192/1/214 5/1/6
f 181/1/212 187/1/215 154/1/154 162/1/153
f 385/1/371 386/1/304 365/1/303 379/1/367
f 564/1/372 565/1/373 558/1/374 563/1/375
f 362/1/376 368/1/377 352/1/378 354/1/250
f 212/1/336 309/1/348 198/1/379 205/1/380
f 316/1/365 317/1/381 198/1/379 309/1/348
f 180/1/231 181/1/212 162/1/153 175/1/382
f 385/1/371 391/1/383 390/1/384 386/1/304
f 390/1/384 392/1/350 370/1/305 386/1/304
f 558/1/374 565/1/373 550/1/274 551/1/340
f 594/1/325 608/1/328 588/1/385 589/1/386
f 372/1/22 457/1/21 452/1/387 451/1/388
f 458/1/167 459/1/333 452/1/387 457/1/21
f 182/1/389 190/1/390 204/1/391
f 538/1/392 576/1/393 546/1/394 541/1/395
f 435/1/396 436/1/397 432/1/398 429/1/399
f 134/1/400 183/1/401 128/1/321 129/1/40
f 452/1/387 450/1/402 445/1/403 451/1/388
f 444/1/162 377/1/368 451/1/388 445/1/403
f 190/1/390 195/1/404 211/1/220
f 171/1/405 170/1/406 164/1/407 163/1/408
f 157/1/329 205/1/380 163/1/408 158/1/409
f 26/1/77 65/1/136 15/1/342 17/1/69
f 358/1/289 379/1/367 365/1/303 359/1/236
f 468/1/410 469/1/411 462/1/332 464/1/170
f 465/1/169 485/1/302 468/1/410 464/1/170
f 584/1/30 610/1/29 590/1/412 583/1/413
f 276/1/414 278/1/370 208/1/369 270/1/415
f 163/1/408 164/1/407 116/1/416 158/1/409
f 93/1/358 112/1/42 85/1/105 86/1/143
f 298/1/247 488/1/246 468/1/410 485/1/302
f 568/1/417 607/1/295 575/1/294 569/1/418
f 436/1/397 443/1/139 438/1/163 437/1/339
f 110/1/419 118/1/311 116/1/416 117/1/420
f 553/1/421 560/1/422 559/1/423 521/1/424
f 445/1/403 450/1/402 442/1/425 439/1/337
f 444/1/162 445/1/403 439/1/337 438/1/163
f 230/1/426 299/1/283 237/1/229 231/1/232
f 125/1/427 153/1/428 115/1/429 117/1/420
f 403/1/430 375/1/351 392/1/350 409/1/431
f 389/1/140 435/1/396 399/1/432 391/1/383
f 102/1/433 109/1/434 108/1/435 103/1/436
f 102/1/433 106/1/437 110/1/419 109/1/434
f 283/1/438 487/1/439 276/1/414 277/1/440
f 229/1/222 236/1/441 228/1/276
f 433/1/338 439/1/337 434/1/442 430/1/443
f 232/1/24 281/1/27 256/1/82 250/1/444
f 174/1/445 231/1/232 180/1/231 175/1/382
f 53/1/157 97/1/446 98/1/447 92/1/448
f 102/1/433 103/1/436 98/1/447 97/1/446
f 591/1/449 578/1/225 570/1/450 544/1/451
f 235/1/452 243/1/362 242/1/453
f 442/1/425 448/1/454 440/1/455 434/1/442
f 236/1/441 245/1/456 244/1/457
f 78/1/107 79/1/110 72/1/90 77/1/108
f 156/1/87 175/1/382 162/1/153 148/1/152
f 15/1/342 71/1/104 25/1/103 16/1/458
f 98/1/447 104/1/314 93/1/358 92/1/448
f 144/1/118 145/1/284 138/1/66 143/1/102
f 573/1/459 595/1/460 594/1/325 589/1/386
f 242/1/453 243/1/362 251/1/461
f 243/1/362 252/1/361 251/1/461
f 424/1/462 425/1/463 420/1/464 421/1/79
f 245/1/456 253/1/465 254/1/466
f 245/1/456 254/1/466 244/1/457
f 228/1/276 255/1/467 221/1/277
f 454/1/307 455/1/310 448/1/454 450/1/402
f 429/1/399 432/1/398 419/1/78 423/1/468
f 419/1/78 432/1/398 424/1/462 421/1/79
f 500/1/469 513/1/125 508/1/124 501/1/470
f 413/1/80 421/1/79 420/1/464 414/1/471
f 253/1/465 260/1/472 254/1/466
f 253/1/465 261/1/473 260/1/472
f 244/1/457 255/1/467 228/1/276 236/1/441
f 254/1/466 262/1/474 244/1/457
f 254/1/466 260/1/472 262/1/474
f 258/1/475 265/1/84 266/1/476
f 258/1/475 266/1/476 259/1/477
f 261/1/473 267/1/478 260/1/472
f 262/1/474 260/1/472 268/1/479
f 260/1/472 282/1/480 275/1/481 268/1/479
f 290/1/482 297/1/483 275/1/481 282/1/480
f 400/1/484 428/1/485 418/1/93 410/1/96
f 233/1/216 287/1/224 226/1/233 227/1/117
f 265/1/84 273/1/83 266/1/476
f 406/1/486 423/1/468 419/1/78 412/1/81
f 266/1/476 273/1/83 274/1/487
f 470/1/488 476/1/191 471/1/489 453/1/490
f 460/1/309 482/1/192 476/1/191 470/1/488
f 462/1/332 469/1/411 467/1/491 461/1/308
f 9/1/70 17/1/69 15/1/342 16/1/458
f 378/1/366 384/1/141 385/1/371 379/1/367
f 105/1/312 104/1/314 98/1/447 103/1/436
f 260/1/472 267/1/478 282/1/480
f 482/1/192 467/1/491 474/1/492 481/1/193
f 491/1/187 496/1/493 492/1/494 490/1/495
f 528/1/241 553/1/421 521/1/424 523/1/242
f 469/1/411 475/1/496 474/1/492 467/1/491
f 399/1/432 435/1/396 429/1/399 431/1/94
f 108/1/435 140/1/497 105/1/312 103/1/436
f 431/1/94 429/1/399 423/1/468 411/1/95
f 411/1/95 423/1/468 406/1/486 405/1/131
f 476/1/191 478/1/54 472/1/53 471/1/489
f 374/1/498 393/1/499 387/1/500 380/1/501
f 417/1/502 200/1/503 193/1/504 146/1/505
f 291/1/245 489/1/506 475/1/496 488/1/246
f 110/1/419 117/1/420 115/1/429 109/1/434
f 615/1/327 630/1/326 628/1/507 624/1/508
f 273/1/83 295/1/509 274/1/487
f 370/1/305 371/1/243 286/1/223 366/1/306
f 399/1/432 431/1/94 418/1/93 422/1/510
f 222/1/511 292/1/248 230/1/426 223/1/512
f 291/1/245 292/1/248 222/1/511 285/1/513
f 556/1/49 577/1/514 548/1/343 549/1/50
f 396/1/515 408/1/516 159/1/517 397/1/518
f 467/1/491 482/1/192 460/1/309 461/1/308
f 394/1/130 410/1/96 411/1/95 405/1/131
f 12/1/34 21/1/17 14/1/15 10/1/14
f 506/1/286 525/1/519 512/1/520 505/1/287
f 168/1/521 223/1/512 174/1/445 167/1/86
f 222/1/511 223/1/512 168/1/521 216/1/316
f 170/1/406 172/1/522 125/1/427 164/1/407
f 389/1/140 391/1/383 385/1/371 384/1/141
f 134/1/400 188/1/523 189/1/524 183/1/401
f 18/1/43 11/1/33 9/1/70 16/1/458
f 452/1/387 459/1/333 454/1/307 450/1/402
f 161/1/85 166/1/525 168/1/521 167/1/86
f 24/1/18 33/1/36 29/1/60 22/1/19
f 156/1/87 148/1/152 136/1/208 155/1/88
f 170/1/406 171/1/405 186/1/353 179/1/355
f 308/1/347 335/1/252 316/1/365 309/1/348
f 130/1/526 155/1/88 136/1/208 131/1/211
f 30/1/63 23/1/46 22/1/19 29/1/60
f 173/1/317 216/1/316 168/1/521 166/1/525
f 319/1/319 5/1/6 192/1/214
f 148/1/152 149/1/155 142/1/209 136/1/208
f 319/1/319 320/1/292 5/1/6
f 130/1/526 131/1/211 100/1/177 124/1/180
f 210/1/219 221/1/277 203/1/171 204/1/391
f 322/1/278 81/1/175 5/1/6
f 328/1/113 347/1/527 346/1/528 339/1/114
f 320/1/292 322/1/278 5/1/6
f 323/1/363 324/1/354 186/1/353 317/1/381
f 198/1/379 317/1/381 186/1/353 171/1/405
f 382/1/331 342/1/249 335/1/252 308/1/347
f 334/1/251 347/1/527 328/1/113 327/1/364
f 326/1/529 324/1/354 323/1/363 325/1/116
f 330/1/115 331/1/530 326/1/529 325/1/116
f 139/1/65 18/1/43 16/1/458 25/1/103
f 288/1/26 295/1/509 273/1/83 281/1/27
f 157/1/329 213/1/270 212/1/336 205/1/380
f 538/1/392 541/1/395 533/1/531 531/1/532
f 182/1/389 204/1/391 203/1/171 197/1/174
f 122/1/323 169/1/2 123/1/1 121/1/290
f 352/1/378 353/1/533 346/1/528 347/1/527
f 334/1/251 354/1/250 352/1/378 347/1/527
f 364/1/195 178/1/534 179/1/355 185/1/196
f 172/1/522 170/1/406 179/1/355 178/1/534
f 383/1/138 384/1/141 378/1/366 377/1/368
f 318/1/275 329/1/258 82/1/280 321/1/279
f 128/1/321 183/1/401 182/1/389 176/1/322
f 165/1/3 166/1/525 161/1/85 160/1/4
f 333/1/535 332/1/197 326/1/529 331/1/530
f 356/1/536 357/1/537 348/1/538 355/1/539
f 119/1/41 129/1/40 128/1/321 120/1/324
f 360/1/20 367/1/23 343/1/256 351/1/259
f 258/1/475 259/1/477 252/1/361 257/1/360
f 7/1/32 10/1/14 8/1/13 6/1/12
f 374/1/498 380/1/501 361/1/540 368/1/377
f 183/1/401 189/1/524 190/1/390 182/1/389
f 288/1/26 304/1/541 302/1/542 295/1/509
f 111/1/39 135/1/313 134/1/400 129/1/40
f 396/1/515 397/1/518 363/1/543 388/1/544
f 177/1/545 169/1/2 122/1/323 176/1/322
f 348/1/538 357/1/537 341/1/194 340/1/546
f 363/1/543 397/1/518 178/1/534 364/1/195
f 363/1/543 364/1/195 341/1/194 357/1/537
f 123/1/1 160/1/4 130/1/526 124/1/180
f 311/1/547 388/1/544 356/1/536 369/1/548
f 177/1/545 197/1/174 191/1/173 184/1/549
f 141/1/550 135/1/313 105/1/312 140/1/497
f 141/1/550 188/1/523 134/1/400 135/1/313
f 374/1/498 404/1/551 400/1/484 393/1/499
f 365/1/303 366/1/306 279/1/217 359/1/236
f 108/1/435 147/1/552 146/1/505 140/1/497
f 315/1/291 314/1/320 246/1/335 313/1/334
f 182/1/389 197/1/174 177/1/545 176/1/322
f 356/1/536 388/1/544 363/1/543 357/1/537
f 255/1/467 263/1/553 214/1/554 221/1/277
f 115/1/429 153/1/428 152/1/555 147/1/552
f 152/1/555 417/1/502 146/1/505 147/1/552
f 460/1/309 470/1/488 447/1/556 455/1/310
f 131/1/211 137/1/210 101/1/176 100/1/177
f 157/1/329 158/1/409 126/1/267 151/1/266
f 159/1/517 408/1/516 152/1/555 153/1/428
f 481/1/193 474/1/492 486/1/557 484/1/558
f 189/1/524 196/1/559 195/1/404 190/1/390
f 399/1/432 422/1/510 390/1/384 391/1/383
f 194/1/560 196/1/559 189/1/524 188/1/523
f 310/1/561 369/1/548 356/1/536 355/1/539
f 194/1/560 202/1/562 201/1/563 196/1/559
f 201/1/563 217/1/564 195/1/404 196/1/559
f 358/1/289 359/1/236 271/1/235 350/1/255
f 300/1/261 382/1/331 308/1/347 301/1/263
f 302/1/542 369/1/548 310/1/561 303/1/565
f 114/1/205 121/1/290 99/1/179 107/1/156
f 402/1/566 404/1/551 362/1/376 398/1/352
f 381/1/330 403/1/430 402/1/566 398/1/352
f 206/1/297 225/1/567 201/1/563 202/1/562
f 200/1/503 427/1/298 206/1/297 202/1/562
f 311/1/547 369/1/548 302/1/542 304/1/541
f 394/1/130 395/1/133 387/1/500 393/1/499
f 302/1/542 303/1/565 274/1/487 295/1/509
f 428/1/485 400/1/484 404/1/551 402/1/566
f 125/1/427 172/1/522 159/1/517 153/1/428
f 311/1/547 416/1/357 396/1/515 388/1/544
f 401/1/132 405/1/131 406/1/486
f 401/1/132 406/1/486 407/1/568
f 415/1/356 417/1/502 152/1/555 408/1/516
f 396/1/515 416/1/357 415/1/356 408/1/516
f 415/1/356 427/1/298 200/1/503 417/1/502
f 130/1/526 160/1/4 161/1/85 155/1/88
f 293/1/244 294/1/262 226/1/233 287/1/224
f 407/1/568 406/1/486 412/1/81
f 407/1/568 412/1/81 413/1/80
f 407/1/568 413/1/80 414/1/471
f 45/1/569 97/1/446 53/1/157 46/1/57
f 239/1/186 280/1/218 233/1/216 234/1/120
f 418/1/93 428/1/485 409/1/431 422/1/510
f 256/1/82 257/1/360 249/1/359 250/1/444
f 416/1/357 311/1/547 304/1/541 296/1/299
f 296/1/299 304/1/541 288/1/26 289/1/25
f 177/1/545 184/1/549 165/1/3 169/1/2
f 256/1/82 265/1/84 258/1/475 257/1/360
f 235/1/452 242/1/453 236/1/441 229/1/222
f 226/1/233 294/1/262 219/1/264 220/1/234
f 45/1/569 106/1/437 102/1/433 97/1/446
f 290/1/482 483/1/570 477/1/571 479/1/52
f 468/1/410 488/1/246 475/1/496 469/1/411
f 420/1/464 425/1/463 426/1/572
f 390/1/384 422/1/510 409/1/431 392/1/350
f 39/1/56 40/1/55 47/1/293 44/1/301
f 426/1/572 425/1/463 430/1/443
f 206/1/297 289/1/25 232/1/24 225/1/567
f 430/1/443 425/1/463 433/1/338
f 211/1/220 210/1/219 204/1/391 190/1/390
f 224/1/573 250/1/444 249/1/359 241/1/574
f 232/1/24 250/1/444 224/1/573 225/1/567
f 201/1/563 225/1/567 224/1/573 217/1/564
f 241/1/574 249/1/359 243/1/362 235/1/452
f 218/1/221 241/1/574 235/1/452 229/1/222
f 588/1/385 608/1/328 600/1/575 593/1/576
f 434/1/442 440/1/455 441/1/577
f 434/1/442 439/1/337 442/1/425
f 218/1/221 211/1/220 195/1/404 217/1/564
f 504/1/578 529/1/240 495/1/239 497/1/190
f 383/1/138 377/1/368 444/1/162
f 320/1/292 319/1/319 314/1/320 315/1/291
f 440/1/455 446/1/579 441/1/577
f 440/1/455 447/1/556 446/1/579
f 262/1/474 263/1/553 255/1/467 244/1/457
f 441/1/577 446/1/579 449/1/580
f 442/1/425 450/1/402 448/1/454
f 352/1/378 368/1/377 361/1/540 353/1/533
f 377/1/368 372/1/22 451/1/388
f 341/1/194 332/1/197 333/1/535 340/1/546
f 318/1/275 321/1/279 315/1/291 313/1/334
f 446/1/579 447/1/556 453/1/490
f 446/1/579 453/1/490 449/1/580
f 203/1/171 221/1/277 214/1/554 207/1/172
f 472/1/53 473/1/581 463/1/582 471/1/489
f 449/1/580 453/1/490 456/1/583
f 493/1/584 499/1/188 491/1/187 490/1/495
f 609/1/160 627/1/159 601/1/585 602/1/586
f 262/1/474 268/1/479 269/1/587 263/1/553
f 269/1/587 270/1/415 214/1/554 263/1/553
f 208/1/369 209/1/318 191/1/173 207/1/172
f 214/1/554 270/1/415 208/1/369 207/1/172
f 456/1/583 453/1/490 463/1/582
f 191/1/173 209/1/318 173/1/317 184/1/549
f 165/1/3 184/1/549 173/1/317 166/1/525
f 269/1/587 277/1/440 276/1/414 270/1/415
f 487/1/439 284/1/588 278/1/370 276/1/414
f 45/1/569 46/1/57 39/1/56 44/1/301
f 52/1/300 106/1/437 45/1/569 44/1/301
f 447/1/556 470/1/488 453/1/490
f 463/1/582 453/1/490 471/1/489
f 267/1/478 483/1/570 290/1/482 282/1/480
f 489/1/506 291/1/245 285/1/513 284/1/588
f 284/1/588 285/1/513 215/1/315 278/1/370
f 362/1/376 404/1/551 374/1/498 368/1/377
f 448/1/454 455/1/310 447/1/556 440/1/455
f 275/1/481 277/1/440 269/1/587 268/1/479
f 42/1/181 43/1/100 38/1/62 37/1/59
f 290/1/482 479/1/52 305/1/51 297/1/483
f 472/1/53 479/1/52 477/1/571 473/1/581
f 615/1/327 624/1/508 618/1/10 620/1/9
f 579/1/589 602/1/586 601/1/585 595/1/460
f 305/1/51 484/1/558 283/1/438 297/1/483
f 275/1/481 297/1/483 283/1/438 277/1/440
f 230/1/426 231/1/232 174/1/445 223/1/512
f 146/1/505 193/1/504 141/1/550 140/1/497
f 590/1/412 591/1/449 540/1/590 583/1/413
f 486/1/557 487/1/439 283/1/438 484/1/558
f 475/1/496 489/1/506 486/1/557 474/1/492
f 194/1/560 188/1/523 141/1/550 193/1/504
f 502/1/591 503/1/592 511/1/593 509/1/594
f 493/1/584 503/1/592 502/1/591 499/1/188
f 490/1/495 494/1/595 493/1/584
f 490/1/495 492/1/494 494/1/595
f 510/1/596 507/1/285 502/1/591 509/1/594
f 502/1/591 507/1/285 498/1/189 499/1/188
f 511/1/593 520/1/597 516/1/598 509/1/594
f 516/1/598 519/1/599 510/1/596 509/1/594
f 492/1/494 501/1/470 494/1/595
f 516/1/598 534/1/600 526/1/601 519/1/599
f 480/1/72 312/1/71 307/1/282 306/1/281
f 493/1/584 494/1/595 503/1/592
f 389/1/140 443/1/139 436/1/397 435/1/396
f 510/1/596 517/1/602 506/1/286 507/1/285
f 498/1/189 505/1/287 504/1/578 497/1/190
f 527/1/603 534/1/600 516/1/598 520/1/597
f 501/1/470 508/1/124 494/1/595
f 22/1/19 23/1/46 13/1/16 14/1/15
f 52/1/300 118/1/311 110/1/419 106/1/437
f 53/1/157 92/1/448 60/1/142 54/1/61
f 503/1/592 494/1/595 511/1/593
f 512/1/520 532/1/604 504/1/578 505/1/287
f 424/1/462 437/1/339 433/1/338 425/1/463
f 527/1/603 536/1/605 535/1/47 534/1/600
f 508/1/124 515/1/123 494/1/595
f 93/1/358 86/1/143 60/1/142 92/1/448
f 400/1/484 410/1/96 394/1/130 393/1/499
f 215/1/315 285/1/513 222/1/511 216/1/316
f 511/1/593 494/1/595 520/1/597
f 87/1/150 107/1/156 99/1/179 94/1/165
f 535/1/47 549/1/50 526/1/601 534/1/600
f 515/1/123 522/1/341 494/1/595
f 542/1/272 557/1/48 535/1/47 536/1/605
f 537/1/606 545/1/607 528/1/241 529/1/240
f 518/1/608 555/1/609 524/1/610 517/1/602
f 500/1/469 523/1/242 521/1/424 513/1/125
f 590/1/412 603/1/226 578/1/225 591/1/449
f 64/1/134 65/1/136 26/1/77 58/1/99
f 520/1/597 494/1/595 527/1/603
f 526/1/601 547/1/346 518/1/608 519/1/599
f 510/1/596 519/1/599 518/1/608 517/1/602
f 554/1/345 593/1/576 561/1/611 555/1/609
f 316/1/365 327/1/364 323/1/363 317/1/381
f 530/1/612 531/1/532 512/1/520 525/1/519
f 342/1/249 398/1/352 362/1/376 354/1/250
f 345/1/73 480/1/72 465/1/169 466/1/168
f 527/1/603 494/1/595 536/1/605
f 552/1/613 553/1/421 528/1/241 545/1/607
f 524/1/610 525/1/519 506/1/286 517/1/602
f 524/1/610 562/1/614 530/1/612 525/1/519
f 436/1/397 437/1/339 424/1/462 432/1/398
f 530/1/612 569/1/418 538/1/392 531/1/532
f 481/1/193 484/1/558 305/1/51 478/1/54
f 536/1/605 494/1/595 542/1/272
f 616/1/615 611/1/199 621/1/198 622/1/616
f 494/1/595 543/1/273 542/1/272
f 494/1/595 522/1/341 543/1/273
f 561/1/611 614/1/617 568/1/417 562/1/614
f 571/1/618 572/1/619 567/1/620 566/1/621
f 575/1/294 576/1/393 538/1/392 569/1/418
f 462/1/332 461/1/308 454/1/307 459/1/333
f 375/1/351 403/1/430 381/1/330 376/1/260
f 73/1/164 81/1/175 82/1/280 74/1/207
f 522/1/341 551/1/340 550/1/274 543/1/273
f 554/1/345 555/1/609 518/1/608 547/1/346
f 573/1/459 589/1/386 581/1/622 574/1/623
f 552/1/613 566/1/621 560/1/422 553/1/421
f 326/1/529 332/1/197 185/1/196 324/1/354
f 514/1/122 559/1/423 558/1/374 551/1/340
f 560/1/422 563/1/375 558/1/374 559/1/423
f 66/1/126 50/1/89 42/1/181 61/1/144
f 550/1/274 565/1/373 556/1/49 557/1/48
f 68/1/145 63/1/148 62/1/137 67/1/149
f 279/1/217 366/1/306 286/1/223 280/1/218
f 526/1/601 549/1/50 548/1/343 547/1/346
f 537/1/606 529/1/240 504/1/578 532/1/604
f 544/1/451 545/1/607 537/1/606 539/1/624
f 544/1/451 570/1/450 552/1/613 545/1/607
f 564/1/372 577/1/514 556/1/49 565/1/373
f 298/1/247 299/1/283 230/1/426 292/1/248
f 581/1/622 586/1/344 548/1/343 577/1/514
f 581/1/622 577/1/514 564/1/372 574/1/623
f 533/1/531 541/1/395 540/1/590 539/1/624
f 567/1/620 574/1/623 564/1/372 563/1/375
f 533/1/531 539/1/624 537/1/606 532/1/604
f 581/1/622 589/1/386 588/1/385 586/1/344
f 561/1/611 562/1/614 524/1/610 555/1/609
f 486/1/557 489/1/506 284/1/588 487/1/439
f 546/1/394 583/1/413 540/1/590 541/1/395
f 568/1/417 569/1/418 530/1/612 562/1/614
f 614/1/617 561/1/611 593/1/576 600/1/575
f 163/1/408 205/1/380 198/1/379 171/1/405
f 224/1/573 241/1/574 218/1/221 217/1/564
f 573/1/459 574/1/623 567/1/620 572/1/619
f 567/1/620 563/1/375 560/1/422 566/1/621
f 200/1/503 202/1/562 194/1/560 193/1/504
f 575/1/294 599/1/202 582/1/201 576/1/393
f 96/1/254 264/1/200 84/1/183 91/1/182
f 115/1/429 147/1/552 108/1/435 109/1/434
f 126/1/267 158/1/409 116/1/416 118/1/311
f 615/1/327 620/1/9 600/1/575 608/1/328
f 552/1/613 570/1/450 571/1/618 566/1/621
f 588/1/385 593/1/576 554/1/345 586/1/344
f 568/1/417 614/1/617 613/1/8 607/1/295
f 613/1/8 617/1/11 605/1/296 607/1/295
f 600/1/575 620/1/9 613/1/8 614/1/617
f 36/1/58 61/1/144 42/1/181 37/1/59
f 491/1/187 497/1/190 495/1/239 496/1/493
f 571/1/618 580/1/228 579/1/589 572/1/619
f 579/1/589 595/1/460 573/1/459 572/1/619
f 582/1/201 597/1/204 592/1/625 585/1/626
f 578/1/225 580/1/228 571/1/618 570/1/450
f 540/1/590 591/1/449 544/1/451 539/1/624
f 601/1/585 630/1/326 594/1/325 595/1/460
f 116/1/416 164/1/407 125/1/427 117/1/420
f 605/1/296 617/1/11 612/1/627 606/1/349
f 546/1/394 585/1/626 584/1/30 583/1/413
f 592/1/625 596/1/31 584/1/30 585/1/626
f 628/1/507 630/1/326 601/1/585 627/1/159
f 582/1/201 585/1/626 546/1/394 576/1/393
f 495/1/239 523/1/242 500/1/469 496/1/493
f 618/1/10 619/1/628 612/1/627 617/1/11
f 628/1/507 629/1/629 623/1/630 624/1/508
f 67/1/149 73/1/164 74/1/207 68/1/145
f 174/1/445 175/1/382 156/1/87 167/1/86
f 409/1/431 428/1/485 402/1/566 403/1/430
f 180/1/231 238/1/230 199/1/213 181/1/212
f 587/1/227 602/1/586 579/1/589 580/1/228
f 397/1/518 159/1/517 172/1/522 178/1/534
f 82/1/280 329/1/258 83/1/206 74/1/207
f 611/1/199 603/1/226 590/1/412 610/1/29
f 611/1/199 616/1/615 587/1/227 603/1/226
f 618/1/10 624/1/508 623/1/630 619/1/628
f 246/1/335 314/1/320 199/1/213 238/1/230
f 500/1/469 501/1/470 492/1/494 496/1/493
f 626/1/158 629/1/629 628/1/507 627/1/159
f 375/1/351 376/1/260 293/1/244 371/1/243
f 587/1/227 616/1/615 609/1/160 602/1/586
f 521/1/424 559/1/423 514/1/122 513/1/125
f 622/1/616 625/1/161 609/1/160 616/1/615
f 512/1/520 531/1/532 533/1/531 532/1/604
