# Blender 4.3.2
# www.blender.org
o hair.038
v 6.982577 0.323980 0.005215
v 6.982036 0.322927 0.027015
v 6.981737 0.320989 0.025055
v 6.977946 0.316607 0.017361
v 6.976413 0.318543 0.013269
v 6.980272 0.333197 0.003675
v 6.974465 0.323176 0.002268
v 6.975147 0.319587 -0.004308
v 6.976058 0.317397 -0.009895
v 6.985748 0.321931 -0.009897
v 6.974624 0.325823 0.005215
v 6.980127 0.318541 0.020997
v 6.975171 0.322363 0.008562
v 6.981822 0.325331 0.028050
v 6.977794 0.319888 -0.014393
v 6.980989 0.326613 -0.021475
v 6.989607 0.322740 -0.019438
v 6.988080 0.320450 -0.011271
v 6.980021 0.323815 -0.019349
v 6.978439 0.330769 0.028075
v 6.982865 0.323998 -0.023428
v 6.988142 0.319308 -0.027908
v 6.991886 0.317401 -0.030042
v 6.997495 0.322337 -0.022585
v 6.991721 0.320391 -0.017570
v 6.991691 0.318113 -0.013207
v 6.978177 0.332934 0.028413
v 7.005411 0.323259 -0.025512
v 6.995846 0.319316 -0.031829
v 6.998355 0.319372 -0.019336
v 6.995697 0.316798 -0.014444
v 6.989099 0.353281 0.007366
v 6.978898 0.334450 0.028791
v 7.002676 0.324002 -0.033435
v 7.005411 0.318511 -0.020208
v 7.005411 0.315691 -0.015394
v 7.000215 0.316018 -0.015236
v 6.984309 0.339945 0.030163
v 7.005411 0.326613 -0.033786
v 7.012466 0.319372 -0.019336
v 7.010607 0.316018 -0.015236
v 6.985411 0.341624 0.030582
v 7.008145 0.324002 -0.033435
v 7.013327 0.322337 -0.022585
v 7.019101 0.320391 -0.017570
v 7.015124 0.316798 -0.014444
v 6.985828 0.343391 0.031096
v 7.014975 0.319316 -0.031829
v 7.018935 0.317401 -0.030042
v 7.021214 0.322740 -0.019438
v 7.019130 0.318113 -0.013207
v 6.985558 0.350764 0.033565
v 7.022680 0.319308 -0.027908
v 7.027956 0.323998 -0.023428
v 7.029832 0.326613 -0.021475
v 7.025074 0.321931 -0.009897
v 7.022741 0.320450 -0.011271
v 6.986195 0.352997 0.033893
v 7.030801 0.323815 -0.019349
v 7.033027 0.319888 -0.014393
v 7.034763 0.317397 -0.009895
v 7.028244 0.323980 0.005215
v 7.030550 0.333197 0.003675
v 6.987175 0.354446 0.033905
v 7.035674 0.319587 -0.004308
v 7.032645 0.332934 0.028413
v 7.021723 0.353281 0.007366
v 7.028785 0.322927 0.027015
v 7.032382 0.330769 0.028075
v 7.028999 0.325331 0.028050
v 6.992088 0.363977 0.018391
v 6.995869 0.362984 0.031964
v 6.994047 0.360897 0.032639
v 7.036356 0.323176 0.002268
v 7.031924 0.334450 0.028791
v 7.029085 0.320989 0.025055
v 6.996672 0.365068 0.030966
v 7.005411 0.363219 0.018391
v 7.005411 0.370065 0.024854
v 6.998104 0.370889 0.027199
v 6.998790 0.373186 0.025766
v 7.036198 0.325823 0.005215
v 7.026513 0.339945 0.030163
v 7.030694 0.318541 0.020997
v 7.018733 0.363977 0.018391
v 7.012032 0.373186 0.025766
v 7.035651 0.322363 0.008562
v 7.025410 0.341624 0.030582
v 7.032876 0.316607 0.017361
v 7.014953 0.362984 0.031964
v 7.014149 0.365068 0.030966
v 7.012718 0.370889 0.027199
v 7.034409 0.318543 0.013269
v 7.024993 0.343391 0.031096
v 7.016774 0.360897 0.032639
v 7.025263 0.350764 0.033565
v 7.023646 0.354446 0.033905
v 7.024627 0.352997 0.033893
v 7.005411 0.370065 0.024854
v 7.005411 0.375650 0.018858
v 6.998790 0.373186 0.025766
v 7.012032 0.373186 0.025766
v 7.005411 0.377325 0.012717
v 6.999977 0.378204 0.019006
v 7.010921 0.379963 0.012878
v 7.010845 0.378204 0.019006
v 6.997239 0.378537 0.019145
v 6.990061 0.377201 0.020165
v 6.998104 0.370889 0.027199
v 7.012718 0.370889 0.027199
v 7.020760 0.377201 0.020165
v 7.013583 0.378537 0.019145
v 6.999948 0.379963 0.012878
v 7.014648 0.381590 0.006858
v 7.011312 0.381363 0.006994
v 6.986863 0.380741 0.006634
v 6.984345 0.380048 0.006518
v 6.986530 0.375897 0.020340
v 6.983779 0.374232 0.020572
v 6.996672 0.365068 0.030966
v 7.023958 0.380741 0.006634
v 7.019377 0.381444 0.006789
v 6.999510 0.381363 0.006994
v 6.996173 0.381590 0.006858
v 6.978508 0.370771 0.020881
v 6.995869 0.362984 0.031964
v 7.015564 0.383298 -0.005503
v 6.999293 0.382589 -0.000434
v 6.991444 0.381444 0.006789
v 6.995257 0.383298 -0.005503
v 7.005411 0.379000 0.006937
v 6.977185 0.369413 0.020937
v 6.994047 0.360897 0.032639
v 7.011924 0.383113 -0.005365
v 7.011495 0.382589 -0.000434
v 7.002360 0.381315 -0.000732
v 6.998898 0.383113 -0.005365
v 7.005411 0.379663 0.000961
v 7.008448 0.381315 -0.000732
v 6.988295 0.379447 -0.006101
v 6.976201 0.367177 0.020898
v 6.974845 0.359869 0.020770
v 6.987175 0.354446 0.033905
v 7.008556 0.381878 -0.005208
v 7.005411 0.380326 -0.005015
v 6.984814 0.377522 -0.006401
v 6.990318 0.382329 -0.010665
v 6.988090 0.380751 -0.013153
v 6.981935 0.377709 0.006338
v 6.986195 0.352997 0.033893
v 6.974367 0.358089 0.020739
v 7.007623 0.380890 -0.008628
v 6.982008 0.375915 -0.007051
v 6.998482 0.380250 -0.015703
v 6.997105 0.378884 -0.018836
v 6.986251 0.378200 -0.015272
v 6.977937 0.372082 0.005859
v 6.973340 0.355689 0.020847
v 6.985558 0.350764 0.033565
v 7.009934 0.381115 -0.012188
v 6.976103 0.373043 -0.008399
v 6.982780 0.373199 -0.019365
v 7.000887 0.381115 -0.012188
v 6.995843 0.377334 -0.021852
v 6.985828 0.343391 0.031096
v 6.969444 0.347738 0.021206
v 6.974133 0.371118 -0.008878
v 7.003198 0.380890 -0.008628
v 7.002265 0.381878 -0.005208
v 6.993826 0.374390 -0.028006
v 6.976360 0.370122 0.005696
v 6.985411 0.341624 0.030582
v 6.968943 0.345834 0.021292
v 6.974854 0.368187 0.005671
v 6.973099 0.368702 -0.009178
v 7.005411 0.381132 -0.009112
v 6.981411 0.370855 -0.021033
v 6.992845 0.372707 -0.030457
v 6.984309 0.339945 0.030163
v 6.969345 0.343647 0.021041
v 6.970902 0.361752 -0.009883
v 6.969574 0.362048 0.005540
v 6.980097 0.368546 -0.022403
v 6.992290 0.370394 -0.031820
v 6.968733 0.360321 0.005567
v 6.978898 0.334450 0.028791
v 6.972347 0.336487 0.020218
v 6.970227 0.359794 -0.010093
v 6.991547 0.362905 -0.033668
v 6.975791 0.362841 -0.026729
v 6.968292 0.357948 0.005562
v 6.972791 0.334511 0.019991
v 6.978177 0.332934 0.028413
v 6.968992 0.357103 -0.010408
v 7.005411 0.381592 -0.013226
v 6.975022 0.360848 -0.027582
v 6.991288 0.360858 -0.034325
v 6.968742 0.349644 0.005703
v 6.978439 0.330769 0.028075
v 6.972803 0.332347 0.019840
v 6.965205 0.349848 -0.011363
v 7.005411 0.380959 -0.017375
v 6.974955 0.358235 -0.027542
v 6.990780 0.358039 -0.035742
v 6.968744 0.347681 0.005728
v 6.971524 0.326911 0.019461
v 6.981822 0.325331 0.028050
v 6.964670 0.347681 -0.011512
v 7.005411 0.380184 -0.020812
v 6.976538 0.350149 -0.025906
v 6.989589 0.350513 -0.040174
v 6.968085 0.345493 0.005663
v 6.982036 0.322927 0.027015
v 6.965124 0.345345 -0.011374
v 7.012339 0.380250 -0.015703
v 6.989502 0.348207 -0.040874
v 6.976490 0.347709 -0.025856
v 6.965664 0.338761 0.005490
v 6.967900 0.339879 -0.010658
v 7.020503 0.382329 -0.010665
v 7.013716 0.378884 -0.018836
v 7.022526 0.379447 -0.006101
v 6.975656 0.345371 -0.026856
v 6.989506 0.345768 -0.040471
v 6.965136 0.336341 0.005420
v 6.968653 0.337147 -0.010446
v 7.022732 0.380751 -0.013153
v 7.026476 0.380048 0.006518
v 7.026007 0.377522 -0.006401
v 6.990279 0.340024 -0.037806
v 6.973578 0.339916 -0.029300
v 6.965739 0.333896 0.005421
v 6.968296 0.333675 -0.010665
v 7.024291 0.375897 0.020340
v 7.028887 0.377709 0.006338
v 7.028813 0.375915 -0.007051
v 6.973602 0.337147 -0.029303
v 6.990425 0.337147 -0.037017
v 6.972392 0.328355 0.005258
v 7.027042 0.374232 0.020572
v 7.014149 0.365068 0.030966
v 7.024570 0.378200 -0.015272
v 6.974463 0.334426 -0.028469
v 6.990338 0.333722 -0.036800
v 6.971794 0.324507 0.019293
v 6.974624 0.325823 0.005215
v 7.032313 0.370771 0.020881
v 6.979350 0.329050 -0.023286
v 6.989916 0.328757 -0.037274
v 6.973170 0.322084 0.018701
v 6.975171 0.322363 0.008562
v 6.966872 0.328756 -0.011207
v 6.966835 0.326613 -0.011300
v 7.014953 0.362984 0.031964
v 7.033637 0.369413 0.020937
v 6.989923 0.326613 -0.036961
v 6.980989 0.326613 -0.021475
v 6.976413 0.318543 0.013269
v 6.975733 0.318848 0.017992
v 6.974465 0.323176 0.002268
v 6.968284 0.324030 -0.011171
v 7.016774 0.360897 0.032639
v 7.034620 0.367177 0.020898
v 7.032885 0.372082 0.005859
v 6.982865 0.323998 -0.023428
v 6.990146 0.324234 -0.035872
v 6.977946 0.316607 0.017361
v 6.975147 0.319587 -0.004308
v 6.972441 0.320141 -0.010518
v 7.035976 0.359869 0.020770
v 7.023646 0.354446 0.033905
v 7.034719 0.373043 -0.008399
v 6.988142 0.319308 -0.027908
v 6.990984 0.320209 -0.032894
v 6.980021 0.323815 -0.019349
v 6.976058 0.317397 -0.009895
v 7.024627 0.352997 0.033893
v 7.036455 0.358089 0.020739
v 7.036688 0.371118 -0.008878
v 6.991886 0.317401 -0.030042
v 6.977794 0.319888 -0.014393
v 7.037482 0.355689 0.020847
v 7.025263 0.350764 0.033565
v 7.034461 0.370122 0.005696
v 7.035967 0.368187 0.005671
v 7.037723 0.368702 -0.009178
v 7.024993 0.343391 0.031096
v 7.041377 0.347738 0.021206
v 7.039919 0.361752 -0.009883
v 7.041247 0.362048 0.005540
v 7.025410 0.341624 0.030582
v 7.041879 0.345834 0.021292
v 7.042088 0.360321 0.005567
v 7.040595 0.359794 -0.010093
v 7.026513 0.339945 0.030163
v 7.041476 0.343647 0.021041
v 7.042529 0.357948 0.005562
v 7.041829 0.357103 -0.010408
v 7.031924 0.334450 0.028791
v 7.038474 0.336487 0.020218
v 7.042079 0.349644 0.005703
v 7.045616 0.349848 -0.011363
v 7.038030 0.334511 0.019991
v 7.032645 0.332934 0.028413
v 7.042078 0.347681 0.005728
v 7.046151 0.347681 -0.011512
v 7.032382 0.330769 0.028075
v 7.038018 0.332347 0.019840
v 7.042736 0.345493 0.005663
v 7.045697 0.345345 -0.011374
v 7.039298 0.326911 0.019461
v 7.028999 0.325331 0.028050
v 7.042921 0.339879 -0.010658
v 7.045157 0.338761 0.005490
v 7.028785 0.322927 0.027015
v 7.039027 0.324507 0.019293
v 7.045686 0.336341 0.005420
v 7.042168 0.337147 -0.010446
v 7.029085 0.320989 0.025055
v 7.037651 0.322084 0.018701
v 7.045082 0.333896 0.005421
v 7.042526 0.333675 -0.010665
v 7.030694 0.318541 0.020997
v 7.035088 0.318848 0.017992
v 7.038429 0.328355 0.005258
v 7.043950 0.328756 -0.011207
v 7.032876 0.316607 0.017361
v 7.036198 0.325823 0.005215
v 7.043987 0.326613 -0.011300
v 7.036356 0.323176 0.002268
v 7.042538 0.324030 -0.011171
v 7.035651 0.322363 0.008562
v 7.035674 0.319587 -0.004308
v 7.038381 0.320141 -0.010518
v 7.034409 0.318543 0.013269
v 7.034763 0.317397 -0.009895
v 7.005411 0.378242 -0.023624
v 7.014978 0.377334 -0.021852
v 7.005411 0.372518 -0.027966
v 7.016995 0.374390 -0.028006
v 7.005411 0.370328 -0.030010
v 7.028041 0.373199 -0.019365
v 7.017976 0.372707 -0.030457
v 7.005411 0.368455 -0.032061
v 7.029411 0.370855 -0.021033
v 7.018531 0.370394 -0.031820
v 7.005411 0.363570 -0.037970
v 7.030725 0.368546 -0.022403
v 7.019274 0.362905 -0.033668
v 7.005411 0.361901 -0.039237
v 7.035030 0.362841 -0.026729
v 7.019533 0.360858 -0.034325
v 7.005411 0.358980 -0.039895
v 7.035800 0.360848 -0.027582
v 7.020041 0.358039 -0.035742
v 7.005411 0.350414 -0.040322
v 7.035866 0.358235 -0.027542
v 7.021232 0.350513 -0.040174
v 7.005411 0.348207 -0.040531
v 7.034283 0.350149 -0.025906
v 7.021319 0.348207 -0.040874
v 7.005411 0.345750 -0.041229
v 7.034332 0.347709 -0.025856
v 7.021316 0.345768 -0.040471
v 7.005411 0.339909 -0.043777
v 7.035166 0.345371 -0.026856
v 7.020542 0.340024 -0.037806
v 7.005411 0.337147 -0.043671
v 7.037243 0.339916 -0.029300
v 7.020396 0.337147 -0.037017
v 7.005411 0.334430 -0.042276
v 7.037219 0.337147 -0.029303
v 7.020483 0.333722 -0.036800
v 7.005411 0.328954 -0.035983
v 7.036358 0.334426 -0.028469
v 7.020905 0.328757 -0.037274
v 7.005411 0.326613 -0.033786
v 7.031472 0.329050 -0.023286
v 7.020899 0.326613 -0.036961
v 7.002676 0.324002 -0.033435
v 7.029832 0.326613 -0.021475
v 7.020675 0.324234 -0.035872
v 7.008145 0.324002 -0.033435
v 6.995846 0.319316 -0.031829
v 7.030801 0.323815 -0.019349
v 7.027956 0.323998 -0.023428
v 7.014975 0.319316 -0.031829
v 7.019837 0.320209 -0.032894
v 7.033027 0.319888 -0.014393
v 7.022680 0.319308 -0.027908
v 7.018935 0.317401 -0.030042
v 6.981737 0.320989 0.025055
v 6.980127 0.318541 0.020997
vn 0.8593 -0.5092 0.0477
vn 0.9949 0.0987 0.0190
vn 0.9659 -0.2590 0.0019
vn 0.6317 -0.7457 -0.2118
vn 0.0886 -0.8557 -0.5099
vn 0.9178 -0.3970 -0.0052
vn 0.8655 -0.5002 -0.0258
vn 0.9791 -0.1872 0.0797
vn 0.9948 -0.0061 0.1017
vn -0.1187 -0.8254 0.5519
vn 0.0330 -0.9171 0.3973
vn 0.3596 -0.9326 0.0302
vn 0.1211 -0.9787 0.1656
vn -0.2257 -0.9737 0.0325
vn 0.8318 -0.5517 -0.0610
vn -0.1280 -0.7521 -0.6466
vn 0.4231 -0.8256 -0.3734
vn -0.1212 -0.9787 0.1656
vn 0.4761 -0.8639 -0.1644
vn 0.3657 -0.9297 -0.0448
vn 0.1311 -0.9887 -0.0722
vn -0.4761 -0.8639 -0.1644
vn 0.5734 -0.6641 -0.4798
vn -0.1311 -0.9887 -0.0722
vn 0.9297 0.3626 0.0651
vn 0.9411 0.3222 0.1027
vn -0.4281 -0.7642 0.4823
vn -0.3657 -0.9297 -0.0448
vn -0.1054 -0.8881 0.4473
vn -0.1598 -0.9168 0.3661
vn 0.1054 -0.8881 0.4473
vn 0.0123 -0.9840 -0.1779
vn -0.9850 0.1134 0.1300
vn -0.9794 0.1409 0.1448
vn -0.8767 -0.1508 0.4567
vn -0.8612 0.0464 0.5061
vn -0.4818 -0.7684 -0.4213
vn -0.3772 -0.7746 -0.5076
vn -0.0000 -0.9497 -0.3131
vn 0.2174 -0.7789 -0.5882
vn -0.0000 -0.7938 -0.6082
vn -0.0000 0.5775 -0.8164
vn -0.0000 0.5044 -0.8635
vn -0.3147 0.4808 -0.8184
vn -0.2697 0.5853 -0.7646
vn -0.9791 -0.1872 0.0797
vn -0.8655 -0.5002 -0.0258
vn -0.9178 -0.3970 -0.0052
vn -0.9948 -0.0061 0.1017
vn 0.3755 -0.9192 0.1189
vn 0.5737 -0.7731 -0.2706
vn 0.1696 -0.8186 -0.5487
vn -0.0000 -0.8343 -0.5513
vn -0.2174 -0.7789 -0.5882
vn -0.1696 -0.8186 -0.5487
vn -0.2911 -0.8001 -0.5245
vn 0.7734 -0.6044 -0.1911
vn -0.0000 -0.9267 -0.3757
vn 0.7030 0.3522 -0.6179
vn 0.6731 0.4814 -0.5614
vn 0.8796 0.4502 -0.1534
vn 0.9277 0.3322 -0.1700
vn -0.6946 0.5169 0.5003
vn -0.4067 0.4193 0.8117
vn -0.3077 0.4884 0.8166
vn -0.5751 0.6420 0.5070
vn 0.9113 -0.4073 -0.0598
vn -0.5737 -0.7731 -0.2706
vn -0.0123 -0.9840 -0.1779
vn 0.2911 -0.8001 -0.5245
vn 0.9879 -0.1318 0.0812
vn -0.3755 -0.9192 0.1189
vn 0.1598 -0.9168 0.3661
vn -0.0000 0.7563 -0.6542
vn -0.1757 0.7963 -0.5788
vn -0.2011 0.8256 -0.5272
vn -0.0000 0.8257 -0.5641
vn 0.3772 -0.7746 -0.5076
vn 0.4818 -0.7684 -0.4213
vn 0.9801 -0.1605 0.1170
vn 0.4281 -0.7642 0.4823
vn -0.1993 0.8191 0.5380
vn -0.3601 0.7427 0.5646
vn -0.2278 0.5720 0.7879
vn 0.0451 0.6989 0.7138
vn 0.8983 -0.4294 0.0937
vn -0.5734 -0.6641 -0.4798
vn -0.4231 -0.8256 -0.3734
vn -0.3596 -0.9326 0.0302
vn -0.8593 -0.5092 0.0477
vn 0.7651 -0.6385 0.0835
vn -0.0330 -0.9171 0.3973
vn 0.5579 0.0302 0.8294
vn 0.8521 0.1104 0.5116
vn 0.8195 0.1915 0.5402
vn 0.6465 0.1221 0.7531
vn -0.9411 0.3222 0.1027
vn -0.9297 0.3626 0.0651
vn 0.9409 -0.3387 -0.0084
vn 0.8585 -0.4960 -0.1306
vn 0.7296 -0.6811 0.0624
vn 0.1187 -0.8254 0.5519
vn -0.9949 0.0987 0.0190
vn -0.9659 -0.2590 0.0019
vn 0.8584 -0.4328 -0.2753
vn -0.9409 -0.3387 -0.0084
vn -0.4277 -0.7619 0.4863
vn -0.0000 -0.6317 0.7752
vn 0.8701 -0.4117 -0.2711
vn 0.4277 -0.7619 0.4863
vn 0.2257 -0.9737 0.0325
vn -0.7734 -0.6044 -0.1911
vn -0.8318 -0.5517 -0.0610
vn -0.2731 0.5253 0.8059
vn -0.4882 0.6746 0.5537
vn 0.1280 -0.7521 -0.6466
vn -0.9113 -0.4073 -0.0598
vn -0.6317 -0.7457 -0.2118
vn -0.8585 -0.4960 -0.1306
vn -0.8584 -0.4328 -0.2753
vn -0.8701 -0.4117 -0.2711
vn -0.0886 -0.8557 -0.5099
vn -0.9879 -0.1318 0.0812
vn -0.7296 -0.6811 0.0624
vn -0.9801 -0.1605 0.1170
vn -0.7651 -0.6385 0.0835
vn -0.8983 -0.4294 0.0937
vn 0.2901 0.9543 -0.0724
vn 0.4060 0.8840 -0.2316
vn 0.1769 0.8822 -0.4364
vn 0.0791 0.9527 -0.2935
vn 0.0003 0.8657 0.5006
vn 0.2757 0.8560 0.4373
vn -0.0000 0.7499 0.6616
vn -0.2757 0.8563 0.4367
vn -0.2369 0.9414 0.2399
vn 0.0008 0.9670 0.2549
vn 0.3685 0.9228 0.1123
vn 0.3523 0.9359 -0.0023
vn 0.1888 0.9798 -0.0660
vn 0.1664 0.9777 0.1279
vn 0.0094 0.8955 0.4450
vn 0.2278 0.5720 0.7879
vn 0.3601 0.7427 0.5646
vn 0.1993 0.8191 0.5380
vn -0.0451 0.6989 0.7138
vn 0.2546 0.9494 0.1840
vn 0.0422 0.9807 0.1910
vn -0.0096 0.8956 0.4448
vn 0.2383 0.9411 0.2399
vn -0.0463 0.9807 0.1900
vn -0.9315 0.3366 0.1376
vn -0.9552 0.2597 0.1421
vn -0.8195 0.1915 0.5402
vn -0.7884 0.2821 0.5466
vn -0.2548 0.9491 0.1849
vn 0.3101 0.9457 0.0973
vn 0.1622 0.9753 0.1497
vn 0.6608 0.2477 0.7085
vn 0.7884 0.2821 0.5466
vn 0.4882 0.6746 0.5537
vn 0.6355 0.7677 0.0823
vn 0.4776 0.8754 0.0740
vn -0.0000 0.6806 -0.7327
vn -0.2144 0.7091 -0.6717
vn 0.4061 -0.2032 -0.8910
vn 0.7515 0.1658 -0.6386
vn 0.7522 -0.1617 -0.6388
vn 0.4023 -0.1824 -0.8971
vn 0.2731 0.5253 0.8059
vn 0.3077 0.4884 0.8166
vn 0.5751 0.6420 0.5070
vn -0.9807 0.1380 0.1385
vn -0.8521 0.1104 0.5116
vn -0.6416 -0.4624 -0.6120
vn -0.7401 -0.6401 -0.2062
vn -0.8845 -0.4135 -0.2159
vn -0.6029 -0.5951 -0.5314
vn -0.1442 0.9823 0.1198
vn -0.3693 0.9225 0.1119
vn -0.1660 0.9747 0.1499
vn 0.4678 0.8823 0.0522
vn 0.1154 0.9927 -0.0351
vn 0.4067 0.4193 0.8117
vn 0.6946 0.5169 0.5003
vn -0.1736 0.9831 -0.0581
vn 0.7796 -0.1443 0.6095
vn 0.6712 -0.2148 0.7095
vn 0.9358 -0.0766 0.3441
vn 0.8898 -0.1286 0.4380
vn -0.1118 0.9929 -0.0398
vn -0.3528 0.9357 -0.0030
vn 0.8837 -0.1765 0.4335
vn 0.8640 -0.0732 0.4981
vn 0.9905 -0.0571 0.1248
vn 0.9772 0.1475 0.1530
vn -0.1769 0.8822 -0.4364
vn -0.4572 0.8295 -0.3209
vn -0.4060 0.8840 -0.2316
vn 0.5642 0.8229 -0.0665
vn -0.7480 0.4115 0.5207
vn -0.0177 0.9891 -0.1460
vn -0.1832 0.9827 -0.0254
vn 0.7507 0.3667 0.5496
vn 0.9315 0.3366 0.1376
vn 0.9007 0.4148 0.1292
vn -0.9569 -0.1991 -0.2115
vn -0.9693 -0.0829 -0.2315
vn -0.9905 -0.0571 0.1248
vn -0.9772 0.1475 0.1530
vn -0.0003 0.9921 0.1254
vn -0.0003 0.9981 0.0613
vn -0.4678 0.8823 0.0522
vn -0.2901 0.9543 -0.0724
vn -0.6111 0.7854 -0.0987
vn -0.5097 0.7681 -0.3875
vn -0.6688 0.7350 -0.1115
vn -0.9358 -0.0766 0.3441
vn -0.8570 -0.4054 0.3182
vn -0.6044 -0.3623 0.7095
vn -0.6712 -0.2148 0.7095
vn -0.0000 0.9977 0.0680
vn 0.1832 0.9827 -0.0254
vn 0.0177 0.9891 -0.1460
vn 0.6111 0.7854 -0.0987
vn 0.4572 0.8295 -0.3209
vn 0.6122 0.6312 -0.4761
vn 0.6549 0.5466 -0.5218
vn 0.2697 0.5853 -0.7646
vn 0.2144 0.7091 -0.6717
vn -0.0000 -0.5825 -0.8128
vn -0.0000 -0.4975 -0.8675
vn -0.3758 -0.5251 -0.7636
vn -0.3704 -0.4493 -0.8130
vn 0.2011 0.8256 -0.5272
vn -0.0000 0.9213 -0.3889
vn -0.5016 0.0467 0.8638
vn -0.5062 -0.0087 0.8624
vn 0.8055 0.5811 0.1159
vn 0.7112 0.6955 0.1027
vn 0.7480 0.4115 0.5207
vn 0.8675 0.4821 0.1226
vn 0.6688 0.7350 -0.1115
vn 0.5097 0.7681 -0.3875
vn -0.9413 0.2679 -0.2056
vn -0.9357 0.2630 -0.2351
vn 0.7842 0.6053 -0.1368
vn -0.3997 -0.1220 -0.9085
vn -0.7515 0.1658 -0.6386
vn -0.7522 -0.1617 -0.6388
vn 0.5062 -0.0087 0.8624
vn 0.8612 0.0464 0.5061
vn 0.8399 0.5225 -0.1467
vn 0.1757 0.7963 -0.5788
vn -0.0000 0.9993 -0.0371
vn 0.9413 0.2679 -0.2056
vn 0.7563 0.0157 -0.6540
vn 0.5016 0.0467 0.8638
vn 0.8767 -0.1508 0.4567
vn -0.8796 0.4502 -0.1534
vn -0.9277 0.3322 -0.1700
vn -0.9007 0.4148 0.1292
vn 0.9552 0.2597 0.1421
vn -0.6771 0.0500 0.7342
vn -0.8837 -0.1765 0.4335
vn 0.7643 -0.5955 0.2477
vn 0.8570 -0.4054 0.3182
vn 0.6044 -0.3623 0.7095
vn 0.5408 -0.5485 0.6377
vn 0.8989 -0.4234 0.1127
vn 0.9708 -0.0453 -0.2354
vn 0.9693 -0.0829 -0.2315
vn 0.6771 0.0500 0.7342
vn 0.8302 -0.0715 0.5529
vn -0.5642 0.8229 -0.0665
vn -0.4776 0.8754 0.0740
vn -0.3101 0.9457 0.0973
vn 0.0003 0.9820 0.1887
vn -0.0000 0.9755 -0.2201
vn -0.0791 0.9527 -0.2935
vn 0.9807 0.1380 0.1385
vn 0.9357 0.2630 -0.2351
vn 0.9850 0.1134 0.1300
vn 0.3147 0.4808 -0.8184
vn 0.3448 0.3678 -0.8637
vn 0.3891 0.3073 -0.8685
vn 0.9794 0.1409 0.1448
vn -0.7112 0.6955 0.1027
vn -0.8055 0.5811 0.1159
vn -0.4023 -0.1824 -0.8971
vn -0.3972 -0.1919 -0.8974
vn -0.6722 -0.4717 -0.5706
vn 0.9674 0.1080 -0.2291
vn 0.7585 0.1512 -0.6339
vn 0.7638 0.0209 -0.6451
vn -0.7638 0.0209 -0.6451
vn -0.7563 0.0157 -0.6540
vn -0.3891 0.3073 -0.8685
vn -0.4199 0.2728 -0.8656
vn -0.9674 0.1080 -0.2291
vn -0.9496 -0.2272 -0.2161
vn 0.3824 0.1565 -0.9107
vn 0.4199 0.2728 -0.8656
vn 0.9496 -0.2272 -0.2161
vn 0.7455 0.2690 -0.6098
vn -0.7455 0.2690 -0.6098
vn 0.3997 -0.1301 -0.9074
vn -0.7842 0.6053 -0.1368
vn -0.8399 0.5225 -0.1467
vn -0.8675 0.4821 0.1226
vn 0.9569 -0.1991 -0.2115
vn -0.0000 0.3318 -0.9433
vn -0.0000 0.4191 -0.9080
vn -0.3997 -0.1301 -0.9074
vn -0.4061 -0.2032 -0.8910
vn -0.6355 0.7677 0.0823
vn -0.8898 -0.1286 0.4380
vn -0.8322 -0.5469 0.0912
vn -0.8989 -0.4234 0.1127
vn -0.9708 -0.0453 -0.2354
vn 0.6722 -0.4717 -0.5706
vn 0.3972 -0.1919 -0.8974
vn 0.8802 -0.4702 0.0643
vn 0.8322 -0.5469 0.0912
vn -0.8802 -0.4702 0.0643
vn -0.9080 -0.3738 -0.1894
vn -0.7643 -0.5955 0.2477
vn -0.9713 0.0264 -0.2363
vn 0.8845 -0.4135 -0.2159
vn 0.9713 0.0264 -0.2363
vn 0.6029 -0.5951 -0.5314
vn 0.6416 -0.4624 -0.6120
vn 0.3704 -0.4493 -0.8130
vn 0.3997 -0.1220 -0.9085
vn 0.7401 -0.6401 -0.2062
vn -0.8124 -0.5676 -0.1334
vn -0.6809 -0.6699 0.2960
vn -0.8173 -0.4512 0.3583
vn -0.8277 -0.2885 -0.4814
vn -0.6240 -0.7087 0.3292
vn -0.6814 -0.6855 0.2563
vn -0.6237 -0.7529 -0.2103
vn -0.7507 0.3667 0.5496
vn -0.5704 0.3299 0.7522
vn -0.7254 -0.5035 -0.4693
vn -0.3370 -0.6457 -0.6853
vn -0.5186 -0.4407 -0.7327
vn -0.5687 -0.7963 -0.2064
vn -0.6608 0.2477 0.7085
vn -0.5579 0.0302 0.8294
vn -0.3316 -0.7227 -0.6064
vn -0.4683 -0.6135 -0.6359
vn -0.6465 0.1221 0.7531
vn -0.3824 0.1565 -0.9107
vn -0.7585 0.1512 -0.6338
vn -0.0000 0.2479 -0.9688
vn -0.0000 0.1292 -0.9916
vn -0.6549 0.5466 -0.5218
vn -0.6731 0.4814 -0.5614
vn 0.5704 0.3299 0.7522
vn -0.3448 0.3678 -0.8637
vn -0.7030 0.3522 -0.6179
vn -0.8640 -0.0732 0.4981
vn -0.7796 -0.1443 0.6095
vn -0.8302 -0.0715 0.5529
vn -0.0000 -0.4889 -0.8723
vn -0.0000 -0.2055 -0.9787
vn -0.5408 -0.5485 0.6377
vn 0.4517 -0.6672 0.5923
vn 0.6809 -0.6699 0.2960
vn 0.6240 -0.7087 0.3292
vn 0.8173 -0.4512 0.3583
vn 0.9080 -0.3738 -0.1894
vn 0.6814 -0.6855 0.2563
vn 0.6237 -0.7529 -0.2103
vn 0.8124 -0.5676 -0.1334
vn 0.5687 -0.7963 -0.2064
vn -0.6122 0.6312 -0.4761
vn -0.0000 0.1385 -0.9904
vn -0.0000 0.1096 -0.9940
vn 0.3758 -0.5251 -0.7636
vn 0.1717 -0.3605 -0.9168
vn -0.1717 -0.3605 -0.9168
vn 0.1041 -0.5844 -0.8048
vn 0.5186 -0.4407 -0.7327
vn 0.8277 -0.2885 -0.4814
vn -0.1041 -0.5844 -0.8048
vn 0.3370 -0.6457 -0.6853
vn 0.4683 -0.6135 -0.6359
vn 0.7254 -0.5035 -0.4693
vn 0.3316 -0.7227 -0.6064
vn -0.4517 -0.6672 0.5923
vt 0.000000 0.000000
s 1
f 1/1/1 2/1/2 3/1/3
f 1/1/1 4/1/4 5/1/5
f 32/1/6 33/1/7 27/1/8 6/1/9
f 1/1/1 7/1/10 8/1/11
f 1/1/1 8/1/11 9/1/12
f 1/1/1 9/1/12 10/1/13
f 1/1/1 10/1/13 6/1/9
f 1/1/1 11/1/14 7/1/10
f 1/1/1 12/1/15 4/1/4
f 1/1/1 3/1/3 12/1/15
f 1/1/1 5/1/5 13/1/16
f 1/1/1 13/1/16 11/1/14
f 9/1/12 15/1/17 10/1/13
f 56/1/18 57/1/19 50/1/20 55/1/21
f 10/1/13 18/1/22 6/1/9
f 10/1/13 15/1/17 19/1/23
f 10/1/13 19/1/23 16/1/24
f 14/1/25 6/1/9 20/1/26
f 16/1/24 21/1/27 17/1/28
f 17/1/28 21/1/27 22/1/29
f 49/1/30 53/1/31 50/1/20 44/1/32
f 205/1/33 212/1/34 180/1/35 173/1/36
f 17/1/28 26/1/37 18/1/22
f 25/1/38 26/1/37 17/1/28
f 20/1/26 6/1/9 27/1/8
f 28/1/39 44/1/32 40/1/40 35/1/41
f 344/1/42 347/1/43 189/1/44 184/1/45
f 66/1/46 75/1/47 67/1/48 63/1/49
f 29/1/50 34/1/51 28/1/39
f 35/1/41 40/1/40 41/1/52 36/1/53
f 30/1/54 37/1/55 31/1/56
f 33/1/7 32/1/6 38/1/57
f 34/1/51 39/1/58 28/1/39
f 354/1/59 351/1/60 289/1/61 294/1/62
f 132/1/63 133/1/64 126/1/65 125/1/66
f 38/1/57 32/1/6 42/1/67
f 39/1/58 43/1/68 28/1/39
f 24/1/69 30/1/54 25/1/38 17/1/28
f 40/1/40 46/1/70 41/1/52
f 25/1/38 30/1/54 31/1/56 26/1/37
f 42/1/67 32/1/6 47/1/71
f 43/1/68 48/1/72 28/1/39
f 23/1/73 29/1/50 28/1/39 24/1/69
f 339/1/74 170/1/75 164/1/76 337/1/77
f 45/1/78 50/1/20 51/1/79
f 47/1/71 32/1/6 52/1/80
f 50/1/20 53/1/31 54/1/81
f 50/1/20 54/1/81 55/1/21
f 108/1/82 118/1/83 109/1/84 101/1/85
f 50/1/20 57/1/19 51/1/79
f 52/1/80 32/1/6 58/1/86
f 55/1/21 59/1/87 56/1/18
f 56/1/18 59/1/87 60/1/88
f 56/1/18 60/1/88 61/1/89
f 56/1/18 61/1/89 62/1/90
f 56/1/18 63/1/49 57/1/19
f 56/1/18 62/1/90 63/1/49
f 58/1/86 32/1/6 64/1/91
f 61/1/89 65/1/92 62/1/90
f 287/1/93 288/1/94 282/1/95 283/1/96
f 6/1/9 14/1/25 2/1/2 1/1/1
f 63/1/49 69/1/97 66/1/46
f 63/1/49 70/1/98 69/1/97
f 32/1/6 71/1/99 72/1/100
f 32/1/6 72/1/100 73/1/101
f 32/1/6 73/1/101 64/1/91
f 65/1/92 74/1/102 62/1/90
f 68/1/103 62/1/90 76/1/104
f 72/1/100 71/1/99 77/1/105
f 85/1/106 86/1/107 79/1/108 78/1/108
f 71/1/99 80/1/109 77/1/105
f 71/1/99 81/1/110 80/1/109
f 74/1/102 82/1/111 62/1/90
f 75/1/47 83/1/112 67/1/48
f 76/1/104 62/1/90 84/1/113
f 125/1/66 126/1/65 120/1/114 119/1/115
f 82/1/111 87/1/116 62/1/90
f 83/1/112 88/1/117 67/1/48
f 84/1/113 62/1/90 89/1/118
f 85/1/106 67/1/48 90/1/119
f 85/1/106 90/1/119 91/1/120
f 85/1/106 92/1/121 86/1/107
f 85/1/106 91/1/120 92/1/121
f 62/1/90 93/1/122 89/1/118
f 87/1/116 93/1/122 62/1/90
f 88/1/117 94/1/123 67/1/48
f 90/1/119 67/1/48 95/1/124
f 94/1/123 96/1/125 67/1/48
f 95/1/124 67/1/48 97/1/126
f 96/1/125 98/1/127 67/1/48
f 67/1/48 98/1/127 97/1/126
f 220/1/128 227/1/129 221/1/130 215/1/131
f 100/1/132 104/1/133 101/1/85 99/1/134
f 100/1/132 106/1/135 105/1/136 103/1/137
f 136/1/138 169/1/139 137/1/140 128/1/141
f 101/1/85 104/1/133 107/1/142
f 101/1/85 107/1/142 108/1/82
f 110/1/143 234/1/144 111/1/145 102/1/146
f 123/1/147 136/1/138 128/1/141 124/1/148
f 102/1/146 111/1/145 112/1/149
f 106/1/135 112/1/149 105/1/136
f 102/1/146 112/1/149 106/1/135
f 104/1/133 113/1/150 107/1/142
f 105/1/136 112/1/149 114/1/151
f 185/1/152 191/1/153 158/1/154 151/1/155
f 105/1/136 114/1/151 115/1/156
f 121/1/157 122/1/158 112/1/149 111/1/145
f 277/1/159 283/1/96 282/1/95 278/1/160
f 45/1/78 51/1/79 46/1/70 40/1/40
f 234/1/144 240/1/161 235/1/162 228/1/163
f 341/1/164 344/1/42 184/1/45 178/1/165
f 112/1/149 122/1/158 114/1/151
f 367/1/166 369/1/167 372/1/168 370/1/169
f 113/1/150 123/1/147 124/1/148
f 113/1/150 124/1/148 107/1/142
f 241/1/170 254/1/171 247/1/172 240/1/161
f 198/1/173 205/1/33 173/1/36 166/1/174
f 257/1/175 261/1/176 253/1/177 248/1/178
f 135/1/179 139/1/180 115/1/156 114/1/151
f 124/1/148 129/1/181 107/1/142
f 121/1/157 222/1/182 127/1/183 122/1/158
f 110/1/143 241/1/170 240/1/161 234/1/144
f 254/1/171 262/1/184 255/1/185 247/1/172
f 114/1/151 134/1/186 135/1/179
f 307/1/187 312/1/188 311/1/189 308/1/190
f 128/1/141 137/1/140 130/1/191
f 135/1/179 134/1/186 144/1/192 139/1/180
f 300/1/193 303/1/194 317/1/195 314/1/196
f 155/1/197 164/1/76 156/1/198 148/1/199
f 228/1/163 229/1/200 222/1/182 121/1/157
f 132/1/63 141/1/201 133/1/64
f 134/1/186 160/1/202 152/1/203 144/1/192
f 270/1/204 278/1/160 293/1/205 290/1/206
f 219/1/207 226/1/208 225/1/209 218/1/210
f 138/1/211 139/1/180 144/1/192 145/1/212
f 140/1/213 130/1/191 147/1/214
f 153/1/215 156/1/198 162/1/216 161/1/217
f 79/1/108 81/1/110 71/1/99 78/1/108
f 206/1/218 245/1/219 213/1/220 207/1/221
f 145/1/212 176/1/222 168/1/223 169/1/139
f 137/1/140 169/1/139 168/1/223 163/1/224
f 236/1/225 242/1/226 227/1/129 229/1/200
f 345/1/227 348/1/228 346/1/229 343/1/230
f 374/1/231 377/1/232 266/1/233 256/1/234
f 242/1/226 338/1/235 221/1/130 227/1/129
f 338/1/235 337/1/77 209/1/236 221/1/130
f 173/1/36 180/1/35 179/1/237 172/1/238
f 255/1/185 284/1/239 264/1/240 247/1/172
f 263/1/241 285/1/242 284/1/239 255/1/185
f 134/1/186 127/1/183 160/1/202
f 236/1/225 272/1/243 342/1/244 242/1/226
f 130/1/191 137/1/140 163/1/224
f 235/1/162 236/1/225 229/1/200 228/1/163
f 194/1/245 201/1/246 198/1/173 191/1/153
f 264/1/240 284/1/239 279/1/247 272/1/243
f 279/1/247 345/1/227 342/1/244 272/1/243
f 256/1/234 257/1/175 248/1/178 249/1/248
f 49/1/30 44/1/32 28/1/39 48/1/72
f 219/1/207 231/1/249 237/1/250 226/1/208
f 291/1/251 292/1/252 288/1/94 287/1/93
f 285/1/242 286/1/253 279/1/247 284/1/239
f 242/1/226 342/1/244 340/1/254 338/1/235
f 160/1/202 195/1/255 176/1/222 152/1/203
f 298/1/256 357/1/257 354/1/59 294/1/62
f 342/1/244 345/1/227 343/1/230 340/1/254
f 295/1/258 296/1/259 292/1/252 291/1/251
f 169/1/139 136/1/138 138/1/211 145/1/212
f 289/1/61 351/1/60 348/1/228 286/1/253
f 279/1/247 286/1/253 348/1/228 345/1/227
f 28/1/39 35/1/41 30/1/54 24/1/69
f 293/1/205 294/1/62 289/1/61 290/1/206
f 181/1/260 188/1/261 185/1/152 182/1/262
f 282/1/95 297/1/263 293/1/205 278/1/160
f 179/1/237 180/1/35 186/1/264
f 180/1/35 187/1/265 186/1/264
f 320/1/266 316/1/267 315/1/268 319/1/269
f 321/1/270 322/1/271 318/1/272 317/1/195
f 299/1/273 304/1/274 303/1/194 300/1/193
f 140/1/213 146/1/275 117/1/276 116/1/277
f 103/1/137 131/1/278 123/1/147 113/1/150
f 202/1/279 154/1/280 163/1/224 195/1/255
f 301/1/281 302/1/282 298/1/256 297/1/263
f 301/1/281 297/1/263 282/1/95 288/1/94
f 292/1/252 305/1/283 301/1/281 288/1/94
f 349/1/284 351/1/60 354/1/59 352/1/285
f 160/1/202 215/1/131 202/1/279 195/1/255
f 285/1/242 290/1/206 289/1/61 286/1/253
f 354/1/59 357/1/257 355/1/286 352/1/285
f 296/1/259 309/1/287 305/1/283 292/1/252
f 198/1/173 201/1/246 205/1/33
f 152/1/203 176/1/222 145/1/212 144/1/192
f 157/1/288 171/1/289 132/1/63 125/1/66
f 215/1/131 221/1/130 209/1/236 202/1/279
f 238/1/290 244/1/291 243/1/292 237/1/250
f 306/1/293 363/1/294 360/1/295 302/1/282
f 194/1/245 210/1/296 201/1/246
f 203/1/297 204/1/298 210/1/296
f 203/1/297 210/1/296 194/1/245
f 204/1/298 211/1/299 210/1/296
f 180/1/35 212/1/34 187/1/265
f 315/1/268 316/1/267 311/1/189 312/1/188
f 208/1/300 214/1/301 212/1/34
f 235/1/162 240/1/161 247/1/172 264/1/240
f 130/1/191 163/1/224 154/1/280 147/1/214
f 360/1/295 363/1/294 361/1/302 358/1/303
f 310/1/304 366/1/305 363/1/294 306/1/293
f 212/1/34 218/1/210 187/1/265
f 212/1/34 219/1/207 218/1/210
f 212/1/34 214/1/301 219/1/207
f 147/1/214 154/1/280 155/1/197 148/1/199
f 127/1/183 222/1/182 220/1/128
f 214/1/301 223/1/306 219/1/207
f 363/1/294 366/1/305 364/1/307 361/1/302
f 167/1/308 175/1/309 174/1/310 171/1/289
f 115/1/156 139/1/180 138/1/211 131/1/278
f 317/1/195 318/1/272 313/1/311 314/1/196
f 148/1/199 146/1/275 140/1/213 147/1/214
f 117/1/276 118/1/83 108/1/82 116/1/277
f 352/1/285 355/1/286 353/1/312 350/1/313
f 223/1/306 224/1/314 230/1/315
f 223/1/306 231/1/249 219/1/207
f 223/1/306 230/1/315 231/1/249
f 167/1/308 171/1/289 157/1/288 161/1/217
f 146/1/275 153/1/215 149/1/316 117/1/276
f 198/1/173 166/1/174 158/1/154 191/1/153
f 313/1/311 318/1/272 372/1/168 369/1/167
f 68/1/103 70/1/98 63/1/49 62/1/90
f 127/1/183 220/1/128 215/1/131 160/1/202
f 200/1/317 239/1/318 206/1/218
f 200/1/317 232/1/319 239/1/318
f 232/1/319 233/1/320 239/1/318
f 102/1/146 106/1/135 100/1/132 99/1/134
f 119/1/115 120/1/114 109/1/84 118/1/83
f 176/1/222 195/1/255 163/1/224 168/1/223
f 372/1/168 375/1/321 373/1/322 370/1/169
f 206/1/218 239/1/318 245/1/219
f 316/1/267 320/1/266 328/1/323 325/1/324
f 130/1/191 140/1/213 116/1/277 129/1/181
f 243/1/292 248/1/178 233/1/320
f 243/1/292 244/1/291 248/1/178
f 244/1/291 249/1/248 248/1/178
f 222/1/182 229/1/200 227/1/129 220/1/128
f 246/1/325 251/1/326 250/1/327
f 233/1/320 248/1/178 252/1/328
f 233/1/320 252/1/328 239/1/318
f 329/1/329 326/1/330 325/1/324 328/1/323
f 252/1/328 248/1/178 253/1/177
f 339/1/74 341/1/164 178/1/165 170/1/75
f 378/1/331 381/1/332 379/1/333 376/1/334
f 378/1/331 329/1/329 331/1/335 381/1/332
f 251/1/326 258/1/336 250/1/327
f 250/1/327 258/1/336 259/1/337
f 253/1/177 260/1/338 246/1/325
f 253/1/177 261/1/176 260/1/338
f 255/1/185 262/1/184 263/1/241
f 149/1/316 157/1/288 125/1/66 119/1/115
f 103/1/137 113/1/150 104/1/133 100/1/132
f 153/1/215 161/1/217 157/1/288 149/1/316
f 257/1/175 256/1/234 265/1/339
f 256/1/234 266/1/233 265/1/339
f 258/1/336 267/1/340 259/1/337
f 260/1/338 261/1/176 268/1/341
f 261/1/176 269/1/342 268/1/341
f 142/1/343 143/1/344 133/1/64 141/1/201
f 265/1/339 266/1/233 273/1/345
f 266/1/233 274/1/346 273/1/345
f 257/1/175 275/1/347 261/1/176
f 268/1/341 269/1/342 276/1/348
f 142/1/343 151/1/155 150/1/349 143/1/344
f 166/1/174 173/1/36 172/1/238 165/1/350
f 273/1/345 274/1/346 280/1/351
f 261/1/176 275/1/347 281/1/352
f 261/1/176 281/1/352 269/1/342
f 281/1/352 276/1/348 269/1/342
f 158/1/154 159/1/353 150/1/349 151/1/155
f 171/1/289 174/1/310 141/1/201 132/1/63
f 174/1/310 182/1/262 142/1/343 141/1/201
f 216/1/354 217/1/355 210/1/296 211/1/299
f 158/1/154 166/1/174 165/1/350 159/1/353
f 181/1/260 182/1/262 174/1/310 175/1/309
f 308/1/190 321/1/270 317/1/195 303/1/194
f 185/1/152 151/1/155 142/1/343 182/1/262
f 356/1/356 359/1/357 216/1/354 211/1/299
f 307/1/187 308/1/190 303/1/194 304/1/274
f 17/1/28 18/1/22 10/1/13 16/1/24
f 188/1/261 194/1/245 191/1/153 185/1/152
f 295/1/258 299/1/273 296/1/259
f 296/1/259 299/1/273 300/1/193
f 216/1/354 224/1/314 223/1/306 217/1/355
f 44/1/32 50/1/20 45/1/78 40/1/40
f 183/1/358 190/1/359 181/1/260 175/1/309
f 262/1/184 271/1/360 270/1/204 263/1/241
f 197/1/361 204/1/298 203/1/297 196/1/362
f 301/1/281 305/1/283 302/1/282
f 208/1/300 212/1/34 205/1/33 201/1/246
f 192/1/363 200/1/317 199/1/364 193/1/365
f 296/1/259 300/1/193 309/1/287
f 306/1/293 309/1/287 310/1/304
f 206/1/218 207/1/221 199/1/364 200/1/317
f 309/1/287 313/1/311 310/1/304
f 309/1/287 300/1/193 314/1/196
f 309/1/287 314/1/196 313/1/311
f 107/1/142 129/1/181 116/1/277 108/1/82
f 225/1/209 192/1/363 187/1/265 218/1/210
f 225/1/209 232/1/319 200/1/317 192/1/363
f 370/1/169 373/1/322 371/1/366 368/1/367
f 250/1/327 392/1/368 213/1/220 245/1/219
f 226/1/208 233/1/320 232/1/319 225/1/209
f 319/1/269 323/1/369 324/1/370
f 319/1/269 324/1/370 320/1/266
f 321/1/270 325/1/324 322/1/271
f 308/1/190 325/1/324 321/1/270
f 308/1/190 311/1/189 325/1/324
f 311/1/189 316/1/267 325/1/324
f 322/1/271 325/1/324 326/1/330
f 323/1/369 327/1/371 324/1/370
f 297/1/263 298/1/256 294/1/62 293/1/205
f 264/1/240 272/1/243 236/1/225 235/1/162
f 328/1/323 330/1/372 329/1/329
f 329/1/329 330/1/372 331/1/335
f 328/1/323 320/1/266 332/1/373
f 330/1/372 333/1/374 331/1/335
f 331/1/335 333/1/374 334/1/375
f 324/1/370 327/1/371 335/1/376
f 320/1/266 335/1/376 332/1/373
f 320/1/266 324/1/370 335/1/376
f 333/1/374 336/1/377 334/1/375
f 209/1/236 337/1/77 164/1/76 155/1/197
f 338/1/235 340/1/254 339/1/74 337/1/77
f 340/1/254 343/1/230 341/1/164 339/1/74
f 217/1/355 223/1/306 214/1/301 208/1/300
f 343/1/230 346/1/229 344/1/42 341/1/164
f 164/1/76 170/1/75 162/1/216 156/1/198
f 130/1/191 129/1/181 124/1/148 128/1/141
f 154/1/280 202/1/279 209/1/236 155/1/197
f 162/1/216 177/1/378 167/1/308 161/1/217
f 346/1/229 349/1/284 347/1/43 344/1/42
f 189/1/44 347/1/43 350/1/313 197/1/361
f 170/1/75 178/1/165 177/1/378 162/1/216
f 178/1/165 184/1/45 183/1/358 177/1/378
f 127/1/183 134/1/186 114/1/151 122/1/158
f 23/1/73 24/1/69 17/1/28 22/1/29
f 189/1/44 190/1/359 183/1/358 184/1/45
f 192/1/363 193/1/365 186/1/264 187/1/265
f 36/1/53 37/1/55 30/1/54 35/1/41
f 210/1/296 217/1/355 208/1/300 201/1/246
f 349/1/284 352/1/285 350/1/313 347/1/43
f 189/1/44 197/1/361 196/1/362 190/1/359
f 181/1/260 190/1/359 196/1/362 188/1/261
f 196/1/362 203/1/297 194/1/245 188/1/261
f 350/1/313 353/1/312 204/1/298 197/1/361
f 355/1/286 358/1/303 356/1/356 353/1/312
f 270/1/204 290/1/206 285/1/242 263/1/241
f 361/1/302 359/1/357 356/1/356 358/1/303
f 138/1/211 136/1/138 123/1/147 131/1/278
f 277/1/159 278/1/160 270/1/204 271/1/360
f 298/1/256 360/1/295 357/1/257
f 298/1/256 302/1/282 360/1/295
f 117/1/276 149/1/316 119/1/115 118/1/83
f 355/1/286 360/1/295 358/1/303
f 357/1/257 360/1/295 355/1/286
f 364/1/307 362/1/379 359/1/357 361/1/302
f 111/1/145 234/1/144 228/1/163 121/1/157
f 224/1/314 362/1/379 230/1/315
f 348/1/228 351/1/60 349/1/284 346/1/229
f 359/1/357 362/1/379 224/1/314 216/1/354
f 362/1/379 365/1/380 230/1/315
f 148/1/199 156/1/198 153/1/215 146/1/275
f 310/1/304 313/1/311 366/1/305
f 366/1/305 367/1/166 364/1/307
f 362/1/379 367/1/166 365/1/380
f 364/1/307 367/1/166 362/1/379
f 368/1/367 238/1/290 230/1/315 365/1/380
f 356/1/356 211/1/299 204/1/298 353/1/312
f 115/1/156 131/1/278 103/1/137 105/1/136
f 366/1/305 369/1/167 367/1/166
f 366/1/305 313/1/311 369/1/167
f 230/1/315 238/1/290 237/1/250 231/1/249
f 367/1/166 370/1/169 368/1/367 365/1/380
f 237/1/250 243/1/292 233/1/320 226/1/208
f 368/1/367 371/1/366 244/1/291 238/1/290
f 244/1/291 374/1/231 249/1/248
f 244/1/291 371/1/366 374/1/231
f 374/1/231 256/1/234 249/1/248
f 373/1/322 374/1/231 371/1/366
f 177/1/378 183/1/358 175/1/309 167/1/308
f 373/1/322 376/1/334 374/1/231
f 379/1/333 382/1/381 377/1/232 374/1/231
f 322/1/271 378/1/331 375/1/321
f 373/1/322 378/1/331 376/1/334
f 375/1/321 378/1/331 373/1/322
f 326/1/330 329/1/329 378/1/331
f 322/1/271 326/1/330 378/1/331
f 239/1/318 252/1/328 253/1/177 246/1/325
f 376/1/334 379/1/333 374/1/231
f 246/1/325 250/1/327 245/1/219 239/1/318
f 377/1/232 380/1/382 266/1/233
f 322/1/271 375/1/321 372/1/168 318/1/272
f 377/1/232 382/1/381 383/1/383
f 266/1/233 380/1/382 384/1/384
f 266/1/233 384/1/384 274/1/346
f 384/1/384 280/1/351 274/1/346
f 381/1/332 331/1/335 385/1/385
f 381/1/332 386/1/386 379/1/333
f 379/1/333 386/1/386 382/1/381
f 382/1/381 387/1/387 383/1/383
f 382/1/381 388/1/388 387/1/387
f 334/1/375 336/1/377 389/1/389
f 331/1/335 389/1/389 385/1/385
f 331/1/335 334/1/375 389/1/389
f 382/1/381 390/1/390 388/1/388
f 386/1/386 390/1/390 382/1/381
f 388/1/388 391/1/391 387/1/387
f 390/1/390 391/1/391 388/1/388
f 250/1/327 259/1/337 392/1/368
f 259/1/337 267/1/340 393/1/392
f 392/1/368 259/1/337 393/1/392
f 305/1/283 309/1/287 306/1/293 302/1/282
