# Blender 4.3.2
# www.blender.org
o hair.125
v 6.722372 0.094872 0.026043
v 6.718930 0.094403 0.026648
v 6.720224 0.089413 0.022479
v 6.724543 0.090542 0.021597
v 6.725573 0.095097 0.025702
v 6.726603 0.090542 0.021597
v 6.728774 0.094872 0.026043
v 6.737842 0.061501 0.007563
v 6.730922 0.089413 0.022479
v 6.713305 0.061501 0.007563
v 6.717950 0.088667 0.023321
v 6.732215 0.094403 0.026648
v 6.733196 0.088667 0.023321
v 6.716284 0.087681 0.024269
v 6.716959 0.093615 0.028056
v 6.734862 0.087681 0.024269
v 6.734187 0.093615 0.028056
v 6.714502 0.086481 0.025424
v 6.714787 0.092430 0.029678
v 6.736644 0.086481 0.025424
v 6.736359 0.092430 0.029678
v 6.713014 0.085294 0.026565
v 6.712947 0.090805 0.030965
v 6.738132 0.085294 0.026565
v 6.738199 0.090805 0.030965
v 6.711453 0.083777 0.028023
v 6.711095 0.088089 0.031984
v 6.739693 0.083777 0.028023
v 6.740051 0.088089 0.031984
v 6.709326 0.081426 0.030284
v 6.708886 0.083632 0.032799
v 6.741819 0.081426 0.030284
v 6.742260 0.083632 0.032799
v 6.706729 0.078468 0.033128
v 6.744417 0.078468 0.033128
v 6.705031 0.073634 0.032686
v 6.746114 0.073634 0.032686
v 6.703586 0.069025 0.031510
v 6.747561 0.069025 0.031510
v 6.702182 0.064535 0.029640
v 6.748964 0.064535 0.029640
v 6.700840 0.060223 0.027146
v 6.750305 0.060223 0.027146
v 6.699579 0.056145 0.024101
v 6.751567 0.056145 0.024101
v 6.698404 0.052328 0.020612
v 6.752742 0.052328 0.020612
v 6.697324 0.048798 0.016783
v 6.753822 0.048798 0.016783
v 6.696291 0.045413 0.012785
v 6.754854 0.045413 0.012785
v 6.695938 0.051760 0.012181
v 6.754714 0.071575 0.010009
v 6.755377 0.066855 0.010541
v 6.755208 0.051760 0.012181
v 6.755479 0.056964 0.011642
v 6.755584 0.062110 0.011062
v 6.753822 0.076433 0.009473
v 6.695667 0.056964 0.011642
v 6.695562 0.062110 0.011062
v 6.695769 0.066855 0.010541
v 6.696432 0.071575 0.010009
v 6.697324 0.076433 0.009473
v 6.723857 0.095323 -0.013283
v 6.725573 0.092842 -0.018154
v 6.723072 0.094994 -0.013780
v 6.721953 0.096853 -0.008390
v 6.724715 0.095439 -0.013106
v 6.722287 0.094665 -0.014278
v 6.718540 0.095596 -0.010331
v 6.720160 0.096324 -0.009211
v 6.720639 0.097465 -0.004321
v 6.723757 0.097191 -0.007877
v 6.725573 0.097313 -0.007697
v 6.725573 0.095555 -0.012930
v 6.721776 0.094152 -0.015050
v 6.716030 0.095762 -0.006994
v 6.717260 0.094662 -0.011739
v 6.718214 0.096742 -0.005459
v 6.719181 0.097646 0.000682
v 6.723094 0.097933 -0.003617
v 6.725573 0.098104 -0.003374
v 6.727389 0.097191 -0.007877
v 6.726431 0.095439 -0.013106
v 6.721266 0.093639 -0.015822
v 6.716342 0.093579 -0.013353
v 6.713079 0.093090 -0.011057
v 6.714311 0.094527 -0.008883
v 6.722325 0.098327 0.001631
v 6.728052 0.097933 -0.003617
v 6.730507 0.097465 -0.004321
v 6.729193 0.096853 -0.008390
v 6.727289 0.095323 -0.013283
v 6.721097 0.092989 -0.016812
v 6.715804 0.092403 -0.015099
v 6.709982 0.092102 -0.008186
v 6.712353 0.091504 -0.013448
v 6.711490 0.093898 -0.005412
v 6.713552 0.095473 -0.002997
v 6.730986 0.096324 -0.009211
v 6.728074 0.094994 -0.013780
v 6.720928 0.092338 -0.017801
v 6.715630 0.091170 -0.016918
v 6.712100 0.089843 -0.015944
v 6.708674 0.087946 -0.014625
v 6.709056 0.090069 -0.011334
v 6.732606 0.095596 -0.010331
v 6.728859 0.094665 -0.014278
v 6.721117 0.091721 -0.018703
v 6.715808 0.089920 -0.018755
v 6.712287 0.088177 -0.018435
v 6.706010 0.085814 -0.013183
v 6.708801 0.085879 -0.017830
v 6.706551 0.088391 -0.009208
v 6.707668 0.090880 -0.005404
v 6.716185 0.096738 -0.000913
v 6.729369 0.094152 -0.015050
v 6.712976 0.086567 -0.020853
v 6.709578 0.083885 -0.020882
v 6.706174 0.083390 -0.016961
v 6.704155 0.086526 -0.007018
v 6.711359 0.094821 0.000949
v 6.714339 0.096287 0.003584
v 6.717936 0.097079 0.005724
v 6.707112 0.081109 -0.020505
v 6.708884 0.078970 -0.023768
v 6.711149 0.081991 -0.023706
v 6.703650 0.080711 -0.015968
v 6.709166 0.093117 -0.002147
v 6.709597 0.093785 0.004372
v 6.712812 0.095560 0.007705
v 6.721638 0.097898 0.007036
v 6.725573 0.098569 0.001948
v 6.703473 0.083481 -0.011651
v 6.705491 0.089424 -0.002597
v 6.707143 0.091885 0.001066
v 6.725573 0.098372 0.007412
v 6.716834 0.096815 0.010454
v 6.720995 0.097605 0.011862
v 6.728821 0.098327 0.001631
v 6.701133 0.080312 -0.009561
v 6.703488 0.087442 0.000882
v 6.705177 0.090434 0.004896
v 6.729508 0.097898 0.007036
v 6.733210 0.097079 0.005724
v 6.731965 0.097646 0.000682
v 6.707707 0.092712 0.008460
v 6.701566 0.085099 0.004143
v 6.703324 0.088755 0.008788
v 6.710778 0.095231 0.011966
v 6.730151 0.097605 0.011862
v 6.734313 0.096815 0.010454
v 6.734962 0.096738 -0.000913
v 6.732933 0.096742 -0.005459
v 6.704928 0.091734 0.012792
v 6.701165 0.086714 0.011670
v 6.707649 0.094679 0.016577
v 6.715036 0.097799 0.015791
v 6.720635 0.097920 0.016899
v 6.725573 0.097978 0.012300
v 6.737595 0.095473 -0.002997
v 6.735116 0.095762 -0.006994
v 6.702892 0.090071 0.015744
v 6.699943 0.082778 0.006812
v 6.699024 0.083771 0.013191
v 6.721267 0.096335 0.022077
v 6.725573 0.097534 0.017271
v 6.736835 0.094527 -0.008883
v 6.733886 0.094662 -0.011739
v 6.700022 0.081167 -0.001007
v 6.730511 0.097920 0.016899
v 6.729879 0.096335 0.022077
v 6.725573 0.095882 0.022144
v 6.738067 0.093090 -0.011057
v 6.734803 0.093579 -0.013353
v 6.729880 0.093639 -0.015822
v 6.701928 0.083980 -0.004140
v 6.736109 0.097799 0.015791
v 6.725573 0.095097 0.025702
v 6.738334 0.095560 0.007705
v 6.740367 0.095231 0.011966
v 6.730049 0.092989 -0.016812
v 6.735342 0.092403 -0.015099
v 6.728774 0.094872 0.026043
v 6.722372 0.094872 0.026043
v 6.736807 0.096287 0.003584
v 6.735516 0.091170 -0.016918
v 6.730218 0.092338 -0.017801
v 6.732215 0.094403 0.026648
v 6.733869 0.096259 0.022500
v 6.718930 0.094403 0.026648
v 6.741549 0.093785 0.004372
v 6.739788 0.094821 0.000949
v 6.730029 0.091721 -0.018703
v 6.737127 0.095485 0.024420
v 6.734187 0.093615 0.028056
v 6.740221 0.096235 0.020525
v 6.743496 0.094679 0.016577
v 6.717278 0.096259 0.022500
v 6.743439 0.092712 0.008460
v 6.739656 0.093898 -0.005412
v 6.736359 0.092430 0.029678
v 6.743200 0.093897 0.023405
v 6.739876 0.093636 0.026757
v 6.746218 0.091734 0.012792
v 6.710925 0.096235 0.020525
v 6.714019 0.095485 0.024420
v 6.741163 0.092102 -0.008186
v 6.742264 0.090977 0.028610
v 6.738199 0.090805 0.030965
v 6.707946 0.093897 0.023405
v 6.705180 0.092590 0.019610
v 6.716959 0.093615 0.028056
v 6.714787 0.092430 0.029678
v 6.711270 0.093636 0.026757
v 6.738793 0.091504 -0.013448
v 6.740051 0.088089 0.031984
v 6.702672 0.089206 0.021637
v 6.705253 0.090567 0.025588
v 6.708882 0.090977 0.028610
v 6.700633 0.087059 0.017436
v 6.712947 0.090805 0.030965
v 6.739047 0.089842 -0.015944
v 6.744402 0.087426 0.029933
v 6.746463 0.082902 0.030681
v 6.742260 0.083632 0.032799
v 6.702941 0.086496 0.027030
v 6.698527 0.083424 0.018436
v 6.711095 0.088089 0.031984
v 6.735338 0.089920 -0.018755
v 6.748205 0.086496 0.027030
v 6.744417 0.078468 0.033128
v 6.745893 0.090567 0.025588
v 6.706744 0.087426 0.029933
v 6.704683 0.082902 0.030681
v 6.708886 0.083632 0.032799
v 6.734797 0.088714 -0.020549
v 6.729840 0.091104 -0.019606
v 6.748304 0.077965 0.030853
v 6.749757 0.073170 0.030462
v 6.746114 0.073634 0.032686
v 6.706729 0.078468 0.033128
v 6.729334 0.090574 -0.020402
v 6.738171 0.086567 -0.020853
v 6.733877 0.087615 -0.022241
v 6.751446 0.077333 0.027668
v 6.749914 0.081956 0.027571
v 6.747561 0.069025 0.031510
v 6.702842 0.077965 0.030853
v 6.701389 0.073170 0.030462
v 6.705031 0.073634 0.032686
v 6.738859 0.088177 -0.018435
v 6.752513 0.081007 0.023525
v 6.748474 0.089206 0.021637
v 6.750771 0.085168 0.022875
v 6.750677 0.068906 0.029801
v 6.748964 0.064535 0.029640
v 6.699700 0.077333 0.027668
v 6.703586 0.069025 0.031510
v 6.742471 0.087946 -0.014625
v 6.752619 0.083424 0.018436
v 6.753631 0.068447 0.026595
v 6.752478 0.062933 0.027190
v 6.752643 0.072685 0.027375
v 6.750305 0.060223 0.027146
v 6.700469 0.068906 0.029801
v 6.702182 0.064535 0.029640
v 6.742090 0.090069 -0.011334
v 6.745966 0.092590 0.019610
v 6.754745 0.072220 0.023639
v 6.753805 0.076698 0.023728
v 6.751567 0.056145 0.024101
v 6.698668 0.062933 0.027190
v 6.700840 0.060223 0.027146
v 6.743478 0.090880 -0.005404
v 6.748254 0.090071 0.015744
v 6.755138 0.076163 0.019332
v 6.754116 0.079999 0.019122
v 6.753783 0.058791 0.023691
v 6.752742 0.052328 0.020612
v 6.755256 0.063143 0.023500
v 6.699579 0.056145 0.024101
v 6.741980 0.093117 -0.002147
v 6.754560 0.078486 0.014475
v 6.754847 0.055228 0.020113
v 6.753822 0.048798 0.016783
v 6.756015 0.058512 0.019722
v 6.756539 0.062739 0.019361
v 6.755419 0.068054 0.023493
v 6.697363 0.058791 0.023691
v 6.698404 0.052328 0.020612
v 6.744002 0.091885 0.001066
v 6.755858 0.052867 0.016283
v 6.754854 0.045413 0.012785
v 6.756416 0.057591 0.015862
v 6.756345 0.067494 0.019286
v 6.755879 0.071858 0.019375
v 6.696300 0.055228 0.020113
v 6.697324 0.048798 0.016783
v 6.745969 0.090434 0.004896
v 6.755208 0.051760 0.012181
v 6.755891 0.071707 0.014891
v 6.756396 0.067138 0.015106
v 6.755222 0.075849 0.014823
v 6.695288 0.052867 0.016283
v 6.696291 0.045413 0.012785
v 6.747822 0.088755 0.008788
v 6.755479 0.056964 0.011642
v 6.756537 0.062426 0.015389
v 6.755377 0.066855 0.010541
v 6.754714 0.071575 0.010009
v 6.753822 0.076433 0.009473
v 6.753654 0.080806 0.014173
v 6.695938 0.051760 0.012181
v 6.749981 0.086714 0.011670
v 6.755584 0.062110 0.011062
v 6.752676 0.079715 0.008313
v 6.752121 0.083771 0.013191
v 6.750513 0.087059 0.017436
v 6.694730 0.057591 0.015862
v 6.695667 0.056964 0.011642
v 6.751203 0.082778 0.006812
v 6.749580 0.085099 0.004143
v 6.752482 0.078162 0.001321
v 6.753546 0.075247 0.003029
v 6.695562 0.062110 0.011062
v 6.695131 0.058512 0.019722
v 6.751124 0.081167 -0.001007
v 6.747658 0.087442 0.000882
v 6.753191 0.073267 -0.004540
v 6.754086 0.071102 0.004957
v 6.753633 0.066259 0.007171
v 6.752338 0.068683 0.011858
v 6.753902 0.070211 -0.002400
v 6.694609 0.062426 0.015389
v 6.695769 0.066855 0.010541
v 6.695890 0.063143 0.023500
v 6.753879 0.063118 0.002314
v 6.754170 0.066768 -0.000098
v 6.750854 0.060932 0.014243
v 6.753080 0.069137 -0.009966
v 6.753607 0.065604 -0.007628
v 6.694607 0.062739 0.019361
v 6.745655 0.089424 -0.002597
v 6.753276 0.060932 0.004733
v 6.751957 0.076769 -0.007067
v 6.751863 0.073119 -0.012323
v 6.697515 0.068447 0.026595
v 6.746991 0.086526 -0.007018
v 6.749218 0.083980 -0.004140
v 6.744595 0.088391 -0.009208
v 6.750013 0.080312 -0.009561
v 6.695727 0.068054 0.023493
v 6.698503 0.072685 0.027375
v 6.696401 0.072220 0.023639
v 6.745136 0.085814 -0.013183
v 6.747673 0.083481 -0.011651
v 6.753293 0.058407 -0.002607
v 6.694801 0.067494 0.019286
v 6.694750 0.067138 0.015106
v 6.747496 0.080711 -0.015968
v 6.742345 0.085879 -0.017830
v 6.753668 0.062050 -0.005156
v 6.752141 0.055100 0.000176
v 6.695255 0.071707 0.014891
v 6.749864 0.077145 -0.014390
v 6.744972 0.083390 -0.016961
v 6.741568 0.083885 -0.020882
v 6.752459 0.057469 -0.009909
v 6.750641 0.049267 -0.004380
v 6.696432 0.071575 0.010009
v 6.748756 0.074285 -0.018760
v 6.739997 0.081991 -0.023706
v 6.736922 0.085077 -0.023124
v 6.744034 0.081109 -0.020505
v 6.742262 0.078970 -0.023768
v 6.751890 0.053393 -0.007155
v 6.749324 0.048968 -0.011495
v 6.746763 0.044307 -0.008254
v 6.695924 0.075849 0.014823
v 6.697324 0.076433 0.009473
v 6.746440 0.078163 -0.019955
v 6.735159 0.083790 -0.025095
v 6.732594 0.086671 -0.023708
v 6.744493 0.075793 -0.023592
v 6.739759 0.077076 -0.026620
v 6.742904 0.040616 -0.011271
v 6.696008 0.076163 0.019332
v 6.695267 0.071858 0.019375
v 6.728827 0.090045 -0.021198
v 6.737764 0.080317 -0.026181
v 6.745914 0.045459 -0.014752
v 6.741364 0.042662 -0.017166
v 6.739293 0.038279 -0.013207
v 6.728067 0.089723 -0.021676
v 6.734996 0.078980 -0.028199
v 6.732933 0.082789 -0.026610
v 6.747047 0.050003 -0.017728
v 6.750415 0.053319 -0.014346
v 6.735286 0.036964 -0.014444
v 6.697341 0.076698 0.023728
v 6.730971 0.085937 -0.024818
v 6.731920 0.077988 -0.029561
v 6.730478 0.082068 -0.027669
v 6.750466 0.057710 -0.016763
v 6.752514 0.061422 -0.012456
v 6.736512 0.040877 -0.018591
v 6.731407 0.039769 -0.019513
v 6.730769 0.036183 -0.015236
v 6.698633 0.081007 0.023525
v 6.729177 0.085416 -0.025586
v 6.752028 0.065356 -0.014765
v 6.737114 0.045115 -0.022352
v 6.742504 0.047178 -0.020473
v 6.725573 0.035856 -0.015394
v 6.727377 0.085108 -0.026033
v 6.726440 0.089303 -0.022303
v 6.727307 0.089402 -0.022155
v 6.742529 0.051597 -0.023575
v 6.747213 0.054440 -0.020491
v 6.725573 0.039465 -0.019725
v 6.719738 0.039769 -0.019513
v 6.720377 0.036183 -0.015236
v 6.750777 0.069818 -0.016982
v 6.746613 0.058912 -0.022807
v 6.749910 0.061952 -0.019042
v 6.725573 0.043725 -0.023488
v 6.731388 0.044015 -0.023280
v 6.715860 0.036964 -0.014444
v 6.748637 0.066810 -0.021141
v 6.746679 0.071652 -0.022694
v 6.731328 0.048435 -0.026749
v 6.725573 0.048172 -0.026954
v 6.719758 0.044015 -0.023280
v 6.719819 0.048435 -0.026749
v 6.737026 0.049491 -0.025750
v 6.745409 0.064101 -0.024799
v 6.743648 0.069280 -0.026132
v 6.741719 0.073675 -0.026768
v 6.725573 0.052986 -0.029749
v 6.714031 0.045115 -0.022352
v 6.714634 0.040877 -0.018591
v 6.742035 0.056231 -0.026080
v 6.736702 0.054227 -0.028460
v 6.741065 0.061702 -0.027965
v 6.739679 0.067206 -0.029021
v 6.738181 0.071885 -0.029376
v 6.736625 0.075528 -0.028942
v 6.709783 0.042662 -0.017166
v 6.711854 0.038279 -0.013207
v 6.731165 0.053230 -0.029538
v 6.736049 0.059892 -0.030283
v 6.730839 0.058958 -0.031381
v 6.735131 0.065638 -0.031115
v 6.734143 0.070543 -0.031245
v 6.733081 0.074377 -0.030601
v 6.708242 0.040616 -0.011271
v 6.725573 0.058712 -0.031622
v 6.725573 0.064531 -0.032414
v 6.730385 0.064781 -0.032157
v 6.729895 0.069767 -0.032193
v 6.729362 0.073673 -0.031465
v 6.728764 0.077349 -0.030367
v 6.728024 0.081623 -0.028277
v 6.719981 0.053230 -0.029538
v 6.720306 0.058958 -0.031381
v 6.725573 0.069522 -0.032435
v 6.725573 0.073433 -0.031696
v 6.725573 0.077117 -0.030606
v 6.725573 0.081468 -0.028469
v 6.714120 0.049491 -0.025750
v 6.714444 0.054227 -0.028460
v 6.721251 0.069767 -0.032193
v 6.721784 0.073673 -0.031465
v 6.722382 0.077349 -0.030367
v 6.723121 0.081623 -0.028277
v 6.725573 0.085007 -0.026177
v 6.723769 0.085108 -0.026033
v 6.708617 0.051597 -0.023575
v 6.708642 0.047178 -0.020473
v 6.720761 0.064781 -0.032157
v 6.718065 0.074377 -0.030601
v 6.719226 0.077988 -0.029561
v 6.720668 0.082068 -0.027669
v 6.724706 0.089303 -0.022303
v 6.721968 0.085416 -0.025586
v 6.725573 0.089204 -0.022451
v 6.704099 0.050003 -0.017728
v 6.705232 0.045459 -0.014752
v 6.716015 0.065638 -0.031115
v 6.718214 0.082789 -0.026610
v 6.720175 0.085937 -0.024818
v 6.723839 0.089402 -0.022155
v 6.723079 0.089723 -0.021676
v 6.701822 0.048968 -0.011495
v 6.704383 0.044307 -0.008254
v 6.717003 0.070543 -0.031245
v 6.718552 0.086671 -0.023708
v 6.715987 0.083790 -0.025095
v 6.722319 0.090045 -0.021198
v 6.700504 0.049267 -0.004380
v 6.712965 0.071885 -0.029376
v 6.714521 0.075528 -0.028942
v 6.716150 0.078980 -0.028199
v 6.717269 0.087615 -0.022241
v 6.721812 0.090574 -0.020402
v 6.721306 0.091104 -0.019606
v 6.699256 0.053393 -0.007155
v 6.697854 0.058407 -0.002607
v 6.699005 0.055100 0.000176
v 6.711387 0.077076 -0.026620
v 6.713382 0.080317 -0.026181
v 6.716349 0.088714 -0.020549
v 6.698687 0.057469 -0.009909
v 6.700731 0.053319 -0.014346
v 6.697869 0.060932 0.004733
v 6.714224 0.085077 -0.023124
v 6.700679 0.057710 -0.016763
v 6.703933 0.054440 -0.020491
v 6.697267 0.063118 0.002314
v 6.697514 0.066259 0.007171
v 6.700292 0.060932 0.014243
v 6.704533 0.058912 -0.022807
v 6.709111 0.056231 -0.026080
v 6.697061 0.071102 0.004957
v 6.696976 0.066768 -0.000098
v 6.697478 0.062050 -0.005156
v 6.698808 0.068683 0.011858
v 6.709427 0.073675 -0.026768
v 6.706653 0.075793 -0.023592
v 6.710082 0.061702 -0.027965
v 6.715096 0.059892 -0.030283
v 6.697539 0.065604 -0.007628
v 6.697244 0.070211 -0.002400
v 6.698631 0.061422 -0.012456
v 6.704706 0.078163 -0.019955
v 6.699118 0.065356 -0.014765
v 6.698066 0.069137 -0.009966
v 6.697600 0.075247 0.003029
v 6.697956 0.073267 -0.004540
v 6.701236 0.061952 -0.019042
v 6.702389 0.074285 -0.018760
v 6.701282 0.077145 -0.014390
v 6.711467 0.067206 -0.029021
v 6.702509 0.066810 -0.021141
v 6.705737 0.064101 -0.024799
v 6.699283 0.073119 -0.012323
v 6.699188 0.076769 -0.007067
v 6.707499 0.069280 -0.026132
v 6.700369 0.069818 -0.016982
v 6.704467 0.071652 -0.022694
v 6.698664 0.078162 0.001321
v 6.698469 0.079715 0.008313
v 6.697493 0.080806 0.014173
v 6.696586 0.078486 0.014475
v 6.700375 0.085168 0.022875
v 6.697031 0.079999 0.019122
v 6.701232 0.081956 0.027571
v 6.724263 0.020162 -0.048310
v 6.725573 0.014942 -0.049611
v 6.723135 0.019564 -0.047724
v 6.723488 0.023941 -0.047457
v 6.725573 0.020408 -0.048559
v 6.721679 0.022919 -0.046359
v 6.720723 0.021208 -0.044866
v 6.722539 0.018642 -0.046807
v 6.720453 0.026085 -0.044679
v 6.722787 0.027555 -0.046207
v 6.725573 0.028055 -0.046731
v 6.725573 0.024404 -0.047917
v 6.727658 0.023941 -0.047457
v 6.726882 0.020162 -0.048310
v 6.720751 0.019600 -0.043069
v 6.719145 0.021709 -0.040355
v 6.719063 0.024010 -0.042587
v 6.722487 0.017591 -0.045772
v 6.722325 0.031087 -0.044284
v 6.729467 0.022919 -0.046359
v 6.730693 0.026085 -0.044679
v 6.728359 0.027555 -0.046207
v 6.728011 0.019564 -0.047724
v 6.721646 0.017969 -0.041620
v 6.717953 0.026903 -0.040041
v 6.723153 0.016666 -0.044857
v 6.730423 0.021208 -0.044866
v 6.728821 0.031087 -0.044284
v 6.728607 0.018642 -0.046807
v 6.719583 0.029343 -0.042497
v 6.724231 0.016056 -0.044258
v 6.723384 0.017009 -0.040626
v 6.725573 0.031679 -0.044893
v 6.728659 0.017591 -0.045772
v 6.730395 0.019600 -0.043069
v 6.727993 0.016666 -0.044857
v 6.726915 0.016056 -0.044258
v 6.725573 0.015916 -0.044111
v 6.719119 0.032364 -0.040044
v 6.725573 0.016699 -0.040465
v 6.722781 0.018506 -0.037162
v 6.725573 0.034920 -0.042602
v 6.727762 0.017009 -0.040626
v 6.729499 0.017969 -0.041620
v 6.728365 0.018506 -0.037162
v 6.725573 0.018128 -0.036721
v 6.720459 0.019696 -0.038411
v 6.731563 0.029343 -0.042497
v 6.732027 0.032364 -0.040044
v 6.729070 0.034272 -0.041953
v 6.722076 0.034272 -0.041953
v 6.725573 0.019980 -0.033144
v 6.719593 0.021878 -0.035116
v 6.718033 0.024221 -0.037414
v 6.733193 0.026903 -0.040041
v 6.732082 0.024010 -0.042587
v 6.729090 0.037059 -0.039216
v 6.722056 0.037059 -0.039216
v 6.725573 0.037721 -0.039861
v 6.722307 0.020453 -0.033655
v 6.717458 0.026841 -0.034559
v 6.717360 0.029715 -0.037406
v 6.732001 0.021709 -0.040355
v 6.725573 0.040032 -0.036719
v 6.722060 0.022783 -0.030506
v 6.717313 0.032437 -0.034677
v 6.719082 0.035116 -0.037318
v 6.728839 0.020453 -0.033655
v 6.729085 0.022783 -0.030506
v 6.725573 0.022255 -0.029964
v 6.719144 0.024334 -0.032071
v 6.719463 0.037575 -0.034346
v 6.730687 0.019696 -0.038411
v 6.731553 0.021878 -0.035116
v 6.725573 0.024937 -0.027189
v 6.719108 0.027052 -0.029285
v 6.717412 0.029559 -0.031801
v 6.722259 0.039408 -0.036117
v 6.733113 0.024221 -0.037414
v 6.733688 0.026841 -0.034559
v 6.732002 0.024334 -0.032071
v 6.722040 0.025480 -0.027723
v 6.717884 0.032365 -0.029146
v 6.717800 0.035058 -0.031869
v 6.722677 0.041393 -0.032740
v 6.733786 0.029715 -0.037406
v 6.732038 0.027052 -0.029285
v 6.729106 0.025480 -0.027723
v 6.722241 0.028530 -0.025304
v 6.718753 0.037587 -0.029035
v 6.720229 0.039785 -0.031193
v 6.733833 0.032437 -0.034677
v 6.732064 0.035116 -0.037318
v 6.728905 0.028530 -0.025304
v 6.725573 0.028011 -0.024817
v 6.719475 0.030016 -0.026762
v 6.721455 0.041691 -0.027906
v 6.733735 0.029559 -0.031801
v 6.731683 0.037575 -0.034346
v 6.728887 0.039408 -0.036117
v 6.725573 0.031416 -0.022816
v 6.720147 0.033206 -0.024556
v 6.718777 0.035250 -0.026655
v 6.733263 0.032365 -0.029146
v 6.731671 0.030016 -0.026762
v 6.728469 0.041393 -0.032740
v 6.725573 0.041943 -0.033268
v 6.733346 0.035058 -0.031869
v 6.722599 0.031888 -0.023258
v 6.719983 0.038193 -0.024403
v 6.720237 0.039972 -0.026244
v 6.730999 0.033206 -0.024556
v 6.728547 0.031888 -0.023258
v 6.725573 0.043410 -0.029539
v 6.723368 0.042970 -0.029120
v 6.732393 0.037587 -0.029035
v 6.730917 0.039785 -0.031193
v 6.722254 0.042103 -0.023513
v 6.727977 0.035538 -0.021812
v 6.725573 0.035098 -0.021270
v 6.723169 0.035538 -0.021812
v 6.724342 0.044059 -0.025325
v 6.732369 0.035250 -0.026655
v 6.729692 0.041691 -0.027906
v 6.727778 0.042970 -0.029120
v 6.723133 0.043208 -0.024543
v 6.722019 0.041055 -0.022506
v 6.725573 0.044342 -0.025586
v 6.731163 0.038193 -0.024403
v 6.730147 0.036575 -0.022717
v 6.726803 0.044059 -0.025325
v 6.722511 0.040137 -0.021560
v 6.720999 0.036575 -0.022717
v 6.730909 0.039972 -0.026244
v 6.728635 0.040137 -0.021560
v 6.727337 0.039401 -0.020633
v 6.725573 0.039065 -0.020135
v 6.728014 0.043208 -0.024543
v 6.723809 0.039401 -0.020633
v 6.728892 0.042103 -0.023513
v 6.729127 0.041055 -0.022506
vn -0.3521 -0.5331 0.7693
vn -0.4618 -0.5378 0.7053
vn -0.1951 -0.6319 0.7501
vn -0.1342 -0.5644 0.8145
vn 0.2134 -0.6318 0.7452
vn 0.1036 -0.5671 0.8171
vn 0.0138 -0.6816 0.7316
vn 0.8744 0.3422 0.3441
vn 0.8387 0.4687 0.2772
vn 0.7213 0.4670 0.5116
vn 0.7627 0.3261 0.5585
vn -0.9621 -0.0770 0.2614
vn -0.9766 0.1823 -0.1144
vn -0.9978 0.0118 0.0647
vn -0.9767 -0.0950 0.1923
vn 0.3848 0.9211 -0.0598
vn 0.3529 0.9356 -0.0017
vn 0.2440 0.9693 0.0293
vn 0.2104 0.9745 -0.0774
vn -0.5850 -0.7482 0.3131
vn 0.3521 -0.5331 0.7693
vn 0.5850 -0.7482 0.3131
vn 0.5385 -0.4898 0.6856
vn 0.4618 -0.5378 0.7053
vn -0.5385 -0.4898 0.6856
vn 0.6547 -0.4582 0.6012
vn -0.6547 -0.4582 0.6012
vn -0.6535 -0.4586 0.6022
vn 0.8699 -0.4548 -0.1909
vn 0.8299 -0.4990 -0.2496
vn 0.8296 -0.2408 -0.5038
vn 0.8674 -0.1981 -0.4564
vn -0.7093 -0.4322 0.5569
vn -0.7066 -0.4337 0.5592
vn 0.7093 -0.4322 0.5569
vn -0.1258 0.9117 0.3910
vn -0.2952 0.8107 0.5056
vn -0.1994 0.8022 0.5628
vn -0.0582 0.8784 0.4744
vn 0.6535 -0.4586 0.6022
vn 0.7702 -0.3922 0.5029
vn -0.7702 -0.3922 0.5029
vn 0.7066 -0.4337 0.5592
vn 0.7637 -0.3972 0.5090
vn -0.8178 -0.3510 0.4561
vn -0.8125 -0.3562 0.4614
vn -0.7637 -0.3972 0.5090
vn 0.8178 -0.3510 0.4561
vn 0.9781 0.1927 -0.0783
vn 0.9914 0.1012 -0.0831
vn 0.9703 0.2067 -0.1260
vn 0.9432 0.3164 -0.1017
vn 0.8382 -0.3288 0.4351
vn 0.6501 -0.2432 0.7199
vn 0.7886 -0.0069 0.6149
vn 0.6084 -0.0797 0.7896
vn 0.5432 -0.2125 0.8123
vn 0.8125 -0.3562 0.4614
vn 0.8371 -0.3302 0.4361
vn -0.8382 -0.3288 0.4351
vn 0.8397 -0.3274 0.4333
vn -0.8397 -0.3274 0.4333
vn -0.8371 -0.3302 0.4361
vn 0.8287 -0.3460 0.4400
vn -0.8287 -0.3460 0.4400
vn 0.8029 -0.3921 0.4490
vn -0.8029 -0.3921 0.4490
vn 0.7689 -0.4545 0.4498
vn -0.7689 -0.4545 0.4498
vn 0.7395 -0.5118 0.4372
vn -0.7395 -0.5118 0.4372
vn 0.7173 -0.5607 0.4137
vn -0.7173 -0.5607 0.4137
vn 0.7038 -0.5981 0.3832
vn -0.7038 -0.5981 0.3832
vn 0.6988 -0.6198 0.3571
vn -0.6988 -0.6198 0.3571
vn 0.5663 -0.7257 -0.3907
vn -0.5663 -0.7257 -0.3907
vn -0.1993 -0.1065 -0.9741
vn 0.1883 -0.0775 -0.9791
vn 0.1934 -0.0900 -0.9770
vn 0.1993 -0.1065 -0.9741
vn 0.1964 -0.1123 -0.9741
vn 0.1959 -0.1062 -0.9749
vn 0.1862 -0.0740 -0.9797
vn -0.1964 -0.1123 -0.9741
vn -0.1959 -0.1062 -0.9749
vn -0.1934 -0.0900 -0.9770
vn -0.1883 -0.0775 -0.9791
vn -0.1862 -0.0740 -0.9797
vn -0.0790 0.9154 -0.3948
vn -0.0000 0.8305 -0.5571
vn -0.1071 0.9032 -0.4157
vn 0.1071 0.9032 -0.4157
vn 0.0790 0.9154 -0.3948
vn 0.1340 0.9550 -0.2646
vn 0.1866 0.9397 -0.2865
vn -0.0426 0.9183 -0.3937
vn 0.7160 0.6956 -0.0584
vn 0.8661 0.4802 0.1388
vn 0.9276 0.3681 0.0632
vn 0.7624 0.6241 -0.1713
vn -0.1425 0.8902 -0.4327
vn 0.2429 0.9138 -0.3256
vn 0.1425 0.8902 -0.4327
vn 0.1845 0.9720 -0.1457
vn 0.2558 0.9516 -0.1703
vn 0.0760 0.9651 -0.2506
vn 0.1056 0.9853 -0.1340
vn 0.8185 0.5536 -0.1535
vn 0.7710 0.6199 -0.1457
vn 0.6669 0.7302 -0.1483
vn 0.7685 0.6370 -0.0594
vn -0.0000 0.9243 -0.3818
vn -0.1658 0.8698 -0.4648
vn 0.9653 -0.1913 -0.1778
vn 0.9621 -0.0935 -0.2560
vn 0.9901 -0.0007 -0.1406
vn 0.9921 -0.0958 -0.0811
vn 0.3406 0.9152 -0.2155
vn 0.0426 0.9183 -0.3937
vn -0.2440 0.9693 0.0293
vn -0.1608 0.9860 0.0451
vn -0.1449 0.9893 -0.0151
vn -0.2264 0.9736 -0.0286
vn -0.3560 -0.6006 -0.7159
vn -0.5613 -0.5295 -0.6361
vn -0.5693 -0.4133 -0.7106
vn -0.3608 -0.5032 -0.7853
vn 0.9347 0.2239 -0.2762
vn 0.8946 0.1356 -0.4258
vn 0.8316 0.2586 -0.4915
vn 0.8747 0.3392 -0.3462
vn -0.0000 0.9916 -0.1295
vn -0.0000 0.9692 -0.2461
vn -0.0760 0.9651 -0.2506
vn -0.1056 0.9853 -0.1340
vn -0.1882 0.8521 -0.4884
vn -0.4935 0.7293 -0.4739
vn -0.4931 0.7679 -0.4089
vn -0.3435 0.8100 -0.4754
vn -0.3469 0.7782 -0.5236
vn 0.4676 0.8155 -0.3411
vn 0.3248 0.8444 -0.4260
vn 0.2926 0.8795 -0.3752
vn 0.4161 0.8668 -0.2748
vn -0.8316 0.2586 -0.4915
vn -0.7508 0.1736 -0.6373
vn -0.8096 0.0457 -0.5852
vn -0.8946 0.1356 -0.4258
vn 0.2074 0.3952 -0.8949
vn 0.1627 0.5120 -0.8435
vn 0.2493 0.5345 -0.8076
vn 0.3220 0.4228 -0.8471
vn -0.1340 0.9550 -0.2646
vn -0.1949 0.8331 -0.5176
vn 0.1258 0.9117 0.3910
vn 0.2952 0.8107 0.5056
vn 0.5058 0.8016 0.3187
vn 0.3281 0.9294 0.1692
vn 0.5132 0.8345 -0.2008
vn 0.5900 0.7632 -0.2635
vn -0.9667 0.2189 0.1323
vn -0.9343 0.3355 0.1204
vn -0.9522 0.2819 -0.1181
vn -0.9748 0.1942 -0.1102
vn 0.2440 0.6627 -0.7080
vn 0.1472 0.7450 -0.6507
vn 0.1731 0.7659 -0.6192
vn 0.2934 0.6949 -0.6565
vn 0.4126 0.9010 -0.1343
vn 0.3074 0.9488 -0.0724
vn -0.2475 0.2773 -0.9284
vn -0.3834 0.3163 -0.8677
vn -0.3220 0.4228 -0.8471
vn -0.2074 0.3952 -0.8949
vn 0.1658 0.8698 -0.4648
vn -0.2036 0.8111 -0.5484
vn 0.3469 0.7782 -0.5236
vn 0.2036 0.8111 -0.5484
vn 0.1949 0.8331 -0.5176
vn 0.3435 0.8100 -0.4754
vn 0.4931 0.7679 -0.4089
vn 0.4935 0.7293 -0.4739
vn -0.7160 0.6956 -0.0584
vn -0.6832 0.7302 0.0019
vn -0.4279 0.8918 -0.1467
vn -0.4378 0.8714 -0.2214
vn -0.1960 0.7915 -0.5789
vn -0.9901 -0.0007 -0.1406
vn -0.9734 0.1052 -0.2034
vn -0.9399 0.0104 -0.3412
vn -0.9621 -0.0935 -0.2560
vn 0.4749 0.6942 -0.5409
vn 0.3391 0.7486 -0.5698
vn -0.3890 -0.2569 0.8847
vn -0.6978 -0.0809 0.7117
vn -0.7343 -0.2151 0.6438
vn -0.3915 -0.3848 0.8359
vn 0.7192 0.5984 -0.3531
vn 0.6315 0.6605 -0.4062
vn 0.6269 0.7056 -0.3305
vn 0.7085 0.6511 -0.2721
vn 0.7081 0.5407 -0.4542
vn 0.6150 0.6147 -0.4938
vn 0.6730 0.7086 -0.2119
vn 0.1884 0.9821 -0.0028
vn 0.0369 0.9462 0.3215
vn -0.2926 0.8795 -0.3752
vn -0.2429 0.9138 -0.3256
vn 0.3345 0.5672 -0.7526
vn 0.3989 0.6100 -0.6847
vn 0.4429 0.6544 -0.6128
vn 0.3209 0.7226 -0.6123
vn -0.3345 0.5672 -0.7526
vn -0.2440 0.6627 -0.7080
vn -0.1819 0.6349 -0.7509
vn -0.2493 0.5345 -0.8076
vn -0.0000 0.9859 0.1674
vn 0.0092 0.9930 0.1181
vn 0.0883 0.9959 -0.0169
vn -0.0000 0.9993 0.0367
vn -0.8567 -0.0811 -0.5095
vn 0.4835 0.8734 -0.0582
vn 0.0141 0.9504 0.3107
vn 0.0138 0.9440 0.3296
vn -0.0000 0.9597 0.2810
vn -0.0000 0.9566 0.2914
vn -0.4449 0.6473 0.6189
vn -0.3442 0.6618 0.6659
vn 0.2264 0.9736 -0.0286
vn 0.1449 0.9893 -0.0151
vn 0.1608 0.9860 0.0451
vn 0.5752 0.5592 -0.5970
vn 0.6661 0.4759 -0.5743
vn 0.5922 0.4152 -0.6905
vn 0.5106 0.5038 -0.6967
vn -0.0000 0.9999 -0.0131
vn -0.0000 0.9983 0.0576
vn 0.7894 0.4561 -0.4109
vn 0.7464 0.3848 -0.5431
vn 0.7993 0.5216 -0.2984
vn -0.7881 0.2211 0.5745
vn -0.7627 0.3261 0.5585
vn -0.8744 0.3422 0.3441
vn -0.9010 0.2304 0.3676
vn -0.7248 -0.1750 -0.6664
vn -0.5631 -0.2667 -0.7822
vn -0.7442 -0.3041 -0.5947
vn -0.9798 -0.2000 0.0004
vn -0.9921 -0.0958 -0.0811
vn -0.9653 -0.1913 -0.1778
vn -0.9457 -0.3116 -0.0928
vn 0.3560 -0.6006 -0.7159
vn 0.5613 -0.5295 -0.6361
vn 0.5425 -0.6423 -0.5414
vn 0.3463 -0.6872 -0.6386
vn -0.0092 0.9930 0.1181
vn 0.4438 0.1789 -0.8781
vn 0.3834 0.3163 -0.8677
vn 0.4978 0.3624 -0.7879
vn 0.5691 0.2409 -0.7862
vn 0.8808 0.4141 -0.2296
vn 0.7832 0.5840 -0.2133
vn 0.8565 0.4936 -0.1509
vn -0.7886 -0.0069 0.6149
vn -0.9234 0.0434 0.3814
vn -0.8868 -0.1157 0.4475
vn -0.6501 -0.2432 0.7199
vn 0.8133 0.5701 -0.1164
vn 0.7501 0.6423 -0.1575
vn 0.6668 0.7395 -0.0922
vn 0.7202 0.6865 -0.0998
vn 0.5381 0.8419 -0.0399
vn 0.5770 0.8077 -0.1211
vn -0.0000 -0.4388 0.8986
vn -0.0000 -0.3158 0.9488
vn -0.1845 0.9720 -0.1457
vn -0.9537 -0.2321 0.1914
vn -0.8211 -0.3149 0.4761
vn -0.9431 -0.1634 0.2896
vn -0.9948 -0.1008 -0.0123
vn -0.8387 0.4687 0.2772
vn -0.7213 0.4670 0.5116
vn -0.6398 0.6399 0.4256
vn -0.7773 0.5983 0.1945
vn -0.7125 -0.3348 0.6166
vn -0.6193 -0.4076 0.6711
vn -0.5118 -0.3884 0.7662
vn 0.8736 0.4672 -0.1362
vn 0.8366 0.5475 0.0162
vn 0.8888 0.4522 0.0741
vn 0.9194 0.3742 -0.1215
vn -0.1627 0.5120 -0.8435
vn -0.1204 0.6180 -0.7769
vn -0.2104 0.9745 -0.0774
vn -0.0883 0.9959 -0.0169
vn -0.3074 0.9488 -0.0724
vn -0.3529 0.9356 -0.0017
vn -0.2558 0.9516 -0.1703
vn 0.9343 0.3355 0.1204
vn 0.8860 0.4398 -0.1468
vn 0.8552 0.5048 -0.1172
vn -0.6987 -0.7136 0.0510
vn -0.7305 -0.6629 0.1643
vn -0.9127 -0.3954 -0.1031
vn -0.8699 -0.4548 -0.1909
vn -0.4835 0.8734 -0.0582
vn -0.4126 0.9010 -0.1343
vn -0.0000 0.9748 -0.2229
vn -0.0000 0.9543 -0.2988
vn 0.5399 0.8395 -0.0604
vn 0.6787 0.7281 0.0964
vn -0.8185 0.5536 -0.1535
vn -0.8860 0.4398 -0.1468
vn -0.8736 0.4672 -0.1362
vn 0.7446 -0.4334 -0.5077
vn 0.7273 -0.5702 -0.3820
vn -0.0141 0.9504 0.3107
vn 0.9877 -0.0290 0.1535
vn 0.9905 0.0669 0.1205
vn 0.9234 0.0434 0.3814
vn 0.8868 -0.1157 0.4475
vn -0.4161 0.8668 -0.2748
vn -0.5132 0.8345 -0.2008
vn -0.3406 0.9152 -0.2155
vn 0.9052 0.4090 -0.1158
vn -0.9781 0.1927 -0.0783
vn -0.9287 0.3346 -0.1601
vn -0.9432 0.3164 -0.1017
vn -0.8899 0.2021 0.4089
vn -0.8437 0.3090 0.4390
vn -0.8166 0.5493 0.1771
vn -0.8661 0.4802 0.1388
vn -0.3248 0.8444 -0.4260
vn 0.1882 0.8521 -0.4884
vn 0.9357 0.3091 -0.1700
vn -0.8133 0.5701 -0.1164
vn -0.7202 0.6865 -0.0998
vn -0.6668 0.7395 -0.0922
vn -0.7501 0.6423 -0.1575
vn 0.5935 0.7924 -0.1408
vn -0.0138 0.9440 0.3296
vn -0.3848 0.9211 -0.0598
vn -0.4239 0.8931 -0.1505
vn -0.1884 0.9821 -0.0028
vn -0.4676 0.8155 -0.3411
vn -0.3816 -0.8521 0.3582
vn -0.3586 -0.9023 0.2393
vn -0.9822 0.1445 0.1204
vn -0.9905 0.0669 0.1205
vn -0.9201 0.1517 0.3610
vn 0.0050 0.9130 0.4078
vn -0.5381 0.8419 -0.0399
vn 0.1960 0.7915 -0.5789
vn -0.3391 0.7486 -0.5698
vn 0.9667 0.2189 0.1323
vn 0.9010 0.2304 0.3676
vn -0.3281 0.9294 0.1692
vn -0.0369 0.9462 0.3215
vn -0.5399 0.8395 -0.0604
vn -0.5770 0.8077 -0.1211
vn -0.5935 0.7924 -0.1408
vn 0.6613 -0.0134 -0.7500
vn 0.7004 0.0414 -0.7126
vn -0.6787 0.7281 0.0964
vn -0.5058 0.8016 0.3187
vn -0.6669 0.7302 -0.1483
vn 0.8565 -0.4594 -0.2353
vn 0.8889 -0.3121 -0.3355
vn 0.9457 -0.3116 -0.0928
vn 0.0582 0.8784 0.4744
vn 0.7773 0.5983 0.1945
vn 0.6398 0.6399 0.4256
vn -0.0050 0.9130 0.4078
vn 0.6709 0.3116 -0.6728
vn -0.1866 0.9397 -0.2865
vn 0.1994 0.8022 0.5628
vn -0.6269 0.7056 -0.3305
vn -0.5900 0.7632 -0.2635
vn -0.6278 0.0626 0.7759
vn -0.8034 0.1243 0.5824
vn -0.6084 -0.0797 0.7896
vn -0.8299 -0.4990 -0.2496
vn -0.6591 -0.7517 -0.0233
vn 0.3442 0.6618 0.6659
vn 0.4449 0.6473 0.6189
vn 0.7509 0.1398 -0.6454
vn 0.9154 -0.1138 -0.3861
vn -0.6843 -0.6484 -0.3337
vn -0.8096 -0.5572 -0.1846
vn -0.8565 -0.4594 -0.2353
vn -0.7273 -0.5702 -0.3820
vn 0.4883 -0.1061 0.8662
vn 0.6278 0.0626 0.7759
vn 0.5138 0.0468 0.8566
vn 0.4314 0.4775 0.7654
vn 0.5283 0.4587 0.7145
vn 0.1632 -0.7129 -0.6820
vn 0.1545 -0.6342 -0.7575
vn -0.5283 0.4587 0.7145
vn -0.5776 0.3067 0.7565
vn -0.6153 0.1880 0.7655
vn -0.5027 0.1860 0.8442
vn -0.4690 0.3161 0.8247
vn 0.4690 0.3161 0.8247
vn 0.5776 0.3067 0.7565
vn -0.1919 0.7767 -0.5999
vn -0.3209 0.7226 -0.6123
vn 0.1919 0.7767 -0.5999
vn -0.5138 0.0468 0.8566
vn -0.4314 0.4775 0.7654
vn -0.9154 -0.1138 -0.3861
vn -0.8674 -0.1981 -0.4564
vn -0.5752 0.5592 -0.5970
vn -0.5106 0.5038 -0.6967
vn -0.5922 0.4152 -0.6905
vn -0.6661 0.4759 -0.5743
vn -0.3989 0.6100 -0.6847
vn -0.4429 0.6544 -0.6128
vn -0.2934 0.6949 -0.6565
vn 0.7293 -0.3955 0.5584
vn 0.8211 -0.3149 0.4761
vn 0.7125 -0.3348 0.6166
vn 0.6193 -0.4076 0.6711
vn -0.4883 -0.1061 0.8662
vn -0.5425 -0.6423 -0.5414
vn -0.5059 -0.7021 -0.5012
vn 0.9201 0.1517 0.3610
vn 0.8034 0.1243 0.5824
vn 0.4239 0.8931 -0.1505
vn 0.7881 0.2211 0.5745
vn 0.6153 0.1880 0.7655
vn 0.5027 0.1860 0.8442
vn -0.4749 0.6942 -0.5409
vn -0.6150 0.6147 -0.4938
vn -0.6315 0.6605 -0.4062
vn -0.8888 0.4522 0.0741
vn -0.8366 0.5475 0.0162
vn -0.7898 -0.3565 0.4991
vn -0.7293 -0.3955 0.5584
vn -0.5432 -0.2125 0.8123
vn 0.5118 -0.3884 0.7662
vn -0.9194 0.3742 -0.1215
vn -0.6730 0.7086 -0.2119
vn 0.7899 0.5487 -0.2738
vn 0.9607 0.2773 -0.0129
vn 0.9431 -0.1634 0.2896
vn -0.9877 -0.0290 0.1535
vn 0.7898 -0.3565 0.4991
vn 0.9575 -0.2178 0.1893
vn 0.9537 -0.2321 0.1914
vn -0.9052 0.4090 -0.1158
vn -0.8552 0.5048 -0.1172
vn -0.8852 -0.1903 -0.4246
vn -0.8889 -0.3121 -0.3355
vn -0.9795 -0.0720 -0.1882
vn -0.9852 -0.0815 -0.1508
vn 0.9852 -0.0815 -0.1509
vn -0.9843 0.1323 -0.1172
vn -0.9915 0.0661 -0.1117
vn -0.6374 0.0920 -0.7650
vn -0.6709 0.3116 -0.6728
vn -0.5691 0.2409 -0.7862
vn -0.9575 -0.2178 0.1893
vn -0.7710 0.6199 -0.1457
vn -0.9726 0.0622 -0.2240
vn -0.9766 -0.0127 -0.2145
vn -0.9955 -0.0144 -0.0931
vn -0.9640 0.1288 -0.2327
vn 0.8852 -0.1903 -0.4246
vn 0.8567 -0.0811 -0.5095
vn 0.9399 0.0104 -0.3412
vn 0.9748 0.1942 -0.1102
vn 0.9766 0.1823 -0.1144
vn 0.9522 0.2819 -0.1181
vn -0.7685 0.6370 -0.0594
vn -0.3284 -0.7368 -0.5911
vn -0.3463 -0.6872 -0.6386
vn 0.1204 0.6180 -0.7769
vn 0.0741 0.7177 -0.6924
vn 0.1072 0.7331 -0.6716
vn 0.1819 0.6349 -0.7509
vn 0.9287 0.3346 -0.1601
vn 0.4645 0.4409 -0.7680
vn 0.4750 0.5579 -0.6805
vn 0.8016 0.3601 -0.4772
vn 0.7850 0.2539 -0.5651
vn 0.9948 -0.1008 -0.0123
vn 0.5693 -0.4133 -0.7106
vn 0.7442 -0.3041 -0.5947
vn -0.9703 0.2067 -0.1260
vn -0.9357 0.3091 -0.1700
vn -0.9914 0.1012 -0.0831
vn 0.9978 0.0118 0.0647
vn -0.9998 -0.0167 -0.0127
vn -0.3612 -0.3482 -0.8650
vn -0.1486 -0.3964 -0.9060
vn -0.1501 -0.5510 -0.8209
vn -0.9899 -0.1273 0.0627
vn 0.9621 -0.0770 0.2614
vn 0.9524 -0.1313 0.2753
vn 0.9767 -0.0950 0.1923
vn -0.8565 0.4936 -0.1509
vn -0.7832 0.5840 -0.2133
vn -0.7993 0.5216 -0.2984
vn -0.8808 0.4141 -0.2296
vn 0.9955 -0.0144 -0.0931
vn 0.9724 -0.1837 0.1436
vn 0.9899 -0.1273 0.0627
vn 0.7508 0.1736 -0.6373
vn -0.7085 0.6511 -0.2721
vn -0.7192 0.5984 -0.3531
vn 0.6374 0.0920 -0.7650
vn 0.4979 0.0248 -0.8669
vn -0.9276 0.3681 0.0632
vn -0.9360 0.0625 0.3463
vn 0.4100 0.1841 -0.8933
vn 0.3783 0.1336 -0.9160
vn -0.0000 0.1762 -0.9844
vn -0.0000 0.2378 -0.9713
vn -0.9724 -0.1837 0.1436
vn -0.9634 -0.2624 0.0540
vn 0.9822 0.1445 0.1204
vn 0.9915 0.0661 -0.1117
vn -0.7894 0.4561 -0.4109
vn -0.8747 0.3392 -0.3462
vn -0.6863 -0.0394 -0.7263
vn 0.5365 -0.1108 -0.8366
vn 0.6863 -0.0394 -0.7263
vn 0.7248 -0.1750 -0.6664
vn 0.5631 -0.2667 -0.7822
vn -0.7081 0.5407 -0.4542
vn -0.7464 0.3848 -0.5431
vn -0.9347 0.2239 -0.2762
vn 0.0966 0.3724 -0.9230
vn 0.2475 0.2773 -0.9284
vn 0.1100 0.2476 -0.9626
vn 0.9640 0.1288 -0.2327
vn 0.9843 0.1323 -0.1172
vn -0.1731 0.7659 -0.6192
vn -0.1472 0.7450 -0.6507
vn -0.4978 0.3624 -0.7879
vn -0.9114 -0.4046 -0.0748
vn 0.4068 -0.5000 0.7646
vn 0.3915 -0.3848 0.8359
vn -0.0000 -0.5613 0.8276
vn 0.9798 -0.2000 0.0004
vn 0.9998 -0.0167 -0.0127
vn 0.9734 0.1052 -0.2034
vn 0.9547 -0.0102 -0.2974
vn 0.9502 -0.3117 0.0043
vn 0.9127 -0.3954 -0.1031
vn -0.4272 0.4582 -0.7795
vn -0.7446 -0.4334 -0.5077
vn 0.4378 0.8714 -0.2214
vn 0.4554 0.8188 -0.3495
vn -0.0000 0.9041 -0.4273
vn 0.6755 0.0240 0.7370
vn 0.4009 -0.1859 0.8970
vn 0.3890 -0.2569 0.8847
vn 0.6978 -0.0809 0.7117
vn -0.1072 0.7331 -0.6716
vn -0.0741 0.7177 -0.6924
vn -0.1632 -0.7129 -0.6820
vn -0.1545 -0.6342 -0.7575
vn -0.7549 -0.5936 0.2787
vn -0.9502 -0.3117 0.0043
vn -0.0598 0.6068 -0.7926
vn -0.0788 0.4972 -0.8641
vn -0.0354 0.7171 -0.6961
vn 0.0354 0.7171 -0.6961
vn -0.0000 -0.7696 -0.6385
vn -0.0000 -0.7187 -0.6953
vn 0.1548 -0.7629 -0.6277
vn -0.0000 -0.6399 -0.7685
vn -0.0000 -0.4083 -0.9129
vn -0.0000 -0.5608 -0.8280
vn 0.3284 -0.7368 -0.5911
vn -0.0000 0.7102 -0.7040
vn -0.0000 0.6036 -0.7973
vn 0.7549 -0.5936 0.2787
vn 0.7716 -0.5060 0.3855
vn 0.4139 -0.7027 0.5786
vn 0.4013 -0.7881 0.4668
vn -0.3229 -0.0265 -0.9461
vn -0.2881 0.1296 -0.9488
vn -0.1252 0.0985 -0.9872
vn -0.1387 -0.0592 -0.9886
vn 0.1486 -0.3964 -0.9060
vn 0.1501 -0.5510 -0.8209
vn -0.0000 0.8409 -0.5412
vn 0.4686 0.7531 -0.4618
vn 0.4759 0.6672 -0.5730
vn -0.0000 0.7544 -0.6564
vn 0.3608 -0.5032 -0.7853
vn 0.4448 0.3106 -0.8401
vn -0.5365 -0.1108 -0.8366
vn -0.4979 0.0248 -0.8669
vn -0.3464 -0.1707 -0.9224
vn -0.4438 0.1789 -0.8781
vn 0.5059 -0.7021 -0.5012
vn 0.9573 -0.0311 0.2874
vn 0.7609 -0.3100 0.5700
vn 0.7732 -0.4084 0.4851
vn 0.9712 -0.1249 0.2030
vn 0.9767 0.1871 -0.1046
vn 0.8031 0.4627 -0.3755
vn -0.1448 -0.2103 -0.9669
vn 0.8096 0.0457 -0.5852
vn 0.6843 -0.6484 -0.3337
vn -0.0000 -0.0693 -0.9976
vn -0.0000 -0.2221 -0.9750
vn -0.1100 0.2476 -0.9626
vn -0.0966 0.3724 -0.9230
vn 0.1448 -0.2103 -0.9669
vn 0.1387 -0.0592 -0.9886
vn 0.3229 -0.0265 -0.9461
vn 0.3464 -0.1707 -0.9224
vn 0.0788 0.4972 -0.8641
vn 0.0598 0.6068 -0.7926
vn -0.0000 0.2358 -0.9718
vn -0.0000 0.0889 -0.9960
vn 0.3612 -0.3482 -0.8650
vn 0.9795 -0.0720 -0.1882
vn 0.9766 -0.0127 -0.2145
vn 0.1252 0.0985 -0.9872
vn -0.0000 0.3621 -0.9321
vn -0.0000 0.4915 -0.8709
vn 0.4272 0.4582 -0.7795
vn 0.2881 0.1296 -0.9488
vn 0.8096 -0.5572 -0.1846
vn 0.9114 -0.4046 -0.0748
vn 0.9634 -0.2624 0.0540
vn -0.9573 -0.0311 0.2874
vn -0.9607 0.2773 -0.0129
vn -0.9524 -0.1313 0.2753
vn -0.1548 -0.7629 -0.6277
vn 0.8899 0.2021 0.4089
vn 0.8437 0.3090 0.4390
vn -0.0000 -0.9564 0.2920
vn -0.0000 -0.9093 0.4162
vn -0.4645 0.4409 -0.7680
vn -0.0000 0.5185 -0.8551
vn -0.0000 0.3802 -0.9249
vn -0.4448 0.3106 -0.8401
vn 0.3816 -0.8521 0.3582
vn -0.0000 -0.8504 0.5261
vn -0.3783 0.1336 -0.9160
vn -0.0000 -0.6957 -0.7183
vn -0.6613 -0.0134 -0.7500
vn 0.6832 0.7302 0.0019
vn 0.8166 0.5493 0.1771
vn -0.8296 -0.2408 -0.5038
vn 0.3339 -0.9323 0.1387
vn 0.3586 -0.9023 0.2393
vn -0.0000 -0.9805 0.1965
vn 0.6591 -0.7517 -0.0233
vn 0.6987 -0.7135 0.0510
vn -0.4100 0.1841 -0.8933
vn -0.7004 0.0414 -0.7126
vn -0.7509 0.1398 -0.6454
vn 0.7305 -0.6629 0.1643
vn -0.9547 -0.0102 -0.2974
vn -0.7850 0.2539 -0.5651
vn -0.7899 0.5487 -0.2738
vn -0.7624 0.6241 -0.1713
vn -0.4554 0.8188 -0.3495
vn -0.4686 0.7531 -0.4618
vn -0.3339 -0.9323 0.1387
vn 0.9750 0.0878 -0.2042
vn -0.9750 0.0878 -0.2042
vn -0.8016 0.3601 -0.4772
vn -0.4750 0.5579 -0.6805
vn -0.0000 0.6413 -0.7673
vn -0.0000 -0.2616 0.9652
vn -0.4009 -0.1859 0.8970
vn -0.7609 -0.3100 0.5700
vn -0.4013 -0.7881 0.4668
vn 0.9694 -0.2218 0.1050
vn -0.4759 0.6672 -0.5730
vn -0.8031 0.4627 -0.3755
vn -0.0000 -0.6676 0.7445
vn -0.4152 -0.6038 0.6804
vn -0.4139 -0.7027 0.5786
vn -0.0000 -0.7671 0.6415
vn 0.4152 -0.6038 0.6804
vn -0.7716 -0.5060 0.3855
vn -0.9694 -0.2218 0.1050
vn 0.9726 0.0622 -0.2240
vn -0.9712 -0.1249 0.2030
vn -0.9767 0.1871 -0.1047
vn -0.7732 -0.4084 0.4851
vn -0.4068 -0.5000 0.7646
vn 0.9360 0.0625 0.3463
vn 0.7343 -0.2151 0.6438
vn 0.4279 0.8918 -0.1467
vn -0.6755 0.0240 0.7370
vt 0.000000 0.000000
s 1
f 9/1/1 12/1/2 7/1/3 6/1/4
f 1/1/5 4/1/6 5/1/7
f 253/1/8 255/1/9 231/1/10 247/1/11
f 528/1/12 381/1/13 525/1/14 521/1/15
f 180/1/16 186/1/17 145/1/18 152/1/19
f 6/1/4 8/1/20 9/1/1
f 4/1/6 3/1/21 10/1/22
f 3/1/21 11/1/23 10/1/22
f 3/1/21 2/1/24 11/1/23
f 9/1/1 13/1/25 12/1/2
f 9/1/1 8/1/20 13/1/25
f 11/1/23 14/1/26 10/1/22
f 16/1/27 17/1/28 12/1/2 13/1/25
f 13/1/25 8/1/20 16/1/27
f 593/1/29 592/1/30 587/1/31 585/1/32
f 20/1/33 21/1/34 17/1/28 16/1/27
f 14/1/26 18/1/35 10/1/22
f 16/1/27 8/1/20 20/1/33
f 207/1/36 215/1/37 214/1/38 213/1/39
f 2/1/24 15/1/40 14/1/26 11/1/23
f 18/1/35 22/1/41 10/1/22
f 20/1/33 8/1/20 24/1/42
f 19/1/43 23/1/44 22/1/41 18/1/35
f 28/1/45 29/1/46 25/1/47 24/1/42
f 22/1/41 26/1/48 10/1/22
f 325/1/49 334/1/50 330/1/51 324/1/52
f 24/1/42 8/1/20 28/1/45
f 26/1/48 30/1/53 10/1/22
f 263/1/54 262/1/55 256/1/56 257/1/57
f 27/1/58 31/1/59 30/1/53 26/1/48
f 28/1/45 8/1/20 32/1/60
f 30/1/53 34/1/61 10/1/22
f 30/1/53 31/1/59 34/1/61
f 32/1/60 35/1/62 33/1/63
f 32/1/60 8/1/20 35/1/62
f 34/1/61 36/1/64 10/1/22
f 35/1/62 8/1/20 37/1/65
f 36/1/64 38/1/66 10/1/22
f 37/1/65 8/1/20 39/1/67
f 38/1/66 40/1/68 10/1/22
f 39/1/67 8/1/20 41/1/69
f 40/1/68 42/1/70 10/1/22
f 41/1/69 8/1/20 43/1/71
f 42/1/70 44/1/72 10/1/22
f 43/1/71 8/1/20 45/1/73
f 44/1/72 46/1/74 10/1/22
f 45/1/73 8/1/20 47/1/75
f 46/1/74 48/1/76 10/1/22
f 47/1/75 8/1/20 49/1/77
f 48/1/76 50/1/78 10/1/22
f 49/1/77 8/1/20 51/1/79
f 50/1/78 52/1/80 10/1/22
f 8/1/20 53/1/81 54/1/82
f 8/1/20 55/1/83 51/1/79
f 8/1/20 56/1/84 55/1/83
f 8/1/20 57/1/85 56/1/84
f 8/1/20 54/1/82 57/1/85
f 8/1/20 58/1/86 53/1/81
f 52/1/80 59/1/87 10/1/22
f 59/1/87 60/1/88 10/1/22
f 10/1/22 60/1/88 61/1/89
f 10/1/22 61/1/89 62/1/90
f 10/1/22 62/1/90 63/1/91
f 64/1/92 65/1/93 66/1/94
f 101/1/95 93/1/96 92/1/97 100/1/98
f 64/1/92 68/1/99 65/1/93
f 682/1/100 692/1/101 674/1/102 675/1/103
f 66/1/94 65/1/93 69/1/104
f 107/1/105 108/1/106 101/1/95 100/1/98
f 91/1/107 154/1/108 100/1/98 92/1/97
f 91/1/107 92/1/97 83/1/109 90/1/110
f 315/1/111 307/1/112 205/1/113 276/1/114
f 68/1/99 75/1/115 65/1/93
f 69/1/104 65/1/93 76/1/116
f 369/1/117 406/1/118 342/1/119 363/1/120
f 162/1/121 107/1/105 100/1/98 154/1/108
f 92/1/97 93/1/96 84/1/122 83/1/109
f 124/1/123 132/1/124 89/1/125 80/1/126
f 441/1/127 480/1/128 479/1/129 471/1/130
f 347/1/131 424/1/132 372/1/133 366/1/134
f 82/1/135 74/1/136 73/1/137 81/1/138
f 74/1/136 75/1/115 68/1/99 73/1/137
f 75/1/115 84/1/122 65/1/93
f 76/1/116 65/1/93 85/1/139
f 104/1/140 97/1/141 95/1/142 103/1/143
f 174/1/144 175/1/145 169/1/146 168/1/147
f 542/1/148 551/1/149 545/1/150 550/1/151
f 403/1/152 404/1/153 397/1/154 396/1/155
f 67/1/156 73/1/137 68/1/99 64/1/92
f 84/1/122 93/1/96 65/1/93
f 74/1/136 83/1/109 84/1/122 75/1/115
f 85/1/139 65/1/93 94/1/157
f 195/1/158 204/1/159 203/1/160 197/1/161
f 168/1/147 201/1/162 208/1/163 174/1/144
f 388/1/164 557/1/165 555/1/166 380/1/167
f 384/1/168 390/1/169 243/1/170 245/1/171
f 161/1/172 162/1/121 154/1/108 153/1/173
f 482/1/174 503/1/175 504/1/176 483/1/177
f 93/1/96 101/1/95 65/1/93
f 107/1/105 169/1/146 117/1/178 108/1/106
f 94/1/157 65/1/93 102/1/179
f 187/1/180 188/1/181 182/1/182 183/1/183
f 183/1/183 216/1/184 223/1/185 187/1/180
f 655/1/186 684/1/187 680/1/188 673/1/189
f 169/1/146 107/1/105 162/1/121 168/1/147
f 101/1/95 108/1/106 65/1/93
f 102/1/179 65/1/93 109/1/190
f 533/1/191 538/1/192 537/1/193 535/1/194
f 223/1/185 252/1/195 230/1/196 187/1/180
f 679/1/197 691/1/198 660/1/199 667/1/200
f 356/1/201 260/1/202 268/1/203 351/1/204
f 356/1/201 367/1/205 362/1/206 260/1/202
f 275/1/207 351/1/204 268/1/203 208/1/163
f 197/1/161 178/1/208 190/1/209 195/1/158
f 108/1/106 117/1/178 65/1/93
f 76/1/116 78/1/210 70/1/211 69/1/104
f 383/1/212 384/1/168 245/1/171 374/1/213
f 230/1/196 252/1/195 244/1/214 237/1/215
f 499/1/216 498/1/217 492/1/218 491/1/219
f 167/1/220 171/1/221 151/1/222 160/1/223
f 537/1/193 550/1/151 545/1/150 541/1/224
f 193/1/225 161/1/172 153/1/173 186/1/17
f 166/1/226 185/1/227 179/1/228 173/1/229
f 220/1/230 222/1/231 214/1/38 215/1/37
f 145/1/18 146/1/232 140/1/233 144/1/234
f 368/1/235 375/1/236 376/1/237 373/1/238
f 133/1/239 137/1/240 144/1/234 140/1/233
f 361/1/241 382/1/242 375/1/236 367/1/205
f 361/1/241 367/1/205 356/1/201 357/1/243
f 32/1/60 33/1/63 29/1/46 28/1/45
f 258/1/244 558/1/245 410/1/246 401/1/247
f 523/1/248 524/1/249 479/1/129 519/1/250
f 509/1/251 527/1/252 514/1/253 508/1/254
f 413/1/255 414/1/256 393/1/257 407/1/258
f 166/1/226 173/1/229 167/1/220 159/1/259
f 137/1/240 160/1/223 151/1/222 144/1/234
f 89/1/125 133/1/239 82/1/135 81/1/138
f 447/1/260 448/1/261 386/1/262 439/1/263
f 352/1/264 357/1/243 349/1/265 350/1/266
f 348/1/267 353/1/268 337/1/269 273/1/270
f 329/1/271 344/1/272 292/1/273 300/1/274
f 300/1/274 292/1/273 192/1/275 200/1/276
f 132/1/124 137/1/240 133/1/239 89/1/125
f 659/1/277 678/1/278 679/1/197 667/1/200
f 80/1/126 89/1/125 81/1/138 72/1/279
f 305/1/280 298/1/281 327/1/282 320/1/283
f 556/1/284 227/1/285 219/1/286 218/1/287
f 273/1/270 290/1/288 282/1/289 274/1/290
f 318/1/291 319/1/292 261/1/293 313/1/294
f 484/1/295 491/1/219 492/1/218 486/1/296
f 138/1/297 139/1/298 132/1/124 124/1/123
f 124/1/123 80/1/126 116/1/299 123/1/300
f 79/1/301 116/1/299 80/1/126 72/1/279
f 253/1/8 278/1/302 261/1/293 255/1/9
f 315/1/111 322/1/303 323/1/304 307/1/112
f 582/1/305 605/1/306 574/1/307 573/1/308
f 122/1/309 123/1/300 116/1/299 99/1/310
f 171/1/221 178/1/208 152/1/19 151/1/222
f 680/1/188 686/1/311 672/1/312 673/1/189
f 139/1/298 160/1/223 137/1/240 132/1/124
f 276/1/114 205/1/113 198/1/313 269/1/314
f 156/1/315 164/1/316 165/1/317
f 393/1/257 414/1/256 398/1/318 392/1/319
f 172/1/320 190/1/209 178/1/208 171/1/221
f 167/1/220 173/1/229 172/1/320 171/1/221
f 288/1/321 296/1/322 289/1/323 281/1/324
f 167/1/220 160/1/223 139/1/298 159/1/259
f 88/1/325 98/1/326 99/1/310 77/1/327
f 78/1/210 88/1/325 77/1/327 70/1/211
f 328/1/328 350/1/266 329/1/271 323/1/304
f 328/1/328 323/1/304 322/1/303 324/1/52
f 539/1/329 381/1/13 553/1/330 552/1/331
f 668/1/332 685/1/333 676/1/334 669/1/335
f 260/1/202 362/1/206 252/1/195 223/1/185
f 86/1/336 78/1/210 76/1/116 85/1/139
f 117/1/178 176/1/337 65/1/93
f 346/1/338 352/1/264 350/1/266 328/1/328
f 142/1/339 143/1/340 136/1/341 135/1/342
f 283/1/343 193/1/225 192/1/275 292/1/273
f 179/1/228 184/1/344 172/1/320 173/1/229
f 131/1/345 138/1/297 124/1/123 123/1/300
f 150/1/346 158/1/347 138/1/297 131/1/345
f 94/1/157 95/1/142 86/1/336 85/1/139
f 176/1/337 182/1/182 65/1/93
f 95/1/142 97/1/141 87/1/348 86/1/336
f 599/1/349 605/1/306 582/1/305 590/1/350
f 182/1/182 188/1/181 65/1/93
f 389/1/351 359/1/352 353/1/268 355/1/353
f 189/1/354 190/1/209 172/1/320 184/1/344
f 130/1/355 131/1/345 123/1/300 122/1/309
f 329/1/271 350/1/266 349/1/265 344/1/272
f 188/1/181 194/1/356 65/1/93
f 109/1/190 110/1/357 103/1/143 102/1/179
f 277/1/358 278/1/302 253/1/8 271/1/359
f 206/1/360 207/1/36 199/1/361 158/1/347
f 157/1/362 206/1/360 158/1/347 150/1/346
f 147/1/363 150/1/346 131/1/345 130/1/355
f 98/1/326 129/1/364 122/1/309 99/1/310
f 585/1/32 587/1/31 581/1/365 578/1/366
f 157/1/362 212/1/367 211/1/368 206/1/360
f 211/1/368 215/1/37 207/1/36 206/1/360
f 155/1/369 157/1/362 150/1/346 147/1/363
f 378/1/370 399/1/371 369/1/117 377/1/372
f 189/1/354 196/1/373 195/1/158 190/1/209
f 254/1/374 269/1/314 203/1/160 233/1/375
f 211/1/368 219/1/286 220/1/230 215/1/37
f 207/1/36 213/1/39 191/1/376 199/1/361
f 385/1/377 439/1/263 386/1/262 376/1/237
f 70/1/211 71/1/378 66/1/94 69/1/104
f 202/1/379 204/1/159 195/1/158 196/1/373
f 97/1/141 106/1/380 96/1/381 87/1/348
f 250/1/382 354/1/383 348/1/267 266/1/384
f 576/1/385 584/1/386 582/1/305 573/1/308
f 254/1/374 319/1/292 276/1/114 269/1/314
f 144/1/234 151/1/222 152/1/19 145/1/18
f 202/1/379 210/1/387 209/1/388 204/1/159
f 579/1/389 614/1/390 585/1/32 578/1/366
f 457/1/391 496/1/392 495/1/393 489/1/394
f 231/1/10 255/1/9 254/1/374 233/1/375
f 143/1/340 147/1/363 130/1/355 136/1/341
f 248/1/395 256/1/56 240/1/396 241/1/397
f 158/1/347 199/1/361 166/1/226 159/1/259
f 217/1/398 224/1/399 209/1/388 210/1/387
f 408/1/400 428/1/401 413/1/255 407/1/258
f 234/1/402 220/1/230 219/1/286 227/1/285
f 227/1/285 558/1/245 235/1/403 234/1/402
f 235/1/403 249/1/404 242/1/405 236/1/406
f 200/1/276 205/1/113 307/1/112 300/1/274
f 217/1/398 226/1/407 225/1/408 224/1/399
f 507/1/409 513/1/410 110/1/357 109/1/190
f 194/1/356 238/1/411 65/1/93
f 250/1/382 251/1/412 242/1/405 249/1/404
f 235/1/403 236/1/406 229/1/413 234/1/402
f 238/1/411 243/1/170 65/1/93
f 574/1/307 575/1/414 565/1/415 573/1/308
f 119/1/416 127/1/417 126/1/418 125/1/419
f 517/1/420 118/1/421 513/1/410 505/1/422
f 558/1/245 258/1/244 249/1/404 235/1/403
f 280/1/423 285/1/424 279/1/425 272/1/426
f 250/1/382 266/1/384 259/1/427 251/1/412
f 457/1/391 489/1/394 449/1/428 450/1/429
f 410/1/246 558/1/245 227/1/285 556/1/284
f 262/1/55 289/1/323 270/1/430 264/1/431
f 218/1/287 219/1/286 211/1/368 212/1/367
f 205/1/113 200/1/276 181/1/432 198/1/313
f 248/1/395 257/1/57 256/1/56
f 240/1/396 264/1/431 246/1/433 239/1/434
f 152/1/19 178/1/208 181/1/432 180/1/16
f 232/1/435 241/1/397 240/1/396 239/1/434
f 111/1/436 113/1/437 105/1/438 104/1/140
f 105/1/438 106/1/380 97/1/141 104/1/140
f 228/1/439 557/1/165 410/1/246 556/1/284
f 228/1/439 556/1/284 218/1/287 221/1/440
f 298/1/281 305/1/280 299/1/441 291/1/442
f 266/1/384 348/1/267 273/1/270 267/1/443
f 257/1/57 265/1/444 263/1/54
f 259/1/427 266/1/384 267/1/443
f 348/1/267 354/1/383 355/1/353 353/1/268
f 553/1/330 554/1/445 165/1/317 164/1/316
f 232/1/435 239/1/434 225/1/408 226/1/407
f 201/1/162 283/1/343 275/1/207 208/1/163
f 267/1/443 273/1/270 274/1/290
f 178/1/208 197/1/161 198/1/313 181/1/432
f 115/1/446 129/1/364 98/1/326 96/1/381
f 159/1/259 139/1/298 138/1/297 158/1/347
f 657/1/447 675/1/103 674/1/102 666/1/448
f 355/1/353 401/1/247 388/1/164 389/1/351
f 557/1/165 388/1/164 401/1/247 410/1/246
f 290/1/288 298/1/281 291/1/442 282/1/289
f 166/1/226 199/1/361 191/1/376 185/1/227
f 263/1/54 279/1/425 281/1/324
f 272/1/426 279/1/425 263/1/54 265/1/444
f 381/1/13 555/1/166 554/1/445 553/1/330
f 6/1/4 7/1/3 5/1/7 4/1/6
f 279/1/425 285/1/424 281/1/324
f 200/1/276 192/1/275 180/1/16 181/1/432
f 281/1/324 285/1/424 287/1/449
f 281/1/324 287/1/449 288/1/321
f 353/1/268 359/1/352 343/1/450 337/1/269
f 220/1/230 234/1/402 229/1/413 222/1/231
f 115/1/446 135/1/342 136/1/341 129/1/364
f 136/1/341 130/1/355 122/1/309 129/1/364
f 246/1/433 247/1/11 225/1/408 239/1/434
f 286/1/451 294/1/452 293/1/453
f 170/1/454 552/1/331 164/1/316 148/1/455
f 514/1/253 535/1/194 518/1/456 515/1/457
f 286/1/451 293/1/453 285/1/424 280/1/423
f 555/1/166 557/1/165 228/1/439 554/1/445
f 320/1/283 321/1/458 314/1/459 305/1/280
f 293/1/453 294/1/452 301/1/460
f 365/1/461 389/1/351 388/1/164 380/1/167
f 359/1/352 389/1/351 365/1/461 360/1/462
f 549/1/463 551/1/149 530/1/464 529/1/465
f 299/1/441 305/1/280 306/1/466
f 149/1/467 155/1/369 147/1/363 143/1/340
f 360/1/462 336/1/468 326/1/469 335/1/470
f 365/1/461 371/1/471 336/1/468 360/1/462
f 405/1/472 426/1/473 412/1/474 406/1/118
f 304/1/475 312/1/476 284/1/477
f 343/1/450 335/1/470 320/1/283 327/1/282
f 306/1/466 305/1/280 314/1/459
f 156/1/315 163/1/478 155/1/369 149/1/467
f 320/1/283 335/1/470 326/1/469 321/1/458
f 165/1/317 554/1/445 228/1/439 221/1/440
f 165/1/317 221/1/440 163/1/478 156/1/315
f 429/1/479 450/1/429 449/1/428 442/1/480
f 96/1/381 98/1/326 88/1/325 87/1/348
f 315/1/111 318/1/291 322/1/303
f 411/1/481 418/1/482 395/1/483 402/1/484
f 148/1/455 149/1/467 143/1/340 142/1/339
f 317/1/485 324/1/52 322/1/303
f 193/1/225 283/1/343 201/1/162 161/1/172
f 586/1/486 608/1/487 607/1/488 606/1/489
f 293/1/453 295/1/490 287/1/449 285/1/424
f 419/1/491 420/1/492 398/1/318 414/1/256
f 24/1/42 25/1/47 21/1/34 20/1/33
f 276/1/114 319/1/292 318/1/291 315/1/111
f 540/1/493 552/1/331 170/1/454 548/1/494
f 539/1/329 552/1/331 540/1/493 534/1/495
f 312/1/476 331/1/496 325/1/49
f 258/1/244 354/1/383 250/1/382 249/1/404
f 525/1/14 539/1/329 534/1/495 526/1/497
f 471/1/130 472/1/498 465/1/499 435/1/500
f 298/1/281 290/1/288 337/1/269
f 290/1/288 273/1/270 337/1/269
f 298/1/281 337/1/269 327/1/282
f 525/1/14 526/1/497 520/1/501 521/1/15
f 333/1/502 340/1/503 332/1/504
f 177/1/505 121/1/506 134/1/507 141/1/508
f 526/1/497 534/1/495 533/1/191 527/1/252
f 295/1/490 309/1/509 288/1/321 287/1/449
f 327/1/282 337/1/269 343/1/450
f 340/1/503 345/1/510 332/1/504
f 332/1/504 345/1/510 338/1/511
f 372/1/133 431/1/512 385/1/377 382/1/242
f 262/1/55 264/1/431 240/1/396 256/1/56
f 281/1/324 289/1/323 262/1/55 263/1/54
f 121/1/506 177/1/505 142/1/339 135/1/342
f 121/1/506 135/1/342 115/1/446 114/1/513
f 216/1/184 268/1/203 260/1/202 223/1/185
f 112/1/514 114/1/513 106/1/380 105/1/438
f 447/1/260 439/1/263 438/1/515 446/1/516
f 668/1/332 669/1/335 648/1/517 661/1/518
f 261/1/293 319/1/292 254/1/374 255/1/9
f 270/1/430 271/1/359 246/1/433 264/1/431
f 112/1/514 134/1/507 121/1/506 114/1/513
f 571/1/519 572/1/520 563/1/521 570/1/522
f 526/1/497 527/1/252 509/1/251 520/1/501
f 516/1/523 520/1/501 509/1/251 510/1/524
f 296/1/322 297/1/525 270/1/430 289/1/323
f 288/1/321 309/1/509 303/1/526 296/1/322
f 71/1/378 79/1/301 72/1/279 67/1/156
f 128/1/527 543/1/528 141/1/508 134/1/507
f 545/1/150 546/1/529 523/1/248 541/1/224
f 118/1/421 119/1/416 113/1/437 111/1/436
f 445/1/530 446/1/516 438/1/515 437/1/531
f 425/1/532 443/1/533 445/1/530 437/1/531
f 119/1/416 125/1/419 120/1/534 113/1/437
f 163/1/478 221/1/440 218/1/287 212/1/367
f 533/1/191 535/1/194 514/1/253 527/1/252
f 258/1/244 401/1/247 355/1/353 354/1/383
f 542/1/148 543/1/528 128/1/527 536/1/535
f 542/1/148 550/1/151 547/1/536 543/1/528
f 118/1/421 517/1/420 127/1/417 119/1/416
f 463/1/537 403/1/152 456/1/538 462/1/539
f 174/1/144 216/1/184 183/1/183 175/1/145
f 514/1/253 515/1/457 495/1/393 508/1/254
f 311/1/540 312/1/476 304/1/475 302/1/541
f 499/1/216 517/1/420 505/1/422 498/1/217
f 506/1/542 500/1/543 498/1/217 505/1/422
f 551/1/149 542/1/148 536/1/535 530/1/464
f 530/1/464 536/1/535 125/1/419 126/1/418
f 330/1/51 346/1/338 328/1/328 324/1/52
f 530/1/464 126/1/418 511/1/544 529/1/465
f 501/1/545 508/1/254 495/1/393 496/1/392
f 652/1/546 671/1/547 659/1/277 653/1/548
f 358/1/549 363/1/120 339/1/550 338/1/511
f 243/1/170 390/1/169 65/1/93
f 412/1/474 424/1/132 347/1/131 341/1/551
f 225/1/408 247/1/11 231/1/10 224/1/399
f 390/1/169 395/1/483 65/1/93
f 175/1/145 176/1/337 117/1/178 169/1/146
f 613/1/552 637/1/553 621/1/554 614/1/390
f 512/1/555 499/1/216 491/1/219 504/1/176
f 495/1/393 515/1/457 488/1/556 489/1/394
f 449/1/428 489/1/394 488/1/556 480/1/128
f 398/1/318 399/1/371 378/1/370 392/1/319
f 672/1/312 683/1/557 664/1/558 665/1/559
f 483/1/177 504/1/176 491/1/219 484/1/295
f 113/1/437 120/1/534 112/1/514 105/1/438
f 145/1/18 186/1/17 153/1/173 146/1/232
f 23/1/44 27/1/58 26/1/48 22/1/41
f 106/1/380 114/1/513 115/1/446 96/1/381
f 693/1/560 694/1/561 677/1/562 688/1/563
f 246/1/433 271/1/359 253/1/8 247/1/11
f 486/1/296 492/1/218 494/1/564 493/1/565
f 537/1/193 541/1/224 518/1/456 535/1/194
f 87/1/348 88/1/325 78/1/210 86/1/336
f 547/1/536 550/1/151 537/1/193 538/1/192
f 449/1/428 480/1/128 441/1/127 442/1/480
f 422/1/566 442/1/480 441/1/127 434/1/567
f 611/1/568 612/1/569 574/1/307 605/1/306
f 484/1/295 486/1/296 478/1/570 476/1/571
f 486/1/296 493/1/565 485/1/572 478/1/570
f 395/1/483 418/1/482 65/1/93
f 418/1/482 417/1/573 65/1/93
f 367/1/205 375/1/236 368/1/235 362/1/206
f 488/1/556 519/1/250 479/1/129 480/1/128
f 415/1/574 421/1/575 408/1/400 409/1/576
f 664/1/558 683/1/557 682/1/100 675/1/103
f 237/1/215 238/1/411 194/1/356 230/1/196
f 427/1/577 428/1/401 408/1/400 421/1/575
f 435/1/500 465/1/499 440/1/578 433/1/579
f 400/1/580 409/1/576 408/1/400 407/1/258
f 487/1/581 477/1/582 478/1/570 485/1/572
f 82/1/135 90/1/110 83/1/109 74/1/136
f 373/1/238 374/1/213 244/1/214 368/1/235
f 632/1/583 639/1/584 627/1/585 626/1/586
f 427/1/577 434/1/567 435/1/500 433/1/579
f 422/1/566 434/1/567 427/1/577 421/1/575
f 545/1/150 551/1/149 549/1/463 546/1/529
f 490/1/587 497/1/588 473/1/589 481/1/590
f 451/1/591 432/1/592 433/1/579 440/1/578
f 622/1/593 658/1/594 615/1/595 617/1/596
f 432/1/592 436/1/597 413/1/255 428/1/401
f 498/1/217 500/1/543 494/1/564 492/1/218
f 586/1/486 606/1/489 579/1/389 580/1/598
f 523/1/248 546/1/529 531/1/599 524/1/249
f 549/1/463 544/1/600 531/1/599 546/1/529
f 531/1/599 532/1/601 472/1/498 524/1/249
f 544/1/600 549/1/463 529/1/465 502/1/602
f 502/1/602 529/1/465 511/1/544 503/1/175
f 400/1/580 407/1/258 393/1/257 394/1/603
f 331/1/496 339/1/550 334/1/50 325/1/49
f 662/1/604 663/1/605 645/1/606 656/1/607
f 657/1/447 666/1/448 650/1/608 651/1/609
f 472/1/498 532/1/601 466/1/610 465/1/499
f 490/1/587 544/1/600 502/1/602 497/1/588
f 438/1/515 431/1/512 430/1/611 437/1/531
f 532/1/601 490/1/587 481/1/590 466/1/610
f 512/1/555 511/1/544 126/1/418 127/1/417
f 502/1/602 503/1/175 482/1/174 497/1/588
f 387/1/612 394/1/603 393/1/257 392/1/319
f 466/1/610 481/1/590 459/1/613 458/1/614
f 622/1/593 665/1/559 664/1/558 658/1/594
f 473/1/589 497/1/588 482/1/174 474/1/615
f 360/1/462 335/1/470 343/1/450 359/1/352
f 482/1/174 483/1/177 475/1/616 474/1/615
f 385/1/377 376/1/237 375/1/236 382/1/242
f 440/1/578 458/1/614 453/1/617 451/1/591
f 453/1/617 460/1/618 454/1/619 452/1/620
f 464/1/621 416/1/622 411/1/481 404/1/153
f 473/1/589 474/1/615 468/1/623 467/1/624
f 125/1/419 536/1/535 128/1/527 120/1/534
f 483/1/177 484/1/295 476/1/571 475/1/616
f 444/1/625 436/1/597 432/1/592 451/1/591
f 308/1/626 316/1/627 309/1/509 295/1/490
f 459/1/613 467/1/624 461/1/628 460/1/618
f 511/1/544 512/1/555 504/1/176 503/1/175
f 468/1/623 469/1/629 463/1/537 462/1/539
f 469/1/629 470/1/630 464/1/621 463/1/537
f 513/1/410 507/1/409 506/1/542 505/1/422
f 470/1/630 477/1/582 416/1/622 464/1/621
f 444/1/625 443/1/533 419/1/491 436/1/597
f 413/1/255 436/1/597 419/1/491 414/1/256
f 352/1/264 366/1/134 361/1/241 357/1/243
f 475/1/616 469/1/629 468/1/623 474/1/615
f 464/1/621 404/1/153 403/1/152 463/1/537
f 128/1/527 134/1/507 112/1/514 120/1/534
f 477/1/582 487/1/581 417/1/573 416/1/622
f 397/1/154 383/1/212 391/1/631 396/1/155
f 417/1/573 487/1/581 65/1/93
f 487/1/581 485/1/572 65/1/93
f 578/1/366 581/1/365 572/1/520 571/1/519
f 231/1/10 233/1/375 209/1/388 224/1/399
f 302/1/541 304/1/475 277/1/358 297/1/525
f 461/1/628 455/1/632 454/1/619 460/1/618
f 476/1/571 470/1/630 469/1/629 475/1/616
f 404/1/153 411/1/481 402/1/484 397/1/154
f 485/1/572 493/1/565 65/1/93
f 161/1/172 201/1/162 168/1/147 162/1/121
f 493/1/565 494/1/564 65/1/93
f 3/1/21 4/1/6 1/1/5 2/1/24
f 387/1/612 392/1/319 378/1/370 379/1/633
f 384/1/168 402/1/484 395/1/483 390/1/169
f 383/1/212 397/1/154 402/1/484 384/1/168
f 494/1/564 500/1/543 65/1/93
f 370/1/634 379/1/633 378/1/370 377/1/372
f 372/1/133 382/1/242 361/1/241 366/1/134
f 444/1/625 452/1/620 445/1/530 443/1/533
f 448/1/261 456/1/538 403/1/152 396/1/155
f 513/1/410 118/1/421 111/1/436 110/1/357
f 301/1/460 308/1/626 295/1/490 293/1/453
f 65/1/93 500/1/543 506/1/542
f 65/1/93 507/1/409 109/1/190
f 65/1/93 506/1/542 507/1/409
f 370/1/634 377/1/372 358/1/549 364/1/635
f 641/1/636 661/1/518 648/1/517 642/1/637
f 386/1/262 391/1/631 373/1/238 376/1/237
f 386/1/262 448/1/261 396/1/155 391/1/631
f 244/1/214 374/1/213 245/1/171 237/1/215
f 534/1/495 540/1/493 538/1/192 533/1/191
f 237/1/215 245/1/171 243/1/170 238/1/411
f 362/1/206 368/1/235 244/1/214 252/1/195
f 501/1/545 510/1/524 509/1/251 508/1/254
f 358/1/549 377/1/372 369/1/117 363/1/120
f 209/1/388 233/1/375 203/1/160 204/1/159
f 373/1/238 391/1/631 383/1/212 374/1/213
f 398/1/318 420/1/492 405/1/472 399/1/371
f 405/1/472 406/1/118 369/1/117 399/1/371
f 516/1/523 521/1/15 520/1/501
f 516/1/523 522/1/638 521/1/15
f 419/1/491 443/1/533 425/1/532 420/1/492
f 425/1/532 426/1/473 405/1/472 420/1/492
f 345/1/510 364/1/635 358/1/549 338/1/511
f 312/1/476 333/1/502 332/1/504 331/1/496
f 429/1/479 442/1/480 422/1/566 423/1/639
f 522/1/638 528/1/12 521/1/15
f 454/1/619 455/1/632 447/1/260 446/1/516
f 72/1/279 81/1/138 73/1/137 67/1/156
f 547/1/536 548/1/494 141/1/508 543/1/528
f 461/1/628 462/1/539 456/1/538 455/1/632
f 454/1/619 446/1/516 445/1/530 452/1/620
f 687/1/640 699/1/641 693/1/560 688/1/563
f 349/1/265 351/1/204 275/1/207 344/1/272
f 323/1/304 329/1/271 300/1/274 307/1/112
f 412/1/474 341/1/551 342/1/119 406/1/118
f 208/1/163 268/1/203 216/1/184 174/1/144
f 334/1/50 342/1/119 341/1/551 330/1/51
f 525/1/14 381/1/13 539/1/329
f 292/1/273 344/1/272 275/1/207 283/1/343
f 140/1/233 90/1/110 82/1/135 133/1/239
f 163/1/478 212/1/367 157/1/362 155/1/369
f 430/1/611 424/1/132 412/1/474 426/1/473
f 425/1/532 437/1/531 430/1/611 426/1/473
f 347/1/131 366/1/134 352/1/264 346/1/338
f 598/1/642 604/1/643 599/1/349 590/1/350
f 347/1/131 346/1/338 330/1/51 341/1/551
f 478/1/570 477/1/582 470/1/630 476/1/571
f 77/1/327 79/1/301 71/1/378 70/1/211
f 577/1/644 591/1/645 569/1/646 568/1/647
f 438/1/515 439/1/263 385/1/377 431/1/512
f 203/1/160 269/1/314 198/1/313 197/1/161
f 603/1/648 626/1/586 610/1/649 604/1/643
f 430/1/611 431/1/512 372/1/133 424/1/132
f 552/1/331 553/1/330 164/1/316
f 317/1/485 312/1/476 325/1/49 324/1/52
f 317/1/485 322/1/303 318/1/291 313/1/294
f 312/1/476 317/1/485 313/1/294 284/1/477
f 381/1/13 380/1/167 555/1/166
f 284/1/477 313/1/294 261/1/293 278/1/302
f 277/1/358 304/1/475 284/1/477 278/1/302
f 192/1/275 193/1/225 186/1/17 180/1/16
f 4/1/6 10/1/22 8/1/20 6/1/4
f 559/1/650 560/1/651 561/1/652
f 141/1/508 548/1/494 170/1/454 177/1/505
f 559/1/650 563/1/521 560/1/651
f 338/1/511 339/1/550 331/1/496 332/1/504
f 682/1/100 696/1/653 698/1/654 692/1/101
f 561/1/652 560/1/651 566/1/655
f 349/1/265 357/1/243 356/1/201 351/1/204
f 595/1/656 601/1/657 598/1/642 596/1/658
f 594/1/659 602/1/660 601/1/657 595/1/656
f 562/1/661 570/1/522 563/1/521 559/1/650
f 569/1/646 570/1/522 562/1/661 568/1/647
f 563/1/521 572/1/520 560/1/651
f 339/1/550 363/1/120 342/1/119 334/1/50
f 614/1/390 621/1/554 593/1/29 585/1/32
f 566/1/655 560/1/651 576/1/385
f 569/1/646 591/1/645 586/1/486 580/1/598
f 461/1/628 467/1/624 468/1/623 462/1/539
f 559/1/650 561/1/652 564/1/662 562/1/661
f 567/1/663 568/1/647 562/1/661 564/1/662
f 572/1/520 581/1/365 560/1/651
f 621/1/554 631/1/664 602/1/660 593/1/29
f 594/1/659 592/1/30 593/1/29 602/1/660
f 613/1/552 614/1/390 579/1/389 606/1/489
f 583/1/665 588/1/666 567/1/663 575/1/414
f 576/1/385 560/1/651 584/1/386
f 565/1/415 575/1/414 567/1/663 564/1/662
f 561/1/652 566/1/655 565/1/415 564/1/662
f 630/1/667 649/1/668 643/1/669 636/1/670
f 567/1/663 588/1/666 577/1/644 568/1/647
f 581/1/365 587/1/31 560/1/651
f 584/1/386 560/1/651 589/1/671
f 187/1/180 230/1/196 194/1/356 188/1/181
f 587/1/31 592/1/30 560/1/651
f 566/1/655 576/1/385 573/1/308 565/1/415
f 560/1/651 592/1/30 594/1/659
f 560/1/651 594/1/659 595/1/656
f 560/1/651 596/1/658 589/1/671
f 560/1/651 595/1/656 596/1/658
f 607/1/488 644/1/672 613/1/552 606/1/489
f 583/1/665 620/1/673 597/1/674 588/1/666
f 175/1/145 183/1/183 182/1/182 176/1/337
f 589/1/671 596/1/658 598/1/642 590/1/350
f 603/1/648 604/1/643 598/1/642 601/1/657
f 602/1/660 631/1/664 603/1/648 601/1/657
f 466/1/610 458/1/614 440/1/578 465/1/499
f 577/1/644 609/1/675 600/1/676 591/1/645
f 584/1/386 589/1/671 590/1/350 582/1/305
f 270/1/430 297/1/525 277/1/358 271/1/359
f 417/1/573 418/1/482 411/1/481 416/1/622
f 695/1/677 697/1/678 679/1/197 678/1/278
f 597/1/674 609/1/675 577/1/644 588/1/666
f 660/1/199 661/1/518 641/1/636 654/1/679
f 610/1/649 618/1/680 599/1/349 604/1/643
f 621/1/554 637/1/553 632/1/583 631/1/664
f 479/1/129 524/1/249 472/1/498 471/1/130
f 613/1/552 644/1/672 638/1/681 637/1/553
f 415/1/574 423/1/639 422/1/566 421/1/575
f 616/1/682 617/1/596 600/1/676 609/1/675
f 597/1/674 625/1/683 616/1/682 609/1/675
f 633/1/684 640/1/685 623/1/686 628/1/687
f 427/1/577 433/1/579 432/1/592 428/1/401
f 638/1/681 639/1/584 632/1/583 637/1/553
f 459/1/613 460/1/618 453/1/617 458/1/614
f 146/1/232 153/1/173 154/1/108 91/1/107
f 15/1/40 19/1/43 18/1/35 14/1/26
f 574/1/307 612/1/569 583/1/665 575/1/414
f 652/1/546 653/1/548 633/1/684 646/1/688
f 616/1/682 636/1/670 622/1/593 617/1/596
f 611/1/568 629/1/689 619/1/690 612/1/569
f 627/1/585 628/1/687 610/1/649 626/1/586
f 650/1/608 656/1/607 638/1/681 644/1/672
f 645/1/606 646/1/688 627/1/585 639/1/584
f 441/1/127 471/1/130 435/1/500 434/1/567
f 615/1/595 658/1/594 657/1/447 651/1/609
f 650/1/608 666/1/448 662/1/604 656/1/607
f 599/1/349 618/1/680 611/1/568 605/1/306
f 623/1/686 629/1/689 611/1/568 618/1/680
f 310/1/691 311/1/540 302/1/541 303/1/526
f 627/1/585 646/1/688 633/1/684 628/1/687
f 619/1/690 635/1/692 624/1/693 620/1/673
f 615/1/595 651/1/609 607/1/488 608/1/487
f 638/1/681 656/1/607 645/1/606 639/1/584
f 453/1/617 452/1/620 444/1/625 451/1/591
f 619/1/690 620/1/673 583/1/665 612/1/569
f 610/1/649 628/1/687 623/1/686 618/1/680
f 630/1/667 636/1/670 616/1/682 625/1/683
f 664/1/558 675/1/103 657/1/447 658/1/594
f 296/1/322 303/1/526 302/1/541 297/1/525
f 623/1/686 640/1/685 634/1/694 629/1/689
f 634/1/694 635/1/692 619/1/690 629/1/689
f 647/1/695 654/1/679 634/1/694 640/1/685
f 645/1/606 663/1/605 652/1/546 646/1/688
f 632/1/583 626/1/586 603/1/648 631/1/664
f 674/1/102 681/1/696 662/1/604 666/1/448
f 624/1/693 625/1/683 597/1/674 620/1/673
f 607/1/488 651/1/609 650/1/608 644/1/672
f 633/1/684 653/1/548 647/1/695 640/1/685
f 309/1/509 316/1/627 310/1/691 303/1/526
f 146/1/232 91/1/107 90/1/110 140/1/233
f 660/1/199 691/1/198 668/1/332 661/1/518
f 600/1/676 608/1/487 586/1/486 591/1/645
f 624/1/693 642/1/637 630/1/667 625/1/683
f 647/1/695 667/1/200 660/1/199 654/1/679
f 659/1/277 667/1/200 647/1/695 653/1/548
f 670/1/697 671/1/547 652/1/546 663/1/605
f 662/1/604 681/1/696 670/1/697 663/1/605
f 634/1/694 654/1/679 641/1/636 635/1/692
f 641/1/636 642/1/637 624/1/693 635/1/692
f 531/1/599 544/1/600 490/1/587 532/1/601
f 643/1/669 665/1/559 622/1/593 636/1/670
f 674/1/102 692/1/101 687/1/640 681/1/696
f 687/1/640 688/1/563 670/1/697 681/1/696
f 459/1/613 481/1/590 473/1/589 467/1/624
f 540/1/493 548/1/494 547/1/536 538/1/192
f 643/1/669 673/1/189 672/1/312 665/1/559
f 517/1/420 499/1/216 512/1/555 127/1/417
f 648/1/517 649/1/668 630/1/667 642/1/637
f 447/1/260 455/1/632 456/1/538 448/1/261
f 698/1/654 699/1/641 687/1/640 692/1/101
f 99/1/310 116/1/299 79/1/301 77/1/327
f 518/1/456 541/1/224 523/1/248 519/1/250
f 569/1/646 580/1/598 571/1/519 570/1/522
f 677/1/562 678/1/278 659/1/277 671/1/547
f 670/1/697 688/1/563 677/1/562 671/1/547
f 672/1/312 686/1/311 689/1/698 683/1/557
f 689/1/698 696/1/653 682/1/100 683/1/557
f 648/1/517 669/1/335 655/1/186 649/1/668
f 655/1/186 673/1/189 643/1/669 649/1/668
f 94/1/157 102/1/179 103/1/143 95/1/142
f 142/1/339 177/1/505 170/1/454 148/1/455
f 380/1/167 381/1/13 371/1/471 365/1/461
f 571/1/519 580/1/598 579/1/389 578/1/366
f 148/1/455 164/1/316 156/1/315 149/1/467
f 518/1/456 519/1/250 488/1/556 515/1/457
f 668/1/332 691/1/198 690/1/699 685/1/333
f 679/1/197 697/1/678 690/1/699 691/1/198
f 110/1/357 111/1/436 104/1/140 103/1/143
f 677/1/562 694/1/561 695/1/677 678/1/278
f 676/1/334 684/1/187 655/1/186 669/1/335
f 66/1/94 71/1/378 67/1/156 64/1/92
f 600/1/676 617/1/596 615/1/595 608/1/487
