# Blender 4.3.2
# www.blender.org
o hair.108
v 6.865493 1.313671 0.007629
v 6.893709 1.310511 0.010790
v 6.865493 1.308141 0.013160
v 6.893409 1.308141 0.013160
v 6.837278 1.310511 0.010790
v 6.837577 1.308141 0.013160
v 6.848944 1.342087 0.021515
v 6.850829 1.342821 0.022347
v 6.851122 1.348742 0.023225
v 6.855961 1.350276 0.025800
v 6.854507 1.344068 0.023323
v 6.853260 1.360139 0.026166
v 6.849581 1.353435 0.023248
v 6.846111 1.347006 0.020690
v 6.846501 1.344046 0.020623
v 6.858347 1.344863 0.024206
v 6.860707 1.351095 0.026232
v 6.861237 1.363342 0.027950
v 6.861894 1.345180 0.024726
v 6.843061 1.341130 0.018852
v 6.846890 1.341086 0.020556
v 6.865493 1.345243 0.024915
v 6.865493 1.351329 0.026853
v 6.840472 1.335364 0.017680
v 6.844790 1.338942 0.019403
v 6.845880 1.340220 0.019814
v 6.869092 1.345180 0.024726
v 6.870280 1.351095 0.026232
v 6.869750 1.363342 0.027950
v 6.839202 1.329208 0.016320
v 6.872640 1.344863 0.024206
v 6.875026 1.350276 0.025800
v 6.837881 1.315515 0.014213
v 6.838363 1.322625 0.015266
v 6.876480 1.344068 0.023323
v 6.880158 1.342821 0.022347
v 6.879865 1.348742 0.023225
v 6.877727 1.360139 0.026166
v 6.882042 1.342087 0.021515
v 6.881406 1.353435 0.023248
v 6.884486 1.344046 0.020623
v 6.884876 1.347006 0.020690
v 6.884096 1.341086 0.020556
v 6.887926 1.341130 0.018852
v 6.885107 1.340220 0.019814
v 6.886197 1.338942 0.019403
v 6.890515 1.335364 0.017680
v 6.891784 1.329208 0.016320
v 6.893106 1.315515 0.014213
v 6.892623 1.322625 0.015266
v 6.862992 1.353446 -0.010244
v 6.862191 1.352243 -0.012761
v 6.861190 1.352485 -0.012056
v 6.863576 1.353311 -0.010646
v 6.865493 1.354588 -0.007611
v 6.862521 1.353640 -0.009662
v 6.863193 1.352001 -0.013467
v 6.862210 1.350570 -0.015822
v 6.860718 1.350902 -0.014924
v 6.859363 1.351305 -0.013757
v 6.860390 1.352807 -0.011050
v 6.864160 1.353176 -0.011048
v 6.862049 1.353835 -0.009081
v 6.864343 1.351916 -0.013717
v 6.861198 1.348816 -0.018021
v 6.863822 1.350379 -0.016363
v 6.859244 1.349249 -0.016838
v 6.857496 1.349768 -0.015291
v 6.858162 1.351712 -0.012410
v 6.859591 1.353130 -0.010044
v 6.857182 1.352164 -0.010850
v 6.864827 1.353128 -0.011193
v 6.861892 1.354092 -0.008314
v 6.857718 1.347151 -0.018522
v 6.855575 1.347732 -0.016602
v 6.853792 1.348316 -0.014309
v 6.856005 1.350270 -0.013491
v 6.854787 1.350814 -0.011419
v 6.859291 1.353558 -0.008723
v 6.856489 1.352701 -0.009044
v 6.865493 1.351831 -0.013967
v 6.865493 1.353079 -0.011337
v 6.861734 1.354349 -0.007548
v 6.853623 1.345266 -0.017727
v 6.852369 1.348956 -0.011672
v 6.851307 1.349703 -0.008719
v 6.853859 1.351459 -0.009060
v 6.858990 1.353987 -0.007402
v 6.856164 1.353309 -0.007099
v 6.853395 1.352218 -0.006519
v 6.865493 1.350319 -0.016545
v 6.861878 1.354611 -0.006767
v 6.849953 1.346701 -0.011667
v 6.859229 1.354447 -0.006048
v 6.856288 1.353971 -0.005121
v 6.865493 1.348492 -0.018970
v 6.867165 1.350379 -0.016363
v 6.866643 1.351916 -0.013717
v 6.863307 1.348569 -0.018732
v 6.862021 1.354873 -0.005986
v 6.851552 1.345939 -0.014903
v 6.867680 1.348569 -0.018732
v 6.868776 1.350570 -0.015822
v 6.869789 1.348816 -0.018021
v 6.862767 1.346390 -0.020849
v 6.860142 1.346672 -0.019971
v 6.859468 1.354907 -0.004695
v 6.862429 1.355095 -0.005324
v 6.849317 1.343224 -0.015311
v 6.866160 1.353128 -0.011193
v 6.859066 1.344145 -0.021759
v 6.856164 1.344643 -0.020039
v 6.856799 1.354666 -0.003204
v 6.860167 1.355322 -0.003547
v 6.862837 1.355317 -0.004662
v 6.866827 1.353176 -0.011048
v 6.867794 1.352001 -0.013467
v 6.854606 1.341761 -0.021451
v 6.851665 1.342441 -0.018708
v 6.854271 1.354092 -0.001334
v 6.857633 1.355369 -0.001441
v 6.853570 1.353102 -0.003904
v 6.867411 1.353311 -0.010646
v 6.868795 1.352243 -0.012761
v 6.870269 1.350902 -0.014924
v 6.849333 1.338501 -0.019795
v 6.850828 1.350617 -0.005542
v 6.851155 1.351757 -0.002233
v 6.867994 1.353446 -0.010244
v 6.869797 1.352485 -0.012056
v 6.871624 1.351305 -0.013757
v 6.871743 1.349249 -0.016838
v 6.873490 1.349768 -0.015291
v 6.848380 1.348680 -0.004400
v 6.848822 1.350015 -0.000631
v 6.852139 1.353128 0.001095
v 6.849957 1.351636 0.003152
v 6.848826 1.347595 -0.008123
v 6.870596 1.352807 -0.011050
v 6.872825 1.351712 -0.012410
v 6.873269 1.347151 -0.018522
v 6.846346 1.347953 0.000377
v 6.853629 1.354734 0.004326
v 6.855387 1.355169 0.001072
v 6.847566 1.344160 -0.011463
v 6.846413 1.345295 -0.007370
v 6.870844 1.346672 -0.019971
v 6.868219 1.346390 -0.020849
v 6.856887 1.356150 0.003120
v 6.858772 1.356009 0.000108
v 6.844707 1.340450 -0.011003
v 6.846661 1.339368 -0.015683
v 6.845970 1.346578 -0.003325
v 6.871921 1.344145 -0.021759
v 6.860866 1.355736 -0.002399
v 6.842139 1.335248 -0.010418
v 6.843436 1.341780 -0.006004
v 6.843763 1.344294 -0.002163
v 6.865493 1.346299 -0.021146
v 6.861926 1.356009 -0.001630
v 6.863447 1.355465 -0.004220
v 6.841922 1.341812 -0.000759
v 6.841881 1.342456 0.002455
v 6.843957 1.345468 0.001253
v 6.865493 1.343750 -0.023171
v 6.862217 1.343848 -0.022812
v 6.868770 1.343848 -0.022812
v 6.864057 1.355613 -0.003778
v 6.860196 1.356515 0.001383
v 6.844539 1.346571 0.004208
v 6.847281 1.349479 0.003909
v 6.861669 1.340946 -0.024717
v 6.857991 1.341244 -0.023475
v 6.869318 1.340946 -0.024717
v 6.862986 1.356282 -0.000861
v 6.861837 1.356878 0.002337
v 6.848514 1.351212 0.007442
v 6.851593 1.353578 0.006916
v 6.856728 1.337329 -0.025495
v 6.852759 1.337812 -0.023091
v 6.865493 1.340853 -0.025142
v 6.864239 1.356375 -0.000590
v 6.864775 1.355665 -0.003623
v 6.849510 1.352638 0.011626
v 6.854323 1.356605 0.012102
v 6.855543 1.356170 0.006900
v 6.847313 1.334041 -0.020706
v 6.865493 1.337012 -0.027407
v 6.865493 1.355717 -0.003468
v 6.857800 1.357031 0.008259
v 6.858741 1.356851 0.004618
v 6.844337 1.334594 -0.015944
v 6.861028 1.337079 -0.026931
v 6.865493 1.356467 -0.000320
v 6.866211 1.355665 -0.003623
v 6.866747 1.356375 -0.000590
v 6.860854 1.357325 0.005643
v 6.840606 1.336023 -0.004312
v 6.840598 1.329824 -0.010071
v 6.855661 1.333234 -0.027254
v 6.865493 1.357156 0.003124
v 6.863628 1.357089 0.002923
v 6.840109 1.338760 0.000499
v 6.851178 1.333567 -0.024520
v 6.860491 1.333106 -0.028775
v 6.855014 1.329435 -0.028162
v 6.865493 1.357729 0.006491
v 6.867359 1.357089 0.002923
v 6.863132 1.357624 0.006274
v 6.865493 1.333093 -0.029233
v 6.846149 1.329889 -0.021130
v 6.869150 1.356878 0.002337
v 6.868001 1.356282 -0.000861
v 6.862861 1.357955 0.009275
v 6.865493 1.335052 -0.028320
v 6.869959 1.337079 -0.026931
v 6.842962 1.329924 -0.015995
v 6.850256 1.329665 -0.025242
v 6.866930 1.355613 -0.003778
v 6.872995 1.341244 -0.023475
v 6.874259 1.337329 -0.025495
v 6.842462 1.325454 -0.015947
v 6.849883 1.325393 -0.025338
v 6.845748 1.325547 -0.021158
v 6.867540 1.355465 -0.004220
v 6.869061 1.356009 -0.001630
v 6.865493 1.329402 -0.030155
v 6.870496 1.333106 -0.028775
v 6.876380 1.341761 -0.021451
v 6.845607 1.320492 -0.020907
v 6.870121 1.355736 -0.002399
v 6.868149 1.355317 -0.004662
v 6.860158 1.329383 -0.029718
v 6.875325 1.333234 -0.027254
v 6.872215 1.356009 0.000108
v 6.870820 1.355322 -0.003547
v 6.868557 1.355095 -0.005324
v 6.870132 1.357325 0.005643
v 6.870791 1.356515 0.001383
v 6.859968 1.325143 -0.029873
v 6.854684 1.325191 -0.028305
v 6.874100 1.356150 0.003120
v 6.873353 1.355369 -0.001441
v 6.868966 1.354873 -0.005986
v 6.867854 1.357624 0.006274
v 6.872246 1.356851 0.004618
v 6.854465 1.320090 -0.028058
v 6.849693 1.320320 -0.025074
v 6.871519 1.354907 -0.004695
v 6.871758 1.354447 -0.006048
v 6.869109 1.354611 -0.006767
v 6.868125 1.357955 0.009275
v 6.865493 1.358131 0.009409
v 6.873187 1.357031 0.008259
v 6.849668 1.315071 -0.024411
v 6.874187 1.354666 -0.003204
v 6.869252 1.354349 -0.007548
v 6.870707 1.357548 0.008888
v 6.865493 1.358712 0.012102
v 6.875443 1.356170 0.006900
v 6.877358 1.354734 0.004326
v 6.875600 1.355169 0.001072
v 6.876715 1.354092 -0.001334
v 6.874699 1.353971 -0.005121
v 6.870847 1.358223 0.012949
v 6.876663 1.356605 0.012102
v 6.878848 1.353128 0.001095
v 6.879831 1.351757 -0.002233
v 6.877416 1.353102 -0.003904
v 6.877591 1.352218 -0.006519
v 6.874823 1.353309 -0.007099
v 6.871996 1.353987 -0.007402
v 6.868368 1.358557 0.012716
v 6.873356 1.357624 0.012462
v 6.881029 1.351636 0.003152
v 6.871696 1.353558 -0.008723
v 6.874498 1.352701 -0.009044
v 6.869095 1.354092 -0.008314
v 6.869750 1.363342 0.027950
v 6.879394 1.353578 0.006916
v 6.873805 1.352164 -0.010850
v 6.871396 1.353130 -0.010044
v 6.868938 1.353835 -0.009081
v 6.877127 1.351459 -0.009060
v 6.876199 1.350814 -0.011419
v 6.868466 1.353640 -0.009662
v 6.865493 1.351329 0.026853
v 6.875026 1.350276 0.025800
v 6.879680 1.349703 -0.008719
v 6.880159 1.350617 -0.005542
v 6.862619 1.358557 0.012716
v 6.861237 1.363342 0.027950
v 6.877727 1.360139 0.026166
v 6.874982 1.350270 -0.013491
v 6.882165 1.350015 -0.000631
v 6.882607 1.348680 -0.004400
v 6.860140 1.358223 0.012949
v 6.860280 1.357548 0.008888
v 6.881476 1.352638 0.011626
v 6.877195 1.358372 0.019134
v 6.877195 1.348316 -0.014309
v 6.875412 1.347732 -0.016602
v 6.884640 1.347953 0.000377
v 6.857631 1.357624 0.012462
v 6.882473 1.351212 0.007442
v 6.881249 1.353242 0.017112
v 6.877364 1.345266 -0.017727
v 6.874823 1.344643 -0.020039
v 6.855961 1.350276 0.025800
v 6.883705 1.349479 0.003909
v 6.881406 1.353435 0.023248
v 6.879322 1.342441 -0.018708
v 6.881670 1.343224 -0.015311
v 6.879434 1.345939 -0.014903
v 6.853792 1.358372 0.019134
v 6.853260 1.360139 0.026166
v 6.886448 1.346571 0.004208
v 6.884876 1.347006 0.020690
v 6.881654 1.338501 -0.019795
v 6.881033 1.346701 -0.011667
v 6.878617 1.348956 -0.011672
v 6.849738 1.353242 0.017112
v 6.849581 1.353435 0.023248
v 6.884989 1.347954 0.015397
v 6.888100 1.342349 0.014300
v 6.887926 1.341130 0.018852
v 6.885246 1.348370 0.010691
v 6.846111 1.347006 0.020690
v 6.845998 1.347954 0.015397
v 6.845740 1.348370 0.010691
v 6.890515 1.335364 0.017680
v 6.882160 1.347595 -0.008123
v 6.842886 1.342349 0.014300
v 6.843061 1.341130 0.018852
v 6.890465 1.336527 0.013555
v 6.891966 1.330588 0.012900
v 6.891784 1.329208 0.016320
v 6.885793 1.347724 0.007158
v 6.840472 1.335364 0.017680
v 6.845193 1.347724 0.007158
v 6.890917 1.337859 0.008900
v 6.888300 1.343171 0.010279
v 6.892623 1.322625 0.015266
v 6.888551 1.343199 0.007322
v 6.840521 1.336527 0.013555
v 6.839020 1.330588 0.012900
v 6.839202 1.329208 0.016320
v 6.842436 1.343199 0.007322
v 6.842687 1.343171 0.010279
v 6.842159 1.342828 0.004893
v 6.892852 1.324329 0.012255
v 6.893372 1.317550 0.011540
v 6.893106 1.315515 0.014213
v 6.840069 1.337859 0.008900
v 6.838363 1.322625 0.015266
v 6.839910 1.338637 0.004621
v 6.893086 1.326349 0.008678
v 6.892140 1.332219 0.008838
v 6.893409 1.308141 0.013160
v 6.838846 1.332219 0.008838
v 6.838134 1.324329 0.012255
v 6.837615 1.317550 0.011540
v 6.837881 1.315515 0.014213
v 6.838778 1.333664 0.005185
v 6.839058 1.334384 0.001374
v 6.891077 1.338637 0.004621
v 6.893709 1.310511 0.010790
v 6.837900 1.326349 0.008678
v 6.837577 1.308141 0.013160
v 6.838017 1.329262 0.001864
v 6.837768 1.328149 0.005462
v 6.838960 1.329641 -0.003589
v 6.888828 1.342828 0.004893
v 6.894065 1.313326 0.007975
v 6.893667 1.319966 0.008365
v 6.837278 1.310511 0.010790
v 6.839984 1.325091 -0.009938
v 6.838275 1.324441 -0.003364
v 6.889106 1.342456 0.002455
v 6.887029 1.345468 0.001253
v 6.893219 1.328149 0.005462
v 6.836922 1.313326 0.007975
v 6.839774 1.320024 -0.009873
v 6.842302 1.320425 -0.015755
v 6.890878 1.338760 0.000499
v 6.892208 1.333664 0.005185
v 6.887223 1.344294 -0.002163
v 6.885016 1.346578 -0.003325
v 6.837319 1.319966 0.008365
v 6.837100 1.322124 0.005516
v 6.836379 1.317621 0.003679
v 6.842477 1.315397 -0.015338
v 6.845675 1.315342 -0.020307
v 6.884573 1.345295 -0.007370
v 6.837306 1.323591 0.002115
v 6.838018 1.319196 -0.003514
v 6.836882 1.313730 0.001487
v 6.846140 1.309844 -0.018975
v 6.838280 1.314536 -0.004225
v 6.837865 1.309546 -0.000819
v 6.883421 1.344160 -0.011463
v 6.840028 1.315155 -0.009860
v 6.838957 1.310390 -0.005035
v 6.840668 1.310314 -0.009499
v 6.839945 1.306684 -0.005479
v 6.839808 1.304776 -0.003352
v 6.886280 1.340450 -0.011003
v 6.884326 1.339368 -0.015683
v 6.843046 1.310141 -0.014327
v 6.841616 1.305331 -0.008390
v 6.844070 1.304427 -0.012350
v 6.842906 1.299663 -0.006011
v 6.887550 1.341780 -0.006004
v 6.888847 1.335248 -0.010418
v 6.886649 1.334594 -0.015944
v 6.883673 1.334041 -0.020706
v 6.878228 1.337812 -0.023091
v 6.845606 1.299195 -0.010630
v 6.847710 1.295383 -0.010390
v 6.847358 1.294447 -0.008693
v 6.889064 1.341812 -0.000759
v 6.890381 1.336023 -0.004312
v 6.890388 1.329824 -0.010071
v 6.879808 1.333567 -0.024520
v 6.884838 1.329889 -0.021130
v 6.848616 1.298095 -0.014047
v 6.852485 1.289181 -0.011387
v 6.880731 1.329665 -0.025242
v 6.875972 1.329435 -0.028162
v 6.847192 1.303744 -0.016528
v 6.850194 1.293949 -0.012612
v 6.852165 1.293979 -0.014888
v 6.854040 1.292341 -0.015440
v 6.891929 1.334384 0.001374
v 6.881104 1.325393 -0.025338
v 6.870829 1.329383 -0.029718
v 6.855595 1.295501 -0.019493
v 6.851759 1.297447 -0.017064
v 6.892970 1.329262 0.001864
v 6.871019 1.325143 -0.029873
v 6.865493 1.325157 -0.030308
v 6.876303 1.325191 -0.028305
v 6.850865 1.303055 -0.020093
v 6.893887 1.322124 0.005516
v 6.876521 1.320090 -0.028058
v 6.871155 1.319984 -0.029656
v 6.865493 1.319962 -0.030109
v 6.859831 1.319984 -0.029656
v 6.893680 1.323591 0.002115
v 6.894608 1.317621 0.003679
v 6.871210 1.314490 -0.029087
v 6.865493 1.314390 -0.029589
v 6.859776 1.314490 -0.029087
v 6.854391 1.314735 -0.027416
v 6.849996 1.309398 -0.022900
v 6.892712 1.324441 -0.003364
v 6.892027 1.329641 -0.003589
v 6.894104 1.313730 0.001487
v 6.892969 1.319196 -0.003514
v 6.865493 1.308329 -0.028125
v 6.854582 1.308915 -0.025849
v 6.859864 1.308511 -0.027571
v 6.855161 1.302420 -0.022827
v 6.892706 1.314536 -0.004225
v 6.893121 1.309546 -0.000819
v 6.891212 1.320024 -0.009873
v 6.860153 1.301901 -0.024513
v 6.860859 1.296047 -0.021355
v 6.862194 1.292341 -0.019539
v 6.860544 1.291287 -0.018371
v 6.888024 1.329924 -0.015995
v 6.891003 1.325091 -0.009938
v 6.888525 1.325454 -0.015947
v 6.865493 1.295660 -0.021801
v 6.865493 1.301670 -0.025094
v 6.865493 1.291551 -0.019551
v 6.865493 1.287074 -0.017250
v 6.888684 1.320425 -0.015755
v 6.885379 1.320492 -0.020907
v 6.885239 1.325547 -0.021158
v 6.870833 1.301901 -0.024513
v 6.871123 1.308511 -0.027571
v 6.868793 1.292341 -0.019539
v 6.870443 1.291287 -0.018371
v 6.888509 1.315397 -0.015338
v 6.890958 1.315155 -0.009860
v 6.876596 1.314735 -0.027416
v 6.876405 1.308915 -0.025849
v 6.870128 1.296047 -0.021355
v 6.875392 1.295501 -0.019493
v 6.881294 1.320320 -0.025074
v 6.890318 1.310314 -0.009499
v 6.892029 1.310390 -0.005035
v 6.881319 1.315071 -0.024411
v 6.885312 1.315342 -0.020307
v 6.891042 1.306684 -0.005479
v 6.891179 1.304776 -0.003352
v 6.880991 1.309398 -0.022900
v 6.884847 1.309844 -0.018975
v 6.875825 1.302420 -0.022827
v 6.887940 1.310141 -0.014327
v 6.888080 1.299663 -0.006011
v 6.889371 1.305331 -0.008390
v 6.880122 1.303055 -0.020093
v 6.883794 1.303744 -0.016528
v 6.886916 1.304427 -0.012350
v 6.879227 1.297447 -0.017064
v 6.878822 1.293979 -0.014888
v 6.876947 1.292341 -0.015440
v 6.885380 1.299195 -0.010630
v 6.883277 1.295383 -0.010390
v 6.883629 1.294447 -0.008693
v 6.882371 1.298095 -0.014047
v 6.880793 1.293949 -0.012612
v 6.878501 1.289181 -0.011387
v 6.883629 1.294447 -0.008693
v 6.888080 1.299663 -0.006011
v 6.878501 1.289181 -0.011387
v 6.880408 1.296043 -0.008931
v 6.865493 1.317621 0.003679
v 6.891179 1.304776 -0.003352
v 6.874830 1.293426 -0.012064
v 6.875392 1.295501 -0.019493
v 6.876947 1.292341 -0.015440
v 6.893121 1.309546 -0.000819
v 6.865493 1.287074 -0.017250
v 6.869072 1.293430 -0.012258
v 6.894104 1.313730 0.001487
v 6.865493 1.293431 -0.012306
v 6.861915 1.293430 -0.012258
v 6.855595 1.295501 -0.019493
v 6.860544 1.291287 -0.018371
v 6.856157 1.293426 -0.012064
v 6.870443 1.291287 -0.018371
v 6.894608 1.317621 0.003679
v 6.850578 1.296043 -0.008931
v 6.852485 1.289181 -0.011387
v 6.894065 1.313326 0.007975
v 6.842906 1.299663 -0.006011
v 6.854040 1.292341 -0.015440
v 6.847358 1.294447 -0.008693
v 6.839808 1.304776 -0.003352
v 6.837865 1.309546 -0.000819
v 6.836882 1.313730 0.001487
v 6.836379 1.317621 0.003679
v 6.836922 1.313326 0.007975
vn -0.0409 0.9827 -0.1805
vn -0.0687 0.9882 -0.1372
vn -0.0000 0.9896 -0.1436
vn -0.0000 0.9835 -0.1807
vn -0.0000 -0.7071 -0.7071
vn -0.0000 -0.9712 0.2382
vn -0.0000 -0.9972 -0.0746
vn -0.3919 -0.0955 0.9151
vn -0.3458 -0.1528 0.9258
vn -0.3857 -0.1558 0.9094
vn 0.4003 -0.1057 0.9103
vn 0.3013 -0.1346 0.9440
vn 0.3686 -0.0662 0.9272
vn 0.4086 -0.0883 0.9084
vn -0.2275 -0.2147 0.9498
vn -0.4304 -0.1490 0.8903
vn -0.4282 -0.1450 0.8920
vn -0.4197 -0.0901 0.9032
vn -0.4086 -0.0883 0.9084
vn -0.2605 -0.2540 0.9315
vn -0.1029 -0.3077 0.9459
vn -0.0843 -0.2069 0.9747
vn -0.0957 -0.1343 0.9863
vn 0.2275 -0.2147 0.9498
vn 0.0843 -0.2069 0.9747
vn 0.0770 -0.2831 0.9560
vn 0.1029 -0.3077 0.9459
vn -0.3686 -0.0662 0.9272
vn -0.4003 -0.1057 0.9103
vn -0.0000 -0.2145 0.9767
vn -0.0000 -0.2833 0.9590
vn -0.1440 -0.2241 0.9639
vn -0.2173 -0.1551 0.9637
vn -0.3013 -0.1346 0.9440
vn -0.0000 0.9139 -0.4059
vn 0.0203 0.9154 -0.4020
vn 0.0356 0.8850 -0.4642
vn -0.0000 0.8823 -0.4708
vn 0.0957 -0.1343 0.9863
vn -0.0343 -0.1900 0.9812
vn 0.7993 0.5630 -0.2102
vn 0.8346 0.4638 -0.2973
vn 0.7387 0.5923 -0.3216
vn 0.7301 0.6432 -0.2305
vn -0.0008 -0.1443 0.9895
vn -0.0050 -0.1532 0.9882
vn 0.2605 -0.2540 0.9315
vn 0.3857 -0.1558 0.9094
vn 0.4304 -0.1490 0.8903
vn 0.3458 -0.1528 0.9258
vn 0.3919 -0.0955 0.9151
vn 0.4282 -0.1450 0.8920
vn 0.4197 -0.0901 0.9032
vn 0.2173 -0.1551 0.9637
vn 0.1440 -0.2241 0.9639
vn 0.0343 -0.1900 0.9812
vn 0.0008 -0.1443 0.9895
vn 0.0050 -0.1532 0.9882
vn -0.0356 0.8850 -0.4642
vn -0.0586 0.8318 -0.5520
vn -0.1099 0.8359 -0.5377
vn -0.0674 0.8861 -0.4585
vn -0.0692 0.9219 -0.3811
vn -0.0000 0.9475 -0.3198
vn -0.0550 0.9194 -0.3894
vn 0.1589 0.8429 -0.5140
vn 0.2467 0.7641 -0.5961
vn 0.1700 0.7560 -0.6321
vn 0.1099 0.8359 -0.5377
vn -0.0801 0.9255 -0.3702
vn 0.0395 0.9161 -0.3989
vn 0.0550 0.9194 -0.3894
vn 0.0949 0.8924 -0.4411
vn 0.0674 0.8861 -0.4585
vn 0.2998 0.8659 -0.4004
vn 0.1793 0.9099 -0.3740
vn 0.1909 0.9203 -0.3414
vn 0.3245 0.8768 -0.3549
vn -0.4409 0.5414 -0.7159
vn -0.4922 0.4737 -0.7303
vn -0.6346 0.4702 -0.6133
vn -0.5662 0.5495 -0.6144
vn -0.0395 0.9161 -0.3989
vn -0.0959 0.9306 -0.3533
vn 0.1491 0.9036 -0.4017
vn 0.0801 0.9255 -0.3702
vn 0.0959 0.9306 -0.3533
vn 0.0586 0.8318 -0.5520
vn 0.0882 0.7516 -0.6537
vn 0.9434 -0.0038 -0.3317
vn 0.8832 -0.0258 -0.4683
vn 0.8877 0.0544 -0.4571
vn 0.9470 0.0734 -0.3127
vn 0.3922 0.6019 -0.6956
vn 0.4409 0.5414 -0.7159
vn 0.3038 0.5365 -0.7873
vn 0.2702 0.5942 -0.7575
vn -0.8708 -0.1223 -0.4763
vn -0.8430 -0.2446 -0.4791
vn -0.8988 -0.2002 -0.3901
vn -0.9285 -0.0928 -0.3596
vn 0.2592 0.8582 -0.4431
vn 0.3958 0.7800 -0.4847
vn 0.3241 0.7733 -0.5449
vn 0.2081 0.8519 -0.4805
vn -0.2048 0.9551 -0.2142
vn -0.1403 0.9707 -0.1949
vn -0.0880 0.9690 -0.2309
vn -0.1251 0.9617 -0.2440
vn -0.0203 0.9154 -0.4020
vn -0.8072 -0.3497 -0.4755
vn -0.8630 -0.3126 -0.3969
vn -0.1019 0.9374 -0.3329
vn 0.3306 0.6756 -0.6590
vn 0.2272 0.6675 -0.7091
vn -0.6610 0.5580 -0.5018
vn -0.7424 0.4635 -0.4837
vn -0.8082 0.4565 -0.3720
vn -0.7162 0.5684 -0.4049
vn 0.0961 0.9840 -0.1498
vn 0.1559 0.9788 -0.1329
vn 0.1283 0.9832 -0.1299
vn 0.0687 0.9882 -0.1372
vn 0.4492 0.7860 -0.4248
vn 0.5723 0.6991 -0.4286
vn 0.5138 0.6927 -0.5061
vn 0.4297 0.6851 -0.5882
vn -0.8980 0.4204 0.1295
vn -0.9463 0.2967 0.1283
vn -0.9519 0.2890 0.1015
vn -0.9043 0.4098 0.1199
vn -0.0260 0.9761 -0.2159
vn -0.0000 0.9770 -0.2132
vn -0.0000 0.9695 -0.2451
vn -0.0172 0.9688 -0.2472
vn 0.6498 0.6339 -0.4193
vn 0.7162 0.5684 -0.4049
vn 0.6610 0.5580 -0.5018
vn 0.5945 0.6228 -0.5086
vn -0.1068 0.9424 -0.3170
vn 0.0692 0.9219 -0.3811
vn 0.1234 0.8974 -0.4235
vn 0.5053 0.6126 -0.6078
vn -0.0862 0.9790 -0.1845
vn -0.0568 0.9736 -0.2212
vn 0.3309 0.8925 -0.3065
vn 0.1997 0.9283 -0.3135
vn -0.3309 0.8925 -0.3065
vn -0.1997 0.9283 -0.3135
vn -0.1909 0.9203 -0.3414
vn -0.3245 0.8768 -0.3549
vn 0.4991 0.8181 -0.2857
vn 0.6263 0.7380 -0.2513
vn 0.6108 0.7114 -0.3476
vn 0.4840 0.7972 -0.3609
vn -0.0000 0.8310 -0.5563
vn 0.1552 0.9533 -0.2590
vn 0.1811 0.9453 -0.2711
vn 0.0978 0.9527 -0.2878
vn 0.0848 0.9572 -0.2768
vn -0.1020 0.9482 -0.3010
vn -0.7084 -0.4357 -0.5553
vn -0.6331 -0.4439 -0.6341
vn -0.6430 -0.4707 -0.6042
vn -0.6929 -0.4669 -0.5494
vn 0.1904 0.9385 -0.2881
vn 0.3227 0.9084 -0.2660
vn 0.4894 0.8433 -0.2219
vn -0.1565 0.5339 -0.8309
vn -0.3038 0.5365 -0.7873
vn -0.2702 0.5942 -0.7575
vn -0.1394 0.5905 -0.7949
vn -0.0000 0.7502 -0.6613
vn -0.0882 0.7516 -0.6537
vn 0.1019 0.9374 -0.3329
vn 0.1020 0.9482 -0.3010
vn -0.0978 0.9527 -0.2878
vn -0.7109 0.3450 -0.6129
vn -0.8250 0.3295 -0.4592
vn -0.1700 0.7560 -0.6321
vn 0.7109 0.3450 -0.6129
vn 0.5531 0.3540 -0.7542
vn 0.4922 0.4737 -0.7303
vn 0.6346 0.4702 -0.6133
vn 0.8761 0.1755 -0.4491
vn 0.7667 0.1746 -0.6178
vn 0.8250 0.3295 -0.4592
vn -0.0848 0.9572 -0.2768
vn 0.1068 0.9424 -0.3170
vn 0.5662 0.5495 -0.6144
vn -0.8119 0.5828 0.0357
vn -0.8865 0.4508 0.1045
vn -0.8516 0.5192 0.0726
vn 0.1170 0.6626 -0.7398
vn 0.3009 0.9216 -0.2452
vn 0.2649 0.9357 -0.2330
vn -0.0713 0.9613 -0.2661
vn 0.0713 0.9613 -0.2661
vn 0.1251 0.9617 -0.2440
vn -0.0000 0.6610 -0.7504
vn 0.4634 0.8648 -0.1934
vn 0.4126 0.8927 -0.1811
vn -0.6108 0.7114 -0.3476
vn -0.6263 0.7380 -0.2513
vn -0.4991 0.8181 -0.2857
vn -0.4840 0.7972 -0.3609
vn -0.9739 0.0905 -0.2081
vn -0.9888 0.1114 -0.0996
vn -0.9827 0.1597 -0.0939
vn -0.9641 0.1684 -0.2055
vn -0.2467 0.7641 -0.5961
vn -0.1589 0.8429 -0.5140
vn 0.0409 0.9827 -0.1805
vn 0.0862 0.9790 -0.1845
vn 0.6150 0.7696 -0.1717
vn 0.5889 0.7960 -0.1400
vn -0.0949 0.8924 -0.4411
vn -0.1234 0.8974 -0.4235
vn -0.2081 0.8519 -0.4805
vn -0.3241 0.7733 -0.5449
vn 0.6809 0.6944 -0.2327
vn 0.6788 0.6553 -0.3313
vn -0.0770 -0.2831 0.9560
vn 0.6608 0.7345 -0.1547
vn -0.1491 0.9036 -0.4017
vn -0.2592 0.8582 -0.4431
vn -0.3306 0.6756 -0.6590
vn -0.4297 0.6851 -0.5882
vn -0.5053 0.6126 -0.6078
vn -0.3922 0.6019 -0.6956
vn 0.7062 0.6927 -0.1463
vn 0.6353 0.7614 -0.1290
vn 0.6877 0.7167 -0.1160
vn 0.5330 0.8346 -0.1390
vn 0.6196 0.7747 -0.1262
vn -0.8629 0.5027 -0.0518
vn -0.7925 0.6009 -0.1041
vn -0.7993 0.5630 -0.2102
vn -0.8651 0.4634 -0.1919
vn -0.1170 0.6626 -0.7398
vn -0.2272 0.6675 -0.7091
vn 0.3168 0.9349 -0.1599
vn 0.3609 0.9210 -0.1464
vn 0.2048 0.9551 -0.2142
vn -0.7062 0.6927 -0.1463
vn -0.6877 0.7167 -0.1160
vn -0.6353 0.7614 -0.1290
vn -0.6608 0.7345 -0.1547
vn -0.0000 0.9834 -0.1817
vn 0.1230 0.9610 -0.2478
vn -0.0000 0.9871 -0.1601
vn 0.8082 0.4565 -0.3720
vn 0.7424 0.4635 -0.4837
vn -0.3227 0.9084 -0.2660
vn -0.1904 0.9385 -0.2881
vn 0.9262 0.2841 -0.2478
vn 0.8920 0.3112 -0.3279
vn 0.7821 0.0377 -0.6220
vn -0.6788 0.6553 -0.3313
vn -0.6809 0.6944 -0.2327
vn 0.0880 0.9690 -0.2309
vn 0.1403 0.9707 -0.1949
vn -0.0527 0.9649 -0.2572
vn 0.0527 0.9649 -0.2572
vn -0.8346 0.4638 -0.2973
vn 0.8629 0.5027 -0.0518
vn 0.8651 0.4634 -0.1919
vn 0.7925 0.6009 -0.1041
vn -0.0000 0.5896 -0.8077
vn 0.3354 0.4743 -0.8140
vn 0.0363 0.9674 -0.2507
vn 0.0568 0.9736 -0.2212
vn -0.0363 0.9674 -0.2507
vn -0.1552 0.9533 -0.2590
vn 0.7908 0.6098 -0.0536
vn 0.8691 0.4943 0.0184
vn -0.7789 -0.4214 -0.4644
vn -0.8272 -0.3889 -0.4056
vn 0.1565 0.5339 -0.8309
vn 0.1394 0.5905 -0.7949
vn -0.0000 0.5331 -0.8461
vn -0.5330 0.8346 -0.1390
vn -0.4126 0.8927 -0.1811
vn -0.4634 0.8648 -0.1934
vn -0.5889 0.7960 -0.1400
vn 0.6780 0.7291 -0.0937
vn 0.7929 0.6089 -0.0224
vn 0.1693 0.4694 -0.8666
vn 0.0172 0.9688 -0.2472
vn 0.0260 0.9761 -0.2159
vn -0.6196 0.7747 -0.1262
vn -0.6780 0.7291 -0.0937
vn -0.7086 0.7021 -0.0708
vn -0.4745 0.8715 -0.1235
vn -0.3609 0.9210 -0.1464
vn -0.8718 0.4844 0.0728
vn 0.0012 0.4648 -0.8854
vn -0.1692 0.4695 -0.8666
vn -0.7549 -0.2805 -0.5928
vn -0.6189 -0.3092 -0.7221
vn -0.6165 -0.4062 -0.6745
vn -0.7268 -0.3858 -0.5683
vn 0.2332 0.9639 -0.1286
vn 0.2044 0.9692 -0.1373
vn 0.2245 0.9492 -0.2204
vn 0.4745 0.8715 -0.1235
vn -0.2120 -0.4433 -0.8709
vn -0.2000 -0.4792 -0.8546
vn -0.4521 -0.4669 -0.7600
vn -0.4321 -0.4259 -0.7949
vn -0.3009 0.9216 -0.2452
vn -0.2649 0.9357 -0.2330
vn -0.1811 0.9453 -0.2711
vn 0.9355 0.1753 -0.3067
vn 0.9641 0.1684 -0.2055
vn 0.3708 0.3535 -0.8588
vn -0.5138 0.6927 -0.5061
vn -0.5945 0.6228 -0.5086
vn -0.6498 0.6339 -0.4193
vn -0.5723 0.6991 -0.4286
vn -0.8877 0.0544 -0.4571
vn -0.9470 0.0734 -0.3127
vn -0.9355 0.1753 -0.3067
vn -0.8761 0.1755 -0.4491
vn -0.3168 0.9349 -0.1599
vn -0.9315 0.3356 -0.1403
vn 0.6035 0.1725 -0.7785
vn 0.3996 0.1638 -0.9020
vn -0.3996 0.1638 -0.9020
vn -0.6035 0.1725 -0.7785
vn -0.5531 0.3540 -0.7542
vn -0.3708 0.3535 -0.8588
vn -0.3354 0.4743 -0.8140
vn 0.7549 -0.2805 -0.5928
vn 0.6189 -0.3092 -0.7221
vn 0.6284 -0.1623 -0.7608
vn 0.7757 -0.1443 -0.6144
vn -0.4492 0.7860 -0.4248
vn -0.3958 0.7800 -0.4847
vn -0.0004 0.3370 -0.9415
vn -0.1792 0.3433 -0.9220
vn 0.7368 0.2879 -0.6117
vn -0.2245 0.9492 -0.2204
vn -0.2332 0.9639 -0.1286
vn -0.4142 -0.0646 -0.9079
vn -0.6269 -0.0550 -0.7771
vn -0.6216 0.0269 -0.7828
vn -0.4091 0.0155 -0.9124
vn 0.6216 0.0269 -0.7828
vn 0.4091 0.0155 -0.9124
vn 0.9528 -0.1462 -0.2659
vn 0.9371 -0.1644 -0.3079
vn 0.9596 -0.0634 -0.2742
vn 0.9697 -0.0414 -0.2407
vn 0.1789 0.3436 -0.9219
vn 0.1846 0.1500 -0.9713
vn -0.0000 0.1431 -0.9897
vn 0.7818 -0.0427 -0.6220
vn 0.6269 -0.0550 -0.7771
vn 0.9285 -0.0928 -0.3596
vn 0.9713 0.0234 -0.2369
vn 0.9391 0.3423 0.0300
vn 0.8756 0.4802 0.0531
vn 0.9408 0.3178 0.1181
vn -0.1283 0.9832 -0.1299
vn 0.8988 -0.2002 -0.3901
vn 0.1840 0.0041 -0.9829
vn -0.0000 -0.0005 -1.0000
vn -0.2044 0.9692 -0.1373
vn 0.9857 0.1156 0.1226
vn 0.9886 0.1437 0.0452
vn 0.9746 0.1929 0.1138
vn 0.9781 0.1729 0.1160
vn -0.7818 -0.0427 -0.6220
vn -0.7821 0.0377 -0.6220
vn 0.4142 -0.0646 -0.9079
vn -0.4894 0.8433 -0.2219
vn -0.1559 0.9788 -0.1329
vn -0.0961 0.9840 -0.1498
vn 0.1884 -0.4907 -0.8507
vn 0.2000 -0.4792 -0.8546
vn 0.4521 -0.4669 -0.7600
vn 0.2491 -0.5080 -0.8246
vn 0.4222 -0.1735 -0.8897
vn -0.8691 0.4943 0.0184
vn -0.7908 0.6098 -0.0536
vn -0.7387 0.5923 -0.3216
vn -0.1230 0.9610 -0.2478
vn -0.9857 0.1156 0.1227
vn -0.9903 0.0663 0.1224
vn -0.9902 0.0505 0.1305
vn -0.9878 0.0933 0.1248
vn -0.9408 0.3178 0.1181
vn -0.9746 0.1929 0.1138
vn -0.9781 0.1729 0.1160
vn -0.7868 0.6143 -0.0601
vn -0.9417 0.3360 -0.0199
vn -0.8756 0.4802 0.0531
vn -0.7929 0.6089 -0.0224
vn -0.1793 0.9099 -0.3740
vn -0.6150 0.7696 -0.1717
vn -0.1603 0.9565 -0.2439
vn -0.0848 0.9808 0.1755
vn 0.1603 0.9565 -0.2439
vn -0.2998 0.8659 -0.4004
vn -0.0000 0.8942 0.4476
vn 0.1428 0.8919 0.4291
vn 0.0848 0.9808 0.1755
vn -0.3900 0.9128 -0.1211
vn 0.7086 0.7021 -0.0708
vn 0.9417 0.3360 -0.0199
vn -0.1840 0.0041 -0.9829
vn -0.1846 0.1500 -0.9713
vn -0.8277 0.5571 -0.0674
vn 0.3900 0.9128 -0.1211
vn -0.8920 0.3112 -0.3279
vn -0.1428 0.8919 0.4291
vn 0.7868 0.6143 -0.0601
vn -0.9729 0.2051 -0.1070
vn -0.9783 0.2047 0.0320
vn -0.9391 0.3423 0.0300
vn -0.9886 0.1437 0.0452
vn -0.9913 0.1088 0.0738
vn -0.7527 -0.4673 -0.4638
vn 0.8516 0.5192 0.0726
vn 0.8119 0.5828 0.0357
vn 0.9783 0.2047 0.0320
vn 0.9827 0.1597 -0.0939
vn 0.9729 0.2051 -0.1070
vn 0.8718 0.4844 0.0728
vn 0.9043 0.4098 0.1199
vn 0.8980 0.4204 0.1295
vn 0.8865 0.4508 0.1045
vn -0.9819 0.1575 0.1051
vn 0.9519 0.2890 0.1015
vn 0.9463 0.2967 0.1283
vn -0.9713 0.0234 -0.2369
vn -0.9596 -0.0634 -0.2742
vn -0.9697 -0.0414 -0.2407
vn -0.9976 0.0666 -0.0205
vn -0.9907 0.0369 0.1309
vn -0.9894 0.0795 0.1215
vn 0.9894 0.0795 0.1215
vn 0.9878 0.0933 0.1248
vn 0.9819 0.1575 0.1051
vn -0.6320 -0.4778 -0.6101
vn -0.6800 -0.4842 -0.5506
vn 0.8277 0.5571 -0.0674
vn 0.9315 0.3356 -0.1403
vn -0.9262 0.2841 -0.2478
vn 0.9902 0.0505 0.1305
vn 0.9903 0.0663 0.1224
vn 0.9905 0.0271 0.1349
vn 0.9896 0.0281 0.1408
vn 0.9907 0.0369 0.1309
vn 0.9871 0.0447 0.1537
vn 0.9739 0.0905 -0.2081
vn 0.9888 0.1114 -0.0996
vn -0.9896 0.0281 0.1408
vn -0.9905 0.0271 0.1349
vn -0.9871 0.0447 0.1537
vn -0.0000 -0.4804 -0.8770
vn -0.0000 -0.4661 -0.8847
vn -0.7301 0.6432 -0.2305
vn 0.9913 0.1088 0.0738
vn 0.8708 -0.1223 -0.4763
vn 0.9976 0.0666 -0.0205
vn -0.0000 -0.4512 -0.8924
vn 0.8430 -0.2446 -0.4791
vn 0.8998 -0.2905 -0.3257
vn 0.9053 -0.2631 -0.3334
vn 0.8630 -0.3126 -0.3969
vn 0.8072 -0.3497 -0.4755
vn 0.7268 -0.3858 -0.5683
vn 0.8272 -0.3889 -0.4056
vn 0.7789 -0.4214 -0.4644
vn -0.9053 -0.2631 -0.3334
vn -0.8998 -0.2905 -0.3257
vn -0.7679 -0.4800 -0.4241
vn -0.9434 -0.0038 -0.3317
vn -0.7667 0.1746 -0.6178
vn 0.7527 -0.4673 -0.4638
vn 0.6929 -0.4669 -0.5494
vn 0.7084 -0.4357 -0.5553
vn -0.6284 -0.1623 -0.7608
vn -0.7757 -0.1443 -0.6144
vn 0.6430 -0.4707 -0.6042
vn 0.6331 -0.4439 -0.6341
vn 0.6800 -0.4842 -0.5506
vn 0.6320 -0.4778 -0.6101
vn 0.1965 -0.1730 -0.9651
vn 0.2096 -0.3324 -0.9196
vn -0.0000 -0.3313 -0.9435
vn -0.0000 -0.1698 -0.9855
vn -0.0000 -0.9921 0.1255
vn -0.0000 -0.9930 0.1182
vn 0.6165 -0.4062 -0.6745
vn 0.4321 -0.4259 -0.7949
vn -0.1866 -0.0685 -0.9800
vn -0.1965 -0.1730 -0.9651
vn -0.2096 -0.3324 -0.9196
vn -0.4274 -0.3279 -0.8425
vn -0.4222 -0.1735 -0.8897
vn -0.0000 -0.0684 -0.9977
vn 0.1866 -0.0685 -0.9800
vn 0.4274 -0.3279 -0.8425
vn -0.9371 -0.1644 -0.3079
vn -0.9528 -0.1462 -0.2659
vn 0.2120 -0.4433 -0.8709
vn -0.8832 -0.0258 -0.4683
vn -0.1884 -0.4907 -0.8507
vn -0.0000 -0.4866 -0.8736
vn -0.2491 -0.5080 -0.8246
vn 0.7679 -0.4800 -0.4241
vn 0.0199 -0.4706 0.8821
vn -0.0520 -0.4755 0.8782
vn -0.5880 -0.4679 0.6598
vn -0.1995 -0.4174 0.8865
vn 0.0078 -0.4681 0.8836
vn -0.2297 -0.7954 0.5609
vn 0.2557 -0.9360 -0.2420
vn -0.9701 -0.0000 0.2425
vn 0.0038 -0.4767 0.8790
vn -0.0000 -0.8663 0.4996
vn -0.0209 -0.5816 0.8132
vn 0.0007 -0.4869 0.8734
vn -0.0000 -0.5832 0.8123
vn 0.0209 -0.5816 0.8132
vn -0.2557 -0.9360 -0.2420
vn 0.1741 0.6963 -0.6963
vn 0.2297 -0.7954 0.5609
vn -0.1741 0.6963 -0.6963
vn 0.1995 -0.4174 0.8865
vn 0.5880 -0.4679 0.6598
vn 0.0520 -0.4755 0.8782
vn 0.9701 -0.0000 0.2425
vn -0.0199 -0.4706 0.8821
vn -0.0078 -0.4681 0.8836
vn -0.0038 -0.4767 0.8790
vn -0.0007 -0.4869 0.8734
vt 0.000000 0.000000
s 1
f 202/1/1 209/1/2 207/1/3 201/1/4
f 2/1/5 4/1/6 3/1/7 1/1/5
f 7/1/8 8/1/9 9/1/10
f 43/1/11 45/1/12 44/1/13 41/1/14
f 9/1/10 10/1/15 12/1/16
f 9/1/10 12/1/16 13/1/17
f 9/1/10 13/1/17 14/1/18
f 9/1/10 15/1/19 7/1/8
f 9/1/10 14/1/18 15/1/19
f 11/1/20 16/1/21 10/1/15
f 10/1/15 17/1/22 18/1/23
f 32/1/24 28/1/25 27/1/26 31/1/27
f 14/1/18 20/1/28 15/1/19
f 15/1/19 21/1/29 7/1/8
f 27/1/26 28/1/25 23/1/30 22/1/31
f 17/1/22 23/1/30 18/1/23
f 24/1/32 3/1/7 25/1/33
f 20/1/28 24/1/32 25/1/33
f 20/1/28 25/1/33 26/1/34
f 25/1/33 3/1/7 26/1/34
f 82/1/35 110/1/36 98/1/37 81/1/38
f 23/1/30 28/1/25 29/1/39
f 24/1/32 30/1/40 3/1/7
f 387/1/41 413/1/42 394/1/43 388/1/44
f 28/1/25 32/1/24 29/1/39
f 3/1/7 33/1/45 6/1/6
f 3/1/7 34/1/46 33/1/45
f 3/1/7 30/1/40 34/1/46
f 31/1/27 35/1/47 32/1/24
f 8/1/9 11/1/20 10/1/15 9/1/10
f 32/1/24 37/1/48 38/1/49
f 36/1/50 39/1/51 37/1/48
f 37/1/48 40/1/52 38/1/49
f 37/1/48 39/1/51 41/1/14
f 37/1/48 41/1/14 42/1/53
f 37/1/48 42/1/53 40/1/52
f 39/1/51 43/1/11 41/1/14
f 20/1/28 26/1/34 21/1/29 15/1/19
f 41/1/14 44/1/13 42/1/53
f 45/1/12 3/1/7 46/1/54
f 44/1/13 45/1/12 46/1/54
f 46/1/54 3/1/7 47/1/55
f 44/1/13 46/1/54 47/1/55
f 47/1/55 3/1/7 48/1/56
f 3/1/7 4/1/6 49/1/57
f 3/1/7 50/1/58 48/1/56
f 3/1/7 49/1/57 50/1/58
f 64/1/59 66/1/60 58/1/61 57/1/62
f 51/1/63 55/1/64 54/1/65
f 125/1/66 132/1/67 104/1/68 103/1/69
f 51/1/63 56/1/70 55/1/64
f 116/1/71 123/1/72 124/1/73 117/1/74
f 124/1/73 125/1/66 103/1/69 117/1/74
f 281/1/75 282/1/76 276/1/77 277/1/78
f 118/1/79 180/1/80 126/1/81 119/1/82
f 54/1/65 55/1/64 62/1/83
f 56/1/70 63/1/84 55/1/64
f 139/1/85 286/1/86 283/1/87 282/1/76
f 97/1/88 103/1/69 104/1/68 102/1/89
f 98/1/37 117/1/74 103/1/69 97/1/88
f 466/1/90 478/1/91 473/1/92 472/1/93
f 308/1/94 229/1/95 220/1/96 154/1/97
f 392/1/98 409/1/99 404/1/100 402/1/101
f 140/1/102 294/1/103 133/1/104 131/1/105
f 150/1/106 169/1/107 160/1/108 155/1/109
f 62/1/83 55/1/64 72/1/110
f 411/1/111 410/1/112 404/1/100 409/1/99
f 63/1/84 73/1/113 55/1/64
f 133/1/104 132/1/67 125/1/66 131/1/105
f 141/1/114 147/1/115 104/1/68 132/1/67
f 109/1/116 152/1/117 151/1/118 145/1/119
f 252/1/120 258/1/121 238/1/122 245/1/123
f 285/1/124 321/1/125 301/1/126 294/1/103
f 301/1/126 302/1/127 133/1/104 294/1/103
f 333/1/128 345/1/129 339/1/130 334/1/131
f 182/1/132 194/1/133 189/1/134 183/1/135
f 72/1/110 55/1/64 82/1/35
f 320/1/136 401/1/137 313/1/138 314/1/139
f 73/1/113 83/1/140 55/1/64
f 129/1/141 130/1/142 124/1/73 123/1/72
f 301/1/126 314/1/139 307/1/143 302/1/127
f 160/1/108 169/1/107 176/1/144 175/1/145
f 271/1/146 277/1/78 276/1/77 272/1/147
f 89/1/148 88/1/149 79/1/150 80/1/151
f 270/1/152 290/1/153 289/1/154 284/1/155
f 91/1/156 81/1/38 98/1/37 97/1/88
f 236/1/157 249/1/158 244/1/159 237/1/160
f 83/1/140 92/1/161 55/1/64
f 301/1/126 321/1/125 320/1/136 314/1/139
f 426/1/162 438/1/163 432/1/164 431/1/165
f 271/1/146 272/1/147 250/1/166 264/1/167
f 270/1/152 271/1/146 264/1/167 269/1/168
f 172/1/169 173/1/170 111/1/171 166/1/172
f 96/1/173 99/1/174 66/1/60 91/1/156
f 276/1/77 282/1/76 283/1/87 278/1/175
f 72/1/110 82/1/35 81/1/38 64/1/59
f 250/1/166 251/1/176 244/1/159 249/1/158
f 92/1/161 100/1/177 55/1/64
f 187/1/178 192/1/179 152/1/117 126/1/81
f 66/1/60 99/1/174 65/1/180 58/1/61
f 416/1/181 424/1/182 417/1/183 319/1/184
f 471/1/185 425/1/186 416/1/181 415/1/187
f 100/1/177 108/1/188 55/1/64
f 285/1/124 281/1/75 277/1/78 284/1/155
f 250/1/166 272/1/147 257/1/189 251/1/176
f 307/1/143 314/1/139 313/1/138 312/1/190
f 82/1/35 55/1/64 110/1/36
f 330/1/191 349/1/192 333/1/128 329/1/193
f 104/1/68 147/1/115 148/1/194 102/1/89
f 256/1/195 264/1/167 250/1/166 249/1/158
f 236/1/157 243/1/196 256/1/195 249/1/158
f 108/1/188 115/1/197 55/1/64
f 236/1/157 237/1/160 232/1/198 231/1/199
f 62/1/83 72/1/110 64/1/59 57/1/62
f 110/1/36 55/1/64 116/1/71
f 148/1/194 159/1/200 96/1/173 102/1/89
f 307/1/143 312/1/190 229/1/95 308/1/94
f 263/1/201 269/1/168 264/1/167 256/1/195
f 243/1/196 262/1/202 263/1/201 256/1/195
f 116/1/71 55/1/64 123/1/72
f 86/1/203 127/1/204 90/1/205 87/1/206
f 378/1/207 395/1/208 370/1/209 372/1/210
f 65/1/180 67/1/211 59/1/212 58/1/61
f 319/1/184 417/1/183 229/1/95 312/1/190
f 208/1/213 245/1/123 238/1/122 212/1/214
f 268/1/215 290/1/153 270/1/152 269/1/168
f 268/1/215 269/1/168 263/1/201 267/1/216
f 123/1/72 55/1/64 129/1/141
f 51/1/63 54/1/65 52/1/217 53/1/218
f 60/1/219 53/1/218 52/1/217 59/1/212
f 68/1/220 60/1/219 59/1/212 67/1/211
f 296/1/221 332/1/222 289/1/154 290/1/153
f 22/1/31 23/1/30 17/1/22 19/1/223
f 268/1/215 295/1/224 296/1/221 290/1/153
f 53/1/218 61/1/225 56/1/70 51/1/63
f 60/1/219 69/1/226 61/1/225 53/1/218
f 276/1/77 278/1/175 257/1/189 272/1/147
f 74/1/227 75/1/228 68/1/220 67/1/211
f 118/1/79 119/1/82 84/1/229 112/1/230
f 303/1/231 388/1/44 296/1/221 295/1/224
f 275/1/232 310/1/233 303/1/231 295/1/224
f 261/1/234 267/1/216 263/1/201 262/1/202
f 261/1/234 280/1/235 275/1/232 267/1/216
f 394/1/43 401/1/137 320/1/136 332/1/222
f 163/1/236 164/1/237 158/1/238 162/1/239
f 105/1/240 106/1/241 65/1/180 99/1/174
f 96/1/173 159/1/200 105/1/240 99/1/174
f 261/1/234 262/1/202 242/1/242 260/1/243
f 242/1/242 262/1/202 243/1/196 235/1/244
f 142/1/245 171/1/246 137/1/247 135/1/248
f 259/1/249 273/1/250 252/1/120 253/1/251
f 407/1/252 408/1/253 313/1/138 401/1/137
f 105/1/240 166/1/172 111/1/171 106/1/241
f 111/1/171 112/1/230 74/1/227 106/1/241
f 89/1/148 95/1/254 94/1/255 88/1/149
f 413/1/42 422/1/256 414/1/257 407/1/252
f 473/1/92 480/1/258 425/1/186 471/1/185
f 86/1/203 138/1/259 134/1/260 127/1/204
f 226/1/261 239/1/262 235/1/244 231/1/199
f 115/1/197 161/1/263 55/1/64
f 231/1/199 232/1/198 225/1/264 226/1/261
f 158/1/238 157/1/265 162/1/239
f 379/1/266 421/1/267 387/1/41 380/1/268
f 165/1/269 166/1/172 105/1/240 159/1/200
f 229/1/95 417/1/183 221/1/270 220/1/96
f 226/1/261 225/1/264 219/1/271 213/1/272
f 161/1/263 168/1/273 55/1/64
f 114/1/274 155/1/109 115/1/197 108/1/188
f 317/1/275 380/1/268 303/1/231 310/1/233
f 379/1/266 380/1/268 317/1/275 373/1/276
f 411/1/111 418/1/277 412/1/278 410/1/112
f 154/1/97 220/1/96 174/1/279 167/1/280
f 148/1/194 167/1/280 165/1/269 159/1/200
f 165/1/269 181/1/281 172/1/169 166/1/172
f 212/1/214 239/1/262 226/1/261 213/1/272
f 143/1/282 144/1/283 120/1/284 136/1/285
f 305/1/286 338/1/287 317/1/275 310/1/233
f 174/1/279 220/1/96 221/1/270 216/1/288
f 175/1/145 182/1/132 183/1/135 168/1/273
f 307/1/143 308/1/94 141/1/114 302/1/127
f 213/1/272 219/1/271 195/1/289 196/1/290
f 168/1/273 183/1/135 55/1/64
f 178/1/291 177/1/292 184/1/293
f 178/1/291 185/1/294 143/1/282
f 178/1/291 184/1/293 185/1/294
f 143/1/282 185/1/294 186/1/295
f 333/1/128 334/1/131 328/1/296 329/1/193
f 416/1/181 319/1/184 408/1/253 415/1/187
f 188/1/297 193/1/298 172/1/169 181/1/281
f 398/1/299 455/1/300 443/1/301 430/1/302
f 189/1/134 194/1/133 196/1/290 195/1/289
f 183/1/135 189/1/134 55/1/64
f 254/1/303 260/1/243 242/1/242 246/1/304
f 254/1/303 274/1/305 266/1/306 260/1/243
f 189/1/134 195/1/289 55/1/64
f 467/1/307 468/1/308 437/1/309 463/1/310
f 113/1/311 121/1/312 114/1/274 107/1/313
f 238/1/122 246/1/304 239/1/262 212/1/214
f 423/1/314 471/1/185 415/1/187 414/1/257
f 457/1/315 423/1/314 414/1/257 422/1/256
f 387/1/41 388/1/44 303/1/231 380/1/268
f 417/1/183 424/1/182 234/1/316 221/1/270
f 182/1/132 202/1/1 201/1/4 194/1/133
f 76/1/317 101/1/318 93/1/319 85/1/320
f 222/1/321 377/1/322 199/1/323 217/1/324
f 149/1/325 150/1/106 121/1/312 144/1/283
f 162/1/239 203/1/326 163/1/236
f 428/1/327 429/1/328 234/1/316 424/1/182
f 206/1/329 218/1/330 204/1/331 200/1/332
f 207/1/3 245/1/123 208/1/213 201/1/4
f 200/1/332 204/1/331 180/1/80 179/1/333
f 499/1/334 498/1/335 494/1/336 495/1/337
f 425/1/186 428/1/327 424/1/182 416/1/181
f 154/1/97 167/1/280 148/1/194 147/1/115
f 176/1/144 202/1/1 182/1/132 175/1/145
f 116/1/71 117/1/74 98/1/37 110/1/36
f 76/1/317 85/1/320 78/1/338 77/1/339
f 210/1/340 205/1/341 193/1/298 188/1/297
f 188/1/297 215/1/342 210/1/340
f 185/1/294 304/1/343 190/1/344 186/1/295
f 188/1/297 216/1/288 215/1/342
f 195/1/289 219/1/271 55/1/64
f 3/1/7 6/1/6 5/1/5 1/1/5
f 473/1/92 471/1/185 423/1/314 472/1/93
f 207/1/3 253/1/251 252/1/120 245/1/123
f 247/1/345 248/1/346 223/1/347 241/1/348
f 435/1/349 442/1/350 429/1/328 428/1/327
f 219/1/271 225/1/264 55/1/64
f 465/1/351 493/1/352 464/1/353 458/1/354
f 94/1/255 107/1/313 100/1/177 92/1/161
f 228/1/355 436/1/356 227/1/357 210/1/340
f 443/1/301 438/1/163 426/1/162 430/1/302
f 179/1/333 180/1/80 118/1/79 173/1/170
f 111/1/171 173/1/170 118/1/79 112/1/230
f 174/1/279 216/1/288 188/1/297 181/1/281
f 479/1/358 491/1/359 435/1/349 480/1/258
f 464/1/353 486/1/360 466/1/90 459/1/361
f 225/1/264 232/1/198 55/1/64
f 193/1/298 205/1/341 200/1/332 179/1/333
f 113/1/311 107/1/313 94/1/255 95/1/254
f 366/1/362 373/1/276 344/1/363 341/1/364
f 150/1/106 155/1/109 114/1/274 121/1/312
f 232/1/198 237/1/160 55/1/64
f 197/1/365 209/1/2 202/1/1 176/1/144
f 464/1/353 493/1/352 492/1/366 486/1/360
f 440/1/367 441/1/368 227/1/357 436/1/356
f 429/1/328 442/1/350 440/1/367 436/1/356
f 149/1/325 191/1/369 169/1/107 150/1/106
f 357/1/370 381/1/371 358/1/372 336/1/373
f 237/1/160 244/1/159 55/1/64
f 107/1/313 114/1/274 108/1/188 100/1/177
f 223/1/347 248/1/346 230/1/374 224/1/375
f 435/1/349 491/1/359 445/1/376 442/1/350
f 95/1/254 122/1/377 120/1/284 113/1/311
f 244/1/159 251/1/176 55/1/64
f 197/1/365 298/1/378 214/1/379 209/1/2
f 214/1/379 253/1/251 207/1/3 209/1/2
f 298/1/378 197/1/365 191/1/369 190/1/344
f 483/1/380 489/1/381 490/1/382 484/1/383
f 479/1/358 495/1/337 494/1/336 491/1/359
f 494/1/336 487/1/384 445/1/376 491/1/359
f 163/1/236 350/1/385 170/1/386 164/1/237
f 238/1/122 258/1/121 254/1/303 246/1/304
f 88/1/149 94/1/255 92/1/161 83/1/140
f 251/1/176 257/1/189 55/1/64
f 93/1/319 145/1/119 146/1/387 138/1/259
f 214/1/379 291/1/388 259/1/249 253/1/251
f 368/1/389 389/1/390 362/1/391 361/1/392
f 354/1/393 360/1/394 346/1/395 345/1/129
f 184/1/293 322/1/396 315/1/397 185/1/294
f 348/1/398 349/1/192 330/1/191 340/1/399
f 170/1/386 350/1/385 348/1/398 340/1/399
f 275/1/232 295/1/224 268/1/215 267/1/216
f 120/1/284 144/1/283 121/1/312 113/1/311
f 260/1/243 266/1/306 261/1/234
f 170/1/386 171/1/246 142/1/245 164/1/237
f 61/1/225 70/1/400 63/1/84 56/1/70
f 137/1/247 178/1/291 143/1/282 136/1/285
f 201/1/4 208/1/213 196/1/290 194/1/133
f 137/1/247 136/1/285 128/1/401 135/1/248
f 54/1/65 62/1/83 57/1/62 52/1/217
f 214/1/379 298/1/378 297/1/402 291/1/388
f 79/1/150 88/1/149 83/1/140 73/1/113
f 80/1/151 87/1/206 90/1/205 89/1/148
f 257/1/189 278/1/175 55/1/64
f 273/1/250 279/1/403 265/1/404
f 273/1/250 259/1/249 279/1/403
f 274/1/305 279/1/403 266/1/306
f 274/1/305 265/1/404 279/1/403
f 261/1/234 266/1/306 280/1/235
f 61/1/225 69/1/226 71/1/405 70/1/400
f 71/1/405 80/1/151 79/1/150 70/1/400
f 91/1/156 66/1/60 64/1/59 81/1/38
f 70/1/400 79/1/150 73/1/113 63/1/84
f 278/1/175 283/1/87 55/1/64
f 78/1/338 87/1/206 80/1/151 71/1/405
f 69/1/226 77/1/339 78/1/338 71/1/405
f 55/1/64 286/1/86 129/1/141
f 55/1/64 283/1/87 286/1/86
f 279/1/403 259/1/249 287/1/406
f 279/1/403 288/1/407 266/1/306
f 86/1/203 87/1/206 78/1/338 85/1/320
f 443/1/301 463/1/310 437/1/309 438/1/163
f 259/1/249 291/1/388 292/1/408
f 259/1/249 292/1/408 287/1/406
f 288/1/407 293/1/409 266/1/306
f 134/1/260 135/1/248 128/1/401 127/1/204
f 90/1/205 127/1/204 128/1/401 122/1/377
f 252/1/120 273/1/250 265/1/404 258/1/121
f 291/1/388 297/1/402 292/1/408
f 265/1/404 274/1/305 254/1/303 258/1/121
f 266/1/306 299/1/410 280/1/235
f 177/1/292 340/1/399 330/1/191 184/1/293
f 266/1/306 293/1/409 300/1/411
f 90/1/205 122/1/377 95/1/254 89/1/148
f 76/1/317 77/1/339 68/1/220 75/1/228
f 227/1/357 441/1/368 240/1/412 233/1/413
f 160/1/108 175/1/145 168/1/273 161/1/263
f 297/1/402 304/1/343 292/1/408
f 304/1/343 185/1/294 292/1/408
f 177/1/292 178/1/291 137/1/247 171/1/246
f 280/1/235 299/1/410 305/1/286
f 322/1/396 323/1/414 316/1/415 315/1/397
f 74/1/227 112/1/230 84/1/229 75/1/228
f 192/1/179 217/1/324 199/1/323 156/1/416
f 139/1/85 140/1/102 131/1/105 130/1/142
f 292/1/408 185/1/294 309/1/417
f 286/1/86 139/1/85 130/1/142 129/1/141
f 300/1/411 306/1/418 299/1/410 266/1/306
f 185/1/294 315/1/397 316/1/415
f 185/1/294 316/1/415 309/1/417
f 203/1/326 365/1/419 364/1/420 356/1/421
f 143/1/282 186/1/295 149/1/325 144/1/283
f 322/1/396 329/1/193 328/1/296 323/1/414
f 212/1/214 213/1/272 196/1/290 208/1/213
f 126/1/81 152/1/117 109/1/116 119/1/82
f 109/1/116 145/1/119 93/1/319 101/1/318
f 398/1/299 430/1/302 411/1/111 409/1/99
f 93/1/319 138/1/259 86/1/203 85/1/320
f 371/1/422 390/1/423 389/1/390 368/1/389
f 65/1/180 106/1/241 74/1/227 67/1/211
f 330/1/191 329/1/193 322/1/396 184/1/293
f 141/1/114 308/1/94 154/1/97 147/1/115
f 426/1/162 431/1/165 419/1/424 418/1/277
f 306/1/418 324/1/425 327/1/426 299/1/410
f 327/1/426 338/1/287 305/1/286 299/1/410
f 386/1/427 381/1/371 439/1/428 434/1/429
f 414/1/257 415/1/187 408/1/253 407/1/252
f 318/1/430 326/1/431 325/1/432 324/1/425
f 325/1/432 342/1/433 327/1/426 324/1/425
f 346/1/395 347/1/434 339/1/130 345/1/129
f 331/1/435 335/1/436 325/1/432 326/1/431
f 128/1/401 136/1/285 120/1/284 122/1/377
f 84/1/229 119/1/82 109/1/116 101/1/318
f 358/1/372 386/1/427 366/1/362 341/1/364
f 58/1/61 59/1/212 52/1/217 57/1/62
f 239/1/262 246/1/304 242/1/242 235/1/244
f 342/1/433 341/1/364 344/1/363
f 396/1/437 399/1/438 397/1/439 391/1/440
f 327/1/426 342/1/433 344/1/363 338/1/287
f 344/1/363 373/1/276 317/1/275 338/1/287
f 362/1/391 363/1/441 355/1/442 361/1/392
f 341/1/364 342/1/433 325/1/432 335/1/436
f 336/1/373 358/1/372 341/1/364 335/1/436
f 348/1/398 354/1/393 349/1/192
f 343/1/443 351/1/444 336/1/373 337/1/445
f 216/1/288 228/1/355 210/1/340 215/1/342
f 432/1/164 433/1/446 427/1/447 431/1/165
f 293/1/409 311/1/448 306/1/418 300/1/411
f 351/1/444 357/1/370 336/1/373
f 360/1/394 371/1/422 368/1/389 346/1/395
f 36/1/50 37/1/48 32/1/24 35/1/47
f 318/1/430 324/1/425 306/1/418 311/1/448
f 170/1/386 340/1/399 177/1/292 171/1/246
f 386/1/427 434/1/429 385/1/449 366/1/362
f 203/1/326 198/1/450 365/1/419
f 356/1/421 364/1/420 360/1/394 354/1/393
f 348/1/398 350/1/385 356/1/421 354/1/393
f 346/1/395 368/1/389 361/1/392
f 190/1/344 191/1/369 149/1/325 186/1/295
f 352/1/451 375/1/452 357/1/370 351/1/444
f 359/1/453 367/1/454 352/1/451 353/1/455
f 378/1/207 396/1/437 391/1/440 395/1/208
f 366/1/362 385/1/449 379/1/266 373/1/276
f 364/1/420 371/1/422 360/1/394
f 367/1/454 374/1/456 352/1/451
f 352/1/451 374/1/456 375/1/452
f 270/1/152 284/1/155 277/1/78 271/1/146
f 456/1/457 457/1/315 439/1/428 449/1/458
f 163/1/236 203/1/326 356/1/421 350/1/385
f 394/1/43 332/1/222 296/1/221 388/1/44
f 362/1/391 376/1/459 369/1/460 363/1/441
f 376/1/459 362/1/391 382/1/461
f 466/1/90 472/1/93 456/1/457 459/1/361
f 84/1/229 101/1/318 76/1/317 75/1/228
f 474/1/462 489/1/381 483/1/380 476/1/463
f 358/1/372 381/1/371 386/1/427
f 156/1/416 198/1/450 157/1/265 151/1/118
f 158/1/238 164/1/237 142/1/245 153/1/464
f 382/1/461 362/1/391 389/1/390
f 375/1/452 444/1/465 381/1/371 357/1/370
f 305/1/286 310/1/233 275/1/232 280/1/235
f 382/1/461 389/1/390 390/1/423
f 382/1/461 390/1/423 391/1/440
f 97/1/88 102/1/89 96/1/173 91/1/156
f 485/1/466 495/1/337 479/1/358 478/1/91
f 146/1/387 153/1/464 134/1/260 138/1/259
f 197/1/365 176/1/144 169/1/107 191/1/369
f 146/1/387 157/1/265 158/1/238 153/1/464
f 390/1/423 395/1/208 391/1/440
f 450/1/467 459/1/361 456/1/457 449/1/458
f 458/1/354 464/1/353 459/1/361 450/1/467
f 133/1/104 302/1/127 141/1/114 132/1/67
f 467/1/307 475/1/468 474/1/462 468/1/308
f 485/1/466 501/1/469 499/1/334 495/1/337
f 190/1/344 304/1/343 297/1/402 298/1/378
f 289/1/154 321/1/125 285/1/124 284/1/155
f 492/1/366 501/1/469 485/1/466 486/1/360
f 439/1/428 457/1/315 422/1/256 434/1/429
f 465/1/351 497/1/470 496/1/471 493/1/352
f 68/1/220 77/1/339 69/1/226 60/1/219
f 151/1/118 157/1/265 146/1/387 145/1/119
f 503/1/472 506/1/473 501/1/469 492/1/366
f 506/1/473 505/1/474 499/1/334 501/1/469
f 502/1/475 510/1/476 506/1/473 503/1/472
f 405/1/477 412/1/278 406/1/478
f 405/1/477 410/1/112 412/1/278
f 152/1/117 192/1/179 156/1/416 151/1/118
f 394/1/43 413/1/42 407/1/252 401/1/137
f 161/1/263 115/1/197 155/1/109 160/1/108
f 180/1/80 204/1/331 187/1/178 126/1/81
f 174/1/279 181/1/281 165/1/269 167/1/280
f 412/1/278 418/1/277 419/1/424
f 412/1/278 419/1/424 420/1/479
f 379/1/266 385/1/449 421/1/267
f 157/1/265 198/1/450 203/1/326 162/1/239
f 387/1/41 421/1/267 413/1/42
f 124/1/73 130/1/142 131/1/105 125/1/66
f 396/1/437 378/1/207 377/1/322 383/1/480
f 216/1/288 221/1/270 234/1/316 228/1/355
f 211/1/481 217/1/324 192/1/179 187/1/178
f 511/1/482 514/1/483 513/1/484 510/1/476
f 313/1/138 408/1/253 319/1/184 312/1/190
f 420/1/479 419/1/424 427/1/447
f 255/1/485 393/1/486 230/1/374 248/1/346
f 205/1/341 233/1/413 206/1/329 200/1/332
f 427/1/447 419/1/424 431/1/165
f 513/1/484 514/1/483 508/1/487 507/1/488
f 508/1/487 514/1/483 515/1/489 509/1/490
f 385/1/449 434/1/429 422/1/256
f 223/1/347 224/1/375 211/1/481 218/1/330
f 451/1/491 482/1/492 460/1/493 452/1/494
f 508/1/487 509/1/490 490/1/382 507/1/488
f 370/1/209 371/1/422 364/1/420 365/1/419
f 198/1/450 372/1/210 370/1/209 365/1/419
f 425/1/186 480/1/258 435/1/349 428/1/327
f 1/1/5 546/1/5 545/1/495 520/1/496
f 513/1/484 507/1/488 504/1/497 505/1/474
f 504/1/497 507/1/488 490/1/382 500/1/498
f 499/1/334 505/1/474 504/1/497 498/1/335
f 375/1/452 374/1/456 444/1/465
f 370/1/209 395/1/208 390/1/423 371/1/422
f 240/1/412 448/1/499 247/1/345 241/1/348
f 453/1/500 462/1/501 461/1/502 454/1/503
f 206/1/329 241/1/348 223/1/347 218/1/330
f 447/1/504 448/1/499 240/1/412 441/1/368
f 444/1/465 450/1/467 449/1/458
f 444/1/465 374/1/456 450/1/467
f 134/1/260 153/1/464 142/1/245 135/1/248
f 447/1/504 452/1/494 453/1/500 448/1/499
f 440/1/367 446/1/505 447/1/504 441/1/368
f 445/1/376 487/1/384 451/1/491 446/1/505
f 289/1/154 332/1/222 320/1/136 321/1/125
f 496/1/471 503/1/472 492/1/366 493/1/352
f 199/1/323 377/1/322 378/1/207 372/1/210
f 235/1/244 243/1/196 236/1/157 231/1/199
f 460/1/493 462/1/501 453/1/500 452/1/494
f 453/1/500 454/1/503 247/1/345 448/1/499
f 494/1/336 498/1/335 488/1/506 487/1/384
f 451/1/491 487/1/384 488/1/506 482/1/492
f 504/1/497 500/1/498 488/1/506 498/1/335
f 399/1/438 403/1/507 400/1/508 397/1/439
f 383/1/480 402/1/101 399/1/438 396/1/437
f 456/1/457 472/1/93 423/1/314 457/1/315
f 488/1/506 500/1/498 481/1/509 482/1/492
f 460/1/493 482/1/492 481/1/509 475/1/468
f 481/1/509 500/1/498 490/1/382 489/1/381
f 346/1/395 361/1/392 355/1/442 347/1/434
f 211/1/481 224/1/375 222/1/321 217/1/324
f 354/1/393 345/1/129 333/1/128 349/1/192
f 222/1/321 384/1/510 383/1/480 377/1/322
f 481/1/509 489/1/381 474/1/462 475/1/468
f 432/1/164 438/1/163 437/1/309 433/1/446
f 469/1/511 476/1/463 477/1/512
f 469/1/511 477/1/512 470/1/513
f 230/1/374 384/1/510 222/1/321 224/1/375
f 461/1/502 455/1/300 255/1/485 454/1/503
f 247/1/345 454/1/503 255/1/485 248/1/346
f 230/1/374 393/1/486 392/1/98 384/1/510
f 474/1/462 476/1/463 469/1/511 468/1/308
f 476/1/463 483/1/380 477/1/512
f 477/1/512 483/1/380 484/1/383
f 479/1/358 480/1/258 473/1/92 478/1/91
f 392/1/98 402/1/101 383/1/480 384/1/510
f 460/1/493 475/1/468 467/1/307 462/1/501
f 445/1/376 446/1/505 440/1/367 442/1/350
f 469/1/511 470/1/513 437/1/309 468/1/308
f 282/1/76 281/1/75 140/1/102 139/1/85
f 399/1/438 402/1/101 404/1/100 403/1/507
f 506/1/473 510/1/476 513/1/484 505/1/474
f 461/1/502 462/1/501 467/1/307 463/1/310
f 240/1/412 241/1/348 206/1/329 233/1/413
f 227/1/357 233/1/413 205/1/341 210/1/340
f 404/1/100 410/1/112 405/1/477 403/1/507
f 385/1/449 422/1/256 413/1/42 421/1/267
f 255/1/485 455/1/300 398/1/299 393/1/486
f 398/1/299 409/1/99 392/1/98 393/1/486
f 496/1/471 497/1/470 502/1/475
f 496/1/471 502/1/475 503/1/472
f 429/1/328 436/1/356 228/1/355 234/1/316
f 172/1/169 193/1/298 179/1/333 173/1/170
f 331/1/435 337/1/445 336/1/373 335/1/436
f 285/1/124 294/1/103 140/1/102 281/1/75
f 199/1/323 372/1/210 198/1/450 156/1/416
f 466/1/90 486/1/360 485/1/466 478/1/91
f 405/1/477 406/1/478 400/1/508 403/1/507
f 502/1/475 511/1/482 510/1/476
f 502/1/475 512/1/514 511/1/482
f 204/1/331 218/1/330 211/1/481 187/1/178
f 411/1/111 430/1/302 426/1/162 418/1/277
f 19/1/223 17/1/22 10/1/15 16/1/21
f 343/1/443 353/1/455 352/1/451 351/1/444
f 511/1/482 515/1/489 514/1/483
f 444/1/465 449/1/458 439/1/428 381/1/371
f 511/1/482 512/1/514 515/1/489
f 516/1/515 517/1/516 518/1/517
f 517/1/516 519/1/518 518/1/517
f 517/1/516 520/1/496 519/1/518
f 517/1/516 521/1/519 520/1/496
f 518/1/517 519/1/518 522/1/520
f 519/1/518 520/1/496 522/1/520
f 518/1/517 522/1/520 523/1/521
f 518/1/517 523/1/521 524/1/522
f 521/1/519 525/1/523 520/1/496
f 522/1/520 526/1/524 523/1/521
f 522/1/520 527/1/525 526/1/524
f 522/1/520 520/1/496 527/1/525
f 525/1/523 528/1/526 520/1/496
f 527/1/525 520/1/496 529/1/527
f 526/1/524 527/1/525 529/1/527
f 529/1/527 520/1/496 530/1/528
f 526/1/524 529/1/527 530/1/528
f 526/1/524 531/1/529 532/1/530
f 526/1/524 533/1/531 531/1/529
f 530/1/528 520/1/496 533/1/531
f 526/1/524 530/1/528 533/1/531
f 526/1/524 534/1/532 523/1/521
f 528/1/526 535/1/495 520/1/496
f 461/1/502 463/1/310 443/1/301 455/1/300
f 533/1/531 520/1/496 536/1/533
f 533/1/531 536/1/533 537/1/534
f 533/1/531 537/1/534 531/1/529
f 538/1/5 2/1/5 1/1/5
f 536/1/533 520/1/496 539/1/535
f 536/1/533 539/1/535 537/1/534
f 537/1/534 540/1/536 531/1/529
f 537/1/534 539/1/535 541/1/537
f 539/1/535 520/1/496 542/1/538
f 542/1/538 520/1/496 543/1/539
f 543/1/539 520/1/496 544/1/540
f 535/1/495 538/1/5 1/1/5 520/1/496
f 544/1/540 520/1/496 545/1/495
f 1/1/5 5/1/5 546/1/5
f 451/1/491 452/1/494 447/1/504 446/1/505
