# Blender 4.3.2
# www.blender.org
o hair.121
v 6.559803 0.473531 0.015268
v 6.562672 0.476611 0.013592
v 6.559590 0.476860 0.018996
v 6.565291 0.479424 0.012062
v 6.569637 0.484090 0.009523
v 6.573310 0.488034 0.007377
v 6.585659 0.501292 0.000163
v 6.559324 0.480794 0.022054
v 6.559815 0.485122 0.024204
v 6.560504 0.489736 0.025935
v 6.611993 0.480794 0.022054
v 6.611502 0.485122 0.024204
v 6.609673 0.494720 0.027355
v 6.607322 0.500354 0.028326
v 6.603933 0.506545 0.028557
v 6.602608 0.504416 0.029852
v 6.610813 0.489736 0.025935
v 6.611727 0.476860 0.018996
v 6.598007 0.488034 0.007377
v 6.555873 0.487100 0.021541
v 6.556345 0.492689 0.021495
v 6.583186 0.497209 0.005761
v 6.585659 0.480224 0.010860
v 6.615520 0.490775 0.011094
v 6.601210 0.502268 0.031065
v 6.601680 0.484090 0.009523
v 6.608645 0.476611 0.013592
v 6.611515 0.473531 0.015268
v 6.606026 0.479424 0.012062
v 6.557292 0.498176 0.021193
v 6.599591 0.500384 0.032350
v 6.580713 0.493126 0.011358
v 6.558967 0.503574 0.020732
v 6.561622 0.508859 0.019483
v 6.555797 0.490775 0.011094
v 6.597465 0.498206 0.033486
v 6.558540 0.486393 0.024163
v 6.614897 0.485775 0.011967
v 6.556420 0.485775 0.011967
v 6.594485 0.496056 0.034482
v 6.560693 0.486122 0.026143
v 6.613845 0.480814 0.013007
v 6.557472 0.480814 0.013007
v 6.591083 0.493770 0.035108
v 6.563447 0.486040 0.028028
v 6.612680 0.477172 0.014138
v 6.558637 0.477172 0.014138
v 6.587599 0.491832 0.035465
v 6.567449 0.486433 0.030304
v 6.583988 0.490208 0.035400
v 6.571922 0.486920 0.032467
v 6.580293 0.488872 0.034905
v 6.576566 0.487832 0.033995
v 6.615722 0.485973 0.011113
v 6.615841 0.481182 0.011058
v 6.615885 0.476394 0.011123
v 6.615747 0.471635 0.011227
v 6.615211 0.466958 0.011109
v 6.614582 0.462317 0.011053
v 6.555433 0.476394 0.011122
v 6.555570 0.471635 0.011227
v 6.554325 0.469465 0.001624
v 6.556973 0.464241 0.000022
v 6.611594 0.458853 -0.001712
v 6.614344 0.464241 0.000022
v 6.570993 0.455083 -0.010810
v 6.577471 0.453400 -0.013691
v 6.556106 0.466958 0.011109
v 6.555595 0.485973 0.011113
v 6.593846 0.453400 -0.013691
v 6.555476 0.481182 0.011058
v 6.556736 0.462317 0.011053
v 6.563305 0.453641 -0.004089
v 6.567323 0.448623 -0.006854
v 6.559723 0.458853 -0.001712
v 6.616992 0.469465 0.001624
v 6.608012 0.453641 -0.004089
v 6.603994 0.448623 -0.006854
v 6.585659 0.445463 -0.021990
v 6.589652 0.450894 -0.024374
v 6.593566 0.456369 -0.026778
v 6.581665 0.450894 -0.024374
v 6.577751 0.456369 -0.026778
v 6.574328 0.447570 -0.017860
v 6.569910 0.452232 -0.017097
v 6.565422 0.456807 -0.016472
v 6.600324 0.455083 -0.010810
v 6.596989 0.447570 -0.017860
v 6.601408 0.452232 -0.017097
v 6.605895 0.456807 -0.016472
v 6.615776 0.465828 0.006270
v 6.555541 0.465828 0.006270
v 6.604836 0.452774 -0.011649
v 6.595163 0.451879 -0.022359
v 6.566481 0.452774 -0.011649
v 6.576154 0.451879 -0.022359
v 6.607322 0.500354 0.028326
v 6.608096 0.506118 0.024363
v 6.603933 0.506545 0.028557
v 6.610569 0.500487 0.024021
v 6.609673 0.494720 0.027355
v 6.611343 0.505265 0.019850
v 6.609699 0.508857 0.019465
v 6.606510 0.510785 0.022080
v 6.602467 0.512619 0.024129
v 6.603699 0.509570 0.026650
v 6.599211 0.511136 0.029124
v 6.599575 0.508277 0.031315
v 6.599594 0.505469 0.032561
v 6.602608 0.504416 0.029852
v 6.612162 0.495097 0.023476
v 6.610813 0.489736 0.025935
v 6.604278 0.513643 0.020056
v 6.595138 0.508886 0.033560
v 6.598377 0.513635 0.026561
v 6.594180 0.514005 0.028852
v 6.594797 0.511698 0.031543
v 6.595313 0.506056 0.034948
v 6.599713 0.502882 0.033328
v 6.601210 0.502268 0.031065
v 6.613237 0.490235 0.022566
v 6.613673 0.485476 0.021317
v 6.611502 0.485122 0.024204
v 6.597244 0.515421 0.023971
v 6.590352 0.511748 0.033369
v 6.591259 0.505937 0.036825
v 6.596060 0.503036 0.035968
v 6.599591 0.500384 0.032350
v 6.596896 0.500025 0.035323
v 6.614979 0.490528 0.019083
v 6.611993 0.480794 0.022054
v 6.600937 0.514838 0.021965
v 6.592346 0.502734 0.037718
v 6.590684 0.508825 0.035259
v 6.597465 0.498206 0.033486
v 6.593571 0.499219 0.037020
v 6.614070 0.495500 0.019465
v 6.613710 0.481317 0.019917
v 6.612849 0.477593 0.017873
v 6.611727 0.476860 0.018996
v 6.599105 0.516107 0.019561
v 6.588361 0.501718 0.039034
v 6.594485 0.496056 0.034482
v 6.612813 0.500975 0.019840
v 6.614850 0.481354 0.017466
v 6.615203 0.485631 0.018386
v 6.611515 0.473531 0.015268
v 6.586250 0.508352 0.036492
v 6.587020 0.505302 0.038115
v 6.591083 0.493770 0.035108
v 6.610070 0.507944 0.014603
v 6.612037 0.504538 0.014827
v 6.615532 0.485732 0.015181
v 6.613454 0.477772 0.016542
v 6.613344 0.477603 0.015160
v 6.612680 0.477172 0.014138
v 6.582818 0.504257 0.038794
v 6.613845 0.480814 0.013007
v 6.614927 0.481385 0.015101
v 6.589983 0.514079 0.030582
v 6.585732 0.513843 0.031678
v 6.585891 0.511391 0.034581
v 6.581902 0.507521 0.037091
v 6.581457 0.510725 0.035123
v 6.614897 0.485775 0.011967
v 6.593410 0.515747 0.025880
v 6.589581 0.516011 0.027306
v 6.577663 0.506419 0.036993
v 6.581419 0.513401 0.032149
v 6.577162 0.512717 0.031899
v 6.577112 0.509816 0.034960
v 6.615527 0.490761 0.015190
v 6.615520 0.490775 0.011094
v 6.592568 0.517027 0.022759
v 6.595926 0.516644 0.021282
v 6.581666 0.515614 0.028346
v 6.572952 0.508682 0.034006
v 6.614653 0.495882 0.015064
v 6.614551 0.496020 0.010437
v 6.594492 0.517454 0.018570
v 6.585662 0.515925 0.028118
v 6.613175 0.501168 0.014902
v 6.612744 0.501292 0.009999
v 6.591709 0.517831 0.019864
v 6.597250 0.516957 0.016770
v 6.592876 0.518140 0.015013
v 6.589149 0.517353 0.023781
v 6.585640 0.517311 0.024266
v 6.588737 0.518052 0.020499
v 6.590639 0.518406 0.016014
v 6.588204 0.518629 0.016626
v 6.599631 0.516232 0.015005
v 6.601892 0.515208 0.017769
v 6.582097 0.517168 0.024293
v 6.578640 0.516832 0.023794
v 6.577750 0.515106 0.027949
v 6.585670 0.518127 0.020671
v 6.585663 0.518718 0.016824
v 6.587674 0.518995 0.012711
v 6.604541 0.513449 0.014954
v 6.607575 0.511433 0.017185
v 6.582572 0.518040 0.020561
v 6.574067 0.514334 0.026828
v 6.573157 0.511684 0.030773
v 6.608058 0.510247 0.013597
v 6.579604 0.517805 0.019988
v 6.583113 0.518625 0.016635
v 6.569599 0.510553 0.029045
v 6.569161 0.507448 0.032477
v 6.569530 0.503956 0.035201
v 6.573490 0.505247 0.036362
v 6.609993 0.506808 0.010219
v 6.575393 0.516342 0.022734
v 6.576853 0.517457 0.018947
v 6.574633 0.501504 0.038062
v 6.570762 0.500018 0.036913
v 6.565360 0.502216 0.032973
v 6.578684 0.502919 0.038718
v 6.611579 0.503833 0.010050
v 6.572404 0.515770 0.021221
v 6.570710 0.513524 0.025193
v 6.580211 0.498823 0.039753
v 6.584301 0.500358 0.039768
v 6.612746 0.503565 0.005235
v 6.615891 0.496075 0.005806
v 6.614356 0.500429 0.005385
v 6.566258 0.509775 0.026753
v 6.567585 0.512634 0.023172
v 6.586036 0.495924 0.038624
v 6.589831 0.497637 0.037977
v 6.615537 0.500020 0.000634
v 6.613836 0.503213 0.000428
v 6.569758 0.515062 0.019351
v 6.565231 0.512056 0.020468
v 6.563734 0.509399 0.023621
v 6.565355 0.506158 0.030005
v 6.613126 0.502090 -0.004135
v 6.611976 0.505770 0.000306
v 6.572063 0.516473 0.015805
v 6.567883 0.514320 0.017482
v 6.562348 0.505204 0.027057
v 6.566631 0.498040 0.034426
v 6.561820 0.500485 0.030360
v 6.587599 0.491832 0.035465
v 6.611096 0.506199 0.005254
v 6.559909 0.504420 0.023634
v 6.558813 0.498467 0.027498
v 6.572231 0.495698 0.037899
v 6.567999 0.493949 0.035303
v 6.582110 0.494330 0.038488
v 6.583988 0.490208 0.035400
v 6.609124 0.508448 0.005032
v 6.608190 0.509001 0.009782
v 6.576171 0.497264 0.039119
v 6.578205 0.492829 0.037884
v 6.580293 0.488872 0.034905
v 6.611350 0.504779 -0.004198
v 6.609422 0.507281 -0.004257
v 6.609932 0.508153 0.000111
v 6.606021 0.511186 0.008809
v 6.605373 0.512368 0.012118
v 6.574358 0.491460 0.036797
v 6.576566 0.487832 0.033995
v 6.610158 0.503793 -0.008025
v 6.607512 0.510221 -0.000126
v 6.602654 0.513907 0.010176
v 6.601681 0.514933 0.012449
v 6.571922 0.486920 0.032467
v 6.569781 0.489963 0.034772
v 6.606888 0.510589 0.004452
v 6.603506 0.512888 0.007319
v 6.599656 0.515324 0.007847
v 6.598752 0.516094 0.009656
v 6.597197 0.516980 0.011758
v 6.564054 0.492271 0.032676
v 6.565525 0.488747 0.032293
v 6.567449 0.486433 0.030304
v 6.604364 0.512290 0.003468
v 6.600612 0.514526 0.005172
v 6.596807 0.516589 0.005539
v 6.594817 0.517712 0.008745
v 6.595249 0.517667 0.013481
v 6.562843 0.496109 0.031818
v 6.562159 0.488071 0.029472
v 6.563447 0.486040 0.028028
v 6.604929 0.512008 -0.000515
v 6.601456 0.514099 0.002129
v 6.593258 0.518208 0.010182
v 6.591350 0.518566 0.011380
v 6.559821 0.494411 0.029116
v 6.560693 0.486122 0.026143
v 6.604719 0.511437 -0.004047
v 6.601855 0.513740 -0.000972
v 6.598338 0.515672 0.001003
v 6.589595 0.518802 0.012208
v 6.560902 0.490945 0.029830
v 6.559711 0.487600 0.027110
v 6.558540 0.486393 0.024163
v 6.607180 0.509506 -0.004156
v 6.597686 0.516055 0.003345
v 6.558719 0.489953 0.027196
v 6.557705 0.487270 0.024667
v 6.555873 0.487100 0.021541
v 6.606318 0.508743 -0.007434
v 6.608348 0.506387 -0.007839
v 6.594993 0.516935 0.000070
v 6.594560 0.517211 0.001740
v 6.557860 0.493297 0.026526
v 6.557037 0.488964 0.024576
v 6.556514 0.492820 0.023546
v 6.556345 0.492689 0.021495
v 6.607285 0.505863 -0.010674
v 6.601718 0.513346 -0.003829
v 6.604052 0.510841 -0.006987
v 6.557477 0.498078 0.024374
v 6.557292 0.498176 0.021193
v 6.601242 0.512949 -0.006323
v 6.598481 0.515060 -0.003560
v 6.598598 0.515360 -0.001332
v 6.603229 0.510434 -0.009331
v 6.605367 0.508262 -0.010052
v 6.558967 0.503574 0.020732
v 6.561622 0.508859 0.019483
v 6.598115 0.514770 -0.005549
v 6.594779 0.516254 -0.004671
v 6.595051 0.516466 -0.003209
v 6.595146 0.516699 -0.001587
v 6.604261 0.507895 -0.012255
v 6.594396 0.516094 -0.005850
v 6.597592 0.514542 -0.007171
v 6.591259 0.517518 -0.002690
v 6.591201 0.517818 -0.000769
v 6.591366 0.517658 -0.001759
v 6.563742 0.511433 0.017185
v 6.593921 0.515953 -0.006847
v 6.590904 0.517283 -0.004277
v 6.600574 0.512637 -0.008341
v 6.585659 0.518400 -0.001918
v 6.591035 0.517979 0.000222
v 6.570647 0.515796 0.014242
v 6.566656 0.513383 0.014923
v 6.563259 0.510247 0.013597
v 6.591152 0.517377 -0.003621
v 6.602247 0.510109 -0.011303
v 6.599751 0.512355 -0.010045
v 6.590637 0.518150 0.001058
v 6.601157 0.509843 -0.013167
v 6.606065 0.505465 -0.013050
v 6.604726 0.505126 -0.015340
v 6.603051 0.507602 -0.014355
v 6.596942 0.514331 -0.008544
v 6.593883 0.517580 0.003381
v 6.590657 0.517188 -0.004933
v 6.609068 0.503228 -0.011111
v 6.607800 0.502795 -0.013717
v 6.601714 0.507366 -0.016371
v 6.593369 0.515817 -0.007767
v 6.596189 0.514135 -0.009798
v 6.590298 0.517111 -0.005461
v 6.595990 0.517107 0.007007
v 6.610921 0.500375 -0.011473
v 6.611921 0.501003 -0.008128
v 6.592749 0.515680 -0.008629
v 6.598809 0.512106 -0.011612
v 6.595338 0.513940 -0.010975
v 6.589938 0.517035 -0.005988
v 6.593246 0.517882 0.004482
v 6.613649 0.497726 -0.008067
v 6.614813 0.498859 -0.003957
v 6.599951 0.509627 -0.014948
v 6.597761 0.511889 -0.013097
v 6.589446 0.516962 -0.006468
v 6.592355 0.518240 0.005786
v 6.616488 0.494758 -0.003564
v 6.617120 0.495781 0.001070
v 6.598575 0.509424 -0.016634
v 6.596578 0.511687 -0.014500
v 6.589592 0.518476 0.002584
v 6.591217 0.518536 0.006851
v 6.589818 0.518813 0.007734
v 6.590239 0.518322 0.001894
v 6.618384 0.490911 0.001726
v 6.594379 0.513750 -0.012081
v 6.588946 0.518630 0.003274
v 6.588168 0.518751 0.003741
v 6.588542 0.518995 0.008341
v 6.595064 0.511491 -0.015845
v 6.593165 0.513575 -0.013143
v 6.591154 0.515413 -0.010216
v 6.592045 0.515542 -0.009440
v 6.587389 0.518872 0.004207
v 6.587136 0.519135 0.008714
v 6.586525 0.518925 0.004358
v 6.589978 0.515299 -0.010969
v 6.591559 0.513425 -0.014176
v 6.596795 0.509210 -0.018240
v 6.588953 0.516888 -0.006947
v 6.585662 0.519194 0.008841
v 6.585660 0.518978 0.004509
v 6.585662 0.519079 0.012884
v 6.588609 0.515213 -0.011592
v 6.588191 0.516829 -0.007355
v 6.598118 0.506876 -0.020061
v 6.594416 0.508992 -0.019777
v 6.593054 0.511307 -0.017143
v 6.584797 0.518926 0.004360
v 6.583644 0.518995 0.012711
v 6.587429 0.516771 -0.007762
v 6.595457 0.506632 -0.021770
v 6.591648 0.508828 -0.021058
v 6.592370 0.506449 -0.023193
v 6.590715 0.511169 -0.018224
v 6.589691 0.513314 -0.015035
v 6.580683 0.518408 0.016049
v 6.586544 0.516749 -0.007916
v 6.596429 0.504009 -0.023504
v 6.588698 0.508738 -0.021864
v 6.588223 0.511093 -0.018900
v 6.587704 0.513250 -0.015571
v 6.587155 0.515163 -0.011981
v 6.578473 0.518149 0.015082
v 6.585659 0.515147 -0.012113
v 6.585659 0.516727 -0.008070
v 6.585659 0.508712 -0.022143
v 6.585659 0.511069 -0.019133
v 6.585659 0.513231 -0.015755
v 6.574323 0.517070 0.017534
v 6.576467 0.517818 0.013818
v 6.580006 0.518578 0.011408
v 6.584773 0.516749 -0.007916
v 6.583094 0.511093 -0.018900
v 6.583613 0.513250 -0.015571
v 6.578447 0.518302 0.010377
v 6.577049 0.517881 0.009201
v 6.574674 0.517248 0.012355
v 6.581730 0.518804 0.012211
v 6.582619 0.508738 -0.021864
v 6.580602 0.511169 -0.018224
v 6.584162 0.515163 -0.011981
v 6.581626 0.513314 -0.015035
v 6.573503 0.516728 0.011051
v 6.576115 0.517518 0.008148
v 6.584182 0.519135 0.008714
v 6.582783 0.518996 0.008343
v 6.585659 0.506317 -0.024412
v 6.582708 0.515213 -0.011592
v 6.579758 0.513425 -0.014176
v 6.569517 0.514881 0.012385
v 6.589067 0.506347 -0.024097
v 6.583888 0.516771 -0.007762
v 6.579669 0.508828 -0.021058
v 6.578263 0.511307 -0.017143
v 6.568664 0.513907 0.010176
v 6.565944 0.512368 0.012118
v 6.583933 0.518874 0.004211
v 6.589406 0.503692 -0.026090
v 6.583126 0.516829 -0.007355
v 6.576901 0.508992 -0.019777
v 6.576253 0.511491 -0.015845
v 6.565296 0.511186 0.008809
v 6.583215 0.518774 0.003808
v 6.581527 0.518820 0.007751
v 6.581339 0.515299 -0.010969
v 6.580163 0.515413 -0.010216
v 6.582364 0.516888 -0.006947
v 6.578152 0.513575 -0.013143
v 6.582497 0.518675 0.003405
v 6.580396 0.518600 0.006989
v 6.581872 0.516962 -0.006468
v 6.579272 0.515542 -0.009440
v 6.576938 0.513750 -0.012081
v 6.581972 0.518557 0.002908
v 6.579370 0.518343 0.006123
v 6.578568 0.515680 -0.008629
v 6.581379 0.517035 -0.005988
v 6.574739 0.511687 -0.014500
v 6.575979 0.513940 -0.010975
v 6.574522 0.509210 -0.018240
v 6.581448 0.518439 0.002410
v 6.578677 0.518125 0.005337
v 6.581019 0.517111 -0.005461
v 6.577948 0.515817 -0.007767
v 6.575129 0.514135 -0.009798
v 6.572742 0.509424 -0.016634
v 6.573556 0.511889 -0.013097
v 6.572508 0.512106 -0.011612
v 6.573199 0.506876 -0.020061
v 6.581047 0.518314 0.001854
v 6.577396 0.515953 -0.006847
v 6.580660 0.517188 -0.004933
v 6.574375 0.514331 -0.008544
v 6.571567 0.512355 -0.010045
v 6.571366 0.509627 -0.014948
v 6.570160 0.509843 -0.013167
v 6.580680 0.518150 0.001058
v 6.578038 0.517869 0.004434
v 6.575278 0.517086 0.006941
v 6.572487 0.516062 0.009577
v 6.580413 0.517283 -0.004277
v 6.573725 0.514542 -0.007171
v 6.569603 0.507366 -0.016371
v 6.577435 0.517580 0.003381
v 6.574511 0.516589 0.005539
v 6.576921 0.516094 -0.005850
v 6.576538 0.516254 -0.004671
v 6.580165 0.517377 -0.003621
v 6.571126 0.507146 -0.018283
v 6.576757 0.517211 0.001740
v 6.573202 0.514770 -0.005549
v 6.580058 0.517518 -0.002690
v 6.569726 0.504575 -0.019629
v 6.580282 0.517979 0.000222
v 6.571661 0.515324 0.007847
v 6.567811 0.512888 0.007319
v 6.570743 0.512637 -0.008341
v 6.570076 0.512949 -0.006323
v 6.580116 0.517818 -0.000769
v 6.570705 0.514526 0.005172
v 6.573631 0.516055 0.003345
v 6.566953 0.512290 0.003468
v 6.569070 0.510109 -0.011303
v 6.568089 0.510434 -0.009331
v 6.576324 0.516935 0.000070
v 6.576171 0.516699 -0.001587
v 6.579951 0.517658 -0.001759
v 6.569861 0.514099 0.002129
v 6.572979 0.515672 0.001003
v 6.567056 0.507895 -0.012255
v 6.568266 0.507602 -0.014355
v 6.576266 0.516466 -0.003209
v 6.572719 0.515360 -0.001332
v 6.566388 0.512008 -0.000515
v 6.569462 0.513740 -0.000972
v 6.568068 0.504831 -0.017532
v 6.566591 0.505126 -0.015340
v 6.572836 0.515060 -0.003560
v 6.566598 0.511437 -0.004047
v 6.563805 0.510221 -0.000126
v 6.564429 0.510589 0.004452
v 6.569599 0.513346 -0.003829
v 6.566591 0.502021 -0.018549
v 6.564137 0.509506 -0.004156
v 6.567266 0.510841 -0.006987
v 6.564999 0.508743 -0.007434
v 6.562193 0.508448 0.005032
v 6.563128 0.509001 0.009782
v 6.561895 0.507281 -0.004257
v 6.562969 0.506387 -0.007839
v 6.564033 0.505863 -0.010674
v 6.565950 0.508262 -0.010052
v 6.561324 0.506808 0.010219
v 6.561247 0.507944 0.014603
v 6.561385 0.508153 0.000111
v 6.561159 0.503793 -0.008025
v 6.559280 0.504538 0.014827
v 6.559738 0.503833 0.010050
v 6.558571 0.503565 0.005235
v 6.560221 0.506199 0.005254
v 6.559974 0.505265 0.019850
v 6.562505 0.504225 0.023767
v 6.565252 0.505465 -0.013050
v 6.559341 0.505770 0.000306
v 6.558573 0.501292 0.009999
v 6.558504 0.500975 0.019840
v 6.560618 0.500484 0.023782
v 6.563995 0.500354 0.028326
v 6.563517 0.502795 -0.013717
v 6.562249 0.503228 -0.011111
v 6.565008 0.502359 -0.016161
v 6.559968 0.504779 -0.004198
v 6.559155 0.495097 0.023476
v 6.558142 0.501168 0.014902
v 6.557247 0.495500 0.019465
v 6.561644 0.494720 0.027355
v 6.560396 0.500375 -0.011473
v 6.558191 0.502090 -0.004135
v 6.559396 0.501003 -0.008128
v 6.563242 0.499307 -0.016965
v 6.556664 0.495882 0.015064
v 6.556338 0.490528 0.019083
v 6.560504 0.489736 0.025935
v 6.557668 0.497726 -0.008067
v 6.561657 0.499856 -0.014335
v 6.557481 0.503213 0.000428
v 6.555790 0.490761 0.015190
v 6.555797 0.490775 0.011094
v 6.556766 0.496020 0.010437
v 6.557777 0.485493 0.021236
v 6.559815 0.485122 0.024204
v 6.558084 0.490235 0.022564
v 6.559896 0.496471 -0.014752
v 6.556961 0.500429 0.005385
v 6.555785 0.485732 0.015181
v 6.556420 0.485775 0.011967
v 6.559324 0.480794 0.022054
v 6.558613 0.497046 -0.011634
v 6.555426 0.496075 0.005806
v 6.555780 0.500020 0.000634
v 6.557472 0.480814 0.013007
v 6.557537 0.481292 0.019957
v 6.558468 0.477593 0.017873
v 6.559590 0.476860 0.018996
v 6.556114 0.485631 0.018386
v 6.556390 0.481385 0.015101
v 6.557973 0.477603 0.015160
v 6.558637 0.477172 0.014138
v 6.556468 0.481354 0.017466
v 6.557863 0.477772 0.016542
v 6.559803 0.473531 0.015268
v 6.556504 0.498859 -0.003957
v 6.554305 0.491059 0.006334
v 6.553657 0.486022 0.006886
v 6.555595 0.485973 0.011113
v 6.556927 0.493100 -0.011549
v 6.555967 0.493700 -0.007769
v 6.554829 0.494758 -0.003564
v 6.554197 0.495781 0.001070
v 6.552933 0.490911 0.001726
v 6.555476 0.481182 0.011058
v 6.554574 0.489213 -0.007166
v 6.553465 0.490097 -0.002886
v 6.552234 0.485808 0.002597
v 6.552732 0.485187 -0.001848
v 6.553621 0.476111 0.008276
v 6.555433 0.476394 0.011122
v 6.553455 0.481019 0.007512
v 6.558285 0.492625 -0.014951
v 6.561579 0.495860 -0.017598
v 6.560107 0.492083 -0.018072
v 6.552089 0.480662 0.003728
v 6.555570 0.471635 0.011227
v 6.556852 0.488367 -0.014940
v 6.555487 0.488723 -0.011189
v 6.564889 0.498909 -0.019600
v 6.563282 0.495433 -0.020521
v 6.552484 0.475650 0.005169
v 6.552862 0.475148 0.001760
v 6.552556 0.480162 -0.000339
v 6.554586 0.484037 -0.010458
v 6.553856 0.484510 -0.006150
v 6.568378 0.501704 -0.020812
v 6.566936 0.498457 -0.022039
v 6.553383 0.471062 0.006808
v 6.553695 0.479637 -0.004527
v 6.554124 0.471716 0.009052
v 6.571970 0.504279 -0.021603
v 6.570689 0.501410 -0.023008
v 6.569453 0.498098 -0.024477
v 6.568324 0.494492 -0.025878
v 6.565609 0.494886 -0.023173
v 6.555361 0.467387 0.009925
v 6.556106 0.466958 0.011109
v 6.574888 0.504009 -0.023504
v 6.575860 0.506632 -0.021770
v 6.573894 0.501081 -0.025106
v 6.572916 0.497686 -0.026714
v 6.564542 0.491128 -0.024193
v 6.561944 0.491682 -0.021294
v 6.554806 0.467255 0.008510
v 6.556736 0.462317 0.011053
v 6.578947 0.506449 -0.023193
v 6.577630 0.500815 -0.026840
v 6.560807 0.487588 -0.021921
v 6.558815 0.487940 -0.018388
v 6.553557 0.470730 0.004140
v 6.554958 0.466774 0.007144
v 6.555541 0.465828 0.006270
v 6.557805 0.483328 -0.018465
v 6.555773 0.483681 -0.014639
v 6.553943 0.474625 -0.002105
v 6.554325 0.469465 0.001624
v 6.582251 0.506347 -0.024097
v 6.555166 0.478619 -0.013843
v 6.554215 0.479086 -0.009136
v 6.554278 0.473892 -0.007018
v 6.556782 0.463417 -0.004909
v 6.556973 0.464241 0.000022
v 6.555048 0.468606 -0.005234
v 6.581911 0.503692 -0.026090
v 6.578282 0.503802 -0.025084
v 6.585659 0.503662 -0.026445
v 6.554986 0.473205 -0.012395
v 6.555554 0.467720 -0.010888
v 6.559723 0.458853 -0.001712
v 6.581575 0.500714 -0.027977
v 6.585659 0.500719 -0.028421
v 6.593688 0.500815 -0.026840
v 6.589742 0.500714 -0.027977
v 6.593035 0.503802 -0.025084
v 6.557307 0.472875 -0.017300
v 6.559037 0.458683 -0.005347
v 6.562326 0.453783 -0.005997
v 6.563305 0.453641 -0.004089
v 6.590100 0.497279 -0.029817
v 6.557261 0.478294 -0.018144
v 6.557312 0.462588 -0.009919
v 6.559752 0.457861 -0.009194
v 6.562734 0.453747 -0.008313
v 6.567323 0.448623 -0.006854
v 6.597423 0.501081 -0.025106
v 6.600628 0.501410 -0.023008
v 6.599348 0.504279 -0.021603
v 6.559486 0.477979 -0.022361
v 6.559934 0.462292 -0.014560
v 6.561980 0.457770 -0.012892
v 6.564210 0.453335 -0.010456
v 6.566481 0.452774 -0.011649
v 6.598401 0.497686 -0.026714
v 6.601592 0.504575 -0.019629
v 6.600191 0.507146 -0.018283
v 6.594325 0.497297 -0.028417
v 6.565422 0.456807 -0.016472
v 6.602939 0.501704 -0.020812
v 6.604726 0.502021 -0.018549
v 6.603249 0.504831 -0.017532
v 6.594930 0.493582 -0.029857
v 6.585659 0.497353 -0.030429
v 6.585659 0.493666 -0.032166
v 6.590436 0.493578 -0.031430
v 6.604381 0.498457 -0.022039
v 6.601864 0.498098 -0.024477
v 6.581217 0.497279 -0.029817
v 6.590658 0.489808 -0.032417
v 6.606309 0.502359 -0.016161
v 6.602993 0.494492 -0.025878
v 6.599284 0.494015 -0.028182
v 6.608075 0.499307 -0.016965
v 6.606428 0.498909 -0.019600
v 6.609660 0.499856 -0.014335
v 6.599898 0.490254 -0.029294
v 6.595362 0.489865 -0.030842
v 6.576993 0.497297 -0.028417
v 6.608036 0.495433 -0.020521
v 6.605708 0.494886 -0.023173
v 6.611421 0.496471 -0.014752
v 6.595698 0.485914 -0.031440
v 6.580882 0.493578 -0.031430
v 6.576387 0.493582 -0.029857
v 6.572033 0.494015 -0.028182
v 6.606775 0.491128 -0.024193
v 6.603811 0.490710 -0.027060
v 6.609738 0.495860 -0.017598
v 6.580659 0.489808 -0.032417
v 6.585659 0.489855 -0.033212
v 6.571419 0.490254 -0.029294
v 6.575955 0.489865 -0.030842
v 6.567506 0.490710 -0.027060
v 6.604424 0.486617 -0.027982
v 6.600354 0.486221 -0.030068
v 6.611210 0.492083 -0.018072
v 6.585659 0.485828 -0.033881
v 6.590834 0.485821 -0.033016
v 6.575619 0.485914 -0.031440
v 6.566893 0.486617 -0.027982
v 6.563687 0.487049 -0.025026
v 6.600735 0.481708 -0.030467
v 6.596006 0.481479 -0.031686
v 6.591004 0.481387 -0.033327
v 6.563025 0.482497 -0.025569
v 6.566415 0.482053 -0.028553
v 6.570963 0.486221 -0.030068
v 6.570582 0.481708 -0.030467
v 6.559916 0.483005 -0.022309
v 6.596100 0.476758 -0.031547
v 6.566251 0.477161 -0.028901
v 6.562747 0.477567 -0.025838
v 6.570495 0.476894 -0.030569
v 6.575311 0.481479 -0.031686
v 6.575217 0.476758 -0.031547
v 6.563147 0.472326 -0.025740
v 6.566715 0.472041 -0.028949
v 6.570963 0.471944 -0.030319
v 6.559601 0.472535 -0.022076
v 6.580483 0.485821 -0.033016
v 6.580313 0.481387 -0.033327
v 6.567669 0.466752 -0.028295
v 6.564141 0.466943 -0.024980
v 6.560481 0.466947 -0.021154
v 6.558113 0.467410 -0.016070
v 6.585659 0.481380 -0.034309
v 6.585659 0.476659 -0.034406
v 6.580247 0.476678 -0.033290
v 6.565754 0.461690 -0.023150
v 6.562424 0.461686 -0.019247
v 6.580361 0.471858 -0.032919
v 6.585659 0.471799 -0.034267
v 6.591070 0.476678 -0.033290
v 6.590956 0.471858 -0.032919
v 6.575521 0.471942 -0.030998
v 6.585659 0.466731 -0.033505
v 6.580628 0.466849 -0.032069
v 6.576118 0.466969 -0.030035
v 6.595797 0.471942 -0.030998
v 6.590689 0.466849 -0.032069
v 6.595200 0.466969 -0.030035
v 6.571805 0.466834 -0.029539
v 6.567642 0.456994 -0.021211
v 6.570398 0.452487 -0.019539
v 6.569910 0.452232 -0.017097
v 6.581056 0.461625 -0.030534
v 6.600354 0.471944 -0.030319
v 6.590261 0.461625 -0.030534
v 6.572823 0.461579 -0.028060
v 6.568911 0.461444 -0.026644
v 6.570298 0.456474 -0.024428
v 6.571877 0.452408 -0.021815
v 6.574328 0.447570 -0.017860
v 6.585659 0.461476 -0.031803
v 6.576918 0.461789 -0.028598
v 6.577751 0.456369 -0.026778
v 6.573645 0.456765 -0.026084
v 6.574106 0.452257 -0.022668
v 6.576154 0.451879 -0.022359
v 6.585659 0.456274 -0.029501
v 6.581751 0.456649 -0.028683
v 6.583257 0.451425 -0.025866
v 6.581665 0.450894 -0.024374
v 6.585659 0.451585 -0.026546
v 6.589565 0.456649 -0.028683
v 6.588060 0.451425 -0.025866
v 6.593566 0.456369 -0.026778
v 6.594399 0.461789 -0.028598
v 6.585659 0.445463 -0.021990
v 6.589652 0.450894 -0.024374
v 6.598495 0.461579 -0.028060
v 6.597672 0.456765 -0.026084
v 6.597211 0.452257 -0.022668
v 6.595163 0.451879 -0.022359
v 6.599513 0.466834 -0.029539
v 6.603648 0.466752 -0.028295
v 6.602406 0.461444 -0.026644
v 6.601019 0.456474 -0.024428
v 6.599440 0.452408 -0.021815
v 6.596989 0.447570 -0.017860
v 6.600822 0.476894 -0.030569
v 6.604602 0.472041 -0.028949
v 6.605066 0.477161 -0.028901
v 6.605563 0.461690 -0.023150
v 6.608170 0.472326 -0.025740
v 6.607176 0.466943 -0.024980
v 6.603675 0.456994 -0.021211
v 6.600919 0.452487 -0.019539
v 6.601408 0.452232 -0.017097
v 6.608571 0.477567 -0.025838
v 6.604902 0.482053 -0.028553
v 6.608292 0.482497 -0.025569
v 6.610837 0.466947 -0.021154
v 6.611716 0.472535 -0.022076
v 6.611831 0.477979 -0.022361
v 6.605895 0.456807 -0.016472
v 6.607630 0.487049 -0.025026
v 6.611401 0.483005 -0.022309
v 6.610510 0.487588 -0.021921
v 6.614010 0.472875 -0.017300
v 6.614056 0.478294 -0.018144
v 6.613513 0.483328 -0.018465
v 6.609373 0.491682 -0.021294
v 6.612503 0.487940 -0.018388
v 6.616151 0.478619 -0.013843
v 6.613204 0.467410 -0.016070
v 6.615763 0.467720 -0.010888
v 6.616331 0.473205 -0.012395
v 6.615544 0.483681 -0.014639
v 6.614465 0.488367 -0.014940
v 6.613032 0.492625 -0.014951
v 6.611383 0.462292 -0.014560
v 6.608893 0.461686 -0.019247
v 6.617039 0.473892 -0.007018
v 6.616731 0.484037 -0.010458
v 6.615830 0.488723 -0.011189
v 6.614390 0.493100 -0.011549
v 6.612704 0.497046 -0.011634
v 6.617102 0.479086 -0.009136
v 6.617622 0.479637 -0.004527
v 6.617461 0.484510 -0.006150
v 6.616743 0.489213 -0.007166
v 6.615350 0.493700 -0.007769
v 6.609337 0.457770 -0.012892
v 6.607107 0.453335 -0.010456
v 6.604836 0.452774 -0.011649
v 6.618585 0.485187 -0.001848
v 6.617852 0.490097 -0.002886
v 6.611566 0.457861 -0.009194
v 6.614005 0.462588 -0.009919
v 6.608583 0.453747 -0.008313
v 6.603994 0.448623 -0.006854
v 6.614535 0.463417 -0.004909
v 6.612280 0.458683 -0.005347
v 6.616270 0.468606 -0.005234
v 6.608991 0.453783 -0.005997
v 6.608012 0.453641 -0.004089
v 6.617013 0.491059 0.006334
v 6.617661 0.486022 0.006886
v 6.619083 0.485808 0.002597
v 6.611594 0.458853 -0.001712
v 6.616992 0.469465 0.001624
v 6.619228 0.480662 0.003728
v 6.617862 0.481019 0.007512
v 6.615841 0.481182 0.011058
v 6.615722 0.485973 0.011113
v 6.618761 0.480162 -0.000339
v 6.614344 0.464241 0.000022
v 6.617374 0.474625 -0.002105
v 6.617696 0.476111 0.008276
v 6.618834 0.475650 0.005169
v 6.618455 0.475148 0.001760
v 6.615885 0.476394 0.011123
v 6.615747 0.471635 0.011227
v 6.617193 0.471716 0.009052
v 6.617934 0.471062 0.006808
v 6.617760 0.470730 0.004140
v 6.616359 0.466774 0.007144
v 6.615776 0.465828 0.006270
v 6.615956 0.467387 0.009925
v 6.615211 0.466958 0.011109
v 6.616511 0.467255 0.008510
v 6.614582 0.462317 0.011053
vn 0.6601 -0.7239 -0.2006
vn 0.5351 -0.7299 -0.4255
vn 0.7565 -0.4219 0.4998
vn 0.5380 -0.7140 -0.4481
vn 0.5338 -0.6990 -0.4759
vn 0.5156 -0.7170 -0.4691
vn -0.0033 -0.8037 0.5950
vn 0.7470 -0.3695 0.5526
vn 0.7460 -0.3479 0.5679
vn 0.7453 -0.3288 0.5800
vn -0.7470 -0.3695 0.5526
vn -0.7460 -0.3479 0.5679
vn -0.7401 -0.3634 0.5658
vn -0.7301 -0.4081 0.5480
vn -0.0599 -0.9739 0.2188
vn 0.6643 -0.6787 -0.3131
vn -0.7452 -0.3314 0.5787
vn -0.7565 -0.4219 0.4998
vn -0.5156 -0.7170 -0.4691
vn -0.2811 -0.6355 -0.7191
vn -0.5972 0.0498 -0.8006
vn 0.3057 -0.8206 -0.4828
vn 0.5223 0.7035 0.4819
vn 0.5967 0.5522 0.5822
vn 0.7266 0.4042 0.5555
vn 0.6540 0.6286 0.4209
vn 0.4750 0.8665 0.1532
vn -0.6683 0.6532 0.3560
vn -0.5726 0.6800 0.4579
vn -0.5060 0.7949 0.3348
vn -0.5945 0.7742 0.2172
vn -0.5338 -0.6990 -0.4759
vn -0.2111 -0.2595 -0.9424
vn -0.4750 0.8665 0.1532
vn -0.5351 -0.7299 -0.4255
vn -0.6601 -0.7239 -0.2006
vn -0.5380 -0.7140 -0.4481
vn -0.5994 0.0828 -0.7962
vn -0.8247 -0.0113 0.5655
vn -0.8584 0.0079 0.5129
vn -0.8485 -0.1090 0.5179
vn -0.8128 -0.1237 0.5692
vn 0.2733 -0.8712 -0.4078
vn -0.5999 0.1169 -0.7915
vn -0.6002 0.1145 -0.7916
vn 0.1853 -0.3054 -0.9340
vn 0.1725 -0.3420 -0.9237
vn -0.0000 -0.1351 0.9908
vn -0.0820 0.2072 0.9749
vn 0.6054 -0.7427 -0.2861
vn 0.5751 -0.7767 -0.2570
vn 0.1061 -0.9439 -0.3126
vn -0.1853 -0.3054 -0.9340
vn 0.0820 0.2072 0.9749
vn 0.5232 -0.8267 -0.2069
vn 0.1376 -0.9542 -0.2657
vn -0.1725 -0.3420 -0.9237
vn 0.2111 -0.2595 -0.9424
vn 0.4966 -0.8460 -0.1939
vn 0.1710 -0.9580 -0.2301
vn 0.4394 -0.8815 -0.1728
vn 0.2031 -0.9592 -0.1966
vn 0.3836 -0.9091 -0.1626
vn 0.2224 -0.9565 -0.1886
vn 0.3302 -0.9299 -0.1621
vn 0.2748 -0.9462 -0.1709
vn -0.0066 0.0009 1.0000
vn -0.0064 0.0181 0.9998
vn -0.0132 -0.0036 0.9999
vn -0.0154 -0.0155 0.9998
vn -0.5118 -0.8241 0.2427
vn 0.0064 0.0181 0.9998
vn 0.0132 -0.0034 0.9999
vn 0.2138 -0.9154 0.3410
vn -0.1452 -0.3635 0.9202
vn 0.0957 -0.4159 0.9044
vn 0.1452 -0.3635 0.9202
vn 0.3726 -0.8983 0.2328
vn 0.1205 -0.7929 0.5973
vn 0.0154 -0.0155 0.9998
vn -0.1205 -0.7929 0.5973
vn 0.0066 0.0007 1.0000
vn 0.5118 -0.8241 0.2427
vn -0.0276 -0.4722 0.8810
vn 0.5899 -0.7573 0.2803
vn -0.0957 -0.4159 0.9044
vn -0.2138 -0.9154 0.3410
vn 0.0276 -0.4722 0.8810
vn -0.5899 -0.7573 0.2803
vn -0.0000 -0.9674 0.2532
vn 0.7662 -0.6237 -0.1545
vn 0.2727 -0.9370 -0.2184
vn -0.7662 -0.6237 -0.1545
vn -0.2727 -0.9370 -0.2184
vn 0.4744 -0.7865 0.3954
vn -0.6259 -0.6641 0.4089
vn -0.2694 -0.9626 -0.0281
vn -0.3726 -0.8983 0.2328
vn -0.4744 -0.7865 0.3954
vn 0.6259 -0.6641 0.4089
vn 0.2694 -0.9626 -0.0281
vn -0.4144 -0.6709 -0.6149
vn 0.4144 -0.6709 -0.6149
vn -0.4433 -0.6375 -0.6301
vn -0.9098 -0.4098 -0.0662
vn 0.4433 -0.6375 -0.6301
vn 0.9098 -0.4098 -0.0662
vn -0.9570 0.0657 0.2825
vn -0.9827 0.0958 0.1588
vn -0.9084 -0.2184 0.3565
vn -0.8744 -0.1478 0.4622
vn 0.5480 0.8079 0.2169
vn 0.4505 0.8914 0.0501
vn 0.3233 0.9320 0.1641
vn 0.4154 0.8500 0.3240
vn -0.9200 -0.3889 -0.0489
vn -0.9442 -0.2702 0.1884
vn -0.9657 -0.2051 0.1594
vn -0.9511 -0.2928 -0.0984
vn 0.7508 0.2793 0.5986
vn 0.8039 0.2552 0.5372
vn 0.6462 0.3852 0.6588
vn -0.7169 0.6942 0.0639
vn -0.8008 0.5885 0.1111
vn -0.8245 0.5650 -0.0314
vn -0.7375 0.6728 -0.0576
vn 0.1730 0.9112 -0.3739
vn 0.2019 0.9137 -0.3527
vn 0.2786 0.8662 -0.4148
vn 0.2351 0.8649 -0.4435
vn 0.7973 0.5586 0.2286
vn 0.6831 0.7300 0.0212
vn 0.9266 0.3671 0.0818
vn 0.8934 0.3962 0.2116
vn 0.8572 0.4884 0.1632
vn 0.8944 0.4464 0.0283
vn 0.6965 0.0030 0.7176
vn 0.7670 -0.0399 0.6404
vn 0.6778 0.1654 0.7164
vn 0.6004 0.2595 0.7565
vn 0.8743 0.3917 0.2865
vn -0.4312 0.8182 0.3803
vn -0.4887 0.7130 0.5027
vn -0.4274 0.7478 -0.5080
vn -0.5016 0.6547 -0.5655
vn -0.5679 0.6576 -0.4949
vn -0.4858 0.7463 -0.4551
vn -0.2253 0.9171 -0.3290
vn -0.2460 0.9203 -0.3042
vn -0.1513 0.9582 -0.2428
vn -0.1392 0.9553 -0.2607
vn 0.5422 0.8292 -0.1358
vn 0.4879 0.8662 -0.1080
vn 0.4448 0.8892 -0.1072
vn 0.4954 0.8616 -0.1104
vn -0.4898 0.8647 -0.1113
vn -0.4922 0.8694 -0.0428
vn -0.5476 0.8342 -0.0655
vn -0.5445 0.8271 -0.1396
vn 0.5432 0.2048 -0.8142
vn 0.3540 0.1633 -0.9209
vn 0.3717 0.2658 -0.8895
vn 0.5454 0.3025 -0.7817
vn -0.6423 0.7634 -0.0686
vn -0.6240 0.7672 -0.1483
vn 0.7832 -0.2966 0.5465
vn 0.7543 -0.4730 0.4553
vn 0.7958 -0.4538 0.4009
vn 0.8300 -0.2914 0.4756
vn -0.7170 0.5144 0.4704
vn -0.7080 0.2796 0.6485
vn -0.6134 0.3041 0.7289
vn -0.6192 0.5436 0.5667
vn 0.3091 0.9466 -0.0914
vn 0.2849 0.9541 -0.0924
vn 0.3854 0.9184 -0.0896
vn 0.4180 0.9047 -0.0822
vn -0.3796 0.4460 -0.8106
vn -0.3781 0.3675 -0.8497
vn -0.5344 0.3939 -0.7479
vn -0.5130 0.4671 -0.7202
vn 0.7370 -0.3054 0.6030
vn 0.4869 0.1684 0.8570
vn 0.5845 -0.2493 0.7722
vn -0.7948 0.5752 0.1934
vn -0.8363 0.4639 0.2922
vn -0.5097 0.5754 0.6396
vn 0.2939 0.8029 0.5186
vn 0.1695 0.8153 0.5537
vn 0.2142 0.6657 0.7149
vn 0.3504 0.6627 0.6618
vn -0.8469 0.1404 0.5129
vn -0.8104 0.1445 0.5678
vn 0.9720 -0.1767 -0.1550
vn 0.9773 -0.1516 -0.1480
vn 0.9826 -0.0634 -0.1748
vn 0.9807 -0.0788 -0.1792
vn 0.2360 -0.1289 -0.9632
vn 0.2049 -0.2466 -0.9472
vn 0.2582 -0.2441 -0.9347
vn 0.2590 -0.1469 -0.9546
vn 0.1339 0.9005 0.4137
vn 0.2377 0.8907 0.3875
vn -0.3141 0.8673 -0.3862
vn -0.3996 0.8132 -0.4231
vn -0.4302 0.8098 -0.3989
vn -0.3398 0.8690 -0.3597
vn 0.9657 -0.2051 0.1594
vn 0.9511 -0.2928 -0.0984
vn 0.9877 -0.0879 0.1295
vn -0.0765 0.9955 0.0551
vn -0.0766 0.9909 0.1109
vn -0.0003 0.9928 0.1195
vn -0.0001 0.9982 0.0607
vn -0.1013 0.9916 -0.0802
vn -0.1259 0.9882 -0.0872
vn -0.1796 0.9826 -0.0473
vn -0.1395 0.9898 -0.0293
vn 0.8830 -0.1478 0.4455
vn 0.9442 -0.2702 0.1884
vn 0.8909 -0.0870 0.4458
vn 0.8741 -0.4741 0.1061
vn 0.8408 -0.0664 0.5373
vn 0.9006 -0.0017 0.4347
vn 0.8493 0.0141 0.5277
vn -0.7942 0.1350 -0.5925
vn -0.8138 0.0070 -0.5811
vn -0.8919 -0.0039 -0.4521
vn -0.8687 0.1260 -0.4790
vn -0.1970 -0.6615 -0.7236
vn -0.5021 -0.6391 -0.5827
vn -0.5207 -0.5334 -0.6666
vn -0.2299 -0.5057 -0.8315
vn -0.7629 -0.1947 0.6165
vn -0.8599 0.0032 0.5104
vn -0.9131 0.4062 -0.0357
vn -0.9519 0.3062 0.0111
vn -0.9118 0.2758 0.3043
vn -0.8639 0.3929 0.3151
vn -0.0659 0.9978 -0.0119
vn 0.0001 1.0000 -0.0093
vn 0.0003 0.9976 -0.0686
vn -0.0507 0.9962 -0.0712
vn 0.9562 0.2633 0.1276
vn 0.9519 0.3062 0.0111
vn 0.9740 0.2208 0.0509
vn 0.9940 0.0003 0.1096
vn 0.8911 -0.4204 0.1709
vn -0.8994 -0.3930 -0.1914
vn -0.8917 -0.4213 0.1655
vn -0.9395 -0.2614 0.2214
vn -0.9551 -0.2612 -0.1397
vn 0.8994 -0.3930 -0.1914
vn 0.8461 -0.3816 -0.3722
vn 0.7678 0.2450 -0.5921
vn 0.8341 0.2400 -0.4967
vn 0.8687 0.1260 -0.4790
vn 0.7942 0.1350 -0.5925
vn -0.5599 0.0682 0.8258
vn -0.6354 0.0367 0.7713
vn -0.5577 -0.1679 0.8129
vn -0.4701 -0.1561 0.8687
vn -0.8985 -0.2939 -0.3262
vn -0.8461 -0.3816 -0.3722
vn 0.6195 -0.7293 -0.2904
vn -0.9805 0.0395 -0.1924
vn -0.9758 0.0459 -0.2139
vn -0.9826 -0.0634 -0.1748
vn -0.9807 -0.0788 -0.1792
vn -0.1015 0.9090 -0.4043
vn -0.1421 0.9096 -0.3904
vn -0.0862 0.9510 -0.2969
vn -0.0622 0.9488 -0.3097
vn 0.5245 0.0039 -0.8514
vn 0.5051 -0.1299 -0.8532
vn 0.2859 -0.0227 -0.9580
vn 0.8489 -0.1150 0.5159
vn 0.9579 -0.0723 0.2779
vn 0.9522 0.0691 0.2977
vn 0.8577 0.0150 0.5140
vn 0.1780 0.9776 -0.1119
vn 0.1509 0.9835 -0.1002
vn 0.2399 0.9680 -0.0733
vn -0.0313 0.3462 0.9376
vn 0.0761 0.0261 0.9968
vn 0.2172 0.0894 0.9720
vn 0.1273 0.3955 0.9096
vn 0.8882 0.3180 -0.3317
vn 0.9066 0.3006 -0.2961
vn 0.9494 0.1798 -0.2576
vn 0.9340 0.2099 -0.2892
vn 0.3137 0.8766 0.3649
vn 0.4051 0.7692 0.4942
vn -0.9831 0.1143 0.1431
vn -0.9760 -0.1268 -0.1769
vn -0.9947 -0.0927 -0.0439
vn -0.9963 0.0738 0.0438
vn -0.9452 -0.0082 -0.3262
vn -0.9189 0.1099 -0.3790
vn -0.4112 0.6490 -0.6401
vn -0.3521 0.7431 -0.5690
vn -0.2582 -0.2441 -0.9347
vn -0.2674 -0.3293 -0.9056
vn -0.2171 -0.3542 -0.9096
vn -0.2049 -0.2466 -0.9472
vn -0.2360 -0.1289 -0.9632
vn -0.4920 -0.2852 -0.8225
vn -0.5051 -0.1299 -0.8532
vn 0.3293 -0.3323 -0.8838
vn -0.0000 -0.3476 -0.9376
vn -0.0000 -0.2338 -0.9723
vn 0.3305 -0.2368 -0.9136
vn 0.7150 0.6371 -0.2880
vn 0.7209 0.6890 -0.0743
vn 0.7972 0.6002 -0.0659
vn 0.7744 0.5550 -0.3037
vn -0.9740 0.2208 0.0509
vn -0.9562 0.2633 0.1276
vn -0.9508 0.0637 0.3031
vn -0.9381 0.1823 0.2945
vn -0.1878 0.9420 0.2780
vn -0.2758 0.9235 0.2667
vn -0.3511 0.8473 0.3986
vn -0.2301 0.8805 0.4145
vn 0.4802 0.6298 0.6105
vn 0.3900 0.4992 0.7737
vn 0.5348 0.4311 0.7267
vn -0.1217 0.9541 -0.2738
vn -0.2019 0.9137 -0.3527
vn -0.9266 0.3671 0.0818
vn -0.3370 0.9388 -0.0716
vn -0.3902 0.9157 -0.0960
vn -0.4555 0.8815 -0.1241
vn -0.3896 0.9171 -0.0849
vn -0.3046 0.9369 -0.1713
vn -0.4071 0.8961 -0.1768
vn -0.4142 0.9038 -0.1082
vn -0.3109 0.9419 -0.1273
vn 0.7021 0.4914 -0.5154
vn 0.6667 0.4899 -0.5616
vn 0.6476 0.5302 -0.5472
vn 0.6727 0.5366 -0.5094
vn -0.4850 0.3574 0.7981
vn -0.2670 -0.0529 -0.9622
vn -0.2590 -0.1469 -0.9546
vn -0.2859 -0.0227 -0.9580
vn -0.3126 0.9465 -0.0801
vn -0.4194 0.9066 -0.0460
vn -0.4192 0.9040 -0.0842
vn -0.3098 0.9463 -0.0924
vn -0.0988 0.8989 0.4268
vn -0.0885 0.9543 0.2856
vn -0.2835 0.9580 -0.0436
vn -0.3169 0.9480 -0.0308
vn -0.2400 0.9704 0.0277
vn -0.2208 0.9753 -0.0102
vn -0.4413 0.1424 0.8860
vn 0.3109 0.9419 -0.1273
vn 0.1951 0.9703 -0.1429
vn 0.1909 0.9739 -0.1226
vn 0.3128 0.9457 -0.0887
vn 0.1513 0.9582 -0.2428
vn 0.1666 0.9597 -0.2262
vn 0.2635 0.9241 -0.2770
vn 0.2460 0.9203 -0.3042
vn 0.6942 0.5948 -0.4054
vn 0.6294 0.6726 -0.3892
vn 0.6376 0.6898 -0.3431
vn 0.7100 0.6022 -0.3651
vn -0.0025 0.9586 0.2848
vn -0.0027 0.9830 0.1834
vn -0.0771 0.9808 0.1793
vn 0.8095 0.1424 0.5695
vn 0.8471 0.1396 0.5128
vn -0.9225 0.2936 0.2504
vn -0.8934 0.3962 0.2116
vn 0.1090 0.9938 -0.0194
vn 0.0663 0.9977 -0.0120
vn 0.0770 0.9955 0.0549
vn 0.1278 0.9909 0.0419
vn 0.1372 0.9863 0.0914
vn 0.0766 0.9910 0.1102
vn 0.3977 0.8879 -0.2314
vn 0.3813 0.8800 -0.2831
vn 0.2816 0.9284 -0.2426
vn 0.2952 0.9327 -0.2072
vn -0.4522 0.8104 -0.3725
vn -0.3604 0.8729 -0.3288
vn 0.9133 -0.4064 0.0248
vn 0.8527 -0.5177 0.0700
vn 0.8128 -0.5311 -0.2393
vn 0.8792 -0.4173 -0.2298
vn -0.2020 0.4404 -0.8747
vn -0.2966 0.4269 -0.8543
vn -0.2823 0.4951 -0.8217
vn -0.1682 0.5086 -0.8444
vn 0.8138 0.0070 -0.5811
vn 0.8919 -0.0039 -0.4521
vn 0.8948 -0.1423 -0.4231
vn 0.8158 -0.1408 -0.5609
vn -0.3293 -0.3323 -0.8838
vn -0.3113 -0.4493 -0.8374
vn -0.2681 -0.4799 -0.8353
vn -0.9128 0.0497 0.4055
vn -0.9295 0.1032 0.3541
vn -0.9915 0.0948 0.0894
vn -0.9940 0.0003 0.1096
vn 0.7533 0.4088 -0.5151
vn 0.7049 0.4134 -0.5764
vn 0.3193 0.9461 -0.0547
vn 0.3609 0.9314 -0.0476
vn 0.7864 -0.3297 -0.5224
vn 0.7305 -0.5053 -0.4595
vn 0.6812 -0.4688 -0.5623
vn 0.6814 -0.3173 -0.6596
vn -0.6815 0.1273 -0.7206
vn -0.6932 0.0079 -0.7207
vn 0.9128 0.0497 0.4054
vn 0.8752 0.0446 0.4817
vn 0.2832 0.9564 0.0714
vn 0.2645 0.9641 0.0225
vn 0.1914 0.9792 0.0679
vn 0.2153 0.9679 0.1300
vn -0.3994 0.7443 0.5352
vn -0.2550 0.7788 0.5731
vn -0.3447 -0.1374 0.9286
vn -0.7864 -0.3297 -0.5224
vn -0.8158 -0.1408 -0.5609
vn -0.6936 -0.1395 -0.7067
vn -0.6814 -0.3173 -0.6596
vn -0.8572 0.4884 0.1632
vn -0.8944 0.4464 0.0283
vn -0.1626 0.9864 0.0236
vn -0.1260 0.9911 0.0423
vn -0.1069 0.9941 -0.0186
vn 0.1925 0.9456 0.2623
vn 0.1572 0.9745 0.1603
vn 0.0783 0.9814 0.1751
vn 0.0998 0.9556 0.2772
vn -0.9557 -0.0704 0.2860
vn 0.2369 0.6452 -0.7264
vn 0.2617 0.5687 -0.7798
vn 0.1415 0.5733 -0.8070
vn 0.1248 0.6458 -0.7532
vn -0.2901 0.1286 -0.9483
vn -0.2788 0.0382 -0.9596
vn -0.3269 0.0697 -0.9425
vn -0.3540 0.1633 -0.9209
vn 0.1065 0.7368 -0.6676
vn 0.2025 0.7372 -0.6446
vn -0.3054 -0.1289 -0.9435
vn -0.2720 -0.0410 -0.9614
vn 0.7613 0.5351 -0.3660
vn 0.8068 0.4756 -0.3506
vn 0.7836 0.4914 -0.3802
vn 0.7377 0.5444 -0.3992
vn 0.9831 0.1143 0.1431
vn 0.9106 0.0785 0.4057
vn 0.9295 0.1032 0.3541
vn 0.9365 0.1887 0.2955
vn -0.9878 -0.0131 -0.1549
vn -0.9901 -0.1020 -0.0961
vn -0.9773 -0.1516 -0.1480
vn -0.8221 0.4797 -0.3067
vn -0.8764 0.3852 -0.2889
vn -0.9127 0.4078 -0.0238
vn -0.8572 0.5125 -0.0507
vn -0.7972 0.6002 -0.0659
vn -0.7744 0.5550 -0.3037
vn 0.7851 0.4051 -0.4686
vn 0.7310 0.4918 -0.4730
vn 0.2367 0.9715 -0.0102
vn 0.1311 0.9873 -0.0893
vn 0.1861 0.9813 -0.0494
vn 0.6098 0.6637 -0.4331
vn 0.5366 0.7402 -0.4051
vn 0.5574 0.7476 -0.3612
vn -0.9662 -0.2540 -0.0447
vn -0.9497 -0.2956 -0.1038
vn 0.9702 0.0870 -0.2263
vn 0.9878 -0.0131 -0.1549
vn 0.9452 -0.0082 -0.3262
vn 0.9188 0.1099 -0.3790
vn -0.1589 -0.4891 0.8576
vn -0.0290 -0.4538 0.8907
vn -0.1892 -0.0863 0.9781
vn -0.0000 0.3402 -0.9403
vn -0.0000 0.2110 -0.9775
vn -0.2331 0.2117 -0.9491
vn -0.2257 0.3346 -0.9149
vn 0.8403 0.4064 -0.3587
vn -0.7209 0.6890 -0.0743
vn 0.7872 -0.4672 -0.4025
vn 0.6987 -0.5721 -0.4296
vn 0.2670 -0.0529 -0.9622
vn 0.2720 -0.0410 -0.9614
vn 0.2487 0.0390 -0.9678
vn 0.2788 0.0382 -0.9596
vn -0.2371 0.1200 -0.9640
vn -0.3009 0.2279 -0.9260
vn -0.8882 0.3180 -0.3317
vn -0.9066 0.3006 -0.2961
vn -0.8599 0.3927 -0.3262
vn -0.8403 0.4064 -0.3587
vn -0.7150 0.6371 -0.2880
vn -0.6232 0.7816 0.0269
vn -0.4995 -0.5306 0.6848
vn -0.3723 -0.7051 0.6035
vn -0.2655 -0.7145 0.6473
vn -0.3948 -0.5274 0.7523
vn 0.6953 0.5436 -0.4701
vn -0.7613 0.5351 -0.3660
vn -0.7100 0.6022 -0.3651
vn -0.2617 0.5687 -0.7798
vn -0.3790 0.5065 -0.7745
vn -0.3629 0.5703 -0.7369
vn -0.6275 0.7748 -0.0774
vn -0.6336 0.7288 -0.2596
vn -0.5585 0.5694 -0.6032
vn -0.5861 0.5229 -0.6189
vn -0.6476 0.5302 -0.5472
vn -0.6274 0.5703 -0.5303
vn 0.7279 0.6721 -0.1357
vn 0.6220 0.7693 -0.1458
vn 0.5651 0.8209 -0.0823
vn -0.5122 0.8495 -0.1263
vn -0.4484 0.8923 -0.0516
vn -0.8348 0.5435 -0.0874
vn -0.7290 0.6709 -0.1363
vn -0.7655 -0.6378 0.0852
vn -0.7199 -0.6428 0.2617
vn -0.8347 -0.5197 0.1820
vn -0.8527 -0.5177 0.0700
vn 0.8769 0.2271 -0.4237
vn 0.5172 0.7416 -0.4273
vn 0.4302 0.8098 -0.3989
vn 0.4522 0.8104 -0.3725
vn 0.9225 0.2936 0.2504
vn 0.9782 0.1997 0.0578
vn 0.9527 0.3036 0.0157
vn 0.9325 -0.2735 -0.2359
vn 0.8619 -0.3107 -0.4008
vn -0.4858 0.8522 -0.1941
vn -0.4861 0.8326 -0.2654
vn -0.5653 0.7656 -0.3072
vn -0.5585 0.7981 -0.2260
vn -0.5373 0.8434 0.0013
vn -0.4862 0.8737 -0.0165
vn 0.0361 0.8149 0.5785
vn -0.0976 0.8038 0.5868
vn -0.0798 0.6325 0.7704
vn 0.0727 0.6554 0.7518
vn -0.6776 -0.5266 0.5134
vn -0.5928 -0.5179 0.6167
vn 0.9131 0.4061 -0.0358
vn 0.9162 0.2692 0.2967
vn -0.4861 0.8692 -0.0906
vn -0.5476 0.8327 -0.0814
vn 0.4239 0.3940 0.8155
vn -0.0783 0.9942 -0.0734
vn 0.3113 -0.4493 -0.8374
vn -0.0000 -0.4611 -0.8873
vn -0.2817 0.7389 -0.6121
vn -0.2025 0.7372 -0.6446
vn -0.2369 0.6452 -0.7264
vn -0.3305 0.6458 -0.6883
vn 0.1889 0.9744 -0.1220
vn 0.3126 0.9465 -0.0801
vn 0.1961 0.9734 -0.1185
vn 0.6936 -0.1395 -0.7067
vn 0.4920 -0.2852 -0.8225
vn -0.3717 0.2658 -0.8895
vn -0.5454 0.3025 -0.7817
vn -0.8948 -0.1423 -0.4231
vn -0.8619 -0.3107 -0.4008
vn -0.9325 -0.2735 -0.2359
vn -0.9534 -0.1240 -0.2751
vn -0.4162 0.9079 -0.0500
vn -0.6510 0.5780 -0.4920
vn -0.5951 0.6598 -0.4588
vn -0.3516 0.8162 -0.4585
vn -0.7941 -0.4596 0.3977
vn -0.8313 -0.2826 0.4786
vn -0.0000 0.6466 -0.7629
vn -0.1248 0.6458 -0.7532
vn -0.1065 0.7368 -0.6676
vn -0.0000 0.7370 -0.6759
vn -0.5797 0.8111 -0.0780
vn -0.5148 0.8545 0.0700
vn -0.5328 -0.7214 0.4425
vn -0.6376 0.6898 -0.3431
vn -0.3128 0.9457 -0.0887
vn -0.0620 0.4797 0.8752
vn 0.0988 0.5121 0.8532
vn 0.6234 -0.4032 0.6699
vn 0.4922 0.8694 -0.0428
vn 0.4194 0.9066 -0.0460
vn -0.3546 0.9032 0.2420
vn -0.4356 0.8815 0.1820
vn -0.6294 0.6726 -0.3892
vn -0.6942 0.5948 -0.4054
vn -0.6040 0.4763 -0.6390
vn -0.6667 0.4899 -0.5616
vn -0.8240 0.2252 0.5199
vn -0.9354 0.2341 0.2650
vn -0.2952 0.9327 -0.2072
vn -0.1864 0.9647 -0.1860
vn -0.1749 0.9631 -0.2043
vn -0.2816 0.9284 -0.2426
vn -0.5574 0.7476 -0.3612
vn -0.4742 0.8185 -0.3244
vn -0.9073 0.3973 0.1375
vn -0.9133 -0.4064 0.0248
vn -0.9063 -0.4180 0.0624
vn -0.3977 0.8879 -0.2314
vn -0.1334 0.9867 0.0928
vn -0.1761 0.9818 0.0715
vn -0.2786 0.9542 0.1091
vn -0.3639 0.9306 0.0393
vn -0.6098 0.6637 -0.4331
vn -0.5366 0.7402 -0.4051
vn -0.3813 0.8800 -0.2831
vn -0.1882 0.9680 -0.1660
vn -0.1951 0.9703 -0.1429
vn -0.1909 0.9739 -0.1226
vn 0.2475 0.9415 0.2287
vn 0.9758 0.0459 -0.2139
vn -0.9229 0.2886 -0.2548
vn -0.2908 0.2278 0.9293
vn -0.3363 0.4057 0.8499
vn -0.9601 0.2610 0.1004
vn 0.1882 0.9680 -0.1660
vn 0.0002 0.9855 -0.1694
vn 0.0124 0.9035 0.4284
vn 0.3442 0.1486 0.9271
vn 0.4335 -0.2634 0.8618
vn 0.1864 0.9647 -0.1860
vn 0.1749 0.9631 -0.2043
vn -0.0000 0.5227 -0.8525
vn -0.1415 0.5733 -0.8070
vn -0.0000 0.5776 -0.8163
vn -0.1892 0.9743 -0.1226
vn -0.1961 0.9734 -0.1185
vn -0.5172 0.7416 -0.4273
vn -0.6669 0.5877 -0.4581
vn -0.6953 0.5436 -0.4701
vn -0.7377 0.5444 -0.3992
vn -0.6727 0.5366 -0.5094
vn 0.0513 0.9961 -0.0713
vn 0.6336 0.7288 -0.2596
vn 0.6275 0.7748 -0.0774
vn -0.2102 0.9666 0.1464
vn -0.2635 0.9241 -0.2770
vn -0.1666 0.9597 -0.2262
vn -0.7836 0.4914 -0.3802
vn -0.8068 0.4756 -0.3506
vn -0.7310 0.4918 -0.4730
vn 0.7394 0.3332 -0.5851
vn 0.6532 0.3203 -0.6861
vn 0.6298 0.4034 -0.6638
vn 0.9381 0.1825 0.2945
vn -0.2204 0.9734 -0.0630
vn 0.1392 0.9553 -0.2607
vn 0.9379 -0.2657 0.2232
vn 0.0873 0.8140 -0.5743
vn 0.1664 0.8140 -0.5565
vn 0.7967 0.3280 -0.5077
vn -0.6617 -0.1997 0.7227
vn 0.1217 0.9541 -0.2738
vn -0.9527 0.3036 0.0157
vn 0.5344 0.3939 -0.7479
vn -0.2548 0.9638 -0.0780
vn -0.2908 0.9521 -0.0947
vn -0.0319 0.9497 -0.3117
vn -0.0532 0.9085 -0.4144
vn -0.9782 0.1997 0.0578
vn -0.9365 0.1887 0.2955
vn 0.3054 -0.1289 -0.9435
vn -0.0000 -0.1096 -0.9940
vn -0.2786 0.8662 -0.4148
vn 0.1447 0.9890 -0.0320
vn 0.1711 0.9850 0.0220
vn 0.1101 0.9904 -0.0838
vn 0.3046 0.9369 -0.1713
vn -0.7001 -0.6236 -0.3479
vn -0.6997 -0.5583 -0.4458
vn -0.1730 0.9112 -0.3739
vn -0.2351 0.8649 -0.4435
vn 0.2483 0.5187 0.8181
vn 0.0825 0.9938 -0.0747
vn 0.0715 0.8631 -0.5000
vn 0.1368 0.8631 -0.4861
vn 0.6932 0.0079 -0.7207
vn 0.3009 0.2279 -0.9260
vn 0.3040 0.3392 -0.8902
vn 0.3781 0.3675 -0.8497
vn -0.4573 0.5713 -0.6815
vn 0.5679 0.6576 -0.4949
vn 0.6274 0.5703 -0.5303
vn 0.5585 0.5694 -0.6032
vn 0.5016 0.6547 -0.5655
vn 0.1070 0.9511 -0.2899
vn -0.3883 0.5919 0.7064
vn -0.0000 0.8632 -0.5049
vn -0.0000 0.9087 -0.4174
vn 0.0532 0.9085 -0.4144
vn -0.1747 0.2868 0.9419
vn -0.2090 0.4376 0.8745
vn -0.1505 0.9749 0.1639
vn 0.5076 -0.4156 -0.7547
vn 0.2171 -0.3542 -0.9096
vn 0.0862 0.9510 -0.2969
vn -0.2904 0.8164 -0.4992
vn -0.2314 0.8150 -0.5313
vn 0.5353 0.1097 -0.8375
vn 0.3269 0.0697 -0.9425
vn 0.0622 0.9488 -0.3097
vn -0.0873 0.8140 -0.5743
vn -0.0000 0.8141 -0.5807
vn 0.3796 0.4460 -0.8106
vn 0.2966 0.4269 -0.8543
vn -0.0000 0.4568 -0.8895
vn 0.0319 0.9497 -0.3117
vn 0.3941 0.9189 -0.0203
vn -0.1664 0.8140 -0.5565
vn -0.1368 0.8631 -0.4861
vn -0.0715 0.8631 -0.5000
vn 0.6510 0.5780 -0.4920
vn 0.5951 0.6598 -0.4588
vn 0.6669 0.5877 -0.4581
vn -0.0000 0.9481 -0.3180
vn -0.1450 0.9846 -0.0974
vn -0.1638 0.9809 -0.1053
vn 0.9127 0.4078 -0.0238
vn 0.8764 0.3852 -0.2889
vn 0.8221 0.4797 -0.3067
vn 0.8572 0.5125 -0.0507
vn 0.9229 0.2886 -0.2548
vn -0.2415 0.6050 0.7587
vn -0.1902 0.8637 -0.4667
vn 0.1015 0.9090 -0.4043
vn 0.4112 0.6490 -0.6401
vn 0.3305 0.6458 -0.6883
vn 0.2817 0.7389 -0.6121
vn 0.3521 0.7431 -0.5690
vn -0.7678 0.2450 -0.5921
vn -0.6685 0.2289 -0.7076
vn 0.1902 0.8637 -0.4667
vn 0.1421 0.9096 -0.3904
vn 0.2314 0.8150 -0.5313
vn -0.7469 -0.4806 0.4596
vn -0.7848 -0.2858 0.5500
vn 0.2904 0.8164 -0.4992
vn 0.6423 0.7634 -0.0686
vn 0.7375 0.6728 -0.0576
vn 0.5476 0.8342 -0.0655
vn -0.6532 0.3203 -0.6861
vn -0.7394 0.3332 -0.5851
vn -0.1070 0.9511 -0.2899
vn 0.3516 0.8162 -0.4585
vn 0.9805 0.0395 -0.1924
vn 0.9915 0.0948 0.0894
vn 0.2253 0.9171 -0.3290
vn 0.3141 0.8673 -0.3862
vn 0.3996 0.8132 -0.4231
vn 0.4274 0.7478 -0.5080
vn 0.6040 0.4763 -0.6390
vn 0.5130 0.4671 -0.7202
vn -0.8019 0.2726 0.5317
vn -0.7572 0.3564 0.5473
vn 0.3398 0.8690 -0.3597
vn 0.4858 0.7463 -0.4551
vn 0.3604 0.8729 -0.3288
vn 0.4742 0.8185 -0.3244
vn -0.1839 0.9758 -0.1187
vn -0.2842 -0.5096 0.8121
vn -0.6843 0.7291 0.0117
vn -0.5245 0.0039 -0.8514
vn 0.4573 0.5713 -0.6815
vn -0.8978 -0.4286 -0.1013
vn -0.5353 0.1097 -0.8375
vn 0.3359 -0.3078 0.8902
vn 0.6685 0.2289 -0.7076
vn 0.6815 0.1273 -0.7206
vn 0.8318 0.3214 -0.4525
vn 0.4142 0.9038 -0.1082
vn 0.4071 0.8961 -0.1768
vn 0.5476 0.8327 -0.0814
vn 0.4861 0.8692 -0.0906
vn 0.4862 0.8737 -0.0165
vn 0.5373 0.8434 0.0013
vn 0.4162 0.9079 -0.0500
vn 0.2764 0.4184 0.8652
vn 0.4861 0.8326 -0.2654
vn 0.4858 0.8522 -0.1941
vn 0.5585 0.7981 -0.2260
vn 0.6232 0.7816 0.0269
vn 0.5861 0.5229 -0.6189
vn 0.5653 0.7656 -0.3072
vn 0.7169 0.6942 0.0639
vn 0.9662 -0.2540 -0.0447
vn 0.8245 0.5650 -0.0314
vn 0.8348 0.5435 -0.0876
vn 0.8008 0.5885 0.1111
vn -0.7967 0.3280 -0.5077
vn -0.8318 0.3214 -0.4525
vn -0.7851 0.4051 -0.4686
vn -0.7533 0.4088 -0.5151
vn -0.6987 -0.5721 -0.4296
vn -0.6118 -0.6579 -0.4392
vn -0.7393 -0.6317 -0.2332
vn -0.8128 -0.5311 -0.2393
vn 0.9963 0.0738 0.0438
vn 0.9947 -0.0927 -0.0439
vn 0.9760 -0.1268 -0.1769
vn 0.7655 -0.6378 0.0852
vn 0.7393 -0.6317 -0.2332
vn -0.7780 0.2716 0.5665
vn 0.9497 -0.2956 -0.1038
vn -0.8769 0.2271 -0.4237
vn -0.9340 0.2099 -0.2892
vn 0.5207 -0.5334 -0.6666
vn 0.2299 -0.5057 -0.8315
vn 0.3861 -0.4754 0.7906
vn 0.4711 -0.4682 0.7475
vn -0.4903 0.5187 -0.7004
vn 0.8193 -0.0073 0.5733
vn 0.8599 0.3927 -0.3262
vn -0.7021 0.4914 -0.5154
vn 0.8029 -0.1304 0.5816
vn 0.6799 -0.6028 -0.4176
vn 0.6997 -0.5583 -0.4458
vn 0.8985 -0.2939 -0.3262
vn 0.9551 -0.2612 -0.1397
vn -0.7541 0.0054 0.6568
vn -0.8741 -0.4741 0.1061
vn -0.6812 -0.4688 -0.5623
vn -0.5076 -0.4156 -0.7547
vn -0.0000 -0.0238 -0.9997
vn 0.9610 0.1708 -0.2177
vn -0.0000 0.0468 -0.9989
vn -0.0000 0.1226 -0.9925
vn 0.2371 0.1200 -0.9640
vn -0.5432 0.2048 -0.8142
vn -0.9005 -0.0017 0.4348
vn -0.8909 -0.0869 0.4458
vn -0.8407 -0.0663 0.5374
vn -0.8492 0.0141 0.5280
vn 0.4903 0.5187 -0.7004
vn 0.8520 -0.1220 0.5091
vn 0.3629 0.5703 -0.7369
vn 0.3790 0.5065 -0.7745
vn -0.8830 -0.1478 0.4455
vn -0.9361 -0.2770 0.2168
vn -0.8520 -0.1220 0.5091
vn 0.2823 0.4951 -0.8217
vn -0.0633 -0.6311 0.7731
vn 0.0414 -0.5900 0.8063
vn 0.9200 -0.3889 -0.0489
vn -0.9610 0.1708 -0.2177
vn 0.8978 -0.4286 -0.1013
vn 0.9901 -0.1020 -0.0961
vn 0.9534 -0.1240 -0.2751
vn 0.9063 -0.4180 0.0624
vn 0.1682 0.5086 -0.8444
vn 0.8347 -0.5197 0.1820
vn -0.3305 -0.2368 -0.9136
vn 0.7199 -0.6428 0.2617
vn -0.6503 -0.7285 -0.2155
vn -0.4693 -0.6943 0.5457
vn 0.6118 -0.6579 -0.4392
vn -0.5243 -0.6794 -0.5133
vn -0.3040 0.3392 -0.8902
vn 0.2191 -0.3584 0.9075
vn 0.2779 -0.5117 0.8130
vn 0.2020 0.4404 -0.8747
vn 0.2257 0.3346 -0.9149
vn -0.6298 0.4034 -0.6638
vn -0.7049 0.4134 -0.5764
vn 0.2331 0.2117 -0.9491
vn -0.0688 -0.0359 0.9970
vn 0.2901 0.1286 -0.9483
vn -0.2487 0.0390 -0.9678
vn -0.1648 -0.6777 0.7166
vn 0.0845 -0.4112 0.9076
vn 0.1505 -0.5529 0.8196
vn -0.9494 0.1798 -0.2576
vn 0.5243 -0.6794 -0.5133
vn 0.2674 -0.3293 -0.9056
vn 0.7001 -0.6236 -0.3479
vn 0.5021 -0.6391 -0.5827
vn -0.4776 -0.7177 -0.5068
vn -0.7266 -0.6326 -0.2680
vn 0.2681 -0.4799 -0.8353
vn 0.1970 -0.6615 -0.7236
vn -0.0787 -0.6801 -0.7289
vn 0.4000 -0.5811 -0.7088
vn 0.3005 -0.5660 -0.7677
vn -0.0000 -0.5584 -0.8296
vn -0.0000 -0.6318 -0.7752
vn -0.3005 -0.5660 -0.7677
vn -0.4000 -0.5811 -0.7088
vn 0.4776 -0.7177 -0.5068
vn 0.0787 -0.6801 -0.7289
vn 0.7266 -0.6326 -0.2680
vn -0.7305 -0.5053 -0.4595
vn -0.6799 -0.6028 -0.4176
vn -0.8341 0.2400 -0.4967
vn -0.9877 -0.0879 0.1295
vn -0.7872 -0.4672 -0.4025
vn -0.8792 -0.4173 -0.2298
vn -0.9702 0.0870 -0.2263
vn 0.6503 -0.7285 -0.2155
vn -0.9106 0.0785 0.4057
vn -0.8751 0.0446 0.4818
vn -0.9720 -0.1767 -0.1550
vn 0.9361 -0.2770 0.2168
vt 0.000000 0.000000
s 1
f 1/1/1 2/1/2 3/1/3
f 2/1/2 4/1/4 3/1/3
f 4/1/4 5/1/5 3/1/3
f 5/1/5 6/1/6 3/1/3
f 3/1/3 6/1/6 7/1/7
f 3/1/3 7/1/7 8/1/8
f 8/1/8 7/1/7 9/1/9
f 9/1/9 7/1/7 10/1/10
f 7/1/7 11/1/11 12/1/12
f 7/1/7 13/1/13 14/1/14
f 7/1/7 14/1/14 15/1/15
f 7/1/7 15/1/15 16/1/16
f 7/1/7 12/1/12 17/1/17
f 7/1/7 17/1/17 13/1/13
f 7/1/7 18/1/18 11/1/11
f 7/1/7 19/1/19 18/1/18
f 7/1/7 20/1/20 21/1/21
f 7/1/7 22/1/22 20/1/20
f 105/1/23 106/1/24 98/1/25 104/1/26
f 7/1/7 24/1/27 19/1/19
f 235/1/28 227/1/29 228/1/30 234/1/31
f 19/1/19 26/1/32 18/1/18
f 5/1/5 39/1/33 35/1/34 6/1/6
f 18/1/18 27/1/35 28/1/36
f 18/1/18 26/1/32 29/1/37
f 18/1/18 29/1/37 27/1/35
f 21/1/21 30/1/38 7/1/7
f 581/1/39 590/1/40 588/1/41 589/1/42
f 22/1/22 32/1/43 20/1/20
f 30/1/38 33/1/44 7/1/7
f 7/1/7 33/1/44 34/1/45
f 42/1/46 46/1/47 27/1/35 29/1/37
f 7/1/7 6/1/6 35/1/34
f 23/1/48 54/1/49 24/1/27 7/1/7
f 31/1/50 36/1/51 32/1/43
f 20/1/20 32/1/43 37/1/52
f 4/1/4 43/1/53 39/1/33 5/1/5
f 35/1/34 69/1/54 23/1/48 7/1/7
f 36/1/51 40/1/55 32/1/43
f 37/1/52 32/1/43 41/1/56
f 2/1/2 47/1/57 43/1/53 4/1/4
f 38/1/58 42/1/46 29/1/37 26/1/32
f 40/1/55 44/1/59 32/1/43
f 41/1/56 32/1/43 45/1/60
f 27/1/35 46/1/47 28/1/36
f 2/1/2 1/1/1 47/1/57
f 44/1/59 48/1/61 32/1/43
f 45/1/60 32/1/43 49/1/62
f 48/1/61 50/1/63 32/1/43
f 49/1/62 32/1/43 51/1/64
f 50/1/63 52/1/65 32/1/43
f 32/1/43 53/1/66 51/1/64
f 32/1/43 52/1/65 53/1/66
f 54/1/49 23/1/48 55/1/67
f 55/1/67 23/1/48 56/1/68
f 56/1/68 23/1/48 57/1/69
f 57/1/69 23/1/48 58/1/70
f 58/1/70 23/1/48 59/1/71
f 23/1/48 60/1/72 61/1/73
f 23/1/48 62/1/74 63/1/75
f 23/1/48 64/1/76 65/1/77
f 23/1/48 66/1/78 67/1/79
f 23/1/48 61/1/73 68/1/80
f 23/1/48 67/1/79 70/1/81
f 23/1/48 71/1/82 60/1/72
f 23/1/48 69/1/54 71/1/82
f 23/1/48 68/1/80 72/1/83
f 23/1/48 73/1/84 74/1/85
f 23/1/48 74/1/85 66/1/78
f 23/1/48 63/1/75 75/1/86
f 23/1/48 75/1/86 73/1/84
f 23/1/48 65/1/77 76/1/87
f 23/1/48 77/1/88 64/1/76
f 23/1/48 78/1/89 77/1/88
f 70/1/81 67/1/79 79/1/90
f 70/1/81 79/1/90 80/1/91
f 70/1/81 80/1/91 81/1/92
f 79/1/90 67/1/79 82/1/93
f 67/1/79 83/1/94 82/1/93
f 67/1/79 66/1/78 84/1/95
f 66/1/78 85/1/96 84/1/95
f 66/1/78 86/1/97 85/1/96
f 23/1/48 87/1/98 78/1/89
f 23/1/48 70/1/81 87/1/98
f 87/1/98 70/1/81 88/1/99
f 88/1/99 89/1/100 87/1/98
f 89/1/100 90/1/101 87/1/98
f 91/1/102 59/1/71 23/1/48
f 76/1/87 91/1/102 23/1/48
f 23/1/48 72/1/83 92/1/103
f 23/1/48 92/1/103 62/1/74
f 87/1/98 93/1/104 78/1/89
f 87/1/98 90/1/101 93/1/104
f 70/1/81 81/1/92 94/1/105
f 70/1/81 94/1/105 88/1/99
f 66/1/78 95/1/106 86/1/97
f 74/1/85 95/1/106 66/1/78
f 96/1/107 83/1/94 67/1/79
f 84/1/95 96/1/107 67/1/79
f 310/1/108 311/1/109 303/1/110 309/1/111
f 113/1/112 193/1/113 141/1/114 132/1/115
f 666/1/116 659/1/117 643/1/118 665/1/119
f 97/1/120 100/1/121 98/1/25 99/1/122
f 98/1/25 106/1/24 99/1/122
f 545/1/123 558/1/124 551/1/125 546/1/126
f 389/1/127 390/1/128 383/1/129 388/1/130
f 103/1/131 201/1/132 113/1/112 104/1/26
f 183/1/133 226/1/134 224/1/135 219/1/136
f 119/1/137 120/1/138 110/1/139 109/1/140
f 103/1/131 104/1/26 98/1/25 102/1/141
f 221/1/142 228/1/30 227/1/29 208/1/143
f 484/1/144 507/1/145 501/1/146 493/1/147
f 474/1/148 482/1/149 481/1/150 475/1/151
f 266/1/152 272/1/153 273/1/154 267/1/155
f 24/1/27 38/1/58 26/1/32 19/1/19
f 513/1/156 518/1/157 514/1/158 453/1/159
f 748/1/160 749/1/161 730/1/162 741/1/163
f 453/1/159 514/1/158 460/1/164 454/1/165
f 131/1/166 140/1/167 139/1/168 138/1/169
f 241/1/170 243/1/171 217/1/172 236/1/173
f 352/1/174 367/1/175 360/1/176 280/1/177
f 656/1/178 739/1/179 649/1/180 648/1/181
f 120/1/138 119/1/137 128/1/182
f 119/1/137 127/1/183 129/1/184
f 235/1/28 323/1/185 246/1/186 241/1/170
f 227/1/29 236/1/173 209/1/187 208/1/143
f 116/1/188 160/1/189 125/1/190 117/1/191
f 227/1/29 235/1/28 241/1/170 236/1/173
f 571/1/192 590/1/40 581/1/39 574/1/193
f 906/1/194 903/1/195 874/1/196 901/1/197
f 801/1/198 829/1/199 795/1/200 793/1/201
f 167/1/202 160/1/189 116/1/188 166/1/203
f 477/1/204 485/1/205 486/1/206 483/1/207
f 910/1/208 911/1/209 906/1/194 905/1/210
f 407/1/211 207/1/212 198/1/213 400/1/214
f 461/1/215 467/1/216 468/1/217 462/1/218
f 914/1/219 916/1/220 910/1/208 909/1/221
f 140/1/167 147/1/222 139/1/168
f 908/1/223 909/1/221 904/1/224 907/1/225
f 763/1/226 703/1/227 695/1/228 668/1/229
f 812/1/230 806/1/231 805/1/232 811/1/233
f 309/1/111 301/1/234 308/1/235 310/1/108
f 555/1/236 572/1/237 564/1/238 559/1/239
f 443/1/240 398/1/241 399/1/242 406/1/243
f 179/1/244 183/1/133 182/1/245 178/1/246
f 897/1/247 905/1/210 906/1/194 901/1/197
f 147/1/222 154/1/248 139/1/168
f 605/1/249 608/1/250 607/1/251 604/1/252
f 147/1/222 155/1/253 154/1/248
f 147/1/222 156/1/254 155/1/253
f 853/1/255 858/1/256 856/1/257 852/1/258
f 242/1/259 283/1/260 275/1/261 249/1/262
f 599/1/263 606/1/264 605/1/249 604/1/252
f 25/1/265 22/1/22 7/1/7 16/1/16
f 623/1/266 640/1/267 644/1/268 638/1/269
f 446/1/270 463/1/271 457/1/272 450/1/273
f 837/1/274 836/1/275 801/1/198 835/1/276
f 122/1/277 146/1/278 130/1/279 121/1/280
f 367/1/175 381/1/281 378/1/282 373/1/283
f 157/1/284 223/1/285 142/1/286 149/1/287
f 871/1/288 877/1/289 876/1/290 870/1/291
f 124/1/292 166/1/203 116/1/188 115/1/293
f 586/1/294 594/1/295 593/1/296 585/1/297
f 668/1/229 695/1/228 673/1/298 669/1/299
f 487/1/300 507/1/145 484/1/144 478/1/301
f 792/1/302 809/1/303 803/1/304 796/1/305
f 772/1/306 796/1/305 776/1/307 771/1/308
f 802/1/309 808/1/310 790/1/311 794/1/312
f 258/1/313 259/1/314 238/1/315 257/1/316
f 579/1/317 587/1/318 586/1/294 585/1/297
f 579/1/317 585/1/297 580/1/319 573/1/320
f 195/1/321 213/1/322 203/1/323 196/1/324
f 107/1/325 117/1/191 114/1/326 108/1/327
f 474/1/148 475/1/151 469/1/328 470/1/329
f 572/1/237 563/1/330 587/1/318 579/1/317
f 442/1/331 497/1/332 498/1/333 441/1/334
f 530/1/335 536/1/336 531/1/337 524/1/338
f 727/1/339 728/1/340 714/1/341 724/1/342
f 209/1/187 236/1/173 217/1/172 210/1/343
f 769/1/344 789/1/345 772/1/306 767/1/346
f 508/1/347 519/1/348 503/1/349 502/1/350
f 195/1/321 196/1/324 176/1/351 194/1/352
f 434/1/353 435/1/354 428/1/355 433/1/356
f 217/1/172 242/1/259 216/1/357 210/1/343
f 327/1/358 333/1/359 332/1/360 306/1/361
f 359/1/362 353/1/363 335/1/364 357/1/365
f 312/1/366 321/1/367 304/1/368 305/1/369
f 188/1/370 197/1/371 202/1/372 194/1/352
f 101/1/373 111/1/374 100/1/121 97/1/120
f 597/1/375 587/1/318 563/1/330 592/1/376
f 386/1/377 392/1/378 199/1/379 295/1/380
f 190/1/381 295/1/380 199/1/379 191/1/382
f 324/1/383 330/1/384 329/1/385 325/1/386
f 492/1/387 491/1/388 483/1/207 486/1/206
f 503/1/349 513/1/156 498/1/333 497/1/332
f 887/1/389 888/1/390 883/1/391 884/1/392
f 722/1/393 732/1/394 662/1/395 685/1/396
f 849/1/397 855/1/398 854/1/399 848/1/400
f 398/1/241 400/1/214 199/1/379 392/1/378
f 800/1/401 815/1/402 810/1/403 809/1/303
f 626/1/404 612/1/405 622/1/406 630/1/407
f 727/1/339 742/1/408 733/1/409 728/1/340
f 273/1/154 360/1/176 281/1/410 274/1/411
f 847/1/412 867/1/413 838/1/414 840/1/415
f 759/1/416 766/1/417 703/1/227 763/1/226
f 199/1/379 400/1/214 198/1/213 191/1/382
f 904/1/224 905/1/210 897/1/247 898/1/418
f 899/1/419 907/1/225 904/1/224 898/1/418
f 185/1/420 282/1/421 186/1/422 180/1/423
f 203/1/323 204/1/424 170/1/425 196/1/324
f 216/1/357 242/1/259 249/1/262 248/1/426
f 778/1/427 773/1/428 770/1/429 777/1/430
f 557/1/431 592/1/376 563/1/330 556/1/432
f 551/1/125 558/1/124 557/1/431 556/1/432
f 462/1/218 429/1/433 436/1/434 444/1/435
f 174/1/436 184/1/437 189/1/438 187/1/439
f 590/1/40 571/1/192 573/1/320 580/1/319
f 593/1/296 603/1/440 580/1/319 585/1/297
f 411/1/441 689/1/442 456/1/443 449/1/444
f 753/1/445 768/1/446 762/1/447 761/1/448
f 411/1/441 449/1/444 417/1/449 410/1/450
f 785/1/451 789/1/345 769/1/344 782/1/452
f 264/1/453 362/1/454 361/1/455 354/1/456
f 607/1/251 603/1/440 593/1/296 604/1/252
f 173/1/457 900/1/458 893/1/459 892/1/460
f 644/1/268 674/1/461 675/1/462 670/1/463
f 576/1/464 610/1/465 598/1/466 584/1/467
f 576/1/464 584/1/467 562/1/468 570/1/469
f 562/1/468 584/1/467 557/1/431 558/1/124
f 735/1/470 742/1/408 727/1/339 729/1/471
f 281/1/410 288/1/472 282/1/421 274/1/411
f 32/1/43 22/1/22 25/1/265 31/1/50
f 378/1/282 384/1/473 379/1/474 373/1/283
f 328/1/475 344/1/476 320/1/477 321/1/367
f 675/1/462 678/1/478 671/1/479 670/1/463
f 869/1/480 873/1/481 859/1/482 863/1/483
f 248/1/426 262/1/484 255/1/485 254/1/486
f 718/1/487 744/1/488 743/1/489 737/1/490
f 361/1/455 872/1/491 735/1/470 729/1/471
f 558/1/124 545/1/123 553/1/492 562/1/468
f 866/1/493 884/1/392 883/1/391 878/1/494
f 764/1/495 787/1/496 758/1/497 757/1/498
f 743/1/489 774/1/499 753/1/445 746/1/500
f 614/1/501 615/1/502 582/1/503 596/1/504
f 547/1/505 570/1/469 562/1/468 553/1/492
f 545/1/123 546/1/126 460/1/164 539/1/506
f 284/1/507 285/1/508 277/1/509 276/1/510
f 373/1/283 379/1/474 288/1/472 281/1/410
f 361/1/455 729/1/471 355/1/511 354/1/456
f 554/1/512 570/1/469 547/1/505 548/1/513
f 680/1/514 662/1/395 655/1/515 653/1/516
f 547/1/505 553/1/492 538/1/517 542/1/518
f 511/1/519 641/1/520 541/1/521 534/1/522
f 205/1/523 261/1/524 200/1/525 201/1/132
f 441/1/334 498/1/333 448/1/526 340/1/527
f 551/1/125 552/1/528 342/1/529 546/1/126
f 692/1/530 693/1/531 684/1/532 691/1/533
f 551/1/125 556/1/432 555/1/236 552/1/528
f 864/1/534 870/1/291 869/1/480 863/1/483
f 347/1/535 364/1/536 345/1/537 344/1/476
f 225/1/538 892/1/460 382/1/539 375/1/540
f 861/1/541 884/1/392 866/1/493 860/1/542
f 116/1/188 117/1/191 107/1/325 115/1/293
f 540/1/543 516/1/544 543/1/545 537/1/546
f 520/1/547 539/1/506 460/1/164 514/1/158
f 518/1/157 526/1/548 520/1/547 514/1/158
f 161/1/549 169/1/550 164/1/551 162/1/552
f 503/1/349 519/1/348 518/1/157 513/1/156
f 301/1/234 309/1/111 302/1/553 297/1/554
f 182/1/245 152/1/555 102/1/141 144/1/556
f 526/1/548 533/1/557 532/1/558 520/1/547
f 118/1/559 127/1/183 119/1/137 109/1/140
f 406/1/243 455/1/560 444/1/435 443/1/240
f 802/1/309 819/1/561 814/1/562 808/1/310
f 458/1/563 451/1/564 661/1/565 654/1/566
f 661/1/565 680/1/514 653/1/516 654/1/566
f 346/1/567 352/1/174 307/1/568 339/1/569
f 839/1/570 840/1/415 830/1/571 836/1/275
f 745/1/572 747/1/573 649/1/180 739/1/179
f 690/1/574 779/1/575 683/1/576 682/1/577
f 527/1/578 526/1/548 518/1/157 519/1/348
f 535/1/579 529/1/580 501/1/146 534/1/522
f 484/1/144 493/1/147 485/1/205 476/1/581
f 607/1/251 608/1/250 601/1/582 600/1/583
f 445/1/584 672/1/585 437/1/586 424/1/587
f 340/1/527 448/1/526 341/1/588 240/1/589
f 298/1/590 302/1/553 303/1/110
f 114/1/326 118/1/559 109/1/140 108/1/327
f 544/1/591 548/1/513 547/1/505 542/1/518
f 523/1/592 527/1/578 519/1/348 508/1/347
f 164/1/551 163/1/593 148/1/594 162/1/552
f 129/1/184 135/1/595 128/1/182 119/1/137
f 302/1/553 309/1/111 303/1/110
f 113/1/112 132/1/115 105/1/23 104/1/26
f 279/1/596 300/1/597 280/1/177 272/1/153
f 220/1/598 233/1/599 228/1/30 221/1/142
f 544/1/591 550/1/600 549/1/601 548/1/513
f 642/1/602 634/1/603 541/1/521 641/1/520
f 247/1/604 246/1/186 315/1/605
f 308/1/235 315/1/605 310/1/108
f 526/1/548 527/1/578 531/1/337 533/1/557
f 536/1/336 540/1/543 533/1/557 531/1/337
f 505/1/606 506/1/607 499/1/608 504/1/609
f 522/1/610 543/1/545 516/1/544 515/1/611
f 522/1/610 550/1/600 544/1/591 543/1/545
f 607/1/251 600/1/583 588/1/41 603/1/440
f 246/1/186 323/1/185 322/1/612
f 671/1/479 678/1/478 676/1/613 677/1/614
f 505/1/606 509/1/615 536/1/336 530/1/335
f 414/1/616 436/1/434 429/1/433 421/1/617
f 524/1/338 531/1/337 527/1/578 523/1/592
f 427/1/618 239/1/619 233/1/599 220/1/598
f 528/1/620 550/1/600 522/1/610 521/1/621
f 509/1/615 505/1/606 504/1/609 500/1/622
f 516/1/544 509/1/615 500/1/622 515/1/611
f 510/1/623 530/1/335 524/1/338 525/1/624
f 505/1/606 530/1/335 510/1/623 506/1/607
f 517/1/625 525/1/624 524/1/338 523/1/592
f 180/1/423 184/1/437 174/1/436 175/1/626
f 869/1/480 875/1/627 874/1/196 873/1/481
f 616/1/628 610/1/465 582/1/503 615/1/502
f 210/1/343 216/1/357 215/1/629 211/1/630
f 310/1/108 315/1/605 316/1/631 311/1/109
f 333/1/359 331/1/632 338/1/633
f 333/1/359 338/1/633 332/1/360
f 332/1/360 338/1/633 339/1/569
f 167/1/202 181/1/634 161/1/549 160/1/189
f 133/1/635 136/1/636 129/1/184 127/1/183
f 161/1/549 162/1/552 125/1/190 160/1/189
f 343/1/637 338/1/633 331/1/632
f 343/1/637 336/1/638 338/1/633
f 686/1/639 685/1/396 679/1/640 681/1/641
f 492/1/387 515/1/611 500/1/622 491/1/388
f 339/1/569 338/1/633 346/1/567
f 495/1/642 512/1/643 508/1/347 502/1/350
f 494/1/644 529/1/580 528/1/620 521/1/621
f 494/1/644 521/1/621 492/1/387 486/1/206
f 535/1/579 561/1/645 528/1/620 529/1/580
f 336/1/638 353/1/363 338/1/633
f 567/1/646 568/1/647 549/1/601 561/1/645
f 535/1/579 569/1/648 567/1/646 561/1/645
f 393/1/649 399/1/242 398/1/241 392/1/378
f 258/1/313 299/1/650 265/1/651 259/1/314
f 189/1/438 197/1/371 188/1/370 187/1/439
f 421/1/617 428/1/355 427/1/618 214/1/652
f 489/1/653 490/1/654 481/1/150 482/1/149
f 353/1/363 359/1/362 338/1/633
f 584/1/467 598/1/466 592/1/376 557/1/431
f 575/1/655 577/1/656 554/1/512 568/1/647
f 567/1/646 583/1/657 575/1/655 568/1/647
f 733/1/409 857/1/658 740/1/659 734/1/660
f 130/1/279 137/1/661 111/1/374 121/1/280
f 473/1/662 434/1/353 433/1/356 468/1/217
f 359/1/362 366/1/663 338/1/633
f 154/1/248 145/1/664 138/1/169 139/1/168
f 683/1/576 678/1/478 675/1/462 682/1/577
f 417/1/449 418/1/665 412/1/666 410/1/450
f 857/1/658 733/1/409 742/1/408 750/1/667
f 893/1/459 900/1/458 899/1/419 898/1/418
f 296/1/668 284/1/507 276/1/510 275/1/261
f 366/1/663 372/1/669 338/1/633
f 105/1/23 115/1/293 107/1/325 106/1/24
f 203/1/323 221/1/142 208/1/143 204/1/424
f 616/1/628 617/1/670 598/1/466 610/1/465
f 141/1/114 175/1/626 124/1/292 132/1/115
f 740/1/659 741/1/163 725/1/671 734/1/660
f 673/1/298 695/1/228 690/1/574 682/1/577
f 280/1/177 360/1/176 273/1/154 272/1/153
f 480/1/672 496/1/673 497/1/332 442/1/331
f 446/1/270 450/1/273 430/1/674 439/1/675
f 346/1/567 338/1/633 381/1/281
f 378/1/282 381/1/281 338/1/633
f 597/1/375 617/1/670 618/1/676 611/1/677
f 788/1/678 794/1/312 790/1/311 786/1/679
f 471/1/680 477/1/204 474/1/148 470/1/329
f 378/1/282 338/1/633 384/1/473
f 380/1/681 386/1/377 295/1/380 289/1/682
f 384/1/473 338/1/633 385/1/683
f 325/1/386 343/1/637 331/1/632 326/1/684
f 805/1/232 806/1/231 798/1/685 797/1/686
f 429/1/433 433/1/356 428/1/355 421/1/617
f 464/1/687 466/1/688 471/1/680 470/1/329
f 125/1/190 162/1/552 148/1/594 134/1/689
f 385/1/683 338/1/633 391/1/690
f 419/1/691 413/1/692 412/1/666 418/1/665
f 849/1/397 848/1/400 839/1/570 844/1/693
f 391/1/690 338/1/633 393/1/649
f 730/1/162 731/1/694 716/1/695 726/1/696
f 487/1/300 646/1/697 511/1/519 507/1/145
f 356/1/698 715/1/699 709/1/700 710/1/701
f 372/1/669 397/1/702 338/1/633
f 210/1/343 211/1/630 177/1/703 209/1/187
f 419/1/691 426/1/704 422/1/705 420/1/706
f 393/1/649 338/1/633 399/1/242
f 215/1/629 218/1/707 168/1/708 211/1/630
f 207/1/212 414/1/616 206/1/709 202/1/372
f 830/1/571 831/1/710 825/1/711 829/1/199
f 397/1/702 402/1/712 338/1/633
f 478/1/301 484/1/144 476/1/581 459/1/713
f 458/1/563 654/1/566 487/1/300 478/1/301
f 458/1/563 478/1/301 459/1/713 452/1/714
f 399/1/242 338/1/633 406/1/243
f 124/1/292 175/1/626 174/1/436 166/1/203
f 748/1/160 845/1/715 756/1/716 749/1/161
f 402/1/712 408/1/717 338/1/633
f 424/1/587 437/1/586 431/1/718 425/1/719
f 521/1/621 522/1/610 515/1/611 492/1/387
f 708/1/720 726/1/696 716/1/695 711/1/721
f 722/1/393 685/1/396 686/1/639 717/1/722
f 408/1/717 415/1/723 338/1/633
f 274/1/411 282/1/421 185/1/420 192/1/724
f 487/1/300 654/1/566 653/1/516 646/1/697
f 264/1/453 305/1/369 258/1/313 257/1/316
f 437/1/586 672/1/585 661/1/565 451/1/564
f 437/1/586 451/1/564 438/1/725 431/1/718
f 438/1/725 440/1/726 432/1/727 431/1/718
f 349/1/728 350/1/729 328/1/475 348/1/730
f 407/1/211 443/1/240 444/1/435 436/1/434
f 432/1/727 439/1/675 422/1/705 426/1/704
f 422/1/705 439/1/675 430/1/674 423/1/731
f 415/1/723 423/1/731 338/1/633
f 866/1/493 867/1/413 847/1/412 860/1/542
f 432/1/727 426/1/704 425/1/719 431/1/718
f 191/1/382 189/1/438 184/1/437 190/1/381
f 393/1/649 392/1/378 386/1/377 391/1/690
f 258/1/313 305/1/369 304/1/368 299/1/650
f 472/1/732 479/1/733 480/1/672 473/1/662
f 231/1/734 369/1/735 237/1/736 232/1/737
f 423/1/731 430/1/674 338/1/633
f 424/1/587 425/1/719 418/1/665 417/1/449
f 407/1/211 400/1/214 398/1/241 443/1/240
f 208/1/143 209/1/187 177/1/703 204/1/424
f 582/1/503 610/1/465 576/1/464 577/1/656
f 231/1/734 375/1/540 374/1/738 369/1/735
f 164/1/551 171/1/739 168/1/708 163/1/593
f 438/1/725 452/1/714 447/1/740 440/1/726
f 413/1/692 419/1/691 420/1/706 401/1/741
f 167/1/202 187/1/439 188/1/370 181/1/634
f 403/1/742 409/1/743 404/1/744 396/1/745
f 202/1/372 206/1/709 195/1/321 194/1/352
f 759/1/416 763/1/226 663/1/746 755/1/747
f 750/1/667 858/1/256 853/1/255 857/1/658
f 417/1/449 449/1/444 445/1/584 424/1/587
f 401/1/741 420/1/706 415/1/723 408/1/717
f 395/1/748 413/1/692 401/1/741 394/1/749
f 412/1/666 413/1/692 395/1/748 405/1/750
f 233/1/599 240/1/589 234/1/31 228/1/30
f 430/1/674 450/1/273 338/1/633
f 410/1/450 412/1/666 405/1/750 404/1/744
f 601/1/582 602/1/751 595/1/752 600/1/583
f 406/1/243 338/1/633 455/1/560
f 445/1/584 681/1/641 679/1/640 672/1/585
f 679/1/640 680/1/514 661/1/565 672/1/585
f 401/1/741 408/1/717 402/1/712 394/1/749
f 450/1/273 457/1/272 338/1/633
f 387/1/753 405/1/750 395/1/748 388/1/130
f 220/1/598 221/1/142 203/1/323 213/1/322
f 260/1/754 261/1/524 205/1/523 253/1/755
f 260/1/754 271/1/756 266/1/152 261/1/524
f 455/1/560 338/1/633 461/1/215
f 125/1/190 134/1/689 114/1/326 117/1/191
f 657/1/757 755/1/747 663/1/746 658/1/758
f 397/1/702 389/1/127 394/1/749 402/1/712
f 457/1/272 465/1/759 338/1/633
f 388/1/130 395/1/748 394/1/749 389/1/127
f 461/1/215 338/1/633 467/1/216
f 137/1/661 144/1/556 100/1/121 111/1/374
f 533/1/557 540/1/543 537/1/546 532/1/558
f 389/1/127 397/1/702 372/1/669 390/1/128
f 465/1/759 469/1/328 338/1/633
f 237/1/736 257/1/316 238/1/315 232/1/737
f 387/1/753 388/1/130 383/1/129 377/1/760
f 467/1/216 338/1/633 472/1/732
f 274/1/411 192/1/724 267/1/155 273/1/154
f 493/1/147 494/1/644 486/1/206 485/1/205
f 897/1/247 901/1/197 881/1/761 894/1/762
f 363/1/763 390/1/128 372/1/669 366/1/663
f 469/1/328 475/1/151 338/1/633
f 377/1/760 383/1/129 365/1/764 371/1/765
f 377/1/760 376/1/766 396/1/745 387/1/753
f 472/1/732 338/1/633 479/1/733
f 720/1/767 734/1/660 725/1/671 721/1/768
f 564/1/238 565/1/769 560/1/770 559/1/239
f 363/1/763 366/1/663 359/1/362 357/1/365
f 475/1/151 481/1/150 338/1/633
f 358/1/771 365/1/764 363/1/763 357/1/365
f 376/1/766 377/1/760 371/1/765 370/1/772
f 364/1/536 371/1/765 365/1/764 358/1/771
f 345/1/537 351/1/773 330/1/384 337/1/774
f 376/1/766 710/1/701 403/1/742 396/1/745
f 563/1/330 572/1/237 555/1/236 556/1/432
f 479/1/733 338/1/633 488/1/775
f 276/1/510 269/1/776 249/1/262 275/1/261
f 481/1/150 490/1/654 338/1/633
f 351/1/773 358/1/771 357/1/365 335/1/364
f 345/1/537 364/1/536 358/1/771 351/1/773
f 370/1/772 371/1/765 364/1/536 347/1/535
f 282/1/421 288/1/472 289/1/682 186/1/422
f 488/1/775 338/1/633 495/1/642
f 498/1/333 513/1/156 453/1/159 448/1/526
f 460/1/164 546/1/126 342/1/529 454/1/165
f 341/1/588 454/1/165 342/1/529 334/1/777
f 461/1/215 462/1/218 444/1/435 455/1/560
f 335/1/364 353/1/363 336/1/638 329/1/385
f 490/1/654 499/1/608 338/1/633
f 440/1/726 446/1/270 439/1/675 432/1/727
f 330/1/384 351/1/773 335/1/364 329/1/385
f 356/1/698 370/1/772 347/1/535 350/1/729
f 710/1/701 376/1/766 370/1/772 356/1/698
f 765/1/778 771/1/308 770/1/429 766/1/417
f 346/1/567 381/1/281 367/1/175 352/1/174
f 336/1/638 343/1/637 325/1/386 329/1/385
f 499/1/608 506/1/607 338/1/633
f 307/1/568 352/1/174 280/1/177 300/1/597
f 468/1/217 433/1/356 429/1/433 462/1/218
f 177/1/703 211/1/630 168/1/708 171/1/739
f 506/1/607 510/1/623 338/1/633
f 200/1/525 267/1/155 192/1/724 193/1/113
f 403/1/742 710/1/701 709/1/700 702/1/779
f 501/1/146 529/1/580 494/1/644 493/1/147
f 495/1/642 338/1/633 512/1/643
f 271/1/756 279/1/596 272/1/153 266/1/152
f 407/1/211 436/1/434 414/1/616 207/1/212
f 512/1/643 338/1/633 517/1/625
f 332/1/360 339/1/569 307/1/568 306/1/361
f 552/1/528 555/1/236 559/1/239 323/1/185
f 671/1/479 667/1/780 666/1/116 665/1/119
f 476/1/581 485/1/205 477/1/204 471/1/680
f 344/1/476 345/1/537 337/1/774 320/1/477
f 516/1/544 540/1/543 536/1/336 509/1/615
f 765/1/778 766/1/417 759/1/416 760/1/781
f 538/1/517 553/1/492 545/1/123 539/1/506
f 517/1/625 338/1/633 525/1/624
f 176/1/351 196/1/324 170/1/425 169/1/550
f 525/1/624 338/1/633 510/1/623
f 142/1/286 230/1/782 136/1/636 133/1/635
f 748/1/160 851/1/783 846/1/784 845/1/715
f 349/1/728 724/1/342 714/1/341 715/1/699
f 735/1/470 872/1/491 871/1/288 865/1/785
f 326/1/684 327/1/358 319/1/786 318/1/787
f 286/1/788 293/1/789 287/1/790 278/1/791
f 293/1/789 319/1/786 294/1/792 287/1/790
f 355/1/511 724/1/342 349/1/728 348/1/730
f 715/1/699 356/1/698 350/1/729 349/1/728
f 618/1/676 622/1/406 612/1/405 611/1/677
f 126/1/793 133/1/635 127/1/183 118/1/559
f 317/1/794 324/1/383 318/1/787 313/1/795
f 292/1/796 313/1/795 293/1/789 286/1/788
f 265/1/651 286/1/788 278/1/791 270/1/797
f 265/1/651 299/1/650 292/1/796 286/1/788
f 709/1/700 715/1/699 714/1/341 713/1/798
f 317/1/794 337/1/774 330/1/384 324/1/383
f 314/1/799 317/1/794 313/1/795 292/1/796
f 304/1/368 314/1/799 292/1/796 299/1/650
f 864/1/534 863/1/483 856/1/257 858/1/256
f 265/1/651 270/1/797 252/1/800 259/1/314
f 861/1/541 889/1/801 887/1/389 884/1/392
f 435/1/354 441/1/334 340/1/527 239/1/619
f 572/1/237 579/1/317 573/1/320 564/1/238
f 328/1/475 350/1/729 347/1/535 344/1/476
f 312/1/366 348/1/730 328/1/475 321/1/367
f 212/1/802 253/1/755 205/1/523 151/1/803
f 252/1/800 253/1/755 212/1/802 245/1/804
f 629/1/805 627/1/806 591/1/807 628/1/808
f 264/1/453 354/1/456 312/1/366 305/1/369
f 152/1/555 219/1/136 212/1/802 151/1/803
f 588/1/41 600/1/583 595/1/752 589/1/42
f 705/1/809 706/1/810 698/1/811 697/1/812
f 323/1/185 559/1/239 560/1/770
f 425/1/719 426/1/704 419/1/691 418/1/665
f 170/1/425 171/1/739 164/1/551 169/1/550
f 173/1/457 172/1/813 153/1/814 165/1/815
f 888/1/390 890/1/816 885/1/817 883/1/391
f 183/1/133 219/1/136 152/1/555 182/1/245
f 266/1/152 267/1/155 200/1/525 261/1/524
f 174/1/436 187/1/439 167/1/202 166/1/203
f 560/1/770 565/1/769 566/1/818
f 214/1/652 427/1/618 220/1/598 213/1/322
f 243/1/171 283/1/260 242/1/259 217/1/172
f 331/1/632 333/1/359 327/1/358 326/1/684
f 906/1/194 911/1/209 896/1/819 903/1/195
f 182/1/245 144/1/556 137/1/661 178/1/246
f 632/1/820 633/1/821 614/1/501 627/1/806
f 554/1/512 577/1/656 576/1/464 570/1/469
f 832/1/822 826/1/823 825/1/711 831/1/710
f 237/1/736 362/1/454 264/1/453 257/1/316
f 459/1/713 466/1/688 447/1/740 452/1/714
f 355/1/511 729/1/471 727/1/339 724/1/342
f 230/1/782 150/1/824 143/1/825 136/1/636
f 653/1/516 655/1/515 647/1/826 646/1/697
f 112/1/827 121/1/280 111/1/374 101/1/373
f 872/1/491 361/1/455 362/1/454 368/1/828
f 237/1/736 369/1/735 368/1/828 362/1/454
f 459/1/713 476/1/581 471/1/680 466/1/688
f 161/1/549 181/1/634 176/1/351 169/1/550
f 278/1/791 287/1/790 279/1/596 271/1/756
f 367/1/175 373/1/283 281/1/410 360/1/176
f 756/1/716 835/1/276 764/1/495 757/1/498
f 578/1/829 583/1/657 567/1/646 569/1/648
f 232/1/737 224/1/135 226/1/134 231/1/734
f 131/1/166 138/1/169 122/1/277 123/1/830
f 153/1/814 172/1/813 130/1/279 146/1/278
f 867/1/413 850/1/831 841/1/832 838/1/414
f 225/1/538 226/1/134 183/1/133 179/1/244
f 173/1/457 892/1/460 225/1/538 179/1/244
f 537/1/546 543/1/545 544/1/591 542/1/518
f 225/1/538 375/1/540 231/1/734 226/1/134
f 158/1/833 165/1/815 153/1/814 159/1/834
f 495/1/642 502/1/350 496/1/673 488/1/775
f 247/1/604 315/1/605 308/1/235 290/1/835
f 224/1/135 245/1/804 212/1/802 219/1/136
f 241/1/170 246/1/186 247/1/604 243/1/171
f 240/1/589 341/1/588 334/1/777 234/1/31
f 145/1/664 159/1/834 153/1/814 146/1/278
f 605/1/249 609/1/836 608/1/250
f 606/1/264 609/1/836 605/1/249
f 601/1/582 608/1/250 609/1/836
f 601/1/582 609/1/836 602/1/751
f 488/1/775 496/1/673 480/1/672 479/1/733
f 368/1/828 877/1/289 871/1/288 872/1/491
f 148/1/594 149/1/287 126/1/793 134/1/689
f 805/1/232 797/1/686 783/1/837 804/1/838
f 877/1/289 368/1/828 369/1/735 374/1/738
f 893/1/459 894/1/762 382/1/539 892/1/460
f 781/1/839 786/1/679 785/1/451 782/1/452
f 882/1/840 374/1/738 375/1/540 382/1/539
f 294/1/792 300/1/597 279/1/596 287/1/790
f 776/1/307 804/1/838 783/1/837 777/1/430
f 758/1/497 780/1/841 751/1/842 752/1/843
f 528/1/620 561/1/645 549/1/601 550/1/600
f 876/1/290 882/1/840 881/1/761 875/1/627
f 306/1/361 307/1/568 300/1/597 294/1/792
f 735/1/470 865/1/785 750/1/667 742/1/408
f 893/1/459 898/1/418 897/1/247 894/1/762
f 754/1/844 755/1/747 657/1/757 747/1/573
f 517/1/625 523/1/592 508/1/347 512/1/643
f 464/1/687 470/1/329 469/1/328 465/1/759
f 172/1/813 178/1/246 137/1/661 130/1/279
f 864/1/534 865/1/785 871/1/288 870/1/291
f 491/1/388 489/1/653 482/1/149 483/1/207
f 320/1/477 337/1/774 317/1/794 314/1/799
f 238/1/315 245/1/804 224/1/135 232/1/737
f 624/1/845 645/1/846 631/1/847 625/1/848
f 114/1/326 134/1/689 126/1/793 118/1/559
f 714/1/341 728/1/340 720/1/767 713/1/798
f 538/1/517 539/1/506 520/1/547 532/1/558
f 599/1/263 604/1/252 593/1/296 594/1/295
f 910/1/208 905/1/210 904/1/224 909/1/221
f 881/1/761 901/1/197 874/1/196 875/1/627
f 112/1/827 123/1/830 122/1/277 121/1/280
f 676/1/613 691/1/533 684/1/532 677/1/614
f 709/1/700 713/1/798 701/1/849 702/1/779
f 720/1/767 721/1/768 701/1/849 713/1/798
f 537/1/546 542/1/518 538/1/517 532/1/558
f 908/1/223 915/1/850 914/1/219 909/1/221
f 155/1/253 159/1/834 145/1/664 154/1/248
f 416/1/851 702/1/779 701/1/849 700/1/852
f 403/1/742 702/1/779 416/1/851 409/1/743
f 701/1/849 721/1/768 708/1/720 700/1/852
f 725/1/671 726/1/696 708/1/720 721/1/768
f 472/1/732 473/1/662 468/1/217 467/1/216
f 188/1/370 194/1/352 176/1/351 181/1/634
f 651/1/853 660/1/854 652/1/855
f 651/1/853 659/1/117 660/1/854
f 689/1/442 411/1/441 409/1/743 416/1/851
f 404/1/744 409/1/743 411/1/441 410/1/450
f 679/1/640 685/1/396 662/1/395 680/1/514
f 416/1/851 700/1/852 687/1/856 689/1/442
f 197/1/371 198/1/213 207/1/212 202/1/372
f 255/1/485 262/1/484 263/1/857 256/1/858
f 740/1/659 857/1/658 853/1/255 851/1/783
f 659/1/117 666/1/116 660/1/854
f 910/1/208 916/1/220 912/1/859 911/1/209
f 660/1/854 666/1/116 667/1/780
f 616/1/628 621/1/860 618/1/676 617/1/670
f 451/1/564 458/1/563 452/1/714 438/1/725
f 322/1/612 316/1/631 315/1/605 246/1/186
f 912/1/859 913/1/861 896/1/819 911/1/209
f 856/1/257 863/1/483 859/1/482 855/1/398
f 580/1/319 603/1/440 588/1/41 590/1/40
f 874/1/196 903/1/195 868/1/862 873/1/481
f 868/1/862 903/1/195 896/1/819 889/1/801
f 859/1/482 873/1/481 868/1/862 862/1/863
f 896/1/819 902/1/864 887/1/389 889/1/801
f 549/1/601 568/1/647 554/1/512 548/1/513
f 290/1/835 296/1/668 275/1/261 283/1/260
f 456/1/443 689/1/442 687/1/856 688/1/865
f 598/1/466 617/1/670 597/1/375 592/1/376
f 868/1/862 889/1/801 861/1/541 862/1/863
f 887/1/389 902/1/864 895/1/866 888/1/390
f 456/1/443 688/1/865 686/1/639 681/1/641
f 785/1/451 791/1/867 792/1/302 789/1/345
f 290/1/835 308/1/235 301/1/234 296/1/668
f 753/1/445 761/1/448 745/1/572 746/1/500
f 859/1/482 862/1/863 854/1/399 855/1/398
f 854/1/399 862/1/863 861/1/541 860/1/542
f 895/1/866 891/1/868 890/1/816 888/1/390
f 647/1/826 648/1/181 642/1/602 641/1/520
f 325/1/386 326/1/684 318/1/787 324/1/383
f 342/1/529 552/1/528 323/1/185 334/1/777
f 673/1/298 682/1/577 675/1/462 674/1/461
f 692/1/530 699/1/869 693/1/531
f 692/1/530 698/1/811 699/1/869
f 456/1/443 681/1/641 445/1/584 449/1/444
f 447/1/740 466/1/688 464/1/687 463/1/271
f 856/1/257 855/1/398 849/1/397 852/1/258
f 511/1/519 646/1/697 647/1/826 641/1/520
f 284/1/507 297/1/554 291/1/870 285/1/508
f 878/1/494 883/1/391 885/1/817 879/1/871
f 698/1/811 706/1/810 699/1/869
f 699/1/869 706/1/810 707/1/872
f 662/1/395 732/1/394 656/1/178 655/1/515
f 206/1/709 414/1/616 421/1/617 214/1/652
f 708/1/720 711/1/721 687/1/856 700/1/852
f 126/1/793 149/1/287 142/1/286 133/1/635
f 511/1/519 534/1/522 501/1/146 507/1/145
f 158/1/833 159/1/834 155/1/253 156/1/254
f 866/1/493 878/1/494 850/1/831 867/1/413
f 318/1/787 319/1/786 293/1/789 313/1/795
f 541/1/521 569/1/648 535/1/579 534/1/522
f 382/1/539 894/1/762 881/1/761 882/1/840
f 738/1/873 739/1/179 656/1/178 732/1/394
f 229/1/874 244/1/875 150/1/824 230/1/782
f 141/1/114 185/1/420 180/1/423 175/1/626
f 238/1/315 259/1/314 252/1/800 245/1/804
f 694/1/876 719/1/877 718/1/487 717/1/722
f 694/1/876 717/1/722 686/1/639 688/1/865
f 687/1/856 711/1/721 694/1/876 688/1/865
f 148/1/594 163/1/593 157/1/284 149/1/287
f 374/1/738 882/1/840 876/1/290 877/1/289
f 186/1/422 190/1/381 184/1/437 180/1/423
f 649/1/180 650/1/878 642/1/602 648/1/181
f 541/1/521 634/1/603 578/1/829 569/1/648
f 722/1/393 737/1/490 738/1/873 732/1/394
f 738/1/873 746/1/500 745/1/572 739/1/179
f 435/1/354 434/1/353 442/1/331 441/1/334
f 635/1/879 628/1/808 578/1/829 634/1/603
f 642/1/602 650/1/878 635/1/879 634/1/603
f 578/1/829 628/1/808 591/1/807 583/1/657
f 591/1/807 596/1/504 575/1/655 583/1/657
f 723/1/880 752/1/843 751/1/842 744/1/488
f 290/1/835 283/1/260 243/1/171 247/1/604
f 716/1/695 719/1/877 694/1/876 711/1/721
f 195/1/321 206/1/709 214/1/652 213/1/322
f 649/1/180 747/1/573 657/1/757 650/1/878
f 657/1/757 658/1/758 635/1/879 650/1/878
f 723/1/880 744/1/488 718/1/487 719/1/877
f 716/1/695 731/1/694 723/1/880 719/1/877
f 191/1/382 198/1/213 197/1/371 189/1/438
f 725/1/671 741/1/163 730/1/162 726/1/696
f 745/1/572 761/1/448 754/1/844 747/1/573
f 296/1/668 301/1/234 297/1/554 284/1/507
f 718/1/487 737/1/490 722/1/393 717/1/722
f 635/1/879 658/1/758 629/1/805 628/1/808
f 751/1/842 774/1/499 743/1/489 744/1/488
f 222/1/881 223/1/285 157/1/284 218/1/707
f 736/1/882 752/1/843 723/1/880 731/1/694
f 730/1/162 749/1/161 736/1/882 731/1/694
f 597/1/375 611/1/677 586/1/294 587/1/318
f 740/1/659 851/1/783 748/1/160 741/1/163
f 762/1/447 760/1/781 754/1/844 761/1/448
f 215/1/629 254/1/486 222/1/881 218/1/707
f 753/1/445 774/1/499 775/1/883 768/1/446
f 751/1/842 780/1/841 775/1/883 774/1/499
f 853/1/255 852/1/258 846/1/784 851/1/783
f 173/1/457 179/1/244 178/1/246 172/1/813
f 447/1/740 463/1/271 446/1/270 440/1/726
f 756/1/716 757/1/498 736/1/882 749/1/161
f 846/1/784 852/1/258 849/1/397 844/1/693
f 762/1/447 768/1/446 769/1/344 767/1/346
f 775/1/883 782/1/452 769/1/344 768/1/446
f 837/1/274 845/1/715 846/1/784 844/1/693
f 564/1/238 573/1/320 571/1/192 565/1/769
f 750/1/667 865/1/785 864/1/534 858/1/256
f 262/1/484 269/1/776 268/1/884 263/1/857
f 837/1/274 844/1/693 839/1/570 836/1/275
f 385/1/683 391/1/690 386/1/377 380/1/681
f 764/1/495 835/1/276 801/1/198 793/1/201
f 758/1/497 787/1/496 781/1/839 780/1/841
f 736/1/882 757/1/498 758/1/497 752/1/843
f 222/1/881 250/1/885 229/1/874 223/1/285
f 733/1/409 734/1/660 720/1/767 728/1/340
f 801/1/198 836/1/275 830/1/571 829/1/199
f 312/1/366 354/1/456 355/1/511 348/1/730
f 839/1/570 848/1/400 847/1/412 840/1/415
f 575/1/655 596/1/504 582/1/503 577/1/656
f 255/1/485 256/1/858 251/1/886 250/1/885
f 781/1/839 782/1/452 775/1/883 780/1/841
f 830/1/571 840/1/415 838/1/414 831/1/710
f 620/1/887 640/1/267 623/1/266 621/1/860
f 136/1/636 143/1/825 135/1/595 129/1/184
f 764/1/495 793/1/201 788/1/678 787/1/496
f 788/1/678 786/1/679 781/1/839 787/1/496
f 168/1/708 218/1/707 157/1/284 163/1/593
f 229/1/874 230/1/782 142/1/286 223/1/285
f 790/1/311 791/1/867 785/1/451 786/1/679
f 170/1/425 204/1/424 177/1/703 171/1/739
f 795/1/200 794/1/312 788/1/678 793/1/201
f 383/1/129 390/1/128 363/1/763 365/1/764
f 304/1/368 321/1/367 320/1/477 314/1/799
f 879/1/871 880/1/888 850/1/831 878/1/494
f 795/1/200 822/1/889 802/1/309 794/1/312
f 854/1/399 860/1/542 847/1/412 848/1/400
f 792/1/302 796/1/305 772/1/306 789/1/345
f 489/1/653 504/1/609 499/1/608 490/1/654
f 800/1/401 809/1/303 792/1/302 791/1/867
f 790/1/311 808/1/310 800/1/401 791/1/867
f 474/1/148 477/1/204 483/1/207 482/1/149
f 795/1/200 829/1/199 825/1/711 822/1/889
f 838/1/414 841/1/832 832/1/822 831/1/710
f 842/1/890 833/1/891 832/1/822 841/1/832
f 141/1/114 193/1/113 192/1/724 185/1/420
f 798/1/685 806/1/231 807/1/892
f 798/1/685 807/1/892 799/1/893
f 802/1/309 822/1/889 821/1/894 819/1/561
f 825/1/711 826/1/823 821/1/894 822/1/889
f 806/1/231 812/1/230 807/1/892
f 832/1/822 833/1/891 827/1/895 826/1/823
f 100/1/121 144/1/556 102/1/141 98/1/25
f 807/1/892 812/1/230 813/1/896
f 422/1/705 423/1/731 415/1/723 420/1/706
f 814/1/562 815/1/402 800/1/401 808/1/310
f 821/1/894 824/1/897 820/1/898 819/1/561
f 820/1/898 818/1/899 814/1/562 819/1/561
f 480/1/672 442/1/331 434/1/353 473/1/662
f 647/1/826 655/1/515 656/1/178 648/1/181
f 571/1/192 574/1/193 566/1/818 565/1/769
f 818/1/899 820/1/898 823/1/900
f 816/1/901 823/1/900 817/1/902
f 816/1/901 818/1/899 823/1/900
f 820/1/898 824/1/897 823/1/900
f 107/1/325 108/1/327 99/1/122 106/1/24
f 453/1/159 454/1/165 341/1/588 448/1/526
f 810/1/403 813/1/896 812/1/230 811/1/233
f 803/1/304 804/1/838 776/1/307 796/1/305
f 502/1/350 503/1/349 497/1/332 496/1/673
f 278/1/791 271/1/756 260/1/754 270/1/797
f 803/1/304 811/1/233 805/1/232 804/1/838
f 827/1/895 833/1/891 834/1/903
f 827/1/895 834/1/903 828/1/904
f 765/1/778 767/1/346 772/1/306 771/1/308
f 762/1/447 767/1/346 765/1/778 760/1/781
f 404/1/744 405/1/750 387/1/753 396/1/745
f 289/1/682 295/1/380 190/1/381 186/1/422
f 814/1/562 818/1/899 816/1/901 815/1/402
f 776/1/307 777/1/430 770/1/429 771/1/308
f 833/1/891 842/1/890 834/1/903
f 105/1/23 132/1/115 124/1/292 115/1/293
f 834/1/903 842/1/890 843/1/905
f 754/1/844 760/1/781 759/1/416 755/1/747
f 319/1/786 327/1/358 306/1/361 294/1/792
f 783/1/837 784/1/906 778/1/427 777/1/430
f 248/1/426 254/1/486 215/1/629 216/1/357
f 288/1/472 379/1/474 380/1/681 289/1/682
f 770/1/429 773/1/428 703/1/227 766/1/417
f 798/1/685 799/1/893 712/1/907 797/1/686
f 783/1/837 797/1/686 712/1/907 784/1/906
f 428/1/355 435/1/354 239/1/619 427/1/618
f 385/1/683 380/1/681 379/1/474 384/1/473
f 703/1/227 773/1/428 690/1/574 695/1/228
f 778/1/427 779/1/575 690/1/574 773/1/428
f 229/1/874 250/1/885 251/1/886 244/1/875
f 663/1/746 763/1/226 668/1/229 664/1/908
f 663/1/746 664/1/908 629/1/805 658/1/758
f 756/1/716 845/1/715 837/1/274 835/1/276
f 643/1/118 645/1/846 624/1/845 636/1/909
f 249/1/262 269/1/776 262/1/484 248/1/426
f 668/1/229 669/1/299 632/1/820 664/1/908
f 629/1/805 664/1/908 632/1/820 627/1/806
f 779/1/575 704/1/910 696/1/911 683/1/576
f 778/1/427 784/1/906 704/1/910 779/1/575
f 205/1/523 201/1/132 103/1/131 151/1/803
f 816/1/901 817/1/902 810/1/403 815/1/402
f 810/1/403 811/1/233 803/1/304 809/1/303
f 673/1/298 674/1/461 639/1/912 669/1/299
f 632/1/820 669/1/299 639/1/912 633/1/821
f 591/1/807 627/1/806 614/1/501 596/1/504
f 464/1/687 465/1/759 457/1/272 463/1/271
f 743/1/489 746/1/500 738/1/873 737/1/490
f 841/1/832 850/1/831 843/1/905 842/1/890
f 639/1/912 674/1/461 644/1/268 640/1/267
f 639/1/912 640/1/267 620/1/887 633/1/821
f 614/1/501 633/1/821 620/1/887 615/1/502
f 620/1/887 621/1/860 616/1/628 615/1/502
f 712/1/907 707/1/872 706/1/810 705/1/809
f 102/1/141 152/1/555 151/1/803 103/1/131
f 500/1/622 504/1/609 489/1/653 491/1/388
f 618/1/676 621/1/860 623/1/266 622/1/406
f 704/1/910 705/1/809 697/1/812 696/1/911
f 297/1/554 302/1/553 298/1/590 291/1/870
f 879/1/871 885/1/817 886/1/913
f 879/1/871 886/1/913 880/1/888
f 683/1/576 696/1/911 676/1/613 678/1/478
f 676/1/613 696/1/911 697/1/812 691/1/533
f 698/1/811 692/1/530 691/1/533 697/1/812
f 885/1/817 890/1/816 886/1/913
f 886/1/913 890/1/816 891/1/868
f 612/1/405 613/1/914 586/1/294 611/1/677
f 252/1/800 270/1/797 260/1/754 253/1/755
f 704/1/910 784/1/906 712/1/907 705/1/809
f 827/1/895 828/1/904 821/1/894 826/1/823
f 234/1/31 334/1/777 323/1/185 235/1/28
f 651/1/853 652/1/855 631/1/847 645/1/846
f 239/1/619 340/1/527 240/1/589 233/1/599
f 623/1/266 638/1/269 630/1/407 622/1/406
f 612/1/405 626/1/404 619/1/915 613/1/914
f 630/1/407 636/1/909 624/1/845 626/1/404
f 619/1/915 626/1/404 624/1/845 625/1/848
f 637/1/916 670/1/463 671/1/479 665/1/119
f 644/1/268 670/1/463 637/1/916 638/1/269
f 630/1/407 638/1/269 637/1/916 636/1/909
f 268/1/884 269/1/776 276/1/510 277/1/509
f 869/1/480 870/1/291 876/1/290 875/1/627
f 637/1/916 665/1/119 643/1/118 636/1/909
f 145/1/664 146/1/278 122/1/277 138/1/169
f 113/1/112 201/1/132 200/1/525 193/1/113
f 643/1/118 659/1/117 651/1/853 645/1/846
f 109/1/140 110/1/139 99/1/122 108/1/327
f 912/1/859 917/1/917 913/1/861
f 915/1/850 917/1/917 914/1/219
f 914/1/219 917/1/917 916/1/220
f 912/1/859 916/1/220 917/1/917
f 255/1/485 250/1/885 222/1/881 254/1/486
