# Blender 4.3.2
# www.blender.org
o hair.104
v 6.579832 1.493966 -0.014212
v 6.576961 1.491529 -0.016723
v 6.578830 1.494422 -0.012809
v 6.578810 1.490964 -0.018437
v 6.581090 1.493604 -0.015328
v 6.582694 1.495987 -0.011361
v 6.583334 1.495804 -0.011927
v 6.585659 1.497419 -0.008225
v 6.582183 1.496218 -0.010651
v 6.584053 1.495661 -0.012367
v 6.580930 1.490530 -0.019749
v 6.582502 1.493321 -0.016196
v 6.581790 1.496476 -0.009853
v 6.578056 1.494933 -0.011236
v 6.575490 1.492201 -0.014664
v 6.584842 1.495580 -0.012618
v 6.583249 1.490277 -0.020521
v 6.582482 1.487010 -0.024050
v 6.579433 1.487354 -0.023013
v 6.584054 1.493161 -0.016692
v 6.581565 1.496762 -0.008969
v 6.577615 1.495497 -0.009489
v 6.574397 1.492964 -0.012328
v 6.585659 1.495546 -0.012720
v 6.585659 1.490187 -0.020795
v 6.585659 1.486897 -0.024393
v 6.578306 1.484372 -0.025123
v 6.576641 1.487936 -0.021272
v 6.585659 1.493095 -0.016894
v 6.573740 1.493821 -0.009724
v 6.577443 1.496078 -0.007696
v 6.572314 1.489579 -0.016292
v 6.570917 1.490588 -0.013222
v 6.575013 1.485064 -0.023023
v 6.572186 1.485960 -0.020287
v 6.574228 1.488697 -0.018982
v 6.587264 1.493161 -0.016692
v 6.568386 1.488144 -0.013559
v 6.570053 1.491727 -0.009790
v 6.573515 1.482296 -0.024532
v 6.588068 1.490277 -0.020521
v 6.588815 1.493321 -0.016196
v 6.586475 1.495580 -0.012618
v 6.581382 1.481112 -0.028360
v 6.577277 1.481560 -0.026934
v 6.581906 1.483964 -0.026361
v 6.590387 1.490530 -0.019749
v 6.588835 1.487010 -0.024050
v 6.590227 1.493604 -0.015328
v 6.587265 1.495661 -0.012367
v 6.585659 1.483832 -0.026765
v 6.576368 1.478650 -0.028354
v 6.592507 1.490964 -0.018437
v 6.591884 1.487354 -0.023013
v 6.593011 1.484372 -0.025123
v 6.589411 1.483964 -0.026361
v 6.591485 1.493966 -0.014212
v 6.587983 1.495804 -0.011927
v 6.589935 1.481112 -0.028360
v 6.585659 1.480960 -0.028829
v 6.594357 1.491529 -0.016723
v 6.594676 1.487936 -0.021272
v 6.592487 1.494422 -0.012809
v 6.588624 1.495987 -0.011361
v 6.585659 1.478018 -0.030475
v 6.590399 1.478182 -0.029945
v 6.594949 1.478650 -0.028354
v 6.594040 1.481560 -0.026934
v 6.580918 1.478182 -0.029945
v 6.589134 1.496218 -0.010651
v 6.590816 1.475027 -0.031146
v 6.585659 1.474894 -0.031815
v 6.580502 1.475027 -0.031146
v 6.597802 1.482296 -0.024532
v 6.596304 1.485064 -0.023023
v 6.589527 1.496476 -0.009853
v 6.593261 1.494933 -0.011236
v 6.585659 1.471491 -0.032907
v 6.580127 1.471597 -0.032076
v 6.574753 1.472106 -0.030449
v 6.575534 1.475522 -0.029482
v 6.599131 1.485960 -0.020287
v 6.597089 1.488697 -0.018982
v 6.595827 1.492201 -0.014664
v 6.579834 1.467786 -0.032627
v 6.571071 1.476264 -0.026546
v 6.572203 1.479398 -0.025701
v 6.599003 1.489579 -0.016292
v 6.596920 1.492964 -0.012328
v 6.570065 1.472838 -0.027201
v 6.565842 1.473933 -0.023365
v 6.567184 1.477298 -0.022878
v 6.568632 1.480369 -0.022264
v 6.570289 1.483246 -0.021417
v 6.593702 1.495497 -0.009489
v 6.597578 1.493821 -0.009724
v 6.600400 1.490588 -0.013222
v 6.569257 1.468997 -0.027618
v 6.564277 1.478458 -0.018526
v 6.565863 1.481507 -0.018319
v 6.567784 1.484338 -0.017850
v 6.574144 1.468259 -0.031082
v 6.569981 1.486977 -0.017139
v 6.589752 1.496762 -0.008969
v 6.563860 1.482865 -0.013826
v 6.565979 1.485614 -0.013793
v 6.573838 1.464127 -0.031134
v 6.589839 1.497056 -0.008061
v 6.593874 1.496078 -0.007696
v 6.564851 1.487118 -0.009206
v 6.562110 1.479892 -0.013635
v 6.560653 1.481638 -0.008131
v 6.562586 1.484496 -0.008745
v 6.567389 1.489490 -0.009530
v 6.589743 1.497345 -0.007177
v 6.593686 1.496649 -0.005950
v 6.562877 1.475101 -0.018569
v 6.560654 1.476558 -0.013254
v 6.562096 1.486207 -0.003582
v 6.567044 1.490867 -0.005446
v 6.589502 1.497619 -0.006337
v 6.593215 1.497186 -0.004301
v 6.597809 1.494699 -0.007067
v 6.601264 1.491727 -0.009790
v 6.561683 1.471270 -0.018432
v 6.564758 1.470087 -0.023601
v 6.564446 1.488676 -0.004555
v 6.589074 1.497847 -0.005618
v 6.592377 1.497632 -0.002892
v 6.596834 1.496314 -0.002190
v 6.602931 1.488144 -0.013559
v 6.568773 1.464865 -0.027664
v 6.564193 1.465904 -0.023401
v 6.564811 1.490111 -0.000303
v 6.597548 1.495532 -0.004552
v 6.601336 1.486977 -0.017139
v 6.568457 1.460581 -0.027562
v 6.567409 1.492124 -0.001701
v 6.569763 1.492893 -0.006298
v 6.570090 1.493977 -0.003047
v 6.601227 1.493977 -0.003047
v 6.601554 1.492893 -0.006298
v 6.603533 1.484338 -0.017850
v 6.601028 1.483246 -0.021417
v 6.568475 1.493303 0.001815
v 6.573508 1.494699 -0.007067
v 6.604273 1.490867 -0.005446
v 6.603929 1.489490 -0.009530
v 6.605339 1.485614 -0.013793
v 6.606466 1.487118 -0.009206
v 6.602685 1.480369 -0.022264
v 6.599114 1.479398 -0.025701
v 6.573769 1.495532 -0.004552
v 6.577631 1.496649 -0.005950
v 6.607457 1.482865 -0.013826
v 6.600246 1.476264 -0.026546
v 6.595783 1.475522 -0.029482
v 6.581478 1.497056 -0.008061
v 6.574483 1.496314 -0.002190
v 6.605454 1.481507 -0.018319
v 6.596564 1.472106 -0.030449
v 6.591190 1.471597 -0.032076
v 6.581574 1.497345 -0.007177
v 6.571036 1.494992 -0.000005
v 6.607040 1.478458 -0.018526
v 6.604133 1.477298 -0.022878
v 6.591483 1.467786 -0.032627
v 6.585659 1.467677 -0.033500
v 6.578102 1.497186 -0.004301
v 6.572601 1.495947 0.002858
v 6.575696 1.497020 -0.000039
v 6.605474 1.473933 -0.023365
v 6.601253 1.472838 -0.027201
v 6.585659 1.463626 -0.033414
v 6.579667 1.463733 -0.032672
v 6.578940 1.497632 -0.002892
v 6.581815 1.497619 -0.006337
v 6.577263 1.497619 0.001820
v 6.579995 1.498006 -0.001682
v 6.602060 1.468997 -0.027618
v 6.597173 1.468259 -0.031082
v 6.579566 1.459543 -0.032597
v 6.573546 1.459827 -0.031274
v 6.582243 1.497847 -0.005618
v 6.581237 1.498269 -0.000770
v 6.582782 1.498037 -0.005002
v 6.597479 1.464127 -0.031134
v 6.591650 1.463733 -0.032672
v 6.573565 1.455159 -0.030196
v 6.579101 1.498050 0.003235
v 6.582607 1.498453 -0.000088
v 6.583417 1.498172 -0.004536
v 6.591752 1.459543 -0.032597
v 6.585659 1.459435 -0.033333
v 6.574651 1.496761 0.005341
v 6.581144 1.498341 0.004262
v 6.577052 1.497352 0.007238
v 6.584107 1.498550 0.000336
v 6.584115 1.498265 -0.004189
v 6.585659 1.454830 -0.032001
v 6.579556 1.454919 -0.031466
v 6.572576 1.495452 0.008226
v 6.570230 1.494446 0.005215
v 6.584877 1.498314 -0.003974
v 6.583362 1.498503 0.004913
v 6.585659 1.498578 0.000507
v 6.579564 1.449627 -0.028848
v 6.568455 1.456088 -0.026765
v 6.573688 1.450052 -0.027672
v 6.568567 1.451323 -0.025130
v 6.567936 1.492770 0.007524
v 6.565967 1.491462 0.003679
v 6.585659 1.498329 -0.003887
v 6.563793 1.457268 -0.022630
v 6.563693 1.461590 -0.023189
v 6.573646 1.444606 -0.024513
v 6.562440 1.487807 0.001157
v 6.563674 1.489320 0.005578
v 6.586441 1.498314 -0.003974
v 6.560250 1.462849 -0.017500
v 6.560235 1.456060 -0.016565
v 6.564105 1.452981 -0.022108
v 6.560901 1.467117 -0.018017
v 6.560354 1.485218 0.002662
v 6.560028 1.483483 -0.002526
v 6.557470 1.464327 -0.011278
v 6.558442 1.468572 -0.012022
v 6.568709 1.446508 -0.022380
v 6.564112 1.449087 -0.019672
v 6.559415 1.472716 -0.012714
v 6.559042 1.478367 -0.007365
v 6.558291 1.480312 -0.001369
v 6.557096 1.459235 -0.009965
v 6.556204 1.466028 -0.004418
v 6.569402 1.442523 -0.017679
v 6.561604 1.449353 -0.011617
v 6.565091 1.445304 -0.015177
v 6.557695 1.474518 -0.006463
v 6.558720 1.453647 -0.007160
v 6.556194 1.461752 -0.003209
v 6.557115 1.457680 -0.001687
v 6.568328 1.439789 -0.011271
v 6.574162 1.440511 -0.019525
v 6.571939 1.437452 -0.013207
v 6.564468 1.443480 -0.008254
v 6.560590 1.448440 -0.004380
v 6.556705 1.470326 -0.005467
v 6.556673 1.459502 0.004752
v 6.555885 1.463504 0.003528
v 6.558605 1.453786 -0.000021
v 6.579569 1.444117 -0.025334
v 6.579777 1.439700 -0.020399
v 6.575945 1.436137 -0.014444
v 6.555324 1.467837 0.002204
v 6.555764 1.472303 0.001138
v 6.556801 1.460513 0.009669
v 6.558149 1.456468 0.010526
v 6.585659 1.449473 -0.029370
v 6.585659 1.443797 -0.025916
v 6.580462 1.435356 -0.015236
v 6.555948 1.469623 0.008037
v 6.556794 1.476533 -0.000107
v 6.557707 1.462313 0.014406
v 6.555887 1.464885 0.008694
v 6.559467 1.453325 0.016320
v 6.591753 1.449627 -0.028848
v 6.591762 1.454919 -0.031466
v 6.585659 1.435029 -0.015394
v 6.557405 1.478515 0.005842
v 6.558670 1.482165 0.004220
v 6.557035 1.466220 0.013544
v 6.558811 1.463508 0.017395
v 6.560418 1.462301 0.019269
v 6.597752 1.455159 -0.030196
v 6.556487 1.474318 0.007224
v 6.560069 1.483950 0.009428
v 6.561677 1.486868 0.007488
v 6.557240 1.471444 0.013390
v 6.557969 1.476274 0.012946
v 6.558864 1.468523 0.017931
v 6.561366 1.471276 0.022221
v 6.564042 1.488460 0.012005
v 6.565852 1.490773 0.009787
v 6.559449 1.473361 0.018583
v 6.565040 1.473288 0.026932
v 6.561387 1.474575 0.022345
v 6.565595 1.468411 0.026537
v 6.563736 1.467246 0.024009
v 6.558878 1.480438 0.011433
v 6.568827 1.492085 0.013521
v 6.570603 1.493937 0.010940
v 6.560351 1.477918 0.018480
v 6.562011 1.478657 0.022027
v 6.566103 1.463215 0.025800
v 6.561374 1.482054 0.016738
v 6.562547 1.485616 0.014283
v 6.573855 1.494868 0.013637
v 6.575409 1.496215 0.010579
v 6.563183 1.482937 0.019418
v 6.564764 1.480131 0.025631
v 6.567980 1.469415 0.027398
v 6.566046 1.487019 0.019321
v 6.567282 1.489917 0.016021
v 6.578613 1.496746 0.012283
v 6.579737 1.497746 0.008597
v 6.565335 1.483987 0.022606
v 6.564755 1.476758 0.026852
v 6.569816 1.475594 0.029082
v 6.571231 1.491163 0.019343
v 6.572455 1.493176 0.016517
v 6.582643 1.497972 0.009468
v 6.570123 1.485800 0.025475
v 6.569705 1.482406 0.028029
v 6.569620 1.478946 0.029170
v 6.576577 1.493992 0.018724
v 6.577545 1.495542 0.015603
v 6.585659 1.498553 0.005156
v 6.570654 1.488833 0.022393
v 6.574833 1.480381 0.031622
v 6.574872 1.476380 0.032192
v 6.581529 1.495939 0.016828
v 6.582072 1.497053 0.013353
v 6.587955 1.498503 0.004913
v 6.587210 1.498550 0.000336
v 6.575369 1.489715 0.025538
v 6.575726 1.492118 0.021838
v 6.574959 1.471130 0.031883
v 6.572492 1.470790 0.030031
v 6.585659 1.497151 0.013729
v 6.585659 1.498043 0.009781
v 6.587202 1.498265 -0.004189
v 6.574986 1.486855 0.028360
v 6.580590 1.492744 0.023399
v 6.581034 1.494488 0.020095
v 6.575125 1.465966 0.031067
v 6.588674 1.497972 0.009468
v 6.587900 1.498172 -0.004536
v 6.588710 1.498453 -0.000088
v 6.588535 1.498037 -0.005002
v 6.574819 1.483964 0.030259
v 6.585659 1.494672 0.020581
v 6.585659 1.496068 0.017255
v 6.577758 1.471633 0.032120
v 6.590080 1.498269 -0.000770
v 6.590173 1.498341 0.004262
v 6.591322 1.498006 -0.001682
v 6.580209 1.481488 0.032879
v 6.580391 1.477300 0.033175
v 6.589788 1.495939 0.016828
v 6.589245 1.497053 0.013353
v 6.592216 1.498050 0.003235
v 6.594054 1.497619 0.001820
v 6.595622 1.497020 -0.000039
v 6.592704 1.496746 0.012283
v 6.591580 1.497746 0.008597
v 6.594265 1.497352 0.007238
v 6.596666 1.496761 0.005341
v 6.598716 1.495947 0.002858
v 6.600281 1.494992 -0.000005
v 6.595908 1.496215 0.010579
v 6.598742 1.495452 0.008226
v 6.601087 1.494446 0.005215
v 6.602842 1.493303 0.001815
v 6.603908 1.492124 -0.001701
v 6.597462 1.494868 0.013637
v 6.600714 1.493937 0.010940
v 6.603381 1.492770 0.007524
v 6.605350 1.491462 0.003679
v 6.606506 1.490111 -0.000303
v 6.606871 1.488676 -0.004555
v 6.593772 1.495542 0.015603
v 6.602490 1.492085 0.013521
v 6.594740 1.493992 0.018724
v 6.598862 1.493176 0.016517
v 6.605465 1.490773 0.009787
v 6.607643 1.489320 0.005578
v 6.608877 1.487807 0.001157
v 6.609221 1.486207 -0.003582
v 6.608731 1.484496 -0.008745
v 6.590283 1.494488 0.020095
v 6.600086 1.491163 0.019343
v 6.607275 1.488460 0.012005
v 6.609641 1.486868 0.007488
v 6.610963 1.485218 0.002662
v 6.611289 1.483483 -0.002526
v 6.610664 1.481638 -0.008131
v 6.609207 1.479892 -0.013635
v 6.585659 1.492999 0.023961
v 6.590727 1.492744 0.023399
v 6.611248 1.483950 0.009428
v 6.612647 1.482165 0.004220
v 6.613026 1.480312 -0.001369
v 6.612275 1.478367 -0.007365
v 6.610663 1.476558 -0.013254
v 6.608439 1.475101 -0.018569
v 6.585659 1.491073 0.027222
v 6.580611 1.490744 0.026618
v 6.595592 1.492118 0.021838
v 6.613913 1.478515 0.005842
v 6.613622 1.474518 -0.006463
v 6.609634 1.471270 -0.018432
v 6.611902 1.472716 -0.012714
v 6.606559 1.470087 -0.023601
v 6.580559 1.488375 0.029531
v 6.595948 1.489715 0.025538
v 6.590706 1.490744 0.026618
v 6.612875 1.468572 -0.012022
v 6.610416 1.467117 -0.018017
v 6.607124 1.465904 -0.023401
v 6.602544 1.464865 -0.027664
v 6.590758 1.488375 0.029531
v 6.585659 1.488901 0.030208
v 6.611067 1.462849 -0.017500
v 6.607625 1.461590 -0.023189
v 6.602860 1.460581 -0.027562
v 6.597771 1.459827 -0.031274
v 6.580433 1.485357 0.031724
v 6.613847 1.464327 -0.011278
v 6.611083 1.456060 -0.016565
v 6.607524 1.457268 -0.022630
v 6.602862 1.456088 -0.026765
v 6.585659 1.482100 0.034304
v 6.585659 1.486001 0.032660
v 6.614222 1.459235 -0.009965
v 6.615113 1.466028 -0.004418
v 6.614612 1.470326 -0.005467
v 6.602750 1.451323 -0.025130
v 6.607213 1.452981 -0.022108
v 6.597629 1.450052 -0.027672
v 6.590884 1.485357 0.031724
v 6.615553 1.472303 0.001138
v 6.614523 1.476533 -0.000107
v 6.607205 1.449087 -0.019672
v 6.612597 1.453647 -0.007160
v 6.609713 1.449353 -0.011617
v 6.597672 1.444606 -0.024513
v 6.591748 1.444117 -0.025334
v 6.610727 1.448440 -0.004380
v 6.614202 1.457680 -0.001687
v 6.606849 1.443480 -0.008254
v 6.606226 1.445304 -0.015177
v 6.615123 1.461752 -0.003209
v 6.602608 1.446508 -0.022380
v 6.591540 1.439700 -0.020399
v 6.585659 1.439364 -0.020789
v 6.612712 1.453786 -0.000021
v 6.614644 1.459502 0.004752
v 6.602989 1.439789 -0.011271
v 6.601915 1.442523 -0.017679
v 6.615432 1.463504 0.003528
v 6.615993 1.467837 0.002204
v 6.614516 1.460513 0.009669
v 6.613168 1.456468 0.010526
v 6.599378 1.437452 -0.013207
v 6.597156 1.440511 -0.019525
v 6.615430 1.464885 0.008694
v 6.615369 1.469623 0.008037
v 6.614830 1.474318 0.007224
v 6.590855 1.435356 -0.015236
v 6.613610 1.462313 0.014406
v 6.611850 1.453325 0.016320
v 6.595372 1.436137 -0.014444
v 6.614282 1.466220 0.013544
v 6.614078 1.471444 0.013390
v 6.613348 1.476274 0.012946
v 6.612439 1.480438 0.011433
v 6.612506 1.463508 0.017395
v 6.612453 1.468523 0.017931
v 6.610899 1.462301 0.019269
v 6.611868 1.473361 0.018583
v 6.609943 1.482054 0.016738
v 6.610966 1.477918 0.018480
v 6.608770 1.485616 0.014283
v 6.609951 1.471276 0.022221
v 6.609306 1.478657 0.022027
v 6.609930 1.474575 0.022345
v 6.608134 1.482937 0.019418
v 6.605271 1.487019 0.019321
v 6.604035 1.489917 0.016021
v 6.606277 1.473288 0.026932
v 6.605722 1.468411 0.026537
v 6.607581 1.467246 0.024009
v 6.606554 1.480131 0.025631
v 6.606562 1.476758 0.026852
v 6.605982 1.483987 0.022606
v 6.600663 1.488833 0.022393
v 6.601194 1.485800 0.025475
v 6.601697 1.478946 0.029170
v 6.601501 1.475594 0.029082
v 6.603337 1.469415 0.027398
v 6.605214 1.463215 0.025800
v 6.601612 1.482406 0.028029
v 6.596331 1.486855 0.028360
v 6.596484 1.480381 0.031622
v 6.596446 1.476380 0.032192
v 6.596358 1.471130 0.031883
v 6.598825 1.470790 0.030031
v 6.596498 1.483964 0.030259
v 6.591108 1.481488 0.032879
v 6.590926 1.477300 0.033175
v 6.593559 1.471633 0.032120
v 6.596192 1.465966 0.031067
v 6.585659 1.477608 0.034952
v 6.585659 1.471690 0.034378
v 6.588292 1.471633 0.033174
v 6.585659 1.465966 0.033174
v 6.583025 1.471633 0.033174
v 6.560590 1.448440 -0.004380
v 6.585659 1.460719 0.004733
v 6.558605 1.453786 -0.000021
v 6.556673 1.459502 0.004752
v 6.558149 1.456468 0.010526
v 6.559467 1.453325 0.016320
v 6.585659 1.464386 0.009747
v 6.585659 1.472269 0.012376
v 6.560418 1.462301 0.019269
v 6.611850 1.453325 0.016320
v 6.561366 1.471276 0.022221
v 6.613168 1.456468 0.010526
v 6.610899 1.462301 0.019269
v 6.563736 1.467246 0.024009
v 6.614644 1.459502 0.004752
v 6.609951 1.471276 0.022221
v 6.566103 1.463215 0.025800
v 6.612712 1.453786 -0.000021
v 6.607581 1.467246 0.024009
v 6.567980 1.469415 0.027398
v 6.610727 1.448440 -0.004380
v 6.605214 1.463215 0.025800
v 6.569816 1.475594 0.029082
v 6.603337 1.469415 0.027398
v 6.572492 1.470790 0.030031
v 6.601501 1.475594 0.029082
v 6.575125 1.465966 0.031067
v 6.598825 1.470790 0.030031
v 6.577758 1.471633 0.032120
v 6.596192 1.465966 0.031067
v 6.580391 1.477300 0.033175
v 6.593559 1.471633 0.032120
v 6.583025 1.471633 0.033174
v 6.590926 1.477300 0.033175
v 6.585659 1.465966 0.033174
v 6.588292 1.471633 0.033174
vn 0.2605 0.8622 -0.4345
vn 0.3542 0.8084 -0.4702
vn 0.3031 0.7945 -0.5262
vn 0.2225 0.8511 -0.4755
vn -0.5163 0.4273 0.7422
vn -0.3985 0.4289 0.8107
vn -0.4059 0.6129 0.6779
vn -0.5317 0.6003 0.5974
vn -0.9915 -0.1291 0.0152
vn -0.9860 -0.0791 0.1467
vn -0.9876 0.0708 0.1399
vn -0.9996 0.0155 -0.0219
vn 0.5163 0.4273 0.7422
vn 0.3985 0.4289 0.8107
vn 0.3660 0.1923 0.9105
vn 0.4800 0.1605 0.8625
vn -0.1266 0.9048 -0.4066
vn -0.0000 0.9536 -0.3011
vn -0.0992 0.8998 -0.4249
vn -0.1477 0.9117 -0.3835
vn 0.0691 0.8955 -0.4396
vn 0.0992 0.8998 -0.4249
vn 0.1756 0.8428 -0.5088
vn 0.1215 0.8363 -0.5346
vn -0.0691 0.8955 -0.4396
vn 0.2406 0.7836 -0.5728
vn 0.1661 0.7757 -0.6088
vn -0.1649 0.9193 -0.3574
vn 0.1477 0.9117 -0.3835
vn 0.1649 0.9193 -0.3574
vn 0.2885 0.8749 -0.3890
vn 0.3904 0.8248 -0.4090
vn 0.0350 0.8935 -0.4476
vn 0.0618 0.8327 -0.5503
vn -0.0350 0.8935 -0.4476
vn 0.0860 0.9956 -0.0379
vn 0.1379 0.9887 -0.0591
vn 0.0757 0.9855 -0.1522
vn 0.0441 0.9896 -0.1371
vn 0.2246 0.6814 -0.6966
vn 0.1123 0.6758 -0.7285
vn 0.0839 0.7708 -0.6315
vn 0.5708 -0.3542 -0.7407
vn 0.3539 -0.4393 -0.8257
vn 0.3881 -0.2992 -0.8717
vn 0.6107 -0.2095 -0.7636
vn -0.1738 0.9278 -0.3301
vn 0.1738 0.9278 -0.3301
vn 0.3038 0.8894 -0.3417
vn 0.4098 0.8436 -0.3469
vn 0.0583 0.9967 0.0572
vn 0.0380 0.9989 -0.0266
vn -0.0000 0.9997 -0.0231
vn -0.0000 0.9981 0.0616
vn -0.0000 0.8923 -0.4515
vn -0.0000 0.7691 -0.6391
vn -0.0000 0.8310 -0.5562
vn 0.2675 0.6037 -0.7510
vn 0.3006 0.5398 -0.7863
vn 0.1498 0.5347 -0.8317
vn 0.1330 0.5986 -0.7900
vn -0.2766 0.9426 -0.1869
vn -0.1607 0.9576 -0.2391
vn -0.1732 0.9457 -0.2752
vn -0.2991 0.9225 -0.2439
vn 0.4080 0.7024 -0.5833
vn 0.3253 0.6901 -0.6465
vn 0.3074 0.9049 -0.2943
vn 0.1775 0.9361 -0.3035
vn 0.4133 0.8655 -0.2831
vn -0.3733 0.9166 -0.1429
vn -0.3271 0.9416 -0.0797
vn -0.2392 0.9616 -0.1346
vn 0.5469 0.7627 -0.3451
vn 0.5223 0.7388 -0.4259
vn 0.4843 0.6228 -0.6144
vn 0.3877 0.6112 -0.6901
vn 0.4751 0.7187 -0.5076
vn -0.6162 0.6606 -0.4288
vn -0.6452 0.6863 -0.3358
vn -0.5469 0.7627 -0.3451
vn -0.5223 0.7388 -0.4259
vn -0.0618 0.8327 -0.5503
vn 0.6502 0.7212 -0.2391
vn 0.7114 0.6657 -0.2254
vn 0.7067 0.6279 -0.3262
vn 0.6452 0.6863 -0.3358
vn -0.3827 0.8849 0.2653
vn -0.3290 0.9236 0.1970
vn -0.4374 0.8893 0.1337
vn -0.4945 0.8482 0.1900
vn 0.6162 0.6606 -0.4288
vn 0.4328 0.5483 -0.7156
vn 0.5617 0.6398 -0.5246
vn -0.0000 0.6738 -0.7389
vn -0.1123 0.6758 -0.7285
vn -0.0839 0.7708 -0.6315
vn -0.1215 0.8363 -0.5346
vn -0.1661 0.7757 -0.6088
vn -0.1895 0.3362 -0.9225
vn -0.1724 0.4331 -0.8847
vn -0.0000 0.4320 -0.9019
vn -0.0000 0.3339 -0.9426
vn 0.6898 0.7149 -0.1147
vn 0.6304 0.7647 -0.1338
vn 0.2659 0.2151 0.9397
vn 0.2652 0.4600 0.8474
vn -0.0000 0.4905 0.8714
vn -0.0000 0.2291 0.9734
vn -0.8955 -0.2240 -0.3846
vn -0.9591 -0.1725 -0.2245
vn -0.9501 0.0435 -0.3088
vn -0.8847 0.0140 -0.4659
vn -0.0000 0.5967 -0.8025
vn -0.8530 0.4287 -0.2978
vn -0.7829 0.5376 -0.3130
vn -0.7568 0.5015 -0.4193
vn -0.8253 0.3920 -0.4064
vn -0.3417 0.4401 -0.8304
vn -0.4882 0.4506 -0.7474
vn -0.4328 0.5483 -0.7156
vn -0.3006 0.5398 -0.7863
vn 0.4882 0.4506 -0.7474
vn 0.3417 0.4401 -0.8304
vn 0.1724 0.4331 -0.8847
vn -0.2246 0.6814 -0.6966
vn -0.3253 0.6901 -0.6465
vn -0.2406 0.7836 -0.5728
vn -0.7848 0.5846 -0.2057
vn -0.7633 0.6405 -0.0846
vn -0.6898 0.7149 -0.1147
vn -0.7114 0.6657 -0.2254
vn -0.2225 0.8511 -0.4755
vn -0.1756 0.8428 -0.5088
vn -0.3031 0.7945 -0.5262
vn -0.0000 0.5331 -0.8460
vn -0.1498 0.5347 -0.8317
vn -0.1330 0.5986 -0.7900
vn -0.2675 0.6037 -0.7510
vn -0.3877 0.6112 -0.6901
vn -0.6614 0.6321 0.4038
vn -0.5180 0.6983 0.4940
vn -0.4870 0.7702 0.4118
vn -0.6130 0.7167 0.3324
vn -0.4080 0.7024 -0.5833
vn -0.4751 0.7187 -0.5076
vn -0.3542 0.8084 -0.4702
vn -0.2605 0.8622 -0.4345
vn 0.1266 0.9048 -0.4066
vn 0.8610 0.1801 -0.4756
vn 0.7428 0.1579 -0.6506
vn 0.6992 0.2862 -0.6552
vn 0.8173 0.2914 -0.4970
vn -0.5875 0.8085 -0.0332
vn -0.6441 0.7649 -0.0043
vn -0.5811 0.8081 0.0967
vn -0.5250 0.8494 0.0542
vn 0.3000 0.8698 0.3917
vn 0.4363 0.8328 0.3408
vn 0.3827 0.8849 0.2653
vn 0.2587 0.9136 0.3136
vn 0.1895 0.3362 -0.9225
vn 0.3717 0.3496 -0.8600
vn -0.6038 0.4643 -0.6479
vn -0.5373 0.5606 -0.6301
vn 0.5875 0.8085 -0.0332
vn 0.4993 0.8628 -0.0789
vn 0.4417 0.8972 -0.0024
vn 0.5250 0.8494 0.0542
vn 0.2393 0.6741 0.6988
vn 0.4059 0.6129 0.6779
vn 0.3785 0.7392 0.5571
vn 0.2045 0.7974 0.5677
vn 0.9601 0.2604 -0.1017
vn 0.9190 0.3674 -0.1432
vn 0.9081 0.4185 0.0144
vn 0.9503 0.3032 0.0706
vn -0.0000 0.2203 -0.9754
vn -0.1985 0.2279 -0.9532
vn 0.5361 0.8272 -0.1684
vn -0.4843 0.6228 -0.6144
vn -0.6891 0.3701 0.6231
vn -0.6818 0.5534 0.4783
vn -0.7935 0.4817 0.3720
vn -0.8462 0.3010 0.4398
vn 0.1992 0.0871 -0.9761
vn -0.0000 0.0746 -0.9972
vn 0.1985 0.2279 -0.9532
vn -0.9611 -0.2196 0.1674
vn -0.9719 -0.2322 0.0388
vn 0.7158 0.6970 0.0421
vn 0.7633 0.6405 -0.0846
vn 0.6441 0.7649 -0.0043
vn -0.5617 0.6398 -0.5246
vn -0.3904 0.8248 -0.4090
vn -0.7632 0.3823 -0.5209
vn -0.6974 0.4789 -0.5332
vn 0.5547 0.7900 0.2611
vn 0.6468 0.7459 0.1589
vn 0.5811 0.8081 0.0967
vn 0.4945 0.8482 0.1900
vn 0.6038 0.4643 -0.6479
vn 0.5373 0.5606 -0.6301
vn -0.4098 0.8436 -0.3469
vn -0.4133 0.8655 -0.2831
vn -0.3074 0.9049 -0.2943
vn -0.3038 0.8894 -0.3417
vn -0.1775 0.9361 -0.3035
vn 0.6818 0.5534 0.4783
vn 0.5317 0.6003 0.5974
vn 0.6891 0.3701 0.6231
vn 0.6007 0.1393 -0.7872
vn 0.5650 0.2686 -0.7802
vn -0.6007 0.1393 -0.7872
vn -0.7428 0.1579 -0.6506
vn -0.6992 0.2862 -0.6552
vn -0.5650 0.2686 -0.7802
vn -0.7067 0.6279 -0.3262
vn -0.6773 0.6003 -0.4253
vn 0.7632 0.3823 -0.5209
vn 0.6552 0.3769 -0.6547
vn 0.6974 0.4789 -0.5332
vn 0.2170 0.9474 0.2352
vn 0.1721 0.9738 0.1485
vn 0.0843 0.9827 0.1646
vn 0.1077 0.9610 0.2548
vn 0.7568 0.5015 -0.4193
vn 0.8253 0.3920 -0.4064
vn 0.3437 -0.6194 -0.7059
vn 0.3471 -0.7440 -0.5710
vn 0.1441 -0.7621 -0.6312
vn 0.1394 -0.6427 -0.7533
vn 0.9411 0.2183 -0.2582
vn 0.9867 0.1513 -0.0592
vn 0.9661 0.1307 -0.2229
vn -0.2885 0.8749 -0.3890
vn -0.8397 0.4312 0.3302
vn -0.7805 0.5523 0.2929
vn -0.8616 0.4801 0.1650
vn -0.9083 0.3580 0.2165
vn 0.6773 0.6003 -0.4253
vn 0.7829 0.5376 -0.3130
vn 0.6130 0.7167 0.3324
vn 0.4870 0.7702 0.4118
vn 0.1732 0.9457 -0.2752
vn 0.8760 0.2907 -0.3850
vn 0.8530 0.4287 -0.2978
vn 0.9059 0.3180 -0.2797
vn 0.7848 0.5846 -0.2057
vn -0.3000 0.8698 0.3917
vn -0.1552 0.8959 0.4163
vn -0.1309 0.9316 0.3390
vn -0.2587 0.9136 0.3136
vn 0.3290 0.9236 0.1970
vn 0.2659 0.9569 0.1170
vn -0.7639 0.0686 -0.6416
vn -0.6201 0.0535 -0.7827
vn 0.1607 0.9576 -0.2391
vn -0.2650 0.9639 -0.0266
vn -0.1921 0.9770 -0.0925
vn -0.9877 -0.1393 -0.0708
vn -0.9874 0.0243 -0.1565
vn -0.5514 0.7925 -0.2607
vn -0.8406 0.5401 -0.0415
vn -0.7921 0.6020 0.1014
vn -0.7158 0.6970 0.0421
vn 0.9116 0.1962 -0.3612
vn 0.1371 0.9693 -0.2042
vn -0.2659 0.9569 0.1170
vn -0.3615 0.9302 0.0643
vn -0.1093 0.9785 -0.1751
vn -0.1371 0.9693 -0.2042
vn 0.7639 0.0686 -0.6416
vn 0.6201 0.0535 -0.7827
vn 0.8766 0.1037 -0.4698
vn -0.1721 0.9738 0.1485
vn -0.1228 0.9915 0.0431
vn -0.1926 0.9811 0.0161
vn 0.6310 -0.0512 -0.7741
vn 0.4095 -0.0858 -0.9083
vn 0.4142 0.0386 -0.9094
vn 0.7746 -0.0227 -0.6320
vn 0.5514 0.7925 -0.2607
vn -0.5361 0.8272 -0.1684
vn -0.4993 0.8628 -0.0789
vn -0.4020 0.8902 -0.2142
vn -0.6202 0.5780 -0.5303
vn 0.4374 0.8893 0.1337
vn -0.6502 0.7212 -0.2391
vn 0.3733 0.9166 -0.1429
vn 0.4020 0.8902 -0.2142
vn -0.0000 0.9062 0.4228
vn -0.0000 0.9380 0.3466
vn 0.2991 0.9225 -0.2439
vn 0.1309 0.9316 0.3390
vn -0.0000 0.9654 0.2609
vn -0.5297 0.3619 -0.7671
vn -0.3717 0.3496 -0.8600
vn -0.6552 0.3769 -0.6547
vn 0.2766 0.9426 -0.1869
vn 0.1926 0.9811 0.0161
vn 0.3615 0.9302 0.0643
vn 0.2650 0.9639 -0.0266
vn -0.3943 0.2527 -0.8836
vn 0.6614 0.6321 0.4038
vn 0.5180 0.6983 0.4940
vn -0.0000 -0.3507 -0.9365
vn -0.1532 -0.3416 -0.9273
vn -0.1699 -0.1221 -0.9779
vn -0.0000 -0.1385 -0.9904
vn -0.1992 0.0871 -0.9761
vn -0.4118 0.1194 -0.9034
vn 0.3271 0.9416 -0.0797
vn -0.8173 0.2914 -0.4970
vn 0.1873 0.0063 -0.9823
vn -0.0000 -0.0098 -1.0000
vn -0.8931 0.2772 0.3543
vn -0.9386 0.2336 0.2538
vn 0.2392 0.9616 -0.1346
vn 0.1921 0.9770 -0.0925
vn 0.4118 0.1194 -0.9034
vn -0.1427 -0.4795 -0.8659
vn -0.1394 -0.6427 -0.7533
vn -0.3437 -0.6194 -0.7059
vn -0.3539 -0.4393 -0.8257
vn 0.1699 -0.1221 -0.9779
vn 0.1093 0.9785 -0.1751
vn 0.7601 -0.4620 -0.4569
vn 0.5671 -0.5588 -0.6051
vn 0.7409 -0.2658 -0.6167
vn -0.4142 0.0386 -0.9094
vn -0.1873 0.0063 -0.9823
vn 0.1532 -0.3416 -0.9273
vn 0.9742 0.1939 0.1159
vn -0.7675 -0.1284 -0.6281
vn -0.7746 -0.0227 -0.6320
vn -0.6310 -0.0512 -0.7741
vn -0.6107 -0.2095 -0.7636
vn -0.0757 0.9855 -0.1522
vn -0.4095 -0.0858 -0.9083
vn 0.1427 -0.4795 -0.8659
vn -0.0000 -0.4855 -0.8742
vn 0.1228 0.9915 0.0431
vn -0.1379 0.9887 -0.0591
vn -0.0441 0.9896 -0.1371
vn -0.3471 -0.7440 -0.5710
vn -0.5698 -0.6818 -0.4588
vn -0.5671 -0.5588 -0.6051
vn -0.0156 0.9915 -0.1294
vn -0.7560 -0.5740 -0.3148
vn -0.7601 -0.4620 -0.4569
vn 0.6202 0.5780 -0.5303
vn -0.6304 0.7647 -0.1338
vn -0.0000 0.9920 -0.1261
vn 0.7675 -0.1284 -0.6281
vn 0.6468 0.0991 0.7562
vn 0.8543 0.0807 0.5135
vn 0.8462 0.3010 0.4398
vn -0.2393 0.6741 0.6988
vn -0.0000 0.7107 0.7034
vn -0.0000 0.8241 0.5664
vn -0.2045 0.7974 0.5677
vn 0.3943 0.2527 -0.8836
vn -0.0380 0.9989 -0.0266
vn 0.0156 0.9915 -0.1294
vn -0.9571 -0.2896 -0.0087
vn -0.9270 -0.3546 -0.1220
vn 0.8847 0.0140 -0.4659
vn -0.7409 -0.2658 -0.6167
vn 0.7921 0.6020 0.1014
vn 0.8406 0.5401 -0.0415
vn 0.9501 0.0435 -0.3088
vn 0.9591 -0.1725 -0.2245
vn 0.8955 -0.2240 -0.3846
vn -0.9411 0.2183 -0.2582
vn -0.9059 0.3180 -0.2797
vn -0.8760 0.2907 -0.3850
vn -0.9116 0.1962 -0.3612
vn -0.4417 0.8972 -0.0024
vn 0.8580 0.4814 -0.1791
vn -0.9503 0.3032 0.0706
vn -0.9081 0.4185 0.0144
vn 0.9311 0.1312 -0.3403
vn 0.9874 0.0243 -0.1565
vn 0.9877 -0.1393 -0.0708
vn 0.5697 -0.6818 -0.4588
vn 0.7560 -0.5740 -0.3148
vn 0.6872 -0.6445 -0.3352
vn 0.5315 -0.7057 -0.4685
vn 0.9876 0.0708 0.1399
vn 0.9538 0.1077 0.2805
vn 0.9528 -0.0236 0.3027
vn 0.9860 -0.0791 0.1467
vn 0.9571 -0.2896 -0.0087
vn 0.9270 -0.3546 -0.1220
vn -0.1067 -0.1129 0.9879
vn -0.2545 0.0140 0.9670
vn -0.3426 -0.0145 0.9394
vn -0.3323 -0.1272 0.9346
vn 0.3237 -0.7569 -0.5678
vn -0.6872 -0.6445 -0.3352
vn -0.8065 -0.5531 -0.2088
vn -0.8262 -0.0456 0.5616
vn -0.8543 0.0807 0.5135
vn -0.9103 0.1073 0.3998
vn -0.8965 -0.0024 0.4430
vn -0.8681 -0.4444 -0.2213
vn -0.8946 -0.4290 -0.1254
vn 0.9374 -0.3483 0.0055
vn 0.8946 -0.4290 -0.1254
vn 0.9915 -0.1291 0.0152
vn 0.9719 -0.2322 0.0388
vn 0.9996 0.0155 -0.0219
vn -0.9374 -0.3483 0.0055
vn 0.1445 -0.7727 -0.6181
vn -0.0000 -0.6458 -0.7635
vn -0.0000 -0.7634 -0.6459
vn -0.1441 -0.7621 -0.6312
vn 0.9611 -0.2196 0.1674
vn -0.9619 -0.2231 0.1578
vn -0.3881 -0.2992 -0.8717
vn -0.9444 -0.1205 0.3059
vn -0.9485 -0.1421 0.2833
vn -0.8671 -0.0859 0.4906
vn -0.7895 -0.1147 0.6029
vn -0.9867 0.1513 -0.0592
vn -0.9661 0.1307 -0.2229
vn 0.8616 0.4801 0.1650
vn 0.9083 0.3580 0.2165
vn 0.9386 0.2336 0.2538
vn 0.9444 -0.1205 0.3059
vn 0.8965 -0.0024 0.4430
vn 0.8671 -0.0859 0.4906
vn 0.7147 0.6611 0.2283
vn 0.7805 0.5523 0.2929
vn -0.9601 0.2604 -0.1017
vn -0.9190 0.3674 -0.1432
vn 0.8931 0.2772 0.3543
vn 0.9103 0.1073 0.3998
vn 0.8065 -0.5531 -0.2088
vn 0.8681 -0.4444 -0.2213
vn 0.8262 -0.0456 0.5616
vn 0.5931 -0.0840 0.8007
vn 0.5411 -0.1607 0.8255
vn 0.7551 -0.1541 0.6373
vn -0.7551 -0.1541 0.6373
vn -0.5999 -0.1694 0.7820
vn -0.5411 -0.1607 0.8255
vn 0.8397 0.4312 0.3302
vn -0.1445 -0.7727 -0.6181
vn -0.3237 -0.7569 -0.5678
vn 0.7935 0.4817 0.3720
vn -0.3660 0.1923 0.9105
vn -0.4800 0.1605 0.8625
vn -0.4483 -0.0401 0.8930
vn -0.2687 -0.1741 0.9474
vn -0.5931 -0.0840 0.8007
vn -0.7147 0.6611 0.2283
vn 0.4483 -0.0401 0.8930
vn -0.3785 0.7392 0.5571
vn -0.3417 0.8200 0.4592
vn 0.3417 0.8200 0.4592
vn -0.0000 0.9855 0.1697
vn 0.3426 -0.0145 0.9394
vn 0.1552 0.8959 0.4163
vn -0.0583 0.9967 0.0572
vn -0.2659 0.2151 0.9397
vn 0.3323 -0.1272 0.9346
vn 0.5545 -0.1135 0.8244
vn -0.0860 0.9956 -0.0379
vn 0.1806 0.8579 0.4810
vn -0.5545 -0.1135 0.8244
vn -0.3619 -0.1568 0.9189
vn -0.4363 0.8328 0.3408
vn -0.0843 0.9827 0.1646
vn -0.1077 0.9610 0.2548
vn -0.0000 -0.7750 -0.6320
vn -0.0000 -0.0109 0.9999
vn 0.2545 0.0140 0.9670
vn 0.1067 -0.1129 0.9879
vn -0.2170 0.9474 0.2352
vn -0.1806 0.8579 0.4810
vn -0.0000 0.8738 0.4863
vn 0.5297 0.3619 -0.7671
vn -0.5547 0.7900 0.2611
vn -0.6468 0.7459 0.1589
vn -0.5708 -0.3542 -0.7407
vn -0.8580 0.4814 -0.1791
vn -0.9742 0.1939 0.1159
vn -0.8766 0.1037 -0.4698
vn -0.8610 0.1801 -0.4756
vn -0.9311 0.1312 -0.3403
vn -0.2652 0.4600 0.8474
vn -0.5315 -0.7057 -0.4685
vn 0.9619 -0.2231 0.1578
vn -0.9528 -0.0236 0.3027
vn 0.9485 -0.1421 0.2833
vn -0.9538 0.1077 0.2805
vn -0.6468 0.0991 0.7562
vn 0.7895 -0.1147 0.6029
vn -0.3684 -0.1491 0.9176
vn -0.0000 -0.1671 0.9859
vn -0.3074 -0.9054 0.2929
vn -0.3612 -0.3169 0.8770
vn -0.0000 -0.7761 0.6306
vn -0.0000 -0.5674 0.8234
vn 0.2687 -0.1741 0.9474
vn 0.5999 -0.1694 0.7820
vn 0.3619 -0.1568 0.9189
vn 0.3684 -0.1491 0.9176
vn -0.0000 -0.2059 0.9786
vn 0.0237 -0.6265 0.7791
vn -0.0000 -0.8843 0.4670
vn 0.0254 -0.6308 0.7755
vn 0.0413 -0.9813 0.1879
vn 0.0351 -0.8780 -0.4775
vn 0.3074 -0.9054 0.2929
vn 0.3612 -0.3169 0.8770
vn 0.1517 -0.9483 0.2788
vn -0.0351 -0.8780 -0.4775
vn -0.3001 -0.5288 -0.7939
vn -0.0413 -0.9813 0.1879
vn -0.1517 -0.9483 0.2788
vn 0.2219 -0.9271 -0.3020
vn -0.0254 -0.6308 0.7755
vn 0.3001 -0.5288 -0.7939
vn 0.6356 -0.3699 0.6777
vn -0.0237 -0.6265 0.7791
vn -0.2219 -0.9271 -0.3020
vn 0.0640 -0.9654 0.2528
vn -0.6356 -0.3699 0.6776
vn -0.6798 -0.4877 -0.5478
vn -0.0640 -0.9654 0.2528
vn 0.0790 -0.9572 -0.2783
vn 0.6798 -0.4877 -0.5478
vn 0.8351 -0.4475 0.3197
vn -0.0791 -0.9572 -0.2783
vn -0.0358 -0.9734 0.2263
vn -0.8351 -0.4475 0.3197
vn -0.8996 -0.4180 -0.1267
vn 0.0358 -0.9734 0.2263
vn -0.0000 -0.9570 -0.2901
vn 0.8996 -0.4180 -0.1267
vt 0.000000 0.000000
s 1
f 63/1/1 84/1/2 61/1/3 57/1/4
f 313/1/5 340/1/6 332/1/7 312/1/8
f 249/1/9 264/1/10 261/1/11 254/1/12
f 492/1/13 498/1/14 494/1/15 488/1/16
f 6/1/17 8/1/18 7/1/19
f 6/1/17 9/1/20 8/1/18
f 50/1/21 58/1/22 49/1/23 42/1/24
f 7/1/19 8/1/18 10/1/25
f 49/1/23 53/1/26 47/1/27 42/1/24
f 9/1/20 13/1/28 8/1/18
f 70/1/29 76/1/30 77/1/31 63/1/1
f 77/1/31 89/1/32 84/1/2 63/1/1
f 43/1/33 50/1/21 42/1/24 37/1/34
f 10/1/25 8/1/18 16/1/35
f 338/1/36 344/1/37 337/1/38 331/1/39
f 47/1/27 54/1/40 48/1/41 41/1/42
f 427/1/43 429/1/44 274/1/45 421/1/46
f 13/1/28 21/1/47 8/1/18
f 76/1/30 104/1/48 95/1/49 77/1/31
f 95/1/49 96/1/50 89/1/32 77/1/31
f 323/1/51 324/1/52 206/1/53 317/1/54
f 16/1/35 8/1/18 24/1/55
f 37/1/34 41/1/42 25/1/56 29/1/57
f 55/1/58 68/1/59 59/1/60 56/1/61
f 55/1/58 56/1/61 48/1/41 54/1/40
f 169/1/62 177/1/63 163/1/64 154/1/65
f 61/1/3 83/1/66 62/1/67 53/1/26
f 109/1/68 95/1/49 104/1/48 108/1/69
f 109/1/68 123/1/70 96/1/50 95/1/49
f 159/1/71 171/1/72 176/1/73 169/1/62
f 96/1/50 124/1/74 97/1/75 89/1/32
f 62/1/67 83/1/66 82/1/76 75/1/77
f 84/1/2 88/1/78 83/1/66 61/1/3
f 38/1/79 114/1/80 39/1/81 33/1/82
f 24/1/55 29/1/57 20/1/83 16/1/35
f 147/1/84 370/1/85 150/1/86 148/1/87
f 297/1/88 298/1/89 202/1/90 291/1/91
f 124/1/74 148/1/87 131/1/92 97/1/75
f 55/1/58 75/1/77 74/1/93 68/1/59
f 88/1/78 136/1/94 82/1/76 83/1/66
f 26/1/95 18/1/96 17/1/97 25/1/56
f 12/1/98 20/1/83 17/1/97 11/1/99
f 131/1/92 136/1/94 88/1/78 97/1/75
f 24/1/55 8/1/18 43/1/33
f 73/1/100 69/1/101 65/1/102 72/1/103
f 369/1/104 370/1/85 147/1/84 364/1/105
f 499/1/106 430/1/107 423/1/108 422/1/109
f 221/1/110 233/1/111 226/1/112 220/1/113
f 43/1/33 8/1/18 50/1/21
f 48/1/41 56/1/61 51/1/114 26/1/95
f 112/1/115 113/1/116 105/1/117 111/1/118
f 52/1/119 87/1/120 40/1/121 45/1/122
f 74/1/93 152/1/123 67/1/124 68/1/59
f 59/1/60 68/1/59 67/1/124 66/1/125
f 19/1/126 28/1/127 4/1/128 11/1/99
f 119/1/129 217/1/130 134/1/131 127/1/132
f 1/1/133 5/1/134 4/1/128 2/1/135
f 1/1/133 6/1/17 7/1/19 5/1/134
f 50/1/21 8/1/18 58/1/22
f 51/1/114 60/1/136 44/1/137 46/1/138
f 27/1/139 46/1/138 44/1/137 45/1/122
f 27/1/139 34/1/140 28/1/127 19/1/126
f 302/1/141 318/1/142 309/1/143 303/1/144
f 36/1/145 32/1/146 15/1/147 2/1/135
f 3/1/148 9/1/20 6/1/17 1/1/133
f 58/1/22 8/1/18 64/1/149
f 59/1/60 66/1/125 65/1/102 60/1/136
f 401/1/150 403/1/151 172/1/152 395/1/153
f 145/1/154 212/1/155 211/1/156 203/1/157
f 64/1/149 8/1/18 70/1/29
f 65/1/102 69/1/101 44/1/137 60/1/136
f 373/1/158 374/1/159 365/1/160 371/1/161
f 71/1/162 72/1/103 65/1/102 66/1/125
f 67/1/124 157/1/163 71/1/162 66/1/125
f 93/1/164 94/1/165 40/1/121 87/1/120
f 363/1/166 359/1/167 358/1/168 362/1/169
f 70/1/29 8/1/18 76/1/30
f 411/1/170 493/1/171 405/1/172 406/1/173
f 432/1/174 392/1/175 391/1/176 399/1/177
f 78/1/178 79/1/179 73/1/100 72/1/103
f 363/1/166 364/1/105 141/1/180 359/1/167
f 62/1/67 75/1/77 55/1/58 54/1/40
f 40/1/121 94/1/165 35/1/181 34/1/140
f 35/1/181 36/1/145 28/1/127 34/1/140
f 300/1/182 306/1/183 299/1/184 293/1/185
f 167/1/186 168/1/187 78/1/178 162/1/188
f 256/1/189 264/1/10 249/1/9 248/1/190
f 46/1/138 18/1/96 26/1/95 51/1/114
f 376/1/191 377/1/192 369/1/104 368/1/193
f 35/1/181 103/1/194 32/1/146 36/1/145
f 32/1/146 33/1/82 23/1/195 15/1/147
f 99/1/196 111/1/118 105/1/117 100/1/197
f 372/1/198 375/1/199 367/1/200 366/1/201
f 151/1/202 152/1/123 74/1/93 144/1/203
f 30/1/204 146/1/205 31/1/206 22/1/207
f 31/1/206 158/1/208 21/1/47 22/1/207
f 485/1/209 487/1/210 492/1/13 483/1/211
f 172/1/152 403/1/151 180/1/212 173/1/213
f 98/1/214 126/1/215 91/1/216 90/1/217
f 110/1/218 114/1/80 38/1/79 106/1/219
f 16/1/35 20/1/83 12/1/98 10/1/25
f 71/1/162 162/1/188 78/1/178 72/1/103
f 165/1/220 166/1/221 151/1/202 160/1/222
f 354/1/223 355/1/224 336/1/225 350/1/226
f 76/1/30 8/1/18 104/1/48
f 44/1/137 69/1/101 52/1/119 45/1/122
f 155/1/227 387/1/228 165/1/220 160/1/222
f 436/1/229 455/1/230 444/1/231 437/1/232
f 400/1/233 432/1/174 431/1/234 426/1/235
f 104/1/48 8/1/18 108/1/69
f 9/1/20 3/1/148 14/1/236 13/1/28
f 295/1/237 296/1/238 276/1/239 289/1/240
f 131/1/92 148/1/87 150/1/86 149/1/241
f 150/1/86 379/1/242 155/1/227 149/1/241
f 479/1/243 372/1/198 374/1/159 381/1/244
f 108/1/69 8/1/18 115/1/245
f 89/1/32 97/1/75 88/1/78 84/1/2
f 18/1/96 46/1/138 27/1/139 19/1/126
f 394/1/246 387/1/228 386/1/247 393/1/248
f 378/1/249 379/1/242 150/1/86 370/1/85
f 315/1/250 334/1/251 321/1/252 316/1/253
f 354/1/223 360/1/254 356/1/255 355/1/224
f 133/1/256 126/1/215 98/1/214 132/1/257
f 115/1/245 8/1/18 121/1/258
f 171/1/72 178/1/259 179/1/260 176/1/73
f 233/1/111 240/1/261 234/1/262 226/1/112
f 146/1/205 30/1/204 39/1/81 139/1/263
f 224/1/264 277/1/265 218/1/266 217/1/130
f 394/1/246 402/1/267 401/1/150 395/1/153
f 121/1/258 8/1/18 128/1/268
f 202/1/90 298/1/89 197/1/269 195/1/270
f 22/1/207 21/1/47 13/1/28 14/1/236
f 179/1/260 186/1/271 184/1/272 176/1/73
f 27/1/139 45/1/122 40/1/121 34/1/140
f 103/1/194 38/1/79 33/1/82 32/1/146
f 409/1/273 410/1/274 180/1/212 403/1/151
f 409/1/273 403/1/151 401/1/150 408/1/275
f 378/1/249 370/1/85 369/1/104 377/1/192
f 197/1/269 305/1/276 196/1/277 190/1/278
f 415/1/279 416/1/280 187/1/281 410/1/274
f 409/1/273 414/1/282 415/1/279 410/1/274
f 141/1/180 364/1/105 147/1/84 142/1/283
f 140/1/284 164/1/285 159/1/71 153/1/286
f 249/1/9 254/1/12 234/1/262 240/1/261
f 101/1/287 106/1/219 38/1/79 103/1/194
f 101/1/287 103/1/194 35/1/181 94/1/165
f 105/1/117 113/1/116 110/1/218 106/1/219
f 363/1/166 368/1/193 369/1/104 364/1/105
f 33/1/82 39/1/81 30/1/204 23/1/195
f 367/1/200 362/1/169 361/1/288 366/1/201
f 120/1/289 139/1/263 39/1/81 114/1/80
f 110/1/218 127/1/132 120/1/289 114/1/80
f 130/1/290 359/1/167 141/1/180 135/1/291
f 101/1/287 94/1/165 93/1/164 100/1/197
f 341/1/292 342/1/293 321/1/252 334/1/251
f 142/1/283 123/1/70 135/1/291 141/1/180
f 116/1/294 135/1/291 123/1/70 109/1/68
f 105/1/117 106/1/219 101/1/287 100/1/197
f 349/1/295 350/1/226 329/1/296 342/1/293
f 86/1/297 87/1/120 52/1/119 81/1/298
f 86/1/297 92/1/299 93/1/164 87/1/120
f 108/1/69 115/1/245 116/1/294 109/1/68
f 158/1/208 8/1/18 21/1/47
f 130/1/290 135/1/291 116/1/294 122/1/300
f 351/1/301 356/1/255 357/1/302 352/1/303
f 80/1/304 90/1/217 86/1/297 81/1/298
f 80/1/304 81/1/298 73/1/100 79/1/179
f 158/1/208 163/1/64 8/1/18
f 99/1/196 100/1/197 93/1/164 92/1/299
f 478/1/305 486/1/306 487/1/210 485/1/209
f 200/1/307 201/1/308 182/1/309 194/1/310
f 85/1/311 102/1/312 80/1/304 79/1/179
f 122/1/300 116/1/294 115/1/245 121/1/258
f 147/1/84 148/1/87 124/1/74 142/1/283
f 359/1/167 130/1/290 353/1/313 358/1/168
f 91/1/216 92/1/299 86/1/297 90/1/217
f 91/1/216 117/1/314 99/1/196 92/1/299
f 167/1/186 188/1/315 174/1/316 168/1/187
f 292/1/317 295/1/237 289/1/240 279/1/318
f 129/1/319 353/1/313 130/1/290 122/1/300
f 121/1/258 128/1/268 129/1/319 122/1/300
f 177/1/63 8/1/18 163/1/64
f 352/1/303 357/1/302 358/1/168 353/1/313
f 346/1/320 352/1/303 353/1/313 129/1/319
f 80/1/304 102/1/312 98/1/214 90/1/217
f 180/1/212 410/1/274 187/1/281 181/1/321
f 207/1/322 251/1/323 216/1/324 209/1/325
f 193/1/326 194/1/310 174/1/316 188/1/315
f 339/1/327 346/1/320 129/1/319 128/1/268
f 177/1/63 184/1/272 8/1/18
f 433/1/328 443/1/329 427/1/43 428/1/330
f 344/1/37 346/1/320 339/1/327 337/1/38
f 184/1/272 186/1/271 8/1/18
f 107/1/331 132/1/257 98/1/214 102/1/312
f 85/1/311 175/1/332 107/1/331 102/1/312
f 416/1/280 274/1/45 267/1/333 193/1/326
f 399/1/177 458/1/334 431/1/234 432/1/174
f 214/1/335 215/1/336 137/1/337 208/1/338
f 354/1/223 371/1/161 365/1/160 360/1/254
f 186/1/271 192/1/339 8/1/18
f 182/1/309 183/1/340 107/1/331 175/1/332
f 200/1/307 267/1/333 266/1/341 258/1/342
f 107/1/331 183/1/340 137/1/337 132/1/257
f 355/1/224 356/1/255 351/1/301 345/1/343
f 345/1/343 338/1/36 324/1/52 323/1/51
f 185/1/344 192/1/339 186/1/271 179/1/260
f 192/1/339 199/1/345 8/1/18
f 193/1/326 267/1/333 200/1/307 194/1/310
f 216/1/324 243/1/346 235/1/347 228/1/348
f 356/1/255 360/1/254 361/1/288 357/1/302
f 361/1/288 362/1/169 358/1/168 357/1/302
f 199/1/345 204/1/349 8/1/18
f 235/1/347 237/1/350 229/1/351 228/1/348
f 143/1/352 144/1/203 82/1/76 136/1/94
f 187/1/281 188/1/315 167/1/186 181/1/321
f 274/1/45 429/1/44 266/1/341 267/1/333
f 2/1/135 15/1/147 3/1/148 1/1/133
f 367/1/200 368/1/193 363/1/166 362/1/169
f 134/1/131 212/1/155 145/1/154 138/1/353
f 204/1/349 213/1/354 8/1/18
f 420/1/355 421/1/46 415/1/279 414/1/282
f 483/1/211 484/1/356 476/1/357 475/1/358
f 427/1/43 443/1/329 436/1/229 429/1/44
f 436/1/229 437/1/232 266/1/341 429/1/44
f 404/1/359 412/1/360 396/1/361 397/1/362
f 180/1/212 181/1/321 161/1/363 173/1/213
f 206/1/53 213/1/354 204/1/349 198/1/364
f 213/1/354 219/1/365 8/1/18
f 241/1/366 240/1/261 233/1/111 239/1/367
f 413/1/368 414/1/282 409/1/273 408/1/275
f 214/1/335 222/1/369 221/1/110
f 73/1/100 81/1/298 52/1/119 69/1/101
f 376/1/191 383/1/370 384/1/371 377/1/192
f 418/1/372 424/1/373 419/1/374 413/1/368
f 248/1/190 249/1/9 240/1/261 241/1/366
f 238/1/375 231/1/376 118/1/377 230/1/378
f 222/1/369 229/1/351 221/1/110
f 170/1/379 195/1/270 178/1/259 171/1/72
f 392/1/175 393/1/248 386/1/247 385/1/380
f 269/1/381 289/1/240 276/1/239 270/1/382
f 407/1/383 426/1/235 425/1/384 418/1/372
f 425/1/384 442/1/385 424/1/373 418/1/372
f 449/1/386 455/1/230 436/1/229 443/1/329
f 443/1/329 433/1/328 441/1/387 449/1/386
f 448/1/388 454/1/389 449/1/386 441/1/387
f 400/1/233 402/1/267 394/1/246 393/1/248
f 400/1/233 426/1/235 407/1/383 402/1/267
f 392/1/175 432/1/174 400/1/233 393/1/248
f 457/1/390 464/1/391 463/1/392 456/1/393
f 424/1/373 442/1/385 439/1/394 434/1/395
f 343/1/396 348/1/397 320/1/398 327/1/399
f 454/1/389 462/1/400 455/1/230 449/1/386
f 237/1/350 242/1/401 245/1/402
f 281/1/403 286/1/404 284/1/405 280/1/406
f 236/1/407 246/1/408 239/1/367
f 439/1/394 446/1/409 438/1/410 434/1/395
f 442/1/385 450/1/411 447/1/412 439/1/394
f 425/1/384 451/1/413 450/1/411 442/1/385
f 241/1/366 250/1/414 248/1/190
f 423/1/108 430/1/107 411/1/170 412/1/360
f 462/1/400 459/1/415 444/1/231 455/1/230
f 431/1/234 451/1/413 425/1/384 426/1/235
f 259/1/416 445/1/417 252/1/418 251/1/323
f 450/1/411 456/1/393 452/1/419 447/1/412
f 248/1/190 257/1/420 256/1/189
f 207/1/322 209/1/325 189/1/421 201/1/308
f 444/1/231 445/1/417 259/1/416 437/1/232
f 457/1/390 456/1/393 450/1/411 451/1/413
f 431/1/234 458/1/334 457/1/390 451/1/413
f 256/1/189 257/1/420 263/1/422
f 119/1/129 127/1/132 110/1/218 113/1/116
f 257/1/420 265/1/423 263/1/422
f 200/1/307 258/1/342 207/1/322 201/1/308
f 207/1/322 258/1/342 259/1/416 251/1/323
f 276/1/239 277/1/265 224/1/264 270/1/382
f 187/1/281 416/1/280 193/1/326 188/1/315
f 155/1/227 160/1/222 143/1/352 149/1/241
f 420/1/355 428/1/330 427/1/43 421/1/46
f 265/1/423 272/1/424 263/1/422
f 265/1/423 273/1/425 272/1/424
f 234/1/262 254/1/12 255/1/426 247/1/427
f 174/1/316 194/1/310 182/1/309 175/1/332
f 390/1/428 391/1/176 384/1/371 383/1/370
f 390/1/428 466/1/429 399/1/177 391/1/176
f 483/1/211 492/1/13 488/1/16 484/1/356
f 399/1/177 466/1/429 465/1/430 458/1/334
f 460/1/431 463/1/392 468/1/432 467/1/433
f 272/1/424 273/1/425 281/1/403
f 272/1/424 281/1/403 280/1/406
f 382/1/434 473/1/435 390/1/428 383/1/370
f 238/1/375 262/1/436 232/1/437 231/1/376
f 465/1/430 472/1/438 470/1/439 464/1/391
f 440/1/440 441/1/387 435/1/441 438/1/410
f 470/1/439 476/1/357 474/1/442 468/1/432
f 476/1/357 484/1/356 480/1/443 474/1/442
f 481/1/444 482/1/445 474/1/442 480/1/443
f 161/1/363 181/1/321 167/1/186 162/1/188
f 407/1/383 418/1/372 413/1/368 408/1/275
f 475/1/358 476/1/357 470/1/439 472/1/438
f 288/1/446 294/1/447 287/1/448
f 390/1/428 473/1/435 471/1/449 466/1/429
f 471/1/449 472/1/438 465/1/430 466/1/429
f 365/1/160 366/1/201 361/1/288 360/1/254
f 365/1/160 374/1/159 372/1/198 366/1/201
f 252/1/418 260/1/450 253/1/451 243/1/346
f 473/1/435 478/1/305 477/1/452 471/1/449
f 477/1/452 485/1/209 483/1/211 475/1/358
f 320/1/398 319/1/453 314/1/454 308/1/455
f 294/1/447 301/1/456 287/1/448
f 477/1/452 475/1/358 472/1/438 471/1/449
f 159/1/71 169/1/62 154/1/65 153/1/286
f 338/1/36 345/1/343 351/1/301 344/1/37
f 131/1/92 149/1/241 143/1/352 136/1/94
f 299/1/184 306/1/183 302/1/141
f 287/1/448 308/1/455 285/1/457
f 301/1/456 308/1/455 287/1/448
f 386/1/247 387/1/228 155/1/227 379/1/242
f 381/1/244 486/1/306 478/1/305 479/1/243
f 349/1/295 371/1/161 354/1/223 350/1/226
f 276/1/239 296/1/238 282/1/458 277/1/265
f 154/1/65 163/1/64 158/1/208 31/1/206
f 488/1/16 489/1/459 480/1/443 484/1/356
f 325/1/460 326/1/461 309/1/143 318/1/142
f 336/1/225 355/1/224 345/1/343 323/1/51
f 373/1/158 398/1/462 381/1/244 374/1/159
f 336/1/225 323/1/51 317/1/54 330/1/463
f 28/1/127 36/1/145 2/1/135 4/1/128
f 495/1/464 489/1/459 488/1/16 494/1/15
f 349/1/295 380/1/465 373/1/158 371/1/161
f 18/1/96 19/1/126 11/1/99 17/1/97
f 205/1/466 317/1/54 206/1/53 198/1/364
f 405/1/172 486/1/306 381/1/244 398/1/462
f 348/1/397 347/1/467 319/1/453 320/1/398
f 496/1/468 497/1/469 489/1/459 495/1/464
f 120/1/289 138/1/353 140/1/284 139/1/263
f 143/1/352 160/1/222 151/1/202 144/1/203
f 198/1/364 204/1/349 199/1/345 191/1/470
f 219/1/365 331/1/39 8/1/18
f 493/1/171 498/1/14 492/1/13 487/1/210
f 386/1/247 379/1/242 378/1/249 385/1/380
f 389/1/471 406/1/173 405/1/172 398/1/462
f 328/1/472 335/1/473 327/1/399
f 309/1/143 326/1/461 315/1/250 310/1/474
f 329/1/296 330/1/463 311/1/475 322/1/476
f 331/1/39 337/1/38 8/1/18
f 191/1/470 199/1/345 192/1/339 185/1/344
f 8/1/18 337/1/38 339/1/327
f 8/1/18 339/1/327 128/1/268
f 444/1/231 459/1/415 268/1/477 445/1/417
f 341/1/292 380/1/465 349/1/295 342/1/293
f 335/1/473 343/1/396 327/1/399
f 206/1/53 324/1/52 219/1/365 213/1/354
f 348/1/397 503/1/478 422/1/109 347/1/467
f 146/1/205 139/1/263 140/1/284 153/1/286
f 413/1/368 419/1/374 420/1/355 414/1/282
f 494/1/15 499/1/106 500/1/479 495/1/464
f 500/1/479 501/1/480 496/1/468 495/1/464
f 321/1/252 342/1/293 329/1/296 322/1/476
f 59/1/60 60/1/136 51/1/114 56/1/61
f 190/1/278 196/1/277 191/1/470 185/1/344
f 178/1/259 190/1/278 185/1/344 179/1/260
f 123/1/70 142/1/283 124/1/74 96/1/50
f 304/1/481 322/1/476 311/1/475 305/1/276
f 321/1/252 322/1/476 304/1/481 316/1/253
f 305/1/276 311/1/475 205/1/466 196/1/277
f 24/1/55 43/1/33 37/1/34 29/1/57
f 304/1/481 305/1/276 197/1/269 298/1/89
f 195/1/270 197/1/269 190/1/278 178/1/259
f 176/1/73 184/1/272 177/1/63 169/1/62
f 325/1/460 397/1/362 333/1/482 326/1/461
f 170/1/379 203/1/157 202/1/90 195/1/270
f 154/1/65 31/1/206 146/1/205 153/1/286
f 145/1/154 203/1/157 170/1/379 164/1/285
f 145/1/154 164/1/285 140/1/284 138/1/353
f 396/1/361 406/1/173 389/1/471 388/1/483
f 297/1/88 316/1/253 304/1/481 298/1/89
f 211/1/156 291/1/91 202/1/90 203/1/157
f 156/1/484 157/1/163 67/1/124 152/1/123
f 389/1/471 398/1/462 373/1/158 380/1/465
f 134/1/131 138/1/353 120/1/289 127/1/132
f 161/1/363 162/1/188 71/1/162 157/1/163
f 290/1/485 291/1/91 211/1/156 283/1/486
f 394/1/246 395/1/153 165/1/220 387/1/228
f 315/1/250 316/1/253 297/1/88 310/1/474
f 218/1/266 283/1/486 211/1/156 212/1/155
f 218/1/266 212/1/155 134/1/131 217/1/130
f 41/1/42 48/1/41 26/1/95 25/1/56
f 311/1/475 330/1/463 317/1/54 205/1/466
f 309/1/143 310/1/474 290/1/485 303/1/144
f 456/1/393 463/1/392 460/1/431 452/1/419
f 282/1/458 303/1/144 290/1/485 283/1/486
f 282/1/458 283/1/486 218/1/266 277/1/265
f 216/1/324 228/1/348 210/1/487 209/1/325
f 119/1/129 225/1/488 224/1/264 217/1/130
f 112/1/115 225/1/488 119/1/129 113/1/116
f 290/1/485 310/1/474 297/1/88 291/1/91
f 333/1/482 388/1/483 341/1/292 334/1/251
f 333/1/482 334/1/251 315/1/250 326/1/461
f 137/1/337 215/1/336 133/1/256 132/1/257
f 389/1/471 380/1/465 341/1/292 388/1/483
f 232/1/437 270/1/382 224/1/264 225/1/488
f 151/1/202 166/1/221 156/1/484 152/1/123
f 392/1/175 385/1/380 384/1/371 391/1/176
f 99/1/196 117/1/314 118/1/377 111/1/118
f 20/1/83 29/1/57 25/1/56 17/1/97
f 333/1/482 397/1/362 396/1/361 388/1/483
f 269/1/381 270/1/382 232/1/437 262/1/436
f 376/1/191 368/1/193 367/1/200 375/1/199
f 279/1/318 289/1/240 269/1/381 275/1/489
f 133/1/256 223/1/490 125/1/491 126/1/215
f 172/1/152 173/1/213 156/1/484 166/1/221
f 91/1/216 126/1/215 125/1/491 117/1/314
f 396/1/361 412/1/360 411/1/170 406/1/173
f 57/1/4 61/1/3 53/1/26 49/1/23
f 411/1/170 430/1/107 498/1/14 493/1/171
f 293/1/185 292/1/317 284/1/405 286/1/404
f 15/1/147 23/1/195 14/1/236 3/1/148
f 227/1/492 230/1/378 125/1/491 223/1/490
f 407/1/383 408/1/275 401/1/150 402/1/267
f 196/1/277 205/1/466 198/1/364 191/1/470
f 372/1/198 479/1/243 382/1/434 375/1/199
f 325/1/460 332/1/7 404/1/359 397/1/362
f 329/1/296 350/1/226 336/1/225 330/1/463
f 227/1/492 223/1/490 220/1/113 226/1/112
f 415/1/279 421/1/46 274/1/45 416/1/280
f 384/1/371 385/1/380 378/1/249 377/1/192
f 234/1/262 247/1/427 227/1/492 226/1/112
f 189/1/421 208/1/338 137/1/337 183/1/340
f 112/1/115 231/1/376 232/1/437 225/1/488
f 64/1/149 70/1/29 63/1/1 57/1/4
f 214/1/335 221/1/110 220/1/113 215/1/336
f 324/1/52 338/1/36 331/1/39 219/1/365
f 5/1/134 12/1/98 11/1/99 4/1/128
f 422/1/109 503/1/478 500/1/479 499/1/106
f 164/1/285 170/1/379 171/1/72 159/1/71
f 82/1/76 144/1/203 74/1/93 75/1/77
f 189/1/421 209/1/325 210/1/487 208/1/338
f 210/1/487 222/1/369 214/1/335 208/1/338
f 420/1/355 419/1/374 428/1/330
f 261/1/11 275/1/489 255/1/426 254/1/12
f 417/1/493 423/1/108 412/1/360 404/1/359
f 78/1/178 168/1/187 85/1/311 79/1/179
f 255/1/426 262/1/436 238/1/375 247/1/427
f 255/1/426 275/1/489 269/1/381 262/1/436
f 428/1/330 419/1/374 433/1/328
f 210/1/487 228/1/348 229/1/351 222/1/369
f 221/1/110 236/1/407 239/1/367 233/1/111
f 229/1/351 237/1/350 236/1/407 221/1/110
f 156/1/484 173/1/213 161/1/363 157/1/163
f 382/1/434 383/1/370 376/1/191 375/1/199
f 434/1/395 438/1/410 435/1/441
f 435/1/441 441/1/387 433/1/328 419/1/374
f 434/1/395 435/1/441 419/1/374 424/1/373
f 245/1/402 246/1/408 236/1/407 237/1/350
f 266/1/341 437/1/232 259/1/416 258/1/342
f 216/1/324 251/1/323 252/1/418 243/1/346
f 445/1/417 268/1/477 260/1/450 252/1/418
f 439/1/394 447/1/412 446/1/409
f 125/1/491 230/1/378 118/1/377 117/1/314
f 440/1/440 448/1/388 441/1/387
f 165/1/220 395/1/153 172/1/152 166/1/221
f 235/1/347 244/1/494 242/1/401 237/1/350
f 174/1/316 175/1/332 85/1/311 168/1/187
f 352/1/303 346/1/320 344/1/37 351/1/301
f 118/1/377 231/1/376 112/1/115 111/1/118
f 447/1/412 452/1/419 453/1/495
f 280/1/406 271/1/496 263/1/422 272/1/424
f 382/1/434 479/1/243 478/1/305 473/1/435
f 53/1/26 62/1/67 54/1/40 47/1/27
f 263/1/422 271/1/496 264/1/10 256/1/189
f 452/1/419 460/1/431 453/1/495
f 453/1/495 460/1/431 461/1/497
f 405/1/172 493/1/171 487/1/210 486/1/306
f 271/1/496 278/1/498 261/1/11 264/1/10
f 220/1/113 223/1/490 133/1/256 215/1/336
f 279/1/318 275/1/489 261/1/11 278/1/498
f 460/1/431 467/1/433 461/1/497
f 285/1/457 308/1/455 314/1/454 307/1/499
f 461/1/497 467/1/433 469/1/500
f 278/1/498 271/1/496 280/1/406 284/1/405
f 308/1/455 328/1/472 327/1/399 320/1/398
f 23/1/195 30/1/204 22/1/207 14/1/236
f 227/1/492 247/1/427 238/1/375 230/1/378
f 467/1/433 468/1/432 474/1/442
f 467/1/433 474/1/442 469/1/500
f 348/1/397 507/1/501 504/1/502 503/1/478
f 517/1/503 520/1/504 515/1/505 514/1/506
f 299/1/184 295/1/237 292/1/317 293/1/185
f 302/1/141 303/1/144 282/1/458 296/1/238
f 340/1/6 417/1/493 404/1/359 332/1/7
f 243/1/346 253/1/451 244/1/494 235/1/347
f 284/1/405 292/1/317 279/1/318 278/1/498
f 286/1/404 307/1/499 300/1/182 293/1/185
f 58/1/22 64/1/149 57/1/4 49/1/23
f 477/1/452 478/1/305 485/1/209
f 312/1/8 318/1/142 302/1/141 306/1/183
f 312/1/8 332/1/7 325/1/460 318/1/142
f 314/1/454 313/1/5 300/1/182 307/1/499
f 246/1/408 250/1/414 241/1/366 239/1/367
f 480/1/443 489/1/459 481/1/444
f 481/1/444 489/1/459 490/1/507
f 481/1/444 491/1/508 482/1/445
f 481/1/444 490/1/507 491/1/508
f 313/1/5 312/1/8 306/1/183 300/1/182
f 422/1/109 423/1/108 417/1/493 347/1/467
f 319/1/453 340/1/6 313/1/5 314/1/454
f 457/1/390 458/1/334 465/1/430 464/1/391
f 299/1/184 302/1/141 296/1/238 295/1/237
f 10/1/25 12/1/98 5/1/134 7/1/19
f 347/1/467 417/1/493 340/1/6 319/1/453
f 498/1/14 430/1/107 499/1/106 494/1/15
f 463/1/392 464/1/391 470/1/439 468/1/432
f 42/1/24 47/1/27 41/1/42 37/1/34
f 496/1/468 502/1/509 497/1/469
f 496/1/468 501/1/480 502/1/509
f 281/1/403 288/1/446 287/1/448 285/1/457
f 504/1/502 505/1/510 500/1/479 503/1/478
f 504/1/502 506/1/511 505/1/510
f 504/1/502 507/1/501 506/1/511
f 508/1/512 509/1/513 510/1/514
f 510/1/514 509/1/513 511/1/515
f 511/1/515 509/1/513 512/1/516
f 512/1/516 509/1/513 513/1/517
f 513/1/517 509/1/513 514/1/506
f 285/1/457 307/1/499 286/1/404 281/1/403
f 515/1/505 516/1/518 513/1/517 514/1/506
f 514/1/506 509/1/513 517/1/503
f 516/1/518 515/1/505 518/1/519
f 517/1/503 509/1/513 519/1/520
f 518/1/519 515/1/505 521/1/521
f 519/1/520 509/1/513 522/1/522
f 520/1/504 523/1/523 515/1/505
f 521/1/521 515/1/505 524/1/524
f 522/1/522 509/1/513 525/1/525
f 523/1/523 526/1/526 515/1/505
f 524/1/524 515/1/505 527/1/527
f 509/1/513 528/1/528 525/1/525
f 526/1/526 529/1/529 515/1/505
f 527/1/527 515/1/505 530/1/530
f 529/1/529 531/1/531 515/1/505
f 530/1/530 515/1/505 532/1/532
f 531/1/531 533/1/533 515/1/505
f 532/1/532 515/1/505 534/1/534
f 533/1/533 535/1/535 515/1/505
f 534/1/534 515/1/505 536/1/536
f 535/1/535 537/1/537 515/1/505
f 536/1/536 515/1/505 538/1/538
f 537/1/537 539/1/539 515/1/505
f 538/1/538 515/1/505 540/1/540
f 539/1/539 541/1/541 515/1/505
f 540/1/540 515/1/505 542/1/542
f 542/1/542 515/1/505 543/1/543
f 541/1/541 543/1/543 515/1/505
f 182/1/309 201/1/308 189/1/421 183/1/340
