# Blender 4.3.2
# www.blender.org
o hair.074
v 7.672795 0.595025 0.003576
v 7.686250 0.596103 -0.006361
v 7.673598 0.600237 0.006068
v 7.672015 0.589675 0.001221
v 7.674402 0.605449 0.008561
v 7.675957 0.592633 -0.003850
v 7.675205 0.610662 0.011053
v 7.680202 0.595976 -0.008807
v 7.680400 0.617352 0.011773
v 7.676653 0.609220 0.013655
v 7.680340 0.584133 -0.016140
v 7.680235 0.589980 -0.012436
v 7.677467 0.608408 0.015119
v 7.687891 0.600632 -0.004543
v 7.687117 0.612776 0.022310
v 7.682444 0.603452 0.024063
v 7.679277 0.606606 0.018371
v 7.678372 0.607507 0.016745
v 7.695704 0.593241 -0.014150
v 7.695199 0.591583 -0.022234
v 7.687883 0.588052 -0.019160
v 7.696494 0.598413 -0.011864
v 7.680344 0.614001 0.022865
v 7.705805 0.650056 0.015290
v 7.700106 0.586669 -0.026198
v 7.704995 0.581741 -0.030164
v 7.714284 0.593241 -0.014150
v 7.713496 0.598413 -0.011864
v 7.679594 0.618292 0.022537
v 7.714789 0.591583 -0.022234
v 7.709884 0.586669 -0.026198
v 7.729649 0.584133 -0.016140
v 7.723740 0.596103 -0.006361
v 7.722099 0.600632 -0.004543
v 7.678852 0.622672 0.022243
v 7.722106 0.588052 -0.019160
v 7.729787 0.595976 -0.008807
v 7.729589 0.617352 0.011773
v 7.678289 0.625565 0.022192
v 7.734032 0.592633 -0.003850
v 7.680888 0.626103 0.024965
v 7.737975 0.589675 0.001221
v 7.683457 0.626866 0.027707
v 7.737194 0.595025 0.003576
v 7.686060 0.628131 0.030110
v 7.736391 0.600237 0.006068
v 7.688660 0.629785 0.032080
v 7.735588 0.605449 0.008561
v 7.734784 0.610662 0.011053
v 7.691204 0.631872 0.033500
v 7.733336 0.609220 0.013655
v 7.693629 0.634365 0.034491
v 7.732522 0.608408 0.015119
v 7.731617 0.607507 0.016745
v 7.730712 0.606606 0.018371
v 7.727545 0.603452 0.024063
v 7.722873 0.612776 0.022310
v 7.695874 0.637213 0.035183
v 7.729385 0.612660 0.023007
v 7.698030 0.640238 0.035727
v 7.730145 0.616862 0.022647
v 7.730892 0.621197 0.022336
v 7.731671 0.625498 0.022252
v 7.729101 0.626101 0.024965
v 7.726532 0.626866 0.027706
v 7.723928 0.628131 0.030109
v 7.721329 0.629785 0.032080
v 7.718785 0.631872 0.033500
v 7.716361 0.634365 0.034285
v 7.714115 0.637213 0.034361
v 7.712191 0.640005 0.034105
v 7.709501 0.644417 0.033728
v 7.710725 0.642328 0.033899
v 7.707248 0.641235 0.035332
v 7.705267 0.638633 0.036283
v 7.703203 0.636247 0.036497
v 7.701756 0.634736 0.036283
v 7.699870 0.632909 0.035693
v 7.696919 0.630404 0.034088
v 7.693813 0.627926 0.032093
v 7.696738 0.636468 0.035179
v 7.695044 0.631520 0.033620
v 7.704994 0.654729 -0.014826
v 7.707680 0.656299 -0.010085
v 7.708307 0.656072 -0.010470
v 7.706910 0.656462 -0.009837
v 7.706001 0.656613 -0.009566
v 7.704990 0.656661 -0.009485
v 7.703982 0.656610 -0.009567
v 7.703080 0.656462 -0.009837
v 7.702321 0.656305 -0.010072
v 7.701696 0.656078 -0.010458
v 7.701081 0.655791 -0.010966
v 7.700592 0.655456 -0.011602
v 7.700173 0.655124 -0.012209
v 7.699934 0.654782 -0.012848
v 7.699773 0.654438 -0.013460
v 7.699769 0.654101 -0.014073
v 7.699761 0.653755 -0.014694
v 7.699918 0.653369 -0.015409
v 7.700175 0.652896 -0.016271
v 7.700677 0.652433 -0.017152
v 7.701353 0.652011 -0.017970
v 7.702327 0.651677 -0.018654
v 7.703563 0.651361 -0.019262
v 7.704990 0.651247 -0.019499
v 7.706418 0.651360 -0.019263
v 7.707662 0.651677 -0.018654
v 7.708636 0.652011 -0.017970
v 7.709311 0.652433 -0.017152
v 7.709814 0.652896 -0.016271
v 7.710072 0.653369 -0.015409
v 7.710228 0.653755 -0.014694
v 7.710221 0.654101 -0.014073
v 7.710216 0.654438 -0.013460
v 7.710056 0.654782 -0.012848
v 7.709816 0.655124 -0.012209
v 7.709397 0.655456 -0.011602
v 7.708908 0.655791 -0.010966
v 7.712498 0.652523 -0.015597
v 7.712730 0.653093 -0.014540
v 7.712719 0.653605 -0.013622
v 7.712711 0.654103 -0.012715
v 7.712475 0.654611 -0.011812
v 7.712121 0.655116 -0.010868
v 7.711502 0.655606 -0.009971
v 7.710779 0.656102 -0.009031
v 7.709870 0.656526 -0.008280
v 7.708947 0.656862 -0.007708
v 7.715774 0.651893 -0.014091
v 7.715463 0.651090 -0.015592
v 7.715778 0.652619 -0.012782
v 7.715764 0.653326 -0.011502
v 7.715456 0.654043 -0.010242
v 7.714936 0.654764 -0.008932
v 7.714071 0.655470 -0.007674
v 7.713050 0.656173 -0.006385
v 7.711793 0.656773 -0.005355
v 7.707825 0.657094 -0.007362
v 7.718538 0.650485 -0.013560
v 7.718545 0.652328 -0.010244
v 7.718587 0.651413 -0.011867
v 7.718189 0.653253 -0.008649
v 7.717469 0.654198 -0.007011
v 7.716380 0.655126 -0.005422
v 7.715077 0.656022 -0.003877
v 7.706480 0.657316 -0.006961
v 7.722400 0.649726 -0.007998
v 7.722500 0.648480 -0.010233
v 7.722368 0.647313 -0.012570
v 7.721789 0.651149 -0.005950
v 7.718822 0.654232 -0.002070
v 7.720409 0.652831 -0.003880
v 7.713534 0.656783 -0.002635
v 7.717075 0.655513 -0.000493
v 7.704987 0.657387 -0.006841
v 7.726928 0.645059 -0.005635
v 7.727157 0.643391 -0.008602
v 7.726214 0.647401 -0.001981
v 7.721465 0.652721 0.002527
v 7.723573 0.650599 0.000901
v 7.711860 0.657344 -0.001827
v 7.710489 0.657234 -0.004615
v 7.703497 0.657312 -0.006962
v 7.730412 0.638122 -0.007206
v 7.726904 0.641934 -0.011750
v 7.726049 0.648483 0.006156
v 7.729310 0.643608 0.002934
v 7.708924 0.657560 -0.004156
v 7.702164 0.657094 -0.007362
v 7.721830 0.646088 -0.015195
v 7.730201 0.640076 -0.003520
v 7.709894 0.657757 -0.001289
v 7.707551 0.658139 -0.000687
v 7.707054 0.657868 -0.003623
v 7.701042 0.656862 -0.007708
v 7.718174 0.649466 -0.015493
v 7.733093 0.635228 -0.001405
v 7.732934 0.633325 -0.006013
v 7.713067 0.657304 0.001476
v 7.700119 0.656526 -0.008280
v 7.717445 0.648262 -0.017818
v 7.714915 0.650115 -0.017406
v 7.730033 0.636420 -0.011025
v 7.732255 0.631638 -0.010427
v 7.704991 0.657978 -0.003434
v 7.715142 0.656553 0.000715
v 7.712117 0.651822 -0.016871
v 7.726051 0.640545 -0.015208
v 7.702929 0.657863 -0.003622
v 7.704995 0.658298 -0.000408
v 7.716783 0.655962 0.004624
v 7.719214 0.654521 0.003748
v 7.728720 0.634821 -0.015004
v 7.724460 0.639099 -0.019127
v 7.720802 0.644657 -0.018292
v 7.707955 0.658274 0.002509
v 7.721045 0.653186 0.008781
v 7.723629 0.651029 0.007728
v 7.711375 0.651138 -0.018173
v 7.730692 0.630074 -0.014782
v 7.710706 0.657842 0.001981
v 7.730340 0.643024 0.011018
v 7.727872 0.646368 0.012558
v 7.713888 0.649160 -0.019257
v 7.710377 0.650515 -0.019382
v 7.714200 0.657021 0.005194
v 7.730914 0.641141 0.018806
v 7.732800 0.638512 0.009189
v 7.732791 0.637414 0.003346
v 7.708921 0.650020 -0.020395
v 7.712456 0.648309 -0.020955
v 7.733062 0.637224 0.017682
v 7.735025 0.632686 0.011743
v 7.735026 0.632615 0.005994
v 7.735086 0.630267 -0.000112
v 7.716171 0.647081 -0.020188
v 7.707096 0.649553 -0.021293
v 7.718273 0.654887 0.009465
v 7.736109 0.628081 0.005836
v 7.734549 0.628497 -0.005413
v 7.733583 0.626888 -0.010210
v 7.714331 0.646076 -0.022303
v 7.719163 0.643296 -0.021464
v 7.722490 0.651365 0.014452
v 7.725371 0.649057 0.013698
v 7.735292 0.624799 -0.005098
v 7.710458 0.647637 -0.022362
v 7.716556 0.642152 -0.024045
v 7.722046 0.637800 -0.023113
v 7.719364 0.653276 0.014923
v 7.723348 0.649147 0.021194
v 7.735983 0.626335 0.000175
v 7.724111 0.632262 -0.024181
v 7.718558 0.636696 -0.026167
v 7.715364 0.656150 0.009942
v 7.728587 0.644157 0.019876
v 7.736762 0.622371 0.000479
v 7.735916 0.621071 -0.004773
v 7.707902 0.647016 -0.023577
v 7.711404 0.657750 0.005567
v 7.726213 0.646804 0.020761
v 7.729328 0.638676 0.026254
v 7.734151 0.623305 -0.009954
v 7.734604 0.619700 -0.009657
v 7.704987 0.649386 -0.021642
v 7.704991 0.646780 -0.024060
v 7.708293 0.658221 0.005864
v 7.732225 0.621916 -0.014533
v 7.731823 0.625409 -0.014742
v 7.734755 0.616194 -0.009259
v 7.732516 0.618406 -0.014274
v 7.704995 0.658452 0.002759
v 7.704991 0.658396 0.005996
v 7.729980 0.620752 -0.019331
v 7.730157 0.617310 -0.019050
v 7.729697 0.624187 -0.019552
v 7.728659 0.628740 -0.019616
v 7.732566 0.615035 -0.013901
v 7.730112 0.614020 -0.018642
v 7.702879 0.649553 -0.021292
v 7.726758 0.619753 -0.023979
v 7.726586 0.623128 -0.024246
v 7.726845 0.616375 -0.023624
v 7.725688 0.627599 -0.024380
v 7.726851 0.633444 -0.019584
v 7.732518 0.611702 -0.013475
v 7.701052 0.650021 -0.020394
v 7.702087 0.647016 -0.023577
v 7.736135 0.617480 -0.004358
v 7.736149 0.613842 -0.003947
v 7.734760 0.612679 -0.008798
v 7.699613 0.650515 -0.019382
v 7.701396 0.644560 -0.025494
v 7.699531 0.647637 -0.022362
v 7.719894 0.631171 -0.027246
v 7.736952 0.618838 0.000713
v 7.734606 0.609276 -0.008302
v 7.698614 0.651138 -0.018173
v 7.715394 0.630470 -0.029902
v 7.714535 0.635959 -0.028634
v 7.713302 0.641298 -0.026283
v 7.720974 0.626597 -0.027571
v 7.737074 0.623509 0.005682
v 7.697872 0.651823 -0.016871
v 7.709912 0.635361 -0.030163
v 7.709298 0.640589 -0.027781
v 7.711806 0.645265 -0.024065
v 7.721528 0.622248 -0.027408
v 7.715962 0.625914 -0.030356
v 7.735913 0.628544 0.011114
v 7.697491 0.652523 -0.015597
v 7.708588 0.644562 -0.025494
v 7.716168 0.621605 -0.030183
v 7.721615 0.619009 -0.027074
v 7.710299 0.629910 -0.031451
v 7.734482 0.632935 0.016584
v 7.697259 0.653093 -0.014540
v 7.716204 0.618436 -0.029791
v 7.721640 0.615773 -0.026633
v 7.735270 0.628958 0.015752
v 7.733120 0.632684 0.020719
v 7.730565 0.635689 0.025082
v 7.697270 0.653605 -0.013622
v 7.736804 0.624403 0.010483
v 7.729446 0.633827 0.028249
v 7.731816 0.632096 0.023710
v 7.728167 0.636654 0.029886
v 7.697278 0.654103 -0.012715
v 7.704994 0.644268 -0.026087
v 7.736959 0.620678 0.009979
v 7.736059 0.624980 0.014920
v 7.737226 0.619960 0.005601
v 7.697514 0.654611 -0.011812
v 7.704994 0.640319 -0.028536
v 7.700691 0.640589 -0.027781
v 7.698180 0.645262 -0.024066
v 7.733918 0.628916 0.019857
v 7.734311 0.625144 0.018781
v 7.737040 0.616466 0.005576
v 7.697868 0.655116 -0.010868
v 7.695655 0.646076 -0.022301
v 7.697520 0.648312 -0.020950
v 7.732623 0.628945 0.022424
v 7.733027 0.625372 0.020452
v 7.734349 0.620944 0.017544
v 7.698487 0.655606 -0.009971
v 7.696102 0.649160 -0.019257
v 7.730881 0.630975 0.026139
v 7.736036 0.620691 0.013873
v 7.699211 0.656102 -0.009031
v 7.695918 0.655470 -0.007674
v 7.696939 0.656173 -0.006385
v 7.729668 0.630043 0.027624
v 7.728194 0.632583 0.029869
v 7.735877 0.617047 0.012972
v 7.695053 0.654764 -0.008932
v 7.693609 0.655126 -0.005422
v 7.695074 0.650115 -0.017406
v 7.734293 0.617117 0.016409
v 7.733438 0.621033 0.019031
v 7.694534 0.654043 -0.010242
v 7.692520 0.654198 -0.007011
v 7.698196 0.656773 -0.005355
v 7.699501 0.657234 -0.004615
v 7.694526 0.651090 -0.015592
v 7.694225 0.653326 -0.011502
v 7.691801 0.653253 -0.008649
v 7.691444 0.652328 -0.010244
v 7.694912 0.656022 -0.003877
v 7.698129 0.657344 -0.001827
v 7.701066 0.657560 -0.004156
v 7.694215 0.651893 -0.014091
v 7.694211 0.652619 -0.012782
v 7.691402 0.651413 -0.011867
v 7.688200 0.651149 -0.005950
v 7.687589 0.649726 -0.007998
v 7.691168 0.654232 -0.002070
v 7.691451 0.650485 -0.013560
v 7.687489 0.648480 -0.010233
v 7.687621 0.647313 -0.012570
v 7.689580 0.652831 -0.003880
v 7.683774 0.647401 -0.001981
v 7.682833 0.643391 -0.008602
v 7.683061 0.645059 -0.005635
v 7.702437 0.658134 -0.000681
v 7.691815 0.649466 -0.015493
v 7.692544 0.648262 -0.017818
v 7.686416 0.650599 0.000901
v 7.683085 0.641934 -0.011750
v 7.679578 0.638122 -0.007206
v 7.679788 0.640076 -0.003520
v 7.702034 0.658272 0.002512
v 7.688525 0.652721 0.002527
v 7.683939 0.648483 0.006155
v 7.679955 0.636420 -0.011025
v 7.677055 0.633325 -0.006013
v 7.688159 0.646088 -0.015195
v 7.680680 0.643608 0.002934
v 7.676896 0.635228 -0.001405
v 7.693818 0.647081 -0.020188
v 7.681269 0.634821 -0.015004
v 7.677734 0.631638 -0.010427
v 7.675441 0.628497 -0.005413
v 7.689188 0.644657 -0.018292
v 7.693434 0.642152 -0.024045
v 7.690826 0.643296 -0.021464
v 7.683938 0.640545 -0.015208
v 7.679297 0.630074 -0.014782
v 7.676406 0.626888 -0.010210
v 7.685529 0.639099 -0.019127
v 7.696688 0.641298 -0.026283
v 7.691431 0.636696 -0.026167
v 7.687943 0.637800 -0.023113
v 7.678168 0.625421 -0.014721
v 7.675838 0.623305 -0.009954
v 7.685878 0.632262 -0.024181
v 7.683138 0.633444 -0.019584
v 7.695455 0.635959 -0.028634
v 7.700077 0.635361 -0.030163
v 7.674697 0.624799 -0.005098
v 7.677764 0.621918 -0.014521
v 7.675385 0.619700 -0.009657
v 7.674903 0.630267 -0.000112
v 7.674006 0.626335 0.000175
v 7.681330 0.628740 -0.019616
v 7.694595 0.630470 -0.029902
v 7.704994 0.635195 -0.030986
v 7.680292 0.624187 -0.019552
v 7.674963 0.632615 0.005994
v 7.677198 0.637414 0.003346
v 7.684301 0.627599 -0.024380
v 7.690094 0.631171 -0.027246
v 7.704998 0.629744 -0.032548
v 7.680009 0.620752 -0.019331
v 7.677189 0.638512 0.009189
v 7.679650 0.643024 0.011018
v 7.682117 0.646368 0.012558
v 7.689015 0.626597 -0.027571
v 7.694026 0.625914 -0.030356
v 7.699691 0.629910 -0.031451
v 7.679832 0.617305 -0.019050
v 7.677473 0.618400 -0.014270
v 7.681382 0.644244 0.019594
v 7.684618 0.649057 0.013698
v 7.686359 0.651029 0.007729
v 7.699462 0.625426 -0.031952
v 7.693821 0.621605 -0.030183
v 7.705001 0.625247 -0.033080
v 7.675234 0.616176 -0.009252
v 7.674070 0.621074 -0.004755
v 7.687499 0.651365 0.014452
v 7.688945 0.653186 0.008781
v 7.690775 0.654521 0.003748
v 7.710527 0.625426 -0.031952
v 7.705001 0.621028 -0.032846
v 7.673227 0.622371 0.000479
v 7.686634 0.649291 0.020761
v 7.690625 0.653276 0.014923
v 7.692914 0.655513 -0.000493
v 7.710578 0.621210 -0.031746
v 7.673881 0.628081 0.005836
v 7.683751 0.646949 0.020299
v 7.694847 0.656553 0.000715
v 7.696455 0.656783 -0.002635
v 7.710598 0.618110 -0.031347
v 7.674076 0.628544 0.011114
v 7.674966 0.632684 0.011744
v 7.684479 0.644396 0.027570
v 7.693207 0.655962 0.004624
v 7.676927 0.637224 0.017682
v 7.675507 0.632935 0.016584
v 7.689852 0.651279 0.021038
v 7.687031 0.646766 0.027745
v 7.689999 0.648860 0.027605
v 7.691716 0.654886 0.009465
v 7.700096 0.657757 -0.001289
v 7.696923 0.657304 0.001476
v 7.679070 0.641161 0.018739
v 7.693263 0.652880 0.021169
v 7.693860 0.654763 0.015226
v 7.693336 0.650683 0.027142
v 7.691165 0.647296 0.031259
v 7.694626 0.656150 0.009942
v 7.680676 0.638708 0.026257
v 7.682367 0.641766 0.027099
v 7.697308 0.655854 0.015411
v 7.697784 0.657023 0.010250
v 7.695789 0.657021 0.005194
v 7.679424 0.635689 0.025082
v 7.676868 0.632684 0.020719
v 7.683632 0.639610 0.031027
v 7.685828 0.642363 0.031603
v 7.698585 0.657750 0.005567
v 7.699284 0.657842 0.001981
v 7.701696 0.658221 0.005864
v 7.676071 0.628916 0.019857
v 7.678166 0.632170 0.023664
v 7.674719 0.628958 0.015752
v 7.687364 0.640543 0.033797
v 7.688350 0.644939 0.031676
v 7.701302 0.657552 0.010428
v 7.704995 0.657731 0.010484
v 7.708688 0.657552 0.010428
v 7.673185 0.624403 0.010483
v 7.692416 0.645850 0.033434
v 7.689837 0.643216 0.033821
v 7.694230 0.649382 0.030373
v 7.701072 0.656570 0.015530
v 7.712205 0.657023 0.010250
v 7.672915 0.623509 0.005682
v 7.692717 0.640281 0.035352
v 7.696988 0.652135 0.026644
v 7.697560 0.651045 0.029414
v 7.696917 0.654109 0.021234
v 7.673037 0.618838 0.000713
v 7.700872 0.654981 0.021318
v 7.700912 0.653117 0.026398
v 7.698171 0.649908 0.030973
v 7.701194 0.652147 0.028767
v 7.716129 0.654763 0.015226
v 7.673854 0.617480 -0.004358
v 7.704995 0.653491 0.026339
v 7.704998 0.652555 0.028521
v 7.695184 0.648105 0.032262
v 7.704995 0.655329 0.021366
v 7.704995 0.656834 0.015574
v 7.712681 0.655854 0.015411
v 7.673845 0.613842 -0.003900
v 7.697192 0.645483 0.034443
v 7.695024 0.643063 0.035169
v 7.708918 0.656570 0.015530
v 7.673119 0.615292 0.001011
v 7.672949 0.616466 0.005576
v 7.672764 0.619960 0.005601
v 7.699499 0.641913 0.035771
v 7.698030 0.640238 0.035727
v 7.690341 0.637410 0.035011
v 7.695874 0.637213 0.035183
v 7.673430 0.611557 0.001343
v 7.673030 0.620678 0.009979
v 7.701236 0.639314 0.036295
v 7.699852 0.637620 0.036169
v 7.696738 0.636468 0.035179
v 7.693629 0.634365 0.034491
v 7.687959 0.634683 0.034168
v 7.685108 0.637783 0.033132
v 7.673931 0.624980 0.014920
v 7.701756 0.634736 0.036283
v 7.697862 0.635150 0.035538
v 7.695044 0.631520 0.033620
v 7.691204 0.631872 0.033500
v 7.685657 0.632211 0.032528
v 7.681834 0.636675 0.029897
v 7.683206 0.635076 0.031821
v 7.709117 0.654981 0.021318
v 7.675678 0.625144 0.018781
v 7.699870 0.632909 0.035693
v 7.703203 0.636247 0.036497
v 7.688660 0.629785 0.032080
v 7.680523 0.634000 0.028265
v 7.709079 0.653117 0.026399
v 7.677285 0.628939 0.022317
v 7.696919 0.630404 0.034088
v 7.703136 0.641675 0.035881
v 7.705267 0.638633 0.036283
v 7.683777 0.630026 0.030576
v 7.686060 0.628131 0.030110
v 7.679196 0.630982 0.026295
v 7.693813 0.627926 0.032093
v 7.705109 0.644220 0.034753
v 7.707248 0.641235 0.035332
v 7.701284 0.644195 0.035131
v 7.683457 0.626866 0.027707
v 7.680329 0.630034 0.027630
v 7.681803 0.632581 0.029877
v 7.709501 0.644417 0.033728
v 7.699476 0.647550 0.033358
v 7.703370 0.646657 0.033852
v 7.682170 0.628030 0.028294
v 7.680888 0.626103 0.024965
v 7.679306 0.627822 0.024883
v 7.710725 0.642328 0.033899
v 7.710581 0.647488 0.032800
v 7.706828 0.646668 0.033383
v 7.702141 0.649312 0.032092
v 7.705088 0.647747 0.033024
v 7.701496 0.651103 0.030016
v 7.678289 0.625565 0.022192
v 7.712191 0.640005 0.034105
v 7.714849 0.643010 0.034500
v 7.712771 0.645407 0.033745
v 7.707931 0.649274 0.031790
v 7.705029 0.650108 0.031337
v 7.705000 0.651544 0.029615
v 7.676957 0.625376 0.020464
v 7.714115 0.637213 0.034361
v 7.717157 0.640271 0.034958
v 7.717530 0.645825 0.033372
v 7.714777 0.648073 0.032200
v 7.711813 0.649879 0.030927
v 7.708501 0.651085 0.029993
v 7.708801 0.652137 0.028759
v 7.675645 0.621960 0.017844
v 7.676674 0.622214 0.019408
v 7.719583 0.637418 0.034920
v 7.716361 0.634365 0.034285
v 7.715746 0.649363 0.030353
v 7.712428 0.651029 0.029397
v 7.713005 0.652132 0.026655
v 7.677763 0.622443 0.020826
v 7.678852 0.622672 0.022243
v 7.718785 0.631872 0.033500
v 7.718801 0.647278 0.031245
v 7.716658 0.650671 0.027180
v 7.713075 0.654095 0.021272
v 7.716737 0.652824 0.021320
v 7.677588 0.618044 0.019721
v 7.678656 0.618189 0.021320
v 7.679594 0.618292 0.022537
v 7.720127 0.643209 0.033781
v 7.721618 0.644928 0.031680
v 7.719993 0.648836 0.027676
v 7.678660 0.613923 0.020346
v 7.677615 0.613856 0.018608
v 7.676519 0.617899 0.018122
v 7.680344 0.614001 0.022865
v 7.722611 0.640542 0.033789
v 7.679277 0.606606 0.018371
v 7.682444 0.603452 0.024063
v 7.678372 0.607507 0.016745
v 7.676569 0.613788 0.016870
v 7.675680 0.617750 0.016597
v 7.722006 0.634688 0.034173
v 7.720149 0.651173 0.021336
v 7.677467 0.608408 0.015119
v 7.675794 0.613716 0.015376
v 7.676653 0.609220 0.013655
v 7.674095 0.617386 0.013092
v 7.724332 0.632207 0.032525
v 7.721329 0.629785 0.032080
v 7.724876 0.637784 0.033134
v 7.722956 0.646733 0.027848
v 7.725504 0.644362 0.027679
v 7.675205 0.610662 0.011053
v 7.673945 0.621342 0.014048
v 7.723928 0.628131 0.030109
v 7.726207 0.630003 0.030561
v 7.724149 0.642357 0.031622
v 7.727616 0.641743 0.027165
v 7.726532 0.626866 0.027706
v 7.726353 0.639606 0.031041
v 7.673234 0.616962 0.009475
v 7.674403 0.613530 0.012165
v 7.727805 0.628015 0.028289
v 7.729101 0.626101 0.024965
v 7.726786 0.635075 0.031818
v 7.673357 0.612742 0.005607
v 7.673642 0.613282 0.009056
v 7.731671 0.625498 0.022252
v 7.730703 0.627818 0.024893
v 7.673626 0.608887 0.005618
v 7.674032 0.610003 0.008853
v 7.674402 0.605449 0.008561
v 7.732165 0.621115 0.020684
v 7.730892 0.621197 0.022336
v 7.673410 0.604928 0.005546
v 7.673302 0.603539 0.002128
v 7.673609 0.607658 0.001707
v 7.673598 0.600237 0.006068
v 7.731140 0.616951 0.021329
v 7.732296 0.617026 0.019612
v 7.730145 0.616862 0.022647
v 7.674151 0.606519 -0.002844
v 7.674045 0.610214 -0.003411
v 7.672263 0.596169 0.002032
v 7.672795 0.595025 0.003576
v 7.672765 0.599567 0.002336
v 7.733454 0.617101 0.017895
v 7.731206 0.612841 0.020270
v 7.732277 0.612940 0.018509
v 7.729385 0.612660 0.023007
v 7.675231 0.612639 -0.008790
v 7.675387 0.609204 -0.008289
v 7.672015 0.589675 0.001221
v 7.673389 0.598689 -0.001429
v 7.735566 0.613183 0.012012
v 7.734170 0.613103 0.015188
v 7.730712 0.606606 0.018371
v 7.727545 0.603452 0.024063
v 7.677475 0.611642 -0.013465
v 7.677425 0.615008 -0.013896
v 7.673865 0.602617 -0.002137
v 7.736347 0.613282 0.009056
v 7.734784 0.610662 0.011053
v 7.736755 0.616962 0.009475
v 7.731617 0.607507 0.016745
v 7.679879 0.614002 -0.018639
v 7.675572 0.602260 -0.006866
v 7.675551 0.605782 -0.007677
v 7.732522 0.608408 0.015119
v 7.733349 0.613039 0.016747
v 7.683145 0.616375 -0.023624
v 7.683231 0.619753 -0.023979
v 7.677842 0.605187 -0.012357
v 7.677629 0.608407 -0.012989
v 7.733336 0.609220 0.013655
v 7.683248 0.613154 -0.023130
v 7.688426 0.612674 -0.026026
v 7.688349 0.615773 -0.026633
v 7.683403 0.623128 -0.024246
v 7.679989 0.610726 -0.018168
v 7.680164 0.607583 -0.017647
v 7.683388 0.609945 -0.022571
v 7.693795 0.615276 -0.029284
v 7.693785 0.618436 -0.029791
v 7.688375 0.619009 -0.027074
v 7.680269 0.604307 -0.016951
v 7.683562 0.606863 -0.021961
v 7.683564 0.603525 -0.021201
v 7.735957 0.610003 0.008853
v 7.735588 0.605449 0.008561
v 7.688462 0.622248 -0.027408
v 7.680175 0.600616 -0.015957
v 7.678617 0.601948 -0.011199
v 7.688594 0.606610 -0.024617
v 7.736633 0.612742 0.005607
v 7.736579 0.604928 0.005546
v 7.736391 0.600237 0.006068
v 7.679214 0.598861 -0.010038
v 7.675519 0.598806 -0.005976
v 7.688508 0.609585 -0.025348
v 7.736559 0.611557 0.001343
v 7.736871 0.615292 0.001011
v 7.699411 0.621210 -0.031746
v 7.699392 0.618110 -0.031347
v 7.675475 0.595567 -0.005145
v 7.672945 0.594827 -0.000722
v 7.693835 0.609290 -0.027847
v 7.699402 0.615021 -0.030828
v 7.704999 0.617919 -0.032454
v 7.693827 0.606428 -0.027044
v 7.693833 0.603448 -0.026236
v 7.688593 0.603441 -0.023797
v 7.735944 0.610214 -0.003411
v 7.710587 0.615021 -0.030828
v 7.704997 0.614822 -0.031938
v 7.675957 0.592633 -0.003850
v 7.688412 0.599759 -0.022850
v 7.683191 0.599506 -0.020182
v 7.735838 0.606519 -0.002844
v 7.716195 0.615276 -0.029284
v 7.710584 0.612090 -0.030157
v 7.699405 0.612090 -0.030157
v 7.680202 0.595976 -0.008807
v 7.682628 0.595162 -0.019034
v 7.679976 0.596843 -0.014827
v 7.721564 0.612674 -0.026026
v 7.716166 0.612275 -0.028600
v 7.693822 0.612275 -0.028600
v 7.679747 0.593334 -0.013693
v 7.680235 0.589980 -0.012436
v 7.716154 0.609290 -0.027847
v 7.682066 0.590943 -0.017908
v 7.680340 0.584133 -0.016140
v 7.726741 0.613154 -0.023130
v 7.710595 0.609184 -0.029437
v 7.704995 0.609024 -0.030619
v 7.704996 0.611909 -0.031296
v 7.687889 0.591847 -0.020831
v 7.687883 0.588052 -0.019160
v 7.730000 0.610726 -0.018168
v 7.726602 0.609945 -0.022571
v 7.721481 0.609585 -0.025348
v 7.710625 0.606416 -0.028691
v 7.688139 0.595812 -0.021838
v 7.695199 0.591583 -0.022234
v 7.694443 0.596698 -0.023773
v 7.729825 0.607583 -0.017647
v 7.732360 0.608407 -0.012989
v 7.721395 0.606610 -0.024617
v 7.716162 0.606428 -0.027044
v 7.699395 0.609184 -0.029437
v 7.694142 0.600187 -0.024901
v 7.699591 0.590906 -0.027084
v 7.700106 0.586669 -0.026198
v 7.732147 0.605187 -0.012357
v 7.734438 0.605782 -0.007677
v 7.716156 0.603448 -0.026236
v 7.699364 0.606416 -0.028691
v 7.699418 0.599484 -0.027663
v 7.704995 0.581741 -0.030164
v 7.734417 0.602260 -0.006866
v 7.704995 0.606308 -0.029938
v 7.710634 0.603346 -0.028057
v 7.704995 0.603169 -0.029439
v 7.699516 0.595201 -0.027382
v 7.704995 0.589170 -0.029321
v 7.710398 0.590906 -0.027084
v 7.709884 0.586669 -0.026198
v 7.710572 0.599484 -0.027663
v 7.699355 0.603346 -0.028057
v 7.704995 0.594001 -0.029304
v 7.710473 0.595201 -0.027382
v 7.715546 0.596698 -0.023773
v 7.714789 0.591583 -0.022234
v 7.721396 0.603441 -0.023797
v 7.715847 0.600187 -0.024901
v 7.721578 0.599759 -0.022850
v 7.704995 0.598897 -0.029286
v 7.722101 0.591847 -0.020831
v 7.722106 0.588052 -0.019160
v 7.726427 0.606863 -0.021961
v 7.726425 0.603525 -0.021201
v 7.721850 0.595812 -0.021838
v 7.726799 0.599506 -0.020182
v 7.727362 0.595162 -0.019034
v 7.729649 0.584133 -0.016140
v 7.729720 0.604307 -0.016951
v 7.729814 0.600616 -0.015957
v 7.727923 0.590943 -0.017908
v 7.730243 0.593334 -0.013693
v 7.730013 0.596843 -0.014827
v 7.729753 0.589980 -0.012436
v 7.731373 0.601948 -0.011199
v 7.730775 0.598861 -0.010038
v 7.729787 0.595976 -0.008807
v 7.734470 0.598806 -0.005976
v 7.734514 0.595567 -0.005145
v 7.734032 0.592633 -0.003850
v 7.736124 0.602617 -0.002137
v 7.736600 0.598689 -0.001429
v 7.737044 0.594827 -0.000722
v 7.737975 0.589675 0.001221
v 7.736380 0.607658 0.001707
v 7.736687 0.603539 0.002128
v 7.737224 0.599567 0.002336
v 7.737727 0.596169 0.002032
v 7.737194 0.595025 0.003576
v 7.736363 0.608887 0.005618
v 7.729753 0.589980 -0.012436
vn 0.5621 -0.4138 0.7161
vn 0.3974 -0.6701 0.6270
vn 0.5593 -0.4262 0.7110
vn 0.5694 -0.6072 0.5542
vn 0.2133 -0.9028 -0.3734
vn 0.7550 -0.5961 0.2731
vn -0.0726 -0.9679 0.2408
vn 0.7913 -0.6045 -0.0916
vn 0.6559 -0.4435 -0.6108
vn 0.2445 -0.7736 0.5845
vn 0.8915 -0.2309 0.3897
vn 0.5061 -0.4611 0.7288
vn 0.5920 -0.1475 0.7923
vn 0.8799 -0.4619 -0.1117
vn -0.1875 -0.7167 0.6717
vn -0.3974 -0.6701 0.6270
vn -0.5061 -0.4611 0.7288
vn -0.2731 -0.4389 0.8560
vn -0.2445 -0.7736 0.5845
vn 0.2576 -0.9040 0.3412
vn -0.5136 0.4061 -0.7559
vn -0.2576 -0.9040 0.3412
vn 0.1160 0.1250 0.9854
vn 0.0051 -0.9993 0.0357
vn -0.2228 0.4677 -0.8553
vn -0.0000 -0.8837 0.4680
vn 0.1875 -0.7167 0.6717
vn 0.1787 0.4743 -0.8620
vn 0.1546 0.5760 -0.8027
vn 0.2703 0.5936 -0.7580
vn 0.3160 0.4902 -0.8123
vn 0.1520 0.0990 0.9834
vn 0.2228 0.4678 -0.8553
vn 0.8688 -0.1343 0.4766
vn 0.9436 -0.0906 0.3184
vn 0.9600 0.0298 0.2785
vn 0.8786 -0.0721 0.4721
vn 0.1705 0.0815 0.9820
vn 0.5136 0.4061 -0.7559
vn 0.0726 -0.9679 0.2408
vn -0.7913 -0.6045 -0.0916
vn 0.4999 -0.3368 0.7979
vn -0.2133 -0.9028 -0.3734
vn 0.5675 -0.7379 -0.3653
vn -0.5694 -0.6072 0.5542
vn 0.5934 -0.7406 -0.3152
vn -0.5621 -0.4138 0.7161
vn 0.6237 -0.7373 -0.2598
vn -0.5593 -0.4262 0.7110
vn 0.6540 -0.7269 -0.2098
vn -0.7550 -0.5961 0.2731
vn 0.6967 -0.7029 -0.1432
vn -0.6559 -0.4435 -0.6108
vn 0.7497 -0.6588 -0.0629
vn -0.8799 -0.4619 -0.1113
vn -0.5964 -0.1466 0.7892
vn 0.7949 -0.6068 0.0051
vn -0.1132 0.1297 0.9851
vn -0.3225 -0.7995 -0.5068
vn -0.1503 0.1076 0.9828
vn -0.1758 0.0865 0.9806
vn -0.5165 -0.3188 0.7947
vn -0.5839 -0.7196 -0.3758
vn -0.6066 -0.7212 -0.3344
vn -0.6354 -0.7177 -0.2849
vn -0.6634 -0.7081 -0.2416
vn -0.7014 -0.6878 -0.1869
vn -0.7470 -0.6531 -0.1244
vn -0.7948 -0.6038 -0.0603
vn -0.8317 -0.5549 -0.0188
vn -0.1186 -0.9542 -0.2748
vn 0.1428 0.0025 -0.9897
vn 0.6854 -0.6470 -0.3341
vn 0.6961 -0.6380 -0.3293
vn 0.7038 -0.6317 -0.3250
vn 0.7077 -0.6287 -0.3223
vn 0.7085 -0.6281 -0.3217
vn 0.7083 -0.6282 -0.3219
vn -0.1688 -0.5364 -0.8269
vn -0.9175 0.3579 -0.1737
vn -0.9138 0.3740 -0.1583
vn -0.0000 0.8791 -0.4767
vn 0.1156 0.9384 -0.3256
vn 0.1402 0.9300 -0.3399
vn 0.0808 0.9458 -0.3145
vn 0.0433 0.9518 -0.3035
vn -0.0012 0.9537 -0.3006
vn -0.0436 0.9519 -0.3032
vn -0.0796 0.9460 -0.3143
vn -0.1156 0.9385 -0.3253
vn -0.1401 0.9300 -0.3398
vn -0.1564 0.9232 -0.3511
vn -0.1693 0.9145 -0.3675
vn -0.1867 0.9018 -0.3898
vn -0.2004 0.8842 -0.4219
vn -0.2117 0.8659 -0.4531
vn -0.2125 0.8560 -0.4713
vn -0.2143 0.8468 -0.4868
vn -0.2090 0.8351 -0.5088
vn -0.2026 0.8235 -0.5299
vn -0.1875 0.8122 -0.5524
vn -0.1624 0.7995 -0.5783
vn -0.1227 0.7885 -0.6027
vn -0.0728 0.7794 -0.6223
vn -0.0000 0.7763 -0.6303
vn 0.0726 0.7793 -0.6224
vn 0.1226 0.7883 -0.6029
vn 0.1623 0.7994 -0.5785
vn 0.1874 0.8122 -0.5524
vn 0.2026 0.8235 -0.5299
vn 0.2090 0.8351 -0.5088
vn 0.2142 0.8468 -0.4868
vn 0.2125 0.8560 -0.4713
vn 0.2117 0.8659 -0.4531
vn 0.2004 0.8842 -0.4220
vn 0.1867 0.9018 -0.3898
vn 0.1692 0.9145 -0.3675
vn 0.1566 0.9231 -0.3513
vn 0.3656 -0.2471 -0.8974
vn 0.2964 -0.1763 -0.9387
vn 0.2518 -0.2239 -0.9415
vn 0.3513 -0.2363 -0.9059
vn -0.3126 0.7991 -0.5136
vn -0.3214 0.8161 -0.4803
vn 0.9364 -0.0996 -0.3366
vn 0.8930 -0.1210 -0.4335
vn 0.8962 -0.0906 -0.4342
vn 0.9385 -0.0703 -0.3381
vn -0.1547 0.5760 -0.8027
vn -0.2703 0.5935 -0.7581
vn -0.2196 0.6719 -0.7073
vn -0.1281 0.6576 -0.7424
vn 0.5782 0.7062 0.4086
vn 0.5118 0.5953 0.6195
vn 0.6178 0.4768 0.6252
vn 0.6944 0.5954 0.4042
vn 0.1388 0.9787 -0.1515
vn 0.0813 0.9869 -0.1393
vn 0.0956 0.9922 -0.0801
vn 0.1616 0.9826 -0.0912
vn -0.8175 -0.1326 0.5604
vn -0.7994 -0.1345 0.5855
vn -0.8610 -0.1304 0.4916
vn -0.8398 -0.1502 0.5217
vn -0.3671 0.6142 -0.6986
vn -0.2952 0.6912 -0.6596
vn -0.3990 0.8479 -0.3492
vn -0.4212 0.8119 -0.4042
vn -0.5621 0.7460 -0.3571
vn -0.5364 0.7920 -0.2918
vn -0.1607 0.9828 -0.0911
vn -0.1832 0.9825 -0.0350
vn -0.1028 0.9944 -0.0239
vn -0.0956 0.9922 -0.0801
vn -0.3186 0.8305 -0.4569
vn -0.4284 0.7743 -0.4658
vn -0.4279 0.7911 -0.4371
vn 0.0624 0.9737 -0.2190
vn 0.1105 0.9664 -0.2319
vn -0.3168 0.8452 -0.4304
vn -0.2992 0.8722 -0.3869
vn -0.3680 0.8816 -0.2956
vn -0.2782 0.8972 -0.3430
vn -0.6767 -0.0967 -0.7299
vn -0.6637 -0.1458 -0.7337
vn -0.8518 -0.0897 -0.5161
vn -0.8593 -0.0370 -0.5102
vn -0.2515 0.9161 -0.3123
vn -0.3335 0.9067 -0.2581
vn -0.2985 0.9263 -0.2301
vn -0.2290 0.9296 -0.2888
vn 0.2744 0.9605 -0.0456
vn 0.3842 0.9209 -0.0660
vn 0.3136 0.9399 -0.1352
vn 0.2302 0.9671 -0.1083
vn -0.1982 0.9425 -0.2690
vn -0.2522 0.9465 -0.2012
vn -0.1940 0.9660 -0.1710
vn -0.1573 0.9563 -0.2463
vn 0.4279 0.7911 -0.4371
vn 0.5659 0.7226 -0.3970
vn 0.5621 0.7047 -0.4331
vn 0.4284 0.7743 -0.4658
vn -0.4176 0.7533 -0.5081
vn -0.5443 0.6832 -0.4869
vn -0.5621 0.7047 -0.4331
vn -0.5659 0.7226 -0.3970
vn 0.8517 -0.0897 -0.5162
vn 0.6636 -0.1458 -0.7337
vn 0.6766 -0.0967 -0.7299
vn 0.8592 -0.0370 -0.5104
vn -0.0001 0.6520 -0.7582
vn -0.0001 0.7146 -0.6995
vn 0.1031 0.7190 -0.6873
vn 0.1280 0.6578 -0.7422
vn -0.4916 0.8403 -0.2286
vn -0.4410 0.8772 -0.1901
vn -0.3873 0.9072 -0.1643
vn -0.3136 0.9399 -0.1352
vn -0.3772 -0.3352 0.8633
vn -0.2243 -0.4546 0.8620
vn -0.1244 -0.3393 0.9324
vn -0.2629 -0.2049 0.9428
vn -0.7047 0.6486 -0.2877
vn -0.6783 0.7033 -0.2128
vn -0.7041 0.6268 -0.3337
vn -0.6221 0.7694 -0.1452
vn -0.1741 0.7311 -0.6597
vn -0.1033 0.7189 -0.6874
vn 0.3178 0.9474 0.0387
vn 0.3487 0.9270 0.1381
vn 0.4735 0.8746 0.1048
vn 0.4423 0.8968 0.0099
vn -0.4846 0.8698 -0.0931
vn -0.3842 0.9209 -0.0660
vn -0.2570 0.8934 0.3686
vn -0.1443 0.9193 0.3662
vn -0.1430 0.9430 0.3005
vn -0.2581 0.9194 0.2968
vn -0.8073 0.5236 -0.2723
vn -0.8083 0.5468 -0.2181
vn -0.6934 0.6089 -0.3853
vn -0.7946 0.4942 -0.3526
vn -0.7831 0.6049 -0.1441
vn -0.7094 0.6998 -0.0838
vn 0.7949 0.4667 0.3878
vn 0.8662 0.3302 0.3750
vn 0.8660 0.4621 0.1910
vn 0.7998 0.5662 0.1994
vn -0.9036 0.1188 0.4115
vn -0.8664 -0.0453 0.4973
vn -0.8568 0.0752 0.5101
vn -0.8970 0.2265 0.3797
vn -0.6387 0.7672 -0.0588
vn -0.5603 0.8204 -0.1144
vn -0.2302 0.9671 -0.1083
vn -0.7585 0.6505 -0.0383
vn -0.6792 0.7339 0.0060
vn -0.0013 0.9766 -0.2150
vn -0.8689 0.4345 -0.2369
vn -0.8664 0.4680 -0.1743
vn -0.5199 0.5964 0.6115
vn -0.3663 0.3865 0.8464
vn -0.2841 0.5313 0.7981
vn -0.4121 0.7067 0.5751
vn 0.4916 0.8403 -0.2286
vn 0.5364 0.7920 -0.2918
vn 0.3990 0.8479 -0.3492
vn 0.3680 0.8816 -0.2956
vn -0.8384 0.5360 -0.0990
vn -0.1378 0.9789 -0.1511
vn 0.1837 0.9824 -0.0348
vn 0.6783 0.7033 -0.2128
vn 0.7047 0.6486 -0.2877
vn 0.5621 0.7460 -0.3571
vn -0.0012 0.9909 -0.1342
vn -0.0009 0.9973 -0.0740
vn -0.6700 0.5871 -0.4544
vn -0.7720 0.4627 -0.4359
vn -0.4418 0.2555 0.8600
vn -0.5448 0.1062 0.8318
vn -0.1801 -0.0597 0.9818
vn -0.0628 0.9738 -0.2186
vn -0.0816 0.9869 -0.1389
vn 0.6956 0.0458 -0.7170
vn 0.6822 0.1817 -0.7082
vn 0.8322 0.2461 -0.4968
vn 0.8604 0.1100 -0.4976
vn -0.9066 0.3911 -0.1582
vn -0.8988 0.4262 -0.1023
vn -0.9102 0.3475 -0.2254
vn -0.2744 0.9605 -0.0456
vn 0.2522 0.9465 -0.2012
vn 0.3873 0.9072 -0.1643
vn 0.2985 0.9263 -0.2301
vn 0.4041 0.7034 0.5848
vn 0.4641 0.7906 0.3994
vn 0.1430 0.9430 0.3004
vn 0.2583 0.9194 0.2967
vn 0.2450 0.9427 0.2264
vn 0.1278 0.9665 0.2224
vn -0.3017 0.7891 0.5351
vn -0.3587 0.8529 0.3794
vn -0.4669 0.7917 0.3940
vn 0.1059 -0.3292 0.9383
vn 0.2246 -0.4543 0.8621
vn 0.3774 -0.3353 0.8632
vn 0.2490 -0.1985 0.9479
vn -0.2319 0.7462 -0.6241
vn -0.2733 0.7647 -0.5835
vn -0.8305 0.3555 -0.4288
vn -0.8544 0.3909 -0.3424
vn -0.8440 -0.1194 -0.5228
vn -0.8963 -0.0908 -0.4341
vn -0.9006 -0.0541 -0.4312
vn 0.0129 0.0847 0.9963
vn 0.3173 0.3786 0.8695
vn 0.2259 0.5019 0.8349
vn -0.0411 0.1922 0.9805
vn 0.8988 0.4262 -0.1023
vn 0.9517 0.3023 -0.0536
vn 0.9529 0.2710 -0.1358
vn 0.9066 0.3911 -0.1582
vn -0.9854 0.1119 -0.1285
vn -0.9717 0.1950 -0.1335
vn -0.9623 0.1562 -0.2225
vn -0.9706 0.0847 -0.2251
vn -0.5120 0.6653 -0.5434
vn -0.6318 0.5690 -0.5263
vn -0.5002 0.2352 -0.8334
vn -0.5049 0.1055 -0.8567
vn -0.6822 0.1817 -0.7082
vn -0.6563 0.2982 -0.6931
vn 0.7089 0.6697 0.2212
vn -0.5866 0.8079 0.0570
vn -0.5540 0.8321 -0.0272
vn -0.2447 0.9429 0.2261
vn -0.2248 0.9620 0.1549
vn -0.3487 0.9270 0.1381
vn -0.3627 0.9066 0.2157
vn 0.9623 0.1563 -0.2225
vn 0.9351 0.1076 -0.3378
vn 0.9251 0.1838 -0.3323
vn 0.9486 0.2301 -0.2172
vn -0.6975 0.7110 0.0891
vn -0.7813 0.6229 0.0398
vn -0.6460 -0.0486 0.7618
vn -0.3556 0.7130 -0.6043
vn -0.4505 0.6423 -0.6201
vn -0.3959 0.7341 -0.5517
vn 0.5866 0.8079 0.0570
vn 0.6792 0.7339 0.0060
vn 0.6387 0.7672 -0.0588
vn 0.5540 0.8321 -0.0272
vn 0.2043 0.9773 0.0565
vn 0.2248 0.9620 0.1549
vn 0.3214 0.8161 -0.4803
vn 0.3126 0.7991 -0.5136
vn -0.6956 0.0458 -0.7170
vn -0.6871 -0.0404 -0.7255
vn -0.8645 0.0206 -0.5021
vn -0.8607 0.1100 -0.4971
vn 0.8722 -0.3289 0.3621
vn 0.8858 -0.2657 0.3804
vn 0.9138 -0.2291 0.3355
vn 0.8832 -0.2456 0.3996
vn 0.8073 0.5236 -0.2723
vn 0.7946 0.4942 -0.3526
vn 0.6934 0.6089 -0.3853
vn 0.7041 0.6268 -0.3337
vn -0.2042 0.9773 0.0564
vn -0.3178 0.9474 0.0387
vn 0.1422 0.3552 0.9239
vn 0.0611 0.4782 0.8761
vn 0.0103 0.3621 0.9321
vn 0.0653 0.2469 0.9669
vn -0.9517 0.3023 -0.0535
vn -0.9602 0.2766 0.0396
vn -0.9030 0.4291 -0.0208
vn -0.9529 0.2710 -0.1358
vn -0.9486 0.2301 -0.2172
vn -0.5480 0.5425 -0.6366
vn 0.1736 0.7311 -0.6598
vn 0.2195 0.6721 -0.7072
vn -0.4423 0.8968 0.0099
vn -0.4735 0.8745 0.1048
vn -0.3661 0.8857 0.2855
vn -0.8931 -0.2162 -0.3946
vn -0.9469 -0.0919 -0.3082
vn -0.9855 -0.0651 -0.1568
vn -0.8988 -0.2517 -0.3589
vn -0.8914 0.3015 -0.3383
vn -0.9250 0.1836 -0.3328
vn -0.3760 -0.2358 -0.8961
vn -0.6506 -0.1433 -0.7457
vn -0.6379 -0.1672 -0.7518
vn -0.4163 -0.2357 -0.8782
vn 0.9178 0.3483 0.1907
vn 0.9029 0.4294 -0.0207
vn 0.8447 0.5352 0.0004
vn -0.6188 0.4202 -0.6638
vn -0.7336 0.4458 -0.5129
vn 0.3664 0.8854 0.2862
vn 0.2562 0.8922 0.3719
vn 0.3568 0.8516 0.3839
vn -0.5912 0.7941 0.1408
vn -0.9349 0.1077 -0.3382
vn 0.2947 0.6912 -0.6598
vn 0.2317 0.7459 -0.6244
vn 0.8643 0.0203 -0.5025
vn 0.8972 0.1452 -0.4172
vn 0.9054 0.0623 -0.4200
vn -0.4776 0.8373 0.2661
vn -0.4348 0.5107 -0.7418
vn -0.4796 0.3768 -0.7925
vn 0.9665 -0.1515 0.2073
vn 0.9817 -0.0996 0.1621
vn 0.9356 -0.1324 0.3273
vn -0.1317 0.7238 0.6773
vn -0.0653 0.7492 0.6591
vn -0.1079 0.8485 0.5182
vn -0.2060 0.8318 0.5155
vn 0.4638 -0.1887 -0.8656
vn 0.4516 -0.2113 -0.8669
vn 0.3489 -0.2349 -0.9073
vn 0.3527 -0.2149 -0.9107
vn 0.3760 -0.2358 -0.8961
vn 0.3376 -0.2306 -0.9126
vn 0.4328 -0.2344 -0.8705
vn 0.3939 -0.2470 -0.8854
vn -0.9053 0.0628 -0.4201
vn -0.9039 0.0037 -0.4277
vn -0.9376 0.0441 -0.3450
vn -0.3656 -0.2471 -0.8974
vn -0.3939 -0.2470 -0.8854
vn 0.6466 -0.0492 0.7612
vn 0.7062 -0.1537 0.6911
vn 0.8560 0.0706 0.5121
vn 0.8220 0.1782 0.5409
vn -0.2866 -0.2834 -0.9152
vn -0.3376 -0.2306 -0.9126
vn -0.4328 -0.2344 -0.8705
vn -0.4816 -0.2634 -0.8359
vn 0.6221 0.7694 -0.1452
vn -0.7315 0.3388 0.5917
vn -0.6224 0.4781 0.6197
vn -0.6951 0.5977 0.3996
vn -0.7939 0.4700 0.3857
vn 0.9706 0.0847 -0.2253
vn 0.9717 0.1950 -0.1335
vn 0.9854 0.1119 -0.1285
vn -0.8972 0.1452 -0.4171
vn 0.4551 -0.4313 0.7790
vn 0.2955 -0.5595 0.7744
vn 0.8664 0.4680 -0.1743
vn 0.9102 0.3475 -0.2254
vn 0.8689 0.4345 -0.2369
vn -0.4888 -0.0930 -0.8674
vn -0.4766 -0.1451 -0.8671
vn 0.9772 0.0013 -0.2124
vn 0.9390 -0.0230 -0.3432
vn 0.9376 0.0442 -0.3449
vn 0.9784 -0.0253 -0.2051
vn 0.9981 0.0042 -0.0611
vn 0.9969 0.0671 -0.0410
vn 0.9673 0.0293 -0.2520
vn 0.9793 -0.0563 -0.1942
vn -0.1301 -0.0557 0.9899
vn -0.0297 -0.1797 0.9833
vn 0.1143 -0.0402 0.9926
vn -0.5807 0.7074 0.4030
vn -0.5908 0.7695 0.2424
vn -0.7088 0.6718 0.2152
vn -0.8324 0.2459 -0.4966
vn -0.1095 0.9667 -0.2315
vn -0.7951 0.3413 -0.5013
vn -0.0000 0.4716 -0.8818
vn -0.0000 0.5702 -0.8215
vn 0.9964 0.0839 0.0084
vn 0.9471 0.0404 -0.3183
vn 0.0078 0.7469 0.6649
vn 0.0015 0.8512 0.5248
vn 0.3669 0.6143 -0.6986
vn 0.4347 0.5107 -0.7418
vn 0.2732 0.7646 -0.5837
vn 0.0694 0.7245 0.6858
vn 0.1095 0.8449 0.5236
vn 0.3491 0.3509 -0.8689
vn 0.2039 0.3380 -0.9188
vn 0.1573 0.9563 -0.2463
vn 0.1982 0.9425 -0.2690
vn -0.0536 -0.2137 0.9754
vn -0.0519 -0.0849 0.9950
vn -0.1545 0.0803 0.9847
vn -0.0197 0.6621 0.7492
vn 0.0328 0.6758 0.7363
vn 0.1029 0.9944 -0.0236
vn 0.3004 0.7820 -0.5461
vn -0.3704 0.2011 -0.9068
vn -0.3491 0.3509 -0.8689
vn -0.3161 0.4902 -0.8123
vn -0.5009 -0.0205 -0.8653
vn -0.8641 0.2697 -0.4249
vn -0.2039 0.3380 -0.9188
vn -0.2268 0.1850 -0.9562
vn -0.1787 0.4743 -0.8620
vn 0.0003 0.9298 0.3681
vn -0.9761 0.2143 -0.0373
vn -0.9922 0.1227 -0.0227
vn -0.9898 0.1023 0.0995
vn -0.9780 0.1979 0.0664
vn -0.8647 0.3353 0.3740
vn -0.7997 0.5678 0.1953
vn -0.8662 0.4619 0.1906
vn 0.9039 0.0037 -0.4277
vn 0.9006 -0.0537 -0.4313
vn -0.4638 -0.1887 -0.8656
vn -0.2370 0.0381 -0.9708
vn -0.3776 0.0638 -0.9238
vn -0.9637 0.1329 0.2314
vn -0.9547 0.2261 0.1936
vn 0.3186 0.8305 -0.4569
vn -0.0000 0.9535 0.3013
vn -0.0000 0.9758 0.2185
vn -0.1277 0.9666 0.2224
vn -0.6516 -0.1716 -0.7389
vn -0.9112 0.0272 0.4111
vn -0.9153 0.1625 0.3684
vn 0.9546 0.2261 0.1938
vn 0.9153 0.1612 0.3692
vn 0.8964 0.2244 0.3823
vn 0.3168 0.8452 -0.4304
vn -0.9602 0.0314 0.2775
vn 0.5920 0.7931 0.1432
vn 0.6977 0.7104 0.0925
vn 0.9037 0.1169 0.4120
vn 0.6870 -0.0404 -0.7255
vn 0.2992 0.8722 -0.3869
vn -0.8031 -0.1118 0.5853
vn -0.7982 -0.1043 0.5933
vn -0.7792 -0.1157 0.6160
vn -0.7844 -0.1213 0.6083
vn 0.8735 -0.1861 0.4498
vn 0.8672 -0.2443 0.4338
vn 0.8537 -0.1971 0.4821
vn 0.8529 -0.1571 0.4978
vn 0.9442 -0.1193 0.3069
vn 0.9949 -0.0316 0.0961
vn 0.9941 -0.0919 0.0571
vn 0.2782 0.8972 -0.3430
vn -0.0000 0.3408 -0.9401
vn 0.8440 -0.1195 -0.5229
vn -0.8765 -0.0739 0.4756
vn -0.9966 -0.0759 0.0309
vn -0.9819 -0.0991 0.1617
vn -0.9896 -0.0309 0.1404
vn -1.0000 -0.0029 0.0045
vn -0.4557 -0.4301 0.7794
vn -0.5074 -0.5374 0.6736
vn -0.3557 -0.6706 0.6510
vn -0.2957 -0.5594 0.7743
vn 0.2515 0.9161 -0.3123
vn 0.3554 0.7129 -0.6045
vn 0.4503 0.6423 -0.6202
vn -0.1337 0.2575 0.9570
vn -0.1329 0.0759 0.9882
vn -0.0695 0.2144 0.9743
vn -0.0896 0.4508 0.8881
vn -0.1253 0.1271 0.9839
vn -0.0320 0.3199 0.9469
vn 0.0353 0.4623 0.8860
vn 0.0495 0.2963 0.9538
vn -0.8018 -0.1528 0.5777
vn 0.9896 -0.0310 0.1404
vn 0.9898 0.1010 0.1006
vn 0.2291 0.9296 -0.2888
vn 0.5391 0.1066 0.8354
vn 0.5120 0.6653 -0.5434
vn 0.3959 0.7341 -0.5517
vn 0.8689 -0.0407 0.4933
vn 0.8668 -0.0900 0.4904
vn 0.4172 0.2573 0.8717
vn 0.3335 0.9067 -0.2581
vn 0.4846 0.8698 -0.0931
vn -0.1566 -0.0622 0.9857
vn -0.0514 0.0388 0.9979
vn -0.0623 0.1016 0.9929
vn -0.1888 -0.0156 0.9819
vn 0.7335 -0.2649 0.6259
vn -0.9772 0.0003 -0.2125
vn -0.9944 0.0057 -0.1055
vn 0.5855 -0.5321 0.6116
vn 0.7274 -0.3781 0.5726
vn 0.5053 -0.5386 0.6742
vn 0.4816 -0.2634 -0.8359
vn 0.5896 -0.1285 -0.7974
vn 0.4860 -0.1120 -0.8668
vn 0.3837 -0.1291 -0.9144
vn -0.0000 -0.0496 -0.9988
vn -0.0000 -0.1244 -0.9922
vn 0.1053 0.9918 0.0718
vn 0.1116 0.9807 0.1605
vn 0.8398 -0.1375 -0.5251
vn 0.4176 0.7533 -0.5081
vn 0.8083 0.5468 -0.2181
vn 0.4212 0.8119 -0.4042
vn -0.8930 -0.1209 -0.4335
vn -0.9365 -0.0991 -0.3364
vn -0.9387 -0.0703 -0.3374
vn 0.1940 0.9660 -0.1710
vn 0.2269 0.1851 -0.9562
vn 0.0001 0.1865 -0.9825
vn 0.5443 0.6832 -0.4869
vn 0.7806 0.6235 0.0427
vn 0.5603 0.8204 -0.1144
vn 0.4410 0.8772 -0.1901
vn 0.2043 0.8267 0.5243
vn 0.1445 0.9185 0.3682
vn 0.7831 0.6049 -0.1441
vn 0.4778 0.8366 0.2680
vn 0.4804 0.8568 0.1875
vn 0.3632 0.9063 0.2163
vn 0.6700 0.5871 -0.4544
vn 0.8977 -0.1248 -0.4226
vn 0.9469 -0.0919 -0.3082
vn 0.6698 -0.1312 -0.7309
vn 0.6506 -0.1433 -0.7457
vn -0.1643 0.0332 0.9859
vn 0.8544 0.3909 -0.3424
vn 0.7886 -0.1116 0.6047
vn 0.8077 -0.1077 0.5797
vn 0.8167 -0.1149 0.5655
vn 0.7930 -0.1235 0.5966
vn 0.7585 0.6505 -0.0383
vn -0.0004 0.9999 -0.0162
vn -0.0002 0.9968 0.0801
vn 0.7094 0.6998 -0.0838
vn -0.3837 -0.1291 -0.9144
vn -0.0000 -0.0332 -0.9994
vn -0.4860 -0.1120 -0.8668
vn 0.8914 0.3017 -0.3381
vn 0.6318 0.5690 -0.5263
vn 0.9960 -0.0717 -0.0535
vn -0.4797 0.8574 0.1862
vn 0.8640 0.2701 -0.4249
vn 0.8305 0.3555 -0.4288
vn -0.9954 -0.0603 -0.0750
vn 0.7336 0.4458 -0.5129
vn 0.7720 0.4627 -0.4359
vn 0.8384 0.5360 -0.0990
vn 0.2965 0.7842 0.5452
vn 0.1110 0.6860 0.7191
vn 0.1509 0.6188 0.7709
vn 0.7951 0.3413 -0.5013
vn 0.6188 0.4202 -0.6638
vn 0.4796 0.3768 -0.7925
vn 0.5480 0.5425 -0.6367
vn 0.6563 0.2982 -0.6931
vn 0.5002 0.2352 -0.8334
vn -0.9795 -0.0563 -0.1935
vn -0.3168 -0.1179 0.9411
vn -0.2659 -0.1572 0.9511
vn -0.1053 0.9919 0.0716
vn 0.9761 0.2142 -0.0374
vn -0.8452 0.5345 -0.0008
vn 0.5049 0.1055 -0.8567
vn -0.9391 -0.0239 -0.3427
vn -0.3464 -0.0634 0.9359
vn 0.3776 0.0638 -0.9238
vn 0.3704 0.2011 -0.9068
vn 0.5911 0.7680 0.2464
vn 0.3733 -0.0599 -0.9258
vn 0.2366 -0.0820 -0.9681
vn 0.2372 0.0381 -0.9707
vn 0.5009 -0.0205 -0.8653
vn -0.8900 -0.1741 -0.4215
vn -0.9214 -0.1223 -0.3688
vn 0.0002 0.0323 -0.9995
vn 0.3654 -0.1247 -0.9225
vn 0.2346 -0.1402 -0.9619
vn 0.0002 -0.0888 -0.9960
vn -0.0000 0.9868 0.1619
vn -0.1116 0.9807 0.1605
vn 0.9922 0.1227 -0.0227
vn -0.2345 -0.1402 -0.9620
vn -0.3654 -0.1247 -0.9225
vn -0.3733 -0.0599 -0.9258
vn -0.2364 -0.0820 -0.9682
vn 0.3582 -0.1749 -0.9171
vn 0.2341 -0.1876 -0.9539
vn 0.9602 0.2766 0.0397
vn 0.9780 0.1977 0.0664
vn -0.8977 -0.1248 -0.4226
vn -0.8551 -0.1443 -0.4979
vn 0.9954 -0.0602 -0.0745
vn 0.9944 0.0061 -0.1053
vn 0.7645 -0.2424 0.5972
vn 0.8076 -0.1477 0.5709
vn -0.6698 -0.1312 -0.7309
vn -0.6716 -0.0688 -0.7377
vn 0.9104 0.0254 0.4130
vn 0.9637 0.1328 0.2315
vn -0.9178 0.3481 0.1910
vn 0.8802 -0.1536 0.4491
vn 0.9878 0.0240 0.1537
vn 0.9214 -0.1224 -0.3688
vn 0.9802 -0.0744 -0.1834
vn 0.6716 -0.0688 -0.7377
vn 0.2866 -0.2834 -0.9152
vn -0.7258 -0.3846 0.5703
vn -0.5916 -0.5318 0.6059
vn -0.7321 -0.2689 0.6259
vn -0.3004 0.7820 -0.5461
vn 1.0000 -0.0029 0.0045
vn 0.8104 -0.1399 0.5689
vn 0.8402 -0.1545 0.5198
vn 0.0767 0.1755 0.9815
vn 0.6516 -0.1716 -0.7389
vn 0.9966 -0.0759 0.0309
vn -0.9356 -0.1290 0.3286
vn -0.9446 -0.0849 0.3170
vn -0.9941 -0.0919 0.0571
vn -0.9657 -0.1528 0.2098
vn 0.8537 -0.1399 0.5017
vn 0.8759 -0.1572 0.4561
vn 0.0672 0.5912 0.8038
vn 0.0786 0.5215 0.8496
vn 0.1104 0.4242 0.8988
vn -0.0000 0.0540 -0.9985
vn -0.5896 -0.1285 -0.7974
vn -0.3625 -0.2232 0.9048
vn -0.7039 -0.1546 0.6933
vn -0.0000 -0.2157 -0.9765
vn -0.4404 -0.2225 -0.8698
vn -0.3513 -0.2363 -0.9059
vn -0.6399 -0.1836 -0.7462
vn -0.8399 -0.1375 -0.5251
vn -0.8202 0.1816 0.5425
vn -0.8660 -0.0887 0.4921
vn -0.3728 -0.2516 0.8932
vn -0.3479 -0.2284 0.9093
vn -0.9802 -0.0734 -0.1838
vn -0.9960 -0.0714 -0.0539
vn -0.0527 0.5851 0.8092
vn -0.8650 -0.2180 0.4519
vn -0.8828 -0.2359 0.4063
vn -0.8723 -0.3111 0.3773
vn -0.8663 -0.2722 0.4189
vn -0.8904 -0.2045 -0.4067
vn -0.8821 -0.1376 -0.4505
vn -0.8778 -0.1516 0.4545
vn -0.7573 -0.2493 0.6036
vn 0.9242 0.0240 -0.3812
vn 0.7229 -0.2550 -0.6422
vn 0.8172 -0.1662 -0.5518
vn 0.3547 -0.6715 0.6506
vn 0.9798 0.0441 0.1948
vn 0.9558 0.0262 0.2930
vn 0.9972 0.0717 0.0200
vn 0.2731 -0.4389 0.8560
vn -0.1960 0.6595 0.7257
vn -0.8537 -0.1936 0.4834
vn -0.8479 -0.1553 0.5069
vn -0.8478 -0.1361 0.5125
vn 0.4888 -0.0930 -0.8674
vn -0.9140 -0.2230 0.3389
vn -0.8654 -0.2316 0.4443
vn -0.8721 -0.1785 0.4557
vn -0.8851 -0.2573 0.3878
vn 0.1725 0.2961 0.9394
vn -0.9969 0.0671 -0.0410
vn -0.9964 0.0839 0.0084
vn -0.9798 0.0441 0.1948
vn -0.9878 0.0240 0.1537
vn -0.3489 -0.2349 -0.9073
vn -0.4516 -0.2113 -0.8669
vn 0.8551 -0.1443 -0.4979
vn 0.6379 -0.1672 -0.7518
vn 0.6399 -0.1836 -0.7462
vn 0.7307 0.3366 0.5939
vn -0.9441 -0.1189 0.3074
vn -0.9565 -0.0306 0.2900
vn 0.9565 -0.0306 0.2900
vn 0.8248 -0.1392 0.5480
vn -0.0000 -0.2423 -0.9702
vn 0.2396 -0.2403 -0.9407
vn -0.9558 0.0262 0.2930
vn -0.9972 0.0717 0.0200
vn -0.9403 -0.0675 -0.3336
vn -0.9949 -0.0316 0.0961
vn 0.8633 -0.2250 0.4517
vn 0.8673 -0.2882 0.4058
vn 0.8821 -0.1376 -0.4505
vn 0.8904 -0.2045 -0.4067
vn 0.8900 -0.1741 -0.4215
vn 0.4766 -0.1451 -0.8671
vn -0.3582 -0.1749 -0.9171
vn 0.4163 -0.2357 -0.8782
vn 0.4404 -0.2225 -0.8698
vn -0.8749 -0.1530 0.4595
vn 0.8931 -0.2162 -0.3946
vn 0.0002 -0.1456 -0.9893
vn -0.3527 -0.2149 -0.9107
vn -0.9471 0.0404 -0.3183
vn -0.9242 0.0240 -0.3812
vn -0.7229 -0.2550 -0.6422
vn 0.2357 -0.2235 -0.9458
vn -0.0000 -0.2267 -0.9740
vn 0.0001 -0.1923 -0.9813
vn -0.2340 -0.1875 -0.9540
vn -0.5756 -0.4074 -0.7090
vn -0.9784 -0.0253 -0.2052
vn -0.9981 0.0042 -0.0611
vn -0.2357 -0.2235 -0.9458
vn 0.9855 -0.0651 -0.1568
vn 0.8988 -0.2517 -0.3589
vn -0.9869 -0.0952 0.1298
vn -0.7267 -0.1115 -0.6778
vn -0.2396 -0.2403 -0.9407
vn -0.1656 -0.3973 -0.9026
vn -0.2518 -0.2239 -0.9415
vn -0.7391 -0.2228 -0.6357
vn -0.2964 -0.1763 -0.9387
vn -0.0000 -0.0214 -0.9998
vn -0.9673 0.0293 -0.2520
vn 0.7391 -0.2228 -0.6357
vn -0.8172 -0.1662 -0.5518
vn 0.1656 -0.3973 -0.9026
vn 0.7267 -0.1115 -0.6778
vn 0.9869 -0.0952 0.1298
vn 0.5756 -0.4074 -0.7090
vn 0.9403 -0.0675 -0.3336
vn -0.8915 -0.2309 0.3898
vt 0.000000 0.000000
s 1
f 1/1/1 2/1/2 3/1/3
f 1/1/1 4/1/4 2/1/2
f 3/1/3 2/1/2 5/1/3
f 4/1/4 6/1/5 2/1/2
f 5/1/3 2/1/2 7/1/6
f 6/1/5 8/1/7 2/1/2
f 7/1/6 2/1/2 9/1/8
f 7/1/6 9/1/8 10/1/9
f 8/1/7 11/1/10 2/1/2
f 8/1/7 12/1/11 11/1/10
f 10/1/9 9/1/8 13/1/9
f 9/1/8 2/1/2 14/1/12
f 9/1/8 15/1/13 16/1/14
f 9/1/8 16/1/14 17/1/9
f 9/1/8 18/1/9 13/1/9
f 9/1/8 17/1/9 18/1/9
f 27/1/15 33/1/16 34/1/17 28/1/18
f 32/1/19 33/1/16 27/1/15 30/1/20
f 11/1/10 21/1/21 20/1/22
f 15/1/13 23/1/23 16/1/14
f 15/1/13 24/1/24 23/1/23
f 20/1/22 25/1/25 26/1/26
f 20/1/22 26/1/26 19/1/27
f 19/1/27 26/1/26 27/1/15
f 287/1/28 293/1/29 288/1/30 282/1/31
f 23/1/23 24/1/24 29/1/32
f 26/1/26 30/1/20 27/1/15
f 26/1/26 31/1/33 30/1/20
f 326/1/34 330/1/35 312/1/36 319/1/37
f 29/1/32 24/1/24 35/1/38
f 30/1/20 36/1/39 32/1/19
f 32/1/19 37/1/40 33/1/16
f 34/1/17 33/1/16 38/1/41
f 35/1/38 24/1/24 39/1/42
f 37/1/40 40/1/43 33/1/16
f 39/1/42 24/1/24 41/1/44
f 40/1/43 42/1/45 33/1/16
f 41/1/44 24/1/24 43/1/46
f 42/1/45 44/1/47 33/1/16
f 43/1/46 24/1/24 45/1/48
f 44/1/47 46/1/49 33/1/16
f 45/1/48 24/1/24 47/1/50
f 46/1/49 48/1/49 33/1/16
f 33/1/16 48/1/49 49/1/51
f 33/1/16 49/1/51 38/1/41
f 47/1/50 24/1/24 50/1/52
f 49/1/51 51/1/53 38/1/41
f 50/1/52 24/1/24 52/1/54
f 51/1/53 53/1/53 38/1/41
f 38/1/41 53/1/53 54/1/53
f 38/1/41 54/1/53 55/1/53
f 38/1/41 55/1/53 56/1/55
f 38/1/41 56/1/55 57/1/56
f 52/1/54 24/1/24 58/1/57
f 57/1/56 59/1/58 24/1/24
f 56/1/55 59/1/58 57/1/56
f 58/1/57 24/1/24 60/1/59
f 59/1/58 61/1/60 24/1/24
f 61/1/60 62/1/61 24/1/24
f 62/1/61 63/1/62 24/1/24
f 63/1/62 64/1/63 24/1/24
f 64/1/63 65/1/64 24/1/24
f 65/1/64 66/1/65 24/1/24
f 66/1/65 67/1/66 24/1/24
f 67/1/66 68/1/67 24/1/24
f 68/1/67 69/1/68 24/1/24
f 69/1/68 70/1/69 24/1/24
f 70/1/69 71/1/70 24/1/24
f 71/1/70 72/1/71 24/1/24
f 71/1/70 73/1/72 72/1/71
f 72/1/71 74/1/73 24/1/24
f 74/1/73 75/1/74 24/1/24
f 75/1/74 76/1/75 24/1/24
f 76/1/75 77/1/76 24/1/24
f 77/1/76 78/1/77 24/1/24
f 78/1/77 79/1/78 24/1/24
f 79/1/78 80/1/79 24/1/24
f 60/1/59 24/1/24 81/1/80
f 24/1/24 82/1/81 81/1/80
f 24/1/24 80/1/79 82/1/81
f 83/1/82 84/1/83 85/1/84
f 83/1/82 86/1/85 84/1/83
f 83/1/82 87/1/86 86/1/85
f 83/1/82 88/1/87 87/1/86
f 83/1/82 89/1/88 88/1/87
f 83/1/82 90/1/89 89/1/88
f 83/1/82 91/1/90 90/1/89
f 83/1/82 92/1/91 91/1/90
f 83/1/82 93/1/92 92/1/91
f 83/1/82 94/1/93 93/1/92
f 83/1/82 95/1/94 94/1/93
f 83/1/82 96/1/95 95/1/94
f 83/1/82 97/1/96 96/1/95
f 83/1/82 98/1/97 97/1/96
f 83/1/82 99/1/98 98/1/97
f 83/1/82 100/1/99 99/1/98
f 83/1/82 101/1/100 100/1/99
f 83/1/82 102/1/101 101/1/100
f 83/1/82 103/1/102 102/1/101
f 83/1/82 104/1/103 103/1/102
f 83/1/82 105/1/104 104/1/103
f 83/1/82 106/1/105 105/1/104
f 83/1/82 107/1/106 106/1/105
f 83/1/82 108/1/107 107/1/106
f 83/1/82 109/1/108 108/1/107
f 83/1/82 110/1/109 109/1/108
f 83/1/82 111/1/110 110/1/109
f 83/1/82 112/1/111 111/1/110
f 83/1/82 113/1/112 112/1/111
f 83/1/82 114/1/113 113/1/112
f 83/1/82 115/1/114 114/1/113
f 83/1/82 116/1/115 115/1/114
f 83/1/82 117/1/116 116/1/115
f 83/1/82 118/1/117 117/1/116
f 83/1/82 85/1/84 119/1/118
f 83/1/82 119/1/118 118/1/117
f 769/1/119 775/1/120 755/1/121 762/1/122
f 292/1/123 298/1/124 99/1/98 100/1/99
f 278/1/125 760/1/126 267/1/127 272/1/128
f 274/1/129 317/1/130 275/1/131 269/1/132
f 623/1/133 602/1/134 629/1/135 624/1/136
f 169/1/137 175/1/138 174/1/139 173/1/140
f 598/1/141 585/1/142 584/1/143 606/1/144
f 322/1/145 323/1/146 275/1/131 317/1/130
f 342/1/147 347/1/148 349/1/149 348/1/150
f 457/1/151 475/1/152 373/1/153 366/1/154
f 304/1/155 298/1/124 353/1/156 354/1/157
f 147/1/158 175/1/138 169/1/137 139/1/159
f 304/1/155 354/1/157 347/1/148 309/1/160
f 309/1/160 347/1/148 342/1/147 314/1/161
f 314/1/161 342/1/147 337/1/162 321/1/163
f 683/1/164 688/1/165 678/1/166 422/1/167
f 327/1/168 332/1/169 333/1/170 331/1/171
f 180/1/172 187/1/173 154/1/174 162/1/175
f 181/1/176 344/1/177 345/1/178 176/1/179
f 132/1/180 142/1/181 140/1/182 130/1/183
f 346/1/184 367/1/185 359/1/186 353/1/156
f 353/1/156 359/1/186 355/1/187 354/1/157
f 260/1/188 746/1/189 264/1/190 256/1/191
f 247/1/192 246/1/193 218/1/194 240/1/195
f 342/1/147 348/1/150 343/1/196 337/1/162
f 337/1/162 343/1/196 338/1/197 332/1/169
f 338/1/197 350/1/198 333/1/170 332/1/169
f 350/1/198 445/1/199 344/1/177 333/1/170
f 533/1/200 540/1/201 532/1/202 526/1/203
f 349/1/149 357/1/204 356/1/205 348/1/150
f 355/1/187 360/1/206 357/1/204 349/1/149
f 331/1/171 181/1/176 92/1/91 93/1/92
f 356/1/205 362/1/207 343/1/196 348/1/150
f 275/1/131 268/1/208 261/1/209 269/1/132
f 207/1/210 236/1/211 219/1/212 192/1/213
f 440/1/214 444/1/215 445/1/199 350/1/198
f 493/1/216 498/1/217 497/1/218 495/1/219
f 364/1/220 365/1/221 357/1/204 360/1/206
f 361/1/222 370/1/223 364/1/220 360/1/206
f 363/1/224 369/1/225 362/1/207 356/1/205
f 630/1/226 243/1/227 208/1/228 237/1/229
f 478/1/230 549/1/231 541/1/232 470/1/233
f 369/1/225 374/1/234 358/1/235 362/1/207
f 344/1/177 445/1/199 351/1/236 345/1/178
f 375/1/237 426/1/238 374/1/234 369/1/225
f 87/1/86 88/1/87 156/1/239 147/1/158
f 371/1/240 372/1/241 365/1/221 364/1/220
f 481/1/242 487/1/243 486/1/244 463/1/245
f 144/1/246 143/1/247 134/1/248 135/1/249
f 363/1/224 379/1/250 375/1/237 369/1/225
f 372/1/241 379/1/250 363/1/224 365/1/221
f 351/1/236 457/1/151 352/1/251 345/1/178
f 173/1/140 202/1/252 180/1/172 162/1/175
f 143/1/247 151/1/253 148/1/254 141/1/255
f 186/1/256 191/1/257 174/1/139 175/1/138
f 378/1/258 388/1/259 370/1/223 361/1/222
f 480/1/260 527/1/261 526/1/203 518/1/262
f 164/1/263 190/1/264 186/1/256 156/1/239
f 263/1/265 265/1/266 258/1/267 257/1/268
f 380/1/269 411/1/270 379/1/250 372/1/241
f 377/1/271 380/1/269 372/1/241 371/1/240
f 458/1/272 475/1/152 457/1/151 351/1/236
f 351/1/236 445/1/199 444/1/215 458/1/272
f 138/1/273 154/1/174 146/1/274 137/1/275
f 594/1/276 602/1/134 623/1/133 603/1/277
f 536/1/278 596/1/279 508/1/280 512/1/281
f 463/1/245 488/1/282 462/1/283 455/1/284
f 593/1/285 621/1/286 620/1/287 614/1/288
f 273/1/289 279/1/290 102/1/101 103/1/102
f 370/1/223 388/1/259 382/1/291 376/1/292
f 678/1/166 692/1/293 671/1/294 672/1/295
f 190/1/264 366/1/154 191/1/257 186/1/256
f 578/1/296 601/1/297 579/1/298 571/1/299
f 210/1/300 215/1/301 216/1/302 178/1/303
f 437/1/304 405/1/305 401/1/306 431/1/307
f 579/1/298 601/1/297 602/1/134 594/1/276
f 367/1/185 368/1/308 385/1/309 378/1/258
f 413/1/310 419/1/311 412/1/312 397/1/313
f 630/1/226 237/1/229 242/1/314 624/1/136
f 433/1/315 434/1/316 374/1/234 426/1/238
f 434/1/316 440/1/214 358/1/235 374/1/234
f 327/1/168 331/1/171 93/1/92 94/1/93
f 467/1/317 468/1/318 464/1/319 461/1/320
f 227/1/321 244/1/322 222/1/323 221/1/324
f 425/1/325 426/1/238 375/1/237 418/1/326
f 527/1/261 535/1/327 533/1/200 526/1/203
f 328/1/328 381/1/329 368/1/308 339/1/330
f 198/1/331 199/1/332 160/1/333 193/1/334
f 241/1/335 490/1/336 236/1/211 207/1/210
f 323/1/146 273/1/289 268/1/208 275/1/131
f 112/1/111 113/1/112 121/1/337 120/1/338
f 691/1/339 684/1/340 415/1/341 409/1/342
f 687/1/343 675/1/344 667/1/345 668/1/346
f 158/1/347 166/1/348 150/1/349 149/1/350
f 474/1/351 475/1/152 458/1/272 469/1/352
f 551/1/353 559/1/354 553/1/355 545/1/356
f 410/1/357 448/1/358 416/1/359 411/1/270
f 410/1/357 411/1/270 380/1/269 404/1/360
f 384/1/361 404/1/360 380/1/269 377/1/271
f 381/1/329 387/1/362 385/1/309 368/1/308
f 211/1/363 228/1/364 240/1/195 218/1/194
f 464/1/319 469/1/352 450/1/365 456/1/366
f 493/1/216 495/1/219 460/1/367 462/1/283
f 710/1/368 737/1/369 741/1/370 735/1/371
f 383/1/372 390/1/373 384/1/361 377/1/271
f 729/1/374 730/1/375 700/1/376 724/1/377
f 208/1/228 213/1/378 209/1/379 203/1/380
f 387/1/362 394/1/381 391/1/382 385/1/309
f 597/1/383 596/1/279 590/1/384 595/1/385
f 432/1/386 433/1/315 426/1/238 425/1/325
f 405/1/305 404/1/360 384/1/361 401/1/306
f 396/1/387 401/1/306 384/1/361 390/1/373
f 322/1/145 381/1/329 328/1/328 323/1/146
f 212/1/388 228/1/364 211/1/363 206/1/389
f 255/1/390 257/1/268 250/1/391 249/1/392
f 385/1/309 391/1/382 388/1/259 378/1/258
f 455/1/284 462/1/283 460/1/367 453/1/393
f 469/1/352 458/1/272 444/1/215 450/1/365
f 386/1/394 393/1/395 394/1/381 387/1/362
f 674/1/396 676/1/397 336/1/398 667/1/345
f 499/1/399 568/1/400 500/1/401 494/1/402
f 738/1/403 754/1/404 743/1/405 739/1/406
f 789/1/407 795/1/408 785/1/409 788/1/410
f 402/1/411 423/1/412 403/1/413 396/1/387
f 261/1/209 268/1/208 104/1/103 105/1/104
f 468/1/318 474/1/351 469/1/352 464/1/319
f 723/1/414 764/1/415 729/1/374 724/1/377
f 637/1/416 335/1/417 306/1/418 308/1/419
f 750/1/420 756/1/421 758/1/422 757/1/423
f 144/1/246 153/1/424 151/1/253 143/1/247
f 304/1/155 309/1/160 97/1/96 98/1/97
f 472/1/425 473/1/426 449/1/427 466/1/428
f 239/1/429 227/1/321 233/1/430 238/1/431
f 395/1/432 402/1/411 396/1/387 390/1/373
f 628/1/433 620/1/287 621/1/286 627/1/434
f 172/1/435 178/1/303 179/1/436 165/1/437
f 684/1/340 697/1/438 690/1/439 683/1/164
f 386/1/394 387/1/362 381/1/329 322/1/145
f 434/1/316 450/1/365 444/1/215 440/1/214
f 239/1/429 270/1/440 251/1/441 245/1/442
f 731/1/443 815/1/444 816/1/445 811/1/446
f 268/1/208 273/1/289 103/1/102 104/1/103
f 271/1/447 272/1/128 251/1/441 270/1/440
f 577/1/448 587/1/449 586/1/450 578/1/296
f 449/1/427 454/1/451 438/1/452 443/1/453
f 412/1/312 691/1/339 409/1/342 406/1/454
f 352/1/251 170/1/455 176/1/179 345/1/178
f 397/1/313 412/1/312 406/1/454 398/1/456
f 287/1/28 315/1/457 310/1/458 293/1/29
f 368/1/308 367/1/185 346/1/184 339/1/330
f 816/1/445 817/1/459 812/1/460 811/1/446
f 575/1/461 504/1/462 500/1/401 568/1/400
f 288/1/30 223/1/463 229/1/464 282/1/31
f 200/1/465 206/1/389 109/1/108 110/1/109
f 582/1/466 583/1/467 504/1/462 575/1/461
f 281/1/468 286/1/469 287/1/28 282/1/31
f 293/1/29 240/1/195 228/1/364 288/1/30
f 129/1/470 128/1/471 85/1/84 84/1/83
f 518/1/262 525/1/472 519/1/473 492/1/474
f 566/1/475 574/1/476 575/1/461 568/1/400
f 197/1/477 202/1/252 173/1/140 174/1/139
f 147/1/158 139/1/159 86/1/85 87/1/86
f 188/1/478 200/1/465 110/1/109 111/1/110
f 407/1/479 413/1/310 393/1/395 399/1/480
f 392/1/481 399/1/480 393/1/395 386/1/394
f 703/1/482 691/1/339 412/1/312 419/1/311
f 389/1/483 395/1/432 390/1/373 383/1/372
f 120/1/338 188/1/478 111/1/110 112/1/111
f 400/1/484 421/1/485 407/1/479 399/1/480
f 316/1/486 400/1/484 399/1/480 392/1/481
f 316/1/486 392/1/481 317/1/130 274/1/129
f 317/1/130 392/1/481 386/1/394 322/1/145
f 139/1/159 129/1/470 84/1/83 86/1/85
f 504/1/462 503/1/487 498/1/217 500/1/401
f 442/1/488 491/1/489 485/1/490 447/1/491
f 321/1/163 337/1/162 332/1/169 327/1/168
f 465/1/492 466/1/428 424/1/493 459/1/494
f 252/1/495 259/1/496 260/1/188 256/1/191
f 691/1/339 703/1/482 697/1/438 684/1/340
f 683/1/164 690/1/439 689/1/497 688/1/165
f 421/1/485 427/1/498 420/1/499 407/1/479
f 447/1/491 479/1/500 452/1/501 448/1/358
f 113/1/112 114/1/113 122/1/502 121/1/337
f 506/1/503 507/1/504 489/1/505 497/1/218
f 688/1/165 694/1/506 692/1/293 678/1/166
f 452/1/501 479/1/500 477/1/507 471/1/508
f 297/1/509 213/1/378 302/1/510
f 213/1/378 303/1/511 302/1/510
f 123/1/512 122/1/502 114/1/113 115/1/114
f 485/1/490 528/1/513 479/1/500 447/1/491
f 198/1/331 225/1/514 226/1/515 199/1/332
f 303/1/511 307/1/516 302/1/510
f 256/1/191 264/1/190 262/1/517 255/1/390
f 124/1/518 123/1/512 115/1/114 116/1/115
f 599/1/519 600/1/520 592/1/521 591/1/522
f 669/1/523 677/1/524 661/1/525 660/1/526
f 701/1/527 820/1/528 707/1/529 674/1/396
f 125/1/530 124/1/518 116/1/115 117/1/116
f 315/1/457 408/1/531 400/1/484 316/1/486
f 267/1/127 752/1/532 260/1/188 259/1/496
f 409/1/342 395/1/432 389/1/483 406/1/454
f 479/1/500 528/1/513 537/1/533 477/1/507
f 514/1/534 633/1/535 521/1/536 515/1/537
f 547/1/538 560/1/539 554/1/540 548/1/541
f 126/1/542 125/1/530 117/1/116 118/1/117
f 205/1/543 217/1/544 223/1/463 212/1/388
f 672/1/295 423/1/412 422/1/167 678/1/166
f 511/1/545 517/1/546 516/1/547 510/1/548
f 563/1/549 572/1/550 564/1/551 557/1/552
f 584/1/143 585/1/142 576/1/553 537/1/533
f 312/1/36 330/1/35 311/1/554 305/1/555
f 127/1/556 126/1/542 118/1/117 119/1/118
f 620/1/287 637/1/416 622/1/557 614/1/288
f 182/1/558 217/1/544 205/1/543 183/1/559
f 307/1/516 329/1/560 324/1/561
f 586/1/450 608/1/562 601/1/297 578/1/296
f 126/1/542 136/1/563 135/1/249 125/1/530
f 154/1/174 187/1/173 155/1/564 146/1/274
f 529/1/565 539/1/566 522/1/567 523/1/568
f 329/1/560 334/1/569 324/1/561
f 431/1/307 502/1/570 496/1/571 437/1/304
f 636/1/572 641/1/573 334/1/569 635/1/574
f 785/1/409 786/1/575 779/1/576 784/1/577
f 781/1/578 790/1/579 776/1/580 775/1/120
f 314/1/161 321/1/163 95/1/94 96/1/95
f 293/1/29 310/1/458 247/1/192 240/1/195
f 188/1/478 183/1/559 205/1/543 200/1/465
f 517/1/546 523/1/568 522/1/567 516/1/547
f 424/1/493 443/1/453 425/1/325 418/1/326
f 248/1/581 484/1/582 490/1/336 241/1/335
f 128/1/471 138/1/273 137/1/275 127/1/556
f 267/1/127 760/1/126 759/1/583 752/1/532
f 183/1/559 188/1/478 120/1/338 131/1/584
f 157/1/585 158/1/347 149/1/350 148/1/254
f 134/1/248 143/1/247 141/1/255 133/1/586
f 286/1/469 408/1/531 315/1/457 287/1/28
f 671/1/294 686/1/587 664/1/588 663/1/589
f 328/1/328 279/1/290 273/1/289 323/1/146
f 139/1/159 169/1/137 163/1/590 129/1/470
f 121/1/337 130/1/183 131/1/584 120/1/338
f 408/1/531 286/1/469 296/1/591 414/1/592
f 141/1/255 142/1/181 132/1/180 133/1/586
f 321/1/163 327/1/168 94/1/93 95/1/94
f 140/1/182 177/1/593 131/1/584 130/1/183
f 218/1/194 246/1/193 106/1/105 107/1/106
f 204/1/594 237/1/229 208/1/228 203/1/380
f 152/1/595 153/1/424 144/1/246 145/1/596
f 146/1/274 155/1/564 152/1/595 145/1/596
f 589/1/597 590/1/384 542/1/598 583/1/467
f 142/1/181 149/1/350 150/1/349 140/1/182
f 159/1/599 157/1/585 148/1/254 151/1/253
f 597/1/383 615/1/600 231/1/601 501/1/602
f 480/1/260 518/1/262 492/1/474 487/1/243
f 462/1/283 488/1/282 494/1/402 493/1/216
f 494/1/402 500/1/401 498/1/217 493/1/216
f 171/1/603 177/1/593 140/1/182 150/1/349
f 182/1/558 183/1/559 131/1/584 177/1/593
f 800/1/604 803/1/605 797/1/606 796/1/607
f 433/1/315 456/1/366 450/1/365 434/1/316
f 577/1/448 578/1/296 571/1/299 570/1/608
f 165/1/437 184/1/609 166/1/348 158/1/347
f 646/1/610 653/1/611 651/1/612 645/1/613
f 199/1/332 226/1/515 204/1/594 167/1/614
f 197/1/477 253/1/615 254/1/616 248/1/581
f 160/1/333 199/1/332 167/1/614 161/1/617
f 771/1/618 790/1/579 783/1/619 777/1/620
f 165/1/437 179/1/436 185/1/621 184/1/609
f 425/1/325 443/1/453 438/1/452 432/1/386
f 196/1/622 182/1/558 177/1/593 171/1/603
f 713/1/623 707/1/529 820/1/528 815/1/444
f 438/1/452 453/1/393 439/1/624 432/1/386
f 184/1/609 185/1/621 201/1/625 194/1/626
f 370/1/223 376/1/292 371/1/240 364/1/220
f 514/1/534 515/1/537 496/1/571 513/1/627
f 256/1/191 255/1/390 249/1/392 252/1/495
f 439/1/624 456/1/366 433/1/315 432/1/386
f 343/1/196 362/1/207 358/1/235 338/1/197
f 161/1/617 153/1/424 152/1/595 160/1/333
f 195/1/628 196/1/622 171/1/603 189/1/629
f 167/1/614 168/1/630 159/1/599 161/1/617
f 588/1/631 589/1/597 581/1/632 580/1/633
f 194/1/626 266/1/634 195/1/628 189/1/629
f 358/1/235 440/1/214 350/1/198 338/1/197
f 230/1/635 235/1/636 229/1/464 224/1/637
f 195/1/628 230/1/635 224/1/637 196/1/622
f 216/1/302 233/1/430 227/1/321 221/1/324
f 234/1/638 276/1/639 235/1/636 230/1/635
f 266/1/634 234/1/638 230/1/635 195/1/628
f 258/1/267 266/1/634 194/1/626 201/1/625
f 211/1/363 218/1/194 107/1/106 108/1/107
f 122/1/502 132/1/180 130/1/183 121/1/337
f 509/1/640 513/1/627 496/1/571 502/1/570
f 530/1/641 538/1/642 529/1/565 523/1/568
f 603/1/277 615/1/600 597/1/383 595/1/385
f 474/1/351 476/1/643 373/1/153 475/1/152
f 367/1/185 378/1/258 361/1/222 359/1/186
f 398/1/456 406/1/454 389/1/483 382/1/291
f 460/1/367 495/1/219 467/1/317 461/1/320
f 220/1/644 233/1/430 216/1/302 215/1/301
f 422/1/167 423/1/412 402/1/411 415/1/341
f 417/1/645 459/1/494 424/1/493 418/1/326
f 265/1/266 283/1/646 276/1/639 234/1/638
f 124/1/518 134/1/248 133/1/586 123/1/512
f 414/1/592 421/1/485 400/1/484 408/1/531
f 430/1/647 502/1/570 431/1/307 403/1/413
f 524/1/648 530/1/641 523/1/568 517/1/546
f 209/1/379 210/1/300 168/1/630 203/1/380
f 167/1/614 204/1/594 203/1/380 168/1/630
f 283/1/646 290/1/649 280/1/650 276/1/639
f 265/1/266 234/1/638 266/1/634 258/1/267
f 232/1/651 242/1/314 226/1/515 225/1/514
f 85/1/84 128/1/471 127/1/556 119/1/118
f 309/1/160 314/1/161 96/1/95 97/1/96
f 473/1/426 481/1/242 454/1/451 449/1/427
f 290/1/649 294/1/652 441/1/653 435/1/654
f 289/1/655 294/1/652 290/1/649 283/1/646
f 664/1/588 686/1/587 685/1/656 680/1/657
f 429/1/658 427/1/498 421/1/485 414/1/592
f 595/1/385 590/1/384 589/1/597 588/1/631
f 393/1/395 413/1/310 397/1/313 394/1/381
f 447/1/491 448/1/358 410/1/357 442/1/488
f 269/1/132 261/1/209 246/1/193 247/1/192
f 155/1/564 193/1/334 160/1/333 152/1/595
f 294/1/652 299/1/659 446/1/660 441/1/653
f 435/1/654 441/1/653 436/1/661 429/1/658
f 245/1/442 252/1/495 249/1/392 244/1/322
f 423/1/412 672/1/295 430/1/647 403/1/413
f 157/1/585 172/1/435 165/1/437 158/1/347
f 219/1/212 231/1/601 225/1/514 198/1/331
f 483/1/662 254/1/616 476/1/643 482/1/663
f 220/1/644 284/1/664 238/1/431 233/1/430
f 192/1/213 193/1/334 155/1/564 187/1/173
f 382/1/291 389/1/483 383/1/372 376/1/292
f 716/1/665 696/1/666 428/1/667 715/1/668
f 299/1/659 732/1/669 726/1/670 446/1/660
f 214/1/671 291/1/672 220/1/644 215/1/301
f 288/1/30 228/1/364 212/1/388 223/1/463
f 254/1/616 483/1/662 484/1/582 248/1/581
f 192/1/213 219/1/212 198/1/331 193/1/334
f 700/1/376 730/1/375 704/1/673 698/1/674
f 213/1/378 297/1/509 214/1/671 209/1/379
f 797/1/606 795/1/408 789/1/407 796/1/607
f 596/1/279 597/1/383 501/1/602 508/1/280
f 91/1/90 92/1/91 181/1/176 176/1/179
f 480/1/260 487/1/243 481/1/242 473/1/426
f 352/1/251 457/1/151 366/1/154 190/1/264
f 714/1/675 271/1/447 270/1/440 277/1/676
f 184/1/609 194/1/626 189/1/629 166/1/348
f 236/1/211 501/1/602 231/1/601 219/1/212
f 640/1/677 646/1/610 645/1/613 325/1/678
f 736/1/679 744/1/680 741/1/370 737/1/369
f 455/1/284 453/1/393 438/1/452 454/1/451
f 430/1/647 663/1/589 509/1/640 502/1/570
f 302/1/510 318/1/681 301/1/682 297/1/509
f 490/1/336 508/1/280 501/1/602 236/1/211
f 207/1/210 192/1/213 187/1/173 180/1/172
f 123/1/512 133/1/586 132/1/180 122/1/502
f 451/1/683 452/1/501 471/1/508
f 451/1/683 471/1/508 470/1/233
f 703/1/482 428/1/667 696/1/666 697/1/438
f 373/1/153 476/1/643 254/1/616 253/1/615
f 608/1/562 629/1/135 602/1/134 601/1/297
f 202/1/252 241/1/335 207/1/210 180/1/172
f 202/1/252 197/1/477 248/1/581 241/1/335
f 340/1/684 668/1/346 667/1/345 336/1/398
f 471/1/508 478/1/230 470/1/233
f 820/1/528 708/1/685 816/1/445 815/1/444
f 731/1/443 768/1/686 278/1/125 725/1/687
f 355/1/187 359/1/186 361/1/222 360/1/206
f 145/1/596 144/1/246 135/1/249 136/1/563
f 290/1/649 435/1/654 296/1/591 280/1/650
f 593/1/285 614/1/288 586/1/450 587/1/449
f 797/1/606 801/1/688 791/1/689 795/1/408
f 451/1/683 470/1/233 465/1/492 459/1/494
f 397/1/313 398/1/456 391/1/382 394/1/381
f 562/1/690 561/1/691 560/1/539 555/1/692
f 484/1/582 512/1/281 508/1/280 490/1/336
f 482/1/663 476/1/643 474/1/351 468/1/318
f 461/1/320 464/1/319 456/1/366 439/1/624
f 166/1/348 189/1/629 171/1/603 150/1/349
f 216/1/302 221/1/324 179/1/436 178/1/303
f 598/1/141 599/1/519 591/1/522 585/1/142
f 285/1/693 292/1/123 100/1/99 101/1/100
f 547/1/538 548/1/541 540/1/201 533/1/200
f 284/1/664 313/1/694 277/1/676 238/1/431
f 235/1/636 281/1/468 282/1/31 229/1/464
f 310/1/458 315/1/457 316/1/486 274/1/129
f 468/1/318 467/1/317 489/1/505 482/1/663
f 496/1/571 515/1/537 491/1/489 437/1/304
f 277/1/676 270/1/440 239/1/429 238/1/431
f 246/1/193 261/1/209 105/1/104 106/1/105
f 503/1/487 542/1/598 536/1/278 506/1/503
f 614/1/288 622/1/557 608/1/562 586/1/450
f 506/1/503 536/1/278 512/1/281 507/1/504
f 483/1/662 507/1/504 512/1/281 484/1/582
f 170/1/455 352/1/251 190/1/264 164/1/263
f 713/1/623 725/1/687 271/1/447 714/1/675
f 127/1/556 137/1/275 136/1/563 126/1/542
f 341/1/695 659/1/696 340/1/684 326/1/34
f 539/1/566 546/1/697 545/1/356 522/1/567
f 753/1/698 754/1/404 738/1/403 746/1/189
f 472/1/425 527/1/261 480/1/260 473/1/426
f 320/1/699 714/1/675 277/1/676 313/1/694
f 521/1/536 633/1/535 619/1/700 626/1/701
f 437/1/304 491/1/489 442/1/488 405/1/305
f 357/1/204 365/1/221 363/1/224 356/1/205
f 638/1/702 639/1/703 633/1/535 514/1/534
f 713/1/623 714/1/675 320/1/699 707/1/529
f 311/1/554 313/1/694 284/1/664 305/1/555
f 676/1/397 320/1/699 313/1/694 311/1/554
f 306/1/418 335/1/417 334/1/569 329/1/560
f 662/1/704 670/1/705 669/1/523 660/1/526
f 353/1/156 298/1/124 292/1/123 346/1/184
f 129/1/470 163/1/590 138/1/273 128/1/471
f 573/1/706 574/1/476 567/1/707 565/1/708
f 777/1/620 783/1/619 778/1/709 765/1/710
f 460/1/367 461/1/320 439/1/624 453/1/393
f 524/1/648 531/1/711 530/1/641
f 560/1/539 547/1/538 556/1/712 555/1/692
f 156/1/239 186/1/256 175/1/138 147/1/158
f 776/1/580 774/1/713 755/1/121 775/1/120
f 296/1/591 435/1/654 429/1/658 414/1/592
f 723/1/414 724/1/377 706/1/714 722/1/715
f 626/1/701 528/1/513 485/1/490 521/1/536
f 179/1/436 221/1/324 222/1/323 185/1/621
f 706/1/714 724/1/377 700/1/376 699/1/716
f 671/1/294 692/1/293 693/1/717 686/1/587
f 324/1/561 325/1/678 319/1/37 318/1/681
f 581/1/632 564/1/551 572/1/550 580/1/633
f 319/1/37 312/1/36 301/1/682 318/1/681
f 535/1/327 534/1/718 541/1/232 556/1/712
f 581/1/632 589/1/597 583/1/467 582/1/466
f 395/1/432 409/1/342 415/1/341 402/1/411
f 478/1/230 543/1/719 549/1/231
f 531/1/711 550/1/720 544/1/721
f 448/1/358 452/1/501 451/1/683 416/1/359
f 516/1/547 553/1/355 510/1/548
f 571/1/299 572/1/550 563/1/549 570/1/608
f 573/1/706 582/1/466 575/1/461 574/1/476
f 549/1/231 543/1/719 555/1/692
f 379/1/250 417/1/645 418/1/326 375/1/237
f 257/1/268 258/1/267 201/1/625 250/1/391
f 326/1/34 340/1/684 336/1/398 330/1/35
f 325/1/678 341/1/695 326/1/34 319/1/37
f 212/1/388 206/1/389 200/1/465 205/1/543
f 554/1/540 560/1/539 561/1/691
f 555/1/692 543/1/719 562/1/690
f 509/1/640 655/1/722 520/1/723 513/1/627
f 11/1/10 20/1/22 19/1/27 2/1/2
f 537/1/533 576/1/553 543/1/719 477/1/507
f 558/1/724 559/1/354 566/1/475
f 612/1/725 617/1/726 618/1/727 616/1/728
f 685/1/656 705/1/729 679/1/730 680/1/657
f 584/1/143 626/1/701 619/1/700 613/1/731
f 562/1/690 543/1/719 569/1/732
f 561/1/691 562/1/690 569/1/732
f 545/1/356 553/1/355 516/1/547 522/1/567
f 812/1/460 813/1/733 809/1/734 808/1/735
f 153/1/424 161/1/617 159/1/599 151/1/253
f 355/1/187 349/1/149 347/1/148 354/1/157
f 631/1/736 635/1/574 628/1/433 627/1/434
f 543/1/719 576/1/553 569/1/732
f 603/1/277 623/1/133 232/1/651 615/1/600
f 168/1/630 210/1/300 178/1/303 172/1/435
f 164/1/263 156/1/239 88/1/87 89/1/88
f 584/1/143 537/1/533 528/1/513 626/1/701
f 301/1/682 312/1/36 305/1/555 291/1/672
f 206/1/389 211/1/363 108/1/107 109/1/108
f 713/1/623 815/1/444 731/1/443 725/1/687
f 675/1/344 701/1/527 674/1/396 667/1/345
f 709/1/737 819/1/738 818/1/739 817/1/459
f 495/1/219 497/1/218 489/1/505 467/1/317
f 336/1/398 676/1/397 311/1/554 330/1/35
f 704/1/673 705/1/729 685/1/656 698/1/674
f 271/1/447 725/1/687 278/1/125 272/1/128
f 465/1/492 470/1/233 541/1/232 534/1/718
f 569/1/732 591/1/522 592/1/521
f 427/1/498 715/1/668 428/1/667 420/1/499
f 27/1/15 28/1/18 22/1/740 19/1/27
f 628/1/433 335/1/417 637/1/416 620/1/287
f 403/1/413 431/1/307 401/1/306 396/1/387
f 391/1/382 398/1/456 382/1/291 388/1/259
f 486/1/244 505/1/741 488/1/282 463/1/245
f 251/1/441 259/1/496 252/1/495 245/1/442
f 422/1/167 415/1/341 684/1/340 683/1/164
f 148/1/254 149/1/350 142/1/181 141/1/255
f 606/1/144 613/1/731 612/1/725 605/1/742
f 604/1/743 607/1/744 600/1/520 599/1/519
f 599/1/519 598/1/141 604/1/743
f 531/1/711 544/1/721 538/1/642 530/1/641
f 653/1/611 662/1/704 660/1/526 651/1/612
f 289/1/655 263/1/265 262/1/517 295/1/745
f 413/1/310 407/1/479 420/1/499 419/1/311
f 619/1/700 634/1/746 617/1/726 613/1/731
f 553/1/355 559/1/354 558/1/724 510/1/548
f 405/1/305 442/1/488 410/1/357 404/1/360
f 306/1/418 329/1/560 307/1/516 303/1/511
f 606/1/144 584/1/143 613/1/731
f 138/1/273 163/1/590 162/1/175 154/1/174
f 196/1/622 224/1/637 217/1/544 182/1/558
f 612/1/725 613/1/731 617/1/726
f 605/1/742 611/1/747 609/1/748 604/1/743
f 634/1/746 625/1/749 618/1/727 617/1/726
f 546/1/697 552/1/750 551/1/353 545/1/356
f 280/1/650 296/1/591 286/1/469 281/1/468
f 169/1/137 173/1/140 162/1/175 163/1/590
f 346/1/184 292/1/123 285/1/693 339/1/330
f 137/1/275 146/1/274 145/1/596 136/1/563
f 302/1/510 307/1/516 324/1/561 318/1/681
f 648/1/751 658/1/752 650/1/753 647/1/754
f 612/1/725 616/1/728 611/1/747 605/1/742
f 229/1/464 223/1/463 217/1/544 224/1/637
f 719/1/755 722/1/715 706/1/714 712/1/756
f 759/1/583 799/1/757 794/1/758 793/1/759
f 534/1/718 535/1/327 527/1/261 472/1/425
f 373/1/153 253/1/615 191/1/257 366/1/154
f 598/1/141 606/1/144 605/1/742 604/1/743
f 629/1/135 632/1/760 630/1/226 624/1/136
f 559/1/354 551/1/353 565/1/708 567/1/707
f 232/1/651 623/1/133 624/1/136 242/1/314
f 631/1/736 636/1/572 635/1/574
f 488/1/282 505/1/741 499/1/399 494/1/402
f 376/1/292 383/1/372 377/1/271 371/1/240
f 465/1/492 534/1/718 472/1/425 466/1/428
f 674/1/396 707/1/529 320/1/699 676/1/397
f 564/1/551 573/1/706 565/1/708 557/1/552
f 640/1/677 325/1/678 324/1/561
f 640/1/677 324/1/561 641/1/573
f 636/1/572 640/1/677 641/1/573
f 334/1/569 641/1/573 324/1/561
f 515/1/537 521/1/536 485/1/490 491/1/489
f 566/1/475 568/1/400 499/1/399 558/1/724
f 625/1/749 643/1/761 644/1/762
f 430/1/647 672/1/295 671/1/294 663/1/589
f 325/1/678 645/1/613 341/1/695
f 820/1/528 701/1/527 702/1/763 708/1/685
f 582/1/466 573/1/706 564/1/551 581/1/632
f 644/1/762 647/1/754 650/1/753
f 709/1/737 817/1/459 816/1/445 708/1/685
f 520/1/723 638/1/702 514/1/534 513/1/627
f 557/1/552 565/1/708 551/1/353 552/1/750
f 645/1/613 651/1/612 652/1/764
f 594/1/276 603/1/277 595/1/385 588/1/631
f 280/1/650 281/1/468 235/1/636 276/1/639
f 639/1/703 643/1/761 625/1/749 634/1/746
f 556/1/712 541/1/232 549/1/231 555/1/692
f 660/1/526 661/1/525 652/1/764 651/1/612
f 168/1/630 172/1/435 157/1/585 159/1/599
f 251/1/441 272/1/128 267/1/127 259/1/496
f 755/1/121 774/1/713 748/1/765 747/1/766
f 657/1/767 656/1/768 665/1/769
f 247/1/192 310/1/458 274/1/129 269/1/132
f 817/1/459 818/1/739 813/1/733 812/1/460
f 492/1/474 519/1/473 517/1/546 511/1/545
f 291/1/672 305/1/555 284/1/664 220/1/644
f 642/1/770 647/1/754 644/1/762 643/1/761
f 687/1/343 668/1/346 682/1/771 681/1/772
f 279/1/290 285/1/693 101/1/100 102/1/101
f 526/1/203 532/1/202 525/1/472 518/1/262
f 535/1/327 556/1/712 547/1/538 533/1/200
f 585/1/142 591/1/522 569/1/732 576/1/553
f 682/1/771 661/1/525 677/1/524 681/1/772
f 250/1/391 222/1/323 244/1/322 249/1/392
f 170/1/455 164/1/263 89/1/88 90/1/89
f 335/1/417 628/1/433 635/1/574 334/1/569
f 492/1/474 511/1/545 486/1/244 487/1/243
f 297/1/509 301/1/682 291/1/672 214/1/671
f 652/1/764 659/1/696 341/1/695 645/1/613
f 743/1/405 762/1/122 755/1/121 747/1/766
f 308/1/419 306/1/418 303/1/511 243/1/227
f 622/1/557 632/1/760 629/1/135 608/1/562
f 773/1/773 805/1/774 767/1/775 768/1/686
f 788/1/410 785/1/409 784/1/577 781/1/578
f 264/1/190 746/1/189 738/1/403 300/1/776
f 295/1/745 262/1/517 264/1/190 300/1/776
f 263/1/265 257/1/268 255/1/390 262/1/517
f 260/1/188 752/1/532 753/1/698 746/1/189
f 767/1/775 799/1/757 759/1/583 760/1/126
f 263/1/265 289/1/655 283/1/646 265/1/266
f 759/1/583 793/1/759 753/1/698 752/1/532
f 690/1/439 697/1/438 696/1/666 695/1/777
f 738/1/403 739/1/406 732/1/669 300/1/776
f 300/1/776 732/1/669 299/1/659 295/1/745
f 295/1/745 299/1/659 294/1/652 289/1/655
f 331/1/171 333/1/170 344/1/177 181/1/176
f 507/1/504 483/1/662 482/1/663 489/1/505
f 675/1/344 702/1/763 701/1/527
f 504/1/462 583/1/467 542/1/598 503/1/487
f 794/1/758 799/1/757 800/1/604 796/1/607
f 767/1/775 805/1/774 800/1/604 799/1/757
f 794/1/758 787/1/778 761/1/779 793/1/759
f 278/1/125 768/1/686 767/1/775 760/1/126
f 638/1/702 642/1/770 643/1/761 639/1/703
f 604/1/743 609/1/748 610/1/780 607/1/744
f 702/1/763 709/1/737 708/1/685
f 661/1/525 682/1/771 659/1/696 652/1/764
f 773/1/773 808/1/735 806/1/781 805/1/774
f 682/1/771 668/1/346 340/1/684 659/1/696
f 245/1/442 244/1/322 227/1/321 239/1/429
f 446/1/660 721/1/782 436/1/661 441/1/653
f 695/1/777 740/1/783 689/1/497 690/1/439
f 666/1/784 718/1/785 656/1/768 658/1/752
f 209/1/379 214/1/671 215/1/301 210/1/300
f 718/1/785 665/1/769 656/1/768
f 718/1/785 717/1/786 665/1/769
f 761/1/779 762/1/122 743/1/405 754/1/404
f 753/1/698 793/1/759 761/1/779 754/1/404
f 733/1/787 749/1/788 727/1/789 726/1/670
f 726/1/670 727/1/789 721/1/782 446/1/660
f 761/1/779 787/1/778 769/1/119 762/1/122
f 436/1/661 721/1/782 716/1/665 715/1/668
f 696/1/666 716/1/665 720/1/790 695/1/777
f 665/1/769 717/1/786 728/1/791
f 789/1/407 788/1/410 769/1/119 787/1/778
f 794/1/758 796/1/607 789/1/407 787/1/778
f 520/1/723 655/1/722 654/1/792 649/1/793
f 694/1/506 699/1/716 693/1/717 692/1/293
f 749/1/788 734/1/794 720/1/790 727/1/789
f 436/1/661 715/1/668 427/1/498 429/1/658
f 734/1/794 740/1/783 695/1/777 720/1/790
f 732/1/669 739/1/406 733/1/787 726/1/670
f 717/1/786 735/1/371 728/1/791
f 279/1/290 328/1/328 339/1/330 285/1/693
f 486/1/244 511/1/545 510/1/548 505/1/741
f 748/1/765 749/1/788 733/1/787 747/1/766
f 424/1/493 466/1/428 449/1/427 443/1/453
f 743/1/405 747/1/766 733/1/787 739/1/406
f 802/1/795 803/1/605 806/1/781 807/1/796
f 797/1/606 803/1/605 802/1/795 801/1/688
f 735/1/371 741/1/370 742/1/797
f 740/1/783 719/1/755 712/1/756 689/1/497
f 622/1/557 637/1/416 308/1/419 632/1/760
f 741/1/370 745/1/798 742/1/797
f 741/1/370 744/1/680 745/1/798
f 748/1/765 763/1/799 734/1/794 749/1/788
f 693/1/717 698/1/674 685/1/656 686/1/587
f 808/1/735 809/1/734 807/1/796 806/1/781
f 744/1/680 750/1/420 745/1/798
f 745/1/798 750/1/420 751/1/800
f 689/1/497 712/1/756 694/1/506 688/1/165
f 703/1/482 419/1/311 420/1/499 428/1/667
f 770/1/801 722/1/715 719/1/755 763/1/799
f 774/1/713 770/1/801 763/1/799 748/1/765
f 751/1/800 750/1/420 757/1/423
f 795/1/408 791/1/689 786/1/575 785/1/409
f 243/1/227 303/1/511 213/1/378 208/1/228
f 191/1/257 253/1/615 197/1/477 174/1/139
f 226/1/515 242/1/314 237/1/229 204/1/594
f 694/1/506 712/1/756 706/1/714 699/1/716
f 298/1/124 304/1/155 98/1/97 99/1/98
f 812/1/460 808/1/735 773/1/773 811/1/446
f 757/1/423 765/1/710 766/1/802
f 632/1/760 308/1/419 243/1/227 630/1/226
f 503/1/487 506/1/503 497/1/218 498/1/217
f 770/1/801 782/1/803 723/1/414 722/1/715
f 451/1/683 459/1/494 417/1/645 416/1/359
f 176/1/179 170/1/455 90/1/89 91/1/90
f 734/1/794 763/1/799 719/1/755 740/1/783
f 590/1/384 596/1/279 536/1/278 542/1/598
f 416/1/359 417/1/645 379/1/250 411/1/270
f 769/1/119 788/1/410 781/1/578 775/1/120
f 766/1/802 765/1/710 772/1/804
f 579/1/298 580/1/633 572/1/550 571/1/299
f 654/1/792 680/1/657 679/1/730 673/1/805
f 776/1/580 782/1/803 770/1/801 774/1/713
f 664/1/588 680/1/657 654/1/792 655/1/722
f 772/1/804 765/1/710 778/1/709
f 772/1/804 778/1/709 779/1/576
f 772/1/804 779/1/576 780/1/806
f 222/1/323 250/1/391 201/1/625 185/1/621
f 776/1/580 790/1/579 771/1/618 782/1/803
f 509/1/640 663/1/589 664/1/588 655/1/722
f 783/1/619 784/1/577 779/1/576 778/1/709
f 710/1/368 711/1/807 679/1/730 705/1/729
f 783/1/619 790/1/579 781/1/578 784/1/577
f 723/1/414 782/1/803 771/1/618 764/1/415
f 771/1/618 777/1/620 758/1/422 764/1/415
f 758/1/422 777/1/620 765/1/710 757/1/423
f 779/1/576 786/1/575 780/1/806
f 729/1/374 764/1/415 758/1/422 756/1/421
f 633/1/535 639/1/703 634/1/746 619/1/700
f 579/1/298 594/1/276 588/1/631 580/1/633
f 786/1/575 791/1/689 792/1/808
f 125/1/530 135/1/249 134/1/248 124/1/518
f 693/1/717 699/1/716 700/1/376 698/1/674
f 800/1/604 805/1/774 806/1/781 803/1/605
f 729/1/374 756/1/421 736/1/679 730/1/375
f 736/1/679 756/1/421 750/1/420 744/1/680
f 792/1/808 791/1/689 798/1/809
f 736/1/679 737/1/369 704/1/673 730/1/375
f 454/1/451 481/1/242 463/1/245 455/1/284
f 231/1/601 615/1/600 232/1/651 225/1/514
f 798/1/809 791/1/689 801/1/688
f 798/1/809 801/1/688 802/1/795
f 731/1/443 811/1/446 773/1/773 768/1/686
f 798/1/809 802/1/795 804/1/810
f 19/1/27 22/1/740 14/1/12 2/1/2
f 704/1/673 737/1/369 710/1/368 705/1/729
f 477/1/507 543/1/719 478/1/230 471/1/508
f 802/1/795 807/1/796 804/1/810
f 710/1/368 735/1/371 717/1/786 711/1/807
f 807/1/796 809/1/734 810/1/811
f 679/1/730 711/1/807 666/1/784 673/1/805
f 717/1/786 718/1/785 666/1/784 711/1/807
f 809/1/734 814/1/812 810/1/811
f 809/1/734 813/1/733 814/1/812
f 654/1/792 673/1/805 648/1/751 649/1/793
f 648/1/751 673/1/805 666/1/784 658/1/752
f 567/1/707 574/1/476 566/1/475 559/1/354
f 510/1/548 558/1/724 499/1/399 505/1/741
f 650/1/753 658/1/752 656/1/768 657/1/767
f 813/1/733 818/1/739 814/1/812
f 814/1/812 818/1/739 819/1/738
f 642/1/770 649/1/793 648/1/751 647/1/754
f 520/1/723 649/1/793 642/1/770 638/1/702
f 821/1/813 37/1/40 32/1/19
f 721/1/782 727/1/789 720/1/790 716/1/665
