# Blender 4.3.2
# www.blender.org
o hair.116
v 7.451205 0.614413 0.015576
v 7.450542 0.618603 0.020929
v 7.439907 0.642262 0.016123
v 7.437928 0.615182 0.001433
v 7.449706 0.623045 0.025275
v 7.448719 0.627370 0.027967
v 7.447646 0.631394 0.029374
v 7.446648 0.634837 0.029838
v 7.445673 0.638018 0.029657
v 7.444706 0.641183 0.029096
v 7.443832 0.644195 0.028052
v 7.438309 0.644330 0.033556
v 7.432427 0.643419 0.037245
v 7.426217 0.641712 0.039151
v 7.420152 0.639653 0.039509
v 7.414714 0.637114 0.038723
v 7.410155 0.634031 0.036872
v 7.406737 0.630723 0.034079
v 7.404223 0.627366 0.030795
v 7.402271 0.623581 0.026543
v 7.400904 0.620394 0.023072
v 7.412391 0.615182 0.001433
v 7.399898 0.617449 0.019378
v 7.399110 0.614414 0.015572
v 7.397118 0.618998 0.014162
v 7.396402 0.620647 0.013654
v 7.395533 0.622605 0.013055
v 7.395947 0.617097 0.012723
v 7.396369 0.611569 0.012823
v 7.396342 0.607148 0.013427
v 7.407163 0.601513 0.007517
v 7.410556 0.602011 0.002912
v 7.395833 0.603392 0.014405
v 7.402553 0.589484 0.013152
v 7.408722 0.587385 0.004754
v 7.418555 0.585488 -0.002664
v 7.421857 0.601062 -0.002565
v 7.394807 0.599860 0.015631
v 7.392392 0.584473 0.004150
v 7.394993 0.583098 -0.002069
v 7.398786 0.582372 -0.009231
v 7.428462 0.601062 -0.002565
v 7.393290 0.596670 0.017006
v 7.390676 0.586391 0.009728
v 7.403257 0.582312 -0.016162
v 7.431763 0.585488 -0.002664
v 7.439762 0.602011 0.002912
v 7.391306 0.593939 0.018435
v 7.389534 0.588735 0.014957
v 7.407902 0.582717 -0.021618
v 7.443143 0.601530 0.007508
v 7.441597 0.587385 0.004754
v 7.389089 0.591438 0.019890
v 7.413020 0.583339 -0.025969
v 7.425159 0.584638 -0.030401
v 7.418905 0.583982 -0.029198
v 7.454486 0.603392 0.014405
v 7.453977 0.607148 0.013427
v 7.447766 0.589484 0.013152
v 7.457927 0.584473 0.004150
v 7.455326 0.583098 -0.002069
v 7.451533 0.582372 -0.009231
v 7.431414 0.583982 -0.029198
v 7.455512 0.599860 0.015631
v 7.453950 0.611569 0.012823
v 7.459643 0.586391 0.009728
v 7.447061 0.582312 -0.016162
v 7.437299 0.583339 -0.025969
v 7.442417 0.582717 -0.021618
v 7.457029 0.596670 0.017006
v 7.454371 0.617097 0.012723
v 7.455017 0.623179 0.012875
v 7.453111 0.618796 0.014226
v 7.460785 0.588735 0.014957
v 7.459013 0.593939 0.018435
v 7.461229 0.591438 0.019890
v 7.440369 0.654410 0.016965
v 7.442293 0.653540 0.014522
v 7.438177 0.656037 0.013087
v 7.436651 0.655640 0.020148
v 7.442081 0.652638 0.018725
v 7.445827 0.649418 0.017639
v 7.445903 0.650463 0.013414
v 7.445892 0.651115 0.008576
v 7.440248 0.655081 0.010667
v 7.435398 0.657006 0.015524
v 7.436191 0.657145 0.010359
v 7.442035 0.651585 0.021576
v 7.449554 0.646080 0.012009
v 7.449295 0.645022 0.016135
v 7.445469 0.648061 0.020709
v 7.448769 0.644004 0.019589
v 7.439099 0.655739 0.005888
v 7.441806 0.654224 0.008137
v 7.431077 0.658434 0.014092
v 7.432144 0.657797 0.017513
v 7.451833 0.640311 0.014743
v 7.445183 0.646852 0.023328
v 7.447884 0.643040 0.022704
v 7.449795 0.639148 0.022260
v 7.451032 0.639655 0.018602
v 7.442913 0.653329 0.005346
v 7.428693 0.658243 0.018580
v 7.431063 0.657286 0.020797
v 7.436559 0.654497 0.023166
v 7.431036 0.656144 0.024238
v 7.446643 0.642168 0.025855
v 7.452552 0.635463 0.017947
v 7.447009 0.649950 0.003727
v 7.443618 0.652460 0.002249
v 7.440515 0.654385 0.000959
v 7.425160 0.658074 0.021130
v 7.436768 0.653310 0.025475
v 7.441781 0.650473 0.024249
v 7.449342 0.646841 0.003149
v 7.446939 0.649181 -0.001057
v 7.443974 0.651675 -0.001203
v 7.433891 0.658000 0.007268
v 7.436136 0.656928 0.003503
v 7.441402 0.649275 0.026625
v 7.444621 0.645653 0.025990
v 7.449499 0.646765 0.007546
v 7.429871 0.658924 0.010148
v 7.430617 0.658559 0.002866
v 7.432090 0.657977 0.000357
v 7.437227 0.655963 -0.000346
v 7.432710 0.657389 -0.001960
v 7.443832 0.644195 0.028052
v 7.452237 0.641238 0.010472
v 7.452146 0.642078 0.006111
v 7.428430 0.658412 -0.002258
v 7.427696 0.658662 -0.001024
v 7.440909 0.653136 -0.004739
v 7.437511 0.654969 -0.004705
v 7.454142 0.636458 0.008907
v 7.453518 0.635792 0.013715
v 7.428687 0.658209 -0.003278
v 7.425160 0.658423 -0.003997
v 7.426533 0.658844 -0.000256
v 7.446937 0.647954 -0.006284
v 7.443914 0.651005 -0.004714
v 7.454518 0.631443 0.012996
v 7.432855 0.656817 -0.004530
v 7.428758 0.657993 -0.004376
v 7.425156 0.658941 -0.000013
v 7.428116 0.659055 0.004589
v 7.449308 0.645638 -0.005296
v 7.449208 0.646392 -0.001114
v 7.443376 0.650478 -0.007987
v 7.432235 0.656263 -0.007382
v 7.428466 0.657690 -0.005736
v 7.425159 0.659306 0.010974
v 7.451148 0.643601 -0.000858
v 7.451889 0.642671 0.002051
v 7.439607 0.652277 -0.010220
v 7.430631 0.655727 -0.010152
v 7.427707 0.657381 -0.007078
v 7.436514 0.654212 -0.009139
v 7.425159 0.659100 0.015258
v 7.452054 0.642106 -0.003477
v 7.453495 0.639391 -0.000193
v 7.454093 0.637579 0.004070
v 7.433897 0.653510 -0.013370
v 7.428287 0.655300 -0.012052
v 7.426595 0.657140 -0.008015
v 7.436198 0.651512 -0.015383
v 7.425159 0.658674 0.018891
v 7.455410 0.632673 0.000841
v 7.455287 0.631791 0.007644
v 7.425165 0.655194 -0.012742
v 7.425163 0.657130 -0.008323
v 7.440519 0.649609 -0.014328
v 7.442272 0.650033 -0.011149
v 7.421624 0.658243 0.018581
v 7.419241 0.658434 0.014091
v 7.420448 0.658924 0.010148
v 7.455876 0.627411 0.007044
v 7.423754 0.657208 -0.007991
v 7.445721 0.646932 -0.011576
v 7.418175 0.657797 0.017514
v 7.419260 0.657209 0.021056
v 7.425159 0.659262 0.005072
v 7.414996 0.656839 0.015494
v 7.413774 0.655302 0.020524
v 7.419302 0.655907 0.025275
v 7.425177 0.656726 0.025042
v 7.422200 0.659055 0.004589
v 7.423779 0.658844 -0.000256
v 7.414124 0.657149 0.010357
v 7.416421 0.658000 0.007268
v 7.425492 0.654943 0.028224
v 7.431287 0.654717 0.026933
v 7.419698 0.658559 0.002866
v 7.422615 0.658662 -0.001024
v 7.414137 0.656927 0.003501
v 7.432127 0.652716 0.029486
v 7.419709 0.654169 0.028944
v 7.420732 0.651817 0.032283
v 7.426366 0.652734 0.031213
v 7.436991 0.651702 0.027767
v 7.418217 0.657977 0.000356
v 7.421881 0.658411 -0.002258
v 7.413060 0.655962 -0.000346
v 7.411186 0.655756 0.005885
v 7.414259 0.652163 0.028781
v 7.413831 0.653913 0.024850
v 7.427865 0.650102 0.033801
v 7.437409 0.650049 0.029671
v 7.440389 0.647881 0.029463
v 7.421620 0.658209 -0.003279
v 7.408959 0.651168 0.023768
v 7.408822 0.652767 0.019470
v 7.408948 0.653772 0.014618
v 7.433725 0.650398 0.031695
v 7.435985 0.647450 0.032745
v 7.438309 0.644330 0.033556
v 7.444706 0.641183 0.029096
v 7.404442 0.649304 0.018023
v 7.412221 0.655957 0.013068
v 7.430077 0.646996 0.035730
v 7.432427 0.643419 0.037245
v 7.445673 0.638018 0.029657
v 7.448078 0.638663 0.025919
v 7.410168 0.655138 0.010666
v 7.422216 0.648979 0.035165
v 7.424106 0.645548 0.037417
v 7.426217 0.641712 0.039151
v 7.449248 0.635153 0.025827
v 7.446648 0.634837 0.029838
v 7.451157 0.635305 0.021894
v 7.404558 0.650981 0.008565
v 7.404526 0.650371 0.013402
v 7.416803 0.647002 0.035584
v 7.418374 0.643281 0.037751
v 7.420152 0.639653 0.039509
v 7.447646 0.631394 0.029374
v 7.452065 0.631467 0.021369
v 7.450195 0.631507 0.025325
v 7.453476 0.631391 0.017413
v 7.400616 0.646178 0.012042
v 7.413085 0.640510 0.036994
v 7.414714 0.637114 0.038723
v 7.450958 0.627607 0.024156
v 7.448719 0.627370 0.027967
v 7.453979 0.627449 0.016803
v 7.452617 0.627613 0.020453
v 7.455062 0.627315 0.012545
v 7.410155 0.634031 0.036872
v 7.449706 0.623045 0.025275
v 7.451704 0.623962 0.021997
v 7.452764 0.625080 0.019773
v 7.453778 0.623903 0.016922
v 7.455017 0.623179 0.012875
v 7.455942 0.622811 0.006829
v 7.456109 0.622863 0.000518
v 7.456053 0.627514 0.000705
v 7.404707 0.633170 0.032216
v 7.406737 0.630723 0.034079
v 7.408428 0.637151 0.035137
v 7.452600 0.621107 0.018531
v 7.450542 0.618603 0.020929
v 7.455510 0.617542 0.006723
v 7.454371 0.617097 0.012723
v 7.453111 0.618796 0.014226
v 7.455223 0.627396 -0.006087
v 7.404223 0.627366 0.030795
v 7.407212 0.640504 0.032977
v 7.411768 0.644140 0.034796
v 7.451205 0.614413 0.015576
v 7.453950 0.611569 0.012823
v 7.400497 0.625581 0.025222
v 7.402271 0.623581 0.026543
v 7.401936 0.629103 0.028829
v 7.410508 0.646919 0.031504
v 7.415337 0.649920 0.032489
v 7.455030 0.612277 0.006823
v 7.454939 0.607632 0.007228
v 7.453977 0.607148 0.013427
v 7.400904 0.620394 0.023072
v 7.400557 0.631570 0.026766
v 7.403427 0.636075 0.030079
v 7.455179 0.612755 0.000645
v 7.455688 0.617836 0.000502
v 7.454486 0.603392 0.014405
v 7.399348 0.622401 0.021846
v 7.398412 0.619483 0.018451
v 7.399898 0.617449 0.019378
v 7.402204 0.638664 0.027164
v 7.406099 0.643190 0.029731
v 7.409487 0.649167 0.027692
v 7.454965 0.617739 -0.006021
v 7.455297 0.622679 -0.006157
v 7.398090 0.624359 0.020326
v 7.399110 0.614414 0.015572
v 7.405215 0.645441 0.025969
v 7.404755 0.647485 0.022120
v 7.453526 0.622409 -0.012651
v 7.454793 0.631709 -0.006368
v 7.453434 0.627223 -0.012706
v 7.453153 0.631535 -0.012532
v 7.397118 0.618998 0.014162
v 7.400865 0.643110 0.020213
v 7.401232 0.641019 0.023790
v 7.400609 0.644947 0.016375
v 7.453800 0.635385 -0.007508
v 7.454095 0.636920 -0.003441
v 7.450715 0.627165 -0.018536
v 7.397213 0.621468 0.017369
v 7.396402 0.620647 0.013654
v 7.398717 0.636120 0.021153
v 7.399498 0.633901 0.024111
v 7.452269 0.640532 -0.006648
v 7.396257 0.623200 0.016280
v 7.395533 0.622605 0.013055
v 7.397869 0.629756 0.021295
v 7.397108 0.631786 0.018899
v 7.398286 0.638228 0.018116
v 7.396642 0.633766 0.016488
v 7.399013 0.627674 0.023467
v 7.396949 0.626213 0.018685
v 7.395653 0.624728 0.015183
v 7.396124 0.627990 0.016947
v 7.397933 0.640077 0.014693
v 7.449260 0.644177 -0.009149
v 7.394902 0.626961 0.011872
v 7.395679 0.629696 0.015210
v 7.452331 0.638661 -0.009496
v 7.449549 0.641746 -0.012266
v 7.446526 0.643905 -0.015041
v 7.441936 0.645652 -0.018825
v 7.395396 0.631047 0.012450
v 7.394443 0.627406 0.007043
v 7.396396 0.635408 0.013367
v 7.452700 0.634940 -0.012093
v 7.451998 0.637403 -0.012072
v 7.446665 0.640913 -0.018515
v 7.450072 0.638794 -0.014781
v 7.438263 0.648975 -0.017457
v 7.397907 0.641315 0.010495
v 7.396163 0.636464 0.008906
v 7.450637 0.631756 -0.018174
v 7.450336 0.635614 -0.016882
v 7.435647 0.648428 -0.020271
v 7.431418 0.650981 -0.018655
v 7.400820 0.646765 0.007546
v 7.398173 0.642078 0.006111
v 7.446930 0.632247 -0.023024
v 7.446688 0.636868 -0.021317
v 7.441572 0.642780 -0.022032
v 7.436456 0.644377 -0.024185
v 7.432590 0.648229 -0.021876
v 7.430151 0.652971 -0.016159
v 7.400977 0.646841 0.003149
v 7.441963 0.638144 -0.024848
v 7.436593 0.639224 -0.027371
v 7.430940 0.639887 -0.028812
v 7.430853 0.644259 -0.026343
v 7.429007 0.648045 -0.023025
v 7.425160 0.650724 -0.019979
v 7.425160 0.652735 -0.017268
v 7.442095 0.632848 -0.026870
v 7.436629 0.633423 -0.029649
v 7.425159 0.644316 -0.026723
v 7.425169 0.648006 -0.023386
v 7.421351 0.648045 -0.023025
v 7.418894 0.650985 -0.018654
v 7.420170 0.652990 -0.016153
v 7.422064 0.655360 -0.012031
v 7.447122 0.627229 -0.023606
v 7.442288 0.627380 -0.027556
v 7.419466 0.644259 -0.026343
v 7.413863 0.644377 -0.024185
v 7.417771 0.648229 -0.021876
v 7.414647 0.648428 -0.020272
v 7.414069 0.651513 -0.015382
v 7.419703 0.655737 -0.010148
v 7.416418 0.653514 -0.013368
v 7.422613 0.657393 -0.007073
v 7.447107 0.622051 -0.023383
v 7.419379 0.639887 -0.028812
v 7.408382 0.645651 -0.018825
v 7.411982 0.648975 -0.017457
v 7.409781 0.649610 -0.014327
v 7.410758 0.652277 -0.010219
v 7.418033 0.656263 -0.007382
v 7.413771 0.654212 -0.009139
v 7.421833 0.657690 -0.005736
v 7.421540 0.657993 -0.004376
v 7.425159 0.640112 -0.029261
v 7.404597 0.646932 -0.011576
v 7.408097 0.650034 -0.011148
v 7.406985 0.650479 -0.007983
v 7.409393 0.653136 -0.004736
v 7.417399 0.656817 -0.004529
v 7.412730 0.654968 -0.004703
v 7.417587 0.657389 -0.001961
v 7.430943 0.633793 -0.031233
v 7.425159 0.633928 -0.031725
v 7.403382 0.647954 -0.006284
v 7.406430 0.651008 -0.004708
v 7.409812 0.654391 0.000958
v 7.436802 0.627559 -0.030380
v 7.431044 0.627699 -0.031965
v 7.419375 0.633793 -0.031233
v 7.413690 0.633423 -0.029649
v 7.413726 0.639224 -0.027371
v 7.406416 0.651688 -0.001200
v 7.442377 0.621928 -0.027347
v 7.436947 0.621852 -0.030189
v 7.419275 0.627699 -0.031965
v 7.408356 0.638144 -0.024848
v 7.408747 0.642780 -0.022032
v 7.407573 0.653395 0.005348
v 7.408672 0.654309 0.008141
v 7.442230 0.616595 -0.026722
v 7.425159 0.627759 -0.032448
v 7.403654 0.640913 -0.018515
v 7.403793 0.643905 -0.015041
v 7.406834 0.652491 0.002249
v 7.403395 0.649866 0.003734
v 7.431142 0.621841 -0.031774
v 7.425159 0.621851 -0.032252
v 7.400770 0.641746 -0.012266
v 7.401011 0.645638 -0.005296
v 7.401059 0.644177 -0.009149
v 7.403464 0.649098 -0.001042
v 7.431086 0.616317 -0.031149
v 7.436840 0.616404 -0.029543
v 7.398050 0.640532 -0.006648
v 7.401111 0.646392 -0.001114
v 7.398265 0.642106 -0.003477
v 7.399171 0.643601 -0.000858
v 7.398430 0.642671 0.002051
v 7.436580 0.611379 -0.028699
v 7.446932 0.616854 -0.022824
v 7.446558 0.611807 -0.022104
v 7.441895 0.611553 -0.025913
v 7.396823 0.639391 -0.000193
v 7.396226 0.637579 0.004069
v 7.450619 0.617144 -0.017990
v 7.441494 0.606974 -0.025254
v 7.446075 0.607079 -0.021514
v 7.449724 0.607295 -0.016884
v 7.450226 0.612128 -0.017403
v 7.450811 0.622205 -0.018437
v 7.396224 0.636920 -0.003441
v 7.394909 0.632674 0.000841
v 7.395031 0.631793 0.007640
v 7.445591 0.602486 -0.021058
v 7.452877 0.612459 -0.011918
v 7.396518 0.635385 -0.007508
v 7.397988 0.638661 -0.009496
v 7.453292 0.617444 -0.012348
v 7.398321 0.637403 -0.012072
v 7.397619 0.634940 -0.012093
v 7.397166 0.631535 -0.012532
v 7.395525 0.631709 -0.006368
v 7.400247 0.638794 -0.014781
v 7.454494 0.612742 -0.005752
v 7.399982 0.635614 -0.016882
v 7.395096 0.627396 -0.006087
v 7.394266 0.627514 0.000705
v 7.403631 0.636868 -0.021317
v 7.454144 0.607822 -0.005423
v 7.454965 0.607900 0.000935
v 7.452417 0.607564 -0.011483
v 7.394210 0.622863 0.000518
v 7.394377 0.622808 0.006832
v 7.408224 0.632848 -0.026870
v 7.403389 0.632247 -0.023024
v 7.455025 0.603273 0.001555
v 7.455228 0.603421 0.008000
v 7.452008 0.602709 -0.010995
v 7.394808 0.617543 0.006724
v 7.395947 0.617097 0.012723
v 7.408031 0.627380 -0.027556
v 7.413517 0.627559 -0.030380
v 7.399682 0.631756 -0.018174
v 7.455889 0.599477 0.009207
v 7.455512 0.599860 0.015631
v 7.453946 0.602995 -0.004892
v 7.396369 0.611569 0.012823
v 7.413372 0.621852 -0.030189
v 7.419177 0.621841 -0.031774
v 7.399604 0.627165 -0.018536
v 7.396885 0.627223 -0.012706
v 7.457029 0.596670 0.017006
v 7.453932 0.598306 -0.004016
v 7.419232 0.616317 -0.031149
v 7.425159 0.616300 -0.031648
v 7.403197 0.627229 -0.023606
v 7.396793 0.622409 -0.012651
v 7.395022 0.622679 -0.006157
v 7.455341 0.598903 0.002689
v 7.430946 0.611296 -0.030329
v 7.425159 0.611278 -0.030856
v 7.403212 0.622051 -0.023383
v 7.407942 0.621928 -0.027347
v 7.395354 0.617739 -0.006021
v 7.394631 0.617836 0.000502
v 7.456168 0.594752 0.004411
v 7.430804 0.606957 -0.029625
v 7.399508 0.622205 -0.018437
v 7.413479 0.616404 -0.029543
v 7.408089 0.616595 -0.026722
v 7.395140 0.612755 0.000645
v 7.395289 0.612277 0.006823
v 7.399700 0.617144 -0.017990
v 7.397026 0.617444 -0.012348
v 7.419372 0.611296 -0.030329
v 7.413739 0.611379 -0.028699
v 7.403387 0.616854 -0.022824
v 7.395380 0.607632 0.007228
v 7.396342 0.607148 0.013427
v 7.397442 0.612459 -0.011918
v 7.403760 0.611807 -0.022104
v 7.400092 0.612128 -0.017403
v 7.395824 0.612742 -0.005752
v 7.425159 0.606973 -0.030164
v 7.395833 0.603392 0.014405
v 7.400595 0.607295 -0.016884
v 7.396174 0.607822 -0.005423
v 7.397901 0.607564 -0.011483
v 7.395354 0.607900 0.000935
v 7.425159 0.603004 -0.029663
v 7.419515 0.606957 -0.029625
v 7.408423 0.611553 -0.025913
v 7.398310 0.602709 -0.010995
v 7.395294 0.603273 0.001555
v 7.396373 0.602995 -0.004892
v 7.395090 0.603421 0.008000
v 7.408824 0.606974 -0.025254
v 7.414019 0.606944 -0.027993
v 7.404243 0.607079 -0.021514
v 7.394430 0.599477 0.009207
v 7.394978 0.598903 0.002689
v 7.396387 0.598305 -0.004016
v 7.394807 0.599860 0.015631
v 7.404727 0.602486 -0.021058
v 7.409216 0.602600 -0.024774
v 7.414279 0.602780 -0.027487
v 7.401092 0.602530 -0.016423
v 7.394151 0.594752 0.004411
v 7.393290 0.596670 0.017006
v 7.393286 0.595815 0.010781
v 7.409526 0.598167 -0.024503
v 7.401468 0.597716 -0.016013
v 7.405107 0.597837 -0.020740
v 7.419644 0.602934 -0.029118
v 7.398575 0.597855 -0.010412
v 7.391531 0.592417 0.012660
v 7.391306 0.593939 0.018435
v 7.398226 0.593025 -0.008993
v 7.401306 0.592810 -0.014944
v 7.405056 0.592991 -0.020030
v 7.419744 0.598854 -0.028889
v 7.395820 0.593748 -0.002362
v 7.389089 0.591438 0.019890
v 7.400189 0.587778 -0.012508
v 7.394274 0.589279 0.000502
v 7.396791 0.588225 -0.006000
v 7.414483 0.598556 -0.027238
v 7.392549 0.590740 0.006794
v 7.389534 0.588735 0.014957
v 7.394993 0.583098 -0.002069
v 7.392392 0.584473 0.004150
v 7.390676 0.586391 0.009728
v 7.414389 0.593992 -0.026994
v 7.409467 0.593450 -0.024057
v 7.398786 0.582372 -0.009231
v 7.419230 0.589348 -0.029107
v 7.413611 0.588806 -0.026787
v 7.419678 0.594422 -0.028821
v 7.408554 0.588214 -0.023299
v 7.425159 0.598980 -0.029443
v 7.425159 0.594608 -0.029456
v 7.404250 0.587827 -0.018402
v 7.403257 0.582312 -0.016162
v 7.413020 0.583339 -0.025969
v 7.407902 0.582717 -0.021618
v 7.430575 0.598854 -0.028889
v 7.425159 0.589606 -0.029976
v 7.431088 0.589348 -0.029107
v 7.430641 0.594422 -0.028821
v 7.430675 0.602934 -0.029118
v 7.418905 0.583982 -0.029198
v 7.436039 0.602780 -0.027487
v 7.435836 0.598556 -0.027238
v 7.435930 0.593992 -0.026994
v 7.425159 0.584638 -0.030401
v 7.436300 0.606944 -0.027993
v 7.441102 0.602600 -0.024774
v 7.440793 0.598167 -0.024503
v 7.436707 0.588806 -0.026787
v 7.441765 0.588214 -0.023299
v 7.440852 0.593450 -0.024057
v 7.431414 0.583982 -0.029198
v 7.445211 0.597837 -0.020740
v 7.445262 0.592991 -0.020030
v 7.437299 0.583339 -0.025969
v 7.446069 0.587827 -0.018402
v 7.447061 0.582312 -0.016162
v 7.442417 0.582717 -0.021618
v 7.449227 0.602530 -0.016423
v 7.448850 0.597716 -0.016013
v 7.450130 0.587778 -0.012508
v 7.449013 0.592810 -0.014944
v 7.451533 0.582372 -0.009231
v 7.451743 0.597855 -0.010412
v 7.452093 0.593025 -0.008993
v 7.453527 0.588225 -0.006000
v 7.455326 0.583098 -0.002069
v 7.456045 0.589279 0.000502
v 7.454499 0.593748 -0.002362
v 7.457927 0.584473 0.004150
v 7.457770 0.590740 0.006794
v 7.459643 0.586391 0.009728
v 7.457033 0.595815 0.010781
v 7.458787 0.592417 0.012660
v 7.460785 0.588735 0.014957
v 7.459013 0.593939 0.018435
v 7.461229 0.591438 0.019890
vn -0.4389 -0.8986 0.0003
vn -0.9097 -0.3711 0.1861
vn -0.3213 -0.8261 0.4629
vn -0.6466 -0.1728 0.7430
vn -0.9078 -0.3622 0.2115
vn -0.9071 -0.3453 0.2408
vn -0.9084 -0.3224 0.2661
vn -0.9118 -0.2894 0.2915
vn -0.9166 -0.2496 0.3123
vn -0.9244 -0.1991 0.3254
vn -0.5181 -0.8009 0.3002
vn 0.2025 -0.9701 0.1336
vn 0.2895 -0.9447 0.1542
vn 0.3209 -0.9320 0.1685
vn 0.3687 -0.9054 0.2104
vn 0.4279 -0.8590 0.2813
vn 0.4661 -0.8146 0.3452
vn 0.4850 -0.7806 0.3943
vn 0.4925 -0.7571 0.4292
vn 0.4936 -0.7368 0.4620
vn 0.4990 -0.7369 0.4560
vn 0.5813 -0.4846 0.6536
vn 0.5154 -0.7288 0.4509
vn 0.0251 -0.9992 -0.0307
vn -0.6324 -0.4653 -0.6193
vn -0.6321 -0.4677 -0.6178
vn -0.0930 -0.8948 0.4366
vn 0.5677 0.0221 0.8230
vn 0.5557 0.1084 0.8243
vn -0.8536 -0.3153 0.4146
vn -0.8882 -0.3328 0.3168
vn -0.8707 -0.3280 0.3665
vn -0.8396 -0.3330 0.4292
vn 0.6846 0.0639 0.7262
vn 0.7180 -0.0391 0.6950
vn 0.5386 0.1467 0.8297
vn 0.5271 0.1634 0.8339
vn -0.5023 -0.4724 0.7243
vn -0.5061 0.1669 0.8462
vn -0.5270 0.1634 0.8340
vn -0.6847 0.0638 0.7260
vn 0.6917 0.7216 0.0288
vn 0.5160 0.8553 0.0470
vn 0.5967 0.7939 0.1169
vn 0.7177 0.6849 0.1259
vn 0.0061 0.8965 -0.4429
vn -0.1118 0.9002 -0.4208
vn -0.0696 0.9386 -0.3379
vn 0.0144 0.9362 -0.3511
vn 0.9851 -0.0282 0.1698
vn 0.9854 0.0796 0.1502
vn 0.9967 0.0340 0.0742
vn 0.9945 -0.0500 0.0921
vn 0.4752 -0.6466 0.5967
vn 0.1782 -0.9497 0.2574
vn 0.1246 -0.9696 0.2105
vn 0.2700 0.5034 0.8208
vn 0.5011 0.5642 0.6561
vn 0.4242 0.5440 0.7240
vn 0.2208 0.5411 0.8114
vn -0.9484 0.1920 0.2523
vn -0.9340 0.1158 0.3381
vn -0.9094 0.2232 0.3509
vn -0.9158 0.2919 0.2760
vn 0.5062 0.1670 0.8461
vn 0.4686 0.1359 0.8729
vn 0.5023 -0.4723 0.7243
vn 0.1487 -0.9317 0.3313
vn 0.1248 -0.9119 0.3910
vn 0.2059 -0.7583 0.6186
vn 0.2417 -0.0217 0.9701
vn 0.4590 0.1140 0.8811
vn 0.1145 -0.8801 0.4608
vn 0.1203 -0.9838 0.1326
vn 0.1598 -0.9857 0.0543
vn -0.7182 -0.0392 0.6947
vn 0.9228 -0.0873 0.3753
vn 0.9376 -0.1339 0.3208
vn 0.9547 0.0259 0.2965
vn 0.9254 0.0023 0.3789
vn 0.3303 -0.4952 0.8036
vn 0.1490 -0.9873 0.0557
vn -0.0001 0.5905 -0.8071
vn -0.0000 0.7271 -0.6865
vn 0.1161 0.7340 -0.6691
vn 0.1736 0.5888 -0.7894
vn 0.1244 -0.9905 0.0579
vn 0.0269 -0.9985 0.0471
vn -0.5385 0.1467 0.8298
vn -0.6541 -0.0696 -0.7532
vn -0.7772 -0.0890 -0.6229
vn -0.7446 -0.0723 -0.6636
vn -0.6002 -0.0413 -0.7988
vn -0.4752 -0.6467 0.5967
vn -0.1246 -0.9696 0.2105
vn -0.1782 -0.9497 0.2574
vn -0.1487 -0.9317 0.3313
vn -0.1248 -0.9119 0.3910
vn -0.2209 -0.7562 0.6160
vn -0.0752 -0.9961 0.0463
vn -0.1490 -0.9873 0.0557
vn -0.1598 -0.9857 0.0543
vn -0.1203 -0.9838 0.1326
vn -0.4686 0.1359 0.8729
vn -0.5557 0.1084 0.8243
vn -0.5692 0.0481 0.8208
vn 0.1060 -0.8824 0.4585
vn 0.6324 -0.4657 -0.6190
vn -0.1145 -0.8801 0.4608
vn -0.4590 0.1140 0.8811
vn -0.3303 -0.4952 0.8036
vn 0.9826 0.1830 -0.0324
vn 0.9540 0.2796 -0.1087
vn 0.9282 0.3706 -0.0326
vn 0.9496 0.3122 0.0283
vn 0.9339 0.1234 -0.3355
vn 0.9175 0.2276 -0.3263
vn 0.9516 0.2336 -0.1999
vn 0.9735 0.1386 -0.1820
vn 0.5126 0.8378 0.1881
vn 0.6127 0.7438 0.2671
vn 0.4101 0.8744 0.2594
vn 0.9099 0.3606 0.2052
vn 0.9110 0.3958 0.1162
vn 0.8378 0.5312 0.1264
vn 0.8415 0.4908 0.2259
vn 0.8850 -0.0284 0.4647
vn 0.9184 0.1083 0.3806
vn 0.8722 0.0968 0.4795
vn 0.4283 0.8997 0.0838
vn 0.3662 0.9300 0.0313
vn -0.6124 0.7790 -0.1347
vn -0.5160 0.8479 -0.1219
vn -0.5191 0.8309 -0.2002
vn -0.6062 0.7729 -0.1876
vn 0.4292 0.7910 0.4361
vn 0.6252 0.6753 0.3913
vn 0.6190 0.7117 0.3321
vn 0.4192 0.8358 0.3546
vn -0.3680 0.6693 0.6455
vn -0.1222 0.7434 0.6576
vn -0.1852 0.8337 0.5202
vn -0.4239 0.7577 0.4962
vn 0.7391 0.6268 0.2467
vn 0.9715 -0.0909 0.2187
vn 0.9789 0.0490 0.1982
vn 0.7817 0.3885 0.4878
vn 0.8155 0.3040 0.4924
vn 0.8645 0.3196 0.3879
vn 0.8169 0.4278 0.3869
vn -0.3462 0.7304 -0.5888
vn -0.4226 0.7446 -0.5166
vn -0.3674 0.8035 -0.4684
vn -0.1955 0.8003 -0.5669
vn 0.5516 0.8339 0.0182
vn 0.3549 0.9270 0.1211
vn 0.2108 0.9740 0.0824
vn 0.2483 0.9547 0.1640
vn -0.0552 0.6126 0.7885
vn 0.1425 0.6614 0.7363
vn 0.0841 0.7726 0.6293
vn 0.9705 0.1465 0.1913
vn 0.9941 0.0639 0.0875
vn 0.9818 0.1660 0.0924
vn -0.8745 -0.1798 0.4505
vn -0.9103 -0.0887 0.4043
vn -0.9151 -0.2121 0.3428
vn -0.8863 -0.2740 0.3733
vn 0.7820 0.2936 0.5499
vn 0.8121 0.2129 0.5432
vn 0.8459 0.2125 0.4891
vn -0.5618 0.8153 0.1403
vn -0.5742 0.7854 0.2313
vn -0.4256 0.8727 0.2392
vn -0.3917 0.9088 0.1434
vn 0.5770 0.8145 -0.0600
vn 0.4646 0.8841 -0.0503
vn 0.9747 0.2211 -0.0325
vn 0.9363 0.3314 -0.1162
vn 0.9596 0.1824 -0.2141
vn 0.9844 0.0839 -0.1547
vn 0.2251 0.9335 0.2792
vn 0.1494 0.9712 0.1856
vn -0.8589 0.0376 0.5108
vn -0.8826 -0.1011 0.4591
vn -0.8150 -0.2260 0.5336
vn -0.7928 -0.1212 0.5973
vn -0.9961 -0.0741 -0.0484
vn -0.9974 -0.0245 -0.0675
vn -0.9967 0.0340 0.0742
vn -0.9945 -0.0500 0.0921
vn -0.9163 0.0145 0.4002
vn -0.8916 0.1411 0.4303
vn 0.9304 0.2320 0.2838
vn 0.9500 0.1265 0.2853
vn 0.9491 0.2475 0.1949
vn 0.5391 0.6561 -0.5281
vn 0.5125 0.7394 -0.4366
vn 0.6548 0.6663 -0.3567
vn 0.6797 0.5915 -0.4339
vn 0.8970 0.2205 0.3832
vn -0.9155 -0.3024 0.2654
vn 0.0020 0.9575 0.2883
vn -0.7310 0.0426 0.6810
vn -0.7883 0.1859 0.5866
vn -0.8818 0.4248 -0.2048
vn -0.8689 0.4827 -0.1097
vn -0.7730 0.6106 -0.1723
vn -0.7701 0.5685 -0.2894
vn -0.8254 -0.2659 0.4980
vn -0.7890 -0.3144 0.5278
vn -0.7630 -0.2918 0.5767
vn -0.6847 0.7280 0.0359
vn -0.7082 0.7039 -0.0545
vn -0.8076 0.5883 -0.0411
vn -0.8152 0.5787 0.0258
vn -0.7008 0.7027 -0.1228
vn -0.7853 0.6123 -0.0913
vn 0.5902 0.8010 -0.0997
vn 0.6027 0.7850 -0.1429
vn 0.5092 0.8517 -0.1235
vn 0.3753 0.9228 -0.0874
vn 0.4114 0.8996 -0.1468
vn 0.3038 0.9376 -0.1690
vn 0.2705 0.9550 -0.1215
vn -0.8773 0.4797 -0.0131
vn -0.8992 0.4369 0.0218
vn -0.1555 0.8456 -0.5107
vn -0.2898 0.8606 -0.4187
vn -0.2112 0.9089 -0.3596
vn 0.9968 0.0668 -0.0428
vn 0.9914 -0.0889 0.0959
vn 0.9814 -0.0874 0.1709
vn 0.3078 0.9269 -0.2146
vn 0.1827 0.9594 -0.2151
vn 0.1780 0.9677 -0.1782
vn 0.4131 0.8867 -0.2077
vn -0.9826 0.1829 -0.0327
vn -0.9833 0.1688 0.0682
vn -0.9597 0.2716 0.0725
vn -0.9504 0.3101 0.0225
vn -0.4124 0.8992 -0.1460
vn -0.4688 0.8819 -0.0497
vn -0.3744 0.9231 -0.0879
vn 0.7353 0.4838 0.4747
vn 0.6929 0.4302 0.5786
vn 0.4255 -0.0052 -0.9049
vn 0.2271 0.0257 -0.9735
vn 0.2026 -0.0390 -0.9785
vn 0.3923 -0.0576 -0.9180
vn -0.7334 -0.1826 0.6548
vn -0.2777 0.9178 -0.2839
vn -0.1647 0.9503 -0.2642
vn -0.1297 0.9437 -0.3044
vn 0.9557 0.2750 0.1050
vn 0.2068 0.9757 -0.0717
vn 0.1180 0.9922 -0.0402
vn 0.1670 0.9856 0.0264
vn 0.2925 0.9561 -0.0193
vn -0.1179 0.9922 -0.0401
vn -0.2061 0.9759 -0.0714
vn -0.2906 0.9567 -0.0187
vn -0.1668 0.9856 0.0264
vn 0.1964 0.8009 -0.5657
vn 0.1558 0.8460 -0.5100
vn 0.2878 0.8611 -0.4190
vn 0.3662 0.8030 -0.4702
vn -0.8306 0.2817 -0.4803
vn -0.8517 0.1469 -0.5031
vn -0.9339 0.1234 -0.3355
vn -0.9175 0.2276 -0.3263
vn 0.1585 0.9761 -0.1490
vn 0.0008 0.9787 -0.2051
vn 0.1231 0.9857 -0.1151
vn -0.9479 0.0112 0.3182
vn 0.0784 0.9921 -0.0977
vn 0.7758 0.6063 -0.1749
vn 0.7701 0.5685 -0.2894
vn 0.6876 0.6915 -0.2216
vn 0.8306 0.2817 -0.4803
vn 0.6974 0.3481 -0.6265
vn 0.6923 0.4841 -0.5351
vn 0.8080 0.4098 -0.4232
vn 0.4733 0.8180 -0.3271
vn 0.3763 0.8757 -0.3026
vn 0.5139 0.8344 -0.1993
vn -0.3068 0.9275 -0.2134
vn -0.1816 0.9598 -0.2141
vn -0.0000 0.9957 -0.0923
vn -0.0000 0.9995 -0.0305
vn -0.0784 0.9921 -0.0977
vn -0.9689 0.0948 0.2287
vn -0.9883 0.0159 0.1518
vn -0.9573 -0.1073 0.2683
vn -0.9747 0.2211 -0.0325
vn -0.9363 0.3314 -0.1162
vn -0.9015 0.4275 -0.0675
vn -0.9496 0.3121 0.0281
vn 0.6011 0.7757 -0.1921
vn 0.5922 0.7606 -0.2659
vn 0.0759 0.9359 -0.3439
vn 0.1132 0.9000 -0.4208
vn 0.1648 0.9500 -0.2652
vn 0.0018 0.4803 0.8771
vn -0.0000 0.9994 0.0359
vn -0.8424 0.5363 -0.0528
vn 0.7527 0.5397 0.3769
vn -0.9540 0.2796 -0.1087
vn -0.9282 0.3706 -0.0326
vn 0.1192 0.9424 -0.3125
vn -0.4162 0.8852 -0.2079
vn -0.9516 0.2336 -0.1999
vn -0.9735 0.1386 -0.1820
vn 0.8401 0.1046 0.5322
vn -0.5652 -0.0796 -0.8211
vn -0.7191 -0.0961 -0.6882
vn -0.3696 0.9279 0.0482
vn -0.0000 0.9954 0.0962
vn -0.0000 0.9816 0.1910
vn 0.0015 0.8386 -0.5448
vn 0.3170 0.6726 0.6687
vn 0.5610 0.7463 -0.3582
vn -0.1504 0.9708 0.1868
vn -0.8367 0.4464 0.3174
vn -0.8375 0.3766 0.3958
vn 0.9961 -0.0741 -0.0484
vn 0.9974 -0.0245 -0.0675
vn 0.9766 -0.0724 -0.2026
vn 0.9787 -0.0924 -0.1835
vn -0.1737 0.5892 -0.7891
vn -0.1158 0.7340 -0.6692
vn -0.6539 0.6678 -0.3556
vn -0.6854 0.6951 -0.2169
vn -0.5904 0.7612 -0.2683
vn -0.5599 0.7495 -0.3531
vn -0.2757 0.9472 0.1636
vn -0.2388 0.9322 0.2722
vn -0.4761 0.8164 -0.3270
vn -0.3786 0.8740 -0.3046
vn -0.2199 0.9717 0.0859
vn -0.7130 -0.1533 -0.6842
vn -0.8455 -0.1343 -0.5168
vn -0.8516 -0.1031 -0.5140
vn -0.7192 -0.1230 -0.6839
vn -0.2111 0.3911 0.8958
vn -0.2798 0.5284 0.8016
vn 0.5652 -0.0796 -0.8211
vn 0.6002 -0.0413 -0.7988
vn 0.0001 0.7968 -0.6042
vn -0.3024 0.9384 -0.1671
vn -0.9969 0.0667 -0.0428
vn -0.9959 0.0527 0.0739
vn 0.9949 -0.0420 0.0920
vn -0.1230 0.9857 -0.1151
vn 0.7475 0.5780 0.3274
vn -0.9194 0.3487 0.1820
vn -0.9145 0.3974 0.0761
vn -0.9592 0.2375 0.1532
vn 0.9984 -0.0319 -0.0466
vn 0.9815 -0.0269 -0.1897
vn 0.9808 0.0556 -0.1872
vn -0.1580 0.9762 -0.1487
vn -0.6022 0.7930 -0.0929
vn -0.8317 0.5109 0.2175
vn 0.3801 -0.1043 -0.9191
vn 0.5536 -0.1148 -0.8248
vn -0.6916 0.7129 0.1160
vn -0.5243 0.8483 0.0743
vn -0.1770 0.9682 -0.1769
vn -0.9793 0.1529 0.1327
vn -0.2262 0.8993 0.3742
vn 0.0448 0.8504 0.5243
vn 0.0141 0.9198 0.3921
vn -0.9766 -0.0724 -0.2026
vn -0.9711 -0.0524 -0.2330
vn -0.9943 0.0211 -0.1045
vn 0.4516 0.6643 0.5956
vn 0.5854 0.4680 0.6621
vn 0.8007 -0.1059 -0.5897
vn 0.6927 -0.1189 -0.7114
vn 0.6541 -0.0696 -0.7532
vn 0.7772 -0.0890 -0.6229
vn 0.7507 0.3583 0.5550
vn 0.9635 -0.0108 -0.2673
vn 0.9172 -0.0685 -0.3924
vn 0.9220 -0.0998 -0.3740
vn 0.9711 -0.0524 -0.2330
vn -0.5755 0.5636 0.5925
vn -0.6100 0.6406 0.4664
vn -0.7290 0.5258 0.4384
vn -0.7139 0.4438 0.5417
vn -0.4401 0.8859 0.1467
vn 0.6229 0.6202 0.4768
vn -0.6923 0.4841 -0.5351
vn -0.6799 0.5912 -0.4339
vn -0.5404 0.6546 -0.5286
vn -0.5298 0.5482 -0.6471
vn 0.2063 0.9093 -0.3614
vn -0.0000 0.0553 -0.9985
vn -0.3176 0.0117 -0.9482
vn -0.2761 0.0428 -0.9602
vn -0.0000 0.0709 -0.9975
vn 0.5386 0.3917 -0.7460
vn 0.5297 0.5485 -0.6470
vn -0.6677 0.3216 0.6714
vn -0.8218 0.2900 0.4904
vn 0.8989 0.4364 0.0381
vn 0.8282 0.5590 0.0403
vn -0.9635 -0.0108 -0.2673
vn -0.9844 0.0839 -0.1547
vn -0.5710 0.1282 0.8109
vn -0.6079 0.1819 0.7729
vn -0.6841 -0.0222 0.7290
vn -0.9387 0.0412 -0.3422
vn -0.9808 0.0556 -0.1872
vn -0.2170 0.7376 -0.6394
vn -0.8762 0.3442 -0.3375
vn -0.8883 0.3744 -0.2658
vn -0.9914 -0.0856 0.0991
vn -0.9809 -0.0814 0.1766
vn -0.9705 -0.1422 0.1948
vn -0.9944 -0.0501 0.0929
vn 0.8424 0.5363 -0.0528
vn 0.8689 0.4827 -0.1097
vn 0.7930 0.6020 -0.0932
vn -0.8211 0.5626 0.0963
vn -0.4169 0.2998 0.8581
vn -0.3850 0.2604 0.8854
vn 0.8870 -0.1616 0.4325
vn 0.8954 -0.2633 0.3591
vn -0.3638 0.5931 -0.7182
vn 0.8172 0.5750 -0.0408
vn 0.8773 0.4797 -0.0132
vn -0.7127 0.1878 -0.6759
vn -0.6973 0.3481 -0.6265
vn 0.7130 -0.1533 -0.6842
vn 0.7095 -0.1498 -0.6886
vn 0.5486 -0.1525 -0.8220
vn 0.5494 -0.1653 -0.8190
vn -0.9815 -0.0269 -0.1897
vn -0.9984 -0.0320 -0.0466
vn 0.9503 0.0711 -0.3032
vn 0.9132 -0.0150 -0.4073
vn 0.2301 0.8954 0.3812
vn 0.9943 0.0211 -0.1045
vn 0.9918 0.1238 0.0329
vn -0.9851 -0.0282 0.1698
vn 0.8311 0.4579 0.3154
vn -0.7831 0.5092 -0.3569
vn -0.7132 0.6611 0.2330
vn -0.9854 0.0796 0.1502
vn -0.6032 0.7126 0.3583
vn -0.7276 0.5901 0.3500
vn -0.4939 0.4340 0.7534
vn 0.9277 -0.1123 -0.3559
vn 0.4341 0.7447 0.5069
vn -0.4318 0.8276 0.3587
vn -0.9794 -0.0865 -0.1824
vn -0.9787 -0.0924 -0.1835
vn -0.9951 -0.0886 -0.0445
vn 0.2599 0.7773 0.5729
vn 0.2405 0.8369 0.4918
vn -0.2026 -0.0390 -0.9785
vn -0.0000 -0.0314 -0.9995
vn -0.0000 0.0393 -0.9992
vn -0.2271 0.0257 -0.9735
vn 0.7831 0.5092 -0.3569
vn -0.3645 0.2348 -0.9011
vn -0.5421 0.2178 -0.8116
vn -0.5386 0.3917 -0.7460
vn -0.3689 0.4178 -0.8303
vn -0.9387 -0.0273 -0.3435
vn -0.9364 -0.0890 -0.3396
vn -0.7245 0.0394 -0.6881
vn -0.8602 0.0351 -0.5087
vn -0.9330 -0.1126 -0.3419
vn -0.9277 -0.1123 -0.3559
vn 0.3645 0.2348 -0.9011
vn 0.1785 0.2437 -0.9533
vn 0.1810 0.4334 -0.8828
vn 0.3689 0.4178 -0.8303
vn -0.9047 0.3726 -0.2068
vn -0.8696 0.4601 -0.1793
vn -0.8580 -0.0400 -0.5121
vn 0.8698 -0.3007 0.3912
vn 0.8847 -0.3298 0.3296
vn 0.8999 -0.3044 0.3124
vn -0.5487 0.0480 -0.8347
vn 0.7043 0.6978 -0.1303
vn 0.2783 0.9180 -0.2826
vn 0.8945 0.3377 0.2931
vn 0.2761 0.0428 -0.9602
vn -0.5917 0.8044 -0.0542
vn -0.2694 0.9554 -0.1213
vn 0.2193 0.7379 -0.6383
vn -0.7255 -0.0583 -0.6858
vn -0.2417 -0.0217 0.9701
vn -0.1819 0.3521 0.9181
vn -0.9918 0.1238 0.0329
vn 0.3659 -0.0699 -0.9280
vn 0.1741 -0.0711 -0.9822
vn 0.1753 0.0461 -0.9834
vn 0.3645 0.0501 -0.9298
vn -0.8080 0.4098 -0.4232
vn -0.5665 0.8237 0.0256
vn 0.4200 0.7465 -0.5160
vn 0.7127 0.1878 -0.6759
vn 0.5421 0.2178 -0.8116
vn 0.3483 0.7317 -0.5860
vn 0.0342 0.4316 0.9014
vn 0.3642 0.5932 -0.7180
vn -0.1810 0.4334 -0.8828
vn 0.9752 0.1960 0.1031
vn 0.9496 0.3121 0.0281
vn 0.8608 -0.1722 0.4789
vn 0.8388 -0.0953 -0.5361
vn 0.8449 -0.0694 -0.5303
vn 0.7446 -0.0723 -0.6636
vn 0.7191 -0.0961 -0.6882
vn -0.1785 0.2437 -0.9533
vn -0.0000 0.4385 -0.8987
vn -0.1753 0.0461 -0.9834
vn -0.3645 0.0501 -0.9298
vn -0.9302 0.2215 -0.2927
vn -0.8951 0.3675 -0.2525
vn -0.9360 0.2252 -0.2705
vn 0.7147 0.6969 -0.0593
vn -0.5534 -0.0676 -0.8302
vn -0.5158 0.7403 -0.4312
vn 0.9387 -0.0273 -0.3435
vn 0.8580 -0.0400 -0.5121
vn 0.8602 0.0351 -0.5087
vn 0.9387 0.0412 -0.3422
vn -0.0000 0.2463 -0.9692
vn -0.0000 0.0436 -0.9990
vn 0.8383 -0.1215 -0.5316
vn -0.3923 -0.0576 -0.9180
vn -0.3801 -0.1043 -0.9191
vn -0.1934 -0.0956 -0.9764
vn 0.9047 0.3726 -0.2068
vn 0.9360 0.2252 -0.2705
vn -0.1741 -0.0711 -0.9822
vn -0.3659 -0.0699 -0.9280
vn -0.5526 -0.1379 -0.8220
vn -0.3679 -0.1425 -0.9189
vn -0.8388 -0.0953 -0.5361
vn -0.8449 -0.0694 -0.5303
vn -0.9132 -0.0150 -0.4073
vn -0.9172 -0.0685 -0.3924
vn -0.8401 -0.1382 -0.5246
vn -0.0000 -0.0713 -0.9975
vn -0.8635 0.4484 -0.2310
vn -0.1773 -0.1385 -0.9743
vn 0.8818 0.4248 -0.2048
vn 0.8883 0.3744 -0.2658
vn 0.4862 -0.0170 -0.8737
vn 0.5321 -0.0765 -0.8433
vn 0.3176 0.0117 -0.9482
vn -0.3705 -0.1684 -0.9134
vn -0.1831 -0.1639 -0.9693
vn -0.0000 -0.1351 -0.9908
vn -0.5494 -0.1653 -0.8190
vn 0.1881 -0.1466 -0.9711
vn 0.3738 -0.1508 -0.9152
vn 0.1934 -0.0956 -0.9764
vn -0.5486 -0.1525 -0.8220
vn -0.7095 -0.1498 -0.6886
vn 0.8401 -0.1382 -0.5246
vn -0.1881 -0.1466 -0.9711
vn -0.3738 -0.1508 -0.9152
vn -0.0000 -0.0921 -0.9957
vn -0.5536 -0.1148 -0.8248
vn -0.7120 -0.1233 -0.6913
vn -0.0000 -0.1603 -0.9871
vn 0.8762 0.3442 -0.3375
vn 0.8517 0.1469 -0.5031
vn -0.8383 -0.1215 -0.5316
vn -0.9220 -0.0998 -0.3740
vn 0.9951 -0.0886 -0.0445
vn 0.7245 0.0394 -0.6881
vn 0.5487 0.0480 -0.8347
vn -0.9752 0.1960 0.1031
vn 0.5534 -0.0676 -0.8302
vn 0.8579 -0.0220 0.5133
vn 0.1773 -0.1385 -0.9743
vn 0.5526 -0.1379 -0.8220
vn 0.7192 -0.1230 -0.6839
vn 0.1831 -0.1639 -0.9693
vn -0.0000 -0.1440 -0.9896
vn 0.7255 -0.0583 -0.6858
vn 0.8516 -0.1031 -0.5140
vn 0.9794 -0.0865 -0.1824
vn -0.9596 0.1824 -0.2141
vn 0.3679 -0.1425 -0.9189
vn 0.9364 -0.0890 -0.3396
vn 0.3705 -0.1684 -0.9134
vn 0.9330 -0.1126 -0.3419
vn 0.8455 -0.1343 -0.5168
vn -0.4255 -0.0052 -0.9049
vn -0.4862 -0.0170 -0.8737
vn 0.7120 -0.1233 -0.6913
vn 0.9015 0.4275 -0.0675
vn -0.5321 -0.0765 -0.8433
vn -0.6927 -0.1189 -0.7114
vn 0.8696 0.4601 -0.1793
vn 0.8635 0.4484 -0.2310
vn 0.8951 0.3675 -0.2525
vn -0.9091 0.0113 -0.4164
vn -0.9355 0.1132 -0.3347
vn -0.9503 0.0711 -0.3032
vn 0.9091 0.0113 -0.4164
vn 0.8560 -0.0620 -0.5133
vn 0.9355 0.1132 -0.3347
vn 0.9130 0.0201 -0.4075
vn 0.8684 -0.0633 -0.4919
vn -0.8560 -0.0620 -0.5133
vn -0.8684 -0.0633 -0.4919
vn -0.9130 0.0201 -0.4075
vn 0.9302 0.2215 -0.2927
vn 0.9329 0.1195 -0.3396
vn -0.8007 -0.1059 -0.5897
vn -0.9329 0.1195 -0.3396
vt 0.000000 0.000000
s 1
f 1/1/1 2/1/2 3/1/3
f 1/1/1 3/1/3 4/1/4
f 2/1/2 5/1/5 3/1/3
f 5/1/5 6/1/6 3/1/3
f 6/1/6 7/1/7 3/1/3
f 7/1/7 8/1/8 3/1/3
f 8/1/8 9/1/9 3/1/3
f 9/1/9 10/1/10 3/1/3
f 10/1/10 11/1/11 3/1/3
f 11/1/11 12/1/12 3/1/3
f 12/1/12 13/1/13 3/1/3
f 13/1/13 14/1/14 3/1/3
f 14/1/14 15/1/15 3/1/3
f 15/1/15 16/1/16 3/1/3
f 16/1/16 17/1/17 3/1/3
f 17/1/17 18/1/18 3/1/3
f 3/1/3 18/1/18 19/1/19
f 3/1/3 19/1/19 20/1/20
f 3/1/3 20/1/20 21/1/21
f 3/1/3 21/1/21 22/1/22
f 21/1/21 23/1/23 22/1/22
f 23/1/23 24/1/24 22/1/22
f 24/1/24 25/1/25 22/1/22
f 25/1/25 26/1/26 22/1/22
f 26/1/26 27/1/27 22/1/22
f 22/1/22 27/1/27 28/1/28
f 22/1/22 28/1/28 29/1/29
f 286/1/30 301/1/31 294/1/32 287/1/33
f 22/1/22 31/1/34 32/1/35
f 30/1/36 33/1/37 31/1/34
f 59/1/38 64/1/39 57/1/40 51/1/41
f 84/1/42 85/1/43 78/1/44 83/1/45
f 170/1/46 368/1/47 178/1/48 171/1/49
f 270/1/50 278/1/51 277/1/52 276/1/53
f 35/1/54 40/1/55 41/1/56
f 221/1/57 216/1/58 215/1/59 220/1/60
f 318/1/61 316/1/62 310/1/63 317/1/64
f 38/1/65 43/1/66 34/1/67
f 39/1/68 34/1/67 44/1/69
f 36/1/70 37/1/71 32/1/35 35/1/54
f 43/1/66 48/1/72 34/1/67
f 44/1/69 34/1/67 49/1/73
f 45/1/74 50/1/75 36/1/70
f 47/1/76 51/1/41 4/1/4
f 251/1/77 252/1/78 245/1/79 246/1/80
f 34/1/67 53/1/81 49/1/73
f 48/1/72 53/1/81 34/1/67
f 50/1/75 54/1/82 36/1/70
f 363/1/83 364/1/84 358/1/85 357/1/86
f 36/1/70 56/1/87 55/1/88
f 36/1/70 54/1/82 56/1/87
f 51/1/41 57/1/40 58/1/89
f 30/1/36 31/1/34 22/1/22 29/1/29
f 574/1/90 577/1/91 555/1/92 569/1/93
f 39/1/68 40/1/55 35/1/54 34/1/67
f 52/1/94 62/1/95 61/1/96
f 41/1/56 45/1/74 36/1/70 35/1/54
f 60/1/97 66/1/98 59/1/38
f 46/1/99 63/1/100 68/1/101
f 46/1/99 69/1/102 67/1/103
f 46/1/99 68/1/101 69/1/102
f 64/1/39 59/1/38 70/1/104
f 65/1/105 71/1/106 4/1/4
f 4/1/4 71/1/106 72/1/107
f 4/1/4 72/1/107 73/1/108
f 73/1/108 1/1/1 4/1/4
f 66/1/98 74/1/109 59/1/38
f 70/1/104 59/1/38 75/1/110
f 59/1/38 76/1/111 75/1/110
f 74/1/109 76/1/111 59/1/38
f 168/1/112 306/1/113 161/1/114 162/1/115
f 300/1/116 334/1/117 305/1/118 298/1/119
f 77/1/120 81/1/121 78/1/44
f 77/1/120 80/1/122 81/1/121
f 97/1/123 129/1/124 89/1/125 90/1/126
f 243/1/127 246/1/80 237/1/128 238/1/129
f 79/1/130 85/1/43 87/1/131
f 407/1/132 401/1/133 393/1/134 400/1/135
f 113/1/136 114/1/137 88/1/138 105/1/139
f 275/1/140 198/1/141 197/1/142 205/1/143
f 82/1/144 83/1/45 78/1/44 81/1/121
f 245/1/79 252/1/78 253/1/145 247/1/146
f 107/1/147 223/1/148 100/1/149 99/1/150
f 374/1/151 382/1/152 375/1/153 366/1/154
f 85/1/43 84/1/42 94/1/155
f 86/1/156 95/1/157 96/1/158
f 86/1/156 96/1/158 80/1/122
f 198/1/141 225/1/159 207/1/160 199/1/161
f 142/1/162 247/1/146 177/1/163 169/1/164
f 293/1/165 320/1/166 313/1/167 308/1/168
f 222/1/169 229/1/170 228/1/171 223/1/148
f 213/1/172 212/1/173 184/1/174 183/1/175
f 94/1/155 102/1/176 93/1/177
f 94/1/155 84/1/42 102/1/176
f 479/1/178 618/1/179 501/1/180 494/1/181
f 96/1/158 104/1/182 80/1/122
f 96/1/158 103/1/183 104/1/182
f 280/1/184 319/1/185 271/1/186 273/1/187
f 506/1/188 524/1/189 513/1/190 507/1/191
f 315/1/192 319/1/185 280/1/184 311/1/193
f 108/1/194 239/1/195 142/1/162 136/1/196
f 330/1/197 172/1/198 179/1/199 329/1/200
f 228/1/171 238/1/129 237/1/128 230/1/201
f 308/1/168 313/1/167 309/1/202 301/1/31
f 104/1/182 103/1/183 112/1/203
f 257/1/204 281/1/205 280/1/184 273/1/187
f 429/1/206 431/1/207 424/1/208 425/1/209
f 271/1/186 285/1/210 279/1/211 272/1/212
f 231/1/213 420/1/214 353/1/215 345/1/216
f 426/1/217 430/1/218 353/1/215 420/1/214
f 110/1/219 117/1/220 111/1/221
f 119/1/222 126/1/223 127/1/224 125/1/225
f 353/1/215 433/1/226 346/1/227 345/1/216
f 367/1/228 377/1/229 376/1/230 368/1/47
f 177/1/163 256/1/231 168/1/112 169/1/164
f 270/1/50 276/1/53 262/1/232 263/1/233
f 143/1/234 144/1/235 137/1/236 127/1/224
f 134/1/237 143/1/234 127/1/224 126/1/223
f 447/1/238 448/1/239 340/1/240 439/1/241
f 203/1/242 401/1/133 204/1/243 195/1/244
f 121/1/245 128/1/246 107/1/147
f 228/1/171 230/1/201 100/1/149 223/1/148
f 589/1/247 584/1/248 581/1/249 588/1/250
f 266/1/251 273/1/187 271/1/186 272/1/212
f 385/1/252 387/1/253 378/1/254 376/1/230
f 135/1/255 169/1/164 168/1/112 162/1/115
f 87/1/131 95/1/157 86/1/156 79/1/130
f 124/1/256 146/1/257 123/1/258 118/1/259
f 187/1/260 193/1/261 190/1/262 176/1/263
f 344/1/264 352/1/265 163/1/266 166/1/267
f 460/1/268 478/1/269 456/1/270 455/1/271
f 131/1/272 137/1/236 138/1/273
f 131/1/272 138/1/273 132/1/274
f 316/1/62 322/1/275 320/1/166 315/1/192
f 132/1/274 138/1/273 139/1/276
f 147/1/277 324/1/278 179/1/199 140/1/279
f 342/1/280 348/1/281 336/1/282 337/1/283
f 155/1/284 158/1/285 134/1/237 133/1/286
f 394/1/287 388/1/288 387/1/253 385/1/252
f 137/1/236 144/1/235 138/1/273
f 139/1/276 138/1/273 145/1/289
f 182/1/290 145/1/289 188/1/291 187/1/260
f 326/1/292 325/1/293 321/1/294 322/1/275
f 535/1/295 545/1/296 544/1/297 538/1/298
f 141/1/299 140/1/279 149/1/300
f 245/1/79 247/1/146 142/1/162 239/1/195
f 170/1/46 171/1/49 165/1/301 164/1/302
f 144/1/235 151/1/303 138/1/273
f 226/1/304 220/1/60 207/1/160 225/1/159
f 182/1/290 187/1/260 176/1/263 152/1/305
f 432/1/306 433/1/226 353/1/215 430/1/218
f 424/1/208 431/1/207 432/1/306 430/1/218
f 98/1/307 121/1/245 107/1/147 99/1/150
f 429/1/206 446/1/308 438/1/309 431/1/207
f 151/1/303 157/1/310 138/1/273
f 395/1/311 393/1/134 401/1/133 203/1/242
f 451/1/312 457/1/313 447/1/238 446/1/308
f 236/1/314 238/1/129 228/1/171 229/1/170
f 546/1/315 569/1/93 555/1/92 548/1/316
f 195/1/244 204/1/243 189/1/317 190/1/262
f 157/1/310 165/1/301 138/1/273
f 111/1/221 126/1/223 119/1/222 93/1/177
f 103/1/183 159/1/318 167/1/319
f 103/1/183 167/1/319 112/1/203
f 447/1/238 439/1/241 438/1/309 446/1/308
f 118/1/259 119/1/222 125/1/225 124/1/256
f 360/1/320 170/1/46 164/1/302 352/1/265
f 165/1/301 171/1/49 138/1/273
f 207/1/160 220/1/60 215/1/59 214/1/321
f 155/1/284 149/1/300 173/1/322
f 167/1/319 159/1/318 174/1/323
f 167/1/319 174/1/323 112/1/203
f 95/1/157 159/1/318 103/1/183 96/1/158
f 152/1/305 159/1/318 95/1/157 123/1/258
f 302/1/324 317/1/64 310/1/63 303/1/325
f 282/1/326 465/1/327 464/1/328 459/1/329
f 171/1/49 178/1/48 138/1/273
f 363/1/83 371/1/330 365/1/331 364/1/84
f 173/1/322 179/1/199 172/1/198
f 390/1/332 425/1/209 424/1/208 399/1/333
f 390/1/332 399/1/333 392/1/334 391/1/335
f 174/1/323 180/1/336 181/1/337
f 174/1/323 181/1/337 112/1/203
f 384/1/338 386/1/339 377/1/229 375/1/153
f 180/1/336 175/1/340 183/1/175
f 180/1/336 183/1/175 184/1/174
f 180/1/336 184/1/174 181/1/337
f 516/1/341 517/1/342 508/1/343 512/1/344
f 234/1/345 226/1/304 225/1/159 233/1/346
f 145/1/289 138/1/273 188/1/291
f 593/1/347 596/1/348 589/1/247 588/1/250
f 58/1/89 65/1/105 4/1/4 51/1/41
f 359/1/349 360/1/320 352/1/265 344/1/264
f 203/1/242 396/1/350 394/1/287 395/1/311
f 447/1/238 462/1/351 332/1/352 448/1/239
f 253/1/145 263/1/233 262/1/232 254/1/353
f 188/1/291 138/1/273 194/1/354
f 424/1/208 430/1/218 426/1/217 399/1/333
f 376/1/230 378/1/254 178/1/48 368/1/47
f 320/1/166 322/1/275 321/1/294 313/1/167
f 88/1/138 91/1/355 82/1/144 81/1/121
f 323/1/356 339/1/357 340/1/240 333/1/358
f 255/1/359 292/1/360 265/1/361 256/1/231
f 132/1/274 124/1/256 125/1/225 131/1/272
f 194/1/354 138/1/273 202/1/362
f 158/1/285 155/1/284 166/1/267 163/1/266
f 407/1/132 426/1/217 420/1/214 419/1/363
f 323/1/356 317/1/64 302/1/324 304/1/364
f 593/1/347 588/1/250 587/1/365 592/1/366
f 315/1/192 320/1/166 293/1/165 319/1/185
f 231/1/213 232/1/367 213/1/172 224/1/368
f 149/1/300 140/1/279 179/1/199 173/1/322
f 346/1/227 439/1/241 340/1/240 339/1/357
f 202/1/362 138/1/273 210/1/369
f 318/1/61 333/1/358 331/1/370 326/1/292
f 185/1/371 197/1/142 191/1/372 186/1/373
f 88/1/138 114/1/137 98/1/307 91/1/355
f 522/1/374 530/1/375 529/1/376 524/1/189
f 208/1/377 214/1/321 215/1/59
f 209/1/378 215/1/59 128/1/246
f 208/1/377 215/1/59 209/1/378
f 602/1/379 603/1/380 595/1/381 601/1/382
f 128/1/246 215/1/59 216/1/58
f 128/1/246 217/1/383 107/1/147
f 488/1/384 609/1/385 473/1/386 481/1/387
f 274/1/388 290/1/389 295/1/390 289/1/391
f 183/1/175 219/1/392 213/1/172
f 52/1/94 59/1/38 51/1/41 47/1/76
f 120/1/393 209/1/378 128/1/246 121/1/245
f 219/1/392 224/1/368 213/1/172
f 417/1/394 418/1/395 381/1/396 412/1/397
f 219/1/392 189/1/317 224/1/368
f 164/1/302 165/1/301 157/1/310 156/1/398
f 163/1/266 352/1/265 164/1/302 156/1/398
f 590/1/399 586/1/400 571/1/401 582/1/402
f 348/1/281 354/1/403 349/1/404 336/1/282
f 55/1/88 63/1/100 46/1/99 36/1/70
f 267/1/405 289/1/391 288/1/406 281/1/205
f 198/1/141 275/1/140 233/1/346 225/1/159
f 89/1/125 129/1/124 130/1/407 122/1/408
f 52/1/94 61/1/96 60/1/97 59/1/38
f 529/1/376 530/1/375 537/1/409 536/1/410
f 438/1/309 439/1/241 346/1/227 433/1/226
f 248/1/411 259/1/412 257/1/204 258/1/413
f 267/1/405 281/1/205 257/1/204 259/1/412
f 340/1/240 448/1/239 331/1/370 333/1/358
f 456/1/270 486/1/414 461/1/415 457/1/313
f 365/1/331 373/1/416 366/1/154 359/1/349
f 392/1/334 400/1/135 393/1/134 384/1/338
f 454/1/417 455/1/271 451/1/312 452/1/418
f 176/1/263 175/1/340 159/1/318 152/1/305
f 474/1/419 475/1/420 314/1/421 468/1/422
f 33/1/37 38/1/65 34/1/67 31/1/34
f 153/1/423 160/1/424 147/1/277 148/1/425
f 35/1/54 32/1/35 31/1/34 34/1/67
f 231/1/213 345/1/216 240/1/426 232/1/367
f 185/1/371 186/1/373 112/1/203 181/1/337
f 241/1/427 259/1/412 248/1/411 242/1/428
f 240/1/426 345/1/216 346/1/227 339/1/357
f 250/1/429 260/1/430 251/1/77
f 372/1/431 373/1/416 365/1/331 371/1/330
f 251/1/77 260/1/430 252/1/78
f 115/1/432 154/1/433 153/1/423 148/1/425
f 470/1/434 478/1/269 460/1/268 463/1/435
f 436/1/436 442/1/437 441/1/438 437/1/439
f 461/1/415 493/1/440 467/1/441 462/1/351
f 461/1/415 462/1/351 447/1/238 457/1/313
f 488/1/384 614/1/442 610/1/443 609/1/385
f 295/1/390 303/1/325 288/1/406 289/1/391
f 106/1/444 105/1/139 80/1/122 104/1/182
f 479/1/178 494/1/181 471/1/445 472/1/446
f 474/1/419 507/1/191 482/1/447 475/1/420
f 386/1/339 395/1/311 394/1/287 385/1/252
f 92/1/448 90/1/126 82/1/144 91/1/355
f 423/1/449 452/1/418 429/1/206 425/1/209
f 213/1/172 232/1/367 218/1/450 212/1/173
f 513/1/190 514/1/451 482/1/447 507/1/191
f 211/1/452 296/1/453 295/1/390 290/1/389
f 233/1/346 275/1/140 274/1/388 268/1/454
f 464/1/328 481/1/387 473/1/386 466/1/455
f 393/1/134 395/1/311 386/1/339 384/1/338
f 265/1/361 298/1/119 168/1/112 256/1/231
f 208/1/377 209/1/378 120/1/393 200/1/456
f 184/1/174 212/1/173 211/1/452 206/1/457
f 286/1/30 287/1/33 279/1/211 285/1/210
f 310/1/63 311/1/193 288/1/406 303/1/325
f 499/1/458 518/1/459 506/1/188 500/1/460
f 302/1/324 303/1/325 295/1/390 296/1/453
f 196/1/461 200/1/456 113/1/136 192/1/462
f 556/1/463 575/1/464 576/1/465 573/1/466
f 117/1/220 141/1/299 133/1/286 111/1/221
f 328/1/467 329/1/200 179/1/199 324/1/278
f 82/1/144 90/1/126 89/1/125 83/1/45
f 405/1/468 469/1/469 411/1/470 406/1/471
f 492/1/472 509/1/473 499/1/458 493/1/440
f 255/1/359 256/1/231 177/1/163 254/1/353
f 470/1/434 491/1/474 485/1/475 478/1/269
f 515/1/476 523/1/477 522/1/374 518/1/459
f 362/1/478 397/1/479 356/1/480 355/1/481
f 551/1/482 552/1/483 544/1/297 545/1/296
f 456/1/270 457/1/313 451/1/312 455/1/271
f 485/1/475 503/1/484 492/1/472 486/1/414
f 274/1/388 289/1/391 267/1/405 268/1/454
f 286/1/30 308/1/168 301/1/31
f 260/1/430 261/1/485 269/1/486 264/1/487
f 476/1/488 491/1/474 470/1/434 469/1/469
f 293/1/165 308/1/168 286/1/30 285/1/210
f 116/1/489 148/1/425 147/1/277 140/1/279
f 158/1/285 163/1/266 156/1/398 150/1/490
f 92/1/448 101/1/491 97/1/123 90/1/126
f 113/1/136 200/1/456 120/1/393 114/1/137
f 189/1/317 219/1/392 183/1/175 175/1/340
f 506/1/188 507/1/191 474/1/419 500/1/460
f 576/1/465 584/1/248 583/1/492 582/1/402
f 413/1/493 419/1/363 420/1/214 231/1/213
f 241/1/427 268/1/454 267/1/405 259/1/412
f 202/1/362 201/1/494 193/1/261 194/1/354
f 187/1/260 188/1/291 194/1/354 193/1/261
f 358/1/85 359/1/349 344/1/264 351/1/495
f 240/1/426 304/1/364 218/1/450 232/1/367
f 145/1/289 182/1/290 146/1/257 139/1/276
f 497/1/496 503/1/484 485/1/475 491/1/474
f 321/1/294 325/1/293 314/1/421
f 36/1/70 46/1/99 42/1/497 37/1/71
f 423/1/449 425/1/209 390/1/332 418/1/395
f 241/1/427 242/1/428 235/1/498 234/1/345
f 142/1/162 169/1/164 135/1/255 136/1/196
f 529/1/376 531/1/499 513/1/190 524/1/189
f 326/1/292 331/1/370 325/1/293
f 260/1/430 264/1/487 253/1/145 252/1/78
f 409/1/500 421/1/501 403/1/502 402/1/503
f 401/1/133 419/1/363 413/1/493 204/1/243
f 423/1/449 458/1/504 454/1/417 452/1/418
f 204/1/243 414/1/505 224/1/368 189/1/317
f 417/1/394 458/1/504 423/1/449 418/1/395
f 172/1/198 338/1/506 166/1/267
f 172/1/198 330/1/197 338/1/506
f 253/1/145 254/1/353 177/1/163 247/1/146
f 347/1/507 361/1/508 354/1/403 348/1/281
f 98/1/307 99/1/150 92/1/448 91/1/355
f 454/1/417 458/1/504 460/1/268 455/1/271
f 417/1/394 463/1/435 460/1/268 458/1/504
f 85/1/43 94/1/155 93/1/177 87/1/131
f 338/1/506 330/1/197 343/1/509
f 396/1/350 203/1/242 195/1/244 201/1/494
f 235/1/498 227/1/510 226/1/304 234/1/345
f 366/1/154 367/1/228 360/1/320 359/1/349
f 112/1/203 186/1/373 106/1/444 104/1/182
f 80/1/122 105/1/139 88/1/138 81/1/121
f 146/1/257 182/1/290 152/1/305 123/1/258
f 343/1/509 351/1/495 344/1/264
f 343/1/509 350/1/511 351/1/495
f 130/1/407 154/1/433 115/1/432 122/1/408
f 175/1/340 180/1/336 174/1/323 159/1/318
f 411/1/470 463/1/435 417/1/394 412/1/397
f 411/1/470 412/1/397 372/1/431 406/1/471
f 411/1/470 469/1/469 470/1/434 463/1/435
f 380/1/512 406/1/471 372/1/431 371/1/330
f 284/1/513 480/1/514 479/1/178 472/1/446
f 249/1/515 261/1/485 260/1/430 250/1/429
f 118/1/259 123/1/258 95/1/157 87/1/131
f 605/1/516 607/1/517 599/1/518 598/1/519
f 405/1/468 406/1/471 380/1/512 404/1/520
f 319/1/185 293/1/165 285/1/210 271/1/186
f 46/1/99 52/1/94 47/1/76 42/1/497
f 363/1/83 389/1/521 380/1/512 371/1/330
f 358/1/85 364/1/84 359/1/349
f 359/1/349 364/1/84 365/1/331
f 377/1/229 386/1/339 385/1/252 376/1/230
f 175/1/340 176/1/263 190/1/262 189/1/317
f 336/1/282 349/1/404 330/1/197 329/1/200
f 388/1/288 394/1/287 396/1/350 210/1/369
f 448/1/239 332/1/352 325/1/293 331/1/370
f 410/1/522 477/1/523 405/1/468 404/1/520
f 567/1/524 564/1/525 551/1/482 563/1/526
f 366/1/154 373/1/416 374/1/151
f 373/1/416 372/1/431 374/1/151
f 140/1/279 141/1/299 117/1/220 116/1/489
f 109/1/527 116/1/489 117/1/220 110/1/219
f 375/1/153 377/1/229 367/1/228 366/1/154
f 226/1/304 227/1/510 221/1/57 220/1/60
f 178/1/48 378/1/254 138/1/273
f 106/1/444 192/1/462 113/1/136 105/1/139
f 476/1/488 498/1/528 497/1/496 491/1/474
f 467/1/441 468/1/422 332/1/352 462/1/351
f 222/1/169 223/1/148 107/1/147 217/1/383
f 323/1/356 333/1/358 318/1/61 317/1/64
f 374/1/151 381/1/396 382/1/152
f 375/1/153 382/1/152 383/1/529
f 382/1/152 381/1/396 383/1/529
f 155/1/284 173/1/322 172/1/198 166/1/267
f 135/1/255 162/1/115 130/1/407 129/1/124
f 156/1/398 157/1/310 151/1/303 150/1/490
f 429/1/206 452/1/418 451/1/312 446/1/308
f 378/1/254 387/1/253 138/1/273
f 138/1/273 388/1/288 210/1/369
f 138/1/273 387/1/253 388/1/288
f 108/1/194 136/1/196 97/1/123 101/1/491
f 383/1/529 390/1/332 391/1/335
f 399/1/333 426/1/217 407/1/132 400/1/135
f 384/1/338 391/1/335 392/1/334
f 313/1/167 321/1/294 314/1/421 309/1/202
f 100/1/149 230/1/201 108/1/194 101/1/491
f 237/1/128 239/1/195 108/1/194 230/1/201
f 134/1/237 158/1/285 150/1/490 143/1/234
f 115/1/432 148/1/425 116/1/489 109/1/527
f 196/1/461 214/1/321 208/1/377 200/1/456
f 297/1/530 445/1/531 307/1/532 299/1/533
f 398/1/534 404/1/520 380/1/512 389/1/521
f 392/1/334 399/1/333 400/1/135
f 139/1/276 146/1/257 124/1/256 132/1/274
f 398/1/534 416/1/535 410/1/522 404/1/520
f 473/1/386 609/1/385 605/1/516 604/1/536
f 556/1/463 562/1/537 541/1/538 549/1/539
f 619/1/540 616/1/541 501/1/180 618/1/179
f 343/1/509 344/1/264 166/1/267 338/1/506
f 410/1/522 484/1/542 483/1/543 477/1/523
f 485/1/475 486/1/414 456/1/270 478/1/269
f 508/1/343 509/1/473 492/1/472 503/1/484
f 362/1/478 402/1/503 403/1/502 397/1/479
f 191/1/372 199/1/161 196/1/461 192/1/462
f 362/1/478 355/1/481 354/1/403 361/1/508
f 111/1/221 93/1/177 102/1/176 110/1/219
f 204/1/243 413/1/493 414/1/505
f 414/1/505 231/1/213 224/1/368
f 414/1/505 413/1/493 231/1/213
f 184/1/174 206/1/457 185/1/371 181/1/337
f 505/1/544 498/1/528 483/1/543 504/1/545
f 318/1/61 326/1/292 322/1/275 316/1/62
f 211/1/452 290/1/389 205/1/143 206/1/457
f 401/1/133 407/1/132 419/1/363
f 547/1/546 554/1/547 553/1/548 550/1/549
f 93/1/177 119/1/222 118/1/259 87/1/131
f 521/1/550 523/1/477 515/1/476 517/1/342
f 422/1/551 416/1/535 403/1/502 421/1/501
f 381/1/396 418/1/395 390/1/332 383/1/529
f 218/1/450 296/1/453 211/1/452 212/1/173
f 551/1/482 564/1/525 558/1/552 552/1/483
f 368/1/47 170/1/46 360/1/320 367/1/228
f 133/1/286 134/1/237 126/1/223 111/1/221
f 356/1/480 397/1/479 398/1/534 389/1/521
f 489/1/553 504/1/545 483/1/543 484/1/542
f 312/1/554 324/1/278 147/1/277 160/1/424
f 328/1/467 324/1/278 312/1/554 327/1/555
f 594/1/556 600/1/557 597/1/558 583/1/492
f 237/1/128 246/1/80 245/1/79 239/1/195
f 511/1/559 504/1/545 489/1/553 510/1/560
f 422/1/551 490/1/561 489/1/553 484/1/542
f 505/1/544 527/1/562 516/1/341 512/1/344
f 153/1/423 154/1/433 161/1/114 160/1/424
f 130/1/407 162/1/115 161/1/114 154/1/433
f 312/1/554 160/1/424 161/1/114 306/1/113
f 502/1/563 591/1/564 587/1/365 585/1/565
f 497/1/496 512/1/344 508/1/343 503/1/484
f 532/1/566 534/1/567 516/1/341 527/1/562
f 473/1/386 604/1/536 443/1/568 466/1/455
f 516/1/341 534/1/567 521/1/550 517/1/342
f 526/1/569 533/1/570 511/1/559 510/1/560
f 257/1/204 273/1/187 266/1/251 258/1/413
f 78/1/44 85/1/43 79/1/130 77/1/120
f 354/1/403 355/1/481 350/1/511 349/1/404
f 525/1/571 585/1/565 581/1/249 575/1/464
f 532/1/566 540/1/572 539/1/573 534/1/567
f 515/1/476 518/1/459 499/1/458 509/1/473
f 511/1/559 533/1/570 532/1/566 527/1/562
f 305/1/118 306/1/113 168/1/112 298/1/119
f 305/1/118 327/1/555 312/1/554 306/1/113
f 496/1/574 510/1/560 489/1/553 490/1/561
f 46/1/99 67/1/103 62/1/95 52/1/94
f 305/1/118 334/1/117 335/1/575 327/1/555
f 589/1/247 594/1/556 583/1/492 584/1/248
f 431/1/207 438/1/309 433/1/226 432/1/306
f 342/1/280 334/1/117 300/1/116 341/1/576
f 372/1/431 412/1/397 381/1/396 374/1/151
f 300/1/116 298/1/119 265/1/361 299/1/533
f 310/1/63 316/1/62 315/1/192 311/1/193
f 499/1/458 500/1/460 467/1/441 493/1/440
f 522/1/374 524/1/189 506/1/188 518/1/459
f 492/1/472 493/1/440 461/1/415 486/1/414
f 483/1/543 498/1/528 476/1/488 477/1/523
f 120/1/393 121/1/245 98/1/307 114/1/137
f 347/1/507 348/1/281 342/1/280 341/1/576
f 127/1/224 137/1/236 131/1/272 125/1/225
f 356/1/480 357/1/86 350/1/511 355/1/481
f 521/1/550 542/1/577 528/1/578 523/1/477
f 528/1/578 530/1/375 522/1/374 523/1/477
f 185/1/371 206/1/457 205/1/143 197/1/142
f 262/1/232 283/1/579 255/1/359 254/1/353
f 347/1/507 369/1/580 370/1/581 361/1/508
f 370/1/581 402/1/503 362/1/478 361/1/508
f 535/1/295 538/1/298 520/1/582 531/1/499
f 529/1/376 536/1/410 535/1/295 531/1/499
f 328/1/467 337/1/283 336/1/282 329/1/200
f 240/1/426 339/1/357 323/1/356 304/1/364
f 370/1/581 408/1/583 409/1/500 402/1/503
f 307/1/532 369/1/580 347/1/507 341/1/576
f 307/1/532 341/1/576 300/1/116 299/1/533
f 236/1/314 244/1/584 243/1/127 238/1/129
f 150/1/490 151/1/303 144/1/235 143/1/234
f 528/1/578 550/1/549 537/1/409 530/1/375
f 427/1/585 490/1/561 422/1/551 421/1/501
f 539/1/573 542/1/577 521/1/550 534/1/567
f 297/1/530 299/1/533 265/1/361 292/1/360
f 436/1/436 437/1/439 415/1/586 435/1/587
f 427/1/585 495/1/588 496/1/574 490/1/561
f 502/1/563 519/1/589 496/1/574 495/1/588
f 379/1/590 408/1/583 370/1/581 369/1/580
f 307/1/532 445/1/531 379/1/590 369/1/580
f 379/1/590 445/1/531 440/1/591 435/1/587
f 291/1/592 292/1/360 255/1/359 283/1/579
f 543/1/593 545/1/296 535/1/295 536/1/410
f 335/1/575 337/1/283 328/1/467 327/1/555
f 422/1/551 484/1/542 410/1/522 416/1/535
f 519/1/589 526/1/569 510/1/560 496/1/574
f 379/1/590 435/1/587 415/1/586 408/1/583
f 409/1/500 428/1/594 427/1/585 421/1/501
f 282/1/326 283/1/579 262/1/232 276/1/53
f 467/1/441 500/1/460 474/1/419 468/1/422
f 218/1/450 304/1/364 302/1/324 296/1/453
f 297/1/530 453/1/595 440/1/591 445/1/531
f 415/1/586 437/1/439 434/1/596 428/1/594
f 403/1/502 416/1/535 398/1/534 397/1/479
f 277/1/52 465/1/327 282/1/326 276/1/53
f 79/1/130 86/1/156 80/1/122 77/1/120
f 440/1/591 453/1/595 450/1/597 444/1/598
f 291/1/592 459/1/329 450/1/597 453/1/595
f 415/1/586 428/1/594 409/1/500 408/1/583
f 440/1/591 444/1/598 436/1/436 435/1/587
f 505/1/544 512/1/344 497/1/496 498/1/528
f 284/1/513 472/1/446 277/1/52 278/1/51
f 282/1/326 459/1/329 291/1/592 283/1/579
f 450/1/597 466/1/455 443/1/568 444/1/598
f 233/1/346 268/1/454 241/1/427 234/1/345
f 464/1/328 466/1/455 450/1/597 459/1/329
f 525/1/571 549/1/539 526/1/569 519/1/589
f 434/1/596 495/1/588 427/1/585 428/1/594
f 434/1/596 591/1/564 502/1/563 495/1/588
f 436/1/436 444/1/598 443/1/568 442/1/437
f 191/1/372 192/1/462 106/1/444 186/1/373
f 277/1/52 472/1/446 471/1/445 465/1/327
f 471/1/445 481/1/387 464/1/328 465/1/327
f 539/1/573 548/1/316 547/1/546 542/1/577
f 591/1/564 434/1/596 437/1/439 441/1/438
f 574/1/90 569/1/93 568/1/599 572/1/600
f 243/1/127 250/1/429 251/1/77 246/1/80
f 89/1/125 122/1/408 84/1/42 83/1/45
f 471/1/445 494/1/181 488/1/384 481/1/387
f 508/1/343 517/1/342 515/1/476 509/1/473
f 443/1/568 604/1/536 449/1/601 442/1/437
f 532/1/566 533/1/570 541/1/538 540/1/572
f 441/1/438 592/1/366 587/1/365 591/1/564
f 501/1/180 614/1/442 488/1/384 494/1/181
f 342/1/280 337/1/283 335/1/575 334/1/117
f 487/1/602 618/1/179 479/1/178 480/1/514
f 449/1/601 598/1/519 593/1/347 592/1/366
f 405/1/468 477/1/523 476/1/488 469/1/469
f 288/1/406 311/1/193 280/1/184 281/1/205
f 605/1/516 598/1/519 449/1/601 604/1/536
f 579/1/603 580/1/604 574/1/90 572/1/600
f 487/1/602 621/1/605 619/1/540 618/1/179
f 605/1/516 609/1/385 610/1/443 607/1/517
f 332/1/352 468/1/422 314/1/421 325/1/293
f 210/1/369 396/1/350 201/1/494 202/1/362
f 593/1/347 598/1/519 599/1/518 596/1/348
f 502/1/563 585/1/565 525/1/571 519/1/589
f 587/1/365 588/1/250 581/1/249 585/1/565
f 619/1/540 621/1/605 622/1/606 620/1/607
f 553/1/548 561/1/608 560/1/609 557/1/610
f 610/1/443 611/1/611 606/1/612 607/1/517
f 501/1/180 616/1/541 613/1/613 614/1/442
f 610/1/443 614/1/442 613/1/613 611/1/611
f 612/1/614 608/1/615 606/1/612 611/1/611
f 559/1/616 570/1/617 565/1/618 561/1/608
f 560/1/609 563/1/526 543/1/593 557/1/610
f 619/1/540 620/1/607 617/1/619 616/1/541
f 350/1/511 343/1/509 330/1/197 349/1/404
f 100/1/149 101/1/491 92/1/448 99/1/150
f 193/1/261 201/1/494 195/1/244 190/1/262
f 589/1/247 596/1/348 595/1/381 594/1/556
f 599/1/518 601/1/382 595/1/381 596/1/348
f 581/1/249 584/1/248 576/1/465 575/1/464
f 205/1/143 290/1/389 274/1/388 275/1/140
f 613/1/613 615/1/620 612/1/614 611/1/611
f 249/1/515 250/1/429 243/1/127 244/1/584
f 595/1/381 603/1/380 600/1/557 594/1/556
f 513/1/190 531/1/499 520/1/582 514/1/451
f 525/1/571 575/1/464 556/1/463 549/1/539
f 198/1/141 199/1/161 191/1/372 197/1/142
f 576/1/465 582/1/402 571/1/401 573/1/466
f 526/1/569 549/1/539 541/1/538 533/1/570
f 546/1/315 548/1/316 539/1/573 540/1/572
f 556/1/463 573/1/466 568/1/599 562/1/537
f 568/1/599 573/1/466 571/1/401 572/1/600
f 583/1/492 597/1/558 590/1/399 582/1/402
f 97/1/123 136/1/196 135/1/255 129/1/124
f 449/1/601 592/1/366 441/1/438 442/1/437
f 356/1/480 389/1/521 363/1/83 357/1/86
f 541/1/538 562/1/537 546/1/315 540/1/572
f 568/1/599 569/1/93 546/1/315 562/1/537
f 358/1/85 351/1/495 350/1/511 357/1/86
f 207/1/160 214/1/321 196/1/461 199/1/161
f 617/1/619 615/1/620 613/1/613 616/1/541
f 571/1/401 586/1/400 579/1/603 572/1/600
f 383/1/529 391/1/335 384/1/338 375/1/153
f 574/1/90 580/1/604 578/1/621 577/1/91
f 555/1/92 554/1/547 547/1/546 548/1/316
f 291/1/592 453/1/595 297/1/530 292/1/360
f 547/1/546 550/1/549 528/1/578 542/1/577
f 578/1/621 570/1/617 559/1/616 577/1/91
f 555/1/92 577/1/91 559/1/616 554/1/547
f 553/1/548 557/1/610 537/1/409 550/1/549
f 559/1/616 561/1/608 553/1/548 554/1/547
f 109/1/527 110/1/219 102/1/176 84/1/42
f 565/1/618 566/1/622 560/1/609 561/1/608
f 606/1/612 608/1/615 602/1/379 601/1/382
f 599/1/518 607/1/517 606/1/612 601/1/382
f 567/1/524 563/1/526 560/1/609 566/1/622
f 84/1/42 122/1/408 115/1/432 109/1/527
f 543/1/593 563/1/526 551/1/482 545/1/296
f 149/1/300 155/1/284 133/1/286 141/1/299
f 537/1/409 557/1/610 543/1/593 536/1/410
f 511/1/559 527/1/562 505/1/544 504/1/545
