# Blender 4.3.2
# www.blender.org
o hair.026
v 7.965173 0.849061 0.020885
v 7.963515 0.849685 0.021365
v 7.961093 0.850795 0.017119
v 7.969567 0.847795 0.024958
v 7.959240 0.851278 0.018587
v 7.957666 0.853333 0.013769
v 7.954602 0.854538 0.015912
v 7.954926 0.856540 0.010517
v 7.960500 0.851551 0.022458
v 7.955286 0.854927 0.020886
v 7.967817 0.851846 0.025964
v 7.964231 0.851053 0.025475
v 7.951223 0.859152 0.019346
v 7.951212 0.859323 0.013373
v 7.952628 0.860118 0.007604
v 7.960098 0.855234 0.025680
v 7.957696 0.859327 0.025097
v 7.966195 0.855882 0.026755
v 7.948960 0.863493 0.018166
v 7.955841 0.863730 0.024338
v 7.950848 0.865101 0.004695
v 7.949412 0.863928 0.011369
v 7.964823 0.859900 0.027110
v 7.963705 0.863928 0.027007
v 7.954664 0.868047 0.023384
v 7.947875 0.868035 0.016998
v 7.948409 0.868772 0.009635
v 7.950346 0.868960 0.003145
v 7.962843 0.867992 0.026425
v 7.962178 0.872239 0.025610
v 7.954061 0.872300 0.022347
v 7.947774 0.872214 0.015908
v 7.948468 0.873209 0.008411
v 7.950484 0.874371 0.001937
v 7.961650 0.876817 0.024808
v 7.954036 0.876658 0.021256
v 7.948519 0.876552 0.015190
v 7.948945 0.876740 0.008078
v 7.950573 0.876823 0.001474
v 7.951526 0.876009 -0.005092
v 7.951668 0.872211 -0.004665
v 7.954326 0.868060 -0.002783
v 7.961277 0.881668 0.024055
v 7.954579 0.881349 0.020080
v 7.949769 0.881028 0.014507
v 7.949749 0.880739 0.007735
v 7.950721 0.880595 0.001127
v 7.954916 0.865834 -0.010119
v 7.953247 0.870503 -0.011168
v 7.958414 0.862053 -0.007548
v 7.961085 0.886743 0.023559
v 7.955493 0.886240 0.019108
v 7.951211 0.885892 0.013910
v 7.950736 0.885529 0.007354
v 7.951462 0.885308 0.000780
v 7.952868 0.885000 -0.005561
v 7.952063 0.880191 -0.005361
v 7.960075 0.859456 -0.014827
v 7.963579 0.856653 -0.012403
v 7.961461 0.892157 0.023317
v 7.956285 0.891715 0.018710
v 7.952877 0.891246 0.013492
v 7.951876 0.890916 0.007120
v 7.952294 0.890653 0.000552
v 7.954018 0.879680 -0.011805
v 7.953198 0.874940 -0.011621
v 7.966083 0.854029 -0.018781
v 7.968447 0.852535 -0.016398
v 7.957175 0.897633 0.018568
v 7.961997 0.898051 0.023167
v 7.954221 0.897251 0.013449
v 7.952914 0.896773 0.007152
v 7.956167 0.874297 -0.018072
v 7.956295 0.869339 -0.017732
v 7.957747 0.863999 -0.016671
v 7.972416 0.850492 -0.018579
v 7.962616 0.904085 0.022993
v 7.955417 0.903311 0.013543
v 7.958125 0.903759 0.018610
v 7.960566 0.868657 -0.023277
v 7.961629 0.862893 -0.021868
v 7.963494 0.857647 -0.020197
v 7.970146 0.852756 -0.021777
v 7.976656 0.849353 -0.019732
v 7.962992 0.909039 0.022849
v 7.959260 0.909580 0.018749
v 7.966681 0.862165 -0.026604
v 7.968064 0.856636 -0.024438
v 7.974766 0.852033 -0.024040
v 7.973356 0.856130 -0.027504
v 7.979705 0.851560 -0.025531
v 7.980677 0.848661 -0.020642
v 7.964052 0.915374 0.023773
v 7.960471 0.914982 0.018788
v 7.956569 0.909079 0.013570
v 7.957702 0.914405 0.013416
v 7.972462 0.861741 -0.030035
v 7.978564 0.861487 -0.032079
v 7.978999 0.855823 -0.029408
v 7.984832 0.848396 -0.021036
v 7.961727 0.920010 0.018502
v 7.965533 0.921188 0.024968
v 7.954880 0.908418 0.007301
v 7.953900 0.902736 0.007272
v 7.972043 0.867688 -0.031543
v 7.984832 0.855720 -0.030072
v 7.989960 0.851560 -0.025531
v 7.988987 0.848661 -0.020642
v 7.984832 0.851387 -0.026092
v 7.953743 0.902117 0.000667
v 7.953042 0.896342 0.000559
v 7.965965 0.868115 -0.028049
v 7.993009 0.849353 -0.019732
v 7.954351 0.895884 -0.005546
v 7.954885 0.901573 -0.005382
v 7.954438 0.907719 0.000742
v 7.955285 0.907153 -0.005257
v 7.953679 0.890286 -0.005640
v 7.965857 0.873330 -0.028570
v 7.960374 0.873837 -0.023906
v 7.956918 0.901068 -0.011091
v 7.955334 0.913017 0.000752
v 7.955995 0.913702 0.007165
v 7.955842 0.889856 -0.011649
v 7.954957 0.884628 -0.011803
v 7.960807 0.878749 -0.023976
v 7.956831 0.879216 -0.018202
v 7.957178 0.918516 0.006835
v 7.958790 0.919230 0.012984
v 7.957748 0.884202 -0.018052
v 7.961614 0.883744 -0.023726
v 7.966877 0.883288 -0.028153
v 7.966209 0.878238 -0.028492
v 7.966415 0.925240 0.022747
v 7.962979 0.924166 0.017739
v 7.960114 0.923480 0.012182
v 7.958618 0.889390 -0.017690
v 7.962389 0.888938 -0.023233
v 7.972331 0.877793 -0.031794
v 7.972036 0.872883 -0.031988
v 7.967910 0.922357 0.028944
v 7.966317 0.918975 0.029196
v 7.964651 0.927691 0.016072
v 7.956492 0.895407 -0.011369
v 7.959144 0.894910 -0.017174
v 7.978383 0.872604 -0.034120
v 7.978372 0.867423 -0.033610
v 7.964170 0.912372 0.028918
v 7.965163 0.916019 0.029078
v 7.984832 0.867332 -0.034286
v 7.984832 0.872506 -0.034866
v 7.984832 0.877421 -0.034799
v 7.978541 0.877517 -0.033981
v 7.984832 0.861404 -0.032756
v 7.967978 0.916208 0.033374
v 7.963287 0.908886 0.028223
v 7.962054 0.904872 0.022990
v 7.991282 0.872604 -0.034120
v 7.978794 0.882668 -0.033566
v 7.972816 0.882907 -0.031394
v 7.991100 0.861487 -0.032079
v 7.990665 0.855823 -0.029408
v 7.969268 0.919438 0.033132
v 7.962432 0.905219 0.027201
v 7.960420 0.896900 0.023530
v 7.967479 0.888559 -0.027650
v 7.973218 0.888272 -0.030899
v 7.991292 0.867423 -0.033610
v 7.996309 0.856130 -0.027504
v 7.994898 0.852033 -0.024040
v 7.962735 0.894466 -0.022569
v 7.967644 0.894149 -0.027071
v 7.997622 0.867688 -0.031543
v 7.999519 0.852756 -0.021777
v 7.997249 0.850492 -0.018579
v 7.962925 0.900108 -0.022046
v 7.959460 0.900554 -0.016741
v 7.973263 0.893934 -0.030415
v 7.973221 0.899614 -0.030055
v 7.967690 0.899809 -0.026636
v 7.997203 0.861741 -0.030035
v 8.003581 0.854029 -0.018781
v 8.001218 0.852535 -0.016398
v 7.959699 0.906118 -0.016637
v 7.957130 0.906647 -0.010948
v 7.979015 0.893794 -0.032367
v 7.979001 0.888087 -0.032991
v 7.967930 0.905293 -0.026559
v 8.002984 0.862165 -0.026604
v 8.006085 0.856653 -0.012403
v 7.957592 0.911994 -0.010832
v 7.955921 0.912480 -0.005162
v 7.984832 0.888020 -0.033749
v 7.984832 0.882583 -0.034389
v 7.963229 0.905641 -0.021977
v 8.009589 0.859456 -0.014827
v 8.011251 0.862053 -0.007548
v 7.957162 0.917356 -0.005083
v 7.956667 0.917862 0.000665
v 7.990870 0.882668 -0.033566
v 7.991124 0.877517 -0.033981
v 7.963834 0.910969 -0.021913
v 8.014749 0.865834 -0.010119
v 8.015339 0.868060 -0.002783
v 8.006170 0.857647 -0.020197
v 7.958342 0.922082 0.000436
v 7.958682 0.922746 0.006271
v 7.997334 0.877793 -0.031794
v 7.997628 0.872883 -0.031988
v 8.017997 0.872211 -0.004665
v 8.019180 0.874371 0.001937
v 8.001600 0.856636 -0.024438
v 7.962122 0.926888 0.010889
v 7.960872 0.926117 0.005442
v 8.003808 0.873330 -0.028570
v 8.003699 0.868115 -0.028049
v 8.018139 0.876009 -0.005092
v 8.016418 0.870503 -0.011168
v 8.008035 0.862893 -0.021868
v 7.964226 0.929726 0.009414
v 8.009099 0.868657 -0.023277
v 8.011918 0.863999 -0.016671
v 8.013498 0.874297 -0.018072
v 8.016466 0.874940 -0.011621
v 8.013370 0.869339 -0.017732
v 8.009291 0.873837 -0.023906
v 8.008858 0.878749 -0.023976
v 8.012834 0.879216 -0.018202
v 8.015647 0.879680 -0.011805
v 8.003455 0.878238 -0.028492
v 8.011916 0.884202 -0.018052
v 8.008051 0.883744 -0.023726
v 8.002788 0.883288 -0.028153
v 8.014708 0.884628 -0.011803
v 8.016797 0.885000 -0.005561
v 8.017602 0.880191 -0.005361
v 8.018944 0.880595 0.001127
v 8.019092 0.876823 0.001474
v 7.996848 0.882907 -0.031394
v 8.007277 0.888938 -0.023233
v 8.002186 0.888559 -0.027650
v 7.996446 0.888272 -0.030899
v 8.013824 0.889856 -0.011649
v 8.020720 0.876740 0.008078
v 8.021196 0.873209 0.008411
v 8.019319 0.868960 0.003145
v 7.990664 0.888087 -0.032991
v 8.002020 0.894149 -0.027071
v 7.996401 0.893934 -0.030415
v 7.990650 0.893794 -0.032367
v 8.021891 0.872214 0.015908
v 8.021255 0.868772 0.009635
v 8.018817 0.865101 0.004695
v 7.984832 0.893742 -0.032995
v 7.996444 0.899614 -0.030055
v 7.984832 0.899425 -0.032365
v 7.990682 0.899478 -0.031866
v 8.021791 0.868035 0.016998
v 8.020705 0.863493 0.018166
v 8.020252 0.863928 0.011369
v 8.018453 0.859323 0.013373
v 8.017037 0.860118 0.007604
v 7.978983 0.899478 -0.031866
v 7.990614 0.904859 -0.031656
v 7.984832 0.904783 -0.032098
v 7.979050 0.904859 -0.031656
v 8.015000 0.868047 0.023384
v 8.014738 0.856540 0.010517
v 8.018441 0.859152 0.019346
v 8.015062 0.854538 0.015912
v 7.973359 0.905044 -0.029935
v 7.984832 0.909915 -0.031781
v 7.979230 0.910012 -0.031337
v 7.973717 0.910248 -0.029652
v 8.011998 0.853333 0.013769
v 8.013824 0.863730 0.024338
v 8.011969 0.859327 0.025097
v 8.014379 0.854927 0.020886
v 8.010424 0.851278 0.018587
v 7.968455 0.910564 -0.026392
v 7.979541 0.914946 -0.030506
v 7.969352 0.915515 -0.025682
v 7.974336 0.915184 -0.028803
v 8.008572 0.850795 0.017119
v 8.009566 0.855234 0.025680
v 8.009164 0.851551 0.022458
v 8.005970 0.849692 0.021363
v 7.975089 0.919495 -0.027550
v 7.970465 0.919805 -0.024612
v 7.966330 0.920194 -0.020610
v 7.964924 0.915924 -0.021402
v 8.004492 0.849061 0.020885
v 8.005434 0.851053 0.025475
v 8.000097 0.847795 0.024958
v 7.971642 0.923122 -0.023366
v 7.979915 0.919288 -0.029251
v 7.975848 0.922844 -0.026053
v 7.980284 0.922669 -0.027662
v 7.961374 0.916397 -0.016221
v 8.003469 0.855882 0.026755
v 8.001847 0.851846 0.025964
v 7.984832 0.919210 -0.029789
v 7.984832 0.914852 -0.030998
v 7.976650 0.925592 -0.024399
v 7.960219 0.911468 -0.016564
v 8.004842 0.859900 0.027110
v 7.990123 0.914946 -0.030506
v 7.990434 0.910012 -0.031337
v 8.005960 0.863928 0.027007
v 7.995948 0.910248 -0.029652
v 7.995328 0.915184 -0.028803
v 7.989749 0.919288 -0.029251
v 7.994576 0.919495 -0.027550
v 7.996306 0.905044 -0.029935
v 7.958768 0.916889 -0.010629
v 8.006822 0.867992 0.026425
v 8.000313 0.915515 -0.025682
v 7.989381 0.922669 -0.027662
v 7.984832 0.922607 -0.028196
v 8.001734 0.905293 -0.026559
v 8.001974 0.899809 -0.026636
v 7.960462 0.921109 -0.010401
v 8.007486 0.872239 0.025610
v 7.984832 0.925378 -0.026353
v 7.980677 0.925434 -0.025860
v 8.001209 0.910564 -0.026392
v 8.006740 0.900108 -0.022046
v 8.006930 0.894466 -0.022569
v 7.962966 0.920636 -0.015722
v 7.981170 0.927781 -0.023733
v 8.005831 0.910969 -0.021913
v 8.010520 0.894910 -0.017174
v 8.011046 0.889390 -0.017690
v 7.964795 0.923950 -0.015185
v 7.967885 0.923495 -0.019706
v 8.006435 0.905641 -0.021977
v 7.958899 0.921589 -0.005075
v 7.962474 0.924458 -0.010217
v 7.961014 0.924994 -0.005191
v 7.969533 0.926197 -0.018692
v 7.972882 0.925841 -0.021991
v 8.009965 0.906118 -0.016637
v 8.010204 0.900554 -0.016741
v 7.964663 0.927218 -0.009988
v 7.974319 0.928170 -0.020349
v 7.977623 0.927943 -0.022462
v 8.012747 0.901068 -0.011091
v 8.013172 0.895407 -0.011369
v 7.960445 0.925549 0.000003
v 7.966761 0.926669 -0.014566
v 7.978575 0.930131 -0.020293
v 8.015314 0.895884 -0.005546
v 8.015986 0.890286 -0.005640
v 7.963128 0.928962 0.004501
v 7.962770 0.928430 -0.000495
v 7.963331 0.927809 -0.005311
v 7.968942 0.928947 -0.013697
v 7.971384 0.928495 -0.017418
v 8.017370 0.890653 0.000552
v 8.018203 0.885308 0.000780
v 7.965472 0.931330 0.003542
v 7.965349 0.930718 -0.000884
v 7.965876 0.930096 -0.005248
v 7.967078 0.929492 -0.009529
v 7.973160 0.930621 -0.015896
v 7.975707 0.930337 -0.018461
v 8.018929 0.885529 0.007354
v 8.020046 0.880761 0.007723
v 7.967898 0.932651 -0.001200
v 7.969419 0.931521 -0.008916
v 7.968363 0.932084 -0.005077
v 7.977071 0.932269 -0.016052
v 8.019896 0.881028 0.014507
v 8.021145 0.876552 0.015190
v 7.971074 0.933742 -0.004724
v 7.971040 0.931025 -0.012618
v 7.971764 0.933236 -0.008056
v 7.973125 0.932836 -0.011169
v 8.015629 0.876658 0.021256
v 8.015603 0.872300 0.022347
v 7.974141 0.934633 -0.007066
v 7.974915 0.932507 -0.013895
v 7.976683 0.934102 -0.011666
v 7.975230 0.934345 -0.009529
v 7.973467 0.934955 -0.004354
v 7.977860 0.935695 -0.007518
v 7.977079 0.935887 -0.005762
v 7.976604 0.936099 -0.003814
v 7.978444 0.933916 -0.013397
v 7.978907 0.935530 -0.009040
v 7.980183 0.935398 -0.010289
v 7.979504 0.932084 -0.017605
v 7.980441 0.933762 -0.014667
v 8.008014 0.876817 0.024808
v 7.973189 0.935342 -0.001595
v 7.981720 0.936908 -0.005721
v 7.982122 0.931915 -0.018518
v 7.981655 0.929960 -0.021377
v 8.015085 0.881349 0.020080
v 8.008387 0.881668 0.024055
v 7.970717 0.934195 -0.001421
v 7.984832 0.929884 -0.021731
v 7.984832 0.927716 -0.024158
v 8.014172 0.886240 0.019108
v 8.008589 0.886735 0.023555
v 8.018453 0.885892 0.013910
v 7.970873 0.934605 0.001752
v 7.968064 0.933161 0.002613
v 7.988495 0.927781 -0.023733
v 7.988988 0.925434 -0.025860
v 8.008302 0.892157 0.023317
v 8.016788 0.891246 0.013492
v 8.017789 0.890916 0.007120
v 7.966451 0.931975 0.007894
v 7.968923 0.933652 0.006353
v 7.993015 0.925592 -0.024399
v 7.993816 0.922844 -0.026053
v 8.012557 0.897632 0.018571
v 8.007919 0.898051 0.023167
v 8.013379 0.891715 0.018710
v 8.016750 0.896773 0.007152
v 8.016623 0.896342 0.000559
v 7.998023 0.923122 -0.023366
v 7.999199 0.919805 -0.024612
v 8.007306 0.904170 0.022975
v 8.015934 0.902116 0.000683
v 8.014780 0.901573 -0.005382
v 8.003335 0.920194 -0.020610
v 8.004741 0.915924 -0.021402
v 8.011563 0.903809 0.018647
v 8.010204 0.909773 0.018884
v 8.006151 0.910264 0.023137
v 8.015490 0.897184 0.013435
v 8.014380 0.907153 -0.005257
v 8.012535 0.906647 -0.010948
v 8.008290 0.916397 -0.016221
v 8.009446 0.911468 -0.016564
v 8.014364 0.903325 0.013553
v 8.004169 0.916103 0.024002
v 8.015786 0.902732 0.007264
v 8.012073 0.911994 -0.010832
v 8.006699 0.920636 -0.015722
v 8.009203 0.921109 -0.010401
v 8.010896 0.916889 -0.010629
v 8.013119 0.909136 0.013607
v 8.014785 0.908418 0.007301
v 8.015226 0.907719 0.000742
v 8.013744 0.912480 -0.005162
v 8.012503 0.917356 -0.005083
v 8.004869 0.923950 -0.015185
v 8.001780 0.923495 -0.019706
v 8.011767 0.914520 0.013515
v 8.008559 0.915373 0.019168
v 8.014331 0.913017 0.000752
v 8.013699 0.913698 0.007185
v 8.000131 0.926197 -0.018692
v 7.996782 0.925841 -0.021991
v 8.006707 0.920466 0.019382
v 8.010323 0.919387 0.013195
v 8.012392 0.918442 0.006871
v 8.001764 0.921459 0.025050
v 8.013029 0.917853 0.000669
v 7.995346 0.928170 -0.020349
v 7.992041 0.927943 -0.022462
v 8.008615 0.923523 0.012386
v 8.004889 0.924731 0.018717
v 8.011323 0.922082 0.000436
v 8.010799 0.922602 0.006317
v 7.999146 0.926573 0.026188
v 8.010766 0.921589 -0.005075
v 7.991089 0.930131 -0.020293
v 7.988010 0.929960 -0.021377
v 8.003908 0.928056 0.016722
v 8.008860 0.926120 0.005486
v 8.007081 0.926959 0.011065
v 8.007191 0.924458 -0.010217
v 8.008650 0.924994 -0.005191
v 7.987542 0.931915 -0.018518
v 7.984832 0.931856 -0.018828
v 8.005346 0.929740 0.009464
v 8.002903 0.926669 -0.014566
v 8.005002 0.927218 -0.009988
v 8.006333 0.927809 -0.005311
v 8.006894 0.928430 -0.000495
v 8.009219 0.925549 0.000003
v 7.984832 0.933565 -0.015670
v 7.982597 0.933614 -0.015415
v 8.000723 0.928947 -0.013697
v 7.998281 0.928495 -0.017418
v 8.003789 0.930096 -0.005248
v 8.002586 0.929492 -0.009529
v 7.983203 0.935194 -0.011765
v 7.981632 0.935290 -0.011214
v 7.996505 0.930621 -0.015896
v 7.998624 0.931025 -0.012618
v 8.000246 0.931521 -0.008916
v 7.993958 0.930337 -0.018461
v 8.006673 0.929070 0.004511
v 7.983149 0.936776 -0.006866
v 7.982383 0.936826 -0.006428
v 7.996539 0.932836 -0.011169
v 7.992593 0.932269 -0.016052
v 7.990160 0.932084 -0.017605
v 8.004148 0.931321 0.003530
v 8.004315 0.930718 -0.000884
v 7.984832 0.937778 -0.002084
v 7.983973 0.936735 -0.007216
v 7.981164 0.936995 -0.004967
v 7.989224 0.933762 -0.014667
v 7.987067 0.933614 -0.015415
v 7.994750 0.932507 -0.013895
v 7.984832 0.936738 -0.007267
v 7.984832 0.935181 -0.011960
v 7.980763 0.937107 -0.004003
v 7.986462 0.935194 -0.011765
v 7.992982 0.934102 -0.011666
v 7.991221 0.933916 -0.013397
v 7.985692 0.936735 -0.007216
v 7.980505 0.937218 -0.003043
v 7.988032 0.935290 -0.011214
v 7.986516 0.936776 -0.006866
v 7.989482 0.935398 -0.010289
v 7.980427 0.937343 -0.001961
v 7.976424 0.936353 -0.001814
v 7.987282 0.936826 -0.006428
v 7.987945 0.936908 -0.005721
v 7.990757 0.935530 -0.009040
v 7.976570 0.936579 0.000113
v 7.980499 0.937458 -0.000975
v 7.973319 0.935673 0.000865
v 7.991804 0.935695 -0.007518
v 7.988500 0.936995 -0.004967
v 7.994434 0.934345 -0.009529
v 7.980700 0.937567 -0.000027
v 7.977022 0.936822 0.001943
v 7.973942 0.935977 0.003446
v 7.971597 0.935003 0.004838
v 7.988901 0.937107 -0.004003
v 7.995524 0.934633 -0.007066
v 7.992585 0.935887 -0.005762
v 7.997901 0.933236 -0.008056
v 7.977776 0.937031 0.003684
v 7.981153 0.937677 0.000921
v 7.972948 0.935416 0.007879
v 7.975069 0.936332 0.005997
v 7.993061 0.936099 -0.003814
v 7.989160 0.937218 -0.003043
v 7.998609 0.933742 -0.004724
v 7.996198 0.934955 -0.004354
v 8.001302 0.932084 -0.005077
v 7.981701 0.937772 0.001745
v 7.976592 0.936582 0.008220
v 7.989237 0.937343 -0.001961
v 7.993240 0.936353 -0.001814
v 7.996475 0.935342 -0.001595
v 7.998966 0.934195 -0.001421
v 8.001766 0.932651 -0.001200
v 7.993095 0.936579 0.000113
v 7.989166 0.937458 -0.000975
v 7.998810 0.934605 0.001752
v 7.996346 0.935673 0.000865
v 8.001619 0.933162 0.002612
v 7.988965 0.937567 -0.000027
v 7.992642 0.936822 0.001943
v 7.995723 0.935977 0.003446
v 7.998092 0.935019 0.004839
v 8.000772 0.933676 0.006355
v 8.003243 0.931987 0.007897
v 7.991889 0.937030 0.003672
v 7.988511 0.937677 0.000921
v 7.996761 0.935481 0.007889
v 7.994596 0.936332 0.005997
v 8.001289 0.932699 0.012065
v 7.999137 0.934247 0.010046
v 8.002929 0.930622 0.014197
v 7.987964 0.937772 0.001745
v 7.990829 0.937204 0.005177
v 7.993073 0.936582 0.008220
v 7.994933 0.935881 0.010581
v 7.996905 0.934744 0.013284
v 7.998657 0.933330 0.015735
v 7.999945 0.931586 0.018472
v 8.000247 0.929202 0.021831
v 7.989532 0.937350 0.006441
v 7.987288 0.937846 0.002383
v 7.992731 0.936103 0.012584
v 7.991416 0.936744 0.010004
v 7.995653 0.933741 0.018598
v 7.994271 0.935033 0.015662
v 7.996690 0.929761 0.025542
v 7.996625 0.932115 0.021817
v 7.993611 0.922910 0.032540
v 7.996604 0.922471 0.029204
v 7.995783 0.926678 0.029343
v 7.986492 0.937900 0.002843
v 7.989351 0.936828 0.011281
v 7.991327 0.935207 0.017298
v 7.992983 0.932437 0.024228
v 7.992310 0.933998 0.020639
v 7.994008 0.918667 0.031682
v 7.992033 0.926920 0.031776
v 7.989745 0.923265 0.034831
v 7.988654 0.934173 0.021854
v 7.988146 0.935360 0.018321
v 7.987599 0.936373 0.014865
v 7.990257 0.936237 0.013982
v 7.987630 0.915610 0.035985
v 7.991303 0.915459 0.033080
v 7.990702 0.919052 0.034856
v 7.985193 0.923517 0.036022
v 7.986713 0.919474 0.036929
v 7.984833 0.935427 0.018684
v 7.988097 0.912447 0.033660
v 7.983544 0.915953 0.037777
v 7.979456 0.916214 0.038413
v 7.982342 0.919770 0.037836
v 7.987072 0.936935 0.012071
v 7.986475 0.937526 0.007955
v 7.988060 0.937454 0.007337
v 7.984255 0.912359 0.036175
v 7.980418 0.909039 0.035692
v 7.983999 0.909232 0.033679
v 7.980242 0.912589 0.037621
v 7.977887 0.919902 0.037553
v 7.984832 0.936944 0.012377
v 7.984840 0.936441 0.015179
v 7.979374 0.906066 0.033048
v 7.976558 0.912780 0.037979
v 7.976805 0.909230 0.036718
v 7.973670 0.909366 0.036780
v 7.982080 0.936372 0.014865
v 7.984812 0.934226 0.022268
v 7.980919 0.934118 0.021902
v 7.981505 0.935345 0.018333
v 7.985693 0.937938 0.003171
v 7.973092 0.912895 0.037299
v 7.973394 0.906116 0.035246
v 7.984554 0.932658 0.026063
v 7.988896 0.932625 0.025619
v 7.978318 0.935160 0.017309
v 7.984832 0.937955 0.003323
v 7.984832 0.937556 0.008154
v 7.976322 0.905850 0.034555
v 7.988586 0.930175 0.029531
v 7.992988 0.930004 0.028068
v 7.983972 0.937938 0.003171
v 7.983190 0.937515 0.007860
v 7.982593 0.936935 0.012071
v 7.972176 0.903023 0.032787
v 7.974588 0.903206 0.031674
v 7.983172 0.937900 0.002843
v 7.980308 0.936828 0.011297
v 7.981605 0.937456 0.007349
v 7.982377 0.937846 0.002383
v 7.969776 0.900691 0.029580
v 7.987455 0.927104 0.033181
v 7.980133 0.937352 0.006453
v 7.978836 0.937206 0.005189
v 7.979425 0.936219 0.013978
v 7.965414 0.898949 0.028499
v 7.965071 0.898562 0.026788
v 7.968390 0.900685 0.030676
v 7.982499 0.927129 0.033489
v 7.980376 0.923595 0.036052
v 7.976972 0.936037 0.012570
v 7.966917 0.901511 0.031202
v 7.963953 0.899619 0.028484
v 7.970135 0.903519 0.033391
v 7.975659 0.923468 0.034871
v 7.978334 0.936744 0.010046
v 7.962284 0.901689 0.027733
v 7.964461 0.902273 0.030094
v 7.967048 0.903375 0.032394
v 7.969179 0.904306 0.033843
v 7.971110 0.906395 0.035257
v 7.963761 0.905545 0.030231
v 7.965152 0.909372 0.031772
v 7.966063 0.905842 0.032372
v 7.968665 0.906199 0.034180
v 7.970768 0.909421 0.035935
v 7.974786 0.935783 0.010561
v 7.972828 0.934593 0.013254
v 7.975416 0.934920 0.015649
v 7.966644 0.912876 0.032903
v 7.967838 0.909395 0.034299
v 7.970587 0.934150 0.010028
v 7.973945 0.933618 0.018626
v 7.971038 0.933217 0.015724
v 7.968424 0.932636 0.012052
v 7.977216 0.933898 0.020704
v 7.969707 0.912929 0.035676
v 7.969259 0.931415 0.018224
v 7.972400 0.931903 0.021665
v 7.975962 0.932242 0.024211
v 7.966475 0.930530 0.014031
v 7.980132 0.932512 0.025637
v 7.971627 0.916400 0.036305
v 7.970834 0.929228 0.024737
v 7.974544 0.929666 0.027655
v 7.979023 0.930002 0.029368
v 7.983837 0.930189 0.029960
v 7.975460 0.916361 0.037907
v 7.973609 0.919872 0.036077
v 7.971184 0.923178 0.032450
v 7.973079 0.926656 0.030665
v 7.967628 0.928608 0.020826
v 7.969619 0.926220 0.027456
v 7.977540 0.926936 0.032639
v 7.961093 0.850795 0.017119
v 7.964582 0.852816 0.015289
v 7.965173 0.849061 0.020885
v 7.957666 0.853333 0.013769
v 7.967879 0.855323 0.014153
v 7.968994 0.851333 0.018830
v 7.961068 0.855769 0.011403
v 7.969567 0.847795 0.024958
v 7.954926 0.856540 0.010517
v 7.970988 0.852952 0.020919
v 7.959331 0.859193 0.008237
v 7.964982 0.859473 0.009529
v 7.971719 0.856380 0.018648
v 7.968224 0.859573 0.011523
v 7.969962 0.852510 0.024025
v 7.967817 0.851846 0.025964
v 7.952628 0.860118 0.007604
v 7.950848 0.865101 0.004695
v 7.957438 0.863547 0.005051
v 7.963283 0.863558 0.006461
v 7.972016 0.859688 0.016629
v 7.969453 0.860529 0.022448
v 7.969843 0.856821 0.023344
v 7.968040 0.864011 0.009250
v 7.966195 0.855882 0.026755
v 7.950346 0.868960 0.003145
v 7.956486 0.868473 0.003063
v 7.962131 0.868243 0.004626
v 7.967517 0.868131 0.007669
v 7.972057 0.863812 0.014450
v 7.964823 0.859900 0.027110
v 7.963705 0.863928 0.027007
v 7.969108 0.864565 0.021571
v 7.950484 0.874371 0.001937
v 7.962277 0.873307 0.003695
v 7.957039 0.872815 0.002214
v 7.971637 0.868676 0.012490
v 7.970746 0.872597 0.011391
v 7.967179 0.872167 0.006729
v 7.968524 0.868602 0.020532
v 7.962843 0.867992 0.026425
v 7.966237 0.880641 0.004626
v 7.954326 0.868060 -0.002783
v 7.966136 0.876807 0.005346
v 7.967780 0.872730 0.019373
v 7.969732 0.876353 0.010222
v 7.966769 0.876986 0.018033
v 7.968344 0.880641 0.008470
v 7.962178 0.872239 0.025610
v 7.958414 0.862053 -0.007548
v 7.961650 0.876817 0.024808
v 7.961277 0.881668 0.024055
v 7.965503 0.881029 0.017499
v 7.969703 0.885509 0.008293
v 7.963579 0.856653 -0.012403
v 7.961085 0.886743 0.023559
v 7.971062 0.890377 0.008117
v 7.968447 0.852535 -0.016398
v 7.961461 0.892157 0.023317
v 7.973781 0.900112 0.007763
v 7.972416 0.850492 -0.018579
v 7.976656 0.849353 -0.019732
v 7.984832 0.880641 0.004626
v 7.961997 0.898051 0.023167
v 7.962616 0.904085 0.022993
v 7.979217 0.919583 0.007055
v 7.980677 0.848661 -0.020642
v 7.984832 0.848396 -0.021036
v 7.988987 0.848661 -0.020642
v 7.993009 0.849353 -0.019732
v 8.003428 0.880641 0.004626
v 7.990457 0.919591 0.007059
v 7.962992 0.909039 0.022849
v 7.997249 0.850492 -0.018579
v 7.960420 0.896900 0.023530
v 7.962054 0.904872 0.022990
v 8.001218 0.852535 -0.016398
v 7.965071 0.898562 0.026788
v 8.006085 0.856653 -0.012403
v 7.969776 0.900691 0.029580
v 8.011251 0.862053 -0.007548
v 7.974588 0.903206 0.031674
v 8.015339 0.868060 -0.002783
v 7.979374 0.906066 0.033048
v 8.019180 0.874371 0.001937
v 7.983999 0.909232 0.033679
v 8.013179 0.868473 0.003063
v 8.012625 0.872815 0.002214
v 8.019319 0.868960 0.003145
v 8.003528 0.876807 0.005346
v 8.001321 0.880641 0.008470
v 8.007388 0.873307 0.003695
v 7.988097 0.912447 0.033660
v 8.018817 0.865101 0.004695
v 8.007534 0.868243 0.004626
v 8.012227 0.863547 0.005051
v 8.006382 0.863558 0.006461
v 8.002485 0.872167 0.006729
v 8.002895 0.876986 0.018033
v 8.004162 0.881029 0.017499
v 7.999933 0.876353 0.010222
v 7.999961 0.885509 0.008293
v 8.002148 0.868131 0.007669
v 7.991303 0.915459 0.033080
v 8.010334 0.859193 0.008237
v 8.017037 0.860118 0.007604
v 7.998919 0.872597 0.011391
v 8.008387 0.881668 0.024055
v 8.008589 0.886735 0.023555
v 7.998602 0.890377 0.008117
v 7.994008 0.918667 0.031682
v 8.014738 0.856540 0.010517
v 8.008596 0.855769 0.011403
v 8.001785 0.855323 0.014153
v 8.004683 0.859473 0.009529
v 8.008014 0.876817 0.024808
v 8.008302 0.892157 0.023317
v 7.995884 0.900112 0.007763
v 7.996604 0.922471 0.029204
v 8.011998 0.853333 0.013769
v 8.005083 0.852816 0.015289
v 8.001441 0.859573 0.011523
v 8.001624 0.864011 0.009250
v 8.007486 0.872239 0.025610
v 8.001884 0.872730 0.019373
v 8.007919 0.898051 0.023167
v 8.007306 0.904170 0.022975
v 7.999146 0.926573 0.026188
v 8.008572 0.850795 0.017119
v 7.997649 0.859688 0.016629
v 7.997946 0.856380 0.018648
v 7.997608 0.863812 0.014450
v 7.998027 0.868676 0.012490
v 8.001141 0.868602 0.020532
v 8.006822 0.867992 0.026425
v 8.006151 0.910264 0.023137
v 8.001764 0.921459 0.025050
v 8.004492 0.849061 0.020885
v 8.000212 0.860529 0.022448
v 8.000557 0.864565 0.021571
v 8.005960 0.863928 0.027007
v 8.004169 0.916103 0.024002
v 8.000670 0.851333 0.018830
v 8.000097 0.847795 0.024958
v 8.004842 0.859900 0.027110
v 7.999822 0.856821 0.023344
v 7.998676 0.852952 0.020919
v 7.999703 0.852510 0.024025
v 8.001847 0.851846 0.025964
v 8.003469 0.855882 0.026755
vn -0.3429 -0.9387 0.0353
vn -0.3949 -0.9112 0.1174
vn -0.4240 -0.9037 -0.0593
vn -0.3077 -0.6937 0.6512
vn -0.0476 0.6841 0.7279
vn -0.2430 0.6903 0.6815
vn -0.3143 0.5516 0.7726
vn -0.1002 0.5272 0.8438
vn 0.4970 -0.8674 0.0258
vn 0.4206 -0.9057 -0.0536
vn 0.5359 -0.8050 -0.2545
vn 0.6682 -0.7390 -0.0854
vn 0.6628 -0.6917 -0.2868
vn 0.8152 -0.5605 -0.1461
vn -0.5443 -0.7449 0.3858
vn -0.5907 -0.0546 0.8050
vn -0.5517 0.0622 0.8317
vn -0.7587 0.1584 0.6319
vn -0.7827 0.0612 0.6194
vn -0.0962 -0.2407 0.9658
vn -0.3327 -0.5380 0.7745
vn 0.8262 -0.3969 0.3997
vn 0.6984 -0.5695 0.4335
vn -0.6628 -0.6917 -0.2868
vn -0.8152 -0.5605 -0.1461
vn -0.8072 -0.5262 -0.2675
vn -0.4307 -0.3219 0.8431
vn 0.4307 -0.3219 0.8431
vn 0.5410 -0.7488 0.3828
vn 0.4861 -0.1762 0.8560
vn 0.5098 -0.0467 0.8590
vn 0.7899 0.3227 0.5214
vn 0.7826 0.4162 0.4629
vn 0.7680 0.2949 0.5685
vn 0.7398 0.2395 0.6287
vn -0.5011 -0.8650 0.0250
vn -0.6682 -0.7390 -0.0854
vn -0.5359 -0.8050 -0.2545
vn 0.8109 0.2620 0.5233
vn 0.8123 0.2207 0.5399
vn 0.9878 -0.0300 -0.1526
vn 0.9812 0.0784 -0.1763
vn 0.8072 -0.5262 -0.2675
vn 0.9074 -0.3248 -0.2666
vn 0.9200 -0.3520 -0.1724
vn -0.1397 -0.1776 0.9741
vn -0.2304 -0.0723 0.9704
vn 0.3078 0.0305 0.9510
vn 0.2304 -0.0723 0.9704
vn -0.4861 -0.1762 0.8560
vn -0.3078 0.0305 0.9510
vn -0.5098 -0.0467 0.8590
vn 0.5309 0.0716 0.8444
vn 0.3439 0.1151 0.9319
vn -0.9044 -0.2203 0.3655
vn -0.5309 0.0716 0.8444
vn -0.9378 -0.0460 0.3441
vn -0.6617 -0.0819 -0.7453
vn -0.9648 0.2102 -0.1583
vn -0.9984 0.0012 -0.0567
vn -0.6738 -0.1026 -0.7318
vn 0.9722 -0.1438 -0.1848
vn 0.9485 -0.1376 -0.2852
vn 0.8035 0.1776 0.5682
vn 0.7277 0.1506 0.6691
vn 0.7145 0.1146 0.6902
vn 0.8007 0.1395 0.5825
vn -0.4562 0.6607 0.5961
vn -0.5658 0.5118 0.6465
vn 0.9419 0.1083 0.3178
vn 0.9378 -0.0460 0.3441
vn 0.9823 0.0311 -0.1847
vn 0.9761 -0.0657 -0.2070
vn 0.2197 0.9756 0.0043
vn 0.1823 0.9824 0.0409
vn 0.2281 0.9706 0.0775
vn 0.2858 0.9578 0.0314
vn 0.5891 0.2083 0.7807
vn 0.5567 0.1598 0.8152
vn 0.9203 0.2211 0.3227
vn -0.1861 0.7994 0.5713
vn -0.0220 0.8017 0.5974
vn 0.9820 0.1276 -0.1390
vn 0.9793 0.0449 -0.1973
vn 0.9765 0.0322 -0.2130
vn 0.9562 -0.2756 -0.0988
vn -0.9761 -0.0657 -0.2070
vn -0.9562 -0.2756 -0.0988
vn -0.8573 -0.5139 0.0289
vn 0.8187 0.2924 0.4941
vn 0.7120 0.2760 0.6456
vn 0.6836 0.2660 0.6796
vn 0.9045 0.2710 0.3293
vn 0.6350 0.2276 0.7383
vn -0.1213 0.9925 -0.0131
vn -0.1820 0.9824 0.0416
vn -0.1395 0.9875 0.0727
vn -0.0933 0.9956 0.0062
vn 0.1670 0.9786 0.1204
vn 0.2082 0.9609 0.1826
vn 0.2930 0.9476 0.1275
vn 0.1393 0.7094 -0.6909
vn 0.2789 0.7065 -0.6505
vn 0.3223 0.6162 -0.7186
vn 0.1658 0.6164 -0.7698
vn 0.8586 -0.5057 -0.0840
vn 0.9404 -0.2324 -0.2485
vn 0.8573 -0.5139 0.0289
vn 0.9405 0.0370 -0.3378
vn -0.8586 -0.5057 -0.0840
vn -0.7698 -0.6375 0.0313
vn 0.1978 -0.7349 -0.6487
vn 0.4981 -0.6760 -0.5430
vn 0.3228 -0.7858 -0.5275
vn 0.1298 -0.7802 -0.6119
vn -0.9768 0.2123 -0.0271
vn -0.9735 0.1580 -0.1654
vn -0.9764 0.1217 -0.1785
vn -0.9788 0.1872 -0.0834
vn -0.8483 0.2761 0.4518
vn -0.8057 0.4441 0.3919
vn -0.8556 0.4450 0.2645
vn -0.9036 0.2891 0.3161
vn 0.7316 0.6731 -0.1083
vn 0.7409 0.6710 0.0285
vn 0.8293 0.5513 0.0913
vn 0.8253 0.5596 -0.0757
vn 0.9508 0.1505 -0.2709
vn 0.9726 0.1610 -0.1678
vn 0.9756 0.1208 -0.1835
vn 0.9606 0.1271 -0.2471
vn 0.7576 -0.6399 -0.1283
vn 0.8295 -0.4398 -0.3442
vn 0.7698 -0.6375 0.0313
vn -0.7576 -0.6399 -0.1283
vn -0.6749 -0.7378 0.0108
vn 0.1214 0.9925 -0.0130
vn 0.0934 0.9956 0.0064
vn 0.1391 0.9876 0.0721
vn 0.7532 0.1460 0.6414
vn 0.6955 0.1958 0.6914
vn 0.9027 0.2667 0.3378
vn 0.9150 0.2148 0.3415
vn -0.2340 0.7800 -0.5804
vn -0.1115 0.7832 -0.6117
vn -0.1393 0.7094 -0.6909
vn -0.2789 0.7065 -0.6505
vn 0.9778 0.1491 -0.1475
vn 0.9802 0.1959 0.0274
vn 0.9753 0.2191 -0.0274
vn 0.9498 0.1355 -0.2822
vn -0.1878 0.9447 0.2688
vn -0.2216 0.9212 0.3198
vn -0.1126 0.9328 0.3424
vn -0.1010 0.9518 0.2895
vn 0.2099 -0.3412 -0.9163
vn 0.1985 -0.5564 -0.8068
vn -0.0000 -0.5571 -0.8304
vn -0.0000 -0.3410 -0.9401
vn -0.0980 -0.2801 -0.9549
vn -0.0843 -0.4541 -0.8870
vn -0.3523 -0.3760 -0.8570
vn -0.3600 -0.2345 -0.9030
vn -0.6097 -0.7639 -0.2115
vn -0.5289 -0.8452 -0.0773
vn -0.1621 0.9376 -0.3077
vn -0.1017 0.9363 -0.3361
vn -0.1383 0.9000 -0.4133
vn -0.2222 0.8991 -0.3772
vn -0.9753 0.2102 0.0675
vn -0.9511 0.1271 0.2816
vn -0.9479 0.1706 0.2690
vn -0.9008 0.1538 0.4060
vn -0.5891 0.2083 0.7807
vn -0.9202 0.2245 0.3206
vn -0.9419 0.1083 0.3178
vn -0.5567 0.1598 0.8152
vn -0.5093 0.5076 -0.6949
vn -0.4560 0.6211 -0.6374
vn -0.3223 0.6162 -0.7186
vn -0.3607 0.4996 -0.7876
vn -0.8953 0.4418 -0.0563
vn -0.8746 0.4378 -0.2085
vn -0.9296 0.3077 -0.2028
vn -0.9507 0.3083 -0.0338
vn 0.8585 -0.1988 -0.4727
vn 0.8644 0.0170 -0.5026
vn -0.3669 0.9111 0.1879
vn -0.4479 0.8622 0.2366
vn -0.3346 0.8982 0.2850
vn -0.2767 0.9312 0.2374
vn -0.2687 -0.5821 0.7674
vn -0.6323 -0.2826 0.7214
vn -0.5059 -0.4933 0.7076
vn -0.0264 -0.8584 0.5123
vn -0.5605 0.7010 0.4409
vn -0.3701 0.7723 0.5162
vn -0.2901 0.8605 0.4187
vn -0.4370 0.8212 0.3669
vn 0.2628 0.9334 0.2441
vn 0.3664 0.9113 0.1879
vn -0.7817 0.1292 0.6101
vn -0.9238 0.1724 0.3418
vn -0.9143 0.2168 0.3422
vn -0.7495 0.1520 0.6443
vn -0.1857 0.4935 -0.8497
vn -0.0000 0.4904 -0.8715
vn -0.0000 0.3513 -0.9363
vn -0.1932 0.3610 -0.9123
vn 0.1172 0.9821 0.1476
vn 0.0988 0.9906 0.0947
vn 0.0572 0.9925 0.1079
vn 0.0667 0.9850 0.1589
vn 0.7057 -0.5816 -0.4046
vn 0.7310 -0.3724 -0.5718
vn 0.0412 -0.6189 0.7844
vn -0.0000 -0.6139 0.7894
vn 0.6971 -0.7022 0.1446
vn 0.0440 -0.6063 0.7940
vn 0.6731 0.2056 0.7104
vn 0.6600 0.1684 0.7322
vn 0.8119 0.1504 0.5640
vn 0.8126 0.1911 0.5507
vn -0.5394 0.8231 0.1776
vn -0.4386 0.8903 0.1229
vn -0.4923 0.8693 0.0449
vn -0.6080 0.7890 0.0886
vn -0.3705 0.9251 0.0830
vn -0.3076 0.9408 0.1420
vn -0.2393 0.9668 0.0891
vn -0.2938 0.9550 0.0408
vn -0.9178 0.1661 -0.3606
vn -0.8545 0.1614 -0.4938
vn -0.8706 0.0699 -0.4870
vn -0.9275 0.0749 -0.3662
vn 0.5467 -0.5413 -0.6389
vn 0.5837 -0.3441 -0.7355
vn -0.4427 0.8951 -0.0537
vn -0.3557 0.9321 -0.0679
vn -0.3677 0.9207 -0.1310
vn -0.4574 0.8791 -0.1340
vn 0.3758 -0.5510 -0.7451
vn 0.4053 -0.3404 -0.8485
vn 0.3175 -0.7734 -0.5488
vn 0.1762 -0.7761 -0.6055
vn 0.4994 0.8657 0.0344
vn 0.6136 0.7845 0.0896
vn 0.6370 0.7705 -0.0224
vn 0.5358 0.8430 -0.0472
vn -0.6387 -0.1538 -0.7539
vn -0.9812 0.0784 -0.1763
vn -0.9719 0.1693 -0.1638
vn 0.6788 0.4067 -0.6115
vn 0.7195 0.2854 -0.6331
vn 0.5795 0.2741 -0.7675
vn 0.5492 0.3936 -0.7372
vn -0.0000 -0.8644 -0.5029
vn -0.0000 -0.7766 -0.6301
vn 0.1589 -0.8637 -0.4783
vn 0.4639 0.8491 0.2526
vn 0.5606 0.8075 0.1836
vn 0.4470 0.8875 0.1120
vn -0.9078 0.1851 0.3763
vn -0.8935 0.2634 0.3638
vn -0.8423 0.3443 0.4147
vn -0.8534 0.3399 0.3951
vn 0.9769 0.2117 -0.0280
vn 0.9581 0.2388 0.1583
vn 0.9728 0.1858 0.1385
vn 0.9880 0.1448 -0.0531
vn 0.9984 0.0012 -0.0567
vn 0.8715 0.1956 0.4497
vn 0.8441 0.3042 0.4416
vn 0.9648 0.2102 -0.1583
vn 0.4097 -0.1701 -0.8962
vn 0.2134 -0.1740 -0.9613
vn -0.8312 0.4299 -0.3525
vn -0.7711 0.4192 -0.4792
vn -0.8197 0.2931 -0.4921
vn -0.8845 0.2994 -0.3577
vn 0.7711 0.4192 -0.4792
vn 0.8197 0.2931 -0.4921
vn 0.6753 0.6594 -0.3305
vn 0.5980 0.7367 -0.3157
vn 0.6250 0.7465 -0.2283
vn 0.7086 0.6686 -0.2256
vn 0.1442 0.9666 0.2119
vn -0.3328 0.9429 -0.0108
vn -0.2198 0.9755 0.0043
vn -0.2485 0.9679 -0.0372
vn -0.1762 -0.7761 -0.6055
vn -0.1589 -0.8637 -0.4783
vn -0.2740 -0.8634 -0.4236
vn -0.3175 -0.7734 -0.5488
vn -0.9461 0.2972 0.1290
vn -0.9772 0.2106 -0.0286
vn -0.9634 0.2234 0.1483
vn 0.1932 0.3610 -0.9123
vn 0.1904 0.2319 -0.9539
vn -0.0000 0.2190 -0.9757
vn 0.5718 -0.0202 -0.8202
vn 0.5849 -0.1788 -0.7912
vn 0.4052 -0.0181 -0.9141
vn 0.9229 0.1476 -0.3556
vn 0.9150 0.1649 -0.3682
vn 0.9237 0.0709 -0.3766
vn 0.9275 0.0749 -0.3662
vn 0.9670 0.1017 -0.2338
vn 0.9604 0.0902 -0.2635
vn 0.9531 0.1119 -0.2811
vn 0.9173 0.1065 -0.3837
vn 0.1759 0.9776 -0.1158
vn 0.1722 0.9809 -0.0910
vn 0.2653 0.9610 -0.0785
vn 0.2749 0.9535 -0.1233
vn -0.9765 0.0322 -0.2130
vn -0.9796 0.0497 -0.1947
vn -0.0000 0.1167 -0.9932
vn -0.0000 0.1094 -0.9940
vn 0.2129 0.0958 -0.9724
vn 0.2273 0.1101 -0.9676
vn -0.1432 0.8808 0.4513
vn -0.0097 0.8860 0.4637
vn -0.0043 0.9365 0.3505
vn 0.4012 0.0794 -0.9126
vn 0.4032 0.1136 -0.9080
vn 0.5537 0.1345 -0.8218
vn 0.5570 0.0906 -0.8256
vn 0.7295 0.1083 -0.6754
vn 0.8579 0.1351 -0.4957
vn 0.7359 -0.0129 -0.6770
vn 0.9881 0.1249 -0.0898
vn 0.9837 0.1318 -0.1227
vn -0.7119 0.6880 0.1409
vn -0.6519 0.7184 0.2426
vn 0.8537 0.1710 -0.4920
vn -0.8537 0.1710 -0.4920
vn -0.8579 0.1351 -0.4957
vn -0.9229 0.1476 -0.3556
vn -0.9150 0.1649 -0.3682
vn 0.2324 0.1017 -0.9673
vn 0.4088 0.1062 -0.9064
vn -0.9404 -0.2324 -0.2485
vn -0.0567 0.9926 0.1069
vn -0.0958 0.9908 0.0958
vn -0.1223 0.9810 0.1509
vn -0.0676 0.9850 0.1588
vn -0.9801 0.1964 0.0278
vn -0.9778 0.1491 -0.1475
vn 0.7333 0.1434 -0.6646
vn 0.8566 0.1496 -0.4938
vn 0.7249 0.1585 -0.6704
vn -0.2273 0.1101 -0.9676
vn -0.0000 0.0981 -0.9952
vn -0.2324 0.1017 -0.9673
vn 0.9790 0.1858 -0.0839
vn 0.8017 0.2311 0.5513
vn -0.7505 0.4631 0.4714
vn -0.0000 0.9659 -0.2589
vn -0.0000 0.9333 -0.3592
vn -0.0490 0.9340 -0.3538
vn -0.0359 0.9649 -0.2601
vn 0.5355 0.7900 -0.2985
vn 0.5599 0.7263 -0.3989
vn 0.5021 0.7806 -0.3722
vn 0.8652 0.1055 -0.4901
vn 0.7517 0.1006 -0.6518
vn 0.8721 0.0667 -0.4848
vn -0.4097 -0.1701 -0.8962
vn -0.2134 -0.1740 -0.9613
vn -0.2099 -0.3412 -0.9163
vn -0.4053 -0.3404 -0.8485
vn 0.2196 -0.0309 -0.9751
vn -0.3439 0.1151 0.9319
vn -0.9257 0.2034 0.3188
vn -0.7500 0.1586 -0.6422
vn -0.6017 0.1504 -0.7844
vn -0.6127 0.0620 -0.7879
vn -0.7655 0.0692 -0.6396
vn -0.2196 -0.0309 -0.9751
vn -0.4052 -0.0181 -0.9141
vn -0.0000 0.0526 -0.9986
vn 0.2280 0.0626 -0.9717
vn -0.0000 -0.0414 -0.9991
vn -0.9878 -0.0300 -0.1526
vn -0.6410 -0.2679 -0.7193
vn -0.0000 -0.1783 -0.9840
vn 0.6127 0.0620 -0.7879
vn 0.7655 0.0692 -0.6396
vn 0.7655 0.0641 -0.6403
vn 0.6090 0.0540 -0.7913
vn -0.4088 0.1062 -0.9064
vn -0.4032 0.1136 -0.9080
vn -0.5537 0.1345 -0.8218
vn -0.5670 0.1222 -0.8146
vn -0.1985 -0.5564 -0.8068
vn -0.4981 -0.6760 -0.5430
vn -0.9337 -0.3408 -0.1101
vn -0.9811 -0.1689 -0.0945
vn -0.5155 -0.5542 -0.6535
vn -0.8552 -0.2517 0.4532
vn 0.5670 0.1222 -0.8146
vn 0.4057 0.1373 -0.9036
vn 0.6017 0.1504 -0.7844
vn 0.4119 0.0552 -0.9096
vn -0.3758 -0.5510 -0.7451
vn 0.5905 0.0858 -0.8025
vn -0.4025 0.7080 -0.5803
vn -0.4620 -0.7722 -0.4362
vn -0.5467 -0.5413 -0.6389
vn -0.3888 -0.8677 -0.3097
vn 0.0490 0.9340 -0.3538
vn 0.1017 0.9363 -0.3361
vn 0.1383 0.9000 -0.4133
vn 0.0622 0.8988 -0.4340
vn 0.4155 0.0499 -0.9082
vn 0.4139 0.0791 -0.9069
vn 0.8706 0.0699 -0.4870
vn 0.7350 -0.1898 -0.6509
vn 0.9136 0.1430 -0.3806
vn -0.6753 0.6594 -0.3305
vn -0.6303 0.6472 -0.4288
vn -0.7096 0.5349 -0.4586
vn -0.7624 0.5481 -0.3439
vn -0.4012 0.0794 -0.9126
vn -0.5718 -0.0202 -0.8202
vn -0.5570 0.0906 -0.8256
vn -0.5837 -0.3441 -0.7355
vn -0.5849 -0.1788 -0.7912
vn 0.5289 -0.8452 -0.0773
vn 0.6097 -0.7639 -0.2115
vn 0.6749 -0.7378 0.0108
vn 0.3540 0.9327 -0.0689
vn 0.3663 0.9212 -0.1310
vn 0.9178 0.1661 -0.3606
vn 0.8545 0.1614 -0.4938
vn -0.7057 -0.5816 -0.4046
vn 0.8845 0.2994 -0.3577
vn 0.9294 0.3076 -0.2040
vn 0.9601 0.1845 -0.2103
vn -0.2280 0.0626 -0.9717
vn 0.7500 0.1586 -0.6422
vn -0.7722 0.4802 0.4162
vn -0.8644 0.0170 -0.5026
vn -0.7295 0.1083 -0.6754
vn -0.7359 -0.0129 -0.6770
vn 0.6271 0.5205 -0.5795
vn 0.7096 0.5349 -0.4586
vn -0.6625 0.5800 0.4739
vn 0.5093 0.5076 -0.6949
vn 0.3850 0.3792 -0.8414
vn 0.3607 0.4996 -0.7876
vn -0.7335 0.6724 -0.0991
vn -0.6440 0.7547 -0.1254
vn -0.6250 0.7465 -0.2283
vn -0.7086 0.6686 -0.2256
vn 0.1852 0.1209 -0.9752
vn -0.0000 0.1128 -0.9936
vn 0.8312 0.4299 -0.3525
vn 0.8741 0.4384 -0.2091
vn -0.7370 0.5971 0.3167
vn -0.6814 0.6263 0.3789
vn -0.5641 0.7674 0.3048
vn 0.2783 0.9468 -0.1618
vn 0.3690 0.9115 -0.1818
vn 0.3596 0.9040 -0.2312
vn 0.2683 0.9428 -0.1977
vn -0.4411 0.7770 -0.4492
vn -0.3504 0.7769 -0.5231
vn -0.4972 0.7157 -0.4904
vn -0.7350 -0.1898 -0.6509
vn -0.7310 -0.3724 -0.5718
vn -0.8585 -0.1988 -0.4727
vn -0.8295 -0.4398 -0.3442
vn -0.8913 0.4447 0.0881
vn -0.0000 0.0721 -0.9974
vn 0.1964 0.0623 -0.9785
vn -0.9405 0.0370 -0.3378
vn -0.9606 0.1271 -0.2471
vn 0.1862 0.0534 -0.9811
vn -0.7249 0.1585 -0.6704
vn -0.9508 0.1505 -0.2709
vn 0.8970 0.4397 -0.0449
vn 0.8880 0.4391 0.1369
vn 0.9315 0.3274 0.1583
vn 0.9487 0.3152 -0.0264
vn -0.7333 0.1434 -0.6646
vn -0.5795 0.2741 -0.7675
vn -0.3981 0.2564 -0.8808
vn -0.4057 0.1373 -0.9036
vn -0.9136 0.1430 -0.3806
vn -0.9498 0.1355 -0.2822
vn -0.8566 0.1496 -0.4938
vn 0.9251 0.1690 0.3400
vn 0.9811 0.1601 0.1083
vn 0.9155 0.2046 0.3464
vn 0.3888 -0.8677 -0.3097
vn 0.4620 -0.7722 -0.4362
vn -0.5905 0.0858 -0.8025
vn -0.4139 0.0791 -0.9069
vn -0.9237 0.0709 -0.3766
vn -0.8721 0.0667 -0.4848
vn -0.8652 0.1055 -0.4901
vn -0.9173 0.1065 -0.3837
vn -0.2129 0.0958 -0.9724
vn -0.9809 0.1355 -0.1393
vn -0.9823 0.0311 -0.1847
vn 0.9044 -0.2203 0.3655
vn 0.1397 -0.1776 0.9741
vn 0.0962 -0.2407 0.9658
vn 0.3327 -0.5380 0.7745
vn -0.0000 0.7846 -0.6200
vn 0.1115 0.7832 -0.6117
vn -0.0000 0.7115 -0.7027
vn -0.4155 0.0499 -0.9082
vn -0.1964 0.0623 -0.9785
vn -0.9722 -0.1438 -0.1848
vn -0.9200 -0.3520 -0.1724
vn 0.1364 0.4523 0.8814
vn 0.1573 0.6399 0.7522
vn -0.8262 -0.3969 0.3997
vn -0.4119 0.0552 -0.9096
vn -0.1862 0.0534 -0.9811
vn -0.0000 0.0539 -0.9985
vn 0.1783 -0.7658 0.6179
vn 0.1062 -0.8123 0.5735
vn 0.2868 -0.8828 0.3720
vn 0.3037 -0.8051 0.5095
vn -0.9074 -0.3248 -0.2666
vn -0.1852 0.1209 -0.9752
vn -0.6984 -0.5695 0.4335
vn 0.5835 0.7354 0.3445
vn 0.6819 0.5781 0.4481
vn 0.7531 0.5430 0.3716
vn 0.6782 0.6813 0.2754
vn -0.9600 0.1852 -0.2098
vn 0.3981 0.2564 -0.8808
vn -0.7998 -0.0235 0.5998
vn 0.4010 -0.9083 0.1192
vn 0.3720 -0.9256 0.0702
vn 0.3114 -0.6933 0.6499
vn -0.0000 0.8530 -0.5219
vn 0.0826 0.8526 -0.5159
vn 0.1857 0.4935 -0.8497
vn 0.8003 0.5586 -0.2179
vn 0.4560 0.6211 -0.6374
vn 0.0032 -0.6664 -0.7456
vn 0.1032 -0.6009 -0.7927
vn 0.1488 -0.6652 -0.7317
vn 0.0568 -0.7249 -0.6865
vn -0.1904 0.2319 -0.9539
vn 0.0980 -0.2801 -0.9549
vn 0.0843 -0.4541 -0.8870
vn -0.0415 -0.4440 -0.8950
vn -0.0286 -0.2864 -0.9577
vn -0.1658 0.6164 -0.7698
vn -0.0000 0.6170 -0.7869
vn -0.5492 0.3936 -0.7372
vn -0.3850 0.3792 -0.8414
vn -0.7195 0.2854 -0.6331
vn -0.3722 0.1565 0.9149
vn -0.7655 0.0641 -0.6403
vn -0.6090 0.0540 -0.7913
vn -0.7517 0.1006 -0.6518
vn 0.4594 0.8648 -0.2024
vn 0.5500 0.8052 -0.2216
vn 0.4528 0.8504 -0.2679
vn -0.8003 0.5586 -0.2179
vn 0.7624 0.5481 -0.3439
vn 0.5598 0.6330 -0.5347
vn 0.6303 0.6472 -0.4288
vn 0.4025 0.7080 -0.5803
vn 0.4972 0.7157 -0.4904
vn -0.0022 0.9995 0.0311
vn -0.0033 0.9936 0.1133
vn 0.0397 0.9989 0.0253
vn 0.2340 0.7800 -0.5804
vn 0.3504 0.7769 -0.5231
vn -0.9059 0.2718 0.3248
vn -0.9045 0.2632 0.3356
vn -0.9531 0.1121 -0.2810
vn -0.5980 0.7367 -0.3157
vn -0.5599 0.7263 -0.3989
vn -0.5494 0.8244 -0.1362
vn -0.5493 0.8058 -0.2213
vn -0.9836 0.1326 -0.1223
vn -0.9831 0.1665 0.0767
vn -0.9670 0.1015 -0.2336
vn -0.9605 0.0902 -0.2632
vn 0.6398 0.7577 -0.1289
vn -0.0826 0.8526 -0.5159
vn -0.0622 0.8988 -0.4340
vn -0.0000 0.8983 -0.4393
vn 0.4411 0.7770 -0.4492
vn -0.7795 0.5954 0.1946
vn 0.5516 0.8230 -0.1356
vn 0.4417 0.8954 -0.0567
vn 0.4571 0.8792 -0.1343
vn -0.7407 0.6716 0.0191
vn -0.8105 0.5836 0.0504
vn -0.5598 0.6330 -0.5347
vn -0.6271 0.5205 -0.5795
vn 0.2846 0.8471 -0.4489
vn 0.3655 0.8434 -0.3938
vn 0.1818 0.8511 -0.4925
vn 0.3641 0.9291 0.0651
vn -0.3675 -0.1237 -0.9218
vn -0.1307 -0.0445 -0.9904
vn 0.4219 0.8431 -0.3334
vn 0.7243 0.6673 0.1733
vn 0.7992 0.5428 0.2583
vn -0.4249 0.1749 0.8882
vn -0.9881 0.1249 -0.0893
vn -0.9805 0.1603 0.1139
vn -0.9249 0.1669 0.3416
vn -0.6946 0.1970 0.6919
vn 0.2860 0.8978 -0.3348
vn 0.3314 0.8989 -0.2867
vn -0.3655 0.8434 -0.3938
vn -0.2846 0.8471 -0.4489
vn -0.4787 -0.3533 0.8037
vn -0.6143 -0.1487 0.7749
vn -0.1277 -0.8194 -0.5587
vn 0.0286 -0.2864 -0.9577
vn 0.2222 0.8991 -0.3772
vn 0.1621 0.9376 -0.3077
vn -0.4595 0.8650 -0.2018
vn 0.1256 0.9689 -0.2130
vn 0.2086 0.9382 -0.2762
vn 0.0993 0.9672 -0.2336
vn -0.0641 0.9978 0.0179
vn -0.2749 0.9535 -0.1233
vn -0.2783 0.9468 -0.1618
vn -0.3702 0.9111 -0.1815
vn -0.5124 0.1727 0.8412
vn -0.6349 0.2277 0.7383
vn -0.0568 -0.7249 -0.6865
vn -0.1298 -0.7802 -0.6119
vn -0.1978 -0.7349 -0.6487
vn -0.1488 -0.6652 -0.7317
vn -0.7992 0.1305 0.5868
vn -0.2653 0.9610 -0.0785
vn -0.1623 0.9847 -0.0638
vn -0.1722 0.9809 -0.0910
vn 0.1744 0.9467 0.2708
vn -0.1818 0.8511 -0.4925
vn -0.1780 0.9756 0.1285
vn -0.2291 0.9550 0.1886
vn -0.1577 0.9639 0.2145
vn 0.0659 0.9977 0.0172
vn -0.6632 0.1064 0.7409
vn -0.6072 0.1365 0.7828
vn 0.1469 0.7828 0.6047
vn 0.1260 0.8787 0.4604
vn 0.2485 0.9679 -0.0370
vn 0.3291 0.9442 -0.0154
vn -0.0871 0.9698 0.2278
vn -0.0020 0.9547 0.2974
vn -0.0004 0.9724 0.2333
vn 0.6704 0.0976 0.7356
vn 0.6090 0.1339 0.7818
vn -0.1752 0.9741 -0.1426
vn -0.1651 0.9722 -0.1658
vn -0.2683 0.9428 -0.1977
vn 0.1043 0.9337 0.3425
vn -0.6788 0.4067 -0.6115
vn -0.8434 0.1752 0.5079
vn -0.8189 0.1430 0.5559
vn 0.5124 0.1727 0.8412
vn -0.4135 0.9103 0.0188
vn -0.5313 0.8460 -0.0445
vn -0.9881 0.1445 -0.0521
vn 0.1623 0.9847 -0.0637
vn 0.1419 0.9892 -0.0361
vn -0.9734 0.1806 0.1408
vn 0.9811 -0.1689 -0.0945
vn 0.9862 -0.1146 -0.1196
vn 0.3328 0.8935 0.3014
vn -0.8177 0.5706 -0.0757
vn -0.9215 0.1882 0.3397
vn 0.2753 0.8549 0.4397
vn 0.3378 0.7354 0.5874
vn 0.5094 0.6770 0.5312
vn 0.4338 0.8062 0.4024
vn -0.1256 0.9689 -0.2130
vn -0.0993 0.9672 -0.2336
vn -0.2086 0.9382 -0.2762
vn 0.6968 0.4352 0.5702
vn 0.8394 0.4442 0.3131
vn 0.8747 0.3439 0.3416
vn 0.7887 -0.1626 0.5928
vn 0.8056 -0.1128 0.5816
vn 0.8289 -0.1365 0.5425
vn 0.8283 -0.1370 0.5432
vn -0.0014 0.9866 0.1633
vn 0.0947 0.9530 0.2878
vn 0.2128 0.9210 0.3262
vn -0.6443 0.7646 -0.0188
vn -0.5021 0.7806 -0.3722
vn -0.5354 0.7902 -0.2982
vn 0.0359 0.9649 -0.2601
vn 0.0639 0.9669 -0.2470
vn -0.7046 0.0990 0.7027
vn 0.2428 0.9398 -0.2403
vn -0.0000 0.9933 -0.1154
vn -0.0639 0.9669 -0.2470
vn -0.1491 0.9699 -0.1927
vn 0.1651 0.9722 -0.1658
vn 0.1491 0.9699 -0.1927
vn 0.1752 0.9741 -0.1426
vn -0.2860 0.8978 -0.3348
vn 0.9838 0.1632 0.0741
vn 0.9259 0.1669 0.3390
vn 0.4249 0.1749 0.8882
vn -0.1759 0.9776 -0.1158
vn -0.0395 0.9989 0.0266
vn -0.2428 0.9398 -0.2403
vn -0.3314 0.8989 -0.2867
vn 0.4112 0.9115 0.0080
vn -0.1418 0.9892 -0.0363
vn -0.3600 0.9039 -0.2309
vn -0.4219 0.8431 -0.3334
vn -0.4530 0.8505 -0.2673
vn -0.6874 0.0986 0.7196
vn 0.2740 -0.8634 -0.4236
vn 0.3722 0.1565 0.9149
vn -0.9161 0.2217 0.3342
vn 0.6785 0.2343 0.6962
vn 0.8548 -0.0036 0.5190
vn 0.8861 -0.1190 0.4480
vn -0.4814 -0.1984 0.8538
vn -0.2809 -0.4320 0.8570
vn 0.7877 0.1232 0.6036
vn 0.9719 0.1693 -0.1638
vn 0.6998 0.0939 0.7081
vn -0.6287 -0.3934 -0.6708
vn -0.9862 -0.1146 -0.1196
vn 0.3523 -0.3760 -0.8570
vn 0.3600 -0.2345 -0.9030
vn 0.6387 -0.1538 -0.7539
vn 0.6410 -0.2679 -0.7193
vn -0.1731 0.3414 0.9238
vn -0.4081 0.3953 0.8230
vn -0.4920 0.2286 0.8401
vn -0.2494 0.1338 0.9591
vn 0.6254 0.1331 0.7689
vn 0.7369 -0.0023 0.6760
vn 0.5760 0.4347 0.6923
vn 0.9009 0.2550 0.3513
vn 0.3421 -0.5283 -0.7771
vn 0.0415 -0.4440 -0.8950
vn 0.0338 -0.5835 -0.8114
vn -0.1032 -0.6009 -0.7927
vn -0.8755 -0.4798 0.0571
vn -0.3228 -0.7858 -0.5275
vn 0.6888 -0.1294 0.7133
vn 0.4786 -0.2933 0.8276
vn 0.5941 -0.2513 0.7641
vn 0.5775 -0.1068 0.8094
vn 0.0161 0.0040 0.9999
vn 0.0845 0.2364 0.9680
vn 0.3858 0.3184 0.8659
vn 0.3382 0.0875 0.9370
vn -0.3153 -0.0467 0.9479
vn -0.0484 -0.2010 0.9784
vn 0.4993 -0.4905 0.7143
vn 0.2741 -0.1645 0.9475
vn 0.3874 -0.4518 0.8036
vn 0.3144 -0.5757 0.7548
vn 0.4215 -0.5840 0.6937
vn 0.1864 -0.3257 0.9269
vn -0.3717 -0.1894 0.9088
vn 0.0424 -0.5376 0.8421
vn -0.0372 -0.6249 0.7798
vn 0.2380 -0.6651 0.7078
vn 0.0835 0.9705 0.2263
vn 0.3550 -0.7145 0.6028
vn 0.1045 -0.4342 0.8947
vn -0.1334 -0.3020 0.9439
vn 0.3865 0.5463 0.7430
vn -0.9485 -0.1376 -0.2852
vn 0.2511 -0.9537 0.1657
vn -0.7202 0.2586 0.6438
vn -0.7746 -0.1259 0.6198
vn -0.7627 -0.2370 0.6017
vn -0.1336 -0.9891 0.0621
vn -0.7824 -0.1536 0.6035
vn -0.2248 -0.3385 0.9137
vn -0.3421 -0.5283 -0.7771
vn -0.8407 -0.1001 0.5322
vn -0.8542 0.0007 0.5199
vn -0.8270 -0.1285 0.5473
vn -0.8265 -0.1288 0.5480
vn -0.8860 -0.1149 0.4492
vn -0.8187 0.2924 0.4941
vn -0.8441 0.3042 0.4416
vn -0.6673 0.3738 0.6442
vn -0.8009 -0.1057 0.5894
vn 0.8236 0.1560 0.5453
vn 0.7669 0.2547 0.5891
vn 0.5155 -0.5542 -0.6535
vn -0.0032 -0.6664 -0.7456
vn 0.6287 -0.3934 -0.6708
vn 0.8755 -0.4798 0.0571
vn 0.9337 -0.3408 -0.1101
vn 0.8324 0.0638 0.5504
vn 0.6528 0.1126 0.7491
vn -0.0338 -0.5835 -0.8114
vn -0.8119 0.1504 0.5640
vn -0.8126 0.1911 0.5507
vn -0.6528 0.1126 0.7491
vn -0.6600 0.1684 0.7322
vn -0.8324 0.0638 0.5504
vn -0.6731 0.2056 0.7104
vn -0.6785 0.2343 0.6962
vn -0.8123 0.2207 0.5399
vn -0.8109 0.2620 0.5233
vn -0.6836 0.2660 0.6796
vn 0.3675 -0.1237 -0.9218
vn 0.1307 -0.0445 -0.9904
vn 0.1277 -0.8194 -0.5587
vn 0.0954 -0.5706 0.8156
vn 0.6738 -0.1026 -0.7318
vn 0.6617 -0.0819 -0.7453
vn -0.8713 0.1962 0.4498
vn -0.7120 0.2760 0.6456
vn -0.7669 0.2547 0.5891
vn 0.1308 -0.5811 0.8032
vn -0.8235 0.1570 0.5452
vn 0.1559 -0.5832 0.7972
vn 0.1422 -0.5857 0.7980
vn -0.0412 -0.6189 0.7844
vn -0.0440 -0.6063 0.7940
vn -0.6971 -0.7022 0.1446
vn 0.7327 -0.1422 0.6656
vn 0.2787 -0.8172 -0.5044
vn 0.0505 -0.6232 0.7804
vn -0.0000 -0.6227 0.7825
vn -0.0505 -0.6232 0.7804
vn -0.4433 0.6181 -0.6493
vn 0.0895 -0.6518 -0.7531
vn 0.8422 -0.2064 -0.4980
vn -0.1422 -0.5857 0.7980
vn 0.4934 -0.8324 -0.2524
vn -0.1559 -0.5832 0.7972
vn 0.5150 -0.8280 -0.2219
vn -0.1308 -0.5811 0.8032
vn 0.5309 -0.8222 -0.2051
vn -0.0954 -0.5706 0.8156
vn 0.5544 -0.8113 -0.1857
vn 0.5867 -0.7926 -0.1661
vn 0.6319 -0.7607 -0.1482
vn 0.6907 -0.7104 -0.1353
vn 0.7473 -0.6512 -0.1322
vn 0.7819 -0.6079 -0.1380
vn 0.2089 -0.9454 0.2502
vn -0.7310 -0.4569 0.5069
vn -0.7557 -0.3799 0.5334
vt 0.000000 0.000000
s 1
f 1/1/1 2/1/2 3/1/3
f 1/1/1 4/1/4 2/1/2
f 663/1/5 708/1/6 669/1/7 664/1/8
f 279/1/9 284/1/10 275/1/11 270/1/12
f 270/1/12 275/1/11 268/1/13 261/1/14
f 2/1/2 4/1/4 9/1/15
f 685/1/16 691/1/17 684/1/18 677/1/19
f 4/1/4 11/1/20 12/1/21
f 4/1/4 12/1/21 9/1/15
f 269/1/22 278/1/23 270/1/12 261/1/14
f 8/1/24 14/1/25 15/1/26
f 9/1/15 12/1/21 16/1/27
f 285/1/28 286/1/29 278/1/23 277/1/30
f 277/1/30 278/1/23 269/1/22 276/1/31
f 458/1/32 466/1/33 461/1/34 439/1/35
f 5/1/36 7/1/37 6/1/38 3/1/3
f 748/1/39 741/1/40 738/1/41 745/1/42
f 261/1/14 262/1/43 253/1/44 260/1/45
f 16/1/27 18/1/46 23/1/47
f 277/1/30 309/1/48 306/1/49 285/1/28
f 17/1/50 24/1/51 20/1/52
f 267/1/53 316/1/54 309/1/48 276/1/31
f 19/1/55 25/1/56 26/1/57
f 806/1/58 809/1/59 799/1/60 798/1/61
f 252/1/62 260/1/45 253/1/44 246/1/63
f 431/1/64 432/1/65 425/1/66 430/1/67
f 669/1/7 708/1/6 705/1/68 704/1/69
f 251/1/70 258/1/71 252/1/62 245/1/72
f 245/1/72 252/1/62 246/1/63 211/1/73
f 569/1/74 577/1/75 578/1/76 572/1/77
f 379/1/78 380/1/79 251/1/70 374/1/80
f 700/1/81 708/1/6 663/1/5 701/1/82
f 244/1/83 245/1/72 211/1/73 238/1/84
f 217/1/85 238/1/84 211/1/73 210/1/86
f 34/1/87 41/1/88 42/1/89
f 748/1/39 753/1/90 757/1/91 749/1/92
f 373/1/93 399/1/94 379/1/78 374/1/80
f 551/1/95 658/1/96 657/1/97 654/1/98
f 578/1/76 587/1/99 586/1/100 579/1/101
f 409/1/102 464/1/103 416/1/104 410/1/105
f 203/1/106 218/1/107 210/1/86 204/1/108
f 218/1/107 224/1/109 217/1/85 210/1/86
f 42/1/89 48/1/110 50/1/111
f 710/1/112 714/1/113 711/1/114 709/1/115
f 54/1/116 55/1/117 47/1/118 46/1/119
f 101/1/120 135/1/121 136/1/122 129/1/123
f 484/1/124 498/1/125 474/1/126 485/1/127
f 235/1/128 360/1/129 237/1/130 236/1/131
f 196/1/132 222/1/133 203/1/106 197/1/134
f 50/1/111 58/1/135 59/1/136
f 576/1/137 585/1/138 584/1/139 577/1/75
f 420/1/140 404/1/141 406/1/142 412/1/143
f 351/1/144 398/1/145 330/1/146 346/1/147
f 359/1/148 413/1/149 367/1/150 360/1/129
f 359/1/148 360/1/129 235/1/128 353/1/151
f 640/1/152 690/1/153 633/1/154 634/1/155
f 161/1/156 162/1/157 106/1/158 154/1/159
f 795/1/160 804/1/161 805/1/162 803/1/163
f 59/1/136 67/1/164 68/1/165
f 391/1/166 493/1/167 393/1/168 389/1/169
f 157/1/170 164/1/171 156/1/172 85/1/173
f 36/1/174 37/1/175 32/1/176 31/1/177
f 295/1/178 341/1/179 304/1/180 297/1/181
f 206/1/182 337/1/183 198/1/184 199/1/185
f 218/1/107 225/1/186 223/1/187 224/1/109
f 682/1/188 688/1/189 687/1/190 683/1/191
f 666/1/192 672/1/193 667/1/194 660/1/195
f 698/1/196 699/1/197 694/1/198 693/1/199
f 586/1/100 589/1/200 580/1/201 579/1/101
f 69/1/202 71/1/203 62/1/204 61/1/205
f 298/1/206 319/1/207 302/1/208 296/1/209
f 596/1/210 619/1/211 618/1/212 617/1/213
f 222/1/133 196/1/132 205/1/214 219/1/215
f 770/1/216 771/1/217 750/1/218 769/1/219
f 739/1/220 733/1/221 731/1/222 730/1/223
f 689/1/224 686/1/225 415/1/226 414/1/227
f 544/1/228 681/1/229 552/1/230 545/1/231
f 191/1/232 305/1/233 184/1/234 185/1/235
f 212/1/236 189/1/237 219/1/215 205/1/214
f 407/1/238 530/1/239 395/1/240 401/1/241
f 189/1/237 212/1/236 169/1/242 181/1/243
f 169/1/242 170/1/244 107/1/245 162/1/157
f 567/1/246 568/1/247 504/1/248 562/1/249
f 811/1/250 841/1/251 815/1/252 806/1/58
f 222/1/133 225/1/186 218/1/107 203/1/106
f 428/1/253 429/1/254 317/1/255 424/1/256
f 100/1/257 109/1/258 107/1/245 108/1/259
f 580/1/201 581/1/260 573/1/261 574/1/262
f 93/1/263 149/1/264 142/1/265 102/1/266
f 454/1/267 455/1/268 446/1/269 447/1/270
f 756/1/271 761/1/272 755/1/273 754/1/274
f 173/1/275 181/1/243 161/1/156 168/1/276
f 322/1/277 329/1/278 299/1/279 315/1/280
f 106/1/158 162/1/157 107/1/245 109/1/258
f 428/1/253 442/1/281 436/1/282 429/1/254
f 373/1/93 406/1/142 404/1/141 399/1/94
f 482/1/283 491/1/284 490/1/285 483/1/286
f 606/1/287 586/1/100 587/1/99 596/1/210
f 536/1/288 545/1/231 542/1/289 535/1/290
f 91/1/291 92/1/292 84/1/293 89/1/294
f 128/1/295 199/1/185 122/1/296 123/1/297
f 302/1/208 312/1/298 307/1/299 303/1/300
f 567/1/246 574/1/262 573/1/261 568/1/247
f 215/1/301 216/1/302 173/1/275 209/1/303
f 235/1/128 236/1/131 229/1/304 234/1/305
f 347/1/306 435/1/307 434/1/308 427/1/309
f 347/1/306 427/1/309 352/1/310 348/1/311
f 553/1/312 559/1/313 558/1/314 554/1/315
f 40/1/316 41/1/88 34/1/87 39/1/317
f 193/1/318 254/1/319 250/1/320 247/1/321
f 633/1/154 696/1/322 638/1/323 632/1/324
f 208/1/325 239/1/326 233/1/327 230/1/328
f 227/1/329 228/1/330 223/1/187 226/1/331
f 352/1/310 427/1/309 426/1/332 422/1/333
f 220/1/334 695/1/335 689/1/224 414/1/227
f 352/1/310 422/1/333 359/1/148 353/1/151
f 231/1/336 234/1/305 229/1/304 228/1/330
f 130/1/337 127/1/338 65/1/339 125/1/340
f 200/1/341 247/1/321 242/1/342 239/1/326
f 41/1/88 49/1/343 48/1/110 42/1/89
f 647/1/344 653/1/345 652/1/346 648/1/347
f 54/1/116 63/1/348 64/1/349 55/1/117
f 240/1/350 333/1/351 231/1/336 232/1/352
f 223/1/187 228/1/330 229/1/304 224/1/109
f 208/1/325 230/1/328 215/1/301 209/1/303
f 187/1/353 193/1/318 194/1/354 159/1/355
f 237/1/130 368/1/356 244/1/83 238/1/84
f 431/1/64 453/1/357 439/1/35 432/1/65
f 102/1/266 142/1/265 141/1/358
f 512/1/359 513/1/360 492/1/361 507/1/362
f 496/1/363 491/1/284 488/1/364 495/1/365
f 705/1/68 708/1/6 700/1/81 699/1/197
f 332/1/366 333/1/351 240/1/350 328/1/367
f 347/1/306 348/1/311 332/1/366 343/1/368
f 105/1/369 147/1/370 98/1/371 97/1/372
f 158/1/373 209/1/303 173/1/275 168/1/276
f 24/1/51 29/1/374 25/1/56 20/1/52
f 93/1/263 148/1/375 149/1/264
f 202/1/376 280/1/377 188/1/378 195/1/379
f 146/1/380 147/1/370 105/1/369 140/1/381
f 152/1/382 201/1/383 158/1/373 151/1/384
f 85/1/173 156/1/172 148/1/375 93/1/263
f 840/1/385 841/1/251 811/1/250 831/1/386
f 658/1/96 542/1/289 545/1/231 552/1/230
f 146/1/380 151/1/384 150/1/387 147/1/370
f 320/1/388 336/1/389 327/1/390 321/1/391
f 200/1/341 239/1/326 208/1/325 201/1/383
f 167/1/392 160/1/393 132/1/394 166/1/395
f 98/1/371 154/1/159 106/1/158 99/1/396
f 150/1/387 154/1/159 98/1/371 147/1/370
f 851/1/397 855/1/398 839/1/399 822/1/400
f 157/1/170 165/1/401 164/1/171
f 233/1/327 239/1/326 242/1/342 241/1/402
f 310/1/403 326/1/404 320/1/388 314/1/405
f 229/1/304 236/1/131 217/1/85 224/1/109
f 98/1/371 99/1/396 90/1/406 97/1/372
f 248/1/407 328/1/367 240/1/350 241/1/402
f 345/1/408 346/1/147 304/1/180 341/1/179
f 215/1/301 230/1/328 227/1/329 226/1/331
f 227/1/329 232/1/352 231/1/336 228/1/330
f 90/1/406 89/1/294 83/1/409 88/1/410
f 83/1/409 89/1/294 84/1/293 76/1/411
f 515/1/412 520/1/413 509/1/414 510/1/415
f 327/1/390 343/1/368 332/1/366 328/1/367
f 255/1/416 321/1/391 248/1/407 249/1/417
f 67/1/164 83/1/409 76/1/411 68/1/165
f 342/1/418 435/1/307 347/1/306 343/1/368
f 221/1/419 219/1/215 189/1/237 216/1/302
f 352/1/310 353/1/151 243/1/420 348/1/311
f 344/1/421 350/1/422 334/1/423 338/1/424
f 139/1/425 140/1/381 119/1/426 133/1/427
f 320/1/388 321/1/391 255/1/416 314/1/405
f 87/1/428 112/1/429 105/1/369 97/1/372
f 333/1/351 243/1/420 234/1/305 231/1/336
f 183/1/430 182/1/431 190/1/432
f 558/1/314 561/1/433 555/1/434 554/1/315
f 441/1/435 435/1/307 342/1/418 437/1/436
f 215/1/301 226/1/331 221/1/419 216/1/302
f 193/1/318 247/1/321 200/1/341 194/1/354
f 82/1/437 67/1/164 59/1/136 58/1/135
f 190/1/432 196/1/132 197/1/134
f 90/1/406 99/1/396 91/1/291 89/1/294
f 441/1/435 444/1/438 449/1/439 448/1/440
f 159/1/355 194/1/354 152/1/382 153/1/441
f 436/1/282 437/1/436 331/1/442 429/1/254
f 331/1/442 336/1/389 320/1/388 326/1/404
f 331/1/442 437/1/436 342/1/418 336/1/389
f 134/1/443 135/1/121 101/1/120 102/1/266
f 197/1/134 203/1/106 204/1/108
f 82/1/437 88/1/410 83/1/409 67/1/164
f 73/1/444 127/1/338 126/1/445 120/1/446
f 428/1/253 451/1/447 450/1/448 442/1/281
f 139/1/425 153/1/441 146/1/380 140/1/381
f 139/1/425 160/1/393 159/1/355 153/1/441
f 704/1/69 705/1/68 707/1/449 141/1/358
f 204/1/108 210/1/86 211/1/73
f 423/1/450 424/1/256 313/1/451 417/1/452
f 355/1/453 362/1/454 363/1/455 356/1/456
f 307/1/299 308/1/457 272/1/458 303/1/300
f 443/1/459 470/1/460 449/1/439 444/1/438
f 143/1/461 706/1/462 692/1/463 695/1/335
f 546/1/464 549/1/465 539/1/466 540/1/467
f 367/1/150 368/1/356 237/1/130 360/1/129
f 441/1/435 448/1/440 434/1/308 435/1/307
f 365/1/468 366/1/469 345/1/408 358/1/470
f 80/1/471 112/1/429 87/1/428 81/1/472
f 80/1/471 120/1/446 119/1/426 112/1/429
f 49/1/343 74/1/473 75/1/474 48/1/110
f 134/1/443 707/1/449 698/1/196 706/1/462
f 136/1/122 207/1/475 128/1/295 129/1/123
f 81/1/472 75/1/474 74/1/473 80/1/471
f 73/1/444 120/1/446 80/1/471 74/1/473
f 126/1/445 133/1/427 119/1/426 120/1/446
f 256/1/476 257/1/477 250/1/320 254/1/319
f 65/1/339 66/1/478 40/1/316 57/1/479
f 65/1/339 127/1/338 73/1/444 66/1/478
f 310/1/403 314/1/405 264/1/480 308/1/457
f 130/1/337 131/1/481 126/1/445 127/1/338
f 132/1/394 133/1/427 126/1/445 131/1/481
f 132/1/394 160/1/393 139/1/425 133/1/427
f 56/1/482 125/1/340 65/1/339 57/1/479
f 47/1/118 57/1/479 40/1/316 39/1/317
f 467/1/483 468/1/484 460/1/485 462/1/486
f 138/1/487 166/1/395 132/1/394 131/1/481
f 56/1/482 57/1/479 47/1/118 55/1/117
f 167/1/392 187/1/353 159/1/355 160/1/393
f 282/1/488 283/1/489 274/1/490 280/1/377
f 124/1/491 125/1/340 56/1/482 118/1/492
f 124/1/491 137/1/493 130/1/337 125/1/340
f 438/1/494 440/1/495 446/1/269 445/1/496
f 182/1/431 205/1/214 196/1/132 190/1/432
f 182/1/431 183/1/430 175/1/497 174/1/498
f 172/1/499 178/1/500 167/1/392 166/1/395
f 121/1/501 177/1/502 145/1/503 144/1/504
f 186/1/505 187/1/353 167/1/392 178/1/500
f 186/1/505 254/1/319 193/1/318 187/1/353
f 32/1/176 37/1/175 38/1/506 33/1/507
f 259/1/508 269/1/22 261/1/14 260/1/45
f 300/1/509 301/1/510 293/1/511 285/1/28
f 402/1/512 472/1/513 409/1/102 403/1/514
f 179/1/515 263/1/516 186/1/505 178/1/500
f 243/1/420 353/1/151 235/1/128 234/1/305
f 186/1/505 263/1/516 256/1/476 254/1/319
f 19/1/55 26/1/57 27/1/517 22/1/518
f 663/1/5 664/1/8 610/1/519 656/1/520
f 19/1/55 22/1/518 14/1/25 13/1/521
f 64/1/349 118/1/492 56/1/482 55/1/117
f 179/1/515 271/1/522 266/1/523 263/1/516
f 256/1/476 265/1/524 264/1/480 257/1/477
f 146/1/380 153/1/441 152/1/382 151/1/384
f 258/1/71 267/1/53 259/1/508
f 25/1/56 31/1/177 32/1/176 26/1/57
f 262/1/43 261/1/14 268/1/13
f 649/1/525 662/1/526 655/1/527 650/1/528
f 14/1/25 22/1/518 21/1/529 15/1/26
f 272/1/458 308/1/457 264/1/480 265/1/524
f 233/1/327 232/1/352 227/1/329 230/1/328
f 266/1/523 273/1/530 272/1/458 265/1/524
f 208/1/325 209/1/303 158/1/373 201/1/383
f 20/1/52 25/1/56 19/1/55 13/1/521
f 23/1/47 24/1/51 17/1/50 16/1/27
f 5/1/36 9/1/15 10/1/531 7/1/37
f 582/1/532 583/1/533 473/1/534 575/1/535
f 161/1/156 181/1/243 169/1/242 162/1/157
f 198/1/184 315/1/280 191/1/232 192/1/536
f 317/1/255 429/1/254 331/1/442 326/1/404
f 317/1/255 326/1/404 310/1/403 311/1/537
f 677/1/19 156/1/172 164/1/171 676/1/538
f 259/1/508 260/1/45 252/1/62 258/1/71
f 313/1/451 311/1/537 307/1/299 312/1/298
f 87/1/428 97/1/372 90/1/406 88/1/410
f 130/1/337 137/1/493 138/1/487 131/1/481
f 284/1/10 287/1/539 292/1/540
f 286/1/29 285/1/28 293/1/511
f 286/1/29 293/1/511 294/1/541
f 286/1/29 294/1/541 287/1/539
f 287/1/539 294/1/541 292/1/540
f 402/1/512 479/1/542 478/1/543 472/1/513
f 250/1/320 249/1/417 242/1/342 247/1/321
f 318/1/544 417/1/452 313/1/451 312/1/298
f 119/1/426 140/1/381 105/1/369 112/1/429
f 264/1/480 314/1/405 255/1/416 257/1/477
f 11/1/20 18/1/46 16/1/27 12/1/21
f 293/1/511 301/1/510 294/1/541
f 302/1/208 319/1/207 318/1/544 312/1/298
f 477/1/545 485/1/127 467/1/483 470/1/460
f 416/1/104 457/1/546 423/1/450 417/1/452
f 106/1/158 109/1/258 91/1/291 99/1/396
f 184/1/234 305/1/233 202/1/376 195/1/379
f 717/1/547 719/1/548 715/1/549 712/1/550
f 300/1/509 285/1/28 306/1/49
f 302/1/208 303/1/300 281/1/551 296/1/209
f 281/1/551 303/1/300 272/1/458 273/1/530
f 277/1/30 276/1/31 309/1/48
f 735/1/552 727/1/553 726/1/554 734/1/555
f 274/1/490 283/1/489 281/1/551 273/1/530
f 274/1/490 273/1/530 266/1/523 271/1/522
f 298/1/206 325/1/556 324/1/557 319/1/207
f 449/1/439 470/1/460 467/1/483 462/1/486
f 282/1/488 289/1/558 288/1/559 283/1/489
f 694/1/198 699/1/197 700/1/81 696/1/322
f 66/1/478 73/1/444 74/1/473 49/1/343
f 188/1/378 280/1/377 274/1/490 271/1/522
f 150/1/387 168/1/276 161/1/156 154/1/159
f 443/1/459 444/1/438 436/1/282 442/1/281
f 202/1/376 291/1/560 282/1/488 280/1/377
f 30/1/561 31/1/177 25/1/56 29/1/374
f 324/1/557 410/1/105 318/1/544 319/1/207
f 128/1/295 207/1/475 206/1/182 199/1/185
f 176/1/562 195/1/379 188/1/378 180/1/563
f 176/1/562 180/1/563 172/1/499 171/1/564
f 345/1/408 366/1/469 351/1/144 346/1/147
f 242/1/342 249/1/417 248/1/407 241/1/402
f 200/1/341 201/1/383 152/1/382 194/1/354
f 256/1/476 263/1/516 266/1/523 265/1/524
f 40/1/316 66/1/478 49/1/343 41/1/88
f 548/1/565 550/1/566 496/1/363 541/1/567
f 145/1/503 137/1/493 124/1/491 144/1/504
f 339/1/568 338/1/424 322/1/277 337/1/183
f 288/1/559 296/1/209 281/1/551 283/1/489
f 221/1/419 226/1/331 223/1/187 225/1/186
f 443/1/459 476/1/569 477/1/545 470/1/460
f 423/1/450 457/1/546 456/1/570 451/1/447
f 456/1/570 481/1/571 450/1/448 451/1/447
f 233/1/327 241/1/402 240/1/350 232/1/352
f 184/1/234 195/1/379 176/1/562 177/1/502
f 450/1/448 481/1/571 482/1/283 476/1/569
f 482/1/283 483/1/286 477/1/545 476/1/569
f 463/1/572 489/1/573 456/1/570 457/1/546
f 416/1/104 464/1/103 463/1/572 457/1/546
f 434/1/308 448/1/440 454/1/267 447/1/270
f 641/1/574 642/1/575 618/1/212 635/1/576
f 471/1/577 497/1/578 463/1/572 464/1/103
f 409/1/102 472/1/513 471/1/577 464/1/103
f 45/1/579 53/1/580 54/1/116 46/1/119
f 114/1/581 144/1/504 124/1/491 118/1/492
f 344/1/421 364/1/582 357/1/583 350/1/422
f 369/1/584 371/1/585 363/1/455 362/1/454
f 456/1/570 489/1/573 488/1/364 481/1/571
f 488/1/364 491/1/284 482/1/283 481/1/571
f 188/1/378 271/1/522 179/1/515 180/1/563
f 114/1/581 118/1/492 64/1/349 111/1/586
f 72/1/587 63/1/348 62/1/204 71/1/203
f 117/1/588 185/1/235 121/1/501 115/1/589
f 490/1/285 505/1/590 484/1/124 483/1/286
f 397/1/591 487/1/592 486/1/593 479/1/542
f 463/1/572 497/1/578 494/1/594 489/1/573
f 143/1/461 695/1/335 220/1/334 213/1/595
f 225/1/186 222/1/133 219/1/215 221/1/419
f 450/1/448 476/1/569 443/1/459 442/1/281
f 557/1/596 505/1/590 490/1/285 550/1/566
f 560/1/597 562/1/249 557/1/596 556/1/598
f 220/1/334 354/1/599 214/1/600 213/1/595
f 334/1/423 350/1/422 340/1/601 335/1/602
f 502/1/603 511/1/604 494/1/594 497/1/578
f 471/1/577 503/1/605 502/1/603 497/1/578
f 214/1/600 207/1/475 136/1/122 213/1/595
f 571/1/606 579/1/101 580/1/201 574/1/262
f 795/1/160 803/1/163 800/1/607 796/1/608
f 434/1/308 447/1/270 426/1/332 427/1/309
f 501/1/609 541/1/567 496/1/363 495/1/365
f 494/1/594 511/1/604 501/1/609 495/1/365
f 145/1/503 171/1/564 138/1/487 137/1/493
f 474/1/126 498/1/125 480/1/610 475/1/611
f 36/1/174 31/1/177 30/1/561 35/1/612
f 110/1/613 111/1/586 72/1/587 104/1/614
f 78/1/615 104/1/614 72/1/587 71/1/203
f 62/1/204 53/1/580 52/1/616 61/1/205
f 516/1/617 533/1/618 501/1/609 511/1/604
f 365/1/468 382/1/619 372/1/620 366/1/469
f 672/1/193 673/1/621 678/1/622 676/1/538
f 793/1/623 797/1/624 795/1/160 796/1/608
f 689/1/224 695/1/335 692/1/463 688/1/189
f 509/1/414 517/1/625 502/1/603 503/1/605
f 520/1/413 522/1/626 517/1/625 509/1/414
f 369/1/584 401/1/241 375/1/627 371/1/585
f 546/1/464 554/1/315 555/1/434 549/1/465
f 526/1/628 527/1/629 522/1/626 525/1/630
f 698/1/196 707/1/449 705/1/68 699/1/197
f 657/1/97 653/1/345 651/1/631 654/1/98
f 395/1/240 524/1/632 388/1/633 385/1/634
f 43/1/635 44/1/636 36/1/174 35/1/612
f 694/1/198 696/1/322 633/1/154 690/1/153
f 828/1/637 837/1/638 829/1/639 821/1/640
f 52/1/616 53/1/580 45/1/579 44/1/636
f 69/1/202 79/1/641 78/1/615 71/1/203
f 528/1/642 535/1/290 534/1/643 529/1/644
f 586/1/100 606/1/287 597/1/645 589/1/200
f 330/1/146 403/1/514 324/1/557 325/1/556
f 402/1/512 403/1/514 330/1/146 398/1/145
f 372/1/620 392/1/646 351/1/144 366/1/469
f 706/1/462 698/1/196 693/1/199 692/1/463
f 62/1/204 63/1/348 54/1/116 53/1/580
f 652/1/346 670/1/647 665/1/648 659/1/649
f 619/1/211 584/1/139 585/1/138 595/1/650
f 304/1/180 346/1/147 330/1/146 325/1/556
f 304/1/180 325/1/556 298/1/206 297/1/181
f 60/1/651 61/1/205 52/1/616 51/1/652
f 638/1/323 701/1/82 644/1/653 639/1/654
f 72/1/587 111/1/586 64/1/349 63/1/348
f 558/1/314 564/1/655 565/1/656 561/1/433
f 295/1/178 297/1/181 288/1/559 289/1/558
f 631/1/657 634/1/155 612/1/658 626/1/659
f 404/1/141 420/1/140 411/1/660 405/1/661
f 388/1/633 519/1/662 514/1/663 387/1/664
f 638/1/323 639/1/654 603/1/665 632/1/324
f 290/1/666 335/1/602 295/1/178 289/1/558
f 282/1/488 291/1/560 290/1/666 289/1/558
f 94/1/667 86/1/668 85/1/173 93/1/263
f 404/1/141 405/1/661 400/1/669 399/1/94
f 415/1/226 537/1/670 407/1/238 408/1/671
f 117/1/588 115/1/589 110/1/613 116/1/672
f 299/1/279 329/1/278 290/1/666 291/1/560
f 202/1/376 305/1/233 299/1/279 291/1/560
f 502/1/603 517/1/625 516/1/617 511/1/604
f 563/1/673 570/1/674 569/1/74 564/1/655
f 32/1/176 33/1/507 27/1/517 26/1/57
f 416/1/104 417/1/452 318/1/544 410/1/105
f 117/1/588 192/1/536 191/1/232 185/1/235
f 191/1/232 315/1/280 299/1/279 305/1/233
f 436/1/282 444/1/438 441/1/435 437/1/436
f 552/1/230 681/1/229 665/1/648 670/1/647
f 103/1/675 116/1/672 110/1/613 104/1/614
f 307/1/299 311/1/537 310/1/403 308/1/457
f 198/1/184 337/1/183 322/1/277 315/1/280
f 334/1/423 335/1/602 290/1/666 329/1/278
f 322/1/277 338/1/424 334/1/423 329/1/278
f 730/1/223 731/1/222 721/1/676 729/1/677
f 580/1/201 589/1/200 588/1/678 581/1/260
f 687/1/190 690/1/153 640/1/152 683/1/191
f 122/1/296 192/1/536 117/1/588 116/1/672
f 214/1/600 349/1/679 206/1/182 207/1/475
f 367/1/150 413/1/149 412/1/143 406/1/142
f 612/1/658 634/1/155 633/1/154 632/1/324
f 174/1/498 212/1/236 205/1/214 182/1/431
f 453/1/357 458/1/32 439/1/35
f 103/1/675 104/1/614 78/1/615 95/1/680
f 121/1/501 185/1/235 184/1/234 177/1/502
f 598/1/681 645/1/682 590/1/683 591/1/684
f 494/1/594 495/1/365 488/1/364 489/1/573
f 454/1/267 462/1/486 460/1/485 455/1/268
f 555/1/434 561/1/433 560/1/597 556/1/598
f 396/1/685 500/1/686 391/1/166 390/1/687
f 173/1/275 216/1/302 189/1/237 181/1/243
f 313/1/451 424/1/256 317/1/255 311/1/537
f 461/1/34 466/1/33 469/1/688
f 357/1/583 358/1/470 340/1/601 350/1/422
f 143/1/461 213/1/595 136/1/122 135/1/121
f 460/1/485 468/1/484 465/1/689 459/1/690
f 466/1/33 473/1/534 469/1/688
f 652/1/346 659/1/649 631/1/657 648/1/347
f 665/1/648 683/1/191 640/1/152 659/1/649
f 298/1/206 296/1/209 288/1/559 297/1/181
f 206/1/182 349/1/679 339/1/568 337/1/183
f 397/1/591 398/1/145 351/1/144 392/1/646
f 397/1/591 479/1/542 402/1/512 398/1/145
f 595/1/650 635/1/576 618/1/212 619/1/211
f 768/1/691 772/1/692 767/1/693 765/1/694
f 423/1/450 451/1/447 428/1/253 424/1/256
f 618/1/212 642/1/575 625/1/695 617/1/213
f 355/1/453 356/1/456 339/1/568 349/1/679
f 110/1/613 115/1/589 114/1/581 111/1/586
f 449/1/439 462/1/486 454/1/267 448/1/440
f 486/1/593 510/1/415 478/1/543 479/1/542
f 122/1/296 199/1/185 198/1/184 192/1/536
f 597/1/645 604/1/696 603/1/665 599/1/697
f 631/1/657 659/1/649 640/1/152 634/1/155
f 363/1/455 364/1/582 344/1/421 356/1/456
f 220/1/334 414/1/227 361/1/698 354/1/599
f 486/1/593 513/1/360 515/1/412 510/1/415
f 237/1/130 238/1/84 217/1/85 236/1/131
f 357/1/583 376/1/699 365/1/468 358/1/470
f 370/1/700 376/1/699 357/1/583 364/1/582
f 363/1/455 371/1/585 370/1/700 364/1/582
f 515/1/412 518/1/701 521/1/702 520/1/413
f 86/1/668 79/1/641 77/1/703 85/1/173
f 531/1/704 533/1/618 516/1/617 527/1/629
f 539/1/466 549/1/465 548/1/565 541/1/567
f 393/1/168 392/1/646 372/1/620 389/1/169
f 45/1/579 46/1/119 38/1/506 37/1/175
f 144/1/504 114/1/581 115/1/589 121/1/501
f 539/1/466 541/1/567 501/1/609 533/1/618
f 500/1/686 506/1/705 499/1/706
f 500/1/686 396/1/685 506/1/705
f 499/1/706 506/1/705 507/1/362
f 396/1/685 508/1/707 506/1/705
f 393/1/168 487/1/592 397/1/591 392/1/646
f 522/1/626 527/1/629 516/1/617 517/1/625
f 507/1/362 506/1/705 512/1/359
f 512/1/359 518/1/701 515/1/412 513/1/360
f 538/1/708 540/1/467 531/1/704 532/1/709
f 508/1/707 514/1/663 506/1/705
f 538/1/708 547/1/710 546/1/464 540/1/467
f 393/1/168 493/1/167 492/1/361 487/1/592
f 492/1/361 513/1/360 486/1/593 487/1/592
f 340/1/601 341/1/179 295/1/178 335/1/602
f 438/1/494 445/1/496 431/1/64 430/1/67
f 383/1/711 389/1/169 372/1/620 382/1/619
f 512/1/359 506/1/705 518/1/701
f 514/1/663 519/1/662 506/1/705
f 421/1/712 440/1/495 438/1/494 433/1/713
f 518/1/701 506/1/705 521/1/702
f 383/1/711 390/1/687 391/1/166 389/1/169
f 379/1/78 399/1/94 400/1/669 394/1/714
f 391/1/166 500/1/686 499/1/706 493/1/167
f 553/1/312 554/1/315 546/1/464 547/1/710
f 519/1/662 523/1/715 506/1/705
f 521/1/702 506/1/705 525/1/630
f 692/1/463 693/1/199 687/1/190 688/1/189
f 525/1/630 506/1/705 526/1/628
f 647/1/344 642/1/575 641/1/574 646/1/716
f 88/1/410 82/1/437 81/1/472 87/1/428
f 523/1/715 529/1/644 506/1/705
f 386/1/717 390/1/687 383/1/711 384/1/718
f 386/1/717 508/1/707 396/1/685 390/1/687
f 526/1/628 506/1/705 532/1/709
f 529/1/644 534/1/643 506/1/705
f 563/1/673 564/1/655 558/1/314 559/1/313
f 651/1/631 653/1/345 647/1/344 646/1/716
f 565/1/656 566/1/719 560/1/597 561/1/433
f 532/1/709 506/1/705 538/1/708
f 542/1/289 658/1/96 551/1/95 543/1/720
f 381/1/721 384/1/718 378/1/722 377/1/723
f 381/1/721 387/1/664 386/1/717 384/1/718
f 569/1/74 572/1/77 565/1/656 564/1/655
f 77/1/703 79/1/641 69/1/202 70/1/724
f 534/1/643 543/1/720 506/1/705
f 682/1/188 686/1/225 689/1/224 688/1/189
f 107/1/245 170/1/244 113/1/725 108/1/259
f 381/1/721 385/1/634 388/1/633 387/1/664
f 375/1/627 385/1/634 381/1/721 377/1/723
f 538/1/708 506/1/705 547/1/710
f 388/1/633 524/1/632 523/1/715 519/1/662
f 426/1/332 440/1/495 421/1/712 422/1/333
f 526/1/628 532/1/709 531/1/704 527/1/629
f 543/1/720 551/1/95 506/1/705
f 86/1/668 95/1/680 78/1/615 79/1/641
f 379/1/78 394/1/714 323/1/726 380/1/79
f 547/1/710 506/1/705 553/1/312
f 145/1/503 177/1/502 176/1/562 171/1/564
f 375/1/627 377/1/723 370/1/700 371/1/585
f 625/1/695 648/1/347 631/1/657 626/1/659
f 474/1/126 475/1/611 465/1/689 468/1/484
f 359/1/148 422/1/333 421/1/712 413/1/149
f 91/1/291 109/1/258 100/1/257 92/1/292
f 395/1/240 530/1/239 528/1/642 524/1/632
f 528/1/642 529/1/644 523/1/715 524/1/632
f 553/1/312 506/1/705 559/1/313
f 327/1/390 328/1/367 248/1/407 321/1/391
f 169/1/242 212/1/236 174/1/498 170/1/244
f 559/1/313 506/1/705 563/1/673
f 96/1/727 123/1/297 103/1/675 95/1/680
f 536/1/288 535/1/290 528/1/642 530/1/239
f 60/1/651 70/1/724 69/1/202 61/1/205
f 748/1/39 749/1/92 740/1/728 741/1/40
f 499/1/706 507/1/362 492/1/361 493/1/167
f 542/1/289 543/1/720 534/1/643 535/1/290
f 426/1/332 447/1/270 446/1/269 440/1/495
f 563/1/673 506/1/705 570/1/674
f 765/1/694 767/1/693 764/1/729 762/1/730
f 657/1/97 670/1/647 652/1/346 653/1/345
f 687/1/190 693/1/199 694/1/198 690/1/153
f 378/1/722 376/1/699 370/1/700 377/1/723
f 679/1/731 678/1/622 673/1/621 674/1/732
f 570/1/674 506/1/705 576/1/137
f 412/1/143 433/1/713 418/1/733 420/1/140
f 746/1/734 753/1/90 748/1/39 745/1/42
f 544/1/228 686/1/225 682/1/188 681/1/229
f 418/1/733 430/1/67 425/1/66 419/1/735
f 830/1/736 822/1/400 839/1/399 838/1/737
f 838/1/737 840/1/385 831/1/386 830/1/736
f 473/1/534 583/1/533 469/1/688
f 480/1/610 575/1/535 473/1/534 475/1/611
f 101/1/120 129/1/123 96/1/727 94/1/667
f 576/1/137 506/1/705 585/1/138
f 407/1/238 537/1/670 536/1/288 530/1/239
f 578/1/76 579/1/101 571/1/606 572/1/77
f 378/1/722 382/1/619 365/1/468 376/1/699
f 728/1/738 736/1/739 737/1/740 732/1/741
f 624/1/742 703/1/743 697/1/744 702/1/745
f 583/1/533 590/1/683 469/1/688
f 469/1/688 592/1/746 593/1/747
f 469/1/688 590/1/683 594/1/748
f 469/1/688 594/1/748 592/1/746
f 585/1/138 506/1/705 595/1/650
f 560/1/597 566/1/719 567/1/246 562/1/249
f 361/1/698 362/1/454 355/1/453 354/1/599
f 597/1/645 599/1/697 588/1/678 589/1/200
f 361/1/698 408/1/671 369/1/584 362/1/454
f 411/1/660 420/1/140 418/1/733 419/1/735
f 452/1/749 459/1/690 458/1/32 453/1/357
f 728/1/738 720/1/750 719/1/548 727/1/553
f 802/1/751 814/1/752 813/1/753 804/1/161
f 852/1/754 855/1/398 851/1/397 846/1/755
f 565/1/656 572/1/77 571/1/606 566/1/719
f 134/1/443 706/1/462 143/1/461 135/1/121
f 484/1/124 485/1/127 477/1/545 483/1/286
f 250/1/320 257/1/477 255/1/416 249/1/417
f 600/1/756 607/1/757 608/1/758
f 600/1/756 609/1/759 607/1/757
f 702/1/745 615/1/760 616/1/761 624/1/742
f 609/1/759 592/1/746 602/1/762 611/1/763
f 702/1/745 636/1/764 628/1/765 615/1/760
f 592/1/746 609/1/759 600/1/756 593/1/747
f 172/1/499 180/1/563 179/1/515 178/1/500
f 367/1/150 406/1/142 373/1/93 368/1/356
f 608/1/758 607/1/757 613/1/766
f 611/1/763 614/1/767 607/1/757 609/1/759
f 421/1/712 433/1/713 412/1/143 413/1/149
f 465/1/689 475/1/611 473/1/534 466/1/33
f 613/1/766 607/1/757 620/1/768
f 613/1/766 620/1/768 621/1/769
f 613/1/766 621/1/769 622/1/770
f 607/1/757 623/1/771 620/1/768
f 614/1/767 623/1/771 607/1/757
f 614/1/767 615/1/760 623/1/771
f 620/1/768 623/1/771 621/1/769
f 636/1/764 691/1/17 685/1/16 680/1/772
f 637/1/773 668/1/774 649/1/525 643/1/775
f 555/1/434 556/1/598 548/1/565 549/1/465
f 597/1/645 606/1/287 605/1/776 604/1/696
f 622/1/770 621/1/769 627/1/777
f 623/1/771 615/1/760 628/1/765
f 623/1/771 629/1/778 621/1/769
f 623/1/771 628/1/765 630/1/779
f 623/1/771 630/1/779 629/1/778
f 375/1/627 401/1/241 395/1/240 385/1/634
f 605/1/776 626/1/659 612/1/658 604/1/696
f 612/1/658 632/1/324 603/1/665 604/1/696
f 595/1/650 506/1/705 635/1/576
f 628/1/765 636/1/764 630/1/779
f 594/1/748 601/1/780 602/1/762 592/1/746
f 629/1/778 637/1/773 621/1/769
f 629/1/778 630/1/779 637/1/773
f 596/1/210 617/1/213 605/1/776 606/1/287
f 647/1/344 648/1/347 625/1/695 642/1/575
f 485/1/127 474/1/126 468/1/484 467/1/483
f 339/1/568 356/1/456 344/1/421 338/1/424
f 635/1/576 506/1/705 641/1/574
f 340/1/601 358/1/470 345/1/408 341/1/179
f 621/1/769 637/1/773 643/1/775
f 621/1/769 643/1/775 627/1/777
f 678/1/622 679/1/731 685/1/16 677/1/19
f 47/1/118 39/1/317 38/1/506 46/1/119
f 27/1/517 28/1/781 21/1/529 22/1/518
f 641/1/574 506/1/705 646/1/716
f 484/1/124 505/1/590 504/1/248 498/1/125
f 96/1/727 129/1/123 128/1/295 123/1/297
f 636/1/764 702/1/745 697/1/744 691/1/17
f 643/1/775 649/1/525 627/1/777
f 627/1/777 649/1/525 650/1/528
f 36/1/174 44/1/636 45/1/579 37/1/175
f 646/1/716 506/1/705 651/1/631
f 496/1/363 550/1/566 490/1/285 491/1/284
f 332/1/366 348/1/311 243/1/420 333/1/351
f 506/1/705 551/1/95 654/1/98
f 506/1/705 654/1/98 651/1/631
f 278/1/23 286/1/29 279/1/9 270/1/12
f 172/1/499 166/1/395 138/1/487 171/1/564
f 386/1/717 387/1/664 514/1/663 508/1/707
f 573/1/261 575/1/535 480/1/610 568/1/247
f 244/1/83 374/1/80 251/1/70 245/1/72
f 655/1/527 660/1/195 661/1/782
f 661/1/782 660/1/195 165/1/401
f 655/1/527 662/1/526 660/1/195
f 691/1/17 697/1/744 155/1/783 684/1/18
f 835/1/784 844/1/785 780/1/786 826/1/787
f 369/1/584 408/1/671 407/1/238 401/1/241
f 730/1/223 741/1/40 740/1/728 739/1/220
f 669/1/7 703/1/743 624/1/742 664/1/8
f 662/1/526 666/1/192 660/1/195
f 660/1/195 667/1/194 165/1/401
f 637/1/773 675/1/788 674/1/732 668/1/774
f 13/1/521 14/1/25 7/1/37 10/1/531
f 830/1/736 831/1/386 805/1/162 823/1/789
f 373/1/93 374/1/80 244/1/83 368/1/356
f 165/1/401 671/1/790 164/1/171
f 165/1/401 667/1/194 671/1/790
f 667/1/194 672/1/193 671/1/790
f 666/1/192 673/1/621 672/1/193
f 287/1/539 284/1/10 279/1/9 286/1/29
f 666/1/192 668/1/774 674/1/732
f 666/1/192 674/1/732 673/1/621
f 637/1/773 630/1/779 675/1/788
f 644/1/653 645/1/682 598/1/681 639/1/654
f 645/1/682 601/1/780 594/1/748 590/1/683
f 817/1/791 825/1/792 818/1/793 810/1/794
f 676/1/538 678/1/622 677/1/19
f 603/1/665 639/1/654 598/1/681 599/1/697
f 674/1/732 675/1/788 679/1/731
f 630/1/779 679/1/731 675/1/788
f 630/1/779 636/1/764 680/1/772
f 630/1/779 680/1/772 679/1/731
f 815/1/252 833/1/795 807/1/796 809/1/59
f 96/1/727 95/1/680 86/1/668 94/1/667
f 7/1/37 14/1/25 8/1/24 6/1/38
f 16/1/27 17/1/50 10/1/531 9/1/15
f 679/1/731 680/1/772 685/1/16
f 610/1/519 616/1/761 611/1/763 602/1/762
f 155/1/783 163/1/797 142/1/265 149/1/264
f 446/1/269 455/1/268 452/1/749 445/1/496
f 361/1/698 414/1/227 415/1/226 408/1/671
f 103/1/675 123/1/297 122/1/296 116/1/672
f 576/1/137 577/1/75 569/1/74 570/1/674
f 625/1/695 626/1/659 605/1/776 617/1/213
f 52/1/616 44/1/636 43/1/635 51/1/652
f 269/1/22 259/1/508 267/1/53 276/1/31
f 504/1/248 568/1/247 480/1/610 498/1/125
f 355/1/453 349/1/679 214/1/600 354/1/599
f 700/1/81 701/1/82 638/1/323 696/1/322
f 601/1/780 656/1/520 610/1/519 602/1/762
f 582/1/532 591/1/684 590/1/683 583/1/533
f 155/1/783 697/1/744 163/1/797
f 531/1/704 540/1/467 539/1/466 533/1/618
f 584/1/139 587/1/99 578/1/76 577/1/75
f 342/1/418 343/1/368 327/1/390 336/1/389
f 571/1/606 574/1/262 567/1/246 566/1/719
f 825/1/792 834/1/798 826/1/787 818/1/793
f 684/1/18 148/1/375 156/1/172 677/1/19
f 644/1/653 656/1/520 601/1/780 645/1/682
f 703/1/743 669/1/7 704/1/69
f 755/1/273 761/1/272 760/1/799 759/1/800
f 557/1/596 562/1/249 504/1/248 505/1/590
f 573/1/261 581/1/260 582/1/532 575/1/535
f 380/1/79 323/1/726 316/1/54 267/1/53
f 378/1/722 384/1/718 383/1/711 382/1/619
f 846/1/755 851/1/397 829/1/639 837/1/638
f 409/1/102 410/1/105 324/1/557 403/1/514
f 710/1/112 713/1/801 714/1/113
f 710/1/112 715/1/549 713/1/801
f 611/1/763 616/1/761 615/1/760 614/1/767
f 820/1/802 828/1/637 821/1/640 813/1/753
f 2/1/2 9/1/15 5/1/36 3/1/3
f 713/1/801 715/1/549 719/1/548
f 713/1/801 719/1/548 720/1/750
f 588/1/678 599/1/697 598/1/681 591/1/684
f 713/1/801 720/1/750 722/1/803
f 716/1/804 718/1/805 723/1/806
f 718/1/805 721/1/676 723/1/806
f 716/1/804 723/1/806 724/1/807
f 717/1/547 725/1/808 719/1/548
f 610/1/519 664/1/8 624/1/742 616/1/761
f 813/1/753 823/1/789 805/1/162 804/1/161
f 93/1/263 102/1/266 101/1/120 94/1/667
f 839/1/399 854/1/809 847/1/810 838/1/737
f 721/1/676 731/1/222 723/1/806
f 703/1/743 704/1/69 163/1/797 697/1/744
f 857/1/811 858/1/812 854/1/809 856/1/813
f 802/1/751 804/1/161 795/1/160 797/1/624
f 701/1/82 663/1/5 656/1/520 644/1/653
f 805/1/162 831/1/386 811/1/250 803/1/163
f 755/1/273 759/1/800 757/1/91 753/1/90
f 33/1/507 34/1/87 28/1/781 27/1/517
f 854/1/809 858/1/812 853/1/814 847/1/810
f 847/1/810 853/1/814 849/1/815 848/1/816
f 478/1/543 510/1/415 509/1/414 503/1/605
f 557/1/596 550/1/566 548/1/565 556/1/598
f 800/1/607 803/1/163 811/1/250 806/1/58
f 723/1/806 731/1/222 733/1/221 724/1/807
f 840/1/385 848/1/816 842/1/817 841/1/251
f 849/1/815 843/1/818 842/1/817 848/1/816
f 815/1/252 841/1/251 842/1/817 833/1/795
f 743/1/819 744/1/820 750/1/218
f 742/1/821 750/1/218 744/1/820
f 742/1/821 751/1/822 750/1/218
f 743/1/819 750/1/218 752/1/823
f 743/1/819 752/1/823 747/1/824
f 746/1/734 747/1/824 754/1/274
f 544/1/228 545/1/231 536/1/288 537/1/670
f 163/1/797 704/1/69 141/1/358 142/1/265
f 752/1/823 750/1/218 756/1/271
f 799/1/60 809/1/59 807/1/796 808/1/825
f 842/1/817 843/1/818 832/1/826 833/1/795
f 807/1/796 833/1/795 832/1/826 824/1/827
f 751/1/822 758/1/828 750/1/218
f 807/1/796 824/1/827 816/1/829 808/1/825
f 756/1/271 762/1/730 761/1/272
f 758/1/828 763/1/830 750/1/218
f 761/1/272 762/1/730 764/1/729
f 760/1/799 761/1/272 764/1/729
f 415/1/226 686/1/225 544/1/228 537/1/670
f 763/1/830 766/1/831 750/1/218
f 670/1/647 657/1/97 658/1/96 552/1/230
f 766/1/831 769/1/219 750/1/218
f 778/1/832 782/1/833 779/1/834 771/1/217
f 768/1/691 773/1/835 772/1/692
f 768/1/691 774/1/836 773/1/835
f 770/1/216 775/1/837 771/1/217
f 771/1/217 775/1/837 776/1/838
f 771/1/217 776/1/838 777/1/839
f 771/1/217 777/1/839 778/1/832
f 676/1/538 164/1/171 671/1/790 672/1/193
f 774/1/836 780/1/786 773/1/835
f 773/1/835 780/1/786 781/1/840
f 781/1/840 780/1/786 783/1/841
f 781/1/840 783/1/841 784/1/842
f 782/1/833 785/1/843 779/1/834
f 783/1/841 780/1/786 786/1/844
f 785/1/843 787/1/845 779/1/834
f 786/1/844 780/1/786 788/1/846
f 787/1/845 789/1/847 779/1/834
f 788/1/846 780/1/786 790/1/848
f 789/1/847 791/1/849 779/1/834
f 790/1/848 780/1/786 792/1/850
f 791/1/849 793/1/623 779/1/834
f 792/1/850 780/1/786 794/1/851
f 742/1/821 744/1/820 735/1/552 734/1/555
f 793/1/623 796/1/608 779/1/834
f 779/1/834 798/1/61 799/1/60
f 779/1/834 800/1/607 798/1/61
f 779/1/834 796/1/608 800/1/607
f 735/1/552 744/1/820 743/1/819 736/1/739
f 794/1/851 780/1/786 801/1/852
f 17/1/50 20/1/52 13/1/521 10/1/531
f 735/1/552 736/1/739 728/1/738 727/1/553
f 798/1/61 800/1/607 806/1/58
f 756/1/271 754/1/274 747/1/824 752/1/823
f 682/1/188 683/1/191 665/1/648 681/1/229
f 799/1/60 808/1/825 810/1/794
f 82/1/437 58/1/135 75/1/474 81/1/472
f 148/1/375 684/1/18 155/1/783 149/1/264
f 801/1/852 780/1/786 812/1/853
f 649/1/525 668/1/774 666/1/192 662/1/526
f 726/1/554 727/1/553 719/1/548 725/1/808
f 737/1/740 747/1/824 746/1/734 745/1/42
f 806/1/58 815/1/252 809/1/59
f 755/1/273 753/1/90 746/1/734 754/1/274
f 141/1/358 707/1/449 134/1/443 102/1/266
f 808/1/825 817/1/791 810/1/794
f 808/1/825 816/1/829 817/1/791
f 584/1/139 619/1/211 596/1/210 587/1/99
f 812/1/853 780/1/786 819/1/854
f 814/1/752 820/1/802 813/1/753
f 38/1/506 39/1/317 34/1/87 33/1/507
f 813/1/753 821/1/640 822/1/400
f 813/1/753 822/1/400 823/1/789
f 174/1/498 175/1/497 113/1/725 170/1/244
f 819/1/854 780/1/786 827/1/855
f 821/1/640 829/1/639 822/1/400
f 712/1/550 715/1/549 710/1/112 709/1/115
f 823/1/789 822/1/400 830/1/736
f 728/1/738 732/1/741 722/1/803 720/1/750
f 75/1/474 58/1/135 50/1/111 48/1/110
f 826/1/787 834/1/798 835/1/784
f 588/1/678 591/1/684 582/1/532 581/1/260
f 827/1/855 780/1/786 836/1/856
f 732/1/741 738/1/41 729/1/677 722/1/803
f 722/1/803 729/1/677 721/1/676 713/1/801
f 737/1/740 745/1/42 738/1/41 732/1/741
f 460/1/485 459/1/690 452/1/749 455/1/268
f 465/1/689 466/1/33 458/1/32 459/1/690
f 847/1/810 848/1/816 840/1/385 838/1/737
f 836/1/856 780/1/786 845/1/857
f 433/1/713 438/1/494 430/1/67 418/1/733
f 251/1/70 380/1/79 267/1/53 258/1/71
f 738/1/41 741/1/40 730/1/223 729/1/677
f 478/1/543 503/1/605 471/1/577 472/1/513
f 521/1/702 525/1/630 522/1/626 520/1/413
f 844/1/785 850/1/858 780/1/786
f 780/1/786 850/1/858 845/1/857
f 829/1/639 851/1/397 822/1/400
f 714/1/113 718/1/805 716/1/804 711/1/114
f 743/1/819 747/1/824 737/1/740 736/1/739
f 713/1/801 721/1/676 718/1/805 714/1/113
f 852/1/754 856/1/813 855/1/398
f 839/1/399 855/1/398 856/1/813
f 839/1/399 856/1/813 854/1/809
f 852/1/754 857/1/811 856/1/813
f 452/1/749 453/1/357 431/1/64 445/1/496
f 158/1/373 168/1/276 150/1/387 151/1/384
