# Blender 4.3.2
# www.blender.org
o hair.079
v 7.537230 1.315830 0.007942
v 7.536362 1.317568 0.004280
v 7.543540 1.318372 0.004393
v 7.538969 1.312354 0.015266
v 7.539796 1.308043 -0.004774
v 7.550131 1.304550 -0.007099
v 7.542099 1.303164 -0.007618
v 7.545496 1.314461 0.012633
v 7.542232 1.313408 0.013950
v 7.542201 1.320781 0.015793
v 7.538933 1.320781 0.017373
v 7.545149 1.299140 -0.011042
v 7.549361 1.295417 -0.013543
v 7.554232 1.292771 -0.016214
v 7.565077 1.291374 -0.017020
v 7.565077 1.304550 -0.007099
v 7.545469 1.320781 0.014213
v 7.540071 1.329208 0.019480
v 7.543197 1.328155 0.017636
v 7.537884 1.323687 0.012306
v 7.538969 1.312354 0.015266
v 7.538930 1.331544 0.016671
v 7.580022 1.304550 -0.007099
v 7.546323 1.327102 0.015793
v 7.541520 1.339044 0.019911
v 7.542184 1.336778 0.022616
v 7.543832 1.335514 0.021512
v 7.544830 1.334785 0.020767
v 7.537230 1.315830 0.007942
v 7.537360 1.325140 0.009773
v 7.536362 1.317568 0.004280
v 7.538359 1.332712 0.015266
v 7.541054 1.340292 0.018249
v 7.547425 1.332945 0.018703
v 7.543519 1.342361 0.021522
v 7.544531 1.336339 0.022075
v 7.545496 1.335623 0.021286
v 7.539152 1.336201 0.010628
v 7.544808 1.347640 0.020876
v 7.547726 1.333878 0.019512
v 7.545898 1.345531 0.022836
v 7.546903 1.343457 0.024896
v 7.544947 1.339422 0.024187
v 7.548679 1.336941 0.022015
v 7.547341 1.337751 0.022888
v 7.551146 1.346803 0.028549
v 7.550570 1.349430 0.026720
v 7.547816 1.342170 0.025535
v 7.551912 1.344737 0.029233
v 7.546346 1.338279 0.023661
v 7.549276 1.338692 0.023687
v 7.549249 1.338986 0.024008
v 7.549087 1.340760 0.025924
v 7.553683 1.348390 0.029917
v 7.554269 1.346114 0.030655
v 7.550176 1.351950 0.024493
v 7.553391 1.351135 0.028219
v 7.552284 1.342296 0.028482
v 7.550188 1.339388 0.024560
v 7.550448 1.339068 0.024237
v 7.555448 1.351586 0.028701
v 7.557412 1.349014 0.030222
v 7.559705 1.346784 0.031056
v 7.554514 1.343374 0.029814
v 7.554118 1.354935 0.010359
v 7.553335 1.353651 0.026060
v 7.541868 1.350805 0.009213
v 7.551166 1.339601 0.024908
v 7.551513 1.339410 0.024737
v 7.554459 1.341408 0.027926
v 7.559691 1.343698 0.030846
v 7.555482 1.353942 0.025845
v 7.543652 1.347808 -0.002141
v 7.534857 1.337788 0.001876
v 7.552281 1.339743 0.025388
v 7.552685 1.340275 0.026238
v 7.552643 1.341185 0.027263
v 7.554512 1.340027 0.026349
v 7.565077 1.353770 0.024298
v 7.536587 1.334681 -0.003868
v 7.556130 1.339897 0.026667
v 7.565077 1.358911 0.012162
v 7.565077 1.357854 -0.002314
v 7.552816 1.358160 -0.001716
v 7.563306 1.351788 0.027410
v 7.559556 1.341500 0.029191
v 7.557774 1.339939 0.027159
v 7.576036 1.354935 0.010359
v 7.553661 1.352372 -0.014146
v 7.541324 1.347507 -0.012972
v 7.561627 1.349500 0.030116
v 7.565077 1.343794 0.031712
v 7.565077 1.346723 0.031657
v 7.557590 1.339779 0.026954
v 7.543825 1.338742 -0.017775
v 7.533849 1.331574 -0.009612
v 7.565077 1.349524 0.030741
v 7.559751 1.339885 0.027649
v 7.559764 1.339605 0.027382
v 7.536401 1.325378 -0.011385
v 7.534455 1.319182 -0.013158
v 7.539122 1.313438 -0.009435
v 7.539796 1.308043 -0.004774
v 7.565077 1.351767 0.027524
v 7.563401 1.339120 0.028418
v 7.563353 1.338904 0.028233
v 7.563861 1.341173 0.030169
v 7.542249 1.330932 -0.025055
v 7.544170 1.320994 -0.022760
v 7.542080 1.308607 -0.023898
v 7.545149 1.299140 -0.011042
v 7.542099 1.303164 -0.007618
v 7.566847 1.351788 0.027410
v 7.566752 1.339120 0.028418
v 7.566292 1.341173 0.030169
v 7.553661 1.333062 -0.030350
v 7.552566 1.345142 -0.025781
v 7.554232 1.309114 -0.026887
v 7.554232 1.292771 -0.016214
v 7.568527 1.349500 0.030116
v 7.570389 1.339605 0.027382
v 7.570403 1.339885 0.027649
v 7.566801 1.338904 0.028233
v 7.570597 1.341500 0.029191
v 7.565077 1.345365 -0.025403
v 7.565077 1.355958 -0.016076
v 7.565077 1.291374 -0.017020
v 7.559573 1.291441 -0.016642
v 7.570463 1.343698 0.030846
v 7.570449 1.346784 0.031056
v 7.572552 1.339779 0.026956
v 7.572406 1.339970 0.027250
v 7.576493 1.352372 -0.014146
v 7.577338 1.358160 -0.001716
v 7.565077 1.307324 -0.029697
v 7.575922 1.309114 -0.026887
v 7.575922 1.292771 -0.016214
v 7.574011 1.339896 0.026669
v 7.574098 1.339976 0.026823
v 7.575694 1.341408 0.027926
v 7.586502 1.347808 -0.002141
v 7.565077 1.320458 -0.032531
v 7.585004 1.299140 -0.011042
v 7.552816 1.319182 -0.033211
v 7.575641 1.340027 0.026349
v 7.575639 1.343374 0.029814
v 7.577511 1.341185 0.027263
v 7.577870 1.342296 0.028482
v 7.588073 1.308607 -0.023898
v 7.590357 1.308043 -0.004774
v 7.588055 1.303164 -0.007618
v 7.578640 1.339410 0.024737
v 7.577872 1.339743 0.025388
v 7.577469 1.340275 0.026238
v 7.575884 1.346114 0.030655
v 7.581067 1.340760 0.025924
v 7.578241 1.344737 0.029233
v 7.591032 1.313438 -0.009435
v 7.593792 1.317568 0.004280
v 7.565077 1.333706 -0.034747
v 7.578988 1.339601 0.024908
v 7.579706 1.339068 0.024237
v 7.576470 1.348390 0.029917
v 7.579008 1.346803 0.028549
v 7.585983 1.320994 -0.022760
v 7.595698 1.319182 -0.013158
v 7.576493 1.333062 -0.030350
v 7.577338 1.319182 -0.033211
v 7.577588 1.345142 -0.025781
v 7.579966 1.339388 0.024560
v 7.580877 1.338692 0.023687
v 7.572742 1.349014 0.030222
v 7.593753 1.325378 -0.011385
v 7.586329 1.338742 -0.017775
v 7.587905 1.330932 -0.025055
v 7.588830 1.347507 -0.012972
v 7.581475 1.336941 0.022015
v 7.582812 1.337751 0.022888
v 7.580905 1.338986 0.024008
v 7.596305 1.331574 -0.009612
v 7.593566 1.334681 -0.003868
v 7.588285 1.350805 0.009213
v 7.591002 1.336201 0.010628
v 7.595296 1.337788 0.001876
v 7.584658 1.335623 0.021286
v 7.582428 1.333878 0.019512
v 7.574706 1.351586 0.028701
v 7.585345 1.347640 0.020876
v 7.582728 1.332945 0.018703
v 7.582337 1.342170 0.025535
v 7.583808 1.338279 0.023661
v 7.574672 1.353942 0.025845
v 7.585324 1.334785 0.020767
v 7.583831 1.327102 0.015793
v 7.583251 1.343457 0.024896
v 7.585622 1.336339 0.022075
v 7.585207 1.339422 0.024187
v 7.576818 1.353651 0.026060
v 7.579978 1.351950 0.024493
v 7.586956 1.328155 0.017636
v 7.584685 1.320781 0.014213
v 7.586321 1.335514 0.021512
v 7.587969 1.336778 0.022616
v 7.586635 1.342361 0.021522
v 7.576763 1.351135 0.028219
v 7.579583 1.349430 0.026720
v 7.587953 1.320781 0.015793
v 7.590082 1.329208 0.019480
v 7.584658 1.314461 0.012633
v 7.587921 1.313408 0.013950
v 7.588633 1.339044 0.019911
v 7.584256 1.345531 0.022836
v 7.591185 1.312354 0.015266
v 7.591221 1.320781 0.017373
v 7.591224 1.331544 0.016671
v 7.586613 1.318372 0.004393
v 7.589100 1.340292 0.018249
v 7.592923 1.315830 0.007942
v 7.592269 1.323687 0.012306
v 7.591185 1.312354 0.015266
v 7.592793 1.325140 0.009773
v 7.591794 1.332712 0.015266
v 7.590357 1.308043 -0.004774
v 7.593792 1.317568 0.004280
v 7.592923 1.315830 0.007942
v 7.585004 1.299140 -0.011042
v 7.588055 1.303164 -0.007618
v 7.580793 1.295417 -0.013543
v 7.575922 1.292771 -0.016214
v 7.549361 1.295417 -0.013543
v 7.559573 1.291441 -0.016642
v 7.570580 1.291441 -0.016642
v 7.580793 1.295417 -0.013543
v 7.570580 1.291441 -0.016642
vn 0.1064 -0.8883 -0.4468
vn 0.1065 -0.9772 0.1835
vn 0.0818 -0.9758 0.2030
vn 0.4141 -0.8376 0.3562
vn -0.0096 -0.6175 0.7865
vn 0.0084 -0.5990 0.8007
vn 0.0403 -0.5472 0.8361
vn 0.4039 -0.8594 0.3135
vn 0.4084 -0.8503 0.3320
vn -0.4141 -0.8376 0.3562
vn 0.4620 -0.2042 0.8630
vn -0.4220 -0.2456 0.8727
vn -0.4084 -0.8503 0.3320
vn 0.0090 -0.5944 0.8041
vn 0.0858 -0.5792 0.8107
vn 0.0274 -0.5822 0.8126
vn -0.0000 -0.5725 0.8199
vn -0.0274 -0.5822 0.8126
vn -0.0084 -0.5990 0.8007
vn -0.0000 -0.6073 0.7944
vn -0.4220 -0.2448 0.8729
vn -0.4039 -0.8594 0.3135
vn -0.3726 -0.3721 0.8501
vn -0.3830 -0.3538 0.8533
vn 0.4220 -0.2456 0.8727
vn -0.4620 -0.2042 0.8630
vn 0.9792 -0.0418 0.1987
vn 0.9787 -0.0340 0.2026
vn 0.9722 -0.0204 0.2333
vn 0.3726 -0.3721 0.8501
vn 0.2302 -0.5525 0.8011
vn 0.1980 -0.5329 0.8227
vn -0.4679 -0.2262 0.8543
vn 0.9401 0.0603 0.3356
vn 0.9718 0.1426 0.1880
vn 0.9149 0.3346 0.2259
vn 0.8567 0.2149 0.4689
vn 0.4679 -0.2262 0.8543
vn 0.5412 -0.1530 0.8268
vn -0.5412 -0.1530 0.8268
vn -0.1980 -0.5329 0.8227
vn -0.2302 -0.5525 0.8011
vn -0.7217 -0.2333 -0.6517
vn -0.7128 -0.5228 -0.4676
vn -0.9429 -0.3007 -0.1432
vn -0.8866 -0.4252 -0.1819
vn -0.9722 -0.0204 0.2333
vn -0.9787 -0.0340 0.2026
vn -0.9792 -0.0418 0.1987
vn -0.6431 0.1817 0.7439
vn -0.6703 0.3648 0.6463
vn -0.7214 0.2757 0.6352
vn -0.6787 0.1662 0.7154
vn 0.1256 -0.6467 0.7523
vn 0.0830 -0.6205 0.7798
vn -0.8567 0.2149 0.4689
vn -0.7820 0.2705 0.5616
vn -0.9149 0.3346 0.2259
vn -0.1256 -0.6467 0.7523
vn -0.0830 -0.6205 0.7798
vn -0.2642 -0.5268 0.8079
vn -0.1184 -0.6420 0.7575
vn -0.9718 0.1426 0.1880
vn -0.9497 0.2594 0.1753
vn -0.9935 0.0682 0.0913
vn -0.9899 -0.0915 0.1083
vn -0.7517 0.5167 0.4098
vn -0.0000 0.5924 0.8057
vn -0.0000 0.8275 0.5615
vn 0.0107 0.7901 0.6129
vn -0.0459 0.5590 0.8279
vn -0.0000 0.1663 0.9861
vn -0.1026 0.1239 0.9870
vn 0.1606 -0.8032 0.5736
vn 0.1672 -0.7334 0.6589
vn 0.2213 -0.6743 0.7045
vn 0.2325 -0.6857 0.6898
vn -0.0990 -0.6949 0.7122
vn 0.0047 -0.5984 0.8012
vn 0.6431 0.1817 0.7439
vn 0.6787 0.1662 0.7154
vn 0.7214 0.2757 0.6352
vn 0.6703 0.3648 0.6463
vn 0.0990 -0.6949 0.7122
vn -0.0047 -0.5984 0.8012
vn -0.4880 -0.1127 0.8655
vn -0.5010 -0.1360 0.8547
vn -0.1084 -0.5807 0.8069
vn -0.1843 -0.6260 0.7577
vn -0.2310 -0.6612 0.7138
vn -0.1857 -0.6448 0.7415
vn 0.4880 -0.1127 0.8655
vn 0.5010 -0.1360 0.8547
vn 0.2663 -0.5462 0.7942
vn 0.0779 -0.6662 0.7417
vn 0.0271 -0.7294 0.6836
vn -0.0023 -0.7359 0.6771
vn 0.5174 -0.1370 0.8447
vn 0.3090 -0.5336 0.7872
vn -0.2663 -0.5462 0.7942
vn 0.4076 0.5233 0.7484
vn 0.3828 0.3117 0.8697
vn 0.2859 0.0007 0.9583
vn -0.5174 -0.1370 0.8447
vn -0.2859 0.0007 0.9583
vn -0.3828 0.3117 0.8697
vn -0.3308 -0.4476 -0.8308
vn -0.3135 -0.5701 -0.7594
vn -0.0788 -0.7366 0.6717
vn -0.0000 0.6456 -0.7637
vn -0.0000 0.2663 -0.9639
vn -0.3978 0.2554 -0.8812
vn -0.4351 0.6065 -0.6654
vn -0.3090 -0.5336 0.7872
vn 0.7820 0.2705 0.5616
vn 0.3461 0.9305 0.1196
vn 0.6133 0.6846 0.3938
vn 0.7517 0.5167 0.4098
vn 0.7616 0.6476 -0.0237
vn -0.9401 0.0603 0.3356
vn -0.6133 0.6846 0.3938
vn -0.3701 0.8251 0.4268
vn -0.3461 0.9305 0.1196
vn -0.7616 0.6476 -0.0237
vn -0.0271 -0.7294 0.6836
vn 0.0023 -0.7359 0.6771
vn 0.0788 -0.7366 0.6717
vn 0.0770 -0.7390 0.6693
vn -0.1162 -0.7692 0.6284
vn 0.2093 -0.4451 0.8707
vn 0.1470 -0.7054 0.6934
vn 0.1414 -0.7391 0.6586
vn 0.1162 -0.7692 0.6284
vn 0.1241 -0.7774 0.6167
vn -0.0922 0.9060 0.4132
vn -0.7498 0.6583 -0.0663
vn -0.9215 0.3469 0.1747
vn -0.1241 -0.7774 0.6167
vn -0.1475 -0.8017 0.5793
vn -0.1491 -0.7744 0.6149
vn -0.1414 -0.7391 0.6586
vn -0.1621 -0.7536 0.6371
vn -0.0000 0.9174 0.3981
vn 0.0922 0.9060 0.4132
vn -0.0000 0.9868 0.1619
vn 0.0806 0.6443 0.7605
vn -0.0107 0.7901 0.6129
vn -0.9520 0.2990 -0.0655
vn -0.0618 0.4439 0.8939
vn -0.0806 0.6443 0.7605
vn -0.1799 -0.7368 0.6518
vn -0.1427 -0.7087 0.6909
vn -0.7449 0.3833 -0.5461
vn -0.7788 0.1626 -0.6058
vn -0.4279 0.9035 -0.0244
vn 0.0618 0.4439 0.8939
vn 0.0459 0.5590 0.8279
vn -0.1813 -0.6977 0.6931
vn -0.0000 0.9943 -0.1065
vn 0.4279 0.9035 -0.0244
vn 0.1515 -0.8674 0.4740
vn 0.1716 -0.8082 0.5634
vn 0.3743 0.8164 -0.4398
vn -0.0000 0.8803 -0.4744
vn 0.1469 -0.3440 0.9274
vn 0.1026 0.1239 0.9870
vn -0.0000 -0.2706 0.9627
vn -0.1934 -0.6824 0.7049
vn -0.7048 0.5061 -0.4972
vn -0.3743 0.8164 -0.4398
vn -0.9363 0.2273 -0.2677
vn -0.2411 -0.6591 0.7124
vn -0.9301 0.0511 -0.3637
vn -0.9033 -0.1950 -0.3822
vn 0.1822 -0.6241 0.7598
vn 0.1084 -0.5807 0.8069
vn 0.1857 -0.6448 0.7415
vn -0.7424 -0.0993 -0.6626
vn 0.7217 -0.2333 -0.6517
vn 0.8866 -0.4252 -0.1819
vn 0.9429 -0.3007 -0.1432
vn 0.7128 -0.5228 -0.4676
vn -0.6802 0.1021 -0.7259
vn 0.7449 0.3833 -0.5461
vn 0.7788 0.1626 -0.6058
vn 0.3978 0.2554 -0.8812
vn 0.4351 0.6065 -0.6654
vn 0.3308 -0.4476 -0.8308
vn 0.3135 -0.5701 -0.7594
vn -0.0000 -0.1643 -0.9864
vn 0.4206 -0.2176 -0.8808
vn -0.0000 -0.4841 -0.8750
vn -0.2889 -0.6333 0.7179
vn 0.1748 -0.7584 0.6279
vn 0.1491 -0.7744 0.6149
vn -0.1469 -0.3440 0.9274
vn -0.0000 -0.5482 -0.8363
vn -0.0679 0.0476 -0.9966
vn -0.4076 0.5233 0.7484
vn 0.2889 -0.6333 0.7179
vn -0.2093 -0.4451 0.8707
vn 0.7498 0.6583 -0.0663
vn -0.4206 -0.2176 -0.8808
vn 0.7048 0.5061 -0.4972
vn 0.7424 -0.0993 -0.6626
vn 0.2642 -0.5268 0.8079
vn 0.1184 -0.6420 0.7575
vn 0.6802 0.1021 -0.7259
vn 0.1475 -0.8017 0.5793
vn 0.9899 -0.0915 0.1083
vn -0.0770 -0.7390 0.6693
vn 0.9935 0.0682 0.0913
vn 0.9033 -0.1950 -0.3822
vn -0.0779 -0.6662 0.7417
vn 0.9301 0.0511 -0.3637
vn 0.9363 0.2273 -0.2677
vn 0.9520 0.2990 -0.0655
vn 0.9497 0.2594 0.1753
vn 0.9215 0.3469 0.1747
vn 0.3830 -0.3538 0.8533
vn 0.3701 0.8251 0.4268
vn 0.4220 -0.2448 0.8729
vn -0.0818 -0.9758 0.2030
vn -0.1064 -0.8883 -0.4468
vn 0.0096 -0.6175 0.7865
vn -0.1065 -0.9772 0.1835
vn -0.0090 -0.5944 0.8041
vn -0.0403 -0.5472 0.8361
vn -0.0858 -0.5792 0.8107
vn -0.4269 0.1191 -0.8964
vn 0.0679 -0.0476 0.9966
vn -0.0679 -0.0476 0.9966
vn 0.4269 0.1191 -0.8964
vn 0.0679 0.0476 -0.9966
vt 0.000000 0.000000
s 1
f 1/1/1 2/1/2 3/1/3
f 1/1/1 3/1/3 4/1/4
f 2/1/2 5/1/5 3/1/3
f 5/1/5 6/1/6 3/1/3
f 5/1/5 7/1/7 6/1/6
f 3/1/3 8/1/8 9/1/9
f 3/1/3 9/1/9 4/1/4
f 213/1/10 214/1/11 207/1/12 210/1/13
f 7/1/7 12/1/14 6/1/6
f 6/1/6 12/1/14 13/1/15
f 6/1/6 13/1/15 14/1/16
f 15/1/17 229/1/18 23/1/19 16/1/20
f 210/1/13 207/1/12 201/1/21 209/1/22
f 201/1/21 207/1/12 200/1/23 194/1/24
f 10/1/25 11/1/26 4/1/4 9/1/9
f 220/1/27 225/1/28 219/1/29 214/1/11
f 19/1/30 28/1/31 27/1/32 18/1/33
f 215/1/34 222/1/35 217/1/36 211/1/37
f 208/1/38 215/1/34 211/1/37 203/1/39
f 18/1/33 27/1/32 26/1/40
f 200/1/23 208/1/38 202/1/41 193/1/42
f 110/1/43 111/1/44 103/1/45 102/1/46
f 20/1/47 29/1/48 21/1/49 11/1/26
f 46/1/50 47/1/51 41/1/52 42/1/53
f 27/1/32 28/1/31 37/1/54 36/1/55
f 25/1/56 35/1/57 33/1/58
f 15/1/17 16/1/20 6/1/6 14/1/16
f 27/1/32 36/1/55 26/1/40
f 185/1/59 193/1/42 202/1/41 196/1/60
f 189/1/61 193/1/42 185/1/59 186/1/62
f 32/1/63 33/1/58 38/1/64
f 30/1/65 32/1/63 38/1/64
f 30/1/65 38/1/64 31/1/66
f 33/1/58 39/1/67 38/1/64
f 33/1/58 35/1/57 39/1/67
f 35/1/57 41/1/52 39/1/67
f 97/1/68 104/1/69 85/1/70 91/1/71
f 93/1/72 97/1/68 91/1/71 63/1/73
f 131/1/74 132/1/75 122/1/76 121/1/77
f 178/1/78 185/1/59 196/1/60 191/1/79
f 164/1/80 195/1/81 212/1/82 206/1/83
f 45/1/84 50/1/85 36/1/55 37/1/54
f 42/1/53 43/1/86 48/1/87
f 107/1/88 86/1/89 98/1/90 105/1/91
f 191/1/79 197/1/92 190/1/93 156/1/94
f 44/1/95 51/1/96 45/1/84
f 45/1/84 51/1/96 52/1/97
f 156/1/94 190/1/93 157/1/98 148/1/99
f 45/1/84 53/1/100 50/1/85
f 45/1/84 52/1/97 53/1/100
f 205/1/101 163/1/102 164/1/80 206/1/83
f 155/1/103 157/1/98 164/1/80 163/1/102
f 46/1/50 49/1/104 55/1/105 54/1/106
f 118/1/107 119/1/108 111/1/44 110/1/43
f 52/1/97 59/1/109 53/1/100
f 214/1/11 219/1/29 215/1/34 208/1/38
f 125/1/110 160/1/111 116/1/112 117/1/113
f 53/1/100 58/1/114 49/1/104 48/1/87
f 203/1/39 211/1/37 204/1/115 197/1/92
f 88/1/116 199/1/117 188/1/118 182/1/119
f 18/1/33 26/1/40 25/1/56 22/1/120
f 56/1/121 66/1/122 65/1/123
f 39/1/67 67/1/124 38/1/64
f 171/1/125 179/1/126 170/1/127 162/1/128
f 59/1/109 68/1/129 53/1/100
f 148/1/99 146/1/130 140/1/131 147/1/132
f 162/1/128 170/1/127 161/1/133 152/1/134
f 66/1/122 72/1/135 65/1/123
f 67/1/124 65/1/123 73/1/136
f 67/1/124 73/1/136 38/1/64
f 38/1/64 73/1/136 74/1/137
f 38/1/64 74/1/137 31/1/66
f 68/1/129 69/1/138 75/1/139
f 68/1/129 75/1/139 76/1/140
f 68/1/129 76/1/140 53/1/100
f 53/1/100 77/1/141 58/1/114
f 53/1/100 76/1/140 77/1/141
f 206/1/83 212/1/82 188/1/118 199/1/117
f 75/1/139 78/1/142 76/1/140
f 69/1/138 78/1/142 75/1/139
f 79/1/143 192/1/144 88/1/116 82/1/145
f 187/1/146 192/1/144 79/1/143 113/1/147
f 74/1/137 80/1/148 31/1/66
f 62/1/149 91/1/71 85/1/70 61/1/150
f 78/1/142 81/1/151 70/1/152
f 95/1/153 117/1/113 116/1/112 108/1/154
f 65/1/123 84/1/155 73/1/136
f 172/1/156 187/1/146 113/1/147 120/1/157
f 70/1/152 87/1/158 86/1/89
f 70/1/152 81/1/151 87/1/158
f 83/1/159 84/1/155 65/1/123 82/1/145
f 88/1/116 134/1/160 83/1/159 82/1/145
f 138/1/161 139/1/162 132/1/75 131/1/74
f 83/1/159 134/1/160 133/1/163 126/1/164
f 62/1/149 63/1/73 91/1/71
f 61/1/150 85/1/70 79/1/143 72/1/135
f 129/1/165 130/1/166 93/1/72 92/1/167
f 93/1/72 130/1/166 120/1/157 97/1/68
f 81/1/151 94/1/168 87/1/158
f 90/1/169 89/1/170 95/1/153
f 90/1/169 95/1/153 80/1/148
f 80/1/148 95/1/153 96/1/171
f 80/1/148 96/1/171 31/1/66
f 97/1/68 120/1/157 113/1/147 104/1/69
f 94/1/168 98/1/90 87/1/158
f 98/1/90 86/1/89 87/1/158
f 94/1/168 99/1/172 98/1/90
f 96/1/171 95/1/153 100/1/173
f 96/1/171 100/1/173 31/1/66
f 31/1/66 100/1/173 101/1/174
f 31/1/66 101/1/174 102/1/46
f 31/1/66 102/1/46 103/1/45
f 85/1/70 104/1/69 79/1/143
f 207/1/12 214/1/11 208/1/38 200/1/23
f 122/1/76 124/1/175 115/1/176 114/1/177
f 100/1/173 95/1/153 108/1/154
f 100/1/173 109/1/178 101/1/174
f 100/1/173 108/1/154 109/1/178
f 101/1/174 109/1/178 102/1/46
f 102/1/46 109/1/178 110/1/43
f 149/1/179 158/1/180 150/1/181 143/1/182
f 103/1/45 111/1/44 112/1/183
f 140/1/131 146/1/130 129/1/165 124/1/175
f 104/1/69 113/1/147 79/1/143
f 157/1/98 190/1/93 195/1/81 164/1/80
f 107/1/88 115/1/176 92/1/167
f 174/1/184 175/1/185 167/1/186 169/1/187
f 148/1/99 157/1/98 155/1/103 146/1/130
f 95/1/153 89/1/170 117/1/113
f 110/1/43 109/1/178 118/1/107
f 136/1/188 149/1/179 143/1/182 137/1/189
f 142/1/190 168/1/191 136/1/188 135/1/192
f 99/1/172 106/1/193 105/1/91 98/1/90
f 145/1/194 154/1/195 147/1/132 140/1/131
f 86/1/89 107/1/88 92/1/167 71/1/196
f 133/1/163 169/1/187 125/1/110 126/1/164
f 125/1/110 169/1/187 167/1/186 160/1/111
f 136/1/188 137/1/189 127/1/197 135/1/192
f 119/1/108 127/1/197 128/1/198
f 54/1/106 57/1/199 47/1/51 46/1/50
f 79/1/143 82/1/145 65/1/123 72/1/135
f 122/1/76 132/1/75 124/1/175
f 83/1/159 126/1/164 89/1/170 84/1/155
f 196/1/60 203/1/39 197/1/92 191/1/79
f 114/1/177 123/1/200 121/1/77 122/1/76
f 65/1/123 67/1/124 39/1/67 56/1/121
f 132/1/75 140/1/131 124/1/175
f 132/1/75 139/1/162 140/1/131
f 70/1/152 86/1/89 71/1/196 64/1/201
f 134/1/160 88/1/116 141/1/202
f 89/1/170 90/1/169 73/1/136 84/1/155
f 118/1/107 144/1/203 142/1/190 135/1/192
f 163/1/102 205/1/101 187/1/146 172/1/156
f 141/1/202 176/1/204 133/1/163 134/1/160
f 124/1/175 129/1/165 92/1/167 115/1/176
f 118/1/107 109/1/178 144/1/203
f 138/1/161 145/1/194 139/1/162
f 139/1/162 145/1/194 140/1/131
f 64/1/201 71/1/196 63/1/73 55/1/105
f 78/1/142 70/1/152 77/1/141 76/1/140
f 167/1/186 175/1/185 165/1/205 168/1/191
f 34/1/206 40/1/207 37/1/54 28/1/31
f 143/1/182 150/1/181 151/1/208
f 145/1/194 152/1/134 153/1/209
f 145/1/194 153/1/209 154/1/195
f 58/1/114 64/1/201 55/1/105 49/1/104
f 147/1/132 154/1/195 156/1/94
f 147/1/132 156/1/94 148/1/99
f 194/1/24 200/1/23 193/1/42 189/1/61
f 150/1/181 158/1/180 159/1/210
f 153/1/209 161/1/133 154/1/195
f 154/1/195 161/1/133 156/1/94
f 152/1/134 161/1/133 153/1/209
f 60/1/211 69/1/138 68/1/129 59/1/109
f 54/1/106 55/1/105 63/1/73 62/1/149
f 219/1/29 225/1/28 159/1/210 221/1/212
f 149/1/179 136/1/188 165/1/205
f 158/1/180 149/1/179 165/1/205
f 158/1/180 165/1/205 166/1/213
f 158/1/180 166/1/213 159/1/210
f 177/1/214 186/1/62 185/1/59 178/1/78
f 116/1/112 160/1/111 142/1/190 144/1/203
f 144/1/203 109/1/178 108/1/154 116/1/112
f 168/1/191 165/1/205 136/1/188
f 156/1/94 161/1/133 170/1/127
f 51/1/96 60/1/211 59/1/109 52/1/97
f 130/1/166 172/1/156 120/1/157
f 166/1/213 173/1/215 159/1/210
f 166/1/213 165/1/205 173/1/215
f 167/1/186 168/1/191 142/1/190 160/1/111
f 169/1/187 133/1/163 174/1/184
f 175/1/185 173/1/215 165/1/205
f 175/1/185 174/1/184 173/1/215
f 133/1/163 176/1/204 174/1/184
f 171/1/125 177/1/214 178/1/78
f 179/1/126 178/1/78 156/1/94
f 179/1/126 156/1/94 170/1/127
f 171/1/125 178/1/78 179/1/126
f 173/1/215 174/1/184 180/1/216
f 173/1/215 180/1/216 159/1/210
f 174/1/184 181/1/217 180/1/216
f 73/1/136 90/1/169 80/1/148 74/1/137
f 174/1/184 176/1/204 181/1/217
f 180/1/216 181/1/217 159/1/210
f 141/1/202 88/1/116 182/1/119
f 141/1/202 182/1/119 183/1/218
f 141/1/202 183/1/218 184/1/219
f 184/1/219 183/1/218 159/1/210
f 181/1/217 184/1/219 159/1/210
f 44/1/95 45/1/84 37/1/54 40/1/207
f 54/1/106 62/1/149 61/1/150 57/1/199
f 163/1/102 172/1/156 130/1/166 155/1/103
f 141/1/202 184/1/219 181/1/217 176/1/204
f 182/1/119 188/1/118 183/1/218
f 58/1/114 77/1/141 70/1/152 64/1/201
f 89/1/170 126/1/164 125/1/110 117/1/113
f 156/1/94 178/1/78 191/1/79
f 24/1/220 34/1/206 28/1/31 19/1/30
f 42/1/53 48/1/87 49/1/104 46/1/50
f 146/1/130 155/1/103 130/1/166 129/1/165
f 197/1/92 195/1/81 190/1/93
f 36/1/55 50/1/85 43/1/86 26/1/40
f 192/1/144 198/1/221 88/1/116
f 61/1/150 72/1/135 66/1/122 57/1/199
f 88/1/116 198/1/221 199/1/117
f 17/1/222 24/1/220 19/1/30 10/1/25
f 187/1/146 205/1/101 198/1/221 192/1/144
f 50/1/85 53/1/100 48/1/87 43/1/86
f 196/1/60 202/1/41 203/1/39
f 35/1/57 43/1/86 42/1/53 41/1/52
f 26/1/40 43/1/86 35/1/57 25/1/56
f 57/1/199 66/1/122 56/1/121 47/1/51
f 47/1/51 56/1/121 39/1/67 41/1/52
f 205/1/101 206/1/83 199/1/117 198/1/221
f 202/1/41 208/1/38 203/1/39
f 10/1/25 19/1/30 18/1/33 11/1/26
f 221/1/212 222/1/35 215/1/34 219/1/29
f 212/1/82 195/1/81 197/1/92 204/1/115
f 118/1/107 135/1/192 127/1/197 119/1/108
f 212/1/82 204/1/115 188/1/118
f 8/1/8 17/1/222 10/1/25 9/1/9
f 11/1/26 18/1/33 22/1/120 20/1/47
f 210/1/13 216/1/223 213/1/10
f 209/1/22 216/1/223 210/1/13
f 188/1/118 217/1/36 183/1/218
f 188/1/118 204/1/115 217/1/36
f 33/1/58 32/1/63 22/1/120 25/1/56
f 211/1/37 217/1/36 204/1/115
f 213/1/10 216/1/223 218/1/224
f 114/1/177 115/1/176 107/1/88 105/1/91
f 20/1/47 30/1/65 31/1/66 29/1/48
f 22/1/120 32/1/63 30/1/65 20/1/47
f 183/1/218 221/1/212 159/1/210
f 217/1/36 222/1/35 183/1/218
f 183/1/218 222/1/35 221/1/212
f 216/1/223 23/1/19 223/1/225
f 216/1/223 224/1/226 218/1/224
f 216/1/223 223/1/225 224/1/226
f 23/1/19 226/1/227 227/1/228
f 23/1/19 227/1/228 223/1/225
f 23/1/19 228/1/229 226/1/227
f 23/1/19 229/1/18 228/1/229
f 119/1/108 230/1/230 111/1/44
f 231/1/231 15/1/17 14/1/16
f 15/1/17 232/1/232 229/1/18
f 143/1/182 233/1/233 137/1/189
f 137/1/189 234/1/234 127/1/197
f 71/1/196 92/1/167 93/1/72 63/1/73
